<svg width="32" height="32" viewBox="0 0 32 32" fill="none" xmlns="http://www.w3.org/2000/svg">
<path d="M16.0001 2.6665C19.6227 2.6665 20.0747 2.67984 21.4961 2.7465C22.9161 2.81317 23.8827 3.03584 24.7334 3.3665C25.6134 3.70517 26.3547 4.16384 27.0961 4.90384C27.7741 5.57037 28.2987 6.37662 28.6334 7.2665C28.9627 8.11584 29.1867 9.08384 29.2534 10.5038C29.3161 11.9252 29.3334 12.3772 29.3334 15.9998C29.3334 19.6225 29.3201 20.0745 29.2534 21.4958C29.1867 22.9158 28.9627 23.8825 28.6334 24.7332C28.2997 25.6235 27.7749 26.43 27.0961 27.0958C26.4294 27.7736 25.6232 28.2982 24.7334 28.6332C23.8841 28.9625 22.9161 29.1865 21.4961 29.2532C20.0747 29.3158 19.6227 29.3332 16.0001 29.3332C12.3774 29.3332 11.9254 29.3198 10.5041 29.2532C9.08408 29.1865 8.11741 28.9625 7.26675 28.6332C6.37652 28.2991 5.57012 27.7744 4.90408 27.0958C4.22596 26.4294 3.70132 25.6231 3.36675 24.7332C3.03608 23.8838 2.81341 22.9158 2.74675 21.4958C2.68408 20.0745 2.66675 19.6225 2.66675 15.9998C2.66675 12.3772 2.68008 11.9252 2.74675 10.5038C2.81341 9.0825 3.03608 8.11717 3.36675 7.2665C3.7004 6.37608 4.22515 5.5696 4.90408 4.90384C5.57031 4.22548 6.37665 3.70081 7.26675 3.3665C8.11741 3.03584 9.08275 2.81317 10.5041 2.7465C11.9254 2.68384 12.3774 2.6665 16.0001 2.6665ZM16.0001 9.33317C14.232 9.33317 12.5363 10.0355 11.286 11.2858C10.0358 12.536 9.33341 14.2317 9.33341 15.9998C9.33341 17.7679 10.0358 19.4636 11.286 20.7139C12.5363 21.9641 14.232 22.6665 16.0001 22.6665C17.7682 22.6665 19.4639 21.9641 20.7141 20.7139C21.9644 19.4636 22.6667 17.7679 22.6667 15.9998C22.6667 14.2317 21.9644 12.536 20.7141 11.2858C19.4639 10.0355 17.7682 9.33317 16.0001 9.33317V9.33317ZM24.6667 8.99984C24.6667 8.55781 24.4912 8.13389 24.1786 7.82133C23.866 7.50877 23.4421 7.33317 23.0001 7.33317C22.5581 7.33317 22.1341 7.50877 21.8216 7.82133C21.509 8.13389 21.3334 8.55781 21.3334 8.99984C21.3334 9.44186 21.509 9.86579 21.8216 10.1783C22.1341 10.4909 22.5581 10.6665 23.0001 10.6665C23.4421 10.6665 23.866 10.4909 24.1786 10.1783C24.4912 9.86579 24.6667 9.44186 24.6667 8.99984ZM16.0001 11.9998C17.0609 11.9998 18.0784 12.4213 18.8285 13.1714C19.5787 13.9216 20.0001 14.939 20.0001 15.9998C20.0001 17.0607 19.5787 18.0781 18.8285 18.8283C18.0784 19.5784 17.0609 19.9998 16.0001 19.9998C14.9392 19.9998 13.9218 19.5784 13.1717 18.8283C12.4215 18.0781 12.0001 17.0607 12.0001 15.9998C12.0001 14.939 12.4215 13.9216 13.1717 13.1714C13.9218 12.4213 14.9392 11.9998 16.0001 11.9998V11.9998Z" fill="#000091"/>
</svg>
