<svg xmlns="http://www.w3.org/2000/svg" xmlns:xlink="http://www.w3.org/1999/xlink" width="105.5" height="106.801" viewBox="0 0 105.5 106.801"><defs><style>.a,.c{fill:#fff;}.a{stroke:#707070;}.b{clip-path:url(#a);}.d,.f,.g,.h,.i,.k{fill:none;}.d,.f,.g,.h,.i{stroke:#273375;}.d,.g,.h{stroke-linecap:round;}.d{stroke-linejoin:round;}.d,.f,.g,.h{stroke-miterlimit:10;}.d,.f,.h{stroke-width:2.034px;}.e{fill:#3b5fa9;}.g{stroke-width:1.36px;}.i{stroke-width:5px;}.j{stroke:none;}</style><clipPath id="a"><path d="M0,50.224A50.224,50.224,0,1,0,50.224,0,50.22,50.22,0,0,0,0,50.224"/></clipPath></defs><g transform="translate(-1426 -1690)"><g class="a" transform="translate(1429 1692)"><ellipse class="j" cx="50.75" cy="51.401" rx="50.75" ry="51.401"/><ellipse class="k" cx="50.75" cy="51.401" rx="50.25" ry="50.901"/></g><g transform="translate(1428.552 1694)"><g class="b"><path class="c" d="M33.45,116.7H76.879l2.009,4.786H30.2Z" transform="translate(-12.356 -47.745)"/></g><g class="b"><path class="d" d="M33.45,116.7H76.879l2.009,4.786H30.2Z" transform="translate(-12.356 -47.745)"/></g><g class="b"><path class="e" d="M47.618,95.375l1-2.541L47.5,89.466,58.372,60.455l6.145-.355,12.408,2.836s-4.668,16.781-4.609,19.558,3.723,13.117,3.723,13.117-16.013,1.241-28.421-.236" transform="translate(-19.434 -24.589)"/></g><g class="b"><path class="f" d="M57.663,61.7s.768,16.958,5.2,21.39A69.769,69.769,0,0,0,47.5,89.525m.118,5.85,1-2.541L47.5,89.466,58.372,60.455l6.145-.355,12.408,2.836s-4.668,16.781-4.609,19.558,3.723,13.117,3.723,13.117S60.026,96.852,47.618,95.375Z" transform="translate(-19.434 -24.589)"/></g><g class="b"><path class="c" d="M66.188,43.137a3,3,0,0,0,3.6.709c2.363-.945,9.1-7.031,14.595-6.854,4.254.118,5.377.886,8.922-.532s7.031-5.377,14.417-3.9c7.386,1.418,19.617,6.441,20.09,6.559s0-19.144,0-19.144a37.722,37.722,0,0,0-9.513-1.182c-6.086-.118-15.244,0-17.49-.473C86.16,15.366,82.733,11.88,80.96,12a12.338,12.338,0,0,0-4.372,1.536,6.925,6.925,0,0,0-2.6,1.654c-.473.709-7.5,10.222-7.977,11.4s-2.954,14.772-2.127,15.126a5.6,5.6,0,0,0,1.891.355Z" transform="translate(-26.068 -4.908)"/></g><g class="b"><path class="f" d="M66.188,43.137a3,3,0,0,0,3.6.709c2.363-.945,9.1-7.031,14.595-6.854,4.254.118,5.377.886,8.922-.532s7.031-5.377,14.417-3.9c7.386,1.418,19.617,6.441,20.09,6.559s0-19.144,0-19.144a37.722,37.722,0,0,0-9.513-1.182c-6.086-.118-15.244,0-17.49-.473C86.16,15.366,82.733,11.88,80.96,12a12.338,12.338,0,0,0-4.372,1.536,6.925,6.925,0,0,0-2.6,1.654c-.473.709-7.5,10.222-7.977,11.4s-2.954,14.772-2.127,15.126a5.6,5.6,0,0,0,1.891.355Z" transform="translate(-26.068 -4.908)"/></g><g class="b"><path class="c" d="M67.2,52.024s.709-5.022,5.259-6.972c2.954-1.241,8.863-3.9,8.568-6.263-.059-.414-1.891-3.309-2.423-3.191-2.363.532-5.909,3.073-6.972,5.672a57.373,57.373,0,0,0-1.95,5.968" transform="translate(-27.493 -14.563)"/></g><g class="b"><path class="f" d="M67.2,52.024s.709-5.022,5.259-6.972c2.954-1.241,8.863-3.9,8.568-6.263-.059-.414-1.891-3.309-2.423-3.191-2.363.532-5.909,3.073-6.972,5.672a57.373,57.373,0,0,0-1.95,5.968" transform="translate(-27.493 -14.563)"/></g><g class="b"><path class="c" d="M78.6,44.722a30.075,30.075,0,0,1,.532-3.9c.236-.473,3.545-3.9,3.9-5.022" transform="translate(-32.157 -14.647)"/></g><g class="b"><path class="f" d="M78.6,44.722a30.075,30.075,0,0,1,.532-3.9c.236-.473,3.545-3.9,3.9-5.022" transform="translate(-32.157 -14.647)"/></g><g class="b"><path class="c" d="M91.7,55.9a11.777,11.777,0,0,1,1.359,5.022" transform="translate(-37.517 -22.87)"/></g><g class="b"><path class="f" d="M91.7,55.9a11.777,11.777,0,0,1,1.359,5.022" transform="translate(-37.517 -22.87)"/></g><g class="b"><path class="c" d="M84.9,28.5a6.74,6.74,0,0,0,1.477,4.491" transform="translate(-34.731 -11.66)"/></g><g class="b"><path class="g" d="M84.9,28.5a6.74,6.74,0,0,0,1.477,4.491" transform="translate(-34.731 -11.66)"/></g><g class="b"><path class="c" d="M79.4,28.8s.709,4.018,3.132,4.2" transform="translate(-32.485 -11.783)"/></g><g class="b"><path class="h" d="M79.4,28.8s.709,4.018,3.132,4.2" transform="translate(-32.485 -11.783)"/></g><g class="b"><path class="c" d="M84.6,14.74a11.921,11.921,0,0,1,6.854.65" transform="translate(-34.612 -5.936)"/></g><g class="b"><path class="g" d="M84.6,14.74a11.921,11.921,0,0,1,6.854.65" transform="translate(-34.612 -5.936)"/></g><g class="b"><rect class="c" width="48.57" height="30.903" transform="translate(17.726 73.859)"/></g><g class="b"><rect class="d" width="48.57" height="30.903" transform="translate(17.726 73.859)"/></g></g><ellipse class="i" cx="50.25" cy="50.901" rx="50.25" ry="50.901" transform="translate(1428.5 1692.5)"/></g></svg>