<svg xmlns="http://www.w3.org/2000/svg" xmlns:xlink="http://www.w3.org/1999/xlink" width="171.248" height="115.183" viewBox="0 0 171.248 115.183"><defs><style>.a{fill:none;clip-rule:evenodd;}.b{clip-path:url(#a);}.c{fill:#fff;}.d{clip-path:url(#b);}.e{clip-path:url(#c);}.f{clip-path:url(#d);}.g{fill:#3f3256;}.h{clip-path:url(#e);}.i{clip-path:url(#f);}.j{clip-path:url(#g);}.k{clip-path:url(#h);}.l{clip-path:url(#i);}.m{clip-path:url(#j);}.n{clip-path:url(#k);}.o{clip-path:url(#l);}.p{clip-path:url(#m);}.q{clip-path:url(#n);}.r{clip-path:url(#o);}.s{clip-path:url(#p);}.t{fill:#170091;}.u{clip-path:url(#q);}.v{clip-path:url(#r);}</style><clipPath id="a"><path class="a" d="M131.849-171.047l-4.213.414c-6.726.514-13.45,1.588-20.125,2.232a.431.431,0,0,0-.689-.038c-.666-.058-1.413-.568-2.016-.038l-.059-.008a42.342,42.342,0,0,1-2.537-6.466,7.4,7.4,0,0,0-2.223-3.575c-1.952-1.355-6.424-4.1-8.716-3.988a1.7,1.7,0,0,0-.543-1.107c.692-1.181-2.076-1.951-2.271-1.814.125-3.944-1.73-7.37-5.819-8.155-3.664-.764-8.875-.892-10.845,2.938-.217-.024-2.431-.036-2.645-.012-.333-.422-3.991,3.577-2.492,4.969-13.4,5.931-21.024,5.224-24.734,21.9-.5,1.566-.538,3.281-1.068,4.812a44.716,44.716,0,0,0-3.793,13.877,1.106,1.106,0,0,0,.04,2.09,2.488,2.488,0,0,1,1.043.444c-.232,3.925.717,12.89,1.315,12.862,1.219,3.881,6.656,4.976,10.506,3.612-.664,1.249,0,2.034,0,2.7,13.851.524,29,.222,42.843.941,1.771-.025,3.634.435,5.381.17a1.113,1.113,0,0,0-.013-2.139l4.722-1.026a18.187,18.187,0,0,0,3.5-3.957c1.444-2.854.461-6.3,1.115-9.4,5.109-.418,10.3-.6,15.356-1.462.689,2.062,3.671-.4,4.619-1.4l0,0a1.152,1.152,0,0,0,.839-1.065,1.4,1.4,0,0,0,.081-1.553c1.414-8.163,3.57-16.5,4.349-24.739a1.743,1.743,0,0,0,.755-.368l-.018-.018a.937.937,0,0,0-.176-1.486A2.176,2.176,0,0,0,131.849-171.047Z" transform="translate(-36.338 194.02)"/></clipPath><clipPath id="b"><path class="a" d="M79.276-137.338l1.082.689L89.21-133.8l5.41.689,4.426-.689v7.576l.885,7.084q-.59,1.082-11.212,0c-4.514-.46-21.013-.683-24.769-.781l-.213-.006q-6.621-.191-13.081,0v-2.657l12.294-6.1,11.016-6.2ZM73-188.116l.813.607-1.775,2.917,8.647,7v5.589l2.737,2.59,1.565-2.59,2.2-2.933,1.567-4.755-.533-3.133,1.073-.1q.008.321,0,.648c.2-.137,2.963.633,2.271,1.814a1.7,1.7,0,0,1,.543,1.107c2.292-.115,6.764,2.633,8.716,3.988a7.4,7.4,0,0,1,2.223,3.575l.108.33.112.339.113.339a37.289,37.289,0,0,0,2.2,5.457l.059.008c.6-.53,1.35-.02,2.016.038a.434.434,0,0,1,.677.02l.012.018-8.3,1.635L94.58-144.4l-4.767-3.871-2.559.381L80.5-145.453l-7.86,2.042-17.943,4.949H52.408l-13.3-3.212-1.2-.4a44.889,44.889,0,0,1,3.783-13.76c.53-1.532.566-3.246,1.068-4.812,3.71-16.675,11.331-15.967,24.734-21.9-1.5-1.392,2.159-5.391,2.492-4.969l.021,0,.045,0,.058,0c.523-.015,2.326,0,2.52.018A5.7,5.7,0,0,1,73-188.116Z" transform="translate(-37.913 188.116)"/></clipPath><clipPath id="c"><path class="a" d="M182.247-143.422,182-142.044q-.088.029-.179.049-.116,1.232-.272,2.467l-1.532,8.544c-.264,1.512-.515,3.027-.764,4.542l-.33,1.628-.2,1.012c-.441,2.191-.87,4.375-1.246,6.546a1.074,1.074,0,0,1,.133.264l-.029.122-.02.082-.021.081a3.176,3.176,0,0,1-2.03,2.584,17.986,17.986,0,0,1-2.873.376l-.105.011-16.589,1.866q-3.007.338-6.011.692l-1.737.2c-2.421.28-4.855.5-7.24,1.009a.534.534,0,0,0-.219.1c.48-1.819.94-3.635,1.357-5.472.469-2.068.914-4.139,1.416-6.2q1.516-6.225,3.383-12.361.39-1.287.8-2.568l.191-.6.147-.476a3.088,3.088,0,0,1,1.176-1.871,8.268,8.268,0,0,1,2.729-.708l.6-.113q1.345-.251,2.693-.483,6.455-1.111,12.976-1.781,6.78-.7,13.6-.914Zm-41.173,28.489.042,0-.62,4.955a.643.643,0,0,0-.378-.111,16.571,16.571,0,0,1-5.865-1.358l-.287-.109-.8-.308c-.813-.312-1.631-.617-2.464-.869l-.337-.1-.171-.051a9.142,9.142,0,0,0-1.95-.393l-.089,0,.191-.1a.442.442,0,0,0,.074-.049,4.323,4.323,0,0,0,1.1-.049,6.875,6.875,0,0,0,2.052-.725l.286-.155.117-.062.077-.04.077-.039a2.527,2.527,0,0,1,1.768-.3,9.153,9.153,0,0,1,2.187.949l.126.063.085.041.086.041.087.04c.96.432,2.487.9,2.855-.407a1.8,1.8,0,0,0-.224-1.446C139.58-115.561,140.434-115,141.074-114.933Z" transform="translate(-128.155 143.422)"/></clipPath><clipPath id="d"><path class="a" d="M71.37-189.4a.867.867,0,0,1,1.671.461,5.99,5.99,0,0,1-.78,1.936,4.682,4.682,0,0,1-.975,1.284c.728.679,1.483,1.334,2.258,1.955a27.739,27.739,0,0,0,2.653,1.877c.806.5,1.648.95,2.407,1.525a4.807,4.807,0,0,1,1.677,2.016,4.156,4.156,0,0,1-.06,2.709l-.029.1c-.262.885-.716,1.951-.087,2.784a7.216,7.216,0,0,0,1.189,1.064,9.239,9.239,0,0,1,1,.981,8.1,8.1,0,0,1,1.562,2.594l.031.087A3.725,3.725,0,0,1,84-165.288a.3.3,0,0,1-.548-.072c-.145-.529-.137-1.083-.259-1.619a6.107,6.107,0,0,0-.612-1.589,8.588,8.588,0,0,0-2.1-2.5l-.255-.207a3.3,3.3,0,0,1-1.409-2.025,6.872,6.872,0,0,1,.491-2.8,3.15,3.15,0,0,0,.043-1.822,11.657,11.657,0,0,1-.787,1.044c-.491.63-.988,1.256-1.482,1.883-.507.643-1,1.3-1.473,1.967q-.316.45-.627.9c-.156.227-.374.454-.545.685a.408.408,0,0,1-.037.368c-.9,1.221-2.189-1.327-2.524-1.97-.683-1.311-1.191-2.7-1.875-4.014a31.535,31.535,0,0,0-2.418-3.921c-.545-.75-1.155-1.455-1.654-2.229a15.934,15.934,0,0,1-4.138,2.426c-1.559.711-3.179,1.292-4.778,1.909l-.472.183a27.825,27.825,0,0,0-7.866,4.167A19.565,19.565,0,0,0,43.2-165.9c-1.364,3.73-2.492,7.56-3.544,11.388q-.807,2.938-1.529,5.9c-.423,1.739-.774,3.495-1.264,5.216a18.128,18.128,0,0,1,2.974.461,49.509,49.509,0,0,1,11.328,2.71.805.805,0,0,1,.483.988l.78-.221a3.187,3.187,0,0,1-.126-1.7v-.033c.023-.645.093-1.29.138-1.934.086-1.227.2-2.445.348-3.665l.038-.305c.169-1.327.295-2.662.479-3.987l.022-.152c-.089-.339-.192-.674-.3-1.007-.289-.888-.7-1.724-1.053-2.584-.042-.1.1-.159.169-.1a7.139,7.139,0,0,1,1.47,1.956c.007-.034.013-.068.02-.1l.044-.217a3.715,3.715,0,0,1,.565-1.513.08.08,0,0,1,.135,0,4.157,4.157,0,0,1,.393,1.788c.054.676.061,1.36.051,2.038-.019,1.325-.112,2.653-.186,3.976-.073,1.3-.216,2.583-.4,3.87l-.035.241c-.09.613-.164,1.233-.283,1.841l-.034.166a7.977,7.977,0,0,1-.229,1.08q4.889-1.364,9.794-2.671,3.546-.947,7.1-1.878a2.649,2.649,0,0,1,.474-.623,1.807,1.807,0,0,1,2.263-.419.1.1,0,0,1,0,.175c-.149.081-.3.165-.444.252l1.42-.385c1.062-.288,2.136-.647,3.222-.848a49.936,49.936,0,0,1,6.262-2.41l.248-.084a23.784,23.784,0,0,1,3.311-.984,1.777,1.777,0,0,1,2.1.868,13.045,13.045,0,0,1,1.184.913c.273.229.534.472.8.709l.049.043a1,1,0,0,1,.443.615c.028.155-.071.365-.262.344-.585-.063-1.061-.741-1.458-1.147-.307-.313-.616-.637-.9-.981a.347.347,0,0,1-.491-.124c-.539-1.02-2.014-.313-2.83-.071l-1.169.346q-.877.26-1.753.525c-1.6.487-3.2,1.032-4.817,1.48a.337.337,0,0,1-.15.55,34.631,34.631,0,0,1-3.972,1.1q-1.246.323-2.491.651a2.037,2.037,0,0,0-.288.8,9.091,9.091,0,0,0,.445,3.486l.045.161a4.58,4.58,0,0,0,1.353,2.481,1.328,1.328,0,0,0,.65.248q2.2-1.132,4.4-2.263a.409.409,0,0,1,.584.274,9.56,9.56,0,0,0,1.5-.378,19.919,19.919,0,0,0,2.147-1.134c1.433-.685,2.9.156,4.178.8l.3.145c.575.279,1.772.816,2.048.052.267-.739-.577-1.528-1.122-1.861a7.406,7.406,0,0,0-2.141-.785c-.419-.1-.844-.183-1.271-.243a7.929,7.929,0,0,1-1.451-.215.265.265,0,0,1,0-.507,5.367,5.367,0,0,1,2.324.2l.392.1a9.344,9.344,0,0,1,2.2.787,3.992,3.992,0,0,1,1.372,1.177,1.055,1.055,0,0,1,1.06-.166l.211.059a1.983,1.983,0,0,0,.968.1c.045-.246.091-.493.14-.739q.723-3.633,1.595-7.234,1.51-6.209,3.484-12.285l.132-.405a14.772,14.772,0,0,1,1.035-2.788,3.294,3.294,0,0,1,2.081-1.514c1-.279,2.046-.424,3.063-.613l.682-.123a11.031,11.031,0,0,1-.464-1.043l-.023-.052c-.277-.633-.526-1.276-.767-1.924l-.18-.487a24.231,24.231,0,0,0-1.493-3.421,8.9,8.9,0,0,0-2.559-2.877c-2.168-1.592-4.78-2.4-6.882-4.1-.086-.07.024-.189.112-.145,1.42.714,2.952,1.2,4.429,1.78l.291.115a14.61,14.61,0,0,1,3.362,1.716,9.342,9.342,0,0,1,2.68,3.107,27.617,27.617,0,0,1,1.541,3.877l.124.346c.187.519.38,1.037.6,1.542a14.635,14.635,0,0,1,.652,1.317c.408-.071.815-.142,1.223-.21a196.014,196.014,0,0,1,26.734-2.6.505.505,0,0,1,.48.63c-.86,5.085-1.624,10.188-2.462,15.276q-.549,3.332-1.121,6.659c-.193,1.124-.417,2.243-.6,3.369a23.509,23.509,0,0,1-.509,2.713,5.179,5.179,0,0,1-1.151,2.171,4.121,4.121,0,0,1-2.352,1.121c-2.207.38-4.471.535-6.7.788l-11.847,1.348a29.38,29.38,0,0,1,.107,4.716l-.045.869c-.037.7-.081,1.4-.182,2.092a4.222,4.222,0,0,1-1.108,2.252,13.4,13.4,0,0,1-1.824,1.59,9.188,9.188,0,0,1-2.113,1.306l-.1.04a6.383,6.383,0,0,1-2.882.526A3.616,3.616,0,0,1,98.834-120a.415.415,0,0,1-.686.181,3.033,3.033,0,0,1-.583-1.709c-.109-.64-.2-1.282-.287-1.926-.162-1.245-.288-2.5-.326-3.756q-.059-1.934.045-3.868c.036-.661.08-1.322.164-1.979.036-.28.072-.561.114-.84q.023-.153.05-.3l-1.063.12c-1.63.182-3.262.347-4.9.372a.529.529,0,0,1-.442-.215.608.608,0,0,1-.545.29,16.89,16.89,0,0,1-6.514-1.643c-1.051-.446-2.086-.928-3.139-1.37-.983-.412-2.033-.707-2.992-1.171l-2.52,1.322a1.089,1.089,0,0,1-.067.178,1.461,1.461,0,0,1-.818.654,1.968,1.968,0,0,1-.965.139q-2.867,1.5-5.735,3l-1.913,1c-3.812,1.985-7.609,4-11.445,5.942l-.282.142a34.212,34.212,0,0,1-4.218,1.841,7.471,7.471,0,0,0,.022,1.128l.008.086c.044.466.138,1.049-.236,1.381a.434.434,0,0,1-.673-.087,3.223,3.223,0,0,1,.051-1.727,4.933,4.933,0,0,1,.108-.551,11.469,11.469,0,0,1-5.138.464,6.626,6.626,0,0,1-4.006-2.614,11.9,11.9,0,0,1-2.3-4.639,23.926,23.926,0,0,1-.5-5.9,54.562,54.562,0,0,1,.346-6.316,3.046,3.046,0,0,0-.875-.1.68.68,0,0,1-.659.29c-.535.591.823,1.194,1.256,1.345.151.053.135.3-.039.29l-.109-.005a2.015,2.015,0,0,1-1.758-.774,1.215,1.215,0,0,1,.156-1.5,53.915,53.915,0,0,1,1.4-6.939c.543-2.253,1.147-4.491,1.787-6.718l.287-1a97.9,97.9,0,0,1,3.452-10.365,22.164,22.164,0,0,1,2.578-4.778,16.413,16.413,0,0,1,3.575-3.52,33.808,33.808,0,0,1,8.5-4.042l.132-.048c1.528-.553,3.051-1.112,4.562-1.711,1.336-.53,2.615-1.2,3.944-1.739q-.065-.118-.125-.238l-.025.021-.013.01a.369.369,0,0,1-.441-.057c-.311-.294-.206-.62,0-.924l.027-.039c.254-.356.48-.732.715-1.1l.147-.231a9.53,9.53,0,0,1,1.331-1.746,2.862,2.862,0,0,1,.791-.544c-.024-.051.187-.155.247-.1a6.728,6.728,0,0,1,2.893-.168m35.076,53.62-1.241.141q-2.048.233-4.1.455l-2.968.323c-.008.169-.028.335-.032.463-.019.659-.034,1.318-.047,1.977q-.041,1.982.09,3.962c.084,1.278.2,2.556.368,3.825l.035.254.02.133a.58.58,0,0,1,.394.218c.251.3,1.16.008,1.515-.118a7.221,7.221,0,0,0,1.641-.911,10.5,10.5,0,0,0,1.37-1.167l.351-.347a4.49,4.49,0,0,0,.912-1.152,6.379,6.379,0,0,0,.412-1.962c.1-.792.229-1.585.361-2.373M70.228-143.5l-.129.034c-4.677,1.243-9.347,2.523-14.038,3.711-2.322.588-4.654,1.134-6.979,1.71l-.376.094a11.031,11.031,0,0,0-5.094,2.352.055.055,0,0,1-.078-.078c1.513-1.612,3.666-2.294,5.732-2.885.382-.109.765-.216,1.147-.325a67.371,67.371,0,0,0-8.586-2.5c-.752-.16-1.513-.278-2.265-.439-.524-.112-1.036-.274-1.555-.409l-.408-.1-.005,1.29c-.007,1.827,0,3.652.09,5.478l.018.338a20.064,20.064,0,0,0,1,6.024,10.978,10.978,0,0,0,2.741,4.159,4.955,4.955,0,0,0,2.1,1.241,7.133,7.133,0,0,0,2.345.174c3.76-.262,7.107-2.306,10.373-4q8.014-4.151,16.033-8.289a2.625,2.625,0,0,1-.4-.341A5.98,5.98,0,0,1,70.549-139a14.443,14.443,0,0,1-.441-3.246m6.924,7.392a.07.07,0,0,1,.1.06,2.746,2.746,0,0,1-.378,1.18l-.018.039c-.2.456-.429.906-.661,1.349q-.7,1.327-1.449,2.623a31.053,31.053,0,0,1-3.464,4.91c-.3.341-.794-.1-.6-.464a54.894,54.894,0,0,1,3.125-5.1q.837-1.246,1.678-2.488c.235-.345.473-.689.717-1.027l.147-.2M132.5-168.313q-7.04.213-14.052.928-6.516.669-12.976,1.781-1.348.232-2.693.483l-.538.1a8.606,8.606,0,0,0-2.791.719,3.982,3.982,0,0,0-1.349,2.432q-.494,1.536-.962,3.081-1.86,6.131-3.383,12.361c-.5,2.06-.947,4.132-1.416,6.2-.417,1.837-.876,3.653-1.357,5.472a.534.534,0,0,1,.219-.1c2.385-.508,4.819-.728,7.24-1.009l.234-.027q3.756-.442,7.514-.869l16.588-1.866a19.466,19.466,0,0,0,2.978-.388c1.619-.447,2-2.257,2.27-3.7l.008-.044c.819-4.356,1.471-8.75,2.234-13.117m-38.9,16.054c-.644-.042-1.525-.633-2.014-.59a1.8,1.8,0,0,1,.224,1.446c-.411,1.459-2.272.7-3.168.258a9.684,9.684,0,0,0-2.258-.985,3.152,3.152,0,0,0-2.325.6,6.875,6.875,0,0,1-2.052.725,4.323,4.323,0,0,1-1.1.049.441.441,0,0,1-.074.049l-.191.1a10.688,10.688,0,0,1,2.547.55c.833.253,1.651.558,2.464.869l.8.308a17.26,17.26,0,0,0,6.152,1.468.643.643,0,0,1,.378.111m-2.984-9.528a2.177,2.177,0,0,1,1.732.42c.613.5,1.025,1.328,1.907,1.383a.232.232,0,0,1,.061.453,1.612,1.612,0,0,1-1.634-.622l-.3-.314a1.957,1.957,0,0,0-1.6-.784c-.8.029-1.607.215-2.4.309q-1.355.16-2.713.277c-.042,0-.049-.063-.01-.072l1.015-.253m3.332-3.4.1-.011a3.972,3.972,0,0,1,2.594.4l.158.1a6.02,6.02,0,0,1,2.019,1.718.159.159,0,0,1-.177.23,7.731,7.731,0,0,1-2.3-1.362,3.888,3.888,0,0,0-2.678-.375c-.932.083-1.863.2-2.785.352-.867.146-1.736.376-2.612.449v0c-.1,0-.157-.15-.055-.2a11.959,11.959,0,0,1,2.884-.857M55.515-172.128a.074.074,0,0,1,.138-.037,15.488,15.488,0,0,1,1.236,3.521c.335,1.221.606,2.454.849,3.7a40.654,40.654,0,0,1,.773,7.582c0,.366-.594.464-.652.088-.387-2.494-.758-4.991-1.148-7.485-.2-1.254-.425-2.5-.643-3.754m5.4-1.769c-.044-.146.168-.195.222-.061a15.453,15.453,0,0,1,.84,9.445c-.119.478-.819.271-.729-.2m15.228-11.815c-.006-.109.136-.126.189-.051.572.806.809,1.885,1.812,2.3.5.208,1.064.172,1.507.523a.737.737,0,0,1,.3.961.237.237,0,0,1-.369.048,2.243,2.243,0,0,0-.41-.536,3.041,3.041,0,0,0-.95-.295,2.322,2.322,0,0,1-1.049-.625m8.52-15.765a.115.115,0,0,1,.153.04.126.126,0,0,1-.019.193,4.6,4.6,0,0,1,.207.7q.09.4.191.795c.135.533.254,1.07.389,1.6.143.565.314,1.124.5,1.675.012.036.026.072.04.109l.022.056.005-.008a.06.06,0,0,1,.11.046c-.009.059-.021.117-.031.176l.02.053a.978.978,0,0,1-.019.983.466.466,0,0,1-.3.2,17.091,17.091,0,0,1-.675,1.81l-.074.17a10.144,10.144,0,0,1-1.357,2.416,27.341,27.341,0,0,0-2.093,2.2,5.336,5.336,0,0,0-.59,1.283l-.055.173a1.384,1.384,0,0,1-.528.823.266.266,0,0,1-.318-.041c-.619-.655.029-1.879.4-2.514a9.019,9.019,0,0,1,2.023-2.113,8.919,8.919,0,0,0,1.828-2.623c.306-.579.6-1.171.914-1.753a2.633,2.633,0,0,1-.54-1.257l-.01-.036a14.223,14.223,0,0,1-.418-1.945,10.7,10.7,0,0,1-.1-1.886l.007-.162m1.52,1.842c-.072-.1.047-.21.146-.19a6.676,6.676,0,0,1,1.725.781l.058.031a2.416,2.416,0,0,1,1.088.966,3.067,3.067,0,0,1,.192,1.585l0,.05a13.226,13.226,0,0,1-.183,1.927.451.451,0,0,1-.607.335,7.835,7.835,0,0,1-1.731,2.356c-.772.938-.627,2.205-.546,3.335.033.458-.536.588-.829.343l-.675-.561-.337-.282q-.144-.121-.285-.244l-.141-.124c-.062-.056-.338-.364-.419-.377-.2-.031-.659.483-.817.645l-.02.02a8.293,8.293,0,0,0-.82.942.06.06,0,0,1-.1-.06,8.482,8.482,0,0,1,.8-1.376l.063-.086c.207-.279.484-.771.85-.854.446-.1.891.347,1.215.595l.021.016c.154.116.307.234.459.352a4.475,4.475,0,0,1,.525-2.417,9.241,9.241,0,0,1,1.157-1.33c.437-.489.665-1.091,1.061-1.6a.3.3,0,0,1,.2-.112c.015-.41.076-.823.122-1.229l.014-.121a2.5,2.5,0,0,0-.057-1.39,3.388,3.388,0,0,0-1.016-.929l-.282-.219m-20.281-5.435a2.2,2.2,0,0,0-.5.4,8.368,8.368,0,0,0-1.162,1.761c-.181.33-.355.663-.537.992-.079.143-.161.285-.243.426-.038.065-.151.195-.207.274.062.087.127.173.192.258.025.032,1.754,1.917,2.357,2.654a24.108,24.108,0,0,1,2.453,3.6c.691,1.251,1.216,2.575,1.856,3.85a9.607,9.607,0,0,0,1.134,1.824c.018.022.036.042.054.063a5.569,5.569,0,0,1,.839-1.263l.02-.027c.5-.67,1.021-1.319,1.557-1.958q.734-.875,1.505-1.714l.193-.21a5.76,5.76,0,0,1,1.337-1.243,2.507,2.507,0,0,0-.2-.3,6.665,6.665,0,0,0-1.871-1.529l-.444-.27a30.567,30.567,0,0,1-4.777-3.416,19.359,19.359,0,0,1-2.174-2.256l-.229-.29m1.639-2.134a9.641,9.641,0,0,0-2.356.306c.644.609,1.257,1.267,1.886,1.887.056-.419.17-.833.267-1.242" transform="translate(-35.07 190.004)"/></clipPath><clipPath id="e"><path class="a" d="M90.446-270.008a3.46,3.46,0,0,1,1.872-1.086A13.62,13.62,0,0,0,90.446-270.008Zm-1,4.721a7.617,7.617,0,0,1-.17-1.26.882.882,0,0,0,.5.349A6.544,6.544,0,0,0,89.449-265.286Zm34.059,6.542c-.587-2.452-3.329-7.167-3.976-8.075-.7-2.247,3.133-4.05,1.047-5.807a7.945,7.945,0,0,0-3.365-1.355,36.9,36.9,0,0,0-24.345,2.623A3.548,3.548,0,0,0,89.7-270.3c-3.909,3.938,1.418,11.045,2.583,15.485,2,4.951-2.118,5.784-1.677,9.973.343,2.164,2.529,2.736,4.375,3.063.3.069.691.08.786.393a8.174,8.174,0,0,0,2.7,4.756.964.964,0,0,0,.4,1.105,20.858,20.858,0,0,0,13.486,4.04,12.956,12.956,0,0,0,9.382-4.436c3.942-5.338,3.471-12.38,2.667-18.741C123.839-259.093,124.549-254.4,123.508-258.744Z" transform="translate(-88.289 274.967)"/></clipPath><clipPath id="f"><path class="a" d="M101.382-284.905a1.165,1.165,0,0,1,1.27-.831,1.146,1.146,0,0,1,1,1.139c-.012.109-.027.212-.046.308h0l-.013.037a1.943,1.943,0,0,1-.17.494c-.1.292-.2.585-.292.88a1.847,1.847,0,0,1,.42.029c.147-.378.3-.755.443-1.133a3.524,3.524,0,0,1,.581-1.237,1.352,1.352,0,0,1,1.579-.2,1.266,1.266,0,0,1,.586,1.41.9.9,0,0,1-.493.624l-.026.013-.186.441a1.548,1.548,0,0,1,.18-.066,1.468,1.468,0,0,1,.294-.056c.265-.481.557-.948.858-1.407a1.182,1.182,0,0,1,1.592-.418,1.178,1.178,0,0,1,.417,1.6c-.277.391-.539.789-.8,1.192a1.151,1.151,0,0,1,.131.03q.029-.04.062-.08a7.094,7.094,0,0,1,.946-.9c.315-.273.46-.7.874-.911a1.091,1.091,0,0,1,1.459.384c.665,1.113-.451,1.926-1.166,2.6a17.545,17.545,0,0,1,1.932-1.051c.373-.172.752-.339,1.137-.482a1.366,1.366,0,0,1,1.5.251.822.822,0,0,1,.217.822,1.385,1.385,0,0,1-1,.937c-.363.1-.735.168-1.1.274a12.151,12.151,0,0,0-1.773.655.907.907,0,0,1,.117.085c.428-.139.864-.259,1.3-.361a16.707,16.707,0,0,1,2.207-.358l.247-.023c.89-.086,1.96-.244,2.506.61a.994.994,0,0,1,0,1.024,1.459,1.459,0,0,1-1.39.651q.93.1,1.856.243.637.1,1.273.22l.211.041a4.14,4.14,0,0,1,1.533.462,1.118,1.118,0,0,1-.557,2.061,5.274,5.274,0,0,1-1.6-.257q-.739-.149-1.484-.264c-.257-.04-.514-.076-.772-.108a10.854,10.854,0,0,1,1.554.335l.141.043c.981.3,2.305.777,2.611,1.828a.986.986,0,0,1-.936,1.233,3.025,3.025,0,0,1-1.532-.559,6.483,6.483,0,0,0-1.093-.437c-.394-.121-.8-.221-1.2-.3a9.509,9.509,0,0,1,.994.628l.147.109c.849.634,2.144,1.616,1.845,2.805a.948.948,0,0,1-.912.695c-1.042-.1-1.617-1.21-2.4-1.807-.205-.155-.43-.309-.665-.458a19.03,19.03,0,0,1,2.861,4.773,27.514,27.514,0,0,1,2.083,11.233v.125c0,2.22-.048,4.48-.264,6.69A16.662,16.662,0,0,1,119-242.7a12.8,12.8,0,0,1-7.89,6.434,12.5,12.5,0,0,1-10.87-2.138c-.773-.6.252-1.91,1.042-1.354a11.364,11.364,0,0,0,10.858,1.42,11.185,11.185,0,0,0,6.167-6.7,28.639,28.639,0,0,0,1.028-5.831l.015-.13a53.433,53.433,0,0,0,.37-6.161,22.5,22.5,0,0,0-2.228-10.437,18.394,18.394,0,0,0-3.036-4.469,3.787,3.787,0,0,1-1.14-.071q-.287-.031-.574-.058c.2.127.387.258.576.393l.247.179c.774.555,1.755,1.188,1.556,2.262a.871.871,0,0,1-.622.623c-1.014.242-1.711-.746-2.4-1.332-.6-.51-1.219-.966-1.854-1.424q-.216-.155-.436-.309.206.241.4.488l.193.245c.583.732,1.424,1.682.9,2.631a.883.883,0,0,1-.766.44c-1.046-.022-1.462-1.212-1.953-1.964-.422-.644-.88-1.252-1.354-1.859q-.2-.249-.4-.5a40.992,40.992,0,0,0-6.539.871c-1.478.32-2.932.734-4.374,1.188l-.12.038a5.4,5.4,0,0,0-2.148,1.128,2.91,2.91,0,0,0,.058,1.164l.06.291a12.111,12.111,0,0,1,.289,3.665,13.506,13.506,0,0,1-.991,3.648c-.224.565-.455.462-.535,1.069a6.434,6.434,0,0,0,.018,1.4l.035.395a4.139,4.139,0,0,1-.545,3.014.26.26,0,0,1-.4-.052,1.7,1.7,0,0,0-.1-.151,2.092,2.092,0,0,0-1.4-.847c-.073-.013-.044-.11.017-.118a2,2,0,0,1,1.329.314c-.184-.639-1.611-.328-2.08-.2l-.016,0a4.817,4.817,0,0,0-1.626.775,3.72,3.72,0,0,0-1.52,3.087,3.332,3.332,0,0,0,1.712,2.889,3.465,3.465,0,0,0,1.678.405c.607-.006,1.146-.273,1.754-.235a.49.49,0,0,1,.417.729,1.662,1.662,0,0,1-.516.526,17.335,17.335,0,0,0,1.865,3.26,10.725,10.725,0,0,0,1.37,1.554c.395.37,1.249.8,1.2,1.415a.482.482,0,0,1-.334.441c-.629.258-1.393-.629-1.813-1.057l-.034-.034a11.753,11.753,0,0,1-1.418-1.716,8.642,8.642,0,0,1-1.386-3.61,5,5,0,0,1-3.165-.354,4.846,4.846,0,0,1-1.859-6.985,4.543,4.543,0,0,1,1.119-1.145,1.056,1.056,0,0,1-.264-.2,7.905,7.905,0,0,1-1.059-1.643l-.037-.067q-.411-.744-.775-1.511l-.09-.192a20.907,20.907,0,0,1-1.4-2.9,24.656,24.656,0,0,1-.853-3.614l-.05-.325a8.523,8.523,0,0,1-.133-2.194,2.1,2.1,0,0,1-1.649.021.954.954,0,0,1-.435-1.071,1.482,1.482,0,0,1,.428-.659,1.553,1.553,0,0,1-.312-.211l-.081-.071h0a1,1,0,0,1-.153-1.194l.058-.1a1.124,1.124,0,0,1,.973-.559H81.2a1.682,1.682,0,0,1-.528-.207,1.089,1.089,0,0,1,.256-1.966,2.7,2.7,0,0,1,1.24.045l-.047-.028a1.128,1.128,0,0,1-.561-.981,1.116,1.116,0,0,1,.561-.982,1.127,1.127,0,0,1,1.144,0,9.605,9.605,0,0,1,.846.625,2.923,2.923,0,0,1-.608-1.094,1.155,1.155,0,0,1,.515-1.269,1.072,1.072,0,0,1,1.042-.024,1.109,1.109,0,0,1,.213-.745,1.137,1.137,0,0,1,1.52-.4,1.556,1.556,0,0,1,.261.218,1.114,1.114,0,0,1,.6-1.449,1.236,1.236,0,0,1,1.217.2,1.145,1.145,0,0,1,2.1-.792c.147.264.292.542.421.827l.048.107,0,0-.033-.078h0l-.034-.078a5.3,5.3,0,0,1-.471-1.307,1.137,1.137,0,0,1,.934-1.406,1.21,1.21,0,0,1,1.046.419,1.114,1.114,0,0,1,1.859-1.02,4.98,4.98,0,0,1,.858,1.378c.142.267.288.532.43.8.036-.043.076-.087.117-.129a17.8,17.8,0,0,1-.513-1.936,1.184,1.184,0,0,1,.81-1.43,1.171,1.171,0,0,1,1.426.812c.09.433.2.861.315,1.287a2.117,2.117,0,0,1,.239-.043c.007-.08.014-.16.022-.241l.031-.285a4.734,4.734,0,0,1,.477-1.946,1.122,1.122,0,0,1,2.076.564,11.359,11.359,0,0,1-.307,1.722c-.035.249-.056.5-.068.753a22.593,22.593,0,0,1,.626-2.475C101.321-284.71,101.352-284.808,101.382-284.905ZM88.6-252.654a3.51,3.51,0,0,1,3.259,1.544.512.512,0,0,1-.079.605.469.469,0,0,1-.352.147.483.483,0,0,1-.43-.247,4.219,4.219,0,0,0-2.4-2C88.577-252.616,88.571-252.65,88.6-252.654Zm1.8-17.77.039-.042c.263-.274-.153-.692-.416-.417a3.9,3.9,0,0,0-.64.995c-.169.339.339.638.509.3l.077-.155a3.048,3.048,0,0,1,.431-.678Zm-3.652-.562c.373-.063.215-.632-.157-.569-.481.081-.96.174-1.442.255-.373.063-.215.632.157.569C85.786-270.812,86.265-270.9,86.746-270.986Zm22.217-3.885c-.36-.12-.515.45-.157.569a11.764,11.764,0,0,1,1.456.565c.339.166.638-.343.3-.51A12.935,12.935,0,0,0,108.964-274.87Zm-22.3-.765c-.352-.141-.5.43-.157.569l1.272.51h0c.352.141.5-.43.157-.569l-1.272-.51Zm26.744-1.386-.046-.029c-.319-.207-.614.3-.3.51a5.508,5.508,0,0,1,.583.347l.036.032c.275.261.693-.156.416-.417a3.971,3.971,0,0,0-.692-.442Z" transform="translate(-79.856 285.746)"/></clipPath><clipPath id="g"><path class="a" d="M135.1-216.8a4,4,0,0,1-2.241.012,4.019,4.019,0,0,1-1.851-1.2,2.693,2.693,0,0,1-.71-1.787.292.292,0,0,1,.07-.187.326.326,0,0,1,.174-.1.319.319,0,0,1,.2.018.269.269,0,0,1,.134.132c.076.1.151.2.227.293a3.721,3.721,0,0,0,2.115,1.517,2.575,2.575,0,0,0,1.449-.106,3.1,3.1,0,0,0,1.274-.9.68.68,0,0,1,.521-.257.8.8,0,0,1,.558.245.863.863,0,0,1,.259.564.751.751,0,0,1-.214.554A4.355,4.355,0,0,1,135.1-216.8Zm-.022-9.425c.743.452,1.874,1.5,1.075,2.624-.941.987-2.295-.145-2.962-.657-.619-.4-1.314.624-.74,1.087,4.822,3.571,6.779-2.937,3-3.586C135.041-226.824,134.886-226.361,135.081-226.222Zm-6.948-1.987a.828.828,0,0,0-.831-.063,2.706,2.706,0,0,0-.967.964,1.913,1.913,0,0,0-.317,1.126.255.255,0,0,1-.083.215.322.322,0,0,1-.179.08.466.466,0,0,1-.189-.017.281.281,0,0,1-.187-.161,2.347,2.347,0,0,1,.115-1.724,3.513,3.513,0,0,1,1.259-1.581,2.105,2.105,0,0,1,2.036-.009,3.754,3.754,0,0,1,1.226,1.281c.072.105.144.21.218.312a.63.63,0,0,1,.106.584.755.755,0,0,1-.429.443.772.772,0,0,1-.6.009.76.76,0,0,1-.406-.429,2.274,2.274,0,0,0-.775-1.028Zm12.124.851a.563.563,0,0,1-.473.057.672.672,0,0,1-.277-.165.552.552,0,0,1-.154-.279,1.142,1.142,0,0,0-.4-.667.8.8,0,0,0-.639-.168,1.226,1.226,0,0,0-.688.413,1.552,1.552,0,0,0-.149.218,1.541,1.541,0,0,1-.286.375.278.278,0,0,1-.177.067.266.266,0,0,1-.079-.012.826.826,0,0,1-.3-.662,1.209,1.209,0,0,1,.223-.615,2.432,2.432,0,0,1,1.3-.924,1.932,1.932,0,0,1,1.52.328,2.155,2.155,0,0,1,.88,1.348.719.719,0,0,1-.036.4A.556.556,0,0,1,140.257-227.358Zm-10.922-5.762a1.709,1.709,0,0,1-1.106.412,5.2,5.2,0,0,0-.562.083,5.29,5.29,0,0,0-1.358.5,5.031,5.031,0,0,0-1.273.9c-.083.088-.16.181-.238.274s-.14.166-.212.245-.162.185-.24.28a1.2,1.2,0,0,0-.068.12c-.015.031-.032.065-.051.1s-.058.106-.091.156c-.054.092-.084.117-.109.128a.224.224,0,0,1-.12.023.2.2,0,0,1-.1-.05.764.764,0,0,1-.212-.622,2.683,2.683,0,0,1,.274-1.046,5.648,5.648,0,0,1,1.2-1.653,5.849,5.849,0,0,1,1.89-1.152,3.836,3.836,0,0,1,1.431-.3,1.415,1.415,0,0,1,.948.373.826.826,0,0,1,.248.605A.865.865,0,0,1,129.335-233.12Zm11.587,2.919a.18.18,0,0,1-.082.072.189.189,0,0,1-.107.013.19.19,0,0,1-.1-.047.181.181,0,0,1-.054-.094,2.871,2.871,0,0,0-1.539-2.121,6.5,6.5,0,0,0-1.433-.482c-.14-.033-.288-.055-.437-.076a1.8,1.8,0,0,1-1.242-.524,1.007,1.007,0,0,1-.217-.784.834.834,0,0,1,.453-.618,2.64,2.64,0,0,1,2.154.28l.146.062a5.008,5.008,0,0,1,1.741,1.162,3.775,3.775,0,0,1,.895,1.654A1.989,1.989,0,0,1,140.922-230.2Z" transform="translate(-123.592 235.009)"/></clipPath><clipPath id="h"><path class="a" d="M128.87-205.448c-.343-.112-.68-.243-1.019-.369a6.925,6.925,0,0,0-5.64-.3c-.891.36-1.723,1.006-2.617,1.43-.212.079-.427.151-.643.212-.133-.046-.266-.1-.4-.145a19.9,19.9,0,0,1-2.708-1.285c-.092-.13-.188-.257-.291-.378a14.567,14.567,0,0,0,1.8-.39c1.705-.467,3.313-1.229,5.012-1.717a8,8,0,0,1,4.889-.139c.754.269,1.418.739,2.152,1.056a3.888,3.888,0,0,0,1.279.347,6.216,6.216,0,0,1-1.143,1.86A6.73,6.73,0,0,1,128.87-205.448Zm3.69-5.372a8.746,8.746,0,0,0-.982.776l-.157-.062a.436.436,0,0,0-.355-.155,8.423,8.423,0,0,1-2.516-1.825,6.052,6.052,0,0,0-1.778-1.439,5,5,0,0,0-2.528-.146c-.931.062-1.851-.2-2.781-.076a4.111,4.111,0,0,0-1.869.788,23.156,23.156,0,0,0-2.849,3,7.909,7.909,0,0,1-3.878,2.239l-.055-.034a21.879,21.879,0,0,1-2.937-3.278c-.848-1.156-3.083-6.36-3.623-6.817a1.038,1.038,0,0,0-.705-.265,1.124,1.124,0,0,0-1,.772,7.291,7.291,0,0,0-.126,2.648q.044,1.523.2,3.04.158,1.5.419,2.983.131.75.292,1.5a2.681,2.681,0,0,0,.127.426q.078.368.168.731a9.018,9.018,0,0,0,2.188,4.342,15.551,15.551,0,0,0,4.445,2.753,34.587,34.587,0,0,0,4.608,1.783,18.257,18.257,0,0,0,4.335,1.378,9.624,9.624,0,0,0,4.92-.263,8.663,8.663,0,0,0,2.17-1.151,7.49,7.49,0,0,0,2.482-2.051,11.163,11.163,0,0,0,2.094-5.523c.066-.511.316-2.467.336-2.772l.19-2.952C133.429-210.936,132.86-211.068,132.56-210.82Z" transform="translate(-104.366 218.114)"/></clipPath><clipPath id="i"><path class="a" d="M120.553-224.719a12.781,12.781,0,0,0-2.853-2.441.616.616,0,0,0-.376-.7c-3.078-1.151-5.034,2.162-7.263,3.642a5.842,5.842,0,0,1-1.625.712,5.87,5.87,0,0,0-3.032,2.092,5.646,5.646,0,0,0-1.311,1.56c-.121.215-10.945-4.937-13.408-5.51-1.167-.39-1.795.713-.316,1.279,3.885,1.488,11.493,4.818,13.191,5.778a5.9,5.9,0,0,0-.106,3.339,4.732,4.732,0,0,0,1.277,4.085c.217.316.549.544.765.818.785,2.053,2.669,3.046,4.873,4.027,3.508,1.561,6.565,1.874,8.487,1.19a11.529,11.529,0,0,0,6.953-12.607C124.932-221.052,125.113-224.2,120.553-224.719Z" transform="translate(-89.504 228.101)"/></clipPath><clipPath id="j"><path class="a" d="M109.708-225.289c3-1.676,3.508-5.092,7.861-3.356a6.9,6.9,0,0,1,2.745,2.38,5.061,5.061,0,0,0,1.645.867,6.542,6.542,0,0,1,4.019,5.033,13.913,13.913,0,0,1-3.381,13.243.189.189,0,0,1-.064.262q-.28.154-.557.315a9.774,9.774,0,0,1-5.264,2.323,15.665,15.665,0,0,1-9.956-3.609c-2.943-2.374-4.8-7.328-3.844-10.893-5.472-2.577-10.54-4.534-12.659-5.383q-.784-.823-.014-.605c4.974,1.406,14.77,5.978,14.887,5.983a2.1,2.1,0,0,0,.377-.8c-.229-.025-13.74-5.856-15.423-6.4l-.089-.028c-.8-.253-.6-.45.015-.414,1.247.073,11.82,4.982,13.877,5.474C104.8-222.961,107.414-224.034,109.708-225.289Zm6.554-2.929c-1.671-.492-2.9.721-3.793,1.993-2.108,2.615-5.954,2.7-7.542,5.805l-.047.1.629.189.017-.028c.05-.077.2-.273.322-.095.65.7-.368,3.019-.9,2l-.016-.032-.873-.24c-1.577,6.392,4.44,12.148,10.493,13.122a21.505,21.505,0,0,0,3.538-.2,9.728,9.728,0,0,0,2.08-.875c.685-.344,1.25-.876,1.913-1.24a12.35,12.35,0,0,0,3.48-7.136c.332-3.209.021-7.3-2.763-9.331-.917-.581-2.047-.738-2.885-1.457A7.473,7.473,0,0,0,116.262-228.219ZM113.257-213.2c-.028-.046.037-.09.073-.056q.879.823,1.7,1.708c.029-.009.062-.018.1-.028a.244.244,0,0,1,.277.346l-.023.041c-.146.249-.482.468-.682.168Q113.941-212.086,113.257-213.2Zm-7.241,1.316v-.022c-.011-.214-.185-.753.168-.67a1.637,1.637,0,0,1,.583,1.3c.025.484-.778.491-.757,0A4.665,4.665,0,0,0,106.016-211.888Zm16.962-1.491a.051.051,0,0,1,.038.093c-.647.364-.593,1.1-.7,1.709C121.574-211.081,121.65-213.205,122.978-213.379Zm-18.578-2.6c6.235.629,12.942,2.491,19.318.6a.308.308,0,0,1,.154.6C117.445-213.15,110.62-214.124,104.4-215.974Zm16.909-2.576c.193-.045.375.908.673,1.085.148.3,1.322.56.827.926C121.964-216.363,121.039-217.791,121.309-218.55Zm-5.477.226a.319.319,0,0,1,.291.235c.129.371-.424.312-.631.435a5.531,5.531,0,0,1-2.952,1.108c-.067,0-.068-.087-.013-.109l.187-.073a9.814,9.814,0,0,0,1.7-.814C114.855-217.82,115.277-218.337,115.832-218.325Zm-3.294-6.531c-.147-1.063,3.208-3.746,4.237-2.592a.356.356,0,0,1-.434.55C114.907-227.274,113.536-225.711,112.538-224.856Z" transform="translate(-89.466 229.124)"/></clipPath><clipPath id="k"><path class="a" d="M100.54-146.262a164.218,164.218,0,0,1-33.615,1.16,78.181,78.181,0,0,0-13.307.033C51-144.875,39.527-144,38.589-146.343c.59-12.486,1.785-25.078,5.451-37.086,1.508-4.264,2.8-7.8,5.745-11.331a26.784,26.784,0,0,1,4.073-3.643c.993-.571,1.408-.367,1.978-1.331.566-1.065.984-2.844,1.789-3.6s2.033-.491,3.537-.245c-.276-3.736,1.448-4.688,3.823-5.4,4.175-1.594,8.3-.793,9.349,4.291a6.826,6.826,0,0,1,4.226,1.645c.484.329.147,1.169.725,1.428,1.069.381,2.958.287,3.987.756a25.408,25.408,0,0,1,11.585,9.732c6.137,9.633,10.352,29.926,9.623,41.344.32.5-.122,1.22-.235,1.759a1.026,1.026,0,0,1-1.08.728A4.365,4.365,0,0,1,100.54-146.262Z" transform="translate(-38.589 209.71)"/></clipPath><clipPath id="l"><path class="a" d="M77.942-196.979a3.836,3.836,0,0,0-2.774-1.117h-.048l-.345.015.231,1.131.012.054.047.2.063.257.022.095.024.1.011.05.01.05.1.481-.018.043.005.109c.015.395-.07.612-.257.681l-.015.005-.107.034-.087.189c-.2.433-.388.811-.58,1.167a26.237,26.237,0,0,1-2,3.121q-1.1,1.487-2.289,2.837c-.357.4-.734.81-1.135,1.223l-.345.354-.11.111-.074.074-.092.09-.133.127-.1.095-.031.03a.708.708,0,0,1-.1.079l-.01.006-.03.018-1.6,1.684-.565.311-.269.149-.054-.108-.011-.035-.6-1.307-.363-.8c-.746-1.647-1.326-2.957-1.856-4.2l-.066-.156-.2-.464-.1-.248c-.474-1.137-.825-2.014-1.138-2.867l-.045-.122-.066-.182-.1-.275-.018-.047a3.092,3.092,0,0,1,.33-1.445l.012-.024.054-.108.058-.113a3.93,3.93,0,0,0,.318-.919q.02-.087.038-.175l.017-.088.011-.058.015-.081.022-.116-.461-.077-.253-.041-.11-.017c-.143-.022-.27-.04-.39-.055l-.045-.006-.08-.009,0,.016-.164.016-.122.013a11.913,11.913,0,0,0-1.4.212l-.033.008-.059.015-.027.007a1.255,1.255,0,0,0-.713.512,2.963,2.963,0,0,0-.336.666l-.046.116-.153.379q-.027.069-.083.221l-.13.354-.652,1.8-.667.351c-.31.162-.537.279-.649.335l-.04.019-.028.013-.23.091.025.072-.028.016a16.82,16.82,0,0,0-6.513,7.239l-.05.1-.051.1a42.388,42.388,0,0,0-3.175,9.48l-.057.244-.045.194-.24,1.045c-.9,3.947-1.519,6.89-2.031,9.777l-.033.188-.085.491q-.965,5.607-1.612,11.109l-.072.617c-.18,1.576-.342,3.2-.518,5.161l-.024.263-.078.879q-.124,1.42-.226,2.835l-.034.471-.069,1.025-.041.584,0,.079-.016.3,0,.071c-.006.091-.013.169-.022.24l-.007.053-.008.051a1.261,1.261,0,0,1-.142.4L39.57-139l-.128.228.231.122c1.206.636,3.581.915,6.839.93h.3c1.583,0,3.261-.062,5.012-.166l.4-.024.33-.021.425-.029.22-.015.921-.067a77.6,77.6,0,0,1,13.269-.032,163.537,163.537,0,0,0,33.364-1.117l.306-.046.226-.037.135-.023a4.107,4.107,0,0,0,2.274-.911l.028-.026.023-.022h.01a1.285,1.285,0,0,0,1.194-.86l.009-.028.012-.038.008-.038c.008-.037.019-.076.032-.12l.01-.033.084-.274-.282-.052a.12.12,0,0,1-.074-.057l-.023-.034-.041-.056-.1-.135a1.076,1.076,0,0,1-.181-.331,1.206,1.206,0,0,1-.029-.333l0-.071.011-.258c0-.021,0-.039,0-.056v-.79c0-.174,0-.345,0-.512l0-.248,0-.2q-.02-1.662-.1-3.32-.151-3.237-.517-6.459a97.448,97.448,0,0,0-2.326-12.883l-.105-.415a69.8,69.8,0,0,0-3.621-11.026,31.16,31.16,0,0,0-6.644-9.986,21.874,21.874,0,0,0-4.906-3.628,21.325,21.325,0,0,0-2.589-1.164l-.132-.049-.213-.078-.163-.06-.527-.2c-.111-.042-.231-.088-.374-.144l-.088-.035-.944-.376-.157-.062-.174-.068-.128-.049c-.209-.08-.4-.15-.575-.211l-.1-.036-.094-.032-.4-.139.008.366a.707.707,0,0,1-.2.56l0,0,0,0,0,0h-.12a.167.167,0,0,1-.028-.019c-.135-.115-.2-.269-.26-.623l-.016-.1-.028-.184-.011-.07a2.007,2.007,0,0,0-.145-.536,3.159,3.159,0,0,0-.387-.643l-.036-.046-.145-.174-.022-.027a.439.439,0,0,1-.088-.153l0-.011-.014-.073Z" transform="translate(-39.443 198.096)"/></clipPath><clipPath id="m"><path class="a" d="M53.349-194.069c.068-.038.008-.135-.06-.1a17.477,17.477,0,0,0-7.6,7.392,41.877,41.877,0,0,0-3.8,10.53l-.033.13c-.965,3.852-1.785,7.744-2.523,11.645-.748,3.951-1.348,7.926-1.831,11.918-.239,1.974-.452,3.951-.618,5.932q-.124,1.485-.226,2.972-.041.595-.074,1.19l-.016.3a2.721,2.721,0,0,0,.021.807,3.184,3.184,0,0,0,.286.648.6.6,0,0,0,1.019,0l.066-.1a1.873,1.873,0,0,0,.324-.741c.046-.281.048-.576.068-.861.038-.523.07-1.046.107-1.57q.116-1.652.26-3.3c.19-2.171.393-4.34.643-6.505q.666-5.772,1.658-11.5c.642-3.729,1.453-7.42,2.3-11.106l.088-.381C44.893-183.218,47.177-190.63,53.349-194.069Zm35.086,25.2c-.024-.064-.128-.079-.146,0a16.569,16.569,0,0,0-.278,3.052c-.033,1.009-.032,2.023-.017,3.033.054,3.712.156,7.421.244,11.132q.066,2.785.117,5.57.018,1.045.03,2.089l.01.918a11.086,11.086,0,0,0,.065,1.213,1.746,1.746,0,0,0,.249.75,1.453,1.453,0,0,0,.4.355l.027.021a.416.416,0,0,0,.564,0l.053-.042a1.356,1.356,0,0,0,.438-.461,2.45,2.45,0,0,0,.207-.961c.04-.5.013-1.014.008-1.519q-.016-1.519-.042-3.039c-.065-3.714-.194-7.429-.429-11.137-.111-1.746-.261-3.5-.462-5.238l-.038-.326c-.061-.512-.117-1.033-.179-1.555a11.445,11.445,0,0,0,2.462-2.366c.052-.067-.033-.16-.1-.1a9.189,9.189,0,0,1-2.451,1.8A14.683,14.683,0,0,0,88.435-168.867ZM72.787-201.976a.033.033,0,0,0-.045,0,1.387,1.387,0,0,0-.167.891v.028c-.014.435-.017.869-.016,1.3l0,1.386h0c0,.19.016.389.006.58l-.005.074h0a.457.457,0,0,0-.119.422.6.6,0,0,0,.266.476l-.33.468h0l-.33.468c-.68.965-1.368,1.921-2.084,2.86-.731.957-1.51,1.877-2.326,2.763q-.6.649-1.218,1.276c-.169.17-.341.335-.512.5l-.17.168a1.5,1.5,0,0,0-.293.327,1.9,1.9,0,0,0-.062.291c-.126.277.089.718.446.58l-.016-.011q-.1-.068.125,0a.566.566,0,0,0,.263-.065l.024-.013a1.449,1.449,0,0,0,.312-.263l.023-.022c.214-.2.419-.414.624-.624q.643-.657,1.253-1.345,1.214-1.375,2.3-2.854a26.549,26.549,0,0,0,2.02-3.151c.225-.416.43-.84.628-1.269.384-.123.473-.532.447-.992a5.673,5.673,0,0,0,.345-1.011c.01-.047-.05-.092-.087-.05-.123.14-.237.288-.346.441-.066-.323-.149-.62-.189-.809l-.17-.836h0a3.58,3.58,0,0,1,2.673,1.035,1.211,1.211,0,0,0,.309.477,2.917,2.917,0,0,1,.389.633c.222.5.1,1.236.528,1.6a.424.424,0,0,0,.147.081,15.639,15.639,0,0,0-.107,3.13v.09c0,1.14.037,2.282.081,3.421l.045,1.128a33.156,33.156,0,0,1-.05,4.5q-1-.886-2.07-1.692-.7-.53-1.435-1.022l-.4-.265a9.786,9.786,0,0,0-1.48-.873,2.286,2.286,0,0,0-1.981.11c-.653.3-1.287.658-1.927.988s-1.3.668-1.957,1a4,4,0,0,0-1.383.827c-.02-.09-.044-.18-.071-.269a.593.593,0,0,0-.057-.424c-1.065-1.958-2.051-3.963-3.03-5.966-.5-1.013-.966-2.039-1.463-3.052l-.482-.986L59.43-196c-.122-.245-.249-.489-.372-.733-.052-.1-.117-.206-.168-.311l-.024-.052s-.118-.37-.028-.335l.008,0c.046.026.083-.032.053-.069-.128-.158-.306-.018-.378.128-.2.4.167,1.034.309,1.419l.008.022c.439,1.243.936,2.463,1.446,3.679.977,2.331,2.026,4.626,3.073,6.925l.012.04h0c-.223-.171-.462-.327-.666-.478-.515-.382-1.045-.744-1.574-1.106-.97-.663-1.967-1.283-2.98-1.878l-.2-.119a2.425,2.425,0,0,0-1.608-.446,5.706,5.706,0,0,0-1.581.626l-.052.025-1.558.741c.167-.664.347-1.326.535-1.984q.55-1.927,1.209-3.822.613-1.77,1.319-3.5l.141-.347c.191-.477.38-1,.925-1.143s1.169.071,1.667-.24a.065.065,0,0,0-.015-.117l-.307-.077a3.932,3.932,0,0,0-1.8-.148,2.36,2.36,0,0,0-1.372,1.168,15.483,15.483,0,0,0-.789,1.835l-.039.1q-.418,1.043-.8,2.1-.769,2.11-1.4,4.267-.306,1.039-.583,2.085c-.053.2-.141.444-.214.7a2.027,2.027,0,0,0-.235.274.333.333,0,0,0,.117.473.911.911,0,0,0,.137.479c.362.549,1.318.408,1.279-.331a.585.585,0,0,0-.117-.312l0-.015h0l.008-.027h0c.166-.08.333-.168.508-.255l1.635-.808h0a6.08,6.08,0,0,1,1.525-.685,2.534,2.534,0,0,1,1.431.5l.027.014c1.02.523,2.032,1.063,3.04,1.608.492.266.978.543,1.468.812a6.6,6.6,0,0,0,1.313.675.525.525,0,0,0,.619.017,14.648,14.648,0,0,0-.107,1.622c-.035.727-.041,1.456-.053,2.184l0,.273q-.046,2.415-.054,4.83c-.022,5.733.042,11.468.056,17.2.007,2.88.065,5.763.139,8.643.032,1.22.1,2.439.17,3.657l.039.664a33.578,33.578,0,0,0,.392,4.2.193.193,0,0,0,.369,0,34.994,34.994,0,0,0,.3-4.5l.01-.3q.083-2.415.076-4.83c-.02-5.735-.169-11.467-.291-17.2-.061-2.881-.1-5.763-.2-8.643q-.071-2.162-.165-4.322c-.029-.643-.056-1.286-.1-1.928l-.019-.275c-.013-.18-.024-.357-.037-.533.58.212,1.111-.18,1.632-.449l1.8-.928.6-.308h0l1.205-.615c.543-.277.961-.553,1.539-.228a29.951,29.951,0,0,1,5.737,4.361.676.676,0,0,0,1.121-.3,28.174,28.174,0,0,0-.043-6.769l-.068-.835c-.082-1-.172-2-.291-2.989-.053-.444-.106-.889-.165-1.332l-.045-.333a9.7,9.7,0,0,0-.278-1.553.363.363,0,0,0,.139-.083c.471-.447.244-1.222.029-1.754a4.021,4.021,0,0,0-.941-1.377.512.512,0,0,0-.338-.144,3.642,3.642,0,0,0-3.181-.621c-.032-.151-.064-.3-.1-.451l-.034-.15C73.141-201.112,73.108-201.727,72.787-201.976ZM62.721-143.187a.893.893,0,0,0-.862.228.893.893,0,0,0-.228.862.885.885,0,0,0,.228.391.883.883,0,0,0,.359.218l.032.01.05.021a.868.868,0,0,0,.458,0,.863.863,0,0,0,.38-.222.862.862,0,0,0,.222-.381.869.869,0,0,0,0-.459l-.021-.05h0a.884.884,0,0,0-.228-.391A.885.885,0,0,0,62.721-143.187Zm-18.1-30.383c-.05-.057-.131.016-.1.077.475.931,1,1.855,1.524,2.763-.042.252-.083.5-.131.744-.2,1.036-.451,2.054-.613,3.1-.582,3.761-.883,7.563-1.142,11.357s-.293,7.618-.332,11.434a.811.811,0,0,0,.592.777,1.2,1.2,0,0,0,.428,0,.818.818,0,0,0,.592-.777c.1-2.133.238-4.262.4-6.392.281-3.775.453-7.56.679-11.338l.08-1.321c.086-1.431.164-2.863.19-4.3.017-.949-.034-1.9,0-2.847a10.891,10.891,0,0,0-.075-2.688.04.04,0,0,0-.073-.009,6,6,0,0,0-.426,1.351C45.694-172.29,45.167-172.946,44.623-173.57ZM78.494-196.7c-.073-.005-.07.1,0,.112a13.252,13.252,0,0,1,2.953.882l.082.03a21.413,21.413,0,0,1,2.82,1.247,21.629,21.629,0,0,1,4.848,3.586c5.756,5.611,8.379,13.7,10.3,21.306a97.238,97.238,0,0,1,2.32,12.85q.365,3.211.516,6.442.077,1.655.1,3.311.01.848.008,1.7a3.36,3.36,0,0,0,.023.837,2.287,2.287,0,0,0,.38.633.356.356,0,0,0,.606,0l.059-.079a1.434,1.434,0,0,0,.364-.744c.026-.319.008-.649.009-.97,0-.646-.005-1.293-.018-1.939q-.037-1.858-.146-3.714-.221-3.765-.737-7.506a98.682,98.682,0,0,0-2.753-13.114A63.73,63.73,0,0,0,95.8-183.7a27.443,27.443,0,0,0-7.239-9.177,20.389,20.389,0,0,0-4.7-2.792,12.917,12.917,0,0,0-2.66-.819A26.033,26.033,0,0,0,78.494-196.7ZM62.546-150.361a.892.892,0,0,0-.479.123l-.184.143h0l-.149.193a.822.822,0,0,0-.107.573.669.669,0,0,0,.107.334l.14.182h0a1.2,1.2,0,0,0,.411.242.681.681,0,0,0,.25.029l.027,0-.016,0,.029,0h0l.08-.009.055-.006a.3.3,0,0,1,.052,0,.779.779,0,0,0,.564-.234.792.792,0,0,0,.234-.564l-.008-.077a.877.877,0,0,0-.08-.31.949.949,0,0,0-.229-.332A1.017,1.017,0,0,0,62.546-150.361Zm.643-9.465a.92.92,0,0,0-1.091-.141,1.588,1.588,0,0,0-.233.175.891.891,0,0,0-.268.647.927.927,0,0,0,.268.647l.039.038h0a.751.751,0,0,0,.365.2.977.977,0,0,0,.6-.046.913.913,0,0,0,.421-.348l.016-.027.02-.034.009-.018A.937.937,0,0,0,63.189-159.825Zm-.143-9.515a.708.708,0,0,0-.373-.017.465.465,0,0,0-.236.064.466.466,0,0,0-.206.12.47.47,0,0,0-.168.168.705.705,0,0,0-.167.318l-.033.249.033.249.094.224h0l.078.1a.471.471,0,0,0,.168.168.469.469,0,0,0,.157.1.877.877,0,0,0,.733.13.863.863,0,0,0,.382-.222.864.864,0,0,0,.222-.382l.017-.117a1.027,1.027,0,0,0-.019-.443,1.182,1.182,0,0,0-.106-.264A.98.98,0,0,0,63.046-169.34Zm-10.8-6.845q-.536,0-1.071,0l-.268,0a1.609,1.609,0,0,0-1.185.272.5.5,0,0,0,.1.775c.368.258.83.128,1.253.1q.669-.045,1.339-.075c.865-.039,1.73-.063,2.6-.067s1.729,0,2.593.018a22.558,22.558,0,0,0,2.668.005.108.108,0,0,0,.029-.212,13.089,13.089,0,0,0-2.613-.486c-.89-.113-1.78-.192-2.676-.244C54.09-176.145,53.168-176.179,52.246-176.185Zm10.8-2.8h-.029a.925.925,0,0,0-.441.111l-.029.016-.189.146a.932.932,0,0,0-.24.412l-.033.248h0a.7.7,0,0,0,.08.359.7.7,0,0,0,.193.3.7.7,0,0,0,.3.193.7.7,0,0,0,.33.081h.029a.929.929,0,0,0,.471-.127l.189-.146h0a.932.932,0,0,0,.24-.412l.033-.248h0a.7.7,0,0,0-.08-.359.7.7,0,0,0-.193-.3.7.7,0,0,0-.3-.193.7.7,0,0,0-.33-.081ZM60.283-200.9a.283.283,0,0,0-.513.2,9.309,9.309,0,0,1-.2,1.939,3.735,3.735,0,0,1-.3.86l-.058.114a1,1,0,0,0-.077,1.076.629.629,0,0,0,.542.311c.987-.043,1.123-1.418,1.183-2.185A3.674,3.674,0,0,0,60.283-200.9Z" transform="translate(-36.554 201.985)"/></clipPath><clipPath id="n"><path class="a" d="M81.856-269.3a23.128,23.128,0,0,1,22.235,15.52,1.049,1.049,0,0,1-1.2,1.287c.733,3.7-.869,8.681-5.042,9.206-.855.108-1.714.046-2.57.125-.763.07-4.916,2.412-6.472,2.961-3.274,1.147-11.514.937-14.792,0-.119.272-2.665-10.193-3.245-13.438-.211-1.406,1.72-2.447,1.578-3.9-.183-1.861-2.354-4.13-1.689-5.9C72.415-267.942,77.5-269.2,81.856-269.3Z" transform="translate(-70.535 269.311)"/></clipPath><clipPath id="o"><path class="a" d="M82.87-289.745a12.917,12.917,0,0,0-1.313.18,8.479,8.479,0,0,0-3.959.44,21.1,21.1,0,0,0-8.128,4.872,11.187,11.187,0,0,0-2.694,3.968,8.083,8.083,0,0,0-.512,2.422l-.005.1a6.307,6.307,0,0,0,.013.928,13.6,13.6,0,0,0-.2,1.984,6.968,6.968,0,0,0,.054.92l-.013.029h0q.081.547.192,1.088l.018.024c.01.073.022.147.033.22q.06.278.126.555.144.6.317,1.191a.151.151,0,0,1-.037.159c.083.3.175.6.276.893-.05.258-.1.516-.153.773-.277,1.337-.512,2.683-.828,4.012-.64,2.7-1.612,5.352-1.879,8.126a8.963,8.963,0,0,0,1.471,6.26,7,7,0,0,0,4.746,2.646,7.116,7.116,0,0,0,2.683-.164l.1-.025a4.4,4.4,0,0,0,1.4-.6,2.834,2.834,0,0,0,1.109-.724,2.166,2.166,0,0,0,.624-1.585c.51.042,1.023.054,1.528.052a12.8,12.8,0,0,0,3.695-.464,5.266,5.266,0,0,0,2.942-1.838.064.064,0,0,0-.071-.094c-.51.18-.987.422-1.513.559a10.594,10.594,0,0,1-1.569.316,20.752,20.752,0,0,1-3.149.042l-.359-.019a10.394,10.394,0,0,1-3.325-.566,4.629,4.629,0,0,1-1.138-.668l-.054-.044a5.345,5.345,0,0,0-.573-.4l-.084-.108c-.444-.571-.92-1.121-1.32-1.724a7.034,7.034,0,0,1-1.142-3.867c-.044-1.506-.049-3.015-.066-4.522l-.007-.5c-.023-1.723-.026-3.452-.159-5.171-.061-.8-.148-1.593-.281-2.383l-.029-.169-.215-1.217c-.052-.293-.082-.6-.148-.887a2.426,2.426,0,0,1,.26-.353c.092-.1.186-.2.279-.3l.067-.06a2.228,2.228,0,0,0,.41-.458l.03-.047h0a4.182,4.182,0,0,0,.369-.514l.02-.036h0c.028-.035.055-.07.084-.1.089-.107.182-.208.278-.305a3.554,3.554,0,0,0,1.492,1.575.43.43,0,0,0,.623-.254,6.5,6.5,0,0,1,.916-1.907,5.689,5.689,0,0,0,3.024,2.451.428.428,0,0,0,.522-.523,7.109,7.109,0,0,1-.14-2.766q.718.515,1.48.966a16.86,16.86,0,0,0,3.64,2.227c.3.131.761-.089.623-.48a6.4,6.4,0,0,1-.273-1.009l-.014-.08s0,0,0-.007c3.046,4.213,10.433,8.272,11,8.311h.015a3.435,3.435,0,0,0-.827,1.24c-.2.506.6.726.811.242l.007-.016a2.562,2.562,0,0,1,1.964-1.547,2.353,2.353,0,0,1,1.342.725,2.1,2.1,0,0,1,.215,2.5l-.066.124a6.941,6.941,0,0,0-.636,1.409c-.167.612-.041,1.233-.15,1.845l-.006.032c-.052.272-.164.581-.487.507a.741.741,0,0,1-.073-.022.722.722,0,0,1-.252.129,1.543,1.543,0,0,1-.775-.021,3.672,3.672,0,0,1-.7-.251.544.544,0,0,0-.042.188,1.084,1.084,0,0,0,.324.788c-.321.407-.595.854-.9,1.269-.444.6-.9,1.178-1.38,1.742a19.841,19.841,0,0,1-1.617,1.668c-.4.367-1.055.76-1.3,1.294a.9.9,0,0,0-.619.672,9.5,9.5,0,0,0-.082,2.863,2.259,2.259,0,0,0,1.141,1.423.433.433,0,0,0,.451.014,2.356,2.356,0,0,0,.409.319,4.482,4.482,0,0,0,1.889.555,5.7,5.7,0,0,0,2.788.182c.309.037.618.07.927.1a29.279,29.279,0,0,0,9.478-.715,13.108,13.108,0,0,0,4-1.788c2.15-1.4,3.059-5.315,1.812-9.062l-.1-.3a34.006,34.006,0,0,0-1.981-4.9l-.1-.186a18.735,18.735,0,0,0-2.659-4.035,7.166,7.166,0,0,0-1.9-1.512,7.362,7.362,0,0,0-.9-.355l-.006-.078h0l-.007-.078c-.02-.25-.046-.5-.08-.747a20.43,20.43,0,0,0-.554-2.749,20.7,20.7,0,0,0-.934-2.658,22.9,22.9,0,0,0-2.3-4.086q-.1-.2-.2-.395a13.173,13.173,0,0,0-3.011-4,13.474,13.474,0,0,0-5.039-2.592,26.641,26.641,0,0,0-5.856-1.09A20.916,20.916,0,0,0,82.87-289.745Zm13.88,23.9a1.91,1.91,0,0,0-2.733.819c-.349.736.8,1.15.987.417a1.579,1.579,0,0,1,1.71-1.149A.048.048,0,0,0,96.75-265.848Z" transform="translate(-64.117 289.812)"/></clipPath><clipPath id="p"><path class="a" d="M87.071-236.12c-.476-.783-1.489,1.135-1.6,1.464a4.348,4.348,0,0,0-.19.894,2.769,2.769,0,0,1-1.129.01,4.758,4.758,0,0,1-1.393-.669.748.748,0,0,0-.937.328.768.768,0,0,0,.2.974,2.734,2.734,0,0,0,2.2.477,2.838,2.838,0,0,0,1.048-.429c0,.039,0,.078.007.117l.006.068a2.418,2.418,0,0,0,.628,1.595c.7.585,1.56-.54.882-1.125l-.021-.018a2.445,2.445,0,0,1-.491-1.759,3.646,3.646,0,0,1,.179-.975l.021-.062c.031-.089.372-.928.495-.821l.006.006C87.028-235.986,87.11-236.056,87.071-236.12Zm-3.8-4.416c-.642.39-1.62,1.3-.93,2.269.813.853,1.983-.125,2.56-.568.535-.343,1.136.539.64.94-4.168,3.087-5.859-2.538-2.595-3.1C83.308-241.058,83.442-240.657,83.274-240.537Zm6.855-3.608a2.383,2.383,0,0,0-1.789.412l-.039.028c-.5.366-1.06,1.009-.773,1.639a.5.5,0,0,0,.679.178c.364-.191.431-.662.756-.922a1.4,1.4,0,0,1,.969-.312c.807.073,1.3.869,1.554,1.556a.117.117,0,0,0,.211.028C92.288-242.643,91.242-243.948,90.129-244.145Zm-10.05-.417a2.193,2.193,0,0,0-2.292,2.417.635.635,0,0,0,1.215,0,1.909,1.909,0,0,1,.314-.884.926.926,0,0,1,.763-.333,1.355,1.355,0,0,1,.854.413c.206.206.329.509.543.691a.127.127,0,0,0,.175,0c.367-.339.147-1.044-.086-1.4A2,2,0,0,0,80.079-244.562ZM92.418-246.4a3.784,3.784,0,0,0-3.212-1.006c-.6.193-.858,1.157-.191,1.462.773.354,1.664.21,2.45.576a2.394,2.394,0,0,1,.871.629,2.2,2.2,0,0,0,.628.643.183.183,0,0,0,.217-.028C93.755-244.769,92.919-245.952,92.418-246.4ZM81.4-247.436a3.436,3.436,0,0,0-1.489-.047,3.292,3.292,0,0,0-1.37.577l-.046.034c-.431.325-.946.8-.918,1.374a.649.649,0,0,0,.965.554c.356-.206.523-.617.825-.892a2.837,2.837,0,0,1,.852-.53,2.931,2.931,0,0,1,1.065-.21,7.046,7.046,0,0,1,.855.119c-.023.047.2.025.326-.017.094-.04.095-.159.062-.237C82.368-247.092,81.779-247.331,81.4-247.436Z" transform="translate(-77.579 247.542)"/></clipPath><clipPath id="q"><path class="a" d="M73.443-232.283c.16-2.031,2.721-2.892,4-3.147,4.246-1,7.859,1.564,12.923,1.616a13.888,13.888,0,0,0,2.652-.258c3.448-.784,6.893-1.618,10.276-2.646a.69.69,0,0,1,.3,1.136,46.3,46.3,0,0,1-10.816,2.3,11.51,11.51,0,0,0,4.3,8.656c-3.921,4.338-13.067,5.765-18.449,3.488-2.648-.795-5.441-7.91-5.186-11.142" transform="translate(-73.426 236.717)"/></clipPath><clipPath id="r"><path class="a" d="M103.235-237.021c.146-.006.061-.431-.268-.37-4.238.991-9.517,2.88-13.873,2.866-3.2-.1-6.075-1.89-9.3-1.9-2.166.042-4.928.35-6.443,2.088-2,6.343,2.5,14.97,9.586,15.02l1.341-.1c4.57-.337,9.577-.876,12.522-4.754l.023.02h0a.805.805,0,0,0,.042-1.262l-.011.018h0l-.023-.034,0-.015h0a5.993,5.993,0,0,0-.457-.419v0h0a10.357,10.357,0,0,1-3.739-7.518c.732.2,13.035-2.35,10.839-2.973-1.571.531-3.151,1.011-4.763,1.393a.058.058,0,0,0-.081.019,46.659,46.659,0,0,1-6,.988q0-.144.011-.289C96.232-234.938,99.743-235.974,103.235-237.021Zm-29,2.574c7.346-3.713,10.993,1.772,18.1.262-.743,3.317,1.092,6.894,3.585,9.062-3.622,3.136-5.19,3.611-9.942,4.12l-.621.074a28.13,28.13,0,0,1-2.812.23c-4.856-.354-8.526-5.408-9.075-9.988l0-.126a7.554,7.554,0,0,1,.543-3.457A.41.41,0,0,0,74.234-234.447Zm10.227,2.914a.318.318,0,0,0-.356.463,3.839,3.839,0,0,0,2.622,1.212,6.05,6.05,0,0,0,2.94-.313c.051-.018.048-.109-.014-.1a7.2,7.2,0,0,1-2.728-.212A21.053,21.053,0,0,1,84.461-231.533Zm-6.9-.565c0-.149-.728.282-.844.34a9.039,9.039,0,0,1-2.918.788.246.246,0,0,0,0,.469A3.981,3.981,0,0,0,77.559-232.1Z" transform="translate(-72.878 237.397)"/></clipPath></defs><g transform="translate(-692.397 -445.523)"><g transform="translate(657.327 731.269)"><g class="b" transform="translate(35.661 -243.043)"><path class="c" d="M31.338-199.02H133.43v76.471H31.338Z" transform="translate(-33.666 196.692)"/></g><g class="d" transform="translate(36.394 -240.295)"><path class="c" d="M32.913-193.116h75.095v74.177H32.913Z" transform="translate(-35.241 190.788)"/></g><g class="e" transform="translate(78.406 -219.487)"><path class="c" d="M123.155-148.422H181.9v38.212H123.155Z" transform="translate(-125.483 146.094)"/></g><g class="f" transform="translate(35.07 -241.173)"><path class="g" d="M30.07-195H133.237v74.966H30.07Z" transform="translate(-32.398 192.676)"/></g><g class="h" transform="translate(59.846 -280.728)"><path class="c" d="M83.289-279.967H124.6V-231.8H83.289Z" transform="translate(-85.617 277.639)"/></g><g class="i" transform="translate(55.92 -285.746)"><path class="g" d="M74.856-290.746h47v54.574h-47Z" transform="translate(-77.184 288.418)"/></g><g class="j" transform="translate(76.281 -266.125)"><path class="g" d="M118.592-240.009h22.234v23.034H118.592Z" transform="translate(-120.919 237.681)"/></g><g class="k" transform="translate(67.331 -254.26)"><path class="g" d="M99.366-223.114h33.69v27.2H99.366Z" transform="translate(-101.694 220.786)"/></g><g class="l" transform="translate(62.412 -257.909)"><path class="c" d="M84.5-233.1h41.134v28.249H84.5Z" transform="translate(-86.832 230.773)"/></g><g class="m" transform="translate(62.394 -258.386)"><path class="g" d="M84.466-234.124h41.655v29.557H84.466Z" transform="translate(-86.794 231.796)"/></g></g><g transform="translate(759.76 753.237)"><g class="n" transform="translate(37.373 -257.578)"><path class="c" d="M33.589-145.724h70.027V-214.71H33.589Z" transform="translate(-35.602 212.698)"/></g><g class="o" transform="translate(37.716 -252.904)"><path class="c" d="M34.443-138.7h69.684v-64.4H34.443Z" transform="translate(-36.455 201.084)"/></g><g class="p" transform="translate(36.554 -254.469)"><path class="g" d="M31.554-141.4H102.91v-65.584H31.554Z" transform="translate(-33.566 204.973)"/></g><g class="q" transform="translate(50.228 -281.562)"><path class="c" d="M65.535-240.391h37.624v-33.92H65.535Z" transform="translate(-67.547 272.299)"/></g><g class="r" transform="translate(47.646 -289.812)"><path class="g" d="M59.117-248.872H111.2v-45.94H59.117Z" transform="translate(-61.13 292.8)"/></g><g class="s" transform="translate(53.063 -272.802)"><path class="t" d="M72.579-232.1H92.4v-20.438H72.579Z" transform="translate(-74.591 250.53)"/></g><g class="u" transform="translate(51.392 -268.446)"><path class="c" d="M68.426-221.042H102.8v-20.675H68.426Z" transform="translate(-70.438 239.705)"/></g><g class="v" transform="translate(51.171 -268.72)"><path class="g" d="M67.878-220.294h34.889v-22.1H67.878Z" transform="translate(-69.89 240.385)"/></g></g></g></svg>