<svg xmlns="http://www.w3.org/2000/svg" xmlns:xlink="http://www.w3.org/1999/xlink" width="143.516" height="114.548" viewBox="0 0 143.516 114.548"><defs><style>.a,.b{fill:none;}.a{clip-rule:evenodd;}.c{clip-path:url(#a);}.d{fill:#fff;}.e{clip-path:url(#b);}.f{clip-path:url(#c);}.g{clip-path:url(#d);}.h{fill:#3f3256;}.i{clip-path:url(#e);}.j{clip-path:url(#f);}.k{clip-path:url(#g);}.l{clip-path:url(#h);}.m{clip-path:url(#i);}.n{clip-path:url(#j);}.o{isolation:isolate;}.p{clip-path:url(#k);}.q{clip-path:url(#l);}.r{fill:#e9e6f2;}.s{clip-path:url(#m);}.t{clip-path:url(#o);}.u{clip-path:url(#q);}.v{clip-path:url(#s);}.w{clip-path:url(#u);}.x{clip-path:url(#w);}.y{clip-path:url(#y);}.z{clip-path:url(#z);}.aa{clip-path:url(#aa);}.ab{clip-path:url(#ab);}.ac{clip-path:url(#ad);}.ad{clip-path:url(#af);}.ae{clip-path:url(#ah);}.af{clip-path:url(#aj);}</style><clipPath id="a"><path class="a" d="M131.5-171.132l-4.2.412c-6.7.512-13.4,1.582-20.05,2.224a.43.43,0,0,0-.686-.038c-.664-.058-1.407-.566-2.008-.038l-.059-.008a42.187,42.187,0,0,1-2.528-6.442,7.368,7.368,0,0,0-2.214-3.562c-1.945-1.35-6.4-4.089-8.683-3.974a1.7,1.7,0,0,0-.541-1.1c.69-1.176-2.068-1.944-2.262-1.807.125-3.93-1.723-7.343-5.8-8.125-3.65-.761-8.842-.889-10.805,2.927-.216-.024-2.422-.036-2.635-.012-.332-.42-3.976,3.564-2.482,4.951-13.354,5.909-20.946,5.2-24.642,21.817-.5,1.561-.536,3.268-1.064,4.794a44.55,44.55,0,0,0-3.779,13.826,1.1,1.1,0,0,0,.04,2.082,2.478,2.478,0,0,1,1.039.443c-.231,3.91.714,12.842,1.31,12.814,1.214,3.867,6.632,4.958,10.467,3.6-.661,1.244,0,2.027,0,2.691,13.8.522,28.888.221,42.685.938,1.765-.025,3.621.434,5.361.17a1.109,1.109,0,0,0-.013-2.131l4.7-1.022a18.12,18.12,0,0,0,3.485-3.942c1.438-2.844.459-6.277,1.111-9.37,5.09-.416,10.264-.594,15.3-1.457.686,2.055,3.658-.4,4.6-1.391l0,0a1.148,1.148,0,0,0,.836-1.061,1.394,1.394,0,0,0,.08-1.547c1.409-8.133,3.557-16.438,4.333-24.647a1.737,1.737,0,0,0,.752-.367l-.018-.018a.933.933,0,0,0-.176-1.481A2.168,2.168,0,0,0,131.5-171.132Z" transform="translate(-36.338 194.02)"/></clipPath><clipPath id="b"><path class="a" d="M79.123-137.526l1.078.686L89.02-134l5.39.686,4.41-.686v7.548l.882,7.058q-.588,1.078-11.171,0c-4.5-.458-20.935-.681-24.678-.778l-.212-.006q-6.6-.19-13.033,0v-2.647L62.856-128.9l10.975-6.176Zm-6.249-50.59.81.605L71.915-184.6l8.615,6.971v5.568l2.727,2.581,1.559-2.581,2.2-2.922,1.561-4.737-.532-3.121,1.069-.1q.008.32,0,.645c.194-.136,2.952.631,2.262,1.807a1.7,1.7,0,0,1,.541,1.1c2.283-.115,6.739,2.623,8.683,3.974a7.368,7.368,0,0,1,2.214,3.562l.108.329.111.338.112.338a37.152,37.152,0,0,0,2.2,5.437l.059.008c.6-.528,1.345-.02,2.008.038a.432.432,0,0,1,.675.02l.012.018L99.824-163.7l-5.454,19.14-4.75-3.857-2.55.379-6.733,2.429-7.831,2.035-17.877,4.93H52.354l-13.247-3.2-1.194-.394a44.723,44.723,0,0,1,3.769-13.709c.528-1.526.564-3.234,1.064-4.794,3.7-16.613,11.289-15.908,24.642-21.817-1.494-1.387,2.151-5.371,2.482-4.951l.021,0,.045,0,.058,0c.521-.015,2.317,0,2.511.018A5.683,5.683,0,0,1,72.874-188.116Z" transform="translate(-37.913 188.116)"/></clipPath><clipPath id="c"><path class="a" d="M182.047-143.422l-.246,1.373q-.088.029-.178.049-.116,1.228-.271,2.458l-1.527,8.513c-.263,1.506-.513,3.015-.762,4.525l-.329,1.622-.2,1.008c-.44,2.183-.867,4.358-1.242,6.522a1.071,1.071,0,0,1,.132.263l-.029.122-.02.081-.021.08a3.164,3.164,0,0,1-2.023,2.575,17.921,17.921,0,0,1-2.863.375l-.1.011-16.527,1.859q-3,.337-5.989.69l-1.73.2c-2.412.279-4.837.5-7.213,1a.532.532,0,0,0-.219.1c.478-1.812.937-3.621,1.352-5.452.467-2.06.911-4.124,1.41-6.176q1.51-6.2,3.371-12.315.389-1.282.8-2.559l.19-.595.146-.474a3.076,3.076,0,0,1,1.171-1.864,8.237,8.237,0,0,1,2.719-.705l.6-.112q1.34-.25,2.683-.481,6.432-1.107,12.928-1.774,6.755-.694,13.547-.91Zm-41.021,28.384.042,0-.617,4.937a.641.641,0,0,0-.377-.111,16.51,16.51,0,0,1-5.844-1.353l-.286-.109-.8-.307c-.81-.311-1.625-.614-2.455-.866l-.335-.1-.171-.05a9.107,9.107,0,0,0-1.943-.392l-.089,0,.19-.1a.44.44,0,0,0,.074-.049,4.307,4.307,0,0,0,1.1-.049,6.85,6.85,0,0,0,2.045-.723l.285-.154.117-.062.077-.04.077-.039a2.518,2.518,0,0,1,1.761-.3,9.119,9.119,0,0,1,2.179.945l.125.063.084.041.086.04.087.04c.956.43,2.478.895,2.844-.406a1.8,1.8,0,0,0-.224-1.441C139.538-115.664,140.389-115.1,141.026-115.038Z" transform="translate(-128.155 143.422)"/></clipPath><clipPath id="d"><path class="a" d="M71.236-189.4a.864.864,0,0,1,1.665.459,5.968,5.968,0,0,1-.777,1.929,4.665,4.665,0,0,1-.971,1.279c.725.677,1.478,1.329,2.25,1.948a27.636,27.636,0,0,0,2.643,1.871c.8.5,1.642.947,2.4,1.519a4.789,4.789,0,0,1,1.67,2.009,4.141,4.141,0,0,1-.059,2.7l-.029.1c-.261.881-.714,1.944-.086,2.774a7.188,7.188,0,0,0,1.185,1.06,9.2,9.2,0,0,1,1,.978,8.075,8.075,0,0,1,1.556,2.584l.031.087a3.712,3.712,0,0,1,.112,2.722.3.3,0,0,1-.546-.071c-.144-.527-.137-1.079-.258-1.613a6.084,6.084,0,0,0-.61-1.583,8.556,8.556,0,0,0-2.1-2.488l-.254-.206a3.286,3.286,0,0,1-1.4-2.018,6.846,6.846,0,0,1,.489-2.788,3.139,3.139,0,0,0,.042-1.815,11.614,11.614,0,0,1-.785,1.04c-.49.627-.984,1.251-1.477,1.876-.505.641-1,1.292-1.468,1.959q-.315.448-.625.9c-.156.226-.373.452-.543.683a.406.406,0,0,1-.037.366c-.9,1.217-2.18-1.322-2.514-1.963-.68-1.306-1.186-2.694-1.868-4a31.42,31.42,0,0,0-2.409-3.907c-.543-.747-1.151-1.45-1.648-2.221a15.875,15.875,0,0,1-4.123,2.417c-1.553.709-3.167,1.288-4.76,1.9l-.47.183a27.723,27.723,0,0,0-7.836,4.152,19.492,19.492,0,0,0-5.447,8.581c-1.359,3.716-2.483,7.532-3.531,11.346q-.8,2.927-1.524,5.878c-.422,1.732-.771,3.482-1.259,5.2a18.062,18.062,0,0,1,2.963.459,49.325,49.325,0,0,1,11.286,2.7.8.8,0,0,1,.481.984l.777-.22a3.176,3.176,0,0,1-.126-1.695v-.033c.023-.642.093-1.285.138-1.927.086-1.222.2-2.436.347-3.651l.038-.3c.169-1.322.293-2.652.478-3.972l.022-.151c-.088-.338-.191-.671-.3-1-.288-.885-.693-1.717-1.049-2.574-.042-.1.1-.159.169-.1a7.113,7.113,0,0,1,1.465,1.949c.007-.034.013-.068.02-.1l.044-.216a3.7,3.7,0,0,1,.563-1.508.079.079,0,0,1,.135,0,4.142,4.142,0,0,1,.391,1.781c.054.673.061,1.355.051,2.031-.019,1.32-.112,2.643-.186,3.961-.073,1.295-.215,2.573-.4,3.855l-.035.24c-.09.61-.164,1.228-.282,1.834l-.034.165a7.947,7.947,0,0,1-.229,1.076q4.871-1.359,9.758-2.661,3.533-.943,7.069-1.871a2.64,2.64,0,0,1,.472-.621,1.8,1.8,0,0,1,2.254-.417.1.1,0,0,1,0,.175c-.148.081-.3.164-.443.251l1.415-.383c1.058-.287,2.128-.645,3.21-.845a49.753,49.753,0,0,1,6.239-2.4l.247-.084a23.7,23.7,0,0,1,3.3-.981,1.77,1.77,0,0,1,2.1.864,13,13,0,0,1,1.18.909c.272.228.532.47.8.706l.049.043a1,1,0,0,1,.441.613c.027.155-.071.364-.261.343-.583-.062-1.057-.739-1.453-1.142-.306-.312-.614-.635-.892-.978a.346.346,0,0,1-.489-.123c-.537-1.016-2.007-.312-2.82-.071l-1.165.345q-.874.259-1.746.523c-1.6.485-3.187,1.029-4.8,1.474a.335.335,0,0,1-.15.548,34.5,34.5,0,0,1-3.957,1.091q-1.242.322-2.482.648a2.029,2.029,0,0,0-.287.792,9.058,9.058,0,0,0,.443,3.473l.045.161a4.563,4.563,0,0,0,1.348,2.472,1.323,1.323,0,0,0,.648.247q2.191-1.128,4.383-2.255a.407.407,0,0,1,.582.273,9.52,9.52,0,0,0,1.5-.377,19.844,19.844,0,0,0,2.139-1.13c1.427-.682,2.885.156,4.163.793l.295.145c.573.278,1.765.813,2.04.052.266-.736-.575-1.523-1.118-1.854a7.378,7.378,0,0,0-2.133-.782c-.418-.1-.841-.183-1.266-.243a7.9,7.9,0,0,1-1.445-.214.264.264,0,0,1,0-.505,5.347,5.347,0,0,1,2.315.2l.39.1a9.31,9.31,0,0,1,2.2.784,3.977,3.977,0,0,1,1.367,1.173,1.051,1.051,0,0,1,1.056-.165l.21.058a1.976,1.976,0,0,0,.964.1c.045-.245.091-.491.14-.736q.721-3.619,1.589-7.207,1.5-6.186,3.471-12.239l.131-.4a14.718,14.718,0,0,1,1.031-2.778,3.282,3.282,0,0,1,2.073-1.509c.994-.278,2.038-.423,3.052-.61l.679-.123a10.994,10.994,0,0,1-.463-1.039l-.023-.052c-.276-.63-.525-1.272-.764-1.917l-.179-.485a24.142,24.142,0,0,0-1.488-3.408,8.867,8.867,0,0,0-2.549-2.867c-2.16-1.586-4.762-2.395-6.857-4.089-.086-.069.024-.188.111-.144,1.414.711,2.941,1.194,4.412,1.773l.29.115a14.555,14.555,0,0,1,3.35,1.71,9.307,9.307,0,0,1,2.67,3.1A27.516,27.516,0,0,1,103.5-169.8l.124.345c.186.517.379,1.033.6,1.536a14.579,14.579,0,0,1,.65,1.312c.406-.07.812-.141,1.219-.209A195.29,195.29,0,0,1,132.73-169.4a.5.5,0,0,1,.478.628c-.856,5.066-1.618,10.15-2.453,15.22q-.547,3.319-1.117,6.634c-.193,1.12-.416,2.235-.6,3.356a23.42,23.42,0,0,1-.507,2.7,5.16,5.16,0,0,1-1.147,2.163,4.106,4.106,0,0,1-2.343,1.117c-2.2.379-4.455.533-6.671.785l-11.8,1.343a29.271,29.271,0,0,1,.106,4.7l-.045.866c-.037.7-.081,1.394-.181,2.084a4.206,4.206,0,0,1-1.1,2.243,13.349,13.349,0,0,1-1.817,1.585,9.154,9.154,0,0,1-2.106,1.3l-.1.04a6.359,6.359,0,0,1-2.872.524,3.6,3.6,0,0,1,.147,1.858.413.413,0,0,1-.683.18,3.022,3.022,0,0,1-.581-1.7c-.109-.638-.2-1.277-.286-1.919-.161-1.24-.287-2.492-.325-3.742q-.059-1.927.045-3.854c.036-.659.08-1.317.163-1.972.036-.279.072-.559.114-.837q.023-.152.05-.3l-1.059.12c-1.624.181-3.25.345-4.885.371a.527.527,0,0,1-.44-.214.606.606,0,0,1-.543.289,16.828,16.828,0,0,1-6.49-1.637c-1.047-.444-2.078-.925-3.127-1.365-.979-.411-2.026-.7-2.981-1.167l-2.511,1.317a1.086,1.086,0,0,1-.067.177,1.456,1.456,0,0,1-.815.651,1.961,1.961,0,0,1-.962.139q-2.856,1.5-5.714,2.99l-1.906.994c-3.8,1.978-7.581,3.989-11.4,5.92l-.281.142a34.087,34.087,0,0,1-4.2,1.834,7.443,7.443,0,0,0,.021,1.124l.007.086c.044.464.137,1.045-.235,1.376a.432.432,0,0,1-.671-.087,3.211,3.211,0,0,1,.051-1.72,4.916,4.916,0,0,1,.108-.549,11.426,11.426,0,0,1-5.119.462,6.6,6.6,0,0,1-3.991-2.6,11.854,11.854,0,0,1-2.294-4.622,23.838,23.838,0,0,1-.5-5.882,54.362,54.362,0,0,1,.345-6.292,3.036,3.036,0,0,0-.872-.1.677.677,0,0,1-.657.289c-.533.588.819,1.19,1.252,1.34.15.052.134.3-.039.289l-.109-.005a2.007,2.007,0,0,1-1.751-.771,1.211,1.211,0,0,1,.155-1.493,53.716,53.716,0,0,1,1.392-6.913c.541-2.244,1.143-4.474,1.781-6.693l.286-.993a97.538,97.538,0,0,1,3.439-10.327,22.082,22.082,0,0,1,2.569-4.76,16.353,16.353,0,0,1,3.562-3.507,33.683,33.683,0,0,1,8.473-4.027l.131-.048c1.522-.551,3.04-1.108,4.545-1.7,1.331-.528,2.605-1.2,3.93-1.732q-.064-.117-.125-.237l-.024.021-.013.01a.368.368,0,0,1-.439-.057c-.31-.293-.2-.617,0-.921l.027-.039c.253-.355.479-.729.712-1.1l.146-.23A9.495,9.495,0,0,1,67.135-188a2.852,2.852,0,0,1,.788-.542c-.024-.051.187-.155.246-.1a6.7,6.7,0,0,1,2.883-.168M106-135.389l-1.237.141q-2.041.232-4.083.453l-2.957.321c-.008.169-.028.333-.032.461-.019.657-.034,1.313-.047,1.97q-.041,1.975.089,3.948c.084,1.273.195,2.546.366,3.811l.035.253.02.133a.578.578,0,0,1,.393.217c.25.3,1.156.008,1.509-.118a7.194,7.194,0,0,0,1.635-.908,10.459,10.459,0,0,0,1.365-1.163l.349-.346a4.473,4.473,0,0,0,.908-1.148,6.355,6.355,0,0,0,.411-1.955c.1-.79.228-1.579.36-2.365M70.1-143.677l-.128.034c-4.66,1.239-9.312,2.514-13.986,3.7-2.313.586-4.637,1.129-6.953,1.7l-.375.094a10.99,10.99,0,0,0-5.075,2.343.055.055,0,0,1-.078-.078c1.508-1.606,3.652-2.285,5.711-2.875.381-.109.762-.215,1.142-.324a67.119,67.119,0,0,0-8.555-2.487c-.749-.16-1.507-.277-2.256-.437-.522-.112-1.032-.273-1.549-.407l-.406-.1-.005,1.285c-.007,1.82,0,3.638.089,5.458l.018.337a19.99,19.99,0,0,0,1,6,10.937,10.937,0,0,0,2.731,4.144,4.937,4.937,0,0,0,2.1,1.237,7.107,7.107,0,0,0,2.337.174c3.746-.261,7.081-2.3,10.335-3.983Q64.17-132,72.16-136.12a2.615,2.615,0,0,1-.4-.34,5.958,5.958,0,0,1-1.339-2.727,14.389,14.389,0,0,1-.439-3.234m6.9,7.365a.07.07,0,0,1,.1.06,2.736,2.736,0,0,1-.376,1.175l-.018.039c-.2.454-.428.9-.659,1.344q-.693,1.322-1.443,2.613a30.939,30.939,0,0,1-3.451,4.892c-.3.34-.791-.1-.6-.462a54.687,54.687,0,0,1,3.113-5.085q.834-1.241,1.672-2.479c.234-.344.471-.686.715-1.023l.147-.2m56.058-34.208q-7.014.212-14,.924-6.492.667-12.928,1.774-1.343.231-2.683.481l-.536.1a8.574,8.574,0,0,0-2.781.717,3.967,3.967,0,0,0-1.344,2.423q-.492,1.53-.959,3.069-1.853,6.109-3.371,12.315c-.5,2.052-.943,4.116-1.41,6.176-.415,1.83-.873,3.64-1.352,5.452a.532.532,0,0,1,.219-.1c2.376-.506,4.8-.726,7.213-1l.233-.027q3.742-.44,7.486-.866l16.527-1.859a19.392,19.392,0,0,0,2.967-.386c1.613-.445,1.991-2.249,2.261-3.685l.008-.043c.816-4.34,1.465-8.718,2.226-13.069m-38.756,16c-.642-.042-1.52-.63-2.007-.588a1.8,1.8,0,0,1,.224,1.441c-.41,1.454-2.264.7-3.157.258a9.648,9.648,0,0,0-2.249-.981,3.141,3.141,0,0,0-2.316.593,6.85,6.85,0,0,1-2.045.723,4.307,4.307,0,0,1-1.1.049.438.438,0,0,1-.074.049l-.19.1a10.648,10.648,0,0,1,2.538.548c.83.252,1.644.556,2.455.866l.8.307a17.2,17.2,0,0,0,6.13,1.462.641.641,0,0,1,.377.111m-2.973-9.493a2.169,2.169,0,0,1,1.726.418c.611.5,1.021,1.323,1.9,1.378a.231.231,0,0,1,.061.451,1.606,1.606,0,0,1-1.628-.62l-.3-.313a1.95,1.95,0,0,0-1.593-.781c-.8.029-1.6.214-2.4.308q-1.35.16-2.7.276c-.042,0-.049-.062-.01-.072l1.011-.252m3.32-3.386.1-.01a3.957,3.957,0,0,1,2.584.4l.158.1a6,6,0,0,1,2.011,1.711.158.158,0,0,1-.176.23,7.7,7.7,0,0,1-2.291-1.357,3.873,3.873,0,0,0-2.668-.373c-.928.083-1.856.2-2.775.351-.864.145-1.73.375-2.6.448v0c-.1,0-.156-.15-.055-.2a11.915,11.915,0,0,1,2.873-.854M55.439-172.194a.074.074,0,0,1,.137-.037,15.43,15.43,0,0,1,1.231,3.508c.334,1.217.6,2.445.846,3.683a40.5,40.5,0,0,1,.77,7.554c0,.365-.592.462-.65.088-.386-2.485-.755-4.973-1.144-7.457-.2-1.25-.423-2.494-.641-3.74m5.38-1.762c-.044-.145.167-.194.221-.061a15.4,15.4,0,0,1,.837,9.41c-.118.476-.815.27-.726-.2m15.172-11.772c-.006-.109.135-.126.188-.051.57.8.806,1.878,1.8,2.293.5.207,1.06.171,1.5.521a.734.734,0,0,1,.3.958.236.236,0,0,1-.368.047,2.235,2.235,0,0,0-.408-.534,3.03,3.03,0,0,0-.946-.294,2.313,2.313,0,0,1-1.045-.623m8.489-15.706a.115.115,0,0,1,.153.04.126.126,0,0,1-.019.192,4.582,4.582,0,0,1,.206.694q.09.4.19.792c.135.531.253,1.066.387,1.6.143.563.313,1.12.5,1.669.012.036.026.072.04.109l.022.056.005-.008a.06.06,0,0,1,.109.046c-.009.059-.021.117-.031.176l.02.053a.974.974,0,0,1-.019.979.464.464,0,0,1-.3.195,17.028,17.028,0,0,1-.673,1.8l-.074.17a10.106,10.106,0,0,1-1.352,2.407,27.241,27.241,0,0,0-2.085,2.19,5.317,5.317,0,0,0-.588,1.278l-.055.172a1.379,1.379,0,0,1-.526.82.265.265,0,0,1-.317-.041c-.617-.653.029-1.872.4-2.5a8.986,8.986,0,0,1,2.015-2.1,8.886,8.886,0,0,0,1.822-2.613c.305-.577.6-1.167.91-1.747A2.623,2.623,0,0,1,86.6-181.2l-.01-.035a14.171,14.171,0,0,1-.417-1.937,10.657,10.657,0,0,1-.1-1.879l.007-.161m1.514,1.836c-.072-.1.047-.209.145-.189a6.652,6.652,0,0,1,1.718.778l.057.031a2.408,2.408,0,0,1,1.084.963,3.056,3.056,0,0,1,.191,1.579l0,.05a13.176,13.176,0,0,1-.182,1.92.449.449,0,0,1-.605.334,7.806,7.806,0,0,1-1.724,2.347c-.77.935-.625,2.2-.544,3.323.033.456-.534.585-.826.342l-.673-.559-.335-.281q-.143-.121-.284-.244l-.14-.124c-.062-.056-.337-.362-.417-.375-.194-.031-.656.482-.814.642l-.02.02a8.261,8.261,0,0,0-.817.939.06.06,0,0,1-.1-.06,8.452,8.452,0,0,1,.795-1.371l.063-.086c.206-.278.483-.768.846-.85.444-.1.888.345,1.211.593l.02.015c.154.115.306.233.457.351a4.458,4.458,0,0,1,.523-2.408,9.208,9.208,0,0,1,1.153-1.325c.435-.487.663-1.087,1.057-1.594a.3.3,0,0,1,.2-.112c.015-.408.075-.82.122-1.224l.013-.121a2.49,2.49,0,0,0-.057-1.385,3.375,3.375,0,0,0-1.013-.925l-.281-.218M68.2-188.02a2.191,2.191,0,0,0-.5.4,8.337,8.337,0,0,0-1.158,1.754c-.18.329-.353.661-.535.989-.079.143-.16.284-.242.425-.038.065-.151.194-.206.273.062.087.126.173.192.257.025.032,1.748,1.91,2.348,2.644a24.021,24.021,0,0,1,2.444,3.587c.688,1.246,1.212,2.565,1.849,3.835a9.572,9.572,0,0,0,1.13,1.818c.018.021.036.042.054.063a5.548,5.548,0,0,1,.836-1.258l.02-.027c.495-.667,1.017-1.314,1.551-1.95q.731-.871,1.5-1.708l.193-.209a5.738,5.738,0,0,1,1.332-1.238,2.5,2.5,0,0,0-.2-.3,6.64,6.64,0,0,0-1.864-1.523l-.443-.269a30.454,30.454,0,0,1-4.76-3.4,19.287,19.287,0,0,1-2.166-2.248l-.228-.288m1.633-2.126a9.6,9.6,0,0,0-2.347.3c.642.607,1.252,1.263,1.879,1.88.056-.417.17-.83.266-1.237" transform="translate(-35.07 190.004)"/></clipPath><clipPath id="e"><path class="a" d="M90.438-270.026a3.448,3.448,0,0,1,1.865-1.082A13.575,13.575,0,0,0,90.438-270.026Zm-.993,4.7a7.588,7.588,0,0,1-.169-1.255.878.878,0,0,0,.5.348A6.521,6.521,0,0,0,89.445-265.322Zm33.933,6.518c-.585-2.443-3.316-7.141-3.962-8.045-.7-2.239,3.122-4.035,1.043-5.786a7.916,7.916,0,0,0-3.352-1.35,36.762,36.762,0,0,0-24.255,2.613,3.535,3.535,0,0,0-3.156,1.055c-3.894,3.924,1.413,11,2.573,15.428,1.991,4.933-2.11,5.762-1.671,9.936.342,2.156,2.52,2.726,4.358,3.052.295.069.689.079.784.392a8.144,8.144,0,0,0,2.69,4.738.96.96,0,0,0,.394,1.1,20.781,20.781,0,0,0,13.436,4.025,12.909,12.909,0,0,0,9.347-4.419c3.928-5.318,3.459-12.334,2.657-18.672C123.707-259.152,124.415-254.477,123.378-258.8Z" transform="translate(-88.289 274.967)"/></clipPath><clipPath id="f"><path class="a" d="M101.3-284.908a1.161,1.161,0,0,1,1.265-.828,1.141,1.141,0,0,1,1,1.135c-.012.109-.027.211-.046.307h0l-.013.037a1.935,1.935,0,0,1-.169.492c-.1.291-.2.583-.29.876a1.842,1.842,0,0,1,.419.028c.147-.376.294-.752.441-1.129a3.511,3.511,0,0,1,.579-1.232,1.347,1.347,0,0,1,1.573-.2,1.261,1.261,0,0,1,.584,1.4.9.9,0,0,1-.491.622l-.026.013-.185.439a1.544,1.544,0,0,1,.179-.066,1.459,1.459,0,0,1,.293-.056c.264-.479.554-.945.855-1.4a1.178,1.178,0,0,1,1.586-.417,1.173,1.173,0,0,1,.416,1.59c-.276.389-.537.786-.794,1.187a1.156,1.156,0,0,1,.13.03q.029-.04.062-.079a7.068,7.068,0,0,1,.943-.9c.314-.273.459-.7.871-.908a1.087,1.087,0,0,1,1.454.382c.663,1.109-.45,1.918-1.162,2.59a17.485,17.485,0,0,1,1.924-1.047c.372-.172.749-.337,1.132-.48a1.361,1.361,0,0,1,1.494.25.819.819,0,0,1,.216.819,1.38,1.38,0,0,1-.993.933c-.362.1-.732.168-1.094.273a12.109,12.109,0,0,0-1.766.653.9.9,0,0,1,.116.084c.426-.138.861-.258,1.3-.36a16.646,16.646,0,0,1,2.2-.357l.246-.023c.886-.085,1.952-.243,2.5.608a.99.99,0,0,1,0,1.021,1.454,1.454,0,0,1-1.385.649q.927.1,1.849.242.635.1,1.268.219l.211.041a4.125,4.125,0,0,1,1.527.461,1.113,1.113,0,0,1-.555,2.054,5.254,5.254,0,0,1-1.593-.256q-.736-.148-1.479-.263c-.256-.04-.512-.075-.77-.108a10.814,10.814,0,0,1,1.548.333l.14.042c.977.3,2.3.774,2.6,1.821a.982.982,0,0,1-.933,1.228,3.014,3.014,0,0,1-1.526-.557,6.462,6.462,0,0,0-1.089-.435c-.392-.121-.792-.221-1.195-.3a9.476,9.476,0,0,1,.99.626l.146.108c.846.632,2.136,1.61,1.838,2.795a.944.944,0,0,1-.908.692c-1.038-.1-1.611-1.206-2.395-1.8-.2-.155-.428-.308-.663-.457a18.958,18.958,0,0,1,2.85,4.755,27.412,27.412,0,0,1,2.076,11.191v.124c0,2.212-.048,4.463-.263,6.665a16.6,16.6,0,0,1-1.485,5.884,12.756,12.756,0,0,1-7.861,6.41,12.457,12.457,0,0,1-10.83-2.13c-.771-.6.251-1.9,1.038-1.349a11.322,11.322,0,0,0,10.818,1.415,11.144,11.144,0,0,0,6.144-6.676,28.534,28.534,0,0,0,1.025-5.81l.015-.13a53.237,53.237,0,0,0,.369-6.139,22.417,22.417,0,0,0-2.22-10.4,18.325,18.325,0,0,0-3.024-4.452,3.773,3.773,0,0,1-1.136-.071q-.286-.031-.572-.058c.195.126.386.258.574.392l.246.178c.771.553,1.748,1.184,1.55,2.253a.868.868,0,0,1-.62.621c-1.01.241-1.7-.743-2.387-1.327-.594-.508-1.214-.963-1.847-1.418q-.216-.154-.434-.308.205.24.4.486l.192.244c.581.729,1.419,1.676.9,2.621a.88.88,0,0,1-.763.438c-1.042-.022-1.457-1.208-1.946-1.957-.421-.642-.877-1.247-1.349-1.852q-.2-.249-.394-.5a40.848,40.848,0,0,0-6.514.868c-1.473.319-2.921.731-4.358,1.183l-.119.038a5.383,5.383,0,0,0-2.14,1.124A2.9,2.9,0,0,0,93.669-268l.06.29a12.066,12.066,0,0,1,.288,3.651,13.455,13.455,0,0,1-.988,3.635c-.223.563-.454.461-.533,1.065a6.41,6.41,0,0,0,.018,1.4l.035.393a4.124,4.124,0,0,1-.543,3,.259.259,0,0,1-.4-.052,1.687,1.687,0,0,0-.095-.15,2.084,2.084,0,0,0-1.391-.844c-.072-.013-.044-.11.017-.118a1.992,1.992,0,0,1,1.324.313c-.184-.637-1.605-.327-2.073-.2l-.016,0a4.8,4.8,0,0,0-1.62.772,3.706,3.706,0,0,0-1.515,3.075,3.32,3.32,0,0,0,1.705,2.878,3.452,3.452,0,0,0,1.672.4c.6-.006,1.142-.272,1.747-.234a.488.488,0,0,1,.416.726,1.656,1.656,0,0,1-.514.524,17.272,17.272,0,0,0,1.858,3.248,10.685,10.685,0,0,0,1.365,1.548c.393.369,1.245.8,1.2,1.41a.48.48,0,0,1-.332.439c-.626.257-1.388-.627-1.807-1.053l-.034-.034a11.71,11.71,0,0,1-1.413-1.71,8.61,8.61,0,0,1-1.381-3.6,4.985,4.985,0,0,1-3.154-.353,4.828,4.828,0,0,1-1.852-6.959,4.526,4.526,0,0,1,1.115-1.141,1.052,1.052,0,0,1-.263-.2,7.877,7.877,0,0,1-1.055-1.637l-.037-.067q-.409-.741-.772-1.505l-.09-.191a20.829,20.829,0,0,1-1.4-2.891,24.567,24.567,0,0,1-.85-3.6l-.05-.323a8.491,8.491,0,0,1-.133-2.186,2.088,2.088,0,0,1-1.643.021.95.95,0,0,1-.433-1.067,1.477,1.477,0,0,1,.426-.657,1.547,1.547,0,0,1-.311-.21l-.081-.07h0a1,1,0,0,1-.153-1.189l.058-.1a1.12,1.12,0,0,1,.969-.557H81.2a1.676,1.676,0,0,1-.526-.206,1.085,1.085,0,0,1,.255-1.959,2.692,2.692,0,0,1,1.235.045l-.047-.027a1.124,1.124,0,0,1-.559-.977,1.112,1.112,0,0,1,.559-.978,1.123,1.123,0,0,1,1.14,0,9.568,9.568,0,0,1,.843.622,2.912,2.912,0,0,1-.605-1.09,1.151,1.151,0,0,1,.513-1.265,1.068,1.068,0,0,1,1.038-.024,1.105,1.105,0,0,1,.212-.742,1.133,1.133,0,0,1,1.515-.4,1.548,1.548,0,0,1,.26.218,1.11,1.11,0,0,1,.6-1.444,1.231,1.231,0,0,1,1.213.2,1.14,1.14,0,0,1,2.092-.789c.146.263.29.54.42.824l.048.107,0,0-.033-.078h0l-.034-.078a5.28,5.28,0,0,1-.469-1.3,1.133,1.133,0,0,1,.931-1.4,1.206,1.206,0,0,1,1.042.418,1.11,1.11,0,0,1,1.852-1.017,4.962,4.962,0,0,1,.855,1.373c.142.266.286.53.428.8.036-.043.075-.086.116-.128a17.736,17.736,0,0,1-.511-1.929,1.179,1.179,0,0,1,.807-1.424,1.167,1.167,0,0,1,1.421.809c.09.431.2.858.314,1.282a2.108,2.108,0,0,1,.238-.043c.007-.08.014-.16.022-.24l.031-.284a4.716,4.716,0,0,1,.475-1.938,1.118,1.118,0,0,1,2.068.562,11.317,11.317,0,0,1-.306,1.715c-.035.248-.056.5-.067.75a22.507,22.507,0,0,1,.624-2.465C101.241-284.714,101.272-284.811,101.3-284.908ZM88.563-252.776a3.5,3.5,0,0,1,3.247,1.538.511.511,0,0,1-.078.6.468.468,0,0,1-.351.146.481.481,0,0,1-.428-.246,4.2,4.2,0,0,0-2.39-2C88.545-252.739,88.539-252.772,88.563-252.776Zm1.8-17.7.039-.042c.262-.273-.152-.689-.415-.416a3.882,3.882,0,0,0-.637.991c-.168.338.337.636.507.3l.077-.154a3.037,3.037,0,0,1,.429-.676Zm-3.639-.56c.372-.063.214-.63-.156-.567-.479.081-.957.173-1.436.254-.371.063-.214.63.156.567C85.764-270.867,86.241-270.959,86.721-271.04Zm22.135-3.87c-.359-.12-.513.448-.156.567a11.721,11.721,0,0,1,1.451.563c.338.165.636-.342.3-.508A12.889,12.889,0,0,0,108.856-274.911Zm-22.22-.762c-.351-.141-.5.428-.156.567l1.267.508h0c.351.141.5-.428.156-.567l-1.267-.508Zm26.645-1.381-.046-.029c-.318-.206-.612.3-.3.508a5.478,5.478,0,0,1,.581.346l.036.032c.274.26.69-.155.415-.416a3.957,3.957,0,0,0-.689-.44Z" transform="translate(-79.856 285.746)"/></clipPath><clipPath id="g"><path class="a" d="M135.061-216.864a3.987,3.987,0,0,1-2.233.012,4,4,0,0,1-1.844-1.2,2.683,2.683,0,0,1-.708-1.78.291.291,0,0,1,.069-.186.325.325,0,0,1,.173-.1.317.317,0,0,1,.2.018.268.268,0,0,1,.133.131c.076.1.151.2.226.292a3.707,3.707,0,0,0,2.107,1.511,2.566,2.566,0,0,0,1.444-.106,3.092,3.092,0,0,0,1.269-.892.678.678,0,0,1,.519-.256.8.8,0,0,1,.556.244.86.86,0,0,1,.258.562.748.748,0,0,1-.213.552A4.339,4.339,0,0,1,135.061-216.864Zm-.022-9.39c.74.45,1.867,1.5,1.071,2.615-.937.984-2.286-.144-2.951-.654-.616-.4-1.309.621-.737,1.083,4.8,3.558,6.753-2.926,2.991-3.572C135-226.854,134.844-226.393,135.038-226.254Zm-6.922-1.98a.825.825,0,0,0-.828-.063,2.7,2.7,0,0,0-.963.961,1.907,1.907,0,0,0-.316,1.122.254.254,0,0,1-.082.214.32.32,0,0,1-.179.079.465.465,0,0,1-.188-.017.28.28,0,0,1-.186-.16,2.338,2.338,0,0,1,.114-1.718,3.5,3.5,0,0,1,1.255-1.575,2.1,2.1,0,0,1,2.029-.009,3.74,3.74,0,0,1,1.222,1.276c.072.1.143.209.217.311a.627.627,0,0,1,.105.582.752.752,0,0,1-.427.441.77.77,0,0,1-.6.009.757.757,0,0,1-.4-.428,2.266,2.266,0,0,0-.772-1.025Zm12.079.847a.561.561,0,0,1-.471.056.669.669,0,0,1-.276-.165.55.55,0,0,1-.153-.278,1.138,1.138,0,0,0-.4-.665.8.8,0,0,0-.637-.168,1.221,1.221,0,0,0-.685.411,1.548,1.548,0,0,0-.148.217,1.536,1.536,0,0,1-.285.374.277.277,0,0,1-.176.066.265.265,0,0,1-.079-.012.823.823,0,0,1-.3-.659,1.2,1.2,0,0,1,.222-.612,2.423,2.423,0,0,1,1.293-.921,1.925,1.925,0,0,1,1.514.327,2.147,2.147,0,0,1,.877,1.343.716.716,0,0,1-.036.4A.554.554,0,0,1,140.2-227.387Zm-10.882-5.741a1.7,1.7,0,0,1-1.1.411,5.184,5.184,0,0,0-.56.083,5.27,5.27,0,0,0-1.353.494,5.012,5.012,0,0,0-1.268.9c-.082.088-.16.181-.237.273s-.139.166-.211.244-.161.184-.239.279a1.206,1.206,0,0,0-.067.119c-.015.031-.032.065-.051.1s-.058.105-.09.155c-.054.091-.083.116-.109.128a.223.223,0,0,1-.12.023.2.2,0,0,1-.1-.05.761.761,0,0,1-.212-.62,2.673,2.673,0,0,1,.272-1.042,5.627,5.627,0,0,1,1.2-1.647,5.827,5.827,0,0,1,1.883-1.148,3.822,3.822,0,0,1,1.425-.294,1.41,1.41,0,0,1,.944.372.823.823,0,0,1,.247.6A.862.862,0,0,1,129.314-233.128Zm11.544,2.908a.179.179,0,0,1-.081.071.188.188,0,0,1-.107.013.19.19,0,0,1-.1-.047.18.18,0,0,1-.054-.094,2.86,2.86,0,0,0-1.533-2.114,6.472,6.472,0,0,0-1.428-.48c-.14-.033-.287-.054-.435-.076a1.8,1.8,0,0,1-1.237-.522,1,1,0,0,1-.216-.781.831.831,0,0,1,.452-.616,2.63,2.63,0,0,1,2.146.279l.145.062a4.989,4.989,0,0,1,1.734,1.158,3.761,3.761,0,0,1,.891,1.648A1.982,1.982,0,0,1,140.858-230.219Z" transform="translate(-123.592 235.009)"/></clipPath><clipPath id="h"><path class="a" d="M128.779-205.495c-.342-.112-.678-.242-1.015-.368a6.9,6.9,0,0,0-5.62-.294c-.888.358-1.716,1-2.608,1.424-.212.079-.425.151-.641.211-.132-.046-.265-.1-.4-.144a19.825,19.825,0,0,1-2.7-1.28c-.092-.13-.188-.256-.29-.377a14.512,14.512,0,0,0,1.79-.388c1.7-.466,3.3-1.224,4.994-1.711a7.971,7.971,0,0,1,4.871-.138c.752.268,1.413.736,2.144,1.052a3.874,3.874,0,0,0,1.274.346,6.193,6.193,0,0,1-1.139,1.853A6.71,6.71,0,0,1,128.779-205.495Zm3.677-5.352a8.715,8.715,0,0,0-.978.774l-.156-.061a.434.434,0,0,0-.354-.155,8.392,8.392,0,0,1-2.507-1.818,6.029,6.029,0,0,0-1.772-1.434,4.98,4.98,0,0,0-2.518-.145c-.928.062-1.844-.2-2.771-.075a4.1,4.1,0,0,0-1.862.785,23.07,23.07,0,0,0-2.839,2.988,7.88,7.88,0,0,1-3.864,2.231l-.055-.034a21.8,21.8,0,0,1-2.926-3.266c-.845-1.152-3.072-6.337-3.61-6.791a1.034,1.034,0,0,0-.7-.264,1.12,1.12,0,0,0-.992.77,7.263,7.263,0,0,0-.125,2.638q.044,1.517.2,3.029.157,1.492.417,2.972.131.747.291,1.49a2.671,2.671,0,0,0,.126.424q.078.366.168.728a8.985,8.985,0,0,0,2.18,4.326,15.492,15.492,0,0,0,4.428,2.743,34.456,34.456,0,0,0,4.591,1.776,18.19,18.19,0,0,0,4.319,1.373,9.589,9.589,0,0,0,4.9-.262,8.631,8.631,0,0,0,2.162-1.147,7.462,7.462,0,0,0,2.472-2.043,11.122,11.122,0,0,0,2.086-5.5c.066-.509.315-2.458.334-2.762l.189-2.941C133.322-210.963,132.754-211.095,132.456-210.847Z" transform="translate(-104.366 218.114)"/></clipPath><clipPath id="i"><path class="a" d="M123.024-224.364a3.342,3.342,0,0,1-3.011,1.072c-2.433-.234-3.2-3-3.279-5.148,1.632.459-.138-2.793,5.44-3.15,1.966-.164,1.424,1.024,2.293,1.892a9.138,9.138,0,0,1-1.442,5.335m-11.59-2.093c-1.437,6.73-9.3,5.129-10.129-.937.763-.539.562-1.869,1.51-2.351,1.5-.96,3.381-.919,5.087-.9,2.181.15,2.8,1.054,3.922,2.04a13.69,13.69,0,0,1-.39,2.146m14.706-6.248-.242-.038a.726.726,0,0,0-.223-.08,3.81,3.81,0,0,0-.586-.1c-2.8-.629-9.264.264-9.531,2.651a8.869,8.869,0,0,1-2.693.058c-.785-3.284-14.365-2.821-15.019-.841l-.007,0a10.194,10.194,0,0,0-2.271-.178,19.72,19.72,0,0,0-4.57.428c-2.81.447-6.645.97-4.691,4.48v0h0a.555.555,0,0,0,.93-.4c-.657-1.663.827-1.863,1.969-2.341a19.136,19.136,0,0,1,8.672-.847,2.117,2.117,0,0,0,.911.606c1.965.326.929,1.784,2.171,2a5.733,5.733,0,0,0,9.513,4.515c1.427-1.4,1.767-3.463,2.1-5.326a.5.5,0,0,0,.351-.262,2.292,2.292,0,0,1,1.517-.924,2.715,2.715,0,0,1,1.559.187c.022.044.045.088.073.132a.5.5,0,0,0,.149.16c-.821,5.061,3.106,8.261,7.07,5.636,1.723-1.621,2.087-4.1,2.159-6.318a.67.67,0,0,0,.3-.758.96.96,0,0,1,.566-1.089.744.744,0,0,0-.176-1.346" transform="translate(-85.775 233.119)"/></clipPath><clipPath id="j"><path class="a" d="M17.122-427.756A17.122,17.122,0,0,1,0-444.878,17.122,17.122,0,0,1,17.122-462a17.122,17.122,0,0,1,17.122,17.122A17.122,17.122,0,0,1,17.122-427.756Z" transform="translate(0 462)"/></clipPath><clipPath id="k"><rect class="b" width="37.229" height="55.154"/></clipPath><clipPath id="l"><path class="b" d="M34.244-427.756H0V-462H34.244Z" transform="translate(0 462)"/></clipPath><clipPath id="m"><path class="a" d="M59.507-325.317c-2.147-.472-3.42-.472-4.141-1.2s-.851-1.988-1.15-2.957c-.165-.534-1.778-1.02-3.344-.944-1.276.062-2.561.6-2.66.944-.221.766-.577,4.043-1.746,4.547s-3.666.044-4.38,1.247-3.058,6.1-3.058,7.247q0,1.142,22.919.793Q61.654-324.845,59.507-325.317Z" transform="translate(-39.028 330.43)"/></clipPath><clipPath id="o"><path class="a" d="M21.581-291.456c-.033.023-.007.024,0,0m.127-.095-.007.005c.026,0,.042-.028.007-.005m-33.918-3.028.432-1.844.9-3.857,1.766-7.544c.3-1.278.64-2.546.949-3.822a19.689,19.689,0,0,1,.957-3.321,4.594,4.594,0,0,1,2.4-2.441,9.009,9.009,0,0,1,2.978-.647.41.41,0,0,1,.028-.572,1.658,1.658,0,0,0,.337-.884,2.939,2.939,0,0,1,.423-1.118.373.373,0,0,1,.4-.164q.153.034.3.078a.7.7,0,0,0,.091-.107,1.27,1.27,0,0,1,.193-.309.174.174,0,0,1,.2-.026c.191.1.207.39.166.57a.979.979,0,0,1-.03.1l.04.018h0a3.1,3.1,0,0,1,.811.077q.424.042.85.056a13.2,13.2,0,0,0,1.741-.057c.564-.056,1.123-.146,1.68-.248a2.809,2.809,0,0,0,1.074-.324c0-.1.007-.208.009-.312a.864.864,0,0,1,.091-.481,0,0,0,0,1,.006,0,.636.636,0,0,1,.267.294.539.539,0,0,1,.344.018,1.108,1.108,0,0,1,.38.25,1.094,1.094,0,0,1,.276.6,1.285,1.285,0,0,0,.125.392c.014.024.029.049.046.072l.036.037.057.056c.011.011.066.056.058.05a2.1,2.1,0,0,0,.75.329c.635.183,1.285.3,1.918.5a18.21,18.21,0,0,1,2.029.762,15.039,15.039,0,0,1,6.443,5.284,20.219,20.219,0,0,1,2.834,9.266c.365,3.526.339,7.091.419,10.631l.03,1.328c.01.433.037.9-.348,1.191a1.221,1.221,0,0,1-1.14.061,9.866,9.866,0,0,0-1.239-.295,9.175,9.175,0,0,0-2.4-.072c-.428.042-.952.2-1.3-.135a1.107,1.107,0,0,1-.259-.434c-.074-.2-.161-.392-.247-.587-.071-.16-.142-.321-.213-.482l-.344,1.506a.227.227,0,0,1-.376.117,2,2,0,0,1-.7.134c-.372.043-.746.057-1.12.07-.732.025-1.464.039-2.2.048-1.493.019-2.986.012-4.479.006-2.957-.013-5.914-.073-8.87-.15q-1.248-.032-2.5-.061-.624-.015-1.248-.031a1.865,1.865,0,0,1-.369-.043h0a.486.486,0,0,1-.195.1.524.524,0,0,1-.634-.36.918.918,0,0,1-.056-.353l-.043-.269a2.576,2.576,0,0,1-1.562.335c-.618-.041-1.236-.154-1.849-.238-.576-.079-1.509-.053-1.537-.848a3.677,3.677,0,0,1,.179-.9l.235-1.006" transform="translate(12.624 321.755)"/></clipPath><clipPath id="q"><path class="a" d="M47.349-407.606a5.532,5.532,0,0,0,2.48-.557,7.134,7.134,0,0,0,2.712-1.147c.369.078.748-.3,1.054-.527.5,1.839,3.1,1.533,4.2.345.672-.568.942-1.973-.225-2.344,1.912-1.3,2.6-3.544,2.471-5.973-.138-4.075-3.268-8.311-7.291-9.017a6.329,6.329,0,0,0-2.4.041,5.773,5.773,0,0,1-1.34.273,6.86,6.86,0,0,0-5.356.917c-2.418,1.619-2.754,4.859-2.471,7.463l-.011.024a5.339,5.339,0,0,0,.816,2.408c.034.829.322,2.6.343,3.3-.052,3.254,1.8,4.7,5.02,4.8" transform="translate(-41.097 426.922)"/></clipPath><clipPath id="s"><path class="a" d="M55.745-424.225a7.033,7.033,0,0,0-4.231.038l-.095.019-.149.029c-1.545-.1-2.876-.443-4.367.3-3.1,1.306-3.678,4.912-3.464,7.923l.013.056a2.858,2.858,0,0,0,.542,1.242c.5-2.472,2.115-4.1,4.1-5.663l.071-.086a3.909,3.909,0,0,1,.84-.816,2.243,2.243,0,0,1-.014-.287c0-.131.19-.242.287-.128l.019.023c.127.155.8.9,1.135,1.28l.042.048.1.116.172.207c1.862,2.228,3.826,4.464,6.6,5.534a1.428,1.428,0,0,1,1.888.543c1.182,1.378-.188,3.978-2,3.272A5.274,5.274,0,0,1,56-407.829a2.143,2.143,0,0,0,2.9.608c1.035-.463,1.7-1.434,1.07-2.509l-.041-.023a3.435,3.435,0,0,1-1.642.582l-.044,0c-.367.017-.361-.561.011-.59,2.461-.313,3.554-3.127,3.557-5.333A9.462,9.462,0,0,0,55.745-424.225Z" transform="translate(-43.398 424.542)"/></clipPath><clipPath id="u"><path class="a" d="M56.59-412.968c5.79-5.121-.15-16.644-7.684-15.116a4.149,4.149,0,0,1-2.326.155,6.274,6.274,0,0,0-7.066,6.668,13.383,13.383,0,0,0,.05,2,5.4,5.4,0,0,0,.811,2.54c.006.489.293,2.323.34,3.185l.009.18a6.731,6.731,0,0,0,.534,2.6c1.2,2.172,4.283,2.638,6.494,2.005l.092-.03a2.314,2.314,0,0,0,1.138-.663c.138-.182-.09-.414-.28-.365a4.128,4.128,0,0,0-.675.319,6.073,6.073,0,0,1-4.716-.177l-.044-.019c-2.63-1.069-1.91-4.87-2.256-7.038-.079-2.753,2.215-4.627,3.943-6.448l.052-.058a1.151,1.151,0,0,1,.612-.431,1.419,1.419,0,0,0,.388.53l.349.377c.349.377.7.752,1.053,1.124,1.722,1.75,3.476,4.127,6.13,4.306-.163.148-.306.317-.477.456a.1.1,0,0,0,.1.169c.18-.046.3-.217.414-.351,1.433-.6,2.61,1.623,1.4,2.544-.45.477-1.767.114-1.462.7a5.738,5.738,0,0,1-1.709,2.789c-.254.192-.651.289-.819.572a.159.159,0,0,0,.056.215c.367.172.762-.117,1.044-.334C53.567-407.642,59.032-410.864,56.59-412.968Zm-8.856-14.248.149-.029c1.592-.315,2.642-.627,4.326-.057a9.462,9.462,0,0,1,6.067,9.134c0,2.206-1.1,5.02-3.557,5.333-.372.03-.378.608-.011.59h.011a3.432,3.432,0,0,0,1.695-.6c.672,1.089,0,2.077-1.048,2.545a2.143,2.143,0,0,1-2.9-.608,5.274,5.274,0,0,0,1.234-2.747c1.816.705,3.186-1.894,2-3.273a1.428,1.428,0,0,0-1.888-.543c-2.863-1.1-4.861-3.445-6.775-5.74l-.1-.116c-.335-.379-1.105-1.234-1.191-1.345s-.29-.012-.292.121a2.244,2.244,0,0,0,.014.287,4.255,4.255,0,0,0-.911.9c-1.984,1.558-3.6,3.19-4.1,5.663A2.943,2.943,0,0,1,39.9-419c-.214-3.011.361-6.617,3.464-7.923C44.858-427.66,46.188-427.32,47.733-427.217Zm7.039,11.308c.129-.115-.725-.129-.805-.039l-.018.006c-.306.108-.865.454-.591.815C53.75-414.757,54.023-415.855,54.772-415.908Z" transform="translate(-39.498 428.222)"/></clipPath><clipPath id="w"><path class="a" d="M101.635-371.338a1.758,1.758,0,0,0,.983.005,1.763,1.763,0,0,0,.811-.526,1.178,1.178,0,0,0,.312-.782.128.128,0,0,0-.031-.082.143.143,0,0,0-.076-.046.14.14,0,0,0-.089.008.118.118,0,0,0-.059.058c-.033.044-.066.087-.1.128a1.631,1.631,0,0,1-.927.664,1.131,1.131,0,0,1-.635-.046,1.361,1.361,0,0,1-.558-.392.3.3,0,0,0-.228-.113.35.35,0,0,0-.245.107.377.377,0,0,0-.113.247.328.328,0,0,0,.094.242A1.91,1.91,0,0,0,101.635-371.338Zm.01-4.126c-.326.2-.822.659-.472,1.149.412.432,1.006-.063,1.3-.287.271-.174.576.273.324.476-2.114,1.563-2.972-1.286-1.316-1.57C101.662-375.728,101.73-375.525,101.645-375.464Zm3.046-.87a.364.364,0,0,1,.364-.028,1.186,1.186,0,0,1,.424.422.836.836,0,0,1,.139.493.111.111,0,0,0,.036.094.141.141,0,0,0,.079.035.206.206,0,0,0,.083-.007.123.123,0,0,0,.082-.07,1.026,1.026,0,0,0-.05-.755,1.539,1.539,0,0,0-.552-.692.924.924,0,0,0-.893,0,1.645,1.645,0,0,0-.538.561c-.032.046-.063.092-.1.137a.275.275,0,0,0-.046.256.331.331,0,0,0,.188.194.339.339,0,0,0,.262,0,.333.333,0,0,0,.178-.188,1,1,0,0,1,.34-.45Zm-5.316.372a.247.247,0,0,0,.207.025.3.3,0,0,0,.121-.072.241.241,0,0,0,.068-.122.5.5,0,0,1,.176-.292.353.353,0,0,1,.28-.074.537.537,0,0,1,.3.181.679.679,0,0,1,.065.1.675.675,0,0,0,.125.164.122.122,0,0,0,.077.029.117.117,0,0,0,.035-.005.361.361,0,0,0,.133-.29.529.529,0,0,0-.1-.269,1.066,1.066,0,0,0-.569-.4.848.848,0,0,0-.666.144.943.943,0,0,0-.386.59.314.314,0,0,0,.016.174A.244.244,0,0,0,99.375-375.961Zm4.789-2.522a.75.75,0,0,0,.485.18,2.288,2.288,0,0,1,.246.036,2.32,2.32,0,0,1,.6.217,2.206,2.206,0,0,1,.558.395c.036.039.07.079.1.12s.061.073.093.107.071.081.105.122a.528.528,0,0,1,.03.052l.022.045c.012.022.025.046.04.068.024.04.037.051.048.056a.1.1,0,0,0,.053.01.089.089,0,0,0,.046-.022.334.334,0,0,0,.093-.272,1.173,1.173,0,0,0-.12-.458,2.473,2.473,0,0,0-.527-.724,2.565,2.565,0,0,0-.829-.5,1.684,1.684,0,0,0-.627-.129.621.621,0,0,0-.416.163.361.361,0,0,0-.109.265A.378.378,0,0,0,104.164-378.484Zm-5.081,1.278a.079.079,0,0,0,.036.031.083.083,0,0,0,.047.006.084.084,0,0,0,.042-.021.079.079,0,0,0,.024-.041,1.257,1.257,0,0,1,.675-.929,2.85,2.85,0,0,1,.629-.211c.061-.015.126-.024.192-.033a.791.791,0,0,0,.544-.229.44.44,0,0,0,.1-.343.365.365,0,0,0-.2-.27,1.159,1.159,0,0,0-.944.123l-.064.027a2.2,2.2,0,0,0-.763.509,1.651,1.651,0,0,0-.392.724A.87.87,0,0,0,99.083-377.206Z" transform="translate(-98.974 379.311)"/></clipPath><clipPath id="y"><path class="a" d="M17.122-174.756A17.122,17.122,0,0,1,0-191.878,17.122,17.122,0,0,1,17.122-209a17.122,17.122,0,0,1,17.122,17.122A17.122,17.122,0,0,1,17.122-174.756Z" transform="translate(0 209)"/></clipPath><clipPath id="z"><rect class="b" width="37.229" height="55.613"/></clipPath><clipPath id="aa"><path class="b" d="M34.244-174.756H0V-209H34.244Z" transform="translate(0 209)"/></clipPath><clipPath id="ab"><path class="a" d="M59.507-72.317c-2.147-.472-3.42-.472-4.141-1.2s-.851-1.988-1.15-2.957c-.165-.534-1.778-1.02-3.344-.944-1.276.062-2.561.6-2.66.944-.221.766-.577,4.043-1.746,4.547s-3.666.044-4.38,1.247-3.058,6.1-3.058,7.247q0,1.142,22.919.793Q61.654-71.845,59.507-72.317Z" transform="translate(-39.028 77.43)"/></clipPath><clipPath id="ad"><path class="a" d="M21.581-38.456c-.033.023-.007.024,0,0m.127-.095-.007.005c.026,0,.042-.028.007-.005M-12.21-41.579l.432-1.844.9-3.857,1.766-7.544c.3-1.278.64-2.546.949-3.822A19.689,19.689,0,0,1-7.2-61.967a4.594,4.594,0,0,1,2.4-2.441,9.008,9.008,0,0,1,2.978-.647.41.41,0,0,1,.028-.572,1.658,1.658,0,0,0,.337-.884,2.939,2.939,0,0,1,.423-1.118.373.373,0,0,1,.4-.164q.153.034.3.078a.7.7,0,0,0,.091-.107,1.272,1.272,0,0,1,.193-.309.174.174,0,0,1,.2-.026c.191.1.207.39.166.57a.979.979,0,0,1-.03.1l.04.018h0a3.1,3.1,0,0,1,.811.077q.424.042.85.056a13.2,13.2,0,0,0,1.741-.057c.564-.056,1.123-.146,1.68-.248a2.81,2.81,0,0,0,1.074-.324c0-.1.007-.208.009-.312a.864.864,0,0,1,.091-.481,0,0,0,0,1,.006,0,.636.636,0,0,1,.267.294.539.539,0,0,1,.344.018,1.108,1.108,0,0,1,.38.25,1.094,1.094,0,0,1,.276.6,1.285,1.285,0,0,0,.125.392c.014.024.029.049.046.072l.036.037.057.056c.011.011.066.056.058.05a2.1,2.1,0,0,0,.75.329c.635.183,1.285.3,1.918.5a18.216,18.216,0,0,1,2.029.762,15.039,15.039,0,0,1,6.443,5.284,20.219,20.219,0,0,1,2.834,9.266c.365,3.526.339,7.091.419,10.631l.03,1.328c.01.433.037.9-.348,1.191a1.221,1.221,0,0,1-1.14.061,9.858,9.858,0,0,0-1.239-.295,9.174,9.174,0,0,0-2.4-.072c-.428.042-.952.2-1.3-.135a1.107,1.107,0,0,1-.259-.434c-.074-.2-.161-.392-.247-.587-.071-.16-.142-.321-.213-.482l-.344,1.506a.227.227,0,0,1-.376.117,2,2,0,0,1-.7.134c-.372.043-.746.057-1.12.07-.732.025-1.464.039-2.2.048-1.493.019-2.986.012-4.479.006-2.957-.013-5.914-.073-8.87-.15q-1.248-.032-2.5-.061Q-5.756-37.987-6.38-38a1.864,1.864,0,0,1-.369-.043h0a.486.486,0,0,1-.195.1.524.524,0,0,1-.634-.36.918.918,0,0,1-.056-.353l-.043-.269a2.576,2.576,0,0,1-1.562.335c-.618-.041-1.236-.154-1.849-.238-.576-.079-1.509-.053-1.537-.848a3.677,3.677,0,0,1,.179-.9l.235-1.006" transform="translate(12.624 68.755)"/></clipPath><clipPath id="af"><path class="a" d="M43.88-174.082l-.372.442q.309.218.583.438h0a5.072,5.072,0,0,0-2.8-.88c-1.951,0-5.913,1.677-6.809,2.887a14.131,14.131,0,0,0-1.7,4.447c-.344,1.61-.856,6.158-.344,7.867.655,2.187,2.811,4.209,5.035,4.209s5.675-1.606,8.131-5.127a18.743,18.743,0,0,0,2.322-.952l-.242,2.664-.184,1.55.041.11q.989,2.676,1.567,2.792t2.4-1.936l.154-.649q.588-2.483.588-2.665v-.022c-.006-.28-.1-1.866-.1-2.292v-6.395q-1.95-6.488-3.721-6.488Z" transform="translate(-32.226 174.082)"/></clipPath><clipPath id="ah"><path class="a" d="M45.25-183.543a1.345,1.345,0,0,0-1.188.1,2.069,2.069,0,0,0-1.792.995l-.023.026-.079.092a2.483,2.483,0,0,0-.215.284.885.885,0,0,1,.737.383c.127.179-.163.35-.293.18l0-.006a.525.525,0,0,0-.446-.212.161.161,0,0,1-.118-.05c-.011.04-.021.08-.03.121a6.308,6.308,0,0,0-2.84-.361,1.141,1.141,0,0,1,.105.22.174.174,0,0,1-.12.212.174.174,0,0,1-.209-.112l0-.008a.619.619,0,0,0-.179-.266,9.553,9.553,0,0,0-1.349.287,14.736,14.736,0,0,0-1.569.551.4.4,0,0,1,.215.188c.105.192-.184.365-.293.181l0-.007a.16.16,0,0,0-.027-.038l0,0-.015-.007-.028-.008h0l-.011,0a.215.215,0,0,0-.039,0c-.033,0-.067,0-.1,0a.156.156,0,0,1-.152-.1q-.38.172-.75.361l-.058.03a4.35,4.35,0,0,0-1.895,1.685.266.266,0,0,0-.029.161c-.089.107-.175.217-.258.329a6.118,6.118,0,0,0-.612,1.119,12.15,12.15,0,0,0-.773,2.407c-.179.8-.323,1.613-.457,2.423a20.311,20.311,0,0,0-.3,2.723,7.877,7.877,0,0,0,1.186,4.638,5.745,5.745,0,0,0,3.5,2.506,4.9,4.9,0,0,0,4.213-.979.459.459,0,0,0,0-.643.466.466,0,0,0-.642,0,4.143,4.143,0,0,1-4.022.6,5.252,5.252,0,0,1-2.771-2.586,8.427,8.427,0,0,1-.729-4.509c.06-.842.185-1.676.315-2.51l.078-.5c.085-.543.174-1.086.291-1.624l.027-.125a11.032,11.032,0,0,1,.567-1.924,10.348,10.348,0,0,1,.464-.933l.1-.179a.239.239,0,0,0,.152,0,6.261,6.261,0,0,1,1.445-.277,6.358,6.358,0,0,1,.673-.009,3.152,3.152,0,0,1,1.144.129l.108-.091.029,0a.283.283,0,0,0,.2-.168l.006-.013.142-.106a.215.215,0,0,0,.245-.172l.078-.051a.377.377,0,0,0,.061.011.437.437,0,0,0,.244-.048.453.453,0,0,0,.2-.23.7.7,0,0,0,.421-.123,1.278,1.278,0,0,0,.266-.26,9.007,9.007,0,0,1,3.1-.759q.157.03.311.072c.024.007.059.02.1.035a2.727,2.727,0,0,0-.721,0,5.205,5.205,0,0,0-2.83,1.851c-.184-.037-.371.2-.2.36l1.33,1.233h0a.221.221,0,0,0,.264.241q.348-.084.7-.163a.741.741,0,0,0,.768-.073c.01-.008.032-.021.052-.033a.59.59,0,0,0,.052.036.372.372,0,0,0,.265.053.541.541,0,0,0,.252-.122c.047-.038.155-.2.216-.208h.006c-.04,0,.089.122.124.147a.384.384,0,0,0,.272.077.622.622,0,0,0,.414-.328l.006-.011,0-.007,0,.008v0a.307.307,0,0,0,.081.1.327.327,0,0,0,.279.082.4.4,0,0,0,.221-.133l.009-.01c.018-.02.133-.175.115-.213l0,0h.006a.189.189,0,0,0,.173-.036,6.6,6.6,0,0,0,.711-.193c.018.051.036.1.053.153-.126.078-.243.189-.35.268l-.609.45-.8.593h0l-.092-.025h0a.219.219,0,0,0-.261.141l0,.009a.784.784,0,0,1-.062.129.422.422,0,0,0-.426.292,1.136,1.136,0,0,0-.151.006.219.219,0,0,0-.209.263l0,.01,0,.016a.245.245,0,0,0-.153.2.383.383,0,0,0-.051.108,1.272,1.272,0,0,0,.116.658l0,.015c.039.13.079.259.12.388l.1.32a5.164,5.164,0,0,1,.329,2.771.173.173,0,0,0,.314.133,12.425,12.425,0,0,1,.855-1.069l.015,0h0c.211-.042.293-.192.39-.344a.378.378,0,0,0,.178.009.436.436,0,0,0,.224-.128c.052-.053.1-.188.16-.221.076-.042.229.018.32,0a.738.738,0,0,0,.21-.068,1.163,1.163,0,0,1,.225.579.477.477,0,0,0,.067.206,1.744,1.744,0,0,0-.384.028,1.319,1.319,0,0,0-1,.81.016.016,0,0,0,.028.016,1.145,1.145,0,0,1,1.337-.3,1.314,1.314,0,0,1,.831,1.052,2.12,2.12,0,0,1-.312,1.523,1.064,1.064,0,0,1-.548.469c-.283.09-.544-.071-.834.012a.365.365,0,0,0-.248.438.573.573,0,0,0,.076.2c-.1.207-.2.42-.323.615a4.668,4.668,0,0,1-.668.8c-.258.26-.52.515-.8.756s-.567.4-.844.608a.488.488,0,0,0-.195.6.471.471,0,0,0,.562.276,3.938,3.938,0,0,0,1.105-.76,3.865,3.865,0,0,0,.773-.969,5.971,5.971,0,0,0,.447-1.1l.015-.046a5.112,5.112,0,0,0,.152-.575,1.326,1.326,0,0,0,.777.109,1.73,1.73,0,0,0,1.02-.54,2.469,2.469,0,0,0,.333-.453c-.009.1-.014.2-.02.287a1.027,1.027,0,0,0-.235.926.691.691,0,0,0-.143.732.814.814,0,0,0-.109.824.858.858,0,0,0-.076,1l.006.022h0a.887.887,0,0,0,.092,1.02.571.571,0,0,0,.271.871.442.442,0,0,0,.4-.077,3.239,3.239,0,0,0-.011,1.488.471.471,0,0,0,.446.34.44.44,0,0,0,.376-.21,3.038,3.038,0,0,0,.058.75.433.433,0,0,0,.323.308.2.2,0,0,0-.024.241.419.419,0,0,0,.786-.145.721.721,0,0,0,.248-.494c.042-.29.057-.574.1-.86l.018.017h0l.009.008,0,.021a.427.427,0,0,0,.21.3.921.921,0,0,0,.175.685.468.468,0,0,0,.433.147.162.162,0,0,0,.029,0,.53.53,0,0,0,.453-.672.726.726,0,0,0,.156-.6.776.776,0,0,0,.17-.882.843.843,0,0,0,.246-.967,1.055,1.055,0,0,0,.116-1.112.6.6,0,0,0,0-.906,1.013,1.013,0,0,0,.089-.911.6.6,0,0,0,.149-.436.633.633,0,0,0-.361-.5l-.013-.073h0a.16.16,0,0,1-.134-.047.716.716,0,0,0-.128-.1.166.166,0,0,1-.123-.057.863.863,0,0,0-.271-.042.173.173,0,0,1-.022-.343.172.172,0,0,1,.121-.052h.037a.647.647,0,0,1,.252.04.283.283,0,0,1,.121.1.238.238,0,0,0,.112.174.269.269,0,0,0,.289.012c.126-.074.127-.191.113-.317-.032-.276.127-.536.089-.819a.653.653,0,0,0-.126-.32.743.743,0,0,0,.058-.726.836.836,0,0,0,.123-.924c0-.007,0-.015-.006-.022a.739.739,0,0,0-.064-.14.711.711,0,0,0,0-.717.709.709,0,0,0,.028-.846c0-.021,0-.041,0-.062a.788.788,0,0,0-.041-.643,1.263,1.263,0,0,0,.083-.271,1.588,1.588,0,0,0-.046-.734c-.011-.038-.024-.077-.037-.115,0-.166-.009-.332-.017-.5a2,2,0,0,0,.039-.437v-.093a1.384,1.384,0,0,0-.131-.781.624.624,0,0,0-.1-.661.656.656,0,0,0,.023-.643.7.7,0,0,0-.062-.1,1.13,1.13,0,0,0-.136-.592.978.978,0,0,0-.289-.324c0-.026,0-.052,0-.077a.96.96,0,0,0-.07-.335.546.546,0,0,0,.067-.436.7.7,0,0,0-.345-.42,3.5,3.5,0,0,0-.077-.5.523.523,0,0,0-.207-.653.581.581,0,0,0-.128-.506.5.5,0,0,0-.17-.12.623.623,0,0,0-.129-.515.592.592,0,0,0-.406-.2.663.663,0,0,0-.675-.53.484.484,0,0,0-.28-.32.481.481,0,0,0-.113-.032,2.238,2.238,0,0,0-.971-.525,1.592,1.592,0,0,0-.954.006l-.021.008-.023,0C45.451-183.534,45.35-183.54,45.25-183.543Zm2.525,21.267a.174.174,0,0,1,.212.12.175.175,0,0,1-.12.212,1.151,1.151,0,0,1-.343.043.175.175,0,0,1-.172-.172.174.174,0,0,1,.172-.172A.772.772,0,0,0,47.775-162.276Zm.789-1.83a.471.471,0,0,1,.345.125.174.174,0,0,1,0,.244.176.176,0,0,1-.236.007l-.013-.012,0,0-.017-.01.011.007c.009.006-.011,0-.022-.009h-.063a.174.174,0,0,1-.172-.172A.175.175,0,0,1,48.564-164.106Zm-2.5-1.093c-.186-.114-.02-.407.167-.3l.007,0a.6.6,0,0,0,.322.051.172.172,0,0,1,0,.345H46.52A.865.865,0,0,1,46.06-165.2Zm1.466-1.258a1.56,1.56,0,0,1,.447-.034l.025,0h.046a.174.174,0,0,1,.109.041.5.5,0,0,1,.137.084c.168.146-.077.388-.243.244a.131.131,0,0,0-.032-.02l-.009,0H47.82a.161.161,0,0,1-.049-.009c-.06.008-.115.02-.153.027C47.4-166.083,47.309-166.415,47.527-166.456Zm.157-3.307a.8.8,0,0,1,.818.05c.178.124.013.418-.167.3l-.006,0a.579.579,0,0,0-.069-.04.594.594,0,0,1-.377-.007l-.016-.006-.01,0C47.658-169.373,47.483-169.67,47.684-169.764Zm-2.938-.54c.273-.031.275-.462,0-.431a2.285,2.285,0,0,0-1.492.767c-.179.206.116.508.3.311l.006-.006A1.847,1.847,0,0,1,44.746-170.3Zm3.054-2.213a1.151,1.151,0,0,1,.181-.007c.143.007.317.1.254.275a.185.185,0,0,1-.3.07c-.034,0-.068,0-.1.007-.09.009-.179.026-.268.044-.216.043-.309-.289-.092-.332l.1-.019.1-.018a.17.17,0,0,1,.063-.018H47.8Zm1.71-2.673.02,0c.291-.037.757,0,.793.367.019.205-.277.218-.335.043a2.241,2.241,0,0,0-.644-.023.165.165,0,0,1,.053-.281A.151.151,0,0,1,49.51-175.19Zm-6.645-.626a.175.175,0,0,1,.243,0,.576.576,0,0,1,.1.134l.017.033.009.016.018.029,0,0,.006.006a.175.175,0,0,1,0,.244.175.175,0,0,1-.243,0,.577.577,0,0,1-.1-.134l-.017-.033-.009-.016-.018-.029-.007-.007,0,0A.175.175,0,0,1,42.865-175.815Zm3.53-.449a.571.571,0,0,1,.754.027c.161.149-.076.389-.238.249l-.006-.005-.018-.015a.166.166,0,0,1-.108.041h-.06l-.008,0c-.014.006-.034.016-.007,0l-.017.01-.01.009a.175.175,0,0,1-.242,0A.186.186,0,0,1,46.395-176.264Zm-2.371-.564h0a.172.172,0,0,1,.092-.332.591.591,0,0,1,.381.492.176.176,0,0,1-.12.212.174.174,0,0,1-.212-.12.718.718,0,0,0-.054-.17l-.015-.029c-.007-.013-.009-.015-.033-.036A.162.162,0,0,0,44.024-176.828Zm3.6-1.735.033-.008c.207-.045.482-.069.607.136.114.187-.174.358-.292.181h-.01l-.053,0a.808.808,0,0,0-.194.026C47.5-178.18,47.41-178.513,47.626-178.564Zm-7.438-1.325a.172.172,0,0,1,.243-.244,1.655,1.655,0,0,1,.324.407.176.176,0,0,1-.062.236.174.174,0,0,1-.236-.062A1.3,1.3,0,0,0,40.188-179.888Zm1.979-.412a.755.755,0,0,1,.316.418.174.174,0,0,1-.12.212.174.174,0,0,1-.209-.112l0-.008a.534.534,0,0,0-.075-.144.274.274,0,0,0-.1-.083.18.18,0,0,1-.125-.181A.281.281,0,0,0,42.167-180.3Zm4.639-.749a.489.489,0,0,1,.556-.077.174.174,0,0,1,.062.236.176.176,0,0,1-.235.062c.022.01-.018,0-.034-.008s-.031,0-.04,0h0l-.024.007-.01,0c.005,0-.018.014-.025.019h0C46.887-180.656,46.643-180.9,46.806-181.05Z" transform="translate(-30.042 183.635)"/></clipPath><clipPath id="aj"><path class="a" d="M101.474-118.971a.363.363,0,0,0-.657.086c-.137.617.6,1.186,1.158,1.2a1.043,1.043,0,0,0,1.1-1.055c-.02-.148-.217-.13-.285-.037l-.026.035a.819.819,0,0,1-.763.439.581.581,0,0,1-.353-.225C101.545-118.664,101.556-118.827,101.474-118.971Zm3.533-4.511a.331.331,0,0,0-.218.016.429.429,0,0,0-.317.293q-.005.018-.012.036l-.007.018.018-.045c-.008.045-.045.092-.058.137a.492.492,0,0,0-.015.179c-.047,0-.095,0-.142.006l-.046,0a.876.876,0,0,0-.687.288.254.254,0,0,0,.151.371c.241.037.448-.1.687-.123a2.4,2.4,0,0,1,.687.03c.462.084.886.271,1.336.389l.061.016h0c.077.019.165-.088.088-.151a3.988,3.988,0,0,0-1.277-.681.406.406,0,0,0,.041-.357c-.007-.023-.016-.046-.025-.069l-.019-.047h0a.338.338,0,0,0-.012-.065v-.007h0A.353.353,0,0,0,105.007-123.482Zm-4.6.017a.252.252,0,0,0-.34-.006l-.014.011h0a.562.562,0,0,0-.23.224.56.56,0,0,0-.092.282.837.837,0,0,0-.642.265.248.248,0,0,0-.064.242l.019.05h0c.059.159.323.251.413.064l0-.009c.1-.222.462-.2.657-.176a2.517,2.517,0,0,1,.4.087l.138.043.046.015c.024.008.152.077.072.061-.021,0-.037.027-.016.037a.14.14,0,0,0,.189-.146c-.011-.176-.29-.272-.424-.332l-.008,0c-.051-.024-.105-.047-.161-.068a.779.779,0,0,0,.079-.154.678.678,0,0,0,.041-.159.154.154,0,0,0,0-.082v-.008h0a.252.252,0,0,0,.005-.055v-.007h0A.266.266,0,0,0,100.408-123.465Zm1.575,1.87c-.379.117-1,.435-.806.927.276.451,1.007.12,1.361-.026a.253.253,0,0,1,.176.474c-2.543,1-2.533-1.647-.823-1.608C102.079-121.824,102.085-121.634,101.983-121.6Zm3.364-3.457-.065-.019c-.336-.1-.678-.265-.977,0a.369.369,0,0,0-.057.445c.191.292.474.247.782.272a2.429,2.429,0,0,1,.685.174,2.408,2.408,0,0,1,.5.28c.154.109.259.278.417.376a.1.1,0,0,0,.146-.059.829.829,0,0,0-.156-.638,1.633,1.633,0,0,0-.534-.522,2.882,2.882,0,0,0-.742-.3Zm-4.892-.222a1.78,1.78,0,0,0-1.431.777.354.354,0,0,0,.126.48.36.36,0,0,0,.474-.117l.007-.009a1.765,1.765,0,0,1,.695-.557,1.839,1.839,0,0,1,.433-.135l.047-.008a.66.66,0,0,1,.2-.011.232.232,0,0,1,.089.031.037.037,0,0,0,.052.046c.141-.077.124-.215.007-.323A1.13,1.13,0,0,0,100.455-125.275Z" transform="translate(-98.974 125.275)"/></clipPath></defs><g transform="translate(-703.728 -445.207)"><g transform="translate(668.657 730.953)"><g class="c" transform="translate(35.658 -243.201)"><path class="d" d="M31.338-199.02H133.052v76.189H31.338Z" transform="translate(-33.657 196.7)"/></g><g class="e" transform="translate(36.389 -240.463)"><path class="d" d="M32.913-193.116H107.73v73.9H32.913Z" transform="translate(-35.232 190.797)"/></g><g class="f" transform="translate(78.245 -219.732)"><path class="d" d="M123.155-148.422h58.53v38.071h-58.53Z" transform="translate(-125.474 146.103)"/></g><g class="g" transform="translate(35.07 -241.338)"><path class="h" d="M30.07-195H132.855v74.689H30.07Z" transform="translate(-32.39 192.685)"/></g><g class="i" transform="translate(59.755 -280.746)"><path class="d" d="M83.289-279.967h41.161v47.988H83.289Z" transform="translate(-85.609 277.648)"/></g><g class="j" transform="translate(55.843 -285.746)"><path class="h" d="M74.856-290.746h46.829v54.372H74.856Z" transform="translate(-77.176 288.427)"/></g><g class="k" transform="translate(76.129 -262.213)"><path d="M118.592-240.009h22.152v22.949H118.592Z" transform="translate(-120.911 237.69)"/></g><g class="l" transform="translate(67.212 -254.376)"><path class="h" d="M99.366-223.114h33.565v27.1H99.366Z" transform="translate(-101.685 220.795)"/></g><g class="m" transform="translate(58.588 -261.336)"><path class="h" d="M80.775-238.12h45.534v16.42H80.775Z" transform="translate(-83.094 235.8)"/></g></g><g transform="translate(813 452.001)"><g class="n" transform="translate(0 0)"><g class="o" transform="translate(-0.686 -0.919)"><g class="p" transform="translate(0 0)"><g class="q" transform="translate(0.686 0.919)"><path class="r" d="M30.883-467H-5v35.883H30.883Z" transform="translate(4.181 466.181)"/></g><g class="s" transform="translate(5.617 22.477)"><g class="q" transform="translate(-4.931 -21.558)"><path class="d" d="M58.585-335.43H34.028v16.506H58.585Z" transform="translate(-29.916 356.168)"/></g></g><g class="t" transform="translate(1.768 23.898)"><g class="q" transform="translate(-1.081 -22.979)"><path class="h" d="M19.246-326.755h-36.87v32.867h36.87Z" transform="translate(17.886 348.914)"/></g></g><g class="u" transform="translate(9.241 6.667)"><g class="q" transform="translate(-8.555 -5.748)"><path class="d" d="M56.692-431.922H36.1v20.954H56.692Z" transform="translate(-28.362 436.85)"/></g></g><g class="v" transform="translate(9.403 7.057)"><g class="q" transform="translate(-8.717 -6.137)"><path class="h" d="M58.453-429.542H38.4v19.274H58.453Z" transform="translate(-30.5 434.86)"/></g></g><g class="w" transform="translate(9.039 6.454)"><g class="q" transform="translate(-8.353 -5.534)"><path class="h" d="M55.556-433.222H34.5v21.374H55.556Z" transform="translate(-26.964 437.937)"/></g></g><g class="x" transform="translate(11.006 14.468)"><g class="q" transform="translate(-10.32 -13.549)"><path class="h" d="M103.321-384.311H93.974v9.684h9.346Z" transform="translate(-84.474 397.04)"/></g></g></g></g></g><g class="y" transform="translate(0 41.454)"><g class="o" transform="translate(-0.686 -1.007)"><g class="z"><g class="aa" transform="translate(0.686 1.007)"><path class="r" d="M30.883-214H-5v35.883H30.883Z" transform="translate(4.181 213.181)"/></g><g class="ab" transform="translate(5.617 22.565)"><g class="aa" transform="translate(-4.931 -21.558)"><path class="d" d="M58.585-82.43H34.028v16.506H58.585Z" transform="translate(-29.916 103.168)"/></g></g><g class="ac" transform="translate(1.768 23.986)"><g class="aa" transform="translate(-1.081 -22.979)"><path class="h" d="M19.246-73.755h-36.87v32.867h36.87Z" transform="translate(17.886 95.914)"/></g></g><g class="ad" transform="translate(9.618 6.729)"><g class="aa" transform="translate(-8.931 -5.721)"><path class="d" d="M48.9-179.082H27.226v22.092H48.9Z" transform="translate(-19.114 183.984)"/></g></g><g class="ae" transform="translate(9.144 5.164)"><g class="aa" transform="translate(-8.458 -4.156)"><path class="h" d="M47.545-188.635h-22.5v25.615h22.5Z" transform="translate(-17.404 191.972)"/></g></g><g class="af" transform="translate(10.887 14.726)"><g class="aa" transform="translate(-10.2 -13.718)"><path class="h" d="M103.44-130.275H93.974v9.228h9.466Z" transform="translate(-84.593 143.174)"/></g></g></g></g></g></g></g></svg>