<svg width="595" height="297" viewBox="0 0 595 297" fill="none" xmlns="http://www.w3.org/2000/svg">
<g clip-path="url(#clip0_5484_43237)">
<rect width="595" height="297" fill="#4786FF"/>
<path d="M355.942 182.644C349.891 182.85 343.814 182.953 337.762 183.262C335.342 183.391 334.235 182.437 333.668 180.171C330.964 169.506 329.033 158.66 328.956 147.686C328.853 135.064 331.608 122.75 334.698 110.539C336.964 101.6 340.106 92.9447 344.148 84.624C345.642 81.5585 347.702 79.1112 350.277 77.0504C365.263 64.9686 382.155 56.854 401.159 53.4278C416.145 50.7229 431.029 51.1609 445.526 56.2357C475.164 66.6173 492.546 88.3336 501.661 117.495C506.013 131.431 506.554 145.754 505.833 160.154C505.549 165.976 504.648 171.773 503.592 177.517C503.206 179.63 502.382 180.196 500.374 180.171C492.958 180.093 485.567 180.145 478.151 180.145C477.096 179.14 477.044 177.723 476.864 176.435C476.194 171.335 475.705 166.234 475.113 161.133C474.881 159.098 475.576 157.759 477.43 156.934C480.314 155.672 482.761 153.843 484.821 151.499C490.125 145.419 488.812 136.3 481.988 131.946C479.98 130.658 477.817 129.654 475.422 129.396C472.667 129.087 471.044 127.876 471.07 124.914C471.07 122.595 469.448 122.467 467.671 122.389C449.801 121.462 432.059 119.478 414.523 115.82C398.79 112.549 383.34 108.375 368.817 101.317C362.328 98.1742 356.199 94.4646 350.534 89.467C350.38 95.3147 351.101 100.879 351.461 106.443C352.157 116.773 352.955 127.103 353.727 137.434C354.474 147.248 355.144 157.063 355.916 166.878C356.225 170.871 356.483 174.864 356.766 178.831C356.843 180.119 356.998 181.536 355.942 182.618V182.644Z" fill="#EBC78B"/>
<path d="M209.759 297.176C208.935 297.227 208.111 297.304 207.313 297.304C173.503 297.304 139.694 297.304 105.91 297.304C105.292 297.304 104.674 297.253 104.056 297.227C102.691 293.105 103.927 288.984 103.953 284.862C103.953 283.883 104.081 282.878 104.107 282.569C103.824 286.433 103.36 290.993 103.489 295.578C103.489 296.197 103.36 296.789 102.923 297.279C90.5884 297.279 78.2541 297.279 65.8941 297.356C63.4479 297.356 63.1646 296.763 64.0659 294.548C78.4601 259.436 104.365 237.694 140.878 228.214C141.857 227.957 142.784 227.544 143.762 227.184C144.406 227.029 144.612 227.467 144.818 227.931C144.869 228.137 144.947 228.317 144.972 228.523C145.359 234.5 146.414 235.711 152.466 236.87C156.457 237.643 160.397 237.565 164.311 236.071C166.937 235.067 168.482 233.598 168.173 230.61C168.07 229.502 168.096 228.343 168.379 227.235C168.791 226.179 169.435 225.535 170.671 225.896C170.903 226.746 171.546 226.875 172.319 227.003C192.069 229.863 209.914 237.153 225.081 250.291C237.801 261.317 247.895 274.197 251.938 290.993C253.457 297.33 253.431 297.356 247.02 297.33C235.2 297.33 223.355 297.279 211.536 297.253C211.253 296.944 210.97 296.609 210.918 296.197C210.326 290.117 211.021 284.038 210.429 278.602C210.867 277.572 211.382 278.138 211.021 277.932C210.841 277.829 210.789 277.855 210.738 277.932C210.043 278.834 210.403 279.839 210.48 280.792C210.841 285.506 210.609 290.22 210.609 294.934C210.609 295.759 210.455 296.583 209.837 297.201L209.759 297.176Z" fill="#C8A0CB"/>
<path d="M355.941 182.643C355.504 171.206 354.551 159.794 353.572 148.382C353.032 142.07 352.697 135.733 352.233 129.422C351.461 118.834 350.611 108.221 349.864 97.6331C349.633 94.2842 349.864 90.9096 348.809 86.7878C351.95 89.2866 354.139 91.5278 356.74 93.3053C368.713 101.575 382.155 106.469 396.008 110.462C408.214 113.965 420.651 116.438 433.217 118.267C442.204 119.581 451.242 120.663 460.358 121.024C463.525 121.153 466.666 121.668 469.859 121.591C471.482 121.539 472.151 122.492 471.971 123.935C471.533 127.181 472.846 128.16 476.091 128.701C482.245 129.705 486.854 133.157 488.58 139.52C490.202 145.393 487.601 151.525 482.013 155.44C481.601 155.724 481.086 155.93 480.752 156.316C479.361 157.862 475.885 157.063 475.911 159.819C475.911 161.906 476.245 164.07 476.503 166.208C477.069 170.871 477.636 175.534 478.177 180.17C478.434 182.283 478.666 184.421 478.949 186.533C479.284 188.903 478.537 190.217 476.142 191.454C472.821 193.205 469.499 193.025 466.074 193.128C457.68 193.386 449.337 192.716 440.968 192.561C439.037 192.536 437.131 192.664 435.432 193.798C423.432 193.102 411.407 193.643 399.382 193.463C396.807 193.437 394.257 193.463 391.811 194.39C391.863 192.355 390.421 192.536 389.056 192.536C380.249 192.536 371.443 192.536 362.611 192.484C357.77 192.484 356.534 191.299 356.534 186.585C356.534 185.22 356.225 183.957 355.916 182.669L355.941 182.643Z" fill="#F9D9C6"/>
<path d="M143.634 222.624C143.72 218.983 141.986 216.484 138.432 215.128C129.471 211.727 121.849 206.369 115.437 199.259C114.613 198.357 113.661 197.585 112.759 196.76C112.347 195.936 111.498 195.601 110.88 195.009C105.524 188.156 101.713 180.479 99.1377 172.185C98.9059 171.412 98.5969 170.613 98.9574 169.789C102.665 168.784 102.562 168.836 100.09 165.229C98.4424 162.833 95.8932 161.03 95.2237 158.016C95.6614 156.445 96.1507 154.873 95.9704 153.199C95.8932 152.4 95.9704 151.421 94.9662 151.164C93.8847 150.906 93.3182 151.731 92.7774 152.529C91.4127 154.616 93.3182 155.93 93.9877 157.527C93.9362 159.124 93.4212 160.36 91.6187 160.592C88.2712 158.557 87.0352 155.492 87.3184 151.731C87.5759 148.15 89.9192 146.243 93.0349 145.239C94.8374 144.646 95.3267 143.436 95.4812 141.813C96.4339 132.693 98.4424 123.832 102.15 115.382C104.056 111.029 106.502 107.036 109.257 103.172C109.953 102.193 110.596 100.75 112.322 101.368C112.914 102.759 112.193 103.97 111.807 105.232C109.747 112.059 108.253 118.937 108.665 126.15C108.897 130.014 109.566 130.607 113.403 129.808C115.412 129.396 117.446 129.061 119.48 128.726C128.493 127.181 137.582 126.073 146.724 125.712C150.02 125.583 153.264 125.094 156.56 124.991C170.697 124.604 184.679 126.176 198.61 128.417C200.232 128.675 201.88 128.803 203.528 128.829C206.824 128.907 208.498 127.387 208.755 124.115C209.116 119.736 208.446 115.511 207.056 111.363C206.798 110.591 206.464 109.818 206.283 109.019C206.103 108.195 205.923 107.216 206.85 106.855C207.519 106.598 208.163 107.293 208.627 107.86C210.12 109.715 211.124 111.879 212.077 114.043C223.69 140.628 222.223 166.363 206.876 191.144C206.103 192.381 205.228 193.489 204.017 194.339C199.949 198.667 196.138 203.226 191.323 206.755C184.422 211.83 176.954 215.772 168.379 217.163C167.401 218.219 166.088 218.528 164.723 218.528C159.238 218.58 153.702 219.121 147.908 217.317C150.509 219.533 153.11 220.924 155.71 222.315C156.586 222.779 157.951 223.242 157.642 224.376C157.358 225.458 155.968 225.303 154.938 225.355C154.011 225.406 153.084 225.355 152.157 225.406C150.097 225.458 148.088 225.097 146.106 224.582C144.998 224.298 143.943 223.886 143.582 222.624H143.634Z" fill="#EBCBB2"/>
<path d="M204.043 194.313C207.133 188.852 210.635 183.648 213.004 177.749C216.892 168.089 218.901 158.042 218.798 147.738C218.643 133.75 215.399 120.431 208.034 108.298C207.828 107.963 207.622 107.602 207.39 107.268C207.287 107.113 207.056 107.036 206.592 106.727C207.545 110.23 208.472 113.45 209.322 116.696C209.991 119.298 210.017 121.977 209.682 124.63C209.244 128.443 206.978 130.143 203.142 129.757C193.46 128.804 183.881 126.897 174.121 126.279C163.332 125.609 152.569 125.97 141.831 126.872C134.389 127.49 126.973 128.572 119.531 129.473C117.446 127.516 117.574 124.836 117.446 122.338C117.137 115.743 118.167 109.277 119.634 102.888C121.488 94.7994 123.883 86.8651 127.54 79.3688C128.08 78.261 128.492 77.0761 129.677 76.4836C133.565 74.1909 137.994 73.6756 142.269 73.0316C160.268 70.3525 177.572 72.5164 193.588 81.6099C208.446 90.0337 218.36 102.863 225.235 118.164C235.535 141.04 238.033 164.688 231.261 189.058C229.999 193.566 229.767 193.772 225.209 193.746C218.128 193.695 211.073 193.746 204.017 194.365L204.043 194.313Z" fill="#010101"/>
<path d="M389.803 297.304H311.807C314.845 289.808 317.755 282.647 320.665 275.459C327.488 258.586 334.312 241.713 341.136 224.814C343.247 219.61 345.771 217.884 351.41 217.936C364.671 218.064 377.907 218.219 391.168 218.374C393.074 219.146 392.662 220.821 392.456 222.212C392.095 224.814 392.044 227.441 391.992 230.043C391.992 230.43 391.992 230.816 391.992 231.202C392.095 240.013 391.297 248.797 391.426 257.607C391.58 269.586 391.812 281.59 390.859 293.543C390.756 294.857 390.859 296.223 389.803 297.279V297.304Z" fill="#161C24"/>
<path d="M489.661 224.582C500.193 248.746 510.724 272.909 521.308 297.227H451.68C451.19 295.888 452.04 294.832 452.581 293.775C464.091 271.389 475.885 249.158 487.369 226.772C487.858 225.793 488.245 224.608 489.661 224.582V224.582Z" fill="#161C24"/>
<path d="M99.1875 169.789C101.66 178.986 105.805 187.384 111.676 194.906C110.852 196.864 108.921 195.266 107.762 196.091C100.063 196.323 92.3638 196.4 84.6903 196.889C82.038 197.044 81.1883 195.91 80.3385 193.824C74.7508 179.861 72.9998 165.41 74.4675 150.494C76.167 132.977 81.626 116.825 91.8488 102.399C99.7798 91.1931 109.822 82.589 123.058 78.1581C123.779 77.9263 124.397 77.7975 125.092 77.8748C125.968 79.7295 124.68 80.9918 123.727 82.2026C119.942 87.0456 116.826 92.275 114.483 97.9681C113.994 99.1789 113.479 100.441 112.063 100.931C104.672 109.612 100.398 119.813 98.003 130.813C97.1018 134.961 96.6898 139.237 96.149 143.462C96.0203 144.544 96.0975 145.471 94.604 145.574C87.806 146.063 85.8233 154.049 90.6128 158.918C91.0505 159.356 91.4625 159.794 91.9003 160.232C92.3638 162.473 90.5613 163.735 89.6343 165.332C88.5528 167.161 89.0678 167.908 91.0248 168.14C93.8058 168.475 96.7155 168.14 99.239 169.763L99.1875 169.789Z" fill="#010101"/>
<path d="M389.803 297.305C390.549 281.745 390.575 266.186 390.627 250.626C390.627 243.98 390.73 237.334 391.271 230.687C392.223 230.352 393.099 230.739 393.948 231.048C403.167 234.268 412.566 234.371 422.145 233.263C427.321 232.645 432.419 231.615 437.518 230.662C439.243 234.32 437.389 237.797 437.054 241.378C436.539 244.933 434.453 247.818 432.779 250.832C424.642 265.516 416.789 280.354 408.6 295.012C408.085 295.913 407.596 296.789 406.643 297.305C401.03 297.305 395.416 297.305 389.803 297.305V297.305Z" fill="#F0F0F4"/>
<path d="M406.643 297.279C413.647 284.347 420.702 271.441 427.655 258.457C430.59 252.97 434.041 247.741 436.333 241.893C439.886 233.985 444.315 226.566 448.564 219.018C448.796 218.812 449.027 218.631 449.259 218.477C450.65 215.695 452.967 215.617 455.619 216.158C458.941 216.854 462.34 216.39 465.688 216.57C466.743 217.575 465.894 218.477 465.456 219.301C459.327 230.533 453.225 241.79 447.045 253.022C440.247 265.413 433.655 277.907 426.676 290.22C425.286 292.668 424.385 295.501 421.964 297.305C416.84 297.305 411.741 297.305 406.617 297.305L406.643 297.279Z" fill="#2F3D91"/>
<path d="M421.99 297.304C436.307 271.157 450.599 245.01 464.916 218.837C465.302 218.142 465.894 217.498 465.714 216.57C467.568 217.42 469.525 217.111 471.456 217.111C474.211 217.111 476.966 217.034 479.644 217.858C480.262 218.94 479.645 219.816 479.181 220.718C467.568 242.563 455.98 264.408 444.212 286.176C442.693 288.984 441.483 291.92 439.758 294.625C439.166 295.578 438.676 296.609 437.621 297.201C432.419 297.201 427.192 297.253 421.99 297.279V297.304Z" fill="#FAF8EE"/>
<path d="M391.271 230.095C390.936 227.261 391.425 224.453 391.58 221.62C391.631 220.538 391.889 219.378 391.194 218.374C392.249 213.35 391.4 208.25 391.734 203.201C391.915 200.264 391.812 197.301 391.837 194.365C392.43 193.077 393.202 192.433 394.824 192.433C407.262 192.536 419.699 192.51 432.136 192.433C433.501 192.433 434.505 192.871 435.432 193.746C435.638 196.606 436.462 199.388 436.076 202.299C434.376 206.524 430.72 209.023 427.424 211.727C417.639 219.739 406.747 225.87 394.747 229.966C393.614 230.352 392.43 231.048 391.245 230.069L391.271 230.095Z" fill="#E0B49A"/>
<path d="M437.621 297.227C451.063 271.982 464.53 246.762 477.971 221.516C478.589 220.357 479.079 219.121 479.619 217.91C481.963 217.91 484.306 217.807 486.675 217.884C490.64 218.013 491.31 218.992 490.228 222.856C490.074 223.449 489.868 224.015 489.662 224.608C487.087 229.373 484.486 234.139 481.988 238.931C471.869 258.354 461.775 277.804 451.681 297.253C446.994 297.253 442.308 297.253 437.621 297.253V297.227Z" fill="#D14131"/>
<path d="M391.271 230.095C399.692 228.188 407.159 224.118 414.549 219.893C420.523 216.467 425.931 212.217 431.081 207.683C432.909 206.06 434.428 204.102 436.102 202.299C436.334 206.884 436.669 211.47 436.797 216.055C436.849 217.781 437.39 218.374 439.115 218.348C442.488 218.296 445.861 218.425 449.26 218.502C449.209 218.708 449.106 218.863 448.977 219.018C446.557 220.615 443.853 219.868 441.252 219.893C438.909 219.893 438.085 220.615 438.214 223.088C438.342 225.638 439.089 228.343 437.364 230.739C433.888 233.315 429.639 233.083 425.699 233.778C421.914 234.448 418.026 234.989 414.189 234.938C406.335 234.86 398.481 234.5 391.271 230.739C391.271 230.533 391.271 230.352 391.271 230.146V230.095Z" fill="#F9D9C7"/>
<path d="M112.038 100.956C115.565 93.7947 118.887 86.5302 124.063 80.3476C124.604 79.7036 124.732 78.6989 125.067 77.8746C126.509 77.1018 128.003 76.432 129.676 76.4835C125.35 86.0407 121.694 95.804 119.866 106.16C118.501 113.914 117.291 121.668 119.531 129.473C117.033 129.963 114.51 130.426 112.012 130.942C109.179 131.534 107.969 130.555 107.737 127.644C107.119 119.452 108.767 111.621 111.342 103.893C111.651 102.94 112.295 102.038 112.012 100.956H112.038Z" fill="#8B4B97"/>
<path d="M152.131 224.685C153.779 224.608 155.402 224.505 157.899 224.376C153.522 221.954 149.376 220.332 145.797 216.287C153.831 217.987 161.118 218.348 168.405 217.163C169.152 218.786 168.817 220.512 168.946 222.186C168.946 223.191 168.199 223.603 167.453 223.912C163.152 225.741 158.672 226.385 154.011 225.947C153.213 225.87 152.363 225.69 152.131 224.685V224.685Z" fill="#CEA086"/>
<path d="M152.131 224.685C158.002 225.664 163.641 225.149 168.92 222.186C171.804 222.367 172.216 223.655 170.619 225.896C170.027 226.205 169.409 226.54 168.817 226.849C167.246 228.833 164.877 228.936 162.714 229.348C157.281 230.352 151.873 229.631 146.491 228.755C145.59 228.601 144.689 228.317 144.251 227.338L144.045 227.132L143.762 227.158C142.397 226.54 140.852 226.05 141.135 224.093C141.341 222.65 142.526 222.624 143.659 222.598C146.26 224.196 149.195 224.453 152.156 224.659L152.131 224.685Z" fill="#040303"/>
<path d="M209.758 297.176V276.851C210.041 276.851 210.35 276.851 210.634 276.851C211.947 283.6 211.432 290.426 211.432 297.253C210.865 297.253 210.299 297.202 209.732 297.202L209.758 297.176Z" fill="#8A4D98"/>
<path d="M102.897 297.279C102.639 290.787 102.948 284.347 104.133 277.933C105.472 284.373 103.824 290.813 104.056 297.253C103.669 297.253 103.283 297.253 102.923 297.279H102.897Z" fill="#894C97"/>
<path d="M107.764 196.091C108.845 194.983 110.725 196.477 111.678 194.906C112.45 195.266 112.733 195.91 112.733 196.735C111.163 195.91 109.386 196.451 107.764 196.091Z" fill="#A0918A"/>
<path d="M144.225 227.364C152.465 229.219 160.679 229.863 168.816 226.849C168.842 227.158 168.893 227.467 168.893 227.776C169.125 235.35 166.473 238.003 158.696 238.132C155.4 238.184 152.156 238.029 149.066 236.844C144.791 235.221 144.019 234.062 144.148 229.502C144.148 228.781 144.199 228.06 144.225 227.364V227.364Z" fill="#CEA086"/>
<path d="M391.658 157.295C383.366 160.206 375.41 159.15 367.916 154.925C364.311 152.89 363.539 147.171 365.882 143.204C369.024 137.871 380.096 132.487 386.276 133.338C386.637 133.389 386.971 133.724 387.332 133.904C388.568 134.703 388.774 136.068 389.16 137.33C390.834 143.024 391.838 148.846 392.302 154.745C392.379 155.672 392.456 156.6 391.658 157.295Z" fill="#0E5392"/>
<path d="M391.656 157.295C391.27 149.309 389.545 141.555 387.33 133.904C393.665 131.637 404.66 135.218 408.136 140.19C408.857 141.22 409.295 142.277 408.497 143.59C404.505 150.159 399.407 155.337 391.656 157.295Z" fill="#F8F3F0"/>
<path d="M452.943 157.243C452.891 166.826 445.346 174.529 434.918 175.637C426.369 176.538 417.099 169.737 415.245 161.133C414.91 159.536 414.652 157.887 414.575 156.264C414.498 154.487 415.064 152.787 417.15 152.735C419.339 152.684 419.571 154.384 419.622 156.187C419.957 164.869 426.446 170.897 434.866 170.407C441.741 170.021 447.432 164.379 447.896 157.501C447.947 156.883 447.896 156.264 447.947 155.646C448.05 154.023 448.771 152.761 450.522 152.761C452.35 152.761 452.917 154.049 452.891 155.698C452.891 156.213 452.891 156.728 452.891 157.243H452.943Z" fill="#DF3B39"/>
<path d="M388.542 119.633C393.821 119.401 399.615 120.431 405.151 122.827C406.129 123.239 407.7 123.523 407.134 125.017C406.464 126.794 405.228 125.377 404.353 125.017C392.868 120.457 381.487 120.302 370.26 125.841C368.998 126.459 367.891 127.438 366.68 128.185C366.037 128.597 365.29 129.37 364.543 128.417C363.642 127.309 364.646 126.717 365.341 126.202C369.384 123.085 374.019 121.333 378.989 120.277C381.924 119.658 384.886 119.684 388.594 119.633H388.542Z" fill="#D7AC61"/>
<path d="M473.852 140.988C473.8 136.583 474.47 136.248 477.869 138.052C480.727 139.572 481.577 141.967 481.216 144.981C480.933 147.248 478.049 150.185 475.783 150.752C474.393 151.112 474.418 150.288 474.444 149.464C474.547 146.398 474.315 143.333 473.826 140.988H473.852Z" fill="#E0B49A"/>
<path d="M171.469 152.4C171.906 150.546 173.245 149.953 174.971 149.721C181.923 148.768 188.515 149.361 193.768 154.667C196.498 157.424 196.318 160.283 193.485 162.962C189.03 167.136 183.7 169.609 177.752 170.768C176.825 170.948 175.923 171.025 175.125 170.381C174.044 169.969 173.709 168.99 173.374 168.037C171.906 163.89 171.108 159.588 170.671 155.234C170.568 154.229 170.593 153.173 171.495 152.452L171.469 152.4Z" fill="#020202"/>
<path d="M171.469 152.4C171.341 158.66 172.989 164.559 175.1 170.356C170.362 172.391 161.118 169.068 158.775 164.328C157.719 162.189 157.873 160.412 159.264 158.686C161.968 155.337 165.573 153.225 169.461 151.525C170.491 151.061 171.238 151.087 171.469 152.4V152.4Z" fill="#F7F3F1"/>
<path d="M150.148 198.1C138.097 198.254 130.012 186.482 134.466 175.302C134.724 174.632 135.059 173.988 135.419 173.37C136.089 172.288 137.067 171.721 138.277 172.313C139.565 172.932 139.513 174.117 138.973 175.224C137.376 178.496 136.861 181.845 138.071 185.348C139.745 190.217 143.196 193.283 148.217 194.133C153.161 194.983 157.281 193.128 160.474 189.29C160.86 188.826 161.143 188.259 161.555 187.796C162.405 186.791 163.487 186.508 164.542 187.332C165.521 188.079 165.366 189.135 164.774 190.114C161.993 194.674 158.002 197.456 152.646 198.1C151.848 198.203 150.998 198.1 150.174 198.1H150.148Z" fill="#AC3375"/>
<path d="M99.1876 169.789C96.1491 169.531 93.0849 169.351 90.0464 168.965C87.1881 168.604 87.0078 168.063 88.5528 165.667C89.6858 163.89 90.7673 162.061 91.8746 160.232C92.5441 159.304 93.4711 158.557 93.7286 157.372C94.6041 156.728 95.0934 157.14 95.4796 157.965C97.4881 160.644 99.4708 163.323 101.479 166.002C102.355 167.187 104.157 168.398 103.205 169.841C102.355 171.129 100.578 169.737 99.2133 169.789H99.1876Z" fill="#F9AE00"/>
<path d="M180.893 137.537C173.838 137.485 168.353 140.061 163.074 143.255C162.07 143.874 160.963 145.213 159.933 143.771C158.851 142.251 160.345 141.426 161.478 140.705C169.048 135.965 177.031 133.028 186.121 135.141C188.953 135.811 191.399 137.279 193.408 139.417C194.18 140.241 194.773 141.169 193.923 142.096C193.047 143.049 192.069 142.56 191.296 141.71C188.309 138.438 184.498 137.356 180.919 137.511L180.893 137.537Z" fill="#040303"/>
<path d="M95.48 157.965C94.8878 157.759 94.3213 157.578 93.729 157.372C90.948 155.131 90.8193 152.194 93.4458 150.443C95.068 149.361 96.613 149.953 96.6388 151.885C96.6903 153.946 97.3855 156.213 95.48 157.939V157.965Z" fill="#CFA086"/>
<path d="M437.39 230.687C437.956 227.544 437.57 224.376 437.132 221.285C436.797 218.992 437.596 218.709 439.501 218.786C442.668 218.94 445.81 218.94 448.977 218.992C445.115 226.823 441.098 234.577 436.334 241.919C436.694 238.184 437.621 234.5 437.39 230.713V230.687Z" fill="#171D26"/>
<path d="M389.03 154.281C389.185 155.08 388.876 155.749 388.078 155.904C387.382 156.033 386.945 155.466 386.842 154.822C386.404 152.091 385.992 149.387 385.631 146.656C385.528 145.883 385.812 145.162 386.687 145.059C387.563 144.956 387.923 145.6 388.026 146.398C388.361 149.026 388.696 151.653 389.03 154.307V154.281Z" fill="#E8F0F8"/>
<path d="M384.165 139.597C384.036 138.85 384.19 138.077 385.092 138.129C387.049 138.232 386.74 140.138 387.28 141.297C387.667 142.096 387.023 143.152 386.173 142.972C384.525 142.637 384.499 140.963 384.165 139.597V139.597Z" fill="#E3ECF5"/>
<path d="M175.615 158.428C176.645 161.649 177.417 163.967 178.138 166.285C178.293 166.801 178.087 167.264 177.572 167.548C177.005 167.857 176.799 167.367 176.722 167.058C176.001 164.534 174.482 162.164 175.641 158.428H175.615Z" fill="#E5E3E1"/>
<path d="M175.486 157.578C174.096 156.007 174.327 154.848 175.126 152.993C176.001 154.693 176.027 155.878 175.486 157.578Z" fill="#EFEEEC"/>
<path d="M173.014 155.414C172.55 154.77 172.473 154.152 172.911 153.534C173.503 154.152 173.117 154.796 173.014 155.414Z" fill="#1B1B1B"/>
</g>
<defs>
<clipPath id="clip0_5484_43237">
<rect width="595" height="297" fill="white"/>
</clipPath>
</defs>
</svg>
