<svg width="595" height="287" viewBox="0 0 595 287" fill="none" xmlns="http://www.w3.org/2000/svg">
<g clip-path="url(#clip0_5118_42583)">
<path d="M310.913 286.95H263.387C262.296 284.072 263.66 281.318 263.933 278.565C265.891 259.337 260.015 242.789 247.273 228.498C246.107 227.183 244.62 226.117 243.826 224.479C243.281 222.594 243.603 220.658 243.529 218.748C243.529 217.954 243.529 217.185 243.331 216.416C242.884 214.456 242.364 212.546 240.009 212.025C237.629 211.504 236.364 212.943 235.348 214.779C234.926 215.424 234.43 215.969 233.612 216.093C233.116 216.093 232.621 216.044 232.199 215.796C225.233 211.603 217.671 208.849 209.936 206.467C207.903 204.631 208.077 202.498 209.044 200.24C210.358 199.049 211.994 199.57 213.481 199.421C215.465 199.223 217.547 199.942 219.456 198.851C219.729 198.503 219.878 198.057 220.101 197.685C226.547 185.081 232.695 172.354 239.091 159.726C241.694 154.615 244.223 149.454 246.801 144.343C252.206 133.675 256.916 122.66 262.098 111.892C262.346 111.396 262.594 110.9 262.817 110.404C263.61 108.303 262.883 107.278 260.635 107.327C259.941 107.327 259.272 107.377 258.578 107.476C243.331 107.799 228.109 107.302 212.886 107.352C194.565 107.352 176.244 107.352 157.948 107.352C156.56 107.352 155.171 107.278 153.858 107.848C151.973 108.593 149.99 108.617 148.007 108.617C136.231 108.617 124.455 108.617 112.679 108.617C109.356 108.617 109.257 108.816 110.844 111.619C115.852 120.501 120.909 129.334 125.843 138.24C126.711 140.374 125.421 141.515 123.86 142.532C120.513 144.691 119 148.189 117.414 151.588C116.125 153.201 116.62 155.185 118.728 156.972C121.331 159.602 123.81 162.405 127.752 163.025C128.347 163.273 128.843 163.819 129.562 163.794C130.9 163.794 132.264 164.018 133.553 163.472C134.074 163.273 134.619 163.075 135.14 162.876C139.23 161.909 139.478 161.934 141.486 165.605C145.552 173.073 149.94 180.343 154.031 187.81C154.453 188.827 154.849 189.845 155.568 190.688C157.254 193.343 158.37 196.32 160.452 198.727C160.675 198.925 160.923 199.074 161.196 199.223C163.65 199.645 166.105 199.322 168.534 199.421C169.699 199.471 170.914 199.272 171.931 200.066C172.823 201.108 172.625 202.349 172.65 203.565C172.65 204.607 172.426 205.574 171.633 206.343C167.691 208.353 163.378 209.345 159.312 211.082C156.163 212.422 153.486 214.754 150.064 215.498C148.031 215.002 148.23 212.471 146.569 211.628C145.478 210.983 144.338 211.107 143.197 211.38C142.751 211.553 142.329 211.777 141.982 212.124C141.462 212.645 141.115 213.265 140.891 213.96C140.817 214.208 140.743 214.456 140.644 214.704C140.445 216.515 140.371 218.302 140.941 220.063C141.09 220.832 141.115 221.576 140.916 222.346C139.206 225.273 136.379 227.183 134.223 229.764C124.628 241.325 119.298 254.499 118.678 269.484C118.455 274.694 119.124 279.904 120.538 284.966C120.711 285.611 121.058 286.256 120.711 286.95H0.744206C0.198789 285.933 0.471497 284.817 0.471497 283.75C0.471497 190.539 0.471497 97.3289 0.471497 4.11838C0.446706 0.0495657 0.000455696 0.446523 4.11587 0.446523C199.995 0.446523 395.849 0.446523 591.728 0.446523C592.794 0.446523 593.91 0.173615 594.951 0.719431C594.951 95.22 594.951 189.745 595 284.246C595 286.479 594.505 286.975 592.273 286.975C556.722 286.901 521.171 286.926 485.62 286.926C484.306 285.536 485.074 283.576 484.33 282.013C484.107 279.607 484.107 277.175 484.33 274.769C484.975 272.213 485.124 269.633 484.33 267.078C484.058 266.631 483.859 266.16 483.735 265.639C482.992 260.503 483.934 255.318 483.116 250.182C482.992 247.726 482.917 245.27 483.116 242.789C483.735 240.556 483.884 238.298 483.19 236.041C483.066 235.718 482.967 235.42 482.868 235.098C482.074 232.269 482.273 229.392 482.372 226.538C482.397 225.422 482.421 224.306 482.347 223.164C482.025 221.378 480.488 221.328 479.199 221.105C476.224 220.584 473.224 220.336 470.224 219.889C469.034 219.468 467.77 219.492 466.53 219.468C464.522 219.046 462.439 218.971 460.431 218.5C459.216 218.177 457.952 218.426 456.737 218.128C455.597 217.756 454.382 217.781 453.217 217.458C451.804 217.036 451.159 215.969 450.812 214.63C450.688 214.382 450.564 214.133 450.465 213.885C449.994 212.943 449.498 212.025 448.556 211.454C448.11 211.181 447.614 210.983 447.118 210.809C444.614 210.139 442.78 211.206 441.267 213.091C440.598 213.935 440.052 214.878 438.912 215.176C437.4 215.399 435.887 215.647 434.549 214.58C434.177 214.481 434.97 213.563 434.028 213.861C432.739 214.282 431.4 214.034 430.061 214.208C428.252 214.208 426.392 214.357 424.756 213.34C424.186 212.918 423.591 212.521 423.293 211.826C422.599 209.519 423.145 207.137 422.897 204.805C422.674 199.992 423.368 199.223 428.152 199.223C441.317 199.173 454.481 199.198 467.646 199.223C470.298 199.223 472.753 198.826 474.86 197.114C475.876 196.717 476.447 195.452 477.959 195.576C476.769 193.045 475.976 190.341 475.306 187.612C475.034 183.32 474.835 179.028 475.43 174.736C475.852 173.52 476.992 173.048 477.909 172.329C484.479 167.144 490.231 161.338 492.561 152.928C493.206 150.596 493.503 148.313 492.264 146.08C491.941 145.237 492.016 144.244 491.297 143.574C490.677 142.78 489.983 142.061 489.214 141.416C489.016 141.267 488.818 141.093 488.644 140.92C487.776 140.175 486.71 139.654 486.016 138.687C483.81 137.769 481.678 137.694 479.595 139.034C478.009 139.729 476.471 141.044 474.637 139.63C474.439 139.332 474.29 139.034 474.191 138.687C473.67 135.536 473.992 132.385 473.943 129.234C473.868 125.587 474.067 121.915 473.844 118.268C473.62 114.621 471.984 112.86 468.489 112.885C461.968 112.885 455.473 112.314 448.953 112.116C437.598 111.768 426.268 110.825 414.914 110.825C408.319 109.337 401.625 109.982 394.956 109.783C393.89 109.585 392.8 109.684 391.734 109.51C389.155 108.642 386.403 109.386 383.8 108.841C382.065 108.245 380.28 108.394 378.52 108.493C367.686 109.138 356.926 107.079 346.092 107.327C338.58 108.146 331.267 105.764 323.78 106.136C320.061 106.608 318.871 107.873 318.499 111.818C318.053 116.507 319.144 121.171 319.069 125.86C319.168 127.349 319.168 128.837 319.094 130.326C318.325 151.588 321.077 172.776 320.309 194.013C320.284 194.906 320.358 195.799 320.581 196.667C321.003 197.61 321.003 198.702 321.672 199.545C321.871 199.719 322.069 199.917 322.267 200.116C323.135 200.885 324.176 200.488 325.143 200.488C336.002 200.414 346.836 200.438 357.67 199.843C361.116 199.669 364.512 198.975 367.983 199.248C369.446 199.372 370.983 199.198 371.975 200.662C372.991 203.961 372.545 207.311 372.346 210.66C372.297 211.677 371.702 212.521 370.809 213.067C369.198 213.96 367.289 213.315 365.653 214.009C362.405 214.233 359.207 214.704 356.009 215.25C353.728 215.647 351.893 215.051 351.075 212.645C350.629 211.777 350.084 210.983 349.166 210.536C348.918 210.437 348.695 210.313 348.472 210.189C347.257 209.544 346.042 209.544 344.828 210.114C344.605 210.238 344.381 210.362 344.158 210.486C343.142 210.983 342.795 211.95 342.448 212.943C341.902 214.431 342.026 216.218 340.564 217.309C338.977 217.929 337.365 218.45 335.655 217.929C335.159 216.714 334.985 216.639 333.696 217.26C332.457 217.855 330.969 217.483 329.829 218.376C329.581 218.5 329.333 218.599 329.06 218.674C327.597 219.269 325.862 218.252 324.474 219.418C324.399 219.492 324.325 219.592 324.251 219.592C320.086 219.716 317.557 221.75 316.813 225.893C316.144 227.928 316.615 229.987 316.615 232.021C316.615 234.205 316.739 236.388 316.516 238.546C316.466 239.39 316.317 240.209 316.094 241.027C315.747 242.838 316.094 244.674 315.772 246.485C315.078 248.421 315.97 250.654 314.607 252.44C314.458 252.812 313.764 252.192 313.863 252.663C314.26 254.524 314.036 256.459 314.384 258.32C314.235 263.356 313.516 268.343 313.02 273.33C312.946 274.124 312.822 274.893 312.227 275.488C311.21 277.746 312.028 280.128 311.805 282.435C311.929 284.023 312.053 285.586 310.913 286.901V286.95Z" fill="#A3C56B"/>
<path d="M447.589 286.95H341.828C340.34 283.626 340.861 280.177 341.134 276.754C341.555 275.736 341.704 274.794 341.357 273.652C340.712 271.668 340.712 269.509 341.233 267.499C342.225 263.778 341.01 260.404 340.043 256.955C339.423 253.755 339.473 250.554 339.944 247.354C340.365 245.766 341.902 246.138 343.142 245.865C342.398 244.823 341.332 245.022 340.638 244.476C340.39 244.277 340.216 244.029 340.092 243.756C339.745 242.665 339.745 241.598 340.365 240.606C344.357 238.596 345.894 239.39 345.993 243.459C346.142 242.268 345.695 240.903 346.216 239.613C346.489 239.241 346.861 239.092 347.307 239.117C348.77 239.663 350.629 239.365 351.621 241.003C351.745 241.226 351.868 241.474 351.943 241.722C352.116 242.541 352.662 242.59 353.331 242.367C354.447 242.169 355.513 242.268 356.529 242.739C358.463 243.856 360.57 243.31 362.603 243.359C365.653 243.434 368.702 243.434 371.751 243.335C379.139 243.012 386.602 243.831 393.915 243.037C401.923 242.169 410.005 242.566 417.963 241.102C422.128 240.333 426.417 240.754 430.656 240.953C432.268 241.052 433.879 241.003 435.491 241.003C437.003 241.003 438.54 241.003 440.052 241.003C440.523 241.003 440.97 241.003 441.441 241.077C444.614 241.548 446.151 244.005 447.787 246.51C448.258 245.543 447.961 244.352 449.101 243.93C449.622 243.881 450.068 244.029 450.391 244.476C451.209 246.386 450.663 248.396 450.886 250.331C450.961 255.318 451.407 260.329 450.589 265.316C448.829 268.393 449.944 271.742 449.647 274.967C449.672 275.836 449.647 276.679 449.275 277.498C447.663 280.078 448.829 282.981 448.333 285.71C448.234 286.231 447.911 286.628 447.589 287V286.95Z" fill="#1F4C77"/>
<path d="M234.752 214.406C235.124 211.851 236.984 211.082 239.165 210.983C241.322 210.908 242.958 212 243.628 214.084C244.024 215.349 244.694 216.615 244.297 218.029C244.148 218.202 243.975 218.376 243.801 218.55C243.603 218.699 243.405 218.823 243.206 218.947C242.71 219.443 242.81 220.063 242.81 220.659C242.686 221.725 243.578 222.42 243.727 223.388C243.95 225.348 244 227.357 244.595 229.268C245.066 237.653 244.793 246.039 244.768 254.425C244.768 255.492 244.644 256.608 243.578 257.303C242.091 256.806 242.636 255.516 242.611 254.524C242.537 250.405 242.587 246.262 242.587 242.144C242.587 246.287 242.587 250.455 242.587 254.598C242.587 255.665 242.785 256.806 241.818 257.625C240.793 258.684 240.264 260.462 240.231 262.959C240.306 262.116 240.033 261.173 240.925 260.528C242.363 260.28 243.082 261.198 243.752 262.215C244.942 266.309 243.801 270.377 243.504 274.446C243.305 277.175 242.983 279.904 243.008 282.633C243.008 284.221 242.834 285.784 241.421 286.851H146.32C144.759 284.42 144.684 281.74 145.007 278.986C145.924 276.729 146.692 274.421 146.271 272.213C145.998 272.982 146.99 274.446 145.329 275.066C143.593 272.461 143.42 269.658 144.213 266.73C144.833 266.011 145.651 265.862 146.544 265.912C147.015 265.961 147.461 266.085 147.808 266.408C148.304 266.854 148.75 267.946 149.419 266.532C151.155 265.068 150.907 263.009 151.08 261.545C151.006 263.083 150.386 264.919 149.345 266.606C149.023 266.954 148.651 267.028 148.229 266.805C146.891 265.788 147.585 263.952 146.593 262.81C145.676 262.413 144.436 263.331 143.717 262.116C143.296 261.545 143.098 260.875 143.048 260.181C142.428 252.093 140.817 244.104 141.213 235.941C141.313 235.371 141.337 234.775 141.536 234.23C141.759 233.659 142.131 233.163 142.8 233.212C143.469 233.262 143.767 233.808 143.965 234.403C144.312 235.42 144.015 236.586 144.659 237.504C144.833 237.752 144.957 238.025 145.056 238.298C145.725 241.027 147.015 243.682 146.42 246.634C146.197 247.676 146.692 248.024 147.684 248.024C148.651 248.024 149.643 247.9 150.758 248.272C150.114 247.379 149.568 246.585 150.163 245.642C150.709 244.749 151.477 244.947 152.221 245.295C153.262 245.791 154.353 245.568 155.419 245.592C156.907 245.667 158.27 245.989 159.237 247.23C159.708 248.222 160.427 249.041 161.146 249.835C162.534 251.348 163.997 251.82 166.253 251.77C170.889 251.671 175.376 250.48 179.988 250.405C180.459 250.48 180.905 250.629 181.302 250.902C181.673 251.224 181.872 251.621 182.02 252.068C182.144 252.49 182.194 252.936 182.417 253.308C183.087 254.102 184.029 253.904 184.896 253.928C187.227 254.003 189.532 254.276 191.838 254.574C194.416 254.896 197.168 254.053 199.796 253.457C200.813 252.638 202.796 253.234 203.019 251.249C202.92 250.604 202.25 250.033 202.746 249.314C204.754 247.85 206.986 247.776 209.316 248.222C211.275 249.909 212.316 247.949 213.655 247.131C215.613 246.535 217.473 245.592 219.605 245.816C220.373 245.94 220.993 246.411 221.613 247.031C221.662 246.361 221.29 245.94 221.538 245.444C224.489 243.36 228.009 242.863 231.405 242.045C233.166 241.722 235.05 242.938 236.736 241.648C236.909 241.102 237.975 240.705 236.909 240.035C234.554 240.953 234.058 240.68 233.984 238.075C233.81 233.287 234.083 228.498 233.835 223.71C233.835 221.428 233.711 219.145 233.934 216.863C234.207 216.019 234.504 215.176 234.703 214.282L234.752 214.406Z" fill="#1F4C77"/>
<path d="M447.589 286.95L447.664 285.759C448.606 284.246 448.035 282.584 448.184 280.996C448.308 279.78 447.912 278.49 448.754 277.374L448.829 275.066C449.87 273.355 449.201 271.469 449.374 269.683C449.523 268.269 449.052 266.78 449.92 265.44C449.969 260.379 449.994 255.318 450.044 250.257C451.01 248.594 450.663 246.758 450.515 245.022C450.168 240.779 449.944 236.462 450.415 232.294C451.01 227.233 450.887 222.073 452.002 217.061C452.25 216.739 452.597 216.639 452.994 216.763C454.233 216.863 455.523 216.639 456.688 217.334C457.927 218.178 459.316 217.582 460.605 217.681L466.654 218.649C467.794 219.368 469.158 218.55 470.298 219.195C473.968 219.17 477.538 219.989 481.132 220.46C482.347 220.609 483.289 221.378 483.314 222.817C482.248 223.983 482.471 225.174 483.215 226.365L483.612 235.346C484.281 239.315 483.289 243.285 483.537 247.255C483.587 248.197 483.215 249.19 483.884 250.058C484.876 255.318 484.38 260.652 484.479 265.961C485.397 268.244 485.124 270.675 484.95 272.982C484.702 276.034 484.752 279.086 484.752 282.137C484.752 282.658 484.926 281.939 485.074 282.038C485.843 283.601 485.446 285.313 485.595 286.95H447.564H447.589Z" fill="#00603D"/>
<path d="M340.637 246.56C340.637 250.133 340.637 253.68 340.662 257.253C341.728 259.883 341.53 262.736 341.431 265.391C341.307 269.038 341.133 272.66 341.753 276.257C341.753 279.805 341.778 283.378 341.803 286.926H310.912L310.962 282.36C311.086 282.137 311.21 281.889 311.358 281.666C311.631 279.954 311.532 278.217 311.408 276.505C311.309 276.232 311.383 276.009 311.631 275.836C312.276 269.807 312.92 263.753 313.565 257.724C313.763 256.012 313.243 254.276 313.912 252.589C314.953 250.654 313.912 248.346 314.978 246.411C315.92 244.575 315.102 242.64 315.399 240.754L315.672 238.819C317.184 237.504 319.044 237.678 320.779 237.901C325.514 238.546 330.25 238.348 334.985 238.397C339.596 238.447 339.646 238.497 340.092 243.087C340.141 243.484 340.265 243.856 340.439 244.203L340.662 244.153C341.282 244.947 341.282 245.741 340.662 246.535L340.637 246.56Z" fill="#00603D"/>
<path d="M145.775 278.614C145.428 281.418 146.445 284.147 146.321 286.95H120.761C117.934 282.361 118.083 277.126 117.959 272.089C117.587 256.062 123.042 242.02 133.181 229.689C135.363 227.035 137.842 224.653 140.42 222.395C140.594 222.048 140.842 221.998 141.139 222.222C141.363 222.47 141.511 222.743 141.61 223.04C141.834 223.809 141.784 224.603 141.809 225.397C141.834 226.191 141.809 226.985 141.834 227.779C142.478 230.508 141.734 233.287 142.106 236.016C142.156 244.947 143.172 253.804 144.486 262.612C145.602 263.952 145.652 265.341 144.635 266.755C144.61 269.608 144.957 272.437 145.652 275.215C146.742 276.307 146.073 277.473 145.775 278.614V278.614Z" fill="#030404"/>
<path d="M243.207 257.352C243.851 256.484 243.653 255.442 243.653 254.474C243.653 245.865 243.653 237.281 243.653 228.672C243.653 227.184 242.587 225.521 244.446 224.355C254.983 234.254 261.676 246.287 264.28 260.503C265.916 269.36 265.47 278.168 263.362 286.926H241.372C242.141 278.614 243.207 270.353 243.132 261.992C242.19 260.429 241.794 258.866 243.207 257.327V257.352Z" fill="#030404"/>
<path d="M594.951 0.74434C398.303 0.74434 201.656 0.74434 5.00821 0.74434C2.16543 0.74434 0.744043 2.14196 0.744043 4.9372C0.744043 98.9416 0.744043 192.921 0.744043 286.926C-0.49554 286.38 0.198627 285.313 0.198627 284.544C0.149043 266.333 0.173835 248.123 0.173835 229.913C0.149043 154.243 0.149043 78.5231 0.09946 2.82837C0.09946 0.595482 0.595293 0.0992852 2.82654 0.0992852C199.3 0.148905 395.799 0.148905 592.273 0.198524C593.141 0.198524 594.281 -0.49615 594.951 0.74434Z" fill="white"/>
<path d="M486.785 138.538C487.107 139.803 489.14 139.307 489.19 140.87C489.066 140.994 488.942 141.118 488.768 141.218C488.917 141.118 489.066 140.994 489.19 140.87C490.454 141.168 491.148 142.036 491.594 143.178C492.338 143.823 491.917 145.013 492.76 145.609C494.693 148.586 493.9 151.514 492.859 154.615C489.933 163.398 483.909 169.476 476.224 174.19C475.207 175.108 474.885 176.348 474.736 177.614C474.042 183.345 475.257 188.902 476.595 194.41C476.868 195.452 476.645 196.395 476.1 197.288C474.116 199.397 471.761 200.24 468.761 200.215C455.423 200.091 442.11 200.215 428.772 200.215C423.963 200.215 423.963 200.215 423.715 204.979C422.897 207.286 422.996 209.693 423.194 212.074C423.219 212.496 423.145 212.868 422.921 213.24C423.07 213.662 421.409 213.489 422.574 214.282C422.748 214.506 422.822 214.754 422.798 215.027C420.839 218.128 417.715 219.269 414.393 220.113C412.98 220.46 411.517 220.659 410.104 221.031C409.336 221.18 408.567 221.18 407.873 220.708C407.129 219.889 407.253 218.947 407.476 217.979C410.129 213.712 412.782 209.445 414.839 204.855C416.352 201.481 415.881 200.612 412.112 200.637C401.675 200.761 391.238 201.133 380.825 201.654C377.751 201.803 374.528 202.572 371.578 200.91C369.049 199.694 366.322 200.265 363.744 200.439C350.53 201.431 337.316 201.357 324.102 201.357C323.408 200.687 322.292 201.034 321.623 200.29L321.672 200.191C320.805 199.694 321.325 198.355 320.358 197.933C318.821 197.313 319.342 195.923 319.317 194.856C319.243 187.165 319.639 179.425 319.094 171.758C318.102 157.716 318.177 143.649 318.053 129.607C318.053 128.316 318.102 127.051 318.127 125.761C319.838 121.643 321.895 117.623 322.639 113.158C323.556 111.347 323.259 109.461 322.838 107.6C322.738 106.806 322.738 106.037 323.358 105.417C331.044 104.697 338.605 106.881 346.29 106.533C346.786 107.799 346.018 108.816 345.646 109.908C344.332 114.001 345.943 116.854 350.282 117.772C356.108 118.988 361.86 118.07 367.562 116.879C374.032 115.539 380.379 113.654 386.552 111.272C389.329 110.205 392.18 109.486 395.056 108.841C401.7 108.99 408.394 108.32 414.963 110.007C415.534 111.098 415.087 112.14 414.79 113.158C413.302 118.318 414.914 122.635 418.261 126.555C422.723 131.815 428.648 134.643 434.97 136.851C444.887 140.324 455.151 140.3 465.464 139.729C466.555 139.655 467.621 139.357 468.687 139.803C469.108 139.903 469.555 141.093 469.951 139.803C470.596 139.084 471.389 139.009 472.282 139.233C473.224 139.109 473.769 141.937 475.034 139.605C476.843 140.176 478.058 138.464 479.719 138.439C482.099 137.719 484.479 137.546 486.834 138.588L486.785 138.538Z" fill="#F4CDB1"/>
<path d="M159.831 199.074C157.798 196.618 156.286 193.839 155.195 190.862C154.551 190.093 154.675 188.828 153.559 188.381C149.419 181.161 145.155 173.991 141.213 166.672C139.775 163.993 138.461 162.058 135.114 163.497C132.66 164.142 130.205 164.489 127.751 163.497C123.288 163.596 120.933 160.42 118.405 157.493C116.768 155.756 116.074 153.846 117.14 151.538C117.933 147.594 119.669 144.244 123.239 142.086C125.437 141.342 126.156 140.159 125.396 138.538C123.09 135.561 121.479 132.137 119.595 128.912C116.049 122.858 112.876 116.581 109.108 110.627C108.661 109.932 107.942 108.99 108.389 107.526C114.091 107.526 119.892 107.526 125.718 107.526C133.131 107.526 140.543 107.526 147.981 107.526C149.642 107.526 151.353 107.774 152.964 107.129C153.931 106.409 155.071 106.757 156.113 106.757C174.88 106.732 193.647 106.757 212.439 106.757C217.274 106.757 222.108 106.757 226.942 106.757C227.81 106.757 228.802 106.409 228.876 107.972C228.975 109.56 227.909 109.56 226.992 109.585C224.339 109.659 221.662 110.032 219.059 109.163C218.092 108.841 217.051 108.518 216.282 109.362C214.745 111.024 212.786 110.974 210.803 110.974C205.572 110.974 200.341 110.974 195.11 110.974C193.746 110.974 192.333 111.173 191.118 110.23C190.92 108.593 190.92 108.543 192.73 108.518C197.267 108.493 201.804 108.518 204.952 108.518C199.696 108.617 193.027 108.295 186.358 108.841C187.896 109.287 189.656 108.717 190.92 110.081C191.193 112.339 189.333 112.016 188.168 112.066C184.127 112.264 180.061 112.19 176.02 112.14C170.69 112.066 165.36 112.339 160.03 111.818C157.625 111.57 155.071 111.669 153.063 113.555C152.196 114.373 151.006 114.125 149.94 114.125C142.824 114.125 135.709 114.125 128.594 114.125C134.246 114.125 139.899 114.15 145.527 114.125C148.948 114.125 152.443 114.621 155.691 112.91C156.46 112.513 157.427 112.587 158.319 112.587C164.839 112.537 171.36 112.513 177.88 112.612C179.293 112.612 181.598 112.19 181.425 114.522C181.251 116.631 179.119 116.581 177.409 116.532C176.516 116.507 175.748 115.862 174.657 116.085C174.731 117.028 175.326 117.648 176.095 117.301C177.731 116.581 179.392 116.929 181.028 116.805C182.441 116.705 183.507 116.507 183.408 114.696C183.334 113.306 184.4 112.86 185.565 112.736C187.127 112.562 188.714 112.438 190.251 113.034C190.623 113.306 191.019 113.579 191.193 114.051C191.193 114.349 191.143 114.621 190.995 114.894C189.11 116.358 186.235 116.681 185.59 119.559C184.474 120.749 182.937 121.246 181.623 122.114C178.946 123.875 177.954 126.208 179.119 128.267C180.185 130.177 182.689 130.624 185.441 129.135C191.689 125.786 198.308 124.347 205.398 124.545C210.233 124.669 214.795 125.711 219.158 127.671C220.15 128.118 221.092 128.664 222.158 128.961C223.819 129.433 225.306 129.16 226.496 127.87C227.637 126.629 227.513 125.166 226.942 123.702C226.595 122.784 225.951 121.99 225.703 121.022C224.067 116.085 219.951 114.795 215.489 114.621C208.894 114.373 202.3 114.398 195.68 114.522C193.97 114.547 192.085 114.894 190.697 113.331C191.044 111.024 192.928 111.396 194.366 111.396C202.076 111.272 209.886 110.528 217.447 111.545C230.364 113.282 243.255 112.289 256.122 112.785C256.445 112.785 256.767 112.885 257.064 112.984C257.932 113.257 258.577 114.696 259.618 113.778C260.585 112.934 260.585 111.669 259.891 110.528C259.048 109.163 258.651 107.824 259.816 106.459C260.114 106.434 260.386 106.36 260.684 106.36C265.543 106.211 265.593 106.31 263.386 110.602C262.023 110.453 263.51 111.644 262.816 111.818C260.733 117.226 257.907 122.288 255.651 127.572C252.751 134.395 249.354 140.994 246.082 147.643C240.032 159.899 233.884 172.081 227.785 184.287C225.505 188.852 223.149 193.368 220.844 197.933C219.827 199.297 218.488 199.794 216.753 199.694C214.497 199.57 212.216 199.62 209.96 199.694C208.026 200.538 205.993 200.711 203.911 200.711C194.515 200.687 185.144 200.687 175.748 200.711C173.442 200.339 174.235 202.126 174.062 203.192C173.938 203.986 173.913 204.855 172.946 205.028C172.078 205.177 172.351 204.185 171.979 203.813L171.682 200.166C171.434 199.918 171.161 199.769 170.839 199.694C168.211 199.545 165.608 199.694 162.98 199.62C161.914 199.62 160.823 199.794 159.906 199.049L159.831 199.074Z" fill="#644830"/>
<path d="M219.952 246.535C217.671 246.436 215.712 247.776 213.481 247.875C212.39 248.619 211.324 249.388 209.886 248.843C207.407 248.917 204.953 248.991 202.622 250.058C202.003 250.927 201.061 250.902 200.143 251.026C195.086 251.596 190.028 251.845 184.946 252.167C183.682 252.242 182.368 252.316 181.376 251.274H180.31C177.707 250.48 175.104 251.398 172.476 251.199C169.724 250.976 167.046 250.604 164.418 249.835C163.774 249.785 163.129 249.761 162.509 249.562C161.245 249.016 159.807 248.793 158.815 247.701C157.849 246.858 156.708 246.486 155.444 246.51C151.452 245.27 151.031 244.6 150.808 240.482C150.411 233.188 149.271 225.968 148.824 218.699C148.651 218.227 148.577 217.731 148.601 217.235C148.651 216.391 148.849 215.647 149.717 215.25C156.535 211.305 163.6 207.906 171.335 206.17C172.575 206.269 172.575 207.286 172.674 208.13C172.872 209.693 173.195 211.231 173.294 212.819C173.666 217.905 174.707 219.17 179.665 220.584C180.236 220.758 180.806 220.857 181.401 221.006C182.739 221.577 184.227 221.328 185.615 221.626C187.326 222.271 189.111 221.924 190.871 221.998C193.623 222.147 196.35 221.874 199.003 221.056C199.474 220.907 199.945 220.832 200.416 220.683C205.093 219.526 207.572 216.598 207.853 211.901C207.928 210.412 208.176 208.948 208.572 207.534C208.845 206.517 209.291 205.624 210.63 206.095C218.935 207.807 226.472 211.38 233.637 215.771C234.182 215.945 234.554 216.342 234.777 216.863L234.827 223.909C234.257 229.069 234.48 234.23 234.678 239.365C234.777 241.846 233.959 242.739 231.777 242.963C228.331 243.558 225.059 244.848 221.762 245.94C221.365 246.734 220.522 246.163 219.977 246.535H219.952Z" fill="#030404"/>
<path d="M472.529 139.729C471.686 139.679 470.843 139.63 470.125 140.225C469.777 140.622 469.381 140.622 468.959 140.374C461.175 141.193 453.39 141.49 445.63 140.3C435.838 138.786 426.541 135.958 419.128 128.961C413.029 123.23 411.839 117.524 414.913 110.007C421.235 109.535 427.557 109.932 433.854 110.329C445.606 111.049 457.382 111.471 469.158 111.843C472.554 111.942 474.661 113.803 474.736 117.425C474.909 124.645 474.86 131.864 474.909 139.084C474.265 139.803 473.521 140.2 472.554 139.779L472.529 139.729Z" fill="#884C36"/>
<path d="M414.293 219.368C417.466 218.45 420.417 217.111 422.648 214.555C422.747 213.166 422.995 211.925 424.904 212.67C426.565 213.464 428.375 213.315 430.135 213.389C431.498 214.059 433.06 213.166 434.399 213.96C435.887 214.878 437.721 214.158 439.233 214.952C440.2 215.076 440.87 215.573 441.142 216.54C441.589 222.147 441.812 227.754 441.018 233.361C440.2 234.552 440.324 235.917 440.225 237.281C439.952 241.027 439.804 241.151 436.11 241.226C434.374 241.424 432.515 240.754 430.854 241.772C426.912 241.821 422.846 241.275 419.053 242.069C413.401 243.26 407.674 242.293 402.12 243.235C391.931 244.972 381.742 243.533 371.577 244.153C368.255 242.987 364.834 243.905 361.462 243.608C359.652 243.434 357.768 244.079 356.033 243.062L352.487 242.938C351.868 242.764 351.694 242.169 351.347 241.722C351.347 241.548 351.347 241.4 351.273 241.226C350.851 240.655 350.752 240.06 351.099 239.415C353.256 237.405 356.057 237.703 358.636 237.405C373.114 235.743 386.997 232.17 399.963 225.298C402.418 224.008 403.831 221.254 406.756 220.758C407.029 220.534 407.302 220.212 407.723 220.485H410.103C411.392 219.765 413.078 220.609 414.243 219.393L414.293 219.368Z" fill="#00603D"/>
<path d="M371.528 200.91C380.304 200.836 389.08 200.24 397.881 200.091C403.087 199.992 408.318 199.645 413.549 199.62C416.872 199.62 417.739 200.811 416.326 203.838C413.921 209.023 411.492 214.208 407.748 218.649C407.228 220.088 406.236 221.056 404.724 221.477C401.674 222.817 398.427 222.619 395.228 222.569C392.997 222.395 390.766 222.643 388.559 222.37C386.08 221.725 383.477 221.874 381.023 221.204C376.907 220.088 372.371 219.592 370.412 214.853C370.114 214.059 370.263 213.265 370.387 212.471C371.627 211.876 371.478 210.759 371.478 209.693C371.503 206.765 371.528 203.838 371.528 200.935V200.91Z" fill="#C69066"/>
<path d="M370.983 214.431C372.966 219.021 377.429 219.368 381.42 220.41C383.676 221.006 386.031 221.18 388.337 221.527C386.255 222.941 383.8 221.75 381.643 222.519C378.619 222.767 375.297 221.378 372.793 224.256C375.47 224.777 378.222 224.678 380.528 223.536C382.784 222.42 384.99 222.246 387.345 222.172C389.973 222.097 392.676 222.693 395.254 221.701C398.65 221.601 402.022 221.428 405.369 220.832C405.964 220.683 406.559 220.435 407.08 221.006C407.179 221.006 407.278 221.055 407.377 221.08C407.476 221.105 407.551 221.155 407.65 221.204C404.377 221.874 402.791 225 399.915 226.414C390.543 231.054 380.776 234.428 370.537 236.487C365.231 237.554 359.876 238.05 354.546 238.844C353.48 238.993 352.439 239.241 351.373 239.415C351.224 239.291 351.1 239.167 350.951 239.043C349.712 235.644 350.431 232.121 350.406 228.647C350.579 223.264 350.158 217.88 350.629 212.496C350.753 212.124 350.951 211.826 351.249 211.578C352.265 214.406 354.025 214.952 356.951 214.158C359.653 213.439 362.578 213.513 365.38 213.265C367.462 212.62 369.198 213.464 370.958 214.431H370.983Z" fill="#005137"/>
<path d="M210.605 206.07C208.299 206.914 209.663 209.196 208.845 210.635C208.497 211.231 208.721 212.174 208.721 212.943C208.704 217.309 206.588 220.022 202.374 221.08C201.705 221.254 201.06 221.452 200.415 221.626C190.821 218.649 182.417 213.811 176.12 205.797C174.905 204.259 173.541 202.547 174.26 200.265C175.401 199.496 176.715 199.645 177.979 199.645C186.953 199.645 195.953 199.645 204.927 199.645C206.613 199.645 208.274 199.545 209.886 199.049C210.084 199.173 210.158 199.347 210.109 199.595C209.935 199.868 209.588 199.967 209.39 200.215C209.836 202.15 208.349 204.483 210.58 206.046L210.605 206.07Z" fill="#3F291B"/>
<path d="M340.414 244.228C339.943 244.029 339.422 243.757 339.497 243.211C340.141 239.266 337.662 239.241 334.885 239.44C328.464 239.886 322.093 238.844 315.672 238.844V231.848C316.465 229.937 315.399 227.853 316.341 225.968C316.341 220.659 319.316 218.748 324.25 219.046C324.399 219.046 324.572 218.872 324.746 218.773C326.184 217.805 327.919 218.922 329.382 218.103C331.315 217.508 333.224 216.639 335.332 217.359L340.637 216.739C342.348 216.366 342.62 217.632 342.348 218.649C340.637 224.678 342.001 230.756 341.703 236.81C341.654 237.604 341.703 238.373 341.48 239.142C341.381 239.713 341.059 240.184 340.687 240.606L340.464 244.203L340.414 244.228Z" fill="#005137"/>
<path d="M259.816 106.459C258.8 108.965 261.998 110.627 261.081 113.282C260.659 114.473 260.015 114.82 259.097 115.068C257.883 115.39 257.585 114.547 240.826 112.066C233.81 111.743 244.768 111.396 255.676 111.793C256.271 111.793 256.866 111.818 257.337 112.24C257.684 112.537 257.635 112.959 257.635 113.356C257.783 113.232 257.982 113.083 258.006 112.909C258.155 112.091 257.56 111.892 256.965 111.843C255.874 111.719 254.784 111.793 253.717 111.793C250.767 111.793 247.867 111.917 245.115 110.354C243.181 109.262 240.702 109.461 238.719 110.032C233.463 111.57 228.182 110.404 240.826 112.066C247.867 113.579 238.223 114.2 228.728 113.406C217.075 112.438 205.448 112.438 193.796 112.413C192.755 112.413 191.292 111.818 190.895 113.579C189.805 113.579 188.714 113.579 187.623 113.579C185.838 113.53 184.226 113.034 184.028 116.085C183.879 118.665 181.053 117.822 179.219 117.896C178.871 117.896 178.524 117.326 177.929 117.475C176.739 117.747 176.144 120.774 174.558 118.541C173.814 117.475 172.946 116.432 171.905 115.118C173.74 114.721 175.178 114.448 176.64 115.39C178.5 116.581 179.913 116.036 181.326 113.852C162.286 112.364 143.593 116.308 124.925 114.398V113.579C126.611 113.579 128.321 113.579 130.032 113.579C136.75 113.579 143.469 113.579 150.212 113.579C151.378 113.579 152.121 113.381 153.088 112.215C154.7 110.23 157.699 110.478 159.881 110.776C165.707 111.545 171.508 110.974 177.334 111.173C180.979 111.297 184.648 111.222 188.317 111.173C189.309 111.173 190.623 111.619 190.945 110.007C198.259 110.007 205.572 110.032 212.91 109.957C213.803 109.957 215.414 110.925 215.29 108.32C215.241 107.079 217.918 107.352 219.034 107.997C221.885 109.61 224.835 108.518 227.711 108.791C229.496 108.94 227.215 108.196 227.86 107.625C229 106.583 227.438 107.104 227.314 107.079C222.48 107.005 217.621 107.005 212.786 106.98C212.786 106.732 212.861 106.558 213.134 106.533C226.843 106.484 240.553 106.409 254.263 106.385C256.122 106.385 258.006 106.459 259.866 106.484L259.816 106.459Z" fill="#644732"/>
<path d="M395.03 108.816C382.312 114.224 369.321 118.616 355.363 119.31C353.43 119.41 351.397 119.112 349.512 118.616C344.48 117.301 342.843 113.555 345.025 108.865C345.397 108.072 345.843 107.302 346.265 106.533C356.281 106.161 366.222 107.625 376.213 107.724C378.866 107.749 381.568 107.402 384.171 108.171C382.064 108.89 379.907 108.32 378.221 108.469C382.485 108.741 387.221 108.171 391.931 108.741L395.03 108.816Z" fill="#874C36"/>
<path d="M149.37 217.929C150.312 219.344 150.015 221.006 150.188 222.544C150.808 228.027 151.428 233.535 151.601 239.043C151.701 242.318 152.122 245.047 155.444 246.486C154.378 246.436 153.287 246.436 152.221 246.362C151.676 246.312 151.13 244.997 150.659 246.262C150.288 247.23 150.982 247.676 151.924 247.751C152.469 247.801 153.114 247.552 153.758 248.52C150.759 249.339 147.908 248.818 144.536 248.917C147.436 245.071 144.263 241.747 144.536 238.274C145.23 237.728 145.949 237.579 146.718 238.1C148.379 240.333 146.866 243.062 148.106 245.468C148.056 244.079 147.387 242.839 147.486 241.524C147.585 240.482 147.313 239.266 148.899 239.142C151.056 238.323 149.172 236.487 149.841 235.495C149.693 236.413 150.288 237.703 149.122 238.621C148.403 238.894 147.709 238.943 147.065 238.422C145.825 236.314 145.8 236.09 146.346 232.791C145.329 234.354 145.85 236.611 144.536 238.249C142.156 237.48 144.139 235.172 142.9 233.882C141.685 234.205 142.379 235.296 142.106 236.016C141.313 233.262 141.015 230.434 141.065 227.581C141.437 226.787 142.701 225.968 141.015 225.224L140.941 222.842C141.164 222.767 141.239 222.594 141.164 222.37C141.164 222.37 141.065 222.346 140.891 222.346H140.644L140.396 222.395C140.396 221.552 140.346 220.708 140.321 219.865C139.85 217.88 139.9 215.87 140.296 213.885H140.272C141.387 213.141 141.734 216.118 143.048 214.456C143.395 214.183 143.594 213.885 143.073 213.538C142.404 212.992 141.834 212.397 141.586 211.553C141.61 210.883 142.156 210.983 142.577 210.908C143.048 210.66 143.569 210.685 144.09 210.685C144.883 210.859 145.577 211.529 146.494 211.057C146.618 211.032 146.718 210.983 146.841 210.958C148.775 211.727 149.172 213.538 149.693 215.25C149.544 215.796 149.395 216.366 149.246 216.912C148.974 217.284 148.18 217.706 149.345 217.954L149.37 217.929Z" fill="#1E4C76"/>
<path d="M174.26 200.265C176.467 207.509 182.293 211.355 188.169 215.225C192.036 217.781 196.474 219.22 200.416 221.626H199.275C196.548 222.47 193.598 221.701 190.896 222.718C189.086 222.643 187.202 223.288 185.466 222.246C186.359 221.626 187.375 222.122 188.094 221.924C185.962 221.75 183.607 222.246 181.326 221.651C179.169 221.725 177.235 220.907 175.45 219.84C173.467 218.674 172.277 217.086 172.376 214.531C172.475 211.702 172.227 208.874 171.335 206.145C171.93 205.475 171.756 204.607 171.93 203.838C172.401 203.912 172.971 205.773 173.269 203.788C173.442 202.597 172.922 201.282 173.74 200.166C173.789 200.116 173.938 200.091 174.012 200.116C174.087 200.116 174.161 200.215 174.236 200.29L174.26 200.265Z" fill="#644732"/>
<path d="M340.637 239.44C340.637 233.634 340.613 227.853 340.637 222.048C340.637 221.006 340.538 219.964 341.356 218.996C342.175 218.054 341.803 217.16 340.588 216.739C341.208 215.275 340.861 213.538 341.852 212.174C342.695 211.429 343.191 210.387 344.158 209.792H344.207C344.555 209.42 344.976 209.469 345.397 209.593C346.563 210.859 345.992 212.223 345.67 213.588C346.216 213.414 346.612 212.943 347.207 212.918C348.001 212.695 347.356 212.347 347.257 212.025C346.91 211.38 346.662 210.735 346.935 209.99C347.505 209.246 348.224 209.32 348.967 209.693C349.686 210.462 350.802 210.983 350.703 212.273C350.678 213.34 350.852 214.407 350.505 215.449C348.918 216.887 346.811 217.731 345.695 219.691C344.331 221.725 345.05 223.983 345.397 226.018C346.042 229.714 346.092 233.436 346.439 237.132C346.612 237.331 346.786 237.554 346.959 237.728C347.331 238.1 347.728 238.472 347.852 239.018C347.802 239.142 347.777 239.266 347.728 239.39H346.538C344.555 240.134 342.596 240.085 340.613 239.39L340.637 239.44Z" fill="#194165"/>
<path d="M323.333 105.392L323.506 107.625C323.655 109.585 324.101 111.57 323.283 113.505C322.465 117.971 321.325 122.288 318.102 125.711C317.928 120.923 317.581 116.135 317.581 111.347C317.581 107.005 319.465 105.268 323.333 105.392V105.392Z" fill="#874D37"/>
<path d="M440.325 215.721C439.78 215.721 439.433 215.424 439.234 214.927C440.722 211.975 442.408 209.296 446.35 209.717C446.845 209.767 447.316 209.841 447.564 210.338C447.862 211.479 447.044 213.042 448.854 213.588C449.597 213.687 450.391 213.464 451.085 213.935L451.159 213.885C451.506 214.382 451.407 214.927 451.382 215.473C450.341 216.416 449.25 217.309 449.225 218.897C449.077 219.145 448.903 219.344 448.655 219.517C447.911 219.79 447.242 219.567 446.622 219.145C446.275 218.872 446.027 218.55 445.854 218.153C445.482 215.573 444.193 215.994 442.68 217.21C441.366 217.557 441.094 216.242 440.325 215.746V215.721Z" fill="#1D4D75"/>
<path d="M476.075 194.31C475.802 194.211 475.331 194.137 475.306 193.963C474.339 188.158 473.1 182.327 473.843 176.398C473.992 175.207 474.909 174.314 476.248 174.165C476.248 178.904 476.223 183.642 476.199 188.381C476.199 190.366 477.488 192.351 476.099 194.31H476.075Z" fill="#EFCEAE"/>
<path d="M213.085 106.509C212.961 106.657 212.862 106.806 212.738 106.955C193.797 107.03 174.856 107.104 155.915 107.154C154.923 107.154 153.957 107.129 152.965 107.104C153.461 106.236 154.328 106.434 155.072 106.434C174.41 106.434 193.747 106.459 213.085 106.484V106.509Z" fill="#B2C68E"/>
<path d="M476.075 194.311C476.099 192.326 476.149 190.366 476.174 188.381C477.165 190.142 477.289 192.202 478.306 194.013C479.446 196.022 476.917 196.196 476.099 197.263L476.05 194.311H476.075Z" fill="#A8CD82"/>
<path d="M143.345 214.506C143.196 215.2 143.717 216.267 142.8 216.515C141.808 216.788 141.411 215.796 141.015 215.002C140.816 214.58 140.544 214.208 140.296 213.811C139.949 212.595 140.99 212.174 141.61 211.504C142.329 211.95 143.295 212.149 143.345 213.29C143.692 213.687 143.692 214.084 143.345 214.481V214.506Z" fill="#24517C"/>
<path d="M485.074 282.038L484.925 284.941H484.479C484.479 278.614 484.479 272.288 484.479 265.961C484.652 266.234 484.826 266.482 484.999 266.755C485.644 269.286 485.222 271.841 485.222 274.397L485.074 282.013V282.038Z" fill="#096334"/>
<path d="M335.307 217.359C333.324 217.557 331.39 218.351 329.357 218.103C329.705 217.284 330.349 216.863 331.217 216.912C333.498 217.011 335.084 216.317 335.059 213.414C336.15 214.903 335.977 216.118 335.307 217.359Z" fill="#9ECA86"/>
<path d="M422.648 212.174C422.003 209.618 421.929 207.162 423.714 204.979C423.664 207.336 423.64 209.693 423.59 212.05C423.317 212.447 422.995 212.447 422.648 212.174V212.174Z" fill="#EBCEAD"/>
<path d="M391.932 108.766H376.982V108.171C379.362 108.171 381.767 108.171 384.172 108.171C386.775 108.171 389.378 108.047 391.932 108.766Z" fill="#77572A"/>
<path d="M483.884 250.058C482.57 248.495 483.264 246.659 483.289 244.972C483.339 241.772 482.769 238.522 483.612 235.321L483.884 235.892C484.33 238.025 484.107 240.184 484.008 242.342C483.959 244.898 483.934 247.478 483.884 250.033V250.058Z" fill="#0D5E2E"/>
<path d="M117.141 151.538C117.265 153.598 117.562 155.607 118.405 157.493C116.323 156.227 115.182 153.3 116.1 151.216C116.397 150.521 116.769 151.464 117.166 151.538H117.141Z" fill="#A5CA85"/>
<path d="M486.784 138.538C484.404 138.488 482.049 138.439 479.669 138.389C481.504 136.727 485.297 136.801 486.784 138.538Z" fill="#AFCD85"/>
<path d="M244.446 224.38C243.28 225.645 244.123 227.283 243.677 228.697C242.685 226.811 243.429 224.802 243.156 222.842C242.512 221.155 242.71 219.542 243.776 218.078C243.95 218.078 244.123 218.078 244.297 218.053L244.446 224.38V224.38Z" fill="#2E5E77"/>
<path d="M448.779 214.506C446.771 213.588 445.358 212.471 447.589 210.338C448.06 210.362 448.581 210.288 448.829 210.859C449.597 212.074 449.845 213.29 448.779 214.481V214.506Z" fill="#204B7B"/>
<path d="M209.886 199.57C209.886 199.397 209.886 199.248 209.886 199.074C213.531 198.776 217.324 199.893 220.794 197.933C220.72 198.33 220.646 198.727 220.571 199.099C220.026 200.017 219.133 199.992 218.241 199.942C215.439 199.744 212.613 200.439 209.861 199.57H209.886Z" fill="#4E5323"/>
<path d="M171.831 199.818C171.782 199.942 171.732 200.066 171.633 200.19C167.766 199.942 163.824 201.009 160.006 199.645C163.948 199.322 167.914 198.95 171.831 199.843V199.818Z" fill="#BAC191"/>
<path d="M209.886 199.57C213.456 199.471 217.075 200.215 220.596 199.099C220.348 200.538 219.207 200.24 218.265 200.24C215.315 200.24 212.365 200.24 209.415 200.24C209.34 199.843 209.564 199.694 209.886 199.57Z" fill="#B7C08D"/>
<path d="M171.831 199.818C167.889 199.744 163.947 199.694 160.006 199.62C159.956 199.446 159.906 199.248 159.832 199.074C162.956 199.074 166.08 199.024 169.203 199.074C170.121 199.074 171.211 198.727 171.831 199.818V199.818Z" fill="#4D5423"/>
<path d="M472.529 139.729C473.248 139.233 474.042 139.059 474.884 139.034C474.934 139.208 474.959 139.382 474.959 139.555C474.785 140.647 475.157 141.838 474.364 143.252L472.529 139.729V139.729Z" fill="#F4C6B3"/>
<path d="M370.982 214.431C368.9 215.176 367.437 212.918 365.404 213.265C366.966 212.422 368.776 213.017 370.387 212.447C371.082 212.968 371.057 213.687 370.982 214.431Z" fill="#0A522D"/>
<path d="M125.396 138.538C127.032 138.687 126.859 139.952 126.611 140.92C126.115 142.855 124.404 141.788 123.239 142.111C124.107 141.019 126.239 140.697 125.396 138.563V138.538Z" fill="#5B5129"/>
<path d="M448.778 214.506C448.778 213.29 448.803 212.074 448.828 210.883C450.266 211.38 451.059 212.397 451.109 213.935C450.39 214.332 449.621 214.58 448.778 214.506V214.506Z" fill="#2B5473"/>
<path d="M256.618 105.69H248.016V105.392H256.643V105.69H256.618Z" fill="#A8CA83"/>
<path d="M127.751 163.497C130.205 163.497 132.66 163.497 135.114 163.497C134.693 163.695 134.271 163.894 133.85 164.092C132.288 164.712 130.627 163.968 129.065 164.539C128.272 164.638 127.999 164.092 127.776 163.497H127.751Z" fill="#555926"/>
<path d="M262.817 111.818C262.148 110.577 261.949 109.312 262.668 107.65C263.685 108.692 263.288 109.709 263.412 110.602C263.412 111.098 263.362 111.57 262.842 111.818H262.817Z" fill="#644732"/>
<path d="M485.222 274.421C485.148 271.866 485.073 269.311 484.999 266.78C486.065 269.311 485.743 271.866 485.222 274.421Z" fill="#91C895"/>
<path d="M483.189 226.39C481.528 224.777 481.553 223.388 483.289 222.842C483.264 224.033 483.214 225.224 483.189 226.39Z" fill="#006439"/>
<path d="M311.631 275.836L311.854 276.406C311.532 278.317 312.275 280.301 311.432 282.162C311.284 282.212 311.11 282.286 310.961 282.361C310.961 280.152 310.689 277.92 311.135 275.712C311.135 275.687 311.308 275.637 311.383 275.662C311.482 275.662 311.556 275.761 311.631 275.811V275.836Z" fill="#8DC68F"/>
<path d="M313.912 252.589C313.788 254.301 313.689 256.013 313.565 257.724C312.994 255.913 313.391 254.028 313.317 252.192C313.317 252.142 313.416 252.068 313.465 252.018L313.887 252.589H313.912Z" fill="#95C990"/>
<path d="M315.4 240.755C315.871 242.665 315.772 244.575 315.474 246.51C315.474 246.535 315.301 246.585 315.226 246.56C315.127 246.56 315.053 246.461 314.979 246.411C315.028 244.526 314.855 242.615 315.4 240.755V240.755Z" fill="#0D6031"/>
<path d="M348.968 209.717C348.323 209.817 347.604 209.693 347.183 210.387C346.414 210.809 345.943 210.288 345.422 209.891L344.232 209.767C345.794 208.402 347.381 208.551 348.968 209.742V209.717Z" fill="#204B5F"/>
<path d="M316.341 225.943C316.341 227.928 316.54 229.937 315.722 231.823C315.771 229.838 315.821 227.853 315.87 225.869C315.87 225.844 316.044 225.794 316.118 225.819C316.218 225.819 316.292 225.918 316.366 225.968L316.341 225.943Z" fill="#92C791"/>
<path d="M484.008 242.367C483.958 240.209 483.933 238.075 483.884 235.917C484.776 238.05 484.628 240.209 484.008 242.367Z" fill="#8FC89B"/>
<path d="M140.321 213.861C140.321 215.87 140.321 217.855 140.346 219.84C139.801 217.855 139.379 215.845 140.321 213.861Z" fill="#24517C"/>
<path d="M153.56 188.381C155.493 188.282 155.245 189.646 155.196 190.862C153.584 190.738 154.204 189.15 153.56 188.381Z" fill="#565023"/>
<path d="M350.133 212.124L348.968 209.717C350.133 209.841 350.852 210.511 351.273 211.553C351.224 211.752 351.199 211.925 351.174 212.124C350.827 212.446 350.48 212.446 350.133 212.099V212.124Z" fill="#1B4660"/>
<path d="M329.358 218.078C327.92 218.972 326.284 218.525 324.722 218.748C326.06 217.16 327.845 218.475 329.358 218.078Z" fill="#8EC78F"/>
<path d="M434.424 213.935C432.986 213.811 431.499 214.158 430.16 213.365C431.722 213.365 433.284 213.365 434.821 213.365C434.871 213.365 434.945 213.464 434.995 213.538L434.424 213.96V213.935Z" fill="#94C990"/>
<path d="M460.58 217.706C459.241 218.277 457.878 218.202 456.514 217.855C456.489 217.855 456.464 217.681 456.514 217.607C456.539 217.533 456.613 217.458 456.688 217.384C458.001 217.508 459.315 217.607 460.629 217.731L460.58 217.706Z" fill="#03602F"/>
<path d="M492.759 145.609C491.147 145.386 491.618 144.17 491.594 143.177C493.081 143.45 492.684 144.641 492.759 145.609Z" fill="#DFCFA7"/>
<path d="M344.183 209.792C343.91 211.057 343.067 211.801 341.877 212.174C342.174 210.933 342.794 209.99 344.183 209.792Z" fill="#204B5F"/>
<path d="M321.572 200.29C322.539 200.29 323.704 199.918 324.051 201.357C323.035 201.431 321.895 201.803 321.572 200.29Z" fill="#CBD295"/>
<path d="M320.309 197.933C321.97 197.982 321.499 199.272 321.623 200.19C319.962 200.141 320.457 198.851 320.309 197.933Z" fill="#E6CDA9"/>
<path d="M129.041 164.514C130.578 163.596 132.239 164.34 133.826 164.067C132.314 165.109 130.652 164.439 129.041 164.514Z" fill="#B9BB88"/>
<path d="M144.56 211.032L142.602 210.883C144.039 210.065 145.453 209.99 146.841 210.933V211.132C146.048 211.603 145.279 211.578 144.535 211.032H144.56Z" fill="#2B5F57"/>
<path d="M422.648 212.174C422.97 212.124 423.293 212.099 423.59 212.05C424.086 212.124 424.607 212.124 424.904 212.645C423.243 212.174 423.342 213.836 422.648 214.531H422.351C422.128 214.059 422.251 213.662 422.524 213.315L422.648 212.174V212.174Z" fill="#A3C6A2"/>
<path d="M451.134 215.697L451.184 213.885C452.175 214.605 451.382 216.441 452.969 216.788C452.721 216.838 452.498 216.912 452.25 216.987C451.828 217.26 451.432 217.235 451.01 216.962C450.787 216.54 450.787 216.118 451.109 215.721L451.134 215.697Z" fill="#3B7152"/>
<path d="M470.273 219.195C469.058 219.071 467.72 219.716 466.629 218.649C467.868 218.649 469.133 218.426 470.273 219.195Z" fill="#236330"/>
<path d="M234.753 216.838L233.612 215.746L234.753 214.406C234.753 215.225 234.753 216.044 234.753 216.863V216.838Z" fill="#5C6C76"/>
<path d="M451.208 216.838C451.555 216.887 451.902 216.912 452.25 216.962C452.398 227.456 450.465 237.877 451.06 248.371C451.109 249.215 450.985 249.959 450.018 250.257C449.994 248.222 449.969 246.213 449.944 244.178C448.878 243.062 449.175 241.623 449.101 240.283C448.903 236.71 449.547 233.088 448.704 229.54C448.506 229.268 448.382 228.97 448.258 228.672C447.985 225.496 448.878 222.395 448.779 219.244C449.845 218.699 448.754 215.969 451.208 216.838V216.838Z" fill="#1D4D75"/>
<path d="M448.779 244.203V248.768C446.126 246.312 445.184 242.69 441.639 241.821C441.317 241.474 441.242 241.077 441.366 240.63C442.135 239.712 442.011 238.001 443.771 237.976C444.044 238.075 444.267 238.224 444.465 238.447C445.011 239.241 445.358 240.184 445.977 240.854C446.101 237.678 445.407 234.552 445.581 231.376C445.655 230.31 445.581 229.193 446.622 228.449C447.415 228.077 448.134 228.201 448.779 228.771C450.068 232.518 449.101 236.388 449.349 240.184C449.424 241.524 449.721 242.963 448.779 244.203Z" fill="#1C4D76"/>
<path d="M341.778 276.257C340.514 276.009 340.712 275.017 340.712 274.149C340.712 268.517 340.712 262.86 340.688 257.228C341.704 257.402 341.828 258.146 341.828 258.99C341.828 260.726 341.654 262.463 342.844 264.026C343.315 264.671 343.043 265.688 342.621 266.557C341.382 269.038 341.382 271.568 342.621 274.074C343.142 275.141 343.216 275.96 341.803 276.257H341.778Z" fill="#1A4E71"/>
<path d="M356.058 243.037C360.446 243.037 364.834 243.037 369.222 243.037C370.164 243.037 371.255 242.764 371.602 244.104C367.189 244.104 362.801 244.153 358.388 244.153C357.446 244.153 356.33 244.402 356.058 243.012V243.037Z" fill="#13506F"/>
<path d="M435.713 240.68C438.589 241.077 439.754 239.936 439.407 236.959C439.258 235.793 438.614 234.155 440.399 233.411C442.556 234.378 442.63 236.115 442.159 238.05C441.316 239.167 441.267 240.655 440.448 241.796H435.664C435.341 241.4 435.341 241.027 435.713 240.68V240.68Z" fill="#1C4D76"/>
<path d="M448.778 244.203V228.771C450.365 229.069 449.944 230.359 449.944 231.352C449.968 235.644 449.944 239.936 449.944 244.228H448.778V244.203Z" fill="#1F4C78"/>
<path d="M340.638 239.44C342.621 239.44 344.58 239.44 346.563 239.44V247.304C345.026 246.237 345.323 244.848 345.423 243.632C345.596 240.879 344.679 239.663 341.828 240.606C341.456 240.73 341.034 240.63 340.638 240.63V239.44Z" fill="#1D4C74"/>
<path d="M438.813 247.552H429.045V246.982H438.788V247.552H438.813Z" fill="#1C4D76"/>
<path d="M449.895 265.44C449.895 267.872 449.944 270.303 449.944 272.734C449.944 273.677 450.192 274.769 448.804 275.042C448.804 272.536 448.804 270.03 448.804 267.524C448.804 266.631 448.804 265.763 449.87 265.416L449.895 265.44Z" fill="#005B48"/>
<path d="M448.729 277.374C448.729 279.408 448.778 281.418 448.754 283.452C448.754 284.37 449.002 285.462 447.638 285.759C447.638 283.651 447.638 281.542 447.638 279.433C447.638 278.565 447.588 277.647 448.729 277.374V277.374Z" fill="#005C47"/>
<path d="M340.638 246.56C340.638 245.766 340.638 244.972 340.638 244.178C342.745 244.129 345.026 243.905 343.861 247.428C342.77 247.106 341.828 246.287 340.638 246.585V246.56Z" fill="#1D4D75"/>
<path d="M410.005 246.014C411.294 245.245 412.608 245.195 414.467 245.965C412.633 246.808 411.319 246.634 410.005 246.014Z" fill="#204B7C"/>
<path d="M435.714 240.68C435.714 241.052 435.689 241.424 435.664 241.796C434.053 241.796 432.466 241.772 430.854 241.747C432.094 239.688 434.077 240.953 435.714 240.68Z" fill="#11526C"/>
<path d="M440.449 241.821C440.821 240.63 439.557 238.894 441.639 238.249C442.383 239.043 442.234 239.836 441.639 240.63V241.821H440.449Z" fill="#1F4B7C"/>
<path d="M441.589 244.302C441.54 245.047 441.069 245.32 440.399 245.295C439.978 245.295 439.507 245.022 439.681 244.625C439.953 244.029 440.35 243.335 441.143 243.384C441.639 243.384 441.614 243.905 441.614 244.302H441.589Z" fill="#1C4D76"/>
<path d="M396.493 279.83C397.683 280.202 399.418 278.862 400.038 280.971C399.269 281.641 398.476 281.641 397.683 281.046L396.493 280.996C396.121 280.624 396.121 280.227 396.493 279.855V279.83Z" fill="#185262"/>
<path d="M422.995 245.791C421.309 246.734 420.392 246.734 419.152 246.014C420.342 245.121 421.284 245.394 422.995 245.791Z" fill="#164F74"/>
<path d="M351.397 239.415L351.323 241.226C350.654 239.588 348.323 241.3 347.753 239.464C348.918 238.447 350.059 238.472 351.199 239.464L351.397 239.415V239.415Z" fill="#1F4C72"/>
<path d="M351.397 241.697C352.091 241.821 352.512 242.169 352.537 242.913C352.388 243.31 352.413 244.104 351.793 243.756C351 243.335 351.421 242.417 351.421 241.697H351.397Z" fill="#174F6C"/>
<path d="M443.671 247.428C443.399 247.503 443.076 247.676 442.754 247.676C442.407 247.676 441.886 247.577 442.06 247.081C442.134 246.858 442.63 246.684 442.952 246.659C443.299 246.634 443.721 246.734 443.671 247.453V247.428Z" fill="#1C4D76"/>
<path d="M397.684 281.046C398.477 281.046 399.245 280.996 400.039 280.971C399.964 281.765 399.568 282.187 398.75 282.137C398.055 282.112 397.758 281.666 397.684 281.046V281.046Z" fill="#1A4C7D"/>
<path d="M396.493 279.83C396.493 280.202 396.493 280.599 396.493 280.971C395.799 280.872 394.956 281.319 394.436 280.401C394.931 279.483 395.799 279.929 396.468 279.805L396.493 279.83Z" fill="#194F6B"/>
<path d="M158.815 247.701C160.104 247.751 161.393 247.8 162.41 248.818C162.881 249.636 163.476 249.686 164.145 249.041C169.525 249.785 174.93 250.53 180.309 251.299C174.954 252.614 169.351 251.968 163.996 253.482C162.038 254.028 162.013 251.075 160.303 250.455C159.608 250.207 158.79 248.942 158.815 247.726V247.701Z" fill="#1E4C75"/>
<path d="M181.375 251.274C187.747 251.398 194.044 250.43 200.391 250.182C201.357 251.199 202.994 250.232 203.936 251.324C204.109 254.152 202.002 253.581 200.366 253.705C200.192 253.68 200.019 253.656 199.845 253.631C194.986 253.11 190.102 253.532 185.243 253.383C183.904 253.333 182.491 253.606 181.351 252.539V251.299L181.375 251.274Z" fill="#1F4C74"/>
<path d="M243.206 257.352C243.181 258.915 243.157 260.454 243.132 262.017L240.801 260.826C239.909 259.635 240.033 258.444 240.801 257.253C242.413 256.931 241.967 255.64 241.967 254.648C242.016 250.207 241.967 245.766 241.991 241.325C241.991 240.432 241.744 239.44 243.206 238.695V257.352V257.352Z" fill="#1D4C79"/>
<path d="M200.391 253.68C200.242 254.698 199.548 254.871 198.681 254.871C196.945 254.871 194.912 255.888 193.697 255.69C189.656 255.045 185.516 255.343 181.55 254.226C181.45 254.201 181.426 253.879 181.376 253.68C182.219 252.986 183.235 253.11 184.202 253.085C188.64 253.085 193.102 253.085 197.54 253.085C198.507 253.085 199.548 252.961 200.366 253.68H200.391Z" fill="#194E75"/>
<path d="M231.753 242.938C233.736 242.317 234.232 240.978 234.257 238.919C234.356 233.907 233.736 228.846 234.802 223.884C234.802 229.317 234.802 234.75 234.802 240.928C236.29 239.613 236.637 236.661 238.422 239.44C237.604 240.01 238.05 241.226 237.232 241.796C236.934 242.566 238.025 244.724 235.521 243.285C234.53 242.714 233.017 243.012 231.753 242.913V242.938Z" fill="#1C4D73"/>
<path d="M200.391 253.68C194.045 253.68 187.723 253.68 181.376 253.68V252.489C186.855 252.489 192.334 252.489 197.813 252.489C198.805 252.489 200.094 252.068 200.391 253.656V253.68Z" fill="#214B7B"/>
<path d="M150.982 257.65C152.023 260.305 151.601 262.984 151.601 265.614C151.601 266.681 150.684 266.755 149.891 266.73C148.602 266.73 149.271 265.614 149.37 265.291C150.089 262.786 150.734 260.28 151.006 257.65H150.982Z" fill="#1B4D7A"/>
<path d="M144.634 266.755C144.585 265.366 144.535 263.976 144.485 262.612C145.13 262.562 145.427 262.19 145.775 261.644C146.444 260.528 146.741 261.247 146.89 262.016C147.485 263.604 147.907 265.167 146.89 266.755H144.609H144.634Z" fill="#204B77"/>
<path d="M145.775 278.614C145.726 277.473 145.701 276.332 145.651 275.215C145.949 273.156 145.329 270.998 146.37 269.013C146.618 272.238 147.907 275.513 145.751 278.639L145.775 278.614Z" fill="#204B77"/>
<path d="M240.801 257.253C240.801 258.444 240.801 259.635 240.801 260.826C240.801 262.662 240.801 264.473 240.801 266.854C239.066 264.249 239.289 258.742 240.801 257.278V257.253Z" fill="#1B4D74"/>
<path d="M229.794 245.989C232.224 245.171 233.86 245.071 235.967 246.411C233.761 246.535 232.124 246.808 229.794 245.989Z" fill="#1C4D73"/>
<path d="M209.887 248.842C210.978 248.073 212.242 248.024 213.482 247.875C211.647 250.579 211.349 250.654 209.887 248.842Z" fill="#24496D"/>
<path d="M219.952 246.535C220.448 246.039 221.068 245.915 221.737 245.94C222.109 246.858 223.522 246.188 223.82 247.354C222.258 248.197 221.018 247.776 219.952 246.535Z" fill="#1F4C71"/>
<path d="M146.915 266.755V262.016C148.452 263.307 148.031 265.093 148.105 266.755H146.915Z" fill="#1B4E73"/>
<path d="M243.776 218.078C243.9 219.716 243.652 221.279 243.156 222.842C241.644 222.594 242.09 221.403 241.991 220.435C242.809 219.865 242.388 218.674 243.156 218.053H243.801L243.776 218.078Z" fill="#1B4E72"/>
<path d="M203.961 251.324C202.771 250.951 201.061 252.217 200.416 250.182C201.16 250.133 201.904 250.108 202.647 250.058C203.391 250.157 203.936 250.48 203.986 251.324H203.961Z" fill="#174D7C"/>
<path d="M148.105 266.755H149.295C149.147 267.822 149.618 268.988 148.7 270.179C147.783 268.963 148.254 267.797 148.105 266.755V266.755Z" fill="#1B4D7A"/>
<path d="M148.75 286.032C148.006 284.42 147.932 283.502 148.675 282.237C149.493 283.452 149.37 284.395 148.75 286.032Z" fill="#1D4C7C"/>
<path d="M243.132 218.078C243.082 219.021 243.529 220.237 241.967 220.46C242.066 219.542 241.595 218.326 243.132 218.078Z" fill="#1C4C7F"/>
<path d="M238.323 216.863C238.843 217.012 239.389 217.036 239.19 217.557C239.116 217.781 238.62 217.954 238.298 217.979C237.951 218.004 237.43 217.905 237.604 217.384C237.678 217.136 238.149 216.987 238.323 216.887V216.863Z" fill="#204A80"/>
<path d="M238.991 215.349C238.52 215.275 238.471 214.903 238.495 214.531C238.495 214.158 238.495 213.712 239.016 213.712C239.512 213.712 239.537 214.158 239.537 214.531C239.537 214.903 239.537 215.3 238.991 215.349V215.349Z" fill="#1E4C7D"/>
<path d="M237.231 241.821C237.331 240.879 236.86 239.663 238.421 239.464C238.322 240.407 238.793 241.623 237.231 241.821Z" fill="#1E4B7E"/>
<path d="M452.497 281.914V271.965L453.414 272.015C453.39 275.439 454.009 278.887 452.497 281.914V281.914Z" fill="#006039"/>
<path d="M452.374 282.088C452.225 283.229 452.622 284.321 451.531 286.132C451.233 284.172 450.49 283.03 452.374 282.088Z" fill="#006039"/>
<path d="M339.993 281.418C340.786 282.708 340.811 284.023 340.067 285.933C339.199 284.072 339.398 282.757 339.993 281.418Z" fill="#006138"/>
<path d="M311.433 282.162C311.433 280.227 311.284 278.292 311.854 276.406C312.052 278.341 312.697 280.326 311.433 282.162Z" fill="#0B612F"/>
<path d="M141.039 225.199C141.882 225.521 142.577 223.536 143.097 224.727C143.742 226.216 142.329 227.01 141.064 227.556C141.064 226.762 141.039 225.993 141.015 225.199H141.039Z" fill="#1C4B7B"/>
<path d="M140.915 222.321C141.064 221.8 140.866 221.13 141.461 220.832C141.56 220.783 141.981 221.055 142.031 221.254C142.279 222.147 141.932 222.718 140.94 222.817C140.891 222.668 140.866 222.494 140.891 222.321H140.915Z" fill="#1B4C7C"/>
<path d="M325.043 150.397C327.993 142.731 334.563 140.101 341.827 138.588C344.802 137.967 347.876 137.794 350.95 137.967C352.14 138.042 353.33 138.092 354.198 139.059C355.71 139.853 355.884 141.391 356.33 142.781C358.809 150.72 358.487 158.708 356.776 166.697C356.355 167.615 356.231 168.756 354.917 168.93C348.174 169.178 341.53 168.781 335.232 165.903C330.373 163.67 326.63 160.396 324.969 155.136C323.927 153.548 324.225 151.985 325.043 150.422V150.397Z" fill="#635C58"/>
<path d="M417.838 166.648C415.086 166.772 412.31 166.97 409.558 167.045C406.88 167.119 404.748 165.432 404.872 163.224C404.996 160.569 406.806 159.453 409.236 159.329C424.929 158.51 440.622 157.691 456.315 156.922C459.488 156.773 461.298 158.163 461.397 160.594C461.497 163.149 459.736 164.539 456.34 164.712C443.498 165.333 430.68 166.003 417.838 166.648V166.697V166.648Z" fill="#874C37"/>
<path d="M355.934 166.921C356.95 159.8 357.967 152.655 356.107 145.51C355.537 143.326 354.843 141.168 354.198 139.009C355.363 138.092 356.578 138.439 357.719 139.009C359.082 139.729 360.52 139.63 361.958 139.704C362.603 140.448 363.793 140.027 364.388 140.87C367.71 142.781 370.883 144.84 373.09 148.115C375.668 151.911 375.395 155.657 373.189 159.453C372.643 160.396 372.073 161.289 371.503 162.207C371.057 162.827 370.263 162.926 369.743 163.398C368.453 165.358 365.801 165.184 364.363 166.921C363.817 167.541 363.123 167.566 362.38 167.466C360.52 165.978 359.702 168.384 358.314 168.583C357.025 168.707 355.587 169.079 355.958 166.896L355.934 166.921Z" fill="#EFEDEA"/>
<path d="M460.059 183.518C455.845 194.013 446.077 198.206 434.524 194.286C433.83 193.69 432.888 193.541 432.119 193.12C426.194 188.654 423.144 182.873 423.863 175.331C424.087 175.108 424.334 174.909 424.582 174.735C426.219 173.594 427.904 172.8 429.888 173.867C431.053 174.959 431.276 176.348 431.251 177.886C431.251 179.028 431.326 180.268 432.094 181.26C433.854 183.667 435.218 186.198 438.466 187.389C443.87 189.373 447.763 187.661 451.209 183.667C451.903 183.543 451.952 182.848 452.299 182.427C452.647 182.104 453.018 182.079 453.415 182.352C453.564 182.476 453.688 182.65 453.837 182.749C453.638 182.551 453.415 182.352 453.242 182.129C452.696 181.161 452.994 180.119 452.919 179.102C452.919 178.06 452.894 177.018 452.969 175.976C452.994 175.703 453.068 175.43 453.192 175.157C454.06 173.545 455.151 171.932 453.118 170.344C452.597 168.607 453.291 167.615 455.027 167.491C457.084 167.342 458.522 168.409 458.894 170.394C459.34 172.8 459.266 175.306 459.365 177.762C459.39 178.482 459.316 179.127 460.109 179.499C460.456 180.839 460.555 182.178 460.059 183.493V183.518Z" fill="#DD85A0"/>
<path d="M346.117 129.954C341.753 130.276 337.539 131.17 333.622 133.204C332.407 133.824 331.068 134.32 330.25 132.832C329.358 131.17 330.622 130.326 331.886 129.631C335.407 127.721 339.274 126.803 343.191 126.356C352.364 125.29 361.512 125.314 370.363 128.416C373.164 129.408 375.842 130.673 377.528 133.353C378.172 134.395 378.272 135.412 377.23 136.256C376.288 137.025 375.346 136.727 374.602 135.908C370.512 131.294 364.909 130.698 359.281 130.152C354.893 129.656 350.505 129.979 346.092 129.979L346.117 129.954Z" fill="#874C37"/>
<path d="M453.514 175.331V178.829C452.696 179.425 454.01 181.062 452.348 181.236C452.348 179.648 452.348 178.085 452.348 176.497C452.348 175.902 452.348 174.884 452.125 174.81C448.828 173.768 451.208 171.709 451.034 170.022C450.762 167.094 452.844 166.573 454.629 165.928C456.761 165.159 458.943 166.176 460.232 167.615C461.224 168.707 460.976 170.766 460.158 172.379C459.315 172.006 459.216 171.188 458.918 170.468C457.951 168.136 455.894 166.945 454.084 167.863C452.051 168.905 452.72 170.915 452.919 172.552C453.018 173.47 453.737 174.314 453.489 175.356L453.514 175.331Z" fill="#F6C8B6"/>
<path d="M453.513 175.331C452.77 173.718 451.381 172.403 452.076 170.245C452.571 168.732 453.018 167.417 454.679 167.144C456.464 166.871 457.951 167.665 458.992 169.079C459.687 170.022 460.083 171.163 460.182 172.354C460.133 172.528 460.083 172.701 460.083 172.875C460.083 175.083 460.48 177.341 459.463 179.449C459.364 179.97 459.662 180.839 458.868 180.814C458.075 180.814 458.224 179.896 458.348 179.4C459.042 176.596 458.15 173.818 458.249 171.014C458.323 169.203 457.108 168.235 455.249 168.161C453.439 168.087 453.538 169.327 453.563 170.543C454.654 172.106 454.307 173.669 453.588 175.257L453.513 175.306V175.331Z" fill="#DA879D"/>
<path d="M476.645 150.943C476.942 148.115 478.851 146.105 480.934 146.378C483.14 146.676 484.206 148.983 483.586 152.01C483.14 154.243 482.272 156.302 480.934 158.138C480.81 158.063 480.71 157.964 480.586 157.89C479.892 156.748 480.215 155.657 480.71 154.565C481.033 153.846 481.405 153.151 481.305 152.357C481.181 151.265 481.677 149.802 480.388 149.231C479.173 148.685 478.529 149.926 477.785 150.645C477.562 150.844 477.314 150.993 477.041 151.092C476.917 151.042 476.768 150.993 476.645 150.943V150.943Z" fill="#C6936D"/>
<path d="M436.879 171.758C438.763 172.255 437.994 173.793 438.019 174.909C438.069 176.472 438.341 178.11 437.622 180.07C436.507 178.755 437.027 177.564 436.854 176.497C435.986 174.909 435.986 173.321 436.854 171.758H436.879Z" fill="#F5CAB5"/>
<path d="M476.694 161.537C475.776 158.014 475.851 154.491 476.644 150.943L476.718 150.993C478.652 153.548 478.008 156.426 477.735 159.254C477.537 160.098 477.388 160.941 476.669 161.537H476.694Z" fill="#C6936D"/>
<path d="M459.464 179.474C459.464 177.266 459.265 175.033 460.083 172.9C461.125 176.447 461.075 179.995 460.083 183.518C459.86 182.179 460.579 180.69 459.488 179.474H459.464Z" fill="#DE86A2"/>
<path d="M432.119 181.236C430.731 181.012 430.879 179.896 430.954 179.003C431.127 177.217 430.681 175.629 429.714 174.14C429.441 173.892 429.094 173.669 428.995 173.247L429.144 172.9C430.706 173.073 431.177 174.314 431.4 175.529C431.747 177.415 431.871 179.325 432.069 181.236H432.119Z" fill="#DE9AA2"/>
<path d="M346.116 129.954C350.504 129.482 354.917 129.21 359.281 130.128C354.892 130.128 350.48 130.45 346.116 129.954Z" fill="#F7C7B1"/>
<path d="M476.694 161.537C476.744 160.743 476.471 159.874 477.289 159.279C478.603 159.279 478.95 156.451 480.835 158.063L480.934 158.163C480.116 160.023 479.149 161.71 476.719 161.537H476.694Z" fill="#C5926C"/>
<path d="M445.382 184.188C443.498 185.032 442.184 184.932 440.35 184.337C442.135 183.32 443.449 183.469 445.382 184.188Z" fill="#F5C9B8"/>
<path d="M436.879 171.758C436.879 173.346 436.879 174.934 436.879 176.497C434.97 174.909 434.97 173.321 436.879 171.758Z" fill="#F0CFAC"/>
<path d="M359.033 168.161C360.372 165.258 360.545 165.209 362.033 167.044C362.355 168.186 361.116 167.69 360.818 168.186H359.653C359.43 168.434 359.232 168.434 359.033 168.161V168.161Z" fill="#F2E6DF"/>
<path d="M359.033 168.161L359.653 168.211C358.24 169.525 356.678 169.798 354.942 168.905L355.959 166.92C356.43 168.756 357.893 168.062 359.033 168.136V168.161Z" fill="#F0D3BF"/>
<path d="M325.043 150.397C325.043 151.96 324.994 153.548 324.969 155.111C323.432 153.523 323.382 151.935 325.043 150.397Z" fill="#EACFBD"/>
<path d="M433.309 171.758C435.218 172.478 434.425 173.718 434.152 175.058C432.962 174.512 433.458 173.619 433.309 172.949C432.962 172.552 432.962 172.155 433.309 171.758Z" fill="#F7C9B7"/>
<path d="M492.04 146.651C492.908 148.139 492.883 149.033 492.313 150.149C491.123 149.181 491.569 148.189 492.04 146.651Z" fill="#F8C8B4"/>
<path d="M468.984 140.374L470.149 140.225C470.025 141.118 470.546 142.111 469.529 143.004C468.661 142.21 469.083 141.217 468.959 140.349L468.984 140.374Z" fill="#F9C8B5"/>
<path d="M360.818 168.186C361.215 167.814 361.612 167.417 362.033 167.045C362.826 167.02 363.595 166.995 364.388 166.97C363.818 169.153 362.033 167.814 360.818 168.186Z" fill="#EED1BF"/>
<path d="M407.104 221.006L405.394 220.832C406.187 220.088 406.98 219.368 407.774 218.624C408.17 219.22 408.121 219.84 407.774 220.46L407.104 220.981V221.006Z" fill="#ECC8A7"/>
<path d="M323.259 113.53C323.333 111.57 323.408 109.61 323.482 107.65C324.151 109.635 324.498 111.619 323.259 113.53Z" fill="#F9C7B3"/>
<path d="M422.524 213.315C422.475 213.712 422.425 214.109 422.351 214.506C421.632 214.382 420.343 214.754 420.417 213.761C420.541 212.273 421.855 213.761 422.5 213.315H422.524Z" fill="#F6C9B6"/>
<path d="M414.294 219.368C413.351 221.428 411.517 220.063 410.153 220.435L414.294 219.368Z" fill="#1E613A"/>
<path d="M364.388 140.895C363.421 140.82 362.28 141.168 361.958 139.729C362.925 139.778 364.164 139.282 364.388 140.895Z" fill="#F1D6C2"/>
<path d="M489.189 140.87C488.891 142.259 488.123 142.135 487.057 141.664C487.602 140.498 488.519 141.019 489.189 140.845V140.87Z" fill="#F9C7B3"/>
<path d="M463.034 182.352C462.885 182.873 462.885 183.394 462.364 183.22C462.141 183.146 461.968 182.65 461.943 182.327C461.918 181.98 462.017 181.459 462.538 181.633C462.786 181.707 462.91 182.154 463.034 182.352Z" fill="#EFD0AB"/>
<path d="M452.324 181.261C452.72 180.467 453.117 179.648 453.514 178.854C453.514 180.045 453.514 181.261 453.514 182.451H452.299V181.261H452.324Z" fill="#DB899C"/>
<path d="M433.308 171.758V172.949C432.614 172.825 431.771 173.297 431.275 172.354C431.771 171.436 432.639 171.907 433.308 171.758V171.758Z" fill="#EFCFAB"/>
<path d="M426.169 172.9C427.185 171.982 428.177 171.237 429.194 172.9L429.144 172.949C428.326 173.669 427.409 173.594 426.491 173.247C426.392 173.123 426.268 173.024 426.169 172.9Z" fill="#DE9AA2"/>
<path d="M424.409 175.306C424.235 175.306 424.037 175.306 423.863 175.306C423.913 173.842 424.805 173.148 426.144 172.875L426.194 172.924C426.392 174.314 425.177 174.612 424.409 175.257V175.306Z" fill="#DE9AA2"/>
<path d="M452.324 182.427L452.101 184.238L451.233 183.667C451.357 183.047 451.754 182.675 452.324 182.427Z" fill="#DB899C"/>
<path d="M369.743 163.422C370.09 162.653 370.685 162.256 371.503 162.231C371.454 163.422 370.611 163.447 369.743 163.422Z" fill="#ECD8C9"/>
<path d="M432.144 193.12C433.16 193.045 434.053 193.293 434.548 194.286C433.581 194.261 432.763 193.889 432.144 193.12Z" fill="#EDB4AD"/>
<path d="M226.521 121.32C227.067 122.238 227.86 123.106 228.133 124.099C228.629 125.86 228.554 127.622 226.918 128.937C225.009 130.5 223.026 130.549 220.869 129.483C208.969 123.578 197.193 123.851 185.516 130.152C182.64 131.691 179.367 131.095 178.128 128.887C176.69 126.356 177.83 123.255 180.905 121.494C182.417 120.625 183.979 119.782 185.516 118.914C186.16 117.45 187.598 117.127 188.888 116.755C200.168 113.455 211.299 113.505 222.257 118.194C223.943 118.914 225.381 119.856 226.521 121.295V121.32Z" fill="#020202"/>
<path d="M208.672 133.179C212.316 134.246 216.134 134.717 219.407 136.901C226.373 141.515 226.72 148.015 220.051 152.928C214.82 156.773 208.721 157.642 202.4 157.493C201.458 157.493 201.036 156.823 200.466 156.302C199.078 155.607 198.755 154.218 198.458 152.903C197.218 147.594 197.565 142.21 197.739 136.851C197.788 135.635 198.284 134.568 199.201 133.75L200.391 133.154C203.143 132.708 205.895 132.633 208.647 133.154L208.672 133.179Z" fill="#010101"/>
<path d="M199.201 133.75C197.936 141.366 198.011 148.909 200.465 156.327C200.415 156.897 200.465 157.567 199.573 157.443C194.143 156.674 188.838 155.558 184.896 151.29C181.623 147.742 181.574 143.426 184.896 139.903C188.739 135.859 193.647 134.023 199.176 133.75H199.201Z" fill="#FCF2EC"/>
<path d="M168.211 169.352C168.013 167.938 169.054 166.995 169.575 165.854C170.74 164.96 171.93 165.085 173.12 165.779C174.508 166.251 174.359 167.218 173.64 168.037C172.971 168.806 173.194 169.699 172.946 170.518C172.327 171.337 172.351 172.18 172.946 172.999L173.07 172.949C173.839 173.619 173.517 174.76 174.186 175.455C175.227 179.152 178.599 179.921 181.499 181.261C184.722 182.724 187.945 181.757 191.143 181.136C193.672 180.64 194.738 178.482 195.655 176.373C196.201 175.132 196.25 173.669 196.845 172.453C197.639 170.865 198.754 169.476 200.415 171.758C201.308 173.346 201.209 174.959 200.515 176.571C199.622 182.054 195.556 184.337 190.92 186.049C187.722 186.843 184.549 187.165 181.351 186.098C179.938 186.322 178.995 185.255 177.83 184.759C177.384 184.486 177.26 183.741 176.541 183.841C171.905 182.203 169.426 178.705 168.211 174.14C167.492 172.552 167.492 170.94 168.211 169.352V169.352Z" fill="#DD0E26"/>
<path d="M226.521 121.32C219.109 117.301 211.25 115.118 202.771 115.391C196.846 115.589 191.069 116.73 185.516 118.914C184.698 118.839 184.425 118.095 184.995 117.822C187.003 116.879 188.169 114.349 191.094 114.919C191.615 115.192 191.615 115.192 191.317 115.068C191.144 114.994 190.995 114.894 190.871 114.77C190.821 114.845 190.871 114.894 191.069 114.944C191.168 114.944 191.243 115.018 191.069 114.944C190.846 114.398 190.846 114.001 190.846 113.604C197.639 113.604 204.457 113.877 211.225 113.505C215.886 113.257 220.15 114.224 224.191 116.11C226.05 116.978 225.604 119.633 226.472 121.345L226.521 121.32Z" fill="#644732"/>
<path d="M131.222 158.063C128.693 158.163 125.743 156.227 124.851 154.019C123.809 151.39 124.801 149.405 126.71 147.718C128.47 146.155 130.354 146.403 131.668 148.388C132.635 149.876 133.478 151.439 134.272 153.027C135.586 155.706 134.222 157.939 131.222 158.039V158.063Z" fill="#3F2A1B"/>
<path d="M184.178 110.007C184.723 107.699 186.136 107.352 187.698 107.65C194.07 108.89 200.416 107.65 206.788 107.625C207.184 107.625 207.581 107.6 207.978 107.625C208.622 107.675 209.589 107.427 209.54 108.419C209.49 109.213 208.647 109.386 207.928 109.362C205.375 109.262 202.821 109.635 200.268 109.064C197.54 108.444 194.392 108.022 192.111 109.064C189.384 110.28 186.954 109.61 184.178 110.007V110.007Z" fill="#644732"/>
<path d="M181.326 186.098C184.524 186.098 187.698 186.074 190.896 186.049C188.193 187.711 183.186 187.736 181.326 186.098Z" fill="#93352C"/>
<path d="M168.211 169.352C168.211 170.94 168.211 172.552 168.211 174.14C166.525 172.527 166.55 170.94 168.211 169.352Z" fill="#803D2C"/>
<path d="M200.49 176.572L200.391 171.758C202.324 173.321 202.176 174.934 200.49 176.572Z" fill="#9E2F2F"/>
<path d="M208.672 133.179H200.416C203.317 132.013 206.267 132.658 209.217 132.733C209.217 132.807 209.217 132.931 209.217 132.956C209.044 133.055 208.87 133.105 208.696 133.179H208.672Z" fill="#5A493E"/>
<path d="M173.12 165.779C171.93 165.804 170.765 165.829 169.575 165.854C170.716 163.919 171.906 163.968 173.12 165.779Z" fill="#B9232C"/>
<path d="M176.541 183.841C176.69 183.444 176.665 182.675 177.235 182.848C178.227 183.121 177.657 184.114 177.83 184.759C177.136 184.833 176.541 184.759 176.541 183.841V183.841Z" fill="#D3132A"/>
<path d="M172.946 172.999C171.409 172.18 171.384 171.361 172.946 170.518C172.946 171.337 172.946 172.18 172.946 172.999Z" fill="#B6242A"/>
<path d="M174.187 175.455C172.625 175.132 173.145 173.917 173.071 172.949C174.658 173.247 174.162 174.487 174.187 175.455Z" fill="#77422B"/>
<path d="M190.896 222.743C191.193 221.353 192.284 221.651 193.201 221.651C195.234 221.651 197.242 221.651 199.275 221.651C196.598 222.842 193.747 222.916 190.896 222.718V222.743Z" fill="#5F4739"/>
<path d="M181.326 221.651H188.937V222.246C187.797 222.246 186.632 222.246 185.466 222.246C184.078 222.097 182.591 222.668 181.326 221.651V221.651Z" fill="#5F4739"/>
<path d="M149.37 217.929C149.172 218.401 149.197 219.269 148.329 218.748C147.883 218.475 147.263 217.83 147.337 217.483C147.585 216.441 148.577 217.036 149.271 216.863L149.37 217.905V217.929Z" fill="#1C4C7D"/>
<path d="M164.145 249.016C164.294 249.463 164.542 249.984 163.823 250.083C162.906 250.207 162.385 249.76 162.41 248.793C162.98 248.867 163.575 248.942 164.145 249.016V249.016Z" fill="#164D7F"/>
<path d="M441.639 240.63V238.249C441.887 236.462 441.391 234.875 440.4 233.411C440.4 227.506 440.35 221.626 440.325 215.721C441.416 215.548 441.788 216.937 442.804 216.863C443.176 216.515 443.573 216.515 444.019 216.714C446.87 220.162 445.581 224.454 446.3 228.325C446.3 228.474 446.35 228.598 446.35 228.746C446.35 233.361 446.25 237.976 447.639 243.062C445.432 241.623 443.771 240.655 443.994 238.249C445.606 236.14 443.523 234.403 443.424 232.518C443.424 232.344 443.424 232.22 443.424 232.245C443.424 232.418 443.424 232.567 443.424 232.766C443.424 234.626 445.482 236.264 444.019 238.249C442.358 238.174 443.3 240.705 441.639 240.63V240.63Z" fill="#1F4C78"/>
<path d="M395.279 221.725C394.485 223.164 393.072 222.743 391.833 222.817C387.916 223.065 383.974 222.097 380.255 224.876C378.396 226.266 375.173 224.827 372.619 226.166C371.504 226.762 371.652 224.901 371.528 224.008C374.429 222.122 377.9 222.594 381.024 221.626C383.453 221.601 385.883 221.552 388.337 221.527C390.643 221.576 392.973 221.651 395.279 221.701V221.725Z" fill="#005335"/>
<path d="M350.132 212.124C350.48 212.124 350.827 212.124 351.174 212.149C351.174 217.681 351.199 223.214 351.223 228.747C349.885 229.342 349.686 228.399 349.587 227.481C349.463 226.241 349.562 225 349.537 223.487C349.414 227.853 350.306 231.972 349.265 236.041C348.918 237.455 348.868 239.216 346.562 238.274C346.265 237.877 346.017 237.43 346.017 236.934C346.191 232.046 345.447 227.184 345.596 222.296C345.298 218.872 348.174 217.607 350.108 215.721V212.149L350.132 212.124Z" fill="#184264"/>
<path d="M346.562 238.249C348.323 238.373 348.174 237.182 348.372 235.941C349.166 231.153 348.868 226.365 348.943 221.552C348.943 220.931 348.67 220.162 349.661 219.542C350.529 221.626 349.909 223.76 350.133 225.769C350.256 226.836 349.513 228.25 351.199 228.747C351.199 232.319 351.199 235.892 351.199 239.464C350.058 239.464 348.893 239.44 347.753 239.415L346.562 238.249V238.249Z" fill="#1B4165"/>
<path d="M381.024 221.626C380.924 222.122 380.701 222.767 380.23 222.693C377.156 222.172 374.528 224.256 371.528 224.008C372.917 221.973 374.974 221.577 377.23 221.626C378.495 221.651 379.759 221.626 381.024 221.626V221.626Z" fill="#00503B"/>
<path d="M355.983 216.193C358.587 215.225 361.14 216.317 363.074 214.63C363.371 214.357 364.289 214.927 363.942 215.275C363.223 215.994 363.272 218.153 362.38 217.557C360.446 216.242 358.289 217.557 355.983 216.193V216.193Z" fill="#005333"/>
<path d="M219.853 110.825C222.505 109.659 225.257 109.833 227.91 110.056C232.248 110.428 236.364 108.99 240.628 108.841C242.115 108.791 244 108.32 244.991 109.064C248.809 111.867 253.049 111.074 257.214 111.173C257.61 111.173 258.007 111.173 258.404 111.173C259.048 111.173 259.643 111.371 259.693 112.091C259.718 112.537 259.643 113.133 259.37 113.455C258.825 114.125 257.561 113.629 257.511 113.505C256.891 111.644 255.354 112.388 254.214 112.388C248.586 112.314 242.909 112.041 237.306 112.438C231.356 112.86 225.803 110.106 219.853 110.825V110.825Z" fill="#644830"/>
<path d="M146.915 238.249H149.295C149.618 238.646 149.618 239.043 149.295 239.44C147.51 239.861 148.13 241.275 148.254 242.342C148.328 243.087 148.874 243.781 149.097 244.55C149.37 245.493 149.568 246.51 148.899 247.379C148.576 247.8 148.006 247.825 147.56 247.528C146.618 246.932 146.965 245.94 146.965 245.096C146.915 242.814 146.965 240.556 146.965 238.273L146.915 238.249Z" fill="#1F4C77"/>
<path d="M146.915 238.249C146.122 238.249 145.329 238.249 144.535 238.249C143.816 234.974 146.271 232.319 145.824 229.119L146.915 229.193V238.273V238.249Z" fill="#1F4C77"/>
<path d="M149.296 239.44V238.249C149.395 236.462 149.023 234.626 150.213 232.915V241.524C148.924 241.003 149.469 240.109 149.296 239.44V239.44Z" fill="#224B78"/>
<path d="M142.998 218.947C142.726 219.021 142.403 219.195 142.081 219.195C141.734 219.195 141.213 219.096 141.387 218.599C141.461 218.376 141.957 218.202 142.28 218.178C142.627 218.153 143.048 218.227 142.998 218.972V218.947Z" fill="#1F4B7C"/>
<path d="M143.346 214.506V213.315C144.015 213.488 144.908 212.992 145.379 213.935C144.883 214.853 144.015 214.382 143.346 214.53V214.506Z" fill="#1E4B7D"/>
<path d="M144.561 211.032C145.329 211.057 146.098 211.107 146.841 211.132C145.998 212.769 145.255 212.645 144.561 211.032Z" fill="#234B7C"/>
<path d="M346.563 221.626C346.563 227.159 346.563 232.716 346.563 238.249C346.067 238.149 345.447 237.926 345.497 237.405C345.943 231.848 343.885 226.489 344.183 220.956C344.232 220.088 344.356 219.368 345.373 219.244C346.265 219.79 345.695 221.055 346.563 221.626V221.626Z" fill="#1B4165"/>
<path d="M346.563 221.626C345.026 221.403 345.472 220.187 345.373 219.244C346.439 217.359 347.53 215.572 350.108 215.697C350.133 216.813 350.207 217.756 348.695 218.178C347.133 218.624 346.365 219.914 346.563 221.626Z" fill="#1B4068"/>
<path d="M345.397 209.891C345.992 210.065 346.563 210.238 347.158 210.387L347.753 212.149C348.1 212.546 348.05 212.943 347.753 213.315C346.315 213.265 345.769 215.92 344.53 214.977C343.34 214.084 345.695 212.992 345.397 211.628C345.273 211.082 345.397 210.462 345.397 209.866V209.891Z" fill="#1C4068"/>
<path d="M342.125 230.682V222.098H342.621V230.682H342.125Z" fill="#1D4068"/>
<path d="M347.753 213.315V212.149C348.546 212.223 348.943 212.645 348.893 213.414C348.893 213.786 348.745 214.258 348.298 214.158C348.075 214.109 347.926 213.613 347.753 213.315Z" fill="#1B4660"/>
<path d="M448.779 228.746H446.399C445.804 225.348 444.738 221.899 447.019 218.674L448.779 219.244C450.812 222.42 448.63 225.571 448.779 228.746Z" fill="#204C79"/>
<path d="M446.994 218.674C445.754 221.973 446.672 225.397 446.374 228.747C444.614 228.35 445.482 226.861 445.159 225.844C444.44 223.586 446.994 220.485 443.325 218.872C442.631 218.574 444.168 217.706 443.994 216.863C445.382 215.994 445.655 217.433 446.349 218.004L446.969 218.649L446.994 218.674Z" fill="#184E75"/>
<path d="M446.374 218.029L444.019 216.887H442.829C443.077 215.771 443.796 214.704 444.862 215.002C446.102 215.349 446.597 216.639 446.374 218.029V218.029Z" fill="#1D4C7D"/>
<path d="M451.209 216.838C449.523 216.739 450.44 219.294 448.779 219.244C448.928 217.632 448.011 215.324 451.134 215.697L451.209 216.838V216.838Z" fill="#1F4B7B"/>
<path d="M354.224 155.508C354.62 158.237 353.629 160.693 353.579 163.249C353.579 164.216 353.034 165.333 351.794 165.134C350.48 164.936 350.679 163.819 350.827 162.802C351.298 159.428 352.24 156.079 351.398 152.63C351.174 151.687 351.571 150.72 352.612 150.645C353.703 150.546 354.075 151.538 354.174 152.431C354.273 153.498 354.199 154.59 354.199 155.533L354.224 155.508Z" fill="#F5F0ED"/>
<path d="M352.042 148.363C350.752 148.239 350.381 147.147 350.257 146.105C350.108 144.989 350.455 143.847 351.794 143.698C353.108 143.55 353.703 144.368 353.802 145.658C353.876 146.973 353.529 147.966 352.042 148.338V148.363Z" fill="#F4EFEB"/>
<path d="M438.069 190.763C439.507 191.085 439.507 192.003 438.788 192.921C438.317 193.541 437.747 194.534 436.681 193.541C436.036 192.921 434.573 193.393 434.499 191.954H435.714C436.309 191.135 437.499 191.581 438.094 190.763H438.069Z" fill="#DF84A2"/>
<path d="M453.564 175.281C453.564 173.718 453.564 172.155 453.539 170.568C454.704 170.667 456.663 170.195 455.027 172.453C454.382 173.321 455.398 175.033 453.589 175.281H453.564Z" fill="#DE83A4"/>
<path d="M424.409 175.306C425.004 174.537 425.599 173.743 426.194 172.974C427.16 172.974 428.152 172.974 429.119 172.974C429.317 173.371 429.516 173.768 429.714 174.165C427.706 173.52 426.194 175.058 424.384 175.331L424.409 175.306Z" fill="#D98C9C"/>
<path d="M427.384 183.617C429.07 183.841 428.425 185.726 429.442 186.52C429.739 186.743 429.318 187.339 428.946 187.339C428.524 187.339 427.78 187.066 427.731 186.793C427.508 185.776 427.508 184.684 427.409 183.642L427.384 183.617Z" fill="#DF83A3"/>
<path d="M434.499 191.954C432.986 192.078 431.821 191.631 431.251 189.894C433.234 189.349 433.904 190.589 434.499 191.954Z" fill="#DF84A2"/>
<path d="M453.539 182.427C454.506 182.551 455.845 182.079 455.82 183.791C455.82 184.337 455.448 184.709 454.903 184.709C453.192 184.709 453.663 183.394 453.539 182.427V182.427Z" fill="#DB899C"/>
<path d="M427.383 183.618C426.962 183.394 426.491 183.245 426.168 182.923C425.846 182.625 425.474 182.179 425.449 181.782C425.4 181.335 425.945 181.285 426.317 181.285C426.937 181.285 427.532 181.459 427.606 182.179C427.656 182.65 427.482 183.121 427.408 183.618H427.383Z" fill="#DF83A3"/>
<path d="M438.068 190.763C437.845 192.301 436.631 191.854 435.688 191.929C435.912 190.366 437.126 190.862 438.068 190.763Z" fill="#D5899E"/>
<path d="M480.834 158.063C479.272 157.369 479.024 160.495 477.289 159.279C477.091 156.525 476.917 153.746 476.719 150.992C477.289 150.223 477.834 149.405 478.454 148.66C479.198 147.767 480.239 147.891 481.206 148.164C482.223 148.437 481.826 149.454 482.049 150.149C483.065 153.027 480.487 155.334 480.809 158.063H480.834Z" fill="#C78F65"/>
<path d="M200.937 146.601C201.011 145.41 200.986 144.815 201.085 144.219C201.209 143.55 201.68 143.227 202.35 143.227C203.118 143.227 203.391 143.698 203.366 144.368C203.242 146.949 203.688 149.43 204.507 151.886C204.779 152.704 204.507 153.598 203.639 153.821C202.92 153.995 202.374 153.349 202.226 152.605C201.73 150.422 201.284 148.214 200.937 146.576V146.601Z" fill="#F2EFEE"/>
<path d="M200.986 138.985C200.961 137.794 201.234 136.776 202.498 136.776C203.787 136.776 203.911 137.893 203.961 138.91C204.01 140.051 203.614 140.994 202.399 140.994C201.134 140.994 200.862 139.977 200.961 138.96L200.986 138.985Z" fill="#F0EDEC"/>
<path d="M190.847 114.721C191.764 114.894 192.83 114.373 193.425 115.564C192.21 116.284 191.491 115.713 190.847 114.721Z" fill="#644830"/>
<path d="M444.019 232.319C444.813 234.304 446.647 236.289 444.019 238.249C444.193 236.165 442.11 234.502 442.829 232.294C443.226 231.947 443.623 231.947 444.019 232.294V232.319Z" fill="#1D4D76"/>
<path d="M444.019 232.319H442.829C442.978 231.252 442.507 230.086 443.424 228.871C444.341 230.086 443.87 231.252 444.019 232.319V232.319Z" fill="#1A4E71"/>
</g>
<defs>
<clipPath id="clip0_5118_42583">
<rect width="595" height="287" fill="white"/>
</clipPath>
</defs>
</svg>
