<svg width="595" height="297" viewBox="0 0 595 297" fill="none" xmlns="http://www.w3.org/2000/svg">
<g clip-path="url(#clip0_5484_43229)">
<rect width="595" height="297" fill="#4786FF"/>
<path d="M323.085 108.762C331.016 108.865 338.947 109.2 346.852 109.947C347.418 111.157 346.646 112.111 346.26 113.141C344.663 117.623 346.466 120.792 351.229 121.745C357.1 122.904 362.894 122.08 368.611 120.869C376.567 119.195 384.318 116.825 391.863 113.811C393.202 113.27 394.567 112.883 396.189 112.806C395.262 112.703 394.284 113.012 394.103 111.801C398.481 111.312 402.755 112.394 407.107 112.523C411.047 112.652 415.012 112.755 418.952 113.064C419.158 114.043 418.643 114.867 418.334 115.717C416.222 121.462 417.793 126.356 421.604 130.813C426.78 136.841 433.629 140.061 440.994 142.199C452.633 145.574 464.504 145.625 476.426 143.693C477.791 143.461 479.207 142.714 480.572 143.771C481.627 145.084 482.709 144.028 483.636 143.667C488.503 141.787 493.06 142.225 496.64 146.141C500.373 150.236 501.12 154.951 499.24 160.412C496.408 168.604 490.614 174.22 484.074 179.269C482.039 180.814 481.215 182.102 481.602 184.833C482.142 188.543 481.782 192.407 481.833 196.194C481.833 197.713 481.885 199.233 482.168 200.779C482.786 204.102 479.361 207.451 475.988 207.142C468.933 206.524 461.903 206.807 454.822 207.142C446.839 207.528 438.805 207.374 430.797 207.245C428.299 207.219 427.063 207.863 427.501 210.465C428.067 213.711 426.11 216.931 427.398 220.177C427.81 222.109 426.651 223.294 425.287 224.273C420.935 227.493 415.991 228.858 410.635 228.935C409.914 228.729 409.347 228.369 409.27 227.544C409.579 225.561 411.356 224.556 412.36 223.036C414.78 219.327 416.712 215.36 418.54 211.367C419.827 208.559 419.21 207.76 416.068 207.554C408.678 207.116 401.339 208.481 393.949 208.147C388.284 207.889 382.696 208.997 377.057 208.791C375.743 208.739 374.353 208.971 373.271 207.94C359.804 207.94 346.337 207.94 332.87 208.018C330.423 208.018 327.977 208.43 325.505 208.456C321.463 208.481 319.686 206.936 318.99 202.994C318.887 202.402 318.887 201.758 318.887 201.165C318.656 186.997 318.681 172.829 318.089 158.686C317.729 150.056 317.935 141.452 317.497 132.848C317.317 129.499 316.647 126.15 317.111 122.776C319.325 124.27 318.372 126.176 318.063 127.696C320.613 125.017 322.183 120.122 322.338 113.862C322.389 112.162 321.926 110.385 323.008 108.813L323.085 108.762Z" fill="#F3CDB1"/>
<path d="M165.16 213.376C166.242 211.547 165.521 209.563 165.598 207.657C165.65 206.601 164.8 206.653 164.079 206.653C163.049 206.653 161.993 206.472 160.989 206.678C154.989 207.941 151.951 204.978 149.324 199.877C144.226 189.934 138.432 180.377 132.999 170.613C132.02 168.862 131.093 168.166 128.982 168.965C125.969 170.098 122.75 170.072 119.583 169.299C114.253 167.986 110.339 165.075 109.283 159.51C108.227 153.92 110.802 149.464 115.411 146.733C118.373 144.981 117.729 143.745 116.441 141.529C111.111 132.41 105.935 123.188 100.708 113.991C100.27 113.218 99.5752 112.523 99.6524 111.415C100.116 110.771 100.888 111.029 101.532 111.029C126.407 110.823 151.307 110.642 176.181 110.436C197.786 110.256 219.364 110.024 240.968 109.818C247.432 109.766 253.895 109.844 260.358 109.612C263.139 109.509 262.856 110.488 262.006 112.368C252.891 132.359 243.415 152.22 233.449 171.798C227.913 182.669 222.48 193.566 217.124 204.514C216.326 206.163 215.424 206.781 213.648 206.653C211.098 206.472 208.523 206.549 205.948 206.524C203.322 207.451 200.618 207.503 197.863 207.477C189.546 207.425 181.254 207.425 172.937 207.477C169.667 207.477 169.28 208.224 170.954 211.058C173.194 214.87 176.542 217.575 180.095 220.022C184.061 222.753 188.258 225.149 192.713 227.003C193.923 227.493 195.674 227.699 195.468 229.708C194.284 231.202 192.507 230.945 190.936 231.177C184.344 232.104 177.881 231.512 171.546 229.477C167.71 228.24 165.547 225.715 165.572 221.568C165.572 218.812 164.465 216.132 165.16 213.35V213.376Z" fill="#634731"/>
<path d="M452.169 297.227C434.531 297.253 416.892 297.33 399.227 297.33C380.456 297.33 361.684 297.279 342.912 297.227C341.753 295.888 341.625 294.213 341.522 292.59C340.852 281.848 340.002 271.106 340.26 260.312C340.363 256.319 339.256 252.352 340.054 248.385C340.234 248.024 340.492 247.767 340.852 247.612C344.483 247.045 348.139 246.839 351.796 247.483C352.156 247.638 352.44 247.844 352.697 248.153C353.521 249.776 354.937 250.42 356.663 250.652C359.521 251.013 362.353 251.425 365.237 251.425C378.087 251.373 390.91 251.476 403.759 251.373C410.635 251.322 417.458 250.317 424.334 249.905C429.252 249.621 434.17 249.39 439.037 248.565C443.26 247.87 443.183 247.921 443.311 243.516C443.517 236.973 444.496 230.43 443.414 223.861C443.337 223.346 443.517 222.856 443.775 222.392C444.187 221.594 444.522 220.718 445.037 219.971C446.376 217.987 448.204 216.854 450.676 217.008C453.251 217.189 454.925 218.606 456.058 220.872C456.624 222.032 456.264 223.552 457.577 224.376C457.577 234.345 456.83 244.263 456.444 254.207C455.98 265.902 454.976 277.572 453.792 289.19C453.508 291.895 453.869 294.78 452.195 297.202L452.169 297.227Z" fill="#1D4C77"/>
<path d="M238.136 297.227C226.832 297.253 215.553 297.33 204.249 297.33C182.593 297.33 160.912 297.279 139.256 297.227C137.917 295.373 137.994 293.131 137.814 291.019C136.475 275.485 134.981 259.952 133.591 244.418C133.179 239.832 132.381 235.247 132.664 230.61C133.462 228.781 132.767 226.952 132.638 225.149C132.329 220.898 133.565 218.374 136.423 217.73C139.359 217.06 141.316 218.554 142.964 222.753C144.457 225.819 143.917 229.219 144.277 232.439C144.869 237.823 145.513 243.259 145.693 248.694C145.796 251.554 147.007 253.28 149.582 254.31C156.328 257.015 163.409 258.38 170.594 258.741C189.571 259.694 208.111 257.324 226.111 250.987C228.814 250.034 229.896 248.72 229.741 245.912C229.355 238.441 230.128 230.971 230.128 223.5C232.239 219.095 234.119 217.73 237.029 218.503C240.016 219.301 241.355 221.877 241.149 226.488C241.071 228.343 241.046 230.172 240.994 232.027C241.38 234.062 241.458 236.097 241.458 238.158C241.406 250.678 241.767 263.223 240.788 275.743C240.325 281.668 239.913 287.619 239.449 293.544C239.346 294.883 239.089 296.197 238.084 297.227H238.136Z" fill="#1D4C77"/>
<path d="M230.179 223.5C231.389 224.865 231.337 226.54 231.131 228.163C230.333 234.706 230.642 241.275 230.668 247.844C230.668 250.008 229.895 250.678 227.913 251.373C215.965 255.649 203.682 258.457 191.09 259.436C177.88 260.467 164.619 260.467 151.796 256.087C145.281 253.872 145.358 253.872 144.817 247.148C144.251 239.806 143.53 232.465 142.809 225.123C142.732 224.273 142.68 223.526 142.989 222.753C149.942 218.58 157.229 215.179 165.186 213.376C166.344 216.029 166.293 218.889 166.422 221.697C166.576 225.329 167.889 227.39 171.391 228.549C179.322 231.151 187.382 231.512 195.519 229.502C196.652 227.905 198.532 227.854 200.128 227.364C202.291 226.669 203.321 225.38 203.27 223.088C203.193 220.434 203.296 217.781 203.939 215.179C204.3 213.659 204.918 212.68 206.695 213.427C215.192 215.282 222.917 218.889 230.23 223.526L230.179 223.5Z" fill="#030404"/>
<path d="M452.17 297.227C453.2 285.506 454.307 273.811 455.234 262.064C455.646 256.757 455.929 251.425 455.929 246.092C455.929 239.523 457.011 233.006 456.65 226.437C456.599 225.612 456.573 224.762 457.577 224.376C467.543 225.664 477.534 226.952 487.525 228.24C488.967 228.42 489.765 229.167 489.713 230.662C489.276 245.938 490.589 261.188 491.027 276.438C491.207 282.698 491.464 288.958 491.748 295.218C491.825 296.738 491.542 297.382 489.791 297.356C477.25 297.253 464.71 297.253 452.17 297.227Z" fill="#00603D"/>
<path d="M480.623 143.745C467.388 146.682 454.152 146.759 441.071 143.049C433.295 140.86 426.085 137.459 420.677 131.096C415.785 125.326 415.115 118.422 419.004 113.038C435.638 113.811 452.273 114.609 468.907 115.357C470.658 115.434 472.409 115.46 474.134 115.434C478.126 115.357 480.057 116.928 480.366 120.972C480.623 124.45 480.598 127.954 480.701 131.431C481.01 135.527 481.19 139.623 480.598 143.719L480.623 143.745Z" fill="#864C37"/>
<path d="M443.775 222.367C445.32 227.699 444.934 233.083 444.444 238.493C444.187 241.249 444.187 244.031 444.187 246.788C444.187 248.462 443.517 249.029 441.818 249.235C415.373 252.378 388.85 252.713 362.276 252.172C359.83 252.12 357.409 251.45 354.963 251.296C352.646 251.167 351.925 250.059 352.362 247.947C353.186 246.582 354.603 246.659 355.916 246.504C369.821 244.778 383.546 242.305 396.446 236.535C400.541 234.706 404.944 233.263 407.57 229.193C407.776 228.936 408.008 228.729 408.291 228.575C409.141 228.034 410.145 228.858 410.995 228.317C414.909 227.982 418.643 227.003 422.196 225.329C424.54 224.221 426.445 222.598 427.475 220.1C432.908 220.847 438.342 221.594 443.775 222.341V222.367Z" fill="#00603D"/>
<path d="M340.544 247.999C340.956 260.235 341.29 272.497 341.78 284.733C341.96 288.907 342.501 293.054 342.887 297.202C332.51 297.227 322.158 297.253 311.781 297.33C310.545 297.33 309.953 297.176 310.107 295.656C311.832 279.555 313.455 263.455 315.128 247.355C316.725 245.989 318.656 246.247 320.433 246.479C325.66 247.174 330.913 246.891 336.14 247.02C337.66 247.045 339.256 246.762 340.518 247.999H340.544Z" fill="#00603D"/>
<path d="M132.689 230.636C134.543 233.392 133.796 236.612 134.105 239.575C135.444 251.966 136.371 264.382 137.453 276.799C138.045 283.626 138.663 290.426 139.281 297.253C131.067 297.279 122.852 297.253 114.638 297.382C111.703 297.433 111.368 295.347 110.982 293.363C108.947 282.595 109.334 271.93 112.655 261.446C116.492 249.338 123.161 239.085 132.689 230.662V230.636Z" fill="#030404"/>
<path d="M238.136 297.227C240.402 276.335 240.762 255.366 240.608 234.371C240.608 233.573 240.427 232.722 241.045 232.027C258.736 249.235 265.946 269.895 261.645 294.394C261.259 296.583 260.615 297.485 258.195 297.408C251.526 297.176 244.831 297.279 238.161 297.227H238.136Z" fill="#030404"/>
<path d="M408.42 228.987C407.699 231.563 405.665 232.954 403.476 234.088C390.91 240.605 377.572 244.547 363.512 246.195C359.779 246.633 356.071 247.38 352.363 247.973C352.157 247.973 351.976 247.947 351.77 247.921C351.487 247.483 351.307 246.994 351.333 246.479C351.59 239.343 350.251 232.284 350.715 225.149C350.843 223.345 350.38 221.156 352.775 220.254C353.47 221.723 354.526 222.418 356.199 222.057C361.298 221.001 366.474 220.589 371.624 220.048C372.86 219.842 373.272 220.744 373.581 221.594C374.611 224.299 376.877 225.432 379.4 226.179C387.383 228.498 395.52 229.09 403.785 228.343C405.382 228.214 407.056 227.544 408.42 228.987V228.987Z" fill="#005135"/>
<path d="M408.42 228.987C401.88 229.245 395.339 229.889 388.799 228.987C385.554 228.549 382.31 228.085 379.168 227.081C375.924 226.05 372.963 224.736 372.551 220.718C372.525 220.46 371.958 220.254 371.649 220.022C373.091 219.172 373.04 217.73 373.091 216.339C373.169 213.531 373.272 210.697 373.349 207.889C387.692 207.451 402.034 206.987 416.351 206.627C420.729 206.524 421.45 207.606 419.544 211.495C416.763 217.189 414.291 223.088 409.605 227.622C409.399 228.163 408.961 228.523 408.446 228.755V228.987H408.42Z" fill="#C69065"/>
<path d="M206.643 213.402C205.562 213.479 204.841 213.711 204.661 215.102C204.3 217.807 203.862 220.537 204.146 223.242C204.403 225.921 203.425 227.493 200.747 228.06C198.97 228.446 197.245 228.987 195.494 229.476C190.035 226.488 184.189 224.195 179.142 220.434C175.331 217.601 171.623 214.715 169.538 210.285C168.018 207.09 168.327 206.652 171.907 206.652C181.486 206.652 191.039 206.549 200.618 206.704C202.42 206.73 204.171 205.596 205.948 206.549C205.794 206.652 205.613 206.678 205.433 206.678C204.583 207.631 205.433 208.894 204.815 209.872C204.867 211.341 204.635 212.964 206.669 213.402H206.643Z" fill="#3F2A1B"/>
<path d="M340.543 247.998C332.071 248.127 323.599 247.818 315.153 247.354C314.51 242.769 315.617 238.312 316.158 233.83C316.904 227.673 317.162 227.725 323.471 226.797C329.342 225.947 335.187 225.123 341.058 224.299C342.603 224.633 342.577 225.87 342.448 226.978C341.83 232.8 342.268 238.673 342.114 244.495C342.088 245.732 342.062 246.968 341.161 247.973C340.955 247.973 340.775 247.973 340.569 247.998H340.543Z" fill="#005136"/>
<path d="M394.155 111.802C395.03 111.982 395.931 112.188 397.811 112.574C391.94 114.687 386.945 116.67 381.795 118.293C373.889 120.766 365.855 122.879 357.487 123.188C355.015 123.291 352.543 123.111 350.174 122.441C345.101 120.972 343.453 117.237 345.642 112.446C346.028 111.621 346.44 110.797 346.852 109.973C355.375 109.715 363.847 110.591 372.344 110.874C379.606 111.132 386.893 111.493 394.155 111.802V111.802Z" fill="#864C37"/>
<path d="M341.136 247.973C341.496 240.734 340.337 233.469 341.728 226.256C341.857 225.509 341.651 224.839 341.058 224.324C341.264 223.242 341.393 222.135 341.651 221.053C342.294 218.296 344.123 216.338 346.826 216.235C349.453 216.132 352.054 217.06 352.8 220.28C350.715 225.535 351.719 230.97 352.002 236.329C352.208 240.219 352.62 244.083 351.77 247.947C348.217 247.947 344.663 247.998 341.136 248.024V247.973Z" fill="#194064"/>
<path d="M323.085 108.762C323.574 116.155 323.085 123.291 317.781 129.834C317.549 127.078 317.343 124.914 317.163 122.724C317.163 119.968 317.034 117.186 317.163 114.429C317.317 110.411 319.223 108.659 323.085 108.762Z" fill="#884E3A"/>
<path d="M480.623 143.745C480.649 139.649 480.675 135.553 480.726 131.431C481.421 135.527 481.833 139.649 480.623 143.745Z" fill="#F3CDB1"/>
<path d="M204.79 209.873C204.738 208.765 204.197 207.554 205.408 206.678C205.202 207.734 204.996 208.816 204.79 209.873Z" fill="#634731"/>
<path d="M356.508 174.555C349.246 175.147 342.165 174.555 335.419 171.541C332.457 170.227 329.934 168.346 327.822 165.899C323.574 160.979 323.702 154.796 328.234 150.108C333.771 144.415 340.955 142.946 348.474 142.611C350.74 142.508 353.238 141.89 355.246 143.719C355.941 144.054 356.328 144.646 356.585 145.316C360.01 154.461 359.855 163.735 357.564 173.086C357.409 173.705 356.92 174.117 356.508 174.58V174.555Z" fill="#625C58"/>
<path d="M427.527 184.163C427.63 183.133 427.218 181.896 427.913 180.917C428.918 179.526 429.922 177.852 432.085 178.47C434.454 179.166 435.587 180.892 435.561 183.339C435.51 187.77 437.621 190.913 441.278 193.205C444.908 195.498 449.801 195.343 453.432 192.742C457.037 190.191 458.891 185.554 457.938 181.433C457.68 180.325 457.397 179.243 457.088 178.161C456.393 175.92 456.779 174.014 459.071 173.06C461.466 172.081 463.217 173.06 464.401 175.302C467.877 181.845 466.255 191.428 461.028 196.683C449.415 208.378 431.261 202.067 427.965 187.847C427.682 186.636 427.579 185.426 427.527 184.138V184.163Z" fill="#DD859F"/>
<path d="M416.068 172.803C414.935 172.803 413.802 172.803 412.669 172.803C409.785 172.803 407.699 171.18 407.854 168.81C408.008 166.028 409.914 164.972 412.412 164.766C415.167 164.56 417.948 164.457 420.703 164.302C434.144 163.632 447.56 162.937 461.002 162.267C462.212 162.215 463.448 162.112 464.581 162.859C466.281 163.941 466.924 165.487 466.409 167.342C465.791 169.531 464.014 170.227 461.877 170.33C455.517 170.613 449.157 170.923 442.796 171.257C433.887 171.721 424.952 172.185 416.042 172.648C416.042 172.7 416.042 172.752 416.042 172.803H416.068Z" fill="#864C38"/>
<path d="M356.508 174.555C357.847 167.702 358.929 160.85 357.899 153.792C357.384 150.314 356.199 147.042 355.272 143.693C356.019 142.895 356.972 143.049 357.847 143.255C362.431 144.415 366.834 145.857 370.697 148.768C380.404 156.136 377.52 166.492 367.658 171.36C364.182 173.086 360.422 174.168 356.534 174.529L356.508 174.555Z" fill="#EEEDEC"/>
<path d="M353.083 129.808C359.907 130.014 366.139 130.426 372.113 132.642C374.739 133.621 377.237 134.806 379.014 137.073C379.838 138.129 380.61 139.391 379.297 140.628C377.906 141.916 376.876 140.963 375.949 139.855C373.555 136.97 370.13 135.991 366.731 135.295C355.478 133.028 344.303 132.745 333.565 137.743C332.329 138.309 331.093 138.618 330.346 137.227C329.471 135.682 330.552 134.703 331.788 134.007C335.985 131.663 340.672 130.839 345.333 130.22C348.062 129.86 350.869 129.886 353.083 129.782V129.808Z" fill="#864C38"/>
<path d="M481.937 160.824C481.885 159.15 481.782 156.883 482.503 154.719C483.224 152.607 484.718 151.061 487.035 151.447C489.533 151.86 490.151 153.998 489.791 156.187C489.224 159.768 487.808 163.04 485.413 165.822C484.744 166.595 483.971 167.445 482.812 167.084C481.422 166.672 482.014 165.384 481.937 164.457C481.86 163.452 481.937 162.421 481.937 160.824Z" fill="#C79065"/>
<path d="M408.42 228.755C408.807 228.369 409.193 228.008 409.579 227.622C410.043 227.854 410.506 228.086 410.97 228.317C410.171 228.884 409.322 228.936 408.395 228.73L408.42 228.755Z" fill="#CCB292"/>
<path d="M201.081 119.118C207.081 119.401 214.78 120.715 221.681 125.094C224.359 126.794 225.312 129.68 224.153 131.921C222.891 134.342 219.75 135.27 216.892 133.827C204.48 127.541 192.197 128.185 179.966 134.291C176.619 135.965 173.4 135.295 172.138 132.745C170.928 130.272 171.984 127.438 174.765 125.738C181.588 121.591 190.704 119.118 201.107 119.118H201.081Z" fill="#010101"/>
<path d="M194.231 138.206C202.986 136.635 211.175 137.82 217.999 143.874C221.964 147.377 221.784 152.22 218.102 156.058C212.359 162.035 204.969 163.014 197.218 162.859C196.343 162.859 196.111 162.035 195.545 161.648C194.025 160.773 193.794 159.201 193.485 157.707C192.3 152.349 192.686 146.913 192.815 141.504C192.841 140.241 193.304 139.108 194.231 138.206Z" fill="#010101"/>
<path d="M194.232 138.206C192.893 146.115 192.97 153.946 195.545 161.649C195.468 162.241 195.571 162.962 194.618 162.808C188.979 162.035 183.469 160.824 179.374 156.419C175.975 152.761 175.924 148.227 179.374 144.595C183.391 140.37 188.49 138.515 194.206 138.206H194.232Z" fill="#FBF2EC"/>
<path d="M162.019 177.723C161.916 175.508 162.044 173.473 163.409 171.721C164.207 170.691 165.16 169.944 166.576 170.588C167.838 171.18 168.147 172.417 167.709 173.473C165.469 178.599 167.246 182.489 171.469 185.426C176.078 188.646 181.151 189.213 186.352 186.92C189.288 185.632 191.09 183.391 191.193 180.042C191.245 178.239 191.76 176.513 193.871 176.744C195.906 176.951 196.189 178.78 196.137 180.531C196.034 185.503 192.172 190.475 186.636 192.175C178.962 194.545 172.01 192.974 166.139 187.435C163.383 184.808 161.632 181.587 162.044 177.723H162.019Z" fill="#DD0E26"/>
<path d="M123.342 163.478C120.097 163.375 117.11 161.108 116.647 158.171C116.235 155.569 117.393 153.585 119.685 152.349C121.41 151.447 123.007 151.319 124.088 153.405C124.938 155.054 125.942 156.599 126.766 158.248C128.183 161.133 126.535 163.581 123.342 163.478Z" fill="#3F2B1B"/>
<path d="M397.399 290.658C399.434 289.731 400.567 289.757 402.343 290.813C400.567 291.277 399.459 291.251 397.399 290.658Z" fill="#08555E"/>
<path d="M355.298 161.108C355.684 163.684 354.654 166.157 354.628 168.707C354.628 169.84 354.036 171.128 352.594 170.794C351.307 170.51 351.641 169.274 351.77 168.218C352.182 164.817 353.238 161.442 352.337 157.939C352.079 156.96 352.362 155.93 353.444 155.749C354.757 155.543 355.143 156.677 355.221 157.707C355.324 158.815 355.221 159.948 355.221 161.082L355.298 161.108Z" fill="#F5F0ED"/>
<path d="M354.783 151.164C354.783 152.478 354.062 153.457 352.8 153.302C351.358 153.122 351.049 151.731 351.101 150.494C351.152 149.438 351.693 148.433 352.981 148.536C354.577 148.665 354.86 149.824 354.783 151.19V151.164Z" fill="#F4EFEC"/>
<path d="M196.009 151.602C196.06 150.34 196.034 149.721 196.137 149.103C196.24 148.408 196.73 148.073 197.425 148.047C198.223 148.047 198.532 148.485 198.506 149.206C198.378 151.885 198.815 154.461 199.691 157.012C199.974 157.836 199.768 158.841 198.815 159.021C197.888 159.227 197.425 158.428 197.245 157.527C196.807 155.337 196.318 153.173 195.957 151.602H196.009Z" fill="#F3EFEC"/>
<path d="M197.656 141.272C198.97 141.607 199.15 142.586 199.15 143.667C199.15 144.852 198.738 145.78 197.45 145.728C196.06 145.677 196.034 144.543 196.034 143.461C196.034 142.276 196.472 141.504 197.656 141.272V141.272Z" fill="#F1EDEA"/>
</g>
<defs>
<clipPath id="clip0_5484_43229">
<rect width="595" height="297" fill="white"/>
</clipPath>
</defs>
</svg>
