<svg width="595" height="297" viewBox="0 0 595 297" fill="none" xmlns="http://www.w3.org/2000/svg">
<g clip-path="url(#clip0_5484_43238)">
<rect width="595" height="297" fill="#5F95EF"/>
<path d="M175.177 234.861C176.13 233.701 176.928 226.849 176.181 225.844C175.512 224.943 174.508 225.226 173.606 225.278C164.311 225.87 155.041 226.488 145.745 227.055C142.166 227.287 138.638 227.802 135.033 227.725C132.896 227.673 131.814 227.107 131.84 224.737C131.917 213.376 131.479 201.99 132.123 190.681C132.406 185.761 131.505 181.974 128.492 178.316C126.304 175.637 124.553 172.597 123.239 169.325C120.046 161.314 119.815 152.143 128.93 146.295C130.295 145.316 131.531 146.218 132.69 146.656C135.059 147.557 136.732 146.939 138.355 145.007C157.719 121.823 182.825 108.298 211.897 101.523C214.961 100.802 218.205 101.059 221.192 99.9517C222.094 100.956 223.304 100.596 224.385 100.57C229.922 100.415 235.458 100.853 240.994 100.055C244.367 99.591 246.015 100.956 246.53 104.254C248.05 114.043 249.389 123.858 250.444 133.724C251.526 143.874 252.839 154.023 253.946 164.173C254.513 169.248 254.899 174.349 255.311 179.449C256.135 189.547 256.908 199.62 257.732 209.718C257.963 212.578 257.423 215.463 258.247 218.296C258.607 219.559 257.706 220.125 256.496 220.254C254.873 220.435 253.251 220.718 251.629 220.795C242.822 221.259 233.99 221.439 225.235 222.238C221.682 222.547 218.025 222.135 214.575 223.294C209.476 223.474 204.403 224.221 199.279 224.17C194.773 224.118 190.267 224.118 185.786 224.788C183.005 225.226 181.821 226.334 181.537 229.142C181.048 233.779 182.31 237.849 185.426 241.326C187.228 243.336 189.34 244.907 191.606 246.35C192.481 246.917 193.794 247.2 193.64 248.72C189.082 250.446 180.198 248.179 177.211 244.572C175.821 242.898 175.409 240.94 175.46 238.828C175.486 237.488 175.254 236.174 175.177 234.861V234.861Z" fill="#F4CAAD"/>
<path d="M428.068 223.757C466.564 232.516 491.438 256.139 504.004 293.183C504.262 293.955 504.442 294.754 504.674 295.553C505.034 296.892 504.545 297.485 503.155 297.33C502.537 297.278 501.919 297.33 501.301 297.33C442.797 297.33 384.293 297.33 325.763 297.33C322.184 297.33 322.132 297.33 323.033 293.698C331.479 259.668 351.899 236.612 385.606 225.792C387.022 226.411 386.996 227.725 387.022 228.91C387.099 231.383 387.82 233.753 388.413 236.123C389.108 238.93 391.142 240.579 393.743 241.635C397.708 243.284 401.88 243.619 406.103 243.387C411.51 243.619 416.635 242.331 421.604 240.399C424.617 239.214 426.085 237.05 426.085 233.804C426.085 231.254 425.956 228.703 426.162 226.153C426.265 225.02 426.162 223.526 428.068 223.732V223.757Z" fill="#211A17"/>
<path d="M428.067 223.758C426.522 223.809 426.651 224.917 426.702 225.947C426.805 228.498 426.96 231.074 427.037 233.624C427.14 237.127 425.827 239.703 422.376 241.094C417.072 243.207 411.664 244.495 405.922 244.263C405.922 242.511 407.467 241.945 408.471 241.043C413.724 236.38 416.84 230.455 418.848 223.861C419.389 222.032 419.132 221.078 416.891 221.491C407.724 223.165 398.66 221.929 389.622 220.383C388.154 220.125 386.764 220.022 385.476 220.898C385.245 218.116 383.313 217.008 381.073 215.772C365.469 207.193 356.765 193.437 352.259 176.667C350.225 169.068 350.122 161.314 350.482 153.534C351.023 152.658 350.25 151.808 350.405 150.932C350.559 144.775 352.388 139.005 354.654 133.415C359.752 120.843 367.245 109.972 378.395 101.935C379.477 101.162 380.455 100.209 381.923 100.235C384.987 101.935 386.532 105.104 388.747 107.577C394.283 113.785 400.901 118.602 407.879 122.93C418.127 129.267 429.071 134.11 440.478 138.077C448.976 141.04 457.782 142.405 466.512 144.234C469.524 144.852 472.563 145.316 475.524 146.166C483.97 148.974 488.991 155.26 488.837 162.808C488.837 163.941 488.863 165.075 488.039 165.976C487.472 168.089 486.957 170.227 485.644 172.056C485.515 173.447 483.558 174.039 484.047 175.688C482.065 176.925 480.365 178.676 478.073 179.449C476.528 179.964 475.009 180.711 473.335 179.836C472.202 177.981 474.494 176.744 474.211 174.426C471.945 175.714 471.25 177.491 470.915 179.604C470.709 180.866 471.275 182.309 469.988 183.287C469.73 182.643 469.447 181.999 469.138 181.252C465.559 189.47 460.744 196.838 454.641 203.2C447.354 210.774 438.65 216.313 428.762 219.945C425.852 221.027 425.801 221.542 428.041 223.809L428.067 223.758Z" fill="#F4C5AD"/>
<path d="M175.177 234.861C177.623 235.556 176.593 237.694 176.465 238.931C176.001 242.821 178.01 244.933 181.048 246.453C184.988 248.411 189.237 248.926 193.614 248.565C195.185 247.406 197.09 247.509 198.867 247.226C202.034 246.711 204.944 245.629 207.88 244.341C211.073 242.924 212.643 240.786 212.618 237.256C212.618 235.685 212.257 233.47 215.09 233.701C258.942 240.451 284.589 272.136 291.747 297.227H93.2148C111.755 264.434 138.741 243.49 175.177 234.886V234.861Z" fill="#020202"/>
<path d="M221.192 99.9515C220.213 100.621 219.492 101.574 218.102 101.677C200.051 103.223 184.112 110.616 168.894 119.787C157.1 126.897 146.44 135.372 138.148 146.501C136.964 148.098 135.599 148.407 133.848 147.841C132.2 147.3 130.552 146.81 128.93 146.269C122.415 143.436 116.106 140.344 110.802 135.45C106.218 131.225 102.871 126.33 101.532 120.199C101.223 118.834 100.965 118.499 99.3943 118.937C90.5363 121.333 84.0731 126.408 80.6483 135.038C80.0303 136.557 79.0003 136.712 77.6871 136.403C71.4556 134.857 65.1726 133.44 59.3788 130.504C54.8468 128.185 52.5808 124.167 52.3748 119.324C51.7053 103.352 57.4218 90.0336 70.0908 80.1157C78.5368 73.4952 87.6266 74.4999 96.5876 79.2399C102.639 82.46 107.66 86.9938 111.935 92.3263C112.733 93.3052 113.093 94.3099 114.716 93.1507C125.247 85.474 137.298 81.6871 150.019 79.7551C165.881 77.3593 181.563 78.261 196.935 82.8979C205.562 85.4997 213.518 89.4411 220.316 95.5464C221.758 96.8344 222.814 98.071 221.218 99.9257L221.192 99.9515Z" fill="#020202"/>
<path d="M488.066 165.951C488.478 155.672 485.439 151.087 475.294 146.759C476.839 141.349 476.813 141.427 470.865 140.061C461.621 137.949 452.943 134.214 444.265 130.427C427.244 122.982 411.485 113.425 396.962 101.858C393.126 98.7926 389.572 95.3664 386.637 91.3735C387.615 89.0035 389.649 87.6124 391.658 86.2986C395.649 83.671 399.872 81.4556 404.713 80.8631C422.481 76.3292 438.961 79.4463 454.076 89.5187C464.402 96.3968 472.075 105.593 476.298 117.418C476.813 118.86 477.071 119.607 479.337 119.298C496.744 116.799 510.134 129.783 509.67 144.724C509.335 155.672 499.01 165.925 488.04 165.951H488.066Z" fill="#A1472A"/>
<path d="M404.713 80.8629C400.696 82.6919 396.473 84.0314 392.662 86.4529C390.473 87.844 389.006 89.9564 386.817 91.2187C386.868 92.0688 386.559 92.8416 385.967 93.3826C383.856 95.3146 382.517 97.6846 381.796 100.441C363.874 112.677 354.011 129.834 350.921 151.087C350.69 151.499 350.561 152.04 349.891 151.705C344.767 132.59 350.355 116.078 362.406 101.265C370.311 91.5536 380.354 85.0103 392.585 81.8675C396.602 80.8371 400.619 80.6568 404.713 80.8629V80.8629Z" fill="#873A22"/>
<path d="M215.063 233.676C213.029 233.907 213.415 235.633 213.518 236.741C213.93 241.249 211.638 243.748 207.776 245.371C203.244 247.303 198.557 248.539 193.588 248.539C189.674 246.092 185.785 243.722 183.107 239.755C180.661 236.097 180.223 232.104 180.738 227.982C180.996 225.896 182.206 224.067 184.704 223.938C193.691 223.5 202.703 223.088 211.716 222.701C212.694 222.65 213.801 222.367 214.6 223.294C214.419 225.896 214.265 228.498 214.033 231.099C213.93 232.181 214.033 233.083 215.063 233.65V233.676Z" fill="#D8A683"/>
<path d="M385.477 220.924C385.554 219.043 386.455 218.966 388.129 219.249C394.85 220.46 401.596 221.697 408.446 221.439C411.484 221.31 414.548 221.001 417.561 220.563C420.419 220.151 420.703 220.331 419.982 223.036C417.69 231.692 413.209 238.931 405.922 244.289C403.888 244.263 401.828 244.418 399.819 244.16C390.318 242.898 387.125 239.523 386.223 229.992C386.095 228.575 386.198 227.107 385.58 225.767C385.554 224.144 385.502 222.521 385.477 220.898V220.924Z" fill="#D48B81"/>
<path d="M484.279 175.173C482.605 173.19 484.949 172.983 485.644 172.03C489.712 175.07 492.159 178.805 490.639 184.138C489.172 189.264 485.258 192.124 479.979 191.995C474.983 191.866 471.172 188.543 470.014 183.288C470.117 180.377 469.782 177.337 472.022 174.915C472.82 174.04 473.644 172.752 475.035 173.782C476.297 174.709 475.395 175.688 474.777 176.667C474.185 177.595 473.825 178.677 473.361 179.681C474.159 180.634 473.902 181.845 474.159 182.927C474.829 185.555 476.4 187.306 479.078 187.873C481.756 188.44 484.022 187.435 485.592 185.297C487.215 183.082 487.498 180.583 486.03 178.058C485.464 177.105 484.459 176.41 484.279 175.199V175.173Z" fill="#F4C35D"/>
<path d="M349.865 151.731C350.2 151.524 350.56 151.318 350.895 151.112C351.024 151.962 351.281 152.838 350.457 153.534C350.251 152.941 350.045 152.323 349.865 151.731V151.731Z" fill="#B67760"/>
<path d="M197.76 130.71C196.55 130.942 195.443 130.865 194.953 129.525C194.541 128.366 195.288 127.567 196.086 126.872C205.382 118.654 222.042 118.551 228.583 125.919C229.175 126.588 230.076 126.949 230.875 127.413C242.694 134.033 248.076 147.764 243.775 160.412C239.269 173.627 227.012 180.969 212.747 178.96C200.284 177.208 190.087 165.77 189.675 152.632C189.417 144.312 192.61 137.228 198.481 131.354C199.511 129.164 201.751 128.469 203.528 127.207C203.914 127.052 203.219 126.743 203.528 127.026C203.605 127.104 203.554 127.207 203.399 127.258C201.339 128.082 199.923 130.04 197.76 130.684V130.71Z" fill="#010101"/>
<path d="M168.301 178.96C168.121 183.622 168.945 187.615 171.16 191.196C175.099 197.636 182.309 198.538 188.644 193.411C191.888 190.784 194.36 187.564 196.163 183.777C196.987 182.077 198.326 181.072 200.36 181.278C202.111 181.458 203.064 182.515 203.63 184.112C203.991 185.091 203.785 186.018 203.399 186.791C198.995 195.421 193.15 202.453 182.927 204.257C175.434 205.57 168.379 202.041 164.336 195.06C161.194 189.65 160.061 183.777 160.345 177.62C160.499 174.245 162.199 172.133 164.593 172.185C167.065 172.236 168.327 174.142 168.301 177.878C168.301 178.393 168.301 178.908 168.301 178.96V178.96Z" fill="#AF644A"/>
<path d="M132.484 162.679C132.484 164.637 132.484 166.595 132.484 168.527C132.484 169.48 132.407 170.459 131.274 170.742C130.166 171.025 129.935 169.995 129.548 169.325C127.72 166.157 126.51 162.859 126.896 159.072C127.025 157.887 127.308 156.831 128.055 155.955C128.93 154.925 130.063 153.946 131.48 154.436C132.819 154.899 132.458 156.316 132.484 157.398C132.51 159.15 132.484 160.901 132.484 162.627V162.679Z" fill="#D8A683"/>
<path d="M197.76 130.71C199.743 128.469 202.318 127.129 205.356 126.485C203.064 128.108 200.798 129.731 198.507 131.354C198.249 131.148 198.017 130.916 197.76 130.71Z" fill="#DCB69C"/>
<path d="M381.796 100.467C381.203 97.8135 382.62 95.9587 384.268 94.1555C385.143 93.2023 385.967 92.1977 386.817 91.2188C395.675 100.802 406.104 108.427 417.15 115.176C434.841 125.944 453.303 135.012 473.569 139.907C474.959 140.241 477.148 139.907 477.431 141.684C477.714 143.513 477.148 145.548 475.268 146.759C468.161 145.368 461.054 144.054 453.973 142.534C438.549 139.185 424.18 133.183 410.481 125.377C404.198 121.797 398.585 117.417 392.971 113.038C389.186 110.076 386.276 106.134 383.392 102.296C382.903 101.652 382.62 100.853 381.77 100.518L381.796 100.467Z" fill="#BAA498"/>
<path d="M383.006 162.988C382.336 164.791 382.774 166.646 382.748 168.449C382.748 169.48 382.568 170.175 381.28 170.278C373.298 170.999 366.114 169.377 360.964 162.808C355.479 155.801 357.178 146.681 364.878 141.529C369.796 138.232 375.255 136.995 381.229 138C383.057 138.309 383.212 139.056 383.212 140.576C383.16 145.702 383.212 150.829 383.263 155.929C384.448 158.325 384.628 160.669 383.031 162.962L383.006 162.988Z" fill="#010101"/>
<path d="M448.049 173.292C448.049 183.365 442.461 191.505 434.118 194.494C425.234 197.688 415.63 195.241 409.784 188.234C408.935 187.203 408.059 186.173 407.776 184.808C407.441 183.159 407.827 181.742 409.347 180.815C410.737 179.965 412.128 180.042 413.338 181.072C414.11 181.716 414.754 182.541 415.449 183.288C420.651 188.981 428.093 189.985 434.376 185.838C440.298 181.948 442.101 174.426 438.805 167.574C438.573 167.11 438.315 166.672 438.135 166.183C437.26 164.122 437.491 162.293 439.551 161.133C441.663 159.923 443.388 160.876 444.598 162.602C447.019 166.079 447.92 170.047 447.997 173.267L448.049 173.292Z" fill="#E42C29"/>
<path d="M383.006 162.988C383.083 160.644 383.16 158.3 383.238 155.955C384.216 151.293 383.521 146.604 383.701 141.916C383.83 138.593 384.036 138.309 386.92 139.597C394.387 142.92 397.735 148.073 397.735 154.564C397.735 161.107 391.915 167.445 385.272 169.299C383.753 169.712 383.186 169.505 383.186 167.908C383.186 166.285 383.083 164.637 383.006 163.014V162.988Z" fill="#F2EEEE"/>
<path d="M478.795 162.525C478.795 167.033 475.989 170.279 472.384 170.459C471.302 170.51 470.658 170.227 470.864 169.197C471.688 165.101 471.482 160.902 472.538 156.806C473.13 154.513 473.98 154.668 475.371 156.033C477.276 157.913 479.362 159.717 478.77 162.499L478.795 162.525Z" fill="#D19480"/>
<path d="M376.079 127.722C380.766 127.464 385.22 128.495 389.495 130.298C390.396 130.659 391.632 131.148 390.885 132.513C390.267 133.673 389.289 133.003 388.465 132.668C381.718 129.834 374.843 129.267 367.788 131.277C365.599 131.895 363.59 132.874 361.814 134.317C361.221 134.806 360.5 135.527 359.676 134.651C358.749 133.647 359.522 132.925 360.217 132.359C363.925 129.345 368.277 128.082 372.963 127.773C373.993 127.696 375.023 127.773 376.028 127.773L376.079 127.722Z" fill="#883B23"/>
<path d="M200.798 166.002C192.738 156.986 193.356 143.822 202.266 135.759C204.068 134.445 205.819 133.08 207.957 132.307C209.038 131.895 209.939 131.715 210.274 133.183C210.145 137.897 209.218 142.534 209.244 147.3C209.27 154.565 209.965 161.649 212.566 168.475C212.823 169.145 213.029 169.841 212.952 170.588C211.819 172.262 210.248 171.567 208.884 171.154C205.716 170.201 203.27 168.089 200.798 166.028V166.002Z" fill="#F9F3F0"/>
<path d="M200.797 166.002C203.012 166.44 204.273 168.424 206.282 169.248C208.368 170.098 210.402 171.077 212.719 170.897C214.496 170.33 216.35 170.536 218.153 170.227C229.019 168.398 235.92 158.686 233.989 147.763C232.186 137.588 222.221 130.787 211.844 132.668C211.149 132.796 210.453 133.028 209.732 132.693C206.617 132.23 204.866 135.063 202.239 135.759C208.136 129.808 215.32 128.237 223.148 130.272C231.568 132.462 236.924 138.206 239.087 146.553C241.585 156.161 237.002 166.234 228.221 171.128C219.595 175.946 208.574 174.348 201.621 167.239C201.286 166.878 201.055 166.414 200.771 166.002H200.797Z" fill="#F3CAAC"/>
<path d="M380.018 159.381C380.018 160.592 380.018 161.829 380.018 163.039C380.018 163.993 379.58 164.611 378.627 164.688C377.674 164.765 376.979 164.224 376.979 163.297C376.979 160.463 376.644 157.604 377.391 154.796C377.597 154.023 378.009 153.534 378.885 153.611C379.786 153.688 380.069 154.332 380.095 155.105C380.121 156.522 380.095 157.965 380.095 159.381H380.043H380.018Z" fill="#F1ECEC"/>
<path d="M380.637 148.536C380.302 149.541 379.967 150.7 378.5 150.546C377.186 150.417 376.903 149.387 376.98 148.305C377.058 147.171 377.779 146.321 378.912 146.347C380.096 146.373 380.637 147.3 380.637 148.536V148.536Z" fill="#EBE6E5"/>
<path d="M209.759 132.694C215.192 130.04 223.406 131.766 228.788 136.686C234.736 142.148 236.796 151.112 233.809 158.686C230.848 166.182 223.406 171.36 215.449 171.386C214.548 171.386 213.647 171.051 212.746 170.871C207.518 159.433 207.518 147.506 209.347 135.398C209.475 134.497 209.63 133.569 209.784 132.668L209.759 132.694Z" fill="#4E3525"/>
<path d="M215.862 162.988C215.836 163.967 216.196 165.1 214.935 165.332C213.493 165.616 213.415 164.482 213.209 163.426C212.334 159.021 212.205 154.538 211.793 150.082C211.716 149.129 211.845 148.124 213.106 148.098C214.111 148.073 214.523 148.845 214.548 149.721C214.651 154.204 215.244 158.634 215.887 162.988H215.862Z" fill="#FBEFE5"/>
<path d="M215.192 142.148C215.063 143.255 214.548 143.874 213.415 143.874C212.102 143.874 211.561 143.049 211.613 141.941C211.638 140.86 212.179 139.932 213.492 140.035C214.754 140.138 215.037 141.143 215.192 142.122V142.148Z" fill="#F1E4DB"/>
</g>
<defs>
<clipPath id="clip0_5484_43238">
<rect width="595" height="297" fill="white"/>
</clipPath>
</defs>
</svg>
