<svg width="595" height="297" viewBox="0 0 595 297" fill="none" xmlns="http://www.w3.org/2000/svg">
<g clip-path="url(#clip0_5484_43216)">
<rect width="595" height="297" fill="#5685C4"/>
<path d="M368.225 211.109C361.143 210.749 354.062 211.109 346.981 211.315C341.445 211.496 335.882 211.805 330.346 211.753C325.66 211.702 321.463 207.013 321.385 202.144C321.154 189.213 320.947 176.281 320.767 163.349C320.561 150.005 320.407 136.661 320.227 123.317C320.227 122.595 320.098 121.9 320.021 121.179C320.381 120.328 321.153 120.406 321.849 120.431C338.329 120.663 354.68 119.375 370.8 115.795C385.863 112.446 400.309 107.551 412.952 98.3545C415.682 96.371 418.411 94.2843 419.467 90.8066C420.008 89.6989 420.523 88.5397 422.093 88.7458C428.866 88.5655 435.664 88.3594 442.436 88.2306C446.376 88.1533 448.513 90.2657 448.539 94.2328C448.642 106.031 449.672 117.804 450.264 129.577C450.341 131.302 450.753 132.307 452.685 132.745C456.006 133.492 459.019 135.141 461.645 137.356C471.945 146.012 469.602 159.485 456.985 164.147C452.195 165.925 452.092 165.925 452.324 170.897C452.788 181.046 453.354 191.196 453.998 201.32C454.229 205.236 451.423 208.353 446.994 208.507C438.058 208.842 429.123 209.048 420.188 209.332C415.965 209.461 411.768 209.718 407.545 209.718C405.768 209.718 405.562 210.439 405.665 211.934C405.897 214.999 406 218.09 406.154 221.156C409.141 226.952 406.721 233.263 401.159 235.917C398.069 237.359 395.03 238.802 391.58 239.085C386.945 239.704 382.284 240.579 377.752 238.544C377.288 236.329 379.297 236.483 380.379 236.046C389.52 232.284 395.854 225.844 399.279 216.57C399.588 215.695 399.923 214.844 400.052 213.917C400.335 211.908 399.562 210.723 397.425 210.671C394.953 210.62 392.481 210.465 390.035 210.774C382.773 211.676 375.486 211.161 368.225 211.161V211.109Z" fill="#5F3C1E"/>
<path d="M162.791 229.502C163.177 225.329 163.538 221.156 163.924 216.983C164.078 215.257 162.92 215.308 161.735 215.282C151.178 214.87 140.62 214.329 130.063 214.097C126.947 214.02 125.428 212.964 124.629 210.001C122.93 203.561 120.767 197.25 119.196 190.784C118.527 188.053 117.265 187.435 114.741 187.564C109.9 187.77 105.42 186.353 101.351 183.7C89.7125 176.049 90.5107 161.88 102.974 155.672C104.261 155.028 105.6 154.487 106.965 154.049C108.355 153.611 108.355 152.787 107.866 151.705C108.922 150.984 109.823 151.705 110.776 152.014C118.527 154.719 125.556 153.56 131.685 148.021C134.904 145.136 135.187 145.084 138.457 148.227C142.835 152.478 147.804 155.002 154.19 154.719C161.22 154.384 166.19 151.009 168.07 144.26C168.739 141.864 169.924 140.396 172.396 139.623C176.696 138.258 178.164 134.729 178.601 130.555C178.73 129.19 178.344 127.619 179.812 126.614C183.803 125.996 187.768 126.537 191.734 126.769C194.644 126.949 197.708 125.996 200.463 127.722C210.995 128.598 221.578 128.572 232.136 128.958C239.011 129.216 245.886 129.422 252.761 129.551C255.336 129.602 256.341 131.096 256.186 133.286C255.388 146.166 254.461 159.021 253.585 171.901C253.122 178.754 252.71 185.606 252.298 192.433C251.834 200.315 251.397 208.172 250.985 216.055C250.882 218.065 249.98 219.095 247.895 218.992C236.539 218.399 225.157 217.781 213.802 217.317C210.995 217.214 208.111 216.519 205.356 217.755C203.605 219.095 201.596 218.657 199.716 218.451C193.176 217.781 186.61 217.781 180.069 217.395C177.52 217.24 174.971 217.06 172.396 216.828C168.894 216.519 167.658 217.961 168.456 221.439C169.177 224.608 170.876 227.313 173.117 229.631C175.743 232.362 178.37 235.092 181.563 237.23C182.309 237.72 183.185 238.184 183.236 239.266C182.721 240.116 181.872 240.502 180.945 240.579C174.687 241.069 168.971 239.832 164.49 235.041C163.048 233.495 162.199 231.666 162.791 229.451V229.502Z" fill="#F3C6A3"/>
<path d="M162.791 229.502C164.98 237.591 173.426 241.687 183.056 239.292C184.06 238.338 185.322 238.57 186.532 238.519C191.039 238.287 195.365 237.308 199.588 235.737C201.184 235.144 202.369 234.114 203.296 232.723C203.811 231.924 203.965 230.713 205.304 230.713C238.985 241.043 258.89 264.795 270.477 297.227H85.2061C101.403 263.223 125.35 238.725 162.791 229.528V229.502Z" fill="#7F8A26"/>
<path d="M179.554 127.206C179.451 129.345 179.554 131.483 178.911 133.595C177.803 137.382 175.563 139.906 171.675 140.705C170.13 141.014 169.383 141.761 169.151 143.281C167.323 154.899 154.319 158.248 144.895 153.894C141.625 152.375 138.766 150.133 136.397 147.377C135.445 146.295 134.801 146.141 133.719 147.248C126.2 154.976 117.497 156.136 107.866 151.705C105.24 149.592 102.459 147.583 101.12 144.312C100.528 142.895 99.1372 142.895 98.0299 142.637C91.6697 141.091 86.9574 137.614 85.3609 131.07C83.6357 123.935 86.1334 117.778 90.7169 112.317C90.9229 112.085 91.1289 111.75 91.3864 111.724C95.8927 110.848 96.3047 106.804 98.1587 103.61C103.437 94.4388 111.652 89.8018 122.312 90.0337C127.102 90.1367 130.887 92.5325 134.054 96.0102C134.569 96.5769 134.852 97.8392 136.14 96.783C141.573 92.4037 147.032 93.8205 152.465 96.783C153.006 97.0663 153.547 97.3497 154.088 97.6331C157.821 99.2818 159.804 102.502 161.246 106.031C162.096 108.118 163.229 108.916 165.469 109.174C172.164 109.895 180.018 118.834 180.069 125.455C180.069 126.099 179.889 126.665 179.554 127.181V127.206Z" fill="#E57909"/>
<path d="M311.446 110.874C313.531 102.038 317.986 94.3617 323.6 87.4063C338.148 69.3996 356.663 57.9876 379.76 54.6387C390.55 53.0931 400.953 54.4069 410.789 59.5075C417.922 63.1913 420.883 69.3996 421.99 76.8702C422.531 80.4509 422.196 84.0317 421.81 87.5867C419.441 91.5538 415.604 93.7692 411.716 95.8301C398.378 102.94 383.957 106.933 369.254 109.947C356.508 112.549 343.633 114.301 330.629 115.151C325.608 115.486 320.587 115.486 315.591 115.614C314.381 115.64 313.119 115.769 312.012 114.97C311.343 113.682 311.162 112.317 311.446 110.9V110.874Z" fill="#1D1E3C"/>
<path d="M465.765 297.227C446.427 297.227 427.089 297.227 407.75 297.227C407.055 296.815 406.231 296.557 405.742 295.836C401.287 289.035 397.708 281.977 399.021 273.45C399.253 271.904 399.742 270.462 400.36 269.045C402.6 262.527 406.334 257.066 411.896 252.893C416.325 249.492 421.424 247.277 426.522 245.113C432.239 242.666 436.977 239.368 438.367 232.825C438.779 230.816 438.934 228.755 439.449 226.771C439.964 224.788 440.788 222.959 443.466 223.783C454.461 224.917 465.327 226.617 475.782 230.301C476.426 231.151 476.76 232.155 476.606 233.186C475.705 239.626 477.198 246.066 476.683 252.532C476.271 259.075 477.044 265.644 476.014 272.188C474.752 280.096 471.971 287.412 468.186 294.419C467.593 295.501 466.872 296.506 465.817 297.201L465.765 297.227Z" fill="#2D3D1C"/>
<path d="M398.533 297.227H383.16C381.409 295.939 380.842 293.904 379.941 292.101C375.28 282.543 367.813 276.979 357.23 275.459C354.886 275.124 352.569 276.515 350.329 275.227C351.204 272.883 349.968 270.745 349.711 268.504C349.479 266.623 348.912 264.769 348.99 262.837C349.196 255.958 350.251 249.467 355.659 244.34C363.152 237.23 372.808 236.921 380.456 243.902C385.014 248.05 388.387 252.97 390.73 258.663C391.812 261.317 392.996 263.918 394.078 266.598C396.241 275.743 396.679 285.223 398.893 294.368C399.125 295.347 399.357 296.403 398.558 297.279L398.533 297.227Z" fill="#7F8A26"/>
<path d="M295.609 248.823C295.996 243.697 297.875 239.626 303.051 237.643C316.647 232.362 330.784 229.116 345.152 226.849C348.088 226.591 347.573 228.833 347.393 230.352C346.878 234.68 345.667 238.879 343.736 242.821C339.487 252.481 332.87 260.158 324.192 266.134C317.471 271.106 309.823 274.068 301.815 276.155C301.017 276.361 300.219 276.516 299.395 276.567C296.356 276.748 295.815 276.232 295.79 273.193C295.687 265.078 295.996 256.963 295.635 248.849L295.609 248.823Z" fill="#2D3D1C"/>
<path d="M443.414 223.809C440.685 223.912 440.221 225.921 439.886 228.008C439.5 230.533 439.294 233.083 438.367 235.504C436.23 241.017 431.698 243.928 426.522 245.989C421.449 247.998 416.608 250.446 412.128 253.537C411.355 254.104 410.531 253.794 409.785 253.511C403.244 250.884 397.219 247.483 392.584 242.022C391.76 241.069 389.957 239.935 391.734 238.235C395.262 237.849 398.429 236.432 401.519 234.783C406.077 232.336 407.055 228.266 406.437 223.526C406.334 222.727 406.231 221.928 406.102 221.13C407.004 222.366 408.317 221.903 409.501 221.928C420.831 222.006 432.136 222.521 443.388 223.835L443.414 223.809Z" fill="#7F8A26"/>
<path d="M295.61 248.823C296.537 252.352 295.919 255.933 296.022 259.488C296.151 263.893 296.228 268.324 296.022 272.729C295.867 275.562 297.078 276.077 299.447 275.691C305.163 274.764 310.519 272.677 315.695 270.178C318.708 268.736 321.566 266.932 324.476 265.284C327.591 266.031 329.497 268.452 331.686 270.487C334.286 273.759 337.093 276.902 338.87 280.74C338.87 280.946 338.844 281.204 338.69 281.307C333.514 285.686 330.089 291.328 326.948 297.201C317.317 297.227 307.661 297.201 298.03 297.33C295.198 297.382 295.867 295.424 295.842 293.981C295.687 280.251 295.61 266.52 295.507 252.79C295.507 251.45 295.558 250.136 295.584 248.797L295.61 248.823Z" fill="#7F8A26"/>
<path d="M326.973 297.227C328.775 290.761 332.663 285.712 337.71 281.436C338.019 281.178 338.303 280.921 338.612 280.637C341.65 276.902 345.667 275.176 350.405 275.047C360.422 273.502 368.765 276.696 375.537 284.012C379.065 287.799 381.305 292.41 383.159 297.227C364.439 297.227 345.693 297.227 326.973 297.227Z" fill="#2D3D1C"/>
<path d="M465.766 297.227C468.572 291.869 471.353 286.485 473.182 280.689C475.499 273.347 475.988 265.799 475.679 258.174C475.602 256.422 475.731 254.696 475.757 252.944C478.229 254.748 476.89 256.886 476.658 258.534C478.615 255.16 481.679 252.043 485.078 249.209C486.211 248.256 487.396 247.586 487.962 249.776C489.713 264.846 490.614 279.942 490.151 295.115C490.099 296.815 489.636 297.382 487.885 297.356C480.52 297.227 473.13 297.253 465.766 297.227V297.227Z" fill="#7F8A26"/>
<path d="M368.225 211.109C368.765 210.285 369.615 210.336 370.413 210.362C379.014 210.516 387.589 210.13 396.163 209.795C401.159 209.589 402.112 211.263 400.412 215.952C396.498 226.746 389.288 234.087 378.267 237.591C378.01 237.668 377.778 237.952 377.546 238.132C373.426 239.24 368.019 235.504 367.529 231.073C367.298 228.832 367.22 226.565 367.71 224.35C368.405 221.284 367.632 218.167 368.147 215.102C368.147 213.788 368.199 212.474 368.225 211.135V211.109Z" fill="#472B16"/>
<path d="M205.304 230.713C203.965 234.706 200.978 236.586 197.012 237.565C192.403 238.725 187.82 239.6 183.056 239.291C177.391 235.376 172.035 231.151 168.765 224.865C168.353 224.067 167.889 223.217 167.735 222.315C166.499 216.055 168.147 215.36 173.245 215.952C179.657 216.699 186.069 216.699 192.506 217.111C196.781 217.369 201.081 217.523 205.355 217.73C205.355 222.057 205.33 226.359 205.304 230.687V230.713Z" fill="#C99770"/>
<path d="M311.446 110.874C311.652 112.162 312.347 113.373 312.141 114.738C312.991 115.872 314.227 115.357 315.283 115.382C326.381 115.537 337.376 114.429 348.372 113.09C360.294 111.621 372.062 109.457 383.623 106.237C395.906 102.811 407.983 98.8698 418.463 91.2189C418.952 90.8583 419.493 90.5234 420.163 90.6522C419.905 94.8254 416.558 96.7317 413.777 98.8183C401.108 108.298 386.482 113.244 371.263 116.593C358.543 119.401 345.668 120.973 332.587 121.127C328.415 121.179 324.244 121.488 320.072 121.179C317.678 121.024 315.309 121.436 312.862 120.483C310.416 119.53 309.772 118.216 310.262 115.846C310.596 114.172 310.699 112.446 311.523 110.874H311.446Z" fill="#1D1E3C"/>
<path d="M179.555 127.207C178.885 119.53 174.92 114.12 168.147 110.668C167.607 110.385 166.989 109.921 166.448 109.998C162.534 110.565 161.04 108.376 159.959 105.027C158.955 101.961 156.148 100.029 154.088 97.6591C162.405 93.254 169.821 95.6755 175.126 104.769C176.259 106.701 177.34 107.371 179.58 107.294C185.426 107.062 189.983 109.895 193.717 114.146C197.168 118.062 199.279 122.673 200.438 127.722C193.485 127.542 186.507 127.387 179.555 127.207V127.207Z" fill="#A1601A"/>
<path d="M487.936 249.776C487.164 248.617 486.546 248.978 485.593 249.75C482.168 252.481 479.516 255.933 476.606 259.385C475.782 257.092 477.018 254.877 475.756 252.945C475.679 245.423 475.01 237.875 475.731 230.353C477.173 230.868 478.692 231.254 480.082 231.898C484.074 233.753 486.674 236.612 486.958 241.275C487.138 244.135 487.627 246.968 487.962 249.802L487.936 249.776Z" fill="#B39F27"/>
<path d="M368.147 215.076C368.147 218.219 368.147 221.362 368.147 224.504C367.761 227.312 365.495 228.807 363.667 230.455C358.491 235.092 352.749 239.008 346.646 242.305C345.564 242.898 344.431 243.928 342.989 243.026C344.637 238.596 346.311 234.139 346.723 229.373C346.826 228.111 346.903 226.9 345.127 226.823C351.822 225.921 358.465 224.917 365.16 224.144C367.194 223.912 367.993 223.242 367.89 221.13C367.787 219.12 367.581 217.06 368.147 215.05V215.076Z" fill="#B29F27"/>
<path d="M398.532 297.227C396.112 287.515 395.648 277.469 393.305 267.757C393.176 267.19 393.202 266.778 393.666 266.417C396.653 265.567 399.64 266.598 401.082 268.968C397.168 279.117 401.185 287.618 406.669 295.81C407.004 296.326 407.39 296.789 407.777 297.279C404.712 297.279 401.648 297.279 398.584 297.279L398.532 297.227Z" fill="#B29E26"/>
<path d="M420.137 90.6262C409.373 98.8439 396.807 103.12 383.984 106.675C372.19 109.947 360.139 112.162 347.959 113.631C336.269 115.022 324.578 116.129 312.811 115.975C312.244 115.975 311.317 116.516 311.188 115.382C311.188 115.202 311.806 114.944 312.141 114.712C322.879 115.022 333.565 114.171 344.251 112.986C358.568 111.389 372.654 108.813 386.481 104.846C396.987 101.832 407.287 98.2514 416.377 91.94C418.283 90.6262 420.034 89.0548 421.836 87.5864C421.913 87.9728 422.016 88.3592 422.094 88.7457C421.45 89.3639 420.806 90.0079 420.162 90.6262H420.137Z" fill="#E5C374"/>
<path d="M401.056 268.942C398.893 267.216 396.267 266.778 393.64 266.391C391.477 264.305 391.117 261.342 389.958 258.766C387.151 252.481 383.392 247.019 377.855 242.82C365.985 233.804 351.796 244.675 350.406 255.727C350.123 258.045 349.994 260.389 349.788 262.733C348.99 263.609 347.908 263.893 346.852 264.228C342.398 265.644 338.046 267.345 334.132 269.972C333.308 270.539 332.432 271.131 331.325 270.797C329.033 268.942 326.767 267.087 324.476 265.232C326.536 263.455 328.647 261.703 330.681 259.9C336.012 255.16 339.72 249.235 342.99 242.975C352.749 238.673 361.247 232.619 368.148 224.427C368.173 225.458 368.379 226.488 368.225 227.493C367.324 234.345 371.881 237.024 377.546 238.029C382.284 239.111 386.997 238.905 391.76 238.132C391.039 240.012 392.636 240.914 393.563 241.945C398.661 247.509 405.047 251.064 412.129 253.46C407.004 257.556 403.374 262.759 401.056 268.864V268.942Z" fill="#466026"/>
<path d="M367.169 157.939C357.718 159.845 348.603 159.227 340.44 153.688C335.239 150.159 335.393 142.457 340.569 138.644C345.539 134.986 351.178 132.796 357.409 132.719C359.598 132.693 361.813 131.276 364.027 132.693C365.855 133.569 366.551 135.295 367.323 136.969C369.821 142.379 371.289 147.918 369.692 153.894C369.254 155.491 368.688 157.011 367.169 157.939V157.939Z" fill="#010101"/>
<path d="M431.338 168.166C431.054 182.051 420.42 192.999 407.21 192.381C397.039 191.917 389.777 186.43 384.988 177.594C383.855 175.482 383.365 173.06 385.915 171.643C388.515 170.227 390.06 171.953 391.296 174.116C394.953 180.582 400.051 184.962 407.879 185.065C415.707 185.168 422.531 179.191 423.819 171.154C424.102 169.454 424.282 167.702 424.308 165.976C424.334 163.529 425.415 161.829 427.836 161.829C430.256 161.829 431.415 163.555 431.363 165.976C431.363 166.697 431.363 167.419 431.363 168.14L431.338 168.166Z" fill="#CA546D"/>
<path d="M367.169 157.939C371.366 150.185 369.486 142.792 365.753 135.527C365.238 134.548 364.594 133.621 364.027 132.668C369.486 132.307 374.559 133.621 379.22 136.377C386.584 140.731 387.099 147.686 380.353 152.942C376.516 155.93 372.113 157.733 367.169 157.939V157.939Z" fill="#F7F3F0"/>
<path d="M390.473 129.963C389.726 132.101 388.104 131.895 386.507 131.173C382.362 129.344 378.01 128.288 373.555 127.464C362.225 125.429 351.359 126.846 340.878 131.508C339.23 132.23 337.067 133.878 336.012 131.74C334.879 129.422 337.582 128.597 339.256 127.824C348.088 123.729 357.513 122.415 367.118 122.853C374.276 123.162 381.357 124.476 388.001 127.387C389.134 127.876 390.267 128.443 390.499 129.963H390.473Z" fill="#030302"/>
<path d="M451.166 145.058C451.346 144.492 450.187 142.663 451.809 142.147C453.071 141.761 454.487 142.663 455.595 143.693C459.663 147.48 458.556 153.302 453.329 155.543C452.144 156.058 451.475 155.826 451.629 154.513C451.964 151.524 450.573 148.691 451.14 145.058H451.166Z" fill="#472B16"/>
<path d="M208.472 153.611C213.802 151.859 220.909 153.998 224.591 158.506C228.711 163.503 229.355 170.536 225.905 176.358C221.579 183.648 215.064 186.997 206.515 186.199C204.146 184.292 204.249 181.407 204.017 178.857C203.322 171.309 204.146 163.89 206.566 156.677C206.952 155.492 207.442 154.384 208.472 153.585V153.611Z" fill="#017DA7"/>
<path d="M142.268 184.447C142.268 182.206 143.375 179.99 145.564 180.402C148.912 181.046 148.577 183.829 148.448 186.302C147.985 195.344 157.152 200.625 165.108 199.749C171.649 199.002 176.979 195.962 180.739 190.475C182 188.646 183.7 188.079 185.502 189.161C187.537 190.398 187.073 192.355 185.966 194.03C178.704 204.952 162.018 210.414 149.967 201.81C144.817 198.126 142.139 192.999 142.268 184.473V184.447Z" fill="#EC7CA2"/>
<path d="M208.472 153.611C205.871 161.391 204.017 169.274 204.712 177.569C204.944 180.531 205.536 183.416 206.515 186.199C198.017 184.936 192.558 178.29 192.996 169.944C193.408 162.267 200.953 154.23 208.472 153.611V153.611Z" fill="#F4F2F0"/>
<path d="M213.673 137.562C219.673 137.794 225.441 138.824 230.205 142.972C231.544 144.131 232.548 145.496 231.209 147.197C230.179 148.536 228.66 148.588 227.372 147.609C219.158 141.297 210.351 142.405 201.39 145.393C200.335 145.754 199.33 146.321 198.275 146.656C196.678 147.171 195.107 147.042 194.412 145.239C193.768 143.59 194.773 142.508 196.163 141.787C201.622 138.927 207.519 137.794 213.673 137.562V137.562Z" fill="#E5790A"/>
<path d="M104.725 170.175C104.544 168.32 105.343 166.749 106.373 165.358C107.403 163.941 108.819 162.421 110.493 162.602C111.935 162.756 111.806 164.894 112.269 166.182C113.196 168.758 114.123 171.36 114.922 173.988C116.003 177.543 115.05 178.522 111.497 177.672C107.325 176.667 104.699 173.756 104.75 170.175H104.725Z" fill="#C99770"/>
<path d="M396.086 86.8653C391.966 87.2088 389.906 85.4055 389.906 81.4555C389.906 81.1464 389.906 80.8373 389.906 80.5281C389.906 75.5821 391.065 74.8093 395.983 76.5095C397.554 79.9356 397.399 83.4133 396.086 86.8653Z" fill="#3459A5"/>
<path d="M401.622 76.0197C405.33 75.7964 407.184 77.5224 407.184 81.1976C407.184 81.4037 407.184 81.6097 407.184 81.8158C407.184 85.4052 405.33 87.1054 401.622 86.9165C400.463 85.6542 400.875 84.0828 400.772 82.6144C401.03 80.4247 400.128 78.0805 401.622 76.0454V76.0197Z" fill="#DE133E"/>
<path d="M401.52 82.7178C401.545 84.1088 401.597 85.5257 401.623 86.9168C399.769 86.9168 397.94 86.891 396.086 86.8652C396.061 83.4133 396.009 79.9614 395.983 76.5094C397.554 75.2729 399.331 76.123 401.005 76.02C401.108 76.5867 400.747 76.8443 400.309 77.0504C399.228 77.4626 397.631 77.205 397.58 78.9567C397.554 80.966 397.013 83.0527 398.018 84.9589C398.352 85.603 399.099 85.4226 399.614 84.9589C400.258 84.3922 400.258 83.4648 400.747 82.8208C400.979 82.589 401.236 82.5632 401.52 82.692V82.7178Z" fill="#EAEFF8"/>
<path d="M400.412 76.5352C400.618 76.3549 400.798 76.1746 401.004 76.02C401.21 76.02 401.442 76.02 401.648 76.02C401.622 78.2354 401.57 80.4766 401.545 82.692C401.364 82.692 401.21 82.692 401.03 82.692C399.742 80.76 399.948 78.6476 400.412 76.5352Z" fill="#D1D6E7"/>
<path d="M437.544 260.363C438.007 258.947 439.011 257.865 440.453 258.148C443.878 258.766 447.2 257.865 450.547 257.813C452.453 257.787 454.487 257.684 454.745 260.235C455.028 262.759 452.994 262.836 451.268 263.068C447.689 263.584 444.11 263.455 440.531 263.48C439.398 263.48 438.574 263.017 437.956 262.089C437.441 261.6 436.977 261.111 437.544 260.363V260.363Z" fill="#E31F14"/>
<path d="M426.445 272.033C424.102 272.033 422.685 272.136 421.243 272.008C419.724 271.879 418.385 271.235 418.334 269.457C418.282 267.834 419.415 267.139 420.857 266.907C424.308 266.315 427.784 266.572 431.26 266.521C432.728 266.521 433.706 267.5 433.784 269.071C433.861 270.539 433.011 271.415 431.646 271.57C429.638 271.827 427.578 271.93 426.445 272.008V272.033Z" fill="#E3780A"/>
<path d="M437.543 260.363C437.672 260.93 437.827 261.523 437.955 262.089C437.157 263.893 435.715 264.614 433.784 264.614C431.312 264.614 428.866 264.665 426.394 264.691C424.591 264.691 422.917 264.202 422.763 262.192C422.583 260.003 424.334 259.591 426.11 259.565C429.921 259.565 433.861 258.148 437.518 260.389L437.543 260.363Z" fill="#067CA4"/>
<path d="M442.874 265.233C444.496 265.233 446.144 265.155 447.766 265.233C449.208 265.336 449.955 266.289 449.981 267.68C449.981 269.071 449.337 269.998 447.869 270.23C444.934 270.694 441.973 270.951 439.011 270.72C437.183 270.591 435.793 269.689 435.921 267.68C436.05 265.748 437.441 265.233 439.192 265.31C440.402 265.361 441.638 265.31 442.874 265.31V265.207V265.233Z" fill="#EEF3F4"/>
<path d="M331.299 270.848C336.99 267.113 342.989 264.047 349.762 262.759C349.968 266.057 350.251 269.406 351.616 272.42C352.388 274.146 351.41 274.455 350.405 275.047C346.157 276.232 342.243 278.138 338.612 280.637C336.166 277.366 333.745 274.12 331.299 270.848V270.848Z" fill="#B29F27"/>
<path d="M366.5 149.103C366.165 150.469 365.702 152.452 365.238 154.436C364.981 155.569 364.388 156.445 363.126 156.11C361.659 155.698 362.2 154.693 362.534 153.663C363.049 151.911 363.513 150.108 363.693 148.305C363.796 147.171 362.895 145.6 364.98 145.677C366.731 145.729 366.474 147.3 366.551 149.129L366.5 149.103Z" fill="#E3E2E1"/>
<path d="M365.186 141.194C365.289 142.328 365.186 143.204 364.028 143.204C362.354 143.204 362.174 141.864 361.993 140.653C361.89 139.803 362.096 138.876 363.178 138.876C364.852 138.876 364.877 140.319 365.161 141.22L365.186 141.194Z" fill="#E0DFDE"/>
<path d="M210.326 173.241C209.991 175.353 209.502 177.749 209.631 180.222C209.682 180.995 209.296 181.69 208.42 181.664C207.571 181.664 207.236 180.995 207.236 180.196C207.236 177.749 207.159 175.302 207.287 172.854C207.365 171.618 207.416 169.737 209.141 169.892C210.686 170.021 210.197 171.798 210.352 173.241H210.326Z" fill="#EEF3F6"/>
<path d="M209.063 165.229C209.398 164.327 209.244 162.653 210.969 162.524C211.922 162.447 212.334 163.452 212.102 164.302C211.741 165.59 211.87 167.445 209.965 167.496C209.012 167.522 209.012 166.363 209.089 165.229H209.063Z" fill="#E7EFF4"/>
<path d="M400.412 76.5351C401.494 78.4929 400.85 80.6311 401.03 82.6919C401.03 83.4132 401.056 84.1345 400.953 84.8301C400.721 86.3242 399.588 86.3499 398.404 86.3757C397.013 86.4015 396.679 85.6286 396.704 84.4179C396.73 82.9753 396.859 81.5327 396.679 80.1158C396.267 77.0761 397.503 75.9684 400.438 76.5093L400.412 76.5351Z" fill="#E3E1E1"/>
</g>
<defs>
<clipPath id="clip0_5484_43216">
<rect width="595" height="297" fill="white"/>
</clipPath>
</defs>
</svg>
