<svg width="595" height="287" viewBox="0 0 595 287" fill="none" xmlns="http://www.w3.org/2000/svg">
<g clip-path="url(#clip0_5118_42145)">
<path d="M0.0495833 286.256C0.0495833 191.755 0.074375 97.2297 0 2.72908C0 0.496197 0.495833 0 2.72708 0C199.895 0.0496196 397.088 0.0496196 594.256 0.0496196C594.802 1.06682 594.529 2.18326 594.529 3.25009C594.529 96.4606 594.529 189.646 594.529 282.857C594.529 285.305 593.306 286.529 590.86 286.529C561.655 286.529 532.451 286.529 503.246 286.529C501.56 286.677 501.188 285.363 500.643 284.197C497.792 278.168 494.842 272.189 491.073 266.656C490.454 265.738 490.082 264.671 489.288 263.877C487.107 260.602 484.38 257.749 482.173 254.499C481.826 254.053 481.578 253.581 481.479 253.011C481.727 250.902 480.487 250.207 478.677 250.058C477.785 249.835 477.091 249.264 476.471 248.644C468.612 240.705 459.712 234.155 449.969 228.722C449.448 228.424 449.002 228.052 448.68 227.531C448.357 226.538 447.539 226.414 446.647 226.34C446.25 226.266 445.903 226.142 445.556 225.968C444.886 225.447 444.118 225.248 443.3 225.199C435.267 221.502 426.764 219.269 418.359 216.739C417.095 216.143 415.806 215.622 414.343 215.845C412.533 215.895 410.724 216.168 409.013 215.349C407.55 213.761 408.368 212.471 409.657 211.33C410.624 210.487 411.814 209.941 413.054 209.569C419.227 207.708 425.004 205.053 430.359 201.456C431.325 200.811 432.391 200.24 433.631 200.24C445.829 204.805 458.224 203.738 471.19 201.902C469.579 199.645 467.496 199.024 465.885 197.809C464.472 196.742 462.885 195.849 461.695 194.509C460.381 193.02 460.703 192.053 462.662 191.656C464.422 191.309 466.232 191.656 467.992 191.383C468.934 191.234 470.199 191.333 470.546 190.242C470.843 189.274 469.777 188.753 469.133 188.158C467.769 186.868 466.331 185.627 465.315 184.039C464.026 182.005 464.323 181.385 466.728 180.864C467.472 180.715 468.562 180.938 468.86 180.144C469.257 179.052 468.166 178.383 467.496 177.713C464.422 174.686 462.017 171.213 460.505 167.169C460.232 166.424 460.059 165.655 460.257 164.836C461.274 162.579 463.356 163.075 465.191 162.976C466.108 163.025 467.1 163.249 467.546 162.083C467.744 161.71 467.992 161.388 468.315 161.115C473.942 158.138 476.025 152.58 473.843 146.403C473.645 146.031 473.496 145.634 473.397 145.237C471.066 141.416 467.596 138.885 463.753 136.777C463.207 136.206 462.935 135.561 463.282 134.792C464.397 133.675 465.885 134.147 467.199 133.799C468.042 133.576 469.157 133.477 469.331 132.509C469.529 131.368 468.364 131.17 467.571 130.872C466.207 130.326 464.794 129.805 463.604 128.937C462.811 128.366 461.67 127.845 461.745 126.803C461.819 125.563 463.183 125.314 464.15 124.893C466.852 123.677 469.728 122.933 472.455 121.791C473.347 121.543 474.19 121.221 474.959 120.7C475.38 120.427 475.802 120.154 476.223 119.881C477.215 118.169 475.38 118.889 474.959 118.417C474.413 118.343 473.893 118.194 473.397 118.02C471.711 117.226 469.951 116.507 468.612 115.142C466.678 113.182 466.976 111.992 469.653 111.322C472.628 110.577 475.479 109.61 479.025 107.501C470.323 105.07 464.323 99.9588 459.34 93.4586C458.1 91.846 457.778 89.8364 457.084 88.0004C450.96 71.5267 439.308 60.7841 422.797 55.1274C413.723 52.0262 404.451 51.133 395.006 52.6464C379.957 55.0778 367.14 61.7765 356.901 73.2138C351 79.8132 346.91 87.405 344.282 95.8155C344.108 96.3862 343.885 96.932 343.439 97.3785C342.497 98.2221 341.282 98.2717 340.117 98.4206C332.283 99.3633 324.424 99.5866 316.565 100.008C312.35 100.232 308.16 100.926 303.971 100.703C303.772 101.274 304.293 101.125 304.541 101.249C312.97 101.323 321.399 101.249 329.804 101.274C330.696 101.274 331.589 101.274 332.431 100.951C333.597 100.678 334.787 100.604 335.952 101.026C337.514 102.142 336.894 103.531 336.225 104.697C332.977 110.081 330.101 115.713 325.639 120.278C323.878 122.164 321.746 123.603 319.912 125.364C319.49 125.761 318.895 126.208 319.168 126.828C319.515 127.647 320.333 127.349 321.002 127.299C322.589 127.15 324.101 125.736 325.787 127.001C325.911 127.274 325.986 127.547 325.961 127.87C324.696 131.418 323.085 134.866 322.664 138.687C322.143 141.813 322.192 144.939 322.664 148.065C323.382 152.506 324.672 156.724 327.225 160.495C328.291 162.355 329.828 163.918 330.498 166.027C330.969 167.491 331.341 169.004 331.911 170.443C331.911 170.741 331.911 171.014 331.787 171.287C328.911 177.167 324.721 181.955 319.664 186.074C318.251 187.215 315.499 188.307 316.565 190.49C317.631 192.648 320.16 190.936 322.019 190.862C323.382 190.788 324.746 190.341 326.11 190.142C327.101 189.994 328.192 189.795 328.787 190.812C329.357 191.805 328.762 192.747 328.217 193.566C326.977 195.477 325.391 197.114 323.779 198.751C322.887 199.669 321.92 200.538 321.102 201.53C320.68 202.051 320.11 202.647 320.606 203.366C321.052 204.036 321.821 203.912 322.515 203.837C323.209 203.738 323.854 203.515 324.523 203.316C331.316 201.084 337.861 198.305 343.86 194.385C344.53 193.963 345.174 193.467 345.968 193.368C347.356 193.442 348.298 194.335 349.191 195.228C354.546 200.513 360.57 204.755 367.71 207.311C368.28 207.509 368.726 207.906 369.024 208.427C369.445 209.569 370.462 209.445 371.379 209.469C372.346 209.569 373.239 209.866 373.71 210.809C374.181 212.124 374.106 213.439 373.685 214.754C373.387 215.374 372.867 215.746 372.296 216.069C368.33 217.557 364.115 218.202 360.049 219.418C341.431 225.025 325.242 234.577 311.557 248.371C310.243 249.711 308.83 250.951 307.367 252.117C306.574 252.663 306.202 253.532 305.756 254.35C305.359 254.896 304.888 255.367 304.417 255.839C302.384 257.303 301.591 259.709 299.954 261.471C299.409 262.017 299.012 262.662 298.665 263.356C297.5 264.969 296.384 266.606 295.393 268.343C295.244 268.566 295.095 268.79 294.922 268.988C294.153 270.08 293.657 271.32 292.963 272.437C292.071 273.95 291.079 275.389 290.335 276.977C289.517 278.242 288.823 279.582 288.352 281.046C287.36 283.08 287.534 285.933 284.534 286.603C277.915 286.603 271.295 286.603 264.701 286.603C262.469 286.281 262.792 284.321 262.519 282.906C261.031 275.637 259.271 268.467 255.726 261.843C247.272 245.989 234.678 234.924 217.671 228.945C216.109 228.399 214.349 228.201 213.407 226.538C212.911 224.653 213.084 222.743 213.233 220.832C213.357 220.262 213.605 219.79 214.076 219.443C215.712 218.525 217.522 218.773 219.257 218.773C223.67 218.798 228.083 218.599 232.496 218.872C233.513 218.971 234.529 218.922 235.546 218.947C236.909 218.872 238.273 219.17 239.611 218.699C240.157 218.5 240.677 218.302 241.223 218.128C241.62 218.004 242.016 217.905 242.438 217.855C243.38 217.855 244.223 217.508 245.016 217.012C246.925 216.466 248.859 215.969 250.495 214.704C252.9 213.29 255.305 211.901 256.346 209.072C256.966 208.378 257.214 207.485 257.511 206.616C258.106 205.549 258.329 204.358 258.627 203.168C258.8 202.622 258.999 202.076 259.197 201.53C259.693 200.19 259.47 198.826 259.395 197.486C259.47 195.005 259.023 192.475 260.263 190.142C269.733 177.986 275.634 164.315 277.022 148.933C278.435 132.981 275.386 117.822 267.428 103.804C265.667 100.703 263.759 97.7011 261.626 94.8479C258.527 89.4394 253.272 86.5118 248.165 83.5843C236.984 77.2082 224.811 74.3054 211.994 73.3378C196.821 72.1966 182.194 74.2806 168.013 79.4162C154.229 84.3782 142.007 91.8212 132.561 103.333C125.768 111.595 121.554 120.997 121.231 131.715C121.033 138.488 122.595 145.063 126.041 151.042C126.636 152.059 127.454 152.977 127.479 154.243C127.107 155.334 125.793 155.26 125.198 156.079C123.091 157.815 122.372 160.247 121.801 162.752C121.702 163.001 121.578 163.249 121.405 163.472C120.636 165.035 121.107 166.722 121.008 168.335C121.008 169.327 121.479 170.146 121.95 170.989C123.091 173.396 124.975 175.405 125.595 178.06C125.644 178.482 125.619 178.904 125.545 179.325C125.247 180.392 124.652 181.31 124.231 182.327C124.082 182.675 123.884 183.022 123.71 183.345C123.239 184.263 123.239 185.18 123.686 186.123C123.859 186.446 124.033 186.768 124.206 187.091C124.529 187.761 125 188.381 125.371 189.026C126.115 191.482 128.297 192.202 130.28 193.144C130.652 193.318 131.024 193.492 131.396 193.69C132.586 194.286 133.999 193.814 135.189 194.509C135.586 194.782 135.908 195.129 136.131 195.551C136.528 196.469 136.552 197.437 136.503 198.404C136.453 200.463 136.354 202.498 137.445 204.383C137.817 205.773 137.792 207.187 137.742 208.601C137.594 209.792 137.817 210.908 138.486 211.901C138.858 212.968 138.957 214.158 139.726 215.076C139.949 215.473 140.048 215.92 140.172 216.366C142.007 220.559 145.205 222.395 149.766 222.445C153.857 222.494 157.824 222.048 161.815 221.279C163.055 221.031 164.369 221.18 165.658 221.279C167.22 221.403 168.856 220.956 170.269 221.949C171.583 224.082 171.137 226.365 170.815 228.623C170.368 229.987 169.228 230.533 168.063 231.103C146.345 241.424 133.379 258.419 128.991 282.013C128.669 283.775 129.214 286.256 126.264 286.529C85.4073 286.529 44.5506 286.529 3.69396 286.529C2.52875 286.529 1.31396 286.826 0.198333 286.256H0.0495833Z" fill="#97A6D5"/>
<path d="M0.0499609 286.256C41.105 286.256 82.1599 286.256 123.19 286.256C124.578 286.256 125.967 286.206 127.33 286.181C129.041 284.767 131.099 285.189 133.032 285.189C167.964 285.164 202.895 285.189 237.827 285.189C244.942 285.189 252.082 285.189 259.197 285.189C260.759 285.189 262.395 284.966 263.709 286.181C270.899 286.181 278.088 286.181 285.278 286.156C286.22 285.586 287.261 285.238 288.352 285.238C298.913 285.238 309.475 285.015 320.061 285.338C321.995 285.164 323.903 285.189 325.837 285.338C327.102 285.114 328.391 285.189 329.68 285.164C362.926 285.164 396.146 285.164 429.392 285.164C433.929 285.164 438.491 285.065 443.027 285.313C445.333 284.966 447.663 285.387 449.969 285.238C466.133 285.065 482.273 285.189 498.437 285.189C499.726 285.189 501.015 285.263 502.056 286.181C532.054 286.206 562.052 286.231 592.025 286.28C593.736 286.28 594.356 285.71 594.207 284.048C594.133 283.154 594.207 282.261 594.207 281.368C594.207 187.587 594.207 93.8307 594.207 0.0495605C595.447 0.595377 594.752 1.6622 594.752 2.4313C594.802 20.6417 594.777 38.8521 594.777 57.0625C594.777 132.757 594.777 208.477 594.827 284.172C594.827 286.405 594.331 286.901 592.1 286.901C395.626 286.851 199.127 286.851 2.65309 286.801C1.78538 286.801 0.644961 287.496 -0.0244141 286.256H0.0499609Z" fill="white"/>
<path d="M127.032 154.392C116 137.471 119.248 118.07 131.594 103.01C142.031 90.2333 155.716 82.3934 171.137 77.2826C182.566 73.5115 194.367 71.7252 206.366 71.9981C224.042 72.4199 240.752 76.315 255.255 87.0825C257.932 89.0672 261.329 90.6303 262.221 94.4262C261.85 96.8575 259.866 98.2469 258.503 100.008C257.61 101.174 256.618 102.291 255.776 103.507C251.635 106.409 248.388 110.304 244.421 113.43C232.769 122.561 220.1 129.979 206.812 136.429C189.111 144.716 170.765 150.993 151.427 154.168C146.568 154.962 141.684 155.582 136.776 155.93C134.445 155.93 132.115 155.979 129.784 155.905C128.669 155.855 127.355 156.054 127.032 154.416V154.392Z" fill="#322019"/>
<path d="M139.007 215.151C137.396 214.605 138.065 213.191 137.842 212.099C137.173 211.181 137.569 209.916 136.801 209.048L136.652 204.408C135.487 202.523 136.9 200.215 135.611 198.354L135.462 195.427C135.189 194.956 135.065 194.435 135.14 193.889C135.239 193.641 135.388 193.442 135.586 193.268C136.156 192.872 136.999 192.797 137.123 191.904C137.346 190.539 138.363 189.671 139.107 188.654C139.404 188.207 139.702 187.785 139.999 187.364C140.941 186.049 140.916 184.709 140.098 183.345C139.949 183.121 139.825 182.898 139.702 182.65C138.908 180.864 138.14 179.077 137.098 177.415C136.082 176.323 135.065 176.15 134.099 177.465C133.999 178.134 133.975 178.804 133.975 179.474C133.975 179.921 133.95 180.367 133.851 180.814C133.727 181.285 133.528 181.682 133.181 182.005C132.487 182.427 131.768 182.476 131 182.154C130.082 182.203 130.702 180.268 129.339 180.864C128.595 180.963 128.149 180.566 127.777 179.995C127.38 178.68 125.719 179.176 125.099 178.184C123.959 175.728 122.05 173.693 121.207 171.064C120.934 170.394 120.835 169.699 120.711 169.004C120.86 166.896 120.215 164.712 121.207 162.653C121.207 159.676 122 157.121 124.851 155.632C124.975 155.682 125.099 155.731 125.223 155.781C128.124 156.773 128.372 157.319 126.661 159.874C128.149 159.353 128.421 158.237 128.793 157.195C129.066 156.401 129.066 155.409 130.281 155.334C132.586 155.334 134.892 155.334 137.198 155.334C148.503 155.136 159.634 153.449 170.642 150.918C179.715 148.834 188.69 146.378 197.64 143.798C199.524 143.252 201.482 142.508 203.193 144.269C204.581 145.758 206.094 146.477 208.226 145.683C218.539 141.788 229.026 142.656 239.538 144.592C240.901 144.84 242.24 145.261 243.628 145.361C245.091 145.485 246.529 145.261 246.925 143.574C247.297 141.863 246.058 140.969 244.694 140.548C240.529 139.208 236.215 138.563 231.877 138.24C229.224 138.042 226.547 137.868 223.894 137.57C223.497 137.521 223.101 137.496 222.704 137.446C221.911 137.372 220.894 137.372 220.646 136.553C220.324 135.486 221.415 135.065 222.159 134.668C227.117 132.013 232.224 129.631 237.058 126.704C242.389 123.478 247.52 119.98 252.603 116.383C253.57 115.688 254.66 114.175 256.148 115.763C256.817 117.599 256.619 119.509 256.545 121.394C256.421 125.612 256.545 129.805 256.47 134.023C256.47 135.238 256.693 136.355 257.189 137.446C258.429 141.168 257.933 145.063 258.156 148.859C258.949 161.71 260.313 174.537 261.28 187.364C261.354 188.381 261.032 189.299 260.933 190.291C259.941 192.723 260.486 195.278 260.288 197.784C260.065 198.156 259.966 198.578 259.842 198.975C259.743 200.414 259.768 201.853 259.222 203.217C259.123 204.483 259.47 205.921 258.082 206.79C257.14 207.336 257.561 208.576 256.867 209.246C256.123 212.422 253.793 214.009 250.991 215.126C250.297 215.622 249.355 215.969 248.834 215.324C246.554 212.521 243.132 212.695 239.934 211.727C240.38 212.198 240.777 212.049 241.124 212.099C241.521 212.149 241.918 212.174 242.265 212.372C242.736 212.67 242.884 213.092 242.884 213.637C242.711 214.382 242.19 214.828 241.62 215.25C241.298 215.399 240.951 215.473 240.604 215.374C240.405 215.076 240.876 215.2 240.48 215.2C240.356 215.2 240.306 215.25 240.306 215.399C240.306 215.498 240.38 215.548 240.504 215.572C240.678 216.292 241.199 216.614 241.818 216.912C242.488 217.235 243.207 217.632 242.537 218.574L241.372 218.723C239.984 219.22 238.521 219.294 237.058 219.244C235.72 219.393 234.282 218.872 233.017 219.741L214.076 219.889C213.68 220.187 213.258 220.46 212.763 220.584C201.929 220.584 191.095 221.576 180.236 221.378C175.823 221.304 175.377 221.725 175.773 226.117C176.393 233.163 180.533 238.298 185.417 242.913C189.012 246.312 193.177 248.966 197.466 251.447C198.433 251.993 199.797 252.266 199.846 253.78C196.152 256.806 191.814 256.012 187.698 255.541C182.566 254.97 178.203 252.316 174.435 248.892C171.906 246.585 170.344 243.781 170.096 240.159C169.848 236.537 169.352 232.939 170.096 229.317L169.997 222.271C169.823 222.073 169.625 221.899 169.402 221.775C168.237 221.576 167.047 221.601 165.882 221.775C165.658 221.899 165.41 222.023 165.212 222.172C159.46 222.296 153.858 224.107 148.007 223.512C143.916 223.115 140.396 220.46 139.206 216.267C139.478 215.895 139.85 215.498 139.057 215.25L139.007 215.151Z" fill="#FAC8B3"/>
<path d="M331.514 171.014C331.514 170.84 331.539 170.667 331.588 170.518C331.043 169.426 331.142 168.608 332.456 168.211C334.142 168.037 335.084 169.352 336.324 170.096C346.463 176.175 357.273 177.117 367.834 172.23C377.527 167.714 383.601 159.626 385.461 148.785C385.634 147.817 385.733 146.825 386.155 145.931C386.923 144.145 386.973 142.334 386.081 140.572C384.841 134.866 383.378 129.259 379.635 124.521C378.841 123.528 377.85 122.66 377.255 121.494C376.784 120.551 375.966 119.559 377.478 118.765C379.064 118.144 380.726 117.871 382.411 117.847C392.353 117.797 402.319 117.499 412.26 117.996C413.872 118.169 415.012 119.236 416.277 120.08C423.987 126.059 432.937 129.21 442.258 131.517C445.605 132.36 449.076 132.559 452.349 133.651C455.076 134.345 457.481 136.553 460.654 134.941C462.166 134.172 462.959 136.107 464.199 136.553C468.736 137.868 471.637 141.093 474.041 144.914C472.678 146.552 471.537 145.162 470.347 144.641C469.306 144.567 468.438 145.286 467.422 145.336C466.381 145.51 466.703 146.576 466.257 147.147C466.083 147.37 465.86 147.519 465.587 147.618C463.083 146.031 460.505 144.492 460.356 140.92C460.555 142.855 459.588 144.443 459.613 146.13C459.613 149.454 459.613 152.779 459.365 156.103C461.249 157.989 462.067 157.964 463.579 155.682C464.373 154.491 464.968 153.35 466.703 153.598C468.364 153.846 468.959 154.962 469.207 156.401C471.562 158.907 471.537 158.957 468.314 161.71L468.215 162.703C467.596 163.522 466.43 163.174 465.711 163.819C463.976 164.167 461.993 163.249 460.555 164.961C458.844 165.482 458.224 166.796 457.679 168.384C453.439 180.566 446.498 190.912 436.482 199.124C435.589 199.843 434.796 200.86 433.433 200.736C426.59 205.326 419.252 208.899 411.393 211.355C409.459 211.95 408.591 213.017 408.938 215.002C410.352 217.16 409.732 219.567 409.707 221.899C409.633 223.288 409.657 224.678 409.657 226.042C408.963 229.516 409.137 233.312 405.74 235.693C403.757 234.924 402.641 235.52 402.22 237.703C401.997 238.844 401.253 239.812 400.435 240.68C396.171 243.955 391.312 243.409 386.428 242.839C385.808 242.491 385.411 241.995 385.436 241.251C386.155 239.886 387.593 239.588 388.808 238.993C395.625 235.594 400.608 230.458 403.583 223.412C404.525 221.204 405.096 218.897 404.997 216.491C404.897 213.836 403.856 212.893 401.228 213.265C393.915 214.332 386.651 213.737 379.412 212.843C379.114 212.843 378.817 212.769 378.519 212.695C377.577 212.298 376.511 212.298 375.519 212.05C374.676 211.826 373.833 211.578 373.189 210.908C372.594 210.139 371.726 210.263 370.908 210.189C370.189 209.569 369.024 209.891 368.379 209.072C366.867 207.311 364.437 207.385 362.578 206.244C357.57 203.143 352.488 200.141 348.348 195.849C347.604 195.08 346.711 194.484 345.893 193.79C343.216 192.797 341.827 190.44 340.166 188.381C336.696 184.039 333.795 179.35 331.712 174.165C331.316 173.197 330.721 172.155 331.39 171.039L331.514 171.014Z" fill="#F8B99E"/>
<path d="M405.344 235.222C408.195 232.914 408.046 229.391 408.963 226.29C409.162 225.968 409.236 225.62 409.385 225.273C409.534 224.43 409.534 223.561 409.385 222.718C409.261 222.494 409.137 222.296 409.013 222.097C409.013 219.74 409.013 217.384 409.038 215.027C410.972 215.027 412.881 215.027 414.814 215.051C415.856 215.92 417.318 215.498 418.434 216.168C424.533 217.656 430.656 219.12 436.482 221.502C438.961 222.519 441.465 223.536 443.944 224.554C444.539 224.975 445.283 225.124 445.779 225.67L446.895 225.744C447.514 226.489 448.754 226.042 449.299 226.96C452.126 229.491 455.696 230.88 458.795 233.039C465.464 237.703 471.909 242.64 477.587 248.52C478.008 248.942 478.355 249.413 479 249.463C479.347 249.736 479.545 250.108 479.62 250.529C478.826 253.209 480.562 253.829 482.619 254.177C485.272 257.129 487.999 260.007 489.784 263.629C489.569 266.292 489.966 268.434 490.974 270.055C491.197 270.377 491.445 269.732 491.173 270.055C491.148 270.104 491.098 270.005 490.974 269.906C490.33 269.41 490.082 268.616 489.784 267.921C489.04 266.135 489.487 265.242 491.594 266.036C496.081 272.238 499.701 278.912 502.205 286.156C484.727 286.156 467.273 286.156 449.795 286.156C443.944 278.912 436.581 273.528 428.648 268.814C427.954 266.73 426.342 266.383 424.433 266.681C424.161 266.606 423.913 266.507 423.69 266.358C422.648 265.614 423.169 262.686 420.764 263.976C419.5 264.646 418.31 262.835 417.269 264.224C412.236 263.927 407.377 262.463 402.418 261.669C387.172 259.238 372.346 260.478 357.793 265.713C350.753 268.244 344.257 271.692 338.332 276.208C334.464 279.16 333.745 279.11 330.746 275.215C330.2 274.124 329.804 272.858 328.192 272.933C326.011 272.635 324.672 273.727 323.68 275.538C322.589 277.572 322.069 279.755 321.672 281.988C321.424 283.402 321.498 284.965 320.408 286.156C308.731 286.156 297.054 286.156 285.377 286.156C286.195 284.221 286.988 282.286 287.807 280.351C289.864 279.954 289.145 277.845 290.063 276.729C290.063 274.744 291.6 273.553 292.492 272.015C293.831 270.948 295.665 271.618 297.079 270.452C299.657 268.318 300.004 267.549 298.616 264.398C298.417 263.952 298.12 263.555 298.343 263.058C298.393 262.24 298.442 261.421 299.558 261.322C300.45 261.024 301.492 261.247 301.839 259.808C302.26 258.146 303.524 256.831 304.293 255.318C304.343 254.598 304.69 254.226 305.409 254.177C305.805 253.879 306.202 253.606 306.698 253.531C307.194 253.457 307.689 253.482 308.16 253.531C310.54 253.978 312.945 254.499 315.375 254.524C322.292 254.573 329.258 254.722 336.15 254.276C345.125 253.68 354.025 252.291 362.752 249.984C364.115 249.785 365.528 249.835 366.768 249.091C367.041 248.966 367.313 248.867 367.611 248.793C370.239 248.545 372.52 247.205 374.974 246.461C378.023 245.518 380.899 244.079 383.924 243.087C384.37 243.062 384.767 243.161 385.089 243.508C386.874 244.699 388.857 243.806 390.37 244.079C388.957 243.88 387.097 244.501 385.362 243.707C384.742 243.136 385.064 242.64 385.535 242.193C385.833 242.02 386.13 242.045 386.403 242.243C391.312 242.466 396.245 242.888 400.584 239.762C402.22 238.298 403.286 236.214 405.393 235.222H405.344Z" fill="#009EDB"/>
<path d="M170.071 229.193C170.443 233.187 170.939 237.157 171.162 241.151C171.261 242.59 171.583 243.831 172.377 245.022C178.004 253.407 190.202 257.154 199.697 253.432C200.094 252.564 200.887 252.142 201.68 251.72C207.928 248.445 211.374 243.26 212.266 236.289C212.762 234.056 212.39 231.798 212.539 229.565C212.613 228.449 212.365 227.134 213.927 226.687C234.579 233.039 249.652 245.791 258.453 265.663C261.354 272.188 263.015 279.061 263.759 286.181C258.032 286.206 252.305 286.256 246.553 286.256C207.605 286.256 168.658 286.256 129.71 286.256C128.917 286.256 128.123 286.206 127.33 286.181C130.999 259.287 145.007 240.134 170.021 229.193H170.071Z" fill="#010101"/>
<path d="M343.414 96.7582C344.753 89.7619 348.001 83.5594 352.116 77.9276C361.264 65.4234 373.264 56.9633 388.486 53.2666C409.906 48.0566 428.822 52.5968 445.011 67.6067C451.63 73.7595 455.969 81.4754 458.671 90.0596C459.043 91.2008 459.638 92.1932 459.985 93.3097C460.034 95.0464 458.646 95.4433 457.456 95.7162C445.556 98.6686 433.78 102.266 421.335 101.993C418.087 101.919 414.814 102.266 411.542 101.993C410.278 101.869 408.939 101.993 407.922 101.001C407.104 98.8423 405.369 98.0732 403.262 98.0483C387.668 97.9243 372.098 96.4605 356.48 97.7754C353.133 98.0483 349.761 97.8747 346.414 98.2964C345.249 98.4453 343.737 98.6438 343.39 96.8079L343.414 96.7582Z" fill="#030404"/>
<path d="M307.838 254.177H306.648C306.004 253.383 306.103 252.638 306.648 251.869C320.11 237.703 335.803 226.836 354.323 220.311C360.099 218.277 365.999 216.689 371.999 215.523C372.123 215.647 372.247 215.771 372.371 215.895C373.288 218.624 372.644 221.428 372.842 224.182C372.916 226.241 372.619 228.325 373.065 230.384C373.387 231.054 373.734 231.724 373.858 232.468C373.982 233.163 374.082 233.857 374.453 234.478C374.776 235.148 375.024 235.817 375.098 236.562C375.148 237.306 375.098 238.025 374.701 238.67C374.354 239.216 373.61 239.44 373.239 240.159C374.23 240.258 374.577 239.241 375.395 239.266C376.139 239.142 376.858 239.167 377.552 239.464C377.825 239.613 378.023 239.812 378.172 240.06C378.296 240.482 378.247 240.903 378.023 241.3C377.825 241.623 377.379 241.97 377.577 242.293C378.643 244.104 378.147 245.146 376.164 245.642C375.247 245.865 374.875 246.759 374.23 247.304C371.776 247.602 369.594 248.793 367.239 249.463C366.148 250.182 364.661 249.686 363.669 250.629C357.149 252.49 350.455 253.259 343.811 254.375C334.167 256.013 324.573 254.995 314.953 255.343C314.631 254.995 313.863 255.194 313.813 254.623C313.714 253.829 314.408 253.705 314.978 253.656C316.54 253.532 318.102 253.631 318.895 253.606C315.747 254.053 311.73 252.911 307.838 254.177V254.177Z" fill="#0085B8"/>
<path d="M260.883 190.242C259.594 188.133 259.99 185.702 259.817 183.444C258.701 168.682 257.065 153.97 256.619 139.183C256.619 138.712 256.395 138.24 256.272 137.769C255.329 135.015 256.073 132.187 255.875 129.383C255.677 126.555 256.172 123.727 255.602 120.923C255.924 119.038 255.677 117.152 255.503 115.267C253.941 111.322 253.916 107.402 255.503 103.457C255.602 100.43 258.701 99.413 259.866 97.0561C260.362 96.0389 261.379 95.2946 262.172 94.4263C270.13 104.573 274.865 116.085 277.022 128.788C279.898 145.634 277.32 161.611 269.758 176.82C267.353 181.658 264.502 186.223 260.858 190.242H260.883Z" fill="#1A1210"/>
<path d="M408.269 101.001C412.186 101.001 416.103 100.827 419.995 101.05C429.664 101.596 438.862 99.1153 448.134 97.1057C451.109 96.4607 454.059 95.7412 456.984 94.9473C458.075 94.6495 459.389 94.5503 459.984 93.3098C463.753 96.9569 466.827 101.299 471.686 103.755C473.768 104.797 475.95 105.566 478.082 106.459C478.702 106.707 479.619 106.856 479.669 107.6C479.743 108.469 478.752 108.841 478.157 109.114C475.33 110.404 472.529 111.744 469.405 112.265C468.86 112.364 468.091 112.066 467.868 112.761C467.595 113.579 468.463 113.877 468.86 114.398C470.099 116.011 472.207 116.333 473.644 117.648C473.397 117.971 473.074 118.268 472.678 118.293C464.447 118.616 456.86 122.412 448.605 122.635C439.035 122.908 429.466 123.28 419.946 121.916C418.483 121.692 417.07 121.221 415.682 120.725L412.905 118.864C409.062 117.723 407.475 114.299 405.443 111.371C404.104 109.436 403.236 107.228 402.195 105.119C401.724 104.152 401.278 103.159 400.137 102.762C398.972 102.365 397.782 102.514 396.592 102.514C384.221 102.514 371.85 102.514 359.504 102.514C358.14 102.514 356.727 102.762 355.463 101.919C355.14 101.621 355.115 101.274 355.314 100.902C356.479 99.934 357.892 100.033 359.256 100.008C372.47 99.9837 385.684 99.9092 398.922 100.058C401.997 100.083 405.095 100.703 408.17 101.05L408.269 101.001Z" fill="#452417"/>
<path d="M433.507 200.736C443.721 192.648 451.53 182.774 456.166 170.518C456.687 169.129 457.208 167.739 457.58 166.3C458.051 164.439 459.042 164.117 460.629 164.96C462.141 169.823 464.819 173.966 468.488 177.539C469.405 178.432 471.215 178.978 470.446 180.74C469.703 182.402 468.017 181.583 466.728 181.757C466.257 181.806 465.761 181.757 464.967 181.757C466.43 184.535 468.29 186.545 470.645 188.158C471.562 188.778 472.554 189.448 472.231 190.713C471.934 191.904 470.769 191.83 469.802 192.028C467.025 192.648 464.174 192.202 460.877 192.499C463.901 195.601 467 197.734 470.397 199.421C471.438 199.942 472.504 200.389 472.38 201.629C472.207 203.192 470.793 202.969 469.628 203.143C462.265 204.21 454.852 204.656 447.44 204.185C442.63 203.887 437.845 203.192 433.556 200.687L433.507 200.736Z" fill="#623521"/>
<path d="M415.756 120.7C422.722 120.824 429.639 121.891 436.63 121.891C446.845 121.891 456.86 121.072 466.628 117.921C468.909 117.177 471.339 117.772 473.694 117.623L475.405 117.847C475.975 118.641 477.859 118.839 476.595 120.452L475.429 121.196C474.785 120.898 474.537 120.179 473.991 119.782C472.628 119.062 471.14 119.608 469.727 119.385C471.19 119.633 472.777 118.963 474.165 119.931C475.206 121.394 473.62 121.618 473.049 122.312L462.265 126.679C463.901 128.738 466.182 129.557 468.488 130.351C469.579 130.723 471.041 131.07 470.967 132.46C470.893 133.799 469.405 133.973 468.364 134.469C466.777 135.214 465.017 134.693 463.43 135.263C459.662 135.536 455.894 135.784 452.249 134.395C441.638 132.708 431.3 130.152 421.83 124.818C419.698 123.627 417.516 122.486 415.756 120.725V120.7Z" fill="#623521"/>
<path d="M331.514 171.014C334.563 179.722 339.72 187.091 346.017 193.765C338.852 199.148 330.671 202.398 322.143 204.879C321.027 205.202 319.862 205.078 319.292 203.937C318.796 202.919 319.391 202.026 320.085 201.282C322.192 199.074 324.349 196.94 326.382 194.658C327.324 193.591 328.341 192.45 328.465 190.589C325.688 191.11 322.986 191.606 320.308 192.078C319.441 192.226 318.548 192.375 317.68 192.351C316.54 192.351 315.474 191.904 315.052 190.763C314.631 189.597 315.251 188.679 316.118 187.91C318.722 185.627 321.449 183.518 323.953 181.087C327.027 178.085 328.886 174.264 331.514 170.989V171.014Z" fill="#613522"/>
<path d="M408.27 101.001C405.319 103.135 402.369 101.001 399.444 101.001C384.767 101.001 370.066 101.001 355.389 101.001C355.042 101.175 355.538 101.125 355.166 101.175C348.745 101.944 342.324 102.911 335.878 101.299C326.06 101.844 316.243 101.497 306.425 101.596C304.864 101.596 303.277 101.671 301.814 100.976C301.517 99.5371 302.657 99.934 303.302 99.8844C314.012 99.2642 324.697 98.7432 335.407 97.9989C338.084 97.8252 340.886 98.0485 343.415 96.7584C344.183 97.6516 345.224 97.5027 346.191 97.4034C358.885 95.89 371.652 95.8404 384.37 96.4359C391.362 96.7584 398.353 96.3614 405.344 97.2298C408.146 97.5771 408.542 98.7928 408.294 101.001H408.27Z" fill="#2B2726"/>
<path d="M386.924 146.105C385.783 147.718 386.23 149.702 385.783 151.489C382.139 165.978 368.181 176.993 352.265 176.001C346.191 175.629 341.01 173.247 335.704 170.964C334.712 170.543 334.192 169.029 332.903 168.682C331.638 168.235 330.721 167.367 329.928 166.325L326.854 161.065C326.556 160.569 326.854 160.321 327.25 160.123C327.399 160.123 327.523 160.073 327.672 160.073C327.944 160.123 328.217 160.222 328.44 160.395C329.01 161.016 329.556 161.661 330.126 162.306C337.911 172.751 353.976 177.589 367.983 170.642C369.446 170.022 370.685 169.104 371.9 168.111C379.982 162.207 383.8 153.995 384.717 144.269C384.94 141.788 384.643 139.183 383.502 136.826C383.329 136.429 383.23 136.007 383.155 135.561C381.42 126.53 375.693 120.65 367.958 116.408C366.867 115.812 365.702 115.217 364.438 114.944C363.669 114.894 362.925 114.77 362.206 114.473C358.141 112.686 353.852 113.232 349.612 113.207C342.968 114.448 337.192 117.4 332.283 122.039C330.771 123.255 329.655 124.818 328.663 126.456C327.969 127.324 327.523 128.515 326.159 128.614C325.713 128.465 325.341 128.267 325.664 127.696C325.664 127.522 325.664 127.349 325.664 127.2C325.812 124.124 328.167 122.412 329.903 120.328C331.068 119.186 332.258 118.12 333.572 117.177C334.117 116.755 334.613 116.308 335.134 115.862C336.77 114.423 338.902 113.827 340.737 112.736C344.976 110.776 349.488 110.032 354.124 109.982C355.984 110.528 357.893 110.131 359.777 110.453C364.909 111.421 369.619 113.331 373.784 116.507C374.875 117.326 376.09 118.07 376.536 119.509C382.164 125.339 385.535 132.286 386.775 140.3C387.444 142.235 387.246 144.195 386.899 146.155L386.924 146.105Z" fill="#160C0C"/>
<path d="M333.993 117.648L330.473 120.6C328.614 120.873 326.729 121.419 325.068 120.005C328.812 115.564 331.861 110.627 334.836 105.665C335.58 104.449 336.473 103.159 336.349 101.571C336.15 101.422 336.076 101.274 336.175 101.174C336.249 101.05 336.324 101.001 336.423 101.001C340.29 101.844 344.158 100.678 348.025 100.951C350.48 101.125 352.934 100.976 355.389 101.001C355.389 101.174 355.389 101.323 355.389 101.497C354.273 102.886 352.711 102.34 351.323 102.44C349.488 102.564 347.629 102.34 345.794 102.589C344.53 102.986 343.712 103.953 342.844 104.846C342.249 105.392 341.828 106.062 341.406 106.732C339.2 109.436 337.489 112.438 335.679 115.415C335.01 116.085 334.489 116.854 333.993 117.648V117.648Z" fill="#452519"/>
<path d="M458.794 145.534C459.373 143.037 459.067 141.432 457.877 140.721C460.108 139.158 461.397 141.465 463.034 141.614C463.405 143.029 460.852 141.962 461.67 143.649C462.166 144.666 462.513 144.914 463.554 144.195C464.199 143.748 464.645 144.492 464.546 145.137C464.372 146.303 464.645 147.073 465.909 147.271C468.19 146.998 469.083 144.914 470.669 143.698C471.785 144.12 472.529 145.683 474.066 144.889C474.14 145.286 474.215 145.658 474.289 146.055C475.231 148.71 474.14 151.166 473.496 153.647C472.851 156.128 470.62 157.443 468.289 156.748C468.339 155.508 468.289 154.565 466.604 154.243C464.918 153.92 464.943 155.036 464.447 155.93C462.86 158.832 461.05 159.08 458.769 156.798C459.166 156.029 459.984 155.83 460.703 155.557C462.91 154.664 464.323 153.151 464.298 150.695C464.273 148.338 462.339 146.427 459.612 145.758C459.315 145.683 459.042 145.609 458.794 145.46V145.534Z" fill="#F7B89B"/>
<path d="M373.313 232.815L372.619 231.029V230.533C372.619 228.722 372.619 226.911 372.619 225.1C372.916 221.725 371.999 218.277 373.164 214.952C373.189 213.588 373.238 212.223 373.263 210.859C374.081 210.908 374.949 210.611 375.618 211.38C375.941 211.702 375.966 212.074 375.742 212.471C375.544 212.645 375.371 212.844 375.222 213.067C375.371 212.844 375.569 212.645 375.767 212.447C376.66 211.95 377.602 211.876 378.593 212C378.792 212 378.965 212 379.164 212.025C380.924 213.191 380.85 215.771 378.767 216.317C376.238 216.987 376.833 217.88 377.924 219.269C378.643 220.187 378.767 221.254 378.296 222.346C376.932 224.479 378.296 227.332 376.412 229.317C375.99 230.235 375.346 231.054 375.073 232.046C374.676 232.716 374.28 233.411 373.338 232.791L373.313 232.815Z" fill="#D6906F"/>
<path d="M325.068 120.005C326.853 120.253 328.787 119.435 330.473 120.601C328.861 122.784 327.275 124.967 325.663 127.15C323.73 126.778 322.168 128.341 320.283 128.242C319.341 128.192 318.275 128.49 317.73 127.324C317.16 126.133 318.375 125.736 318.895 125.265C320.879 123.404 323.011 121.742 325.093 119.98L325.068 120.005Z" fill="#603624"/>
<path d="M468.29 156.823C471.488 156.451 472.381 155.31 472.182 151.886C472.158 151.414 472.232 151.092 472.653 150.993C474.959 150.447 474.166 149.355 473.298 148.04C472.728 147.172 473.05 146.328 474.265 146.13C476.719 148.388 475.281 151.266 475.331 153.821C475.405 157.145 471.563 161.14 468.364 161.785C468.364 161.586 468.315 161.313 468.414 161.214C470.1 159.701 470.496 158.237 468.29 156.873V156.823Z" fill="#F6B7A1"/>
<path d="M242.488 213.811C242.091 212.05 240.653 212.794 239.587 212.62C238.918 212.521 238.124 212.67 237.901 211.802C237.802 211.479 237.852 210.958 238.075 210.71C238.62 210.065 239.29 210.239 239.909 210.66C241.794 211.95 244.223 211.256 246.206 212.496C247.223 213.141 249.727 211.727 248.909 214.704C249.578 214.828 250.247 214.928 250.917 215.052C249.38 216.962 247.272 217.483 244.967 217.483C244.843 217.409 244.744 217.334 244.62 217.26C244.273 215.895 244.174 214.382 242.488 213.836V213.811Z" fill="#F9C6B6"/>
<path d="M298.293 263.034C300.574 264.398 300.475 266.829 300.425 268.889C300.376 270.427 294.599 272.437 292.442 271.99C293.186 270.774 293.261 269.112 294.773 268.393C295.492 269.261 296.136 269.261 296.731 268.144C296.062 268.417 295.492 269.137 294.773 268.393C295.517 266.308 296.558 264.423 298.318 263.009L298.293 263.034Z" fill="#009CD9"/>
<path d="M130.082 193.69C127.503 192.996 125.099 192.127 124.652 188.976C125.198 188.058 126.313 187.786 126.859 186.892C127.255 186.495 127.727 186.223 128.322 186.272C129.586 186.694 130.23 187.81 131.098 188.704C131.644 189.621 130.875 191.06 132.338 191.606C132.635 192.4 132.61 193.169 132.015 193.814C131.346 194.162 130.726 193.988 130.082 193.715V193.69Z" fill="#F7E0B5"/>
<path d="M336.423 101.001C336.423 101.199 336.423 101.398 336.374 101.571C335.184 101.571 333.994 101.621 332.804 101.646C327.721 102.216 322.614 101.844 317.532 101.869C312.747 101.869 307.938 102.192 303.128 101.671C302.707 101.398 302.062 101.621 301.839 101.001C313.367 101.001 324.895 101.001 336.423 101.001Z" fill="#212746"/>
<path d="M327.473 160.371L326.828 161.041C323.928 157.418 322.465 153.275 322.044 148.685C321.821 147.395 321.424 146.08 322.267 144.84C324.002 145.361 323.705 146.998 323.903 148.189C324.448 151.39 325.391 154.416 326.853 157.294C327.2 158.287 327.994 159.18 327.448 160.346L327.473 160.371Z" fill="#0E0F1B"/>
<path d="M303.128 101.646C313.02 101.646 322.912 101.646 332.804 101.646C332.283 102.241 331.564 102.192 330.87 102.192C322.267 102.192 313.664 102.192 305.062 102.192C304.368 102.192 303.673 102.241 303.128 101.646V101.646Z" fill="#A2A8C8"/>
<path d="M491.52 266.036C487.851 266.631 491.024 268.169 491.123 269.236C491.222 270.204 493.751 270.725 492.363 271.717C491.123 272.61 490.404 270.551 489.661 269.534C489.561 269.385 489.611 269.112 489.487 268.988C487.925 267.127 487.305 265.316 489.71 263.629C491.123 263.803 490.851 265.267 491.52 266.036V266.036Z" fill="#009CD9"/>
<path d="M304.243 255.293C304.565 258.369 301.194 260.156 301.913 263.356C300.326 263.158 300.971 261.148 299.508 261.297C300.797 259.064 301.714 256.533 304.243 255.293Z" fill="#009DD9"/>
<path d="M325.664 127.671L326.358 128.341C326.779 128.837 326.779 129.433 326.556 129.979C325.391 132.857 324.424 135.784 323.804 138.836C323.68 139.506 323.259 140.076 322.515 140.299C321.424 139.803 321.846 138.96 322.044 138.191C322.317 134.345 323.507 130.847 325.664 127.646V127.671Z" fill="#0D0F1A"/>
<path d="M452.274 134.345C455.993 134.643 459.712 134.916 463.455 135.214C463.703 135.66 463.976 136.132 464.224 136.578C462.29 136.032 460.505 135.834 458.348 136.404C456.514 136.876 454.159 135.561 452.274 134.37V134.345Z" fill="#F3B49F"/>
<path d="M300.252 256.707C298.418 253.68 300.872 252.787 301.913 251.348C302.632 250.381 303.5 250.406 304.467 251.299C302.806 252.763 300.922 253.978 300.252 256.682V256.707Z" fill="#91A9D8"/>
<path d="M240.108 215.002H241.298C243.529 214.183 243.826 216.292 244.818 217.334L244.967 217.483C244.545 218.798 243.455 218.525 242.488 218.5C242.364 217.855 242.017 217.359 241.347 217.433C238.868 217.657 239.24 216.466 240.132 215.027L240.108 215.002Z" fill="#F9C6B6"/>
<path d="M127.206 187.091C127.38 189.101 125.867 188.828 124.652 188.976C123.537 188.803 123.686 187.91 123.562 187.141C123.289 186.495 123.091 185.85 123.512 185.205C125.545 184.287 126.834 184.808 127.206 187.116V187.091Z" fill="#F3E1B6"/>
<path d="M482.545 254.201C481.454 254.549 480.586 255.293 479.297 254.053C477.933 252.738 478.429 251.77 479.024 250.579C481.206 249.984 481.479 251.621 481.925 253.06L482.545 254.201V254.201Z" fill="#009BD8"/>
<path d="M213.928 226.687C212.539 228.523 213.506 230.657 213.209 232.617C212.985 234.056 213.58 235.569 212.862 236.959C211.027 234.924 211.969 232.443 211.771 230.161C211.671 228.995 211.771 227.779 211.994 226.613C212.267 225.472 212.539 224.33 212.564 223.14C212.589 222.222 212.539 221.08 213.928 220.956V226.687Z" fill="#BDA1B1"/>
<path d="M322.044 138.216C322.143 138.91 322.019 139.655 322.614 140.2C324.002 141.788 324.002 143.351 322.614 144.939C321.697 146.08 322.292 147.47 322.044 148.71C321.176 145.212 321.151 141.714 322.044 138.216V138.216Z" fill="#101224"/>
<path d="M137.321 155.607L129.586 155.731C128 156.947 126.438 156.004 124.876 155.682L124.826 155.607C125.049 154.292 126.091 154.466 127.008 154.367C129.611 156.153 132.536 154.689 135.263 155.21C135.908 155.334 136.627 155.185 137.321 155.136C137.52 155.235 137.569 155.334 137.52 155.434C137.445 155.533 137.396 155.582 137.321 155.582V155.607Z" fill="#F4C3B2"/>
<path d="M123.562 182.303C123.488 181.087 124.231 180.219 124.901 179.35C125.669 178.755 126.463 178.68 127.281 179.226C127.429 182.476 126.587 183.444 123.76 183.196C123.463 182.948 123.388 182.65 123.562 182.303Z" fill="#F4E3B3"/>
<path d="M135.61 198.379C136.577 198.553 138.287 197.834 137.023 200.141C136.403 201.282 136.75 202.994 136.651 204.433C135.065 202.647 135.585 200.463 135.61 198.379Z" fill="#F8C5BB"/>
<path d="M290.013 276.704C290.013 277.473 289.963 278.242 290.038 279.011C290.261 281.219 289.443 281.492 287.757 280.326C288.501 279.11 288.525 277.448 290.013 276.704V276.704Z" fill="#009CD9"/>
<path d="M373.164 214.952C373.164 218.55 373.164 222.122 373.164 225.72C372.817 225.894 372.569 225.794 372.371 225.472C372.321 225 372.321 224.504 372.321 224.008C372.271 221.229 372.395 218.426 372.247 215.647L372.023 215.523C372.395 215.325 372.767 215.151 373.164 214.952Z" fill="#B99A8E"/>
<path d="M481.925 253.035C480.934 252.241 480.388 250.902 479.025 250.554C479.025 250.182 478.975 249.81 478.95 249.438C482.074 249.711 482.669 250.455 481.925 253.011V253.035Z" fill="#8DA8D8"/>
<path d="M329.928 166.3C331.49 166.375 332.035 167.714 332.903 168.657C331.688 168.732 331.638 169.625 331.589 170.518C330.002 169.526 330.349 167.764 329.928 166.3Z" fill="#EEBBA8"/>
<path d="M213.952 220.956C212.564 222.519 214.2 224.727 212.837 226.266C211.25 224.107 211.424 221.924 212.812 219.765C213.233 219.765 213.63 219.79 214.052 219.815C214.027 220.187 214.002 220.584 213.952 220.956V220.956Z" fill="#CEB1C1"/>
<path d="M476.595 120.452C476.942 119.261 475.579 118.814 475.405 117.847C475.852 117.971 476.323 118.169 476.794 118.194C477.537 118.268 478.232 118.591 478.232 119.286C478.256 120.253 477.339 120.328 476.595 120.452V120.452Z" fill="#633429"/>
<path d="M127.206 179.4C126.437 179.4 125.669 179.375 124.9 179.35C124.975 178.953 125.024 178.581 125.099 178.184C126.214 178.531 127.9 177.341 128.396 179.4C127.999 179.722 127.603 179.722 127.206 179.4Z" fill="#F9CEAF"/>
<path d="M130.082 193.69L131.966 193.591C133.156 192.698 134.346 192.524 135.511 193.616C135.511 194.211 135.511 194.832 135.487 195.427C135.313 195.204 135.14 195.005 134.941 194.782C133.627 194.013 132.115 194.931 130.801 194.236L130.082 193.666V193.69Z" fill="#DED7DE"/>
<path d="M232.968 219.666C233.687 217.706 235.348 218.897 236.587 218.599C236.761 218.748 236.835 218.947 236.761 219.195C236.538 219.468 236.191 219.542 235.918 219.716L232.993 219.666H232.968Z" fill="#F1C5BF"/>
<path d="M121.206 162.653V169.327C120.537 169.377 120.413 168.93 120.388 168.359C120.537 166.524 120.066 164.663 120.661 162.827C120.835 162.777 121.033 162.703 121.206 162.628V162.653Z" fill="#ECCEDB"/>
<path d="M120.661 162.852V168.657C120.512 168.955 120.314 168.98 120.115 168.657C120.264 166.697 119.52 164.688 120.661 162.827V162.852Z" fill="#C8A8B6"/>
<path d="M473.05 122.288L474.24 120.005C475.008 120.03 475.38 120.452 475.43 121.196C474.76 121.841 474.041 122.362 473.05 122.288V122.288Z" fill="#633429"/>
<path d="M418.384 216.168C417.145 215.895 415.484 217.011 414.765 215.051C416.128 214.903 417.393 215.076 418.384 216.168Z" fill="#71A2D7"/>
<path d="M136.825 209.048C138.61 209.593 137.718 211.008 137.866 212.099C136.676 211.355 136.627 210.238 136.825 209.048Z" fill="#E8CEDB"/>
<path d="M236.612 219.17C236.587 218.971 236.587 218.773 236.587 218.574C238.174 218.574 239.76 218.574 241.322 218.599C240.925 218.798 240.504 218.971 240.107 219.17C238.942 219.567 237.777 219.592 236.612 219.17V219.17Z" fill="#DDCDE1"/>
<path d="M465.761 163.844C466.108 162.38 467.298 162.827 468.265 162.728C468.017 164.39 466.752 163.819 465.761 163.844Z" fill="#B1AAD3"/>
<path d="M259.172 203.168C259.296 201.58 258.601 199.893 259.742 198.429C260.188 199.57 260.163 200.736 259.742 201.902L259.172 203.168V203.168Z" fill="#E1D0DC"/>
<path d="M169.996 221.527V222.147C168.36 222.122 166.774 222.098 165.162 222.048C165.212 221.899 165.261 221.725 165.286 221.552C166.848 221.006 168.435 221.08 169.996 221.502V221.527Z" fill="#B4A6BA"/>
<path d="M449.225 226.935C448.283 226.811 447.118 227.134 446.82 225.72C447.787 225.769 449.052 225.248 449.225 226.935Z" fill="#85A6D7"/>
<path d="M256.816 209.196C256.866 208.204 256.321 206.914 258.031 206.74C257.907 207.708 258.23 208.874 256.816 209.196Z" fill="#F4C6BD"/>
<path d="M368.479 209.048C369.445 209.147 370.635 208.7 371.007 210.164C369.991 210.164 368.751 210.71 368.479 209.048Z" fill="#ACAAD5"/>
<path d="M139.007 215.151C139.18 214.828 139.255 214.332 139.527 214.208C139.924 214.009 140.172 214.406 140.222 214.828C140.296 215.622 139.974 216.093 139.156 216.168L139.007 215.151V215.151Z" fill="#FACBAA"/>
<path d="M123.561 182.302L123.735 182.948C124.33 183.741 124.305 184.535 123.71 185.329C123.66 185.925 123.636 186.545 123.586 187.14C123.413 186.917 123.214 186.694 123.041 186.495C122.619 185.329 122.619 184.163 123.041 182.972L123.561 182.302V182.302Z" fill="#D6D9EC"/>
<path d="M259.742 201.902C259.742 200.736 259.742 199.595 259.742 198.429C259.916 198.206 260.089 197.958 260.263 197.734C260.213 199.149 260.808 200.612 259.767 201.902H259.742Z" fill="#BAA8B5"/>
<path d="M306.673 251.869V254.152C306.227 254.152 305.805 254.152 305.384 254.152C305.483 253.184 305.632 252.266 306.673 251.869Z" fill="#0085BC"/>
<path d="M130.801 194.261C132.189 194.459 133.701 193.69 134.941 194.807C133.577 194.583 132.065 195.353 130.801 194.261Z" fill="#B7B1B9"/>
<path d="M236.612 219.17C237.777 219.17 238.943 219.17 240.108 219.17C238.819 220.212 237.331 219.617 235.918 219.691C236.141 219.517 236.389 219.344 236.637 219.17H236.612Z" fill="#B6A6BB"/>
<path d="M123.016 182.972C123.016 184.138 123.016 185.329 123.016 186.495C122.148 185.329 122.148 184.163 123.016 182.972Z" fill="#A6A9BF"/>
<path d="M120.115 168.682C120.289 168.682 120.487 168.682 120.661 168.682C120.859 168.905 121.033 169.128 121.231 169.352C121.231 169.922 121.206 170.518 121.181 171.088C120.512 170.443 120.115 169.649 120.115 168.707V168.682Z" fill="#B6B3D4"/>
<path d="M445.729 225.67C444.861 225.744 444.291 225.273 443.895 224.554C444.762 224.479 445.58 224.554 445.729 225.67Z" fill="#6FA6DA"/>
<path d="M443.399 286.231H325.564C324.647 285.114 324.746 283.824 324.919 282.534C325.465 278.242 326.977 277.622 330.373 280.202C330.844 280.574 331.316 280.922 331.762 281.319C333.696 283.03 335.48 283.105 337.513 281.294C343.959 275.563 351.422 271.519 359.528 268.715C367.784 265.837 376.337 263.431 385.039 263.604C402.071 263.976 418.756 266.557 433.507 276.208C436.259 277.994 438.787 280.053 441.192 282.261C442.308 283.303 443.572 284.42 443.399 286.256V286.231Z" fill="#EFEDEA"/>
<path d="M443.399 286.231C436.557 277.597 427.284 272.685 417.07 269.459C396.221 262.885 375.495 262.587 355.091 271.37C348.521 274.198 342.423 277.796 337.241 282.758C335.63 284.296 334.142 284.345 332.531 283.105C330.746 281.716 329.06 280.202 327.201 278.589C325.663 280.971 325.738 283.626 325.589 286.206C323.854 286.206 322.118 286.181 320.383 286.156C320.656 282.237 321.052 278.441 323.036 274.843C324.424 272.362 325.986 271.395 328.663 271.99C329.605 272.66 330.547 273.33 330.994 274.496C331.018 274.595 331.043 274.694 331.118 274.769C334.316 278.217 334.291 278.193 337.836 275.414C347.406 267.971 358.438 263.927 370.164 261.223C385.734 257.65 400.906 259.759 416.029 263.58C416.599 263.728 417.194 263.704 417.789 263.753C419.872 264.249 422.153 264.175 423.739 265.986C423.888 266.11 424.062 266.16 424.235 266.085C426.02 266.507 427.805 266.929 429.094 268.393C433.854 271.37 438.937 273.925 442.978 277.92C445.506 280.425 448.333 282.708 449.721 286.156C447.614 286.156 445.531 286.181 443.424 286.206L443.399 286.231Z" fill="#040405"/>
<path d="M255.528 103.432C255.528 107.377 255.528 111.297 255.528 115.242C244.694 123.255 233.389 130.475 220.224 136.33L223.571 136.727C223.298 138.017 222.208 138.116 221.265 138.116C218.092 138.116 214.968 138.736 211.82 138.786C210.655 138.563 209.415 138.861 208.349 138.265C207.308 137.694 206.242 137.049 206.886 135.536C218.786 129.582 230.364 123.131 240.95 115.043C245.264 111.743 249.379 108.245 253.296 104.499C253.866 103.953 254.214 102.465 255.577 103.457L255.528 103.432Z" fill="#F4B194"/>
<path d="M206.837 135.536C207.63 138.042 209.763 137.843 211.746 137.893C211.597 139.034 210.63 139.183 209.812 139.406C206.614 140.225 204.11 141.863 202.647 144.914C201.829 143.674 200.838 143.897 199.548 144.244C190.425 146.75 181.351 149.38 172.129 151.538C160.675 154.243 149.147 156.203 137.321 155.632C137.321 155.483 137.321 155.334 137.321 155.186C160.997 152.928 183.409 146.229 204.928 136.305C205.548 136.032 206.193 135.809 206.837 135.561V135.536Z" fill="#F3B195"/>
<path d="M209.837 152.084C219.976 148.958 230.116 147.991 240.058 152.655C245.636 155.26 249.726 159.18 249.627 165.928C249.578 170.121 247.346 173.371 244.446 176.175C243.256 177.341 241.967 178.383 240.702 179.474C240.306 180.243 239.463 180.194 238.818 180.516C232.025 183.766 224.91 185.652 217.373 185.652C215.886 185.652 214.2 186.173 213.01 184.66C212.167 184.337 211.845 183.568 211.671 182.824C209.366 173.619 207.655 164.34 208.795 154.764C208.919 153.771 209.093 152.804 209.837 152.059V152.084Z" fill="#010101"/>
<path d="M212.786 219.765C212.786 221.924 212.786 224.107 212.811 226.266C212.811 229.838 212.836 233.386 212.861 236.959C211.844 245.121 207.258 250.455 199.696 253.408C190.598 248.991 182.615 243.285 177.334 234.378C175.153 230.682 174.384 226.687 174.731 222.445C174.83 221.155 175.351 220.41 176.69 220.361C176.987 220.361 177.285 220.336 177.582 220.361C189.334 220.783 201.035 219.393 212.786 219.79V219.765Z" fill="#F5B294"/>
<path d="M209.837 152.084C208.622 163.174 210.209 173.991 213.01 184.684C210.333 186.347 207.804 184.908 205.424 184.014C201.036 182.352 196.648 180.566 194.169 176.075C191.59 171.361 191.888 166.796 194.813 162.48C196.797 159.552 199.202 156.947 202.648 155.582C203.243 155.185 204.011 155.037 204.482 154.441C206.193 153.498 207.779 152.233 209.862 152.084H209.837Z" fill="#F8F2EE"/>
<path d="M202.647 144.914C202.35 142.359 203.614 140.796 205.92 139.952C207.854 139.233 209.787 138.563 211.746 137.893C215.688 137.496 219.605 137.124 223.547 136.727C229.943 137.149 236.339 137.372 242.612 138.96C243.083 139.084 243.579 139.158 244.05 139.282C247.396 140.2 248.735 141.738 248.115 143.996C247.52 146.179 245.587 146.924 242.265 146.13C232.869 143.946 223.398 143.053 213.829 144.889C211.969 145.237 210.184 145.758 208.473 146.527C206.044 147.643 204.085 147.246 202.672 144.864L202.647 144.914Z" fill="#33211A"/>
<path d="M180.112 187.711C181.153 186.992 181.649 185.602 183.062 185.305C183.781 184.734 184.351 185.056 184.822 185.652C185.144 186.049 185.02 186.768 185.293 187.016C188.045 189.448 186.111 190.961 184.277 192.499C182.492 194.385 180.632 196.171 177.756 196.022C177.285 196.618 176.393 195.898 175.971 196.593C169.997 198.553 160.278 196.146 155.717 189.497C155.27 188.927 155.146 188.133 154.502 187.711C153.138 186.917 153.237 185.131 152.171 184.139C151.502 183.32 150.808 182.476 151.155 181.285C151.378 180.764 151.849 180.318 151.75 179.673C150.907 173.867 153.262 168.88 155.717 163.919C156.634 163.323 157.08 163.919 157.477 164.613C157.601 165.953 158.543 166.697 159.485 167.442C159.683 167.838 159.683 168.235 159.485 168.632C157.849 171.858 155.593 174.835 157.353 178.879C158.121 180.616 157.204 182.749 158.568 184.684C159.485 185.974 160.377 186.297 161.642 186.471C165.732 190.341 170.592 191.16 175.922 189.994C177.137 188.877 178.649 188.331 180.087 187.662L180.112 187.711Z" fill="#E497AA"/>
<path d="M159.311 168.682V167.491C158.543 166.672 157.774 165.878 156.931 165.109C156.906 164.34 156.485 163.968 155.741 163.894C158.245 159.924 161.741 157.468 166.451 156.823C167.418 158.981 164.369 158.187 164.468 159.874C165.36 158.485 166.501 158.758 167.641 159.502C167.84 158.46 166.848 157.641 167.641 156.823L169.996 157.989C170.815 159.18 170.815 160.346 169.996 161.537C168.236 163.149 165.856 163.645 163.873 164.861C162.237 165.854 161.146 167.317 159.931 168.682C159.733 168.93 159.534 168.93 159.336 168.682H159.311Z" fill="#E498A9"/>
<path d="M130.801 161.586C132.71 160.073 134.098 160.495 134.296 162.802C134.569 165.928 134.247 169.079 134.743 172.205C134.891 173.073 134.569 174.488 133.429 174.984C132.139 175.53 131.495 174.388 130.751 173.644C130.131 173.024 129.611 172.304 129.065 171.634C127.181 168.285 127.875 164.191 130.776 161.586H130.801Z" fill="#E39373"/>
<path d="M133.106 181.906L133.205 180.541C136.478 179.449 137.147 179.846 137.197 182.923C137.643 180.938 137.197 179.673 134.792 179.946C134.197 180.02 133.627 179.846 133.18 179.375V177.018C134.742 176.1 136.329 176.125 137.891 177.018C138.56 179.052 140.444 180.591 140.271 182.948C138.833 184.784 139.825 187.041 139.18 189.001C137.445 188.927 135.66 189.572 133.974 188.728C133.329 186.495 132.957 184.238 133.081 181.906H133.106Z" fill="#F9DEB5"/>
<path d="M133.107 181.906C135.016 183.965 134.371 186.471 134.322 188.877C134.024 189.299 133.578 189.498 133.082 189.572C132.239 189.721 131.52 189.299 130.776 188.952C129.537 188.555 129.091 187.389 128.322 186.52C126.438 183.94 126.661 182.799 129.314 181.211C129.834 181.137 130.33 181.261 130.776 181.558L133.082 181.906H133.107Z" fill="#9BA8D5"/>
<path d="M159.311 168.682H159.906C156.535 175.033 157.229 180.963 161.667 186.52C160.278 186.446 160.824 188.133 159.931 188.505C158.295 187.264 159.014 184.262 156.361 183.841C156.262 183.841 156.088 183.469 156.113 183.419C158.245 180.814 155.915 178.457 155.766 176.001C155.642 174.115 158.146 169.128 159.311 168.707V168.682Z" fill="#E49AA8"/>
<path d="M155.717 163.918C155.791 164.291 156.064 164.886 155.915 165.035C153.585 167.218 154.824 170.667 153.064 173.048C151.626 175.008 151.75 177.192 152.667 179.102C153.436 180.74 152.246 180.64 151.576 181.161C151.229 181.112 151.031 180.888 150.981 180.566C150.808 175.48 150.535 170.369 153.808 165.953C154.353 165.209 154.477 164.043 155.692 163.918H155.717Z" fill="#E498A9"/>
<path d="M133.181 189.051L134.322 188.852C135.933 187.637 137.52 187.537 139.106 188.852C139.305 188.654 139.503 188.629 139.701 188.852C139.577 190.291 137.396 190.664 137.916 192.4C137.346 193.244 136.156 192.797 135.561 193.591H135.536C134.346 193.591 133.181 193.591 131.991 193.591V191.234C131.991 191.234 132.14 191.011 132.19 190.912C132.537 190.564 133.008 190.291 132.908 189.696C132.908 189.448 133.008 189.225 133.181 189.051V189.051Z" fill="#F6E3B3"/>
<path d="M184.276 192.499C184.227 191.582 185.02 191.185 185.516 190.589C186.086 189.894 186.979 189.2 185.293 188.828C184.227 188.604 184.177 187.786 184.4 186.992C184.723 185.751 184.103 185.404 183.062 185.305C184.252 183.32 185.665 182.203 187.822 184.139C187.4 184.61 186.805 184.957 186.706 185.726C187.45 185.379 187.227 184.486 187.822 184.139C189.755 185.503 189.284 187.141 188.268 188.778C187.276 190.341 186.309 192.003 184.276 192.499V192.499Z" fill="#E49AA5"/>
<path d="M129.611 181.509C127.28 182.7 127.702 184.585 128.346 186.52L127.206 187.091C126.264 186.024 125.297 185.007 123.686 185.305C123.686 184.511 123.686 183.717 123.71 182.923C126.462 183.32 126.14 180.69 127.181 179.375H128.371C128.421 180.119 128.817 180.516 129.536 180.541C129.834 180.839 129.859 181.161 129.586 181.484L129.611 181.509Z" fill="#F8E0B7"/>
<path d="M250.817 186.495V183.369C251.958 185.528 255.329 185.032 255.577 187.686C256.172 188.48 257.387 187.984 257.957 188.877C257.362 190.887 255.726 189.919 254.536 189.994C253.346 190.093 253.173 189.1 253.222 188.182C253.272 186.396 252.032 186.471 250.842 186.495H250.817Z" fill="#F9C5B4"/>
<path d="M124.9 155.682C126.462 155.682 128.049 155.706 129.611 155.731C129.958 158.336 129.041 160.073 126.338 160.743C125.842 160.867 125.371 161.636 125 160.718C124.752 160.123 124.975 159.527 125.669 159.329C126.437 159.105 127.28 158.957 127.156 157.89C127.107 157.394 127.032 156.376 126.264 156.897C124.033 158.361 125.099 156.376 124.9 155.706V155.682Z" fill="#F9C7B0"/>
<path d="M167.617 156.848C168.137 158.237 169.6 159.428 168.286 161.289C167.22 161.09 166.03 157.418 164.815 161.165C164.642 161.686 163.724 161.636 163.253 161.165C162.683 160.569 163.005 159.974 163.328 159.279C163.972 157.89 166.08 158.51 166.402 156.848C166.799 156.848 167.195 156.848 167.592 156.848H167.617Z" fill="#E498AC"/>
<path d="M130.801 161.586C128.818 164.687 128.198 168.037 129.09 171.634C128 171.237 127.405 170.642 127.181 169.352C126.661 166.523 128.644 164.34 128.867 161.71C128.942 160.991 130.107 161.14 130.826 161.586H130.801Z" fill="#F9C7B0"/>
<path d="M240.108 184.139V182.948C240.703 182.402 241.372 182.228 242.116 182.551C243.38 183.766 242.735 185.156 242.488 186.495C241.868 186.868 239.86 185.478 240.802 187.934C241.223 189.051 240.083 188.952 239.537 188.654C238.694 188.207 237.876 187.587 237.728 186.495C238.323 185.503 239.116 184.709 240.108 184.114V184.139Z" fill="#FAC8B0"/>
<path d="M186.632 171.064C186.756 169.625 187.004 168.36 188.962 168.632C190.326 168.806 189.904 167.119 190.747 166.697C192.16 170.344 191.689 171.014 187.822 171.064C187.425 171.411 187.029 171.411 186.632 171.064V171.064Z" fill="#F9C5AD"/>
<path d="M133.181 179.4C134.073 179.4 134.941 179.35 135.833 179.4C136.577 179.425 137.544 179.226 137.767 180.268C138.015 181.409 138.164 182.6 137.594 183.692C137.346 184.138 136.775 184.163 136.28 184.014C136.007 183.94 135.883 183.766 135.933 183.369C136.205 180.591 136.18 180.591 133.23 180.541C133.23 180.169 133.23 179.772 133.23 179.4H133.181Z" fill="#F4E4B1"/>
<path d="M180.656 174.661C180.384 176.05 179.392 175.802 178.549 175.777C178.028 175.777 177.037 175.232 177.657 175.008C179.367 174.339 175.673 172.205 178.475 172.403C179.665 172.478 180.458 173.495 180.632 174.661H180.656Z" fill="#F9C9AE"/>
<path d="M255.602 120.898C256.445 126.481 255.949 132.137 256.272 137.744C255.305 137.149 255.577 136.206 255.577 135.338C255.577 130.525 255.577 125.711 255.602 120.874V120.898Z" fill="#F1CBBD"/>
<path d="M244.817 217.334C243.231 217.185 242.884 215.151 241.297 215.002C241.322 214.258 241.718 213.861 242.487 213.811C243.528 213.91 244.594 213.588 245.71 214.183C245.363 215.225 244.594 216.168 244.817 217.334Z" fill="#FAC9B0"/>
<path d="M139.701 188.877H139.106C139.528 187.19 138.412 186.471 136.875 185.825C139.106 185.875 138.71 183.369 140.296 182.948C141.164 184.535 141.139 186.123 140.296 187.711C140.271 188.207 140.148 188.629 139.676 188.877H139.701Z" fill="#F6E3B0"/>
<path d="M248.438 187.686C246.975 186.793 245.438 186.223 243.678 186.495C243.331 186.099 243.38 185.702 243.678 185.305C245.264 183.171 246.851 185.255 248.413 185.305C249.132 186.099 249.132 186.892 248.413 187.686H248.438Z" fill="#FAC8B0"/>
<path d="M186.632 171.064H187.822C187.797 172.056 187.946 172.974 189.012 173.445C189.83 174.066 191.243 174.562 189.607 175.802C187.029 176.274 186.384 174.909 186.781 172.726C186.88 172.131 186.88 171.61 186.657 171.064H186.632Z" fill="#F8BBA3"/>
<path d="M137.569 158.535C136.404 159.031 135.858 161.239 134.048 159.701C133.701 159.403 133.131 158.808 133.552 158.485C134.817 157.542 136.205 157.89 137.569 158.51V158.535Z" fill="#F9C7B0"/>
<path d="M248.438 187.686V185.305C248.611 184.585 248.909 183.841 249.504 184.957C249.851 185.602 249.826 186.421 250.817 186.495C249.727 188.604 249.404 188.753 248.438 187.686V187.686Z" fill="#F9C5B4"/>
<path d="M242.488 182.948H240.108C240.058 181.955 240.38 180.74 238.818 180.541C239.289 179.921 239.884 179.499 240.703 179.499C240.826 180.764 243.008 180.715 242.488 182.377C242.636 182.501 242.686 182.625 242.636 182.774C242.587 182.898 242.537 182.972 242.488 182.972V182.948Z" fill="#F7C4B5"/>
<path d="M242.488 182.947V182.352C244.347 182.749 243.43 184.262 243.678 185.304V186.495H242.488C241.645 185.304 241.645 184.114 242.488 182.923V182.947Z" fill="#F9C6BA"/>
<path d="M137.891 177.018C136.305 177.018 134.743 177.018 133.156 177.018C134.718 175.058 136.305 175.083 137.891 177.018Z" fill="#FACDB1"/>
<path d="M140.296 187.711C140.296 186.123 140.296 184.535 140.296 182.948C142.18 184.535 142.155 186.123 140.296 187.711Z" fill="#FBD7B4"/>
<path d="M257.933 188.877C256.991 188.778 255.776 189.249 255.553 187.686C256.891 187.686 256.544 186.223 257.338 185.478C258.305 186.595 257.784 187.81 257.933 188.877Z" fill="#FACCAD"/>
<path d="M189.607 175.802C190.35 174.785 189.359 174.19 189.012 173.445C189.83 173.967 190.574 171.461 191.268 173.247C191.714 174.438 191.64 175.902 189.607 175.802Z" fill="#F9C5AD"/>
<path d="M151.006 180.566L151.601 181.161C151.799 182.154 151.998 183.146 152.171 184.139C151.056 183.196 148.229 182.799 151.006 180.566Z" fill="#F7C0B8"/>
<path d="M180.111 187.711C179.095 189.15 177.558 189.671 175.946 190.043C176.591 187.959 178.178 187.513 180.111 187.711Z" fill="#F5BBB5"/>
<path d="M129.611 181.509C129.611 181.186 129.586 180.888 129.562 180.566C129.76 179.896 129.239 178.978 130.28 178.531C131.198 179.449 130.628 180.566 130.801 181.558C130.404 181.558 130.008 181.533 129.611 181.509V181.509Z" fill="#F8C2B9"/>
<path d="M240.107 184.139C239.76 185.379 238.966 186.173 237.727 186.52C237.479 184.684 238.272 183.89 240.107 184.139Z" fill="#F7C4B5"/>
<path d="M169.972 161.537C169.972 160.346 169.972 159.18 169.972 157.989C171.806 159.18 171.831 160.371 169.972 161.537Z" fill="#F7BFB4"/>
<path d="M169.997 221.527C168.435 221.527 166.848 221.552 165.286 221.576C166.848 220.634 168.435 220.634 169.997 221.527Z" fill="#DACDE0"/>
<path d="M135.536 193.591C135.759 192.053 136.974 192.524 137.891 192.4C137.693 193.963 136.478 193.517 135.536 193.591Z" fill="#FBD5B4"/>
<path d="M240.156 215.027C239.438 214.828 238.545 215.349 238.024 214.233C239.09 213.687 239.809 213.687 240.156 215.027Z" fill="#F9C6B6"/>
<path d="M204.457 154.441C204.357 155.632 203.515 155.657 202.622 155.582C203.019 154.863 203.589 154.416 204.457 154.441Z" fill="#FBEADE"/>
<path d="M175.972 196.593C175.749 196.469 175.03 196.419 175.575 196.122C176.145 195.824 177.013 196.022 177.732 196.022C177.286 196.643 176.616 196.618 175.947 196.593H175.972Z" fill="#E3A29A"/>
<path d="M154.502 187.711C155.717 187.761 155.766 188.604 155.717 189.497C154.973 189.125 154.552 188.53 154.502 187.711Z" fill="#E59FA3"/>
<path d="M340.96 106.285C341.034 105.417 341.555 104.921 342.298 104.549C342.918 104.127 343.588 103.879 344.331 104.052C344.604 104.127 344.877 104.226 345.125 104.375C346.315 105.243 347.306 104.846 348.298 103.978C349.662 102.787 351.223 102.018 353.083 101.919C368.255 101.919 383.453 101.919 398.625 101.919C399.691 101.919 400.782 101.646 401.823 102.192C404.451 108.469 407.649 114.373 413.004 118.839C400.856 119.038 388.708 118.268 376.585 119.459C372.42 116.408 368.255 113.381 363.099 112.041C362.132 111.793 360.867 112.165 360.124 111.123C359.405 110.453 358.413 111.098 357.669 110.602C357.397 110.23 357.372 109.808 357.471 109.387C357.644 108.717 358.735 108.146 357.719 107.352C357.322 107.03 356.802 106.856 356.331 107.129C355.289 107.774 356.182 108.766 355.983 109.56C355.909 110.032 355.736 110.429 355.339 110.701C354.868 110.826 354.422 110.776 354 110.602C349.438 111.222 344.877 111.719 340.588 113.53C338.902 113.257 337.886 112.587 339.522 111.024C340.761 109.833 340.365 107.054 343.191 107.377C342.323 107.154 341.381 107.327 340.984 106.31L340.96 106.285Z" fill="#D79072"/>
<path d="M374.404 231.624C374.33 230.607 375.247 230.061 375.594 229.243C376.958 228.449 377.528 227.308 377.404 225.695C377.33 224.504 377.032 223.189 377.949 222.122C378.247 220.559 377.28 219.592 376.288 218.624C375.644 218.004 375.396 217.26 375.941 216.565C376.363 216.019 376.735 215.374 377.751 215.399C379.536 215.473 380.205 213.737 379.139 212.025C383.577 213.017 388.164 212.422 392.651 213.042C395.304 213.389 398.13 212.819 400.832 212.372C404.65 211.777 406.237 212.992 406.088 216.838C405.89 221.75 403.857 226.017 401.055 229.888C397.163 235.271 392.056 239.167 385.61 241.151C385.04 241.772 384.296 241.896 383.503 241.772C383.23 241.697 382.982 241.598 382.734 241.449C382.387 240.581 381.916 240.134 381.023 240.928C380.751 240.978 380.478 241.003 380.205 240.978C379.362 240.829 378.52 240.63 377.999 239.861C376.387 239.092 375.222 237.876 374.404 236.289C374.578 235.569 373.908 235.197 373.71 234.626C374.082 233.163 375.52 233.584 376.387 233.113C376.363 233.113 376.462 233.039 376.462 233.039C376.462 233.039 376.263 233.138 376.239 233.138C375.148 233.187 374.95 232.17 374.355 231.649L374.404 231.624Z" fill="#D79072"/>
<path d="M418.285 186.446C415.954 187.661 413.599 188.902 411.269 190.118C409.781 191.829 407.823 191.929 405.765 191.83C403.93 191.805 402.096 191.904 400.261 191.755C399.939 191.656 399.641 191.532 399.344 191.333C397.286 191.383 395.65 189.497 393.493 190.018C391.832 189.373 390.047 188.927 388.733 187.587C386.948 184.56 383.626 182.774 382.237 179.425C381.568 177.837 380.378 176.472 380.304 174.636C379.56 173.495 379.362 172.279 379.734 170.989C379.957 169.401 379.386 167.714 380.304 166.201C380.403 165.258 380.105 164.117 381.543 163.894C382.758 163.149 383.973 163.199 385.213 163.869C386.923 164.439 387.568 165.705 387.543 167.417C387.543 168.657 387.369 169.947 388.188 171.064C390.072 173.148 390.493 176.05 392.229 178.234C393.27 178.78 394.014 179.623 394.658 180.566C399.716 183.791 405.021 183.965 410.426 181.608C411.368 181.211 412.409 180.69 412.583 179.425C412.83 178.11 414.045 177.738 414.913 177.043C416.475 175.852 417.318 174.314 417.293 172.329C417.491 172.081 417.64 171.808 417.764 171.51C418.037 168.483 417.69 165.432 417.962 162.405C418.061 162.107 418.235 161.81 418.433 161.562C421.185 158.659 421.631 158.659 425.549 161.611C426.739 162.554 425.697 164.216 426.763 165.184C427.557 172.354 424.631 178.358 420.838 184.089C420.243 185.106 419.475 185.925 418.409 186.471L418.285 186.446Z" fill="#E084B5"/>
<path d="M458.795 145.534C461.472 143.971 462.861 146.179 464.1 147.718C465.612 149.554 465.91 151.811 464.298 153.92C462.91 155.731 461.051 156.699 458.77 156.848C457.778 154.267 459.216 151.687 458.77 149.082C458.572 147.941 458.77 146.725 458.77 145.534H458.795Z" fill="#CD764F"/>
<path d="M392.204 178.234C389.303 176.72 388.783 173.867 388.163 171.064C389.725 171.113 390.841 172.18 392.105 172.85C393.146 173.396 394.361 174.562 392.551 175.802C391.51 176.522 392.551 177.465 392.229 178.234H392.204Z" fill="#F7B7A1"/>
<path d="M405.344 235.222C404.352 237.38 402.542 238.67 400.534 239.762C401.427 237.579 402.319 235.396 403.212 233.188C404.501 233.386 403.856 235.371 405.319 235.247L405.344 235.222Z" fill="#F1B7A5"/>
<path d="M399.344 191.333H399.988C401.947 191.705 403.93 191.705 405.889 191.284C407.872 191.78 409.36 189.944 411.269 190.118C411.169 191.06 411.467 192.326 410.004 192.35C406.756 192.425 403.509 192.35 400.261 192.35C399.716 192.35 399.468 191.829 399.344 191.333V191.333Z" fill="#F6B2A9"/>
<path d="M414.863 177.018C414.516 178.234 413.748 179.028 412.533 179.4C410.475 179.4 408.988 178.755 409.062 175.554C410.872 178.308 412.905 177.266 414.839 177.018H414.863Z" fill="#F7B7A3"/>
<path d="M470.67 143.748C470.943 146.304 468.216 146.676 467.224 148.363C466.951 148.809 466.034 148.14 465.91 147.321C466.778 146.775 466.208 145.485 467.1 144.939C468.315 144.592 469.207 143.326 470.67 143.748Z" fill="#F7B7A2"/>
<path d="M388.708 187.587C390.692 187.637 392.13 188.728 393.468 190.019C393.27 190.019 393.047 189.969 392.898 190.068C390.171 191.482 389.279 189.795 388.684 187.587H388.708Z" fill="#F6B4A5"/>
<path d="M380.304 171.138C380.304 172.304 380.304 173.47 380.279 174.636C377.577 172.825 377.552 172.701 379.138 171.064C379.287 170.865 379.51 170.766 379.758 170.716C380.006 170.766 380.18 170.915 380.304 171.138Z" fill="#F5B1A5"/>
<path d="M417.789 172.155C417.591 172.205 417.417 172.254 417.219 172.304C417.219 169.476 417.169 166.672 417.194 163.844C417.194 162.901 416.971 161.81 418.359 161.537V162.157C417.591 165.457 418.582 168.831 417.814 172.13L417.789 172.155Z" fill="#F6B1B0"/>
<path d="M426.665 165.184C424.731 164.514 425.822 162.802 425.45 161.611C427.657 162.207 426.343 163.968 426.665 165.184Z" fill="#F3ADA5"/>
<path d="M394.609 180.541C393.295 180.293 392.552 179.449 392.18 178.234C394.014 177.936 394.832 178.705 394.609 180.541Z" fill="#F6B3A4"/>
<path d="M418.285 186.446C418.707 185.255 419.45 184.386 420.715 184.064C421.012 185.974 420.169 186.743 418.285 186.446Z" fill="#F6B2A5"/>
<path d="M467.1 144.939C467.001 145.882 467.447 147.098 465.91 147.321C465.91 146.452 465.736 145.485 466.009 144.716C466.48 143.45 466.877 144.12 467.1 144.939V144.939Z" fill="#F7B89B"/>
<path d="M386.924 146.105C386.874 144.145 386.849 142.185 386.8 140.25C387.915 142.185 387.742 144.145 386.924 146.105Z" fill="#E9C2B1"/>
<path d="M378.594 212C377.676 212.595 376.635 212.695 375.594 212.62C375.594 212.223 375.594 211.801 375.594 211.38C376.61 211.504 377.701 211.156 378.569 211.975L378.594 212Z" fill="#D69077"/>
<path d="M383.229 241.226C384.023 241.226 384.841 241.176 385.634 241.151C385.882 241.524 386.13 241.871 386.378 242.243L385.758 242.441C384.568 242.764 383.205 243.459 383.254 241.226H383.229Z" fill="#A4A2AA"/>
<path d="M379.734 171.064H379.114C379.436 169.501 378.519 167.764 379.734 166.3C380.229 167.888 380.229 169.476 379.734 171.064Z" fill="#F09BBC"/>
<path d="M379.734 171.064C379.734 169.476 379.734 167.888 379.734 166.3C379.907 166.275 380.106 166.226 380.279 166.176C380.279 167.814 380.279 169.476 380.279 171.138C380.106 171.113 379.907 171.089 379.709 171.064H379.734Z" fill="#E288AB"/>
<path d="M425.152 202.25C425.201 202.969 424.78 203.068 424.433 203.019C424.111 202.994 423.615 202.82 423.54 202.597C423.367 202.076 423.887 202.001 424.234 202.001C424.557 202.001 424.879 202.175 425.152 202.25Z" fill="#F7B7A9"/>
<path d="M427.83 187.686C427.805 188.059 427.78 188.505 427.284 188.48C426.788 188.48 426.764 188.034 426.764 187.662C426.764 187.289 426.813 186.843 427.309 186.868C427.805 186.868 427.805 187.314 427.83 187.686Z" fill="#F7B6A6"/>
<path d="M408.963 222.073C409.136 222.073 409.285 222.122 409.459 222.122C409.905 223.313 409.93 224.479 409.459 225.67L408.963 226.266V222.048V222.073Z" fill="#68BCE4"/>
<path d="M385.188 163.844C383.973 163.844 382.733 163.844 381.519 163.869C381.519 163.695 381.543 163.521 381.568 163.348C382.758 162.852 383.923 162.876 385.113 163.348C385.113 163.521 385.163 163.695 385.188 163.869V163.844Z" fill="#E390A2"/>
<path d="M385.114 163.348C383.924 163.348 382.758 163.348 381.568 163.348C382.734 162.405 383.924 162.43 385.114 163.348Z" fill="#F4A7B9"/>
<path d="M380.354 240.556C380.528 240.556 380.701 240.556 380.875 240.556C381.247 240.73 381.643 240.804 381.891 241.176C382.189 242.243 383.155 242.789 383.899 243.483C381.172 245.27 378.197 246.411 374.999 247.056C374.776 247.279 374.578 247.279 374.379 247.056C373.908 244.451 375.966 244.724 377.354 244.401C379.214 243.533 372.569 241.399 377.949 241.127C378.941 241.747 379.709 241.399 380.329 240.556H380.354Z" fill="#0085BC"/>
<path d="M307.838 254.176C307.887 252.018 310.615 252.266 310.838 252.341C314.408 253.829 318.052 252.564 321.622 253.01C322.044 253.06 322.465 253.209 323.705 253.531C320.457 254.598 317.928 254.052 315.499 254.152C314.185 254.201 314.16 254.499 314.953 255.343C312.524 255.343 310.144 254.896 307.838 254.152V254.176Z" fill="#0085BC"/>
<path d="M423.715 266.011C421.682 265.415 419.574 264.969 417.765 263.778C419.277 263.381 420.839 262.612 422.326 262.711C424.26 262.835 423.839 264.622 423.739 266.011H423.715Z" fill="#0099D4"/>
<path d="M385.089 243.484H393.444C390.964 245.245 386.576 245.022 385.089 243.484Z" fill="#00A1DB"/>
<path d="M332.01 267.648C332.506 267.648 332.803 267.971 332.704 268.368C332.233 270.129 330.299 270.005 329.208 270.973C328.812 271.32 328.167 270.75 328.341 270.229C328.911 268.492 330.845 268.566 332.01 267.648Z" fill="#009AD8"/>
<path d="M326.853 269.137C326.853 269.956 326.729 270.75 325.663 270.725C324.572 270.725 324.522 269.906 324.522 269.087C324.522 268.169 324.597 267.252 325.861 267.376C326.927 267.475 326.828 268.368 326.878 269.137H326.853Z" fill="#009AD8"/>
<path d="M374.403 247.056H375.023C372.544 248.222 370.139 249.587 367.288 249.438C369.296 247.577 371.751 247.031 374.403 247.056Z" fill="#0087BE"/>
<path d="M429.069 268.417C427.383 267.797 425.648 267.227 424.21 266.11C424.408 266.11 424.631 266.135 424.805 266.061C427.383 264.77 428.449 266.209 429.094 268.417H429.069Z" fill="#0099D4"/>
<path d="M383.899 243.508C382.164 243.732 381.271 243.062 381.519 241.226C381.866 240.779 382.288 240.779 382.734 241.052C382.883 241.151 383.056 241.201 383.23 241.201C383.577 242.59 384.817 242.193 385.734 242.417C385.511 242.764 385.288 243.111 385.065 243.484C384.668 243.484 384.271 243.484 383.875 243.484L383.899 243.508Z" fill="#0086B3"/>
<path d="M363.719 250.629C364.363 248.545 366.099 249.81 367.289 249.463C366.322 250.579 365.058 250.703 363.719 250.629Z" fill="#0087BE"/>
<path d="M330.969 274.496L328.639 271.99C330.101 272.188 330.895 272.982 330.969 274.496Z" fill="#0096CF"/>
<path d="M409.459 225.695V222.147C410.351 223.338 410.376 224.529 409.459 225.695Z" fill="#3C94BC"/>
<path d="M375.594 239.936C375.321 240.035 375.049 240.134 374.776 240.234C374.057 240.531 374.85 242.392 373.313 241.697C372.669 241.4 371.975 240.779 372.098 239.861C372.297 238.373 373.512 238.869 374.379 238.745C375.619 238.298 376.016 238.695 375.569 239.936H375.594Z" fill="#0085BC"/>
<path d="M375.593 239.936C375.569 239.167 375.172 238.795 374.403 238.745C374.403 237.926 374.428 237.108 374.453 236.289C375.866 237.256 377.23 238.274 378.048 239.861C377.23 239.886 376.411 239.911 375.593 239.961V239.936Z" fill="#0086B3"/>
<path d="M380.354 240.556L380.18 243.285C378.941 242.814 378.172 242.268 377.949 241.127C377.974 240.705 377.999 240.283 378.048 239.861C378.891 239.861 379.759 239.737 380.354 240.581V240.556Z" fill="#0086B3"/>
<path d="M376.784 232.815C376.486 234.602 374.602 233.758 373.759 234.626C373.016 234.18 373.288 233.46 373.313 232.815C374.057 232.766 374.379 232.344 374.404 231.625L376.784 232.815Z" fill="#D49173"/>
<path d="M372.272 215.647C373.041 218.575 372.495 221.577 372.545 224.529C372.371 224.802 372.222 224.777 372.099 224.504C371.975 221.552 371.9 218.599 372.247 215.647H372.272Z" fill="#A58376"/>
<path d="M372.098 224.504C372.247 224.504 372.396 224.504 372.544 224.529C372.594 224.926 372.619 225.298 372.668 225.695C373.065 227.481 373.065 229.268 372.668 231.054H372.644C371.454 228.92 372.247 226.663 372.123 224.479L372.098 224.504Z" fill="#73797F"/>
<path d="M313.441 248.569C313.49 249.289 313.069 249.388 312.722 249.363C312.4 249.339 311.904 249.165 311.829 248.942C311.656 248.421 312.176 248.346 312.524 248.346C312.846 248.346 313.168 248.52 313.441 248.594V248.569Z" fill="#0084BE"/>
<path d="M401.824 102.167C385.164 102.167 368.504 102.167 351.819 102.192C349.34 103.035 346.861 103.879 344.406 102.092C348.001 100.827 351.745 102.018 355.389 101.472C369.719 101.547 384.048 101.621 398.378 101.72C399.518 101.72 400.758 101.323 401.799 102.167H401.824Z" fill="#BD9687"/>
<path d="M474.24 120.005H465.935C468.364 118.268 472.752 118.467 474.24 120.005Z" fill="#633429"/>
<path d="M368.479 171.113C359.207 176.621 345.1 175.926 335.704 168.88C333.2 166.995 330.622 165.159 329.184 162.207C328.812 161.586 328.638 160.842 327.994 160.396V160.47C327.448 159.428 327.25 158.287 327.176 157.121C327.027 155.558 327.572 153.92 326.556 152.481C326.382 152.183 326.258 151.886 326.159 151.563C325.713 148.735 325.663 145.882 326.159 143.053C326.853 141.838 327.374 140.622 326.705 139.208C326.134 135.462 327.572 132.063 328.614 128.614C329.258 127.597 329.655 126.505 329.68 125.29C330.002 123.95 330.795 122.858 331.539 121.742C336.225 116.631 342.175 113.803 348.868 112.413C350.331 112.686 351.819 112.488 353.281 112.537C356.008 112.612 356.108 112.835 354.546 115.44C357.025 115.639 359.43 115.589 361.785 114.944C362.058 114.944 362.33 114.994 362.578 115.118C363.297 116.06 364.09 116.954 364.983 117.723C365.181 119.484 363.719 119.459 362.826 119.261C360.669 118.765 358.562 119.087 356.579 119.534C360.545 118.368 364.314 120.055 367.735 120.7C365.553 121.221 365.875 118.517 364.71 117.425C364.165 116.805 364.041 116.085 364.14 115.291C364.239 114.82 364.487 114.423 364.834 114.076C371.454 116.358 376.685 120.501 380.329 126.381C381.99 129.061 384.122 131.79 383.775 135.362C383.552 135.66 383.304 135.958 383.304 136.33C383.304 136.578 383.081 136.876 383.378 137.099C383.478 136.826 383.651 136.628 383.874 136.454C385.932 139.034 385.659 142.135 385.386 145.013C384.841 150.769 383.155 156.227 379.833 161.041C377.751 164.067 375.321 166.697 372.148 168.632C370.66 169.029 369.445 169.873 368.429 171.014L368.479 171.113Z" fill="#F7B99E"/>
<path d="M329.283 128.341C329.382 131.095 327.895 133.477 327.572 136.107C327.423 137.248 327.572 138.414 327.572 139.58C327.523 140.597 327.572 141.664 326.977 142.557V152.01C327.721 153.077 327.399 154.317 327.473 155.483C327.275 156.376 327.944 157.666 326.382 157.964C323.903 153.97 323.085 149.504 322.639 144.914V140.176C323.457 136.082 324.572 132.112 326.357 128.316L328.118 125.935C328.564 125.563 329.035 125.538 329.481 125.935C329.977 126.778 329.853 127.547 329.283 128.316V128.341Z" fill="#98A6D5"/>
<path d="M362.528 115.242C359.305 117.549 355.76 115.986 351.62 116.532C352.983 114.969 354.669 114.944 355.066 113.331C353.182 112.14 350.827 113.579 348.942 112.438C353.033 112.24 357.099 111.917 361.165 112.835C361.908 113.009 362.503 113.108 362.553 113.976C362.875 114.398 362.85 114.82 362.528 115.242Z" fill="#F7B89F"/>
<path d="M340.96 106.285C342.522 106.459 344.282 106.012 345.497 107.6C344.753 108.518 343.687 107.997 342.795 108.121C342.1 108.22 341.381 108.22 341.208 109.089C341.01 110.156 341.332 111.173 339.671 111.743C338.555 112.14 340.365 112.81 340.563 113.48L335.233 116.507C334.812 116.085 334.861 115.614 335.134 115.142C336.671 111.917 338.53 108.89 340.985 106.26L340.96 106.285Z" fill="#D48F6E"/>
<path d="M383.948 136.553C383.775 137.62 384.246 138.811 383.18 140.275C382.808 138.24 381.866 136.677 383.874 135.437L383.973 136.553H383.948Z" fill="#F7B4A3"/>
<path d="M329.208 125.885C328.837 125.91 328.465 125.935 328.093 125.959C329.084 124.421 329.903 122.734 331.588 121.767L330.349 125.29C330.076 125.711 329.729 125.959 329.208 125.885V125.885Z" fill="#4F3526"/>
<path d="M326.382 157.989C327.101 157.294 326.803 156.376 326.927 155.558C327.126 155.384 327.349 155.384 327.572 155.508C327.845 155.93 327.696 156.476 328.018 156.848C328.018 158.063 328.018 159.254 328.018 160.47C327.82 160.47 327.646 160.445 327.473 160.371L326.382 157.964V157.989Z" fill="#9FA9D3"/>
<path d="M368.479 171.113C368.999 169.178 370.313 168.484 372.197 168.732C371.181 169.898 369.966 170.692 368.479 171.113Z" fill="#F3BBA6"/>
<path d="M354 110.577L355.388 110.453C356.182 109.833 357 109.858 357.768 110.478C358.562 110.577 359.504 110.23 360.099 111.098C358.066 110.949 355.959 111.396 354 110.577Z" fill="#B89989"/>
<path d="M362.528 115.242V113.976L364.908 114.15V115.242C364.115 115.887 363.322 115.887 362.528 115.242Z" fill="#F8BA94"/>
<path d="M328.019 160.396C329.258 160.445 329.258 161.313 329.209 162.207C328.465 161.81 328.019 161.264 328.019 160.396Z" fill="#E0C1BA"/>
<path d="M335.134 115.167C335.159 115.614 335.208 116.085 335.233 116.532L333.994 117.648C333.944 116.631 334.465 115.862 335.134 115.142V115.167Z" fill="#B58B77"/>
<path d="M344.406 102.117C346.885 102.142 349.34 102.167 351.819 102.216C350.753 103.854 348.869 104.4 347.431 105.541C346.737 106.087 345.1 106.31 344.704 104.573C344.828 104.449 344.976 104.325 345.125 104.226C344.976 104.325 344.828 104.449 344.704 104.573H342.299L344.406 102.117Z" fill="#D39171"/>
<path d="M470.57 151.663C470.645 152.779 470.198 153.226 469.355 153.226C468.513 153.226 467.471 153.548 467.199 152.283C467.099 151.787 467.595 151.017 467.744 151.266C468.537 152.556 469.95 150.546 470.545 151.687L470.57 151.663Z" fill="#F7B6A1"/>
<path d="M377.974 222.122C377.974 223.512 377.9 224.876 377.974 226.241C378.098 228.052 377.404 229.069 375.569 229.243C376.487 227.754 377.007 226.166 376.784 224.355C376.685 223.437 376.561 222.321 377.949 222.122H377.974Z" fill="#D49173"/>
<path d="M375.594 212.62C375.519 213.464 375.817 214.382 375.073 215.424C374.255 214.158 373.784 213.24 375.594 212.62Z" fill="#D69077"/>
<path d="M372.668 231.054C372.668 229.267 372.668 227.481 372.668 225.695C372.842 225.695 373.015 225.695 373.164 225.72C372.965 227.506 373.808 229.367 372.668 231.054V231.054Z" fill="#939FA6"/>
<path d="M294.748 268.417C295.095 268.269 295.517 268.194 295.789 267.971C296.459 267.375 296.682 266.036 297.971 266.507C298.442 266.681 298.392 267.45 298.12 267.822C297.401 268.839 296.632 270.154 295.393 270.303C294.401 270.427 294.946 269.062 294.748 268.393V268.417Z" fill="#00A1DC"/>
<path d="M133.181 189.051C133.181 189.175 133.181 189.299 133.181 189.448C133.057 190.242 132.512 190.738 131.991 191.234C130.925 191.11 129.76 191.507 128.842 190.912C128.743 189.249 131.495 191.06 130.826 188.927C131.619 188.952 132.412 189.001 133.206 189.026L133.181 189.051Z" fill="#EEE0B6"/>
<path d="M219.555 177.192C219.555 177.192 219.605 177.986 219.555 178.655C219.431 179.921 218.935 180.938 217.497 181.112C215.985 181.285 214.894 180.516 214.671 179.127C214.175 176.249 213.679 173.321 213.803 170.369C213.853 168.905 214.498 167.838 216.01 167.739C217.597 167.64 218.588 168.533 218.762 170.171C219.01 172.304 219.258 174.438 219.555 177.167V177.192Z" fill="#EDEAE8"/>
<path d="M213.308 161.115C213.382 159.279 214.2 158.063 216.134 158.014C218.216 157.964 219.158 159.378 219.233 161.189C219.282 162.802 218.39 164.043 216.605 164.117C214.572 164.191 213.605 163.025 213.332 161.115H213.308Z" fill="#E8E5E5"/>
<path d="M167.616 193.616C166.55 193.442 165.98 192.723 165.509 191.606C168.062 190.639 169.624 192.102 171.161 193.616C169.971 194.509 168.781 194.385 167.591 193.616H167.616Z" fill="#E597AE"/>
<path d="M167.616 193.616C168.806 193.616 169.996 193.616 171.186 193.616C171.856 193.715 172.525 193.789 173.12 194.782C171.112 194.36 169.054 195.997 167.616 193.616Z" fill="#E597A5"/>
<path d="M156.931 165.134C158.766 164.886 159.559 165.68 159.311 167.516C157.476 167.764 156.683 166.97 156.931 165.134V165.134Z" fill="#E696AE"/>
<path d="M131.966 191.259C131.966 190.391 132.015 189.547 133.156 189.473C133.627 189.77 134.321 190.093 134.024 190.738C133.627 191.631 132.685 191.135 131.966 191.259Z" fill="#FBDEB9"/>
<path d="M187.822 184.138V188.058C186.508 187.116 185.367 186.446 185.591 185.007C185.789 183.791 186.979 184.262 187.797 184.138H187.822Z" fill="#E596AD"/>
<path d="M355.389 109.312C355.042 108.22 353.951 107.129 355.612 106.136C357.372 105.094 358.364 106.806 359.504 107.377C360.05 107.65 358.86 109.014 357.769 109.312C356.976 109.957 356.182 109.957 355.389 109.312Z" fill="#D39173"/>
<path d="M361.463 107.476C363.322 107.054 363.818 105.491 365.33 105.913C365.752 106.037 365.826 106.434 365.529 106.831C364.711 107.948 363.694 108.493 361.463 107.476V107.476Z" fill="#D48E6D"/>
<path d="M355.389 109.312H357.769V110.503C356.975 110.503 356.182 110.503 355.389 110.478C355.389 110.106 355.389 109.709 355.389 109.337V109.312Z" fill="#D48E6D"/>
<path d="M382.733 241.052L381.519 241.226L380.874 240.581C381.023 240.457 381.196 240.333 381.271 240.184C381.643 239.365 382.138 238.348 383.13 238.943C384.394 239.713 382.337 240.234 382.709 241.077L382.733 241.052Z" fill="#CF9179"/>
<path d="M376.759 232.84C376.957 232.121 376.436 231.228 377.552 230.707C378.098 231.773 378.098 232.493 376.759 232.84Z" fill="#D49173"/>
<path d="M417.789 172.155C418.062 168.831 417.12 165.457 418.31 162.182C418.062 165.506 419.029 168.881 417.789 172.155Z" fill="#EDA19C"/>
<path d="M405.889 191.309C403.93 192.177 401.972 192.152 399.988 191.309C401.947 191.309 403.93 191.309 405.889 191.309Z" fill="#ED9F99"/>
<path d="M460.232 155.384V146.179C462.563 149.206 462.563 153.647 460.232 155.384Z" fill="#D27448"/>
<path d="M339.869 154.565C336.77 153.126 335.828 150 335.357 147.271C333.745 137.918 336.497 130.549 345.869 125.91C346.786 125.439 347.554 124.496 348.769 124.694C349.711 124.049 350.976 124.421 351.868 123.702L351.794 123.553C354.05 122.66 356.355 122.263 358.735 123.057C359.678 123.479 360.273 124.272 360.644 125.19C362.256 129.383 363.694 133.626 363.396 138.24C363.371 143.326 363.396 148.412 363.396 153.474C363.198 155.483 363.371 157.617 361.859 159.279C360.446 159.279 360.421 158.138 360.421 157.27C360.421 156.178 360.198 155.186 359.628 154.268C358.934 151.861 359.355 149.38 359.231 146.924C359.182 145.783 359.306 144.617 358.413 143.326C356.802 145.807 357.992 148.412 357.248 150.645C356.752 151.886 356.331 153.176 355.785 154.392C354.496 155.806 352.761 154.392 351.372 155.111C350.034 155.359 348.72 155.434 347.406 155.037C345.968 154.119 344.331 153.697 342.72 153.672C341.034 153.672 340.514 152.878 340.439 151.117C340.241 152.481 341.133 153.697 339.919 154.59L339.869 154.565Z" fill="#419ACB"/>
<path d="M361.437 159.353C362.38 157.617 362.082 155.632 362.553 153.796C362.801 153.474 362.975 153.052 363.47 152.977C365.627 153.151 366.619 152.035 366.421 150.025C366.197 147.718 367.462 145.137 365.255 143.177C365.032 143.029 364.834 142.83 364.66 142.632C363.941 141.267 364.289 139.506 363.049 138.34C362.9 138.141 362.751 137.918 362.603 137.719C362.553 132.757 360.917 128.167 359.132 123.602C359.851 122.833 360.595 122.982 361.338 123.528L367.809 125.984C368.429 126.356 369.172 126.53 369.644 127.15C371.552 129.061 373.561 130.897 375.023 133.204C375.717 134.023 375.147 134.916 375.147 135.759C375.147 136.702 375.643 136.578 376.189 136.628C376.982 137.694 376.858 138.935 376.907 140.151C376.511 141.019 376.461 142.036 375.693 142.731C375.346 142.905 374.974 142.954 374.577 142.88C373.461 144.716 374.131 146.626 374.354 148.487C374.453 149.33 375.023 150.124 374.478 150.968C371.751 156.401 367.239 159.304 361.363 160.296C361.016 159.949 361.09 159.626 361.462 159.329L361.437 159.353Z" fill="#F7F3F0"/>
<path d="M361.438 159.354C361.413 159.676 361.388 159.999 361.339 160.321C361.14 160.371 360.967 160.396 360.768 160.445C359.529 161.239 358.091 160.793 356.777 161.115C356.355 161.264 355.909 161.264 355.463 161.189C354.67 160.842 353.703 161.14 352.934 160.594C351.769 159.354 352.587 157.617 351.819 156.277C351.67 156.054 351.546 155.806 351.472 155.533C351.397 155.111 351.472 154.714 351.819 154.416C351.967 153.821 352.19 153.126 352.909 153.771C353.678 154.466 354.521 154.392 355.389 154.416C356.083 154.64 356.479 155.359 357.198 155.533C358.512 156.004 359.107 154.59 360.149 154.416C361.537 154.59 361.463 155.657 361.239 156.55C361.016 157.518 361.215 158.411 361.413 159.329L361.438 159.354Z" fill="#3F9BCE"/>
<path d="M351.819 154.441V155.632C351.571 155.93 351.174 156.054 350.926 156.352C351.298 156.203 351.546 155.905 351.819 155.632C354.174 156.724 352.513 158.808 353.009 160.346C351.992 161.314 350.926 160.842 349.885 160.445L348.844 160.296C347.753 159.056 346.364 158.535 344.753 158.609C343.389 157.791 341.58 157.567 341.034 155.707C341.356 154.789 342.497 153.796 342.894 154.292C344.381 156.153 345.72 154.292 347.083 154.466H351.843L351.819 154.441Z" fill="#429BC9"/>
<path d="M370.412 122.139C364.908 120.253 359.256 119.732 353.479 119.583C356.38 119.658 358.884 116.879 362.008 118.616C362.429 118.864 363.148 118.616 363.718 118.541C364.611 118.368 365.999 118.938 366.594 119.583C366.867 119.881 367.462 119.98 367.908 119.98C369.297 119.98 369.966 120.799 370.437 122.139H370.412Z" fill="#F7B89F"/>
<path d="M347.059 154.441C347.059 154.441 346.811 154.441 346.786 154.491C346.059 156.062 344.894 156.244 343.29 155.037C342.299 154.292 341.902 155.905 341.034 155.682C340.266 155.682 339.869 155.334 339.869 154.565C339.737 151.836 340.101 149.735 340.96 148.263C340.291 152.952 343.142 153.101 345.968 153.275C346.662 153.325 346.96 153.796 347.059 154.416V154.441Z" fill="#419ACD"/>
<path d="M361.338 123.528C360.595 123.528 359.851 123.578 359.132 123.603C356.702 123.578 354.273 123.553 351.818 123.503C354.917 120.352 358.339 120.352 361.338 123.503V123.528Z" fill="#F7B89F"/>
<path d="M374.454 150.993C372.322 147.668 373.413 144.12 373.313 140.424C374.776 140.994 374.231 141.912 374.404 142.582C375.644 143.723 374.9 145.386 375.495 146.676C375.594 146.924 375.644 147.172 375.693 147.445C375.619 148.76 375.842 150.149 374.454 150.993Z" fill="#F5F3EE"/>
<path d="M375.594 142.557C375.669 141.565 375.297 140.349 376.883 140.151C377.825 142.78 377.454 145.212 375.718 147.42L375.594 147.296C374.726 145.708 374.726 144.145 375.594 142.557V142.557Z" fill="#F5F3EE"/>
<path d="M376.164 136.628L375.048 138.861C373.585 136.851 374.998 135.015 374.998 133.204C375.817 134.196 375.916 135.437 376.164 136.628Z" fill="#F5F3EE"/>
<path d="M362.529 115.242C363.322 115.242 364.115 115.242 364.909 115.242V117.623C363.074 117.872 362.281 117.078 362.529 115.242Z" fill="#F7B89F"/>
<path d="M344.753 158.609C346.687 157.79 348.323 157.716 348.844 160.296C347.158 160.519 346.116 159.18 344.753 158.609Z" fill="#5A9CCC"/>
<path d="M355.364 160.991H356.628C357.496 160.693 358.438 160.098 358.934 161.487H351.224C352.438 159.924 353.926 160.817 355.339 160.991H355.364Z" fill="#98B9D0"/>
<path d="M355.363 160.991C354 161.165 352.512 160.519 351.248 161.462C350.802 161.14 350.355 160.792 349.909 160.47C350.95 160.445 351.992 160.395 353.033 160.371C353.826 160.519 354.768 160.172 355.363 161.016V160.991Z" fill="#7890A6"/>
<path d="M329.208 125.885L330.349 125.29C330.299 126.406 330.944 127.795 329.258 128.341C329.258 127.522 329.208 126.704 329.184 125.86L329.208 125.885Z" fill="#B5A6C5"/>
<path d="M351.893 123.677C351.298 125.389 349.91 124.62 348.794 124.669C349.587 123.553 350.678 123.454 351.893 123.677Z" fill="#93A6B3"/>
<path d="M358.934 161.462C358.289 160.718 357.421 161.041 356.628 160.966C357.892 159.874 359.38 160.495 360.768 160.42C360.371 161.14 359.851 161.661 358.934 161.438V161.462Z" fill="#7490A4"/>
<path d="M326.953 142.582C326.754 141.515 326.853 140.498 327.548 139.605C328.192 140.771 328.638 141.887 326.953 142.582Z" fill="#EBB5B2"/>
<path d="M327.993 156.848L327.423 155.483C327.051 154.342 327.002 153.201 327.473 152.059C328.613 153.548 327.919 155.235 328.018 156.848H327.993Z" fill="#E2C3B6"/>
<path d="M327.448 152.084C327.448 153.226 327.423 154.367 327.399 155.508L327.151 155.582H326.878C326.878 154.392 326.903 153.201 326.927 152.035C327.101 152.035 327.25 152.084 327.423 152.084H327.448Z" fill="#D2B4A6"/>
<path d="M369.619 127.15C368.776 127.125 368.206 126.654 367.784 125.984C368.701 125.91 369.544 125.91 369.619 127.15Z" fill="#F4C5B6"/>
<path d="M344.703 104.548C345.001 103.134 345.769 103.283 346.835 103.73C346.265 104.896 345.397 104.4 344.703 104.548Z" fill="#DC8D72"/>
<path d="M360.149 154.441C359.405 155.93 358.686 157.418 356.604 156.227C355.017 154.491 356.182 152.68 356.48 150.918C356.504 148.76 356.579 146.576 356.579 144.418C356.579 143.202 356.827 142.16 358.24 142.086C359.802 141.987 360.248 143.053 360.223 144.418C360.223 147.767 360.174 151.141 360.149 154.491V154.441Z" fill="#ECF4F8"/>
<path d="M359.628 135.66C359.603 137.198 359.256 138.464 357.546 138.34C355.761 138.215 355.091 136.826 354.992 135.263C354.918 133.923 355.364 132.584 357 132.559C359.083 132.534 359.355 134.221 359.628 135.635V135.66Z" fill="#E0EDF4"/>
<path d="M362.578 137.719C362.727 137.794 362.875 137.818 363.049 137.843C363.644 138.662 364.016 139.555 363.991 140.572C363.966 143.996 363.991 147.42 363.941 150.844C363.941 151.737 363.867 152.605 363.123 153.275C362.925 153.449 362.727 153.622 362.528 153.796C362.528 148.437 362.553 143.078 362.578 137.719V137.719Z" fill="#6695B3"/>
<path d="M356.48 150.893C356.777 152.655 355.835 154.466 356.604 156.203C355.81 155.88 355.414 155.285 355.389 154.441C355.339 153.126 355.463 151.886 356.48 150.893Z" fill="#56A0CC"/>
<path d="M340.539 146.403C339.869 144.765 339.745 143.847 340.539 142.632C341.307 143.847 341.208 144.79 340.539 146.403Z" fill="#399DC6"/>
<path d="M363.123 153.25C363.098 148.115 363.074 142.979 363.049 137.843C365.354 138.761 364.859 140.771 364.735 142.681C363.966 144.864 364.487 147.023 364.239 149.157C364.487 146.973 363.917 144.691 364.735 142.681C366.619 142.359 367.387 143.029 367.288 144.864C367.164 146.998 367.338 149.181 367.239 151.315C367.139 153.573 365.032 154.515 363.123 153.25V153.25Z" fill="#F6F4EE"/>
<path d="M375.594 142.557V147.296C373.263 146.204 374.9 144.12 374.404 142.557H375.594Z" fill="#FBEFF0"/>
<path d="M355.388 158.063C355.264 158.237 355.14 158.684 354.892 158.783C354.372 158.956 354.273 158.435 354.297 158.088C354.297 157.766 354.496 157.269 354.719 157.195C355.239 157.021 355.24 157.542 355.388 158.063Z" fill="#56A0CC"/>
<path d="M351.818 155.632C351.744 160.47 349.512 155.111 348.694 156.476C349.537 155.235 350.752 155.806 351.818 155.632Z" fill="#419ACB"/>
<path d="M364.735 142.731V151.811C363.173 149.603 363.371 144.071 364.735 142.731Z" fill="#F7F3F0"/>
</g>
<defs>
<clipPath id="clip0_5118_42145">
<rect width="595" height="287" fill="white"/>
</clipPath>
</defs>
</svg>
