<svg width="595" height="297" viewBox="0 0 595 297" fill="none" xmlns="http://www.w3.org/2000/svg">
<g clip-path="url(#clip0_5484_43215)">
<rect width="595" height="297" fill="#3377E8"/>
<path d="M120.174 159.897C106.424 138 115.308 113.914 133.333 98.5603C154.885 80.1929 180.352 73.5467 208.239 74.9893C223.664 75.7879 238.109 79.8838 251.113 88.4106C253.946 90.2654 256.572 92.4293 259.07 94.6962C260.1 95.6236 260.95 96.6025 260.975 98.0451C260.563 100.415 258.606 101.806 257.267 103.532C256.186 104.897 255.079 106.211 254.074 107.628C249.877 110.462 246.736 114.455 242.744 117.546C228.453 128.597 212.977 137.614 196.394 144.724C179.631 151.911 162.379 157.475 144.302 160.283C136.809 161.442 129.264 162.37 121.642 161.648C120.741 161.416 120.38 160.721 120.174 159.897V159.897Z" fill="#32201A"/>
<path d="M120.174 159.897C120.612 160.361 121.024 160.798 121.462 161.262C136.114 161.855 150.559 160.386 164.825 157.115C175.048 154.77 185.167 152.117 195.184 149.026C196.884 148.511 198.609 147.867 199.768 149.979C201.107 151.756 202.755 152.246 204.918 151.447C215.913 147.351 227.063 148.201 238.264 150.52C239.654 150.803 241.019 151.37 242.487 151.241C243.8 151.138 244.933 150.623 245.242 149.232C245.577 147.815 244.727 146.913 243.594 146.244C242.616 145.677 241.483 145.471 240.401 145.213C233.886 143.59 227.191 143.513 220.574 142.792C219.956 142.792 219.338 142.74 218.745 142.534C217.484 142.122 217.355 141.452 218.385 140.602C219.029 140.087 219.775 139.726 220.496 139.366C231.234 134.213 241.354 128.031 250.984 120.998C251.963 120.277 253.199 118.242 254.718 120.56C255.233 124.321 255.645 128.082 255.697 131.895C255.954 149.541 257.525 167.11 259.044 184.679C259.43 189.29 260.821 194.004 259.044 198.667C259.224 202.66 258.838 206.678 258.169 210.568C256.546 219.868 250.495 225.226 240.401 227.081C230.462 228.91 220.419 228.085 210.402 228.317C209.166 229.322 207.699 229.167 206.282 229.142C195.699 228.961 185.167 230.172 174.584 229.811C171.443 229.708 171.108 230.249 171.005 233.392C170.876 236.999 171.958 240.219 173.786 243.31C178.138 250.575 184.446 255.675 191.553 259.977C193.073 260.879 195.081 261.343 195.596 263.455C194.978 264.743 193.691 265.001 192.506 265.207C182.798 266.727 174.687 263.816 168.147 256.474C166.447 254.568 165.7 252.352 165.494 249.75C165.185 245.86 164.619 241.996 165.237 238.106C165.829 235.891 165.082 233.676 165.185 231.46C165.263 229.914 163.924 230.043 162.945 230.172C159.314 230.636 155.709 231.383 152.053 231.692C148.834 231.975 145.718 232.877 142.345 232.233C137.118 231.228 133.925 228.189 132.406 223.371C130.68 217.833 129.856 212.062 129.367 206.266C129.238 204.746 128.981 203.226 128.801 201.732C128.749 200.264 130.114 200.032 130.912 199.362C134.749 196.091 135.264 190.14 132.019 186.379C131.685 185.992 131.324 185.606 130.861 185.374C130.011 184.936 129.11 184.498 128.311 185.374C127.616 186.096 128.028 186.946 128.492 187.641C129.238 188.749 130.114 189.805 130.371 191.145C130.706 192.793 130.886 194.442 128.826 195.215C128.208 194.983 127.693 194.494 127.693 193.901C127.693 190.887 125.633 189.754 123.264 188.826C121.719 187.744 119.711 187.177 118.938 185.168C114.973 180.866 113.325 175.869 113.917 169.969C114.355 165.513 116.672 162.447 120.149 159.974L120.174 159.897Z" fill="#F9C7B3"/>
<path d="M332.483 177.568C332.071 175.714 331.659 173.885 331.247 172.03C332.612 171.772 333.281 172.803 334.08 173.55C346.903 185.168 367.4 184.936 379.683 172.674C391.734 160.644 393.227 142.044 382.103 128.185C381.408 127.309 380.636 126.459 380.146 125.429C379.76 124.604 379.683 123.832 380.739 123.419C382.309 122.878 383.932 122.569 385.554 122.544C396.008 122.441 406.437 122.26 416.892 122.621C418.591 122.853 419.75 124.038 421.115 124.888C429.097 130.993 438.29 134.368 447.92 136.609C455.002 138.258 462.186 139.443 469.525 139.236C470.606 139.211 471.816 139.056 472.563 140.241C471.919 140.473 471.301 140.731 470.503 141.04C473.387 142.534 476.065 144.157 478.228 146.475C481.91 150.442 484.022 154.951 482.4 160.412C480.752 165.95 476.451 168.758 471.147 170.201C469.782 170.562 468.34 170.716 466.924 170.974C465.096 171.875 464.478 173.601 463.86 175.353C459.843 186.765 453.457 196.657 444.393 204.746C442.693 206.266 441.2 208.224 438.676 208.584C431.775 213.376 424.359 217.137 416.248 219.378C414.317 219.919 413.467 220.821 413.905 222.804C414.317 227.879 414.935 232.928 413.673 238.003C411.381 247.071 404.583 252.506 395.262 252.558C393.536 252.558 391.785 252.712 390.06 252.352C389.365 252.146 388.824 251.785 388.515 251.115C388.876 249.338 390.575 249.286 391.785 248.72C399.33 245.139 404.789 239.6 408.111 231.949C409.089 229.657 409.63 227.261 409.604 224.788C409.579 222.16 408.291 221.027 405.69 221.413C397.193 222.624 388.773 222.057 380.378 220.486C378.498 220.125 377.134 220.177 376.85 222.495C376.799 222.985 376.438 223.423 375.795 223.319C376.464 219.507 374.559 217.91 371.082 216.596C363.151 213.608 356.096 208.971 349.993 203.02C349.401 202.453 348.834 201.835 347.959 201.732C340.8 194.983 335.29 187.203 332.509 177.646L332.483 177.568Z" fill="#F7B89C"/>
<path d="M389.931 251.682C396.086 252.043 401.982 251.76 407.055 247.483C412.154 243.181 413.621 237.54 413.57 231.306C413.57 228.446 413.081 225.612 413.905 222.779C426.96 224.865 439.552 228.395 451.422 234.32C477.919 247.535 497.232 267.628 509.308 294.677C509.952 296.145 511.008 297.382 508.021 297.356C490.64 297.227 473.258 297.253 455.877 297.227C452.53 294.651 450.392 290.89 447.071 288.237C435.715 279.092 422.634 274.326 408.394 271.879C390.163 268.762 372.602 270.539 355.581 277.649C349.864 280.019 344.586 283.162 339.745 287.052C336.371 289.757 335.831 289.679 332.792 286.717C332.432 286.356 332.071 285.996 331.711 285.635C328.26 282.26 326.638 282.569 324.398 286.975C323.213 289.319 322.775 291.818 322.338 294.342C322.157 295.347 322.235 296.403 321.462 297.227H285.206C290.382 284.605 297.154 273.373 306.012 263.429C306.913 263.249 307.815 263.249 308.767 263.352C333.23 266.314 357.023 263.455 380.224 255.315C383.494 254.155 386.481 252.223 389.983 251.682H389.931Z" fill="#009DDA"/>
<path d="M165.237 238.055C165.649 242.202 166.138 246.324 166.422 250.472C166.499 251.734 166.679 252.893 167.323 253.975C172.447 262.682 185.889 267.164 195.468 263.378C196.034 262.45 197.013 262.064 197.914 261.6C205.768 257.556 209.192 250.884 209.45 242.331C209.501 240.889 209.398 239.446 209.501 238.029C209.579 237.024 209.501 235.917 210.712 235.427C240.118 244.753 257.293 264.666 262.521 294.986C262.855 296.867 262.443 297.408 260.461 297.408C214.703 297.356 168.971 297.33 123.213 297.408C119.582 297.408 121.153 295.372 121.411 293.904C125.943 267.396 140.466 248.694 165.263 238.081L165.237 238.055Z" fill="#010101"/>
<path d="M345.41 99.8743C347.084 91.7854 351.075 84.7785 356.071 78.4414C365.624 66.3596 378.036 58.4253 393.074 54.8188C417.021 49.0742 443.544 57.163 458.273 78.7763C462.058 84.3148 464.272 90.5489 466.461 96.8088C466.538 98.6378 465.096 98.9985 463.86 99.2818C451.217 102.373 438.677 106.083 425.416 105.825C422.248 105.748 419.055 106.005 415.888 105.774C414.678 105.696 413.39 105.774 412.412 104.82C411.691 102.708 410.094 101.858 407.957 101.703C407.339 101.678 406.721 101.549 406.129 101.549C392.404 101.497 378.679 100.338 364.955 100.982C359.65 101.24 354.32 101.368 349.015 101.884C347.599 102.012 345.282 102.863 345.41 99.8485V99.8743Z" fill="#030404"/>
<path d="M449.234 297.279C408.421 297.279 367.633 297.279 326.819 297.279C326.098 296.403 326.072 295.372 326.175 294.342C326.33 292.487 326.381 290.323 328.209 289.473C329.806 288.726 330.913 290.529 332.098 291.405C336.295 294.574 336.295 294.651 340.415 291.276C353.007 280.92 367.787 275.923 383.675 274.377C399.794 272.806 415.373 275.82 430.231 282.157C436.411 284.785 441.947 288.571 446.84 293.157C447.998 294.239 449.286 295.398 449.234 297.279V297.279Z" fill="#EFEDEC"/>
<path d="M389.931 251.682C384.344 255.289 378.009 257.118 371.752 258.998C353.701 264.408 335.187 266.031 316.441 265.181C312.939 265.026 309.308 264.923 305.986 263.429C324.629 242.177 347.907 229.09 375.64 223.861C376.49 224.505 376.67 225.484 376.464 226.334C375.64 229.915 376.541 233.444 376.593 236.999C376.67 243.568 379.348 247.226 385.477 249.441C386.61 249.853 387.871 250.059 388.721 251.064C389.133 251.27 389.545 251.476 389.957 251.708L389.931 251.682Z" fill="#0085B7"/>
<path d="M259.044 198.641C257.834 183.004 256.469 167.368 255.439 151.705C254.744 141.066 254.486 130.375 254.023 119.71C252.581 115.614 252.581 111.518 254.023 107.448C254.126 104.28 257.37 103.249 258.555 100.802C259.07 99.7457 260.126 98.9729 260.95 98.0713C268.417 107.191 273.155 117.701 275.576 129.087C280.88 153.998 275.936 176.77 260.28 197.044C259.868 197.585 259.43 198.1 259.018 198.641H259.044Z" fill="#1A1210"/>
<path d="M412.746 104.898C416.609 104.898 420.471 104.717 424.334 104.949C434.479 105.516 444.161 102.914 453.946 100.93C457.139 100.286 460.281 99.4878 463.422 98.612C464.529 98.3028 465.946 98.2513 466.486 96.8345C470.349 100.673 473.619 105.155 478.692 107.731C480.855 108.813 483.044 109.766 485.335 110.488C486.159 110.745 487.061 111.157 487.138 111.93C487.241 112.832 486.056 113.038 485.413 113.347C481.988 114.97 478.537 116.619 474.392 116.851C475.422 119.401 477.791 120.122 479.464 121.539C479.31 123.188 477.919 122.956 476.915 123.085C475.267 123.265 473.645 123.42 472.074 123.909C456.598 128.597 440.839 128.056 425.029 126.537C423.484 126.382 422.016 125.944 420.574 125.403C419.596 124.759 418.643 124.115 417.664 123.471C415.991 122.904 414.652 121.925 413.519 120.56C410.429 116.851 408.188 112.652 406.283 108.272C405.897 107.371 405.407 106.392 406.025 105.387C408.24 104.691 410.506 104.769 412.772 104.949L412.746 104.898Z" fill="#452418"/>
<path d="M210.712 235.376C209.476 238.106 210.145 241.017 210.094 243.825C209.991 252.738 204.094 260.698 195.468 263.352C190.601 260.158 185.348 257.504 181.125 253.434C174.997 247.509 169.512 241.249 170.078 231.846C170.207 229.58 170.98 228.755 173.194 228.832C185.606 229.348 197.991 227.854 210.403 228.266C210.48 230.636 209.811 233.031 210.686 235.376H210.712Z" fill="#F5B092"/>
<path d="M388.67 251.064C380.07 249.982 375.95 245.216 375.615 236.638C375.46 232.361 375.306 228.111 375.615 223.86C375.666 223.654 375.718 223.474 375.769 223.268C377.083 218.889 377.057 219.095 381.872 219.893C389.829 221.181 397.811 221.928 405.845 220.408C409.038 219.79 410.892 221.851 410.506 225.406C409.399 235.324 403.811 242.305 395.726 247.535C393.537 248.951 391.039 249.93 388.67 251.09V251.064Z" fill="#D79070"/>
<path d="M449.234 297.279C443.285 289.499 435.149 284.682 426.239 281.41C403.141 272.935 379.915 272.136 356.946 282.08C350.611 284.81 344.612 288.211 339.719 293.183C337.556 295.372 335.548 295.475 333.307 293.517C331.762 292.178 330.243 290.813 328.544 289.344C326.896 291.843 327.024 294.599 326.844 297.279C325.041 297.279 323.239 297.253 321.437 297.227C321.437 292.848 322.235 288.674 324.552 284.888C326.612 281.513 328.698 281.307 331.376 284.141C335.831 288.855 335.754 288.726 340.904 285.016C351.667 277.237 363.795 272.626 376.85 270.771C400.128 267.473 422.222 270.977 442.359 283.728C447.843 287.206 452.633 291.508 455.903 297.253C453.689 297.253 451.474 297.279 449.26 297.304L449.234 297.279Z" fill="#030405"/>
<path d="M438.677 208.559C450.908 199.285 459.431 187.409 463.938 172.7C464.478 170.897 465.508 170.845 466.925 170.948C468.779 176.126 471.405 180.815 475.577 184.524C476.529 185.374 478.048 186.07 477.405 187.719C476.787 189.264 475.216 188.929 473.903 188.955C473.285 188.955 472.692 188.878 471.817 188.826C473.027 191.686 475.036 193.669 477.353 195.318C478.357 196.039 479.696 196.529 479.336 198.049C478.975 199.62 477.456 199.44 476.272 199.543C473.516 199.749 470.761 199.852 467.646 200.006C470.452 203.123 473.671 205.313 477.199 207.065C478.332 207.632 479.645 208.018 479.388 209.589C479.13 211.187 477.714 211.084 476.478 211.212C466.049 212.217 455.62 213.505 445.243 210.98C442.977 210.44 440.711 209.873 438.702 208.559H438.677Z" fill="#633422"/>
<path d="M420.522 125.351C428.247 125.557 435.921 126.742 443.723 126.562C451.088 126.408 458.426 126.279 465.585 124.553C470.194 123.445 474.778 122.312 479.438 121.487C480.983 121.925 482.503 122.415 484.073 122.75C484.743 122.904 485.335 123.059 485.515 123.677C485.747 124.579 484.923 124.836 484.305 125.197C480.082 127.567 475.37 128.803 470.992 130.761C470.246 131.096 469.473 131.328 468.675 131.637C470.349 133.286 472.331 134.342 474.417 135.063C475.936 135.604 478.099 135.862 477.971 137.639C477.842 139.365 475.576 139.494 474.082 140.035C473.619 140.215 473.078 140.19 472.563 140.241C459.997 140.293 447.766 138.412 435.998 133.852C430.462 131.714 425.08 129.267 420.522 125.351V125.351Z" fill="#633422"/>
<path d="M332.483 177.569C335.625 184.215 339.075 190.681 343.71 196.451C345.101 198.203 347.058 199.491 347.933 201.655C340.826 206.343 333.204 209.976 325.016 212.346C324.527 212.5 324.063 212.706 323.548 212.783C322.338 212.99 320.973 213.35 320.278 211.959C319.634 210.645 320.407 209.666 321.385 208.765C324.707 205.725 327.771 202.453 330.295 197.894C327.127 198.486 324.424 199.002 321.694 199.439C319.608 199.774 317.085 200.702 315.926 198.229C314.742 195.73 317.368 194.674 318.862 193.489C324.501 189.084 329.316 184.009 332.483 177.517V177.569Z" fill="#633422"/>
<path d="M412.747 104.897C410.558 106.211 408.112 105.335 405.82 105.593C404.61 106.649 403.142 106.495 401.726 106.495C383.443 106.495 365.161 106.546 346.904 106.495C343.968 106.057 340.853 107.345 338.072 105.542C327.694 105.542 317.291 105.542 306.914 105.542C306.09 105.542 305.266 105.567 304.442 105.542C303.464 105.49 301.867 105.825 301.867 104.588C301.867 103.197 303.489 103.816 304.391 103.764C317.394 102.914 330.372 102.064 343.376 101.291C344.509 101.214 344.947 100.621 345.436 99.8999C345.797 101.755 347.29 101.317 348.397 101.188C359.212 99.9514 370.053 100.029 380.92 99.9772C389.623 99.9772 398.327 101.008 407.03 100.647C408.524 100.595 410.094 100.905 411.562 101.291C413.622 101.858 412.438 103.687 412.747 104.923V104.897Z" fill="#2C2726"/>
<path d="M379.787 124.089C384.55 129.216 388.181 134.986 389.7 141.916C393.434 159.175 382.928 177.646 364.44 181.922C351.693 184.859 340.569 181.252 331.274 172.056C324.785 164.353 321.746 155.517 322.673 145.419C323.111 140.679 324.682 136.274 326.948 132.075C327.36 128.597 330.063 126.64 332.149 124.27C333.411 122.956 334.956 121.977 336.321 120.792C347.934 111.904 366.139 112.651 376.697 120.792C377.907 121.719 379.272 122.492 379.838 124.063L379.787 124.089Z" fill="#0A0909"/>
<path d="M128.749 194.957C130.938 192.896 129.96 190.784 128.569 188.981C127.385 187.435 125.968 186.07 127.668 184.241C128.852 182.979 131.762 184.163 133.075 186.276C136.062 191.016 136.526 197.482 128.827 201.655C121.076 201.99 116.106 197.791 116.467 191.196C116.595 188.878 117.548 186.868 118.964 185.065C120.406 186.096 121.823 187.1 123.265 188.131C123.496 188.517 123.445 188.929 123.265 189.316C122.389 191.093 122.132 192.819 123.651 194.442C125.222 196.142 126.998 195.498 128.775 194.957H128.749Z" fill="#F8E1B4"/>
<path d="M336.218 121.694C334.982 122.673 333.72 123.652 332.484 124.631C330.398 125.738 328.312 126.125 326.227 124.605C330.347 119.659 333.797 114.249 336.913 108.659C337.454 107.706 337.66 106.572 338.02 105.542C340.878 105.542 343.762 105.542 346.621 105.516C347.161 106.65 346.234 107.216 345.668 107.835C341.831 112.008 338.973 116.825 336.218 121.72V121.694Z" fill="#452518"/>
<path d="M326.226 124.604C328.312 124.604 330.397 124.604 332.483 124.63C330.475 127 328.492 129.396 326.895 132.075C324.655 132.075 322.698 133.492 320.381 133.234C319.608 133.157 319.016 133.028 318.63 132.333C318.089 131.405 318.965 131.045 319.428 130.633C321.668 128.597 323.96 126.614 326.252 124.604H326.226Z" fill="#633523"/>
<path d="M254.075 107.448C254.075 111.544 254.075 115.64 254.075 119.71C242.797 128.082 230.952 135.476 217.536 141.607C218.952 141.813 219.622 141.916 220.291 142.019C219.647 143.668 218.128 143.333 216.892 143.333C213.596 143.333 210.377 143.9 207.184 144.647C203.682 145.471 200.644 146.939 199.15 150.52C198.61 149.052 197.605 149.077 196.318 149.49C184.73 153.225 172.937 156.11 161.066 158.841C148.371 161.752 135.496 161.855 122.596 161.649C122.209 161.649 121.849 161.391 121.488 161.236C166.474 159.897 206.026 143.693 241.767 117.211C245.397 114.532 248.668 111.415 251.938 108.272C252.479 107.731 252.865 106.392 254.101 107.422L254.075 107.448Z" fill="#F5B092"/>
<path d="M206.463 158.48C209.295 156.29 212.771 156.239 216.067 155.801C223.689 154.771 231.234 155.054 238.29 158.635C243.903 161.494 248.075 165.487 247.946 172.339C247.869 176.719 245.603 180.119 242.513 183.004C236.178 188.929 228.35 191.428 219.981 192.484C217.638 192.768 215.269 192.793 212.926 192.845C211.819 192.845 210.634 192.974 209.887 191.814C209.038 191.428 208.806 190.629 208.574 189.857C206.179 181.433 205.227 172.829 205.149 164.096C205.149 162.19 205.381 160.206 206.463 158.48Z" fill="#010101"/>
<path d="M145.461 183.262C145.461 174.22 151.487 165.641 159.547 163.246C161.246 162.73 163.023 162.318 164.465 163.735C166.319 165.538 165.315 168.398 162.379 169.48C157.126 171.412 153.933 174.967 152.671 180.454C151.358 186.276 154.216 192.716 159.856 196.116C165.006 199.208 172.035 198.538 176.464 194.493C177.443 193.592 178.344 192.587 179.297 191.66C180.765 190.243 182.49 190.088 184.009 191.351C185.477 192.587 185.245 194.236 184.37 195.833C181.228 201.5 172.087 205.648 164.619 204.798C153.547 203.561 145.41 194.416 145.436 183.262H145.461Z" fill="#E497AA"/>
<path d="M206.463 158.48C205.484 169.815 206.978 180.892 209.888 191.814C208.24 193.334 206.514 192.149 204.918 191.814C200.154 190.81 195.751 189.032 192.249 185.348C188.335 181.252 187.305 176.358 189.519 171.463C192.764 164.328 198.867 160.309 206.463 158.506V158.48Z" fill="#F9F3F0"/>
<path d="M199.15 150.52C198.841 147.841 200.18 146.295 202.549 145.342C207.081 143.487 211.768 142.586 216.635 142.431C217.845 142.38 219.081 142.174 220.291 142.019C227.166 142.38 234.042 142.663 240.762 144.363C241.458 144.544 242.153 144.724 242.848 144.904C245.191 145.497 246.814 146.759 246.376 149.438C246.015 151.679 243.852 152.632 241.02 151.963C231.029 149.618 220.986 148.562 210.789 150.52C208.858 150.881 207.004 151.422 205.202 152.22C202.678 153.38 200.618 153.019 199.15 150.52V150.52Z" fill="#33201B"/>
<path d="M128.801 178.419C128.286 179.604 128.569 181.304 127.102 181.819C125.66 182.309 124.913 180.943 124.166 180.016C121.565 176.744 121.617 171.67 124.243 168.424C124.887 167.625 125.685 166.672 126.767 167.007C127.797 167.342 128.054 168.527 128.132 169.557C128.338 172.494 127.823 175.508 128.801 178.393V178.419Z" fill="#E29371"/>
<path d="M128.75 194.957C127.539 197.044 125.788 196.863 124.089 195.859C122.312 194.828 121.437 193.179 121.771 191.041C121.952 189.882 122.673 189.032 123.265 188.13C127.411 188.543 128.595 191.325 128.75 194.957Z" fill="#FFFEFE"/>
<path d="M336.218 121.694C335.368 120.586 336.449 119.89 336.861 119.143C339.539 114.197 342.913 109.689 346.646 105.49C366.371 105.516 386.095 105.568 405.82 105.593C407.519 108.813 408.627 112.317 410.635 115.382C412.592 118.396 415.013 120.998 417.639 123.42C405.022 123.626 392.378 122.801 379.787 124.064C375.203 120.457 370.388 117.237 364.594 116.026C354.371 113.914 344.818 115.408 336.218 121.668V121.694Z" fill="#D79070"/>
<path d="M431.827 174.374C431.724 187.512 421.141 198.718 407.983 199.104C396.112 199.465 384.834 191.041 383.057 177.723C382.851 176.229 382.336 174.786 382.851 173.189C383.598 170.845 384.859 169.402 387.486 169.634C390.138 169.866 391.065 171.489 391.245 173.988C391.709 180.531 394.104 185.941 400.438 188.852C406.258 191.505 411.897 191.041 416.944 187.151C421.759 183.442 423.768 178.341 422.789 172.236C422.248 168.939 423.665 166.337 426.188 165.95C428.892 165.564 430.72 167.264 431.312 170.819C431.518 172.133 432.136 173.395 431.853 174.4L431.827 174.374Z" fill="#DF83B5"/>
<path d="M471.971 155.981C472.023 159.433 468.83 162.782 466.075 162.859C464.993 162.885 464.452 162.344 464.71 161.365C465.482 158.532 465.045 155.646 465.173 152.787C465.276 150.597 466.229 149.979 468.135 151.138C470.246 152.401 471.843 154.049 471.946 155.981H471.971Z" fill="#CE754C"/>
<path d="M331.737 130.143C334.337 121.822 341.599 119.143 348.757 117.417C367.169 112.986 384.601 124.167 388.438 142.766C391.889 159.459 381.64 176.718 363.95 180.66C350.096 183.751 338.432 179.346 329.754 167.831C329.522 167.548 329.496 167.11 329.368 166.723C326.767 160.669 327.076 154.255 327.385 147.918C327.617 143.204 328.518 138.541 329.831 133.981C330.243 132.565 330.784 131.277 331.737 130.169V130.143Z" fill="#F8B89C"/>
<path d="M331.737 130.143C329.342 138.618 327.643 147.222 328.209 156.084C328.441 159.639 328.956 163.168 329.368 166.723C324.321 160.077 323.188 152.452 324.089 144.466C324.553 140.499 325.943 136.738 327.9 133.183C328.776 131.586 329.831 130.401 331.711 130.169L331.737 130.143Z" fill="#FFFFFE"/>
<path d="M210.763 179.243C210.737 178.728 210.686 178.239 210.686 177.723C210.634 175.946 211.021 174.271 213.184 174.271C215.192 174.271 215.836 175.688 215.965 177.595C216.119 180.016 216.557 182.438 216.711 184.885C216.814 186.508 216.428 188.053 214.368 188.157C212.463 188.26 211.664 187.049 211.433 185.323C211.175 183.313 210.918 181.278 210.686 179.269H210.789L210.763 179.243Z" fill="#ECEAE9"/>
<path d="M213.184 164.044C215.321 164.225 216.325 165.59 216.351 167.471C216.351 169.145 215.424 170.407 213.544 170.433C211.459 170.433 210.326 169.274 210.274 167.213C210.223 165.281 211.304 164.225 213.21 164.019L213.184 164.044Z" fill="#E8E6E4"/>
<path d="M364.078 166.646C353.65 170.227 338.277 164.019 336.423 150.494C335.161 141.401 342.191 131.483 352.053 128.984C355.272 128.185 358.542 127.928 361.838 128.392C362.894 128.855 363.229 129.834 363.589 130.787C367.349 141.478 367.58 152.426 365.829 163.503C365.623 164.74 365.186 165.873 364.104 166.646H364.078Z" fill="#409ACC"/>
<path d="M364.079 166.646C367.452 153.637 366.422 140.911 361.839 128.366C371.109 128.726 379.014 136.017 380.533 145.677C381.821 153.714 375.615 162.834 366.731 165.976C365.882 166.285 364.955 166.44 364.053 166.646H364.079Z" fill="#F7F3F1"/>
<path d="M362.946 154.564C362.791 156.6 362.74 158.66 362.457 160.67C362.276 161.829 361.504 162.859 360.139 162.602C358.826 162.344 358.388 161.288 358.646 160C359.289 156.754 359.006 153.483 359.032 150.211C359.032 148.897 359.135 147.583 360.783 147.506C362.637 147.429 362.817 148.82 362.817 150.262C362.817 151.705 362.817 153.122 362.817 154.564C362.869 154.564 362.894 154.564 362.946 154.564V154.564Z" fill="#EDF3F7"/>
<path d="M362.173 140.654C362.225 142.405 361.916 143.642 360.319 143.693C358.234 143.771 357.513 142.174 357.358 140.499C357.229 139.108 357.77 137.717 359.444 137.691C361.633 137.665 361.839 139.469 362.148 140.654H362.173Z" fill="#E9F1F6"/>
</g>
<defs>
<clipPath id="clip0_5484_43215">
<rect width="595" height="297" fill="white"/>
</clipPath>
</defs>
</svg>
