<svg width="595" height="287" viewBox="0 0 595 287" fill="none" xmlns="http://www.w3.org/2000/svg">
<g clip-path="url(#clip0_5118_43108)">
<path d="M0.74381 0.0496196C197.838 0.0496196 394.956 0.0744295 592.05 0C594.355 0 595 0.297718 595 2.82832C594.926 97.3537 594.926 191.879 594.926 286.405C594.207 286.876 593.389 286.677 592.62 286.677C553.846 286.677 515.047 286.677 476.273 286.677C475.876 286.677 475.479 286.677 475.083 286.628C473.521 285.387 473.868 283.576 473.868 281.964C474.017 264.299 472.38 246.734 470.918 229.144C470.918 228.945 470.794 228.771 470.719 228.598C470.273 225.72 470.149 222.792 469.455 219.939C469.306 219.443 469.232 218.922 469.257 218.401C469.505 216.118 468.587 215.275 466.207 215.324C459.985 215.448 453.737 215.523 447.514 215.3C447.192 215.25 446.895 215.151 446.622 215.002C445.556 214.332 445.581 212.943 444.738 212.124C443.102 210.759 441.44 210.635 439.755 212.05C439.432 212.571 439.184 213.116 438.862 213.613C438.292 214.828 437.251 215.225 435.986 215.374C427.954 216.267 427.16 215.92 424.904 208.353C424.26 206.194 423.219 205.822 421.334 205.847C418.905 205.847 416.401 206.443 414.095 205.177C413.004 203.54 413.277 201.729 413.376 199.942C413.426 199.049 413.401 198.156 413.426 197.263C413.5 195.824 413.252 194.335 413.773 192.921C413.946 192.574 414.194 192.301 414.542 192.102C416.302 191.259 418.186 191.507 420.045 191.507C425.227 191.557 430.408 191.309 435.59 191.631C439.482 191.73 443.399 191.631 447.291 191.681C451.655 191.631 456.018 191.83 460.381 191.581C460.852 191.408 461.323 191.358 461.819 191.358C462.117 191.358 462.414 191.408 462.712 191.457C464.224 191.904 465.761 191.681 467.298 191.681C468.017 191.681 468.488 191.16 469.083 190.862C471.934 189.994 473.62 188.009 474.513 185.255C475.207 184.387 475.256 183.369 475.207 182.327C475.207 179.449 475.207 176.571 475.207 173.694C475.207 170.568 475.331 167.441 475.182 164.34C475.058 161.81 475.653 159.924 478.256 159.105C478.826 158.684 479.496 158.535 480.165 158.361C485.768 156.823 489.264 153.151 490.949 147.668C491.049 147.42 491.197 147.172 491.321 146.949C492.115 145.683 492.115 144.418 491.346 143.128C491.197 142.905 491.049 142.656 490.949 142.433C488.123 136.404 484.008 131.79 477.314 130.003C476.298 129.16 474.934 129.309 473.818 128.763C473.57 128.589 473.372 128.366 473.223 128.118C472.876 126.803 472.554 125.463 471.835 124.272C471.24 121.146 471.587 117.996 471.538 114.845C471.637 113.703 471.81 112.562 471.364 111.446C471.19 111.247 471.042 111.024 470.893 110.801C470.298 109.734 469.405 109.014 468.315 108.493C466.356 107.327 464.323 106.484 461.968 106.806C449.324 107.154 436.705 108.394 424.037 108.072C421.161 107.997 418.31 108.072 415.434 107.873C409.187 107.873 402.939 107.873 396.691 107.873C394.708 107.873 392.7 107.873 390.717 107.873C387.643 108.121 384.519 107.253 381.519 108.469C381.197 108.667 380.874 108.791 380.527 108.89C375.916 109.486 371.305 109.262 366.694 109.089C362.008 109.014 357.298 109.089 352.612 109.089C349.488 109.089 346.34 109.089 343.216 109.089C341.629 109.089 340.043 109.089 338.456 109.089C335.53 109.213 332.605 108.791 329.704 109.362C329.457 109.535 329.209 109.684 328.936 109.808C324.969 110.875 322.515 113.654 320.705 117.152C320.507 117.425 320.358 117.698 320.259 118.02C320.011 119.31 320.11 120.601 320.11 121.866C320.11 142.731 320.11 163.571 320.11 184.436C319.664 188.232 322.069 190.688 324.25 193.244C324.994 194.162 326.035 194.112 327.076 194.087C329.283 194.087 331.489 194.087 333.671 194.087C336.77 194.087 339.869 194.087 342.968 194.087C346.067 194.087 349.166 194.087 352.265 194.087C353.802 194.087 355.314 194.087 356.851 194.087C360.099 194.311 363.371 193.665 366.594 194.509C366.966 194.608 367.14 194.608 366.768 194.509C366.619 194.459 366.57 194.186 366.594 193.963C366.694 193.69 366.867 193.492 367.115 193.318C368.503 192.698 369.941 192.847 371.379 192.822C372.867 193.07 374.429 192.698 375.916 193.244C376.238 193.393 376.486 193.641 376.685 193.938C377.255 195.129 377.156 196.32 376.685 197.486C375.792 198.677 375.99 200.091 375.916 201.456C375.867 202.895 376.214 204.433 375.197 205.723C372.941 207.212 370.388 206.368 367.958 206.616C366.694 206.74 365.256 206.542 365.107 208.427C363.347 215.87 365.107 215.473 355.835 215.448C353.579 215.448 351.298 215.498 349.042 215.424C348.72 215.374 348.422 215.275 348.125 215.151C346.464 214.059 346.414 211.107 343.662 211.28C342.348 211.33 340.712 210.635 340.266 212.744C340.117 213.34 339.919 213.91 339.522 214.382C338.481 215.424 337.142 215.498 335.803 215.473C333.522 215.324 331.242 215.498 328.985 215.548C328.167 215.548 327.399 215.548 326.977 216.441C324.027 225.422 322.54 234.726 321.449 244.054C319.961 256.831 318.102 269.559 316.887 282.361C316.738 283.849 316.937 285.611 315.424 286.702C306.152 286.802 296.88 286.702 287.633 286.752C285.823 286.876 285.377 285.387 284.807 284.197C280.047 274.397 273.551 265.837 265.767 258.32C251.809 244.823 235.124 236.189 216.456 231.228C215.068 230.831 213.704 230.384 212.266 230.26C211.82 230.235 211.399 230.136 210.977 230.037C209.564 229.665 208.2 229.094 206.688 229.144C205.151 228.846 203.391 229.342 202.226 227.779C201.532 225.968 201.73 224.082 201.804 222.246C201.928 219.17 202.573 218.525 205.82 217.88C207.11 217.979 208.399 217.805 209.663 217.508C215.043 216.267 220.348 214.853 225.232 212.198C226.05 212.025 226.819 211.752 227.488 211.231C227.959 210.933 228.43 210.66 228.877 210.362C232.224 208.353 235.496 206.244 238.174 203.341C239.116 202.349 240.157 201.431 241.694 201.505C245.76 202.994 248.933 205.897 252.503 208.179C253.42 208.775 254.214 209.544 255.181 210.04C257.164 211.057 258.28 210.561 258.924 208.378C261.998 197.982 264.056 187.463 263.709 176.522C263.213 161.09 259.37 146.601 251.586 133.254C244.223 120.65 234.48 110.23 222.109 102.415C212.489 96.3365 202.127 91.97 190.896 89.8612C189.235 89.4642 187.599 89.0176 185.888 88.9432C182.913 88.968 179.988 88.4966 177.037 88.323C165.46 87.6035 154.65 90.6055 143.99 94.5998C142.23 95.2697 140.668 96.3117 139.106 97.3537C127.256 104.648 116.719 113.257 110.075 125.885C103.53 138.315 101.15 151.489 102.34 165.457C103.158 175.033 105.786 184.089 109.753 192.772C110.001 193.318 110.224 193.864 110.472 194.385C112.133 197.61 112.802 197.883 115.951 196.122C121.033 193.269 126.115 190.391 130.974 187.165C132.288 186.297 133.553 185.255 135.313 185.627C137.718 187.041 138.61 189.721 140.346 191.705C141.833 193.417 143.197 195.228 144.759 196.891C145.18 197.412 145.602 197.933 146.073 198.404C147.039 199.545 148.205 200.488 149.37 201.456C149.767 201.778 150.163 202.076 150.585 202.349C150.882 202.547 151.18 202.795 151.477 203.019C151.948 203.441 152.469 203.788 152.965 204.135C153.188 204.284 153.361 204.458 153.56 204.656C155.245 206.194 157.328 207.137 159.287 208.278C162.559 210.288 165.98 212 169.525 213.464C170.889 214.034 172.228 214.704 172.649 216.342C172.798 219.939 173.542 223.536 172.104 227.035C169.699 228.598 166.848 228.573 164.17 229.069C131.569 235.048 105.315 250.678 87.6882 279.408C86.5973 281.17 85.6553 283.03 84.9115 284.966C84.5644 285.908 84.2173 286.876 82.9034 286.752C56.5498 286.752 30.2211 286.752 3.86756 286.752C1.60325 286.752 0.471102 285.635 0.471102 283.403C0.471102 189.944 0.471102 96.4854 0.471102 3.0268C0.471102 2.05922 0.223185 1.04201 0.74381 0.124049V0.0496196Z" fill="#5685C4"/>
<path d="M474.884 286.33C491.296 286.355 507.683 286.405 524.096 286.405C547.697 286.405 571.324 286.405 594.925 286.405C594.801 286.578 595.223 287.025 594.628 287C593.835 286.975 593.041 287 592.248 287H0.148444C0.148444 192.251 0.148444 97.5025 0.173236 2.72902C0.173236 1.86068 -0.520931 0.719426 0.718653 0.0495605C0.718653 94.1532 0.718653 188.257 0.718653 282.385C0.718653 286.975 0.123653 286.38 4.58615 286.38C31.0141 286.38 57.442 286.355 83.8699 286.33C85.5805 284.941 87.6382 285.313 89.572 285.313C118.578 285.313 147.584 285.313 176.591 285.313C211.349 285.313 246.082 285.313 280.84 285.313C282.798 285.313 284.831 284.99 286.567 286.33C296.26 286.33 305.954 286.33 315.647 286.33C316.515 285.536 317.581 285.362 318.672 285.362C329.134 285.362 339.621 285.139 350.083 285.462C351.174 285.338 352.24 285.288 353.331 285.288C382.138 285.288 410.922 285.288 439.729 285.288C440.919 285.288 442.11 285.288 443.275 285.487C452.274 285.139 461.298 285.363 470.298 285.313C471.859 285.313 473.496 285.139 474.834 286.305L474.884 286.33Z" fill="white"/>
<path d="M286.592 286.33C285.898 286.355 285.204 286.405 284.509 286.405C218.216 286.405 151.924 286.405 85.6554 286.405C85.0604 286.405 84.4654 286.38 83.8704 286.355C83.796 283.403 85.6058 281.194 86.9941 278.862C99.7866 257.352 118.43 242.938 141.635 234.13C151.279 230.458 161.22 228.151 171.459 227.084C172.327 227.977 172.501 229.143 172.575 230.285C172.724 232.294 173.641 233.758 175.451 234.626C175.724 234.75 175.971 234.899 176.219 235.048C180.88 237.107 185.591 238.844 190.846 237.653C192.929 237.207 194.962 236.636 197.044 236.264C197.664 236.239 198.21 235.966 198.78 235.792C201.16 235.495 201.928 234.031 201.879 231.798C201.854 230.508 201.606 229.069 202.796 228.027C204.234 227.308 205.548 228.25 206.911 228.3C208.176 229.491 209.862 228.871 211.3 229.317L212.242 229.441C213.481 230.508 215.117 230.037 216.506 230.533C225.381 232.344 233.637 235.792 241.595 239.961C260.536 249.884 275.361 264.001 285.253 283.08C285.798 284.122 286.146 285.238 286.567 286.33H286.592Z" fill="#101927"/>
<path d="M477.413 129.483C479.198 129.16 480.735 129.954 482.049 130.872C486.338 133.849 490.379 137.124 491.643 142.607C492.412 144.195 492.362 145.807 491.693 147.42C491.048 153.523 485.297 158.758 478.578 159.403C477.71 160.296 475.553 159.205 475.553 161.388C475.529 165.06 475.553 168.707 475.553 172.379C475.553 175.852 475.553 179.301 475.553 182.774C475.529 183.692 475.653 184.61 475.033 185.404C474.14 189.423 472.653 190.936 469.058 191.457C466.926 192.4 464.67 191.73 462.488 191.929L461.323 191.978C461.001 192.127 460.654 192.152 460.307 192.028C456.117 191.805 451.952 191.979 447.762 191.929C444.043 191.979 440.325 191.83 436.606 192.003C436.283 192.103 435.986 192.227 435.713 192.425C428.623 192.5 421.532 192.549 414.467 192.624C413.921 192.872 413.673 193.442 413.227 193.79C412.186 194.36 411.814 196.593 409.955 195.105C408.616 193.938 406.98 194.236 405.418 194.162C398.179 193.814 390.989 195.179 383.775 194.708C381.271 194.534 378.618 195.303 376.263 193.79C374.751 192.524 373.164 193.219 371.577 193.641L366.817 193.814C363.346 194.881 359.801 194.038 356.306 194.311C355.016 194.311 353.727 194.311 352.438 194.311C349.29 194.311 346.166 194.311 343.017 194.311C339.844 194.311 336.671 194.311 333.472 194.311C330.274 194.063 327.027 194.856 323.903 193.79C321.473 191.507 318.87 189.324 319.366 185.454C319.564 185.156 319.713 184.833 319.787 184.486C320.035 176.224 319.614 167.938 320.011 159.676C320.234 159.13 320.68 158.907 321.25 158.932C322.539 159.279 322.812 160.52 323.432 161.438C327.845 170.89 335.307 176.075 345.645 176.795C355.884 177.514 364.115 173.421 369.52 164.737C375.122 155.756 374.899 146.403 369.668 137.174C368.949 135.908 367.858 134.817 367.71 133.229C368.553 129.458 368.007 128.49 364.363 126.952C361.908 125.91 359.231 125.637 356.727 124.694C354.05 124.148 351.322 124.471 348.645 124.471C343.612 125.24 338.456 125.513 333.745 127.746C332.977 127.944 332.208 127.944 331.44 127.895C329.754 126.977 328.117 125.836 325.663 126.332C327.002 127.002 329.109 125.86 329.233 128.093C328.762 129.855 326.605 131.021 327.349 133.254C326.283 135.164 325.787 137.595 323.06 137.992C322.093 137.422 322.068 136.454 321.969 135.511C320.457 131.839 320.729 127.994 320.853 124.173C320.903 122.958 320.853 121.841 320.011 120.874C319.911 119.36 319.49 117.797 320.457 116.383C322.093 112.662 324.374 109.709 328.762 109.163C331.464 108.146 334.266 108.89 336.993 108.667C339.001 108.667 341.034 108.667 343.042 108.667C346.141 108.667 349.215 108.667 352.314 108.667C356.826 108.618 361.363 108.766 365.875 108.593C366.222 108.493 366.52 108.369 366.817 108.171L381.023 107.972C384.072 106.955 387.221 107.724 390.32 107.476C392.154 107.551 393.989 107.278 395.823 107.675C396.344 107.923 396.741 108.295 397.013 108.791C397.683 110.453 398.104 112.215 398.055 113.976C397.856 119.807 398.848 125.587 398.749 131.443C398.674 135.66 399.195 136.156 403.608 136.107C413.078 136.032 422.549 136.132 432.044 135.66C442.581 135.139 453.191 135.536 463.753 135.536C465.538 135.536 467.298 135.437 469.083 135.238C470.917 135.04 471.686 134.196 471.587 132.336C471.512 130.971 471.438 129.557 472.306 128.317C472.777 127.87 473.273 127.845 473.843 128.118L473.793 128.217C474.76 129.483 476.347 128.689 477.487 129.334L477.413 129.483Z" fill="#D3996D"/>
<path d="M135.461 185.95C134.073 185.9 133.131 186.793 132.04 187.463C126.14 191.011 120.215 194.484 114.314 198.032C112.554 199.099 111.661 198.33 110.843 196.767C105.935 187.339 102.687 177.415 101.571 166.797C99.9845 151.638 102.588 137.372 110.05 124.049C116.744 112.116 126.76 103.631 138.436 96.8825C145.006 93.5827 151.873 91.1762 159.162 90.159C169.203 88.7696 179.243 88.9185 189.135 91.3995C193.647 92.5159 198.16 93.5827 202.374 95.6916C205.622 97.3042 206.49 99.1898 205.473 102.688C204.853 104.871 204.159 107.03 203.118 109.064C196.027 125.315 186.16 139.704 174.087 152.655C171.186 155.756 168.459 159.006 165.385 161.909C164.889 162.405 164.369 162.877 163.897 163.348C162.112 164.787 160.278 166.201 158.741 167.938C158.468 168.236 158.171 168.533 157.848 168.806C151.204 174.463 144.411 179.971 137.246 184.957C136.676 185.354 136.205 185.85 135.486 185.975L135.461 185.95Z" fill="#010101"/>
<path d="M135.462 185.949C135.511 185.453 135.586 185.032 136.057 184.709C143.643 179.697 150.51 173.793 157.576 168.111C157.774 168.21 157.874 168.335 157.874 168.533C158.295 168.31 158.022 167.888 158.121 167.59C159.659 165.754 161.444 164.191 163.377 162.802C163.898 162.529 164.642 162.504 164.592 161.636C173.691 152.159 182.516 142.507 189.88 131.566C194.615 124.52 198.606 117.127 202.152 109.436C203.143 108.592 204.259 109.014 205.25 109.337C226.894 116.035 243.653 128.49 251.884 150.248C258.379 167.441 255.9 183.692 244.967 198.553C243.975 199.917 242.859 201.158 241.322 201.952C237.851 204.135 235.447 207.683 231.678 209.469C230.711 209.916 229.819 210.511 228.902 211.057C227.96 211.38 226.844 210.809 226.051 211.677C226.051 212.049 226.125 212.422 225.902 212.744C220.869 215.473 215.539 217.309 209.887 218.153C208.523 217.21 207.407 217.88 206.317 218.698C203.515 218.649 202.152 219.79 202.623 222.792C202.895 224.529 202.771 226.315 202.821 228.077C202.846 229.243 202.895 230.409 202.92 231.575C203.019 235.495 202.697 235.892 198.73 236.611L196.127 235.098C196.028 236.115 197.739 235.916 197.416 237.058C195.259 237.653 193.152 238.447 190.896 238.422C189.086 238.571 187.227 239.167 185.491 238.05C185.913 236.834 187.475 237.132 188.02 236.09C188.219 235.892 188.417 235.743 188.665 235.594C190.375 234.353 193.152 234.031 192.78 230.93C192.805 229.714 193.499 228.771 194.094 227.779C194.987 226.588 195.656 225.298 196.102 223.859C196.92 221.229 196.474 220.435 193.673 220.261C191.218 220.113 188.764 220.212 186.334 219.641C181.277 219.319 176.269 218.798 171.98 215.721C168.46 213.96 164.914 212.248 161.419 210.437C160.502 209.965 159.659 209.296 158.791 208.7C158.642 208.576 158.593 208.427 158.593 208.278C158.593 208.105 158.593 208.03 158.642 208.03C159.088 207.311 160.204 207.36 160.427 206.418C158.518 205.946 156.411 206.145 154.998 204.234C154.403 203.44 153.733 205.574 152.816 204.557C152.469 203.813 151.775 203.54 151.056 203.341L150.461 202.895C149.816 202.15 149.395 201.381 150.436 200.612C150.808 200.389 151.205 200.24 151.651 200.19C151.924 199.868 153.039 200.662 152.593 199.669C152.246 198.851 152.395 197.709 151.378 197.213C150.213 197.114 150.039 198.305 149.345 198.776C148.279 199.223 147.461 198.404 146.519 198.181C145.825 197.957 145.081 197.908 144.486 197.412C140.767 194.186 138.164 190.068 135.511 186.024L135.462 185.949Z" fill="#EBCFBB"/>
<path d="M443.374 286.305C432.888 286.33 422.401 286.405 411.889 286.405C391.287 286.405 370.71 286.355 350.108 286.305C348.274 284.395 348.174 281.84 347.604 279.458C346.067 273.032 344.728 266.582 343.439 260.106C343.216 259.039 343.216 257.948 343.241 256.856C343.638 254.971 343.018 253.259 342.249 251.572C339.968 240.432 338.307 229.243 338.407 217.83C338.407 216.416 338.63 215.076 339.373 213.861L339.473 212.223C340.142 210.015 342.249 211.057 343.588 210.387C346.687 209.966 347.48 211.975 347.827 214.456C349.092 217.036 349.761 219.741 349.984 222.643C350.406 228.35 351.472 233.957 352.488 239.588C352.91 241.945 355.067 241.796 356.752 241.945C362.157 242.417 367.562 242.789 373.016 242.764C378.767 242.764 384.519 242.764 390.271 242.764C398.378 242.764 406.484 242.193 414.517 241.325C421.087 240.606 427.706 240.382 434.226 239.291C436.929 238.819 437.424 237.306 437.672 235.023C438.317 228.895 437.945 222.817 437.499 216.714C437.4 215.3 438.614 214.233 438.54 212.819C438.59 212.322 438.59 211.777 439.135 211.504C441.242 210.139 443.35 210.536 445.457 211.479C446.845 212.05 446.25 213.34 446.498 214.332C447.812 215.746 448.134 217.483 448.011 219.294C447.118 232.518 447.787 245.766 446.548 258.99C445.878 266.16 445.63 273.379 445.035 280.574C444.837 281.616 444.887 282.658 444.713 283.7C444.416 284.643 444.168 285.635 443.374 286.33V286.305Z" fill="#101927"/>
<path d="M438.168 216.267C438.887 220.634 439.631 225.025 439.011 229.417C438.589 232.369 439.085 235.346 438.267 238.249C437.97 239.316 437.747 239.961 436.457 240.085C421.979 241.573 407.501 243.36 392.923 243.583C392.13 243.583 391.337 243.558 390.543 243.533C389.105 242.615 387.494 243.062 385.982 243.037C382.486 242.963 378.966 242.987 375.445 243.037C374.528 243.037 373.462 242.665 372.718 243.608C366.421 243.781 360.173 243.236 353.901 242.566C352.141 242.367 351.571 241.524 351.323 239.986C350.133 232.17 349.439 224.256 347.852 216.491C347.728 215.821 347.852 215.126 347.852 214.431C348.026 214.431 348.199 214.481 348.348 214.58C348.794 214.952 349.141 215.672 349.761 215.548C354.422 214.605 359.058 216.094 363.942 215.424C363.743 213.017 364.438 210.536 364.438 207.981C364.115 206.244 364.735 205.525 366.594 205.574C369.396 205.674 372.222 205.574 375.024 205.525C375.148 205.649 375.296 205.748 375.42 205.872C376.362 207.807 375.743 209.891 375.966 211.876C376.288 214.63 375.073 217.756 377.85 219.939C378.023 220.287 377.85 219.815 377.999 220.187C378.395 221.229 379.461 222.271 378.271 223.363C376.957 224.579 375.966 223.462 374.999 222.718C374.875 222.718 374.85 222.445 374.677 222.619C375.148 223.09 375.495 223.636 375.817 224.206C376.586 225.224 377.131 224.082 377.776 223.983C378.123 223.785 378.371 223.313 378.742 223.313C386.428 223.437 393.989 220.758 401.749 222.519C402.691 222.743 403.956 223.09 404.724 221.899C405.988 220.559 407.749 220.609 409.335 220.262C413.128 219.443 413.723 218.674 413.476 214.952C413.352 213.092 413.178 211.231 413.748 209.42C414.219 208.551 414.641 207.683 414.789 206.691C415.013 205.45 415.955 205.252 417.046 205.351C418.211 205.45 418.508 206.269 418.459 207.212C418.409 208.279 418.508 209.345 418.285 210.387C418.583 209.172 418.211 207.882 419.202 206.74C420.814 204.855 422.574 204.88 423.938 206.939C425.376 209.097 426.119 211.529 426.64 214.034C427.012 215.821 427.681 216.044 429.491 215.771C432.342 215.349 435.342 214.779 438.143 216.267H438.168Z" fill="#1E3764"/>
<path d="M472.728 128.341C472.678 129.135 472.728 129.929 472.53 130.698C472.108 132.584 473.819 135.164 472.133 136.156C470.893 136.876 468.563 136.603 466.728 136.603C457.035 136.652 447.316 136.528 437.623 136.752C425.847 137.025 414.096 137.397 402.32 137.297C398.229 137.248 397.708 136.801 397.659 132.708C397.56 124.719 397.262 116.73 396.345 108.766C399.32 108.121 402.32 108.667 405.319 108.493C406.559 108.419 407.873 108.692 408.988 107.923C410.997 107.129 413.104 107.873 415.137 107.451C415.211 107.253 415.36 107.129 415.533 107.054C427.409 106.806 439.284 106.657 451.159 106.285C455.101 106.161 459.043 105.566 463.01 105.863C464.695 107.377 467.075 107.129 468.935 108.196C470.224 108.468 471.166 109.089 471.364 110.503C472.182 111.396 471.736 112.537 472.034 113.53C472.158 113.753 472.282 114.001 472.43 114.224C472.53 117.797 472.604 121.345 472.703 124.917C473.273 126.059 473.248 127.2 472.703 128.366L472.728 128.341Z" fill="#E0D5CD"/>
<path d="M444.044 281.07C444.763 271.246 445.457 261.421 446.176 251.596C446.226 250.802 446.3 250.009 446.325 249.239C446.399 239.663 446.449 230.086 446.969 220.51C447.069 218.426 446.969 216.366 446.523 214.332C446.721 214.332 446.87 214.431 447.019 214.555C447.763 215.027 448.531 215.448 449.473 215.448C454.779 215.424 460.084 215.597 465.39 215.374C468.811 215.225 469.034 215.275 470.1 218.699L470.274 219.716C470.67 221.651 469.976 223.611 470.546 225.546C470.72 226.092 470.497 226.787 470.125 227.233C468.092 229.739 468.761 232.642 468.96 235.47C469.406 233.733 469.108 231.922 469.381 230.186C469.555 229.143 469.431 227.556 471.364 228.226C472.654 232.27 472.703 236.537 473.025 240.68C474.067 254.698 475.158 268.74 474.984 282.832C474.984 284.023 474.934 285.189 474.91 286.38C464.398 286.38 453.911 286.38 443.399 286.355C443.449 285.536 443.35 284.668 443.994 283.998C445.16 283.055 444.589 282.088 444.069 281.12L444.044 281.07Z" fill="#1E3764"/>
<path d="M241.347 201.878C244.942 197.064 248.735 192.375 250.892 186.669C258.354 166.796 253.966 148.983 240.951 133.006C230.885 120.65 217.646 113.108 202.201 109.387C203.069 106.881 203.912 104.35 204.78 101.869C205.672 99.3386 204.78 97.7012 202.4 96.684C193.45 92.8632 184.178 90.7048 174.41 90.3078C162.584 89.8364 151.279 91.6476 140.47 96.5103C139.875 96.7832 139.131 96.7336 138.462 96.808C142.751 93.3098 147.932 91.722 153.139 90.4319C158.097 89.1914 163.154 88.2734 168.187 87.4299C174.187 86.4375 180.186 87.3306 186.161 88.0749C187.574 89.4147 189.458 88.5215 191.02 89.1169C199.325 90.2582 207.036 93.1858 214.448 96.9817C236.116 108.072 251.165 125.116 259.396 147.966C264.503 162.107 265.916 176.72 263.685 191.73C262.792 197.71 260.809 203.391 259.792 209.321C259.396 211.553 256.619 212.223 254.561 210.759C250.248 207.683 246.008 204.483 241.372 201.878H241.347Z" fill="#1E2025"/>
<path d="M339.398 213.861C338.828 224.752 340.786 235.42 341.952 246.163C342.15 248.098 343.142 249.934 343.067 251.944C343.761 253.482 343.414 255.243 344.158 256.757C344.431 262.265 345.993 267.549 347.133 272.883C348.075 277.374 349.116 281.84 350.133 286.305C338.654 286.305 327.176 286.305 315.697 286.305C316.367 279.656 316.962 273.007 317.705 266.358C318.548 258.841 319.391 251.323 320.457 243.831C321.796 234.329 323.036 224.777 326.234 215.647C326.705 215.374 327.225 215.324 327.647 215.572C329.184 216.466 330.473 216.962 331.961 215.25C332.853 214.208 334.663 215.523 335.853 214.58C337.018 214.258 338.382 214.878 339.398 213.861V213.861Z" fill="#1E3764"/>
<path d="M377.477 220.435C375.073 219.815 374.874 218.053 375.073 215.994C375.197 214.754 375.147 213.464 375.172 212.223C375.345 211.752 375.544 211.256 375.618 210.759C375.717 207.311 375.618 203.862 375.668 200.414C375.668 199.347 375.469 198.23 376.188 197.263V193.814C386.824 193.591 397.46 193.393 408.095 193.12C409.88 193.07 411.045 193.417 410.698 195.526C411.021 196.692 410.401 197.61 409.905 198.578C404.005 210.164 394.683 217.26 381.965 219.889C380.7 220.137 379.51 220.534 378.271 220.832C377.949 220.807 377.701 220.683 377.477 220.435V220.435Z" fill="#B17D54"/>
<path d="M378.098 220.51C379.164 219.244 380.726 219.269 382.139 218.996C395.849 216.267 404.774 207.683 410.699 195.501C411.716 194.931 411.567 193.219 413.054 193.12C414.12 194.162 413.501 195.501 413.674 196.692C413.748 197.709 413.451 198.776 414.17 199.669C414.244 201.456 414.294 203.217 414.368 205.004C415.087 206.393 415.062 207.782 414.368 209.147C414.393 211.33 414.294 213.513 414.492 215.647C414.814 219.071 413.823 220.386 410.451 221.055C408.567 221.428 406.534 221.254 404.774 222.271C404.005 222.891 403.088 222.867 402.22 222.767C396.89 222.147 391.56 222.668 386.23 222.767C385.907 222.767 385.61 222.668 385.337 222.494C383.949 221.229 382.238 222.122 380.701 221.874C379.635 221.775 378.371 222.023 378.073 220.485L378.098 220.51Z" fill="#D3996D"/>
<path d="M171.955 215.647C176.814 216.937 181.599 218.723 186.731 218.773C188.094 220.584 190.127 220.038 191.912 220.113C196.424 220.336 197.54 222.098 195.482 226.117C195.11 226.811 194.937 227.605 194.491 228.275L193.177 231.103C192.433 233.485 190.474 234.701 188.491 235.867C188.094 237.008 187.078 237.281 186.086 237.653C187.499 239.142 189.334 237.753 190.871 238.348C185.243 239.713 180.186 238.125 175.352 235.371C175.575 235.098 175.897 234.875 176.021 234.527C175.674 234.701 175.748 235.222 175.352 235.371C171.112 233.957 171.93 230.21 171.509 227.059C172.327 223.288 171.509 219.443 171.98 215.647H171.955Z" fill="#C19376"/>
<path d="M414.393 209.171C414.393 207.782 414.393 206.393 414.393 205.028C417.145 205.028 419.922 205.103 422.673 205.003C424.31 204.929 425.177 205.45 425.599 207.112C426.243 209.544 425.971 213.116 427.904 214.109C430.185 215.275 433.483 214.382 436.334 214.605C437.821 214.704 438.168 213.861 438.515 212.819C439.11 214.059 438.143 215.126 438.143 216.292C434.871 216.714 431.499 215.572 428.227 216.887C428.028 216.962 426.095 217.607 426.07 215.126C426.07 212.273 424.26 209.395 423.045 206.591C422.797 205.996 421.062 205.624 421.062 205.723C420.988 207.137 419.029 206.988 419.004 208.427C419.004 209.717 418.732 211.007 418.558 212.298H417.814C417.814 210.834 417.864 209.42 417.814 208.005C417.789 207.087 418.186 205.797 416.649 205.748C415.31 205.673 415.484 206.815 415.459 207.683C415.434 208.452 415.236 209.047 414.368 209.196L414.393 209.171Z" fill="#1F3867"/>
<path d="M470.075 218.649C468.935 216.391 467.422 215.821 464.671 216.118C459.613 216.689 454.481 216.242 449.374 216.317C448.011 216.317 447.465 215.573 446.994 214.531C453.39 214.531 459.762 214.531 466.158 214.531C468.869 214.531 470.183 215.912 470.1 218.674L470.075 218.649Z" fill="#1F3867"/>
<path d="M319.838 185.379C319.664 185.404 319.49 185.429 319.317 185.478C319.292 163.224 319.243 140.994 319.218 118.74C319.218 118.095 319.044 117.326 319.788 116.879C320.73 122.015 320.705 127.175 320.68 132.36C320.68 138.265 320.606 144.17 320.73 150.05C320.804 150.447 320.804 150.819 320.73 151.216C320.011 161.71 320.036 172.23 320.085 182.749C320.085 183.618 320.284 184.536 319.838 185.354V185.379Z" fill="#A88E87"/>
<path d="M364.437 207.981C365.553 207.509 366.123 208.08 365.578 208.998C364.09 211.479 364.338 213.886 365.553 216.739C361.041 215.672 356.628 217.21 352.389 215.622C351.819 215.399 351.471 215.622 351.1 215.994C348.744 218.401 348.571 216.466 348.348 214.605C352.265 214.605 356.207 214.332 360.099 214.605C362.578 214.779 363.297 213.737 363.644 211.653C363.842 210.412 363.57 209.072 364.437 207.981Z" fill="#1F3868"/>
<path d="M471.364 228.176C469.926 228.399 470.174 229.541 470.149 230.483C470.149 232.27 470.149 234.056 470.149 235.817C470.149 236.611 470.149 237.505 469.034 237.554C467.918 237.604 467.72 236.76 467.819 235.941C468.191 232.84 466.728 229.565 469.406 226.663C470.273 225.72 470.025 223.512 469.901 221.899C469.852 221.056 469.901 220.386 470.249 219.666C470.943 222.445 471.463 225.273 471.364 228.151V228.176Z" fill="#1F3867"/>
<path d="M158.791 207.981V208.651C156.51 207.633 154.13 206.815 152.767 204.507C153.386 204.358 153.907 204.11 154.006 203.416C154.105 202.647 154.428 202.026 155.32 202.15C156.634 202.349 155.518 203.391 155.692 203.565C156.783 204.656 157.923 206.07 159.758 205.177C160.477 204.83 161.196 204.061 161.816 204.78C162.46 205.5 160.997 205.996 161.171 206.815C160.576 207.609 159.386 207.187 158.791 208.005V207.981Z" fill="#EBCDBE"/>
<path d="M319.887 150.397C319.887 139.233 319.837 128.044 319.812 116.879C320.011 116.755 320.209 116.606 320.408 116.482L320.457 121.246C321.052 121.891 321.027 122.685 321.002 123.479C320.779 128.887 321.399 134.271 321.275 139.679C321.275 140.92 321.25 142.136 321.697 143.326C321.523 145.807 322.416 148.536 319.887 150.397V150.397Z" fill="#BB9F96"/>
<path d="M335.853 214.58C335.034 215.052 334.787 216.193 333.2 215.672C331.564 215.151 331.34 217.16 330.646 218.575C329.357 217.086 327.795 216.367 326.233 215.622C326.506 214.233 327.597 214.456 328.539 214.481C330.969 214.481 333.423 214.531 335.853 214.58V214.58Z" fill="#1F3868"/>
<path d="M376.213 197.238C376.089 202.002 376.908 206.79 375.718 211.528C374.899 209.643 375.817 207.633 375.197 205.723L375.023 205.525C375.048 203.565 375.073 201.605 375.123 199.669C375.147 198.727 374.924 197.635 376.213 197.238Z" fill="#938389"/>
<path d="M475.033 160.52C475.653 158.386 477.339 159.676 478.529 159.403C479.223 160.073 479.322 160.544 478.132 160.445C476.322 160.296 476.05 161.314 476.074 162.827C476.149 166.375 476.074 169.947 476.074 173.495C475.727 173.718 475.479 173.644 475.256 173.297C475.182 172.801 475.207 172.28 475.207 171.783C475.108 168.012 475.43 164.241 475.033 160.495V160.52Z" fill="#7E8AAD"/>
<path d="M415.557 107.054C415.508 107.228 415.458 107.377 415.409 107.55C409.211 108.071 403.038 109.163 396.79 107.972C396.418 107.749 396.294 107.426 396.468 107.005L415.557 107.054V107.054Z" fill="#969EB5"/>
<path d="M146.915 197.288L149.295 198.478C150.089 199.198 149.742 200.116 149.766 200.959C149.692 201.332 149.618 201.704 149.32 201.952C147.857 201.059 146.444 200.116 145.676 198.503C145.874 197.858 146.593 197.759 146.94 197.288H146.915Z" fill="#E4CAC2"/>
<path d="M366.793 108.27C366.793 108.444 366.743 108.593 366.743 108.766C362.207 109.411 357.645 108.915 353.083 109.039C352.662 108.94 352.488 108.667 352.513 108.245H366.793V108.27Z" fill="#A78D82"/>
<path d="M460.729 191.904C460.927 191.904 461.101 191.954 461.274 192.003C456.737 193.145 452.126 192.351 447.564 192.45C447.564 192.028 447.763 191.78 448.159 191.681C452.349 191.755 456.539 191.383 460.729 191.904V191.904Z" fill="#9C8D8F"/>
<path d="M468.959 108.196C466.852 107.724 464.15 108.841 463.034 105.864C465.241 106.062 467.373 106.409 468.959 108.196Z" fill="#D8D1D2"/>
<path d="M447.564 191.954C447.564 192.127 447.564 192.276 447.564 192.45C443.597 192.45 439.631 192.45 435.664 192.45C435.664 192.276 435.714 192.127 435.714 191.954C439.482 191.309 443.3 191.78 447.093 191.681L447.564 191.954Z" fill="#AA9184"/>
<path d="M366.743 194.31L368.38 194.385V194.856H357.223C357.05 194.459 357.174 194.186 357.595 194.037C360.645 194.137 363.719 193.641 366.743 194.286V194.31Z" fill="#788BB7"/>
<path d="M323.854 193.79L333.497 193.74L333.646 194.187C333.448 194.459 333.2 194.608 332.853 194.584C330.696 194.708 328.514 194.335 326.382 194.807C325.415 194.757 324.151 195.452 323.854 193.79V193.79Z" fill="#BF9E8B"/>
<path d="M206.316 218.624C206.738 217.384 207.482 216.416 208.87 216.391C209.936 216.391 209.837 217.334 209.886 218.078C208.82 219.021 207.531 218.599 206.316 218.624Z" fill="#E4CBC0"/>
<path d="M366.744 194.31H357.273C356.951 194.683 356.554 194.583 356.158 194.509C356.009 194.36 355.934 194.211 355.984 194.062C356.034 193.913 356.058 193.814 356.108 193.814C359.678 193.814 363.248 193.814 366.793 193.814C366.793 193.988 366.768 194.137 366.744 194.31V194.31Z" fill="#8698C2"/>
<path d="M390.493 108.096C387.32 108.096 384.147 108.096 380.998 108.096C380.998 107.923 380.998 107.774 381.023 107.6C383.775 106.955 386.551 107.476 389.328 107.303C389.65 107.303 389.973 107.303 390.295 107.352C390.642 107.526 390.716 107.774 390.518 108.121L390.493 108.096Z" fill="#8495C2"/>
<path d="M477.413 129.482C475.776 130.45 474.314 130.822 473.719 128.366C474.958 128.688 476.644 127.547 477.413 129.482Z" fill="#C59A7C"/>
<path d="M475.504 173.52C475.678 173.52 475.876 173.52 476.05 173.52C476.05 176.695 476.05 179.871 476.075 183.047C475.678 183.245 475.405 183.146 475.232 182.724C475.306 179.648 474.835 176.571 475.48 173.52H475.504Z" fill="#768BB9"/>
<path d="M352.513 108.245C352.513 108.419 352.513 108.593 352.513 108.742L352.091 109.014C349.215 109.064 346.364 109.089 343.489 109.014C343.117 108.89 342.968 108.618 343.067 108.245H352.537H352.513Z" fill="#998C92"/>
<path d="M352.464 194.856H342.968C342.919 194.459 343.092 194.211 343.439 194.062C346.29 193.988 349.166 193.988 352.017 194.062C352.389 194.211 352.513 194.459 352.439 194.856H352.464Z" fill="#9A8B94"/>
<path d="M342.993 194.335C342.993 194.509 342.993 194.683 342.993 194.831C339.82 194.831 336.646 194.831 333.473 194.831C333.275 194.707 333.225 194.608 333.275 194.509C333.349 194.41 333.399 194.36 333.473 194.36C336.473 193.74 339.497 194.186 342.522 194.087L342.993 194.36V194.335Z" fill="#A28E8B"/>
<path d="M390.519 107.575C387.345 107.575 384.172 107.575 381.023 107.575C384.147 106.36 387.37 107.253 390.568 107.029C390.692 107.154 390.742 107.278 390.692 107.402C390.643 107.526 390.593 107.575 390.543 107.575H390.519Z" fill="#7A8BB7"/>
<path d="M328.737 108.766C331.836 107.551 335.084 108.444 338.257 108.196C338.456 108.543 338.356 108.816 338.009 109.014C337.514 109.089 336.993 109.064 336.472 109.064C333.894 108.89 331.291 109.411 328.737 108.766V108.766Z" fill="#758CB8"/>
<path d="M190.995 89.1168C190.301 89.1912 189.532 89.0672 188.962 89.3649C187.375 90.1836 186.284 90.3077 186.136 88.0996C187.822 88.1492 189.458 88.3229 190.995 89.1416V89.1168Z" fill="#212637"/>
<path d="M225.356 211.553C224.588 211.355 223.844 210.933 225.059 210.487C226.298 210.04 227.686 210.412 228.926 210.983C228.728 211.529 228.257 211.553 227.786 211.578C226.968 212.05 226.149 212.124 225.356 211.529V211.553Z" fill="#E7D0B7"/>
<path d="M328.737 108.766H337.042C337.265 108.89 337.315 109.014 337.241 109.114C337.166 109.213 337.092 109.287 337.018 109.287C334.241 109.287 331.464 109.287 328.688 109.287V108.791L328.737 108.766Z" fill="#7F96C2"/>
<path d="M371.528 193.641C373.115 192.623 374.726 191.408 376.214 193.789C374.652 193.74 373.09 193.69 371.528 193.641Z" fill="#CC9B70"/>
<path d="M462.414 191.929C464.521 190.763 466.777 191.507 468.984 191.457C468.885 192.177 468.463 192.524 467.744 192.499C466.034 191.755 464.149 192.673 462.414 191.978V191.929V191.929Z" fill="#8698BB"/>
<path d="M211.324 229.292C210.754 229.342 209.986 229.193 209.614 229.491C207.804 230.93 207.432 229.54 206.961 228.275C208.498 228.325 209.986 228.523 211.349 229.292H211.324Z" fill="#171F33"/>
<path d="M445.457 211.454C443.349 210.958 441.242 210.834 439.135 211.479C441.242 209.345 443.349 210.09 445.457 211.454Z" fill="#1A2136"/>
<path d="M472.728 128.341C472.728 127.2 472.728 126.034 472.728 124.893C474.488 125.562 473.422 127.15 473.794 128.267C473.447 128.267 473.099 128.316 472.728 128.341Z" fill="#958D9A"/>
<path d="M333.473 194.335C333.473 194.509 333.473 194.658 333.473 194.832C331.118 194.832 328.762 194.832 326.407 194.832C328.713 193.79 331.142 194.559 333.498 194.335H333.473Z" fill="#B49280"/>
<path d="M323.258 196.568C321.448 197.412 320.531 197.461 319.316 196.742C320.506 195.824 321.448 196.122 323.258 196.568Z" fill="#5E91C7"/>
<path d="M216.531 230.508C215.093 230.21 213.233 231.501 212.267 229.417C213.779 229.417 215.217 229.764 216.531 230.508Z" fill="#171F33"/>
<path d="M390.519 107.575C390.519 107.402 390.519 107.203 390.543 107.03C392.502 107.03 394.485 107.03 396.444 107.03C396.444 107.203 396.444 107.377 396.444 107.551C396.196 107.799 395.898 107.923 395.526 107.898C393.865 107.749 392.18 108.196 390.543 107.6H390.519V107.575Z" fill="#8C8BA4"/>
<path d="M343.612 210.387C342.348 211.231 340.489 210.759 339.497 212.223C339.894 209.42 342.051 210.586 343.612 210.387Z" fill="#5D7EA8"/>
<path d="M151.031 203.267C151.552 203.068 151.75 202.126 152.37 202.423C153.238 202.845 152.742 203.763 152.791 204.483C151.924 204.483 151.453 203.887 151.031 203.267Z" fill="#EBCDBE"/>
<path d="M413.128 197.263C413.128 195.898 413.079 194.509 413.054 193.144C413.376 192.648 413.847 192.574 414.392 192.648C414.392 192.797 414.343 192.971 414.293 193.12C413.599 194.41 414.219 195.849 413.897 197.188C413.673 197.486 413.426 197.511 413.128 197.288V197.263Z" fill="#B5A09B"/>
<path d="M462.439 191.978C464.224 192.152 466.084 191.408 467.77 192.499C465.985 192.301 464.125 193.095 462.439 191.978Z" fill="#7E8BAB"/>
<path d="M413.129 197.263C413.327 197.263 413.5 197.263 413.699 197.263C413.897 196.99 414.071 196.99 414.219 197.312V199.669C412.732 199.347 413.203 198.181 413.153 197.238L413.129 197.263Z" fill="#C3987F"/>
<path d="M146.916 197.288C146.866 198.082 146.395 198.454 145.651 198.503C144.858 198.503 144.536 198.032 144.437 197.312C145.255 197.312 146.098 197.312 146.916 197.288V197.288Z" fill="#E0CEBC"/>
<path d="M352.463 194.856C352.463 194.683 352.463 194.509 352.463 194.335L352.86 194.087C353.926 194.137 355.041 193.765 356.058 194.335H357.248C357.248 194.534 357.248 194.732 357.223 194.906C355.636 194.906 354.05 194.906 352.463 194.881V194.856Z" fill="#7C8DA6"/>
<path d="M338.258 108.766C338.258 108.568 338.258 108.394 338.258 108.196C339.844 108.196 341.456 108.22 343.043 108.245C343.043 108.419 343.043 108.593 343.043 108.766L342.621 109.039C341.158 108.965 339.671 109.386 338.258 108.791V108.766Z" fill="#7B8CA9"/>
<path d="M475.504 183.022C475.702 183.022 475.901 183.022 476.099 183.022C476 183.94 476.471 185.131 474.983 185.404V183.047C475.182 182.724 475.33 182.724 475.504 183.047V183.022Z" fill="#6992C4"/>
<path d="M491.669 147.42C491.669 145.807 491.644 144.22 491.619 142.607C491.793 142.607 491.966 142.657 492.14 142.657C492.586 144.22 492.586 145.807 492.14 147.37C491.991 147.37 491.817 147.37 491.669 147.395V147.42Z" fill="#8595C0"/>
<path d="M492.14 147.395C492.14 145.832 492.14 144.244 492.14 142.681C493.007 144.244 493.032 145.832 492.14 147.395Z" fill="#808BB2"/>
<path d="M414.219 197.312C414.046 197.312 413.872 197.288 413.699 197.263C413.922 195.873 413.178 194.36 414.318 193.095C414.294 194.509 414.244 195.898 414.219 197.312Z" fill="#A08B88"/>
<path d="M471.959 114.1C470.843 113.033 471.488 111.694 471.389 110.478L471.86 110.577C472.479 111.743 472.331 112.909 471.959 114.1Z" fill="#CDD3EA"/>
<path d="M471.959 114.1C471.934 112.934 471.884 111.743 471.859 110.577C473.049 111.619 472.355 112.984 472.43 114.2C472.281 114.15 472.107 114.125 471.959 114.1Z" fill="#9299B2"/>
<path d="M225.356 211.553C226.175 211.553 226.968 211.578 227.786 211.603C227.34 212.298 226.77 212.744 225.902 212.694L225.356 211.553Z" fill="#DDC5C1"/>
<path d="M149.32 201.977V200.86C149.692 200.513 150.089 200.538 150.486 200.86C150.064 201.505 150.262 202.175 150.436 202.82C150.064 202.547 149.692 202.25 149.32 201.952V201.977Z" fill="#EBCDBE"/>
<path d="M197.416 237.008C196.97 236.512 196.375 236.512 195.805 236.487C194.962 236.487 194.541 236.165 194.739 235.222C194.863 234.577 195.012 234.13 195.805 234.13C197.218 234.155 198.606 234.13 199.772 234.13C200.441 235.817 197.292 234.726 198.755 236.562C198.408 236.983 197.937 237.083 197.441 237.008H197.416Z" fill="#EBCDB9"/>
<path d="M319.887 150.397C320.506 148.065 321.027 145.708 321.002 143.252C320.903 141.069 321.795 139.307 323.382 137.868L326.828 133.105C327.82 129.731 330.869 128.664 333.497 127.15C338.108 124.496 343.315 124.421 348.372 123.652C350.108 124.223 351.942 123.702 353.678 124.198C359.677 125.215 364.784 127.671 367.982 133.154C372.246 138.488 374.651 144.616 374.403 151.414C373.982 163.819 366.346 173.197 355.19 176.695C342.918 180.541 328.613 174.512 323.209 163.075C323.01 162.628 322.911 162.132 322.787 161.686C322.143 160.644 322.589 159.18 321.424 158.361C321.25 158.113 321.126 157.865 321.027 157.592C320.779 156.55 320.729 155.533 321.498 154.64C322.713 153.598 323.357 154.739 324.126 155.334C324.324 155.558 324.473 155.806 324.597 156.079C324.919 157.021 325.39 157.914 325.787 158.832C329.134 167.268 335.257 172.478 344.207 173.669C353.281 174.884 360.669 171.535 366.073 164.042C366.991 162.876 367.908 161.735 368.404 160.296C368.478 160.048 368.577 159.8 368.701 159.552C369.296 158.485 369.544 157.319 369.792 156.153C370.164 154.714 370.784 153.3 370.238 151.762C370.015 150.025 369.941 148.239 369.569 146.527C369.519 146.105 369.495 145.658 369.495 145.237C369.569 144.12 369.371 143.078 368.677 142.16C366.569 137.67 363.892 133.675 359.355 131.269C358.809 130.822 358.239 130.4 357.545 130.252C349.215 126.604 341.257 127.225 333.646 132.261C332.58 133.005 331.687 133.923 330.82 134.866C327.225 137.992 325.936 142.384 324.25 146.576C323.308 147.792 323.729 149.231 323.556 150.596C323.357 152.134 322.564 153.349 321.597 154.491C321.2 154.838 320.779 154.863 320.308 154.615C319.738 153.424 320.457 152.084 319.837 150.893C319.837 150.72 319.862 150.546 319.837 150.397H319.887Z" fill="#E0D4CE"/>
<path d="M433.904 165.829C433.829 175.058 428.623 181.93 420.888 184.337C413.302 186.694 405.071 183.816 400.534 177.266C399.22 175.356 398.774 173.445 400.732 171.709C402.319 170.319 404.575 170.915 406.36 172.999C410.525 177.911 415.508 179.201 420.541 176.671C425.896 173.991 428.127 167.789 425.648 162.355C425.251 161.462 424.706 160.619 424.284 159.726C423.442 157.964 423.293 156.153 425.103 154.987C427.036 153.746 428.945 154.243 430.334 156.054C432.788 159.304 433.879 163.05 433.928 165.804L433.904 165.829Z" fill="#79481F"/>
<path d="M415.483 154.466C407.228 159.626 398.997 164.787 390.741 169.947C389.13 170.965 387.469 171.262 385.857 169.947C384.965 168.98 385.188 168.012 385.783 167.02C390.394 162.976 396.071 160.52 401.079 157.071C404.798 154.516 408.715 152.283 412.558 149.926C413.872 150.645 414.814 151.563 414.417 153.25C414.095 153.746 413.475 153.796 413.078 154.193C413.525 153.871 414.12 153.722 414.467 153.225C414.888 153.002 415.285 153.052 415.657 153.325C415.88 153.746 415.855 154.143 415.508 154.516L415.483 154.466Z" fill="#E1D4CC"/>
<path d="M476.893 150.943C475.281 150.993 474.414 150.869 474.339 149.653C474.141 146.328 473.918 142.979 473.744 139.655C473.695 138.836 473.794 137.843 474.885 137.992C477.166 138.265 479.422 138.985 480.909 140.796C482.223 142.384 483.116 144.368 482.025 146.527C480.81 148.909 479.05 150.645 476.893 150.968V150.943Z" fill="#B17C54"/>
<path d="M367.958 133.179C363.942 129.209 359.554 125.81 353.777 124.744C354.695 123.181 355.984 123.999 357.174 124.198C360.694 125.017 364.289 125.587 367.363 127.646C369.718 129.234 369.867 130.847 367.958 133.179V133.179Z" fill="#171210"/>
<path d="M320.457 140.25C320.457 133.923 320.457 127.572 320.457 121.246C321.35 121.444 322.589 120.526 322.019 122.982C321.226 126.431 320.655 130.276 322.589 133.775C322.837 134.246 322.738 134.916 322.787 135.511C322.044 136.33 322.366 137.322 322.292 138.265C322.192 139.233 322.44 140.87 320.457 140.25V140.25Z" fill="#D59970"/>
<path d="M319.862 150.918C320.73 152.01 320.234 153.325 320.482 154.516C321.027 155.21 321.399 155.955 321.201 156.897C320.879 157.691 321.151 158.659 320.408 159.304C320.408 166.97 320.407 174.661 320.383 182.327C320.383 183.369 320.73 184.511 319.813 185.404C319.813 173.917 319.812 162.43 319.837 150.943L319.862 150.918Z" fill="#BA9F99"/>
<path d="M414.294 153.325L412.559 149.901C413.897 149.405 415.013 148.115 416.674 148.586C417.145 149.157 417.914 149.281 418.434 149.752C418.186 151.861 417.17 153.077 415.484 153.3H414.294V153.325Z" fill="#DED4CB"/>
<path d="M328.738 128.416C328.44 126.977 327.548 126.952 326.556 127.622C325.862 128.093 325.291 128.589 324.3 127.92C324.92 126.753 325.465 125.538 325.316 123.826C326.853 126.084 328.217 127.374 329.233 123.826C330.473 124.893 329.159 127.051 331.266 127.25C330.87 128.614 330.027 129.036 328.738 128.416Z" fill="#D09A71"/>
<path d="M409.534 108.196C409.435 108.692 409.211 109.263 408.666 109.263C404.551 109.188 400.41 109.957 396.345 108.791C396.146 108.617 395.973 108.419 395.774 108.245L396.245 107.948C400.683 108.047 405.121 107.526 409.534 108.221V108.196Z" fill="#DBD7CC"/>
<path d="M328.737 128.416C329.704 128.267 330.522 127.87 331.266 127.25C332.01 127.225 332.729 127.175 333.472 127.15C331.241 129.135 329.01 131.12 326.803 133.105C325.39 130.698 327.274 129.631 328.737 128.416Z" fill="#261D1A"/>
<path d="M320.457 140.25C322.019 139.927 321.499 138.687 321.598 137.719C321.672 136.801 321.4 135.71 322.788 135.511C322.862 136.33 322.565 137.248 323.358 137.893C322.937 139.853 321.846 141.515 320.978 143.277C320.036 142.408 320.507 141.292 320.457 140.275V140.25Z" fill="#D09E6F"/>
<path d="M352.512 108.766C357.248 108.766 362.008 108.766 366.743 108.766C363.718 110.056 360.57 109.089 357.496 109.337C355.835 109.461 354.149 109.337 352.488 109.312C352.289 109.188 352.24 109.089 352.289 108.965C352.364 108.841 352.413 108.791 352.488 108.791L352.512 108.766Z" fill="#B99F94"/>
<path d="M460.729 191.904C456.34 191.904 451.977 191.929 447.589 191.953C447.366 191.805 447.316 191.681 447.391 191.557C447.465 191.432 447.539 191.383 447.614 191.383C451.977 191.656 456.415 190.639 460.753 191.879L460.729 191.904Z" fill="#AFA0A1"/>
<path d="M415.484 153.325C416.475 152.134 417.442 150.968 418.434 149.777C419.773 152.828 417.393 153.474 415.459 154.441V153.3L415.484 153.325Z" fill="#E3D0C4"/>
<path d="M447.589 191.408C447.589 191.581 447.589 191.755 447.589 191.954C443.647 191.954 439.68 191.954 435.738 191.954C439.655 190.713 443.647 191.581 447.614 191.408H447.589Z" fill="#B9A094"/>
<path d="M475.033 160.52C476.074 164.415 475.207 168.409 475.504 172.354C475.356 172.627 475.182 172.627 475.033 172.354C475.033 168.409 475.033 164.464 475.033 160.52Z" fill="#8F9BBD"/>
<path d="M475.008 172.354C475.157 172.354 475.33 172.354 475.479 172.354C475.479 172.751 475.479 173.148 475.479 173.545C475.479 176.72 475.479 179.871 475.479 183.047C475.306 183.047 475.157 183.047 474.983 183.047C474.983 179.474 474.983 175.926 474.983 172.354H475.008Z" fill="#8296C3"/>
<path d="M357.174 124.198C356.058 124.496 354.744 123.528 353.777 124.744C352.017 124.148 350.033 124.62 348.348 123.652C351.298 123.875 354.298 122.908 357.174 124.173V124.198Z" fill="#A38E80"/>
<path d="M352.487 194.31C349.314 194.31 346.166 194.31 342.992 194.31C342.769 194.162 342.72 194.038 342.794 193.938C342.868 193.839 342.943 193.765 343.017 193.765H352.537C352.735 193.889 352.785 194.013 352.711 194.112C352.636 194.211 352.587 194.286 352.512 194.286H352.487V194.31Z" fill="#AD9EA7"/>
<path d="M343.017 193.79C343.017 193.963 343.017 194.137 343.017 194.286C339.844 194.286 336.67 194.286 333.497 194.286C333.497 194.112 333.497 193.914 333.497 193.74C336.67 193.74 339.844 193.74 342.992 193.765L343.017 193.79Z" fill="#B5A09E"/>
<path d="M352.488 108.791C352.488 108.965 352.488 109.138 352.488 109.312C349.315 109.312 346.141 109.312 342.968 109.312C342.794 109.188 342.72 109.064 342.794 108.965C342.869 108.865 342.918 108.791 342.993 108.791H343.042C346.191 108.791 349.339 108.791 352.488 108.791V108.791Z" fill="#AC9EA5"/>
<path d="M469.43 157.617C470.273 159.403 470.323 160.321 469.604 161.561C468.687 160.371 468.984 159.453 469.43 157.617Z" fill="#D49876"/>
<path d="M321.573 158.113C323.755 158.708 322.416 160.47 322.788 161.686C321.994 161.09 321.821 160.147 321.548 159.279C321.251 158.882 321.275 158.485 321.573 158.113V158.113Z" fill="#E0D2C5"/>
<path d="M342.968 108.791C342.968 108.965 342.968 109.138 342.968 109.312C340.985 109.312 339.026 109.312 337.043 109.312C337.043 109.138 337.043 108.989 337.043 108.816H338.258C339.844 108.816 341.406 108.816 342.993 108.816L342.968 108.791Z" fill="#8D9DBA"/>
<path d="M390.568 107.575L395.973 107.65C396.121 107.749 396.171 107.823 396.121 107.923C396.072 108.022 396.047 108.072 395.997 108.072L395.799 108.22C394.039 108.171 392.279 108.121 390.519 108.072C390.519 107.898 390.543 107.724 390.568 107.551V107.575Z" fill="#9D9CB6"/>
<path d="M385.758 166.995C385.758 167.962 385.808 168.955 385.833 169.922C383.502 169.004 384.568 167.987 385.758 166.995Z" fill="#D0A37E"/>
<path d="M470.745 186.967C471.24 187.041 471.265 187.438 471.265 187.786C471.265 188.158 471.216 188.604 470.72 188.604C470.224 188.604 470.199 188.158 470.199 187.786C470.199 187.413 470.224 187.016 470.745 186.967Z" fill="#D79775"/>
<path d="M413.947 144.145C413.996 144.865 413.575 144.964 413.228 144.914C412.905 144.889 412.41 144.716 412.335 144.492C412.162 143.971 412.682 143.897 413.029 143.897C413.352 143.897 413.674 144.071 413.947 144.145Z" fill="#CC9B79"/>
<path d="M352.513 194.31C352.513 194.137 352.513 193.988 352.513 193.814C353.703 193.814 354.893 193.814 356.083 193.814C356.083 193.963 356.083 194.137 356.083 194.286C354.893 194.286 353.703 194.286 352.513 194.286V194.31Z" fill="#8E9EB5"/>
<path d="M321.573 158.113C321.573 158.51 321.573 158.882 321.548 159.279H320.458C320.458 158.436 320.234 157.567 320.953 156.873C321.474 157.121 321.201 157.791 321.598 158.113H321.573Z" fill="#CEA17F"/>
<path d="M418.434 149.777C417.591 149.777 416.773 149.727 416.674 148.611C417.566 148.561 418.137 148.983 418.434 149.777Z" fill="#E3D0C4"/>
<path d="M158.146 167.565C158.617 168.583 158.989 169.625 158.419 170.989C157.204 170.146 157.775 169.004 157.576 168.111L158.146 167.565V167.565Z" fill="#F0CBBC"/>
<path d="M164.617 161.586C165.014 161.735 165.807 161.735 165.485 162.356C165.063 163.174 164.121 162.703 163.402 162.752C163.625 162.182 164.022 161.785 164.617 161.586V161.586Z" fill="#F0CAC1"/>
<path d="M203.762 147.346C205.622 144.592 208.77 144.418 211.522 143.996C218.166 142.954 224.166 144.468 228.727 149.827C229.694 150.348 229.645 151.365 229.942 152.233C230.512 156.575 230.413 160.817 227.686 164.564C227.24 165.134 227.141 165.978 226.422 166.35L222.901 169.848C220.273 172.627 217.224 174.488 213.282 174.612L207.481 174.711C205.349 173.148 205.027 170.642 204.283 168.359C202.151 162.48 202.423 156.352 202.523 150.248C202.523 149.082 203.018 148.164 203.762 147.346V147.346Z" fill="#4079BD"/>
<path d="M182.641 184.262C183.583 183.419 183.707 182.178 184.153 181.087C184.797 179.499 186.037 179.102 187.524 179.499C189.086 179.921 189.235 181.236 189.012 182.6C188.07 188.083 181.624 193.616 176.021 193.765C167.642 194.013 162.956 191.308 159.857 184.511C157.651 179.623 158.865 172.106 162.534 168.558C163.501 167.615 164.766 167.144 166.005 168.111C167.369 169.153 167.369 170.394 166.402 171.734C163.873 175.232 162.782 178.928 164.89 183.047C166.377 183.841 167.394 185.23 168.633 186.322C171.583 188.927 175.054 188.406 178.5 187.835C179.74 187.661 180.583 186.843 181.401 185.999C181.922 185.503 181.971 184.659 182.665 184.262H182.641Z" fill="#E66C77"/>
<path d="M205.101 168.781C205.895 170.766 206.713 172.751 207.506 174.736C202.845 175.951 195.358 172.304 193.201 168.111C190.896 163.621 191.788 157.096 195.928 152.531C197.54 150.745 199.151 148.785 201.581 147.966C204.06 148.437 202.721 150.447 203.068 151.762C202.349 153.474 202.077 155.185 202.994 156.922C202.374 160.023 203.763 163.075 203.168 166.201C202.92 167.442 204.903 167.541 205.126 168.756L205.101 168.781Z" fill="#F3F0EE"/>
<path d="M213.877 130.004C219.48 130.004 224.215 130.723 228.455 133.452C229.273 133.973 230.041 134.643 230.636 135.412C231.504 136.553 231.554 137.819 230.513 138.91C229.57 139.903 228.331 140.051 227.265 139.332C217.646 132.981 208.051 135.338 198.457 139.307C196.474 140.126 194.242 141.937 192.804 139.258C191.292 136.429 193.945 135.288 196.002 134.296C201.878 131.467 208.051 129.929 213.902 129.979L213.877 130.004Z" fill="#050303"/>
<path d="M178.475 187.81C174.979 189.869 169.971 189.249 167.244 186.297C166.327 185.304 165.658 184.114 164.864 183.022C166.897 183.121 168.608 183.841 169.55 185.726C170.12 186.868 171.434 186.57 172.203 187.389C172.649 187.86 173.293 187.339 173.244 186.57C173.194 185.776 173.12 185.007 173.046 184.238C174.632 184.808 175.698 182.724 177.384 183.27C175.475 186.917 175.5 186.992 178.45 187.835L178.475 187.81Z" fill="#EECDBB"/>
<path d="M202.696 152.159C202.796 150.645 203.068 149.057 201.556 147.966C202.126 147.172 202.994 147.395 203.762 147.37C202.647 154.615 203.217 161.735 205.101 168.781C203.738 168.062 202.448 167.193 200.192 167.714C203.291 165.209 203.291 161.512 200.515 159.701C202.052 159.279 203.242 158.609 202.696 156.897C201.953 155.31 201.928 153.747 202.696 152.184V152.159Z" fill="#F0EDF1"/>
<path d="M194.491 228.275C194.416 227.283 194.714 226.464 195.185 225.521C196.697 222.643 195.681 221.105 192.532 221.031C191.094 221.006 189.631 220.882 188.194 220.832C186.756 220.783 186.756 219.765 186.706 218.773C188.838 219.294 191.02 219.17 193.177 219.269C197.416 219.492 198.259 220.857 196.598 224.777C196.077 226.017 195.681 227.407 194.466 228.25L194.491 228.275Z" fill="#BE9579"/>
<path d="M213.307 174.612C216.505 173.024 219.703 171.436 222.926 169.848C222.728 172.155 220.224 172.825 219.406 174.711C218.836 175.53 217.621 175.083 217.026 175.902C215.985 178.11 214.224 176.745 212.96 176.944C211.423 175.678 216.357 176.175 213.307 174.636V174.612Z" fill="#E5CFBB"/>
<path d="M231.38 143.922C232.298 144.021 235.149 149.479 234.678 150.273C234.331 150.869 233.364 151.092 233.24 150.769C232.521 148.71 229.893 147.743 230.116 145.187C230.19 144.393 230.513 143.897 231.38 143.922V143.922Z" fill="#ECCEBE"/>
<path d="M150.485 200.86H149.295C148.7 200.066 149.543 199.272 149.295 198.479C149.047 196.643 149.841 195.849 151.675 196.097C152.518 197.685 152.617 199.272 151.675 200.86H150.485V200.86Z" fill="#E8D1B9"/>
<path d="M188.491 235.892C190.053 234.304 191.615 232.716 193.177 231.128C193.747 231.501 194.02 232.096 193.648 232.617C192.408 234.428 190.946 235.966 188.491 235.892V235.892Z" fill="#EBCDB9"/>
<path d="M151.676 200.86C151.676 199.273 151.676 197.685 151.676 196.097C152.494 196.196 152.94 196.717 152.841 197.486C152.618 199.074 153.684 199.645 155.246 200.116C153.957 201.208 152.742 200.687 151.701 200.86H151.676Z" fill="#EBCDBE"/>
<path d="M173.046 184.213C171.93 184.014 172.079 185.577 171.087 185.677C170.071 184.089 171.087 183.121 172.129 182.228C172.6 181.831 173.368 181.657 173.715 182.178C174.261 182.972 172.872 183.394 173.046 184.213Z" fill="#EECDBB"/>
<path d="M146.866 193.517C146.792 194.038 146.618 194.708 146.321 194.459C145.403 193.715 143.693 194.162 143.445 192.524C143.395 192.177 143.693 191.482 143.941 191.73C144.808 192.524 146.494 192.127 146.866 193.492V193.517Z" fill="#E8D1B7"/>
<path d="M167.592 196.767C168.881 195.898 170.17 196.097 172.054 196.32C170.22 197.784 168.881 197.114 167.592 196.767Z" fill="#E6D1BB"/>
<path d="M139.775 185.404C139.85 185.677 139.874 186.024 140.048 186.223C140.593 186.892 141.436 187.612 140.593 188.431C140.073 188.952 139.577 188.133 139.23 187.761C138.387 186.793 138.164 185.85 139.775 185.404Z" fill="#EECDBE"/>
<path d="M217.795 179.97C216.877 180.764 215.985 180.814 214.869 180.144C215.91 179.077 216.877 179.499 217.795 179.97Z" fill="#EFCCBF"/>
<path d="M229.942 152.258C228.455 151.985 229.099 150.67 228.728 149.851C229.893 149.777 230.513 150.596 230.884 151.464C231.132 152.059 230.339 152.084 229.918 152.258H229.942Z" fill="#DECCC7"/>
<path d="M216.208 211.429C214.894 213.116 213.828 212.868 212.315 212.223C213.605 211.206 214.795 211.727 216.208 211.429Z" fill="#EECDC0"/>
<path d="M215.563 211.653C216.778 209.817 217.894 210.511 219.728 210.611C218.092 211.901 216.902 211.404 215.563 211.653Z" fill="#EECDC0"/>
<path d="M229.869 207.609C228.654 206.319 228.926 205.574 229.249 204.607C230.563 205.351 229.918 206.219 229.869 207.609Z" fill="#E6D2B8"/>
<path d="M139.775 185.404C139.85 184.932 139.949 184.436 140.519 184.312C141.015 184.213 141.709 183.667 141.982 184.411C142.23 185.081 141.56 185.354 140.916 185.379C140.544 185.379 140.147 185.379 139.775 185.379V185.404Z" fill="#EECDBE"/>
<path d="M158.791 207.981C159.014 206.442 160.229 206.889 161.171 206.79C160.948 208.328 159.733 207.881 158.791 207.981Z" fill="#E5D1BB"/>
<path d="M217.026 175.902C217.249 174.363 218.464 174.835 219.406 174.711C219.208 176.274 217.968 175.802 217.026 175.902Z" fill="#F2CAC0"/>
<path d="M225.034 144.641C224.315 144.691 224.216 144.269 224.241 143.922C224.265 143.599 224.439 143.103 224.662 143.029C225.183 142.855 225.257 143.376 225.257 143.723C225.257 144.046 225.084 144.368 225.009 144.641H225.034Z" fill="#E4D0BA"/>
<path d="M167.121 180.715C166.997 180.888 166.873 181.335 166.625 181.434C166.104 181.608 166.005 181.087 166.03 180.739C166.03 180.417 166.228 179.921 166.451 179.846C166.972 179.673 166.972 180.194 167.121 180.715Z" fill="#E1D3BB"/>
<path d="M186.086 237.678C186.879 237.083 187.673 236.487 188.491 235.892C188.664 237.802 187.375 237.753 186.086 237.678Z" fill="#EBCDB9"/>
<path d="M226.422 166.35C226.496 165.506 227.017 164.985 227.686 164.563C227.736 165.506 227.637 166.325 226.422 166.35Z" fill="#C0BFD0"/>
<path d="M182.64 184.262C182.541 185.081 182.12 185.652 181.376 185.999C181.376 185.106 181.45 184.287 182.64 184.262Z" fill="#F1B5AE"/>
<path d="M372.693 243.608C372.693 243.211 371.479 242.516 372.619 242.491C378.296 242.367 383.949 242.466 389.626 242.491C390.172 242.491 390.395 243.012 390.519 243.508C384.569 243.508 378.643 243.558 372.693 243.583V243.608Z" fill="#203666"/>
<path d="M444.044 281.071C445.506 281.815 445.506 283.229 445.06 284.345C444.54 285.636 444.192 284.594 443.994 283.973C443.994 283.006 444.044 282.063 444.069 281.095L444.044 281.071Z" fill="#223769"/>
<path d="M344.133 256.757C342.72 255.392 343.018 253.631 343.043 251.944C344.481 253.308 344.158 255.045 344.133 256.757Z" fill="#162136"/>
<path d="M378.097 220.51C378.916 221.378 380.031 220.857 380.998 221.105C381.196 221.279 381.444 221.428 381.692 221.527C382.857 221.825 384.171 221.304 385.237 222.122L404.798 222.296C405.046 222.966 404.996 223.462 404.104 223.412C402.839 223.338 401.55 223.338 400.286 223.189C393.939 222.47 387.692 222.643 381.618 224.802C380.824 225.099 380.304 225.968 379.734 224.43C379.039 222.594 378.296 225.149 377.453 224.603C376.659 225.248 375.866 225.224 375.073 224.603L373.883 222.222C374.106 221.676 374.403 221.304 375.073 221.626C375.122 221.701 375.172 221.8 375.246 221.849C376.089 222.321 376.536 223.909 377.775 223.115C379.188 222.222 377.056 221.378 377.478 220.41L378.097 220.51Z" fill="#203767"/>
<path d="M375.197 205.723C376.189 207.584 375.445 209.593 375.718 211.529C375.544 211.752 375.371 212 375.197 212.223C375.197 210.065 375.197 207.906 375.197 205.748V205.723Z" fill="#513F41"/>
<path d="M375.073 224.628H377.453C376.66 226.29 375.867 226.29 375.073 224.628Z" fill="#133B60"/>
<path d="M375.074 221.651L373.884 222.246C373.437 222.147 372.694 221.974 373.09 221.453C373.636 220.758 374.454 220.981 375.049 221.651H375.074Z" fill="#23366A"/>
<path d="M395.997 108.096C395.948 107.948 395.948 107.824 395.972 107.675C396.146 107.65 396.295 107.6 396.468 107.575C402.79 107.575 409.112 107.575 415.409 107.575C415.508 107.575 415.632 107.575 415.682 107.65C415.781 107.749 415.855 107.898 415.954 108.022C413.822 108.096 411.665 108.171 409.533 108.22C405.021 108.171 400.509 108.146 395.972 108.096H395.997Z" fill="#CCD3E8"/>
<path d="M429.02 112.016H437.597V112.612H429.02V112.016Z" fill="#DDD6CA"/>
<path d="M337.762 247.354C336.82 245.89 337.092 244.972 337.464 243.26C338.456 244.997 338.307 245.915 337.762 247.354Z" fill="#213769"/>
<path d="M379.833 198.479C379.685 198.9 379.238 199.719 379.04 199.173C378.519 197.734 377.776 195.998 379.833 194.906C380.627 196.097 380.627 197.263 379.833 198.454V198.479Z" fill="#AC814E"/>
<path d="M379.833 198.478C379.833 197.288 379.833 196.097 379.833 194.931C381.668 196.122 381.668 197.288 379.833 198.478Z" fill="#B47A5B"/>
<path d="M381.097 221.576C381.072 221.428 381.023 221.279 380.998 221.13C382.337 221.13 383.7 221.18 385.039 221.204C385.089 221.204 385.163 221.353 385.163 221.428C385.163 221.502 385.064 221.576 385.014 221.676C383.7 222.048 382.411 222.246 381.122 221.576H381.097Z" fill="#A4949C"/>
<path d="M381.098 221.576C382.387 221.601 383.701 221.651 384.99 221.676C385.089 221.825 385.188 221.973 385.213 222.147C383.825 222.097 382.312 222.867 381.098 221.576Z" fill="#402E34"/>
<path d="M175.351 235.396C175.822 234.502 173.938 233.981 174.93 233.188C175.624 232.617 176.367 233.188 176.888 233.857C177.111 234.13 177.458 234.577 177.384 234.775C176.987 235.693 176.045 235.148 175.376 235.42L175.351 235.396Z" fill="#C39171"/>
<path d="M323.879 146.204C325.044 141.614 326.581 137.248 330.597 134.295C331.762 133.402 332.878 132.46 334.266 131.864C336.795 130.624 339.497 129.954 342.299 129.879C343.985 129.681 345.794 130.574 347.381 129.358C350.629 127.82 353.777 129.036 356.926 129.73C357.794 130.202 358.835 130.202 359.678 130.723C364.487 133.08 367.438 137.049 369.247 141.986C369.371 142.557 369.049 142.83 368.553 143.004C368.256 143.053 367.933 143.028 367.636 142.929C362.826 139.729 357.645 137.694 351.794 137.57C346.836 137.471 341.902 137.595 337.291 139.828C336.944 140.002 336.547 140.126 336.2 140.299C332.407 142.433 328.713 144.815 328.539 149.702C328.366 154.565 331.787 157.592 335.432 159.701C341.382 163.149 347.927 163.67 354.546 161.462C358.042 162.703 360.893 160.544 363.992 159.701C365.008 159.701 365.925 158.559 367.016 159.477C367.314 159.874 367.438 160.346 367.512 160.842C367.611 162.033 367.19 163.124 366.793 164.241C361.686 173.296 348.844 177.365 338.531 173.148C331.886 170.443 327.176 165.829 325.044 158.857C325.242 157.815 324.845 157.021 324.027 156.376L323.854 155.781C321.97 152.605 323.085 149.429 323.854 146.279L323.879 146.204Z" fill="#D3996D"/>
<path d="M351.818 136.702C357.793 137.025 363.445 138.24 367.933 142.607C368.924 143.674 369.371 145.088 370.288 146.204C371.007 148.09 370.932 150.075 370.858 152.059C370.957 153.523 370.288 154.764 369.718 156.029C368.627 158.435 366.148 159.081 364.189 160.371C362.107 161.14 360.074 162.033 357.942 162.579C356.925 162.852 355.438 163.695 354.719 161.884C354.099 161.09 354.297 160.197 354.496 159.329C355.983 152.63 354.843 146.254 352.314 140.027C351.892 138.96 351.124 137.918 351.818 136.677V136.702Z" fill="#F1EFED"/>
<path d="M357.173 130.252C353.802 130.004 350.43 129.21 347.033 130.103C345.521 130.996 343.786 129.979 342.273 130.723C339.422 130.723 336.869 131.963 334.167 132.584C333.472 132.881 332.853 133.055 332.902 131.939C340.935 125.984 349.463 125.513 358.388 129.706C358.388 130.822 357.743 130.425 357.173 130.276V130.252Z" fill="#120E0D"/>
<path d="M323.878 146.204C323.407 149.38 323.184 152.556 323.878 155.707C323.11 155.31 322.341 154.913 321.598 154.516C322.862 151.886 321.994 148.661 323.878 146.204Z" fill="#E0D2C5"/>
<path d="M364.215 160.395C365.727 158.684 368.008 157.79 369.198 155.731C369.917 155.334 370.438 155.309 370.438 156.351C370.388 157.666 370.264 158.956 369.173 159.899C368.429 159.477 367.487 159.899 366.793 159.279C365.925 159.626 365.33 160.594 364.215 160.371V160.395Z" fill="#D09E78"/>
<path d="M366.842 164.191L366.768 160.47C367.536 159.85 368.305 159.8 369.073 160.47C368.8 162.008 367.958 163.174 366.842 164.216V164.191Z" fill="#D09E78"/>
<path d="M370.412 156.351C370.115 155.905 369.693 155.731 369.173 155.731C369.743 154.515 370.313 153.3 370.883 152.059C371.925 153.622 370.958 154.962 370.412 156.351Z" fill="#CFB39C"/>
<path d="M324.076 156.302C324.77 157.245 325.638 155.21 326.208 156.401C326.729 157.517 325.589 158.038 325.093 158.783C324.448 158.088 324.052 157.294 324.076 156.302V156.302Z" fill="#D19E79"/>
<path d="M369.073 160.445H366.768V159.304C367.561 159.552 369.123 156.798 369.172 159.924C369.172 160.123 369.172 160.296 369.073 160.47V160.445Z" fill="#D89964"/>
<path d="M370.313 146.204C368.553 145.659 367.784 144.443 367.958 142.607C368.131 142.607 368.305 142.657 368.478 142.681C369.792 142.905 369.668 144.244 370.313 144.989V146.18V146.204Z" fill="#F5E6E0"/>
<path d="M332.878 131.939C333.15 132.46 333.671 132.485 334.142 132.584C332.952 133.154 331.787 133.725 330.597 134.296C331.043 133.229 331.811 132.435 332.878 131.939V131.939Z" fill="#433125"/>
<path d="M370.313 145.014C369.297 144.567 369.024 143.525 368.479 142.706C368.726 142.458 368.999 142.21 369.247 141.962C370.387 142.706 370.363 143.847 370.313 145.014Z" fill="#CFB198"/>
<path d="M321.572 158.088C321.349 157.691 321.151 157.269 320.928 156.848C320.779 156.054 320.63 155.285 320.481 154.491H321.597V158.088H321.572Z" fill="#E0D2C5"/>
<path d="M357.174 130.252L358.389 129.681C358.984 129.83 359.529 130.053 359.727 130.698C358.835 130.847 357.967 130.773 357.199 130.227L357.174 130.252Z" fill="#675445"/>
<path d="M414.294 153.325C413.922 154.937 412.608 155.21 411.021 155.954C411.468 153.598 412.732 153.25 414.294 153.325Z" fill="#DED4CB"/>
<path d="M208.671 169.451C206.712 166.027 207.332 162.082 206.44 158.46C206.316 157.939 206.539 157.393 207.06 157.294C207.778 157.145 208.026 157.79 208.175 158.361C208.845 161.165 209.861 163.918 209.935 166.846C210.084 167.069 210.109 167.317 210.035 167.59C209.638 168.26 209.415 169.054 208.646 169.451H208.671Z" fill="#E5E9ED"/>
<path d="M206.688 151.067C207.556 151.067 207.531 151.737 207.531 152.307C207.531 152.952 207.705 153.796 206.713 153.87C205.944 153.92 205.771 153.349 205.746 152.729C205.746 151.985 205.92 151.389 206.688 151.092V151.067Z" fill="#F6F0EF"/>
<path d="M208.672 169.451C208.721 168.608 208.647 167.665 209.862 167.59C210.308 168.359 210.333 169.104 209.837 169.848C209.366 169.947 208.895 170.022 208.672 169.451Z" fill="#F9F1F4"/>
<path d="M209.861 169.848C209.861 169.104 209.861 168.335 209.886 167.59L209.96 166.871C210.655 167.888 210.927 168.905 209.861 169.873V169.848Z" fill="#CEEAF8"/>
<path d="M202.697 152.159C202.697 153.722 202.697 155.31 202.697 156.873C200.986 155.285 200.986 153.722 202.697 152.159Z" fill="#F5EEF3"/>
<path d="M351.819 136.702C355.711 144.765 357.769 153.027 354.744 161.884C354.124 162.331 353.976 163.249 352.984 163.323C345.794 163.77 338.729 163.844 332.729 158.857C325.366 152.729 325.911 145.336 334.167 140.399C339.596 137.124 345.571 136.132 351.819 136.702V136.702Z" fill="#040404"/>
<path d="M342.249 130.723C343.761 129.979 345.398 130.128 347.009 130.103C345.596 131.616 343.811 130.376 342.249 130.723Z" fill="#C69B83"/>
<path d="M353.108 153.722C353.232 155.409 353.058 157.071 352.637 158.708C352.364 159.726 351.794 160.346 350.778 160.172C349.687 159.998 349.315 159.105 349.612 158.163C350.331 155.83 350.009 153.449 350.009 151.092C350.009 150 350.009 148.685 351.496 148.66C352.934 148.66 353.083 149.901 353.108 151.042C353.108 151.935 353.108 152.828 353.108 153.722Z" fill="#F0ECEA"/>
<path d="M348.075 142.582C348.025 141.441 348.521 140.498 349.686 140.572C351.446 140.697 351.546 142.408 351.818 143.649C352.091 144.84 351.397 145.832 350.033 145.708C348.124 145.534 348.521 143.748 348.075 142.557V142.582Z" fill="#EBE7E6"/>
</g>
<defs>
<clipPath id="clip0_5118_43108">
<rect width="595" height="287" fill="white"/>
</clipPath>
</defs>
</svg>
