<svg width="595" height="297" viewBox="0 0 595 297" fill="none" xmlns="http://www.w3.org/2000/svg">
<g clip-path="url(#clip0_5484_43213)">
<rect width="595" height="297" fill="#4786FF"/>
<g clip-path="url(#clip1_5484_43213)">
<path d="M74.4941 298C79.1806 286.099 86.9571 276.361 96.1241 267.705C114.535 250.317 136.68 240.605 161.581 236.844C162.997 236.638 164.413 236.432 165.855 236.226C165.984 236.329 166.087 236.432 166.216 236.535C166.705 237.205 167.065 238.003 167.065 238.802C166.988 242.537 169.434 244.263 172.421 245.448C176.928 247.226 181.485 248.643 186.429 247.432C188.927 246.994 191.373 246.221 193.871 245.757C196.652 245.242 197.991 243.825 197.734 240.94C197.631 239.832 197.656 238.699 198.094 237.617C198.403 236.87 198.892 236.432 199.742 236.87C217.664 239.832 234.427 245.809 249.568 255.959C264.169 265.748 275.833 278.164 283.97 293.801C284.666 295.115 285.696 296.351 285.593 298H74.4941V298Z" fill="#101926"/>
<path d="M340.363 222.753C340.311 218.76 343.556 219.275 345.873 219.069C348.706 218.812 348.886 221.259 349.272 223.294C350.251 224.582 350.457 226.102 350.663 227.647C351.615 234.345 352.491 241.069 353.572 247.767C354.139 251.296 354.834 251.811 358.388 252.043C365.134 252.481 371.932 253.099 378.679 253.099C387.176 253.099 395.699 252.79 404.223 252.326C414.78 251.759 425.312 250.755 435.818 249.57C443.697 248.694 442.539 248.977 442.642 242.151C442.693 238.364 442.693 234.551 442.642 230.764C442.616 227.673 442.59 224.608 443.466 221.619C443.491 219.481 444.727 218.76 446.659 218.966C448.873 219.224 451.628 218.786 451.731 222.289C454.409 227.338 453.328 232.774 452.993 238.003C452.504 245.886 452.478 253.795 452.066 261.677C451.5 272.651 450.933 283.6 449.62 294.522C449.465 295.733 449.44 296.995 448.538 298H351.641C350.611 297.021 350.302 295.733 349.967 294.419C345.59 276.953 342.654 259.23 340.414 241.378C339.822 236.612 339.358 231.795 339.59 226.952C339.667 225.509 339.693 224.092 340.363 222.753Z" fill="#101926"/>
<path d="M448.539 298C449.312 288.52 450.084 279.04 450.882 269.56C451.32 264.46 451.037 259.333 451.475 254.207C452.093 247.071 452.041 239.858 452.196 232.697C452.273 229.219 452.376 225.741 451.732 222.289C452.247 223.783 453.509 223.371 454.565 223.371C460.822 223.371 467.079 223.449 473.336 223.371C475.345 223.345 476.169 223.835 476.401 226.05C477.225 233.727 478.435 241.378 479.259 249.055C479.851 254.439 480.134 259.848 480.418 265.232C480.984 276.155 481.679 287.078 481.267 298.026H448.565L448.539 298Z" fill="#1D3864"/>
<path d="M340.363 222.753C340.672 247.844 345.693 272.213 351.41 296.48C351.539 296.97 351.564 297.485 351.616 298H315.823C316.235 289.447 317.497 280.972 318.501 272.471C319.248 266.185 319.943 259.926 320.767 253.666C322.029 244.109 323.651 234.629 326.278 225.303C326.715 223.706 327.54 223.32 329.11 223.242C332.87 223.088 336.655 223.912 340.363 222.753V222.753Z" fill="#1D3864"/>
<path d="M378.679 201.81C362.251 202.17 345.822 202.479 329.394 202.892C323.162 203.046 319.634 198.77 319.866 192.433C320.252 182.283 319.995 172.107 320.072 161.958C320.072 160.824 319.454 159.459 320.767 158.557C321.772 159.51 321.617 160.824 321.823 162.009C325.016 178.986 342.243 188.723 358.8 182.618C374.121 176.976 380.894 157.166 372.164 143.384C371.289 142.019 370.104 140.782 369.847 139.082C370.851 135.218 370.285 134.11 366.602 132.513C363.873 131.354 360.912 130.968 358.079 130.143C355.53 129.602 352.981 129.808 350.431 130.04C345.436 129.963 340.646 131.199 335.908 132.565C335.059 132.771 334.157 132.848 333.333 133.209C332.303 133.621 331.299 134.162 330.269 134.6C328.132 135.502 327.591 137.202 327.797 139.314C323.935 144.312 322.312 150.262 320.742 156.213C319.66 155.646 320.021 154.616 320.021 153.74C319.995 144.003 319.943 134.265 319.995 124.502C319.995 119.375 325.119 114.223 330.243 114.12C349.53 113.682 368.817 113.27 388.078 112.806C391.348 112.729 394.644 112.471 397.914 112.317C399.665 111.776 400 113.218 400.464 114.249C401.056 115.563 401.313 117.005 401.262 118.448C401.004 124.811 402.086 131.122 401.957 137.485C401.88 141.555 402.575 142.174 406.566 142.225C428.016 142.508 449.44 141.195 470.864 141.607C471.044 141.607 471.147 141.607 471.173 141.607C473.104 141.426 475.293 141.684 476.89 140.757C478.872 139.597 477.43 137.176 477.868 135.373C478.023 134.78 478.074 134.162 478.383 133.621C478.641 133.26 478.95 133.157 479.362 133.338C482.812 134.523 486.443 135.27 489.636 137.202C495.816 140.937 499.627 147.635 498.7 153.457C497.567 160.567 492.417 165.307 483.997 166.492C481.628 166.827 481.164 167.599 481.396 169.737C482.271 177.208 481.396 184.653 481.138 192.124C480.984 197.43 479.053 199.079 473.774 199.62C471.225 199.878 468.65 199.903 466.075 199.955C451.088 200.212 436.102 200.547 421.115 200.65C418.18 200.65 417.124 201.655 417.716 204.36C418.386 207.4 418.051 210.491 418.308 213.556C419.235 214.69 419.132 216.055 419.132 217.395C419.184 219.868 419.132 222.315 419.441 224.762C419.828 227.725 418.772 229.374 415.965 230.507C413.648 231.434 411.201 231.924 408.755 232.078C400.438 232.542 392.121 232.929 383.855 231.46C382.361 231.203 380.765 230.971 379.864 229.477C380.276 227.802 381.795 227.854 383.005 227.596C386.636 226.823 390.164 225.716 393.588 224.299C402.421 220.641 408.086 213.763 412.463 205.622C414.008 202.763 413.519 202.17 410.146 202.067C401.004 201.81 391.889 203.123 382.748 202.685C381.331 202.608 379.838 202.866 378.602 201.861L378.679 201.81Z" fill="#D39A6D"/>
<path d="M199.717 236.87C197.94 237.205 198.687 238.596 198.687 239.549C198.687 245.397 198.738 245.422 193.073 246.813C190.807 247.38 188.593 248.204 186.224 248.127C185.014 248.539 183.778 248.308 182.567 248.308C181.924 248.308 180.971 248.694 180.713 247.767C180.507 247.019 181.203 246.453 181.718 245.963C184.576 243.31 187.46 240.682 189.52 237.282C190.112 236.303 190.73 235.376 191.168 234.319C192.713 230.713 191.915 229.322 188.001 229.167C181.924 228.91 175.898 228.266 170.079 226.437C168.019 225.793 167.195 226.256 167.298 228.446C167.375 230.198 167.401 231.949 167.272 233.675C167.195 234.706 167.504 236.045 165.907 236.355V236.2C165.907 232.928 165.83 229.657 165.959 226.385C166.036 224.582 165.366 223.577 163.693 222.907C149.633 217.24 138.277 208.25 129.857 195.601C129.291 194.751 128.904 193.746 127.643 193.721C127.514 192.252 128.827 191.917 129.677 191.325C141.367 183.081 152.414 174.039 162.354 163.761C175.769 149.902 187.589 134.832 195.7 117.16C196.292 115.872 196.73 114.429 198.249 113.811C204.3 114.352 209.759 116.825 215.038 119.53C229.329 126.82 240.84 137.047 247.612 151.885C256.341 171.051 254.925 189.341 242.462 206.549C241.432 207.966 240.247 209.254 238.831 210.285C235.741 211.598 233.939 214.535 231.235 216.416C222.583 222.418 213.184 226.411 202.678 227.725C201.571 227.854 200.464 228.137 199.356 228.291C198.687 228.394 197.914 228.704 198.12 229.348C198.841 231.821 197.631 234.706 199.768 236.87H199.717Z" fill="#ECCFBB"/>
<path d="M197.94 114.223C188.541 135.424 174.43 153.199 157.873 169.196C148.5 178.238 138.251 186.224 127.617 193.746C120.844 198.1 113.892 202.144 106.888 206.137C104.828 207.296 103.901 206.678 103 204.978C97.5148 194.468 93.9098 183.365 93.1116 171.541C91.9271 154.075 95.7638 137.871 106.064 123.445C112.553 114.352 121.076 107.577 130.526 101.858C152.594 90.5489 175.022 91.2702 197.657 99.8227C201.287 101.188 202.42 103.481 201.287 107.113C200.489 109.612 200.129 112.394 197.966 114.274L197.94 114.223Z" fill="#010101"/>
<path d="M379.864 228.987C382.67 231.022 386.121 231.099 389.211 231.228C397.477 231.537 405.82 232.156 414.008 230.198C418.463 229.142 418.849 228.42 418.489 223.964C418.205 220.486 418.386 216.983 418.36 213.505C420.806 213.505 423.278 213.762 425.699 213.428C428.789 213.015 429.896 214.406 430.565 217.163C432.085 223.371 432.188 223.474 438.599 223.268C440.222 223.217 442.822 224.865 443.466 221.568C443.492 230.198 443.518 238.802 443.569 247.432C443.569 248.874 443.131 249.724 441.509 249.879C433.166 250.678 424.797 251.399 416.454 252.378C405.639 253.666 394.747 253.588 383.906 253.949C374.714 254.258 365.469 253.305 356.251 252.816C354.551 252.738 353.161 252.12 352.878 249.982C351.719 241.481 350.457 232.98 349.247 224.479C349.195 224.092 349.273 223.655 349.298 223.242C354.011 223.268 358.723 223.268 363.435 223.345C364.645 223.345 365.444 223.191 365.238 221.722C365.212 221.516 365.263 221.31 365.315 221.104C365.804 218.837 365.572 215.798 366.963 214.535C368.585 213.067 371.649 214.2 374.096 214.072C375.435 214.02 376.748 214.072 378.087 214.072C379.735 216.055 378.988 218.296 378.705 220.434C378.319 223.397 378.19 226.256 379.864 228.91V228.987Z" fill="#1D3864"/>
<path d="M478.872 133.389C478.898 135.836 478.512 138.309 479.104 140.731C479.387 141.967 478.898 142.354 477.662 142.354C463.937 142.431 450.213 142.148 436.514 142.766C426.059 143.255 415.605 142.946 405.15 143.204C401.751 143.281 401.133 142.508 401.03 139.031C400.824 132.075 400.695 125.12 400.309 118.164C400.18 116.078 400.515 113.553 397.966 112.317C401.597 112.317 405.227 112.523 408.832 112.317C419.802 111.673 430.823 112.162 441.767 111.595C450.367 111.158 458.968 111.183 467.568 110.591C474.212 110.153 477.585 113.141 478.589 119.633C479.13 123.162 479.104 126.769 479.336 130.323C478.769 131.277 479.413 132.41 478.872 133.389V133.389Z" fill="#E0D5CD"/>
<path d="M197.94 114.223C198.841 111.621 199.768 109.019 200.618 106.392C201.493 103.661 200.566 101.781 197.991 100.724C184.936 95.3662 171.314 93.4857 157.358 94.5677C149.298 95.2117 141.444 97.3241 134.028 100.75C132.921 101.265 131.685 101.446 130.526 101.781C135.213 98.0711 140.698 96.2164 146.311 94.5419C197.064 79.4976 253.148 116.078 261.671 170.665C263.937 185.245 262.959 199.491 258.839 213.608C258.53 214.69 258.324 215.798 258.143 216.905C257.603 220.203 255.259 221.31 252.324 219.404C248.101 216.673 244.032 213.737 239.861 210.877C239.526 210.645 239.166 210.465 238.805 210.259C239.011 209.795 239.088 209.254 239.397 208.919C257.139 189.238 255.671 161.339 240.35 141.323C229.509 127.155 215.192 118.371 197.94 114.172V114.223Z" fill="#1E2025"/>
<path d="M379.863 228.987C378.061 228.575 377.571 227.39 377.52 225.638C377.443 221.774 378.473 217.987 378.061 214.123C378.267 210.027 378.447 205.931 378.653 201.835C389.416 202.222 400.154 201.037 410.918 201.165C414.986 201.217 415.45 201.835 413.544 205.57C407.776 216.905 399.047 224.685 386.429 227.647C384.241 228.163 382.026 228.549 379.837 228.987H379.863Z" fill="#B17D54"/>
<path d="M335.625 131.817C339.436 130.839 343.144 129.576 347.135 129.344C348.268 129.267 349.35 129.164 350.457 129.422C352.054 129.19 353.624 129.344 355.195 129.628C361.401 130.761 366.705 133.337 370.156 138.927C374.327 144.131 376.799 150.056 376.877 156.677C377.005 169.119 369.383 180.351 356.792 184.163C339.333 189.418 320.896 176.332 320.767 158.531C320.767 157.759 320.767 156.986 320.767 156.187C320.716 149.515 323.445 143.925 327.462 138.824C328.415 135.553 331.454 134.522 333.9 132.848C334.544 132.616 335.265 132.513 335.651 131.817H335.625Z" fill="#E0D5CD"/>
<path d="M478.872 133.389C478.872 132.359 478.434 131.225 479.335 130.323C479.361 131.328 479.387 132.307 479.438 133.312C479.258 133.312 479.078 133.363 478.898 133.389H478.872Z" fill="#E0B99A"/>
<path d="M165.881 236.38C167.117 233.418 166.319 230.327 166.447 227.287C166.525 225.226 166.602 224.221 169.151 225.226C174.61 227.39 180.455 227.802 186.275 228.291C187.408 228.394 188.541 228.24 189.648 228.42C193.021 228.935 193.639 229.992 192.429 233.263C190.395 238.828 186.532 243.027 182.026 246.71C181.64 247.019 181.073 247.148 181.125 247.87C182.773 248.539 184.524 247.689 186.198 248.153C179.657 249.647 173.889 247.586 168.482 244.212C165.546 242.408 166.705 239.008 165.881 236.38V236.38Z" fill="#C09374"/>
<path d="M438.65 172.313C438.599 182.257 433.243 189.496 425.441 191.969C417.484 194.493 409.089 191.737 404.197 184.988C402.729 182.978 401.905 180.789 404.197 179.011C406.386 177.311 408.317 178.29 410.042 180.248C414.729 185.58 419.698 186.765 425.029 183.983C430.282 181.227 432.522 174.993 430.179 169.531C429.741 168.501 429.123 167.548 428.634 166.517C427.758 164.688 427.578 162.782 429.458 161.571C431.466 160.283 433.475 160.773 434.891 162.679C437.414 166.054 438.599 169.943 438.625 172.313H438.65Z" fill="#784820"/>
<path d="M391.065 177.801C389.957 177.801 388.979 177.543 388.696 176.281C388.413 174.915 388.49 173.627 389.88 172.777C392.327 171.283 394.747 169.763 397.193 168.243C403.837 164.173 410.454 160.103 417.098 156.033C417.278 155.93 417.458 155.827 417.613 155.698C419.312 154.59 421.167 154.023 422.454 156.007C423.819 158.094 422.274 159.407 420.626 160.464C416.789 162.834 412.926 165.178 409.115 167.548C404.506 170.407 399.897 173.318 395.288 176.152C394 176.95 392.713 177.904 391.065 177.801V177.801Z" fill="#E0D5CD"/>
<path d="M481.422 143.848C484.615 143.693 488.889 147.429 489.173 150.597C489.404 153.328 485.902 156.96 482.735 157.449C481.499 157.63 480.727 157.578 480.649 156.11C480.443 152.632 480.237 149.18 480.031 145.703C479.98 144.724 480.083 143.796 481.448 143.822L481.422 143.848Z" fill="#B17D54"/>
<path d="M370.156 138.928C365.959 134.78 361.401 131.302 355.401 130.169C356.071 128.443 357.358 129.654 358.363 129.551C362.122 130.349 365.959 130.942 369.281 133.054C371.959 134.729 372.19 136.48 370.13 138.953L370.156 138.928Z" fill="#151311"/>
<path d="M334.286 133.157C331.814 134.806 329.497 136.661 327.437 138.824C326.149 136.918 327.179 135.553 328.724 134.625C330.063 133.801 331.608 133.312 333.076 132.668C333.668 132.384 334.235 132.152 334.286 133.157Z" fill="#251E1A"/>
<path d="M358.362 129.525C357.384 129.808 356.199 129.035 355.401 130.143C353.753 129.911 352.105 129.654 350.457 129.422C353.109 128.778 355.736 128.623 358.362 129.525Z" fill="#A98E79"/>
<path d="M334.286 133.157C333.874 133.002 333.462 132.822 333.076 132.668C333.771 131.921 334.75 132.024 335.625 131.792C335.831 132.874 334.879 132.822 334.286 133.157Z" fill="#483F39"/>
<path d="M199.64 153.019C205.768 149.412 212.257 148.794 218.849 151.267C226.574 154.178 229.587 162.267 225.493 169.48C220.729 177.929 213.261 182.154 203.476 182.102C201.957 181.304 201.648 179.732 201.081 178.341C198.249 171.283 197.94 163.89 198.378 156.393C198.455 155.131 198.944 154.023 199.64 153.019V153.019Z" fill="#4178BC"/>
<path d="M199.64 153.019C198.12 163.091 199.279 172.803 203.476 182.102C198.017 183.931 187.64 178.444 187.408 170.768C187.177 163.22 191.966 156.11 199.64 153.019V153.019Z" fill="#F3F1EE"/>
<path d="M168.842 201.887C162.095 202.093 157.512 199.027 154.628 193.515C151.589 187.718 152.207 182.051 155.89 176.693C156.971 175.121 158.387 173.911 160.216 175.173C162.07 176.461 161.323 178.084 160.267 179.707C156.92 184.807 157.512 190.449 161.632 194.159C165.52 197.662 171.159 197.791 175.511 194.519C177.314 193.18 178.292 191.325 178.987 189.238C179.554 187.59 180.507 186.147 182.567 186.817C184.833 187.564 184.652 189.419 184.009 191.145C181.82 197.173 176.052 202.531 168.79 201.913L168.842 201.887Z" fill="#E56C77"/>
<path d="M210.274 135.604C216.274 135.656 221.707 136.429 226.342 140.01C227.939 141.246 228.969 142.792 227.501 144.75C226.574 145.986 225.158 146.115 223.896 145.291C213.879 138.773 203.914 141.246 193.949 145.368C193.382 145.6 192.867 145.986 192.327 146.218C190.679 146.913 188.979 147.042 188.104 145.187C187.254 143.436 188.078 142.019 189.726 141.092C196.215 137.485 203.219 135.708 210.274 135.63V135.604Z" fill="#030302"/>
<path d="M361.555 136.351C366.937 139.159 370.284 143.642 372.061 149.361C371.417 149.721 370.825 149.464 370.233 149.206C365.16 145.728 359.675 143.358 353.392 143.358C346.26 142.998 339.462 143.899 333.591 148.459C328.003 152.787 327.642 157.965 332.355 163.194C336.037 167.264 340.698 169.119 345.976 169.402C349.401 169.583 352.98 170.227 356.199 168.295C362.173 169.609 366.319 166.466 370.181 162.602C370.954 161.829 371.237 160.592 372.422 160.18C372.731 160.18 373.014 160.257 373.22 160.489C372.396 171.18 362.353 181.098 351.358 182.025C336.063 183.339 323.291 171.412 323.934 156.213C324.218 149.67 326.715 143.899 331.762 139.468C333.101 138.902 334.26 137.974 335.599 137.382C343.144 134.883 350.792 133.337 358.748 135.244C359.675 135.656 360.68 135.862 361.581 136.351H361.555Z" fill="#D39A6D"/>
<path d="M353.392 142.56C359.83 142.766 365.675 144.569 370.619 148.845C371.211 149.541 372.267 149.979 372.009 151.19C372.782 152.993 373.4 154.822 373.271 156.831C373.863 158.197 373.477 159.356 372.576 160.438C369.821 165.59 365.211 168.166 359.804 169.454C358.722 169.712 357.177 170.691 356.431 168.758C355.89 168.011 356.044 167.187 356.25 166.414C357.95 159.253 356.662 152.426 353.907 145.78C353.495 144.775 352.748 143.796 353.392 142.611V142.56Z" fill="#F2EFED"/>
<path d="M358.98 135.888C350.792 134.574 342.835 135.836 335.033 138.309C334.338 138.618 333.694 138.824 333.719 137.639C342.062 131.431 350.92 130.967 360.19 135.295C360.242 136.429 359.547 136.042 358.98 135.888Z" fill="#100F0E"/>
<path d="M333.719 137.614C333.977 138.181 334.517 138.181 335.032 138.284C334.002 138.85 333.127 139.881 331.736 139.443C332.2 138.618 332.818 137.974 333.719 137.614Z" fill="#413127"/>
<path d="M372.01 151.164C371.546 150.391 371.083 149.618 370.619 148.82C371.108 149 371.598 149.18 372.061 149.361C372.782 149.979 372.859 150.597 372.01 151.164V151.164Z" fill="#DEB79A"/>
<path d="M372.576 160.412C372.808 159.201 373.04 158.016 373.271 156.805C374.379 158.042 373.786 159.253 373.22 160.463C373.014 160.463 372.808 160.438 372.576 160.412Z" fill="#DFC4B0"/>
<path d="M358.98 135.888C359.392 135.682 359.804 135.501 360.191 135.295C360.783 135.476 361.375 135.656 361.555 136.377C360.654 136.48 359.753 136.48 358.98 135.888V135.888Z" fill="#64554B"/>
<path d="M206.643 175.276C206.489 176.074 206.772 176.796 205.922 177.002C205.072 177.208 204.48 176.796 204.248 176.023C203.167 172.313 202.961 168.475 202.472 164.662C202.446 164.405 202.961 163.838 203.193 163.864C203.708 163.89 204.042 164.328 204.171 164.894C204.995 168.424 205.845 171.953 206.643 175.25V175.276Z" fill="#F6F1EE"/>
<path d="M202.626 160.464C201.828 160.464 201.647 159.923 201.647 159.253C201.647 158.428 201.673 157.527 202.78 157.527C203.604 157.527 203.527 158.325 203.553 158.892C203.553 159.562 203.63 160.361 202.626 160.464Z" fill="#F6F2EE"/>
<path d="M353.393 142.56C355.993 148.073 358.002 153.74 357.925 159.974C357.873 162.988 357.358 165.873 356.431 168.733C355.787 169.171 355.633 170.175 354.629 170.227C347.058 170.69 339.591 170.768 333.333 165.409C326.02 159.15 326.561 151.679 334.775 146.578C340.492 143.049 346.775 141.993 353.367 142.56H353.393Z" fill="#040404"/>
<path d="M354.732 160.103C354.861 161.855 354.732 163.581 354.268 165.281C353.985 166.466 353.393 167.213 352.157 166.904C351.05 166.646 350.792 165.667 351.127 164.688C351.874 162.37 351.513 160.026 351.513 157.656C351.513 156.574 351.333 155.131 352.904 155.028C354.655 154.899 354.655 156.393 354.732 157.63C354.783 158.454 354.732 159.279 354.732 160.103V160.103Z" fill="#F1ECEA"/>
<path d="M349.53 148.768C349.452 147.635 349.864 146.578 351.075 146.63C353.109 146.707 353.109 148.639 353.392 150.005C353.65 151.112 352.877 152.014 351.641 151.962C349.607 151.859 349.942 150.03 349.504 148.768H349.53Z" fill="#ECE7E5"/>
</g>
</g>
<defs>
<clipPath id="clip0_5484_43213">
<rect width="595" height="297" fill="white"/>
</clipPath>
<clipPath id="clip1_5484_43213">
<rect width="618" height="298" fill="white" transform="translate(-12)"/>
</clipPath>
</defs>
</svg>
