<svg width="595" height="297" viewBox="0 0 595 297" fill="none" xmlns="http://www.w3.org/2000/svg">
<g clip-path="url(#clip0_5484_43221)">
<rect width="595" height="297" fill="#4786FF"/>
<path d="M431.184 96.242C433.862 97.6588 436.771 96.6284 439.552 96.9118C440.66 97.0148 441.793 96.9118 442.926 96.9118C443.08 97.0406 443.312 97.1951 443.338 97.3497C443.595 101.884 444.986 105.928 448.333 109.2C449.106 109.947 448.771 111.157 448.745 112.162C448.668 119.658 452.093 123.342 459.56 123.832C463.114 124.064 463.268 124.295 462.238 127.722C461.878 128.907 461.517 130.092 461.311 131.302C460.487 135.733 462.341 138.515 466.796 139.211C468.624 139.494 469.86 140.267 470.581 141.916C472.023 145.213 474.547 146.991 478.126 147.454C479.491 147.635 481.061 147.712 481.834 149.258C481.963 150.803 483.224 150.417 484.177 150.597C492.881 152.478 498.984 163.168 492.314 171.566C490.383 174.014 487.757 175.637 484.744 175.662C482.014 175.688 481.911 176.925 481.834 179.037C481.448 188.671 482.735 198.254 482.452 207.889C481.525 209.1 480.212 209.666 478.796 210.027C474.238 211.186 469.706 212.191 464.942 212.5C449.955 213.479 434.969 213.427 420.034 212.964C401.494 212.397 382.98 210.851 364.62 207.992C363.307 207.786 361.968 207.58 360.912 206.627C359.187 202.814 360.938 199.027 361.195 195.292C361.607 188.723 362.637 182.206 363.384 175.662C363.616 173.55 363.796 171.438 364.002 169.299C364.157 167.728 363.461 167.187 361.89 167.135C360.345 167.084 358.62 167.883 357.281 166.414C358.337 165.538 359.624 165.796 360.835 165.77C368.122 165.59 373.272 161.803 375.59 154.873C377.598 148.82 375.589 142.895 370.105 138.49C369.178 137.743 367.839 137.356 367.71 135.888C368.972 131.457 368.92 126.846 369.564 122.338C370.465 116 371.135 109.663 371.881 103.3C372.01 102.09 372.036 100.853 372.062 99.6424C372.139 95.7525 372.834 94.9797 376.723 94.3615C377.212 94.2842 377.675 94.0008 378.139 93.7947C379.735 93.4083 381.383 93.3568 383.031 93.4598C398.147 94.2584 413.262 95.057 428.403 95.3404C429.433 95.3404 430.463 95.4692 431.287 96.1905L431.184 96.242Z" fill="#FAF5EE"/>
<path d="M216.377 222.006C233.578 228.652 250.805 235.298 268.032 241.919C269.937 242.64 270.967 243.902 271.431 245.886C275.293 261.986 276.4 278.293 275.86 294.78C275.808 296.66 275.293 297.407 273.207 297.356C266.229 297.176 259.225 297.227 252.247 297.201C251.371 296.248 251.655 295.063 251.629 293.955C251.603 288.623 251.577 283.265 251.629 277.932C251.655 275.15 251.552 272.394 251.191 270.925C252.195 278.061 251.371 286.485 251.603 294.883C251.603 295.707 251.629 296.532 250.985 297.201C233.501 297.227 216.017 297.304 198.532 297.304C184.138 297.304 169.744 297.253 155.35 297.201C154.423 296.145 154.732 294.857 154.732 293.646C154.68 284.913 154.757 276.206 154.732 271.518C155.015 275.897 154.629 284.295 154.706 292.719C154.706 294.213 155.169 295.81 154.114 297.201C147.032 297.227 139.951 297.176 132.87 297.356C130.707 297.407 130.398 296.506 130.243 294.754C129.291 283.059 129.625 271.389 131.196 259.797C131.84 255.134 132.844 250.523 133.514 245.86C133.9 243.258 135.342 242.022 137.685 241.172C154.5 235.015 171.289 228.781 188.104 222.547C190.447 221.877 191.297 223.01 191.348 225.2C191.425 228.266 191.322 231.331 191.4 234.397C191.528 238.493 192.455 239.781 196.395 240.476C201.133 241.326 205.923 241.558 210.712 240.605C212.695 240.219 214.523 239.6 214.884 237.205C214.806 233.237 215.141 229.27 214.549 225.329C214.369 224.195 214.446 223.088 215.347 222.212C215.656 221.954 215.991 221.903 216.377 222.006V222.006Z" fill="#020202"/>
<path d="M216.377 222.006C216.171 222.057 215.99 222.109 215.784 222.135C213.518 221.181 214.445 219.146 214.471 217.601C214.471 215.54 214.059 214.87 211.793 214.767C206.978 214.587 202.163 214.329 197.347 213.968C194.798 213.788 194.36 214.123 194.824 216.648C196.549 226.127 203.038 231.408 211.355 235.015C212.9 235.685 214.883 235.659 215.784 237.488C216.196 240.038 214.239 240.657 212.514 241.094C206.695 242.589 200.798 242.202 194.953 241.12C192.352 240.631 190.781 239.111 190.704 236.329C190.601 232.439 190.395 228.575 190.421 224.685C190.421 222.933 189.828 222.238 188.103 222.495C190.215 221.903 191.064 220.743 190.112 218.528C189.803 217.807 189.725 216.854 189.957 216.107C191.039 212.371 188.901 211.289 185.863 210.079C169.151 203.432 157.641 191.582 151.435 174.709C150.92 173.292 150.045 172.648 148.706 172.185C142.036 169.866 137.736 165.409 136.861 158.3C135.831 149.85 139.925 144.002 147.006 139.906C147.624 139.546 148.268 139.134 148.937 138.979C150.045 138.721 150.611 138.026 150.508 137.047C150.379 135.862 149.143 136.661 148.525 136.274C148.654 134.96 149.761 135.012 150.611 134.986C157.074 134.728 163.486 134.007 169.924 133.646C176.567 133.26 183.211 132.693 189.854 132.255C194.283 131.972 194.438 131.534 195.648 127.387C199.588 113.785 208.832 104.769 221.037 98.3801C223.123 97.2981 225.338 97.1436 227.604 98.0194C242.539 103.661 253.92 113.296 261.104 127.67C261.594 128.675 262.237 129.654 262.083 130.864C265.07 138.541 267.027 146.475 266.975 154.719C266.795 178.393 252.864 200.264 230.642 209.486C226.728 211.109 222.763 212.371 218.643 213.144C216.325 213.582 215.501 214.612 215.759 216.854C215.965 218.554 215.372 220.357 216.325 221.98L216.377 222.006Z" fill="#FBD9D2"/>
<path d="M262.108 130.916C256.495 119.452 248.59 110.024 237.44 103.532C233.912 101.471 230.204 99.8486 226.342 98.4832C225.234 98.0968 224.153 97.9423 223.071 98.4575C210.454 104.434 200.901 113.321 196.678 127C194.875 132.848 194.824 132.951 188.515 133.337C175.434 134.136 162.379 135.063 149.298 135.965C149.04 135.965 148.783 136.223 148.525 136.351C146.8 136.815 145.487 136.558 143.916 135.27C132.766 125.944 134.594 112.6 142.886 102.296C153.16 89.5443 166.988 82.7692 182.567 79.1627C193.485 76.6381 204.454 76.2775 215.218 80.2446C215.784 80.4507 216.428 80.6053 216.891 80.9402C222.299 84.8301 228.917 85.4483 234.916 87.6895C251.86 94.0524 264.864 104.511 268.288 123.729C269.936 132.874 269.293 131.019 262.083 130.916H262.108Z" fill="#020202"/>
<path d="M436.848 230.816C448.539 232.748 459.714 236.509 470.941 240.064C472.126 240.451 472.873 242.074 474.469 241.301C476.452 242.486 475.448 244.006 474.804 245.294C471.431 251.914 467.182 257.994 461.852 263.146C453.818 270.9 444.419 276.464 433.656 279.53C426.626 281.539 419.416 282.621 412.051 281.822C402.112 280.921 392.945 277.855 385.142 271.467C374.224 262.502 368.302 250.987 368.122 236.741C368.096 233.701 367.478 230.584 368.869 227.622C369.487 226.385 370.104 225.278 371.881 226.076C373.426 226.772 375.126 226.36 376.748 226.385C384.524 226.411 392.327 226.411 400.103 226.385C402.266 226.385 404.403 226.488 406.515 226.9C408.008 228.626 407.339 230.687 407.442 232.645C407.493 238.982 411.485 243.104 417.819 243.439C422.712 243.696 427.372 243.233 431.776 240.708C434.531 239.137 436.231 237.256 436.025 233.933C435.947 232.851 435.87 231.64 436.874 230.816H436.848Z" fill="#3566AF"/>
<path d="M481.808 149.309C480.34 148.923 478.872 148.382 477.379 148.202C473.491 147.738 471.07 145.471 469.628 142.07C469.087 140.782 468.624 140.19 467.079 140.138C462.315 140.01 459.354 136.042 460.384 131.302C460.847 129.139 461.646 127.026 462.367 124.63C460.667 124.63 459.122 124.759 457.629 124.63C449.672 123.806 447.715 117.366 447.998 112.111C448.101 110.411 447.895 109.303 446.556 108.169C443.054 105.233 442.642 101.214 442.925 96.9892C445.552 93.9495 448.616 91.6567 452.891 92.0174C454.667 92.172 455.646 91.3476 456.83 90.2657C461.028 86.4788 465.663 83.877 471.534 86.4788C472.589 86.9425 473.259 86.3758 474.057 85.9894C479.645 83.2845 487.087 85.062 490.846 90.0338C491.747 91.2446 492.752 91.9401 494.245 92.3523C498.674 93.5888 501.275 96.8862 501.558 101.446C501.635 102.657 501.841 103.429 503 104.125C508.33 107.397 509.386 114.12 505.369 118.886C504.674 119.736 503.695 120.303 504.674 121.694C509.257 128.16 504.622 136.944 496.357 138.078C494.477 138.335 493.627 138.644 493.447 140.86C493.112 144.801 489.172 148.202 485.155 148.794C484.048 148.949 482.941 149.155 481.834 149.361L481.808 149.309Z" fill="#E61B4B"/>
<path d="M368.843 227.647C368.817 234.577 368.482 241.481 370.465 248.308C375.795 266.495 391.812 278.963 410.352 280.766C410.944 280.818 411.51 281.075 412.103 281.23C412.489 286.923 411.073 292.23 408.549 297.279C385.709 297.279 362.894 297.304 340.054 297.356C338.535 297.356 337.685 297.073 338.071 295.372C341.779 279.169 345.41 262.94 353.521 248.179C356.251 243.207 359.392 238.57 363.178 234.371C365.135 232.207 366.937 229.914 368.817 227.673L368.843 227.647Z" fill="#E61B4B"/>
<path d="M408.549 297.253C409.733 291.895 410.918 286.562 412.102 281.204C431.029 282.054 447.251 275.64 460.976 262.837C466.667 257.53 471.096 251.141 474.469 244.057C474.958 243.052 475.319 242.202 474.469 241.275C475.087 241.172 475.731 241.017 476.143 241.636C483.224 252.146 487.421 263.661 488.683 276.284C489.301 282.492 489.816 288.726 489.919 294.96C489.945 296.918 489.352 297.33 487.498 297.33C461.182 297.253 434.891 297.253 408.575 297.227L408.549 297.253Z" fill="#FBB800"/>
<path d="M436.849 230.816C436.797 239.472 435.51 241.378 427.012 243.619C421.708 245.01 416.249 245.319 411.279 242.254C407.931 240.167 405.923 237.231 406.592 233.032C407.751 231.795 409.348 231.769 410.841 231.434C418 229.811 424.102 226.54 428.48 220.46C429.072 219.662 430.051 218.837 429.536 217.755C429.021 216.674 427.785 216.854 426.78 216.802C421.553 216.416 416.377 215.746 411.15 215.282C408.266 215.025 408.163 215.154 407.931 218.193C407.803 219.971 408.833 222.135 406.618 223.423C406.592 221.079 406.464 218.709 406.541 216.364C406.592 214.87 406.155 214.097 404.558 213.943C401.726 213.66 398.919 213.17 396.086 212.912C386.044 212.037 375.976 211.264 365.907 210.362C363.641 210.156 361.427 209.486 360.86 206.704C366.216 207.348 371.598 208.018 376.954 208.662C381.718 209.229 386.456 209.95 391.22 210.362C412.077 212.217 432.986 212.655 453.895 212.165C463.526 211.934 473.233 211.65 482.4 207.966C482.503 210.414 482.606 212.861 482.684 215.308C482.761 218.271 481.036 220.125 478.049 220.254C469.86 220.563 461.8 219.121 453.663 218.554C448.488 218.193 443.312 217.652 438.136 217.266C436.514 217.137 436.797 218.503 436.797 219.456C436.797 223.242 436.797 227.029 436.823 230.816H436.849Z" fill="#FDE0CF"/>
<path d="M367.632 135.939C377.752 142.328 380.173 151.988 373.632 160.515C369.486 165.925 363.77 167.419 357.229 166.492C351.127 164.379 346.723 160.644 345.359 154.049C342.912 142.148 353.882 132.05 365.572 135.347C366.268 135.553 366.937 135.759 367.632 135.939V135.939Z" fill="#E61B4B"/>
<path d="M431.183 96.242C430.385 96.3192 429.561 96.4996 428.763 96.4738C412.514 95.804 396.24 95.1085 379.992 94.4129C379.297 94.3872 378.524 94.619 378.035 93.8462C379.992 89.9563 382.464 86.762 387.305 86.4271C388.567 86.3498 388.979 85.036 389.623 84.1602C394.798 76.9987 401.648 75.8395 408.6 81.1204C409.63 81.919 410.429 81.919 411.278 81.4553C419.853 76.8184 431.518 84.5466 431.132 96.242H431.183Z" fill="#E61B4B"/>
<path d="M406.644 223.397C407.545 221.104 407.082 218.734 407.056 216.39C407.056 214.406 407.828 213.84 409.605 214.097C415.785 214.973 421.991 215.514 428.196 216.029C431.621 216.313 431.853 217.214 429.922 220.022C424.282 228.214 416.12 231.821 406.592 233.031C406.566 230.996 406.515 228.961 406.489 226.926C406.541 225.741 406.592 224.582 406.644 223.397V223.397Z" fill="#BA9375"/>
<path d="M250.984 297.227C250.881 286.949 251.422 276.644 250.778 266.366C252.89 276.593 252.014 286.923 252.246 297.227C251.834 297.227 251.396 297.227 250.984 297.227Z" fill="#4E5523"/>
<path d="M154.088 297.227V266.469C155.865 276.67 155.092 286.974 155.35 297.227C154.938 297.227 154.5 297.227 154.088 297.227Z" fill="#4E5523"/>
<path d="M421.991 164.173C418.695 164.843 415.785 163.349 412.875 162.267C408.498 160.67 404.635 158.145 401.313 154.899C398.069 151.731 397.914 148.433 401.133 145.239C407.004 139.391 414.369 138.928 422.042 139.752C423.458 139.906 424.823 140.422 426.214 140.757C427.759 142.74 426.548 144.904 426.523 146.939C426.471 151.318 425.879 155.646 424.54 159.845C424.025 161.442 423.767 163.271 422.016 164.173H421.991Z" fill="#010101"/>
<path d="M402.678 195.138C396.962 195.447 390.833 194.133 385.529 190.063C378.834 184.936 376.8 177.929 377.649 169.892C377.804 168.346 378.499 166.672 380.456 166.852C382.464 167.033 382.567 168.733 382.567 170.356C382.567 172.185 382.464 174.065 382.748 175.869C384.112 184.086 390.498 189.29 399.717 190.037C409.914 190.861 419.158 187.847 428.093 183.391C428.814 183.03 429.535 182.592 430.308 182.309C431.518 181.871 432.6 182.309 433.295 183.313C434.016 184.37 433.733 185.477 432.831 186.379C432.394 186.791 431.879 187.177 431.364 187.461C422.634 192.072 413.545 195.292 402.652 195.112L402.678 195.138Z" fill="#EB5975"/>
<path d="M421.99 164.173C425.466 156.728 425.647 148.717 426.187 140.731C430.874 142.585 435.406 144.646 439.062 148.227C443.852 152.916 443.955 156.136 438.882 160.386C434.041 164.405 428.247 165.693 421.99 164.173V164.173Z" fill="white"/>
<path d="M426.317 111.647C434.48 111.827 441.406 114.532 446.222 121.488C447.2 122.904 447.715 124.553 448.282 126.15C448.591 126.975 448.745 127.851 447.767 128.237C446.505 128.752 446.402 127.516 446.273 126.872C443.956 115.228 425.184 109.277 414.472 117.005C413.133 117.984 411.871 118.937 410.996 120.38C410.609 120.998 410.12 122.08 409.193 121.282C408.498 120.689 408.833 119.762 409.425 119.092C410.97 117.314 412.566 115.588 414.652 114.429C418.283 112.42 422.171 111.415 426.368 111.647H426.317Z" fill="#040505"/>
<path d="M482.658 168.759C481.911 165.358 483.07 162.267 483.147 159.098C483.199 157.295 484.254 157.346 485.362 158.3C487.113 159.794 487.962 161.752 487.499 164.044C486.984 166.517 485.593 168.295 482.658 168.759V168.759Z" fill="#D3A688"/>
<path d="M215.759 237.539C210.609 235.814 205.639 233.778 201.519 230.043C197.116 226.05 194.361 221.207 193.64 215.282C193.408 213.402 194.155 212.603 196.06 212.886C201.931 213.737 207.854 213.891 213.776 213.943C215.244 213.943 215.115 214.612 215.244 215.566C215.476 217.755 214.548 220.048 215.784 222.16C214.626 223.938 215.784 225.715 215.784 227.493C215.784 230.842 215.784 234.191 215.759 237.539V237.539Z" fill="#C18A7D"/>
<path d="M214.626 133.956C220.883 132.23 226.342 133.827 230.951 138.206C235.638 142.663 237.105 148.227 235.457 154.436C234.118 159.407 227.14 164.663 221.784 164.688C218.308 164.714 214.6 165.59 211.587 162.859C210.712 162.215 210.377 161.262 210.119 160.257C208.034 151.731 208.806 143.513 213.003 135.708C213.39 134.986 213.853 134.316 214.626 133.956V133.956Z" fill="#020202"/>
<path d="M214.625 133.956C213.003 137.974 210.943 141.839 210.196 146.218C209.244 151.911 210.196 157.372 211.561 162.859C207.827 163.04 205.613 160.18 203.012 158.351C197.321 154.333 198.454 147.094 201.364 143.358C204.789 138.979 209.089 135.527 214.625 133.982V133.956Z" fill="#F7F2F1"/>
<path d="M221.553 122.904C216.841 122.904 212.798 123.858 208.987 125.815C207.107 126.768 205.124 127.309 203.94 124.965C202.755 122.647 204.326 121.281 206.206 120.354C214.729 116.181 223.484 115.563 232.471 118.834C232.96 119.015 233.398 119.246 233.861 119.504C235.587 120.431 236.642 121.719 235.741 123.754C234.814 125.867 232.986 125.815 231.312 125.068C228.068 123.626 224.72 122.827 221.579 122.93L221.553 122.904Z" fill="#050405"/>
<path d="M185.657 183.365C175.872 184.215 168.044 172.004 173.735 161.983C174.224 161.107 174.919 160.335 175.615 159.562C176.464 158.634 177.443 158.222 178.55 159.227C179.58 160.18 179.451 161.107 178.602 162.189C176.516 164.869 175.357 167.754 176.258 171.283C177.443 175.92 180.43 178.444 184.988 179.217C189.056 179.913 192.095 178.032 194.592 175.018C194.798 174.786 194.901 174.477 195.056 174.22C195.88 173.009 196.961 172.107 198.378 173.06C199.82 174.039 199.176 175.456 198.455 176.615C195.597 181.124 191.528 183.416 185.631 183.339L185.657 183.365Z" fill="#EE7FAA"/>
<path d="M143.556 155.981C143.401 155.208 143.865 154.126 144.328 153.122C144.972 151.679 145.95 150.314 147.804 150.7C149.633 151.087 149.092 152.761 149.169 154.023C149.298 156.161 148.937 158.325 149.658 160.438C149.942 161.236 149.839 162.112 148.989 162.602C148.088 163.143 147.186 162.988 146.44 162.292C144.689 160.721 143.659 158.789 143.556 155.981V155.981Z" fill="#D29D90"/>
<path d="M422.223 150.855C422.609 154.513 421.579 157.836 420.034 161.03C419.802 157.424 421.167 154.152 422.223 150.855Z" fill="#F4F0EE"/>
<path d="M422.531 144.466C423.432 145.831 423.329 147.222 422.814 149.051C421.475 147.351 421.965 145.909 422.531 144.466Z" fill="#F4F0EE"/>
<path d="M214.342 146.218C215.398 146.579 215.836 147.068 215.604 148.098C214.934 151.215 214.857 154.307 215.707 157.424C215.887 158.068 216.042 158.918 215.063 159.176C214.162 159.433 213.647 158.789 213.492 158.094C212.591 154.487 212.334 150.855 213.441 147.248C213.57 146.836 214.033 146.527 214.342 146.192V146.218Z" fill="#EAF1F6"/>
<path d="M216.145 138.876C217.046 138.876 217.715 139.468 217.535 139.906C216.969 141.297 217.226 143.255 215.527 143.951C214.574 144.363 214.368 143.358 214.419 142.663C214.574 141.194 214.831 139.726 216.119 138.876H216.145Z" fill="#E8EFF4"/>
</g>
<defs>
<clipPath id="clip0_5484_43221">
<rect width="595" height="297" fill="white"/>
</clipPath>
</defs>
</svg>
