<svg width="593" height="286" viewBox="0 0 593 286" fill="none" xmlns="http://www.w3.org/2000/svg">
<g clip-path="url(#clip0_5173_42452)">
<path d="M335.934 285.951H276.115C274.905 284.492 275.102 282.712 275.35 281.13C276.19 276.012 275.399 270.919 275.177 265.851C274.781 257.024 273.768 248.223 271.841 239.545C271.026 235.861 269.222 233.76 265.689 232.449C251.012 227.01 236.483 221.175 221.856 215.563C220.571 215.069 219.163 214.995 217.903 214.401C216.618 211.311 217.384 208.319 218.372 205.352C222.918 203.745 227.761 203.276 232.209 201.248C251.135 192.669 262.625 178.231 266.183 157.809C267.863 148.143 266.726 138.599 263.242 129.378C262.872 128.364 262.378 127.375 262.822 126.238C263.761 125.249 264.997 125.397 266.158 125.447C268.406 125.545 269.049 124.631 268.777 122.406C267.048 108.017 259.561 97.5833 247.157 90.3888C242.537 87.7186 238.015 84.9249 232.53 84.3068C231.937 84.2326 231.369 84.0348 231.023 83.4909C229.614 82.6503 228.008 83.4909 226.575 82.9223C223.363 81.6367 220.744 79.3127 217.408 78.2001C205.499 74.1949 193.713 75.3817 181.927 78.6451C178.691 79.5352 175.602 80.8455 172.415 81.8592C169.573 82.0817 167.102 83.0954 165.052 85.0979C162.605 87.5456 159.64 89.3257 156.947 91.4519C150.992 96.1246 146.57 101.885 143.901 108.981C143.704 109.525 143.432 110.069 143.061 110.538C141.579 111.453 141.035 112.788 141.208 114.494C141.282 115.162 141.356 115.903 141.208 116.546C140.689 118.351 141.43 119.389 143.061 120.032C144.371 122.331 145.754 124.606 146.891 127.029C147.039 128.216 147.459 129.155 148.744 129.476C148.966 129.649 149.139 129.847 149.263 130.07C149.732 131.553 151.19 131.825 152.302 132.493C153.142 132.987 154.106 133.333 153.735 134.594C152.673 136.102 150.968 136.77 149.584 137.882C139.997 145.744 141.875 160.653 154.081 165.078C156.008 165.77 157.268 166.833 157.812 168.836C158.973 173.064 161.691 176.574 163.273 180.629C163.47 181.272 163.001 182.112 163.89 182.533C164.113 182.656 164.286 182.805 164.459 182.953C165.027 183.744 165.669 184.461 166.485 185.03C167.152 185.648 167.695 186.365 168.14 187.156C168.535 188.812 169.87 189.332 171.278 189.801C177.752 195.364 184.769 199.938 192.898 202.707C193.738 203.004 194.677 203.424 194.603 204.487C194.257 209.308 195.665 214.055 195.072 218.876C195.023 219.371 194.85 219.84 194.529 220.211C192.873 220.211 193.17 218.901 193.046 217.961C192.601 215.044 192.601 215.044 189.71 215.959C184.448 217.615 179.506 220.186 174.095 221.472C172.958 221.571 171.846 221.67 170.858 222.313C170.586 222.412 170.314 222.486 170.043 222.51C166.806 223.129 163.618 224.043 160.629 225.354C158.652 226.244 156.082 226.071 154.822 228.395C150.745 230.793 146.224 231.98 141.776 233.389C138.861 233.809 140.541 236.059 140.17 237.493C139.454 244.045 138.169 250.522 137.65 257.123C136.983 265.603 137.279 274.059 137.428 282.514C137.428 283.676 137.798 284.888 136.933 285.901H0.741107C0.197523 284.888 0.469315 283.775 0.469315 282.712C0.469315 189.826 0.469315 96.9404 0.469315 4.05473C0.444607 0.0495473 -0.000143283 0.469845 4.10144 0.469845C199.322 0.469845 394.518 0.469845 589.738 0.469845C590.801 0.469845 591.913 0.197888 592.95 0.741802C592.95 94.9131 592.95 189.109 593 283.281C593 285.506 592.506 286 590.282 286C554.059 285.926 517.837 285.951 481.615 285.951C480.898 285.159 480.775 284.195 480.75 283.206C480.602 273.07 479.613 263.032 477.291 253.143C476.994 251.882 478.501 250.275 476.549 249.311C474.869 246.369 473.535 243.303 472.596 240.064C472.176 238.828 473.659 236.627 470.842 236.627C469.928 236.306 469.557 235.589 469.409 234.674C469.532 233.562 469.557 232.548 468.124 232.202C467.21 231.98 466.543 231.51 466.864 230.372C466.024 230.719 465.628 231.658 464.714 231.831C461.996 231.411 459.525 230.125 456.857 229.532C455.992 228.889 455.004 228.691 453.941 228.741C447.641 226.911 441.39 224.884 434.99 223.351C433.433 222.98 431.58 223.277 430.32 221.868C429.282 218.184 429.801 214.451 429.925 210.742C429.999 208.863 431.284 208.369 433.013 208.443C440.401 208.665 447.69 209.728 455.053 210.198C459.847 210.495 464.64 211.311 469.458 211.039C471.682 210.915 473.411 210.075 473.461 207.627C473.659 197.812 473.955 187.997 473.387 178.181C472.942 175.932 473.066 173.682 473.14 171.407C473.189 169.973 473.856 169.108 475.339 168.688C484.283 166.166 486.112 163.52 485.519 154.373C485.642 152.049 485.865 149.675 482.603 149.255C480.206 147.846 477.859 146.313 475.042 145.819C474.153 145.67 473.387 145.176 473.708 144.014C474.746 143.025 476.129 142.703 477.414 142.333C481.022 141.319 483.171 138.822 484.802 135.682C485.444 134.916 485.593 133.877 486.26 133.111C490.856 131.875 494.71 129.724 496.613 125.051C497.774 123.419 497.675 121.787 496.539 120.18C493.895 116.719 495.748 113.827 497.725 110.959C498.886 109.327 498.911 107.695 497.774 106.063C494.957 102.157 492.042 98.3497 490.683 93.5286C490.213 91.798 488.212 90.6854 486.161 90.1415C483.591 89.474 481.417 88.2131 481.368 85.0732C482.727 83.4909 482.208 81.5872 482.282 79.8071C481.812 81.4883 482.924 83.4415 481.442 84.9743C479.935 85.8644 478.921 84.9743 477.908 84.0101C476.624 82.5762 477.711 81.2906 478.18 79.8071C476.969 81.1669 475.932 83.0706 474.004 80.7466C473.757 80.4747 473.659 81.4883 473.189 81.612C471.41 82.1806 469.606 82.7245 467.877 83.392C465.678 84.2574 463.652 84.3068 461.329 83.5898C457.623 82.4278 454.608 84.7271 451.94 86.8039C449.963 88.3614 448.085 89.3009 445.565 89.2268C443.169 89.1526 441.241 90.364 439.512 91.9216C438.499 92.8364 437.56 93.8995 436.176 94.3198C432.593 94.5917 428.986 95.1604 425.453 93.9242C424.81 92.515 424.365 91.0068 424.118 89.4987C423.254 84.3068 420.56 80.7961 415.421 79.2385C414.581 78.9913 413.815 78.5215 413.024 78.1507C411.665 76.9887 410.331 77.2359 409.022 78.2496C406.427 79.8319 404.006 80.1285 401.51 77.8293C399.237 75.7525 396.124 76.2964 393.356 75.9256C391.973 75.1591 391.306 75.8761 390.91 77.137C388.884 78.9418 386.512 80.4005 385.376 83.0459C385.153 83.5651 384.56 84.0596 383.992 84.0596C379.792 84.0843 377.79 87.3972 375.221 89.8696C374.183 91.0563 372.626 91.3777 371.341 92.1688C369.908 93.133 369.439 94.5423 369.315 96.1987C368.846 102.528 367.833 108.783 367.265 115.112C366.696 119.365 366.177 123.592 365.733 127.845C365.609 129.007 365.658 130.193 364.695 131.083C362.817 132.221 361.359 130.96 359.803 130.218C358.617 129.056 359.803 128.438 360.396 127.573C358.963 128.537 357.455 129.328 355.998 130.169C354.713 130.688 353.527 131.38 352.267 131.924C347.794 133.877 344.706 137.091 343.322 141.813C342.309 144.434 342.111 147.055 343.446 149.626C344.879 151.48 346.015 153.508 347.646 155.263C350.537 158.378 353.996 159.713 358.122 159.763C359.358 159.763 360.742 159.491 361.606 160.801C361.68 167.822 360.297 174.72 359.605 181.667C359.21 185.598 358.765 189.505 358.221 193.411C357.974 195.191 358.098 196.946 358.592 198.677C359.506 201.372 361.878 201.421 364.127 201.669C375.344 202.88 386.586 203.696 397.779 204.883C399.089 205.377 400.497 205.179 401.807 205.624C402.153 205.773 402.4 206.02 402.597 206.317C403.215 210.421 403.907 214.55 401.831 218.481C401.56 218.728 401.238 218.876 400.868 218.95C392.788 217.516 384.634 218.555 376.505 218.258C374.257 218.184 371.984 218.233 369.735 218.258C368.451 218.258 367.166 218.258 366.251 219.42C365.535 220.211 364.794 220.953 363.805 221.423C362.718 221.695 362.57 222.659 362.249 223.499C361.804 224.439 361.038 225.082 360.321 225.774C351.254 236.974 345.595 249.879 341.741 263.576C339.814 270.449 338.133 277.396 336.601 284.393C336.478 284.986 336.28 285.53 335.86 285.975L335.934 285.951Z" fill="#606843"/>
<path d="M141.751 232.721L154.699 227.925C156.305 226.318 158.578 226.021 160.554 225.329C163.742 224.192 166.905 222.906 170.24 222.115C170.413 222.115 170.561 222.115 170.71 222.016C171.55 221.25 172.711 221.299 173.699 220.879C179.135 218.926 184.596 217.022 190.032 215.044C193.664 213.709 193.787 213.758 193.911 217.615C193.935 218.481 193.713 219.395 194.281 220.186C195.739 221.521 195.171 223.302 195.22 224.909C195.369 229.779 196.307 231.04 201.126 231.658C205.425 232.202 209.749 232.474 214.048 231.51C215.975 231.065 217.68 230.397 217.828 228.048C217.655 224.365 218.001 220.656 217.458 216.972C217.31 216.008 217.31 215.019 218.199 214.302C219.138 213.61 220.027 213.956 220.966 214.302C236.656 220.409 252.321 226.491 268.036 232.523C270.383 233.413 271.544 234.897 272.162 237.369C274.806 248.025 275.646 258.854 276.264 269.757C276.585 275.171 276.115 280.561 276.115 285.951H253.606C252.717 284.838 253.062 283.503 253.038 282.267C252.865 275.394 253.359 268.521 252.766 261.672C252.297 260.189 252.593 258.607 252.371 257.395C252.222 257.222 252.321 257.296 252.346 257.42C252.568 258.879 252.346 260.387 252.766 261.821C253.334 269.51 252.988 277.223 252.939 284.912C252.939 285.308 252.692 285.654 252.445 285.951H160.653C159.813 284.937 160.085 283.701 160.085 282.539C160.011 274.331 160.184 266.122 159.961 257.939C160.184 266.741 160.036 275.517 160.036 284.319C160.036 284.937 159.863 285.481 159.467 285.951H136.958C135.401 270.696 136.167 255.541 138.984 240.484C139.206 239.322 139.256 238.16 139.404 236.974C139.849 235.367 139.651 233.389 141.776 232.721H141.751Z" fill="#020202"/>
<path d="M478.057 252.253C478.773 257.148 480.256 261.895 480.602 266.914C481.047 273.267 481.763 279.572 481.615 285.951H404.031C403.191 285.011 403.24 283.923 403.438 282.811C403.635 281.945 403.882 281.08 404.13 280.239C404.451 279.325 404.994 278.509 405.044 277.495C405.118 276.803 405.167 276.111 405.414 275.443C405.513 275.171 405.661 274.949 405.81 274.701C406.477 273.663 406.082 272.452 406.427 271.339C406.576 270.869 406.847 270.474 407.268 270.202C412.432 269.411 417.719 269.584 422.858 268.471C423.13 268.422 423.427 268.397 423.723 268.298C424.613 268.051 425.552 268.001 426.441 267.68C439.289 263.922 450.112 256.999 458.562 246.64C462.021 242.388 465.011 237.715 466.988 232.499C469.533 230.916 469.211 233.29 469.755 234.476C469.977 235.193 470.323 235.812 470.99 236.232C472.25 237.171 472.794 238.531 473.239 239.94C474.474 243.031 475.71 246.146 476.945 249.236C478.032 249.978 477.439 251.313 478.032 252.228L478.057 252.253Z" fill="#FBB800"/>
<path d="M335.935 285.951C335.762 282.39 337.269 279.201 337.986 275.839C338.752 272.254 339.765 268.743 340.605 265.208C341.89 259.719 343.743 254.428 345.818 249.236C347.943 243.871 350.463 238.655 353.7 233.834C355.751 230.817 357.579 227.628 360.174 224.983C361.557 226.886 363.015 228.765 363.534 231.139C363.411 231.93 362.521 232.672 363.361 233.512C363.756 234.007 364.251 234.303 364.868 234.476C365.239 234.625 365.585 234.823 365.783 235.169C365.906 235.589 365.857 235.96 365.61 236.306C364.399 237.344 362.57 237.468 361.681 238.951C361.557 239.569 361.582 240.163 361.755 240.781C362.546 241.819 364.424 242.314 363.485 244.193C363.238 244.465 363.633 244.069 363.361 244.366C363.435 244.415 363.46 244.316 363.534 244.292C365.338 244.662 366.746 243.55 368.303 243.055C368.5 243.055 368.772 243.055 368.846 243.179C371.045 246.541 373.244 249.879 374.603 253.711C374.48 255.442 374.9 257.197 374.455 258.903C374.258 259.67 374.529 260.238 375.048 260.708C376.506 261.994 377.544 263.625 378.878 264.985C379.496 265.133 380.138 265.133 380.756 265.059C382.436 264.243 384.413 264.293 385.994 263.205C389.082 264.268 392.245 265.232 394.469 267.878C394.642 269.04 394.024 269.831 393.283 270.573C393.085 270.77 392.863 270.919 392.616 271.042C391.973 271.487 390.886 270.968 390.516 271.982C393.53 272.946 396.717 272.946 399.732 273.836C400.547 274.281 400.448 275.468 401.363 275.814C402.178 276.209 402.894 276.753 403.512 277.421C403.685 277.619 403.833 277.866 403.932 278.088C404.179 278.83 404.599 279.794 403.833 280.289C401.906 281.525 402.919 282.712 403.685 283.948C403.636 284.64 403.932 285.382 403.413 286.025H335.91L335.935 285.951Z" fill="#E61B4C"/>
<path d="M592.951 0.741763C396.841 0.741763 200.731 0.741763 4.62077 0.741763C2.03463 0.741763 0.741559 2.02738 0.741559 4.59861C0.741559 98.3744 0.741559 192.15 0.741559 285.926C-0.493858 285.382 0.197975 284.319 0.197975 283.552C0.148559 265.405 0.173267 247.258 0.173267 229.112C0.148559 153.705 0.148559 78.2495 0.0991421 2.81853C0.0991421 0.593423 0.593309 0.0989554 2.81706 0.0989554C198.631 0.148402 394.469 0.148402 590.282 0.197849C591.147 0.197849 592.284 -0.494406 592.951 0.741763Z" fill="white"/>
<path d="M159.443 285.95V257.049C161.198 266.641 160.358 276.308 160.629 285.95H159.443Z" fill="#4E5625"/>
<path d="M252.989 261.103C253.903 263.353 253.607 265.727 253.607 268.051C253.607 274.009 253.607 279.992 253.607 285.95H252.421L252.371 261.128C252.569 260.906 252.766 260.93 252.989 261.128V261.103Z" fill="#50513A"/>
<path d="M403.438 285.95L403.339 283.577C403.117 282.885 403.018 282.291 404.08 282.464L404.031 285.95H403.438Z" fill="#DE4513"/>
<path d="M357.826 198.999C356.417 196.23 357.43 193.436 357.727 190.642C358.839 180.629 359.975 170.616 361.112 160.603C361.532 159.441 362.644 159.144 363.583 158.675C373.095 153.829 375.27 143.544 368.5 135.262C368.055 134.718 367.635 134.199 367.388 133.531C367.116 132.567 366.943 131.578 367.19 130.564C367.462 129.823 368.574 130.366 368.697 129.575C369.117 129.303 368.574 129.378 368.549 129.427C368.253 130.292 367.067 130.144 366.721 131.034C364.546 131.355 365.09 129.625 365.288 128.759C366.227 124.136 366.152 119.414 366.647 114.766C367.314 107.967 368.006 101.168 368.697 94.394C368.87 92.6386 369.883 91.5755 371.588 91.1305C372.848 91.081 374.108 90.8338 375.319 90.5124C382.41 90.4382 389.477 90.9327 396.568 91.1552C404.524 91.4024 412.481 92.1936 420.461 92.1936C421.993 92.1936 423.649 91.8474 424.909 93.1825C428.763 93.9489 432.667 93.4545 436.546 93.8253C438.128 96.0257 437.065 98.8936 438.35 101.168C438.523 101.984 438.597 102.8 439.067 103.517C439.166 103.789 439.166 104.061 439.067 104.333C437.411 105.544 437.238 106.978 438.424 108.61C439.091 109.525 439.413 110.538 439.339 111.651C439.264 112.838 439.24 114.247 437.51 112.714C437.312 112.541 437.436 113.11 437.189 113.233C436.917 113.382 436.67 113.505 436.374 113.555C435.212 113.505 434.372 112.813 433.458 112.22C427.355 108.313 420.733 107.72 413.864 109.5C410.059 110.489 408.157 111.898 405.488 115.211C409.985 110.143 415.816 108.486 422.339 108.931C428.862 109.376 434.174 112.244 438.4 117.263C439.709 118.821 439.363 121.342 441.538 122.282C441.636 122.109 442.551 122.603 441.908 121.837C441.612 121.466 441.216 121.169 441.118 120.65C441.167 120.378 441.29 120.156 441.538 119.983C443.514 119.785 445.787 119.043 445.812 122.331C445.812 122.48 445.614 122.752 445.812 122.727C446.059 122.677 446.282 122.356 446.553 122.307C448.777 121.837 449.222 122.307 448.629 124.606C448.431 125.348 448.629 125.941 448.802 126.609C449.049 127.375 449.247 128.537 448.629 128.834C446.183 129.946 448.629 131.306 448.159 131.924C448.011 131.528 447.369 130.416 448.555 129.724C449.568 129.13 450.655 129.897 451.149 130.589C452.557 132.641 455.424 133.037 456.486 135.459C456.881 136.35 457.993 136.201 458.883 136.325C459.624 136.424 460.662 136.201 460.785 137.24C460.884 138.055 460.044 138.55 459.525 139.119C458.809 139.934 457.697 139.539 456.708 140.033C457.771 141.245 458.191 143.445 460.291 140.726C461.255 139.489 463.602 140.701 464.492 141.591C465.9 142.975 467.037 142.16 468.321 142.036C470.446 142.036 472.423 142.506 474.004 144.063C473.93 144.83 474.4 145.102 475.042 145.151C478.081 145.299 480.428 146.931 482.677 148.761C485.222 149.675 485.617 151.999 486.26 154.15C486.383 155.609 486.68 157.068 486.556 158.526C486.062 165.029 481.417 169.355 475.413 169.479C474.078 169.504 473.683 169.998 473.757 171.234C473.856 173.385 473.881 175.561 473.93 177.736C474.424 185.005 473.98 192.299 474.153 199.567C474.202 201.149 473.164 201.644 472.003 201.941C467.728 202.954 463.577 204.24 459.056 204.611C443.885 205.896 428.714 205.229 413.568 205.229C405.513 205.229 397.458 204.265 389.428 203.597C380.211 202.855 371.02 201.743 361.853 200.556C360.346 200.358 358.938 200.161 357.776 199.073L357.826 198.999Z" fill="white"/>
<path d="M218.595 228.567C219.04 230.842 217.286 231.584 215.754 231.979C209.873 233.487 203.943 233.215 198.062 231.93C195.938 231.46 194.677 230.076 194.579 227.801C194.455 225.255 194.356 222.708 194.233 220.162C194.134 215.044 193.961 209.951 193.986 204.858C193.986 203.646 193.244 203.547 192.602 203.35C184.201 200.68 177.036 195.957 170.537 190.147C169.401 189.381 168.412 188.466 167.721 187.279L166.164 185.302C165.349 184.634 164.706 183.843 164.261 182.928H164.286C163.52 182.582 163.273 181.865 163.051 181.148C160.728 177.192 158.504 173.162 157.022 168.786C156.602 167.575 156.182 166.537 154.699 166.067C147.657 163.792 143.284 159.045 142.79 151.554C142.271 143.865 146.101 138.451 152.772 134.915C153.019 134.767 153.266 134.594 153.513 134.421C154.996 133.407 155.317 131.454 156.849 130.465C159.345 130.094 161.84 129.6 164.41 129.748C166.213 130.49 168.239 129.773 170.018 130.638C170.018 130.638 170.093 130.589 170.093 130.564C170.093 130.366 170.019 130.193 169.969 129.995C170.414 129.18 171.229 129.056 172.02 129.056C178.419 128.908 184.769 128.067 191.144 127.82C192.132 127.77 193.121 127.746 194.084 127.671C197.074 127.449 198.532 126.139 199.421 122.974C203.078 109.945 211.924 101.193 223.71 95.1107C225.835 94.0229 228.009 94.0229 230.282 94.8882C244.712 100.402 255.534 109.92 262.502 123.74C262.897 124.556 263.243 125.347 263.07 126.287C265.146 132.319 266.974 138.352 267.443 144.829C268.629 161.196 263.737 175.486 252.841 187.601C243.723 197.737 232.308 203.894 218.644 205.649C216.495 207.38 213.975 207.132 211.578 206.712C207.748 206.02 203.894 206.663 200.064 205.995C198.285 205.698 198.235 206.959 198.408 208.294C199.323 215.093 203.474 219.667 208.835 223.376C210.861 224.785 213.06 225.897 215.457 226.639C216.668 227.01 218.002 227.257 218.57 228.642L218.595 228.567Z" fill="#FBD9D2"/>
<path d="M263.094 126.238C257.683 115.236 250.147 106.187 239.424 99.9814C238.065 99.1902 236.582 98.6216 235.297 97.7563C229.343 93.8005 223.907 94.8142 218.397 98.9183C210.12 105.099 203.201 112.219 200.31 122.455C198.68 128.215 198.556 128.265 192.206 128.562C185.041 128.883 177.9 129.427 170.734 129.897C170.463 129.897 170.216 130.119 169.944 130.243C168.264 130.96 166.509 130.539 164.78 130.465L156.527 131.009C152.376 133.037 150.844 132.765 148.793 129.699C147.657 129.229 146.866 128.438 146.421 127.301C145.063 125.026 143.531 122.851 142.765 120.279C140.714 116.942 140.714 113.579 142.765 110.242C145.631 100.501 152.253 93.7016 160.233 87.9905C161.741 86.9274 163.297 85.9138 164.829 84.8754C166.929 83.1695 169.425 82.1806 171.92 81.2411C178.098 79.0901 184.201 76.8156 190.748 75.8019C203.621 73.8241 215.926 74.5163 226.971 82.4031C228.206 83.2437 229.787 82.1558 231.023 83.0706C242.315 85.2957 251.555 91.1799 259.487 99.2644C266.232 106.138 268.555 114.914 269.815 124.111C270.013 125.595 269.395 126.337 267.838 126.312C266.257 126.262 264.676 126.287 263.094 126.262V126.238Z" fill="#020202"/>
<path d="M394.049 268.125C393.826 266.196 391.874 267.161 390.861 266.221C389.502 264.96 387.427 264.441 385.672 263.625C383.325 263.007 381.077 262.265 379.52 260.238C378.458 258.903 377.197 257.766 375.962 256.629C375.147 255.788 374.331 254.923 373.936 253.785C372.231 250.126 370.254 246.616 367.981 243.278C367.611 243.031 367.413 242.66 367.314 242.264C367.018 240.41 365.856 238.803 365.782 236.899C365.708 236.652 365.659 236.38 365.659 236.108L365.56 235.045C364.942 234.402 364.794 233.611 364.769 232.77C364.72 232.276 364.744 231.782 364.744 231.262C364.744 230.397 364.744 229.532 364.695 228.691C364.819 225.625 364.028 222.486 365.461 219.543C365.461 217.986 366.153 217.318 367.784 217.318C377.692 217.393 387.624 217.442 397.532 217.393C398.941 217.393 399.855 218.233 401.041 218.555C402.375 220.038 401.708 221.843 401.856 223.524C401.955 224.661 401.708 225.823 402.128 226.936C402.919 229.111 404.352 230.793 406.131 232.202C406.922 232.82 407.861 233.191 408.775 233.586C415.792 235.515 422.191 234.056 428.097 230.051C429.456 229.136 429.752 227.727 429.851 226.169C429.925 224.76 429.406 223.178 430.815 222.065C434.2 222.016 437.263 223.573 440.476 224.142C443.861 224.735 446.974 226.145 450.309 226.713C451.767 226.96 452.78 228.296 454.337 228.073C454.979 228.765 456.116 228.37 456.709 229.161C459.773 228.963 462.293 230.595 464.986 231.584C465.752 231.757 466.493 232.004 467.136 232.523C467.605 235.886 465.06 238.111 463.652 240.608C460.316 246.566 455.77 251.783 450.458 255.986C445.294 260.065 439.882 264.021 433.359 265.949C431.062 266.641 428.986 268.051 426.515 268.249C425.873 268.792 424.934 268.075 424.316 268.743C419.893 270.103 415.347 270.573 410.751 270.548C409.491 270.548 408.206 270.597 406.946 270.597C406.823 270.597 406.674 270.573 406.551 270.548C405.167 269.93 403.685 270.053 402.227 270.078C401.807 270.078 401.387 270.078 400.992 270.078C400.572 270.078 400.127 270.078 399.707 270.078C398.323 270.177 397.236 269.312 396.001 268.965C395.259 268.867 394.543 268.694 394.049 268.051V268.125Z" fill="#3566AF"/>
<path d="M437.807 101.91C436.251 99.3631 436.695 96.5199 436.522 93.7509C439.092 90.438 442.255 88.114 446.678 88.4354C448.481 88.559 449.494 87.669 450.656 86.5812C453.398 84.0594 456.512 82.2793 460.391 82.3535C460.786 82.3535 461.305 82.2298 461.552 82.4276C464.072 84.5538 466.494 82.8726 468.767 82.0815C470.274 81.5623 471.732 81.2903 473.288 81.2656C474.944 81.8343 476.97 81.5376 478.082 83.3671C479.342 83.5896 480.034 85.1966 481.541 84.8011C482.579 87.4465 484.383 88.9299 487.298 89.548C489.72 90.0672 491.449 92.0945 492.116 94.3443C493.055 97.4347 493.722 100.451 496.663 102.454C497.7 103.146 498.466 104.456 498.293 105.94C499.059 107.547 499.059 109.178 498.293 110.785C498.244 111.354 498.392 112.219 498.096 112.467C495.106 114.716 495.971 117.411 497.107 120.155C497.849 121.763 497.873 123.37 497.107 124.977C496.687 128.982 491.869 133.209 486.409 133.333C485.569 133.877 485.964 134.99 485.297 135.608C484.308 139.366 482.01 141.788 478.205 142.876C476.846 143.272 475.562 143.989 474.079 143.964C472.028 143.791 470.225 142.456 468.1 142.654C465.061 142.332 463.232 140.404 461.947 137.857C461.404 136.77 460.934 136.003 459.477 135.781C454.041 134.915 451.644 131.232 452.805 125.817C453.126 124.284 453.571 122.801 454.214 121.317C452.632 120.526 450.68 121.639 449.494 120.007C449.593 117.757 451.347 118.647 452.509 118.425C453.423 118.252 455.029 118.697 454.09 116.768C453.719 115.829 453.275 114.964 452.039 115.062C450.68 114.939 450.359 116.126 449.717 116.892C449.346 117.139 448.951 117.263 448.531 117.337C446.702 117.634 445.047 117.09 443.441 116.348C441.439 114.766 440.772 112.491 440.772 110.167C440.772 107.769 440.377 105.618 439.117 103.591C438.45 103.195 438.376 102.379 437.881 101.86L437.807 101.91Z" fill="#E61B4C"/>
<path d="M405.785 232.697C403.759 231.609 402.622 229.779 401.683 227.777C401.066 226.738 401.461 225.626 401.436 224.538C401.585 224.241 401.758 224.019 402.005 223.821C403.462 222.906 405.192 222.881 406.798 222.486C413.395 220.829 418.955 217.566 422.933 211.904C424.514 209.654 424.193 208.888 421.351 208.69C416.657 208.369 411.987 207.676 407.292 207.355C405.563 207.231 403.759 207.133 402.178 206.168C402.005 206.094 401.832 206.045 401.634 206.02C400.522 205.427 399.287 206.045 398.175 205.624C386.34 204.586 374.48 203.572 362.644 202.485C360.445 202.287 358.32 201.693 357.826 199.023C368.327 200.334 378.828 201.52 389.354 202.608C409.862 204.685 430.444 204.586 450.977 204.19C457.92 204.067 464.986 203.597 471.707 201.125C473.436 200.482 473.955 199.814 473.931 198.084C473.856 191.285 473.931 184.486 473.98 177.687C474.697 185.129 474.252 192.62 474.425 200.086C474.474 202.064 474.425 204.017 474.573 205.995C474.87 210.445 473.313 212.3 468.915 212.176C460.045 211.929 451.248 210.816 442.427 210.075C439.092 209.803 435.756 209.58 432.421 209.234C431.037 209.086 430.716 209.63 430.74 210.866C430.815 214.599 430.815 218.332 430.839 222.09C431.902 228.518 428.665 231.806 422.908 233.859C417.892 235.639 413.074 235.836 408.132 234.056C407.613 233.413 407.564 232.746 407.861 232.004C407.91 231.411 408.404 230.842 407.811 230.026C407.193 230.743 407.885 231.312 407.811 231.831C407.465 232.82 406.922 233.389 405.834 232.771L405.785 232.697Z" fill="#FCDFCF"/>
<path d="M367.883 133.234C372.404 137.783 374.727 142.975 372.676 149.478C371.243 154.027 368.352 157.241 364.102 159.293C363.139 159.763 362.126 160.133 361.137 160.578C354.466 161.147 348.857 159.342 345.027 153.483C344.261 152.321 343.668 151.06 342.977 149.848C342.112 147.079 342.186 144.31 342.927 141.541C344.459 134.421 349.747 131.479 356.047 129.674C357.233 129.007 358.419 128.883 359.605 129.674C361.36 129.476 362.62 131.232 364.399 130.91C365.955 131.108 367.117 131.899 367.883 133.259V133.234Z" fill="#E61B4C"/>
<path d="M424.885 93.1331C408.256 92.8117 391.677 91.9464 375.073 91.081C374.48 90.5866 374.578 90.0427 374.949 89.474C376.95 86.433 379.026 83.491 383.251 83.5404C383.893 83.5404 384.264 83.2685 384.585 82.6504C385.944 80.0544 388.143 78.2002 390.416 76.4448C391.108 75.8514 391.998 75.6784 392.813 75.357C396.816 75.0356 400.621 75.2581 403.71 78.4227C404.525 79.2385 406.007 79.2138 406.971 78.4227C407.737 77.8046 408.528 77.7304 409.368 77.5326C410.554 76.8404 411.74 76.8651 412.926 77.5326C419.128 78.5216 424.168 82.9223 424.81 89.3751C424.934 90.5866 427.084 91.8227 424.909 93.1084L424.885 93.1331Z" fill="#E61B4C"/>
<path d="M218.595 228.568C213.579 226.862 208.761 224.859 204.758 221.151C200.632 217.318 198.087 212.794 197.395 207.231C197.049 204.512 198.729 204.883 200.558 205.006C206.587 205.426 212.591 206.465 218.669 205.575C218.397 208.467 217.977 211.36 218.175 214.277C218.62 219.024 218.842 223.796 218.595 228.568Z" fill="#C28A7D"/>
<path d="M402.177 206.168C407.218 206.589 412.283 206.91 417.324 207.528C419.078 207.751 420.857 207.652 422.587 207.924C425.675 208.393 425.947 209.11 424.217 211.607C419.325 218.728 412.431 222.51 404.031 223.845C403.462 223.944 402.894 224.117 402.326 224.241C401.066 222.56 401.93 220.607 401.659 218.802V218.332C402.523 214.302 402.079 210.223 402.177 206.168V206.168Z" fill="#BC9375"/>
<path d="M365.437 219.519C365.437 222.733 365.437 225.947 365.437 229.161C364.819 229.952 364.819 230.719 365.437 231.485V232.721C364.745 233.339 365.14 234.477 364.374 235.045C363.608 235.045 363.213 234.625 363.188 233.858C362.546 233.067 362.546 232.276 363.188 231.51C362.175 229.334 360.717 227.356 360.174 224.958L362.002 223.03C362.867 222.585 362.348 221.274 363.336 220.903C364.572 221.225 364.226 219.148 365.486 219.494L365.437 219.519Z" fill="#E51C50"/>
<path d="M389.23 208.146C386.661 211.014 383.696 210.025 380.978 210.149C380.311 210.173 379.891 209.803 379.841 209.086C379.792 208.22 380.311 207.825 381.101 207.849C383.671 207.899 386.29 207.553 389.23 208.121V208.146Z" fill="#5D734A"/>
<path d="M170.241 222.115C165.225 224.464 159.962 226.194 154.699 227.925C155.193 226.54 156.132 225.922 157.615 225.527C160.679 224.736 163.644 223.598 166.633 222.486C167.819 222.041 168.956 221.497 170.216 222.115H170.241Z" fill="#5C6F4A"/>
<path d="M367.882 133.234C366.597 132.616 365.387 131.924 364.398 130.886C364.942 126.534 365.486 122.208 366.054 117.856C366.202 116.793 366.449 115.78 366.647 114.717C366.647 118.4 366.647 122.084 366.721 125.743C366.721 126.757 365.733 127.276 365.708 128.067C365.659 129.056 364.324 131.355 367.289 130.292C367.833 131.207 367.956 132.171 367.858 133.21L367.882 133.234Z" fill="#FCFAF9"/>
<path d="M478.057 83.4167C476.871 81.785 474.326 83.219 473.264 81.3153C473.461 80.2274 472.992 79.016 473.733 77.9529C475.29 78.571 473.511 81.4883 475.957 81.0186C477.365 80.7466 476.846 78.2248 478.922 78.027C479.317 79.2138 479.713 80.3758 478.378 81.2905C477.439 81.9333 478.057 82.675 478.057 83.392V83.4167Z" fill="#627249"/>
<path d="M142.764 110.241C142.048 113.579 142.048 116.941 142.764 120.279C141.01 119.982 140.12 119.142 140.442 117.189C140.639 116.051 140.615 114.815 140.442 113.653C140.145 111.725 141.01 110.736 142.74 110.241H142.764Z" fill="#5D724D"/>
<path d="M148.819 129.699C150.944 132.715 153.859 131.182 156.552 131.009C156.058 132.591 155.762 134.347 153.538 134.372C153.118 132.764 151.413 132.789 150.351 132.319C148.893 131.701 148.72 130.91 148.819 129.674V129.699Z" fill="#5F714E"/>
<path d="M467.16 232.499C466.246 232.622 465.11 233.265 465.011 231.559C465.06 230.941 465.406 230.521 465.851 230.1C466.493 229.482 467.234 228.666 468.05 229.433C468.939 230.273 466.938 230.372 467.309 231.089C468.322 232.177 472.151 230.99 469.755 234.476C468.248 234.625 469.285 231.534 467.16 232.474V232.499Z" fill="#62744B"/>
<path d="M481.541 84.8752C481.541 83.5155 481.838 82.0568 481.442 80.8206C481.096 79.7328 480.454 78.7438 481.788 78.2247C483.37 77.6313 482.48 79.7081 483.37 80.0295C482.752 81.6365 483.592 83.8121 481.516 84.8505L481.541 84.8752Z" fill="#5F7249"/>
<path d="M359.63 129.649H356.072C357.036 128.067 359.111 127.894 360.199 126.411C360.495 126.015 361.385 126.114 361.73 126.683C362.101 127.301 362.151 128.042 361.31 128.388C360.619 128.685 359.704 128.586 359.63 129.649V129.649Z" fill="#61714A"/>
<path d="M342.927 141.541L342.976 149.848C341.32 148.192 341.296 143.297 342.927 141.541Z" fill="#726A47"/>
<path d="M486.309 154.076C485.148 152.271 484.258 150.269 482.727 148.686C486.087 148.983 486.408 149.453 486.309 154.076Z" fill="#607250"/>
<path d="M171.921 81.2162C169.697 82.6996 167.3 83.8369 164.829 84.8506C164.755 84.5786 164.582 84.0594 164.632 84.0347C167.028 82.9963 169.005 80.8948 171.921 81.1915V81.2162Z" fill="#5A6D4D"/>
<path d="M473.239 239.965C472.176 238.927 471.484 237.641 470.99 236.257C472.819 235.02 473.634 235.391 473.338 237.691C473.239 238.432 473.263 239.223 473.239 239.965Z" fill="#657448"/>
<path d="M371.465 80.0296C372.083 77.8292 374.603 79.5352 375.566 78.0518C375.739 78.2495 376.036 78.3979 376.085 78.6204C376.209 79.2632 376.011 79.8813 375.295 79.9307C374.035 80.0296 372.75 80.0049 371.465 80.0296Z" fill="#5F7249"/>
<path d="M384.239 78.4473L381.25 79.5598C381.176 79.189 380.929 78.7439 381.077 78.472C381.818 76.9639 383.053 77.9281 384.066 77.7303L384.239 78.4473V78.4473Z" fill="#627149"/>
<path d="M497.058 125.026V120.205C498.812 121.812 498.911 123.419 497.058 125.026Z" fill="#975B4A"/>
<path d="M401.658 224.513C401.658 225.601 401.658 226.689 401.683 227.776C400.324 224.76 401.436 221.571 401.041 218.505L401.634 218.332L401.732 218.555C401.98 220.532 402.153 222.535 401.634 224.513H401.658Z" fill="#64719C"/>
<path d="M498.269 110.86V106.014C500.072 107.621 500.023 109.253 498.269 110.86Z" fill="#A85149"/>
<path d="M141.751 232.721C140.491 233.858 140.121 235.515 139.379 236.974C139.725 235.317 137.897 232.424 141.751 232.721Z" fill="#5A6C4B"/>
<path d="M167.72 187.255C169.005 187.873 169.795 188.986 170.536 190.123C168.708 190.049 167.72 189.134 167.72 187.255Z" fill="#63754E"/>
<path d="M395.976 71.0798C395.012 71.8462 394.073 71.9451 392.838 71.1787C394.073 70.2886 395.037 70.5853 395.976 71.0798Z" fill="#637249"/>
<path d="M392.813 75.3568C392.492 76.7907 391.33 76.321 390.416 76.4446C391.503 74.3184 391.973 74.1206 392.813 75.3568Z" fill="#637249"/>
<path d="M412.925 77.5573H409.367C410.553 75.8761 411.739 75.9008 412.925 77.5573Z" fill="#686F48"/>
<path d="M356.072 226.763C354.219 226.268 354.688 224.735 355.157 223.821C355.627 222.931 355.899 223.92 356.072 224.389C356.689 225.18 356.689 225.972 356.072 226.738V226.763Z" fill="#627248"/>
<path d="M478.057 252.253C477.414 251.363 476.871 250.423 476.97 249.261C480.898 248.964 477.291 251.412 478.057 252.253Z" fill="#63773C"/>
<path d="M374.949 89.4985C374.999 90.0424 375.048 90.5616 375.073 91.1055C373.911 91.1055 372.75 91.1055 371.589 91.1055C372.701 90.5616 373.837 90.0424 374.949 89.4985V89.4985Z" fill="#8C6D5A"/>
<path d="M146.446 127.301C147.237 128.117 148.027 128.908 148.818 129.724C146.891 130.02 146.149 129.18 146.446 127.301Z" fill="#5F714E"/>
<path d="M163.05 181.124C163.718 181.544 164.138 182.137 164.286 182.928C163.569 182.854 162.63 183.398 162.21 182.483C162.087 182.211 162.754 181.593 163.05 181.124Z" fill="#63754E"/>
<path d="M363.312 220.903C363.04 221.719 363.485 222.98 361.978 223.03C362.052 222.09 361.73 220.879 363.312 220.903Z" fill="#627248"/>
<path d="M485.247 135.657C485.371 134.792 484.407 133.383 486.359 133.383C486.235 134.273 486.705 135.435 485.247 135.657Z" fill="#696E48"/>
<path d="M456.733 229.136C455.844 229.013 454.633 229.557 454.361 228.049C455.325 227.999 456.412 227.752 456.733 229.136Z" fill="#1D73BA"/>
<path d="M356.072 226.763C356.072 225.972 356.072 225.18 356.072 224.414C356.715 224.488 357.159 224.735 357.209 225.452C357.258 226.268 356.888 226.713 356.072 226.763Z" fill="#507746"/>
<path d="M371.465 80.0295C371.416 80.7465 371.638 81.5624 370.774 82.3535C370.23 81.1174 370.008 80.3015 371.465 80.0295Z" fill="#5F7249"/>
<path d="M230.998 83.0457C229.664 82.8232 228.157 83.4166 226.946 82.3782C228.33 82.4276 229.714 82.5018 231.073 82.576C231.097 82.576 231.147 82.7243 231.122 82.7985C231.122 82.8726 231.023 82.9468 230.974 83.0457H230.998Z" fill="#5F6E58"/>
<path d="M398.175 205.6C399.361 205.476 400.547 205.278 401.634 205.995C400.448 206.045 399.262 206.341 398.175 205.6Z" fill="#BC9375"/>
<path d="M173.7 220.879C172.835 221.62 171.772 221.843 170.71 222.016C171.328 220.656 172.563 220.854 173.7 220.879Z" fill="#5C6F4A"/>
<path d="M164.261 182.904C165.2 183.472 165.719 184.338 166.164 185.277C164.978 184.931 164.212 184.214 164.261 182.904Z" fill="#63754E"/>
<path d="M252.989 261.104H252.371C251.284 259.521 252.075 257.89 252.149 256.233C253.508 257.717 252.84 259.472 252.989 261.104Z" fill="#4C5227"/>
<path d="M406.947 270.622L406.897 271.661C406.749 271.883 406.625 272.106 406.527 272.328C406.255 273.292 406.675 274.43 405.909 275.295L405.736 277.619C405.439 277.965 405.069 278.163 404.624 278.188C404.179 278.188 403.784 277.99 403.463 277.668C402.944 277.174 403.018 276.407 402.647 275.814C401.041 273.169 401.214 272.353 403.636 270.152C404.723 269.905 405.81 269.88 406.823 270.449L406.971 270.622H406.947Z" fill="#E61F4A"/>
<path d="M403.438 277.668L404.673 277.767C405.242 278.484 404.92 279.251 404.747 279.992C404.5 280.808 404.945 281.822 404.08 282.465C403.463 282.588 403.487 283.157 403.339 283.577C401.387 282.786 400.572 281.525 402.746 280.314C404.253 279.473 403.141 278.509 403.463 277.668H403.438Z" fill="#E61A4F"/>
<path d="M405.884 275.295C405.983 274.108 405.266 272.773 406.428 271.759C406.798 272.897 406.897 274.034 406.353 275.146C406.205 275.196 406.032 275.245 405.884 275.295Z" fill="#E03E14"/>
<path d="M406.354 275.146C406.354 274.009 406.403 272.872 406.428 271.759C406.576 271.735 406.749 271.71 406.897 271.66C406.897 272.847 407.465 274.133 406.354 275.146V275.146Z" fill="#F1854E"/>
<path d="M404.747 279.992C404.722 279.25 404.698 278.509 404.673 277.767C405.019 277.718 405.365 277.668 405.711 277.619C405.859 278.608 405.414 279.349 404.747 279.992V279.992Z" fill="#EF7953"/>
<path d="M424.316 268.768C424.885 267.828 425.749 268.298 426.515 268.273C425.898 268.941 425.107 268.817 424.316 268.768Z" fill="#726B48"/>
<path d="M373.936 253.736C375.196 254.132 375.789 255.121 376.234 256.258C376.802 258.112 378.013 259.324 379.866 259.867C381.793 261.104 383.721 262.365 385.672 263.601C384.882 266.048 382.189 264.342 380.928 265.826C380.138 265.059 379.347 265.059 378.556 265.826C376.926 263.972 374.702 262.365 373.812 260.214C373.047 258.384 373.812 255.912 373.911 253.736H373.936Z" fill="#E61D4A"/>
<path d="M403.438 270.622C402.894 272.303 400.498 274.034 403.908 275.493C405.168 276.037 403.043 276.778 403.413 277.644L401.066 276.457C400.251 275.864 400.695 274.677 399.88 274.083C396.643 274.108 393.481 273.416 390.293 272.897C389.577 272.773 389.28 272.378 389.206 271.71C390.17 270.622 391.8 271.636 392.764 270.523C393.95 269.732 394.815 270.696 395.729 271.117C399.213 272.699 399.386 272.674 401.041 269.435L402.178 269.386C402.573 269.806 403.265 269.955 403.413 270.597L403.438 270.622Z" fill="#E61A4F"/>
<path d="M367.833 242.165L367.956 243.229C366.795 245.281 365.14 245.503 363.163 244.514C364.028 242.215 361.038 242.512 360.791 240.954C361.557 240.163 361.557 239.372 360.791 238.581C361.928 236.801 363.781 236.454 365.634 236.059V236.108C366.128 236.974 365.584 237.542 365.14 238.21C363.682 240.509 364.052 241.275 366.795 241.646C367.19 241.696 367.536 241.869 367.808 242.165H367.833Z" fill="#E61D49"/>
<path d="M401.065 269.46C401.016 273.119 399.583 273.984 396.321 272.303C395.16 271.71 393.949 271.141 392.788 270.548C393.208 269.732 393.628 268.916 394.048 268.1C394.814 268.175 395.555 268.224 396.321 268.298C397.31 269.312 397.754 271.982 399.904 269.435H401.09L401.065 269.46Z" fill="#E61D49"/>
<path d="M372.528 254.354C372.355 255.071 371.811 255.195 371.218 255.12C370.527 255.022 370.304 254.527 370.329 253.884C370.354 253.365 370.576 252.92 371.218 253.093C371.861 253.266 372.503 253.513 372.528 254.354V254.354Z" fill="#E61D4A"/>
<path d="M392.788 270.548C392.195 272.674 390.416 271.339 389.23 271.735C389.823 269.584 391.602 270.943 392.788 270.548Z" fill="#E61D49"/>
<path d="M363.163 231.51V233.858C362.348 233.784 361.977 233.364 362.027 232.523C362.076 231.806 362.521 231.559 363.163 231.485V231.51Z" fill="#E62046"/>
<path d="M399.88 274.108C401.461 274.306 400.942 275.542 401.066 276.482C399.46 276.284 399.979 275.048 399.88 274.108Z" fill="#E62242"/>
<path d="M364.349 235.045C364.473 234.155 363.88 232.944 365.436 232.696L365.535 234.996C365.14 234.996 364.745 235.02 364.349 235.045Z" fill="#E62042"/>
<path d="M360.791 238.605C361.433 238.679 361.878 238.927 361.928 239.644C361.977 240.459 361.606 240.904 360.791 240.979V238.605V238.605Z" fill="#E61953"/>
<path d="M363.336 244.44C362.644 245.923 361.952 245.874 360.964 245.157C361.631 244.292 362.496 244.662 363.336 244.44Z" fill="#E61D49"/>
<path d="M378.557 265.826C378.606 265.01 379.051 264.639 379.891 264.688C380.607 264.738 380.854 265.208 380.929 265.826H378.557V265.826Z" fill="#E61653"/>
<path d="M416.879 157.513C416.262 158.526 415.422 158.526 414.359 158.328C407.441 156.969 401.363 153.977 396.347 148.983C393.604 146.239 393.456 143.173 396.124 140.379C401.882 134.347 409.22 133.828 416.879 134.866C418.263 135.064 420.19 134.668 420.66 136.794C421.352 143.494 420.487 149.972 418.065 156.252C417.843 156.796 417.423 157.216 416.904 157.513H416.879Z" fill="#010101"/>
<path d="M386.389 180.58C386.562 180.555 386.71 180.58 386.834 180.753C387.032 181.915 387.946 181.717 388.737 181.742C388.91 181.692 389.058 181.742 389.181 181.865C390.071 183.423 391.751 182.236 392.863 182.953C403.611 184.016 413.519 181.395 422.908 176.327C424.391 175.511 426.269 174.745 427.306 176.723C428.418 178.849 426.713 179.788 425.033 180.728C415.545 185.92 405.514 188.491 394.592 187.898C381.794 187.205 372.8 177.44 373.788 164.905C373.837 164.213 373.887 163.52 374.109 162.878C374.48 161.691 375.172 160.603 376.58 160.727C378.137 160.875 378.581 162.012 378.631 163.471C378.705 165.919 378.433 168.366 379.026 170.814C379.866 174.349 381.719 177.143 384.487 179.418C384.956 180.085 385.697 180.283 386.365 180.604L386.389 180.58Z" fill="#EB5B74"/>
<path d="M416.879 157.513C419.696 150.887 419.745 143.766 420.66 136.794C424.168 136.621 427.01 138.055 429.505 140.379C430.073 141.22 431.284 140.775 431.852 141.591C432.964 143.222 434.941 144.187 435.41 146.313C436.053 147.895 434.472 149.477 435.41 151.06C435.287 152.914 433.533 153.458 432.495 154.546C428.591 158.675 423.254 158.254 418.238 158.773C417.2 158.872 417.522 157.71 416.854 157.537L416.879 157.513Z" fill="#FDF8D3"/>
<path d="M449.593 119.735C451.298 120.848 453.275 119.834 455.128 120.477C454.56 122.331 453.942 124.161 453.472 126.04C452.188 131.157 454.757 134.742 460.02 135.088C461.255 135.163 461.7 135.632 462.096 136.646C463.232 139.465 465.11 141.615 468.05 142.679C465.184 143.717 463.282 141.022 460.638 140.874C460.144 141.442 461.799 142.135 460.86 142.481C459.897 142.827 458.587 142.975 457.698 142.58C456.339 141.986 456.067 140.355 455.622 139.019C455.498 138.624 456.042 138.154 456.314 138.401C458.389 140.231 459.155 138.08 460.564 136.967C458.216 136.869 456.067 137.363 454.782 134.421C454.214 133.16 451.817 131.899 450.137 130.787C449.717 130.515 449.198 129.328 448.58 130.465C448.21 131.108 448.506 131.8 449.396 132.047C449.766 132.146 450.112 132.295 450.334 132.764C449 133.061 447.345 134.198 447.221 131.281C447.221 130.811 447.073 130.267 446.801 129.921C446.282 129.254 445.714 128.487 446.381 127.845C447.172 127.078 447.345 128.957 448.037 128.636C450.013 126.88 444.355 124.581 449.643 123.197C447.789 122.653 446.999 122.059 446.183 123.468C445.813 124.087 444.602 124.012 444.083 123.394C443.638 122.85 444.306 122.43 444.824 122.084C446.282 121.095 444.652 120.625 444.306 120.502C443.391 120.23 442.378 120.279 441.415 120.205C439.216 118.252 437.536 115.928 436.522 113.134C437.783 112.442 436.028 111.28 437.041 110.439C438.45 110.662 437.14 112.516 438.598 112.887C438.623 111.651 438.969 110.489 438.178 109.401C436.522 107.176 435.88 105.124 438.993 103.566C441.019 104.654 441.711 106.162 441.39 108.536C440.995 111.28 441.934 113.876 443.638 116.101C445.245 117.906 447.715 118.252 449.568 119.636L449.593 119.735Z" fill="#FEFDFD"/>
<path d="M436.547 113.184C438.524 115.31 440.179 117.634 441.439 120.255L441.489 120.848C442.008 121.342 442.527 121.837 442.057 122.628C441.316 124.26 440.599 124.408 439.883 122.603C434.744 109.945 419.498 105.445 408.577 113.357C407.515 114.123 406.675 115.038 405.958 116.126C405.563 116.719 405.118 117.757 404.229 117.04C403.562 116.497 403.858 115.582 404.402 114.914C406.971 111.7 410.208 109.401 414.211 108.461C422.365 106.533 429.851 108.165 436.572 113.184H436.547Z" fill="#040505"/>
<path d="M474.671 162.433C474.029 159.392 474.894 156.449 475.19 153.458C475.363 151.727 476.376 151.554 477.513 152.667C479.144 154.274 479.712 156.326 479.218 158.576C478.773 160.628 477.192 161.938 474.647 162.433H474.671Z" fill="#D3A78B"/>
<path d="M435.435 151.035C432.519 149.453 435.113 147.87 435.435 146.288C437.337 147.87 437.337 149.453 435.435 151.035Z" fill="#FDF9DE"/>
<path d="M392.912 182.928C392.171 183.076 391.405 182.928 390.639 183.324C388.662 184.362 388.835 183.151 389.206 181.84C390.54 181.84 391.75 182.236 392.887 182.928H392.912Z" fill="#E8607B"/>
<path d="M366.523 170.072C366.573 168.292 366.943 166.561 367.018 164.781C367.141 166.561 367.759 168.391 366.523 170.072Z" fill="#F1F0F0"/>
<path d="M388.761 181.742C388.019 182.236 387.426 183.497 386.389 182.829C385.153 182.038 387.204 181.569 386.858 180.753C387.5 181.074 388.143 181.42 388.761 181.742Z" fill="#E8607B"/>
<path d="M367.314 130.317C368.278 129.699 368.377 128.735 368.13 127.35C369.637 129.872 369.489 130.267 367.314 130.317Z" fill="#FCFAF9"/>
<path d="M431.852 141.591C430.913 141.467 429.678 141.962 429.505 140.379C430.444 140.503 431.679 139.984 431.852 141.591Z" fill="#FEFBEB"/>
<path d="M386.389 180.58C385.474 180.629 384.535 180.728 384.511 179.393C385.326 179.492 385.894 179.961 386.389 180.58Z" fill="#E8607B"/>
<path d="M442.032 122.628L441.464 120.848C442.23 120.897 442.6 121.367 442.724 122.035C442.823 122.504 442.403 122.579 442.032 122.628Z" fill="#FEFDFD"/>
<path d="M437.806 101.91C438.424 102.33 438.918 102.874 439.042 103.64C437.782 103.64 437.782 102.775 437.806 101.91Z" fill="#FEFDFD"/>
<path d="M216.914 130.243C218.273 128.042 220.472 128.537 222.473 128.561C232.233 128.685 239.794 138.204 237.719 147.697C236.533 153.161 230.355 158.526 224.673 158.65C221.263 158.724 217.581 159.589 214.592 156.87C213.826 156.301 213.48 155.51 213.257 154.645C211.33 146.733 211.701 139.069 215.58 131.751C215.901 131.133 216.272 130.564 216.914 130.243V130.243Z" fill="#020203"/>
<path d="M216.915 130.243C215.778 133.828 213.9 137.14 213.282 140.948C212.418 146.387 213.282 151.628 214.567 156.87C212.319 157.166 210.861 155.609 209.181 154.57C208.489 153.853 207.254 153.853 206.809 152.79C202.559 150.367 201.2 143.89 204.239 139.143C207.056 134.742 211.133 131.701 215.926 129.625C216.569 129.353 216.816 129.625 216.915 130.218V130.243Z" fill="#F8F1F0"/>
<path d="M228.725 119.167C223.141 117.733 217.853 118.845 212.689 121.021C212.244 121.219 211.824 121.491 211.379 121.688C209.749 122.381 208.242 122.356 207.278 120.65C206.314 118.944 207.154 117.634 208.563 116.62C214.839 112.071 229.565 111.453 236.113 115.409C237.644 116.323 238.509 117.485 237.768 119.29C236.928 121.342 235.248 121.219 233.543 120.7C232.53 120.378 231.665 119.612 230.504 119.686C229.985 119.266 229.194 119.785 228.7 119.191L228.725 119.167Z" fill="#060505"/>
<path d="M179.457 171.209C175.182 166.265 175.231 158.971 179.531 154.15C180.396 153.186 181.31 152.469 182.52 153.433C183.657 154.348 183.262 155.485 182.644 156.598C179.432 162.408 179.901 166.487 184.299 171.16C184.868 171.902 186.301 172.223 185.584 173.632C185.238 173.929 184.818 174.053 184.374 174.077C183.015 174.053 182.15 172.891 180.914 172.594C180.297 172.248 180.099 171.506 179.457 171.209V171.209Z" fill="#EE80AB"/>
<path d="M149.337 150.813C149.46 148.835 149.831 147.005 151.462 145.744C153.117 144.483 154.526 145.101 154.699 147.178C154.896 149.725 154.427 152.296 155.242 154.793C155.489 155.584 155.193 156.4 154.353 156.771C153.587 157.092 152.796 156.969 152.154 156.375C150.449 154.867 149.485 153.013 149.386 150.788L149.337 150.813Z" fill="#D29D90"/>
<path d="M184.324 173.509H185.51C186.498 172.619 187.709 173.014 188.821 172.915C191.094 172.866 193.442 173.261 195.566 172C196.901 172.446 196.555 173.509 196.431 174.473C196.11 175.091 195.418 175.313 194.973 175.808C191.341 177.267 187.783 177.168 184.299 175.313C183.904 174.695 183.805 174.102 184.299 173.509H184.324Z" fill="#EE7FAC"/>
<path d="M228.725 119.167C229.392 119.092 230.01 119.167 230.529 119.661C226.922 123.048 221.807 123.74 217.483 121.441C217.013 120.823 216.198 120.18 217.903 120.23C220.72 120.304 223.561 120.279 226.403 120.23C227.317 120.23 228.453 120.576 228.725 119.142V119.167Z" fill="#FBDAD1"/>
<path d="M196.16 174.671C196.16 173.879 195.592 173.113 196.16 172.322C195.814 171.951 195.814 171.555 196.16 171.185C197.222 169.503 198.927 168.292 199.718 166.413C200.509 165.77 201.299 165.77 202.065 166.413C202.757 168.243 202.609 169.874 201.003 171.209C200.385 171.506 200.163 172.174 199.644 172.569C198.408 172.915 197.519 173.756 196.778 174.745C196.555 174.967 196.333 174.943 196.135 174.695L196.16 174.671Z" fill="#EE81AA"/>
<path d="M196.184 171.209V172.347C194.01 173.978 191.489 173.484 189.068 173.533C188.722 172.767 187.141 173.904 187.289 172.371C190.328 172.545 193.318 172.446 196.159 171.209H196.184Z" fill="#EE83A8"/>
<path d="M184.324 173.509C184.324 174.102 184.324 174.72 184.324 175.314C183.015 174.72 181.804 173.954 180.766 172.915C180.593 172.767 180.544 172.619 180.593 172.495C180.667 172.371 180.742 172.297 180.791 172.297C182.249 171.852 183.114 173.187 184.324 173.484V173.509Z" fill="#EE83A8"/>
<path d="M187.289 172.371L189.068 173.533H185.51L184.324 171.16C185.486 171.16 186.326 171.951 187.289 172.371Z" fill="#EE83A8"/>
<path d="M196.802 174.745C196.901 172.89 197.889 172.124 199.717 172.322C199.915 172.445 199.989 172.569 199.94 172.717C199.89 172.866 199.816 172.94 199.767 172.94C198.877 173.706 198.087 174.596 196.826 174.745H196.802Z" fill="#EE83A8"/>
<path d="M217.755 121.342C216.544 123.221 215.407 122.405 214.32 122.183C215.21 121.07 216.421 121.614 217.755 121.342Z" fill="#FBDAD1"/>
<path d="M164.78 130.49L169.944 130.268C170.216 130.391 170.784 130.787 170.562 130.787C168.635 130.836 166.683 131.331 164.805 130.49H164.78Z" fill="#F7E0DA"/>
<path d="M206.833 152.815C207.574 153.458 209.106 153.062 209.205 154.595C207.945 154.62 206.66 154.694 206.833 152.815Z" fill="#FAE5E0"/>
<path d="M202.089 166.413H199.742C199.792 165.597 200.236 165.226 201.052 165.276C201.768 165.325 202.015 165.795 202.089 166.413Z" fill="#F8CAD0"/>
<path d="M199.742 172.94L199.692 172.347C199.767 171.531 200.187 171.135 201.002 171.234C200.878 172.025 200.483 172.619 199.717 172.94H199.742Z" fill="#EB94A8"/>
<path d="M180.791 172.322L180.742 172.94C179.976 172.619 179.581 172.025 179.457 171.234C180.297 171.135 180.717 171.531 180.791 172.347V172.322Z" fill="#EA93A7"/>
<path d="M196.159 174.671L196.802 174.72C196.406 175.437 195.863 175.882 194.998 175.808C195.023 175.066 195.443 174.695 196.184 174.671H196.159Z" fill="#EE83A8"/>
<path d="M367.833 242.166C365.584 242.932 363.682 242.709 363.287 239.965C363.039 238.21 365.412 237.765 365.659 236.133C366.276 236.702 367.709 240.732 367.833 242.19V242.166Z" fill="#E51C51"/>
<path d="M399.879 269.435C399.731 270.301 400.225 271.735 398.743 271.611C396.939 271.438 396.198 270.078 396.297 268.298C397.68 268.1 398.446 269.781 399.879 269.435V269.435Z" fill="#E51A54"/>
<path d="M379.866 259.867C376.876 260.461 375.64 259.274 376.233 256.258C377.889 257.024 379.05 258.26 379.866 259.867Z" fill="#E61A51"/>
<path d="M403.438 270.622C402.721 270.523 402.252 270.152 402.202 269.411C403.759 269.633 405.612 268.57 406.798 270.449C405.686 270.498 404.549 270.573 403.438 270.622Z" fill="#914E98"/>
<path d="M408.157 231.51V233.982C407.119 233.982 406.428 233.389 405.785 232.696C406.625 232.647 407.243 232.301 407.589 231.51C407.787 231.361 407.984 231.361 408.157 231.51V231.51Z" fill="#EFD8D7"/>
<path d="M365.436 231.485C363.879 230.718 363.879 229.927 365.436 229.161V231.485Z" fill="#E61D47"/>
<path d="M449.593 119.735C446.925 119.735 444.849 118.672 443.663 116.2C445.294 115.903 446.776 117.213 448.432 116.719C450.408 117.832 452.385 116.892 454.362 116.719C455.202 116.793 455.572 117.238 455.474 118.079C455.375 118.994 454.584 118.87 453.991 119.142C452.558 119.785 450.853 118.202 449.593 119.735Z" fill="#E61C50"/>
<path d="M454.362 116.719C452.78 118.425 450.038 118.425 448.432 116.719H449.618C450.507 116.027 451.298 115.236 451.99 114.346C453.818 114.098 454.609 114.865 454.362 116.719Z" fill="#E61C48"/>
<path d="M451.99 114.346C452.261 116.175 451.471 116.966 449.618 116.719C449.346 114.89 450.136 114.098 451.99 114.346Z" fill="#E61A51"/>
<path d="M408.157 231.51C407.96 231.51 407.762 231.51 407.589 231.51C406.897 230.941 405.439 230.545 406.378 229.408C406.897 228.765 408.38 228.79 409.047 229.606C409.689 230.397 409.417 231.312 408.157 231.51Z" fill="#FCE1CA"/>
<path d="M417.645 230.323C417.052 232.474 415.273 231.114 414.087 231.51C414.68 229.359 416.459 230.719 417.645 230.323Z" fill="#FCE2CB"/>
<path d="M401.658 224.513C401.683 222.535 401.732 220.533 401.757 218.555C402.844 220.359 401.905 222.362 402.325 224.241C402.103 224.34 401.881 224.414 401.658 224.513V224.513Z" fill="#8D9AC6"/>
<path d="M414.26 231.411C413.568 232.894 412.876 232.845 411.888 232.128C412.555 231.263 413.42 231.633 414.26 231.411Z" fill="#FCE2CB"/>
<path d="M418.51 233.29C418.435 233.809 418.04 233.809 417.645 233.809C417.274 233.809 416.805 233.784 416.805 233.265C416.805 232.746 417.274 232.746 417.645 232.746C418.015 232.746 418.435 232.746 418.485 233.29H418.51Z" fill="#FBDCD7"/>
<path d="M417.645 230.323C417.892 228.79 418.756 229.186 419.844 229.433C419.251 230.669 418.336 230.175 417.645 230.323Z" fill="#FBE5C7"/>
<path d="M414.581 155.139C414.359 151.703 415.643 148.563 416.681 145.374C417.101 148.86 416.187 152.074 414.581 155.139Z" fill="#F2F0EF"/>
<path d="M417.348 138.846C417.768 140.602 417.892 141.962 417.002 143.247C416.557 141.887 415.989 140.503 417.348 138.846Z" fill="#F3F0EF"/>
<path d="M417.249 182.236C416.384 183.2 415.445 183.076 414.284 182.607C415.248 181.321 416.31 182.038 417.249 182.236Z" fill="#EB577B"/>
<path d="M215.753 146.758C215.382 145.176 216.247 143.742 216.346 142.159C216.395 141.492 216.914 140.775 217.73 141.096C218.397 141.344 218.619 141.912 218.446 142.778C217.828 145.744 217.73 148.761 218.57 151.727C218.743 152.37 218.841 153.161 217.903 153.384C217.013 153.606 216.494 152.914 216.445 152.296C216.297 150.442 215.407 148.686 215.753 146.758Z" fill="#ECF1F4"/>
<path d="M217.383 137.141C217.631 135.88 217.729 134.421 219.237 133.951C219.928 133.729 220.694 134.643 220.324 135.212C219.582 136.424 220.126 138.574 218.075 138.772C217.211 138.871 217.334 137.833 217.383 137.141Z" fill="#EBEEF1"/>
</g>
<defs>
<clipPath id="clip0_5173_42452">
<rect width="593" height="286" fill="white"/>
</clipPath>
</defs>
</svg>
