<svg width="595" height="297" viewBox="0 0 595 297" fill="none" xmlns="http://www.w3.org/2000/svg">
<g clip-path="url(#clip0_5484_43244)">
<rect width="595" height="297" fill="#7D9AFF"/>
<g clip-path="url(#clip1_5484_43244)">
<path d="M217.938 222.676C229.5 224.505 239.929 229.09 249.328 235.917C269.181 250.343 280.614 270.153 285.893 293.801C286.202 295.192 286.794 296.506 286.511 297.974H111.23C114.707 288.134 118.595 278.499 124.234 269.663C137.701 248.488 155.52 232.671 179.88 225.02C182.094 224.324 184.36 223.835 186.601 223.268C187.708 223.397 187.759 224.299 187.888 225.072C188.043 226.076 187.991 227.132 187.991 228.137C188.017 236.277 190.669 239.394 198.883 240.786C201.742 241.249 204.651 241.223 207.484 240.863C213.072 240.142 216.419 236.149 216.522 230.327C216.445 228.627 216.368 226.952 216.522 225.252C216.625 224.247 216.445 222.959 217.938 222.676V222.676Z" fill="#222223"/>
<path d="M444.153 215.256C455.818 216.364 467.225 218.683 478.452 222.006C480.074 222.495 481.156 223.423 481.928 224.788C489.164 237.823 496.812 250.677 501.73 264.872C505.438 275.588 507.55 286.588 506.88 298H438.359C437.69 296.48 438.153 294.96 438.411 293.466C440.78 279.323 441.784 265.078 441.063 250.78C440.6 241.635 438.849 232.619 435.836 223.912C435.321 222.418 434.523 221.156 433.158 220.331C432.282 218.296 432.257 216.287 433.132 214.252C435.218 212.655 437.381 214.097 439.518 214.097C441.063 214.484 442.608 214.87 444.179 215.282L444.153 215.256Z" fill="#010101"/>
<path d="M311.824 298C314.476 279.092 320.116 261.085 328.098 243.799C331.343 236.767 334.664 229.811 339.48 223.629C341.54 220.975 343.96 219.662 347.127 219.069C358.663 216.905 370.302 216.081 381.993 215.36C382.508 215.334 383.023 215.257 383.512 215.231C384.079 214.973 384.697 215.05 385.289 215.05C389.151 214.999 389.46 215.385 388.92 219.455C383.898 227.467 380.525 236.097 379.572 245.525C378.027 260.724 377.976 275.923 380.268 291.096C380.602 293.363 381.504 295.681 380.345 298H311.824V298Z" fill="#010101"/>
<path d="M380.345 298C378.748 288.314 377.564 278.551 377.512 268.736C377.486 258.715 377.435 248.591 379.778 238.802C381.297 232.542 383.177 226.231 387.065 220.847C387.4 220.357 387.889 219.971 388.276 219.559C389.512 220.744 389.048 222.212 388.894 223.629C388.61 225.87 388.353 228.111 389.1 230.327C392.447 233.392 396.799 233.521 400.893 234.088C410.266 235.376 419.536 234.036 428.729 232.439C432.643 231.769 432.978 231.099 433.184 227.132C433.312 224.814 432.36 222.47 433.467 220.177C435.398 220.177 435.99 221.594 436.531 223.088C439.055 230.198 440.316 237.591 441.501 245.036C442.788 253.202 442.299 261.42 441.964 269.56C441.578 279.117 440.548 288.649 438.385 298H380.37H380.345Z" fill="#F7F2F0"/>
<path d="M217.372 230.765C217.501 236.277 213.458 241.172 208.025 241.764C202.128 242.409 196.463 241.945 191.159 238.776C188.403 237.128 186.987 235.247 187.039 231.95C187.09 229.064 187.708 226.102 186.575 223.243C187.605 220.976 186.987 218.58 187.064 216.261C187.116 214.458 185.906 214.896 184.695 214.973C172.567 215.952 160.439 217.034 148.311 217.781C142.208 218.142 141.281 216.802 141.435 210.697C141.719 199.131 141.873 187.538 142.131 175.972C142.156 174.246 141.822 173.447 139.813 173.318C134.715 172.983 131.213 170.227 129.513 165.435C127.891 160.824 128.921 156.6 132.037 152.916C133.144 151.602 134.586 150.546 135.873 149.387C136.388 148.614 137.238 148.459 138.011 148.33C148.723 146.476 157.4 140.602 165.666 134.11C179.082 123.574 189.742 110.642 198.188 95.8815C198.858 94.7223 199.45 93.4858 200.918 93.1252C211.733 92.0174 222.625 92.172 233.466 91.3477C234.213 92.3523 235.191 92.7387 236.427 92.4296C240.187 91.528 243.998 92.1205 247.783 91.9144C250.564 91.7598 251.62 93.4343 251.877 95.8558C253.577 111.389 255.173 126.949 256.95 142.483C258.881 159.33 260.967 176.152 262.975 192.999C263.31 195.833 263.671 198.693 263.645 201.552C263.645 205.725 261.533 207.606 257.362 207.941C245.234 208.945 233.105 210.027 220.977 211.058C218.325 211.29 216.883 212.191 217.295 215.231C217.604 217.446 217.372 219.739 217.372 222.006C215.364 221.671 216.033 220.022 215.982 218.889C215.698 212.603 215.724 212.552 209.518 213.093C205.244 213.453 200.969 214.02 196.669 214.355C193.965 214.561 193.605 215.386 195.176 217.627C199.579 223.964 205.836 227.338 213.201 228.987C214.668 229.322 216.291 229.348 217.346 230.739L217.372 230.765Z" fill="#F3CDB1"/>
<path d="M345.117 183.777C341.409 183.803 337.701 183.726 334.019 183.932C331.83 184.061 330.826 183.185 330.311 181.201C327.273 169.197 324.646 157.012 325.599 144.672C327.195 123.884 331.65 103.661 340.972 84.753C342.311 82.0224 344.19 79.8069 346.508 77.9264C366.747 61.5426 389.716 52.5006 415.904 52.3203C424.685 52.2687 433.311 53.6341 441.654 56.5193C472.142 67.0811 489.961 89.3126 498.768 119.401C504.458 138.902 503.918 158.764 500.235 178.599C499.926 180.248 499.308 180.84 497.635 180.763C490.038 180.403 482.442 181.356 474.846 180.66C472.786 178.316 473.455 175.431 473.301 172.7C473.301 168.862 473.558 165.023 472.992 161.185C472.863 160.361 472.992 159.562 473.378 158.841C474.382 157.295 476.108 156.754 477.524 155.775C483.292 151.834 485.815 146.218 484.373 140.293C483.421 136.377 481 133.621 477.498 131.715C475.876 130.839 474.048 130.401 472.4 129.577C469.567 129.113 468.074 127.67 468.408 124.579C468.692 121.874 467.069 122.106 465.267 122.802C458.443 123.368 451.722 122.183 445.002 121.565C428.29 119.994 411.784 117.16 395.562 112.781C380.833 108.788 366.438 103.919 353.718 95.1603C351.529 93.6404 349.366 92.069 347.177 89.9824C347.177 95.7528 347.821 101.111 348.182 106.495C348.877 116.825 349.649 127.155 350.422 137.485C351.169 147.3 351.812 157.141 352.585 166.955C352.945 171.438 353.486 175.946 353.435 180.454C353.435 182.515 352.765 183.726 350.345 183.52C348.645 183.365 346.868 183.236 345.143 183.674L345.117 183.777Z" fill="#010101"/>
<path d="M345.117 183.777C346.92 183.107 348.774 183.494 350.602 183.442C352.044 183.391 352.791 183.185 352.636 181.381C351.812 170.948 351.168 160.515 350.422 150.082C349.495 137.305 348.516 124.502 347.589 111.724C347.023 103.867 346.482 96.0103 345.89 87.7153C349.289 90.8581 352.533 93.6403 356.164 95.933C367.648 103.12 380.266 107.628 393.218 111.286C416.239 117.778 439.8 120.844 463.619 122.312C464.237 122.338 464.855 122.286 465.473 122.26C466.348 122.57 466.709 123.265 466.889 124.115C467.018 124.733 467.069 125.352 467.043 125.944C466.709 140.628 467.584 155.286 467.661 169.969C467.687 174.838 467.198 175.482 462.563 177.079C447.885 182.103 432.77 184.859 417.346 186.121C415.234 186.302 413.586 185.889 412.119 184.241C409.801 181.639 406.711 182 403.801 182.721C401.613 183.262 400.917 187.255 402.256 190.011C402.72 190.939 403.595 191.583 403.956 192.561C403.158 194.468 401.407 193.927 399.99 194.004C396.154 194.21 392.214 193.515 388.48 194.983C388.506 192.922 387.064 193.128 385.699 193.128C377.073 193.128 368.447 193.102 359.82 193.077C354.31 193.077 353.306 192.175 353.228 186.765C353.203 184.704 352.585 183.726 350.37 183.88C348.645 184.009 346.894 183.803 345.143 183.751L345.117 183.777Z" fill="#F9D9C7"/>
<path d="M200.145 93.8977C188.737 114.867 173.262 131.998 152.43 144.002C147.306 146.965 141.795 148.768 135.898 149.438C127.993 146.398 125.804 139.288 124.285 132.178C121.169 117.623 125.985 105.232 136.285 94.9539C146.147 85.1133 158.327 80.296 172.18 79.5747C181.682 77.4624 190.385 80.2703 198.857 84.0313C202.977 85.8603 203.415 90.4458 200.119 93.8719L200.145 93.8977Z" fill="#754E3D"/>
<path d="M388.456 195.034C389.048 193.54 390.078 193.128 391.7 193.102C395.717 193.025 399.786 193.721 403.777 192.69C406.326 191.866 408.978 192.433 411.553 192.124C416.858 192.381 422.162 192.149 427.467 192.252C429.321 192.278 431.175 192.304 432.411 194.03C433.312 196.76 433.93 199.517 433.415 202.428C431.252 206.653 427.621 209.512 424.068 212.423C414.386 220.332 403.648 226.385 391.829 230.533C390.722 230.919 389.563 231.64 388.327 230.842C387.194 228.42 387.889 225.947 388.044 223.5C388.121 222.212 388.224 220.898 388.301 219.61C388.215 216.742 386.619 215.3 383.512 215.282C383.666 215.154 383.821 214.948 383.975 214.922C388.25 214.097 388.224 214.097 388.25 209.692C388.275 204.824 388.353 199.955 388.43 195.06L388.456 195.034Z" fill="#E0B49A"/>
<path d="M432.05 194.442C431.072 193.437 429.913 193.102 428.497 193.128C423.707 193.205 418.918 193.18 414.128 193.128C413.15 193.128 412.068 193.437 411.219 192.639C411.914 189.547 413.768 188.131 417.012 187.821C432.565 186.327 447.964 183.983 462.796 178.805C464.058 178.367 465.319 177.929 466.53 177.388C468.1 176.693 468.924 175.534 468.899 173.782C468.693 161.391 469.491 148.974 468.435 136.583C468.306 135.141 468.281 133.724 468.332 132.281C468.461 128.598 468.95 128.263 472.916 129.035C476.34 130.195 479.611 131.56 482.083 134.368C487.799 140.885 486.435 150.417 478.941 155.852C477.448 156.934 475.774 157.707 474.177 158.635C472.349 156.96 472.195 153.044 473.869 151.035C474.126 150.726 474.461 150.468 474.77 150.185C478.864 146.321 478.967 145.007 475.491 140.679C475.182 140.267 474.899 139.855 474.435 139.597C473.663 139.159 472.864 138.387 471.937 138.902C470.959 139.443 471.345 140.525 471.294 141.401C471.242 142.431 471.551 143.41 471.808 144.415C472.658 153.92 472.864 163.503 474.126 172.983C474.383 175.559 474.615 178.135 474.873 180.711C475.13 182.927 475.439 185.142 475.671 187.358C475.903 189.573 475.13 190.81 472.916 192.02C467.457 195.009 461.714 193.051 456.152 193.772C455.148 194.313 454.479 195.627 453.011 195.009C446.754 194.468 440.522 193.36 434.239 194.442C433.518 194.571 432.823 194.519 432.128 194.416L432.05 194.442Z" fill="#F9D8C6"/>
<path d="M200.146 93.8979C200.326 93.4342 200.558 92.9448 200.712 92.4553C202.412 87.3805 201.639 85.9894 196.798 83.9543C188.919 80.6312 180.73 79.2658 172.207 79.575C189.64 72.6969 206.789 72.2332 223.372 82.0995C227.364 84.4695 230.917 87.432 233.518 91.3734C233.26 92.919 232.024 92.4811 231.097 92.5326C220.772 92.9963 210.472 93.4342 200.146 93.8722V93.8979Z" fill="#9C6247"/>
<path d="M217.372 230.765C212.891 229.76 208.437 228.833 204.265 226.72C199.707 224.428 196.463 220.847 193.527 216.88C191.751 214.484 193.476 213.814 195.356 213.608C200.119 213.067 204.883 212.681 209.673 212.243C209.982 212.217 210.291 212.243 210.6 212.243C216.78 211.908 216.754 211.908 216.831 218.193C216.831 219.456 216.342 220.873 217.398 222.006C217.578 222.212 217.784 222.444 217.964 222.65C216.599 225.252 217.887 228.06 217.372 230.739V230.765Z" fill="#BA9375"/>
<path d="M453.808 194.931C454.4 194.236 454.375 192.304 456.074 193.772C455.379 198.564 451.362 201.088 448.735 204.566C446.727 207.219 444.409 209.615 442.993 212.681C442.324 214.123 442.53 214.922 444.126 215.231C442.581 215.36 441.01 215.72 439.568 214.767C440.882 208.919 445.053 204.901 448.735 200.573C450.383 198.667 451.645 196.4 453.782 194.906L453.808 194.931Z" fill="#272727"/>
<path d="M388.326 230.816C402.102 226.54 414.359 219.636 425.38 210.285C428.058 208.018 430.118 205.236 432.719 202.943C434.161 206.678 434.805 210.465 433.492 214.355C433.492 216.287 433.492 218.219 433.492 220.151C434.341 223.268 434.007 226.462 434.058 229.605C434.11 232.465 431.818 232.774 429.835 233.134C425.921 233.856 422.007 234.5 418.067 234.886C408.772 235.814 399.527 235.865 390.566 232.593C389.614 232.233 388.532 232.052 388.352 230.764L388.326 230.816Z" fill="#F9D9C7"/>
<path d="M197.699 138.284C205.399 135.965 212.918 136.3 219.973 140.37C224.145 142.766 225.638 146.012 224.685 149.387C224.428 150.314 223.99 151.087 223.321 151.757C217.733 157.424 210.935 160.721 203.133 162.035C202.772 162.087 202.36 161.855 201.974 161.752C199.219 159.717 199.167 156.471 198.472 153.586C197.416 149.232 197.442 144.698 197.056 140.267C196.978 139.546 197.21 138.85 197.725 138.309L197.699 138.284Z" fill="#010101"/>
<path d="M197.7 138.284C198.318 146.244 198.421 154.307 201.975 161.752C195.82 163.684 186.087 160.67 182.817 155.878C180.448 152.375 180.679 150.262 183.46 147.12C187.323 142.74 192.344 140.267 197.7 138.309V138.284Z" fill="#F7F3F1"/>
<path d="M219.818 192.613C213.818 192.535 208.797 189.187 206.788 183.931C206.325 182.746 206.145 181.561 206.196 180.325C206.248 179.166 206.814 178.341 207.87 177.981C209.054 177.568 209.853 178.316 210.471 179.166C210.805 179.655 211.011 180.273 211.192 180.84C213.02 186.43 218.582 189.006 223.989 186.765C229.526 184.447 231.611 178.908 228.908 173.627C228.109 172.056 226.899 170.381 229.139 169.119C231.38 167.882 232.59 169.557 233.491 171.231C236.015 175.817 235.963 180.479 233.414 185.039C230.787 189.753 225.38 192.716 219.792 192.638L219.818 192.613Z" fill="#EB5975"/>
<path d="M209.081 115.975C201.279 116.181 195.047 119.195 190.824 125.944C190.181 126.975 189.563 128.494 188.095 127.516C186.73 126.614 187.734 125.352 188.327 124.295C195.202 112.446 213.278 109.148 223.81 117.83C224.737 118.602 226.153 119.452 225.123 120.792C224.016 122.235 222.883 120.844 221.982 120.174C218.145 117.34 213.896 115.82 209.081 115.949V115.975Z" fill="#764F3E"/>
<path d="M142.698 160.876C142.698 161.7 142.775 162.524 142.698 163.323C142.569 164.379 143.342 165.899 142.08 166.363C140.87 166.801 139.557 166.028 138.501 165.203C134.819 162.292 135.128 157.578 139.119 155.492C141.591 154.204 142.672 154.822 142.724 157.527C142.724 158.634 142.724 159.768 142.724 160.876H142.698Z" fill="#C99A77"/>
<path d="M182.301 163.4C181.606 163.4 181.349 162.911 181.246 162.421C181.117 161.854 181.4 161.365 181.941 161.262C182.61 161.133 182.791 161.674 182.842 162.215C182.894 162.705 182.919 163.245 182.301 163.4V163.4Z" fill="#EE7644"/>
<path d="M177.099 164.508C176.455 164.328 176.017 163.941 176.069 163.194C176.094 162.756 176.326 162.344 176.815 162.422C177.485 162.525 177.871 163.04 177.845 163.71C177.845 164.122 177.588 164.457 177.073 164.482L177.099 164.508Z" fill="#EE7341"/>
<path d="M224.993 155.234C225.714 155.466 226.101 155.852 225.895 156.419C225.792 156.728 225.302 157.089 225.019 157.063C224.478 157.011 224.118 156.522 224.272 155.955C224.375 155.646 224.787 155.44 224.993 155.234V155.234Z" fill="#EE713E"/>
<path d="M174.138 159.459C174.035 159.82 173.984 160.257 173.469 160.283C172.877 160.309 172.568 159.871 172.49 159.407C172.413 158.995 172.722 158.686 173.186 158.66C173.778 158.609 174.087 158.892 174.138 159.459Z" fill="#EE713F"/>
<path d="M227.801 152.813C227.75 153.276 227.415 153.56 227.029 153.508C226.539 153.431 226.153 153.045 226.179 152.478C226.179 151.937 226.642 151.834 227.003 151.86C227.569 151.86 227.904 152.194 227.801 152.813Z" fill="#ED6F3C"/>
<path d="M179.057 160.206C178.439 160.206 178.181 159.948 178.027 159.562C177.872 159.098 178.027 158.763 178.49 158.66C179.031 158.532 179.546 158.686 179.546 159.33C179.546 159.639 179.185 159.974 179.031 160.206H179.057Z" fill="#ED6B38"/>
<path d="M236.376 156.239C236.505 156.445 236.865 156.728 236.865 157.038C236.865 157.45 236.428 157.785 236.041 157.63C235.758 157.527 235.423 157.115 235.372 156.78C235.269 156.239 235.732 156.187 236.35 156.213L236.376 156.239Z" fill="#ED6A36"/>
<path d="M234.059 153.405C234.162 152.916 234.239 152.452 234.78 152.606C234.986 152.658 235.243 152.993 235.243 153.225C235.243 153.611 235.115 154.075 234.574 153.946C234.342 153.894 234.188 153.56 234.033 153.405H234.059Z" fill="#EF7A49"/>
<path d="M472.889 129.061C469.876 128.366 469.103 129.602 469.284 132.565C470.082 145.986 469.721 159.433 470.03 172.88C470.108 176.152 468.975 177.543 466.039 178.625C455.147 182.592 443.946 185.271 432.487 186.92C426.822 187.744 421.08 188.234 415.389 188.8C414.23 188.903 413.432 189.238 413.2 190.449C412.968 191.557 412.17 192.175 411.192 192.613C408.72 193.283 406.248 193.334 403.776 192.639C400.402 190.835 399.269 184.498 401.922 182.154C403.647 180.634 411.269 180.918 412.247 182.927C413.586 185.632 415.492 185.323 417.809 185.142C433.259 183.829 448.4 181.021 463.104 175.946C465.679 175.07 466.76 174.014 466.683 171.025C466.297 155.543 466.194 140.035 465.988 124.527C465.988 123.703 466.091 122.879 465.447 122.209C466.425 121.848 467.095 120.431 468.408 121.256C469.464 121.9 469.387 123.085 469.181 124.038C468.434 127.258 470.133 128.52 472.889 129.035V129.061Z" fill="#232323"/>
<path d="M474.073 173.009C472.322 167.239 471.653 161.314 471.756 155.337C471.833 151.473 470.314 147.712 471.035 143.822C471.601 140.216 473.095 139.134 475.927 140.293C479.918 143.797 479.893 146.862 475.876 150.366C473.301 152.607 472.786 155.131 474.15 158.686C473.017 160.129 474.073 161.571 474.099 163.04C474.176 166.363 474.099 169.712 474.047 173.035L474.073 173.009Z" fill="#242424"/>
<path d="M388.276 157.965C380.036 160.85 372.105 159.794 364.611 155.646C360.929 153.611 359.925 147.583 362.603 143.745C367.418 136.867 374.68 134.574 382.636 133.956C383.048 133.93 383.512 134.368 383.95 134.6C385.16 135.398 385.392 136.764 385.778 138.026C387.426 143.719 388.43 149.515 388.919 155.414C388.997 156.342 389.048 157.243 388.276 157.965V157.965Z" fill="#4A261C"/>
<path d="M388.275 157.965C387.889 149.979 386.189 142.251 383.949 134.6C388.43 132.951 392.781 134.059 396.979 135.553C399.76 136.532 402.438 137.923 404.317 140.37C405.193 141.529 406.017 142.663 405.064 144.234C401.099 150.829 395.974 155.981 388.224 157.965H388.275Z" fill="#F8F3F0"/>
<path d="M449.534 157.991C449.482 167.548 441.86 175.276 431.431 176.306C422.857 177.157 413.664 170.33 411.836 161.7C411.527 160.206 411.269 158.66 411.192 157.14C411.089 155.26 411.604 153.405 413.844 153.379C416.033 153.379 416.162 155.157 416.239 156.934C416.522 162.859 419.174 167.419 424.685 169.866C429.912 172.21 434.959 171.463 439.44 167.908C442.478 165.513 444.152 162.267 444.512 158.403C444.59 157.475 444.513 156.548 444.693 155.646C444.95 154.307 445.826 153.379 447.268 153.457C448.684 153.534 449.482 154.41 449.534 155.878C449.534 156.599 449.534 157.321 449.534 158.042V157.991Z" fill="#DF3B39"/>
<path d="M402.952 125.944C402.9 128.134 400.892 129.036 398.342 127.825C390.798 124.244 382.944 123.883 374.91 125.326C370.558 126.099 366.412 127.593 362.576 129.834C360.928 130.813 359.202 131.303 357.992 129.448C356.705 127.49 358.018 126.125 359.666 125.223C372.644 118.19 386.008 116.799 399.836 122.544C402.205 123.523 402.977 124.553 402.952 125.944V125.944Z" fill="#030303"/>
<path d="M475.929 140.267C472.993 139.649 471.963 141.658 471.036 143.796C470.418 143.255 470.367 142.483 470.496 141.813C470.779 140.448 469.466 138.284 471.448 137.846C473.122 137.485 475.028 138.387 475.929 140.267V140.267Z" fill="#DEB399"/>
<path d="M201.742 148.356C202.798 151.679 204.086 154.976 204.008 158.583C202.309 155.389 201.227 152.066 201.742 148.356Z" fill="#F4F0EE"/>
<path d="M201.433 146.166C200.455 144.75 200.661 143.384 201.176 141.993C202.386 143.358 201.819 144.775 201.433 146.166Z" fill="#F4F0EE"/>
<path d="M382.199 147.3C382.173 146.733 382.199 145.831 383.254 145.703C384.31 145.574 384.568 146.347 384.671 147.274C384.98 149.799 385.392 152.323 385.752 154.822C385.881 155.749 385.546 156.548 384.593 156.625C383.795 156.677 383.512 155.955 383.383 155.157C383.048 152.632 382.611 150.108 382.199 147.3V147.3Z" fill="#E7F0F7"/>
<path d="M382.044 138.67C383.538 139.443 383.718 141.014 383.95 142.457C384.078 143.178 383.306 144.002 382.585 143.693C381.091 143.049 381.014 141.426 380.731 140.061C380.551 139.237 381.066 138.747 382.044 138.67Z" fill="#E3ECF4"/>
</g>
</g>
<defs>
<clipPath id="clip0_5484_43244">
<rect width="595" height="297" fill="white"/>
</clipPath>
<clipPath id="clip1_5484_43244">
<rect width="618" height="298" fill="white" transform="translate(-16)"/>
</clipPath>
</defs>
</svg>
