<svg width="595" height="287" viewBox="0 0 595 287" fill="none" xmlns="http://www.w3.org/2000/svg">
<path d="M0.0495833 286.256C0.0495833 191.755 0.074375 97.2297 0 2.72908C0 0.496196 0.495833 0 2.72708 0C199.895 0.0496196 397.088 0.0496196 594.256 0.0496196C594.802 1.06682 594.529 2.18326 594.529 3.25009C594.529 96.4358 594.529 189.621 594.529 282.832C594.529 286.801 595.025 286.529 590.909 286.529C561.804 286.529 532.699 286.529 503.593 286.529C501.411 286.132 501.957 284.321 501.957 283.006C501.957 274.347 500.668 265.862 497.941 257.675C494.346 246.858 489.611 236.562 483.809 226.737C482.148 223.933 480.438 221.155 479.049 218.202C477.835 215.622 475.926 214.084 473.124 213.315C463.207 210.561 453.117 208.725 442.903 207.485C442.209 207.41 441.515 207.336 440.92 206.939C440.3 206.294 440.25 205.525 440.374 204.706C440.821 203.267 441.589 201.952 442.283 200.637C446.002 195.774 450.365 191.408 453.564 186.123C453.836 185.974 454.134 185.875 454.431 185.826C458.646 185.503 462.86 185.925 467.075 185.602C467.248 185.379 467.422 185.156 467.596 184.932C468.116 184.312 468.81 183.94 469.529 183.617C471.711 182.7 472.232 181.087 471.835 178.829C471.513 176.993 470.422 175.058 471.835 173.197C473.025 172.503 474.314 172.652 475.603 172.652C481.132 172.652 486.685 172.627 492.214 172.652C494.197 172.652 495.387 171.982 495.734 169.922C499.304 147.321 499.131 125.017 490.33 103.482C482.446 84.2293 469.306 69.5667 451.208 59.2707C450.514 58.8737 449.82 58.5264 449.25 57.9557C448.481 57.2611 448.332 55.6236 446.671 56.219C446.101 56.2439 445.655 56.0702 445.432 55.5244C445.68 53.8125 444.787 54.8793 444.242 55.053C443.82 55.1522 443.399 55.1274 443.002 55.0282C440.622 54.1846 438.416 52.5968 435.689 53.1674C433.284 53.1923 431.003 52.3735 428.673 52.0014C413.624 49.5204 398.898 50.9097 384.444 55.6484C383.403 55.9958 382.411 56.4175 381.296 56.4423C379.684 55.7229 378.544 56.5664 377.478 57.658C372.222 60.5608 366.669 62.8433 361.537 66.0437C356.851 68.9713 352.389 72.1966 348.125 75.7196C346.34 77.1833 344.926 78.92 343.91 80.9792C343.389 82.0213 342.918 83.1377 341.827 83.7828C339.894 84.7007 341.009 86.5615 340.538 87.9508C335.778 100.604 332.655 113.629 330.349 126.927C327.696 142.111 329.655 156.872 333.15 171.56C334.068 175.43 334.464 175.529 338.481 175.579C342.447 175.629 346.364 174.661 350.331 174.984C351.595 175.083 352.909 174.884 354.099 175.579C354.521 175.926 354.719 176.398 354.843 176.894C355.289 178.755 354.298 180.888 355.81 182.575C357.471 184.337 359.628 184.436 361.81 184.461C370.164 184.511 378.544 184.337 386.899 184.56C387.444 184.635 387.99 184.734 388.461 185.032C388.758 185.255 388.981 185.528 389.13 185.875C389.775 189.745 389.576 193.641 389.254 197.536C388.733 199 388.882 200.587 388.585 202.101C388.51 205.326 387.196 207.36 383.676 207.41C377.255 208.105 370.859 208.998 364.388 208.824C363.148 208.775 361.909 208.626 360.694 208.899C360.421 208.998 360.124 209.072 359.826 209.122C358.81 209.271 357.769 209.395 356.777 209.717C354.149 210.189 351.595 210.958 348.943 211.305C345.943 211.702 343.736 213.216 341.877 215.672C336.225 223.065 332.779 231.6 328.961 239.936C323.085 252.862 319.391 266.433 316.714 280.351C316.292 282.509 316.837 285.214 314.309 286.628C306.698 286.628 299.111 286.628 291.5 286.628C289.344 286.405 289.666 284.544 289.393 283.254C286.517 269.534 281.261 256.856 272.832 245.617C260.436 229.069 244.421 218.153 223.869 214.406C223.546 214.282 223.299 214.059 223.1 213.811C222.827 213.364 222.704 212.868 222.654 212.347C222.679 209.32 222.034 206.269 223.15 203.316C223.646 202.721 224.34 202.547 225.059 202.473C226.72 202.398 228.406 202.448 230.067 202.423C231.257 202.349 232.496 202.721 233.587 201.977C233.835 201.803 234.108 201.679 234.405 201.555C235.298 201.257 236.24 201.257 237.182 201.232C238.124 201.232 239.066 201.232 240.008 201.232C240.628 201.232 241.248 201.232 241.867 201.232C243.529 201.158 245.19 201.456 246.826 200.96C247.396 200.761 247.966 200.538 248.536 200.364C249.28 200.166 250.024 200.091 250.792 200.091C251.387 200.091 252.007 200.091 252.602 200.091C253.941 200.066 255.28 200.24 256.569 199.769C257.288 199.57 258.007 199.347 258.726 199.148C259.916 198.875 261.131 198.9 262.321 198.9C264.23 198.975 265.965 198.627 267.006 196.767C268.147 194.683 267.676 192.4 267.8 190.192C267.651 188.381 268.221 186.545 267.329 184.808C267.155 184.535 267.031 184.263 266.907 183.965C266.51 182.551 266.61 181.112 266.61 179.698C266.61 178.457 266.734 177.217 266.287 176.026C266.064 175.108 265.915 174.19 265.643 173.272C265.345 171.858 265.42 170.394 265.395 168.955C265.32 167.119 265.816 165.233 264.973 163.447C264.8 163.174 264.651 162.901 264.552 162.604C264.18 161.363 264.254 160.073 264.205 158.783C263.808 156.649 265.221 154.292 263.411 152.332C263.04 147.643 261.552 143.078 261.825 138.315C261.825 136.777 262.048 135.214 261.651 133.7C261.453 133.154 261.255 132.584 261.056 132.038C260.932 131.641 260.833 131.219 260.808 130.773C260.759 129.929 260.66 129.11 260.412 128.316C260.288 127.771 260.288 127.2 260.412 126.654C260.883 125.24 260.61 123.751 260.932 122.312C260.982 122.064 260.982 121.891 260.932 121.891C260.833 121.915 260.784 121.99 260.684 122.064C260.387 122.064 260.164 121.94 259.99 121.717C259.519 120.824 259.494 119.831 259.271 118.889C259.172 118.169 259.346 117.499 259.445 116.805C259.544 115.589 259.668 114.373 259.197 113.182C258.999 112.661 258.775 112.14 258.602 111.619C258.329 110.503 258.304 109.362 258.056 108.245C257.957 107.526 258.131 106.831 258.23 106.112C258.329 104.846 258.453 103.581 257.932 102.39C257.709 101.844 257.461 101.274 257.313 100.703C257.04 99.4626 257.065 98.1973 257.04 96.9568C256.99 94.972 257.387 92.9624 256.742 91.0024C256.495 90.6303 256.197 90.2829 255.85 89.9852C254.09 88.4222 251.933 88.9432 249.9 88.8688C248.214 88.8191 246.553 88.8688 244.867 88.8688C243.008 88.6703 240.975 89.2409 239.388 87.7771C238.719 87.2065 238.149 86.5615 237.529 85.966C236.736 85.0729 235.868 84.2293 234.975 83.4106C231.951 80.4334 228.059 78.7712 224.588 76.4639C223.844 75.8188 222.927 75.5955 222.034 75.3226C219.729 74.4791 217.423 73.6852 215.068 73.0153C213.803 72.4199 212.514 72.0477 211.101 72.2214C208.647 72.2214 206.192 72.3454 203.738 72.2214C195.73 71.8492 188.243 74.0573 180.806 76.6127C179.343 77.0345 177.831 76.9601 176.318 76.9601C174.608 76.8112 172.947 76.8856 171.385 77.7044C160.08 80.7808 150.262 86.2886 142.8 95.493C138.833 100.381 136.503 106.136 134.743 112.116C133.528 116.581 133.553 121.047 134.743 125.513C135.561 128.217 136.305 130.946 137.47 133.551C139.106 137.173 141.015 140.548 144.932 142.21C145.378 142.408 145.676 142.83 145.825 143.302C145.453 144.889 143.99 145.559 142.998 146.626C139.18 150.794 138.66 156.798 141.709 161.388C143.321 163.794 145.725 164.762 148.378 165.407C149.494 165.68 150.808 165.506 151.502 166.796C152.122 169.277 151.7 171.783 151.849 174.264C151.849 182.575 151.849 190.862 151.849 199.173C151.948 201.059 151.849 202.92 151.899 204.805C151.923 206.988 152.543 208.576 155.221 208.254C157.898 208.204 160.576 208.204 163.253 208.229C164.245 208.328 165.236 208.278 166.228 208.303C167.79 208.254 169.352 208.551 170.889 208.006C171.484 207.782 172.079 207.559 172.674 207.385C173.79 207.112 174.905 207.112 176.046 207.112C177.012 207.112 177.979 207.112 178.946 207.112C180.186 207.112 181.45 207.112 182.69 207.137C184.004 207.956 184.376 206.542 185.169 206.095C187.4 205.599 189.656 205.797 191.887 205.847C195.16 205.921 195.78 206.591 195.904 209.866C195.953 211.132 195.978 212.397 195.656 213.637C195.234 215.027 193.97 215.176 192.854 215.473C176.294 219.641 162.41 228.201 150.312 240.184C138.015 252.365 129.859 266.929 123.934 282.956C123.339 284.544 123.264 286.653 120.735 286.578C81.6885 286.578 42.6665 286.578 3.61958 286.578C2.45437 286.578 1.23958 286.876 0.123958 286.305L0.0495833 286.256Z" fill="#B379B1"/>
<path d="M502.775 286.181C532.475 286.181 562.151 286.181 591.851 286.306C594.603 286.306 594.256 284.817 594.256 283.13C594.256 253.457 594.256 223.785 594.256 194.112C594.256 129.433 594.256 64.729 594.256 0.0498047C595.495 0.595621 594.801 1.66244 594.801 2.43155C594.851 20.642 594.826 38.8524 594.826 57.0628C594.826 132.758 594.826 208.477 594.876 284.172C594.876 286.405 594.38 286.901 592.149 286.901C395.675 286.851 199.176 286.851 2.70191 286.802C1.83421 286.802 0.693789 287.496 0.0244141 286.256C39.5423 286.256 79.085 286.256 118.603 286.256C119.793 286.256 120.983 286.231 122.148 286.206C123.413 285.214 124.925 285.288 126.412 285.288C179.739 285.288 233.066 285.288 286.418 285.288C287.905 285.288 289.418 285.214 290.682 286.181C298.764 286.181 306.871 286.181 314.953 286.181C315.845 285.412 316.936 285.313 318.027 285.313C338.976 285.313 359.9 285.189 380.849 285.363C399.468 285.214 418.111 285.239 436.73 285.338C457.406 285.214 478.082 285.313 498.758 285.288C500.147 285.288 501.56 285.214 502.725 286.181H502.775Z" fill="white"/>
<path d="M225.232 203.019L223.521 203.193C219.704 204.805 215.588 204.557 211.621 205.028C209.093 205.351 206.539 205.674 203.961 205.798C201.531 205.922 201.209 206.765 202.622 208.8C206.713 214.68 212.464 218.054 219.332 219.716C221.117 220.138 223.15 219.989 224.464 221.676C225.43 226.687 221.067 232.195 215.216 232.915C209.217 233.634 203.391 233.064 198.085 229.689C195.532 228.052 193.97 225.993 194.143 222.916C194.317 220.088 193.424 217.185 194.862 214.481C195.094 209.172 192.565 206.583 187.276 206.716C186.309 206.74 185.318 206.84 184.351 206.914C184.103 207.088 183.805 207.187 183.508 207.261C181.252 207.435 178.971 207.187 176.715 207.41C176.442 207.509 176.169 207.658 175.946 207.857L172.426 207.981C171.112 208.477 169.699 208.403 168.36 208.676C167.765 208.849 167.17 208.775 166.55 208.8C165.534 208.899 164.493 208.551 163.501 209.048H154.601C153.088 208.204 152.072 206.864 151.031 205.549L151.105 199.67C151.303 199.372 151.452 199.049 151.551 198.702C151.725 190.837 151.576 182.973 151.626 175.108C151.576 172.503 151.725 169.873 151.551 167.268C151.452 166.97 151.279 166.697 151.055 166.474C146.618 166.276 142.701 165.109 140.395 160.867C137.866 156.178 138.66 150.1 142.428 146.229C143.444 145.187 144.585 144.244 145.676 143.277C146.246 142.458 147.188 142.334 148.031 142.185C159.931 139.828 169.327 132.981 178.252 125.339C189.582 115.664 198.655 104.152 205.969 91.201C206.514 90.2334 207.159 89.3651 208.324 89.0922C218.489 88.2983 228.653 87.6284 238.843 87.8021C240.826 88.8441 242.859 88.5464 244.917 88.0502C247.768 88.0006 250.619 87.9757 253.47 87.9261C254.957 87.9013 256.197 88.2487 256.841 89.7621C257.337 90.5808 257.412 91.4739 257.387 92.3919C257.412 93.5331 257.313 94.6744 257.461 95.8156C257.585 96.2126 257.684 96.6096 257.932 96.9569L258.031 101.051C258.403 102.142 258.577 103.283 258.552 104.449C258.874 105.69 257.883 106.955 258.602 108.196C259.618 109.238 259.023 110.528 259.197 111.719C260.263 114.026 259.321 116.507 259.816 118.889C260.734 119.732 260.263 120.824 260.387 121.816C261.502 123.752 260.684 125.761 260.635 127.721C260.833 128.763 260.783 129.88 261.502 130.797L261.577 131.939C262.271 133.651 262.023 135.462 262.221 137.223C262.345 137.496 262.494 137.744 262.668 137.992C262.37 142.979 264.353 147.743 264.006 152.729C264.428 153.201 264.477 153.747 264.502 154.342C264.552 155.434 264.428 156.55 264.601 157.642C264.725 158.014 264.849 158.411 265.072 158.758L265.171 162.802C266.138 164.167 265.469 165.73 265.791 167.169C266.014 167.714 265.89 168.335 266.262 168.856L266.337 173.495C266.733 175.232 266.783 176.993 266.981 178.755C267.08 179.028 267.229 179.276 267.403 179.524L267.527 184.139C268.593 185.801 267.775 187.686 268.171 189.423C268.27 189.696 268.419 189.969 268.618 190.192C268.518 192.599 269.46 195.179 267.502 197.288C266.064 198.355 264.329 198.876 262.717 199.595L258.651 199.694C256.123 200.662 253.346 199.694 250.842 200.761L248.487 200.91C247.198 201.431 245.809 201.357 244.47 201.605C243.9 201.778 243.33 201.729 242.735 201.704C241.272 201.282 239.76 201.431 238.273 201.505C237.901 201.63 237.504 201.729 237.182 201.952L234.256 202.101C233.463 202.721 232.521 202.597 231.604 202.622C229.695 202.672 227.786 202.523 225.877 202.696C225.654 202.82 225.455 202.944 225.282 203.118L225.232 203.019Z" fill="#F4CDB1"/>
<path d="M443.325 54.631L444.465 54.8791C445.011 54.755 445.482 54.7798 445.606 55.4745C445.903 55.9955 446.424 55.8715 446.87 55.9459C447.862 55.9211 448.581 56.4669 449.25 57.112C458.324 62.2228 466.703 68.1772 473.818 75.8682C483.562 86.4124 490.305 98.6684 494.371 112.363C500.048 131.517 499.825 150.893 496.577 170.394C496.156 172.85 495.238 173.594 492.734 173.52C485.818 173.321 478.901 173.42 471.984 173.42C469.852 171.212 470.546 168.409 470.397 165.779C470.397 162.082 470.645 158.361 470.075 154.689C469.951 153.895 470.075 153.126 470.447 152.431C471.389 150.943 473.075 150.422 474.438 149.479C479.992 145.683 482.421 140.274 481.033 134.593C480.116 130.822 477.785 128.167 474.413 126.331C472.852 125.488 471.116 125.066 469.53 124.272C466.802 123.826 465.365 122.461 465.662 119.484C465.935 116.904 464.373 117.077 462.662 117.772C456.092 118.318 449.622 117.226 443.151 116.581C424.508 114.72 406.112 111.346 388.114 106.012C375.594 102.291 363.719 97.3039 353.083 89.6128C351.72 88.6204 350.505 87.4792 348.968 86.3131C349.042 91.7961 349.612 97.031 349.959 102.266C350.629 111.917 351.397 121.568 352.091 131.244C352.81 140.895 353.43 150.571 354.223 160.222C354.546 164.266 354.918 168.285 355.042 172.354C355.091 173.619 355.24 174.959 354.223 176.001C348.397 176.174 342.547 176.298 336.721 176.571C334.291 176.695 333.324 175.753 332.704 173.371C330.597 165.407 329.506 157.319 328.515 149.181C327.225 138.339 329.382 127.82 331.291 117.251C333.151 107.029 336.274 97.155 339.968 87.4544C340.613 86.0898 340.191 84.2539 341.852 83.3608C344.902 75.9178 351.521 72.0723 357.67 67.7554C363.818 63.4385 370.611 60.2876 377.404 57.1616C378.321 56.591 379.213 55.9211 380.379 56.0203C385.511 54.6558 390.518 52.8695 395.75 51.8523C408.418 49.3961 421.012 49.148 433.631 52.2244C434.4 52.3981 435.193 52.3981 435.962 52.4973C438.565 52.7951 440.87 54.0356 443.35 54.7302L443.325 54.631Z" fill="#010101"/>
<path d="M194.838 214.456C194.863 217.508 194.937 220.559 194.912 223.611C194.912 225.769 195.755 227.332 197.565 228.523C203.019 232.12 209.044 233.014 215.366 232.096C220.547 231.351 224.191 226.762 224.043 221.527C222.704 218.946 222.753 216.366 224.018 213.761C232.348 214.679 240.033 217.656 247.248 221.775C271.122 235.445 284.435 256.558 290.137 282.981C290.36 284.047 290.559 285.089 290.757 286.156C283.245 286.156 275.733 286.206 268.221 286.231C220.745 286.231 173.269 286.231 125.793 286.231C124.603 286.231 123.413 286.206 122.248 286.181C125.992 273.23 132.066 261.446 140.098 250.678C150.436 236.834 163.328 226.117 179.219 219.195C184.227 217.011 189.334 214.927 194.888 214.431L194.838 214.456Z" fill="#222223"/>
<path d="M354.199 175.877C354.149 167.764 353.182 159.725 352.637 151.637C351.819 139.109 350.876 126.604 349.959 114.1C349.24 104.151 348.496 94.2027 347.703 83.7578C351.943 87.8266 356.306 91.1263 361.091 93.8306C375.371 101.894 390.915 106.335 406.757 109.907C424.359 113.877 442.209 115.936 460.183 117.077C461.075 117.127 461.968 117.077 462.86 117.077C464.224 117.623 464.323 118.839 464.422 120.03C464.546 121.717 464.521 123.404 464.472 125.066C464.075 137.62 465.141 150.174 465.067 162.727C465.067 164.29 465.29 165.903 464.298 167.317C463.976 167.615 463.455 167.665 463.331 167.292C462.687 165.208 460.902 164.142 459.39 162.827C458.274 161.785 458.125 160.445 458.15 159.031C458.175 154.888 458.15 150.72 458.15 147.345C458.001 151.489 458.348 156.401 458.001 161.313C456.886 163.397 455.026 163.794 452.944 163.397C451.431 163.1 450.787 162.256 452.15 160.966C457.059 156.302 455.349 150.496 455.423 144.443C452.572 146.279 450.737 147.941 451.184 151.092C451.308 152.034 451.159 153.101 449.969 153.548C448.432 153.449 448.828 152.233 448.804 151.389C448.754 150.124 448.382 149.157 447.242 148.536C446.919 148.313 446.622 148.04 446.349 147.767C445.556 146.948 444.738 146.601 443.796 147.569C443.647 147.792 443.498 147.99 443.325 148.214C442.457 150.074 443.052 152.084 442.854 153.994C442.804 154.937 442.556 155.806 442.159 156.674C438.912 164.439 429.392 166.647 422.797 163.472C422.029 163.025 421.359 162.504 420.69 161.934C420.491 161.735 420.343 161.512 420.219 161.289C419.896 160.321 419.078 159.899 418.26 159.477C416.351 157.666 415.36 155.433 415.211 152.828C415.062 151.216 415.632 149.553 414.74 148.015C414.566 147.817 414.368 147.643 414.194 147.469C412.087 146.403 411.17 147.767 410.922 149.405C410.6 151.414 410.426 153.523 411.74 155.359C413.203 158.932 415.484 161.983 417.839 164.985C419.029 167.615 418.706 168.384 416.029 168.508C414.839 168.558 413.798 169.153 412.608 169.054C411.69 168.682 410.922 168.607 410.699 169.873C410.525 170.964 409.831 171.783 409.112 172.577C408.492 173.172 408.17 174.041 407.377 174.487C407.005 174.636 406.633 174.76 406.236 174.81C401.6 175.38 400.658 176.745 401.526 181.434C401.774 182.749 402.666 184.014 401.749 185.404C397.361 186.793 392.998 186.843 388.609 185.404V185.354C388.262 183.865 387.841 184.833 387.419 185.304C378.147 185.304 368.875 185.304 359.578 185.329C357.545 185.329 355.984 184.511 354.794 182.898C353.926 180.988 354.942 178.903 354.199 176.968L354.149 175.901L354.199 175.877Z" fill="#F9DAC6"/>
<path d="M502.775 286.181C480.834 286.181 458.894 286.181 436.953 286.181C436.234 284.966 436.532 283.676 436.73 282.435C438.813 269.633 439.879 256.782 439.482 243.806C439.184 234.18 437.523 224.777 434.548 215.597C434.102 214.208 433.755 212.695 432.268 211.926C430.706 210.04 431.028 207.931 431.623 205.822C431.797 205.525 432.069 205.277 432.367 205.103C434.102 204.433 435.714 205.202 437.35 205.475C438.565 205.946 439.978 205.723 441.069 206.591C451.382 207.162 461.348 209.668 471.389 211.876C475.975 212.868 478.554 215.325 480.76 219.418C486.685 230.434 492.933 241.276 497.247 253.085C501.164 263.778 503.172 274.769 502.725 286.181H502.775Z" fill="#010101"/>
<path d="M380.8 286.206C358.859 286.206 336.944 286.206 315.003 286.181C316.689 273.901 319.862 262.017 323.928 250.331C327.275 240.705 331.688 231.55 336.398 222.519C338.134 219.195 340.464 216.267 342.745 213.29C344.183 211.429 346.265 210.834 348.422 210.437C351.323 209.891 354.248 209.445 357.174 208.973C358.116 208.502 359.231 209.122 360.173 208.527C361.314 207.758 362.702 208.576 363.867 207.956L383.924 206.591C385.535 206.393 387.147 206.145 388.758 206.542C389.75 207.857 389.576 209.296 389.18 210.76C381.965 221.626 379.982 233.833 379.362 246.585C378.767 258.891 379.66 271.047 381.395 283.179C381.544 284.246 381.816 285.363 380.8 286.206V286.206Z" fill="#010101"/>
<path d="M207.457 89.7621C197.59 108.221 184.053 123.379 166.625 134.99C160.229 139.233 153.411 142.458 145.626 143.227C139.701 141.267 137.569 136.181 135.685 130.996C135.09 129.383 134.197 127.771 134.247 125.935C133.082 121.171 133.032 116.433 134.272 111.694C137.222 99.041 144.808 89.911 155.741 83.3116C160.526 80.4088 165.707 78.3744 171.186 77.1835C172.748 76.5633 174.434 76.4641 176.046 76.1663L180.731 76.0423C188.169 74.1071 195.185 76.1167 202.126 78.4985C203.416 78.945 204.655 79.5901 205.92 80.1855C210.109 82.1455 210.779 86.3384 207.457 89.7869V89.7621Z" fill="#754E3E"/>
<path d="M388.61 210.734L388.511 206.765C388.337 206.442 388.213 206.12 388.139 205.773C387.99 203.093 388.362 200.463 388.61 197.809C388.61 193.665 388.659 189.497 388.684 185.354C392.155 185.354 395.601 185.354 399.072 185.304C400.014 185.304 401.08 185.652 401.824 184.659C404.947 183.989 408.121 184.659 411.269 184.312C416.178 184.535 421.112 184.337 426.02 184.411C427.384 184.411 428.797 184.287 430.086 184.932C430.582 185.23 430.83 185.701 430.954 186.247C431.152 187.438 431.152 188.604 430.805 189.77C429.491 191.929 430.012 194.385 429.615 196.717C429.417 198.826 427.756 199.843 426.367 201.083C417.12 209.42 406.509 215.548 395.08 220.336C393.642 220.857 392.18 221.353 390.692 221.775C389.502 222.097 388.387 222.073 387.668 220.832C387.097 217.384 387.668 214.059 388.634 210.784L388.61 210.734Z" fill="#E0B49A"/>
<path d="M430.235 185.379C424.632 185.379 419.054 185.354 413.451 185.305C412.509 185.305 411.468 185.627 410.649 184.833C411.393 181.955 413.054 180.516 416.252 180.219C431.226 178.829 446.002 176.448 460.282 171.585C462.34 170.89 464.299 169.972 466.356 169.253C468.042 168.459 467.373 166.945 467.447 165.655C467.472 165.159 467.224 164.712 467.174 164.216C467.05 162.951 466.803 161.314 468.364 161.016C470.1 160.693 470.05 162.455 470.348 163.621C470.447 163.993 470.521 164.39 470.72 164.712C470.918 165.085 471.092 165.482 471.215 165.903C471.24 168.434 471.513 170.915 472.009 173.371C471.662 175.058 472.282 176.646 472.554 178.283C473.224 182.278 473 182.749 469.307 184.486C468.786 184.734 468.29 185.057 467.794 185.354C465.166 186.446 462.439 185.677 459.762 185.875C458.125 185.999 456.464 185.801 454.828 185.999C454.506 186.123 454.184 186.272 453.886 186.446L453.713 186.545C452.994 186.595 452.299 186.57 451.63 186.297C451.109 186.074 450.614 185.801 450.266 185.329C449.895 184.436 449.672 183.444 448.63 182.551C448.705 183.791 450.787 185.106 448.506 185.925C442.928 186.446 437.375 186.272 431.797 186.049C431.226 185.975 430.755 185.702 430.309 185.354L430.235 185.379Z" fill="#F9D9C7"/>
<path d="M207.457 89.7618C207.854 88.5461 208.3 87.3553 208.597 86.1148C209.217 83.6338 208.151 82.0211 205.895 80.9543C198.21 77.3321 190.127 75.6202 181.624 76.0668C181.326 76.0668 181.029 76.0668 180.731 76.042C183.806 74.2805 187.252 73.5114 190.623 72.6182C197.466 70.7823 204.507 71.3529 211.473 71.4025C212.688 71.8243 213.952 71.998 215.142 72.4694C217.646 72.9159 220.101 73.4866 222.307 74.8511C222.927 75.7194 224.092 75.3721 224.836 75.9675C228.604 77.9771 232.596 79.6642 235.397 83.1128C235.967 84.1548 236.81 84.9239 237.802 85.5441C238.794 85.4449 238.843 86.6358 239.612 86.8591C239.785 87.4297 240.132 88.0499 239.364 88.4717C228.728 88.8935 218.092 89.34 207.457 89.7618V89.7618Z" fill="#9D6248"/>
<path d="M224.017 213.786V221.552C219.53 220.659 215.092 219.617 210.952 217.433C206.713 215.176 203.713 211.802 201.011 208.03C199.374 205.748 201.234 205.277 202.796 205.103C207.357 204.557 211.944 204.086 216.53 203.813C218.885 203.664 221.166 202.746 223.546 203.217C223.546 206.368 223.522 209.519 223.497 212.645C222.902 213.116 223.001 213.464 223.695 213.737C223.819 213.712 223.943 213.737 224.042 213.811L224.017 213.786Z" fill="#BC9474"/>
<path d="M451.729 185.925C452.448 185.95 453.266 185.652 453.662 186.57C451.456 192.351 446.547 196.147 442.952 200.885C442.085 201.158 441.911 200.563 441.713 199.943C442.01 197.139 444.316 195.626 445.853 193.641C447.861 191.085 449.993 188.654 451.729 185.9V185.925Z" fill="#2B232C"/>
<path d="M151.576 199.546C151.403 199.546 151.229 199.546 151.056 199.595C151.056 191.085 151.056 182.551 151.056 174.041C151.452 173.843 151.725 173.967 151.849 174.388C151.849 174.761 151.874 175.133 151.874 175.48C151.874 182.551 151.874 189.597 151.874 196.643C151.874 197.61 152.122 198.603 151.601 199.521L151.576 199.546Z" fill="#D2A5A3"/>
<path d="M134.271 111.694C133.503 116.433 133.527 121.196 134.246 125.935C132.461 121.171 132.387 116.433 134.271 111.694Z" fill="#A8719A"/>
<path d="M453.836 186.446L454.034 185.825C458.571 185.503 463.108 185.404 467.62 185.875C467.571 187.091 466.653 186.446 466.207 186.446C462.092 186.495 457.951 186.446 453.836 186.446Z" fill="#B280A4"/>
<path d="M451.977 194.583C451.258 192.177 453.241 191.333 454.506 190.564C455.2 190.142 455.299 191.532 454.902 192.003C454.134 192.971 453.39 194.037 451.977 194.583Z" fill="#B07BB0"/>
<path d="M467.62 185.875C463.083 185.875 458.546 185.85 454.034 185.826C458.571 184.684 463.182 185.553 467.744 185.354C467.694 185.528 467.67 185.702 467.62 185.875Z" fill="#E8B9D7"/>
<path d="M441.118 206.616C439.854 206.591 438.515 207.162 437.399 206.095C438.242 204.954 438.589 203.416 440.102 202.82C441.044 202.944 441.54 203.341 440.969 204.334L441.118 206.616V206.616Z" fill="#252224"/>
<path d="M440.97 204.334C440.92 203.639 440.647 203.143 439.854 203.118C439.507 201.208 440.102 199.918 442.11 199.471C442.16 200.067 442.333 200.588 442.953 200.861C442.283 202.002 441.639 203.168 440.97 204.309V204.334Z" fill="#392438"/>
<path d="M443.324 54.631C440.647 54.5566 438.317 53.3657 435.937 52.3981C438.788 51.8771 441.093 53.1672 443.324 54.631Z" fill="#AE78AD"/>
<path d="M262.692 199.496C263.882 197.908 265.543 197.263 267.477 197.188C266.51 199.248 264.725 199.62 262.692 199.496Z" fill="#EEC4BA"/>
<path d="M150.981 205.5C152.642 206.219 153.783 207.41 154.551 209.023C151.824 209.395 151.452 207.41 150.981 205.5Z" fill="#EFC5BC"/>
<path d="M250.818 200.662C251.264 198.95 252.677 199.645 253.694 199.595C255.33 199.496 256.966 199.595 258.627 199.595C258.107 200.166 257.412 200.116 256.743 200.19C255.429 200.811 253.917 200.017 252.603 200.687L250.793 200.637L250.818 200.662Z" fill="#F4C7C6"/>
<path d="M499.85 132.658C498.908 131.368 499.23 130.053 499.627 128.713C500.668 129.954 500.37 131.318 499.85 132.658Z" fill="#AF7CAF"/>
<path d="M388.585 206.071C388.56 206.294 388.535 206.517 388.51 206.765C386.973 206.716 385.461 206.641 383.924 206.592C387.023 206.592 387.643 204.384 388.039 201.952C388.857 203.242 387.94 204.756 388.609 206.071H388.585Z" fill="#A9729F"/>
<path d="M239.363 88.472C239.438 87.9262 239.537 87.4052 239.611 86.8594C241.049 88.7697 243.156 87.5541 244.892 88.0006C243.107 88.7697 241.322 89.6133 239.363 88.472V88.472Z" fill="#DAABB7"/>
<path d="M388.585 206.07C387.568 204.805 388.262 203.316 388.015 201.952C388.287 200.562 387.568 199.074 388.585 197.784C388.585 200.538 388.585 203.316 388.585 206.07Z" fill="#C78DB8"/>
<path d="M263.907 154.416C263.932 153.821 263.957 153.225 263.982 152.63C264.676 152.382 265.097 152.456 265.072 153.349C265.023 155.111 265.072 156.897 265.048 158.659C264.874 158.41 264.676 158.187 264.502 157.939C263.758 156.847 264.651 155.508 263.907 154.416Z" fill="#B985A0"/>
<path d="M259.791 118.789C258.428 116.507 259.37 114.026 259.172 111.644C259.345 112.091 259.544 112.562 259.717 113.009C260.486 114.274 259.544 115.787 260.287 117.053L259.791 118.814V118.789Z" fill="#F4C7CA"/>
<path d="M151.502 173.967C151.353 173.967 151.204 174.016 151.055 174.041C151.055 171.51 151.031 168.955 151.006 166.424C151.179 166.375 151.353 166.325 151.551 166.325C152.072 168.881 152.121 171.411 151.526 173.967H151.502Z" fill="#B48197"/>
<path d="M341.828 83.2617C341.431 84.7255 340.786 86.09 339.943 87.3553C340.538 85.966 338.481 83.3858 341.828 83.2617Z" fill="#AB80AA"/>
<path d="M387.469 185.23C387.593 184.436 387.147 183.369 388.337 183.047C388.659 182.948 389.304 183.047 389.378 183.27C389.775 184.138 388.461 184.436 388.634 185.28L387.444 185.23H387.469Z" fill="#F9D8CE"/>
<path d="M257.907 96.8824L257.362 96.1629C256.767 95.0713 257.213 93.8804 257.065 92.764C257.164 91.9701 256.817 91.1017 257.362 90.3574C258.552 92.4414 257.734 94.6991 257.907 96.8824V96.8824Z" fill="#BC889D"/>
<path d="M260.337 128.291C260.337 126.108 260.337 123.9 260.386 121.717C260.56 121.791 260.709 121.866 260.882 121.94C261.453 123.453 261.279 124.992 261.006 126.53L260.957 128.267C260.758 128.49 260.56 128.49 260.337 128.267V128.291Z" fill="#F1C4CB"/>
<path d="M237.752 201.332C239.314 200.414 240.9 200.463 242.487 201.282C242.487 201.679 242.09 201.704 241.867 201.902L240.082 201.853C239.388 201.332 238.421 201.977 237.752 201.332V201.332Z" fill="#F3C7C3"/>
<path d="M262.147 137.744C260.883 135.883 261.751 133.799 261.552 131.814C261.726 132.236 261.924 132.633 262.098 133.055C262.569 134.618 262.519 136.181 262.147 137.744Z" fill="#EDBDCF"/>
<path d="M266.882 179.326C265.692 177.44 266.461 175.381 266.312 173.396C267.031 174.091 266.758 175.033 266.907 175.852C267.254 177.018 267.303 178.159 266.882 179.326V179.326Z" fill="#F0BECD"/>
<path d="M394.559 50.5378C393.493 51.3069 392.75 51.3069 391.684 50.5378C392.75 49.7687 393.518 49.7687 394.559 50.5378Z" fill="#AC78AB"/>
<path d="M380.354 55.8966C379.486 56.6161 378.495 56.9883 377.379 57.0379C378.321 56.4921 378.594 54.2592 380.354 55.8966Z" fill="#A979AA"/>
<path d="M176.046 76.1412C174.509 76.9351 172.897 77.3072 171.187 77.1584C172.575 75.7442 174.335 75.9923 176.046 76.1412Z" fill="#A57198"/>
<path d="M266.213 168.757L265.643 167.417C265.196 165.879 265.246 164.34 265.593 162.802C266.882 164.688 266.039 166.772 266.188 168.757H266.213Z" fill="#B987A2"/>
<path d="M268.568 190.093C268.395 190.068 268.246 190.043 268.072 190.043C267.502 188.108 267.626 186.173 267.998 184.213C269.238 186.074 268.444 188.133 268.568 190.093V190.093Z" fill="#C1919C"/>
<path d="M354.248 176.944C355.24 178.829 354.447 180.913 354.843 182.873C353.554 181.013 354.447 178.929 354.248 176.944Z" fill="#B1839B"/>
<path d="M267.998 184.213C268.022 186.148 268.047 188.083 268.072 190.043C266.832 188.133 267.651 186.049 267.502 184.039C267.675 184.089 267.849 184.163 267.998 184.238V184.213Z" fill="#F1C3CA"/>
<path d="M445.605 55.4747L444.465 54.8793C444.564 53.9862 444.936 53.1922 445.952 53.7132C447.39 54.4575 445.605 54.8297 445.63 55.4499L445.605 55.4747Z" fill="#AE78AD"/>
<path d="M449.275 57.0875C448.332 57.0131 447.514 56.6906 446.895 55.9215C448.06 54.9291 448.332 55.0531 449.275 57.0875Z" fill="#AE78AD"/>
<path d="M225.232 203.019C225.232 202.895 225.282 202.746 225.307 202.622C226.943 201.877 228.654 202.398 230.34 202.299C230.711 202.473 230.786 202.746 230.587 203.118L225.232 203.019Z" fill="#C3939D"/>
<path d="M241.867 201.902C242.066 201.704 242.289 201.505 242.487 201.282C243.082 201.282 243.677 201.282 244.272 201.307C245.264 200.934 246.255 200.885 247.222 201.356C245.536 202.498 243.677 201.753 241.867 201.902Z" fill="#B6839E"/>
<path d="M261.007 126.53C260.957 124.992 260.932 123.479 260.883 121.94C261.949 123.454 261.651 124.992 261.007 126.53Z" fill="#C0919C"/>
<path d="M237.801 85.5193C236.289 85.3952 235.496 84.6013 235.396 83.0879C236.611 83.4848 237.429 84.3036 237.801 85.5193Z" fill="#9D6355"/>
<path d="M265.618 162.802C265.618 164.34 265.643 165.878 265.668 167.417C264.552 165.953 265.246 164.266 265.147 162.703C265.296 162.727 265.469 162.777 265.618 162.802Z" fill="#E8B7D1"/>
<path d="M399.047 49.2229C399.097 49.7935 398.65 49.868 398.303 49.8432C397.981 49.8183 397.46 49.6447 397.386 49.4214C397.212 48.9004 397.733 48.8508 398.105 48.8011C398.502 48.7515 398.873 48.8011 399.072 49.2477L399.047 49.2229Z" fill="#AF7DAE"/>
<path d="M262.147 137.744L262.098 133.055C263.263 134.544 262.494 136.256 262.643 137.868C262.47 137.819 262.321 137.794 262.147 137.744Z" fill="#B9879C"/>
<path d="M260.337 128.292C260.535 128.292 260.758 128.292 260.957 128.292C261.8 128.961 261.502 129.855 261.477 130.723C259.915 130.475 260.436 129.259 260.337 128.316V128.292Z" fill="#F0C6B8"/>
<path d="M223.645 213.712C222.877 213.637 221.637 214.282 221.563 213.166C221.513 212.298 222.778 212.769 223.472 212.62L223.67 213.712H223.645Z" fill="#BF9279"/>
<path d="M166.476 208.527L168.212 208.452C169.204 208.055 170.17 208.03 171.162 208.452C169.699 209.618 167.989 208.824 166.427 209.023C166.253 208.899 166.179 208.775 166.253 208.675C166.328 208.576 166.402 208.527 166.476 208.527V208.527Z" fill="#B887A1"/>
<path d="M215.167 72.4449C213.804 72.6186 212.539 72.3705 211.498 71.3781C212.886 71.13 214.151 71.3781 215.167 72.4449Z" fill="#B1729D"/>
<path d="M224.835 75.9426C223.819 75.9426 222.555 76.538 222.307 74.8262C223.274 74.9006 224.414 74.6029 224.835 75.9426Z" fill="#9F6667"/>
<path d="M258.528 102.216C259.619 103.457 258.949 104.945 259.098 106.335C257.734 106.26 258.453 105.169 258.255 104.548C258.354 103.779 258.032 102.936 258.528 102.216Z" fill="#C08F9C"/>
<path d="M247.223 201.356C246.231 201.356 245.264 201.332 244.272 201.307C245.562 200.265 247.049 200.885 248.462 200.811C248.041 200.984 247.644 201.183 247.223 201.356Z" fill="#D4A0C1"/>
<path d="M252.603 200.712C253.867 199.694 255.354 200.315 256.743 200.215C255.478 201.233 253.991 200.587 252.603 200.712Z" fill="#C39397"/>
<path d="M258.478 104.548C258.577 105.169 258.428 105.913 259.098 106.335C258.924 106.93 258.751 107.501 258.577 108.096C257.412 107.079 258.131 105.739 257.957 104.548C258.131 104.3 258.304 104.3 258.478 104.548Z" fill="#F4C8C6"/>
<path d="M183.037 207.832H178.897C178.723 207.485 178.798 207.212 179.12 207.038C180.384 206.964 181.649 206.939 182.913 207.038C183.235 207.261 183.26 207.51 183.037 207.807V207.832Z" fill="#C3939E"/>
<path d="M171.162 208.477C170.17 208.477 169.204 208.477 168.212 208.477C169.501 207.41 170.989 208.031 172.402 207.981C171.98 208.155 171.559 208.328 171.162 208.502V208.477Z" fill="#D6A3C4"/>
<path d="M260.288 117.028C259.222 115.812 259.916 114.324 259.718 112.984C260.833 114.2 260.114 115.663 260.288 117.028Z" fill="#C6969F"/>
<path d="M266.882 179.325C266.882 178.159 266.882 177.018 266.907 175.852C267.898 176.944 267.328 178.209 267.378 179.425C267.204 179.4 267.031 179.35 266.882 179.325V179.325Z" fill="#C2919A"/>
<path d="M258.478 104.549C258.304 104.549 258.131 104.549 257.957 104.549C257.957 103.358 257.982 102.167 258.007 100.976C258.18 101.398 258.354 101.82 258.527 102.217L258.478 104.549Z" fill="#F0BED2"/>
<path d="M230.587 203.093C230.587 202.92 230.612 202.746 230.612 202.548C230.835 202.299 231.108 202.2 231.455 202.225C232.347 202.349 233.314 201.952 234.157 202.523C233.116 203.565 231.802 202.969 230.587 203.093V203.093Z" fill="#B47FA1"/>
<path d="M363.868 207.956C362.678 208.452 361.413 208.526 360.174 208.526C361.265 207.385 362.628 207.98 363.868 207.956Z" fill="#A572A5"/>
<path d="M234.132 202.547L231.182 202.473C230.984 202.349 230.934 202.25 231.008 202.15C231.083 202.051 231.132 202.001 231.207 202.001C232.198 202.001 233.215 202.001 234.207 202.001C234.182 202.175 234.157 202.349 234.132 202.522V202.547Z" fill="#DAA5C7"/>
<path d="M237.752 201.332C238.545 201.431 239.437 201.059 240.082 201.853C239.09 201.853 238.124 201.853 237.132 201.878L237.752 201.332Z" fill="#DAAEA3"/>
<path d="M183.037 207.832C183.037 207.633 183.037 207.435 183.037 207.261C183.161 206.939 183.508 206.889 183.756 206.715C183.954 206.765 184.153 206.815 184.351 206.889C184.549 207.162 184.723 207.435 184.921 207.708L183.062 207.857L183.037 207.832Z" fill="#B47FA4"/>
<path d="M178.946 207.336C178.946 207.509 178.921 207.658 178.897 207.832C177.905 207.832 176.913 207.832 175.946 207.832C175.946 207.658 175.946 207.484 175.971 207.286C176.963 206.889 177.979 206.79 178.971 207.336H178.946Z" fill="#DEB2AB"/>
<path d="M166.476 208.527C166.476 208.7 166.451 208.849 166.426 209.023C165.46 209.023 164.468 209.023 163.501 208.998C164.393 208.154 165.46 208.527 166.476 208.527Z" fill="#C69999"/>
<path d="M360.174 208.502C359.256 209.172 358.215 208.973 357.174 208.948C358.066 208.105 359.132 208.477 360.174 208.502Z" fill="#A572A5"/>
<path d="M257.362 90.3576L257.288 92.7145C257.114 92.9874 256.941 92.9626 256.817 92.6897C256.817 91.6973 256.817 90.7297 256.792 89.7373L257.362 90.3824V90.3576Z" fill="#DFAAC7"/>
<path d="M388.61 210.735C388.436 214.134 388.288 217.533 388.114 220.907C389.23 222.718 391.312 222.643 392.973 223.239C395.254 224.082 397.659 224.579 400.113 224.827C406.584 224.603 413.104 225.422 419.55 224.281C422.847 223.487 426.392 224.157 429.566 222.619C430.111 222.371 430.632 222.147 430.979 221.626C432.491 219.145 431.475 216.391 431.822 213.786C431.846 212.943 431.921 212.099 432.64 211.479C434.474 211.553 434.648 213.117 435.094 214.332C437.524 221.08 438.689 228.102 439.805 235.148C441.069 243.112 440.548 251.1 440.251 259.039C439.904 268.12 438.714 277.175 436.954 286.132C418.236 286.132 399.518 286.132 380.8 286.132C379.982 277.821 378.668 269.584 378.371 261.223C378.073 252.043 378.544 242.913 379.61 233.833C380.553 225.968 383.304 218.699 387.42 211.95C387.717 211.479 388.188 211.107 388.585 210.71L388.61 210.735Z" fill="#F7F2F0"/>
<path d="M205.127 132.509C212.539 130.276 219.778 130.549 226.547 134.543C229.447 136.255 232.026 138.538 231.307 142.582C231.554 142.954 231.654 143.351 231.554 143.797C230.736 145.658 229.596 147.221 227.538 147.866L223.448 150.794C219.63 153.92 215.341 155.781 210.308 155.607L209.242 155.111C206.664 153.25 206.564 150.223 205.92 147.544C204.854 143.252 204.879 138.786 204.482 134.419C204.432 133.725 204.631 133.055 205.127 132.534V132.509Z" fill="#020202"/>
<path d="M205.126 132.509C205.721 140.176 205.795 147.941 209.241 155.111C205.2 156.153 201.234 155.905 197.341 154.441C194.813 152.556 191.689 151.538 190.028 148.412C188.565 145.634 189.235 143.5 191.044 141.49C192.631 139.754 194.441 138.265 196.151 136.653C196.622 136.057 197.391 135.908 197.961 135.486L205.126 132.509V132.509Z" fill="#F7F3F0"/>
<path d="M241.248 167.541C242.066 174.81 239.414 180.293 232.745 183.493C230.836 184.411 228.629 184.709 226.547 185.28C223.82 185.404 221.266 184.759 218.861 183.493C217.77 182.774 216.903 181.781 215.961 180.888C214.3 179.077 212.986 177.092 212.887 174.512L212.837 173.52C213.655 170.17 214.622 169.699 217.498 171.212C219.332 178.531 221.415 179.945 229.447 179.325C231.084 178.209 232.522 176.819 234.207 175.802C237.034 172.825 237.182 169.6 235.05 166.176C234.306 164.985 233.637 163.745 234.877 162.455C235.943 161.338 237.108 161.313 238.199 162.38C238.893 163.05 239.463 163.844 240.108 164.588C240.331 164.737 240.529 164.935 240.678 165.184C241.025 165.928 241.397 166.672 241.273 167.541H241.248Z" fill="#EB5B74"/>
<path d="M231.802 114.919C231.654 115.936 231.108 116.532 229.993 116.06C229.373 115.787 228.803 115.366 228.257 114.969C218.341 107.898 205.027 110.428 198.482 120.625C197.838 121.618 197.268 123.081 195.855 122.188C194.541 121.345 195.483 120.104 196.053 119.087C202.647 107.674 220.002 104.499 230.216 112.86C230.885 113.406 231.703 113.877 231.778 114.969L231.802 114.919Z" fill="#764F3D"/>
<path d="M152.171 154.243C152.171 155.037 152.245 155.831 152.171 156.6C152.047 157.617 152.766 159.081 151.576 159.503C150.411 159.924 149.146 159.205 148.13 158.386C144.585 155.558 144.882 151.067 148.75 149.033C151.13 147.792 152.171 148.388 152.221 151.018C152.221 152.084 152.221 153.176 152.221 154.243H152.171Z" fill="#CA9A78"/>
<path d="M212.861 174.487L216.307 180.591C216.307 180.591 216.134 180.789 216.059 180.888C214.522 181.558 215.712 182.848 215.415 183.816C215.34 183.915 215.241 184.014 215.167 184.138C213.084 184.436 212.465 183.344 212.837 181.533C213.258 179.598 212.266 178.854 210.605 178.68C210.233 178.631 209.738 179.35 209.39 178.68C209.118 178.11 209.39 177.613 209.738 177.043C210.506 175.802 212.316 175.926 212.861 174.487V174.487Z" fill="#F5CAB2"/>
<path d="M210.308 155.582C214.894 154.515 219.282 152.952 223.447 150.769C221.042 155.408 215.266 157.542 210.308 155.582Z" fill="#EECBB3"/>
<path d="M184.251 157.989C184.425 159.825 184.078 160.42 182.144 159.304C180.904 158.584 179.467 157.145 177.731 158.559C177.285 158.287 176.789 158.038 177.136 157.369C179.615 156.649 181.152 153.597 184.276 154.416C184.623 154.739 184.797 155.136 184.846 155.607C184.846 156.054 184.747 156.451 184.499 156.823C184.202 157.17 183.656 156.972 183.334 157.319C183.656 157.542 184.003 157.691 184.276 157.989H184.251Z" fill="#F0CDAE"/>
<path d="M218.787 182.873C221.365 183.667 223.943 184.461 226.522 185.255C225.579 186.123 224.836 187.016 223.323 185.85C222.233 185.007 220.472 184.486 219.258 185.503C216.952 187.388 216.059 185.999 215.167 184.138C216.059 183.196 217.398 183.568 218.415 182.997C218.539 182.947 218.663 182.923 218.787 182.873Z" fill="#F5CAB2"/>
<path d="M237.727 149.082C237.405 150.025 238.694 151.092 237.777 151.786C236.86 152.481 236.165 151.241 235.595 150.819C234.182 149.777 233.042 150.819 231.802 150.868C231.232 150.298 231.182 149.603 231.356 148.859C231.728 148.015 232.472 147.618 233.24 147.221C233.513 147.122 233.785 147.147 234.058 147.271L236.562 147.321C237.281 147.693 237.256 148.586 237.752 149.107L237.727 149.082Z" fill="#F5CAB2"/>
<path d="M184.276 155.681V154.416C185.491 154.143 185.144 152.58 186.111 152.084C186.532 152.704 187.251 152.828 187.822 153.225H189.012C189.433 155.036 188.516 156.475 187.822 157.989C187.028 158.41 186.26 160.519 185.442 157.989C185.268 157.12 184.896 156.326 184.276 155.657V155.681Z" fill="#F7C7AF"/>
<path d="M151.576 199.545L151.626 174.636C151.799 174.363 151.973 174.363 152.171 174.611C152.171 182.104 152.171 189.596 152.171 197.089C152.171 197.933 152.419 198.9 151.576 199.57V199.545Z" fill="#F4C8C5"/>
<path d="M242.487 147.321C243.033 146.13 244.743 145.733 244.446 143.773C244.347 143.004 246.206 141.466 247.247 143.773C246.479 144.567 246.479 145.361 247.247 146.13C247.148 147.073 247.644 148.313 246.057 148.511C245.165 147.445 243.727 148.387 242.76 147.618C242.661 147.519 242.586 147.42 242.487 147.321V147.321Z" fill="#F1CEAE"/>
<path d="M217.473 171.213C215.241 170.592 213.506 171.014 212.812 173.52C212.737 172.106 212.068 170.568 213.729 169.526C214.522 169.029 214.944 167.615 216.01 168.012C217.324 168.508 217.745 169.799 217.448 171.238L217.473 171.213Z" fill="#F7C8B1"/>
<path d="M234.182 175.802C233.24 177.837 231.529 178.879 229.422 179.325C229.695 178.829 230.166 178.358 230.24 177.812C230.835 174.09 230.885 174.041 234.182 175.802Z" fill="#F6C7B3"/>
<path d="M231.158 143.649L231.282 142.557C233.488 142.508 235.744 142.334 237.628 144.443L234.108 145.584C234.108 145.584 233.91 145.41 233.81 145.361C232.918 144.244 233.339 145.733 233.017 145.782C232.596 146.204 232.149 146.477 231.554 146.105C230.91 145.361 230.711 144.567 231.158 143.674V143.649Z" fill="#F5CAB2"/>
<path d="M231.157 143.649L231.851 146.204C231.975 146.428 232.025 146.651 231.95 146.874C231.702 147.42 231.355 147.891 230.959 148.363C230.86 148.437 230.76 148.487 230.661 148.561C229.397 149.231 228.207 149.703 227.513 147.842L231.157 143.649V143.649Z" fill="#EEC9AB"/>
<path d="M187.821 157.989C187.524 156.228 188.119 154.689 189.011 153.25C189.829 153.275 190.201 153.747 190.201 154.541C190.35 155.384 189.656 156.004 189.606 156.798C189.11 157.071 189.011 157.518 188.986 158.014C189.631 158.808 189.631 159.602 188.986 160.371C186.582 160.594 188.119 158.808 187.796 157.989H187.821Z" fill="#F0CBA9"/>
<path d="M241.247 167.541C240.628 166.846 240.231 166.077 240.206 165.134C240.751 164.316 241.941 164.762 242.487 163.968C244.148 165.506 243.999 165.953 241.247 167.566V167.541Z" fill="#F7C9B1"/>
<path d="M244.867 148.511C244.669 150.074 243.454 149.578 242.536 149.677C242.264 150.025 241.892 150.074 241.495 149.975C240.776 149.578 240.528 148.809 240.057 148.189C239.933 147.966 239.884 147.717 239.909 147.445C240.032 147.023 240.429 146.924 240.727 146.725L242.512 147.321C243.082 148.164 244.321 147.643 244.892 148.511H244.867Z" fill="#EFCEAE"/>
<path d="M177.136 157.394L177.731 158.584C176.492 159.13 177.88 162.182 175.723 161.289C174.483 160.768 176.343 158.981 176.343 157.691C176.343 157.592 176.863 157.493 177.136 157.394V157.394Z" fill="#EECFAE"/>
<path d="M152.147 174.612C151.973 174.612 151.8 174.612 151.602 174.636C151.552 174.413 151.527 174.19 151.478 173.967C151.478 171.411 151.478 168.881 151.502 166.325C152.891 169.005 151.825 171.833 152.122 174.587L152.147 174.612Z" fill="#ECBACD"/>
<path d="M240.132 147.891C241.347 147.966 241.298 148.859 241.322 149.703C241.645 150.1 241.669 150.497 241.298 150.869C240.058 150.521 239.265 149.752 238.942 148.487C239.215 148.04 239.637 147.867 240.132 147.891V147.891Z" fill="#F5CAB2"/>
<path d="M240.133 147.892C239.86 148.363 239.414 148.487 238.943 148.487C238.447 148.487 238 148.611 237.753 149.082C236.538 149.033 236.563 148.164 236.563 147.296C237.753 146.527 238.943 146.453 240.133 147.321C240.133 147.519 240.133 147.693 240.133 147.892V147.892Z" fill="#F0CDB2"/>
<path d="M178.946 207.336C177.954 207.336 176.963 207.311 175.946 207.286C178.45 206.045 181.128 206.963 183.731 206.715C183.508 206.889 183.26 207.087 183.012 207.261C181.648 207.261 180.285 207.311 178.946 207.336Z" fill="#F2C4C8"/>
<path d="M240.107 147.345H236.537C237.653 145.162 239.215 146.254 240.702 146.725L240.107 147.345V147.345Z" fill="#F5CAB2"/>
<path d="M189.036 160.371V158.014C189.706 158.188 190.92 157.617 190.97 158.584C191.019 159.453 190.102 160.222 189.036 160.371Z" fill="#F5C9BB"/>
<path d="M244.867 148.511C243.925 148.387 242.686 148.908 242.487 147.321C243.677 147.718 245.462 146.353 246.057 148.511H244.867Z" fill="#F6CAB6"/>
<path d="M240.107 162.777C240.801 160.793 242.09 161.686 243.429 161.909C242.859 163.125 241.966 162.604 241.272 162.777C240.875 163.125 240.479 163.125 240.082 162.777H240.107Z" fill="#F7C9B1"/>
<path d="M240.108 162.777H241.298C241.298 163.522 241.719 163.919 242.488 163.943C242.314 165.482 241.124 165.035 240.207 165.109C240.108 164.936 240.083 164.762 240.108 164.564C240.108 163.968 240.108 163.348 240.132 162.752L240.108 162.777Z" fill="#EECFB1"/>
<path d="M177.533 203.887C178.426 202.944 179.368 203.044 180.533 203.54C179.566 204.83 178.5 204.111 177.533 203.887Z" fill="#F4CAB8"/>
<path d="M184.252 157.989C184.252 157.989 184.054 157.989 183.955 157.989C183.136 157.915 182.095 158.212 181.946 156.922C181.922 156.649 181.946 156.228 182.145 156.128C183.037 155.558 183.31 156.997 184.128 156.823C184.326 156.922 184.401 157.071 184.376 157.22C184.351 157.369 184.302 157.468 184.252 157.468C184.252 157.666 184.252 157.84 184.252 158.039V157.989Z" fill="#F7C9B7"/>
<path d="M197.342 154.441C196.97 155.309 198.854 155.681 197.888 156.599C197.466 156.996 196.673 156.872 196.4 156.302C195.954 155.384 196.127 154.615 197.342 154.441Z" fill="#EFCFAC"/>
<path d="M175.872 155.582C175.872 156.426 175.401 156.798 174.583 156.748C174.162 156.748 173.666 156.426 173.839 156.103C174.162 155.558 174.707 155.061 175.277 154.789C175.674 154.59 175.798 155.185 175.872 155.558V155.582Z" fill="#F1CFAA"/>
<path d="M231.207 202.002C231.207 202.15 231.207 202.324 231.182 202.473C230.984 202.498 230.786 202.547 230.612 202.572C228.852 202.572 227.067 202.597 225.307 202.622C227.141 201.158 229.249 202.324 231.232 202.002H231.207Z" fill="#F1C0D0"/>
<path d="M231.926 146.651C231.901 146.502 231.876 146.353 231.876 146.179C232.248 145.931 232.595 145.658 232.967 145.41C233.413 145.137 233.81 145.187 234.157 145.584C234.157 146.13 234.107 146.7 234.082 147.246C233.909 147.246 233.76 147.296 233.611 147.37C232.768 147.817 232.223 147.569 231.975 146.651H231.926Z" fill="#EE7041"/>
<path d="M184.252 157.443C184.202 157.245 184.178 157.021 184.128 156.823C184.178 156.451 184.227 156.079 184.277 155.707C186.062 155.781 186.062 156.749 185.442 158.039L184.252 157.468V157.443Z" fill="#EF8151"/>
<path d="M189.631 156.798C188.962 155.831 189.705 155.21 190.226 154.541C191.019 155.558 191.515 156.476 189.631 156.798Z" fill="#D57C53"/>
<path d="M247.247 146.105C246.429 146.055 246.057 145.584 246.107 144.765C246.156 144.046 246.628 143.798 247.247 143.723V146.08V146.105Z" fill="#F8C6B6"/>
<path d="M226.72 171.56C226.769 172.13 226.323 172.205 225.976 172.18C225.654 172.155 225.133 171.982 225.059 171.758C224.885 171.237 225.406 171.188 225.778 171.138C226.174 171.088 226.546 171.138 226.745 171.585L226.72 171.56Z" fill="#F9C7B3"/>
<path d="M231.703 148.536L231.778 150.868C230.265 150.645 230.588 149.553 230.662 148.561H230.637C230.984 148.139 231.356 148.214 231.703 148.561V148.536Z" fill="#EC7C58"/>
<path d="M187.821 153.25C186.582 153.87 186.061 153.424 186.111 152.109C187.003 151.985 187.871 151.935 187.821 153.25Z" fill="#E27641"/>
<path d="M241.297 150.869V149.702L242.536 149.653C242.685 150.075 243.131 150.472 242.611 150.943C242.14 151.39 241.718 151.042 241.297 150.869Z" fill="#E56F44"/>
<path d="M182.492 153.25C181.921 153.151 180.954 153.623 180.93 152.68C180.93 151.762 181.897 152.159 182.467 152.06C182.814 152.456 182.814 152.853 182.467 153.25H182.492Z" fill="#E87345"/>
<path d="M182.491 153.25V152.06C183.012 152.208 183.979 151.762 183.904 152.779C183.855 153.399 183.012 153.201 182.491 153.25Z" fill="#F0CDAE"/>
<path d="M263.907 154.417C264.973 155.459 264.329 156.773 264.502 157.939C263.387 156.922 264.081 155.583 263.907 154.417Z" fill="#F1C1CF"/>
<path d="M256.817 92.6646C256.966 92.6646 257.139 92.6646 257.288 92.6894C257.288 93.8554 257.337 94.9967 257.362 96.1627C256.271 95.1455 256.916 93.8306 256.817 92.6646Z" fill="#F2C0CC"/>
<path d="M197.961 135.461C197.589 136.206 196.994 136.628 196.151 136.628C196.201 135.387 197.069 135.412 197.961 135.461Z" fill="#F0D3C2"/>
<path d="M466.951 169.823C453.712 175.43 439.804 178.383 425.573 180.045C421.954 180.467 418.309 180.864 414.69 181.161C413.549 181.261 412.83 181.608 412.583 182.774C412.359 183.841 411.566 184.436 410.649 184.858C407.674 185.801 404.748 185.156 401.798 184.66C400.93 182.7 400.211 180.764 400.435 178.532C400.831 174.86 401.575 174.041 405.343 173.942C406.112 173.942 406.905 173.942 407.674 173.942C409.335 172.9 410.921 173.545 411.888 174.761C413.624 176.969 415.781 176.969 418.21 176.795C420.07 176.646 421.879 176.1 423.739 176.175C425.92 175.877 428.127 175.678 430.309 175.232C440.671 173.768 450.811 171.362 460.703 167.863C461.62 167.541 462.513 167.045 463.554 167.342C464.571 162.008 464.149 156.6 463.901 151.266C463.43 140.895 463.728 130.525 463.381 120.179C463.356 119.137 463.728 117.996 462.885 117.053C463.827 116.681 464.471 115.341 465.736 116.135C466.752 116.755 466.678 117.896 466.48 118.79C465.761 121.891 467.397 123.106 470.05 123.603C467.67 124.595 467.124 126.505 467.422 128.862C468.215 134.842 467.868 140.845 467.942 146.849C467.942 147.37 467.942 147.891 467.942 148.412C467.942 149.281 467.942 150.174 467.942 151.042C467.942 151.414 467.942 151.762 467.942 152.134C468.562 157.22 467.124 162.256 467.645 167.367C467.719 168.211 467.645 169.153 466.951 169.823V169.823Z" fill="#232323"/>
<path d="M467.199 147.321C467.001 140.548 466.976 133.75 466.554 126.977C466.356 124.024 467.273 123.057 470.05 123.627C473.322 124.719 476.471 126.009 478.826 128.688C484.454 135.065 483.041 144.467 475.578 149.653C474.215 150.595 472.703 151.315 471.265 152.134C468.835 150.819 470.05 148.685 470.075 146.824C470.174 146.551 470.397 146.105 470.521 146.13C473.347 146.899 472.901 144.393 473.62 143.078C475.727 139.902 475.256 137.124 472.38 134.668C472.108 134.246 471.736 133.923 471.289 133.675C469.108 132.435 468.488 132.782 468.438 135.213C468.438 136.206 468.587 137.173 468.86 138.116C469.232 140.275 468.761 142.458 469.083 144.616C468.786 145.758 469.504 147.593 467.199 147.321V147.321Z" fill="#F8D9C7"/>
<path d="M472.95 134.42C476.471 137.496 476.669 138.761 474.215 143.078C473.57 144.641 472.182 145.411 470.769 146.13C470.918 148.14 470 150.224 471.265 152.134C470.174 153.523 471.19 154.913 471.215 156.302C471.289 159.502 471.215 162.703 471.165 165.903L470.645 165.11C468.934 161.289 468.538 157.22 468.141 153.126C467.422 150.1 469.108 147.147 468.339 144.12C467.645 142.012 468.438 139.903 468.24 137.794C468.711 134.172 470.05 133.204 472.926 134.395L472.95 134.42Z" fill="#262423"/>
<path d="M423.739 176.894C421.805 177.142 419.896 177.415 417.962 177.589C415.434 177.837 412.83 178.556 411.393 175.207C410.872 173.991 409.037 174.066 407.674 173.942C407.674 173.098 407.723 172.28 408.864 172.255C410.327 170.865 412.285 172.18 414.368 171.163C412.88 171.51 411.74 171.957 411.169 170.89C410.599 169.799 411.467 169.129 412.434 168.682C413.698 168.236 414.715 167.516 416.376 167.739C419.326 168.136 417.144 166.003 417.219 164.985C417.59 164.713 417.987 164.713 418.409 164.812C419.772 165.457 420.863 166.598 422.4 166.945C431.424 169.898 437.895 167.913 444.018 160.321C444.415 159.85 444.886 159.478 445.407 159.18C445.952 158.882 446.522 158.709 447.142 158.709C451.233 160.47 452.125 159.8 452.274 155.235C452.324 153.995 451.406 152.109 453.762 151.787C454.158 151.985 454.728 152.233 454.456 151.439C454.233 150.794 455.249 149.529 453.588 149.554C452.373 151.018 452.1 152.729 452.2 154.565C452.224 155.161 452.2 155.756 452.2 156.327C452.2 157.865 451.555 159.304 449.968 159.279C448.159 159.279 448.58 157.493 448.456 156.302C448.407 155.707 448.456 155.111 448.53 154.541C448.63 154.019 448.828 153.573 449.249 153.25C451.307 152.655 450.291 150.968 450.39 149.777C450.563 148.065 450.043 146.254 452.572 145.683C453.687 145.435 453.935 143.922 454.431 142.88C458.447 146.056 456.687 159.428 451.778 162.306C454.009 163.348 455.794 162.579 457.579 161.586C458.373 161.983 459.29 162.132 459.959 162.777C462.017 163.646 464.273 164.365 463.529 167.392C457.555 170.444 451.059 171.833 444.613 173.396C439.953 174.512 435.292 175.678 430.457 175.927C429.515 176.224 428.548 176.324 427.631 175.877C425.995 175.108 424.73 175.53 423.714 176.919L423.739 176.894Z" fill="#F9D9C7"/>
<path d="M388.56 151.464C380.627 154.243 372.991 153.226 365.776 149.206C362.256 147.246 361.264 141.441 363.867 137.744C368.528 131.145 375.495 128.912 383.155 128.341C383.552 128.317 383.998 128.763 384.42 128.962C385.61 129.731 385.833 131.046 386.18 132.236C387.767 137.719 388.733 143.302 389.204 148.983C389.279 149.876 389.328 150.745 388.56 151.414V151.464Z" fill="#4A261C"/>
<path d="M388.56 151.464C388.213 143.798 386.577 136.355 384.42 128.986C388.907 127.299 393.171 128.639 397.436 130.028C398.08 130.251 398.725 130.475 399.369 130.673C400.683 131.269 402.344 131.343 402.939 133.055C404.972 135.685 404.972 138.373 402.939 141.118C402.468 141.738 402.146 142.458 401.749 143.128C401.353 143.922 400.733 144.517 399.964 144.914C396.617 147.866 392.948 150.223 388.585 151.439L388.56 151.464Z" fill="#F8F3F1"/>
<path d="M383.329 113.902C389.551 114.175 395.278 114.968 400.584 117.722C402.245 118.591 403.385 119.831 402.344 121.742C401.352 123.578 399.815 123.106 398.228 122.411C386.651 117.325 375.371 118.442 364.338 124.074C363.991 124.247 363.669 124.471 363.297 124.644C361.809 125.413 360.347 125.438 359.38 123.925C358.363 122.337 359.231 121.072 360.57 120.179C363.049 118.541 365.776 117.375 368.578 116.407C373.486 114.745 378.544 114.075 383.329 113.852V113.902Z" fill="#060505"/>
<path d="M418.186 165.184L417.219 164.985C414.542 162.306 412.484 159.205 411.219 155.607C410.451 153.87 410.253 152.059 410.352 150.174C410.501 147.246 411.864 146.353 414.789 147.321C416.748 148.784 415.013 151.042 415.979 152.729C416.029 155.309 417.219 157.369 418.93 159.205C419.748 159.577 420.318 160.197 420.739 160.991C420.739 161.14 420.789 161.264 420.814 161.413C421.211 162.182 421.979 162.405 422.723 162.653C431.276 165.829 437.523 163.695 441.589 156.227C442.531 155.88 442.73 154.912 443.3 154.243C443.672 154.044 444.068 154.044 444.465 154.193C445.159 155.086 446.672 155.26 446.746 156.748C446.696 157.319 446.448 157.766 446.101 158.212C445.705 159.031 444.168 159.08 444.614 160.445C440.598 168.037 430.086 171.287 421.929 167.466C420.814 166.474 419.673 165.556 418.186 165.209V165.184Z" fill="#DF3B38"/>
<path d="M443.349 154.441C443.473 155.731 442.903 156.352 441.589 156.227L442.184 153.92C443.101 151.836 441.49 149.281 443.423 147.395V147.445C444.564 146.452 445.704 146.576 446.845 147.47L447.266 147.991C448.927 149.603 448.208 151.613 448.183 153.523C448.035 154.392 447.712 155.21 447.514 156.054C447.44 156.327 447.316 156.575 447.142 156.798C446.919 156.997 446.671 157.071 446.398 157.046C446.622 155.582 443.696 156.352 444.514 154.441C443.547 153.225 445.258 152.58 445.06 151.638C444.366 152.432 443.994 153.548 443.324 154.466L443.349 154.441Z" fill="#E03D3B"/>
<path d="M459.96 162.752C459.018 162.653 457.778 163.149 457.58 161.562C457.58 155.558 457.63 149.529 457.654 143.525C457.654 143.351 457.828 143.177 457.927 142.979C459.216 143.103 458.72 144.145 458.745 144.765C458.795 149.107 458.869 153.449 458.745 157.79C458.696 159.626 459.043 161.239 459.985 162.777L459.96 162.752Z" fill="#F8D9CB"/>
<path d="M412.434 168.682C413.178 169.426 410.079 170.394 412.533 170.964C413.55 171.188 414.145 169.327 415.434 170.146C414.839 171.551 412.657 172.254 408.889 172.254C409.161 171.064 410.401 170.245 410.128 168.806C410.004 168.21 410.351 167.665 411.095 167.59C411.938 167.491 412.384 167.888 412.459 168.707L412.434 168.682Z" fill="#F5DBC8"/>
<path d="M447.391 154.392C447.638 152.258 447.762 150.1 447.267 147.991C450.564 148.735 449.374 151.216 449.275 153.275V154.466C448.804 154.838 449.126 155.905 448.11 155.781C447.589 155.483 447.515 154.937 447.391 154.416V154.392Z" fill="#F6D7C2"/>
<path d="M414.79 147.346C411.443 147.073 410.476 147.966 410.699 151.241C410.798 152.705 411.046 154.168 411.244 155.632C409.236 153.424 409.856 150.745 410.327 148.338C410.798 145.956 413.252 145.584 414.79 147.346V147.346Z" fill="#F7CEBF"/>
<path d="M361.289 178.134C361.289 178.829 360.991 179.226 360.297 179.35C359.826 179.424 359.181 179.524 359.355 180.144C359.528 180.839 360.446 181.707 358.859 181.632C357.545 181.583 357.818 180.466 357.793 179.623C357.768 177.638 359.9 178.333 360.743 177.34C360.942 177.092 361.214 177.762 361.289 178.134V178.134Z" fill="#F9D8CC"/>
<path d="M402.914 133.055C401.724 132.261 400.534 131.467 399.344 130.673C400.98 130.797 403.286 129.929 402.914 133.055Z" fill="#F3DCCE"/>
<path d="M443.423 147.37C442.333 149.429 443.275 151.861 442.184 153.895C442.63 151.712 440.895 149.132 443.423 147.37Z" fill="#F6D7C2"/>
<path d="M361.339 172.255C361.165 172.949 361.736 174.14 360.744 174.19C359.876 174.24 359.108 173.322 358.959 172.255C359.752 171.61 360.546 171.61 361.339 172.255Z" fill="#F5DCC2"/>
<path d="M446.845 147.445C445.705 147.048 444.564 147.172 443.424 147.42C444.465 145.634 445.283 145.634 446.845 147.445Z" fill="#F6D7C2"/>
<path d="M415.955 152.754C414.864 151.092 416.054 148.958 414.765 147.346C417.219 148.71 415.484 150.968 415.955 152.754Z" fill="#F7CEBF"/>
<path d="M361.339 172.255H358.959C359.033 171.436 359.455 171.064 360.298 171.113C361.017 171.163 361.265 171.634 361.339 172.255V172.255Z" fill="#FAD6CD"/>
<path d="M399.939 144.939C400.336 144.145 400.931 143.55 401.724 143.153C401.873 144.493 401.278 145.088 399.939 144.939Z" fill="#F0DBD0"/>
<path d="M422.698 162.653C421.706 162.802 420.814 162.802 420.789 161.413C421.558 161.611 422.227 161.983 422.698 162.653Z" fill="#D15951"/>
<path d="M420.714 160.991C419.871 160.619 419.276 160.023 418.904 159.205C420.094 159.205 420.714 159.8 420.714 160.991Z" fill="#F8C3B5"/>
<path d="M442.109 199.496C440.944 200.463 440.349 201.778 439.853 203.143C438.986 204.086 439.581 206.244 437.399 206.095L432.664 205.574C431.622 204.656 432.044 203.217 431.474 202.126C431.251 201.53 431.003 200.935 430.829 200.29C430.432 198.454 430.68 196.593 430.556 194.732C430.581 193.169 430.408 191.606 430.78 190.068C431.052 188.53 430.383 186.868 431.375 185.429C437.349 185.404 443.299 185.354 449.274 185.329C449.671 184.957 450.043 184.957 450.415 185.329C450.836 185.528 451.257 185.702 451.704 185.9C451.753 188.778 449.324 190.192 447.911 192.202C446.101 194.732 444.043 197.064 442.085 199.471L442.109 199.496Z" fill="#B379B1"/>
<path d="M432.639 211.504L432.589 213.811C430.953 214.828 429.862 214.233 429.59 212.496C429.267 210.288 428.945 207.981 430.482 205.971C430.705 205.723 430.978 205.525 431.3 205.351C431.647 205.252 431.97 205.351 432.218 205.599C432.292 207.584 431.573 209.594 432.639 211.504Z" fill="#F5DBCA"/>
<path d="M432.069 201.927C433.111 202.994 432.466 204.359 432.664 205.549L432.466 205.674L432.243 205.599H432.069L431.921 205.525C431.177 204.284 431.053 203.093 432.094 201.952L432.069 201.927Z" fill="#AF809D"/>
<path d="M431.45 205.525C429.937 207.311 430.384 209.469 430.235 211.553C430.111 213.364 430.879 214.034 432.59 213.836C432.59 215.87 432.64 217.88 432.615 219.914C432.615 220.832 432.863 221.949 431.45 222.172C430.508 222.941 429.417 222.792 428.326 222.643C428.028 222.544 427.756 222.37 427.533 222.122C427.21 221.75 426.987 221.328 426.64 221.006C425.326 220.336 423.913 220.634 422.574 220.634C416.178 220.609 409.757 220.634 403.361 220.634C402.096 220.634 400.782 220.485 399.642 221.279C397.733 221.973 396.295 221.279 395.13 219.765C400.906 216.813 406.807 214.158 412.31 210.71C417.665 207.36 422.549 203.416 427.285 199.272C428.078 198.578 428.995 197.883 429.119 196.692C429.59 195.725 429.913 194.608 431.375 194.881C431.425 196.841 431.474 198.801 431.499 200.761C431.822 202.374 431.921 203.986 431.425 205.599L431.45 205.525Z" fill="#F9DAC6"/>
<path d="M427.879 220.931V222.122C426.862 222.99 425.623 222.693 424.458 222.693C416.847 222.693 409.211 222.693 401.6 222.693C409.211 222.693 416.847 222.693 424.458 222.693C425.623 222.693 426.862 222.99 427.879 222.122C429.069 222.122 430.284 222.122 431.474 222.122C430.358 224.032 428.251 224.132 426.491 224.355C424.408 224.653 422.251 224.702 420.144 225.05C413.574 225.05 407.004 225.05 400.435 225.149C400.038 225.149 399.691 225.397 399.368 225.62C396.369 224.851 393.27 224.454 390.394 223.189C389.353 222.742 388.063 222.445 388.138 220.882C390.716 221.948 392.724 219.567 395.154 219.691C396.741 219.492 397.683 221.477 399.368 220.906C400.112 220.286 401.03 220.311 401.897 220.311C409.707 220.311 417.516 220.311 425.325 220.311C426.218 220.311 427.11 220.261 427.854 220.906L427.879 220.931Z" fill="#F9D9C9"/>
<path d="M431.399 194.832C430.656 195.427 429.887 196.047 429.143 196.643C429.466 194.435 427.904 191.904 430.309 190.068C430.457 189.87 430.656 189.77 430.879 189.746C431.127 189.795 431.275 189.919 431.399 190.118V194.832V194.832Z" fill="#DFB29E"/>
<path d="M431.4 190.118C431.227 190.093 431.028 190.068 430.855 190.043C430.136 188.927 431.053 187.562 430.26 186.446C430.26 186.098 430.26 185.726 430.26 185.379C430.656 185.379 431.028 185.429 431.425 185.453C431.425 187.016 431.425 188.555 431.425 190.118H431.4Z" fill="#BF8B98"/>
<path d="M430.26 186.446C431.351 187.488 430.681 188.828 430.855 190.043C430.681 190.043 430.483 190.043 430.309 190.043C430.309 188.852 430.285 187.637 430.26 186.446Z" fill="#E0AEB9"/>
<path d="M468.835 153.225C469.008 153.672 469.355 154.143 469.331 154.59C469.083 158.187 470.223 161.611 470.669 165.134C469.182 164.961 469.554 163.794 469.479 162.901C469.405 162.231 469.43 161.338 468.488 161.462C467.645 161.562 467.645 162.48 467.719 163.149C467.893 164.688 468.636 166.201 468.215 167.739C468.017 168.508 468.562 169.898 466.926 169.848C467.57 163.745 466.975 157.617 467.174 151.514C468.636 151.241 468.314 152.63 468.81 153.275L468.835 153.225Z" fill="#F3D8CA"/>
<path d="M450.439 185.354C450.043 185.354 449.671 185.354 449.274 185.354C448.01 184.039 446.497 182.749 448.877 180.814C449.249 182.451 450.786 183.518 450.414 185.354H450.439Z" fill="#F6DCC2"/>
<path d="M454.927 182.079C454.903 182.675 454.605 182.849 454.184 182.873C453.366 182.923 452.895 182.551 452.895 181.707C452.895 181.335 453.019 180.74 453.465 180.913C454.035 181.161 454.481 181.707 454.927 182.079V182.079Z" fill="#FAD6CD"/>
<path d="M466.406 173.768C466.976 173.718 466.976 174.165 467.026 174.537C467.075 174.934 467.026 175.381 466.58 175.455C466.009 175.579 466.009 175.058 465.96 174.711C465.91 174.314 465.96 173.942 466.406 173.768V173.768Z" fill="#F6DCBD"/>
<path d="M219.158 213.017C220.199 213.885 219.877 214.853 219.679 216.118C218.241 215.027 218.935 213.985 219.158 213.017Z" fill="#BF9279"/>
<path d="M399.369 225.645C399.468 224.802 399.989 224.504 400.807 224.504C407.005 224.529 413.228 224.554 419.426 224.603C419.674 224.603 419.897 224.901 420.145 225.075C413.252 226.315 406.286 225.496 399.369 225.645V225.645Z" fill="#F8DBC6"/>
<path d="M208.994 142.235C210.01 145.435 211.25 148.586 211.151 152.01C209.415 148.983 208.697 145.708 208.994 142.235Z" fill="#F3F0EF"/>
<path d="M208.646 140.101C207.878 138.761 207.853 137.421 208.473 135.585C209.613 137.347 209.266 138.736 208.646 140.101Z" fill="#F1F0F0"/>
<path d="M216.307 180.591C217.126 181.36 217.968 182.104 218.787 182.873L218.687 182.997C216.035 183.568 215.737 183.295 216.283 180.64V180.591H216.307Z" fill="#F5CAB2"/>
<path d="M216.283 180.64C216.134 182.402 216.902 183.196 218.687 182.997C218.092 185.106 216.332 183.717 215.167 184.138C215.638 182.997 211.523 180.417 216.283 180.64Z" fill="#EFCEB3"/>
<path d="M231.703 148.536C231.356 148.536 230.984 148.536 230.637 148.536C230.588 147.594 231.059 146.998 231.927 146.651C232.472 146.899 233.017 147.122 233.563 147.37C233.191 148.164 232.546 148.487 231.703 148.512V148.536Z" fill="#F4CDB1"/>
<path d="M234.133 145.584C233.736 145.534 233.339 145.485 232.943 145.41C232.794 144.865 232.001 144.567 232.348 143.897C232.422 143.748 232.893 143.748 233.166 143.798C234.306 143.947 234.133 144.815 234.133 145.584Z" fill="#EEC9AB"/>
<path d="M423.74 176.894C423.516 174.736 425.252 173.743 427.508 175.008C428.5 175.579 429.417 175.802 430.458 175.877C428.277 176.596 425.996 176.72 423.715 176.894H423.74Z" fill="#F4D7C9"/>
<path d="M468.835 153.225L467.199 151.464V150.868C467.844 150.074 467.844 149.281 467.199 148.487V147.296C469.034 146.775 467.993 145.187 468.364 144.12C469.48 147.097 468.687 150.174 468.835 153.201V153.225Z" fill="#EEDCD1"/>
<path d="M467.199 148.487C468.761 149.281 468.761 150.075 467.199 150.869V148.487Z" fill="#F8D9C7"/>
<path d="M472.951 134.419C470.124 133.824 469.158 135.784 468.265 137.818C467.645 137.297 467.62 136.578 467.744 135.908C467.992 134.568 466.802 132.509 468.662 132.087C470.273 131.74 472.108 132.584 472.951 134.419V134.419Z" fill="#DCB49E"/>
<path d="M470.769 146.13C471.562 144.716 473.124 144.17 474.215 143.078C474.586 144.368 472.727 145.41 473.818 146.824C473.892 146.924 473.198 147.842 472.727 148.04C471.81 148.387 471.934 147.494 471.81 146.998C471.661 146.427 471.264 146.229 470.769 146.155V146.13Z" fill="#F3D9CA"/>
<path d="M448.085 155.632L449.275 154.441C449.399 155.88 449.002 157.344 449.597 158.857C452.225 158.014 451.556 155.855 451.63 154.044C451.729 151.886 450.986 149.38 454.01 148.487C454.828 149.678 454.828 150.869 454.01 152.059C452.994 152.183 452.82 152.878 452.82 153.747C452.82 154.714 452.82 155.706 452.82 156.674C452.746 160.594 450.738 161.438 446.87 159.18C446.176 158.386 446.374 157.592 446.87 156.798C447.341 156.451 447.49 155.806 448.06 155.607L448.085 155.632Z" fill="#F9DAC6"/>
<path d="M454.034 152.059V148.487C454.431 147.172 455.026 147.197 455.15 148.487C455.348 150.298 455.199 152.134 455.199 154.168C453.613 153.796 454.233 152.729 454.034 152.034V152.059Z" fill="#F3DCC6"/>
<path d="M442.159 166.92C443.349 165.953 444.688 166.697 445.456 165.581C445.142 167.003 444.043 167.45 442.159 166.92Z" fill="#F3DCC5"/>
<path d="M418.186 165.184C420.07 164.886 421.334 165.63 421.929 167.442C420.491 166.995 419.028 166.573 418.186 165.184Z" fill="#D8463D"/>
<path d="M444.614 160.445C443.936 159.75 444.325 158.94 445.779 158.014C446.151 158.634 446.226 159.229 445.556 159.701L444.614 160.42V160.445Z" fill="#E03D3B"/>
<path d="M416.352 173.768C416.624 173.694 416.971 173.52 417.294 173.52C417.641 173.52 418.161 173.594 418.037 174.14C417.938 174.562 417.492 174.636 417.095 174.587C416.724 174.537 416.302 174.512 416.352 173.768V173.768Z" fill="#F4D7C9"/>
<path d="M445.556 159.701C445.63 159.13 445.705 158.559 445.779 158.014C445.977 157.691 446.176 157.368 446.374 157.021C446.523 156.947 446.696 156.872 446.87 156.798C446.87 157.592 446.87 158.386 446.87 159.18L445.531 159.701H445.556Z" fill="#F6D7C2"/>
<path d="M383.924 139.605C384.767 139.754 385.015 140.3 385.114 141.069C385.436 143.5 385.783 145.907 386.155 148.338C386.279 149.231 386.031 149.975 385.139 150.149C384.494 150.273 384.048 149.727 383.949 149.132C383.527 146.428 383.106 143.723 382.759 140.994C382.66 140.225 383.106 139.704 383.924 139.63V139.605Z" fill="#EAEFF5"/>
<path d="M384.469 136.032C384.469 137.025 384.023 137.967 383.205 137.695C381.692 137.248 381.643 135.635 381.345 134.32C381.147 133.502 381.544 132.857 382.362 132.956C384.221 133.179 383.676 135.114 384.469 136.032V136.032Z" fill="#E7EBF0"/>
<path d="M443.349 154.441C443.002 152.605 444.465 151.563 445.11 150.075C446.721 151.911 444.936 153.052 444.539 154.441H443.349V154.441Z" fill="#DD3D33"/>
<path d="M413.004 150.571C412.508 150.496 412.483 150.099 412.483 149.702C412.483 149.33 412.483 148.859 413.029 148.859C413.549 148.859 413.574 149.33 413.574 149.702C413.574 150.075 413.574 150.496 413.004 150.546V150.571Z" fill="#E63730"/>
<path d="M448.085 155.632C448.06 156.401 447.663 156.798 446.895 156.798C446.994 155.979 446.597 155.061 447.391 154.392C447.936 154.64 448.085 155.086 448.085 155.632Z" fill="#F9D9C7"/>
<path d="M431.449 205.524C431.474 203.912 431.499 202.299 431.524 200.687C431.697 201.108 431.895 201.505 432.069 201.927C432.019 203.118 431.945 204.309 431.895 205.5C431.747 205.5 431.598 205.5 431.449 205.5V205.524Z" fill="#F1C5DE"/>
<path d="M427.88 220.931C418.384 220.931 408.864 220.931 399.369 220.931C399.567 219.467 400.708 219.765 401.65 219.74C409.633 219.74 417.616 219.74 425.599 219.74C426.541 219.74 427.681 219.467 427.88 220.906V220.931Z" fill="#F6DBC9"/>
<path d="M427.879 222.122C427.755 223.164 427.036 223.313 426.168 223.313C416.872 223.313 407.599 223.313 398.303 223.288C397.931 223.288 397.509 223.288 397.286 222.122C407.55 222.122 417.714 222.122 427.879 222.122Z" fill="#F8DAC4"/>
</svg>
