<svg width="595" height="297" viewBox="0 0 595 297" fill="none" xmlns="http://www.w3.org/2000/svg">
<g clip-path="url(#clip0_5484_43222)">
<rect width="595" height="297" fill="#5F95EF"/>
<g clip-path="url(#clip1_5484_43222)">
<path d="M316.441 298C317.42 279.014 323.523 261.986 335.548 247.148C348.191 231.511 364.336 221.439 383.932 216.905C386.481 216.313 389.082 215.875 391.657 215.359C392.842 216.364 392.224 217.601 392.095 218.786C391.142 226.926 392.533 229.425 400 233.083C401.107 233.624 402.215 234.087 403.425 234.345C409.94 236.123 416.171 234.809 422.325 232.671C424.076 232.078 424.926 230.867 425.209 229.09C425.57 226.746 425.364 224.401 425.493 222.057C425.57 220.666 425.338 219.12 426.986 218.348C437.363 220.898 446.633 225.792 455.079 232.181C471.508 244.572 482.143 260.93 487.112 280.869C488.503 286.485 489.584 292.178 489.275 298.026H316.441V298Z" fill="#1E49E1"/>
<path d="M104.725 298C105.085 293.337 106.965 289.112 108.896 284.965C121.539 257.839 143.169 241.507 171.469 233.237C172.241 233.006 173.065 232.825 173.838 232.619C175.202 234.371 174.893 236.535 175.254 238.518C175.537 240.141 175.692 241.764 175.949 243.387C176.928 249.338 178.576 251.115 184.704 251.862C190.446 252.584 196.189 252.12 201.854 250.806C204.248 250.214 206.617 249.518 208.961 248.797C211.175 248.127 212.308 246.71 212.54 244.34C212.823 241.275 213.312 238.261 212.694 235.17C212.411 233.778 211.999 232.053 213.879 231.151C243.62 235.788 273.13 256.937 279.155 292.204C279.49 294.11 279.722 296.042 280.005 297.974H104.725V298Z" fill="#1E49E1"/>
<path d="M202.24 251.579C197.219 252.842 192.146 253.125 186.996 253.022C184.035 252.97 181.357 252.095 178.705 250.961C176.851 250.163 176.027 248.54 175.641 246.633C174.714 242.022 174.096 237.359 173.838 232.645C173.684 231.228 173.452 229.786 173.349 228.369C173.04 223.294 173.632 223.964 168.714 223.99C160.809 224.041 152.878 224.144 144.972 224.247C142.191 224.273 140.749 223.294 140.312 220.229C138.509 207.863 136.398 195.524 134.518 183.159C134.235 181.304 133.488 180.609 131.788 180.093C126.844 178.574 122.724 175.791 119.789 171.438C114.227 163.194 116.364 154.59 125.068 149.902C125.686 148.871 126.716 148.511 127.771 148.202C142.964 146.424 157.719 142.972 171.907 137.176C184.756 131.921 196.627 125.094 207.03 115.82C209.734 113.425 211.897 110.539 214.034 107.654C214.884 106.495 215.656 105.259 217.201 104.846C225.673 103.558 234.17 104.022 242.668 103.996C245.397 103.996 247.097 105.31 247.895 107.886C248.256 109.071 248.745 110.23 248.745 111.467C248.668 123.446 249.878 135.399 249.466 147.377C249.466 147.892 249.26 148.382 249.208 148.897C249.208 155.26 249.131 161.597 249.286 167.96C249.595 180.454 250.032 192.948 250.444 205.468C250.547 208.636 250.753 211.805 250.882 214.973C251.114 220.795 249.26 222.676 243.337 222.779C234.917 222.933 226.523 223.062 218.102 223.243C212.025 223.371 213.364 223.191 213.287 228.292C213.287 229.116 213.339 229.94 213.339 230.765C211.227 230.275 211.922 228.498 211.922 227.261C211.922 225.02 211.073 224.247 208.832 224.17C199.897 223.809 190.988 224.969 182.052 224.814C179.58 224.762 179.503 226.54 179.709 228.214C180.379 233.959 182.799 238.802 187.28 242.537C190.962 245.603 195.108 247.793 199.588 249.39C200.67 249.776 202.112 249.879 202.189 251.554L202.24 251.579Z" fill="#CF967F"/>
<path d="M426.96 218.322C425.75 220.976 426.394 223.784 426.342 226.54C426.214 232.001 425.802 232.619 420.626 234.165C414.806 235.917 408.935 236.922 402.91 234.989C403.27 233.083 405.124 233.006 406.386 232.439C412.463 229.709 417.433 225.793 420.6 219.816C420.755 219.533 420.909 219.275 421.038 219.018C423.742 213.84 422.943 212.269 417.098 211.908C409.528 211.418 402.034 210.027 394.438 209.976C393.588 209.976 392.816 209.718 392.146 209.229C382.542 208.43 372.963 207.632 363.358 206.859C359.47 206.55 355.581 206.292 351.693 206.112C346.286 205.854 345.384 204.592 346.26 199.362C348.14 187.976 349.839 176.564 351.59 165.152C353.341 153.74 355.144 142.354 356.817 130.942C357.59 125.584 358.852 120.303 359.032 114.867C359.985 113.837 361.272 113.966 362.482 113.888C369.976 113.528 377.469 114.223 384.936 114.661C391.091 115.048 397.193 115.872 403.373 115.743C404.712 115.717 406.051 115.743 407.262 116.413C409.322 118.706 410.12 121.771 412.206 124.115C418.489 131.174 426.008 136.661 434.016 141.555C449.105 150.752 465.173 157.682 482.117 162.679C483.456 163.066 485.027 163.194 485.567 164.869C492.237 173.009 489.559 180.866 479.233 183.339C477.482 183.751 477.147 184.833 477.07 186.173C476.555 192.999 475.988 199.852 475.731 206.678C475.628 209.435 474.675 212.088 475.242 214.922C475.525 216.261 474.109 216.081 473.259 216.03C466.821 215.592 460.41 215.128 453.972 214.613C447.457 214.098 440.943 213.479 434.402 212.913C433.784 212.861 433.166 212.913 432.548 212.861C428.72 212.518 426.849 214.347 426.935 218.348L426.96 218.322Z" fill="#A86B51"/>
<path d="M216.506 105.49C209.914 116.232 200.077 123.342 189.443 129.499C172.679 139.211 154.526 145.007 135.445 147.995C132.818 148.408 130.166 148.588 127.514 148.871C126.69 149.052 125.866 149.18 125.042 148.871C122.518 147.506 120.973 145.445 120.149 142.637C112.476 116.748 126.123 92.1461 152.852 84.0572C165.984 80.0901 179.143 80.4765 192.249 84.3406C193.717 84.7785 195.236 85.0877 196.704 85.4483C204.738 87.3804 211.51 91.7854 217.742 96.9634C220.574 99.3333 219.931 102.45 216.48 105.49H216.506Z" fill="#F5B834"/>
<path d="M485.619 164.843C479.645 162.782 473.619 160.876 467.723 158.609C448.899 151.396 430.9 142.637 415.811 128.906C412.283 125.712 408.704 122.337 407.828 117.263C410.274 115.562 413.21 116.85 415.785 116C420.368 116.206 425.029 116.078 429.561 116.593C434.376 117.134 439.192 116.773 443.981 117.366C447.251 117.778 449.002 116.284 450.29 113.115C450.676 112.188 450.779 111.106 451.758 110.488C453.998 110.694 455.878 109.56 457.86 108.787C466.203 105.541 474.598 103.738 483.533 106.572C497.876 111.106 507.275 121.307 515.103 133.415C516.133 135.038 516.982 136.789 517.781 138.541C518.914 140.988 518.27 142.019 515.618 141.89C511.884 141.71 508.15 141.297 504.21 140.962C505.807 144.93 507.352 148.562 508.742 152.246C509.875 155.234 508.974 156.342 505.858 155.929C502.717 155.517 499.575 155.363 496.151 155.595C497.567 158.248 498.932 160.721 500.245 163.22C500.708 164.096 501.326 165.049 500.477 166.053C499.73 166.929 498.777 166.929 497.696 166.826C493.627 166.466 489.79 164.817 485.67 164.817L485.619 164.843Z" fill="#020202"/>
<path d="M451.732 110.513C450.933 116.954 448.616 118.68 442.153 118.216C433.372 117.598 424.591 117.185 415.81 116.696C415.295 113.218 412.978 112.574 409.836 112.317C404.944 111.905 400.026 111.853 395.133 111.621C385.116 111.132 375.125 110.359 365.109 110.179C362.585 110.127 359.959 110.23 357.744 108.607C362.585 81.0947 387.794 61.7999 414.986 64.7624C433.398 66.7717 447.457 78.9823 451.294 96.5769C452.298 101.137 452.633 105.851 451.757 110.539L451.732 110.513Z" fill="#1E49E1"/>
<path d="M216.505 105.49C219.853 98.7664 219.801 98.8694 213.673 94.5931C208.368 90.8836 202.497 88.2817 196.729 85.4481C208.265 82.1507 219.776 80.1414 231.389 85.1905C246.169 91.6049 256.418 102.089 259.869 118.061C262.315 129.319 259.431 139.468 251.036 147.737C250.547 148.227 249.852 148.51 249.259 148.897C248.461 148.175 248.641 147.222 248.616 146.321C248.384 135.166 248.152 124.012 247.921 112.857C247.921 111.93 247.895 111.003 247.689 110.127C246.556 105.232 246.092 104.872 241.097 104.897C232.908 104.949 224.72 104.846 216.531 105.49H216.505Z" fill="#BC8F2F"/>
<path d="M202.24 251.579C200.695 250.085 198.532 250.033 196.703 249.235C188 245.371 180.97 240.013 179.039 229.966C178.936 229.373 178.833 228.755 178.807 228.137C178.601 224.118 178.807 223.938 182.901 223.964C191.708 223.989 200.489 223.088 209.321 223.294C211.973 223.345 213.055 223.912 212.771 226.694C212.643 228.008 212.153 229.579 213.389 230.764C213.57 230.893 213.724 231.048 213.904 231.177C212.926 232.696 213.286 234.397 213.647 235.917C214.445 239.317 213.415 242.589 213.312 245.912C213.235 248.153 211.201 249.029 209.321 249.621C207.003 250.368 204.634 250.935 202.265 251.553L202.24 251.579Z" fill="#B77357"/>
<path d="M392.172 209.229C399.665 208.816 407.029 210.311 414.445 210.929C416.789 211.109 419.106 211.496 421.449 211.624C422.994 211.702 423.535 212.062 423.329 213.84C422.325 221.903 417.304 227.029 410.866 231.048C408.368 232.594 405.587 233.701 402.935 235.015C398.377 233.804 394.695 231.254 391.554 227.776C390.858 227.003 390.884 226.359 390.987 225.355C391.373 222.032 391.451 218.683 391.657 215.36C391.837 213.325 392.017 211.264 392.197 209.229H392.172Z" fill="#76422D"/>
<path d="M357.745 108.607C370.362 109.509 383.005 109.895 395.623 110.668C401.417 111.029 407.236 110.771 413.004 111.647C415.502 112.008 417.124 112.188 415.862 115.202C415.682 115.64 415.811 116.207 415.785 116.722C413.21 118.036 410.429 117.005 407.777 117.289C407.082 117.108 406.412 116.748 405.717 116.748C390.524 116.825 375.461 114.223 360.268 114.816C359.856 114.816 359.444 114.841 359.032 114.867C351.359 114.429 343.685 113.94 336.012 113.631C333.565 113.528 333.488 112.059 333.54 110.308C333.617 107.912 335.136 107.551 337.145 107.68C343.582 108.041 350.045 108.35 356.509 108.685C356.921 108.685 357.333 108.685 357.745 108.633V108.607Z" fill="#1C2F73"/>
<path d="M125.041 148.871C125.865 148.871 126.689 148.871 127.513 148.871C126.715 149.206 125.891 149.541 125.093 149.876C125.093 149.541 125.067 149.18 125.041 148.845V148.871Z" fill="#F9E2C1"/>
<path d="M435.638 283.136C433.81 277.855 432.136 272.832 430.308 267.86C429.948 266.881 430.36 266.237 430.772 265.593C433.578 261.085 436.462 256.603 439.243 252.095C440.273 250.394 441.02 250.858 441.664 252.301C443.801 257.169 445.913 262.038 448.05 266.881C448.977 268.968 447.097 269.844 446.17 270.951C442.874 274.97 439.398 278.834 435.638 283.136Z" fill="#93B0F9"/>
<path d="M245.397 273.733C245.577 275.331 244.985 275.897 244.47 276.541C241.457 280.405 238.496 284.321 235.483 288.211C233.629 290.632 232.213 290.581 231.08 287.773C229.2 283.136 227.63 278.396 225.904 273.682C225.492 272.6 225.904 271.672 226.419 270.771C228.66 266.623 230.848 262.476 233.166 258.38C234.453 256.113 236.848 255.804 237.981 257.994C240.633 263.068 242.925 268.324 245.346 273.501C245.475 273.759 245.449 274.094 245.397 273.733V273.733Z" fill="#93B0F9"/>
<path d="M202.884 140.139C209.09 138.593 215.27 138.464 221.45 140.242C228.969 142.405 233.449 147.738 233.218 154.127C233.115 157.372 231.698 160.103 229.587 162.396C223.51 169.042 215.63 171.438 206.953 171.927C205.408 172.005 205.408 171.129 205.356 169.995C205.176 166.414 205.639 162.834 204.867 159.279C204.712 159.15 204.455 159.021 204.429 158.867C203.245 152.839 202.343 146.811 202.601 140.628C202.601 140.448 202.781 140.267 202.91 140.087L202.884 140.139Z" fill="#010101"/>
<path d="M155.915 184.06C155.709 181.123 156.405 178.341 157.306 175.611C158.516 172.056 160.628 170.613 163.331 171.463C166.061 172.313 166.936 174.657 165.881 178.29C165.082 181.046 164.542 183.828 165.134 186.739C166.035 191.17 169.357 193.386 173.734 192.278C178.781 190.99 182.412 187.821 185.193 183.545C187.768 179.604 190.137 178.547 192.558 180.145C195.313 181.974 195.39 184.73 192.583 188.749C188.206 194.983 182.67 199.568 174.97 201.268C165.417 203.355 156.302 196.296 155.89 185.915C155.89 185.297 155.89 184.678 155.89 184.06H155.915Z" fill="#F3BCD3"/>
<path d="M202.884 140.138C203.528 146.527 204.197 152.915 204.841 159.304C204.841 162.679 204.789 166.053 204.789 169.402C204.789 170.587 204.841 171.695 203.116 171.643C197.013 171.489 191.554 169.789 187.563 164.946C183.597 160.128 183.958 153.765 188.052 148.948C191.992 144.311 197.219 141.864 202.858 140.112L202.884 140.138Z" fill="#F8F2F0"/>
<path d="M214.291 127.103C219.982 127.593 225.75 128.288 231.106 130.993C233.037 131.972 234.582 133.209 233.449 135.527C232.419 137.614 230.668 136.996 228.917 136.223C219.364 132.024 209.759 131.508 200 135.759C196.42 137.33 194.515 136.3 194.798 133.466C194.953 131.946 196.06 131.457 197.141 130.89C202.472 128.108 208.24 127.464 214.265 127.078L214.291 127.103Z" fill="#F5B834"/>
<path d="M133.333 168.321C133.23 169.866 133.127 171.412 131.479 171.979C129.599 172.597 127.771 171.979 126.457 170.562C124.088 167.96 123.625 161.52 125.505 158.635C126.251 157.501 127.204 156.574 128.775 156.78C130.346 156.986 131.015 157.913 131.298 159.407C131.916 162.396 132.637 165.358 133.307 168.346L133.333 168.321Z" fill="#B77457"/>
<path d="M442.05 171.67C442.127 170.871 442.178 170.047 442.256 169.248C442.487 166.543 444.187 165.049 446.659 164.972C449.105 164.895 450.985 166.286 451.551 168.836C452.659 173.756 451.551 178.419 449.749 182.953C443.569 198.59 423.922 204.051 410.789 193.747C407.03 190.784 404.661 186.868 403.244 182.36C402.266 179.243 403.373 176.693 405.948 175.74C408.652 174.735 410.918 175.843 412.205 179.037C414.111 183.751 416.969 187.435 422.119 188.8C430.771 191.067 440.015 185.014 441.715 175.972C441.972 174.555 442.101 173.138 442.281 171.721C442.204 171.721 442.127 171.721 442.024 171.695L442.05 171.67Z" fill="#EE7D95"/>
<path d="M387.331 169.583C382.001 170.897 377.057 170.047 372.499 166.904C365.701 162.215 365.959 152.452 372.062 147.3C376.13 143.874 380.842 142.225 386.224 142.663C388.593 144.595 388.258 147.48 388.67 150.005C389.494 155.157 389.546 160.386 388.799 165.616C388.593 167.033 388.336 168.45 387.331 169.583V169.583Z" fill="#3A4B8C"/>
<path d="M385.039 125.841C390.987 125.609 396.652 126.975 402.189 128.881C405.588 130.04 406.927 131.921 405.819 134.136C404.532 136.789 402.317 136.377 400 135.579C392.095 132.9 384.112 131.689 375.846 133.853C373.22 134.548 370.825 135.63 368.585 137.124C366.551 138.49 364.388 138.928 362.971 136.558C361.581 134.291 362.817 132.41 364.825 131.096C370.954 127.078 377.752 125.558 385.013 125.815L385.039 125.841Z" fill="#060607"/>
<path d="M387.331 169.583C388.052 164.019 388.773 158.48 388.103 152.839C387.691 149.387 387.202 145.986 386.224 142.663C391.271 142.998 395.545 144.93 398.403 149.181C402.086 154.616 400.257 162.293 394.489 166.363C392.326 167.909 389.983 169.094 387.331 169.583Z" fill="#F2EFEE"/>
<path d="M478.77 173.009C478.718 171.901 478.718 170.381 479.31 168.913C479.594 168.217 478.95 166.955 480.134 166.955C480.752 166.955 481.499 167.779 481.988 168.398C483.817 170.665 483.456 174.168 481.293 176.177C480.675 176.744 480.031 177.337 479.13 177.053C477.843 176.641 479.001 175.662 478.795 174.967C478.667 174.503 478.77 173.962 478.77 173.009V173.009Z" fill="#76432E"/>
<path d="M392.584 80.3477C393.434 80.3477 393.666 80.8629 393.846 81.3008C394.284 82.3312 394.747 83.3617 395.108 84.4178C396.189 87.5607 399.15 90.9353 398.095 93.7432C396.73 97.3497 393.202 100.158 390.653 103.326C389.546 104.717 388.799 104.202 388.207 102.94C386.79 99.9 385.451 96.8345 384.009 93.7948C383.752 93.228 383.881 92.8674 384.215 92.4294C386.996 88.7714 389.546 84.9588 391.837 80.9917C392.018 80.6825 392.404 80.5022 392.584 80.3477V80.3477Z" fill="#93B0F9"/>
<path d="M207.853 161.571C207.853 160.231 207.802 158.892 207.853 157.578C207.931 156.29 208.652 155.491 210.042 155.517C211.252 155.517 212.076 156.213 212.128 157.372C212.231 160.231 212.231 163.117 212.128 165.976C212.076 167.316 211.149 167.934 209.81 167.882C208.574 167.831 207.931 167.058 207.853 165.899C207.75 164.456 207.853 163.039 207.853 161.597V161.571Z" fill="#F5F0EE"/>
<path d="M211.484 149.953C211.201 151.319 210.583 152.375 209.115 152.349C207.622 152.323 206.978 151.293 207.107 149.876C207.21 148.433 208.137 147.635 209.527 147.738C210.789 147.841 211.433 148.743 211.51 149.979L211.484 149.953Z" fill="#E7E1DF"/>
<path d="M385.735 161.056C385.658 161.958 385.632 163.297 385.348 164.585C385.142 165.539 384.756 166.724 383.34 166.363C382.31 166.105 381.821 165.204 382.027 164.199C382.465 162.061 382.516 159.923 382.49 157.785C382.49 156.728 382.954 155.904 384.009 155.801C385.374 155.698 385.683 156.728 385.709 157.836C385.735 158.764 385.709 159.691 385.709 161.03L385.735 161.056Z" fill="#ECEEF4"/>
<path d="M381.718 151.421C381.872 149.979 382.207 148.613 383.984 148.716C386.276 148.871 385.632 150.983 385.992 152.271C386.327 153.508 385.477 154.538 384.113 154.435C382.413 154.281 381.924 152.864 381.718 151.421V151.421Z" fill="#ECEEF4"/>
</g>
</g>
<defs>
<clipPath id="clip0_5484_43222">
<rect width="595" height="297" fill="white"/>
</clipPath>
<clipPath id="clip1_5484_43222">
<rect width="618" height="298" fill="white" transform="translate(-12)"/>
</clipPath>
</defs>
</svg>
