<svg width="595" height="287" viewBox="0 0 595 287" fill="none" xmlns="http://www.w3.org/2000/svg">
<path d="M112.455 286.95H0.744206C0.198789 285.933 0.471497 284.817 0.471497 283.75C0.471497 190.539 0.471497 97.3289 0.471497 4.11844C0.446706 0.0496267 0.000455696 0.446584 4.11587 0.446584C199.995 0.446584 395.849 0.446584 591.728 0.446584C592.794 0.446584 593.91 0.173676 594.951 0.719492C594.951 95.2201 594.951 189.746 595 284.246C595 286.479 594.505 286.975 592.273 286.975C555.73 286.901 519.187 286.926 482.645 286.926C481.628 285.884 481.851 284.569 481.752 283.303C480.513 269.087 475.827 256.062 468.042 244.129C467.621 243.459 467.026 242.913 466.53 242.318C465.365 240.531 464.423 238.596 462.662 237.281C455.25 227.556 445.383 220.956 434.673 215.448C431.301 213.712 427.607 212.967 424.087 211.727C423.442 211.504 422.748 211.404 422.277 210.809C422.004 210.387 421.88 209.916 421.806 209.42C421.657 207.683 421.434 205.946 422.376 204.334C423.343 203.416 424.558 203.49 425.723 203.589C438.491 204.706 451.283 205.723 464.051 206.815C467.497 207.112 467.745 206.939 468.092 203.589C468.86 196.047 469.307 188.455 469.802 180.888C470.05 177.093 470.521 176.423 474.141 175.232C481.38 172.875 483.438 167.119 479.322 160.644C478.851 159.899 478.256 159.205 478.306 158.237C479.025 157.245 480.041 157.542 480.959 157.766C483.289 158.361 485.694 158.684 487.975 159.453C489.314 160.172 490.652 160.619 492.065 159.701C493.131 158.51 492.264 157.518 491.743 156.476C490.875 154.739 489.512 153.151 489.834 150.993C491.446 148.685 493.974 150.099 496.007 149.479C496.206 149.479 496.404 149.454 496.577 149.454C500.916 149.454 501.238 148.983 499.751 144.939C499.354 143.847 498.834 142.781 498.858 141.565C498.933 140.796 499.131 140.076 499.701 139.506C500.098 139.258 500.519 139.208 500.966 139.307C502.205 139.903 502.726 141.019 503.048 142.284C503.197 142.905 503.519 143.103 503.99 142.508C504.61 141.168 506.296 141.59 507.089 140.572C506.321 139.332 503.023 139.53 504.957 136.777C506.519 136.131 508.18 136.528 509.791 136.355C511.353 136.107 511.527 134.767 511.601 133.675C511.676 132.286 510.262 132.187 509.271 131.815C507.04 130.301 506.296 127.721 504.808 125.687C502.627 122.66 499.924 120.03 498.189 116.681C497.767 113.207 497.247 112.686 494.321 112.81C493.355 112.81 492.636 112.314 491.941 111.719C487.231 107.625 481.876 104.747 475.852 103.134C474.984 102.911 474.141 102.589 473.422 102.043C467.844 99.14 462.514 99.2641 457.506 103.383C454.531 105.218 451.209 106.136 447.961 107.253C447.391 107.451 446.796 107.402 446.275 107.005C445.755 103.904 445.755 100.753 445.655 97.6515C445.135 82.8152 433.805 70.1622 421.434 65.8453C409.311 61.6276 397.386 62.2975 385.684 67.582C383.85 68.0781 382.238 69.1202 380.652 70.1126C368.876 77.3074 360.967 87.3554 357.719 100.877C357.397 102.216 357.224 103.606 356.281 104.747C356.034 104.97 355.761 105.119 355.439 105.243C352.91 105.591 350.406 105.467 347.877 105.318C344.059 104.598 340.192 105.094 336.349 104.871C335.184 104.797 334.118 105.094 334.142 106.608C334.142 108.121 335.332 108.344 336.423 108.32C340.291 108.22 344.084 109.138 347.951 108.99C349.935 108.915 351.893 109.039 353.852 109.486C355.141 109.883 356.604 109.411 357.794 110.255C358.066 110.503 358.215 110.801 358.265 111.148C358.141 115.862 356.901 120.452 356.232 125.091C355.364 131.194 354.447 137.298 353.406 143.376C352.166 153.573 350.431 163.67 348.894 173.818C347.951 179.97 347.009 186.098 346.067 192.251C345.497 196.022 346.142 196.99 349.885 197.263C360.323 198.057 370.735 199.024 381.172 199.843C383.899 200.066 386.701 200.042 389.329 201.059C390.072 201.729 390.122 202.572 390.048 203.49C389.577 204.879 389.849 206.542 388.709 207.733C388.015 208.328 387.172 208.576 386.279 208.725C378.049 210.065 370.264 212.794 362.727 216.267C359.132 217.83 355.934 220.038 352.736 222.246C332.481 236.835 320.557 256.335 317.631 281.219C317.408 283.13 317.557 285.189 316.293 286.901H281.237C280.097 286.032 279.948 284.767 279.75 283.477C276.502 261.074 264.329 244.798 245.19 233.287C237.48 228.647 229.051 225.869 220.324 223.884C219.283 223.636 218.167 223.561 217.225 222.916C216.804 222.569 216.531 222.147 216.382 221.626C215.688 214.357 216.456 213.464 223.671 213.439C230.29 213.439 236.934 213.439 243.554 213.439C244.942 213.439 246.33 213.488 247.694 213.166C250.52 212.496 251.561 211.305 251.611 208.427C251.76 195.874 251.561 183.345 250.694 170.791C250.099 161.934 250.173 153.002 250.743 144.12C251.14 142.632 252.603 142.011 253.371 140.796C254.636 139.53 255.751 138.116 257.04 136.876C258.156 135.958 259.296 135.065 259.073 133.378C259.272 131.79 260.139 130.4 260.511 128.837C261.131 127.572 261.528 126.257 261.255 124.818C261.379 121.618 260.858 118.417 261.627 115.266C267.205 112.885 266.313 108.419 265.296 103.879C264.974 102.44 264.627 100.976 265.519 99.5618C265.767 99.2889 266.04 99.0656 266.213 98.7431C266.089 98.9664 265.916 99.1648 265.718 99.3633C264.23 99.6776 263.073 98.925 262.247 97.1056C261.999 97.7507 262.619 98.0484 262.693 98.495C262.916 99.7603 263.412 101.348 261.825 101.795C260.313 102.216 258.677 101.795 258.007 99.9091C257.809 99.3633 257.933 98.7431 257.611 98.1725C256.793 98.2469 256.867 99.2393 256.247 99.4874C254.115 99.7851 253.941 98.0236 253.322 96.7335C253.024 95.5674 253.272 93.9796 251.314 94.054C249.107 93.2105 247.744 91.3746 246.355 89.6379C246.033 88.447 245.091 88.1741 244.025 88.0501C243.331 87.8268 242.835 87.3802 242.537 86.7351C241.372 84.279 239.042 83.8076 236.736 83.2866C236.488 83.2121 236.24 83.0881 236.042 82.9392C235.472 81.922 234.554 81.8724 233.538 82.0709C233.141 82.0461 232.769 81.922 232.422 81.6987C231.778 80.1109 230.712 80.0861 229.423 80.9544C226.596 81.5251 224.018 80.0861 221.241 80.0365C217.572 79.962 213.977 80.1605 210.432 81.1281C208.969 80.9793 207.655 81.4506 206.366 82.0213C204.581 82.4182 202.747 82.5919 200.986 83.1873C198.259 82.9392 195.755 81.9716 193.326 80.756C192.483 80.1109 191.516 79.8132 190.45 79.962C189.012 80.0117 187.574 80.0613 186.186 79.5651C184.599 78.4238 182.789 78.796 181.029 78.796C178.104 78.9697 175.203 78.9448 172.303 78.796C170.542 78.796 168.733 78.399 167.146 79.5651C166.055 79.9869 164.939 80.0365 163.799 79.962C162.634 79.9124 161.419 80.1357 160.303 79.8628C158.667 79.4659 158.394 80.6319 157.874 81.5995C154.453 83.5099 150.932 85.2962 147.337 86.8592C145.602 86.7599 144.585 88.0252 143.395 88.968C143.123 89.1169 142.85 89.2161 142.577 89.2905C141.685 89.4394 140.792 89.4394 139.974 88.968C139.33 88.9184 139.801 87.3554 138.685 88.0004C137.049 88.9184 134.892 93.9796 135.388 95.7163C134.545 98.7679 132.586 101.174 130.702 103.606C130.305 104.102 129.958 104.648 129.611 105.194C129.487 105.417 129.339 105.615 129.19 105.814C128.62 106.459 128.768 107.253 128.719 107.997C128.719 108.692 128.62 109.362 128.322 109.982C127.752 110.751 127.479 111.694 127.083 112.537C126.388 113.381 126.364 114.373 126.438 115.39C126.438 117.202 126.413 119.013 126.438 120.824C126.636 123.751 126.562 126.679 126.488 129.607C126.388 130.996 126.215 132.385 127.132 133.601C127.38 134.147 127.504 134.717 127.628 135.288C128.396 139.183 130.132 142.235 134.421 143.053C134.917 144.17 133.975 144.468 133.33 144.765C121.728 149.826 123.86 162.157 131.297 168.434C131.446 168.558 131.595 168.682 131.743 168.806C132.611 169.674 133.702 170.22 134.743 170.791C135.189 171.014 135.611 171.337 136.082 171.411C141.239 172.23 142.453 176.001 142.999 180.392C143.891 187.537 145.23 194.633 146.395 201.753C146.569 202.845 146.693 203.912 146.023 204.88C145.949 205.376 145.032 204.607 145.156 205.401C145.651 208.154 145.453 210.908 145.354 213.662C145.255 216.019 146.346 217.26 148.626 217.21C151.279 217.136 153.882 217.508 156.56 217.284C162.237 216.788 167.964 217.607 173.666 217.359C167.89 217.607 162.088 216.739 156.312 217.334C154.304 217.532 152.395 217.185 150.436 217.16C149.569 217.16 148.007 216.912 149.172 215.225C150.288 214.655 151.478 214.655 152.668 214.655C159.882 214.655 167.096 214.605 174.311 214.655C178.6 214.679 179.517 215.548 179.938 219.765C180.062 220.956 180.087 222.122 179.74 223.288C179.095 225 177.509 225.372 175.996 225.794C172.402 226.787 168.906 228.052 165.435 229.441C163.65 230.012 161.89 230.707 160.254 231.649C150.709 236.363 141.933 242.193 134.446 249.835C132.76 251.398 131.099 252.961 129.834 254.896C129.686 255.119 129.487 255.318 129.314 255.516C127.504 257.253 126.14 259.312 124.777 261.421C119.967 268.293 116.348 275.712 113.968 283.75C113.621 284.866 113.447 286.082 112.53 286.95H112.455Z" fill="#F47E80"/>
<path d="M466.753 241.747C467.745 241.747 468.017 242.566 468.414 243.235C471.959 249.091 475.207 254.995 477.612 261.496C480.661 269.807 482.496 278.168 482.644 286.95H316.268C317.259 268.566 323.184 252.043 334.911 237.703C339.993 231.5 345.646 225.918 352.439 221.601C355.984 220.262 358.959 217.954 362.008 215.821C370.289 211.578 379.065 208.924 388.263 207.633C389.378 208.948 388.833 210.561 389.006 212.025C389.081 213.414 389.13 214.828 388.808 216.193C388.808 216.987 387.246 217.805 388.808 218.624C392.155 221.552 395.452 224.504 399.915 225.645C400.187 225.72 400.46 225.794 400.733 225.918C401.129 226.067 401.526 226.266 401.898 226.464C403.906 226.985 405.939 226.613 407.947 226.737C409.212 226.737 410.55 227.01 411.616 225.968C413.699 225.521 415.682 224.777 417.715 224.157C419.153 223.71 420.343 222.966 420.988 221.502C421.112 221.229 421.285 220.981 421.459 220.733C422.277 217.731 421.31 214.605 422.054 211.603C422.202 211.28 422.425 211.032 422.723 210.859C426.343 211.107 429.665 212.397 432.937 213.811C442.779 218.128 451.432 224.206 459.117 231.699C460.704 233.262 462.092 234.999 463.084 237.008C464.175 238.695 463.852 241.474 466.778 241.747H466.753Z" fill="#E21E1F"/>
<path d="M164.741 228.821C169.302 226.687 174.087 225.273 178.971 224.107C180.558 227.456 180.384 231.178 181.078 234.701C181.574 237.256 181.921 239.812 184.673 241.052C185.59 241.499 186.458 242.045 187.499 242.218C187.946 242.317 188.367 242.466 188.789 242.665C189.061 242.814 189.334 242.963 189.607 243.111C193.102 243.632 196.598 243.211 200.069 243.335C203.267 243.732 206.267 242.913 209.192 241.772C209.415 241.598 209.688 241.474 209.936 241.35C211.622 240.655 213.853 241.672 215.142 239.737C215.316 239.539 215.489 239.39 215.712 239.241C216.109 238.968 216.431 238.621 216.654 238.174C216.778 237.951 216.902 237.728 217.051 237.504C217.721 236.09 217.299 234.577 217.398 233.113C217.274 231.004 217.696 228.895 217.076 226.811C216.853 226.216 216.63 225.645 216.481 225.025C216.407 224.057 216.233 223.04 217.497 222.643C247.322 227.382 273.105 248.024 279.65 277.92C280.295 280.897 280.716 283.948 281.237 286.95H112.455C113.571 279.929 116.595 273.628 119.942 267.45C121.207 265.118 122.496 262.786 124.33 260.826C126.14 259.015 127.95 257.228 128.991 254.822C131.545 253.904 132.388 251.448 133.776 249.488C141.213 241.573 149.99 235.569 159.857 231.079C161.567 230.508 163.303 230.037 164.716 228.821H164.741Z" fill="#E21E1F"/>
<path d="M594.951 0.744295C398.303 0.744295 201.68 0.744295 5.033 0.744295C0.124252 0.744295 0.744043 0.0992393 0.744043 4.96196C0.744043 98.9664 0.744043 192.946 0.744043 286.95C-0.49554 286.405 0.198627 285.338 0.198627 284.569C0.149043 266.358 0.173835 248.148 0.173835 229.937C0.149043 154.243 0.149043 78.5231 0.09946 2.82832C0.09946 0.595436 0.595293 0.0992394 2.82654 0.0992394C199.3 0.148859 395.799 0.148859 592.273 0.198479C593.141 0.198479 594.281 -0.496196 594.951 0.744295Z" fill="white"/>
<path d="M184.846 241.871C181.326 241.648 180.781 238.77 180.433 236.289C179.863 232.245 178.822 228.25 178.971 224.107C179.037 218.484 176.252 215.68 170.616 215.697C163.302 215.697 155.989 215.697 148.7 215.697C147.535 216.416 146.965 215.622 146.444 214.779C145.874 213.364 146.345 211.801 145.899 210.362C145.8 210.09 145.75 209.817 145.7 209.519C145.552 208.527 145.477 207.534 145.205 206.567C145.155 205.971 145.205 205.4 145.7 204.954C145.105 200.811 144.585 196.667 143.915 192.549C143.023 187.14 141.882 181.806 141.163 176.373C140.891 174.239 139.701 173.47 138.065 173.048C136.527 172.652 135.04 172.23 133.85 171.138C133.453 169.997 132.313 169.898 131.47 169.352C126.09 165.581 123.636 160.271 124.454 153.87C125.198 148.239 129.462 145.286 134.445 143.326C135.437 142.086 136.85 142.334 138.164 142.334C139.676 142.284 141.188 142.681 142.651 141.987C142.899 141.813 143.147 141.664 143.42 141.54C144.659 141.118 145.923 140.721 147.262 140.87C148.502 141.317 149.642 141.143 150.683 140.349C152.493 139.977 154.13 138.96 156.063 139.183C157.228 139.977 158.121 139.704 158.815 138.538C159.782 137.719 160.922 137.645 162.088 137.645C163.129 137.769 164.021 137.422 164.864 136.801C166.327 136.231 167.666 135.089 169.426 135.66C171.335 136.925 173.17 136.355 174.979 135.387C175.773 134.965 176.467 134.444 177.186 133.923C178.326 133.105 179.64 132.608 180.483 134.072C181.326 135.511 180.31 136.404 179.243 136.851C179.69 136.628 180.756 136.702 180.731 135.635C180.681 132.857 182.813 132.087 184.747 131.145C185.838 130.624 187.028 130.301 186.78 128.713C187.673 126.629 189.458 126.133 191.466 126.034C192.21 126.133 193.201 126.778 193.226 125.24C193.077 124.595 193.226 124.024 193.821 123.727C197.019 122.039 199.969 119.931 202.969 117.946C203.539 117.574 204.258 117.524 204.952 117.499C207.159 117.772 207.779 116.11 208.473 114.547C210.134 112.637 212.167 111.049 213.282 108.692C213.704 107.799 214.572 107.228 215.563 106.955C216.753 106.881 217.547 106.384 217.522 105.07C217.621 104.673 217.77 104.3 218.042 103.978C219.158 103.134 220.298 104.3 221.439 103.928C221.761 102.986 220.125 101.596 222.059 101.001C229.298 100.207 236.562 99.7355 243.826 99.537C248.511 99.4129 250.941 101.795 251.238 106.459C251.412 109.089 251.61 111.768 250.941 114.373C249.478 117.648 249.553 120.948 250.817 124.248C252.007 129.731 252.205 135.288 252.354 140.87C252.428 141.813 252.081 142.607 251.511 143.302C251.511 152.183 251.015 161.115 251.66 169.947C252.602 182.65 252.652 195.328 252.726 208.03C252.726 212.571 250.991 214.406 246.33 214.456C238.52 214.531 230.711 214.481 222.902 214.481C218.968 214.481 217.018 216.424 217.051 220.311C217.051 220.907 217.051 221.502 217.051 222.097C215.167 221.8 215.588 220.212 215.613 219.095C215.712 216.565 214.497 215.994 212.192 215.92C203.787 215.573 195.408 216.863 187.003 216.49C184.772 216.391 184.623 217.855 184.772 219.443C185.293 224.876 187.524 229.491 191.689 233.113C195.011 235.991 198.779 238.1 202.895 239.663C204.233 240.184 205.845 240.382 206.514 241.995C205.076 244.352 202.696 243.285 200.688 243.558C196.598 243.285 192.482 244.153 188.416 243.037L187.35 242.863C187.226 240.829 185.565 242.442 184.846 241.821V241.871Z" fill="#D0987F"/>
<path d="M389.229 201.456C380.106 200.687 370.982 199.918 361.859 199.173C357.347 198.801 352.81 198.479 348.298 198.156C345.199 197.933 344.331 196.221 344.802 193.368C345.893 186.669 346.885 179.97 347.926 173.247C349.488 163.249 351.05 153.25 352.612 143.227C353.851 140.721 354.372 138.091 354.372 135.263C354.372 133.899 354.05 132.236 355.562 131.244C356.331 130.748 355.81 130.202 355.612 129.706C355.289 128.937 355.141 127.919 355.587 127.423C357.297 125.389 356.653 123.057 356.653 120.799C356.653 119.31 357.124 118.194 358.76 118.169C360.52 118.144 360.322 119.633 360.446 120.749C360.57 121.816 360.52 122.908 360.496 123.999C360.496 125.463 360.297 126.877 360 128.316C359.553 130.4 361.041 132.112 363.198 132.261C364.785 131.988 366.123 131.194 367.536 130.475C377.875 125.166 388.188 126.133 398.476 130.624C399.518 131.517 399.121 132.807 399.245 133.899C401.65 133.328 403.187 131.343 405.344 130.425C406.558 129.904 406.335 128.862 406.36 127.895C406.385 127.076 406.112 126.356 405.864 125.612C405.418 124.322 406.087 123.379 407.253 123.082C408.542 122.759 408.938 123.875 409.087 124.893C409.41 127.15 409.186 129.433 408.988 131.517C409.533 129.904 409.781 128.068 410.55 126.356C412.409 125.935 413.798 128.366 415.781 127.225C417.591 127.448 418.632 128.937 419.971 129.879C436.928 141.887 455.497 150.447 475.331 156.426C476.521 156.773 477.934 156.848 478.553 158.237C479.198 158.981 479.917 159.676 480.487 160.495C485.024 166.846 481.752 175.008 473.942 176.373C471.81 176.745 470.992 177.564 470.868 179.474C470.422 185.974 469.926 192.45 469.628 198.95C469.505 201.505 468.686 203.986 469.083 206.616C469.381 208.477 467.819 208.03 466.852 207.956C460.852 207.559 454.853 207.137 448.853 206.641C442.953 206.145 437.077 205.549 431.201 205.028C428.35 204.78 425.499 204.631 422.648 204.458C421.458 201.555 421.582 201.282 424.185 201.481C422.326 201.084 421.979 201.084 421.979 202.175C421.979 205.227 419.822 204.607 418.062 204.755C409.261 204.135 400.534 202.721 391.683 202.374C390.766 202.349 389.973 202.026 389.254 201.456H389.229Z" fill="#A86B52"/>
<path d="M162.286 138.439C161.071 138.488 159.832 138.364 158.766 139.158C158.171 140.101 157.427 140.448 156.411 139.754C154.328 139.605 152.617 141.342 150.461 140.895C149.568 141.664 148.502 141.366 147.486 141.466L143.37 142.086C142.131 143.078 140.593 142.384 139.255 142.731C139.007 142.83 138.759 142.979 138.536 143.153C137.147 143.202 135.784 143.277 134.396 143.326C129.586 144.021 127.008 139.481 126.636 133.75C125.644 132.733 126.561 131.12 125.545 130.103V120.65C126.264 117.847 126.561 114.944 127.231 112.116C127.404 111.371 127.28 110.528 127.826 109.883L127.875 107.625C128.644 106.98 128.247 105.814 128.991 105.194L129.09 105.243C129.561 104.722 130.131 104.226 129.71 103.407L134.941 95.6915C135.784 94.1533 136.949 92.888 138.164 91.6475C139.726 90.7047 141.065 89.3898 142.726 88.5959C142.899 88.5959 143.048 88.5462 143.221 88.5214C144.486 87.8268 145.676 87.0577 146.841 86.1893C150.386 84.5767 153.634 82.2197 157.526 81.3266C159.138 79.5155 161.617 79.9869 163.575 79.0937L167.046 78.9697C168.509 77.8284 170.467 79.0689 171.905 77.9028H181.227C182.665 79.0441 184.648 77.8284 186.086 78.9697L190.722 79.1185C191.416 79.7884 192.557 79.4659 193.201 80.2102C195.953 80.4831 198.259 82.1205 200.936 82.5671C202.821 82.0709 204.407 82.9888 205.994 83.6835C210.531 85.6931 214.721 88.323 218.762 91.1513C223.77 94.6495 224.067 96.4854 220.547 101.596C220.125 102.713 219.059 103.209 218.266 104.003L218.092 105.094C217.596 106.161 216.729 106.906 215.787 107.575C213.307 108.344 213.258 111.297 211.25 112.562C210.308 113.158 209.812 114.348 208.622 114.721C207.63 116.16 206.564 117.474 204.903 118.169C202.597 117.871 201.631 120.104 199.895 120.923C197.837 121.891 196.152 123.603 193.896 124.372C193.4 124.545 194.243 124.893 194.317 125.215C193.772 126.133 192.78 126.133 191.937 126.431C190.102 126.729 188.342 127.2 187.202 128.862C186.334 129.904 185.194 130.5 183.88 130.822C182.888 130.872 181.971 131.145 181.301 131.939C177.285 133.179 173.963 136.429 169.377 136.057C167.592 135.635 166.402 137.57 164.641 137.273C163.997 138.042 162.856 137.67 162.187 138.389L162.286 138.439Z" fill="#F5B834"/>
<path d="M478.528 158.237C471.537 155.979 464.323 154.193 457.555 151.315C444.613 145.807 431.945 139.63 420.491 131.318C418.855 130.128 417.243 128.937 415.607 127.771C413.946 127.299 412.954 125.885 411.591 124.992C411.343 124.843 411.12 124.694 410.921 124.52C409.533 123.156 408.194 121.717 406.93 120.253C405.913 118.889 404.922 117.524 404.252 115.986C403.732 114.82 403.137 113.579 404.525 112.513C406.98 111.669 409.632 112.215 412.111 111.57C414.888 111.074 417.615 111.57 420.342 111.967C426.02 112.736 431.746 112.463 437.448 112.661C437.944 112.711 438.44 112.711 438.936 112.736C439.68 112.736 440.423 112.736 441.192 112.736C442.159 112.785 443.027 112.661 443.646 111.768C444.985 110.379 444.911 108.196 446.497 106.955C450.142 105.888 453.687 104.499 457.158 102.936C462.488 100.108 468.041 99.7851 473.743 101.596C475.38 102.167 476.991 102.787 478.652 103.283C484.305 104.946 489.114 107.997 493.354 112.016C493.602 112.264 494.048 112.289 494.395 112.438C496.651 113.009 497.816 114.671 498.684 116.656C502.576 121.32 506.32 126.108 509.32 131.418C511.005 132.658 511.7 134.196 510.881 136.231C509.567 137.546 507.906 136.801 506.394 137C503.89 136.578 501.361 137.198 498.882 136.702C498.312 137.794 499.205 138.488 499.279 139.332C499.279 140.027 499.477 140.696 499.477 141.391C500.023 142.929 500.543 144.492 501.089 146.031C502.353 149.529 501.981 150.124 498.386 150.273C497.717 150.298 497.023 150.323 496.353 150.348C494.668 149.727 492.907 150.248 491.197 150.099C490.106 150 489.883 150.695 490.379 151.638C490.825 153.746 492.288 155.359 493.18 157.245C493.8 158.51 494.023 159.602 492.783 160.569C491.222 160.792 489.66 160.991 488.123 160.42C484.949 159.676 481.751 158.957 478.578 158.212L478.528 158.237Z" fill="#020202"/>
<path d="M446.473 106.955C446.175 108.99 445.704 110.974 443.969 112.364C443.324 112.885 442.556 112.984 441.787 112.959C441.341 112.959 440.895 112.909 440.523 112.661C439.853 112.14 440.374 111.471 440.349 110.801C439.333 111.595 438.986 112.81 438.068 113.579C429.317 114.026 420.64 112.81 411.938 112.388C411.269 109.039 408.938 108.568 405.963 108.444C399.27 108.146 392.576 107.65 385.857 107.402C377.378 107.079 368.949 106.037 360.421 106.136C358.884 106.136 357.223 105.963 356.058 104.648C358.586 89.886 366.272 78.5231 378.742 70.3607C379.238 70.0381 379.783 69.8396 380.329 69.5915C382.436 69.7652 384.32 69.4675 385.113 67.1106C401.104 60.015 416.5 60.0894 431.3 70.4847C439.531 76.2654 444.316 84.1549 446.126 93.7811C446.919 98.0732 447.514 102.564 446.473 107.005V106.955Z" fill="#E21E1F"/>
<path d="M220.075 101.621C222.191 97.2876 221.249 93.7811 217.249 91.1017C212.167 87.6779 206.886 84.6263 201.035 82.6415C202.597 81.4506 204.432 81.4258 206.266 81.4506C207.407 80.8552 208.869 81.2522 209.911 80.3342C216.629 78.1013 223.372 79.3418 230.091 80.3838C231.132 80.1605 231.802 80.8056 232.496 81.401L233.611 81.5499C234.405 81.9468 235.496 81.7732 236.066 82.6663C236.19 82.7656 236.339 82.7904 236.512 82.7656C238.917 83.6091 241.297 84.5271 243.156 86.3878C243.28 87.0825 243.726 87.3802 244.396 87.4546C245.189 88.05 246.429 88.0997 246.726 89.3402L251.387 93.4586C252.775 93.9796 253.395 95.1705 253.866 96.4358C254.56 97.5026 254.883 98.8919 256.221 99.4626C257.213 99.8843 257.535 100.827 257.932 101.695C258.081 102.092 258.155 102.489 258.205 102.886C258.106 104.524 258.428 106.012 259.841 107.079C260.015 107.278 260.163 107.501 260.287 107.749C260.585 108.642 261.031 109.461 261.576 110.23C262.072 111.694 263.337 113.034 262.295 114.745L262.171 125.438C261.676 126.605 261.552 127.895 261.105 129.085C261.378 130.822 259.816 132.038 259.816 133.7C259.469 135.164 258.304 136.131 257.511 137.347C256.395 138.588 255.602 140.126 254.089 140.969C253.222 141.515 252.379 141.59 251.536 140.895L250.346 124.272C249.379 121.122 249.453 117.946 250.296 114.795C250.023 110.825 251.288 106.757 249.205 102.911C248.412 101.447 247.396 100.629 245.759 100.604C240.032 100.505 234.355 101.1 228.653 101.472C226.199 101.646 223.72 101.646 221.24 101.72C220.844 102.068 220.472 102.018 220.1 101.646L220.075 101.621Z" fill="#BC8F30"/>
<path d="M206.49 241.821C197.813 239.167 189.904 235.445 185.69 226.687C184.301 223.809 183.533 220.758 183.806 217.557C183.905 216.54 183.954 215.275 185.591 215.448C194.441 216.342 203.267 214.63 212.142 215.076C216.828 215.324 216.431 214.63 216.456 219.368C216.456 220.311 216.134 221.378 217.026 222.147C217.175 222.321 217.349 222.494 217.497 222.643C216.853 223.412 217.101 224.33 217.101 225.199C217.373 225.62 217.324 226.067 217.249 226.514C216.283 229.193 216.431 231.823 217.572 234.403C217.522 235.693 217.993 237.058 217.002 238.224C216.63 238.646 216.307 239.117 215.812 239.39C214.299 241.3 211.894 241.027 209.911 241.797H209.886C208.771 242.59 207.63 242.69 206.515 241.821H206.49Z" fill="#B77257"/>
<path d="M404.253 112.835C404.179 115.837 406.633 117.648 407.65 120.129C408.418 121.965 409.583 123.429 411.517 124.148C411.691 124.148 411.815 124.248 411.914 124.396C412.806 125.811 411.22 125.935 410.749 126.629C410.749 127.994 411.22 129.433 409.906 130.549C409.683 130.748 409.757 131.294 409.658 131.641C409.435 132.311 411.418 133.229 409.658 133.576C408.17 133.874 408.418 132.41 408.393 131.467C408.344 129.383 408.393 127.324 408.393 125.24C408.393 124.645 408.443 123.999 407.848 123.627C407.402 123.354 407.179 123.801 406.881 124.024C406.336 124.471 406.237 124.917 406.683 125.538C407.625 126.753 407.079 128.217 407.179 129.557C407.228 130.128 407.154 131.17 406.633 131.07C404.005 130.599 403.559 134.345 401.005 133.824C400.931 133.824 400.807 133.899 400.733 133.899C399.667 133.824 400.782 136.603 398.749 135.362C396.915 134.246 398.7 133.204 398.625 132.137C398.625 131.864 398.427 131.566 398.328 131.294C398.898 130.599 399.667 130.475 400.485 130.5C401.204 130.698 401.898 130.847 401.749 129.681C401.923 126.952 400.683 125.314 398.031 124.669C397.188 124.471 396.394 124.074 395.675 123.578C394.609 122.436 393.171 122.709 391.833 122.536C391.535 122.511 391.262 122.436 390.99 122.387C390.048 121.99 388.957 122.139 388.039 121.717C387.792 121.568 387.593 121.37 387.469 121.097C387.519 120.675 387.742 120.377 388.139 120.228C387.965 120.055 387.792 120.204 387.692 120.278C385.436 122.089 382.759 121.32 380.255 121.469C376.858 121.667 373.313 120.849 370.14 122.784C369.793 122.982 369.495 123.23 369.223 123.528C367.016 124.967 364.81 126.406 362.281 127.25C359.628 127.771 360.645 125.141 359.703 124.223C359.703 122.833 359.703 121.444 359.703 120.08C359.703 119.534 359.876 118.74 358.984 118.765C358.314 118.765 357.546 118.938 357.422 119.831C357.347 120.328 357.372 120.824 357.347 121.32C357.273 123.503 358.934 125.86 356.182 127.721C355.215 128.366 356.43 129.408 356.976 130.202C357.372 130.773 358.017 132.212 357.124 132.112C352.984 131.641 355.166 134.693 355.141 135.859C355.067 138.637 354.967 141.242 352.687 143.202C354.372 132.509 356.083 121.791 357.769 111.098C360.62 109.535 363.719 110.602 366.694 110.28C369.446 110.28 372.222 110.28 374.974 110.28C377.627 110.156 380.304 109.982 382.932 110.478C383.255 110.553 383.577 110.701 383.874 110.875C385.858 112.066 388.039 111.297 390.122 111.495C390.469 111.495 390.816 111.471 391.163 111.421C394.485 111.272 397.807 111.297 401.129 111.421C402.319 111.446 403.757 111.272 404.328 112.86L404.253 112.835Z" fill="#A86A51"/>
<path d="M389.229 201.456C396.32 201.133 403.262 202.423 410.253 203.093C413.178 203.366 416.104 203.589 419.029 203.813C420.814 205.252 419.971 207.162 419.599 208.725C417.765 216.391 407.922 225.075 399.939 226.266C396.221 225.67 393.246 223.685 390.543 221.204C389.775 220.51 389.329 219.468 388.188 219.195C387.519 218.426 387.544 217.657 388.089 216.838L388.263 212.099C389.254 209.345 388.659 206.418 389.304 203.639L389.229 201.431V201.456Z" fill="#76422E"/>
<path d="M383.354 111.222L375.123 111.123C374.85 110.925 374.528 110.776 374.205 110.677C367.388 110.528 360.57 110.677 353.752 110.429C347.852 110.081 341.951 109.635 336.051 109.461C333.646 109.386 332.58 108.642 332.803 106.161C333.026 103.804 334.464 103.556 336.349 103.829C340.142 104.4 344.034 103.457 347.777 104.598C350.505 105.218 353.256 105.07 356.008 104.648V104.598C368.429 105.169 380.8 106.236 393.221 106.484C398.923 106.608 404.6 107.228 410.302 107.6C411.864 107.699 412.756 108.22 412.236 110.032C412.013 110.776 412.038 111.595 411.938 112.364C409.434 113.579 406.831 112.661 404.253 112.835C399.716 111.793 395.08 112.761 390.494 112.215C388.237 111.049 385.585 112.562 383.354 111.222Z" fill="#BE1C1F"/>
<path d="M399.939 226.315C404.848 223.437 410.451 221.626 414.046 216.838C416.947 212.992 419.971 209.172 419.029 203.837C420.517 204.259 421.558 204.061 421.459 202.15C421.409 201.257 421.359 200.29 422.797 200.513C423.516 200.612 424.334 199.942 424.929 200.835C425.698 202.002 424.781 202.572 424.161 203.267C423.442 202.944 424.136 201.257 422.897 201.778C421.657 202.324 422.946 203.54 422.624 204.433C422.599 206.194 422.549 207.956 422.525 209.742C421.781 210.71 422.103 211.851 422.029 212.943C421.756 215.845 422.624 218.823 421.483 221.701C421.483 222.916 421.359 223.71 419.847 224.231C417.07 225.199 414.443 226.538 411.393 226.464C410.773 226.96 410.03 226.96 409.311 226.96C406.41 226.762 403.435 227.481 400.584 226.414L399.939 226.29V226.315Z" fill="#A76A51"/>
<path d="M257.412 101.695C256.817 101.05 256.272 100.356 256.198 99.4378C256.173 97.974 256.52 96.7335 258.007 96.0636C258.999 96.7335 258.751 97.7755 258.578 98.495C258.106 100.505 259.569 100.653 260.784 101.125C261.255 101.298 261.8 101.646 261.999 101.001C262.395 99.8347 262.321 98.6687 261.255 97.7755C260.809 97.4034 260.486 96.9072 260.09 96.4358C262.643 95.3441 263.04 95.3938 263.288 97.5522C263.511 99.3137 264.478 99.3137 265.718 99.2889C265.643 102.018 266.139 104.673 266.784 107.327C267.329 109.56 266.883 111.793 265.643 113.803C264.825 115.142 263.362 114.423 262.222 114.721C261.751 113.133 261.305 111.57 260.834 109.982C260.189 109.312 260.263 108.32 259.792 107.575C259.346 107.178 259.197 106.633 259.049 106.087C259.024 104.4 258.701 102.837 257.363 101.671L257.412 101.695Z" fill="#F49E91"/>
<path d="M145.701 204.979L145.751 206.74C146.445 207.633 145.602 208.849 146.346 209.742C147.362 211.231 145.651 213.042 146.941 214.506C147.288 215.275 147.883 215.647 148.726 215.697C150.709 216.987 153.089 216.887 155.147 216.689C159.485 216.242 163.749 216.168 168.088 216.788C170.567 217.136 173.145 216.317 175.674 216.912C176.269 217.061 177.087 216.615 177.434 217.533C176.889 218.426 176.021 218.054 175.302 218.078C166.129 218.326 156.932 217.681 147.734 218.426C145.602 218.599 144.114 216.615 144.313 215.052C144.759 211.156 144.263 207.236 144.66 203.118L145.701 205.028V204.979Z" fill="#F49E91"/>
<path d="M166.402 224.008C166.278 222.693 167.17 221.973 167.443 222.023C170.244 222.519 172.525 219.344 175.5 221.031C176.938 221.849 176.294 219.84 177.285 219.592C178.128 220.187 178.897 221.601 178.128 222.098C176.789 222.941 175.352 224.182 173.467 223.735C173.046 223.636 172.426 222.891 172.228 223.338C170.393 227.655 168.236 222.42 166.377 224.033L166.402 224.008Z" fill="#F49E91"/>
<path d="M138.585 92.094C137.519 93.4338 136.875 95.1705 135.015 95.7411C133.23 95.2945 133.503 93.5578 134.073 92.9128C135.635 91.1513 136.28 88.7447 138.189 87.2561C138.808 86.7599 139.453 85.9164 140.197 86.4374C141.436 87.2809 139.403 87.7771 139.775 88.6207C140.569 90.1837 139.081 90.9776 138.561 92.094H138.585Z" fill="#F49F91"/>
<path d="M473.719 101.621C468.092 101.001 462.588 101.571 457.134 102.961C459.861 99.5618 466.852 98.0484 470.348 100.356C471.463 101.1 473.348 99.3882 473.744 101.621H473.719Z" fill="#F19C90"/>
<path d="M504.635 137.298C505.106 138.488 505.428 139.53 507.287 139.009C508.75 138.612 507.882 140.225 508.205 140.87C507.411 141.714 506.395 141.416 505.453 141.441C503.916 141.49 503.792 142.135 504.635 143.252C504.536 144.046 504.114 144.468 503.271 144.368C502.552 144.269 502.205 143.748 502.329 143.153C502.602 141.739 501.362 140.895 501.089 139.704C500.891 137.174 502.8 136.95 504.535 136.528C504.833 136.752 504.858 137.025 504.659 137.322L504.635 137.298Z" fill="#F39D92"/>
<path d="M504.634 136.801C503.42 137.719 501.957 138.34 501.064 139.679H499.875C499.503 140.027 499.131 140.027 498.759 139.679L496.701 135.586L505.899 136.702C505.502 137.074 505.081 137.049 504.634 136.801V136.801Z" fill="#F3A28E"/>
<path d="M498.362 106.533C499.701 106.459 503.494 110.329 503.346 111.322C503.197 112.215 502.503 112.587 501.858 112.19C500.123 111.123 498.61 109.709 497.643 107.898C497.272 107.228 497.792 106.608 498.387 106.533H498.362Z" fill="#F39D92"/>
<path d="M127.875 109.932C128.718 113.406 126.611 116.482 126.611 119.856C126.611 120.402 126.065 120.601 125.569 120.7C125.569 118.74 125.569 116.78 125.594 114.82C126.313 114.15 125.966 113.034 126.66 112.339C126.834 111.421 126.437 110.205 127.875 109.932V109.932Z" fill="#F6B545"/>
<path d="M353.752 110.428C359.628 109.461 365.528 110.205 371.404 110.032C372.618 110.007 373.982 109.535 375.073 110.602C372.321 111.222 369.519 110.701 366.743 110.875C363.743 110.776 360.743 111.074 357.743 110.726L353.777 110.428H353.752Z" fill="#A33024"/>
<path d="M466.752 241.747C463.604 242.367 463.009 241.598 463.058 237.008C465.091 237.951 466.257 239.588 466.752 241.747Z" fill="#E12225"/>
<path d="M362.032 215.821C359.355 218.575 356.628 221.279 352.463 221.601C355.388 219.244 358.636 217.408 362.032 215.821Z" fill="#DF2526"/>
<path d="M510.51 136.032C511.006 134.246 509.494 133.005 509.271 131.418C510.808 131.12 512.444 131.79 512.568 133.055C512.717 134.544 512.295 136.404 510.535 137.322C510.188 136.901 510.188 136.479 510.51 136.032V136.032Z" fill="#F29D93"/>
<path d="M498.635 116.656C497.197 115.242 495.784 113.852 494.346 112.438C495.04 112.264 495.387 110.85 496.205 111.595C497.172 112.488 498.585 113.133 498.759 114.646C498.833 115.291 498.684 115.986 498.635 116.656V116.656Z" fill="#F29F94"/>
<path d="M385.114 67.0858C385.982 69.3683 383.998 69.4923 382.759 70.2862C381.569 71.0305 380.875 70.7576 380.329 69.5667C381.742 68.4007 383.279 67.4331 385.114 67.0858V67.0858Z" fill="#E22325"/>
<path d="M133.8 249.488C133.602 252.762 132.214 254.325 129.016 254.822C130.206 252.688 131.916 251.001 133.8 249.488Z" fill="#E12424"/>
<path d="M163.65 79.1681C161.914 80.6567 159.807 81.1281 157.601 81.401C157.725 79.6643 158.493 78.796 160.377 79.0937C161.443 79.2674 162.534 79.1433 163.625 79.1681H163.65Z" fill="#F4A288"/>
<path d="M128.991 254.822C129.164 258.171 126.611 259.387 124.33 260.826C125.57 258.568 127.032 256.509 128.991 254.822Z" fill="#E12424"/>
<path d="M243.131 86.3878C240.751 85.4946 238.57 84.2045 236.487 82.7656C239.363 82.7656 241.892 83.3858 243.131 86.3878Z" fill="#F3A08A"/>
<path d="M504.634 143.252C503.023 142.954 503.27 141.614 503.568 140.721C504.138 139.109 504.857 140.895 505.551 140.845C506.419 140.771 507.312 140.87 508.179 140.895C508.03 142.111 507.138 142.086 506.245 142.086C505.403 142.086 504.708 142.259 504.609 143.277L504.634 143.252Z" fill="#F4A28B"/>
<path d="M138.586 92.094C138.189 90.6551 139.503 89.8115 139.8 88.6207C140.817 88.6207 141.809 88.6207 142.825 88.6455C141.833 90.3077 140.47 91.5234 138.586 92.094Z" fill="#F4A28A"/>
<path d="M389.304 203.664C389.304 205.698 389.378 207.733 389.354 209.792C389.354 210.71 389.651 211.826 388.263 212.149C388.263 210.635 388.263 209.147 388.287 207.633C389.378 206.492 388.139 204.78 389.304 203.664V203.664Z" fill="#833F2F"/>
<path d="M171.98 78.0021C170.741 80.1357 168.733 78.7464 167.121 79.0689C168.336 76.8856 170.369 78.3246 171.98 78.0021Z" fill="#F5A484"/>
<path d="M186.161 79.0441C184.525 78.7464 182.541 80.1109 181.302 77.9773C182.938 78.2998 184.946 76.8608 186.161 79.0441Z" fill="#F5A67E"/>
<path d="M146.915 86.2638C146.345 88.0252 145.155 88.8192 143.296 88.5959C143.94 86.9584 145.081 86.0901 146.915 86.2638Z" fill="#F6AE64"/>
<path d="M357.719 110.726L366.743 110.627C366.966 110.726 367.041 110.85 366.966 110.974C366.892 111.098 366.842 111.148 366.768 111.148C363.744 111.148 360.719 111.148 357.694 111.148C357.694 110.999 357.719 110.875 357.694 110.726H357.719Z" fill="#C75A4C"/>
<path d="M490.33 151.638C489.04 150.422 488.817 149.554 491.049 149.777C492.809 149.951 494.668 149.181 496.304 150.347C494.743 150.347 493.205 150.397 491.644 150.397C490.801 150.397 490.404 150.844 490.305 151.638H490.33Z" fill="#DFACA4"/>
<path d="M232.497 81.401C231.53 81.4506 230.761 81.0289 230.092 80.3838C230.216 79.4658 230.736 79.0193 231.654 79.2674C232.794 79.5899 232.397 80.6319 232.497 81.401V81.401Z" fill="#F3A08A"/>
<path d="M356.034 104.673C353.282 105.566 350.555 105.64 347.803 104.623C350.555 104.623 353.282 104.673 356.034 104.673Z" fill="#AF2720"/>
<path d="M251.486 140.87C252.329 140.895 253.172 140.92 254.04 140.945C253.618 142.21 252.85 143.078 251.486 143.326V140.87Z" fill="#C28D3A"/>
<path d="M253.841 96.411C252.775 95.6171 251.933 94.6247 251.362 93.4338C253.99 92.9376 254.015 94.5999 253.841 96.411Z" fill="#F3A384"/>
<path d="M125.569 130.152C127.553 130.897 126.412 132.534 126.66 133.799C124.677 133.055 125.817 131.418 125.569 130.152Z" fill="#F6AE64"/>
<path d="M164.741 228.821C163.526 230.458 161.964 231.302 159.882 231.079C161.32 229.937 163.006 229.317 164.741 228.821Z" fill="#DC2C27"/>
<path d="M383.354 205.053C384.172 205.053 384.568 205.5 384.519 206.318C384.519 206.74 384.197 207.212 383.874 207.013C383.354 206.691 382.833 206.194 382.56 205.624C382.387 205.227 382.982 205.128 383.354 205.053Z" fill="#F39A93"/>
<path d="M265.667 99.5866L265.89 96.1628L266.684 96.2373C266.981 97.3289 267.353 98.4205 265.643 99.5618L265.667 99.5866Z" fill="#F49E91"/>
<path d="M257.462 137.322C257.809 135.859 258.602 134.643 259.768 133.675C260.239 135.66 258.801 136.454 257.462 137.322Z" fill="#E99E71"/>
<path d="M510.51 136.032V137.322C508.576 137.322 506.593 137.322 504.609 137.322C504.609 137.149 504.609 137 504.609 136.826C505.031 136.801 505.452 136.752 505.874 136.727C507.411 136.528 509.097 137.223 510.51 136.057V136.032Z" fill="#E8AAA0"/>
<path d="M209.911 80.3342C209.217 82.3934 207.531 81.2025 206.267 81.4506C207.308 80.5079 208.547 80.235 209.911 80.3342Z" fill="#D38F49"/>
<path d="M236.041 82.6663C235.05 82.6663 234.231 82.2694 233.587 81.5499C234.851 80.9793 236.388 79.7636 236.041 82.6663Z" fill="#F3A08A"/>
<path d="M129.785 103.457C130.256 103.829 131.247 103.953 131.074 104.673C130.851 105.615 129.809 105.094 129.165 105.293C129.041 104.573 129.438 104.028 129.785 103.457Z" fill="#F7B153"/>
<path d="M193.276 80.2846C192.284 80.2846 191.119 80.6815 190.797 79.1929C191.789 79.1929 192.979 78.7216 193.276 80.2846Z" fill="#F5A67B"/>
<path d="M246.702 89.3153C245.883 88.7447 244.842 88.4222 244.371 87.4298C245.71 87.3554 246.974 87.3802 246.702 89.3153Z" fill="#F29F81"/>
<path d="M129.065 105.243C129.065 106.211 129.363 107.352 127.95 107.675C127.999 106.707 127.553 105.516 129.065 105.243Z" fill="#F5A484"/>
<path d="M126.636 112.339C126.636 113.306 127.057 114.473 125.57 114.82C125.57 113.852 125.148 112.686 126.636 112.339Z" fill="#F5A878"/>
<path d="M131.445 169.401C132.734 169.352 133.999 169.277 133.825 171.188C132.958 170.692 131.916 170.443 131.445 169.401Z" fill="#DC957F"/>
<path d="M261.056 129.085C260.883 127.721 261.056 126.456 262.122 125.438C262.321 126.803 261.999 128.043 261.056 129.085Z" fill="#CE914D"/>
<path d="M488.073 160.445C489.635 160.495 491.172 160.544 492.734 160.594C491.147 161.239 489.586 161.512 488.073 160.445Z" fill="#E4AAA7"/>
<path d="M510.237 127.448C509.518 127.498 509.419 127.076 509.444 126.729C509.469 126.406 509.642 125.91 509.865 125.835C510.386 125.662 510.46 126.183 510.46 126.53C510.46 126.853 510.287 127.175 510.212 127.448H510.237Z" fill="#F39896"/>
<path d="M494.296 151.886C494.569 151.811 494.891 151.638 495.213 151.638C495.56 151.638 496.081 151.737 495.907 152.233C495.833 152.456 495.337 152.63 495.015 152.655C494.668 152.68 494.246 152.605 494.296 151.886Z" fill="#F39996"/>
<path d="M421.458 212.149C421.533 211.231 421.062 210.065 422.524 209.767C422.574 210.139 422.648 210.511 422.698 210.859C422.673 211.082 422.624 211.305 422.599 211.529C422.401 211.777 422.301 212.124 422.029 212.347C421.806 212.422 421.607 212.347 421.458 212.149V212.149Z" fill="#B85B44"/>
<path d="M498.734 139.679H499.85C499.85 140.275 499.949 140.92 499.429 141.391L498.734 139.679Z" fill="#F39D92"/>
<path d="M428.624 266.582L426.095 258.444C425.178 257.774 425.153 256.881 425.401 255.888C425.673 254.971 426.194 254.201 426.814 253.507C427.136 253.085 427.607 252.862 428.029 252.564L429.293 250.778C430.309 250.703 430.26 251.547 430.483 252.142C430.483 253.11 431.053 253.383 431.896 253.383C432.144 253.482 432.367 253.631 432.541 253.829C433.309 254.971 434.574 253.953 435.491 254.499C435.739 254.623 435.937 254.822 436.086 255.07C436.582 256.062 435.689 257.873 437.772 257.948C438.02 258.047 438.243 258.196 438.466 258.394C439.408 259.883 438.714 260.826 437.325 261.396C436.383 261.768 435.466 262.041 435.02 263.059C434.871 263.282 434.673 263.455 434.425 263.604C432.689 263.778 432.615 265.019 432.665 266.358C432.59 266.631 432.491 266.879 432.342 267.103C431.499 268.194 430.731 269.534 429.095 268.169C428.822 267.698 428.896 267.103 428.624 266.631V266.582Z" fill="#F5B834"/>
<path d="M433.26 245.195C434.251 244.054 433.557 240.63 436.83 242.541C437.077 242.64 437.276 242.814 437.425 243.037C437.871 243.831 438.243 244.674 438.615 245.518C438.887 246.287 439.135 247.056 438.838 247.875C438.738 248.148 438.738 248.52 438.54 248.694C436.904 250.306 438.838 249.76 439.358 250.083C441.242 252.241 441.912 255.02 443.027 257.551C443.647 258.915 442.061 260.255 440.523 260.875C439.631 261.371 439.036 261.024 438.862 260.106C438.738 259.436 438.788 258.791 438.044 258.444C436.978 257.452 436.631 255.963 435.664 254.871C433.706 251.944 433.78 248.47 433.21 245.195H433.26Z" fill="#F5B833"/>
<path d="M433.259 245.195C435.838 247.974 434.871 251.646 435.714 254.871C435.143 254.921 434.4 254.747 434.003 255.045C431.846 256.608 432.193 254.896 432.144 253.68C432.292 253.556 432.416 253.432 432.491 253.259C432.392 253.408 432.268 253.556 432.144 253.68C430.731 254.499 429.417 255.095 429.788 252.465C430.631 251.671 430.359 250.902 429.788 250.108C429.788 249.115 431.152 248.818 431.003 247.751C432.317 247.379 431.797 245.394 433.284 245.171L433.259 245.195Z" fill="#F6B73A"/>
<path d="M436.953 243.012C436.854 242.863 436.804 242.714 436.804 242.541C436.036 238.522 436.309 238.249 441.118 238.249C446.424 238.249 449.225 242.268 447.316 247.18C447.217 247.453 446.696 247.577 446.374 247.751C446.275 247.652 446.176 247.577 446.052 247.478C445.482 246.61 445.655 245.568 445.432 244.625C444.961 242.665 443.87 241.276 441.936 240.606C440.151 239.985 438.813 240.184 438.589 242.442C438.49 242.714 438.317 242.938 438.118 243.161C437.697 243.36 437.275 243.36 436.928 243.012H436.953Z" fill="#E31E22"/>
<path d="M446.398 247.751C446.274 249.165 446.671 250.629 445.977 252.341L440.448 246.56C439.804 246.386 439.382 245.965 439.085 245.419C439.085 244.476 437.002 244.402 438.068 243.012C441.093 241.598 442.556 241.97 443.597 244.898C444.142 246.411 445.432 246.858 446.398 247.751V247.751Z" fill="#E31E23"/>
<path d="M438.118 264.398L433.408 269.187C431.053 269.385 431.499 268.12 432.143 266.78C432.912 265.589 433.11 264.001 434.523 263.207C434.846 262.885 435.242 262.81 435.689 262.91C436.507 263.406 437.523 263.58 438.118 264.423V264.398Z" fill="#F4B635"/>
<path d="M422.252 248.049C422.847 249.364 422.525 250.579 423.368 251.646C423.963 252.39 424.582 253.184 422.252 253.11C419.748 253.035 420.318 252.093 420.244 250.802C420.194 249.463 420.864 248.619 422.252 248.049Z" fill="#E41D23"/>
<path d="M435.689 263.183H434.499C434.375 261.694 434.673 260.702 436.532 260.776C438.094 260.826 438.639 259.932 438.069 258.444C439.73 258.394 438.813 260.974 440.524 260.85C440.4 261.992 439.284 262.413 438.714 263.207C437.697 263.431 436.681 263.803 435.689 263.183V263.183Z" fill="#F7B63B"/>
<path d="M432.119 266.755C432.168 267.748 431.846 268.963 433.383 269.162C433.457 270.353 431.92 270.849 432.094 272.089C431.697 272.71 431.301 273.28 430.83 272.139L429.64 269.112C429.367 268.765 428.697 268.566 429.218 267.921C430.73 268.889 430.954 266.706 432.119 266.73V266.755Z" fill="#F6B43A"/>
<path d="M430.854 272.139C431.301 272.784 431.697 272.263 432.119 272.089C432.714 272.784 433.879 273.479 433.061 274.471C432.317 275.364 431.202 274.57 430.483 274.099C429.367 273.379 429.987 272.66 430.854 272.139V272.139Z" fill="#DF221B"/>
<path d="M439.358 250.083C437.994 250.083 438.267 251.472 437.647 252.117C436.87 250.728 437.209 249.264 438.663 247.726C438.862 247.552 439.035 247.577 439.159 247.825L439.333 250.083H439.358Z" fill="#F7B53B"/>
<path d="M430.954 247.776L428.4 248.322C431.177 246.883 429.02 244.823 430.185 243.26C432.02 244.575 430.582 246.337 430.954 247.776V247.776Z" fill="#E31D26"/>
<path d="M422.029 212.149C422.227 211.925 422.401 211.727 422.599 211.504C422.376 214.853 423.293 218.252 422.054 221.527C421.533 218.401 421.583 215.275 422.054 212.149H422.029Z" fill="#BB3D2F"/>
<path d="M428.028 252.539C427.954 252.986 427.978 253.507 427.433 253.705C426.689 254.028 426.169 254.722 425.375 254.995L424.979 254.871C425.35 251.844 426.02 251.299 428.003 252.539H428.028Z" fill="#E12024"/>
<path d="M422.029 212.149C422.029 215.275 422.029 218.401 422.029 221.527C421.855 221.577 421.657 221.626 421.458 221.676C421.458 218.5 421.458 215.3 421.434 212.124C421.632 212.124 421.805 212.124 422.004 212.124L422.029 212.149Z" fill="#D05344"/>
<path d="M439.185 247.85C439.011 247.825 438.862 247.8 438.689 247.751C438.243 247.031 437.97 246.237 438.069 245.369C438.466 245.071 438.862 244.997 439.259 245.369C440.003 245.419 440.4 245.816 440.449 246.56C440.424 247.379 439.904 247.726 439.16 247.825L439.185 247.85Z" fill="#DB2A18"/>
<path d="M400.559 226.414H409.558C409.583 227.556 408.69 227.134 408.095 227.258C405.864 227.109 403.608 227.58 401.402 226.985L400.559 226.414Z" fill="#C35D48"/>
<path d="M435.688 263.183C436.705 263.034 437.721 261.52 438.713 263.207C438.639 263.654 438.688 264.175 438.093 264.373C437.151 264.225 435.912 264.746 435.688 263.183Z" fill="#F2BC2D"/>
<path d="M436.978 269.335C436.656 270.874 435.615 270.849 434.97 271.271C434.697 271.444 434.152 270.948 434.301 270.576C434.623 269.732 435.441 269.36 436.185 269.038C436.433 268.938 436.879 269.286 436.978 269.335V269.335Z" fill="#E02525"/>
<path d="M425.003 258.444C424.631 259.808 425.177 261.347 424.061 262.934C423.665 260.85 423.541 259.213 424.978 257.848C425.152 257.972 425.226 258.097 425.152 258.245C425.102 258.369 425.053 258.444 424.978 258.444H425.003Z" fill="#E21E24"/>
<path d="M401.402 226.985H408.369C408.567 227.109 408.642 227.233 408.567 227.357C408.493 227.481 408.418 227.531 408.344 227.531C406.038 227.407 403.634 228.126 401.402 226.985Z" fill="#B45039"/>
<path d="M408.343 227.531C408.343 227.357 408.343 227.184 408.343 227.01C408.814 226.985 409.26 226.861 409.533 226.414C410.153 226.414 410.748 226.464 411.368 226.489C411.07 228.871 409.31 227.084 408.318 227.556L408.343 227.531Z" fill="#BD3E32"/>
<path d="M429.764 250.133C430.557 250.232 430.954 250.629 430.904 251.448C430.854 252.142 430.408 252.415 429.788 252.49C429.788 251.869 429.863 251.224 429.317 250.753C429.243 250.381 429.441 250.207 429.788 250.133H429.764Z" fill="#F1BB28"/>
<path d="M388.064 216.863L388.163 219.22C386.477 218.5 386.477 217.731 388.064 216.863Z" fill="#D4251D"/>
<path d="M447.589 263.083C447.44 263.604 447.415 264.15 446.895 263.952C446.672 263.877 446.498 263.381 446.473 263.059C446.448 262.711 446.548 262.19 447.068 262.364C447.316 262.438 447.465 262.91 447.564 263.083H447.589Z" fill="#E21C2A"/>
<path d="M424.979 257.253C423.318 256.459 423.318 255.665 424.979 254.871C425.277 255.293 424.781 255.888 425.301 256.285C425.326 256.658 425.301 257.005 424.954 257.253H424.979Z" fill="#E21E24"/>
<path d="M424.979 257.253V256.062C425.351 255.715 425.698 255.715 426.045 256.062C425.574 256.856 425.673 257.65 426.045 258.419C425.673 258.419 425.326 258.419 424.954 258.419C424.954 258.221 424.954 258.022 424.954 257.824V257.228L424.979 257.253Z" fill="#D5391A"/>
<path d="M429.243 267.946L429.665 269.137C428.103 268.79 428.673 267.574 428.623 266.606C429.144 266.904 429.119 267.475 429.243 267.971V267.946Z" fill="#D03717"/>
<path d="M231.232 258.32C231.703 256.608 232.62 255.119 233.587 253.656C235.074 252.564 236.19 253.308 237.256 254.35C237.454 254.574 237.603 254.822 237.727 255.07C237.876 255.442 237.975 255.814 238 256.211C238.074 258.295 237.653 260.726 241.248 259.337C242.512 258.866 244.074 260.404 245.462 259.163C246.132 259.238 246.454 259.734 246.702 260.255C249.726 264.522 245.908 267.103 244.247 270.204C243.578 272.114 242.214 273.578 241.099 275.215C240.008 275.91 239.487 277.225 238.297 277.796C237.008 279.259 235.669 279.458 234.232 278.019C233.017 276.828 232.818 275.24 232.496 273.702C232.496 271.891 230.959 270.452 231.207 268.591C230.141 267.028 232.546 265.589 231.827 264.795C230.909 263.778 230.116 262.835 229.744 261.545C229.67 261.272 229.819 260.974 229.992 260.751C230.785 260.106 230.463 258.94 231.182 258.295L231.232 258.32Z" fill="#F5B833"/>
<path d="M237.231 254.871C236.017 254.499 235.05 253.283 233.587 253.656C233.835 251.621 235.669 250.331 236.066 248.371C236.314 247.999 236.488 247.552 236.909 247.304C237.95 246.858 239.016 246.907 240.082 247.279C240.38 247.404 240.603 247.602 240.752 247.875L244.495 256.037C245.388 257.055 246.677 257.948 245.636 259.585C243.578 259.808 244.867 261.917 243.628 263.083C243.305 261.247 242.958 259.486 240.653 260.106C240.504 260.156 240.256 259.957 240.107 260.032C238.173 260.726 237.206 259.883 237.206 257.501C237.206 256.633 237.206 255.74 237.206 254.871C237.925 254.251 238.421 254.722 238.967 255.243C238.793 254.4 238.124 253.904 237.801 253.11C237.504 253.73 237.801 254.474 237.206 254.871H237.231Z" fill="#F6B738"/>
<path d="M240.727 274.843C241.62 273.106 242.463 271.32 244.248 270.253C245.115 270.353 246.107 270.253 246.529 271.295C246.975 272.412 245.958 272.933 245.363 273.454C244.025 274.645 243.132 276.629 240.802 276.257C240.43 275.811 240.43 275.339 240.727 274.843V274.843Z" fill="#E12322"/>
<path d="M230.017 260.776C231.083 261.669 230.463 264.274 233.19 263.654C233.785 263.505 233.637 264.894 233.091 265.515C232.273 266.457 231.108 267.152 231.257 268.641C230.513 266.978 229.62 265.366 229.1 263.654C228.827 262.711 228.381 261.272 230.042 260.776H230.017Z" fill="#F7B439"/>
<path d="M206.49 241.821C207.605 241.821 208.746 241.821 209.861 241.821C208.349 243.583 206.118 243.657 204.135 244.153C202.945 244.451 201.606 244.178 200.341 244.178C200.168 244.005 200.118 243.831 200.193 243.583C200.416 243.335 200.763 243.235 201.036 243.062C202.92 242.987 204.853 243.062 206.49 241.821V241.821Z" fill="#E02328"/>
<path d="M242.562 246.758C241.867 246.486 242.462 245.295 241.372 245.369C240.281 245.419 239.76 244.848 239.958 243.682C240.082 242.963 240.578 243.037 241.049 243.037C242.165 243.037 243.008 243.384 243.132 244.625C243.206 245.295 243.28 246.014 242.562 246.758V246.758Z" fill="#E21F24"/>
<path d="M209.911 241.797C211.721 240.606 213.679 239.762 215.812 239.39C215.018 243.087 212.068 241.449 209.911 241.797Z" fill="#E02628"/>
<path d="M201.035 243.062L200.316 243.558C196.399 244.129 192.507 244.079 188.59 243.558C188.516 243.384 188.441 243.235 188.392 243.062C192.606 243.062 196.821 243.062 201.035 243.062V243.062Z" fill="#EF7C70"/>
<path d="M188.59 243.583C192.507 243.583 196.399 243.583 200.316 243.583C200.316 243.781 200.316 243.98 200.341 244.178C196.424 243.831 192.457 244.997 188.59 243.583V243.583Z" fill="#BE4A3A"/>
<path d="M245.661 259.585C245.959 258.171 244.397 257.377 244.521 256.037C248.115 255.963 246.306 258.692 246.702 260.28C246.355 260.057 246.008 259.808 245.661 259.585V259.585Z" fill="#DE3029"/>
<path d="M240.752 247.875L240.107 247.726C238.967 247.329 237.851 247.007 236.735 247.776L236.041 248.371C235.942 246.758 236.909 245.667 238.297 245.543C239.636 245.419 240.504 246.486 240.727 247.875H240.752Z" fill="#DB3218"/>
<path d="M240.727 274.843L240.801 276.257C240.975 278.366 239.959 278.589 238.322 277.845C238.595 276.406 239.537 275.513 240.727 274.843Z" fill="#DD291C"/>
<path d="M184.847 241.871C185.119 241.797 185.392 241.672 185.665 241.623C186.557 241.474 185.541 239.241 187.301 240.109C189.061 240.978 187.45 241.995 187.351 242.938C186.334 243.012 185.541 242.566 184.847 241.896V241.871Z" fill="#D3927E"/>
<path d="M217.001 238.224L216.952 234.081C216.828 233.932 216.778 233.808 216.803 233.634C216.828 233.485 216.853 233.411 216.902 233.411C217.101 233.262 217.324 233.163 217.596 233.163C217.844 233.212 218.067 233.336 218.216 233.51C217.696 235.048 219.431 237.182 217.001 238.224V238.224Z" fill="#E02628"/>
<path d="M217.621 233.51C217.448 233.51 217.274 233.51 217.101 233.535C215.985 231.178 216.233 228.796 216.927 226.39C216.977 225.993 217.026 225.596 217.076 225.174C217.249 225.571 217.448 225.968 217.621 226.365C218.068 228.747 218.092 231.103 217.621 233.485V233.51Z" fill="#E4433D"/>
<path d="M232.521 273.752L234.256 278.068C231.752 277.399 232.645 275.389 232.521 273.752Z" fill="#DC2A1A"/>
<path d="M217.621 233.51C217.621 231.128 217.621 228.771 217.621 226.39C218.836 228.672 217.919 231.153 218.192 233.51C217.993 233.51 217.795 233.51 217.597 233.51H217.621Z" fill="#D02D27"/>
<path d="M229.496 283.03C229.025 282.956 228.976 282.584 228.976 282.212C228.976 281.84 228.976 281.393 229.496 281.393C229.992 281.393 230.017 281.84 230.017 282.212C230.017 282.584 230.017 282.981 229.471 283.03H229.496Z" fill="#E31C27"/>
<path d="M231.232 258.32C230.934 259.163 231.678 260.528 230.042 260.751C230.116 259.784 229.992 258.742 231.232 258.32Z" fill="#F7B439"/>
<path d="M215.787 239.39C215.812 238.621 216.258 238.273 216.977 238.224C216.977 239.018 217.275 240.109 215.787 239.39Z" fill="#E02628"/>
<path d="M206.936 134.965C214.745 133.179 222.456 133.03 229.62 137.273C237.132 141.739 238.446 149.901 232.645 156.376C226.893 162.827 219.233 165.109 210.878 165.556C209.44 165.63 209.341 164.861 209.291 163.72C209.142 160.296 209.589 156.823 208.845 153.424C208.399 153.151 208.101 152.754 208.027 152.258C207.234 146.949 206.639 141.614 206.391 136.256C206.391 135.759 206.639 135.313 206.961 134.941L206.936 134.965Z" fill="#010102"/>
<path d="M206.936 134.965C207.556 141.118 208.2 147.271 208.82 153.449C208.82 156.798 208.721 160.147 208.82 163.497C208.87 165.035 208.448 165.531 206.812 165.382C202.424 164.985 198.309 164.018 194.689 161.264C188.739 156.724 187.747 149.305 192.607 143.649C193.945 142.086 195.234 140.424 197.243 139.63C197.788 139.431 198.333 139.009 198.879 139.059C201.358 139.282 202.647 137.819 203.639 135.859C204.432 135.114 205.548 135.462 206.44 134.99C206.614 135.089 206.787 135.089 206.961 134.99L206.936 134.965Z" fill="#F8F2F0"/>
<path d="M178.946 194.286C175.55 194.435 172.327 193.938 169.451 192.003C169.03 191.309 168.286 191.16 167.641 190.812C160.204 185.007 160.501 174.016 163.947 167.045C164.294 166.35 164.914 165.779 165.807 165.754C167.74 164.936 169.451 165.159 170.765 166.945C172.302 168.955 170.963 170.964 170.715 172.999C171.013 176.175 169.575 179.549 171.831 182.476C172.129 182.7 172.377 182.972 172.575 183.295C172.848 183.94 173.467 184.014 174.062 184.138C174.583 184.263 175.079 184.411 175.352 184.932C176.591 185.702 177.831 185.677 179.07 184.883C180.806 183.965 182.814 183.692 184.4 182.476C186.904 181.707 187.747 179.077 189.706 177.688C190.524 178.804 191.987 179.375 192.458 180.814C192.458 181.087 192.383 181.36 192.284 181.608C190.103 183.717 192.309 184.759 193.375 186.074C191.466 188.952 188.491 190.465 185.615 192.078C184.921 193.566 183.558 193.616 182.144 193.839C181.103 193.988 179.988 193.814 178.996 194.335L178.946 194.286Z" fill="#F3BDD3"/>
<path d="M205.176 124.272C207.631 124.372 209.763 122.709 212.267 122.982C213.035 122.387 213.977 122.486 214.87 122.461C217.225 122.238 219.58 121.99 221.836 122.982C224.935 122.585 227.662 124.446 230.687 124.496C230.91 124.496 231.108 125.091 231.307 125.389C231.926 126.158 232.571 126.877 233.711 126.505L234.852 126.629C235.323 127.82 236.86 128.639 236.091 130.252C235.273 131.864 234.058 132.236 232.447 131.418C231.902 130.549 230.662 130.996 230.067 130.202L221.787 128.391H221.316C218.861 128.391 216.382 128.391 213.928 128.391C212.812 128.44 211.672 128.292 210.556 128.49C210.308 128.614 210.085 128.763 209.862 128.937L208.721 129.036C208.077 129.731 206.912 129.358 206.317 130.152C205.399 130.276 204.209 129.879 203.937 131.343C203.639 131.765 203.193 131.963 202.697 132.063C201.879 132.187 201.036 132.187 200.218 132.038C199.325 131.815 198.755 131.244 198.532 130.351C198.408 129.532 198.656 128.713 198.631 127.87C198.681 127.349 198.904 126.952 199.35 126.654C200.788 127.001 201.581 125.662 202.771 125.389C203.391 124.62 204.581 125.017 205.201 124.248L205.176 124.272Z" fill="#F5B835"/>
<path d="M131.47 157.766C131.321 155.806 131.693 154.094 132.61 152.531C133.255 151.414 134.123 150.819 135.486 150.968C136.85 151.117 137.693 151.811 137.99 153.101C138.635 156.054 139.304 159.031 139.75 162.008C139.974 163.397 140.222 165.184 138.213 165.655C136.18 166.127 134.272 165.705 133.106 163.77C131.966 161.909 131.098 159.924 131.47 157.79V157.766Z" fill="#B77258"/>
<path d="M193.325 186.024C192.978 185.875 192.606 185.751 192.259 185.602C189.507 184.535 189.458 183.617 192.061 181.236C192.854 182.079 193.672 181.98 194.466 181.236C194.59 181.062 194.837 180.938 194.788 180.665C194.689 181.087 194.391 181.335 194.069 181.558C193.325 181.93 192.656 181.806 192.086 181.261C191.763 179.747 188.912 179.921 189.681 177.663H189.656C190.325 177.217 190.499 176.472 190.821 175.802C192.482 172.949 194.912 172.056 197.044 173.495C199.35 175.058 199.845 177.738 198.036 180.169C196.548 182.179 195.68 184.709 193.325 186.024V186.024Z" fill="#F3BCD3"/>
<path d="M169.5 136.131C173.442 134.544 177.409 132.956 181.351 131.368C181.971 130.599 183.161 131.021 183.756 130.202C185.045 130.078 185.863 128.639 187.276 128.961C188.169 130.425 188.466 131.12 186.086 131.591C183.979 132.038 181.4 132.832 181.177 136.181C181.078 137.719 178.896 138.141 177.037 138.439C177.111 137.124 177.806 136.504 178.723 136.206C179.715 135.908 180.557 135.412 179.913 134.395C179.144 133.204 178.153 133.874 177.508 134.693C176.541 135.958 175.054 136.38 173.765 136.925C172.401 137.521 170.542 138.191 169.476 136.107L169.5 136.131Z" fill="#D09681"/>
<path d="M199.176 130.202C199.275 130.897 199.696 131.318 200.391 131.393C201.184 132.137 201.977 132.112 202.795 131.418L203.961 131.368C205.002 131.492 206.117 131.095 207.307 131.864C206.117 133.105 203.564 132.112 203.192 134.593C204.159 135.263 205.374 134.792 206.44 134.99C205.622 135.387 204.803 135.759 203.961 136.156C203.415 136.504 202.944 137.248 202.176 136.528C201.68 136.206 201.779 134.965 200.787 135.536C198.581 136.801 197.763 134.841 196.895 133.7C195.507 131.889 196.275 130.252 198.035 129.036C198.63 129.234 198.754 129.879 199.176 130.227V130.202Z" fill="#D09681"/>
<path d="M153.337 212.967C155.667 211.901 169.055 211.901 171.435 212.967H153.337V212.967Z" fill="#D19582"/>
<path d="M178.946 194.286C181.153 193.541 183.359 192.772 185.566 192.028C186.086 194.732 188.863 194.658 191.119 196.519C186.409 196.742 182.987 193.541 178.946 194.286Z" fill="#D09784"/>
<path d="M202.176 136.504L203.961 136.131C204.11 136.975 202.746 137.372 203.193 138.191C204.259 140.076 202.722 139.605 201.903 139.63C200.342 139.679 198.78 139.605 197.218 139.58C198.532 138.017 200.589 137.645 202.151 136.479L202.176 136.504Z" fill="#FAEEEB"/>
<path d="M220.076 101.621L221.216 101.695C221.539 102.068 221.811 102.489 222.183 102.762C222.952 103.308 223.2 104.028 222.704 104.772C222.258 105.442 221.489 105.243 220.82 105.02C220.001 104.722 219.183 104.4 218.365 104.077C218.415 102.911 219.431 102.39 220.076 101.621V101.621Z" fill="#D29977"/>
<path d="M250.247 114.77L250.297 124.248C250.123 124.198 249.851 124.198 249.751 124.074C248.561 122.337 248.884 116.16 250.223 114.77H250.247Z" fill="#CF9683"/>
<path d="M171.955 183.518C171.905 183.171 171.856 182.799 171.831 182.451C173.517 182.451 175.203 182.451 176.864 182.427C177.781 182.427 178.203 182.675 177.806 183.617C177.236 184.411 176.07 183.99 175.475 184.784L175.327 184.883C174.781 184.833 174.236 184.808 173.69 184.759C173.12 184.337 172.302 184.263 171.955 183.518Z" fill="#D09786"/>
<path d="M205.002 118.244C205.87 116.705 207.01 115.44 208.721 114.795C208.745 117.301 207.555 118.517 205.002 118.244Z" fill="#D69877"/>
<path d="M184.376 182.451C182.962 184.064 181.202 184.858 179.045 184.858C178.376 184.138 179.244 183.543 179.492 183.593C181.326 183.99 182.64 182.327 184.376 182.451Z" fill="#D09786"/>
<path d="M199.349 126.679L199.176 127.795C198.804 128.143 198.407 128.168 198.011 127.795C197.589 127.572 197.093 127.423 196.771 127.101C196.424 126.753 195.581 126.381 196.201 125.711C196.647 125.24 197.292 125.488 197.812 125.835C198.308 126.133 198.829 126.381 199.325 126.679H199.349Z" fill="#D09681"/>
<path d="M233.711 126.505C233.563 127.448 233.042 127.969 232.1 127.647C230.935 127.274 231.406 126.208 231.306 125.389C232.224 125.538 233.439 125.017 233.711 126.505V126.505Z" fill="#F3B642"/>
<path d="M236.091 130.252C235.769 129.011 234.43 128.118 234.852 126.629C237.505 128.168 237.678 128.639 236.091 130.252Z" fill="#EAB051"/>
<path d="M192.755 132.212C192.012 131.145 191.689 130.103 192.755 129.234C192.978 129.061 193.722 129.11 193.797 129.234C194.342 130.45 192.83 131.07 192.755 132.212Z" fill="#D09681"/>
<path d="M170.691 172.974C170.369 170.964 171.385 168.955 170.74 166.92C173.17 168.955 171.534 170.964 170.691 172.974Z" fill="#F2BCCE"/>
<path d="M221.787 128.416C219.084 129.656 216.208 128.713 213.457 128.986C213.407 128.589 213.556 128.316 213.928 128.168C216.555 128.217 219.208 127.82 221.811 128.391L221.787 128.416Z" fill="#D5976F"/>
<path d="M170.765 166.945C169.228 166.127 167.592 165.581 165.807 165.754C167.964 164.092 169.625 164.415 170.765 166.945Z" fill="#F2BCCE"/>
<path d="M215.836 121.866C217.026 120.08 218.191 120.08 219.381 121.866C218.191 122.734 217.026 122.734 215.836 121.866Z" fill="#D09685"/>
<path d="M192.012 126.505C192.26 125.041 193.499 125.513 194.392 125.29C194.441 126.431 193.623 127.051 192.78 127.423C192.185 127.696 192.136 126.927 192.012 126.505V126.505Z" fill="#D09681"/>
<path d="M215.861 107.625C216.159 106.36 216.952 105.566 218.167 105.144C218.489 106.98 217.77 107.848 215.861 107.625Z" fill="#D89B75"/>
<path d="M221.835 122.982H214.646C214.472 122.61 214.596 122.337 214.993 122.213C217.249 122.288 219.53 121.841 221.786 122.461C221.786 122.635 221.811 122.809 221.835 122.982V122.982Z" fill="#E5AA70"/>
<path d="M221.786 122.461H214.671C214.522 122.337 214.473 122.213 214.523 122.089C214.572 121.965 214.622 121.891 214.671 121.891C215.068 121.891 215.465 121.891 215.861 121.841C217.051 121.841 218.216 121.841 219.406 121.841C220.225 121.965 221.167 121.618 221.786 122.461Z" fill="#D59A5F"/>
<path d="M146.915 214.506C145.899 214.382 145.577 213.786 145.973 212.868C146.42 211.851 146.296 210.784 146.32 209.742C147.461 211.206 146.692 212.918 146.915 214.506Z" fill="#F49E8F"/>
<path d="M147.511 141.49C148.354 140.523 149.469 140.969 150.486 140.92C149.792 142.656 148.701 142.309 147.511 141.49Z" fill="#DBA06D"/>
<path d="M156.436 139.779C157.229 139.58 157.997 139.382 158.791 139.183C158.791 139.878 158.84 140.647 157.898 140.821C157.105 140.969 156.56 140.672 156.436 139.803V139.779Z" fill="#D39484"/>
<path d="M162.286 138.439C162.608 136.95 163.774 137.372 164.741 137.322C164.443 138.861 163.253 138.414 162.286 138.439Z" fill="#DAA06E"/>
<path d="M175.5 184.784C175.674 183.196 176.913 183.766 177.83 183.617C177.632 185.131 176.442 184.734 175.5 184.784Z" fill="#CF987C"/>
<path d="M214.671 121.891C214.671 122.089 214.671 122.263 214.671 122.461C214.671 122.635 214.671 122.833 214.647 123.007C213.853 123.007 213.06 123.007 212.267 123.007C212.564 121.519 213.729 121.99 214.671 121.915V121.891Z" fill="#D99C75"/>
<path d="M205.176 124.272C204.853 125.711 203.713 125.364 202.746 125.414C203.019 123.875 204.209 124.297 205.176 124.272Z" fill="#DA9E6D"/>
<path d="M198.011 127.82H199.176C199.176 128.614 199.176 129.408 199.176 130.202C198.432 130.152 198.06 129.731 198.036 129.011V127.82H198.011Z" fill="#D79976"/>
<path d="M206.316 130.177C206.614 128.689 207.754 129.036 208.721 129.061C208.424 130.524 207.258 130.103 206.316 130.177Z" fill="#DCA06D"/>
<path d="M138.561 143.202C138.585 143.029 138.61 142.855 138.635 142.681C140.197 142.21 141.759 142.21 143.321 142.681C141.858 143.823 140.172 143.103 138.561 143.227V143.202Z" fill="#DB9D56"/>
<path d="M230.066 130.202C231.033 130.276 232.273 129.78 232.446 131.418C231.529 131.294 230.339 131.666 230.066 130.202Z" fill="#ECAF54"/>
<path d="M143.296 142.656H138.61C140.098 141.515 141.784 142.26 143.37 142.111C143.346 142.284 143.321 142.483 143.296 142.656Z" fill="#EDAF69"/>
<path d="M213.482 128.416C213.482 128.614 213.481 128.788 213.457 128.986C212.267 128.986 211.077 128.986 209.887 128.986C209.912 128.788 209.936 128.614 209.961 128.416C210.978 127.845 212.068 128.217 213.11 128.168L213.482 128.416Z" fill="#DCA350"/>
<path d="M190.821 175.802C190.921 176.72 190.921 177.589 189.656 177.638C189.656 176.77 190.177 176.249 190.821 175.802Z" fill="#F1B7C1"/>
<path d="M167.642 190.812C168.559 190.738 169.451 190.713 169.451 192.003C168.633 191.954 168.063 191.457 167.642 190.812Z" fill="#F1BABB"/>
<path d="M146.321 209.742C145.354 208.899 145.85 207.757 145.726 206.74C146.643 207.609 146.197 208.725 146.321 209.742Z" fill="#F49E8F"/>
<path d="M423.789 182.377C425.252 181.509 426.838 181.161 428.499 181.186C429.59 182.7 427.731 182.749 427.136 183.493C428.251 183.89 429.193 184.089 430.433 183.642C429.788 182.749 429.119 181.98 428.475 181.186C430.16 178.904 432.987 177.787 434.499 175.331C434.846 174.984 435.243 174.959 435.664 175.157C436.581 176.745 435.02 177.341 434.375 178.383C435.986 177.291 436.581 175.331 438.664 174.587C439.928 174.115 440.573 173.768 441.118 174.959C441.763 176.299 443.201 175.852 444.068 176.547C443.895 178.482 442.531 179.822 441.639 181.385C441.044 182.898 440.077 184.064 438.639 184.833C437.127 186.421 435.193 187.364 433.334 188.431C432.937 188.753 432.516 188.728 432.069 188.555C431.797 188.182 431.747 187.761 431.995 187.364C432.367 186.868 432.962 186.669 432.863 186.719C432.887 186.719 432.268 186.967 431.821 187.513C430.383 188.356 429.193 187.016 427.855 187.016C426.789 187.016 425.723 186.694 424.433 187.265C426.739 188.009 429.144 186.967 431.102 188.381C431.301 188.828 431.276 189.224 430.929 189.597C430.185 190.068 429.144 189.919 428.549 190.688C425.45 191.631 422.301 192.152 419.078 191.879C417.492 192.326 416.277 191.284 414.913 190.862C408.74 188.753 404.154 184.858 401.08 179.077C400.262 177.539 399.84 175.902 399.716 174.289C399.543 172.031 400.138 169.972 402.84 169.302C405.493 168.657 407.228 169.699 408.368 172.006C409.187 173.694 410.005 175.381 410.823 177.068C411.418 178.333 412.608 179.077 413.426 180.169C413.897 180.938 415.211 181.385 414.418 182.65C412.385 183.717 410.253 184.263 407.798 183.568C408.22 184.337 408.74 184.436 409.236 184.362C413.277 183.742 417.343 184.114 421.384 184.039C422.053 184.039 422.797 184.138 423.194 183.345C423.367 182.997 423.64 182.724 423.863 182.427L423.789 182.377Z" fill="#EE7D95"/>
<path d="M362.107 126.679L368.578 123.131C371.677 121.469 375.023 120.898 378.494 120.997C381.519 121.097 384.543 120.625 387.568 121.27C387.717 121.345 387.89 121.37 388.064 121.32C389.006 121.915 390.171 121.246 391.113 121.816C391.287 121.915 391.46 121.94 391.634 121.891C393.022 122.362 394.609 122.064 395.848 122.982C396.741 123.33 397.633 123.702 398.551 124.024C402.393 125.414 402.716 125.91 402.294 129.979C402.121 130.946 401.451 131.145 400.608 131.045C399.815 131.12 399.022 131.194 398.253 131.294C390.221 128.043 381.99 126.778 373.437 128.961C371.131 129.557 368.925 130.276 367.065 131.864C365.826 132.906 364.264 133.229 362.628 133.08C360.57 132.906 360.223 131.269 359.975 129.755C359.727 128.217 360.644 127.2 362.082 126.629L362.107 126.679Z" fill="#060607"/>
<path d="M444.093 176.522C441.762 177.862 440.523 176.894 440.2 174.413C438.614 175.033 439.779 176.571 438.812 177.266C437.696 177.39 438.415 175.827 437.399 175.753C436.209 177.489 435.44 179.896 432.49 179.921C432.936 177.738 435.341 177.241 435.688 175.306C435.193 174.711 435.292 174.115 435.688 173.52C436.333 172.825 436.383 171.858 436.829 171.064C436.928 168.161 437.002 165.258 437.101 162.331C438.068 159.403 439.804 158.163 442.531 158.361C442.63 158.46 442.729 158.584 442.853 158.684C448.407 161.884 446.423 167.045 446.076 171.659C445.952 173.321 445.407 175.157 444.118 176.522H444.093Z" fill="#EE7C96"/>
<path d="M396.89 148.04C397.361 150.67 396.965 153.126 395.403 155.334C394.758 155.185 394.362 154.64 393.841 154.292C393.618 154.143 393.419 153.97 393.221 153.796C389.825 152.01 389.75 151.861 389.701 145.782C388.436 146.279 387.172 146.651 385.908 145.956C385.065 145.386 385.04 144.244 384.296 143.574C383.304 141.788 383.354 139.803 383.131 137.868C383.205 137.57 383.329 137.322 383.528 137.099C384.048 136.727 384.618 136.702 385.213 136.777C386.627 137.124 388.04 137.397 389.378 137.943C390.345 138.34 391.213 138.861 391.659 139.853L392.973 141.342C393.742 143.872 395.601 145.783 396.89 147.991V148.04Z" fill="#F1EDED"/>
<path d="M383.428 137.893C384.742 139.481 383.874 141.59 384.816 143.277C384.965 143.525 385.064 143.823 385.138 144.095C385.362 146.006 385.337 147.916 385.634 149.827C385.733 150.099 385.808 150.397 385.857 150.695C386.006 151.861 386.056 153.052 385.857 154.218C385.783 154.491 385.659 154.764 385.51 155.012C385.312 155.235 385.064 155.334 384.767 155.359C384.048 155.161 383.601 154.64 383.13 154.143C382.783 153.722 382.535 153.25 382.337 152.729C382.114 151.166 380.626 150.943 379.635 150.199C379.337 149.678 379.312 149.157 379.635 148.636C381.668 147.858 382.312 146.254 381.568 143.823C381.172 143.128 380.825 143.252 380.502 143.897C379.808 145.237 380.453 146.75 380.007 148.115C379.337 148.487 379.188 149.355 378.445 149.653C377.651 149.951 376.908 149.901 376.213 149.43C375.643 148.809 375.594 148.065 375.767 147.296C376.66 145.807 376.61 144.244 376.065 142.656C376.288 141.59 376.511 140.548 374.924 140.374C374.528 140.25 374.156 140.051 373.933 139.679C374.205 137.819 376.288 139.133 376.957 137.943C377.379 137.422 377.924 137.397 378.519 137.57C379.883 137.992 379.932 141.069 382.287 139.382C382.734 138.935 382.287 137.769 383.453 137.893H383.428Z" fill="#3A4D89"/>
<path d="M385.188 155.21C385.337 155.061 385.361 154.913 385.262 154.714C385.684 153.746 385.361 152.68 385.535 151.687C385.981 151.067 386.527 151.29 387.097 151.489C387.989 151.811 388.039 150.993 388.188 150.496C388.436 149.702 388.386 148.909 387.494 148.487C386.824 148.164 385.857 148.586 385.386 147.718C385.138 146.949 385.114 146.204 385.783 145.609C387.75 145.592 389.262 144.757 390.32 143.103C390.667 147.346 389.502 151.786 394.088 153.92C392.576 155.111 390.89 156.029 389.229 156.997C387.419 158.039 389.849 160.594 388.163 162.058C386.948 162.504 385.857 163.273 384.519 163.298C383.725 162.455 383.8 161.437 383.948 160.395C384.717 158.733 383.775 156.674 385.188 155.185V155.21Z" fill="#EFEEEB"/>
<path d="M374.453 162.876C373.734 163.001 373.238 162.579 372.718 162.182C372.048 161.016 370.809 160.544 369.743 159.874C369.396 159.056 369.916 158.535 370.387 158.113C372.247 156.451 371.85 155.037 370.016 153.722C369.47 151.935 370.065 150.968 371.999 150.993C372.296 151.042 372.594 151.141 372.867 151.29C374.057 152.804 376.337 153.077 377.131 155.061C377.949 156.327 378.346 157.691 378.296 159.229C378.172 162.306 377.726 162.752 374.453 162.876V162.876Z" fill="#3A4C8C"/>
<path d="M388.163 162.083C388.758 160.445 386.973 158.932 387.717 157.468C388.981 154.937 391.708 154.664 394.113 153.945C394.857 154.615 394.634 155.533 394.782 156.352C393.518 159.353 390.766 160.644 388.163 162.083V162.083Z" fill="#F2ECEB"/>
<path d="M472.529 166.821C472.331 165.382 472.852 163.77 473.05 162.132C473.273 160.346 473.819 160.346 474.984 161.413C477.24 163.472 477.364 167.094 475.207 169.352C474.587 169.997 473.918 170.766 472.951 170.493C471.563 170.096 472.802 169.004 472.529 168.26C472.405 167.913 472.529 167.491 472.529 166.821V166.821Z" fill="#77422C"/>
<path d="M366.272 147.42C366.967 145.113 367.884 143.004 370.313 142.011C371.355 142.185 372.446 142.284 372.991 143.426C373.09 143.823 372.991 144.219 372.768 144.542C372.545 144.989 371.603 145.013 371.925 145.733C372.049 146.031 372.594 145.956 372.966 145.981C373.388 145.981 373.809 146.031 374.231 146.13C374.677 146.254 375.073 146.477 375.321 146.899C375.594 148.437 374.379 148.561 373.388 148.909C371.826 150.348 370.264 151.265 368.603 148.983C368.33 148.611 367.512 148.71 366.991 148.437C366.595 148.214 366.396 147.842 366.272 147.42V147.42Z" fill="#3C4C8C"/>
<path d="M374.453 162.876C377.949 161.586 378.494 159.279 376.288 155.136C376.56 154.863 376.833 154.615 377.155 154.392C378.048 154.019 377.974 152.754 378.965 152.456C379.411 152.382 379.808 152.481 380.155 152.828C381.345 155.409 380.13 158.187 380.825 160.792C380.279 161.81 379.461 162.653 378.841 163.621C378.593 163.819 378.321 163.943 378.023 163.993C377.379 164.067 376.808 163.943 376.288 163.546C375.693 163.348 374.899 163.621 374.478 162.901L374.453 162.876Z" fill="#3B4D8C"/>
<path d="M370.338 153.945C372.892 154.317 373.536 155.657 372.024 157.542C371.355 158.386 370.537 159.081 369.768 159.85C367.463 159.453 367.363 157.071 366.074 155.756C366.173 155.309 366.421 154.987 366.793 154.764C367.76 153.97 369.148 155.483 370.016 154.168C370.115 154.094 370.214 154.019 370.338 153.945V153.945Z" fill="#3A4C8A"/>
<path d="M385.138 137.347L383.452 137.397C383.452 137.397 383.229 137.198 383.105 137.099C382.709 136.33 382.808 135.61 383.403 134.965C384.816 132.956 386.65 132.311 389.154 132.509C391.237 132.683 391.757 133.08 390.567 134.891C390.32 135.288 390.146 135.735 389.948 136.156C389.824 136.156 389.675 136.156 389.551 136.156C388.683 135.983 388.138 135.114 387.196 135.139C386.328 135.735 386.923 137.645 385.138 137.397V137.347Z" fill="#A66B4E"/>
<path d="M384.692 160.544C384.642 161.462 384.593 162.405 384.518 163.323C383.75 163.397 382.981 163.497 382.213 163.571C382.114 163.497 382.014 163.397 381.915 163.323C381.37 162.628 380.378 162.157 380.725 160.991C380.899 159.899 381.519 159.006 382.114 158.113C382.709 157.294 382.535 156.302 382.634 155.384C382.733 154.788 382.907 154.243 383.477 153.92C384.221 153.97 384.543 154.391 384.568 155.111C385.089 156.897 384.915 158.708 384.642 160.52L384.692 160.544Z" fill="#3B4D8C"/>
<path d="M414.318 182.427L413.128 180.094C413.326 179.772 413.549 179.747 413.822 179.995C416.921 181.732 420.218 182.65 423.788 182.377V183.642C420.491 184.535 417.219 185.007 414.318 182.451V182.427Z" fill="#EE7D93"/>
<path d="M362.107 126.679C359.925 129.805 360.024 130.872 362.677 133.13C360.793 133.402 358.14 130.003 359.057 128.242C359.752 126.902 359.553 125.587 359.652 124.272C360.446 124.347 360.917 124.744 360.718 125.563C360.421 126.927 361.462 126.53 362.107 126.679V126.679Z" fill="#A1694D"/>
<path d="M396.89 148.04C396.394 148.388 395.526 149.777 395.452 148.139C395.352 146.006 394.088 144.914 392.799 143.748C391.683 142.731 392.254 142.111 392.972 141.391C395.352 142.979 396.319 145.41 396.89 148.04V148.04Z" fill="#F0EEE9"/>
<path d="M372.718 143.252C372.074 142.532 370.388 143.823 370.313 142.011C370.933 140.349 372.173 139.63 373.908 139.679C374.305 139.679 374.726 139.729 375.123 139.729C376.487 142.036 374.751 142.557 373.165 143.177C373.016 143.202 372.867 143.227 372.718 143.252V143.252Z" fill="#3A4C8A"/>
<path d="M445.209 156.302C445.457 158.138 444.664 158.907 442.829 158.684C442.284 157.815 440.995 158.386 440.474 157.493C439.656 156.103 439.036 154.788 441.664 155.111C442.978 155.161 444.217 155.384 445.234 156.302H445.209Z" fill="#A46C4F"/>
<path d="M440.449 157.493C441.391 157.592 442.63 157.121 442.804 158.708C439.928 158.411 438.589 160.495 437.077 162.331C435.416 162.083 435.639 160.743 436.531 160.395C438.143 159.726 438.837 158.014 440.449 157.518V157.493Z" fill="#AC6957"/>
<path d="M411.939 177.688C412.013 177.514 412.137 177.316 412.137 177.142C412.087 176.026 412.36 174.612 413.476 174.81C414.269 174.959 415.137 176.472 415.335 177.489C415.657 179.177 414.12 178.755 413.153 178.854C412.186 179.028 411.79 178.631 411.939 177.663V177.688Z" fill="#A66B4E"/>
<path d="M410.748 126.629C411.145 125.885 411.517 125.141 411.913 124.396C413.351 125.29 414.541 126.48 415.607 127.771C413.401 129.929 412.36 127.026 410.748 126.629Z" fill="#9E6952"/>
<path d="M378.643 137.893H376.908L374.23 136.925C376.536 136.454 378.891 135.04 380.999 137.223C380.924 137.322 380.875 137.446 380.8 137.546C380.131 138.017 379.412 138.042 378.643 137.893V137.893Z" fill="#A46C4B"/>
<path d="M445.209 156.302C443.92 156.203 442.432 156.724 441.639 155.111C441.936 153.548 443.176 153.87 444.143 153.995C445.531 154.193 445.11 155.384 445.209 156.277V156.302Z" fill="#AC6755"/>
<path d="M414.913 190.812C416.401 190.713 417.814 190.986 419.078 191.83C416.822 195.005 416.277 191.234 414.913 190.812Z" fill="#B4675D"/>
<path d="M391.659 139.903L389.329 138.588C388.833 137.595 388.337 136.578 389.948 136.131C390.767 137.273 392.279 138.091 391.659 139.903Z" fill="#A66B4E"/>
<path d="M369.743 159.874C371.379 159.8 373.04 159.701 372.718 162.182C371.305 161.959 370.041 161.537 369.743 159.874Z" fill="#414B84"/>
<path d="M366.767 155.136L366.073 155.756C365.23 155.111 365.751 154.143 365.503 153.349C365.354 153.027 365.404 152.729 365.701 152.506C366.891 152.01 367.908 151.985 368.28 153.523C368.205 154.466 367.239 154.565 366.767 155.136V155.136Z" fill="#384E86"/>
<path d="M383.428 137.893L382.808 139.679C380.602 140.051 380.329 139.679 381.048 137.422L380.999 137.223H382.213C382.61 136.95 383.007 136.95 383.379 137.273L383.453 137.372C383.453 137.546 383.453 137.719 383.428 137.893V137.893Z" fill="#384C89"/>
<path d="M366.272 147.42L366.768 147.991C367.09 148.388 367.387 148.784 367.462 149.306C367.561 150.174 367.487 151.017 366.842 151.687C366.346 151.935 365.85 151.935 365.379 151.588C364.834 150.769 364.958 149.951 365.454 149.181L366.222 147.42H366.272Z" fill="#384E86"/>
<path d="M438.664 184.808C439.656 183.667 440.672 182.526 441.664 181.36C441.664 183.394 440.846 184.709 438.664 184.808Z" fill="#B5675F"/>
<path d="M411.938 177.688C412.112 178.308 412.533 178.68 413.153 178.879C413.376 179.251 413.599 179.623 413.822 179.995C413.599 180.02 413.351 180.07 413.128 180.094C411.765 179.499 410.624 178.78 410.798 177.018C411.17 177.241 411.566 177.465 411.938 177.663V177.688Z" fill="#E17F88"/>
<path d="M394.782 156.352C393.865 155.756 394.163 154.788 394.113 153.945C394.981 153.995 395.303 154.565 395.402 155.334C395.353 155.756 395.303 156.178 394.782 156.352Z" fill="#F0EFE7"/>
<path d="M383.378 137.273L382.213 137.198C382.312 136.28 381.915 135.114 383.403 134.941V137.273H383.378Z" fill="#A8685B"/>
<path d="M376.263 163.522H378.048C378.32 163.695 378.667 163.745 378.866 164.043C378.94 164.266 378.866 164.464 378.692 164.613C377.75 164.539 376.56 165.01 376.263 163.522V163.522Z" fill="#97665F"/>
<path d="M365.479 149.181L365.678 151.588C365.95 151.985 365.95 152.357 365.678 152.754L365.479 153.374L364.959 152.779C364.537 151.588 364.488 150.397 364.983 149.231C365.157 149.231 365.306 149.231 365.479 149.206V149.181Z" fill="#8B5C56"/>
<path d="M428.549 190.663C428.45 188.381 430.136 189.894 430.929 189.572C430.285 190.291 429.516 190.713 428.549 190.663Z" fill="#E67D8E"/>
<path d="M378.692 164.043C378.469 163.869 378.246 163.67 378.048 163.497L378.668 163.323C379.882 162.38 381.072 162.604 382.287 163.323L382.238 163.571C382.238 163.72 382.238 163.869 382.238 164.018C381.072 164.464 379.882 164.439 378.717 164.018L378.692 164.043Z" fill="#684858"/>
<path d="M365.007 149.206C365.007 150.397 365.008 151.588 364.983 152.754C364.09 151.563 364.09 150.372 365.007 149.206Z" fill="#9C6D67"/>
<path d="M432.119 188.356H433.333C432.738 189.175 431.92 189.547 430.929 189.547V188.356C431.325 188.034 431.722 187.984 432.119 188.356Z" fill="#E67D8E"/>
<path d="M436.804 171.064C436.978 172.131 436.804 173.073 435.664 173.545C435.565 172.503 436.011 171.709 436.804 171.064Z" fill="#E17E89"/>
<path d="M378.693 164.043C379.858 164.043 381.048 164.043 382.213 164.043C381.172 165.109 379.858 164.464 378.668 164.613C378.668 164.439 378.668 164.241 378.668 164.067L378.693 164.043Z" fill="#8F6F7F"/>
<path d="M435.689 173.52V175.306C435.317 175.306 434.92 175.306 434.523 175.331C434.523 174.487 434.945 173.917 435.689 173.52Z" fill="#E17E89"/>
<path d="M183.755 130.202C183.507 131.74 182.317 131.318 181.351 131.368C181.623 129.879 182.789 130.252 183.755 130.202Z" fill="#DEA362"/>
<path d="M438.044 113.579C438.317 110.925 439.531 109.56 442.432 110.205C442.308 111.619 440.25 110.925 440.424 112.388C440.25 113.009 439.531 113.108 439.284 113.654L438.044 113.579Z" fill="#DF1F25"/>
<path d="M411.517 124.148C408.74 124.248 407.996 122.362 407.649 120.129C408.939 121.469 410.228 122.809 411.517 124.148Z" fill="#A86B52"/>
<path d="M439.309 113.629C439.284 112.835 439.681 112.413 440.449 112.364H441.639C441.986 112.761 442.011 113.133 441.639 113.505C440.871 113.778 440.102 113.877 439.334 113.604L439.309 113.629Z" fill="#DE261A"/>
<path d="M441.614 113.53V112.388H443.969C443.498 113.381 442.656 113.703 441.614 113.53Z" fill="#DF1F25"/>
<path d="M390.568 95.8155C390.097 96.5598 389.527 97.2545 389.155 98.0236C388.535 99.3385 387.147 100.232 386.13 100.083C384.915 99.9092 384.568 98.2965 384.593 96.9568C383.75 95.5178 384.246 93.9548 384.147 92.4414C384.073 92.0444 384.097 91.6723 384.196 91.3002C384.296 91.0769 384.444 90.8784 384.668 90.7295C384.99 90.5807 385.337 90.5559 385.684 90.5062C386.18 90.3078 386.18 89.886 386.18 89.4394C386.626 87.5539 384.692 86.9832 384.122 85.6435C385.535 83.4106 386.924 81.1777 388.337 78.9449C389.155 78.275 389.948 78.5479 390.766 78.9945C392.973 82.1701 393.741 85.966 395.03 89.5139C395.576 91.0273 393.642 92.2677 392.477 93.409C391.386 93.8308 391.039 94.848 390.568 95.7659V95.8155Z" fill="#F5B735"/>
<path d="M384.122 85.6931C386.651 85.9908 387.37 87.5042 386.973 89.8115C386.527 90.1589 386.403 90.8287 385.783 91.0024H384.593C383.701 89.9604 382.684 88.968 383.378 87.3802L384.122 85.6931V85.6931Z" fill="#F3BB2D"/>
<path d="M386.626 77.6299C385.56 78.4735 384.99 80.0365 383.353 80.2101C382.659 80.2846 382.114 79.7139 382.362 79.1185C382.981 77.5307 384.618 77.3074 386.006 76.8608C386.403 76.7368 386.675 77.1089 386.651 77.6547L386.626 77.6299Z" fill="#E11E25"/>
<path d="M383.378 87.3802C383.701 88.6207 385.039 89.5138 384.593 91.0024C383.775 91.5234 382.957 91.6475 382.089 91.1017C380.527 89.4394 380.577 89.2905 383.354 87.3802H383.378Z" fill="#F7B33C"/>
<path d="M384.593 92.1933C385.808 93.8059 383.924 95.3938 384.593 96.9816C383.453 95.5674 382.833 93.9052 382.337 92.1685C383.105 91.4986 383.849 91.5731 384.593 92.1685V92.1933Z" fill="#F7B43B"/>
<path d="M396.469 93.7811C396.419 94.6743 396.543 95.6667 395.229 95.6667C394.535 95.6667 394.163 95.2697 394.163 94.5998C394.163 93.5082 394.709 92.6647 395.75 92.5158C396.494 92.4166 396.419 93.2849 396.469 93.7811V93.7811Z" fill="#E21E24"/>
<path d="M437.97 108.344C439.383 107.352 440.3 107.675 441.565 107.898C440.449 109.262 439.482 108.816 437.97 108.344Z" fill="#E41A27"/>
<path d="M390.742 79.0441C389.924 79.0441 389.13 79.0193 388.312 78.9945C388.263 78.0765 388.709 77.5059 389.577 77.4314C390.742 77.3322 390.544 78.3494 390.717 79.0441H390.742Z" fill="#F18862"/>
<path d="M390.568 95.8155C390.518 94.4758 390.444 93.1113 392.477 93.4338C392.204 94.5006 391.485 95.2201 390.568 95.8155Z" fill="#F7A94E"/>
<path d="M384.593 92.1933C383.85 92.1933 383.081 92.1933 382.337 92.1933L382.114 91.1264C382.932 91.0024 383.75 90.4814 384.618 91.0272V92.2181L384.593 92.1933Z" fill="#F2BA2A"/>
<path d="M399.716 94.2029C398.997 94.2525 398.897 93.8307 398.922 93.4834C398.947 93.1609 399.121 92.6647 399.344 92.5903C399.864 92.4166 399.939 92.9376 399.939 93.2849C399.939 93.6075 399.765 93.93 399.691 94.2029H399.716Z" fill="#E31D24"/>
<path d="M389.303 102.886C389.279 103.258 389.254 103.705 388.758 103.705C388.262 103.705 388.237 103.258 388.237 102.886C388.237 102.514 388.262 102.068 388.783 102.068C389.279 102.068 389.279 102.514 389.303 102.886Z" fill="#E11C2C"/>
<path d="M259.767 105.938L259.841 107.625C257.238 106.93 257.362 104.896 257.461 102.862C259.246 103.134 258.998 104.921 259.767 105.938V105.938Z" fill="#C38E39"/>
<path d="M259.767 105.938C258.553 105.243 258.503 103.68 257.462 102.862L257.412 101.72C259.693 102.291 259.767 104.102 259.767 105.938Z" fill="#F0A37B"/>
<path d="M259.817 107.6C260.486 108.245 260.933 109.014 260.858 110.007C259.42 109.684 259.891 108.518 259.817 107.6Z" fill="#C38E39"/>
<path d="M216.927 226.39C216.977 228.771 217.051 231.153 217.1 233.535C217.051 233.708 217.001 233.907 216.952 234.081C215.365 231.997 215.365 228.126 216.952 226.39H216.927Z" fill="#B37554"/>
<path d="M387.569 121.295C381.148 120.948 374.776 121.246 368.578 123.131C370.165 121.618 371.975 120.675 374.231 120.675C377.776 120.675 381.346 120.774 384.891 120.601C387.023 120.501 389.006 118.665 391.535 119.98C390.444 121.37 388.535 120.03 387.593 121.295H387.569Z" fill="#A0694E"/>
<path d="M366.792 111.148C366.792 110.974 366.792 110.801 366.768 110.627C369.544 110.627 372.296 110.627 375.073 110.627C375.073 110.801 375.122 110.974 375.147 111.148C372.371 111.148 369.569 111.148 366.792 111.173V111.148Z" fill="#C1493E"/>
<path d="M383.354 111.222C385.114 111.222 386.899 111.198 388.659 111.198C389.452 111.198 390.295 111.148 390.493 112.215C390.32 112.289 390.146 112.339 389.973 112.364C387.866 111.545 385.56 112.612 383.453 111.768C383.453 111.595 383.403 111.421 383.354 111.222Z" fill="#A72D24"/>
<path d="M383.453 111.768C385.61 112.091 387.891 111.173 389.973 112.364C387.816 112.091 385.536 113.009 383.453 111.768Z" fill="#C9544A"/>
<path d="M395.874 123.007C394.386 122.957 392.998 122.511 391.659 121.915C393.122 122.04 394.833 121.27 395.874 123.007Z" fill="#A0694E"/>
<path d="M404.799 127.919C404.948 127.398 404.972 126.853 405.493 127.051C405.716 127.126 405.89 127.622 405.914 127.944C405.939 128.292 405.84 128.813 405.319 128.639C405.072 128.564 404.923 128.118 404.824 127.919H404.799Z" fill="#9D6F4F"/>
<path d="M400.658 131.07C401.228 130.723 401.774 130.376 402.344 130.003C402.443 130.425 402.989 130.996 402.344 131.244C401.873 131.418 401.08 132.286 400.683 131.07H400.658Z" fill="#A86B52"/>
<path d="M391.114 121.841C390.073 121.841 388.982 122.015 388.064 121.345C389.106 121.394 390.221 120.948 391.114 121.841Z" fill="#A0694E"/>
<path d="M264.577 105.318C264.478 106.26 264.825 107.551 263.312 107.501C262.271 107.476 261.131 106.533 261.503 105.715C261.924 104.797 261.75 103.085 263.238 102.986C264.949 102.886 264.428 104.375 264.577 105.318Z" fill="#F49E8F"/>
<path d="M265.271 108.965C265.891 109.932 265.941 110.677 264.874 111.396C264.453 110.453 264.354 109.709 265.271 108.965Z" fill="#F5A488"/>
<path d="M435.689 254.871C437.449 255.417 438.218 256.608 438.069 258.444C437.028 258.345 435.937 258.692 434.821 258.072C435.218 257.055 435.962 256.087 435.689 254.871V254.871Z" fill="#F6B73A"/>
<path d="M434.499 263.183C433.953 264.522 433.755 266.11 432.119 266.755C432.391 265.564 431.648 264.597 431.251 263.555C432.367 262.934 433.457 263.282 434.499 263.183V263.183Z" fill="#F7B63B"/>
<path d="M426.07 256.087H425.003C424.408 255.665 424.929 255.293 425.003 254.896C425.822 254.549 426.392 253.606 427.433 253.73C426.987 254.524 426.516 255.293 426.07 256.087V256.087Z" fill="#E21E1F"/>
<path d="M439.259 245.369C438.862 245.369 438.465 245.369 438.069 245.369C437.399 244.724 436.978 243.955 436.953 243.012H438.069C438.143 243.657 438.416 244.104 439.135 244.178C440.895 244.377 439.234 244.972 439.259 245.369V245.369Z" fill="#E21E1F"/>
<path d="M432.144 253.68C432.292 252.986 431.796 252.117 432.912 251.572C433.383 252.614 433.557 253.408 432.144 253.68Z" fill="#F4BB28"/>
<path d="M446.398 247.751C444.316 247.9 442.754 247.925 442.705 244.898C442.63 241.821 439.754 243.409 438.093 243.012C438.614 241.896 436.755 240.06 438.936 239.564C441.316 239.018 443.597 239.712 445.134 241.672C446.522 243.434 446.597 245.617 446.398 247.776V247.751Z" fill="#E21E1F"/>
<path d="M237.232 254.871C236.909 253.581 236.537 252.291 237.752 250.976L240.479 256.831C238.669 257.203 238.694 254.772 237.207 254.871H237.232Z" fill="#F4BA31"/>
<path d="M236.735 247.776C237.851 246.362 238.967 246.808 240.107 247.726C238.991 247.726 237.851 247.751 236.735 247.776Z" fill="#F18860"/>
<path d="M211.721 155.632C211.721 154.342 211.671 153.052 211.721 151.786C211.795 150.546 212.489 149.752 213.803 149.777C215.117 149.777 215.836 150.596 215.861 151.836C215.911 154.491 215.911 157.17 215.811 159.825C215.762 161.115 214.894 161.735 213.605 161.686C212.415 161.636 211.795 160.892 211.721 159.8C211.622 158.411 211.721 157.046 211.721 155.657V155.632Z" fill="#F5EFED"/>
<path d="M215.192 144.542C214.944 145.758 214.299 146.775 212.911 146.725C211.473 146.676 210.878 145.683 210.977 144.319C211.077 142.929 211.994 142.16 213.308 142.284C214.523 142.384 215.167 143.252 215.167 144.542H215.192Z" fill="#E6E0DF"/>
<path d="M168.211 168.26C168.161 168.955 167.765 169.302 167.095 169.277C166.228 169.277 165.905 168.732 166.005 167.962C166.079 167.268 166.6 167.02 167.244 167.094C167.938 167.169 168.236 167.59 168.211 168.26Z" fill="#F2BCCE"/>
<path d="M171.955 183.518C172.724 183.667 173.294 184.089 173.691 184.759C172.773 184.808 171.906 184.808 171.955 183.518Z" fill="#EFB6B4"/>
<path d="M221.811 128.391H213.431C213.258 128.242 213.208 128.118 213.282 127.994C213.357 127.895 213.431 127.82 213.506 127.82C216.282 128.043 219.109 127.175 221.811 128.366V128.391Z" fill="#DFA17A"/>
<path d="M202.795 131.442C201.977 133.055 201.184 133.055 200.391 131.418C201.184 131.418 201.977 131.418 202.795 131.442Z" fill="#D89B6F"/>
<path d="M213.481 127.845C213.481 128.043 213.431 128.217 213.406 128.416C212.241 128.416 211.076 128.416 209.936 128.416C210.977 127.374 212.291 127.969 213.481 127.87V127.845Z" fill="#ECB362"/>
<path d="M194.565 178.953C195.457 179.077 195.73 179.673 195.507 180.417C195.433 180.715 195.011 180.938 194.738 181.186C194.367 180.616 193.846 180.07 193.672 179.425C193.548 178.978 194.168 178.978 194.565 178.953V178.953Z" fill="#F4BED0"/>
<path d="M192.086 181.261H194.466C194.416 182.427 193.474 182.6 192.656 182.6C191.838 182.6 192.185 181.757 192.086 181.261V181.261Z" fill="#F4BED0"/>
<path d="M194.688 175.728C194.936 175.629 195.16 175.43 195.407 175.43C195.73 175.43 195.928 175.703 195.68 175.976C195.531 176.15 195.184 176.199 194.936 176.249C194.887 176.249 194.788 175.951 194.688 175.728V175.728Z" fill="#F3BECE"/>
<path d="M414.318 182.427C417.442 183.245 420.565 184.014 423.813 183.618C424.359 185.379 422.97 184.759 422.276 184.784C418.731 184.833 415.161 184.833 411.616 184.784C410.178 184.784 408.814 186.198 407.277 184.858C406.757 184.411 405.988 184.337 406.112 183.444C406.261 182.327 407.327 182.154 407.922 182.476C410.128 183.692 412.211 182.005 414.343 182.402L414.318 182.427Z" fill="#EE7C97"/>
<path d="M432.118 188.356H430.953C428.771 188.356 426.59 188.356 424.433 188.356C423.615 188.356 422.747 188.307 422.747 187.19C422.747 186.074 423.615 186.123 424.408 185.974C427.135 185.453 429.54 186.892 432.143 187.165V188.331L432.118 188.356Z" fill="#EE7B98"/>
<path d="M428.499 181.186C428.846 181.335 429.391 181.409 429.54 181.657C430.11 182.724 432.689 182.104 431.92 183.94C431.226 185.627 429.342 184.635 427.978 184.659C427.408 184.659 426.863 184.337 426.293 184.213C425.698 184.064 425.103 183.965 425.226 183.146C425.326 182.526 425.871 182.501 426.342 182.451C427.259 182.327 428.425 182.699 428.524 181.186H428.499Z" fill="#EE7C97"/>
<path d="M405.988 171.758C407.575 172.627 407.823 174.289 408.318 175.753C408.467 176.224 408.566 177.018 407.823 177.241C407.153 177.44 406.781 176.745 406.484 176.323C405.517 174.909 406.186 173.297 405.988 171.758V171.758Z" fill="#EE7C98"/>
<path d="M402.592 175.505C403.138 175.728 403.286 175.753 403.286 175.802C403.658 177.068 404.03 178.333 403.485 179.623C403.435 179.722 402.815 179.722 402.766 179.623C402.121 178.333 402.493 177.043 402.592 175.505V175.505Z" fill="#EE7C9A"/>
<path d="M432.144 187.19C432.664 185.701 433.507 184.709 435.441 185.032C434.846 186.868 433.681 187.314 432.168 187.19H432.144Z" fill="#EB7C96"/>
<path d="M405.988 171.758C404.947 171.659 403.856 172.006 402.096 170.989C404.005 170.692 405.145 169.774 405.988 171.758Z" fill="#EE7B9B"/>
<path d="M389.948 136.131C389.105 136.801 389.428 137.744 389.328 138.588L385.139 137.347C385.337 137.149 385.659 136.975 385.734 136.727C386.544 134.229 387.948 134.031 389.948 136.131Z" fill="#A86C55"/>
<path d="M385.783 145.634V147.991C386.353 148.685 386.502 149.405 386.056 150.199C385.833 150.496 385.56 150.521 385.262 150.273C384.295 148.164 385.411 145.857 384.643 143.748C384.692 143.574 384.742 143.426 384.816 143.277C386.229 143.599 385.659 144.765 385.808 145.634H385.783Z" fill="#E6EEF9"/>
<path d="M382.783 158.609L380.974 160.916C380.899 161.264 380.75 161.313 380.502 161.041C378.42 158.46 380.354 155.508 379.734 152.779C379.238 152.134 379.114 151.464 379.536 150.744C379.66 150.645 379.759 150.546 379.883 150.472C382.411 149.281 382.734 150.993 383.006 152.804C383.155 153.771 383.056 154.764 383.081 155.756C382.957 156.724 383.378 157.741 382.759 158.634L382.783 158.609Z" fill="#EAEEF6"/>
<path d="M379.71 147.991C378.991 146.403 378.916 144.865 379.958 143.351C380.676 142.532 381.445 142.632 382.238 143.252C383.056 144.095 383.007 145.261 383.18 146.279C383.552 148.536 382.164 149.43 379.883 148.512C379.734 148.437 379.66 148.313 379.66 148.189C379.66 148.04 379.66 147.966 379.734 147.966L379.71 147.991Z" fill="#E8EBF3"/>
<path d="M378.668 152.754C378.569 153.697 379.015 154.913 377.478 155.136C376.511 153.424 373.859 152.605 374.726 149.926C374.974 149.107 375.371 148.586 376.264 149.206H378.644C379.04 149.529 379.189 150 379.214 150.496C379.239 151.315 379.263 152.109 378.644 152.779L378.668 152.754Z" fill="#3A4C8C"/>
<path d="M375.098 146.825H373.908C373.288 146.304 373.09 145.534 372.792 144.815C372.767 144.691 372.743 144.567 372.718 144.443V143.252C373.759 142.16 375.147 143.103 376.288 142.656C377.155 144.046 378.668 145.435 376.288 146.825C375.891 147.172 375.494 147.172 375.098 146.825V146.825Z" fill="#3A4C8A"/>
<path d="M376.288 142.656C376.114 143.351 376.561 144.889 374.949 143.698C374.23 143.177 373.486 143.302 372.718 143.252C373.015 141.738 375.891 141.962 375.123 139.729C378.544 139.506 377.354 141.118 376.288 142.656Z" fill="#394B8F"/>
<path d="M381.073 137.422C380.949 138.712 381.048 139.853 382.833 139.679C383.403 140.324 383.18 140.746 382.411 140.821C380.23 141.069 378.866 140.225 378.668 137.893C379.337 137.025 380.23 137.397 381.073 137.397V137.422Z" fill="#3B4B8D"/>
<path d="M375.098 146.825H376.288C376.288 147.618 376.288 148.412 376.288 149.206C375.544 149.231 375.147 149.628 375.098 150.397C374.602 151.365 374.081 152.307 372.718 151.588C371.85 150.397 371.949 149.206 372.718 148.015C373.66 147.916 374.875 148.363 375.098 146.825Z" fill="#394B8F"/>
<path d="M384.642 143.748C385.733 145.832 385.039 148.09 385.262 150.273C383.923 148.214 384.89 145.931 384.642 143.748Z" fill="#495372"/>
<path d="M384.693 160.544C384.668 158.733 384.643 156.947 384.618 155.136C384.816 155.161 385.015 155.185 385.213 155.235C385.139 157.021 385.659 158.857 384.693 160.544Z" fill="#4A5073"/>
<path d="M378.644 150.372V149.181C378.668 148.512 378.966 148.065 379.685 147.991C379.784 148.164 379.834 148.338 379.834 148.536L379.883 150.447C379.462 150.744 379.04 150.744 378.644 150.397V150.372Z" fill="#3A4C8E"/>
<path d="M382.214 143.277C381.445 143.302 380.701 143.351 379.933 143.376C379.908 142.731 380.106 142.21 380.85 142.135C381.693 142.036 382.139 142.458 382.214 143.277V143.277Z" fill="#3E5094"/>
<path d="M385.263 150.273C385.411 150.348 385.56 150.422 385.709 150.521C386.056 150.844 386.13 151.191 385.783 151.563C385.511 152.605 385.957 153.746 385.263 154.714C385.263 153.225 385.263 151.737 385.263 150.273V150.273Z" fill="#48578F"/>
<path d="M382.981 155.657V152.779C383.18 153.176 383.329 153.548 383.502 153.945C383.477 154.54 383.428 155.136 383.403 155.731C383.18 156.029 383.056 155.979 382.981 155.632V155.657Z" fill="#48578F"/>
<path d="M385.808 151.563L385.733 150.521C385.758 149.678 385.808 148.834 385.833 147.991C386.75 148.015 387.469 146.378 388.609 147.842C389.477 148.933 389.527 150 389.055 151.141C388.708 152.01 388.113 152.779 387.642 153.598C386.651 153.201 387.221 151.489 385.808 151.588V151.563Z" fill="#EFECEF"/>
<path d="M372.718 147.991V151.563C370.884 151.315 370.09 152.109 370.338 153.945C369.545 154.54 368.752 154.689 367.958 153.945C367.785 152.456 366.595 152.853 365.702 152.754V151.588H366.793C367.537 150.794 367.562 150 366.793 149.206V148.015C368.454 148.065 370.462 147.42 370.71 150.149C371.85 149.578 371.355 147.941 372.743 148.015L372.718 147.991Z" fill="#3A4C8A"/>
<path d="M372.718 151.563C373.511 151.166 374.304 150.769 375.098 150.372C375.47 152.183 377.602 153.101 377.478 155.136H376.288C375.668 153.374 372.941 153.746 372.718 151.588V151.563Z" fill="#3A4D89"/>
<path d="M374.453 157.393C375.296 158.832 375.098 159.726 374.726 160.991C373.536 159.8 373.808 158.857 374.453 157.393Z" fill="#364E86"/>
<path d="M372.718 146.8C371.776 146.676 370.338 147.172 370.462 145.485C370.561 144.071 371.85 144.567 372.718 144.443C373.362 145.237 373.362 146.031 372.718 146.825V146.8Z" fill="#3A4C8A"/>
<path d="M372.718 146.8V144.418C374.255 144.641 373.809 145.857 373.908 146.8H372.718Z" fill="#394B8F"/>
<path d="M380.503 161.016C380.651 160.966 380.8 160.916 380.974 160.892C380.552 162.157 382.932 161.934 382.263 163.323C381.048 163.323 379.858 163.323 378.643 163.323C378.519 161.958 378.767 160.892 380.503 161.016Z" fill="#3A4C8C"/>
<path d="M378.644 150.372H379.883C379.834 151.191 379.784 151.96 379.734 152.754C379.363 152.754 379.015 152.754 378.644 152.754C378.644 151.96 378.644 151.166 378.644 150.397V150.372Z" fill="#3E4B84"/>
<path d="M367.958 153.92H370.338C370.288 154.764 370.238 155.607 370.189 156.897C369.024 155.855 368.205 154.689 366.768 155.136C366.768 154.367 367.189 153.97 367.958 153.92Z" fill="#3A4B91"/>
<path d="M382.982 155.657C383.13 155.706 383.254 155.731 383.403 155.756C383.254 156.724 383.824 157.865 382.783 158.634C382.858 157.642 382.907 156.649 382.982 155.657V155.657Z" fill="#464F72"/>
<path d="M366.768 149.206C368.429 150 368.429 150.794 366.768 151.563C366.768 150.769 366.768 149.975 366.768 149.206Z" fill="#364C90"/>
<path d="M385.783 91.0024C385.833 90.2581 386.229 89.8364 386.973 89.8116C386.8 90.5062 387.395 91.4986 386.353 91.846C385.982 91.97 385.833 91.3994 385.783 91.0024Z" fill="#F7B43B"/>
</svg>
