<svg width="595" height="297" viewBox="0 0 595 297" fill="none" xmlns="http://www.w3.org/2000/svg">
<g clip-path="url(#clip0_5484_43218)">
<rect width="595" height="297" fill="#5F5CE9"/>
<path d="M298 313.931C298.415 308.867 299.188 303.849 299.742 298.797C301.345 284.17 304.875 269.832 306.363 255.148C307.067 248.203 308.243 241.236 310.389 234.511C312.373 228.282 316.699 225.179 324.277 224.914C335.351 224.533 346.39 225.606 357.441 226.033C359.61 226.113 361.767 226.287 363.924 226.413C365.043 228.167 363.958 229.839 363.716 231.535C363.451 233.392 362.736 235.169 362.713 237.072C357.81 260.015 359.275 282.947 362.805 305.88C363.209 308.521 364.362 311.174 363.232 313.92H298.012L298 313.931Z" fill="#161B25"/>
<path d="M114.553 313.931C114.76 307.679 115.072 301.438 115.153 295.186C115.268 285.635 114.253 276.095 115.129 266.533C115.695 260.304 116.364 254.098 117.275 247.903C117.69 245.066 119.305 243.439 122.189 243.07C134.059 241.559 145.929 240.048 157.81 238.537C161.051 241.455 163.081 245.296 165.561 248.791C170.014 255.078 174.594 261.284 178.815 267.721C179.83 269.797 181.757 270.904 183.603 272C185.875 273.35 186.705 275.08 186.048 277.71C183.337 288.565 183.406 299.616 183.787 310.689C183.822 311.831 184.064 312.973 183.21 313.942H146.817C145.606 312.65 145.755 311.012 145.709 309.444C145.536 303.445 144.821 297.47 144.948 293.825C145.444 297.655 144.879 303.872 145.386 310.066C145.502 311.416 145.802 312.789 144.763 313.954H114.553V313.931Z" fill="#D9EBF9"/>
<path d="M434.485 229.112C436.446 227.901 438.476 229.008 440.46 228.985C449.838 228.893 459.216 229.02 468.583 228.985C470.775 228.985 472.816 229.366 474.916 230.023C479.149 231.35 481.491 234.084 482.206 238.398C482.783 241.858 483.406 245.284 483.429 248.837C483.475 256.923 483.959 265.01 484.063 273.096C484.213 285.865 482.887 298.554 481.929 311.266C481.86 312.166 481.525 313.031 481.318 313.919H423.642C422.834 312.869 423.192 311.75 423.457 310.654C428.636 289.268 431.982 267.605 432.916 245.607C432.939 245.042 433.02 244.477 433.135 243.912C434.035 240.613 433.573 237.244 433.562 233.911C433.562 232.238 433.274 230.542 434.485 229.124V229.112Z" fill="#161B25"/>
<path d="M216.859 230.474C225.337 229.297 233.804 228.12 242.282 226.944C242.963 226.852 243.643 226.782 244.301 226.609C249.988 225.087 252.283 226.459 253.956 232.204C255.502 237.487 256.032 242.943 256.471 248.376C258.132 269.209 257.44 290.065 256.528 310.92C256.482 311.935 256.171 312.927 255.986 313.942H245.685C244.347 310.713 245.466 307.448 245.651 304.218C245.904 299.835 246.723 295.498 246.746 291.195C245.985 297.874 245.581 304.691 244.67 311.462C244.543 312.385 244.278 313.239 243.62 313.931H204.481C203.732 313.054 203.928 312.005 203.997 310.989C204.804 299.673 203.132 288.646 198.921 278.206C196.868 273.096 196.995 269.105 200.871 265.264C204.747 258.885 206.788 251.71 209.695 244.916C211.264 241.247 212.694 237.533 214.159 233.819C214.702 232.458 215.186 230.981 216.836 230.485L216.859 230.474Z" fill="#D9EBF9"/>
<path d="M363.231 313.931C361.339 306.998 360.763 299.858 359.874 292.775C357.59 274.746 357.602 256.739 361.224 238.836C361.385 238.064 361.651 237.314 361.87 236.552C362.354 236.033 362.366 235.272 362.735 234.718C363.854 233.057 365.446 232.838 366.046 234.788C367.488 239.505 371.144 243.427 370.971 248.688C370.971 248.918 370.971 249.333 371.029 249.333C375.228 249.218 374.005 253.532 375.827 255.47C378.031 257.812 380.88 258.769 383.164 260.707C384.179 261.561 385.24 261.434 386.255 260.546C386.924 259.957 387.616 259.173 388.597 260.13C391.492 264.675 392.381 269.197 390.362 274.607C386.371 285.335 384.975 296.616 384.906 308.048C384.894 310.043 385.356 312.177 383.833 313.919H363.231V313.931Z" fill="#C4D0D7"/>
<path d="M434.012 244.396C434.462 254.905 432.708 265.229 431.197 275.553C429.317 288.461 427.69 301.426 423.653 313.919H403.051C402.394 312.754 402.578 311.485 402.578 310.251C402.578 300.134 402.901 290.007 401.886 279.902C401.621 277.295 401.321 274.676 400.64 272.162C399.394 267.548 401.044 264.191 404.839 261.63C408.15 263.13 411.922 260.442 415.082 262.53C413.029 261.295 413.26 259.6 414.875 258.077C418.924 254.259 422.903 250.325 427.725 247.453C429.19 246.577 430.078 245.942 429.178 244.027C428.244 242.055 430.793 235.803 432.697 234.741C434.023 234.003 434.323 234.776 434.277 235.883C434.162 238.721 434.588 241.57 434.012 244.385V244.396Z" fill="#C4D0D7"/>
<path d="M201.817 265.322C201.771 265.656 201.851 266.152 201.655 266.302C197.295 269.682 198.241 273.304 200.052 277.907C204.158 288.346 205.9 299.351 205.139 310.632C205.07 311.74 204.701 312.824 204.47 313.92H183.187C182.092 306.364 182.403 298.809 182.945 291.218C183.326 285.924 183.799 280.687 185.402 275.623C185.714 274.654 185.702 274.515 184.745 274.031C182.841 273.085 181.111 271.793 179.346 270.582C178.297 269.867 177.305 269.059 177.801 267.537C180.627 261.792 184.768 256.959 188.609 251.918C189.67 251.295 190.778 250.903 192.035 251.191C196.061 255.378 199.625 259.877 201.805 265.322H201.817Z" fill="#17273A"/>
<path d="M405.75 261.861C402.197 264.894 400.559 268.044 401.886 273.269C404.297 282.762 403.882 292.66 403.697 302.43C403.628 306.26 404.458 310.17 403.051 313.931H383.822C383.222 299.062 385.275 284.597 390.431 270.604C391.089 268.828 390.708 267.444 390.028 265.875C389.186 263.914 388.54 261.861 387.813 259.854C387.398 258.746 387.905 257.812 388.586 257.062C390.801 254.651 392.785 252.033 395.103 249.726C396.499 248.341 398.079 247.615 399.913 249.068C402.232 252.09 404.043 255.447 405.923 258.735C406.488 259.715 407.469 260.915 405.75 261.861V261.861Z" fill="#324B70"/>
<path d="M144.763 313.931C143.252 306.675 144.901 299.223 143.425 291.956C143.286 291.299 143.379 290.595 143.425 289.915C143.482 289.084 143.725 288.253 144.717 288.219C145.732 288.184 145.974 289.003 146.089 289.834C146.135 290.168 146.147 290.514 146.124 290.849C145.662 298.554 147.208 306.214 146.816 313.919H144.751L144.763 313.931Z" fill="#A3CAE3"/>
<path d="M243.62 313.931C244.312 305.81 245.016 297.678 245.696 289.557C245.777 288.669 246.031 287.977 247.081 288C248.177 288.023 248.315 288.681 248.223 289.627C247.358 297.724 246.527 305.833 245.685 313.931H243.62V313.931Z" fill="#A2CAE3"/>
<path d="M380.5 216.723C380.304 214.509 378.008 214.809 376.901 214.359C366.727 210.195 358.018 203.908 350.797 195.833C344.406 188.67 339.711 180.399 336.193 171.286C331.625 159.417 331.487 147.212 332.56 135.043C333.332 126.23 336.608 117.74 341.119 109.988C345.352 102.709 350.393 96.0305 356.83 90.459C363.416 84.7606 370.695 80.2619 378.781 77.032C384.802 74.6327 391.17 73.7906 397.468 72.441C405.37 70.7454 412.902 71.945 420.4 73.0985C430.182 74.5981 439.214 78.7047 447.508 84.1723C454.614 88.8556 460.843 94.4964 465.837 101.452C471.282 109.042 476 116.967 477.926 126.253C478.688 129.933 480.452 132.424 484.455 133.139C490.35 134.189 494.698 141.675 494.283 146.555C493.695 153.487 490.211 159.509 481.491 160.524C477.707 160.962 478.699 164.365 478.122 166.211C475.089 175.785 470.774 184.471 464.58 192.5C459.424 199.19 453.183 204.392 446.274 208.914C441.14 212.271 435.569 214.912 429.651 216.747C426.006 217.877 422.373 219.007 418.578 219.469C417.413 219.607 417.482 220.449 417.482 221.234C417.459 223.402 417.47 225.571 417.459 227.728C417.17 230.866 414.517 232.481 412.718 234.499C409.453 238.156 406.027 241.663 402.797 245.354C402.232 245.908 401.621 246.427 401.067 247.015C399.371 248.814 397.803 248.757 396.222 246.819C391.908 241.524 387.352 236.437 383.095 231.108C382.23 230.035 380.927 228.916 381.919 227.197C384.583 225.236 387.859 225.006 390.882 224.048C394.457 222.906 398.126 222.03 402.174 220.772C395.899 219.873 389.913 220.149 384.214 218.396C382.911 217.992 381.515 217.842 380.523 216.758L380.5 216.723Z" fill="#8D5E49"/>
<path d="M192.15 251.756C191.042 251.929 189.924 252.102 188.816 252.286C188.182 252.794 187.501 253.198 186.659 253.221C181.284 252.702 176.739 250.072 172.148 247.557C170.925 246.888 170.683 245.619 170.487 244.35C169.968 240.982 169.725 237.579 169.276 234.188C169.091 232.815 169.102 231.327 169.898 230.208C171.675 227.739 171.386 225.121 170.89 222.422C164.858 221.476 158.905 222.572 152.907 222.987C143.69 223.621 134.543 225.306 125.257 224.959C121.877 224.833 119.305 222.445 119.778 219.4C121.185 210.425 120.297 201.405 120.585 192.407C120.747 187.62 120.689 182.821 120.816 178.034C120.862 176.362 120.458 175.612 118.567 175.566C112.995 175.427 109.189 172.428 107.066 167.468C104.736 162.035 106.016 157.04 109.811 152.68C111.057 151.249 112.661 150.119 114.103 148.85C114.702 148.054 115.614 147.835 116.502 147.662C130.748 144.836 141.799 136.427 152.434 127.268C165.042 116.413 175.066 103.482 183.325 89.1323C184.018 87.9211 184.779 86.7907 186.255 86.4216C197.075 85.4065 207.93 85.0835 218.773 84.7374C220.054 84.7028 221.276 84.8874 222.441 85.4295C227.586 85.3488 232.731 85.3257 237.875 85.1412C241.255 85.0258 242.582 86.7792 242.87 89.8475C244.289 105.374 246.354 120.82 248.188 136.288C250.31 154.249 251.995 172.255 254.163 190.215C254.717 194.841 255.282 199.467 255.824 204.092C256.666 211.21 253.886 213.655 247.646 214.105C232.858 215.166 218.116 216.816 203.351 218.234C199.521 220.08 195.299 219.734 191.262 220.265C188.216 220.657 185.148 221.072 182.057 221.176C180.938 221.211 179.519 221.072 179.034 222.295C178.561 223.483 179.68 224.394 180.338 225.294C185.171 231.915 191.919 235.433 199.74 237.233C201.493 237.637 203.42 237.66 204.781 239.125C205.992 243.139 204.181 247.534 200.224 250.037C198.702 251.006 197.041 251.744 195.414 252.529C194.088 253.302 193.257 251.975 192.15 251.767V251.756Z" fill="#F4CDB1"/>
<path d="M185.287 87.2872C172.587 110.761 155.215 129.806 131.867 143.141C126.376 146.278 120.459 148.332 114.091 148.851C107.932 146.763 105.106 141.618 102.995 136.139C100.803 130.452 99.5571 124.477 100.145 118.294C100.976 109.619 104.114 101.868 109.177 94.7274C115.372 85.9953 123.92 80.3776 133.425 76.2019C137.3 74.5062 141.476 73.1796 145.906 72.7413C149.366 72.3952 152.781 71.2879 156.333 71.4148C158.963 70.5611 161.709 70.2382 164.408 70.5727C171.248 71.4263 177.916 73.0989 184.041 76.3172C188.586 78.705 189.07 83.9074 185.264 87.2872H185.287Z" fill="#754E3E"/>
<path d="M381.7 227.74C387.271 234.546 392.843 241.352 398.46 248.227L402.325 244.662C403.813 247.604 401.16 248.25 399.625 249.519C398.587 249.023 397.434 248.365 396.534 249.507C393.719 253.037 389.947 255.759 387.825 259.854C385.46 263.418 384.826 263.499 381.607 260.696C380.938 260.119 380.442 259.3 379.289 259.646C377.847 260.085 377.282 259.035 376.728 257.985C376.278 257.143 376.336 255.909 374.952 255.736C372.898 255.471 372.748 254.317 373.302 252.541C373.764 251.076 373.59 249.865 371.503 251.122C370.095 251.964 369.161 251.514 369.703 249.784C370.522 247.188 370.395 245.274 368.134 243.128C367.062 242.113 367.062 239.494 366.254 237.649C364.558 233.796 364.651 233.75 361.848 236.565C362.067 233.092 362.978 229.759 363.912 226.437C369.369 225.998 374.836 226.298 380.292 226.425C381.158 226.448 381.607 226.898 381.677 227.752L381.7 227.74Z" fill="#C4CFD7"/>
<path d="M399.626 249.518C399.464 247.315 402.925 247.107 402.325 244.662C407.366 239.01 412.418 233.358 417.459 227.717C422.304 227.901 427.149 228.109 432.005 228.27C432.951 228.305 433.781 228.478 434.485 229.124C434.266 234.211 435.016 239.333 434.012 244.408C434.012 241.34 434.012 238.283 434.012 234.499C431.463 236.968 430.863 239.806 429.329 242.055C428.937 242.632 429.513 243.312 430.044 243.808C432.305 245.908 431.001 247.223 428.925 248.088C425.245 249.634 422.777 252.667 419.778 255.055C418.197 256.313 416.663 257.57 415.233 258.989C413.929 260.292 413.779 261.342 415.856 261.849C416.698 262.057 417.459 262.288 417.344 263.326C417.298 263.707 417.009 264.214 416.686 264.376C415.856 264.803 415.117 264.491 414.644 263.707C413.583 261.93 412.418 262.011 410.722 263.026C408.911 264.099 407.1 263.557 405.751 261.861C406.858 260.442 405.439 259.542 404.932 258.597C403.271 255.517 401.414 252.541 399.626 249.518V249.518Z" fill="#C4CFD7"/>
<path d="M185.286 87.2872C186.036 85.753 186.613 84.2304 186.705 82.4424C186.844 79.8009 185.898 78.1859 183.475 77.0901C174.835 73.1912 165.85 71.0918 156.333 71.4148C156.864 69.2923 158.836 70.3651 160.082 69.7998C163.104 68.4041 166.392 67.885 169.668 67.2275C174.178 66.3162 178.642 65.751 183.152 66.1086C198.067 67.2851 211.564 71.6685 221.484 83.7459C221.945 84.2996 222.257 84.7841 222.43 85.43C217.216 85.7761 212.013 86.1798 206.8 86.4336C199.625 86.7797 192.45 87.0104 185.275 87.2872H185.286Z" fill="#9D6249"/>
<path d="M204.389 239.217C199.014 238.26 193.777 236.945 188.921 234.315C184.168 231.754 180.8 227.844 177.766 223.564C176.613 221.938 176.947 220.796 179.058 220.53C181.411 220.23 183.764 219.896 186.129 219.757C191.885 219.411 197.56 218.165 203.351 218.235C203.963 220.403 204.551 222.572 204.47 224.856C206.304 229.655 206.604 234.442 204.389 239.217V239.217Z" fill="#BC9375"/>
<path d="M170.89 222.422C172.124 224.417 171.928 226.851 171.282 228.628C169.217 234.234 171.547 239.575 171.582 245.019C171.582 245.711 171.732 246.311 172.493 246.68C177.084 248.895 181.548 251.433 186.67 252.31C187.281 253.094 186.97 253.775 186.474 254.467C184.351 257.408 182.321 260.43 180.118 263.314C178.734 265.125 177.546 265.171 176.046 263.395C173.912 260.869 172.251 258.02 170.313 255.355C166.714 250.395 163.288 245.308 159.724 240.325C159.055 239.39 158.432 238.456 158.455 237.233C159.689 233.634 162.654 231.558 165.86 230.393C169.932 228.916 171.536 226.54 170.878 222.422H170.89Z" fill="#D7ECF9"/>
<path d="M204.389 239.217C204.412 234.43 204.447 229.643 204.47 224.856C208.311 225.283 211.944 226.217 214.851 228.997C215.728 230.347 215.128 231.558 214.598 232.85C211.091 241.57 207.469 250.245 204.054 259.012C203.558 260.281 203.108 261.734 201.54 261.965C199.994 262.184 199.463 260.754 198.863 259.715C197.422 257.258 194.711 255.459 194.803 252.171C195.161 250.291 197.122 250.533 198.241 249.957C202.751 247.626 204.919 244.281 204.389 239.229V239.217Z" fill="#D8EBF9"/>
<path d="M381.7 227.739C381.238 227.301 380.777 226.851 380.315 226.413C380.385 223.183 380.442 219.965 380.512 216.735C385.656 217.392 390.628 218.95 395.888 219.123C398.126 219.192 400.41 219.273 402.659 219.457C403.386 219.515 404.505 219.077 404.712 220.092C404.955 221.326 403.732 221.372 402.901 221.614C397.03 223.298 391.159 224.971 385.287 226.655C384.087 227.001 382.911 227.382 381.711 227.751L381.7 227.739Z" fill="#573B2C"/>
<path d="M194.803 252.16C196.937 255.32 199.059 258.492 201.632 262.311C203.419 257.939 205.034 254.236 206.43 250.464C209.106 243.254 212.763 236.426 214.851 228.985C215.52 229.481 216.189 229.977 216.858 230.473C212.475 239.702 209.187 249.38 205.173 258.769C204.204 261.019 203.662 263.51 201.828 265.333C198.609 260.811 195.379 256.289 192.161 251.767C193.303 250.21 193.811 252.783 194.814 252.171L194.803 252.16Z" fill="#A1C8E2"/>
<path d="M158.467 237.245C164.534 245.723 170.683 254.156 176.623 262.715C178.019 264.722 178.434 264.272 179.542 262.588C181.837 259.116 184.756 256.059 186.671 252.31C187.386 252.31 188.101 252.299 188.816 252.287C185.598 257.697 181.918 262.773 177.812 267.548C171.583 258.77 165.353 249.992 159.136 241.202C158.559 240.383 157.706 239.679 157.798 238.526C157.798 237.983 157.902 237.499 158.467 237.245V237.245Z" fill="#A2C7E1"/>
<path d="M240.886 270.755C237.772 272.635 234.576 272.635 231.543 273.062C226.398 273.8 221.23 274.331 216.062 274.861C215.174 274.954 213.675 275.334 213.663 273.812C213.663 272.543 215.001 272.877 215.843 272.866C222.88 272.75 229.801 271.701 236.676 270.247C237.922 269.982 239.294 269.774 240.886 270.743V270.755Z" fill="#A1C8E2"/>
<path d="M376.186 146.924C375.413 148.32 374.317 148.92 372.61 148.966C365.85 149.139 359.448 147.778 353.335 144.963C346.171 141.664 344.729 136.381 350.012 130.613C355.745 124.35 363.301 121.697 371.768 121.443C374.998 121.339 373.44 124.454 374.859 125.503C378.297 129.564 379.093 142.518 376.174 146.936L376.186 146.924Z" fill="#020202"/>
<path d="M407.965 168.414C408.011 178.519 400.698 186.975 391.401 187.967C380.973 189.074 371.675 182.706 369.553 172.994C369.437 172.44 369.38 171.875 369.345 171.298C369.218 169.418 369.657 167.815 371.779 167.411C373.948 166.996 375.021 168.437 375.413 170.202C376.082 173.282 377.155 176.085 379.519 178.265C384.076 182.464 390.881 182.995 395.934 179.534C401.09 176.016 403.097 169.649 400.906 163.858C400.052 161.62 398.022 159.186 401.448 157.421C403.559 156.337 405.45 158.136 406.904 162.139C407.7 164.319 408.092 166.523 407.965 168.414V168.414Z" fill="#E9ABBB"/>
<path d="M376.186 146.924C377.582 139.668 376.347 132.574 374.871 125.492C374.363 122.539 375.286 121.5 378.481 122.135C383.222 123.092 387.802 124.373 391.851 127.037C396.43 130.048 397.318 133.578 394.423 138.111C390.559 144.167 384.537 146.936 377.686 148.216C376.555 148.424 376.336 147.743 376.186 146.913V146.924Z" fill="#F7F2F0"/>
<path d="M402.544 192.061C404.62 192.038 405.427 192.523 404.735 194.311C402.717 199.605 400.813 204.935 398.772 210.218C397.964 212.317 396.603 212.502 395.299 210.645C392.762 207.022 390.328 203.331 387.836 199.675C387.167 198.683 386.994 197.575 388.24 197.114C393.119 195.303 398.056 193.63 402.544 192.061V192.061Z" fill="#D2BCB3"/>
<path d="M400.917 114.533C400.963 115.502 400.813 116.033 400.213 116.31C399.406 116.69 398.921 116.148 398.494 115.618C396.937 113.657 395.484 111.649 393.5 110.046C384.225 102.583 374.478 102.56 365.261 110.081C364.362 110.807 363.335 111.915 362.331 110.877C361.028 109.527 362.643 108.696 363.462 107.901C371.629 99.8836 385.886 99.7567 394.918 107.635C396.545 109.054 398.033 110.646 399.486 112.249C400.144 112.988 400.548 113.957 400.905 114.545L400.917 114.533Z" fill="#D2BBB1"/>
<path d="M479.945 146.278C479.945 144.687 479.991 143.083 479.945 141.491C479.875 139.254 481.375 138.758 482.828 139.588C485.193 140.949 487.235 142.818 487.523 145.898C487.8 148.897 486.312 150.973 484.051 152.508C481.906 153.972 480.06 152.934 479.968 150.385C479.922 149.012 479.968 147.651 479.968 146.278H479.945Z" fill="#734B37"/>
<path d="M182.471 137.234C185.009 135.054 188.216 135.146 191.192 135.123C198.367 135.066 205.334 136.046 210.617 141.652C214.101 145.344 213.997 148.827 210.317 152.357C204.688 157.756 197.998 161.158 190.35 162.67C189.358 162.866 188.366 163.281 187.362 162.67C185.621 162.024 185.251 160.374 184.744 158.909C182.483 152.392 182.16 145.586 181.883 138.792C181.86 138.215 182.137 137.696 182.483 137.234H182.471Z" fill="#020202"/>
<path d="M182.472 137.234C183.395 142.691 183.176 148.285 184.399 153.73C185.091 156.833 186.164 159.763 187.363 162.681C181.4 164.884 168.446 161.504 165.608 155.252C164.189 152.126 164.178 149.127 166.635 146.613C171.076 142.091 176.036 138.422 182.461 137.246L182.472 137.234Z" fill="#F7F3F1"/>
<path d="M218.3 180.722C218.542 178.715 218.046 176.904 216.973 175.197C215.981 173.605 215.682 171.84 217.504 170.675C219.592 169.337 220.942 170.894 222.014 172.405C225.36 177.1 225.198 184.702 221.738 189.443C216.235 196.987 207.215 199.144 199.059 194.657C194.953 192.396 192.415 188.878 192.115 184.044C192.034 182.729 191.827 181.184 193.903 180.999C195.76 180.838 196.902 181.564 197.548 183.341C200.386 191.104 207.122 193.388 214.124 189.028C217.204 187.101 218.692 184.367 218.3 180.722V180.722Z" fill="#EA5C75"/>
<path d="M213.409 116.333C213.363 117.417 212.786 118.086 211.679 117.728C210.837 117.463 210.087 116.863 209.349 116.333C197.975 108.177 182.552 111.096 174.951 122.885C174.213 124.026 173.543 125.711 171.917 124.649C170.394 123.646 171.513 122.273 172.205 121.085C179.853 107.912 199.913 104.244 211.644 113.922C212.417 114.556 213.386 115.087 213.432 116.333H213.409Z" fill="#764F3D"/>
<path d="M121.416 161.85C121.416 162.762 121.485 163.685 121.404 164.584C121.3 165.669 121.981 167.18 120.816 167.722C119.558 168.299 118.163 167.514 117.044 166.73C112.591 163.638 112.81 158.055 117.448 155.691C120.297 154.237 121.358 154.883 121.416 158.09C121.439 159.347 121.416 160.593 121.416 161.85V161.85Z" fill="#CA9A79"/>
<path d="M159.241 163.454C159.933 163.397 160.313 163.835 160.452 164.4C160.579 164.931 160.625 165.611 159.864 165.727C159.206 165.831 158.802 165.312 158.629 164.769C158.445 164.216 158.525 163.639 159.252 163.443L159.241 163.454Z" fill="#E57C4B"/>
<path d="M373.083 145.009C371.676 141.41 372.564 137.661 372.506 133.947C374.513 137.477 373.879 141.225 373.083 145.009Z" fill="#CCC9C9"/>
<path d="M372.587 131.859C371.157 129.679 370.649 128.214 371.122 126.172C372.945 127.614 373.118 129.195 372.587 131.859Z" fill="#B7B5B5"/>
<path d="M187.04 147.835C188.263 151.538 189.693 155.149 189.624 159.117C187.328 155.702 186.902 151.815 187.04 147.835Z" fill="#F3F0EF"/>
<path d="M186.672 145.379C185.599 143.844 186.026 142.287 186.36 140.73C187.837 142.195 187.352 143.787 186.672 145.379Z" fill="#F1F0F0"/>
</g>
<defs>
<clipPath id="clip0_5484_43218">
<rect width="595" height="297" fill="white"/>
</clipPath>
</defs>
</svg>
