<svg width="596" height="287" viewBox="0 0 596 287" fill="none" xmlns="http://www.w3.org/2000/svg">
<g clip-path="url(#clip0_5114_42145)">
<path d="M321.43 286.87H226.79C225.9 281.89 226.37 276.89 226.62 271.91C227.18 260.87 227.18 249.84 226.62 238.8C226.33 233.09 226.08 227.38 225.22 221.71C224.85 219.25 224.34 216.84 223.25 214.61C221.9 211.84 220.56 211.32 217.51 211.92C209.55 213.5 201.49 214.34 193.43 215.19C192.37 215.08 191.56 214.48 190.75 213.88C189.08 212.39 187.01 211.71 184.93 211.02C183.82 210.65 182.56 210.59 181.76 209.54C181.45 207.52 179.74 205.66 181.05 203.44C181.82 202.91 182.72 202.87 183.6 202.74C195.56 201.05 207.63 200.52 219.63 199.23C224.26 198.73 225.97 197.05 225.67 192.34C225.29 186.23 224.27 180.19 223.65 174.1C222.28 160.75 220.58 147.43 219.09 134.09C218.14 125.57 217.25 117.02 216.05 108.52C215.38 103.75 214.7 98.9401 214.46 94.1001C214.27 90.3701 213.52 89.7301 209.74 89.5801C205.79 89.4201 201.82 90.0401 197.9 89.1501C195.91 87.9701 194.52 86.1301 192.89 84.5601C186.54 78.4401 178.94 75.1001 170.2 73.9801C166.88 73.5501 163.63 72.6601 160.22 72.8901C153.49 73.3501 146.94 74.6101 140.66 77.1301C134.55 78.2201 128.35 78.8501 122.47 81.1101C106.75 87.1601 96.1103 97.8401 92.8503 114.62C91.1703 123.29 93.7003 131.47 98.4603 138.89C99.2803 140.16 100.67 140.85 101.85 141.74C102.69 142.37 103.87 142.73 103.83 144.1C103.38 145.5 102.12 146.24 101.2 147.26C98.2203 150.57 96.7703 154.31 98.2903 158.71C99.7503 162.91 102.75 165.43 107.19 166C109.54 166.3 110.47 167.59 110.43 169.79C110.2 181.05 111.12 192.33 109.87 203.57C109.47 207.12 110.72 208.61 114.24 208.72C118.2 208.84 122.14 208.49 126.1 208.15C134.28 207.44 142.42 206.09 150.67 206.33C151.47 206.35 152.26 206.35 152.93 206.88C154.74 210.68 154.07 212.72 150.39 214.4C147.27 215.83 144.66 217.85 142.79 220.76C142.38 221.32 141.96 221.85 141.3 222.14C131.94 223.81 122.51 224.94 113.08 226.16C109.07 226.68 107.82 227.59 107.26 231.57C106.06 240.08 105 248.64 105.27 257.23C105.44 262.65 105.69 268.08 105.78 273.51C105.84 277.18 105.06 280.78 105.09 284.45C105.09 285.36 104.8 286.2 104.16 286.89H0.0302734C0.0302734 191.52 0.0302734 96.1401 0.0302734 0.770076C1.06027 0.200076 2.17027 0.470076 3.24027 0.470076C199.49 0.460076 395.75 0.460076 592 0.470076C593.07 0.470076 594.18 0.200076 595.21 0.750076C595.21 95.2301 595.21 189.72 595.27 284.2C595.27 286.43 594.77 286.93 592.54 286.93C555.14 286.85 517.74 286.87 480.35 286.87C479.25 284.47 479.96 282 480.18 279.59C481.42 266.21 482.37 252.84 481.22 239.4C480.78 234.19 481.51 228.94 480.58 223.73C479.36 216.93 476.52 214.39 469.54 214.29C463.3 214.2 457.06 214.26 450.82 214.27C447.16 214.27 443.49 214.33 439.85 213.88C434.99 213.51 430.07 213.81 425.3 212.56C423.38 210.42 424.02 207.95 424.54 205.58C424.81 204.35 426.13 204.21 427.19 203.99C434.25 202.55 440.96 200.1 447.12 196.42C453.39 192.67 459.13 188.37 463.96 182.6C470.42 174.86 474.33 166.09 477.23 156.69C477.91 154.47 478.94 153.3 481.4 152.82C486.78 151.78 490.57 147.37 490.62 141.91C490.65 138.02 488.82 134.68 485.55 132.35C484.51 131.61 483.31 130.95 482.07 130.7C478.75 130.03 477.44 127.72 476.74 124.76C474.64 115.81 470 108.23 464.37 101.06C454.86 88.9401 442.13 82.2901 427.44 79.1201C423.26 78.2201 418.96 77.2301 414.52 77.6001C400.88 78.7201 388.21 82.2701 377.01 90.6301C365.16 99.4801 357.84 111.22 353.71 125.1C352.07 130.6 352.13 136.36 351.98 142.1C351.63 155.39 355.87 167.1 363.15 177.95C368.55 186.01 375.79 192 384.22 196.67C386.47 197.92 388.65 199.27 391.1 200.14C392.45 200.62 393.54 201.48 393.69 203.1C393.76 205.8 394.47 208.56 392.95 211.11C390.66 212.46 388.14 211.84 385.72 211.91C383.46 211.98 381.19 212.07 378.94 211.81C368.35 211.6 357.78 210.53 347.17 210.67C345.78 210.69 344.39 210.75 343.01 210.79C337.52 210.93 334.53 214.15 332.95 218.96C331.22 224.24 330.26 229.75 329.79 235.24C328.99 244.43 326.89 253.39 325.6 262.48C324.81 268.05 323.82 273.59 323.52 279.24C323.38 281.89 322.91 284.54 321.43 286.87Z" fill="#7D7DFF"/>
<path d="M321.43 286.87C321.79 282.48 322.46 278.13 322.94 273.75C324.33 261.07 327.39 248.64 328.68 235.91C329.29 229.89 330.31 223.85 332.17 218.02C333.89 212.62 337.64 209.93 344.21 209.7C353.81 209.37 363.38 210.3 372.96 210.67C374.84 210.74 376.71 210.89 378.58 211C379.55 212.52 378.61 213.97 378.4 215.44C378.17 217.05 377.55 218.59 377.53 220.24C373.28 240.13 374.55 260.01 377.61 279.89C377.96 282.18 378.96 284.48 377.98 286.86H321.44L321.43 286.87Z" fill="#161B25"/>
<path d="M104.19 286.87C104.37 281.45 104.64 276.04 104.71 270.62C104.81 262.34 103.93 254.07 104.69 245.78C105.18 240.38 105.76 235 106.55 229.63C106.91 227.17 108.31 225.76 110.81 225.44C121.1 224.13 131.39 222.82 141.69 221.51C144.5 224.04 146.26 227.37 148.41 230.4C152.27 235.85 156.24 241.23 159.9 246.81C160.78 248.61 162.45 249.57 164.05 250.52C166.02 251.69 166.74 253.19 166.17 255.47C163.82 264.88 163.88 274.46 164.21 284.06C164.24 285.05 164.45 286.04 163.71 286.88H132.16C131.11 285.76 131.24 284.34 131.2 282.98C131.05 277.78 130.43 272.6 130.54 269.44C130.97 272.76 130.48 278.15 130.92 283.52C131.02 284.69 131.28 285.88 130.38 286.89H104.19V286.87Z" fill="#D9EBF9"/>
<path d="M439.75 213.34C441.45 212.29 443.21 213.25 444.93 213.23C453.06 213.15 461.19 213.26 469.31 213.23C471.21 213.23 472.98 213.56 474.8 214.13C478.47 215.28 480.5 217.65 481.12 221.39C481.62 224.39 482.16 227.36 482.18 230.44C482.22 237.45 482.64 244.46 482.73 251.47C482.86 262.54 481.71 273.54 480.88 284.56C480.82 285.34 480.53 286.09 480.35 286.86H430.35C429.65 285.95 429.96 284.98 430.19 284.03C434.68 265.49 437.58 246.71 438.39 227.64C438.41 227.15 438.48 226.66 438.58 226.17C439.36 223.31 438.96 220.39 438.95 217.5C438.95 216.05 438.7 214.58 439.75 213.35V213.34Z" fill="#161B25"/>
<path d="M192.88 214.52C200.23 213.5 207.57 212.48 214.92 211.46C215.51 211.38 216.1 211.32 216.67 211.17C221.6 209.85 223.59 211.04 225.04 216.02C226.38 220.6 226.84 225.33 227.22 230.04C228.66 248.1 228.06 266.18 227.27 284.26C227.23 285.14 226.96 286 226.8 286.88H217.87C216.71 284.08 217.68 281.25 217.84 278.45C218.06 274.65 218.77 270.89 218.79 267.16C218.13 272.95 217.78 278.86 216.99 284.73C216.88 285.53 216.65 286.27 216.08 286.87H182.15C181.5 286.11 181.67 285.2 181.73 284.32C182.43 274.51 180.98 264.95 177.33 255.9C175.55 251.47 175.66 248.01 179.02 244.68C182.38 239.15 184.15 232.93 186.67 227.04C188.03 223.86 189.27 220.64 190.54 217.42C191.01 216.24 191.43 214.96 192.86 214.53L192.88 214.52Z" fill="#D9EBF9"/>
<path d="M377.98 286.87C376.34 280.86 375.84 274.67 375.07 268.53C373.09 252.9 373.1 237.29 376.24 221.77C376.38 221.1 376.61 220.45 376.8 219.79C377.22 219.34 377.23 218.68 377.55 218.2C378.52 216.76 379.9 216.57 380.42 218.26C381.67 222.35 384.84 225.75 384.69 230.31C384.69 230.51 384.69 230.87 384.74 230.87C388.38 230.77 387.32 234.51 388.9 236.19C390.81 238.22 393.28 239.05 395.26 240.73C396.14 241.47 397.06 241.36 397.94 240.59C398.52 240.08 399.12 239.4 399.97 240.23C402.48 244.17 403.25 248.09 401.5 252.78C398.04 262.08 396.83 271.86 396.77 281.77C396.76 283.5 397.16 285.35 395.84 286.86H377.98V286.87Z" fill="#C4D0D7"/>
<path d="M439.34 226.59C439.73 235.7 438.21 244.65 436.9 253.6C435.27 264.79 433.86 276.03 430.36 286.86H412.5C411.93 285.85 412.09 284.75 412.09 283.68C412.09 274.91 412.37 266.13 411.49 257.37C411.26 255.11 411 252.84 410.41 250.66C409.33 246.66 410.76 243.75 414.05 241.53C416.92 242.83 420.19 240.5 422.93 242.31C421.15 241.24 421.35 239.77 422.75 238.45C426.26 235.14 429.71 231.73 433.89 229.24C435.16 228.48 435.93 227.93 435.15 226.27C434.34 224.56 436.55 219.14 438.2 218.22C439.35 217.58 439.61 218.25 439.57 219.21C439.47 221.67 439.84 224.14 439.34 226.58V226.59Z" fill="#C4D0D7"/>
<path d="M179.84 244.73C179.8 245.02 179.87 245.45 179.7 245.58C175.92 248.51 176.74 251.65 178.31 255.64C181.87 264.69 183.38 274.23 182.72 284.01C182.66 284.97 182.34 285.91 182.14 286.86H163.69C162.74 280.31 163.01 273.76 163.48 267.18C163.81 262.59 164.22 258.05 165.61 253.66C165.88 252.82 165.87 252.7 165.04 252.28C163.39 251.46 161.89 250.34 160.36 249.29C159.45 248.67 158.59 247.97 159.02 246.65C161.47 241.67 165.06 237.48 168.39 233.11C169.31 232.57 170.27 232.23 171.36 232.48C174.85 236.11 177.94 240.01 179.83 244.73H179.84Z" fill="#17273A"/>
<path d="M414.84 241.73C411.76 244.36 410.34 247.09 411.49 251.62C413.58 259.85 413.22 268.43 413.06 276.9C413 280.22 413.72 283.61 412.5 286.87H395.83C395.31 273.98 397.09 261.44 401.56 249.31C402.13 247.77 401.8 246.57 401.21 245.21C400.48 243.51 399.92 241.73 399.29 239.99C398.93 239.03 399.37 238.22 399.96 237.57C401.88 235.48 403.6 233.21 405.61 231.21C406.82 230.01 408.19 229.38 409.78 230.64C411.79 233.26 413.36 236.17 414.99 239.02C415.48 239.87 416.33 240.91 414.84 241.73Z" fill="#324B70"/>
<path d="M595.22 0.749961H0.0301997C0.1602 0.559961 -0.2698 0.129961 0.3302 0.149961C1.1202 0.179961 1.9202 0.149961 2.7102 0.149961C199.32 0.149961 395.93 0.149961 592.54 0.189961C593.41 0.189961 594.56 -0.490039 595.22 0.749961Z" fill="white"/>
<path d="M130.38 286.87C129.07 280.58 130.5 274.12 129.22 267.82C129.1 267.25 129.18 266.64 129.22 266.05C129.27 265.33 129.48 264.61 130.34 264.58C131.22 264.55 131.43 265.26 131.53 265.98C131.57 266.27 131.58 266.57 131.56 266.86C131.16 273.54 132.5 280.18 132.16 286.86H130.37L130.38 286.87Z" fill="#A3CAE3"/>
<path d="M216.08 286.87C216.68 279.83 217.29 272.78 217.88 265.74C217.95 264.97 218.17 264.37 219.08 264.39C220.03 264.41 220.15 264.98 220.07 265.8C219.32 272.82 218.6 279.85 217.87 286.87H216.08Z" fill="#A2CAE3"/>
<path d="M392.95 202.6C392.78 200.68 390.79 200.94 389.83 200.55C381.01 196.94 373.46 191.49 367.2 184.49C361.66 178.28 357.59 171.11 354.54 163.21C350.58 152.92 350.46 142.34 351.39 131.79C352.06 124.15 354.9 116.79 358.81 110.07C362.48 103.76 366.85 97.9698 372.43 93.1398C378.14 88.1998 384.45 84.2998 391.46 81.4998C396.68 79.4198 402.2 78.6898 407.66 77.5198C414.51 76.0498 421.04 77.0898 427.54 78.0898C436.02 79.3898 443.85 82.9498 451.04 87.6898C457.2 91.7498 462.6 96.6398 466.93 102.67C471.65 109.25 475.74 116.12 477.41 124.17C478.07 127.36 479.6 129.52 483.07 130.14C488.18 131.05 491.95 137.54 491.59 141.77C491.08 147.78 488.06 153 480.5 153.88C477.22 154.26 478.08 157.21 477.58 158.81C474.95 167.11 471.21 174.64 465.84 181.6C461.37 187.4 455.96 191.91 449.97 195.83C445.52 198.74 440.69 201.03 435.56 202.62C432.4 203.6 429.25 204.58 425.96 204.98C424.95 205.1 425.01 205.83 425.01 206.51C424.99 208.39 425 210.27 424.99 212.14C424.74 214.86 422.44 216.26 420.88 218.01C418.05 221.18 415.08 224.22 412.28 227.42C411.79 227.9 411.26 228.35 410.78 228.86C409.31 230.42 407.95 230.37 406.58 228.69C402.84 224.1 398.89 219.69 395.2 215.07C394.45 214.14 393.32 213.17 394.18 211.68C396.49 209.98 399.33 209.78 401.95 208.95C405.05 207.96 408.23 207.2 411.74 206.11C406.3 205.33 401.11 205.57 396.17 204.05C395.04 203.7 393.83 203.57 392.97 202.63L392.95 202.6Z" fill="#8D5E49"/>
<path d="M171.46 232.97C170.5 233.12 169.53 233.27 168.57 233.43C168.02 233.87 167.43 234.22 166.7 234.24C162.04 233.79 158.1 231.51 154.12 229.33C153.06 228.75 152.85 227.65 152.68 226.55C152.23 223.63 152.02 220.68 151.63 217.74C151.47 216.55 151.48 215.26 152.17 214.29C153.71 212.15 153.46 209.88 153.03 207.54C147.8 206.72 142.64 207.67 137.44 208.03C129.45 208.58 121.52 210.04 113.47 209.74C110.54 209.63 108.31 207.56 108.72 204.92C109.94 197.14 109.17 189.32 109.42 181.52C109.56 177.37 109.51 173.21 109.62 169.06C109.66 167.61 109.31 166.96 107.67 166.92C102.84 166.8 99.5398 164.2 97.6998 159.9C95.6798 155.19 96.7898 150.86 100.08 147.08C101.16 145.84 102.55 144.86 103.8 143.76C104.32 143.07 105.11 142.88 105.88 142.73C118.23 140.28 127.81 132.99 137.03 125.05C147.96 115.64 156.65 104.43 163.81 91.9898C164.41 90.9398 165.07 89.9598 166.35 89.6398C175.73 88.7598 185.14 88.4798 194.54 88.1798C195.65 88.1498 196.71 88.3098 197.72 88.7798C202.18 88.7098 206.64 88.6898 211.1 88.5298C214.03 88.4298 215.18 89.9498 215.43 92.6098C216.66 106.07 218.45 119.46 220.04 132.87C221.88 148.44 223.34 164.05 225.22 179.62C225.7 183.63 226.19 187.64 226.66 191.65C227.39 197.82 224.98 199.94 219.57 200.33C206.75 201.25 193.97 202.68 181.17 203.91C177.85 205.51 174.19 205.21 170.69 205.67C168.05 206.01 165.39 206.37 162.71 206.46C161.74 206.49 160.51 206.37 160.09 207.43C159.68 208.46 160.65 209.25 161.22 210.03C165.41 215.77 171.26 218.82 178.04 220.38C179.56 220.73 181.23 220.75 182.41 222.02C183.46 225.5 181.89 229.31 178.46 231.48C177.14 232.32 175.7 232.96 174.29 233.64C173.14 234.31 172.42 233.16 171.46 232.98V232.97Z" fill="#F4CDB1"/>
<path d="M165.51 90.3901C154.5 110.74 139.44 127.25 119.2 138.81C114.44 141.53 109.31 143.31 103.79 143.76C98.4503 141.95 96.0003 137.49 94.1703 132.74C92.2703 127.81 91.1903 122.63 91.7003 117.27C92.4203 109.75 95.1403 103.03 99.5303 96.8401C104.9 89.2701 112.31 84.4001 120.55 80.7801C123.91 79.3101 127.53 78.1601 131.37 77.7801C134.37 77.4801 137.33 76.5201 140.41 76.6301C142.69 75.8901 145.07 75.6101 147.41 75.9001C153.34 76.6401 159.12 78.0901 164.43 80.8801C168.37 82.9501 168.79 87.4601 165.49 90.3901H165.51Z" fill="#754E3E"/>
<path d="M393.99 212.15C398.82 218.05 403.65 223.95 408.52 229.91L411.87 226.82C413.16 229.37 410.86 229.93 409.53 231.03C408.63 230.6 407.63 230.03 406.85 231.02C404.41 234.08 401.14 236.44 399.3 239.99C397.25 243.08 396.7 243.15 393.91 240.72C393.33 240.22 392.9 239.51 391.9 239.81C390.65 240.19 390.16 239.28 389.68 238.37C389.29 237.64 389.34 236.57 388.14 236.42C386.36 236.19 386.23 235.19 386.71 233.65C387.11 232.38 386.96 231.33 385.15 232.42C383.93 233.15 383.12 232.76 383.59 231.26C384.3 229.01 384.19 227.35 382.23 225.49C381.3 224.61 381.3 222.34 380.6 220.74C379.13 217.4 379.21 217.36 376.78 219.8C376.97 216.79 377.76 213.9 378.57 211.02C383.3 210.64 388.04 210.9 392.77 211.01C393.52 211.03 393.91 211.42 393.97 212.16L393.99 212.15Z" fill="#C4CFD7"/>
<path d="M409.53 231.03C409.39 229.12 412.39 228.94 411.87 226.82C416.24 221.92 420.62 217.02 424.99 212.13C429.19 212.29 433.39 212.47 437.6 212.61C438.42 212.64 439.14 212.79 439.75 213.35C439.56 217.76 440.21 222.2 439.34 226.6C439.34 223.94 439.34 221.29 439.34 218.01C437.13 220.15 436.61 222.61 435.28 224.56C434.94 225.06 435.44 225.65 435.9 226.08C437.86 227.9 436.73 229.04 434.93 229.79C431.74 231.13 429.6 233.76 427 235.83C425.63 236.92 424.3 238.01 423.06 239.24C421.93 240.37 421.8 241.28 423.6 241.72C424.33 241.9 424.99 242.1 424.89 243C424.85 243.33 424.6 243.77 424.32 243.91C423.6 244.28 422.96 244.01 422.55 243.33C421.63 241.79 420.62 241.86 419.15 242.74C417.58 243.67 416.01 243.2 414.84 241.73C415.8 240.5 414.57 239.72 414.13 238.9C412.69 236.23 411.08 233.65 409.53 231.03Z" fill="#C4CFD7"/>
<path d="M165.51 90.3901C166.16 89.0601 166.66 87.7401 166.74 86.1901C166.86 83.9001 166.04 82.5001 163.94 81.5501C156.45 78.1701 148.66 76.3501 140.41 76.6301C140.87 74.7901 142.58 75.7201 143.66 75.2301C146.28 74.0201 149.13 73.5701 151.97 73.0001C155.88 72.2101 159.75 71.7201 163.66 72.0301C176.59 73.0501 188.29 76.8501 196.89 87.3201C197.29 87.8001 197.56 88.2201 197.71 88.7801C193.19 89.0801 188.68 89.4301 184.16 89.6501C177.94 89.9501 171.72 90.1501 165.5 90.3901H165.51Z" fill="#9D6249"/>
<path d="M182.07 222.1C177.41 221.27 172.87 220.13 168.66 217.85C164.54 215.63 161.62 212.24 158.99 208.53C157.99 207.12 158.28 206.13 160.11 205.9C162.15 205.64 164.19 205.35 166.24 205.23C171.23 204.93 176.15 203.85 181.17 203.91C181.7 205.79 182.21 207.67 182.14 209.65C183.73 213.81 183.99 217.96 182.07 222.1Z" fill="#BC9375"/>
<path d="M153.03 207.54C154.1 209.27 153.93 211.38 153.37 212.92C151.58 217.78 153.6 222.41 153.63 227.13C153.63 227.73 153.76 228.25 154.42 228.57C158.4 230.49 162.27 232.69 166.71 233.45C167.24 234.13 166.97 234.72 166.54 235.32C164.7 237.87 162.94 240.49 161.03 242.99C159.83 244.56 158.8 244.6 157.5 243.06C155.65 240.87 154.21 238.4 152.53 236.09C149.41 231.79 146.44 227.38 143.35 223.06C142.77 222.25 142.23 221.44 142.25 220.38C143.32 217.26 145.89 215.46 148.67 214.45C152.2 213.17 153.59 211.11 153.02 207.54H153.03Z" fill="#D7ECF9"/>
<path d="M182.07 222.1C182.09 217.95 182.12 213.8 182.14 209.65C185.47 210.02 188.62 210.83 191.14 213.24C191.9 214.41 191.38 215.46 190.92 216.58C187.88 224.14 184.74 231.66 181.78 239.26C181.35 240.36 180.96 241.62 179.6 241.82C178.26 242.01 177.8 240.77 177.28 239.87C176.03 237.74 173.68 236.18 173.76 233.33C174.07 231.7 175.77 231.91 176.74 231.41C180.65 229.39 182.53 226.49 182.07 222.11V222.1Z" fill="#D8EBF9"/>
<path d="M393.99 212.15C393.59 211.77 393.19 211.38 392.79 211C392.85 208.2 392.9 205.41 392.96 202.61C397.42 203.18 401.73 204.53 406.29 204.68C408.23 204.74 410.21 204.81 412.16 204.97C412.79 205.02 413.76 204.64 413.94 205.52C414.15 206.59 413.09 206.63 412.37 206.84C407.28 208.3 402.19 209.75 397.1 211.21C396.06 211.51 395.04 211.84 394 212.16L393.99 212.15Z" fill="#573B2C"/>
<path d="M173.76 233.32C175.61 236.06 177.45 238.81 179.68 242.12C181.23 238.33 182.63 235.12 183.84 231.85C186.16 225.6 189.33 219.68 191.14 213.23C191.72 213.66 192.3 214.09 192.88 214.52C189.08 222.52 186.23 230.91 182.75 239.05C181.91 241 181.44 243.16 179.85 244.74C177.06 240.82 174.26 236.9 171.47 232.98C172.46 231.63 172.9 233.86 173.77 233.33L173.76 233.32Z" fill="#A1C8E2"/>
<path d="M142.26 220.39C147.52 227.74 152.85 235.05 158 242.47C159.21 244.21 159.57 243.82 160.53 242.36C162.52 239.35 165.05 236.7 166.71 233.45C167.33 233.45 167.95 233.44 168.57 233.43C165.78 238.12 162.59 242.52 159.03 246.66C153.63 239.05 148.23 231.44 142.84 223.82C142.34 223.11 141.6 222.5 141.68 221.5C141.68 221.03 141.77 220.61 142.26 220.39Z" fill="#A2C7E1"/>
<path d="M213.71 249.44C211.01 251.07 208.24 251.07 205.61 251.44C201.15 252.08 196.67 252.54 192.19 253C191.42 253.08 190.12 253.41 190.11 252.09C190.11 250.99 191.27 251.28 192 251.27C198.1 251.17 204.1 250.26 210.06 249C211.14 248.77 212.33 248.59 213.71 249.43V249.44Z" fill="#A1C8E2"/>
<path d="M389.21 142.09C388.54 143.3 387.59 143.82 386.11 143.86C380.25 144.01 374.7 142.83 369.4 140.39C363.19 137.53 361.94 132.95 366.52 127.95C371.49 122.52 378.04 120.22 385.38 120C388.18 119.91 386.83 122.61 388.06 123.52C391.04 127.04 391.73 138.27 389.2 142.1L389.21 142.09Z" fill="#020202"/>
<path d="M416.76 160.72C416.8 169.48 410.46 176.81 402.4 177.67C393.36 178.63 385.3 173.11 383.46 164.69C383.36 164.21 383.31 163.72 383.28 163.22C383.17 161.59 383.55 160.2 385.39 159.85C387.27 159.49 388.2 160.74 388.54 162.27C389.12 164.94 390.05 167.37 392.1 169.26C396.05 172.9 401.95 173.36 406.33 170.36C410.8 167.31 412.54 161.79 410.64 156.77C409.9 154.83 408.14 152.72 411.11 151.19C412.94 150.25 414.58 151.81 415.84 155.28C416.53 157.17 416.87 159.08 416.76 160.72Z" fill="#E9ABBB"/>
<path d="M389.21 142.09C390.42 135.8 389.35 129.65 388.07 123.51C387.63 120.95 388.43 120.05 391.2 120.6C395.31 121.43 399.28 122.54 402.79 124.85C406.76 127.46 407.53 130.52 405.02 134.45C401.67 139.7 396.45 142.1 390.51 143.21C389.53 143.39 389.34 142.8 389.21 142.08V142.09Z" fill="#F7F2F0"/>
<path d="M412.06 181.22C413.86 181.2 414.56 181.62 413.96 183.17C412.21 187.76 410.56 192.38 408.79 196.96C408.09 198.78 406.91 198.94 405.78 197.33C403.58 194.19 401.47 190.99 399.31 187.82C398.73 186.96 398.58 186 399.66 185.6C403.89 184.03 408.17 182.58 412.06 181.22Z" fill="#D2BCB3"/>
<path d="M410.65 114.01C410.69 114.85 410.56 115.31 410.04 115.55C409.34 115.88 408.92 115.41 408.55 114.95C407.2 113.25 405.94 111.51 404.22 110.12C396.18 103.65 387.73 103.63 379.74 110.15C378.96 110.78 378.07 111.74 377.2 110.84C376.07 109.67 377.47 108.95 378.18 108.26C385.26 101.31 397.62 101.2 405.45 108.03C406.86 109.26 408.15 110.64 409.41 112.03C409.98 112.67 410.33 113.51 410.64 114.02L410.65 114.01Z" fill="#D2BBB1"/>
<path d="M479.16 141.53C479.16 140.15 479.2 138.76 479.16 137.38C479.1 135.44 480.4 135.01 481.66 135.73C483.71 136.91 485.48 138.53 485.73 141.2C485.97 143.8 484.68 145.6 482.72 146.93C480.86 148.2 479.26 147.3 479.18 145.09C479.14 143.9 479.18 142.72 479.18 141.53H479.16Z" fill="#734B37"/>
<path d="M163.07 133.69C165.27 131.8 168.05 131.88 170.63 131.86C176.85 131.81 182.89 132.66 187.47 137.52C190.49 140.72 190.4 143.74 187.21 146.8C182.33 151.48 176.53 154.43 169.9 155.74C169.04 155.91 168.18 156.27 167.31 155.74C165.8 155.18 165.48 153.75 165.04 152.48C163.08 146.83 162.8 140.93 162.56 135.04C162.54 134.54 162.78 134.09 163.08 133.69H163.07Z" fill="#020202"/>
<path d="M163.07 133.69C163.87 138.42 163.68 143.27 164.74 147.99C165.34 150.68 166.27 153.22 167.31 155.75C162.14 157.66 150.91 154.73 148.45 149.31C147.22 146.6 147.21 144 149.34 141.82C153.19 137.9 157.49 134.72 163.06 133.7L163.07 133.69Z" fill="#F7F3F1"/>
<path d="M194.13 171.39C194.34 169.65 193.91 168.08 192.98 166.6C192.12 165.22 191.86 163.69 193.44 162.68C195.25 161.52 196.42 162.87 197.35 164.18C200.25 168.25 200.11 174.84 197.11 178.95C192.34 185.49 184.52 187.36 177.45 183.47C173.89 181.51 171.69 178.46 171.43 174.27C171.36 173.13 171.18 171.79 172.98 171.63C174.59 171.49 175.58 172.12 176.14 173.66C178.6 180.39 184.44 182.37 190.51 178.59C193.18 176.92 194.47 174.55 194.13 171.39Z" fill="#EA5C75"/>
<path d="M189.89 115.57C189.85 116.51 189.35 117.09 188.39 116.78C187.66 116.55 187.01 116.03 186.37 115.57C176.51 108.5 163.14 111.03 156.55 121.25C155.91 122.24 155.33 123.7 153.92 122.78C152.6 121.91 153.57 120.72 154.17 119.69C160.8 108.27 178.19 105.09 188.36 113.48C189.03 114.03 189.87 114.49 189.91 115.57H189.89Z" fill="#764F3D"/>
<path d="M110.14 155.03C110.14 155.82 110.2 156.62 110.13 157.4C110.04 158.34 110.63 159.65 109.62 160.12C108.53 160.62 107.32 159.94 106.35 159.26C102.49 156.58 102.68 151.74 106.7 149.69C109.17 148.43 110.09 148.99 110.14 151.77C110.16 152.86 110.14 153.94 110.14 155.03Z" fill="#CA9A79"/>
<path d="M142.93 156.42C143.53 156.37 143.86 156.75 143.98 157.24C144.09 157.7 144.13 158.29 143.47 158.39C142.9 158.48 142.55 158.03 142.4 157.56C142.24 157.08 142.31 156.58 142.94 156.41L142.93 156.42Z" fill="#E57C4B"/>
<path d="M386.52 140.43C385.3 137.31 386.07 134.06 386.02 130.84C387.76 133.9 387.21 137.15 386.52 140.43Z" fill="#CCC9C9"/>
<path d="M386.09 129.03C384.85 127.14 384.41 125.87 384.82 124.1C386.4 125.35 386.55 126.72 386.09 129.03Z" fill="#B7B5B5"/>
<path d="M167.03 142.88C168.09 146.09 169.33 149.22 169.27 152.66C167.28 149.7 166.91 146.33 167.03 142.88Z" fill="#F3F0EF"/>
<path d="M166.71 140.75C165.78 139.42 166.15 138.07 166.44 136.72C167.72 137.99 167.3 139.37 166.71 140.75Z" fill="#F1F0F0"/>
</g>
<defs>
<clipPath id="clip0_5114_42145">
<rect width="595.28" height="286.92" fill="white"/>
</clipPath>
</defs>
</svg>
