<svg width="595" height="297" viewBox="0 0 595 297" fill="none" xmlns="http://www.w3.org/2000/svg">
<g clip-path="url(#clip0_5484_43245)">
<rect width="595" height="297" fill="#4786FF"/>
<path d="M207.262 213.402C233.784 219.533 258.865 241.919 262.907 272.471C263.912 279.993 263.551 287.412 262.161 294.857C261.826 296.635 261.285 297.382 259.251 297.382C211.433 297.304 163.59 297.304 115.772 297.382C112.347 297.382 111.961 295.295 111.523 292.925C108.845 278.293 110.622 264.253 117.549 251.064C127.926 231.28 144.354 219.069 165.804 213.402C167.323 213.479 167.169 214.715 167.272 215.643C167.529 217.678 167.967 219.662 167.967 221.722C167.967 225.046 169.821 227.003 172.885 227.931C180.482 230.249 188.129 230.507 195.854 228.729C204.3 226.334 204.017 227.081 203.914 219.043C203.914 217.626 204.275 216.235 204.584 214.844C204.918 213.376 205.742 212.758 207.236 213.402H207.262Z" fill="#030404"/>
<path d="M378.266 211.006C378.241 209.873 378.163 208.765 378.163 207.631C378.163 202.969 378.163 202.711 373.4 203.097C366.215 203.69 359.057 203.484 351.873 203.587C349.529 203.613 347.444 202.866 345.461 201.732C343.452 200.599 342.319 198.847 342.345 196.451C342.345 193.489 342.345 190.5 342.371 187.538C340.645 184.885 341.238 181.896 341.495 179.14C342.345 170.716 342.01 162.292 341.959 153.869C341.882 142.56 342.268 131.277 342.654 119.993C342.808 115.459 341.753 111.003 342.01 106.469C342.113 104.614 342.191 102.759 343.504 101.265C345.023 99.7712 346.774 100.312 348.422 100.827C358.053 103.919 367.992 105.335 377.983 106.752C388.335 108.221 398.66 108.556 409.012 108.246C419.981 107.937 430.976 107.293 441.585 103.816C445.577 102.502 449.207 100.802 452.169 97.7876C454.357 96.989 456.495 96.9117 458.555 98.174C461.49 101.162 460.64 104.923 460.331 108.375C459.971 112.265 460.048 116.155 459.868 120.019C459.765 122.415 460.563 123.703 462.906 124.605C468.185 126.614 471.301 130.633 472.511 136.12C473.361 139.984 471.146 146.707 466.331 148.304C465.25 148.407 464.426 147.712 463.473 147.403C461.851 146.836 460.254 146.862 458.941 148.098C457.576 149.386 457.164 150.983 457.782 152.813C458.091 153.766 458.529 154.693 458.606 155.723C459.353 164.662 457.963 173.55 458.091 182.463C458.091 183.39 457.885 184.292 457.19 185.013C456.855 188.697 457.859 192.329 457.808 196.013C457.756 200.676 456.109 202.788 451.474 202.917C441.56 203.149 431.672 202.969 421.758 202.994C416.557 202.994 416.994 202.299 417.123 207.812C417.2 211.341 416.454 214.922 417.715 218.399C419.003 222.907 419.621 227.364 417.02 231.666C405.639 237.591 394.051 237.308 382.36 232.748C381.459 232.387 380.738 231.872 380.481 230.893C380.738 229.09 382.335 229.167 383.519 228.858C386.79 228.008 390.06 227.158 393.176 225.767C401.699 222.032 408.008 215.952 412.102 207.631C413.647 204.489 413.261 203.793 409.913 203.793C400.978 203.767 392.043 203.767 383.133 203.793C379.863 203.793 379.837 203.948 379.631 207.322C379.554 208.61 380.198 210.31 378.292 210.98L378.266 211.006Z" fill="#F3CDB1"/>
<path d="M196.086 229.502C187.64 231.589 179.271 231.177 171.109 228.214C168.559 227.287 167.04 225.277 167.014 222.315C166.989 219.301 166.834 216.261 165.778 213.376C166.86 211.65 166.087 209.769 166.242 207.966C166.345 206.807 165.624 206.627 164.671 206.652C163.641 206.678 162.585 206.472 161.581 206.678C155.581 207.94 152.543 204.978 149.916 199.877C144.818 189.934 139.024 180.376 133.591 170.613C132.612 168.861 131.711 168.14 129.574 168.939C126.561 170.072 123.368 170.046 120.175 169.274C114.871 167.96 110.931 165.049 109.875 159.51C108.794 153.92 111.394 149.464 116.004 146.733C118.939 144.981 118.347 143.77 117.034 141.529C111.703 132.41 106.528 123.188 101.3 114.017C100.863 113.244 100.476 112.42 100.064 111.57C100.811 110.822 101.661 111.029 102.408 111.029C111.24 110.951 120.098 110.926 128.93 110.822C129.986 110.822 131.66 111.492 131.273 109.251C131.737 109.148 132.072 109.328 132.303 109.715C136.526 116.387 143.067 118.448 150.457 118.86C156.508 119.195 162.354 118.293 167.967 116.078C169.641 115.434 171.109 115.588 172.705 116.335C182.979 121.127 193.202 120.56 203.27 115.691C204.815 114.944 206.154 114.867 207.622 115.717C214.703 119.813 221.604 118.783 228.377 114.918C230.282 113.811 231.801 112.342 232.728 110.282C233.037 109.586 233.14 108.607 234.248 108.633C234.351 110.591 235.87 109.792 236.771 109.792C244.264 109.792 251.758 109.689 259.251 109.586C263.886 109.534 263.86 109.509 262.032 113.605C248.153 144.492 232.548 174.503 217.536 204.823C216.841 206.214 216.068 206.755 214.497 206.678C211.845 206.524 209.167 206.575 206.489 206.549C203.863 207.477 201.159 207.528 198.404 207.502C190.086 207.451 181.795 207.451 173.478 207.502C170.207 207.502 169.847 208.25 171.495 211.083C173.684 214.819 176.928 217.472 180.404 219.868C184.37 222.624 188.541 225.02 193.022 226.9C194.258 227.416 195.932 227.596 196.035 229.476L196.086 229.502Z" fill="#634731"/>
<path d="M458.4 98.5862C456.392 97.8391 454.332 98.071 452.272 98.174C451.937 97.5815 451.963 96.9633 452.195 96.3965C452.684 95.16 452.195 94.7736 450.984 94.6963C444.959 94.3099 438.959 93.7174 432.856 93.8205C426.084 93.9235 419.312 93.2537 412.565 92.6355C404.789 91.9399 396.987 91.5278 389.21 91.0383C375.588 90.1624 361.915 90.1624 348.293 88.7456C345.023 88.4107 341.727 88.488 338.457 87.9728C337.35 87.8182 336.165 87.9728 335.367 86.9166C334.285 71.5117 340.646 59.3269 352.001 49.5378C364.284 38.9759 378.781 34.4162 394.875 33.9268C413.055 33.3601 429.354 38.3834 443.568 49.6924C454.512 58.3995 461.207 69.7342 462.598 83.7995C462.958 87.4318 462.34 91.1671 462.16 94.8509C462.005 97.7619 461.387 98.3801 458.4 98.612V98.5862Z" fill="#FCBF00"/>
<path d="M234.274 108.633C232.445 117.804 215.914 122.209 207.828 116.799C206.129 115.666 204.996 115.846 203.193 116.696C193.151 121.462 182.902 122.029 172.654 117.237C171.057 116.49 169.821 116.258 168.096 116.928C160.577 119.916 152.775 120.715 144.844 119.04C140.904 118.216 137.325 116.387 134.183 113.759C132.716 112.523 132.149 110.848 131.299 109.277C130.115 107.628 130.269 105.799 130.527 103.945C131.66 95.6496 139.642 88.8745 147.985 89.364C149.659 89.467 150.535 88.8745 151.59 87.7668C157.358 81.7388 164.079 78.5187 172.577 81.2751C173.916 81.7131 174.688 81.1978 175.564 80.3993C182.825 73.7272 199.563 73.4181 204.944 84.7013C205.743 86.4015 206.876 85.6029 208.034 85.2938C220.06 82.3056 232.832 90.4202 234.711 102.219C235.046 104.408 234.84 106.521 234.299 108.607L234.274 108.633Z" fill="#020202"/>
<path d="M439.319 221.8C448.383 223.526 456.958 226.772 465.456 230.301C467.361 231.074 467.876 232.8 468.237 234.448C469.833 241.97 471.378 249.467 471.584 257.221C471.919 269.122 471.352 280.998 470.734 292.874C470.503 297.356 470.477 297.356 466.151 297.33C458.452 297.304 450.727 297.253 443.027 297.227C442.152 296.48 442.1 295.424 442.229 294.445C442.538 291.946 441.508 290.22 439.448 288.958C438.882 287.284 438.882 285.609 439.448 283.909C443.027 281.925 443.079 278.705 442.821 275.15C442.59 271.904 441.869 268.71 442.1 265.438C442.281 262.94 439.577 263.094 438.701 261.574C438.238 260.286 438.289 258.947 438.289 257.607C438.289 247.226 438.289 236.87 438.289 226.488C438.289 224.891 437.98 223.165 439.294 221.826L439.319 221.8Z" fill="#252857"/>
<path d="M351.589 297.304C344.611 297.304 337.607 297.33 330.629 297.33C329.444 297.33 328.286 297.665 328.131 295.656C327.256 283.78 326.921 271.879 328.26 260.054C329.213 251.631 329.934 243.13 331.839 234.835C332.715 230.996 334.491 228.549 338.689 227.235C345.409 225.123 351.976 222.573 358.98 221.516C360.834 224.453 360.164 227.75 359.855 230.764C359.16 237.72 359.495 244.649 359.392 251.605C359.34 254.98 359.005 258.328 358.336 261.626C357.692 262.914 356.508 262.708 355.4 262.63C353.83 262.527 353.212 263.326 353.109 264.794C352.8 269.277 352.491 273.733 351.589 278.138C351.203 280.07 351.976 281.255 353.855 281.874C355.194 282.312 356.662 282.595 357.563 283.857C358.233 285.583 358.259 287.309 357.563 289.035C353.984 289.422 352.439 291.354 352.903 294.96C353.031 295.913 352.31 296.66 351.589 297.253V297.304Z" fill="#252857"/>
<path d="M335.342 86.9167C345.745 87.4577 356.097 88.4366 366.5 89.0033C375.178 89.467 383.855 89.4413 392.533 90.1368C402.292 90.9096 412.026 91.9916 421.785 92.4295C426.214 92.6356 430.669 93.1251 435.175 92.7386C439.501 92.378 443.956 92.919 448.282 93.5372C450.496 93.8464 452.762 93.3569 455.44 94.2843C453.509 95.1859 452.608 96.5255 452.247 98.1999C450.522 101.806 447.02 102.966 443.698 104.099C434.866 107.165 425.648 108.144 416.352 108.813C409.09 109.354 401.855 109.045 394.593 109.122C385.864 109.2 377.315 107.448 368.663 106.443C360.346 105.464 352.492 102.631 344.329 101.059C340.801 99.6425 336.939 98.8697 334.312 95.7526C332.69 94.6707 331.454 93.1766 330.398 91.6052C329.626 90.4459 329.214 89.0033 329.935 87.6123C330.707 86.1954 332.046 86.8137 333.205 86.8652C333.9 86.891 334.621 86.9167 335.317 86.9425L335.342 86.9167Z" fill="#FAB700"/>
<path d="M334.338 95.7269C337.48 97.8908 341.394 98.5349 344.355 101.034C342.295 103.867 342.681 107.216 343.042 110.256C343.737 116.104 343.634 121.951 343.402 127.799C342.887 140.422 343.093 153.07 342.887 165.693C342.784 172.983 342.552 180.274 342.372 187.564C337.068 187.332 331.712 188.131 326.407 186.971C323.24 186.276 321.489 184.267 321.026 180.943C319.738 171.85 320.407 162.782 321.206 153.689C321.824 146.553 322.081 139.417 323.137 132.307C324.888 120.328 329.06 109.123 333.669 98.0196C333.978 97.2726 334.544 96.6028 334.338 95.7012V95.7269Z" fill="#EB5E0C"/>
<path d="M416.737 231.306C418.54 228.266 417.407 224.943 417.638 221.748C417.716 220.641 417.69 219.507 417.69 218.399C419.93 218.657 422.196 218.94 424.436 219.198C425.26 219.971 425.338 221.001 425.26 222.032C424.153 235.195 425.054 248.385 424.745 261.549C424.72 262.965 424.926 264.434 424.205 265.748C421.836 268.092 418.694 267.68 415.81 267.963C402.291 269.328 388.85 268.375 375.408 266.778C373.683 266.572 371.906 266.495 370.49 265.284C369.1 261.008 369.563 256.525 369.975 252.249C370.542 246.324 370.284 240.425 370.413 234.526C370.49 230.945 370.464 227.39 370.413 223.809C370.413 222.109 370.748 220.563 371.829 219.224C373.941 218.94 376.026 218.683 378.138 218.399C379.863 221.439 378.807 224.711 378.91 227.879C378.524 229.167 378.988 230.249 379.606 231.357C385.065 241.455 390.472 251.579 396.034 261.652C396.523 262.528 396.832 263.713 398.068 263.738C399.304 263.738 399.613 262.528 400.077 261.652C404.763 252.635 409.579 243.696 414.214 234.68C414.857 233.418 415.347 232.027 416.737 231.28V231.306Z" fill="#EB5E0C"/>
<path d="M458.401 98.5863C460.487 98.1741 461.594 96.783 462.161 94.8252C467.079 101.858 469.5 109.972 471.92 118.036C476.504 133.415 479.491 149.077 480.237 165.152C480.469 169.789 480.186 174.349 480.031 178.96C479.877 183.21 478.126 184.807 473.233 185.065C467.903 185.323 462.547 185.426 457.217 185.065C457.474 175.044 457.732 165.023 457.989 155.002C458.839 154.642 459.56 155.234 460.307 155.414C464.041 156.368 466.693 153.817 465.946 150.005C465.817 149.335 465.38 148.665 465.895 147.995C470.169 145.6 472.281 141.839 471.791 137.073C471.173 131.148 467.697 127.052 462.032 125.249C459.637 124.476 458.865 123.471 459.045 121.024C459.431 115.408 459.483 109.792 459.74 104.176C459.843 102.167 459.612 100.312 458.427 98.6378L458.401 98.5863Z" fill="#EB5E0D"/>
<path d="M378.164 228.781C378.164 225.329 378.164 221.903 378.164 218.451C378.19 215.978 378.216 213.479 378.267 211.006C379.246 209.177 378.757 207.168 378.731 205.287C378.679 203.278 379.581 202.917 381.332 202.943C391.503 202.994 401.674 202.994 411.82 202.969C414.06 202.969 414.832 203.561 413.828 205.88C408.627 218.039 399.46 225.484 386.816 228.884C384.756 229.425 382.696 230.017 380.636 230.558C379.014 231.074 378.602 229.889 378.139 228.781H378.164Z" fill="#CE9E7A"/>
<path d="M439.32 221.8C439.372 235.273 439.398 248.72 439.449 262.193C439.398 263.197 438.625 263.506 437.904 263.867C434.479 265.542 430.771 266.083 427.012 266.314C426.291 266.366 425.596 266.211 425.209 265.464C424.72 264.408 424.797 263.249 424.797 262.141C424.797 251.064 424.694 239.987 424.849 228.91C424.9 225.793 424.772 222.573 426.317 219.636C430.72 219.919 435.046 220.847 439.346 221.826L439.32 221.8Z" fill="#EB5E0C"/>
<path d="M196.086 229.502C190.627 226.514 184.782 224.221 179.735 220.46C175.924 217.627 172.216 214.741 170.13 210.311C168.611 207.116 168.92 206.678 172.499 206.678C182.078 206.678 191.632 206.575 201.211 206.73C203.013 206.756 204.764 205.622 206.541 206.575C206.386 206.678 206.206 206.704 206.026 206.704C205.176 207.657 206.026 208.919 205.408 209.898C205.459 211.367 205.228 212.99 207.262 213.428C206.18 213.505 205.459 213.737 205.279 215.128C204.919 217.833 204.481 220.538 204.764 223.268C205.022 225.947 204.043 227.519 201.365 228.085C199.588 228.472 197.863 229.013 196.112 229.502H196.086Z" fill="#3F2A1B"/>
<path d="M357.77 262.296C358.182 248.694 358.594 235.118 359.006 221.517C362.533 220.538 366.113 219.919 369.743 219.636C370.619 220.795 370.439 222.161 370.439 223.474C370.439 230.842 370.851 238.261 370.31 245.577C369.846 251.785 370.336 258.045 369.383 264.228C369.203 264.485 369.074 264.769 368.791 264.898C366.241 265.954 359.804 264.434 357.77 262.27V262.296Z" fill="#EB5E0D"/>
<path d="M351.59 297.304C352.156 295.553 352.182 293.724 352.259 291.92C352.362 288.546 352.749 288.237 355.993 289.164C356.379 289.267 356.791 289.267 357.178 289.293C359.521 288.623 361.581 289.885 363.77 290.297C365.289 290.581 366.782 290.916 368.302 291.122C369.151 291.251 369.975 291.611 370.851 291.508C381.202 292.667 391.58 294.033 402.008 293.904C408.935 293.801 415.888 293.492 422.763 292.358C423.458 292.255 424.153 292.178 424.874 292.178C429.252 291.508 433.732 291.199 437.852 289.293C438.496 289.009 439.217 288.881 439.938 289.112C442.024 288.829 442.874 289.937 442.951 291.843C443.028 293.646 443.028 295.45 443.08 297.253C431.286 297.279 419.493 297.356 407.699 297.356C391.09 297.356 374.482 297.356 357.847 297.356C356.791 296.583 355.401 296.068 355.761 294.342C355.916 293.698 356.894 293.286 356.276 292.461C356.148 292.281 355.916 292.255 355.736 292.358C354.809 292.899 355.427 293.595 355.53 294.265C355.581 295.785 354.422 296.506 353.47 297.356C352.852 297.356 352.234 297.356 351.616 297.356L351.59 297.304Z" fill="#D3D2D3"/>
<path d="M426.291 219.584C425.339 234.912 425.776 250.24 425.751 265.567C425.21 266.52 424.566 266.34 423.845 265.773C424.077 250.24 423.253 234.706 424.437 219.198C425.055 219.327 425.673 219.456 426.291 219.584V219.584Z" fill="#272857"/>
<path d="M368.869 264.666C369.152 249.647 369.461 234.629 369.745 219.636C370.466 219.507 371.161 219.378 371.882 219.25C371.315 222.186 371.341 225.174 371.418 228.137C371.83 240.451 370.543 252.738 370.8 265.052C369.976 265.825 369.281 265.954 368.869 264.666V264.666Z" fill="#272857"/>
<path d="M355.992 294.264C356.61 295.295 357.203 296.3 357.821 297.33C356.379 297.33 354.911 297.33 353.469 297.33C353.469 295.939 354.911 295.424 355.323 294.29C355.555 294.136 355.786 294.136 355.992 294.29V294.264Z" fill="#F4E9EA"/>
<path d="M205.407 209.873C205.355 208.765 204.815 207.554 206.025 206.678C205.819 207.734 205.613 208.816 205.407 209.873Z" fill="#634731"/>
<path d="M378.164 228.781C378.988 229.374 379.812 229.966 380.661 230.559C382.309 232.8 385.09 232.8 387.331 233.598C393.536 235.762 399.948 235.582 406.411 234.5C410.042 233.882 413.364 232.542 416.763 231.331C411.149 242.099 405.562 252.893 399.897 263.635C398.764 265.799 397.322 265.799 396.163 263.687C390.06 252.481 384.009 241.249 377.932 230.043C377.649 229.502 377.571 229.116 378.164 228.807V228.781Z" fill="#252857"/>
<path d="M386.611 155.981C380.353 154.874 374.096 153.714 368.611 150.159C366.526 148.794 364.517 147.403 362.946 145.471C359.264 140.989 360.14 135.965 365.109 132.951C366.32 132.204 367.581 131.534 368.817 130.839C369.77 129.989 370.877 129.937 372.036 130.169C372.654 130.169 373.272 130.143 373.864 130.117C374.817 129.345 375.899 129.345 377.032 129.525C377.804 130.246 378.551 130.143 379.272 129.499C380.405 129.345 381.512 129.319 382.491 130.092C383.186 130.452 383.727 130.04 384.242 129.654C385.478 129.499 386.482 129.989 387.409 130.736C388.13 131.199 388.928 131.328 389.752 131.277C390.653 130.916 391.503 130.71 391.889 131.972C389.417 136.455 390.01 141.555 388.98 146.321C388.516 148.511 388.362 150.778 387.975 153.019C387.795 154.101 387.718 155.286 386.585 155.981H386.611Z" fill="#2D69B2"/>
<path d="M386.609 155.981C387.691 148.614 388.824 141.246 389.854 133.878C390.034 132.539 390.343 131.74 391.837 131.972C392.146 131.843 392.377 131.972 392.506 132.256C393.176 132.874 393.974 132.616 394.746 132.642C396.008 132.487 397.064 132.9 397.939 133.775L399.304 134.368C400.514 134.291 401.441 134.651 401.828 135.939L404.016 136.918C405.227 137.176 406.282 137.665 406.694 138.979C407.081 139.443 407.467 139.932 407.853 140.396C412.128 145.162 411.098 150.984 405.355 153.946C402.111 155.621 398.583 156.187 394.927 156.136C392.146 156.11 389.39 156.033 386.609 156.007V155.981Z" fill="#F9F3F0"/>
<path d="M414.729 186.997C406.823 186.997 399.485 181.845 397.038 174.477C396.369 172.494 395.88 170.149 398.429 169.196C400.901 168.269 402.111 169.995 402.961 172.159C404.532 176.229 407.364 179.011 411.613 180.273C415.244 181.355 418.488 180.737 421.321 178.161C424.205 175.533 424.282 172.236 423.638 168.784C423.432 167.702 422.943 166.62 422.376 165.667C421.192 163.735 420.445 161.674 422.685 160.257C425.157 158.686 426.805 160.644 427.887 162.55C431.106 168.192 431.492 174.014 428.119 179.758C425.132 184.807 420.497 186.997 414.754 187.023L414.729 186.997Z" fill="#C76C97"/>
<path d="M376.929 111.75C385.915 112.317 394.928 112.858 403.915 113.424C405.691 113.527 407.314 113.991 407.159 116.207C407.005 118.242 405.408 118.551 403.76 118.448C394.361 117.855 384.963 117.237 375.538 116.619C373.813 116.516 372.371 115.872 372.603 113.862C372.912 111.209 375.075 111.647 376.903 111.724L376.929 111.75Z" fill="#EB5E0D"/>
<path d="M465.869 147.969C467.363 150.52 467.646 153.019 465.2 155.157C462.779 157.243 460.333 156.754 457.964 154.976C456.058 151.756 456.11 149.489 458.17 147.506C460.127 145.625 462.805 145.78 465.869 147.944V147.969Z" fill="#FCBF00"/>
<path d="M459.636 137.768C459.636 137.15 459.559 136.532 459.636 135.939C459.791 134.909 458.992 133.415 460.28 132.9C461.49 132.436 462.572 133.466 463.473 134.316C466.177 136.918 465.456 141.092 462.005 142.792C460.589 143.487 459.816 142.869 459.662 141.452C459.533 140.241 459.662 139.005 459.662 137.768C459.662 137.768 459.662 137.768 459.636 137.768V137.768Z" fill="#CE9E7A"/>
<path d="M406.67 138.979C405.64 138.464 404.713 137.846 403.992 136.918C405.511 134.497 407.056 132.075 408.524 129.628C409.271 128.366 410.301 127.722 411.537 128.572C412.773 129.396 412.103 130.581 411.485 131.56C409.889 134.059 408.267 136.532 406.644 139.005L406.67 138.979Z" fill="#273A78"/>
<path d="M392.507 132.23C392.275 132.127 392.069 132.049 391.838 131.946C391.297 131.277 390.473 131.38 389.752 131.277C390.499 128.34 391.194 125.377 392.044 122.466C392.327 121.462 393.099 120.612 394.361 121.05C395.417 121.41 395.726 122.389 395.391 123.317C394.335 126.253 394.31 129.525 392.507 132.204V132.23Z" fill="#283B78"/>
<path d="M387.407 130.736C386.197 130.839 385.116 130.555 384.24 129.654C384.858 127.078 385.528 124.527 386.094 121.951C386.377 120.663 386.995 119.787 388.386 120.174C389.751 120.534 389.545 121.771 389.339 122.724C388.772 125.403 388.051 128.057 387.407 130.736Z" fill="#273A78"/>
<path d="M401.803 135.939C400.953 135.424 400.129 134.909 399.279 134.368C400.515 132.024 401.7 129.654 402.962 127.309C403.528 126.253 404.352 125.352 405.665 125.996C407.03 126.64 406.747 127.799 406.155 128.881C404.841 131.302 403.683 133.853 401.803 135.939V135.939Z" fill="#273A77"/>
<path d="M382.49 130.092C381.383 130.092 380.224 130.452 379.271 129.499C379.503 126.949 379.735 124.398 379.941 121.848C380.044 120.663 380.507 119.787 381.769 119.865C383.108 119.942 383.314 121.075 383.237 122.132C383.031 124.785 382.722 127.438 382.464 130.066L382.49 130.092Z" fill="#273A78"/>
<path d="M397.914 133.775C396.755 133.672 395.673 133.312 394.721 132.642C395.596 129.963 396.472 127.258 397.373 124.579C397.733 123.574 398.557 123.136 399.587 123.471C400.669 123.858 400.901 124.914 400.489 125.738C399.175 128.288 398.995 131.174 397.939 133.75L397.914 133.775Z" fill="#273B78"/>
<path d="M372.035 130.143C371.108 131.096 369.923 130.787 368.816 130.813C368.636 128.469 368.481 126.125 368.301 123.78C368.224 122.647 368.018 121.204 369.511 121.101C370.773 120.998 371.494 121.9 371.649 123.445C371.88 125.687 372.061 127.928 372.061 130.195L372.035 130.143Z" fill="#273A78"/>
<path d="M377.031 129.525C376.104 130.452 374.945 130.092 373.863 130.117C373.863 127.644 373.863 125.197 373.863 122.724C373.863 121.488 374.121 120.328 375.614 120.354C377.134 120.354 377.365 121.642 377.365 122.776C377.365 125.043 377.159 127.284 377.056 129.551L377.031 129.525Z" fill="#293B78"/>
<path d="M413.957 150.03C413.7 150.571 413.494 151.061 412.876 150.983C412.747 150.983 412.567 150.546 412.592 150.339C412.695 149.876 412.747 149.258 413.468 149.438C413.674 149.489 413.803 149.85 413.957 150.03V150.03Z" fill="#EC681C"/>
<path d="M359.625 153.869C359.547 154.049 359.444 154.307 359.341 154.59C359.058 154.332 358.697 154.126 358.517 153.817C358.44 153.688 358.672 153.173 358.852 153.122C359.29 152.993 359.573 153.276 359.625 153.869Z" fill="#EC6414"/>
<path d="M367.013 154.796C366.936 155.337 366.704 155.672 366.267 155.646C366.112 155.646 365.88 155.26 365.855 155.028C365.829 154.616 365.958 154.204 366.498 154.332C366.704 154.384 366.859 154.667 367.013 154.796V154.796Z" fill="#EC661C"/>
<path d="M419.416 147.892C419.467 148.536 419.081 148.717 418.669 148.717C418.411 148.717 418.154 148.511 417.896 148.407C418.18 148.15 418.411 147.789 418.746 147.635C418.901 147.557 419.21 147.815 419.39 147.892H419.416Z" fill="#EC6716"/>
<path d="M194.85 138.206C203.605 136.635 211.793 137.82 218.617 143.874C222.582 147.377 222.402 152.22 218.72 156.058C212.978 162.035 205.587 163.014 197.837 162.859C196.961 162.859 196.729 162.035 196.163 161.648C194.644 160.773 194.412 159.201 194.103 157.707C192.918 152.349 193.305 146.913 193.433 141.504C193.459 140.241 193.923 139.108 194.85 138.206Z" fill="#010101"/>
<path d="M194.85 138.206C193.511 146.115 193.588 153.946 196.163 161.649C196.086 162.241 196.189 162.962 195.236 162.808C189.597 162.035 184.087 160.824 179.992 156.419C176.593 152.761 176.542 148.227 179.992 144.595C184.009 140.37 189.108 138.515 194.824 138.206H194.85Z" fill="#FBF2EC"/>
<path d="M162.637 177.672C162.534 175.43 162.688 173.395 164.053 171.695C164.8 170.768 165.65 170.046 166.937 170.536C168.405 171.077 168.791 172.416 168.276 173.55C166.062 178.547 167.787 182.334 171.855 185.297C176.413 188.62 181.46 189.212 186.713 187.049C189.777 185.76 191.683 183.494 191.786 180.016C191.837 178.316 192.301 176.718 194.232 176.744C196.318 176.77 196.73 178.522 196.756 180.299C196.807 185.323 192.842 190.5 187.177 192.226C179.503 194.571 172.525 192.999 166.705 187.409C163.95 184.782 162.225 181.536 162.637 177.672Z" fill="#DD0E26"/>
<path d="M192.07 128.34C182.877 128.881 174.379 131.354 167.118 137.253C166.062 138.103 164.929 138.799 163.899 137.64C162.689 136.274 163.822 135.244 164.878 134.342C170.826 129.267 177.907 126.743 185.426 125.3C188.13 124.785 190.885 124.373 193.666 124.63C195.263 124.785 197.348 124.45 197.271 126.872C197.194 129.19 195.16 128.134 193.924 128.314C193.331 128.417 192.688 128.314 192.07 128.314V128.34Z" fill="#030303"/>
<path d="M124.218 163.478C121.154 163.581 117.935 161.288 117.343 158.403C116.776 155.672 117.935 153.611 120.356 152.323C122.107 151.396 123.677 151.37 124.733 153.457C125.583 155.105 126.587 156.651 127.411 158.3C128.802 161.108 127.334 163.4 124.218 163.503V163.478Z" fill="#3F2B1B"/>
<path d="M368.868 264.666C369.434 265.207 370.104 265.181 370.799 265.052C387.742 267.68 404.712 268.53 421.784 266.314C422.479 266.211 423.174 265.954 423.87 265.773C424.513 265.696 425.131 265.645 425.775 265.567C430.513 265.129 435.251 264.691 439.474 262.167C441.689 261.471 442.796 262.373 442.95 264.614C443.337 269.895 443.723 275.202 444.135 280.483C444.212 281.462 443.8 282.028 442.976 282.415C441.946 282.904 440.942 283.368 439.912 283.832C438.212 285.583 435.869 285.506 433.732 286.021C431.08 286.64 428.35 287.052 425.672 287.541C424.771 287.696 423.87 287.696 422.968 287.747C411.046 289.19 399.124 289.396 387.15 288.623C381.64 288.262 376.129 287.979 370.67 287.129C369.949 287.077 369.228 287.052 368.507 286.871C365.855 286.305 363.151 285.892 360.473 285.326C359.263 285.068 358.104 284.811 357.254 283.832C350.585 281.513 350.611 281.539 351.486 274.352C351.873 271.209 352.104 268.04 352.285 264.872C352.491 261.265 352.645 261.111 356.302 262.115C356.791 262.244 357.306 262.244 357.821 262.296C361.4 263.584 365.082 264.46 368.919 264.666H368.868Z" fill="#D3D3D3"/>
<path d="M425.467 286.871C430.256 285.867 435.071 284.862 439.861 283.857C439.861 285.609 439.861 287.335 439.861 289.087C435.355 291.895 430.23 292.281 425.132 292.822C423.716 290.761 423.716 288.778 425.441 286.871H425.467Z" fill="#EB5E0E"/>
<path d="M357.204 283.832C360.912 284.604 364.619 285.377 368.327 286.15C369.435 288.031 369.692 289.885 368.276 291.74C364.439 291.482 360.757 290.581 357.178 289.267C357.178 287.464 357.203 285.635 357.229 283.832H357.204Z" fill="#EB5F0F"/>
<path d="M370.181 286.305C382.129 287.618 394.128 288.417 406.154 288.031C411.896 287.85 417.612 287.387 423.355 287.052C424.488 289.035 424.462 291.019 423.252 292.951C418.488 294.342 413.544 294.265 408.651 294.522C395.725 295.218 382.927 294.059 370.181 292.101C368.842 290.169 368.945 288.211 370.181 286.279V286.305Z" fill="#EB5E0D"/>
<path d="M423.252 292.951C423.278 290.993 423.303 289.01 423.355 287.052C424.076 287 424.771 286.923 425.492 286.872C425.389 288.855 425.286 290.839 425.183 292.822C424.539 292.874 423.896 292.925 423.252 292.977V292.951Z" fill="#372854"/>
<path d="M370.181 286.304C370.181 288.237 370.181 290.194 370.181 292.126C369.46 292.384 368.868 292.049 368.275 291.74C368.275 289.885 368.327 288.005 368.327 286.15C368.945 286.201 369.563 286.253 370.181 286.304Z" fill="#2B2C5B"/>
<path d="M355.993 294.265C355.761 294.265 355.529 294.265 355.323 294.265C354.01 294.084 353.958 293.183 354.293 292.23C354.602 291.354 355.4 291.096 356.276 291.199C357.074 291.302 357.641 291.74 357.692 292.539C357.769 293.672 357.048 294.162 355.993 294.239V294.265Z" fill="#F8ECED"/>
<path d="M381.821 147.866C382.027 146.218 382.31 144.002 382.542 141.761C382.645 140.705 383.057 139.958 384.242 140.087C385.246 140.19 385.684 140.911 385.555 141.838C385.194 144.363 384.782 146.888 384.319 149.386C384.139 150.339 383.34 150.752 382.439 150.468C381.435 150.159 381.435 149.309 381.821 147.866V147.866Z" fill="#EBEEF2"/>
<path d="M386.301 136.532C386.224 137.433 385.812 138.129 384.859 138.129C383.752 138.129 383.211 137.305 383.289 136.326C383.366 135.476 383.984 134.831 384.937 134.883C385.915 134.935 386.353 135.553 386.301 136.532V136.532Z" fill="#DBE3EF"/>
<path d="M196.755 151.009C196.755 150.391 196.678 149.773 196.755 149.18C196.884 148.33 197.476 147.97 198.3 148.073C199.124 148.176 199.176 148.845 199.15 149.464C199.021 152.04 199.51 154.513 200.334 156.96C200.618 157.784 200.489 158.763 199.536 159.021C198.558 159.304 198.12 158.48 197.94 157.604C197.476 155.414 196.987 153.25 196.523 151.061C196.601 151.061 196.678 151.061 196.755 151.035V151.009Z" fill="#F3EFEC"/>
<path d="M196.678 143.745C196.678 142.354 196.962 141.297 198.275 141.323C199.614 141.375 199.717 142.508 199.768 143.59C199.82 144.775 199.382 145.728 198.12 145.703C196.781 145.677 196.524 144.621 196.678 143.719V143.745Z" fill="#F1EDEA"/>
<path d="M353.47 276.232C353.212 274.841 353.856 273.295 354.165 271.698C354.397 270.487 355.298 269.895 356.379 269.946C357.667 270.024 357.95 271.106 357.821 272.213C357.615 274.042 357.409 275.871 357.178 277.675C356.997 278.963 356.508 280.277 355.015 280.251C353.264 280.199 353.47 278.679 353.47 277.443C353.47 277.134 353.47 276.825 353.47 276.206V276.232Z" fill="#FAEDEE"/>
<path d="M359.032 266.186C359.083 267.293 358.491 267.989 357.41 267.963C356.354 267.937 355.659 267.164 355.684 266.16C355.684 265.155 356.38 264.382 357.435 264.382C358.517 264.382 359.083 265.052 359.032 266.186V266.186Z" fill="#F9EDEE"/>
</g>
<defs>
<clipPath id="clip0_5484_43245">
<rect width="595" height="297" fill="white"/>
</clipPath>
</defs>
</svg>
