<svg width="595" height="297" viewBox="0 0 595 297" fill="none" xmlns="http://www.w3.org/2000/svg">
<g clip-path="url(#clip0_5484_43235)">
<rect width="595" height="297" fill="#4F77C2"/>
<g clip-path="url(#clip1_5484_43235)">
<path d="M384.518 223.371C385.059 222.521 385.625 221.697 386.166 220.847C388.355 221.826 388.123 223.861 387.969 225.612C387.634 229.58 387.454 233.572 386.604 237.488C385.419 240.219 383.617 242.589 382.046 245.113C381.608 245.757 381.145 246.401 380.81 247.123C380.063 248.591 379.085 249.905 378.209 251.296C376.69 253.692 376.922 254.181 379.703 254.593C383.05 255.108 386.424 255.495 389.797 255.649C399.299 256.113 408.775 256.989 418.354 256.036C423.941 255.469 429.606 255.495 435.194 254.877C439.082 254.439 439.057 254.336 436.816 251.296C435.349 249.312 433.778 247.406 432.49 245.319C432.078 244.65 431.641 244.006 431.126 243.387C429.555 241.017 427.418 239.008 426.594 236.174C426.182 232.8 426.439 229.451 426.413 226.076C426.388 224.814 426.362 223.552 426.903 222.367C427.572 221.439 428.448 221.001 429.606 221.31C435.168 228.06 439.288 235.762 444.104 243.001C445.752 245.474 447.503 247.895 448.867 250.549C449.949 252.635 451.494 253.125 453.708 252.661C459.94 251.373 466.223 250.368 472.429 248.952C474.695 248.436 476.986 247.586 479.407 248.179C480.102 248.436 480.669 248.849 481.106 249.441C481.982 250.755 482.265 252.275 482.445 253.82C484.016 266.443 484.402 279.143 485.561 291.792C485.741 293.878 486.153 296.12 484.686 298.026H339.636C338.992 297.304 338.812 296.403 338.735 295.475C337.782 282.982 337.911 270.513 339.147 258.071C339.275 256.628 339.275 255.211 339.378 253.769C339.507 251.966 340.074 250.368 341.567 249.209C342.34 248.668 343.215 248.539 344.116 248.514C350.219 249.879 356.399 250.884 362.553 252.069C364.819 252.507 366.133 251.966 367.343 249.956C372.158 241.945 377.179 234.062 382.098 226.102C382.767 225.046 383.462 224.067 384.544 223.397L384.518 223.371Z" fill="#005559"/>
<path d="M194.207 213.273C195.417 214.999 196.627 216.725 197.812 218.451C201.082 221.645 202.962 225.793 205.408 229.554C210.043 236.664 214.498 243.902 218.849 251.193C220.188 253.434 221.502 253.614 223.562 252.532C224.746 251.914 225.905 251.27 227.012 250.549C228.042 249.879 229.072 249.132 230.411 249.544C231.106 249.802 231.621 250.265 232.033 250.884C232.909 252.507 232.754 254.284 232.754 256.01C232.754 266.082 232.754 276.155 232.754 286.227C232.754 288.906 232.703 291.56 233.141 294.213C233.372 295.553 233.372 296.892 232.394 298H131.814C130.99 297.098 130.887 295.965 130.862 294.831C130.836 290.117 130.501 285.351 130.965 280.663C131.557 274.609 131.351 268.555 131.48 262.502C131.505 260.853 131.48 259.204 132.278 257.684C132.638 257.04 133.153 256.551 133.849 256.242C135.6 255.624 137.325 256.036 138.947 256.68C140.878 257.453 141.883 256.937 142.707 254.98C145.848 247.509 148.758 239.987 152.028 232.568C153.676 228.858 154.577 224.788 157.204 221.516C158.826 219.249 158.903 216.158 161.015 214.149C162.405 214.432 162.199 215.617 162.354 216.545C162.766 219.249 163.204 221.954 162.946 224.711C162.56 227.673 161.015 230.249 160.217 233.083C159.985 233.675 159.727 234.268 159.496 234.86C156.792 242.176 154.037 249.493 151.256 256.809C150.432 258.947 150.663 259.951 153.187 260.338C163.487 261.883 173.787 262.476 184.216 261.574C192.842 260.827 201.365 259.616 209.708 257.35C212.772 256.499 212.875 256.139 211.15 253.382C206.644 246.247 202.112 239.162 197.683 231.975C197.348 231.434 197.039 230.893 196.704 230.352C195.597 228.266 193.975 226.411 193.383 224.041C193.048 220.409 192.662 216.751 194.232 213.273H194.207Z" fill="#005559"/>
<path d="M479.097 248.488C470.754 250.111 462.386 251.656 454.068 253.408C451.313 253.975 449.742 253.434 448.172 250.884C442.146 240.991 435.812 231.305 429.58 221.542C429.709 220.615 430.198 220.434 430.971 220.898C430.43 222.315 431.434 222.109 432.232 222.135C436.43 222.186 440.627 222.392 444.824 222.65C455.15 223.242 465.347 224.736 475.492 226.591C480.72 227.544 485.895 228.91 491.148 229.399C496.35 229.863 499.285 232.774 501.577 236.896C504.744 242.537 506.238 248.668 507.191 254.98C508.298 262.373 509.096 269.818 508.633 277.288C508.195 284.218 507.474 291.122 506.882 298.026H484.659C484.222 283.11 482.934 268.246 481.441 253.408C481.286 252.017 480.694 250.652 480.308 249.286C478.84 246.272 479.123 242.872 478.196 239.755C477.99 239.369 477.836 240.09 478.119 239.806C478.248 239.678 478.351 239.729 478.351 239.935C478.428 242.795 479.973 245.551 479.072 248.514L479.097 248.488Z" fill="#F6E9D8"/>
<path d="M384.519 223.371C378.622 232.954 372.7 242.511 366.855 252.146C366.134 253.331 365.49 253.305 364.383 253.099C357.765 251.759 351.018 251.167 344.529 249.158C343.268 248.926 342.907 248.333 343.242 246.994C343.783 244.856 344.401 242.769 344.658 241.172C343.654 243.361 343.989 246.659 342.109 249.183C340.718 250.574 340.384 252.326 340.229 254.207C338.993 268.787 338.89 283.394 339.663 298H319.912C319.063 292.564 318.084 287.155 318.007 281.59C317.878 272.935 319.603 264.537 320.839 256.061C321.818 249.389 322.796 242.769 325.268 236.406C327.792 229.889 332.272 226.875 339.148 225.715C354.211 223.165 369.352 223.32 384.519 223.371V223.371Z" fill="#F6E9D8"/>
<path d="M229.947 249.853C227.32 251.218 224.719 252.584 222.093 253.949C221.037 254.49 220.239 254.748 219.389 253.356C212.256 241.687 205.021 230.095 197.811 218.451C212.617 219.172 227.397 219.893 241.508 225.097C242.95 225.638 244.367 226.256 245.706 226.952C247.92 228.137 249.002 229.785 249.156 232.568C249.723 242.228 250.856 251.862 251.422 261.523C251.911 269.689 250.856 277.855 250.495 286.021C250.315 290.014 250.341 294.007 250.289 298H232.393C231.466 283.162 232.007 268.298 231.646 253.459C231.646 252.429 231.646 251.424 231.131 250.497C229.998 248.256 230.848 245.834 230.539 243.799C230.23 245.628 231.157 247.844 229.921 249.853H229.947Z" fill="#F6E9D8"/>
<path d="M133.102 257.298C131.891 260.982 132.484 264.82 132.406 268.581C132.252 278.396 131.273 288.185 131.814 298H120.098C119.84 286.047 117.857 274.172 118.192 262.167C118.45 252.867 118.939 243.594 119.66 234.32C119.789 232.671 120.69 232.027 121.926 231.383C131.299 226.54 141.419 223.99 151.719 222.135C153.521 221.8 155.298 221.233 157.178 221.542C153.779 229.966 150.38 238.416 146.955 246.839C145.693 249.956 144.148 252.996 143.118 256.216C142.372 258.561 141.264 258.689 139.384 257.788C137.814 257.015 136.166 256.448 134.363 256.525C132.947 254.877 134.157 252.867 133.668 251.425C133.436 253.151 134.183 255.315 133.102 257.298V257.298Z" fill="#F6E9D8"/>
<path d="M160.113 203.149C159.366 201.526 157.847 201.964 156.585 201.99C148.783 202.119 140.981 202.222 133.204 202.531C125.737 202.814 125.376 202.608 125.505 195.086C125.685 185.349 125.865 175.611 126.123 165.874C126.174 163.941 125.84 162.782 123.728 161.984C119.119 160.258 116.853 156.213 117.007 151.061C117.136 146.836 120.02 142.998 124.32 141.427C125.376 141.04 126.561 140.963 126.818 139.546C128.209 138.361 129.882 138.567 131.505 138.567C140.105 138.567 148.731 138.567 157.332 138.567C161.89 138.567 162.276 138.155 162.327 133.698C162.353 130.736 162.25 127.748 162.379 124.785C162.508 121.488 163.126 120.921 166.447 120.792C167.683 120.741 168.894 120.715 170.078 120.329C177.365 119.762 184.653 120.2 191.94 120.071C192.97 120.071 194 120.071 195.03 120.071C199.536 119.994 200 119.401 199.613 115.022C199.124 109.483 199.407 103.945 199.433 98.4062C199.433 97.4015 199.51 96.3196 200.463 95.624C210.531 95.6755 220.625 95.7528 230.694 95.7528C233.475 95.7528 234.788 96.7833 234.968 99.6942C235.741 113.219 236.642 126.743 237.543 140.267C238.444 153.792 239.397 167.29 240.324 180.815C240.685 186.044 240.916 191.274 241.251 196.503C241.431 199.105 240.273 200.213 237.646 200.264C223.355 200.522 209.089 200.882 194.798 201.191C188.567 201.81 182.361 202.402 176.078 202.196C170.722 202.016 165.417 202.248 160.139 203.227L160.113 203.149Z" fill="#A2745F"/>
<path d="M382.277 209.77C374.707 207.657 368.347 203.304 362.527 198.332C350.45 188.002 342.21 175.199 338.786 159.51C336.468 148.871 336.442 138.258 338.734 127.644C338.863 127.052 338.914 126.434 338.992 125.841C338.502 124.708 338.914 123.6 339.249 122.544C345.223 103.713 356.888 89.5443 374.14 79.9098C374.321 79.8068 374.527 79.781 374.733 79.7295C379.986 80.3477 384.543 82.8723 388.844 85.6029C403.289 94.8253 413.77 107.216 418.173 124.115C418.662 125.97 419.769 126.253 421.314 126.253C427.082 126.253 432.825 126.15 438.593 126.253C454.12 126.64 469.621 125.249 485.149 125.635C486.668 125.661 488.264 125.352 489.578 126.485C494.341 130.452 496.376 135.604 494.882 141.529C493.389 147.48 488.522 150.262 482.831 151.009C480.333 151.344 479.458 152.246 479.2 154.358C478.145 162.473 475.57 170.072 471.63 177.208C466.197 187.1 459.296 195.678 449.639 201.81C448.815 200.676 449.511 199.646 449.871 198.615C453.631 188.131 453.399 177.749 448.223 167.857C441.142 154.307 429.915 146.81 414.413 146.45C399.478 146.089 387.814 152.375 380.192 165.075C372.235 178.316 372.441 191.943 380.243 205.39C381.041 206.781 382.458 207.889 382.252 209.744L382.277 209.77Z" fill="#FAD6C7"/>
<path d="M489.579 126.511C466.353 126.717 443.126 126.923 419.874 127.155C418.149 127.155 417.556 126.769 417.299 124.785C416.32 117.624 412.87 111.415 408.75 105.645C400.458 94.001 389.875 85.2166 376.099 80.6827C375.532 80.5024 374.914 80.5024 374.322 80.3993C373.704 80.5281 373.112 80.5796 372.494 80.5281C371 80.3478 369.636 79.9356 369.018 78.4157C368.348 76.7928 369.378 75.6336 370.434 74.6547C375.301 70.1723 380.785 66.5916 386.811 63.9125C393.403 61.0015 400.304 59.0437 407.462 58.039C409.806 57.7041 412.149 58.1421 414.492 57.9617C427.676 58.2451 440.5 60.2029 452.473 66.0764C469.623 74.5259 482.395 86.9683 488.008 105.671C490.043 112.446 491.124 119.427 489.579 126.511V126.511Z" fill="#EF8111"/>
<path d="M200.463 95.5725C200.566 102.528 200.103 109.509 200.824 116.464C201.21 120.122 200.566 120.869 196.884 120.921C187.949 121.024 179.039 121.05 170.104 121.101C157.178 122.08 144.251 122.879 131.299 122.57C129.522 122.518 127.745 122.441 127.024 120.354C126.999 119.633 126.921 118.912 126.921 118.216C126.818 107.963 126.69 97.7106 126.638 87.4579C126.587 80.9919 126.767 81.1465 133.436 80.9404C151.693 80.3479 169.95 80.2448 188.232 80.0645C191.09 80.0388 193.974 79.9872 196.833 79.8842C199.227 79.8069 200.412 80.7601 200.386 83.3104C200.335 87.4063 200.463 91.528 200.489 95.624L200.463 95.5725Z" fill="#050707"/>
<path d="M382.279 209.769C364.022 186.379 376.434 153.766 403.6 146.604C425.899 140.731 449.358 156.136 452.757 178.96C453.941 186.971 452.499 194.442 449.667 201.809C445.47 210.156 439.264 216.519 430.998 220.872C430.406 220.821 429.968 221.104 429.608 221.516C428.809 221.8 427.985 222.083 427.187 222.366C425.204 224.814 422.243 224.762 419.591 225.123C408.699 226.54 398.553 224.427 389.566 217.833C388.408 216.982 387.197 216.184 386.734 214.716C385.266 213.067 383.798 211.418 382.331 209.769H382.279Z" fill="#EF8111"/>
<path d="M414.465 57.9618C410.165 58.6316 405.839 59.0695 401.59 59.9711C390.414 62.3154 380.32 67.0296 371.668 74.5517C370.664 75.4276 368.99 76.2004 369.428 77.9006C369.866 79.575 371.488 79.6266 372.93 79.7554C373.394 79.8069 373.857 80.1675 374.321 80.3994C367.651 84.5984 361.317 89.1838 355.935 95.0315C348.184 103.455 342.751 113.115 339.635 124.115C339.481 124.708 339.223 125.249 339.017 125.841C336.133 125.841 333.249 125.841 330.391 125.919C327.971 125.97 326.915 124.811 327.404 122.492C331.267 103.893 338.348 86.8653 352.407 73.4955C363.068 63.3716 375.763 57.5754 390.517 56.107C398.68 55.2827 406.611 55.9267 414.491 57.9876L414.465 57.9618Z" fill="#F49949"/>
<path d="M126.999 120.328C128.132 121.616 129.626 121.642 131.197 121.616C144.149 121.41 157.127 121.256 170.079 121.075C169.332 121.848 168.354 121.59 167.453 121.616C162.895 121.668 163.281 121.049 163.281 125.995C163.281 129.164 163.178 132.358 163.333 135.527C163.461 138.412 162.328 139.571 159.393 139.546C148.526 139.468 137.686 139.546 126.819 139.546C126.536 133.157 126.639 126.768 126.999 120.38V120.328Z" fill="#795B4F"/>
<path d="M160.113 203.149C162.122 200.599 165.109 201.578 167.607 201.294C171.649 200.831 175.821 201.011 179.915 201.191C183.932 201.372 187.846 200.341 191.837 200.547C192.816 200.599 193.923 200.238 194.747 201.088C193.408 205.107 194.335 209.203 194.206 213.273C194.155 217.111 194.078 220.95 194.026 224.762C193.872 225.87 193.228 226.36 192.146 226.411C183.185 224.093 175.203 219.868 168.019 214.072C164.8 211.496 161.71 208.868 160.242 204.849C160.191 204.283 160.165 203.69 160.113 203.123V203.149Z" fill="#795B4F"/>
<path d="M386.681 214.742C395.23 221.774 404.886 225.458 416.113 224.737C419.924 224.479 423.581 223.655 427.16 222.418C427.16 223.578 427.16 224.737 427.16 225.87C426.619 227.416 425.409 228.343 424.07 229.142C413.487 235.453 401.925 238.596 389.72 239.575C388.612 239.678 387.454 239.678 386.398 239.214C385.96 238.905 385.522 238.596 385.909 237.978C386.14 233.521 387.145 229.116 386.964 224.608C386.913 223.32 387.248 221.929 386.166 220.847C386.913 218.863 386.552 216.777 386.681 214.716V214.742Z" fill="#D6A18C"/>
<path d="M160.242 204.875C168.431 215.772 179.709 221.954 192.43 225.947C192.224 227.287 191.091 227.699 190.112 228.137C184.009 230.919 177.572 231.769 171.006 230.584C167.426 229.94 164.259 228.292 162.173 225.071C162.045 221.413 161.813 217.755 160.963 214.175C160.731 211.083 160.474 207.966 160.242 204.875V204.875Z" fill="#A2745F"/>
<path d="M432.749 244.314C435.273 247.792 437.796 251.244 440.371 254.748C431.745 257.968 385.086 257.787 375.301 254.464C377.078 251.656 378.803 248.926 380.554 246.169C381.661 245.371 382.691 245.86 383.747 246.272C390.262 248.926 397.034 250.626 404.012 250.755C412.664 250.909 421.162 249.647 428.861 245.165C430.045 244.469 431.178 243.258 432.775 244.263L432.749 244.314Z" fill="#F6E9D8"/>
<path d="M386.553 238.828C400.123 238.364 412.869 235.118 424.457 227.854C425.409 227.261 426.285 226.54 427.186 225.87C427.624 229.554 427.47 233.238 427.238 236.921C426.337 240.296 424.328 242.924 421.084 244.031C410.964 247.509 400.767 247.509 390.776 243.49C388.844 242.718 386.038 242.099 386.527 238.828H386.553Z" fill="#FAD6C7"/>
<path d="M386.552 238.828C387.222 241.378 389.488 242.228 391.496 242.975C400.483 246.324 409.573 246.273 418.868 244.031C423.091 243.027 424.739 239.626 427.237 236.921C428.834 238.879 430.482 240.785 431.563 243.104C428.705 246.71 424.482 247.87 420.388 249.029C407.899 252.532 395.668 251.399 383.72 246.556C382.896 246.221 381.943 245.938 381.557 244.959C382.612 242.383 384.209 240.167 385.883 237.978C386.089 238.261 386.295 238.544 386.501 238.828H386.552Z" fill="#F6E9D8"/>
<path d="M381.583 244.959C390.21 249.132 399.402 251.013 408.904 250.42C416.99 249.931 424.869 248.205 431.564 243.104C432.105 243.362 432.594 243.645 432.723 244.289C432.311 244.341 431.822 244.289 431.513 244.469C425.178 248.797 418.097 250.472 410.552 251.27C403.085 252.043 395.952 250.987 388.871 248.952C386.038 248.127 383.283 247.097 380.502 246.17C380.605 245.525 381.043 245.191 381.583 244.959V244.959Z" fill="#BDA88E"/>
<path d="M479.098 248.488C479.046 245.165 477.579 241.996 478.737 238.493C479.278 242.073 479.819 245.68 480.334 249.261C479.922 249.003 479.51 248.745 479.098 248.488V248.488Z" fill="#BCA88E"/>
<path d="M342.107 249.184C342.88 246.067 343.652 242.95 344.425 239.833C345.532 241.842 344.322 243.568 344.142 245.423C344.013 246.659 342.7 248.127 344.554 249.158C343.73 249.158 342.931 249.158 342.107 249.184V249.184Z" fill="#BAA78D"/>
<path d="M197.939 231.254C203.064 239.291 208.162 247.329 213.338 255.34C214.625 257.324 213.003 257.324 211.947 257.633C204.454 259.849 196.781 261.265 189.03 262.038C176.618 263.249 164.233 263.146 151.898 260.982C149.941 260.647 148.808 260.467 149.89 257.839C153.109 250.111 155.941 242.202 158.928 234.371C160.19 233.676 161.323 234.294 162.456 234.706C173.631 238.982 184.446 238.338 194.849 232.31C195.776 231.769 196.678 230.919 197.939 231.254V231.254Z" fill="#F6E9D8"/>
<path d="M162.173 225.071C162.457 225.149 162.843 225.149 163.049 225.329C172.705 233.444 182.542 230.739 192.455 225.921C192.996 225.535 193.511 225.149 194.052 224.762C195.108 226.565 196.189 228.343 197.245 230.146C194.927 233.444 191.245 234.577 187.743 235.762C178.55 238.828 169.512 238.132 160.706 234.165C160.242 233.959 159.804 233.65 159.547 233.212C159.907 230.327 161.53 227.854 162.199 225.071H162.173Z" fill="#F6E9D8"/>
<path d="M159.52 233.212C164.799 235.041 169.975 237.025 175.769 236.999C183.725 236.999 190.832 234.783 197.244 230.146C197.476 230.507 197.708 230.868 197.939 231.254C186.635 239.06 174.584 240.348 161.838 235.35C160.885 234.99 159.907 234.706 158.928 234.371C158.902 233.882 158.98 233.444 159.495 233.212H159.52Z" fill="#BDA88D"/>
<path d="M133.102 257.298V247.741C133.514 247.741 133.926 247.741 134.338 247.741C134.338 250.677 134.338 253.588 134.338 256.525C133.926 256.783 133.514 257.04 133.102 257.298Z" fill="#BCA88E"/>
<path d="M229.947 249.853V241.069C230.359 241.069 230.746 241.043 231.158 241.017C231.158 244.186 231.158 247.328 231.158 250.497C230.746 250.291 230.359 250.085 229.947 249.853V249.853Z" fill="#BBA78C"/>
<path d="M198.635 135.759C198.789 135.501 198.995 135.244 199.047 134.96C199.768 130.323 199.768 130.195 204.609 130.349C209.707 130.504 214.626 131.483 218.746 134.754C223.767 138.721 223.818 143.899 218.823 147.738C213.364 151.911 207.081 153.92 200.257 154.281C200.051 154.049 199.742 153.869 199.639 153.611C197.708 148.021 197.27 142.302 197.991 136.455C198.043 136.145 198.352 135.991 198.583 135.785L198.635 135.759Z" fill="#060708"/>
<path d="M173.839 183.442C164.26 183.056 156.844 178.985 152.337 170.175C152.157 169.814 151.951 169.454 151.822 169.067C151.05 166.955 150.87 164.817 153.239 163.786C155.505 162.782 157.178 163.941 158.131 166.156C160.32 171.206 164.105 174.451 169.384 175.868C176.98 177.903 185.143 174.658 189.829 167.882C191.271 165.796 192.456 163.039 195.778 164.765C197.889 165.847 197.915 168.398 195.572 171.772C190.37 179.243 183.16 183.184 173.839 183.493V183.442Z" fill="#E56981"/>
<path d="M198.635 135.759C198.377 141.993 198.867 148.175 200.283 154.255C194.618 154.384 189.313 153.379 184.807 149.592C181.769 147.016 180.919 143.513 182.927 140.035C186.095 134.522 191.425 132.358 197.347 131.276C198.377 131.096 198.635 131.534 198.635 132.384C198.635 133.492 198.635 134.625 198.635 135.733V135.759Z" fill="#EEEDEB"/>
<path d="M211.124 116.593C214.832 117.005 218.926 118.628 222.145 122.106C223.201 123.265 223.948 124.579 223.922 126.228C223.922 127.078 223.767 127.954 222.815 128.185C221.862 128.417 221.218 127.773 220.909 127C219.004 121.951 214.549 120.741 209.965 119.813C208.575 119.53 206.618 119.813 206.772 117.881C206.927 115.872 208.858 116.464 211.15 116.593H211.124Z" fill="#0A0909"/>
<path d="M125.66 152.091C125.66 152.297 125.712 152.529 125.66 152.71C125.351 153.766 126.433 155.724 124.811 155.775C123.085 155.827 121.669 154.384 121.36 152.426C121.18 151.344 121.669 150.417 122.261 149.541C122.905 148.562 123.909 147.583 124.991 147.867C126.253 148.176 125.506 149.618 125.66 150.571C125.738 151.061 125.66 151.602 125.66 152.117V152.091Z" fill="#83553F"/>
<path d="M383.025 150.005C374.579 152.684 366.828 150.984 360.056 145.651C355.009 141.684 355.009 135.862 359.696 130.916C364.434 125.918 370.536 123.832 377.283 123.471C378.184 123.909 378.673 124.656 379.034 125.532C381.738 132.256 383.772 139.108 383.72 146.424C383.72 147.661 383.798 148.897 383.025 150.005V150.005Z" fill="#038F93"/>
<path d="M383.025 150.005C383.283 140.679 380.914 131.946 377.283 123.471C383.437 123.265 389.411 123.883 394.458 127.902C401.952 133.879 401.411 139.082 395.231 144.621C391.806 147.686 387.66 149.464 383.051 150.031L383.025 150.005Z" fill="#FAF2F0"/>
<path d="M377.127 107.319C382.792 107.216 387.736 107.912 392.629 109.226C393.118 109.354 393.607 109.509 394.097 109.664C396.028 110.333 397.573 111.441 396.852 113.682C396.156 115.795 394.251 115.769 392.449 115.254C387.711 113.837 382.895 112.987 377.926 113.038C371.694 113.115 365.643 113.759 360.287 117.34C358.793 118.319 357.274 118.242 356.218 116.722C355.162 115.202 355.678 113.734 356.991 112.626C359.386 110.591 362.27 109.483 365.282 108.736C369.377 107.731 373.522 107.062 377.153 107.294L377.127 107.319Z" fill="#EF8112"/>
<path d="M481.621 140.937C481.956 138.85 482.368 136.145 482.291 133.363C482.239 131.56 483.346 131.405 484.763 132.075C487.106 133.183 488.883 134.677 489.037 137.536C489.217 140.499 487.621 142.379 485.329 143.745C482.806 145.239 481.621 144.492 481.621 140.937V140.937Z" fill="#D6A18C"/>
<path d="M413.256 156.677C428.963 156.471 441.735 168.965 441.993 184.782C442.225 200.624 429.684 213.35 413.642 213.556C397.883 213.762 385.085 201.14 384.879 185.142C384.673 169.686 397.42 156.883 413.282 156.651L413.256 156.677Z" fill="#FAD6C7"/>
<path d="M204.043 148.33C204.095 149.258 204.198 149.85 204.172 150.469C204.172 150.7 203.863 151.01 203.657 151.087C203.194 151.267 202.936 150.958 202.859 150.494C202.447 147.892 202.009 145.316 201.623 142.715C201.546 142.174 201.468 141.375 202.395 141.375C203.142 141.375 203.528 141.942 203.451 142.612C203.168 144.698 204.558 146.553 204.095 148.33H204.043Z" fill="#EDEBEA"/>
<path d="M202.91 136.79C202.627 137.485 203.399 138.825 202.215 138.773C200.953 138.722 201.416 137.15 201.107 136.3C200.876 135.656 201.313 134.626 202.034 134.677C203.399 134.78 202.678 136.042 202.91 136.79Z" fill="#E8E5E5"/>
<path d="M380.99 145.368C381.015 146.682 381.067 147.892 379.728 148.021C377.951 148.176 378.569 146.604 378.595 145.806C378.672 143.513 378.003 141.401 377.41 139.237C377.204 138.464 376.818 137.202 378.08 136.892C379.161 136.635 379.419 137.82 379.573 138.49C380.166 140.834 380.552 143.255 380.99 145.394V145.368Z" fill="#F2EFEC"/>
<path d="M377.824 132.024C377.953 133.028 377.489 133.878 376.82 133.775C375.249 133.518 375.017 132.075 374.837 130.761C374.76 130.117 374.476 129.087 375.532 129.087C377.515 129.087 376.974 131.225 377.824 132.024Z" fill="#F0EDEA"/>
<path d="M425.46 170.175C425.46 168.655 425.357 167.728 425.46 166.826C425.615 165.719 426.336 164.92 427.495 164.843C428.808 164.74 429.632 165.512 429.838 166.8C431.306 175.714 426.877 186.739 416.396 190.088C407.487 192.948 397.496 187.332 394.535 177.929C394.38 177.44 394.174 176.95 394.123 176.461C394.02 175.224 394.432 174.22 395.693 173.807C396.878 173.421 397.702 174.039 398.243 174.992C398.758 175.868 399.092 176.847 399.53 177.775C401.925 182.824 405.787 186.044 411.478 186.095C417.04 186.147 420.903 183.03 423.426 178.238C424.842 175.559 425.538 172.674 425.435 170.227L425.46 170.175Z" fill="#BA5232"/>
</g>
</g>
<defs>
<clipPath id="clip0_5484_43235">
<rect width="595" height="297" fill="white"/>
</clipPath>
<clipPath id="clip1_5484_43235">
<rect width="618" height="298" fill="white" transform="translate(-12)"/>
</clipPath>
</defs>
</svg>
