<svg width="595" height="297" viewBox="0 0 595 297" fill="none" xmlns="http://www.w3.org/2000/svg">
<g clip-path="url(#clip0_5484_43231)">
<rect width="595" height="297" fill="#3377E8"/>
<g clip-path="url(#clip1_5484_43231)">
<path d="M208.446 240.502C240.505 245.242 267.388 258.354 284.228 287.567C286.134 290.864 287.524 294.393 288.683 298H93.627C100.399 278.216 114.15 264.459 131.866 254.258C142.449 248.153 153.856 244.186 165.83 241.764C167.117 241.301 168.019 241.687 168.482 243.001C168.765 243.774 169.074 244.572 169.049 245.396C168.791 250.265 170.31 251.424 176.078 252.97C182.361 254.619 188.464 253.691 194.618 252.326C197.09 251.734 199.614 251.27 202.034 250.446C205.82 249.183 206.772 247.792 207.056 243.774C207.133 242.563 206.669 241.017 208.472 240.528L208.446 240.502Z" fill="#ED6A35"/>
<path d="M421.347 217.343C445.707 218.09 469.886 220.641 493.911 224.659C495.533 224.943 497.129 225.277 498.726 225.638C501.043 226.179 502.434 227.596 502.975 229.94C506.837 247.045 511.24 264.022 511.369 281.745C511.395 287.206 511.318 292.616 510.262 297.974H421.373C420.24 296.3 421.012 294.574 421.296 292.899C423.124 282.054 424.489 271.183 424.798 260.157C425.107 248.9 423.716 237.823 421.502 226.823C421.296 225.818 421.193 224.788 421.038 223.783C420.6 221.594 419.905 219.404 421.347 217.317V217.343Z" fill="#010101"/>
<path d="M309.026 298C308.717 290.71 309.747 283.523 310.932 276.361C312.966 264.151 314.949 251.888 318.296 239.935C319.249 236.484 320.485 233.135 321.438 229.683C322.468 225.896 324.94 223.835 328.699 223.191C332.639 222.521 336.604 221.877 340.544 221.233C341.394 221.156 342.218 221.31 342.784 221.954C344.999 224.324 347.136 223.474 349.222 221.851C351.333 220.229 353.471 218.734 356.2 218.322C365.367 217.163 374.534 216.21 383.804 216.287C384.808 216.339 385.838 216.287 386.843 216.364C389.546 216.57 389.933 217.111 389.675 220.1C385.169 225.458 383.959 232.13 382.98 238.699C380.276 256.963 379.633 275.279 382.954 293.595C383.238 295.115 383.624 296.661 382.465 298H309.026V298Z" fill="#010101"/>
<path d="M382.491 298C381.77 292.436 380.662 286.872 380.353 281.281C379.323 262.322 379.298 243.413 385.658 225.149C386.302 223.268 386.508 220.769 389.186 220.229C389.855 220.692 390.035 221.414 389.984 222.109C389.675 227.493 392.919 229.992 397.477 231.46C403.065 233.186 408.653 232.439 414.189 231.28C416.996 230.687 418.824 228.807 419.88 226.153C420.317 225.046 420.395 223.706 421.708 223.088C423.536 233.263 425.596 243.362 425.776 253.769C426.008 268.684 423.974 283.368 421.347 298H382.465H382.491Z" fill="#F9F3F0"/>
<path d="M194.875 252.97C187.639 255.16 180.429 255.417 173.168 253.047C169.846 251.965 167.966 250.239 168.121 246.427C168.198 244.752 168.996 242.099 165.829 241.738C167.812 241.275 167.786 239.858 167.735 238.209C167.554 231.718 167.554 231.511 161.168 232.078C149.993 233.083 138.817 234.319 127.642 235.53C124.165 235.917 123.187 234.68 123.47 231.202C123.882 226.024 122.981 220.847 122.595 215.669C122.518 214.561 121.204 214.922 120.844 214.174C122.028 212.629 122.157 210.98 121.977 209.022C121.487 204.385 121.668 199.697 121.874 195.034C122.183 193.051 123.805 192.201 125.273 191.273C132.843 186.611 139.641 180.892 145.795 174.58C153.984 166.182 161.117 156.883 166.962 146.656C171.932 138 175.949 128.881 180.043 119.787C180.635 118.499 181.021 117.031 182.644 116.567C186.918 115.253 191.373 115.717 195.75 115.408C202.857 114.918 209.939 114.223 217.071 114.171C222.711 113.94 228.35 113.733 233.989 113.45C236.616 113.321 237.852 114.3 238.187 117.082C240.144 133.853 242.255 150.597 244.315 167.341C246.349 183.777 248.409 200.238 250.469 216.673C251.345 223.706 251.345 223.474 244.263 224.015C232.933 224.891 221.629 226.05 210.299 227.209C209.037 227.338 206.926 227.055 207.055 229.502C205.329 228.858 203.604 228.755 201.724 228.91C193.665 229.554 185.631 230.43 177.571 230.97C176.85 231.022 176.155 231.125 175.434 231.228C173.528 231.486 173.09 232.413 173.76 234.216C175.846 239.909 179.399 244.392 184.601 247.483C186.97 248.9 189.519 250.008 192.145 250.909C193.201 251.27 194.669 251.296 194.823 252.944L194.875 252.97Z" fill="#EABBA2"/>
<path d="M421.734 223.088C420.627 229.631 416.61 232.516 410.121 232.903C405.743 233.161 401.417 233.959 397.22 232.079C397.632 230.791 398.816 230.559 399.872 230.224C405.949 228.266 409.503 223.809 411.897 218.219C412.953 215.746 412.567 215.257 409.915 215.695C402.936 216.854 396.01 216.622 389.16 214.922C380.843 212.938 373.118 209.589 366.037 204.746C350.999 194.056 341.523 179.681 338.33 161.571C334.699 140.989 339.746 122.467 353.162 106.34C354.501 104.743 355.376 102.528 357.822 102.116C359.934 102.579 361.299 104.228 362.895 105.465C374.174 114.223 386.534 121.024 399.589 126.691C417.176 134.342 435.407 139.907 454.333 143.178C459.483 144.08 464.685 144.75 469.886 145.368C471.431 145.548 472.951 145.368 474.496 145.136C475.603 144.956 476.762 144.672 477.637 145.754C476.942 146.064 476.247 146.373 475.5 146.682C482.71 152.942 482.916 159.974 476.041 165.281C474.315 166.595 472.41 167.599 470.221 167.986C468.573 168.269 467.723 169.145 467.131 170.82C459.664 191.84 445.269 205.88 424.077 212.81C421.425 213.685 421.142 215.18 421.373 217.369C420.884 219.327 421.27 221.233 421.76 223.114L421.734 223.088Z" fill="#EC9E75"/>
<path d="M477.611 145.754C457.835 146.501 439.115 141.349 420.549 135.475C401.854 129.551 384.216 121.384 368.019 110.282C364.465 107.86 361.169 105.052 357.77 102.45C355.968 102.064 354.732 100.802 353.522 99.5393C351.848 97.7875 351.616 95.6752 353.084 93.9234C359.032 86.9165 365.65 80.6824 374.456 77.282C380.276 75.0666 385.889 72.2329 392.018 70.8676C421.012 64.4789 446.84 69.8372 467.131 92.6096C480.031 107.087 483.842 124.398 479.233 143.384C479.001 144.363 478.924 145.471 477.637 145.728L477.611 145.754Z" fill="#EB600C"/>
<path d="M217.072 114.223C212.875 116.361 208.265 115.511 203.862 115.923C196.549 116.567 189.185 116.67 181.872 117.392C172.164 118.113 162.43 118.912 152.697 119.35C148.5 119.53 147.856 120.071 146.62 123.986C142.191 137.949 135.959 151.138 129.033 163.993C126.895 167.96 124.707 171.927 122.132 175.662C121.514 176.564 121.127 177.749 119.762 177.852C117.805 174.787 118.552 171.232 118.037 167.908C118.14 165.487 118.192 163.04 118.037 160.18C113.892 162.19 110.003 163.916 107.3 167.213C102.278 173.318 104.364 178.805 111.6 182.953C112.578 183.519 113.789 183.571 114.69 184.318C115.411 185.348 115.05 186.276 114.432 187.152C111.754 190.913 108.793 194.442 105.343 197.508C104.673 198.1 103.926 198.77 102.896 198.1C93.7808 186.868 88.1415 174.091 86.9827 159.691C85.6695 143.281 89.9955 128.263 100.296 115.279C113.068 99.2304 130.037 90.7293 150.302 88.7973C175.254 86.4273 196.858 94.0782 215.295 110.9C216.248 111.776 217.458 112.574 217.072 114.197V114.223Z" fill="#251A16"/>
<path d="M374.457 77.308C367.633 81.4812 361.144 86.0151 355.659 91.9401C351.797 96.1133 351.823 97.7362 356.458 101.214C356.947 101.575 357.333 102.038 357.771 102.45C347.007 113.296 340.441 126.176 338.587 141.426C336.115 161.958 342.372 179.63 355.814 195.034C358.93 198.615 363.024 201.088 366.474 204.283C366.706 205.931 365.444 206.833 364.646 207.966C361.788 212.037 358.08 215.411 355.067 219.327C353.187 219.43 351.951 220.718 350.612 221.774C346.364 225.123 345.849 225.123 341.651 221.774C341.342 221.516 340.93 221.413 340.57 221.233C338.69 218.837 336.759 216.467 334.956 214.046C324.09 199.44 318.348 182.953 316.88 164.869C315.129 143.384 319.172 123.214 331.197 105.052C340.956 90.3171 354.243 80.5023 372.036 77.4626C372.835 77.3337 373.659 77.3337 374.483 77.2822L374.457 77.308Z" fill="#C44F18"/>
<path d="M102.896 198.126C104.286 198.358 104.853 197.173 105.625 196.426C108.664 193.489 111.239 190.166 113.788 186.817C114.303 186.173 114.844 185.529 114.509 184.601C115.513 182.85 116.826 181.278 117.856 179.527C118.449 178.728 119.118 178.058 120.097 177.749C128.543 163.864 136.139 149.541 142.01 134.368C143.709 129.989 145.28 125.584 146.568 121.076C147.005 119.556 147.546 119.092 148.962 118.989C152.722 118.68 156.481 118.242 160.267 117.958C166.292 117.495 172.318 117.134 178.343 116.696C179.605 116.593 180.789 116.696 181.897 117.392C176.309 130.246 170.747 143.101 162.842 154.771C152.773 169.634 140.697 182.515 125.401 192.149C124.397 192.793 123.135 193.231 122.594 194.468C117.934 198.1 112.681 200.728 107.247 202.969C105.625 202.892 104.389 203.896 103.024 204.54C101.196 205.416 99.6512 204.746 98.8272 203.329C97.9259 201.784 99.7542 201.397 100.655 200.753C101.634 200.058 102.87 199.62 102.921 198.152L102.896 198.126Z" fill="#C0B294"/>
<path d="M194.875 252.97C191.811 251.348 188.412 250.575 185.347 248.9C178.781 245.345 174.687 239.91 172.421 232.929C171.957 231.486 172.112 230.868 173.734 230.739C179.811 230.198 185.888 229.554 191.965 228.936C195.802 228.549 199.664 228.266 203.501 227.776C205.226 227.545 206.488 227.776 207.106 229.554C207.621 233.186 207.106 236.973 208.445 240.502C207.467 241.558 207.879 242.847 207.879 244.032C207.827 248.179 206.823 249.776 202.883 251.038C200.282 251.863 197.553 252.352 194.875 252.97V252.97Z" fill="#CC9578"/>
<path d="M107.223 202.969C112.192 199.852 117.291 196.992 122.57 194.468C122.801 200.058 122.364 205.674 123.136 211.264C123.368 212.887 123.213 214.458 120.87 214.2C115.875 211.006 111.446 207.116 107.248 202.943L107.223 202.969Z" fill="#251A17"/>
<path d="M389.056 214.175C396.292 215.823 403.553 216.081 410.866 214.741C413.879 214.2 414.317 214.767 413.004 217.91C410.274 224.427 406.18 229.554 398.944 231.383C398.352 231.537 397.811 231.847 397.245 232.078C390.91 230.533 389.391 228.317 389.211 220.228C389.571 218.065 389.056 216.725 386.455 217.137C385.683 217.266 384.859 217.086 384.061 217.034C384.138 215.617 385.322 215.901 386.121 215.823C387.408 215.72 388.387 215.257 389.056 214.149V214.175Z" fill="#CA7B51"/>
<path d="M389.055 214.174C389.416 215.9 389.004 216.879 386.944 216.725C385.991 216.647 384.935 216.338 384.034 217.06C374.352 217.42 364.67 217.987 355.04 219.352C353.289 218.734 354.756 218.167 355.143 217.807C359.366 213.685 362.971 209.048 366.473 204.308C373.528 208.687 380.944 212.191 389.055 214.174V214.174Z" fill="white"/>
<path d="M197.374 156.136C206.489 155.492 214.755 157.475 220.909 164.714C224.591 169.042 224.308 174.684 220.214 178.651C213.519 185.142 205.279 186.611 196.318 185.142C194.258 183.442 194.361 180.892 194.129 178.651C193.408 171.953 194.206 165.332 195.88 158.815C196.138 157.785 196.601 156.909 197.374 156.187V156.136Z" fill="#6F4A87"/>
<path d="M197.373 156.136C196.317 160.927 195.159 165.667 194.772 170.588C194.386 175.534 195.03 180.377 196.343 185.142C189.777 185.168 184.035 182.901 179.322 178.47C173.606 173.112 174.456 165.178 181.099 160.567C185.966 157.192 191.451 155.749 197.373 156.136Z" fill="#F9F3F0"/>
<path d="M158.955 217.291C145.925 217.266 136.784 205.519 140.466 193.54C141.11 191.428 142.063 189.47 144.689 190.114C147.29 190.758 147.496 192.922 146.749 195.06C143.659 203.741 152.105 213.453 163.255 210.336C169.177 208.687 173.375 205.081 175.435 199.182C175.769 198.229 176.104 197.224 176.619 196.374C177.314 195.215 178.499 194.777 179.812 195.086C181.151 195.395 181.872 196.322 182.001 197.713C182.13 199.053 181.898 200.341 181.46 201.629C178.267 210.903 169.1 217.291 158.98 217.266L158.955 217.291Z" fill="#D41B75"/>
<path d="M202.342 139.314C208.11 139.34 213.801 139.803 219.286 141.813C221.14 142.483 222.891 143.307 224.204 144.801C225.182 145.909 225.337 147.223 224.436 148.459C223.534 149.696 222.195 150.082 220.908 149.361C209.243 142.946 197.141 144.956 184.987 147.326C184.884 147.326 184.781 147.377 184.678 147.403C182.618 147.763 180.3 148.227 179.682 145.445C179.141 142.92 181.176 142.122 183.158 141.632C189.467 140.113 195.853 139.314 202.342 139.34V139.314Z" fill="#261A17"/>
<path d="M446.634 162.627C446.505 175.791 437.261 186.121 424.592 188.002C413.622 189.625 401.777 181.742 398.301 170.51C397.529 168.011 397.348 165.59 399.589 163.735C401.134 162.447 402.962 162.344 404.79 163.22C406.644 164.096 407.211 165.899 407.854 167.625C409.992 173.215 413.803 176.719 419.854 177.878C427.656 179.346 437.312 172.88 436.488 161.314C436.385 160 436.051 158.635 436.205 157.347C436.488 155.157 437.699 153.482 440.042 153.096C442.437 152.71 444.291 153.637 445.346 155.878C446.454 158.248 446.531 160.824 446.634 162.653V162.627Z" fill="#B43D8E"/>
<path d="M383.958 158.325C382.825 160 380.893 159.794 379.297 160.077C373.915 161.056 368.533 161.159 363.152 159.845C360.371 159.176 358.13 157.604 356.07 155.801C353.341 153.405 352.852 149.49 354.551 145.935C356.405 142.045 359.65 139.597 363.306 137.614C368.018 135.038 373.117 133.75 378.473 133.054C380.842 132.745 381.486 133.595 381.692 135.527C383.546 137.434 382.953 139.984 383.211 142.225C383.752 146.579 384.009 150.984 384.524 155.363C384.653 156.393 384.627 157.424 383.983 158.3L383.958 158.325Z" fill="#010101"/>
<path d="M383.957 158.326C383.21 150.726 382.438 143.127 381.691 135.527C381.562 133.312 382.36 132.488 384.755 132.9C388.077 133.466 391.424 133.724 394.514 135.27C401.209 138.619 402.626 145.033 397.682 150.649C394.051 154.771 389.648 157.733 383.957 158.326V158.326Z" fill="#E3E1E1"/>
<path d="M376.644 127.747C369.048 128.056 361.915 130.091 355.143 133.466C353.16 134.445 351.306 135.398 349.838 132.951C348.319 130.426 349.838 128.829 351.924 127.773C360.628 123.291 369.846 120.843 379.683 121.075C381.974 121.127 384.24 121.977 384.034 124.759C383.854 127.309 381.665 127.799 379.425 127.747C378.498 127.747 377.571 127.747 376.644 127.747V127.747Z" fill="#EB610C"/>
<path d="M475.062 156.136C475.088 158.712 472.049 161.881 469.603 161.932C468.367 161.958 468.264 161.211 468.419 160.335C468.831 158.016 469.243 155.724 469.706 153.431C470.041 151.757 470.582 150.752 472.436 152.298C473.723 153.354 475.165 154.178 475.062 156.136V156.136Z" fill="#CA7B51"/>
<path d="M118.295 179.63C117.445 181.613 116.647 183.623 114.51 184.602C110.029 183.88 106.888 181.253 104.699 177.466C102.69 173.988 103.823 169.171 107.377 165.848C110.621 162.808 114.664 161.108 118.861 158.841V167.213C117.651 168.269 115.874 168.321 114.844 169.841C112.656 173.138 113.222 176.435 116.544 178.47C117.136 178.831 117.909 178.96 118.321 179.604L118.295 179.63Z" fill="#EABBA2"/>
<path d="M118.294 179.63C114.689 179.217 112.629 177.028 112.732 173.679C112.835 169.686 115.05 167.342 118.835 167.213C119.376 170.716 118.835 174.323 120.097 177.749C119.736 178.599 119.067 179.166 118.294 179.63V179.63Z" fill="#CB9578"/>
<path d="M199.846 175.07C199.846 176.796 199.846 178.548 199.846 180.274C199.846 180.763 199.769 181.355 199.099 181.355C198.533 181.355 198.095 181.046 198.044 180.48C197.657 176.95 196.833 173.421 197.76 169.84C197.941 169.119 198.044 168.346 199.022 168.475C200.052 168.604 199.846 169.506 199.872 170.15C199.923 171.772 199.872 173.421 199.872 175.044C199.872 175.044 199.872 175.044 199.846 175.044V175.07Z" fill="#F2EAF4"/>
<path d="M201.029 164.302C201.029 165.203 200.668 165.899 199.69 165.951C198.763 166.002 198.557 165.332 198.531 164.559C198.531 163.478 199.098 162.756 200.102 162.73C200.978 162.73 201.106 163.555 201.029 164.302Z" fill="#F0E8F2"/>
<path d="M380.146 151.37C380.146 152.71 380.146 154.049 380.146 155.363C380.146 156.239 379.889 157.037 378.884 157.166C378.035 157.269 377.468 156.677 377.314 155.955C376.618 152.607 376.85 149.232 376.953 145.831C376.953 145.084 377.623 144.853 378.266 144.853C379.271 144.853 379.811 145.574 379.863 146.424C379.966 148.047 379.889 149.696 379.889 151.344C379.966 151.344 380.043 151.344 380.146 151.344V151.37Z" fill="#FAEEE7"/>
<path d="M379.452 140.731C379.452 141.993 378.885 142.714 377.675 142.74C376.413 142.74 375.95 141.761 375.795 140.782C375.641 139.803 376.13 138.979 377.237 138.902C378.551 138.799 379.272 139.52 379.452 140.757V140.731Z" fill="#F3E7E0"/>
</g>
</g>
<defs>
<clipPath id="clip0_5484_43231">
<rect width="595" height="297" fill="white"/>
</clipPath>
<clipPath id="clip1_5484_43231">
<rect width="618" height="298" fill="white" transform="translate(-12)"/>
</clipPath>
</defs>
</svg>
