<svg width="595" height="287" viewBox="0 0 595 287" fill="none" xmlns="http://www.w3.org/2000/svg">
<g clip-path="url(#clip0_5114_42541)">
<path d="M102.835 287H0.0244141C0.0244141 191.557 0.0244141 96.1133 0.0244141 0.64509C1.06566 0.0992741 2.18129 0.372182 3.24733 0.372182C199.126 0.372182 395.005 0.372182 590.884 0.372182C594.975 0.372182 594.553 -0.0743944 594.553 3.99442C594.553 97.2545 594.553 190.515 594.553 283.775C594.553 284.842 594.826 285.958 594.281 287H511.08C509.84 285.611 510.262 283.948 510.336 282.361C511.08 279.16 511.749 275.935 511.229 272.61C511.848 265.664 511.576 258.742 511.179 251.795C511.08 249.934 511.253 248.049 510.41 246.312C510.063 245.022 510.039 243.707 510.088 242.417C510.41 239.787 511.65 237.256 510.287 234.428C509.543 232.915 508.923 231.674 507.212 231.302C505.031 229.019 503.568 226.191 501.188 224.058C500.196 223.164 499.229 222.544 497.915 222.321C491.445 221.18 484.949 220.088 478.479 218.773C476.892 218.227 475.33 217.533 473.57 217.855C472.777 217.88 471.983 217.781 471.19 217.607C469.182 217.012 467.199 216.292 465.042 216.714C457.356 215.374 449.547 215.771 441.837 214.828C440.448 214.655 439.085 214.729 437.721 214.853C436.978 214.828 436.531 214.456 436.432 213.712C436.432 212.719 437.002 212 437.845 211.603C445.853 207.981 451.084 201.629 455.15 194.137C455.745 193.591 456.563 193.343 457.108 192.748C457.604 192.326 458.1 191.904 458.621 191.507C459.414 191.036 460.059 190.415 460.604 189.671C460.778 189.473 460.976 189.274 461.174 189.125C461.968 188.629 462.81 188.183 463.455 187.513C472.628 178.259 479.074 167.441 482.396 154.788C482.768 153.35 482.768 151.836 483.09 150.397C483.462 149.107 483.759 147.817 484.156 146.527C484.702 145.063 485.991 144.964 487.28 144.716C496.626 142.855 501.287 136.355 497.544 127.299C497.197 126.505 496.849 125.761 496.155 125.19C495.139 124.099 493.998 123.106 493.651 121.568C493.527 118.715 493.403 115.837 493.478 112.984C493.701 103.258 490.18 94.6743 484.825 86.9833C475.504 73.6356 462.761 64.8033 447.093 60.2631C440.721 58.4272 434.226 57.2115 427.557 57.2115C422.202 55.971 416.624 56.0702 411.293 54.7305C407.451 53.2915 403.558 53.4404 399.666 54.532C394.212 55.45 388.807 56.616 383.651 58.6504C377.825 60.9329 372.494 64.0094 367.363 67.6812C359.057 73.6108 353.504 81.7236 348.769 90.3822C345.248 96.7831 342.844 103.755 341.009 110.85C340.488 112.86 339.819 114.82 339.323 116.829C339.05 117.847 337.241 119.112 339.819 119.633C342.571 119.757 345.348 119.434 348.099 119.856C348.62 119.906 349.091 120.08 349.488 120.402C350.926 122.561 349.562 124.595 349.19 126.679C349.066 127.473 349.116 128.292 349.066 129.11C347.009 146.403 350.777 162.306 360.347 176.844C360.743 177.44 361.09 178.085 361.636 178.581C362.776 180.095 363.619 181.831 365.082 183.097C365.578 183.543 366.049 184.014 366.47 184.535C367.164 185.478 368.057 186.272 368.924 187.066C374.651 192.996 381.717 196.94 388.981 200.587C389.675 200.786 390.32 201.133 390.989 201.406C393.344 203.118 395.848 204.706 396.592 207.807C396.765 209.891 397.063 212 396.294 214.034C394.361 213.662 393.964 216.491 392.03 216.094C381.965 216.391 371.875 215.994 361.809 216.689C359.628 216.491 357.57 217.185 355.463 217.582C351.372 218.326 347.207 218.773 343.191 219.964C341.902 220.113 341.059 220.907 340.439 221.998C339.596 223.388 338.827 224.827 337.96 226.216C336.745 227.928 336.348 229.962 335.604 231.873C333.175 244.972 330.448 258.047 330.274 271.469C330.225 275.141 330.894 278.738 331.291 282.385C331.464 283.924 332.059 285.511 331.018 286.975H228.207C227.141 285.884 227.141 284.469 227.116 283.105C226.992 276.183 227.562 269.311 228.133 262.438C228.678 255.913 228.033 249.413 227.463 242.938C227.066 238.522 227.612 234.056 226.719 229.689C226.372 228.077 226.174 226.439 226.1 224.777C225.926 221.006 225.133 220.014 221.389 218.748C220.67 218.5 220.125 217.954 219.455 217.657C218.935 217.359 218.365 217.16 217.794 217.012C211.076 215.052 204.283 213.34 197.267 212.868C194.267 212.099 191.168 212 188.119 211.826C187.623 211.826 187.152 211.826 186.656 211.826C185.863 211.901 185.045 211.926 184.251 211.826C183.136 211.801 182.045 211.876 180.929 211.653C179.913 211.256 178.822 211.231 177.781 210.983C175.723 210.09 175.227 207.931 173.988 206.343C173.715 205.922 173.516 205.45 173.417 204.929C173.318 201.357 172.996 197.759 173.591 194.211C174.037 193.244 174.93 192.996 175.847 192.723C178.053 192.078 180.334 192.003 182.615 192.003C192.606 192.003 202.597 192.003 212.613 192.003C218.315 192.003 219.084 191.085 218.241 185.528C217.993 183.866 217.695 182.203 217.67 180.516C217.423 169.253 216.58 158.039 215.514 146.825C215.563 140.647 215.34 134.494 214.398 128.341C213.704 123.826 214.497 119.137 213.778 114.572C213.605 113.505 213.505 112.438 213.233 111.396C213.01 110.329 212.935 109.287 213.084 108.22C212.96 103.904 213.208 99.5618 212.34 95.2697C212.142 94.8728 211.993 94.4262 211.82 94.0044C210.878 92.6151 209.489 92.9872 208.175 93.1361C200.118 93.3098 192.061 93.2105 184.003 93.2105C182.913 93.2105 181.847 93.1361 180.83 92.6895C180.309 92.4166 179.888 92.0196 179.59 91.5234C178.45 88.447 179.119 85.2466 178.946 82.0957C178.772 78.4983 178.5 78.2254 174.954 78.2998C166.253 78.4983 157.526 78.5231 148.799 78.3494C137.296 78.1262 125.842 79.1682 114.364 79.0441C111.091 78.9945 110.57 79.5899 110.521 82.8896C110.347 93.8804 110.595 104.871 110.422 115.862C110.372 121.742 110.67 127.597 110.347 133.477C110.273 133.799 110.199 134.122 110.149 134.444C109.728 136.107 108.29 136.553 106.926 137.124C104.497 138.141 102.488 139.63 101.621 142.26C100.951 143.5 100.48 144.79 100.852 146.229C101.174 150.174 102.86 153.225 106.554 154.937C108.984 156.054 109.232 158.088 109.257 160.371C109.257 169.749 109.257 179.127 109.257 188.48C109.257 193.641 109.802 194.087 115.107 193.938C122.396 193.74 129.685 192.896 136.974 193.244C138.635 193.318 140.37 193.169 141.659 194.559C142.205 195.303 142.378 196.146 142.403 197.064C141.932 200.066 143.246 202.92 143.147 205.897C141.337 208.427 141.163 211.901 138.486 213.935C129.784 215.424 121.181 217.21 112.876 220.286C110.273 221.254 107.843 222.643 105.265 223.611C102.712 224.231 103.108 226.191 103.207 228.027C103.232 229.317 103.207 230.582 102.959 231.848C102.042 236.661 101.893 241.524 101.918 246.411C102.216 251.547 102.315 256.658 101.993 261.793C101.794 265.54 101.993 269.261 103.059 272.908C103.554 276.605 103.183 280.351 103.778 284.048C103.951 285.139 103.629 286.181 102.835 287.025V287Z" fill="#7BC3AF"/>
<path d="M436.606 213.414C436.73 213.886 436.854 214.382 437.374 214.605C438.589 214.803 439.085 215.821 439.63 216.714C441.366 219.517 443.225 222.246 445.035 224.976C445.679 226.514 446.621 227.878 447.638 229.193C450.266 233.113 452.795 237.083 455.224 241.102C456.365 242.987 457.728 243.608 459.86 243.161C462.24 242.64 464.645 241.995 467.124 242.144C470.496 243.36 473.991 242.69 477.066 241.648C479.222 240.928 481.255 239.812 483.611 239.613C483.908 239.589 484.206 239.613 484.478 239.688C485.668 240.457 485.718 242.144 486.982 242.863C487.181 243.111 487.305 243.409 487.404 243.707C487.776 247.156 487.999 250.629 488.668 254.053C488.619 261.347 489.883 268.566 489.957 275.86C489.957 276.878 490.354 277.796 490.527 278.763C490.676 281.542 491.519 284.42 489.685 287H350.033C349.289 286.256 349.066 285.313 348.967 284.296C348.075 273.131 348.248 261.992 349.066 250.852C349.24 248.594 349.81 246.411 349.686 244.104C349.587 242.367 350.43 240.854 351.917 239.787C352.711 239.266 353.628 239.241 354.52 239.192C359.95 240.085 365.305 241.4 370.734 242.194C372.519 242.417 374.453 244.178 375.916 241.598C376.015 241.35 376.163 241.127 376.312 240.903C377.577 239.241 378.469 237.331 379.684 235.644C380.18 234.924 380.601 234.13 381.023 233.361C381.568 232.543 382.163 231.749 382.461 230.806C382.585 230.434 382.733 230.111 382.956 229.789C383.328 229.268 383.75 228.796 384.122 228.3C384.865 227.233 385.758 226.241 386.031 224.926C386.402 223.735 387.072 222.743 387.89 221.849C388.46 221.304 388.882 220.659 389.328 219.989C390.567 218.674 390.815 216.491 392.823 215.796C393.245 215.176 393.642 214.555 394.088 213.985C394.336 213.637 394.658 213.34 394.956 213.017L395.6 214.481C397.063 215.523 396.865 217.086 396.716 218.5C396.369 221.924 396.096 225.348 395.327 228.697C395.03 229.59 394.385 230.31 394.038 231.178C392.972 232.865 392.08 234.701 390.617 236.115C390.369 236.264 390.096 236.338 389.824 236.388C388.212 236.338 387.369 235.247 386.65 233.932C387.072 235.52 388.882 236.14 389.154 237.753C389.229 239.762 387.617 240.978 386.874 242.615C386.08 244.228 386.923 244.724 388.361 244.923C391.683 245.394 395.03 245.692 398.377 246.014C412.781 247.354 427.16 246.634 441.514 245.344C441.812 245.32 442.109 245.27 442.382 245.22C445.084 244.749 445.184 244.55 443.646 242.392C442.159 240.308 440.523 238.323 439.134 236.14C438.787 235.42 438.267 234.8 437.721 234.205C433.879 230.583 432.961 226.067 433.482 221.031C433.606 219.865 433.531 218.674 433.432 217.508C433.308 216.466 433.407 215.449 433.705 214.456C434.35 213.29 435.068 212.323 436.556 213.365L436.606 213.414Z" fill="#005559"/>
<path d="M138.585 213.389C140.221 211.156 140.073 207.981 142.478 206.194C144.139 207.559 143.593 209.469 143.692 211.231C143.444 213.191 143.395 215.175 143.692 217.135C143.742 219.815 142.18 222.048 141.535 224.529C141.312 225.075 141.064 225.62 140.866 226.166C138.932 231.029 137.321 236.041 135.263 240.854C135.139 241.275 135.065 241.722 134.891 242.119C134.247 243.211 134.271 244.873 132.462 244.972C130.825 244.253 131.569 242.268 130.404 241.102C129.759 241.92 130.528 242.317 130.825 242.814C132.933 246.659 131.024 251.224 126.834 251.894C124.454 252.291 125.743 253.656 125.768 254.747C125.768 253.755 125.123 252.217 126.809 252.291C128.842 252.39 130.379 253.432 130.305 255.888C130.429 254.648 130.825 253.556 131.619 252.638C132.586 251.522 133.924 251.671 135.189 251.646C136.85 251.596 138.536 251.72 140.221 251.472C142.081 251.423 143.915 251.373 145.75 251.696C151.75 252.514 157.749 252.44 163.724 251.745C165.211 251.447 166.724 251.447 168.236 251.472C169.302 251.696 170.343 251.323 171.385 251.323C172.302 251.497 173.269 251.571 174.161 251.919C175.203 252.291 174.36 251.472 174.558 251.323C174.707 251.075 174.905 250.902 175.153 250.753C180.855 249.512 186.582 248.445 192.185 246.833C193.648 246.361 193.697 245.344 193.325 244.054C192.978 242.888 192.929 241.672 194.59 241.375C196.176 242.144 196.821 244.228 198.804 244.451C199.647 244.253 200.465 244.029 201.159 243.483C201.705 243.111 202.225 242.665 202.82 242.392C204.878 241.747 206.539 239.985 208.919 240.233C209.762 240.581 210.357 241.176 210.803 241.945C211.572 243.533 211.473 245.22 211.473 246.907C211.473 256.509 211.473 266.085 211.473 275.687C211.473 278.068 211.423 280.425 211.82 282.782C212.068 284.271 212.068 285.759 210.927 286.975H114.116C113.298 286.156 113.05 285.114 113.05 284.023C113.05 279.061 112.728 274.074 113.248 269.112C113.397 268.219 113.843 267.425 114.017 266.532C114.736 261.619 114.562 256.682 114.116 251.77C113.868 250.951 113.868 250.108 114.041 249.264C114.215 248.619 114.513 248.024 114.934 247.503C115.38 247.006 115.926 246.659 116.595 246.485C117.884 246.237 119.099 246.361 120.115 247.279C120.934 247.924 120.661 250.629 122.843 248.743C123.165 248.346 123.338 247.875 123.487 247.403C123.661 246.907 123.884 246.436 124.181 245.989C125.024 244.575 125.594 243.037 126.09 241.474C129.511 233.336 132.834 225.149 136.255 217.011C136.825 215.672 137.197 214.183 138.56 213.364L138.585 213.389Z" fill="#005559"/>
<path d="M466.827 242.963C464.025 243.384 461.199 243.732 458.398 244.278C457.084 244.526 456.266 244.352 455.497 243.087C452.696 238.472 449.77 233.932 446.894 229.367C446.126 227.928 445.556 226.365 444.217 225.298C441.936 221.725 439.63 218.178 437.35 214.605C439.754 212.174 442.63 213.886 445.134 214.059C451.853 214.531 458.67 214.357 465.315 215.771C467.224 216.714 469.38 216.242 471.364 216.863L473.645 216.962C475.231 217.458 476.843 217.756 478.454 218.054C485.495 219.269 492.685 219.914 499.502 221.874C503.543 223.04 505.725 227.308 507.609 231.153C509.989 233.163 510.311 236.016 510.659 238.819C510.783 239.861 510.609 240.953 511.006 241.97L511.105 245.89C511.7 247.329 511.13 248.52 510.287 249.636C509.394 250.604 509.592 251.82 509.568 252.986C509.444 256.881 509.84 260.801 509.345 264.696C506.717 268.393 506.816 272.387 508.006 276.53C508.551 278.416 509.27 280.277 509.32 281.988C509.493 280.227 508.031 277.994 510.064 276.158C510.584 275.985 511.055 276.059 511.402 276.53C511.774 278.515 511.377 280.45 511.154 282.41L511.105 287.05H489.71L489.66 278.887C489.561 274.471 489.239 270.08 488.991 265.688C488.768 261.893 488.371 258.072 488.073 254.276C487.875 251.721 489.338 249.537 488.842 247.031C488.619 245.915 489.04 244.6 487.776 243.856C487.503 243.657 487.305 243.434 487.131 243.161C486.71 242.466 486.561 241.747 487.057 241.027C487.726 240.531 487.9 239.489 489.189 239.192C487.677 239.192 487.925 240.606 487.106 240.928C485.966 241.3 485.594 240.407 485.123 239.688C484.33 237.653 484.528 235.42 483.933 233.411C484.008 235.495 485.371 237.579 484.156 239.812C479.966 240.11 476.223 242.194 472.033 242.69C470.298 242.913 468.513 242.367 466.827 243.012V242.963Z" fill="#F6E8D7"/>
<path d="M352.438 239.911C351.05 241.226 350.752 242.913 350.579 244.724C349.364 258.791 349.314 272.883 350.008 286.975H330.993C329.134 277.448 328.539 267.921 330.126 258.245C331.439 250.306 332.382 242.293 333.943 234.403C334.167 233.237 334.34 232.071 335.133 231.128C336.274 230.433 336.993 230.508 336.943 232.096C336.918 233.163 336.695 234.279 337.216 235.073C336.993 232.046 336.125 228.821 337.439 225.62C337.91 224.082 338.927 222.891 339.819 221.601C340.885 221.13 341.728 220.361 342.273 219.319C346.463 217.805 350.851 217.284 355.239 216.838C357.223 216.267 359.404 216.937 361.289 215.771C370.66 214.828 380.056 215.175 389.452 215.151C390.592 215.151 391.857 214.754 392.824 215.796L389.849 220.46C389.08 220.758 388.634 221.328 388.559 222.147L386.75 225.174C386.08 226.464 384.593 227.283 384.518 228.92C384.444 229.59 384.122 229.987 383.378 229.962C382.907 230.285 382.386 230.855 381.841 230.682C378.643 229.788 377.849 231.997 377.056 234.254C376.635 234.775 376.238 235.296 375.544 235.916C376.312 235.495 376.486 234.899 376.907 234.477C377.378 233.857 377.552 233.063 377.973 232.418C379.337 230.285 379.882 230.26 381.791 232.418C381.841 232.89 381.692 233.311 381.543 233.733C381.32 234.577 380.874 235.296 380.229 235.867C379.337 236.338 378.742 237.033 378.296 237.976C377.602 239.415 376.461 240.258 374.775 240.035C374.602 240.035 374.428 240.01 374.23 240.035C374.503 240.035 374.775 240.035 375.048 240.035C375.866 240.159 376.982 239.911 376.783 241.375C376.808 241.573 376.734 241.722 376.56 241.821C375.222 244.104 373.164 243.359 371.23 243.062C365.627 242.417 360.074 241.523 354.644 239.911C353.38 239.712 353.107 239.067 353.43 237.827C353.901 236.041 354.372 234.229 354.694 232.815C353.777 234.85 354.074 237.678 352.388 239.886L352.438 239.911Z" fill="#F6E8D7"/>
<path d="M208.597 240.63C206.613 241.4 205.076 243.211 202.721 243.087C200.787 243.285 200.242 241.226 198.779 240.705C198.06 240.705 197.986 241.424 197.589 241.797C197.391 241.97 197.143 242.045 196.895 242.045C194.837 241.151 194.143 239.142 193.127 237.405C192.829 236.512 192.408 235.668 191.838 234.899C188.962 230.434 185.987 225.993 183.557 221.254C182.739 217.805 181.723 214.481 178.475 212.446C178.103 212.099 177.979 211.702 178.128 211.206C178.946 210.362 179.863 210.635 180.805 210.908L184.251 210.983C184.995 211.801 184.499 212.893 184.896 213.836C185.441 212.843 185.714 211.702 186.631 211.008H187.821C190.3 212.571 192.928 212.943 195.73 212C196.3 211.801 196.895 211.801 197.44 212.124C204.804 212.248 211.844 214.059 218.737 216.515C219.084 216.813 219.307 217.359 219.927 216.987L221.191 217.929C221.34 218.227 221.538 218.475 221.588 218.798C221.935 219.542 222.48 218.748 222.902 218.922C224.86 220.882 225.133 225.67 223.273 228.374C222.307 229.764 221.959 231.203 222.083 232.815C222.133 233.535 222.554 233.535 223.1 233.212C223.546 232.89 223.992 232.617 224.488 232.394C225.232 232.096 225.901 232.096 226.397 232.865C226.496 231.476 225.48 229.789 227.463 228.92C228.554 239.613 229.719 250.306 229.298 261.049C228.975 269.708 228.108 278.341 228.257 287.025H211.026C210.109 272.759 210.704 258.494 210.283 244.228C210.258 243.36 210.555 242.442 209.836 241.697C208.795 239.762 209.44 237.653 209.241 235.842C208.944 237.281 209.836 239.067 208.646 240.63H208.597Z" fill="#F6E8D7"/>
<path d="M120.066 247.9C119.025 247.081 117.76 247.056 116.521 247.031C115.231 245.716 116.322 244.054 115.876 242.938C115.703 244.327 116.322 246.138 115.355 247.776L114.76 248.991C113.843 250.803 114.86 252.614 114.76 254.45C114.438 259.213 115.207 264.026 114.165 268.765C114.389 274.843 113.645 280.897 114.116 286.975H102.836C102.786 282.261 101.894 277.572 102.191 272.834C101.323 269.708 102.29 266.507 101.646 263.381C101.546 262.885 101.447 262.438 101.125 262.041V245.989C102.612 244.352 101.472 242.491 101.646 240.73C101.844 238.571 101.77 236.413 101.943 234.279C102.017 233.411 101.745 232.493 102.191 231.649L102.315 227.556C102.96 225.943 102.612 223.859 104.621 222.916C114.165 217.805 124.603 215.573 135.065 213.464C136.205 213.24 137.42 213.389 138.585 213.364L126.809 241.896C125.842 243.26 124.801 244.6 124.751 246.411L124.181 247.776C123.19 248.123 122.198 248.297 121.157 248.396C120.735 248.346 120.388 248.148 120.066 247.9V247.9Z" fill="#F6E8D7"/>
<path d="M594.256 287C594.256 192.847 594.256 98.7183 594.256 4.56501C594.256 0.124049 594.777 0.645055 590.265 0.645055C393.518 0.645055 196.771 0.645055 0.0247476 0.645055C0.148706 0.471387 -0.272752 0.0248098 0.322248 0.0496196C1.11558 0.0744295 1.90891 0.0496196 2.70225 0.0496196C199.127 0.0496196 395.551 0.0744295 591.975 0C594.281 0 594.926 0.297718 594.926 2.82832C594.851 96.6591 594.851 190.49 594.826 284.321C594.826 285.189 595.521 286.33 594.281 287H594.256Z" fill="white"/>
<path d="M101.001 141.937C101.571 138.637 104.199 137.347 106.827 136.181C107.695 135.809 108.662 135.635 109.356 134.916C111.761 133.824 114.339 134.196 116.868 134.047C120.785 133.799 124.751 134.544 128.644 133.452C132.363 132.956 136.106 133.328 139.825 133.154C142.825 133.03 143.172 132.708 143.271 129.681C143.37 126.729 143.246 123.776 143.32 120.849C143.444 116.879 144.114 116.234 148.006 116.184C148.998 116.184 149.965 116.184 150.956 116.184C158.468 116.184 165.955 116.184 173.467 116.184C174.756 116.184 176.045 116.209 177.235 115.713C180.186 114.919 179.516 112.413 179.764 110.329C179.789 105.442 179.764 100.554 179.789 95.6666C179.789 94.4261 179.516 93.0864 180.657 92.094C190.152 92.1188 199.672 92.1684 209.167 92.1932C210.159 93.012 211.572 92.5158 212.588 93.2849L212.836 94.4261C212.167 99.0656 212.39 103.631 213.878 108.121L213.977 110.999C213.258 116.035 215.142 120.997 213.977 126.133C213.035 130.326 214.125 134.792 213.183 139.084C213.332 138.414 213.283 137.744 213.357 137.074C213.431 136.454 213.704 135.883 214.398 135.859C215.291 135.809 215.588 136.479 215.613 137.223C215.737 139.382 216.01 141.515 215.737 143.674C215.613 144.716 215.365 145.857 216.282 146.75C216.902 149.132 217.224 151.563 217.324 154.044C217.745 165.258 218.365 176.472 219.58 187.637C219.976 191.259 218.638 192.871 215.117 192.921C202.002 193.095 188.863 193.244 175.748 193.417C165.41 195.601 154.849 194.087 144.461 195.278C143.345 195.402 142.304 195.204 141.263 194.831C135.387 193.789 129.487 194.385 123.586 194.559C119.372 194.683 115.157 195.253 110.918 194.807C108.736 194.583 107.968 193.517 108.017 191.284C108.166 180.814 108.166 170.344 108.265 159.874C108.265 157.939 108.166 156.624 105.811 155.682C101.522 153.92 99.4392 150.347 99.8855 145.559C100.679 144.468 100.332 143.029 100.952 141.887L101.001 141.937Z" fill="#A47460"/>
<path d="M360.124 177.688C356.207 173.421 354.05 168.087 351.967 162.876C348.199 153.424 347.083 143.475 347.604 133.328C347.678 131.839 347.802 130.376 348.298 128.961C348.967 128.192 348.943 127.398 348.372 126.605C348.422 124.645 349.562 122.858 349.364 120.849C349.166 119.831 349.389 118.864 349.711 117.921C351.397 111.421 354.025 105.367 358.289 100.108C359.008 99.661 359.355 98.9664 359.529 98.1476C362.305 92.7639 367.04 89.1169 371.205 84.9736C373.883 82.319 377.155 80.4582 380.304 78.4486C382.114 77.3074 384.072 76.8112 386.229 77.1089C398.65 81.1033 408.145 89.0424 415.93 99.2393C420.467 105.169 424.136 111.595 425.648 119.013C425.97 120.625 426.863 121.394 428.499 121.37C437.969 121.221 447.465 121.841 456.935 120.997C460.778 120.65 464.645 120.849 468.488 120.824C475.702 120.799 482.917 120.824 490.131 120.824C491.594 120.824 493.131 120.65 494.346 121.791L496.8 124.744C496.874 125.562 497.122 126.257 497.965 126.58C502.13 132.782 499.155 141.441 491.817 144.368C490.106 145.038 488.396 145.882 486.437 145.609C485.569 145.485 484.9 145.782 484.751 146.775C483.71 147.817 484.206 149.256 483.735 150.472C483.14 158.584 479.768 165.73 475.925 172.652C472.653 178.556 468.513 183.866 463.381 188.331C462.712 188.852 461.472 188.48 461.199 189.671C460.332 190.415 459.538 191.234 458.77 192.053L457.505 193.144C456.786 192.574 456.737 191.805 456.786 191.011C456.811 190.713 456.885 190.415 456.985 190.118C457.803 188.976 457.902 187.661 457.902 186.297C457.976 185.826 458.1 185.379 458.299 184.957C459.563 180.144 459.414 175.331 457.952 170.592C456.613 167.466 455.596 164.216 454.357 161.065C454.282 160.271 454.134 159.502 453.439 158.981C449.82 154.019 445.68 149.603 440.573 146.105C440.052 145.41 439.283 145.237 438.49 145.137C435.441 143.996 432.342 142.954 429.416 141.441C426.664 139.704 423.64 140.771 420.739 140.622C418.037 140.622 415.508 141.788 412.806 141.813C411.442 141.565 410.203 141.937 409.062 142.632C405.592 143.847 402.666 146.254 399.121 147.321C398.253 147.172 397.881 147.643 397.733 148.437C397.286 149.454 396.543 150.273 395.724 150.968C389.452 156.277 386.304 163.348 384.295 171.064C383.031 175.877 383.031 180.715 384.295 185.528C385.188 190.688 387.865 195.154 390.022 199.818C390.022 200.761 389.155 200.885 388.584 201.307C381.42 198.057 374.825 193.938 369.098 188.48C368.726 188.133 368.404 187.81 368.33 187.289C367.834 186.595 368.107 186.074 368.677 185.627C368.875 185.553 369.024 185.478 369.073 185.379C369.073 185.379 368.974 185.329 368.801 185.329C367.784 185.329 366.768 185.577 365.9 184.858L364.76 183.692C364.115 182.079 362.925 180.814 361.884 179.449C361.785 178.308 360.57 178.333 360.024 177.688H360.124Z" fill="#FAD6C7"/>
<path d="M494.395 121.816C483.239 121.891 472.058 121.965 460.902 122.064C450.142 122.164 439.358 122.238 428.598 122.436C426.169 122.486 425.127 122.064 424.607 119.261C422.995 110.429 418.161 103.11 412.409 96.411C405.12 87.9012 396.369 81.4755 385.684 77.8036C384.469 77.2578 383.205 77.4067 381.915 77.5059C380.205 77.6548 378.742 77.0345 377.998 75.3971C377.279 73.8092 378.445 72.7424 379.436 71.8245C385.485 66.2422 392.551 62.3967 400.187 59.4195C409.137 55.9214 418.359 55.053 427.83 56.3679C443.225 56.4176 457.084 61.2555 469.579 70.1374C479.595 77.233 487.156 86.3134 491.668 97.8003C494.717 105.541 495.114 113.629 494.395 121.816V121.816Z" fill="#EF7F12"/>
<path d="M180.632 111.297C180.335 113.257 181.549 115.911 178.277 116.532C174.062 117.177 169.823 116.705 165.584 116.78C160.749 116.879 155.915 116.78 151.056 116.78C139.453 117.326 127.851 118.566 116.223 118.219C115.033 118.194 113.843 118.219 112.678 118.095C111.191 117.946 110.001 117.4 109.505 115.862C109.406 104.4 109.306 92.9375 109.257 81.4754C109.257 78.7959 110.596 77.8283 113.397 77.8035C134.445 77.6298 155.493 77.2825 176.541 76.9352C178.872 76.8855 180.111 77.6298 180.087 80.086C180.087 83.8323 180.136 87.6034 180.136 91.3497C180.682 96.6342 180.211 101.919 180.384 107.178C180.434 108.543 180.111 109.907 180.632 111.247V111.297Z" fill="#060707"/>
<path d="M440.97 145.584C446.399 148.884 450.638 153.349 454.035 158.684C454.63 159.18 454.803 159.899 455.151 160.544C456.341 163.67 457.531 166.821 458.721 169.947C459.811 175.083 460.183 180.243 458.844 185.404L458.696 186.446C458.349 187.686 458.423 189.051 457.63 190.142C457.555 190.291 457.506 190.465 457.531 190.639C456.985 191.854 457.233 193.393 456.018 194.335C452.498 200.513 448.581 206.343 442.234 210.04C440.35 211.132 438.491 212.273 436.606 213.364C435.54 213.141 434.896 213.861 434.177 214.406C432.466 216.193 430.334 216.714 427.954 216.565C425.847 216.317 423.888 216.987 421.905 217.557C420.789 217.805 419.649 217.805 418.533 217.533C416.996 216.813 415.385 216.342 413.649 216.54C406.757 215.25 400.311 213.116 395.75 207.336C394.113 205.401 392.775 203.168 390.37 202.002C390.147 201.406 389.453 201.009 389.626 200.24C387.023 195.799 384.296 191.383 383.8 186.074C382.337 180.864 382.908 175.629 383.8 170.419C385.387 161.81 389.601 154.764 396.27 149.132C396.717 148.76 397.113 148.313 397.535 147.916C397.758 147.296 398.229 146.949 398.873 146.874C402.121 145.113 405.245 143.103 408.815 141.962C409.955 141.416 411.22 141.217 412.434 140.87L420.566 139.704C423.764 140.324 427.136 139.431 430.235 140.87L439.135 144.418C439.73 144.815 440.474 144.989 440.97 145.534V145.584Z" fill="#EF8012"/>
<path d="M427.829 56.3926C420.863 56.5167 413.872 56.343 407.054 58.2782C396.989 61.1065 387.741 65.5226 379.982 72.6679C379.312 73.2881 378.048 73.8091 378.494 74.9504C379.015 76.1908 380.18 76.7119 381.618 76.7367C383.031 76.7615 384.618 76.439 385.684 77.8035C381.543 77.605 378.816 80.4085 375.841 82.5422C369.693 87.0079 364.264 92.218 360.074 98.6189C359.652 99.2144 359.528 100.008 358.859 100.43C354.967 105.863 352.165 111.818 350.43 118.268C349.537 118.938 349.017 119.906 348.248 120.675C345.1 120.898 341.926 120.973 338.778 120.6C337.86 119.434 338.009 118.243 338.629 117.028C339.224 111.719 340.959 106.657 342.72 101.695C345.248 94.5749 348.546 87.777 352.959 81.5746C357.619 75.0248 363.024 69.2937 369.718 64.6791C375.742 60.511 382.287 57.5835 389.204 55.6235C392.402 54.7055 395.774 53.5891 399.269 54.0357C403.261 53.217 407.228 53.2418 411.219 54.0357C416.797 54.4078 422.276 55.4498 427.78 56.4174L427.829 56.3926Z" fill="#F49949"/>
<path d="M109.48 115.887C110.596 117.102 112.034 117.078 113.546 117.102C126.041 117.326 138.511 116.16 151.006 116.581C151.18 116.705 151.229 116.829 151.155 116.929C151.08 117.028 151.006 117.078 150.956 117.078C146.61 117.144 144.436 119.319 144.436 123.603C144.436 126.059 144.337 128.54 144.486 130.996C144.635 133.526 143.42 134.32 141.114 134.296C136.875 134.271 132.611 134.296 128.371 134.296C122.049 134.668 115.728 134.792 109.381 134.296L109.48 115.812V115.887Z" fill="#795B4F"/>
<path d="M141.337 194.881C143.42 193.814 145.75 193.914 147.907 193.839C156.336 193.517 164.79 193.889 173.219 193.144C174.087 193.07 175.004 192.971 175.822 193.492C175.203 193.765 174.434 193.715 174.087 194.459C173.69 198.578 173.591 202.671 174.211 206.79C174.657 209.817 174.385 212.893 174.335 215.945C174.236 216.863 173.889 217.607 172.971 217.979C171.335 218.45 169.872 217.731 168.41 217.185C160.352 214.282 153.014 210.09 146.593 204.408C144.387 202.473 142.304 200.339 141.511 197.312L141.312 194.856L141.337 194.881Z" fill="#795B4F"/>
<path d="M395.749 207.385C399.443 209.717 402.839 212.571 407.079 213.935C409.236 214.63 411.269 215.622 413.574 215.821C415.062 216.739 416.921 216.044 418.433 216.863H421.879C423.838 216.242 425.995 216.739 427.904 215.845C430.16 216.143 431.945 214.406 434.151 214.481L434.226 217.508C434.127 217.979 433.903 218.401 433.68 218.823C430.433 222.222 426.094 223.76 421.954 225.472C414.715 228.449 407.128 230.185 399.319 230.855C397.856 230.979 396.369 231.128 394.956 230.434C394.559 230.111 394.162 229.789 394.584 229.193C394.857 224.306 395.923 219.443 395.6 214.506C395.65 212.124 395.699 209.767 395.724 207.385H395.749Z" fill="#D5A18D"/>
<path d="M141.536 197.337C149.444 207.757 160.254 213.761 172.476 217.582C172.377 218.872 171.335 219.368 170.369 219.815C164.096 222.743 157.551 223.388 150.808 221.998C149.073 221.626 147.436 220.907 146.296 219.418C145.701 218.649 146.593 216.49 144.313 217.26C144.015 217.21 143.767 217.061 143.569 216.863C142.974 215.796 143.47 214.58 143.098 213.489C142.85 212.819 143.147 212.05 142.701 211.429C142.627 209.668 142.577 207.906 142.503 206.145C141.957 203.217 141.263 200.314 141.561 197.312L141.536 197.337Z" fill="#A3735F"/>
<path d="M178.277 211.603L178.773 212.199C181.326 214.679 182.764 217.855 184.252 220.981C187.004 225.596 189.78 230.186 192.532 234.8C193.053 235.52 192.929 236.562 193.747 237.108L197.292 241.871C197.887 241.945 198.234 242.318 198.532 242.764C199.003 243.558 199.449 244.377 199.201 245.344C196.598 245.617 195.929 243.509 194.912 241.846C193.078 239.316 191.689 242.144 190.078 242.268C188.789 241.896 188.342 240.73 187.698 239.737C184.202 234.254 180.682 228.771 177.236 223.214C176.914 222.718 176.616 222.222 176.269 221.725C175.277 219.964 173.815 218.376 174.087 216.118C174.385 212.819 173.443 209.469 174.657 206.244L177.657 210.412C178.079 210.685 177.93 211.231 178.203 211.578L178.277 211.603Z" fill="#005659"/>
<path d="M216.382 146.8C214.597 146.403 215.093 144.989 215.266 143.922C215.713 141.391 215.341 138.96 214.721 135.933C213.357 138.439 214.473 140.796 213.283 142.756C212.564 132.162 212.986 121.593 214.027 111.049C214.994 112.661 214.82 114.522 214.845 116.209C214.969 126.431 216.828 136.553 216.407 146.8H216.382Z" fill="#A37463"/>
<path d="M511.055 276.307H509.865C509.716 276.158 509.592 276.034 509.444 275.885C508.551 273.206 508.898 270.402 509.047 267.698C509.32 262.389 509.196 257.079 509.27 251.795C509.27 250.827 509.146 249.81 509.865 248.966C510.039 247.825 511.377 247.155 511.105 245.865C511.898 247.056 512.096 248.396 512.171 249.785C512.518 257.427 513.113 265.093 512.195 272.734C511.278 273.751 512.939 275.587 511.03 276.282L511.055 276.307Z" fill="#F4E9D6"/>
<path d="M223.447 233.535C223.298 234.676 222.431 235.073 221.29 235.917C221.216 232.741 220.199 230.012 222.728 227.581C224.216 226.142 223.695 220.683 222.282 219.269C221.885 219.617 221.489 219.592 221.092 219.269C221.092 218.798 221.142 218.351 221.166 217.88C225.753 218.723 226.943 220.138 227.092 224.752C227.141 226.117 227.315 227.506 227.439 228.871C226.596 230.508 227.315 232.319 226.943 234.056C225.926 234.056 226.001 232.046 224.662 232.939C223.522 231.649 224.117 233.808 223.472 233.535H223.447Z" fill="#F6E7D8"/>
<path d="M213.902 108.171C212.092 107.253 212.018 105.218 211.745 103.779C211.225 101.224 211.596 98.5197 211.596 95.865C211.596 95.0463 212.067 94.6245 212.836 94.5005C214.497 98.9663 213.753 103.606 213.877 108.196L213.902 108.171Z" fill="#A47263"/>
<path d="M511.006 241.945C509.865 238.348 508.725 234.751 507.609 231.128C510.51 229.292 510.312 232.294 510.931 233.46C512.419 236.19 512.27 239.092 511.006 241.945Z" fill="#85C4B2"/>
<path d="M337.464 225.645C337.761 229.689 336.918 233.833 338.505 237.827C337.067 236.214 335.902 234.602 336.423 232.443C336.72 231.227 336.026 231.128 335.158 231.153C335.332 229.069 336.175 227.258 337.464 225.645Z" fill="#F2EAD7"/>
<path d="M102.191 231.649C102.439 236.884 101.646 242.169 103.852 247.85C101.67 246.858 102.662 245.568 101.943 244.848L101.125 245.989C101.15 241.201 101.001 236.388 102.166 231.649H102.191Z" fill="#EFE8D6"/>
<path d="M197.416 212.099C195.606 213.34 193.548 213.364 191.441 213.364C189.656 213.364 188.416 212.744 187.821 211.007C191.094 210.834 194.317 211.007 197.416 212.099V212.099Z" fill="#F3E9D6"/>
<path d="M411.269 54.0109C407.277 54.0109 403.311 54.0109 399.319 54.0109C399.493 53.3659 399.865 52.9689 400.559 52.9441C403.707 52.9441 406.856 52.9441 410.029 52.9441C410.699 52.9441 411.12 53.341 411.269 53.9861V54.0109Z" fill="#A2BC96"/>
<path d="M101.15 262.041C102.612 263.555 103.951 264.845 102.588 267.4C101.819 268.889 102.265 271.022 102.191 272.858C100.976 269.335 101.026 265.688 101.15 262.041Z" fill="#EDE8D6"/>
<path d="M173.591 216.565C173.591 210.015 173.566 203.465 173.591 196.916C173.591 196.072 173.293 195.129 174.136 194.459C174.161 198.131 174.186 201.778 174.211 205.45C174.731 208.948 174.36 212.447 174.409 215.945C174.285 216.342 174.012 216.54 173.616 216.565H173.591Z" fill="#41635F"/>
<path d="M109.381 134.37C115.703 134.37 122.024 134.37 128.371 134.37C127.255 135.337 125.917 134.891 124.677 134.916C119.57 134.965 114.463 134.94 109.356 134.94C109.306 134.742 109.306 134.568 109.381 134.37Z" fill="#9A705E"/>
<path d="M180.632 111.297C179.764 108.518 180.31 105.665 180.235 102.837C180.111 99.0159 180.161 95.1952 180.136 91.3745C180.31 91.6226 180.508 91.8707 180.682 92.1436C180.682 98.5197 180.632 104.921 180.632 111.297V111.297Z" fill="#8D7974"/>
<path d="M186.631 210.983C187.201 212.397 185.094 213.538 186.235 215.027C186.259 215.051 185.937 215.498 185.714 215.572C185.218 215.746 184.673 215.572 184.474 215.101C183.929 213.761 182.987 212.422 184.251 210.983H186.631Z" fill="#F3E9D6"/>
<path d="M362.504 178.879C363.099 180.566 365.603 181.335 364.859 183.692C362.95 182.65 362.157 180.715 361.141 178.978C361.562 178.482 362.033 178.531 362.504 178.879V178.879Z" fill="#F4D7C5"/>
<path d="M511.056 276.307C512.246 275.389 511.08 273.702 512.221 272.759C512.32 276.009 512.221 279.235 511.105 282.361C511.105 280.351 511.08 278.317 511.056 276.307Z" fill="#F0E5D7"/>
<path d="M174.037 216.491C174.087 212.819 174.136 209.122 174.161 205.45C174.335 205.723 174.508 205.996 174.706 206.269C174.706 209.866 174.657 213.464 174.657 217.061C174.26 217.086 174.037 216.912 174.037 216.491V216.491Z" fill="#2C4E4B"/>
<path d="M365.975 184.858C367.19 184.436 368.405 184.387 369.619 184.833C369.942 185.23 369.991 185.627 369.619 186.024C368.826 186.074 368.479 186.545 368.38 187.289C367.215 186.843 366.421 186.049 365.95 184.883L365.975 184.858Z" fill="#F4D7C5"/>
<path d="M436.631 54.8049C437.92 53.9365 439.184 53.9365 441.069 54.6808C439.234 55.574 437.92 55.2514 436.631 54.8049Z" fill="#7EC3B7"/>
<path d="M365.751 64.2327C365.379 64.8777 365.007 65.5724 364.264 65.5724C363.545 65.5724 362.975 64.9274 362.9 64.2823C362.826 63.7117 363.495 63.6372 363.991 63.6621C364.636 63.6621 365.355 63.5132 365.751 64.2575V64.2327Z" fill="#81C3B5"/>
<path d="M471.364 216.838C469.331 216.54 467.025 217.88 465.314 215.746C467.397 215.672 469.455 215.845 471.364 216.838Z" fill="#EFE4D8"/>
<path d="M478.479 218.054C476.545 219.17 475.033 218.376 473.645 216.962C475.355 216.838 476.991 217.111 478.479 218.054Z" fill="#EFE4D8"/>
<path d="M104.621 222.941C103.431 224.281 103.629 226.29 102.315 227.58C102.34 225.67 101.918 223.536 104.621 222.941Z" fill="#ECE7D5"/>
<path d="M361.338 215.796C359.677 218.078 357.297 216.441 355.289 216.863C357.223 216.118 359.256 215.87 361.338 215.796Z" fill="#E1E6D8"/>
<path d="M498.015 126.58C497.147 126.257 496.627 128.118 495.858 127.101C495.09 126.083 496.304 125.463 496.85 124.744C497.494 125.19 498.089 125.662 498.015 126.58Z" fill="#F1D9C8"/>
<path d="M107.026 157.964C105.662 158.932 104.769 158.634 103.555 158.411C104.646 157.071 105.588 157.493 107.026 157.964Z" fill="#86C2B2"/>
<path d="M338.63 117.028C338.679 118.219 338.729 119.41 338.779 120.6C336.795 119.484 337.043 118.268 338.63 117.028Z" fill="#BCB485"/>
<path d="M342.324 219.344C342.547 221.204 341.654 221.899 339.869 221.626C340.315 220.46 341.01 219.567 342.324 219.344Z" fill="#E8E6D6"/>
<path d="M348.249 120.675C347.803 118.814 349.042 118.467 350.43 118.268C350.232 119.186 350.034 120.129 349.364 120.873C348.993 120.824 348.621 120.749 348.249 120.7V120.675Z" fill="#F09B5A"/>
<path d="M101.001 141.937C100.703 143.178 101.893 144.84 99.935 145.609C99.7366 144.22 99.8606 142.929 101.001 141.937Z" fill="#9E7A5C"/>
<path d="M212.614 93.3346C211.448 93.0369 209.862 94.1037 209.192 92.243C210.482 92.119 211.796 91.9453 212.614 93.3346Z" fill="#A07A6E"/>
<path d="M455.993 194.36C456.315 193.045 456.365 191.631 457.505 190.664C457.505 191.507 457.53 192.326 457.555 193.169C457.307 193.914 456.762 194.286 455.993 194.36V194.36Z" fill="#F1C9AD"/>
<path d="M458.819 192.078C459.067 190.713 459.836 189.845 461.249 189.671C461.001 191.036 460.084 191.755 458.819 192.078Z" fill="#F3D4CB"/>
<path d="M461.249 189.696C460.554 186.967 462.191 187.959 463.43 188.356C462.885 189.101 462.215 189.646 461.249 189.696Z" fill="#F3D4CB"/>
<path d="M348.372 126.604C349.984 127.423 349.984 128.217 348.298 128.961C348.298 128.168 348.347 127.398 348.372 126.604Z" fill="#FAD1CD"/>
<path d="M483.785 150.472C484.008 149.206 482.892 147.594 484.801 146.775C484.727 148.065 484.429 149.306 483.785 150.472Z" fill="#EDD4C9"/>
<path d="M401.328 51.1827C401.179 51.6541 400.782 51.7037 400.386 51.6541C399.964 51.6045 399.567 51.4308 399.741 50.9346C399.791 50.761 400.212 50.6369 400.485 50.6121C400.857 50.5873 401.278 50.6121 401.328 51.1827V51.1827Z" fill="#7BC3BB"/>
<path d="M445.308 211.851C445.035 211.925 444.688 212.074 444.341 212.074C443.919 212.074 443.523 211.777 443.82 211.355C443.969 211.132 444.514 211.107 444.886 211.107C445.184 211.107 445.457 211.305 445.333 211.876L445.308 211.851Z" fill="#85C2B8"/>
<path d="M362.504 178.879C362.057 178.904 361.586 178.953 361.14 178.978C360.396 178.879 360.148 178.358 360.148 177.688C361.165 177.638 362.057 177.812 362.528 178.879H362.504Z" fill="#F5D4C9"/>
<path d="M178.277 211.603C177.707 211.405 177.732 210.908 177.732 210.437C178.773 210.536 179.888 210.139 180.806 210.908C179.938 211.057 178.946 210.735 178.277 211.603Z" fill="#F3E9D6"/>
<path d="M389.65 200.29C390.196 200.761 390.394 201.357 390.394 202.051C389.824 201.803 389.254 201.555 388.684 201.282C388.733 200.687 389.08 200.364 389.675 200.29H389.65Z" fill="#F8D3CC"/>
<path d="M219.878 216.962C219.704 217.235 219.481 217.756 219.332 217.756C218.539 217.681 218.787 216.987 218.688 216.49C219.084 216.639 219.481 216.813 219.878 216.962V216.962Z" fill="#F4E5D7"/>
<path d="M439.655 235.296C442.085 238.621 444.514 241.97 447.241 245.717C426.044 248.148 405.319 248.52 384.469 245.419C384.841 243.831 385.684 242.863 386.427 241.846C390.444 239.167 395.005 239.737 399.468 239.787C402.815 239.961 406.038 240.804 409.384 241.102C419.078 241.97 428.176 240.407 436.63 235.545C437.597 234.974 438.564 234.502 439.63 235.296H439.655Z" fill="#F6E8D8"/>
<path d="M433.78 218.153C433.928 217.929 434.102 217.681 434.251 217.458C434.325 217.855 434.474 218.227 434.449 218.624C434.127 224.256 434.201 229.764 438.54 234.155C435.614 237.752 431.325 238.844 427.185 239.985C418.979 242.268 410.649 242.317 402.319 240.556C401.451 239.067 400.162 239.018 398.724 239.489C398.303 239.489 397.906 239.365 397.534 239.142C396.964 238.472 396.493 237.628 395.65 237.331C392.353 236.14 392.179 233.882 393.344 231.103C393.518 230.309 393.617 229.466 394.584 229.193C394.782 229.466 394.981 229.739 395.179 230.012C397.088 231.476 399.741 232.121 400.683 234.726C400.559 235.073 400.113 235.445 400.41 235.743C400.782 236.14 401.104 235.743 401.228 235.371C401.427 234.899 401.625 234.478 402.096 234.254C403.088 233.882 404.03 234.13 404.997 234.403C412.459 236.586 419.847 235.47 427.135 233.535C430.358 232.691 432.639 229.119 432.788 225.67C432.912 223.139 432.243 220.51 433.73 218.177L433.78 218.153Z" fill="#F6E8D7"/>
<path d="M397.608 238.745L398.798 238.844C399.815 239.167 401.178 238.497 401.798 239.911C410.277 241.722 418.731 241.747 427.135 239.464C431.251 238.348 435.093 236.661 438.539 234.13C439.035 234.403 439.556 234.651 439.68 235.272C439.382 235.272 439.01 235.222 438.812 235.346C432.341 239.663 425.127 241.375 417.491 242.119C412.111 242.665 406.955 241.722 401.749 240.903C400.98 240.779 400.187 240.705 399.418 240.606C395.947 239.787 392.278 239.589 389.278 237.331C388.783 236.562 389.353 236.239 389.873 235.892C390.047 235.842 390.22 235.842 390.419 235.892C393.319 235.594 395.476 237.132 397.633 238.72L397.608 238.745Z" fill="#BAA892"/>
<path d="M487.305 243.037C489.413 242.764 489.71 243.93 489.71 245.692C489.735 250.778 487.454 255.715 488.57 260.776C489.884 266.755 489.586 272.784 489.611 278.813C488.669 270.526 487.975 262.215 487.826 253.879C487.628 250.257 487.256 246.659 487.305 243.037V243.037Z" fill="#F1E8D6"/>
<path d="M389.402 237.033C392.724 238.224 396.071 239.44 399.393 240.63C397.237 240.63 395.055 240.63 392.898 240.63C391.609 240.63 390.245 240.432 389.402 241.697C388.435 243.111 387.469 242.392 386.452 241.846L388.683 237.777C388.807 237.43 388.907 237.033 389.378 237.033H389.402Z" fill="#F3E7D3"/>
<path d="M466.827 242.963C472.579 241.499 478.405 240.308 484.256 239.34C484.702 239.167 484.95 239.39 485.099 239.787L484.875 240.109C481.9 240.457 479.297 242.268 476.545 242.839C473.471 243.484 470.075 244.699 466.827 242.987V242.963Z" fill="#035858"/>
<path d="M397.609 238.745C395.204 237.802 392.799 236.859 390.395 235.917C391.039 234.081 392.13 232.542 393.37 231.079C393.419 232.046 395.031 232.865 393.444 234.056C392.799 234.527 393.196 235.47 394.336 235.47C396.196 235.47 396.816 237.083 397.807 238.199C397.857 238.273 397.683 238.546 397.609 238.72V238.745Z" fill="#F1E7D4"/>
<path d="M376.759 234.726C376.808 230.062 377.081 229.863 383.428 230.012L383.18 231.153C382.486 231.377 382.61 232.691 381.519 232.369C380.304 231.724 379.238 231.128 378.742 233.212C378.569 233.907 377.775 234.651 376.784 234.726H376.759Z" fill="#F3E8D6"/>
<path d="M376.833 241.4C376.238 240.457 375.272 240.705 374.379 240.655C374.007 240.258 374.032 239.861 374.379 239.464C376.065 239.638 377.379 238.919 377.825 237.356C378.247 235.892 379.164 235.867 380.279 235.892C379.313 237.852 378.271 239.737 376.833 241.4Z" fill="#F3E8D6"/>
<path d="M352.438 239.911L354.595 231.004C355.686 232.939 354.521 234.577 354.372 236.338C354.273 237.529 352.984 238.918 354.719 239.936C353.976 239.936 353.207 239.936 352.463 239.936L352.438 239.911Z" fill="#B9A894"/>
<path d="M487.305 243.037C488.768 246.585 487.751 250.257 487.826 253.879C487.107 250.306 486.809 246.709 486.586 243.087C486.809 242.863 487.032 242.838 487.305 243.037V243.037Z" fill="#ECE2D7"/>
<path d="M389.403 237.033L388.709 237.777C386.824 236.115 385.436 234.279 386.924 231.004C387.419 233.336 387.469 235.47 389.874 235.916L389.428 237.033H389.403Z" fill="#005755"/>
<path d="M384.569 228.97C383.329 226.539 385.635 226.216 386.8 225.224C386.478 226.712 385.61 227.903 384.569 228.97Z" fill="#E8E4D6"/>
<path d="M371.28 243.087C373.14 242.987 375.098 243.31 376.611 241.846C375.569 245.493 373.214 243.384 371.28 243.087Z" fill="#F3E8D6"/>
<path d="M487.305 243.037L486.586 243.087C486.437 243.087 486.313 243.037 486.164 243.012C485.445 242.193 485.148 241.226 485.222 240.159C485.197 239.837 485.346 239.588 485.643 239.464C486.139 239.961 486.412 240.705 487.28 240.655V243.037H487.305Z" fill="#F1E8D6"/>
<path d="M444.217 225.273C445.927 226.092 446.77 227.481 446.894 229.342L444.217 225.273Z" fill="#E4E2D4"/>
<path d="M388.585 222.172C388.387 221.676 387.345 221.403 387.94 220.807C388.337 220.435 389.205 220.559 389.849 220.46C389.601 221.155 389.453 221.949 388.56 222.147L388.585 222.172Z" fill="#E8E5D5"/>
<path d="M485.495 240.06C485.793 241.027 486.388 241.945 486.189 243.012C484.751 242.491 484.479 241.449 484.9 240.085L485.024 239.961C485.222 239.737 485.396 239.762 485.52 240.035L485.495 240.06Z" fill="#035858"/>
<path d="M381.519 232.344C382.114 231.997 382.337 231.153 383.18 231.153C382.956 232.22 382.361 233.039 381.618 233.783C381.593 233.312 381.568 232.84 381.543 232.369L381.519 232.344Z" fill="#EBE5D3"/>
<path d="M177.756 222.718C181.326 228.3 184.921 233.907 188.516 239.489C189.036 240.308 189.631 241.077 190.201 241.871C192.21 243.335 193.97 244.898 193.052 247.776C187.102 249.14 181.252 251.051 175.079 251.423C173.145 252.564 170.864 251.175 168.93 252.291L164.17 252.589C159.856 252.911 155.543 253.283 151.278 252.341C149.32 251.919 147.461 253.556 145.502 252.589L139.874 252.49C137.569 252.018 135.213 252.291 132.908 251.919C131.024 251.621 129.908 250.951 131.024 248.818C131.668 247.577 131.123 245.791 132.734 244.972L134.371 241.797C134.966 241.548 134.842 241.127 134.618 240.68L140.321 225.72C141.511 225 142.626 225.521 143.692 225.968C153.138 229.764 162.484 229.367 171.781 225.422C173.814 224.554 175.376 222.619 177.855 222.718H177.756Z" fill="#F6E8D7"/>
<path d="M174.038 216.49L174.657 217.061L177.087 221.676C174.633 224.703 171.434 226.29 167.567 226.613C166.278 225.149 163.749 225.397 162.509 227.184C162.138 227.729 161.964 228.399 161.27 228.672C154.973 229.143 148.8 228.672 142.974 225.993C142.18 225.62 141.313 225.397 140.792 224.628C141.114 222.097 142.503 219.914 143.122 217.483C142.998 217.235 143.023 216.987 143.172 216.763C143.42 216.639 143.668 216.615 143.916 216.714C144.064 216.838 144.213 216.912 144.412 216.962C145.304 217.185 145.949 217.731 146.271 218.599C149.519 221.527 153.51 221.924 157.626 221.8C162.931 221.651 167.939 220.485 172.501 217.632C173.046 217.508 173.492 217.235 173.616 216.615C173.765 216.565 173.914 216.54 174.062 216.54L174.038 216.49Z" fill="#F6E8D7"/>
<path d="M132.66 244.972C132.611 245.27 132.635 245.568 132.536 245.84C131.412 249.347 132.685 251.348 136.354 251.844C137.519 251.993 138.759 251.77 139.8 252.489C137.916 252.489 136.032 252.713 134.197 252.489C132.214 252.266 132.065 253.78 131.396 254.871C130.379 256.484 132.933 255.74 132.611 257.03C131.073 257.377 129.586 257.799 129.536 255.243C129.536 253.283 127.429 253.879 126.561 252.688C125.942 253.953 127.305 254.524 127.181 255.491C127.057 256.285 127.132 257.154 126.016 257.179C125.099 257.179 124.9 256.558 124.826 255.814C124.727 254.673 124.826 253.556 124.231 252.39C123.611 251.125 124.975 251.423 125.619 251.373C129.512 250.976 131.371 248.495 130.751 244.55C130.627 243.806 130.454 243.235 129.636 243.037C128.495 242.789 128.148 242.02 128.718 241.077C129.164 240.357 129.735 239.539 130.751 239.564C132.065 239.613 131.941 240.68 131.941 241.524C131.941 242.714 131.991 243.88 132.66 244.922V244.972Z" fill="#005757"/>
<path d="M140.792 224.603C147.461 227.456 154.377 228.92 161.666 228.027C163.302 226.216 165.41 226.142 167.591 226.365C171.211 225.72 174.136 223.661 177.087 221.676C177.31 222.023 177.533 222.37 177.756 222.718C167.195 230.136 155.865 231.352 143.816 227.035C142.626 226.613 141.411 226.166 140.221 225.72C140.172 225.248 140.271 224.827 140.767 224.628L140.792 224.603Z" fill="#BAA892"/>
<path d="M193.028 247.751C193.028 245.32 190.772 244.005 190.177 241.846C192.086 241.524 190.846 239.613 191.838 238.621C193.35 239.191 194.044 240.606 194.912 241.846C193.697 242.069 193.4 243.012 194.019 243.756C195.656 245.692 194.391 246.684 193.003 247.726L193.028 247.751Z" fill="#005757"/>
<path d="M145.453 252.589C146.594 252.44 147.833 252.762 148.825 251.795C149.345 251.274 150.213 251.15 150.783 251.423C155.097 253.532 159.708 252.068 164.146 252.589C157.923 253.283 151.676 253.333 145.453 252.589V252.589Z" fill="#F0ECD5"/>
<path d="M114.166 268.79C114.166 262.91 114.141 257.03 114.141 251.15C114.141 250.381 114.017 249.562 114.786 249.016L114.885 251.373C115.034 256.509 115.306 261.644 114.736 266.78L114.191 268.79H114.166Z" fill="#D9ECE7"/>
<path d="M198.011 243.037L197.292 241.846L197.416 241.697C198.11 241.102 197.713 240.01 198.507 239.464C200.416 240.085 201.234 241.97 202.721 243.087C202.449 243.632 202.102 244.104 201.457 244.228C200.143 244.277 199.027 243.806 198.011 243.037V243.037Z" fill="#F0E9D5"/>
<path d="M115.355 247.776V238.621H116.521C116.521 241.4 116.521 244.203 116.521 247.007C116.124 247.255 115.727 247.503 115.355 247.776Z" fill="#BAA98F"/>
<path d="M208.597 240.63V232.22L209.638 232.146C209.688 235.321 209.737 238.497 209.787 241.672L208.597 240.63Z" fill="#B6A794"/>
<path d="M114.711 266.755C114.414 261.62 114.711 256.484 114.86 251.348C115.505 256.484 115.777 261.62 114.711 266.755Z" fill="#29504B"/>
<path d="M120.066 247.9L121.008 247.85C121.826 248.346 123.289 247.478 123.636 249.041C123.19 250.579 121.38 250.877 120.636 250.728C119.496 250.53 120.289 248.867 120.091 247.875L120.066 247.9Z" fill="#0E5955"/>
<path d="M124.776 246.411C123.462 244.005 125.446 243.087 126.834 241.896C126.338 243.484 125.842 245.071 124.776 246.411Z" fill="#F1E8D7"/>
<path d="M198.011 243.037C199.325 242.913 200.589 243.037 201.457 244.228C200.713 244.6 199.969 244.972 199.226 245.344L198.011 243.062V243.037Z" fill="#E8E2D6"/>
<path d="M168.906 252.266C170.79 250.852 172.971 251.423 175.054 251.398C174.93 251.572 174.781 251.745 174.657 251.919C173.715 252.514 172.748 252.242 171.757 252.093L168.881 252.291L168.906 252.266Z" fill="#D4EAEA"/>
<path d="M123.636 249.066L121.008 247.875C122.074 247.925 123.09 245.965 124.181 247.801C124.33 248.371 124.231 248.843 123.611 249.091L123.636 249.066Z" fill="#F1E8D7"/>
<path d="M143.271 217.011C143.271 217.185 143.221 217.334 143.122 217.458C142.18 215.523 142.825 213.464 142.701 211.454C143.246 212 143.197 212.719 143.271 213.414C143.692 214.605 143.692 215.821 143.271 217.011V217.011Z" fill="#304E44"/>
<path d="M135.461 228.821C135.387 229.193 135.387 229.689 134.817 229.565C134.618 229.516 134.445 229.143 134.42 228.895C134.346 228.498 134.42 228.052 134.916 228.002C135.461 227.953 135.437 228.449 135.486 228.846L135.461 228.821Z" fill="#00584E"/>
<path d="M134.519 240.68C135.635 241.052 135.833 241.896 135.065 242.615C134.643 243.012 134.395 242.218 134.271 241.797L134.519 240.68Z" fill="#F7E5DE"/>
<path d="M171.781 252.093L174.682 251.919C174.88 252.068 175.624 252.266 175.054 252.415C174.012 252.688 172.823 252.837 171.806 252.093H171.781Z" fill="#21524F"/>
<path d="M509.866 276.307V285.338C508.006 283.7 508.626 281.492 507.783 279.557C506.445 276.431 505.874 272.883 506.246 269.311C506.445 267.45 506.891 265.912 508.651 265.043C509.767 266.507 509.048 268.219 509.246 269.807C509.519 271.965 508.676 274.248 509.841 276.332L509.866 276.307Z" fill="#F5E9D6"/>
<path d="M509.865 276.307C508.304 275.984 508.7 274.744 508.7 273.751C508.651 270.849 508.7 267.946 508.7 265.043C508.7 260.553 508.7 256.087 508.7 251.596C508.7 250.604 508.304 249.339 509.865 249.016C509.865 258.121 509.865 267.227 509.865 276.332V276.307Z" fill="#F7E7D9"/>
<path d="M491.445 261.347C492.04 266.16 494.321 270.824 492.586 275.836C492.462 270.973 489.883 266.383 491.445 261.347Z" fill="#F5EAD4"/>
<path d="M493.974 225.844C491.445 226.662 488.891 226.315 486.363 226.365C485.594 226.365 484.999 226.042 485.049 225.149C485.074 224.43 485.743 223.834 486.189 224.181C488.569 225.968 491.495 224.678 493.999 225.868L493.974 225.844Z" fill="#F4EAD6"/>
<path d="M485.495 240.06C485.322 240.035 485.173 240.01 485 239.985C484.752 239.762 484.504 239.564 484.256 239.34C484.256 236.165 482.793 233.113 483.81 229.764C484.429 232.989 485.024 236.214 485.644 239.464L485.471 240.06H485.495Z" fill="#B9A893"/>
<path d="M497.098 226.34C496.305 226.34 495.734 226.117 495.734 225.422C495.734 223.512 497.866 224.132 498.66 223.09C498.957 222.718 499.651 223.189 499.503 223.76C499.131 225.025 498.189 225.844 497.123 226.34H497.098Z" fill="#F4EAD6"/>
<path d="M487.305 240.556C487.354 239.613 487.082 238.348 488.767 238.323C489.635 238.323 490.776 238.15 490.751 239.44C490.726 241.077 489.734 239.861 489.139 239.837C488.396 239.812 488.148 240.903 487.33 240.556H487.305Z" fill="#F1E8D6"/>
<path d="M376.759 234.726C377.528 236.512 376.09 237.107 374.8 238.174C374.106 236.041 373.958 234.602 376.759 234.726Z" fill="#F3E8D6"/>
<path d="M374.379 239.489V240.68C373.487 241.127 372.694 240.978 372.198 240.085C371.975 239.688 371.925 239.018 372.371 238.795C373.189 238.398 373.561 239.638 374.379 239.514V239.489Z" fill="#EEECD5"/>
<path d="M343.96 253.705C344.927 255.095 344.703 255.988 344.208 257.352C343.29 256.013 343.414 255.095 343.96 253.705Z" fill="#F4EBD4"/>
<path d="M349.389 246.486C349.389 246.882 349.389 247.354 348.893 247.379C348.348 247.428 348.298 246.932 348.348 246.535C348.373 246.262 348.521 245.84 348.695 245.791C349.191 245.642 349.315 246.064 349.389 246.461V246.486Z" fill="#F0EBD3"/>
<path d="M184.251 220.981C182.243 218.178 180.384 215.275 178.772 212.198C181.946 211.007 180.83 215.151 182.813 215.448C182.417 217.508 184.623 218.922 184.251 220.981Z" fill="#F3E9D6"/>
<path d="M223.447 233.535C223.571 232.096 223.15 230.582 223.993 228.722C224.935 230.359 224.489 231.699 224.637 232.964L223.447 233.56V233.535Z" fill="#F1EBD6"/>
<path d="M208.696 217.309C207.482 218.401 206.192 217.979 204.333 217.979C206.044 216.342 207.432 217.16 208.696 217.309Z" fill="#FAE5D9"/>
<path d="M214.497 240.705C215.316 241.945 215.216 242.838 214.696 244.104C213.655 242.938 213.828 242.02 214.497 240.705Z" fill="#F3EBD4"/>
<path d="M203.49 240.184C204.135 239.191 204.854 239.44 205.598 239.663C205.598 239.861 205.647 240.109 205.548 240.184C204.879 240.779 204.234 240.705 203.49 240.184Z" fill="#F0E9D5"/>
<path d="M221.092 219.269H222.282C222.183 220.088 221.712 220.51 220.894 220.361C220.671 220.311 220.299 220.063 220.299 219.89C220.299 219.393 220.72 219.344 221.117 219.269H221.092Z" fill="#F4E5D7"/>
<path d="M198.507 239.464C198.334 240.308 199.028 241.548 197.417 241.697C197.342 240.73 197.069 239.688 198.507 239.464Z" fill="#FAE4DB"/>
<path d="M193.771 237.107C192.284 236.909 192.631 235.743 192.557 234.8C193.176 235.47 193.846 236.09 193.771 237.107Z" fill="#005757"/>
<path d="M122.347 243.905C122.347 244.724 121.876 245.394 121.578 245.071C120.512 243.881 118.207 245.071 117.76 242.987C117.686 242.615 118.182 242.02 118.405 242.293C119.446 243.533 121.653 242.268 122.322 243.905H122.347Z" fill="#F1E8D7"/>
<path d="M126.016 234.726C125.719 232.94 127.132 231.848 127.752 229.813C128.892 232.567 128.099 233.907 126.016 234.726Z" fill="#F3EBD4"/>
<path d="M134.569 219.046C134.569 217.756 133.354 217.086 133.775 215.994C133.949 215.572 134.792 215.672 135.065 216.044C135.783 216.987 135.759 217.979 134.569 219.046V219.046Z" fill="#F4EAD2"/>
<path d="M126.016 234.726C125.867 235.395 126.338 236.289 125.248 236.81C124.752 235.768 124.653 234.998 126.016 234.726Z" fill="#F3EAD5"/>
<path d="M125.942 239.588C125.868 239.985 125.744 240.407 125.248 240.233C125.074 240.184 124.926 239.762 124.901 239.489C124.876 239.117 124.901 238.621 125.446 238.67C125.917 238.72 125.942 239.167 125.942 239.564V239.588Z" fill="#F3EAD5"/>
<path d="M178.426 130.723C178.55 130.475 178.773 130.227 178.822 129.954C179.517 125.513 179.517 125.389 184.202 125.538C190.301 125.711 195.929 127.2 200.193 131.988C201.532 134.196 202.251 136.504 201.383 139.084V139.034C200.689 140.324 199.697 141.341 198.383 142.011C195.879 143.996 192.978 145.336 190.103 146.651C189.185 148.561 187.227 147.221 185.938 147.991L180.012 148.561C177.384 145.46 176.368 133.874 178.426 130.748V130.723Z" fill="#060708"/>
<path d="M175.921 158.659L177.087 159.874C177.905 161.065 177.954 162.231 177.037 163.397C173.591 168.211 169.748 172.577 163.997 174.785C163.253 175.083 162.534 175.306 161.74 175.405C160.65 176.199 159.212 175.778 158.071 176.447C152.543 177.341 147.213 176.05 142.453 173.694C138.659 171.808 135.908 168.211 134.271 164.067C134.098 163.348 133.775 162.703 133.205 162.231C132.933 160.495 132.982 158.832 134.296 157.493C135.288 156.724 136.279 156.922 137.271 157.468C137.469 157.518 137.668 157.542 137.866 157.567C138.486 157.741 138.635 158.386 139.031 158.783C140.792 163.447 143.692 166.995 148.502 168.756C152.022 170.046 155.642 169.401 159.237 169.277C159.931 168.608 161.046 168.955 161.716 168.235C162.732 168.26 163.253 167.367 164.021 166.995C164.889 165.407 166.624 164.787 167.765 163.546C170.145 162.728 170.318 159.85 172.302 158.684C173.492 157.939 174.707 157.914 175.897 158.684L175.921 158.659Z" fill="#E5697F"/>
<path d="M178.426 130.723C178.178 136.727 178.649 142.656 180.013 148.536C175.724 148.76 171.633 147.891 167.716 146.155C166.824 145.658 165.782 145.386 165.237 144.393C164.22 143.773 163.328 143.078 162.882 141.912C161.692 136.107 163.378 132.559 169.03 129.234C170.369 128.44 171.881 127.87 173.369 127.349C178.302 125.637 178.426 125.736 178.401 130.723H178.426Z" fill="#EFECEA"/>
<path d="M197.342 118.789C194.962 116.457 191.937 115.688 188.789 115.316C187.549 115.167 186.161 115.043 186.235 113.53C186.31 111.942 187.723 112.041 188.962 112.14C193.549 112.438 197.59 113.976 200.838 117.326C201.73 118.244 202.523 119.286 202.697 120.601C202.821 121.568 203.094 122.709 202.003 123.255C200.664 123.9 200.044 122.908 199.598 121.841C198.705 120.923 197.962 119.906 197.342 118.814V118.789Z" fill="#0D0A09"/>
<path d="M108.19 146.279C108.19 146.576 108.265 146.899 108.19 147.147C107.843 148.115 109.058 149.926 107.248 149.975C105.786 150.025 104.62 148.71 104.149 147.221C103.827 146.229 104.174 145.286 104.67 144.393C105.29 143.301 106.207 142.235 107.372 142.408C108.909 142.632 107.942 144.17 108.19 145.113C108.29 145.485 108.19 145.907 108.19 146.279V146.279Z" fill="#84543F"/>
<path d="M150.956 117.077L151.006 116.606C160.104 116.581 169.178 116.556 178.276 116.507C177.384 117.4 176.244 117.053 175.202 117.077C167.12 117.102 159.063 117.077 150.981 117.077H150.956Z" fill="#92796F"/>
<path d="M167.79 163.521C167.096 165.283 165.708 166.275 164.047 166.97C163.799 164.191 166.253 164.34 167.79 163.521Z" fill="#AA7166"/>
<path d="M201.408 139.059C201.656 136.578 201.011 134.271 200.218 131.963C202.375 134.023 202.647 136.404 201.408 139.059Z" fill="#916D5E"/>
<path d="M175.922 158.659C174.732 158.659 173.517 158.659 172.327 158.659C173.542 156.922 174.732 156.848 175.922 158.659Z" fill="#BF6E6D"/>
<path d="M177.037 163.398C177.037 162.231 177.062 161.041 177.087 159.875C178.921 161.065 178.996 162.256 177.037 163.398Z" fill="#AE7065"/>
<path d="M185.962 147.966C187.35 147.519 188.739 147.073 190.127 146.626L190.176 147.991C189.383 148.636 188.59 148.636 187.821 147.991H185.962V147.966Z" fill="#9B6D66"/>
<path d="M158.071 176.448C159.088 175.381 160.352 175.182 161.74 175.405C160.947 177.217 159.336 176.299 158.071 176.448Z" fill="#CC6C72"/>
<path d="M198.407 141.987C199.424 140.994 200.415 140.002 201.432 139.01C201.184 140.771 200.167 141.763 198.407 141.987Z" fill="#916D5E"/>
<path d="M197.342 118.789C198.482 119.509 199.375 120.427 199.598 121.816C198.21 121.27 197.243 120.427 197.342 118.789Z" fill="#9D7468"/>
<path d="M133.231 162.231C133.875 162.331 134.743 161.958 135.115 162.678C135.462 163.348 134.495 163.546 134.297 164.067C133.603 163.646 133.057 163.149 133.231 162.231V162.231Z" fill="#DE6A7C"/>
<path d="M137.296 157.443H134.321C135.288 155.458 136.28 156.252 137.296 157.443Z" fill="#AB7165"/>
<path d="M187.797 147.99H190.152C189.359 149.653 188.59 149.628 187.797 147.99Z" fill="#9A785B"/>
<path d="M161.716 168.235C161.345 169.625 160.229 169.327 159.237 169.278C159.609 167.839 160.75 168.26 161.716 168.235Z" fill="#B8706A"/>
<path d="M209.142 118.368C209.068 118.765 208.919 119.186 208.423 119.038C208.25 118.988 208.101 118.566 208.076 118.293C208.027 117.896 208.076 117.425 208.622 117.475C209.093 117.524 209.118 117.971 209.118 118.368H209.142Z" fill="#A87066"/>
<path d="M139.031 158.758C138.337 158.634 137.916 158.262 137.866 157.542C138.015 157.145 138.015 156.401 138.635 156.749C139.403 157.17 138.982 158.063 139.031 158.758Z" fill="#AB7165"/>
<path d="M162.906 141.912C163.7 142.731 164.468 143.574 165.261 144.393C163.774 144.219 162.956 143.45 162.906 141.912Z" fill="#A48275"/>
<path d="M165.236 144.393C166.178 144.815 167.071 145.336 167.715 146.155C166.525 146.08 165.435 145.857 165.236 144.393Z" fill="#A48275"/>
<path d="M369.123 126.605C370.437 124.049 373.015 123.082 375.321 121.866C375.966 121.519 376.164 120.873 376.784 120.625C377.8 119.732 379.213 120.055 380.354 119.534L383.304 119.41C384.296 119.062 385.287 119.062 386.254 119.41C386.403 119.509 386.552 119.559 386.725 119.559C387.345 119.831 387.395 120.377 387.345 120.948C386.75 122.015 387.518 122.461 388.287 122.908C390.964 127.001 391.857 131.591 391.981 136.38C391.733 138.935 392.254 141.54 391.634 144.095C391.088 145.559 389.601 145.088 388.585 145.609C383.23 145.857 377.998 145.386 373.189 142.681C372.891 142.16 372.693 141.639 372.941 141.019C374.404 139.357 375.296 141.614 376.536 141.54C374.073 140.134 371.875 139.787 369.941 140.498C369.321 140.498 368.826 140.25 368.578 139.654C368.528 139.481 368.478 139.307 368.454 139.133C368.156 137.67 368.925 136.305 368.826 134.841C368.776 133.229 368.9 131.641 369.817 130.227C370.239 128.912 369.867 127.721 369.173 126.605H369.123Z" fill="#018F93"/>
<path d="M391.089 136.057C390.89 131.442 389.502 127.126 387.667 122.933C386.701 122.635 386.899 121.891 387.023 121.171C386.924 120.625 386.8 120.104 386.676 119.559C391.113 117.797 395.204 119.559 399.196 121.072C400.956 121.742 402.914 122.461 404.08 124.248C404.848 125.587 405.592 126.952 406.36 128.292C407.724 130.624 407.402 133.105 406.46 135.536C403.137 140.746 398.229 143.45 392.254 144.468C390.89 142.235 391.981 139.754 391.535 137.422C391.436 136.95 391.287 136.504 391.064 136.082L391.089 136.057Z" fill="#FAF2EF"/>
<path d="M401.724 105.169C401.848 105.293 402.022 105.318 402.195 105.268C403.361 105.863 404.774 106.112 405.27 107.6C405.542 108.99 404.923 110.081 404.104 111.098C402.939 111.967 401.749 111.942 400.559 111.123C399.369 110.652 398.13 110.503 396.964 110.007L395.353 109.858C389.7 109.114 384.048 108.965 378.42 109.858C375.346 109.783 372.743 111.173 370.239 112.711C368.603 113.703 366.967 114.125 366 112.19C365.058 110.354 365.553 108.568 367.611 107.6C369.446 106.732 371.33 105.913 373.189 105.094C374.578 104.623 376.04 104.251 377.329 103.457C383.032 102.936 388.758 102.911 394.46 103.382C395.328 103.457 396.246 103.333 396.989 104.003C397.138 104.102 397.287 104.127 397.435 104.052C398.824 104.598 400.46 104.201 401.749 105.144L401.724 105.169Z" fill="#EF8013"/>
<path d="M486.66 136.231C487.181 133.651 487.379 131.021 487.354 128.366C487.354 127.374 487.801 126.704 489.04 126.927C491.569 127.374 493.875 130.177 493.875 132.881C493.875 135.586 491.371 138.637 488.867 139.034C486.462 139.406 486.66 137.794 486.71 136.256L486.66 136.231Z" fill="#D4A28E"/>
<path d="M396.964 104.028C390.246 103.283 383.552 102.986 376.834 104.102C376.511 104.35 376.288 104.3 376.139 103.928C375.867 103.184 376.115 102.837 376.933 102.837C383.131 102.837 389.329 102.837 395.551 102.837C396.345 102.837 396.841 103.209 396.989 104.028H396.964Z" fill="#F9D1BA"/>
<path d="M369.793 140.25C371.429 138.215 373.165 137.62 375.123 139.803C375.743 140.498 376.487 140.87 377.454 140.87C377.974 140.87 378.891 140.796 378.644 141.664C378.445 142.309 377.974 143.029 376.883 142.731C375.495 142.359 374.776 140.746 373.189 140.845C372.371 141.54 371.553 141.317 370.71 140.895L369.768 140.696C369.595 140.572 369.545 140.473 369.619 140.374C369.669 140.275 369.743 140.225 369.793 140.225V140.25Z" fill="#118F97"/>
<path d="M378.42 109.908C384.072 108.121 389.7 108.32 395.353 109.908C389.7 109.908 384.072 109.908 378.42 109.908Z" fill="#F7CBB8"/>
<path d="M369.124 126.604C371.875 126.753 370.462 128.887 370.834 130.152C369.892 130.698 368.752 130.946 368.776 132.484C368.776 134.419 367.611 134.643 366.049 133.898C365.925 133.75 365.851 133.576 365.876 133.402C365.876 133.229 365.901 133.129 365.95 133.129C366.025 130.475 367.264 128.366 369.124 126.58V126.604Z" fill="#208D94"/>
<path d="M406.485 135.511C406.41 132.385 407.104 129.11 404.501 126.48C404.055 126.034 404.228 124.992 404.104 124.223C408.096 127.622 409.013 131.914 406.485 135.511Z" fill="#FDF0E9"/>
<path d="M382.709 149.182C383.701 150.745 383.8 151.96 381.395 151.514C379.462 151.166 377.106 152.754 375.569 150.372C376.363 149.727 377.156 149.727 377.949 150.372C379.759 150.844 380.9 148.71 382.709 149.182Z" fill="#FAD5CA"/>
<path d="M458.845 185.404C459.539 180.243 459.291 175.083 458.721 169.947C460.803 174.612 459.886 179.499 459.787 184.337C459.787 184.709 459.192 185.056 458.869 185.404H458.845Z" fill="#F8D0BB"/>
<path d="M383.825 170.468C383.775 175.678 382.734 180.913 383.825 186.123C381.941 180.913 382.089 175.678 383.825 170.468Z" fill="#ED954F"/>
<path d="M375.569 118.293C375.445 119.186 375.892 120.65 374.404 120.501C372.52 120.328 371.9 118.864 371.999 117.078C372.793 116.457 373.586 116.433 374.379 117.078C374.429 117.822 374.826 118.219 375.569 118.268V118.293Z" fill="#F7D4CB"/>
<path d="M369.644 134.916C369.644 136.454 369.917 138.042 368.404 139.134C367.611 138.786 367.363 138.042 367.115 137.298C366.371 136.727 366.148 136.057 366.644 135.214C367.537 134.122 368.553 134.097 369.644 134.916Z" fill="#118F97"/>
<path d="M435.862 135.338C435.267 137.049 434.077 137.496 432.491 137.223C431.871 137.124 431.648 136.727 432.02 136.206C433.011 134.891 434.251 134.519 435.862 135.338Z" fill="#FAD4CC"/>
<path d="M387.469 149.182C388.485 149.281 389.898 148.859 389.7 150.645C389.601 151.613 388.708 151.712 386.056 151.142C386.056 150.149 387.642 150.248 387.444 149.157L387.469 149.182Z" fill="#FAD5CA"/>
<path d="M391.634 136.677C392.874 139.183 391.907 141.863 392.279 144.443C391.51 146.428 389.849 145.385 388.535 145.559C389.378 145.137 390.196 144.716 391.039 144.319C391.857 141.813 390.766 139.183 391.634 136.677V136.677Z" fill="#D6E0DC"/>
<path d="M430.234 140.92C427.011 140.523 423.788 140.126 420.565 139.754C423.788 140.027 427.234 138.588 430.234 140.92Z" fill="#F8CDB8"/>
<path d="M405.244 107.6C404.228 106.831 403.211 106.037 402.17 105.268C403.41 104.648 404.376 106.509 405.69 105.591C406.037 105.343 406.335 105.814 406.384 106.236C406.459 107.079 406.037 107.501 405.244 107.575V107.6Z" fill="#F9D1BA"/>
<path d="M410.451 98.8176C411.219 100.133 412.707 100.604 412.26 102.192C412.211 102.341 411.69 102.539 411.591 102.44C410.55 101.671 409.632 100.827 410.451 98.8176V98.8176Z" fill="#F9D5CD"/>
<path d="M382.709 149.181C384.296 147.296 385.882 147.296 387.469 149.181H382.709Z" fill="#FAD5CA"/>
<path d="M364.884 137.298C364.537 138.786 363.966 138.091 363.322 137.496C362.776 137 362.256 136.33 362.677 135.71C363.545 134.469 364.016 136.479 364.859 136.107C365.206 136.504 365.231 136.901 364.859 137.298H364.884Z" fill="#F8D8C3"/>
<path d="M364.14 177.638C362.553 177.986 363.297 176.671 362.95 176.175C362.528 175.604 363.222 175.356 363.718 175.381C364.834 175.43 364.784 176.274 364.908 177.092C365.032 178.06 364.363 177.564 364.14 177.638Z" fill="#F6D8C6"/>
<path d="M364.859 177.663C365.752 177.812 366.942 177.316 367.165 178.755C367.215 179.127 367.165 179.697 366.694 179.623C365.678 179.425 365.107 178.68 364.859 177.663V177.663Z" fill="#F6D8C6"/>
<path d="M369.792 140.25C369.792 140.399 369.768 140.548 369.768 140.696C369.495 141.714 369.098 142.086 368.206 141.168C367.487 140.424 367.214 139.878 368.528 139.63L369.792 140.25Z" fill="#F4D6C5"/>
<path d="M496.726 138.464C496.676 138.861 496.602 139.382 496.131 139.258C495.461 139.084 494.891 138.612 494.792 137.893C494.718 137.372 495.263 137.347 495.635 137.347C496.329 137.347 496.701 137.744 496.726 138.439V138.464Z" fill="#F5D9C4"/>
<path d="M400.559 111.148H404.104C402.939 113.009 401.773 112.984 400.559 111.148Z" fill="#F8CDB7"/>
<path d="M401.724 105.169C400.162 105.268 398.749 104.871 397.41 104.077C398.873 104.35 400.732 103.06 401.724 105.169Z" fill="#F9D1BA"/>
<path d="M364.884 137.298V136.107C365.578 136.057 366 135.735 366 134.99L366.297 134.792C366.644 134.941 366.991 135.065 366.644 135.536L367.091 137.298H364.859H364.884Z" fill="#F4D3C9"/>
<path d="M380.329 119.509C379.213 120.129 378.122 120.799 376.759 120.6C377.453 118.616 379.114 119.782 380.329 119.509Z" fill="#F7D4CB"/>
<path d="M363.322 106.955C363.272 107.501 362.875 107.551 362.479 107.501C362.206 107.476 361.785 107.352 361.735 107.154C361.586 106.657 361.983 106.484 362.404 106.459C362.801 106.409 363.173 106.459 363.322 106.93V106.955Z" fill="#F8D5CE"/>
<path d="M377.949 117.078C377.726 118.591 376.511 118.194 375.569 118.268V117.078C376.363 116.432 377.156 116.432 377.949 117.078Z" fill="#F8D9C0"/>
<path d="M396.964 110.032C398.328 109.808 399.518 110.255 400.559 111.123L399.344 111.223C398.923 111.52 398.551 111.495 398.154 111.173L396.939 110.056L396.964 110.032Z" fill="#F3BEA3"/>
<path d="M364.835 140.97C364.76 141.366 364.636 141.788 364.14 141.615C363.967 141.565 363.818 141.143 363.793 140.87C363.769 140.498 363.793 140.002 364.339 140.052C364.81 140.101 364.835 140.548 364.835 140.945V140.97Z" fill="#F4D3C9"/>
<path d="M398.898 146.899C398.526 147.346 398.254 147.916 397.559 147.941C397.361 147.321 396.642 146.626 397.311 146.08C398.105 145.435 398.303 146.75 398.898 146.874V146.899Z" fill="#F9CFB5"/>
<path d="M377.949 150.348H375.569C376.363 148.685 377.156 148.685 377.949 150.348Z" fill="#F2D9C6"/>
<path d="M369.644 185.999V184.808C369.718 184.436 369.768 183.965 370.263 183.99C370.437 183.99 370.71 184.362 370.759 184.585C370.908 185.429 370.486 185.875 369.668 185.974L369.644 185.999Z" fill="#FAD2CC"/>
<path d="M377.949 117.078H375.569C376.363 115.415 377.156 115.415 377.949 117.078Z" fill="#FAD0CD"/>
<path d="M398.179 111.148C398.575 111.148 398.972 111.198 399.369 111.198C399.096 112.364 398.278 112.686 397.46 111.967C396.964 111.52 397.732 111.272 398.179 111.148V111.148Z" fill="#F6D9C2"/>
<path d="M457.605 190.167C457.506 188.803 457.977 187.612 458.671 186.471C458.745 187.835 459.167 189.299 457.605 190.167Z" fill="#F1C9AD"/>
<path d="M374.379 117.078C373.586 117.078 372.792 117.078 371.999 117.078C372.792 115.415 373.586 115.415 374.379 117.078Z" fill="#F4DABD"/>
<path d="M387.469 114.77C387.841 114.87 388.362 114.845 388.213 115.415C388.163 115.589 387.791 115.787 387.543 115.837C387.147 115.912 386.7 115.837 386.651 115.366C386.601 114.82 387.097 114.845 387.469 114.795V114.77Z" fill="#F9D2CE"/>
<path d="M429.887 136.727C429.738 137.198 429.367 137.248 428.97 137.223C428.548 137.173 428.152 137.025 428.3 136.528C428.35 136.355 428.771 136.206 429.044 136.181C429.416 136.131 429.838 136.181 429.887 136.727Z" fill="#FAD7BE"/>
<path d="M370.71 140.92L373.189 140.87C373.189 141.466 373.164 142.061 373.14 142.656C372.222 142.21 371.156 142.011 370.71 140.92V140.92Z" fill="#318F88"/>
<path d="M376.139 103.928L376.833 104.102C375.742 104.871 374.528 105.243 373.164 105.144C373.957 104.276 375.023 104.077 376.114 103.928H376.139Z" fill="#F0B891"/>
<path d="M412.459 140.895C411.393 141.714 410.179 142.061 408.84 141.987C409.832 140.92 411.096 140.721 412.459 140.895Z" fill="#F0B98B"/>
<path d="M455.126 160.544C454.506 160.073 453.96 159.552 454.01 158.684C455.15 158.832 455.225 159.626 455.126 160.544Z" fill="#F5BD8F"/>
<path d="M386.229 119.41C385.238 119.41 384.246 119.41 383.279 119.41C384.271 118.814 385.263 118.467 386.229 119.41Z" fill="#698378"/>
<path d="M440.969 145.584C440.102 145.634 439.556 145.137 439.135 144.468C440.027 144.393 440.796 144.492 440.969 145.584Z" fill="#F3B484"/>
<path d="M365.95 133.154L366.173 133.725C366.446 134.147 366.446 134.544 366.099 134.916L366.024 134.99C364.413 134.42 365.132 133.799 365.975 133.154H365.95Z" fill="#F4D3C9"/>
<path d="M358.884 100.43C358.933 99.5867 359.404 99.0409 360.099 98.6191C360.148 99.5371 360.099 100.356 358.884 100.43Z" fill="#F9CCAA"/>
<path d="M411.244 152.779C421.929 147.544 437.622 152.655 444.316 163.497C448.184 169.749 449.027 176.497 447.985 183.618C447.539 184.808 447.39 186.074 446.919 187.24C445.01 193.244 440.92 197.585 436.16 201.406C435.689 202.051 434.97 202.25 434.276 202.547L430.879 203.887C429.937 204.458 428.821 204.532 427.83 204.929C419.797 206.542 412.186 205.698 405.393 200.811C400.98 197.635 397.187 193.914 395.799 188.381C397.931 185.528 396.89 182.253 396.468 179.325C395.948 175.753 397.633 172.602 397.534 169.203C397.534 168.657 397.956 168.062 398.65 168.012C399.518 167.938 399.765 168.608 400.063 169.253C400.484 170.171 399.691 171.51 401.03 172.106C401.972 172.279 402.964 172.329 403.782 172.875C405.096 173.842 405.79 175.306 406.707 176.572C408.567 179.177 411.17 180.715 414.045 181.856C418.88 183.469 423.466 182.972 427.731 180.119C429.714 179.276 431.301 177.986 432.243 176.001C434.598 172.602 435.961 168.856 436.234 164.737C436.234 164.44 436.333 164.142 436.333 163.869C436.259 162.529 436.507 160.47 435.019 160.371C433.185 160.222 433.482 162.281 433.507 163.596C433.606 168.409 431.747 172.404 428.722 175.976C427.954 176.77 426.937 177.241 426.094 177.936C425.871 178.11 425.648 178.259 425.4 178.383C424.632 178.755 423.913 179.177 423.119 179.474C422.847 179.598 422.549 179.648 422.252 179.698C420.07 179.772 417.913 179.896 415.756 179.598C410.823 177.762 407.575 174.264 405.666 169.451C405.517 168.186 404.476 167.913 403.509 167.59C402.84 167.193 402.468 166.672 402.741 165.879C404.674 164.588 404.625 164.539 404.154 162.207C404.03 161.611 403.881 161.661 403.534 161.661C400.608 161.735 401.724 160.048 402.22 158.634C403.459 157.195 404.773 155.88 406.583 155.161C408.294 154.64 409.905 153.945 411.294 152.804L411.244 152.779Z" fill="#FAD6C7"/>
<path d="M402.171 158.609C402.295 160.718 403.534 160.916 405.245 160.544C405.418 160.495 406.013 161.239 406.013 161.636C406.013 162.529 404.749 162.008 404.501 162.876C404.799 163.77 406.931 163.397 406.311 164.936C405.666 166.548 404.055 165.556 402.914 165.829C400.981 167.814 402.096 170.84 400.534 172.949C399.964 174.413 399.518 173.991 399.394 172.825C399.27 171.436 399.369 170.046 398.997 168.657C397.857 169.525 398.229 170.617 398.154 171.634C398.055 173.073 398.378 174.562 397.262 175.852C396.89 176.274 396.766 177.44 397.064 177.787C398.725 179.772 397.188 182.154 398.031 184.287C398.7 186.024 397.882 187.761 395.774 188.406C393.965 185.032 393.345 181.31 393.543 177.589C393.94 170.22 396.345 163.621 402.146 158.634L402.171 158.609Z" fill="#FAD4C8"/>
<path d="M411.245 152.779C410.476 155.185 408.542 155.21 406.534 155.136C407.923 153.97 409.311 152.853 411.245 152.779Z" fill="#F9CDB3"/>
<path d="M427.904 215.821C426.218 218.004 423.888 216.515 421.88 216.838C423.789 215.87 425.797 215.548 427.904 215.821Z" fill="#E79166"/>
<path d="M418.433 216.838C416.797 216.59 414.839 217.88 413.574 215.796C415.285 215.647 417.02 215.548 418.433 216.838Z" fill="#DF9772"/>
<path d="M446.944 187.24C446.77 185.875 446.994 184.635 448.01 183.617C448.208 184.982 447.886 186.198 446.944 187.24Z" fill="#F3BB95"/>
<path d="M427.854 204.929C428.697 204.086 429.714 203.714 430.904 203.887C430.135 204.979 429.044 205.078 427.854 204.929Z" fill="#F0B588"/>
<path d="M434.301 202.547C434.797 201.952 435.292 201.357 436.185 201.406C436.061 202.597 435.243 202.696 434.301 202.547Z" fill="#E8934D"/>
<path d="M400.534 234.726C398.897 232.989 396.071 232.592 395.179 230.012C409.112 229.565 422.053 225.893 433.755 218.177C433.755 219.567 433.655 220.956 433.804 222.321C434.771 230.657 430.68 234.527 423.243 235.594C417.764 236.363 412.335 237.058 406.806 236.016C405.071 235.693 403.583 234.378 401.699 234.75C401.302 235.098 400.906 235.048 400.509 234.75L400.534 234.726Z" fill="#FAD5C7"/>
<path d="M146.246 218.575C145.478 218.202 144.833 217.681 144.387 216.937C145.18 216.317 145.924 215.052 147.015 216.193C147.932 217.16 146.915 217.929 146.221 218.575H146.246Z" fill="#AB7668"/>
<path d="M143.271 217.011C143.271 215.821 143.271 214.605 143.271 213.414C144.214 214.357 143.643 215.622 143.941 216.689C143.718 216.788 143.519 216.912 143.296 217.011H143.271Z" fill="#68887E"/>
<path d="M188.937 235.991C188.863 236.388 188.714 236.81 188.218 236.661C188.045 236.611 187.896 236.19 187.871 235.917C187.822 235.544 187.871 235.048 188.417 235.098C188.888 235.148 188.913 235.594 188.913 235.991H188.937Z" fill="#0D5B56"/>
<path d="M439.63 240.73C440.027 240.73 440.523 240.73 440.523 241.226C440.523 241.995 439.903 242.417 439.283 242.665C438.887 242.814 438.639 242.342 438.639 241.921C438.639 241.276 438.887 240.779 439.63 240.755V240.73Z" fill="#F4EBD4"/>
<path d="M400.534 234.726H401.724C401.228 235.544 403.658 236.264 401.873 236.983C400.707 237.455 399.294 237.058 398.873 235.867C398.228 234.105 399.914 234.998 400.559 234.726H400.534Z" fill="#F3EBD6"/>
<path d="M401.799 239.936C400.857 239.39 399.592 239.787 398.799 238.869C399.667 238.398 400.584 238.224 401.551 238.298C402.096 238.348 402.889 238.1 403.063 238.745C403.336 239.688 402.047 239.365 401.774 239.936H401.799Z" fill="#F1E7D4"/>
<path d="M139.081 241.846C140.767 241.648 141.783 242.293 141.436 244.079C141.064 245.94 143.097 247.131 142.651 248.966C141.064 249.835 139.478 249.835 137.891 248.966C137.494 248.52 136.403 248.619 136.775 247.577C137.222 246.312 137.767 247.23 138.312 247.478C139.007 247.825 139.825 247.875 140.073 247.081C140.37 246.014 140.841 244.674 139.106 244.203C138.511 243.409 138.362 242.615 139.106 241.821L139.081 241.846Z" fill="#F5E9D6"/>
<path d="M137.892 248.991H142.652C141.065 250.877 139.478 250.877 137.892 248.991Z" fill="#F9E6DB"/>
<path d="M139.081 241.846V244.228C137.246 243.633 137.693 242.243 138.263 241.176C138.56 240.631 138.932 241.424 139.081 241.846V241.846Z" fill="#F9E4DB"/>
<path d="M140.768 236.983C141.635 238.422 141.586 239.291 141.04 240.407C139.85 239.44 140.296 238.497 140.768 236.983Z" fill="#F5E9D6"/>
<path d="M167.592 226.365C165.807 227.63 163.601 227.357 161.667 228.027C161.791 227.109 161.295 225.571 162.361 225.496C164.146 225.372 165.485 223.76 167.22 224.132C168.46 224.405 167.294 225.62 167.617 226.365H167.592Z" fill="#F3E9D6"/>
<path d="M183.632 142.954C183.706 143.525 183.806 144.12 183.806 144.691C183.806 145.088 183.657 145.485 183.161 145.534C182.665 145.584 182.516 145.262 182.442 144.84C182.045 142.334 181.624 139.853 181.252 137.347C181.178 136.901 181.153 136.305 181.797 136.181C182.516 136.057 182.913 136.504 182.987 137.149C183.235 139.084 183.459 141.019 183.682 142.954H183.607H183.632Z" fill="#EDEBEB"/>
<path d="M182.641 131.542C182.269 132.336 183.037 133.626 181.946 133.626C180.682 133.626 181.153 132.112 180.831 131.294C180.583 130.673 180.98 129.706 181.699 129.706C183.161 129.706 182.145 131.07 182.641 131.567V131.542Z" fill="#E9E5E6"/>
<path d="M386.304 134.221V131.492C388.882 131.889 388.188 134.345 389.229 135.561C389.874 136.553 389.229 137.744 389.775 138.761V141.986C389.031 143.202 388.262 143.277 387.494 141.986C387.196 140.2 387.99 138.29 386.874 136.578C386.031 135.958 386.75 134.941 386.304 134.221V134.221Z" fill="#F1EEEE"/>
<path d="M366.074 134.916L366.149 133.725C366.818 133.403 368.429 134.569 367.81 132.236C367.289 130.276 368.95 129.334 370.809 130.152C369.942 131.616 369.322 133.154 369.619 134.916C368.578 134.866 367.562 134.966 366.644 135.536L366.074 134.916V134.916Z" fill="#009192"/>
<path d="M383.924 124.223C386.13 123.627 385.783 125.91 386.725 126.729C387.667 127.721 387.122 128.366 386.254 128.962H385.163C383.949 128.589 384.469 127.324 383.949 126.58V124.248L383.924 124.223Z" fill="#EEEEEF"/>
<path d="M391.634 136.677C391.188 139.208 392.403 141.863 391.039 144.319C391.039 141.565 391.064 138.811 391.089 136.057L391.634 136.677Z" fill="#528387"/>
<path d="M387.047 121.171C387.27 121.767 387.469 122.337 387.692 122.933C386.948 122.933 385.907 123.429 385.609 122.585C385.262 121.643 386.502 121.593 387.072 121.171H387.047Z" fill="#009291"/>
<path d="M383.899 124.248C382.56 123.95 382.609 123.205 383.13 122.139C384.246 122.66 383.75 123.553 383.923 124.223L383.899 124.248Z" fill="#009291"/>
<path d="M386.229 136.082C385.585 135.933 384.395 136.479 384.37 135.511C384.37 134.568 385.535 135.04 386.18 134.916C386.626 135.288 386.601 135.685 386.205 136.082H386.229Z" fill="#009492"/>
<path d="M389.799 138.761C388.882 137.818 389.303 136.652 389.254 135.561C390.518 136.429 389.576 137.694 389.799 138.761Z" fill="#598283"/>
<path d="M387.519 141.987C388.287 142.657 389.056 142.632 389.824 141.987C389.775 142.805 389.353 143.227 388.51 143.153C387.766 143.103 387.543 142.607 387.519 141.962V141.987Z" fill="#568684"/>
<path d="M383.924 126.58L385.139 128.961C383.552 128.788 383.974 127.572 383.924 126.58Z" fill="#5E858B"/>
<path d="M386.229 128.937C386.626 128.242 386.973 127.547 386.701 126.704C387.915 127.746 387.791 128.49 386.229 128.937Z" fill="#4C858B"/>
<path d="M386.23 136.082C386.23 135.685 386.23 135.313 386.205 134.916C386.23 134.668 386.279 134.444 386.304 134.196C387.172 134.817 386.8 135.734 386.874 136.553C386.032 137.223 386.428 136.256 386.23 136.057V136.082Z" fill="#637F85"/>
<path d="M395.774 128.986C398.005 130.698 398.402 133.006 398.005 135.66C396.518 135.71 397.212 133.527 395.774 133.75C395.08 132.162 394.535 130.574 395.774 128.986V128.986Z" fill="#F8F4EC"/>
<path d="M395.774 128.986V133.75C394.336 132.658 393.766 131.095 393.444 129.408C393.345 128.862 393.444 128.192 394.138 127.969C395.055 127.671 395.625 128.019 395.799 128.986H395.774Z" fill="#FCF0F2"/>
<path d="M427.829 175.802C431.226 171.808 433.036 167.268 432.589 161.934C432.465 160.321 432.887 158.808 434.796 158.733C436.63 158.659 436.977 160.172 437.052 161.611C437.374 167.069 436.457 172.205 432.763 176.522C431.424 177.266 431.027 179.325 429.044 179.176C428.276 178.879 427.73 178.358 427.457 177.564C427.309 176.894 427.507 176.323 427.829 175.753V175.802Z" fill="#BA5432"/>
<path d="M413.575 182.526C408.765 181.161 406.038 177.44 403.534 173.495C402.889 172.602 401.997 171.833 402.195 170.567C403.931 167.169 404.129 167.094 406.41 168.756C407.972 173.396 411.145 176.571 415.409 178.755C415.756 179.226 416.376 179.499 416.426 180.169C416.376 182.03 414.74 182.005 413.575 182.526V182.526Z" fill="#BA5434"/>
<path d="M413.575 182.526C413.5 180.839 416.004 181.682 415.98 180.045C417.095 179.077 418.434 179.573 419.698 179.474C420.839 179.375 422.103 179.747 423.07 178.78H423.045C423.863 178.457 424.905 178.507 425.45 177.613C426.268 177.192 427.086 176.993 427.88 177.663L429.07 178.854C428.946 179.449 428.673 179.995 428.45 180.566C423.888 184.138 418.905 184.585 413.575 182.501V182.526Z" fill="#BB5533"/>
<path d="M402.864 170.667L403.534 173.52C402.592 173.024 401.6 172.875 400.534 172.949C400.98 170.468 399.17 167.218 402.914 165.829C402.964 166.598 403.41 166.97 404.154 167.045C404.03 168.359 401.997 169.005 402.864 170.667V170.667Z" fill="#F5D4C2"/>
<path d="M423.07 178.78C421.086 181.335 418.31 179.474 415.979 180.045L415.409 178.755C417.963 179.177 420.516 179.053 423.07 178.755V178.78Z" fill="#BC5940"/>
<path d="M428.45 180.591C428.078 179.822 427.681 179.028 429.069 178.879C430.681 178.73 431.053 176.547 432.788 176.571C431.796 178.383 430.458 179.846 428.474 180.591H428.45Z" fill="#BC5940"/>
<path d="M402.418 174.264C403.385 175.902 402.27 176.547 401.377 177.216C401.278 177.291 400.757 177.068 400.732 176.894C400.336 175.381 401.575 175.033 402.418 174.239V174.264Z" fill="#FAD3CD"/>
<path d="M419.549 175.331C418.88 175.182 417.987 175.678 417.467 174.438C419.128 174.264 420.764 173.197 421.929 175.306C421.136 176.05 420.367 175.902 419.574 175.306L419.549 175.331Z" fill="#F6D9C5"/>
<path d="M402.864 170.667C401.749 168.905 402.914 167.962 404.153 167.044C405.145 167.342 406.335 167.342 406.434 168.781C404.153 167.342 403.484 168.93 402.889 170.667H402.864Z" fill="#BE5B40"/>
<path d="M419.55 175.331C420.343 175.331 421.136 175.331 421.905 175.331C422.351 175.48 423.145 175.852 422.599 176.15C421.533 176.72 420.145 177.167 419.55 175.356V175.331Z" fill="#FAD0CB"/>
<path d="M414.021 172.627C413.922 172.056 414.194 171.858 414.467 171.858C414.839 171.858 415.36 171.907 415.508 172.131C415.781 172.552 415.384 172.85 414.963 172.85C414.616 172.85 414.269 172.701 414.021 172.627Z" fill="#F6D9C1"/>
<path d="M427.854 177.688C427.036 177.688 426.243 177.663 425.425 177.638C426.02 176.77 426.937 176.299 427.805 175.802V177.688H427.854Z" fill="#BC5940"/>
<path d="M425.45 177.638C425.251 179.251 424.037 178.829 423.045 178.829C423.714 178.159 424.557 177.837 425.45 177.638Z" fill="#BC5940"/>
<path d="M434.226 162.728C435.342 163.943 434.896 165.233 434.896 167.094C433.235 165.382 434.078 163.993 434.226 162.728Z" fill="#BA5137"/>
</g>
<defs>
<clipPath id="clip0_5114_42541">
<rect width="595" height="287" fill="white"/>
</clipPath>
</defs>
</svg>
