<svg width="595" height="287" viewBox="0 0 595 287" fill="none" xmlns="http://www.w3.org/2000/svg">
<g clip-path="url(#clip0_5114_48382)">
<path d="M101.076 286.95C68.2019 286.95 35.3281 286.95 2.42958 287C0.396667 287 0 286.603 0 284.569C0.074375 189.919 0.0495833 95.2945 0.0495833 0.64506C1.09083 0.0992435 2.20646 0.372152 3.2725 0.372152C199.151 0.372152 395.006 0.372152 590.885 0.372152C594.975 0.372152 594.554 -0.074425 594.554 3.99439C594.554 97.2297 594.554 190.49 594.554 283.725C594.554 284.792 594.826 285.908 594.281 286.95H502.18C500.916 284.891 501.759 282.658 501.907 280.574C502.775 267.847 501.486 255.318 498.932 242.888C498.263 239.613 497.147 236.388 497.098 232.989C497.098 231.376 497.594 229.714 496.751 228.151C496.602 227.928 496.478 227.68 496.379 227.407C495.833 226.613 497.123 225.075 495.288 224.802C494.842 224.107 494.718 223.338 494.519 222.569C493.875 219.865 492.09 218.401 489.412 217.88C481.454 216.391 473.422 215.473 465.439 214.208C453.935 212.372 442.283 212 430.706 210.784C428.45 210.536 426.169 210.859 423.913 210.412C422.599 209.965 421.21 210.04 419.847 209.891C416.773 209.569 416.079 208.13 417.541 205.351C419.475 203.713 422.078 203.515 424.136 202.175C431.747 199.322 438.168 194.707 444.044 189.125C451.208 182.303 456.365 174.264 459.613 164.985C460.406 162.752 461.745 161.413 464.05 160.718C468.513 159.403 471.661 156.649 472.951 152.035C473.521 150.273 473.645 148.536 472.504 146.924C471.116 144.071 468.984 142.135 465.885 141.217C464.794 140.895 463.679 140.424 463.084 139.307C462.489 136.702 462.885 133.948 461.794 131.418C461.621 129.11 460.604 126.952 460.381 124.669C460.406 123.677 460.381 122.709 459.613 121.94C457.753 118.591 456.39 114.994 454.332 111.719C451.208 106.682 447.539 102.068 443.176 98.0484C442.159 97.1304 441.168 96.1629 440.474 94.9472C439.928 93.8804 439.284 92.9872 437.97 92.8383C437.573 92.7639 437.201 92.6647 436.829 92.491C436.135 92.1437 435.49 91.6475 434.796 91.2753C433.557 90.531 432.317 89.8115 431.152 88.968C429.987 88.2485 428.772 87.6779 427.508 87.2065C424.409 85.8172 421.26 84.6263 418.012 83.6835C413.079 82.1701 407.996 81.4506 402.889 81.0537C401.253 81.0041 399.642 81.1033 398.005 81.0537C396.766 81.0537 395.551 80.9048 394.336 81.277C393.766 81.401 393.171 81.4258 392.601 81.3266C391.584 81.2025 390.568 80.5327 389.527 81.2274C389.428 81.4754 389.254 81.6491 389.056 81.7732C388.56 82.0213 388.064 82.0957 387.519 82.1701C386.254 82.1701 385.139 82.7407 383.973 83.0881C382.759 83.3858 381.569 83.7331 380.403 84.2541C374.577 86.0653 369.198 88.8192 364.239 92.3421C363.52 92.7639 362.826 93.2353 362.082 93.6323C361.834 93.7563 361.586 93.8307 361.314 93.9052C359.256 94.1781 358.14 95.5178 357.322 97.2793C356.43 98.9416 355.165 100.207 353.504 101.075C351.695 101.894 350.405 103.134 350.108 105.194C348.868 107.873 347.059 110.18 345.373 112.562C344.356 114.001 343.513 115.515 343.117 117.251C342.869 118.194 342.323 118.963 341.654 119.658C340.885 120.278 340.761 121.146 340.811 122.089C340.811 122.784 340.712 123.478 340.514 124.148C339.993 125.339 339.571 126.555 339.472 127.87C338.852 129.681 338.58 131.566 338.134 133.427C338.034 133.7 337.91 133.973 337.762 134.221C336.993 135.263 337.365 136.479 337.291 137.62C337.291 138.737 337.291 139.853 337.34 140.994C337.464 142.855 337.216 144.716 337.34 146.576C337.34 147.891 337.34 149.206 337.34 150.521C337.415 151.886 337.068 153.275 337.687 154.565C337.91 154.962 338.084 155.359 338.233 155.806C338.58 157.84 339.547 159.701 339.72 161.785C339.671 162.802 340.241 163.646 340.588 164.564C342.546 169.352 344.455 174.14 347.48 178.383C347.901 179.102 348.348 179.772 348.744 180.491C348.868 180.74 348.943 180.988 349.017 181.236C349.116 182.65 349.835 183.617 351.124 184.188C352.265 184.833 353.058 185.85 353.752 186.892C355.364 189.299 357.694 190.887 360 192.549C360.57 193.144 361.264 193.591 361.958 194.062C367.437 197.958 373.288 201.208 379.511 203.713C380.056 203.937 380.626 204.16 380.602 204.929C378.172 206.294 375.346 205.847 372.792 206.616C372.049 206.839 371.33 206.889 370.859 207.584C369.396 208.328 368.305 209.593 366.842 210.338C360.149 211.702 353.281 211.727 346.563 212.967C345.397 213.191 344.183 213.067 343.042 212.744C340.761 211.429 338.406 211.28 335.729 211.454C332.134 211.677 328.44 211.628 324.82 211.404C320.631 211.156 318.474 213.687 317.408 215.076C318.846 212.248 322.812 211.107 327.448 211.33C329.506 211.429 331.589 211.578 333.646 211.529C335.035 211.504 336.026 211.925 335.58 213.637C334.142 215.2 332.134 215.052 330.324 215.275C325.267 215.92 322.465 218.426 320.804 223.512C315.524 239.812 312.92 256.608 310.367 273.429C309.871 276.629 309.623 279.904 309.499 283.179C309.45 284.593 309.251 285.958 307.987 286.876H288.972C286.79 284.916 286.145 282.261 285.65 279.532C285.947 278.738 285.997 278.044 284.931 277.771C282.997 276.158 281.881 274.124 281.485 271.643C281.559 271.37 281.683 271.122 281.856 270.898C282.352 270.303 282.898 269.633 282.204 268.914C281.385 268.02 280.939 269.311 280.27 269.36C278.262 269.013 277.369 267.946 277.939 265.887C278.782 264.894 279.402 263.455 281.385 264.274C279.055 262.265 279.03 264.77 278.187 265.539C277.468 266.06 276.849 265.713 276.353 265.242C273.75 262.86 271.295 260.379 268.915 257.774C268.519 257.327 268.295 256.782 268.568 256.161C270.824 253.879 270.998 253.854 272.981 255.492C273.303 254.623 272.584 254.276 272.138 253.804C271.518 253.259 271.543 251.919 270.229 252.241C269.064 253.234 269.956 255.045 268.717 255.988C265.767 256.186 264.725 253.432 262.792 252.068C262.668 251.969 263.263 251.572 263.585 251.448C263.783 251.448 263.858 251.373 263.734 251.224C263.734 251.398 263.61 251.497 263.387 251.497C261.924 251.944 261.031 250.951 259.965 250.281C257.486 248.743 255.181 246.932 252.478 245.791C251.511 245.369 250.52 244.848 250.173 243.707C250.371 242.566 251.264 241.97 252.131 241.35C252.825 241.027 253.544 241.003 254.263 241.226C254.586 240.978 255.528 242.516 255.379 240.854C255.057 240.358 254.61 239.961 254.164 239.588C253.594 239.018 252.9 238.943 252.156 239.092C250.693 239.638 249.627 242.218 247.57 239.539C246.875 238.646 245.834 240.754 244.694 240.978C242.562 241.275 240.95 239.886 239.116 239.291C235.446 238.1 231.852 236.76 228.158 235.644C227.042 235.296 225.753 235.172 225.455 233.684C225.406 233.237 225.48 232.791 225.778 232.418C226.819 231.153 228.728 231.55 229.918 230.21C228.282 230.682 226.968 231.426 225.778 232.418C223.943 233.609 222.133 232.195 220.844 231.624C218.142 230.458 215.068 231.178 212.613 229.491C212.241 229.342 211.919 229.119 211.671 228.846C212.043 228.697 211.423 228.995 211.547 228.622C211.597 228.449 211.448 228.424 211.473 228.722C211.547 229.243 211.423 229.714 210.903 229.863C210.333 230.037 210.134 229.491 209.911 229.094C209.44 225.745 209.019 222.42 210.258 219.12C213.382 216.887 217.125 217.706 220.571 217.036C221.811 216.788 223.125 216.937 224.414 216.987C226.621 217.359 228.926 216.689 231.058 217.681C230.959 217.433 230.587 217.359 230.637 216.987C232.273 215.2 234.405 215.945 236.339 215.895C238.57 215.796 240.801 216.242 243.008 215.746C243.132 215.473 243.33 215.275 243.603 215.126C245.413 214.406 247.322 214.853 249.156 214.63C251.561 214.332 252.156 213.439 251.784 211.057C250.966 205.922 250.148 200.761 250.024 195.526C250.173 193.914 250.272 192.326 249.404 190.837C248.363 186.173 247.768 181.459 247.619 176.696C247.768 175.083 247.941 173.47 247.074 171.957C246.38 170.394 246.429 168.707 246.454 167.045C246.603 165.432 246.727 163.819 245.834 162.331C244.818 157.691 244.148 153.002 244.148 148.239C244.024 146.676 244.57 145.013 243.553 143.55C243.38 143.252 243.256 142.954 243.157 142.632C241.793 133.154 240.95 123.603 239.488 114.125C238.893 110.28 238.645 110.007 234.703 110.23C226.323 110.726 217.944 111.049 209.564 111.867C207.903 112.041 206.192 112.264 204.63 111.346C203.713 110.404 203.713 109.287 203.961 108.096C205.746 104.35 205.275 102.936 201.482 101.001C201.234 100.902 200.986 100.802 200.738 100.678C198.953 100.008 197.119 99.934 195.259 100.008C194.367 100.008 193.474 99.9588 192.582 99.7603C190.623 99.0408 188.541 98.9664 186.557 98.3709C185.714 97.7755 184.772 97.6763 183.756 97.6266C179.269 97.3785 174.806 97.8251 170.269 97.1552C168.261 96.8575 165.608 97.2297 163.427 98.1973C163.005 98.3957 162.559 98.4454 162.113 98.3709C160.898 97.8003 159.658 97.2049 158.369 98.2469C156.386 98.495 154.452 99.3385 152.419 98.495C152.171 98.3957 151.923 98.2717 151.7 98.1228C150.535 97.4033 149.32 97.453 148.155 97.9988C147.163 98.4702 146.196 98.7679 145.13 98.3709C143.122 97.8499 140.965 96.2621 139.428 99.14C138.461 100.455 139.825 100.281 140.37 100.529C141.511 101.026 142.974 101.075 142.949 102.862C141.238 105.367 138.263 105.566 135.834 106.732C135.04 107.054 134.173 107.154 133.354 107.352C130.677 106.533 130.578 109.312 129.214 110.329C126.586 112.81 123.71 114.994 121.231 117.648C119.694 119.31 118.182 120.948 117.091 122.957C116.223 123.9 115.232 124.769 114.885 126.083C114.81 126.332 114.686 126.555 114.562 126.778C114.017 127.498 113.819 128.366 113.67 129.234C113.422 130.177 112.777 130.847 112.207 131.566C111.414 132.311 111.513 133.278 111.563 134.221C111.612 135.486 111.488 136.727 111.563 137.967C111.563 142.632 111.711 147.271 112.802 151.836C112.629 153.176 112.678 154.342 114.562 154.143C115.579 154.193 116.595 154.069 117.537 154.565C118.579 156.029 117.091 156.426 116.397 156.997C114.166 158.882 112.331 161.016 111.265 163.77C111.116 164.142 110.918 164.514 110.72 164.861C110.149 166.275 110.1 167.69 110.868 169.054C111.116 169.426 111.315 169.823 111.538 170.22C113.868 175.405 118.405 177.266 123.562 178.234C127.851 179.028 127.95 179.177 128.346 183.518C128.917 189.795 129.76 196.047 129.437 202.374C129.561 204.805 129.09 207.212 129.338 209.643C129.289 212.124 129.611 214.531 130.454 216.887C130.776 218.624 131.049 220.386 130.999 222.172C130.9 225.224 131.371 225.695 134.321 225.472C141.908 224.901 149.444 224.033 157.006 223.264C159.361 223.015 161.716 222.891 164.096 222.916C166.575 223.462 169.377 222.098 171.633 224.107C171.905 223.76 172.277 223.71 172.674 223.859C173.517 224.851 173.418 226.042 173.443 227.233C173.343 228.052 173.368 228.871 173.368 229.689C173.368 230.483 173.319 231.277 172.848 231.972C172.55 232.319 172.178 232.518 171.707 232.493C170.963 232.741 170.096 230.855 169.426 232.617C169.401 232.89 169.302 233.138 169.178 233.361C169.005 233.584 168.782 233.758 168.509 233.882C167.369 234.279 166.228 234.23 165.063 234.18C163.65 233.932 162.137 233.733 163.327 231.649C162.286 231.897 161.394 232.915 159.956 232.121C159.286 231.749 160.129 232.915 159.708 233.212C158.815 234.205 160.452 234.676 160.179 235.544C159.758 236.338 158.964 236.512 158.22 236.735C152.915 238.249 147.957 240.581 142.974 242.863C142.354 243.161 141.709 243.409 141.015 243.26C140.866 243.211 140.718 243.111 140.594 243.012C140.618 243.087 140.668 243.211 140.718 243.459C139.8 245.295 138.04 245.667 136.28 246.039C135.536 246.089 134.718 245.965 134.296 246.808C134.049 247.255 133.776 247.701 133.404 248.073C132.561 248.917 131.495 249.463 130.479 250.108C124.231 254.276 119.446 260.156 113.521 264.696C112.629 265.366 111.389 265.639 110.893 266.83C110.323 267.599 110.298 268.492 110.298 269.385C109.48 272.635 107.398 275.141 105.29 277.597C104.695 277.845 104.199 278.168 104.546 278.962C103.877 281.765 103.183 284.593 101.175 286.826L101.076 286.95Z" fill="#F47E80"/>
<path d="M268.642 256.062C271.444 259.585 274.468 262.885 278.088 265.589C277.914 267.425 278.98 268.442 280.468 269.187C281.509 269.608 282.352 270.129 281.782 271.469C282.823 273.503 283.591 275.712 285.129 277.473C285.897 277.87 285.872 278.515 285.773 279.235L288.822 286.926H101.075C101.397 283.899 103.331 281.467 104.1 278.614C104.025 278.068 104.273 277.696 104.769 277.473C106.182 274.645 108.587 272.387 109.48 269.261C109.653 268.864 109.975 268.641 110.347 268.492C111.81 268.442 112.281 267.599 112.157 266.259C112.331 265.564 112.355 264.82 113.099 264.423C118.603 259.263 123.809 253.705 130.131 249.463C131.594 249.636 132.61 249.066 133.131 247.652L133.825 246.56C134.197 245.816 135.114 245.89 135.66 245.394C137.469 245.096 139.18 244.6 140.271 242.963C144.262 241.251 148.229 239.464 152.27 237.877C154.774 236.884 157.352 236.115 159.906 235.272C160.03 235.023 160.179 234.8 160.402 234.602C161.641 233.436 163.451 234.602 164.715 233.51L168.682 233.361C169.723 232.518 170.889 232.741 172.029 233.014C173.244 233.709 173.07 234.949 173.169 236.065C173.343 237.777 173.516 239.514 174.632 240.928C174.855 241.102 175.078 241.3 175.277 241.499C177.062 242.814 179.119 243.285 181.276 243.434C185.392 244.674 189.507 244.848 193.647 243.583C194.689 243.26 195.755 243.211 196.821 243.26C198.432 244.079 199.325 242.293 200.663 242.144C202.002 242.293 202.994 241.375 204.184 241.077C204.58 240.978 204.977 240.953 205.399 240.953C206.316 240.978 207.184 240.879 207.828 240.134C208.77 239.34 209.588 238.422 210.282 237.405C210.679 236.785 210.654 236.09 210.704 235.42C210.977 231.773 211.15 231.6 214.993 231.426C216.133 231.352 217.274 231.376 218.414 231.624C219.183 231.897 219.976 232.071 220.745 232.27C222.356 232.989 224.29 232.319 225.777 233.535C226.174 235.396 227.934 234.651 228.975 234.999C234.306 236.735 239.561 238.72 244.817 240.705C247.049 240.854 249.205 241.077 250.147 243.608C254.04 245.865 258.18 247.751 261.576 250.778C262.221 251.348 262.965 251.448 263.783 251.373L263.213 252.043C265.419 252.812 266.411 255.243 268.592 256.037L268.642 256.062Z" fill="#E4AE00"/>
<path d="M497.941 232.567C498.313 237.48 499.924 242.169 500.767 247.007C502.874 258.89 503.693 270.824 502.775 282.857C502.676 284.221 502.354 285.586 502.155 286.926H423.12C422.078 285.239 422.748 283.452 422.847 281.716C424.111 259.883 423.541 238.224 417.814 216.937C417.393 215.399 416.847 213.935 416.178 212.496C415.856 211.628 415.732 210.759 416.004 209.866C416.128 209.519 416.327 209.246 416.599 209.023C418.905 209.569 421.285 209.345 423.615 209.569C434.35 210.164 445.11 210.685 455.77 212.05C467.323 213.538 478.827 215.3 490.33 217.012C493.007 217.408 494.693 219.071 495.338 221.8C495.61 222.916 495.338 224.206 496.205 225.174C496.85 225.869 496.181 226.861 496.776 227.556C497.867 229.044 497.321 230.93 497.941 232.542V232.567Z" fill="#010101"/>
<path d="M307.863 286.95C309.028 280.549 309.003 274 310.069 267.574C312.747 251.423 315.523 235.321 320.928 219.79C321.895 216.987 324.2 215.721 326.828 215.002C329.58 214.258 332.506 214.357 335.208 213.315C337.414 211.876 339.869 211.876 342.348 212.198L367.264 209.593C371.181 208.576 375.122 208.006 379.188 208.179C380.552 208.353 381.915 208.204 383.279 208.303C386.155 208.502 386.651 209.296 385.758 212.298C381.99 217.532 380.651 223.661 379.734 229.813C377.18 247.329 376.536 264.87 379.659 282.41C379.932 283.948 380.354 285.561 379.139 286.95H307.838H307.863Z" fill="#010101"/>
<path d="M379.164 286.95C378.47 281.591 377.404 276.257 377.106 270.874C376.09 252.614 376.09 234.428 382.189 216.838C382.809 215.076 383.131 212.943 385.238 212.025C386.18 211.454 387.197 211.107 388.337 211.107C394.659 211.107 400.981 210.933 407.303 211.206C407.873 211.256 408.418 211.231 408.989 211.256C411.517 211.578 414.195 210.561 416.6 212.074C417.765 212.372 418.112 213.439 418.285 214.307C419.723 221.527 421.707 228.623 422.649 235.966C424.359 249.512 424.632 263.083 424.31 276.679C424.235 280.128 423.839 283.551 423.145 286.95H379.164V286.95Z" fill="#F9F3F0"/>
<path d="M594.256 286.95C594.256 192.723 594.256 98.495 594.33 4.26729C594.33 1.21568 593.562 0.595436 590.611 0.595436C393.766 0.669865 196.895 0.645055 0.0491617 0.645055C0.17312 0.471387 -0.248338 0.0248098 0.346662 0.0496196C1.14 0.0744295 1.93333 0.0496196 2.72666 0.0496196C199.151 0.0496196 395.551 0.0744295 591.975 0C594.281 0 594.925 0.297718 594.925 2.82832C594.851 96.6342 594.851 190.465 594.826 284.271C594.826 285.139 595.52 286.281 594.281 286.95H594.256Z" fill="white"/>
<path d="M408.914 212H407.6C407.476 211.826 407.401 211.628 407.352 211.454C406.881 210.164 408.889 208.675 407.451 207.733C406.484 207.088 404.996 208.08 403.732 208.105C397.683 208.204 391.559 209.097 385.659 206.864C384.742 206.194 383.527 206.591 382.56 206.095C381.816 205.773 380.924 205.723 380.403 204.954C373.66 202.647 367.66 198.876 361.661 195.154C361.462 195.03 361.413 194.633 361.314 194.385C360.942 193.665 360.124 193.566 359.553 193.095C355.711 191.259 353.603 187.587 350.703 184.759C349.463 183.915 348.893 182.575 348.273 181.285C348.248 181.087 348.224 180.888 348.224 180.69C348.273 179.797 348 179.102 347.034 178.854C343.587 174.636 341.505 169.774 339.968 164.613C339.546 163.844 339.621 162.852 338.902 162.207C338.902 159.924 337.266 158.014 337.563 155.682C336.72 154.168 337.092 152.531 337.018 150.918C336.795 149.231 337.241 147.693 338.555 145.981C338.48 146.031 337.687 145.931 338.009 146.155C338.109 146.229 338.034 146.279 337.935 146.428C337.538 146.924 337.117 147.246 336.497 146.725C336.497 144.74 336.497 142.781 336.497 140.796C337.39 139.481 336.894 138.017 337.018 136.603C337.092 135.561 336.844 134.469 337.563 133.576C337.464 131.517 337.861 129.582 338.778 127.746C339.869 127.928 340.464 128.697 340.563 130.053C341.455 128.093 338.629 126.307 339.943 124.074L340.017 121.866C340.513 121.097 340.017 119.881 341.158 119.434L342.422 117.028C343.736 115.713 344.158 113.976 344.753 112.314C346.339 109.908 347.901 107.526 349.488 105.119C350.356 103.283 351.645 101.795 353.157 100.455C354.645 99.6114 355.81 98.4454 356.653 96.9568C358.091 95.5674 359.38 94.0044 361.314 93.2601C361.512 93.2353 361.685 93.2105 361.884 93.2105C362.801 93.2601 363.47 92.9376 363.694 91.9948C368.627 88.0501 374.106 85.1225 380.304 83.7331C381.097 83.2618 381.866 83.5099 382.51 83.9316C385.064 85.6187 387.37 84.2045 389.75 83.5099C390.915 83.1625 390.072 82.9392 389.824 82.5423C389.427 81.9716 389.526 81.4506 390.097 81.0289C391.435 80.4831 392.799 81.4506 394.138 81.0289C395.253 80.5823 396.567 81.1777 397.609 80.2846H402.939C403.534 81.3514 402.84 81.7484 402.021 81.8972C401.055 82.0709 400.063 82.0213 399.617 82.8896C402.17 81.4506 405.17 81.2025 407.922 82.0213C411.417 83.0385 414.913 82.84 418.409 83.1377C421.78 83.7828 424.954 84.9984 427.929 86.7103C428.697 88.1245 430.309 87.8764 431.449 88.5214C432.689 89.2161 434.127 89.6131 435.069 90.8288C435.465 91.5234 436.135 91.8459 436.879 92.0444L437.895 92.1437C439.135 92.6895 439.854 93.8307 440.944 94.5502C445.853 99.661 451.035 104.499 454.629 110.726C456.712 114.299 458.621 117.921 460.059 121.816C460.778 122.436 460.703 123.429 461.15 124.198C461.05 126.629 462.91 128.713 462.414 131.219C462.959 132.633 462.563 134.122 462.885 135.561C463.158 136.801 462.538 137.694 461.174 137.769C458.745 137.893 458.373 139.456 458.993 141.242C459.637 143.153 459.588 144.865 458.77 146.651C457.852 148.636 459.885 150.397 459.265 152.382C458.175 155.136 458.398 155.483 461.869 156.227C465.067 155.731 466.604 153.647 466.281 150.248C466.157 149.057 465.686 147.991 465.191 146.924C464.125 145.361 463.703 143.277 461.397 142.805C460.257 142.582 459.439 141.887 459.513 140.572C459.563 139.506 460.183 138.761 461.1 138.29C462.513 137.546 462.91 138.935 463.678 139.555C467.67 140.845 471.686 142.036 473.124 146.676C474.463 149.132 472.107 149.851 470.992 151.166C470.794 151.365 470.595 151.538 470.446 151.762C470.595 151.563 470.769 151.39 470.967 151.216C472.107 150.62 473.05 150.769 473.62 152.01C473.074 156.128 470.57 159.304 466.951 160.247C461.869 161.586 460.505 165.184 458.77 169.277C452.249 184.61 440.969 195.353 425.995 202.399C425.574 202.597 425.028 202.523 424.532 202.572C422.202 202.92 419.971 201.679 417.64 202.15C417.02 202.274 415.954 202.15 417.07 203.192C417.268 203.366 417.442 203.589 417.541 203.837C417.913 204.954 416.673 205.599 416.698 206.616C416.698 207.683 416.599 208.725 416.227 209.742C415.682 211.206 414.69 211.826 413.079 211.727C411.74 211.653 410.351 211.479 409.013 211.901L408.914 212Z" fill="#E0BB96"/>
<path d="M197.391 244.029C194.441 243.955 191.764 245.518 188.739 245.369C185.987 245.245 183.26 245.344 180.682 244.153C180.36 243.93 180.012 243.732 179.839 243.36C178.897 241.325 177.781 239.886 175.525 242.069C175.352 242.243 174.955 242.069 174.732 241.821C174.013 240.432 172.55 239.142 174.062 237.405C172.178 236.289 173.294 234.453 172.947 232.939C172.972 232.667 173.046 232.394 173.17 232.145C173.492 231.624 173.79 231.029 174.484 231.029C174.757 230.955 174.385 230.93 174.41 230.855C173.765 229.739 172.749 228.871 172.401 227.58L172.203 224.057C169.476 223.388 166.724 223.611 163.972 223.983C156.014 224.206 148.13 225.248 140.247 226.142C137.718 226.439 135.164 226.39 132.636 226.811C130.851 227.109 129.14 226.017 129.636 223.859C130.181 221.452 129.537 219.195 129.537 216.863C129.115 215.002 128.966 213.116 128.991 211.231C128.793 208.626 129.165 205.996 128.892 203.391C128.793 203.093 128.619 202.795 128.421 202.547C128.619 195.551 127.454 188.604 127.206 181.633C127.132 179.673 125.917 179.648 124.43 179.449C119.05 178.73 114.067 177.167 111.116 171.982C110.769 171.361 110.521 170.741 110.546 170.047C109.728 168.012 109.728 165.978 110.546 163.943C111.34 159.726 114.538 157.468 117.686 155.21C117.885 154.937 118.132 154.739 118.455 154.615C132.71 154.962 146.172 151.514 159.187 146.006C160.179 145.584 161.171 145.137 162.262 144.989C164.989 146.031 167.17 144.17 169.55 143.475C170.567 143.177 170.269 141.937 170.716 141.193C174.062 137.819 178.649 136.206 182.318 133.303C182.864 132.857 183.508 132.608 184.227 132.906C184.797 133.03 185.045 135.164 185.962 133.229C186.681 131.74 188.268 130.748 188.417 128.937C193.821 123.379 199.127 117.747 203.664 111.446C203.837 111.222 204.16 111.148 204.457 111.098C214.969 110.478 225.48 109.908 235.967 109.188C238.372 109.014 239.81 109.709 240.132 112.14C241.322 121.196 242.487 130.252 243.628 139.307C243.777 140.572 243.702 141.863 243.727 143.153C244.843 144.567 243.876 146.254 244.396 147.742C244.644 147.718 244.793 147.817 244.843 148.04C245.016 152.853 245.636 157.592 246.603 162.306C247.471 163.794 246.429 165.531 247.223 167.02C247.396 168.608 246.851 170.295 247.793 171.808C248.685 173.297 247.619 175.033 248.413 176.547C248.586 181.36 249.206 186.098 250.173 190.812C251.09 192.301 249.999 194.062 250.793 195.576C251.165 201.059 251.512 206.542 252.974 211.876C253.495 213.811 252.181 215.523 249.975 215.647C247.719 215.771 245.438 215.721 243.157 215.746C241.297 216.887 239.24 215.97 237.306 216.416C237.009 216.515 236.761 216.689 236.537 216.887C234.529 217.111 232.447 216.466 230.538 217.483C228.654 218.351 226.546 217.26 224.637 218.078C219.853 217.929 215.167 218.798 210.432 219.294C208.746 220.559 206.688 220.51 204.755 220.659C197.069 221.229 189.408 222.073 181.748 222.619C177.806 222.891 177.484 223.462 179.046 227.184C180.36 230.334 182.467 232.939 184.772 235.396C185.516 236.189 186.458 236.785 186.83 237.877C186.83 238.398 186.508 238.646 186.037 238.77C186.731 239.092 187.326 238.472 187.995 238.522C191.045 239.39 193.797 241.003 196.772 242.045C197.59 242.342 198.73 242.938 197.441 244.104L197.391 244.029Z" fill="#EBBBA2"/>
<path d="M162.857 145.559C154.998 148.66 147.164 151.886 138.784 153.474C132.016 154.739 125.273 156.277 118.306 155.012C117.017 154.193 115.554 154.615 114.166 154.441C113.025 154.292 112.43 153.449 111.835 152.605C110.72 147.742 110.174 142.855 110.621 137.868C111.538 136.454 112.158 135.015 111.265 133.353C111.141 132.608 111.191 131.889 111.761 131.318L112.951 128.937C113.72 128.316 113.521 127.225 114.141 126.53C115.48 125.662 115.777 124.148 116.471 122.858C118.777 117.747 123.091 114.497 127.305 111.173C127.776 110.801 128.347 110.652 128.446 109.982C130.057 109.262 131.074 107.526 132.983 107.253C133.801 106.856 134.892 107.228 135.511 106.31C137.594 104.524 140.569 104.524 142.676 102.762C146.742 99.7851 151.626 99.4129 156.361 98.6438C157.477 98.4702 158.444 98.1725 159.336 97.577C160.179 97.4282 160.997 97.4282 161.691 97.9988H162.881C165.212 96.8327 167.815 97.1552 170.145 97.2545C175.104 97.5026 180.037 97.1801 184.971 97.4778C187.301 99.0408 190.103 98.4454 192.631 99.1897L195.532 99.2393C197.168 100.331 199.226 99.5618 200.887 100.43C205.052 102.465 205.697 103.73 204.556 107.551C204.531 108.717 204.507 109.883 204.482 111.049C200.416 117.946 194.838 123.553 189.061 128.961C187.896 130.822 186.458 132.336 184.227 132.881L171.187 141.317C168.906 143.649 165.956 144.716 162.906 145.534L162.857 145.559Z" fill="#C85D25"/>
<path d="M197.391 244.029C197.937 242.789 196.796 242.714 196.176 242.516C193.226 241.648 190.474 240.333 187.797 238.869C187.152 239.092 186.83 238.77 186.632 238.224C182.219 234.701 178.946 230.359 177.136 224.951C176.591 223.338 176.219 222.222 178.698 222.048C183.582 221.701 188.466 220.956 193.35 220.51C199.027 219.989 204.73 219.641 210.432 219.22L210.506 229.838C210.928 230.235 211.126 230.731 211.175 231.302C210.704 233.584 211.547 235.966 210.506 238.199C210.134 239.489 209.291 240.283 207.977 240.556C207.68 240.928 207.283 240.953 206.862 240.854C205.696 240.358 204.953 238.373 203.217 239.837C202.895 240.109 201.978 239.911 202.201 240.482C202.771 241.921 201.68 242.293 200.912 242.913C199.573 242.739 198.928 244.774 197.416 244.029H197.391Z" fill="#CD9579"/>
<path d="M458.77 152.704C458.745 151.935 458.82 151.166 458.324 150.447C457.183 148.859 457.233 147.172 458.225 145.559C458.919 144.443 459.068 143.277 458.324 142.26C457.233 140.721 457.456 139.506 458.448 137.992C459.043 137.074 459.018 135.908 460.555 137.049C461.224 137.546 462.588 136.95 462.142 136.206C461.076 134.37 462.538 132.906 462.365 131.294C463.828 133.923 463.481 136.826 463.58 139.654C462.365 139.208 461.076 138.216 460.208 140.126C459.836 140.945 459.861 141.962 460.877 141.987C464.175 142.036 464.695 144.741 465.885 146.849C464.348 147.172 464.348 149.256 462.762 149.504C462.489 149.454 462.241 149.33 462.043 149.132C461.398 147.966 461.993 146.626 461.596 145.559C461.522 148.189 462.687 151.365 459.092 152.977C458.968 152.903 458.869 152.829 458.745 152.754L458.77 152.704Z" fill="#E3BA96"/>
<path d="M342.348 212.198C340.018 212.943 337.663 213.364 335.208 213.315C335.035 212.967 334.787 212.322 334.688 212.347C330.225 213.191 325.589 210.586 321.152 213.166C319.466 214.158 318.053 215.176 317.334 217.011C316.987 217.88 316.466 218.5 315.35 218.947C314.83 217.657 314.78 216.565 315.797 215.473C318.226 212.893 320.383 210.412 324.697 210.759C328.019 211.007 331.44 210.462 334.837 210.883C335.58 210.983 336.572 210.983 337.142 210.586C339.671 208.849 340.762 211.231 342.373 212.198H342.348Z" fill="#E16367"/>
<path d="M159.386 98.1228C158.022 99.6114 156.064 99.0904 154.403 99.5618C150.51 100.703 146.568 101.72 142.651 102.787C141.858 101.199 140.073 101.77 138.858 101.075C138.214 100.728 137.048 100.753 137.148 99.8595C137.272 98.8423 138.412 99.4377 139.081 99.2641C139.974 98.3709 141.065 98.3709 142.106 98.7679C143.321 99.2393 144.188 98.8671 145.031 98.0732C146.147 98.1973 146.99 97.5026 147.957 97.2049C149.345 96.7831 151.155 95.9892 152.171 98.0732C151.824 98.4454 151.378 98.619 150.882 98.6935C151.378 98.6438 151.824 98.4702 152.171 98.0732C154.155 98.7431 156.138 97.4778 158.146 98.0484C158.592 97.7259 159.014 97.7507 159.386 98.1228V98.1228Z" fill="#E06463"/>
<path d="M418.384 83.1873C415.26 84.2293 412.112 84.0557 408.963 83.2866C405.79 82.5175 402.567 81.3514 399.766 84.2541C398.824 85.2465 398.154 84.5022 397.634 83.7579C396.84 82.6663 398.179 82.9144 398.477 82.5175C399.592 80.9544 402.096 82.3438 402.914 80.3342C408.195 80.5823 413.451 81.1033 418.384 83.1873V83.1873Z" fill="#E2BA96"/>
<path d="M382.734 205.574L385.089 206.12C385.783 207.162 385.981 208.105 384.643 208.799C383.626 208.824 382.61 207.832 381.568 208.725C380.825 208.973 380.007 208.651 379.263 208.998L367.264 209.593C367.908 207.956 369.049 207.162 370.834 207.36C370.958 207.36 371.082 207.41 371.206 207.435C372.222 207.906 372.916 206.939 373.809 206.79C376.61 205.004 379.709 205.649 382.734 205.574V205.574Z" fill="#DE6866"/>
<path d="M389.849 81.4754C390.196 83.4106 392.13 82.0709 393.196 83.2369C388.832 84.5767 384.767 87.5787 380.279 83.7579C381.271 82.7407 382.535 82.5671 383.874 82.5671C385.089 82.2197 386.328 82.0213 387.469 81.4754L389.204 81.3762C389.452 81.1777 389.675 81.2273 389.849 81.4506V81.4754Z" fill="#E2BA96"/>
<path d="M185.442 98.1228C177.905 98.098 170.393 98.0732 162.856 98.0236C163.055 96.8079 163.997 96.9072 164.889 96.8575C166.426 96.8079 167.889 96.9568 169.377 95.9644C170.815 94.9968 172.005 97.1056 173.715 96.932C177.112 96.6342 180.558 96.8079 184.004 96.8575C184.995 96.8575 186.285 96.411 186.656 97.974C186.285 98.3958 185.888 98.3709 185.466 98.0732L185.442 98.1228Z" fill="#DE635F"/>
<path d="M307.02 259.883C308.11 260.354 309.176 261.099 308.904 261.793C307.862 264.349 309.251 267.028 308.185 269.559C307.788 270.501 307.937 271.668 307.862 272.734C307.788 273.752 308.086 274.843 307.243 276.381C305.904 270.601 306.053 265.366 307.044 259.883H307.02Z" fill="#E06266"/>
<path d="M218.688 232.369L215.267 232.195C215.043 232.046 214.795 231.922 214.548 231.798C213.754 231.6 212.812 231.773 212.366 230.806C212.068 230.012 212.242 229.342 212.787 228.722C213.804 228.722 214.597 231.401 215.862 228.895C216.06 228.523 217.002 228.747 217.423 229.218C219.679 231.798 223.101 231.079 225.853 232.27C225.853 232.691 225.828 233.113 225.803 233.535C224.068 233.336 222.258 233.882 220.622 232.89C220.126 232.195 219.233 232.84 218.688 232.344V232.369Z" fill="#E26367"/>
<path d="M417.392 203.614C416.301 203.664 414.963 204.16 414.938 202.647C414.913 201.133 416.227 201.431 417.144 201.431C419.648 201.431 422.251 201.009 424.458 202.671C422.772 204.383 420.293 204.408 418.31 205.475C417.938 206.046 417.095 205.797 416.698 206.368C416.425 206.418 416.202 206.368 416.004 206.17C416.401 205.376 416.797 204.582 417.392 203.589C417.591 203.416 417.516 203.465 417.392 203.589C417.467 203.54 417.541 203.49 417.392 203.589V203.614Z" fill="#E5B896"/>
<path d="M250.148 243.608C248.66 242.094 246.354 242.144 244.817 240.705C245.016 240.283 245.14 239.762 245.462 239.44C247.247 237.529 248.189 237.777 248.958 240.283C250.222 239.985 250.594 238.323 251.982 238.224C252.304 238.596 252.577 239.018 252.676 239.514C252.825 240.382 252.577 241.151 251.982 241.797C251.933 242.963 250.916 243.161 250.148 243.608Z" fill="#E16367"/>
<path d="M120.091 251.299C120.735 251.373 121.653 251.026 121.975 251.696C122.347 252.465 121.405 252.837 121.008 253.308C120.438 253.978 119.719 254.524 119.124 255.169C118.083 256.31 116.744 254.598 115.703 255.591C115.033 254.797 115.529 254.177 115.975 253.507C116.099 253.308 116.124 252.886 116 252.713C115.554 252.043 114.934 251.249 115.653 250.629C116.372 250.009 116.843 251.472 117.686 251.299C118.479 252.291 119.273 252.068 120.066 251.299H120.091Z" fill="#E1636A"/>
<path d="M164.74 233.535C163.897 235.619 161.666 234.081 160.476 235.172C160.005 234.651 159.484 234.18 159.311 233.46C159.36 232.071 157.749 232.592 156.98 231.103C160.228 231.897 163.104 230.707 166.153 231.252C165.757 232.542 164.939 232.146 164.344 232.27C163.897 232.369 163.178 232.27 163.278 232.915C163.402 233.609 164.22 233.386 164.74 233.485V233.535Z" fill="#E06661"/>
<path d="M145.031 98.0732C145.031 100.008 144.684 101.323 142.453 99.6859C141.437 98.9416 140.222 99.3633 139.106 99.2641C137.718 97.2049 138.561 96.5102 140.693 96.932C142.156 97.2049 144.114 95.8652 145.056 98.098L145.031 98.0732Z" fill="#E26269"/>
<path d="M272.187 253.68C275.261 253.06 273.6 255.69 274.047 256.732C274.27 257.278 272.683 257.327 272.559 256.782C271.791 253.283 269.981 256.037 268.642 256.062C269.138 254.499 267.502 252.39 269.832 251.299C270.799 251.919 271.592 252.688 272.212 253.68H272.187Z" fill="#E1626A"/>
<path d="M382.734 205.574C379.585 206.269 376.288 206.219 373.214 207.36C372.42 207.981 371.627 208.006 370.834 207.36C370.437 206.046 370.338 204.755 372.247 205.822C373.908 206.74 374.627 204.83 375.99 204.954C377.453 205.078 378.916 204.954 380.379 204.954C381.197 204.979 382.089 204.78 382.734 205.549V205.574Z" fill="#E26569"/>
<path d="M278.088 265.589C278.212 261.694 278.261 261.669 281.757 263.183C282.501 263.505 282.947 263.852 282.774 264.646C282.575 265.564 281.608 265.788 281.212 265.366C279.972 264.051 279.129 265.465 278.113 265.614L278.088 265.589Z" fill="#E16368"/>
<path d="M339.893 124.099C340.29 126.555 341.703 128.837 341.133 131.467C341.009 132.087 341.406 132.857 340.488 133.303C338.877 131.765 341.406 128.887 338.753 127.746C338.703 126.381 338.902 125.116 339.918 124.074L339.893 124.099Z" fill="#E5B996"/>
<path d="M225.853 232.294C226.249 230.136 228.332 230.037 229.77 229.193C230.464 228.796 231.009 229.665 231.307 230.235C231.629 230.88 230.935 230.905 230.538 231.153C229.1 232.096 227.563 232.518 225.853 232.294Z" fill="#E26367"/>
<path d="M473.545 152.109C472.653 151.514 471.661 151.489 470.645 151.538C470.744 150.645 470.347 149.454 471.711 149.206C473.272 148.933 472.95 147.767 473.049 146.75C474.487 148.412 474.562 150.223 473.545 152.109Z" fill="#E3B593"/>
<path d="M336.448 146.75C338.357 146.403 337.018 144.492 338.109 143.475C340.042 146.031 337.315 148.115 337.538 150.372C337.291 150.596 337.191 150.968 336.894 151.141C336.646 151.191 336.472 151.092 336.423 150.844V146.75H336.448Z" fill="#E3B896"/>
<path d="M204.531 107.575C205.226 104.226 203.292 102.216 200.862 100.455C203.292 100.083 204.556 101.894 205.374 103.531C205.92 104.623 206.589 106.608 204.531 107.575V107.575Z" fill="#DD6359"/>
<path d="M289.542 276.704C289.443 278.887 291.997 280.574 290.782 283.353C289.344 281.095 288.129 279.185 289.542 276.704Z" fill="#E2626A"/>
<path d="M281.782 271.494C281.633 270.551 280.27 270.328 280.468 269.211C280.666 268.541 280.121 267.276 281.063 267.251C282.228 267.202 283.121 268.442 283.517 269.385C283.964 270.551 282.823 271.122 281.807 271.494H281.782Z" fill="#E16368"/>
<path d="M111.711 133.675C113.223 134.99 112.727 136.925 110.62 137.868C110.62 136.504 110.645 135.139 110.67 133.799C110.967 133.353 111.339 133.353 111.736 133.675H111.711Z" fill="#CC5C2C"/>
<path d="M416.575 206.17C416.972 205.525 417.641 205.549 418.285 205.475C416.624 207.857 417.071 208.824 419.922 209.097C421.161 209.221 422.45 208.725 423.591 209.544C421.26 209.544 418.93 209.817 416.624 209.221C416.054 208.204 416.153 207.187 416.55 206.145L416.575 206.17Z" fill="#C87A6A"/>
<path d="M133.132 107.551C131.446 108.146 130.33 109.833 128.421 109.982C128.347 108.568 131.446 108.642 130.033 106.583C131.148 105.988 132.09 106.955 133.156 106.955C133.305 107.079 133.355 107.228 133.305 107.352C133.256 107.476 133.206 107.551 133.156 107.551H133.132Z" fill="#DE645C"/>
<path d="M116.446 122.883C116.372 124.57 117.363 126.902 114.116 126.555C113.942 124.744 114.909 123.627 116.446 122.883Z" fill="#CB5D2C"/>
<path d="M252.007 241.797V239.44C252.8 238.77 253.594 238.795 254.387 239.44C255.155 239.464 255.552 239.861 255.577 240.63C255.378 241.226 254.982 241.623 254.387 241.821H252.007V241.797Z" fill="#E06561"/>
<path d="M337.514 133.601C337.514 135.338 337.538 137.074 337.563 138.811C337.563 139.679 337.638 140.597 336.448 140.821C336.448 139.654 336.448 138.464 336.423 137.298C337.092 136.181 336.274 134.841 336.968 133.75C337.167 133.725 337.34 133.675 337.538 133.601H337.514Z" fill="#E5B496"/>
<path d="M163.972 223.958C166.426 222.842 169.079 223.685 171.583 223.164C171.732 223.14 171.98 223.735 172.178 224.033C169.426 224.008 166.699 223.983 163.947 223.958H163.972Z" fill="#D26C66"/>
<path d="M185.442 98.1228C185.838 98.098 186.235 98.0484 186.632 98.0236C188.689 98.1228 190.747 98.1228 192.582 99.2393C190.177 98.9912 187.574 100.058 185.417 98.1228H185.442Z" fill="#CE5D34"/>
<path d="M129.561 210.983C129.561 212.943 129.561 214.878 129.561 216.838C128.247 214.63 128.421 212.174 128.421 209.742C128.619 209.544 128.842 209.494 129.09 209.593C129.388 210.015 129.239 210.586 129.586 210.983H129.561Z" fill="#E06A6A"/>
<path d="M174.756 231.103L173.566 232.294C172.698 231.749 173.219 230.533 172.475 229.913C172.475 229.119 172.451 228.35 172.426 227.556C173.318 228.647 175.351 229.019 174.756 231.103V231.103Z" fill="#EABB9D"/>
<path d="M254.362 241.797C254.412 241.052 254.809 240.655 255.552 240.606C256.767 240.804 257.089 241.722 256.42 242.466C255.602 243.384 254.685 243.136 254.362 241.797Z" fill="#E2616B"/>
<path d="M361.289 93.3097C359.925 94.7983 358.438 96.0884 356.628 96.9816C357.545 94.9472 358.735 93.2353 361.289 93.3097Z" fill="#D37266"/>
<path d="M353.132 100.48C352.042 102.142 351.075 103.904 349.463 105.144C349.389 102.564 351.1 101.398 353.132 100.48Z" fill="#D37367"/>
<path d="M280.444 259.56C280.444 260.23 280.146 260.677 279.452 260.702C278.609 260.751 278.188 260.329 278.237 259.486C278.262 258.791 278.708 258.469 279.378 258.494C280.072 258.494 280.419 258.866 280.469 259.56H280.444Z" fill="#DF646C"/>
<path d="M498.56 222.048C499.428 223.338 499.18 224.628 498.709 225.943C497.767 224.678 497.94 223.363 498.56 222.048Z" fill="#DC646B"/>
<path d="M344.703 112.339C344.778 114.324 344.803 116.308 342.373 117.053C342.745 115.291 343.513 113.703 344.703 112.339Z" fill="#EFB096"/>
<path d="M200.862 100.48C199.052 100.132 196.945 101.249 195.507 99.2889C197.341 99.4378 199.325 98.9416 200.862 100.48Z" fill="#DD6359"/>
<path d="M144.139 238.795C142.577 239.39 141.685 239.936 140.619 239.564C140.495 239.514 140.42 238.943 140.52 238.819C141.387 237.877 142.404 238.199 144.114 238.819L144.139 238.795Z" fill="#E1626C"/>
<path d="M159.312 233.485C160.427 233.56 160.526 234.329 160.477 235.197C160.303 235.247 160.105 235.296 159.931 235.296L157.254 234.279C157.601 233.039 158.642 233.684 159.312 233.485V233.485Z" fill="#E3606F"/>
<path d="M224.612 218.029C226.496 217.012 228.529 217.607 230.513 217.433C231.083 217.458 231.653 217.508 232.223 217.533V218.029H224.637H224.612Z" fill="#D26B65"/>
<path d="M128.991 209.717C128.793 209.717 128.595 209.717 128.421 209.717C127.776 207.311 128.793 204.904 128.471 202.498C128.644 202.547 128.818 202.572 128.991 202.622C129.561 204.979 129.512 207.336 129.016 209.693L128.991 209.717Z" fill="#CC7067"/>
<path d="M133.132 247.676C133.38 250.331 132.14 250.53 130.132 249.488C131.124 248.892 132.115 248.272 133.132 247.676Z" fill="#E6A500"/>
<path d="M363.669 92.0196C363.347 92.9128 365.231 93.4586 364.264 94.2277C363.248 95.0712 362.603 93.7811 361.859 93.2353C362.281 92.5406 362.851 92.0941 363.669 92.0196Z" fill="#E8B596"/>
<path d="M113.125 264.448L112.877 266.557C112.678 267.053 112.282 267.227 111.786 267.276C111.29 267.276 110.868 267.103 110.571 266.706C110.472 264.894 112.009 264.894 113.125 264.423V264.448Z" fill="#E06865"/>
<path d="M114.141 153.895C115.579 154.069 117.265 153.3 118.306 154.987C118.108 155.037 117.885 155.086 117.686 155.136C116.521 155.086 115.356 155.061 114.191 155.012C113.794 154.664 113.769 154.267 114.141 153.87V153.895Z" fill="#D1623F"/>
<path d="M346.984 178.879C347.877 179.201 348.397 177.316 349.191 178.308C350.009 179.35 348.72 179.97 348.199 180.715C347.53 180.293 347.059 179.722 347.009 178.879H346.984Z" fill="#E8B695"/>
<path d="M497.941 232.567C497.147 231.004 496.701 229.342 496.776 227.581C499.255 228.771 497.47 230.93 497.941 232.567Z" fill="#DC646B"/>
<path d="M114.141 153.895C114.141 154.267 114.191 154.664 114.191 155.037C112.257 155.359 111.489 154.516 111.836 152.605C112.604 153.027 113.373 153.474 114.141 153.895V153.895Z" fill="#DE6559"/>
<path d="M159.386 98.1228C158.965 98.098 158.543 98.0732 158.146 98.0484C159.312 96.2621 160.502 96.2869 161.667 98.0484C160.898 98.0732 160.155 98.098 159.386 98.1228Z" fill="#E1636C"/>
<path d="M168.807 232.294C168.336 232.121 167.344 231.823 168.311 231.352C169.203 230.905 170.616 230.533 171.187 232.17C170.443 233.088 169.65 232.89 168.831 232.319L168.807 232.294Z" fill="#E56069"/>
<path d="M236.513 216.838C236.537 216.689 236.562 216.515 236.587 216.342C238.719 215.697 240.876 215.845 243.033 216.242C240.975 217.632 238.67 216.515 236.513 216.838V216.838Z" fill="#CE7168"/>
<path d="M440.92 94.575C439.159 94.6991 438.564 93.3594 437.87 92.1685C439.655 91.9948 440.448 93.0616 440.92 94.575Z" fill="#D47166"/>
<path d="M110.571 266.73H111.711C112.752 268.194 111.141 268.417 110.596 269.137C110.224 269.187 109.852 269.236 109.455 269.286C109.455 268.269 108.959 267.053 110.546 266.73H110.571Z" fill="#E16C59"/>
<path d="M323.729 213.985C324.647 213.067 325.564 213.29 326.804 213.637C325.614 214.878 324.672 214.406 323.729 213.985Z" fill="#E16367"/>
<path d="M283.319 259.312C282.848 258.89 282.129 258.593 282.104 257.824C282.104 257.303 282.625 257.327 282.997 257.327C283.766 257.352 283.989 257.873 283.989 258.518C283.989 258.94 283.84 259.287 283.294 259.312H283.319Z" fill="#E1626E"/>
<path d="M431.425 88.5711C430.136 88.1989 427.904 89.6131 427.904 86.7599C429.218 87.0825 430.458 87.5539 431.425 88.5711Z" fill="#E6B498"/>
<path d="M120.091 251.299C119.917 252.341 119.198 253.259 118.306 253.234C117.314 253.184 117.884 251.993 117.711 251.299H120.091Z" fill="#E1665C"/>
<path d="M272.188 253.68C270.948 253.333 270.155 252.539 269.808 251.299C271.642 251.051 272.436 251.82 272.188 253.68Z" fill="#E1665E"/>
<path d="M243.008 216.242C240.851 216.267 238.719 216.317 236.562 216.342C238.645 214.952 240.951 215.969 243.132 215.697C243.083 215.87 243.058 216.044 243.008 216.242V216.242Z" fill="#F5A89D"/>
<path d="M397.584 80.3094C397.089 82.0709 395.651 81.2025 394.585 81.401C394.386 81.2025 394.039 81.1529 393.965 80.8056C395.056 79.838 396.345 80.3342 397.584 80.3094V80.3094Z" fill="#E3B194"/>
<path d="M210.481 231.178C210.481 230.756 210.481 230.31 210.481 229.888C211.349 229.119 210.804 228.002 211.126 227.084C211.919 227.481 211.448 228.201 211.597 228.747C212.192 229.367 212.242 230.086 211.994 230.855C211.845 231.128 211.622 231.327 211.324 231.426C211.002 231.476 210.729 231.401 210.481 231.203V231.178Z" fill="#CD706A"/>
<path d="M110.546 163.894C110.546 165.928 110.546 167.962 110.546 169.997C110.348 169.774 110.174 169.55 109.976 169.302C109.505 167.739 109.53 166.151 109.976 164.564L110.546 163.869V163.894Z" fill="#F5ADA0"/>
<path d="M348.224 181.285C349.315 182.253 349.934 183.543 350.653 184.759C348.868 184.287 348.1 183.096 348.224 181.285Z" fill="#D57167"/>
<path d="M244.322 147.842C244.322 147.842 244.322 148.04 244.272 148.115C244.173 148.388 243.776 148.586 243.776 148.288C243.702 146.552 243.752 144.84 243.752 143.103C243.925 143.153 244.099 143.177 244.272 143.227C244.793 144.765 244.718 146.303 244.322 147.867V147.842Z" fill="#F4ACA0"/>
<path d="M284.534 271.618C285.625 272.536 285.08 273.503 285.03 274.347C284.187 273.652 283.865 272.858 284.534 271.618Z" fill="#E2616D"/>
<path d="M285.773 279.259C285.079 278.838 285.327 278.093 285.129 277.498C285.848 277.547 286.889 277.076 287.162 277.87C287.484 278.813 286.294 278.838 285.749 279.235L285.773 279.259Z" fill="#DF675E"/>
<path d="M436.854 92.0693C436.333 92.2677 436.135 93.2105 435.515 92.9128C434.647 92.5158 435.143 91.5731 435.044 90.8536C435.887 90.9032 436.457 91.3746 436.854 92.0693V92.0693Z" fill="#E7B493"/>
<path d="M336.944 151.067C337.142 150.844 337.34 150.62 337.539 150.397C337.539 152.159 337.539 153.945 337.539 155.706L336.993 155.086C336.497 153.746 336.547 152.407 336.993 151.067H336.944Z" fill="#F29B90"/>
<path d="M393.964 80.8304L394.584 81.4258C392.997 81.4258 391.435 81.4754 389.849 81.5003C389.626 81.4754 389.427 81.4506 389.204 81.4258C389.254 81.2522 389.303 81.0785 389.328 80.9048C390.245 80.3342 391.212 80.5327 392.154 80.7808L393.939 80.8552L393.964 80.8304Z" fill="#F4AB98"/>
<path d="M95.7202 281.368C96.2161 281.443 96.2408 281.84 96.2408 282.212C96.2408 282.584 96.2161 283.03 95.6954 283.03C95.1996 283.03 95.1748 282.584 95.1748 282.212C95.1748 281.84 95.1996 281.443 95.7202 281.393V281.368Z" fill="#E2616C"/>
<path d="M104.769 277.498C104.645 277.944 104.621 278.441 104.1 278.639C103.554 278.565 102.588 278.689 102.687 278.143C102.885 276.927 104.05 277.647 104.794 277.498H104.769Z" fill="#DF675F"/>
<path d="M133.131 107.551C133.131 107.352 133.131 107.154 133.131 106.955C133.751 106.161 134.644 106.384 135.462 106.31C135.313 107.948 134.073 107.451 133.106 107.551H133.131Z" fill="#D15D3D"/>
<path d="M263.783 251.373C264.105 250.182 264.775 249.835 265.915 250.505C265.593 251.77 264.477 251.075 263.808 251.373H263.783Z" fill="#E2655E"/>
<path d="M250.793 195.526C249.801 194.038 250.396 192.351 250.173 190.763C251.487 192.202 250.545 193.938 250.793 195.526Z" fill="#CE6E66"/>
<path d="M135.685 245.444C135.586 246.659 134.669 246.56 133.85 246.61C133.231 244.277 135.09 245.84 135.685 245.444Z" fill="#E1685F"/>
<path d="M140.296 243.012C139.626 242.814 138.709 243.36 138.188 242.218C139.255 241.722 140.023 241.623 140.321 242.987L140.296 243.012Z" fill="#E55F6B"/>
<path d="M111.711 133.675C111.364 133.725 111.017 133.75 110.645 133.799C110.645 132.807 110.149 131.591 111.761 131.318L111.711 133.675Z" fill="#DB6255"/>
<path d="M247.222 166.995C246.231 165.531 246.826 163.844 246.603 162.281C247.867 163.72 246.974 165.432 247.222 166.995Z" fill="#CD7167"/>
<path d="M254.362 239.415C253.569 239.415 252.776 239.415 251.982 239.415V238.199C252.925 238.298 254.139 237.827 254.362 239.39V239.415Z" fill="#E3616C"/>
<path d="M109.951 164.588V169.327C109.058 167.764 109.058 166.176 109.951 164.588Z" fill="#D08173"/>
<path d="M244.322 147.842C244.322 146.303 244.297 144.765 244.272 143.202C245.462 144.666 244.644 146.378 244.867 147.966C244.694 147.916 244.52 147.867 244.347 147.817L244.322 147.842Z" fill="#D0746A"/>
<path d="M211.597 231.054V228.722H212.762V231.029C212.39 231.401 211.993 231.401 211.597 231.029V231.054Z" fill="#DD6860"/>
<path d="M236.19 229.044C236.239 229.764 235.818 229.863 235.471 229.838C235.149 229.813 234.653 229.64 234.578 229.416C234.405 228.895 234.925 228.821 235.273 228.821C235.595 228.821 235.917 228.995 236.19 229.069V229.044Z" fill="#E3616C"/>
<path d="M172.451 229.913C173.938 230.186 173.442 231.376 173.541 232.294C173.269 232.617 172.922 232.666 172.525 232.518L172.302 232.22L172.451 229.937V229.913Z" fill="#E9B1A4"/>
<path d="M248.413 176.522C247.421 175.033 248.016 173.346 247.793 171.783C249.082 173.222 248.165 174.959 248.413 176.522Z" fill="#CD7369"/>
<path d="M336.944 151.067C336.944 152.407 336.944 153.746 336.944 155.086C335.828 153.796 336.523 152.283 336.374 150.869C336.572 150.918 336.746 150.993 336.919 151.092L336.944 151.067Z" fill="#CC6F63"/>
<path d="M387.469 81.5002C386.477 82.5671 385.238 82.7159 383.874 82.5919C384.94 81.8476 386.13 81.4506 387.469 81.5002Z" fill="#DEAD8E"/>
<path d="M114.116 126.555C114.041 127.522 114.488 128.713 112.926 128.961C112.876 127.944 113.075 127.051 114.116 126.555Z" fill="#CB5D2C"/>
<path d="M338.852 162.231C340.365 162.529 339.819 163.72 339.918 164.638C339.249 163.968 338.803 163.224 338.852 162.231Z" fill="#EEA292"/>
<path d="M336.943 133.75C336.844 134.941 337.241 136.231 336.398 137.298C336.547 136.107 335.877 134.792 336.943 133.75Z" fill="#C77464"/>
<path d="M496.776 227.58C496.206 226.886 496.131 226.042 496.206 225.199C496.33 224.975 496.503 224.256 496.702 224.827C496.999 225.645 496.776 226.663 496.776 227.58Z" fill="#DC646B"/>
<path d="M172.376 233.46C171.161 233.436 169.947 233.411 168.707 233.386L168.831 232.915C169.897 232.27 171.037 232.691 172.153 232.642C172.475 232.84 172.55 233.113 172.351 233.46H172.376Z" fill="#F09A3E"/>
<path d="M392.18 80.756C391.238 80.8056 390.296 80.8304 389.354 80.88C390.246 79.714 391.213 80.1853 392.18 80.756Z" fill="#CA7767"/>
<path d="M172.351 232.865C171.186 232.865 169.996 232.89 168.831 232.915V232.294C169.6 232.245 170.393 232.195 171.186 232.146C171.558 232.146 171.955 232.17 172.327 232.195L172.5 232.27C172.624 232.518 172.599 232.716 172.376 232.865H172.351Z" fill="#D98321"/>
<path d="M461.125 124.248C460.48 123.578 460.009 122.833 460.034 121.866C461.571 122.114 461.051 123.33 461.125 124.248Z" fill="#CD7B6A"/>
<path d="M359.528 193.095C360.446 193.095 361.289 193.12 361.289 194.385C360.47 194.261 359.9 193.839 359.528 193.095Z" fill="#E9A992"/>
<path d="M341.109 119.459C340.737 120.278 340.34 121.072 339.969 121.891C340.018 120.923 339.522 119.707 341.109 119.459Z" fill="#D06F63"/>
<path d="M174.731 241.821C174.731 241.821 174.93 241.772 175.029 241.747C176.368 241.598 175.649 238.72 177.558 239.638C179.343 240.482 180.632 241.97 180.706 244.153C178.351 244.352 176.368 243.558 174.756 241.821H174.731Z" fill="#EABB9D"/>
<path d="M172.352 232.865L172.476 232.27H173.566C173.566 233.361 173.566 234.428 173.566 235.495C173.566 235.966 173.566 236.462 174.161 236.686C175.674 237.281 175.674 237.281 174.533 238.274C173.145 239.514 175.475 240.581 174.732 241.796C172.575 241.251 172.996 239.241 172.624 237.777C172.302 236.388 172.426 234.899 172.352 233.436V232.84V232.865Z" fill="#EABB9D"/>
<path d="M200.887 242.913C201.432 241.747 202.473 240.432 199.672 240.258C200.961 239.018 202.201 239.588 203.267 239.415C205.622 239.191 205.052 240.457 204.457 241.747C203.291 242.218 202.349 243.434 200.862 242.913H200.887Z" fill="#CF9671"/>
<path d="M210.481 231.178L211.151 231.277C212.44 231.724 213.878 231.004 215.142 231.724C215.167 231.873 215.217 232.046 215.241 232.195C212.49 231.897 211.002 232.815 211.523 235.892C211.671 236.76 211.895 237.951 210.481 238.224C210.481 235.867 210.481 233.535 210.481 231.178Z" fill="#F09743"/>
<path d="M204.482 241.747C204.383 240.829 204.804 239.613 203.292 239.415C204.804 237.777 205.226 237.901 206.837 240.581C206.614 241.151 206.044 241.35 205.647 241.722L204.482 241.772V241.747Z" fill="#CD9380"/>
<path d="M110.596 269.137C110.373 268.07 111.935 267.822 111.712 266.73C112.108 266.681 112.48 266.631 112.877 266.557C113.224 268.393 112.604 269.385 110.596 269.112V269.137Z" fill="#E8A800"/>
<path d="M205.622 241.722C205.696 241.003 206.118 240.655 206.812 240.581C207.184 240.581 207.556 240.581 207.952 240.581C207.729 242.094 206.614 241.747 205.622 241.722Z" fill="#CF9671"/>
<path d="M218.688 232.369C219.456 232.369 220.2 232.319 220.968 232.369C221.142 232.369 221.861 232.121 221.464 232.815C221.365 232.964 220.944 232.915 220.646 232.939C219.952 232.89 219.233 232.989 218.712 232.394L218.688 232.369Z" fill="#D37A2A"/>
<path d="M408.913 212C409.36 211.529 409.93 211.454 410.5 211.529C412.657 211.826 414.541 211.33 416.004 209.643L416.202 209.717C416.326 210.487 416.45 211.28 416.574 212.05C414.021 212.05 411.442 212.025 408.889 212H408.913Z" fill="#D9BCA2"/>
<path d="M416.228 209.717L416.029 209.643C416.029 208.502 416.029 207.336 416.029 206.194C416.228 206.194 416.401 206.194 416.599 206.194C416.599 207.212 416.649 208.229 416.674 209.271L416.252 209.742L416.228 209.717Z" fill="#F0A192"/>
<path d="M383.875 208.402C385.66 208.353 384.941 206.988 385.114 206.095C392.279 207.857 399.543 208.08 406.757 206.641C409.509 206.095 409.36 207.162 408.815 208.973C408.517 210.015 408.022 210.983 407.625 211.975C400.163 211.975 392.725 211.975 385.263 212C386.304 209.693 385.511 208.75 383.056 208.948C381.817 209.048 380.552 208.973 379.288 208.998C379.933 208.328 380.825 208.651 381.569 208.427C382.337 207.906 383.106 207.906 383.875 208.427V208.402Z" fill="#CA7C51"/>
<path d="M382.609 155.037C381.841 156.476 380.353 156.575 379.064 156.748C370.139 157.815 361.76 156.649 354.396 150.943C351.025 148.313 350.033 144.964 350.876 140.969C352.587 132.832 360.198 126.257 368.577 125.314C371.924 124.942 375.221 124.843 378.593 125.24C380.13 125.414 380.849 126.059 381.444 127.225C382.733 128.242 382.857 129.805 383.056 131.219C384.047 137.893 385.584 144.567 384.196 151.39C383.923 152.729 383.898 154.168 382.609 155.061V155.037Z" fill="#CE6516"/>
<path d="M351.942 117.152C352.215 114.2 353.975 112.835 356.107 111.843C364.884 107.799 374.106 106.732 383.626 107.848C388.064 108.369 392.378 109.386 396.493 111.148C399.79 112.537 401.005 115.018 399.914 117.673C398.898 120.104 396.319 120.973 393.097 119.831C381.618 115.738 370.288 115.738 359.058 120.774C355.388 122.412 351.868 120.328 351.967 117.177L351.942 117.152Z" fill="#020202"/>
<path d="M382.61 155.037C385.039 145.634 382.907 136.429 381.444 127.2C381.444 125.711 382.064 125.587 383.477 125.885C392.452 127.771 400.088 138.414 401.476 145.733C401.897 147.991 400.137 148.933 398.625 149.727C394.956 151.613 391.187 153.3 387.444 155.061C387.097 155.434 386.7 155.434 386.254 155.185C385.064 154.54 383.7 157.592 382.585 155.037H382.61Z" fill="#F9F3EF"/>
<path d="M441.019 174.239C440.251 176.125 439.408 177.961 437.35 178.829C435.342 178.259 433.83 179.276 432.318 180.367C431.45 180.367 431.028 179.871 430.88 179.077C430.756 177.589 431.847 176.82 432.838 175.654C431.847 175.728 430.904 176.075 430.235 175.356C429.541 174.587 429.516 173.793 430.235 173.024C430.855 172.8 431.375 172.478 431.425 171.734C432.094 170.989 432.293 169.898 433.235 169.352C435.218 167.392 436.334 165.085 436.235 162.256C436.235 160.941 436.458 159.676 437.474 158.708C438.168 158.659 438.515 158.262 438.615 157.592C438.813 157.319 439.086 157.121 439.408 156.997C440.722 156.947 442.085 156.5 443.275 157.493C445.234 159.229 446.3 161.289 445.606 163.968C444.639 164.787 445.457 166.201 444.54 167.045L444.391 168.161C442.606 167.838 441.416 168.93 441.317 171.138C441.267 172.18 441.763 173.297 440.97 174.264L441.019 174.239Z" fill="#CA5595"/>
<path d="M415.955 171.734C417.145 172.106 417.864 172.949 418.409 173.991C418.905 175.554 420.418 174.661 421.335 175.207L424.26 175.381C424.707 175.554 422.946 177.142 425.054 176.423C427.855 175.43 428.351 175.926 428.177 178.829C428.004 179.077 427.756 179.251 427.508 179.4C424.384 180.243 421.112 179.152 418.013 180.07C417.79 180.243 417.542 180.367 417.294 180.491C416.054 180.491 415.558 182.104 414.22 181.856C412.856 180.64 411.046 179.995 410.055 178.358C409.534 176.968 408.939 175.629 407.253 175.281L406.98 173.57C407.08 173.123 407.303 172.8 407.675 172.552C409.162 171.932 410.65 172.006 412.137 172.478C412.856 172.726 413.203 172.602 413.352 171.858C413.501 171.61 413.699 171.411 413.947 171.287C414.715 171.014 415.385 171.138 415.98 171.709L415.955 171.734Z" fill="#CA5595"/>
<path d="M407.675 172.9L406.931 173.569C404.824 171.411 404.526 168.558 404.03 165.804C403.758 165.481 403.708 165.109 403.832 164.712C404.576 163.894 405.716 163.422 406.162 162.281C406.361 162.083 406.584 161.934 406.856 161.884C407.303 161.859 407.675 161.958 407.972 162.331C408.741 164.043 408.022 165.829 408.27 167.566H408.394C407.575 165.531 409.41 163.596 408.542 161.562C408.022 160.743 407.005 160.644 406.336 160.048C405.815 159.478 405.89 158.783 405.914 158.113C406.509 157.22 407.451 157.642 408.245 157.468C408.84 157.121 409.435 156.947 409.931 157.642C410.526 158.659 411.988 158.758 412.435 159.949C413.079 160.619 413.104 161.487 413.302 162.331C413.302 162.901 413.352 163.447 413.253 163.993C412.98 165.556 412.732 167.119 410.848 167.888C413.426 168.235 413.972 169.699 413.6 171.783C411.84 173.222 409.435 171.535 407.675 172.974V172.9Z" fill="#CA5596"/>
<path d="M431.45 178.829C431.475 179.598 431.871 179.995 432.64 180.02C433.681 179.4 434.053 180.02 434.251 180.913C434.251 182.005 433.334 182.005 432.665 182.303C431.251 182.625 430.185 183.965 428.549 183.642C427.706 183.99 426.863 184.411 425.921 184.064C422.921 182.997 419.922 181.98 416.724 183.369C416.451 183.32 416.178 183.221 415.955 183.072L416.029 182.898C414.864 181.31 416.327 180.789 417.195 179.995C419.847 178.829 422.599 179.425 425.326 179.573C426.392 179.623 427.235 179.747 427.905 178.804C429.095 177.837 430.285 177.837 431.475 178.804L431.45 178.829Z" fill="#CA5496"/>
<path d="M462.935 149.157C464.075 148.561 462.662 144.765 465.885 146.775C467.571 149.851 467.844 152.878 465.464 155.706C464.522 156.823 463.406 157.89 461.72 156.848C461.224 156.376 461.15 155.781 461.2 155.136C461.348 154.094 461.547 153.052 461.77 152.01C462.142 151.042 462.092 149.901 462.96 149.132L462.935 149.157Z" fill="#C97C54"/>
<path d="M431.45 178.829H427.88C427.88 177.068 427.681 175.654 425.425 177.117C425.351 177.167 425.277 177.266 425.202 177.291C424.186 177.713 422.748 178.135 422.302 177.117C421.533 175.356 423.888 176.323 424.285 175.381C426.541 175.257 428.252 173.768 430.284 173.024C430.284 174.86 430.632 176.125 432.764 174.587C433.383 174.14 433.954 174.041 434.673 174.463C434.177 176.398 431.871 176.944 431.474 178.829H431.45Z" fill="#C95792"/>
<path d="M427.88 184.238C428.004 184.709 428.128 185.577 428.227 185.577C430.83 185.478 433.036 187.711 435.739 186.917C436.284 186.768 436.904 185.702 437.226 186.992C437.499 188.009 436.73 188.356 435.813 188.356C433.954 188.356 432.094 188.356 430.235 188.356C430.111 188.331 429.987 188.307 429.863 188.282C429.144 187.984 428.376 187.81 427.88 187.165C426.045 187.612 424.855 185.801 422.971 185.875C421.236 185.95 420.12 187.637 418.36 187.165C417.517 186.074 417.641 185.056 418.608 184.114C419.004 183.841 419.451 183.742 419.922 183.791C422.029 184.312 424.136 183.94 426.243 183.94C426.789 183.94 427.384 183.742 427.855 184.238H427.88Z" fill="#E2BA99"/>
<path d="M403.534 165.754C402.419 166.548 403.336 168.037 402.444 169.054C399.394 167.69 400.683 164.588 400.014 162.455C399.667 161.338 399.295 160.52 398.551 159.775C397.981 159.205 397.089 158.485 397.535 157.865C398.254 156.873 399.022 157.815 399.716 158.361C399.94 158.535 400.262 158.56 400.535 158.634C402.939 159.18 402.022 161.71 403.187 163.025C403.485 163.497 403.733 163.993 403.782 164.588C403.807 165.01 403.906 165.432 403.559 165.754H403.534Z" fill="#E3BA97"/>
<path d="M404.104 179.698C404.079 180.219 404.03 180.74 403.534 181.012C403.088 181.236 402.592 181.236 402.146 180.888C400.485 179.573 399.567 174.215 400.633 172.527C401.104 171.783 401.674 171.634 402.344 171.982C402.964 172.304 403.038 173.048 402.691 173.52C401.055 175.753 401.402 177.489 403.831 178.78C404.402 179.077 403.906 179.449 404.104 179.698V179.698Z" fill="#E3BA97"/>
<path d="M441.019 174.239C439.284 170.766 442.06 168.087 442.482 164.861C444.069 165.606 442.457 167.888 444.44 168.136C443.796 170.443 443.176 172.751 441.019 174.239V174.239Z" fill="#C95991"/>
<path d="M413.624 171.709C413.475 170.394 411.963 169.873 411.69 168.483L410.724 170.419C409.806 169.178 409.633 167.789 410.674 167.243C412.137 166.474 412.112 164.96 413.004 163.968C413.649 164.415 413.104 165.233 413.575 165.73C413.401 167.169 414.442 168.136 414.963 169.302C415.285 169.749 415.831 170.022 415.955 170.592V171.734H413.649L413.624 171.709Z" fill="#CA5892"/>
<path d="M402.889 163.397C400.708 162.504 402.418 159.701 400.534 158.659C400.534 157.592 400.534 156.55 400.534 155.483C400.534 154.764 400.658 154.119 401.526 153.995C402.369 153.871 402.765 154.317 402.889 155.086C403.683 155.88 402.815 156.674 402.889 157.468V159.85C403.807 161.041 403.98 162.207 402.889 163.373V163.397Z" fill="#DEBD91"/>
<path d="M418.954 184.287C418.334 185.156 418.334 186.148 418.359 187.14C416.525 187.513 415.533 185.801 413.624 185.702C414.517 184.511 416.426 184.808 415.93 183.097C416.128 183.022 416.302 182.997 416.525 183.022C417.392 183.345 418.706 182.799 418.954 184.263V184.287Z" fill="#E3B899"/>
<path d="M417.863 164.985C417.244 163.224 416.425 161.884 415.235 160.768C414.64 160.197 414.566 159.279 415.508 158.832C416.202 158.485 416.847 158.733 417.12 159.577C417.665 161.214 419.153 162.678 417.863 164.985V164.985Z" fill="#E2B99A"/>
<path d="M461.82 155.111C461.795 155.706 461.77 156.302 461.745 156.872C459.985 157.716 458.77 156.376 457.853 155.434C457.283 154.838 457.06 153.126 458.795 152.704C459.762 153.573 461.125 153.92 461.844 155.086L461.82 155.111Z" fill="#E3BA96"/>
<path d="M433.805 181.211C433.78 180.467 433.383 180.07 432.64 180.02C432.863 178.358 434.97 178.333 435.119 176.77C436.631 176.919 435.863 178.978 437.35 178.804C437.102 180.144 435.193 179.772 434.92 181.112C434.573 181.558 434.202 181.558 433.805 181.186V181.211Z" fill="#CA5B91"/>
<path d="M405.468 176.522C406.831 177.043 406.782 178.73 407.55 179.846C407.798 180.194 407.377 181.062 406.93 180.764C405.889 180.094 404.873 179.226 404.203 178.209C403.856 177.688 404.129 176.646 405.492 176.522H405.468Z" fill="#E3BA97"/>
<path d="M406.484 162.207C406.732 163.943 406.038 164.812 404.203 164.588C403.162 163.621 403.608 162.355 403.558 161.214C403.558 160.668 403.782 160.222 404.153 159.85L405.195 159.701C406.186 160.247 406.186 161.313 406.484 162.207V162.207Z" fill="#C95790"/>
<path d="M407.228 175.257C409.145 174.694 410.079 175.72 410.029 178.333C408.814 177.564 407.252 177.117 407.228 175.257Z" fill="#C95792"/>
<path d="M424.31 189.522C424.929 187.413 426.69 188.703 427.88 188.331C428.673 187.686 429.466 187.711 430.26 188.331C428.698 190.837 426.243 188.902 424.31 189.522Z" fill="#E3B998"/>
<path d="M437.499 158.684C437.226 159.924 437.722 161.413 436.259 162.231C434.524 160.668 434.722 160.123 437.499 158.684Z" fill="#E7B2A1"/>
<path d="M415.93 170.592C415.186 170.468 414.864 170.047 414.938 169.302C416.302 169.377 415.632 167.59 416.922 167.268C417.12 168.608 417.888 169.922 415.955 170.592H415.93Z" fill="#E4B59B"/>
<path d="M406.484 162.207C404.873 161.983 405.468 160.594 405.195 159.701C405.245 159.081 405.146 158.386 405.939 158.063C406.608 158.51 406.484 159.18 406.509 159.825C407.129 160.619 407.154 161.413 406.509 162.207H406.484Z" fill="#CA5A94"/>
<path d="M417.195 180.02C417.17 181.136 415.633 181.633 416.029 182.923C415.31 182.724 414.641 182.476 414.17 181.831C414.889 180.74 415.558 179.598 417.17 180.02H417.195Z" fill="#C95992"/>
<path d="M470.67 151.514C470.571 152.556 470.918 153.647 469.901 155.409C469.629 153.498 468.687 152.332 470.67 151.514Z" fill="#E3B593"/>
<path d="M408.889 156.302C408.344 156.153 407.6 156.054 408.195 155.26C408.493 154.838 409.162 154.267 409.484 154.367C410.451 154.689 409.906 155.657 410.03 156.327C409.658 156.624 409.261 156.649 408.889 156.327V156.302Z" fill="#DDBF8E"/>
<path d="M442.135 156.252C442.259 155.434 441.812 154.392 442.978 154.019C443.3 153.92 443.945 154.019 444.044 154.243C444.44 155.086 443.176 155.458 443.325 156.302C442.928 156.649 442.531 156.6 442.135 156.252V156.252Z" fill="#E4B99E"/>
<path d="M402.914 157.468C400.583 156.674 403.583 155.88 402.914 155.086C404.575 155.88 404.575 156.674 402.914 157.468Z" fill="#E4B89D"/>
<path d="M424.309 189.522C423.64 191.581 422.326 190.465 421.186 190.267C422.053 189.2 423.243 189.671 424.309 189.522Z" fill="#E3B998"/>
<path d="M444.564 167.045C445.06 166.077 443.126 164.241 445.63 163.968C445.555 165.085 446.15 166.449 444.564 167.045Z" fill="#CD6397"/>
<path d="M404.154 159.85L404.055 161.041C403.385 162.132 404.253 163.497 403.485 164.564C403.286 164.167 403.088 163.77 402.89 163.373C402.89 162.207 402.89 161.016 402.914 159.85C403.311 159.85 403.733 159.85 404.129 159.85H404.154Z" fill="#E8B4A5"/>
<path d="M433.259 169.352C432.912 170.344 432.912 171.61 431.449 171.734C431.375 170.419 431.375 169.178 433.259 169.352Z" fill="#EAA9A3"/>
<path d="M442.135 156.252L443.325 156.302V156.922C442.036 157.617 440.474 156.674 439.209 157.518C439.036 157.542 438.838 157.567 438.664 157.592C439.086 155.26 440.994 156.748 442.135 156.252V156.252Z" fill="#EDA3AB"/>
<path d="M386.279 155.185L387.469 155.061C387.321 155.731 387.866 156.947 386.949 156.997C385.932 157.046 386.478 155.855 386.304 155.185H386.279Z" fill="#EAB892"/>
<path d="M403.485 164.564C403.683 163.397 403.088 162.083 404.055 161.041C404.104 162.231 404.154 163.422 404.204 164.588C404.154 164.985 404.104 165.382 404.055 165.779C403.881 165.779 403.708 165.779 403.559 165.779C403.559 165.382 403.534 164.985 403.509 164.588L403.485 164.564Z" fill="#D19D8D"/>
<path d="M430.259 188.356H427.879V187.165C428.821 187.265 430.036 186.818 430.259 188.356Z" fill="#DABF90"/>
<path d="M429.912 166.151C429.986 166.424 430.16 166.747 430.16 167.069C430.16 167.417 430.061 167.938 429.565 167.764C429.342 167.69 429.168 167.193 429.144 166.871C429.119 166.524 429.193 166.102 429.912 166.151Z" fill="#E4B79C"/>
<path d="M429.665 169.699C430.16 169.774 430.185 170.171 430.185 170.543C430.185 170.915 430.16 171.361 429.64 171.361C429.144 171.361 429.119 170.915 429.119 170.543C429.119 170.171 429.144 169.774 429.665 169.724V169.699Z" fill="#D9BF92"/>
<path d="M439.209 157.493C440.449 156.302 441.961 157.046 443.324 156.897C443.324 157.096 443.324 157.294 443.324 157.468C441.961 157.468 440.597 157.468 439.209 157.468V157.493Z" fill="#C67E83"/>
<path d="M413.078 162.182C412.657 161.462 412.285 160.743 412.459 159.874C414.07 160.073 413.55 161.313 413.599 162.256C413.401 162.504 413.227 162.48 413.103 162.182H413.078Z" fill="#EBA7A5"/>
<path d="M413.079 162.182C413.252 162.182 413.426 162.231 413.575 162.256C413.575 163.422 413.574 164.588 413.55 165.754C412.955 165.308 413.079 164.613 412.979 163.993C413.004 163.397 413.029 162.802 413.079 162.182Z" fill="#E985AE"/>
<path d="M433.805 181.211C434.177 181.186 434.549 181.161 434.92 181.137C434.797 182.724 433.607 182.352 432.64 182.327L433.805 181.211Z" fill="#E88EAB"/>
<path d="M421.359 175.207C420.243 175.108 418.781 175.926 418.434 173.991C419.4 174.388 420.392 174.81 421.359 175.207Z" fill="#BD6A7D"/>
<path d="M427.879 184.238H426.094C425.871 184.411 425.648 184.436 425.4 184.287L425.301 183.915L425.474 183.568C426.491 183.593 427.507 183.642 428.524 183.667C428.301 183.866 428.077 184.039 427.854 184.238H427.879Z" fill="#B96978"/>
<path d="M408.889 156.302C409.261 156.302 409.633 156.302 410.03 156.302C410.005 156.724 409.98 157.145 409.955 157.567C409.385 157.518 408.815 157.468 408.27 157.418C408.493 157.046 408.691 156.674 408.914 156.302H408.889Z" fill="#DC959C"/>
<path d="M154.403 196.717C155.89 200.587 159.088 202.026 162.832 202.696C163.03 202.845 163.253 202.969 163.476 203.093C164.146 203.267 164.765 202.994 165.385 202.92C165.608 202.82 165.831 202.721 166.055 202.647C166.179 202.622 166.278 202.597 166.402 202.572C172.6 201.704 176.715 197.511 177.136 191.309C177.285 189.15 177.136 186.992 177.136 184.808L178.277 183.568C178.921 182.824 180.111 183.221 180.731 182.427L181.822 182.253C182.219 181.98 182.665 181.856 183.161 181.856C185.243 182.104 185.962 183.692 186.632 185.354C186.855 186.272 187.053 187.215 187.326 188.133C187.276 189.423 187.599 190.788 186.731 191.954L186.607 194.261C186.21 195.055 186.384 196.097 185.566 196.692L185.343 197.858C184.995 198.652 185.045 199.62 184.252 200.215L183.062 202.647C182.318 203.242 182.764 204.557 181.673 204.929L181.128 206.095C180.806 206.864 180.136 207.088 179.417 207.236C177.062 207.534 175.748 209.767 173.566 210.387C173.095 211.33 172.253 211.702 171.261 211.752C169.897 211.702 168.559 211.876 167.369 212.645C165.633 212.645 163.898 213.216 162.162 212.769C161.865 212.695 161.592 212.546 161.319 212.397C160.427 211.553 159.039 211.777 158.121 210.958C151.477 209.966 144.783 202.299 143.767 195.601C143.098 194.162 143.048 192.747 143.767 191.309C143.891 190.49 144.015 189.671 145.056 189.522C146.444 188.133 147.833 187.661 149.271 189.423C150.535 189.2 150.981 190.639 152.047 190.812C153.113 191.606 152.94 193.02 153.659 194.013C154.055 194.881 154.551 195.725 154.403 196.742V196.717Z" fill="#CD5B9D"/>
<path d="M181.922 157.468L187.822 152.704C191.739 149.578 196.102 148.71 200.912 150.099C202.052 151.588 200.986 153.101 200.937 154.615C199.4 161.785 198.706 169.005 200.416 176.249C200.491 177.142 200.466 178.01 199.821 178.73C197.639 178.259 195.483 177.589 193.227 177.614C192.26 177.117 191.07 177.192 190.177 176.472C185.789 175.257 182.715 172.379 180.459 168.558C178.699 165.606 178.302 160.42 181.897 157.468H181.922Z" fill="#F9F3EF"/>
<path d="M224.613 169.327C223.175 172.081 221.315 174.388 218.191 175.356C217.274 175.579 216.357 175.356 215.44 175.529C214.374 175.108 213.283 174.86 212.167 174.711C211.696 174.611 211.25 174.339 210.779 174.289C207.184 173.842 207.234 173.867 207.11 170.146C207.01 167.541 207.556 164.861 206.391 162.355C206.093 161.611 206.044 160.817 206.019 160.048C205.994 159.304 205.944 158.56 206.019 157.815C206.093 156.848 205.746 155.979 205.349 155.111C205.25 154.714 205.25 154.342 205.399 153.97C205.771 153.399 206.564 153.101 206.44 152.233C206.49 151.811 206.639 151.439 206.986 151.191C208.572 150.447 210.258 151.067 211.894 150.744C213.01 150.868 214.225 150.819 214.25 152.432C214.101 152.903 213.729 153.126 213.308 153.3C213.035 153.474 212.341 153.498 212.514 153.846C212.886 154.54 213.729 154.143 214.349 154.267C215.34 154.367 216.332 154.491 216.704 155.632C216.803 156.624 217.547 156.724 218.315 156.773C219.307 156.724 218.886 155.21 219.902 155.21C222.084 156.401 223.695 158.138 224.662 160.42C224.984 161.413 224.365 161.934 223.695 162.455C223.348 162.653 222.976 162.777 222.629 162.926C221.39 164.142 221.836 165.357 222.555 166.598C223.249 167.491 224.117 168.285 224.613 169.327V169.327Z" fill="#6E4A87"/>
<path d="M214.076 152.655C213.704 151.39 212.663 151.514 211.696 151.464C211.473 151.34 211.3 151.191 211.151 150.993C211.002 150.794 210.878 150.596 210.729 150.372C207.953 149.727 205.226 150.993 202.449 150.521C202.152 150.496 201.879 150.422 201.606 150.298C200.267 147.197 197.516 147.742 194.937 147.643C192.929 147.569 190.797 148.214 188.987 146.75C188.665 146.353 188.417 145.931 188.417 145.41C188.541 144.095 189.409 143.302 190.376 142.607C200.267 140.027 210.159 139.109 219.977 142.905C221.489 143.947 219.506 145.485 220.473 146.601C220.497 146.998 220.473 147.395 220.299 147.767C220.002 148.363 219.531 148.784 219.059 149.206C218.886 149.355 218.663 149.479 218.464 149.578C218.093 149.727 217.572 149.702 217.522 150.298V151.489C217.969 152.035 217.82 152.63 217.721 153.225C216.903 154.044 216.01 153.598 215.142 153.424C214.696 153.275 214.324 153.052 214.076 152.605V152.655Z" fill="#EABAA2"/>
<path d="M220.472 143.971C214.324 141.143 207.804 141.317 201.308 141.689C197.589 141.912 193.846 142.309 190.202 143.326C188.169 144.716 186.136 145.46 184.053 143.45C183.657 142.756 183.855 142.111 184.152 141.466C184.623 140.324 185.739 140.374 186.656 140.076C189.706 138.29 192.953 137.496 196.523 138.091C197.54 138.265 198.68 138.439 199.697 137.868C205.795 137.769 211.944 137.471 217.943 139.034C219.456 139.431 221.018 139.729 222.307 140.746C222.753 141.416 223.522 141.639 224.191 141.937C224.959 142.061 225.43 142.632 225.877 143.202C226.596 144.219 226.571 145.212 225.579 146.031C224.662 146.8 223.621 146.725 222.579 146.254C221.563 145.783 220.894 144.989 220.447 143.971H220.472Z" fill="#C95E26"/>
<path d="M126.586 169.104C126.363 170.493 127.355 172.602 124.925 172.875C122.421 173.148 120.785 171.51 119.744 169.55C118.48 167.193 120.24 162.777 122.62 161.537C124.33 160.644 125.694 160.991 125.892 162.951C126.091 165.01 127.008 166.995 126.586 169.104V169.104Z" fill="#CC9579"/>
<path d="M189.012 146.775C192.409 146.775 195.83 146.725 199.226 146.8C200.342 146.8 202.647 146.006 201.061 148.784C200.714 149.38 201.581 149.678 202.176 149.777C202.276 150.05 202.226 150.273 202.028 150.496C201.631 150.695 201.259 150.67 200.912 150.347C196.301 149.777 192.061 151.241 187.797 152.704C187.599 150.819 184.599 151.911 184.797 149.43C186.161 148.884 188.516 149.181 188.987 146.75L189.012 146.775Z" fill="#E9BCA2"/>
<path d="M190.202 176.472C191.367 176.472 192.409 176.795 193.251 177.613C192.706 177.688 191.962 177.489 191.714 178.159C191.466 178.804 192.037 179.35 192.533 179.549C193.574 179.921 194.689 180.119 196.499 180.566C194.243 181.36 192.83 181.533 191.268 180.566C189.483 179.474 187.971 179.921 186.979 181.831C187.723 182.873 188.962 182.03 189.88 182.898C189.062 183.816 187.128 184.138 187.822 185.974C188.368 186.917 187.946 187.314 187.029 187.463C185.963 187.091 186.459 186.173 186.335 185.453C186.26 185.056 186.161 184.784 186.235 185.18C186.235 185.23 186.087 185.305 186.012 185.354C185.169 184.213 184.674 182.724 183.062 182.327C182.715 181.955 182.715 181.583 183.062 181.236C185.244 180.045 187.351 178.755 189.607 177.713C190.4 177.341 190.425 177.092 190.202 176.472V176.472Z" fill="#E9BCA1"/>
<path d="M199.722 137.868C195.383 138.588 191.02 139.332 186.681 140.051C187.128 137.893 185.962 138.588 184.896 139.034C184.425 139.233 184.128 140.225 183.483 139.53C183.111 139.133 182.963 138.464 182.913 137.893C182.863 137.025 183.806 137 184.202 137.074C187.698 137.843 190.673 136.603 193.673 135.04C194.02 134.866 197.689 132.658 196.598 136.975C196.201 138.488 198.631 137.422 199.697 137.843L199.722 137.868Z" fill="#EABBA0"/>
<path d="M181.921 157.468C177.409 165.581 181.475 171.113 187.475 174.76C188.392 175.306 189.309 175.902 190.202 176.447C186.21 176.497 183.781 174.19 181.649 171.138C180.012 168.831 178.723 166.648 178.153 163.695C177.434 159.974 179.269 158.684 181.946 157.468H181.921Z" fill="#E7BDA7"/>
<path d="M128.644 160.867C129.313 158.957 130.676 158.088 131.941 158.783C134.767 160.321 137.693 159.651 140.593 159.85C141.337 159.899 142.254 159.651 142.527 160.718C142.601 160.966 142.576 161.388 142.428 161.562C141.659 162.331 141.312 161.14 140.692 161.14C139.006 161.09 137.147 160.619 135.684 161.165C133.156 162.107 131.123 160.52 128.644 160.867Z" fill="#E8BCA0"/>
<path d="M222.282 166.97C220.596 165.357 220.596 163.373 222.282 162.231C222.679 162.604 223.075 162.852 223.472 162.231L224.662 160.47C226.819 162.901 225.505 165.556 225.207 168.161C223.943 168.483 223.422 166.97 222.282 166.995V166.97Z" fill="#6F4A84"/>
<path d="M227.042 146.775C228.628 147.073 228.182 148.363 228.207 149.355C228.257 151.141 228.207 152.928 228.207 154.937C226.645 154.292 227.166 153.374 227.017 152.704C226.248 151.191 225.976 149.38 223.521 149.305C222.555 149.305 221.488 148.09 222.207 146.601C223.819 146.403 225.43 145.931 227.017 146.75L227.042 146.775Z" fill="#E8BDA2"/>
<path d="M154.402 196.717C153.46 196.196 153.237 195.328 153.287 194.36C153.46 193.417 153.832 192.599 154.551 191.929C154.774 190.391 155.989 190.812 156.931 190.738C157.551 191.333 157.377 192.028 157.08 192.648C156.559 193.79 157.526 193.889 158.121 194.311C157.749 197.437 157.204 197.784 154.402 196.742V196.717Z" fill="#E9BD9E"/>
<path d="M162.856 145.559C165.484 143.872 168.286 142.557 171.137 141.342C171.236 143.302 170.765 144.344 168.385 144.641C166.575 144.889 165.088 147.296 162.856 145.559V145.559Z" fill="#E9BA9C"/>
<path d="M222.282 146.775C223.868 149.405 223.893 149.405 226.744 148.437C227.314 149.827 226.918 151.29 227.017 152.729H225.827C225.182 152.109 225.083 150.943 223.794 150.943C221.811 150.943 220.645 149.678 219.877 147.991V146.8C220.67 146.204 221.464 146.08 222.257 146.8L222.282 146.775Z" fill="#EEB9A3"/>
<path d="M189.012 145.584V146.775C187.078 146.775 185.144 146.825 183.21 146.775C182.243 146.75 180.781 147.197 180.83 145.51C180.855 144.046 182.194 144.517 183.086 144.418C183.433 144.071 183.855 143.897 184.351 143.922C185.838 144.691 187.698 144.443 189.036 145.609L189.012 145.584Z" fill="#E9BCA2"/>
<path d="M161.692 212.025H167.617C167.84 211.851 168.088 211.752 168.36 211.727C168.633 211.752 168.881 211.826 169.129 211.95C169.65 212.372 170.269 212.645 170.592 213.265C168.807 216.143 167.022 213.092 165.237 213.265C163.253 214.134 161.295 214.158 159.312 213.265V212.074C160.08 211.33 160.898 211.479 161.716 212L161.692 212.025Z" fill="#EBB8A5"/>
<path d="M222.282 146.775H219.902C219.133 145.658 218.91 144.641 220.447 143.971C220.993 144.319 221.588 144.666 222.108 145.038C224.587 146.75 225.53 146.279 225.877 143.227H227.017C227.339 143.624 227.364 143.996 227.017 144.393V146.775C225.43 147.296 223.844 146.576 222.257 146.775H222.282Z" fill="#E9BB9C"/>
<path d="M184.202 132.906C185.59 131.318 187.351 130.202 189.037 128.986C188.789 131.963 186.409 133.576 185.02 136.007C183.929 134.841 184.425 133.799 184.227 132.906H184.202Z" fill="#EABBA0"/>
<path d="M214.076 152.655L215.167 152.729C215.787 153.399 216.556 153.647 217.423 153.647C217.919 153.722 218.316 154.044 218.712 154.292L219.878 155.235C219.555 155.806 219.431 156.327 219.63 157.046C219.927 158.163 219.109 157.542 218.688 157.493C218.142 156.649 216.878 157.195 216.332 156.302C216.109 154.764 214.895 155.21 213.952 155.111C213.407 154.392 211.82 154.193 212.787 152.729L214.052 152.655H214.076Z" fill="#704A89"/>
<path d="M219.902 147.966C221.712 148.561 222.629 150.744 224.984 150.546C226.1 150.447 225.728 151.911 225.852 152.729C224.389 151.836 222.852 151.241 221.092 151.538C220.968 151.489 220.844 151.464 220.72 151.414C219.852 150.844 219.183 150.099 218.712 149.157C218.737 148.388 219.133 147.991 219.902 147.966V147.966Z" fill="#E8BCA1"/>
<path d="M181.773 142.731C180.706 141.317 180.062 141.019 178.822 141.788C177.707 142.483 176.938 141.267 176.318 140.349C181.128 138.488 181.351 138.116 181.773 142.731Z" fill="#EABBA0"/>
<path d="M207.878 178.78L205.598 178.68C202.97 178.01 203.614 176.15 204.011 174.363C204.259 173.917 204.656 173.718 205.176 173.718C205.474 173.768 205.722 173.892 205.945 174.091C206.441 174.909 206.936 175.678 208.077 175.778C208.87 175.852 209.564 176.274 209.564 177.241C209.49 177.837 209.044 178.11 208.548 178.333C208.325 178.482 208.126 178.606 207.878 178.73V178.78Z" fill="#6F4B83"/>
<path d="M186.731 187.14C187.475 187.091 187.797 186.669 187.822 185.974H189.012C189.334 186.371 189.384 186.768 189.012 187.165C189.309 188.704 187.847 189.994 188.491 191.681C188.64 192.053 187.549 193.169 186.706 191.954C186.657 190.564 186.607 189.175 186.582 187.786C186.31 187.488 186.359 187.289 186.731 187.14V187.14Z" fill="#EBB8A4"/>
<path d="M145.081 188.356C143.791 188.108 143.99 187.562 144.783 186.868C146.394 185.453 148.13 185.577 149.791 186.644C150.312 186.967 151.725 187.736 149.816 188.331C149.493 188.654 149.122 188.703 148.7 188.604C147.857 188.009 147.039 187.959 146.196 188.604C145.775 188.753 145.403 188.679 145.105 188.356H145.081Z" fill="#E7BD9E"/>
<path d="M175.946 212.099C176.888 212.198 178.103 211.752 178.326 213.29C175.946 214.332 173.566 215.845 171.211 213.29C172.599 212.099 174.359 212.397 175.971 212.099H175.946Z" fill="#EBB8A5"/>
<path d="M175.946 212.099C174.707 213.836 172.847 213.166 171.186 213.29H170.591C169.773 213.29 168.93 213.34 168.831 212.174C169.302 211.404 170.095 211.553 170.814 211.504C171.781 211.504 172.773 211.603 173.616 210.933C174.236 211.653 175.872 210.313 175.946 212.099Z" fill="#E7BD9E"/>
<path d="M184.252 207.36C184.525 207.261 184.822 207.212 185.07 207.088C185.938 206.641 186.657 204.755 187.45 205.698C188.491 206.939 186.657 207.807 185.839 208.651C184.946 209.593 183.88 210.71 183.037 208.527C183.483 208.204 183.632 207.534 184.227 207.336L184.252 207.36Z" fill="#E8BC9F"/>
<path d="M187.822 195.477C187.97 195.08 188.318 194.211 188.615 194.782C189.408 196.37 189.235 198.156 188.665 199.793C188.516 200.215 187.747 200.339 187.375 200.017C186.309 199.099 188.218 198.677 187.847 197.834C187.202 197.04 187.202 196.271 187.847 195.477H187.822Z" fill="#E4BEA2"/>
<path d="M158.121 194.286C157.278 194.137 156.782 195.551 156.113 195.005C155.319 194.36 155.939 193.417 156.262 192.623C156.509 192.003 156.708 191.358 156.931 190.713C157.699 190.738 158.096 191.16 158.121 191.904C158.765 192.698 158.741 193.492 158.121 194.286V194.286Z" fill="#EBBAA8"/>
<path d="M172.748 191.929C173.715 192.872 175.004 193.194 174.607 194.707C174.409 195.427 173.715 195.576 173.194 195.278C171.88 194.509 172.376 193.368 172.748 191.904V191.929Z" fill="#EFB8A5"/>
<path d="M154.526 191.929C154.477 192.946 154.799 194.112 153.262 194.36C151.427 193.665 152.444 191.978 152.022 190.788C153.113 190.589 153.485 191.978 154.502 191.929H154.526Z" fill="#EBB2A4"/>
<path d="M158.121 194.286V191.904C158.964 192.078 159.361 190.688 160.154 191.234C160.749 191.631 160.526 192.499 160.427 193.169C160.204 194.608 159.014 194.186 158.121 194.286V194.286Z" fill="#E8BD9E"/>
<path d="M159.312 213.29C161.295 213.29 163.253 213.29 165.237 213.29C163.6 214.977 160.923 214.977 159.312 213.29Z" fill="#E4BEA0"/>
<path d="M204.457 174.091C204.68 175.654 203.812 177.514 205.597 178.68H203.267C202.969 178.407 202.721 178.085 202.597 177.663C202.424 176.844 202.201 176.026 202.25 175.182C202.374 174.587 202.672 174.115 203.217 173.818C203.663 173.694 204.085 173.743 204.432 174.091H204.457Z" fill="#6C498B"/>
<path d="M222.282 166.97C222.456 166.077 222.778 165.705 223.571 166.524C224.092 167.069 224.662 167.615 225.208 168.136L224.613 169.327C223.398 168.98 222.629 168.186 222.282 166.97Z" fill="#744D8B"/>
<path d="M212.787 174.09C214.027 173.892 214.994 174.339 215.762 175.281C216.729 175.281 216.754 175.703 216.307 176.398L215.142 176.646C214.87 176.795 214.597 176.844 214.275 176.795C213.209 176.199 212.019 175.678 212.787 174.09V174.09Z" fill="#6E498B"/>
<path d="M203.267 177.663C203.267 178.01 203.267 178.383 203.267 178.73C202.127 178.73 200.986 178.73 199.846 178.755C199.796 177.986 199.747 177.217 199.697 176.472C201.284 175.678 202.201 176.919 203.267 177.688V177.663Z" fill="#714E83"/>
<path d="M179.417 207.187C179.491 206.046 180.359 206.12 181.128 206.046C181.946 206.79 182.318 207.683 181.177 208.328C180.235 208.849 179.591 208.204 179.417 207.187V207.187Z" fill="#E7BC9D"/>
<path d="M186.632 238.224C187.029 238.447 187.4 238.646 187.797 238.869C186.359 239.787 184.946 239.514 183.037 238.968C184.376 237.877 185.591 238.373 186.632 238.224V238.224Z" fill="#ECB8A8"/>
<path d="M187.821 195.477C187.821 196.27 187.821 197.04 187.821 197.834C187.078 197.437 186.309 197.064 185.565 196.667C185.417 195.65 186.111 194.98 186.607 194.236C186.681 194.956 187.028 195.452 187.821 195.477Z" fill="#EBB1A2"/>
<path d="M128.991 209.717C128.991 207.36 128.991 205.004 128.966 202.647C130.255 205.351 129.338 208.204 129.561 210.983C129.362 210.561 129.164 210.139 128.991 209.717V209.717Z" fill="#F4A79E"/>
<path d="M221.092 151.514C220.918 152.183 221.489 153.374 220.497 153.424C219.604 153.474 218.885 152.556 218.712 151.514C219.505 150.869 220.299 150.869 221.092 151.514Z" fill="#E8BCA1"/>
<path d="M172.947 181.037C173.666 182.551 173.716 183.469 173.046 184.585C172.005 183.543 172.278 182.575 172.947 181.037Z" fill="#E3BEA1"/>
<path d="M177.112 184.784C176.443 184.61 175.352 185.205 175.178 184.138C175.079 183.543 175.873 182.749 176.468 182.848C177.534 183.022 176.939 184.114 177.137 184.784H177.112Z" fill="#E7BD9C"/>
<path d="M221.092 151.514H218.712V150.323C218.365 149.926 218.365 149.529 218.712 149.132C219.952 149.479 220.745 150.273 221.092 151.514V151.514Z" fill="#EABAA2"/>
<path d="M178.326 213.29C179.194 213.662 179.615 211.702 180.533 212.843C180.805 213.191 180.731 213.885 180.26 214.158C179.293 214.704 178.549 214.506 178.326 213.29Z" fill="#E6BEA0"/>
<path d="M145.08 188.356L146.196 188.282C147.014 187.711 147.808 187.711 148.626 188.282L149.791 188.356C149.617 188.703 149.444 189.076 149.27 189.423C147.857 188.654 146.444 189.125 145.056 189.522C145.056 189.15 145.056 188.778 145.08 188.406V188.356Z" fill="#ED9DB4"/>
<path d="M214.671 176.571C214.844 176.571 214.993 176.571 215.142 176.646C215.216 179.425 213.481 178.531 212.018 178.159C211.944 177.936 211.969 177.713 212.117 177.489C212.564 177.093 213.134 176.944 213.679 176.745C214.001 176.671 214.349 176.671 214.671 176.547V176.571Z" fill="#DFB69F"/>
<path d="M121.777 174.339C121.008 175.133 120.19 175.554 119 174.686C119.992 173.818 120.909 174.215 121.777 174.339Z" fill="#E1C0A2"/>
<path d="M216.307 176.398C216.307 175.926 216.183 175.529 215.762 175.281C216.629 173.47 217.398 174.612 218.191 175.356C217.795 176.125 217.125 176.373 216.307 176.398Z" fill="#704B80"/>
<path d="M173.592 210.933C173.294 212.447 172.104 212.025 171.137 212.074C170.964 211.901 170.865 211.702 170.84 211.479C170.889 211.256 171.013 211.082 171.237 210.958C172.005 210.759 172.798 210.561 173.567 210.362C173.567 210.561 173.567 210.759 173.592 210.933V210.933Z" fill="#ECB5A6"/>
<path d="M184.251 144.393H183.061C182.442 143.053 183.111 142.16 184.152 141.441C184.202 142.011 184.251 142.607 184.301 143.177C184.301 143.574 184.623 143.996 184.251 144.393V144.393Z" fill="#EABBA0"/>
<path d="M218.712 149.132V150.323H217.522C217.15 150.273 216.555 150.124 216.679 149.752C217.026 148.735 218.018 149.306 218.712 149.132V149.132Z" fill="#E8BCA1"/>
<path d="M184.251 207.36C184.202 208.105 183.805 208.527 183.061 208.551C183.235 207.857 182.64 206.864 183.681 206.517C184.053 206.393 184.202 206.988 184.251 207.36V207.36Z" fill="#ECB7A6"/>
<path d="M164.071 202.523C164.865 200.96 165.658 200.96 166.402 202.547L166.476 202.696C165.633 203.168 164.815 203.366 164.071 202.523V202.523Z" fill="#E4BF9F"/>
<path d="M143.295 195.477C142.155 194.236 142.8 192.797 142.8 191.433C142.8 191.383 142.948 191.309 143.023 191.309C143.097 191.309 143.196 191.408 143.271 191.457C143.717 192.797 143.692 194.162 143.271 195.501L143.295 195.477Z" fill="#F0A2BA"/>
<path d="M189.012 187.165V185.974C189.185 185.677 189.309 185.181 189.557 185.131C190.003 185.032 190.127 185.503 190.152 185.875C190.202 186.669 189.805 187.091 189.012 187.165V187.165Z" fill="#E9BCA1"/>
<path d="M180.706 182.402C180.409 183.94 179.244 183.543 178.252 183.543C178.599 182.129 179.715 182.402 180.706 182.402Z" fill="#D07A9D"/>
<path d="M183.062 181.236V182.327C182.64 182.303 182.243 182.278 181.822 182.253C181.252 182.005 180.682 181.757 179.467 181.236H183.062Z" fill="#F1A9AF"/>
<path d="M227.042 144.368V143.202C227.216 142.905 227.339 142.408 227.587 142.359C228.034 142.26 228.158 142.731 228.182 143.103C228.232 143.897 227.835 144.319 227.042 144.368V144.368Z" fill="#E2BEAA"/>
<path d="M174.757 231.103C176.17 231.401 176.021 232.17 175.525 233.212C174.41 232.667 174.881 231.773 174.757 231.103Z" fill="#EABB9D"/>
<path d="M181.673 204.904C181.772 203.912 182.119 203.093 183.061 202.622C182.962 203.614 183.408 204.929 181.673 204.904Z" fill="#ECB7A6"/>
<path d="M212.191 177.713C212.142 177.862 212.092 178.01 212.018 178.159H211.795L211.596 178.234C210.456 178.73 209.316 178.631 208.15 178.308C208.324 177.787 208.77 177.688 209.241 177.613C210.258 176.869 211.249 176.72 212.191 177.713V177.713Z" fill="#7B5167"/>
<path d="M143.296 195.477V191.433C143.445 191.358 143.618 191.309 143.767 191.284C143.767 192.723 143.767 194.137 143.767 195.576C143.618 195.551 143.469 195.501 143.296 195.477Z" fill="#C7788F"/>
<path d="M218.712 154.267C218.191 154.466 217.795 154.267 217.472 153.895C217.299 153.746 217.249 153.598 217.324 153.449C217.398 153.325 217.472 153.25 217.547 153.25V151.489C218.34 152.233 218.414 153.3 218.737 154.243L218.712 154.267Z" fill="#E8BCA1"/>
<path d="M161.692 212.025L159.287 212.099C158.915 212 158.444 212 158.345 211.479C159.436 211.082 160.526 211.057 161.617 211.479C161.617 211.653 161.667 211.826 161.692 212V212.025Z" fill="#ED8DB1"/>
<path d="M161.642 211.504C160.551 211.504 159.46 211.504 158.369 211.504C158.295 211.305 158.195 211.132 158.121 210.958C159.311 211.057 160.6 210.511 161.642 211.529V211.504Z" fill="#C8668A"/>
<path d="M208.151 178.308L211.597 178.234C210.481 179.301 209.142 178.705 207.878 178.78C207.977 178.606 208.051 178.457 208.151 178.308Z" fill="#DBB3C4"/>
<path d="M184.252 200.19C184.252 199.248 184.748 198.503 185.343 197.833C185.343 198.801 185.789 199.942 184.252 200.19Z" fill="#EC95B4"/>
<path d="M164.072 202.523C164.865 202.572 165.683 202.647 166.476 202.696C166.476 202.87 166.427 203.019 166.427 203.192C165.237 203.664 164.047 203.639 162.857 203.192C162.857 203.019 162.857 202.845 162.832 202.696C163.229 202.647 163.65 202.572 164.047 202.523H164.072Z" fill="#E57DAD"/>
<path d="M224.191 141.937C223.249 142.036 222.356 142.036 222.307 140.746C223.15 140.821 223.745 141.267 224.191 141.937Z" fill="#C06B40"/>
<path d="M461.819 155.111C460.158 155.111 459.241 154.193 458.77 152.729C461.001 150.794 461.918 148.462 460.555 145.658C460.183 144.914 459.712 144.269 460.431 143.574C460.654 143.351 461.174 143.277 461.497 143.376C462.513 143.674 462.29 144.592 462.315 145.336C462.34 146.601 462.315 147.891 462.315 149.157C462.761 150.174 462.736 151.191 462.34 152.208C462.191 153.176 462.662 154.292 461.794 155.111H461.819Z" fill="#DFBC95"/>
<path d="M462.364 152.183V149.132H462.934C462.81 150.174 463.282 151.29 462.364 152.183Z" fill="#EEB48E"/>
<path d="M152.172 98.0732C151.453 99.9588 150.213 99.2145 148.527 98.8175C149.916 97.7507 151.106 98.2221 152.147 98.0732H152.172Z" fill="#E16466"/>
<path d="M370.834 207.36H373.214C372.421 209.023 371.627 209.023 370.834 207.36Z" fill="#E16466"/>
<path d="M383.874 208.402C383.105 208.402 382.337 208.402 381.568 208.402C382.337 206.74 383.105 206.715 383.874 208.402Z" fill="#E5606D"/>
<path d="M215.142 231.724C213.828 231.5 212.39 232.145 211.15 231.277C211.299 231.203 211.448 231.128 211.621 231.054C212.018 231.054 212.415 231.054 212.811 231.054C213.58 231.302 214.572 230.806 215.167 231.749L215.142 231.724Z" fill="#D77E23"/>
<path d="M417.07 203.862C417.715 202.349 418.409 202.572 419.45 203.068C418.731 204.011 417.888 203.664 417.07 203.862Z" fill="#E0BB96"/>
<path d="M381.197 146.601C381.048 147.941 380.924 149.802 380.651 151.638C380.527 152.531 380.106 153.424 378.916 153.25C377.8 153.077 377.875 152.183 377.974 151.414C378.395 148.065 378.395 144.716 378.42 141.366C378.42 140.597 378.544 139.679 379.635 139.679C380.676 139.679 380.874 140.523 380.949 141.342C381.048 142.905 381.098 144.492 381.197 146.601V146.601Z" fill="#FBEEE2"/>
<path d="M379.263 132.931C380.527 133.105 380.75 134.147 380.725 135.089C380.725 136.032 380.428 137.174 379.089 137.025C377.676 136.851 377.626 135.561 377.577 134.544C377.527 133.576 378.197 132.956 379.263 132.931Z" fill="#F4DCC7"/>
<path d="M440.895 161.016C440.87 161.388 440.846 161.834 440.35 161.834C439.854 161.834 439.829 161.388 439.829 161.016C439.829 160.644 439.879 160.197 440.375 160.197C440.87 160.197 440.87 160.644 440.895 161.016Z" fill="#C9568E"/>
<path d="M427.88 178.854C427.904 180.888 427.607 181.757 425.202 180.516C422.772 179.251 419.872 180.243 417.194 180.045C417.417 178.656 418.508 178.879 419.45 178.854C422.252 178.854 425.078 178.854 427.88 178.854Z" fill="#C85693"/>
<path d="M407.674 172.9C409.236 170.419 411.666 172.329 413.599 171.734C413.426 172.577 414.864 173.049 414.269 173.768C413.674 174.463 412.905 173.867 412.211 173.396C410.798 172.453 409.162 173.098 407.649 172.9H407.674Z" fill="#C95792"/>
<path d="M412.533 177.241C413.649 175.926 415.285 177.192 415.855 175.604C416.004 175.182 416.773 175.331 416.996 175.902C417.268 176.596 417.219 177.365 416.351 177.539C415.161 177.762 413.946 177.862 412.533 177.266V177.241Z" fill="#C85791"/>
<path d="M408.864 161.016C409.905 161.14 410.376 162.058 409.955 162.678C408.616 164.638 408.938 166.92 408.467 169.079C407.277 166.846 407.798 164.489 407.649 162.207C407.426 161.165 408.12 161.09 408.839 161.016H408.864Z" fill="#C85792"/>
<path d="M408.864 161.016L407.674 162.207H406.484V159.825C407.426 159.924 408.641 159.478 408.864 161.016V161.016Z" fill="#C75790"/>
<path d="M418.954 184.287C418.136 183.866 417.343 183.444 416.524 183.047C417.789 182.799 419.078 180.591 419.673 181.409C421.284 183.568 424.334 180.988 425.474 183.593L425.524 183.667C423.987 184.659 422.251 184.039 420.615 184.263H420.169L418.979 184.337L418.954 184.287Z" fill="#CA5692"/>
<path d="M425.524 184.139C425.722 184.139 425.921 184.188 426.094 184.238C424.111 184.883 422.127 185.503 420.169 184.213V184.163C421.954 183.766 423.739 183.766 425.524 184.163V184.139Z" fill="#DE78A3"/>
<path d="M425.524 184.138C423.739 184.138 421.954 184.138 420.169 184.138C421.88 183.047 423.739 183.791 425.524 183.642C425.524 183.816 425.499 183.99 425.524 184.138Z" fill="#C35D88"/>
<path d="M171.236 210.958C171.186 211.132 171.137 211.305 171.112 211.504C170.244 212.248 169.079 211.404 168.211 212.099C168.013 212.074 167.815 212.05 167.616 212.025C168.36 210.09 170.021 211.256 171.236 210.983V210.958Z" fill="#CE7195"/>
<path d="M186.731 187.14L186.582 187.786C185.863 187.091 186.111 186.198 186.012 185.354C186.086 185.007 186.086 184.436 186.26 184.362C186.706 184.163 186.557 184.684 186.582 184.883C186.656 185.627 186.681 186.396 186.731 187.165V187.14Z" fill="#EF9CB7"/>
<path d="M162.856 203.192H166.426C165.236 204.086 164.046 204.086 162.856 203.192Z" fill="#CA6094"/>
<path d="M203.267 177.663C201.804 178.085 200.912 176.795 199.697 176.447C197.441 169.029 198.259 161.686 200.242 154.367C202.97 153.126 202.548 155.558 203.143 156.823C203.143 157.766 202.87 158.684 202.92 159.602C202.92 160.147 203.044 160.693 203.019 161.239C202.97 161.81 202.771 162.355 202.523 162.876C201.556 165.233 201.829 167.739 201.78 170.171C201.78 171.237 201.556 172.329 201.978 173.371C202.275 173.942 202.449 174.587 202.672 175.182C203.069 175.951 203.391 176.745 203.292 177.638L203.267 177.663Z" fill="#6F4C88"/>
<path d="M202.672 156.798C202.077 155.781 201.928 154.317 200.242 154.367L200.936 150.347C201.308 150.298 201.655 150.273 202.027 150.223C202.424 150.447 202.622 150.819 202.746 151.216C202.622 153.325 204.407 153.995 205.647 155.061C207.184 155.285 206.738 156.5 206.837 157.418C206.316 157.964 205.672 158.113 204.953 157.964C204.159 157.642 203.391 157.269 202.672 156.773V156.798Z" fill="#6D4C83"/>
<path d="M214.671 176.571L214.151 177.117C211.101 176.72 207.953 176.621 205.647 174.09C205.375 173.867 205.275 173.545 205.251 173.222C204.755 172.552 204.284 173.495 203.813 173.247C203.317 173.173 202.97 172.9 202.747 172.453C202.028 169.277 202.201 166.077 202.598 162.876C202.771 162.083 203.49 161.562 203.664 160.768C203.813 160.321 204.036 159.949 204.383 159.626C204.804 159.403 205.226 159.403 205.647 159.577C206.54 160.197 205.97 161.512 206.837 162.157C208.449 162.455 208.003 163.745 208.027 164.762C208.077 167.69 208.027 170.617 208.027 174.19C209.986 172.304 211.374 173.321 212.787 174.041C212.936 175.207 213.977 175.728 214.671 176.522V176.571Z" fill="#6D4A86"/>
<path d="M202.102 151.538C202.077 151.117 202.052 150.67 202.027 150.248C202.077 150.099 202.151 149.951 202.176 149.802C202.325 149.876 202.474 149.876 202.598 149.777C204.283 150.348 206.044 149.926 207.754 150.05C208.994 150.174 210.333 149.851 211.299 151.017L211.696 151.489C210.085 152.109 208.448 151.365 206.837 151.538C205.275 152.63 203.688 154.168 202.102 151.538V151.538Z" fill="#6D4B85"/>
<path d="M202.101 151.538C203.688 153.052 205.25 151.29 206.837 151.538V152.729C206.663 153.325 205.994 153.474 205.647 153.92V155.111C203.192 155.185 201.977 154.044 202.101 151.563V151.538Z" fill="#6F498B"/>
<path d="M205.647 159.825H204.506C204.234 159.602 204.06 159.353 203.986 159.056C203.887 158.411 203.936 157.815 204.581 157.443C205.325 157.443 206.068 157.443 206.837 157.443V159.825C206.44 160.172 206.044 160.197 205.647 159.825Z" fill="#6D4A8D"/>
<path d="M212.812 152.704L213.977 155.086C213.407 155.037 212.762 155.136 212.266 154.913C211.597 154.615 210.705 154.069 210.853 153.3C211.052 152.283 212.118 152.853 212.812 152.704V152.704Z" fill="#6C4A83"/>
<path d="M216.356 156.277C217.274 156.401 218.513 155.905 218.712 157.468C217.844 157.468 216.877 157.666 216.108 157.369C214.844 156.872 215.563 156.5 216.356 156.277Z" fill="#6C4B80"/>
<path d="M220.199 160.371C218.588 161.115 217.671 161.165 216.406 160.445C217.621 159.626 218.563 159.75 220.199 160.371Z" fill="#6D4A81"/>
<path d="M205.646 153.895C205.671 153.126 206.068 152.754 206.836 152.704C207.208 152.779 207.803 152.903 207.679 153.275C207.332 154.292 206.365 153.722 205.646 153.871V153.895Z" fill="#6D4C83"/>
<path d="M205.646 159.825H206.836C206.836 160.619 206.836 161.413 206.836 162.207C205.299 161.983 205.746 160.768 205.671 159.825H205.646Z" fill="#6B4B80"/>
<path d="M223.472 162.207C223.77 162.38 224.266 162.529 224.315 162.752C224.414 163.199 223.943 163.323 223.571 163.348C222.778 163.397 222.357 163.001 222.282 162.207H223.472V162.207Z" fill="#6F478D"/>
<path d="M220.77 168.508C220.844 168.781 221.017 169.104 221.017 169.426C221.017 169.774 220.918 170.295 220.422 170.121C220.199 170.047 220.026 169.55 220.001 169.228C219.976 168.88 220.051 168.459 220.77 168.508Z" fill="#6D4B82"/>
<path d="M184.252 144.393C184.177 143.996 183.632 143.55 184.301 143.177C186.235 144.542 188.218 143.45 190.202 143.326L189.012 145.584C187.251 145.882 185.714 145.311 184.252 144.393V144.393Z" fill="#EBBBA2"/>
<path d="M208.052 150.397C206.267 150.025 204.358 150.62 202.598 149.777C204.953 149.802 207.258 149.678 209.589 149.231C210.159 149.132 212.142 148.09 211.523 150.447C210.357 150.695 209.192 150.769 208.052 150.397V150.397Z" fill="#E9BCA2"/>
<path d="M207.134 147.321C205.523 148.065 204.605 148.139 203.341 147.395C204.556 146.576 205.498 146.7 207.134 147.321Z" fill="#E9BCA2"/>
<path d="M213.654 146.452C213.357 146.527 213.034 146.7 212.712 146.7C212.365 146.7 211.844 146.601 212.018 146.105C212.092 145.882 212.588 145.708 212.91 145.683C213.257 145.658 213.679 145.782 213.654 146.452Z" fill="#E8BD9B"/>
<path d="M209.217 146.7C209.069 147.221 209.069 147.742 208.548 147.569C208.325 147.494 208.151 146.998 208.127 146.676C208.102 146.328 208.201 145.807 208.722 145.981C208.969 146.055 209.118 146.502 209.217 146.7Z" fill="#E9BCA2"/>
<path d="M200.961 144.393C201.135 144.517 201.581 144.641 201.68 144.914C201.854 145.435 201.333 145.534 200.986 145.51C200.664 145.51 200.168 145.311 200.094 145.088C199.92 144.567 200.441 144.567 200.961 144.418V144.393Z" fill="#E9BD99"/>
<path d="M208.052 150.397C209.217 150.397 210.383 150.422 211.523 150.447C211.449 150.62 211.374 150.819 211.275 150.993C210.184 150.893 209.019 151.141 208.027 150.397H208.052Z" fill="#C195BA"/>
<path d="M217.522 153.275L217.473 153.895C216.555 153.821 215.365 154.218 215.167 152.729L217.547 153.275H217.522Z" fill="#774F8B"/>
<path d="M217.423 139.63C217.944 139.779 218.489 139.803 218.291 140.3C218.217 140.523 217.721 140.696 217.399 140.721C217.051 140.746 216.531 140.647 216.704 140.126C216.779 139.878 217.25 139.754 217.423 139.63Z" fill="#CF592A"/>
<path d="M168.211 212.074C169.054 211.231 170.145 211.628 171.112 211.479C171.162 211.677 171.162 211.851 171.112 212.05C170.343 212.099 169.575 212.124 168.806 212.174C168.608 212.149 168.385 212.099 168.187 212.074H168.211Z" fill="#F29FBD"/>
<path d="M205.646 174.091C208.374 175.43 211.522 175.505 214.15 177.117C213.605 177.713 212.886 177.638 212.191 177.713C211.2 177.688 210.208 177.638 209.241 177.614C209.093 176.621 208.398 176.423 207.58 176.472C205.746 176.621 205.572 175.455 205.671 174.091H205.646Z" fill="#70498A"/>
<path d="M205.647 172.924V174.091H203.416C202.969 173.694 202.969 173.297 203.416 172.9H204.507C204.903 172.527 205.275 172.602 205.672 172.9L205.647 172.924Z" fill="#6F5384"/>
<path d="M148.626 188.257C147.808 188.257 147.014 188.257 146.196 188.257C146.99 186.669 147.808 186.644 148.626 188.257Z" fill="#EFB4A7"/>
<path d="M203.391 172.9V174.066L202.647 175.182L201.457 174.041C200.788 172.9 201.581 171.535 200.937 170.394C201.11 167.566 200.317 164.638 202.102 162.033C202.499 161.884 202.895 161.81 203.218 162.231L203.416 172.9H203.391Z" fill="#F4EBF5"/>
<path d="M204.581 157.443L204.457 159.155C203.837 160.172 203.168 160.817 202.152 159.552C202.028 158.584 201.978 157.617 202.672 156.798C203.465 156.55 204.209 156.476 204.606 157.443H204.581Z" fill="#F3E5F0"/>
<path d="M202.151 159.577C203.019 160.048 203.763 159.75 204.457 159.18C204.457 159.403 204.481 159.602 204.506 159.825C204.506 160.222 204.481 160.644 204.457 161.041C203.862 161.512 203.267 161.562 202.672 161.041C202.126 160.693 202.101 160.147 202.151 159.577V159.577Z" fill="#6D4E80"/>
<path d="M202.672 161.041H204.457C204.408 161.834 203.961 162.207 203.193 162.256L202.077 162.058L202.672 161.041V161.041Z" fill="#734A90"/>
<path d="M200.937 170.419C201.631 171.56 201.482 172.825 201.457 174.066C200.416 172.974 201.061 171.634 200.937 170.419Z" fill="#6E567E"/>
<path d="M205.647 172.924C205.25 172.924 204.878 172.924 204.481 172.9C204.531 172.106 204.977 171.734 205.771 171.783C206.167 171.808 206.614 171.957 206.49 172.403C206.44 172.652 205.919 172.776 205.622 172.949L205.647 172.924Z" fill="#70488D"/>
</g>
<defs>
<clipPath id="clip0_5114_48382">
<rect width="595" height="287" fill="white"/>
</clipPath>
</defs>
</svg>
