<svg width="595" height="297" viewBox="0 0 595 297" fill="none" xmlns="http://www.w3.org/2000/svg">
<g clip-path="url(#clip0_5484_43236)">
<rect width="595" height="297" fill="#7D9AFF"/>
<path d="M388.592 215.849C389.158 213.84 388.103 213.247 386.326 212.732C367.194 207.013 353.083 195.318 344.328 177.311C333.049 154.127 337.092 124.94 354.216 105.619C365.726 92.6099 379.991 85.1651 397.373 83.1815C430.925 79.3431 462.52 102.219 469.395 135.811C469.498 136.3 469.524 136.841 469.576 137.331C470.013 141.555 470.58 144.801 475.73 146.888C483.352 150.005 482.631 160.618 475.086 165.307C474.314 165.796 473.49 166.44 472.614 166.543C468.468 167.007 467.361 169.892 465.971 173.292C458.143 192.433 444.315 205.416 424.668 211.959C422.015 212.835 420.831 213.943 421.372 216.674C422.273 217.73 422.196 218.786 421.372 219.842C418.462 220.976 415.526 220.692 412.565 220.1C411.123 219.147 411.896 217.936 412.23 216.828C412.694 215.334 412.333 214.69 410.685 214.922C404.402 215.849 398.094 215.823 391.811 214.973C390.626 214.819 389.931 215.592 389.03 216.03C388.875 215.978 388.746 215.926 388.592 215.875V215.849Z" fill="#E0BB97"/>
<path d="M165.855 241.069C168.172 240.579 167.709 238.776 167.683 237.205C167.554 231.151 167.528 230.919 161.709 231.434C150.405 232.413 139.1 233.624 127.796 234.86C124.165 235.247 123.238 234.088 123.522 230.404C123.805 226.669 123.367 222.856 123.11 219.095C122.569 211.238 121.951 203.381 121.359 195.524C121.178 193.077 120.895 190.629 120.818 188.182C120.766 186.327 119.968 185.735 118.166 185.683C115.153 185.606 112.32 184.679 109.668 183.262C101.943 179.166 100.501 170.278 106.578 163.915C107.351 163.117 108.252 162.421 109.102 161.674C109.488 160.695 110.26 160.206 111.239 159.948C129.032 160.592 145.435 155.543 161.194 147.789C171.957 142.482 181.691 135.707 190.214 127.258C193.433 124.064 196.214 120.509 198.789 116.799C199.381 115.975 199.587 114.558 201.132 114.79C211.87 114.146 222.633 113.553 233.371 112.858C236.513 112.652 237.929 113.605 238.315 117.031C239.963 131.869 241.869 146.707 243.748 161.52C245.731 177.156 247.791 192.767 249.748 208.404C250.212 212.165 250.418 215.926 251.37 219.636C251.963 221.98 250.418 223.191 248.358 223.268C235.946 223.68 223.663 225.638 211.303 226.54C209.758 226.643 207.312 225.973 207.132 228.884C205.407 228.266 203.681 228.137 201.802 228.291C193.742 228.935 185.708 229.811 177.674 230.352C176.953 230.404 176.258 230.507 175.537 230.61C173.657 230.868 173.168 231.769 173.837 233.598C175.923 239.266 179.476 243.774 184.678 246.865C187.15 248.333 189.776 249.467 192.506 250.394C193.562 250.755 195.055 250.832 194.978 252.558C191.733 255.083 187.742 254.593 184.086 254.877C179.914 255.186 175.743 254.31 171.803 252.635C169.073 251.476 167.4 249.647 167.554 246.556C167.657 244.521 167.039 242.743 165.932 241.069H165.855Z" fill="#EABBA2"/>
<path d="M165.854 241.069C167.889 240.966 168.069 242.357 168.198 243.851C168.816 250.987 169.279 251.553 176.412 253.202C182.618 254.645 188.772 254.104 194.823 252.249C196.394 250.729 198.557 250.755 200.488 250.214C205.587 248.771 206.565 247.638 207.003 242.511C207.08 241.455 206.874 240.167 208.368 239.781C238.057 244.057 263.421 255.881 280.957 281.359C284.279 286.176 286.751 291.457 288.605 297.227H93.8574C94.0892 295.166 94.9904 293.389 95.8144 291.586C104.775 271.904 120.148 258.895 139.28 249.776C147.752 245.731 156.662 242.975 165.854 241.095V241.069Z" fill="#FFC01D"/>
<path d="M421.373 219.559C421.064 218.605 421.089 217.626 421.373 216.673C437.157 217.446 452.968 218.142 468.65 220.306C477.997 221.594 487.344 223.036 496.666 224.53C501.481 225.303 502.434 226.411 503.438 231.125C506.09 243.645 509.541 256.036 510.622 268.839C511.343 277.237 511.858 285.635 510.854 294.033C510.571 296.3 510.004 297.433 507.146 297.433C480.829 297.253 454.539 297.33 428.222 297.304C427.089 295.553 427.836 293.698 427.965 291.92C428.737 280.766 428.583 269.637 427.99 258.483C427.372 247.097 425.699 235.891 422.815 224.865C422.351 223.088 421.476 221.413 421.347 219.559H421.373Z" fill="#010101"/>
<path d="M382.49 297.33C359.16 297.33 335.831 297.279 312.501 297.408C309.514 297.408 308.716 296.944 308.948 293.672C310.261 275.202 313.917 257.144 318.346 239.214C319.196 235.737 320.535 232.413 321.488 228.961C322.544 225.175 325.042 223.165 328.801 222.496C346.517 219.404 364.31 216.957 382.335 216.519C382.85 216.519 383.339 216.39 383.854 216.339C385.477 216.133 387.099 216.261 388.721 216.261C390.575 217.343 389.854 218.709 389.108 220.048C385.297 225.278 383.983 231.435 383.056 237.591C380.352 255.804 379.657 274.043 382.876 292.307C383.159 293.982 383.803 295.733 382.49 297.305V297.33Z" fill="#010101"/>
<path d="M201.081 114.764C188.335 134.239 169.744 145.96 148.551 154.152C138.921 157.887 128.904 159.948 118.604 160.824C116.029 161.03 113.48 160.979 110.956 160.335C109.643 160.489 108.381 160.412 107.197 159.742C104.39 157.733 103.952 154.616 103.515 151.576C101.789 139.623 105.703 129.473 113.789 120.869C123.548 110.514 136.088 105.336 149.71 102.553C164.619 99.5137 179.554 99.9516 194.412 103.249C200.515 104.614 201.056 105.31 201.03 111.364C201.03 112.497 201.03 113.605 201.03 114.738L201.081 114.764Z" fill="#C95C26"/>
<path d="M382.489 297.33C381.82 292.049 381.022 286.794 380.455 281.513C379.219 270.049 379.734 258.56 380.816 247.122C381.588 238.853 382.876 230.661 386.249 222.959C386.841 221.594 387.202 219.971 388.927 219.43C389.828 218.914 390.832 218.657 391.862 218.657C397.605 218.605 403.373 218.605 409.115 218.657C410.145 218.657 411.175 218.734 412.025 219.481C415.14 219.481 418.256 219.533 421.372 219.558C422.582 219.842 422.943 220.95 423.123 221.851C425.183 231.202 427.397 240.502 428.299 250.111C429.457 262.295 429.663 274.429 429.329 286.614C429.226 290.169 428.608 293.724 428.221 297.279C412.977 297.279 397.708 297.279 382.464 297.304L382.489 297.33Z" fill="#F9F3F0"/>
<path d="M208.368 239.781C207.467 240.863 207.853 242.125 207.827 243.336C207.776 247.483 206.771 249.106 202.832 250.343C200.231 251.167 197.501 251.631 194.823 252.249C191.733 250.677 188.36 249.853 185.296 248.204C178.73 244.649 174.661 239.214 172.395 232.233C171.932 230.764 172.163 230.198 173.76 230.069C179.734 229.528 185.708 228.858 191.656 228.266C195.596 227.879 199.561 227.596 203.501 227.106C205.226 226.9 206.488 227.106 207.106 228.884C207.57 232.516 207.209 236.252 208.394 239.781H208.368Z" fill="#CC9578"/>
<path d="M107.197 159.768C108.459 159.974 109.695 160.154 110.957 160.361C110.313 160.798 109.695 161.236 109.051 161.674C108.433 161.03 107.815 160.412 107.197 159.768V159.768Z" fill="#FBF0E9"/>
<path d="M388.772 216.39C387.124 216.39 385.476 216.39 383.828 216.364C385.322 215.36 387.021 216.133 388.592 215.875L388.798 216.081C388.798 216.184 388.798 216.313 388.772 216.416V216.39Z" fill="#E0BB97"/>
<path d="M386.069 160.309C385.528 161.417 384.55 161.906 383.391 162.009C375.125 162.782 367.014 162.911 359.649 157.965C351.59 152.529 350.585 144.183 357.358 137.047C363.486 130.607 371.185 128.597 379.76 129.113C381.305 129.216 382.824 129.422 384.344 129.602C385.09 130.478 385.631 131.457 385.811 132.59C387.202 140.499 388.927 148.407 387.588 156.522C387.356 157.913 387.331 159.407 386.043 160.36L386.069 160.309Z" fill="#CD6616"/>
<path d="M408.343 169.428C408.343 168.707 408.292 167.986 408.343 167.265C408.575 164.817 409.94 163.22 412.36 162.911C414.781 162.628 416.609 163.71 417.227 166.183C417.716 168.063 417.819 170.021 418.308 171.901C419.39 176.204 421.527 179.707 426.111 180.995C430.565 182.257 434.196 180.506 437.26 177.44C439.552 175.147 441.071 172.391 441.844 169.197C442.204 167.702 442.616 166.208 443.209 164.817C444.084 162.756 445.861 161.932 447.998 162.318C449.981 162.653 451.217 163.967 451.68 165.976C452.17 168.063 451.629 170.047 451.011 172.004C448.539 180.042 444.033 186.405 435.921 189.548C426.78 193.077 417.665 190.037 412.257 181.871C409.759 178.11 408.42 173.962 408.343 169.428Z" fill="#CA5694"/>
<path d="M380.636 110.9C386.507 110.977 392.661 111.879 398.609 114.043C399.279 114.275 399.974 114.506 400.618 114.79C403.862 116.284 405.124 118.654 404.12 121.359C403.141 123.986 400.437 125.094 397.167 123.858C391.708 121.797 386.12 120.792 380.301 120.792C374.044 120.792 368.07 121.822 362.353 124.476C358.851 126.099 356.122 125.48 354.808 122.93C353.418 120.225 354.577 117.546 358.13 115.769C365.057 112.265 372.499 111.003 380.636 110.9V110.9Z" fill="#010201"/>
<path d="M386.07 160.309C388.336 150.417 386.868 140.731 384.422 131.096C384.293 130.607 384.396 130.091 384.37 129.576C395.932 131.689 402.009 139.443 405.46 149.953C406.103 151.859 405.563 153.147 403.966 154.1C398.919 157.114 393.666 159.639 387.924 161.03C387.177 161.21 386.25 161.648 386.07 160.309V160.309Z" fill="#F9F3EF"/>
<path d="M388.773 216.39C388.773 216.39 388.721 216.158 388.798 216.055C389.21 214.123 390.086 213.633 392.249 214.046C398.48 215.282 404.763 215.05 411.046 214.046C414.008 213.582 414.239 213.84 413.261 216.699C412.926 217.652 412.463 218.554 412.051 219.507C404.351 219.507 396.652 219.481 388.953 219.455C389.236 218.425 389.597 217.369 388.798 216.39H388.773Z" fill="#CA7C52"/>
<path d="M473.852 156.316C474.109 159.124 472.848 161.056 470.53 162.396C469.989 162.705 469.397 162.962 468.805 162.602C468.213 162.215 468.29 161.546 468.419 160.927C468.985 158.145 469.629 155.389 470.118 152.581C470.427 150.726 471.277 150.855 472.333 151.86C473.594 153.07 473.981 154.642 473.826 156.29L473.852 156.316Z" fill="#CA7C51"/>
<path d="M197.374 155.466C206.489 154.822 214.755 156.806 220.909 164.044C224.591 168.372 224.308 174.014 220.214 177.981C213.519 184.473 205.279 185.941 196.318 184.473C194.258 182.772 194.361 180.222 194.129 177.981C193.408 171.283 194.206 164.663 195.88 158.145C196.138 157.115 196.601 156.239 197.374 155.518V155.466Z" fill="#6F4A87"/>
<path d="M172.678 196.245C172.524 190.938 173.863 188.646 177.03 188.491C180.172 188.337 182.257 191.067 182.489 195.704C183.107 207.374 174.481 217.807 162.816 219.533C151.692 221.181 140.697 213.737 137.864 202.685C136.912 198.924 137.993 196.322 140.929 195.369C143.529 194.519 146.001 196.142 147.006 199.903C150.121 211.547 163.82 212.526 169.614 205.648C171.983 202.814 172.987 199.594 172.704 196.271L172.678 196.245Z" fill="#CD5B9D"/>
<path d="M197.373 155.466C196.317 160.232 195.159 164.997 194.772 169.918C194.386 174.864 195.03 179.707 196.343 184.472C189.777 184.498 184.035 182.231 179.322 177.8C173.606 172.442 174.456 164.508 181.099 159.897C185.966 156.522 191.451 155.079 197.373 155.466V155.466Z" fill="#F9F3F0"/>
<path d="M223.253 149.438C223.073 150.803 222.068 151.705 220.575 150.7C211.176 144.518 200.953 146.115 190.756 147.403C188.104 147.738 185.503 148.356 182.877 148.743C181.77 148.897 180.405 148.923 180.147 147.454C179.864 145.909 180.997 145.291 182.31 145.007C193.203 142.534 204.172 141.272 215.245 143.796C217.665 144.337 219.931 145.316 221.914 146.836C222.686 147.429 223.304 148.047 223.279 149.438H223.253Z" fill="#C95D27"/>
<path d="M120.15 174.915C119.892 176.435 120.974 178.651 118.141 178.908C116.313 179.089 113.352 176.925 112.811 174.993C112.141 172.623 113.506 168.707 115.489 167.239C117.291 165.899 119.171 166.414 119.403 168.527C119.635 170.665 120.484 172.7 120.15 174.915Z" fill="#CC9578"/>
<path d="M384.345 151.138C384.268 153.147 384.68 155.208 383.933 157.166C383.624 157.965 383.186 158.686 382.182 158.531C381.023 158.351 381.1 157.398 381.255 156.625C381.924 153.199 381.667 149.747 381.744 146.295C381.744 145.522 381.718 144.492 382.826 144.414C384.01 144.337 384.345 145.213 384.345 146.243C384.345 147.866 384.345 149.489 384.345 151.138V151.138Z" fill="#F9F2EE"/>
<path d="M384.24 139.52C384.189 140.551 383.777 141.478 382.747 141.555C381.228 141.684 380.944 140.396 380.867 139.288C380.79 138.284 381.279 137.485 382.438 137.459C383.854 137.434 383.906 138.593 384.24 139.52V139.52Z" fill="#F6E7DC"/>
<path d="M199.82 174.478C199.82 176.1 199.82 177.749 199.82 179.372C199.82 179.965 199.871 180.686 198.996 180.712C198.429 180.712 198.043 180.325 197.966 179.758C197.605 176.229 196.756 172.7 197.708 169.119C197.914 168.372 198.043 167.677 199.022 167.831C199.846 167.96 199.794 168.681 199.794 169.248C199.82 170.974 199.794 172.726 199.794 174.452L199.82 174.478Z" fill="#F2EAF4"/>
<path d="M201.03 163.477C201.03 164.482 200.721 165.332 199.536 165.306C198.635 165.281 198.506 164.533 198.532 163.761C198.558 162.833 199.073 162.189 199.948 162.086C200.901 161.983 201.056 162.73 201.03 163.477Z" fill="#F0E8F2"/>
</g>
<defs>
<clipPath id="clip0_5484_43236">
<rect width="595" height="297" fill="white"/>
</clipPath>
</defs>
</svg>
