<svg width="591" height="285" viewBox="0 0 591 285" fill="none" xmlns="http://www.w3.org/2000/svg">
<g clip-path="url(#clip0_5146_43021)">
<path d="M590.951 0.738883C590.951 94.5809 590.951 188.448 591 282.29C591 284.507 590.508 285 588.291 285C558.692 284.926 529.068 284.951 499.469 284.951C498.829 284.236 498.804 283.374 498.829 282.462C499.198 272.164 499.543 261.866 497.967 251.617C496.613 242.772 494.101 234.149 492.747 225.354C491.786 219.17 488.954 216.509 482.749 215.77C467.851 213.972 453.051 211.212 438.03 210.375C430.297 209.956 422.565 209.364 414.808 209.044C414.464 208.946 414.144 208.798 413.873 208.601C413.085 207.738 413.085 206.728 413.331 205.669C413.676 204.733 414.242 203.969 414.981 203.328C418.059 202.146 421.359 201.505 424.215 199.731C424.584 199.534 424.978 199.362 425.397 199.263C431.11 196.898 435.789 192.932 440.64 189.236C441.526 188.546 441.97 187.487 442.733 186.674C444.555 185.146 446.845 184.456 448.84 183.225C455.119 179.332 458.198 173.493 459.084 166.348C459.33 164.328 459.429 162.259 460.586 160.46C460.98 159.992 461.448 159.672 462.014 159.475C462.408 159.327 462.802 159.228 463.221 159.154C464.502 158.563 465.881 158.144 466.915 157.085C468.811 155.286 470.018 152.946 470.584 150.556C471.347 147.255 469.328 144.668 467.21 142.352C466.595 141.662 465.437 141.416 465.585 140.184C465.684 139.938 465.856 139.716 466.078 139.568C466.841 139.1 467.851 139.346 468.589 138.78C468.663 138.681 468.762 138.607 468.836 138.509C468.909 138.41 468.983 138.311 469.057 138.213C469.722 137.351 469.697 136.365 469.599 135.38C469.722 134 469.747 132.62 470.018 131.29C470.338 130.354 470.412 129.368 470.559 128.383C470.609 128.087 470.682 127.816 470.781 127.545C471.027 124.761 471.126 122.002 470.707 119.218C470.609 118.947 470.559 118.651 470.485 118.38C470.362 117.69 470.215 116.976 470.018 116.286C469.821 115.301 469.574 114.34 469.303 113.379C469.106 111.211 468.515 109.166 467.654 107.195C467.432 106.086 467.235 104.978 466.521 104.042C463.196 96.8475 459.527 89.8753 453.445 84.5044C447.855 79.5771 441.847 75.2163 434.828 72.4816C431.923 71.3483 429.091 69.9687 426.037 69.2049C425.791 69.0817 425.569 68.9339 425.372 68.7614C424.486 67.6774 423.304 67.9731 422.171 68.0962C420.103 67.8499 418.01 67.7021 416.089 66.8644C414.882 66.347 413.626 66.5441 412.395 66.5441C410.203 66.6673 408.037 66.6919 405.87 66.5441C404.712 66.4948 403.555 66.5195 402.397 66.5195C401.609 66.5441 400.821 66.618 400.033 66.5195C398.999 66.4702 397.94 66.4456 396.931 66.8151C396.069 67.0122 395.207 67.0369 394.345 66.8644C393.163 66.4456 392.006 66.3717 390.947 67.1847C390.725 67.3325 390.479 67.4803 390.257 67.6035C389.248 68.1209 388.164 68.2933 387.105 68.6383C383.535 69.4266 380.112 70.6585 376.787 72.186C376.172 72.3584 375.482 72.3584 374.94 72.7773C374.62 72.999 374.276 73.1715 373.906 73.2946C373.291 73.4917 372.65 73.6888 372.084 74.0337C371.468 74.354 370.803 74.6004 370.089 74.6743C365.928 75.6351 361.618 75.9801 357.678 77.7293C349.306 81.4248 341.45 85.9334 335.368 92.9795C332.807 94.9751 331.354 97.833 329.655 100.469C325.247 106.554 322.194 113.305 319.83 120.376C318.475 124.441 317.835 128.728 316.481 132.793C315.619 133.926 315.643 135.257 315.693 136.587C315.767 137.671 315.693 138.755 315.323 139.79C314.708 140.726 314.388 141.736 314.511 142.869C314.511 146.392 314.511 149.94 314.511 153.463C314.462 154.646 315.151 155.631 315.471 156.74C315.914 158.859 315.767 160.977 315.717 163.121C315.471 164.574 316.062 165.856 316.579 167.137C318.475 174.208 320.224 181.328 323.425 187.955C324.188 189.63 324.853 191.355 325.863 192.932C327.759 197.859 331.083 201.85 334.235 205.989C335.565 207.714 337.289 209.315 337.437 211.73C335.22 213.43 332.462 213.331 329.926 213.873C328.399 214.218 326.823 214.316 325.321 214.834C322.859 215.671 321.135 217.199 320.273 219.761C317.392 228.236 315.077 236.835 313.427 245.63C311.851 254.007 310.448 262.408 309.118 270.858C308.551 274.554 308.872 278.299 308.157 281.994C307.96 283.053 308.01 284.162 307.197 285H287.719C286.98 284.359 285.995 283.94 285.847 282.782C285.65 280.664 284.394 279.087 283.163 277.51C282.621 276.697 282.35 275.786 282.178 274.825C281.735 273.618 281.316 272.41 280.307 271.523C279.863 271.228 279.469 270.883 279.174 270.439C279.026 270.218 278.928 269.971 278.854 269.725C278.681 268.961 278.558 268.197 277.746 267.803C276.761 267.064 276.219 266.005 275.529 265.019C274.791 262.556 272.673 261.25 271.023 259.525C270.555 259.057 270.112 258.589 269.644 258.121C268.856 257.234 267.994 256.446 267.132 255.657C260.163 249.621 252.677 244.398 244.132 240.752C243.862 240.629 243.615 240.481 243.369 240.308C235.809 236.687 227.929 234.1 219.631 232.72C217.513 232.375 215.444 231.685 213.351 231.217C212.317 230.355 210.84 230.552 209.781 229.764C208.032 226.733 208.993 223.457 208.919 220.279C208.993 219.367 208.968 218.455 209.584 217.692C212.637 216.14 216.011 215.942 219.31 215.721C225.787 215.327 232.189 214.44 238.641 213.848C241.67 213.577 244.699 213.331 247.752 213.183C250.609 213.035 251.052 212.173 250.683 209.438C249.599 201.678 248.688 193.892 247.703 186.132C246.743 178.544 245.905 170.955 244.847 163.392C244.206 158.834 243.665 154.252 243.172 149.694C243.197 148.856 243.172 148.018 243.172 147.181C243.172 145.21 242.557 143.337 242.138 141.44C241.005 132.473 239.799 123.529 238.789 114.537C238.346 113.034 238.666 111.309 237.533 109.979C236.622 108.846 235.366 108.821 234.11 108.944C231.918 109.191 229.727 109.338 227.56 109.856C227.264 109.954 226.969 110.004 226.649 110.053C224.211 110.151 221.773 110.546 219.409 109.708C207.072 96.5026 191.829 89.0376 174.001 86.3522C156.443 83.7161 140.092 86.9189 125.046 96.0099C111.872 103.968 102.662 115.424 98.2047 130.255C93.8215 144.816 95.102 159.154 101.135 173.074C103.647 178.889 107.193 184.062 110.862 189.162C111.354 191.33 109.606 191.897 108.252 192.784C107.784 193.079 107.119 193.4 107.414 194.114C107.661 194.73 108.326 194.705 108.917 194.73C110.763 194.804 112.241 193.079 114.211 193.597C115.491 193.966 116.452 194.853 117.314 195.765C120.638 199.288 124.529 202.097 128.764 204.437C129.109 204.634 129.331 204.979 129.528 205.324C131.03 210.005 130.39 214.834 130.488 219.613C130.587 223.974 130.66 224.196 134.97 223.9C142.086 223.383 149.228 222.89 156.295 221.831C159.053 221.412 161.762 221.658 164.495 221.609C166.342 221.239 168.189 221.018 170.036 220.648C172.055 220.55 172.794 221.683 172.818 223.506C172.818 224.664 172.819 225.822 172.843 226.98C172.942 228.212 172.942 229.444 172.4 230.601C171.587 231.956 170.331 232.745 168.755 232.72C166.736 232.72 164.963 233.681 163.018 233.903C161.934 233.804 160.974 234.075 160.087 234.691C154.128 236.514 148.317 238.707 142.776 241.639C141.889 242.058 140.904 242.255 140.166 242.92C125.095 250.927 112.857 261.767 105.321 277.387C104.607 278.865 103.671 280.245 103.204 281.822C103.204 283.3 102.317 284.211 101.16 284.951H0.738984C0.197234 283.94 0.468109 282.832 0.468109 281.772C0.468109 189.211 0.468109 96.6504 0.468109 4.08951C0.443484 0.0490488 0.000234301 0.44324 4.08798 0.44324C198.65 0.44324 393.188 0.44324 587.75 0.44324C588.809 0.44324 589.917 0.172234 590.951 0.714246V0.738883Z" fill="#6E48D0"/>
<path d="M269.939 257.776C270.751 257.727 271.145 258.072 271.072 258.91C272.549 261.004 274.667 262.581 275.947 264.798C277.597 264.896 276.637 267.138 278.065 267.409C279.05 268.075 278.755 269.06 278.681 269.972C278.681 270.341 278.681 270.735 278.631 271.105C278.828 270.735 278.878 270.267 279.346 270.07L280.429 270.957C281.414 271.918 280.651 274.061 282.719 274.308L283.507 277.166C283.458 278.2 282.719 278.595 281.882 278.89C281.71 280.639 283.113 280.418 284.147 280.664C285.28 280.812 285.723 281.773 286.314 282.536C286.314 283.522 287.792 283.744 287.546 284.877H101.061C101.184 283.596 102.538 282.758 102.39 281.354C102.957 280.738 103.72 280.59 104.483 280.541C105.222 280.541 105.936 280.541 106.626 280.763C107.586 281.132 108.448 280.763 108.965 280.048C109.556 279.235 108.423 279.753 108.276 279.432C107.463 279.013 106.552 279.531 105.739 279.186C105.025 278.718 105.074 277.831 104.68 277.19C105.789 272.928 108.522 269.577 110.96 266.104C115.417 259.797 121.007 254.5 127.188 249.942C131.128 247.035 134.969 243.733 139.87 242.378C140.51 241.664 141.716 242.107 142.258 241.171C143.366 239.348 145.459 239.151 147.159 238.461C151.32 236.761 155.309 234.519 159.914 234.125C160.604 233.435 161.737 233.755 162.426 233.066C165.43 231.784 168.829 232.08 171.784 230.7C171.907 230.799 172.005 230.897 172.128 230.971C172.99 232.548 172.793 234.347 173.039 236.022C173.409 238.56 174.615 240.038 176.979 240.752C182.003 242.674 187.15 243.339 192.493 242.255C193.724 242.009 194.931 241.491 196.236 241.59C196.975 241.565 197.689 241.541 198.428 241.59C199.339 241.639 200.25 241.738 201.013 241.073C201.235 240.925 201.457 240.826 201.703 240.728C202.319 240.531 202.959 240.506 203.599 240.481C204.486 240.531 205.249 240.309 205.692 239.446C206.382 238.535 207.416 238.141 208.352 237.549C209.657 236.613 210.002 235.307 210.002 233.78C210.002 232.573 209.78 231.242 210.913 230.306C211.725 229.961 212.489 230.06 213.227 230.577C218.67 231.021 223.865 232.4 229.086 233.952C233.814 235.332 238.345 237.057 242.901 238.904C243.541 239.175 243.91 239.348 243.91 240.038C242.925 241.146 241.522 240.383 240.389 240.802C241.546 240.407 242.925 241.146 243.935 240.062C247.407 240.136 250.091 242.403 252.775 244.004C257.799 247.01 262.625 250.484 267.058 254.376C267.304 254.598 267.378 255.042 267.526 255.362C267.649 256.84 268.486 257.604 269.939 257.752V257.776Z" fill="black"/>
<path d="M414.217 208.428C421.014 207.862 427.761 208.675 434.508 209.143C440.172 209.537 445.836 210.079 451.499 210.522C455.809 210.867 460.044 211.656 464.329 212.148C471.716 213.011 479.055 214.267 486.393 215.376C489.52 215.844 491.81 217.199 492.598 220.599C497.179 240.358 501.562 260.117 500.035 280.615C499.937 282.068 499.641 283.497 499.444 284.926H414.463C413.281 283.251 414.045 281.501 414.34 279.801C416.359 267.803 417.862 255.756 417.64 243.536C417.492 235.085 416.68 226.709 414.537 218.505C414.365 217.84 414.266 217.15 414.242 216.485C414.242 215.819 414.242 215.154 414.192 214.489C414.192 213.528 413.7 212.641 413.651 211.656C413.601 210.522 413.478 209.389 414.217 208.379V208.428Z" fill="#010101"/>
<path d="M307.049 284.951C307.394 274.48 308.822 264.157 310.866 253.884C312.467 245.877 313.624 237.771 315.914 229.912C317.071 225.896 318.032 221.806 319.682 217.988C321.282 214.292 325.075 213.454 328.694 213.085C331.6 212.765 334.407 211.976 337.239 211.434C338.126 210.966 338.791 211.533 339.283 212.075C341.352 214.415 343.322 213.578 345.439 212.149C347.409 210.818 348.936 208.699 351.645 208.626C359.747 207.96 367.848 207.246 375.95 206.827C378.388 206.704 380.85 206.408 383.239 207.197C384.618 208.059 384.642 209.266 384.175 210.621C381.515 213.43 380.53 217.051 379.496 220.624C377.083 229.173 376.245 237.993 375.95 246.788C375.58 258.244 375.408 269.725 377.871 281.058C378.166 282.413 378.314 283.793 377.255 284.951H307.024H307.049Z" fill="#010101"/>
<path d="M377.28 284.951C376.566 279.605 375.531 274.283 375.236 268.937C374.251 250.853 374.226 232.819 380.284 215.401C380.924 213.578 381.121 211.237 383.633 210.621C384.47 211.065 384.593 211.902 384.544 212.666C384.347 217.618 387.401 219.86 391.538 221.24C397.251 223.605 402.914 221.88 408.553 220.87C410.745 220.476 411.73 218.406 413.134 216.953C413.675 216.485 414.119 215.746 415.03 215.992C415.941 220.648 417.049 225.255 417.689 229.986C419.118 240.777 418.896 251.543 417.788 262.309C417.024 269.922 415.842 277.461 414.439 284.975H377.255L377.28 284.951Z" fill="#F9F3F0"/>
<path d="M590.951 0.738942C395.527 0.738942 200.078 0.738942 4.65445 0.738942C2.0442 0.738942 0.739074 2.02827 0.739074 4.60694C0.739074 98.0548 0.739074 191.503 0.739074 284.951C-0.492176 284.409 0.197324 283.349 0.197324 282.585C0.148074 264.502 0.172699 246.418 0.172699 228.335C0.148074 153.168 0.148074 77.9757 0.0988242 2.80844C0.0988242 0.59112 0.591324 0.0983815 2.80757 0.0983815C197.961 0.147655 393.138 0.147655 588.292 0.196929C589.153 0.196929 590.286 -0.492905 590.951 0.738942Z" fill="white"/>
<path d="M164.668 222.053C153.956 223.087 143.244 224.172 132.532 225.132C130.611 225.305 129.183 224.64 129.355 222.077C129.774 216.312 129.454 210.523 128.691 204.782C127.509 198.796 127.804 192.735 127.952 186.699C128.001 186.206 128.05 185.738 128.198 185.27C128.297 184.974 128.469 184.728 128.666 184.506C131.202 182.88 133.936 181.525 136.275 179.579C141.742 175.785 146.421 171.054 151.469 166.767C152.528 166.176 153.34 165.363 153.907 164.304C156.492 161.668 158.068 158.169 161.122 155.927C163.437 155.435 163.831 153.562 164.126 151.64C164.889 149.423 166.712 147.846 167.795 145.801C168.411 144.964 169.026 144.126 169.593 143.239C169.864 142.796 170.134 142.377 170.405 141.933C171.267 140.628 171.834 139.174 172.499 137.77C172.597 137.523 172.72 137.302 172.868 137.055C173.951 135.651 174.518 133.976 175.158 132.35C178.138 126.412 181.314 120.598 183.728 114.389C184.195 113.207 184.688 112.024 186.042 111.507C190.105 110.3 194.267 110.595 198.429 110.62C202.122 110.497 205.89 111.458 209.51 109.979C211.874 109.142 214.336 109.585 216.75 109.314C218.473 109.536 220.173 109.807 221.625 111.014C222.98 112.147 224.753 111.384 226.329 111.753C228.126 112.172 226.723 109.955 227.412 109.191V109.117C229.629 108.772 231.869 108.895 234.086 108.698C236.179 109.758 238.789 110.374 238.296 113.626C237.041 114.685 237.607 116.139 237.435 117.444C237.632 116.237 237.041 114.907 238.1 113.872C238.494 113.576 238.888 113.576 239.282 113.872C240.882 118.134 240.414 122.692 241.252 127.077C242.163 131.832 242.36 136.71 242.852 141.539C243.197 143.091 243.148 144.717 243.369 146.294C243.443 147.304 243.123 148.413 243.911 149.3C245.438 160.929 247.038 172.557 248.491 184.21C249.452 191.873 250.24 199.559 251.126 207.246C251.225 208.108 251.496 208.946 251.766 209.784C252.53 212.149 251.446 213.972 248.984 214.07C235.859 214.662 222.832 216.411 209.756 217.692C209.338 218.037 208.894 218.333 208.377 218.456C201.95 219.663 195.4 219.762 188.923 220.377C185.944 220.648 182.939 221.437 179.911 220.772C178.359 219.712 176.562 219.614 174.764 219.515C174.075 219.466 174.001 219.885 173.951 220.377C173.951 220.821 173.951 221.24 173.951 221.683C173.951 223.137 174.025 224.566 173.828 226.019C173.508 226.832 173.188 227.695 172.031 227.103C171.981 225.847 171.809 224.566 171.932 223.309C172.104 221.461 171.095 221.166 169.642 221.289C168.091 221.683 166.49 221.56 164.914 221.585C164.175 221.585 164.594 221.782 164.742 222.003L164.668 222.053Z" fill="#EBBBA2"/>
<path d="M413.922 217.125C411.705 220.993 408.209 222.225 403.949 222.644C399.664 223.063 395.478 223.95 391.39 221.93C391.858 220.451 393.237 220.279 394.394 219.885C400.009 217.889 403.21 213.602 405.451 208.379C406.14 206.803 405.894 205.965 403.875 206.261C398.211 207.098 392.547 207.049 386.884 206.31C386.293 206.236 385.628 206.088 385.184 206.532C383.731 207.985 383.239 206.384 382.426 205.743C381.171 204.585 379.176 204.782 378.092 203.304C377.871 202.787 377.871 202.245 377.871 201.678C377.748 202.171 377.477 202.516 377.083 202.762C374.571 203.304 372.527 201.9 370.434 200.988C367.528 199.707 364.573 198.352 362.579 195.667C362.505 195.174 362.579 194.706 362.8 194.262C363.703 192.423 363.178 191.183 361.224 190.542C360.683 190.37 360.091 190.247 359.55 190.049C358.121 189.507 358.121 189.483 358.639 187.487C357.358 189.286 357.358 189.31 358.959 190.049C359.476 190.296 360.018 190.518 360.535 190.764C362.431 191.651 362.874 192.76 361.077 194.213C360.83 194.361 360.559 194.41 360.264 194.41C358.885 193.991 358.072 192.686 356.792 192.094C348.198 185.467 342.509 176.746 338.643 166.743C338.323 165.93 337.954 165.117 337.658 164.304C337.338 163.195 336.895 162.136 336.599 161.027C336.476 160.461 336.452 159.869 336.599 159.303C337.387 158.12 337.289 156.617 338.101 155.459C338.422 155.139 338.766 154.819 338.84 154.301C338.766 154.843 338.372 155.188 338.003 155.508C337.239 155.952 336.525 155.853 335.811 155.361C335.491 154.966 335.343 154.498 335.319 154.006C335.491 151 334.949 147.994 335.097 144.964C335.245 141.958 334.826 138.928 335.959 135.996C336.328 135.035 336.279 133.877 335.54 132.941C334.58 130.453 335.811 128.211 336.255 125.87C336.328 125.254 336.378 124.638 336.599 124.047C338.003 121.041 338.865 117.789 340.564 114.882C341.303 114.217 341.721 113.379 341.894 112.394C343.149 110.226 343.79 107.59 346.277 106.309C347.557 106.53 347.73 105.964 347.286 104.904C347.508 102.835 348.986 101.677 350.438 100.494C351.571 99.9029 353.492 100.494 353.615 98.4001C356.521 97.9566 357.678 100.297 359.279 101.972C360.239 102.687 361.224 103.377 362.357 103.796C365.78 106.284 369.621 108.156 372.773 111.039C373.364 111.876 374.276 111.926 375.162 112.098C375.827 112.271 376.319 112.69 376.664 113.305C377.034 114.365 377.945 114.291 378.831 114.316C380.998 114.587 382.845 115.597 384.47 117.001C385.455 118.085 386.366 119.268 388.09 119.021C391.39 119.44 393.951 121.608 396.931 122.766C397.694 123.234 398.408 123.801 399.319 124.022C399.565 124.121 399.787 124.244 399.984 124.367C400.698 125.008 401.585 124.934 402.446 124.959C403.998 125.008 405.254 125.846 406.608 126.462C407.174 126.806 407.618 127.299 408.135 127.693C408.775 128.433 409.612 128.506 410.499 128.457C411.164 128.457 411.804 128.457 412.469 128.506C412.863 128.556 413.257 128.654 413.602 128.802C414.34 129.27 415.079 129.738 415.941 129.96C416.187 130.059 416.384 130.182 416.606 130.305C417.566 131.093 418.748 130.748 419.832 130.921C420.226 130.97 420.595 131.093 420.94 131.266C421.654 131.832 422.491 132.079 423.402 132.005C424.043 132.005 424.708 132.079 425.323 132.325C426.087 132.744 426.801 133.261 427.663 133.483C427.884 133.582 428.106 133.705 428.327 133.828C428.918 134.37 429.657 134.395 430.396 134.419C431.036 134.419 431.676 134.469 432.292 134.641C432.538 134.715 432.76 134.838 432.982 134.961C433.696 135.602 434.582 135.577 435.469 135.553C436.133 135.553 436.823 135.553 437.488 135.553C438.202 135.553 438.892 135.626 439.556 135.897C440.369 136.366 441.157 136.883 442.167 136.76C442.881 136.76 443.57 136.834 444.26 137.031C444.531 137.129 444.801 137.253 445.048 137.4C446.574 138.312 448.274 137.745 449.874 137.868C451.894 137.721 453.937 137.671 455.957 137.77C457.213 137.844 458.493 137.942 459.183 139.273C459.995 141.736 459.183 144.151 458.838 146.541C457.927 153.34 456.917 160.14 455.858 166.915C454.676 174.356 450.515 179.406 443.767 182.437C441.182 183.619 438.547 184.703 435.863 185.689C433.228 186.65 430.815 187.241 427.933 186.058C425.397 185.048 422.738 186.157 420.398 187.61C418.428 189.113 419.512 191.084 419.561 192.883C419.709 193.967 419.339 195.026 419.339 196.11C419.388 198.598 420.103 199.091 422.59 198.327C423.796 198.327 424.929 198.401 424.486 200.126C421.703 202.245 418.551 203.353 415.079 203.624C414.71 203.871 414.316 203.969 413.873 203.822C413.626 203.674 413.429 203.477 413.306 203.206C413.06 202.516 413.158 201.875 413.626 201.309C413.676 201.136 413.799 201.062 413.996 201.087C413.675 200.914 413.749 201.358 413.528 201.382C413.183 201.58 412.814 201.58 412.444 201.506C411.484 201.111 411.065 201.506 411.016 202.491C411.016 202.959 410.622 203.723 411.681 203.23C412.124 203.181 412.493 203.279 412.814 203.575C413.823 205.004 412.42 206.901 413.749 208.256C413.873 208.281 413.971 208.33 414.069 208.404C414.069 209.513 414.119 210.621 414.143 211.73C413.872 212.937 414.562 214.144 414.266 215.352C414.069 215.918 414.119 216.559 413.774 217.101L413.922 217.125Z" fill="#EC9E75"/>
<path d="M384.347 117.543C382.377 116.779 380.801 115.153 378.536 115.104C377.92 114.34 376.689 114.784 376.147 113.897C376.098 113.157 375.655 112.813 374.941 112.788C374.35 111.975 373.192 112.394 372.577 111.655L362.012 104.461C361.397 103.204 360.436 102.588 359.033 102.761C357.26 101.381 356.25 99.0405 353.738 98.6217C353.468 98.5232 353.221 98.3753 353.024 98.2029C351.867 96.6508 349.774 95.8377 349.454 93.645C349.38 92.6103 349.355 91.6002 349.626 90.5901C350.217 88.7669 351.374 87.2887 352.729 86.0076C356.989 81.9425 361.372 78.0499 366.691 75.2905C367.849 74.6992 369.055 74.4282 370.213 73.9355L371.961 73.221C372.552 72.95 373.365 73.5659 373.808 72.7529L374.473 72.1124C375.064 71.9645 375.753 72.2109 376.172 71.5457C379.644 69.7965 383.19 68.2936 387.13 67.9241C388.164 67.3821 389.592 68.0965 390.405 66.8647L390.307 66.7415C391.439 66.2488 392.621 66.1256 393.828 66.0517L396.758 66.1502C397.743 65.83 398.876 66.6183 399.763 65.6821H402.102C403.284 66.4212 404.466 66.4212 405.648 65.6821H412.715C412.912 65.83 413.109 65.9531 413.331 66.0763C414.193 66.2734 415.055 66.1749 415.917 66.1749H416.286L422.713 67.3821C423.033 67.5792 423.427 67.6038 423.747 67.8009C424.338 68.269 425.052 68.3676 425.767 68.4907C433.474 70.0921 440.443 73.5413 446.796 78.0006C452.386 81.9179 457.754 86.3279 461.202 92.4378C463.295 96.158 466.398 99.3855 467.137 103.82C467.801 104.732 467.407 106.013 468.22 106.875C469.698 108.797 470.19 110.989 469.944 113.355C469.993 114.389 469.747 115.473 470.732 116.262C471.544 116.705 471.15 117.42 471.126 118.06C471.126 121.411 471.495 124.761 470.978 128.112C470.806 129.172 471.15 130.256 470.683 131.29C470.707 132.818 470.732 134.345 470.165 135.774C470.165 136.809 469.919 137.794 469.451 138.706L469.353 138.607C468.663 139.519 467.826 139.371 466.915 138.977L466.767 138.903C466.767 138.903 466.792 139.076 466.816 139.174C466.816 139.42 466.693 139.618 466.521 139.79C466.349 139.815 466.176 139.839 466.004 139.864C465.24 140.554 464.354 140.726 463.369 140.652C461.941 140.332 460.414 140.603 459.06 139.889C458.666 138.706 457.681 138.755 456.696 138.755C454.282 138.755 451.894 138.681 449.48 138.657C448.101 137.277 446.058 138.878 444.654 137.573L444.703 137.499C443.915 136.71 442.906 137.006 441.97 136.932C441.256 136.932 440.517 136.932 439.926 136.415L437.636 136.292C436.823 135.552 435.814 135.823 434.878 135.774C434.164 135.774 433.425 135.774 432.859 135.208V135.158C432.095 134.395 431.086 134.666 430.15 134.592C429.436 134.592 428.697 134.592 428.155 134.025V133.976C427.54 133.237 426.407 133.606 425.767 132.892L423.476 132.818C422.861 132.054 421.703 132.424 421.063 131.734L419.93 131.66C418.97 130.576 417.345 131.561 416.384 130.502C415.769 129.714 414.611 130.083 413.947 129.369L412.838 129.295C412.149 128.506 411.189 128.777 410.327 128.703C409.933 128.703 409.539 128.629 409.194 128.432C408.628 127.619 407.593 127.57 406.904 126.979C405.155 127.324 404.023 125.377 402.25 125.722C401.634 124.959 400.452 125.377 399.836 124.589C399.221 123.776 398.063 124.195 397.448 123.431C394.788 123.308 392.818 121.436 390.479 120.499C389.666 120.154 388.903 119.933 388.066 119.834C386.884 119.046 385.726 118.233 384.446 117.568L384.347 117.543Z" fill="black"/>
<path d="M217.389 109.979C214.878 110.866 212.218 110.127 209.657 110.669C207.219 111.851 204.609 111.063 202.097 111.285C200.841 111.408 199.536 111.014 198.33 111.556C194.045 111.482 189.76 111.679 185.5 112.27C179.984 113.182 174.394 113.157 168.829 113.675C166.391 113.896 163.953 113.896 161.515 114.241C159.865 114.167 158.216 114.192 156.566 114.241C153.832 114.34 152.601 115.769 151.788 118.43C147.651 131.857 141.594 144.495 135.019 156.888C133 160.707 130.808 164.402 128.419 167.999C127.828 168.911 127.484 170.29 125.883 169.995C124.282 166.989 124.701 163.688 124.381 160.485C124.11 158.243 125.193 155.878 123.79 153.734C120.81 154.868 118.101 156.395 115.713 158.489C109.236 164.106 110.936 170.98 118.101 174.823C119.136 175.365 120.367 175.489 121.278 176.302C122.041 177.534 121.401 178.519 120.712 179.505C119.554 181.18 118.175 182.707 116.944 184.333C114.777 186.058 113.546 188.916 110.542 189.606C105.173 183.964 101.553 177.238 98.7954 170.093C94.9046 159.992 93.7965 149.423 95.2248 138.73C96.2344 131.191 98.8693 124.096 102.662 117.444C107.71 108.575 114.703 101.43 123.125 95.9607C129.823 91.5999 137.21 88.4218 145.189 86.7465C151.542 85.4161 157.895 84.2089 164.372 84.5045C179.984 85.219 194.537 89.3333 207.515 98.3997C211.085 100.888 214.41 103.623 217.685 106.431C218.522 107.146 219.359 107.86 219.039 109.141C218.768 110.028 218.153 110.176 217.365 109.954L217.389 109.979Z" fill="#251A16"/>
<path d="M350.118 93.9405C350.783 95.739 352.901 96.3056 353.664 98.0302C353.245 99.5331 352.137 100.395 350.783 100.987C349.798 102.342 348.246 103.303 347.705 105.002C347.557 105.766 347.261 106.456 346.498 106.826C344.602 108.427 343.789 110.768 342.46 112.738C342.041 113.527 341.992 114.512 341.204 115.104C339.677 118.011 339.037 121.312 337.214 124.071C337.042 123.973 336.919 123.825 336.796 123.702C336.353 123.258 336.697 123.874 336.574 123.874C336.574 124.54 336.574 125.205 337.067 125.747C337.017 128.161 335.515 130.329 335.885 132.818C335.934 136.833 335.121 140.8 335.368 144.816C335.54 147.92 335.294 151.049 335.983 154.104L336.057 155.237C336.353 155.607 336.402 156.001 336.279 156.42C334.481 158.169 334.186 160.115 335.688 162.185C336.451 163.244 336.328 164.624 336.993 165.683C336.894 165.609 336.87 165.535 336.796 165.461C336.525 164.796 336.55 164.18 336.919 163.589C337.633 163.047 337.953 163.589 338.273 164.106C341.031 171.695 345.144 178.494 350.167 184.801C352.26 187.413 354.944 189.384 357.235 191.774C358.195 192.587 359.032 193.622 360.239 194.114C360.411 194.114 360.584 194.114 360.756 194.114C361.716 193.966 362.061 194.533 362.184 195.371C360.854 198.426 359.008 201.136 356.668 203.501C354.674 205.496 352.827 207.64 350.684 209.488C348.911 209.759 348 211.311 346.72 212.272C342.558 215.425 341.942 215.474 338.249 212.124C337.978 211.877 337.608 211.705 337.288 211.483C333.201 206.186 328.891 201.062 325.665 195.149C325.37 194.582 325.394 193.843 325.296 193.203C325.074 191.774 323.277 190 326.158 189.236C326.503 189.409 326.084 189.187 326.379 189.409C327.094 189.926 327.758 190.296 328.202 189.211C328.251 189.064 328.005 189.31 327.955 189.384C327.561 189.754 327.167 189.901 326.675 189.606C325.953 188.752 324.713 188.341 322.957 188.374C321.085 188.3 321.43 186.304 321.184 185.541C319.14 179.455 316.751 173.468 315.865 167.038C315.323 165.954 315.618 164.599 314.904 163.564L314.732 156.568C313.624 151.96 314.461 147.279 314.19 142.648C314.215 141.736 314.092 140.775 314.683 139.962L314.855 136.464C315.791 135.429 314.929 133.852 315.914 132.818C316.529 128.334 317.859 124.022 319.214 119.686C321.011 113.995 323.498 108.698 326.478 103.524C327.241 102.218 328.448 101.282 329.014 99.878C329.384 99.4838 329.876 99.5577 330.369 99.5331C334.259 99.4099 335.417 97.9317 334.629 94.0883C334.53 93.5956 334.456 93.1521 334.826 92.7333C338.47 87.6581 343.469 84.1843 348.739 81.0307C352.827 78.5917 357.161 76.4236 361.766 75.4628C364.499 74.8961 367.232 73.5411 370.212 74.0092C364.45 77.3598 358.934 81.08 354.132 85.761C352.654 87.2146 351.423 88.816 350.192 90.4667C349.404 91.6493 349.281 92.8072 350.167 93.9898L350.118 93.9405Z" fill="#393939"/>
<path d="M178.975 220.107C188.16 219.762 197.296 218.825 206.407 217.791C207.072 217.717 207.786 217.791 208.475 217.791C209.288 218.357 208.894 219.491 209.584 220.107C210.076 223.211 209.14 226.438 210.273 229.518C210.618 229.937 210.618 230.38 210.445 230.848C209.879 233.386 211.061 236.367 208.525 238.412C207.884 239.225 206.481 238.954 206.111 240.136C205.57 240.752 204.856 240.728 204.117 240.752C203.181 240.826 202.171 240.531 201.359 241.294V241.368C200.719 242.107 199.61 241.787 198.896 242.452H196.655C196.138 241.935 195.498 241.639 194.809 241.417C193.971 241.097 193.085 240.9 192.248 240.555C186.535 238.338 181.88 234.766 178.458 229.666C177.349 227.719 176.635 225.601 175.773 223.556C175.232 220.378 175.675 219.885 178.925 220.131L178.975 220.107Z" fill="#CD9579"/>
<path d="M458.961 139.913C460.241 139.445 461.546 139.371 462.827 139.913C463.664 140.554 464.107 141.391 463.96 142.475C463.64 146.516 463.492 150.605 462.556 154.572C462.384 156.518 462.285 158.489 461.054 160.165C459.995 164.402 459.847 168.837 458.394 172.976C456.227 179.135 451.524 182.855 445.983 185.738C444.949 186.28 443.866 186.723 442.807 187.216C442.216 187.856 441.649 188.522 440.812 188.842C436.946 190.468 432.932 191.7 429.682 194.607C428.253 195.888 426.086 196.036 424.092 196.134C420.423 195.79 419.339 194.681 419.191 191.109C419.142 190.049 419.118 188.99 419.265 187.93C419.388 187.61 419.561 187.314 419.782 187.068C423.107 184.752 426.579 183.717 430.347 185.984C431.061 186.403 431.578 186.28 432.243 186.033C436.183 184.58 440.123 183.175 443.964 181.402C450.687 178.297 454.307 173.099 455.218 165.782C456.326 157.134 457.656 148.536 458.912 139.913H458.961Z" fill="#EC9E75"/>
<path d="M128.739 186.009C128.961 191.33 128.542 196.701 129.281 202.023C129.404 202.984 129.38 203.969 128.69 204.782C126.966 205.004 125.907 203.797 124.627 202.984C120.638 200.471 117.584 196.874 113.915 193.991C113.964 192.685 114.999 192.193 115.934 191.724C119.406 190 122.854 188.177 126.178 186.132C126.942 185.664 127.853 184.949 128.764 185.984L128.739 186.009Z" fill="#271B18"/>
<path d="M128.739 186.009C125.908 186.625 123.839 188.694 121.352 189.951C118.84 191.232 116.378 192.636 113.915 193.991C112.241 193.844 111.206 195.42 109.606 195.568C108.202 195.691 106.651 195.814 106.035 194.484C105.272 192.858 107.045 192.415 108.054 191.873C109.113 191.306 109.951 190.616 110.566 189.606C112.487 187.734 114.432 185.861 116.353 183.964C117.781 185.221 118.594 184.358 119.333 183.151C120.416 181.353 121.918 180.244 124.135 180.441C125.046 180.515 125.932 180.712 126.252 181.698C126.597 182.782 126.154 183.595 125.193 184.161C124.356 184.654 123.47 185.097 122.756 186.009C124.996 186.206 126.449 183.028 128.838 184.728L128.739 186.009Z" fill="black"/>
<path d="M463.369 142.18L462.827 139.913C463.861 139.913 464.896 139.913 465.905 139.889C467.555 141.958 469.944 143.338 470.83 146.196C472.111 150.409 470.806 154.991 466.94 157.578C465.831 158.416 463.985 158.095 463.467 159.82L462.31 159.943C461.054 158.416 462.285 156.716 462.015 155.139C461.941 153.833 462.803 153.02 463.615 152.183C464.994 150.754 465.314 149.152 464.157 147.452C463.049 145.802 463 144.028 463.394 142.18H463.369Z" fill="#EC9E75"/>
<path d="M424.486 195.42C427.244 194.853 429.633 193.966 431.898 191.848C434.213 189.655 437.833 189.138 441.009 188.177C441.354 188.596 441.403 189.014 441.108 189.483C437.389 193.375 432.957 196.307 428.229 198.771C427.441 199.189 426.801 200.2 425.693 199.978C425.175 198.032 423.23 198.549 421.999 197.81C421.728 197.416 421.654 196.997 421.753 196.529C422.245 195.075 423.673 195.987 424.511 195.445L424.486 195.42Z" fill="#EA9E77"/>
<path d="M334.777 92.6841C336.747 94.926 335.91 97.168 334.58 99.2621C333.004 101.701 330.936 100.445 328.966 99.8288C330.714 97.2912 331.945 94.3348 334.777 92.7087V92.6841Z" fill="#393939"/>
<path d="M217.39 109.979L219.064 109.166C221.822 109.166 224.58 109.215 227.363 109.215C227.314 110.595 228.939 110.102 229.481 111.162C228.446 111.654 227.338 112.024 226.575 112.911C226.009 113.601 225.344 114.044 224.974 112.664C224.9 112.418 224.556 111.999 224.531 111.999C221.354 114.019 220.049 109.634 217.365 109.954L217.39 109.979Z" fill="#EBBAA5"/>
<path d="M171.981 227.153C172.719 227.103 173.064 226.685 173.089 225.97C173.458 225.625 173.877 225.601 174.32 225.773C175.133 226.463 175.6 227.374 176.093 228.286C176.462 229.518 177.718 230.577 176.733 232.031C176.093 232.524 175.403 232.573 174.665 232.351C173.951 232.129 173.704 231.193 172.867 231.144C172.498 231.144 172.178 230.996 171.907 230.774H171.857C171.907 229.567 171.931 228.36 171.981 227.153V227.153Z" fill="#EAB7A8"/>
<path d="M326.527 189.433C323.72 189.852 326.059 192.02 325.271 193.153C323.621 191.971 322.932 190.295 322.907 188.324C323.104 188.275 323.277 188.177 323.474 188.177C324.582 188.103 323.646 185.836 325.197 186.477C326.379 186.969 326.724 188.177 326.552 189.458L326.527 189.433Z" fill="#393939"/>
<path d="M281.685 277.88C282.621 278.545 282.966 277.535 283.557 277.215C285.699 278.373 286.118 280.442 286.364 282.61C285.601 282.216 284.837 281.822 284.049 281.428C283.04 280.393 280.873 280.122 281.685 277.88V277.88Z" fill="black"/>
<path d="M238.001 113.946C238.149 111.384 235.563 110.891 234.455 109.289C235.637 108.205 236.844 108.846 238.05 109.289C239.651 110.521 239.208 112.295 239.208 113.921C238.814 113.921 238.395 113.946 238.001 113.97V113.946Z" fill="#E7BBA1"/>
<path d="M314.658 142.229C314.658 146.984 314.658 151.739 314.658 156.494C314.042 155.779 313.599 154.991 313.648 154.005C314.092 150.211 313.648 146.393 313.87 142.598C313.993 142.204 314.264 142.081 314.658 142.229Z" fill="#393939"/>
<path d="M238.05 109.265C236.843 109.265 235.661 109.265 234.455 109.265C232.091 109.216 229.727 109.166 227.338 109.117C230.909 108.674 234.504 106.949 238.05 109.24V109.265Z" fill="#E4B4D4"/>
<path d="M104.706 277.239C105.814 277.387 105.789 278.225 105.789 279.038C106.676 280.467 105.149 280.688 104.582 281.378C103.844 281.378 103.105 281.378 102.366 281.378C103.105 279.974 103.203 278.2 104.681 277.19L104.706 277.239Z" fill="black"/>
<path d="M275.972 264.822C273.953 263.172 272.032 261.447 271.097 258.934C273.313 260.412 275.357 262.038 275.972 264.822Z" fill="black"/>
<path d="M282.744 274.332C281.021 275.539 280.257 275.145 280.479 273.002C280.553 272.336 280.479 271.647 280.479 270.981C282.03 271.573 282.153 273.125 282.769 274.332H282.744Z" fill="black"/>
<path d="M269.939 257.776C269.004 257.579 268.462 259.377 267.206 258.121C265.926 256.864 267.723 256.322 267.526 255.386C268.782 255.707 269.57 256.544 269.939 257.776Z" fill="black"/>
<path d="M314.117 142.426C313.87 146.269 314.658 150.162 313.673 154.005C313.673 150.137 313.624 146.245 313.624 142.377C313.821 142.106 313.993 142.13 314.141 142.426H314.117Z" fill="#393939"/>
<path d="M470.584 128.137C470.732 124.786 469.993 121.386 471.027 118.06C471.101 118.233 471.15 118.43 471.15 118.602C471.544 121.756 471.593 124.909 471.15 128.063V128.161C470.928 128.383 470.756 128.383 470.584 128.137V128.137Z" fill="black"/>
<path d="M471.15 128.063C471.15 124.909 471.15 121.756 471.15 118.602C472.062 121.756 472.062 124.909 471.15 128.063V128.063Z" fill="black"/>
<path d="M422.147 197.687C423.698 197.859 426.013 196.874 425.668 199.953L424.609 200.126C424.338 198.648 423.181 198.869 422.147 198.845L421.901 198.598C421.802 198.253 421.851 197.933 422.147 197.662V197.687Z" fill="#EB9D70"/>
<path d="M463.443 159.82C463.172 156.839 465.364 157.726 466.94 157.578C466.225 159.032 464.723 159.229 463.443 159.82Z" fill="#E69A7B"/>
<path d="M413.897 208.256C411.508 207.196 413.207 205.102 412.69 203.575C413.084 203.254 413.478 203.23 413.872 203.575C414.389 204.191 414.266 204.831 413.946 205.472L413.897 208.256V208.256Z" fill="#EBA071"/>
<path d="M462.285 154.695C462.285 156.445 462.285 158.194 462.285 159.943C461.867 160.017 461.448 160.091 461.029 160.19C461.3 158.342 461.596 156.469 461.867 154.622L462.261 154.72L462.285 154.695Z" fill="#E69A7B"/>
<path d="M164.668 222.053L163.092 221.659V221.338C165.259 221.338 167.426 221.338 169.593 221.338C168.017 222.004 166.367 222.176 164.668 222.053V222.053Z" fill="#E3B6D1"/>
<path d="M279.395 270.095C279.395 270.366 279.395 270.661 279.322 270.932C279.149 271.671 279.691 273.026 278.435 272.903C277.425 272.805 278.312 271.671 278.14 271.031C278.041 270.587 278.14 270.095 278.14 269.626C278.534 269.306 278.928 269.257 279.297 269.7C279.395 269.824 279.42 269.971 279.395 270.119V270.095Z" fill="black"/>
<path d="M242.778 146.935C242.778 145.161 242.778 143.362 242.778 141.588C243.492 143.313 243.886 145.087 243.738 146.959C243.393 147.329 243.073 147.329 242.753 146.935H242.778Z" fill="#CC9EBA"/>
<path d="M405.623 65.6821C404.441 67.3574 403.259 67.3821 402.077 65.6821H405.623Z" fill="black"/>
<path d="M315.864 132.744C315.766 134.025 316.628 135.602 314.806 136.39C314.904 135.109 314.018 133.532 315.864 132.744Z" fill="#393939"/>
<path d="M314.856 163.491C316.678 164.23 315.668 165.757 315.816 166.965C314.831 166.004 314.585 164.796 314.856 163.491Z" fill="#393939"/>
<path d="M210.272 230.675C210.272 230.281 210.272 229.887 210.272 229.518C211.331 229.715 212.686 229.148 213.277 230.651L210.913 230.774C210.666 230.947 210.469 230.897 210.272 230.675V230.675Z" fill="#CE746C"/>
<path d="M393.778 66.0516C392.744 67.0124 391.488 66.8153 390.257 66.7414C391.291 65.8298 392.375 65.0661 393.778 66.0516Z" fill="#906AAB"/>
<path d="M399.738 65.6822C399.024 67.6532 397.817 66.5199 396.733 66.1503C397.62 65.1895 398.728 65.7068 399.738 65.6822Z" fill="black"/>
<path d="M376.122 71.5458C375.95 72.211 376.516 73.2457 375.556 73.4675C374.792 73.6399 375.038 72.3835 374.423 72.1124C374.694 71.0531 375.531 71.6443 376.122 71.5458Z" fill="black"/>
<path d="M373.758 72.7528C373.684 73.3934 374.004 74.3788 373.364 74.6006C372.355 74.9701 372.675 73.418 371.887 73.2209C372.33 72.4079 373.069 72.6789 373.734 72.7528H373.758Z" fill="black"/>
<path d="M468.146 106.875C466.323 106.357 467.21 104.904 467.062 103.82C468.343 104.51 468.343 105.668 468.146 106.875Z" fill="black"/>
<path d="M470.633 116.262C468.663 115.744 469.229 114.562 469.845 113.354C470.682 114.168 470.559 115.227 470.633 116.262Z" fill="black"/>
<path d="M242.778 146.935C243.098 146.935 243.443 146.935 243.763 146.959C243.788 147.748 243.812 148.561 243.861 149.349C242.359 149.053 242.827 147.895 242.778 146.935V146.935Z" fill="#DFB3AB"/>
<path d="M314.116 142.426L313.87 142.352H313.624C313.673 141.416 313.131 140.234 314.658 139.889L314.707 142.229L314.141 142.426H314.116Z" fill="#393939"/>
<path d="M142.308 241.245C142.16 242.945 140.879 242.378 139.919 242.452C140.116 240.85 141.396 241.442 142.308 241.245Z" fill="black"/>
<path d="M441.107 189.458L441.009 188.152L442.806 187.216C442.634 188.251 442.437 189.285 441.107 189.433V189.458Z" fill="#CA8C8A"/>
<path d="M162.476 233.139C162.106 234.593 160.973 234.248 159.964 234.199C160.333 232.77 161.441 233.065 162.476 233.139Z" fill="black"/>
<path d="M425.717 68.4906C424.732 69.3775 423.845 69.5746 423.328 68.0225C424.092 67.308 424.855 67.5051 425.643 67.9978C425.692 68.1703 425.717 68.3181 425.717 68.4906V68.4906Z" fill="black"/>
<path d="M209.584 220.106C208.18 219.835 208.574 218.702 208.476 217.79C208.894 217.79 209.288 217.766 209.707 217.741L209.584 220.106Z" fill="#C28B8B"/>
<path d="M469.328 138.731C469.303 137.696 469.279 136.636 470.042 135.799C471.027 137.08 470.165 137.893 469.328 138.731Z" fill="black"/>
<path d="M279.297 269.676L278.14 269.602C278.682 268.863 278.14 268.148 278.115 267.409C279.765 267.508 279.297 268.69 279.297 269.676Z" fill="black"/>
<path d="M425.618 67.9979H423.303L422.663 67.382C423.845 66.6675 424.83 66.84 425.618 67.9979Z" fill="#936AAB"/>
<path d="M390.355 66.8892C389.715 68.6384 388.262 67.85 387.08 67.9485C388.164 67.6036 389.272 67.2587 390.355 66.8892Z" fill="black"/>
<path d="M466.595 139.272C467.26 138.139 468.368 138.927 469.254 138.632L468.786 139.346C468.048 139.667 467.309 139.839 466.619 139.248L466.595 139.272Z" fill="black"/>
<path d="M412.912 66.1993C412.838 66.0269 412.764 65.8298 412.69 65.6573C413.897 65.608 415.178 65.1399 416.261 66.15V66.224C415.153 66.5689 414.045 66.6428 412.912 66.1993V66.1993Z" fill="black"/>
<path d="M413.946 205.472L413.872 203.575C414.315 203.575 414.759 203.624 415.202 203.649C415.079 204.462 414.537 204.979 413.946 205.472Z" fill="#ED9C7C"/>
<path d="M466.594 139.272C467.333 139.297 468.047 139.322 468.761 139.371C468.121 140.184 467.234 139.888 466.422 139.839C466.471 139.642 466.545 139.47 466.594 139.272Z" fill="black"/>
<path d="M470.584 128.137C470.756 128.112 470.953 128.137 471.126 128.161C471.027 129.221 471.347 130.329 470.584 131.29C470.584 130.231 470.584 129.196 470.584 128.137Z" fill="black"/>
<path d="M171.883 230.774L173.065 230.7C173.927 231.513 173.754 232.622 173.877 233.657C173.951 234.297 174.099 234.79 174.887 234.691C175.724 234.494 176.562 234.445 177.399 234.174C179.172 233.558 179.664 234.445 179.418 236.046C179.369 236.243 179.246 236.342 179.024 236.391C179.393 236.687 179.32 236.071 179.59 236.12C181.093 235.849 182.127 235.677 182.964 237.697C183.457 238.88 185.968 239.151 187.741 239.225C189.416 239.298 191.041 239.545 192.617 240.112L195.474 240.777C193.627 243.782 190.401 243.142 187.938 242.871C184.146 242.477 180.428 241.146 176.512 241.343C173.016 240.506 172.326 239.446 171.957 234.223C171.883 233.065 171.907 231.932 171.907 230.774H171.883Z" fill="#EBBAA4"/>
<path d="M176.488 241.368C180.428 239.496 183.974 241.541 187.741 242.156C190.056 242.526 193.134 242.649 195.449 240.801C196.237 241.048 196.68 241.565 196.655 242.403C190.819 243.782 184.959 244.374 179.073 242.575C178.137 242.28 177.177 242.132 176.463 241.393L176.488 241.368Z" fill="#EBBB9E"/>
<path d="M212.686 237.722C213.745 240.062 213.006 241.368 211.405 242.28C210.888 242.575 210.075 242.501 209.928 241.836C209.484 239.742 211.504 239.249 212.686 237.722V237.722Z" fill="black"/>
<path d="M130.143 249.917C130.323 252.956 129.363 254.278 127.262 253.884C128.345 252.602 128.05 250.484 130.143 249.917Z" fill="black"/>
<path d="M210.273 230.676C210.494 230.7 210.691 230.75 210.913 230.774C210.839 232.597 210.913 234.445 210.593 236.219C210.42 237.131 209.755 238.19 208.549 238.412C210.1 236.047 209.164 233.139 210.273 230.7V230.676Z" fill="#E48B65"/>
<path d="M108.153 279.038C109.188 279.161 110.271 278.742 111.527 279.58C110.197 280.344 109.04 281.034 108.055 282.019C107.365 282.709 107.095 282.019 106.971 281.403C106.257 280.073 107.193 279.555 108.153 279.038Z" fill="black"/>
<path d="M281.686 277.88C281.858 279.457 283.877 279.826 284.05 281.428C282.424 281.625 281.267 280.91 280.651 279.481C280.282 278.644 280.701 278.003 281.686 277.88V277.88Z" fill="black"/>
<path d="M108.153 279.038L106.971 281.403H104.607C105.001 280.614 105.395 279.826 105.814 279.038C106.602 279.728 107.39 276.697 108.178 279.038H108.153Z" fill="black"/>
<path d="M243.96 240.111C242.532 241.59 241.251 241.737 238.395 240.111C240.241 240.111 242.088 240.111 243.935 240.111H243.96Z" fill="black"/>
<path d="M277.278 274.061C278.312 274.652 278.706 275.268 278.041 276.081C277.893 276.254 277.401 276.402 277.352 276.328C276.785 275.687 276.859 274.948 277.302 274.061H277.278Z" fill="black"/>
<path d="M111.699 275.441C111.552 275.958 111.552 276.476 111.034 276.303C110.813 276.229 110.64 275.737 110.616 275.416C110.591 275.072 110.69 274.554 111.207 274.727C111.453 274.801 111.601 275.244 111.699 275.441Z" fill="black"/>
<path d="M275.775 269.725C275.923 269.208 275.948 268.69 276.44 268.863C276.662 268.937 276.834 269.43 276.859 269.75C276.884 270.095 276.785 270.612 276.268 270.44C276.022 270.366 275.899 269.922 275.775 269.725Z" fill="black"/>
<path d="M121.451 257.013C122.165 256.963 122.263 257.407 122.214 257.752C122.189 258.072 121.992 258.565 121.771 258.639C121.254 258.811 121.18 258.294 121.18 257.924C121.18 257.604 121.352 257.284 121.426 257.013H121.451Z" fill="black"/>
<path d="M260.089 251.592C259.794 251.666 259.474 251.839 259.153 251.839C258.809 251.839 258.292 251.74 258.464 251.247C258.538 251.026 259.03 250.853 259.35 250.829C259.695 250.804 260.114 250.902 260.089 251.592Z" fill="black"/>
<path d="M198.921 242.403C199.29 240.974 200.423 241.343 201.408 241.319C201.113 242.895 199.906 242.378 198.921 242.403Z" fill="#E97045"/>
<path d="M203.797 240.185C204.56 240.161 205.323 240.136 206.111 240.111C205.89 241.688 204.683 241.22 203.723 241.269C203.403 240.875 203.403 240.53 203.797 240.185Z" fill="#EB6D44"/>
<path d="M203.796 240.185C203.796 240.555 203.747 240.9 203.722 241.269C202.934 241.269 202.146 241.269 201.358 241.269C201.654 239.766 202.811 240.21 203.796 240.185Z" fill="#D8875B"/>
<path d="M413.946 215.376C413.922 214.144 413.577 212.888 414.291 211.754C414.513 212.567 415.178 213.282 414.956 214.218C414.562 214.563 415.005 215.622 413.946 215.376Z" fill="#D7BEB3"/>
<path d="M413.947 215.376L414.956 214.218L415.03 215.943L413.897 217.125C413.897 216.534 413.897 215.967 413.922 215.376H413.947Z" fill="#F6E5DD"/>
<path d="M383.312 204.733L384.1 206.679C384.371 205.644 384.593 205.053 385.947 205.275C392.448 206.334 398.998 206.457 405.499 205.102C407.568 204.659 407.125 205.915 406.805 206.925C404.81 213.158 401.387 218.184 394.96 220.599C393.778 221.042 392.571 221.486 391.389 221.929C385.258 220.328 384.002 218.505 383.657 210.596C383.657 209.537 384.051 208.453 383.288 207.467C382.352 206.531 382.426 205.62 383.312 204.708V204.733Z" fill="#CA7B51"/>
<path d="M383.313 204.733C383.313 205.645 383.313 206.556 383.288 207.492C372.97 208.084 362.652 208.502 352.384 209.586C351.817 209.636 351.251 209.488 350.685 209.439C351.079 207.197 353.049 206.162 354.452 204.708C357.259 201.826 359.377 198.426 361.79 195.248C362.258 194.952 362.702 194.977 363.096 195.396C367.257 198.845 371.961 201.185 377.23 202.417C377.797 202.343 378.191 202.614 378.437 203.107L383.313 204.733V204.733Z" fill="#705CA4"/>
<path d="M128.838 184.728C126.056 184.555 124.332 187.512 121.303 187.142C121.254 185.024 123.15 184.482 124.504 183.644C125.194 183.2 126.006 183.028 125.735 182.018C125.465 180.983 124.529 181.229 123.765 181.18C121.648 181.032 120.638 182.338 119.801 184.063C119.358 184.999 118.594 186.058 117.437 186.034C116.181 186.034 116.526 184.777 116.378 183.964C117.585 182.338 118.791 180.687 119.998 179.061C120.564 178.298 121.426 177.657 121.007 176.524C121.131 176.302 121.278 176.105 121.5 175.982C122.189 175.686 122.731 175.292 122.805 174.454C123.051 173.42 123.618 172.557 124.184 171.67C124.75 170.882 125.44 170.266 126.376 169.995C134.453 156.814 141.619 143.165 147.208 128.753C148.661 125.033 150.163 121.312 151.099 117.469C151.789 114.611 153.118 113.33 155.975 113.527C157.723 113.675 159.496 113.897 161.245 113.429C168.312 112.837 175.355 112.221 182.422 111.606C183.53 111.507 184.54 111.778 185.5 112.271C182.915 118.972 179.615 125.353 176.463 131.808C176.266 132.227 175.823 132.498 175.478 132.843C174.567 134.345 173.951 136.021 173.089 137.573C171.144 138.558 171.612 140.776 170.701 142.279C170.676 142.747 170.578 143.19 170.11 143.461C168.238 143.313 169.125 145.186 168.337 145.826C167.746 148.142 165.677 149.546 164.766 151.665C163.978 153.267 163.092 154.794 161.442 155.656C158.093 158.268 156.073 161.963 153.488 165.215C153.192 166.053 152.478 166.497 151.838 167.014C147.036 171.72 142.333 176.524 136.497 179.973C133.96 181.574 131.054 182.585 128.838 184.703V184.728Z" fill="black"/>
<path d="M199.167 177.534C195.965 176.77 192.789 176.031 189.587 175.267C185.229 174.06 182.175 171.202 179.934 167.433C178.186 164.501 177.792 159.352 181.363 156.42L186.091 152.305C189.046 149.177 196.187 147.6 200.25 149.152C201.383 150.63 200.299 152.108 200.25 153.587C198.748 160.707 198.034 167.851 199.733 175.07C199.807 175.957 199.782 176.819 199.142 177.534H199.167Z" fill="#F9F3EF"/>
<path d="M213.031 150.63L213.326 151.64C213.129 152.01 212.785 152.207 212.391 152.33C212.169 152.429 211.677 152.527 211.75 152.7C212.095 153.611 212.982 153.069 213.597 153.267C214.582 153.365 215.543 153.488 215.937 154.597C216.035 155.582 216.774 155.681 217.537 155.73C218.522 155.681 218.104 154.178 219.113 154.178C221.28 155.361 222.881 157.085 223.866 159.352C224.186 160.337 223.57 160.855 222.906 161.372C222.561 161.569 222.191 161.692 221.847 161.84C220.615 163.047 221.059 164.255 221.773 165.486C222.462 166.373 223.324 167.137 223.817 168.196C223.324 169.724 222.241 170.808 221.083 171.818C219.039 172.951 216.946 173.912 214.484 173.346C214.213 173.222 213.991 173.075 213.77 172.877C212.735 171.744 211.627 171.917 210.322 172.434C207.17 173.715 206.678 173.321 206.456 169.896C206.284 166.989 206.998 164.008 205.693 161.224C205.397 160.51 205.348 159.746 205.323 158.982C205.299 158.268 205.249 157.529 205.323 156.79C205.397 155.829 205.052 154.966 204.658 154.104C204.56 153.71 204.56 153.34 204.708 152.971C205.077 152.404 205.865 152.109 205.742 151.246C205.767 150.827 205.914 150.483 206.259 150.212C207.786 149.448 209.46 150.064 211.012 149.768C211.8 149.842 212.588 149.867 213.056 150.63H213.031Z" fill="#6E4A87"/>
<path d="M192.716 134.05C200.916 133.261 209.091 132.621 217.242 134.444C220.049 135.06 222.635 136.094 225.122 137.499C227.708 139.888 227.732 140.233 225.59 142.82C224.408 143.978 223.251 143.412 222.093 142.771C221.33 141.835 220.394 141.17 219.138 141.046C216.676 141.046 214.312 140.43 211.899 140.159C211.086 140.086 210.249 140.11 209.461 139.888C203.748 139.149 198.133 140.036 192.568 141.022C190.229 141.441 187.889 141.342 185.574 141.49C183.358 141.638 182.004 139.002 183.161 137.129C184.023 135.749 185.23 134.863 186.929 134.641C188.85 134.394 190.82 134.468 192.716 134.05V134.05Z" fill="#251A16"/>
<path d="M192.715 134.05C190.721 134.518 188.726 134.912 186.732 135.429C184.86 135.897 182.89 136.637 183.358 139.051C183.875 141.712 186.116 141.465 188.086 140.973C194.488 139.347 200.989 138.731 207.564 138.903C208.328 138.903 209.091 139.125 209.854 139.223C209.584 139.544 209.313 139.741 208.919 139.396C209.066 139.568 209.263 139.642 209.485 139.618C210.322 139.544 211.184 139.79 211.997 139.421C214.484 139.494 216.873 139.913 219.113 141.071C215.617 142.87 212.021 142.796 208.426 141.441C206.284 140.628 200.497 141.367 199.069 142.944C200.325 143.018 201.974 142.155 202.147 144.151C202.024 144.274 201.827 144.52 201.753 144.496C197.517 142.894 192.691 144.545 188.603 142.106C188.209 141.86 187.569 141.589 187.224 141.736C184.688 142.894 183.21 141.342 181.733 139.741C181.659 139.667 181.585 139.593 181.511 139.544C179.36 138.148 179.131 136.004 180.822 133.113C181.807 134.345 180.895 135.873 181.683 137.203C182.915 136.809 183.506 135.824 183.629 134.69C183.85 132.522 184.638 132.621 186.313 133.557C188.258 134.616 190.573 133.779 192.691 134.05H192.715Z" fill="#E9BBA2"/>
<path d="M183.653 196.48C183.506 196.529 183.358 196.554 183.21 196.578C182.348 197.096 181.462 197.416 180.452 196.775C180.477 197.687 181.24 198.18 181.314 198.968C181.585 200.84 180.329 201.653 178.95 202.343C178.211 202.368 177.768 202.737 177.645 203.476C176.906 204.708 175.65 204.832 174.419 205.029C173.656 204.487 172.671 204.388 171.932 203.821C171.415 203.132 171.661 201.998 170.602 201.604C170.307 201.333 170.11 200.988 170.085 200.569C173.138 198.524 176.66 196.972 177.866 193.03C178.137 192.636 178.531 192.562 178.95 192.612C181.24 192.07 181.856 189.951 182.988 188.325C183.235 187.98 183.21 187.413 183.506 187.019C183.752 186.822 184.023 186.699 184.318 186.699C184.466 186.723 184.614 186.773 184.761 186.797C184.885 186.896 185.008 186.994 185.131 187.068C185.328 187.315 185.451 187.61 185.549 187.906C185.746 189.162 185.771 190.394 185.549 191.651C185.352 192.488 185.673 193.449 184.934 194.139C184.934 194.804 182.57 193.646 183.973 195.42C184.072 195.814 184.023 196.184 183.678 196.43L183.653 196.48Z" fill="#D41A75"/>
<path d="M170.725 201.21C172.769 201.185 173.015 202.048 171.882 203.575C171.759 204.142 171.39 204.561 170.971 204.93C170.749 205.103 170.479 205.201 170.208 205.275C169.518 205.374 168.829 205.349 168.139 205.324C166.095 203.945 163.854 203.969 162.057 204.364C164.002 203.674 166.243 204.437 168.484 205.374C169.223 205.374 169.961 205.349 170.7 205.472C170.996 205.571 171.242 205.768 171.39 206.039C170.552 207.443 169.1 207.098 167.844 207.246C165.061 207.985 162.254 208.084 159.471 207.246C158.659 207.098 157.723 207.443 157.083 206.606C156.418 204.906 156.171 202.959 153.586 202.811C152.502 202.762 152.502 201.555 153.143 200.742C154.054 199.584 155.039 198.204 156.566 200.077L160.604 201.284C160.924 201.506 161.318 201.604 161.688 201.752C163.313 201.703 164.987 202.343 166.514 201.358L168.361 201.309C169.149 201.851 169.937 201.481 170.725 201.284V201.21Z" fill="#D41B74"/>
<path d="M200.275 149.349C195.227 148.758 190.647 150.433 186.116 152.281C184.244 151.813 184.811 150.68 185.746 150.014C188.455 148.093 190.524 145.013 194.71 145.678C197.591 146.146 200.595 145.678 203.526 145.801C205.348 145.9 206.973 145.53 208.5 144.594C208.697 146.319 208.007 147.107 206.185 146.984C204.634 146.861 203.058 146.984 201.506 146.984C200.989 146.984 200.472 147.156 200.398 147.723C200.275 148.512 200.915 148.659 201.506 148.783C201.605 149.054 201.556 149.3 201.359 149.497C200.965 149.694 200.595 149.669 200.25 149.349H200.275Z" fill="#E9BBA2"/>
<path d="M156.59 200.027C154.571 198.869 154.226 200.766 153.02 202.047C156.147 202.17 158.413 202.959 157.107 206.556C155.162 206.556 153.857 204.733 151.912 204.683C151.518 202.368 148.612 201.949 148.242 199.658C147.701 198.105 147.208 196.553 147.479 194.878C147.627 194.04 147.676 193.03 148.735 192.833C149.868 192.636 150.065 193.671 150.434 194.434C150.606 194.779 150.68 195.149 150.779 195.519C151.321 196.8 151.321 199.042 153.635 197.071C154.645 198.031 155.95 198.697 156.615 200.002L156.59 200.027Z" fill="#D51B77"/>
<path d="M150.656 196.504C148.637 196.258 150.139 194.065 148.711 193.227C147.898 195.395 148.514 197.588 148.218 199.682C146.617 198.204 145.928 196.307 145.829 194.164C145.854 194.04 145.903 193.917 145.928 193.769C146.322 193.055 146.322 192.267 146.322 191.478C146.322 190.813 146.396 190.172 146.667 189.581C146.445 189.113 148.144 188.916 146.814 188.325C146.297 187.98 145.854 187.561 145.583 186.994C145.485 186.575 145.559 186.206 145.805 185.886C145.879 185.048 145.682 184.136 146.445 183.471C147.75 184.161 148.858 185.344 150.533 185.196C150.951 185.245 151.345 185.368 151.69 185.59C151.912 185.787 152.06 186.009 152.109 186.304C152.109 186.6 152.01 186.871 151.863 187.093C151.789 187.265 151.715 187.438 151.69 187.61C151.567 187.807 151.419 187.955 151.247 188.054C151.099 189.729 151.198 191.38 151.296 193.03L151.863 194.607C152.158 195.716 152.724 196.997 150.607 196.504H150.656Z" fill="#D71774"/>
<path d="M181.388 156.42C176.906 164.476 180.945 169.97 186.904 173.592C187.815 174.134 188.726 174.725 189.613 175.267C185.648 175.316 183.235 173.025 181.117 169.995C179.492 167.679 178.088 165.585 177.67 162.579C177.202 159.155 178.606 157.529 181.388 156.42V156.42Z" fill="#E7BDA7"/>
<path d="M180.772 185.885C180.821 184.259 178.679 182.017 181.658 181.229C185.327 180.293 189.169 182.215 189.538 184.777C189.661 185.713 189.858 186.822 188.406 187.043C187.322 186.107 187.002 184.358 185.204 184.161C184.884 184.851 185.574 185.959 184.392 186.354C183.136 186.575 181.855 186.945 180.772 185.885V185.885Z" fill="#E9BC9F"/>
<path d="M227.067 209.956C226.378 211.04 225.417 210.572 224.629 210.646C222.093 210.917 219.557 210.326 216.971 211.631C215.173 212.543 213.376 210.055 211.233 210.498C211.381 209.168 212.243 209.562 212.809 209.488C216.232 209.044 219.704 210.227 223.152 208.749C224.088 208.355 225.688 209.488 227.067 209.956V209.956Z" fill="#E9BCA0"/>
<path d="M183.702 187.167C183.678 188.645 184.195 190.32 181.905 190.788C181.19 190.936 181.363 191.946 181.338 192.612C181.289 193.326 181.166 193.991 180.255 194.065C179.368 194.139 179.048 193.572 178.925 192.833C177.817 190.567 178.999 188.818 180.181 187.044L180.723 186.502C180.92 186.28 181.166 186.206 181.461 186.305C182.2 186.625 183.21 186.231 183.702 187.167V187.167Z" fill="#D51C78"/>
<path d="M174.246 225.995H173.064V221.264C174 220.87 173.655 220.476 173.064 220.082C173.114 218.825 172.769 217.15 174.936 218.85C176.069 219.737 178.31 217.396 178.974 220.107C177.374 220.722 175.207 220.969 176.561 223.605C176.389 224.985 177.374 227.498 174.246 225.97V225.995Z" fill="#EABBA0"/>
<path d="M222.66 161.101L223.842 159.352C225.984 161.766 224.679 164.402 224.383 166.989C223.127 167.309 222.61 165.806 221.478 165.831C219.803 164.23 219.803 162.259 221.478 161.125C221.872 161.495 222.266 161.741 222.66 161.125V161.101Z" fill="#6F4A84"/>
<path d="M184.86 185.935C185.008 184.802 182.767 183.767 184.121 183.003C185.057 182.461 186.707 183.619 187.766 184.629C188.505 185.344 188.406 186.206 188.431 187.043C187.126 188.399 188.579 190.419 187.249 191.749L186.116 191.798C186.116 191.798 185.894 191.626 185.796 191.527C184.959 190.197 186.215 188.374 184.836 187.167V187.093C184.565 186.699 184.565 186.304 184.909 185.91L184.86 185.935Z" fill="#ECB8A4"/>
<path d="M153.02 165.265C155.31 161.52 157.452 157.677 161.269 155.213C161.589 155.607 161.614 156.001 161.269 156.395C158.634 158.908 157.132 162.407 154.202 164.673C153.857 164.969 153.684 165.61 153.02 165.265Z" fill="black"/>
<path d="M150.68 185.885C148.71 186.082 147.11 185.614 146.494 183.446C146.74 183.077 146.987 182.707 147.208 182.338C147.43 182.116 147.701 181.968 147.996 181.845C149.08 181.722 150.163 181.574 151.099 182.338L151.69 182.387C152.158 182.609 152.158 183.003 152.059 183.422C151.641 184.259 151.345 185.171 150.656 185.861L150.68 185.885Z" fill="#D41F74"/>
<path d="M213.031 150.63L210.938 150.458C210.716 150.285 210.47 150.162 210.199 150.039C209.017 149.94 207.859 149.891 206.677 149.916C205.028 149.817 203.033 151.098 201.925 148.758C204.043 148.659 206.185 148.881 208.278 148.191C210.814 147.378 212.76 149.571 215.247 149.522C214.828 150.951 213.72 150.285 213.031 150.606V150.63Z" fill="#E9BBA2"/>
<path d="M183.654 196.479L183.604 195.297C183.432 194.632 183.875 194.385 184.368 194.188C185.033 193.548 184.885 192.71 185.008 191.921C185.057 191.675 185.205 191.527 185.451 191.478C185.697 191.478 185.894 191.601 186.042 191.774L186.091 191.823C186.141 192.39 186.19 192.981 186.215 193.548C186.264 194.459 189.194 193.671 187.421 195.74C186.264 197.095 185.18 197.637 183.629 196.479H183.654Z" fill="#ECB8A4"/>
<path d="M215.567 155.213C215.346 153.685 214.139 154.129 213.203 154.03C212.662 153.316 211.086 153.119 212.046 151.69C212.465 151.69 212.883 151.64 213.302 151.616C213.671 151.616 214.016 151.665 214.385 151.69C214.952 152.453 215.961 152.379 216.651 152.848L219.064 154.153C218.744 154.72 218.621 155.237 218.818 155.952C219.113 157.06 218.301 156.445 217.882 156.395C217.34 155.558 216.084 156.1 215.543 155.213H215.567Z" fill="#704A89"/>
<path d="M207.146 177.583L204.88 177.485C202.27 176.819 202.91 174.972 203.304 173.198C203.551 172.754 203.945 172.557 204.462 172.557C204.757 172.606 205.003 172.73 205.225 172.927C205.718 173.74 206.21 174.503 207.343 174.602C208.131 174.676 208.82 175.095 208.82 176.056C208.747 176.647 208.303 176.918 207.811 177.14C207.589 177.287 207.392 177.411 207.146 177.534V177.583Z" fill="#6F4B83"/>
<path d="M128.838 184.728C130.192 181.18 133.64 181.057 136.496 179.998C134.354 182.24 131.842 183.89 128.838 184.728Z" fill="#C7B094"/>
<path d="M201.925 148.782C203.648 149.62 205.544 149.029 207.317 149.398C208.302 150.063 209.608 149.152 210.568 149.989L210.937 150.458C209.337 151.049 207.711 150.334 206.111 150.507C204.461 151.689 202.811 153.094 201.112 150.531C200.964 150.063 201.038 149.62 201.309 149.226C201.358 149.078 201.432 148.93 201.457 148.782C201.604 148.856 201.752 148.856 201.875 148.782H201.925Z" fill="#6D4B85"/>
<path d="M180.181 187.043C180.649 189.162 178.605 190.739 178.925 192.833C178.58 192.907 178.211 192.981 177.866 193.055C177.866 191.798 177.915 190.542 177.792 189.31C177.62 187.462 178.531 186.896 180.181 187.043V187.043Z" fill="#EEB3A4"/>
<path d="M214.386 172.902C216.602 172.533 218.818 172.163 221.034 171.793C219.36 173.198 217.759 174.701 215.518 175.169C214.878 174.553 213.524 174.282 214.361 172.902H214.386Z" fill="#6D4A85"/>
<path d="M145.583 206.803C144.155 206.31 143.367 205.201 142.579 204.142C142.234 203.674 142.333 202.935 142.948 202.614C143.49 202.319 144.426 202.368 144.475 202.935C144.573 204.29 146.396 205.078 145.583 206.803V206.803Z" fill="#E7BCA1"/>
<path d="M208.5 144.619C209.066 142.746 210.47 143.387 211.603 143.732C212.465 144.003 213.203 144.644 214.262 145.284C211.997 146.368 210.248 145.58 208.5 144.619Z" fill="#E9BBA2"/>
<path d="M151.739 183.57C151.739 183.176 151.714 182.806 151.69 182.412C153.266 182.19 154.251 182.535 154.226 184.481C154.226 186.181 153.955 187.364 151.887 187.093V186.477C152.33 185.59 151.37 184.826 151.69 183.939C151.69 183.816 151.714 183.693 151.739 183.57Z" fill="#EFB6A6"/>
<path d="M150.656 196.504C151.912 196.405 151.789 195.42 151.912 194.607C152.921 195.149 153.069 196.258 153.586 197.095C153.02 198.056 152.724 199.781 151.468 199.534C150.04 199.263 150.828 197.563 150.631 196.504H150.656Z" fill="#D31D71"/>
<path d="M180.797 198.992C180.501 198.623 180.28 198.155 179.91 197.884C179.122 197.293 178.605 196.504 179.368 195.74C180.107 194.977 180.895 195.272 181.388 196.307C181.806 197.145 182.619 196.356 183.21 196.578C182.964 197.12 182.717 197.662 182.471 198.204C182.126 198.894 181.708 199.461 180.797 198.992V198.992Z" fill="#D31F72"/>
<path d="M180.796 198.992C181.363 198.721 181.904 198.475 182.471 198.204C182.914 201.875 182.397 202.491 178.925 202.343C179.122 200.988 181.264 200.717 180.796 198.992V198.992Z" fill="#E6B7A2"/>
<path d="M161.27 156.395V155.213C162.452 154.03 163.609 152.848 164.791 151.665C164.348 153.784 164.668 156.469 161.27 156.395V156.395Z" fill="#E4BCA3"/>
<path d="M237.828 114.118V120.795C236.302 118.651 236.474 115.449 237.828 114.118Z" fill="#E7BBA1"/>
<path d="M170.725 142.278C170.725 141.317 170.774 140.381 170.725 139.42C170.602 137.572 171.759 137.449 173.113 137.548C172.793 139.346 172.153 140.997 170.725 142.253V142.278Z" fill="black"/>
<path d="M151.912 204.708C151.887 205.078 151.862 205.472 151.813 205.841C151.69 207.024 150.927 207.517 149.868 207.467C149.351 207.443 148.538 207.196 148.686 206.507C148.858 205.644 149.572 205.053 150.459 204.856C150.927 204.733 151.419 204.757 151.887 204.708H151.912Z" fill="#E7BDA0"/>
<path d="M198.329 111.556C202.048 110.546 205.914 111.359 209.657 110.669C209.189 111.999 208.056 111.556 207.145 111.581C204.19 111.605 201.26 111.581 198.305 111.581L198.329 111.556Z" fill="#DCBEAF"/>
<path d="M174.221 204.683C175.625 205.028 176.339 203.427 177.62 203.476C178.309 203.723 179.22 203.254 179.934 204.289C177.841 205.176 175.797 205.521 173.63 205.349C173.507 205.201 173.458 205.078 173.483 204.93C173.483 204.782 173.532 204.708 173.581 204.708C173.803 204.56 174.024 204.56 174.221 204.708V204.683Z" fill="#E6B7A2"/>
<path d="M203.747 172.926C203.969 174.479 203.107 176.326 204.88 177.484H202.565C202.27 177.213 202.024 176.893 201.901 176.474C201.728 175.661 201.507 174.848 201.556 174.01C201.679 173.419 201.974 172.951 202.516 172.655C202.959 172.532 203.378 172.582 203.723 172.926H203.747Z" fill="#6C498B"/>
<path d="M149.474 181.106C150.533 177.977 152.232 179.776 154.079 180.54C152.872 181.525 151.69 181.008 150.607 181.18C150.188 181.525 149.819 181.476 149.449 181.106H149.474Z" fill="#E6BDA0"/>
<path d="M187.224 191.774C187.716 190.222 186.066 188.152 188.406 187.068C188.406 188.62 188.504 190.173 188.357 191.725C188.209 192.981 187.692 193.129 187.224 191.799V191.774Z" fill="#E4BFA0"/>
<path d="M221.478 165.831C221.65 164.944 221.97 164.575 222.758 165.388C223.275 165.93 223.842 166.472 224.383 166.989L223.792 168.172C222.586 167.827 221.822 167.038 221.478 165.831Z" fill="#744D8B"/>
<path d="M202.59 176.449C202.59 176.794 202.59 177.164 202.59 177.509C201.457 177.509 200.324 177.509 199.192 177.533C199.142 176.77 199.093 176.006 199.044 175.267C200.62 174.478 201.531 175.71 202.59 176.474V176.449Z" fill="#714E83"/>
<path d="M168.386 145.826C168.361 145.358 168.262 144.865 168.336 144.421C168.435 143.682 166.933 143.19 167.819 142.524C168.853 141.736 169.469 142.919 170.159 143.461C169.666 144.323 169.42 145.358 168.386 145.826V145.826Z" fill="black"/>
<path d="M214.385 172.902C214.779 173.666 215.148 174.405 215.542 175.168L214.385 175.439C214.065 175.587 213.745 175.636 213.4 175.563C212.415 175.045 211.381 174.38 211.947 173.148C212.464 172.015 213.498 172.261 214.385 172.926V172.902Z" fill="#6E498B"/>
<path d="M173.089 137.548C173.212 135.626 173.729 133.927 175.477 132.818C175.305 134.69 174.616 136.341 173.089 137.548Z" fill="black"/>
<path d="M145.854 185.861L146.026 187.068C146.962 188.497 146.371 190.123 146.518 191.626C146.518 192.488 146.592 193.375 146.001 194.114L145.854 194.163C145.706 194.139 145.558 194.09 145.435 194.04C144.844 191.355 144.819 188.694 145.435 186.009C145.583 185.959 145.73 185.91 145.878 185.861H145.854Z" fill="#BB3D62"/>
<path d="M225.59 142.82C227.314 140.874 226.723 139.149 225.122 137.499C228.102 139.075 228.274 140.972 225.59 142.82Z" fill="#DBB49F"/>
<path d="M145.41 186.009C145.41 188.694 145.41 191.355 145.41 194.04C144.351 191.355 144.351 188.694 145.41 186.009Z" fill="#F086A9"/>
<path d="M167.179 207.714C164.741 208.872 162.18 208.158 159.669 208.133C159.644 208.133 159.57 207.96 159.595 207.911C159.595 207.837 159.718 207.763 159.792 207.689C162.254 207.295 164.717 207.197 167.179 207.714Z" fill="#F088AC"/>
<path d="M167.179 207.714C164.717 207.714 162.254 207.714 159.792 207.69C159.644 207.542 159.545 207.394 159.496 207.197C162.279 207.197 165.086 207.197 167.869 207.197C167.647 207.369 167.425 207.542 167.179 207.714V207.714Z" fill="#BC4568"/>
<path d="M177.571 206.335C177.866 206.679 178.457 207.074 178.556 207.566C178.703 208.182 178.063 208.281 177.546 208.207C176.807 208.108 176.635 207.591 176.659 206.926C176.684 206.482 176.906 206.236 177.546 206.31L177.571 206.335Z" fill="#E6BD9F"/>
<path d="M173.064 220.082C173.064 220.082 173.261 220.082 173.36 220.082C174.099 220.155 175.01 219.884 175.305 220.895C175.404 221.215 175.305 221.855 175.108 221.954C174.271 222.373 173.902 221.092 173.064 221.264V220.082V220.082Z" fill="#E9B9A9"/>
<path d="M170.725 201.21C169.962 202.861 169.174 202.861 168.361 201.235C168.928 201.013 169.494 200.791 170.06 200.569L170.725 201.21V201.21Z" fill="#D3177D"/>
<path d="M166.539 201.308C167.031 202.417 166.268 202.466 165.554 202.368C164.15 202.195 162.623 202.934 161.318 201.826C162.82 200.988 164.52 201.974 166.022 201.259C166.194 201.235 166.366 201.259 166.539 201.308V201.308Z" fill="#C03165"/>
<path d="M151.345 193.006C150.089 191.355 150.754 189.507 150.804 187.733C150.804 187.684 150.927 187.61 151.025 187.585C151.124 187.585 151.198 187.635 151.296 187.684C152.01 189.211 151.124 190.887 151.813 192.414L151.37 193.006H151.345Z" fill="#C03367"/>
<path d="M213.893 175.365C214.065 175.365 214.213 175.365 214.385 175.439C214.459 178.199 212.735 177.312 211.283 176.942C211.209 176.72 211.233 176.499 211.381 176.277C211.824 175.883 212.391 175.735 212.932 175.538C213.253 175.464 213.597 175.464 213.917 175.341L213.893 175.365Z" fill="#DFB69F"/>
<path d="M166.046 201.259C164.594 202.343 162.894 201.53 161.318 201.826C161.097 201.629 160.851 201.431 160.629 201.234C162.427 201.234 164.224 201.234 166.022 201.234L166.046 201.259Z" fill="#EE78A5"/>
<path d="M222.093 142.771C223.25 143.067 224.432 143.165 225.59 142.82C224.383 145.259 223.226 143.978 222.093 142.771Z" fill="#DBB49F"/>
<path d="M173.804 204.807C173.754 204.979 173.705 205.152 173.631 205.324C172.942 205.743 172.252 206.112 171.39 205.989C171.169 205.989 170.923 205.94 170.701 205.915C170.356 205.521 170.356 205.127 170.701 204.733C171.735 204.043 172.769 203.895 173.779 204.782L173.804 204.807Z" fill="#D61D70"/>
<path d="M184.86 185.935C184.86 186.329 184.86 186.723 184.835 187.117C184.663 187.117 184.49 187.117 184.343 187.093C183.407 186.403 182.274 187.093 181.289 186.6C181.092 186.575 180.895 186.526 180.723 186.501C180.723 186.304 180.772 186.107 180.772 185.91C182.126 185.91 183.505 185.935 184.86 185.959V185.935Z" fill="#F2A2AF"/>
<path d="M205.791 142.869C205.717 143.338 205.348 143.387 204.979 143.387C204.609 143.387 204.166 143.362 204.166 142.869C204.166 142.377 204.609 142.352 204.979 142.352C205.348 142.352 205.742 142.352 205.791 142.894V142.869Z" fill="#E9BBA2"/>
<path d="M151.788 192.414C150.68 190.936 151.493 189.261 151.271 187.684C151.419 187.659 151.591 187.635 151.739 187.585C151.739 189.187 151.788 190.788 151.788 192.39V192.414Z" fill="#EF7EAA"/>
<path d="M153.02 165.265C153.414 165.068 153.808 164.87 154.202 164.673C154.005 166.028 153.217 166.817 151.862 167.039C152.256 166.447 152.626 165.856 153.02 165.265V165.265Z" fill="#DAB89E"/>
<path d="M211.43 176.499C211.381 176.647 211.331 176.795 211.258 176.942H211.036L210.839 177.016C209.706 177.509 208.573 177.41 207.416 177.09C207.588 176.573 208.032 176.474 208.5 176.4C209.509 175.661 210.494 175.513 211.43 176.499V176.499Z" fill="#7B5167"/>
<path d="M149.473 181.106L150.631 181.18C150.68 181.377 150.68 181.55 150.68 181.747C149.744 182.437 148.538 181.624 147.602 182.338H147.232C147.331 180.712 148.661 181.353 149.498 181.082L149.473 181.106Z" fill="#EF84AA"/>
<path d="M147.603 182.362C148.464 181.352 149.646 181.894 150.681 181.771C150.828 181.968 150.976 182.165 151.124 182.362H147.603Z" fill="#C1536E"/>
<path d="M216.676 152.872C215.765 152.798 214.607 153.168 214.41 151.714C215.395 151.665 216.208 151.961 216.676 152.872Z" fill="#774F8B"/>
<path d="M207.416 177.09L210.839 177.016C209.731 178.076 208.401 177.484 207.146 177.558C207.244 177.386 207.318 177.238 207.416 177.09Z" fill="#DBB3C4"/>
<path d="M400.87 158.76C402.348 161.84 403.308 165.289 406.682 167.063C408.356 167.605 409.932 168.344 411.582 168.935C415.891 170.487 419.61 168.615 423.377 167.038C424.362 165.708 425.495 164.525 426.751 163.466C428.549 160.337 429.607 157.06 428.819 153.365C428.573 152.256 428.549 150.975 428.819 149.866C429.361 147.624 430.913 146.368 433.277 146.318C435.862 146.269 437.266 147.871 437.857 150.137C439.975 158.046 437.906 165.067 432.932 171.3C429.878 175.119 426.037 177.928 421.063 178.815C417.098 179.283 413.133 179.8 409.169 178.815C407.839 178.026 406.238 177.731 405.401 176.055C404.564 174.405 402.668 176.252 401.51 175.242L398.087 172.828C396.364 172.015 395.65 170.438 395.009 168.787L393.803 165.905C393.803 161.84 396.068 159.228 399.343 157.257C400.131 157.479 400.328 158.292 400.87 158.736V158.76Z" fill="#E24E14"/>
<path d="M358.466 131.66C364.007 128.826 369.941 127.471 376.098 127.028C377.378 128.186 377.501 129.738 377.649 131.29C378.166 136.809 378.609 142.327 379.225 147.821C379.373 149.078 379.521 150.359 378.683 151.468C375.26 153.808 371.32 153.586 367.479 153.759C362.209 153.956 357.186 153.242 352.827 149.768C349.724 147.304 348.567 142.672 350.611 139.248C352.285 136.439 354.354 133.951 357.21 132.177C357.555 131.807 358.097 131.955 358.466 131.66V131.66Z" fill="#010101"/>
<path d="M378.683 151.468C377.821 143.313 376.96 135.183 376.098 127.028C379.718 126.486 383.116 127.841 386.637 128.161C387.45 128.555 388.509 128.457 389.05 129.368L392.498 131.734C393.286 132.054 393.335 132.891 393.778 133.483C394.911 136.193 394.936 138.928 393.778 141.638C393.384 142.229 393.237 142.993 392.596 143.436C389.444 146.811 385.775 149.398 381.441 151.098C380.506 151.468 379.668 151.862 378.683 151.492V151.468Z" fill="#E3E0E1"/>
<path d="M371.813 122.15C364.573 122.446 357.727 124.367 351.275 127.644C349.256 128.679 347.459 129.467 345.932 127.151C344.75 125.353 345.587 123.357 348.296 122.027C356.471 117.986 365.09 115.547 374.3 115.818C376.442 115.892 378.585 116.163 378.806 118.947C378.979 121.066 377.304 122.15 374.177 122.175C373.389 122.175 372.601 122.175 371.813 122.175V122.15Z" fill="#080504"/>
<path d="M423.378 167.063C418.576 171.473 411.508 171.473 406.657 167.063C407.667 167.039 408.676 166.965 409.169 165.831C410.942 164.427 412.444 165.24 413.848 166.447C413.725 164.969 410.646 165.733 411.533 163.466C415.251 161.471 418.108 161.643 420.718 164.92C421.408 165.782 422.122 166.817 423.378 167.063V167.063Z" fill="#EE9C74"/>
<path d="M399.689 157.602C396.931 159.82 395.035 162.653 393.779 165.93C392.794 165.018 392.548 163.712 392.227 162.505C391.686 160.362 391.563 158.07 393.533 156.592C395.552 155.114 397.719 155.484 399.689 157.011C399.886 157.134 399.935 157.257 399.886 157.405C399.812 157.528 399.763 157.578 399.689 157.578V157.602Z" fill="#DF5216"/>
<path d="M363.071 195.395C362.628 195.346 362.209 195.297 361.766 195.248C361.421 194.853 361.101 194.459 360.756 194.09C361.667 192.735 361.495 192.094 359.82 191.33C356.348 189.754 356.422 189.581 358.294 186.28C358.515 185.886 358.368 185.27 359.229 185.097C360.017 186.501 359.377 187.783 358.589 189.162C360.288 189.458 361.766 190.098 363.194 190.369C366.272 190.985 365.804 192.045 364.154 193.72C363.662 194.213 363.12 194.632 363.071 195.395Z" fill="#EC9E75"/>
<path d="M335.959 154.079C334.506 151.566 334.851 148.782 334.802 146.048C334.752 142.623 334.802 139.174 334.851 135.749C334.851 134.665 334.974 133.581 335.861 132.793C338.101 133.729 337.363 135.675 336.845 136.981C334.999 141.638 336.033 146.368 336.304 151.024C336.378 152.207 336.033 153.069 335.934 154.079H335.959Z" fill="#E99F70"/>
<path d="M337.165 165.831C335.171 165.067 335.54 162.85 334.506 161.495C332.807 159.204 333.447 157.553 335.909 156.395C337.313 157.011 336.845 158.341 337.091 159.401L337.141 161.101C337.559 161.889 337.608 162.677 337.141 163.466V165.831H337.165Z" fill="#393939"/>
<path d="M424.486 195.42C423.919 196.233 422.663 195.593 422.146 196.504C421.383 197.292 421.383 198.081 422.146 198.869C421.999 199.879 421.358 200.249 420.496 199.879C419.536 199.436 418.748 198.721 418.6 197.514C418.428 195.937 418.748 194.459 419.167 192.956C418.994 191.183 418.108 189.31 419.635 187.684C419.61 188.645 419.536 189.63 419.561 190.591C419.659 194.361 420.62 195.272 424.486 195.42Z" fill="#EB9D70"/>
<path d="M411.509 163.491C412.149 165.166 414.415 164.895 415.129 166.521C415.326 166.989 416.261 167.285 415.621 167.925C415.153 168.393 414.415 168.196 414.045 167.728C412.765 166.102 411.139 165.56 409.145 165.856C408.357 165.757 407.938 165.338 408.037 164.525C408.135 163.836 408.578 163.565 409.219 163.54C409.982 163.515 410.745 163.54 411.509 163.515V163.491Z" fill="#EAA073"/>
<path d="M401.486 175.267C404.097 173.789 406.067 173.912 407.125 177.189C407.372 177.953 409.145 177.386 409.145 178.839C406.116 178.692 403.752 177.09 401.486 175.267V175.267Z" fill="#DD5118"/>
<path d="M409.145 178.839C413.109 179.061 417.074 177.977 421.038 178.839C417.074 180.293 413.109 180.589 409.145 178.839Z" fill="#DF541A"/>
<path d="M411.533 203.575C411.484 204.141 411.435 204.733 411.336 205.299C411.336 205.398 411.041 205.447 410.647 205.644C410.08 204.215 410.4 202.786 410.376 201.407C410.376 200.791 410.597 200.273 411.312 200.15C412.173 200.002 412.592 200.446 412.69 201.234C413.577 202.663 412.05 202.885 411.509 203.575H411.533Z" fill="#EBA071"/>
<path d="M337.091 159.426C336.352 158.563 336.229 157.43 335.909 156.42C335.934 156.026 335.983 155.631 336.008 155.237H338.322C338.322 156.765 338.618 158.366 337.091 159.426Z" fill="#E99F70"/>
<path d="M444.555 137.573C446.155 137.573 447.756 137.425 449.357 137.597C450.588 137.72 449.357 138.287 449.381 138.657C447.781 138.287 445.737 139.79 444.555 137.573V137.573Z" fill="black"/>
<path d="M426.727 163.491C425.89 164.944 425.225 166.57 423.353 167.088C422.91 164.427 425.176 164.279 426.727 163.491Z" fill="#EE9C74"/>
<path d="M337.067 125.722C334.802 124.663 336.575 122.864 336.181 121.46C337.609 121.977 336.969 123.16 337.215 124.047C337.166 124.613 337.117 125.155 337.092 125.722H337.067Z" fill="#393939"/>
<path d="M384.347 117.543C386.169 117.296 387.351 118.109 387.967 119.809C386.144 120.056 384.987 119.193 384.347 117.543Z" fill="black"/>
<path d="M394.985 168.812C396.019 170.167 397.029 171.497 398.063 172.852C395.28 172.852 394.886 171.005 394.985 168.812Z" fill="#F0976D"/>
<path d="M378.437 203.107C378.043 202.885 377.624 202.663 377.23 202.417C377.255 202.047 377.304 201.653 377.329 201.284C377.403 200.323 378.018 199.83 378.856 200.2C380.013 200.717 378.782 201.185 378.683 201.702C378.585 202.171 378.536 202.639 378.462 203.082L378.437 203.107Z" fill="#EF9B7D"/>
<path d="M350.783 100.987C351.744 100.001 352.704 99.0158 353.665 98.0303C353.665 98.2274 353.665 98.4245 353.689 98.6216C354.083 101.085 352.286 100.864 350.759 100.987H350.783Z" fill="#E5A16F"/>
<path d="M358.983 102.761C360.855 101.8 362.086 101.923 361.963 104.461C360.781 104.214 359.944 103.377 358.983 102.761Z" fill="black"/>
<path d="M346.498 106.826C346.572 106.013 347.04 105.446 347.705 105.002C348.222 105.742 349.552 106.382 348.714 107.417C347.926 108.402 347.409 106.505 346.498 106.826V106.826Z" fill="#E6A26E"/>
<path d="M362.898 125.377C364.499 124.318 365.386 124.49 366.691 125.057C365.386 126.042 364.474 125.722 362.898 125.377Z" fill="#EB9F7E"/>
<path d="M338.249 155.508L338.471 152.108L339.259 152.182C339.579 153.266 339.924 154.35 338.249 155.508Z" fill="#E99F70"/>
<path d="M348.887 130.428C348.887 131.241 348.419 131.61 347.631 131.586C347.212 131.586 346.744 131.265 346.917 130.97C347.237 130.452 347.754 129.96 348.296 129.689C348.69 129.516 348.813 130.083 348.862 130.452L348.887 130.428Z" fill="#F09B7C"/>
<path d="M411.533 203.575L412.715 201.234H413.897V203.6H411.533V203.575Z" fill="#ED9C7C"/>
<path d="M416.236 130.453C417.443 130.773 419.142 129.59 419.782 131.611C418.576 131.29 416.877 132.497 416.236 130.453Z" fill="black"/>
<path d="M419.659 187.684C418.699 189.384 419.413 191.207 419.191 192.957C418.576 190.912 417.517 188.818 419.832 187.068L419.659 187.684Z" fill="#E7A083"/>
<path d="M413.872 201.21C414.069 200.027 414.783 199.855 415.768 200.274C416.187 200.471 416.261 200.963 416.014 201.259C415.325 202.072 414.611 201.037 413.897 201.21H413.872Z" fill="#ED9C7C"/>
<path d="M360.24 194.09C358.516 194.237 357.728 193.178 357.235 191.749C358.688 191.971 359.427 193.079 360.24 194.09Z" fill="#BF8E41"/>
<path d="M399.713 124.564C400.673 124.614 401.831 124.219 402.126 125.698C401.166 125.648 399.984 126.092 399.713 124.564Z" fill="black"/>
<path d="M397.324 123.406C398.285 123.48 399.467 123.012 399.713 124.54C398.752 124.49 397.57 124.909 397.324 123.406Z" fill="black"/>
<path d="M430.371 134.025C431.331 134.074 432.489 133.631 432.784 135.133C431.996 135.133 431.208 135.133 430.42 135.133C430.051 134.789 430.051 134.419 430.371 134.025V134.025Z" fill="black"/>
<path d="M413.823 129.319C414.784 129.319 415.99 128.9 416.261 130.428C415.301 130.379 414.143 130.797 413.823 129.319Z" fill="black"/>
<path d="M406.756 126.954C407.716 126.979 408.898 126.56 409.194 128.063C408.8 128.408 408.406 128.457 407.962 128.112C407.224 128.063 406.83 127.669 406.756 126.954V126.954Z" fill="black"/>
<path d="M410.326 128.112C411.286 128.186 412.468 127.742 412.715 129.245C411.927 129.245 411.163 129.245 410.375 129.245C410.006 128.876 410.006 128.506 410.326 128.112Z" fill="black"/>
<path d="M410.326 128.112C410.326 128.482 410.351 128.876 410.375 129.246C409.415 129.172 408.233 129.615 407.962 128.112C408.381 128.112 408.775 128.063 409.193 128.063C409.563 128.063 409.932 128.112 410.326 128.112V128.112Z" fill="#EBA368"/>
<path d="M376.146 113.896C377.082 114.02 378.264 113.625 378.535 115.104C377.575 115.03 376.319 115.547 376.146 113.896Z" fill="black"/>
<path d="M439.827 136.415H442.191C442.585 136.735 442.585 137.129 442.24 137.499C441.305 137.449 440.147 137.868 439.827 136.415V136.415Z" fill="black"/>
<path d="M420.915 131.709C421.9 131.709 423.033 131.315 423.328 132.793C422.368 132.768 421.211 133.162 420.915 131.709Z" fill="black"/>
<path d="M425.644 132.867C426.604 132.892 427.786 132.448 428.081 133.951C427.121 133.951 425.939 134.345 425.644 132.867Z" fill="black"/>
<path d="M372.552 111.63C373.512 111.63 374.694 111.236 374.916 112.763C373.98 112.69 372.798 113.108 372.552 111.63Z" fill="black"/>
<path d="M430.372 134.025C430.372 134.395 430.421 134.764 430.421 135.134C429.46 135.085 428.278 135.528 428.032 134H430.372V134.025Z" fill="black"/>
<path d="M456.03 153.734C455.76 153.808 455.439 153.981 455.119 153.981C454.775 153.981 454.257 153.882 454.43 153.389C454.504 153.168 454.996 152.995 455.316 152.971C455.661 152.946 456.104 153.02 456.03 153.759V153.734Z" fill="#ECA06B"/>
<path d="M409.071 220.082C408.899 219.959 408.455 219.811 408.381 219.564C408.234 219.047 408.751 218.949 409.096 218.973C409.416 218.998 409.908 219.195 409.982 219.417C410.154 219.934 409.613 219.934 409.096 220.082H409.071Z" fill="#F09E68"/>
<path d="M442.241 137.523C442.241 137.154 442.216 136.76 442.191 136.39C443.152 136.439 444.334 135.996 444.605 137.499C443.817 137.499 443.029 137.499 442.241 137.499V137.523Z" fill="black"/>
<path d="M432.76 135.208H435.124C435.493 135.577 435.493 135.971 435.148 136.341C434.213 136.267 433.006 136.71 432.76 135.208Z" fill="black"/>
<path d="M435.148 136.341V135.183C436.06 135.232 437.217 134.813 437.537 136.267C436.749 136.267 435.936 136.291 435.148 136.316V136.341Z" fill="black"/>
<path d="M358.466 131.66C358.171 132.128 357.777 132.374 357.21 132.177C357.53 131.537 356.077 131.068 356.89 130.576C357.9 129.935 358.023 131.192 358.466 131.66Z" fill="#DD9B79"/>
<path d="M337.165 163.466V161.101C337.904 161.939 338.175 162.973 338.273 164.057C337.904 163.86 337.534 163.663 337.165 163.442V163.466Z" fill="#393939"/>
<path d="M389.05 129.368C388.114 129.22 387.351 128.752 386.637 128.161C387.622 128.186 388.902 127.693 389.05 129.368Z" fill="#E7A585"/>
<path d="M392.597 143.412C392.621 142.574 393.114 142.032 393.779 141.613C393.828 142.5 393.803 143.338 392.597 143.412Z" fill="#E0B19D"/>
<path d="M341.204 115.104C341.426 114.217 341.771 113.404 342.46 112.739C342.534 113.774 342.411 114.734 341.204 115.104Z" fill="#E19C66"/>
<path d="M393.779 133.458C393.138 133.039 392.597 132.547 392.498 131.709C393.803 131.66 393.828 132.522 393.779 133.458Z" fill="#DCAE94"/>
<path d="M399.688 157.602C399.688 157.405 399.688 157.233 399.688 157.036C400.403 157.381 400.846 157.923 400.846 158.785C400.107 158.736 399.738 158.341 399.688 157.602V157.602Z" fill="#E4501D"/>
<path d="M454.43 134.616C455.71 133.828 457.015 133.803 458.936 134.542C457.089 135.405 455.759 135.208 454.43 134.616Z" fill="black"/>
<path d="M449.381 83.3223C448.249 83.1745 447.165 83.5441 446.229 82.6571C447.338 82.189 448.446 81.4499 449.381 83.3223Z" fill="black"/>
<path d="M449.283 83.2729C450.17 83.4454 451.352 82.9034 451.573 84.357C451.623 84.7265 451.573 85.3178 451.105 85.2193C450.17 84.9729 449.456 84.3323 449.283 83.2729Z" fill="black"/>
<path d="M350.118 93.9406C348.05 92.758 348.665 91.5754 350.143 90.4175C350.143 91.6001 350.143 92.7826 350.118 93.9406Z" fill="black"/>
<path d="M412.912 66.1992C414.02 66.1992 415.153 66.1992 416.261 66.2239C415.128 67.0861 414.02 67.0122 412.912 66.1992Z" fill="black"/>
<path d="M121.672 176.4L121.008 176.523C116.723 175.858 113.743 173.321 111.65 169.699C109.729 166.348 110.813 161.766 114.236 158.612C117.068 156.001 120.417 154.227 123.963 152.773C125.046 152.626 124.948 153.414 124.948 154.055C124.997 155.779 124.948 157.479 124.948 159.204C124.997 160.041 124.357 160.337 123.766 160.731C118.914 163.885 118.939 167.999 123.766 171.005C124.11 171.227 124.43 171.424 124.627 171.769L123.47 174.651C123.051 175.439 122.51 176.055 121.672 176.4V176.4Z" fill="#EABBA2"/>
<path d="M124.652 171.793C121.303 171.399 119.333 169.379 119.358 166.373C119.358 162.653 121.352 160.263 124.677 159.943C124.874 159.647 125.046 159.647 125.194 159.943C125.736 163.269 125.194 166.743 126.4 169.995C126.056 170.832 125.415 171.374 124.652 171.793Z" fill="#CC9579"/>
<path d="M125.193 159.943H124.676C124.331 157.553 125.489 155.04 123.962 152.773C124.898 151.763 125.169 152.231 125.144 153.315C125.144 155.508 125.144 157.725 125.169 159.918L125.193 159.943Z" fill="#DDC0B1"/>
<path d="M161.244 113.404C159.521 114.291 157.748 114.143 155.975 113.502L161.244 113.404Z" fill="black"/>
<path d="M333.299 133.261V151.813H332.807V133.261H333.299Z" fill="#393939"/>
<path d="M326.527 189.433C328.571 189.236 326.995 186.945 328.522 186.157C328.916 187.709 329.482 189.212 328.153 190.394C327.488 190.986 326.675 190.444 326.527 189.433Z" fill="#393939"/>
<path d="M337.165 165.831C338.569 166.127 338.421 166.89 337.928 167.925C336.82 167.383 337.313 166.496 337.165 165.831Z" fill="#393939"/>
<path d="M178.974 236.589C178.949 235.332 179.245 233.805 177.078 235.209C176.388 235.652 175.206 235.357 174.246 235.406C173.926 235.061 173.877 234.667 173.975 234.223C174.221 233.657 174.665 233.016 175.157 233.016C177.595 233.016 178.161 231.095 178.974 229.444C182.643 234.076 187.199 237.623 192.567 240.112C188.455 240.703 184.564 239.471 180.575 238.609C180.402 237.402 181.904 238.067 182.126 237.057C181.215 236.194 180.008 236.761 178.925 236.589H178.974Z" fill="#EBBBA1"/>
<path d="M178.999 229.444C180.058 233.657 176.364 233.164 174.247 234.223C173.557 233.435 173.557 232.647 174.247 231.858H176.611C178.113 230.06 176.438 229.296 175.429 228.31C174.788 227.645 174.025 227.054 174.247 225.97C174.911 225.822 175.576 225.699 176.241 225.551C176.561 224.196 174 225.354 174.739 223.827C175.059 223.161 175.896 223.235 176.561 223.58C177.374 225.527 178.187 227.473 178.999 229.419V229.444Z" fill="#EBBAA4"/>
<path d="M462.286 154.695C462.138 154.695 462.015 154.646 461.892 154.597C462.384 150.458 462.877 146.319 463.369 142.155C463.517 144.077 463.763 145.802 465.216 147.477C466.767 149.251 465.782 151.345 464.206 152.946C463.591 153.562 462.606 153.735 462.31 154.695H462.286Z" fill="#C57B51"/>
<path d="M422.147 198.845C421.359 198.771 420.965 198.327 421.014 197.514C421.063 196.8 421.531 196.553 422.147 196.479V198.845V198.845Z" fill="#EB9E7D"/>
<path d="M174.247 231.883V235.431C173.779 236.786 173.262 236.613 173.139 235.357C172.966 233.829 173.089 232.253 173.065 230.7C173.139 230.331 173.262 229.74 173.631 229.863C174.641 230.208 174.074 231.193 174.247 231.883V231.883Z" fill="#E6BDA2"/>
<path d="M175.428 228.335C176.315 228.434 177.521 228.015 177.718 229.394C177.842 230.355 178.186 231.587 176.61 231.883C176.955 230.454 175.084 229.764 175.428 228.335V228.335Z" fill="#E9BD9B"/>
<path d="M178.974 236.588C178.704 238.042 177.891 237.746 176.832 237.451C177.423 236.243 178.31 236.736 178.974 236.588Z" fill="#E5BF9B"/>
<path d="M171.538 136.218C170.135 132.744 171.76 129.689 172.893 126.56C173.016 126.215 173.36 125.944 173.681 125.698C174.518 125.032 174.198 122.52 176.069 123.727C177.67 124.761 175.749 125.944 175.355 126.954C174.173 130.058 171.981 132.744 171.538 136.218V136.218Z" fill="black"/>
<path d="M121.672 176.401C122.263 175.809 122.878 175.243 123.469 174.651C123.593 175.982 123.002 176.573 121.672 176.401Z" fill="#C9B099"/>
<path d="M202.589 176.45C201.137 176.868 200.25 175.587 199.043 175.242C196.803 167.876 197.615 160.583 199.585 153.315C202.294 152.084 201.875 154.498 202.466 155.754C202.466 156.691 202.195 157.578 202.245 158.514C202.245 159.056 202.368 159.598 202.343 160.14C202.294 160.706 202.097 161.249 201.851 161.766C200.89 164.106 201.161 166.57 201.112 169.009C201.112 170.069 200.89 171.153 201.309 172.187C201.604 172.754 201.777 173.395 201.998 173.986C202.392 174.75 202.713 175.538 202.614 176.425L202.589 176.45Z" fill="#6F4C88"/>
<path d="M201.974 155.755C201.383 154.745 201.235 153.291 199.561 153.34L200.25 149.349C200.619 149.3 200.964 149.275 201.334 149.226C201.358 149.645 201.383 150.088 201.407 150.507C201.998 152.256 203.673 152.922 204.929 154.03C206.456 154.252 206.012 155.459 206.111 156.371C205.594 156.913 204.953 157.061 204.239 156.913C203.451 156.593 202.688 156.223 201.974 155.73V155.755Z" fill="#6D4C83"/>
<path d="M213.892 175.366L213.4 175.908C210.371 175.513 207.244 175.39 204.954 172.902C204.683 172.68 204.584 172.36 204.56 172.04C204.067 171.374 203.599 172.311 203.131 172.064C202.639 171.99 202.294 171.719 202.072 171.276C201.358 168.122 201.531 164.944 201.925 161.766C202.097 160.978 202.811 160.46 202.984 159.696C203.131 159.253 203.353 158.883 203.698 158.563C204.116 158.341 204.535 158.341 204.954 158.514C205.84 159.13 205.274 160.436 206.136 161.076C207.736 161.372 207.293 162.653 207.318 163.638C207.367 166.546 207.318 169.453 207.318 172.335C209.879 172.606 212.489 168.073 214.41 172.877C213.745 173.025 212.637 172.483 212.489 173.419C212.341 174.232 213.351 174.725 213.917 175.316L213.892 175.366Z" fill="#6D4A85"/>
<path d="M204.954 154.03C202.516 154.104 201.334 152.971 201.432 150.507C203.008 152.01 204.56 150.261 206.136 150.507V151.69C205.963 152.281 205.299 152.429 204.954 152.872V154.055V154.03Z" fill="#6F498B"/>
<path d="M204.953 158.76H203.821C203.574 158.538 203.377 158.292 203.304 157.996C203.205 157.356 203.254 156.765 203.919 156.395C204.658 156.395 205.397 156.395 206.16 156.395V158.76C205.766 159.105 205.372 159.13 204.978 158.76H204.953Z" fill="#6D4A8D"/>
<path d="M212.046 151.69L213.203 154.03C212.637 153.981 211.996 154.079 211.504 153.858C210.839 153.562 209.953 153.02 210.1 152.256C210.297 151.246 211.356 151.813 212.046 151.665V151.69Z" fill="#6C4A83"/>
<path d="M219.261 159.228C217.808 160.214 216.897 159.918 215.321 159.598C216.823 158.563 217.759 158.711 219.261 159.228Z" fill="#6D4A81"/>
<path d="M215.567 155.213C216.478 155.336 217.709 154.843 217.906 156.395C217.044 156.395 216.084 156.593 215.321 156.297C214.065 155.804 214.779 155.435 215.567 155.213Z" fill="#6C4B80"/>
<path d="M204.954 152.872C204.979 152.108 205.373 151.739 206.136 151.689C206.505 151.763 207.096 151.887 206.973 152.256C206.629 153.266 205.668 152.7 204.954 152.847V152.872Z" fill="#6D4C83"/>
<path d="M222.66 161.101C222.955 161.274 223.448 161.421 223.497 161.643C223.595 162.087 223.127 162.21 222.758 162.234C221.97 162.284 221.551 161.889 221.478 161.101H222.66V161.101Z" fill="#6F478D"/>
<path d="M204.954 158.76H206.136C206.136 159.549 206.136 160.337 206.136 161.101C204.609 160.879 205.053 159.672 204.979 158.76H204.954Z" fill="#6B4B80"/>
<path d="M219.679 169.034C219.211 168.96 219.162 168.59 219.162 168.196C219.162 167.827 219.162 167.383 219.679 167.383C220.172 167.383 220.196 167.827 220.196 168.196C220.196 168.566 220.196 168.96 219.655 169.009L219.679 169.034Z" fill="#6D4B82"/>
<path d="M212.021 139.42C211.283 140.135 210.371 139.864 209.51 139.864C209.214 139.864 208.968 139.691 209.313 139.396C209.436 139.272 209.682 139.272 209.879 139.223L212.046 139.42H212.021Z" fill="#E6BBAE"/>
<path d="M173.804 204.807L170.726 204.757C170.75 203.994 171.144 203.599 171.908 203.575C172.794 203.698 174.025 203.156 174.247 204.708C174.124 204.782 173.976 204.831 173.828 204.831L173.804 204.807Z" fill="#D3187B"/>
<path d="M184.392 194.163C184.145 194.533 183.875 194.903 183.628 195.272C183.136 195.174 182.372 195.543 182.397 194.632C182.397 194.188 182.569 193.572 182.865 193.375C183.678 192.833 183.776 194.065 184.416 194.163H184.392Z" fill="#D90F79"/>
<path d="M186.042 191.774L185.426 191.823C184.712 190.493 185.697 188.94 184.835 187.635C184.835 187.487 184.811 187.364 184.811 187.216C187.248 188.201 185.623 190.271 186.066 191.798L186.042 191.774Z" fill="#EF7FA7"/>
<path d="M184.835 187.61C186.091 188.867 185.205 190.419 185.426 191.799C185.303 191.848 185.155 191.873 185.008 191.897C184.934 190.468 184.884 189.039 184.811 187.61H184.835Z" fill="#BC4C65"/>
<path d="M181.289 186.6C182.348 186.526 183.456 186.083 184.343 187.093C184.121 187.118 183.924 187.142 183.702 187.192C182.914 186.896 181.954 187.389 181.289 186.625V186.6Z" fill="#C06373"/>
<path d="M168.362 205.94C165.628 204.191 162.402 205.029 159.447 204.24C162.452 204.142 165.505 202.59 168.362 204.758C168.706 205.152 168.706 205.546 168.362 205.94Z" fill="#D51778"/>
<path d="M168.361 205.94C168.361 205.546 168.361 205.152 168.361 204.757H170.725V205.94H168.361Z" fill="#D21B79"/>
<path d="M146.001 191.799C146.001 190.222 146.001 188.645 146.001 187.068C146.715 187.142 147.06 187.561 147.085 188.251C147.454 188.645 147.429 189.039 147.085 189.434V191.799C146.715 192.144 146.346 192.144 145.977 191.799H146.001Z" fill="#D11D73"/>
<path d="M146.002 191.798H147.11C146.987 192.685 147.529 193.892 146.002 194.114C146.002 193.35 146.002 192.562 146.002 191.798Z" fill="#D21C7A"/>
<path d="M150.68 185.886C150.778 184.999 150.261 183.816 151.763 183.57L151.911 183.521C152.157 184.334 152.428 185.147 151.739 185.886H150.705H150.68Z" fill="#D31A7B"/>
<path d="M147.109 189.433V188.251C147.528 188.226 147.823 187.216 148.144 187.832C148.562 188.596 148.144 189.335 147.109 189.433Z" fill="#D4187E"/>
<path d="M151.715 185.886C151.764 185.097 151.838 184.309 151.887 183.521C152.7 184.506 152.651 185.491 151.887 186.477L151.69 185.886H151.715Z" fill="#CD8B81"/>
<path d="M210.569 149.99C209.461 149.891 208.303 150.138 207.318 149.399C208.426 149.472 209.658 148.881 210.569 149.99Z" fill="#C195BA"/>
<path d="M204.954 172.927C207.663 174.233 210.79 174.331 213.4 175.932C212.859 176.524 212.145 176.45 211.455 176.524C210.47 176.499 209.485 176.45 208.525 176.425C208.377 175.44 207.687 175.243 206.875 175.292C205.053 175.44 204.88 174.282 204.979 172.927H204.954Z" fill="#70498A"/>
<path d="M204.93 171.744V172.902H202.713C202.27 172.508 202.27 172.113 202.713 171.744H203.797C204.191 171.374 204.56 171.448 204.954 171.744H204.93Z" fill="#6F5384"/>
<path d="M202.713 171.744V172.902L201.975 174.011L200.793 172.877C200.128 171.744 200.916 170.389 200.276 169.256C200.448 166.472 199.66 163.54 201.433 160.953C201.827 160.805 202.221 160.731 202.541 161.15L202.738 171.744H202.713Z" fill="#F4EBF5"/>
<path d="M375.063 144.791C375.063 146.073 375.063 147.354 375.063 148.61C375.063 149.448 374.768 150.212 373.807 150.286C373.019 150.359 372.453 149.768 372.33 149.078C371.714 145.875 371.886 142.648 372.01 139.396C372.034 138.657 372.699 138.484 373.315 138.509C374.25 138.558 374.768 139.224 374.817 140.061C374.915 141.613 374.841 143.19 374.841 144.767H375.088L375.063 144.791Z" fill="#F9EFEA"/>
<path d="M374.374 134.592C374.374 135.799 373.832 136.489 372.675 136.513C371.468 136.513 371.025 135.577 370.877 134.641C370.729 133.705 371.197 132.916 372.256 132.842C373.512 132.744 374.202 133.434 374.374 134.616V134.592Z" fill="#F1E8E4"/>
<path d="M418.798 165.486C416.532 166.102 415.99 165.043 415.301 163.86C417.148 163.072 417.591 164.451 418.798 165.486Z" fill="#EAA073"/>
<path d="M393.976 159.574C393.705 157.701 394.715 156.937 396.069 156.469C396.414 156.346 397.079 156.519 396.955 156.913C396.537 158.293 395.379 158.958 393.976 159.598V159.574Z" fill="#E2511B"/>
<path d="M203.895 156.395L203.772 158.095C203.157 159.105 202.492 159.746 201.482 158.489C201.359 157.529 201.31 156.568 201.999 155.755C202.787 155.508 203.526 155.434 203.92 156.395H203.895Z" fill="#F3E5F0"/>
<path d="M201.482 158.489C202.344 158.958 203.083 158.662 203.772 158.095C203.772 158.317 203.797 158.514 203.821 158.736C203.821 159.13 203.797 159.549 203.772 159.943C203.181 160.411 202.59 160.46 201.999 159.943C201.457 159.598 201.433 159.056 201.482 158.489V158.489Z" fill="#6D4E80"/>
<path d="M201.999 159.943H203.772C203.748 160.731 203.28 161.101 202.516 161.15L201.408 160.953L201.999 159.943V159.943Z" fill="#734A90"/>
<path d="M200.275 169.256C200.965 170.389 200.817 171.646 200.792 172.877C199.758 171.793 200.398 170.463 200.275 169.256Z" fill="#6E567E"/>
<path d="M204.929 171.744C204.535 171.744 204.165 171.744 203.771 171.719C203.821 170.931 204.264 170.562 205.052 170.611C205.446 170.635 205.889 170.783 205.766 171.227C205.717 171.473 205.2 171.596 204.904 171.769L204.929 171.744Z" fill="#70488D"/>
</g>
<defs>
<clipPath id="clip0_5146_43021">
<rect width="591" height="285" fill="white"/>
</clipPath>
</defs>
</svg>
