<svg width="595" height="297" viewBox="0 0 595 297" fill="none" xmlns="http://www.w3.org/2000/svg">
<g clip-path="url(#clip0_5484_43220)">
<rect width="595" height="297" fill="#7D9AFF"/>
<g clip-path="url(#clip1_5484_43220)">
<path d="M228.325 236.251C256.984 246.968 276.941 267.035 290.614 293.904C291.258 295.166 291.927 296.48 291.773 297.974H94.8623C98.7248 289.061 104.184 281.152 110.209 273.63C125.582 254.438 144.998 241.094 168.61 233.984C170.078 234.654 169.718 236.019 169.743 237.153C169.795 239.806 169.898 242.434 170.31 245.061C170.799 248.282 172.473 250.445 175.383 251.837C179.966 254.052 184.91 254.773 189.88 255.417C200.849 256.551 211.381 255.185 221.269 250.033C224.565 248.307 226.239 245.68 226.728 242.022C226.986 240.064 226.805 237.874 228.325 236.226V236.251Z" fill="#0065AE"/>
<path d="M316.441 298C317.085 292.049 319.068 286.459 321.308 280.972C324.733 272.6 328.956 264.717 334.93 257.839C338.895 255.65 343.35 256.371 347.573 255.907C355.504 255.006 363.487 254.49 371.315 252.867C372.499 252.636 373.709 252.249 374.945 252.739C376.053 253.692 375.769 254.954 375.769 256.165C375.769 259.024 376.877 259.745 379.374 258.251C383.34 255.881 387.228 253.28 390.704 250.266C394.103 247.329 397.451 246.633 401.7 248.127C404.094 248.978 404.996 250.162 404.97 252.532C404.918 257.582 404.403 262.579 404.043 267.577C403.631 273.296 403.296 279.04 402.627 284.759C402.369 286.975 403.399 288.288 405.717 288.443C406.85 288.52 407.983 288.494 409.116 288.34C413.03 287.825 413.339 287.232 413.751 283.265C414.781 273.527 414.111 263.764 414.317 254.001C414.42 249.622 414.549 249.441 418.978 248.952C419.39 248.9 418.901 249.029 419.287 248.9C425.853 246.633 430.668 249.055 434.788 254.258C437.003 257.066 439.81 259.411 442.385 261.909C443.106 262.605 443.878 263.584 445.011 263.197C446.273 262.759 446.402 261.446 446.35 260.338C446.144 254.671 447.174 249.055 446.994 243.413C446.839 238.57 447.741 233.779 447.715 228.961C447.715 228.034 447.792 227.081 448.719 226.514C478.28 237.566 498.648 257.788 509.592 287.387C510.88 290.839 511.704 294.471 512.734 298H462.727C461.234 295.862 461.8 293.441 461.955 291.148C462.212 287.052 462.032 282.982 462.083 280.406C462.392 284.63 461.929 290.349 461.697 296.068C461.671 296.815 461.362 297.459 460.873 298.026H350.998C349.659 294.11 350.509 290.117 350.766 286.176C350.895 284.141 350.946 282.106 350.998 280.045C351.127 285.274 350.045 290.478 350.354 295.707C350.406 296.712 350.071 297.511 349.144 298H316.441V298Z" fill="#0065AE"/>
<path d="M460.873 298C460.667 291.251 462.367 284.527 461.002 277.804C460.899 277.34 461.156 277.005 461.62 276.876C462.264 276.722 462.598 277.16 462.676 277.675C462.779 278.37 462.753 279.117 462.753 279.813C462.753 285.867 462.753 291.92 462.753 298H460.899H460.873Z" fill="#24244C"/>
<path d="M349.144 298C349.968 296.789 349.813 295.424 349.736 294.11C349.401 288.469 350.663 282.879 350.405 277.237C350.405 276.773 350.328 276.206 351.358 275.872C352.414 283.342 350.586 290.684 350.998 298H349.144Z" fill="#24244B"/>
<path d="M189.88 256.139C184.627 255.933 179.554 254.799 174.764 252.61C171.597 251.167 169.975 248.72 169.383 245.319C168.739 241.558 168.971 237.772 168.61 234.01C169.048 228.42 169.048 228.395 163.692 228.498C153.521 228.678 143.349 228.91 133.178 229.09C129.393 229.167 128.852 228.472 128.801 224.608C128.672 213.428 128.44 202.222 128.312 191.042C128.312 189.522 127.565 188.646 126.638 187.641C120.844 181.304 115.9 174.426 113.711 165.925C111.291 156.393 116.183 147.918 125.711 145.419C127.101 145.059 127.487 144.492 127.41 143.152C127.333 141.529 127.487 139.881 127.539 138.232C131.247 136.738 135.187 136.867 139.024 136.815C149.916 136.635 160.808 136.712 171.675 136.764C174.868 136.764 178.035 136.377 181.176 136.094C182.335 135.991 183.365 135.605 184.24 134.832C197.296 123.291 213.158 117.933 229.767 114.275C236.693 112.755 243.723 111.802 250.856 112.085C254.409 112.214 258.143 112.806 260.126 108.685C260.795 125.815 261.439 142.946 262.108 160.077C262.778 177.517 263.422 194.957 264.091 212.397C264.22 215.772 264.4 219.172 264.658 222.547C264.89 225.509 264.091 226.591 261.207 226.669C251.654 226.901 242.101 227.158 232.548 227.21C230.076 227.21 228.35 227.519 228.273 230.378C227.037 228.24 225.157 227.673 222.84 227.982C214.265 229.142 205.639 228.369 197.038 228.575C191.399 228.704 185.811 229.374 180.146 229.271C176.722 229.193 175.563 230.79 176.309 234.242C177.983 241.919 182.026 248.179 187.82 253.408C188.669 254.181 190.086 254.568 189.88 256.139V256.139Z" fill="#7C4513"/>
<path d="M433.681 219.043C433.732 220.1 433.784 221.13 433.81 222.186C435.097 226.643 435.483 231.202 434.917 235.814C434.737 237.179 433.887 238.261 432.908 239.188C428.634 243.181 423.664 245.654 417.742 245.809C412.72 245.938 407.648 246.195 402.961 243.799C402.343 243.465 401.751 243.052 401.468 242.357C402.214 240.528 404.068 240.502 405.536 239.987C418.874 235.427 425.698 225.432 428.763 212.32C429.69 208.353 428.891 207.425 424.797 207.606C415.553 207.966 406.334 208.378 397.064 208.172C395.545 208.147 393.949 208.379 392.558 207.477C391.657 206.421 390.472 206.395 389.185 206.395C377.597 206.395 366.036 206.215 354.474 207.013C353.238 207.09 352.079 207.477 350.894 207.786C348.937 208.275 348.242 207.297 348.835 205.03C350.843 201.784 350.302 198.074 350.611 194.571C352.465 173.473 351.693 152.297 352.079 131.174C352.156 126.794 352.362 122.363 352.62 117.958C352.723 116.181 353.058 114.481 354.5 113.218C356.225 112.085 358.156 111.956 360.113 112.008C372.808 112.394 385.477 111.364 398.171 111.286C402.652 111.261 407.158 110.874 411.639 110.385C413.158 110.23 414.703 110.05 416.222 110.385C419.467 112.394 421.656 115.563 424.591 117.958C436.359 127.516 449.569 133.595 464.632 135.424C468.289 135.862 472.023 135.476 475.705 135.579C476.58 135.579 477.379 135.759 478.048 136.352C478.666 137.15 479.542 136.867 480.314 136.892C487.395 137.073 492.159 140.087 494.116 145.625C495.97 150.906 494.116 157.115 489.121 161.339C486.391 163.658 483.43 165.77 479.49 165.461C479.207 165.616 478.924 165.745 478.64 165.899C477.868 170.227 478.383 174.58 478.563 178.934C478.64 180.557 479.027 182.206 478.949 183.829C478.666 189.29 479.851 194.674 479.593 200.109C479.516 201.629 479.748 203.278 478.048 204.18C477.173 204.54 476.246 204.566 475.319 204.566C463.036 204.669 450.753 205.519 438.445 205.21C433.707 205.081 433.269 205.571 433.346 210.182C433.398 213.144 432.96 216.107 433.604 219.043H433.681Z" fill="#DBB592"/>
<path d="M335.573 105.542C337.144 104.357 338.946 105.13 340.646 104.975C341.959 104.872 342.5 104.357 342.268 103.043C340.698 93.7692 343.324 85.2939 348.01 77.5915C358.233 60.7182 373.967 52.2171 392.996 48.7652C407.339 46.1634 420.909 48.1727 433.758 54.7675C450.238 63.2427 459.122 76.561 458.349 95.4952C458.246 98.0197 458.993 98.4061 461.104 98.2C462.521 98.0712 463.963 98.2515 465.405 98.3031C464.684 100.029 463.062 99.4881 461.774 99.6169C460.409 99.7714 458.89 99.5138 458.375 101.343C457.757 102.94 457.268 104.589 456.392 106.057C455.362 107.757 454.126 109.226 451.783 108.195C450.753 106.65 450.959 104.846 450.676 103.146C450.212 100.338 449.234 97.7879 446.942 95.9331C444.161 93.6919 441.431 93.9495 439.088 96.6286C437.852 98.0455 437.131 99.7457 436.591 101.523C435.973 103.584 434.582 104.563 432.496 104.563C425.415 104.511 418.334 105.027 411.278 104.228C407.596 103.816 403.862 103.739 400.206 104.099C391.683 104.975 383.185 104.589 374.662 104.589C363.667 104.589 352.748 105.49 341.805 106.315C339.719 106.469 337.504 107.036 335.573 105.516V105.542Z" fill="#F6F0F1"/>
<path d="M260.178 108.659C258.864 112.935 258.864 113.064 253.689 112.935C235.071 112.445 217.613 117.082 200.875 124.81C195.004 127.515 189.571 131.019 184.885 135.553C182.155 138.18 178.473 137.382 175.28 137.511C165.83 137.845 156.379 137.794 146.929 137.588C140.466 137.433 134.028 138.361 127.591 138.232C127.359 127.876 127.153 117.52 126.921 107.164C126.896 105.438 127.72 104.46 129.419 104.253C130.32 104.15 131.273 104.15 132.174 104.15C172.525 104.356 212.901 104.588 253.251 104.82C254.59 104.82 255.929 104.872 257.242 105C259.405 105.232 260.718 106.237 260.152 108.659H260.178Z" fill="#623914"/>
<path d="M402.678 243.052C408.987 245.319 415.424 245.757 421.965 244.34C425.75 243.542 428.866 241.455 431.879 239.085C435.406 236.329 434.428 232.619 434.145 229.193C433.964 226.849 433.784 224.53 433.836 222.186C438.883 223.371 443.93 224.479 448.719 226.488C448.23 237.256 447.818 248.024 447.226 258.792C447.123 260.801 448.05 263.558 445.552 264.562C443.106 265.541 442.05 262.914 440.685 261.574C436.771 257.787 432.934 253.923 429.149 249.982C428.016 248.797 426.935 248.513 425.338 248.848C422.84 249.364 420.265 249.75 417.716 249.776C415.708 249.776 415.373 250.549 415.399 252.326C415.553 262.914 415.27 273.476 414.832 284.063C414.678 288.082 414.24 288.649 410.3 289.061C401.674 289.962 401.365 289.55 402.086 280.92C402.884 271.415 403.451 261.883 404.197 252.352C404.378 250.214 403.605 249.595 401.545 248.874C397.374 247.406 394.284 248.282 391.013 251.09C387.692 253.975 383.881 256.293 380.276 258.844C378.937 259.797 377.598 261.059 375.847 259.874C374.276 258.818 374.714 257.195 374.971 255.649C375.1 254.851 375.126 254.026 375.229 253.202C375.306 252.867 375.46 252.609 375.718 252.378C382.516 249.879 389.571 248.127 396.241 245.242C398.326 244.34 400.155 242.485 402.73 243.052H402.678Z" fill="#E1D82F"/>
<path d="M189.88 256.139C182.464 250.652 177.597 243.464 175.408 234.474C174.352 230.095 175.769 228.472 180.223 228.266C192.815 227.725 205.433 227.647 218.024 227.647C220.265 227.647 222.479 227.132 224.719 226.978C227.423 226.823 228.53 227.699 228.273 230.352C228.273 232.31 228.273 234.294 228.299 236.251C228.17 237.359 227.912 238.493 227.912 239.6C227.861 246.195 224.41 250.136 218.436 252.455C209.192 256.01 199.742 257.633 189.88 256.139V256.139Z" fill="#643811"/>
<path d="M335.573 105.542C344.56 105.361 353.495 104.485 362.456 103.816C365.109 103.61 367.787 103.713 370.465 103.713C382.979 103.764 395.468 103.3 407.957 103.275C416.016 103.275 424.128 103.61 432.213 103.738C434.222 103.764 435.277 103.403 435.818 101.085C436.951 96.1647 440.427 92.9704 443.646 93.2538C447.225 93.5629 450.985 97.8649 451.603 102.399C451.86 104.279 452.066 106.16 452.272 108.04C451.706 109.998 450.032 109.483 448.719 109.535C445.758 109.638 442.822 109.457 440.093 111.003C438.857 111.698 437.286 111.389 435.87 111.441C430.462 111.57 425.055 111.106 419.647 111.801C418.694 111.93 417.845 111.595 417.021 111.157C401.287 112.265 385.503 112.677 369.744 113.038C364.722 113.141 359.675 112.497 354.706 113.656C353.959 114.068 353.212 114.455 352.337 114.532C352.053 114.532 351.796 114.429 351.59 114.223C345.075 114.043 338.535 114.712 332.046 113.63C331.041 113.45 330.011 113.321 329.084 112.961C327.462 112.368 326.175 111.312 326.355 109.38C326.535 107.525 327.771 106.649 329.522 106.16C331.531 105.567 333.539 105.619 335.573 105.593V105.542Z" fill="#DCD8D8"/>
<path d="M392.996 207.374C397.116 207.374 401.21 207.194 405.33 207.374C412.308 207.657 419.235 206.55 426.213 206.73C429.458 206.807 430.591 207.812 429.921 211.006C427.115 224.891 420.291 235.659 406.257 240.657C404.712 241.198 403.219 241.79 401.699 242.357C397.399 242.46 391.451 236.458 391.502 230.842C391.528 228.086 392.455 225.355 391.734 222.599L392.404 222.135C393.047 218.322 392.481 214.458 392.713 210.646C392.764 209.564 392.352 208.43 393.022 207.4L392.996 207.374Z" fill="#B28A65"/>
<path d="M375.615 252.919C375.615 252.919 375.357 253.125 375.203 253.176C362.534 255.752 349.633 256.499 336.81 257.839C336.217 257.89 335.574 257.839 334.981 257.839C343.402 246.478 354.268 238.029 366.705 231.486C370.516 229.476 374.379 227.57 378.576 226.437C379.4 226.849 379.323 227.596 379.271 228.291C378.782 235.916 377.804 243.49 376.593 251.038C376.49 251.759 376.156 252.403 375.666 252.944L375.615 252.919Z" fill="#0D4476"/>
<path d="M375.615 252.919C376.593 244.083 377.546 235.247 378.524 226.437C382.747 224.556 387.202 223.423 391.734 222.599C393.253 223.037 393.125 224.325 392.867 225.355C390.781 233.676 394.232 239.034 401.699 242.357C402.034 242.589 402.369 242.821 402.678 243.053C394 247.303 384.936 250.472 375.589 252.945L375.615 252.919Z" fill="#989223"/>
<path d="M392.996 207.374C392.996 211.341 393.047 215.334 392.996 219.301C392.996 220.254 393.434 221.362 392.378 222.109C392.378 218.013 392.378 213.891 392.429 209.795C392.455 208.095 391.786 207.322 390.06 207.477C379.915 208.353 369.744 207.709 359.572 208.018C356.611 208.121 353.65 208.353 350.663 208.456C348.577 208.533 347.753 207.58 348.011 205.39C348.68 199.594 349.35 193.798 349.684 187.976C350.663 170.33 350.148 152.684 350.56 135.038C350.714 128.082 350.56 121.101 351.538 114.172C351.744 114.172 351.976 114.146 352.182 114.12C352.877 114.738 352.877 115.511 352.852 116.361C351.899 135.888 352.053 155.466 351.796 175.018C351.693 184.009 350.972 192.999 350.045 201.938C349.916 203.149 349.865 204.386 349.118 205.442C348.191 206.163 348.835 206.653 349.35 207.168C349.942 207.76 350.483 207.554 350.843 206.936C351.435 205.931 352.388 206.112 353.289 206.06C365.289 205.262 377.288 205.493 389.288 205.442C390.91 205.442 392.404 205.442 392.97 207.348L392.996 207.374Z" fill="#DFBC9E"/>
<path d="M478.769 165.384C479.026 165.41 479.284 165.435 479.541 165.461C480.056 175.379 480.597 185.297 481.086 195.215C481.215 197.662 481.086 200.135 481.267 202.608C481.421 204.875 480.237 205.777 478.228 206.034C477.61 206.112 476.992 206.06 476.374 206.086C463.036 206.292 449.671 206.549 436.333 206.678C434.144 206.678 433.475 207.374 433.578 209.512C433.758 212.68 433.629 215.875 433.655 219.069C432.496 214.432 432.985 209.795 433.475 205.158C433.578 204.205 434.17 204.308 434.762 204.282C436.101 204.282 437.44 204.231 438.779 204.282C451.912 204.72 465.018 203.535 478.151 203.664C480.185 203.664 479.722 202.093 479.67 201.037C479.361 193.798 479.129 186.559 478.614 179.32C478.331 175.353 478.589 171.36 478.151 167.393C478.074 166.672 478.125 165.951 478.743 165.435L478.769 165.384Z" fill="#DEBC9D"/>
<path d="M457.629 101.188C457.448 99.2301 458.324 98.5603 460.281 98.6891C461.98 98.8179 463.731 98.8179 465.379 98.2512C468.135 98.2512 470.89 98.3542 473.645 98.2512C475.602 98.1739 476.349 98.8952 476.426 100.879C476.735 108.324 477.276 115.768 477.533 123.213C477.662 127.593 478.435 131.946 478.1 136.351C477.302 136.351 476.503 136.351 475.679 136.351C474.031 132.59 474.392 128.494 474.289 124.604C474.134 118.138 473.336 111.724 473.465 105.258C473.542 101.342 472.744 100.93 469.01 101.394C466.358 101.729 463.731 102.27 461.053 102.141C459.843 102.09 458.556 102.244 457.629 101.188V101.188Z" fill="#131417"/>
<path d="M218.256 145.703C225.775 143.745 233.14 143.616 240.376 147.042C248.358 150.829 249.568 159.536 244.599 165.77C239.706 171.901 232.985 174.941 225.466 176.461C224.565 176.641 223.638 176.538 222.814 175.997C221.424 175.662 221.012 174.426 220.419 173.37C218.179 169.454 217.304 165.126 216.917 160.721C216.583 156.96 216.686 153.148 216.917 149.361C216.995 148.021 217.329 146.733 218.256 145.677V145.703Z" fill="#010101"/>
<path d="M195.365 144.981C192.97 144.466 190.884 143.874 189.854 141.4C188.876 139.056 189.108 137.021 190.781 135.115C194.283 131.173 199.279 130.195 203.991 129.061C216.505 126.073 229.123 126.305 241.766 128.494C242.462 128.623 243.157 128.881 243.826 129.138C247.019 130.401 248.822 133.492 248.024 136.377C247.097 139.726 244.367 141.607 240.736 140.834C233.346 139.211 225.853 139.237 218.385 139.443C211.896 139.623 205.562 140.628 199.614 143.487C198.249 144.157 196.73 144.518 195.391 144.981H195.365Z" fill="#010101"/>
<path d="M144.688 180.737C144.817 176.41 146.671 171.283 150.328 166.852C152.8 163.838 155.581 163.143 157.718 164.946C159.778 166.672 159.598 169.197 157.229 172.288C150.044 181.587 153.907 194.313 164.902 197.636C171.649 199.672 178.91 197.095 182.773 191.248C183.004 190.913 183.185 190.552 183.391 190.192C185.451 186.765 187.614 185.709 190.008 186.997C192.532 188.337 192.918 191.17 191.064 194.519C185.605 204.386 174.018 209.358 163.177 206.498C152.182 203.613 144.482 193.463 144.714 180.712L144.688 180.737Z" fill="#C17C94"/>
<path d="M218.256 145.703C217.329 153.508 216.994 161.262 219.492 168.913C220.316 171.438 221.372 173.808 222.814 176.023C222.737 176.564 222.505 177.002 221.887 177.053C216.325 177.388 210.814 177.053 205.767 174.426C197.862 170.253 196.394 162.035 202.188 155.234C206.463 150.237 212.025 147.429 218.23 145.728L218.256 145.703Z" fill="#EAE9E8"/>
<path d="M128.749 164.508C128.749 166.955 128.827 169.402 128.724 171.85C128.672 172.854 128.26 174.039 127.23 174.349C126.046 174.709 125.325 173.55 124.887 172.726C122.801 168.862 120.87 164.92 121.385 160.283C121.642 158.016 124.295 155.517 126.561 155.492C128.106 155.492 128.801 156.213 128.801 157.733C128.801 159.974 128.801 162.215 128.801 164.482C128.801 164.482 128.801 164.482 128.775 164.482L128.749 164.508Z" fill="#533013"/>
<path d="M457.628 101.188C461.517 101.678 465.353 100.673 469.216 100.621C469.422 100.621 469.628 100.621 469.834 100.57C473.027 99.5138 474.366 100.621 474.469 104.331C474.572 108.401 474.803 112.471 474.906 116.516C475.087 123.136 475.962 129.731 475.705 136.377C458.632 137.588 443.466 132.281 429.612 122.698C424.926 119.453 420.162 116.155 417.021 111.158C422.737 110.411 428.479 110.642 434.221 110.591C436.925 110.591 439.5 110.874 442.127 109.019C443.646 107.938 446.504 108.659 448.744 108.582C449.929 108.53 451.217 109.045 452.272 108.041C454.59 107.938 455.517 106.418 456.161 104.46C456.521 103.326 457.139 102.296 457.654 101.188H457.628Z" fill="#060707"/>
<path d="M464.04 162.19C463.782 181.871 444.547 195.395 427.166 188.8C420.265 186.173 415.553 181.201 413.132 174.194C412.076 171.154 413.235 168.527 415.81 167.574C418.05 166.749 420.445 167.831 421.604 170.768C424.745 178.754 432.342 182.566 440.479 180.66C448.178 178.883 454.435 171.026 454.641 162.885C454.641 161.958 454.564 161.005 454.744 160.129C455.208 157.656 456.65 155.827 459.199 155.749C461.774 155.672 463.293 157.475 463.86 159.897C464.091 160.876 464.014 161.932 464.014 162.215L464.04 162.19Z" fill="#D74367"/>
<path d="M378.164 161.7C376.799 161.056 375.769 160.051 375.048 158.712C374.404 156.548 373.864 154.358 373.349 152.194C372.422 148.356 373.503 144.878 375.821 141.761C379.735 136.429 389.751 133.131 396.446 135.836C396.73 136.042 396.961 136.3 397.142 136.635C399.356 144.955 399.923 153.328 398.017 161.777C397.579 162.808 396.987 163.761 396.498 164.765C394.592 166.904 392.172 166.698 390.035 165.616C388.155 164.662 386.455 163.941 384.292 164.25C383.005 164.431 381.898 163.194 380.533 163.091H380.559C380.069 162.112 378.962 162.189 378.19 161.7H378.164Z" fill="#020203"/>
<path d="M391.297 119.247C398.172 119.478 404.609 120.921 410.377 124.656C411.15 125.146 411.923 125.687 412.566 126.331C413.622 127.413 413.854 128.727 412.901 129.963C411.922 131.225 410.635 131.225 409.348 130.375C406.953 128.778 404.506 127.284 401.725 126.408C392.224 123.471 383.108 123.626 374.739 129.783C373.349 130.813 371.856 131.251 370.645 129.783C369.306 128.16 370.104 126.666 371.495 125.532C377.263 120.792 384.138 119.427 391.271 119.247H391.297Z" fill="#030302"/>
<path d="M349.144 205.493C349.736 197.559 350.405 189.625 350.92 181.691C351.101 178.831 351.049 175.946 350.998 173.061C350.586 155.646 351.976 138.258 351.641 120.844C351.59 118.603 352.594 116.439 352.234 114.146C352.929 113.373 353.856 113.656 354.706 113.631C353.856 115.408 353.547 117.263 353.444 119.247C352.568 137.665 353.135 156.11 352.774 174.555C352.594 183.829 351.641 193.077 350.946 202.325C350.843 203.536 350.895 205.081 349.144 205.493V205.493Z" fill="#DDB99A"/>
<path d="M396.009 164.791C395.983 163.709 396.344 162.834 397.297 162.267C402.318 162.808 408.343 159.021 410.455 153.972C412.412 149.283 410.944 144.492 406.67 140.808C403.734 138.284 400.284 137.227 396.627 136.532C396.473 136.48 396.318 136.429 396.164 136.377C395.494 135.63 395.314 134.832 395.932 133.956C398.352 132.925 400.464 134.265 402.575 135.038C406.824 136.583 410.3 139.159 412.489 143.23C415.991 149.747 414.575 156.265 408.318 161.442C404.738 164.405 400.593 165.976 395.906 166.002C395.7 165.564 395.752 165.152 396.009 164.766V164.791Z" fill="#F3EDE8"/>
<path d="M395.932 133.956C396.009 134.754 396.086 135.553 396.164 136.377C388.13 133.956 377.855 138.052 374.894 144.852C373.658 147.686 373.298 150.597 374.559 153.457C375.358 155.234 375.486 156.908 375.074 158.712C370.233 152.89 370.388 146.063 375.152 140.344C379.375 135.269 389.906 131.56 395.958 133.956H395.932Z" fill="#12100F"/>
<path d="M478.125 151.834C478.125 150.597 478.125 149.361 478.125 148.124C478.202 145.033 479.413 144.234 482.194 145.548C484.794 146.784 486.545 148.485 486.236 151.731C485.953 155.002 483.79 156.934 481.344 158.377C479.902 159.227 478.228 158.66 478.151 156.445C478.099 154.899 478.151 153.353 478.151 151.808L478.125 151.834Z" fill="#B28A66"/>
<path d="M478.77 165.384C479.748 176.126 479.413 186.92 480.572 197.662C480.752 199.285 480.778 200.959 480.521 202.557C480.34 203.613 480.031 205.751 478.152 203.639C479.465 200.187 478.77 196.606 478.538 193.128C478.435 191.531 478.177 189.908 478.152 188.285C478.023 180.866 477.688 173.447 477.019 166.079C476.967 165.59 476.684 164.972 477.25 164.714C477.868 164.431 478.383 164.894 478.77 165.41V165.384Z" fill="#DDB99A"/>
<path d="M396.009 164.791C395.983 165.203 395.932 165.616 395.906 166.028C390.37 167.238 385.297 165.899 380.533 163.091C383.52 163.555 387.383 162.241 389.314 164.096C391.863 166.543 393.64 165.95 396.009 164.791V164.791Z" fill="#171412"/>
<path d="M423.175 205.699C424.617 204.463 426.162 204.849 428.222 205.132C426.342 206.601 424.72 205.957 423.175 205.699Z" fill="#DEB99B"/>
<path d="M378.164 161.7C379.246 161.674 380.276 161.751 380.533 163.117C379.58 162.936 378.808 162.395 378.164 161.7Z" fill="#171412"/>
<path d="M355.942 94.078C356.406 87.9727 359.058 81.8674 362.431 76.1228C364.852 72.001 367.658 68.0597 371.212 64.7365C371.933 64.0667 372.577 62.3923 373.864 63.5515C375.255 64.788 373.838 65.7154 373.014 66.5655C366.036 73.7528 361.041 82.0477 358.723 91.8883C358.414 93.2279 358.491 94.5159 358.388 95.8555C358.311 96.9117 358.723 98.5346 357.101 98.4573C355.556 98.38 356.045 96.7829 355.942 95.7267C355.916 95.4175 355.942 95.1084 355.942 94.1037V94.078Z" fill="#DCD8D8"/>
<path d="M406.515 93.8979C407.88 82.1768 410.97 71.2285 420.369 63.0881C421.012 62.5471 421.604 61.3106 422.609 62.2637C423.819 63.3972 422.454 64.0927 421.811 64.711C413.519 72.7999 410.146 82.9753 409.013 94.1555C408.91 95.1602 409.579 96.8088 407.828 96.7831C405.82 96.7831 406.876 94.9541 406.489 93.8979H406.515Z" fill="#DCD8D8"/>
<path d="M446.299 107.912C443.569 108.144 441.561 108.247 441.664 105.233C441.689 104.305 440.943 103.764 440.016 103.739C437.698 103.713 437.853 102.451 438.496 100.879C438.728 100.312 438.857 99.6942 439.114 99.1532C440.994 95.2891 443.852 94.9027 446.814 97.9682C449.08 100.312 449.286 103.378 449.44 106.237C449.569 108.685 447.097 107.783 446.299 107.912V107.912Z" fill="#F6EFF0"/>
<path d="M220.78 164.07C220.703 162.215 220.574 161.082 222.094 161.056C223.433 161.03 223.767 161.958 223.845 163.091C223.999 165.539 224.591 167.909 225.673 170.124C226.111 171 226.265 172.004 225.312 172.597C224.128 173.344 223.304 172.365 222.84 171.515C221.424 168.99 221.115 166.105 220.78 164.096V164.07Z" fill="#F1EEEB"/>
<path d="M224.153 156.394C224.153 156.574 223.947 157.372 222.711 157.398C221.269 157.45 220.728 156.548 220.651 155.312C220.6 154.23 220.831 153.199 222.145 153.07C223.947 152.916 223.87 154.358 224.153 156.394Z" fill="#F0EEEB"/>
<path d="M396.627 136.532C399.202 135.012 401.442 136.815 403.399 137.768C410.043 140.911 414.781 148.021 410.558 155.543C408.034 160.051 403.837 162.267 398.996 163.477C398.043 163.709 397.399 163.323 397.271 162.267C398.893 153.637 398.275 145.084 396.627 136.532V136.532Z" fill="#F4F1EE"/>
<path d="M395.571 152.272C395.314 154.41 395.159 156.548 394.773 158.66C394.515 160.051 393.717 161.314 392.069 160.85C390.73 160.464 390.524 159.407 390.885 157.913C391.451 155.646 391.554 153.276 391.709 150.932C391.812 149.387 392.018 147.764 393.82 147.789C395.829 147.815 395.597 149.618 395.52 151.061C395.52 151.473 395.468 151.885 395.417 152.297H395.545L395.571 152.272Z" fill="#EAEEEF"/>
<path d="M393.82 145.136C392.146 145.085 391.322 144.08 391.219 142.663C391.116 141.195 391.889 140.139 393.511 140.035C395.082 139.958 395.751 141.092 395.88 142.302C396.034 143.694 395.391 144.853 393.846 145.136H393.82Z" fill="#E3E8EA"/>
</g>
</g>
<defs>
<clipPath id="clip0_5484_43220">
<rect width="595" height="297" fill="white"/>
</clipPath>
<clipPath id="clip1_5484_43220">
<rect width="618" height="298" fill="white" transform="translate(-12)"/>
</clipPath>
</defs>
</svg>
