<svg width="595" height="297" viewBox="0 0 595 297" fill="none" xmlns="http://www.w3.org/2000/svg">
<g clip-path="url(#clip0_5484_43211)">
<rect width="595" height="297" fill="#2C6FC8"/>
<g clip-path="url(#clip1_5484_43211)">
<path d="M432.008 220.357C444.497 221.182 456.625 224.222 468.934 226.154C469.732 226.282 470.556 226.385 471.354 226.488C472.796 227.287 472.796 228.601 472.642 229.966C470.659 247.509 469.011 265.078 466.977 282.621C466.513 286.691 466.23 290.787 465.638 294.857C465.483 295.965 465.406 297.124 464.582 298.026H359.033C358.003 297.202 357.642 296.042 357.41 294.806C353.471 273.734 349.531 252.661 345.617 231.563C345.411 230.43 345.231 229.322 346.132 228.369C355.325 225.51 364.723 223.706 374.251 222.521C378.01 222.058 381.796 221.826 385.555 221.465C388.233 221.173 389.916 222.281 390.602 224.788C396.447 246.195 402.344 267.603 408.086 289.035C408.292 289.808 408.498 290.607 408.988 291.818C410.945 286.253 412.335 280.947 413.957 275.691C419.288 258.406 424.386 241.043 429.639 223.758C430.051 222.367 430.334 220.924 431.957 220.357H432.008Z" fill="#AF9A84"/>
<path d="M464.607 298C465.74 286.923 466.822 275.82 468.006 264.743C469.268 252.738 470.607 240.76 471.92 228.781C472.023 227.931 471.972 227.132 471.38 226.462C473.723 227.132 476.092 227.75 478.435 228.472C479.877 228.91 480.856 229.863 481.551 231.254C483.225 234.603 483.971 238.209 484.306 241.842C485.104 250.136 485.362 258.509 486.289 266.804C487.448 277.185 487.473 287.593 487.448 298H464.607V298Z" fill="#FDF2E6"/>
<path d="M346.182 228.343C346.929 235.375 348.577 242.228 349.839 249.157C352.671 264.846 355.658 280.534 358.568 296.222C358.671 296.815 358.877 297.407 359.057 298H333.127C333.256 288.932 334.595 279.916 334.826 270.848C335.007 263.377 335.831 255.984 336.243 248.565C336.5 243.799 337.118 239.059 337.942 234.345C338.406 231.614 339.822 230.095 342.423 229.682C343.787 229.476 344.92 228.806 346.156 228.369L346.182 228.343Z" fill="#FDF2E6"/>
<path d="M194.258 106.16C210.687 105.49 227.115 105.387 243.544 104.717C251.835 104.382 260.178 105.026 268.47 103.841C270.349 103.558 271.894 104.485 272.255 106.623C272.384 107.422 272.564 108.246 272.59 109.045C272.847 117.366 272.95 125.661 273.362 133.981C274.109 148.639 274.83 163.271 275.268 177.929C275.345 180.789 275.705 183.648 275.808 186.507C275.937 189.444 274.418 190.861 271.688 191.222C271.173 191.299 270.658 191.273 270.143 191.299C259.148 191.531 248.153 191.685 237.158 191.994C225.261 192.329 213.365 192.819 201.442 193.154C199.46 193.205 199.125 194.055 199.048 195.781C198.945 199.027 199.64 202.324 198.636 205.545C196.91 203.123 197.915 200.392 197.76 197.791C197.554 194.107 197.58 193.875 193.923 194.03C188.696 194.261 183.495 194.777 178.267 194.648C175.564 194.596 175.1 195.343 176.233 197.791C178.834 203.406 182.259 208.507 186.559 212.989C189.881 216.441 192.996 220.125 196.498 223.448C197.039 225.355 196.086 227.055 195.623 228.781C194.593 232.593 193.975 236.535 192.584 240.27C187.898 243.258 182.027 243.542 178.473 241.017C177.006 233.469 174.74 226.102 172.886 218.631C172.654 217.729 172.448 216.828 172.628 215.9C172.757 209.228 172.474 202.556 172.113 195.91C171.984 193.334 170.336 193.823 168.92 193.901C155.994 194.57 143.067 194.802 130.141 195.163C121.823 195.395 113.506 195.652 105.189 195.73C102.485 195.73 101.352 194.802 101.61 192.149C101.687 191.428 101.61 190.706 101.635 189.985C101.841 186.121 101.996 182.746 97.4896 180.376C93.4726 178.238 92.4169 173.472 92.4941 169.042C92.6486 162.601 94.9404 156.986 100.425 153.147C101.764 152.22 102.305 151.241 102.331 149.618C102.434 144.801 102.717 139.984 102.923 135.166C104.185 134.316 105.292 135.218 106.425 135.553C113.403 137.742 120.047 137.176 126.252 133.183C129.883 130.864 132.407 127.696 132.896 123.291C133.153 120.843 134.364 120.328 136.655 120.56C140.029 120.921 143.402 121.075 146.749 119.993C150.663 118.731 153.779 116.567 155.607 112.857C156.586 110.9 158.002 110.23 160.114 110.616C164.414 111.389 168.302 110.462 171.624 107.551C172.937 106.392 174.456 105.902 176.156 105.979C177.495 106.031 178.808 105.799 180.121 105.438C183.881 105.026 187.666 105.258 191.426 105.258C192.456 105.258 193.46 105.438 194.284 106.16H194.258Z" fill="#F0BEA6"/>
<path d="M357.23 151.138C356.766 133.698 356.56 116.233 355.736 98.8183C355.427 92.4812 355.736 86.1183 354.964 79.7811C354.629 77.102 356.663 75.9428 359.11 75.9428C362.406 75.9428 365.676 75.6336 368.946 75.2988C369.204 75.1442 369.487 74.9896 369.796 75.0154C378.731 75.4533 387.641 74.0107 396.55 74.5002C416.687 75.5821 437.235 90.1369 440.969 111.621C441.638 115.511 441.741 119.427 441.02 123.265C440.634 125.455 441.02 126.305 443.338 126.253C450.419 126.073 457.526 126.511 464.607 125.944C478.899 125.996 486.881 138.155 481.396 151.422C478.049 159.511 472.307 165.204 464.376 168.733C462.908 169.403 462.11 169.995 462.032 171.773C461.62 180.48 461.389 189.187 461.492 197.894C461.543 201.14 460.359 202.17 457.114 202.454C448.823 203.201 440.505 202.866 432.214 203.02C426.806 203.123 426.806 203.098 426.961 208.482C427.424 209.229 427.193 210.079 427.218 210.877C427.373 214.638 427.218 218.4 427.708 222.186C428.635 229.631 426.24 233.547 419.262 236.329C414.524 238.21 409.554 238.828 404.533 237.359C403.065 236.922 401.546 236.484 400.799 234.938C400.541 233.083 402.138 232.594 403.219 231.769C410.996 225.844 417.33 218.709 421.708 209.924C421.991 209.383 422.223 208.817 422.429 208.224C423.407 205.365 422.815 204.411 419.777 204.386C415.579 204.386 411.382 204.18 407.185 204.54C406.206 204.618 404.842 205.262 404.533 203.484C405.949 200.264 405.872 196.812 405.511 193.463C404.687 185.993 405.099 178.496 404.996 171C404.893 163.71 403.94 162.576 396.756 163.272C390.602 163.89 384.448 163.787 378.293 163.735C372.731 163.684 367.247 164.688 361.685 164.405C357.719 164.199 357.565 164.07 357.487 160.232C357.41 157.166 357.848 154.101 357.23 151.061V151.138Z" fill="#F3C799"/>
<path d="M178.576 240.708C183.263 242.846 187.795 241.533 192.301 239.987C194.438 240.94 194.696 243.207 195.7 244.933C197.631 248.282 197.657 248.308 199.975 245.397C200.747 244.418 201.468 243.387 202.369 242.589C205.665 239.704 205.717 236.38 204.223 232.568C202.73 228.729 201.648 224.762 200.515 220.821C200.232 219.791 199.485 218.709 200.515 217.652C209.888 221.903 216.867 228.91 222.763 237.076C233.81 252.378 239.655 269.792 243.003 288.134C243.544 291.096 245.475 294.986 243.672 296.867C242.205 298.386 238.059 297.382 235.072 297.382C198.97 297.382 162.895 297.382 126.793 297.382C125.325 297.382 123.368 298.129 123.78 295.166C126.896 272.265 133.256 250.6 148.166 232.31C153.625 225.612 160.165 220.203 168.173 216.751C169.178 216.313 170.182 215.617 171.392 216.081C172.242 217.317 171.392 218.451 171.083 219.559C169.538 224.865 167.813 230.095 166.191 235.35C165.547 237.462 165.959 239.06 167.324 240.708C168.946 242.666 170.748 244.521 172.087 246.685C173.04 248.23 173.761 247.767 174.508 246.582C175.229 245.448 175.77 244.237 176.439 243.104C176.98 242.177 177.186 240.914 178.551 240.734L178.576 240.708Z" fill="#009B75"/>
<path d="M179.502 106.263C178.781 106.83 177.932 106.778 177.133 106.701C174.893 106.546 173.142 107.113 171.34 108.762C168.121 111.698 164.052 112.342 159.804 111.441C158.413 111.157 157.332 110.771 156.585 112.574C154.139 118.602 149.04 120.921 143.015 121.565C140.594 121.822 138.096 121.951 135.676 121.307C134.594 121.024 134.054 121.075 133.796 122.415C132.2 130.736 127.281 135.424 119.067 137.099C113.402 138.258 108.098 137.305 102.896 135.141C101.918 133.981 100.63 134.419 99.4456 134.522C96.5358 134.78 93.7033 134.471 90.9738 133.466C84.4848 131.096 81.6266 125.609 83.6608 118.989C84.2273 117.16 83.8926 116.876 82.0643 116.722C70.1163 115.666 64.0136 103.275 70.3223 92.9704C73.7471 87.4061 78.8198 84.0572 85.1801 82.9753C87.4718 82.5889 88.7078 81.5584 89.9438 79.7809C96.2268 70.6874 107.814 67.5446 116.801 72.3876C118.913 73.5211 120.664 75.0925 122.157 76.9473C122.904 77.8746 123.522 78.0807 124.294 76.9988C130.603 68.1113 143.787 67.2097 153.984 72.4907C157.023 74.0621 159.881 75.8653 162.301 78.2611C163.486 79.446 164.748 80.0385 166.396 79.8067C166.215 81.069 167.039 81.8418 167.683 82.7692C172.061 88.9002 175.794 95.3147 175.202 103.275C175.099 104.64 175.46 105.439 176.979 105.439C177.88 105.439 178.859 105.413 179.477 106.289L179.502 106.263Z" fill="#D29B45"/>
<path d="M464.606 125.996C464.065 127.155 463.035 127.129 461.98 127.129C455.207 127.129 448.435 127.181 441.663 127.181C440.324 127.181 438.908 127.464 439.603 125.094C441.637 118.139 440.787 111.235 438.135 104.692C431.517 88.411 418.745 79.575 402.008 76.0201C395.442 74.629 388.772 75.1442 382.155 76.0201C378.756 76.458 375.485 74.732 372.035 75.3503C371.056 75.5306 370.001 75.3503 368.971 75.3503C371.185 74.0622 373.58 74.8866 375.872 74.8093C377.803 74.732 378.447 74.1138 378.112 72.2075C377.674 69.7087 377.339 67.1841 377.005 64.6596C376.721 62.5472 377.185 61.1819 379.837 61.0016C381.434 60.8985 383.056 60.5379 384.704 60.5379C397.399 60.5894 410.068 59.4559 422.762 59.1725C432.264 58.9665 441.74 58.1679 451.268 57.9876C454.409 57.936 457.551 57.3435 460.744 57.4466C463.061 57.5239 464.555 58.5801 464.632 60.8985C464.812 66.8235 465.379 72.8257 465.095 78.6734C464.323 94.4647 465.018 110.256 464.683 126.022L464.606 125.996Z" fill="#F2F0ED"/>
<path d="M400.979 234.551C403.065 236.973 406.155 237.359 408.833 237.334C413.597 237.334 418.361 236.69 422.558 233.753C425.596 231.64 426.935 228.987 426.935 225.484C426.961 219.842 426.935 214.2 426.935 208.559C428.146 210.826 427.425 213.299 427.476 215.643C427.605 220.177 427.528 220.177 431.957 220.332C430.309 222.65 430 225.484 429.201 228.111C422.635 249.673 416.146 271.26 409.631 292.848C409.528 293.234 409.374 293.595 409.142 294.316C407.88 292.565 407.7 290.736 407.237 289.061C401.314 267.422 395.392 245.783 389.675 224.093C388.98 221.439 387.564 221.31 385.529 221.413C387.332 220.28 389.34 220.976 391.246 220.924C392.971 220.873 393.589 220.306 393.563 218.58C393.512 214.381 393.563 210.156 393.615 205.957C395.211 206.446 394.954 207.863 394.98 208.997C395.083 212.062 395.211 215.128 394.98 218.168C394.542 224.531 396.19 230.069 400.902 234.526L400.979 234.551Z" fill="#FDF2E6"/>
<path d="M357.23 151.138C358.311 153.379 357.693 155.775 357.744 158.094C357.899 163.503 357.822 163.606 363.075 163.452C375.255 163.143 387.434 162.653 399.614 162.344C404.867 162.215 405.433 162.731 405.82 167.934C406 170.278 405.871 172.648 405.923 175.018C406.129 183.004 406.283 190.99 406.592 198.976C406.67 201.062 406.335 202.84 404.584 204.128C401.03 206.034 397.297 205.133 393.614 204.875C381.847 204.411 370.079 205.802 358.311 205.493C354.423 205.39 353.367 204.489 353.47 200.547C353.727 189.599 352.44 178.676 352.801 167.728C352.878 165.513 352.981 163.684 355.916 164.225C357.667 164.56 357.127 163.271 357.152 162.524C357.204 158.738 357.204 154.951 357.204 151.138H357.23Z" fill="#F2F0ED"/>
<path d="M393.666 204.875C397.271 203.716 401.005 204.772 404.636 204.128C409.811 203.304 415.039 203.69 420.24 203.613C423.948 203.561 424.746 204.823 423.33 208.353C421.038 214.123 417.459 219.069 413.365 223.655C409.683 227.776 405.588 231.434 401.005 234.551C396.009 232.336 394.773 227.776 394.361 223.062C393.975 218.399 394.207 213.685 394.13 208.971C394.13 207.966 394.31 206.91 393.718 205.983C393.718 205.622 393.718 205.236 393.718 204.875H393.666Z" fill="#CF9E68"/>
<path d="M179.502 106.263C177.802 105.902 175.562 106.958 174.532 105.748C173.76 104.846 174.532 102.708 174.506 101.111C174.249 93.7173 170.67 87.7408 166.189 82.2023C165.314 81.1203 164.515 80.4248 166.447 79.8065C181.33 77.6169 196.342 86.9165 194.282 106.16C189.364 106.185 184.446 106.237 179.528 106.263H179.502Z" fill="#B58539"/>
<path d="M195.982 223.423C187.511 216.184 180.12 208.069 175.305 197.894C173.657 194.442 174.095 193.618 177.829 193.798C183.88 194.081 189.88 193.18 195.931 193.102C197.914 193.077 198.66 193.618 198.583 195.679C198.454 198.95 198.635 202.222 198.66 205.493C198.66 208.971 198.609 212.449 198.583 215.901C198.248 218.58 198.429 221.439 196.008 223.397L195.982 223.423Z" fill="#C18A6D"/>
<path d="M195.983 223.423C197.271 221.079 196.859 218.142 198.558 215.926C199.82 215.823 200.078 216.802 200.49 217.652C201.88 223.861 204.146 229.811 205.974 235.891C206.412 237.359 206.361 238.364 205.485 239.781C203.528 242.872 200.49 245.139 198.945 248.591C198.275 250.085 197.194 249.235 196.576 247.999C195.185 245.294 193.717 242.666 192.275 239.987C192.868 234.835 194.619 229.94 195.803 224.917C195.906 224.427 195.932 223.912 195.983 223.423V223.423Z" fill="#D03E1A"/>
<path d="M178.575 240.708C177.236 243.181 175.845 245.654 174.532 248.153C173.94 249.286 172.807 249.905 172.266 248.694C170.592 244.959 167.245 242.537 165.236 239.111C164.721 238.235 164.67 237.565 165.005 236.561C167.219 229.734 169.305 222.882 171.442 216.029C171.828 215.952 172.24 215.901 172.627 215.823C174.97 220.692 175.614 226.05 176.953 231.202C177.751 234.294 179.373 237.282 178.601 240.657L178.575 240.708Z" fill="#D03E1A"/>
<path d="M218.566 127.799C218.926 127.464 219.261 126.898 219.673 126.795C226.548 125.352 232.754 126.769 237.852 131.638C242.565 136.146 243.929 141.787 241.895 147.97C239.243 156.033 229.587 161.546 221.295 160.077C220.239 159.897 219.724 159.279 219.106 158.609C218.051 158.171 217.639 157.218 217.33 156.239C214.523 147.635 214.497 138.954 216.892 130.246C217.149 129.293 217.458 128.237 218.566 127.825V127.799Z" fill="#080A0A"/>
<path d="M171.444 185.194C161.581 185.194 153.547 179.604 150.329 170.716C150.123 170.149 149.917 169.557 149.839 168.939C149.633 167.367 149.994 165.95 151.693 165.512C153.419 165.075 154.371 166.131 154.835 167.702C156.303 172.854 159.521 176.487 164.465 178.573C173.632 182.412 184.01 177.749 186.404 168.63C186.713 167.47 186.688 166.208 186.816 164.997C186.971 163.503 187.666 162.395 189.263 162.344C191.039 162.292 191.683 163.477 191.838 165.126C192.559 172.751 187.022 180.814 178.911 183.751C176.413 184.653 173.813 185.297 171.444 185.168V185.194Z" fill="#C85271"/>
<path d="M218.566 127.799C214.961 138.129 215.192 148.382 219.106 158.583C218.36 159.433 217.484 159.253 216.583 158.918C210.326 156.522 204.738 151.035 205.227 142.225C205.562 136.017 210.763 129.319 217.201 127.438C217.793 127.258 218.179 127.438 218.566 127.825V127.799Z" fill="#F7F3F1"/>
<path d="M225.004 113.038C230.952 113.45 236.952 114.172 242.153 117.752C243.003 118.345 243.801 118.963 244.574 119.659C245.887 120.844 246.865 122.209 245.346 123.883C243.981 125.377 242.462 124.733 241.252 123.677C238.188 121.05 234.608 119.556 230.72 118.912C222.403 117.572 214.523 118.757 207.468 123.626C205.768 124.785 203.992 125.687 202.653 123.755C201.314 121.797 202.91 120.354 204.532 119.221C210.635 114.944 217.536 113.321 225.004 113.038V113.038Z" fill="#B58539"/>
<path d="M103.462 168.166C103.462 169.918 103.462 171.644 103.462 173.395C103.462 175.405 102.458 175.714 100.913 174.787C97.1536 172.52 97.2051 163.838 100.965 161.546C102.535 160.592 103.514 160.979 103.514 162.937C103.514 164.688 103.514 166.414 103.514 168.166H103.462Z" fill="#C28A6E"/>
<path d="M392.944 146.99C387.511 149.953 376.412 147.737 371.468 142.869C366.627 138.077 364.387 132.564 366.396 125.867C368.636 118.345 374.301 114.429 381.511 112.394C383.803 111.75 386.146 111.492 388.515 111.801C389.004 112.162 389.519 112.523 389.802 113.089C393.33 120.946 395.545 129.087 394.669 137.768C394.36 140.859 394.978 144.182 392.944 146.965V146.99Z" fill="#010101"/>
<path d="M386.919 93.7432C395.52 93.7947 402.266 95.6495 407.803 100.905C409.708 102.708 410.403 104.923 409.296 107.319C408.009 110.05 404.738 110.591 402.034 108.195C397.683 104.305 392.559 102.966 386.997 103.197C381.357 103.429 376.156 105.129 371.624 108.633C368.534 111.029 365.959 110.9 364.079 108.453C362.38 106.237 363.229 103.275 366.062 101.085C372.551 96.0359 379.967 93.872 386.919 93.7432V93.7432Z" fill="#F8F1F4"/>
<path d="M392.945 146.991C393.357 142.328 394 137.691 393.923 132.951C393.82 125.429 391.116 118.654 388.516 111.802C394.721 112.42 400.077 114.481 404.326 119.401C410.017 125.996 409.09 137.614 400.85 143.513C398.507 145.188 396.112 147.068 392.919 147.017L392.945 146.991Z" fill="#EEECE9"/>
<path d="M462.109 146.579C462.109 144.337 462.16 142.07 462.109 139.829C462.031 137.176 463.37 136.661 465.636 137.279C469.525 138.309 471.945 142.354 471.121 146.269C470.426 149.593 468.778 152.323 466.409 154.667C465.533 155.543 464.658 156.548 463.242 155.981C461.903 155.44 462.16 154.152 462.16 153.045C462.16 150.906 462.16 148.743 462.16 146.604C462.16 146.604 462.16 146.604 462.134 146.604L462.109 146.579Z" fill="#CF9E68"/>
<path d="M401.03 188.311C401.03 190.681 400.85 193.051 401.082 195.395C401.339 198.306 400.412 199.465 397.348 199.311C393.151 199.104 388.928 199.233 384.705 199.311C377.006 199.465 369.332 199.671 361.633 199.929C359.856 199.98 359.032 199.594 359.006 197.61C358.878 188.903 358.672 180.196 358.337 171.489C358.26 169.248 358.826 168.398 361.221 168.501C373.117 168.939 385.014 167.805 396.91 167.805C399.511 167.805 400.644 168.269 400.464 171.128C400.078 176.873 401.494 182.566 401.03 188.336V188.311Z" fill="#F3C799"/>
<path d="M222.016 145.316C221.887 148.227 222.531 150.984 223.612 153.637C223.947 154.487 224.359 155.517 223.277 156.058C222.067 156.625 221.32 155.749 220.934 154.745C219.621 151.087 218.565 147.351 219.235 143.41C219.389 142.534 219.286 141.117 220.883 141.349C222.428 141.581 221.938 142.817 221.99 143.771C222.016 144.286 221.99 144.801 221.99 145.316H222.016Z" fill="#E7E5E5"/>
<path d="M223.251 135.27C223.251 136.841 223.174 138.722 221.243 138.722C219.749 138.722 219.492 137.073 219.517 135.656C219.517 134.059 219.698 132.256 221.603 132.23C223.225 132.23 223.328 133.904 223.251 135.27V135.27Z" fill="#E7E5E5"/>
<path d="M385.605 136.326C385.605 134.78 385.605 133.234 385.605 131.715C385.605 130.633 386.12 129.86 387.125 129.705C388.361 129.525 389.159 130.427 389.185 131.508C389.313 134.78 389.288 138.077 389.21 141.349C389.185 142.328 388.386 143.101 387.356 143.075C386.146 143.024 385.605 142.148 385.605 140.963C385.605 139.417 385.605 137.871 385.605 136.351V136.326Z" fill="#F8EFE4"/>
<path d="M388.696 123.6C388.902 125.223 388.103 126.459 386.61 126.356C384.292 126.202 384.37 124.193 384.292 122.415C384.241 120.972 384.421 119.53 386.275 119.71C388.593 119.916 388.541 121.9 388.696 123.6Z" fill="#F9EFE4"/>
<path d="M389.983 177.955C390.317 176.641 388.669 173.937 391.322 173.602C394.103 173.267 393.639 176.255 393.974 177.981C395.261 184.55 389.596 192.355 382.67 193.746C373.528 195.576 366.19 190.655 364.284 181.484C363.949 179.887 363.692 178.213 365.7 177.723C367.915 177.182 367.915 179.243 368.069 180.48C369.074 188.981 378.575 192.948 385.322 188.337C388.901 185.889 390.214 182.438 390.008 177.955H389.983Z" fill="#E076AC"/>
</g>
</g>
<defs>
<clipPath id="clip0_5484_43211">
<rect width="595" height="297" fill="white"/>
</clipPath>
<clipPath id="clip1_5484_43211">
<rect width="618" height="298" fill="white" transform="translate(-12)"/>
</clipPath>
</defs>
</svg>
