<svg width="595" height="287" viewBox="0 0 595 287" fill="none" xmlns="http://www.w3.org/2000/svg">
<g clip-path="url(#clip0_5114_44006)">
<path d="M331.613 287H0.0244141C0.0244141 191.557 0.0244141 96.1133 0.0244141 0.64509C1.06566 0.0992741 2.18129 0.372182 3.24733 0.372182C199.126 0.372182 395.005 0.372182 590.884 0.372182C594.975 0.372182 594.553 -0.0743944 594.553 3.99442C594.553 97.2545 594.553 190.515 594.553 283.775C594.553 284.842 594.826 285.958 594.281 287H480.189C479.049 285.809 479.123 284.271 479.148 282.807C479.347 270.055 478.256 257.402 476.892 244.749C476.669 242.789 476.743 240.804 476.793 238.844C477.314 236.487 476.52 234.279 476.049 232.046C475.702 230.434 475.553 228.796 475.206 227.159C474.264 222.916 471.859 220.46 467.521 219.914C466.951 219.84 466.405 219.617 465.835 219.393C464.992 218.947 464.1 218.922 463.182 218.972C459.786 218.972 456.588 217.632 453.216 217.483C452.274 217.036 451.382 216.391 450.241 216.59C449.15 216.664 448.084 216.59 447.043 216.218C446.101 215.622 445.134 215.225 443.994 215.448C439.159 214.679 434.25 214.58 429.466 213.538C428.3 213.29 427.135 213.166 425.97 213.042C424.483 213.166 422.995 213.29 421.731 212.223C420.243 209.147 421.111 205.872 420.937 202.671C421.483 200.29 420.491 197.759 421.706 195.427C422.846 194.41 424.259 194.459 425.648 194.459C432.664 194.41 439.705 194.435 446.721 194.459C447.712 194.459 448.679 194.435 449.646 194.211C453.439 193.417 454.158 192.673 454.183 188.902C454.208 181.782 454.183 174.661 454.381 167.541C454.381 167.02 454.381 166.499 454.381 166.003C454.381 165.184 454.381 164.34 454.58 163.522C454.828 162.728 455.323 162.132 456.067 161.76C457.208 161.264 458.645 161.586 459.637 160.569C460.257 160.222 460.728 159.676 461.348 159.329C469.331 154.516 474.363 147.867 474.587 138.191C474.487 136.826 474.512 135.462 474.487 134.122C472.554 126.952 467.595 123.478 460.455 122.66C459.563 122.561 458.695 122.362 458.075 121.618C456.935 119.931 457.158 118.02 457.158 116.16C457.158 98.7679 457.158 81.3514 457.158 63.9597C457.158 62.9674 457.158 61.975 457.158 60.9826C457.034 57.1122 456.439 56.5168 452.646 56.3928C448.183 56.2439 443.771 56.8145 439.333 57.0626C427.904 57.7077 416.425 57.6084 404.996 58.6256C402.046 58.8985 399.071 58.8985 396.121 58.6008C390.642 59.0474 385.138 58.973 379.659 59.4692C378.568 59.7917 377.453 59.7173 376.337 59.7421C373.511 60.3871 375.197 62.2727 375.271 63.7117C375.246 66.5648 376.337 69.3931 375.345 72.2462C374.205 73.7348 372.569 74.0822 370.883 74.107C367.04 74.1814 363.198 74.3054 359.38 74.0325C358.512 74.0077 357.619 73.9581 356.752 74.1318C354.719 74.7768 354.074 76.2406 354.149 78.2502C354.397 85.0481 353.504 91.8708 355.066 98.6191C355.562 100.827 355.091 103.159 355.239 105.417C355.76 110.354 355.165 115.291 355.165 120.253C355.165 126.282 355.289 132.311 356.38 138.265C356.578 139.903 356.653 141.565 356.405 143.202C356.182 146.204 356.677 149.206 356.38 152.208C356.33 153.027 356.454 153.821 356.38 154.64C356.38 155.086 356.355 155.558 356.33 156.004C356.33 156.451 356.305 156.897 356.256 157.344C356.206 157.815 356.058 158.237 355.81 158.634C355.611 158.882 355.339 159.056 355.041 159.155C354.57 159.279 354.099 159.304 353.603 159.304C352.091 159.577 351.818 160.718 351.818 161.959C351.893 169.922 351.347 177.911 352.14 185.875C352.388 188.232 352.438 190.589 352.289 192.946C352.215 194.211 352.388 195.303 353.33 196.171C354.025 196.866 354.942 196.965 355.81 196.94C361.512 196.816 367.214 197.437 372.916 196.543C376.213 196.022 379.61 196.891 382.907 195.898C385.312 195.7 387.741 195.179 390.047 196.419C391.658 200.96 392.6 205.574 392.055 210.437C391.931 211.553 391.435 212.496 390.468 213.141C389.055 214.059 387.469 214.307 385.832 214.208C384.147 214.208 382.461 214.208 380.775 214.208C379.337 214.282 377.874 214.258 376.61 215.126C372.296 215.473 368.032 216.168 363.718 216.639C360.768 216.962 357.991 218.302 354.942 217.855C353.826 217.607 352.835 217.905 351.942 218.575C349.488 219.79 346.909 220.659 344.257 221.304C339.422 221.725 337.018 224.256 336.72 229.193C336.596 231.5 336.299 233.857 335.927 236.165C335.431 239.713 334.588 243.211 335.109 246.833C334.092 257.625 334.563 268.492 332.952 279.235C332.58 281.815 333.522 284.618 331.712 286.975L331.613 287Z" fill="#7BC3AF"/>
<path d="M446.944 215.647L450.415 215.796C451.109 216.491 452.225 216.193 452.944 216.813C456.588 216.317 459.935 218.103 463.505 218.178C464.224 218.823 465.538 218.624 465.86 219.84C466.059 225.893 464.894 231.823 464.274 237.802C462.836 252.043 461.348 266.284 459.737 280.5C459.489 282.733 459.638 285.09 458.15 287H356.529C355.414 286.181 355.042 284.941 354.794 283.676C351.025 263.679 347.331 243.657 343.638 223.636C343.439 222.569 343.216 221.477 344.059 220.535C346.637 219.765 349.017 218.351 351.744 218.029C352.439 217.334 353.554 217.632 354.273 216.987C358.909 216.515 363.496 215.771 368.057 214.754C370.809 214.134 373.759 214.531 376.635 214.456C377.28 213.935 377.949 214.134 378.519 214.506C380.304 215.597 381.99 215.424 383.651 214.282C384.593 213.96 385.263 214.332 385.783 215.101C385.932 215.324 386.031 215.573 386.106 215.845C386.13 216.788 386.502 217.557 387.221 218.202C389.403 223.338 390.419 228.796 391.907 234.13C396.047 249.016 400.063 263.927 404.055 278.838C404.179 279.309 404.303 279.805 404.774 280.723C409.906 263.58 415.038 246.858 420.021 230.086C420.839 228.151 421.359 226.117 421.682 224.033C421.806 223.264 422.103 222.569 422.475 221.899C423.442 219.79 423.814 217.483 424.533 215.275C424.88 214.183 425.078 212.992 426.169 212.323C430.855 213.34 435.739 212.744 440.35 214.282C441.614 214.704 443.052 214.531 444.416 214.63C445.11 215.3 446.225 214.977 446.92 215.647H446.944Z" fill="#AF9A84"/>
<path d="M458.175 287C459.266 276.307 460.356 265.614 461.447 254.921C462.662 243.062 463.926 231.178 465.166 219.319C465.042 218.823 465.29 218.599 465.736 218.475C466.108 218.599 466.455 218.823 466.852 218.872C474.339 219.914 475.579 222.222 476.694 231.649C476.917 233.882 477.339 236.09 477.686 238.298C478.678 254.524 480.76 270.7 480.165 287H458.175V287Z" fill="#FDF2E8"/>
<path d="M344.084 220.534C348.249 242.69 352.389 264.845 356.554 287H331.589C332.085 278.341 332.556 269.707 333.076 261.049C333.374 256.236 333.721 251.423 334.043 246.61C334.787 243.062 334.663 239.415 335.085 235.842C334.886 232.17 335.853 228.622 336.448 225.05C336.919 222.147 339.2 220.931 344.084 220.534V220.534Z" fill="#FDF2E8"/>
<path d="M594.256 287C594.256 192.847 594.256 98.7183 594.256 4.56501C594.256 0.0744297 594.851 0.669865 590.314 0.669865C393.568 0.669865 196.796 0.669865 0.0493693 0.669865C0.148536 0.471387 -0.272922 0.0248098 0.322078 0.0496196C1.11541 0.0744295 1.90874 0.0496196 2.70208 0.0496196C199.126 0.0496196 395.551 0.0744295 591.975 0C594.281 0 594.925 0.297718 594.925 2.82832C594.851 96.6591 594.851 190.49 594.826 284.321C594.826 285.189 595.52 286.33 594.281 287H594.256Z" fill="white"/>
<path d="M272.287 102.787C273.799 103.308 273.229 104.623 273.254 105.566C273.402 111.396 273.055 117.276 273.601 123.057C274.568 133.303 273.948 143.624 274.939 153.821C275.782 162.331 275.485 170.791 275.882 179.276C276.055 182.972 275.311 183.642 271.667 183.717C269.584 183.742 267.502 183.593 265.444 183.766C251.363 185.007 237.256 184.808 223.174 184.932C221.687 184.932 220.199 184.883 218.737 184.858C217.72 183.568 216.977 185.404 216.059 185.106C212.564 185.677 209.043 185.28 205.523 185.404C204.382 185.453 203.143 185.106 202.151 185.999V186.074C201.234 186.868 200.143 186.868 199.052 186.892C193.648 186.992 188.268 187.736 182.838 187.537C180.012 187.438 179.615 188.133 180.805 190.664C183.334 196.047 186.607 200.96 190.797 205.202C193.424 207.857 196.077 210.511 198.16 213.637C198.259 213.91 198.408 214.258 198.308 214.506C197.242 217.012 197.738 219.443 198.705 221.849C198.234 224.231 198.432 226.811 196.647 228.771C195.581 229.466 194.862 228.97 194.292 228.052C193.871 227.382 193.474 226.712 192.507 227.01C191.615 227.556 190.053 227.432 190.474 229.218C190.598 229.739 190.177 230.334 189.73 230.285C187.822 230.086 188.317 231.798 187.722 232.642C187.078 233.039 186.384 233.064 185.689 232.766C183.657 231.054 183.904 228.722 184.028 226.439C184.301 225.794 184.772 225.323 185.218 224.802C185.789 224.281 186.26 223.71 186.656 223.04C187.772 221.155 185.838 222.172 185.442 221.75C184.673 220.708 183.805 220.237 182.59 221.155C182.07 221.552 181.5 221.949 180.756 221.701C178.624 217.533 177.83 212.992 177.087 208.452C178.376 206.542 178.178 204.582 177.211 202.597C177.161 197.486 177.112 192.375 177.062 187.289C176.764 186.744 176.244 186.223 175.698 186.223C170.889 186.223 166.104 184.759 161.245 186.421C158.939 187.215 156.311 186.024 153.956 187.091H149.791C146.221 186.272 142.651 186.148 139.106 187.19C130.032 188.034 120.934 188.753 111.81 188.257C111.166 187.562 110 187.984 109.405 187.165L109.331 186.123C108.885 184.833 108.885 183.568 109.331 182.278C109.43 181.484 108.067 180.814 109.158 179.946C109.529 179.822 109.852 179.549 110.224 179.4C110.918 179.127 111.885 179.4 112.232 178.407C112.331 177.49 112.777 176.646 112.653 175.678C111.414 175.604 110.744 177.539 109.306 176.547C108.538 176.497 108.29 176.001 108.215 175.356C107.174 173.867 107.571 172.726 109.207 172.106C113.05 170.642 113.075 170.692 113.273 166.573C112.43 167.268 112.182 169.104 110.372 168.186C109.058 165.482 109.976 162.579 109.678 159.8C109.579 158.783 110.124 157.195 108.984 156.922C107.67 156.624 107.273 158.237 106.802 159.279C106.282 160.445 106.257 161.785 105.637 162.901C105.117 163.596 104.447 163.943 103.555 163.794C102.142 163.001 100.109 162.703 100.629 160.296C100.778 159.974 101.001 159.726 101.373 159.552C101.596 159.453 102.117 159.676 101.993 159.155C101.993 159.031 101.497 159.031 101.224 158.957C100.976 158.808 100.803 158.609 100.704 158.361C100.629 157.642 100.704 156.947 101.051 156.302C101.199 155.682 101.472 155.161 102.191 155.061C103.108 154.491 102.712 153.275 103.381 152.605C104.422 150.67 105.389 148.76 107.62 147.792C108.885 147.246 109.455 146.055 109.455 144.492C109.455 139.704 109.629 134.941 109.753 130.152C111.538 128.837 112.926 130.525 114.513 130.773C118.43 132.088 122.372 132.162 126.313 130.847C127.801 130.549 129.214 130.053 130.677 129.681C131.123 129.656 131.544 129.731 131.941 129.979C132.61 130.4 132.61 131.393 133.453 131.715C135.114 130.698 135.709 128.837 136.875 127.448C138.66 126.307 140.742 125.488 141.089 122.933C141.213 121.965 142.031 121.32 142.949 121.246C148.204 120.898 153.485 120.551 158.394 121.494C157.576 120.526 157.576 120.526 155.245 120.402C153.188 120.278 151.08 120.328 149.618 118.467C149.444 118.02 149.444 117.599 149.642 117.177C149.989 116.829 150.386 116.755 150.832 116.854C153.312 118.914 155.642 117.251 158.642 116.184C155.815 117.003 153.783 118.864 151.427 117.053C151.477 115.663 152.593 115.341 153.584 114.969C156.857 113.728 159.237 111.471 160.848 108.444C161.716 106.806 162.931 106.236 164.691 106.533C166.724 106.856 168.806 106.707 170.839 106.732C171.955 106.955 172.823 106.533 173.492 105.665C176.417 101.795 180.558 101.795 184.772 102.043C187.524 102.068 190.276 101.944 193.003 102.117C194.862 102.241 194.937 102.44 194.788 104.648C195.829 103.184 196.672 101.497 198.73 102.837L199.598 102.886C203.415 101.993 207.159 103.234 210.977 103.234C215.216 103.234 219.381 101.72 223.546 102.465C227.116 103.11 230.538 101.894 234.033 102.316C234.529 102.365 234.975 102.092 235.347 101.745H237.727C238.347 102.589 239.165 103.134 240.231 103.11C246.255 102.911 252.181 105.69 258.354 103.457C260.957 102.514 264.056 103.507 266.808 102.465C267.576 102.192 268.419 102.465 268.915 103.159C269.907 104.549 270.303 103.134 270.923 102.762C271.394 102.564 271.865 102.613 272.287 102.911V102.787Z" fill="#F0BEA6"/>
<path d="M204.234 209.841C213.159 214.01 219.852 220.733 225.505 228.622C236.091 243.384 241.644 260.156 244.842 277.82C245.239 279.954 245.561 282.088 245.933 284.221C246.181 285.71 245.71 286.529 244.074 286.405C243.677 286.38 243.281 286.405 242.884 286.405C206.366 286.405 169.823 286.38 133.305 286.454C130.602 286.454 129.809 285.685 130.181 283.08C131.916 271.32 134.569 259.833 139.007 248.768C143.841 236.686 150.411 225.769 160.104 216.937C164.988 212.496 170.616 209.296 176.913 207.261C177.186 207.41 177.335 207.633 177.335 207.956C174.905 213.861 173.393 220.088 171.236 226.092C170.567 227.953 170.74 229.739 171.98 231.426C173.269 233.163 174.384 235.023 175.872 236.636C177.831 238.77 178.054 238.77 179.516 236.14C180.334 234.701 180.706 232.964 182.169 231.947C182.888 231.624 183.632 231.6 184.376 231.848C184.797 231.997 185.045 232.394 185.392 232.666C185.863 232.939 186.458 233.039 186.78 233.56C187.127 234.577 186.508 236.09 188.218 236.438C190.276 237.628 192.383 238.001 194.416 236.562C193.871 236.438 193.102 236.71 192.507 236.214C192.185 235.917 192.086 235.544 192.086 235.123C192.259 234.354 192.135 233.584 192.135 232.791C192.185 232.518 192.309 232.294 192.482 232.071C193.226 231.426 194.069 231.029 194.986 230.781C195.408 230.731 195.804 230.781 196.201 230.955C196.796 231.327 197.267 231.823 197.639 232.418C198.383 234.031 199.226 235.569 199.994 237.182C200.713 238.67 201.655 239.043 202.994 238.001C204.209 237.653 204.853 236.835 204.903 235.569C205.176 234.875 205.597 234.403 206.415 234.478C207.085 234.602 207.556 235.668 208.399 234.85C209.118 234.18 209.415 233.485 208.82 232.617C208.671 232.22 208.647 231.798 208.795 231.401C208.919 231.153 209.118 230.955 209.366 230.806C210.035 230.508 210.729 230.582 211.423 230.682C214.398 230.186 213.01 227.853 212.737 226.588C212.514 225.472 211.671 223.388 209.465 224.653C209.093 224.901 208.696 225.025 208.25 224.951C206.688 223.958 206.837 222.097 206.093 220.708C205.895 220.013 205.87 219.269 205.845 218.55C205.895 217.557 205.324 216.714 205.027 215.821C204.878 215.424 204.804 215.027 204.754 214.63C204.829 213.613 204.283 212.819 203.862 211.975C203.639 211.231 203.663 210.536 204.159 209.891L204.234 209.841Z" fill="#009B75"/>
<path d="M461.373 159.999C461.299 160.867 460.803 161.165 460.01 161.09C459.068 162.256 457.332 161.14 456.39 162.306L455.2 163.447C454.977 163.695 454.68 163.794 454.382 163.72C454.209 163.397 454.68 163.497 454.283 163.522C454.209 163.522 454.159 163.596 454.184 163.745C454.184 163.894 454.258 163.968 454.332 163.968C454.332 164.365 454.184 164.688 453.911 164.936C453.539 165.184 453.142 165.333 452.721 165.407C450.713 165.482 450.192 166.648 450.143 168.484C450.118 169.798 450.539 171.535 448.506 172.006C448.085 171.833 447.837 171.461 447.961 171.585C447.862 171.485 448.135 171.808 448.432 172.155C449.424 174.115 448.928 176.249 448.978 178.283C449.052 181.36 448.977 184.411 449.002 187.488C449.002 188.877 448.928 190.267 450.118 191.333C450.762 191.929 450.961 192.673 450.415 193.467C449.87 194.236 449.126 194.832 448.159 194.559C445.631 193.839 443.052 194.137 440.499 193.963C439.557 193.914 438.168 193.963 438.119 192.797C438.044 191.656 439.408 191.507 440.325 191.234C441.119 191.011 441.887 191.16 442.656 191.309C442.829 191.234 442.755 191.209 442.457 191.135C440.97 190.837 441.218 188.257 439.581 188.579C438.218 188.852 438.639 190.837 437.722 191.755C437.449 192.053 437.127 192.276 436.755 192.425C435.045 193.169 428.648 191.507 427.186 189.87C427.26 191.383 426.962 192.549 425.103 192.078C423.417 191.631 421.831 191.284 420.665 193.169C420.294 193.765 419.401 193.79 418.732 193.541C416.352 192.648 413.848 192.921 411.393 192.772C408.245 192.599 406.931 191.309 406.807 188.133C406.708 185.478 406.658 182.848 407.526 180.219C408.319 177.862 408.319 175.257 407.575 172.9C406.732 170.27 406.757 167.64 406.757 164.985C406.757 163.794 407.65 162.43 405.295 162.033C404.129 161.834 404.402 159.825 404.452 158.535C404.501 157.121 405.146 155.756 405.195 154.119C404.377 154.516 404.576 154.937 404.625 155.285C404.749 156.426 404.749 157.542 403.336 157.89C402.121 158.212 400.906 157.642 400.584 156.649C399.617 153.672 397.46 153.945 395.006 153.821C388.387 153.449 381.742 153.771 375.123 153.622C373.586 153.598 372.297 153.92 371.082 155.037C369.669 156.302 364.537 156.351 363.421 155.384C361.785 153.97 361.909 148.933 363.645 147.172C363.05 146.452 362.182 146.304 361.24 145.559C361.017 147.445 361.041 149.008 361.413 150.546C362.281 154.168 361.661 154.813 357.744 154.491C357 154.218 356.455 153.722 356.182 152.928C356.058 152.307 356.158 151.687 356.629 151.29C357.868 150.223 357.967 149.33 356.678 148.164C355.191 146.825 356.752 144.641 355.439 143.177L355.389 138.414C356.331 135.114 355.662 131.79 355.191 128.54C354.571 124.297 354.992 120.055 354.893 115.837C354.893 115.093 355.24 114.497 356.083 114.398C358.215 115.986 357.571 118.665 358.562 120.725C359.009 121.667 358.785 122.883 359.653 123.652C359.752 123.751 359.851 123.851 359.926 123.9C359.827 123.776 359.727 123.677 359.628 123.528C358.761 119.955 359.579 116.333 359.132 112.711C358.116 113.182 358.587 115.887 356.405 114.448C355.364 113.034 355.513 111.421 355.984 109.932C356.653 107.848 356.827 105.715 357.075 103.581C356.926 102.837 358.389 102.266 357.298 101.423C356.207 101.571 356.331 102.44 356.232 103.159C356.207 103.928 356.083 104.673 355.513 105.243C355.042 105.491 354.62 105.467 354.199 105.119C353.554 95.8651 352.761 86.6111 352.91 77.3074C352.959 74.5535 354.001 73.3378 356.579 73.1393C357.372 73.7348 358.166 74.5287 358.959 73.1393C362.777 73.0649 366.595 72.9409 370.413 72.9409C372.024 72.9409 373.536 72.7424 374.95 71.9981C376.462 72.3702 377.974 72.668 379.536 72.2214C379.982 72.1718 380.429 72.147 380.875 72.0725C387.246 70.9313 393.568 71.3282 399.84 72.6432C402.32 73.1642 404.774 73.8588 407.179 74.6776C409.509 75.8436 411.988 76.7368 413.947 78.5479C414.393 79.1681 414.988 79.6891 415.31 80.3838C415.657 81.4258 415.781 82.443 415.087 83.4106C414.542 84.3286 413.203 84.2293 412.509 85.5939C413.277 84.4278 414.368 84.3286 414.963 83.5595C417.69 83.1129 420.07 84.8992 419.723 87.3802C419.525 88.8936 419.699 89.6627 421.161 90.3574C422.847 91.1513 422.773 91.7219 421.161 94.451C422.897 92.888 424.211 92.5406 425.45 94.1533C425.822 94.6247 426.491 94.7239 427.086 94.6743C428.772 94.5502 429.665 95.2697 429.838 96.9568C430.037 98.7679 431.574 99.4378 432.863 100.306C433.111 100.678 433.235 101.075 433.26 101.497C431.896 104.573 432.441 107.65 433.384 110.677C433.731 111.768 434.648 110.156 435.144 110.95C435.466 111.272 435.664 111.694 435.764 112.14C435.888 112.885 435.838 113.654 435.664 114.373C434.524 116.358 434.97 119.062 432.789 120.675C432.045 121.246 432.342 122.337 433.631 122.536C434.549 122.685 435.392 122.288 436.284 122.288C436.706 122.288 437.127 122.362 437.524 122.536C439.036 123.652 440.895 123.627 442.333 123.032C446.399 121.345 450.539 122.213 454.63 122.288C456.886 122.337 458.621 124.297 460.778 125.041C462.142 125.513 461.423 126.629 460.307 127.101C459.192 127.572 457.63 127.15 457.01 129.234C460.853 128.763 463.753 130.202 465.737 133.502C465.29 131.864 464.943 130.376 466.728 129.309C468.786 128.093 469.679 128.416 470.05 130.773C470.199 131.616 470.224 132.509 471.34 132.236C473.05 131.815 474.116 132.881 475.356 133.65L475.455 138.389C473.199 139.456 472.43 141.838 470.844 143.5C470.472 143.723 470.075 143.872 469.654 143.947C466.208 143.525 464.894 145.584 464.398 148.512C464.15 149.951 463.481 150.893 461.944 151.017C460.357 151.141 459.092 152.357 458.051 152.233C458.547 152.084 459.811 151.712 460.307 152.977C460.952 154.59 462.167 156.227 461.522 158.014C460.878 159.775 459.588 158.386 458.448 158.088C459.142 159.378 460.803 158.758 461.398 159.899L461.373 159.999Z" fill="#F3C799"/>
<path d="M171.063 107.501C168.633 107.55 166.179 107.898 163.774 107.178C163.055 106.955 162.237 107.029 161.989 107.774C160.378 112.736 156.386 114.993 151.874 116.656C151.7 116.705 151.601 116.929 151.477 117.077C151.329 117.326 151.155 117.326 150.957 117.102L149.767 117.152C148.23 118.442 146.37 117.847 144.635 117.995C143.47 118.095 142.255 117.598 141.164 118.268C141.015 118.492 140.891 118.715 140.743 118.963C139.329 123.354 137.544 127.473 132.958 129.532C132.239 129.78 131.322 129.408 130.727 130.152C129.537 131.095 128.173 131.542 126.636 131.418C125.57 131.467 124.603 131.021 123.438 131.914C122.223 132.856 120.438 132.038 118.926 131.963C117.29 131.864 115.653 131.765 114.067 131.343C112.406 131.591 111.34 129.83 109.679 130.127C109.579 130.127 109.48 130.103 109.381 130.078C107.819 129.11 106.109 129.706 104.448 129.557C103.282 129.458 102.068 129.805 101.002 129.036C97.5803 127.944 93.9359 127.2 92.374 123.28C92.2996 123.106 91.8534 123.081 91.5807 122.982C90.4155 121.121 90.8369 119.087 90.8617 117.077C90.8617 115.341 91.5807 113.257 89.1263 112.388L87.9363 112.314C87.4901 112.612 87.0934 112.661 86.8207 112.115C86.8207 110.404 84.2176 111.818 84.2919 110.031C84.0192 109.51 83.6721 109.386 83.2259 109.808C77.623 106.856 75.243 99.909 76.8049 94.178C78.7138 87.2312 83.5234 83.5345 89.4734 80.6318C90.5146 80.1356 91.6055 80.3093 92.6467 80.1356C93.6136 79.1432 95.2499 80.1852 96.1176 78.9695C98.2744 76.1908 99.8115 72.8663 103.258 71.2289C103.803 70.9808 104.819 70.6583 104.745 69.6162C105.043 69.2441 105.365 69.1697 105.737 69.4674C107.794 69.4178 109.604 68.4254 111.563 67.9788C117.19 66.6639 124.851 69.2689 128.372 74.2309C129.14 75.0992 129.884 75.0744 130.652 74.2309C131.793 72.4694 132.908 70.6583 135.338 70.4846C136.007 70.6086 136.553 71.0552 137.197 71.2289C138.164 71.5018 139.131 72.5438 140.098 71.601C141.164 70.5838 140.817 69.3433 140.048 68.2269C140.346 66.6887 141.709 67.3585 142.577 67.036C145.75 66.2917 148.924 66.2173 152.097 67.0856C156.237 68.7975 160.427 70.3109 164.121 72.9904C165.757 74.1812 166.799 76.0172 168.757 76.7367C169.278 77.2329 170.046 77.2577 170.592 77.7291C176.021 83.609 179.765 90.2828 179.74 98.4949C179.74 100.753 180.335 101.546 182.492 101.373C183.26 101.298 184.054 101.447 184.723 101.993C184.971 102.266 184.946 102.514 184.673 102.762C180.335 102.142 176.542 103.11 173.492 106.434C172.798 107.129 171.831 107.178 170.988 107.476L171.063 107.501Z" fill="#D19B45"/>
<path d="M413.6 79.069C411.79 77.5804 409.311 77.2827 407.625 75.5956C405.865 74.6529 404.154 73.7349 402.047 73.6109C400.584 73.5116 398.873 73.0898 400.336 70.9314C400.609 70.5841 400.931 70.3608 401.402 70.3856C402.32 70.6833 403.237 71.2291 404.03 70.1623C404.625 69.6661 405.195 69.1451 405.443 69.0955C404.03 69.7405 401.799 69.7405 400.039 71.1299C398.923 71.7997 397.683 71.8494 396.617 71.378C393.94 70.1871 391.015 70.46 388.287 69.5669C385.56 68.6737 383.156 70.46 380.577 71.0554C380.106 71.1547 379.66 71.1051 379.263 70.8322C378.643 70.336 378.544 69.6165 378.544 68.8722C378.47 68.4752 378.619 68.9714 378.544 68.5993C378.495 68.4008 378.495 68.1527 378.346 68.0783C378.098 67.9294 378.048 68.0286 378.272 68.2271C378.272 68.2271 378.321 68.3264 378.42 68.5C378.594 69.418 378.569 70.3856 379.437 71.0306C379.883 71.7749 379.734 72.42 379.189 73.0402C377.627 73.4372 376.016 73.9582 374.999 72.0478C374.776 69.0707 374.156 66.1183 374.379 63.1163C373.76 61.4044 374.305 60.0151 375.619 58.8738L379.015 58.7746C384.593 58.1543 390.296 59.3204 395.824 57.7326C407.873 57.286 419.922 56.889 431.97 56.3928C438.788 56.1199 445.581 55.5741 452.399 55.3012C457.63 55.1027 458.25 55.8222 458.25 60.9578C458.25 80.0614 458.25 99.165 458.25 118.269C458.25 119.459 458.101 120.65 458.795 121.717C458.373 122.486 457.655 122.958 456.861 122.883C450.936 122.362 445.036 122.734 439.16 123.28C438.565 123.33 437.995 123.131 437.425 122.958H436.309C432.962 122.536 432.863 122.387 434.127 119.311C434.722 117.847 434.251 116.185 434.945 114.721L435.094 112.314C435.962 108.667 435.342 105.293 433.235 102.192C433.036 101.993 432.838 101.795 432.665 101.572L432.541 100.455C430.384 98.9417 430.111 96.2374 428.673 94.2278C425.872 90.2334 422.426 86.8593 419.153 83.3115C418.831 82.6168 418.285 82.195 417.542 81.9966C416.723 81.6492 415.955 81.2275 415.36 80.5576C414.963 79.8629 414.145 79.6644 413.649 79.069H413.6Z" fill="#F1F0EE"/>
<path d="M357.744 153.92C361.165 153.871 360.917 153.92 360.297 150.62C359.876 148.363 360.223 145.981 360.223 143.302C362.058 144.12 362.429 146.7 364.71 145.956C364.933 145.882 365.677 146.7 365.776 147.197C365.925 147.991 365.033 147.941 364.537 148.139C362.132 149.033 361.661 150.472 363.595 151.985C365.181 153.201 364.487 153.746 363.396 154.788C366.099 154.367 369.247 157.096 371.305 153.151C371.627 152.531 372.594 152.754 373.263 152.779C380.577 153.027 387.89 152.233 395.179 153.176C395.923 153.275 396.716 152.878 397.485 152.804C399.146 152.655 400.757 152.556 400.609 155.037C400.534 156.054 401.402 156.575 402.071 157.145C402.567 157.542 403.212 157.592 403.708 157.145C404.203 156.674 404.179 156.054 403.807 155.533C403.237 154.714 402.394 153.821 403.584 153.027C404.278 152.556 405.418 152.481 406.088 153.176C406.856 153.995 406.559 155.012 406.013 155.905C404.873 157.815 405.344 159.825 405.542 161.735C406.93 162.182 406.063 159.478 407.674 160.544C408.839 161.289 407.947 162.132 407.922 163.001C407.823 166.077 407.203 169.129 408.492 172.279C409.558 174.884 409.583 178.159 408.492 180.69C407.253 183.667 407.848 186.52 407.798 189.398C407.773 191.209 409.286 191.879 411.12 192.003C413.798 192.177 416.649 191.16 419.153 192.996C419.376 193.144 420.219 192.921 420.219 192.847C420.268 188.455 423.392 191.73 424.904 190.986C425.276 190.812 425.772 192.003 426.392 191.408C426.962 190.862 426.689 190.118 426.268 189.522C425.896 188.952 425.351 188.356 426.094 187.711C426.342 187.488 426.838 187.314 427.136 187.389C428.078 187.637 427.904 188.431 427.78 189.1C427.607 189.919 427.78 190.688 428.598 190.663C430.929 190.564 433.011 191.457 435.218 191.929C437.275 192.375 437.92 190.887 437.697 189.274C437.449 187.438 438.416 187.24 439.73 187.24C440.969 187.24 442.234 187.265 441.837 189.175C441.589 190.415 442.482 190.639 443.424 190.788C444.44 190.961 445.581 190.415 446.696 191.482C444.044 192.698 441.069 191.135 438.54 192.921C441.961 193.814 445.457 192.276 448.655 193.938C449.151 194.186 449.696 193.417 449.969 192.921C450.316 192.276 449.721 192.102 449.25 191.978C447.688 191.581 448.109 190.316 448.109 189.299C448.085 183.469 448.109 177.613 448.109 171.783C450.093 171.188 449.349 169.501 449.225 168.359C448.952 165.531 449.795 164.067 452.845 164.638C453.39 165.209 453.688 165.854 453.514 166.672C453.39 167.541 453.464 168.409 453.464 169.277C453.489 168.434 453.241 167.516 454.035 166.821C454.456 166.648 454.853 166.672 455.225 167.02C455.225 175.033 455.274 183.047 455.225 191.06C455.225 193.517 453.34 195.179 450.539 195.228C441.044 195.377 431.573 195.501 422.078 195.625C420.467 197.933 421.731 200.314 421.855 202.671C421.905 205.797 421.979 208.923 422.029 212.074C423.59 215.275 423.219 218.401 421.805 221.527C421.012 222.246 420.516 223.14 420.244 224.182C413.971 229.416 406.955 230.955 399.146 228.374C397.956 227.977 396.716 227.531 396.22 226.142C396.369 224.901 397.386 224.38 398.253 223.76C405.542 218.624 411.269 212.074 415.756 204.408C419.5 198.007 418.905 197.089 411.69 196.965C408.17 196.916 404.65 197.536 401.154 196.841C400.733 196.246 400.906 195.601 401.005 194.98C402.071 192.202 401.402 189.373 401.179 186.595C401.03 184.734 400.757 182.898 400.931 181.037C400.931 179.152 400.931 177.241 400.931 175.356C400.931 174.115 400.931 172.875 400.931 171.634C401.03 168.186 400.857 164.712 400.906 161.264C400.931 158.51 400.162 157.617 397.485 157.493C389.006 157.071 380.527 156.748 372.073 158.088C368.627 158.634 365.181 158.262 361.735 158.411C360.273 158.46 358.785 158.485 357.347 158.138C356.43 157.865 356.653 156.451 355.587 156.302V155.136C356.083 154.267 357.149 154.466 357.843 153.945L357.744 153.92Z" fill="#F3C89A"/>
<path d="M396.418 225.794C402.145 230.409 412.136 228.871 417.987 224.976C418.706 224.504 419.351 223.934 420.02 223.388C419.97 222.867 420.243 222.519 420.689 222.271C421.061 222.098 421.384 221.899 421.532 221.502C421.755 220.857 421.855 219.939 422.797 220.286C423.739 220.659 423.516 221.527 423.169 222.296L422.549 224.008C421.607 225.918 420.516 227.779 420.813 230.062C417.739 240.482 414.69 250.902 411.591 261.322C409.434 268.591 407.203 275.836 404.401 283.155C403.732 280.773 403.013 278.391 402.368 275.985C397.311 257.402 392.278 238.795 387.245 220.187C387.047 219.443 386.7 218.723 386.427 217.979C385.312 217.433 386.378 216.267 385.733 215.597C385.188 214.903 385.089 214.134 385.51 213.315L390.097 212.595C391.063 212.844 391.138 213.712 391.237 214.456C391.708 218.376 393.022 221.899 395.972 224.653C396.27 224.926 396.369 225.323 396.394 225.72L396.418 225.794Z" fill="#FDF2E8"/>
<path d="M396.419 225.794C392.452 223.512 391.287 219.617 390.518 215.523C390.345 214.58 390.642 213.563 390.097 212.645C391.832 209.718 391.163 206.443 390.617 203.515C390.196 201.282 390.097 199.124 389.898 196.916C391.163 195.204 393.047 195.75 394.708 195.675C396.146 195.601 397.609 195.576 399.071 195.725C399.815 195.898 400.584 195.973 401.129 196.568C406.038 195.799 410.971 196.147 415.905 196.097C418.88 196.072 419.624 197.337 418.582 200.315C417.194 204.284 414.913 207.758 412.36 211.032C407.848 216.838 403.013 222.271 396.394 225.794H396.419Z" fill="#D19F68"/>
<path d="M184.847 102.266C182.987 102.241 180.781 102.812 179.318 101.993C177.508 101.001 179.194 98.7182 179.045 96.9815C178.351 89.4393 174.558 83.5097 169.972 77.8779C170.195 77.3073 170.79 77.1336 171.186 76.7615H178.277C179.368 77.5306 180.781 77.1832 181.921 77.8035C188.714 79.168 193.102 83.4601 196.102 89.4393C198.036 93.3344 197.714 97.6017 198.085 101.745C197.838 102.663 197.044 102.564 196.424 102.539C192.557 102.39 188.689 102.812 184.847 102.241V102.266Z" fill="#B5833A"/>
<path d="M197.862 214.059C191.168 206.939 184.028 200.166 179.913 191.036C178.128 187.041 178.326 186.446 182.541 186.644C189.086 186.942 195.556 185.677 202.101 186.074C202.101 192.276 202.126 198.479 202.027 204.681C202.027 206.12 202.399 207.286 203.118 208.452C201.209 210.313 201.928 213.389 199.969 215.2C198.854 215.573 198.333 214.878 197.887 214.059H197.862Z" fill="#C1886C"/>
<path d="M399.369 196.618C396.22 196.717 393.072 196.816 389.923 196.916C387.568 196.866 385.213 196.816 382.857 196.767C375.916 197.064 368.999 197.387 362.057 197.288C361.19 197.288 360.247 197.288 359.9 196.196C360.024 194.732 361.14 194.956 362.082 194.956C363.842 194.906 365.602 194.956 367.09 194.956C365.28 194.559 363.074 195.7 361.115 194.286C361.041 192.053 362.751 192.375 364.041 192.351C368.379 192.251 372.742 192.276 377.106 192.351C378.321 192.351 379.486 192.4 380.453 191.532C384.047 190.812 387.692 190.986 391.311 190.936C395.724 190.887 395.898 190.713 395.923 186.198C395.972 180.69 395.873 175.157 395.947 169.65C396.295 167.69 395.898 165.705 396.22 163.77C396.542 161.934 397.385 161.71 398.774 162.876C400.46 164.266 401.352 165.829 401.179 168.161C400.955 171.485 401.104 174.835 401.129 178.184C401.129 179.251 400.906 180.367 401.699 181.285C401.972 184.957 402.096 188.629 402.592 192.276C402.79 193.665 401.724 194.385 401.674 195.526C401.03 196.171 400.162 196.345 399.344 196.643L399.369 196.618Z" fill="#F2EFED"/>
<path d="M361.314 194.335H370.363V195.526H360.124C359.876 195.824 359.529 195.923 359.157 195.973C358.487 196.047 358.19 196.643 357.744 196.99C356.702 197.387 355.959 197.188 355.686 195.998C355.686 195.352 355.339 194.906 354.868 194.534C354.322 194.211 354.025 194.435 353.851 194.98C353.727 195.65 353.603 196.345 353.083 196.866C352.81 197.015 352.537 196.965 352.314 196.767C351.124 195.725 351.223 194.261 351.199 192.921C350.951 182.352 350.728 171.783 350.604 161.214C350.554 158.361 351.422 157.84 354.223 158.609C355.116 159.874 356.182 161.04 356.206 162.728C356.206 171.585 357.223 180.417 356.851 189.299C356.826 189.994 356.95 190.663 357.149 191.333C358.115 192.921 360.719 192.276 361.314 194.36V194.335Z" fill="#F0EFED"/>
<path d="M470.645 143.227C471.761 141.168 471.86 138.091 475.405 138.463C475.728 146.328 471.637 152.084 466.158 156.996C464.819 158.212 463.704 160.197 461.373 159.974C460.307 159.874 459.142 159.949 458.175 159.577C457.506 159.329 456.365 158.758 456.985 157.617C457.58 156.525 458.398 156.401 459.34 157.418C459.687 157.815 460.034 158.435 461.051 158.088C460.605 156.5 460.58 154.491 459.588 153.349C458.101 151.613 457.754 153.87 456.762 155.533C456.34 153.076 455.77 151.737 458.497 151.464C459.787 151.34 460.902 150.05 462.464 150.273C462.687 150.298 463.208 150 463.183 149.901C462.836 147.122 465.811 145.261 465.042 141.986C466.48 143.45 467.844 144.046 469.455 143.227C469.852 143.698 470.249 143.698 470.645 143.227V143.227Z" fill="#F3C89A"/>
<path d="M437.375 122.982C439.011 121.99 440.846 122.561 442.581 122.461C447.986 122.139 453.415 123.057 458.77 121.767C467.67 121.915 471.811 124.917 475.331 133.725C473.794 133.899 472.381 133.254 470.695 133.427C467.918 133.725 469.158 131.194 469.183 129.458C467.869 130.351 464.695 129.706 466.654 133.154C466.927 133.65 465.96 134.841 465.464 135.933C464.001 134.891 464.671 132.906 462.91 131.765C461.175 130.624 459.663 130.4 457.878 130.128C457.035 130.003 455.498 131.393 455.547 129.83C455.572 128.862 455.969 126.803 457.927 126.629C458.869 126.555 459.861 126.803 460.828 126.257C455.919 122.461 450.291 122.66 444.763 123.206C443.027 123.379 441.342 124.446 439.408 124.248C438.491 124.148 437.573 124.223 437.425 123.007L437.375 122.982Z" fill="#F3C89A"/>
<path d="M270.997 102.837C271.171 104.375 270.576 105.417 268.865 106.261C268.865 103.06 267.824 103.507 265.097 103.656C259.866 103.978 254.66 106.261 249.503 105.045C246.007 104.226 242.611 104.127 239.14 103.978C237.479 103.904 237.777 102.638 237.702 101.596C238.892 101.596 240.082 101.596 241.247 101.572C241.842 102.341 242.71 102.217 243.528 102.167C243.008 102.167 242.586 101.993 242.313 101.522C243.528 100.778 244.892 100.604 246.255 100.579C253.693 100.505 261.155 100.505 268.593 100.455C269.163 101.447 271.791 100.331 270.973 102.787L270.997 102.837Z" fill="#EDBFA6"/>
<path d="M199.572 215.126C200.49 213.761 200.614 212.149 200.837 210.635C201.06 209.196 201.68 208.502 203.093 208.477C203.49 208.923 203.266 209.866 204.233 209.841C204.332 210.61 204.432 211.38 204.531 212.149C205.175 212.843 204.828 213.96 205.597 214.58L205.696 215.721C206.018 216.565 206.093 217.508 206.762 218.202L206.712 220.485C205.572 221.229 204.977 220.187 204.184 219.74C203.812 219.542 203.39 218.947 203.019 219.344C202.523 219.84 203.316 219.989 203.539 220.286C205.572 223.04 205.275 228.771 202.82 230.781C201.283 232.046 199.201 232.22 197.242 232.393C196.399 232.393 196.201 231.798 196.002 231.153C195.407 230.359 195.432 229.565 196.052 228.796C197.143 226.538 197.416 224.057 197.887 221.626C198.135 221.452 198.407 221.477 198.655 221.626C199.151 222.544 199.399 223.636 200.614 224.082C198.829 222.792 198.953 220.758 198.432 218.971C198.308 217.557 198.382 216.168 199.572 215.126V215.126Z" fill="#CE411B"/>
<path d="M357.744 102.837C358.562 106.93 356.033 110.677 356.554 114.721C356.232 114.919 355.637 115.093 355.612 115.291C355.513 119.534 354.521 123.851 356.157 127.994C357.05 130.252 356.604 137.273 355.339 138.464C353.43 127.423 354.397 116.284 354.174 105.194H355.364C356.108 104.4 356.132 103.606 355.364 102.837C355.116 101.001 355.909 100.207 357.744 100.455C358.389 101.249 358.389 102.043 357.744 102.837V102.837Z" fill="#F3C89A"/>
<path d="M235.348 101.621C235.298 101.82 235.248 102.167 235.174 102.167C231.579 102.415 228.133 104.549 224.39 103.209C222.729 102.613 221.018 102.589 219.456 103.035C213.779 104.623 208.176 104.673 202.523 103.035C201.606 102.762 200.565 102.862 199.573 102.812C200.887 102.018 202.35 101.844 203.813 101.844C214.324 101.745 224.836 101.72 235.348 101.671V101.621Z" fill="#EDBFA6"/>
<path d="M110.546 168.186C112.132 167.789 111.785 165.233 114.016 165.333C114.264 167.169 114.215 169.029 113.57 170.89C113.099 172.304 112.355 173.297 110.818 172.875C108.438 172.255 108.042 173.445 108.19 175.331C105.662 175.43 104.67 173.445 103.406 171.858C102.885 169.377 105.166 168.186 105.91 166.275C107.744 166.226 108.785 168.087 110.57 168.161L110.546 168.186Z" fill="#EEBFA6"/>
<path d="M355.413 162.281C355.339 160.941 353.826 160.073 354.248 158.584H355.314C355.711 158.981 356.107 159.354 356.677 159.527C356.182 159.254 355.661 159.056 355.289 158.584L355.487 157.518C355.81 157.121 356.206 157.096 356.628 157.369L361.338 157.493C362.008 158.411 362.801 158.411 363.892 158.237C367.536 157.666 370.982 158.684 374.428 159.75C374.751 160.52 374.329 161.016 373.784 161.438C372.842 161.983 371.776 161.859 370.759 161.909C367.288 162.256 363.718 161.115 360.347 162.678C359.181 163.149 358.016 163.249 356.777 163.001C356.256 162.901 355.835 162.604 355.438 162.256L355.413 162.281Z" fill="#F0F0ED"/>
<path d="M153.956 187.116C154.328 186.495 154.849 185.974 155.593 186.049C160.006 186.57 164.121 184.039 168.559 184.808C170.121 185.081 172.054 183.345 173.244 185.826C173.492 186.322 174.459 185.305 175.029 185.305C176.244 185.255 176.938 186.098 177.037 187.339C176.021 186.992 175.029 186.942 173.914 186.967C167.245 187.116 160.601 187.091 153.932 187.14L153.956 187.116Z" fill="#EBC0A6"/>
<path d="M356.554 195.526C355.934 196.94 357 196.667 357.744 196.692C358.19 196.345 358.314 195.7 358.934 195.526H360.099C360.52 197.263 361.958 196.667 363 196.667C369.594 196.742 376.189 196.742 382.808 196.742C378.866 197.784 374.8 197.263 370.784 197.61C365.504 198.057 360.149 197.809 354.843 197.883C353.777 197.883 352.909 197.66 352.314 196.717L352.984 196.643C353.876 195.377 354.818 194.186 356.529 195.501L356.554 195.526Z" fill="#E5EEE9"/>
<path d="M423.144 222.321C423.045 221.8 423.293 221.031 422.599 220.882C421.954 220.733 421.979 221.452 421.905 221.874C421.756 222.544 421.31 222.792 420.69 222.842C420.392 222.445 420.417 222.048 420.789 221.701C422.822 218.699 421.632 215.275 422.029 212.05C423.417 212.149 424.805 212.248 426.194 212.347C425.376 215.746 424.582 219.145 423.144 222.346V222.321Z" fill="#FBEFE2"/>
<path d="M140.122 68.2766L142.775 68.9465C140.593 69.7652 142.725 73.0401 139.85 73.0401C138.065 73.0401 136.304 72.3702 135.412 70.5095C135.387 69.5667 136.032 69.5419 136.701 69.5419C137.445 69.6163 137.42 68.7728 137.916 68.5247L140.122 68.2766V68.2766Z" fill="#D59A46"/>
<path d="M355.413 143.227C356.628 143.426 356.579 144.368 356.554 145.261C356.554 146.552 356.603 147.519 358.141 148.263C359.405 148.884 359.479 150.571 357.917 151.464C357.298 151.811 356.628 151.91 356.554 152.754C356.182 153.126 355.81 153.101 355.438 152.754L355.389 143.252L355.413 143.227Z" fill="#F3C89A"/>
<path d="M103.431 163.422L105.141 162.827C105.538 163.05 105.712 163.447 105.761 163.869C105.687 165.035 105.191 166.102 105.067 167.268C104.918 168.732 104.075 170.096 102.067 169.451C100.257 168.732 101.249 167.144 101.001 165.928C100.307 163.149 100.332 163.125 103.431 163.422V163.422Z" fill="#EFBEA5"/>
<path d="M109.257 176.547C110.546 176.373 111.091 175.157 112.009 174.512C112.529 174.14 113.124 174.066 113.645 174.463C114.19 174.885 114.265 175.678 113.843 176.026C112.827 176.82 113.298 177.961 112.926 178.904C112.356 179.722 111.141 179.276 110.571 180.095L109.133 179.995C109.182 178.854 109.232 177.713 109.282 176.572L109.257 176.547Z" fill="#EEBFA4"/>
<path d="M202.102 185.999C202.374 184.337 203.713 184.833 204.705 184.833C208.771 184.759 212.812 184.759 216.877 184.734C217.2 184.56 217.448 184.61 217.671 184.908C212.588 186.793 207.308 185.677 202.126 185.999H202.102Z" fill="#E3C1AD"/>
<path d="M395.775 57.782C394.535 59.9901 391.932 59.2706 390.345 59.4442C387.172 59.742 383.875 58.3278 380.552 59.4442C380.156 59.5931 379.511 59.0473 378.966 58.7992C380.131 58.0549 381.42 58.4022 382.66 58.3526C387.023 58.1541 391.386 57.9557 395.75 57.782H395.775Z" fill="#EFEEED"/>
<path d="M184.847 102.266C189.26 102.043 193.697 102.638 198.086 101.77C198.284 102.092 198.507 102.415 198.705 102.737C197.887 102.961 196.672 102.489 196.35 103.506C195.433 106.285 193.524 104.97 191.565 104.995C192.334 103.506 193.772 104.424 195.284 102.787C191.268 102.787 188.02 102.787 184.772 102.787C184.822 102.613 184.872 102.44 184.872 102.266H184.847Z" fill="#EBC1A3"/>
<path d="M89.1504 112.438C91.1585 111.992 91.8279 112.81 91.5304 114.795C91.1337 117.524 91.2577 120.278 91.6048 123.007C89.795 122.709 90.4396 121.27 90.3404 120.228C90.0925 117.599 91.0346 114.795 89.1504 112.438V112.438Z" fill="#57B998"/>
<path d="M383.899 214.531C382.759 216.094 381.42 216.937 379.486 215.821C378.594 215.3 377.602 214.928 376.66 214.481C377.503 212.695 379.065 213.637 380.354 213.489C381.371 214.407 382.957 213.389 383.899 214.531V214.531Z" fill="#AA9D83"/>
<path d="M102.068 169.451C103.63 168.632 105.489 168.062 103.927 165.606C103.134 164.365 105.663 165.283 105.216 164.018C106.778 164.266 106.778 165.234 106.282 166.4C105.935 168.558 104.2 169.972 103.357 171.858C101.894 171.61 102.241 170.369 102.043 169.451H102.068Z" fill="#E8C0A7"/>
<path d="M139.081 187.215C139.18 186.719 139.354 186.148 139.874 186.123C142.973 185.974 146.072 185.801 149.171 186.223C149.419 186.247 149.568 186.818 149.791 187.116C146.221 187.14 142.651 187.165 139.106 187.19L139.081 187.215Z" fill="#EBC0A6"/>
<path d="M103.431 163.422C102.538 164.167 100.332 163.67 101.001 165.928C98.8193 164.241 100.406 161.884 99.9349 159.899C100.381 159.552 99.8853 158.336 101.075 158.659H101.125C101.422 159.081 101.422 159.478 101.125 159.875C100.208 162.182 103.232 161.859 103.455 163.422H103.431Z" fill="#E8C0A7"/>
<path d="M152.146 67.1354C148.973 67.1354 145.799 67.1106 142.626 67.0858C144.932 64.7289 147.807 66.5648 150.361 66.0438C151.179 65.8701 151.948 66.1182 152.146 67.1354Z" fill="#5EBA97"/>
<path d="M101.026 129.061C103.282 129.036 105.514 129.011 107.77 128.986C108.563 128.986 109.406 128.937 109.406 130.103C107.398 130.127 105.365 130.177 103.357 130.177C102.439 130.177 101.349 130.4 101.026 129.061Z" fill="#73BD86"/>
<path d="M335.109 235.842C335.109 239.464 335.729 243.161 334.068 246.61C333.87 242.962 334.266 239.365 335.109 235.842Z" fill="#CEE4D6"/>
<path d="M177.112 207.733C177.037 207.584 176.988 207.435 176.963 207.261C177.037 205.723 177.112 204.185 177.186 202.646C179.69 205.227 179.789 206.492 177.632 208.129C177.36 208.129 177.186 208.005 177.136 207.733H177.112Z" fill="#E7C0A5"/>
<path d="M383.899 214.53C382.709 214.208 381.097 215.324 380.354 213.488C382.089 213.464 383.8 213.414 385.535 213.389C385.609 214.158 385.684 214.927 385.758 215.721C385.089 215.399 384.816 214.481 383.899 214.555V214.53Z" fill="#AE9E8B"/>
<path d="M242.339 101.571C243.801 101.844 245.388 101.323 246.751 102.291C244.867 102.44 242.834 104.027 241.272 101.596C241.62 101.596 241.991 101.596 242.339 101.571V101.571Z" fill="#F0BEA6"/>
<path d="M421.855 202.647C421.012 200.984 420.714 199.223 420.764 197.387C420.764 196.469 420.838 195.601 422.078 195.601C422.004 197.958 421.929 200.29 421.855 202.647Z" fill="#DDCC98"/>
<path d="M86.8698 112.165L87.9854 112.364C87.9854 112.736 87.9854 113.133 87.9854 113.505C87.9359 114.15 88.2334 114.919 87.6136 115.391C87.0929 115.788 86.7954 115.167 86.4483 114.894C85.4815 114.15 86.25 113.604 86.6467 112.984C86.7954 112.761 86.7954 112.438 86.8698 112.165V112.165Z" fill="#57B998"/>
<path d="M270.997 102.837C271.072 101.175 268.593 102.117 268.617 100.505C270.353 100.43 272.534 99.6363 272.287 102.787C271.84 102.787 271.419 102.812 270.973 102.837H270.997Z" fill="#F1BCAA"/>
<path d="M358.958 73.2139C358.785 74.2311 359.305 75.3475 358.338 76.4888L356.578 73.2139C357.371 73.2139 358.165 73.2139 358.958 73.2139Z" fill="#EECA96"/>
<path d="M109.307 182.302C110.224 183.593 110.199 184.858 109.307 186.148C107.819 184.858 107.844 183.593 109.307 182.302Z" fill="#E7C0AA"/>
<path d="M477.686 238.298C476.645 236.19 476.422 233.957 476.694 231.649C477.513 233.783 477.984 235.991 477.686 238.298Z" fill="#D0E5D8"/>
<path d="M355.463 152.729H356.579L357.768 153.92C357.57 155.409 356.405 155.012 355.488 155.111C355.488 154.317 355.488 153.523 355.488 152.729H355.463Z" fill="#EECA9B"/>
<path d="M375.594 58.8984L376.238 59.8412C374.205 60.1389 374.528 61.8012 374.354 63.1409C373.982 61.5035 372.668 59.5683 375.594 58.8984V58.8984Z" fill="#EFEEED"/>
<path d="M96.1417 78.9945C95.5715 81.1282 93.8857 79.9373 92.6709 80.1606C93.3403 78.2998 94.9517 79.2922 96.1417 78.9945V78.9945Z" fill="#8EB87C"/>
<path d="M455.2 166.995H454.035C453.638 167.342 453.241 167.342 452.845 166.995V164.613H454.035C454.63 164.787 454.754 165.457 455.2 165.804V166.995V166.995Z" fill="#F8C39D"/>
<path d="M105.786 69.5171C105.464 69.5667 105.117 69.6163 104.795 69.6659C104.076 69.5171 103.233 69.7404 102.563 69.1201C103.836 68.5578 104.91 68.6984 105.786 69.5419V69.5171Z" fill="#4EB9AA"/>
<path d="M181.922 77.8531C180.657 77.6299 179.021 78.7215 178.277 76.7863C179.666 76.5879 180.93 76.7119 181.922 77.8531Z" fill="#A3934F"/>
<path d="M456.39 162.306C456.96 160.023 458.943 161.934 460.009 161.09C459.142 162.479 457.778 162.43 456.39 162.306Z" fill="#F3C89A"/>
<path d="M137.892 68.5248C137.619 69.1947 138.611 70.1374 137.693 70.584C136.999 70.9066 136.776 70.1374 136.677 69.542C136.776 68.8473 137.098 68.4008 137.892 68.5248V68.5248Z" fill="#D19B45"/>
<path d="M103.356 152.605C103.331 153.598 103.877 154.888 102.166 155.061C102.265 154.094 101.893 152.903 103.356 152.605Z" fill="#E1C3A5"/>
<path d="M109.381 187.19C110.298 187.289 111.488 186.843 111.786 188.282C110.819 188.282 109.554 188.927 109.381 187.19Z" fill="#CDC5A8"/>
<path d="M101.051 158.684C100.679 159.105 100.307 159.502 99.9104 159.924C99.7369 158.56 99.9104 157.294 101.026 156.327C101.026 157.121 101.026 157.914 101.051 158.708V158.684Z" fill="#80C5AF"/>
<path d="M455.175 165.804C454.431 165.754 454.059 165.358 454.01 164.613V163.422H455.2V165.804H455.175Z" fill="#F3C89A"/>
<path d="M171.187 76.8113C171.112 77.5308 170.666 77.8781 169.972 77.9277C169.302 77.8533 168.856 77.5308 168.807 76.8113C169.6 76.8113 170.393 76.8113 171.187 76.8113Z" fill="#A79349"/>
<path d="M446.944 215.647C445.977 215.647 444.837 216.069 444.44 214.63C445.432 214.58 446.572 214.183 446.944 215.647Z" fill="#92AC90"/>
<path d="M452.944 216.788C451.952 216.838 450.787 217.26 450.415 215.771C451.407 215.721 452.522 215.399 452.944 216.788Z" fill="#9CA691"/>
<path d="M354.323 216.987C353.926 218.401 352.81 218.078 351.794 218.029C352.166 216.515 353.331 216.987 354.323 216.987Z" fill="#7BB897"/>
<path d="M130.726 74.2805C130.726 74.9504 130.503 75.4218 129.734 75.4714C128.892 75.4962 128.42 75.1489 128.445 74.2805C129.214 74.2805 129.982 74.2805 130.726 74.2805Z" fill="#A6B069"/>
<path d="M83.2502 109.858C83.399 109.213 82.8536 107.972 83.9196 108.096C84.7873 108.171 84.2915 109.386 84.3411 110.081L83.275 109.858H83.2502Z" fill="#D69752"/>
<path d="M465.736 218.475L465.166 219.319C464.373 219.294 463.604 219.195 463.505 218.178C464.273 218.128 465.067 217.905 465.736 218.5V218.475Z" fill="#9FA68D"/>
<path d="M217.671 184.908C217.399 184.858 217.151 184.783 216.878 184.734C217.051 184.163 217.25 183.617 218.018 183.766C218.589 183.89 218.638 184.387 218.713 184.858C218.365 184.858 218.018 184.858 217.671 184.883V184.908Z" fill="#E6C1A7"/>
<path d="M356.603 157.369C356.231 157.418 355.835 157.468 355.463 157.518V156.277L357.174 156.451L356.603 157.369Z" fill="#EECA9B"/>
<path d="M420.789 230.061C418.21 227.134 421.408 225.869 422.524 224.008C422.301 226.117 421.731 228.151 420.789 230.061Z" fill="#FBEFE2"/>
<path d="M440.92 217.458C439.655 218.277 438.738 218.178 437.474 217.657C438.664 216.615 439.581 216.788 440.92 217.458Z" fill="#B2988A"/>
<path d="M385.734 215.647C386.478 216.292 386.279 217.21 386.428 218.029C384.197 217.83 385.957 216.441 385.734 215.647Z" fill="#AE9E8B"/>
<path d="M221.687 122.412C229.496 119.782 239.016 123.503 242.884 130.673C246.478 137.322 244.47 145.584 237.925 150.447C233.314 153.87 228.058 154.788 222.455 153.895C221.414 153.225 220.67 152.332 220.274 151.166C217.274 141.863 216.827 132.559 220.447 123.305C220.745 122.833 221.141 122.536 221.687 122.436V122.412Z" fill="#08090A"/>
<path d="M221.266 123.156C217.82 133.551 217.944 143.798 222.456 153.895C216.134 152.431 211.399 149.132 209.069 142.78C206.813 136.603 208.87 131.641 213.035 127.175C214.027 126.108 215.217 125.19 216.308 124.223C216.828 123.28 217.919 123.503 218.688 123.032C219.555 122.61 220.448 121.667 221.241 123.131L221.266 123.156Z" fill="#F7F2F0"/>
<path d="M177.012 173.495C179.144 172.527 181.673 172.627 183.607 171.113C184.251 169.525 186.26 169.352 186.954 167.838C188.788 167.218 187.896 164.737 189.582 164.018C190.226 163.621 190.201 162.951 190.251 162.331C190.4 162.082 190.548 161.834 190.672 161.586C191.069 160.247 190.301 158.684 191.367 157.443C191.962 156.103 193.152 156.252 194.292 156.302C194.837 156.599 195.358 156.922 195.457 157.617C195.631 159.254 195.383 160.916 195.631 162.554C195.854 163.348 195.457 163.968 195.036 164.588H194.862C194.094 165.258 194.118 166.25 193.771 167.094C193.647 168.012 193.201 168.781 192.557 169.426C191.788 169.972 192.209 171.237 191.218 171.634C188.863 173.495 186.805 175.802 183.706 176.472C182.491 176.72 181.326 177.092 180.483 178.06C179.987 178.209 179.491 178.209 178.996 178.209C176.541 178.035 174.037 178.68 171.682 177.663C167.864 177.787 165.137 175.033 161.741 174.016C160.749 173.396 159.931 172.577 159.311 171.585C158.295 169.104 156.311 167.144 155.617 164.514C155.443 164.266 155.295 163.993 155.196 163.72C155.096 162.678 155.047 161.611 155.22 160.569C155.344 160.296 155.518 160.048 155.741 159.85C157.6 158.634 159.113 159.205 159.683 161.164C161.815 168.533 167.145 172.006 174.211 173.445C175.128 173.991 176.07 173.966 176.987 173.445L177.012 173.495Z" fill="#C75371"/>
<path d="M177.111 207.733L177.607 208.13C178.921 212.595 179.59 217.21 181.252 221.576C182.987 224.975 184.797 228.35 182.739 232.269C181.004 233.833 180.681 236.165 179.491 238.05C178.995 238.869 178.574 239.613 177.582 239.613C176.566 239.613 176.293 238.794 175.797 238.025C174.459 235.991 172.971 234.006 171.26 232.294C169.475 230.483 169.451 228.399 170.095 226.34C171.732 221.13 173.74 216.044 174.93 210.685C175.202 209.469 176.12 208.526 177.087 207.708L177.111 207.733Z" fill="#D03F1A"/>
<path d="M215.638 111.098C225.331 107.774 234.752 107.774 243.702 113.431C244.718 114.249 245.264 115.688 246.801 115.787C246.974 115.787 247.123 115.837 247.297 115.862C247.916 116.631 248.065 117.475 247.743 118.393C246.999 119.707 245.561 119.484 244.396 119.856C244.123 119.807 243.851 119.707 243.627 119.559L243.702 119.335C243.082 118.517 242.661 117.35 241.247 117.747C241.049 117.723 240.876 117.673 240.677 117.599C240.157 116.904 239.71 116.085 238.719 115.986L234.752 114.671C232.62 113.406 230.24 113.976 227.959 113.778C226.769 113.679 225.43 114.348 224.414 113.207C224.34 112.934 224.364 112.661 224.439 112.389C224.91 111.52 226.149 111.917 226.571 111.024C223.869 110.354 221.439 110.875 219.208 112.463C218.96 112.612 218.687 112.736 218.414 112.81C217.051 112.959 216.034 112.513 215.662 111.074L215.638 111.098Z" fill="#B5843B"/>
<path d="M149.766 118.268C150.981 118.665 152.221 119.434 153.411 119.36C156.559 119.211 159.41 119.459 161.17 122.585C160.6 123.28 159.683 123.156 159.063 122.883C153.931 120.625 148.576 122.337 143.37 121.841C142.527 121.767 141.783 122.114 141.585 123.057C141.04 125.86 139.478 127.398 136.701 127.746C136.627 127.622 136.528 127.498 136.453 127.374C138.189 124.52 140.37 121.841 140.246 118.219C140.569 117.995 140.94 117.623 141.288 117.747C144.089 118.665 146.965 118.144 149.816 118.244L149.766 118.268Z" fill="#F0BDA8"/>
<path d="M106.282 166.399L105.216 164.018C105.191 163.621 105.166 163.224 105.142 162.827C105.216 160.321 105.712 157.964 107.522 156.078C108.141 155.409 108.86 154.863 109.852 155.26C110.794 155.657 110.571 156.55 110.571 157.294C110.571 160.916 110.571 164.539 110.571 168.161C108.216 169.798 107.497 167.541 106.307 166.375L106.282 166.399Z" fill="#C18A6D"/>
<path d="M215.638 111.098C216.605 111.644 217.423 112.562 218.712 112.339C219.53 114.597 216.729 114.398 216.332 115.837L209.688 119.385C207.903 119.707 206.118 120.03 205.349 117.723C205.25 116.581 205.697 115.763 206.738 115.267L209.192 113.48C209.787 112.661 210.853 112.835 211.597 112.339C213.035 112.19 214.126 110.95 215.638 111.074V111.098Z" fill="#B58438"/>
<path d="M182.764 232.294C183.756 229.292 181.946 226.663 181.648 223.834C181.574 223.09 181.4 222.321 181.276 221.577C182.02 220.262 183.086 219.269 184.598 219.468C185.739 219.617 185.293 220.857 185.417 221.651C185.417 221.8 185.367 221.924 185.342 222.073C184.797 223.487 185.342 225.149 184.227 226.414C185.417 228.201 184.722 230.359 185.417 232.22C185.317 232.617 185.094 232.691 184.772 232.443L182.764 232.294V232.294Z" fill="#F1BCA7"/>
<path d="M216.332 115.837C215.713 113.728 218.514 113.902 218.712 112.339C220.696 111.471 222.679 110.652 224.662 112.339C224.91 113.753 226.026 113.505 226.993 113.505C229.274 113.505 231.53 113.53 233.811 113.505C234.703 113.505 235.174 113.703 234.777 114.696C228.555 113.629 222.382 113.877 216.357 115.837H216.332Z" fill="#B6843F"/>
<path d="M196.078 228.796L196.028 231.153L194.987 231.203C194.169 231.575 193.202 231.575 192.508 232.22L192.582 232.418C192.037 232.84 191.466 233.113 190.747 233.113C190.078 233.113 189.458 232.989 188.938 232.542C188.715 232.195 188.491 231.624 188.789 231.451C190.822 230.334 191.02 227.878 192.532 226.39C193.103 224.479 193.673 226.017 194.268 226.39C195.185 226.96 194.541 228.672 196.053 228.796H196.078Z" fill="#ECBFA3"/>
<path d="M149.766 118.268C147.188 119.757 144.61 120.179 141.932 118.442C141.486 118.169 140.792 118.293 140.222 118.219C140.147 117.177 140.345 116.681 141.684 116.805C144.362 117.053 147.089 117.028 149.791 117.102V118.244L149.766 118.268Z" fill="#F0BDA1"/>
<path d="M192.557 226.414C192.705 229.168 190.697 230.607 188.987 232.245C188.59 232.642 188.218 232.642 187.821 232.245C187.474 231.674 187.003 231.153 186.83 230.533C186.656 229.863 186.359 228.722 187.821 229.416C189.458 230.186 190.549 230.558 189.21 228.102C188.912 227.556 188.689 226.514 190.201 226.886C190.92 227.06 191.788 226.588 192.581 226.39L192.557 226.414Z" fill="#F1BDA9"/>
<path d="M199.573 215.126L198.903 219.195C199.027 220.038 199.35 220.907 198.383 221.477C198.234 221.527 198.06 221.577 197.912 221.626C196.003 219.12 196.449 216.59 197.862 214.084C198.432 214.431 199.003 214.779 199.598 215.151L199.573 215.126Z" fill="#EDBDA1"/>
<path d="M247.198 118.864C247.223 117.871 247.272 116.879 247.297 115.887C248.735 115.688 249.999 116.308 250.47 117.524C251.041 119.013 249.206 119.286 248.438 119.856C246.95 120.997 245.115 121.518 243.628 119.558C243.801 119.558 243.975 119.534 244.173 119.509C245.264 119.682 246.256 119.36 247.198 118.864V118.864Z" fill="#EFBEA0"/>
<path d="M114.091 131.368C116.322 131.442 118.578 131.17 120.809 131.79C121.504 131.988 123.586 133.13 123.239 130.351C123.189 129.954 125.669 130.252 126.66 131.418C122.47 133.229 118.281 133.005 114.091 131.368Z" fill="#D49D51"/>
<path d="M150.956 117.078C151.13 117.028 151.303 117.003 151.477 117.053C154.055 117.549 156.212 116.457 158.294 115.142C158.815 114.795 159.385 114.621 159.906 115.043C160.03 115.142 160.005 115.564 159.906 115.788C159.013 117.872 152.617 118.79 150.981 117.078H150.956Z" fill="#F0BDA8"/>
<path d="M136.701 127.795C137.247 130.251 134.421 131.045 134.049 133.129C133.925 133.849 133.082 133.303 132.66 132.906C131.817 132.137 131.991 131.12 131.941 130.152C132.041 130.053 132.115 129.954 132.214 129.83C134.049 129.879 134.619 127.125 136.726 127.795H136.701Z" fill="#F0BDA8"/>
<path d="M185.417 221.651C186.755 221.651 186.408 220.187 187.127 219.542C188.392 222.718 188.119 223.561 185.417 225.199C184.524 224.008 184.648 222.817 185.417 221.626V221.651Z" fill="#F1BCA7"/>
<path d="M189.582 164.042C189.136 165.63 188.739 167.243 187.202 168.21C186.954 168.384 186.706 168.384 186.458 168.21C186.26 167.789 186.26 167.392 186.632 167.044C188.07 166.821 187.698 165.655 187.847 164.737C188.02 163.497 188.59 163.174 189.607 164.092L189.582 164.042Z" fill="#F3B7AA"/>
<path d="M112.356 137.744C113.05 139.431 113.075 141.118 112.331 142.781C111.612 141.093 111.563 139.406 112.356 137.744Z" fill="#EBC1A4"/>
<path d="M186.607 168.186H187.226C186.656 169.972 184.772 170.121 183.607 171.138C183.136 170.791 182.293 170.468 182.293 170.096C182.243 169.005 183.26 169.476 183.855 169.377C184.45 169.302 185.045 169.302 185.441 168.757C185.417 167.764 185.912 167.764 186.607 168.161V168.186Z" fill="#F3B6A9"/>
<path d="M195.061 164.638L195.408 162.777C194.887 160.991 195.656 159.081 194.961 157.294C194.738 156.972 194.515 156.649 194.292 156.327C194.763 156.426 195.383 156.351 195.656 156.649C196.672 157.766 196.201 163.323 195.061 164.638Z" fill="#F1A1A5"/>
<path d="M206.737 115.291L205.721 117.698C206.018 118.268 206.217 118.839 205.746 119.434C203.911 119.186 204.407 117.747 204.556 116.755C204.729 115.688 205.275 114.671 206.737 115.291Z" fill="#EFBD9E"/>
<path d="M101.101 159.899C101.101 159.502 101.101 159.105 101.101 158.709C101.919 159.031 102.415 157.021 103.257 158.287C103.58 158.758 103.58 159.775 103.257 160.247C102.439 161.537 101.919 159.502 101.101 159.875V159.899Z" fill="#EBC1A5"/>
<path d="M185.417 221.651C185.417 222.842 185.417 224.033 185.417 225.223C185.367 225.968 184.97 226.365 184.227 226.414C184.698 224.851 183.086 222.767 185.417 221.676V221.651Z" fill="#EEC0A1"/>
<path d="M205.746 119.434C205.746 118.864 205.746 118.268 205.722 117.698C206.465 119.608 208.697 118.095 209.713 119.41C208.399 120.849 207.085 120.08 205.771 119.41L205.746 119.434Z" fill="#B78647"/>
<path d="M246.801 115.787C246.008 116.135 244.868 118.516 244.62 115.415C244.57 114.671 243.529 114.324 243.678 113.43C245.066 113.778 245.934 114.77 246.777 115.787H246.801Z" fill="#B68541"/>
<path d="M218.712 123.032C218.093 123.801 217.274 124.124 216.332 124.223C216.481 123.404 215.018 122.809 215.663 122.213C216.878 121.047 217.597 123.057 218.712 123.032V123.032Z" fill="#ECC3AF"/>
<path d="M159.312 171.659C160.601 172.007 161.444 172.751 161.741 174.091C159.832 174.388 159.014 173.594 159.312 171.659Z" fill="#F2B2A7"/>
<path d="M171.683 177.738H179.542C179.542 178.854 178.674 178.482 178.054 178.581C176.17 178.407 174.261 178.953 172.402 178.283L171.683 177.738Z" fill="#BE676E"/>
<path d="M241.248 117.772C243.455 116.16 243.603 117.723 243.702 119.36C242.884 118.839 242.066 118.293 241.248 117.772Z" fill="#B68541"/>
<path d="M155.766 159.899C155.741 160.048 155.716 160.197 155.691 160.371C155.245 161.611 155.245 162.827 155.691 164.067C155.691 164.241 155.667 164.415 155.617 164.588C153.981 162.976 153.634 161.413 155.766 159.899V159.899Z" fill="#F2ABAB"/>
<path d="M187.796 232.27C188.193 232.27 188.59 232.27 188.962 232.27C189.581 232.344 190.226 232.394 190.846 232.468C190.92 232.865 190.796 233.163 190.474 233.361C188.714 234.254 187.053 233.56 185.392 232.964L184.747 232.443L185.392 232.22C186.185 232.22 186.978 232.27 187.772 232.27H187.796Z" fill="#90CAB0"/>
<path d="M178.301 178.308C178.723 178.11 179.12 177.911 179.541 177.713L180.706 177.614C181.078 177.365 181.475 177.316 181.871 177.589C181.351 179.871 179.516 178.532 178.326 178.904C178.128 178.78 178.054 178.656 178.128 178.532C178.202 178.407 178.277 178.333 178.326 178.333L178.301 178.308Z" fill="#F0B3A7"/>
<path d="M178.302 178.308C178.302 178.507 178.302 178.68 178.302 178.879C176.343 178.631 174.261 179.499 172.401 178.283H178.327L178.302 178.308Z" fill="#F3A3AB"/>
<path d="M186.606 168.186L185.441 168.781C184.945 168.483 184.276 168.186 184.574 167.516C184.995 166.623 185.937 167.119 186.631 166.995C186.631 167.392 186.631 167.764 186.606 168.161V168.186Z" fill="#EEBAA3"/>
<path d="M221.265 123.156C220.447 122.387 219.555 123.255 218.712 123.057C219.356 121.221 220.497 121.667 221.712 122.436L221.29 123.156H221.265Z" fill="#ECC3AF"/>
<path d="M211.597 112.364C210.952 113.058 210.184 113.555 209.192 113.505C209.117 113.108 207.754 112.513 209.341 112.364C210.084 112.289 210.853 112.364 211.621 112.364H211.597Z" fill="#EFBD9E"/>
<path d="M110.571 180.07C110.794 178.532 111.984 178.978 112.926 178.879C112.703 180.417 111.513 179.971 110.571 180.07Z" fill="#E7C0AA"/>
<path d="M177.012 173.495C177.012 173.495 177.235 173.495 177.31 173.57C177.434 173.669 177.533 173.818 177.632 173.942C176.492 174.289 175.351 174.165 174.211 173.991C174.161 173.991 174.087 173.842 174.087 173.743C174.087 173.644 174.186 173.57 174.236 173.495C175.153 173.495 176.095 173.495 177.012 173.495V173.495Z" fill="#BE5A65"/>
<path d="M219.877 118.219C219.505 118.194 219.059 118.169 219.084 117.673C219.084 117.177 219.53 117.152 219.902 117.152C220.274 117.152 220.72 117.201 220.695 117.698C220.695 118.194 220.249 118.194 219.877 118.219Z" fill="#E9C3A4"/>
<path d="M190.747 162.231C190.573 162.256 190.4 162.306 190.251 162.355C190.424 160.768 189.507 159.006 190.895 157.567C191.119 159.13 191.317 160.693 190.747 162.231Z" fill="#EF97A2"/>
<path d="M190.747 162.231C190.797 160.668 190.846 159.13 190.871 157.567C191.02 157.518 191.169 157.493 191.342 157.468C191.119 159.056 191.937 160.768 190.747 162.231Z" fill="#BE656F"/>
<path d="M191.218 171.684C191.441 170.816 191.416 169.774 192.557 169.476C192.482 170.443 192.829 171.659 191.218 171.684Z" fill="#EEA2A3"/>
<path d="M181.847 177.564C181.45 177.564 181.078 177.564 180.682 177.589C181.202 175.827 182.64 176.72 183.731 176.522C183.111 176.869 182.491 177.217 181.847 177.564Z" fill="#BD5F6E"/>
<path d="M171.062 107.501C171.757 106.831 172.575 106.434 173.566 106.459C173.219 107.972 172.029 107.501 171.062 107.501Z" fill="#EBB68C"/>
<path d="M193.796 167.144C193.846 166.176 193.35 164.961 194.887 164.613C194.837 165.581 194.49 166.424 193.796 167.144Z" fill="#C1616A"/>
<path d="M238.719 116.011C240.504 115.142 240.38 116.656 240.677 117.623C240.033 117.078 239.363 116.557 238.719 116.011Z" fill="#B68541"/>
<path d="M130.751 130.152C130.9 128.986 131.718 128.961 132.61 129.036C132.833 129.681 132.313 129.854 131.941 130.152C131.544 130.152 131.148 130.152 130.776 130.152H130.751Z" fill="#D8A46A"/>
<path d="M204.432 219.269L206.713 220.46C207.903 221.626 207.853 223.288 208.374 224.727C210.58 226.39 210.803 228.25 209.093 231.079C208.696 231.55 208.547 232.195 208.175 232.716C207.605 233.237 207.481 234.18 206.663 234.478C205.795 234.428 205.399 234.825 205.547 235.693C205.126 236.835 204.283 237.628 203.291 238.274C201.878 240.482 200.589 240.184 199.647 237.951C198.854 236.065 197.242 234.552 197.242 232.344C198.457 231.624 199.052 229.987 201.258 230.806C202.523 231.277 203.539 228.895 203.663 227.605C203.886 225.248 204.432 222.743 203.242 220.435C202.796 219.195 203.167 218.773 204.432 219.244V219.269Z" fill="#D03F1B"/>
<path d="M190.673 232.914C190.748 232.741 190.797 232.592 190.872 232.443H192.582C191.962 233.187 194.838 234.006 192.533 234.726C192.161 235.123 191.938 235.52 192.533 235.916C193.202 235.817 193.921 235.817 194.541 235.594C195.136 235.371 195.731 234.478 196.003 235.768C196.177 236.512 196.301 237.678 195.334 237.777C192.805 238 190.103 239.241 187.748 237.132C186.359 235.023 187.822 234.329 189.458 233.708C189.805 233.386 190.425 233.51 190.599 232.939L190.673 232.914Z" fill="#009B79"/>
<path d="M209.093 231.079C209.415 228.895 209.539 226.737 208.374 224.727L209.192 224.033C211.622 223.487 212.564 225.397 213.159 226.985C213.729 228.498 213.655 230.384 211.572 231.153L209.093 231.079V231.079Z" fill="#009B72"/>
<path d="M211.572 231.153C213.531 227.506 213.184 226.439 209.192 224.033C210.234 221.725 211.25 223.239 212.217 224.107C214.126 225.869 214.696 229.54 213.283 231.153C212.837 231.649 212.143 233.063 211.572 231.153V231.153Z" fill="#009977"/>
<path d="M206.688 234.503C206.688 233.535 206.688 232.518 208.002 232.369C208.399 232.394 208.795 232.369 209.192 232.369C210.407 232.592 210.655 233.461 210.06 234.304C209.39 235.247 208.498 236.438 207.531 236.611C206.366 236.81 207.035 235.247 206.663 234.527L206.688 234.503Z" fill="#009977"/>
<path d="M190.177 233.56C189.855 235.048 186.954 234.825 187.797 237.107C185.69 236.512 185.417 235.321 186.607 233.609C187.772 233.014 188.962 233.088 190.152 233.56H190.177Z" fill="#009E72"/>
<path d="M203.316 238.298C203.416 236.859 204.258 236.09 205.572 235.718C205.87 237.504 205.325 238.546 203.316 238.298Z" fill="#009776"/>
<path d="M190.177 233.56C188.987 233.56 187.797 233.585 186.631 233.609C186.16 233.51 185.665 233.46 185.441 232.964C187.177 232.964 188.937 232.964 190.672 232.939C191.317 233.758 190.35 233.386 190.177 233.585V233.56Z" fill="#45866A"/>
<path d="M192.557 235.917C192.383 236.214 192.234 236.71 192.011 236.76C191.565 236.859 191.441 236.388 191.416 236.016C191.367 235.222 191.763 234.825 192.557 234.75V235.941V235.917Z" fill="#009F6D"/>
<path d="M205.622 214.58C204.308 214.183 204.506 213.141 204.556 212.149C206.019 212.471 205.622 213.637 205.622 214.58Z" fill="#0D9270"/>
<path d="M209.192 232.344C209.093 232.766 209.093 233.336 208.473 233.212C208.275 233.163 208.151 232.666 208.002 232.369C208.002 231.6 208.151 231.004 209.118 231.079L209.192 232.369V232.344Z" fill="#009B72"/>
<path d="M206.762 218.178C205.349 217.805 205.671 216.689 205.696 215.697C206.341 216.391 206.911 217.111 206.762 218.178Z" fill="#2C9063"/>
<path d="M192.507 232.245C192.879 230.806 194.019 231.203 194.986 231.227C194.242 231.773 193.523 232.369 192.507 232.245Z" fill="#DDBCA4"/>
<path d="M376.759 142.16L376.164 142.036C375.247 141.49 373.933 141.912 373.189 140.87C372.495 140.324 371.379 140.523 370.908 139.58C366.471 137.943 363.942 134.593 363.173 130.103C362.653 127.002 362.082 123.727 363.619 120.65C363.768 120.501 363.818 120.328 363.743 120.129C364.338 118.616 364.214 116.705 366.049 115.887C368.851 110.627 377.354 106.136 383.254 106.732C384.048 106.806 384.816 106.955 385.461 107.501C391.138 118.368 392.75 129.731 389.601 141.689C389.304 142.086 388.957 142.508 388.486 142.557C384.568 142.954 380.627 143.574 376.784 142.136L376.759 142.16Z" fill="#010101"/>
<path d="M360.148 102.762C361.239 96.8824 366.049 95.1458 370.734 93.2602C371.428 92.6152 372.494 92.7888 373.189 92.1686L376.759 90.9281C381.643 89.3899 386.626 90.2086 391.584 90.3575C394.262 90.1094 396.121 92.1934 398.501 92.8136C399.468 93.0617 399.889 93.9053 400.459 94.5999L401.03 95.1706C403.261 95.5923 404.277 97.5027 405.715 98.9168C406.038 99.5123 405.914 100.133 405.864 100.778C405.74 101.869 406.162 103.085 405.195 104.003C404.624 104.722 404.253 105.69 403.187 105.913C400.831 106.409 398.65 106.062 396.716 104.524C389.749 99.0161 382.238 99.1897 374.428 102.365C372.048 103.333 369.966 104.871 367.734 106.136C365.974 107.154 364.09 107.848 362.404 105.888L361.363 105.194C360.396 104.698 360.545 103.581 360.099 102.787L360.148 102.762Z" fill="#F8F1F5"/>
<path d="M403.509 105.218C404.104 104.821 404.352 103.953 405.245 103.978C405.278 106.426 403.03 108.179 398.501 109.238C399.171 110.85 400.212 111.644 401.898 110.776C403.484 109.957 405.74 110.428 406.658 108.245C407.03 107.352 407.947 107.55 408.319 108.171C409.236 109.808 409.062 111.594 408.492 113.282C408.244 114.001 407.426 113.778 407.005 113.356C405.963 112.388 404.798 111.793 403.583 112.761C401.947 114.051 404.253 114.919 404.154 116.085C404.154 116.234 404.327 116.408 404.426 116.606C405.567 116.755 405.096 115.638 405.517 115.217C406.261 114.472 407.228 114.522 407.996 114.869C409.112 115.39 407.848 115.961 407.823 116.507C407.724 117.772 407.748 119.062 407.625 120.328C407.525 121.469 407.972 122.66 407.228 123.776C406.162 123.776 406.732 122.287 405.344 122.188C405.815 126.158 404.352 129.681 402.964 133.278C402.517 134.444 402.146 134.941 400.98 134.841C400.113 133.303 401.08 131.988 401.575 130.624C404.451 122.461 401.278 114.77 393.493 110.825C390.741 109.411 387.667 108.989 384.915 107.625C377.23 107.178 371.057 110.18 366.024 115.837C366.024 115.068 366.024 114.274 366.024 113.505C367.065 113.306 368.231 112.115 367.859 111.743C366.917 110.801 365.652 109.982 364.09 109.907C363.099 109.883 361.785 110.428 361.338 108.94C360.967 107.699 361.338 106.632 362.405 105.839C364.636 106.707 366.495 106.037 368.404 104.673C373.734 100.852 379.684 98.6437 386.328 99.3384C390.246 99.7602 394.287 100.306 396.964 103.854C398.749 106.111 400.832 107.029 403.46 105.169L403.509 105.218Z" fill="#F3C89A"/>
<path d="M384.94 107.65C393.022 107.848 399.616 112.413 402.616 118.864C404.525 122.958 404.352 127.374 402.195 131.542C401.649 132.584 401.401 133.75 401.03 134.866C400.856 135.04 400.683 135.214 400.509 135.412C398.03 138.613 395.104 141.168 390.989 142.012C390.22 142.582 389.551 142.706 389.179 141.59C389.601 137.124 390.22 132.683 390.146 128.168C390.047 120.898 387.469 114.299 384.915 107.675L384.94 107.65Z" fill="#EEEBE9"/>
<path d="M455.795 140.92C455.795 138.538 455.795 136.156 455.795 133.799C455.795 132.609 456.192 131.988 457.506 131.963C461.596 131.939 465.265 136.007 464.621 140.101C464.051 143.723 462.29 146.775 459.588 149.281C458.844 149.975 458.076 150.645 456.96 150.248C455.77 149.827 455.82 148.76 455.82 147.767C455.82 145.485 455.82 143.202 455.82 140.945L455.795 140.92Z" fill="#D09F69"/>
<path d="M419.525 82.6912C423.467 86.5119 427.334 90.3822 430.111 95.1953C431.078 96.8824 431.945 98.6191 432.54 100.48C429.937 100.653 429.07 98.9664 428.847 96.8327C428.747 95.89 428.847 95.4434 427.607 95.6419C426.243 95.8404 424.756 96.2125 424.037 94.1037C423.665 93.0617 422.797 94.4014 422.302 94.7983C421.483 95.4434 420.616 96.2869 419.847 95.0961C419.203 94.1285 419.971 93.5082 421.012 93.2601C421.707 93.1113 421.93 92.5407 421.83 91.8956C421.707 91.1761 421.136 90.9528 420.492 90.9776C418.484 91.1017 418.137 89.9356 418.459 88.323C419.004 85.4947 417.988 84.2045 414.814 83.8076V80.2846C414.988 79.9869 415.211 79.9869 415.434 80.235C416.426 80.235 416.947 81.1281 417.765 81.4507C418.31 81.8972 419.103 82.0213 419.525 82.6663V82.6912Z" fill="#F3C89A"/>
<path d="M455.448 132.435C454.382 133.576 453.985 134.171 453.96 135.114C453.911 138.315 454.431 141.515 452.944 144.641C452.151 146.303 453.167 148.313 453.663 150.124C454.01 151.365 454.035 152.432 452.572 152.605C451.208 152.754 449.027 153.374 448.878 151.365C448.481 145.882 445.705 140.696 446.92 135.065C446.994 134.693 446.969 134.271 447.787 134.097C448.085 136.082 448.407 138.017 448.68 140.002C448.853 141.342 448.63 143.177 450.589 143.053C452.349 142.954 451.531 141.193 451.655 140.151C451.779 138.985 451.828 137.769 451.655 136.603C451.283 134.147 452.547 133.105 455.497 132.46L455.448 132.435Z" fill="#F3C89A"/>
<path d="M363.595 120.65C361.537 128.689 364.636 134.742 370.908 139.58C368.999 140.746 368.057 144.145 365.008 142.656C361.413 140.895 359.702 137.843 360.149 133.725C361.735 132.013 362.33 129.904 362.504 127.671C362.628 126.034 362.504 124.372 362.529 122.709C362.529 121.841 362.429 120.898 363.619 120.65H363.595Z" fill="#F3C89A"/>
<path d="M380.329 70.7576C382.064 68.9713 387.122 67.8548 389.353 68.5991C392.973 69.8148 396.692 70.7327 400.534 70.7576C399.89 72.6679 400.757 73.2137 402.542 73.1393C404.65 73.0401 406.484 73.6603 407.625 75.6203C403.732 75.1241 400.162 73.437 396.196 72.9904C390.865 72.395 385.61 72.3702 380.329 72.9904C379.66 72.2461 379.734 71.5019 380.329 70.7576V70.7576Z" fill="#F4EEED"/>
<path d="M428.003 99.6858C429.764 101.621 430.507 102.589 429.466 104.673C428.722 106.136 427.731 108.94 430.73 110.156C431.549 110.478 431.4 111.272 431.449 111.942C431.549 113.48 431.102 115.117 432.392 116.432C432.615 116.656 432.491 117.723 432.342 117.772C429.615 118.516 430.334 120.7 430.259 122.56C430.235 123.429 430.012 124.347 428.97 124.099C427.433 123.727 428.921 122.982 428.896 122.387C428.648 118.392 429.664 114.497 428.227 110.379C427.185 107.426 428.028 103.829 428.028 99.7106L428.003 99.6858Z" fill="#F3C89A"/>
<path d="M406.484 131.343C406.038 133.551 407.228 135.313 408.17 137.099C408.542 137.819 409.137 138.464 408.492 139.208C407.972 139.828 407.302 139.555 406.633 139.208C404.823 138.34 403.906 140.101 403.534 140.994C402.146 144.344 401.129 143.053 399.915 140.994C399.84 140.87 399.543 140.895 399.369 140.821C399.419 140.175 399.741 139.506 400.262 139.406C404.526 138.588 404.451 134.841 405.542 131.864C405.641 131.591 406.162 131.492 406.484 131.318V131.343Z" fill="#F3C89A"/>
<path d="M356.554 114.721C358.339 114.398 357.422 112.81 357.893 111.868C358.24 111.173 358.736 110.329 359.529 110.453C360.421 110.577 360.074 111.57 360.099 112.19C360.124 116.209 360.099 120.204 360.099 124.223C358.413 124.421 357.694 123.776 357.67 121.965C357.645 119.534 355.909 117.301 356.529 114.721H356.554Z" fill="#F3C89A"/>
<path d="M406.485 89.762C407.303 89.9357 407.848 88.4471 408.517 89.117C409.212 89.8117 408.989 90.9529 408.517 91.8709C407.154 94.4263 407.699 97.0065 408.517 99.5371C409.112 101.348 408.84 103.035 408.691 105.119C406.708 103.755 408.914 101.125 406.485 100.48C405.741 99.686 405.89 98.8921 406.485 98.0981C406.683 96.808 406.187 95.7908 405.195 95.0217C404.229 94.2774 404.005 93.285 404.105 92.1438C404.972 91.4243 405.617 90.4815 406.485 89.762V89.762Z" fill="#F3C89A"/>
<path d="M432.664 101.596C432.863 101.646 433.061 101.671 433.259 101.671C434.573 104.697 436.656 107.6 434.92 111.173C433.061 111.545 434.4 113.48 432.813 114.795C433.359 110.056 429.541 106.037 432.664 101.621V101.596Z" fill="#F3C89A"/>
<path d="M390.989 142.012C394.163 139.803 397.336 137.62 400.509 135.412C400.807 136.801 399.716 137.471 398.972 138.315C398.104 139.307 397.509 140.275 399.344 140.87C398.501 142.805 397.559 143.847 395.229 142.384C394.163 141.714 392.427 142.111 390.989 142.012Z" fill="#F3C89A"/>
<path d="M357.769 142.781C357.769 138.216 357.769 133.626 357.769 129.061C357.769 128.465 358.091 128.168 358.711 128.292C359.306 128.416 360.074 128.589 360 129.284C359.826 130.897 360.843 132.534 359.38 134.122C358.339 135.238 359.107 136.975 358.959 138.414C358.81 139.853 359.281 141.366 358.636 142.756H357.793L357.769 142.781Z" fill="#F3C89A"/>
<path d="M406.484 89.762C406.732 91.5731 405.939 92.3918 404.104 92.1437V90.9528C402.741 89.6627 400.708 91.0521 399.344 89.762C399.047 87.5043 400.435 86.8592 402.121 87.5539C403.608 88.1493 405.641 87.8516 406.484 89.762V89.762Z" fill="#F2C996"/>
<path d="M434.921 114.746C434.97 116.681 435.169 118.566 434.103 120.452C432.888 122.61 435.491 122.164 436.284 122.982C435.193 124.322 433.458 123.727 432.367 123.603C430.607 123.404 431.375 120.501 431.623 120.427C434.648 119.534 433.16 116.184 434.921 114.721V114.746Z" fill="#F3C89A"/>
<path d="M434.92 111.148C435.267 107.824 433.779 104.822 433.259 101.646C436.259 101.596 435.118 104.474 435.738 105.789C436.606 107.625 437.275 110.354 435.093 112.339C435.044 111.942 434.994 111.545 434.945 111.148H434.92Z" fill="#F7ECED"/>
<path d="M392.204 90.9528C387.047 90.1589 381.915 90.2085 376.759 90.9528C377.775 89.7868 379.114 89.762 380.502 89.762C384.395 89.762 388.287 89.762 392.204 89.762C392.551 90.1589 392.576 90.5559 392.204 90.9528Z" fill="#F4CAA9"/>
<path d="M392.204 90.9528V89.7619C395.601 89.489 397.832 91.9452 400.509 93.3345C399.914 93.8307 399.295 93.7315 398.7 93.3345L392.204 90.928V90.9528Z" fill="#F3C89A"/>
<path d="M366.049 115.887L363.743 120.129C363.644 119.658 363.644 118.839 363.471 118.79C361.934 118.467 361.14 118.318 362.355 116.333C363.669 114.175 364.76 115.341 366.074 115.862L366.049 115.887Z" fill="#F3C89A"/>
<path d="M389.205 141.59C389.725 142.061 390.37 141.962 391.015 142.011C390.94 142.83 390.494 143.227 389.676 143.227C385.784 143.227 381.891 143.227 377.999 143.227C377.33 143.227 376.933 142.83 376.784 142.185C380.949 142.656 385.164 143.748 389.205 141.59V141.59Z" fill="#F3C89A"/>
<path d="M407.129 125.86C407.402 128.391 408.146 130.797 408.716 133.253C405.989 131.244 406.261 128.614 407.129 125.86Z" fill="#F3C89A"/>
<path d="M357.521 91.3745C357.694 92.6894 357.793 94.0292 358.066 95.3441C358.165 95.8403 359.008 96.3117 358.14 96.7086C357.446 97.0311 356.727 96.7086 356.653 95.8403C356.529 94.3517 356.38 92.8383 357.521 91.3745Z" fill="#EFCA98"/>
<path d="M366.074 113.53C364.636 113.431 363.173 113.778 361.686 113.257C363.52 110.429 364.19 110.503 366.074 113.53Z" fill="#F3C89A"/>
<path d="M414.789 83.8323C413.781 85.4863 412.219 86.1478 410.104 85.817C411.74 84.8247 412.93 83.6586 414.789 83.8323Z" fill="#F3C89A"/>
<path d="M399.344 89.762C400.906 90.2334 402.988 88.6208 404.104 90.9529C402.542 90.4815 400.459 92.0942 399.344 89.762Z" fill="#F3C89A"/>
<path d="M408.245 157.021C407.55 155.731 407.476 154.441 408.145 152.853C409.236 154.416 408.964 155.731 408.245 157.021Z" fill="#F3C89A"/>
<path d="M405.244 98.7926C403.856 97.5769 402.468 96.3613 401.055 95.1704C403.757 94.302 404.228 96.6342 405.319 98.0979C405.492 98.346 405.468 98.5941 405.244 98.7926Z" fill="#F3C89A"/>
<path d="M406.485 140.895C407.129 140.945 407.575 141.242 407.6 141.937C407.625 142.756 407.203 143.178 406.385 143.153C405.666 143.153 405.394 142.731 405.567 142.011C405.691 141.466 405.642 140.821 406.485 140.895V140.895Z" fill="#F3C89A"/>
<path d="M448.109 163.348C447.96 164.464 448.357 165.556 447.266 167.367C446.969 165.407 446.225 164.266 448.109 163.348Z" fill="#F3C89A"/>
<path d="M448.183 172.106C446.497 170.791 446.745 169.724 447.39 168.235C448.406 169.525 447.886 170.692 448.183 172.106Z" fill="#F3C89A"/>
<path d="M360.149 105.194C360.05 106.062 360.372 106.955 359.802 107.774C359.19 106.864 359.306 106.004 360.149 105.194Z" fill="#F3C89A"/>
<path d="M405.22 103.978L405.393 100.505C406.459 100.207 405.939 101.398 406.459 101.621C406.36 102.564 406.856 103.829 405.22 103.978V103.978Z" fill="#F3C89A"/>
<path d="M406.459 101.621L405.393 100.505C405.344 99.9341 405.294 99.3634 405.22 98.7928C405.22 98.5695 405.269 98.3214 405.294 98.0981H406.459V101.621Z" fill="#F0CC95"/>
<path d="M360.124 124.223C361.512 124.52 361.388 125.289 360.893 126.331C359.777 125.786 360.273 124.917 360.124 124.223Z" fill="#F3C89A"/>
<path d="M373.214 140.87L376.189 142.036C375.296 141.391 373.288 143.574 373.214 140.87Z" fill="#F3C89A"/>
<path d="M407.649 86.2637C408.021 86.2885 408.467 86.2885 408.467 86.8095C408.467 87.3057 408.021 87.3305 407.649 87.3305C407.277 87.3305 406.831 87.3057 406.831 86.8095C406.831 86.3133 407.277 86.3133 407.649 86.2637Z" fill="#F3C89A"/>
<path d="M470.645 143.227C470.496 143.897 470.967 144.765 470.05 145.261C469.133 144.765 469.604 143.922 469.455 143.227H470.645V143.227Z" fill="#F1CB91"/>
<path d="M357.744 102.837V100.455C359.405 101.249 359.405 102.043 357.744 102.837Z" fill="#F1CA8F"/>
<path d="M355.389 102.837C357.05 103.631 357.05 104.425 355.389 105.194V102.837Z" fill="#EECC96"/>
<path d="M380.329 70.7577V72.9906C379.933 72.9906 379.536 73.0402 379.164 73.065C379.164 72.2959 379.164 71.5268 379.164 70.7329H380.354L380.329 70.7577Z" fill="#F9EAF0"/>
<path d="M454.06 163.447C453.341 163.249 452.448 163.77 451.928 162.653C452.994 162.107 453.713 162.107 454.06 163.447Z" fill="#F3C89A"/>
<path d="M447.936 163.521C448.605 162.107 449.274 162.058 450.266 162.802C449.621 163.645 448.778 163.298 447.936 163.521Z" fill="#F3C89A"/>
<path d="M373.214 92.1685C372.693 93.2105 371.801 93.4089 370.76 93.2601C371.132 91.8707 372.247 92.1933 373.214 92.1685Z" fill="#F3E6D9"/>
<path d="M360.149 102.762C360.868 103.407 361.215 104.251 361.413 105.169C360.992 105.169 360.545 105.194 360.124 105.218V102.787L360.149 102.762Z" fill="#F3C89A"/>
<path d="M370.908 139.58C371.776 139.803 372.569 140.2 373.189 140.845C372.247 140.721 370.983 141.218 370.908 139.58Z" fill="#F3C89A"/>
<path d="M415.409 80.2349C415.211 80.2349 414.988 80.2597 414.79 80.2845C414.071 80.2101 413.649 79.8131 413.6 79.0688C414.467 79.0688 415.013 79.5154 415.409 80.2349V80.2349Z" fill="#EDD1B5"/>
<path d="M398.7 93.3594C399.295 93.3594 399.914 93.3594 400.509 93.3594C400.509 93.7811 400.485 94.2029 400.46 94.5999C399.642 94.5254 399.096 94.0292 398.675 93.3594H398.7Z" fill="#F0D0B0"/>
<path d="M131.916 130.128C132.14 129.755 132.363 129.383 132.586 129.011C137.023 126.753 138.784 122.61 140.222 118.244C141.263 122.238 139.032 125.042 136.676 127.771C134.891 128.143 134.197 130.773 131.892 130.128H131.916Z" fill="#F0BDA1"/>
<path d="M101.323 79.4658C101.993 79.4658 102.141 79.8132 102.141 80.2101C102.166 81.2273 101.398 81.8228 100.679 82.1949C100.084 82.5174 99.9102 81.8972 99.9102 81.3762C99.9102 80.3094 100.902 80.0613 101.323 79.4658V79.4658Z" fill="#D59949"/>
<path d="M123.983 75.8931C123.339 75.5954 122.57 75.4465 122.868 74.7023C123.066 74.2309 123.611 73.6354 124.082 73.561C124.925 73.4121 124.801 74.2309 124.801 74.7767C124.801 75.4217 124.603 75.8683 123.983 75.8931V75.8931Z" fill="#D89849"/>
<path d="M103.48 75.5956C103.753 76.588 103.208 76.712 102.588 76.6872C102.067 76.6872 101.249 76.7616 101.472 75.9181C101.596 75.4467 102.117 74.8761 102.588 74.7024C103.431 74.3799 103.307 75.273 103.505 75.5956H103.48Z" fill="#D6984F"/>
<path d="M83.2256 98.1724C83.3743 97.6514 83.3991 97.1304 83.895 97.3041C84.1181 97.3785 84.2916 97.8747 84.3164 98.1972C84.3412 98.5446 84.242 99.0656 83.7214 98.8919C83.4735 98.8175 83.3495 98.3709 83.2256 98.1724Z" fill="#C9A03D"/>
<path d="M92.7213 108.692C92.5725 109.213 92.5725 109.734 92.0519 109.56C91.8288 109.486 91.6552 108.99 91.6304 108.692C91.6056 108.344 91.7048 107.848 92.2254 107.997C92.4733 108.072 92.5973 108.518 92.7213 108.692Z" fill="#D9984A"/>
<path d="M397.039 65.9941C394.163 65.9941 391.833 65.9693 389.502 65.9941C387.767 66.0189 386.106 65.8701 384.42 66.8873C382.56 68.0037 380.999 66.1678 379.412 65.3739C379.238 65.2995 379.214 64.6048 379.362 64.2822C379.561 63.8605 379.933 64.0838 380.354 64.183C383.8 64.9769 387.097 65.2498 390.593 63.8605C392.477 63.1162 395.105 62.7192 397.064 65.9693L397.039 65.9941Z" fill="#F4EEEE"/>
<path d="M429.838 86.487C432.962 85.9164 434.647 87.926 436.829 87.6779C437.226 87.6283 437.499 88.5462 437.226 88.9184C435.416 91.1513 436.656 93.9051 435.961 96.4606C433.854 96.0636 433.755 94.5502 433.829 92.9624C433.929 90.3077 433.16 88.0996 429.838 86.487V86.487Z" fill="#F3EFF0"/>
<path d="M401.724 70.7576H400.534C402.691 68.103 405.418 68.0285 408.418 68.9217C406.98 69.5667 405.418 69.8893 404.079 70.7576C403.286 71.3779 402.493 71.3779 401.724 70.7576V70.7576Z" fill="#F4EFF0"/>
<path d="M377.974 68.3759C377.156 68.2766 376.734 67.8549 376.858 67.0113C376.908 66.7881 377.23 66.3911 377.305 66.4159C378.247 66.7384 378.966 67.3091 379.139 68.3759C378.742 68.7232 378.346 68.7232 377.949 68.3759H377.974Z" fill="#F6EDF0"/>
<path d="M401.725 70.7576H404.08C403.287 72.4198 402.493 72.4198 401.725 70.7576Z" fill="#F1F2E5"/>
<path d="M407.674 73.0649C407.302 73.0401 406.881 73.0152 406.881 72.5191C406.881 72.0229 407.327 71.998 407.699 71.998C408.071 71.998 408.492 72.0477 408.492 72.5439C408.492 73.0401 408.046 73.0401 407.674 73.0649Z" fill="#F4EFF0"/>
<path d="M377.974 68.376H379.164V70.7329C377.627 70.5096 378.073 69.3187 377.974 68.376Z" fill="#EAF2EA"/>
<path d="M419.525 82.6913C418.682 82.6416 418.137 82.1951 417.765 81.4756C418.657 81.4508 419.5 81.4756 419.525 82.6913Z" fill="#F7E8D0"/>
<path d="M370.833 161.065H373.808C378.692 159.353 383.7 158.535 388.857 159.006C392.129 159.304 395.501 158.708 397.113 159.601C391.46 158.783 384.196 158.212 376.883 158.46C375.767 158.51 375.098 159.155 374.403 159.85C372.147 159.626 369.842 160.346 367.635 158.882C366.693 158.262 365.082 158.287 363.991 159.056C361.76 160.643 361.289 159.552 361.313 157.493C373.065 157.195 384.766 155.855 396.542 156.277C400.559 156.426 401.625 157.344 401.674 161.363C401.724 164.812 401.699 168.285 401.724 171.758C401.302 172.949 401.278 174.115 401.724 175.306C401.724 177.291 401.724 179.276 401.724 181.26C400.112 180.913 400.583 179.623 400.559 178.631C400.509 174.661 400.559 170.716 400.509 166.747C400.509 165.953 401.079 164.737 399.046 165.258C397.311 165.705 398.997 163.124 397.385 162.703C396.518 164.836 397.212 167.193 396.964 169.451C395.104 168.955 395.526 167.317 395.402 166.052C395.03 162.901 394.733 162.603 391.51 162.951C385.609 163.596 379.684 163.174 373.784 163.249C372.792 163.249 371.8 163.149 370.957 162.529C370.511 162.058 370.462 161.586 370.858 161.065H370.833Z" fill="#F3EEEC"/>
<path d="M452.819 166.995H454.009C453.885 168.459 454.307 169.972 453.414 171.907C452.522 169.947 452.943 168.434 452.819 166.995V166.995Z" fill="#F1CA93"/>
<path d="M420.243 216.515C419.797 215.498 418.657 214.804 419.028 213.588C419.053 213.464 419.847 213.389 420.094 213.588C421.26 214.407 420.59 215.473 420.268 216.54L420.243 216.515Z" fill="#F8C49B"/>
<path d="M401.7 175.306C400.832 174.14 400.832 172.949 401.7 171.758C401.7 172.949 401.7 174.115 401.7 175.306Z" fill="#F2EFED"/>
<path d="M420.764 221.676C420.739 222.048 420.714 222.445 420.665 222.817C420.442 223.016 420.218 223.214 419.995 223.412C419.252 222.395 419.549 221.849 420.739 221.676H420.764Z" fill="#EFCEAC"/>
<path d="M399.369 196.618C400.014 195.973 400.807 195.601 401.7 195.501C401.526 195.874 401.328 196.221 401.154 196.593C400.559 196.593 399.964 196.593 399.369 196.618Z" fill="#F4DAD2"/>
<path d="M181.574 83.6835C180.31 82.9144 179.343 82.3686 179.64 81.0289C179.764 80.4086 180.359 80.2102 180.781 80.5079C181.723 81.2026 182.02 82.1949 181.574 83.6835V83.6835Z" fill="#B08736"/>
<path d="M370.834 162.157C377.974 162.033 385.138 162.579 392.278 161.71C395.848 161.264 396.319 161.785 396.419 165.407C396.443 166.747 396.022 168.161 396.939 169.401C396.939 175.629 396.939 181.831 396.964 188.058C396.964 191.606 396.741 191.83 393.072 191.879C388.832 191.929 384.593 191.978 380.329 192.003C379.759 192.499 379.089 192.524 378.395 192.524C371.503 192.524 364.636 192.45 357.744 192.698C356.702 192.326 356.207 191.631 356.256 190.465C356.454 181.707 356.058 172.974 355.983 164.216C355.983 163.522 356.058 162.827 356.529 162.281L360.124 162.207C363.694 161.264 367.264 161.338 370.834 162.157V162.157Z" fill="#F3C899"/>
<path d="M357.719 192.524C365.256 191.532 372.792 192.152 380.354 192.028C380.23 193.07 380.874 193.938 378.569 193.517C373.214 192.524 367.636 193.12 362.157 193.244C361.636 193.244 361.413 193.814 361.314 194.311C359.925 193.219 358.091 193.293 356.554 192.648C356.901 192.152 357.273 192.202 357.694 192.524H357.719Z" fill="#F4EDEA"/>
<path d="M400.485 193.12C400.46 193.492 400.46 193.938 399.94 193.938C399.444 193.938 399.419 193.492 399.419 193.12C399.419 192.748 399.444 192.301 399.94 192.301C400.435 192.301 400.46 192.748 400.485 193.12Z" fill="#ECF2E5"/>
<path d="M357.719 192.524C357.347 192.574 356.95 192.599 356.579 192.648C356.033 192.127 355.909 191.457 355.959 190.763C356.455 181.261 355.215 171.783 355.413 162.281C355.785 162.281 356.157 162.281 356.554 162.306C356.554 171.337 356.603 180.367 356.579 189.398C356.579 190.614 356.653 191.73 357.719 192.524Z" fill="#BFD6C9"/>
<path d="M356.554 195.526C355.091 195.08 354.224 196.395 353.009 196.667V194.335C353.777 193.69 354.571 193.69 355.364 194.335C356.133 194.385 356.529 194.782 356.554 195.551V195.526Z" fill="#F4EDEA"/>
<path d="M355.364 194.31H353.009C353.777 192.648 354.571 192.648 355.364 194.31Z" fill="#EAF2ED"/>
<path d="M358.958 195.526C358.908 196.27 358.512 196.667 357.768 196.692C357.917 195.998 357.371 195.08 358.388 194.683C358.462 194.658 358.76 195.228 358.958 195.526Z" fill="#F4EDEA"/>
<path d="M465.984 149.752C467.72 148.685 468.315 149.876 469.034 150.72C469.108 150.819 468.885 151.34 468.736 151.39C467.199 151.861 466.926 150.472 465.984 149.752V149.752Z" fill="#EECB96"/>
<path d="M198.383 221.452C198.556 220.683 198.259 219.815 198.903 219.17C198.903 221.825 202.498 222.916 201.928 226.191C199.746 225.099 198.383 223.809 198.383 221.452V221.452Z" fill="#D2401D"/>
<path d="M204.432 219.269C203.689 219.319 203.292 219.691 203.242 220.46C202.573 220.286 201.507 220.882 201.333 219.815C201.259 219.393 202.003 218.674 202.523 218.376C203.416 217.88 204.209 218.078 204.432 219.269Z" fill="#D73B19"/>
<path d="M374.379 159.874C373.561 158.361 373.735 157.468 375.743 157.493C379.784 157.542 383.85 157.493 387.891 157.518C389.676 157.518 391.163 159.205 393.37 157.815C393.989 157.418 396.716 158.708 398.625 158.733C400.559 158.758 400.609 158.956 400.163 162.008C394.386 158.956 388.114 159.626 382.089 160.098C379.387 160.321 376.61 161.115 373.784 161.065L374.379 159.874V159.874Z" fill="#F2EFED"/>
<path d="M370.834 162.157C367.264 162.157 363.694 162.182 360.124 162.207C360.372 160.817 361.463 161.065 362.405 161.041C365.206 161.041 368.008 161.041 370.834 161.041V162.157Z" fill="#F4EEEF"/>
<path d="M355.289 158.584L358.512 158.833C358.512 160.023 357.843 160.768 357 160.718C355.909 160.644 355.487 159.602 355.289 158.584Z" fill="#F6EDF0"/>
<path d="M224.662 139.431C224.587 142.781 225.157 145.435 226.224 148.015C226.546 148.809 226.918 149.827 225.802 150.298C224.786 150.745 224.091 150.075 223.72 149.181C222.306 145.683 221.439 142.086 221.935 138.29C222.059 137.397 221.935 135.809 223.645 136.107C225.108 136.355 224.562 137.595 224.637 138.513C224.662 139.009 224.637 139.506 224.637 139.431H224.662Z" fill="#E7E5E6"/>
<path d="M225.852 130.227C225.852 131.74 225.778 133.551 223.919 133.576C222.481 133.576 222.233 131.988 222.257 130.649C222.257 129.11 222.431 127.374 224.241 127.324C225.778 127.299 225.927 128.912 225.852 130.252V130.227Z" fill="#E8E5E6"/>
<path d="M182.194 174.885C182.591 173.892 183.508 174.289 183.979 173.793C184.525 173.197 185.145 172.701 186.012 173.222C186.136 173.297 186.211 173.793 186.111 173.942C185.64 174.537 185.169 175.232 184.302 175.281C183.632 175.331 182.938 175.455 182.219 174.885H182.194Z" fill="#CA4F74"/>
<path d="M194.962 157.294C196.053 159.031 195.458 160.941 195.408 162.777C194.466 161.016 195.136 159.13 194.962 157.294Z" fill="#B86066"/>
<path d="M186.607 171.684C186.235 171.659 185.789 171.634 185.813 171.138C185.813 170.642 186.26 170.617 186.632 170.617C187.003 170.617 187.425 170.667 187.425 171.163C187.425 171.659 186.979 171.659 186.607 171.684Z" fill="#C75179"/>
<path d="M155.716 164.067C154.873 162.852 154.799 161.611 155.716 160.371C155.716 161.611 155.716 162.827 155.716 164.067Z" fill="#C27476"/>
<path d="M224.638 112.339H218.688C220.398 110.329 225.109 108.99 227.365 110.032C228.009 110.329 227.092 110.751 227.018 111.148C226.472 112.041 225.208 111.471 224.638 112.339Z" fill="#B58438"/>
<path d="M224.638 112.339C224.861 110.801 226.076 111.247 227.018 111.148C227.836 111.371 228.505 111.768 227.241 112.24C226.472 112.537 225.505 112.339 224.638 112.339Z" fill="#B6843F"/>
<path d="M247.197 118.864C246.478 120.352 245.412 120.402 244.173 119.509C245.065 118.814 246.032 118.343 247.197 118.864Z" fill="#B68541"/>
<path d="M382.114 131.318C382.114 129.83 382.114 128.341 382.114 126.877C382.114 125.736 382.635 124.917 383.825 124.893C384.866 124.893 385.536 125.686 385.56 126.604C385.659 129.755 385.684 132.931 385.61 136.082C385.61 137.049 384.841 137.794 383.85 137.769C382.684 137.769 382.139 136.901 382.139 135.784C382.139 134.295 382.139 132.807 382.139 131.343L382.114 131.318Z" fill="#F8F0E6"/>
<path d="M380.899 118.541C380.85 116.805 380.701 115.192 382.734 115.266C384.817 115.366 384.916 117.127 385.089 118.69C385.263 120.253 384.792 121.692 383.106 121.643C381.073 121.593 380.825 119.856 380.875 118.516L380.899 118.541Z" fill="#F8F0E7"/>
<path d="M403.509 105.218C400.435 108.419 399.195 108.171 397.014 103.904C398.997 105.268 401.203 105.442 403.509 105.218Z" fill="#F3CAA3"/>
<path d="M389.874 71.3531C391.138 70.584 392.056 70.6584 393.345 71.2539C392.105 72.1966 391.188 72.0974 389.874 71.3531Z" fill="#EDF1ED"/>
<path d="M364.859 171.783C365.801 175.802 366.47 179.97 370.859 182.03C371.627 182.377 372.346 182.427 373.09 182.501C373.313 182.65 373.511 182.774 373.734 182.898C374.999 183.121 376.288 183.096 377.552 182.898C377.899 182.774 378.271 182.65 378.618 182.476C382.139 182.129 386.031 178.085 386.229 174.463C386.329 172.503 386.229 170.518 386.229 168.558C386.229 167.441 386.75 166.97 387.89 167.02C388.833 167.069 389.527 167.218 389.799 168.359C391.535 175.207 388.808 181.906 382.709 185.503C382.04 186.892 380.75 186.371 379.66 186.545C373.982 188.257 369.346 186.272 365.33 182.377C362.355 179.524 360.967 176.001 361.413 171.833C362.529 170.84 363.669 170.766 364.834 171.758L364.859 171.783Z" fill="#E077AC"/>
<path d="M364.884 169.377C366.322 169.501 367.413 169.228 367.289 167.392C367.264 166.871 367.239 166.027 368.132 166.3C368.603 166.449 369.247 167.144 369.198 167.516C369.024 169.004 369.57 171.262 366.644 170.567C366.099 170.443 365.479 170.567 364.909 170.567L364.661 170.319C364.537 169.947 364.587 169.649 364.884 169.377V169.377Z" fill="#F2C995"/>
<path d="M383.527 172.056C382.461 170.419 382.709 169.525 383.056 168.037C384.171 169.451 383.849 170.394 383.527 172.056Z" fill="#EDCB99"/>
<path d="M364.859 171.783C363.719 171.783 362.578 171.833 361.438 171.858C361.339 171.039 361.735 170.617 362.504 170.518C363.322 169.923 364.115 169.923 364.884 170.568L364.834 171.783H364.859Z" fill="#F2ADB0"/>
<path d="M382.709 189.572C380.875 189.82 380.082 189.026 380.329 187.19C380.726 186.818 381.123 186.892 381.519 187.19L382.709 189.572V189.572Z" fill="#F0CA98"/>
<path d="M381.519 187.19H380.329L379.685 186.545C380.503 185.627 381.817 186.123 382.734 185.503C382.734 186.346 382.635 187.116 381.544 187.19H381.519Z" fill="#F5C19C"/>
<path d="M373.239 183.022C373.189 182.848 373.139 182.675 373.09 182.501C374.949 182.501 376.784 182.501 378.643 182.501C378.42 182.675 378.172 182.873 377.949 183.047C376.387 183.493 374.825 183.518 373.263 183.047L373.239 183.022Z" fill="#F7BBB4"/>
<path d="M382.635 189.572C383.428 189.621 384.221 189.423 384.94 190.217C383.701 191.011 383.056 190.763 382.635 189.572Z" fill="#F0CA98"/>
<path d="M364.884 170.568C364.091 170.568 363.297 170.543 362.504 170.518C362.777 169.029 363.967 169.476 364.884 169.377V170.568V170.568Z" fill="#F6C4A2"/>
<path d="M373.238 183.022C374.8 183.022 376.362 183.022 377.924 183.022C376.362 183.915 374.8 183.94 373.238 183.022Z" fill="#E19E95"/>
</g>
<defs>
<clipPath id="clip0_5114_44006">
<rect width="595" height="287" fill="white"/>
</clipPath>
</defs>
</svg>
