<svg width="595" height="287" viewBox="0 0 595 287" fill="none" xmlns="http://www.w3.org/2000/svg">
<g clip-path="url(#clip0_5118_42379)">
<path d="M0.743672 0.0496196C197.837 0.0496196 394.956 0.0744295 592.05 0C594.355 0 595 0.297718 595 2.82832C594.926 97.3537 594.926 191.879 594.926 286.405C594.107 286.901 593.19 286.677 592.322 286.677C556.722 286.677 521.096 286.677 485.495 286.677C484.107 286.305 483.785 285.09 483.685 283.948C483.388 280.152 482.396 276.456 482.272 272.635C482.595 270.824 481.876 269.162 481.429 267.475C481.231 266.706 481.231 265.936 481.181 265.143C481.107 263.604 480.562 262.141 480.19 260.677C479.124 253.829 477.116 247.18 475.331 240.506C474.959 238.298 473.967 236.289 473.149 234.254C472.182 231.079 469.976 229.268 466.901 228.126C461.745 226.216 456.613 224.182 451.258 222.817C450.266 222.519 449.398 221.899 448.308 221.924C444.539 221.155 440.845 220.013 437.027 219.344C435.366 218.947 433.78 218.277 432.044 218.351C431.548 218.351 431.077 218.351 430.582 218.302C425.227 217.036 419.698 216.788 414.368 215.448C413.674 214.803 413.599 213.985 413.773 213.116C413.847 212.794 413.971 212.496 414.145 212.198C415.136 210.859 414.145 208.899 415.533 207.683C419.822 206.443 424.161 206.939 428.474 207.336C436.556 208.08 444.638 208.427 452.77 208.179C456.043 208.08 456.96 206.914 457.357 203.614C458.571 193.69 458.348 183.692 459.117 173.743C459.39 170.319 460.381 167.814 463.753 166.201C469.455 163.447 474.091 159.304 477.686 154.044C479.719 151.042 481.008 147.742 481.107 144.095C481.305 137.174 476.496 132.137 469.529 131.74C467.05 131.591 464.348 132.509 462.092 130.673C461.348 129.408 461.398 127.994 461.522 126.629C462.389 116.978 462.092 107.278 463.083 97.6515C463.53 93.3097 462.017 91.8956 457.679 91.3746C448.06 90.2085 438.341 90.3326 428.697 89.7123C411.244 88.5711 393.766 88.2982 376.313 86.9832C374.875 86.4374 373.387 86.4622 371.9 86.5863C364.859 87.1073 357.868 86.4374 350.876 85.7924C346.042 85.3458 341.183 85.4202 336.348 85.6931C332.878 85.8916 331.043 87.7771 331.068 91.2505C331.167 105.02 329.903 118.715 329.68 132.46C329.481 145.311 328.663 158.138 328.366 170.989C327.349 174.115 328.142 177.365 327.696 180.516C326.779 182.997 327.547 185.602 327.027 188.108C326.928 188.604 326.68 189.026 326.457 189.473C325.589 193.368 326.085 197.337 326.134 201.257C326.134 202.771 327.3 203.441 328.812 203.416C342.893 204.532 357 204.458 371.082 205.301C372.941 205.425 374.85 205.525 376.437 206.715C377.602 208.75 377.577 210.809 376.536 212.893C373.933 214.531 371.057 213.737 368.28 213.761C364.289 213.439 360.347 213.985 356.43 214.655C355.934 214.779 355.413 214.878 354.893 214.878C354.372 214.903 353.851 214.903 353.356 214.952C344.976 215.126 336.795 216.664 328.613 218.277C327.25 218.55 325.886 218.649 324.523 218.55C323.085 218.302 321.771 218.798 320.507 219.393C317.581 220.311 314.631 221.155 311.706 222.023C311.011 222.023 310.466 222.321 309.97 222.767C309.202 223.437 308.433 224.107 308.036 225.1C307.937 225.348 307.813 225.596 307.689 225.819C306.946 227.58 305.83 229.218 305.855 231.228C305.012 234.701 304.59 238.274 303.623 241.722C303.45 245.121 302.285 248.371 302.136 251.77C301.764 253.408 301.045 254.971 301.12 256.732C301.12 257.799 301.095 258.866 300.946 259.932C300.921 260.23 300.847 260.528 300.748 260.826C300.475 262.761 299.806 264.622 299.954 266.606C299.954 267.872 299.954 269.162 299.83 270.427C299.83 270.75 299.756 271.072 299.682 271.395C298.839 274.297 298.764 277.275 298.764 280.252C298.616 282.559 299.012 284.99 297.029 286.826C286.393 286.926 275.733 286.851 265.097 286.851C264.502 286.802 264.18 286.405 263.957 285.884C263.411 284.246 264.205 282.361 263.015 280.822C261.205 274.297 259.321 267.822 256.123 261.793C255.428 260.503 254.809 259.163 253.991 257.948C245.14 243.508 232.62 233.758 216.53 228.523C215.415 228.151 214.2 228.002 213.307 227.109C212.192 224.43 211.993 221.874 214.2 219.592C216.233 218.624 218.439 218.971 220.571 218.971C224.786 218.971 228.976 218.823 233.19 219.046C235.744 219.368 238.198 219.046 240.628 218.202C244.867 217.582 248.933 216.54 252.528 214.01C256.023 211.529 258.156 208.204 258.875 204.036C259.569 199.967 260.461 195.898 260.337 191.705C260.387 191.408 260.486 191.11 260.61 190.837C269.113 180.02 274.84 167.938 277.146 154.317C277.27 153.895 277.443 153.498 277.667 153.101C278.41 151.737 277.915 150.298 277.84 148.884C279.253 128.738 274.097 110.553 261.924 94.3766C260.66 90.8288 257.238 89.2905 254.561 87.3306C246.603 81.4506 237.455 77.9276 227.86 75.6203C226.819 75.3226 225.852 74.876 224.736 74.8512C220.323 74.4047 215.985 73.4123 211.522 73.2634C211.2 73.1642 210.903 73.0401 210.63 72.8664C207.407 71.8492 204.159 72.147 200.912 72.6928C200.49 72.9161 200.044 73.1394 199.598 73.2634C197.366 73.7348 195.11 73.5363 192.879 73.4867C192.606 73.4867 192.309 73.4867 192.011 73.4867C191.119 73.7348 190.028 72.8168 189.26 73.9085C189.086 74.1069 188.863 74.2558 188.615 74.3798C187.499 74.752 186.359 74.6776 185.218 74.6776C184.004 74.5535 183.012 75.2482 181.921 75.5955C168.707 78.7216 156.287 83.7083 145.378 91.846C134.941 99.6362 127.057 109.535 123.413 122.213C122.396 125.736 121.529 129.458 121.727 133.254C121.826 135.139 121.206 137.099 122.372 138.885C122.57 139.282 122.694 139.704 122.768 140.151C122.917 141.118 122.719 142.16 123.314 143.053C124.652 146.626 125.619 150.397 128.272 153.35C128.421 153.771 128.396 154.193 128.222 154.615C125.421 156.376 123.388 158.733 122.496 161.983C121.33 164.762 121.157 167.516 122.471 170.295C123.636 172.627 124.95 174.86 126.115 177.192C126.363 177.911 126.413 178.656 126.264 179.425C125.842 180.789 125.223 182.129 125.024 183.568C124.405 187.711 126.214 190.589 129.685 192.623C131.123 193.12 132.536 193.69 134.148 193.393C135.263 193.194 136.23 193.541 136.8 194.633C137.371 196.221 137.247 197.858 137.172 199.496C137.147 200.29 137.147 201.084 137.147 201.878C136.949 203.316 137.618 204.582 138.114 205.872C139.23 209.916 139.453 214.208 141.684 217.954C143.395 220.807 145.8 222.37 149.097 222.544C151.849 222.693 154.601 222.519 157.353 222.619C157.799 222.619 158.245 222.619 158.716 222.619C160.105 222.792 161.295 222.222 162.534 221.725C162.98 221.577 163.427 221.502 163.898 221.477C166.005 221.701 167.963 220.683 170.021 220.683C172.748 221.998 171.186 224.529 171.657 226.489C171.583 227.556 172.203 228.697 171.36 229.689C169.451 231.277 167.046 231.972 164.889 233.113C156.733 237.455 149.494 242.888 143.965 250.356C143.048 251.448 141.982 252.44 141.362 253.755C135.362 262.364 131.396 271.767 129.859 282.187C129.586 283.948 129.784 286.355 127.032 286.727C86.0518 286.727 45.0712 286.727 4.11534 286.727C1.76839 286.727 0.586658 285.561 0.57013 283.229C0.57013 189.919 0.57013 96.6094 0.57013 3.29971C0.57013 2.23288 0.297422 1.11644 0.842839 0.0992393L0.743672 0.0496196Z" fill="#58B67E"/>
<path d="M264.452 286.28L297.128 286.355C298.095 285.561 299.26 285.362 300.45 285.362C318.92 285.313 337.365 285.313 355.834 285.362C356.33 285.362 356.801 285.511 357.297 285.511C357.669 285.511 358.066 285.511 358.438 285.511C361.066 285.263 363.718 285.338 366.371 285.487C373.957 285.139 381.519 285.338 389.105 285.338C398.352 285.338 407.599 285.114 416.847 285.462C418.533 285.561 420.218 285.189 421.929 285.511C422.499 285.511 423.07 285.511 423.64 285.487C427.78 285.139 431.945 285.338 436.085 285.338C451.01 285.313 465.909 285.338 480.834 285.338C482.322 285.338 483.834 285.313 485.049 286.38H594.925C594.801 286.603 595.223 287.025 594.628 287C593.835 286.975 593.041 287 592.248 287H0.148444C0.148444 192.251 0.148444 97.5025 0.173236 2.72902C0.173236 1.86068 -0.520931 0.719426 0.718653 0.0495605C0.718653 94.2524 0.718653 188.455 0.644278 282.633C0.644278 285.759 1.4624 286.454 4.51178 286.454C44.5999 286.355 84.6632 286.38 124.751 286.38C125.842 286.38 126.933 286.305 127.999 286.256C129.065 285.338 130.354 285.313 131.643 285.313C170.071 285.313 208.498 285.214 246.925 285.338C248.065 285.536 249.206 285.586 250.346 285.387C253.817 285.288 257.263 285.338 260.734 285.362C262.023 285.362 263.337 285.313 264.378 286.256L264.452 286.28Z" fill="white"/>
<path d="M414.319 212.868L414.443 215.225C415.31 216.292 415.236 217.607 415.36 218.847C415.211 220.609 415.137 222.37 415.236 224.132C415.509 229.789 413.823 232.096 408.195 233.808C407.179 233.758 406.435 234.403 405.642 234.899C400.931 237.281 395.948 236.19 391.039 236.065C389.775 235.743 388.659 234.924 387.296 234.974C386.527 234.726 385.585 234.651 385.709 233.46C386.552 232.294 387.891 232.22 389.13 231.972C400.212 229.764 407.427 222.495 409.46 211.504C410.104 208.006 409.534 207.236 405.914 207.212C397.213 207.162 388.511 207.212 379.809 207.212C378.619 207.212 377.429 207.311 376.288 206.864C364.785 205.351 353.183 206.021 341.63 205.202C337.192 204.88 332.754 204.681 328.292 204.433C326.779 204.135 326.16 203.019 325.813 201.654C325.763 198.553 325.738 195.427 325.813 192.326C325.986 191.457 326.11 190.564 326.432 189.721C327.523 185.974 326.705 182.129 327.226 178.333C327.548 175.926 326.978 173.446 327.498 171.014C327.424 159.924 327.845 148.859 328.44 137.794C328.862 129.879 328.961 121.965 329.184 114.051C329.432 106.136 330.25 98.2469 329.878 90.3326C329.73 87.3802 332.878 84.4527 336.052 84.4527C340.812 84.4527 345.572 84.3534 350.307 84.7504C357.918 85.3954 365.529 85.6684 373.14 85.8172C374.206 85.8172 375.322 85.6187 376.338 86.239C375.495 86.8592 374.528 86.3878 373.636 86.5863C378.445 86.5119 379.09 87.3802 377.825 92.1685C377.652 92.8384 377.379 93.4834 377.33 94.1781C376.933 102.018 376.66 101.596 383.602 103.879C391.957 106.633 400.336 109.312 408.666 112.14C424.112 117.4 439.582 122.585 455.126 127.572C457.63 128.391 460.357 128.813 462.34 130.847C466.332 131.07 470.348 130.128 474.315 131.815C480.612 134.519 483.735 141.292 481.579 147.842C478.504 157.145 471.811 163.125 463.456 167.417C461.125 168.608 460.307 169.923 460.159 172.279C459.564 182.824 458.894 193.393 458.274 203.937C458.076 207.658 456.514 209.196 452.771 209.271C442.284 209.519 431.822 208.427 421.36 208.13C419.376 208.08 417.418 208.13 415.434 208.179C415.236 208.378 415.063 208.601 414.939 208.849C414.592 210.189 415.286 211.702 414.269 212.943L414.319 212.868Z" fill="#613A2A"/>
<path d="M192.061 72.7424L199.722 72.4447C203.515 71.7004 207.333 71.5515 211.126 72.4447C216.01 72.0229 220.72 73.5115 225.53 73.8588C225.976 74.9753 227.092 74.355 227.836 74.7768C236.29 76.3894 244.074 79.6643 251.462 84.0556C254.71 85.9908 257.338 88.6703 260.511 90.6799C261.528 91.3249 262.519 92.2677 262.321 93.7811C263.213 95.7659 261.949 96.8079 260.585 97.8003C259.842 98.1476 259.371 98.7183 259.172 99.5122C258.404 100.926 257.313 102.142 256.445 103.482C255.33 104.102 254.363 104.946 253.445 105.839C244.446 114.795 233.959 121.742 223.1 128.168C222.332 128.614 221.514 128.937 220.621 129.085C218.365 128.986 216.903 130.872 214.894 131.368C213.729 131.591 212.638 131.368 211.151 130.673C212.068 131.566 212.985 132.087 212.564 133.179C211.25 134.916 209.291 135.561 207.308 136.131C205.746 136.553 204.333 134.817 202.722 135.784C198.929 136.131 195.805 138.116 192.582 139.853C191.565 140.399 192.036 141.639 191.64 142.508C191.045 143.376 190.103 143.748 189.21 144.071C181.376 146.949 173.418 149.454 165.286 151.365C164.518 151.538 163.749 151.638 162.956 151.464C161.245 150.05 160.13 151.216 158.989 152.382C158.741 152.556 158.493 152.704 158.221 152.804C154.353 154.168 150.238 154.044 146.321 155.086C145.676 155.235 145.007 155.26 144.337 155.26C142.949 155.26 141.561 155.26 140.197 155.26C138.437 155.26 136.652 155.161 134.892 155.26C132.239 155.434 129.834 154.888 127.702 153.275C124.975 151.166 124.454 147.891 123.215 144.989C122.967 144.368 122.769 143.748 122.545 143.103C122.545 142.086 122.868 141.019 122.074 140.101L121.802 138.786C120.86 136.925 121.355 134.841 120.909 132.906C121.306 120.973 125.793 110.776 133.479 101.646C141.214 92.4414 150.932 86.0404 161.592 81.1033C168.038 78.1261 174.831 75.6699 181.971 74.6527C182.888 74.2558 183.979 74.3798 184.797 73.6851L188.987 73.4619C189.805 72.4447 191.268 73.6107 192.086 72.5687L192.061 72.7424Z" fill="#C95427"/>
<path d="M171.013 226.861C170.021 225.075 172.079 222.569 169.624 221.13C167.641 221.725 165.459 221.204 163.55 222.172L162.385 222.346C161.864 222.569 161.294 222.569 160.749 222.743C159.683 222.966 158.518 222.544 157.551 223.313C155.096 223.388 152.642 223.512 150.188 223.487C144.262 223.412 139.502 219.567 138.709 213.687C138.362 210.983 136.974 208.477 137.321 205.649C136.998 204.631 136.775 203.614 136.825 202.547C136.751 201.555 137.048 200.513 136.304 199.645L136.18 194.435C136.032 194.211 135.982 193.963 136.032 193.715C136.527 192.996 137.668 192.971 137.941 191.978C138.684 190.49 140.296 189.497 140.494 187.686C141.238 185.825 142.081 183.99 140.544 182.129C139.924 181.36 139.304 180.615 139.106 179.623C138.312 176.522 136.998 175.926 134.842 177.762C134.693 178.755 134.792 179.772 134.618 180.764C134.544 181.236 134.346 181.657 134.023 182.005C133.156 182.625 132.288 182.526 131.371 182.129C129.586 181.285 127.9 180.293 126.611 178.755C126.14 178.283 126.09 177.514 125.495 177.117C123.735 175.232 122.52 173.073 121.876 170.592C120.71 167.615 121.107 164.638 121.851 161.661C122.594 158.262 124.156 155.533 127.726 154.466C128.247 154.466 128.743 154.466 129.239 154.64C133.428 155.756 137.717 154.863 141.957 155.161C151.898 155.235 161.542 153.151 171.137 151.042C180.681 148.958 190.077 146.179 199.473 143.574C200.961 143.153 202.523 142.408 203.837 144.021C205.101 145.832 206.638 146.626 208.919 145.758C219.208 141.937 229.695 142.656 240.206 144.691C241.768 144.989 243.28 145.51 244.867 145.485C246.131 145.485 247.247 145.038 247.544 143.649C247.817 142.383 247.049 141.59 246.057 140.994C245.016 140.374 243.826 140.2 242.685 139.903C236.711 138.389 230.537 138.364 224.463 137.67C224.067 137.62 223.67 137.595 223.273 137.546C222.48 137.446 221.464 137.471 221.241 136.628C220.943 135.561 222.034 135.139 222.753 134.742C227.711 132.087 232.818 129.706 237.628 126.778C242.958 123.553 248.065 120.03 253.172 116.457C254.189 115.763 255.379 113.976 256.841 116.06C257.486 119.161 257.808 122.288 257.833 125.463C257.982 143.053 259.494 160.569 261.18 178.06C261.403 180.417 261.477 182.799 261.254 185.156C261.056 188.182 258.205 188.083 256.395 189.2C254.684 188.306 254.585 185.751 252.255 185.528C254.313 185.776 254.089 188.48 256.048 188.827C256.445 189.299 256.965 189.721 257.536 189.348C260.114 187.686 260.411 189.572 260.783 191.383C260.907 197.784 260.833 204.234 257.362 209.891C253.643 215.945 247.693 218.326 240.826 218.773C238.471 219.567 235.917 218.823 233.587 219.815L214.175 220.013C212.787 221.031 211.175 220.882 209.588 220.857C199.597 220.658 189.631 221.899 179.64 221.452C177.26 221.353 176.343 222.321 176.268 224.752C176.144 228.945 177.781 232.394 179.962 235.792C184.375 242.665 190.747 247.255 197.614 251.299C198.655 251.919 200.118 252.167 200.366 253.73C199.449 255.293 197.788 255.467 196.275 255.69C187.821 256.881 180.557 254.325 174.434 248.445C171.707 245.84 170.492 242.64 170.938 238.844C170.938 234.279 171.037 229.739 171.632 225.199C171.632 224.802 171.112 225.223 171.508 225.199C171.533 225.199 171.558 225.298 171.508 225.472C171.409 225.993 171.756 226.687 170.938 226.911L171.013 226.861Z" fill="#FAC8B3"/>
<path d="M171.856 238.943C171.112 243.434 173.442 246.51 176.64 249.066C183.731 254.747 191.54 256.881 200.366 253.507C200.54 253.507 200.713 253.507 200.887 253.507C212.737 257.055 224.91 258.072 237.182 258.047C241.52 258.047 245.834 257.452 250.148 256.93C251.586 256.757 253.098 256.31 254.462 257.278C258.998 264.398 261.924 272.164 263.436 280.475C264.527 281.914 263.932 283.75 264.502 285.313L264.428 286.281H250.247C249.28 285.983 248.313 285.983 247.346 286.305C241.52 286.33 235.669 286.38 229.843 286.405C197.094 286.405 164.344 286.405 131.594 286.405C130.404 286.405 129.214 286.33 128.049 286.281C129.115 279.805 130.305 273.305 132.809 267.251C134.867 262.24 137.321 257.327 140.94 253.135C141.783 252.117 142.924 251.348 143.296 249.984C146.444 244.923 151.006 241.276 155.692 237.802C160.328 234.329 165.435 231.624 170.79 229.392C172.104 231.203 171.335 233.312 171.583 235.272C171.732 236.487 171.285 237.777 171.88 238.968L171.856 238.943Z" fill="#48515A"/>
<path d="M485.049 286.38C464.422 286.38 443.771 286.38 423.144 286.38C421.855 284.445 422.995 282.534 423.367 280.698C425.772 269.038 429.466 257.7 431.548 245.965C431.722 244.972 431.92 244.029 431.598 243.062C431.499 242.764 431.424 242.442 431.4 242.144C431.276 240.978 431.226 239.812 430.929 238.67C430.284 236.239 430.135 233.957 433.209 232.989C434.449 232.592 434.399 231.6 434.3 230.582C434.052 228.052 433.383 225.596 432.838 223.115C432.515 221.626 431.722 220.138 432.342 218.525C433.904 217.458 435.416 218.624 436.953 218.649C441.019 218.947 444.837 220.311 448.754 221.229C449.498 221.874 450.44 221.899 451.307 222.197C458.299 223.536 464.868 226.141 471.165 229.367C472.95 230.285 473.372 232.245 473.744 234.081C474.512 236.09 474.512 238.373 476 240.085C478.058 246.882 480.214 253.656 480.884 260.776C481.776 262.066 480.19 263.952 481.925 265.043L482.099 267.326C482.371 268.963 482.52 270.601 483.115 272.164L485.049 286.38V286.38Z" fill="#F7F2F0"/>
<path d="M357.892 286.38C337.638 286.38 317.383 286.38 297.128 286.355L297.896 279.904C298.467 279.632 299.012 280.028 299.632 280.177C299.186 276.927 298.095 273.925 298.938 270.774C298.839 270.626 298.839 270.502 298.938 270.377C300.871 269.112 301.913 267.648 300.748 265.143C300.078 263.704 300.748 261.868 300.177 260.28L300.276 256.732C301.07 255.194 300.946 253.482 301.268 251.845C301.095 248.197 302.557 244.799 302.731 241.226C303.599 239.638 305.16 239.713 306.623 239.688C310.193 239.613 313.738 239.588 317.308 239.688C327.721 239.961 338.034 238.695 348.348 237.628C350.405 237.405 352.488 237.405 354.545 237.256C354.917 237.281 355.24 237.405 355.562 237.628C356.083 238.323 356.206 239.142 355.81 239.861C353.207 244.699 354.818 249.736 355.314 254.623C355.785 259.287 356.281 263.977 356.752 268.666C357.273 273.925 358.091 279.185 358.165 284.494C358.165 285.189 358.314 285.859 357.843 286.454L357.892 286.38Z" fill="#F7F2F0"/>
<path d="M462.34 130.773C455.72 128.639 449.126 126.431 442.482 124.347C434.276 121.791 426.194 118.864 417.988 116.284C411.864 114.373 405.84 111.967 399.741 109.908C394.113 107.997 388.485 106.037 382.684 104.549C380.825 104.077 379.065 103.134 377.28 102.39C376.709 102.142 376.288 101.695 376.313 101.026C376.362 98.371 375.966 95.5922 376.585 93.0616C378.023 87.008 378.222 87.0577 372.321 86.1893C373.66 86.1893 374.999 86.1893 376.338 86.1893C386.304 86.6359 396.295 87.0577 406.261 87.5291C421.087 88.2237 435.912 88.9432 450.713 89.6875C453.291 89.8116 455.844 90.0845 458.398 90.2333C462.613 90.4814 464.249 92.1685 464.075 96.3862C463.753 104.4 463.307 112.388 462.91 120.402C462.737 123.851 462.513 127.324 462.315 130.773H462.34Z" fill="#43362F"/>
<path d="M260.486 185.826C260.511 176.447 258.875 167.193 258.428 157.84C257.957 148.189 257.015 138.563 256.792 128.912C256.693 124.372 256.396 119.856 256.197 115.316C254.536 111.346 254.71 107.352 256.073 103.358C256.073 101.472 257.933 100.728 258.627 99.2641C259.123 98.7182 259.147 97.8003 260.015 97.5522C261.23 96.5846 262.37 95.5674 262.296 93.8059C268.32 100.827 272.262 108.99 275.138 117.673C278.237 127.051 279.328 136.801 278.832 146.676C278.782 147.519 278.584 148.388 278.46 149.231C278.485 149.529 278.46 149.826 278.361 150.099C278.163 151.414 278.386 152.804 277.692 154.044C276.849 162.628 273.799 170.543 269.808 178.06C267.403 182.6 264.8 187.091 261.106 190.763C259.767 189.249 260.685 187.463 260.536 185.801L260.486 185.826Z" fill="#562211"/>
<path d="M354.918 237.653C350.331 238.819 345.621 238.844 340.96 239.44C329.109 240.903 317.209 240.755 305.309 240.631C304.392 240.631 303.549 240.755 302.756 241.201C303.524 237.653 304.293 234.13 305.061 230.583C305.582 229.863 305.954 228.97 307.02 228.895C308.061 228.598 307.739 227.407 308.359 226.836C308.483 226.315 309.896 226.489 309.053 225.472C308.408 225.348 307.838 225.1 307.417 224.628C307.615 223.288 308.458 222.519 309.698 222.073C310.392 222.122 310.516 221.403 310.962 221.13L320.432 218.599C321.573 218.004 322.986 218.351 324.077 217.533C328.49 217.235 332.754 215.92 337.092 215.473C342.646 214.878 348.149 213.389 353.802 213.96C355.339 215.151 354.496 216.689 354.273 218.054C353.529 222.321 352.414 226.489 351.248 230.657C350.653 232.84 350.629 234.428 353.133 235.321C354.075 235.669 355.19 236.239 354.967 237.653H354.918Z" fill="#C9C7C5"/>
<path d="M200.391 253.507C189.78 248.322 180.706 241.549 176.095 230.111C175.029 227.481 175.574 224.851 175.525 222.197C175.5 220.807 176.566 220.411 177.781 220.46C189.954 220.932 202.077 219.393 214.249 219.939C213.456 222.271 213.307 224.628 213.977 227.035C215.886 230.359 215.241 233.758 214.299 237.157C212.365 238.274 213.059 240.11 213.059 241.747C213.059 242.045 212.985 242.318 212.935 242.591C211.175 247.304 207.928 250.728 203.49 253.035C202.523 253.532 201.531 253.929 200.416 253.755C200.465 253.656 200.465 253.556 200.416 253.457L200.391 253.507Z" fill="#F5B294"/>
<path d="M213.481 237.678C214.274 234.155 213.629 230.582 213.952 227.035C220.993 228.374 227.29 231.5 233.264 235.346C242.041 241.003 249.305 248.148 254.486 257.303C246.503 258.667 238.471 259.486 230.389 259.015C221.166 258.469 211.919 257.923 203.019 255.07C202.076 254.772 201.085 254.598 200.391 253.804C205.795 251.497 209.911 247.8 212.415 242.417C212.662 242.169 212.935 242.094 213.208 242.218C213.257 242.02 213.034 241.995 213.034 241.871C212.786 241.201 212.886 240.506 212.861 239.837C212.836 239.043 212.836 238.274 213.456 237.653L213.481 237.678Z" fill="#26313B"/>
<path d="M376.263 206.79C376.957 205.996 377.899 206.194 378.767 206.194C388.163 206.194 397.559 206.194 406.955 206.194C410.451 206.194 411.145 207.063 410.699 210.511C409.038 222.718 400.509 231.203 388.212 232.964C387.345 233.088 386.502 233.386 385.634 233.609C384.568 234.279 383.626 233.709 382.634 233.361C380.031 231.848 377.329 230.458 375.544 227.853C374.478 225.819 374.651 223.636 375.023 221.527C375.321 219.765 375.42 218.029 375.346 216.267C375.271 215.002 375.346 213.761 376.189 212.719L376.288 206.765L376.263 206.79Z" fill="#4B2B1D"/>
<path d="M414.814 218.451C414.12 217.433 414.467 216.292 414.442 215.2C420.045 215.324 425.549 216.143 430.953 217.557C431.796 217.88 431.97 218.599 432.218 219.393C433.259 222.792 433.879 226.29 434.647 229.739C435.118 231.873 434.548 233.212 432.441 233.758C430.73 234.205 430.309 235.073 430.879 236.76C431.499 238.596 431.524 240.606 432.143 242.466L432.069 242.367C432.639 245.989 431.226 249.339 430.507 252.763C428.226 263.381 425.028 273.801 422.896 284.469C422.747 285.164 422.499 285.784 422.053 286.33H417.194C416.153 284.395 416.996 282.46 417.343 280.55C419.723 267.003 421.111 253.333 421.607 239.588C421.756 235.867 420.64 232.344 420.442 228.697C421.086 226.687 419.698 224.951 419.648 223.065C419.549 222.941 420.02 222.743 419.574 222.619C419.252 222.693 418.954 222.668 418.632 222.569C417.045 221.428 415.706 220.113 414.764 218.401L414.814 218.451Z" fill="#F6F2EF"/>
<path d="M376.164 212.744V216.367C375.594 218.227 373.784 218.897 372.594 220.162C371.85 220.956 371.156 221.75 370.636 222.718C368.702 225.422 368.008 228.598 367.189 231.724C367.066 231.997 366.942 232.27 366.768 232.518C365.999 233.857 366.842 235.669 365.528 236.835C362.702 237.951 359.802 238.447 356.777 238.1C355.438 236.934 353.926 236.041 352.29 235.371C350.505 234.651 350.058 233.51 350.554 231.649C352.166 225.794 353.529 219.89 354.769 213.935L355.959 213.861C358.884 213.538 361.834 213.315 364.785 213.315C365.851 213.315 366.966 213.513 367.958 212.819L376.164 212.719V212.744Z" fill="#C9C8C4"/>
<path d="M139.776 179.474L140.966 181.856C142.552 183.841 141.437 185.826 140.966 187.81C141.536 190.093 138.982 190.763 138.586 192.549C138.04 193.368 136.801 192.896 136.28 193.765L136.156 194.435C133.851 193.616 131.198 194.856 129.041 193.144C129.115 191.532 130.454 191.854 131.396 191.73C133.032 191.482 134.173 190.788 134.421 189.051C134.47 188.778 134.545 188.53 134.669 188.282C135.016 187.562 135.561 186.992 136.156 186.471C137.52 185.305 137.173 184.312 135.958 183.345C135.09 182.575 134.545 181.558 133.826 180.64V177.117C137.197 175.852 138.04 176.199 139.751 179.449L139.776 179.474Z" fill="#F8E1B4"/>
<path d="M135.016 188.927C135.586 191.408 134.024 192.152 132.066 192.499C131.049 192.673 129.909 192.177 129.066 193.144C125.074 190.986 123.388 187.587 124.281 183.493C125.248 184.411 126.19 185.379 127.702 184.957C128.62 185.106 128.719 186.297 129.636 186.471C130.975 188.307 133.404 187.736 135.016 188.927V188.927Z" fill="#F4E3B3"/>
<path d="M432.143 242.491C430.011 240.481 431.573 237.157 429.49 234.999C428.92 234.403 430.532 233.907 431.077 233.783C434.127 233.138 434.821 231.674 433.953 228.647C432.912 224.975 432.465 221.13 430.928 217.582C431.3 217.582 431.697 217.582 432.069 217.582C432.565 217.83 432.366 218.401 432.664 218.748C433.432 223.015 434.746 227.159 435.292 231.5C435.465 232.89 435.193 233.386 434.102 233.535C430.804 233.981 430.928 236.214 431.598 238.472C431.994 239.836 432.094 241.151 432.118 242.516L432.143 242.491Z" fill="#393735"/>
<path d="M354.769 213.96C354.769 219.17 352.76 224.008 351.769 229.044C350.703 234.453 350.579 234.651 355.636 236.562C356.38 236.835 356.876 236.859 356.752 237.753C356.851 238.001 356.802 238.249 356.603 238.422C355.959 238.596 355.735 238.025 355.339 237.753C355.19 237.753 355.041 237.728 354.893 237.678C354.62 237.405 354.347 237.132 354.099 236.859C352.785 235.52 349.934 235.892 349.662 233.758C349.438 232.046 350.455 230.21 350.852 228.424C351.942 223.636 353.851 219.021 353.752 213.985H354.769V213.96Z" fill="#2C2C28"/>
<path d="M127.9 185.404C125.644 186.768 124.529 185.974 124.281 183.518C124.058 181.98 124.504 180.64 125.545 179.474C126.016 179.127 126.115 178.432 126.76 178.259L131.446 181.36C130.95 182.154 130.132 182.402 129.264 182.575C128.347 182.799 126.562 182.451 128.173 184.287C128.297 184.709 128.272 185.081 127.925 185.404H127.9Z" fill="#F8E0B4"/>
<path d="M300.227 260.255C301.243 260.404 301.417 261.123 301.417 261.967C301.417 263.704 301.665 265.316 302.359 267.028C303.599 270.03 300.673 269.757 298.987 270.328C299.037 268.939 299.086 267.549 299.136 266.16C300.029 264.249 299.756 262.165 300.202 260.181L300.252 260.23L300.227 260.255Z" fill="#F3F2ED"/>
<path d="M298.963 270.774C298.442 273.975 300.475 276.753 300.426 279.88C300.426 280.5 301.888 281.07 300.698 281.765C299.979 282.187 299.583 281.17 299.062 280.797C298.665 280.5 298.294 280.202 297.922 279.88C297.674 276.778 298.12 273.751 298.963 270.75V270.774Z" fill="#F3F2ED"/>
<path d="M260.486 185.826C261.205 187.413 260.685 189.15 261.057 190.788L260.809 191.333C259.966 190.043 259.172 188.828 257.313 190.043C256.792 190.391 256.346 189.621 256.247 188.976C258.206 188.654 256.941 186.793 257.933 185.702C258.677 186.62 259.644 188.778 260.486 185.85V185.826Z" fill="#F8C4B3"/>
<path d="M171.855 238.943C170.492 235.867 171.434 232.517 170.765 229.367C171.508 228.598 170.542 227.655 170.988 226.861C171.137 225.546 171.31 224.256 171.459 222.941H171.855V238.943Z" fill="#F4CCBF"/>
<path d="M367.958 212.843C367.635 214.208 366.52 213.935 365.603 213.935C362.404 213.935 359.182 213.935 355.983 213.885C359.925 212.843 363.917 212.67 367.958 212.843V212.843Z" fill="#BECABE"/>
<path d="M327.498 170.94C327.498 176.621 327.522 182.303 327.547 187.984C327.547 188.753 327.671 189.572 326.952 190.167C326.332 186.967 326.58 183.766 326.903 180.566C326.903 177.341 326.679 174.115 327.473 170.94H327.498Z" fill="#514327"/>
<path d="M326.308 202.026C326.779 202.969 327.374 203.813 328.267 204.359C326.457 204.656 325.441 203.267 325.391 202.051C325.193 197.685 324.523 193.293 325.763 188.952C326.73 189.994 326.085 191.16 326.11 192.326C326.16 195.551 325.738 198.801 326.333 202.026H326.308Z" fill="#68BA86"/>
<path d="M128.495 155.21L127.702 154.441C127.702 154.094 127.652 153.746 127.652 153.424C131.817 155.037 136.205 154.317 140.519 154.59C140.395 155.359 139.825 155.434 139.23 155.409C135.66 155.309 132.065 155.632 128.495 155.235V155.21Z" fill="#C1582A"/>
<path d="M307.392 224.628H309.723C310.615 226.067 309.103 226.29 308.533 226.985C308.533 227.853 308.706 228.821 308.409 229.59C307.938 230.855 307.541 230.161 307.318 229.367C306.301 227.953 306.723 226.539 307.268 225.1C307.268 224.926 307.268 224.752 307.392 224.628Z" fill="#CEC5C5"/>
<path d="M326.308 202.026C325.093 198.801 326.035 195.476 325.763 192.202C325.688 191.135 325.763 190.043 325.763 188.976L326.283 188.381C326.928 189.547 326.705 190.738 326.457 191.929L326.308 202.026V202.026Z" fill="#44B174"/>
<path d="M121.827 161.636C121.827 164.613 121.827 167.59 121.851 170.568C119.918 167.59 120.339 164.613 121.827 161.636Z" fill="#8DC794"/>
<path d="M307.268 225.1L307.342 229.367C306.574 229.764 305.83 230.186 305.062 230.583C305.309 228.548 305.88 226.663 307.268 225.1Z" fill="#B9CBBC"/>
<path d="M233.637 219.765C235.769 217.532 238.471 219.096 240.876 218.723C238.57 219.79 236.141 219.964 233.637 219.765Z" fill="#E3D0AE"/>
<path d="M211.126 72.4695H199.722C199.945 72.271 200.193 72.0973 200.416 71.9237C203.936 71.5267 207.481 71.3034 211.002 72.0229C211.027 72.1718 211.076 72.3206 211.126 72.4447V72.4695Z" fill="#6B8644"/>
<path d="M326.457 191.929L326.283 188.381C326.754 185.801 326.085 183.121 326.928 180.566C326.928 183.766 326.928 186.967 326.977 190.167C326.953 190.812 327.027 191.457 326.482 191.954L326.457 191.929Z" fill="#69533B"/>
<path d="M476 240.085C473 238.918 474.141 236.214 473.744 234.081C475.033 235.892 475.628 237.951 476 240.085Z" fill="#E9F1E8"/>
<path d="M481.926 265.019C481.132 264.82 480.686 266.383 479.942 265.614C479.298 264.969 479.918 264.225 480.413 263.58C481.083 262.761 480.686 261.694 480.86 260.751C481.504 262.091 481.901 263.505 481.901 265.019H481.926Z" fill="#ECF2EB"/>
<path d="M210.977 72.0229C207.456 71.9981 203.911 71.9485 200.391 71.9236C203.936 71.0057 207.456 70.8568 210.977 72.0229Z" fill="#A1BC7D"/>
<path d="M163.525 222.172C165.211 219.889 167.566 221.452 169.599 221.13C167.641 221.899 165.657 222.395 163.525 222.172Z" fill="#E9CFAF"/>
<path d="M120.859 133.055C121.503 134.965 121.875 136.925 121.751 138.935C119.842 137.223 120.958 135.04 120.859 133.055Z" fill="#B0A96B"/>
<path d="M300.177 260.23C300.128 262.289 300.772 264.448 299.111 266.209C299.111 264.15 299.384 262.141 300.177 260.23Z" fill="#D7E9DE"/>
<path d="M264.528 285.313C263.982 283.75 263.313 282.212 263.461 280.475C265.643 281.691 264.131 283.7 264.528 285.313Z" fill="#66B797"/>
<path d="M432.689 218.723C432.119 218.525 432.119 218.029 432.094 217.557C433.829 217.384 435.416 217.88 436.953 218.649C435.54 218.674 434.127 218.699 432.714 218.748L432.689 218.723Z" fill="#DBE8D9"/>
<path d="M301.293 251.82C301.244 253.507 302.086 255.367 300.301 256.707C300.252 254.995 300.475 253.333 301.293 251.82Z" fill="#CCE4D4"/>
<path d="M137.346 202.126C137.346 203.292 137.346 204.482 137.346 205.648C136.428 204.582 136.106 203.366 136.354 201.977C136.726 201.679 137.073 201.679 137.37 202.101L137.346 202.126Z" fill="#BDCFA2"/>
<path d="M483.115 272.164C481.751 270.749 481.975 269.038 482.099 267.326C482.817 268.864 483.239 270.452 483.115 272.164Z" fill="#CBE2CE"/>
<path d="M143.271 249.959C143.494 251.77 142.453 252.614 140.916 253.11C141.263 251.745 142.329 250.902 143.271 249.959Z" fill="#435757"/>
<path d="M324.052 217.557C323.308 219.517 321.647 218.376 320.407 218.624C321.424 217.607 322.688 217.384 324.052 217.557Z" fill="#95CBA6"/>
<path d="M122.049 140.25C123.76 141.019 123.412 142.086 122.52 143.252C121.578 142.384 122.074 141.267 122.049 140.25Z" fill="#BE602F"/>
<path d="M483.066 141.069V145.51H482.769V140.994L483.066 141.069Z" fill="#6ABB88"/>
<path d="M414.318 212.868C414.542 211.28 413.649 209.544 414.938 208.105C415.26 209.643 415.459 211.156 414.814 212.67C414.641 212.719 414.492 212.794 414.318 212.893V212.868Z" fill="#1E5A2C"/>
<path d="M184.773 73.8588C184.277 75.5211 182.938 74.7023 181.946 74.8264C182.814 74.231 183.583 73.4619 184.773 73.8588Z" fill="#6F7B3B"/>
<path d="M414.814 212.645C414.864 211.132 414.914 209.618 414.938 208.08C415.112 208.006 415.31 208.03 415.484 208.08C415.186 209.593 416.178 211.28 414.814 212.62V212.645Z" fill="#84BF8E"/>
<path d="M137.346 202.126L136.329 202.002C136.329 201.232 136.329 200.439 136.305 199.669C137.792 200.017 137.321 201.183 137.346 202.15V202.126Z" fill="#EDCEAF"/>
<path d="M192.061 72.7423C192.135 73.0649 193.226 73.3378 192.334 73.5859C191.292 73.8836 190.102 73.6603 188.962 73.6355C189.011 73.4618 189.036 73.2881 189.061 73.1145C189.805 72.4694 190.871 73.1393 191.615 72.519C191.788 72.5439 191.937 72.6183 192.061 72.7175V72.7423Z" fill="#83753C"/>
<path d="M310.937 221.13C310.763 221.775 311.284 222.743 310.342 223.016C309.771 223.189 309.796 222.445 309.647 222.048C309.697 221.254 310.193 221.006 310.912 221.105L310.937 221.13Z" fill="#BBCBBF"/>
<path d="M126.735 178.259C126.661 179.003 126.289 179.425 125.52 179.474C125.52 178.68 125.495 177.886 125.471 177.093C126.239 177.093 126.661 177.489 126.71 178.259H126.735Z" fill="#D5D8AC"/>
<path d="M278.237 149.752C278.312 149.578 278.386 149.43 278.436 149.231C278.981 150.596 279.155 151.96 278.287 153.275C277.717 152.109 277.791 150.918 278.237 149.752Z" fill="#90BF8B"/>
<path d="M278.237 149.752L278.287 153.275C278.088 153.523 277.865 153.796 277.667 154.044C277.791 152.605 277.121 151.042 278.237 149.727V149.752Z" fill="#2E4120"/>
<path d="M160.6 222.321C161.195 222.321 161.765 222.321 162.36 222.346C161.369 223.313 160.129 223.512 158.79 223.388C158.666 221.825 160.179 222.966 160.6 222.296V222.321Z" fill="#8DC692"/>
<path d="M160.601 222.321L158.791 223.412L157.526 223.338C158.121 221.676 159.485 222.395 160.576 222.346L160.601 222.321Z" fill="#C6D0A4"/>
<path d="M451.307 222.172C450.341 222.122 449.175 222.693 448.754 221.204C449.746 221.155 450.539 221.626 451.307 222.172Z" fill="#EEECEA"/>
<path d="M227.836 74.8016C226.968 74.752 225.828 75.3971 225.53 73.8837C226.299 74.1814 227.067 74.5039 227.836 74.8016Z" fill="#6D7F42"/>
<path d="M191.615 72.544C190.871 73.189 189.929 73.065 189.062 73.1394C189.657 71.8493 190.772 72.8169 191.615 72.544Z" fill="#A5B97C"/>
<path d="M421.359 228.424C424.136 244.029 421.408 259.387 419.252 274.769C418.706 278.664 418.185 282.559 417.219 286.38C400.261 286.38 383.304 286.355 366.321 286.33C365.156 285.437 365.156 284.097 364.983 282.832C363.817 274.57 363.867 266.259 363.917 257.948C363.941 251.224 363.718 244.501 364.883 237.827C365.057 237.281 365.454 236.909 365.85 236.512C366.123 236.065 366.421 235.619 366.892 235.371C371.181 234.056 375.693 233.535 380.031 232.344C380.998 232.071 381.965 232.418 382.857 232.865C383.775 233.113 384.717 233.361 385.634 233.609C386.105 234.254 386.849 234.081 387.493 234.205C388.46 234.726 389.502 234.924 390.568 235.197C395.749 235.346 400.955 236.09 405.988 234.056C406.583 233.584 407.252 233.287 407.947 233.063C410.599 232.617 412.335 230.731 414.095 228.97C414.764 228.3 414.863 227.382 414.665 226.29C414.219 223.71 413.971 221.08 414.814 218.5C417.02 218.872 417.442 221.155 418.904 222.346C420.318 224.157 420.888 226.29 421.359 228.449V228.424Z" fill="#009A5A"/>
<path d="M365.677 237.207C364.313 253.606 364.338 269.98 366.321 286.355H358.363C357.099 279.805 356.876 273.107 356.107 266.482C355.314 259.536 354.645 252.589 353.975 245.642C353.702 242.938 354.868 240.482 356.504 238.274L356.777 237.728C359.653 237.306 362.479 236.537 365.429 236.562C365.826 236.661 365.9 236.859 365.677 237.207Z" fill="#F6F2EF"/>
<path d="M356.529 238.249C353.802 243.037 354.57 248.049 355.289 253.159C355.884 257.303 356.207 261.496 356.579 265.664C357.149 271.692 357.669 277.696 358.438 283.7C358.537 284.569 358.413 285.462 358.388 286.355H357.917C356.777 281.393 356.802 276.282 356.132 271.246C355.165 263.902 354.496 256.509 353.777 249.115C353.48 246.188 353.033 243.235 354.719 240.457C355.165 239.712 355.76 238.77 355.389 237.703L356.529 238.249V238.249Z" fill="#373532"/>
<path d="M422.078 286.38C425.128 273.429 428.177 260.478 431.201 247.527C431.598 245.84 431.796 244.104 432.094 242.392C433.854 244.501 432.367 246.709 431.92 248.644C429.218 260.577 426.194 272.437 423.293 284.32C423.144 284.966 423.194 285.685 423.144 286.38H422.103H422.078Z" fill="#373633"/>
<path d="M247.347 286.305C248.314 285.536 249.28 285.586 250.247 286.305H247.347Z" fill="#37363B"/>
<path d="M354.843 133.08C356.826 131.12 359.305 130.103 361.983 129.532C362.999 128.515 364.611 129.433 365.602 128.416C368.156 128.713 370.809 127.622 373.288 129.011C375.618 130.252 376.015 132.683 376.833 134.817C377.428 136.355 377.825 137.967 378.221 139.58C379.362 144.567 378.891 149.603 378.717 154.64C378.568 155.384 377.973 155.83 377.502 156.327C375.841 159.006 372.618 158.659 370.387 158.956C363.272 159.899 356.429 158.51 350.851 153.399C350.504 153.101 350.355 152.58 350.108 152.183C349.314 151.588 349.76 150.347 348.893 149.802C347.43 149.554 347.852 148.338 347.678 147.42C346.885 145.832 346.885 144.219 347.678 142.632C347.752 139.679 349.909 137.794 351.347 135.536C352.488 134.692 353.802 134.072 354.843 133.08V133.08Z" fill="#055F37"/>
<path d="M430.929 158.684C434.028 157.84 436.185 159.254 436.631 162.653C436.879 164.588 436.755 166.598 436.805 168.558C436.284 171.262 436.607 174.215 434.598 176.497C431.822 182.451 427.979 187.389 422.054 190.589C408.79 197.784 395.031 190.887 389.428 179.003C388.684 177.415 387.94 175.753 387.866 173.942C387.792 171.858 388.585 170.22 390.717 169.65C392.8 169.079 394.411 169.898 395.403 171.808C396.171 173.297 396.717 174.884 397.46 176.373C402.568 186.347 414.715 188.133 422.475 180.045C426.665 175.678 428.4 170.344 428.425 164.39C428.425 163.025 428.128 161.611 428.995 160.371C429.714 159.874 430.136 159.081 430.954 158.708L430.929 158.684Z" fill="#F090B8"/>
<path d="M392.105 120.328C392.105 122.635 389.477 124.793 386.7 123.975C380.577 122.164 374.28 121.494 368.032 121.568C362.305 121.618 356.405 121.568 351 124.297C348.422 125.612 345.918 124.769 344.926 122.585C343.736 119.98 344.926 118.144 347.133 116.929C350.257 115.167 353.703 114.373 357.248 113.827C367.834 112.14 378.221 112.885 388.485 115.887C390.593 116.507 391.906 117.772 392.13 120.328H392.105Z" fill="#020202"/>
<path d="M377.428 139.084C376.189 135.685 375.271 132.137 373.288 129.011C379.288 128.763 384.072 131.244 387.494 136.007C390.568 140.275 390.394 144.989 387.494 149.306C385.114 152.853 382.089 155.756 377.503 156.302C377.478 155.831 377.354 155.359 377.775 154.987C377.974 154.937 378.271 154.838 378.246 154.739C378.073 149.504 379.139 144.22 377.403 139.084H377.428Z" fill="#F6F1EE"/>
<path d="M460.654 151.563C460.852 148.487 461.075 145.162 461.224 141.838C461.298 140.25 462.166 139.133 463.48 138.687C465.315 138.067 467.174 138.389 468.736 139.729C471.413 142.036 471.81 147.345 469.579 151.166C468.314 153.325 466.381 154.888 464.695 156.649C463.827 157.542 462.761 157.666 461.695 157.269C460.555 156.848 460.654 155.731 460.629 154.739C460.629 153.746 460.629 152.779 460.629 151.514L460.654 151.563Z" fill="#4A2B1D"/>
<path d="M434.573 176.497C435.317 173.842 436.061 171.213 436.78 168.558C436.656 171.386 437.945 174.587 434.573 176.497Z" fill="#6A3C34"/>
<path d="M354.843 133.08C354.372 134.891 353.157 135.635 351.348 135.536C351.843 133.775 353.058 133.03 354.843 133.08Z" fill="#2D5535"/>
<path d="M347.679 142.607C347.679 144.195 347.679 145.807 347.679 147.395C345.869 145.807 345.869 144.195 347.679 142.607Z" fill="#4A4730"/>
<path d="M365.627 128.416C364.908 130.4 363.247 129.259 362.008 129.532C362.702 127.523 364.388 128.689 365.627 128.416Z" fill="#464B31"/>
<path d="M348.894 149.777C350.48 149.951 350.009 151.191 350.108 152.159C348.571 151.96 349.018 150.72 348.894 149.777Z" fill="#205934"/>
<path d="M390.543 235.172C389.353 235.346 388.237 235.321 387.469 234.18C388.659 233.981 389.675 234.354 390.543 235.172Z" fill="#4A663F"/>
<path d="M407.922 233.039C407.427 233.684 406.856 234.18 405.964 234.031C406.187 232.865 407.03 232.89 407.922 233.039Z" fill="#4C5736"/>
<path d="M430.929 158.684C430.508 159.527 429.962 160.197 428.971 160.346C429.268 159.378 429.888 158.783 430.929 158.684V158.684Z" fill="#DE8DA2"/>
<path d="M256.074 103.358L256.198 115.316C245.364 123.33 234.034 130.524 220.944 136.404L224.216 136.777C223.671 138.439 222.208 138.166 221.018 138.166C218.118 138.166 215.291 138.563 212.49 139.109C208.821 139.828 205.499 141.218 203.218 144.393C202.672 143.649 202.127 143.674 201.234 143.947C190.772 147.073 180.261 150.075 169.6 152.357C160.576 154.292 151.502 156.178 142.181 155.706C142.379 154.094 143.916 155.334 144.536 154.615L146.197 154.491C150.436 153.92 154.8 153.92 158.841 152.233L158.791 152.059C159.907 151.34 160.973 150.521 162.435 151.117C172.426 149.033 182.17 146.155 191.566 142.111C193.128 140.151 195.656 140.002 197.714 138.96C199.028 138.315 200.416 137.868 201.755 137.223C203.416 136.404 205.275 136.156 207.011 135.536C208.945 135.04 210.581 133.973 212.316 133.03C212.887 132.236 213.531 131.542 214.572 131.368C216.828 130.797 218.465 128.862 220.795 128.44C228.034 124.769 234.703 120.179 241.199 115.341C246.033 111.743 250.644 107.898 254.834 103.531C255.255 103.085 255.677 103.134 256.148 103.358H256.074Z" fill="#F4B194"/>
<path d="M202.176 137.769C198.73 139.431 195.235 141.019 191.541 142.061C190.599 140.696 190.549 139.927 192.309 138.91C195.061 137.298 198.259 136.702 200.813 134.742C201.557 134.171 201.929 135.734 202.771 135.486C203.342 135.089 203.838 135.164 204.11 135.809C204.333 136.33 204.11 136.727 203.565 136.876C202.995 137.025 202.499 137.248 202.176 137.744V137.769Z" fill="#C75526"/>
<path d="M238.843 80.3094C235.744 82.0461 233.29 83.4106 230.265 83.2122C229.646 83.1625 229.1 82.964 229.026 82.2198C228.976 81.6987 229.15 81.0041 229.646 81.0537C232.521 81.3266 235.025 78.7464 238.843 80.3094V80.3094Z" fill="#C9532B"/>
<path d="M144.511 154.59C143.717 154.962 142.949 155.334 142.155 155.682C137.594 155.434 133.007 156.376 128.495 155.21C132.487 154.739 136.552 155.781 140.519 154.565C141.858 154.565 143.197 154.565 144.535 154.565L144.511 154.59Z" fill="#F3AA8B"/>
<path d="M158.816 152.208C155.667 154.317 152.048 154.292 148.502 154.516C147.734 154.565 146.965 154.491 146.172 154.466C150.386 153.722 154.601 152.953 158.816 152.208Z" fill="#F3AA8B"/>
<path d="M214.647 131.815C213.853 132.211 213.06 132.608 212.267 133.03C212.291 131.492 208.994 132.211 210.134 130.227C211.324 128.143 212.167 131.442 213.481 130.773C213.804 130.624 214.25 130.773 214.647 130.773C214.994 131.12 214.969 131.492 214.647 131.839V131.815Z" fill="#C5562D"/>
<path d="M202.176 137.769C202.25 137.149 202.721 136.925 203.192 136.603C204.233 135.883 203.465 135.66 202.771 135.511C202.969 134.271 203.688 134.122 204.581 134.742C205.324 135.263 206.068 135.536 206.961 135.511C205.523 136.603 203.886 137.248 202.176 137.769V137.769Z" fill="#C8562F"/>
<path d="M214.646 131.815V130.748C216.704 130.028 218.216 127.944 220.72 128.416C218.886 129.879 216.803 130.897 214.646 131.79V131.815Z" fill="#C55B34"/>
<path d="M151.279 93.1113C151.279 93.6819 150.907 93.8059 150.535 93.8308C149.519 93.8556 148.924 93.0865 148.527 92.367C148.205 91.7715 148.849 91.5731 149.345 91.5979C150.362 91.6475 150.758 92.491 151.279 93.1113V93.1113Z" fill="#C95230"/>
<path d="M162.41 151.092C161.294 151.787 160.03 151.861 158.766 152.035C160.699 149.306 160.947 149.231 162.41 151.092Z" fill="#C65B32"/>
<path d="M128.496 148.933C128.991 149.008 129.016 149.405 129.016 149.777C129.016 150.149 128.967 150.596 128.471 150.571C127.975 150.571 127.95 150.124 127.95 149.752C127.95 149.38 127.975 148.983 128.496 148.933V148.933Z" fill="#BF5927"/>
<path d="M245.214 83.8324C245.14 84.3038 244.768 84.3534 244.396 84.3286C244.024 84.3286 243.578 84.3286 243.578 83.8076C243.578 83.3114 244.024 83.2866 244.396 83.2866C244.768 83.2866 245.165 83.2866 245.214 83.8324Z" fill="#C3552F"/>
<path d="M130.702 109.387C130.628 108.89 130.479 108.617 130.578 108.444C130.677 108.27 130.999 108.22 131.223 108.121C131.272 108.295 131.421 108.518 131.346 108.642C131.247 108.866 131.024 109.039 130.702 109.387V109.387Z" fill="#C2581C"/>
<path d="M260.015 97.5521C259.817 98.3461 259.37 98.9167 258.627 99.264C258.602 98.2964 258.726 97.4529 260.015 97.5521Z" fill="#B85233"/>
<path d="M240.702 152.307C241.942 153.225 243.181 154.143 244.446 155.037C252.9 160.892 251.66 170.493 244.917 176.547C243.256 178.035 241.371 179.301 239.586 180.665C238.272 182.054 236.537 182.551 234.752 182.972C230.463 183.915 226.298 185.528 221.836 185.652C221.241 186.024 220.571 186.024 219.902 186.024C218.712 185.925 217.571 186.347 216.381 186.222C215.563 185.95 214.621 186.173 213.902 185.577C213.282 184.932 212.663 184.312 212.44 183.394C210.208 174.115 208.299 164.787 209.39 155.161C209.514 154.094 209.688 153.002 210.332 152.109C215.538 150.149 220.646 147.817 226.496 149.256C228.48 149.752 230.562 148.512 232.62 149.256C233.711 150.149 235.025 150.372 236.388 150.397C238.099 150.422 239.611 150.943 240.702 152.332V152.307Z" fill="#2A74BA"/>
<path d="M210.531 152.159C209.217 163.522 210.903 174.562 213.952 185.453C213.804 185.627 213.655 185.652 213.456 185.528L211.671 185.354C210.407 184.461 208.87 184.684 207.482 184.238C199.3 182.575 192.16 176.944 193.251 168.632C194.069 162.455 197.962 158.436 203.292 155.657C203.887 155.26 204.655 155.111 205.126 154.516L209.886 152.059C210.134 151.911 210.333 151.935 210.506 152.159H210.531Z" fill="#F8F2EE"/>
<path d="M180.781 187.786C181.822 187.066 182.318 185.677 183.731 185.379C184.45 184.808 185.02 185.131 185.491 185.726C185.813 186.123 185.689 186.843 185.962 187.091C188.714 189.522 186.755 191.036 184.946 192.574C183.161 194.459 181.301 196.246 178.425 196.097C177.954 196.692 177.062 195.973 176.64 196.667C170.666 198.627 160.947 196.221 156.386 189.572C155.939 189.001 155.815 188.207 155.171 187.786C153.807 186.992 153.906 185.205 152.816 184.213C150.262 181.087 150.807 177.614 151.626 174.091C152.221 169.079 154.477 164.96 158.195 161.611C158.766 161.165 159.534 161.065 159.956 160.42C161.27 159.8 162.856 159.626 163.526 158.063C165.906 156.252 168.261 156.401 170.641 158.063C171.459 159.254 171.484 160.42 170.641 161.611C165.806 163.943 161.17 166.524 158.79 171.709C157.551 174.016 156.782 176.199 158.022 178.928C158.815 180.665 157.923 182.824 159.261 184.784C160.154 186.098 161.046 186.421 162.311 186.57C166.401 190.44 171.261 191.284 176.591 190.093C177.806 188.976 179.318 188.431 180.756 187.761L180.781 187.786Z" fill="#E497AA"/>
<path d="M203.218 144.393C203.292 142.136 204.581 140.87 206.589 140.027C211.201 138.092 216.035 137.298 221.018 137.149C222.084 137.124 223.15 136.925 224.241 136.801C230.637 137.223 237.034 137.446 243.306 139.034C243.777 139.158 244.273 139.233 244.744 139.357C248.066 140.275 249.429 141.838 248.81 144.095C248.215 146.304 246.306 147.023 242.959 146.229C233.563 144.021 224.092 143.153 214.523 144.989C212.564 145.361 210.73 146.006 208.895 146.725C206.019 147.842 204.78 147.296 203.243 144.393H203.218Z" fill="#34201A"/>
<path d="M130.776 172.379C128.669 169.501 129.165 163.943 131.768 161.661C132.338 161.14 133.008 160.495 133.85 160.917C134.718 161.338 135.016 162.207 135.016 163.149C135.016 166.598 135.016 170.047 134.991 173.495C134.173 173.793 134.049 175.48 132.66 174.686C132.14 173.842 131.768 172.85 130.776 172.354V172.379Z" fill="#E39373"/>
<path d="M129.264 181.93C129.983 181.732 130.702 181.558 131.396 181.36C132.016 182.129 132.933 181.906 133.727 182.03C136.107 182.724 135.784 184.659 135.784 186.446C135.685 187.091 135.413 187.661 135.289 188.306L134.991 188.952C132.537 189.349 130.281 189.324 129.066 186.619C128.496 185.528 128.446 184.337 128.396 183.146C128.496 182.6 128.768 182.203 129.264 181.93V181.93Z" fill="#5DB77F"/>
<path d="M210.531 152.159C210.333 152.134 210.109 152.084 209.911 152.059C210.233 150.422 211.845 150.695 212.787 150.496C216.927 149.653 220.472 146.552 225.059 147.345C226.621 147.618 227.885 149.802 229.695 148.288C231.877 146.477 232.769 148.065 233.711 149.653C233.562 150.025 233.339 150.075 233.017 149.826C226.918 149.752 220.795 149.256 214.77 150.844C213.332 151.216 211.994 151.836 210.556 152.134L210.531 152.159Z" fill="#F7C6B7"/>
<path d="M162.336 186.595C161.022 186.595 161.369 188.083 160.725 188.654C158.965 187.339 159.733 184.312 157.056 183.915C156.956 183.915 156.758 183.543 156.808 183.518C158.94 180.938 156.708 178.556 156.436 176.1C156.213 174.066 157.427 172.85 158.816 171.734C158.717 173.694 158.543 175.629 158.493 177.589C158.444 181.137 160.502 183.841 162.336 186.595Z" fill="#E49AA8"/>
<path d="M184.971 192.599C184.921 191.681 185.714 191.284 186.21 190.688C186.78 189.994 187.673 189.299 185.987 188.927C184.921 188.703 184.871 187.885 185.095 187.091C185.417 185.85 184.772 185.503 183.756 185.404C184.946 183.419 186.359 182.303 188.516 184.238C188.119 184.734 187.45 185.007 187.45 185.801C188.119 185.478 187.921 184.585 188.516 184.238C190.45 185.602 189.979 187.24 188.962 188.877C187.97 190.44 187.004 192.102 184.971 192.599V192.599Z" fill="#E49AA5"/>
<path d="M151.65 174.115C151.502 177.564 151.774 180.938 152.84 184.238C151.774 184.188 150.51 184.436 150.51 182.774C150.51 180.02 150.485 177.266 150.51 174.512C150.51 173.718 151.179 174.041 151.626 174.115H151.65Z" fill="#F8C2B5"/>
<path d="M254.09 189.746C253.693 188.431 254.164 186.818 252.106 186.272C251.09 185.999 251.065 184.064 251.883 183.543C253.098 182.774 252.726 184.263 252.949 184.858C253.172 185.429 253.743 185.305 254.189 185.429C254.809 185.577 256.247 185.18 255.652 186.371C255.081 187.513 257.61 189.77 254.065 189.77L254.09 189.746Z" fill="#F8C4B3"/>
<path d="M187.326 171.163C187.45 169.724 187.698 168.459 189.657 168.732C191.02 168.905 190.599 167.218 191.442 166.796C192.855 170.443 192.384 171.113 188.516 171.163C188.12 171.535 187.723 171.51 187.326 171.163V171.163Z" fill="#F9C5AD"/>
<path d="M232.992 149.827C233.215 149.777 233.463 149.703 233.686 149.653C235.62 150.348 237.455 148.884 239.537 149.653C241.322 150.298 241.57 150.869 240.702 152.308C238.124 151.489 235.571 150.67 232.992 149.851V149.827Z" fill="#F7C6B8"/>
<path d="M213.456 185.553C213.605 185.503 213.779 185.478 213.952 185.478C214.845 185.578 215.712 185.677 216.605 185.776C217.696 185.702 218.787 185.751 219.853 185.751L221.811 185.652L222.381 186.297C220.522 187.662 215.291 187.24 213.432 185.578L213.456 185.553Z" fill="#F9C6BD"/>
<path d="M179.045 174.487C179.045 173.793 176.665 172.825 179.169 172.503C180.211 172.379 181.103 173.47 181.277 174.587C181.45 175.852 180.434 175.926 179.516 175.902C178.054 175.877 177.434 175.53 179.07 174.487H179.045Z" fill="#F9C9AE"/>
<path d="M187.325 171.163H188.515C188.491 172.155 188.639 173.073 189.705 173.545C190.524 174.165 191.937 174.661 190.3 175.902H188.515C188.119 176.274 187.722 176.249 187.35 175.902C186.954 175.505 187.276 175.108 187.35 174.711C187.102 173.52 187.945 172.329 187.35 171.138L187.325 171.163Z" fill="#F8BBA3"/>
<path d="M139.776 179.474C138.313 177.39 136.33 176.646 133.851 177.142C134.619 174.934 136.479 175.877 137.743 176.125C139.255 176.423 139.974 177.812 139.776 179.474Z" fill="#FACDB1"/>
<path d="M135.213 186.595C135.04 184.982 135.213 183.245 133.775 182.03C133.8 181.558 133.85 181.112 133.875 180.64C135.089 181.012 135.907 181.782 136.255 183.022C136.899 184.511 138.015 186.098 135.238 186.595H135.213Z" fill="#F3CFB0"/>
<path d="M187.326 249.562H181.847L181.896 248.669C183.731 248.619 185.64 247.23 187.326 249.562Z" fill="#F9C4B6"/>
<path d="M187.325 174.711C187.92 175.108 187.4 175.505 187.325 175.877C185.491 176.299 184.499 174.438 182.441 174.537C184.524 173.073 185.937 173.942 187.325 174.711V174.711Z" fill="#F9C5A6"/>
<path d="M234.752 182.948C236.165 181.732 237.95 181.335 239.586 180.64C238.843 183.245 236.834 183.171 234.752 182.948Z" fill="#F7C6B9"/>
<path d="M190.276 175.902C191.019 174.884 190.028 174.289 189.681 173.545C190.499 174.066 191.243 171.56 191.937 173.346C192.383 174.537 192.309 176.001 190.276 175.902Z" fill="#F9C5AD"/>
<path d="M163.55 158.063C163.898 161.165 161.617 160.321 159.98 160.445C160.873 159.205 162.113 158.46 163.55 158.063Z" fill="#E49AA5"/>
<path d="M140.99 187.786C140.668 185.801 141.759 183.816 140.99 181.831C143.122 183.816 142.478 185.801 140.99 187.786Z" fill="#FAD7B4"/>
<path d="M180.781 187.786C179.765 189.225 178.228 189.746 176.616 190.118C177.261 188.034 178.847 187.587 180.781 187.786Z" fill="#F5BBB5"/>
<path d="M207.481 184.238C209.341 182.923 210.605 183.742 211.671 185.354C210.159 185.429 208.647 185.503 207.481 184.238Z" fill="#FAEAE5"/>
<path d="M237.033 185.081C238.57 183.94 239.463 184.188 240.826 184.684C239.512 185.702 238.57 185.379 237.033 185.081Z" fill="#F7C6B9"/>
<path d="M244.297 185.478C244.248 185.9 244.025 186.396 243.628 186.223C243.033 185.974 242.364 185.553 242.388 184.784C242.388 184.287 242.909 184.287 243.306 184.312C244.074 184.337 244.297 184.833 244.297 185.503V185.478Z" fill="#F7C6B9"/>
<path d="M187.326 249.562C188.516 249.934 190.276 248.644 190.896 250.753C190.103 251.373 189.31 251.398 188.516 250.753C187.772 250.703 187.351 250.331 187.326 249.562Z" fill="#F9C4B6"/>
<path d="M170.641 161.636C170.641 160.445 170.641 159.279 170.641 158.088C172.5 159.279 172.525 160.47 170.641 161.636Z" fill="#F7BFB4"/>
<path d="M187.326 175.902H188.516C188.243 176.696 189.706 177.043 189.037 177.862C188.838 178.085 188.293 178.234 188.02 178.134C186.979 177.688 187.996 176.522 187.351 175.902H187.326Z" fill="#F9C5A6"/>
<path d="M130.776 172.379C132.661 172.131 132.685 173.396 132.661 174.711C131.694 174.215 130.975 173.52 130.776 172.379Z" fill="#E09679"/>
<path d="M249.355 183.915C250.471 184.734 250.446 185.453 249.826 186.322C248.785 185.776 249.132 184.957 249.355 183.915Z" fill="#F8C4B3"/>
<path d="M132.66 174.711C133.652 174.76 133.751 172.974 134.991 173.52C134.767 175.008 134.272 175.926 132.66 174.711Z" fill="#E09679"/>
<path d="M188.516 250.753H190.896C190.102 252.415 189.309 252.415 188.516 250.753Z" fill="#FACDAC"/>
<path d="M136.305 193.765C136.404 192.102 137.693 192.673 138.61 192.549C138.437 194.038 137.222 193.641 136.305 193.765Z" fill="#FBD6B5"/>
<path d="M238.323 186.595C238.843 186.743 239.364 186.768 239.19 187.264C239.116 187.488 238.62 187.661 238.298 187.686C237.951 187.711 237.43 187.612 237.604 187.091C237.678 186.843 238.124 186.694 238.323 186.595Z" fill="#FACAAA"/>
<path d="M205.151 154.516C205.052 155.706 204.209 155.731 203.316 155.657C203.713 154.937 204.283 154.491 205.151 154.516Z" fill="#FBEADE"/>
<path d="M159.956 160.42C159.906 161.636 159.088 161.661 158.195 161.611C158.542 160.867 159.113 160.47 159.956 160.42Z" fill="#E6A0A0"/>
<path d="M176.665 196.692C176.442 196.568 175.723 196.519 176.268 196.221C176.839 195.923 177.706 196.122 178.425 196.122C177.979 196.742 177.31 196.717 176.64 196.692H176.665Z" fill="#E3A29A"/>
<path d="M155.196 187.81C156.411 187.86 156.461 188.703 156.411 189.597C155.667 189.224 155.246 188.629 155.196 187.81Z" fill="#E59FA3"/>
<path d="M141.833 257.253C141.783 257.774 141.362 257.799 141.015 257.824C140.519 257.849 140.048 257.725 140.048 257.104C140.048 256.682 140.395 256.434 140.816 256.459C141.287 256.509 141.709 256.707 141.833 257.228V257.253Z" fill="#445554"/>
<path d="M440.548 257.898C440.524 256.806 440.474 255.715 440.449 254.648C440.449 250.43 442.755 249.066 446.994 250.778C447.341 253.283 447.837 255.789 446.374 258.146C444.391 259.163 442.433 259.287 440.524 257.898H440.548Z" fill="#00995B"/>
<path d="M455.274 263.133H451.158C450.787 262.761 450.787 262.389 451.109 261.992C451.183 259.362 451.109 256.732 451.605 254.102C451.853 252.837 452.175 252.514 453.39 252.514C454.778 252.514 455.348 252.961 455.299 254.4C455.224 256.955 455.299 259.511 455.299 262.066C455.646 262.438 455.646 262.786 455.299 263.158L455.274 263.133Z" fill="#060605"/>
<path d="M460.034 263.133L459.737 263.207L459.439 263.133C458.671 262.736 457.605 262.959 457.059 262.041C456.663 259.064 457.778 256.211 457.654 253.259C457.605 252.366 457.233 250.927 458.621 250.877C459.861 250.827 460.729 251.845 460.605 253.234C460.332 256.41 461.15 259.461 461.299 262.587C460.976 263.059 460.381 262.811 460.01 263.108L460.034 263.133Z" fill="#040404"/>
<path d="M451.109 261.992L451.159 263.133H431.771V261.967H440.424C442.407 260.826 444.39 260.85 446.399 261.967L451.109 262.016V261.992Z" fill="#343431"/>
<path d="M440.548 257.898H446.399C446.895 258.89 446.746 259.883 446.473 260.875C446.448 261.049 446.374 261.222 446.275 261.396C444.366 261.992 442.457 261.942 440.548 261.446V257.923V257.898Z" fill="#009C57"/>
<path d="M477.463 284.742V276.158H478.058V284.718H477.463V284.742Z" fill="#F3F4ED"/>
<path d="M446.473 260.875L446.398 257.898C447.241 255.566 446.746 253.135 446.993 250.753C448.183 254.201 447.588 257.526 446.473 260.851V260.875Z" fill="#CADBCF"/>
<path d="M457.084 262.041C458.026 262.091 458.77 262.537 459.464 263.133H455.274V262.041C455.894 262.24 456.489 262.339 457.084 262.041Z" fill="#3D3C3A"/>
<path d="M440.548 261.421C442.457 261.421 444.366 261.421 446.275 261.372C446.349 261.545 446.399 261.744 446.399 261.942C444.415 261.942 442.407 261.942 440.424 261.942C440.449 261.744 440.498 261.57 440.573 261.396L440.548 261.421Z" fill="#1A8957"/>
<path d="M467.719 232.939C467.695 233.312 467.67 233.758 467.174 233.733C466.678 233.733 466.653 233.287 466.653 232.915C466.653 232.543 466.703 232.096 467.199 232.096C467.695 232.096 467.695 232.543 467.719 232.915V232.939Z" fill="#F0F4EB"/>
<path d="M460.034 263.133L461.323 262.612H464.596V263.133H460.034Z" fill="#3D3C3A"/>
<path d="M302.558 275.811C302.706 274.67 302.31 273.578 303.401 271.767C303.698 273.727 304.442 274.868 302.558 275.811Z" fill="#F3F2ED"/>
<path d="M302.607 275.662C302.409 276.381 302.93 277.275 301.814 277.796C301.268 276.729 301.268 276.009 302.607 275.662Z" fill="#F3F2ED"/>
<path d="M308.532 226.985C308.929 226.191 309.326 225.397 309.722 224.628C310.689 224.777 311.061 225.348 310.739 226.241C310.342 227.332 309.326 226.886 308.532 226.985Z" fill="#C0CBC2"/>
<path d="M213.481 237.678L213.407 239.911C212.762 240.407 213.828 241.871 212.316 241.92C212.266 241.151 212.49 240.159 212.118 239.613C210.605 237.455 212.192 237.728 213.481 237.678Z" fill="#EBAF91"/>
<path d="M212.315 241.896C212.687 241.226 213.034 240.556 213.406 239.886L213.456 242.417C213.109 242.417 212.762 242.417 212.415 242.417C212.365 242.243 212.34 242.069 212.315 241.896V241.896Z" fill="#343334"/>
<path d="M213.406 242.342C214.894 242.963 214.671 243.657 214.249 244.55C213.109 244.005 213.629 243.111 213.406 242.342Z" fill="#343334"/>
<path d="M382.858 232.865C378.271 233.783 373.685 234.726 369.099 235.619C368.33 235.768 367.561 235.817 366.768 235.892C365.851 234.502 365.975 233.088 366.719 231.674C366.917 228.176 367.76 224.901 370.09 222.147C371.28 221.403 371.974 220.162 373.065 219.319C373.586 218.922 373.982 218.153 374.801 218.475C375.743 218.823 375.743 219.716 375.594 220.485C375.247 222.246 375.47 224.008 375.396 225.794C375.346 226.737 375.644 227.531 376.387 228.126L382.883 232.84L382.858 232.865Z" fill="#007F49"/>
<path d="M376.362 228.151C374.676 227.977 375.098 226.663 375.073 225.67C375.023 223.536 375.073 221.378 375.073 219.046C372.718 219.418 372.247 222.122 370.09 222.197C371.478 219.592 373.957 218.128 376.164 216.366C376.56 218.823 375.866 221.204 375.693 223.611C375.569 225.199 375.693 226.712 376.387 228.151H376.362Z" fill="#1D7B4D"/>
<path d="M421.359 228.424C420.541 226.39 419.722 224.355 418.904 222.321L420.243 222.271C420.094 224.43 422.202 226.166 421.359 228.449V228.424Z" fill="#EEF3EC"/>
<path d="M417.492 216.887C417.418 217.384 417.021 217.408 416.649 217.408C416.277 217.408 415.831 217.359 415.831 216.863C415.831 216.366 416.277 216.342 416.649 216.342C417.021 216.342 417.418 216.366 417.467 216.863L417.492 216.887Z" fill="#FBEEF3"/>
<path d="M420.244 222.246C420.318 221.8 420.343 221.254 420.987 221.378C421.136 221.403 421.359 221.849 421.31 222.048C421.111 222.767 420.615 222.346 420.219 222.246H420.244Z" fill="#EEF3EC"/>
<path d="M365.677 237.207C365.602 236.983 365.503 236.785 365.429 236.562C365.925 235.023 364.809 233.188 366.296 231.823C366.495 233.361 366.619 234.899 366.222 236.438L365.677 237.182V237.207Z" fill="#AED3BB"/>
<path d="M366.223 236.438C366.247 234.899 366.272 233.361 366.297 231.823L366.718 231.674C366.718 233.088 366.743 234.478 366.768 235.892L366.223 236.438Z" fill="#3E7456"/>
<path d="M135.214 186.595C136.999 185.825 135.908 184.213 136.23 183.022C138.387 183.841 139.131 184.957 137.024 186.694C136.429 187.19 135.883 187.761 135.313 188.306C135.288 187.736 135.239 187.165 135.214 186.595V186.595Z" fill="#F5DCB3"/>
<path d="M139.131 185.826C139.899 187.19 140.122 188.058 139.131 188.753C138.883 188.927 138.139 188.902 138.065 188.753C137.495 187.537 138.833 187.165 139.106 185.826H139.131Z" fill="#F3E5B2"/>
<path d="M129.016 183.022L129.091 186.619C128.074 186.843 128.396 185.726 127.901 185.429V184.238C127.454 183.047 127.801 182.625 129.016 183.022V183.022Z" fill="#D9E1AF"/>
<path d="M129.016 183.022C128.272 183.096 127.925 183.518 127.876 184.238C127.206 184.039 125.818 184.56 125.991 183.568C126.289 182.03 127.752 181.657 129.264 181.93C129.19 182.302 129.09 182.65 129.016 183.022Z" fill="#F3E5B3"/>
<path d="M383.428 248.545C388.014 246.163 392.6 245.89 397.286 248.272C397.708 248.47 398.253 248.396 398.749 248.446C399.145 248.718 399.319 249.115 399.344 249.587C399.344 249.885 399.269 250.157 399.17 250.43C398.774 251.299 398.352 252.142 398.079 253.11C397.41 255.467 396.518 257.774 393.865 258.717C391.311 259.635 392.824 261.992 392.179 263.58C391.609 264.473 391.758 265.614 391.187 266.507C388.237 268.963 388.287 268.938 389.824 272.511C390.245 273.479 391.361 274.421 390.444 275.687C389.7 276.357 388.907 276.332 388.113 275.811C385.337 275.091 382.485 274.496 380.899 271.717C379.709 269.856 380.725 268.244 381.494 266.631C381.494 265.986 383.105 265.316 381.444 264.696C380.75 264.547 380.081 264.423 379.56 263.902C379.089 263.282 379.015 262.562 379.015 261.818C379.015 260.528 379.51 259.56 380.824 259.114C381.94 258.742 382.833 257.898 383.824 257.303C387.518 255.119 387.593 254.772 385.014 251.423C384.618 250.406 382.634 250.232 383.428 248.545V248.545Z" fill="#2E6DB4"/>
<path d="M391.684 263.753C391.609 263.009 391.857 262.339 391.584 261.496C391.138 260.081 391.237 258.121 393.047 257.997C396.518 257.799 396.22 254.822 397.138 252.911C397.609 251.919 397.51 250.678 398.824 250.207C399.741 251.075 399.592 252.911 401.377 252.986C401.749 253.383 401.848 253.879 401.898 254.4C401.972 254.698 401.749 255.268 402.468 255.07C402.889 254.871 403.311 254.846 403.757 254.871C406.484 259.585 405.964 265.887 402.493 269.782C402.245 269.509 401.972 269.286 401.625 269.137C401.972 269.286 402.27 269.484 402.518 269.757L402.418 270.874L401.278 271.519C399.394 271.767 397.584 271.792 396.32 270.005C394.981 268.145 398.03 267.351 397.286 265.068C397.039 266.954 396.543 268.417 394.882 267.822C393.121 267.177 391.262 266.284 391.733 263.753H391.684Z" fill="#005B32"/>
<path d="M382.312 266.309C382.312 268.219 380.527 269.683 380.924 271.717C376.684 268.492 376.188 263.877 376.213 259.064C375.916 258.642 375.916 258.27 376.362 257.948C377.825 255.07 378.668 251.721 381.94 250.133C383.279 249.984 384.543 250.207 385.758 250.753C388.783 255.318 388.609 255.07 384.122 258.121C382.659 259.114 380.229 259.114 379.734 261.421C379.163 262.265 378.965 263.059 379.907 263.778L382.163 263.952C382.907 264.696 382.808 265.49 382.312 266.334V266.309Z" fill="#005A33"/>
<path d="M390.469 275.687C389.973 274.57 389.477 273.454 388.956 272.362C387.667 269.716 388.353 267.64 391.014 266.135C393.22 267.276 395.972 267.872 396.096 271.122C396.121 271.866 395.997 272.586 395.6 273.206C394.41 274.173 393.815 273.33 393.245 272.462C393.121 272.462 393.047 272.114 392.973 272.263C392.824 272.61 392.873 272.065 393.171 272.387C393.518 273.156 393.939 273.851 394.41 274.546C394.51 274.967 394.435 275.339 394.088 275.637L390.493 275.687H390.469Z" fill="#005C33"/>
<path d="M395.129 273.305L395.352 271.122C395.65 270.626 395.873 270.055 396.518 269.881L401.228 271.544L400.063 272.213C399.418 272.313 399.269 272.983 398.848 273.33C398.6 274.645 397.485 274.446 396.567 274.595C395.923 274.967 395.402 274.843 395.03 274.198C394.931 273.901 394.981 273.603 395.129 273.305V273.305Z" fill="#266EB0"/>
<path d="M401.228 253.159C400.212 252.713 400.137 254.102 398.823 254.177V250.232L398.873 249.512C400.286 248.669 400.534 250.157 401.228 250.728C401.154 251.82 402.765 251.919 402.567 253.085C402.145 253.457 401.699 253.482 401.253 253.159H401.228Z" fill="#246EB5"/>
<path d="M401.229 253.159L402.542 253.085C404.005 252.986 403.46 254.201 403.708 254.896L402.419 255.566C401.724 255.814 401.501 255.343 401.278 254.847L401.229 253.159V253.159Z" fill="#0070A7"/>
<path d="M385.758 250.753C384.494 250.554 383.081 251.15 381.94 250.133C382.337 249.512 382.288 248.47 383.428 248.545C383.527 249.984 385.263 249.711 385.758 250.753Z" fill="#006F96"/>
<path d="M401.228 250.728C400.113 250.976 399.989 249.239 398.873 249.512L398.749 248.421C400.584 248.123 401.476 248.818 401.228 250.728V250.728Z" fill="#00966A"/>
<path d="M376.363 257.948C376.313 258.32 376.264 258.692 376.214 259.064C375.197 259.064 374.156 259.064 372.619 259.064C373.958 257.327 375.247 258.096 376.363 257.948Z" fill="#009C51"/>
<path d="M407.501 270.601C407.104 270.129 406.261 269.881 406.41 269.038C406.484 268.616 407.005 268.591 407.402 268.641C408.145 268.765 408.319 269.286 408.294 269.931C408.269 270.402 408.046 270.65 407.501 270.576V270.601Z" fill="#009B54"/>
<path d="M395.204 273.851C395.501 274.397 396.022 274.545 396.567 274.62C396.245 276.208 395.055 275.662 394.063 275.637L394.163 274.57C394.262 273.975 394.609 273.727 395.204 273.851V273.851Z" fill="#007F9E"/>
<path d="M388.139 275.811L390.469 275.711C389.775 277.398 388.982 277.374 388.139 275.811Z" fill="#009566"/>
<path d="M402.369 270.898C402.981 271.428 403.253 272.122 403.187 272.982C401.948 272.66 402.642 271.593 402.369 270.898Z" fill="#009C4E"/>
<path d="M398.849 273.355C399.022 272.709 398.477 271.32 400.063 272.238C400.212 273.23 399.617 273.404 398.849 273.355Z" fill="#1C77BB"/>
<path d="M376.511 148.437C376.437 150 376.461 151.39 376.238 152.754C376.04 153.97 375.148 154.64 373.883 154.441C372.743 154.267 372.098 153.424 372.222 152.357C372.569 149.479 372.098 146.676 371.949 143.847C371.875 142.731 372.197 141.639 373.586 141.441C375.048 141.218 375.891 142.135 376.114 143.376C376.412 145.113 376.412 146.899 376.511 148.462V148.437Z" fill="#ECF3EF"/>
<path d="M375.247 138.141C375.247 138.96 374.751 140.2 373.14 140.176C371.578 140.151 370.239 139.406 370.14 137.57C370.041 135.958 370.76 134.866 372.47 134.792C374.28 134.717 375.173 135.759 375.247 138.141V138.141Z" fill="#E8F1EB"/>
<path d="M377.429 139.084C379.685 142.532 378.47 146.378 378.643 150.05C378.718 151.662 379.561 153.622 377.801 154.987C378.569 149.653 378.272 144.368 377.453 139.084H377.429Z" fill="#DFE5D9"/>
<path d="M398.476 183.444C398.452 184.263 397.857 184.784 397.286 184.932C396.419 185.156 395.824 184.387 395.675 183.667C395.526 182.948 396.295 182.352 396.815 182.203C397.708 181.906 397.956 182.948 398.452 183.444H398.476Z" fill="#ED91B4"/>
<path d="M219.431 180.02C217.249 181.583 216.208 181.385 215.365 178.978C214.348 176.05 214.646 172.999 214.671 169.972C214.671 168.583 215.638 168.211 216.877 168.186C218.315 168.161 219.133 168.93 219.356 170.195C219.555 171.237 219.431 172.354 219.455 173.421C219.654 175.604 220.645 177.812 219.455 179.995L219.431 180.02Z" fill="#EDEAEB"/>
<path d="M216.754 164.042C214.572 164.216 214.2 162.554 214.126 160.991C214.076 159.304 215.117 158.163 216.853 158.113C218.836 158.063 219.704 159.502 219.704 161.189C219.704 162.926 218.886 164.266 216.729 164.018L216.754 164.042Z" fill="#E3E3E6"/>
<path d="M219.431 180.02C219.431 177.837 219.431 175.629 219.431 173.445C220.1 174.165 219.877 175.108 220.075 175.951C220.075 177.415 221.116 179.052 219.431 180.268V180.02Z" fill="#DEEBF7"/>
<path d="M219.456 180.243C220.596 178.928 219.679 177.341 220.101 175.926C220.547 177.465 221.588 179.077 219.456 180.243Z" fill="#747E8B"/>
<path d="M219.878 185.726C218.787 186.173 217.721 186.123 216.63 185.751C217.721 185.528 218.787 185.453 219.878 185.726Z" fill="#FAC8B3"/>
<path d="M196.177 164.464C197.045 166.548 196.772 168.608 196.251 170.692C195.458 168.608 195.582 166.524 196.177 164.464Z" fill="#FBEFEE"/>
<path d="M168.311 193.715C167.17 193.616 166.823 192.673 165.98 191.78C168.757 190.738 170.319 192.202 171.856 193.715C170.666 194.608 169.476 194.484 168.286 193.715H168.311Z" fill="#E597AE"/>
<path d="M168.311 193.715H171.881C172.55 193.79 173.219 193.889 173.814 194.881C171.806 194.459 169.748 196.097 168.311 193.715Z" fill="#E597A5"/>
<path d="M188.491 184.238V188.158C187.177 187.215 186.036 186.545 186.26 185.106C186.458 183.89 187.648 184.362 188.466 184.238H188.491Z" fill="#E596AD"/>
<path d="M396.518 269.881C396.567 270.7 396.071 271.022 395.352 271.122C395.105 270.179 395.923 268.393 393.493 269.211C393.022 269.36 392.278 266.879 391.014 266.135C391.361 265.391 389.7 264.051 391.683 263.753C391.782 264.87 392.725 265.391 393.394 266.06C394.038 266.73 394.733 267.797 395.848 267.127C396.89 266.507 396.369 265.639 395.824 264.87C395.551 264.473 395.675 264.125 396.146 263.976C397.237 263.654 397.757 264.522 398.327 265.143C398.947 265.788 399.071 266.631 398.327 267.227C397.41 267.946 396.195 268.368 396.518 269.906V269.881Z" fill="#005937"/>
<path d="M382.312 266.309L382.163 263.927C382.857 263.853 383.279 264.101 383.378 264.845C383.477 265.664 383.204 266.185 382.337 266.284L382.312 266.309Z" fill="#006266"/>
<path d="M379.908 263.778C379.288 263.778 378.792 263.579 378.693 262.86C378.594 262.091 378.916 261.57 379.71 261.446L379.883 263.803L379.908 263.778Z" fill="#006057"/>
<path d="M402.468 269.807C401.972 269.782 401.501 269.782 401.005 269.683C400.311 269.559 400.063 269.062 400.138 268.393C400.138 268.219 400.237 267.946 400.361 267.872C401.08 267.499 401.402 268.194 401.774 268.566C402.096 268.889 402.245 269.385 402.468 269.807V269.807Z" fill="#02573A"/>
<path d="M401.278 254.846L402.418 255.566C402.319 256.186 402.046 256.831 401.327 256.534C400.261 256.087 401.129 255.417 401.278 254.846Z" fill="#006150"/>
<path d="M395.204 273.851C394.857 274.099 394.51 274.322 394.163 274.57C392.626 274.347 392.973 273.131 392.898 272.139L395.13 273.305C395.179 273.479 395.204 273.652 395.204 273.826V273.851Z" fill="#00593B"/>
<path d="M390.419 268.566C390.94 268.715 391.485 268.74 391.287 269.236C391.213 269.46 390.717 269.633 390.395 269.658C390.048 269.683 389.527 269.584 389.7 269.063C389.775 268.814 390.221 268.69 390.419 268.566V268.566Z" fill="#0A573A"/>
<path d="M392.972 272.164C392.204 271.99 391.336 272.461 390.741 271.419C391.782 270.898 392.328 271.568 392.972 272.164Z" fill="#00593B"/>
</g>
<defs>
<clipPath id="clip0_5118_42379">
<rect width="595" height="287" fill="white"/>
</clipPath>
</defs>
</svg>
