<svg width="595" height="297" viewBox="0 0 595 297" fill="none" xmlns="http://www.w3.org/2000/svg">
<g clip-path="url(#clip0_5484_43209)">
<rect width="595" height="297" fill="#7D9AFF"/>
<g clip-path="url(#clip1_5484_43209)">
<path d="M120.793 298C122.08 289.345 124.14 280.921 128.132 273.064C136.269 257.041 148.603 245.577 165.263 238.75C166.963 239.163 166.628 240.58 166.654 241.713C166.705 244.572 166.963 247.406 167.194 250.266C167.452 253.357 168.765 255.753 170.954 257.71C177.185 263.352 184.447 265.593 192.79 264.022C193.691 263.841 194.592 263.61 195.519 263.558C195.88 263.558 196.215 263.61 196.575 263.713C204.197 266.314 212.077 267.448 220.085 268.143C230.05 269.019 239.938 268.787 249.8 267.19C250.753 267.036 251.629 267.139 252.427 267.731C258.246 276.464 261.105 286.227 262.572 296.48C262.65 296.995 262.727 297.485 262.778 298H247.972C246.942 297.485 245.912 297.485 244.882 298H120.793V298Z" fill="#495159"/>
<path d="M436.848 226.385C447.097 228.343 457.191 230.79 467.079 234.165C478.254 237.977 479.979 240.141 483.121 251.476C487.035 265.567 489.455 279.89 491.155 294.393C491.284 295.604 491.541 296.789 491.747 298H427.552C426.677 297.021 426.986 295.939 427.218 294.806C428.866 286.588 431.003 278.499 433.14 270.384C434.402 265.541 435.38 260.621 436.385 255.727C436.565 254.799 436.642 253.898 436.41 252.996C436.307 252.687 436.256 252.378 436.179 252.043C435.998 250.729 435.973 249.415 435.586 248.127C434.814 245.603 435.071 243.464 438.033 242.563C439.32 242.176 439.294 241.198 439.191 240.116C438.779 236.561 437.852 233.134 436.977 229.683C436.719 228.704 436.256 227.776 436.565 226.72C436.668 226.591 436.771 226.488 436.874 226.359L436.848 226.385Z" fill="#F7F2F0"/>
<path d="M296.691 298C297.284 288.829 298.185 279.71 299.55 270.642C300.502 264.305 301.378 257.942 302.253 251.579C302.331 250.961 302.279 250.342 302.82 249.904C303.824 249.595 304.828 249.544 305.858 249.57C321.283 249.93 336.655 249.26 351.951 247.2C353.367 247.019 354.835 247.148 356.251 246.968C356.637 246.994 356.972 247.122 357.307 247.328C357.822 248.075 357.899 248.926 357.513 249.673C354.758 254.851 356.612 260.157 357.075 265.387C357.745 272.832 358.62 280.251 359.264 287.695C359.573 291.122 360.603 294.522 359.676 298H296.717H296.691Z" fill="#F7F2F0"/>
<path d="M421.373 298H368.302C367.736 297.356 367.504 296.583 367.401 295.759C365.65 279.632 365.418 263.506 366.989 247.354C367.195 246.607 367.53 245.937 368.096 245.422C373.787 243.954 379.503 242.563 385.349 241.738C386.559 241.841 387.692 242.228 388.851 242.589C396.962 244.83 404.97 245.371 412.747 241.275C416.068 239.523 418.283 237.333 417.562 233.057C417.227 231.073 416.789 228.755 418.412 226.874C420.832 226.591 421.888 228.42 422.892 230.017C426.214 235.247 427.63 241.146 427.785 247.251C427.991 255.134 427.141 262.991 426.42 270.822C425.725 278.267 424.463 285.635 423.356 293.028C423.072 294.831 422.995 296.738 421.399 298.051L421.373 298Z" fill="#009A5A"/>
<path d="M421.372 298C423.844 284.939 425.776 271.827 426.445 258.535C426.806 251.244 427.501 244.031 425.08 236.973C423.741 233.109 422.48 229.167 418.514 227.003C417.046 225.226 416.737 223.552 418.823 222.006C418.823 223.577 419.647 223.861 421.115 224.041C426.368 224.685 431.595 225.587 436.848 226.385L436.771 226.488C436.59 229.502 438.213 232.13 438.599 235.015C438.702 235.839 438.908 236.612 439.062 237.437C439.938 241.816 439.964 241.867 435.947 243.799C434.814 244.34 434.762 244.65 435.329 245.912C436.256 247.921 436.153 250.265 436.848 252.404L436.796 252.3C437.389 256.139 435.895 259.72 435.097 263.326C432.754 274.197 429.509 284.862 427.295 295.785C427.14 296.609 426.909 297.356 426.316 298H421.372V298Z" fill="#F7F2F0"/>
<path d="M367.761 246.814C366.705 258.664 366.654 270.539 367.092 282.415C367.272 287.619 367.864 292.796 368.276 298H360.242C358.903 291.998 358.774 285.867 358.131 279.787C357.307 272.265 356.74 264.717 355.787 257.247C355.298 253.434 356.92 250.523 358.259 247.355C360.628 245.732 363.409 245.912 366.087 245.629C366.86 245.551 367.761 245.706 367.787 246.839L367.761 246.814Z" fill="#F7F2F0"/>
<path d="M358.569 247.406C355.504 252.635 356.122 258.122 357.024 263.79C357.667 267.886 357.848 272.059 358.337 276.181C359.187 283.445 359.65 290.736 360.294 298.026H359.676C359.058 292.796 358.414 287.567 357.822 282.338C356.972 274.687 356.148 267.036 355.427 259.359C355.144 256.422 354.603 253.434 356.277 250.626C356.818 249.724 357.461 248.694 357.127 247.483C357.333 247.148 357.667 247.045 358.028 247.071C358.26 247.123 358.465 247.226 358.62 247.432L358.569 247.406Z" fill="#323733"/>
<path d="M426.316 298C429.561 284.45 432.805 270.925 435.998 257.375C436.385 255.726 436.513 254.001 436.771 252.3C438.599 254.387 437.106 256.602 436.668 258.509C433.913 270.822 430.874 283.059 427.836 295.295C427.604 296.222 427.63 297.098 427.552 298H426.316Z" fill="#323834"/>
<path d="M418.824 222.006C418.025 223.629 418.412 225.329 418.515 227.003C418.437 229.966 417.974 232.928 418.772 235.839C419.158 237.205 418.334 237.926 417.562 238.75C414.395 242.048 410.403 243.851 405.974 244.546C400.103 245.474 394.207 245.654 388.567 243.155C389.469 241.713 391.014 241.79 392.378 241.532C403.296 239.472 411.433 231.254 413.339 220.383C414.034 216.467 413.339 215.617 409.245 215.591C400.206 215.566 391.168 215.591 382.104 215.591C380.971 215.591 379.838 215.694 378.731 215.359C363.538 214.664 348.32 213.968 333.128 213.324C327.643 213.093 326.407 211.882 326.613 206.421C327.875 170.484 329.162 134.522 330.45 98.5862C330.475 97.6588 330.501 96.7314 330.501 95.804C330.501 90.5488 333.153 87.6636 338.432 87.8697C352.002 88.4107 365.547 89.132 379.117 89.8018C379.426 89.8018 379.709 89.9563 379.993 90.0336C380.971 91.1671 380.817 92.5066 380.714 93.8462C380.611 94.9797 380.276 96.0616 380.044 97.1693C378.37 104.872 379.04 106.057 386.404 108.53C411.923 117.057 437.441 125.48 462.933 134.059C464.684 134.651 466.513 134.986 468.186 135.785C469.216 137.047 470.452 136.171 471.585 136.042C480.649 134.96 488.04 140.009 488.915 148.15C489.379 152.503 487.834 156.419 485.619 160.077C481.602 166.672 475.911 171.463 468.959 174.658C466.899 175.611 466.204 176.77 466.101 179.011C465.637 189.676 464.968 200.315 464.375 210.98C464.066 216.776 462.547 218.193 456.728 217.987C445.346 217.575 433.939 217.292 422.557 216.648C419.596 216.493 418.36 217.06 418.875 220.099C418.978 220.692 418.875 221.336 418.875 221.928L418.824 222.006Z" fill="#613A29"/>
<path d="M120.2 160.438C109.025 142.946 112.784 122.492 125.634 107.19C138.251 92.1459 154.808 83.5676 173.554 78.8791C195.313 73.4436 216.866 73.9331 237.955 82.1765C245.68 85.1905 252.607 89.5183 258.787 95.0826C259.868 96.0615 260.976 96.9889 260.976 98.6376C260.744 101.111 258.684 102.45 257.345 104.202C256.289 105.567 255.156 106.881 254.126 108.298C250.959 110.127 248.847 113.141 246.092 115.434C232.136 126.949 216.789 136.119 200.334 143.59C183.7 151.138 166.473 156.831 148.551 160.206C139.667 161.88 130.732 163.142 121.642 162.267C120.69 162.035 120.484 161.236 120.252 160.438H120.2Z" fill="#C85429"/>
<path d="M120.2 160.438C120.612 160.901 121.024 161.365 121.411 161.829C129.213 162.267 136.963 161.829 144.74 161.056C162.121 159.278 178.782 154.435 195.468 149.567C197.116 149.077 198.712 148.691 199.768 150.597C201.107 152.375 202.755 152.864 204.892 152.065C215.887 147.969 227.037 148.82 238.238 151.138C239.732 151.447 241.2 152.065 242.77 151.834C243.955 151.653 244.933 151.112 245.242 149.85C245.551 148.562 244.856 147.686 243.852 147.016C242.796 146.321 241.586 146.115 240.376 145.806C233.861 144.183 227.166 144.105 220.548 143.384C219.93 143.384 219.312 143.333 218.72 143.126C217.458 142.714 217.329 142.044 218.359 141.194C219.003 140.679 219.75 140.319 220.471 139.958C231.208 134.806 241.328 128.623 250.959 121.59C251.937 120.869 253.173 118.834 254.692 121.153C255.31 124.811 255.645 128.469 255.671 132.178C255.748 145.625 256.907 158.995 257.937 172.391C258.529 179.964 259.25 187.512 259.842 195.086C259.971 196.58 259.508 197.919 259.018 199.259C258.735 203.226 258.813 207.271 258.143 211.16C256.521 220.434 250.47 225.818 240.376 227.673C230.436 229.502 220.393 228.678 210.377 228.91C209.141 229.914 207.673 229.76 206.257 229.734C195.699 229.554 185.168 230.764 174.584 230.404C171.417 230.301 171.082 230.842 170.979 233.933C170.85 237.539 171.906 240.76 173.734 243.851C178.112 251.218 184.524 256.345 191.734 260.698C193.124 261.548 195.107 261.935 195.442 264.021C185.888 267.937 171.855 263.274 167.22 254.361C165.726 251.476 166.087 247.998 165.649 244.804C165.366 242.795 165.984 240.708 165.237 238.724C165.829 236.509 165.057 234.294 165.185 232.078C165.288 230.533 163.949 230.636 162.971 230.764C159.34 231.228 155.735 231.975 152.079 232.284C148.86 232.568 145.744 233.469 142.371 232.825C137.118 231.821 133.951 228.781 132.431 223.964C130.706 218.399 129.857 212.655 129.367 206.858C129.239 205.339 128.981 203.819 128.801 202.325C128.749 200.856 130.114 200.624 130.912 199.955C134.749 196.683 135.264 190.732 132.019 186.971C131.685 186.585 131.324 186.198 130.861 185.967C130.011 185.529 129.11 185.091 128.312 185.967C127.616 186.688 128.028 187.538 128.492 188.233C129.239 189.341 130.114 190.397 130.372 191.737C130.706 193.386 130.886 195.034 128.826 195.807C128.208 195.575 127.693 195.086 127.693 194.493C127.693 191.479 125.633 190.346 123.264 189.418C121.719 188.336 119.711 187.77 118.938 185.76C114.973 181.433 113.351 176.409 113.917 170.51C114.355 166.002 116.853 163.039 120.149 160.438H120.2Z" fill="#F9C7B3"/>
<path d="M468.186 135.811C467.079 136.712 465.998 135.965 464.993 135.63C437.209 126.408 409.45 117.134 381.64 107.938C379.374 107.191 378.859 106.031 378.679 103.764C378.293 99.0759 380.456 94.7224 380.018 90.0854C392.43 90.6007 404.867 91.0644 417.279 91.6311C432.471 92.3524 447.664 93.2025 462.856 93.9753C468.856 94.2844 470.349 95.7786 470.04 101.678C469.448 113.064 468.83 124.424 468.212 135.811H468.186Z" fill="#43362F"/>
<path d="M259.07 199.311C257.86 183.674 256.495 168.037 255.465 152.4C254.77 141.761 254.513 131.071 254.049 120.406C252.53 116.258 252.71 112.111 253.895 107.937C254.384 105.13 257.165 103.97 258.478 101.703C259.122 100.596 260.1 99.6682 260.924 98.6636C268.418 107.886 273.207 118.474 275.653 130.014C280.906 154.848 275.885 177.517 260.332 197.714C259.92 198.255 259.482 198.795 259.07 199.336V199.311Z" fill="#562212"/>
<path d="M356.611 247.406C352.156 248.617 347.573 248.668 343.041 249.184C330.732 250.601 318.372 250.755 306.012 250.472C304.931 250.472 303.746 250.832 302.819 249.879C303.463 244.495 304.622 239.214 306.759 234.217C307.66 232.079 309.128 230.687 311.574 229.966C323.162 226.566 334.981 224.531 346.955 223.243C349.71 222.959 352.465 222.882 355.195 222.599C355.349 222.676 355.478 222.727 355.633 222.805C356.791 224.093 356.122 225.535 355.89 226.875C355.066 231.383 353.907 235.84 352.671 240.245C352.053 242.512 352.028 244.16 354.654 245.036C355.633 245.371 356.791 245.912 356.637 247.406H356.611Z" fill="#C9C7C5"/>
<path d="M195.467 264.047C190.626 260.853 185.348 258.199 181.15 254.129C175.048 248.204 169.537 241.944 170.104 232.542C170.232 230.275 171.005 229.451 173.219 229.528C185.631 230.043 198.017 228.549 210.428 228.961C210.531 231.357 209.784 233.778 210.763 236.148C211.922 245.165 210.917 253.588 203.862 260.209C201.699 262.218 199.356 264.124 196.137 264.202C195.931 264.176 195.699 264.124 195.493 264.099L195.467 264.047Z" fill="#F5B092"/>
<path d="M196.112 264.151C203.888 260.699 208.935 255.031 209.965 246.376C210.248 243.954 210.042 241.455 210.12 238.982C210.145 238.003 209.785 236.896 210.738 236.097C227.475 240.94 240.865 250.42 250.727 264.82C251.345 265.722 251.809 266.752 252.35 267.731C244.058 269.122 235.689 269.973 227.269 269.56C217.87 269.097 208.497 268.272 199.382 265.67C198.223 265.336 196.936 265.181 196.086 264.151H196.112Z" fill="#26313A"/>
<path d="M378.782 215.36C379.581 214.407 380.662 214.742 381.666 214.742C391.297 214.742 400.953 214.742 410.584 214.742C414.008 214.742 415.013 215.901 414.575 219.224C412.901 231.589 403.605 240.889 391.271 242.512C390.37 242.64 389.494 242.924 388.593 243.156C387.64 242.898 386.688 242.64 385.709 242.383C377.701 239.626 376.568 236.252 377.546 229.915C377.778 228.498 377.958 227.081 377.907 225.638C377.907 224.196 377.727 222.753 378.679 221.491C378.705 219.456 378.731 217.421 378.757 215.36H378.782Z" fill="#4A2B1E"/>
<path d="M378.679 221.491C378.628 222.908 378.55 224.299 378.499 225.715C378.293 226.076 378.19 226.514 377.855 226.746C372.061 230.739 369.898 236.664 369.126 243.31C369.023 244.134 368.92 244.933 368.276 245.577C368.096 245.989 367.941 246.401 367.761 246.839C365.444 245.603 363.255 247.148 360.989 247.097C360.191 247.097 359.367 247.303 358.568 247.406L358.44 247.509L358.285 247.458C357.435 246.71 356.38 246.298 355.401 245.783C351.049 243.516 351.384 244.212 352.569 239.266C353.65 234.809 354.938 230.404 355.71 225.87C355.89 224.865 356.714 223.706 355.375 222.83C355.298 222.753 355.221 222.676 355.144 222.598C361.427 221.98 367.71 221.491 374.044 221.516C375.589 221.516 377.108 221.516 378.653 221.491H378.679Z" fill="#C9C7C5"/>
<path d="M118.965 185.735C120.407 186.765 121.823 187.77 123.265 188.8C123.497 189.186 123.445 189.599 123.265 189.985C122.39 191.763 122.132 193.489 123.651 195.111C125.222 196.812 126.999 196.168 128.776 195.627C130.964 193.566 129.986 191.453 128.595 189.65C127.411 188.105 125.995 186.739 127.694 184.91C128.879 183.648 131.788 184.833 133.102 186.945C136.089 191.685 136.552 198.151 128.853 202.324C121.102 202.659 116.132 198.46 116.493 191.866C116.622 189.547 117.574 187.538 118.991 185.735H118.965Z" fill="#F8E1B4"/>
<path d="M445.449 272.6C445.449 269.638 445.655 266.675 445.398 263.738C445.089 260.183 447.535 260.647 449.646 260.338C452.376 259.926 452.35 261.6 452.221 263.481C452.015 266.52 451.835 269.56 451.655 272.626C449.569 273.708 447.509 273.708 445.423 272.626L445.449 272.6Z" fill="#009A5A"/>
<path d="M460.847 273.837C459.431 273.837 457.989 273.837 456.573 273.837C456.187 273.45 456.187 273.064 456.521 272.652C456.599 269.921 456.521 267.19 457.036 264.46C457.294 263.146 457.629 262.811 458.89 262.811C460.332 262.811 460.925 263.275 460.873 264.769C460.796 267.422 460.873 270.076 460.873 272.729C461.234 273.115 461.234 273.476 460.873 273.862L460.847 273.837Z" fill="#050505"/>
<path d="M462.753 272.703C462.341 269.612 463.5 266.649 463.371 263.584C463.345 262.656 462.959 261.162 464.375 261.111C465.663 261.059 466.564 262.115 466.435 263.558C466.152 266.855 467.002 270.024 467.156 273.27C466.822 273.759 466.204 273.502 465.817 273.811C465.199 273.811 464.607 273.811 463.989 273.811C463.577 273.424 462.985 273.244 462.753 272.677V272.703Z" fill="#030303"/>
<path d="M436.822 252.403C434.608 250.291 436.204 246.865 434.093 244.572C433.552 243.98 435.38 243.361 436.05 243.207C438.728 242.563 439.578 241.584 438.805 238.544C437.852 234.886 437.234 231.099 436.075 227.467C435.766 226.488 435.612 226.179 436.771 226.462C438.367 231.254 439.346 236.174 440.196 241.146C440.427 242.511 439.912 242.924 438.985 243.052C435.329 243.568 435.664 246.015 436.41 248.462C436.822 249.776 436.797 251.064 436.848 252.378L436.822 252.403Z" fill="#343A35"/>
<path d="M456.521 272.651C456.521 273.038 456.547 273.45 456.573 273.836C450.032 273.836 443.492 273.836 436.951 273.785C436.771 273.785 436.591 273.347 436.05 272.625C439.449 272.625 442.436 272.625 445.423 272.625C447.509 272.625 449.569 272.625 451.654 272.625C453.277 272.625 454.899 272.625 456.495 272.651H456.521Z" fill="#303532"/>
<path d="M462.753 272.703C463.5 272.703 463.989 273.012 463.989 273.837C462.933 273.837 461.903 273.837 460.848 273.837C460.848 273.45 460.848 273.09 460.848 272.703C461.466 272.909 462.084 273.012 462.702 272.703H462.753Z" fill="#393E3A"/>
<path d="M465.791 273.837C466.229 273.656 466.692 273.476 467.13 273.296C468.263 273.399 469.473 272.986 470.941 273.837C468.933 273.837 467.362 273.837 465.791 273.837Z" fill="#393E3A"/>
<path d="M355.401 222.83C357.693 223.037 356.534 224.737 356.354 225.587C355.272 230.687 354.242 235.814 352.723 240.811C352.054 243.053 352.723 243.774 354.397 244.856C355.71 245.68 357.873 245.345 358.311 247.458C357.899 247.458 357.487 247.458 357.075 247.458C356.92 247.458 356.766 247.432 356.611 247.38C356.328 247.097 356.045 246.814 355.787 246.53C354.423 245.139 351.461 245.526 351.178 243.31C350.946 241.533 351.976 239.626 352.414 237.772C353.547 232.826 355.53 228.008 355.427 222.805L355.401 222.83Z" fill="#282E2A"/>
<path d="M384.395 260.338C390.086 255.701 397.785 255.469 402.266 259.771C401.262 260.93 401.236 262.373 401.056 263.79C400.85 265.439 400.206 267.731 399.021 268.066C395.185 269.148 395.545 272.214 394.979 274.919C394.644 276.464 394.18 277.804 392.713 278.731C391.09 279.762 391.992 281.256 392.275 282.647C392.558 284.089 394.206 285.171 393.434 286.897C389.442 287.155 386.043 285.918 383.468 282.776C382.593 281.05 383.468 279.581 384.189 278.113C384.91 276.696 384.988 275.614 383.185 275.022C382.026 274.635 381.28 273.837 381.537 272.446C381.769 271.183 382.104 269.998 383.546 269.638C385.065 269.225 386.327 268.324 387.588 267.448C388.618 266.727 390.55 266.263 390.086 264.743C389.597 263.069 388.515 261.343 386.301 261.162C385.606 261.111 384.859 261.034 384.37 260.364L384.395 260.338Z" fill="#2E6CB4"/>
<path d="M393.46 286.871C392.558 284.759 391.116 282.878 390.988 280.431C390.962 279.89 390.292 279.169 390.988 278.834C393.073 277.855 394.155 276.438 394.593 274.094C394.747 273.218 394.927 272.806 394.541 271.904C393.949 270.513 394.593 268.633 396.112 268.53C400.18 268.246 399.794 265.103 400.361 262.605C400.644 261.317 400.309 259.823 402.292 259.771H402.24C403.296 262.218 405.15 263.893 407.339 265.284C410.532 271.08 409.476 277.829 404.661 282.647C402.421 283.059 399.562 284.707 397.605 286.691C397.528 286.768 397.425 286.768 397.322 286.82C396.035 286.846 394.747 286.871 393.46 286.897V286.871Z" fill="#005A32"/>
<path d="M368.302 245.577C368.611 237.359 370.619 230.043 378.525 225.715C379.143 227.879 378.447 230.017 378.164 232.13C377.675 235.53 378.936 237.849 381.692 239.626C383.082 240.502 384.396 241.481 385.735 242.408C381.254 243.336 376.748 244.212 372.267 245.242C370.928 245.551 369.641 245.551 368.302 245.603V245.577Z" fill="#007F4A"/>
<path d="M384.396 260.338C388.284 259.101 389.443 262.656 391.58 264.459C391.94 264.769 391.863 265.567 391.4 265.825C388.85 267.216 386.893 269.818 383.881 270.204C381.821 270.462 382.516 271.982 382.13 272.883C381.589 274.094 382.902 274.455 383.726 274.506C386.765 274.635 386.172 276.103 385.142 277.881C384.267 279.375 383.752 281.024 383.469 282.75C376.722 277.185 377.186 266.057 384.396 260.338V260.338Z" fill="#005A32"/>
<path d="M397.296 286.768C397.296 286.768 397.373 286.588 397.425 286.485C398.146 284.862 398.506 282.853 399.691 281.719C401.287 280.199 402.781 283.213 404.635 282.595C402.729 284.913 400.154 286.098 397.296 286.768V286.768Z" fill="#2B6EB4"/>
<path d="M407.313 265.258C406.361 265.232 405.743 266.005 404.944 266.391C404.507 265.567 404.867 264.975 405.176 264.331C405.434 263.815 405.047 263.3 404.532 263.171C402.266 262.527 402.266 262.553 402.215 259.745C404.97 260.595 406.335 262.759 407.313 265.258Z" fill="#2B6EB5"/>
<path d="M380.096 163.529C370.362 166.646 360.886 167.161 352.646 159.871C347.548 155.363 347.187 148.253 351.565 143.023C357.667 135.733 365.83 133.492 374.971 134.059C375.229 134.059 375.461 134.394 375.718 134.548C377.289 135.398 377.881 136.944 378.551 138.438C381.821 145.471 381.795 152.941 381.383 160.463C381.332 161.623 380.817 162.627 380.07 163.503L380.096 163.529Z" fill="#055F37"/>
<path d="M441.638 172.236C441.586 187.203 431.183 199.646 416.918 201.397C405.099 202.84 393.614 194.004 390.833 181.69C390.344 179.501 391.322 177.594 393.614 176.796C395.932 175.997 397.605 177.053 398.738 179.063C399.15 179.758 399.408 180.557 399.691 181.33C401.957 187.28 405.794 191.582 412.36 192.561C419.518 193.643 424.9 190.526 428.994 184.807C431.93 180.711 432.857 176.049 432.908 171.154C432.908 170.227 432.908 169.299 433.063 168.398C433.449 166.311 434.865 165.126 436.9 164.997C438.96 164.869 440.427 165.976 441.123 167.934C441.638 169.403 441.741 170.948 441.663 172.236H441.638Z" fill="#F191B9"/>
<path d="M390.395 129.602C387.099 128.752 383.829 127.902 380.455 127.618C372.499 126.949 364.542 126.433 356.637 128.237C355.323 128.546 354.113 129.035 352.903 129.576C349.787 130.993 347.238 130.272 346.131 127.696C345.101 125.326 346.208 122.827 349.143 121.616C357.77 118.087 366.808 117.34 375.975 118.139C381.46 118.602 386.97 119.169 392.172 121.204C394.335 122.054 395.416 123.626 395.056 125.996C394.644 128.675 392.584 129.216 390.395 129.576V129.602Z" fill="#010101"/>
<path d="M380.095 163.529C381.872 153.379 380.816 143.667 375.743 134.548C384.962 134.213 393.021 141.272 392.584 149.412C392.326 154.59 389.21 158.068 385.271 160.927C383.7 162.061 382.026 163.091 380.095 163.529Z" fill="#F6F2F0"/>
<path d="M466.46 157.115C465.894 154.204 467.104 151.035 467.13 147.764C467.13 145.677 468.546 144.492 470.735 144.415C473.593 144.286 476.297 146.244 476.889 148.897C478.099 154.41 474.469 161.803 469.473 164.199C467.516 165.126 466.744 163.993 466.538 162.421C466.332 160.824 466.486 159.15 466.486 157.14L466.46 157.115Z" fill="#4A2B1E"/>
<path d="M253.921 107.912C253.972 112.059 254.024 116.232 254.075 120.38C242.797 128.726 230.926 136.145 217.536 142.251C218.952 142.457 219.622 142.56 220.291 142.663C219.647 144.311 218.128 143.977 216.892 143.977C213.596 143.977 210.377 144.543 207.184 145.29C203.682 146.115 200.644 147.583 199.15 151.164C198.61 149.695 197.605 149.721 196.318 150.133C184.73 153.869 172.911 156.78 161.04 159.484C148.32 162.395 135.445 162.499 122.518 162.267C122.158 162.267 121.797 161.958 121.411 161.803C166.448 160.541 206 144.286 241.792 117.804C245.243 115.253 248.41 112.291 251.474 109.277C252.118 108.633 252.53 107.345 253.895 107.912H253.921Z" fill="#F5B092"/>
<path d="M206.618 158.634C217.407 155.285 228.17 154.332 238.676 159.536C244.135 162.241 247.998 166.311 247.946 172.906C247.921 176.693 246.17 179.835 243.646 182.515C237.337 189.238 229.149 191.943 220.317 193.128C216.969 193.592 213.57 194.107 210.197 193.205C209.63 192.767 209.064 192.304 208.858 191.557C206.231 181.613 204.429 171.566 205.613 161.21C205.716 160.283 206.025 159.407 206.592 158.66L206.618 158.634Z" fill="#2775BB"/>
<path d="M145.461 184.009C145.461 174.838 151.667 166.079 159.752 163.812C163.486 162.782 165.855 164.379 165.185 167.47C164.825 169.145 163.512 169.737 162.147 170.227C156.224 172.365 152.903 176.77 152.362 182.824C151.847 188.826 154.679 193.514 159.804 196.709C165.005 199.954 172.138 199.182 176.644 194.983C177.391 194.287 178.138 193.566 178.807 192.793C180.326 191.119 182.155 190.5 183.957 191.969C185.657 193.36 185.27 195.215 184.06 196.915C180.455 202.015 175.305 204.694 169.331 205.39C156.456 206.884 145.435 196.889 145.461 183.983V184.009Z" fill="#E497AA"/>
<path d="M206.618 158.635C205.356 170.407 206.927 181.897 210.223 193.18C203.656 192.742 197.502 191.119 192.661 186.327C187.202 180.969 187.151 173.396 192.249 167.625C196.189 163.194 201.184 160.567 206.643 158.609L206.618 158.635Z" fill="#F9F3F0"/>
<path d="M199.15 151.19C198.841 148.51 200.18 146.965 202.549 146.012C207.081 144.157 211.768 143.255 216.635 143.101C217.845 143.049 219.081 142.843 220.291 142.688C227.166 143.049 234.042 143.332 240.762 145.033C241.458 145.213 242.153 145.393 242.848 145.574C245.191 146.166 246.814 147.428 246.376 150.108C246.015 152.349 243.852 153.302 241.02 152.632C231.029 150.288 220.986 149.232 210.789 151.19C208.858 151.55 207.004 152.091 205.202 152.89C202.678 154.049 200.618 153.688 199.15 151.19V151.19Z" fill="#33201B"/>
<path d="M122.055 175.147C122.673 172.648 123.007 170.15 124.939 168.372C126.252 167.187 127.591 167.239 127.823 169.093C128.286 172.906 128.775 176.744 128.286 180.583C127.977 182.978 126.638 183.21 124.964 181.562C123.11 179.758 122.338 177.491 122.055 175.147V175.147Z" fill="#E29371"/>
<path d="M128.775 195.627C127.565 197.714 125.814 197.533 124.114 196.529C122.338 195.498 121.462 193.849 121.797 191.711C121.977 190.552 122.698 189.702 123.29 188.8C127.436 189.212 128.621 191.995 128.775 195.627Z" fill="#FFFEFE"/>
<path d="M374.611 153.817C374.482 152.195 374.302 150.984 374.302 149.747C374.302 148.665 374.662 147.712 375.924 147.48C377.263 147.249 378.216 147.893 378.499 149.103C379.246 152.426 379.117 155.801 378.782 159.15C378.653 160.412 377.701 161.134 376.388 160.979C375.049 160.824 374.456 159.82 374.559 158.583C374.714 156.857 374.92 155.131 374.585 153.792L374.611 153.817Z" fill="#EDF3EF"/>
<path d="M377.726 143.564C377.649 145.239 376.928 146.346 375.28 146.166C373.632 146.012 372.37 145.136 372.396 143.229C372.422 141.529 373.297 140.525 375.074 140.602C377.031 140.679 377.623 141.993 377.7 143.564H377.726Z" fill="#EAF2EC"/>
<path d="M216.557 186.946C215.784 188.079 214.96 189.213 213.364 188.646C211.947 188.131 211.484 186.997 211.432 185.503C211.381 184.112 211.02 182.721 210.789 181.33C210.48 179.913 210.505 178.522 210.789 177.105C211.072 175.328 212.334 175.044 213.75 175.302C215.115 175.559 215.939 176.564 215.81 177.929C215.63 180.016 216.454 181.922 216.557 183.957C216.84 184.962 216.84 185.941 216.557 186.946V186.946Z" fill="#EDEBEA"/>
<path d="M213.467 170.974C211.433 170.922 210.223 170.046 210.248 167.831C210.248 166.053 210.995 164.92 212.875 164.791C215.373 164.637 216.016 166.517 216.145 168.32C216.248 169.84 215.347 171.051 213.467 170.948V170.974Z" fill="#E9E8E6"/>
<path d="M210.789 177.105C210.789 178.522 210.789 179.913 210.789 181.33C210.146 179.913 209.94 178.522 210.789 177.105Z" fill="#6B7F92"/>
<path d="M216.557 186.946C216.557 185.941 216.557 184.962 216.557 183.958C217.226 184.962 217.381 185.941 216.557 186.946Z" fill="#77808A"/>
</g>
</g>
<defs>
<clipPath id="clip0_5484_43209">
<rect width="595" height="297" fill="white"/>
</clipPath>
<clipPath id="clip1_5484_43209">
<rect width="618" height="298" fill="white" transform="translate(-12)"/>
</clipPath>
</defs>
</svg>
