<svg width="595" height="297" viewBox="0 0 595 297" fill="none" xmlns="http://www.w3.org/2000/svg">
<g clip-path="url(#clip0_5484_43241)">
<rect width="595" height="297" fill="#2C6FC8"/>
<path d="M212.179 217.755C226.573 217.858 240.89 218.812 254.847 222.701C258.194 223.629 261.413 224.917 264.451 226.591C266.048 227.467 267.155 228.704 267.284 230.661C267.928 239.858 268.494 249.055 269.267 258.251C270.013 267.087 268.983 275.897 268.777 284.707C268.7 288.391 268.391 292.075 268.391 295.785C268.391 297.073 268.134 297.433 266.949 297.33C266.434 297.279 265.919 297.33 265.404 297.33C223.972 297.33 182.515 297.33 141.083 297.382C138.817 297.382 138.045 296.867 137.839 294.497C136.319 277.52 135.521 260.518 136.834 243.465C137.092 240.193 137.349 236.921 137.555 233.65C137.633 232.31 138.173 231.409 139.435 230.79C151.486 224.814 164.387 221.877 177.622 220.177C178.884 219.765 180.094 219.584 180.661 221.182C182.669 226.772 187.227 228.343 192.557 228.652C198.325 228.961 203.784 227.776 208.934 225.2C210.737 224.324 211.406 222.985 210.994 221.001C210.737 219.79 210.943 218.58 212.127 217.781L212.179 217.755Z" fill="#010101"/>
<path d="M178.139 202.479C177.392 200.856 175.873 201.294 174.611 201.32C166.809 201.449 159.006 201.552 151.204 201.861C143.737 202.144 143.376 201.938 143.505 194.416C143.685 184.679 143.865 174.941 144.123 165.204C144.174 163.272 143.84 162.112 141.728 161.314C137.119 159.588 134.853 155.543 135.007 150.391C135.136 146.166 138.02 142.328 142.32 140.757C143.376 140.37 144.561 140.293 144.818 138.876C146.209 137.691 147.882 137.897 149.505 137.897C158.105 137.897 166.731 137.897 175.332 137.897C179.89 137.897 180.276 137.485 180.327 133.028C180.353 130.066 180.25 127.078 180.379 124.115C180.508 120.818 181.126 120.251 184.447 120.122C185.683 120.071 186.894 120.045 188.078 119.659C195.365 119.092 202.653 119.53 209.94 119.401C210.97 119.401 212 119.401 213.03 119.401C217.536 119.324 218 118.731 217.613 114.352C217.124 108.813 217.407 103.275 217.433 97.7363C217.433 96.7316 217.51 95.6496 218.463 94.9541C228.531 95.0056 238.625 95.0829 248.694 95.0829C251.475 95.0829 252.788 96.1133 252.968 99.0243C253.741 112.549 254.642 126.073 255.543 139.572C256.444 153.096 257.397 166.595 258.324 180.119C258.685 185.348 258.916 190.578 259.251 195.807C259.431 198.409 258.273 199.517 255.646 199.568C241.355 199.826 227.089 200.187 212.798 200.496C206.567 201.114 200.361 201.707 194.078 201.5C188.722 201.32 183.417 201.552 178.139 202.531V202.479Z" fill="#A2745F"/>
<path d="M477.626 125.867C482.39 129.834 484.424 134.986 482.957 140.911C481.463 146.862 476.596 149.644 470.906 150.391C468.408 150.726 467.532 151.628 467.275 153.74C466.219 161.855 463.644 169.454 459.704 176.59C454.271 186.482 447.37 195.06 437.714 201.191C436.89 200.058 437.585 199.027 437.946 197.997C441.705 187.512 441.473 177.131 436.298 167.239C429.216 153.689 417.989 146.192 402.488 145.832C387.553 145.471 375.888 151.757 368.266 164.457C360.309 177.698 360.515 191.325 368.318 204.772C369.116 206.163 370.532 207.271 370.326 209.126C362.756 207.013 356.395 202.66 350.576 197.688C338.499 187.358 330.259 174.555 326.834 158.867C324.517 148.227 324.491 137.614 326.783 127.001C326.912 126.408 326.963 125.79 327.04 125.197C326.551 124.064 326.963 122.956 327.298 121.9C333.272 103.069 344.937 88.9004 362.189 79.2917C362.369 79.1886 362.575 79.1628 362.781 79.1113C368.034 79.7296 372.592 82.2541 376.892 84.9848C391.338 94.2071 401.818 106.598 406.222 123.497C406.711 125.352 407.818 125.635 409.363 125.635C415.131 125.635 420.873 125.532 426.641 125.635C442.169 126.022 457.67 124.631 473.197 125.017C474.717 125.043 476.313 124.734 477.626 125.867V125.867Z" fill="#FAD6C7"/>
<path d="M477.626 125.867C454.399 126.073 431.147 126.279 407.921 126.511C406.195 126.511 405.603 126.125 405.346 124.141C404.367 116.98 400.917 110.771 396.797 105.001C388.505 93.3569 377.922 84.5725 364.146 80.0386C363.579 79.8583 362.961 79.8583 362.369 79.7553C361.751 79.8841 361.159 79.9356 360.541 79.8841C359.047 79.7038 357.682 79.2916 357.064 77.7717C356.395 76.1488 357.425 74.9895 358.481 74.0106C363.347 69.5283 368.832 65.9475 374.858 63.2684C381.45 60.3575 388.351 58.3996 395.509 57.395C397.852 57.0601 400.196 57.498 402.539 57.3177C415.723 57.6011 428.546 59.5589 440.52 65.4323C457.67 73.8818 470.442 86.3243 476.081 105.027C478.115 111.802 479.197 118.757 477.652 125.867H477.626Z" fill="#EF8111"/>
<path d="M218.462 94.9024C218.565 101.858 218.101 108.839 218.822 115.769C219.209 119.427 218.565 120.174 214.883 120.225C205.947 120.328 197.038 120.354 188.103 120.406C175.176 121.384 162.25 122.183 149.272 121.874C147.495 121.822 145.718 121.745 144.997 119.658C144.971 118.937 144.894 118.216 144.894 117.52C144.791 107.268 144.662 97.0148 144.611 86.7621C144.559 80.2961 144.74 80.4507 151.409 80.2446C169.666 79.6521 187.948 79.549 206.205 79.3687C209.063 79.343 211.947 79.2914 214.805 79.1884C217.2 79.1111 218.41 80.0643 218.359 82.6146C218.307 86.7105 218.436 90.8065 218.462 94.9282V94.9024Z" fill="#050707"/>
<path d="M412.144 297.227C398.78 297.227 385.416 297.227 372.077 297.227C369.863 295.553 370.558 292.822 369.631 290.684C369.477 289.731 369.374 288.778 369.013 287.85C368.06 283.754 366.824 279.736 366.284 275.562C365.048 269.534 364.996 263.403 364.43 257.324C364.43 252.481 365.048 247.689 365.769 242.923C366.618 239.6 367.236 236.2 368.73 233.083C369.399 231.357 370.198 229.657 370.738 227.853C371.846 225.947 372.386 223.629 374.524 222.418C376.532 223.165 375.888 224.839 375.811 226.282C375.657 230.095 374.601 233.881 375.245 237.72C375.914 239.652 377.588 240.579 379.287 241.249C388.712 244.959 398.317 245.139 407.844 241.945C412.016 240.553 414.385 237.153 414.462 232.516C414.513 230.172 414.462 227.802 414.462 225.458C414.462 224.453 414.462 223.448 414.848 222.521C415.003 222.212 415.26 222.032 415.621 221.98C417.552 223.423 416.857 225.87 417.835 227.673C420.024 232.181 421.08 236.998 421.672 241.919C421.749 242.769 421.749 243.645 421.723 244.495C422.161 247.844 422.547 251.218 422.341 254.619C422.419 255.495 422.29 256.396 422.341 257.272C422.47 262.553 421.569 267.705 420.333 272.832C419.947 273.888 419.792 275.021 419.56 276.129C419.406 276.722 419.226 277.314 419.097 277.932C418.53 280.431 417.706 282.827 417.088 285.3C416.882 285.995 416.625 286.665 416.393 287.335C416.213 287.85 416.007 288.391 415.827 288.932C415.646 289.473 415.492 290.014 415.312 290.555C414.359 292.848 414.101 295.475 412.093 297.253L412.144 297.227Z" fill="#40522F"/>
<path d="M370.326 209.1C352.043 185.709 364.48 153.096 391.647 145.96C413.946 140.087 437.404 155.466 440.803 178.316C441.988 186.327 440.546 193.798 437.713 201.165C433.336 209.615 427.233 216.338 418.401 220.305C418.118 220.975 417.577 221.362 416.959 221.671C416.495 221.954 415.929 221.825 415.44 221.98H415.182C413.045 224.17 410.135 224.17 407.483 224.505C396.488 225.921 386.342 223.706 377.33 217.008C376.248 216.21 375.192 215.411 374.755 214.071C373.287 212.423 371.819 210.774 370.351 209.125L370.326 209.1Z" fill="#EF8111"/>
<path d="M402.489 57.2919C398.188 57.9617 393.862 58.3996 389.614 59.3012C378.438 61.6454 368.344 66.3597 359.692 73.8818C358.688 74.7576 357.014 75.5305 357.452 77.2307C357.89 78.9051 359.512 78.9566 360.954 79.0854C361.417 79.137 361.881 79.4976 362.344 79.7295C355.675 83.9285 349.341 88.5139 343.959 94.3616C336.208 102.785 330.775 112.446 327.659 123.445C327.505 124.038 327.247 124.579 327.041 125.171C324.157 125.171 321.273 125.171 318.389 125.249C315.969 125.3 314.913 124.141 315.402 121.822C319.265 103.223 326.346 86.1954 340.405 72.8256C351.066 62.7016 363.761 56.9055 378.515 55.4371C386.678 54.6128 394.609 55.2568 402.489 57.3176V57.2919Z" fill="#F49949"/>
<path d="M145.023 119.684C146.156 120.972 147.649 120.998 149.22 120.972C162.172 120.766 175.15 120.611 188.102 120.431C187.356 121.204 186.377 120.946 185.476 120.972C180.918 121.024 181.304 120.405 181.304 125.351C181.304 128.52 181.201 131.714 181.356 134.857C181.485 137.742 180.352 138.902 177.416 138.876C166.55 138.799 155.709 138.876 144.842 138.876C144.559 132.487 144.662 126.099 145.023 119.71V119.684Z" fill="#795B4F"/>
<path d="M178.137 202.479C180.146 199.929 183.133 200.908 185.63 200.624C189.673 200.161 193.845 200.341 197.939 200.521C201.956 200.702 205.87 199.671 209.861 199.877C210.84 199.929 211.947 199.568 212.771 200.418C211.458 203.149 212.307 206.034 212.153 208.842C211.998 211.805 212.153 214.767 212.153 217.73C211.921 218.915 211.38 220.1 211.818 221.336C212.591 223.526 211.535 224.84 209.681 225.741C199.638 222.804 190.755 217.807 182.978 210.851C180.918 209.022 179.09 206.91 178.24 204.179C178.189 203.613 178.163 203.02 178.111 202.453L178.137 202.479Z" fill="#795B4F"/>
<path d="M374.729 214.072C383.407 221.233 393.243 224.84 404.599 224.067C408.229 223.809 411.628 222.727 415.13 222.006C415.156 223.088 415.182 224.144 415.208 225.226C414.513 227.107 412.916 228.034 411.319 228.961C401.122 234.861 390.024 237.823 378.359 238.905C377.046 239.034 375.681 239.137 374.574 238.132C373.39 236.69 373.853 235.093 374.214 233.521C374.935 230.353 374.703 227.107 374.96 223.887C375.012 223.32 374.754 222.933 374.136 222.882C373.802 223.037 373.518 222.959 373.312 222.624C374.96 221.98 374.651 220.563 374.677 219.275C374.677 217.549 374.677 215.798 374.703 214.072H374.729Z" fill="#D6A18C"/>
<path d="M336.413 223.989C342.748 222.856 349.134 222.495 355.571 222.805C356.73 224.247 356.859 226.025 356.936 227.725C357.116 231.692 357.039 235.685 356.988 239.652C356.962 241.095 356.807 242.537 355.417 243.439C349.726 243.928 344.061 244.701 338.319 244.444C336.825 244.366 335.641 243.748 335.589 242.125C335.383 236.509 335.28 230.868 335.641 225.252C335.667 224.711 336.053 224.324 336.413 223.964V223.989Z" fill="#D2201C"/>
<path d="M178.266 204.205C185.528 213.969 195.467 219.894 206.643 224.041C207.724 224.453 209.166 224.35 209.707 225.767C202.832 229.193 195.596 230.79 188.051 228.755C184.317 227.751 180.661 225.999 180.043 221.336C179.811 219.636 178.472 220.538 177.674 220.151C179.039 219.636 179.914 219.147 179.605 217.189C178.936 212.887 178.678 208.507 178.266 204.154V204.205Z" fill="#A2745F"/>
<path d="M420.95 241.636C420.229 236.818 419.07 232.13 417.139 227.648C416.959 225.484 415.903 223.217 417.834 221.259C420.1 221.13 422.341 220.975 424.607 221.362C427.748 221.594 430.89 221.826 434.031 222.032C434.649 222.908 434.804 223.912 434.804 224.943C434.829 229.425 434.932 233.933 434.778 238.416C434.649 241.61 433.645 242.743 430.452 242.692C427.285 242.614 423.911 243.799 420.95 241.636V241.636Z" fill="#D2211C"/>
<path d="M448.786 223.474C454.091 224.067 459.344 225.02 464.545 226.153C464.082 230.146 465.06 234.062 465.035 238.055C464.983 243.593 464.597 244.005 459.164 243.98C455.61 243.98 452.005 244.083 448.632 242.692C448.194 242.228 447.911 241.661 447.885 241.043C447.679 235.865 447.447 230.661 448.065 225.483C448.143 224.762 448.349 224.092 448.786 223.5V223.474Z" fill="#D2211C"/>
<path d="M308.45 259.05C308.681 255.958 308.939 252.841 309.84 249.853C311.514 248.514 313.574 249.235 315.402 248.9C316.844 248.617 318.466 248.9 319.548 247.509C319.96 247.045 320.269 246.375 321.093 246.865C321.402 247.277 321.582 247.741 321.659 248.23C321.865 250.368 321.634 252.532 321.814 254.67C322.123 257.865 323.101 258.638 326.269 258.895C328.715 259.101 331.11 257.813 333.53 258.844C333.994 259.282 333.865 259.694 333.479 260.08C332.783 260.518 332.114 260.956 332.14 261.961C332.243 265.541 332.088 269.148 332.243 272.729C332.268 273.553 332.577 274.094 333.401 274.326C334.946 274.996 336.363 275.768 336.054 277.855C335.925 278.19 335.693 278.37 335.358 278.396C330.44 275.434 325.676 275.768 321.016 278.989C320.707 278.808 320.501 278.576 320.398 278.267C320.192 277.597 320.192 276.953 320.398 276.284C320.604 275.794 320.913 275.434 321.325 275.124C321.659 274.893 322.149 274.738 322.2 274.326C322.767 270.204 322.509 266.082 322.355 261.961C322.329 260.879 321.196 260.673 320.449 260.183C318.569 258.895 316.561 259.462 314.552 259.72C312.467 259.977 310.329 260.621 308.424 259.101L308.45 259.05Z" fill="#3E1311"/>
<path d="M496.295 281.487L496.398 281.693L496.243 281.874C494.286 284.012 491.634 283.754 489.162 283.754C486.716 283.754 484.295 283.754 481.875 283.935C480.201 284.063 478.965 284.707 478.347 286.33C477.78 287.387 477.085 288.288 475.798 288.52C475.283 288.52 474.819 288.417 474.459 288.005C476.132 284.991 477.832 282.003 477.471 278.293C477.162 275.099 476.364 274.274 473.12 274.042C469.772 273.785 466.656 274.532 463.644 275.871C463.155 275.588 463.026 275.15 463 274.609C463.077 273.888 463.438 273.347 464.004 272.935C464.416 272.677 464.88 272.497 465.369 272.394C467.403 271.776 467.352 269.947 467.48 268.401C467.738 265.078 467.764 261.729 467.094 258.406C467.918 257.633 469 257.53 469.978 257.762C472.914 258.431 475.669 257.762 478.45 257.015C478.811 257.015 479.068 257.195 479.248 257.504C479.377 257.813 479.403 258.148 479.377 258.483C479.197 259.333 478.63 259.9 478.012 260.415C476.158 263.584 476.081 270.024 477.883 272.291C478.63 272.961 479.145 273.785 479.686 274.609C483.162 276.335 486.767 275.305 490.321 275.176C492.407 275.099 494.544 274.223 496.423 275.871C496.501 277.752 496.681 279.633 496.321 281.513L496.295 281.487Z" fill="#3D1311"/>
<path d="M496.038 259.797C496.45 263.867 496.836 267.937 496.63 272.059C494.158 273.656 491.274 272.96 488.622 273.476C486.227 273.914 483.729 273.63 481.257 273.553C479.352 273.501 478.193 272.651 478.064 270.616C477.884 267.319 478.245 264.073 478.811 260.853C479.069 259.384 480.073 258.303 481.566 258.509C485.764 259.024 489.961 258.689 494.132 258.947C494.879 258.998 495.523 259.23 496.038 259.822V259.797Z" fill="#D0211C"/>
<path d="M468.537 226.952C470.829 228.163 473.532 226.926 475.798 228.266C477.215 228.987 477.24 230.353 477.266 231.666C477.343 233.882 477.395 236.097 477.601 238.313C477.833 240.889 478.425 243.259 480.021 245.32C480.176 246.041 480.15 246.711 479.687 247.329C478.837 247.767 478.348 247.149 477.833 246.685C475.026 244.135 471.627 244.366 468.279 244.701C466.116 244.933 465.704 246.659 465.55 248.514C465.344 251.013 466.168 253.614 464.829 256.01C461.404 253.151 457.258 253.408 453.19 253.125C451.362 252.996 449.817 253.718 448.143 254.155C446.418 251.219 447.602 248.076 447.422 245.036C447.525 244.727 447.679 244.469 447.885 244.212C448.169 244.083 448.452 244.083 448.735 244.212C449.327 244.856 449.302 245.783 449.765 246.479C450.357 247.355 451.362 247.303 452.211 247.561C453.653 247.921 455.147 247.715 456.615 247.767C458.005 247.767 459.37 247.818 460.76 247.767C461.739 247.715 462.82 247.87 463.104 246.505C463.232 245.886 463.335 245.268 463.541 244.65C464.108 243.31 465.164 242.537 466.554 242.202C468.691 241.533 468.022 239.833 467.867 238.416C467.455 234.603 467.327 230.79 467.61 226.952C467.893 226.695 468.202 226.669 468.511 226.901L468.537 226.952Z" fill="#3D1311"/>
<path d="M306.158 276.361C306.287 271.157 307.137 266.057 308.012 260.956C311.591 259.513 315.351 259.41 319.11 259.616C320.913 259.719 321.66 261.162 321.711 262.888C321.788 266.263 321.788 269.663 321.711 273.038C321.685 274.635 320.99 276.181 319.445 276.258C315.377 276.49 311.334 277.7 307.214 276.979C306.802 276.902 306.467 276.644 306.184 276.361H306.158Z" fill="#D0201C"/>
<path d="M369.554 233.135C368.009 236.071 367.674 239.395 366.541 242.46C363.94 243.645 361.262 244.006 358.455 243.233C358.198 242.95 357.992 242.615 357.863 242.254C357.477 235.762 357.245 229.296 357.915 222.805C360.799 222.805 363.708 222.805 366.592 222.805C368.446 222.856 369.167 223.835 369.27 225.664C369.425 228.137 369.734 230.61 369.554 233.109V233.135Z" fill="#3E1311"/>
<path d="M448.658 244.289C448.452 244.289 448.246 244.289 448.04 244.289C443.25 242.846 438.461 243.027 433.671 244.212C433.362 243.722 433.336 243.207 433.491 242.666C435.783 240.554 436.246 237.9 436.066 234.938C435.886 232.181 436.684 229.502 436.684 226.72C436.684 222.289 436.993 222.083 441.473 222.624C442.04 222.676 442.581 222.701 443.147 222.753C444.126 223.32 445.31 222.701 446.314 223.217H446.263C447.731 225.767 447.087 228.549 446.881 231.254C446.752 233.083 446.572 234.886 446.443 236.715C446.289 239.111 446.907 241.12 448.658 242.795C449.044 243.284 449.044 243.774 448.683 244.263L448.658 244.289Z" fill="#3E1312"/>
<path d="M495.677 287.361C495.96 290.246 495.136 293.08 495.111 295.939C495.111 297.305 494.286 297.33 493.282 297.33C487.643 297.279 481.978 297.253 476.339 297.227C474.742 294.394 476.287 291.689 476.699 288.932C476.854 287.876 478.038 287.309 479.094 287.309C483.884 287.309 488.621 286.227 493.437 286.562C494.261 286.614 495.059 286.743 495.703 287.361H495.677Z" fill="#D2211C"/>
<path d="M333.838 297.227C330.748 297.227 327.658 297.227 324.594 297.227C323.358 295.373 323.615 293.26 323.486 291.199C323.564 290.864 323.744 290.555 324.001 290.298C325.392 289.473 326.963 289.705 328.482 289.679C334.379 289.576 335.743 288.056 335.1 282.26C334.945 280.843 334.585 279.427 335.718 278.19H335.743C336.078 277.984 336.387 278.036 336.67 278.267C337.417 279.401 338.576 279.736 339.838 279.762C344.318 279.839 348.773 279.813 353.253 279.762C354.721 279.762 355.854 279.349 356.086 277.675C356.24 277.34 356.446 277.057 356.73 276.851C357.399 276.851 357.682 277.289 357.914 277.829C358.3 280.586 358.661 283.342 357.605 286.021C352.069 285.841 346.558 285.841 341.022 285.867C339.194 285.867 337.494 286.047 337.16 288.34C336.851 289.679 335.949 290.684 335.177 291.74C334.095 293.415 335.383 295.656 333.889 297.202L333.838 297.227Z" fill="#3D1311"/>
<path d="M478.734 228.833C482.288 228.549 485.043 229.992 487.232 232.671C490.193 236.252 492.15 240.296 493.103 244.856C492.51 245.525 491.712 245.783 490.888 245.706C487.824 245.422 484.785 245.268 481.721 245.088C480.537 245.01 479.352 244.495 479.095 243.284C478.142 238.493 477.06 233.701 478.734 228.833Z" fill="#D2211D"/>
<path d="M441.861 297.227C438.359 297.227 434.883 297.227 431.381 297.227C429.733 294.599 431.484 291.894 431.252 289.241C431.767 288.726 432.436 288.571 433.132 288.52C435.552 288.365 437.973 288.649 440.393 288.211C442.273 287.876 443.869 287.18 444.951 285.532C446.007 283.677 447.577 282.878 449.74 282.878C452.676 282.878 455.586 282.054 458.573 282.286C459.68 282.363 460.813 282.337 461.817 282.93C462.1 283.136 462.358 283.393 462.538 283.677C463.079 285.145 463.311 286.639 462.873 288.185C462.564 288.365 462.255 288.443 461.894 288.391C460.864 287.979 459.809 287.567 458.676 287.721C454.298 288.236 449.792 287.618 445.543 289.267C443.535 289.962 442.917 291.56 442.711 293.492C442.582 294.754 442.865 296.145 441.835 297.201L441.861 297.227Z" fill="#3F1311"/>
<path d="M323.976 290.529V291.148C322.92 291.895 321.968 291.302 321.015 290.864C318.8 289.679 316.483 290.22 314.165 290.452C311.668 290.684 309.144 291.457 306.775 289.911C306.363 286.639 305.694 283.368 306.157 280.045C306.698 279.504 307.367 279.22 308.088 279.246C312.389 279.375 316.612 278.499 320.86 278.19C320.86 278.396 320.86 278.602 320.86 278.808C321.504 279.401 321.684 280.199 321.633 281.024C321.427 284.424 322.225 287.593 323.925 290.529H323.976Z" fill="#3F1311"/>
<path d="M358.457 297.227C351.272 297.227 344.088 297.227 336.904 297.227C335.668 295.913 335.822 294.162 335.719 292.59C335.591 290.735 336.955 289.808 338.655 289.731C344.474 289.447 350.294 289.473 356.113 289.731C357.813 289.808 358.688 290.89 358.791 292.513C358.894 294.084 359.667 295.733 358.482 297.227H358.457Z" fill="#D0201C"/>
<path d="M479.506 247.38C479.506 246.762 479.506 246.144 479.506 245.525C483.008 245.912 486.562 245.731 490.064 246.092C491.377 246.221 492.69 246.453 493.72 247.38C494.544 249.286 494.982 251.27 494.982 253.357C495.342 256.809 495.085 256.937 491.763 256.963C488.132 256.989 484.527 256.345 480.897 256.834C480.279 257.272 479.867 258.122 478.862 257.891C478.862 257.684 478.862 257.478 478.862 257.272C478.09 253.923 478.141 250.626 479.48 247.406L479.506 247.38Z" fill="#3E1312"/>
<path d="M460.967 297.227C455.611 297.227 450.255 297.227 444.873 297.227C443.431 294.342 444.436 291.714 445.646 289.087C450.332 288.082 455.096 287.619 459.886 287.902C461.585 288.005 462.512 289.087 462.383 290.787C462.203 293.003 462.28 295.269 460.941 297.253L460.967 297.227Z" fill="#D2201C"/>
<path d="M310.484 245.577C311.334 239.806 313.446 234.551 316.69 229.708C317.746 228.137 319.059 226.952 320.99 226.565C321.686 227.287 321.763 228.188 321.763 229.142C321.737 233.34 321.84 237.54 321.711 241.713C321.634 244.701 320.913 245.525 317.926 245.809C315.454 246.041 312.931 247.277 310.51 245.603L310.484 245.577Z" fill="#D2211C"/>
<path d="M412.145 297.227C413.046 294.831 413.921 292.435 414.823 290.04C415.878 288.958 417.243 289.112 418.556 289.061C421.621 288.958 424.685 289.267 427.749 288.803C429.423 288.546 430.736 289.344 430.71 291.07C430.659 293.157 430.916 295.398 429.474 297.227C423.706 297.227 417.938 297.227 412.17 297.227H412.145Z" fill="#D2211C"/>
<path d="M441.448 222.624C438.204 222.135 437.277 223.577 437.483 226.72C437.74 230.971 436.453 235.195 436.968 239.446C437.277 241.97 434.418 241.43 433.852 243.027C433.363 244.984 432.049 245.757 430.092 245.757C428.084 245.757 426.05 245.809 424.041 245.757C422.805 245.706 421.595 245.603 420.951 244.289C420.951 243.413 420.951 242.511 420.951 241.636C424.221 241.713 427.492 241.687 430.762 241.867C433.028 241.996 433.878 241.172 433.852 238.905C433.8 233.289 433.955 227.648 434.006 222.032C436.504 221.851 438.976 222.057 441.422 222.624H441.448Z" fill="#541512"/>
<path d="M358.455 297.227C357.854 292.676 355.236 290.409 350.601 290.426C346.816 290.426 343.031 290.529 339.22 290.426C336.876 290.375 336.027 291.225 336.567 293.569C336.851 294.754 336.799 295.991 336.902 297.227C336.284 297.227 335.692 297.227 335.074 297.227C334.07 295.295 334.404 293.208 334.456 291.148C335.177 290.401 335.975 289.731 336.31 288.7C336.748 286.974 338.061 286.588 339.606 286.588C344.421 286.536 349.262 286.691 354.077 286.536C356.807 286.459 357.785 288.881 359.768 289.757C360.129 289.911 360.438 290.091 360.721 290.349C362.24 292.59 362.369 294.883 361.004 297.227C360.154 297.227 359.305 297.227 358.455 297.227V297.227Z" fill="#5C1511"/>
<path d="M357.915 222.804C359.177 227.751 358.276 232.8 358.507 237.797C358.585 239.343 358.507 240.888 358.507 242.408C356.19 246.144 352.611 247.2 348.491 246.994C345.504 246.839 342.568 247.329 339.607 247.535C337.676 247.664 335.538 247.664 335.307 244.856C335.384 244.469 335.59 244.212 335.976 244.083C342.465 244.134 348.954 243.954 355.392 242.975C356.422 241.507 355.984 239.832 355.984 238.235C355.984 233.083 356.087 227.905 355.546 222.753C356.319 222.753 357.117 222.753 357.889 222.753L357.915 222.804Z" fill="#5E1611"/>
<path d="M322.019 297.227C318.363 297.253 314.68 297.099 311.024 297.382C308.166 297.614 307.264 296.377 307.264 293.827C307.264 293.131 307.058 292.436 306.93 291.74C311.668 290.143 316.457 289.679 321.35 290.916C322.74 292.9 322.843 295.012 321.993 297.227H322.019Z" fill="#D2211C"/>
<path d="M496.038 259.797C491.352 259.617 486.64 260.003 481.953 259.256C480.537 259.024 479.533 259.411 479.455 261.111C479.301 264.176 479.146 267.216 478.889 270.256C478.734 272.162 479.455 272.832 481.335 272.729C486.434 272.446 491.532 272.265 496.631 272.059C496.94 275.228 496.811 278.371 496.296 281.513C496.244 279.607 496.193 277.675 496.116 275.769C494.262 274.069 492.047 274.79 490.013 275.022C487.361 275.305 484.734 275.46 482.082 275.408C480.949 275.408 479.816 275.331 478.915 274.532C478.503 273.914 478.065 273.321 477.653 272.703C477.267 272.394 476.674 272.085 476.7 271.596C477.009 267.628 476.082 263.584 477.679 259.72L478.915 258.483C480.537 256.912 482.571 256.809 484.605 257.041C488.262 257.479 492.047 257.041 495.601 258.458C496.193 258.741 496.167 259.256 496.064 259.771L496.038 259.797Z" fill="#6C1813"/>
<path d="M448.657 244.289C448.657 243.877 448.657 243.49 448.631 243.078C448.348 242.795 448.4 242.537 448.709 242.331C452.751 242.769 456.82 243.001 460.888 243.156C463.36 243.233 464.442 242.666 464.184 239.987C463.824 236.355 463.695 232.671 463.515 229.039C463.463 227.982 463.077 226.72 464.571 226.179C465.91 226.334 467.326 226.282 468.562 226.978C468.304 227.055 468.073 227.107 467.815 227.184C466.064 229.786 466.991 232.645 467.146 235.402C467.274 238.003 468.124 240.631 466.553 243.078C465.317 243.13 464.622 243.928 464.107 244.933C463.412 246.195 462.202 246.53 460.966 246.273C457.927 245.654 454.863 245.912 451.824 245.809C450.563 245.757 449.352 245.603 448.709 244.315L448.657 244.289Z" fill="#631712"/>
<path d="M493.746 247.354C489.806 246.685 485.815 246.659 481.85 246.762C480.742 246.788 480.227 246.066 479.532 245.5C476.004 242.795 477.137 238.725 476.494 235.17C476.082 232.877 476.983 230.455 475.824 228.214C476.88 228.06 477.833 228.292 478.76 228.807C479.017 233.109 479.326 237.385 479.455 241.687C479.506 243.516 480.253 244.212 482.056 244.263C485.738 244.366 489.42 244.624 493.102 244.83C493.617 245.577 493.875 246.401 493.772 247.329L493.746 247.354Z" fill="#661712"/>
<path d="M323.977 225.896C325.806 225.432 327.608 224.943 329.514 225.174C333.737 224.608 334.767 225.277 334.638 229.219C334.483 233.985 334.458 238.776 333.556 243.49C331.136 244.65 331.265 242.589 331.187 241.378C330.956 237.9 330.956 234.423 331.187 230.945C331.316 228.91 330.981 227.467 328.561 227.416C326.14 227.364 326.012 229.116 326.115 230.79C326.295 234.371 325.703 237.926 325.703 241.507C325.703 243.052 325.754 245.113 323.05 244.134C321.917 237.977 322.355 231.898 323.977 225.896V225.896Z" fill="#4A1412"/>
<path d="M448.71 242.331C448.684 242.589 448.658 242.82 448.633 243.078C446.058 242.279 445.311 240.579 445.517 237.926C445.929 233.031 446.006 228.111 446.238 223.216C447.113 222.985 447.963 223.216 448.787 223.474C448.761 228.523 448.71 233.598 448.684 238.647C448.684 239.858 448.684 241.094 448.71 242.305V242.331Z" fill="#5A1612"/>
<path d="M306.157 276.361C310.225 276.155 314.32 275.897 318.388 275.768C320.062 275.717 320.834 275.073 320.809 273.398C320.757 269.818 320.783 266.237 320.809 262.656C320.809 260.956 320.113 260.209 318.388 260.338C314.938 260.57 311.461 260.75 307.985 260.956C307.908 260.26 307.702 259.539 308.423 259.05C311.564 259.462 314.629 258.612 317.719 258.483C318.929 258.431 320.191 258.303 320.86 259.694C321.272 259.977 321.813 260.312 321.864 260.801C322.457 265.799 323.203 270.797 321.427 275.717C321.221 275.923 321.015 276.129 320.809 276.335C320.603 276.696 320.397 277.16 320.036 277.263C315.427 278.525 310.792 279.375 306.105 277.623C306.105 277.211 306.105 276.799 306.105 276.387L306.157 276.361Z" fill="#7B1A14"/>
<path d="M477.678 286.253C477.961 283.806 479.558 283.342 481.721 283.084C486.562 282.518 491.532 283.806 496.244 281.899C496.476 282.75 496.373 283.574 496.115 284.398C495.806 285.609 495.085 286.459 493.798 286.408C489.24 286.227 484.734 287.232 480.176 287.103C479.249 287.077 478.348 287 477.652 286.253H477.678Z" fill="#451312"/>
<path d="M477.677 286.253C482.956 286.047 488.235 285.764 493.514 285.635C494.672 285.609 495.419 285.171 496.114 284.398C496.269 285.429 496.166 286.434 495.677 287.387C490.346 287.619 485.042 287.902 479.712 288.031C477.935 288.082 477.111 288.675 477.008 290.529C476.905 292.771 476.57 295.012 476.338 297.227C475.952 297.227 475.592 297.227 475.205 297.227C473.763 294.471 475.386 291.714 475.231 288.958C475.386 288.649 475.592 288.34 475.823 288.056C476.647 287.67 477.265 287.026 477.677 286.227V286.253Z" fill="#731913"/>
<path d="M360.36 290.555C360.154 290.555 359.948 290.555 359.768 290.555C359.562 290.246 359.588 289.962 359.871 289.705C360.875 289.035 361.982 289.112 363.064 289.344C365.459 289.885 367.622 289.344 369.656 288.056C370.506 288.726 370.171 289.679 370.248 290.529C369.785 291.714 369.991 292.899 370.222 294.084C370.428 295.166 370.531 296.3 369.63 297.201C367.57 297.201 365.51 297.201 363.45 297.201C362.575 296.325 362.703 295.192 362.6 294.11C362.446 292.539 361.854 291.225 360.334 290.529L360.36 290.555Z" fill="#3E1311"/>
<path d="M355.442 243.001C354.567 244.083 353.176 244.108 352.095 244.134C347.408 244.263 342.722 244.443 338.061 244.855C337.314 244.933 336.516 244.469 335.718 244.263C334.456 243.748 334.276 242.64 334.224 241.507C333.992 236.02 334.713 230.558 334.507 225.071C334.507 224.685 334.791 224.324 335.1 224.041C335.537 224.041 336.001 224.015 336.439 223.989C336.387 229.605 336.439 235.247 336.207 240.863C336.13 243.233 336.979 243.877 339.22 243.722C344.627 243.387 350.035 243.233 355.442 243.001Z" fill="#811A14"/>
<path d="M470.263 297.227C469.027 297.227 467.791 297.227 466.555 297.227C465.37 295.939 466.297 294.497 466.323 293.131C466.323 291.508 466.683 289.782 464.495 289.19C464.186 289.009 464.005 288.726 463.902 288.391C463.98 288.031 464.186 287.773 464.52 287.593C467.585 286.974 470.623 286.897 473.662 287.696L470.803 296.918C470.623 297.021 470.469 297.124 470.263 297.227Z" fill="#3D1311"/>
<path d="M310.484 245.577C312.827 245.397 315.196 244.959 317.514 245.062C320.398 245.191 320.938 243.851 320.861 241.327C320.758 236.406 320.913 231.486 320.964 226.54C321.531 226.437 322.097 226.308 322.664 226.205C322.973 226.488 323.282 226.849 323.23 227.236C322.458 233.083 323.127 239.008 322.303 244.856C322.02 245.371 321.634 245.783 321.119 246.067C317.668 248.024 314.089 248.282 310.381 246.762C310.407 246.35 310.432 245.964 310.458 245.551L310.484 245.577Z" fill="#731813"/>
<path d="M306.158 277.623C311.076 277.52 316.046 277.958 320.861 276.335C320.861 276.954 320.861 277.572 320.861 278.19C318.57 280.38 315.531 279.427 312.853 279.968C310.716 280.406 308.398 280.045 306.158 280.071C306.158 279.246 306.158 278.448 306.158 277.623Z" fill="#4E1312"/>
<path d="M335.075 224.041C335.075 229.605 335.075 235.195 335.075 240.76C335.075 241.97 334.998 243.207 335.719 244.289L335.668 244.34C335.462 244.521 335.23 244.65 334.947 244.675C334.226 244.598 333.633 244.34 333.247 243.696C332.835 238.982 333.839 234.32 333.865 229.631C333.865 225.535 333.865 225.509 329.539 225.2C331.29 224.376 333.17 224.144 335.101 224.067L335.075 224.041Z" fill="#5A1512"/>
<path d="M460.966 297.227C461.017 296.197 460.966 295.166 461.095 294.162C461.738 288.7 461.738 288.649 456.408 288.778C452.829 288.855 449.25 289.164 445.645 289.37C445.413 289.576 445.155 289.602 444.872 289.447C444.692 289.19 444.718 288.958 444.975 288.752C445.052 288.7 445.155 288.649 445.233 288.597C448.271 286.639 459.884 286.305 462.228 288.108C462.459 288.391 462.64 288.7 462.794 289.009C463.155 291.869 463.464 294.728 461.61 297.253C461.378 297.253 461.172 297.253 460.94 297.253L460.966 297.227Z" fill="#7B1913"/>
<path d="M429.448 297.227C429.577 295.398 429.474 293.544 429.963 291.715C430.298 290.452 429.886 289.242 428.341 289.499C423.835 290.22 419.303 289.551 414.822 290.014C415.003 289.576 415.183 289.113 415.363 288.675C416.754 287.49 418.453 287.825 420.05 287.825C423.191 287.825 426.358 287.619 429.5 287.979C430.272 288.185 430.916 288.546 431.302 289.293C433.028 291.921 430.787 294.548 431.354 297.176C430.71 297.176 430.066 297.176 429.423 297.176L429.448 297.227Z" fill="#711813"/>
<path d="M470.262 297.227C471.137 295.965 470.828 294.496 470.88 293.105C470.957 290.838 471.498 288.855 473.97 288.056C474.176 287.876 474.382 287.85 474.588 288.056C475 288.056 475.412 288.056 475.824 288.056C475.824 288.262 475.824 288.443 475.824 288.649C474.613 291.379 475.463 294.548 473.97 297.201C472.734 297.201 471.523 297.201 470.287 297.201L470.262 297.227Z" fill="#3E1311"/>
<path d="M321.557 244.933C322.509 243.104 322.097 241.146 322.123 239.24C322.149 234.886 322.046 230.532 322.715 226.205C323.05 225.767 323.514 225.767 324.003 225.87C324.003 232.001 322.973 238.106 323.385 244.263C322.999 245.087 322.458 245.499 321.582 244.907L321.557 244.933Z" fill="#561412"/>
<path d="M321.427 291.251C316.586 290.787 311.771 291.508 306.93 291.74C306.878 291.122 306.827 290.529 306.775 289.911C310.664 290.298 314.449 289.293 318.311 289.293C319.522 289.293 320.809 289.138 321.504 290.504C321.71 290.761 321.659 291.019 321.427 291.225V291.251Z" fill="#7F1A14"/>
<path d="M369.555 233.135C368.808 230.739 368.344 228.292 368.473 225.819C368.55 224.247 367.958 223.371 366.619 222.856C367.881 222.856 369.143 222.83 370.404 222.805C372.722 224.222 370.945 226.437 371.46 228.214C370.842 229.863 370.198 231.512 369.58 233.161L369.555 233.135Z" fill="#6D1A14"/>
<path d="M480.125 256.628C480.357 255.083 481.541 255.212 482.468 255.521C486.048 256.731 489.781 255.598 493.412 256.294C495.421 256.68 494.674 254.465 494.983 253.331C495.627 254.774 495.91 256.268 495.498 257.839C490.966 258.148 486.485 257.324 481.979 257.479C481.284 257.479 480.589 257.221 480.125 256.603V256.628Z" fill="#4F1412"/>
<path d="M462.254 288.675C462.254 288.469 462.254 288.288 462.254 288.082C462.46 288.082 462.666 288.082 462.872 288.082C463.593 287.696 463.773 288.34 464.108 288.701C464.314 288.701 464.52 288.701 464.726 288.701C467.455 291.534 466.013 294.394 464.726 297.227C464.108 297.227 463.49 297.227 462.872 297.227C461.687 295.501 462.769 293.672 462.743 291.895C462.743 290.761 462.975 289.679 462.28 288.675H462.254Z" fill="#501411"/>
<path d="M321.428 291.251C321.454 291.019 321.48 290.761 321.505 290.529C322.329 290.735 323.128 290.941 323.952 291.173C324.673 293.131 324.595 295.192 324.57 297.227C323.72 297.227 322.87 297.227 321.995 297.227C321.789 295.244 321.608 293.234 321.402 291.251H321.428Z" fill="#5F1612"/>
<path d="M464.7 297.227C464.494 294.393 466.322 291.534 464.7 288.7C466.528 288.572 467.095 289.499 467.224 291.251C467.352 293.311 466.503 295.218 466.554 297.227C465.936 297.227 465.318 297.227 464.7 297.227V297.227Z" fill="#3E1311"/>
<path d="M444.976 288.726C444.976 288.932 444.976 289.112 444.976 289.319C445.053 292.023 444.512 294.651 443.714 297.227C443.096 297.227 442.478 297.227 441.86 297.227C441.86 295.836 441.757 294.419 441.911 293.028C442.143 291.07 442.735 289.293 444.976 288.726Z" fill="#5A1411"/>
<path d="M310.406 246.762C313.908 246.453 317.59 247.561 320.912 245.551C321.247 245.963 321.195 246.35 320.886 246.736C320.397 246.994 320.294 247.458 320.268 247.973C316.843 248.823 313.419 249.518 309.891 248.591C309.685 247.87 309.891 247.277 310.432 246.762H310.406Z" fill="#561412"/>
<path d="M360.361 290.555C362.679 290.504 363.529 291.792 363.477 293.956C363.451 295.038 363.477 296.145 363.477 297.227C362.653 297.227 361.829 297.227 361.005 297.227C360.799 295.012 361.52 292.693 360.361 290.555V290.555Z" fill="#3F1311"/>
<path d="M480.125 256.628C483.498 257.736 486.974 257.144 490.425 257.221C492.15 257.272 493.875 257.324 495.523 257.865C495.523 258.071 495.549 258.277 495.575 258.483C491.583 258.895 487.669 257.865 483.704 257.839C482.056 257.839 480.459 258.019 478.889 258.483C478.889 258.277 478.889 258.071 478.889 257.865C479.301 257.453 479.713 257.041 480.125 256.628V256.628Z" fill="#581511"/>
<path d="M309.866 248.591C313.316 248.256 316.767 247.741 320.243 247.973C319.702 250.137 317.694 249.286 316.458 249.544C314.32 249.982 312.054 249.75 309.84 249.827C309.84 249.415 309.84 249.003 309.84 248.591H309.866Z" fill="#481312"/>
<path d="M369.631 297.227C369.58 295.939 369.76 294.625 369.245 293.337C368.781 292.204 369.013 291.148 370.249 290.529C370.867 292.745 371.459 294.986 372.077 297.201C371.279 297.201 370.455 297.201 369.657 297.201L369.631 297.227Z" fill="#4E1B14"/>
<path d="M473.945 297.227C473.61 294.703 474.666 292.307 474.614 289.808C474.614 289.087 475.155 288.804 475.773 288.675C476.159 291.56 475.258 294.368 475.155 297.227C474.743 297.227 474.331 297.227 473.919 297.227H473.945Z" fill="#681712"/>
<path d="M371.435 228.188C370.121 226.565 371.409 224.453 370.379 222.779C371.357 222.727 372.336 222.676 373.34 222.624C373.623 222.701 373.881 222.779 374.164 222.882C373.263 224.659 372.362 226.437 371.46 228.188H371.435Z" fill="#C92E21"/>
<path d="M443.714 297.227C443.663 294.523 443.972 291.869 444.976 289.319C445.208 289.319 445.44 289.319 445.671 289.345C445.414 291.972 445.156 294.6 444.899 297.227C444.513 297.227 444.126 297.227 443.74 297.227H443.714Z" fill="#831A14"/>
<path d="M462.255 288.675C463.31 289.216 463.722 290.143 463.336 291.225C462.589 293.209 462.976 295.244 462.847 297.253C462.435 297.253 462.023 297.253 461.637 297.253C462.074 294.419 462.435 291.586 462.28 288.701L462.255 288.675Z" fill="#721813"/>
<path d="M334.457 291.147C335.178 293.131 335.127 295.166 335.075 297.227C334.663 297.227 334.251 297.227 333.839 297.227C334.123 295.218 333.196 293.08 334.457 291.147V291.147Z" fill="#5B1511"/>
<path d="M424.607 221.362C422.289 221.439 419.972 221.491 417.654 221.568C417.217 221.8 416.83 221.774 416.521 221.336C417.139 221.001 417.757 220.641 418.375 220.306C420.255 221.826 422.65 220.306 424.581 221.362H424.607Z" fill="#D69772"/>
<path d="M446.288 223.242C445.207 223.242 444.074 223.68 443.121 222.779C444.203 222.676 445.284 222.701 446.288 223.242Z" fill="#5A1612"/>
<path d="M216.635 135.089C216.789 134.831 216.995 134.574 217.047 134.29C217.768 129.654 217.768 129.525 222.609 129.679C227.707 129.834 232.626 130.813 236.746 134.084C241.767 138.052 241.818 143.229 236.823 147.068C231.364 151.241 225.081 153.225 218.257 153.611C218.051 153.379 217.742 153.199 217.639 152.941C215.708 147.351 215.27 141.632 215.991 135.785C216.043 135.475 216.352 135.321 216.583 135.115L216.635 135.089Z" fill="#060708"/>
<path d="M192.068 182.669C182.077 182.669 173.219 177.002 169.846 168.45C169.202 166.827 168.996 165.281 170.155 163.813C171.056 162.679 172.292 162.679 173.554 162.911C174.945 163.169 175.588 164.251 176.078 165.384C181.562 178.419 199.51 179.449 207.93 166.955C208.214 166.517 208.523 166.131 208.806 165.693C209.99 163.838 211.613 162.731 213.698 164.019C215.861 165.358 215.681 167.393 214.6 169.428C210.428 177.311 201.287 182.669 192.068 182.669V182.669Z" fill="#E56981"/>
<path d="M216.635 135.089C216.377 141.323 216.867 147.506 218.283 153.586C212.618 153.714 207.313 152.71 202.807 148.923C199.769 146.347 198.919 142.843 200.927 139.366C204.095 133.853 209.425 131.689 215.347 130.607C216.377 130.427 216.635 130.865 216.635 131.715C216.635 132.822 216.635 133.956 216.635 135.064V135.089Z" fill="#EEEDEB"/>
<path d="M228.968 115.898C232.676 116.31 236.719 117.804 239.886 121.179C240.581 121.9 241.276 122.75 241.585 123.677C241.997 124.888 242.564 126.563 241.096 127.284C239.319 128.185 239.113 126.356 238.47 125.223C236.126 121.05 232.058 119.787 227.706 119.092C226.367 118.886 224.616 118.963 224.745 117.237C224.874 115.176 226.753 115.743 228.942 115.872L228.968 115.898Z" fill="#0A0909"/>
<path d="M143.685 150.88C143.685 151.293 143.736 151.705 143.685 152.117C143.479 153.147 144.329 154.822 143.041 155.105C141.573 155.44 140.415 154.049 139.694 152.813C138.612 150.958 140.466 147.506 142.526 147.145C143.402 146.991 143.659 147.403 143.659 148.098C143.685 149.026 143.659 149.953 143.659 150.88H143.685Z" fill="#83553F"/>
<path d="M371.047 149.361C362.601 152.04 354.85 150.34 348.078 145.007C343.031 141.04 343.031 135.218 347.717 130.272C352.455 125.274 358.558 123.188 365.304 122.827C366.206 123.265 366.695 124.012 367.055 124.888C369.759 131.612 371.793 138.464 371.742 145.78C371.742 147.016 371.819 148.253 371.047 149.335V149.361Z" fill="#038F93"/>
<path d="M371.047 149.361C371.304 140.035 368.935 131.302 365.305 122.827C371.459 122.621 377.433 123.239 382.48 127.258C389.973 133.234 389.432 138.438 383.252 143.977C379.828 147.042 375.682 148.82 371.073 149.361H371.047Z" fill="#FAF2F0"/>
<path d="M365.305 106.649C370.892 106.546 375.836 107.268 380.703 108.581C381.501 108.788 382.3 109.019 383.021 109.38C384.566 110.127 385.467 111.364 384.849 113.115C384.257 114.738 382.815 115.125 381.295 114.764C378.205 114.068 375.167 113.115 372 112.78C363.708 111.905 355.623 112.059 348.232 116.696C346.713 117.649 345.22 117.52 344.19 115.975C343.16 114.429 343.726 112.987 345.039 111.905C347.46 109.921 350.344 108.788 353.331 108.066C357.425 107.062 361.571 106.443 365.279 106.649H365.305Z" fill="#EF8112"/>
<path d="M469.645 140.267C470.057 138.181 470.366 135.45 470.314 132.668C470.289 131.174 471.113 130.71 472.555 131.354C474.924 132.41 476.778 133.827 477.061 136.635C477.37 139.701 475.748 141.71 473.301 143.127C470.752 144.595 469.619 143.848 469.645 140.267Z" fill="#D6A18C"/>
<path d="M374.602 238.106C389.356 237.591 403.133 234.01 415.235 225.2C415.312 227.957 415.518 230.713 415.441 233.469C415.312 237.514 411.553 242.048 407.613 243.104C398.832 245.448 390.052 245.963 381.322 242.872C378.67 241.919 375.76 241.249 374.627 238.106H374.602Z" fill="#FAD6C7"/>
<path d="M419.509 273.373C420.513 268.04 421.672 262.733 421.62 257.272C423.5 255.469 430.272 254.979 432.203 256.499C433.285 257.349 433.465 258.56 433.517 259.797C433.697 263.996 432.847 268.143 432.77 272.316C432.744 273.888 431.791 275.047 430.143 275.253C427.182 275.588 424.221 275.537 421.26 275.279C420.255 275.202 419.148 274.841 419.483 273.373H419.509Z" fill="#D0201C"/>
<path d="M369.658 288.056C368.834 291.38 366.001 290.272 363.993 290.298C362.654 290.298 361.186 289.963 359.769 289.937C358.018 289.319 357.272 288.056 357.298 286.253C357.298 283.368 357.298 280.509 357.298 277.623C359.435 274.094 364.173 273.193 367.108 275.769C367.958 279.89 368.808 283.986 369.658 288.108V288.056Z" fill="#160909"/>
<path d="M358.532 243.052C361.184 242.795 363.837 242.151 366.54 242.434C366.128 247.354 365.716 252.3 365.304 257.221C362.781 259.436 359.124 258.947 356.24 256.061C354.85 252.532 354.696 248.951 355.983 245.345C356.421 244.108 357.116 243.207 358.532 243.026V243.052Z" fill="#170909"/>
<path d="M356.68 256.01C359.383 257.684 362.19 258.56 365.306 257.246C365.898 263.403 366.078 269.611 367.108 275.742C363.452 274.377 360.207 275.047 357.298 277.597C357.092 277.391 356.886 277.185 356.68 276.979C356.345 275.794 357.22 275.202 357.864 274.506C359.049 273.398 358.946 271.93 358.894 270.513C358.791 267.37 358.096 264.253 358.276 261.085C358.379 259.462 356.834 258.715 356.293 257.401C356.19 256.886 356.293 256.396 356.68 256.01V256.01Z" fill="#3D1312"/>
<path d="M420.951 244.315C424.53 245.525 428.213 244.752 431.843 244.804C432.899 244.804 433.079 243.542 433.826 243.052C433.826 243.464 433.826 243.877 433.826 244.289C434.805 245.345 434.341 246.556 434.212 247.741C433.852 250.677 433.903 253.563 435.397 256.242C435.448 256.577 435.397 256.912 435.242 257.221C434.985 257.452 434.676 257.581 434.341 257.581C430.556 254.49 425.921 255.289 421.569 254.748C421.363 251.27 421.157 247.792 420.951 244.315Z" fill="#411311"/>
<path d="M431.327 289.318C430.838 289.318 430.4 289.164 430.143 288.674C429.834 288.288 429.525 287.876 429.37 287.412C428.727 285.403 427.13 286.15 425.791 286.201C422.675 286.304 419.534 287.232 416.547 285.583C416.676 282.775 417.989 280.276 418.53 277.572C421.156 275.949 424.092 277.056 426.847 276.747C428.212 276.593 429.757 277.082 430.735 275.614C431.096 275.253 431.482 274.892 432.074 275.021C432.46 275.408 432.615 275.871 432.666 276.387C432.666 277.52 432.46 278.628 432.126 279.684C431.096 283.084 431.739 286.227 433.259 289.293C432.615 289.293 431.997 289.293 431.353 289.293L431.327 289.318Z" fill="#3E1311"/>
<path d="M431.998 275.125C431.792 275.331 431.586 275.537 431.38 275.743C431.096 276.155 430.787 276.696 430.298 276.722C426.539 276.928 422.753 277.572 419.02 276.361C419.174 275.357 418.711 274.249 419.535 273.373C419.741 274.378 420.41 274.609 421.337 274.584C424.092 274.532 426.873 274.506 429.629 274.506C431.122 274.506 431.895 273.888 431.946 272.317C432.152 268.041 432.384 263.738 432.667 259.462C432.796 257.53 432.126 256.5 430.092 256.68C427.285 256.938 424.376 255.933 421.62 257.247C421.62 256.422 421.595 255.572 421.569 254.748C426.23 253.64 430.684 253.615 434.444 257.221C435.5 257.736 435.912 258.689 435.731 259.746C435.036 264.254 435.731 268.891 434.418 273.347C433.955 274.429 433.208 275.125 431.946 275.099L431.998 275.125Z" fill="#631612"/>
<path d="M416.497 285.583C420.05 285.48 423.63 285.918 427.157 285.042C428.934 284.604 430.505 284.991 430.119 287.464C425.381 288.417 420.617 288.468 415.879 287.464C415.93 286.794 415.827 286.073 416.497 285.609V285.583Z" fill="#471412"/>
<path d="M415.879 287.438C420.617 287.438 425.38 287.438 430.118 287.438C430.118 287.85 430.118 288.263 430.118 288.649C425.2 288.649 420.282 288.649 415.338 288.649C415.338 288.16 415.415 287.696 415.879 287.387V287.438Z" fill="#671712"/>
<path d="M418.994 276.361C423.114 276.078 427.286 277.031 431.354 275.743C431.2 277.597 429.861 277.597 428.47 277.597C425.123 277.597 421.801 277.597 418.453 277.597C418.402 277.082 418.505 276.644 418.968 276.361H418.994Z" fill="#571612"/>
<path d="M416.521 221.336C416.908 221.413 417.268 221.491 417.654 221.568C417.474 223.603 417.32 225.612 417.139 227.647C416.573 225.767 415.981 223.861 415.414 221.954C415.594 221.387 416.135 221.465 416.521 221.336V221.336Z" fill="#7A2E1B"/>
<path d="M401.535 212.912C385.776 213.067 373.029 200.393 372.849 184.395C372.695 168.913 385.492 156.187 401.354 156.007C417.036 155.826 429.782 168.398 429.988 184.215C430.194 200.032 417.603 212.732 401.535 212.886V212.912Z" fill="#FAD6C7"/>
<path d="M347.666 223.912C348.619 223.964 349.572 224.015 351.22 224.118C349.469 224.685 348.439 224.736 347.666 223.912Z" fill="#D52E23"/>
<path d="M333.839 259.075C331.161 258.998 328.612 259.9 325.908 259.745C322.277 259.539 321.118 258.715 320.912 255.082C320.784 252.738 320.887 250.368 320.887 247.998C322.097 245.165 325.908 243.207 329.951 243.49C331.856 243.645 333.736 244.031 335.281 245.319C337.521 248.951 336.749 252.867 336.285 256.731C335.925 257.736 335.281 258.483 334.328 258.972C334.174 258.998 333.993 259.05 333.839 259.075V259.075Z" fill="#180A09"/>
<path d="M323.977 290.529C321.299 289.138 321.093 286.536 320.913 284.012C320.784 282.286 320.913 280.56 320.913 278.808C324.337 274.583 332.32 274.274 335.719 278.19C335.152 280.895 336.466 283.445 335.976 286.305C335.41 289.576 333.556 290.297 331.007 290.478C328.689 290.658 326.32 290.529 323.977 290.529V290.529Z" fill="#180909"/>
<path d="M335.075 245.525C329.281 243.233 323.977 244.16 320.887 247.998C320.887 247.586 320.887 247.174 320.887 246.762C320.887 246.375 320.887 245.989 320.912 245.577C321.118 245.371 321.324 245.139 321.556 244.933C322.148 244.727 322.766 244.495 323.359 244.289C324.646 244.16 325.238 243.104 325.058 242.125C324.311 237.849 325.599 233.65 325.264 229.399C325.058 226.591 326.114 225.921 329.461 226.437C331.341 226.72 332.706 227.158 332.294 229.992C331.702 233.985 332.062 238.132 332.011 242.228C332.011 243.078 332.371 243.568 333.247 243.671C333.865 243.877 334.483 244.083 335.101 244.315C335.487 244.727 335.461 245.139 335.101 245.525H335.075Z" fill="#3D1311"/>
<path d="M357.941 275.15L356.705 276.979C356.705 277.185 356.705 277.391 356.705 277.572C356.112 278.705 355.057 279.066 353.898 279.091C348.799 279.246 343.701 279.246 338.577 279.091C337.753 279.091 336.98 278.782 336.336 278.216C336.13 278.216 335.95 278.216 335.744 278.19C335.77 276.464 335.049 275.382 333.272 275.124C332.628 274.403 332.371 273.553 332.371 272.6C332.345 269.148 332.345 265.696 332.371 262.244C332.371 261.291 332.628 260.441 333.272 259.719C333.478 259.513 333.684 259.307 333.89 259.101C334.585 258.766 335.126 257.968 336.079 258.509C336.465 258.869 336.671 259.333 336.697 259.848C336.62 263.738 336.697 267.654 336.62 271.544C336.594 273.965 337.521 274.789 339.993 274.455C343.958 273.914 348.001 274.171 351.992 274.274C354.645 274.326 356.138 273.604 355.881 270.668C355.803 269.869 356.009 269.019 356.602 268.375C357.941 268.22 358.018 269.302 358.095 270.101C358.25 271.775 358.636 273.476 357.966 275.15H357.941Z" fill="#5C1612"/>
<path d="M321.479 275.717C321.479 271.363 321.479 266.984 321.53 262.631C321.53 261.6 321.401 260.621 320.912 259.694C322.766 259.9 323.461 260.905 323.41 262.785C323.281 266.134 323.358 269.509 323.384 272.858C323.384 274.223 323.41 275.614 321.504 275.717H321.479Z" fill="#5E1511"/>
<path d="M333.246 259.72C333.246 264.846 333.246 269.998 333.246 275.125C331.804 275.022 331.392 274.12 331.366 272.832C331.314 268.942 331.289 265.052 331.16 261.188C331.108 259.514 332.267 259.797 333.22 259.72H333.246Z" fill="#401311"/>
<path d="M479.507 247.38C479.507 250.678 479.739 254.001 478.889 257.247C476.468 258.664 473.971 259.411 471.112 258.715C469.851 258.406 468.486 258.561 467.173 258.483C465.731 258.818 465.19 257.71 464.52 256.809C464.443 256.525 464.495 256.268 464.701 256.036C464.701 253.177 464.752 250.291 464.701 247.432C464.675 245.629 465.628 244.469 467.121 243.877C470.984 242.357 476.88 244.083 479.533 247.406L479.507 247.38Z" fill="#170909"/>
<path d="M474.562 288.056C474.356 288.056 474.15 288.056 473.944 288.056C470.648 288.056 467.352 288.056 464.056 288.056C461.893 287.283 462.949 285.119 462.202 283.728C461.121 281.771 462.202 279.787 462.125 277.829C462.331 276.979 462.614 276.181 463.438 275.717C466.94 272.213 471.395 273.295 475.567 273.373C476.906 273.373 477.549 274.738 477.961 275.897C479.352 279.684 477.652 285.506 474.511 288.056H474.562Z" fill="#1E0B0B"/>
<path d="M464.109 273.321C463.903 273.708 463.671 274.094 463.465 274.506C463.182 274.738 462.873 274.944 462.538 275.099C457.671 275.717 452.702 274.944 447.835 275.82C447.449 275.769 447.088 275.64 446.753 275.485C446.084 275.047 445.672 274.403 445.492 273.63C444.796 268.401 446.007 263.249 446.11 258.045C446.213 257.685 446.367 257.324 446.573 257.015C447.938 255.572 449.663 255.057 451.594 255.109C455.663 255.237 459.834 254.49 463.774 256.242C464.547 256.809 465.01 257.607 465.499 258.406C466.993 262.94 465.808 267.448 465.242 271.956C465.165 272.6 464.572 272.935 464.083 273.321H464.109Z" fill="#731813"/>
<path d="M446.803 275.15C447.009 275.15 447.215 275.15 447.395 275.15C452.571 275.022 457.747 275.717 462.871 274.532C463.077 274.532 463.257 274.532 463.463 274.506C463.463 274.919 463.463 275.331 463.463 275.743C463.257 276.361 463.051 276.979 462.845 277.598C462.279 278.628 461.249 278.808 460.245 278.911C456.485 279.298 452.7 279.272 448.94 279.014C446.314 278.86 445.85 277.829 446.803 275.15V275.15Z" fill="#451312"/>
<path d="M478.888 274.506C483.884 274.893 488.828 273.914 493.823 273.862C495.137 273.862 496.398 273.837 496.115 275.717C491.145 275.614 486.253 276.722 481.257 276.361C479.944 276.258 478.734 276.31 478.888 274.506Z" fill="#501411"/>
<path d="M464.726 258.432C464.494 257.839 464.288 257.221 464.057 256.628C464.263 256.371 464.494 256.345 464.7 256.628C465.524 257.247 466.348 257.865 467.172 258.483C467.507 259.101 468.408 259.359 468.357 260.183C468.202 263.738 468.795 267.293 467.945 270.848C467.559 272.445 466.786 273.115 465.318 273.27C465.087 269.38 465.936 265.541 465.962 261.677C465.962 260.441 466.065 259.179 464.752 258.432H464.726Z" fill="#461312"/>
<path d="M477.677 259.72C477.446 263.455 478.167 267.242 477.188 270.977C477.059 271.467 477.471 272.136 477.652 272.703C476.828 272.626 475.875 272.652 475.875 271.492C475.901 267.834 475.411 264.125 476.519 260.544C476.699 259.977 477.162 259.797 477.677 259.72V259.72Z" fill="#581511"/>
<path d="M464.725 258.432C466.09 258.612 466.682 259.462 466.528 260.75C466.013 264.923 466.348 269.148 465.292 273.27C464.906 273.27 464.494 273.321 464.107 273.347C465.009 268.401 466.09 263.481 464.725 258.457V258.432Z" fill="#641612"/>
<path d="M435.088 256.629C432.229 253.795 433.285 250.291 433.491 246.968C433.543 246.067 433.723 245.191 433.852 244.289C437.354 241.61 444.1 241.61 448.04 244.289C448.04 247.586 448.04 250.858 448.04 254.155C448.04 254.336 448.04 254.516 448.04 254.696C447.19 256.989 445.491 258.071 443.096 258.071C440.341 258.071 437.508 258.432 435.088 256.654V256.629Z" fill="#160909"/>
<path d="M464.701 256.628C464.495 256.628 464.263 256.628 464.057 256.628C460.555 256.216 457.028 255.881 453.474 255.958C451.131 256.01 448.839 255.958 446.779 257.246C446.599 255.984 447.886 255.289 448.015 254.155C448.736 252.816 449.689 252.3 451.362 252.223C454.942 252.069 458.444 253.047 461.997 252.919C464.315 252.816 463.697 255.083 464.701 256.01C464.701 256.216 464.701 256.422 464.701 256.628V256.628Z" fill="#3E1311"/>
<path d="M466.554 243.052C467.017 238.467 465.652 233.959 465.936 229.373C466.013 228.085 465.858 226.772 467.815 227.158C468.974 231.821 468.124 236.638 469 241.326C469.335 243.181 467.815 243.078 466.554 243.052Z" fill="#441312"/>
<path d="M448.657 244.289C453.781 245.139 458.906 245.422 464.081 244.907C464.081 245.525 464.081 246.144 464.081 246.736C463.695 247.38 463.154 247.947 462.408 247.87C458.03 247.483 453.55 248.179 449.275 246.736C448.374 246.092 448.734 245.113 448.657 244.263V244.289Z" fill="#491312"/>
<path d="M449.276 246.762C453.035 246.916 456.821 246.375 460.529 247.329C461.687 247.638 462.975 247.457 464.082 246.762C463.979 248.179 463.104 248.617 461.816 248.617C460.091 248.617 458.391 248.617 456.666 248.617C455.095 247.766 453.293 248.823 451.722 247.998C450.744 247.869 449.456 248.41 449.25 246.762H449.276Z" fill="#3E1311"/>
<path d="M451.748 247.999C453.396 248.282 455.173 247.38 456.692 248.617C455.044 248.333 453.267 249.235 451.748 247.999Z" fill="#3E1312"/>
<path d="M335.074 245.525C335.074 245.113 335.074 244.701 335.074 244.314C335.28 244.314 335.46 244.314 335.666 244.314C335.95 245.706 336.413 246.891 338.216 246.762C343.082 246.401 347.923 246.015 352.79 245.68C354.309 245.577 355.52 245.242 356.189 243.645C356.55 242.795 357.58 242.511 358.532 242.408C358.532 242.614 358.532 242.82 358.532 243.026C354.773 246.04 356.215 250.111 356.318 253.923C356.318 254.619 356.55 255.289 356.678 255.984C356.678 256.396 356.678 256.808 356.678 257.221C349.674 255.572 342.799 256.551 335.924 257.993C335.512 257.813 335.46 257.556 335.692 257.221C335.615 253.305 336.516 249.364 335.074 245.525V245.525Z" fill="#401311"/>
<path d="M357.297 286.227C358.121 287.464 358.945 288.7 359.769 289.911C359.769 290.117 359.769 290.323 359.769 290.529C359.202 290.323 358.25 290.272 358.095 289.911C356.782 286.717 354.027 287.49 351.58 287.464C347.563 287.438 343.572 287.49 339.555 287.438C338.242 287.438 337.135 287.618 336.311 288.7C336.311 285.97 337.392 284.759 340.379 284.939C344.937 285.197 349.52 285.042 354.104 284.991C355.417 284.991 356.499 285.223 357.323 286.253L357.297 286.227Z" fill="#3F1311"/>
<path d="M336.311 278.216C341.925 278.216 347.512 278.216 353.126 278.216C354.362 278.216 355.572 278.293 356.679 277.572C357.04 279.916 356.216 280.818 353.667 280.715C348.851 280.509 344.036 280.612 339.247 280.663C337.47 280.663 336.157 280.354 336.311 278.19V278.216Z" fill="#3F1311"/>
<path d="M433.234 289.319C430.092 287.387 430.633 284.295 430.891 281.41C431.045 279.71 431.612 278.061 431.998 276.387C434.238 273.064 437.74 273.27 441.088 273.295C442.452 273.295 443.92 273.605 445.233 274.274C447.036 277.134 447.628 280.225 446.547 283.445C446.238 284.373 446.032 285.377 445.568 286.253C444.075 288.984 441.294 289.01 438.719 289.293C436.916 289.499 435.062 289.344 433.208 289.344L433.234 289.319Z" fill="#160909"/>
<path d="M445.568 286.227C445.774 283.626 446.34 281.075 446.237 278.422C446.186 276.928 445.851 275.666 444.95 274.506C444.821 274.223 444.847 273.991 445.053 273.759C445.465 273.553 445.825 273.502 446.16 273.914C446.366 274.326 446.572 274.738 446.804 275.125C446.469 277.495 447.345 278.37 449.842 278.242C454.168 277.984 458.572 278.525 462.872 277.572C463.104 279.684 462.563 281.694 462.254 283.729C459.37 282.595 456.383 283.059 453.447 283.342C452.237 283.471 451.027 283.883 449.817 283.703C447.654 283.394 446.366 284.321 445.568 286.202V286.227Z" fill="#3E1311"/>
<path d="M462.229 283.754C463.259 285.017 462.666 286.974 464.083 288.082C464.083 288.288 464.083 288.494 464.083 288.7C463.671 288.494 463.259 288.288 462.847 288.082C461.997 286.743 462.28 285.223 462.229 283.78V283.754Z" fill="#3E1311"/>
<path d="M222.041 147.841C222.093 148.433 222.221 149.051 222.221 149.644C222.221 150.056 222.015 150.442 221.526 150.494C221.011 150.52 220.882 150.159 220.831 149.721C220.419 147.119 219.981 144.543 219.621 141.941C219.543 141.503 219.492 140.859 220.213 140.756C220.96 140.653 221.346 141.143 221.423 141.813C221.681 143.822 221.912 145.831 222.144 147.841C222.118 147.841 222.093 147.841 222.067 147.841H222.041Z" fill="#EDEBEA"/>
<path d="M220.935 136.248C220.677 136.918 221.398 138.309 220.137 138.103C219.081 137.923 219.338 136.429 219.132 135.501C218.978 134.857 219.416 133.827 220.188 133.981C221.45 134.213 220.729 135.476 220.961 136.248H220.935Z" fill="#E8E5E5"/>
<path d="M369.013 144.827C369.013 146.218 368.961 147.377 367.571 147.377C366.051 147.377 366.592 146.038 366.618 145.265C366.695 142.972 366.129 140.86 365.459 138.696C365.227 137.923 364.815 136.661 366 136.274C367.287 135.836 367.493 137.228 367.674 137.975C368.266 140.319 368.652 142.74 369.038 144.827H369.013Z" fill="#F2EFEC"/>
<path d="M365.924 131.689C365.769 132.59 365.331 133.415 364.585 133.105C363.246 132.539 362.885 131.199 362.834 129.834C362.808 129.061 362.834 128.159 363.838 128.417C365.486 128.855 365.254 130.632 365.949 131.689H365.924Z" fill="#F0EDEA"/>
<path d="M335.693 257.865C336.62 256.886 337.547 255.907 339.067 256.01C343.573 256.345 348.028 255.546 352.534 255.34C354.336 255.263 355.753 255.649 356.68 257.221C358.688 258.277 359.306 259.848 359.229 262.167C359.126 265.49 359.564 268.839 359.77 272.188C359.847 273.579 359.795 274.918 357.941 275.125C356.551 273.012 358.019 270.462 356.86 268.324C355.263 266.984 355.933 265.078 355.753 263.429C355.263 259.101 354.954 258.818 350.628 259.23C347.667 259.514 344.68 259.333 341.693 259.359C340.045 259.204 338.371 259.411 336.723 259.153C336.569 259.127 336.389 259.101 336.234 259.05C336.054 258.844 335.874 258.638 335.693 258.432C335.539 258.303 335.487 258.174 335.539 258.045C335.59 257.916 335.642 257.865 335.693 257.865Z" fill="#5C1511"/>
<path d="M444.951 273.888C444.951 274.094 444.951 274.3 444.951 274.532C442.273 274.661 439.723 273.605 436.891 274.378C435.114 274.867 433.466 275.331 431.973 276.387C431.973 275.975 431.973 275.563 431.973 275.15C432.591 274.738 433.209 274.326 433.827 273.914C434.367 273.424 435.011 272.961 435.063 272.214C435.397 267.654 436.299 263.12 435.861 258.535C435.809 258.02 435.346 257.685 435.063 257.247C435.063 257.041 435.063 256.835 435.063 256.628C437.2 256.577 439.234 257.221 441.371 257.35C444.333 257.504 446.496 256.706 448.015 254.181C448.272 255.469 447.32 256.294 446.779 257.272C446.779 257.453 446.779 257.659 446.779 257.839C446.444 258.174 446.032 258.432 445.569 258.56C444.178 258.715 443.483 259.411 443.225 260.879C442.633 264.125 442.865 267.448 442.35 270.694C442.067 272.497 443.637 272.806 444.693 273.527C444.796 273.656 444.873 273.759 444.976 273.888H444.951Z" fill="#3E1311"/>
<path d="M435.088 257.247C436.736 257.375 436.916 258.483 436.942 259.823C437.019 263.867 435.963 267.86 436.272 271.904C436.401 273.502 435.242 273.94 433.852 273.888C434.238 269.328 434.598 264.769 435.036 260.209C435.139 259.153 435.01 258.174 434.47 257.247C434.676 257.247 434.882 257.247 435.088 257.247V257.247Z" fill="#471312"/>
<path d="M413.458 168.553C413.561 167.11 412.66 164.276 415.698 164.25C418.685 164.25 418.119 167.187 418.093 169.042C418.016 177.182 414.977 183.88 407.613 187.976C397.802 193.437 384.798 187.435 382.3 176.461C381.966 174.993 382.094 173.73 383.614 173.138C385.287 172.52 386.111 173.679 386.652 174.967C387.425 176.77 388.171 178.548 389.356 180.119C394.712 187.1 404.342 187.126 409.698 180.171C412.248 176.873 413.458 173.164 413.406 168.527L413.458 168.553Z" fill="#BA5232"/>
<path d="M335.694 257.865C335.694 258.071 335.694 258.251 335.694 258.457C335.076 258.663 334.457 258.895 333.865 259.101C334.251 258.277 334.895 257.659 335.719 257.247C335.719 257.453 335.719 257.685 335.719 257.891L335.694 257.865Z" fill="#3E1311"/>
<path d="M341.228 258.457C344.988 258.509 348.748 258.663 352.481 258.019C354.593 257.659 356.318 257.813 356.292 260.75C356.292 263.275 356.653 265.799 356.859 268.324C356.807 268.633 356.73 268.916 356.73 269.225C356.55 275.176 356.55 275.125 350.447 275.202C346.378 275.253 342.284 274.893 338.216 275.562C337.031 275.769 335.769 275.485 335.795 273.965C335.898 268.993 335.177 263.97 336.259 259.024L336.336 258.973C337.907 258.329 339.684 259.23 341.254 258.432L341.228 258.457Z" fill="#D2201C"/>
<path d="M464.701 281.745C464.624 277.752 467.121 275.021 470.958 274.867C473.868 274.738 476.469 277.108 476.417 279.839C476.366 283.342 473.276 286.511 469.825 286.639C466.89 286.743 464.752 284.707 464.701 281.745Z" fill="#120808"/>
<path d="M454.297 257.839C456.435 257.968 458.598 258.251 460.709 258.251C463.67 258.251 464.366 259.385 464.16 262.09C463.928 265.129 464.057 268.221 463.593 271.261C463.387 272.574 463.104 273.321 461.61 273.373C457.516 273.476 453.448 273.708 449.353 273.888C447.757 273.965 446.598 273.45 446.933 271.647C447.577 268.195 447.345 264.717 447.551 261.24C447.705 258.715 448.658 257.221 451.542 257.813C452.418 257.994 453.37 257.839 454.297 257.839V257.839Z" fill="#D0201C"/>
<path d="M445.568 257.865C445.98 257.865 446.366 257.865 446.778 257.839C447.01 263.223 445.748 268.555 446.16 273.939C445.748 273.939 445.362 273.914 444.95 273.888C444.512 273.604 443.945 273.321 443.945 272.806C444.074 267.783 443.533 262.682 445.568 257.865Z" fill="#681712"/>
<path d="M462.873 274.532C462.667 274.867 462.461 275.485 462.255 275.485C457.285 275.64 452.315 276.361 447.371 275.124C452.495 274.146 457.697 274.558 462.847 274.506L462.873 274.532Z" fill="#681712"/>
<path d="M341.229 258.457C339.684 259.488 337.959 258.844 336.311 258.998C337.856 257.891 339.581 258.689 341.229 258.457Z" fill="#5C1612"/>
<path d="M445.567 257.865C445.207 262.527 444.872 267.19 444.46 271.853C444.383 272.651 444.692 273.244 444.975 273.888C442.117 273.785 440.675 273.012 441.653 269.586C442.451 266.804 442.065 263.764 442.348 260.827C442.58 258.38 443.275 257.53 445.593 257.865H445.567Z" fill="#3E1311"/>
</g>
<defs>
<clipPath id="clip0_5484_43241">
<rect width="595" height="297" fill="white"/>
</clipPath>
</defs>
</svg>
