<svg width="595" height="287" viewBox="0 0 595 287" fill="none" xmlns="http://www.w3.org/2000/svg">
<g clip-path="url(#clip0_5114_43867)">
<path d="M594.256 287H480.165C478.677 284.941 478.677 282.509 478.652 280.177C478.628 273.975 478.702 267.772 478.95 261.545C479.322 252.093 478.305 242.64 476.768 233.262C476.347 230.632 474.537 229.789 472.182 229.441C464.075 228.3 455.943 227.258 447.812 226.166C446.25 225.968 444.663 225.819 443.175 225.224C442.556 224.951 442.109 224.454 441.738 223.909C440.2 221.304 437.969 219.492 435.267 218.178C433.656 217.384 431.697 216.962 430.804 215.076C430.581 214.406 430.507 213.712 430.507 213.042C430.457 209.742 431.399 208.675 434.722 208.849C439.556 209.122 444.365 209.693 449.175 210.238C455.571 210.958 461.943 211.404 468.364 211.851C473.049 212.174 474.115 211.206 474.537 206.542C474.661 197.784 474.587 189.001 474.562 180.243C474.562 178.085 473.892 176.001 473.942 173.793C474.041 170.22 474.487 169.6 478.057 168.98C478.504 168.806 478.975 168.632 479.446 168.533C481.057 168.235 482.297 167.293 483.462 166.201C489.015 160.644 487.305 150.248 477.983 146.775C476.892 146.378 475.603 146.403 474.859 145.237C473.644 142.731 474.066 140.051 473.967 137.422C473.843 133.998 474.239 130.574 473.719 127.15C473.62 126.828 473.57 126.48 473.52 126.133C473.025 117.896 473.322 109.684 473.273 101.447C473.273 100.653 473.397 99.8843 473.074 99.14C472.901 98.8919 472.702 98.619 472.529 98.3709C471.909 97.4778 471.24 96.6342 470.942 95.5674C470.223 94.054 468.76 94.0292 467.62 94.4758C464.546 95.6418 461.348 95.1456 458.224 95.493C453.687 95.493 449.15 95.6666 444.638 95.3937C439.68 95.8651 434.746 95.1456 429.838 94.7239C421.532 94.0292 413.227 94.7487 404.947 93.7563C395.997 92.6895 386.948 93.4586 377.973 92.615C371.23 91.9948 370.362 92.5654 369.792 99.3137C369.346 104.425 368.379 109.486 368.205 114.646C368.082 118.194 367.338 121.692 366.941 125.215C365.677 135.908 364.412 146.601 363.247 157.294C363.173 158.088 362.95 158.857 362.751 159.602C362.305 160.619 362.255 161.735 362.355 162.777C362.677 166.251 361.71 169.55 361.14 172.9C360.47 179.549 360.495 186.297 358.537 192.772C357.024 194.658 357.049 196.543 358.487 198.454C359.652 200.761 361.611 201.853 364.115 202.175C370.214 202.994 376.412 203.068 382.461 204.334C382.634 204.383 382.907 204.433 382.981 204.582C384.27 207.733 386.824 206.467 388.857 206.021C390.568 205.649 392.253 205.276 393.989 205.152C397.063 205.4 400.335 204.284 403.137 206.467C404.203 208.527 404.203 210.536 402.988 212.546C401.178 214.009 398.749 213.96 396.765 215.027C395.476 215.721 394.162 216.366 393.047 217.384C392.65 217.706 392.204 217.929 391.708 218.053C383.7 217.781 375.817 216.416 367.933 215.076C363.52 214.332 361.809 215.2 360.545 219.567C358.983 225.025 358.685 230.657 358.239 236.264C357.347 247.304 357.52 258.369 357.619 269.41C357.669 273.95 358.413 278.465 358.19 283.006C358.115 284.37 358.239 285.809 357.198 286.926H276.377C275.187 285.611 275.435 283.948 275.46 282.385C275.609 271.593 275.286 260.826 273.7 250.133C273.154 246.411 272.237 242.764 271.543 239.067C271.047 236.438 269.659 234.899 267.204 233.957C259.271 230.88 251.313 227.878 243.404 224.727C235.967 221.775 228.455 218.947 220.993 216.019C219.976 215.622 218.96 215.225 218.34 214.233C217.646 211.628 217.67 208.998 218.29 206.368C219.927 204.681 222.331 205.103 224.265 204.284C225.554 204.011 226.967 204.334 228.083 203.366C230.413 202.622 232.62 201.605 234.851 200.687C235.694 200.563 236.388 200.116 237.058 199.645C245.264 195.427 251.412 188.828 257.362 182.005C258.081 181.583 258.378 180.913 258.478 180.119C259.94 176.795 261.8 173.694 263.287 170.394C263.709 169.525 264.254 168.682 264.204 167.64C264.378 165.705 265.394 163.993 265.717 162.083C266.411 160.668 266.783 159.18 266.51 157.592C266.584 153.027 267.279 148.462 266.584 143.847C266.237 141.639 266.064 139.406 265.518 137.223C265.32 134.618 264.502 132.162 263.461 129.78C263.312 129.507 263.188 129.21 263.114 128.912C262.94 127.994 262.519 127.076 263.337 126.232C263.907 125.811 264.601 125.736 265.295 125.637C267.675 125.372 268.89 124.033 268.94 121.618C268.741 120.65 269.609 119.558 268.568 118.69C267.279 116.532 266.956 114.051 266.138 111.743C263.907 105.417 259.94 100.381 254.759 96.2125C250.445 92.7391 245.908 89.6875 240.9 87.2561C237.727 85.7179 234.405 84.9984 231.033 84.2541C230.785 84.1797 230.537 84.0556 230.314 83.9068C229.471 83.0881 228.43 83.4106 227.438 83.4602C227.166 83.4602 226.893 83.3858 226.645 83.2865C222.629 80.2349 217.943 78.4982 213.357 76.5879C212.464 75.397 211.373 76.6623 210.407 76.3894C208.423 76.0421 206.266 76.7864 204.457 75.3722C204.531 74.7768 204.432 74.5535 203.688 74.7768C202.324 75.1737 200.812 74.8512 199.498 75.5955C196.622 76.5879 193.647 76.2654 190.722 76.3894C189.358 75.4963 187.945 74.0573 186.904 76.7616C185.937 77.9028 184.499 78.0517 183.185 78.399C172.128 81.3514 162.212 86.4622 153.857 94.3021C148.725 99.1152 144.609 104.797 143.048 111.917C142.899 112.14 142.7 112.289 142.477 112.364C141.833 114.324 142.651 116.383 142.031 118.318C141.957 118.566 141.982 118.74 142.031 118.715C142.105 118.665 142.18 118.591 142.229 118.516C142.502 118.516 142.75 118.591 142.948 118.789C144.039 122.387 145.725 125.637 148.403 128.366C150.138 130.127 151.799 131.666 154.526 130.624C155.171 130.376 155.89 130.549 156.46 131.07C157.154 133.08 156.014 134.444 154.452 135.065C150.758 136.553 148.105 139.233 145.576 142.086C144.857 142.607 144.634 143.376 144.634 144.219C143.023 149.355 142.849 154.367 145.948 159.081C146.841 161.661 149.27 162.604 151.179 164.092C152.617 165.233 154.576 165.308 156.014 166.474C156.857 167.144 157.427 167.987 157.625 169.079C157.724 169.65 157.724 170.22 157.724 170.791C157.575 172.478 157.799 173.966 159.559 174.76C160.798 175.753 161.319 177.192 162.038 178.507C162.509 179.896 163.253 181.087 164.368 182.054C166.129 183.841 167.17 186.198 169.054 187.91C169.823 188.803 170.69 189.621 171.558 190.415C172.971 192.102 174.83 193.244 176.591 194.534C177.458 195.179 178.326 195.849 178.648 196.965C178.797 198.553 180.037 198.007 180.929 198.156C184.673 199.595 188.342 201.183 191.788 203.267C192.457 204.16 193.846 204.21 194.317 205.376C194.912 208.527 195.11 211.653 194.168 214.754C193.647 215.572 192.78 215.796 191.937 216.094C176.442 221.576 161.145 227.58 145.651 233.039C142.254 234.229 140.643 236.239 139.973 239.787C137.42 253.184 136.726 266.681 136.998 280.252C137.048 282.435 138.362 284.742 136.676 286.851H0.0244141C0.0244141 191.408 0.0244141 95.9644 0.0244141 0.496162C1.06566 0.099205 2.18129 0.372113 3.24733 0.372113C199.126 0.372113 395.005 0.372113 590.884 0.372113C594.975 0.372113 594.553 -0.0744638 594.553 3.99435C594.553 97.2545 594.553 190.515 594.553 283.775C594.553 284.842 594.826 285.958 594.281 287H594.256Z" fill="#EAB639"/>
<path d="M136.702 287C135.809 279.904 135.958 272.784 136.107 265.664C136.33 256.087 137.693 246.61 139.602 237.231C140.024 235.197 141.015 233.981 143.023 233.237C158.791 227.456 174.534 221.576 190.301 215.746C191.417 215.324 192.557 214.952 193.772 215.051C195.235 217.334 195.136 219.939 195.26 222.47C195.383 225.025 195.383 227.605 195.805 230.136C195.78 233.138 197.763 233.212 199.945 232.989C200.788 232.766 201.606 232.766 202.424 232.989C205.647 234.502 208.87 235.768 212.118 233.063C212.986 232.592 213.952 232.344 214.894 232.121C216.729 231.649 217.795 230.582 217.795 228.598C217.646 225.571 217.622 222.544 217.795 219.517C217.969 217.979 217.547 216.366 218.341 214.903C218.464 214.779 218.613 214.679 218.737 214.555C228.679 217.805 238.273 221.973 248.041 225.645C254.859 228.225 261.627 230.955 268.444 233.535C270.601 234.354 271.667 235.693 272.238 237.976C276.254 254.102 276.651 270.526 276.353 287H254.363C253.297 285.859 253.545 284.445 253.495 283.08C253.371 276.778 253.743 270.501 253.297 264.2C253.123 263.753 252.9 263.331 252.727 262.885C252.479 261.992 252.627 261.049 252.553 260.131C252.603 261.099 252.503 262.066 252.677 263.034C253.024 270.204 252.776 277.374 252.826 284.544C252.826 285.462 252.627 286.305 251.983 287H160.477C159.609 285.983 159.907 284.742 159.907 283.576C159.882 276.555 159.907 269.534 159.907 262.513C159.907 269.633 159.907 276.753 159.907 283.874C159.907 284.941 160.13 286.082 159.312 287H136.726H136.702Z" fill="#F66C3D"/>
<path d="M442.754 224.578C453.142 225.943 463.53 227.332 473.918 228.697C476.273 228.995 477.413 230.434 477.711 232.592C479.198 243.062 480.363 253.556 479.793 264.175C479.372 271.792 479.471 279.408 480.165 287H454.01C453.093 282.658 453.836 278.292 453.936 273.95C453.96 272.685 454.208 271.419 454.258 270.179C454.258 269.832 454.332 269.162 454.134 269.187C453.489 269.311 453.96 269.956 453.836 270.353C453.638 274.893 454.035 279.458 453.341 283.998C453.167 285.09 453.068 286.156 452.25 287H421.359C420.368 285.958 420.417 284.643 420.417 283.378C420.492 274.769 420.268 266.185 418.335 257.749C417.913 255.864 418.657 254.747 420.145 253.804C421.954 252.638 423.913 251.572 424.83 249.413C426.59 247.106 428.276 244.774 429.788 242.293C431.871 239.936 432.962 236.76 435.788 235.023C436.805 234.775 437.722 234.105 438.837 234.13C439.259 234.155 439.631 234.304 439.953 234.602C440.052 234.775 440.151 234.949 440.176 235.123C440.226 235.396 440.3 235.668 440.498 235.197C440.821 234.403 441.391 233.709 441.565 232.84C441.664 232.592 441.788 232.344 441.912 232.121C442.407 231.401 442.507 230.781 441.49 230.434C440.622 229.962 440.374 229.193 440.424 228.275C440.796 226.762 441.391 225.397 442.854 224.603L442.754 224.578Z" fill="#784922"/>
<path d="M357.148 287C357.074 274.471 356.132 261.942 356.603 249.388C356.95 240.134 357.148 230.831 358.983 221.701C359.33 219.964 359.851 218.252 360.57 216.639C361.958 213.588 363.867 212.992 367.065 213.96C371.899 215.399 376.982 215.473 381.94 216.292C385.337 216.838 388.783 217.136 392.204 217.557C394.41 220.162 394.881 223.537 396.319 226.489C396.741 227.357 397.063 228.275 397.435 229.168C397.807 230.558 398.55 231.823 398.972 233.212C400.261 236.413 401.55 239.588 402.815 242.789C403.137 243.583 403.434 244.377 403.211 245.27C402.939 245.915 402.443 246.386 402.021 246.932C400.782 248.57 402.839 249.066 403.137 250.157C402.641 252.738 404.525 254.375 405.591 256.335C405.591 257.228 405.17 257.65 404.277 257.625C403.311 257.377 402.492 256.856 401.773 256.211C401.501 255.938 401.848 256.335 401.6 256.037C401.699 256.137 401.773 256.211 401.897 256.31C402.294 256.881 401.773 257.526 402.344 258.196C404.228 260.379 404.104 261.421 401.897 263.604C402.988 263.207 404.029 262.339 404.649 263.877C405.219 266.507 404.104 268.938 403.633 271.395C402.889 275.191 402.616 278.986 402.691 282.832C402.691 284.296 402.839 285.809 401.724 287.025H368.453C366.272 284.122 366.966 280.599 366.445 277.349C366.073 275.017 366.346 272.61 365.776 270.278C365.776 274 366.222 277.672 366.743 281.343C367.015 283.254 367.511 285.288 366.073 287.025H357.148V287Z" fill="#784922"/>
<path d="M401.724 287C401.079 278.937 402.517 271.097 404.203 263.257C403.955 261.967 404.525 260.801 404.823 259.585C405.244 258.419 405.963 257.377 406.013 256.087C406.93 254.301 406.608 252.688 405.517 251.075C404.847 250.108 404.079 249.14 404.327 247.825C404.798 246.535 405.666 245.468 406.161 244.203C407.103 243.136 408.07 242.045 408.541 240.655C409.236 239.663 410.277 238.968 410.822 237.852C411.368 237.008 411.715 235.991 412.682 235.47C413.723 235.048 414.739 235.023 415.781 235.47C416.995 236.438 417.268 238.149 418.557 239.043C419.152 239.762 419.896 240.358 420.367 241.176C420.689 242.665 421.904 243.508 422.797 244.6C423.268 245.344 423.516 246.213 424.16 246.858C424.631 247.577 425.301 248.197 425.449 249.115C426.168 251.745 423.987 252.738 422.4 253.482C419.475 254.871 418.78 256.583 419.574 259.709C421.83 268.666 421.532 277.845 421.383 287H401.773H401.724Z" fill="#ED6F06"/>
<path d="M594.256 287C594.256 192.847 594.256 98.7183 594.256 4.56501C594.256 0.0992395 594.802 0.645055 590.289 0.645055C393.543 0.645055 196.796 0.645055 0.0493693 0.645055C0.148536 0.471387 -0.272922 0.0248098 0.322078 0.0496196C1.11541 0.0744295 1.90874 0.0496196 2.70208 0.0496196C199.126 0.0496196 395.551 0.0744295 591.975 0C594.281 0 594.925 0.297718 594.925 2.82832C594.851 96.6591 594.851 190.49 594.826 284.321C594.826 285.189 595.52 286.33 594.281 287H594.256Z" fill="white"/>
<path d="M366.074 287C366.346 281.046 364.462 275.24 364.834 269.311C364.884 268.542 364.016 267.276 365.404 267.103C366.569 266.954 366.545 268.169 366.644 269.063C367.239 275.042 367.834 281.021 368.454 287H366.074V287Z" fill="#79706D"/>
<path d="M455.15 269.162C454.555 275.091 455.026 281.095 454.01 287H452.225C452.869 281.07 452.77 275.141 452.894 269.187C453.638 268.343 454.357 266.78 455.15 269.187V269.162Z" fill="#79706C"/>
<path d="M159.286 287V257.724H160.476V287H159.286Z" fill="#F09B49"/>
<path d="M253.172 262.637L253.767 263.257C254.437 270.005 253.891 276.778 254.04 283.527C254.04 284.693 254.337 285.884 253.767 287H252.577C251.908 281.988 252.428 276.952 252.304 271.94C252.23 269.261 252.304 266.606 252.304 263.927C252.304 263.282 252.602 262.86 253.197 262.637H253.172Z" fill="#F28F58"/>
<path d="M252.602 263.232V287H251.982V262.066C253.098 262.017 252.925 262.587 252.602 263.257V263.232Z" fill="#E77837"/>
<path d="M253.768 287C253.768 279.086 253.768 271.171 253.768 263.257C254.71 264.15 254.338 265.291 254.338 266.333C254.363 273.23 254.338 280.128 254.338 287H253.743H253.768Z" fill="#E67636"/>
<path d="M415.954 236.165C414.814 235.768 413.649 235.842 412.484 235.966C411.938 236.363 411.343 236.611 410.649 236.537C407.674 235.817 405.244 234.155 403.335 231.798C401.774 229.863 400.98 227.705 401.997 225.224C403.112 223.859 404.773 223.834 406.286 223.512C413.277 221.973 419.227 218.798 423.442 212.868C423.987 212.099 424.979 211.355 424.359 210.288C423.863 209.42 422.822 209.569 421.929 209.494C419.599 209.32 417.194 209.444 415.112 208.006C414.517 206.914 414.963 205.897 415.335 204.855C418.26 196.419 417.12 188.356 412.558 180.913C404.278 167.466 391.733 161.14 376.238 160.222C372.395 159.999 368.528 160.073 364.71 160.966C363.669 161.214 362.305 161.661 361.884 159.924C363.247 148.809 364.289 137.645 365.85 126.53C367.04 118.07 367.586 109.511 368.478 101.001C368.726 98.5694 369.173 96.1381 369.644 93.7067C369.966 92.0941 371.156 91.5234 372.718 91.5234C375.866 91.5234 379.015 91.846 382.163 91.9948C389.65 92.3422 397.162 92.2677 404.649 92.6895C417.938 93.4586 431.226 93.9548 444.514 94.575C445.605 95.7411 445.258 97.1305 445.134 98.5198C444.614 104.425 443.077 110.23 443.622 116.234C444.217 122.759 446.646 124.917 453.092 125.066C459.117 125.215 465.141 125.885 471.19 125.662C472.281 125.612 473.372 125.786 474.264 126.555V126.605C474.835 132.112 474.388 137.645 474.463 143.153C474.463 144.12 474.091 145.162 475.405 145.609C480.289 145.758 485.247 149.256 486.809 154.392C488.222 159.031 487.677 163.522 483.71 166.995C482.346 167.491 481.132 168.211 480.14 169.277L478.975 169.426C474.438 168.98 473.669 169.922 474.339 174.363C474.686 176.671 474.76 179.052 474.835 181.409C475.033 189.87 474.24 198.33 475.355 206.765C475.554 211.653 473.545 213.315 468.587 212.843C460.679 212.099 452.745 211.603 444.812 210.933C441.391 210.635 437.969 210.263 434.573 209.817C432.143 209.494 431.053 210.338 431.424 212.868C431.573 213.836 431.499 214.828 431.524 215.821C432.887 220.956 433.185 226.042 431.102 231.079C427.73 234.13 423.813 236.041 419.326 236.735C418.161 236.735 416.971 236.884 415.93 236.165H415.954Z" fill="#FCDFCF"/>
<path d="M218.638 229.292C219.084 231.525 217.398 232.195 215.861 232.766C214.671 233.212 213.407 233.361 212.167 233.634C208.994 234.75 205.845 234.403 202.697 233.634L199.746 233.411C197.862 233.262 195.929 233.138 194.986 231.079C193.92 225.794 194.416 220.386 193.821 215.052C193.821 211.702 193.796 208.353 193.772 205.028C193.226 204.135 191.962 204.681 191.392 203.837C187.871 202.225 184.326 200.637 180.806 199.024C180.062 198.355 178.649 198.553 178.376 197.263C176.269 194.782 172.773 193.889 171.137 190.887C170.691 189.721 169.872 188.927 168.757 188.431C166.501 186.992 165.435 184.635 164.022 182.551C163.327 181.285 162.633 179.995 161.617 178.928C160.303 178.085 160.377 176.323 159.262 175.331C158.419 174.413 157.353 173.594 157.526 172.106C157.501 171.163 157.427 170.22 156.931 169.377L155.741 166.97C154.923 165.779 156.014 165.432 156.609 164.911C156.956 164.836 156.659 165.258 156.758 164.886C156.807 164.688 156.659 164.663 156.609 164.886C156.311 165.01 156.014 164.985 155.716 164.886C155.146 164.613 154.725 164.142 154.229 163.745C153.708 163.174 152.94 162.951 152.394 162.479C152.295 162.579 152.469 162.628 152.444 162.703C152.494 163.1 152.37 163.422 152.097 163.695C151.75 163.943 151.353 164.043 150.932 164.018C150.064 163.968 149.37 163.497 149.147 162.728C148.576 160.867 147.089 160.346 145.477 159.924C142.106 155.731 141.957 151.042 143.246 146.105C143.445 145.361 143.643 144.616 143.866 143.847C144.263 143.252 144.436 142.508 145.006 142.036C147.386 138.786 150.014 135.908 154.105 134.717C155.568 134.296 155.94 132.832 156.311 131.492C158.716 129.731 161.592 130.103 164.27 129.929C173.74 129.284 183.186 128.391 192.681 127.969C193.474 127.944 194.243 127.671 195.036 127.622C197.49 127.473 198.457 126.183 199.127 123.801C202.87 110.056 212.117 101.05 224.563 94.9224C225.009 94.6991 225.505 94.5998 225.976 94.5006C227.488 94.1781 228.926 94.5502 230.315 95.0464C241.991 99.2889 251.288 106.633 258.453 116.73C258.974 117.45 259.395 118.244 259.618 119.112C259.717 120.65 259.47 122.337 261.354 123.082C261.527 123.28 261.651 123.503 261.75 123.751C261.775 124.62 262.692 124.942 262.965 125.662C263.015 125.959 262.965 126.232 262.841 126.48C261.949 127.498 260.833 127.423 259.693 127.076C259.544 127.026 259.47 126.803 259.395 126.753C259.023 126.629 259.048 127.175 259.271 126.853C259.494 126.53 259.718 127.274 259.47 126.977C260.61 128.341 263.114 126.704 263.833 128.961C263.907 129.11 263.932 129.259 263.907 129.433C264.106 129.78 264.403 130.276 264.254 130.524C262.692 133.303 264.651 134.916 266.213 136.677C268.419 143.698 267.874 150.869 267.378 158.039C266.56 159.329 266.981 160.941 266.287 162.256C266.734 164.39 264.874 166.027 264.973 168.111C264.279 168.781 264.304 169.749 263.882 170.543C262.816 174.14 260.56 177.192 259.073 180.591C258.627 181.161 258.527 181.955 257.833 182.377C252.082 189.671 245.735 196.27 237.157 200.29C236.537 200.637 235.818 200.86 235.298 201.381C232.943 202.175 230.934 203.862 228.306 203.887C227.265 204.855 225.629 203.887 224.637 205.004C222.778 205.946 220.77 206.244 218.712 206.244C217.993 206.864 217.101 207.088 216.208 207.385C211.275 207.807 206.391 206.914 201.457 206.815C198.259 206.765 197.961 206.79 198.705 210.015C200.639 218.649 206.738 223.487 214.374 226.836C215.861 227.506 217.72 227.531 218.638 229.243V229.292Z" fill="#FBD9D2"/>
<path d="M226.447 94.9967C215.514 99.8347 207.085 107.327 201.928 118.244C201.209 119.732 200.688 121.345 200.242 122.933C198.705 128.49 198.656 128.515 192.582 128.937C180.483 129.755 168.41 130.624 156.311 131.467C156.212 131.467 156.113 131.467 156.014 131.418C154.006 130.946 151.923 133.204 149.915 131.169C146.469 127.696 142.874 124.322 142.527 118.988C141.734 116.705 141.709 114.423 142.527 112.14C142.552 107.774 144.858 104.276 147.163 100.926C152.345 93.4337 159.435 88.0996 167.393 83.7827C173.467 80.483 180.037 78.6223 186.557 76.5879C187.623 75.6947 188.739 75.0993 190.102 75.9924C193.251 75.2233 196.548 75.8684 199.672 74.9008C201.209 74.479 202.721 74.3798 204.234 74.9504C206.391 75.9428 208.771 75.1241 210.952 75.8684C211.696 75.8684 212.464 75.5458 213.134 76.1413C218.117 77.7539 223.026 79.5402 227.017 83.1128C227.364 83.7331 228.133 83.3113 228.554 83.7579C230.463 85.5194 231.703 87.7275 232.719 90.0596C233.785 92.491 233.215 93.5082 230.662 94.4509C229.248 94.9719 227.736 94.5254 226.348 94.9967H226.447Z" fill="#6B493D"/>
<path d="M357.769 193.144C359.132 186.471 359.479 179.648 360.248 172.9C360.545 170.766 362.132 169.997 363.892 169.501C374.801 166.3 385.015 168.26 394.634 173.942C399.568 176.844 403.633 180.74 406.187 185.974C409.658 193.12 409.732 200.215 405.344 207.088C404.501 207.534 403.683 207.46 402.939 206.864C399.84 205.897 396.617 206.368 393.469 206.219C391.932 205.673 390.37 205.996 388.808 206.046C386.725 206.12 384.668 205.971 382.734 205.078C376.363 204.458 370.016 203.862 363.669 203.192C360.744 202.895 358.339 201.803 357.769 198.479C356.975 196.692 356.852 194.906 357.794 193.144H357.769Z" fill="#FCDFD0"/>
<path d="M474.264 126.555C466.281 127.051 458.323 126.108 450.34 125.984C446.77 125.935 444.465 123.702 443.374 120.501C441.961 116.333 442.407 112.016 442.952 107.724C443.498 103.358 443.969 98.9664 444.49 94.5751C449.225 94.5751 453.96 94.5751 458.695 94.5751C461.15 95.5923 463.678 95.1705 466.182 94.9472C468.141 94.7736 470.075 94.4014 471.81 95.7411L473 98.1229C472.851 98.2469 472.752 98.371 472.653 98.5447C472.752 98.3958 472.876 98.2469 473 98.1229C474.76 98.5198 474.165 99.9588 474.165 101.026C474.24 107.799 474.24 114.597 474.19 121.37C474.19 123.106 474.884 124.843 474.215 126.58L474.264 126.555Z" fill="#E2C8B6"/>
<path d="M405.245 206.691C405.27 203.738 407.526 201.53 407.724 198.553C408.418 188.48 403.782 181.186 395.874 175.827C385.982 169.129 375.173 166.995 363.496 170.518C362.083 170.94 361.017 171.684 360.248 172.9C361.587 168.657 360.868 164.167 361.909 159.899C362.554 160.594 363.297 160.42 364.116 160.247C377.9 157.418 390.692 159.899 402.072 168.111C412.038 175.281 418.062 184.808 417.814 197.61C417.74 201.233 416.153 204.458 415.434 207.906C411.84 209.246 408.443 208.924 405.27 206.691H405.245Z" fill="#E2C8B6"/>
<path d="M226.447 94.9968C226.695 94.8479 226.918 94.6246 227.191 94.5502C233.835 92.8631 234.108 92.0444 230.017 86.487C229.373 85.6187 228.827 84.7007 228.207 83.8076C229.026 83.0385 229.869 83.2369 230.736 83.7579C236.661 83.7579 241.62 86.5615 246.529 89.4146C253.743 93.6323 260.04 98.8423 264.478 106.087C266.932 110.081 267.75 114.646 269.188 118.988C269.907 119.658 269.238 120.675 269.783 121.394C269.915 124.835 267.783 126.58 263.387 126.629C262.99 126.629 262.916 126.257 262.717 126.034L262.519 125.414C261.85 125.017 261.825 124.248 261.527 123.652C260.362 122.461 259.42 121.146 259.172 119.459C251.933 107.451 241.397 99.661 228.257 95.1705C227.712 94.9968 227.092 95.0464 226.497 94.9968H226.447Z" fill="#905B4B"/>
<path d="M405.245 206.691C408.592 207.46 412.013 207.683 415.409 207.906C418.037 208.154 420.69 208.303 423.318 208.675C426.417 209.097 426.64 209.841 424.904 212.397C420.194 219.319 413.476 222.966 405.468 224.578C404.402 224.802 403.361 224.975 402.295 225.174C400.609 221.006 401.03 216.838 402.344 212.67C403.336 210.784 402.741 208.775 402.914 206.815C403.683 206.765 404.476 206.715 405.245 206.666V206.691Z" fill="#BC9375"/>
<path d="M402.344 212.695L402.294 225.199C401.724 231.426 405.988 233.857 410.724 235.917C411.319 236.76 410.872 237.504 410.476 238.249C410.079 238.795 409.534 239.216 409.211 239.812C407.997 241.424 407.005 243.235 405.542 244.674C403.088 245.245 403.484 242.764 402.443 241.821C401.526 238.646 399.914 235.718 398.873 232.592C398.377 231.401 397.708 230.285 397.435 228.995C395.849 224.975 393.741 221.155 392.898 216.863C395.328 213.836 398.848 213.265 402.369 212.695H402.344Z" fill="#794A23"/>
<path d="M430.284 231.302C431.747 229.342 431.499 227.084 431.499 224.851C431.499 221.849 431.524 218.823 431.548 215.821C435.912 217.26 440.027 218.996 442.159 223.512C441.093 226.315 439.804 228.945 436.879 230.334C435.54 230.061 435.614 229.019 435.614 228.027C435.614 226.538 435.614 225.075 435.614 223.785C435.441 226.514 436.259 229.565 434.3 232.195C433.234 233.609 432.094 234.825 430.135 233.584C429.59 232.79 429.714 232.046 430.309 231.327L430.284 231.302Z" fill="#7A4A22"/>
<path d="M475.38 206.79C474.537 204.88 474.215 202.895 474.24 200.811C474.24 193.715 474.265 186.619 474.24 179.524C474.24 177.415 474.513 175.331 473.273 173.247C472.356 171.709 473.075 169.898 474.513 168.632C475.777 170.295 477.983 166.399 479 169.401C474.537 170.989 474.389 171.014 474.884 175.852C475.901 186.148 475.182 196.469 475.38 206.765V206.79Z" fill="#FDDDC5"/>
<path d="M247.024 84.7255C245.164 84.7751 243.33 86.1396 242.313 83.4354C241.842 82.1949 240.627 82.7159 239.71 82.6166C238.942 82.5174 238.024 82.7407 237.826 81.6739C237.752 81.3513 237.9 80.8303 238.123 80.6319C238.743 80.1109 239.388 80.3093 239.983 80.7807C241.669 82.046 243.082 81.5002 244.371 80.1357C245.065 79.4162 245.982 78.4982 246.825 79.5899C247.718 80.7311 246.503 81.004 245.685 81.6243C243.255 83.485 246.379 83.5098 246.999 84.7503L247.024 84.7255Z" fill="#F7AE7A"/>
<path d="M471.86 95.6915C468.513 95.6915 465.191 95.6915 461.844 95.6667C460.679 95.6667 459.439 95.8404 458.745 94.5503C461.547 94.3022 464.323 94.848 467.125 93.5331C468.662 92.8136 471.463 92.4415 471.86 95.7163V95.6915Z" fill="#F7B17E"/>
<path d="M382.709 205.053C386.328 205.004 389.948 204.879 393.443 206.17C389.973 206.269 386.7 208.154 383.105 207.385C382.312 207.212 381.32 207.757 380.676 206.815C381.296 205.797 382.386 206.542 383.056 206.12C383.75 205.673 382.758 205.45 382.709 205.053V205.053Z" fill="#F7B27F"/>
<path d="M437.3 229.962C438.961 227.853 440.176 225.372 442.159 223.512C442.63 223.735 442.704 224.157 442.754 224.603C442.605 226.018 441.341 226.886 440.919 228.151C440.151 230.235 439.011 232.096 437.647 233.833C437.226 234.254 436.73 234.552 436.11 234.627C435.465 234.627 434.945 234.403 434.697 233.758C434.647 231.873 435.887 230.88 437.275 229.987L437.3 229.962Z" fill="#7D706B"/>
<path d="M392.873 216.863C395.278 220.535 396.22 224.851 398.08 228.771C397.782 229.144 397.46 229.466 396.915 229.441C394.956 225.621 393.245 221.725 392.204 217.533L392.873 216.863Z" fill="#7C716D"/>
<path d="M475.405 145.584C475.306 146.08 475.132 146.75 474.537 146.378C473.843 145.931 472.777 145.262 473.149 144.319C475.405 138.612 473.62 132.658 474.215 126.877C474.215 126.778 474.215 126.679 474.215 126.58C475.231 127.547 474.76 128.813 474.81 129.954C474.983 135.164 474.438 140.399 475.405 145.584V145.584Z" fill="#FDDDC5"/>
<path d="M266.213 136.702C263.337 136.032 261.998 133.651 263.312 131.343C263.684 130.723 263.833 130.103 263.907 129.433C265.246 131.666 266.362 133.973 266.213 136.677V136.702Z" fill="#FBD9CE"/>
<path d="M145.478 159.924C147.957 158.535 149.072 159.924 149.692 162.083C149.89 162.802 150.114 163.373 150.932 163.422C151.254 163.72 151.304 164.067 151.155 164.464L150.857 164.712C148.601 163.621 146.296 162.604 145.478 159.924V159.924Z" fill="#FBD9CF"/>
<path d="M262.668 126.034C262.891 126.232 263.114 126.431 263.337 126.629C263.511 127.398 263.684 128.192 263.833 128.961C262.941 129.16 262.569 127.622 261.503 128.341C259.247 129.83 259.073 128.316 259.073 126.605C260.263 126.431 261.577 127.051 262.643 126.034H262.668Z" fill="#FBD9CE"/>
<path d="M156.906 164.613L155.741 166.97C154.105 166.275 152.072 166.375 150.882 164.712L151.006 164.588C152.592 163.621 154.154 163.621 155.716 164.613H156.906V164.613Z" fill="#FBD9CF"/>
<path d="M190.177 76.0173C188.987 76.1414 187.896 76.9105 186.632 76.6128C186.657 75.5459 186.458 74.3551 188.119 74.3054C189.359 74.2806 190.301 74.4543 190.177 75.9925V76.0173Z" fill="#F6B07D"/>
<path d="M216.283 206.74C217.002 206.07 217.869 206.219 218.712 206.294C218.712 209.048 218.712 211.801 218.712 214.555V214.63C217.15 214.431 217.373 213.166 217.274 212.149C217.15 210.983 217.274 209.792 217.175 208.626C216.977 207.956 216.506 207.41 216.258 206.765L216.283 206.74Z" fill="#EAA78E"/>
<path d="M357.769 193.144C357.769 194.931 357.769 196.717 357.744 198.479C356.157 196.692 355.612 194.906 357.769 193.144Z" fill="#F8B382"/>
<path d="M158.046 171.808C157.798 173.197 159.286 174.016 159.236 175.331C156.732 174.884 156.856 172.999 156.931 171.138C157.625 170.84 157.774 171.411 158.046 171.808V171.808Z" fill="#F7B180"/>
<path d="M161.592 178.904C163.501 179.375 164.22 180.64 163.997 182.526C162.534 181.757 161.666 180.591 161.592 178.904Z" fill="#FAD2C0"/>
<path d="M142.081 118.814C140.816 116.581 141.61 114.2 141.635 111.867C141.709 111.867 141.833 111.867 141.858 111.867C141.957 112.041 142.006 112.215 142.081 112.413C142.502 114.547 142.502 116.681 142.081 118.814V118.814Z" fill="#F6B78F"/>
<path d="M178.351 197.238C179.12 197.883 180.508 197.685 180.781 199C180.111 199 179.417 199.074 178.748 199.049C176.343 198.975 177.756 198.007 178.351 197.238V197.238Z" fill="#F7B386"/>
<path d="M224.662 205.028C225.331 202.895 227.092 204.185 228.331 203.912C227.538 205.723 225.926 204.78 224.662 205.028Z" fill="#FAD1BE"/>
<path d="M168.707 188.406C170.666 188.108 171.434 188.952 171.087 190.862C169.922 190.391 169.128 189.597 168.707 188.406Z" fill="#FAD5C9"/>
<path d="M142.081 118.814C142.081 116.681 142.081 114.547 142.081 112.413C142.255 112.339 142.428 112.264 142.577 112.19C142.577 114.473 142.577 116.755 142.577 119.038C142.403 118.963 142.255 118.889 142.081 118.814V118.814Z" fill="#8D4B1F"/>
<path d="M266.288 162.306C266.387 160.842 265.643 159.13 267.378 158.088C267.478 159.602 267.552 161.14 266.288 162.306Z" fill="#FACCB6"/>
<path d="M480.165 169.277C480.785 167.64 481.95 166.821 483.735 166.995C482.719 168.037 481.578 168.856 480.165 169.277Z" fill="#FDDDC5"/>
<path d="M204.308 74.9753L199.746 74.9257C201.308 73.7348 203.118 74.5535 204.804 74.3798C204.853 74.3798 204.903 74.5039 204.952 74.5535L204.333 74.9753H204.308Z" fill="#F7B68C"/>
<path d="M191.367 203.813C192.185 204.185 193.747 203.019 193.747 205.004C192.805 204.904 191.59 205.351 191.367 203.813Z" fill="#F8B791"/>
<path d="M230.736 83.7827L228.208 83.8324C227.737 83.7827 227.29 83.6587 227.142 83.1129C227.34 83.1129 227.513 83.0881 227.687 83.0384C228.654 82.964 229.67 82.6415 230.588 83.2617C230.637 83.4354 230.687 83.6091 230.736 83.7579V83.7827Z" fill="#9F5A31"/>
<path d="M263.882 170.567C263.907 169.6 263.535 168.459 264.973 168.136C264.998 169.129 264.576 169.898 263.882 170.567Z" fill="#FACCAB"/>
<path d="M213.233 76.1413L211.052 75.8684C211.845 75.4963 212.638 75.0249 213.233 76.1413Z" fill="#F5B58F"/>
<path d="M230.563 83.2617C229.596 83.1873 228.629 83.1129 227.662 83.0385C228.679 82.4678 229.67 82.2942 230.563 83.2617Z" fill="#F7B68E"/>
<path d="M269.758 121.419C268.99 120.749 269.262 119.856 269.163 119.013C270.651 119.484 269.461 120.625 269.758 121.419Z" fill="#F3B28C"/>
<path d="M235.322 201.406C235.496 200.265 236.314 200.24 237.182 200.314C236.76 201.009 236.19 201.481 235.322 201.406Z" fill="#FBCEB1"/>
<path d="M257.858 182.402C257.933 181.583 258.404 181.012 259.098 180.64C259.123 181.533 259.098 182.402 257.858 182.402Z" fill="#F8B98E"/>
<path d="M158.047 171.808C157.675 171.585 157.304 171.361 156.932 171.138C156.932 170.543 156.932 169.972 156.932 169.401C157.675 170.047 158.072 170.84 158.072 171.833L158.047 171.808Z" fill="#FACFB4"/>
<path d="M145.006 142.036C145.031 142.905 144.585 143.45 143.866 143.847C143.816 142.979 143.816 142.135 145.006 142.036Z" fill="#F8BEA0"/>
<path d="M216.283 206.74C216.903 206.889 217.671 206.666 218.068 207.435C217.448 211.429 217.746 215.374 218.638 219.319C218.638 222.668 218.638 225.993 218.638 229.342C211.944 227.432 206.093 224.256 201.68 218.699C199.201 215.573 197.987 212.025 197.367 208.179C197.02 205.996 198.036 205.376 200.094 205.698C205.449 206.542 210.878 206.443 216.283 206.765V206.74Z" fill="#C28A7D"/>
<path d="M202.672 233.634C205.821 233.634 208.994 233.634 212.143 233.634C210.804 235.371 208.176 235.743 205.994 234.825C204.928 234.354 203.416 235.073 202.647 233.634H202.672Z" fill="#ED714A"/>
<path d="M218.638 219.294C218.365 219.17 217.894 219.046 217.869 218.922C217.572 215.076 216.754 211.231 218.068 207.435C218.44 209.817 217.423 212.322 218.712 214.63C218.687 216.193 218.663 217.731 218.638 219.294Z" fill="#CE856D"/>
<path d="M194.962 231.079C196.276 232.443 198.21 232.468 199.722 233.411C198.284 234.775 195.73 233.535 194.962 231.079Z" fill="#ED714A"/>
<path d="M252.602 263.232L252.007 262.041C252.131 260.577 251.685 259.039 252.33 257.65H253.197V262.612L252.627 263.207L252.602 263.232Z" fill="#F19A4D"/>
<path d="M215.985 236.512C215.911 236.983 215.539 237.033 215.167 237.033C214.795 237.033 214.349 237.033 214.349 236.512C214.349 236.016 214.795 235.991 215.167 235.991C215.539 235.991 215.935 235.991 215.985 236.537V236.512Z" fill="#ED684A"/>
<path d="M435.019 233.584L436.16 234.13C436.581 234.502 436.507 234.899 436.16 235.272C433.656 237.232 432.763 240.506 430.235 242.442C429.887 242.789 429.466 242.814 429.045 242.59C428.102 240.531 429.962 239.539 430.73 238.149C431.226 237.554 431.673 236.884 432.168 236.264C432.664 235.693 433.11 235.048 433.482 234.403C433.904 233.957 434.152 233.188 435.019 233.584V233.584Z" fill="#7A706B"/>
<path d="M429.119 242.466H430.234C429.044 244.997 427.904 247.528 425.4 249.115C424.16 249.115 424.235 247.9 423.689 247.255C423.417 246.808 423.689 246.56 424.036 246.312C425.053 246.039 425.747 245.344 426.292 244.476C426.838 243.881 427.135 243.136 427.656 242.516C428.127 242.144 428.623 241.945 429.143 242.442L429.119 242.466Z" fill="#7A6F68"/>
<path d="M437.325 233.51C438.143 231.451 439.383 229.689 440.92 228.126C440.945 228.97 440.92 229.888 442.135 229.962C442.606 230.756 442.73 231.55 442.135 232.344C441.391 233.187 440.994 234.378 439.755 234.726H438.565C438.218 234.254 437.499 234.155 437.325 233.51V233.51Z" fill="#744B29"/>
<path d="M439.755 234.726C440.102 233.485 440.895 232.691 442.135 232.344C442.283 233.485 441.788 234.354 441.168 235.321C440.672 236.115 440.598 237.579 439.308 236.884C438.044 236.214 440.102 235.569 439.73 234.726H439.755Z" fill="#7B491D"/>
<path d="M437.325 233.51C438.094 233.56 438.54 233.932 438.565 234.726C437.623 234.354 437.276 236.512 436.16 235.272C436.16 234.899 436.16 234.502 436.16 234.13C436.557 233.932 436.954 233.733 437.35 233.535L437.325 233.51Z" fill="#7B491D"/>
<path d="M455.15 269.162C454.381 267.772 453.662 269.187 452.894 269.162C452.844 268.269 453.142 267.549 454.109 267.475C455.299 267.4 455.15 268.368 455.15 269.137V269.162Z" fill="#7E6B5E"/>
<path d="M442.135 232.344V229.962C443.3 230.756 443.895 231.55 442.135 232.344Z" fill="#7B491D"/>
<path d="M404.625 247.8C404.699 249.463 406.087 250.455 406.831 251.72C407.872 253.482 407.748 254.722 406.558 256.137C406.112 256.459 405.691 256.459 405.269 256.087C403.013 254.698 401.402 253.035 402.889 250.133C402.443 248.967 400.881 248.173 401.699 246.56C401.724 245.816 402.096 245.419 402.84 245.369C404.03 245.716 404.476 246.634 404.6 247.776L404.625 247.8Z" fill="#784A25"/>
<path d="M383.899 253.656C386.725 253.705 389.502 254.574 392.353 254.375C393.096 254.325 394.46 253.953 394.361 255.293C394.262 256.509 392.997 255.988 392.204 256.037C391.435 255.367 390.642 255.368 389.849 255.988C385.287 255.144 380.527 255.467 376.089 253.78C376.064 253.234 376.387 252.911 376.759 252.589L377.949 252.539C379.882 253.234 382.138 252.093 383.899 253.656V253.656Z" fill="#777371"/>
<path d="M405.319 259.734C405.368 261.049 405.095 262.265 404.203 263.257C403.558 263.307 403.087 263.53 402.939 264.225C402.815 264.77 402.715 265.589 401.897 265.043C401.377 264.696 400.93 264.076 400.658 263.48C400.41 262.91 400.683 262.091 401.377 262.19C403.236 262.463 402.864 261.223 402.914 260.205C402.988 258.618 401.823 259.436 401.228 259.139C399.344 258.146 401.897 257.228 401.724 256.112C402.666 256.211 403.881 255.764 404.104 257.303C404.748 257.997 406.112 258.32 405.319 259.734V259.734Z" fill="#784A25"/>
<path d="M399.369 232.319C400.732 235.42 402.418 238.397 403.063 241.772C402.839 242.218 403.558 243.235 402.294 243.062L398.253 233.535C398.625 233.138 398.798 232.567 399.369 232.319Z" fill="#7B716C"/>
<path d="M402.294 243.062C402.542 242.64 402.815 242.218 403.062 241.772C404.476 241.995 403.335 244.575 405.368 244.228C405.814 243.905 406.236 243.856 406.632 244.302C406.632 245.865 405.715 246.883 404.649 247.825C403.732 247.28 403.459 246.237 402.889 245.419C402.691 244.625 402.492 243.856 402.294 243.062V243.062Z" fill="#7F726B"/>
<path d="M376.759 252.614C376.759 253.135 376.56 253.532 376.089 253.804C374.428 253.606 372.569 254.177 371.007 252.564C373.015 251.125 374.899 252.787 376.759 252.614V252.614Z" fill="#747474"/>
<path d="M383.899 253.656C381.817 253.829 379.833 253.408 377.949 252.539C378.619 252.44 379.462 252.564 379.933 252.217C382.139 250.48 383.007 252.018 383.924 253.656H383.899Z" fill="#774A2E"/>
<path d="M399.369 232.319C399.319 233.039 399.021 233.485 398.253 233.535C397.98 232.121 396.815 231.004 396.914 229.466C397.162 228.995 397.584 228.821 398.079 228.796C398.501 229.962 398.922 231.153 399.369 232.319V232.319Z" fill="#7B716D"/>
<path d="M401.724 246.61C402.071 247.825 403.335 248.718 402.914 250.182C401.823 249.239 398.972 248.867 401.724 246.61Z" fill="#7C481B"/>
<path d="M405.319 259.734L404.104 257.303C404.848 257.278 405.245 256.881 405.294 256.112L406.584 256.161C406.559 257.501 406.361 258.766 405.319 259.734V259.734Z" fill="#7E4A1A"/>
<path d="M401.972 256.534C400.683 255.566 399.641 255.268 399.889 254.053C399.889 253.928 400.41 253.804 400.658 253.829C402.145 254.028 401.526 255.268 401.972 256.534Z" fill="#784A25"/>
<path d="M389.849 255.988C390.667 254.301 391.46 254.325 392.204 256.037C391.411 256.037 390.642 256.013 389.849 255.988Z" fill="#737475"/>
<path d="M415.954 236.165L419.524 236.016C420.119 236.81 418.285 236.512 418.954 237.331C419.301 238.1 420.218 238.745 419.4 239.713C418.979 239.861 418.607 239.812 418.26 239.514C416.797 238.869 415.805 237.901 415.954 236.165Z" fill="#8C7567"/>
<path d="M406.608 244.302L405.344 244.228C406.509 242.615 407.674 241.027 408.815 239.415C409.211 239.861 409.211 240.358 408.939 240.854C409.062 242.615 408.021 243.558 406.608 244.278V244.302Z" fill="#836F63"/>
<path d="M422.524 244.848C421.185 244.029 419.276 243.608 420.07 241.3C420.193 241.226 420.317 241.151 420.441 241.077C422.45 241.375 423.218 242.541 422.821 244.526C422.722 244.625 422.623 244.749 422.524 244.848V244.848Z" fill="#837064"/>
<path d="M408.938 240.854C408.889 240.382 408.864 239.886 408.814 239.415C408.889 238.745 409.211 238.298 409.93 238.249C410.401 237.926 410.847 237.951 411.269 238.298C410.773 239.415 410.178 240.432 408.938 240.854V240.854Z" fill="#807169"/>
<path d="M411.294 238.298C410.848 238.298 410.401 238.249 409.955 238.249C410.228 237.48 410.476 236.686 410.748 235.917C411.319 235.917 411.914 235.941 412.484 235.966C412.335 236.859 411.988 237.678 411.294 238.298Z" fill="#727577"/>
<path d="M424.384 246.585L423.689 247.255C422.574 246.808 422.45 245.865 422.524 244.848H422.574C424.26 244.302 424.756 244.997 424.408 246.585H424.384Z" fill="#76726B"/>
<path d="M418.26 239.514L419.5 239.464C420.343 239.837 420.764 240.358 420.145 241.251L420.07 241.3C419.302 240.879 418.211 240.779 418.26 239.514Z" fill="#7B7170"/>
<path d="M417.17 158.684C415.36 159.428 413.699 158.51 412.038 158.088C406.385 156.624 401.452 153.821 397.262 149.752C394.113 146.701 393.989 143.55 397.088 140.448C402.741 134.817 409.856 134.345 417.219 135.164C418.583 135.313 419.897 135.809 421.236 136.156C422.673 137.843 421.707 139.754 421.657 141.54C421.558 146.055 421.012 150.546 419.599 154.863C419.128 156.302 418.856 157.964 417.17 158.684V158.684Z" fill="#010101"/>
<path d="M417.17 158.684C420.566 151.538 420.665 143.798 421.236 136.156C423.839 137.322 426.442 138.513 429.045 139.679C430.086 140.696 431.301 141.441 432.615 142.061C433.21 143.053 434.003 143.847 434.995 144.443C435.714 145.361 435.863 146.601 436.78 147.42C436.78 147.618 436.78 147.817 436.78 147.991C436.829 151.811 434.524 154.168 431.698 156.227C431.301 156.748 430.632 156.972 430.21 157.493C430.012 157.493 429.813 157.493 429.615 157.493C429.07 157.939 428.301 158.088 427.805 158.659C425.153 158.485 422.574 159.626 419.897 159.279C418.955 159.155 417.913 159.552 417.12 158.684H417.17Z" fill="#F7F3F0"/>
<path d="M412.384 121.345C421.086 122.933 429.416 125.662 437.3 129.631C437.92 129.929 438.589 130.128 439.135 130.525C439.73 130.946 440.548 131.418 439.978 132.41C439.457 133.278 438.763 133.254 437.945 132.881C434.747 131.418 431.573 129.83 428.301 128.565C420.392 125.538 412.31 123.131 403.658 124.024C402.765 124.124 402.071 123.975 401.575 123.255C400.956 122.337 401.848 121.841 402.294 121.246C405.666 120.799 409.013 120.675 412.36 121.32L412.384 121.345Z" fill="#080605"/>
<path d="M474.215 157.691C474.215 156.699 474.215 155.706 474.215 154.714C474.264 152.01 475.281 151.365 477.661 152.655C479.991 153.92 481.206 155.905 480.685 158.535C480.19 161.115 478.206 162.43 475.826 163.174C474.562 163.571 474.215 162.926 474.215 161.834C474.215 160.445 474.215 159.056 474.215 157.666V157.691Z" fill="#D3A588"/>
<path d="M418.285 237.132C417.987 235.991 419.425 236.735 419.499 235.991C423.466 235.247 426.887 233.336 430.284 231.277L430.234 233.51C430.135 233.634 430.036 233.758 429.961 233.907C427.953 235.296 425.722 236.264 423.516 237.281C421.78 238.075 419.995 238.398 418.285 237.132V237.132Z" fill="#784A27"/>
<path d="M431.424 156.302C433.606 153.796 435.788 151.265 436.779 147.991C437.895 151.141 435.936 154.59 432.019 156.327C431.821 156.6 431.598 156.575 431.399 156.327L431.424 156.302Z" fill="#FAEFE6"/>
<path d="M412.385 121.345L402.319 121.27C405.691 120.253 409.038 120.278 412.385 121.345Z" fill="#F9E3DB"/>
<path d="M432.615 142.061C430.805 142.21 429.615 141.416 429.045 139.679C430.508 140.051 431.747 140.796 432.615 142.061Z" fill="#FCE9E0"/>
<path d="M436.779 147.395C435.341 146.899 434.796 145.882 434.994 144.418C436.631 144.79 436.383 146.279 436.779 147.395Z" fill="#FBE8DF"/>
<path d="M427.854 158.659C427.954 157.493 428.797 157.468 429.664 157.493C429.317 158.262 428.722 158.684 427.854 158.659Z" fill="#FBEBE0"/>
<path d="M431.424 156.302H432.044C431.697 157.071 431.102 157.493 430.234 157.493C430.284 156.748 430.681 156.351 431.424 156.302Z" fill="#FBEBE0"/>
<path d="M217.968 158.758C216.679 158.758 215.365 158.808 214.596 157.418C212.117 154.987 212.514 151.638 211.919 148.66C211.547 146.849 211.696 144.939 212.018 143.103C212.365 142.036 212.539 140.92 212.712 139.828C213.332 137.422 214.225 135.114 215.191 132.832C215.663 131.715 216.158 130.649 217.348 130.128C219.654 127.994 222.48 128.763 224.91 129.284C233.289 131.07 239.587 138.29 237.777 148.264C236.909 152.928 231.356 158.262 226.472 158.758C223.645 159.676 220.794 159.527 217.943 158.783L217.968 158.758Z" fill="#52A3DA"/>
<path d="M234.752 121.32C234.454 121.221 233.81 121.022 233.165 120.774C226.273 117.896 219.48 118.393 212.787 121.394C212.068 121.717 211.373 122.139 210.605 122.337C209.241 122.685 208.051 122.337 207.332 121.022C206.589 119.683 207.01 118.517 208.002 117.549C208.423 117.127 208.944 116.805 209.464 116.557C217.67 112.562 226.1 111.942 234.727 115.142C235.644 115.49 236.562 115.961 237.256 116.631C238.198 117.499 238.396 118.665 237.801 119.881C237.256 121.022 236.339 121.394 234.752 121.37V121.32Z" fill="#6C493E"/>
<path d="M212.812 142.781C212.539 147.767 213.308 152.63 214.597 157.418C212.143 158.163 210.977 155.88 209.168 155.111C208.473 154.392 207.209 154.416 206.788 153.325C201.755 150.422 201.061 141.813 205.598 138.439C206.49 138.414 207.432 137.645 208.3 138.563C208.697 139.158 208.771 139.828 208.87 140.498C209.44 141.714 210.283 141.093 211.077 140.821C213.184 140.126 213.233 141.218 212.787 142.781H212.812Z" fill="#F8F0F1"/>
<path d="M179.368 171.808C175.104 166.796 175.153 159.478 179.442 154.664C180.31 153.697 181.252 152.977 182.442 153.945C183.582 154.863 183.186 156.004 182.566 157.121C179.343 162.951 179.814 167.02 184.252 171.734C184.847 172.478 186.285 172.8 185.541 174.239C185.194 174.562 184.772 174.686 184.326 174.711C182.938 174.711 182.095 173.47 180.855 173.197C180.235 172.875 180.037 172.081 179.368 171.808Z" fill="#EE80AB"/>
<path d="M155.047 155.26C155.121 156.227 154.973 156.897 154.279 157.245C153.51 157.642 152.791 157.518 152.047 157.046C148.948 155.111 148.18 149.405 150.709 146.75C151.403 146.006 152.196 145.41 153.312 145.708C154.551 146.055 154.502 147.097 154.551 148.115C154.65 150.571 154.229 153.052 155.072 155.235L155.047 155.26Z" fill="#D29D90"/>
<path d="M217.373 130.127L213.431 139.704C212.142 137.347 209.836 136.652 207.432 136.107C210.06 132.956 213.134 130.599 217.373 130.127Z" fill="#F6EFF0"/>
<path d="M184.252 174.115H185.442C186.434 173.222 187.649 173.619 188.764 173.52C191.07 173.47 193.425 173.867 195.557 172.602C196.921 173.049 196.623 174.091 196.425 175.108C196.103 175.753 195.408 175.951 194.937 176.447C191.293 177.911 187.723 177.812 184.227 175.951C183.831 175.331 183.731 174.736 184.227 174.14L184.252 174.115Z" fill="#EE7FAC"/>
<path d="M207.407 136.107C209.093 136.057 210.853 136.429 212.291 135.189C213.332 136.677 212.068 138.488 213.407 139.704C213.283 140.746 213.506 141.838 212.812 142.781C212.613 142.011 213.134 140.647 211.275 141.59C210.531 141.962 208.349 144.195 208.002 140.87C208.597 140.076 211.151 139.282 208.002 138.488C207.209 137.819 206.391 140.895 205.622 138.488C205.696 137.298 206.465 136.652 207.407 136.131V136.107Z" fill="#F6F2EE"/>
<path d="M196.102 175.281C196.077 174.487 195.557 173.718 196.102 172.924C195.755 172.552 195.755 172.18 196.102 171.783C197.168 170.096 198.879 168.88 199.672 166.97C200.465 166.325 201.259 166.325 202.027 166.97C202.746 168.806 202.548 170.443 200.961 171.783C200.341 172.056 200.118 172.751 199.598 173.148C198.358 173.495 197.466 174.339 196.697 175.331C196.474 175.554 196.251 175.554 196.053 175.257L196.102 175.281Z" fill="#EE81AA"/>
<path d="M196.127 171.808V172.949C193.946 174.587 191.417 174.09 188.987 174.14C188.64 173.371 187.054 174.512 187.227 172.974C190.276 173.173 193.276 173.048 196.127 171.808V171.808Z" fill="#EE83A8"/>
<path d="M259.123 119.459C260.164 120.7 261.032 122.064 261.478 123.627C258.776 123.305 258.552 121.618 259.123 119.459Z" fill="#FBD9CE"/>
<path d="M155.717 164.613C154.155 164.613 152.568 164.613 151.006 164.588C151.006 164.191 151.006 163.819 150.981 163.422H152.171C152.965 162.777 153.758 162.777 154.551 163.422C155.295 163.447 155.717 163.844 155.741 164.613H155.717Z" fill="#FADAD8"/>
<path d="M184.252 174.115C184.252 174.711 184.252 175.331 184.252 175.926C182.938 175.331 181.723 174.562 180.682 173.52C180.508 173.371 180.434 173.222 180.508 173.098C180.583 172.974 180.657 172.9 180.731 172.9C182.194 172.478 183.062 173.768 184.277 174.091L184.252 174.115Z" fill="#EE83A8"/>
<path d="M187.226 172.974L188.987 174.14H185.417L184.227 171.758C185.392 171.758 186.235 172.552 187.202 172.974H187.226Z" fill="#EE83A8"/>
<path d="M217.968 158.758C220.819 158.758 223.645 158.758 226.496 158.733C226.249 158.907 226.001 159.105 225.753 159.279C223.422 159.8 221.067 159.701 218.712 159.329L217.943 158.758H217.968Z" fill="#899EC2"/>
<path d="M196.747 175.356C196.846 173.495 197.838 172.726 199.672 172.924C199.871 173.048 199.945 173.173 199.896 173.321C199.846 173.47 199.772 173.545 199.722 173.545C198.83 174.314 198.011 175.207 196.772 175.381L196.747 175.356Z" fill="#EE83A8"/>
<path d="M218.737 159.329C221.093 159.329 223.423 159.304 225.778 159.279C223.448 160.271 221.093 160.172 218.737 159.329Z" fill="#D0E6F9"/>
<path d="M206.812 153.349C207.58 153.97 209.068 153.622 209.192 155.136C207.927 155.185 206.663 155.21 206.812 153.349Z" fill="#FAE5E0"/>
<path d="M259.148 126.629C258.429 126.431 257.536 126.952 257.016 125.835C258.082 125.29 258.801 125.29 259.148 126.629Z" fill="#FBD9CE"/>
<path d="M152.146 162.231C150.733 161.934 150.882 161.165 151.378 160.123C152.493 160.668 152.022 161.562 152.146 162.231Z" fill="#FBD9CF"/>
<path d="M156.882 164.663C157.08 163.943 156.56 163.05 157.675 162.529C158.221 163.596 158.221 164.315 156.882 164.663Z" fill="#FBD9CF"/>
<path d="M202.052 166.995H199.697C199.772 166.201 200.193 165.804 201.011 165.854C201.73 165.903 201.978 166.375 202.052 166.995Z" fill="#F8CAD0"/>
<path d="M261.478 123.652L262.47 125.414C261.85 125.314 261.032 125.687 260.685 124.967C260.362 124.297 261.305 124.148 261.503 123.652H261.478Z" fill="#FBD9CE"/>
<path d="M154.526 163.422H152.146V162.231C153.089 162.331 154.303 161.884 154.526 163.422Z" fill="#FBD9CF"/>
<path d="M196.102 175.281L196.746 175.331C196.35 176.05 195.779 176.497 194.937 176.423C194.986 175.678 195.408 175.331 196.127 175.281H196.102Z" fill="#EE83A8"/>
<path d="M180.707 172.924L180.657 173.545C179.914 173.222 179.517 172.602 179.368 171.833C180.186 171.758 180.608 172.155 180.707 172.949V172.924Z" fill="#EA93A7"/>
<path d="M199.721 173.52L199.672 172.924C199.746 172.131 200.193 171.734 201.011 171.808C200.862 172.602 200.465 173.197 199.721 173.52V173.52Z" fill="#EB94A8"/>
<path d="M394.56 188.48C394.882 193.69 390.196 198.032 384.073 197.833C378.966 197.685 374.9 195.402 372.867 190.564C371.107 186.347 371.206 182.129 374.255 178.358C375.396 176.944 376.759 175.604 378.445 176.944C380.156 178.308 378.817 179.697 377.751 180.938C375.768 183.245 375.321 185.825 376.635 188.604C378.123 191.705 380.652 193.517 384.073 193.541C387.246 193.541 389.775 192.152 391.014 189.001C392.031 187.761 393.196 187.488 394.535 188.505L394.56 188.48Z" fill="#EB5C75"/>
<path d="M394.559 188.48C393.32 188.232 392.13 188.257 391.039 188.976C391.981 187.116 393.072 186.297 394.559 188.48Z" fill="#F5BCB9"/>
<path d="M473.025 98.0733C472.851 98.7431 473.372 99.6611 472.231 100.182C471.736 99.1153 471.612 98.3462 473 98.0485L473.025 98.0733Z" fill="#DCC9C1"/>
<path d="M432.639 236.512L431.424 238.249C430.507 236.81 429.689 235.346 430.234 233.535C433.159 233.188 434.845 231.029 434.994 227.605C435.118 224.976 434.672 222.346 435.564 219.716C436.482 222.073 435.986 224.554 436.184 226.985C436.283 228.052 435.54 229.466 437.275 229.962C436.506 231.178 435.763 232.369 434.994 233.585C434.597 233.981 434.226 234.354 433.829 234.751C433.184 235.172 433.06 235.966 432.614 236.537L432.639 236.512Z" fill="#784A27"/>
<path d="M430.26 233.535C431.177 234.974 431.722 236.512 431.45 238.249C430.805 239.712 429.293 240.73 429.119 242.466C428.623 242.516 428.103 242.516 427.83 243.037C427.285 243.533 427.161 244.277 426.69 244.823C426.045 245.568 426.218 247.379 424.384 246.585C424.26 245.493 423.665 244.898 422.549 244.823C422.624 243.037 421.731 241.896 420.12 241.251C419.897 240.655 419.698 240.06 419.475 239.464C419.078 238.695 418.682 237.926 418.285 237.132C421.954 237.752 424.781 235.644 427.756 234.13C428.598 233.708 429.367 233.535 430.235 233.51L430.26 233.535Z" fill="#794922"/>
<path d="M432.64 236.512C432.615 235.619 432.64 234.775 433.854 234.726C433.78 235.544 433.383 236.14 432.64 236.512Z" fill="#76503C"/>
<path d="M426.689 244.823C426.689 243.98 426.689 243.161 427.83 243.037C427.929 243.93 427.408 244.451 426.689 244.823Z" fill="#734D2C"/>
<path d="M417.368 145.857C417.764 149.33 416.971 152.58 415.285 155.657C415.037 152.233 416.425 149.107 417.368 145.857Z" fill="#F2F0EF"/>
<path d="M417.74 139.729C418.707 141.069 418.31 142.408 417.963 143.748C416.798 142.458 417.12 141.093 417.74 139.729Z" fill="#F3F0EF"/>
<path d="M217.547 141.639C218.39 141.912 218.638 142.408 218.464 143.227C217.869 146.229 217.82 149.231 218.613 152.233C218.786 152.928 218.786 153.697 217.844 153.846C217.2 153.945 216.679 153.498 216.53 152.903C215.638 149.43 215.415 145.956 216.481 142.483C216.63 141.987 217.051 141.714 217.547 141.664V141.639Z" fill="#E4F0F6"/>
<path d="M219.059 134.469C219.877 134.469 220.373 134.941 220.224 135.536C219.902 136.901 219.927 138.612 218.291 139.183C217.72 139.382 217.423 138.513 217.448 137.918C217.448 136.504 217.869 135.263 219.084 134.469H219.059Z" fill="#DFEDF6"/>
<path d="M208.002 138.488C209.39 136.33 210.01 139.382 211.349 138.513C210.679 140.548 209.514 140.994 208.002 140.87V138.488Z" fill="#F9EEF4"/>
</g>
<defs>
<clipPath id="clip0_5114_43867">
<rect width="595" height="287" fill="white"/>
</clipPath>
</defs>
</svg>
