<svg width="595" height="297" viewBox="0 0 595 297" fill="none" xmlns="http://www.w3.org/2000/svg">
<g clip-path="url(#clip0_5484_43224)">
<rect width="595" height="297" fill="#5685C4"/>
<path d="M481.808 130.761C481.808 136.403 481.911 142.045 481.86 147.712C481.86 149.464 482.117 150.288 484.229 150.7C492.623 152.349 498.34 162.241 493.215 170.433C491.155 173.73 488.117 175.508 484.383 175.74C482.297 175.868 481.782 176.59 481.834 178.496C482.143 190.578 482.323 202.685 482.658 214.767C482.761 218.322 481.267 220.203 477.662 220.203C467.723 220.203 457.886 218.966 448.024 217.858C444.754 217.498 441.458 218.116 438.213 217.214C437.158 216.931 436.823 217.781 436.823 218.734C436.823 220.28 436.823 221.826 436.823 223.345C438.316 228.137 437.853 232.954 437.08 237.771C436.874 238.982 435.922 239.961 434.892 240.631C431.518 242.718 428.119 244.83 423.974 245.113C422.763 245.062 421.527 245.113 420.317 245.113C419.467 245.139 418.618 245.113 417.768 245.113C416.918 245.062 416.068 245.113 415.244 244.907C412.232 244.006 409.657 242.408 407.7 239.961C406.077 237.952 405.279 235.736 406.258 233.16C407.339 231.846 408.961 231.821 410.429 231.512C417.665 229.94 423.922 226.746 428.351 220.615C428.995 219.739 430.205 218.889 429.664 217.704C429.072 216.39 427.553 216.776 426.368 216.673C424.128 216.493 421.862 216.57 419.905 215.231C419.467 214.303 419.776 213.402 420.06 212.526C425.467 197.198 417.176 182.412 405.717 174.4C394.722 166.723 382.568 164.147 369.358 165.951C367.787 166.157 366.165 167.007 364.568 165.951C365.238 159.459 365.882 152.941 366.628 146.475C367.324 140.19 368.122 133.904 368.869 127.619C369.847 119.298 370.8 111.003 371.778 102.682C371.804 102.373 371.907 102.09 371.933 101.781C372.783 94.3615 372.783 94.2327 380.379 94.4131C391.863 94.6964 403.322 95.3662 414.807 95.7526C423.716 96.036 432.6 96.7573 441.509 96.8861C444.471 96.9376 447.432 97.2725 450.393 97.5043C451.372 98.6636 451.166 99.9774 450.96 101.317C450.264 105.67 449.955 110.05 449.312 114.403C448.925 116.979 449.209 119.53 449.569 122.054C450.239 126.562 453.123 129.138 457.732 129.242C464.581 129.37 471.431 130.246 478.306 129.911C479.516 129.86 480.778 129.834 481.808 130.761V130.761Z" fill="#FCE0CF"/>
<path d="M154.088 297.227C147.006 297.253 139.899 297.227 132.818 297.356C131.144 297.382 130.578 296.944 130.423 295.192C129.084 280.38 130.011 265.67 132.638 251.064C134.492 240.734 133.385 243.027 142.449 239.6C157.615 233.856 172.834 228.291 188.026 222.676C190.395 221.826 191.245 222.959 191.322 225.149C191.425 228.317 191.271 231.486 191.399 234.654C191.554 238.518 192.507 239.781 196.343 240.502C201.184 241.404 206.077 241.79 210.969 240.579C212.849 240.116 214.523 239.497 214.883 237.256C214.832 233.212 215.141 229.167 214.6 225.149C214.471 224.118 214.471 223.114 215.295 222.341C215.45 222.263 215.63 222.186 215.785 222.109C225.544 225.277 234.943 229.373 244.522 233.006C251.989 235.839 259.405 238.905 266.898 241.61C269.654 242.614 270.89 244.237 271.559 247.045C275.293 262.837 276.143 278.86 275.705 295.012C275.653 296.557 275.344 297.433 273.465 297.407C266.383 297.279 259.302 297.304 252.221 297.279C251.345 296.326 251.603 295.141 251.603 294.059C251.603 287.799 251.603 281.539 251.603 275.253C251.603 273.708 251.654 272.162 251.011 270.874C251.86 272.986 251.577 275.356 251.577 277.701C251.577 283.136 251.577 288.597 251.577 294.033C251.577 295.141 251.835 296.326 250.959 297.253C230.488 297.279 210.017 297.33 189.545 297.356C178.138 297.356 166.705 297.304 155.298 297.253C154.371 296.197 154.68 294.909 154.68 293.698C154.628 285.12 154.731 276.516 154.603 267.937C154.706 277.237 154.68 286.562 154.603 295.862C154.603 296.403 154.371 296.866 154.01 297.253L154.088 297.227Z" fill="#ED6C41"/>
<path d="M215.759 237.411C216.171 239.549 214.703 240.502 213.132 240.94C206.618 242.743 200.077 242.511 193.562 240.682C191.219 240.012 190.73 238.158 190.627 236.174C190.447 232.413 190.344 228.626 190.395 224.839C190.421 223.01 189.623 222.521 188.026 222.624C190.009 221.98 191.142 220.949 190.138 218.631C189.829 217.935 189.751 216.957 189.957 216.209C190.962 212.397 188.876 211.263 185.683 210.001C169.074 203.406 157.667 191.608 151.487 174.864C150.92 173.318 149.993 172.648 148.551 172.159C137.736 168.346 133.41 157.14 139.127 147.274C141.316 143.513 144.586 140.628 148.783 139.056C149.89 138.644 150.714 138.077 150.508 136.918C150.302 135.836 149.118 136.557 148.448 136.222C148.706 135.012 149.736 134.986 150.611 134.934C159.624 134.445 168.611 133.646 177.597 132.977C182.207 132.642 186.79 132.436 191.399 131.946C193.974 131.663 194.876 130.375 195.571 127.927C199.768 113.218 209.476 103.429 223.381 97.5298C225.75 97.0404 227.861 97.9935 229.921 98.8436C243.749 104.588 254.075 114.197 261.208 127.309C261.8 128.391 262.366 129.499 262.135 130.813C265.122 138.592 267.13 146.63 267.001 154.976C266.718 178.419 252.89 200.212 230.694 209.46C226.703 211.135 222.608 212.371 218.411 213.195C216.325 213.608 215.656 214.509 215.785 216.493C215.913 218.322 215.785 220.177 215.785 222.031C215.862 222.134 215.836 222.237 215.733 222.315C213.622 221.259 214.343 219.275 214.394 217.704C214.497 215.385 213.725 214.87 211.433 214.741C206.721 214.484 202.008 214.355 197.322 213.943C194.773 213.736 194.361 214.071 194.747 216.57C195.777 223.345 199.82 228.059 205.253 231.795C207.467 233.315 209.785 234.577 212.386 235.35C213.647 235.736 215.012 235.994 215.707 237.359L215.759 237.411Z" fill="#FBD9D2"/>
<path d="M223.87 98.0193C211.407 103.635 202.034 112.239 197.142 125.248C196.962 125.712 196.807 126.202 196.678 126.691C194.979 132.899 194.902 132.874 188.413 133.26C175.435 134.059 162.482 134.96 149.53 135.836C149.17 135.836 148.809 136.119 148.449 136.248C146.646 136.841 145.384 136.351 143.839 135.037C132.793 125.712 134.647 112.368 143.118 102.012C153.47 89.338 167.323 82.5114 182.954 79.0337C194.309 76.4834 205.665 76.2 216.738 80.7596C219.802 82.0219 222.377 84.0055 225.106 85.8087C228.351 87.509 229.432 90.7548 230.72 93.8203C231.338 95.2629 230.514 96.2934 229.201 97.0147C227.527 97.942 225.647 97.6072 223.896 98.0193H223.87Z" fill="#6B493D"/>
<path d="M458.401 297.227H426.316C425.209 296.042 425.441 294.523 425.466 293.131C425.544 284.296 425.363 275.511 423.2 266.881C422.788 265.207 423.432 264.202 424.797 263.326C426.677 262.116 428.685 261.008 429.741 258.844C435.663 250.137 441.715 241.533 447.869 233.006C448.049 232.748 448.332 232.594 448.616 232.491C459.559 233.521 470.426 235.273 481.318 236.767C483.739 237.102 484.666 238.828 485 241.069C486.648 251.863 487.653 262.682 487.163 273.605C486.854 280.689 486.751 287.773 487.344 294.857C487.498 296.609 487.344 297.408 485.206 297.382C477.095 297.227 468.958 297.279 460.821 297.253C459.74 296.042 459.946 294.574 459.946 293.157C459.946 288.701 459.791 284.244 460.255 279.787C459.791 284.553 460.1 289.345 459.302 294.085C459.122 295.192 459.25 296.352 458.349 297.253L458.401 297.227Z" fill="#784922"/>
<path d="M368.894 297.227C366.036 297.227 362.482 298.258 360.474 296.944C358.233 295.475 359.675 291.637 359.521 288.855C358.594 271.724 358.594 254.619 360.216 237.514C360.602 233.341 361.143 229.142 362.662 225.2C364.207 221.156 366.164 220.589 370.284 221.516C375.357 222.65 380.61 223.139 385.76 223.886C389.005 224.35 392.249 224.814 395.494 225.278C397.116 225.973 397.425 227.57 398.017 228.961C401.416 237.205 404.506 245.551 408.06 253.717C408.523 254.748 408.987 255.778 409.682 256.68C413.39 260.235 413.184 263.919 411.253 268.556C408.188 275.949 406.643 283.832 406.746 291.921C406.746 293.724 407.236 295.63 405.922 297.253C394.412 297.253 382.876 297.253 371.366 297.253C368.92 294.394 369.95 290.813 369.409 287.567C368.945 284.888 368.842 282.131 368.456 279.427C368.662 283.729 369.126 288.005 369.538 292.281C369.718 293.981 370.156 295.733 368.868 297.253L368.894 297.227Z" fill="#784922"/>
<path d="M406.617 219.636C406.437 213.685 406.411 213.994 400.257 213.376C390.189 212.397 380.069 211.985 370.052 210.491C369.357 210.388 368.61 210.414 367.889 210.388C362.044 210.285 359.83 208.327 360.345 202.557C361.091 194.055 362.302 185.58 363.332 177.079C367.246 174.374 371.855 173.885 376.284 173.911C388.386 173.962 398.995 177.981 407.107 187.358C413.415 194.674 415.321 204.308 409.888 214.2C408.755 214.973 407.982 215.875 407.931 217.369C407.905 218.271 408.085 219.507 406.592 219.662L406.617 219.636Z" fill="#FDE0CF"/>
<path d="M481.808 130.761C473.31 131.225 464.838 130.324 456.367 130.143C452.684 130.066 450.315 127.722 449.208 124.373C447.792 120.045 448.152 115.588 448.796 111.132C449.44 106.598 449.878 102.064 450.418 97.5044C459.302 97.8908 468.186 98.2515 477.044 98.6894C479.979 98.844 480.906 100.982 481.293 103.481C482.014 107.937 481.808 112.446 481.833 116.954C481.833 121.565 481.833 126.176 481.833 130.761H481.808Z" fill="#E1C8B7"/>
<path d="M405.948 297.227C405.305 285.712 407.468 274.712 411.974 264.124C412.592 262.708 412.618 261.651 411.433 260.338C410.48 259.256 409.116 258.251 408.935 256.577C408.935 254.181 410.867 252.815 412.077 251.141C413.776 248.771 414.987 245.937 417.639 244.314C418.411 244.34 419.158 244.392 419.931 244.417C420.78 244.572 421.373 245.139 421.836 245.809C424.72 250.059 428.222 253.897 430.565 258.534C430.694 261.78 427.707 262.244 425.827 263.506C423.973 264.768 423.69 265.696 424.257 267.911C426.703 277.52 426.342 287.412 426.291 297.227C419.493 297.227 412.721 297.227 405.923 297.227H405.948Z" fill="#ED6F06"/>
<path d="M409.631 213.968C410.094 210.233 412.335 207.039 412.257 203.02C412.154 196.915 410.017 191.814 406.077 187.409C398.146 178.522 387.846 174.889 376.207 174.658C371.804 174.58 367.581 176.126 363.307 177.053C363.307 173.318 364.053 169.66 364.594 165.976C374.791 163.941 384.885 163.89 394.747 167.702C407.288 172.571 416.712 180.634 421.244 193.617C423.768 200.908 422.557 208.121 420.163 215.205C416.455 216.287 412.901 216.313 409.605 213.943L409.631 213.968Z" fill="#E1C8B7"/>
<path d="M223.87 98.0195C225.492 97.4786 227.115 96.8603 228.737 96.3709C230.308 95.9072 230.565 94.9798 229.921 93.5629C228.634 90.755 227.037 88.1532 225.08 85.7832C235.561 85.912 243.955 91.0899 252.041 96.9634C262.109 104.254 266.976 114.506 268.881 126.459C269.551 130.581 269.139 131.045 264.89 130.916C263.963 130.89 263.036 130.864 262.135 130.839C256.547 119.324 248.642 109.869 237.415 103.429C233.166 101.008 228.866 98.5863 223.87 97.9938V98.0195Z" fill="#8F5C4A"/>
<path d="M409.631 213.968C413.081 214.922 416.66 214.819 420.188 215.231C422.943 215.488 425.699 215.643 428.428 216.029C431.647 216.467 431.879 217.24 430.076 219.893C425.184 227.081 418.18 230.867 409.862 232.568C408.755 232.8 407.674 232.98 406.566 233.186C404.944 228.858 405.485 224.53 406.541 220.177C406.566 219.996 406.592 219.816 406.644 219.636C407.545 218.708 407.21 217.549 407.133 216.519C406.953 214.535 407.802 213.814 409.656 213.968H409.631Z" fill="#BA9375"/>
<path d="M423.741 244.443C427.604 243.98 430.977 242.228 434.273 240.322C436.153 239.24 436.899 237.565 436.899 235.427C436.874 231.409 436.899 227.416 436.899 223.397C441.534 224.711 445.68 226.72 447.998 231.306C447.74 233.727 445.86 235.221 444.624 237.076C440.736 242.769 436.874 248.462 432.805 254.001C430.694 256.86 430.101 256.86 428.041 254.104C426.316 251.811 424.668 249.441 423.02 247.097C422.145 245.86 421.887 244.856 423.793 244.443H423.741Z" fill="#784922"/>
<path d="M406.515 220.151C407.159 223.371 406.309 226.565 406.515 229.785C406.592 230.893 406.515 232.027 406.515 233.16C405.923 239.6 410.326 242.151 415.244 244.289C415.862 245.268 415.27 246.04 414.807 246.839C414.189 247.895 413.493 248.926 412.721 249.879C411.665 251.193 411.253 253.588 409.348 253.511C407.133 253.434 407.004 250.935 406.361 249.312C403.477 241.996 400.335 234.757 397.477 227.415C397.039 226.256 396.447 225.148 397.219 223.912C399.82 221.465 403.065 220.615 406.489 220.177L406.515 220.151Z" fill="#784922"/>
<path d="M423.742 244.444C422.815 245.036 422.557 245.577 423.381 246.608C425.364 249.081 427.295 251.605 429.02 254.233C430.05 255.83 430.462 256.01 431.647 254.284C436.797 246.788 442.076 239.369 447.329 231.95C447.509 231.718 447.741 231.512 447.947 231.306C448.487 231.512 448.616 231.95 448.616 232.491C445.655 238.081 441.535 242.898 438.084 248.153C435.741 251.708 433.089 255.083 430.565 258.535C426.471 254.233 423.613 249.029 419.931 244.418C421.192 244.418 422.454 244.418 423.716 244.444H423.742Z" fill="#777473"/>
<path d="M397.244 223.886C399.15 230.559 402.343 236.741 404.789 243.207C406.077 246.607 407.519 249.956 409.115 253.898C411.433 250.368 413.776 247.612 415.269 244.263C416.068 244.263 416.866 244.263 417.664 244.289C414.754 248.385 411.87 252.455 408.961 256.551C406.257 253.022 405.304 248.694 403.579 244.701C400.798 238.261 398.223 231.718 395.545 225.2C396.111 224.737 396.678 224.299 397.27 223.835L397.244 223.886Z" fill="#767474"/>
<path d="M458.401 297.227C458.581 291.302 459.328 285.429 459.07 279.478C459.019 278.499 458.967 277.134 460.435 277.262C461.594 277.365 461.568 278.602 461.439 279.504C460.693 285.403 460.873 291.328 460.847 297.253C460.023 297.253 459.199 297.253 458.375 297.253L458.401 297.227Z" fill="#767170"/>
<path d="M368.894 297.227C368.43 291.251 367.992 285.274 367.503 279.298C367.426 278.396 366.473 277.108 368.301 277.057C369.898 277.005 369.434 278.448 369.512 279.375C370.155 285.326 370.748 291.302 371.366 297.253C370.542 297.253 369.718 297.253 368.868 297.253L368.894 297.227Z" fill="#76716F"/>
<path d="M251.01 297.227C250.907 286.923 251.448 276.593 250.83 266.289C252.916 276.541 252.04 286.923 252.272 297.227C251.86 297.227 251.422 297.227 251.01 297.227V297.227Z" fill="#EF9C49"/>
<path d="M154.088 297.227V265.516C155.118 267.911 155.35 269.612 155.35 271.415C155.35 280.019 155.35 288.623 155.35 297.227C154.938 297.227 154.5 297.227 154.088 297.227Z" fill="#EF9B49"/>
<path d="M421.99 164.173C418.359 164.74 415.218 163.142 412.025 161.906C407.982 160.309 404.403 157.913 401.313 154.873C398.068 151.679 397.991 148.51 401.133 145.187C405.845 140.241 412.025 139.443 418.385 139.34C421.063 139.288 423.69 139.881 426.213 140.731C427.732 142.714 426.548 144.878 426.522 146.939C426.471 151.318 425.878 155.672 424.539 159.845C424.024 161.442 423.767 163.271 421.99 164.173V164.173Z" fill="#010101"/>
<path d="M421.99 164.173C425.492 156.728 425.647 148.691 426.213 140.731C431.363 142.637 436.204 144.93 440.015 149.103C443.491 152.89 443.903 156.471 440.015 159.742C434.865 164.044 428.788 165.925 421.99 164.199V164.173Z" fill="#F7F3F1"/>
<path d="M411.742 125.274C421.99 125.558 431.518 128.52 440.659 132.925C441.946 133.544 443.285 134.007 444.547 134.703C445.294 135.115 446.35 135.604 445.732 136.789C445.165 137.871 444.341 137.665 443.388 137.227C441.097 136.145 438.779 135.141 436.462 134.085C428.428 130.427 420.033 128.211 411.175 127.876C410.171 127.825 409.141 127.954 408.137 128.134C406.978 128.34 405.896 128.134 405.716 126.923C405.536 125.635 406.617 125.274 407.75 125.274C409.089 125.274 410.428 125.274 411.742 125.274Z" fill="#060504"/>
<path d="M481.241 162.937C481.241 162.112 481.164 161.288 481.241 160.489C481.37 159.459 480.623 158.068 481.962 157.475C483.301 156.909 484.537 157.578 485.644 158.377C487.781 159.948 488.631 162.19 487.859 164.56C487.086 166.852 485.103 168.269 482.683 168.862C481.498 169.145 481.267 168.449 481.241 167.522C481.241 166.002 481.241 164.457 481.241 162.937V162.937Z" fill="#D3A587"/>
<path d="M215.759 237.411C207.879 235.17 201.133 231.305 196.601 224.17C194.85 221.413 194.206 218.374 193.639 215.257C193.253 213.093 194.412 212.577 196.317 212.861C201.982 213.711 207.699 213.814 213.39 213.891C215.012 213.917 215.166 214.381 215.244 215.746C215.372 217.961 214.574 220.228 215.759 222.366C214.471 224.041 215.887 225.69 215.81 227.364C215.681 230.713 215.733 234.062 215.733 237.411H215.759Z" fill="#C18A7D"/>
<path d="M214.652 133.93C220.6 132.23 225.879 133.647 230.385 137.64C235.097 141.839 237.08 147.12 235.638 153.405C234.428 158.712 228.325 164.173 222.66 164.611C219.107 164.894 215.45 165.204 212.077 163.503C211.304 162.937 210.738 162.215 210.455 161.314C207.828 152.091 208.601 143.255 213.493 134.909C213.751 134.445 214.163 134.136 214.652 133.904V133.93Z" fill="#52A3DA"/>
<path d="M214.651 133.93C212.926 138.181 210.737 142.251 210.145 146.939C209.424 152.658 210.094 158.145 212.076 163.529C207.57 162.112 203.836 159.459 200.721 156.033C198.326 153.405 198.558 146.862 201.364 143.359C204.866 139.005 209.115 135.502 214.677 133.956L214.651 133.93Z" fill="#F7F2F1"/>
<path d="M221.038 116.722C225.415 116.954 229.484 117.391 233.269 119.195C235.174 120.096 236.745 121.359 235.638 123.729C234.608 125.944 232.754 125.583 230.9 124.811C223.638 121.745 216.506 122.312 209.45 125.506C209.064 125.686 208.703 125.867 208.343 126.047C206.643 126.846 205.047 126.82 204.068 125.042C202.987 123.11 203.991 121.693 205.665 120.689C210.48 117.855 215.81 116.979 221.063 116.722H221.038Z" fill="#6C4A3E"/>
<path d="M186.43 183.262C176.027 184.164 168.147 172.236 173.632 162.138C174.07 161.34 174.636 160.593 175.254 159.923C176.078 158.995 177.005 157.991 178.37 159.073C179.786 160.18 179.323 161.237 178.37 162.473C176.413 165.101 175.383 167.96 176.284 171.36C177.494 175.972 180.533 178.496 185.065 179.243C188.979 179.862 192.017 178.11 194.464 175.199C194.798 174.812 194.979 174.323 195.288 173.911C196.112 172.777 197.219 172.211 198.455 173.086C199.562 173.885 199.279 175.07 198.712 176.126C196.421 180.274 192.893 182.592 188.232 183.236C187.537 183.339 186.79 183.236 186.43 183.236V183.262Z" fill="#EE7FAA"/>
<path d="M149.71 160.592C149.762 161.674 149.556 162.344 148.809 162.679C148.011 163.04 147.238 162.859 146.491 162.344C143.401 160.232 142.603 154.667 145.049 151.859C145.822 150.984 146.697 150.237 147.985 150.674C149.221 151.112 149.118 152.22 149.144 153.251C149.247 155.801 148.783 158.403 149.71 160.592Z" fill="#D29D90"/>
<path d="M373.684 261.368C377.108 260.338 379.735 261.832 382.49 262.141C387.254 262.682 392.018 263.146 396.756 263.687C397.348 263.764 398.378 263.068 398.429 264.279C398.481 265.567 397.348 265.31 396.627 265.258C390.627 264.975 384.679 264.228 378.756 263.068C377.186 262.759 375.486 262.862 373.684 261.394V261.368Z" fill="#767473"/>
<path d="M387.253 204.849C382.464 204.463 378.576 202.119 376.155 197.636C373.941 193.489 374.25 189.367 376.799 185.426C377.288 184.653 377.88 183.932 378.576 183.313C379.58 182.412 380.842 182.128 381.923 183.082C383.082 184.138 382.618 185.297 381.691 186.327C380.275 187.873 379.297 189.573 379.322 191.789C379.348 195.318 381.64 198.693 384.936 199.775C388.927 201.063 391.914 200.058 394.309 196.709C395.184 195.498 396.008 193.592 397.837 194.828C399.51 195.962 398.841 197.817 397.914 199.234C395.519 202.995 391.991 204.721 387.279 204.849H387.253Z" fill="#EB5C76"/>
<path d="M422.557 150.468C422.712 154.41 421.553 157.707 420.42 161.365C419.467 159.433 420.806 152.89 422.557 150.468Z" fill="#F4F0EE"/>
<path d="M422.557 144.415C423.484 145.754 423.355 147.171 422.917 148.948C421.449 147.351 422.093 145.857 422.557 144.415Z" fill="#F4F0EE"/>
<path d="M212.798 152.478C212.489 150.752 213.184 149.206 213.416 147.609C213.519 146.888 213.956 146.166 214.858 146.475C215.656 146.759 215.579 147.454 215.476 148.253C215.089 151.293 214.832 154.332 215.682 157.346C215.888 158.068 215.888 158.866 214.961 159.072C214.059 159.278 213.544 158.557 213.493 157.862C213.313 156.033 212.463 154.307 212.798 152.478Z" fill="#ECF3F8"/>
<path d="M216.376 138.902C217.303 139.134 217.793 139.7 217.406 140.448C216.84 141.607 217.175 143.513 215.321 143.693C214.394 143.771 214.471 142.714 214.574 142.045C214.754 140.757 215.012 139.494 216.351 138.902H216.376Z" fill="#EBF3F8"/>
</g>
<defs>
<clipPath id="clip0_5484_43224">
<rect width="595" height="297" fill="white"/>
</clipPath>
</defs>
</svg>
