<svg width="595" height="297" viewBox="0 0 595 297" fill="none" xmlns="http://www.w3.org/2000/svg">
<g clip-path="url(#clip0_5484_50177)">
<rect width="595" height="297" fill="#2C6FC8"/>
<path d="M215.373 233.701C243.389 236.818 267.053 247.921 283.919 271.312C289.069 278.448 292.674 286.382 295.146 294.831C295.687 296.712 295.429 297.51 293.318 297.356C291.773 297.227 290.228 297.356 288.683 297.356C225.132 297.356 161.607 297.356 98.0556 297.356C96.8711 297.356 95.635 297.639 93.9355 296.841C115.025 261.523 145.951 241.249 186.146 234.526C187.048 235.273 186.97 236.329 187.022 237.359C187.331 242.717 189.339 245.345 194.592 246.633C200.412 248.076 205.922 246.556 211.304 244.366C213.647 243.155 214.471 241.198 214.42 238.621C214.42 236.999 213.828 235.144 215.373 233.778V233.701Z" fill="#D464A2"/>
<path d="M488.065 165.95C487.499 168.063 486.984 170.201 485.671 172.03C485.542 173.421 483.585 174.013 484.1 175.662C482.117 176.899 480.418 178.65 478.126 179.423C476.581 179.938 475.062 180.685 473.388 179.81C472.229 177.955 474.598 176.744 474.212 174.426C471.998 175.688 471.302 177.465 470.967 179.552C470.761 180.814 471.328 182.257 470.04 183.236C469.783 182.592 469.5 181.948 469.191 181.201C465.56 189.496 460.719 196.915 454.488 203.329C447.406 210.619 439.063 216.184 429.433 219.533C427.012 220.383 426.06 221.465 426.935 223.912C428.326 229.399 428.866 234.835 425.905 240.064C422.068 242.64 417.716 243.748 413.236 244.495C410.867 244.907 408.447 245.989 406.052 244.495C405.563 242.589 407.314 242.099 408.266 241.249C413.622 236.56 416.79 230.61 418.85 223.938C419.493 221.825 418.927 221.104 416.686 221.49C407.751 223.088 398.945 221.954 390.113 220.46C388.696 220.228 387.28 219.919 385.864 220.409C385.529 220.486 385.246 220.409 384.988 220.177C385.168 218.554 384.576 217.575 383.031 216.802C363.667 206.781 354.165 190.088 350.895 169.145C350.071 163.915 350.457 158.737 350.457 153.508C350.998 152.632 350.226 151.782 350.38 150.906C350.535 144.749 352.363 138.979 354.629 133.389C359.728 120.818 367.221 109.947 378.371 101.909C379.452 101.136 380.43 100.183 381.898 100.209C384.962 101.909 386.507 105.078 388.722 107.551C394.258 113.759 400.876 118.576 407.854 122.904C418.103 129.241 429.047 134.084 440.454 138.052C448.951 141.014 457.758 142.379 466.487 144.208C469.5 144.827 472.538 145.29 475.5 146.14C483.946 148.948 488.967 155.234 488.812 162.782C488.812 163.915 488.838 165.049 488.014 165.95H488.065Z" fill="#F4C5AD"/>
<path d="M211.51 244.933C205.304 247.715 198.918 249.364 192.301 246.684C188.387 245.087 185.528 242.408 186.224 237.539C186.378 236.535 186.198 235.504 186.146 234.474C186.249 227.338 186.224 227.184 179.168 228.266C168.662 229.914 158.208 231.769 147.727 233.572C144.457 234.139 143.35 233.186 142.964 229.785C141.779 219.43 140.492 209.1 139.23 198.769C139.359 197.61 140.363 197.121 141.058 196.425C145.358 191.994 144.972 184.137 140.26 180.17C139.307 179.372 138.277 178.702 136.912 178.959C135.213 179.294 134.827 180.376 135.934 181.716C136.655 182.592 138.045 183.158 137.299 184.704C135.213 185.76 133.127 184.575 131.041 184.756C129.342 183.751 127.72 182.592 125.788 181.973C125.711 181.098 125.145 180.505 124.527 179.964C119.917 175.894 117.008 169.969 121.359 161.7C123.6 160.489 126.149 160.721 128.544 160.36C148.68 157.166 167.787 150.726 186.327 142.482C200.438 136.197 213.879 128.778 226.136 119.298C228.788 117.237 230.848 114.403 234.196 113.295C235.277 113.579 235.87 114.429 236.41 115.279C240.247 121.333 243.62 127.593 245.552 134.574C245.732 136.454 246.144 138.309 246.685 140.138C248.23 146.346 249.697 152.555 251.191 158.763C251.371 160.206 251.732 161.571 252.504 162.808C253.817 170.381 254.049 178.006 253.431 185.683C253.045 190.423 252.169 195.111 251.526 200.109C253.225 199.645 253.457 198.46 253.817 197.481C254.667 195.292 255.337 193.025 255.955 190.758C256.238 189.753 256.212 188.439 257.654 188.156C259.251 194.802 260.873 201.449 262.469 208.121C263.602 212.861 262.778 214.046 258.53 214.741C244.728 217.034 230.951 219.404 217.175 221.748C216.866 221.8 216.583 221.903 216.3 222.006C214.42 221.207 213.029 222.778 211.356 223.062C205.098 224.17 198.815 225.251 192.558 226.488C189.545 227.081 189.03 227.853 190.06 230.687C192.326 236.87 197.064 240.322 203.064 242.434C205.845 243.413 209.064 242.82 211.484 244.933H211.51Z" fill="#E6D1C4"/>
<path d="M234.17 113.45C216.197 129.937 194.721 140.422 172.293 149.18C157.693 154.874 142.655 159.073 127.128 161.468C125.248 161.752 123.291 162.241 121.36 161.726C120.845 159.974 120.046 158.377 119.094 156.806C106.631 135.527 112.605 111.441 133.926 96.7317C144.844 89.1838 157.023 85.2166 170.156 83.7998C192.867 81.3783 213.828 86.2728 232.96 98.7152C235.947 100.647 238.986 102.605 241.226 105.49C240.273 109.38 237.492 111.647 234.196 113.476L234.17 113.45Z" fill="#7D5240"/>
<path d="M425.054 239.961C426.548 238.029 427.063 235.814 426.986 233.392C426.883 230.249 426.934 227.081 426.934 223.912C433.526 224.53 439.706 226.617 445.809 229.039C460.306 234.757 472.383 243.902 482.76 255.366C491 264.485 497.18 274.918 501.583 286.382C502.613 289.035 503.283 291.843 504.313 294.496C505.214 296.866 504.313 297.356 502.124 297.356C488.168 297.304 474.185 297.304 460.229 297.304C459.405 295.166 460.898 293.363 461.156 291.379C461.285 290.272 461.748 289.216 461.877 287.593C460.461 291.045 460.564 294.548 458.529 297.304C439.964 297.304 421.398 297.304 402.832 297.304C402.266 296.66 402.111 295.862 402.06 295.012C401.158 282.93 401.339 270.848 401.467 258.766C401.493 255.933 402.472 255.186 405.278 255.16C406.849 255.16 408.317 255.598 409.759 256.165C413.493 257.581 417.278 258.972 421.192 259.745C426.11 260.698 429.149 258.483 429.664 253.46C429.947 250.806 429.818 248.153 429.458 245.5C429.071 242.743 428.144 240.579 425.106 240.013L425.054 239.961Z" fill="#FBF5EE"/>
<path d="M488.065 165.951C488.477 155.672 485.439 151.087 475.293 146.759C476.838 141.349 476.812 141.427 470.864 140.061C461.62 137.949 452.942 134.214 444.264 130.427C427.244 122.982 411.485 113.425 396.962 101.858C393.125 98.7926 389.571 95.3664 386.636 91.3735C387.614 89.0035 389.648 87.6124 391.657 86.2986C395.648 83.671 399.871 81.4556 404.712 80.8631C422.48 76.3292 438.96 79.4463 454.075 89.5187C464.401 96.3968 472.074 105.593 476.297 117.418C476.812 118.86 477.07 119.607 479.336 119.298C496.743 116.799 510.133 129.783 509.669 144.724C509.334 155.672 499.009 165.925 488.039 165.951H488.065Z" fill="#A1472A"/>
<path d="M384.988 220.203C385.142 220.254 385.297 220.28 385.451 220.306C387.254 222.47 386.353 225.174 386.79 227.622C387.537 231.718 387.846 235.865 389.906 239.6C390.112 239.961 390.061 240.373 389.829 240.76C388.619 241.507 387.434 240.914 386.25 240.682C382.052 239.807 379.194 241.378 377.855 245.422C376.568 249.286 377.186 253.151 378.061 256.989C378.55 259.153 380.379 259.024 382.052 258.689C386.481 257.788 390.807 256.448 395.262 255.572C396.06 255.418 396.859 255.186 397.683 255.134C399.768 255.031 401.004 255.958 401.185 258.122C401.262 259.153 401.262 260.183 401.262 261.214C401.262 267.783 401.262 274.352 401.262 280.921C401.262 284.192 401.262 287.464 401.725 290.735C402.009 292.899 402.421 295.244 401.082 297.33C384.164 297.33 367.246 297.33 350.328 297.33C348.268 294.471 348.861 290.864 347.29 287.129C347.779 289.937 348.243 292.024 348.706 294.11C348.938 295.166 349.427 296.274 348.629 297.33C340.827 297.33 333.024 297.304 325.196 297.382C322.905 297.408 322.364 296.635 322.853 294.445C327.231 274.506 336.938 257.633 352.234 244.134C361.143 236.277 371.237 230.275 382.722 226.9C384.267 226.437 385.245 225.741 385.014 223.912C384.859 222.701 385.014 221.465 385.014 220.228L384.988 220.203Z" fill="#FAF5EE"/>
<path d="M401.081 297.304C400.231 284.63 400.334 271.93 400.386 259.23C400.386 255.572 399.897 255.289 396.163 256.19C390.858 257.478 385.502 258.534 380.249 259.9C378.395 260.389 377.237 259.05 377.159 258.225C376.825 253.82 375.434 249.364 377.005 244.959C378.756 240.038 381.691 238.57 386.893 239.935C387.871 240.193 388.85 240.347 389.828 240.554C390.446 240.45 391.039 240.579 391.605 240.837C395.468 242.46 399.382 243.877 403.708 243.49C404.506 243.413 405.33 243.619 405.948 244.263C412.72 244.649 418.977 242.64 425.054 239.961C428.093 239.162 429.38 239.832 429.947 242.82C430.642 246.556 430.951 250.343 430.591 254.129C430.101 259.282 425.878 262.115 420.754 260.698C416.866 259.642 413.081 258.2 409.27 256.912C408.523 256.654 407.802 256.19 407.029 256.036C403.115 255.16 402.266 255.881 402.214 259.823C402.034 272.316 402.42 284.81 402.755 297.304C402.188 297.304 401.622 297.304 401.055 297.304H401.081Z" fill="#020202"/>
<path d="M234.17 113.45C236.513 110.797 239.397 108.581 241.2 105.464C247.689 112.806 251.551 121.565 254.641 130.71C258.298 141.529 259.843 152.761 260.1 164.122C260.28 172.185 259.173 180.222 257.68 188.156C256.444 191.917 255.285 195.704 253.972 199.439C253.534 200.676 252.89 202.247 251.216 201.629C249.697 201.062 250.47 199.568 250.727 198.435C253.251 186.946 253.302 175.327 252.092 163.684C252.066 163.4 251.809 163.143 251.654 162.885C251.036 161.494 251.345 159.923 250.779 158.506C249.568 152.04 248.075 145.651 246.169 139.365C245.835 137.665 245.268 136.042 244.856 134.368C242.384 126.846 238.831 119.865 234.17 113.45V113.45Z" fill="#D464A2"/>
<path d="M404.712 80.8629C400.695 82.6919 396.472 84.0314 392.661 86.4529C390.472 87.844 389.005 89.9564 386.816 91.2187C386.867 92.0688 386.558 92.8416 385.966 93.3826C383.855 95.3146 382.516 97.6846 381.795 100.441C363.873 112.677 354.01 129.834 350.92 151.087C350.689 151.499 350.56 152.04 349.89 151.705C344.766 132.59 350.354 116.078 362.405 101.265C370.31 91.5536 380.353 85.0103 392.584 81.8675C396.601 80.8371 400.618 80.6568 404.712 80.8629V80.8629Z" fill="#873A22"/>
<path d="M211.51 244.933C205.871 243.954 200.232 243.207 195.494 239.42C192.146 236.741 189.932 233.444 188.799 229.399C188.258 227.441 188.876 226.128 191.219 225.741C198.661 224.479 206.077 223.088 213.493 221.697C214.497 221.516 215.476 221.078 216.351 221.98C214.446 221.98 214.678 223.345 214.755 224.556C214.935 227.596 215.167 230.636 215.373 233.675C215.321 235.608 215.141 237.54 215.27 239.446C215.476 242.357 214.085 244.006 211.51 244.933Z" fill="#CAA085"/>
<path d="M137.427 184.447C136.886 183.829 136.397 183.185 135.805 182.644C134.852 181.794 133.178 181.098 134.44 179.552C135.547 178.161 137.066 177.44 139.023 178.393C144.148 180.892 146.465 189.47 143.375 194.777C142.371 196.503 140.903 197.714 139.255 198.77C129.805 201.964 123.316 192.33 124.938 185.22C125.196 184.138 125.53 183.056 125.814 181.974C128.183 181.433 129.728 182.515 130.886 184.447C131.298 186.482 130.603 188.697 132.019 190.578C133.049 191.969 134.182 193.154 136.036 192.69C137.942 192.201 137.787 190.475 137.89 188.955C137.993 187.435 137.195 185.993 137.453 184.447H137.427Z" fill="#E4CD6F"/>
<path d="M484.28 175.173C482.606 173.19 484.95 172.983 485.645 172.03C489.713 175.07 492.16 178.805 490.64 184.138C489.173 189.264 485.259 192.124 479.98 191.995C474.984 191.866 471.173 188.543 470.015 183.288C470.118 180.377 469.783 177.337 472.023 174.915C472.821 174.04 473.645 172.752 475.036 173.782C476.298 174.709 475.396 175.688 474.778 176.667C474.186 177.595 473.826 178.677 473.362 179.681C474.16 180.634 473.903 181.845 474.16 182.927C474.83 185.555 476.401 187.306 479.079 187.873C481.757 188.44 484.023 187.435 485.593 185.297C487.216 183.082 487.499 180.583 486.031 178.058C485.465 177.105 484.46 176.41 484.28 175.199V175.173Z" fill="#F4C35D"/>
<path d="M348.603 297.305C347.908 293.956 347.238 290.581 346.492 287.232C346.363 286.614 345.539 285.918 346.775 285.635C347.573 285.455 348.268 285.815 348.423 286.614C349.092 290.169 349.685 293.724 350.303 297.305C349.736 297.305 349.17 297.305 348.577 297.305H348.603Z" fill="#0A0A0A"/>
<path d="M458.478 297.304C459.276 293.801 460.074 290.297 460.847 286.794C460.976 286.253 461.233 285.661 461.748 285.789C462.727 285.995 462.907 286.923 462.701 287.721C461.98 290.632 461.156 293.518 460.383 296.403C460.306 296.686 460.255 296.995 460.177 297.304C459.611 297.304 459.044 297.304 458.452 297.304H458.478Z" fill="#10100F"/>
<path d="M349.865 151.731C350.2 151.524 350.56 151.318 350.895 151.112C351.024 151.962 351.281 152.838 350.457 153.534C350.251 152.941 350.045 152.323 349.865 151.731V151.731Z" fill="#B67760"/>
<path d="M381.795 100.467C381.202 97.8135 382.619 95.9587 384.267 94.1555C385.142 93.2023 385.966 92.1977 386.816 91.2188C395.674 100.802 406.103 108.427 417.149 115.176C434.84 125.944 453.302 135.012 473.568 139.907C474.958 140.241 477.147 139.907 477.43 141.684C477.713 143.513 477.147 145.548 475.267 146.759C468.16 145.368 461.053 144.054 453.972 142.534C438.548 139.185 424.179 133.183 410.48 125.377C404.197 121.797 398.584 117.417 392.97 113.038C389.185 110.076 386.275 106.134 383.391 102.296C382.902 101.652 382.619 100.853 381.769 100.518L381.795 100.467Z" fill="#BAA498"/>
<path d="M405.948 244.263C400.18 244.804 394.721 243.928 389.828 240.554C386.996 237.72 386.893 233.908 386.301 230.353C385.734 227.055 385.734 223.655 385.477 220.28C385.863 218.631 386.944 219.069 388.103 219.25C394.438 220.332 400.746 221.414 407.21 221.465C410.815 221.491 414.342 221.079 417.844 220.409C420.522 219.894 420.6 220.924 420.033 222.985C417.69 231.641 413.261 238.879 405.948 244.238V244.263Z" fill="#D48B81"/>
<path d="M383.005 162.988C382.335 164.791 382.773 166.646 382.747 168.449C382.747 169.48 382.567 170.175 381.279 170.278C373.297 170.999 366.113 169.377 360.963 162.808C355.478 155.801 357.177 146.681 364.877 141.529C369.795 138.232 375.254 136.995 381.228 138C383.056 138.309 383.211 139.056 383.211 140.576C383.159 145.702 383.211 150.829 383.262 155.929C384.447 158.325 384.627 160.669 383.03 162.962L383.005 162.988Z" fill="#010101"/>
<path d="M448.05 173.473C447.972 183.442 442.41 191.505 434.222 194.468C425.312 197.714 415.785 195.318 409.862 188.311C409.141 187.461 408.472 186.508 408.034 185.477C407.339 183.829 407.493 182.232 409.038 181.047C410.686 179.81 412.309 179.99 413.776 181.407C414.806 182.412 415.708 183.545 416.738 184.524C421.579 189.161 428.866 189.625 434.608 185.735C439.964 182.077 442.05 174.838 439.449 168.784C439.011 167.754 438.445 166.749 438.033 165.719C437.286 163.813 437.827 162.267 439.526 161.211C441.458 160.026 443.209 160.721 444.393 162.344C447.071 165.925 447.972 170.124 448.05 173.499V173.473Z" fill="#E42C29"/>
<path d="M383.005 162.988C383.082 160.644 383.159 158.3 383.237 155.955C384.215 151.293 383.52 146.604 383.7 141.916C383.829 138.593 384.035 138.309 386.919 139.597C394.386 142.92 397.734 148.073 397.734 154.564C397.734 161.107 391.914 167.445 385.271 169.299C383.752 169.712 383.185 169.505 383.185 167.908C383.185 166.285 383.082 164.637 383.005 163.014V162.988Z" fill="#F2EEEE"/>
<path d="M484.28 175.173C487.911 178.161 488.735 181.227 486.855 184.833C485.284 187.847 481.653 189.444 478.512 188.543C474.598 187.409 472.924 184.498 473.362 179.655C476.606 179.501 479.465 178.419 481.859 176.203C482.555 175.559 483.301 175.121 484.28 175.199V175.173Z" fill="white"/>
<path d="M478.795 162.55C478.795 167.058 476.323 169.969 472.641 170.381C471.508 170.51 470.632 170.433 470.89 169.145C471.714 165.049 471.482 160.824 472.564 156.754C473.079 154.847 473.774 154.461 475.216 155.852C477.199 157.784 479.439 159.613 478.821 162.55H478.795Z" fill="#D19480"/>
<path d="M391.142 131.818C390.781 133.518 389.751 133.209 388.618 132.693C384.344 130.813 379.863 130.04 375.177 130.143C370.336 130.246 365.855 131.225 361.941 134.213C361.246 134.728 360.473 135.604 359.598 134.471C358.774 133.389 359.727 132.745 360.396 132.178C363.46 129.576 367.194 128.314 371.057 127.85C377.211 127.129 383.314 127.541 389.107 130.117C389.957 130.504 390.833 130.761 391.142 131.792V131.818Z" fill="#883B23"/>
<path d="M205.433 147.557C210.763 144.363 216.583 144.595 222.402 145.239C225.466 145.574 228.35 146.656 230.925 148.485C236.307 152.323 237.492 158.454 233.655 163.838C229.2 170.098 222.634 172.777 215.347 173.962C213.106 174.323 210.737 175.327 208.471 173.936C205.536 171.334 205.253 167.625 204.686 164.147C203.914 159.382 203.991 154.564 204.506 149.747C204.583 148.923 204.712 148.098 205.433 147.557V147.557Z" fill="#3D307D"/>
<path d="M166.422 191.737C166.551 188.62 167.297 185.271 169.357 182.283C171.186 179.604 173.374 178.779 175.537 180.067C177.494 181.226 177.778 183.493 176.155 186.276C174.868 188.491 174.25 190.784 174.482 193.334C174.868 197.353 178.524 199.62 182.284 198.151C185.116 197.018 186.867 194.854 188.258 192.201C189.417 190.011 191.116 188.594 193.768 189.779C195.597 190.603 196.446 192.226 195.931 194.081C193.717 202.221 181.975 211.032 172.216 204.102C168.121 201.217 166.448 197.069 166.422 191.711V191.737Z" fill="#DA7BB0"/>
<path d="M205.433 147.557C204.995 154.564 204.403 161.597 206.54 168.475C207.107 170.304 207.828 172.107 208.471 173.911C203.476 175.302 195.159 171.412 192.635 166.517C190.24 161.829 192.069 155.492 197.244 151.628C199.691 149.799 201.957 147.454 205.407 147.557H205.433Z" fill="#FBF3EE"/>
<path d="M230.926 143.075C227.604 142.277 224.205 141.504 220.703 141.298C212.849 140.86 205.33 141.658 198.918 146.862C197.502 148.021 195.777 148.202 194.515 146.682C193.253 145.136 193.897 143.59 195.185 142.302C197.554 139.932 200.463 138.413 203.579 137.331C212.72 134.214 221.913 134.523 231.132 136.996C232.934 137.485 234.428 138.464 234.119 140.628C233.887 142.302 232.496 142.869 230.9 143.05L230.926 143.075Z" fill="#7E5240"/>
<path d="M132.225 163.4C134.697 163.22 135.084 165.203 135.47 166.801C136.062 169.274 136.268 171.824 136.654 174.348C136.835 175.559 136.32 176.409 135.264 176.77C132.509 177.672 128.904 175.147 127.616 171.541C126.483 168.32 127.745 164.765 130.423 163.684C130.964 163.452 131.633 163.503 132.225 163.4V163.4Z" fill="#CAA185"/>
<path d="M137.427 184.447C138.74 186.095 138.715 188.053 138.715 190.011C138.715 191.531 138.328 192.974 136.809 193.566C135.11 194.21 133.487 193.746 132.329 192.381C130.346 190.063 129.367 187.461 130.887 184.447C133.075 183.03 135.264 185.091 137.453 184.447H137.427Z" fill="#FEFEFD"/>
<path d="M246.581 138.876C248.59 145.29 250.495 151.731 251.088 158.48C251.371 159.15 251.036 159.278 250.444 159.175C248.976 152.813 247.508 146.45 246.066 140.112C245.757 139.494 245.5 138.902 246.581 138.902V138.876Z" fill="#FDFBFC"/>
<path d="M246.582 138.876C246.402 139.288 246.221 139.675 246.067 140.087C245.243 138.283 244.831 136.377 244.857 134.394C245.861 135.733 246.067 137.356 246.582 138.876Z" fill="#F8EDF1"/>
<path d="M250.444 159.15C250.65 158.918 250.856 158.686 251.088 158.454C252.041 159.819 251.526 161.391 251.68 162.859C250.728 161.803 250.831 160.386 250.47 159.124L250.444 159.15Z" fill="#F6E9EF"/>
<path d="M380.044 159.588C380.044 160.695 380.044 161.829 380.044 162.937C380.044 164.019 379.606 164.74 378.473 164.714C377.52 164.714 376.954 164.07 376.954 163.143C376.954 160.489 376.722 157.836 377.263 155.234C377.417 154.436 377.675 153.585 378.756 153.637C380.069 153.689 380.095 154.667 380.095 155.621C380.121 156.934 380.095 158.274 380.095 159.588C380.069 159.588 380.044 159.588 380.018 159.588H380.044Z" fill="#F1ECEC"/>
<path d="M380.662 148.279C380.404 149.361 380.172 150.494 378.705 150.546C377.366 150.597 377.005 149.618 376.954 148.536C376.902 147.351 377.623 146.501 378.705 146.347C379.915 146.166 380.482 147.094 380.662 148.279Z" fill="#EBE6E5"/>
<path d="M208.445 161.597C208.291 159.768 208.729 158.763 210.119 158.609C211.329 158.48 212.025 159.227 212.231 160.386C212.668 162.705 213.132 164.997 213.492 167.316C213.647 168.269 213.364 169.222 212.308 169.557C211.123 169.943 210.248 169.274 209.836 168.269C208.857 165.976 208.729 163.503 208.445 161.597V161.597Z" fill="#EDECF3"/>
<path d="M209.785 156.059C208.703 155.853 208.137 155.183 208.214 154.127C208.291 153.07 208.909 152.375 210.017 152.452C211.098 152.529 211.639 153.276 211.587 154.358C211.51 155.44 210.866 155.981 209.785 156.059Z" fill="#D9D7E7"/>
</g>
<defs>
<clipPath id="clip0_5484_50177">
<rect width="595" height="297" fill="white"/>
</clipPath>
</defs>
</svg>
