<svg width="595" height="297" viewBox="0 0 595 297" fill="none" xmlns="http://www.w3.org/2000/svg">
<g clip-path="url(#clip0_5484_43208)">
<rect width="595" height="297" fill="#5F5CE9"/>
<g clip-path="url(#clip1_5484_43208)">
<path d="M207.622 236.895C223.51 238.287 238.213 243.336 251.732 251.605C266.795 260.827 278.434 273.347 286.134 289.344C287.498 292.178 288.606 295.115 289.842 298H86.1592C104.313 267.139 131.144 248.024 165.701 239.394C166.937 240.399 166.654 241.816 166.705 243.104C166.988 250.059 167.194 250.549 173.915 252.481C183.262 255.186 192.378 254.387 201.133 249.956C204.867 248.076 206.798 245.396 206.18 241.094C206.025 240.09 205.948 239.034 206.077 238.029C206.18 237.179 206.412 236.303 207.622 236.87V236.895Z" fill="#010101"/>
<path d="M432.393 219.79C442.667 220.512 452.942 220.254 463.216 220.228C472.177 220.228 481.035 221.285 489.97 221.542C492.906 221.619 494.245 223.861 494.682 226.437C496.408 236.535 498.03 246.633 499.652 256.731C501.583 268.89 502.639 281.152 503.231 293.44C503.309 294.986 503.334 296.532 502.768 298H437.955C437.286 296.712 437.646 295.372 437.955 294.11C438.985 290.091 438.985 285.789 440.942 282.003C440.788 281.307 442.487 283.007 441.663 281.436C441.38 280.895 441.148 280.328 441.122 279.684C441.38 278.035 440.839 276.129 442.667 275.021C443.414 275.202 442.951 276.103 443.414 276.361C443.208 275.227 442.616 274.197 442.255 273.064C442.178 270.822 442.255 268.633 443.388 266.598C443.44 266.16 444.367 267.036 444.109 266.082C443.878 265.258 443.62 264.434 443.44 263.584C443.157 262.064 443.234 260.544 443.388 258.998C444.187 251.064 443.44 243.284 440.968 235.685C439.861 232.259 437.723 229.579 435.174 227.132C434.067 226.076 432.882 225.097 431.955 223.861C431.415 222.418 431.209 221.001 432.393 219.765V219.79Z" fill="#202A50"/>
<path d="M335.522 298C335.213 286.897 336.423 275.897 337.968 264.923C339.745 252.249 342.011 239.678 344.612 227.132C345.024 225.226 345.668 224.608 347.547 224.505C355.427 224.093 363.229 222.779 371.134 222.65C374.868 222.083 378.731 222.856 382.413 221.568C387.228 221.31 392.018 221.053 396.833 220.821C397.399 220.795 398.352 220.126 398.378 221.491C397.914 222.676 398.249 223.938 398.172 225.149C398.223 225.458 398.172 225.767 398.017 226.05C392.507 230.919 390.498 237.462 389.185 244.341C388.979 245.448 388.825 246.556 388.593 247.638C387.975 249.596 388.387 251.605 388.181 253.589C388.181 253.949 388.078 254.284 388.001 254.645C387.46 260.518 387.305 266.366 388.129 272.214C388.438 274.326 387.923 276.49 388.696 278.551C388.953 279.916 388.876 281.307 388.902 282.698C388.979 283.935 388.619 285.249 389.468 286.382C389.649 286.665 389.803 286.949 389.932 287.258C390.73 289.654 391.065 292.152 391.657 294.574C391.94 295.759 392.043 296.97 391.116 297.974H335.574L335.522 298Z" fill="#202A50"/>
<path d="M391.065 298C391.116 294.213 389.314 290.735 389.159 286.974C387.769 285.3 389.365 284.089 389.906 282.595C389.468 282.93 389.262 283.368 388.799 283.471C388.49 283.471 388.232 283.419 388.001 283.239C388.001 281.899 387.949 280.534 387.923 279.195C388.181 270.771 386.147 262.399 387.28 253.923L387.151 253.743L387.28 253.563C388.232 251.553 387.151 249.312 387.923 247.277C388.49 240.914 390.267 234.912 393.666 229.476C394.67 227.854 395.777 226.179 397.837 225.612C398.661 225.355 399.228 225.612 399.614 226.385C399.923 227.029 400 227.75 400.077 228.472C400.824 236.406 400.901 236.509 408.961 236.483C414.6 236.483 420.24 236.664 425.853 235.788C430.643 235.041 431.338 234.294 431.441 229.502C431.492 227.622 430.926 225.561 432.419 223.912C439.295 227.725 442.23 234.113 443.569 241.378C444.651 247.329 444.985 253.382 444.393 259.462C444.239 260.982 444.342 262.527 444.342 264.073C444.445 264.846 444.779 265.644 444.084 266.314L443.08 273.295C443.234 273.888 443.415 274.48 442.874 274.996C442.539 276.696 442.204 278.37 441.87 280.07C441.998 280.663 442.204 281.255 441.638 281.771C440.428 287.155 439.217 292.564 437.981 297.948H391.065V298Z" fill="#F7F2F1"/>
<path d="M605.228 298C605.228 200.135 605.228 102.27 605.305 4.43084C605.305 1.26228 604.507 0.618257 601.442 0.618257C396.962 0.695539 192.507 0.669779 -11.9741 0.669779C-11.8453 0.489454 -12.2831 0.0257607 -11.6651 0.0515214C-10.8411 0.0772822 -10.0171 0.0515214 -9.19307 0.0515214C194.824 0.0515214 398.841 0.0772822 602.859 0C605.253 0 605.923 0.309129 605.923 2.93672C605.846 100.364 605.846 197.791 605.82 295.218C605.82 296.119 606.541 297.304 605.253 298H605.228Z" fill="white"/>
<path d="M207.622 236.896C207.133 237.05 206.721 237.205 206.746 237.926C207.261 248.024 205.382 250.806 195.21 253.486C186.043 255.881 176.979 255.804 168.276 251.296C166.757 250.523 166.164 249.982 166.087 247.973C165.984 245.139 165.907 242.254 165.701 239.394C166.757 235.994 164.594 234.912 161.916 234.01C150.508 230.146 141.213 223.268 133.436 214.123C130.604 210.8 128.466 207.116 126.458 203.329C125.454 201.423 124.475 200.65 122.312 200.702C112.064 200.856 105.034 192.407 105.446 184.498C105.781 178.135 108.845 172.983 117.317 169.815C118.089 169.531 118.759 169.583 118.887 168.424C119.377 164.07 120.072 159.768 121.231 155.492C123.368 147.532 127.076 140.396 131.865 133.724C136.526 127.258 142.32 121.977 148.963 117.778C155.53 113.631 162.662 110.771 170.387 109.071C177.829 107.448 185.271 107.422 192.687 108.092C201.004 108.865 208.832 111.724 216.094 115.795C228.891 122.982 238.161 133.492 244.084 146.888C245.526 150.185 247.251 153.508 247.225 157.269C247.843 158.454 247.483 159.923 248.307 161.056C248.358 161.855 248.41 162.653 248.461 163.452C249.157 165.899 248.255 168.578 249.517 170.922C249.517 172.339 249.517 173.782 249.517 175.199C248.642 177.414 249.054 179.836 248.487 182.103C247.74 191.248 244.341 199.543 239.603 207.245C232.883 218.193 223.535 226.36 211.896 231.924C210.635 232.516 209.296 233.109 208.06 233.547C205.33 234.526 206.051 235.505 207.493 236.87L207.622 236.896Z" fill="#633018"/>
<path d="M432.394 223.964C432.394 226.54 432.239 229.116 432.394 231.666C432.574 234.474 431.261 235.839 428.66 236.354C424.128 237.256 419.545 237.668 414.935 237.591C411.536 237.539 408.163 237.617 404.764 237.591C401.211 237.539 399.099 235.401 399.048 231.872C399.048 230.533 399.048 229.193 399.048 227.879C399.048 226.9 398.944 226.024 397.811 225.689C397.811 225.535 397.811 225.38 397.889 225.252C398.043 224.942 398.249 224.891 398.558 225.071C399.537 222.547 398.532 219.893 398.996 217.343C398.713 216.132 399.717 216.055 400.438 215.823C401.159 215.591 401.828 215.411 401.751 214.458C400.412 213.53 399.511 211.418 397.348 212.964C396.653 213.144 395.932 213.35 395.236 213.53C392.404 214.252 389.469 213.324 386.61 214.046C383.778 214.046 380.945 214.046 378.113 214.046C377.417 213.196 376.207 213.711 375.46 213.015C374.945 212.552 374.971 211.521 374.327 211.444C373.684 211.367 373.89 212.371 373.504 212.783C373.323 213.015 373.091 213.196 372.834 213.324C370.903 213.891 369.332 212.242 367.452 212.5C366.242 212.655 364.98 212.217 363.847 212.989C363.59 213.118 363.306 213.221 363.023 213.273C360.603 213.015 360.345 211.315 360.68 209.357C359.598 209.538 359.186 210.336 358.517 210.723C357.796 211.263 356.483 210.929 356.354 212.268C355.865 213.402 355.736 214.896 353.959 214.818C352.749 212.011 353.393 208.997 353.187 206.086C352.337 193.566 351.77 181.02 351.075 168.475C351.719 167.625 351.745 166.8 350.998 166.002V163.555C351.77 162.705 351.873 161.88 350.921 161.082C350.818 160.927 350.818 160.772 350.921 160.618C350.612 156.187 350.354 151.756 350.354 147.325C350.354 146.14 350.612 144.878 349.788 143.796C349.427 141.272 349.917 138.696 349.118 136.223C348.475 133.853 349.041 131.457 348.758 129.061C346.955 126.305 347.522 123.188 347.522 120.199C347.522 118.782 347.676 117.366 347.161 116C346.826 113.939 347.161 111.853 346.878 109.792C347.007 106.623 346.183 103.481 346.26 100.312C346.337 96.1388 347.625 94.7735 351.771 94.6705C355.556 94.5674 359.341 94.7478 363.1 94.1295C365.135 94.2325 367.169 94.181 369.203 94.1552C370.259 94.0007 371.289 94.2068 372.319 94.3356C373.246 94.5417 373.993 95.0826 374.714 95.6751C384.035 103.584 394.747 109.148 405.897 113.939C419.699 119.89 433.964 124.27 448.668 127.335C449.775 127.567 450.882 127.747 451.861 128.391C453.457 129.937 455.543 129.138 457.397 129.473C457.68 129.499 457.963 129.576 458.247 129.679C459.225 130.22 460.255 130.555 461.414 130.401C461.981 130.452 462.521 130.555 463.062 130.658C465.483 131.637 468.109 131.843 470.529 132.822C470.838 132.822 471.122 132.899 471.405 132.951C472.898 133.234 474.521 132.745 475.834 133.853C481.731 134.831 487.087 140.756 487.962 147.3C488.812 153.611 484.847 160.927 479.182 163.529C478.332 163.915 477.482 164.611 476.632 164.559C472.821 164.379 473.104 166.775 473.207 169.377C473.516 176.641 474.907 183.854 474.495 191.17C475.113 194.699 474.495 198.332 475.551 201.809C475.602 202.531 475.679 203.252 475.679 203.973C475.834 208.893 475.576 209.074 470.632 209.331C458.633 210.001 446.659 210.826 434.66 211.495C432.857 211.598 432.42 212.345 432.471 213.968C432.574 215.926 432.471 217.884 432.445 219.816C432.445 221.207 432.445 222.598 432.445 223.989L432.394 223.964Z" fill="#EBC2B0"/>
<path d="M462.572 131.405C462.135 131.225 461.697 131.019 461.259 130.839C460.358 130.195 459.225 130.942 458.324 130.272L458.066 130.143L457.783 130.195C455.749 129.602 453.483 130.195 451.551 129.035C440.196 126.433 428.866 123.626 417.896 119.633C403.219 114.3 389.056 107.937 376.542 98.4058C375.151 97.3496 373.889 96.1646 372.55 95.0312C368.894 92.3778 368.945 88.6425 372.834 86.5559C380.353 82.5115 388.464 80.0384 396.704 77.926C397.528 77.72 398.326 77.7457 399.073 78.2094C402.214 77.7972 405.356 77.4624 408.497 76.9729C426.883 74.2423 444.496 76.3289 460.615 86.0149C475.576 95.0054 483.687 108.607 485.438 125.944C485.979 131.431 485.232 132.101 479.722 132.513C479.207 132.565 478.692 132.513 478.177 132.539C476.271 131.792 474.546 133.183 472.666 132.925C471.997 132.925 471.327 132.822 470.658 132.693C467.98 132.178 465.379 131.173 462.572 131.405V131.405Z" fill="#010101"/>
<path d="M399.073 78.2097C390.756 80.3736 382.516 82.7951 374.713 86.5304C369.924 88.8231 369.512 90.4718 372.55 95.0315C371.495 94.9542 370.439 94.8769 369.383 94.7996C367.375 94.7996 365.34 94.439 363.332 95.0057C359.521 95.9073 355.607 95.4694 351.744 95.6497C347.341 95.8558 347.135 95.9589 347.264 100.467C347.367 103.61 347.547 106.778 347.676 109.921C347.367 112.832 347.65 115.717 347.573 118.628C347.573 117.675 347.238 116.696 347.933 115.82C348.217 120.225 348.5 124.631 348.783 129.01C348.654 129.01 348.5 129.036 348.371 129.061C343.067 128.726 338.174 127.542 334.595 123.162C333.874 122.286 333.565 121.488 333.616 120.457C332.767 119.324 333.436 117.752 332.535 116.645C331.402 108.453 335.161 101.678 339.075 95.083C344.921 85.2682 353.727 78.4416 363.898 73.9077C371.314 70.6103 379.554 69.5284 387.691 72.3105C388.644 72.6196 389.52 73.1349 390.421 73.5728C390.73 75.0412 392.172 74.088 392.867 74.7063C394.721 76.2261 397.682 75.814 399.073 78.2097V78.2097Z" fill="#564F4B"/>
<path d="M358.336 210.414C358.388 209.357 359.263 208.894 359.907 208.327C360.37 207.889 361.04 207.889 361.581 208.327C362.018 208.688 362.147 209.306 361.864 209.692C360.525 211.599 361.684 212.32 363.28 212.912C363.95 214.999 362.353 214.587 361.246 214.767C360.267 214.922 359.057 213.84 358.31 215.282C356.817 215.36 355.272 215.798 353.907 214.819C354.551 213.762 355.22 212.732 355.864 211.676C356.431 210.748 357.744 211.341 358.336 210.439V210.414Z" fill="#EAC3AE"/>
<path d="M358.337 215.231C358.517 214.406 356.946 213.943 357.693 213.17C358.362 212.5 359.083 213.273 359.83 213.634C361.066 214.226 362.534 214.844 363.281 212.861C364.645 211.727 365.959 212.706 367.323 212.861C369.229 213.118 371.134 213.453 373.04 213.556C373.4 213.659 373.684 213.865 373.89 214.175C368.74 214.973 363.538 215.308 358.337 215.205V215.231Z" fill="#E7BFB6"/>
<path d="M349.761 143.77C351.229 144.054 350.946 145.239 350.946 146.192C350.946 150.983 350.92 155.775 350.894 160.566C349.916 155.002 349.658 149.386 349.761 143.745V143.77Z" fill="#EABFB5"/>
<path d="M397.347 212.964C396.498 212.139 396.935 211.676 397.862 211.676C399.871 211.676 401.622 212.346 402.806 214.097C400.463 216.854 399.691 216.648 398.223 212.887C397.94 212.887 397.656 212.912 397.373 212.938L397.347 212.964Z" fill="#E9C3AC"/>
<path d="M475.499 201.784C474.083 201.449 474.392 200.29 474.366 199.337C474.366 196.606 474.392 193.875 474.418 191.17C475.293 194.674 475.602 198.203 475.474 201.81L475.499 201.784Z" fill="#DFBDBB"/>
<path d="M382.412 221.594C381.769 222.83 380.61 222.753 379.451 222.753C376.67 222.727 373.915 222.701 371.134 222.676C374.842 221.903 378.627 221.671 382.412 221.594Z" fill="#1F2C54"/>
<path d="M398.197 212.912C399.279 215.05 400.669 215.9 402.781 214.123C403.502 217.523 399.948 215.9 398.996 217.343C398.738 215.875 398.455 214.406 398.197 212.938V212.912Z" fill="#EEC0B5"/>
<path d="M248.59 182.128C248.719 179.81 247.56 177.285 249.62 175.225C249.723 177.595 249.697 179.939 248.59 182.128Z" fill="#6B414B"/>
<path d="M249.594 170.948C247.302 168.733 248.899 165.951 248.538 163.478C249.62 165.873 249.491 168.424 249.594 170.948Z" fill="#653A3F"/>
<path d="M373.89 214.2C373.632 214.149 373.375 214.072 373.117 214.02C372.782 213.634 372.782 213.247 373.143 212.887C373.967 212.217 374.791 212.217 375.615 212.887C376.593 212.99 377.829 212.526 378.087 214.072C376.696 214.123 375.28 214.175 373.89 214.2Z" fill="#EEBFB7"/>
<path d="M392.867 74.7063C392.584 74.8093 392.249 74.8093 392.043 74.9896C391.348 75.5821 390.549 76.3807 389.751 75.5821C389.03 74.8608 390.601 74.3971 390.421 73.5728C391.476 73.4182 392.197 74.0365 392.867 74.7063Z" fill="#574F57"/>
<path d="M386.61 214.046C389.443 213.093 392.353 213.582 395.237 213.531C392.43 214.716 389.494 213.917 386.61 214.046Z" fill="#80739B"/>
<path d="M533.745 158.274C534.492 157.192 535.11 156.29 535.908 155.157C535.942 157.012 535.221 158.051 533.745 158.274Z" fill="#7470B2"/>
<path d="M348.371 129.061C348.371 129.061 348.629 128.932 348.783 129.01C349.169 131.405 349.195 133.801 349.066 136.223C347.753 133.956 348.809 131.431 348.371 129.061V129.061Z" fill="#83749D"/>
<path d="M470.477 132.152C471.07 132.127 471.636 132.075 472.228 132.049C473.258 132.796 474.649 131.946 475.653 132.771C475.576 132.977 475.524 133.157 475.447 133.363C473.851 133.75 472.28 133.878 470.709 133.286H470.683C470.297 132.977 470.271 132.616 470.477 132.178V132.152Z" fill="#9785A3"/>
<path d="M332.509 116.645C334.569 117.417 333.333 119.143 333.591 120.457C332.149 119.504 332.381 118.061 332.509 116.645Z" fill="#575057"/>
<path d="M248.384 161.082C246.401 160.283 247.534 158.609 247.303 157.295C248.384 158.351 248.616 159.639 248.384 161.082Z" fill="#653A3E"/>
<path d="M350.895 161.056C352.208 160.515 352.208 161.365 352.182 162.267C352.156 163.04 352.388 164.096 350.972 163.555C350.972 162.731 350.92 161.906 350.895 161.082V161.056Z" fill="#EABFB5"/>
<path d="M475.653 132.745C474.495 132.616 473.259 132.797 472.229 132.024C474.237 132.024 476.246 131.792 478.177 132.539C477.327 132.59 476.503 132.668 475.653 132.719V132.745Z" fill="#4F508E"/>
<path d="M470.71 133.26C472.281 133.286 473.877 133.312 475.448 133.338C475.577 133.492 475.654 133.672 475.757 133.853C474.083 133.698 472.255 134.574 470.71 133.26V133.26Z" fill="#D8C1D7"/>
<path d="M350.972 165.977C352.645 166.749 352.671 167.574 351.049 168.45C351.023 167.625 350.997 166.801 350.972 165.977Z" fill="#EABFB5"/>
<path d="M398.558 225.046C398.326 225.097 398.12 225.175 397.889 225.226C397.966 223.964 397.425 222.65 398.378 221.517C398.429 222.702 398.507 223.887 398.558 225.046Z" fill="#23223F"/>
<path d="M459.044 251.734C461.851 250.703 464.632 249.57 467.516 248.72C469.164 248.23 470.915 248.256 472.537 249.312C474.314 250.446 476.22 251.347 478.074 252.352C477.893 254.104 479.001 253.692 479.979 253.485C480.571 253.511 481.164 253.563 481.73 253.588C483.224 254.439 484.434 255.392 482.915 257.221L475.627 257.375C475.215 257.633 474.752 257.607 474.314 257.478C473.413 256.706 471.379 257.092 471.765 254.98C472.203 254.31 473.49 254.001 472.718 252.713C472.228 253.305 472.718 254.129 472.125 254.619C471.301 255.675 470.117 254.851 469.138 255.237C467.13 255.237 465.147 255.134 463.37 254.078C462.598 253.588 461.774 253.202 460.847 253.151C460.435 253.099 460.049 252.996 459.688 252.79C459.302 252.558 459.147 252.172 459.019 251.759L459.044 251.734Z" fill="#C93B37"/>
<path d="M460.796 258.586C460.512 259.307 462.006 259.668 461.208 260.389C460.615 260.956 459.946 260.853 459.354 260.183C459.045 259.823 458.452 259.488 458.015 259.539C454.41 259.797 452.942 258.148 453.354 254.645C453.431 254.026 453.277 253.408 452.762 252.996C453.431 250.497 454.822 252.146 455.98 252.455C456.161 253.048 455.903 253.537 455.697 254.052C455.131 255.134 455.156 256.113 456.186 256.937C456.418 257.092 456.624 257.272 456.83 257.427C458.092 258.045 459.766 257.221 460.796 258.638V258.586Z" fill="#1F2B4D"/>
<path d="M451.243 257.298C450.702 254.052 450.47 251.09 451.217 248.385C451.706 246.556 453.895 247.509 455.672 247.947C452.17 248.513 451.526 250.265 452.504 253.331C452.736 254.026 452.685 255.907 451.268 257.324L451.243 257.298Z" fill="#1F2B4D"/>
<path d="M455.672 257.375C453.251 256.345 454.461 254.877 455.208 253.486C456.573 254.464 456.959 253.692 457.088 252.429C457.706 252.12 458.556 252.429 459.019 251.708C459.199 251.914 459.38 252.12 459.56 252.326C460.77 254.001 460.719 255.701 459.714 257.427C458.35 258.122 457.011 258.019 455.672 257.375Z" fill="#C43B33"/>
<path d="M479.979 253.486C479.67 255.134 478.357 255.186 477.456 254.516C476.4 253.743 476.683 252.739 478.1 252.352C479.001 252.275 479.593 252.739 480.005 253.486H479.979Z" fill="#CE3A2F"/>
<path d="M457.113 252.455C457.113 252.455 457.165 252.661 457.19 252.738C457.448 253.691 459.199 254.619 457.911 255.443C457.242 255.881 455.568 254.98 455.233 253.485C455.491 253.125 455.748 252.764 456.006 252.429C456.366 252.429 456.753 252.429 457.113 252.429V252.455Z" fill="#C53B3C"/>
<path d="M482.915 257.221C483.43 255.727 482.683 254.619 481.73 253.588C482.683 253.64 483.945 253.254 484.177 254.696C484.331 255.727 484.666 257.04 482.915 257.221V257.221Z" fill="#401C3A"/>
<path d="M474.366 257.169C474.778 257.246 475.216 257.298 475.628 257.375C474.495 258.303 473.13 257.736 471.894 257.916C470.864 258.431 469.808 258.303 468.778 257.968C468.778 256.654 469.783 256.654 470.658 256.474C471.92 256.628 473.207 256.499 474.366 257.169V257.169Z" fill="#473959"/>
<path d="M460.795 258.586C459.199 258.2 457.396 259.153 455.929 257.865C457.808 257.556 459.688 257.247 461.594 257.556C461.903 257.788 462.057 258.071 461.98 258.457C461.568 258.509 461.182 258.535 460.77 258.586H460.795Z" fill="#6D1B2C"/>
<path d="M462.006 258.483C462.006 258.328 462.032 258.174 462.057 257.993C462.135 257.865 462.238 257.736 462.315 257.633C463.551 256.86 464.941 257.143 466.28 257.118C466.718 257.118 467.156 257.195 467.594 257.324C467.877 257.427 468.109 257.581 468.315 257.787C468.469 258.071 468.418 258.303 468.16 258.509C466.1 258.509 464.04 258.509 462.006 258.509V258.483Z" fill="#4C1227"/>
<path d="M468.186 258.483C468.186 258.328 468.186 258.148 468.186 257.994C468.34 257.762 468.546 257.71 468.778 257.865C469.808 257.865 470.838 257.89 471.868 257.916C470.761 258.998 469.396 258.38 468.16 258.509L468.186 258.483Z" fill="#301E3B"/>
<path d="M442.848 275.047C442.925 274.481 442.976 273.914 443.054 273.347C443.749 274.326 443.62 275.356 443.131 277.005C442.976 275.975 442.899 275.511 442.848 275.047Z" fill="#1E2846"/>
<path d="M444.059 266.366C444.136 265.619 444.239 264.872 444.316 264.125C444.754 264.923 445.346 265.773 444.059 266.366Z" fill="#222845"/>
<path d="M441.612 281.822C441.69 281.256 441.767 280.689 441.844 280.122C442.436 280.818 442.565 281.771 442.127 282.389C441.741 282.904 441.793 282.028 441.612 281.822V281.822Z" fill="#202845"/>
<path d="M387.279 253.949C387.614 259.024 386.919 264.125 387.923 269.174C388.155 270.359 388.206 271.467 388.876 272.6C390.266 274.944 388.206 277.005 387.923 279.22C386.687 270.822 385.966 262.424 387.279 253.949V253.949Z" fill="#F4EEF0"/>
<path d="M357.615 225.484C355.272 227.261 352.234 225.587 349.813 227.081C349.762 227.106 348.809 226.437 348.938 225.458C351.77 224.943 354.68 225.329 357.615 225.484V225.484Z" fill="#1E2A4C"/>
<path d="M388.387 283.291C389.854 282.595 388.593 280.715 389.88 279.813C391.708 282.466 389.005 284.579 389.159 286.949C389.03 286.871 388.876 286.794 388.721 286.743C387.872 285.661 388.412 284.424 388.361 283.265L388.387 283.291Z" fill="#F4EEF0"/>
<path d="M385.657 266.314V257.994C385.657 257.994 385.863 257.994 385.966 257.994V266.34C385.966 266.34 385.76 266.34 385.657 266.314V266.314Z" fill="#212A4C"/>
<path d="M387.924 247.303C387.718 249.389 388.67 251.605 387.28 253.588C387.151 251.45 387.1 249.338 387.924 247.303Z" fill="#F4EEF0"/>
<path d="M388.387 283.29C388.516 284.45 388.619 285.609 388.747 286.768C387.357 285.841 388.258 284.424 388.001 283.265C388.129 283.29 388.258 283.316 388.387 283.316V283.29Z" fill="#252B43"/>
<path d="M390.138 251.991V267.061C388.902 266.057 389.082 265.052 389.237 264.279C390.035 260.466 387.228 256.525 390.138 251.991Z" fill="#F4EEF0"/>
<path d="M224.359 178.316C219.492 182.18 213.776 183.751 207.724 184.344C206.051 184.498 204.248 185.065 202.986 183.288C199.716 181.51 199.562 178.058 199.072 175.122C198.145 169.66 198.712 164.147 200.257 158.789C200.566 157.682 201.107 156.703 202.162 156.136C206.205 153.946 210.531 154.642 214.703 155.337C217.767 155.827 220.393 157.707 222.711 159.717C228.839 165.023 229.638 169.119 226.264 176.435C225.852 177.285 225.234 177.904 224.385 178.316H224.359Z" fill="#010101"/>
<path d="M161.452 197.25C160.756 203.664 165.417 208.585 170.619 209.538C176.979 210.697 183.494 205.906 183.648 199.44C183.7 197.817 183.622 196.22 184.395 194.648C185.348 192.742 186.712 191.815 188.772 191.943C191.013 192.072 192.249 193.566 192.867 195.524C194.154 199.594 193.021 203.536 191.322 207.116C186.79 216.622 176.927 221.001 166.705 218.425C159.675 216.648 153.109 209.048 152.104 201.81C151.77 199.44 151.77 197.199 152.13 194.854C152.671 191.583 154.551 189.857 157.769 190.089C160.988 190.295 161.374 192.613 161.426 195.138C161.426 195.859 161.426 196.58 161.426 197.302L161.452 197.25Z" fill="#472315"/>
<path d="M221.347 145.033C219.956 147.274 218.102 147.532 215.553 147.017C207.596 145.445 199.588 144.106 191.914 148.305C190.498 149.077 188.979 149.773 187.975 151.112C187.537 151.808 186.713 151.937 186.095 152.375C183.906 153.199 182.67 155.26 180.739 156.419C178.782 157.604 176.748 158.094 175.177 156.316C173.529 154.461 174.353 152.504 176.104 150.984C178.421 149 180.765 147.017 183.082 145.033C183.52 144.363 184.37 144.234 184.936 143.771C194.67 137.227 205.304 137.279 216.222 139.546C218.205 139.958 220.291 140.422 221.347 142.508C221.99 143.333 221.99 144.157 221.347 144.981V145.033Z" fill="#030303"/>
<path d="M202.137 156.161C199.227 164.791 198.12 173.395 202.214 181.999C202.42 182.463 202.729 182.875 202.986 183.313C202.549 184.472 201.596 183.957 200.875 183.88C194.103 182.952 187.845 180.737 182.283 176.693C181.202 175.894 180.352 175.018 181.305 173.653C185.837 167.135 190.987 161.21 198.12 157.398C199.356 156.728 200.617 155.955 202.137 156.187V156.161Z" fill="#F7F3F0"/>
<path d="M120.407 192.432C117.574 191.943 115.385 190.526 114.639 187.667C113.866 184.653 115.9 179.835 118.141 178.728C119.48 178.058 120.535 178.161 120.922 179.861C121.72 183.416 121.952 187.1 122.904 190.655C123.291 192.046 121.874 192.716 120.407 192.432Z" fill="#472315"/>
<path d="M202.06 116.001C203.399 115.279 204.738 115.202 206.437 115.897C204.789 117.031 203.424 116.748 202.06 116.001Z" fill="#5C3613"/>
<path d="M221.347 145.033C221.347 144.208 221.347 143.384 221.347 142.56C223.046 143.384 223.046 144.208 221.347 145.033Z" fill="#542C1D"/>
<path d="M224.359 178.316C224.823 177.517 225.415 176.873 226.239 176.435C226.394 177.826 225.75 178.47 224.359 178.316Z" fill="#5C3328"/>
<path d="M184.936 143.797C184.55 144.569 183.932 144.982 183.082 145.059C183.134 143.797 184.009 143.771 184.936 143.797Z" fill="#522921"/>
<path d="M186.095 152.4C186.481 151.653 187.099 151.215 187.974 151.138C187.949 152.426 187.047 152.452 186.095 152.4Z" fill="#533020"/>
<path d="M394.052 165.951C393.408 167.496 391.915 167.342 390.679 167.496C383.675 168.449 377.005 167.599 371.366 162.911C364.362 157.115 364.259 147.867 371.083 141.916C375.229 138.284 380.198 136.635 385.657 136.223C386.584 136.146 387.202 136.506 387.82 137.047C388.438 137.253 388.876 137.665 389.211 138.181C393.151 144.878 395.726 152.014 395.648 159.897C395.648 161.984 395.648 164.199 394.052 165.951V165.951Z" fill="#020202"/>
<path d="M447.278 184.498C446.891 184.911 446.479 185.349 446.093 185.761C445.501 186.224 445.012 186.74 445.269 187.59C442.308 191.583 438.445 194.313 433.656 195.679C432.471 195.292 431.39 195.318 430.154 195.833C428.145 196.658 425.854 196.658 423.897 195.936C421.811 195.163 419.802 194.957 417.691 195.035C416.583 195.138 415.76 194.648 415.142 193.772C413.365 191.583 410.404 190.707 408.987 188.156C408.112 186.714 409.476 185.89 409.888 184.859C410.069 184.808 410.12 184.705 410.017 184.55C409.992 184.73 409.863 184.833 409.631 184.833C409.142 184.833 408.781 184.627 408.55 184.241C408.009 183.056 408.009 181.897 408.73 180.763C409.94 179.681 411.382 179.965 412.798 180.068C413.854 180.377 414.936 180.609 415.219 181.897C415.734 183.107 417.073 183.623 417.588 184.885C418.18 186.353 419.339 184.55 420.188 185.117C421.605 185.323 422.815 186.173 424.205 186.431C424.592 186.559 424.978 186.74 425.338 186.946C426.729 187.59 428.12 187.564 429.536 186.997C429.896 186.791 430.257 186.611 430.643 186.431C432.059 185.838 433.372 184.911 434.995 184.911C437.776 185.246 439.321 184.138 439.939 181.407C440.351 179.552 440.351 177.595 441.02 175.766L441.123 173.421C441.304 173.164 441.458 172.906 441.561 172.623C441.896 170.459 441.303 168.269 441.947 166.131C442.282 165.719 442.72 165.616 443.209 165.667C443.492 165.77 443.724 165.951 443.904 166.208C444.368 167.883 443.956 169.609 444.136 170.948C444.265 169.635 443.93 167.934 444.316 166.26C444.471 166.002 444.677 165.796 444.934 165.667C447.406 165.745 447.844 167.393 447.844 169.3C447.947 168.295 447.715 167.187 447.638 166.08C447.69 165.307 447.818 164.585 448.462 164.07C449.595 163.71 449.981 164.534 450.393 165.307C450.548 165.539 450.702 165.77 450.882 166.002C450.754 168.887 451.475 171.824 450.342 174.632C449.621 175.328 450.342 176.332 449.801 177.054C449.775 177.852 449.724 178.651 449.698 179.475C449.312 181.33 449.131 183.288 447.303 184.473L447.278 184.498Z" fill="#C66BA2"/>
<path d="M388.876 119.865C392.095 119.994 395.365 120.251 398.584 120.972C401.854 121.694 403.682 123.935 403.245 126.459C402.781 129.242 400.412 130.787 396.884 130.221C389.649 129.036 382.567 129.267 375.615 131.689C373.478 132.436 371.546 133.595 369.641 134.806C366.808 136.583 364.105 136.146 362.611 133.801C361.246 131.637 361.864 128.933 364.388 127.104C371.675 121.848 380.07 120.277 388.876 119.865V119.865Z" fill="#030202"/>
<path d="M394.052 165.951C396.241 155.389 392.584 146.115 387.82 137.047C389.365 135.708 391.194 136.661 392.893 136.455C395.442 135.939 397.193 137.537 399.073 138.825C404.506 142.277 408.498 146.579 407.648 153.637C406.515 155.157 406.077 156.986 405.279 158.66C403.09 162.911 397.605 166.466 394.026 165.951H394.052Z" fill="#F8F2EE"/>
<path d="M478.641 148.742C478.744 151.396 476.092 154.874 473.465 155.724C472.384 156.084 471.972 155.852 471.894 154.745C471.714 151.293 471.482 147.841 471.276 144.389C471.199 143.152 471.56 142.431 473.002 142.611C475.525 142.921 478.538 146.166 478.641 148.768V148.742Z" fill="#B57D65"/>
<path d="M424.36 187.023C422.712 187.306 421.45 186.327 420.085 185.709C419.261 184.885 417.227 185.297 417.587 183.262C418.592 183.21 419.467 183.365 420.343 184.06C421.244 184.782 422.222 184.704 422.531 183.262C422.763 183.056 422.995 182.824 423.304 182.772C424.926 182.489 426.574 182.747 428.016 182.644C426.754 182.36 425.132 183.236 423.793 182.025C424.308 180.042 425.93 180.943 427.115 180.815C428.325 180.686 429.561 180.84 430.797 180.763C432.703 180.66 434.145 180.918 433.552 183.391C433.243 184.627 434.145 184.395 434.84 184.473C434.994 184.601 435.046 184.73 435.02 184.859C434.994 185.014 434.969 185.065 434.917 185.065C433.449 185.632 432.368 187.074 430.617 186.997C430.076 187.306 429.535 187.461 428.917 187.255C427.862 185.812 426.78 185.117 425.647 187.203C425.209 187.306 424.797 187.255 424.411 186.997L424.36 187.023Z" fill="#ECC0B2"/>
<path d="M449.054 164.147C448.384 164.611 448.487 165.332 448.461 166.002C447.225 167.239 445.989 164.431 444.753 166.002C444.341 166.363 443.929 166.363 443.517 166.002C442.59 164.74 441.612 163.529 441.226 161.983C441.226 161.7 441.251 161.442 441.38 161.185C441.844 160.438 442.719 160.026 443.028 159.15C443.183 158.969 443.363 158.789 443.543 158.609C446.17 158.48 448.951 158.068 449.749 161.649C450.393 162.731 450.315 163.606 449.028 164.147H449.054Z" fill="#C66CA2"/>
<path d="M434.865 185.091C434.865 184.885 434.865 184.678 434.788 184.498C437.621 182.128 439.475 179.088 440.994 175.791C440.968 179.191 441.56 182.643 438.445 185.4C436.797 186.842 435.921 186.585 434.84 185.091H434.865Z" fill="#C66E9F"/>
<path d="M417.588 194.365C420.06 194.442 422.48 194.236 424.926 195.395C426.317 196.065 428.377 196.013 430.128 194.88C431.853 193.746 433.089 194.21 433.63 195.653C433.63 195.833 433.604 195.988 433.578 196.168C432.703 196.992 431.441 196.116 430.54 196.786H423.767C423.046 196.194 422.042 196.863 421.296 196.245C420.652 195.472 419.725 195.653 418.875 195.575C418.489 195.112 417.253 195.575 417.562 194.39L417.588 194.365Z" fill="#C5719F"/>
<path d="M412.772 180.068C411.69 181.304 410.248 180.634 408.961 180.815C408.162 182.051 407.879 183.288 408.961 184.524H410.197C410.609 185.993 409.347 186.92 408.986 188.156C405.613 185.477 405.175 182.412 407.75 179.604C409.398 178.264 411.021 178.728 412.669 179.604C412.72 179.758 412.746 179.939 412.772 180.093V180.068Z" fill="#C46EA0"/>
<path d="M373.169 212.887C373.169 213.273 373.169 213.66 373.143 214.02C369.77 214.432 366.5 213.917 363.307 212.887C365.418 210.414 368.045 211.676 370.388 212.14C371.263 212.32 372.165 212.912 373.169 212.887V212.887Z" fill="#EAC3AE"/>
<path d="M447.277 184.498C448.101 182.849 448.385 180.943 449.672 179.5C449.955 180.016 450.29 180.505 450.548 181.046C451.14 182.334 451.088 183.468 450.136 184.678C448.951 186.173 448.23 184.421 447.277 184.498Z" fill="#E9BBB2"/>
<path d="M423.767 182.025H431.956C431.956 182.438 431.956 182.85 431.956 183.262C428.814 183.262 425.673 183.262 422.531 183.262C422.557 182.463 422.969 182.051 423.767 182.025Z" fill="#E9C3AD"/>
<path d="M399.073 138.824C397.013 138.026 394.953 137.253 392.893 136.454C393.742 134.213 395.313 134.935 396.523 135.81C397.553 136.558 398.223 137.794 399.073 138.824Z" fill="#E9C3B7"/>
<path d="M470.477 132.153C470.555 132.513 470.632 132.9 470.684 133.26C470.117 133.441 469.216 133.93 469.036 133.75C467.259 131.818 464.555 132.591 462.572 131.406C465.302 130.53 467.877 131.406 470.477 132.153V132.153Z" fill="#E6C1AB"/>
<path d="M464.015 136.97C461.465 137.743 458.89 137.768 456.315 137.073C458.839 136.145 461.414 136.403 464.015 136.97Z" fill="#EEC0B3"/>
<path d="M417.613 183.288C418 184.55 419.648 184.524 420.111 185.735C415.914 187.718 416.558 183.545 415.219 181.896C416.017 182.36 416.815 182.824 417.639 183.288H417.613Z" fill="#C46E9F"/>
<path d="M417.587 194.365C418.025 194.751 418.463 195.163 418.901 195.55C415.682 197.224 415.27 197.095 414.472 194.159C414.472 194.081 414.909 193.875 415.115 193.747C415.939 193.953 416.738 194.159 417.562 194.365H417.587Z" fill="#ECBEB7"/>
<path d="M443.543 158.609C443.492 158.789 443.466 158.969 443.466 159.15C442.977 159.871 442.513 160.644 441.664 161.03C441.612 161.21 441.586 161.416 441.612 161.623C441.226 162.55 442.101 163.632 441.329 164.534C441.2 164.611 441.097 164.688 440.968 164.765C439.217 164.224 439.552 162.679 440.067 161.829C440.865 160.515 440.865 157.99 443.543 158.609Z" fill="#E7B7B5"/>
<path d="M375.641 212.861C374.817 212.861 373.993 212.861 373.169 212.861C373.246 211.779 372.937 210.671 373.529 209.538C375.332 209.976 375.744 211.238 375.641 212.861V212.861Z" fill="#EAC3AE"/>
<path d="M405.305 158.66C405.099 156.522 405.948 154.873 407.674 153.637C407.262 155.491 406.978 157.398 405.305 158.66Z" fill="#FBEDE5"/>
<path d="M347.959 115.794C347.882 116.67 347.804 117.52 347.701 118.396C347.444 115.562 346.774 112.729 347.676 109.921C347.779 111.879 347.856 113.837 347.959 115.794V115.794Z" fill="#604B45"/>
<path d="M441.638 173.396C441.457 173.396 441.277 173.396 441.123 173.421C441.071 170.536 441.02 167.651 440.942 164.74H441.123C441.535 164.585 441.818 164.74 441.972 165.152C441.792 167.883 442.307 170.665 441.638 173.37V173.396Z" fill="#E194B9"/>
<path d="M412.669 179.552C411.021 179.681 409.399 178.779 407.751 179.552C409.399 177.929 411.021 177.466 412.669 179.552Z" fill="#C876A2"/>
<path d="M451.552 129.036C453.689 129.139 455.775 129.525 457.783 130.195C455.698 129.834 453.277 131.251 451.552 129.036Z" fill="#E6BEB0"/>
<path d="M358.336 210.413C358.105 212.011 356.843 211.547 355.864 211.65C355.015 211.418 354.319 211.032 355.607 210.516C356.405 210.207 357.409 210.439 358.311 210.413H358.336Z" fill="#EDC0B4"/>
<path d="M479.104 159.304C480.7 158.428 481.653 158.428 482.966 159.176C481.73 160.051 480.752 159.897 479.104 159.304Z" fill="#F0BFB2"/>
<path d="M363.307 95.0053C365.289 94.0006 367.324 94.3098 369.358 94.7992C367.349 95.2372 365.315 95.0826 363.307 95.0053Z" fill="#644B41"/>
<path d="M449.054 164.147C449.569 163.4 449.723 162.524 449.775 161.648C449.955 161.7 450.109 161.751 450.29 161.777C450.882 163.143 450.727 164.534 450.367 165.925C449.929 165.332 449.491 164.74 449.054 164.147Z" fill="#C07E90"/>
<path d="M355.864 209.125C355.478 209.1 355.015 209.074 355.015 208.559C355.015 208.043 355.478 208.018 355.864 208.018C356.251 208.018 356.714 208.069 356.714 208.584C356.714 209.1 356.251 209.1 355.864 209.125Z" fill="#EAC3AE"/>
<path d="M450.341 165.925C450.315 164.534 450.289 163.168 450.264 161.777C451.731 163.014 450.598 164.611 450.856 166.028C450.676 166.002 450.521 165.951 450.341 165.925Z" fill="#E9A4B9"/>
<path d="M467.825 136.712C467.877 137.459 467.413 137.562 467.053 137.511C466.718 137.485 466.203 137.279 466.126 137.047C465.945 136.506 466.486 136.429 466.872 136.429C467.207 136.429 467.542 136.609 467.825 136.686V136.712Z" fill="#E6C1AB"/>
<path d="M473.156 162.318C472.847 162.138 472.332 162.009 472.255 161.752C472.152 161.314 472.615 161.159 473.002 161.108C473.826 161.056 474.263 161.442 474.341 162.267C473.954 162.602 473.542 162.653 473.13 162.293L473.156 162.318Z" fill="#F3BCB2"/>
<path d="M473.156 162.318C473.568 162.318 473.954 162.318 474.366 162.292C474.675 162.473 475.19 162.602 475.241 162.859C475.344 163.297 474.881 163.452 474.469 163.477C473.645 163.529 473.207 163.143 473.13 162.318H473.156Z" fill="#E2C7AC"/>
<path d="M458.35 130.272C459.354 130.323 460.41 130.04 461.285 130.839C460.229 131.122 459.148 131.379 458.35 130.272Z" fill="#E6BEB0"/>
<path d="M449.774 177.105C449.774 176.152 449.517 175.096 449.826 174.246C450.032 173.705 450.186 174.452 450.315 174.684C450.315 175.534 450.495 176.41 449.774 177.105Z" fill="#BD798D"/>
<path d="M430.565 196.786C431.441 195.936 432.6 196.348 433.604 196.168C432.78 197.276 431.595 196.709 430.565 196.786Z" fill="#EEA7C7"/>
<path d="M421.347 196.245C422.196 196.271 423.123 196.065 423.819 196.812C422.995 196.657 421.965 197.378 421.347 196.245Z" fill="#F1ACC6"/>
<path d="M445.269 187.59C444.393 186.482 444.779 185.915 446.092 185.761C445.809 186.379 445.552 186.971 445.269 187.59Z" fill="#C3759D"/>
<path d="M468.804 257.865C468.598 257.916 468.392 257.942 468.211 257.994L468.263 257.788C467.387 256.783 466.435 257.092 465.43 257.581C464.967 257.581 464.555 257.581 464.143 257.298C462.881 256.293 462.031 255.186 463.267 253.614C465.353 253.898 467.465 254.026 469.422 254.851C470.374 255.366 471.379 255.83 470.658 257.221C470.04 257.478 469.216 257.092 468.804 257.891V257.865Z" fill="#CF393A"/>
<path d="M463.267 253.589C462.855 255.083 464.091 255.984 464.503 257.195C463.757 257.916 462.83 257.453 461.98 257.581C461.439 257.581 460.872 257.633 460.512 257.118C460.1 255.495 459.868 253.898 460.821 252.352C461.799 252.455 463.061 251.966 463.293 253.589H463.267Z" fill="#CD3B31"/>
<path d="M472.152 251.219C473.182 251.657 474.212 252.301 474.263 253.692C474.289 254.825 473.285 254.98 472.538 254.8C471.199 254.439 472.255 252.739 471.147 251.992C470.761 251.734 471.482 251.245 472.152 251.245V251.219Z" fill="#CD3B32"/>
<path d="M470.658 257.195C470.246 256.396 469.834 255.624 469.422 254.825C470.246 252.403 471.07 255.546 471.894 254.825C471.791 256.551 474.34 255.546 474.34 257.169C473.104 257.169 471.868 257.169 470.632 257.169L470.658 257.195Z" fill="#CD3B32"/>
<path d="M460.796 252.352C460.796 253.975 460.796 255.572 460.796 257.195C460.409 257.659 459.972 257.633 459.56 257.247C459.56 255.624 459.56 253.975 459.56 252.352C459.972 252.352 460.384 252.352 460.796 252.352V252.352Z" fill="#D0383C"/>
<path d="M469.783 251.656C468.624 252.404 467.774 252.687 467.13 251.605C466.873 251.141 466.898 250.42 467.388 250.265C468.443 249.956 468.958 250.909 469.757 251.656H469.783Z" fill="#D13835"/>
<path d="M459.586 257.246C459.998 257.246 460.409 257.221 460.821 257.195C461.233 257.246 461.646 257.298 462.058 257.375C462.264 257.504 462.315 257.607 462.238 257.71C462.16 257.813 462.083 257.865 462.032 257.865L462.083 258.019C460.049 257.968 457.989 257.942 455.955 257.89C455.852 257.736 455.775 257.581 455.697 257.401C456.985 257.349 458.298 257.298 459.586 257.272V257.246Z" fill="#A14F5F"/>
<path d="M465.74 257.195C465.869 256.293 466.435 255.984 467.259 256.113C468.212 256.267 468.161 257.066 468.238 257.762C467.826 257.762 467.388 257.762 466.976 257.762C466.616 257.452 465.946 257.762 465.74 257.169V257.195Z" fill="#C6422B"/>
<path d="M465.74 257.195C466.152 257.401 466.564 257.581 466.976 257.787C465.328 257.787 463.68 257.813 462.006 257.839C462.006 257.684 462.006 257.53 462.032 257.375C462.856 257.324 463.654 257.272 464.478 257.195C464.89 257.195 465.302 257.195 465.714 257.195H465.74Z" fill="#945367"/>
<path d="M202.265 170.716C202.137 169.145 202.188 168.063 203.373 168.037C204.531 167.985 204.66 169.016 204.737 169.995C204.995 172.803 205.304 175.611 206.591 178.187C206.978 178.96 207.235 179.758 206.179 180.222C205.175 180.66 204.686 179.938 204.274 179.191C202.703 176.358 202.729 173.163 202.265 170.716V170.716Z" fill="#F3EEEC"/>
<path d="M205.923 163.117C205.871 164.147 205.408 164.791 204.275 164.791C203.425 164.791 202.884 164.199 202.961 163.503C203.039 162.679 203.27 161.7 204.481 161.674C205.485 161.674 205.948 162.112 205.923 163.117Z" fill="#EEEAE9"/>
<path d="M388.541 156.213C388.516 155.595 388.438 154.976 388.438 154.384C388.438 153.611 388.696 152.915 389.52 152.735C390.498 152.529 391.245 153.173 391.348 153.972C391.734 156.78 392.044 159.613 392.172 162.473C392.224 163.374 391.606 164.224 390.421 164.224C389.056 164.224 389.108 163.245 389.031 162.318C388.876 160.283 388.696 158.248 388.516 156.239L388.541 156.213Z" fill="#F3EFED"/>
<path d="M387.125 148.098C385.992 147.918 385.761 146.501 385.58 145.29C385.426 144.183 386.301 143.616 387.357 143.822C388.799 144.08 389.237 145.239 389.314 146.501C389.366 147.557 388.876 148.253 387.125 148.098V148.098Z" fill="#F2F0EE"/>
<path d="M433.166 190.398H422.995C422.995 190.14 422.995 189.908 422.995 189.65C426.368 189.238 429.767 189.47 433.166 189.522C433.166 189.805 433.166 190.114 433.166 190.398Z" fill="#C46D9F"/>
<path d="M444.754 166.002C445.99 163.091 447.226 166.182 448.462 166.002C448.256 168.063 448.925 170.175 447.792 172.648C446.582 170.227 448.333 166.775 444.754 166.002Z" fill="#C46CA0"/>
<path d="M443.517 166.002H444.753V174.194H443.878C443.131 171.515 443.723 168.733 443.517 166.002Z" fill="#C46CA0"/>
<path d="M441.637 164.766C441.457 164.766 441.303 164.766 441.122 164.766C441.122 163.684 440.762 162.55 441.586 161.597C442.152 163.091 443.955 164.044 443.491 165.976C443.079 165.976 442.667 165.976 442.255 165.976C441.818 165.693 442.024 165.049 441.612 164.74L441.637 164.766Z" fill="#C46CA0"/>
<path d="M408.961 184.498C408.807 184.936 408.343 185.786 408.137 185.219C407.622 183.725 406.798 181.896 408.961 180.789V184.498Z" fill="#C869A3"/>
<path d="M441.638 164.766C442.127 165.023 442.256 165.487 442.281 166.002C441.947 168.449 442.951 171.025 441.638 173.395C441.638 170.51 441.638 167.651 441.638 164.766Z" fill="#BF7296"/>
<path d="M428.711 186.92C429.329 186.945 429.947 186.997 430.565 187.023C430.359 187.203 430.153 187.409 429.947 187.589C428.299 188.079 426.651 188.079 425.003 187.589C424.797 187.409 424.591 187.203 424.359 187.023C424.771 186.971 425.209 186.945 425.621 186.894C426.651 186.301 427.655 186.044 428.685 186.894L428.711 186.92Z" fill="#E499BC"/>
<path d="M418.463 190.063C418.385 190.578 417.973 190.604 417.587 190.604C417.201 190.604 416.737 190.578 416.737 190.037C416.737 189.522 417.201 189.496 417.587 189.496C417.973 189.496 418.385 189.522 418.437 190.063H418.463Z" fill="#C36E9D"/>
<path d="M425.003 187.589C426.651 187.589 428.299 187.589 429.947 187.589C428.299 188.543 426.651 188.543 425.003 187.589Z" fill="#BE7495"/>
<path d="M410.197 184.498C410.352 183.777 409.837 182.875 410.996 182.309C411.485 183.391 411.639 184.215 410.197 184.498Z" fill="#C46EA0"/>
<path d="M428.711 186.92C427.681 186.92 426.677 186.92 425.647 186.92C426.677 186.353 424.025 184.756 426.342 184.524C428.222 184.318 428.917 185.142 428.685 186.946L428.711 186.92Z" fill="#EAC3AD"/>
<path d="M441.663 161.03C442.049 160.206 442.41 159.33 443.466 159.175C443.672 160.566 443.054 161.185 441.663 161.03Z" fill="#C5789C"/>
</g>
</g>
<defs>
<clipPath id="clip0_5484_43208">
<rect width="595" height="297" fill="white"/>
</clipPath>
<clipPath id="clip1_5484_43208">
<rect width="618" height="298" fill="white" transform="translate(-12)"/>
</clipPath>
</defs>
</svg>
