<svg width="595" height="287" viewBox="0 0 595 287" fill="none" xmlns="http://www.w3.org/2000/svg">
<g clip-path="url(#clip0_5114_48679)">
<path d="M0.0499609 286.256C0.0499609 191.755 0.0747526 97.2297 0.000377604 2.72908C0.000377604 0.496197 0.496211 0 2.72746 0C199.896 0.0496196 397.088 0.0496196 594.257 0.0496196C594.802 1.06682 594.529 2.18326 594.529 3.25009C594.529 96.535 594.529 189.795 594.529 283.08C594.529 285.396 593.348 286.553 590.984 286.553C559.3 286.553 527.641 286.578 495.958 286.553C495.016 286.181 495.09 285.338 495.065 284.544C494.644 270.526 493.305 256.583 491.024 242.739C489.735 234.949 488.272 227.184 487.206 219.344C486.611 215.101 484.925 214.034 480.711 213.613C465.042 212.099 449.325 212.546 433.607 212.446C431.549 212.446 429.442 212.422 427.657 211.032C426.442 209.023 426.789 206.839 427.037 204.681C427.26 202.87 428.648 202.374 430.21 202.15C434.722 201.53 439.234 201.034 443.771 201.009C450.49 200.96 457.184 200.488 463.852 199.843C468.216 199.421 468.216 199.397 468.414 195.104C468.414 194.707 468.464 194.311 468.513 193.938C468.811 190.515 468.067 187.165 467.596 183.816C467.621 176.423 466.356 169.079 466.133 161.686C466.059 159.13 466.679 157.642 469.678 156.947C475.554 155.582 479.893 149.975 480.339 144.145C480.785 138.513 477.265 132.534 471.935 129.929C471.141 129.532 470.273 129.284 469.555 128.738C469.282 128.515 469.133 128.217 469.084 127.87C469.084 127.522 469.183 127.2 469.406 126.927C470.1 126.356 470.943 126.356 471.761 126.257C478.083 125.736 478.504 124.967 477.736 118.69C474.81 95.2201 457.283 80.5327 436.358 75.6203C423.789 72.668 411.269 72.8168 398.675 75.3722C397.807 75.5459 396.915 75.6948 396.047 75.3722C394.163 73.71 391.51 73.4867 389.527 71.9981C388.734 71.353 387.816 71.0057 386.825 70.832C376.065 66.5399 366.099 68.8224 356.529 74.4791C347.356 79.9124 340.241 87.1817 335.754 96.9816C333.622 101.646 331.961 106.31 332.407 111.52C332.283 112.86 332.457 114.125 333.275 115.266C335.283 120.154 339.696 121.494 344.208 122.66C345.323 122.957 346.588 122.709 347.431 123.801C348.398 125.984 347.307 128.465 348.447 130.649C349.29 133.005 349.265 135.462 349.092 137.893C348.794 143.078 349.439 148.214 349.96 153.35C350.059 153.672 350.133 154.019 350.158 154.342C350.232 155.185 350.232 156.029 350.232 156.872C350.232 157.716 350.307 158.535 350.232 159.378C350.232 160.247 350.232 161.09 350.282 161.959C351.273 175.827 351.819 189.721 352.662 203.589C352.687 204.086 352.761 204.582 352.959 205.028C354.1 206.145 355.562 205.847 356.926 205.897C361.76 205.897 366.545 205.4 371.355 204.904C372.768 204.656 374.206 204.78 375.619 204.681C378.272 204.458 380.949 204.582 383.602 204.582C386.279 204.731 388.982 204.954 391.659 204.408C392.452 204.21 393.271 204.036 394.089 203.912C394.609 203.912 395.08 204.061 395.452 204.483C396.246 205.847 395.824 207.485 396.469 208.899C396.469 211.429 397.634 214.134 395.452 216.391C394.039 215.945 394.609 214.456 393.965 213.588C391.734 212.471 389.378 213.042 387.122 213.29C384.593 213.538 382.09 213.737 379.561 213.637C375.991 213.712 372.446 214.109 368.9 214.63C362.777 214.754 356.752 216.143 350.604 215.969C349.712 215.945 348.844 216.292 347.976 216.342C345.348 216.49 344.233 217.88 343.762 220.386C342.398 227.556 341.01 234.751 339.795 241.945C337.489 255.69 335.63 269.459 335.456 283.427C335.456 284.593 335.481 285.834 334.291 286.603C320.086 286.727 305.855 286.603 291.65 286.653C289.195 286.727 288.972 284.643 288.327 283.08C284.063 272.734 278.039 263.505 270.106 255.616C257.016 242.64 241.322 234.329 223.349 230.235C219.407 229.342 215.366 228.92 211.424 228.027C208.945 225.893 209.093 224.554 212.341 223.239C217.795 221.006 222.679 217.905 227.34 214.382C237.157 207.013 243.479 197.188 247.496 185.751C248.76 182.104 249.9 178.432 250.148 174.562C250.793 172.478 251.314 170.369 250.991 168.136C250.942 166.896 250.942 165.63 251.016 164.39C250.966 161.859 250.743 159.378 250.099 156.922C249.925 156.178 249.851 155.458 249.876 154.689C250.049 153.3 249.429 152.109 248.958 150.893C246.826 142.111 242.736 134.37 237.207 127.175C230.067 117.896 220.795 111.818 210.085 107.724C202.251 104.747 194.119 103.829 185.665 104.152C174.955 104.549 165.262 107.799 156.188 113.133C148.775 117.499 142.676 123.379 137.842 130.574C134.669 135.288 132.115 140.275 130.132 145.584C129.71 146.676 129.264 147.792 129.091 148.958C127.826 152.506 127.752 156.302 126.959 159.974C126.487 162.182 125.719 163.497 123.636 164.315C120.042 165.73 117.339 168.037 115.381 171.56C111.662 178.234 115.48 185.453 119.744 188.654C122.422 190.688 125.421 191.854 128.843 191.681C131.272 191.557 132.933 192.623 134.049 194.832C141.437 209.569 153.61 218.773 168.732 224.504C171.98 225.745 172.253 226.34 171.484 229.863C170.889 230.756 169.947 231.029 168.98 231.277C150.312 236.016 133.727 244.749 119.224 257.327C110.422 264.969 102.985 273.776 96.9606 283.8C96.0681 285.263 95.2995 286.802 93.217 286.653C63.1943 286.653 33.1716 286.653 3.17371 286.653C2.10767 286.653 0.992044 286.926 -0.0244141 286.38L0.0499609 286.256Z" fill="#5685C4"/>
<path d="M495.635 286.231C527.616 286.231 559.597 286.231 591.554 286.33C594.231 286.33 594.281 285.214 594.281 283.204C594.231 242.045 594.256 200.885 594.256 159.75C594.256 106.533 594.256 53.2915 594.256 0.0744629C595.495 0.620279 594.801 1.6871 594.801 2.45621C594.851 20.6666 594.826 38.877 594.826 57.0874C594.826 132.782 594.826 208.502 594.876 284.197C594.876 286.429 594.38 286.926 592.149 286.926C395.675 286.876 199.176 286.876 2.70191 286.826C1.83421 286.826 0.693789 287.521 0.0244141 286.281C31.6338 286.281 63.2184 286.256 94.8277 286.231C96.5632 284.941 98.5961 285.189 100.555 285.189C130.255 285.189 159.931 285.189 189.631 285.189C221.29 285.189 252.974 285.189 284.633 285.189C286.591 285.189 288.624 284.891 290.36 286.206H334.613C335.456 285.387 336.546 285.214 337.637 285.214C354.421 285.214 371.23 284.99 388.014 285.313C399.145 284.99 410.277 285.239 421.408 285.189C425.35 285.189 429.292 285.04 433.234 285.288C452.621 285.065 472.033 285.239 491.42 285.189C492.908 285.189 494.42 285.115 495.635 286.231V286.231Z" fill="white"/>
<path d="M250.916 174.711C250.197 183.518 246.925 191.507 242.363 198.925C235.893 209.469 226.893 217.334 215.687 222.693C214.473 223.264 213.183 223.809 211.993 224.256C209.39 225.199 210.06 226.142 211.473 227.456C213.109 236.611 211.473 239.737 202.771 243.136C193.672 246.709 184.499 246.709 175.326 243.186C172.128 241.97 170.17 240.134 170.368 236.462C170.492 234.23 169.674 231.922 171.087 229.863C171.657 227.208 170.938 225.794 168.013 224.901C159.286 222.271 151.824 217.235 145.18 211.107C140.221 206.517 136.131 201.133 133.255 195.005C132.412 193.219 131.42 192.574 129.487 192.624C119.595 192.822 112.851 184.784 113.124 177.217C113.347 171.089 116.421 165.854 124.628 162.926C125.669 162.554 125.941 162.256 126.09 161.214C126.66 156.947 127.156 152.655 128.495 148.536C129.511 147.767 129.09 146.502 129.561 145.534C131.272 139.208 134.569 133.651 138.313 128.391C142.849 122.04 148.551 116.73 155.171 112.686C161.518 108.791 168.385 106.012 175.798 104.4C183.061 102.837 190.325 102.762 197.54 103.556C206.366 104.549 214.547 107.774 222.158 112.488C233.339 119.385 241.297 129.011 246.603 140.87C248.016 144.021 249.652 147.222 249.627 150.844C250.222 151.985 249.875 153.399 250.668 154.491L250.817 156.798C251.486 159.155 250.619 161.735 251.834 163.993V168.111C250.991 170.245 251.412 172.577 250.867 174.736L250.916 174.711Z" fill="#7A4024"/>
<path d="M395.278 216.019C396.221 213.588 395.254 211.032 395.7 208.576C395.427 207.41 396.394 207.336 397.088 207.137C397.782 206.914 398.427 206.74 398.353 205.822C397.063 204.929 396.196 202.895 394.113 204.383L392.08 204.929C389.353 205.624 386.527 204.731 383.775 205.425H375.594C374.924 204.632 373.759 205.128 373.04 204.458C372.544 204.011 372.569 203.019 371.949 202.944C371.33 202.87 371.528 203.838 371.156 204.235C370.983 204.458 370.759 204.632 370.512 204.756C368.652 205.301 367.14 203.714 365.33 203.962C364.165 204.11 362.95 203.689 361.859 204.433C361.611 204.557 361.339 204.656 361.066 204.706C358.735 204.458 358.488 202.82 358.81 200.935C357.769 201.109 357.372 201.878 356.727 202.25C356.033 202.771 354.769 202.448 354.645 203.738C354.174 204.83 354.05 206.269 352.339 206.17C351.174 203.465 351.794 200.563 351.596 197.759C350.777 185.702 350.232 173.619 349.563 161.562C350.182 160.743 350.207 159.949 349.488 159.18V156.823C350.232 156.004 350.331 155.21 349.414 154.441C349.315 154.292 349.315 154.144 349.414 153.995C349.116 149.727 348.868 145.46 348.868 141.193C348.868 140.052 349.116 138.836 348.323 137.794C347.976 135.363 348.447 132.882 347.678 130.5C347.059 128.242 347.604 125.91 347.331 123.627C345.596 120.973 346.141 117.971 346.141 115.093C346.141 113.728 346.29 112.364 345.794 111.049C345.472 109.064 345.794 107.054 345.522 105.07C345.645 101.919 344.803 98.8176 344.927 95.6668C345.051 91.9949 346.29 90.68 349.934 90.5312C353.678 90.3823 357.422 90.6056 361.14 89.9853C363.099 90.0846 365.057 90.035 367.016 90.0101C368.032 89.8613 369.024 90.0598 370.016 90.1838C370.809 90.3575 371.478 90.7793 372.098 91.3003C383.849 101.249 397.634 107.427 411.839 112.86C422.128 116.78 432.739 119.633 443.498 121.965C444.564 122.188 445.655 122.362 446.572 122.982C448.085 124.471 450.043 123.752 451.803 124.024C452.076 124.049 452.349 124.124 452.597 124.198C453.564 124.62 454.555 124.868 455.597 124.868C455.869 124.868 456.117 124.942 456.365 124.992C457.53 125.315 458.745 125.116 459.935 125.215C460.332 125.24 460.728 125.339 461.1 125.463C462.464 125.811 463.579 126.654 464.794 127.324C465.067 127.349 465.315 127.399 465.563 127.473C466.926 127.647 468.414 127.274 469.604 128.292C475.281 129.234 480.438 134.941 481.281 141.242C482.099 147.321 478.281 154.342 472.827 156.848C472.009 157.22 471.19 157.89 470.372 157.84C466.703 157.667 466.976 159.974 467.075 162.48C467.373 169.476 468.711 176.423 468.315 183.444C468.91 186.818 468.315 190.341 469.331 193.666C469.381 194.36 469.455 195.055 469.455 195.725C469.604 200.463 469.356 200.612 464.596 200.885C453.043 201.53 441.515 202.324 429.962 202.969C428.227 203.068 427.78 203.788 427.855 205.351C427.954 207.237 427.855 209.097 427.83 210.983C428.995 212.174 428.772 213.662 428.722 215.126C428.871 217.483 428.896 219.84 428.797 222.222C428.673 225.596 427.557 227.01 424.26 227.878C421.285 228.647 418.235 228.97 415.186 229.069C410.848 229.193 406.509 229.168 402.17 229.069C397.163 228.97 394.956 226.811 394.758 221.874C394.683 220.386 394.708 218.922 394.336 217.483C394.237 217.136 394.237 216.788 394.336 216.441C394.535 216.094 394.832 215.97 395.229 216.094L395.278 216.019Z" fill="#EBC2B0"/>
<path d="M171.112 229.838C171.211 232.865 171.36 235.892 171.36 238.943C171.36 240.06 171.955 240.606 172.773 240.978C184.252 246.486 195.557 246.138 206.862 240.234C211.646 237.728 211.101 233.684 210.952 229.565C210.927 228.796 209.961 227.804 211.498 227.457C226.72 228.747 240.826 233.585 253.767 241.499C268.295 250.356 279.576 262.389 286.988 277.82C288.302 280.55 289.616 283.279 290.36 286.231C274.543 286.231 258.701 286.281 242.884 286.281C193.524 286.281 144.188 286.256 94.8281 286.231C99.3402 277.324 105.538 269.658 112.48 262.562C125.719 249.041 141.486 239.489 159.262 233.212C163.129 231.848 167.145 230.955 171.087 229.863L171.112 229.838Z" fill="#010101"/>
<path d="M427.855 214.977C427.855 213.637 427.855 212.298 427.855 210.958C437.548 211.653 447.242 211.429 456.935 211.38C465.737 211.33 474.488 212.397 483.289 212.67C486.239 212.769 487.454 215.027 487.9 217.657C489.512 227.283 491.098 236.884 492.611 246.51C494.47 258.221 495.487 270.005 496.057 281.84C496.131 283.328 496.156 284.817 495.61 286.231C474.885 286.231 454.159 286.206 433.433 286.181C433.16 285.76 432.912 285.288 432.987 284.817C433.73 280.103 434.152 275.315 436.11 270.849C435.962 270.204 437.548 271.767 436.805 270.328C436.532 269.807 436.309 269.261 436.259 268.641C436.507 267.053 435.987 265.217 437.747 264.15C438.466 264.324 438.019 265.192 438.466 265.44C438.267 264.349 437.697 263.356 437.35 262.265C437.276 260.106 437.35 257.997 438.416 256.037C438.441 255.616 439.358 256.459 439.11 255.566C438.887 254.772 438.664 253.978 438.466 253.16C438.193 251.696 438.267 250.232 438.416 248.743C439.209 241.102 438.441 233.634 436.11 226.315C435.218 223.537 433.656 221.18 431.598 219.145C430.26 217.83 428.921 216.515 427.83 215.002L427.855 214.977Z" fill="#202A50"/>
<path d="M446.299 123.602C435.366 121.097 424.458 118.392 413.897 114.547C399.765 109.411 386.13 103.283 374.081 94.1284C372.742 93.1112 371.528 91.97 370.238 90.8783C366.718 88.3229 366.768 84.7503 370.511 82.7159C377.75 78.8208 385.56 76.4638 393.493 74.4046C394.286 74.2061 395.055 74.2309 395.774 74.6775C398.798 74.2806 401.823 73.958 404.848 73.5115C422.549 70.8816 439.506 72.8912 455.026 82.1949C469.43 90.8535 477.239 103.953 478.925 120.625C479.446 125.91 478.727 126.555 473.421 126.952C472.925 127.001 472.43 126.952 471.934 126.977C470.124 126.257 468.438 127.597 466.653 127.324C466.009 127.324 465.364 127.225 464.744 127.051C463.703 126.183 462.339 126.431 461.174 125.959L460.059 125.86C458.72 125.116 457.158 126.108 455.844 125.24H455.894C454.952 124.719 453.811 125.389 452.869 124.744L452.621 124.62L452.348 124.669C450.39 124.099 448.208 124.669 446.349 123.553L446.299 123.602Z" fill="#010101"/>
<path d="M394.658 216.193C394.609 216.317 394.584 216.466 394.584 216.615C392.65 219.418 390.369 221.974 389.006 225.224C386.403 231.451 385.609 237.951 385.089 244.55C384.593 250.157 384.419 255.765 385.188 261.347C385.485 263.604 385.014 265.887 385.758 268.095C385.981 269.236 385.956 270.402 385.956 271.568C386.031 272.759 385.684 274.025 386.502 275.091C386.675 275.364 386.824 275.637 386.948 275.935C387.717 278.217 388.014 280.624 388.609 282.956C388.882 284.097 388.981 285.263 388.113 286.231C370.288 286.231 352.463 286.181 334.638 286.157C334.315 277.448 335.257 268.839 336.249 260.205C337.91 246.014 340.538 231.997 343.364 218.004C343.736 216.143 344.406 215.573 346.191 215.498C353.777 215.101 361.289 213.836 368.9 213.712C372.495 213.166 376.213 213.91 379.758 212.67C384.395 212.422 389.006 212.174 393.642 211.95C394.187 211.926 395.105 211.281 395.129 212.595C394.559 213.737 395.278 215.027 394.658 216.168V216.193Z" fill="#202A50"/>
<path d="M395.799 74.7022C387.791 76.7863 379.857 79.1184 372.346 82.7158C367.734 84.9239 367.338 86.5117 370.263 90.9031L367.214 90.6798C365.28 90.6798 363.321 90.3324 361.388 90.8783C357.719 91.7466 353.95 91.3248 350.231 91.4985C345.992 91.697 345.794 91.7962 345.918 96.1379C346.017 99.1647 346.19 102.192 346.314 105.243C346.042 108.047 346.215 110.825 346.24 113.629C346.24 112.711 345.893 111.768 346.587 110.925C346.86 115.167 347.132 119.385 347.405 123.627L347.009 123.677C341.901 123.354 337.191 122.213 333.745 117.995C333.051 117.152 332.753 116.383 332.803 115.39C331.985 114.299 332.629 112.81 331.762 111.718C330.671 103.829 334.29 97.304 338.059 90.9527C343.686 81.5001 352.165 74.9255 361.958 70.5838C369.098 67.433 377.031 66.391 384.865 69.0456C385.783 69.3433 386.626 69.8395 387.493 70.2613C387.791 71.6754 389.179 70.7575 389.849 71.3529C391.634 72.8167 394.485 72.4197 395.823 74.7271L395.799 74.7022Z" fill="#564F4B"/>
<path d="M352.314 206.145L354.199 203.118C354.744 202.225 356.008 202.795 356.579 201.927C356.628 200.91 357.471 200.463 358.091 199.917C358.537 199.496 359.182 199.496 359.702 199.917C360.124 200.265 360.248 200.86 359.975 201.232C358.686 203.068 359.802 203.763 361.339 204.334C361.983 206.343 360.446 205.946 359.38 206.095C358.438 206.244 357.273 205.202 356.554 206.591C355.116 206.666 353.628 207.063 352.314 206.145V206.145Z" fill="#EAC3AE"/>
<path d="M356.579 206.591C356.752 205.797 355.24 205.351 355.959 204.607C356.603 203.961 357.298 204.706 358.016 205.053C359.206 205.624 360.62 206.219 361.339 204.309C362.653 203.217 363.917 204.16 365.231 204.309C367.065 204.557 368.9 204.879 370.735 204.979C371.082 205.078 371.354 205.276 371.553 205.574C366.594 206.343 361.586 206.666 356.579 206.566V206.591Z" fill="#E7BFB6"/>
<path d="M348.298 137.819C349.711 138.091 349.438 139.233 349.438 140.151C349.438 144.765 349.413 149.38 349.388 153.995C348.446 148.636 348.199 143.227 348.298 137.794V137.819Z" fill="#EABFB5"/>
<path d="M394.113 204.408C393.295 203.614 393.716 203.168 394.609 203.192C396.542 203.192 398.228 203.837 399.369 205.524C397.113 208.179 396.369 207.981 394.956 204.358L394.138 204.408H394.113Z" fill="#E9C3AC"/>
<path d="M469.381 193.641C468.017 193.318 468.315 192.202 468.29 191.284C468.29 188.654 468.315 186.024 468.339 183.419C469.182 186.768 469.48 190.192 469.356 193.641H469.381Z" fill="#DFBDBB"/>
<path d="M379.734 212.695C379.114 213.885 377.998 213.811 376.883 213.811C374.205 213.786 371.552 213.761 368.875 213.737C372.445 212.992 376.089 212.769 379.734 212.695Z" fill="#1F2C54"/>
<path d="M394.956 204.358C395.997 206.418 397.336 207.236 399.369 205.524C400.063 208.799 396.642 207.236 395.725 208.601C395.477 207.187 395.204 205.773 394.956 204.358Z" fill="#EEC0B5"/>
<path d="M251.884 163.968C249.677 161.834 251.214 159.155 250.867 156.773C251.908 159.081 251.785 161.537 251.884 163.968Z" fill="#653A3F"/>
<path d="M250.916 174.711C251.04 172.478 249.924 170.046 251.908 168.086C252.007 170.369 251.982 172.627 250.916 174.711Z" fill="#6B414B"/>
<path d="M371.553 205.599L370.809 205.425C370.487 205.053 370.487 204.681 370.834 204.334C371.627 203.689 372.42 203.689 373.214 204.334C374.156 204.433 375.346 203.986 375.594 205.475C374.255 205.525 372.891 205.549 371.553 205.599Z" fill="#EEBFB7"/>
<path d="M383.8 205.45C386.527 204.532 389.328 205.003 392.105 204.954C389.403 206.095 386.576 205.326 383.8 205.45Z" fill="#80739B"/>
<path d="M389.824 71.3283C389.551 71.4276 389.229 71.4276 389.031 71.6012C388.361 72.1719 387.593 72.941 386.824 72.1719C386.13 71.4772 387.642 71.0306 387.469 70.2367C388.485 70.0878 389.179 70.6833 389.824 71.3283Z" fill="#574F57"/>
<path d="M527.517 148.66C527.533 150.546 526.847 151.571 525.459 151.737L527.517 148.66Z" fill="#7470B2"/>
<path d="M346.984 123.627C346.984 123.627 347.232 123.503 347.381 123.578C347.753 125.885 347.778 128.192 347.654 130.524C346.389 128.341 347.406 125.91 346.984 123.652V123.627Z" fill="#83749D"/>
<path d="M464.546 126.605L466.207 126.505C467.199 127.225 468.537 126.406 469.504 127.2L469.306 127.771C467.769 128.143 466.256 128.267 464.744 127.696C464.372 127.399 464.347 127.051 464.546 126.629V126.605Z" fill="#9785A3"/>
<path d="M331.713 111.669C333.696 112.413 332.506 114.076 332.754 115.341C331.366 114.423 331.589 113.033 331.713 111.669Z" fill="#575057"/>
<path d="M349.389 154.441C350.653 153.92 350.653 154.739 350.628 155.607C350.603 156.352 350.827 157.369 349.463 156.848L349.389 154.466V154.441Z" fill="#EABFB5"/>
<path d="M129.586 145.485C129.586 145.782 129.536 146.155 129.685 146.328C130.974 147.991 129.933 148.313 128.52 148.462C128.421 147.296 128.892 146.353 129.586 145.46V145.485Z" fill="#633425"/>
<path d="M250.718 154.466C248.809 153.697 249.9 152.084 249.677 150.819C250.718 151.836 250.942 153.077 250.718 154.466Z" fill="#653A3E"/>
<path d="M469.504 127.175C468.389 127.051 467.199 127.225 466.207 126.481C468.141 126.481 470.075 126.257 471.934 126.977C471.116 127.026 470.322 127.101 469.504 127.15V127.175Z" fill="#4F508E"/>
<path d="M349.463 159.18C351.074 159.924 351.099 160.718 349.537 161.561L349.463 159.18Z" fill="#EABFB5"/>
<path d="M464.744 127.671L469.306 127.746C469.43 127.895 469.504 128.068 469.603 128.242C467.992 128.093 466.232 128.937 464.744 127.671V127.671Z" fill="#D8C1D7"/>
<path d="M394.659 216.193C394.733 215.002 394.213 213.712 395.13 212.62C395.18 213.761 395.229 214.903 395.304 216.019C395.105 216.069 394.882 216.143 394.659 216.193Z" fill="#23223F"/>
<path d="M385.114 272.065L385.064 268.566C385.163 260.329 383.428 252.117 384.444 243.856C384.519 236.115 386.081 228.722 389.675 221.849C390.816 219.691 392.056 217.533 394.584 216.639C396.543 217.458 395.824 219.22 395.7 220.51C395.204 226.092 397.758 228.449 403.36 228.201C410.253 227.878 417.169 228.424 423.987 227.01C426.789 226.439 428.078 225.075 427.855 222.122C427.681 219.765 427.855 217.384 427.855 215.002C434.474 218.674 437.3 224.802 438.589 231.823C439.631 237.554 439.953 243.384 439.383 249.215C439.234 250.678 439.333 252.167 439.333 253.656C439.432 254.4 439.755 255.169 439.085 255.814C438.763 258.047 438.441 260.305 438.118 262.538C438.267 263.108 438.441 263.679 437.92 264.175L436.953 269.063C437.077 269.633 437.276 270.204 436.73 270.7C435.639 275.86 434.524 281.021 433.433 286.206C418.31 286.231 403.187 286.256 388.089 286.281C388.089 282.634 386.378 279.284 386.229 275.662C384.915 274.049 386.428 272.883 386.948 271.469C386.527 271.792 386.329 272.213 385.882 272.313C385.585 272.337 385.337 272.263 385.114 272.089V272.065Z" fill="#F7F2F1"/>
<path d="M206.192 149.727C210.085 147.618 214.25 148.288 218.266 148.958C221.216 149.429 223.745 151.241 225.976 153.151C231.877 158.262 232.645 162.207 229.397 169.253C229.001 170.071 228.406 170.667 227.588 171.064C222.902 174.785 217.398 176.299 211.572 176.869C209.961 177.018 208.225 177.564 207.011 175.852C203.862 174.14 203.713 170.816 203.242 167.987C202.35 162.728 202.895 157.443 204.383 152.258C204.68 151.191 205.201 150.248 206.217 149.702L206.192 149.727Z" fill="#010101"/>
<path d="M167.021 189.373C166.302 197.139 172.773 201.58 178.276 201.381C183.532 201.183 188.267 196.593 188.416 191.308C188.441 190.142 188.416 188.902 188.739 187.81C189.557 185.056 191.689 183.692 194.019 184.213C196.151 184.684 198.209 188.133 197.862 190.887C196.647 200.166 192.309 206.864 182.863 209.717C172.153 212.967 159.534 204.954 158.071 193.889C157.774 191.631 157.848 189.448 158.071 187.19C158.418 183.989 160.179 182.302 163.277 182.377C165.831 182.451 166.947 183.915 166.996 187.339C166.996 188.034 166.996 188.728 166.996 189.423L167.021 189.373Z" fill="#472315"/>
<path d="M190.747 146.105C188.64 146.899 187.45 148.884 185.59 150C183.706 151.141 181.748 151.613 180.235 149.901C178.649 148.115 179.442 146.229 181.128 144.765C183.359 142.855 185.615 140.945 187.846 139.034C188.268 138.389 189.086 138.265 189.631 137.818C199.003 131.517 209.242 131.566 219.753 133.75C221.662 134.147 223.67 134.593 224.687 136.603C225.307 137.397 225.307 138.191 224.687 138.985C223.348 141.143 221.563 141.391 219.109 140.895C211.448 139.381 203.738 138.091 196.35 142.135C194.986 142.88 193.524 143.55 192.557 144.84C192.135 145.51 191.342 145.634 190.747 146.055V146.105Z" fill="#030303"/>
<path d="M206.193 149.727C203.391 158.039 202.325 166.325 206.267 174.612C206.465 175.058 206.763 175.455 207.011 175.877C206.589 176.993 205.672 176.497 204.978 176.423C198.458 175.53 192.433 173.421 187.078 169.501C186.037 168.732 185.219 167.888 186.136 166.573C190.5 160.296 195.458 154.59 202.325 150.918C203.515 150.273 204.73 149.529 206.193 149.752V149.727Z" fill="#F7F3F0"/>
<path d="M121.875 178.383C121.553 175.976 122.892 173.966 124.429 172.155C125.991 170.319 127.751 170.766 128.173 173.123C128.743 176.298 129.015 179.524 129.908 182.65C130.305 183.99 129.263 184.783 127.776 184.709C124.503 184.535 121.9 181.831 121.875 178.407V178.383Z" fill="#472315"/>
<path d="M205.448 111.123C207.332 110.28 208.646 110.379 210.481 110.974C208.671 111.992 207.382 111.843 205.448 111.123Z" fill="#5C3613"/>
<path d="M224.687 139.009C224.687 138.216 224.687 137.422 224.687 136.628C226.323 137.422 226.323 138.216 224.687 139.009Z" fill="#542C1D"/>
<path d="M227.588 171.064C228.034 170.295 228.604 169.674 229.398 169.253C229.546 170.592 228.927 171.213 227.588 171.064Z" fill="#5C3328"/>
<path d="M190.747 146.105C191.119 145.386 191.714 144.964 192.557 144.889C192.532 146.13 191.664 146.155 190.747 146.105Z" fill="#533020"/>
<path d="M189.632 137.819C189.26 138.563 188.665 138.96 187.847 139.034C187.896 137.819 188.739 137.794 189.632 137.819Z" fill="#522921"/>
<path d="M390.964 159.155C390.345 160.644 388.907 160.495 387.717 160.644C380.973 161.562 374.552 160.743 369.123 156.227C362.38 150.645 362.28 141.738 368.85 136.007C372.842 132.509 377.626 130.921 382.882 130.524C383.775 130.45 384.37 130.797 384.965 131.318C385.56 131.517 385.981 131.914 386.304 132.41C390.097 138.861 392.576 145.733 392.501 153.3C392.501 155.309 392.501 157.443 390.989 159.105L390.964 159.155Z" fill="#020202"/>
<path d="M386.428 114.795C389.056 114.919 392.204 115.142 395.303 115.837C398.452 116.532 400.212 118.665 399.815 121.097C399.369 123.801 397.088 125.289 393.717 124.744C387.271 123.702 380.924 123.776 374.652 125.711C372.272 126.431 370.065 127.498 367.983 128.837C364.859 130.847 362.231 130.599 360.694 128.217C359.207 125.91 360.099 123.305 363.099 121.221C368.627 117.35 377.602 114.845 386.428 114.795V114.795Z" fill="#030202"/>
<path d="M390.964 159.155C393.072 149.008 389.551 140.051 384.965 131.343C386.452 130.053 388.213 130.971 389.849 130.773C392.303 130.276 393.989 131.815 395.799 133.055C401.03 136.38 404.873 140.498 404.054 147.321C402.964 148.784 402.542 150.546 401.774 152.159C399.666 156.252 394.386 159.676 390.94 159.18L390.964 159.155Z" fill="#F8F2EE"/>
<path d="M433.879 185.379C432.54 186.694 430.928 187.438 429.094 187.736C427.953 187.364 426.912 187.389 425.722 187.885C423.788 188.679 421.582 188.679 419.698 187.984C417.69 187.24 415.756 187.041 413.723 187.116C412.657 187.215 411.864 186.744 411.269 185.9C409.558 183.791 406.707 182.948 405.343 180.491C404.5 179.102 405.814 178.308 406.211 177.316C406.385 177.266 406.434 177.167 406.335 177.018C406.31 177.192 406.186 177.291 405.963 177.291C405.492 177.291 405.145 177.093 404.922 176.72C404.401 175.579 404.401 174.463 405.095 173.371C406.261 172.329 407.649 172.602 409.013 172.701C410.029 172.999 411.07 173.222 411.343 174.463C411.839 175.629 413.128 176.125 413.624 177.341C414.194 178.755 415.31 177.018 416.128 177.564C417.491 177.762 418.656 178.581 419.995 178.829C420.367 178.953 420.739 179.127 421.086 179.325C422.425 179.946 423.788 179.921 425.152 179.375C425.499 179.177 425.871 179.003 426.268 178.879C426.813 178.705 427.358 178.606 427.929 178.606C430.036 178.407 431.375 179.673 432.639 181.062C432.862 181.236 433.06 181.409 433.259 181.608C434.978 182.766 435.184 184.031 433.879 185.404V185.379Z" fill="#C66BA2"/>
<path d="M442.184 177.018C440.597 179.003 439.705 181.558 437.35 182.923C435.54 183.444 434.226 182.104 432.639 181.757C432.317 179.474 432.639 177.539 434.375 175.629C436.011 173.768 435.267 170.89 436.184 168.608L436.284 166.35C436.482 166.102 436.631 165.829 436.73 165.531C437.127 163.398 436.308 161.165 437.275 159.105C437.697 158.857 438.118 158.833 438.515 159.105C439.878 160.619 438.788 162.455 439.209 163.77C439.383 162.554 438.837 160.966 439.531 159.453C442.506 158.113 442.258 160.594 442.754 161.81C442.68 160.247 442.482 158.386 439.705 159.23C439.333 159.527 438.961 159.527 438.614 159.23C437.697 158.014 436.779 156.823 436.358 155.334C436.358 155.061 436.383 154.813 436.482 154.565C436.928 153.846 437.796 153.449 438.069 152.605C438.217 152.432 438.391 152.258 438.589 152.084C441.118 151.985 443.771 151.563 444.564 155.012C445.457 156.079 444.886 157.394 445.209 158.56C445.333 158.808 445.457 159.031 445.63 159.254C445.506 162.033 446.2 164.861 445.109 167.566C444.391 168.235 445.109 169.203 444.589 169.898L444.465 171.089C443.548 171.758 442.878 172.478 443.746 173.644C444.143 175.207 443.201 176.15 442.184 177.043V177.018Z" fill="#C66BA2"/>
<path d="M465.265 139.927C465.587 138.885 464.67 137.397 466.033 136.776C467.199 136.231 468.289 137.149 469.306 137.744C471.438 139.009 472.603 140.994 472.256 143.401C471.835 146.303 470.025 148.363 467.199 149.405C466.257 149.752 465.86 149.305 465.934 148.462C466.157 145.584 465.364 142.805 465.29 139.952L465.265 139.927Z" fill="#B57D65"/>
<path d="M427.805 179.325L426.094 179.425C425.574 179.722 425.053 179.871 424.458 179.673C423.442 178.283 422.4 177.613 421.31 179.623C420.888 179.722 420.491 179.673 420.12 179.425C418.533 179.697 417.318 178.755 416.004 178.159C415.211 177.365 413.252 177.762 413.599 175.802C414.566 175.753 415.409 175.902 416.252 176.571C417.12 177.266 418.062 177.192 418.359 175.802C420.07 174.587 422.029 175.529 423.64 175.182C422.425 174.909 420.839 175.753 419.549 174.587C420.045 172.676 421.607 173.569 422.748 173.421C423.913 173.297 425.103 173.445 426.293 173.371C428.127 173.272 429.516 173.545 428.945 175.902C428.648 177.092 429.54 176.869 430.185 176.944C430.582 178.928 428.673 178.556 427.805 179.276V179.325Z" fill="#ECC0B2"/>
<path d="M427.805 179.325C428.276 178.234 429.863 178.258 430.185 176.993C432.887 174.711 434.697 171.783 436.16 168.607C436.185 172.006 436.631 175.405 433.507 178.06C431.673 179.598 434.97 178.978 434.648 180.07C434.474 181.236 432.59 180.318 432.615 181.757C430.904 181.112 430.111 178.73 427.78 179.325H427.805Z" fill="#C56D9F"/>
<path d="M413.624 186.495C416.004 186.57 418.334 186.371 420.689 187.488C422.028 188.133 424.012 188.083 425.697 186.992C427.358 185.9 428.548 186.347 429.069 187.736C429.069 187.91 429.044 188.059 429.019 188.232C428.177 189.026 426.962 188.183 426.094 188.828H419.574C418.88 188.257 417.913 188.902 417.194 188.307C416.574 187.562 415.681 187.736 414.863 187.662C414.491 187.215 413.302 187.662 413.599 186.52L413.624 186.495Z" fill="#C5719F"/>
<path d="M408.964 172.726C407.922 173.917 406.534 173.272 405.294 173.445C404.526 174.636 404.253 175.827 405.294 177.018H406.484C406.881 178.432 405.666 179.325 405.319 180.491C402.072 177.911 401.65 174.959 404.129 172.254C405.716 170.964 407.278 171.411 408.864 172.254C408.914 172.403 408.939 172.577 408.964 172.726V172.726Z" fill="#C46EA0"/>
<path d="M370.834 204.309C370.834 204.681 370.834 205.053 370.809 205.4C367.562 205.797 364.413 205.301 361.339 204.309C363.372 201.927 365.901 203.143 368.157 203.589C368.999 203.763 369.867 204.334 370.834 204.309V204.309Z" fill="#EAC3AE"/>
<path d="M442.185 177.018C442.185 175.703 443.647 174.909 443.375 173.495C443.375 172.751 443.499 172.106 444.49 172.23C444.788 172.726 445.11 173.197 445.333 173.718C445.903 174.959 445.854 176.05 444.936 177.217C443.796 178.655 443.102 176.968 442.185 177.043V177.018Z" fill="#E9BBB2"/>
<path d="M419.574 174.612H427.458V175.802C424.433 175.802 421.408 175.802 418.384 175.802C418.409 175.033 418.805 174.636 419.574 174.612Z" fill="#E9C3AD"/>
<path d="M395.799 133.03C393.815 132.261 391.832 131.517 389.849 130.748C390.667 128.614 392.179 129.284 393.344 130.127C394.336 130.847 394.98 132.038 395.799 133.005V133.03Z" fill="#E9C3B7"/>
<path d="M450.936 131.269C453.415 130.649 455.894 130.4 458.348 131.269C455.894 132.088 453.415 131.914 450.936 131.269Z" fill="#EEC0B3"/>
<path d="M432.64 181.757C434.375 181.459 435.912 182.055 437.35 182.923C436.482 184.139 435.342 185.007 433.879 185.379C435.639 183.444 433.061 182.948 432.64 181.732V181.757Z" fill="#C56D9F"/>
<path d="M413.624 175.827C413.996 177.043 415.583 177.018 416.029 178.184C411.988 180.095 412.608 176.075 411.318 174.488C412.087 174.934 412.855 175.381 413.649 175.827H413.624Z" fill="#C46E9F"/>
<path d="M436.779 154.391C436.73 154.59 436.705 154.764 436.73 154.962C436.358 155.855 437.201 156.897 436.457 157.766C436.333 157.84 436.234 157.914 436.11 157.989C434.424 157.468 434.746 155.979 435.242 155.161C436.011 153.895 436.011 151.464 438.589 152.059C438.54 152.233 438.515 152.407 438.515 152.58C438.044 153.275 437.597 154.019 436.779 154.367V154.391Z" fill="#E7B7B5"/>
<path d="M413.624 186.495C414.045 186.867 414.467 187.264 414.888 187.637C411.789 189.249 411.393 189.125 410.624 186.297C410.624 186.222 411.045 186.024 411.244 185.9L413.599 186.495H413.624Z" fill="#ECBEB7"/>
<path d="M373.214 204.309H370.834C370.909 203.292 370.611 202.2 371.181 201.133C372.917 201.555 373.313 202.771 373.214 204.309V204.309Z" fill="#EAC3AE"/>
<path d="M401.773 152.134C401.575 150.075 402.393 148.487 404.054 147.296C403.657 149.082 403.385 150.918 401.773 152.134Z" fill="#FBEDE5"/>
<path d="M346.563 110.875L346.315 113.381C346.067 110.652 345.423 107.923 346.29 105.219C346.39 107.104 346.464 108.99 346.563 110.875V110.875Z" fill="#604B45"/>
<path d="M444.49 172.23C444.118 172.652 443.746 173.073 443.374 173.495C442.457 173.322 442.011 172.776 442.283 171.883C442.655 170.766 443.672 171.188 444.465 171.089C444.465 171.461 444.465 171.858 444.465 172.23H444.49Z" fill="#C6739B"/>
<path d="M436.78 166.3C436.606 166.3 436.433 166.3 436.284 166.325C436.234 163.546 436.185 160.768 436.11 157.989H436.284C436.681 157.84 436.953 157.989 437.102 158.386C436.928 161.016 437.424 163.695 436.78 166.3V166.3Z" fill="#E194B9"/>
<path d="M408.864 172.255C407.277 172.379 405.716 171.51 404.129 172.255C405.716 170.692 407.277 170.245 408.864 172.255Z" fill="#C876A2"/>
<path d="M446.3 123.603C448.358 123.702 450.341 124.074 452.299 124.719C450.291 124.372 447.961 125.736 446.3 123.603Z" fill="#E6BEB0"/>
<path d="M356.578 201.952C356.355 203.49 355.14 203.044 354.198 203.143C353.38 202.92 352.711 202.547 353.95 202.051C354.719 201.754 355.686 201.977 356.554 201.952H356.578Z" fill="#EDC0B4"/>
<path d="M472.926 152.68C474.388 151.836 475.281 152.035 476.521 152.407C475.331 153.573 474.388 153.325 472.926 152.68Z" fill="#F0BFB2"/>
<path d="M464.546 126.605L464.745 127.671C463.332 127.597 462.34 126.58 461.175 125.984C462.34 125.984 463.53 125.811 464.546 126.58V126.605Z" fill="#E6BEB0"/>
<path d="M361.363 90.8536C363.272 89.886 365.231 90.1837 367.189 90.6551C365.256 91.0769 363.297 90.928 361.363 90.8536Z" fill="#644B41"/>
<path d="M355.041 200.438C354.769 200.513 354.446 200.687 354.124 200.687C353.777 200.687 353.256 200.587 353.43 200.091C353.504 199.868 354 199.694 354.322 199.669C354.67 199.645 355.116 199.744 355.041 200.463V200.438Z" fill="#EAC3AE"/>
<path d="M468.265 155.607C468.562 155.781 469.058 155.905 469.108 156.153C469.207 156.575 468.761 156.724 468.389 156.748C467.595 156.798 467.174 156.426 467.1 155.632C467.471 155.31 467.868 155.26 468.265 155.607Z" fill="#E2C7AC"/>
<path d="M468.265 155.607C467.868 155.607 467.496 155.607 467.1 155.632C466.802 155.458 466.306 155.334 466.232 155.086C466.133 154.664 466.579 154.515 466.976 154.466C467.769 154.416 468.19 154.788 468.265 155.582V155.607Z" fill="#F3BCB2"/>
<path d="M445.655 159.229C445.481 159.18 445.332 159.155 445.159 159.155C444.614 157.84 444.688 156.5 445.109 155.161C446.473 156.352 445.432 157.89 445.655 159.254V159.229Z" fill="#E9A4B9"/>
<path d="M461.149 131.939C460.902 131.765 460.455 131.616 460.356 131.368C460.207 130.847 460.728 130.748 461.075 130.773C461.397 130.797 461.893 130.996 461.968 131.219C462.141 131.765 461.571 131.715 461.149 131.939Z" fill="#E7C5AC"/>
<path d="M445.109 155.136C445.109 156.476 445.134 157.815 445.159 159.13C444.018 157.89 444.688 156.376 444.589 154.987C444.762 155.012 444.936 155.061 445.109 155.136V155.136Z" fill="#C07E90"/>
<path d="M455.819 125.29C457.232 125.389 458.695 125.215 460.034 125.91C458.621 125.761 457.084 126.505 455.819 125.29Z" fill="#E6BEB0"/>
<path d="M444.589 169.873C444.589 168.955 444.341 167.938 444.639 167.119C444.837 166.598 444.986 167.317 445.11 167.541C445.11 168.359 445.283 169.203 444.589 169.873Z" fill="#BD798D"/>
<path d="M452.845 124.793C453.886 124.793 454.927 124.694 455.869 125.29C454.803 125.538 453.688 125.935 452.845 124.793Z" fill="#E6BEB0"/>
<path d="M426.095 188.828C426.938 188.009 428.053 188.406 429.02 188.232C428.227 189.299 427.086 188.753 426.095 188.828Z" fill="#EEA7C7"/>
<path d="M417.219 188.306C418.037 188.331 418.929 188.133 419.599 188.852C418.805 188.703 417.814 189.398 417.219 188.306Z" fill="#F1ACC6"/>
<path d="M476.496 247.007L469.48 247.155C469.083 247.403 468.637 247.379 468.216 247.255C467.348 246.51 465.389 246.882 465.761 244.848C466.183 244.203 467.422 243.905 466.678 242.665C466.207 243.235 466.678 244.029 466.108 244.501C465.315 245.518 464.174 244.724 463.232 245.096C461.299 245.096 459.39 244.997 457.679 243.98C456.935 243.508 456.142 243.136 455.249 243.087C454.853 243.037 454.481 242.938 454.134 242.739C453.762 242.516 453.613 242.144 453.489 241.747C456.192 240.754 458.869 239.663 461.646 238.844C463.232 238.373 464.918 238.398 466.48 239.415C468.191 240.506 470.025 241.375 471.81 242.342C471.637 244.029 472.703 243.632 473.645 243.434L475.331 243.533C476.769 244.352 477.934 245.27 476.471 247.031L476.496 247.007Z" fill="#C93B37"/>
<path d="M455.224 248.321C454.952 249.016 456.389 249.363 455.621 250.058C455.051 250.604 454.406 250.505 453.836 249.86C453.538 249.512 452.968 249.19 452.547 249.239C449.076 249.488 447.663 247.9 448.059 244.526C448.134 243.93 447.985 243.335 447.489 242.938C448.134 240.531 449.473 242.119 450.588 242.417C450.762 242.987 450.514 243.459 450.316 243.955C449.77 244.997 449.795 245.94 450.787 246.734C451.01 246.883 451.208 247.056 451.406 247.205C452.621 247.8 454.233 247.007 455.224 248.371V248.321Z" fill="#1F2B4D"/>
<path d="M446.027 247.081C445.506 243.955 445.283 241.102 446.002 238.497C446.473 236.735 448.58 237.678 450.291 238.075C446.919 238.621 446.299 240.308 447.242 243.26C447.465 243.93 447.415 245.741 446.052 247.106L446.027 247.081Z" fill="#1F2B4D"/>
<path d="M450.291 247.155C447.961 246.163 449.126 244.749 449.845 243.409C451.159 244.352 451.531 243.608 451.655 242.392C452.25 242.094 453.068 242.392 453.514 241.697L454.035 242.293C455.2 243.905 455.15 245.518 454.183 247.205C452.869 247.875 451.58 247.776 450.291 247.155Z" fill="#C43B33"/>
<path d="M473.669 243.409C473.372 244.997 472.108 245.047 471.24 244.402C470.223 243.657 470.496 242.69 471.86 242.318C472.727 242.243 473.298 242.69 473.694 243.409H473.669Z" fill="#CE3A2F"/>
<path d="M451.655 242.417C451.655 242.417 451.704 242.615 451.729 242.69C451.977 243.608 453.663 244.501 452.423 245.295C451.778 245.716 450.167 244.848 449.845 243.409L450.588 242.392C450.936 242.392 451.307 242.392 451.655 242.392V242.417Z" fill="#C53B3C"/>
<path d="M476.496 247.007C476.992 245.568 476.273 244.501 475.355 243.508C476.273 243.558 477.488 243.186 477.711 244.575C477.859 245.568 478.182 246.833 476.496 247.007V247.007Z" fill="#401C3A"/>
<path d="M468.29 246.957L469.505 247.155C468.414 248.049 467.1 247.503 465.91 247.676C464.918 248.173 463.902 248.049 462.91 247.726C462.91 246.461 463.877 246.461 464.72 246.287C465.935 246.436 467.174 246.312 468.29 246.957V246.957Z" fill="#473959"/>
<path d="M462.315 248.222H456.39C456.34 248.073 456.291 247.924 456.241 247.8C456.365 247.527 456.563 247.329 456.811 247.205C458.026 246.734 459.315 246.907 460.58 246.907C461.001 246.907 461.398 246.982 461.795 247.106C462.042 247.205 462.29 247.354 462.464 247.552C462.588 247.825 462.563 248.048 462.315 248.222V248.222Z" fill="#4C1227"/>
<path d="M456.439 247.751C456.439 247.9 456.415 248.049 456.39 248.222C455.993 248.272 455.621 248.297 455.225 248.346C453.688 247.974 451.952 248.892 450.539 247.652C452.498 247.676 454.506 246.436 456.439 247.776V247.751Z" fill="#6D1B2C"/>
<path d="M462.315 248.222C462.315 248.073 462.315 247.9 462.315 247.751C462.464 247.528 462.662 247.478 462.885 247.627L465.86 247.676C464.794 248.718 463.48 248.123 462.29 248.247L462.315 248.222Z" fill="#301E3B"/>
<path d="M437.944 264.175L438.143 262.538C438.812 263.48 438.688 264.473 438.217 266.061L437.944 264.2V264.175Z" fill="#1E2846"/>
<path d="M439.085 255.789L439.333 253.631C439.754 254.4 440.325 255.194 439.085 255.789Z" fill="#222845"/>
<path d="M436.73 270.675L436.954 269.038C437.524 269.707 437.648 270.625 437.226 271.221C436.854 271.717 436.904 270.874 436.73 270.675V270.675Z" fill="#202845"/>
<path d="M384.444 243.856C384.692 249.239 384.196 254.673 385.114 260.032C385.138 260.23 385.039 260.478 385.114 260.627C386.725 263.307 385.857 265.936 385.064 268.591C383.899 260.379 383.155 252.167 384.444 243.881V243.856Z" fill="#F3EEF0"/>
<path d="M356.554 216.292C353.678 218.227 350.728 216.466 348.422 218.029C348.348 218.078 347.703 217.26 347.009 216.466C350.256 215.994 353.083 216.193 356.554 216.292V216.292Z" fill="#1E2A4C"/>
<path d="M385.486 272.114C386.899 271.444 385.684 269.658 386.924 268.79C388.709 271.345 386.081 273.379 386.229 275.662C386.105 275.587 385.957 275.513 385.808 275.463C384.99 274.421 385.51 273.255 385.461 272.114H385.486Z" fill="#F3EEF0"/>
<path d="M382.833 255.64V247.825H383.13V255.888L382.833 255.64Z" fill="#212A4C"/>
<path d="M385.486 272.114C385.61 273.231 385.709 274.347 385.833 275.463C384.494 274.57 385.362 273.206 385.114 272.089C385.238 272.114 385.362 272.139 385.486 272.139V272.114Z" fill="#252B43"/>
<path d="M386.849 243.508C387.692 244.774 387.568 245.692 387.047 246.982C386.006 245.791 386.18 244.848 386.849 243.508Z" fill="#F3EEF0"/>
<path d="M206.341 164.067C206.168 162.306 206.217 161.264 207.308 161.14C208.399 161.041 208.597 162.008 208.697 162.951C208.92 165.655 209.242 168.36 210.457 170.84C210.804 171.56 211.151 172.354 210.134 172.825C208.994 173.346 208.573 172.453 208.151 171.684C206.713 169.029 206.837 166.027 206.341 164.043V164.067Z" fill="#F3EEEC"/>
<path d="M208.449 158.039C207.457 158.039 206.837 157.443 206.961 156.625C207.085 155.855 207.382 154.913 208.597 155.012C209.415 155.086 209.787 155.458 209.812 156.277C209.837 157.294 209.415 157.915 208.449 158.039Z" fill="#EEEAE9"/>
<path d="M389.229 154.615C389.229 155.136 389.279 155.905 388.858 156.649C388.436 157.394 387.841 157.518 387.122 157.443C386.378 157.369 386.205 156.773 386.155 156.153C385.932 153.622 385.734 151.067 385.535 148.536C385.461 147.643 385.486 146.626 386.626 146.428C387.891 146.229 388.411 147.246 388.56 148.214C388.882 150.248 389.006 152.308 389.229 154.615V154.615Z" fill="#F3EFED"/>
<path d="M386.378 139.927C386.378 141.168 386.205 141.987 384.99 141.987C383.254 141.987 383.031 140.572 382.759 139.406C382.536 138.389 383.205 137.719 384.296 137.769C385.783 137.843 386.031 139.059 386.378 139.903V139.927Z" fill="#F2F0EE"/>
<path d="M428.623 182.65H418.855V182.104H428.599V182.65H428.623Z" fill="#C46D9F"/>
<path d="M405.294 176.993C405.145 177.415 404.699 178.234 404.501 177.688C404.005 176.249 403.212 174.488 405.294 173.446V177.018V176.993Z" fill="#C869A3"/>
<path d="M420.145 179.425L421.384 179.3C422.376 178.73 423.343 178.482 424.334 179.3C424.929 179.325 425.524 179.375 426.119 179.4L425.524 179.946C423.938 180.417 422.351 180.417 420.764 179.946L420.145 179.4V179.425Z" fill="#E499BC"/>
<path d="M406.484 176.993C406.534 176.274 406.336 175.48 407.179 174.711C407.724 175.926 407.873 176.72 406.484 176.993Z" fill="#C46EA0"/>
<path d="M413.525 181.757C414.046 181.906 414.591 181.93 414.393 182.427C414.318 182.65 413.822 182.824 413.5 182.848C413.153 182.873 412.632 182.774 412.806 182.253C412.88 182.005 413.351 181.881 413.525 181.757V181.757Z" fill="#C36E9D"/>
<path d="M420.764 179.97H425.524C423.937 180.888 422.35 180.888 420.764 179.97Z" fill="#BE7495"/>
<path d="M442.432 165.333C441.664 163.149 443.151 160.048 439.755 159.18C439.854 158.907 439.879 158.56 440.077 158.386C440.672 157.865 441.317 158.014 441.937 158.411C443.598 159.502 443.87 162.678 442.408 165.308L442.432 165.333Z" fill="#C46DA0"/>
<path d="M439.779 159.18C439.606 161.81 440.151 164.464 439.184 167.044C438.217 164.464 438.763 161.785 438.589 159.18H439.779V159.18Z" fill="#C46DA0"/>
<path d="M436.779 158.014C436.606 158.014 436.457 158.014 436.284 158.014C436.284 156.972 435.937 155.905 436.73 154.987C437.275 156.426 439.011 157.344 438.564 159.205H437.374C436.953 158.932 437.151 158.312 436.755 158.014H436.779Z" fill="#C46DA0"/>
<path d="M436.779 158.014C437.25 158.262 437.374 158.708 437.399 159.205C437.077 161.561 438.044 164.042 436.779 166.325C436.779 163.546 436.779 160.792 436.779 158.014V158.014Z" fill="#BF7296"/>
<path d="M436.779 154.392C437.151 153.598 437.498 152.754 438.515 152.605C438.713 153.945 438.118 154.54 436.779 154.392Z" fill="#C5789C"/>
<path d="M424.309 179.325C423.317 179.325 422.351 179.325 421.359 179.325C422.351 178.78 419.797 177.241 422.028 177.018C423.838 176.82 424.507 177.614 424.284 179.35L424.309 179.325Z" fill="#EAC3AD"/>
<path d="M462.91 247.627L462.34 247.751L462.389 247.552C461.546 246.585 460.629 246.883 459.662 247.354C459.216 247.354 458.819 247.354 458.423 247.081C457.208 246.113 456.39 245.047 457.58 243.533C459.588 243.806 461.621 243.93 463.505 244.724C464.422 245.22 465.389 245.667 464.695 247.007C464.1 247.255 463.307 246.883 462.91 247.652V247.627Z" fill="#CF393A"/>
<path d="M457.605 243.508C457.208 244.947 458.398 245.816 458.795 246.982C458.076 247.676 457.183 247.23 456.365 247.354C455.844 247.354 455.299 247.403 454.952 246.907C454.555 245.344 454.332 243.806 455.249 242.317C456.191 242.417 457.406 241.945 457.629 243.508H457.605Z" fill="#CD3B31"/>
<path d="M466.158 241.201C467.15 241.623 468.141 242.243 468.191 243.583C468.216 244.675 467.249 244.823 466.53 244.65C465.241 244.302 466.257 242.665 465.191 241.945C464.819 241.697 465.513 241.226 466.158 241.226V241.201Z" fill="#CD3B32"/>
<path d="M464.719 246.957L463.529 244.675C464.323 242.342 465.116 245.369 465.909 244.675C465.81 246.337 468.265 245.369 468.265 246.932H464.695L464.719 246.957Z" fill="#CD3B32"/>
<path d="M455.199 242.317V246.982C454.828 247.428 454.431 247.403 454.034 247.031V242.317H455.199V242.317Z" fill="#D0383C"/>
<path d="M462.142 240.234C462.638 240.68 463.629 240.779 463.604 241.673C463.604 242.194 462.935 242.268 462.439 242.268C461.621 242.268 461.175 241.871 461.224 241.052C461.249 240.556 461.423 240.11 462.142 240.234Z" fill="#D13835"/>
<path d="M454.035 247.031C454.431 247.031 454.828 247.006 455.225 246.982C455.621 247.031 456.018 247.081 456.415 247.155C456.613 247.279 456.662 247.379 456.588 247.478C456.514 247.577 456.439 247.627 456.39 247.627L456.439 247.776C454.481 247.726 452.497 247.701 450.539 247.652C450.44 247.503 450.365 247.354 450.291 247.18C451.531 247.131 452.795 247.081 454.035 247.056V247.031Z" fill="#A14F5F"/>
<path d="M459.96 246.982C460.084 246.113 460.629 245.816 461.423 245.94C462.34 246.089 462.29 246.858 462.365 247.528H461.15C460.803 247.23 460.158 247.528 459.96 246.957V246.982Z" fill="#C6422B"/>
<path d="M459.96 246.982C460.357 247.18 460.753 247.354 461.15 247.552C459.563 247.552 457.977 247.577 456.365 247.602C456.365 247.453 456.365 247.304 456.39 247.155C457.183 247.106 457.952 247.056 458.745 246.982C459.142 246.982 459.539 246.982 459.935 246.982H459.96Z" fill="#945367"/>
</g>
<defs>
<clipPath id="clip0_5114_48679">
<rect width="595" height="287" fill="white"/>
</clipPath>
</defs>
</svg>
