<svg width="595" height="297" viewBox="0 0 595 297" fill="none" xmlns="http://www.w3.org/2000/svg">
<g clip-path="url(#clip0_5484_43206)">
<rect width="595" height="297" fill="#5F95EF"/>
<path d="M478.717 135.707C479.335 136.506 480.211 136.223 481.009 136.248C488.09 136.429 492.854 139.443 494.811 144.981C496.665 150.262 494.811 156.471 489.816 160.695C487.086 163.014 484.125 165.126 480.185 164.817C479.902 164.972 479.619 165.1 479.335 165.255C478.563 169.583 479.078 173.936 479.258 178.264C479.335 179.887 479.722 181.536 479.644 183.159C479.361 188.62 480.546 194.004 480.288 199.439C480.211 200.959 480.443 202.608 478.743 203.51C477.868 203.87 476.941 203.896 476.014 203.896C463.679 203.999 451.371 204.849 439.062 204.54C434.376 204.437 433.964 204.901 434.041 209.615C434.093 212.474 433.603 215.334 434.376 218.167C434.839 223.036 435.998 227.828 435.869 232.774C435.792 235.427 434.839 237.514 432.831 239.214C428.376 243.001 423.329 245.165 417.381 245.19C412.952 245.19 408.523 245.371 404.377 243.49C403.296 243.001 401.982 242.769 401.493 241.404C402.497 239.987 404.171 239.987 405.587 239.523C419.235 235.092 426.29 225.046 429.406 211.676C430.333 207.709 429.535 206.781 425.466 206.936C416.222 207.296 407.004 207.709 397.734 207.502C396.214 207.477 394.644 207.709 393.227 206.807C392.326 205.751 391.142 205.725 389.854 205.725C378.267 205.725 366.705 205.545 355.117 206.343C353.881 206.421 352.723 206.807 351.538 207.116C349.581 207.606 348.886 206.627 349.478 204.36C351.512 201.114 350.946 197.404 351.255 193.901C353.109 172.803 352.336 151.653 352.723 130.504C352.8 126.124 353.006 121.694 353.263 117.288C353.366 115.511 353.701 113.811 355.143 112.548C356.868 111.415 358.8 111.286 360.757 111.338C373.451 111.724 386.12 110.694 398.815 110.616C403.296 110.591 407.802 110.204 412.282 109.715C413.827 109.56 415.347 109.38 416.866 109.715C420.11 111.724 422.299 114.893 425.235 117.288C437.002 126.82 450.212 132.925 465.276 134.754C468.932 135.192 472.666 134.806 476.348 134.909C477.224 134.909 478.022 135.063 478.692 135.682L478.717 135.707Z" fill="#DBB592"/>
<path d="M214.059 247.123C229.715 247.277 245.191 249.081 260.512 252.249C265.688 253.305 269.422 255.804 272.666 260.158C278.615 268.144 283.842 276.361 285.902 286.228C286.52 289.139 286.829 292.101 286.803 295.089C286.803 296.841 286.134 297.511 284.408 297.305C283.687 297.227 282.966 297.305 282.245 297.305C227.346 297.305 172.447 297.305 117.548 297.305C112.27 297.305 112.115 297.305 112.192 291.843C112.347 282.029 114.098 272.471 117.96 263.378C119.402 259.977 120.999 256.68 122.956 253.511C123.831 252.095 124.836 251.451 126.252 251.09C143.71 246.608 161.426 245.062 179.4 246.118C180.584 247.277 180.224 248.797 180.275 250.188C180.404 253.846 181.383 255.263 184.885 256.551C189.726 258.303 194.721 258.2 199.717 257.401C202.034 257.041 204.377 256.68 206.669 256.191C211.201 255.237 213.107 252.12 213.519 247.793C213.647 247.509 213.828 247.303 214.085 247.123H214.059Z" fill="#2E66AF"/>
<path d="M126.921 188.8C126.071 184.859 123.599 183.21 119.711 181.974C110.209 178.96 105.059 170.149 107.094 161.855C108.716 155.234 114.432 150.314 121.797 149.206C122.904 148.845 123.96 148.356 125.144 148.304C134.569 149.103 143.89 150.623 153.289 151.808C155.658 152.117 156.611 151.293 157.306 149.206C163.898 129.679 178.37 119.813 197.991 116.49C206.18 115.125 214.394 115.459 222.479 117.392C224.205 117.804 224.926 117.34 225.518 115.872C226.059 114.532 226.728 113.27 227.32 111.956C227.732 111.08 227.938 109.921 229.303 109.921C240.633 116.567 250.238 125.042 257.062 136.403C266.769 152.555 269.55 169.789 265.096 188.156C265.018 188.44 264.787 188.671 264.632 188.929C261.98 188.62 259.302 188.568 256.624 188.568C239.062 188.568 221.475 188.259 203.914 188.646C179.554 189.212 155.22 189.135 130.887 189.187C129.548 189.187 128.209 189.315 126.921 188.826V188.8Z" fill="#7C4513"/>
<path d="M229.329 109.895C228.118 112.471 226.908 115.048 225.698 117.624C225.08 118.912 224.9 119.762 222.943 118.474C220.445 116.799 217.046 116.98 214.085 116.773C202.6 115.949 191.425 117.263 180.996 122.647C169.846 128.417 162.044 137.073 158.233 149.103C157.332 151.963 156.559 153.276 152.851 152.607C144.251 151.035 135.496 150.34 126.792 149.258C126.2 149.18 125.608 148.974 125.015 148.82C124.166 149.052 123.342 149.283 122.878 148.202C121.488 143.796 119.144 139.804 118.089 135.244C114.381 119.324 120.071 104.357 132.328 93.9752C142.525 85.3196 154.654 80.7857 167.683 79.1886C191.116 76.3034 212.9 81.2494 232.573 94.6192C234.427 95.8815 235.225 97.3499 233.912 99.7714C232.135 103.017 230.848 106.546 229.38 109.947L229.329 109.895Z" fill="#020202"/>
<path d="M336.191 104.872C337.762 103.687 339.565 104.46 341.264 104.305C342.577 104.202 343.118 103.687 342.886 102.373C341.316 93.0993 343.942 84.624 348.629 76.9215C358.851 60.0483 374.585 51.5472 393.614 48.0953C407.957 45.4935 421.553 47.5028 434.376 54.0975C450.856 62.5728 459.74 75.8911 458.967 94.8252C458.864 97.3498 459.611 97.7362 461.723 97.5301C463.139 97.4013 464.581 97.5816 466.023 97.6332C465.302 99.3591 463.68 98.8181 462.392 98.9469C461.027 99.1015 459.508 98.8439 458.993 100.673C458.375 102.27 457.886 103.919 457.01 105.387C455.98 107.087 454.744 108.556 452.401 107.525C451.371 105.98 451.577 104.176 451.294 102.476C450.83 99.6682 449.852 97.1179 447.56 95.2632C444.779 93.022 442.05 93.2796 439.706 95.9587C438.47 97.3755 437.749 99.0758 437.209 100.853C436.591 102.914 435.2 103.893 433.114 103.893C426.033 103.841 418.952 104.357 411.896 103.558C408.214 103.146 404.48 103.069 400.824 103.429C392.301 104.305 383.803 103.919 375.28 103.919C364.285 103.919 353.367 104.82 342.423 105.645C340.337 105.799 338.123 106.366 336.191 104.846V104.872Z" fill="#F6F0F1"/>
<path d="M126.921 188.8C127.823 187.796 129.033 188.208 130.114 188.208C135.96 188.156 141.831 188.182 147.676 188.208C185.477 188.259 223.252 187.152 261.053 187.615C262.315 187.615 264.092 186.765 264.632 188.929C261.774 200.727 255.44 210.491 246.736 218.76C238.264 226.797 228.299 232.336 216.918 235.092C214.549 235.659 213.467 236.586 213.802 239.188C214.137 241.816 213.982 244.521 214.034 247.174C213.956 247.251 213.879 247.303 213.776 247.354C212.283 246.942 212.566 245.628 212.489 244.572C212.36 243.052 212.463 241.507 212.437 239.961C212.403 237.746 211.33 236.775 209.218 237.05C201.159 238.081 193.099 238.261 185.013 237.179C183.082 236.921 181.177 236.561 179.4 235.685C168.559 232.645 158.517 227.982 149.659 220.924C139.384 212.732 131.994 202.505 127.23 190.32C127.05 189.856 127.024 189.341 126.896 188.852L126.921 188.8Z" fill="#5E3612"/>
<path d="M437.569 222.135C445.14 224.118 452.581 226.566 459.611 230.069C460.693 230.61 461.723 231.254 462.778 231.847C463.268 233.032 462.598 234.036 462.263 235.092C459.894 242.846 457.294 250.549 456.006 258.586C455.079 264.357 454.229 264.923 448.281 264.923C423.922 264.923 399.536 264.923 375.177 264.923C369.563 264.923 368.971 264.511 367.529 259.076C365.598 251.734 363.589 244.392 361.555 237.076C361.298 236.174 361.04 235.298 361.349 234.371C369.718 228.807 378.962 225.278 388.618 222.727C389.932 224.093 389.442 225.819 389.468 227.416C389.829 240.76 401.184 252.146 414.137 252.094C427.578 252.043 438.779 239.188 437.054 225.844C436.9 224.556 436.282 223.217 437.569 222.135V222.135Z" fill="#E94F10"/>
<path d="M468.984 235.015C476.091 240.193 483.249 245.371 489.198 251.94C500.476 264.357 508.587 278.525 512.63 294.883C513.042 296.557 512.991 297.408 510.75 297.382C493.678 297.253 476.606 297.305 459.534 297.279C458.117 295.012 458.658 292.513 458.838 290.117C459.405 282.595 459.74 275.047 460.615 267.525C462.237 257.504 463.37 247.38 467.31 237.9C467.748 236.87 468.031 235.736 468.984 235.015Z" fill="#F4F1EE"/>
<path d="M365.829 297.33C350.74 297.33 335.65 297.33 320.561 297.33C318.055 297.33 317.102 296.076 317.703 293.569C321.436 277.958 328.878 264.331 339.487 252.275C343.993 247.174 349.272 243.052 354.448 238.75C354.886 238.39 355.555 238.287 356.096 238.055C358.336 238.905 358.619 241.094 359.315 242.923C362.121 250.291 363.538 257.993 364.825 265.722C366.035 274.145 365.958 282.646 366.705 291.096C366.885 293.157 367.271 295.424 365.829 297.33V297.33Z" fill="#F4F1EE"/>
<path d="M336.191 104.872C345.178 104.691 354.113 103.816 363.074 103.146C365.727 102.94 368.405 103.043 371.083 103.043C383.597 103.094 396.086 102.631 408.575 102.605C416.634 102.605 424.746 102.94 432.831 103.068C434.84 103.094 435.895 102.734 436.436 100.415C437.569 95.4948 441.045 92.3005 444.264 92.5838C447.843 92.893 451.603 97.195 452.221 101.729C452.478 103.609 452.684 105.49 452.89 107.371C452.324 109.328 450.65 108.813 449.337 108.865C446.376 108.968 443.44 108.787 440.711 110.333C439.475 111.029 437.904 110.719 436.488 110.771C431.08 110.9 425.673 110.436 420.265 111.132C419.312 111.26 418.463 110.925 417.639 110.488C401.905 111.595 386.121 112.007 370.362 112.368C365.34 112.471 360.293 111.827 355.324 112.986C354.577 113.399 353.83 113.785 352.955 113.862C352.671 113.862 352.414 113.759 352.208 113.553C345.693 113.373 339.153 114.043 332.664 112.961C331.659 112.78 330.629 112.651 329.702 112.291C328.08 111.698 326.793 110.642 326.973 108.71C327.153 106.855 328.389 105.979 330.14 105.49C332.149 104.897 334.157 104.949 336.191 104.923V104.872Z" fill="#DCD8D8"/>
<path d="M364.105 265.258C362.379 257.762 361.324 250.111 358.465 242.924C357.796 241.249 357.332 239.498 356.122 238.081C357.307 236.046 359.341 235.221 361.349 234.371C364.465 242.074 365.933 250.266 368.302 258.174C368.328 258.277 368.302 258.38 368.302 258.483C369.538 263.945 369.538 263.97 375.203 263.996C399.562 264.022 423.922 264.048 448.281 264.073C454.358 264.073 454.436 263.816 455.363 257.685C456.727 248.771 459.277 240.167 462.779 231.847C465.122 232.388 466.77 234.242 468.984 235.015C467.517 239.729 465.791 244.366 464.684 249.158C463.319 255.083 462.47 261.111 461.414 267.113C459.998 267.963 459.148 266.959 458.272 266.108C457.654 265.49 457.294 264.408 456.135 264.717C454.848 265.052 454.513 266.16 454.333 267.319C454.101 268.865 453.869 270.41 452.015 270.9C450.882 271.106 449.749 271.054 448.616 271.054C424.179 271.054 399.717 271.054 375.28 271.106C372.422 271.106 369.976 270.72 368.405 268.04C367.426 266.418 365.598 266.083 364.105 265.258V265.258Z" fill="#010101"/>
<path d="M427.682 297.253C417.382 297.253 407.082 297.253 396.782 297.253C396.138 296.66 395.855 295.887 395.803 295.063C395.365 287.386 396.009 279.735 396.55 272.085C396.576 271.569 396.859 271.131 397.219 270.745C407.288 270.359 417.382 270.513 427.45 270.668C428.248 271.312 428.428 272.239 428.428 273.166C428.377 279.942 429.51 286.665 429.098 293.44C429.021 294.883 429.098 296.351 427.656 297.279L427.682 297.253Z" fill="#E94F10"/>
<path d="M179.426 235.659C182.027 234.706 184.344 236.329 186.868 236.509C195.082 237.102 203.219 237.385 211.304 235.582C213.184 235.17 213.339 235.711 213.416 237.256C213.57 240.605 212.824 244.006 213.854 247.303C214.214 252.816 212.206 255.65 207.262 256.628C196.653 255.212 187.743 250.6 180.662 242.512C179.838 241.584 179.864 240.451 179.58 239.369C179.529 238.132 179.503 236.896 179.452 235.633L179.426 235.659Z" fill="#4F2E13"/>
<path d="M397.297 270.9C397.322 279.684 396.292 288.443 396.782 297.227C390.782 297.227 384.782 297.227 378.808 297.227C377.83 296.274 377.855 295.012 377.83 293.801C377.778 287.18 377.778 280.586 377.83 273.965C377.83 272.857 377.855 271.724 378.654 270.771C384.859 270.384 391.091 270.152 397.297 270.9V270.9Z" fill="#F9C81C"/>
<path d="M437.569 222.135C437.672 226.205 438.213 230.249 437.183 234.345C434.737 244.031 425.801 253.537 412.102 252.816C401.983 252.275 391.683 243.336 389.288 232.516C388.567 229.27 389.108 225.973 388.593 222.727C390.035 222.341 391.451 221.903 392.97 222.083C394.412 223.783 393.666 225.818 393.82 227.699C393.949 229.219 393.717 230.79 394 232.31C394.747 235.479 397.142 237.359 399.485 239.24C400.232 239.858 401.339 240.09 401.571 241.249C411.691 245.834 421.424 246.015 431.029 239.6C435.278 236.767 435.355 232.903 434.814 228.781C434.351 225.303 434.505 221.825 434.273 218.348C434.041 218.064 434.119 217.858 434.454 217.729C435.02 218.27 435.046 218.992 434.943 219.662C434.66 221.748 435.793 222.238 437.544 222.135H437.569Z" fill="#F4F0EE"/>
<path d="M427.682 297.253C428.531 292.462 428.274 287.619 427.939 282.853C427.656 278.86 427.501 274.893 427.604 270.9C432.96 270.153 438.316 270.514 443.672 270.694C445.398 273.708 444.599 277.108 445.011 280.303C445.604 284.965 445.217 289.705 445.166 294.419C445.166 295.45 445.011 296.48 444.187 297.253C438.677 297.253 433.192 297.253 427.682 297.253V297.253Z" fill="#F9C81C"/>
<path d="M443.569 270.874C438.239 270.385 432.909 270.745 427.578 270.874C417.484 270.874 407.39 270.874 397.296 270.874C391.142 270.874 384.988 270.874 378.808 270.874C377.752 271.698 376.516 271.621 375.306 271.673C371.778 271.827 371.598 272.136 371.933 275.743C372.448 281.616 373.143 287.49 372.937 293.415C372.885 294.728 373.04 296.094 372.01 297.176C369.95 297.202 367.89 297.253 365.83 297.279C365.263 286.588 364.671 275.897 364.104 265.207C367.4 263.378 368.843 266.417 369.795 268.143C370.954 270.282 372.344 270.127 374.044 270.127C400.309 270.127 426.6 270.127 452.865 270.127C455.105 272.085 455.028 274.687 452.685 275.588C452.17 272.059 449.981 271.132 446.71 271.57C445.629 271.724 444.47 271.57 443.543 270.797L443.569 270.874Z" fill="#040404"/>
<path d="M452.942 275.743C454.255 273.862 453.611 272.033 452.865 270.178C453.637 268.993 453.354 267.602 453.534 266.314C453.74 264.872 454.744 263.919 456.058 263.532C457.371 263.146 458.092 263.867 458.504 265.181C458.916 266.546 460.178 266.83 461.414 267.113C460.976 274.017 460.538 280.921 460.1 287.825C459.894 290.967 459.74 294.136 459.56 297.279C457.062 297.279 454.59 297.253 452.092 297.227C450.496 292.565 451.217 287.773 451.603 283.059C451.809 280.637 451.139 277.907 452.942 275.717V275.743Z" fill="#040404"/>
<path d="M452.942 275.743C452.195 282.879 452.324 290.066 452.066 297.227C449.44 297.227 446.787 297.227 444.161 297.227C444.393 288.443 443.955 279.658 443.543 270.874C444.882 270.823 446.221 270.771 447.534 270.771C450.985 270.771 452.779 272.428 452.916 275.743H452.942Z" fill="#E94F10"/>
<path d="M179.554 239.369C183.494 245.912 189.39 250.085 196.343 252.867C199.896 254.284 203.579 255.392 207.209 256.628C200.798 258.38 194.283 259.565 187.665 258.251C180.635 256.86 179.477 255.289 179.528 248.282C179.528 247.561 179.451 246.865 179.399 246.144C179.451 243.903 179.502 241.636 179.554 239.394V239.369Z" fill="#7C4514"/>
<path d="M371.984 297.227C372.19 289.344 371.7 281.487 370.799 273.682C370.516 271.26 371.288 270.591 373.58 270.822C375.305 271.003 377.056 270.9 378.807 270.925C378.807 279.684 378.807 288.468 378.807 297.227C376.541 297.227 374.275 297.227 372.009 297.227H371.984Z" fill="#E84F10"/>
<path d="M393.511 233.238C392.275 229.58 393.408 225.793 392.97 222.083C392.996 217.781 392.996 213.453 393.073 209.151C393.099 207.451 392.455 206.652 390.704 206.807C380.558 207.709 370.387 207.039 360.216 207.348C357.255 207.451 354.293 207.683 351.306 207.786C349.221 207.863 348.397 206.91 348.654 204.72C349.324 198.924 350.019 193.128 350.328 187.306C351.306 169.66 350.791 152.014 351.203 134.368C351.358 127.413 351.203 120.431 352.182 113.502C352.388 113.502 352.62 113.476 352.826 113.45C353.521 114.068 353.521 114.841 353.495 115.691C352.542 135.218 352.697 154.796 352.439 174.323C352.336 183.313 351.615 192.304 350.688 201.243C350.56 202.453 350.508 203.69 349.761 204.746C348.834 205.467 349.478 205.957 349.993 206.472C350.585 207.065 351.126 206.859 351.487 206.24C352.079 205.236 353.032 205.416 353.933 205.364C365.932 204.566 377.932 204.798 389.931 204.746C391.554 204.746 393.047 204.72 393.614 206.652C394.541 207.631 394.566 208.894 394.566 210.13C394.592 216.673 394.618 223.242 394.566 229.786C394.566 230.996 394.566 232.284 393.511 233.186V233.238Z" fill="#DFBC9E"/>
<path d="M434.454 217.755C434.402 217.961 434.351 218.167 434.273 218.374C433.243 213.84 433.604 209.306 434.119 204.746C434.248 203.716 434.608 203.561 435.406 203.587C436.745 203.587 438.084 203.561 439.398 203.587C452.53 204.025 465.611 202.84 478.744 202.969C480.778 202.969 480.314 201.397 480.263 200.341C479.954 193.102 479.722 185.864 479.207 178.625C478.924 174.658 479.181 170.665 478.744 166.698C478.666 165.976 478.718 165.255 479.336 164.74C479.593 164.766 479.851 164.791 480.108 164.817C480.623 174.735 481.164 184.653 481.653 194.571C481.782 197.018 481.653 199.491 481.834 201.964C481.988 204.231 480.804 205.133 478.821 205.39C478.203 205.467 477.585 205.442 476.967 205.442C463.628 205.648 450.264 205.905 436.926 206.034C434.763 206.034 434.042 206.704 434.17 208.842C434.376 211.805 434.325 214.793 434.376 217.755H434.454Z" fill="#DEBC9D"/>
<path d="M458.272 100.544C458.092 98.586 458.967 97.9163 460.924 98.0451C462.624 98.1739 464.375 98.1739 466.023 97.6071C468.778 97.6071 471.533 97.7102 474.289 97.6071C476.246 97.5298 476.992 98.2511 477.095 100.235C477.404 107.68 477.945 115.124 478.203 122.569C478.331 126.949 479.104 131.302 478.769 135.707C477.971 135.707 477.173 135.707 476.349 135.707C474.701 131.946 475.061 127.85 474.958 123.96C474.804 117.494 474.005 111.08 474.134 104.614C474.211 100.698 473.413 100.286 469.679 100.75C467.027 101.085 464.401 101.626 461.723 101.497C460.512 101.445 459.225 101.6 458.298 100.544H458.272Z" fill="#131417"/>
<path d="M122.879 148.176C123.6 148.382 124.295 148.588 125.016 148.794C124.037 149.644 122.93 149.335 121.849 149.18C122.209 148.846 122.544 148.511 122.904 148.176H122.879Z" fill="#9A6C41"/>
<path d="M458.272 100.544C462.16 101.034 465.997 100.029 469.859 99.9774C470.065 99.9774 470.271 99.9774 470.477 99.9259C473.67 98.8697 475.009 99.9774 475.112 103.687C475.215 107.757 475.447 111.827 475.55 115.872C475.73 122.492 476.606 129.087 476.348 135.733C459.276 136.944 444.109 131.637 430.256 122.054C425.569 118.809 420.806 115.511 417.664 110.514C423.381 109.767 429.123 109.998 434.865 109.947C437.569 109.947 440.144 110.23 442.77 108.375C444.29 107.293 447.148 108.015 449.388 107.937C450.573 107.886 451.86 108.401 452.916 107.397C455.233 107.293 456.16 105.774 456.804 103.816C457.165 102.682 457.783 101.652 458.298 100.544H458.272Z" fill="#060707"/>
<path d="M393.511 233.238C393.536 224.402 393.588 215.54 393.614 206.704C397.734 206.704 401.828 206.524 405.948 206.704C412.926 206.987 419.853 205.88 426.831 206.06C430.101 206.137 431.209 207.116 430.565 210.336C427.758 224.221 420.934 235.015 406.901 239.987C405.175 240.605 403.476 241.404 401.571 241.301C398.146 239.369 394.644 237.488 393.511 233.263V233.238Z" fill="#B28A66"/>
<path d="M464.658 162.421C464.349 181.201 445.294 194.648 427.964 188.208C421.038 185.632 416.3 180.712 413.828 173.73C412.72 170.613 413.725 168.063 416.3 167.007C418.643 166.028 420.96 167.161 422.351 170.253C424.771 175.662 428.479 179.346 434.582 180.274C444.65 181.793 452.71 174.246 454.667 166.363C455.079 164.663 455.337 162.962 455.337 161.185C455.337 157.45 457.242 154.977 459.972 154.977C462.675 154.977 464.607 157.501 464.658 161.185C464.658 161.597 464.658 162.009 464.658 162.421V162.421Z" fill="#D74367"/>
<path d="M378.061 160.463C377.031 159.871 376.207 159.098 375.666 158.042C374.997 155.698 374.327 153.353 373.812 150.983C372.885 146.63 374.688 143.023 377.546 139.829C381.28 135.682 390.859 132.539 397.065 135.218C397.348 135.424 397.58 135.707 397.734 136.016C399.923 144.337 400.464 152.709 398.532 161.159C398.378 161.648 398.146 162.086 397.863 162.498C395.7 164.765 393.717 165.538 390.189 164.276C386.25 162.859 382.284 161.107 378.035 160.463H378.061Z" fill="#00709A"/>
<path d="M392.017 118.577C398.429 118.783 404.686 120.097 410.351 123.574C411.046 124.012 411.742 124.476 412.385 124.965C413.853 126.047 414.729 127.49 413.596 129.164C412.385 130.968 410.737 130.349 409.295 129.319C403.811 125.429 397.656 123.858 391.013 123.986C385.425 124.089 380.249 125.377 375.743 128.855C374.224 130.014 372.576 130.839 371.185 128.984C369.846 127.181 371.005 125.712 372.499 124.553C378.189 120.097 384.859 118.757 392.017 118.577Z" fill="#030302"/>
<path d="M349.787 204.824C350.379 196.889 351.049 188.955 351.564 181.021C351.744 178.161 351.693 175.276 351.641 172.391C351.229 154.977 352.62 137.588 352.285 120.174C352.233 117.933 353.238 115.769 352.877 113.476C353.572 112.703 354.499 112.987 355.349 112.961C354.499 114.738 354.19 116.593 354.087 118.577C353.212 136.996 353.778 155.44 353.418 173.885C353.238 183.133 352.285 192.381 351.59 201.629C351.487 202.84 351.538 204.386 349.787 204.798V204.824Z" fill="#DDB99A"/>
<path d="M397.219 135.862C397.065 135.81 396.91 135.759 396.756 135.707C396.086 134.909 395.854 134.059 396.472 133.106C402.498 132.59 411.485 137.33 414.188 144.775C416.274 150.546 414.034 157.14 408.214 161.365C404.738 163.89 400.85 165.332 396.498 165.358C395.906 164.121 397.142 163.323 397.271 162.241L397.863 161.545C402.73 162.138 408.729 158.48 410.918 153.56C413.004 148.871 411.639 143.951 407.493 140.293C404.506 137.665 400.979 136.506 397.219 135.836V135.862Z" fill="#F3EDE8"/>
<path d="M396.472 133.106C396.575 133.982 396.653 134.832 396.756 135.708C388.104 133.235 376.876 137.82 374.816 145.935C374.198 148.33 374.121 150.597 375.125 152.761C375.949 154.513 376.104 156.213 375.64 158.016C370.928 152.478 370.696 145.419 375.409 140.139C381.022 133.879 388.103 131.457 396.446 133.106H396.472Z" fill="#007599"/>
<path d="M486.829 150.185C486.983 154.049 484.614 156.059 482.142 157.63C480.597 158.609 478.82 158.042 478.769 155.646C478.717 152.555 478.769 149.49 478.769 146.398C478.769 144.801 479.696 144.26 481.189 144.363C484.176 144.569 486.854 147.506 486.829 150.185Z" fill="#B28A66"/>
<path d="M479.413 164.714C480.392 175.456 480.057 186.25 481.216 196.992C481.396 198.615 481.422 200.289 481.164 201.887C480.984 202.943 480.675 205.055 478.795 202.969C480.108 199.517 479.413 195.936 479.181 192.458C479.078 190.861 478.821 189.238 478.795 187.615C478.666 180.196 478.332 172.803 477.662 165.409C477.611 164.92 477.327 164.302 477.894 164.044C478.512 163.761 479.027 164.224 479.413 164.74V164.714Z" fill="#DDB99A"/>
<path d="M397.296 162.267C397.039 163.297 396.781 164.327 396.524 165.384C389.623 166.517 383.52 164.714 378.087 160.463C380.379 160 382.516 160.36 384.473 161.7C387.074 163.477 390.833 162.112 393.279 164.791C393.485 164.997 395.906 163.168 397.296 162.292V162.267Z" fill="#02769A"/>
<path d="M423.793 205.107C425.286 203.87 426.806 204.154 428.788 204.54C426.96 206.111 425.286 205.081 423.793 205.107Z" fill="#DEB99B"/>
<path d="M209.605 144.389C217.304 139.443 229.716 141.684 235.715 149.232C241.483 156.471 242.513 164.508 238.548 172.777C234.557 181.098 227.244 184.705 218.308 184.73C214.806 184.73 211.176 183.854 208.343 181.33C207.133 179.372 207.39 177.182 207.545 175.07C208.163 166.311 208.729 157.553 208.704 148.794C208.704 147.274 208.549 145.703 209.605 144.389V144.389Z" fill="#010101"/>
<path d="M233.836 138.232C233.501 138.155 233.089 138.103 232.703 137.975C221.424 133.956 210.326 135.115 199.305 139.005C196.704 139.932 194.155 139.031 193.279 136.918C192.352 134.703 193.279 132.075 195.803 131.071C204.893 127.516 214.24 125.635 224.076 126.82C228.274 127.335 232.394 128.108 236.127 130.169C237.981 131.174 239.089 132.771 238.342 135.012C237.647 137.099 236.076 138.078 233.836 138.206V138.232Z" fill="#020202"/>
<path d="M209.605 144.389C209.991 156.728 208.781 169.016 208.343 181.355C200.876 177.002 197.528 170.252 198.017 161.88C198.481 154.023 202.266 147.944 209.579 144.389H209.605Z" fill="#F6F3EF"/>
<path d="M122.596 165.436C122.596 167.29 122.673 169.145 122.596 170.974C122.544 172.185 121.978 172.855 120.561 172.314C118.167 171.412 115.128 168.089 115.308 166.002C115.592 162.988 117.034 160.541 119.789 159.073C121.617 158.094 122.75 158.429 122.647 160.799C122.596 162.344 122.647 163.89 122.647 165.41L122.596 165.436Z" fill="#4F2E13"/>
<path d="M356.56 93.434C356.997 87.3287 359.675 81.2491 363.049 75.4787C365.366 71.5116 368.018 67.7248 371.392 64.5304C372.241 63.7318 372.988 61.6452 374.456 62.9075C376.155 64.3759 374.095 65.3805 373.22 66.3079C366.499 73.4436 361.632 81.584 359.366 91.1928C359.006 92.7384 359.135 94.2325 359.032 95.7524C358.98 96.6798 359.032 97.839 357.744 97.7875C356.508 97.736 356.585 96.5768 356.56 95.6494C356.56 95.1342 356.56 94.6189 356.56 93.4082V93.434Z" fill="#DCD8D8"/>
<path d="M407.185 92.8158C408.446 81.5069 411.639 70.4813 421.141 62.2894C421.811 61.7226 422.429 60.6664 423.407 61.7484C424.205 62.65 423.278 63.2425 422.738 63.7835C414.086 72.13 410.532 82.6661 409.682 94.3357C409.605 95.2888 409.631 96.2935 408.266 96.1905C407.339 96.1132 407.21 95.701 407.21 92.8158H407.185Z" fill="#DCD8D8"/>
<path d="M203.089 203.922C202.549 211.933 198.609 218.502 190.498 222.083C182.489 225.612 174.893 224.299 168.378 218.631C161.889 212.938 159.804 205.596 162.07 197.173C162.327 196.194 162.739 195.215 163.254 194.365C164.516 192.304 166.396 191.376 168.765 192.226C171.005 193.051 171.803 194.906 171.52 197.173C171.314 199.002 170.696 200.779 170.619 202.608C170.335 209.177 175.434 214.406 182.052 214.561C188.386 214.69 193.613 209.563 193.665 203.097C193.665 202.067 193.51 201.037 193.562 200.032C193.639 197.482 194.798 195.575 197.399 195.189C199.999 194.803 201.622 196.271 202.523 198.667C203.064 200.161 202.883 201.706 203.064 203.948L203.089 203.922Z" fill="#C33A6F"/>
<path d="M446.787 107.293C444.29 107.422 442.178 107.705 442.307 104.64C442.333 103.867 441.792 103.249 440.994 103.172C436.565 102.708 439.294 100.055 439.809 98.5862C440.839 95.6752 443.491 94.5675 445.526 95.701C448.204 97.1951 450.856 102.888 450.135 105.825C449.594 108.015 447.689 107.087 446.787 107.293V107.293Z" fill="#F6EFF0"/>
<path d="M397.219 135.862C399.82 134.342 402.034 136.146 403.991 137.073C410.635 140.216 415.373 147.326 411.15 154.848C408.626 159.356 404.429 161.571 399.588 162.782C398.635 163.014 397.992 162.602 397.863 161.546C399.434 152.942 398.919 144.363 397.193 135.836L397.219 135.862Z" fill="#F4F1EE"/>
<path d="M396.164 151.319C395.932 153.431 395.726 155.569 395.417 157.682C395.211 159.098 394.49 160.386 392.842 160.077C391.297 159.794 391.374 158.506 391.606 157.141C391.992 154.848 392.147 152.478 392.353 150.159C392.481 148.665 392.687 147.042 394.619 147.223C396.473 147.403 396.138 149.078 396.112 150.366C396.112 150.675 396.086 150.984 396.061 151.293C396.086 151.293 396.112 151.293 396.138 151.293L396.164 151.319Z" fill="#EBEFF0"/>
<path d="M396.447 141.967C396.215 143.333 395.777 144.492 394.181 144.415C392.507 144.312 391.863 143.075 391.915 141.658C391.966 140.319 392.79 139.314 394.335 139.443C395.88 139.572 396.267 140.731 396.447 141.993V141.967Z" fill="#E7EDEF"/>
<path d="M216.48 166.723C216.299 169.789 216.093 172.829 215.913 175.894C215.836 177.414 215.269 178.573 213.544 178.47C212.025 178.367 211.484 177.234 211.536 175.868C211.742 171.592 211.948 167.29 212.231 163.014C212.334 161.7 213.003 160.567 214.548 160.721C216.042 160.876 216.531 161.958 216.505 163.349C216.505 164.482 216.505 165.59 216.505 166.723C216.505 166.723 216.454 166.723 216.428 166.723H216.48Z" fill="#F7F2EE"/>
<path d="M212.643 154.565C212.643 152.864 213.183 151.782 214.883 151.679C216.891 151.576 217.612 152.813 217.612 154.539C217.612 155.981 217.046 157.218 215.398 157.295C213.415 157.398 212.874 155.981 212.643 154.539V154.565Z" fill="#F4EFEA"/>
</g>
<defs>
<clipPath id="clip0_5484_43206">
<rect width="595" height="297" fill="white"/>
</clipPath>
</defs>
</svg>
