<svg width="595" height="287" viewBox="0 0 595 287" fill="none" xmlns="http://www.w3.org/2000/svg">
<g clip-path="url(#clip0_5114_47574)">
<path d="M316.863 286.95H287.757C287.559 286.752 287.41 286.504 287.336 286.231C287.286 285.958 287.286 285.685 287.336 285.412C287.534 283.675 287.931 281.939 286.989 280.301C286.84 280.053 286.716 279.805 286.617 279.532C285.576 272.933 283.32 266.631 279.998 260.95C277.196 256.161 273.8 251.621 269.833 247.602C268.519 246.262 266.709 245.965 265.048 245.369C263.387 244.774 261.652 244.302 260.065 243.484C259.47 242.938 258.9 242.417 257.983 242.839C257.71 242.888 257.412 242.863 257.14 242.839C256.123 242.566 255.082 242.665 254.065 242.714C249.653 242.64 245.463 241.176 241.099 240.73C239.909 240.258 238.67 240.258 237.405 240.209C236.934 240.184 236.513 240.06 236.091 239.861C234.926 238.869 233.637 239.142 232.373 239.588C229.695 239.886 227.018 239.936 224.34 239.514C222.307 238.596 220.002 239.564 217.969 238.646C215.812 235.172 216.704 231.451 217.374 227.853C217.622 226.563 219.357 226.39 220.597 226.067C232.224 222.916 242.265 217.136 250.669 208.477C257.908 201.009 262.891 192.276 265.742 182.303C270.155 165.085 267.874 148.809 258.949 133.427C253.173 123.478 245.314 115.564 235.521 109.511C234.282 108.741 232.844 108.146 232.125 106.732C231.852 103.581 233.91 101.199 235.001 98.5198C236.885 93.9052 236.86 93.4338 232.571 90.7295C228.059 87.8764 223.373 85.3954 218.44 83.3858C217.374 82.9392 216.159 82.6415 215.589 81.4506C215.242 79.9372 216.729 79.8132 217.448 78.9448C214.845 81.798 211.622 79.3666 208.821 80.1605C202.796 78.796 196.673 78.0021 190.624 76.8856C186.583 76.1165 182.566 76.0421 178.55 76.8856C173.369 78.0765 168.014 78.399 162.857 79.838C151.775 82.9392 141.685 88.0004 134.272 96.932C124.108 109.188 122.521 123.057 128.471 137.769C129.165 139.506 130.132 141.143 130.082 143.103C130.033 143.773 129.735 144.294 129.215 144.716C128.273 145.311 127.182 145.435 126.165 145.807C119.794 148.09 115.381 153.548 115.158 159.478C114.935 165.01 119.348 171.634 124.95 174.215C126.19 174.785 127.479 175.43 128.818 175.629C131.719 176.075 133.429 177.613 133.851 180.541C133.925 181.112 134.173 181.682 134.446 182.203C142.825 204.334 158.717 218.376 181.029 225.521C184.674 226.687 185.045 227.084 185.194 231.228C184.971 233.287 185.938 235.495 184.326 237.331C182.765 238.224 181.079 237.877 179.418 237.877C174.806 237.877 170.195 238.075 165.609 237.753C163.824 237.058 162.064 235.892 160.13 237.43C159.46 237.777 158.692 237.976 158.023 238.298C151.106 240.06 144.065 241.151 137.049 242.367C131.818 243.26 129.363 246.362 127.504 250.554C125.05 256.087 123.091 261.768 122 267.748C121.777 269.013 121.455 270.278 120.686 271.345C118.852 272.486 119.1 273.9 120.141 275.439C120.438 276.357 120.339 277.324 120.513 278.267C120.562 280.128 120.513 282.013 120.81 283.849C120.984 284.941 120.959 286.008 120.141 286.901H0.744206C0.198789 285.884 0.471497 284.767 0.471497 283.7C0.471497 190.49 0.471497 97.2793 0.471497 4.06882C0.446706 0.0496267 0.000455696 0.446584 4.09108 0.446584C199.97 0.446584 395.824 0.446584 591.703 0.446584C592.769 0.446584 593.885 0.173676 594.926 0.719492C594.926 95.2201 594.926 189.746 594.976 284.246C594.976 286.479 594.48 286.975 592.249 286.975C563.441 286.876 534.608 286.926 505.8 286.926C505.478 286.628 505.379 286.256 505.403 285.834C505.577 284.395 504.957 283.254 504.089 282.187C503.321 281.021 502.899 279.706 502.453 278.391C497.867 264.597 490.454 252.539 480.289 242.144C479.397 241.226 478.43 240.358 477.909 239.167C477.513 237.529 476.447 236.661 474.786 236.462C470.645 233.882 467.1 230.409 462.811 228.052C460.877 226.737 458.894 225.521 456.812 224.454C455.25 223.412 453.366 222.916 452.002 221.552C451.655 221.006 451.159 220.807 450.515 220.956C447.143 220.386 444.168 218.748 441.069 217.458C440.251 217.012 439.482 216.416 438.466 216.54C436.656 216.639 434.524 215.126 433.16 217.607C431.722 217.284 431.623 215.771 430.756 214.927C429.913 214.109 429.045 213.24 428.921 212C428.524 208.006 428.747 203.986 428.698 199.992C428.698 199.248 429.194 198.751 429.863 198.454C435.317 197.511 440.846 198.082 446.325 198.082C448.184 198.082 450.044 198.156 451.903 198.206C458.969 198.503 466.034 197.66 473.1 198.677C473.72 198.776 473.868 198.23 473.992 197.734C474.835 194.931 474.81 192.102 474.091 189.274C473.943 179.747 473.273 170.27 473.025 160.743C473.472 159.056 475.058 158.957 476.347 158.436C476.595 158.311 476.868 158.237 477.141 158.138C478.058 157.939 478.851 157.518 479.595 156.972C480.711 156.252 481.802 155.558 482.793 154.664C483.686 153.871 484.727 153.25 485.223 152.084C488.495 146.75 488.322 141.466 484.95 136.256C483.934 133.105 482.322 132.212 477.587 132.187C476.67 132.162 475.728 132.212 474.91 131.641C474.315 131.095 474.215 130.351 474.265 129.607C474.339 127.994 472.207 128.589 471.959 127.299C471.488 126.208 471.711 125.041 471.662 123.925C471.513 117.524 472.232 111.074 470.645 104.772C470.497 102.415 470.274 100.083 469.976 97.7259C469.753 95.9396 469.084 95.3938 467.398 95.3689C464.125 95.3193 460.902 95.5674 457.679 95.9396C456.341 96.0884 454.903 96.2125 453.638 95.4682C452.424 94.3021 452.547 92.7639 452.647 91.325C453.167 84.3782 451.457 77.9276 448.506 71.7252C448.159 70.9313 447.887 70.1126 447.242 69.4923C446.721 68.8721 446.226 68.227 445.879 67.5075C445.606 66.7632 445.135 66.143 444.589 65.5724C439.358 58.6504 432.268 54.2839 424.384 51.0586C423.541 50.5128 422.624 50.1655 421.607 50.0166C403.683 44.2855 386.403 46.1711 369.842 54.7305C359.554 60.0398 351.447 67.706 346.34 78.2502C345.943 79.0689 345.497 79.8132 344.902 80.4831C343.167 82.7159 340.985 84.8 342.77 88.0252C342.274 92.367 342.844 96.7087 342.473 101.05C341.357 102.936 339.473 102.539 337.762 102.589C334.266 102.688 330.721 102.241 327.523 104.176C325.713 104.995 326.482 105.764 327.598 106.533C329.878 108.32 332.481 108.965 335.308 108.99C339.026 108.99 342.745 108.99 346.489 109.014C347.951 109.014 349.464 108.89 350.654 110.007C352.042 112.513 351.224 115.266 351.174 117.822C351.001 125.414 351.1 133.005 350.654 140.597C350.183 148.561 350.654 156.6 350.505 164.588C350.406 170.22 349.464 175.802 349.91 181.434C349.588 185.627 349.365 189.82 348.398 193.938C347.059 195.774 345.299 197.883 346.538 200.017C347.679 201.952 350.331 201.58 352.513 201.729C356.554 202.002 360.273 200.711 363.992 199.421C372.396 198.975 380.825 199.049 389.23 199.372C390.246 199.62 391.163 200.166 391.263 201.232C391.585 205.673 392.527 210.164 390.345 214.431C389.155 215.498 387.593 215.523 386.155 215.87C381.321 216.739 376.983 219.195 372.148 220.038C371.231 220.038 370.289 219.939 369.57 220.708C369.049 221.105 368.603 221.601 368.058 222.023C365.727 223.164 363.645 224.876 360.992 225.323C360.843 225.199 360.719 225.05 360.57 224.951C360.323 224.777 360.149 224.405 359.728 224.603C360.025 224.678 360.223 224.851 360.422 225.05C360.645 225.67 360.347 226.117 360 226.563C358.29 227.977 356.207 228.846 354.546 230.334C350.579 232.815 347.406 236.363 343.464 238.894C341.754 239.167 340.291 239.737 339.944 241.697C339.646 242.293 339.2 242.764 338.704 243.211C338.06 243.682 337.836 244.402 337.589 245.096C336.646 246.709 335.655 248.272 334.093 249.339C333.324 249.686 333.076 250.381 332.878 251.125C330.151 255.69 327.573 260.329 324.548 264.696C323.507 265.242 322.961 266.036 323.383 267.251C321.251 273.801 319.391 280.425 316.912 286.851L316.863 286.95Z" fill="#AE987E"/>
<path d="M259.817 242.913C265.717 244.352 271.023 246.039 274.667 251.969C277.815 257.104 281.733 261.818 283.989 267.524C285.55 271.469 287.013 275.463 287.236 279.756C288.278 281.889 287.459 284.172 287.633 286.355L287.732 286.95H120.165C120.165 283.973 119.099 281.07 119.645 278.068C119.843 277.721 119.942 277.349 120.066 276.977C120.388 275.612 119.942 274.347 119.62 273.082C119.545 272.486 119.694 271.965 120.066 271.519C121.678 266.557 122.396 261.347 124.206 256.385C125.867 251.894 127.975 247.676 130.528 243.682C131.173 242.69 133.007 242.218 134.396 241.97C142.329 240.457 150.287 239.067 158.22 237.653H158.716C161.27 237.331 163.823 237.43 166.377 237.653C172.079 237.653 177.756 237.628 183.458 237.653C185.02 237.678 185.615 238.546 185.491 240.01C184.847 241.747 183.731 243.508 185.615 245.195C190.326 248.644 195.507 249.934 201.209 248.57C202.87 248.173 204.506 247.974 206.168 247.974C207.655 247.974 209.118 247.9 210.432 247.106C213.332 246.684 215.192 244.923 216.53 242.466C217.324 238.174 220.621 238.77 223.646 238.794H224.092L233.017 238.869C234.033 238.869 235.099 238.621 236.017 239.315L237.132 239.489C238.273 240.258 239.636 239.415 240.801 239.936C245.438 239.812 249.751 241.846 254.363 241.846C255.305 242.442 256.395 242.367 257.437 242.367C257.61 242.367 257.759 242.367 257.933 242.367C258.503 242.739 259.271 242.243 259.792 242.838L259.817 242.913Z" fill="#2C67B0"/>
<path d="M478.455 238.894C483.562 244.203 488.495 249.661 492.512 255.864C497.792 264.051 501.883 272.834 504.684 282.187C505.279 283.303 505.775 284.469 505.676 285.784L505.8 286.926H454.109C452.498 284.792 453.043 282.36 453.266 280.053C453.861 273.479 454.035 266.854 454.828 260.305C455.919 251.075 457.159 241.896 460.134 233.063C460.803 231.079 461.051 228.746 463.282 227.605C467.695 229.64 471.141 233.039 474.984 235.842C476.347 236.611 477.785 237.306 478.455 238.869V238.894Z" fill="#F6F1EE"/>
<path d="M316.862 286.95C317.532 280.649 319.862 274.843 322.143 269.013C322.416 268.293 322.639 267.549 322.887 266.805C322.986 265.862 323.407 265.068 324.052 264.398C326.829 259.858 329.58 255.343 332.357 250.802C332.779 250.207 332.853 249.339 333.671 249.016L337.068 244.798C337.539 244.253 337.638 243.434 338.282 242.987L339.423 241.846C340.241 240.209 341.728 239.291 343.141 238.323C345.918 236.065 348.67 233.758 351.496 231.55C352.389 230.855 353.157 229.838 354.471 229.863C356.38 230.434 356.802 232.195 357.372 233.709C360.843 242.839 362.603 252.341 363.545 262.017C364.115 267.921 364.115 273.851 364.661 279.756C364.859 282.137 365.454 284.718 363.793 286.926H316.862V286.95Z" fill="#F6F1EE"/>
<path d="M363.793 286.95C363.496 277.026 363.223 267.053 361.984 257.203C360.818 247.776 359.083 238.398 354.472 229.863C355.662 227.977 357.571 227.109 359.554 226.365C361.091 227.084 361.438 228.598 361.86 229.987C363.917 236.586 365.554 243.31 367.413 249.959C368.479 253.705 368.653 253.879 372.495 253.879C396.221 253.879 419.922 253.879 443.647 253.879C447.515 253.879 447.961 253.556 448.68 249.587C450.044 241.995 452.052 234.552 454.556 227.283C455.027 225.918 455.374 224.355 457.109 223.933C459.365 224.802 461.473 225.943 463.258 227.63C458.745 238.174 456.985 249.339 455.82 260.677C454.928 269.435 454.382 278.193 454.109 286.975H446.374C445.581 282.683 445.879 278.366 446.275 274.099C446.548 271.147 446.498 268.219 446.573 265.267C446.622 263.282 445.779 262.389 443.771 262.438C442.11 262.463 440.424 262.513 438.763 262.612C438.416 262.612 438.069 262.612 437.722 262.562C434.623 262.041 431.499 262.438 428.4 262.339C426.591 262.339 424.756 262.289 422.946 262.389C413.352 262.662 403.782 262.686 394.188 262.389C388.362 262.314 382.511 262.389 376.685 262.364C374.578 262.736 371.95 261.62 370.438 263.133C368.826 264.696 370.289 267.251 370.165 269.36C369.892 273.975 371.057 278.54 370.735 283.155C370.636 284.519 370.785 285.933 369.743 287.05H363.793V286.95Z" fill="#030203"/>
<path d="M394.188 261.57C403.832 261.421 413.476 261.247 423.12 261.595C423.417 261.818 423.64 262.116 423.789 262.438C424.483 269.484 425.078 276.53 424.83 283.626C424.781 284.817 424.731 286.008 423.839 286.926H393.543C392.725 286.082 392.576 285.015 392.527 283.924C392.229 276.729 392.849 269.584 393.518 262.438C393.692 262.091 393.915 261.793 394.213 261.545L394.188 261.57Z" fill="#E94F10"/>
<path d="M423.814 286.95C423.69 279.507 423.938 272.064 422.921 264.671C422.797 263.828 423.169 262.934 423.318 262.066C425.078 261.297 426.913 261.892 428.698 261.694C431.822 261.818 434.97 261.421 438.094 261.942H438.193C439.259 262.686 439.482 263.828 439.681 265.018C440.722 271.395 440.276 277.82 440.276 284.221C440.276 285.238 440.003 286.181 439.284 286.926H423.839L423.814 286.95Z" fill="#F9C81A"/>
<path d="M394.013 262.041C393.84 270.353 393.666 278.639 393.518 286.95H377.477C376.907 286.33 376.659 285.611 376.659 284.792C376.585 279.061 376.585 273.33 376.659 267.599C376.659 265.986 377.329 264.721 378.891 264.101C382.659 264.77 386.427 265.316 390.196 264.249C390.121 263.877 390.171 263.505 390.295 263.158C390.667 262.513 391.237 262.116 391.881 261.793C392.6 261.793 393.369 261.495 394.013 262.066V262.041Z" fill="#F9C81A"/>
<path d="M439.259 286.95C439.011 279.88 439.68 272.759 438.713 265.688C438.54 264.423 438.342 263.183 438.168 261.917C440.821 260.801 443.597 261.545 446.324 261.371C447.167 261.322 447.589 261.768 447.589 262.612C447.49 270.725 447.316 278.862 446.399 286.926H439.259V286.95Z" fill="#E85010"/>
<path d="M369.743 286.95C369.817 279.16 369.321 271.419 368.677 263.654C368.553 262.066 368.999 261.446 370.561 261.52C372.42 261.595 374.304 261.595 376.189 261.62C376.511 261.868 376.734 262.165 376.908 262.513C377.503 265.465 376.734 268.393 376.858 271.345C377.032 275.488 376.908 279.656 376.883 283.8C376.883 284.866 377.081 286.008 376.288 286.926H369.743V286.95Z" fill="#E84F10"/>
<path d="M376.287 286.95C376.312 278.639 376.362 270.353 376.387 262.041C376.833 261.62 377.329 261.744 377.825 261.967C380.849 262.711 383.923 262.141 386.948 262.339C388.187 262.413 389.551 262.066 390.543 263.183V264.373C386.973 265.341 383.427 265.316 379.857 264.373C377.924 264.969 377.428 266.358 377.453 268.244C377.502 274.471 377.453 280.698 377.453 286.926H376.263L376.287 286.95Z" fill="#F9C523"/>
<path d="M429.764 199.074C429.764 203.441 429.813 207.807 429.764 212.149C429.764 213.786 431.4 213.637 432.044 214.506C430.482 215.845 430.582 217.632 430.755 219.418C430.929 221.279 431.35 223.09 431.226 224.975C431.127 225.745 431.152 226.514 430.929 227.258C430.532 228.449 429.714 229.342 428.797 230.136C428.549 230.31 428.301 230.434 428.028 230.508C425.078 230.855 423.194 232.84 421.384 234.924C420.367 235.793 419.177 236.289 417.913 236.413C411.839 237.058 405.79 237.43 399.989 234.875C399.295 234.254 397.956 234.155 398.229 232.741C399.914 231.401 402.071 231.228 403.98 230.483C416.277 225.596 422.5 215.945 425.003 203.49C425.549 200.786 424.706 199.893 421.731 200.017C412.756 200.364 403.757 200.736 394.782 200.563C393.221 200.538 391.584 200.761 390.221 199.694C389.18 198.652 387.816 198.876 386.576 198.876C376.511 199.024 366.446 198.33 356.405 199.297C354.248 199.496 352.116 198.851 349.934 199.248C348.521 199.496 347.951 198.106 348.249 197.064C349.067 194.137 348.596 191.234 348.67 188.307C348.72 186.297 349.612 187.289 350.281 187.959C349.562 186.123 349.934 184.163 350.133 182.129C350.48 178.631 351.05 175.083 349.637 171.634C349.885 168.285 349.736 164.936 349.786 161.586C349.786 160.817 349.637 159.999 350.009 159.254C350.182 158.907 350.505 158.609 350.926 158.659C351.422 158.708 351.496 159.105 351.521 159.502C351.62 161.189 351.471 162.926 351.571 164.043C351.595 161.76 351.199 158.907 350.951 156.054C350.058 145.931 350.505 135.784 350.777 125.637C350.852 122.635 351.571 119.608 351.496 116.557C351.447 114.249 350.405 111.992 351.199 109.635C353.058 107.799 355.463 107.724 357.843 107.699C364.859 107.65 371.875 107.575 378.891 107.699C389.378 107.898 399.766 106.236 410.252 106.236C411.145 106.236 412.013 106.062 412.905 106.236C416.079 107.948 418.037 111.049 420.789 113.282C432.02 122.436 444.614 128.391 459.042 130.202C462.885 130.673 466.753 130.202 470.595 130.475C471.042 130.475 471.488 130.549 471.909 130.673C472.182 130.748 472.455 130.872 472.703 130.996C472.951 131.12 473.174 131.269 473.422 131.442C474.884 132.087 476.446 131.839 477.983 131.889C481.33 131.79 483.933 133.005 485.594 136.007C489.635 142.111 489.635 146.924 485.57 152.655C484.578 153.25 483.239 153.498 483.214 155.037C482.347 156.302 481.082 156.997 479.669 157.418C479 158.063 477.884 157.815 477.289 158.609C476.05 158.857 474.785 158.857 473.595 159.279C471.761 161.264 472.703 163.571 472.678 165.854C472.628 171.089 473.422 176.249 473.397 181.459C473.397 184.436 473.769 187.339 474.289 190.267C474.289 191.234 474.091 192.226 474.339 193.194C474.463 193.914 474.537 194.633 474.438 195.353C474.314 195.948 474.091 196.469 473.521 196.767C472.405 196.99 471.24 196.667 470.149 197.089C469.852 197.164 469.554 197.188 469.257 197.164C464.273 196.469 459.241 197.263 454.258 196.395C452.076 196.022 449.721 195.998 447.564 197.089C443.796 197.933 439.953 197.437 436.16 197.486C433.879 197.511 431.697 197.61 429.764 198.975V199.074Z" fill="#DBB592"/>
<path d="M232.397 106.484C238.297 110.28 244.148 114.1 249.057 119.186C262.816 133.502 269.783 150.447 268.617 170.394C268.394 174.487 267.973 178.631 266.386 182.501C246.007 182.179 225.629 182.203 205.25 182.501C196.548 182.625 187.871 182.129 179.169 182.551C165.435 183.221 151.675 182.799 137.941 182.923C136.552 182.923 135.164 183.022 133.85 182.476C133.057 178.631 130.726 176.894 126.859 175.852C120.859 174.239 116.818 169.972 114.959 164.018C112.157 155.037 119 145.634 129.065 144.368C130.057 143.872 131.098 143.5 132.214 143.401C141.089 144.095 149.865 145.559 158.666 146.75C161.096 147.073 162.261 146.428 163.055 144.12C169.376 125.662 183.086 116.16 201.655 112.835C209.712 111.396 217.795 111.694 225.753 113.703C227.215 114.076 227.984 113.703 228.554 112.413C229.149 111.049 229.769 109.709 230.414 108.394C230.81 107.551 231.083 106.459 232.397 106.533V106.484Z" fill="#7C4413"/>
<path d="M232.397 106.484C231.281 108.791 230.017 111.024 229.075 113.381C228.381 115.167 228.108 115.986 225.877 114.646C223.373 113.133 220.125 113.306 217.224 113.108C206.341 112.339 195.73 113.654 185.888 118.765C174.855 124.496 167.17 133.129 163.649 145.162C162.881 147.817 161.716 148.115 159.212 147.742C150.956 146.477 142.626 145.534 134.346 144.443C133.577 144.344 132.809 144.145 132.04 143.996C131.098 144.294 130.23 144.244 129.66 143.302C127.801 138.265 125.52 133.402 124.727 128.019C123.289 118.591 124.925 109.858 129.908 101.671C136.552 90.7791 146.692 84.6511 158.245 80.4086C164.046 78.275 170.071 77.0345 176.268 76.6872C176.839 76.6624 177.384 76.3646 177.929 76.191C182.243 75.6203 186.557 75.794 190.871 76.0917C195.581 77.1585 200.49 77.1337 205.176 78.4983C206.564 78.8952 207.952 79.2426 209.341 79.6147C211.82 79.1433 213.803 80.359 215.861 81.401C222.158 84.0805 228.405 86.884 234.107 90.7295C238.049 93.409 238.248 94.2773 236.19 97.8996C234.653 100.604 233.661 103.606 232.422 106.459L232.397 106.484Z" fill="#020202"/>
<path d="M341.877 101.1C341.084 96.5846 341.505 92.094 341.877 87.5786C341.803 84.8992 342.869 82.5671 344.183 80.3094C347.654 73.0401 352.141 66.5399 358.388 61.3299C368.603 52.8201 380.403 48.1558 393.518 46.444C403.286 45.1787 412.781 46.1462 422.053 49.4708C422.847 49.967 423.739 50.1902 424.632 50.5128C432.962 53.4403 439.978 58.2286 445.258 65.3987C445.63 66.0189 445.829 66.7384 446.374 67.2594L447.663 68.8969C447.961 69.5667 448.209 70.2862 448.779 70.8072C452.746 77.233 453.936 84.2789 453.564 91.6971C453.514 92.7639 453.588 93.8307 453.613 94.9223C453.663 95.7163 453.787 96.4854 453.564 97.2793C453.068 99.0904 452.473 100.877 451.456 102.44C450.465 103.978 449.2 105.268 447.068 104.201C446.002 102.737 446.201 101.001 445.928 99.3633C445.506 96.9568 444.738 94.7487 442.953 93.0368C440.102 90.2829 436.978 90.531 434.598 93.6819C433.681 94.8975 433.111 96.2373 432.664 97.6762C432.02 99.7355 430.656 100.827 428.524 100.827C422.103 100.827 415.657 101.249 409.236 100.554C405.468 100.157 401.675 100.033 397.956 100.381C389.353 101.224 380.751 100.802 372.123 100.852C364.289 100.877 356.504 101.398 348.72 101.919C346.414 102.068 343.96 102.737 341.852 101.075L341.877 101.1Z" fill="#F6F1F1"/>
<path d="M133.825 182.451C134.718 181.509 135.858 181.881 136.899 181.856C146.295 181.831 155.716 181.906 165.112 181.806C174.31 181.707 183.532 181.31 192.73 181.285C216.208 181.211 239.686 181.236 263.188 181.285C264.329 181.285 265.89 180.616 266.386 182.501C263.287 195.03 256.346 205.177 246.652 213.464C238.967 220.038 230.19 224.678 220.274 226.985C218.266 227.456 217.2 228.25 217.447 230.583C217.72 233.113 217.646 235.718 217.72 238.274C217.571 238.298 217.398 238.323 217.249 238.373C215.39 236.735 216.158 234.527 216.084 232.542C215.96 228.722 216.034 228.747 212.415 229.144C204.556 230.012 196.672 230.285 188.838 228.945C187.276 228.672 186.136 229.044 185.342 230.409C185.094 230.682 184.797 230.731 184.45 230.558C184.896 227.729 183.136 227.084 180.83 226.365C158.766 219.418 142.849 205.599 134.197 183.915C134.024 183.469 133.949 182.972 133.85 182.501L133.825 182.451Z" fill="#5D3712"/>
<path d="M457.134 223.909C454.803 228.374 453.688 233.287 452.374 238.075C451.035 242.888 449.87 247.776 448.977 252.688C448.556 254.995 447.267 254.896 445.63 254.896C433.359 254.871 421.087 254.871 408.815 254.871C396.146 254.871 383.478 254.797 370.809 254.921C368.528 254.921 367.413 254.276 366.842 252.117C364.884 244.699 362.801 237.331 360.917 229.913C360.595 228.647 359.826 227.605 359.554 226.34C359.802 225.968 360.05 225.571 360.297 225.199C360.421 224.975 360.595 224.951 360.793 225.075C363.124 223.809 365.355 222.37 367.908 221.552C368.454 221.055 369.222 220.832 369.644 220.187C370.239 219.741 371.082 219.84 371.627 219.294C374.974 218.947 377.875 217.235 381.023 216.317C382.61 215.845 384.246 215.672 385.808 215.126C386.725 216.094 386.626 217.309 386.651 218.475C386.775 227.432 390.543 234.428 397.906 239.489C406.807 245.965 420.169 243.98 426.838 235.172C427.136 234.775 427.433 234.378 427.756 234.006C428.301 233.411 428.896 232.84 429.02 231.972C429.293 231.029 429.863 230.235 430.408 229.441C431.301 228.399 431.276 227.059 431.623 225.844C432.689 223.164 431.697 220.113 433.185 217.532C433.185 215.622 433.16 213.761 435.986 215.424C436.681 215.821 437.722 215.647 438.59 215.721C439.408 216.044 440.3 216.267 441.019 216.813L451.109 220.435C451.63 220.361 451.977 220.659 452.25 221.055C453.737 222.246 455.795 222.395 457.084 223.909H457.134Z" fill="#E94F10"/>
<path d="M341.877 101.1C358.934 100.132 375.991 100.232 393.047 99.6611C404.6 99.2641 416.104 100.554 427.632 99.9588C429.987 99.8347 431.35 99.5122 431.97 96.8824C432.987 92.5903 436.036 89.8364 438.986 89.8364C442.011 89.8364 445.283 92.7887 446.449 96.932C447.093 99.2393 447.267 101.695 447.639 104.077C447.242 105.814 445.754 105.467 444.564 105.665C435.565 107.104 426.516 107.823 417.393 107.724C416.079 107.724 414.839 107.799 413.699 107.079C394.584 108.543 375.42 109.114 356.232 108.866C354.496 108.866 352.984 109.684 351.348 109.982C350.951 110.354 350.554 110.354 350.158 110.007C344.778 109.982 339.373 110.081 333.994 109.858C331.093 109.734 328.068 109.411 326.333 106.459C325.763 105.64 325.763 104.846 326.333 104.052C328.019 102.365 330.101 101.894 332.382 101.695C335.555 101.447 338.778 102.167 341.877 101.1V101.1Z" fill="#DDD8D9"/>
<path d="M390.543 199.62C401.302 199.918 412.062 199.496 422.797 199.049C425.499 198.925 426.466 200.19 426.168 202.572C424.458 215.721 414.839 230.632 398.228 233.014C397.931 233.188 397.633 233.237 397.286 233.188C391.262 230.682 388.386 225.769 389.328 219.443C389.576 217.706 389.502 215.92 389.973 214.208C391.014 210.065 390.344 205.847 390.518 201.654C390.543 200.86 390.196 200.364 389.378 200.215C389.378 199.248 389.898 199.273 390.543 199.62V199.62Z" fill="#B28A66"/>
<path d="M184.45 230.533C184.623 230.533 184.772 230.533 184.946 230.533C190.4 239.043 198.755 243.161 208.076 245.84C209.192 246.163 210.729 245.989 211.076 247.676C209.539 248.917 207.704 248.892 205.87 248.942C204.209 248.991 202.647 249.165 201.011 249.736C196.474 251.299 187.326 248.669 184.946 245.394C184.078 243.781 184.202 242.169 184.847 240.531C184.648 239.688 185.442 238.472 183.88 238.174C183.607 238.05 183.533 237.827 183.632 237.554C183.855 237.38 184.078 237.281 184.351 237.207L184.45 230.533V230.533Z" fill="#7C4414"/>
<path d="M390.543 199.62C390.146 199.818 389.75 200.017 389.378 200.215C380.651 200.24 371.924 200.265 363.198 200.29C359.529 201.257 355.785 201.406 352.017 201.332C346.81 201.208 345.546 199.148 347.728 194.311C348.149 190.142 348.546 185.999 348.967 181.831C349.661 179.549 349.513 177.167 349.562 174.835C349.587 173.793 349.24 172.652 350.157 171.758C351.769 172.081 351.248 173.371 351.347 174.388C351.769 179.226 350.579 183.99 350.752 188.828C349.81 189.001 350.232 187.513 349.215 187.786C348.769 188.679 348.794 189.646 349.339 190.465C350.579 192.326 350.48 194.087 349.265 195.923C348.769 196.692 348.67 197.734 349.24 198.454C349.885 199.273 350.356 197.883 350.975 198.007C354.099 198.603 357.198 198.082 360.322 198.007C369.495 197.759 378.693 197.908 387.89 197.933C389.13 197.933 390.642 197.61 390.568 199.669L390.543 199.62Z" fill="#DCB18E"/>
<path d="M389.973 214.208C390.766 215.374 390.617 216.739 390.37 217.905C388.857 224.876 391.708 229.64 397.683 232.915C397.683 234.428 397.138 236.115 398.997 237.033C399.567 238.149 398.699 238.894 398.278 239.787C398.08 240.01 397.857 240.184 397.609 240.308C390.022 235.197 385.957 228.176 385.907 218.947C385.907 217.657 385.882 216.391 385.857 215.101C387.246 214.779 388.609 214.481 389.998 214.158L389.973 214.208Z" fill="#F6EEEB"/>
<path d="M350.132 171.734C349.909 175.108 350.802 178.631 348.942 181.831C349.587 168.012 349.042 154.168 349.736 140.399C350.207 130.847 349.339 121.246 350.504 111.719C350.579 111.173 350.256 110.577 350.132 109.982C350.529 109.982 350.926 109.982 351.322 109.957C352.19 111.173 351.273 113.232 351.496 113.455C353.554 115.49 352.736 118.045 352.388 120.03C350.876 128.416 351.025 136.826 351.471 145.212C351.843 152.01 351.769 158.758 351.422 165.581V159.279H350.554C349.637 163.348 350.355 167.59 350.132 171.734V171.734Z" fill="#DCB08D"/>
<path d="M452.944 96.9319C452.895 96.1628 452.771 95.3937 453.614 94.9223C458.026 95.3937 462.415 94.575 466.803 94.575C469.455 94.575 471.116 95.096 470.968 98.2469C470.869 100.381 471.265 102.539 471.414 104.673C471.959 110.156 472.356 115.663 472.232 121.196C472.207 122.263 472.009 123.379 472.455 124.421C472.505 125.562 472.53 126.704 472.579 127.845C472.877 128.217 473.149 128.639 473.224 129.135C473.298 129.979 473.224 130.773 472.48 131.343L471.315 131.294C469.926 130.624 469.158 129.507 469.331 127.994C469.951 122.858 467.299 117.723 469.331 112.587C469.53 112.091 469.232 111.619 468.984 111.198C467.67 108.965 467.869 106.657 468.662 104.35C469.133 103.01 469.406 101.671 469.084 100.281C468.538 98.098 467.373 96.4854 464.819 96.6342C462.514 96.7583 460.233 96.535 457.828 96.2621C458.696 96.535 460.035 96.0636 459.935 97.3785C459.886 98.1724 458.745 98.3461 457.952 98.3213C456.167 98.3213 454.134 99.016 452.895 96.9319H452.944Z" fill="#17110F"/>
<path d="M473.719 190.763C472.034 186.098 472.901 181.161 472.257 176.398C471.736 172.602 471.984 168.806 471.934 165.01C471.934 164.365 471.81 163.869 470.992 163.844C470.571 163.844 470.149 163.199 470.298 163.149C472.629 162.529 470.967 158.907 473.719 158.684C474.066 159.081 474.066 159.478 473.719 159.899C474.661 169.749 475.033 179.623 474.909 189.522C475.356 190.788 474.984 191.209 473.695 190.738L473.719 190.763Z" fill="#DBB290"/>
<path d="M473.719 190.763C474.488 190.738 474.86 190.291 474.934 189.547C476.025 192.326 475.628 195.104 474.934 197.883C474.19 198.826 473.223 198.851 472.058 198.851C465.488 198.851 458.894 198.429 452.324 199.074C444.812 199.074 437.3 199.074 429.764 199.074C430.061 196.791 431.499 196.568 433.507 196.643C438.193 196.791 442.903 196.692 447.589 196.692C454.159 197.089 460.753 196.866 467.323 197.188C468.24 197.238 469.306 197.412 470.149 196.692C471.141 196.246 472.133 196.246 473.124 196.692C473.571 196.419 473.694 195.998 473.719 195.501C474.488 194.707 474.488 193.914 473.719 193.12C472.678 192.326 473.397 191.532 473.719 190.738V190.763Z" fill="#DDAF8B"/>
<path d="M347.728 194.31C347.778 198.297 349.802 200.281 353.802 200.265C356.926 200.265 360.049 200.265 363.198 200.265C358.19 202.87 352.934 203.565 347.554 201.729C346.588 201.406 344.232 201.654 344.753 200.662C345.893 198.578 344.108 195.104 347.703 194.261L347.728 194.31Z" fill="#AE987E"/>
<path d="M433.209 217.532C433.085 220.51 433.755 223.586 432.168 226.39C430.78 227.208 430.78 225.993 430.457 225.224C430.234 222.395 430.036 219.592 429.763 216.763C429.59 215.002 430.209 214.158 432.069 214.506C432.441 215.498 432.837 216.515 433.209 217.508V217.532Z" fill="#F4EAE1"/>
<path d="M190.896 71.9981C190.648 73.4123 189.532 73.1642 188.59 73.189C185.045 73.189 181.499 73.2138 177.979 73.189C177.136 73.189 176.045 73.5363 175.649 72.4695C175.326 71.5763 175.549 70.832 176.764 71.5515C177.087 71.75 177.458 71.8989 177.83 71.9733C178.202 72.0477 178.624 71.9981 178.996 72.0229C182.962 70.9065 186.929 71.1794 190.871 72.0229L190.896 71.9981Z" fill="#DA905A"/>
<path d="M190.896 71.9981C186.929 71.9981 182.962 71.9981 179.02 71.9981C179.194 71.1794 177.756 70.708 178.376 69.9637C178.698 69.5916 179.863 69.4427 180.285 69.7404C182.913 71.4771 185.813 70.6088 188.59 70.8072C189.532 70.8817 190.648 70.5839 190.896 71.9981V71.9981Z" fill="#E08D51"/>
<path d="M452.299 199.049C453.217 198.181 454.357 198.503 455.398 198.503C460.629 198.454 465.885 198.429 471.116 198.503C472.43 198.503 473.645 198.156 474.884 197.883C474.909 199.645 474.637 201.084 472.455 199.595C471.438 198.9 470.397 199.099 469.331 199.099C463.654 199.074 457.952 199.099 452.274 199.074L452.299 199.049Z" fill="#AE987E"/>
<path d="M215.837 81.4258L209.316 79.6395C209.862 79.0689 210.581 79.0441 211.225 79.1681C213.134 79.4658 214.969 80.1357 216.605 78.1757C217.051 77.6547 218.886 77.4314 219.233 78.92C219.58 80.3838 218.266 80.3094 217.299 80.3342C216.531 80.359 215.961 80.5823 215.837 81.4506V81.4258Z" fill="#DA9059"/>
<path d="M292.69 275.86C290.831 272.759 292.938 270.179 293.335 267.375C293.409 266.879 294.054 266.755 294.574 266.879C295.269 267.028 295.095 267.425 294.922 267.946C294.054 270.526 292.765 273.007 292.715 275.86H292.69Z" fill="#DB9051"/>
<path d="M472.48 124.421C471.761 117.871 471.438 111.272 471.438 104.697C473.223 111.198 472.381 117.847 472.48 124.421Z" fill="#AE987E"/>
<path d="M485.619 136.082C483.313 134.32 481.206 132.137 477.909 132.534C477.71 132.385 477.586 132.212 477.562 131.963C477.611 131.715 477.71 131.517 477.884 131.368C480.264 130.921 482.297 131.914 484.255 133.03C485.346 133.675 485.817 134.767 485.644 136.082H485.619Z" fill="#AE987E"/>
<path d="M184.351 237.207L183.805 237.802C178.178 238.149 172.525 237.852 166.897 237.951C166.377 237.951 165.881 237.951 165.36 237.951C164.988 237.951 164.741 237.802 164.592 237.48C164.641 237.331 164.666 237.157 164.716 237.008L184.351 237.231V237.207Z" fill="#7B8ABA"/>
<path d="M344.183 80.3094C343.414 82.7407 342.645 85.1473 341.877 87.5787C340.389 84.6511 340.761 83.485 344.183 80.3094Z" fill="#DB9562"/>
<path d="M190.871 76.0917C186.557 76.1165 182.243 76.1413 177.93 76.191C182.243 75.1241 186.557 75.273 190.871 76.0917Z" fill="#BE977C"/>
<path d="M343.142 238.298C342.175 239.762 341.134 241.151 339.423 241.821C339.175 239.092 340.911 238.422 343.142 238.298Z" fill="#AE987E"/>
<path d="M472.504 131.318L472.603 128.986C473.372 128.391 474.14 128.292 474.884 128.986V131.318C474.14 132.087 473.347 131.939 472.504 131.467V131.294V131.318Z" fill="#AE987E"/>
<path d="M159.98 236.959C161.567 235.296 163.129 235.247 164.691 236.959L164.765 237.132C163.129 237.753 161.518 238.075 159.98 236.934V236.959Z" fill="#E38C50"/>
<path d="M126.711 241.821C126.834 241.176 127.082 240.556 127.801 241.201C128.248 241.598 129.14 242.02 128.545 242.839C128.099 243.459 127.628 244.153 126.711 244.178C126.091 243.384 126.066 242.59 126.711 241.821V241.821Z" fill="#DF8D5D"/>
<path d="M120.066 271.494L120.264 273.28C120.388 273.503 120.413 273.727 120.339 273.975C120.165 274.421 120.016 274.918 119.471 275.067C117.785 273.181 117.934 272.412 120.066 271.519V271.494Z" fill="#E38B59"/>
<path d="M483.24 155.136L482.446 152.754H485.595C485.396 154.143 484.107 154.416 483.24 155.136V155.136Z" fill="#DEAF89"/>
<path d="M505.701 285.784C504.883 284.718 504.709 283.477 504.709 282.187C505.725 283.204 507.312 284.048 505.701 285.784Z" fill="#D99B6E"/>
<path d="M473.744 159.899V158.684C474.909 157.84 476.099 157.84 477.289 158.684C476.273 159.552 475.009 159.75 473.744 159.899Z" fill="#E1B18A"/>
<path d="M478.454 238.894C477.165 238.025 475.851 237.182 474.983 235.867C477.041 235.867 478.38 236.661 478.454 238.894Z" fill="#AE987E"/>
<path d="M360.818 225.1C360.669 225.199 360.495 225.248 360.322 225.224C359.677 224.876 358.413 225.869 358.363 224.355C358.363 223.958 358.834 223.189 358.933 223.214C359.9 223.437 360.57 224.082 360.818 225.1V225.1Z" fill="#AE987E"/>
<path d="M126.711 241.821C126.711 242.615 126.711 243.409 126.711 244.178C125.669 244.005 124.752 243.285 124.802 242.392C124.851 241.4 126.041 241.97 126.711 241.796V241.821Z" fill="#D8924C"/>
<path d="M474.909 129.011H472.628V127.82C473.471 127.82 474.438 127.622 475.181 127.919C476.446 128.416 475.677 128.788 474.909 128.986V129.011Z" fill="#AE987E"/>
<path d="M324.027 264.398C323.953 265.341 323.804 266.259 322.862 266.805C321.622 265.887 321.87 265.391 324.027 264.398Z" fill="#D89363"/>
<path d="M159.981 236.959L164.765 237.157C164.765 237.306 164.716 237.43 164.691 237.579C162.534 238.224 160.353 238.05 158.171 237.703L158.22 237.628C158.592 236.835 159.386 237.182 159.981 236.959Z" fill="#9E9BB6"/>
<path d="M287.657 286.355C286.666 284.196 287.236 281.964 287.261 279.755C287.434 279.805 287.583 279.88 287.756 279.954C288.277 281.914 288.153 283.849 287.831 285.809C287.806 285.983 287.732 286.181 287.682 286.355H287.657Z" fill="#6E6773"/>
<path d="M217.745 238.249C219.877 238.522 222.083 237.604 224.141 238.77V238.869C222.083 239.365 220.001 239.018 217.918 239.092C217.571 238.894 217.447 238.621 217.571 238.224H217.77L217.745 238.249Z" fill="#7A88BE"/>
<path d="M236.042 239.34C235.025 239.315 233.91 239.886 233.042 238.894C234.207 238.001 235.273 237.628 236.042 239.34Z" fill="#D68E60"/>
<path d="M287.807 285.809C287.807 283.849 287.757 281.889 287.732 279.954C288.65 281.889 288.675 283.849 287.807 285.809Z" fill="#A79CA5"/>
<path d="M240.851 239.985C239.611 239.936 238.198 241.276 237.182 239.539C238.421 239.539 239.735 239.018 240.851 239.985Z" fill="#768BBE"/>
<path d="M259.816 242.913C259.147 242.963 258.428 243.285 257.957 242.442C258.726 242.243 258.403 240.68 259.42 241.052C260.064 241.275 259.742 242.243 259.816 242.888V242.913Z" fill="#D28E60"/>
<path d="M257.486 242.417C256.247 243.558 255.28 242.963 254.412 241.896C255.478 241.871 256.594 241.424 257.486 242.417Z" fill="#9494B3"/>
<path d="M472.529 131.492C473.323 131.442 474.116 131.393 474.909 131.343C475.901 131.343 476.868 131.343 477.859 131.368V131.988C476.074 132.36 474.29 132.435 472.529 131.963C472.529 131.815 472.529 131.641 472.529 131.492Z" fill="#D79E73"/>
<path d="M116.62 257.625C117.115 257.7 117.14 258.097 117.14 258.444C117.14 258.816 117.091 259.263 116.595 259.238C116.099 259.238 116.074 258.791 116.074 258.419C116.074 258.047 116.099 257.65 116.62 257.6V257.625Z" fill="#E28A5D"/>
<path d="M126.711 246.486C126.562 247.007 126.562 247.528 126.041 247.354C125.818 247.279 125.644 246.783 125.62 246.461C125.595 246.113 125.694 245.592 126.215 245.766C126.463 245.84 126.587 246.287 126.711 246.486Z" fill="#D79159"/>
<path d="M371.627 219.319C371.429 220.361 370.635 220.46 369.768 220.485C369.52 220.733 369.321 220.683 369.123 220.435C369.421 218.872 370.635 219.344 371.627 219.319Z" fill="#AE987E"/>
<path d="M501.387 264.77C502.106 264.721 502.18 265.167 502.156 265.515C502.131 265.837 501.932 266.309 501.709 266.383C501.189 266.557 501.114 266.036 501.114 265.688C501.114 265.366 501.288 265.043 501.362 264.77H501.387Z" fill="#D5925E"/>
<path d="M220.968 80.6319C221.241 80.5575 221.563 80.3838 221.885 80.3838C222.232 80.3838 222.753 80.483 222.579 80.9792C222.505 81.2025 222.009 81.3762 221.687 81.401C221.34 81.4258 220.918 81.3514 220.968 80.6319Z" fill="#D6905F"/>
<path d="M326.308 104.028C326.308 104.822 326.308 105.64 326.308 106.434C324.721 105.615 324.721 104.822 326.308 104.028Z" fill="#D89B73"/>
<path d="M137.024 239.762C137.073 240.482 136.627 240.556 136.28 240.531C135.958 240.506 135.462 240.308 135.412 240.085C135.239 239.564 135.759 239.489 136.107 239.489C136.429 239.489 136.751 239.663 137.024 239.737V239.762Z" fill="#DA924B"/>
<path d="M477.289 158.708C477.487 157.121 478.727 157.592 479.669 157.518C479.173 158.535 478.306 158.758 477.289 158.708Z" fill="#E1B18A"/>
<path d="M119.471 275.067C119.619 274.62 119.545 274.074 120.14 273.851C120.685 274.992 120.611 276.158 120.19 277.324L119.669 278.044L119.471 275.042V275.067Z" fill="#7A8CB9"/>
<path d="M129.66 143.277C130.454 143.5 131.247 143.748 132.04 143.971C131.123 144.716 130.082 144.368 129.065 144.344C129.264 143.996 129.462 143.624 129.66 143.277Z" fill="#835C41"/>
<path d="M424.607 50.5128C423.541 50.7113 422.599 50.5872 422.028 49.4708C423.07 49.3467 423.888 49.7933 424.607 50.5128Z" fill="#F0E6DF"/>
<path d="M452.3 221.08L451.159 220.46C451.283 220.063 451.258 219.368 451.903 219.616C452.523 219.84 452.3 220.534 452.3 221.08Z" fill="#AE987E"/>
<path d="M333.646 249.016C333.498 249.835 333.002 250.381 332.332 250.802C332.258 249.835 332.382 248.991 333.646 249.016Z" fill="#AE987E"/>
<path d="M338.282 242.987C338.431 243.955 337.712 244.352 337.067 244.799C337.018 243.881 337.117 243.062 338.282 242.987Z" fill="#AE987E"/>
<path d="M448.779 70.8072C447.539 70.6832 447.564 69.8148 447.663 68.8969C448.283 69.393 448.804 69.9389 448.779 70.8072Z" fill="#F7E8E2"/>
<path d="M369.123 220.435C369.346 220.435 369.544 220.485 369.768 220.485C369.346 221.18 368.776 221.651 367.908 221.577C367.983 220.857 368.404 220.485 369.123 220.435Z" fill="#AE987E"/>
<path d="M446.349 67.2594C445.159 67.1354 445.184 66.2918 445.233 65.3987C445.853 65.8701 446.522 66.3166 446.349 67.2594Z" fill="#F7E8E2"/>
<path d="M441.044 216.838C440.052 216.838 439.284 216.416 438.614 215.746C439.656 215.597 440.548 215.821 441.044 216.838Z" fill="#AE987E"/>
<path d="M217.523 238.249L217.82 238.844C217.646 240.233 217.572 241.623 217.101 242.963C215.936 245.642 214.126 247.453 211.052 247.676C204.556 245.543 197.863 243.831 192.26 239.564C189.83 237.703 187.698 235.544 185.64 233.312C184.872 232.493 184.971 231.5 184.897 230.533C184.55 227.68 185.864 227.308 188.417 227.779C197.392 229.416 206.416 229.367 215.366 227.432C217.051 227.059 216.903 227.829 217.002 228.895C217.275 231.997 216.382 235.172 217.523 238.249Z" fill="#4F2D13"/>
<path d="M165.906 237.703C171.881 237.728 177.831 237.752 183.806 237.777C183.905 237.901 183.93 238.025 183.88 238.174C177.881 238.174 171.881 238.174 165.881 238.174C165.708 238.05 165.658 237.951 165.733 237.852C165.807 237.753 165.857 237.728 165.931 237.728L165.906 237.703Z" fill="#526293"/>
<path d="M217.126 242.987C217.175 241.573 216.853 240.109 217.845 238.869C219.952 238.869 222.034 238.869 224.142 238.894C223.819 239.067 223.448 239.44 223.15 239.39C220.101 238.869 217.969 239.812 217.126 242.987V242.987Z" fill="#536097"/>
<path d="M184.822 240.531L184.921 245.394C182.938 243.806 183.31 242.194 184.822 240.531Z" fill="#515870"/>
<path d="M165.906 237.703C165.906 237.852 165.906 238.001 165.856 238.15C163.303 237.976 160.675 238.894 158.171 237.678C160.353 237.629 162.534 237.604 164.691 237.554C165.088 237.604 165.484 237.629 165.881 237.678L165.906 237.703Z" fill="#64617C"/>
<path d="M120.19 277.324C120.19 276.158 120.141 275.017 120.141 273.851L120.289 273.28C121.033 274.645 121.083 276.009 120.19 277.324V277.324Z" fill="#516290"/>
<path d="M377.478 262.066C377.106 262.066 376.734 262.066 376.362 262.041C376.288 261.892 376.238 261.768 376.164 261.62C382.164 261.223 388.163 261.247 394.188 261.57C394.138 261.719 394.088 261.892 394.014 262.041C393.246 262.041 392.477 262.041 391.708 262.041C386.973 262.934 382.213 262.91 377.478 262.041V262.066Z" fill="#EAC574"/>
<path d="M438.093 261.942H428.573C428.375 261.843 428.301 261.744 428.375 261.644C428.449 261.545 428.524 261.496 428.573 261.496C431.747 261.396 434.97 260.503 438.093 261.967V261.942Z" fill="#F5C25D"/>
<path d="M428.574 261.496C428.574 261.669 428.574 261.818 428.574 261.992C426.814 262.017 425.078 262.066 423.343 262.091C423.268 261.942 423.194 261.768 423.145 261.62C424.954 260.999 426.789 261.446 428.599 261.496H428.574Z" fill="#F0BE6B"/>
<path d="M377.478 262.066C382.213 262.066 386.973 262.066 391.708 262.066C391.659 262.81 391.237 263.158 390.518 263.207C386.948 263.207 383.403 263.207 379.833 263.207C378.916 263.207 377.751 263.53 377.453 262.091L377.478 262.066Z" fill="#F8C912"/>
<path d="M379.833 264.373C383.403 264.373 386.948 264.373 390.518 264.373C391.188 264.547 392.105 264.001 392.7 265.49C388.56 265.49 384.618 265.49 380.676 265.49C380.155 265.49 379.932 264.919 379.833 264.423V264.373Z" fill="#F8C912"/>
<path d="M452.944 96.932C455.002 97.9988 457.183 97.3289 459.315 97.3537C457.902 96.4606 455.968 97.5522 453.886 95.6915C459.092 96.1133 463.555 94.8231 467.794 96.3614C468.86 96.7583 470.273 98.2965 470.149 100.108C470.025 101.82 470.124 103.457 469.356 105.243C468.662 106.831 467.943 109.238 470.199 110.801C470.943 111.322 470.843 112.215 470.546 112.984C469.158 116.73 468.463 120.427 470.992 123.999C471.339 124.471 471.166 124.893 470.868 125.339C469.381 127.448 470.174 129.383 471.339 131.294C455.249 132.683 440.771 128.093 427.508 119.335C422.326 115.936 417.169 112.413 413.674 107.079C419.178 106.36 424.706 106.583 430.235 106.533C432.838 106.533 435.317 106.806 437.846 105.02C439.333 103.978 442.06 104.673 444.217 104.598C445.358 104.549 446.597 105.045 447.614 104.077C449.994 103.978 450.812 102.291 451.456 100.381C451.853 99.2145 452.448 98.098 452.944 96.9568V96.932Z" fill="#0B0B0D"/>
<path d="M395.278 159.775L394.113 159.875C393.196 158.708 394.088 157.418 393.84 156.203C393.815 155.384 393.865 154.565 394.039 153.771C394.881 148.586 395.154 143.401 394.063 138.24C394.014 136.305 393.245 134.569 392.725 132.733C392.65 131.765 392.601 130.797 392.849 129.855C392.973 129.557 393.146 129.284 393.344 129.036L394.063 128.341C394.262 128.192 394.51 128.093 394.782 128.093C395.427 128.168 396.047 128.242 396.691 128.391C397.088 128.515 397.385 128.763 397.633 129.061C401.774 130.847 405.889 132.683 408.492 136.628C410.277 139.332 411.616 142.235 410.773 145.634C409.955 150.248 406.93 153.399 403.633 156.376C402.914 157.443 401.823 157.84 400.658 158.113C400.088 158.411 399.294 157.989 398.873 158.708C397.683 159.105 396.121 158.187 395.278 159.775V159.775Z" fill="#F5F1EE"/>
<path d="M438.714 172.974C440.722 172.155 442.68 171.213 443.994 169.377C444.093 168.682 444.515 168.26 445.184 168.111C447.986 166.027 448.159 162.455 449.895 159.75C452.002 161.289 449.895 163.298 450.465 164.961C450.465 164.911 450.465 165.06 450.465 165.06C450.465 165.06 450.465 165.01 450.465 164.961C449.895 163.05 451.184 162.231 452.547 162.033C454.332 161.785 454.382 163.596 454.134 164.539C453.514 166.995 455.721 166.226 456.564 166.995C455.398 169.65 454.035 172.155 451.903 174.19C450.762 174.165 450.514 174.909 450.514 175.852C447.713 178.904 443.845 180.293 440.424 182.377C439.68 183.097 438.714 182.972 437.796 182.997C434.648 183.047 431.499 182.873 428.375 183.097C427.334 183.171 426.442 182.898 425.574 182.427C422.599 182.055 420.293 180.219 417.765 178.879C417.616 178.631 417.566 178.383 417.591 178.11C418.831 176.398 419.971 178.209 421.161 178.234C421.632 178.308 422.078 178.234 422.5 178.06C422.029 178.011 421.558 178.11 421.087 177.911C420.442 177.638 419.847 177.316 419.302 176.894C418.533 176.274 418.285 175.43 418.731 174.537C419.178 173.594 419.996 173.892 420.789 174.016C423.789 174.488 426.665 175.678 429.739 175.654C430.507 175.654 431.326 175.877 431.97 175.207C432.565 174.612 433.383 174.81 434.077 174.612C434.425 174.488 434.772 174.388 435.094 174.165L435.689 174.041C436.061 173.793 436.457 173.669 436.904 173.768C438.267 176.472 440.722 173.842 442.581 175.108C442.234 174.512 441.813 174.537 441.49 174.363C441.094 174.165 440.771 174.512 440.424 174.587C439.482 174.785 438.49 175.033 437.92 173.867C437.92 173.321 438.366 173.222 438.714 172.999V172.974Z" fill="#D74365"/>
<path d="M377.429 156.327C374.379 155.161 372.644 152.779 371.503 149.851C371.181 149.107 370.859 148.313 371.801 147.817C372.495 147.445 373.09 147.891 373.66 148.338C374.28 148.809 374.652 149.504 375.123 149.975C374.305 147.916 372.173 147.618 370.412 146.775H370.289C369.396 145.534 369.842 144.12 369.817 142.756C369.867 142.483 369.991 142.21 370.189 141.987C371.454 141.168 371.974 142.83 372.991 142.805C373.387 142.855 373.735 143.029 373.982 143.326C375.396 143.897 376.214 145.758 378.098 145.311C376.387 144.989 374.999 144.046 373.685 142.979C373.487 142.061 374.057 141.689 374.751 141.391C375.817 141.217 376.536 140.746 376.759 139.58C376.957 138.488 377.676 137.645 378.346 136.801C378.792 136.38 378.966 135.784 379.263 135.288C379.833 134.345 380.478 133.378 381.742 133.502C382.957 133.626 383.552 134.568 383.998 135.61C384.271 136.231 384.197 137.099 384.99 137.322C388.015 138.166 387.469 140.101 386.949 142.433C386.304 145.311 386.477 148.338 386.899 151.265C387.048 152.332 387.494 153.349 388.535 153.945C388.907 154.143 389.254 154.367 389.576 154.59C390.295 155.21 390.99 155.682 391.138 154.168C391.312 153.622 391.609 153.176 392.279 153.176C393.692 153.771 393.617 155.285 394.262 156.351C394.361 156.773 394.361 157.17 394.212 157.592C393.171 158.237 392.378 159.13 391.684 160.123C391.262 160.321 390.841 160.346 390.419 160.222C387.767 159.006 384.593 159.874 382.015 158.187C381.445 157.815 380.751 157.666 380.701 156.872C380.701 156.699 380.875 156.6 380.974 156.451C380.825 156.351 380.701 156.376 380.602 156.6C379.561 156.153 378.395 157.17 377.379 156.327H377.429Z" fill="#00719A"/>
<path d="M388.485 120.03C383.031 120.055 377.825 121.27 373.338 124.769C371.875 125.885 370.264 126.654 368.95 124.868C367.685 123.131 368.751 121.667 370.239 120.601C379.635 113.927 389.874 113.629 400.485 116.829C403.41 117.723 406.137 119.062 408.542 121.072C409.905 122.238 410.773 123.528 409.757 125.066C408.616 126.778 407.03 126.158 405.616 125.166C400.509 121.568 394.807 120.03 388.485 120.03V120.03Z" fill="#050404"/>
<path d="M397.584 240.333L397.683 239.44C398.501 238.77 399.89 238.472 399.369 236.909C399.22 236.214 399.245 235.52 399.493 234.825C399.617 234.552 399.815 234.329 400.038 234.155C406.806 236.264 413.599 236.909 420.467 234.676C420.814 234.552 421.136 234.304 421.458 234.106C422.425 232.964 424.061 232.865 425.103 231.848C425.747 231.575 426.491 231.476 426.937 230.855C427.235 230.508 427.656 230.285 427.954 229.913C428.127 229.913 428.301 229.913 428.499 229.888C429.218 229.094 430.036 228.796 431.078 229.218C431.226 229.491 431.202 229.739 431.003 229.962L429.739 232.27C429.218 232.815 428.97 233.51 428.673 234.205C423.888 241.35 417.07 244.402 408.616 244.029C404.625 243.856 400.906 242.615 397.609 240.283L397.584 240.333Z" fill="#F6F0ED"/>
<path d="M421.434 178.879C420.12 179.549 419.153 177.39 417.789 178.432C415.707 178.78 415.037 177.291 414.343 175.802C414.343 175.629 414.294 175.455 414.17 175.331C411.864 173.743 410.178 171.758 410.054 168.806C409.509 166.424 408.592 163.968 411.294 162.207C412.707 161.437 414.219 161.636 415.732 161.735C416.054 161.834 416.327 162.033 416.575 162.256C418.781 164.142 418.88 167.268 420.963 169.352C422.5 170.89 424.062 172.205 426.094 172.974C426.739 173.694 427.855 173.346 428.524 174.041L429.689 174.215C429.888 174.363 430.111 174.512 430.359 174.611C430.978 174.785 431.697 174.661 432.119 175.331C432.119 175.728 433.383 176.373 432.193 176.423C429.689 176.522 427.086 176.919 424.731 175.653C423.219 174.835 421.31 175.951 419.946 174.562C419.872 174.487 419.351 174.686 419.252 174.86C419.029 175.331 419.054 175.877 419.525 176.199C420.194 176.671 421.384 176.423 421.434 177.688C421.806 178.085 421.756 178.482 421.434 178.879V178.879Z" fill="#D84366"/>
<path d="M456.564 167.045C455.572 167.02 454.506 166.722 453.762 168.707L453.192 162.554C451.481 163.125 450.267 163.844 451.134 165.829C450.738 166.176 450.341 166.176 449.944 165.829C449.944 163.819 449.895 161.81 449.87 159.775C449.87 158.708 449.969 157.617 449.87 156.55C449.548 151.911 451.358 149.454 456.44 150.422C457.258 150.769 457.803 151.414 458.25 152.159C458.274 152.357 458.324 152.556 458.349 152.729C458.547 153.027 458.671 153.35 458.745 153.722C458.919 156.029 458.845 158.336 458.274 160.594C458.547 162.976 457.407 164.985 456.514 167.069L456.564 167.045Z" fill="#D84367"/>
<path d="M472.504 145.907C472.504 144.716 472.504 143.55 472.504 142.359C472.578 139.704 473.57 138.96 476 140.002C478.404 141.044 480.512 142.408 480.313 145.609C480.165 148.065 477.76 151.96 475.603 152.58C473.942 153.052 472.603 152.655 472.529 150.596C472.479 149.033 472.529 147.445 472.529 145.882L472.504 145.907Z" fill="#B28A66"/>
<path d="M470.15 196.692C469.976 197.908 469.034 197.883 468.142 197.883C461.944 197.883 455.77 197.883 449.573 197.883C448.68 197.883 447.738 197.908 447.564 196.692C447.713 195.675 448.432 195.452 449.275 195.501C456.217 195.898 463.183 196.295 470.125 196.692H470.15Z" fill="#DCB190"/>
<path d="M428.573 183.692C429.044 185.404 430.482 184.684 431.548 184.784C432.713 184.883 433.879 184.784 435.069 185.081C432.689 186.52 429.862 186.446 427.557 185.726C425.325 185.032 423.193 184.858 420.962 184.808C420.045 184.808 418.904 184.734 419.227 183.469C419.623 181.98 420.367 183.469 420.962 183.469C422.722 183.518 424.507 183.543 426.267 183.593C427.061 183.022 427.829 182.898 428.573 183.692V183.692Z" fill="#D9B591"/>
<path d="M435.689 188.381L433.11 188.108C437.176 185.577 440.597 183.146 444.787 186.694C444.391 187.537 443.498 187.041 442.829 187.19C441.465 188.48 439.432 187.091 438.069 188.381C437.275 189.026 436.482 189.026 435.689 188.381V188.381Z" fill="#D9B591"/>
<path d="M419.078 187.463H431.672V188.182C427.631 188.009 423.64 190.738 419.078 187.463Z" fill="#D9B591"/>
<path d="M463.034 152.754C463.282 151.166 462.439 149.405 463.728 147.966C464.249 147.395 464.769 146.7 465.687 146.949C465.984 147.023 466.381 147.37 466.455 147.693C466.728 148.71 465.959 148.859 465.24 149.306C463.53 150.323 464.149 151.662 465.017 153.002C465.637 153.97 465.811 155.185 464.968 155.979C464.199 156.674 463.307 156.351 463.059 155.136C462.414 154.342 462.414 153.573 463.059 152.779L463.034 152.754Z" fill="#D8B691"/>
<path d="M410.054 168.806C410.971 171.262 412.831 173.123 414.17 175.331C413.897 175.43 413.525 175.48 413.376 175.678C411.566 178.383 410.005 176.621 410.029 174.959C410.079 172.924 408.963 170.84 410.029 168.831L410.054 168.806Z" fill="#DDB294"/>
<path d="M375.098 133.75C376.784 132.087 378.544 130.549 380.998 130.177C381.221 129.979 381.469 129.954 381.742 130.078C383.403 131.492 383.403 132.534 381.147 133.254C379.511 133.775 378.742 135.809 376.784 135.859C376.139 136.082 375.47 136.553 374.825 135.834C374.428 135.065 374.652 134.395 375.098 133.775V133.75Z" fill="#00769C"/>
<path d="M414.442 153.97C415.533 153.97 416.624 153.945 417.715 153.97C418.706 153.995 419.202 154.54 418.905 155.533C418.632 156.426 417.764 156.476 417.219 156.079C415.161 154.565 413.252 154.813 411.244 156.128C410.748 156.451 409.732 156.649 409.484 155.781C409.286 155.061 409.558 154.094 410.6 154.019C411.889 153.92 413.178 154.019 414.442 154.019V153.97Z" fill="#D8B690"/>
<path d="M381.023 156.302C382.808 158.832 385.56 158.857 388.238 158.882C389.23 158.882 390.221 158.361 390.543 159.825C389.577 160.743 388.535 160.495 387.494 159.974C383.775 159.775 380.329 158.783 377.429 156.302C378.619 156.327 379.833 154.838 381.023 156.302V156.302Z" fill="#247894"/>
<path d="M403.633 156.376C404.749 153.895 406.831 152.035 408.468 149.975C409.608 148.561 408.492 146.179 410.773 145.609C410.748 146.576 410.724 147.544 410.699 148.512C410.203 150.075 409.806 151.712 408.319 152.729C406.583 153.722 405.765 155.905 403.608 156.351L403.633 156.376Z" fill="#F4EAE0"/>
<path d="M370.412 146.775C374.726 146.899 376.759 148.983 375.618 152.68C375.048 151.067 374.255 149.901 373.263 148.909C371.776 147.42 371.577 148.586 371.503 149.851C370.611 149.008 370.263 147.991 370.412 146.775Z" fill="#006F94"/>
<path d="M394.659 128.44H394.361L394.089 128.341C394.312 127.225 393.27 124.942 396.121 126.456C397.584 127.225 397.361 125.091 398.303 124.595C399.716 126.381 398.055 127.647 397.609 129.061C397.212 129.011 396.84 128.961 396.444 128.912C395.948 128.316 395.179 128.788 394.634 128.44H394.659Z" fill="#D8B791"/>
<path d="M427.954 229.937L427.384 231.153C426.888 231.724 426.144 231.848 425.574 232.319C424.309 233.212 422.971 233.882 421.434 234.13C423.02 231.823 424.805 229.863 427.929 229.937H427.954Z" fill="#DFB69C"/>
<path d="M400.038 234.155C400.038 234.329 400.038 234.502 400.038 234.701C399.319 235.222 399.592 236.165 399.171 236.81C399.072 236.884 398.972 236.983 398.873 237.058C398.055 236.934 397.014 237.38 396.642 236.239C396.196 234.924 396.592 233.783 397.683 232.915C397.882 232.915 398.055 232.939 398.253 232.989C398.848 233.386 399.468 233.758 400.063 234.155H400.038Z" fill="#F2F1EC"/>
<path d="M439.259 165.109C439.185 164.117 439.606 163.398 440.92 163.447C441.838 163.472 442.854 163.472 442.73 164.762C442.581 166.226 440.499 165.581 440.177 166.92C439.309 166.697 439.309 165.978 439.284 165.109H439.259Z" fill="#D9B492"/>
<path d="M422.054 162.455C424.285 162.281 425.103 164.142 426.095 165.705C426.194 165.854 426.045 166.35 425.847 166.499C425.475 166.796 425.153 166.499 424.83 166.226C423.665 165.233 422.475 164.241 421.285 163.249L422.029 162.455H422.054Z" fill="#D8B691"/>
<path d="M445.184 168.111C444.961 168.707 444.564 169.104 443.994 169.377C442.358 169.253 440.102 170.071 440.449 166.995C441.465 167.044 442.234 168.508 443.523 167.392C443.944 167.02 445.085 166.821 445.184 168.136V168.111Z" fill="#D9B492"/>
<path d="M451.283 175.331C451.481 175.331 451.679 175.331 451.853 175.331C453.415 175.405 454.332 176.274 454.605 177.762C454.679 178.134 454.258 178.705 453.96 178.432C452.969 177.589 450.836 177.936 451.084 175.778C450.911 175.529 450.985 175.356 451.283 175.306V175.331Z" fill="#D6B691"/>
<path d="M414.343 175.802C415.582 176.547 416.301 178.01 417.789 178.432C417.789 178.581 417.789 178.755 417.764 178.904C417.194 178.953 416.549 178.854 416.029 179.102C415.334 179.425 414.888 180.02 414.02 179.201C412.979 178.234 413.872 177.688 414.169 176.968C414.318 176.621 414.293 176.199 414.318 175.802H414.343Z" fill="#DDB294"/>
<path d="M372.718 143.252C372.544 143.947 372.272 144.74 371.652 143.624C371.305 143.004 371.354 142.16 370.388 142.061C370.016 141.714 369.966 141.342 370.264 140.92L370.388 139.828C370.71 139.382 370.536 138.712 371.106 138.414C371.404 138.389 371.652 138.464 371.85 138.687C372.321 139.53 372.718 140.424 373.189 141.267C373.412 142.036 373.288 142.706 372.743 143.277L372.718 143.252Z" fill="#007196"/>
<path d="M425.574 182.451H438.193C438.292 182.824 438.193 183.096 437.846 183.27C436.854 183.369 435.863 183.295 434.871 183.32C433.185 183.32 431.499 183.32 429.814 183.32C428.648 183.171 427.409 183.642 426.293 182.972L425.574 182.451V182.451Z" fill="#C85160"/>
<path d="M375.098 133.75V136.131C375.049 136.256 375.024 136.38 374.974 136.504C374.379 137.397 373.611 138.116 372.718 138.712C372.321 138.861 371.95 138.861 371.578 138.588L371.503 138.488C371.156 138.091 371.181 137.695 371.553 137.322C372.768 136.156 373.462 134.494 375.098 133.75V133.75Z" fill="#0F7696"/>
<path d="M395.278 159.775C395.278 155.483 397.51 158.51 398.873 158.708C397.807 159.527 396.617 159.875 395.278 159.775Z" fill="#EDE9E4"/>
<path d="M381.791 160.371C380.502 161.239 379.213 161.239 377.279 160.495C379.139 159.602 380.477 159.924 381.791 160.371Z" fill="#D9B78C"/>
<path d="M438.068 188.381C439.159 186.049 441.266 187.686 442.828 187.19C441.738 189.522 439.63 187.885 438.068 188.381Z" fill="#E0B294"/>
<path d="M451.282 175.331C451.134 175.455 451.084 175.629 451.084 175.802C450.91 175.852 450.712 175.877 450.514 175.877C450.464 175.083 448.357 175.654 449.373 174.14C450.291 172.776 451.084 173.421 451.902 174.215C451.704 174.587 451.481 174.959 451.282 175.306V175.331Z" fill="#DC4068"/>
<path d="M430.978 229.987L430.879 229.392C430.259 228.895 430.408 228.151 430.309 227.506C430.358 226.737 430.433 225.993 430.482 225.224C431.003 225.67 431.325 226.439 432.193 226.39C432.267 227.754 432.019 228.995 430.978 229.987Z" fill="#F6E1DD"/>
<path d="M391.709 159.8C391.535 158.113 392.155 157.245 393.965 157.493C394.287 158.411 393.965 159.155 393.32 159.825C393.147 159.825 392.973 159.825 392.824 159.899C392.403 160.197 392.031 160.147 391.684 159.775L391.709 159.8Z" fill="#177996"/>
<path d="M392.923 128.54C392.923 128.664 392.923 128.788 392.898 128.912C392.402 129.681 391.634 129.755 390.84 129.805C390.394 129.805 389.923 129.83 389.477 129.805C389.031 129.805 388.56 129.805 388.113 129.805C387.667 129.805 387.196 129.805 386.75 129.755C386.105 129.681 385.535 129.507 385.163 128.912L385.882 128.391C388.237 127.969 390.592 127.721 392.923 128.49V128.54Z" fill="#537075"/>
<path d="M390.518 129.061C391.312 129.011 392.08 128.961 392.874 128.912C393.022 128.986 393.196 129.011 393.345 129.011C393.345 129.21 393.32 129.433 393.295 129.631C393.122 130.202 393.246 130.897 392.551 131.219C391.733 131.492 390.99 131.467 390.32 130.847C389.948 130.202 390.023 129.606 390.494 129.061H390.518Z" fill="#007497"/>
<path d="M458.324 160.569L458.274 153.3C459.985 154.913 458.944 156.873 458.894 158.684C458.82 159.354 458.894 160.048 458.324 160.544V160.569Z" fill="#C15F60"/>
<path d="M392.923 128.54L385.882 128.44C388.237 127.547 390.592 127.324 392.923 128.54Z" fill="#99B6BB"/>
<path d="M370.264 140.895C370.314 141.267 370.363 141.664 370.388 142.036H370.314C369.644 143.525 370.388 145.187 369.867 146.7C368.95 144.691 368.231 142.706 370.264 140.895V140.895Z" fill="#B9B8A9"/>
<path d="M408.344 152.754C409.137 151.34 409.93 149.951 410.724 148.536C410.922 150.496 410.6 152.159 408.344 152.754Z" fill="#D5BA9E"/>
<path d="M472.281 194.459C471.066 193.12 471.29 192.202 471.612 191.135C472.901 191.954 472.455 192.921 472.281 194.459Z" fill="#DBB290"/>
<path d="M458.919 158.708C458.572 156.922 459.489 155.012 458.299 153.325C458.348 153.126 458.373 152.928 458.423 152.729C460.406 154.565 459.588 156.649 458.943 158.708H458.919Z" fill="#E98D8C"/>
<path d="M392.849 160.346C391.237 161.686 389.403 160.892 387.667 160.916C387.618 160.916 387.519 160.792 387.519 160.718C387.519 160.619 387.568 160.544 387.618 160.445C389.353 159.924 391.113 160.123 392.849 160.346Z" fill="#BCBCB0"/>
<path d="M430.284 227.506C431.003 227.977 430.954 228.672 430.855 229.392C430.061 229.565 429.268 229.739 428.475 229.913C429.07 229.119 429.689 228.3 430.284 227.506V227.506Z" fill="#F4ECE4"/>
<path d="M472.554 131.963C474.314 131.963 476.099 131.963 477.859 131.988C477.859 132.162 477.884 132.336 477.909 132.534C476.124 132.336 474.24 133.105 472.554 131.963Z" fill="#E7B088"/>
<path d="M392.849 160.346C391.114 160.371 389.354 160.42 387.618 160.445C387.569 160.296 387.544 160.123 387.494 159.974C388.511 159.924 389.527 159.874 390.544 159.825C390.94 159.825 391.312 159.825 391.709 159.825C392.081 159.874 392.452 159.899 392.849 159.949C392.849 160.098 392.874 160.222 392.849 160.371V160.346Z" fill="#808376"/>
<path d="M429.763 174.711C429.763 174.537 429.763 174.388 429.714 174.215C431.524 174.215 433.309 174.215 435.118 174.19L434.499 174.736C432.912 175.182 431.35 175.207 429.763 174.736V174.711Z" fill="#EA7183"/>
<path d="M416.599 162.281C416.426 162.281 416.277 162.281 416.103 162.281C414.789 161.462 413.203 162.48 411.889 161.661C413.575 161.016 415.31 160.073 416.574 162.306L416.599 162.281Z" fill="#E7717E"/>
<path d="M429.739 183.072H435.144C435.317 183.196 435.392 183.32 435.317 183.419C435.243 183.518 435.169 183.568 435.119 183.568H429.789C429.59 183.469 429.491 183.369 429.566 183.245C429.615 183.121 429.69 183.072 429.764 183.072H429.739Z" fill="#E36679"/>
<path d="M435.688 188.381H438.068C437.275 190.043 436.482 190.043 435.688 188.381Z" fill="#E2B096"/>
<path d="M379.462 128.143C379.511 128.862 379.065 128.937 378.718 128.912C378.396 128.887 377.9 128.689 377.825 128.465C377.652 127.944 378.173 127.87 378.52 127.87C378.842 127.87 379.164 128.043 379.437 128.118L379.462 128.143Z" fill="#DFB585"/>
<path d="M473.719 193.12C475.38 193.914 475.38 194.707 473.719 195.501V193.12Z" fill="#DBB290"/>
<path d="M381.593 130.301L380.974 130.177C381.643 129.458 382.461 129.11 383.453 129.185C383.924 129.433 384.717 129.135 384.767 130.003C384.668 130.301 384.469 130.524 384.197 130.673C383.254 131.021 382.387 130.897 381.593 130.326V130.301Z" fill="#367A96"/>
<path d="M411.913 161.636C413.302 161.884 414.864 161.115 416.128 162.256C414.516 162.256 412.93 162.231 411.318 162.207C411.517 162.008 411.715 161.81 411.913 161.636Z" fill="#C65961"/>
<path d="M463.034 152.754V155.111C461.373 154.317 461.373 153.548 463.034 152.754Z" fill="#E2B193"/>
<path d="M438.02 182.997C438.069 182.824 438.144 182.65 438.193 182.476C438.937 182.451 439.681 182.427 440.424 182.402C440.226 184.014 438.986 183.518 438.02 183.593C437.821 183.469 437.747 183.345 437.821 183.221C437.871 183.072 437.945 183.022 437.995 183.022L438.02 182.997Z" fill="#DCA696"/>
<path d="M369.842 146.7C369.916 145.137 369.197 143.475 370.288 142.011C370.288 143.599 370.288 145.187 370.263 146.775C370.115 146.775 369.966 146.725 369.842 146.676V146.7Z" fill="#777F74"/>
<path d="M428.549 174.041C427.557 174.115 426.441 174.438 426.119 172.974C427.061 173.048 428.251 172.503 428.549 174.041Z" fill="#E99F98"/>
<path d="M438.714 172.974L438.094 173.569C437.821 173.991 437.548 174.438 436.929 174.215C436.532 174.165 436.111 174.09 435.714 174.041C436.21 172.279 437.648 173.148 438.714 172.974Z" fill="#F09F92"/>
<path d="M444.142 163.844C444.911 164.464 445.382 165.184 444.812 165.655C443.944 166.399 444.093 165.407 444.019 164.96C443.994 164.688 444.068 164.415 444.142 163.844V163.844Z" fill="#D9B492"/>
<path d="M393.319 159.85L393.964 157.518L394.212 156.376C394.311 156.153 394.485 156.103 394.683 156.252C394.931 157.518 394.336 158.659 394.137 159.85H393.369H393.319Z" fill="#EDE9E4"/>
<path d="M371.553 137.322L371.504 138.488C371.132 138.935 370.76 139.357 370.388 139.803C370.413 138.811 369.917 137.57 371.553 137.322Z" fill="#D0B498"/>
<path d="M423.516 168.93C423.317 168.98 423.045 169.128 422.846 169.079C422.474 168.955 422.177 168.657 422.276 168.211C422.276 168.136 422.623 168.037 422.747 168.086C423.094 168.211 423.491 168.335 423.491 168.955L423.516 168.93Z" fill="#D8B691"/>
<path d="M384.593 129.606L383.478 129.185C384.048 129.11 384.593 129.036 385.163 128.961C385.758 129.011 386.353 129.036 386.948 129.085C386.477 130.624 385.535 130.177 384.593 129.631V129.606Z" fill="#17789F"/>
<path d="M458.299 152.134C457.506 151.762 456.911 151.166 456.489 150.397C457.828 150.223 458.398 150.819 458.299 152.134Z" fill="#EF9592"/>
<path d="M429.738 183.072C429.738 183.221 429.763 183.394 429.788 183.543C429.391 183.593 428.995 183.617 428.573 183.667C427.805 183.642 427.036 183.593 426.268 183.568C426.268 183.369 426.268 183.171 426.292 182.972C427.433 182.997 428.598 183.047 429.738 183.072V183.072Z" fill="#EF7F89"/>
<path d="M398.873 158.708C399.022 157.17 399.89 157.79 400.658 158.113C400.212 158.733 399.518 158.708 398.873 158.708Z" fill="#EDE9E4"/>
<path d="M438.019 182.997C438.069 183.196 438.069 183.394 438.044 183.593C437.052 183.593 436.085 183.593 435.094 183.593C435.094 183.444 435.119 183.27 435.143 183.121C436.11 183.096 437.052 183.072 438.019 183.047V182.997Z" fill="#EF8994"/>
<path d="M473.124 196.692H470.149C471.141 195.824 472.133 195.824 473.124 196.692Z" fill="#DBB290"/>
<path d="M213.431 139.729C219.927 135.238 230.686 136.677 237.132 142.83C243.107 148.536 244.594 155.731 242.735 163.224C240.677 171.585 234.678 176.547 226.149 178.234C221.092 179.226 216.406 178.333 212.216 175.232C210.927 173.371 211.15 171.287 211.299 169.228C211.894 160.892 212.44 152.58 212.39 144.22C212.39 142.657 212.216 141.044 213.406 139.729H213.431Z" fill="#010101"/>
<path d="M221.985 131.393C215.464 130.897 209.465 132.385 203.564 134.544C201.209 135.412 198.581 134.469 197.714 132.509C196.697 130.252 197.689 127.795 200.366 126.778C211.795 122.436 223.472 120.948 235.446 124.421C236.562 124.744 237.653 125.314 238.694 125.885C240.677 127.001 241.942 128.54 240.975 130.971C240.008 133.452 238.149 134.444 235.471 133.452C231.034 131.815 226.546 130.946 221.985 131.418V131.393Z" fill="#030303"/>
<path d="M213.431 139.729C213.778 151.588 212.588 163.397 212.216 175.207C204.903 171.089 201.804 164.539 202.275 156.5C202.721 148.958 206.291 143.053 213.406 139.729H213.431Z" fill="#F5F3EE"/>
<path d="M129.661 160.123C129.661 161.81 129.71 163.472 129.661 165.159C129.611 166.499 129.016 167.268 127.554 166.524C125.074 165.283 122.818 163.571 122.694 160.668C122.57 157.89 124.132 155.582 126.562 154.069C128.644 152.779 129.611 153.3 129.71 155.682C129.735 156.476 129.71 157.269 129.71 158.039C129.71 158.733 129.71 159.428 129.71 160.123H129.661Z" fill="#502D12"/>
<path d="M354.892 90.6303C355.363 84.7504 357.892 78.8704 361.165 73.3379C363.569 69.269 366.346 65.4235 369.792 62.1486C370.486 61.4788 371.18 60.4368 372.222 61.4788C373.288 62.5208 372.222 63.2651 371.552 63.9101C365.677 69.7901 361.363 76.6376 358.71 84.5271C357.867 87.0577 357.272 89.6131 357.223 92.3174C357.223 93.3098 357.57 94.8728 355.983 94.7983C354.496 94.7239 354.967 93.1857 354.867 92.1685C354.843 91.8708 354.867 91.5731 354.867 90.6303H354.892Z" fill="#DDD8D9"/>
<path d="M403.609 89.9356C404.898 79.1185 407.848 68.6736 416.773 60.9081C417.442 60.3375 418.087 58.9482 419.128 60.0894C420.145 61.181 418.781 61.8509 418.161 62.4463C410.253 70.1374 407.154 79.8876 405.964 90.5062C405.84 91.5234 406.608 93.1113 404.675 93.2353C403.757 93.2849 403.559 92.6399 403.609 89.9356V89.9356Z" fill="#DDD8D9"/>
<path d="M200.242 211.429C199.002 211.901 198.259 213.216 196.845 213.315C195.432 213.017 193.846 212.248 193.474 214.605C193.275 215.3 192.705 215.523 192.085 215.721C188.912 216.267 185.739 217.036 182.565 215.746C180.805 215.225 178.946 214.977 177.657 213.464C177.756 213.191 177.929 212.992 178.153 212.819C179.491 212.198 180.756 211.529 182.293 212.471C183.26 213.067 184.177 212.571 184.871 211.777C185.516 211.28 186.483 211.603 187.028 210.908C186.284 210.214 185.788 210.908 185.268 211.231C184.673 211.504 184.276 212.05 183.731 212.372C181.846 212.943 181.673 210.139 179.913 210.487C179.268 210.487 178.648 210.536 178.004 210.561C176.814 210.363 176.194 211.057 175.698 211.975C175.599 212.05 175.475 212.099 175.376 212.174C171.682 210.015 169.327 206.839 168.236 202.696C167.74 201.753 168.161 201.257 169.029 200.935C170.368 200.811 171.707 200.612 173.07 200.736C173.516 200.811 173.913 201.009 174.26 201.307C174.533 201.679 174.632 202.076 174.558 202.523C173.963 203.565 174.087 204.532 174.83 205.351C174.83 204.755 174.83 204.061 175.351 203.515C176.12 202.969 176.938 202.696 177.83 203.168C179.491 203.986 180.607 205.5 182.392 206.269C186.755 208.179 190.573 207.038 194.366 204.855C195.358 205.103 195.73 204.731 195.482 203.738C197.688 200.86 198.407 197.635 198.011 194.062C197.812 192.152 197.936 190.267 200.192 189.448C202.399 188.183 204.06 189.349 205.622 190.738L206.316 191.854C207.159 194.658 206.911 197.461 206.365 200.265C205.225 201.208 206.018 202.82 205.151 203.887C205.151 204.855 204.977 205.748 203.961 206.194C203.713 205.922 203.44 205.698 203.093 205.549C203.44 205.698 203.713 205.897 203.961 206.17C204.134 207.385 202.647 207.857 202.671 208.998C202.225 210.189 201.085 210.635 200.217 211.38L200.242 211.429Z" fill="#C23B6F"/>
<path d="M167.195 199.049C166.947 197.089 166.923 195.104 167.195 193.144C168.038 192.078 167.642 190.663 168.286 189.547H168.336C169.154 189.001 168.832 187.86 169.526 187.24H169.551C170.592 186.52 171.534 186.371 172.228 187.661C172.476 188.331 172.203 189.224 173.17 189.721C173.17 188.952 172.55 188.356 172.749 187.637C173.443 186.272 174.459 186.52 175.525 187.091C175.823 187.537 176.12 187.984 176.542 188.381C177.459 191.284 175.6 193.814 175.501 196.568C176.492 198.776 175.104 199.248 173.368 199.496C172.079 200.042 171.063 201.307 169.427 200.811C168.187 200.835 167.79 199.843 167.22 199.024L167.195 199.049Z" fill="#C33A6F"/>
<path d="M206.39 200.314C206.514 197.511 205.795 194.707 206.341 191.904C208.225 194.707 207.58 197.511 206.39 200.314Z" fill="#B93B64"/>
<path d="M177.806 209.742H180.186C181.451 212.248 178.674 212.124 177.881 213.265L177.657 213.464C176.666 213.464 175.897 213.067 175.401 212.174L175.525 211.975C176.071 211.007 176.914 210.362 177.806 209.742V209.742Z" fill="#C03C6B"/>
<path d="M182.565 215.771C185.739 216.267 188.912 215.647 192.085 215.746C188.912 217.011 185.739 217.855 182.565 215.771Z" fill="#7D3628"/>
<path d="M173.071 199.074C174.311 198.677 175.848 198.553 175.476 196.593C176.12 197.734 176.616 198.925 176.542 200.265C176.046 200.885 175.302 201.084 174.633 201.381C174.509 201.381 174.385 201.431 174.261 201.456H173.071C172.476 200.662 172.327 199.868 173.071 199.074V199.074Z" fill="#BF3D6A"/>
<path d="M175.525 187.116C174.608 187.339 173.269 186.793 173.046 188.381C172.649 188.704 172.252 188.704 171.856 188.381C171.657 186.868 170.467 187.265 169.525 187.215C171.583 185.305 173.715 185.255 175.525 187.116Z" fill="#C23A6F"/>
<path d="M174.236 202.622V201.431C175.079 200.761 175.922 200.835 176.789 201.381C177.88 201.555 177.707 202.473 177.855 203.192C177.087 203.614 176.318 203.887 175.426 203.813C174.186 204.259 173.765 203.862 174.236 202.622Z" fill="#BD3C68"/>
<path d="M193.474 214.63C192.606 214.382 191.887 214.059 192.904 213.141C194.267 211.95 195.631 211.256 196.846 213.34C196.077 213.761 195.061 213.712 194.441 214.456L193.474 214.63Z" fill="#C23973"/>
<path d="M205.647 190.763C203.862 190.267 202.201 189.1 200.218 189.473C202.474 187.661 203.862 187.984 205.647 190.763Z" fill="#B93B64"/>
<path d="M195.507 203.763C196.399 203.912 196.945 204.383 196.672 205.326C196.597 205.624 196.226 205.996 195.928 206.07C194.986 206.318 194.515 205.797 194.366 204.904C194.416 204.21 194.788 203.837 195.482 203.788L195.507 203.763Z" fill="#C33870"/>
<path d="M167.195 199.049L169.476 200.265C169.848 200.662 169.873 201.059 169.476 201.431C168.658 201.481 168.361 202.002 168.261 202.721C167.295 201.679 166.947 200.463 167.195 199.049V199.049Z" fill="#B93D66"/>
<path d="M200.242 211.429C200.341 209.891 201.829 209.767 202.697 209.048C202.697 210.685 202.349 211.975 200.242 211.429Z" fill="#763224"/>
<path d="M205.201 203.912C205.523 202.671 204.16 200.885 206.416 200.29C206.416 201.629 206.564 203.019 205.201 203.912Z" fill="#C13A66"/>
<path d="M168.261 189.547C168.013 190.787 169.129 192.425 167.17 193.144C166.947 191.78 167.22 190.539 168.261 189.547Z" fill="#B53B62"/>
<path d="M176.814 201.381L174.261 201.456C174.434 199.942 175.624 200.339 176.542 200.29L176.814 201.406V201.381Z" fill="#C73672"/>
<path d="M169.501 187.24C168.98 187.959 170.542 189.721 168.311 189.572C168.237 188.555 168.485 187.711 169.501 187.24Z" fill="#C23A6F"/>
<path d="M194.441 214.456C194.714 212.943 195.904 213.389 196.846 213.315C196.177 213.985 195.483 214.58 194.441 214.456Z" fill="#C23B6F"/>
<path d="M176.516 188.406C174.88 188.952 175.599 187.736 175.5 187.091C176.293 187.19 176.591 187.637 176.516 188.406Z" fill="#C23A6F"/>
<path d="M428.624 234.229C428.549 233.336 428.475 232.468 429.69 232.294C429.938 233.287 429.169 233.684 428.624 234.229Z" fill="#F4ECE4"/>
<path d="M400.039 237.058C400.287 238.869 399.518 239.688 397.684 239.44C398.08 238.646 398.477 237.852 398.874 237.058C399.27 236.711 399.667 236.711 400.064 237.058H400.039Z" fill="#F1F4E8"/>
<path d="M394.659 156.252C394.51 156.302 394.361 156.327 394.188 156.376C392.328 156.079 393.122 154.119 392.229 153.225C392.081 152.977 392.006 152.729 391.981 152.432C392.08 151.464 392.08 150.496 392.031 149.529C392.031 148.536 392.031 147.569 392.229 146.601C392.527 145.584 392.824 144.592 392.378 143.525C392.304 143.277 392.229 143.029 392.155 142.805C391.957 142.111 391.684 141.863 391.188 142.607C390.593 143.227 390.295 144.443 389.031 143.723C388.907 143.55 388.734 143.351 388.808 143.202C388.982 142.855 388.808 142.508 388.758 142.905C388.61 143.773 388.957 144.567 389.205 145.386C389.552 146.552 389.601 147.718 389.353 148.909C389.056 149.901 388.858 150.918 389.105 151.96C389.081 152.853 389.304 153.771 388.659 154.565C385.957 155.061 385.932 152.432 385.932 151.365C385.932 147.718 384.792 143.947 386.701 140.424C387.122 139.654 386.973 138.662 385.907 138.662C384.048 138.662 383.23 137.992 383.279 136.057C383.279 135.139 382.536 134.345 381.618 134.246C380.8 134.147 380.255 134.965 379.957 135.685C379.66 136.404 379.685 137.273 378.619 137.347C377.577 136.801 376.189 136.628 376.239 134.965C378.767 135.338 379.536 132.261 382.015 132.137C383.106 132.087 380.379 131.294 381.569 130.326C382.56 130.276 383.552 130.252 384.569 130.202C386.552 130.475 388.684 129.234 390.519 130.797H392.874C393.494 131.244 392.973 132.063 393.419 132.559C394.361 134.147 395.055 135.834 394.758 137.744C395.204 142.011 395.204 146.279 394.733 150.546C394.609 151.737 395.254 152.878 394.733 154.019L394.659 156.277V156.252Z" fill="#007197"/>
<path d="M394.733 153.995C393.419 149.975 394.758 145.882 394.51 141.838C394.436 140.473 394.684 139.084 394.758 137.719C396.047 143.153 395.874 148.561 394.733 153.995V153.995Z" fill="#00749A"/>
<path d="M400.113 155.706C398.774 156.5 397.857 156.426 396.815 155.979L398.105 153.002C399.245 153.746 398.774 155.21 400.113 155.706Z" fill="#F1F3EE"/>
<path d="M394.658 128.44C395.377 128.168 396.22 127.423 396.468 128.912C395.799 128.986 395.154 129.011 394.658 128.44Z" fill="#DBB592"/>
<path d="M393.418 132.534C392.823 132.088 392.923 131.418 392.873 130.797C393.022 130.4 393.171 130.028 393.319 129.631C393.716 130.574 393.741 131.542 393.418 132.534Z" fill="#1D7289"/>
<path d="M436.928 174.215C437.325 173.991 437.696 173.768 438.093 173.57C439.481 175.281 441.291 172.453 442.878 174.066C443.448 174.661 444.266 175.008 443.845 175.802C443.175 177.068 442.804 175.877 442.209 175.529C441.366 175.033 440.25 175.083 439.432 175.778C438.391 176.671 437.325 176.646 436.234 176.249C435.292 175.083 438.787 175.678 436.928 174.215Z" fill="#D94267"/>
<path d="M433.681 178.383C435.689 177.365 437.4 177.663 439.011 178.804C439.482 179.127 440.697 178.879 439.829 179.995C439.408 180.566 438.788 181.459 437.945 180.467C436.83 179.152 435.317 178.705 433.656 178.383H433.681Z" fill="#DB4067"/>
<path d="M441.663 178.333C442.927 177.514 443.845 177.614 445.134 178.135C443.944 179.177 443.002 179.003 441.663 178.333Z" fill="#DD3E68"/>
<path d="M421.434 178.879V177.688C422.5 177.812 423.665 177.39 424.855 178.184C423.739 179.4 422.425 178.283 421.434 178.879Z" fill="#DC3F68"/>
<path d="M449.969 165.804H451.159C451.01 166.499 451.506 167.342 450.564 167.838C449.646 167.342 450.117 166.499 449.969 165.804V165.804Z" fill="#DF3C68"/>
<path d="M429.764 174.711C431.35 174.711 432.912 174.711 434.499 174.711C433.879 175.529 432.962 175.207 432.144 175.306C431.326 175.207 430.383 175.529 429.764 174.686V174.711Z" fill="#C65062"/>
<path d="M392.799 142.905C392.799 143.053 392.849 143.177 392.973 143.277C393.345 144.244 393.295 145.237 393.022 146.204L392.824 149.653C392.328 150.62 392.923 151.762 392.378 152.704C392.279 152.853 392.254 153.027 392.279 153.201C391.783 153.449 391.708 153.895 391.684 154.391C391.064 155.21 390.444 155.955 389.353 155.061L388.709 154.54C388.56 153.722 388.262 152.928 388.56 152.084C388.51 151.265 388.362 150.447 388.709 149.628C389.899 147.817 388.213 145.658 389.378 143.847L391.188 142.16C392.056 141.664 392.527 142.111 392.824 142.905H392.799Z" fill="#E7EFF1"/>
<path d="M376.288 134.941C376.883 135.933 378.593 135.784 378.668 137.322C378.395 138.513 377.304 139.307 377.403 140.721C377.527 142.334 376.114 141.987 375.098 142.061C374.8 141.763 374.602 141.391 374.527 140.969C375.172 139.406 374.75 137.719 375.098 136.131L376.288 134.941Z" fill="#007196"/>
<path d="M373.858 143.252C375.743 142.855 377.304 145.361 379.362 143.748C379.635 143.55 379.908 144.716 379.585 145.137C378.891 146.031 378.098 147.346 376.759 146.452C375.569 145.683 374.379 144.716 373.883 143.227L373.858 143.252Z" fill="#007196"/>
<path d="M375.073 140.87V142.061C374.33 142.111 373.933 142.483 373.883 143.252H372.693V140.87C372.693 140.87 372.867 140.672 372.941 140.572C373.288 140.374 373.66 140.3 374.057 140.3C374.454 140.349 374.776 140.572 375.049 140.845L375.073 140.87Z" fill="#00709D"/>
<path d="M389.328 155.061L391.659 154.391C391.584 154.987 392.328 155.806 391.584 156.153C390.593 156.6 389.799 156.054 389.328 155.061Z" fill="#00749A"/>
<path d="M381.023 156.302C381.296 154.888 382.089 155.061 383.131 155.533C382.585 156.649 381.718 156.153 381.023 156.302Z" fill="#006FA0"/>
<path d="M400.039 237.058H398.849C398.948 236.14 398.477 234.899 400.039 234.701C400.039 235.495 400.039 236.264 400.039 237.058Z" fill="#F9EDF1"/>
<path d="M425.574 232.319C425.996 231.649 426.491 231.128 427.384 231.153C427.285 232.319 426.442 232.319 425.574 232.319Z" fill="#F4ECE4"/>
<path d="M455.621 153.225V161.785C454.481 158.957 454.754 156.103 454.778 153.225H455.621V153.225Z" fill="#D74462"/>
<path d="M371.578 138.588L372.718 138.488C372.718 138.488 372.941 138.712 373.041 138.811C373.437 139.58 373.288 140.25 372.718 140.87C371.231 140.647 371.603 139.53 371.578 138.588Z" fill="#00749F"/>
<path d="M375.073 140.87H373.883C373.09 140.275 373.511 139.059 372.693 138.488C373.04 137.273 373.809 136.454 375.073 136.107C376.387 137.695 376.387 139.282 375.073 140.845V140.87Z" fill="#00719E"/>
<path d="M390.543 130.773C388.559 130.624 386.502 131.219 384.593 130.177C384.593 129.979 384.593 129.78 384.593 129.606C385.411 129.532 386.303 129.83 386.948 129.061C387.345 129.061 387.741 129.061 388.138 129.061C388.535 129.507 388.956 129.433 389.353 129.061C389.749 129.061 390.146 129.061 390.518 129.061V130.773H390.543Z" fill="#00769C"/>
<path d="M389.353 129.036C389.278 129.607 389.08 130.177 388.386 130.078C387.667 129.979 388.064 129.433 388.138 129.036C388.535 129.036 388.956 129.036 389.353 129.036V129.036Z" fill="#007497"/>
<path d="M220.026 161.214C219.852 164.167 219.654 167.094 219.48 170.047C219.406 171.51 218.836 172.627 217.224 172.528C215.762 172.453 215.241 171.312 215.315 170.022C215.489 165.903 215.712 161.76 215.985 157.642C216.084 156.376 216.729 155.285 218.216 155.434C219.654 155.582 220.125 156.624 220.1 157.964C220.1 159.056 220.1 160.123 220.1 161.214H220.026V161.214Z" fill="#F6F2EE"/>
<path d="M216.332 149.405C216.382 147.718 216.977 146.75 218.613 146.725C220.571 146.725 221.166 147.941 221.142 149.603C221.117 150.993 220.497 152.134 218.886 152.134C216.977 152.134 216.506 150.769 216.332 149.405Z" fill="#F3EFEC"/>
<path d="M177.88 213.29C177.756 211.529 180.582 211.702 180.186 209.767C181.053 209.296 181.599 209.544 182.02 210.437C182.367 211.206 182.665 212.099 183.756 212.149C184.152 211.801 184.549 211.851 184.946 212.149C184.797 213.364 183.805 213.588 183.037 213.265C181.276 212.571 179.591 213.265 177.88 213.265V213.29Z" fill="#C53772"/>
<path d="M174.236 202.622C174.26 203.366 174.657 203.763 175.426 203.813C175.302 204.979 175.574 206.07 176.393 207.212C173.715 207.534 174.211 205.177 173.269 204.234C172.699 203.639 173.244 202.771 174.26 202.622H174.236Z" fill="#C43872"/>
<path d="M169.476 201.431C169.476 201.034 169.476 200.637 169.476 200.265C170.616 200.265 171.583 200.315 172.029 198.751C172.376 197.536 172.872 198.33 173.07 199.074V201.456C171.88 201.208 170.666 202.076 169.476 201.456V201.431Z" fill="#C43872"/>
<path d="M184.946 212.124H183.756C183.781 211.355 184.202 210.983 184.946 210.933C186.136 210.139 187.326 210.139 188.516 210.933C187.896 213.042 186.136 211.752 184.946 212.124Z" fill="#C03C6B"/>
<path d="M198.432 201.555C199.498 202.324 200.49 202.82 200.317 204.135C200.267 204.557 199.969 204.904 199.523 204.607C198.581 203.961 198.061 203.118 198.432 201.58V201.555Z" fill="#C33974"/>
<path d="M188.516 210.933C187.326 210.933 186.136 210.933 184.946 210.933C186.136 209.097 187.326 209.122 188.516 210.933Z" fill="#C43774"/>
<path d="M177.806 209.742C177.508 210.958 176.789 211.752 175.525 211.975C175.104 210.015 176.17 209.569 177.806 209.742Z" fill="#C63675"/>
<path d="M198.259 206.567C198.878 206.567 199.077 206.815 199.101 207.261C199.151 208.08 198.779 208.527 197.961 208.527C197.589 208.527 196.994 208.427 197.168 208.005C197.391 207.435 197.936 207.013 198.259 206.591V206.567Z" fill="#BC406C"/>
<path d="M204.01 206.219C203.515 206.194 203.043 206.194 202.548 206.095C201.853 205.971 201.581 205.475 201.705 204.83C201.754 204.607 202.101 204.21 202.151 204.234C202.572 204.433 203.019 204.656 203.316 205.003C203.614 205.351 203.787 205.822 204.01 206.244V206.219Z" fill="#C43873"/>
<path d="M171.881 188.381H173.071C174.98 188.902 174.087 190.291 173.938 191.482C173.616 190.167 170.542 190.812 171.881 188.381Z" fill="#C03D6B"/>
<path d="M390.717 134.916C392.477 134.916 393.32 135.859 393.221 137.273C393.147 138.439 392.75 140.2 391.436 140.151C389.775 140.076 388.907 138.538 388.932 136.801C388.932 135.536 389.478 134.742 390.742 134.916H390.717Z" fill="#DEEBED"/>
<path d="M389.353 143.847C389.229 145.857 389.502 147.916 388.808 149.901C388.634 149.802 388.535 149.653 388.585 149.504C388.609 149.355 388.659 149.256 388.708 149.256C389.155 146.204 387.419 143.177 388.708 139.53C389.7 141.217 389.254 142.582 389.378 143.847H389.353Z" fill="#00709E"/>
<path d="M383.007 132.807C385.684 132.559 386.502 133.477 386.874 134.916C386.998 135.412 386.726 135.958 386.155 135.983C383.924 136.131 384.817 133.824 383.007 132.807Z" fill="#006F9D"/>
<path d="M392.8 142.905L391.163 142.16C391.064 141.664 390.593 140.969 391.585 140.945C393.023 140.895 392.899 141.937 392.8 142.905Z" fill="#0E77A0"/>
<path d="M392.352 152.704C392.352 151.662 392.204 150.596 392.799 149.653C392.749 150.695 393.27 151.811 392.352 152.704Z" fill="#4C7183"/>
<path d="M388.684 149.281L388.808 149.901C388.709 150.645 388.634 151.365 388.535 152.109C388.039 151.141 387.89 150.199 388.684 149.281Z" fill="#2F6B83"/>
<path d="M393.022 146.204L392.973 143.277C393.766 144.244 393.716 145.212 393.022 146.204Z" fill="#00749A"/>
<path d="M372.718 138.488C374.28 138.712 373.809 139.927 373.908 140.87H372.718V138.488Z" fill="#0F7696"/>
</g>
<defs>
<clipPath id="clip0_5114_47574">
<rect width="595" height="287" fill="white"/>
</clipPath>
</defs>
</svg>
