<svg width="595" height="297" viewBox="0 0 595 297" fill="none" xmlns="http://www.w3.org/2000/svg">
<g clip-path="url(#clip0_5484_43242)">
<rect width="595" height="297" fill="#5F5CE9"/>
<g clip-path="url(#clip1_5484_43242)">
<path d="M325.711 298C327.359 289.499 328.827 280.946 330.706 272.471C332.406 264.769 335.084 257.375 339.255 250.6C341.315 247.277 344.92 245.912 348.165 244.263C363.769 236.303 380.249 230.868 397.322 227.055C397.528 227.003 397.734 227.055 397.94 227.055C400.386 230.249 399.871 233.624 398.532 237.05C398.455 237.102 398.352 237.127 398.274 237.205C396.987 238.132 395.081 235.917 394.154 237.9C393.485 239.291 393.948 240.94 393.871 242.46C393.588 247.483 393.356 252.481 392.815 257.478C392.429 260.905 393.279 261.729 396.549 260.621C403.939 258.148 411.355 255.675 418.617 252.841C421.733 251.631 424.488 251.837 427.475 253.202C434.093 256.242 440.839 259.024 447.56 261.858C451.062 263.352 451.603 262.94 452.092 259.282C452.761 254.207 452.967 249.08 453.714 243.98C454.203 240.682 453.431 240.116 450.212 240.914C448.925 241.249 447.508 242.254 446.247 240.76C446.427 236.174 445.629 231.486 447.328 227.003C451.242 227.622 455.13 228.266 459.07 228.832C473.387 230.868 487.292 234.371 500.631 240.038C506.888 242.692 512.759 245.912 517.935 250.343C521.617 253.485 521.823 257.942 522.518 262.064C524.269 272.42 524.99 282.904 525.119 293.415C525.119 294.934 525.505 296.429 525.711 297.948H325.711V298Z" fill="#F4F0F4"/>
<path d="M246.452 244.289C244.984 245.732 243.079 244.392 241.096 245.345C258.168 258.895 268.983 275.897 270.528 298H235.972C235.173 296.97 235.637 295.785 235.791 294.728C237.259 284.527 234.993 274.996 230.667 265.851C231.311 268.092 232.676 270.05 233.294 272.317C233.963 274.79 234.556 277.288 235.096 279.787C235.611 282.209 235.843 284.682 236.049 287.103C236.358 290.839 236.512 294.677 234.118 298H199.561C199.02 296.429 200.205 295.501 200.978 294.497C206.025 287.747 211.406 281.256 215.732 273.991C217.972 270.23 217.38 268.015 213.466 266.031C207.982 263.223 202.625 260.183 197.269 257.118C194.437 255.495 193.124 255.727 191.502 258.638C188.849 263.403 185.656 267.834 183.133 272.651C182.618 273.656 181.897 274.558 181.33 275.511C180.249 277.34 178.91 277.649 176.927 276.825C173.142 275.228 169.511 273.321 165.7 271.724C160.241 269.431 158.516 269.792 155.4 274.609C150.817 281.668 146.053 288.623 141.418 295.656C140.774 296.635 140.053 297.433 139.049 298H110.029C107.016 293.956 107.608 289.344 108.432 284.965C109.642 278.473 112.938 272.883 117.367 268.169C110.878 273.527 105.625 285.738 108.406 295.965C108.587 296.66 108.767 297.382 108.175 298H73C75.1372 283.677 81.1628 271.209 90.613 260.209C95.0678 255.057 100.063 250.626 105.471 246.556C106.037 246.144 106.449 245.525 106.939 245.01C109.23 242.099 112.578 240.605 115.668 238.853C126.946 232.491 139.049 228.24 151.769 225.818C152.49 225.69 153.185 225.612 153.906 225.612C156.43 225.561 157.151 226.926 156.662 229.193C155.838 233.16 157.383 235.891 160.936 237.797C168.687 241.919 176.773 243.284 185.27 240.734C187.768 239.987 190.085 238.75 190.523 235.711C191.064 232.491 190.935 229.193 191.708 226.025C192.815 224.737 194.205 225.355 195.441 225.561C209.707 227.905 223.071 232.748 235.251 240.579C237.954 242.331 240.658 243.98 244.083 243.542C244.907 243.439 245.705 243.722 246.375 244.289H246.452Z" fill="#F7F4F0"/>
<path d="M139.049 298C144.585 289.602 150.096 281.178 155.658 272.806C158.052 269.174 159.623 268.581 163.692 270.204C168.069 271.93 172.421 273.811 176.618 275.949C178.936 277.134 179.966 276.49 181.124 274.429C184.214 268.993 187.536 263.661 190.729 258.277C192.944 254.542 193.896 254.31 197.579 256.396C203.115 259.539 208.703 262.579 214.265 265.67C218.333 267.937 218.9 270.178 216.505 274.223C212.024 281.745 206.385 288.443 201.235 295.475C200.643 296.3 200.102 297.176 199.536 298.026H139.049V298Z" fill="#FDC400"/>
<path d="M108.2 298C104.595 285.763 108.638 275.768 117.187 267.087C117.753 266.52 118.474 265.309 119.401 266.469C120.122 267.396 118.886 267.834 118.397 268.375C112.191 274.944 108.277 282.415 108.766 291.766C108.869 293.955 109.771 295.913 110.054 298.026H108.2V298Z" fill="#C5B198"/>
<path d="M234.118 298C236.616 287.309 234.71 277.16 230.23 267.345C230.024 266.881 229.74 266.443 229.509 266.005C229.251 265.516 229.122 265.026 229.637 264.64C230.358 264.125 230.822 264.691 231.131 265.155C231.775 266.186 232.418 267.267 232.856 268.401C236.538 277.984 238.521 287.747 235.972 298H234.118V298Z" fill="#C5B299"/>
<path d="M397.837 218.476C397.837 218.476 397.683 218.296 397.683 218.219C398.43 213.221 395.082 211.882 391.297 209.975C366.912 197.713 351.951 178.135 347.934 151.009C341.805 109.663 368.894 71.3828 410.275 63.8864C440.016 58.5024 465.096 68.0854 484.744 91.27C490.589 98.1739 494.812 106.005 497.722 114.532C498.391 116.541 499.447 117.494 501.43 118.113C508.15 120.225 513.223 124.373 515.669 131.122C519.043 140.344 513.867 149.824 504.133 152.452C502.228 152.967 500.837 153.302 500.245 155.878C494.451 181.329 479.697 199.697 455.929 210.722C455.569 210.903 455.157 210.98 454.771 211.109C454.075 211.238 453.947 210.826 453.947 210.285C455.801 206.627 458.839 203.767 460.616 200.032C467.053 186.43 466.332 173.344 458.015 160.747C449.827 148.923 438.522 143.41 424.18 143.873C417.33 144.079 411.073 146.063 405.253 149.567C404.558 150.004 403.811 150.391 402.962 150.339C402.447 150.211 402.112 149.901 402.112 149.335C402.807 147.686 404.095 146.475 405.176 145.11C418.746 128.031 408.858 102.424 387.306 98.8952C369.358 95.9585 353.213 109.972 353.728 128.056C354.346 149.257 377.443 162.653 396.189 152.684C397.271 152.117 398.224 151.241 399.588 151.576C399.872 151.73 400.078 151.962 400.155 152.271C400.232 153.688 399.202 154.513 398.327 155.337C394.876 158.531 392.481 162.447 390.499 166.672C389.263 169.325 387.975 171.953 389.237 174.967C387.151 176.383 387.125 178.599 387.1 180.737C386.971 191.711 390.241 201.423 397.863 209.537C398.816 210.542 400.155 211.366 399.949 213.067C398.301 214.535 399.434 217.06 397.889 218.579L397.837 218.476Z" fill="#F5C79E"/>
<path d="M93.3423 146.785C95.0676 142.148 96.5868 137.433 98.5953 132.899C107.814 112.033 121.693 95.2115 141.83 83.9799C152.207 78.1837 163.382 75.2727 175.305 75.2985C178.729 75.2985 179.734 77.179 179.862 80.1158C182.051 82.0993 181.15 84.4693 180.712 86.7878C174.635 116.026 162.764 142.714 145.641 167.135C137.246 179.114 127.487 189.882 116.363 199.388C112.372 202.634 108.329 205.777 103.926 208.481C100.964 210.31 99.6511 210.001 98.0031 206.962C91.4368 194.931 88.6816 182.077 89.4798 168.424C89.9176 161.056 90.8446 153.791 93.3423 146.81V146.785Z" fill="#FEC500"/>
<path d="M179.863 87.097C180.378 84.7785 180.868 82.46 179.863 80.1416C197.348 79.5748 210.248 88.385 221.269 100.724C229.2 109.612 234.35 120.071 238.857 131.045C242.874 140.86 247.019 150.52 249.208 160.953C251.114 170.175 252.324 179.449 252.736 188.852C253.483 206.111 252.092 223.139 247.715 239.91C247.328 241.378 246.891 242.846 246.453 244.34C242.256 244.881 238.651 243.902 234.968 241.455C222.042 232.877 207.596 228.085 192.275 225.896C191.425 225.277 191.193 224.324 191.322 223.448C191.992 219.095 191.451 214.664 192.223 210.336C192.893 208.997 194.258 209.1 195.416 208.868C205.742 206.936 215.939 204.566 225.75 200.753C231.029 198.692 236.05 196.116 240.814 193.025C245.449 190.011 245.835 185.039 246.221 180.196C247.148 168.604 243.801 157.836 239.269 147.377C237.93 144.26 236.668 141.117 235.02 138.155C232.986 131.225 229.097 125.455 223.767 120.637C214.6 107.937 204.146 96.68 189.597 89.9564C186.481 88.5396 183.031 88.4365 179.915 87.1227L179.863 87.097Z" fill="#E1AB00"/>
<path d="M93.3435 146.785C92.4423 151.679 91.2836 156.548 90.7171 161.494C89.1463 175.431 90.5111 189.006 96.2791 201.938C97.1546 203.87 98.339 205.674 99.3175 207.58C100.193 209.254 101.069 209.332 102.717 208.301C107.403 205.365 111.678 201.887 116.158 198.693C124.862 206.446 136.037 207.451 146.698 209.873C148.706 210.336 150.766 210.13 152.8 210.182C154.448 210.233 156.096 210.233 157.281 211.702C157.873 212.887 157.822 214.149 157.822 215.411C157.95 217.884 157.204 220.306 157.229 222.753C157.255 225.149 156.354 226.411 153.856 226.334C138.097 228.961 123.471 234.448 110.081 243.181C109.051 243.851 107.97 244.418 106.914 245.036C103.515 245.01 100.142 244.959 96.7425 244.959C95.6095 244.959 95.3005 244.753 94.9143 243.362C92.5453 234.912 90.9488 226.308 89.8673 217.652C88.9918 210.568 88.6571 203.381 88.2193 196.245C87.6528 187.512 87.9618 178.805 88.4768 170.124C88.8888 163.22 89.7386 156.316 91.7471 149.644C92.0561 148.639 92.0561 147.326 93.3178 146.81L93.3435 146.785Z" fill="#E1AB00"/>
<path d="M397.838 218.477C397.864 217.24 397.992 216.03 397.915 214.793C397.812 213.299 398.533 212.758 399.872 212.758C401.185 212.114 401.958 213.144 402.808 213.763C405.28 215.514 407.752 217.24 410.816 217.859C416.996 221.439 423.717 221.645 430.54 221.027C435.201 220.615 439.579 219.172 443.75 217.06C444.626 216.622 445.475 215.823 446.583 216.57V219.636C443.802 224.531 439.244 227.596 434.789 230.687C427.167 235.968 418.824 239.961 410.224 243.413C405.846 241.893 401.572 240.167 397.992 237.102C399.022 233.753 398.507 230.404 397.941 227.081C397.915 224.221 397.889 221.362 397.838 218.503V218.477Z" fill="#D1A379"/>
<path d="M458.555 160.386C462.495 164.766 464.169 170.201 465.096 175.74C467.284 189.032 463.371 200.599 454.126 210.388C453.714 211.212 452.993 211.727 452.272 212.217C451.01 213.247 449.749 214.278 448.513 215.308C446.041 212.474 443.62 209.615 440.762 207.116C440.35 206.756 440.195 206.266 440.298 205.725C442.333 203.175 445.268 201.552 447.199 198.821C453.946 189.264 454.487 179.372 449.182 169.042C448.59 167.883 447.56 166.878 447.766 165.41C451.088 163.143 454.409 160.85 458.581 160.386H458.555Z" fill="#F3EEF1"/>
<path d="M410.248 243.027C412.437 241.275 415.192 240.605 417.664 239.446C428.402 234.448 438.367 228.343 446.581 219.662C446.71 222.16 446.684 224.659 447.302 227.081C447.174 231.769 447.534 236.483 446.736 241.146C446.453 242.357 445.397 242.64 444.444 242.949C437.826 245.113 431.286 247.56 424.539 249.389C423.2 249.75 421.939 249.802 420.651 249.183C417.793 247.767 414.935 246.401 412.128 244.933C411.304 244.521 410.454 244.083 410.248 243.052V243.027Z" fill="#F5C79E"/>
<path d="M440.478 206.112C443.491 208.868 447.07 211.161 448.487 215.308C447.843 215.72 447.225 216.158 446.581 216.571C439.268 220.667 431.466 222.676 423.046 222.135C419.132 221.877 415.398 220.873 411.69 219.61C410.84 219.327 410.274 218.812 410.093 217.936C409.707 213.505 412.128 210.568 415.372 208.095C416.814 207.632 418.23 208.095 419.595 208.404C425.595 209.847 431.337 209.1 437.002 206.859C438.109 206.421 439.165 205.597 440.478 206.112V206.112Z" fill="#7C7C7C"/>
<path d="M452.246 212.217C452.658 211.392 453.251 210.774 454.1 210.388C454.306 210.62 454.512 210.826 454.718 211.057C454.049 211.779 453.199 212.114 452.221 212.191L452.246 212.217Z" fill="#F7E0CD"/>
<path d="M410.249 243.026C413.906 244.855 417.562 246.684 421.193 248.565C422.171 249.054 423.047 249.054 424.103 248.72C431.725 246.427 439.269 243.877 446.737 241.12C447.896 240.76 449.029 240.399 450.187 240.038C454.385 238.673 455.312 239.343 454.642 243.645C453.767 249.415 453.432 255.211 452.84 261.007C452.556 263.944 451.526 264.562 448.848 263.403C441.098 260.08 433.295 256.808 425.596 253.331C423.665 252.455 422.068 252.506 420.137 253.202C412.206 256.087 404.249 258.844 396.293 261.6C392.173 263.043 391.297 262.347 391.786 258.019C392.482 252.12 392.816 246.195 392.945 240.27C393.074 234.86 393.022 234.835 397.966 237.076C402.061 239.059 406.155 241.017 410.249 243.001V243.026Z" fill="#E95214"/>
<path d="M156.97 215.334C156.944 214.123 156.893 212.912 156.867 211.676C157.743 210.697 158.876 210.8 160.009 210.903C169.433 211.934 178.78 210.697 188.128 209.692C189.698 209.512 191.321 208.739 192.866 209.821C192.66 215.154 192.479 220.486 192.273 225.819C191.99 229.296 191.733 232.774 191.449 236.252C190.419 237.102 189.338 236.844 188.256 236.355C183.673 234.242 178.883 232.671 174.351 230.404C168.455 227.467 163.511 223.397 158.979 218.709C158 217.704 157.64 216.416 156.97 215.282V215.334Z" fill="#B48B65"/>
<path d="M156.971 215.334C165.185 226.025 176.85 231.409 189.03 235.942C189.776 236.226 190.626 236.2 191.424 236.303C190.755 239.807 187.845 240.914 185.038 241.739C181.33 242.821 177.545 243.362 173.58 242.563C168.97 241.661 164.464 241.017 160.267 238.467C156.301 236.071 154.834 233.057 155.915 228.807C156.456 226.643 155.58 226.308 153.881 226.334C155.632 225.87 156.482 224.994 156.404 222.933C156.301 220.409 156.739 217.858 156.971 215.308V215.334Z" fill="#E6B78C"/>
<path d="M458.555 160.386C455.028 162.086 451.474 163.786 447.946 165.487C446.35 165.667 445.577 164.43 444.676 163.503C432.728 151.086 410.326 153.534 401.905 170.793C401.056 172.545 400.901 174.915 398.558 175.688C396.421 175.688 394.309 175.482 392.198 175.482C391.116 175.482 389.932 175.533 389.185 174.451C387.254 174.065 387.305 172.957 387.794 171.309C390.035 163.864 394.232 157.733 399.794 152.452C400.335 151.009 401.493 150.339 402.91 149.979C411.227 144.466 420.342 141.864 430.282 143.101C442.256 144.569 452.015 149.901 458.53 160.386H458.555Z" fill="#7C7C7C"/>
<path d="M389.185 174.452C392.507 174.658 395.854 174.864 399.176 175.07C400.129 176.023 399.691 177.157 399.588 178.264C398.223 190.398 402.729 199.671 413.184 206.034C414.137 206.601 415.295 206.987 415.295 208.404C412.823 211.161 410.892 214.226 410.094 217.91C408.472 218.915 407.39 217.549 406.257 216.905C404.043 215.669 402.008 214.149 399.897 212.758C393.434 206.653 388.85 199.44 387.125 190.629C386.224 186.018 385.786 181.407 386.661 176.693C386.996 174.941 387.691 174.477 389.211 174.452H389.185Z" fill="#F3EEF1"/>
<path d="M399.716 151.499C394.154 154.951 388.206 156.883 381.537 156.78C368.559 156.599 355.787 146.012 353.521 133.26C350.662 117.082 359.469 103.017 375.202 98.5862C391.347 94.0523 408.497 104.898 411.561 121.436C413.621 132.539 410.145 141.684 402.291 149.464C401.725 150.494 400.926 151.267 399.716 151.524V151.499Z" fill="#030202"/>
<path d="M387.691 85.7573C397.064 86.1953 405.072 89.5184 412.102 95.263C413.724 96.6026 414.96 98.3028 413.312 100.261C411.742 102.115 409.836 101.471 408.137 100.158C402.678 95.9586 396.678 93.0734 389.7 92.3263C386.223 91.9399 382.979 92.5582 379.837 93.8977C379.091 94.2068 378.395 94.6705 377.623 94.9539C375.949 95.5464 374.301 95.6237 373.323 93.8462C372.267 91.9399 373.22 90.4458 374.79 89.3896C378.756 86.7362 383.288 85.9376 387.717 85.7831L387.691 85.7573Z" fill="#7C7C7C"/>
<path d="M499.164 132.385C499.138 127.902 499.293 127.851 502.924 129.268C505.73 130.349 507.713 132.05 507.765 135.244C507.816 137.872 504.649 142.045 502.203 142.843C499.911 143.59 500.014 141.504 499.937 140.551C499.705 137.614 499.628 134.652 499.164 132.359V132.385Z" fill="#E7B588"/>
<path d="M399.717 151.499C400.515 150.752 401.185 149.824 402.292 149.438C402.498 149.618 402.73 149.799 402.936 149.979C402.137 151.087 400.901 151.679 399.82 152.452C399.794 152.143 399.743 151.808 399.717 151.499V151.499Z" fill="#DEB794"/>
<path d="M192.84 209.847C182.849 211.676 172.78 212.294 162.635 212.217C160.704 212.217 158.824 211.289 156.841 211.676C152.901 210.233 148.756 211.315 144.713 210.465C136.421 208.765 128.31 206.524 120.482 203.304C118.371 202.428 117.392 200.418 116.156 198.667C126.945 189.109 136.55 178.522 144.945 166.775C154.163 153.843 161.682 139.984 167.862 125.429C173.115 113.064 177.261 100.287 179.836 87.0713C186.042 86.8909 191.372 89.5185 196.419 92.6356C207.646 99.5395 216.298 109.174 224.126 119.607C224.306 119.839 224.281 120.2 224.358 120.483C222.967 121.178 222.015 120.148 220.959 119.607C210.376 114.3 198.093 115.666 189.698 123.755C178.986 134.059 178.342 150.03 187.818 160.773C195.646 169.634 206.667 172.365 217.791 168.346C227.757 164.74 234.709 154.719 235.173 143.565C235.25 141.581 233.885 139.546 235.404 137.64C242.614 151.241 248.099 165.307 247.095 181.149C246.631 188.465 243.207 193.231 236.589 196.632C224.358 202.917 211.38 206.575 197.99 209.126C196.29 209.46 194.565 209.589 192.84 209.821V209.847Z" fill="#E6B78C"/>
<path d="M235.431 137.665C236.718 145.703 235.276 153.122 230.435 159.819C224.101 168.578 212.719 172.777 201.775 170.304C191.269 167.934 182.772 158.995 180.969 148.433C179.012 136.867 182.823 127.413 192.248 120.766C201.698 114.094 211.921 113.965 222.144 119.427C222.865 119.813 223.611 120.148 224.332 120.509C229.997 124.939 233.525 130.787 235.379 137.665H235.431Z" fill="#434193"/>
<path d="M415.295 208.404C413.879 206.704 411.639 206.266 409.939 204.926C400.721 197.713 396.987 188.465 399.047 176.899C399.15 176.306 399.124 175.688 399.176 175.07C401.699 168.14 405.613 162.344 412.18 158.583C422.917 152.426 436.513 154.204 445.294 162.936C446.17 163.787 447.045 164.637 447.946 165.487C451.294 170.639 453.56 176.126 453.457 182.412C453.302 191.814 449.517 199.362 441.895 204.952C441.406 205.313 440.942 205.725 440.479 206.086C432.934 210.13 425.055 211.161 416.815 208.533C416.351 208.378 415.81 208.43 415.295 208.404V208.404Z" fill="#F5C79E"/>
<path d="M382.412 154.873C367.117 154.59 354.808 143.023 354.86 127.206C354.885 111.157 366.988 99.4621 382.592 99.4878C398.789 99.4878 410.351 112.368 410.274 127.696C410.196 142.482 397.527 154.873 382.412 154.873V154.873Z" fill="#F5C79E"/>
<path d="M170.953 198.049C154.267 197.997 143.58 180.016 151.563 165.436C152.31 164.044 153.159 162.422 155.013 163.091C157.228 163.89 156.919 165.616 155.992 167.393C152.593 174.04 152.85 180.506 157.408 186.508C161.502 191.866 167.167 194.03 173.759 192.974C180.094 191.969 184.6 188.285 187.072 182.283C187.278 181.819 187.381 181.304 187.561 180.815C188.102 179.218 189.184 178.393 190.883 178.908C192.608 179.449 192.454 180.995 192.145 182.257C191.063 186.714 188.463 190.269 184.935 193.103C180.892 196.348 176.206 198.049 170.978 198.023L170.953 198.049Z" fill="#BF1659"/>
<path d="M208.188 109.998C207.905 111.698 206.721 112.729 204.789 112.111C196.318 109.406 189.365 112.677 182.825 117.572C181.305 118.705 179.683 120.096 178.009 118.139C176.284 116.129 177.649 114.506 179.323 113.244C186.816 107.654 194.979 104.331 204.532 106.263C206.283 106.624 208.266 107.19 208.188 109.998Z" fill="#FDC500"/>
<path d="M231.235 138.258C231.827 138.773 231.569 139.495 231.724 140.113C232.342 141.504 231.518 143.075 232.239 144.466C232.059 144.672 231.853 144.879 231.672 145.085C230.874 148.768 228.505 151.19 225.312 152.89C220.497 155.44 215.476 157.579 210.094 158.532C207.648 158.97 204.97 159.511 202.807 157.398C200.154 152.813 200.232 147.764 200.695 142.792C201.184 137.588 202.755 132.591 205.794 128.211C207.751 126.254 210.12 127.258 212.18 127.619C219.724 128.907 226.136 132.436 231.235 138.232V138.258Z" fill="#54285D"/>
<path d="M206.412 128.289C202.343 135.991 199.949 144.028 201.957 152.839C202.318 154.436 202.961 155.956 203.451 157.501C202.91 158.841 201.648 158.789 200.567 158.738C194.953 158.557 189.752 157.372 186.275 152.375C185.889 151.164 185.503 149.953 185.117 148.743C181.718 137.614 194.464 127.052 203.837 127.413C204.764 127.438 205.948 126.743 206.386 128.263L206.412 128.289Z" fill="#F9F4F0"/>
<path d="M206.41 128.288C195.183 126.717 183.982 137.588 185.244 146.913C185.321 147.506 185.192 148.124 185.141 148.742C182.128 136.48 189.312 123.986 201.44 120.483C213.594 116.954 226.959 123.986 230.692 135.862C230.924 136.635 231.053 137.433 231.207 138.232C226.521 134.78 221.937 131.225 216.298 129.345C213.054 128.263 209.809 127.644 206.384 128.288H206.41Z" fill="#E6B78C"/>
<path d="M186.299 152.4C190.419 155.827 195.028 158.016 200.513 157.99C201.517 157.99 202.573 158.248 203.474 157.501C205.715 158.712 208.084 158.145 210.324 157.707C215.268 156.728 219.774 154.564 224.332 152.529C227.731 151.009 229.739 148.073 231.645 145.059C231.104 154.461 226.237 161.004 217.894 164.869C208.959 168.99 200.513 167.599 192.891 161.468C189.904 159.072 187.509 156.11 186.273 152.375L186.299 152.4Z" fill="#E6B78C"/>
<path d="M232.239 144.466C231.106 143.126 231.827 141.581 231.724 140.112C232.754 141.452 232.085 143.023 232.239 144.466Z" fill="#663B8F"/>
<path d="M439.191 173.37C439.191 172.339 439.191 171.309 439.191 170.304C439.191 168.939 439.526 167.831 441.174 167.754C442.719 167.676 443.388 168.681 443.594 169.995C444.933 178.341 443.002 185.76 436.539 191.402C427.397 199.388 415.089 197.61 408.291 187.615C407.776 186.868 407.441 185.992 407.132 185.116C406.694 183.906 406.978 182.824 408.162 182.231C409.372 181.613 410.351 182.18 411.098 183.184C412.076 184.498 412.9 185.967 413.982 187.152C420.033 193.669 430.024 193.128 435.406 185.967C438.212 182.257 439.654 178.058 439.217 173.344L439.191 173.37Z" fill="#CA74AD"/>
<path d="M386.688 144.415C383.495 145.883 380.25 144.852 377.109 144.286C372.808 143.513 368.766 141.787 365.058 139.469C358.466 135.373 357.873 129.989 360.629 123.42C364.543 114.094 374.791 108.607 385.503 109.869C388.361 113.141 388.645 117.34 389.52 121.256C390.911 127.516 390.962 133.801 389.211 140.009C388.748 141.658 388.387 143.436 386.688 144.389V144.415Z" fill="#010101"/>
<path d="M386.686 144.415C391.424 133.801 389.982 123.291 386.352 112.755C386.017 111.802 385.785 110.823 385.502 109.87C393.845 110.952 400.54 114.661 404.454 122.364C407.904 129.19 405.098 137.511 398.351 141.092C395.467 142.637 392.532 144.131 389.236 144.698C388.309 144.853 387.459 145.265 386.686 144.415V144.415Z" fill="#FAF4F0"/>
<path d="M207.545 147.222C207.545 148.742 207.596 150.288 207.519 151.808C207.467 152.632 207.081 153.457 206.128 153.56C204.995 153.688 204.712 152.632 204.661 151.962C204.377 148.923 203.991 145.883 204.815 142.843C205.073 141.89 205.51 141.091 206.695 141.272C207.931 141.452 207.545 142.482 207.596 143.204C207.648 144.518 207.596 145.857 207.596 147.197C207.596 147.197 207.596 147.197 207.57 147.197L207.545 147.222Z" fill="#F0F4EE"/>
<path d="M207.698 138.232C206.899 138.232 206.281 137.923 206.487 137.202C206.822 136.094 206.899 134.625 208.187 134.136C209.011 133.827 209.346 134.625 209.449 135.398C209.603 136.815 208.908 137.691 207.723 138.206L207.698 138.232Z" fill="#E8EDE6"/>
<path d="M386.224 130.452C386.25 132.667 385.58 135.63 384.834 138.567C384.653 139.236 384.396 140.344 383.263 140.009C381.95 139.623 382.799 138.824 382.98 138.077C383.829 134.934 384.422 131.766 384.344 128.494C384.344 127.541 384.01 126.021 385.349 125.995C386.997 125.97 385.967 127.541 386.198 128.391C386.301 128.778 386.198 129.216 386.198 130.478L386.224 130.452Z" fill="#F9E8DA"/>
<path d="M385.864 121.127C385.684 121.719 385.658 123.033 384.988 122.673C382.98 121.616 383.186 119.427 383.031 117.495C382.98 116.825 383.031 115.614 383.907 116.078C385.812 117.082 385.375 119.324 385.864 121.127V121.127Z" fill="#FAE9DA"/>
</g>
</g>
<defs>
<clipPath id="clip0_5484_43242">
<rect width="595" height="297" fill="white"/>
</clipPath>
<clipPath id="clip1_5484_43242">
<rect width="618" height="298" fill="white" transform="translate(-12)"/>
</clipPath>
</defs>
</svg>
