<svg width="595" height="297" viewBox="0 0 595 297" fill="none" xmlns="http://www.w3.org/2000/svg">
<g clip-path="url(#clip0_5484_43240)">
<rect width="595" height="297" fill="#5685C4"/>
<path d="M216.454 113.553C222.094 113.321 227.733 113.115 233.372 112.832C235.999 112.703 237.235 113.682 237.569 116.464C239.526 133.234 241.638 149.979 243.698 166.723C245.732 183.159 247.792 199.62 249.852 216.055C250.728 223.088 250.728 222.856 243.646 223.397C232.316 224.273 221.012 225.432 209.682 226.591C208.42 226.72 206.309 226.411 206.438 228.884C204.712 228.266 202.987 228.137 201.107 228.291C193.048 228.935 185.014 229.811 176.98 230.352C176.259 230.404 175.563 230.507 174.842 230.61C172.963 230.868 172.473 231.795 173.143 233.598C175.229 239.266 178.782 243.774 183.984 246.865C186.456 248.333 189.082 249.467 191.812 250.394C192.867 250.755 194.361 250.832 194.258 252.558C191.116 254.98 187.254 254.619 183.675 254.928C179.349 255.314 175.126 254.258 171.031 252.738C168.353 251.734 166.834 249.853 166.834 246.942C166.834 244.83 166.19 242.924 165.16 241.12C167.143 240.682 167.143 239.24 167.092 237.617C166.911 231.099 166.911 230.893 160.551 231.46C149.35 232.465 138.2 233.701 127.025 234.912C123.548 235.298 122.57 234.062 122.853 230.61C123.265 225.432 122.364 220.254 121.978 215.076C121.9 213.968 120.587 214.329 120.227 213.582C121.411 212.036 121.54 210.388 121.36 208.43C120.87 203.793 121.051 199.105 121.257 194.442C121.566 192.458 123.188 191.608 124.656 190.707C132.226 186.044 139.024 180.325 145.178 174.014C153.367 165.616 160.5 156.316 166.345 146.089C171.315 137.433 175.332 128.314 179.426 119.221C180.018 117.933 180.404 116.464 182.027 116C186.301 114.687 190.756 115.15 195.133 114.841C202.24 114.352 209.322 113.656 216.454 113.605V113.553Z" fill="#EABBA2"/>
<path d="M165.161 241.095C166.191 241.198 167.246 241.198 167.221 242.718C167.221 243.413 167.478 244.134 167.555 244.83C168.148 250.884 168.611 251.347 174.585 252.97C181.229 254.748 187.743 254.233 194.258 252.301C195.829 250.729 197.992 250.755 199.923 250.214C204.97 248.797 205.949 247.664 206.438 242.46C206.541 241.43 206.258 240.09 207.854 239.807C243.672 243.954 277.791 265.67 287.911 297.098H93.0605C96.0475 288.056 100.811 280.096 107.043 273.038C121.746 256.397 140.544 246.891 161.839 241.79C162.946 241.533 164.053 241.327 165.161 241.069V241.095Z" fill="#ED6A35"/>
<path d="M451.113 195.009C443.723 203.252 434.478 208.636 424.05 211.959C421.32 212.835 420.29 214.02 420.754 216.674C422.144 218.503 421.552 220.692 421.81 222.727C420.084 229.837 417.818 231.821 410.634 232.929C407.158 233.47 403.682 233.573 400.205 233.289C398.892 233.186 397.527 233.006 396.6 231.821C396.729 230.069 398.248 229.889 399.407 229.502C405.433 227.493 408.934 223.037 411.303 217.472C412.333 215.051 411.922 214.613 409.192 215.051C402.24 216.184 395.364 215.978 388.515 214.252C380.197 212.269 372.447 208.92 365.391 204.077C350.327 193.437 340.877 179.011 337.684 160.927C334.002 140.113 339.178 121.462 352.877 105.259C354.087 103.816 354.937 101.858 357.126 101.472C358.671 101.626 359.7 102.708 360.808 103.584C373.76 114.146 388.412 121.745 403.785 128.057C417.406 133.647 431.414 138.078 445.86 141.04C451.19 142.122 456.572 142.946 461.98 143.642C464.014 143.9 466.357 143.462 467.928 145.445C466.872 155.853 465.507 166.234 463.396 176.513C462.185 182.386 458.4 186.302 453.328 189.084C449.079 191.428 444.495 192.974 439.912 194.545C438.779 194.932 437.671 194.932 436.641 194.339C434.813 193.257 432.933 193.36 430.976 193.824C427.629 194.622 426.547 196.271 427.14 199.62C427.526 201.835 428.839 202.84 431.002 202.686C433.397 202.531 435.56 201.887 437.44 200.161C441.045 196.838 445.886 196.194 450.289 194.622C450.546 194.519 450.855 194.803 451.087 195.035L451.113 195.009Z" fill="#EC9E75"/>
<path d="M467.672 145.445C461.929 143.977 455.981 143.848 450.162 142.715C441.02 140.911 431.956 138.747 423.073 135.94C411.434 132.256 400.104 127.748 389.134 122.364C377.701 116.748 366.989 109.947 357.178 101.781C355.324 101.163 354.269 99.5654 352.955 98.2773C351.282 96.6287 351.333 94.9027 352.827 93.0994C357.822 86.9941 363.873 82.1254 370.671 78.1582C371.109 77.9006 371.598 77.6945 372.01 77.4112C372.783 77.0247 373.684 77.0247 374.457 76.6126C384.988 71.4347 396.035 68.0343 407.829 67.8024C434.557 67.2614 456.882 76.1746 471.895 99.2562C480.598 112.652 482.452 127.438 478.667 142.972C478.126 145.188 476.504 145.11 475.036 145.626C474.083 146.527 472.925 146.45 471.766 146.398C470.427 146.012 468.933 146.295 467.697 145.471L467.672 145.445Z" fill="#E7B522"/>
<path d="M421.192 222.573C420.652 220.64 420.24 218.683 420.755 216.673C445.114 217.42 469.293 219.971 493.318 223.989C494.94 224.273 496.537 224.608 498.133 224.968C500.451 225.509 501.841 226.9 502.382 229.27C506.245 246.35 510.674 263.352 510.777 281.049C510.802 285.789 510.777 290.478 510.056 295.166C509.824 296.712 509.257 297.33 507.506 297.33C478.641 297.253 449.749 297.253 420.883 297.227C419.493 295.501 420.446 293.646 420.755 291.92C422.943 278.86 424.514 265.722 424.179 252.429C423.999 244.804 423.021 237.308 421.553 229.837C421.064 227.416 420.755 224.994 421.192 222.521V222.573Z" fill="#010101"/>
<path d="M216.455 113.553C212.257 115.691 207.648 114.841 203.245 115.253C195.932 115.897 188.567 116 181.254 116.722C171.547 117.443 161.813 118.242 152.08 118.68C147.882 118.86 147.239 119.401 146.003 123.317C141.574 137.279 135.342 150.468 128.415 163.323C126.278 167.29 124.089 171.257 121.514 174.993C120.896 175.894 120.51 177.079 119.145 177.182C117.188 174.117 117.935 170.562 117.42 167.239C117.523 164.817 117.575 162.37 117.42 159.51C113.274 161.52 109.386 163.246 106.682 166.543C101.661 172.648 103.747 178.135 110.983 182.283C111.961 182.85 113.171 182.901 114.073 183.648C114.794 184.679 114.433 185.606 113.815 186.482C111.137 190.243 108.176 193.772 104.725 196.838C104.056 197.43 103.309 198.1 102.279 197.43C93.1636 186.198 87.5243 173.421 86.3656 159.021C85.0523 142.611 89.3783 127.593 99.6783 114.609C112.45 98.5605 129.42 90.0594 149.685 88.1274C174.637 85.7574 196.241 93.4083 214.678 110.23C215.631 111.106 216.841 111.905 216.455 113.527V113.553Z" fill="#251A16"/>
<path d="M381.872 297.33C358.543 297.33 335.239 297.279 311.91 297.407C308.974 297.407 308.099 297.047 308.33 293.724C309.644 275.253 313.274 257.195 317.729 239.291C318.579 235.839 319.918 232.49 320.871 229.038C321.901 225.252 324.373 223.191 328.158 222.547C331.995 221.877 335.857 221.259 339.694 220.615C340.672 220.228 341.574 220.563 342.192 221.259C344.38 223.654 346.569 222.907 348.629 221.233C350.895 219.378 353.341 218.09 356.251 217.678C365.212 216.416 374.199 215.591 383.263 215.643C384.267 215.694 385.297 215.643 386.301 215.72C389.005 215.926 389.391 216.467 389.108 219.456C384.602 224.814 383.392 231.486 382.413 238.029C379.709 256.293 379.066 274.609 382.387 292.899C382.671 294.419 383.057 295.965 381.898 297.304L381.872 297.33Z" fill="#010101"/>
<path d="M355.015 218.554C352.929 218.838 351.333 219.997 349.736 221.285C345.951 224.376 345.076 224.35 341.239 221.362C340.775 221.001 340.157 220.847 339.617 220.589C339.926 219.585 339.05 219.147 338.535 218.58C325.3 203.484 318.373 185.735 316.339 165.951C314.33 146.27 317.446 127.49 327.025 110.076C335.625 94.4905 347.908 83.0528 365.47 78.081C367.324 77.54 369.203 76.9733 371.186 77.0763C371.856 76.8702 372.577 76.5353 372.551 77.7461C366.706 81.1207 361.35 85.1652 356.534 89.9051C355.17 91.2705 353.934 92.7903 352.723 94.2845C351.771 95.4437 352.131 96.5514 353.135 97.5561C354.5 98.9472 355.788 100.364 357.127 101.781C347.702 111.029 341.419 122.08 338.844 134.986C334.158 158.403 340.492 178.831 356.895 196.091C359.547 198.899 362.817 201.114 365.83 203.613C366.088 205.133 365.006 206.06 364.208 207.039C361.581 210.259 359.187 213.66 356.071 216.493C355.479 217.034 354.861 217.601 354.989 218.554H355.015Z" fill="#B39131"/>
<path d="M381.871 297.33C381.15 291.766 380.043 286.227 379.734 280.611C378.704 261.652 378.678 242.743 385.039 224.479C385.682 222.598 385.888 220.1 388.566 219.559C389.442 220.203 389.442 221.156 389.416 222.057C389.262 225.818 391.167 228.214 394.36 229.811C395.158 230.224 396.085 230.507 396.575 231.383C403.192 233.804 409.733 232.748 416.093 230.533C419.595 229.296 420.033 225.587 421.166 222.573C423.406 234.654 425.595 246.736 425.183 259.153C424.797 271.363 423.2 283.445 421.089 295.45C420.986 296.042 420.934 296.66 420.883 297.279C407.879 297.279 394.875 297.304 381.871 297.33V297.33Z" fill="#F9F3F0"/>
<path d="M102.253 197.456C103.644 197.688 104.21 196.503 104.983 195.756C108.021 192.819 110.596 189.496 113.145 186.147C113.66 185.503 114.201 184.859 113.866 183.932C114.871 182.18 116.184 180.608 117.214 178.857C117.806 178.058 118.476 177.388 119.454 177.079C127.9 163.194 135.496 148.871 141.367 133.698C143.067 129.319 144.638 124.914 145.925 120.406C146.363 118.886 146.904 118.422 148.32 118.319C152.079 118.01 155.839 117.572 159.624 117.289C165.65 116.825 171.675 116.464 177.701 116.026C178.962 115.923 180.147 116.026 181.254 116.722C175.666 129.576 170.104 142.431 162.199 154.101C152.131 168.965 140.054 181.845 124.759 191.479C123.754 192.123 122.493 192.561 121.952 193.798C117.291 197.43 112.038 200.058 106.605 202.299C104.983 202.222 103.747 203.226 102.382 203.87C100.554 204.746 99.0086 204.076 98.1846 202.66C97.2833 201.114 99.1116 200.727 100.013 200.083C100.991 199.388 102.227 198.95 102.279 197.482L102.253 197.456Z" fill="#C0B294"/>
<path d="M207.803 239.832C206.824 240.889 207.236 242.177 207.236 243.362C207.185 247.509 206.18 249.106 202.241 250.368C199.64 251.193 196.91 251.682 194.232 252.301C191.168 250.678 187.769 249.905 184.705 248.23C178.139 244.675 174.044 239.266 171.778 232.259C171.315 230.816 171.469 230.198 173.092 230.069C179.169 229.528 185.246 228.884 191.323 228.266C195.159 227.879 199.022 227.596 202.859 227.107C204.584 226.875 205.846 227.107 206.464 228.884C206.979 232.516 206.464 236.303 207.803 239.832V239.832Z" fill="#CC9578"/>
<path d="M467.671 145.445C468.907 145.11 470.117 145.136 471.301 145.651C471.559 145.909 471.791 146.192 471.945 146.527C472.821 151.447 471.765 156.239 471.07 161.056C470.761 163.168 470.786 165.384 469.576 167.29C469.138 169.711 468.597 172.107 468.263 174.529C467.078 183.21 462.495 189.393 454.641 193.231C453.457 193.798 452.298 194.442 451.113 195.06C447.483 196.425 443.8 197.636 440.221 199.156C437.775 200.212 436.333 202.788 433.346 203.329C427.758 204.36 425.492 202.608 426.033 196.992C426.239 194.802 427.372 193.514 429.406 193.231C432.161 192.819 435.071 191.582 437.595 194.004C438.161 194.519 438.702 194.158 439.294 193.952C443.8 192.304 448.332 190.681 452.658 188.543C459.096 185.322 462.418 180.067 463.345 173.06C464.452 164.714 465.636 156.393 466.795 148.072C466.924 147.145 466.975 146.218 467.645 145.496L467.671 145.445Z" fill="#020201"/>
<path d="M106.605 202.299C111.575 199.208 116.674 196.322 121.952 193.798C122.184 199.388 121.746 205.004 122.519 210.594C122.751 212.217 122.596 213.788 120.253 213.531C115.257 210.336 110.828 206.446 106.631 202.273L106.605 202.299Z" fill="#251A17"/>
<path d="M469.577 167.264C469.397 165.152 470.015 163.117 470.324 161.056C470.581 160.257 471.045 159.639 471.689 159.098C473.8 157.321 474.264 155.337 472.513 153.019C470.942 150.958 472.204 148.459 471.534 146.244C471.457 146.038 471.405 145.857 471.328 145.651C472.564 145.651 473.8 145.625 475.036 145.6C475.139 146.089 475.165 146.553 475.68 146.888C481.783 150.7 482.298 159.227 475.628 164.456C473.852 165.848 471.895 166.981 469.603 167.264H469.577Z" fill="#EC9E75"/>
<path d="M372.601 77.7458C372.292 77.2048 371.751 77.2048 371.236 77.076C372.215 76.3805 373.322 76.4835 374.429 76.6123C373.811 76.9987 373.193 77.3594 372.601 77.7458Z" fill="#C39F3F"/>
<path d="M196.755 155.466C205.87 154.822 214.136 156.806 220.29 164.044C223.972 168.372 223.689 174.014 219.595 177.981C212.9 184.473 204.66 185.941 195.699 184.473C193.639 182.772 193.742 180.222 193.51 177.981C192.789 171.283 193.587 164.663 195.261 158.145C195.519 157.115 195.982 156.239 196.755 155.518V155.466Z" fill="#6F4A87"/>
<path d="M196.756 155.466C195.7 160.232 194.541 164.997 194.155 169.918C193.769 174.864 194.413 179.707 195.726 184.472C189.16 184.498 183.417 182.231 178.705 177.8C172.989 172.442 173.838 164.508 180.482 159.897C185.349 156.522 190.833 155.079 196.756 155.466V155.466Z" fill="#F9F3F0"/>
<path d="M158.387 216.622C145.358 216.622 136.191 204.926 139.822 192.948C140.465 190.835 141.367 188.852 143.993 189.444C146.62 190.037 146.877 192.175 146.13 194.313C142.963 203.381 151.898 213.015 163.151 209.512C168.919 207.709 172.962 204.076 174.893 198.28C175.254 197.198 175.537 196.116 176.335 195.266C177.211 194.339 178.292 194.133 179.425 194.467C180.481 194.777 181.176 195.549 181.331 196.657C181.537 198.1 181.331 199.491 180.867 200.882C177.7 210.156 168.533 216.596 158.413 216.596L158.387 216.622Z" fill="#D41B75"/>
<path d="M199.897 138.644C207.39 138.67 213.106 139.133 218.565 141.117C220.419 141.787 222.196 142.611 223.509 144.08C224.591 145.29 224.72 146.681 223.664 147.995C222.685 149.18 221.295 149.361 220.033 148.665C208.703 142.276 196.832 144.466 184.987 146.45C184.884 146.45 184.781 146.527 184.704 146.553C182.515 147.016 179.837 147.995 179.116 144.852C178.395 141.761 181.176 141.272 183.339 140.756C189.339 139.391 195.442 138.618 199.897 138.67V138.644Z" fill="#261A17"/>
<path d="M446.041 162.473C445.938 175.199 436.565 185.555 423.741 187.409C412.978 188.955 400.824 180.737 397.631 169.66C396.91 167.213 396.729 164.714 399.124 162.962C400.978 161.597 402.987 161.7 404.866 162.962C406.308 163.941 406.694 165.59 407.312 167.11C409.527 172.623 413.338 176.126 419.441 177.182C426.548 178.393 434.17 173.086 435.612 165.41C436.075 162.937 435.792 160.567 435.612 158.119C435.329 154.23 437.955 151.782 441.38 152.426C443.749 152.864 444.856 154.642 445.32 156.677C445.783 158.66 446.272 160.67 446.066 162.499L446.041 162.473Z" fill="#E14E13"/>
<path d="M383.34 157.656C382.207 159.33 380.276 159.124 378.68 159.407C373.298 160.386 367.916 160.489 362.534 159.175C359.753 158.506 357.513 156.934 355.453 155.131C352.724 152.735 352.234 148.82 353.934 145.265C355.788 141.375 359.032 138.927 362.689 136.944C367.401 134.368 372.5 133.08 377.856 132.384C380.225 132.075 380.868 132.925 381.074 134.857C382.928 136.764 382.336 139.314 382.594 141.555C383.134 145.909 383.392 150.314 383.907 154.693C384.036 155.723 384.01 156.754 383.366 157.63L383.34 157.656Z" fill="#010101"/>
<path d="M383.34 157.656C382.593 150.056 381.82 142.457 381.074 134.857C380.945 132.642 381.743 131.818 384.138 132.23C387.46 132.797 390.807 133.054 393.897 134.6C400.592 137.949 402.009 144.363 397.065 149.979C393.434 154.101 389.031 157.063 383.34 157.656V157.656Z" fill="#E3E1E1"/>
<path d="M396.602 231.408C390.267 229.863 388.748 227.647 388.593 219.559C388.954 217.395 388.439 216.055 385.838 216.467C385.066 216.596 384.242 216.416 383.443 216.364C383.521 214.947 384.705 215.231 385.503 215.153C386.791 215.05 387.769 214.587 388.439 213.479C395.675 215.128 402.936 215.385 410.249 214.046C413.262 213.505 413.7 214.071 412.361 217.214C409.631 223.732 405.537 228.858 398.275 230.687C397.683 230.842 397.142 231.151 396.576 231.383L396.602 231.408Z" fill="#CA7B51"/>
<path d="M388.438 213.505C388.798 215.231 388.386 216.21 386.326 216.055C385.373 215.978 384.318 215.669 383.416 216.39C373.915 216.725 364.439 217.343 355.014 218.554C352.903 218.425 353.933 217.627 354.679 216.931C358.877 212.887 362.404 208.301 365.855 203.639C372.91 208.044 380.352 211.521 388.438 213.531V213.505Z" fill="white"/>
<path d="M376.309 127.052C368.61 127.335 361.349 129.345 354.551 132.848C352.388 133.956 350.431 134.677 349.04 132.127C347.675 129.602 349.323 128.031 351.409 127C360.061 122.724 369.125 120.097 378.91 120.431C381.176 120.509 383.545 120.972 383.468 123.832C383.391 126.614 381.15 127.103 378.807 127.052C377.983 127.052 377.159 127.052 376.335 127.052H376.309Z" fill="#040201"/>
<path d="M117.678 178.986C116.828 180.969 116.03 182.979 113.893 183.958C109.412 183.236 106.271 180.609 104.082 176.822C102.073 173.344 103.206 168.527 106.76 165.204C110.004 162.164 114.047 160.464 118.244 158.197V166.569C117.034 167.625 115.257 167.677 114.227 169.197C112.039 172.468 112.605 175.791 115.927 177.826C116.519 178.187 117.292 178.316 117.704 178.96L117.678 178.986Z" fill="#EABBA2"/>
<path d="M117.677 178.986C114.072 178.573 112.012 176.384 112.115 173.035C112.218 169.042 114.433 166.698 118.218 166.569C118.759 170.072 118.218 173.679 119.48 177.105C119.119 177.955 118.45 178.522 117.677 178.986Z" fill="#CB9578"/>
<path d="M471.509 146.218C472.436 147.171 471.972 148.356 472.049 149.438C472.101 150.339 472.024 151.215 472.616 152.065C475.397 156.058 475.139 157.449 471.277 160.257C470.942 160.489 470.633 160.773 470.324 161.03C470.813 156.11 471.895 151.215 471.534 146.218H471.509Z" fill="#C77950"/>
<path d="M199.226 174.374C199.226 176.1 199.226 177.852 199.226 179.578C199.226 180.067 199.201 180.66 198.505 180.686C197.939 180.711 197.501 180.402 197.424 179.835C197.012 176.306 196.188 172.777 197.115 169.196C197.295 168.475 197.372 167.702 198.351 167.805C199.381 167.908 199.226 168.784 199.226 169.454C199.278 171.077 199.226 172.725 199.226 174.348V174.374Z" fill="#F2EAF4"/>
<path d="M200.412 163.503C200.412 164.379 200.155 165.152 199.176 165.281C198.043 165.41 197.889 164.585 197.915 163.71C197.94 162.782 198.481 162.164 199.357 162.087C200.309 162.009 200.438 162.756 200.387 163.529L200.412 163.503Z" fill="#F0E8F2"/>
<path d="M379.528 150.675C379.528 151.911 379.528 153.148 379.528 154.358C379.528 155.311 379.477 156.342 378.266 156.471C377.108 156.6 376.541 155.595 376.49 154.719C376.309 151.653 376.309 148.562 376.258 145.497C376.258 144.621 376.773 144.183 377.623 144.209C378.627 144.209 379.168 144.93 379.219 145.78C379.322 147.403 379.245 149.052 379.245 150.7C379.322 150.7 379.399 150.7 379.502 150.7L379.528 150.675Z" fill="#FAEEE7"/>
<path d="M378.834 140.164C378.782 141.401 378.19 142.096 376.98 142.045C375.718 142.019 375.28 141.014 375.151 140.01C375.023 139.005 375.563 138.232 376.671 138.181C377.984 138.129 378.679 138.876 378.834 140.164Z" fill="#F3E7E0"/>
</g>
<defs>
<clipPath id="clip0_5484_43240">
<rect width="595" height="297" fill="white"/>
</clipPath>
</defs>
</svg>
