<svg width="595" height="297" viewBox="0 0 595 297" fill="none" xmlns="http://www.w3.org/2000/svg">
<g clip-path="url(#clip0_5484_43232)">
<rect width="595" height="297" fill="#5685C4"/>
<path d="M390.319 213.505C376.749 210.233 365.058 203.638 355.736 193.257C344.767 181.046 338.947 166.723 338.51 150.185C337.995 130.581 344.767 113.862 358.646 100.286C373.633 85.6284 392.044 79.9353 412.824 81.6098C413.21 81.6355 413.597 81.8416 413.983 81.9704C411.228 87.3029 407.777 92.0944 402.859 95.6751C400.181 97.6329 400.207 97.7617 403.297 99.3074C411.253 103.275 418.463 108.324 424.618 114.764C427.605 117.881 430.231 121.307 432.317 125.094C433.167 126.64 433.656 128.288 433.836 130.066C434.145 133.054 434.3 133.183 437.261 132.307C446.016 129.705 454.745 127.026 463.526 124.501C464.839 124.115 465.895 123.291 467.105 122.75C467.775 123.832 468.779 123.548 469.809 123.497C472.77 123.316 475.783 122.93 478.719 123.651C487.834 125.944 492.134 134.29 488.838 144.002C485.928 152.581 480.83 159.484 472.178 163.168C470.916 163.709 470.35 164.482 469.963 165.796C462.496 190.191 446.634 206.086 421.94 212.938C420.163 213.427 419.442 214.226 419.519 216.132C419.648 219.507 419.519 222.907 419.519 226.308C421.038 229.657 420.524 233.083 419.854 236.509C419.648 237.514 418.953 238.441 418.051 238.905C413.159 241.404 408.086 243.104 402.473 242.151C401.597 239.781 403.657 238.982 404.893 237.874C410.635 232.825 414.395 226.694 415.786 219.146C416.61 214.715 415.914 214.097 411.459 214.587C405.537 215.231 399.589 214.87 393.666 214.793C392.404 214.793 391.297 214.226 390.293 213.479L390.319 213.505Z" fill="#F4AE77"/>
<path d="M175.743 241.893C175.743 239.24 175.64 236.612 175.691 233.959C175.717 231.537 174.841 230.584 172.189 230.61C159.752 230.764 147.315 230.764 134.877 230.687C129.856 230.661 124.861 230.301 119.865 229.579C117.367 229.219 116.131 227.828 115.719 225.38C114.664 219.12 115.307 212.886 116.209 206.704C116.646 203.664 116.337 201.423 113.84 199.388C109.745 196.065 107.196 191.634 105.574 186.662C102.613 177.568 107.66 165.796 119.711 164.018C123.676 163.426 127.513 163.58 131.298 164.353C133.513 164.817 134.723 164.199 136.062 162.704C141.881 156.29 148.319 150.597 155.838 146.166C157.125 147.274 156.765 148.794 156.842 150.185C157.1 155.466 158.748 156.754 163.846 155.646C174.79 153.276 185.759 150.983 197.012 151.524C205.896 151.962 214.831 152.22 223.612 154.023C230.822 155.491 232.29 154.229 232.805 146.784C232.959 144.517 232.058 142.044 233.835 140.009C233.989 142.766 236.023 143.822 238.109 144.981C256.984 155.491 269.756 171.128 276.657 191.479C279.309 199.259 280.828 207.322 280.674 215.617C280.674 216.132 280.674 216.647 280.674 217.163C280.931 222.624 279.798 224.376 274.211 225.097C265.79 226.179 257.344 226.926 248.873 227.57C236.101 228.523 223.303 229.27 210.531 230.146C209.836 230.198 209.192 230.558 208.497 230.764C200.308 230.842 192.12 230.97 183.931 230.945C179.554 230.945 178.987 231.692 180.609 235.788C183.056 241.944 188.128 245.628 193.536 248.848C197.424 251.167 201.621 252.815 206.025 253.949C207.183 254.258 208.497 254.335 209.115 255.649C208.857 256.834 207.93 257.324 206.952 257.633C197.888 260.518 188.849 260.827 179.811 257.478C176.618 256.293 174.97 254.258 175.331 250.729C175.614 247.792 174.944 244.804 175.665 241.867L175.743 241.893Z" fill="#F3C6A3"/>
<path d="M175.744 241.893C176.568 245.216 176.388 248.591 176.259 251.966C176.182 254.026 176.954 255.237 178.705 256.061C184.422 258.792 190.525 259.359 196.679 258.895C200.284 258.612 203.915 257.994 207.365 256.654C208.06 256.396 208.73 256.242 208.91 255.417C207.648 250.832 207.417 246.272 208.91 241.687C226.884 241.97 244.857 242.46 262.676 244.933C265.019 245.268 267.337 245.706 269.629 246.221C270.813 246.479 271.946 247.045 272.693 248.127C281.319 260.518 289.585 273.115 292.701 288.262C293.19 290.658 293.319 293.131 293.628 295.578C293.808 296.892 293.293 297.51 291.928 297.356C291.31 297.304 290.692 297.356 290.074 297.356C228.969 297.356 167.865 297.356 106.76 297.433C103.67 297.433 102.846 296.583 103.309 293.672C105.163 281.487 108.408 269.689 113.069 258.277C113.867 256.293 114.742 254.361 115.824 252.481C116.519 251.27 117.189 250.703 118.502 250.368C127.463 248.127 136.656 247.123 145.72 245.525C155.633 243.774 165.624 242.795 175.641 241.893H175.744Z" fill="#514989"/>
<path d="M352.183 243.13C357.307 238.879 362.972 235.505 369.178 233.057C370.44 233.676 370.388 234.886 370.414 235.994C370.672 242.975 371.599 249.905 372.294 256.86C372.629 260.08 373.015 260.57 376.285 260.596C394.259 260.699 412.258 260.853 430.206 259.411C432.369 259.23 433.27 258.457 433.373 256.242C433.785 248.462 434.454 240.657 433.63 232.877C433.527 231.847 433.476 230.816 434.377 230.018C440.042 231.486 445.347 233.856 450.316 236.947C451.836 239.549 451.784 242.486 451.861 245.319C452.273 257.041 451.321 268.684 450.316 280.328C450.007 283.909 449.673 287.49 449.415 291.07C449.261 293.209 449.312 295.398 447.922 297.253C425.828 297.279 403.735 297.33 381.615 297.356C373.092 297.356 364.543 297.305 356.02 297.253C354.552 295.682 354.732 293.621 354.475 291.74C353.059 281.075 351.488 270.436 351.745 259.591C351.848 255.521 351.179 251.425 351.256 247.303C351.256 245.86 351.359 244.418 352.157 243.156L352.183 243.13Z" fill="#007D71"/>
<path d="M233.862 140.035C233.836 143.822 233.965 147.583 233.218 151.344C232.651 154.101 231.261 155.492 228.48 155.621C226.6 155.698 224.823 155.234 223.021 154.925C203.528 151.525 184.113 151.499 164.8 156.394C157.822 158.171 155.865 156.497 155.916 149.258C155.916 148.227 155.916 147.223 155.891 146.192C156.895 138.799 158.672 131.586 160.294 124.321C160.706 122.518 161.813 121.385 163.693 120.715C184.319 113.425 205.253 113.038 226.42 117.881C229.51 118.603 231.029 120.406 231.415 123.626C232.085 129.113 233.038 134.574 233.887 140.035H233.862Z" fill="#CE9F0C"/>
<path d="M467.105 122.75C467.002 123.961 466.281 124.424 465.148 124.759C455.26 127.67 445.372 130.684 435.484 133.647C434.274 134.007 433.064 134.162 433.141 132.384C433.45 125.274 428.789 120.638 424.618 115.975C418.206 108.788 410.301 103.481 401.597 99.3334C400.722 98.9213 399.409 98.7924 399.383 97.5044C399.383 96.3709 400.593 96.2679 401.34 95.8042C406.001 92.919 409.116 88.6427 412 84.1346C412.541 83.2845 412.747 82.1768 413.983 81.9707C430.36 83.9285 443.956 91.2961 455.029 103.352C460.256 109.045 464.53 115.408 467.105 122.776V122.75Z" fill="#C3906B"/>
<path d="M434.402 229.992C435.355 239.111 434.789 248.205 434.351 257.324C434.248 259.333 433.784 260.158 431.57 260.312C413.004 261.703 394.438 261.497 375.847 261.471C371.701 261.471 371.701 261.291 371.367 257.144C370.723 249.106 369.899 241.069 369.178 233.032C375.589 229.812 382.439 228.086 389.417 226.669C390.241 226.952 390.37 227.622 390.396 228.369C390.782 236.999 392.198 238.725 400.619 240.966C401.211 241.121 401.829 241.224 402.241 241.739C407.236 241.842 411.974 240.786 416.558 238.854C418.618 237.978 419.442 236.432 419.442 234.268C419.442 231.615 419.519 228.961 419.545 226.308C424.592 227.184 429.639 227.983 434.402 229.992V229.992Z" fill="#0070A3"/>
<path d="M447.947 297.227C448.72 288.572 449.724 279.942 450.188 271.286C450.728 261.394 451.861 251.476 450.522 241.533C450.316 240.013 450.394 238.467 450.342 236.921C471.663 248.952 485.285 266.572 489.353 291.019C490.409 297.305 490.203 297.33 483.972 297.33C471.972 297.33 459.947 297.279 447.947 297.227Z" fill="#0070A3"/>
<path d="M352.182 243.13C352.413 252.764 352.388 262.399 353.006 271.982C353.443 278.989 354.731 285.97 355.632 292.951C355.812 294.368 355.915 295.81 356.07 297.227C346.027 297.253 335.959 297.227 325.917 297.382C323.676 297.408 323.676 296.351 323.779 294.754C324.475 284.244 327.384 274.403 332.612 265.284C337.607 256.577 344.019 249.055 352.207 243.104L352.182 243.13Z" fill="#0070A3"/>
<path d="M402.24 241.764C395.159 241.636 389.082 239.085 389.648 228.188C389.648 227.699 389.494 227.184 389.391 226.694C389.7 222.289 390.009 217.884 390.292 213.505C397.837 214.329 405.381 214.458 412.926 213.505C416.583 213.041 417.535 213.943 416.969 217.549C415.707 225.922 412.076 233.031 405.407 238.467C404.223 239.42 403.27 240.657 402.214 241.764H402.24Z" fill="#DA9864"/>
<path d="M208.962 241.687C208.962 246.273 208.962 250.832 208.962 255.418C197.941 253.048 188.233 248.488 181.332 239.111C180.019 237.334 179.504 235.221 178.937 233.16C178.525 231.692 178.705 230.121 180.843 230.121C189.752 230.121 198.662 230.121 207.571 230.172C207.906 230.172 208.241 230.559 208.601 230.765C208.756 234.397 208.06 238.081 208.987 241.687H208.962Z" fill="#C0916F"/>
<path d="M389.262 158.557C381.846 161.314 374.224 162.241 366.679 159.613C356.43 156.058 352.671 146.991 361.194 138.181C367.091 132.101 374.739 129.576 382.979 128.546C383.828 128.443 384.318 128.829 384.858 129.345C385.785 130.014 385.888 131.071 386.069 132.049C387.588 140.061 388.36 148.176 389.674 156.213C389.802 157.012 389.88 157.836 389.287 158.557H389.262Z" fill="#010101"/>
<path d="M446.093 163.194C446.093 162.679 446.093 162.164 446.093 161.648C446.041 158.48 447.303 156.574 449.569 156.342C451.938 156.11 453.715 157.965 454.101 161.159C455.697 173.73 446.633 185.838 433.964 188.079C419.235 190.681 405.124 179.088 405.176 164.456C405.176 162.473 405.639 160.773 407.545 159.819C409.734 158.712 412.103 159.819 412.798 162.37C413.261 164.147 413.21 166.028 413.673 167.831C415.811 176.461 423.458 181.355 432.677 180.145C440.531 179.114 446.35 171.772 446.093 163.194V163.194Z" fill="#714623"/>
<path d="M389.263 158.557C387.795 148.82 386.302 139.082 384.834 129.345C386.147 127.851 387.924 128.366 389.469 128.52C392.945 128.907 396.37 129.577 399.486 131.328C407.391 135.785 408.266 145.033 401.391 151.473C397.889 154.745 393.898 157.166 389.263 158.532V158.557Z" fill="#F2EFED"/>
<path d="M382.079 119.761C374.688 119.865 367.581 121.951 360.912 125.712C360.371 126.021 359.856 126.33 359.29 126.614C357.642 127.464 355.994 127.567 354.938 125.867C353.857 124.115 354.397 122.492 356.097 121.359C361.376 117.855 367.221 115.614 373.427 114.403C381.564 112.806 389.598 113.141 397.297 116.593C399.949 117.778 402.37 119.324 404.404 121.41C405.769 122.827 406.309 124.476 404.919 126.073C403.477 127.747 401.726 127.284 400.284 125.996C395.16 121.436 389.057 119.839 382.079 119.761V119.761Z" fill="#050606"/>
<path d="M470.76 137.949C470.709 135.132 471.953 134.171 474.494 135.064C479.386 136.764 481.086 140.396 479.258 145.213C478.176 148.047 476.554 150.52 474.108 152.349C472.614 153.483 471.378 153.431 471.378 151.061C471.378 148.794 471.378 146.553 471.378 144.286C471.378 142.045 470.297 139.881 470.76 137.923V137.949Z" fill="#DA9864"/>
<path d="M220.24 168.913C220.729 168.218 221.322 167.805 222.223 167.651C228.557 166.44 234.686 166.672 240.377 170.021C248.617 174.89 250.96 184.524 245.527 192.587C239.862 200.985 231.57 204.566 221.502 204.179C218.618 200.959 218.618 196.838 218.232 192.948C217.536 185.941 217.871 178.908 218.978 171.927C219.159 170.845 219.262 169.66 220.266 168.913H220.24Z" fill="#00903B"/>
<path d="M166.705 219.61C159.264 219.172 152.491 215.025 147.934 207.245C146.775 205.236 146.44 203.072 148.603 201.449C150.354 200.135 152.672 200.985 154.242 203.458C158.002 209.409 163.1 212.99 170.388 211.959C177.752 210.929 183.134 204.54 183.7 196.709C184.009 192.561 185.245 190.707 187.64 190.81C190.241 190.913 191.4 193.102 191.116 197.25C190.267 209.744 180.147 219.636 166.705 219.559V219.61Z" fill="#B33A26"/>
<path d="M220.239 168.913C218.978 177.749 218.076 186.611 219.415 195.524C219.853 198.486 220.651 201.32 221.475 204.179C211.072 204.102 202.832 196.812 202.807 187.744C202.807 178.393 212.514 170.021 219.699 168.63C219.853 168.604 220.059 168.81 220.214 168.913H220.239Z" fill="#E1E1E0"/>
<path d="M244.933 167.11C241.431 165.976 237.775 165.049 234.015 164.456C223.303 162.756 213.209 164.199 203.991 170.227C202.549 171.154 201.081 171.824 199.999 170.124C198.995 168.578 199.871 167.29 201.338 166.285C210.686 159.819 221.166 158.402 232.161 159.407C236.873 159.845 241.457 160.85 245.912 162.498C247.122 162.962 248.152 163.709 247.817 165.255C247.508 166.672 246.478 167.238 244.933 167.135V167.11Z" fill="#CE9F0D"/>
<path d="M124.371 173.988C128.465 173.936 130.551 177.208 128.543 180.634C126.637 183.88 124.577 187.048 122.517 190.217C121.152 192.329 119.144 192.51 117.419 190.603C114.947 187.847 113.711 184.73 115.127 181.046C116.595 177.182 120.843 174.013 124.397 173.962L124.371 173.988Z" fill="#C0916F"/>
<path d="M379.94 269.56C379.94 273.038 379.94 276.541 379.94 280.019C379.76 280.509 379.477 281.024 378.936 281.05C375.769 281.23 372.576 281.848 369.46 280.663C368.121 276.954 369.589 273.27 369.589 269.586C373.039 268.092 376.464 268.118 379.914 269.586L379.94 269.56Z" fill="#000202"/>
<path d="M369.46 280.663C372.936 280.277 376.516 281.436 379.94 280.019C384.138 281.436 388.489 280.843 392.661 280.483C397.682 280.045 402.678 280.225 407.699 280.045C409.759 278.602 412.257 279.143 414.523 278.757C416.377 278.448 418.102 278.061 419.595 276.902C419.982 279.066 421.63 278.911 423.2 278.808C424.076 278.241 425.029 277.881 426.084 277.932C429.638 278.19 433.14 277.34 436.693 277.494C437.723 278.525 440.35 276.464 440.17 278.447C439.989 280.457 437.44 279.22 435.998 279.401C413.235 281.925 390.395 282.08 367.529 281.874C366.447 281.874 365.263 282.312 364.336 281.436C364.233 281.333 364.31 280.792 364.465 280.637C365.572 279.71 366.756 280.122 367.967 280.457C368.456 280.586 368.971 280.611 369.486 280.663H369.46Z" fill="#004D46"/>
<path d="M407.288 275.331C407.288 273.038 406.309 270.153 409.013 269.071C412.232 267.783 416.069 267.422 419.081 269.251C421.322 270.617 420.111 273.476 419.493 275.743C415.373 277.108 411.279 277.623 407.288 275.357V275.331Z" fill="#B33A26"/>
<path d="M436.694 277.52C432.368 279.659 427.733 278.551 423.227 278.808C424.488 276.773 422.943 274.661 423.381 272.626C427.527 271.029 431.75 270.539 436.127 271.389C436.308 273.424 436.514 275.485 436.694 277.52V277.52Z" fill="#010201"/>
<path d="M436.127 271.389C431.878 271.827 427.681 272.651 423.381 272.626C423.613 266.778 424.9 265.722 431.235 266.211C431.441 266.211 431.621 266.314 431.827 266.34C434.814 266.684 436.247 268.375 436.127 271.415V271.389Z" fill="#B33A26"/>
<path d="M379.941 269.56C376.49 269.56 373.066 269.56 369.615 269.56C369.615 268.35 369.512 267.113 369.589 265.902C369.667 264.692 370.31 263.584 371.546 263.507C373.761 263.326 376.027 263.352 378.267 263.507C379.503 263.61 380.173 264.537 380.07 265.902C379.992 267.113 379.992 268.35 379.967 269.56H379.941Z" fill="#D5B300"/>
<path d="M407.288 275.33C411.331 276.206 415.425 275.537 419.494 275.717C419.545 276.103 419.571 276.515 419.622 276.902C419.622 278.551 418.67 279.349 417.15 279.375C414.009 279.452 410.919 280.405 407.726 280.045C406.876 278.525 407.211 276.902 407.288 275.305V275.33Z" fill="#020101"/>
<path d="M385.76 153.869C385.76 154.771 385.657 155.646 384.575 155.672C383.597 155.698 383.236 154.874 383.108 154.024C382.618 151.009 382.155 147.995 381.64 144.981C381.511 144.183 381.588 143.462 382.387 143.23C383.391 142.946 383.983 143.745 384.138 144.544C384.756 147.635 385.245 150.752 385.786 153.869H385.76Z" fill="#E1DFDE"/>
<path d="M382.979 137.974C382.876 138.876 382.464 139.52 381.46 139.494C380.146 139.494 379.657 138.567 379.709 137.485C379.709 136.635 380.275 135.862 381.228 135.862C382.516 135.862 382.799 136.918 383.005 137.974H382.979Z" fill="#DAD8D7"/>
<path d="M227.604 194.39C227.604 194.828 227.656 195.652 227.604 196.451C227.527 197.585 226.858 198.357 225.725 198.563C224.437 198.795 223.407 198.203 223.072 197.018C222.068 193.36 222.197 189.547 222.274 185.812C222.274 184.653 223.381 183.828 224.695 183.957C226.085 184.086 226.883 184.988 227.012 186.379C227.218 188.929 227.398 191.453 227.604 194.39Z" fill="#EEF4ED"/>
<path d="M222.48 177.697C222.532 176.1 223.253 174.658 225.261 174.606C227.45 174.555 227.939 176.229 227.836 178.007C227.733 179.887 227.45 181.999 224.927 181.896C222.558 181.793 222.609 179.707 222.48 177.697Z" fill="#ECF3EB"/>
</g>
<defs>
<clipPath id="clip0_5484_43232">
<rect width="595" height="297" fill="white"/>
</clipPath>
</defs>
</svg>
