<svg width="593" height="286" viewBox="0 0 593 286" fill="none" xmlns="http://www.w3.org/2000/svg">
<g clip-path="url(#clip0_5133_44144)">
<path d="M0.0494167 285.258C0.0494167 191.087 0.074125 96.8909 0 2.71957C0 0.494468 0.494167 0 2.71792 0C199.223 0.0494467 395.753 0.0494467 592.259 0.0494467C592.827 1.06311 592.531 2.17566 592.531 3.23876C592.531 96.1245 592.531 189.01 592.531 281.896C592.531 285.827 592.975 285.53 588.874 285.53C563.325 285.53 537.752 285.53 512.204 285.53C508.794 285.53 507.855 284.739 508.473 281.327C509.535 275.369 509.585 269.336 509.782 263.378C510.128 252.821 508.967 242.314 505.607 232.202C504.915 230.15 503.852 228.246 502.716 226.367C500.789 223.153 498.071 221.175 494.241 220.607C488.78 219.791 483.369 218.728 477.933 217.665C476.303 217.343 474.598 217.195 473.189 216.181C471.806 214.747 471.188 213.264 472.942 211.682C474.573 212.25 476.105 213.066 477.686 213.659C476.525 212.621 474.696 212.918 473.585 211.682C469.483 211.756 465.357 210.693 461.428 210.866C457.401 211.039 453.472 210.198 449.519 210.495C448.53 210.569 447.542 210.544 446.603 210.272C444.626 209.679 444.256 208.121 445.862 206.836C446.924 205.995 447.937 205.303 447.344 203.745C447.863 201.496 448.555 199.345 451.075 198.504C452.533 198.924 453.843 198.9 454.411 197.144C454.979 195.414 456.338 194.795 457.92 194.35C459.353 193.955 460.489 193.485 460.588 191.433C460.687 189.134 464.887 187.378 467.358 188.343C467.16 187.7 466.493 187.378 466.419 186.661C466.32 185.821 467.358 185.302 467.086 184.486C466.839 183.769 466.098 183.225 466.098 182.384C466.32 179.887 468.643 178.824 469.854 177.019C471.855 174.028 473.412 170.789 475.611 167.946C476.278 167.353 476.5 166.586 476.525 165.721C478.922 159.688 480.849 153.532 481.936 147.129C482.257 145.126 483.27 143.89 485.519 143.494C494.315 141.937 497.725 137.239 496.712 128.438C496.662 127.943 496.638 127.449 496.687 126.979C497.132 125.076 497.972 123.419 499.306 121.985C499.998 121.169 501.332 120.848 501.209 119.439C499.133 118.474 497.576 116.793 495.723 115.532C493.574 114.098 494.438 111.849 494.364 109.797C493.722 109.673 493.104 110.86 492.388 109.92C491.819 108.981 491.77 107.942 491.869 106.879C491.943 105.569 492.017 104.258 491.128 103.146C488.681 94.7647 484.827 87.1252 479.045 80.524C478.526 79.9307 478.057 79.3126 477.933 78.4967C477.637 76.3705 475.364 73.9723 473.56 73.9476C470.817 72.2664 468.173 70.4122 465.505 68.6074C459.847 64.7752 453.719 61.9815 447.221 59.9295C446.183 59.6081 445.219 59.0889 444.256 58.6191C443.44 58.0258 442.576 57.6302 441.538 57.7785C440.772 57.8033 440.055 57.6549 439.364 57.383C438.153 56.4682 436.794 56.5424 435.41 56.7649C432.569 56.7154 429.678 57.0863 426.861 56.4435C424.094 55.2815 421.055 55.8254 418.238 55.0837C417.299 54.515 416.36 54.07 415.199 54.342C411.69 54.3914 408.182 54.6634 404.673 53.897C402.721 53.4767 400.868 54.5892 398.891 54.4161C397.236 54.2925 395.556 54.5892 393.95 53.9959C392.121 52.0922 389.7 52.8091 387.525 52.6855C385.994 52.6113 384.412 52.735 383.004 52.735C385.969 53.0564 389.132 52.1169 392.195 53.2542C392.739 55.5534 390.836 55.2073 389.65 55.504C378.285 58.4213 368.154 63.7616 359.976 72.1181C354.392 77.8292 349.549 84.3314 346.485 91.8968C346.188 92.6385 345.744 93.2813 345.101 93.7758C343.989 94.74 342.21 93.578 341.222 94.9872C340.53 95.8278 338.801 95.1355 338.603 96.7178C338.455 97.6573 338.479 98.6463 337.862 99.4869C336.355 100.402 336.009 99.2891 335.638 98.1765C335.737 98.9924 335.885 99.6846 336.429 100.303C337.121 101.094 337.491 102.231 337.022 103.047C335.984 104.852 335.836 106.756 335.539 108.733C335.243 110.687 333.859 112.442 334.254 114.618C334.328 115.063 333.76 115.409 333.365 115.631C333.39 115.607 333.315 115.705 333.315 115.705L333.513 115.631C335.49 115.161 335.762 116.991 336.7 117.906C337.195 118.499 337.788 118.771 338.578 118.647C341.741 118.845 344.978 118.054 348.091 119.266C348.388 119.463 348.585 119.735 348.733 120.081C349.129 123.048 347.893 125.842 347.794 128.784C346.88 134.05 347.226 139.316 347.597 144.607C348.882 155.98 352.909 166.364 359.259 175.857C360.42 177.588 361.631 179.269 362.99 180.851C367.092 185.821 371.836 190.049 377.272 193.51C378.013 193.98 378.729 194.499 379.248 195.265C379.372 195.512 379.446 195.784 379.471 196.056C379.372 197.391 379.693 198.553 380.83 199.443C381.867 200.259 382.411 201.224 381.472 202.46C381.373 202.583 381.225 202.682 381.126 202.806C381.324 202.583 381.546 202.386 381.768 202.212C383.943 201.125 385.994 202.336 388.094 202.559C388.662 202.633 389.206 203.004 389.181 203.745C389.107 205.08 387.995 205.377 387.007 205.872C388.168 206.885 390.367 207.38 389.823 209.209C389.23 211.237 387.031 210.495 385.45 210.618C383.893 210.742 382.312 210.569 380.731 210.791C379.94 210.89 379.075 210.965 378.803 211.855C378.21 213.956 376.58 214.08 374.825 214.08C371.984 214.08 369.118 214.129 366.276 214.08C364.769 214.055 363.361 214.277 362.076 215.118C357.332 216.107 352.563 216.849 347.77 217.417C342.013 218.085 338.504 221.225 336.28 226.318C334.971 229.334 333.933 232.424 333.464 235.638C331.734 247.11 329.066 258.483 329.189 270.202C329.214 274.158 329.93 278.039 330.35 281.97C330.721 285.431 330.425 285.753 327.064 285.753C294.795 285.753 262.551 285.753 230.282 285.753C226.822 285.753 226.551 285.456 226.378 281.846C226.081 275.542 226.65 269.213 227.193 262.958C227.836 255.714 227.193 248.594 226.798 241.424C226.452 235.54 225.859 229.655 225.34 223.771C225.043 220.409 223.487 218.555 220.645 217.318C213.875 214.401 206.735 213.041 199.495 211.978C191.86 210.866 184.176 210.767 176.516 210.173C175.33 210.075 174.144 210.05 173.23 209.11C171.698 204.042 172.415 198.9 172.785 193.757C172.859 192.57 173.823 191.928 174.96 191.68C177.455 190.988 180 190.84 182.57 190.84C191.638 190.84 200.706 190.84 209.774 190.84C210.96 190.84 212.146 190.84 213.332 190.79C217.211 190.592 218.002 189.406 217.705 185.574C216.84 174.992 215.753 164.435 215.753 153.804C215.827 150.071 216.593 146.313 215.234 142.654C215.061 142.332 214.938 142.011 214.864 141.665C214.493 133.63 212.912 125.644 213.554 117.535C213.554 113.208 213.826 108.857 212.516 104.629C212.096 100.97 212.245 97.237 211.207 93.6521C211.009 91.8473 209.304 92.3171 208.267 91.7732C207.97 91.6495 207.698 91.4765 207.402 91.3281C203.3 90.6853 199.174 91.0067 195.072 91.0809C190.649 91.1551 186.4 89.7211 181.952 89.8695C180.074 89.9436 179.21 88.6333 179.21 86.7543C179.21 84.999 179.185 83.2189 179.21 81.4635C179.21 80.1285 179.061 78.917 177.925 78.0517C177.258 77.5078 176.492 77.4831 175.676 77.5078C166.015 77.8539 156.379 77.7797 146.718 77.6067C135.772 77.4336 124.876 78.472 113.955 78.2989C110.767 78.2495 110.224 78.8676 110.174 82.1558C110.026 93.0835 110.249 104.011 110.076 114.939C110.001 120.798 110.347 126.683 109.977 132.517C109.903 132.839 109.853 133.16 109.779 133.482C109.557 134.396 108.988 135.138 108.124 135.41C103.528 136.844 101.255 140.305 99.8464 144.582C98.3392 145.398 98.3639 146.486 99.1051 147.846C99.624 148.785 100.39 149.478 101.156 150.195C102.861 151.802 104.566 153.334 106.715 154.348C107.605 154.768 108.519 155.288 107.877 156.548C107.432 156.969 106.864 156.969 106.295 156.969C106.839 157.018 107.382 156.969 107.852 157.364C108.148 157.612 108.346 157.933 108.494 158.279C109.063 160.01 108.914 161.79 108.914 163.57C108.89 171.951 109.038 180.332 108.84 188.714C108.741 190.049 108.05 191.581 110.001 192.249C114.177 193.263 118.402 192.719 122.553 192.348C127.544 191.903 132.535 192.101 137.527 192.076C138.515 192.076 139.479 192.224 140.244 192.966C139.157 195.018 138.984 197.218 139.182 199.196C139.429 197.515 138.49 195.265 140.417 193.658C140.739 193.51 141.01 193.559 141.258 193.807C141.776 194.524 141.925 195.315 141.875 196.155C141.579 200.136 143.382 203.869 143.209 207.849C143.16 209.011 143.432 210.198 142.987 211.36C142.073 212.497 140.714 212.423 139.479 212.596C131.646 213.734 123.937 215.291 116.352 217.541C112.176 218.777 108.42 221.052 104.294 222.387C102.564 222.585 102.935 223.845 102.984 224.983C102.589 235.812 101.699 246.591 101.823 257.42C101.897 264.713 103.108 271.908 103.33 279.201C103.33 279.794 103.479 280.363 103.528 280.956C103.8 285.061 103.182 285.703 99.031 285.703C67.1078 285.703 35.1847 285.703 3.2615 285.703C2.19904 285.703 1.08717 285.975 0.074125 285.431L0.0494167 285.258Z" fill="#61BAAA"/>
<path d="M0.0498047 285.258C33.0848 285.258 66.1446 285.233 99.1796 285.308C101.947 285.308 102.738 284.591 102.466 281.846C101.379 270.375 100.242 258.903 100.736 247.357C101.082 239.495 101.552 231.633 101.972 223.771C102.268 222.733 102.515 221.694 103.775 221.398C109.285 219.123 114.696 216.676 120.503 215.167C127.742 213.288 135.031 211.978 142.419 211.014C143.012 211.014 143.284 211.459 143.432 211.929C145.038 217.195 149.263 218.678 154.082 219.123C158.727 219.543 163.248 218.703 167.646 217.195C169.005 216.725 170.364 216.231 171.452 215.192C172.44 214.253 172.514 212.992 172.613 211.756C172.687 210.717 172.588 209.605 173.576 208.888C186.474 209.308 199.372 209.827 211.948 213.066C215.778 214.055 219.485 215.291 223.018 217.121C225.217 218.258 226.205 219.865 226.353 222.51C226.848 231.337 227.663 240.163 228.404 248.989C229.047 256.579 228.132 264.144 227.787 271.71C227.614 275.443 227.663 279.201 227.441 282.934C227.317 284.714 227.959 285.456 229.813 285.308C231.468 285.184 233.173 285.283 234.853 285.283C265.343 285.283 295.833 285.233 326.323 285.357C329.264 285.357 329.955 284.714 329.412 281.871C328.745 278.509 328.399 275.072 328.201 271.66C327.633 261.351 330.03 251.362 331.438 241.251C332.303 235.094 333.563 229.111 336.454 223.524C338.628 219.321 341.717 217.071 346.51 216.503C351.847 215.884 357.11 214.5 362.521 214.203C367.685 212.819 372.923 213.363 378.137 213.709C379.1 214.5 379.076 215.588 379.1 216.676C379.1 218.629 379.347 220.631 379.298 222.56C379.199 226.145 379.52 229.383 382.51 231.856C383.276 232.499 383.696 233.636 383.35 234.575C381.719 238.729 383.251 242.734 383.968 246.714C385.302 254.354 386.883 261.944 387.501 269.707C387.798 273.613 387.896 277.545 388.218 279.893C387.872 270.301 386.612 259.249 384.289 248.346C383.671 245.454 383.4 242.511 382.683 239.644C382.362 238.407 382.683 237.245 383.103 236.182C383.918 234.031 383.424 232.325 381.794 230.892C379.965 229.26 379.273 227.282 379.422 224.834C379.57 221.892 378.977 218.95 379.15 216.008C379.199 215.044 378.927 214.005 379.916 213.313C384.734 212.646 389.527 212.497 394.345 213.288C395.853 214.574 395.408 216.255 395.309 217.912C395.111 221.299 394.222 224.661 394.691 228.073C394.889 229.284 395.729 230.273 395.877 231.51C396.124 238.061 395.902 244.638 396.001 251.189C396.001 252.45 395.927 253.736 396.396 254.972C396.717 256.727 396.52 258.508 396.594 260.263C397.409 266.468 397.928 272.699 398.398 278.929C398.521 280.734 398.472 282.638 399.831 284.146C400.152 284.22 400.473 284.269 400.819 284.245C408.231 284.294 415.644 284.245 423.032 284.245C425.28 284.096 424.465 282.094 425.058 280.907C426.096 273.638 427.43 266.419 428.22 259.126C428.912 252.821 429.555 246.492 430.37 240.188C430.889 236.133 431.433 232.054 431.507 227.925C432.1 224.142 431.877 220.31 432.124 216.503C431.976 215.069 432.075 213.684 433.088 212.497C433.335 212.25 433.632 212.052 433.978 211.929C436.473 211.434 438.969 211.187 441.514 211.583C442.823 211.78 444.034 212.077 444.454 213.56C444.652 217.195 444.627 220.829 444.404 224.463C444.281 226.664 443.49 227.999 441.514 228.741C439.932 229.334 439.24 230.446 439.957 231.955C442.255 236.8 440.945 241.424 439.66 246.245C436.77 257.296 435.485 268.644 434.546 280.017C434.521 280.462 434.398 280.882 434.274 281.624C435.509 269.584 436.745 257.84 439.562 246.344C439.735 245.676 439.883 245.009 440.13 244.366C441.588 240.558 441.934 236.8 440.229 232.944C439.315 230.892 439.982 229.284 442.131 228.419C443.688 227.801 444.256 226.763 444.38 225.032C444.627 221.892 444.553 218.728 444.602 215.588C444.602 214.426 444.479 213.19 445.516 212.3C447.542 211.657 449.618 212.003 451.669 212.077C457.871 212.25 463.973 213.165 470.076 214.154C471.262 214.352 472.325 214.846 473.313 215.489C480.182 217.269 487.175 218.505 494.167 219.395C499.183 220.038 502.197 222.758 504.446 226.812C508.448 234.031 509.807 242.042 510.524 250.052C511.463 260.56 511.191 271.092 509.585 281.55C509.017 285.209 509.214 285.308 512.995 285.308C538.247 285.308 563.499 285.233 588.751 285.407C591.913 285.407 592.383 284.418 592.383 281.599C592.309 187.774 592.333 93.9487 592.333 0.123535C593.569 0.667449 592.877 1.73055 592.877 2.49698C592.926 20.6439 592.902 38.7909 592.902 56.9379C592.902 132.369 592.902 207.825 592.951 283.256C592.951 285.481 592.457 285.975 590.233 285.975C394.42 285.926 198.581 285.926 2.76772 285.876C1.90293 285.876 0.766346 286.569 0.0992214 285.332L0.0498047 285.258Z" fill="white"/>
<path d="M99.4509 144.434C100.019 139.563 102.416 136.201 107.308 134.841C107.926 134.668 108.445 134.149 109.013 133.778C110.051 133.037 110.965 132.863 111.657 134.199C111.657 134.619 111.459 134.916 111.138 135.138C111.558 134.891 111.78 134.495 112.027 134.1C113.065 132.616 114.622 132.913 116.055 132.913C123.22 132.863 130.386 132.913 137.576 132.913C138.96 132.913 140.318 132.888 141.529 132.072C142.913 131.306 142.814 129.971 142.839 128.685C142.913 125.62 142.789 122.579 142.913 119.513C143.036 115.879 143.728 115.211 147.286 115.162C148.373 115.162 149.461 115.162 150.548 115.162C158.01 115.162 165.472 115.162 172.933 115.162C174.218 115.162 175.478 115.186 176.689 114.692C179.629 113.901 178.962 111.404 179.209 109.327C179.234 104.407 179.209 99.5116 179.209 94.6164C179.209 93.3555 179.012 92.0452 179.951 90.9573C182.199 89.5234 184.793 89.8201 187.141 90.1415C193.219 90.9573 199.297 90.3887 205.376 90.6112C206.438 90.6607 207.55 90.4629 208.513 91.1304L208.439 91.3035C209.428 92.1935 210.935 91.4024 211.899 92.3913C213.381 96.2234 212.961 100.253 213.307 104.234C213.702 108.486 214.271 112.714 214.098 117.016C213.949 119.29 214.567 121.713 212.813 123.666C212.566 123.815 212.17 123.864 212.047 124.062C211.058 125.644 211.701 130.787 213.035 132.171C214.765 135.187 214.592 138.525 214.666 141.838C213.579 142.802 212.986 143.766 213.554 145.423C214.271 147.475 213.702 149.7 213.85 151.851C213.678 149.527 214.048 147.178 213.579 144.854C213.381 143.865 213.603 142.901 214.394 142.135C214.789 141.764 215.16 141.764 215.555 142.135L215.728 142.061C216.494 144.755 216.47 147.549 216.519 150.318C216.519 151.357 216.297 152.444 216.741 153.458C217.087 164.361 217.779 175.215 218.891 186.068C219.311 190.271 218.199 191.631 213.9 191.68C203.473 191.755 193.021 191.829 182.594 191.928C180.148 191.928 177.702 192.101 175.256 192.175C164.953 194.375 154.427 192.842 144.074 194.029C142.962 194.153 141.925 193.955 140.887 193.584C140.714 193.584 140.541 193.634 140.393 193.683L140.343 193.609C139.849 192.941 139.132 193.09 138.465 193.065C130.534 192.842 122.627 193.312 114.721 193.732C112.719 193.831 110.841 193.732 109.038 192.917C107.555 192.101 109.186 190.296 107.926 189.431V157.488C107.531 157.092 107.531 156.697 107.901 156.277C107.926 154.941 106.765 155.312 106.073 154.941C103.973 153.829 102.021 152.494 100.76 150.368C99.4756 148.563 97.9437 146.832 99.525 144.434H99.4509Z" fill="#A47460"/>
<path d="M497.502 126.707C497.947 130.366 499.009 134.075 496.761 137.536C494.142 141.591 490.411 143.89 485.617 144.434C484.604 144.558 483.517 144.187 483.221 145.843C481.985 152.865 480.083 159.688 477.34 166.289C476.969 166.908 476.772 167.625 476.253 168.144C473.683 173.286 470.323 177.909 466.74 182.384C465.307 185.499 463.577 188.293 459.624 188.491C458.784 187.601 458.018 186.637 456.98 185.945C456.807 185.697 456.708 185.425 456.634 185.129C456.56 184.659 456.585 184.214 456.708 183.744C457.969 179.418 458.043 175.091 456.634 170.789C455.72 167.056 454.262 163.496 452.903 159.886C452.805 159.095 452.706 158.304 451.989 157.785C448.382 152.84 444.255 148.439 439.166 144.953C438.647 144.261 437.881 144.088 437.09 143.989C434.051 142.852 430.962 141.813 428.047 140.33C425.304 138.599 422.29 139.662 419.399 139.514C416.706 139.514 414.185 140.676 411.492 140.701C410.133 140.454 408.898 140.824 407.761 141.517C404.302 142.728 401.387 145.126 397.853 146.189C396.988 146.041 396.618 146.511 396.47 147.302C396.025 148.316 395.284 149.131 394.468 149.824C388.217 155.114 385.079 162.136 383.078 169.825C381.817 174.646 381.817 179.442 383.078 184.239C384.066 188.59 385.598 192.694 387.97 196.477C388.39 197.144 388.761 197.836 388.761 198.652C388.563 199.468 388.019 199.963 387.303 200.284C384.733 199.889 382.46 198.974 380.879 196.749C380.73 196.353 380.706 195.933 380.78 195.512C380.73 195.092 380.953 194.672 380.656 194.276C380.557 194.721 380.582 195.216 380.162 195.537C379.742 195.71 379.371 195.661 379.05 195.315C372.502 191.755 367.017 186.958 362.471 181.074C361.606 179.244 360.791 177.415 358.913 176.377C354.342 170.888 351.698 164.386 349.499 157.71C348.165 153.631 346.905 149.478 347.003 145.077C346.682 144.335 347.251 144.211 347.72 143.989C349.375 142.802 347.102 142.926 347.152 142.283C346.583 138.006 346.386 133.753 347.498 129.526C348.609 126.485 349.647 123.419 348.264 120.156C348.189 120.032 348.165 119.884 348.189 119.735C347.819 119.093 347.868 118.425 348.066 117.757C350.117 111.082 352.513 104.58 357.06 99.116C357.776 98.671 358.147 97.9788 358.345 97.1629C360.321 92.8363 364.077 90.0178 367.215 86.6554C370.6 83.0211 374.652 80.2768 378.828 77.6809C380.73 76.4941 382.732 75.8761 384.98 76.1975C397.26 80.1285 406.674 87.9658 414.408 98.0035C419.004 103.962 422.759 110.439 424.291 117.931C424.612 119.538 425.477 120.304 427.133 120.279C436.67 120.131 446.207 120.526 455.77 119.958C466.888 119.29 478.032 119.809 489.15 119.735C490.238 119.735 491.325 119.735 492.363 120.057C493.87 120.7 495.006 121.738 495.501 123.345C495.624 124.012 494.932 125.125 496.439 125.076C497.28 125.298 497.082 126.188 497.502 126.683V126.707Z" fill="#FAD6C7"/>
<path d="M492.734 120.724C481.615 120.798 470.472 120.872 459.353 120.971C448.63 121.07 437.881 121.144 427.158 121.342C424.737 121.392 423.699 120.971 423.18 118.178C421.574 109.376 416.756 102.107 411.023 95.4321C403.759 86.9767 395.037 80.5486 384.388 76.8896C383.177 76.3704 381.917 76.494 380.632 76.5929C378.952 76.7412 377.47 76.1232 376.728 74.5161C375.987 72.9338 377.148 71.8955 378.137 70.956C383.968 65.5168 390.763 61.6353 398.2 58.8415C406.279 55.8253 414.557 53.9216 423.254 55.3308C424.292 55.5039 425.404 54.7374 426.392 55.5286L435.707 55.7264C436.893 56.2703 438.326 55.9983 439.463 56.74L441.711 56.8884C442.403 57.5806 443.49 57.284 444.207 57.902C452.558 60.3249 460.44 63.7862 467.581 68.7803C469.706 70.2637 471.707 71.8707 473.783 73.4036C475.66 74.6892 477.192 76.321 478.551 78.101C481.665 82.3287 485.099 86.3586 487.397 91.1303C489.225 94.9129 491.153 98.6462 491.647 102.899C492.61 103.937 491.721 105.519 492.684 106.558L492.932 110.044C494.192 113.629 494.884 117.189 492.709 120.699L492.734 120.724Z" fill="#EF7F12"/>
<path d="M180.025 110.241C179.728 112.195 180.939 114.815 177.678 115.433C173.477 116.076 169.252 115.606 165.027 115.681C160.209 115.779 155.391 115.681 150.548 115.681C138.984 116.225 127.421 117.461 115.833 117.115C114.647 117.09 113.461 117.115 112.299 116.991C110.817 116.843 109.631 116.299 109.137 114.766C109.038 103.368 108.939 91.9462 108.89 80.5487C108.89 78.1258 109.903 76.8896 112.67 76.8649C133.82 76.6424 154.971 76.2963 176.121 75.9749C177.258 75.9749 178.246 76.1974 179.111 76.9391C179.654 77.4335 179.803 78.0516 179.803 78.7686C179.753 82.8974 179.852 87.0262 179.877 91.155C179.877 97.5089 179.531 103.863 180.05 110.192L180.025 110.241Z" fill="#060707"/>
<path d="M453.621 159.293C455.103 162.927 456.61 166.561 457.327 170.468C458.488 174.992 458.34 179.541 457.327 184.065L457.203 185.153C457.129 186.365 457.154 187.601 456.833 188.788C456.783 189.06 456.684 189.332 456.586 189.579C456.017 190.84 455.498 192.125 454.955 193.386C453.843 195.265 453.695 197.787 451.323 198.825C449.667 200.061 448.827 201.916 447.641 203.523C445.714 207.528 441.785 209.086 438.252 211.039C436.943 211.756 435.411 212.25 433.854 212.398L433.582 212.473C431.704 214.055 429.678 215.316 427.084 215.167C424.811 214.821 422.686 215.464 420.561 216.107C419.449 216.354 418.312 216.354 417.201 216.107C415.669 215.39 414.063 214.92 412.333 215.118C405.514 214.005 399.386 211.434 394.345 206.564C391.924 205.056 390.194 202.905 388.712 200.507C388.415 200.012 388.193 199.493 388.391 198.875C385.772 194.449 383.103 190.049 382.584 184.758C381.126 179.566 381.695 174.349 382.584 169.157C384.166 160.578 388.366 153.557 395.012 147.945C395.457 147.574 395.853 147.129 396.273 146.733C396.495 146.115 396.964 145.769 397.607 145.695C400.844 143.939 403.957 141.937 407.515 140.824C408.651 140.28 409.912 140.083 411.122 139.736L419.227 138.574C422.414 139.193 425.774 138.303 428.863 139.736L437.733 143.272C438.326 143.667 439.067 143.841 439.562 144.384C444.973 147.673 449.198 152.123 452.583 157.438C453.176 157.933 453.349 158.65 453.695 159.293H453.621Z" fill="#EF8012"/>
<path d="M426.416 55.5535C419.473 55.6524 412.505 55.5535 405.711 57.4325C395.654 60.2262 386.413 64.5776 378.704 71.7473C378.037 72.3654 376.777 72.8846 377.222 74.0219C377.741 75.2581 378.902 75.7773 380.335 75.802C381.743 75.8267 383.325 75.5053 384.387 76.8651C380.261 76.6673 377.543 79.461 374.578 81.5872C368.45 86.0375 363.039 91.2294 358.864 97.608C358.444 98.2014 358.32 98.9925 357.653 99.4128C353.848 104.704 351.105 110.489 349.351 116.769C349.054 117.782 348.56 118.746 348.165 119.735C344.656 119.661 341.123 119.587 337.614 119.513C336.774 118.549 336.75 117.362 336.7 116.2C337.046 110.266 339.146 104.802 341.271 99.3633C341.518 98.6711 341.444 97.8799 341.79 97.2124C342.605 95.9268 343.1 94.394 344.483 93.5286C348.511 84.5788 353.848 76.4695 361.063 69.7942C368.277 63.0942 376.555 58.1495 386.142 55.3557C388.118 54.7871 390.688 55.4794 392.195 53.3532C392.516 53.007 392.862 52.9329 393.258 53.2543C396.964 53.2543 400.719 52.4631 404.277 52.6609C408.033 52.8587 411.838 53.0317 415.619 53.3532C416.335 53.996 417.422 53.724 418.164 54.3174C420.585 54.3174 422.957 55.1827 425.403 54.7377C425.971 54.6388 426.317 54.9602 426.416 55.5288V55.5535Z" fill="#F49949"/>
<path d="M109.137 114.815C110.249 116.052 111.682 116.002 113.189 116.052C125.642 116.274 138.07 115.112 150.523 115.532C150.696 115.656 150.746 115.78 150.672 115.879C150.597 115.977 150.523 116.027 150.474 116.027C146.142 116.093 143.976 118.268 143.976 122.554C143.976 125.125 143.926 127.672 144.025 130.218C144.075 131.701 143.605 132.69 142.197 133.185C140.171 133.778 138.12 133.407 136.069 133.457C128.039 133.63 119.984 133.259 111.929 133.63C111.015 133.679 109.952 133.679 109.038 133.21C109.063 127.078 109.112 120.947 109.137 114.815V114.815Z" fill="#795B4F"/>
<path d="M140.887 193.535C142.938 192.447 145.285 192.57 147.434 192.496C155.934 192.175 164.458 192.546 172.958 191.804C173.699 191.73 174.49 192.027 175.256 192.125C173.922 192.348 173.576 193.213 173.576 194.449C173.601 199.27 173.601 204.092 173.601 208.913C173.205 210.272 173.304 211.632 173.452 213.017C173.601 214.401 173.452 215.588 171.92 216.132C170.907 216.478 169.87 216.379 168.857 216.132C160.653 213.313 153.191 209.135 146.644 203.449C144.272 201.397 141.999 199.172 141.084 195.982L140.887 193.559V193.535Z" fill="#795B4F"/>
<path d="M141.085 195.958C147.83 204.982 157.022 210.594 167.301 214.648C167.844 214.871 168.338 215.168 168.857 215.44C169.401 216.428 168.857 217.121 168.264 217.838C162.433 220.483 156.33 221.225 150.202 219.494C146.125 218.332 142.592 216.107 142.469 211.064C142.518 205.97 140.887 201.051 141.085 195.958Z" fill="#A37360"/>
<path d="M433.829 212.423C438.523 210.248 443.02 207.8 446.603 203.968C446.825 203.721 447.27 203.696 447.616 203.548C448.753 203.745 449.346 204.685 448.654 205.377C447.888 206.144 448.407 207.998 446.726 207.8C446.109 207.726 445.59 207.306 445.516 208.245C445.442 209.11 446.01 209.481 446.776 209.481C448.53 209.506 450.309 209.432 452.063 209.531C455.127 209.679 458.191 209.704 461.206 209.803C464.961 209.902 468.816 210.767 472.67 210.767C473.362 210.767 473.683 211.261 473.807 211.904C471.707 212.769 472.769 214.154 473.214 215.44C467.877 214.797 462.54 214.055 457.178 213.511C453.274 213.116 449.37 212.942 445.442 212.646C444.873 212.844 444.676 213.734 443.86 213.462C441.859 211.434 439.265 212.72 436.991 212.25C435.978 212.052 434.866 212.349 433.779 212.399L433.829 212.423Z" fill="#61BAAA"/>
<path d="M389.354 200.061C390.886 202.163 392.245 204.413 394.444 205.97C395.877 208.616 396.421 211.212 394.222 213.758C389.379 213.758 384.536 213.758 379.693 213.758C379.199 214.129 378.754 214.599 378.063 214.228C373.936 213.214 369.81 213.709 365.659 213.956C364.597 214.03 363.534 214.104 362.472 214.179C362.818 212.794 363.929 213.115 364.868 213.091C367.71 213.066 370.576 213.091 373.417 213.091C375.468 213.091 377.766 213.758 378.458 210.618C378.705 209.506 380.188 209.555 381.299 209.555C383.919 209.555 386.538 209.555 389.527 209.555C388.415 206.786 385.722 206.91 384.116 205.426C385.352 203.943 387.847 205.921 388.761 203.449C386.216 203.424 383.943 202.163 381.398 202.46C381.398 201.397 381.324 200.63 380.064 199.938C378.68 199.171 377.42 197.688 379.076 195.834C380.064 195.463 380.781 195.834 381.349 196.65C383.054 198.257 385.327 198.825 387.328 199.913C388.045 199.32 388.638 200.185 389.305 200.086L389.354 200.061Z" fill="#61BAAA"/>
<path d="M342.112 99.4621C340.234 104.877 338.282 110.266 337.516 115.977C336.775 116.62 337.343 117.881 336.355 118.4C334.946 117.98 335.119 115.236 332.871 116.027C332.278 112.491 335.737 109.5 334.23 105.841C333.983 105.247 334.106 104.605 334.773 104.357C337.22 103.517 336.651 102.058 335.688 100.476C335.638 100.402 335.515 100.303 335.539 100.229C335.688 98.7699 332.797 97.2123 334.823 96.2728C337.195 95.185 335.836 98.3248 336.824 99.116C337.047 99.2891 337.368 99.3385 337.615 99.4621C339.147 98.2754 339.172 97.0887 337.615 95.9267C338.257 93.8746 339.962 95.0614 341.173 94.74C341.272 94.8388 341.395 94.913 341.494 95.0119C342.408 96.3964 341.222 98.0776 342.112 99.4868V99.4621Z" fill="#61BAAA"/>
<path d="M451.298 198.85L454.461 193.015C455.449 191.977 456.289 190.766 457.327 189.777C458.019 189.134 458.71 188.565 459.699 188.442C462.787 187.304 464.467 184.486 466.741 182.384C466.765 183.423 467.754 183.447 468.347 183.843C468.89 184.214 469.286 185.03 468.816 185.326C464.715 187.848 469.384 187.626 469.78 188.936C469.508 189.801 468.297 189.628 467.951 189.332C465.283 187.057 463.825 189.801 461.898 190.617C461.527 190.766 461.033 190.963 461.231 191.384C463.084 195.265 459.377 194.499 457.821 195.24C456.487 195.883 455.054 195.735 455.523 198.034C455.77 199.295 453.793 199.122 452.953 199.839C452.286 200.408 451.471 199.839 451.323 198.85H451.298Z" fill="#61BAAA"/>
<path d="M492.734 120.724C493.302 117.189 492.931 113.629 492.956 110.069C493.277 109.574 493.574 109.08 493.87 108.585C494.266 107.893 494.908 107.547 495.6 107.942C496.415 108.437 495.575 108.882 495.427 109.352C494.241 113.184 497.058 117.164 501.307 117.609C502.889 117.782 501.975 118.895 502.246 119.562C501.9 119.859 501.53 120.131 501.085 120.279C500.369 120.428 499.627 120.428 498.886 120.353C497.898 120.403 497.255 119.414 496.193 119.364C496.712 120.378 497.626 120.749 498.515 121.095C498.911 121.169 499.281 121.342 499.603 121.59C499.677 121.689 499.751 121.812 499.85 121.911L497.478 126.658L496.316 125.446C495.699 125.001 495.377 124.334 495.155 123.642L492.709 120.7L492.734 120.724Z" fill="#61BAAA"/>
<path d="M179.605 91.0067C179.184 86.334 180 81.6365 179.11 76.9885C181.013 78.0269 179.901 79.807 180.074 81.2162C180.346 83.5402 179.184 86.4329 180.543 88.0893C182.001 89.8694 185.09 88.1882 187.264 88.8557C193.688 90.8831 200.261 89.5974 206.759 89.9683C207.599 90.0177 208.34 90.0919 208.563 91.0809C199.075 91.1056 189.611 91.155 180.123 91.1797C179.802 91.5012 179.654 91.427 179.629 90.982L179.605 91.0067Z" fill="#82C2B7"/>
<path d="M214.443 142.061C213.727 139.316 212.887 136.597 213.183 133.704C213.257 133.037 212.689 132.74 212.071 132.592C211.132 129.427 211.132 126.287 212.071 123.122C214.147 121.59 213.801 119.34 213.85 117.214C214.097 116.843 214.27 116.867 214.369 117.312C213.949 125.595 216.025 133.778 215.58 142.085H214.443V142.061Z" fill="#A47362"/>
<path d="M482.85 74.0712C480.948 74.5656 478.971 75.4557 478.18 72.5878C478.032 72.0439 477.217 71.2527 476.723 71.2774C473.782 71.4258 472.028 68.9534 469.014 68.3353C470.644 67.1733 471.707 67.4206 472.893 68.2859C474.054 69.1512 475.685 68.2117 476.846 68.9782C477.884 69.6704 478.749 70.6346 479.638 71.5494C480.577 72.5383 481.565 73.4036 482.85 74.0712V74.0712Z" fill="#61BAAA"/>
<path d="M109.038 133.234C120.083 133.234 131.127 133.234 142.172 133.209C141.282 134.1 140.146 133.778 139.083 133.778C131.498 133.803 123.937 133.852 116.352 133.778C114.523 133.778 112.892 134.05 111.361 134.99C111.138 133.457 109.927 133.902 108.989 133.803C108.939 133.605 108.939 133.432 109.013 133.234H109.038Z" fill="#9B705E"/>
<path d="M348.289 120.18C349.104 120.057 350.414 118.203 350.019 121.194C349.722 123.37 348.981 125.62 349.401 127.919C349.524 128.586 348.931 128.933 348.289 129.056C347.622 129.402 347.375 128.933 347.103 128.463C346.683 125.595 347.968 122.949 348.289 120.18V120.18Z" fill="#F6D6CB"/>
<path d="M393.283 53.2789L392.22 53.3778C389.379 53.3778 386.537 53.2789 383.696 53.3284C382.164 53.3284 381.126 52.8586 380.385 50.8313C384.585 52.8092 388.662 51.3505 392.591 52.0922C393.455 52.2653 393.48 52.6361 393.283 53.2789Z" fill="#61BAAA"/>
<path d="M395.655 50.9301C394.247 50.7818 392.764 51.2515 391.331 50.5593C396.915 47.2711 399.015 46.7766 402.647 48.1116C400.028 48.8781 397.138 48.3589 395.655 50.9301V50.9301Z" fill="#61BAAA"/>
<path d="M347.103 128.463L348.289 129.056C346.782 132.517 347.152 136.176 347.127 139.786C347.127 140.725 346.93 141.813 348.289 142.061C348.882 142.852 349.03 143.643 348.289 144.409C347.77 144.434 347.35 144.632 347.053 145.077C346.139 139.539 346.04 134.001 347.127 128.463H347.103Z" fill="#F5DAC3"/>
<path d="M501.036 108.882C501.653 111.107 499.331 111.799 498.763 113.381C498.565 113.95 498.293 113.554 498.145 113.48C497.478 113.159 497.379 112.491 497.7 111.997C498.367 110.983 498.738 109.97 498.763 108.758C498.787 107.918 499.084 106.78 500.146 106.83C501.456 106.904 500.887 108.14 501.036 108.906V108.882Z" fill="#61BAAA"/>
<path d="M140.393 193.633C139.429 196.724 140.071 199.987 139.676 203.152H138.811C138.811 200.185 138.762 197.194 138.861 194.227C138.861 193.584 139.75 193.609 140.343 193.584L140.393 193.658V193.633Z" fill="#81C3BD"/>
<path d="M478.575 78.1506C476.648 76.9144 475.116 75.3074 473.807 73.4531C474.474 73.0823 475.092 72.6125 475.808 72.4147C476.352 72.2664 477.216 72.5383 476.821 73.28C475.215 76.3457 478.081 75.4063 479.267 76.0491L478.6 78.1506H478.575Z" fill="#61BAAA"/>
<path d="M473.856 211.929C476.352 211.335 478.23 213.264 480.972 213.363C478.057 214.995 475.611 214.352 473.856 211.929Z" fill="#61BAAA"/>
<path d="M99.4511 144.434C99.2781 146.535 100.044 148.439 100.686 150.367C98.4133 149.774 98.0921 147.574 97.4003 145.917C96.7579 144.335 98.438 144.533 99.4511 144.459V144.434Z" fill="#84C2B9"/>
<path d="M209.329 89.3502C211.528 88.6085 212.986 88.8311 214.394 88.8805C215.21 88.8805 215.654 89.4491 215.457 90.265C215.259 91.1798 214.37 91.3776 213.875 90.9325C212.764 89.9436 211.306 90.1908 209.329 89.3502V89.3502Z" fill="#82C2B7"/>
<path d="M214.37 117.312C214.197 117.238 214.024 117.214 213.851 117.214C214.197 112.862 212.739 108.56 213.357 104.184C214.79 108.461 214.543 112.887 214.37 117.312Z" fill="#89B3A7"/>
<path d="M216.741 153.409C216.124 149.651 215.53 145.868 215.728 142.036C216.865 142.357 216.791 143.272 216.791 144.137C216.791 147.228 216.766 150.318 216.741 153.409V153.409Z" fill="#8CB3A9"/>
<path d="M344.508 93.5531C343.544 94.6163 343.964 96.4952 342.383 97.2122C341.395 96.6683 342.037 95.3332 341.148 94.7399C340.925 90.5369 343.643 94.6904 344.508 93.5531Z" fill="#61BAAA"/>
<path d="M428.838 51.4493C426.243 52.9574 424.934 51.0043 422.957 50.5098C425.453 48.7792 426.713 50.9548 428.838 51.4493Z" fill="#61BAAA"/>
<path d="M337.614 95.902C338.776 95.902 339.937 95.7784 339.986 97.5338C340.06 99.3633 338.973 99.5364 337.614 99.4622V95.9267V95.902Z" fill="#61BAAA"/>
<path d="M358.938 176.376C361.557 176.846 362.619 178.503 362.496 181.074C360.988 179.764 359.827 178.157 358.938 176.376Z" fill="#F5D5CA"/>
<path d="M463.676 195.661C464.393 196.773 464.739 197.812 463.676 198.628C463.454 198.801 462.688 198.751 462.638 198.628C462.12 197.367 463.651 196.823 463.676 195.661Z" fill="#61BAAA"/>
<path d="M361.681 63.1683C362.595 62.575 363.484 62.6491 364.399 63.1189C363.542 64.5034 362.636 64.5199 361.681 63.1683Z" fill="#83C3BF"/>
<path d="M96.8319 139.341C96.1153 139.267 96.0659 138.846 96.0906 138.476C96.14 137.487 96.8319 136.869 97.6225 136.597C98.1908 136.374 98.3391 137.066 98.2897 137.561C98.1908 138.55 97.2519 138.822 96.8319 139.366V139.341Z" fill="#85C2BB"/>
<path d="M381.422 203.201C381.373 204.042 381.175 204.685 380.261 204.685C379.545 204.685 379.149 204.289 379.174 203.597C379.174 202.46 380.063 202.534 380.854 202.41C381.867 202.262 381.274 202.979 381.447 203.226L381.422 203.201Z" fill="#61BAAA"/>
<path d="M107.852 156.252C107.852 156.647 107.852 157.068 107.877 157.463C106.419 157.463 104.986 157.463 103.528 157.463V156.598C104.887 155.955 106.419 156.425 107.852 156.252Z" fill="#87C2BF"/>
<path d="M498.614 113.629C499.726 113.777 500.813 113.406 502.592 114.469C500.665 114.791 499.528 115.483 498.614 113.629Z" fill="#61BAAA"/>
<path d="M492.709 106.607C490.905 105.791 491.745 104.234 491.671 102.948C493.475 103.764 492.585 105.322 492.709 106.607Z" fill="#C4A166"/>
<path d="M336.355 118.4C336.552 117.51 336.034 116.249 337.516 115.977C337.566 117.164 337.615 118.351 337.64 119.537C336.849 119.562 336.478 119.117 336.33 118.4H336.355Z" fill="#BCB586"/>
<path d="M107.877 189.406C110.15 189.95 108.124 191.903 108.988 192.892C106.962 192.249 108 190.642 107.877 189.406Z" fill="#A5786E"/>
<path d="M211.923 92.3666C210.737 92.0699 209.156 93.1083 208.464 91.2788C209.749 91.1799 211.132 90.8338 211.923 92.3666Z" fill="#A17A6F"/>
<path d="M439.487 56.7648C438.103 56.9379 436.819 56.6906 435.731 55.7511C437.016 55.9736 438.672 54.8364 439.487 56.7648Z" fill="#61BAAA"/>
<path d="M501.061 119.587H502.247C502.049 120.971 501.283 121.763 499.875 121.96C498.936 120.502 500.492 120.304 501.061 119.587V119.587Z" fill="#61BAAA"/>
<path d="M444.206 57.9269C443.218 58.0011 442.205 58.1 441.711 56.9133C442.675 56.9133 443.836 56.4682 444.206 57.9269Z" fill="#61BAAA"/>
<path d="M415.817 49.8176C416.188 49.8918 416.682 49.8918 416.558 50.4604C416.509 50.6335 416.138 50.8313 415.891 50.8807C415.496 50.9549 415.051 50.8807 415.002 50.411C414.952 49.8671 415.422 49.8671 415.817 49.8424V49.8176Z" fill="#61BAAA"/>
<path d="M395.654 50.9302C396.321 51.0785 397.211 50.6088 397.73 51.6966C396.692 52.1911 395.926 52.29 395.654 50.9302Z" fill="#61BAAA"/>
<path d="M418.189 54.342C417.2 54.3914 416.113 54.7128 415.644 53.3778C416.632 53.3283 417.768 52.8586 418.189 54.342Z" fill="#61BAAA"/>
<path d="M501.011 132.69C500.937 133.086 500.788 133.506 500.294 133.358C500.121 133.308 499.973 132.888 499.948 132.616C499.899 132.245 499.948 131.751 500.492 131.8C500.961 131.85 500.986 132.319 500.986 132.69H501.011Z" fill="#83C2C1"/>
<path d="M332.871 116.027C332.723 116.694 333.217 117.584 332.105 118.104C331.611 117.065 331.512 116.324 332.871 116.027Z" fill="#61BAAA"/>
<path d="M344.731 120.823C345.102 120.897 345.596 120.897 345.472 121.466C345.423 121.639 345.052 121.837 344.805 121.886C344.41 121.961 343.965 121.886 343.916 121.417C343.866 120.873 344.336 120.873 344.731 120.848V120.823Z" fill="#81C3C1"/>
<path d="M103.8 221.447C103.207 222.238 102.589 223.03 101.996 223.821C101.848 222.461 101.823 221.2 103.8 221.447Z" fill="#A8CAC6"/>
<path d="M381.398 196.6C380.632 196.328 379.891 196.056 379.125 195.784C379.125 195.611 379.125 195.463 379.075 195.29H380.236C380.632 194.944 381.027 194.944 381.422 195.29L381.373 196.575L381.398 196.6Z" fill="#EFD8CE"/>
<path d="M476.228 168.119C476.154 167.229 476.648 166.71 477.315 166.265C477.389 167.155 477.315 167.946 476.228 168.119Z" fill="#AAC4B6"/>
<path d="M423.97 285.135C415.915 285.135 407.861 285.135 399.806 285.135C398.694 284.195 399.064 282.761 398.62 281.599C398.15 279.621 398.323 277.569 398.027 275.591C397.953 274.578 398.447 273.589 398.274 272.575C398.15 271.858 397.557 271.314 397.483 270.548C397.557 268.842 397.014 267.185 397.162 265.48C397.063 263.848 397.557 262.117 396.47 260.609C396.347 260.312 396.297 259.991 396.272 259.67C396.371 257.148 396.075 254.626 395.951 252.104C395.951 251.214 395.951 250.349 395.951 249.459C395.951 244.539 395.951 239.619 395.951 234.699C395.976 233.784 395.951 232.869 396.47 232.078C396.692 231.806 396.989 231.608 397.335 231.51C398.323 231.262 399.287 231.534 400.201 231.856C409.689 235.193 419.053 234.378 428.393 231.188C429.95 230.916 430.691 231.683 430.815 233.166C430.864 234.031 430.864 234.897 430.864 235.762C430.913 240.682 429.505 245.478 429.357 250.374C429.209 251.437 428.294 252.302 428.492 253.489C428.492 254.28 428.492 255.046 428.492 255.813C428.64 257.247 428.27 258.631 428.146 260.04C427.85 261.029 427.108 261.895 427.306 263.032C427.306 263.823 427.306 264.589 427.306 265.381C427.43 267.161 426.935 268.916 426.935 270.696C426.417 271.66 425.947 272.649 426.12 273.811C425.725 275.517 426.046 277.322 425.527 279.003C424.959 279.226 424.687 279.399 424.736 280.215C424.86 281.871 425.058 283.626 423.946 285.135H423.97Z" fill="#5C7ABC"/>
<path d="M394.222 213.734C394.296 211.138 394.37 208.542 394.444 205.946C398.941 209.432 403.858 212.127 409.343 213.684C410.282 213.956 411.246 214.129 412.209 214.352C413.692 215.266 415.545 214.574 417.052 215.39H420.486C422.636 214.747 424.959 215.242 427.059 214.352C429.431 214.475 431.284 212.745 433.557 212.497C432.791 213.561 433.088 214.846 432.89 216.033C432.346 217.59 431.235 218.654 429.826 219.469C419.721 225.329 408.775 228.444 397.162 229.408C395.976 229.507 394.815 229.408 393.826 228.592C392.245 225.082 394.444 221.695 394.123 218.209C393.974 216.75 394.172 215.267 394.222 213.808V213.734Z" fill="#D6A18D"/>
<path d="M393.826 228.543C405.341 228.147 416.262 225.477 426.516 220.186C428.789 219.024 430.914 217.665 432.866 216.008C432.964 219.989 433.286 223.969 432.322 227.925C431.778 228.617 431.605 229.507 430.988 230.15C430.444 231.04 429.308 231.188 428.69 231.955C420.338 235.243 411.839 236.207 403.092 233.735C401.115 233.166 399.163 232.548 397.187 231.955C396.322 231.806 395.531 231.559 394.988 230.817C394.296 230.224 393.999 229.408 393.802 228.543H393.826Z" fill="#FAD5C7"/>
<path d="M443.885 213.462C444.305 212.992 444.601 212.275 445.466 212.646C445.293 216.873 445.417 221.101 444.997 225.329C444.799 227.282 444.107 228.469 442.353 229.062C440.525 229.705 440.03 230.842 440.796 232.573C442.526 236.43 442.081 240.113 440.895 244.143C438.128 253.538 436.892 263.23 435.904 272.971C435.534 276.679 435.113 280.363 434.718 284.072C434.644 284.665 434.644 285.308 433.779 285.209C432.914 285.085 433.112 284.492 433.186 283.898C434.619 269.114 436.028 254.305 440.401 239.99C441.216 237.295 439.857 234.971 439.116 232.622C438.375 230.323 438.647 228.84 441.019 228.048C443.094 227.356 443.737 225.996 443.687 223.821C443.588 220.384 443.317 216.923 443.91 213.511L443.885 213.462Z" fill="#908587"/>
<path d="M378.087 214.203C378.631 214.055 379.174 213.882 379.718 213.734C379.347 218.184 380.41 222.56 380.262 226.985C380.212 228.419 381.225 229.062 382.041 229.853C383.918 231.683 385.006 233.636 383.844 236.356C382.436 239.693 384.042 242.957 384.635 246.097C386.562 256.307 388.366 266.493 388.662 276.902C388.712 279.053 389.33 281.179 389.157 283.355C389.107 284.022 389.577 285.184 388.292 285.135C387.155 285.085 387.452 283.973 387.427 283.281C387.303 279.844 387.081 276.407 386.908 272.996C386.439 263.675 384.487 254.601 382.955 245.429C382.386 241.992 380.682 238.556 382.535 234.922C383.177 233.685 382.362 232.449 381.299 231.559C379.026 229.606 378.31 227.158 378.408 224.192C378.532 220.879 378.73 217.516 378.062 214.203H378.087Z" fill="#908587"/>
<path d="M430.616 229.606C431.036 228.889 431.481 228.197 432.321 227.925C431.704 234.452 431.16 240.979 430.443 247.481C429.603 254.947 428.615 262.389 427.602 269.856C427.058 273.811 426.342 277.742 425.699 281.698C424.217 281.13 424.711 280.165 425.181 279.201L425.329 273.49C425.996 272.798 425.65 271.685 426.367 271.018L426.49 265.232C427.231 264.416 426.96 263.403 427.034 262.463C427.034 261.746 427.034 261.029 427.553 260.436L427.701 255.763C428.442 254.947 428.17 253.934 428.244 252.994C428.244 252.277 428.244 251.56 428.739 250.942C428.393 245.775 430.616 240.83 430.098 235.638C430.789 234.847 430.542 233.883 430.616 232.968C430.616 231.856 430.518 230.768 430.666 229.655L430.616 229.606Z" fill="#918586"/>
<path d="M398.545 275.221C399.163 277.347 399.286 279.547 399.286 281.748C399.607 282.885 399.657 284.022 399.262 285.159C397.73 285.407 398.1 284.269 398.026 283.453C397.26 275.764 396.519 268.076 395.753 260.387C396.099 260.04 396.469 260.04 396.815 260.387L396.89 260.337C398.026 261.771 396.815 263.724 397.952 265.133L398.1 270.993C398.594 271.611 398.619 272.353 398.594 273.07C398.693 273.787 398.298 274.479 398.52 275.196L398.545 275.221Z" fill="#918586"/>
<path d="M395.012 230.793C395.902 230.892 396.618 231.262 397.211 231.93C397.113 231.979 397.014 232.029 396.915 232.054C396.001 232.894 396.273 234.031 396.273 235.07C396.248 239.248 396.273 243.402 396.273 247.58C396.273 248.346 396.223 249.137 396.816 249.78L396.767 252.129C395.877 252.945 396.767 254.428 395.63 255.17C394.469 252.327 395.136 249.335 395.062 246.418C394.914 241.201 395.037 235.985 395.062 230.793H395.012Z" fill="#8F858B"/>
<path d="M395.605 255.17C395.927 254.131 394.988 252.623 396.742 252.129C396.767 254.873 396.791 257.642 396.816 260.387H395.754C395.704 258.656 395.655 256.901 395.605 255.17Z" fill="#928682"/>
<path d="M425.206 279.176C425.354 280.017 425.033 280.932 425.725 281.673C424.761 282.638 426.392 284.912 423.971 285.159C424.02 283.28 424.094 281.426 424.144 279.547C424.144 278.311 424.761 279.028 425.206 279.201V279.176Z" fill="#938588"/>
<path d="M168.239 217.813C168.165 216.948 168.436 216.181 168.832 215.415L171.92 216.082C170.883 217.022 169.647 217.59 168.239 217.788V217.813Z" fill="#A1786A"/>
<path d="M399.262 285.159C399.262 284.022 399.262 282.885 399.286 281.748C400.201 282.761 399.657 284.022 399.805 285.135L399.534 285.209L399.262 285.159V285.159Z" fill="#7693CA"/>
<path d="M197.741 140.824C195.245 142.802 192.355 144.113 189.488 145.423C188.574 147.327 186.622 145.992 185.337 146.758L179.432 147.302C176.813 144.211 175.8 132.666 177.851 129.575C177.974 129.328 178.197 129.081 178.246 128.809C178.938 124.383 178.938 124.284 183.608 124.408C189.686 124.581 195.295 126.065 199.545 130.836C200.879 133.037 201.595 135.336 200.731 137.882V137.833C200.039 139.118 199.051 140.132 197.741 140.8V140.824Z" fill="#060708"/>
<path d="M132.783 160.974C132.511 159.243 132.561 157.611 133.87 156.252C134.858 155.485 135.847 155.683 136.835 156.227C137.033 156.276 137.23 156.301 137.428 156.326C138.046 156.499 138.194 157.142 138.589 157.537C140.344 162.185 143.235 165.721 148.028 167.476C151.537 168.762 155.144 168.119 158.727 167.995C159.419 167.328 160.53 167.674 161.198 166.957C162.211 166.982 162.729 166.092 163.495 165.721C164.36 164.138 166.09 163.545 167.226 162.284C168.635 161.839 169.252 160.554 170.018 159.49C172.094 156.499 173.749 156.252 176.492 158.65C177.307 159.837 177.357 160.999 176.443 162.161C173.008 166.957 169.178 171.308 163.446 173.509C162.705 173.805 161.988 174.028 161.198 174.127C160.11 174.893 158.677 174.498 157.541 175.165C152.031 176.055 146.718 174.77 141.974 172.421C138.194 170.542 135.451 166.957 133.821 162.828C133.648 162.111 133.327 161.468 132.758 160.999L132.783 160.974Z" fill="#E5697F"/>
<path d="M177.85 129.6C177.603 135.583 178.072 141.492 179.431 147.327C175.157 147.549 171.08 146.684 167.176 144.953C166.287 144.459 165.249 144.187 164.705 143.198C163.692 142.58 162.803 141.887 162.358 140.725C161.172 134.94 162.852 131.43 168.486 128.117C169.82 127.325 171.327 126.757 172.81 126.238C177.727 124.532 177.85 124.631 177.825 129.575L177.85 129.6Z" fill="#EFECEA"/>
<path d="M196.703 117.733C194.331 115.409 191.317 114.642 188.179 114.271C186.943 114.123 185.56 113.999 185.634 112.491C185.708 110.909 187.116 111.033 188.352 111.107C192.923 111.403 196.95 112.936 200.187 116.274C201.076 117.189 201.867 118.227 202.04 119.537C202.164 120.502 202.435 121.639 201.348 122.183C200.014 122.826 199.396 121.837 198.952 120.774C198.062 119.859 197.321 118.845 196.703 117.757V117.733Z" fill="#0C0A09"/>
<path d="M107.852 145.077C107.852 145.373 107.901 145.67 107.852 145.967C107.654 146.956 108.47 148.587 107.185 148.785C105.653 149.057 104.541 147.697 103.899 146.313C103.38 145.151 103.8 143.989 104.467 142.975C105.134 141.986 106.073 140.899 107.259 141.269C108.371 141.615 107.704 142.975 107.827 143.89C107.877 144.261 107.827 144.681 107.827 145.052L107.852 145.077Z" fill="#845440"/>
<path d="M214.221 142.061V156.252C212.912 155.065 213.357 153.953 213.258 152.988C212.961 150.219 213.777 147.401 212.269 144.657C211.405 143.099 212.343 141.789 214.221 142.061V142.061Z" fill="#A47362"/>
<path d="M150.474 116.027L150.523 115.557C159.591 115.532 168.634 115.508 177.702 115.458C176.813 116.348 175.676 116.002 174.638 116.027C166.583 116.052 158.553 116.027 150.498 116.027H150.474Z" fill="#92796F"/>
<path d="M212.072 123.122V132.591C210.886 132.394 210.985 131.479 210.886 130.589C210.639 128.413 211.306 126.238 210.268 124.012C209.675 122.702 211.429 123.394 212.072 123.098V123.122Z" fill="#A1755D"/>
<path d="M179.605 91.0068C179.778 91.0316 179.951 91.1057 180.099 91.2046C180.099 97.5585 180.05 103.912 180.05 110.266C179.135 107.3 179.753 104.259 179.654 101.267C179.531 97.8552 179.605 94.4434 179.605 91.0316V91.0068Z" fill="#8D7974"/>
<path d="M167.25 162.26C166.558 164.015 165.175 165.004 163.519 165.696C163.272 162.927 165.718 163.075 167.25 162.26Z" fill="#AA7166"/>
<path d="M200.755 137.907C201.002 135.435 200.36 133.135 199.569 130.861C201.719 132.913 201.991 135.286 200.755 137.907Z" fill="#916D5E"/>
<path d="M111.385 134.965C111.385 135.262 111.385 135.533 111.385 135.83C111.36 136.547 111.212 137.19 110.322 137.239C110.051 137.239 109.631 137.19 109.557 137.017C109.136 136.176 110.026 135.904 110.397 135.435C110.594 135.187 111.064 135.113 111.41 134.965H111.385Z" fill="#AB7062"/>
<path d="M176.467 162.161C176.467 160.999 176.492 159.812 176.516 158.65C178.345 159.837 178.419 161.023 176.467 162.161Z" fill="#AE7065"/>
<path d="M185.337 146.758C186.721 146.313 188.104 145.868 189.488 145.423L189.537 146.783C188.747 147.425 187.956 147.425 187.19 146.783H185.337V146.758Z" fill="#9B6D66"/>
<path d="M157.565 175.165C158.578 174.102 159.839 173.904 161.222 174.127C160.432 175.931 158.826 175.017 157.565 175.165Z" fill="#CC6C72"/>
<path d="M136.86 156.227H133.895C134.858 154.249 135.846 155.04 136.86 156.227Z" fill="#AB7165"/>
<path d="M197.741 140.824C198.754 139.835 199.743 138.846 200.756 137.857C200.509 139.613 199.496 140.602 197.741 140.824Z" fill="#916D5E"/>
<path d="M132.782 160.974C133.425 161.073 134.29 160.702 134.66 161.419C135.006 162.087 134.043 162.284 133.845 162.804C133.153 162.383 132.609 161.889 132.782 160.974V160.974Z" fill="#DE6A7C"/>
<path d="M196.703 117.733C197.84 118.45 198.729 119.364 198.952 120.749C197.568 120.205 196.604 119.364 196.703 117.733Z" fill="#9D7468"/>
<path d="M161.197 166.957C160.827 168.342 159.715 168.045 158.727 167.995C159.097 166.561 160.234 166.982 161.197 166.957Z" fill="#B8706A"/>
<path d="M138.589 157.537C137.897 157.414 137.477 157.043 137.428 156.326C137.576 155.93 137.576 155.189 138.194 155.535C138.96 155.955 138.54 156.845 138.589 157.537Z" fill="#AB7165"/>
<path d="M187.19 146.807H189.538C188.747 148.464 187.981 148.439 187.19 146.807Z" fill="#9A785B"/>
<path d="M208.217 116.447C208.291 116.719 208.439 117.065 208.439 117.387C208.439 117.807 208.143 118.202 207.723 117.906C207.5 117.757 207.476 117.214 207.476 116.867C207.476 116.571 207.673 116.324 208.242 116.447H208.217Z" fill="#A87066"/>
<path d="M162.383 140.75C163.173 141.566 163.939 142.407 164.73 143.223C163.248 143.05 162.432 142.283 162.383 140.75Z" fill="#A48275"/>
<path d="M164.706 143.222C165.645 143.643 166.534 144.162 167.177 144.978C165.991 144.904 164.904 144.681 164.706 143.222Z" fill="#A48275"/>
<path d="M384.956 118.326C385.104 118.425 385.252 118.474 385.425 118.474C386.043 118.746 386.093 119.29 386.043 119.859C385.45 120.922 386.216 121.367 386.982 121.812C389.65 125.891 390.54 130.465 390.639 135.262C390.392 137.833 390.96 140.453 390.268 143C389.725 144.038 388.736 144.137 387.723 144.137C384.808 143.569 381.769 144.236 378.878 143.297C378.482 143.173 378.186 143.544 377.889 143.791L374.801 142.753C375.147 140.997 376.876 140.602 377.988 139.588C378.902 138.822 379.792 139.069 381.052 139.934C380.261 138.896 379.619 138.253 379.446 137.19C378.482 137.956 378.729 139.193 377.84 139.736C376.58 140.701 375.147 140.75 374.06 139.786C372.281 138.204 370.526 138.525 368.648 139.316C368.031 139.316 367.487 139.143 367.067 138.673C366.82 138.278 366.771 137.882 366.845 137.437C367.289 136.325 367.611 135.187 367.586 133.976C367.685 133.16 367.413 132.517 366.771 131.998C366.202 131.256 366.079 130.539 366.894 129.872C367.462 129.402 368.451 129.501 368.698 128.561C368.871 127.424 368.5 126.435 367.932 125.496C369.241 122.949 371.811 121.985 374.109 120.774C374.751 120.427 374.949 119.785 375.567 119.537C376.58 118.647 377.988 118.969 379.125 118.45L382.065 118.326C383.053 117.98 384.042 117.98 385.005 118.326H384.956Z" fill="#038F93"/>
<path d="M389.798 134.915C389.601 130.317 388.217 126.015 386.389 121.837C385.425 121.54 385.623 120.798 385.746 120.081C385.647 119.538 385.524 119.018 385.4 118.474C389.823 116.719 393.9 118.474 397.878 119.983C399.632 120.65 401.584 121.367 402.746 123.147C403.512 124.482 404.253 125.842 405.019 127.177C406.378 129.501 406.057 131.973 405.118 134.396C401.807 139.588 396.914 142.283 390.96 143.297C389.601 141.072 390.688 138.599 390.243 136.275C390.144 135.806 389.996 135.36 389.774 134.94L389.798 134.915Z" fill="#FAF2EF"/>
<path d="M377.148 108.882C374.085 108.808 371.49 110.192 368.995 111.725C367.364 112.714 365.733 113.134 364.77 111.206C363.831 109.376 364.325 107.596 366.376 106.632C368.204 105.767 370.082 104.951 371.935 104.135C373.319 103.665 374.776 103.294 376.061 102.503C381.744 101.984 387.452 101.959 393.135 102.429C394 102.503 394.914 102.379 395.655 103.047C395.803 103.146 395.952 103.171 396.1 103.096C397.483 103.64 399.114 103.245 400.399 104.184C400.523 104.308 400.696 104.333 400.868 104.283C402.03 104.877 403.438 105.124 403.932 106.607C404.204 107.992 403.586 109.08 402.771 110.093C401.61 110.958 400.424 110.934 399.238 110.118C398.052 109.648 396.816 109.5 395.655 109.005L394.049 108.857C388.415 108.115 382.807 107.967 377.173 108.857L377.148 108.882Z" fill="#EF8013"/>
<path d="M485.074 134.52C485.593 132.443 485.741 129.822 485.716 127.177C485.716 126.163 486.235 125.595 487.446 125.842C490.016 126.386 492.215 129.105 492.19 131.8C492.165 134.495 489.62 137.511 487.125 137.858C484.629 138.204 485.099 136.448 485.074 134.495V134.52Z" fill="#D4A28E"/>
<path d="M377.889 139.687C377.444 141.294 376.11 142.011 374.8 142.753C372.404 142.308 370.575 140.701 368.524 139.539C368.351 139.415 368.302 139.316 368.376 139.217C368.45 139.118 368.5 139.069 368.549 139.069C370.279 136.869 372.107 136.547 374.034 138.797C375.122 140.058 376.53 139.564 377.864 139.662L377.889 139.687Z" fill="#078E95"/>
<path d="M367.116 137.388L367.314 138.5C367.19 139.44 366.894 140.305 366.054 140.898C365.139 140.8 364.546 142.382 363.286 141.146C361.656 139.514 363.459 138.599 363.682 137.338C363.039 136.547 363.015 135.756 363.682 134.99C363.805 134.1 363.311 132.938 364.744 132.641C364.868 132.69 364.991 132.74 365.09 132.789C365.559 133.259 365.782 133.877 366.103 134.446C366.498 135.41 367.24 136.25 367.116 137.388Z" fill="#F7D5CA"/>
<path d="M395.655 103.022C388.959 102.281 382.288 101.984 375.592 103.097C375.27 103.344 375.048 103.294 374.9 102.924C374.628 102.182 374.875 101.836 375.691 101.836C381.868 101.836 388.045 101.836 394.246 101.836C395.037 101.836 395.531 102.207 395.68 103.022H395.655Z" fill="#F9D1BA"/>
<path d="M377.148 108.882C382.782 107.102 388.391 107.3 394.024 108.882C388.391 108.882 382.782 108.882 377.148 108.882Z" fill="#F7CBB8"/>
<path d="M367.882 125.496C370.625 125.644 369.217 127.77 369.587 129.031C368.945 129.699 367.734 129.279 367.215 130.218C366.351 130.811 367.018 131.405 367.215 131.998C366.795 133.58 365.881 133.16 364.942 132.567L364.744 132.616C364.67 129.748 365.856 127.424 367.907 125.496H367.882Z" fill="#208D94"/>
<path d="M405.118 134.371C405.044 131.256 405.736 127.993 403.141 125.372C402.697 124.927 402.87 123.889 402.746 123.122C406.724 126.509 407.638 130.787 405.118 134.371Z" fill="#FDF0E9"/>
<path d="M376.703 149.156C377.37 149.057 378.235 149.156 378.68 148.81C380.335 147.45 381.324 148.167 382.238 149.626C379.668 150.837 375.814 150.615 374.331 149.156C375.122 148.513 375.912 148.513 376.703 149.156V149.156Z" fill="#FAD5CA"/>
<path d="M382.534 169.182C382.485 174.374 381.447 179.591 382.534 184.783C380.656 179.591 380.804 174.374 382.534 169.182Z" fill="#ED954F"/>
<path d="M377.89 143.791C377.988 143.173 377.964 141.937 378.754 142.431C381.522 144.088 384.759 142.481 387.501 143.915C387.6 144.162 387.526 144.335 387.254 144.409C384.116 144.533 380.978 144.508 377.89 143.816V143.791Z" fill="#078E95"/>
<path d="M457.302 184.066C457.524 179.541 458.018 174.992 457.302 170.468C459.056 175.017 459.056 179.541 457.302 184.066Z" fill="#F5C6A9"/>
<path d="M459.699 188.417C459.625 189.554 458.513 189.554 457.895 190.073C457.08 190.321 456.413 190.172 455.968 189.406L456.116 188.837C456.833 187.997 456.61 186.736 457.351 185.895C459.402 185.574 459.748 186.835 459.723 188.442L459.699 188.417Z" fill="#F9D3C9"/>
<path d="M373.146 116.027C373.195 116.769 373.59 117.164 374.332 117.214C374.208 118.104 374.653 119.562 373.17 119.414C371.293 119.241 370.675 117.782 370.774 116.002C371.564 115.384 372.355 115.384 373.146 116.002V116.027Z" fill="#F7D4CB"/>
<path d="M434.496 134.149C433.607 136.053 432.322 136.424 430.765 136.003C430.345 135.904 430.271 135.459 430.543 135.088C431.531 133.729 432.791 133.481 434.496 134.149Z" fill="#FAD4CC"/>
<path d="M387.254 144.384C387.353 144.236 387.427 144.063 387.501 143.89C388.391 144.063 389.082 143.593 389.749 143.124C390.565 140.627 389.478 138.006 390.342 135.509C391.578 138.006 390.614 140.676 390.985 143.247C390.219 145.225 388.563 144.187 387.254 144.36V144.384Z" fill="#D6E0DC"/>
<path d="M384.783 149.873C385.919 149.329 386.463 147.302 388.143 148.39C388.588 148.686 388.612 149.329 388.291 149.7C387.253 150.887 386.018 150.145 384.758 149.848L384.783 149.873Z" fill="#FAD5CA"/>
<path d="M366.029 140.874C366.103 139.885 365.757 138.698 367.289 138.476L368.574 139.094C368.574 139.242 368.55 139.39 368.55 139.539C368.031 140.552 367.858 142.234 366.054 140.874H366.029Z" fill="#F4D6C5"/>
<path d="M428.789 139.761C425.576 139.366 422.364 138.97 419.152 138.599C422.364 138.871 425.799 137.437 428.789 139.761Z" fill="#F8CDB8"/>
<path d="M409.021 97.8799C409.812 99.1408 411.492 99.6105 410.677 101.588C409.145 100.822 408.28 99.9319 409.021 97.8799Z" fill="#F9D5CD"/>
<path d="M403.908 106.558C402.895 105.791 401.881 105.025 400.844 104.234C402.079 103.616 403.043 105.47 404.352 104.555C404.698 104.308 404.995 104.778 405.044 105.198C405.118 106.039 404.698 106.459 403.908 106.533V106.558Z" fill="#F9D1BA"/>
<path d="M365.955 177.415C365.955 178.231 365.61 178.651 364.918 178.676C363.954 178.701 363.485 178.107 363.46 177.217C363.46 176.772 363.534 176.278 364.275 176.377C365.066 176.475 365.881 176.451 365.98 177.415H365.955Z" fill="#F6D8C7"/>
<path d="M381.422 195.315C381.027 195.315 380.631 195.315 380.236 195.315C380.162 195.043 380.137 194.696 379.964 194.499C379.273 193.806 379.248 193.188 380.063 192.595C380.36 192.373 380.607 191.927 381.052 192.274C381.57 192.669 381.397 193.312 381.422 193.881C381.447 194.35 381.422 194.845 381.422 195.315V195.315Z" fill="#F9D7C1"/>
<path d="M363.657 134.965V137.314C363.262 137.091 362.792 136.943 362.446 136.646C361.804 136.078 360.914 135.361 361.507 134.495C362.298 133.358 362.817 135.262 363.657 134.94V134.965Z" fill="#F8D8C3"/>
<path d="M361.384 175.215C361.384 174.498 361.779 174.127 362.471 174.127C363.385 174.127 363.533 174.77 363.657 175.511C363.78 176.302 363.558 176.525 362.767 176.401C362.026 176.278 361.408 176.129 361.384 175.215V175.215Z" fill="#F6D8C7"/>
<path d="M495.18 123.691C495.847 124.111 496.415 124.606 496.341 125.496C495.476 125.199 494.982 127.004 494.216 126.015C493.45 125.026 494.661 124.383 495.18 123.691V123.691Z" fill="#F1D8CA"/>
<path d="M348.264 144.434V142.085C350.092 142.679 349.647 144.088 349.079 145.126C348.783 145.67 348.412 144.879 348.264 144.434V144.434Z" fill="#FAD0CD"/>
<path d="M399.213 110.093H402.746C401.585 111.948 400.424 111.923 399.213 110.093Z" fill="#F8CDB7"/>
<path d="M400.399 104.16C398.842 104.259 397.434 103.863 396.1 103.072C397.557 103.344 399.411 102.058 400.399 104.16Z" fill="#F9D1BA"/>
<path d="M379.076 118.45C377.964 119.068 376.877 119.735 375.518 119.537C376.209 117.56 377.865 118.722 379.076 118.45Z" fill="#F7D4CB"/>
<path d="M376.703 149.156H374.331C375.122 147.5 375.912 147.5 376.703 149.156Z" fill="#F2D9C6"/>
<path d="M397.557 145.72C397.186 146.165 396.914 146.733 396.223 146.758C396.025 146.14 395.308 145.448 395.976 144.904C396.766 144.261 396.964 145.571 397.557 145.695V145.72Z" fill="#F9CFB5"/>
<path d="M457.326 185.87C457.203 186.958 457.4 188.194 456.091 188.812C455.992 187.453 456.486 186.266 457.178 185.153L457.326 185.87Z" fill="#F3CCB5"/>
<path d="M362.125 106.014C361.977 106.484 361.606 106.533 361.211 106.508C360.791 106.459 360.395 106.31 360.544 105.816C360.593 105.643 361.013 105.495 361.285 105.47C361.68 105.42 362.075 105.47 362.125 106.014Z" fill="#F8D5CE"/>
<path d="M395.655 109.005C397.014 108.783 398.2 109.228 399.237 110.093L398.027 110.192C397.607 110.489 397.236 110.464 396.841 110.143L395.63 109.03L395.655 109.005Z" fill="#F3BEA3"/>
<path d="M396.841 110.093C397.236 110.093 397.631 110.143 398.027 110.143C397.755 111.305 396.939 111.626 396.124 110.909C395.63 110.464 396.396 110.217 396.841 110.093V110.093Z" fill="#F6D9C2"/>
<path d="M386.265 113.728C386.66 113.802 387.08 113.95 386.932 114.445C386.883 114.618 386.463 114.766 386.191 114.791C385.82 114.84 385.326 114.791 385.376 114.247C385.425 113.777 385.87 113.752 386.265 113.752V113.728Z" fill="#F9D2CE"/>
<path d="M428.393 135.855C428.121 135.929 427.775 136.077 427.454 136.077C427.034 136.077 426.639 135.781 426.935 135.361C427.083 135.138 427.627 135.113 427.973 135.113C428.269 135.113 428.541 135.311 428.393 135.88V135.855Z" fill="#FAD7BE"/>
<path d="M373.145 116.027H370.773C371.564 114.395 372.355 114.37 373.145 116.027Z" fill="#F4DABD"/>
<path d="M374.331 116.027C375.122 114.37 375.912 114.37 376.703 116.027C375.912 116.67 375.122 116.67 374.331 116.027Z" fill="#FAD0CD"/>
<path d="M374.331 116.027H376.703C376.481 117.535 375.27 117.115 374.331 117.214V116.027Z" fill="#F8D9C0"/>
<path d="M411.072 139.737C410.01 140.552 408.799 140.899 407.465 140.824C408.453 139.761 409.713 139.564 411.072 139.737Z" fill="#F0B98B"/>
<path d="M374.9 102.899L375.591 103.072C374.504 103.838 373.294 104.209 371.935 104.11C372.725 103.245 373.788 103.047 374.875 102.899H374.9Z" fill="#F0B891"/>
<path d="M389.354 200.061C388.637 200.482 388.019 200.061 387.377 199.888C387.426 199.295 387.772 198.974 388.365 198.899L389.378 200.061H389.354Z" fill="#F8D3CC"/>
<path d="M384.956 118.326C383.968 118.326 382.979 118.326 382.016 118.326C383.004 117.733 383.992 117.387 384.956 118.326Z" fill="#698378"/>
<path d="M357.702 99.4374C357.752 98.5968 358.221 98.0529 358.913 97.6326C358.962 98.5473 358.913 99.3632 357.702 99.4374Z" fill="#F9CCAA"/>
<path d="M439.488 144.409C438.623 144.459 438.079 143.964 437.659 143.297C438.549 143.222 439.315 143.321 439.488 144.409Z" fill="#F3B484"/>
<path d="M453.62 159.293C453.002 158.823 452.459 158.304 452.508 157.438C453.645 157.587 453.719 158.378 453.62 159.293Z" fill="#F5BD8F"/>
<path d="M426.416 203.523C418.411 205.13 410.825 204.289 404.055 199.419C399.657 196.254 395.877 192.546 394.493 187.032C396.618 184.189 395.58 180.95 395.16 178.008C394.641 174.448 396.322 171.333 396.223 167.921C396.223 167.377 396.643 166.784 397.335 166.734C398.199 166.66 398.447 167.328 398.743 167.971C399.163 168.885 398.372 170.22 399.707 170.814C400.646 170.987 401.634 171.036 402.449 171.58C403.759 172.544 404.451 174.003 405.365 175.264C407.218 177.86 409.812 179.393 412.678 180.53C417.497 182.137 422.068 181.643 426.317 178.799C428.294 177.959 429.875 176.673 430.814 174.695C433.162 171.308 434.521 167.575 434.792 163.471C434.792 163.174 434.891 162.878 434.891 162.606C434.817 161.27 435.064 159.218 433.582 159.12C431.753 158.971 432.05 161.023 432.075 162.334C432.173 167.105 430.32 171.11 427.306 174.671C426.54 175.462 425.527 175.931 424.687 176.624C424.464 176.797 424.242 176.945 423.995 177.069C423.229 177.44 422.512 177.86 421.722 178.157C421.45 178.28 421.153 178.33 420.857 178.379C418.683 178.453 416.533 178.577 414.383 178.28C409.466 176.451 406.23 172.965 404.327 168.168C404.179 166.907 403.141 166.635 402.177 166.314C401.51 165.918 401.14 165.399 401.412 164.608C403.339 163.323 403.289 163.273 402.82 160.949C402.696 160.356 402.548 160.405 402.202 160.405C399.287 160.479 400.398 158.798 400.893 157.389C402.128 155.955 403.438 154.645 405.241 153.928C406.946 153.408 408.552 152.716 409.936 151.579C420.585 146.387 436.226 151.455 442.897 162.259C446.751 168.49 447.591 175.214 446.554 182.31C446.109 183.497 445.961 184.758 445.491 185.92C442.551 193.732 437.436 199.468 429.505 202.484C428.566 203.053 427.454 203.127 426.466 203.523H426.416Z" fill="#FAD6C7"/>
<path d="M399.213 171.654C398.645 173.113 398.249 172.693 398.052 171.531C397.829 170.171 398.274 168.688 397.533 166.982C396.545 168.243 396.915 169.33 396.841 170.319C396.742 171.753 397.063 173.237 395.952 174.522C395.581 174.943 395.457 176.105 395.754 176.451C397.409 178.429 395.877 180.777 396.717 182.928C397.385 184.659 396.569 186.389 394.469 187.032C392.665 183.67 392.048 179.961 392.245 176.253C392.641 168.91 395.037 162.334 400.819 157.364C400.943 159.466 402.178 159.664 403.883 159.293C404.056 159.243 404.649 159.985 404.649 160.381C404.649 161.271 403.389 160.751 403.142 161.617C403.438 162.507 405.563 162.136 404.945 163.669C404.303 165.276 402.697 164.287 401.56 164.559C399.633 166.537 400.745 169.553 399.188 171.654H399.213Z" fill="#FAD4C8"/>
<path d="M455.968 189.381C456.61 189.604 457.253 189.826 457.895 190.049C457.154 191.483 455.993 192.447 454.485 192.991C454.881 191.755 454.831 190.321 455.968 189.381Z" fill="#F3CCB5"/>
<path d="M427.059 214.327C425.132 216.379 422.685 215.143 420.486 215.365C422.562 214.302 424.786 214.104 427.059 214.327Z" fill="#E79166"/>
<path d="M409.862 151.579C409.096 153.977 407.168 154.002 405.167 153.928C406.551 152.766 407.934 151.653 409.862 151.579Z" fill="#F9CDB3"/>
<path d="M417.052 215.365C415.421 215.118 413.469 216.404 412.209 214.327C413.914 214.179 415.643 214.08 417.052 215.365Z" fill="#DF9772"/>
<path d="M445.442 185.895C445.269 184.535 445.491 183.299 446.504 182.285C446.702 183.645 446.381 184.857 445.442 185.895Z" fill="#F3BB95"/>
<path d="M426.416 203.523C427.256 202.682 428.269 202.311 429.455 202.484C428.689 203.572 427.602 203.671 426.416 203.523Z" fill="#F0B588"/>
<path d="M341.173 94.74C342.729 94.9872 342.235 96.2728 342.408 97.2123C342.309 97.954 342.21 98.7205 342.136 99.4622C340.332 98.1765 341.568 96.2976 341.197 94.74H341.173Z" fill="#61BAAA"/>
<path d="M379.52 212.151C381.274 211.632 383.127 212.003 384.931 211.879C386.265 211.805 387.649 212.127 388.859 211.088C389.477 210.544 390.416 210.52 390.737 211.583C391.034 212.596 390.366 213.041 389.428 213.041C386.117 213.041 382.83 213.041 379.52 213.041V212.151V212.151Z" fill="#61BAAA"/>
<path d="M498.688 121.936C494.809 120.823 494.587 120.477 495.624 117.584C496.934 117.782 497.305 119.488 498.688 119.587C499.331 120.378 499.331 121.169 498.688 121.961V121.936Z" fill="#61BAAA"/>
<path d="M498.688 121.936V119.562H501.06L499.874 121.936H498.688V121.936Z" fill="#7CC3B7"/>
<path d="M395.729 248.519C395.704 243.748 395.654 238.976 395.654 234.229C395.654 233.29 395.432 232.177 396.915 232.078C396.865 232.845 396.84 233.636 396.791 234.402C396.247 238.309 396.742 242.24 396.494 246.146C396.445 246.937 397.285 248.173 395.729 248.544V248.519Z" fill="#8084A7"/>
<path d="M395.729 248.519C396.865 245.182 395.951 241.745 396.248 238.358C396.371 237.023 395.803 235.589 396.791 234.378C396.791 239.52 396.791 244.638 396.791 249.78C396.075 249.657 395.679 249.261 395.729 248.519Z" fill="#7A7C9F"/>
<path d="M397.952 265.158C395.803 263.947 397.162 261.969 396.89 260.362C398.965 261.573 397.656 263.551 397.952 265.158Z" fill="#84819A"/>
<path d="M430.617 229.606C431.481 230.694 431.061 231.979 431.16 233.166C430.814 233.537 430.444 233.537 430.048 233.216C430.048 232.301 429.974 231.485 428.689 231.93C429.085 230.941 429.826 230.249 430.617 229.581V229.606Z" fill="#7E82B2"/>
<path d="M426.392 270.968C426.392 271.932 426.812 273.07 425.354 273.441C425.305 272.452 424.959 271.339 426.392 270.968Z" fill="#878296"/>
<path d="M427.553 262.735C427.553 263.699 427.973 264.861 426.491 265.183C426.491 264.392 426.491 263.576 426.466 262.785C426.812 262.414 427.182 262.414 427.553 262.735Z" fill="#7B81A5"/>
<path d="M427.553 262.735L426.466 262.785C426.515 261.845 426.12 260.708 427.553 260.387C427.553 261.178 427.553 261.969 427.553 262.76V262.735Z" fill="#7180B2"/>
<path d="M428.763 253.291C428.763 254.255 429.134 255.392 427.676 255.714C427.676 254.923 427.676 254.131 427.651 253.34C428.022 252.969 428.393 252.969 428.763 253.291V253.291Z" fill="#80819E"/>
<path d="M428.764 253.291L427.652 253.34C427.652 252.376 427.306 251.264 428.714 250.917C428.714 251.709 428.739 252.5 428.764 253.316V253.291Z" fill="#7780AB"/>
<path d="M430.049 233.215L431.161 233.166C431.111 234.106 431.507 235.243 430.074 235.589C430.074 234.798 430.074 234.007 430.049 233.24V233.215Z" fill="#838297"/>
<path d="M398.546 275.221C397.953 274.726 398.052 274.034 398.076 273.366C398.546 273.094 398.027 271.883 399.163 272.254C399.287 273.317 399.163 274.306 398.546 275.221Z" fill="#797DA2"/>
<path d="M399.163 272.278L398.076 273.391C398.076 272.6 398.076 271.809 398.101 271.018C398.817 271.141 399.188 271.537 399.163 272.278V272.278Z" fill="#7A83B0"/>
<path d="M183.014 141.838C183.113 142.53 183.237 143.025 183.212 143.494C183.212 143.865 183.113 144.286 182.619 144.36C182.125 144.434 181.952 144.162 181.878 143.717C181.483 141.22 181.063 138.748 180.692 136.25C180.618 135.707 180.618 134.965 181.483 135.014C182.174 135.064 182.52 135.608 182.446 136.25C182.174 138.228 183.533 140.033 183.039 141.838H183.014Z" fill="#EDEBEB"/>
<path d="M182.026 130.465C181.68 131.256 182.421 132.542 181.285 132.493C180.074 132.443 180.519 130.96 180.197 130.119C179.975 129.501 180.37 128.537 181.112 128.562C182.52 128.636 181.532 129.971 182.001 130.465H182.026Z" fill="#E9E5E6"/>
<path d="M388.489 137.61V140.824C387.92 141.838 387.229 142.11 386.314 141.195L386.215 140.8C386.215 139.193 386.215 137.586 385.499 136.077C384.436 135.212 385.425 134.025 385.005 133.061V130.342C387.55 130.762 386.883 133.185 387.92 134.396C388.563 135.385 387.92 136.572 388.464 137.586L388.489 137.61Z" fill="#F1EEEE"/>
<path d="M385.005 136.127V139.341C381.027 137.734 382.065 133.432 379.668 131.232C379.075 130.713 379.792 130.193 380.187 129.773C380.607 129.353 381.2 129.254 381.299 129.872C381.571 131.578 383.523 132.122 383.819 133.754C384.017 134.47 384.981 134.347 385.203 135.014C385.277 135.41 385.376 135.806 385.005 136.127V136.127Z" fill="#078E95"/>
<path d="M380.113 135.212C379.397 137.932 382.485 139.094 382.238 141.665C381.077 140.107 378.458 140.602 377.939 138.525C377.569 137.116 378.186 135.904 380.113 135.237V135.212Z" fill="#078E95"/>
<path d="M377.568 134.05C375.641 136.844 374.776 136.869 370.032 134.199C372.478 133.679 374.949 133.655 377.568 134.05Z" fill="#078E95"/>
<path d="M384.931 127.845H383.844C382.633 127.474 383.152 126.213 382.633 125.471V123.147C384.832 122.529 384.486 124.804 385.425 125.619C386.364 126.608 385.82 127.251 384.955 127.845H384.931Z" fill="#EEEEEF"/>
<path d="M367.117 137.388C366.03 136.671 365.511 135.682 365.437 134.396C366.153 132.888 367.216 132.962 368.402 133.778C368.105 135.039 369.242 136.794 367.092 137.388H367.117Z" fill="#078E95"/>
<path d="M368.401 133.778C367.363 133.729 366.35 133.828 365.436 134.396C364.942 133.877 364.818 133.259 364.942 132.567C365.733 132.542 366.622 132.789 367.215 131.998C369.192 131.528 368.08 133.135 368.401 133.778Z" fill="#009292"/>
<path d="M390.318 135.534C389.873 138.055 391.084 140.701 389.725 143.148C389.725 140.404 389.749 137.66 389.774 134.916L390.318 135.534Z" fill="#528387"/>
<path d="M367.215 130.218C366.918 127.622 368.203 128.24 369.587 129.031C369.365 130.539 368.154 130.119 367.215 130.218Z" fill="#009292"/>
<path d="M385.746 120.082C385.968 120.675 386.166 121.244 386.389 121.837C385.647 121.837 384.61 122.331 384.313 121.491C383.967 120.551 385.203 120.527 385.771 120.082H385.746Z" fill="#009291"/>
<path d="M384.956 134.965C384.264 134.816 383.375 135.36 382.979 134.347C382.955 134.273 383.498 133.976 383.795 133.778H384.931C385.351 134.174 385.327 134.569 384.956 134.965Z" fill="#009492"/>
<path d="M382.609 123.147C381.274 122.85 381.324 122.109 381.843 121.046C382.955 121.565 382.46 122.455 382.633 123.122L382.609 123.147Z" fill="#009291"/>
<path d="M386.191 142.06L384.017 141.566C384.634 140.577 385.499 140.997 386.216 140.824C386.487 141.245 386.512 141.64 386.166 142.06H386.191Z" fill="#078E95"/>
<path d="M388.489 137.61C387.575 136.671 387.995 135.509 387.946 134.421C389.206 135.286 388.267 136.547 388.489 137.61Z" fill="#598283"/>
<path d="M386.191 142.06C386.191 141.64 386.216 141.245 386.241 140.824C387.007 141.492 387.773 141.467 388.514 140.824C388.366 142.407 387.13 141.961 386.191 142.06Z" fill="#568684"/>
<path d="M382.633 125.471L383.844 127.82C382.262 127.647 382.682 126.435 382.633 125.471Z" fill="#5E858B"/>
<path d="M384.931 127.844C385.326 127.152 385.672 126.46 385.4 125.619C386.611 126.658 386.487 127.399 384.931 127.844Z" fill="#4C858B"/>
<path d="M384.955 134.965C384.955 134.569 384.955 134.198 384.931 133.803C384.955 133.58 385.005 133.333 385.03 133.111C385.993 134.001 385.573 135.088 385.524 136.127H385.005V134.965H384.955Z" fill="#637F85"/>
<path d="M394.469 127.869C396.693 129.575 397.088 131.875 396.693 134.52C395.21 134.569 395.902 132.418 394.469 132.616C393.777 131.034 393.234 129.452 394.469 127.894V127.869Z" fill="#F8F4EC"/>
<path d="M394.468 127.869V132.592C393.035 131.504 392.467 129.946 392.146 128.29C392.047 127.746 392.146 127.103 392.838 126.856C393.752 126.559 394.32 126.905 394.493 127.869H394.468Z" fill="#FCF0F2"/>
<path d="M426.391 174.498C429.776 170.517 431.58 165.993 431.135 160.702C431.012 159.095 431.432 157.587 433.334 157.513C435.163 157.438 435.509 158.947 435.583 160.381C435.904 165.82 434.99 170.937 431.308 175.239C429.974 175.981 429.579 178.033 427.602 177.885C426.836 177.588 426.293 177.069 426.021 176.278C425.873 175.61 426.07 175.042 426.391 174.473V174.498Z" fill="#BA5432"/>
<path d="M412.209 181.198C407.416 179.838 404.698 176.129 402.202 172.223C401.56 171.333 400.67 170.567 400.868 169.306C402.597 165.919 402.795 165.844 405.068 167.501C406.625 172.124 409.788 175.264 414.037 177.44C414.383 177.909 415.001 178.181 415.05 178.849C415.001 180.703 413.37 180.679 412.209 181.198V181.198Z" fill="#BA5434"/>
<path d="M412.209 181.198C412.135 179.516 414.63 180.357 414.605 178.725C415.717 177.761 417.051 178.255 418.312 178.157C419.448 178.058 420.708 178.429 421.672 177.464H421.647C422.463 177.143 423.5 177.192 424.044 176.302C424.859 175.882 425.675 175.684 426.465 176.352L427.651 177.538C427.528 178.132 427.256 178.676 427.034 179.244C422.487 182.805 417.521 183.25 412.209 181.173V181.198Z" fill="#BB5533"/>
<path d="M401.535 169.38L402.202 172.223C401.263 171.729 400.275 171.58 399.213 171.654C399.657 169.182 397.854 165.943 401.585 164.559C401.634 165.325 402.079 165.696 402.82 165.77C402.696 167.081 400.67 167.723 401.535 169.38V169.38Z" fill="#F5D4C2"/>
<path d="M421.672 177.464C419.695 180.011 416.928 178.157 414.605 178.725L414.037 177.44C416.582 177.86 419.127 177.736 421.672 177.44V177.464Z" fill="#BC5940"/>
<path d="M427.01 179.269C426.639 178.503 426.244 177.712 427.628 177.563C429.234 177.415 429.604 175.264 431.334 175.264C430.346 177.069 429.011 178.527 427.035 179.269H427.01Z" fill="#BC5940"/>
<path d="M399.633 176.08C398.793 174.448 400.004 173.88 400.819 173.163C400.868 173.113 401.387 173.385 401.412 173.583C401.708 175.042 400.671 175.511 399.608 176.105L399.633 176.08Z" fill="#FAD3CD"/>
<path d="M418.164 174.028C417.472 173.979 416.682 174.176 415.866 173.163C417.744 172.99 419.35 171.902 420.511 174.003C419.721 174.745 418.955 174.597 418.164 174.003V174.028Z" fill="#F6D9C5"/>
<path d="M401.536 169.38C400.424 167.625 401.585 166.685 402.82 165.77C403.809 166.067 404.995 166.067 405.094 167.501C402.82 166.067 402.153 167.649 401.56 169.38H401.536Z" fill="#BE5B40"/>
<path d="M418.164 174.028C418.955 174.028 419.745 174.028 420.511 174.028C420.956 174.176 421.747 174.547 421.203 174.844C420.141 175.412 418.757 175.857 418.164 174.053V174.028Z" fill="#FAD0CB"/>
<path d="M413.395 171.605C413.025 171.506 412.506 171.531 412.654 170.962C412.703 170.764 413.074 170.616 413.321 170.567C413.716 170.492 414.161 170.567 414.211 171.061C414.26 171.605 413.766 171.58 413.395 171.63V171.605Z" fill="#F6D9C1"/>
<path d="M426.441 176.377C425.626 176.377 424.835 176.352 424.02 176.327C424.613 175.462 425.527 174.992 426.392 174.498V176.377H426.441Z" fill="#BC5940"/>
<path d="M424.044 176.327C423.847 177.934 422.636 177.514 421.647 177.514C422.315 176.846 423.155 176.525 424.044 176.327Z" fill="#BC5940"/>
<path d="M433.013 161.468C433.631 162.754 433.754 164.04 433.013 165.844C432.198 164.015 432.247 162.754 433.013 161.468Z" fill="#BA5137"/>
</g>
<defs>
<clipPath id="clip0_5133_44144">
<rect width="593" height="286" fill="white"/>
</clipPath>
</defs>
</svg>
