<svg width="595" height="297" viewBox="0 0 595 297" fill="none" xmlns="http://www.w3.org/2000/svg">
<g clip-path="url(#clip0_5484_43239)">
<rect width="595" height="297" fill="#3377E8"/>
<g clip-path="url(#clip1_5484_43239)">
<path d="M-11.228 0.051537C-11.228 97.865 -11.228 195.704 -11.3053 293.518C-11.3053 296.815 -10.3783 297.459 -7.28825 297.433C25.9292 297.33 59.121 297.33 92.3385 297.433C95.0938 297.433 95.7375 296.815 95.5057 294.033C94.4242 281.977 93.2397 269.895 93.7032 257.762C94.0122 249.776 94.244 241.764 95.1453 233.804C95.274 232.722 95.4285 231.718 96.4843 231.228C102.33 228.498 108.098 225.587 114.561 224.53C115.874 224.273 117.393 224.84 118.397 223.448C123.032 222.186 127.719 221.156 132.508 220.821C135.624 219.404 136.5 222.135 137.993 223.732C138.225 223.912 138.405 224.118 138.585 224.35C139.615 225.973 141.135 227.003 142.86 227.776C143.117 227.879 143.349 228.008 143.607 228.163C144.791 229.167 146.156 228.884 147.495 228.626C154.319 228.678 160.988 228.085 167.142 224.762C167.554 224.556 167.992 224.427 168.43 224.35C169.228 224.17 170.052 224.144 170.979 223.603C170.515 222.908 169.563 222.882 169.151 222.264C168.327 220.95 168.455 219.662 169.228 218.399C169.691 218.219 170.155 217.884 170.618 217.884C185.94 218.219 201.184 219.018 215.861 224.041C217.303 224.53 218.694 225.252 220.11 225.818C223.123 227.081 224.462 228.961 224.719 232.542C225.44 241.842 226.135 251.141 226.805 260.441C227.371 268.246 226.29 276.026 226.161 283.832C226.11 287.309 225.981 290.813 225.724 294.29C225.543 296.635 226.213 297.459 228.736 297.408C238.289 297.253 247.843 297.33 257.422 297.33C281.472 297.33 305.523 297.33 329.573 297.33C331.376 297.33 332.663 297.717 332.071 294.728C329.65 282.853 330.577 270.951 332.921 259.127C333.487 256.242 333.951 253.331 334.466 250.446C335.058 249.853 335.805 250.368 336.423 250.111C335.805 250.008 335.084 250.368 334.491 249.827C334.491 249.621 334.491 249.415 334.491 249.183C334.8 248.539 335.109 247.895 335.573 247.329C337.041 245.551 338.431 243.799 336.629 241.352C336.294 240.914 336.346 239.961 336.835 239.317C337.685 232.156 342.938 226.797 350.92 225.329C360.757 223.552 370.67 222.367 380.713 222.701C381.511 222.727 382.386 222.47 383.004 223.217C384.446 226.643 383.751 230.275 383.931 233.804C384.06 236.509 384.447 238.802 386.558 240.657C387.64 241.61 388.67 242.949 388.103 244.443C386.507 248.694 388.026 252.738 388.747 256.809C390.189 264.975 391.862 273.115 392.506 281.41C392.789 285.3 392.97 289.19 393.227 293.054C393.124 278.654 390.163 264.614 387.614 250.549C387.331 248.952 387.279 247.457 387.846 246.041C388.721 243.799 388.155 242.022 386.455 240.528C384.524 238.828 383.829 236.741 383.983 234.191C384.215 230.533 383.005 226.849 384.163 223.217C386.867 222.006 389.7 222.959 392.481 222.727C394.798 222.521 397.115 222.598 399.459 222.547C400.926 223.345 400.54 224.685 400.514 225.947C400.489 226.256 400.411 226.566 400.308 226.875C399.819 228.549 400.154 230.275 400.025 231.95C399.716 233.933 399.227 235.917 399.948 237.9C400.308 239.034 401.03 240.038 401.184 241.249C401.416 248.05 401.21 254.877 401.287 261.677C401.287 262.991 401.21 264.331 401.699 265.593C402.034 267.422 401.828 269.277 401.905 271.106C402.755 277.572 403.296 284.063 403.785 290.555C403.914 292.436 403.862 294.445 405.278 295.991C405.613 296.068 405.948 296.119 406.308 296.094C414.033 296.145 421.758 296.094 429.458 296.094C431.801 295.939 430.951 293.853 431.569 292.616C432.65 285.042 434.041 277.52 434.865 269.895C435.586 263.326 436.256 256.731 437.105 250.162C437.646 245.912 438.238 241.687 438.29 237.385C438.908 233.444 438.676 229.425 438.933 225.458C438.805 223.989 438.856 222.573 439.964 221.388C440.427 221.027 440.916 220.924 441.457 221.156C444.83 221.465 448.307 220.512 451.577 221.954C452.246 226.359 451.886 230.739 451.577 235.144C451.448 236.87 450.161 237.591 448.822 238.132C447.096 238.828 446.247 239.987 447.071 241.713C449.491 246.685 448.023 251.399 446.762 256.319C443.775 267.963 442.358 279.89 441.406 291.843C441.38 292.255 441.251 292.642 441.2 293.028C442.281 281.797 443.594 270.616 445.937 259.591C446.427 257.272 446.864 254.928 447.74 252.764C449.079 249.467 448.744 246.376 447.483 243.233C446.478 240.734 446.865 238.802 449.62 237.771C451.062 237.23 451.525 236.226 451.654 234.706C451.911 231.64 451.886 228.549 451.912 225.484C451.912 224.247 451.783 222.985 452.735 221.98C458.066 221.285 463.293 222.238 468.546 222.753C481.035 223.964 493.189 227.107 505.6 228.858C508.458 229.27 510.467 230.919 512.167 233.392C521.076 246.479 521.127 261.368 521.05 276.258C521.024 282.312 520.535 288.366 519.608 294.368C519.248 296.712 520.02 297.279 522.338 297.279C550.173 297.201 578.035 297.227 605.871 297.227C605.742 297.408 606.18 297.871 605.562 297.845C604.738 297.82 603.914 297.845 603.09 297.845H-11.846C-11.846 199.465 -11.846 101.085 -11.8203 2.67913C-11.8203 1.77751 -12.5413 0.592512 -11.2538 -0.103027L-11.228 0.051537Z" fill="white"/>
<path d="M135.598 201.165C129.444 201.165 123.29 201.217 117.135 201.217C112.397 201.294 107.659 202.299 102.896 201.217C101.016 201.062 101.067 199.697 101.067 198.306C101.119 193.514 101.145 188.723 101.17 183.906C101.351 183.648 101.505 183.365 101.608 183.056C101.788 181.098 101.66 179.14 101.685 177.182C101.685 173.112 101.685 169.016 101.685 164.946C101.685 163.864 101.994 162.679 101.016 161.777C96.3293 160.798 93.8316 157.321 92.6471 153.25C91.5656 149.464 93.2393 146.012 96.1748 143.281C98.3121 143.564 100.089 144.26 100.346 146.785C100.166 147.866 99.2133 148.459 98.6468 149.309C97.5653 150.932 97.6426 152.323 99.5223 153.663C100.784 151.473 99.6768 149.103 100.475 147.068C101.325 145.496 98.5696 144.518 99.8056 142.895C100.346 142.431 101.016 142.328 101.685 142.199C102.535 141.89 102.303 141.22 102.2 140.628C102.278 140.241 102.329 139.829 102.406 139.443C104.904 138.361 107.556 138.696 110.157 138.541C114.612 138.283 119.118 139.108 123.547 137.949C127.101 137.433 130.68 137.717 134.259 137.665C136.602 137.665 137.555 136.635 137.555 134.342C137.555 131.277 137.504 128.211 137.581 125.146C137.684 120.663 138.328 120.071 142.808 120.019C143.735 120.019 144.636 120.019 145.563 120.019C153.366 120.019 161.168 120.019 168.97 120.019C170.412 120.019 171.854 119.968 173.167 119.272C175.047 118.499 175.227 117.005 174.996 115.228C174.3 109.638 174.712 104.022 174.687 98.4059C174.687 97.1952 174.687 95.9329 175.82 95.0828C185.759 95.0828 195.724 95.0828 205.664 95.0312C208.368 95.0312 209.501 96.0617 209.81 98.9211C210.505 105.001 211.149 111.029 210.968 117.16C211.792 119.349 211.355 121.642 211.612 123.857C211.715 124.167 211.87 124.45 212.076 124.708C212.127 128.778 212.153 132.822 212.204 136.892C212.642 138.258 212.797 139.675 212.745 141.091C212.745 141.838 212.745 142.611 213.26 143.23C213.312 146.475 213.363 149.747 213.415 152.993C213.827 155.131 214.033 157.321 213.981 159.485C213.981 160.283 213.981 161.082 214.522 161.726L214.676 172.7C215.32 174.529 215.217 176.409 215.217 178.29C215.166 178.702 215.14 179.14 215.088 179.552C215.14 180.608 215.037 181.716 215.732 182.643C215.784 185.503 215.835 188.337 215.912 191.196C216.427 193.308 216.891 195.421 215.912 197.533C215.861 198.306 215.5 198.77 214.676 198.744C211.689 199.877 208.574 199.002 205.535 199.285C204.402 199.362 203.192 199.053 202.162 199.8C191.45 199.852 180.738 199.877 170.052 199.929C166.447 201.835 162.455 201.32 158.644 201.603C152.104 202.067 145.538 201.294 138.997 202.144C137.735 202.299 136.551 202.041 135.572 201.14L135.598 201.165Z" fill="#A47460"/>
<path d="M372.5 195.009C369.255 192.278 366.242 189.341 363.976 185.735C364.105 184.215 365.084 184.524 366.036 184.782C367.015 185.426 367.504 186.868 368.998 186.739C369.564 186.868 370.105 187.126 370.594 187.306C371.006 187.538 370.62 186.714 370.697 187.126C369.487 187.126 368.843 185.683 367.556 185.864C367.144 185.709 366.809 185.426 366.5 185.142C366.191 184.833 365.908 184.524 365.753 184.112C365.47 183.7 365.753 182.18 364.543 183.494C364.002 184.035 363.461 184.472 362.689 183.88C357.925 178.084 355.118 171.283 352.904 164.25C348.964 151.705 348.707 139.005 351.591 126.227C351.668 125.944 351.539 125.609 351.513 125.326C351.359 125.068 351.23 124.785 351.153 124.501C352.93 116.799 355.814 109.586 360.809 103.352C361.556 102.888 361.916 102.167 362.097 101.343C364.697 96.0617 369.358 92.5324 373.324 88.4622C376.414 85.2937 380.225 83.0267 383.984 80.7083C385.606 79.7036 387.357 79.2399 389.263 79.446C399.254 82.4342 407.494 88.1789 414.627 95.5722C419.39 100.518 423.691 105.851 426.472 112.239C426.394 113.502 427.296 114.249 427.991 115.125C429.459 117.288 430.231 119.736 430.695 122.26C431.081 124.424 432.188 125.403 434.454 125.352C444.394 125.12 454.307 125.506 464.247 124.965C475.809 124.321 487.396 124.759 498.984 124.811C500.117 124.811 501.25 124.991 502.099 125.867C503.052 126.82 504.159 127.644 504.649 128.984C504.417 131.586 505.91 134.007 505.473 136.635C505.447 137.073 505.37 137.485 505.189 137.871C505.061 138.103 504.906 138.335 504.7 138.49C504.365 138.696 503.979 138.773 503.619 138.902C502.846 139.494 502.872 140.293 503.387 140.911C503.799 141.401 504.185 140.705 504.571 140.499C504.983 140.319 505.395 140.293 505.807 140.447C506.4 140.782 506.477 141.375 506.554 141.967C505.061 147.738 500.323 149.67 495.327 150.365C492.417 150.777 491.877 151.988 491.619 154.229C491.542 154.925 491.748 155.672 491.156 156.264C490.563 156.316 489.971 156.419 489.379 156.393C488.606 156.393 487.86 156.264 487.242 155.775C486.933 155.466 486.727 155.079 486.598 154.667C486.495 153.534 486.031 152.684 484.744 152.658C483.225 153.276 484.332 154.487 484.28 155.337C484.126 157.424 484.28 159.51 483.147 161.958C483.765 161.159 483.92 160.747 484.255 160.438C485.027 159.819 485.31 158.918 485.748 158.093C485.928 157.862 486.134 157.707 486.366 157.552C487.036 157.269 487.705 157.295 488.375 157.475C489.25 157.887 490.074 157.089 490.95 157.424C490.048 162.885 488.684 168.192 485.568 172.854C485.053 173.112 484.718 173.447 484.976 174.065C483.997 177.852 481.602 180.84 479.388 183.931C478.564 184.472 477.92 183.519 477.148 183.674C475.628 184.112 475.448 185.297 475.628 186.585C475.783 187.641 475.68 188.62 475.062 189.496C473.028 192.226 471.199 195.163 467.697 196.297C467.569 196.271 467.414 196.245 467.285 196.219C466.384 195.807 465.303 195.756 464.71 194.802C464.427 194.21 464.35 193.592 464.427 192.973C464.453 192.639 464.556 192.329 464.659 192.02C466.049 186.842 465.946 181.665 464.376 176.538C462.985 173.292 461.929 169.918 460.642 166.646C460.565 165.822 460.41 165.023 459.689 164.482C455.93 159.33 451.629 154.745 446.351 151.112C445.81 150.391 445.012 150.211 444.188 150.108C441.02 148.923 437.802 147.841 434.763 146.295C431.905 144.492 428.763 145.6 425.751 145.445C422.944 145.445 420.317 146.656 417.511 146.681C416.094 146.424 414.807 146.81 413.622 147.532C410.017 148.794 406.979 151.293 403.297 152.4C402.395 152.246 402.009 152.735 401.855 153.56C401.391 154.616 400.619 155.466 399.769 156.187C393.254 161.7 389.984 169.042 387.898 177.053C386.611 182.102 386.559 187.126 387.95 192.149C388.516 196.271 391.091 199.723 391.761 203.819C391.168 206.884 388.439 204.978 386.894 205.905C384.705 204.179 381.847 203.432 379.967 201.243C379.735 200.264 379.066 199.929 378.113 199.98C377.521 199.517 376.929 199.079 376.311 198.615C375.255 197.147 374.276 195.653 372.422 195.06L372.5 195.009Z" fill="#FAD6C7"/>
<path d="M502.202 125.841C494.708 125.893 487.215 125.944 479.722 126.021C464.323 126.176 448.925 126.279 433.526 126.511C431.209 126.537 429.999 126.202 429.818 123.445C429.612 120.406 428.454 117.495 426.934 114.79C426.11 114.172 426.265 113.09 425.698 112.368C417.664 97.0149 405.639 86.1697 389.314 80.1674C387.949 79.5234 386.507 79.8325 385.091 79.8325C383.443 79.8325 382.052 79.2143 381.305 77.6686C380.584 76.123 381.743 75.1183 382.67 74.2424C385.271 71.7694 388.052 69.4767 391.245 67.7765C392.352 67.2355 393.305 66.4112 394.361 65.7929C402.549 60.9499 411.484 58.4254 420.832 57.1888C422.866 56.9312 424.9 57.6525 426.96 57.3949C427.14 57.3949 427.346 57.4465 427.527 57.498C429.818 57.5753 432.136 57.1373 434.376 57.9617C436.616 58.3996 439.011 57.3949 441.148 58.7602C442.359 59.3527 443.723 58.6572 444.934 59.2239C449.054 59.9968 452.993 61.2848 456.985 62.6244C460.538 63.8093 464.066 64.9943 467.362 66.7203C481.112 73.9591 491.927 84.2118 498.288 98.5606C500.708 104.022 502.382 109.844 502.382 115.975C503 118.68 503.283 121.41 502.382 124.115C502.33 124.682 502.279 125.274 502.253 125.841H502.202Z" fill="#EF7F12"/>
<path d="M175.846 95.1084C176.078 102.244 175.486 109.38 176.284 116.49C176.516 118.525 175.975 119.89 173.864 120.38C169.486 121.049 165.083 120.56 160.68 120.637C155.658 120.74 150.637 120.637 145.59 120.637C134.028 121.127 122.518 122.441 110.931 122.131C109.489 122.106 108.047 122.209 106.63 122.003C104.931 121.771 103.077 121.848 102.433 119.71C102.382 107.68 102.33 95.6494 102.33 83.6191C102.33 81.3522 103.515 80.2187 105.935 80.2187C127.333 80.0384 148.706 79.8066 170.104 79.5747C173.675 79.5404 175.494 81.3264 175.563 84.9329C175.64 88.3076 175.743 91.708 175.846 95.0827V95.1084Z" fill="#060707"/>
<path d="M391.219 204.128C390.034 200.264 387.511 196.838 387.356 192.613C385.837 187.203 386.429 181.768 387.356 176.358C389.004 167.419 393.382 160.103 400.308 154.255C400.772 153.869 401.184 153.405 401.622 152.993C401.853 152.349 402.343 151.988 403.012 151.911C406.385 150.082 409.63 147.996 413.338 146.811C414.522 146.244 415.836 146.038 417.097 145.677C419.904 145.265 422.711 144.878 425.543 144.466C428.865 145.11 432.367 144.183 435.586 145.677C438.676 146.914 441.74 148.124 444.83 149.361C445.448 149.773 446.221 149.953 446.736 150.52C452.375 153.946 456.778 158.583 460.28 164.122C460.898 164.637 461.078 165.384 461.439 166.054C462.675 169.3 463.911 172.571 465.147 175.817C466.357 181.381 466.64 186.92 465.224 192.484C465.095 192.613 465.07 192.768 465.147 192.948C464.658 194.159 464.967 195.447 464.761 196.683C464.709 196.967 464.632 197.224 464.529 197.482C464.271 198.409 463.499 199.105 463.293 200.084C460.46 202.711 459.147 206.369 456.83 209.358C453.405 213.763 449.156 216.905 444.418 219.482C443.388 220.048 442.667 221.027 441.483 221.285C441.199 221.336 440.89 221.362 440.607 221.414C438.496 223.243 436.178 224.608 433.243 224.273C431.054 224.015 428.994 224.711 426.934 225.303C425.749 225.561 424.591 225.561 423.432 225.278C421.81 224.505 420.136 224.041 418.308 224.247C416.145 224.376 414.265 223.32 412.256 222.83C410.171 221.877 408.008 221.079 405.922 220.1C403.707 218.425 400.875 217.421 399.768 214.535C398.197 212.423 396.626 210.336 394.206 209.1C392.918 207.632 391.425 206.266 391.193 204.154L391.219 204.128Z" fill="#EF8012"/>
<path d="M426.96 57.395C423.69 58.7088 420.162 58.1421 416.738 58.7604C408.781 60.2545 401.391 63.1139 394.232 66.6689C393.048 66.7977 391.889 66.9265 391.76 68.4721C388.516 70.2239 385.735 72.5423 383.082 75.0669C382.49 75.6336 381.28 76.1231 381.846 77.2308C382.336 78.2355 383.263 78.9052 384.525 78.9825C386.173 79.1113 388.001 78.6476 389.34 80.116C385.039 79.9099 382.207 82.8209 379.117 85.0363C372.731 89.6732 367.092 95.083 362.74 101.729C362.302 102.347 362.173 103.172 361.478 103.61C357.538 109.071 354.732 115.099 352.852 121.539C352.543 122.621 352.054 123.626 351.667 124.682C349.298 124.965 346.93 125.275 344.535 125.197C343.093 124.862 342.114 123.497 340.569 123.342C340.26 119.35 341.651 115.717 342.655 111.905C343.968 106.881 345.874 102.167 347.934 97.4272C350.843 90.7036 354.783 84.5984 359.418 78.9568C365.701 71.3058 373.246 65.3551 382.31 61.1561C386.765 59.0952 391.219 57.3435 396.086 56.6995C397.013 56.004 398.558 57.0086 399.254 55.5918C401.133 55.5145 402.987 55.463 404.867 55.3857C408.137 54.5871 411.407 54.6129 414.678 55.3857C418.901 55.3084 422.995 56.107 427.038 57.292L426.96 57.395Z" fill="#F49949"/>
<path d="M106.013 121.075C119.197 121.153 132.355 120.071 145.565 120.457C145.745 120.586 145.797 120.715 145.719 120.818C145.642 120.921 145.565 120.972 145.513 120.972C140.999 121.041 138.741 123.299 138.741 127.747C138.741 130.298 138.638 132.874 138.793 135.424C138.947 138.052 137.685 138.876 135.316 138.876C131.325 138.825 127.308 138.876 123.317 138.876C116.364 139.263 109.412 139.469 102.434 138.876C102.434 134.548 102.434 130.246 102.434 125.918C102.614 125.661 102.871 125.403 102.82 125.146C102.459 122.647 103.798 121.539 106.013 121.101V121.075Z" fill="#795B4F"/>
<path d="M135.6 201.165C147.084 200.058 158.62 200.908 170.105 199.955C169.126 201.191 168.92 202.608 168.972 204.154C169.152 208.894 168.663 213.659 169.229 218.399C169.641 219.61 168.946 220.95 169.616 222.135C170.465 223.474 169.822 224.376 168.74 225.123C168.457 225.174 168.148 225.226 167.865 225.303C163.487 225.921 159.959 223.526 156.329 221.8C150.87 219.224 145.771 215.952 141.239 211.882C138.844 209.744 136.99 207.219 135.754 204.257C135.703 203.226 135.651 202.17 135.574 201.14L135.6 201.165Z" fill="#795B4F"/>
<path d="M135.78 204.283C143.968 215.128 155.169 221.388 167.89 225.303C161.401 229.322 154.242 230.043 146.826 229.477C145.487 229.296 144.071 229.425 143.093 228.24C141.11 227.467 139.333 226.385 138.174 224.531C136.784 223.294 136.32 221.774 136.938 219.971C137.041 214.716 136.938 209.461 135.754 204.283H135.78Z" fill="#A37360"/>
<path d="M452.762 222.135C453.045 226.668 452.71 231.151 452.376 235.659C452.221 237.642 450.959 238.287 449.543 238.827C447.792 239.523 447.251 240.579 447.998 242.305C449.801 246.401 449.363 250.368 448.127 254.645C445.269 264.434 443.955 274.558 442.977 284.707C442.616 288.468 442.153 292.229 441.741 295.965C441.689 296.557 441.818 297.304 440.891 297.279C440.041 297.279 440.016 296.738 440.093 296.016C441.432 282.415 442.616 268.787 446.17 255.546C447.457 250.78 448.281 246.298 446.093 241.661C445.191 239.755 446.093 238.544 447.921 237.9C450.393 237.05 451.114 235.376 451.062 232.748C450.985 229.219 450.341 225.586 451.577 222.083C451.964 222.083 452.35 222.083 452.736 222.083L452.762 222.135Z" fill="#908587"/>
<path d="M384.216 223.32C384.731 226.153 384.602 229.039 384.731 231.898C384.911 235.711 385.349 239.111 388.439 241.713C389.134 242.305 389.649 243.284 389.263 244.212C386.945 249.647 389.314 254.851 390.215 260.029C391.838 269.277 393.408 278.499 393.692 287.902C393.769 290.452 394.542 292.977 394.258 295.553C394.181 296.197 394.593 297.176 393.511 297.253C392.224 297.356 392.456 296.223 392.43 295.475C392.378 291.689 392.044 287.902 391.863 284.141C391.374 274.635 389.366 265.361 387.846 256.036C387.254 252.352 385.452 248.694 387.383 244.804C388.053 243.465 387.074 242.254 386.018 241.326C383.778 239.343 382.928 236.947 383.083 233.933C383.263 230.404 383.083 226.849 383.031 223.294C383.418 223.294 383.829 223.294 384.216 223.294V223.32Z" fill="#908587"/>
<path d="M399.793 214.535C401.931 216.21 404.068 217.884 406.179 219.559C405.021 221.671 402.677 223.217 403.089 226.076C401.931 228.394 401.416 228.42 399.742 226.359C399.665 225.123 399.587 223.886 399.484 222.65C399.613 222.057 399.716 221.465 399.845 220.872C400.772 220.048 400.566 219.249 399.845 218.451C399.845 217.137 399.819 215.849 399.793 214.535V214.535Z" fill="#D9A18E"/>
<path d="M336.835 239.394C336.861 239.91 336.732 240.502 336.964 240.889C339.076 244.727 338.998 245.216 335.445 248.488C335.136 248.771 334.801 248.977 334.492 249.235C334.904 245.86 335.368 242.511 336.835 239.369V239.394Z" fill="#FCFDFB"/>
<path d="M504.726 136.996C504.417 135.038 505.911 132.385 502.383 131.586C503.258 130.556 504.855 130.427 504.752 128.933C506.194 130.272 507.095 131.869 507.224 133.879C507.739 137.459 507.533 137.717 504.726 136.996Z" fill="#F8D6C4"/>
<path d="M391.22 204.128C392.482 205.622 393.924 207.013 394.233 209.074C391.606 208.456 389.392 206.91 386.945 205.828C387.563 205.184 387.254 202.582 389.263 204.849C389.881 205.571 390.705 204.772 391.22 204.128V204.128Z" fill="#F3D3C1"/>
<path d="M475.113 189.47C475.834 187.77 473.645 186.327 474.83 184.344C475.602 183.055 476.22 182.54 477.559 182.669C478.229 183.39 478.383 184.24 478.254 185.168C477.894 187.1 476.581 188.362 475.113 189.47Z" fill="#F7D4CC"/>
<path d="M102.434 138.85C109.386 138.85 116.339 138.85 123.317 138.85C121.643 140.035 119.738 139.237 117.961 139.443C113.841 139.881 109.644 138.644 105.549 140.19C104.7 140.499 103.618 139.16 102.434 139.443C102.434 139.237 102.434 139.031 102.434 138.825V138.85Z" fill="#9A705E"/>
<path d="M99.858 143.152C99.961 144.286 100.94 144.775 101.583 145.497C102.356 146.373 101.944 146.682 101.043 146.862C100.656 147.197 100.27 147.223 99.858 146.862C99.6263 144.647 96.9998 144.904 96.1758 143.281L96.253 143.178C96.7423 142.251 98.107 142.792 98.5705 141.787C98.7765 141.607 98.9825 141.427 99.1628 141.246C99.6263 140.886 99.8838 141.22 100.116 141.581C100.322 142.148 100.064 142.637 99.8323 143.152H99.858Z" fill="#A0765C"/>
<path d="M101.018 161.803C102.717 162.061 102.305 163.426 102.305 164.457C102.305 168.862 102.279 173.267 102.254 177.672C102.073 177.723 101.919 177.775 101.739 177.826C101.481 177.543 101.378 177.208 101.404 176.847C101.224 172.185 101.764 167.522 101.095 162.859C101.069 162.499 101.043 162.164 101.018 161.803V161.803Z" fill="#8178A1"/>
<path d="M106.013 121.075C103.721 121.874 103.979 124.579 102.434 125.918C102.434 123.858 102.434 121.797 102.434 119.736C103.412 120.766 104.648 121.127 106.013 121.101V121.075Z" fill="#755B56"/>
<path d="M202.24 199.826C202.704 198.357 203.862 198.821 204.867 198.847C208.06 199.414 211.33 198.46 214.523 199.362C210.454 200.495 206.334 199.8 202.24 199.826V199.826Z" fill="#6E678B"/>
<path d="M101.094 162.859C102.382 165.796 101.455 168.887 101.686 171.876C101.815 173.808 101.686 175.766 101.686 177.698C101.532 177.904 101.352 177.904 101.146 177.723C101.146 172.777 101.094 167.805 101.068 162.859H101.094Z" fill="#6E658E"/>
<path d="M136.937 219.971C137.349 221.491 137.761 223.036 138.173 224.556C136.989 224.505 136.113 223.629 135.933 222.804C135.469 220.666 133.976 220.898 132.482 220.847C133.847 219.996 135.469 220.409 136.937 219.971V219.971Z" fill="#FBF9F7"/>
<path d="M102.922 201.217C107.66 201.217 112.398 201.217 117.162 201.217C114.741 202.273 112.192 201.474 109.72 201.784C108.098 202.247 106.45 202.247 104.827 201.784C104.158 201.758 103.437 201.784 102.922 201.217Z" fill="#7679AF"/>
<path d="M372.5 195.008C375.049 194.828 376.362 195.987 376.388 198.563C374.38 198.177 373.659 196.348 372.5 195.008Z" fill="#E9D4D9"/>
<path d="M504.725 136.995C507.3 137.356 507.274 135.63 507.222 133.878C508.124 136.197 508.098 138.515 507.325 140.86C506.347 140.113 505.652 139.056 504.725 138.232C504.725 137.82 504.725 137.408 504.725 136.995Z" fill="#F9D4CE"/>
<path d="M463.938 197.353C463.912 197.172 463.938 196.992 464.041 196.812C464.298 196.296 464.659 195.91 465.277 195.91C466.075 195.987 466.899 195.549 467.646 196.168L467.749 196.271C467.337 198.357 465.431 198.847 463.963 199.8C463.345 199.001 463.603 198.177 463.912 197.327L463.938 197.353Z" fill="#FAD6C7"/>
<path d="M366.474 183.88C366.474 184.292 366.474 184.705 366.474 185.117C365.599 185.168 364.672 184.885 364.002 185.735C363.307 185.323 362.844 184.73 362.715 183.906C363.487 183.829 363.951 183.468 364.002 182.669C365.522 181.665 365.728 183.313 366.474 183.906V183.88Z" fill="#F3D2CF"/>
<path d="M99.8589 141.916C99.6272 141.71 99.3955 141.478 99.1895 141.272C100.039 140.241 101.224 140.859 102.228 140.653C104.03 141.426 104.133 142.25 102.331 143.178C101.739 142.302 100.451 142.843 99.8847 141.941L99.8589 141.916Z" fill="#9F775B"/>
<path d="M343.634 124.579C346.312 124.631 348.964 124.682 351.642 124.734C351.642 124.94 351.616 125.12 351.539 125.326C350.329 125.326 349.118 125.352 347.882 125.378C345.848 125.738 343.814 125.712 341.78 125.378C341.548 125.171 341.29 124.965 341.059 124.785C341.857 123.858 342.732 124.012 343.634 124.579V124.579Z" fill="#949DCF"/>
<path d="M504.725 138.232C506.836 137.872 507.325 139.134 507.325 140.86C507.3 141.349 507.197 141.787 506.63 141.968C506.141 141.684 505.961 141.22 505.935 140.705C505.343 139.984 503.746 139.752 504.699 138.232H504.725Z" fill="#F8D6C4"/>
<path d="M214.496 199.337C211.277 199.002 208.007 199.826 204.84 198.821C208.136 198.796 211.432 198.77 214.728 198.744C214.651 198.95 214.573 199.131 214.496 199.337Z" fill="#80799E"/>
<path d="M414.625 55.4886C411.355 55.4886 408.085 55.4886 404.814 55.4886C405.226 55.3083 405.638 55.1022 406.05 54.9219C408.497 54.484 410.917 54.5097 413.363 54.9219L414.625 55.4886Z" fill="#A7A1D0"/>
<path d="M491.027 157.372C490.1 157.037 490.1 160.36 488.658 157.965C487.705 156.445 489.302 156.239 489.894 155.492C490.46 155.517 490.924 155.724 491.233 156.239C491.156 156.625 491.078 156.986 491.027 157.372V157.372Z" fill="#F8D9C0"/>
<path d="M334.493 249.879C335.703 249.75 336.939 248.668 338.278 249.879C337.145 251.27 335.883 251.347 334.467 250.471C334.467 250.265 334.467 250.059 334.493 249.853V249.879Z" fill="#FCFDFB"/>
<path d="M343.632 124.579C342.783 124.656 341.933 124.707 341.057 124.785C340.439 124.501 340.388 124.012 340.542 123.419C342.062 122.492 343.375 122.157 343.632 124.579Z" fill="#F49753"/>
<path d="M502.33 124.09C502.33 121.385 502.33 118.654 502.33 115.949C502.51 116.387 502.716 116.799 502.897 117.237C503.283 119.298 503.309 121.359 502.897 123.394C502.716 123.626 502.51 123.858 502.33 124.09V124.09Z" fill="#948BBE"/>
<path d="M118.372 223.474C117.754 226.231 116.209 225.612 114.535 224.556C115.72 223.886 117.007 223.577 118.372 223.474Z" fill="#F8FBFA"/>
<path d="M214.574 161.752C213.828 161.597 213.467 161.159 213.57 160.386C214.059 158.789 213.235 157.089 214.034 155.518C215.192 157.527 214.446 159.665 214.549 161.752H214.574Z" fill="#686597"/>
<path d="M413.338 54.8961C410.892 54.8961 408.472 54.8961 406.025 54.8961C408.472 53.9687 410.892 54.0202 413.338 54.8961Z" fill="#615B94"/>
<path d="M399.846 218.451C400.927 218.683 401.88 219.352 401.751 220.408C401.674 221.156 400.541 220.795 399.846 220.872C399.846 220.074 399.846 219.249 399.846 218.451V218.451Z" fill="#D3A384"/>
<path d="M378.189 199.929C378.91 199.362 379.58 198.126 380.61 198.95C381.588 199.749 379.734 200.29 380.043 201.165C379.271 200.959 378.653 200.547 378.189 199.903V199.929Z" fill="#EFCFD0"/>
<path d="M214.059 155.491C213.802 157.114 214.471 158.815 213.57 160.36C213.544 157.913 213.493 155.44 213.467 152.993C214.162 153.714 213.956 154.641 214.059 155.491Z" fill="#7C78AA"/>
<path d="M211.562 124.347C210.455 122.029 211.098 119.581 211.021 117.186C211.227 117.623 211.407 118.087 211.613 118.525C212.025 120.457 212.103 122.415 211.562 124.347V124.347Z" fill="#8078A3"/>
<path d="M434.377 57.9359C432.085 57.8329 429.742 58.6314 427.527 57.4722C427.733 57.4207 427.939 57.3692 428.171 57.3176C429.819 56.9828 431.467 56.9312 433.089 57.3434L434.377 57.9101V57.9359Z" fill="#908AC0"/>
<path d="M101.172 177.749C101.352 177.749 101.532 177.749 101.713 177.723C102.202 179.758 102.202 181.793 101.713 183.828C101.532 183.854 101.352 183.906 101.198 183.957C101.198 181.896 101.198 179.836 101.198 177.749H101.172Z" fill="#786B84"/>
<path d="M485.052 174.04C483.893 173.833 483.327 173.061 484.022 172.159C484.717 171.257 485.026 172.7 485.644 172.829C485.541 173.292 485.644 173.833 485.052 174.04Z" fill="#FAD2CE"/>
<path d="M341.805 125.377C343.839 125.377 345.873 125.377 347.907 125.377C345.873 126.176 343.839 126.253 341.805 125.377Z" fill="#5B5D95"/>
<path d="M502.922 123.394C502.922 121.333 502.922 119.298 502.922 117.237C503.772 119.298 503.797 121.359 502.922 123.394Z" fill="#655A8C"/>
<path d="M211.561 124.347C211.561 122.415 211.586 120.457 211.612 118.525C212.745 120.508 212.076 122.647 212.153 124.733C211.973 124.604 211.767 124.476 211.586 124.347H211.561Z" fill="#6A6593"/>
<path d="M478.254 185.168C477.353 184.524 477.61 183.545 477.559 182.669C478.486 182.618 478.795 183.519 479.438 183.906C479.31 184.601 479.026 185.116 478.254 185.168V185.168Z" fill="#ECD8C8"/>
<path d="M215.99 197.533C215.99 195.421 215.99 193.309 215.99 191.196C216.17 191.634 216.351 192.098 216.557 192.536C217.02 194.159 216.994 195.782 216.557 197.405C216.376 197.456 216.196 197.482 216.016 197.508L215.99 197.533Z" fill="#7A79AC"/>
<path d="M213.339 143.23C212.566 143.075 212.232 142.637 212.335 141.864C212.85 140.731 212.077 139.391 212.85 138.284C213.88 139.855 213.365 141.555 213.339 143.23Z" fill="#70668B"/>
<path d="M215.269 178.316C214.11 176.538 214.78 174.606 214.728 172.726C214.908 173.189 215.114 173.653 215.295 174.117C215.707 175.533 215.732 176.925 215.295 178.341H215.269V178.316Z" fill="#7979AA"/>
<path d="M215.785 182.669C214.059 181.948 214.471 180.789 215.141 179.578C215.888 180.506 216.016 181.536 215.785 182.669Z" fill="#907477"/>
<path d="M216.531 197.43C216.531 195.807 216.531 194.184 216.531 192.562C217.458 194.184 217.484 195.807 216.531 197.43Z" fill="#656497"/>
<path d="M98.5968 141.813C98.5196 143.41 97.2835 143.101 96.2793 143.204C96.4338 141.71 97.6956 142.045 98.5968 141.813Z" fill="#A0716A"/>
<path d="M104.828 201.784C106.45 201.784 108.098 201.784 109.721 201.784C108.098 202.685 106.45 202.737 104.828 201.784Z" fill="#61649C"/>
<path d="M433.088 57.3692C431.44 57.3692 429.792 57.3692 428.17 57.3434C429.818 56.5191 431.466 56.4933 433.088 57.3692Z" fill="#645A90"/>
<path d="M212.822 138.284C212.642 139.469 213.157 140.757 212.307 141.864C212.307 140.216 212.282 138.541 212.256 136.893C212.436 137.356 212.642 137.82 212.822 138.284Z" fill="#82799D"/>
<path d="M215.295 178.341C215.295 176.925 215.295 175.534 215.295 174.117C216.145 175.534 216.196 176.925 215.295 178.341Z" fill="#686592"/>
<path d="M399.202 55.6689C398.816 57.9616 397.142 56.519 396.035 56.7767C397.091 56.416 398.147 56.0296 399.202 55.6689Z" fill="#D9A09F"/>
<path d="M444.908 59.198C443.621 59.2496 442.282 59.636 441.123 58.7343C442.411 58.6571 443.724 58.3737 444.908 59.198Z" fill="#A78DAE"/>
<path d="M463.937 197.353C463.937 198.177 463.962 199.002 463.988 199.826C463.756 199.929 463.55 200.006 463.319 200.109C462.289 198.924 463.319 198.177 463.937 197.353V197.353Z" fill="#F0CBB9"/>
<path d="M430.54 297.253C422.146 297.253 413.751 297.253 405.357 297.253C404.198 296.274 404.584 294.78 404.121 293.569C403.632 291.508 403.812 289.37 403.503 287.284C403.426 286.227 403.941 285.197 403.76 284.141C403.632 283.368 403.014 282.827 402.936 282.028C403.014 280.251 402.447 278.525 402.602 276.747C402.499 275.047 403.014 273.244 401.881 271.673C401.752 271.364 401.7 271.029 401.675 270.694C401.778 268.066 401.469 265.439 401.34 262.811C401.34 261.884 401.34 260.982 401.34 260.055C401.34 254.928 401.34 249.802 401.34 244.675C401.366 243.722 401.34 242.769 401.881 241.945C402.112 241.661 402.421 241.455 402.782 241.352C403.812 241.095 404.816 241.378 405.769 241.713C415.657 245.191 425.416 244.341 435.15 241.017C436.772 240.734 437.544 241.533 437.673 243.078C437.725 243.98 437.725 244.881 437.725 245.783C437.776 250.91 436.308 255.907 436.154 261.008C435.999 262.115 435.047 263.017 435.253 264.254C435.253 265.078 435.253 265.876 435.253 266.701C435.407 268.195 435.021 269.638 434.892 271.106C434.583 272.136 433.811 273.038 434.017 274.223C434.017 275.047 434.017 275.846 434.017 276.67C434.145 278.525 433.63 280.354 433.63 282.209C433.09 283.213 432.6 284.244 432.781 285.455C432.369 287.232 432.703 289.113 432.163 290.89C431.57 291.122 431.287 291.302 431.339 292.152C431.467 293.878 431.673 295.707 430.515 297.279L430.54 297.253Z" fill="#5C7ABC"/>
<path d="M399.743 226.359C400.618 226.308 402.06 228.935 402.266 225.818C402.936 225.045 403.94 224.659 404.661 223.964C406.798 221.8 409.373 221.594 412.154 222.109C414.369 221.825 416.12 223.577 418.309 223.448C419.854 224.401 421.785 223.68 423.356 224.53C424.54 224.53 425.725 224.53 426.935 224.53C428.969 223.886 431.209 224.401 433.192 223.474C435.896 223.654 438.11 221.954 440.634 221.439C439.681 222.547 440.067 223.938 439.836 225.174C439.295 226.823 438.136 227.905 436.668 228.755C426.137 234.86 414.729 238.106 402.653 239.111C401.417 239.214 400.206 239.111 399.176 238.261C397.889 236.123 398.687 234.036 399.357 231.924C399.897 230.12 399.125 228.214 399.794 226.411V226.359H399.743Z" fill="#D6A18D"/>
<path d="M399.125 238.261C410.996 237.849 422.3 235.118 432.909 229.682C435.381 228.42 437.699 226.978 439.81 225.174C439.965 229.322 440.273 233.495 439.269 237.591C438.703 238.312 438.523 239.24 437.879 239.909C437.312 240.837 436.128 240.991 435.484 241.79C426.78 245.216 417.922 246.221 408.807 243.645C406.747 243.052 404.713 242.408 402.653 241.79C401.751 241.635 400.927 241.378 400.361 240.605C399.64 239.987 399.331 239.137 399.125 238.235V238.261Z" fill="#FAD5C7"/>
<path d="M437.491 239.368C437.929 238.621 438.393 237.9 439.268 237.617C438.624 244.418 438.058 251.218 437.311 257.993C436.436 265.773 435.406 273.553 434.35 281.307C433.783 285.429 433.037 289.525 432.367 293.646C430.822 293.054 431.337 292.049 431.826 291.044C431.878 289.061 431.929 287.077 431.981 285.094C432.676 284.372 432.316 283.213 433.062 282.518C433.114 280.508 433.14 278.499 433.191 276.49C433.964 275.64 433.68 274.583 433.758 273.604C433.758 272.857 433.758 272.11 434.298 271.492C434.35 269.869 434.401 268.246 434.453 266.623C435.225 265.773 434.942 264.717 435.019 263.738C435.019 262.991 435.019 262.244 435.534 261.6C435.174 256.216 437.466 251.038 436.951 245.628C437.672 244.804 437.414 243.799 437.491 242.846C437.491 241.687 437.388 240.553 437.543 239.394L437.491 239.368Z" fill="#918586"/>
<path d="M404.043 286.923C404.686 289.138 404.815 291.431 404.815 293.724C405.15 294.909 405.201 296.094 404.789 297.279C403.193 297.537 403.579 296.352 403.502 295.501C402.704 287.49 401.931 279.478 401.133 271.441C401.493 271.08 401.88 271.08 402.24 271.441L402.317 271.389C403.502 272.883 402.24 274.919 403.425 276.413C403.476 278.448 403.528 280.483 403.579 282.518C404.094 283.162 404.12 283.935 404.094 284.682C404.197 285.429 403.785 286.15 404.017 286.897L404.043 286.923Z" fill="#918586"/>
<path d="M400.361 240.605C401.288 240.708 402.035 241.095 402.653 241.79C402.55 241.842 402.447 241.893 402.344 241.919C401.391 242.795 401.675 243.98 401.675 245.062C401.649 249.416 401.675 253.769 401.675 258.097C401.675 258.895 401.623 259.72 402.241 260.39C402.241 261.214 402.215 262.013 402.19 262.837C401.263 263.687 402.19 265.233 401.005 266.005C399.795 263.043 400.49 259.926 400.413 256.886C400.258 251.451 400.387 246.015 400.413 240.58L400.361 240.605Z" fill="#8F858B"/>
<path d="M400.979 266.031C401.313 264.949 400.335 263.378 402.163 262.862C402.189 265.722 402.214 268.607 402.24 271.466C401.88 271.466 401.494 271.466 401.133 271.466C401.082 269.663 401.03 267.834 400.979 266.031Z" fill="#928682"/>
<path d="M99.8828 232.928C101.222 231.357 101.943 229.502 104.698 229.811C103.333 231.434 102.664 233.341 99.8828 232.928Z" fill="#FEFDF8"/>
<path d="M431.827 291.019C431.981 291.895 431.646 292.874 432.367 293.621C431.363 294.625 433.063 296.995 430.539 297.253C430.591 295.295 430.668 293.363 430.719 291.405C430.719 290.117 431.363 290.864 431.827 291.045V291.019Z" fill="#938588"/>
<path d="M168.738 225.123C169.253 224.196 169.588 223.191 169.614 222.135C170.103 222.186 170.592 222.367 171.082 222.289C171.906 222.161 172.498 222.264 172.627 223.217C172.73 224.093 172.215 224.505 171.416 224.659C170.541 224.84 169.64 224.968 168.764 225.123H168.738Z" fill="#FEFCF8"/>
<path d="M138.174 224.53C139.822 225.767 141.47 227.003 143.092 228.24C140.466 228.317 138.972 226.849 138.174 224.53Z" fill="#FBF9F7"/>
<path d="M122.621 224.994C121.05 225.999 120.02 225.947 118.732 225.484C119.917 224.273 120.973 224.505 122.621 224.994Z" fill="#F8FBFA"/>
<path d="M143.092 228.24C144.328 228.652 145.59 229.064 146.826 229.476C145.229 230.146 143.813 230.223 143.092 228.24Z" fill="#FBF9F7"/>
<path d="M399.769 226.411C399.614 228.24 400.284 230.146 399.331 231.924C399.305 230.069 398.945 228.189 399.769 226.411Z" fill="#D9A18E"/>
<path d="M404.789 297.279C404.789 296.094 404.789 294.909 404.815 293.724C405.768 294.78 405.201 296.094 405.356 297.279L405.072 297.356L404.789 297.304V297.279Z" fill="#7693CA"/>
<path d="M194.798 146.81C192.198 148.871 189.185 150.262 186.198 151.627C185.245 153.611 183.211 152.22 181.872 153.018C179.812 153.199 177.752 153.405 175.718 153.611C172.988 150.391 171.932 138.361 174.07 135.115C174.198 134.857 174.43 134.6 174.482 134.316C175.203 129.705 175.203 129.602 180.069 129.731C186.404 129.911 192.249 131.457 196.678 136.429C198.069 138.721 198.815 141.117 197.914 143.796V143.745C197.193 145.084 196.163 146.14 194.798 146.836V146.81Z" fill="#060708"/>
<path d="M152.928 182.592C147.186 183.519 141.65 182.18 136.706 179.733C132.766 177.775 129.908 174.04 128.208 169.737C128.028 168.99 127.693 168.321 127.101 167.831C126.818 166.028 126.869 164.302 128.234 162.911C129.264 162.112 130.294 162.318 131.324 162.885C131.53 162.937 131.736 162.962 131.942 162.988C132.586 163.168 132.74 163.838 133.152 164.25C134.981 169.093 137.993 172.777 142.989 174.606C146.645 175.946 150.405 175.276 154.139 175.147C154.86 174.452 156.018 174.812 156.714 174.065C157.769 174.091 158.31 173.164 159.108 172.777C160.01 171.129 161.812 170.485 162.997 169.196C164.464 168.733 165.108 167.393 165.906 166.286C168.069 163.168 169.795 162.911 172.653 165.41C173.503 166.646 173.554 167.857 172.601 169.068C169.022 174.065 165.031 178.599 159.057 180.892C158.284 181.201 157.538 181.433 156.714 181.536C155.581 182.36 154.087 181.922 152.903 182.618L152.928 182.592Z" fill="#E5697F"/>
<path d="M174.07 135.089C173.813 141.323 174.302 147.48 175.718 153.586C171.263 153.817 167.015 152.916 162.946 151.113C162.019 150.597 160.938 150.314 160.371 149.284C159.315 148.64 158.388 147.918 157.925 146.707C156.689 140.679 158.44 136.996 164.311 133.544C165.701 132.719 167.272 132.127 168.817 131.586C173.941 129.808 174.07 129.911 174.044 135.089H174.07Z" fill="#EFECEA"/>
<path d="M193.691 122.724C191.219 120.302 188.078 119.504 184.808 119.117C183.52 118.963 182.078 118.834 182.155 117.263C182.233 115.614 183.7 115.717 184.988 115.82C189.752 116.129 193.949 117.726 197.322 121.204C198.249 122.157 199.073 123.239 199.253 124.604C199.382 125.609 199.665 126.794 198.532 127.361C197.142 128.031 196.498 127 196.035 125.892C195.108 124.939 194.335 123.883 193.691 122.75V122.724Z" fill="#0D0A09"/>
<path d="M99.8829 146.888C100.269 146.888 100.681 146.888 101.067 146.888C101.067 149.129 101.067 151.344 101.119 153.585C101.17 155.672 100.166 155.466 98.8529 154.667C96.5354 153.225 96.0976 150.855 97.8486 148.717C98.4151 148.021 99.1876 147.506 99.8829 146.913V146.888Z" fill="#83543F"/>
<path d="M145.514 120.946C145.514 120.792 145.539 120.612 145.565 120.457C155.015 120.431 164.44 120.406 173.89 120.354C172.963 121.281 171.779 120.921 170.697 120.946C162.303 120.972 153.934 120.946 145.539 120.946H145.514Z" fill="#92796F"/>
<path d="M162.996 169.17C162.275 170.999 160.833 172.03 159.108 172.751C158.85 169.866 161.4 170.021 162.996 169.17Z" fill="#AA7166"/>
<path d="M197.914 143.77C198.171 141.194 197.502 138.799 196.678 136.403C198.918 138.541 199.201 141.014 197.914 143.77Z" fill="#916D5E"/>
<path d="M172.602 169.042C172.602 167.831 172.627 166.595 172.653 165.384C174.559 166.62 174.636 167.857 172.602 169.042Z" fill="#AE7065"/>
<path d="M209.116 181.355C208.318 180.041 208.395 179.114 209.013 177.8C209.991 179.063 209.888 179.99 209.116 181.355Z" fill="#A87065"/>
<path d="M105.832 161.211C105.189 161.339 104.931 161.108 104.905 160.618C104.854 159.923 105.086 159.407 105.832 159.304C106.347 159.227 107.043 159.304 106.914 159.948C106.811 160.464 106.167 160.85 105.858 161.211H105.832Z" fill="#A67065"/>
<path d="M101.713 183.829C101.713 181.794 101.713 179.758 101.713 177.723C101.893 177.723 102.073 177.723 102.254 177.672C102.151 179.733 102.846 181.845 101.713 183.803V183.829Z" fill="#87788F"/>
<path d="M152.93 182.592C153.985 181.484 155.299 181.278 156.741 181.51C155.917 183.391 154.243 182.438 152.93 182.592Z" fill="#CC6C72"/>
<path d="M181.871 153.019C183.313 152.555 184.755 152.091 186.197 151.627C186.197 152.091 186.249 152.581 186.249 153.044C185.425 153.714 184.601 153.714 183.802 153.044C183.159 153.044 182.515 153.044 181.871 153.019Z" fill="#9B6D66"/>
<path d="M194.799 146.811C195.855 145.78 196.885 144.75 197.94 143.719C197.683 145.548 196.627 146.579 194.799 146.811Z" fill="#916D5E"/>
<path d="M127.102 167.831C127.772 167.934 128.673 167.548 129.059 168.295C129.42 168.99 128.415 169.196 128.209 169.737C127.488 169.299 126.922 168.784 127.102 167.831V167.831Z" fill="#DE6A7C"/>
<path d="M99.8578 141.916C100.836 142.019 102.072 141.581 102.304 143.153C101.48 143.153 100.656 143.153 99.832 143.153C99.2398 142.74 99.7548 142.328 99.832 141.916H99.8578Z" fill="#A0716A"/>
<path d="M131.324 162.859C130.294 162.859 129.264 162.859 128.234 162.885C129.239 160.798 130.269 161.623 131.324 162.859Z" fill="#AB7165"/>
<path d="M193.691 122.724C194.875 123.471 195.802 124.424 196.034 125.867C194.592 125.3 193.588 124.424 193.691 122.724Z" fill="#9D7468"/>
<path d="M104.75 198.564C104.699 199.053 104.699 199.543 104.132 199.491C103.643 199.44 103.566 198.95 103.643 198.564C103.695 198.306 103.875 197.92 104.081 197.868C104.699 197.714 104.622 198.306 104.75 198.564Z" fill="#A37169"/>
<path d="M156.714 174.065C156.327 175.508 155.169 175.199 154.139 175.147C154.525 173.653 155.709 174.091 156.714 174.065Z" fill="#B8706A"/>
<path d="M133.154 164.224C132.433 164.096 131.995 163.709 131.943 162.962C132.098 162.55 132.098 161.777 132.742 162.138C133.54 162.576 133.102 163.503 133.154 164.224Z" fill="#AB7165"/>
<path d="M183.803 153.044C184.627 153.044 185.451 153.044 186.249 153.044C185.425 154.77 184.627 154.77 183.803 153.044Z" fill="#9A785B"/>
<path d="M106.888 146.295C106.734 146.784 106.347 146.836 105.935 146.81C105.498 146.759 105.086 146.604 105.24 146.089C105.292 145.909 105.729 145.754 106.013 145.728C106.399 145.677 106.837 145.728 106.888 146.295Z" fill="#A07657"/>
<path d="M204.84 122.312C204.84 121.9 204.84 121.41 205.355 121.384C205.921 121.333 205.973 121.848 205.921 122.26C205.896 122.544 205.741 122.982 205.561 123.033C205.046 123.188 204.891 122.75 204.84 122.338V122.312Z" fill="#A87066"/>
<path d="M157.949 146.733C158.773 147.583 159.571 148.459 160.395 149.309C158.85 149.129 158.001 148.33 157.949 146.733Z" fill="#A48275"/>
<path d="M160.371 149.309C161.35 149.747 162.277 150.288 162.946 151.138C161.71 151.061 160.577 150.829 160.371 149.309Z" fill="#A48275"/>
<path d="M372.113 130.839C373.477 128.185 376.155 127.181 378.55 125.918C379.22 125.558 379.426 124.888 380.069 124.63C381.125 123.703 382.593 124.038 383.777 123.497C384.807 123.445 385.812 123.42 386.842 123.368C387.872 123.007 388.902 123.007 389.906 123.368C390.06 123.471 390.215 123.523 390.395 123.523C391.039 123.806 391.09 124.373 391.039 124.965C390.421 126.073 391.219 126.537 392.017 127C394.798 131.251 395.725 136.017 395.828 141.014C395.571 143.693 396.163 146.424 395.442 149.077C394.876 150.159 393.846 150.262 392.79 150.262C389.751 149.67 386.584 150.365 383.571 149.386C383.159 149.258 382.85 149.644 382.541 149.902C381.46 149.541 380.404 149.18 379.323 148.82C379.683 146.991 381.486 146.579 382.644 145.522C383.597 144.724 384.524 144.981 385.528 145.574C384.859 144.878 384.498 144.028 384.035 143.127C383.185 143.822 383.417 145.11 382.49 145.677C381.177 146.682 379.683 146.733 378.55 145.728C376.696 144.054 374.868 144.44 372.911 145.239C372.267 145.239 371.701 145.033 371.263 144.518C371.031 144.08 370.98 143.642 371.057 143.152C371.598 141.916 371.752 140.602 371.804 139.263C371.752 137.588 371.932 135.991 372.834 134.548C373.246 133.183 372.885 131.972 372.138 130.813L372.113 130.839Z" fill="#038F93"/>
<path d="M394.927 140.653C394.721 135.862 393.279 131.38 391.374 127.026C390.369 126.717 390.575 125.944 390.704 125.197C390.601 124.63 390.472 124.089 390.344 123.523C394.953 121.694 399.202 123.523 403.348 125.094C405.176 125.789 407.21 126.537 408.42 128.391C409.219 129.782 409.991 131.199 410.789 132.59C412.206 135.012 411.871 137.588 410.892 140.112C407.442 145.522 402.343 148.33 396.137 149.386C394.721 147.068 395.854 144.492 395.391 142.07C395.288 141.581 395.133 141.117 394.902 140.679L394.927 140.653Z" fill="#FAF2EF"/>
<path d="M409.63 111.106C409.913 112.549 409.269 113.682 408.419 114.738C407.209 115.64 405.973 115.614 404.737 114.764C403.501 114.275 402.214 114.12 401.003 113.605C400.437 113.553 399.896 113.502 399.33 113.45C393.459 112.677 387.613 112.523 381.742 113.45C378.549 113.373 375.846 114.816 373.245 116.413C371.545 117.443 369.846 117.881 368.842 115.872C367.863 113.965 368.378 112.111 370.515 111.106C372.421 110.204 374.378 109.354 376.309 108.504C377.751 108.015 379.27 107.628 380.609 106.804C386.532 106.263 392.48 106.237 398.403 106.727C399.304 106.804 400.257 106.675 401.029 107.371C401.184 107.474 401.338 107.499 401.493 107.422C402.935 107.989 404.634 107.577 405.973 108.556C406.102 108.684 406.282 108.71 406.462 108.659C407.673 109.277 409.14 109.535 409.655 111.08L409.63 111.106Z" fill="#EF8013"/>
<path d="M494.245 140.112C494.683 138.129 494.914 135.398 494.863 132.642C494.863 131.611 495.326 130.916 496.588 131.148C499.189 131.611 501.609 134.522 501.609 137.33C501.609 140.138 499.009 143.307 496.408 143.719C493.884 144.131 494.168 142.379 494.245 140.112V140.112Z" fill="#D4A28E"/>
<path d="M484.976 160.438C484.409 161.546 483.817 162.679 483.147 164.019C482.014 162.653 482.529 161.082 482.761 160.154C483.456 157.45 483.92 154.899 482.684 152.272C482.555 151.988 482.632 151.293 482.838 151.164C483.714 150.649 484.126 151.988 484.976 151.834C485.542 152.916 485.542 154.564 487.448 154.307V155.543C488.4 157.063 486.804 157.269 486.212 158.016C485.362 158.609 485.825 159.871 484.976 160.464V160.438Z" fill="#F8D7C3"/>
<path d="M372.807 145.007C374.61 142.714 376.515 142.379 378.524 144.724C379.657 146.037 381.124 145.522 382.515 145.625C382.051 147.3 380.661 148.047 379.296 148.819C376.798 148.356 374.893 146.656 372.756 145.471C372.575 145.342 372.524 145.239 372.601 145.136C372.678 145.033 372.73 144.981 372.781 144.981L372.807 145.007Z" fill="#078E95"/>
<path d="M371.289 143.23C371.367 143.616 371.418 144.002 371.495 144.389C371.367 145.368 371.058 146.269 370.182 146.888C369.229 146.785 368.611 148.433 367.298 147.145C365.599 145.445 367.478 144.492 367.71 143.178C367.041 142.354 367.015 141.529 367.71 140.705C367.839 139.778 367.324 138.567 368.817 138.258C368.946 138.309 369.075 138.361 369.178 138.412C369.667 138.902 369.899 139.546 370.234 140.138C370.646 141.143 371.418 142.019 371.289 143.204V143.23Z" fill="#F7D5CA"/>
<path d="M401.029 107.397C394.051 106.624 387.099 106.315 380.12 107.474C379.786 107.732 379.554 107.68 379.399 107.294C379.116 106.521 379.374 106.16 380.223 106.16C386.661 106.16 393.098 106.16 399.536 106.16C400.36 106.16 400.875 106.547 401.029 107.397Z" fill="#F9D1BA"/>
<path d="M381.77 113.502C387.641 111.647 393.486 111.853 399.357 113.502C393.486 113.502 387.641 113.502 381.77 113.502Z" fill="#F7CBB8"/>
<path d="M372.114 130.839C374.972 130.993 373.504 133.209 373.89 134.523C372.835 135.089 371.779 135.424 371.753 137.099C371.753 139.005 370.569 139.314 369.049 138.206L368.843 138.258C368.766 135.27 370.002 132.848 372.139 130.839H372.114Z" fill="#208D94"/>
<path d="M410.917 140.087C410.84 136.841 411.561 133.441 408.857 130.71C408.394 130.246 408.574 129.164 408.445 128.366C412.591 131.895 413.544 136.352 410.917 140.087Z" fill="#FDF0E9"/>
<path d="M386.225 154.281C387.255 155.904 387.358 157.166 384.86 156.703C382.851 156.342 380.405 157.991 378.809 155.518C379.633 154.848 380.457 154.848 381.281 155.518C383.16 156.007 384.345 153.792 386.225 154.281Z" fill="#FAD5CA"/>
<path d="M465.226 192.51C465.818 186.946 465.921 181.381 465.148 175.843C466.899 181.381 467.466 186.946 465.226 192.51Z" fill="#F8D0BB"/>
<path d="M387.383 176.358C387.332 181.768 386.25 187.203 387.383 192.613C385.426 187.203 385.581 181.768 387.383 176.358Z" fill="#ED954F"/>
<path d="M382.516 149.901C382.619 149.257 382.593 147.969 383.417 148.485C386.301 150.211 389.674 148.536 392.532 150.03C392.635 150.288 392.558 150.468 392.275 150.545C389.005 150.674 385.734 150.648 382.516 149.927V149.901Z" fill="#078E95"/>
<path d="M377.572 120.947C377.624 121.72 378.036 122.132 378.808 122.183C378.68 123.111 379.143 124.63 377.598 124.476C375.641 124.296 374.997 122.776 375.1 120.921C375.924 120.277 376.748 120.251 377.572 120.921V120.947Z" fill="#F7D4CB"/>
<path d="M504.7 140.705C504.52 141.401 505.138 142.534 503.979 142.663C503.516 142.715 502.769 141.916 502.511 141.349C502.022 140.216 501.945 138.851 502.46 137.794C502.975 136.764 503.284 137.717 503.49 138.258C504.159 138.954 504.34 139.881 504.726 140.731L504.7 140.705Z" fill="#F8D6C4"/>
<path d="M441.406 139.88C440.813 141.658 439.577 142.122 437.904 141.864C437.26 141.761 437.028 141.349 437.414 140.808C438.419 139.417 439.732 139.082 441.406 139.88V139.88Z" fill="#FAD4CC"/>
<path d="M367.683 185.117C368.559 185.194 369.563 184.833 370.129 185.941C370.258 186.199 370.49 186.405 370.696 186.585C371.391 187.28 372.009 183.777 372.421 186.379C372.704 188.131 370.619 187.332 369.537 187.564C369.331 187.615 369.125 187.564 368.919 187.564C368.327 186.843 366.73 186.611 367.683 185.091V185.117Z" fill="#F8D8C1"/>
<path d="M391.167 154.281C392.223 154.384 393.974 154.075 393.407 155.775C392.815 157.578 391.064 156.548 389.699 156.548C389.699 155.311 391.347 155.414 391.141 154.281H391.167Z" fill="#FAD5CA"/>
<path d="M392.275 150.52C392.378 150.366 392.456 150.185 392.533 150.005C393.46 150.185 394.181 149.696 394.876 149.206C395.726 146.604 394.593 143.874 395.494 141.272C396.782 143.874 395.777 146.656 396.164 149.335C395.365 151.396 393.64 150.314 392.275 150.494V150.52Z" fill="#D6E0DC"/>
<path d="M370.182 146.862C370.259 145.832 369.898 144.595 371.495 144.363C371.933 144.569 372.37 144.801 372.834 145.007C372.834 145.162 372.808 145.316 372.808 145.471C372.267 146.527 372.087 148.279 370.207 146.862H370.182Z" fill="#F4D6C5"/>
<path d="M435.587 145.677C432.24 145.265 428.892 144.853 425.545 144.466C428.892 144.75 432.472 143.256 435.587 145.677Z" fill="#F8CDB8"/>
<path d="M414.962 102.038C415.889 103.249 417.228 103.816 416.893 105.31C416.79 105.773 416.378 105.902 415.966 105.593C414.91 104.794 414.266 103.867 414.962 102.064V102.038Z" fill="#F9D5CD"/>
<path d="M409.631 111.106C408.575 110.308 407.519 109.483 406.438 108.685C407.725 108.041 408.729 109.973 410.094 109.02C410.454 108.762 410.763 109.251 410.815 109.689C410.892 110.565 410.455 111.003 409.631 111.08V111.106Z" fill="#F9D1BA"/>
<path d="M487.422 154.281C485.156 154.899 484.615 153.791 484.95 151.808C486.856 151.576 487.654 152.4 487.422 154.281Z" fill="#FAD2CA"/>
<path d="M486.186 157.965C486.598 157.14 487.01 156.316 487.422 155.492C488.246 155.492 489.07 155.492 489.894 155.492C489.482 156.316 489.07 157.14 488.658 157.965C487.834 157.965 487.01 157.965 486.186 157.965Z" fill="#FAD3CC"/>
<path d="M367.709 140.705C367.709 141.53 367.709 142.354 367.709 143.178C367.271 142.946 366.782 142.792 366.447 142.483C365.778 141.89 364.851 141.143 365.469 140.242C366.293 139.057 366.834 141.04 367.709 140.705Z" fill="#F8D8C3"/>
<path d="M386.225 154.281C387.873 152.323 389.521 152.323 391.169 154.281C389.521 154.281 387.873 154.281 386.225 154.281Z" fill="#FAD5CA"/>
<path d="M367.683 185.117C368.095 185.941 368.507 186.765 368.919 187.59C367.014 187.847 366.215 186.997 366.473 185.117C366.885 185.117 367.297 185.117 367.709 185.117H367.683Z" fill="#F3D2CF"/>
<path d="M404.738 114.764C405.974 114.764 407.185 114.764 408.421 114.738C407.21 116.722 406 116.67 404.738 114.764Z" fill="#F8CDB7"/>
<path d="M366.474 183.88C365.65 183.468 364.826 183.056 364.002 182.644C364.156 181.639 364.749 181.227 365.676 181.562C366.809 181.974 366.371 183.03 366.474 183.854V183.88Z" fill="#F7D9BE"/>
<path d="M361.169 169.274C361.221 169.995 360.912 170.201 360.474 170.227C359.805 170.252 359.264 170.046 359.161 169.274C359.109 168.861 359.109 168.372 359.599 168.269C360.526 168.089 360.551 169.196 361.169 169.248V169.274Z" fill="#FAD2CB"/>
<path d="M504.699 140.705C503.154 140.447 503.54 139.237 503.463 138.232C503.875 138.232 504.287 138.232 504.699 138.232C505.111 139.056 505.523 139.881 505.935 140.705C505.523 140.705 505.111 140.705 504.699 140.705Z" fill="#F9D3D0"/>
<path d="M467.645 196.168C466.821 195.575 466.048 198.563 465.224 196.193C464.838 195.781 464.864 195.369 465.25 194.983C466.203 195.06 467.413 194.596 467.645 196.142V196.168Z" fill="#F7D4D1"/>
<path d="M405.975 108.581C404.352 108.684 402.885 108.272 401.494 107.448C403.013 107.731 404.945 106.392 405.975 108.581Z" fill="#F9D1BA"/>
<path d="M383.751 123.471C382.592 124.115 381.459 124.811 380.043 124.605C380.764 122.544 382.489 123.755 383.751 123.471Z" fill="#F7D4CB"/>
<path d="M403.501 114.841C403.218 116.052 402.368 116.387 401.519 115.64C401.004 115.176 401.802 114.893 402.265 114.79C402.703 114.429 403.115 114.429 403.501 114.841V114.841Z" fill="#F6D9C2"/>
<path d="M434.222 140.756C434.634 140.756 435.123 140.756 435.149 141.272C435.2 141.838 434.685 141.864 434.273 141.838C433.99 141.813 433.552 141.658 433.501 141.478C433.346 140.962 433.784 140.808 434.196 140.756H434.222Z" fill="#FAD7BE"/>
<path d="M465.25 195.009C465.25 195.421 465.25 195.807 465.224 196.22C464.838 196.426 464.451 196.632 464.065 196.838C463.962 195.421 464.426 194.159 465.172 193C465.198 193.669 465.25 194.365 465.275 195.035L465.25 195.009Z" fill="#F0CBB9"/>
<path d="M487.06 164.791C486.906 165.281 486.519 165.332 486.107 165.306C485.67 165.255 485.258 165.1 485.412 164.585C485.464 164.405 485.901 164.25 486.185 164.224C486.571 164.173 487.009 164.224 487.06 164.791Z" fill="#FAD2CD"/>
<path d="M403.501 114.841C403.089 114.841 402.677 114.79 402.265 114.79C401.853 114.403 401.441 114.017 401.029 113.631C402.446 113.399 403.682 113.862 404.763 114.764C404.351 114.79 403.913 114.815 403.501 114.867V114.841Z" fill="#F3BEA3"/>
<path d="M365.366 111.054C364.877 111.003 364.362 111.003 364.439 110.436C364.491 109.947 364.98 109.869 365.392 109.947C365.65 109.998 366.036 110.179 366.087 110.385C366.242 111.003 365.65 110.926 365.392 111.054H365.366Z" fill="#F9D4CC"/>
<path d="M484.975 160.438C485.053 159.459 484.615 158.223 486.211 157.991C486.108 158.97 486.572 160.206 484.975 160.438Z" fill="#F6D6D1"/>
<path d="M392.044 119.118C391.889 119.272 391.683 119.581 391.477 119.581C391.117 119.581 390.55 119.556 390.396 119.324C390.113 118.886 390.525 118.628 390.962 118.577C391.374 118.525 391.761 118.577 392.044 119.118Z" fill="#F9D2CE"/>
<path d="M377.572 120.947C376.748 120.947 375.924 120.947 375.1 120.947C375.924 119.221 376.748 119.221 377.572 120.947Z" fill="#F4DABD"/>
<path d="M381.281 120.947C381.049 122.518 379.787 122.106 378.809 122.183C378.809 121.771 378.809 121.359 378.809 120.947C379.633 120.277 380.457 120.277 381.281 120.947Z" fill="#F8D9C0"/>
<path d="M381.281 155.492C380.457 155.492 379.633 155.492 378.809 155.492C379.633 153.766 380.457 153.766 381.281 155.492Z" fill="#F2D9C6"/>
<path d="M381.281 120.947C380.457 120.947 379.633 120.947 378.809 120.947C379.633 119.221 380.457 119.221 381.281 120.947Z" fill="#FAD0CD"/>
<path d="M403.038 151.911C402.651 152.375 402.368 152.967 401.647 152.993C401.441 152.349 400.694 151.628 401.39 151.061C402.214 150.391 402.42 151.756 403.038 151.885V151.911Z" fill="#F9CFB5"/>
<path d="M417.097 145.677C415.99 146.527 414.728 146.888 413.338 146.81C414.368 145.703 415.681 145.497 417.097 145.677Z" fill="#F0B98B"/>
<path d="M379.401 107.268C379.632 107.319 379.89 107.396 380.122 107.448C378.989 108.246 377.727 108.633 376.311 108.53C377.135 107.628 378.242 107.422 379.375 107.268H379.401Z" fill="#F0B891"/>
<path d="M425.699 112.368C426.472 112.986 426.961 113.759 426.935 114.79C425.442 114.506 425.751 113.347 425.699 112.368Z" fill="#F5C8A7"/>
<path d="M389.881 123.368C388.851 123.368 387.821 123.368 386.816 123.368C387.846 122.75 388.876 122.389 389.881 123.368Z" fill="#698378"/>
<path d="M361.479 103.661C361.53 102.785 362.019 102.219 362.74 101.781C362.792 102.734 362.74 103.584 361.479 103.661Z" fill="#F9CCAA"/>
<path d="M461.439 166.08C460.796 165.59 460.229 165.049 460.281 164.147C461.465 164.302 461.542 165.126 461.439 166.08Z" fill="#F5BD8F"/>
<path d="M446.71 150.546C445.809 150.597 445.242 150.082 444.805 149.386C445.732 149.309 446.53 149.412 446.71 150.546Z" fill="#F3B484"/>
<path d="M391.761 68.4977C391.606 67.7506 389.649 67.8536 390.551 67.1066C391.323 66.4626 392.817 64.7881 394.259 66.6944C393.435 67.2869 392.611 67.9052 391.787 68.4977H391.761Z" fill="#F49A3C"/>
<path d="M433.088 212.165C424.822 213.762 417.174 212.732 409.913 208.018C401.235 202.402 395.75 189.65 397.939 179.475C399.716 171.283 403.759 164.843 410.943 160.438C412.72 159.897 414.393 159.176 415.835 157.991C426.934 152.555 443.208 157.862 450.186 169.119C454.203 175.611 455.078 182.618 453.997 190.011C453.533 191.248 453.379 192.561 452.89 193.772C449.825 201.913 444.495 207.889 436.229 211.058C435.251 211.65 434.092 211.727 433.062 212.14L433.088 212.165Z" fill="#FAD6C7"/>
<path d="M412.154 222.109C412.051 222.753 411.69 223.552 411.046 223.191C408.394 221.697 406.746 223.5 405.047 224.943C404.171 225.69 403.296 225.87 402.266 225.844C401.854 222.676 403.45 220.769 406.18 219.584C408.471 219.713 410.325 220.873 412.128 222.135L412.154 222.109Z" fill="#D6A188"/>
<path d="M415.836 158.016C415.038 160.515 413.029 160.541 410.943 160.463C412.385 159.253 413.827 158.093 415.836 158.016Z" fill="#F9CDB3"/>
<path d="M433.165 223.449C431.414 225.741 428.994 224.17 426.908 224.505C428.891 223.5 430.977 223.191 433.165 223.449Z" fill="#E79166"/>
<path d="M423.33 224.53C421.631 224.273 419.596 225.612 418.283 223.448C420.06 223.294 421.862 223.191 423.33 224.53Z" fill="#DF9772"/>
<path d="M452.917 193.798C452.736 192.381 452.968 191.093 454.024 190.037C454.23 191.453 453.895 192.716 452.917 193.798Z" fill="#F3BB95"/>
<path d="M402.344 209.383C402.756 209.022 402.962 208.688 403.168 208.688C403.528 208.688 404.095 208.713 404.249 208.945C404.532 209.383 404.12 209.692 403.683 209.692C403.322 209.692 402.962 209.538 402.344 209.383V209.383Z" fill="#EF7D24"/>
<path d="M433.088 212.165C433.963 211.289 435.019 210.903 436.255 211.083C435.457 212.217 434.324 212.32 433.088 212.165Z" fill="#F0B588"/>
<path d="M372.705 72.1817C371.238 73.0576 370.336 72.8515 369.049 72.4651C370.259 71.2543 371.238 71.5119 372.705 72.1817Z" fill="#F39657"/>
<path d="M401.107 259.076C401.081 254.104 401.03 249.132 401.03 244.16C401.03 243.181 400.798 242.022 402.343 241.919C402.292 242.718 402.266 243.542 402.214 244.34C401.648 248.411 402.163 252.507 401.905 256.577C401.854 257.401 402.729 258.689 401.107 259.076V259.076Z" fill="#8084A7"/>
<path d="M401.108 259.075C402.292 255.598 401.34 252.017 401.649 248.488C401.777 247.097 401.185 245.603 402.215 244.34C402.215 249.699 402.215 255.031 402.215 260.389C401.468 260.26 401.056 259.848 401.108 259.075Z" fill="#7A7C9F"/>
<path d="M403.425 276.438C401.184 275.176 402.601 273.115 402.317 271.415C404.48 272.677 403.116 274.738 403.425 276.438Z" fill="#84819A"/>
<path d="M437.493 239.369C438.394 240.502 437.956 241.842 438.059 243.078C437.699 243.464 437.313 243.464 436.901 243.13C436.901 242.176 436.823 241.326 435.484 241.79C435.896 240.76 436.669 240.038 437.493 239.343V239.369Z" fill="#7E82B2"/>
<path d="M433.063 282.492C433.063 283.497 433.5 284.682 431.981 285.068C431.93 284.038 431.569 282.879 433.063 282.492Z" fill="#878296"/>
<path d="M434.299 273.914C434.299 274.918 434.737 276.129 433.192 276.464C433.192 275.639 433.192 274.789 433.166 273.965C433.527 273.579 433.913 273.579 434.299 273.914Z" fill="#7B81A5"/>
<path d="M434.299 273.914C433.912 273.914 433.526 273.939 433.166 273.965C433.217 272.986 432.805 271.801 434.299 271.466C434.299 272.291 434.299 273.115 434.299 273.939V273.914Z" fill="#7180B2"/>
<path d="M435.536 264.047C435.536 265.052 435.922 266.237 434.403 266.572C434.403 265.748 434.403 264.923 434.377 264.099C434.763 263.712 435.149 263.712 435.536 264.047V264.047Z" fill="#80819E"/>
<path d="M435.536 264.047C435.15 264.047 434.763 264.073 434.377 264.099C434.377 263.094 434.016 261.935 435.484 261.574C435.484 262.399 435.51 263.223 435.536 264.073V264.047Z" fill="#7780AB"/>
<path d="M436.875 243.13C437.261 243.13 437.647 243.078 438.034 243.078C437.982 244.057 438.394 245.242 436.901 245.603C436.901 244.778 436.901 243.954 436.875 243.155V243.13Z" fill="#838297"/>
<path d="M404.043 286.923C403.425 286.408 403.528 285.686 403.554 284.991C404.043 284.708 403.502 283.445 404.687 283.832C404.815 284.939 404.687 285.97 404.043 286.923Z" fill="#797DA2"/>
<path d="M404.686 283.831C404.299 284.218 403.939 284.604 403.553 284.991C403.553 284.166 403.553 283.342 403.578 282.518C404.325 282.646 404.711 283.059 404.686 283.831V283.831Z" fill="#7A83B0"/>
<path d="M179.478 147.918C179.529 148.511 179.632 149.129 179.607 149.721C179.607 150.159 179.323 150.52 178.86 150.469C178.654 150.443 178.319 150.159 178.293 149.928C177.83 147.248 177.418 144.544 177.032 141.839C176.954 141.375 176.98 140.757 177.701 140.731C178.448 140.705 178.783 141.195 178.86 141.864C179.092 143.874 179.323 145.883 179.555 147.892C179.555 147.892 179.504 147.892 179.478 147.892V147.918Z" fill="#EDEBEB"/>
<path d="M178.318 136.377C178.19 137.047 178.627 138.181 177.7 138.129C176.361 138.052 176.825 136.532 176.542 135.707C176.31 135.012 176.696 133.801 177.7 134.059C178.756 134.342 178.241 135.579 178.318 136.377Z" fill="#E9E5E6"/>
<path d="M393.588 143.461C393.588 144.569 393.588 145.703 393.588 146.81C392.996 147.867 392.249 148.15 391.296 147.197C391.27 147.068 391.219 146.939 391.193 146.81C391.193 145.136 391.193 143.461 390.446 141.89C389.339 140.988 390.369 139.752 389.931 138.747V135.914C392.584 136.352 391.888 138.876 392.97 140.138C393.639 141.169 392.97 142.405 393.536 143.461H393.588Z" fill="#F1EEEE"/>
<path d="M389.933 141.916C389.778 142.998 390.242 144.157 389.546 145.136C385.787 143.616 386.868 139.134 384.345 136.841C383.727 136.3 384.474 135.759 384.886 135.321C385.323 134.883 385.941 134.78 386.044 135.424C386.328 137.202 388.362 137.768 388.671 139.468C388.877 140.216 389.881 140.087 390.113 140.782C390.19 141.194 390.293 141.607 389.907 141.942L389.933 141.916Z" fill="#078E95"/>
<path d="M384.884 140.756C384.06 143.822 387.279 145.033 387.047 147.686C385.837 146.063 383.133 146.553 382.566 144.414C382.154 142.894 382.953 141.761 384.91 140.756H384.884Z" fill="#078E95"/>
<path d="M382.774 139.571C379.529 143.461 376.954 141.581 374.354 139.984C376.877 139.237 379.452 139.52 382.774 139.571Z" fill="#078E95"/>
<path d="M369.023 138.206C369.718 137.897 371.392 139.159 370.748 136.712C370.207 134.677 371.933 133.698 373.864 134.548C372.963 136.068 372.319 137.665 372.628 139.468C371.727 140.318 370.722 140.705 369.538 140.138C369.023 139.597 368.894 138.927 369.023 138.232V138.206Z" fill="#009192"/>
<path d="M389.879 133.26C389.493 133.26 389.133 133.26 388.746 133.26C387.485 132.874 388.025 131.56 387.485 130.813C387.485 130.014 387.485 129.19 387.459 128.391C389.751 127.747 389.39 130.117 390.369 130.967C391.347 131.998 390.781 132.668 389.879 133.286V133.26Z" fill="#EEEEEF"/>
<path d="M369.537 140.112C370.49 139.494 371.546 139.391 372.627 139.443C372.318 140.757 373.503 142.586 371.263 143.204C370.155 142.482 369.589 141.426 369.512 140.112H369.537Z" fill="#078E95"/>
<path d="M395.493 141.297C395.03 143.925 396.291 146.681 394.875 149.232C394.875 146.372 394.901 143.513 394.927 140.653C395.107 140.859 395.287 141.091 395.493 141.297Z" fill="#528387"/>
<path d="M390.705 125.197C390.936 125.816 391.142 126.408 391.374 127.026C390.602 127.026 389.52 127.541 389.211 126.666C388.851 125.687 390.138 125.661 390.73 125.197H390.705Z" fill="#009291"/>
<path d="M387.46 128.365C386.069 128.056 386.121 127.283 386.662 126.176C387.82 126.717 387.305 127.644 387.486 128.34L387.46 128.365Z" fill="#009291"/>
<path d="M389.881 140.679C389.16 140.525 388.233 141.092 387.821 140.035C387.795 139.958 388.362 139.649 388.671 139.443C389.057 139.443 389.443 139.443 389.855 139.443C390.293 139.829 390.267 140.241 389.881 140.654V140.679Z" fill="#009492"/>
<path d="M391.167 148.099C390.42 148.047 389.622 148.279 389.004 147.583C389.57 146.527 390.497 147.017 391.193 146.811C391.476 147.248 391.502 147.686 391.141 148.099H391.167Z" fill="#078E95"/>
<path d="M393.588 143.461C392.635 142.482 393.073 141.272 393.021 140.138C394.335 141.04 393.356 142.354 393.588 143.461Z" fill="#598283"/>
<path d="M391.168 148.099C391.168 147.661 391.194 147.248 391.219 146.811C392.018 147.506 392.816 147.48 393.588 146.811C393.434 148.459 392.146 147.996 391.168 148.099Z" fill="#568684"/>
<path d="M389.881 140.679C389.881 140.267 389.881 139.881 389.855 139.468C389.881 139.237 389.933 138.979 389.958 138.747C390.963 139.674 390.525 140.808 390.473 141.89H390.216H389.958C389.958 141.478 389.958 141.066 389.933 140.653L389.881 140.679Z" fill="#637F85"/>
<path d="M389.881 133.26C390.293 132.539 390.653 131.818 390.37 130.942C391.632 132.024 391.503 132.797 389.881 133.26Z" fill="#4C858B"/>
<path d="M387.485 130.787C387.897 131.611 388.335 132.436 388.747 133.234C387.099 133.054 387.537 131.792 387.485 130.787Z" fill="#5E858B"/>
<path d="M399.795 133.286C402.112 135.064 402.602 137.434 402.061 140.216C400.593 140.242 401.288 138 399.795 138.232C399.074 136.584 398.507 134.935 399.795 133.286V133.286Z" fill="#F8F4EC"/>
<path d="M399.794 133.286C399.794 134.935 399.794 136.583 399.794 138.232C398.301 137.099 397.708 135.476 397.374 133.724C397.271 133.157 397.374 132.462 398.095 132.23C399.047 131.921 399.64 132.281 399.82 133.286H399.794Z" fill="#FCF0F2"/>
<path d="M433.089 181.922C436.617 177.775 438.496 173.061 438.033 167.522C437.904 165.848 438.342 164.276 440.325 164.199C442.23 164.122 442.591 165.693 442.668 167.187C443.003 172.855 442.05 178.187 438.213 182.669C436.823 183.442 436.411 185.58 434.351 185.426C433.552 185.117 433.012 184.576 432.703 183.751C432.548 183.056 432.754 182.463 433.089 181.871V181.922Z" fill="#BA5432"/>
<path d="M410.84 174.632C412.463 179.449 415.759 182.747 420.188 185.014C420.548 185.503 421.192 185.786 421.243 186.482C421.192 188.414 419.492 188.388 418.282 188.929C413.287 187.512 410.454 183.648 407.853 179.552C407.184 178.625 406.257 177.826 406.463 176.512C408.265 172.983 408.471 172.906 410.84 174.632V174.632Z" fill="#BA5434"/>
<path d="M418.283 188.903C418.206 187.152 420.806 188.027 420.781 186.327C421.939 185.322 423.33 185.838 424.643 185.735C425.828 185.632 427.141 186.018 428.145 185.013H428.119C428.969 184.678 430.051 184.73 430.617 183.803C431.467 183.365 432.317 183.159 433.141 183.854C433.553 184.266 433.965 184.678 434.377 185.091C434.248 185.709 433.965 186.276 433.733 186.868C428.995 190.578 423.819 191.041 418.283 188.877V188.903Z" fill="#BB5533"/>
<path d="M407.159 176.59C407.391 177.569 407.623 178.573 407.855 179.552C404.121 179.243 404.662 176.384 404.842 174.091C405.048 171.566 406.747 171.772 408.472 172.829C408.344 174.194 406.232 174.864 407.134 176.59H407.159Z" fill="#F5D4C2"/>
<path d="M428.144 185.014C426.084 187.667 423.2 185.735 420.78 186.327C420.574 185.889 420.393 185.426 420.188 184.988C422.84 185.426 425.492 185.297 428.144 184.988V185.014Z" fill="#BC5940"/>
<path d="M433.706 186.894C433.32 186.096 432.908 185.271 434.35 185.117C436.024 184.962 436.41 182.695 438.213 182.721C437.183 184.601 435.792 186.121 433.732 186.894H433.706Z" fill="#BC5940"/>
<path d="M407.107 181.639C406.901 182.489 406.309 183.159 405.407 183.416C404.892 183.571 404.764 182.979 404.815 182.592C404.944 181.51 405.613 180.789 406.669 180.583C407.055 180.505 407.133 181.124 407.107 181.613V181.639Z" fill="#FAD3CD"/>
<path d="M424.489 181.407C423.794 181.252 422.867 181.768 422.326 180.48C424.051 180.299 425.751 179.192 426.961 181.381C426.137 182.154 425.339 182 424.515 181.381L424.489 181.407Z" fill="#F6D9C5"/>
<path d="M407.158 176.59C405.999 174.761 407.209 173.782 408.497 172.829C409.527 173.138 410.763 173.138 410.866 174.632C408.497 173.138 407.802 174.786 407.184 176.59H407.158Z" fill="#BE5B40"/>
<path d="M424.488 181.407C425.312 181.407 426.136 181.407 426.935 181.407C427.398 181.562 428.222 181.948 427.656 182.257C426.548 182.85 425.106 183.314 424.488 181.433V181.407Z" fill="#FAD0CB"/>
<path d="M433.115 183.88C432.266 183.88 431.442 183.854 430.592 183.829C431.21 182.927 432.163 182.438 433.064 181.922C433.064 182.566 433.064 183.21 433.09 183.88H433.115Z" fill="#BC5940"/>
<path d="M420.367 178.651C420.084 178.728 419.724 178.883 419.363 178.883C418.925 178.883 418.513 178.573 418.822 178.136C418.977 177.904 419.543 177.878 419.904 177.878C420.213 177.878 420.496 178.084 420.367 178.677V178.651Z" fill="#F6D9C1"/>
<path d="M430.617 183.829C430.411 185.503 429.149 185.065 428.119 185.065C428.814 184.37 429.69 184.035 430.617 183.829Z" fill="#BC5940"/>
<path d="M439.835 168.32C440.737 169.608 440.608 170.948 440.17 172.674C438.805 171.102 439.372 169.686 439.835 168.32Z" fill="#BA5137"/>
</g>
</g>
<defs>
<clipPath id="clip0_5484_43239">
<rect width="595" height="297" fill="white"/>
</clipPath>
<clipPath id="clip1_5484_43239">
<rect width="618" height="298" fill="white" transform="translate(-12)"/>
</clipPath>
</defs>
</svg>
