<svg width="595" height="297" viewBox="0 0 595 297" fill="none" xmlns="http://www.w3.org/2000/svg">
<g clip-path="url(#clip0_5484_43234)">
<rect width="595" height="297" fill="#5F5CE9"/>
<path d="M126.659 221.798C126.659 217.805 126.556 213.786 126.787 209.819C126.916 207.372 126.221 206.135 123.749 205.465C119.835 204.409 116.384 202.4 113.964 198.974C109.895 193.203 110.462 186.686 115.432 181.662C118.058 178.983 121.251 177.128 124.676 175.737C125.448 175.428 126.247 175.248 126.762 174.552C126.916 174.243 127.174 174.089 127.534 174.089C131.294 174.552 134.873 173.393 138.426 172.595C161.421 167.417 182.098 157.447 200.407 142.583C201.591 141.604 202.801 140.651 204.14 139.904C206.072 139.054 207.514 137.56 208.878 136.04C210.217 134.546 211.762 133.825 213.719 133.825C219.874 133.799 225.976 133.232 232.131 133.258C238.748 133.258 245.366 132.794 252.01 132.511C253.941 132.434 255.872 133 257.803 132.279C258.833 131.893 259.091 132.897 259.323 133.747C259.838 135.654 259.606 137.612 259.786 139.569C260.61 147.916 261.254 156.314 261.151 164.66C261.099 169.349 262.438 173.883 261.82 178.648C261.563 180.58 262.361 183.002 262.696 185.217C263.546 190.807 263.288 196.449 263.494 202.039C263.726 207.835 264.498 213.58 264.498 219.376C264.498 220.303 264.498 221.231 264.009 222.055C265.503 221.205 266.481 221.591 266.919 223.292C267.357 224.992 267.64 226.718 267.588 228.47C267.46 232.153 267.743 235.837 267.975 239.521C268.052 240.551 268.593 241.17 269.108 241.942C269.932 243.205 269.468 244.493 268.979 245.755C268.129 246.76 267.151 247.043 266.146 246.038C265.271 245.188 264.164 245.111 263.056 245.008C251.778 245.729 240.474 245.497 229.169 245.575C225.024 245.575 221.11 244.518 217.144 243.488C216.912 243.437 216.809 243.385 216.758 243.565C216.397 245.085 215.058 244.802 214.054 244.982C209.908 245.703 205.685 245.755 201.488 246.141C197.909 246.476 194.613 245.214 191.291 244.184C190.467 243.926 190.107 243.437 189.592 244.596C189.205 245.497 188.021 245.42 187.094 245.497C171.258 247.017 155.344 247.146 139.456 247.326C137.68 247.326 135.311 248.202 134.538 245.034C134.332 244.184 132.221 245.214 131.216 246.09C130.83 246.425 130.779 246.992 130.676 247.507C130.392 250.109 128.95 249.877 127.174 248.949C126.581 248.177 126.401 247.223 126.427 246.348C126.504 238.181 126.118 230.015 126.633 221.849L126.659 221.798Z" fill="#ECC29B"/>
<path d="M384.185 229.861C384.057 228.804 383.361 228.341 382.486 227.877C365.774 218.887 356.041 204.383 350.17 186.84C349.758 185.578 349.243 184.367 348.779 183.131C349.861 181.817 351.406 182.126 352.796 182.1C358.358 182.049 363.92 181.817 369.456 182.152C373.782 182.435 376.1 180.4 377.902 176.897C382.074 168.73 384.34 160.023 385.602 151.033C385.911 148.895 386.323 146.782 386.245 144.593C386.065 140.11 384.237 138.281 379.756 138.256C370.718 138.204 361.654 138.256 352.616 138.23C351.122 138.23 349.5 138.565 348.238 137.302C351.921 120.816 359.337 106.441 372.34 95.2867C373.86 95.1063 374.478 96.3171 375.224 97.2445C376.589 98.9189 378.005 99.1765 380.091 98.3779C396.159 92.2469 412.047 93.2258 427.677 99.9493C431.849 101.753 431.771 101.907 434.836 98.4037C435.608 97.5021 436.278 96.3171 437.797 96.6262C450.26 108.27 457.444 122.748 460.689 139.312C461.075 141.321 461.847 142.429 464.01 142.944C468.233 143.923 471.761 146.216 474.31 149.771C480.31 158.117 476.911 168.679 466.946 172.595C465.349 172.929 464.937 171.461 464.113 170.663C462.079 168.653 461.023 168.576 459.375 170.766C456.388 174.784 453.453 178.88 450.775 183.131C449.281 185.526 449.796 186.274 452.68 186.531C454.534 186.711 456.594 185.784 458.191 187.459C455.23 194.646 452.217 201.781 447.685 208.196C442.535 215.486 436.432 221.772 428.63 226.203C426.518 227.413 425.746 228.727 426.029 231.071C426.235 232.875 426.029 234.729 425.978 236.584C424.819 236.558 424.69 235.605 424.639 234.858C424.51 232.282 422.888 231.973 420.828 231.999C413.875 232.128 406.923 232.926 399.944 232.643C395.85 232.462 391.782 232.076 387.713 231.432C386.4 231.226 385.087 230.943 384.134 229.861H384.185Z" fill="#DB855F"/>
<path d="M269.932 250.856C266.069 251.912 262.052 251.422 258.112 251.963C255.589 252.298 252.988 252.092 250.413 252.015C239.418 251.706 228.474 253.071 217.479 252.633C215.651 252.556 214.904 253.123 214.955 255.055C215.058 261.907 214.466 260.387 220.131 261.907C235.427 266.08 249.383 272.855 261.486 283.288C270.704 291.249 278.97 299.956 285.098 310.543C285.51 311.239 286.463 311.883 286.025 312.656C285.51 313.557 284.326 313.042 283.476 313.042C243.152 313.042 202.853 313.042 162.528 313.042C144.632 313.042 126.736 313.016 108.84 313.068C106.342 313.068 105.518 312.913 107.063 310.234C113.835 298.436 122.642 288.518 133.328 280.068C145.199 270.666 158.537 264.56 173.189 261.108C175.738 260.516 177.36 256.575 175.918 254.488C175.197 253.432 174.039 253.895 173.06 253.844C161.859 253.38 150.709 254.643 139.508 254.462C137.036 254.411 134.564 254.488 132.092 254.462C131.113 254.462 130.006 254.823 129.208 253.818C130.083 252.891 131.268 252.968 132.375 252.994C145.611 253.38 158.82 251.963 172.056 252.35C173.472 252.401 174.94 252.195 176.33 252.71C177.798 253.664 177.592 255.184 177.592 256.6C177.592 259.795 177.824 262.937 178.107 266.106C178.339 268.399 179.163 269.996 181.274 270.923C191.909 275.509 201.823 273.474 211.273 267.574C212.973 266.492 213.436 264.689 213.488 262.757C213.565 260.207 213.462 257.657 213.539 255.08C213.591 253.792 213.385 252.376 214.749 251.474C215.599 251.062 216.526 250.985 217.453 251.01C230.148 251.113 242.843 250.16 255.537 250.341C259.838 250.418 264.086 249.413 268.387 249.903C268.979 250.057 269.545 250.263 269.932 250.778V250.856Z" fill="#FBF4EE"/>
<path d="M384.316 229.887C396.238 232.463 408.289 231.716 420.314 231.097C429.631 229.912 426.131 231.526 426.131 236.026C426.157 236.309 426.005 236.353 426.134 236.61C425.928 238.723 426.7 239.599 428.992 239.779C432.417 240.062 435.893 240.449 439.24 241.505C438.159 243.179 437.721 245.008 437.438 246.992C436.691 252.376 435.893 257.734 433.344 262.68C432.262 264.793 432.211 267.24 431.773 269.558C429.172 283.366 426.082 297.071 423.018 310.775C422.735 312.063 422.451 313.403 421.267 314.253C409.113 314.253 396.959 314.253 384.805 314.253C383.595 313.377 383.414 312.038 383.208 310.724C379.964 289.42 376.822 268.064 373.501 246.76C373.295 245.498 372.857 244.132 373.707 242.87C376.488 242.2 379.243 241.453 382.05 240.887C383.801 240.526 384.702 239.933 384.496 237.873C384.213 235.245 384.341 232.566 384.29 229.912L384.316 229.887Z" fill="#3123D1"/>
<path d="M463.11 246.348C472.56 248.305 481.985 250.263 491.435 252.221C494.319 252.814 495.297 255.029 495.735 257.605C497.126 265.823 498.001 274.092 498.284 282.413C498.619 292.382 498.439 302.326 497.898 312.295C497.821 313.815 497.512 314.407 495.838 314.382C478.972 314.279 462.131 314.279 445.265 314.253C444.209 313.119 444.853 311.883 445.136 310.749C449.437 293.644 454.123 276.668 458.475 259.589C459.35 256.111 460.226 252.633 461.179 249.181C461.488 248.048 461.539 246.657 463.136 246.373L463.11 246.348Z" fill="black"/>
<path d="M364.229 314.201C350.144 314.227 336.058 314.227 321.973 314.356C319.887 314.356 319.965 313.222 319.939 311.831C319.759 300.934 319.527 290.063 319.99 279.167C320.248 272.598 320.711 266.029 321.098 259.485C321.304 256.034 322.746 254.101 326.067 253.329C332.865 251.757 339.689 250.315 346.513 248.821C348.521 248.099 349.139 249.49 349.474 250.933C352.204 263.015 355.448 274.993 358.384 287.024C360.289 294.881 362.117 302.764 364.1 310.595C364.409 311.78 364.873 312.965 364.229 314.176V314.201Z" fill="black"/>
<path d="M421.162 314.227C424.973 297.818 428.527 281.356 431.694 264.792C432.518 260.413 435.196 256.523 435.685 251.964C435.994 249.13 436.664 246.348 437.024 243.514C437.204 242.174 437.719 241.453 439.11 241.453C446.577 242.406 453.968 243.823 461.229 245.884C462.105 246.786 461.641 247.713 461.384 248.743C456.98 266.647 452.165 284.448 447.427 302.274C446.371 306.267 445.959 310.492 443.874 314.201H421.162V314.227Z" fill="black"/>
<path d="M437.797 96.6263C435.865 97.8628 434.732 99.9237 433.213 101.547C432.209 102.629 431.385 102.835 430.097 102.088C418.922 95.6474 406.665 94.7458 394.228 95.4929C389.49 95.7762 384.674 96.7551 380.477 99.1509C377.593 100.8 375.945 99.8464 374.477 97.4764C373.937 96.6006 373.293 95.802 372.392 95.2868C370.589 91.5772 367.525 88.7693 365.182 85.4719C364.126 83.9778 363.946 83.4111 365.774 82.3034C373.731 77.5119 382.46 75.1161 391.55 73.8796C396.185 73.2356 400.923 72.5143 405.583 72.6946C417.454 73.2098 429.273 74.3433 439.882 80.6289C441.762 81.7366 443.333 83.1792 445.007 84.493C446.655 85.7553 447.324 87.2752 445.135 89.1557C442.509 91.4227 440.269 94.1275 437.848 96.6521L437.797 96.6263Z" fill="#F1EDED"/>
<path d="M268.671 245.858C268.491 244.209 268.928 242.741 267.409 240.989C266.482 239.933 266.894 236.636 266.791 234.343C266.637 230.968 267.358 227.568 266.276 224.271C266.044 223.575 266.765 222.57 265.555 222.184C263.881 221.669 264.68 223.755 262.929 224.219C264.602 220.638 262.929 217.341 263.65 213.992C264.062 212.112 262.826 210.463 262.903 208.428C263.083 203.018 262.259 197.583 262.336 192.173C262.388 188.515 262.285 184.651 261.487 181.353C260.92 179.009 261.564 177 261.203 174.887C259.864 167.005 260.457 158.967 259.839 151.033C259.504 146.628 259.092 142.249 258.654 137.869C258.5 136.324 258.01 134.495 258.937 131.996C256.079 134.726 253.324 133.181 250.878 133.335C245.341 133.696 239.754 133.799 234.166 133.902C227.471 134.031 220.802 134.417 214.132 134.495C211.918 134.495 210.527 135.319 209.008 136.942C207.798 138.256 206.665 140.162 204.476 140.368C204.219 138.745 205.532 138.05 206.433 137.174C210.347 133.335 214.158 129.42 217.377 124.937C217.737 124.551 218.149 124.242 218.613 123.984C219.463 123.546 220.39 123.495 221.317 123.495C229.711 123.443 238.106 122.464 246.5 122.876C249.461 123.031 252.345 121.588 255.332 122.516C255.667 122.722 256.028 122.902 256.362 123.108C258.242 123.778 260.199 123.34 262.13 123.417C265.607 123.521 268.362 126.303 267.976 129.78C267.667 132.382 267.847 134.829 268.671 137.277C268.851 137.715 269.031 138.153 269.212 138.591C270.01 142.403 269.83 146.345 270.01 150.183C270.267 156.005 270.576 161.827 270.937 167.623C271.503 177 271.632 186.402 272.559 195.754C272.971 199.927 272.662 204.1 273.177 208.299C273.692 212.524 273.126 216.877 273.615 221.154C270.654 223.498 271.117 226.769 271.555 229.809C272.147 233.957 271.761 238.207 272.688 242.329C273.1 244.184 271.864 245.137 270.602 246.064C270.113 246.296 269.649 246.322 269.134 246.167C269.006 246.064 268.877 245.961 268.722 245.858H268.671Z" fill="#EBC19A"/>
<path d="M373.601 242.844C374.837 250.675 376.073 258.507 377.309 266.338C379.137 277.982 380.914 289.626 382.717 301.27C383.386 305.597 384.03 309.899 384.674 314.227C378.313 314.227 371.953 314.227 365.593 314.227C364.846 313.635 364.511 312.836 364.28 311.909C359.284 291.558 354.057 271.284 349.242 250.882C349.01 249.928 348.83 249.104 349.396 248.254C357.404 246.193 365.464 244.364 373.575 242.844H373.601Z" fill="black"/>
<path d="M348.263 137.277C359.052 137.277 369.842 137.277 380.657 137.277C384.596 137.277 387.3 139.467 387.146 143.331C386.656 156.391 383.824 168.885 376.949 180.22C375.713 182.255 374.09 183.131 371.644 183.079C364.048 182.951 356.426 183.079 348.83 183.079C347.388 183.079 345.946 182.925 344.529 183.079C341.13 183.414 339.225 181.534 338.427 178.649C335.156 166.618 331.5 154.665 331.68 141.965C331.732 138.539 332.195 137.818 335.697 137.663C339.894 137.483 344.092 137.406 348.289 137.277H348.263Z" fill="#3123D1"/>
<path d="M269.906 245.858C270.756 244.544 272.017 243.926 271.554 241.479C270.55 236.301 270.936 230.84 270.472 225.533C270.266 223.214 270.962 222.029 273.202 221.669C273.768 221.308 274.283 221.308 274.747 221.849C273.562 222.39 272.893 223.086 272.996 224.58C273.434 230.556 273.665 236.559 274.103 242.535C274.18 243.72 273.794 244.725 273.665 245.832C272.841 248.305 271.477 250.237 268.721 250.753C250.645 251.165 232.568 251.603 214.492 252.015C213.591 252.865 213.436 253.973 213.41 255.106C213.359 256.446 213.333 257.785 213.41 259.099C213.822 268.09 213.977 267.059 204.99 271.258C201.231 273.01 197.008 273.19 192.785 273.216C188.768 273.216 184.931 272.675 181.094 271.722C175.609 270.331 177.618 265.565 176.974 262.139C176.433 259.279 176.82 256.24 176.794 253.277C171.824 252.35 166.803 253.123 161.807 252.865C157.919 251.989 154.005 251.551 150.168 253.071C144.066 253.973 137.911 253.406 131.783 253.406C129.44 253.406 128.023 251.345 128.049 248.872C128.513 248.228 130.315 249.619 129.903 247.636C130.006 247.636 130.135 247.558 130.212 247.61C134.718 250.933 139.74 250.418 144.915 249.903C149.705 249.439 154.572 249.903 159.387 249.774C175.481 249.31 191.574 248.975 207.668 248.589C209.342 248.537 211.196 248.177 212.715 249.8C210.99 250.933 209.162 250.212 207.72 250.392C210.192 250.572 212.664 250.109 215.342 249.104C218.612 247.867 222.397 247.893 225.976 247.971C239.624 248.305 253.271 247.043 266.919 247.327C267.073 247.327 267.228 247.327 267.382 247.275C267.666 247.223 267.975 247.198 268.284 247.223C268.541 247.043 269.339 248.305 269.133 246.889C269.185 246.296 269.648 246.064 270.009 245.755L269.906 245.858Z" fill="#ECC39B"/>
<path d="M274.723 221.875C274.208 221.824 273.693 221.746 273.178 221.695C272.045 216.646 272.354 211.494 272.071 206.367C270.86 184.857 269.779 163.347 268.697 141.811C268.646 140.755 268.182 139.544 269.161 138.591C286.362 162.059 297.589 188.335 306.086 215.95C307.013 218.939 305.288 219.505 302.971 219.814C293.598 221.051 284.147 221.463 274.723 221.849V221.875Z" fill="#35302D"/>
<path d="M127.148 174.398C126.994 174.398 126.865 174.424 126.736 174.501C118.29 166.077 114.145 156.159 116.179 144.103C117.389 136.993 120.556 130.733 125.5 125.659C143.731 107.008 165.954 102.268 190.905 107.652C191.884 108.425 192.991 107.935 194.073 107.961C194.768 107.961 195.36 108.09 195.309 108.991C193.48 110.099 191.472 110.486 189.412 110.099C185.086 109.326 180.76 108.502 176.331 109.094C176.022 109.146 175.687 109.172 175.404 109.043C168.426 105.823 162.091 109.764 155.576 110.975C148.006 112.392 141.337 116.359 135.079 120.687C127.715 125.762 122.539 132.717 119.578 141.27C118.471 144.464 116.823 147.607 117.775 151.084C118.805 154.846 119.372 158.787 121.329 162.213C122.642 164.506 123.157 167.211 125.243 169.117C126.968 170.688 128.565 172.157 131.14 171.796C131.835 171.693 132.582 171.925 132.994 172.646C131.603 175.093 129.363 174.733 127.123 174.424L127.148 174.398Z" fill="#0D0E11"/>
<path d="M458.216 187.459C456.053 187.407 453.915 187.407 451.752 187.33C448.843 187.227 448.019 185.836 449.641 183.388C452.705 178.803 455.898 174.295 459.143 169.813C460.868 167.417 462.207 167.494 464.344 169.632C465.271 170.56 465.657 172.002 466.945 172.595C468.67 175.995 471.271 178.777 473.46 181.869C474.361 183.131 475.468 184.367 474.644 186.042C473.846 187.613 472.275 187.407 470.833 187.433C466.61 187.433 462.413 187.433 458.19 187.459H458.216Z" fill="#E6A000"/>
<path d="M255.306 122.542C254.482 123.649 253.246 123.289 252.164 123.314C241.89 123.701 231.616 124.036 221.367 124.396C220.234 124.448 219.101 124.268 218.046 124.86C217.479 123.237 218.792 123.16 219.719 123.005C221.831 122.645 223.942 122.181 226.131 122.284C233.933 122.619 241.684 121.795 249.77 121.563C247.658 119.399 245.289 117.879 243.178 116.101C241.607 114.788 239.882 113.68 238.517 112.108C238.053 111.568 237.487 111.052 236.792 110.846C229.427 108.399 222.191 105.514 214.235 105.436C209.651 105.411 205.248 106.08 200.999 107.806C198.913 108.657 196.853 108.94 194.742 108.013C194.381 108.013 194.098 107.884 193.918 107.6C203.651 101.933 213.951 100.903 224.741 103.736C236.843 106.905 246.422 114.169 255.332 122.542H255.306Z" fill="#342F2C"/>
<path d="M349.423 248.254C351.123 257.141 353.518 265.848 355.706 274.633C358.977 287.848 362.324 301.038 365.62 314.227C365.157 314.227 364.693 314.227 364.23 314.227C359.131 293.515 354.033 272.804 348.883 252.092C348.548 250.778 348.831 248.821 346.514 248.872C347.363 248.099 348.419 248.305 349.449 248.28L349.423 248.254Z" fill="#E7555E"/>
<path d="M443.9 314.227C446.321 304.979 448.716 295.705 451.136 286.457C454.432 273.757 457.728 261.057 461.024 248.357C461.23 247.584 461.179 246.734 461.256 245.936C461.925 245.858 462.595 245.858 463.11 246.373C460.483 253.432 459.041 260.851 457.084 268.116C453.093 282.851 449.334 297.689 445.497 312.475C445.342 313.068 445.342 313.686 445.265 314.279C444.802 314.279 444.364 314.279 443.9 314.279V314.227Z" fill="#E7555E"/>
<path d="M127.947 248.95C129.054 251.706 130.805 253.484 134.075 253.277C139.431 252.943 144.839 253.896 150.169 252.659C153.877 251.603 157.585 251.655 161.267 252.659C165.465 252.659 169.662 252.659 173.859 252.659C174.838 252.659 175.945 252.273 176.666 253.355C164.409 252.762 152.152 253.87 139.895 253.87C136.316 253.87 132.736 253.87 129.157 253.87C126.891 252.582 125.964 250.624 126.016 248.022C126.119 240.062 126.093 232.076 126.119 224.116C126.119 223.318 125.964 222.468 126.634 221.798C126.634 227.259 126.685 232.72 126.685 238.182C126.685 240.758 126.608 243.308 126.737 245.884C126.788 246.966 127.071 248.1 127.921 248.95H127.947Z" fill="#EFCBA9"/>
<path d="M268.619 137.303C267.331 135.654 267.434 133.696 267.434 131.764C267.434 125.942 265.271 123.778 259.503 123.727C258.422 123.727 257.237 124.139 256.336 123.134C258.782 123.134 261.228 123.031 263.675 123.083C267.074 123.134 269.108 125.144 268.593 128.544C268.155 131.507 268.258 134.392 268.593 137.303H268.619Z" fill="#EECAA8"/>
<path d="M268.67 250.779C270.833 249.645 272.429 247.971 273.614 245.858C273.485 248.357 272.301 250.057 269.932 250.856C269.52 250.83 269.082 250.804 268.67 250.779Z" fill="#F2D4B8"/>
<path d="M193.996 108.322C192.94 108.193 191.73 108.837 190.932 107.652C191.91 107.652 192.914 107.626 193.893 107.601L194.099 107.832C194.253 108.039 194.228 108.219 193.996 108.348V108.322Z" fill="#342F2C"/>
<path d="M239.289 174.243C242.894 178.004 243.796 183.079 241.658 187.819C240.113 191.271 237.744 194.182 234.397 195.908C228.114 199.154 221.496 201.112 214.338 199.102C212.406 198.072 212.02 196.011 211.84 194.285C211.248 189.004 210.449 183.723 210.449 178.391C210.449 178.185 210.449 177.979 210.449 177.773C210.501 175.609 208.879 173.213 210.99 171.358C213.308 169.323 216.269 168.705 219.23 168.499C226.595 167.983 233.547 169.091 239.315 174.243H239.289Z" fill="#010101"/>
<path d="M268.053 247.713C267.461 248.486 266.585 248.331 265.787 248.331C252.345 248.125 238.904 249.413 225.437 248.975C222.166 248.872 218.201 248.615 215.806 249.903C211.738 252.092 208.21 249.903 204.502 250.263H211.712C211.712 250.057 211.712 249.825 211.712 249.619C206.922 249.619 202.056 249.181 197.343 249.748C192.502 250.315 187.713 250.083 182.898 250.212C177.799 250.366 172.701 250.315 167.576 250.753C162.066 251.216 156.478 251.01 150.916 250.804C146.487 250.65 142.11 251.268 137.732 251.5C134.333 251.68 131.913 250.109 129.775 247.765C129.853 245.549 133.535 242.69 135.724 243.231C136.522 243.437 136.779 244.107 136.264 244.905C135.312 246.348 135.312 246.554 136.831 246.502C142.856 246.27 148.882 246.734 154.959 246.09C160.753 245.472 166.675 245.858 172.52 245.936C177.799 246.013 182.898 243.823 188.228 244.648C188.769 244.725 189.618 244.647 189.103 243.669C188.872 243.256 187.61 243.308 188.331 242.509C188.897 241.917 189.85 242.123 190.597 242.587C194.794 245.163 199.481 245.781 204.167 245.111C208.107 244.544 212.15 245.06 216.089 243.72C216.141 243.54 215.858 243.463 215.6 243.437C214.802 243.359 213.875 243.591 213.514 242.561C213.463 242.381 213.72 241.968 213.926 241.84C214.802 241.299 215.446 241.891 216.141 242.355C216.63 242.69 217.248 243.205 217.763 243.179C221.265 242.87 224.407 244.751 227.909 244.699C236.226 244.57 244.569 244.699 252.886 244.622C255.538 244.622 258.165 244.184 260.817 244.055C261.796 244.003 262.903 243.694 263.701 244.648C263.83 245.704 263.263 246.193 262.311 246.167C260.74 246.116 259.118 246.399 257.547 245.936C260.972 246.863 264.886 245.137 268.001 247.713H268.053Z" fill="#EBC19A"/>
<path d="M183.361 233.493C172.263 233.571 161.937 224.503 160.701 213.503C160.444 211.21 159.774 208.943 160.418 206.496C161.01 204.255 162.066 202.761 164.358 203.173C166.649 203.559 167.267 205.517 167.113 207.655C166.598 214.353 169.07 219.763 174.58 223.498C184.958 230.557 198.142 223.55 199.481 210.412C199.532 209.793 199.481 209.149 199.635 208.583C200.124 206.985 201.077 205.749 202.88 205.878C204.888 206.032 206.073 207.372 206.201 209.304C206.433 212.524 205.506 215.615 204.373 218.578C201 227.517 192.657 233.416 183.335 233.467L183.361 233.493Z" fill="#B7645A"/>
<path d="M212.021 196.655C211.634 197.068 212.175 198.484 210.862 197.866C206.51 195.857 201.849 194.311 200.15 188.979C198.45 183.672 200.613 179.576 203.961 175.841C205.583 174.063 207.308 172.234 209.909 171.771C210.785 173.316 210.733 175.197 210.759 176.742C210.862 183.105 212.124 189.391 212.175 195.754C212.175 196.063 212.072 196.346 211.995 196.63L212.021 196.655Z" fill="#EEECEB"/>
<path d="M127.149 174.398C129.286 174.424 131.295 174.089 132.866 172.466C132.994 170.792 134.462 170.998 135.389 170.895C149.037 169.375 161.191 163.501 173.319 157.757C183.67 152.862 192.94 146.164 201.773 138.951C206.614 135.01 210.991 130.553 214.416 125.273C215.137 124.165 216.064 123.392 217.506 124.242C217.712 124.706 217.763 125.144 217.403 125.556C213.978 131.275 208.957 135.628 204.399 140.368C188.898 153.377 171.568 163.141 152.358 169.607C145.226 172.002 137.938 173.677 130.522 174.862C129.389 175.042 128.076 175.66 127.098 174.372L127.149 174.398Z" fill="#191513"/>
<path d="M128.565 191.22C128.565 192.224 128.668 192.843 128.565 193.435C128.23 195.084 129.569 197.325 127.148 198.252C125.5 198.871 121.715 196.733 120.711 194.852C118.728 191.014 121.458 184.805 125.629 183.517C127.045 183.079 127.663 183.646 128.127 184.934C128.899 187.124 128.384 189.391 128.59 191.246L128.565 191.22Z" fill="#B98E64"/>
<path d="M212.021 196.655C211.326 188.36 210.631 180.091 209.936 171.796C211.378 169.607 213.772 169.143 216.013 168.653C223.377 167.056 230.458 167.778 236.922 171.925C237.849 172.518 238.827 173.162 239.265 174.269C235.325 172.208 231.72 169.607 227.008 169.143C222.27 168.679 217.738 168.55 213.206 170.457C211.043 171.358 210.502 172.595 210.708 174.681C211.326 181.044 211.918 187.433 212.485 193.796C212.665 195.728 212.948 197.608 214.287 199.154C212.305 199.463 212.614 197.66 211.996 196.681L212.021 196.655Z" fill="#191818"/>
<path d="M268.052 247.713C264.55 247.249 261.151 246.167 256.902 246.554C259.477 245.06 262.181 247.12 263.726 244.647C264.782 243.952 265.786 244.081 266.327 245.188C266.919 246.399 267.795 245.961 268.67 245.884C269.031 246.683 268.516 247.198 268.052 247.739V247.713Z" fill="#EBC19A"/>
<path d="M239.574 244.055C240.424 242.664 243.076 244.75 242.535 241.891C242.535 241.891 243.205 241.608 243.308 241.711C244.904 243.488 247.17 242.38 249.05 243.359C246.037 244.39 242.87 243.823 239.574 244.055Z" fill="#EBC19A"/>
<path d="M119.734 186.995C120.043 189.03 117.905 190.344 118.678 192.302C116.875 190.344 117.133 189.211 119.734 186.995Z" fill="#EEC9A6"/>
<path d="M265.607 233.364C265.607 232.566 265.607 231.793 265.607 230.994C265.607 230.608 265.685 230.247 265.813 229.14C266.38 231.046 266.251 232.257 265.607 233.339V233.364Z" fill="#EBC19A"/>
<path d="M146.95 245.188C146.667 245.446 146.487 245.703 146.281 245.729C146.049 245.729 145.637 245.626 145.56 245.446C145.379 244.982 145.714 244.725 146.152 244.75C146.384 244.75 146.615 244.982 146.95 245.188Z" fill="#EBC19A"/>
<path d="M434.783 182.384C434.783 194.259 427.316 203.43 415.883 204.873C405.583 206.161 396.544 198.484 394.021 188.824C393.609 187.201 394.021 185.707 395.875 185.114C397.729 184.522 398.888 185.526 399.531 187.072C400.355 189.056 401.102 191.091 402.467 192.791C406.175 197.505 410.965 200.159 416.99 198.742C423.711 197.17 427.084 192.224 428.552 185.707C429.504 181.508 428.449 177.618 427.033 173.728C426.466 172.157 426.105 170.328 428.14 169.503C430.019 168.756 431.539 169.503 432.414 171.384C432.749 172.131 433.161 172.852 433.418 173.625C434.294 176.459 434.964 179.37 434.835 182.384H434.783Z" fill="#E190BD"/>
<path d="M379.113 119.244C384.418 119.116 389.001 120.326 393.224 122.954C395.078 124.113 396.778 125.53 395.31 127.9C393.945 130.09 392.04 129.317 390.186 128.286C382.976 124.268 375.792 123.881 368.71 128.621C367.011 129.781 365.234 130.322 363.818 128.441C362.35 126.509 363.535 124.938 365.08 123.701C369.277 120.378 374.169 119.116 379.113 119.219V119.244Z" fill="#060504"/>
<path d="M469.907 158.349C469.907 161.904 467.615 164.764 464.216 165.846C462.465 166.412 461.899 165.742 461.899 164.197C461.873 159.998 461.358 155.85 460.714 151.729C460.457 150.106 461.075 149.462 462.826 149.822C466.868 150.698 469.933 154.33 469.933 158.349H469.907Z" fill="#B16644"/>
<path d="M180.993 271.799C182.976 271.928 185.087 271.258 186.89 272.752C187.224 273.01 187.997 273.113 188.332 272.907C190.778 271.516 193.327 272.958 195.619 272.649C198.941 272.211 202.597 272.469 205.661 270.563C207.206 269.61 208.751 268.734 210.477 268.09C213.721 266.827 212.434 263.839 212.562 261.495C212.691 259.254 212.562 257.013 212.434 254.771C212.331 253.252 213.077 252.504 214.391 252.092C214.391 255.57 214.339 259.048 214.339 262.5C214.339 265.359 213.386 267.574 210.734 269.069C201.181 274.375 191.396 276.41 180.941 271.825L180.993 271.799Z" fill="#EDC5A1"/>
<path d="M217.429 125.582C217.429 125.169 217.429 124.783 217.429 124.371C214.03 120.584 210.348 117.132 205.919 114.479C203.292 112.881 200.588 111.516 197.601 110.769C196.649 110.537 195.258 110.563 195.207 108.966C194.949 108.451 194.486 108.373 193.971 108.348C193.971 108.167 194.022 108.013 194.074 107.832C198.786 108.76 202.7 105.849 207.077 105.153C212.33 104.303 217.455 104.587 222.605 105.668C226.313 106.441 229.789 108.09 233.342 108.966C241.351 110.975 244.878 118.523 251.908 121.46C250.93 122.954 250.028 122.516 249.307 122.516C240.99 122.542 232.724 123.418 224.407 123.289C222.347 123.263 219.721 122.774 217.995 124.912C217.789 125.144 217.609 125.375 217.403 125.607L217.429 125.582Z" fill="#2B2623"/>
<path d="M268.053 247.713C268.259 247.095 268.465 246.477 268.671 245.858H269.907C269.701 246.271 269.495 246.683 269.289 247.095C269.211 247.43 269.005 247.636 268.671 247.713H268.053V247.713Z" fill="#EBC19A"/>
<path d="M364.873 287.333C364.873 284.268 367.216 281.769 370.126 281.692C373.139 281.614 375.817 284.242 375.843 287.307C375.868 290.399 373.319 292.872 370.126 292.82C366.985 292.769 364.873 290.579 364.873 287.307V287.333Z" fill="#F6C35D"/>
<path d="M359.8 146.551C365.465 146.551 371.104 146.628 376.769 146.499C378.726 146.448 379.241 147.092 379.189 148.947C378.829 158.04 374.941 165.949 370.975 173.831C370.357 175.068 369.095 174.836 367.988 175.016C362.761 175.815 357.534 175.042 352.306 174.939C348.015 174.853 345.277 172.758 344.092 168.654C342.212 162.136 340.848 155.541 340.41 148.766C340.307 147.015 340.693 146.396 342.521 146.448C348.264 146.551 354.032 146.474 359.8 146.474V146.525V146.551Z" fill="#040505"/>
<path d="M161.268 252.633C157.56 252.633 153.852 252.633 150.17 252.633C150.35 252.298 150.53 251.68 150.736 251.654C153.981 251.294 157.251 251.139 160.47 251.757C160.779 251.809 161.011 252.324 161.268 252.633V252.633Z" fill="#EBC19A"/>
<path d="M187.094 250.959C185.318 252.943 183.515 252.994 181.738 250.959H187.094Z" fill="#EBC19A"/>
<path d="M240.578 249.697C237.54 251.088 234.939 249.98 232.312 249.697H240.578Z" fill="#EBC19A"/>
<path d="M264.912 249.156C262.285 250.135 259.71 249.207 257.109 249.156H264.912Z" fill="#EBC19A"/>
<path d="M247.659 250.418C245.883 250.959 244.698 250.83 243.514 250.418H247.659Z" fill="#ECC29B"/>
<path d="M271.58 227.645C270.911 226.718 271.168 226.048 271.426 225.172C272.739 226.126 271.966 226.77 271.58 227.645Z" fill="#EBC19A"/>
<path d="M268.67 247.713C268.876 247.507 269.082 247.301 269.288 247.095C269.906 247.584 269.623 248.537 269.391 248.64C268.67 248.924 268.747 248.177 268.67 247.713Z" fill="#ECC29B"/>
<path d="M269.598 143.459C274.207 149.153 278.095 155.258 281.468 161.698C284.842 168.138 288.241 174.604 291.202 181.25C295.837 191.606 299.365 202.4 303.304 213.013C303.768 214.276 302.789 216.105 304.849 216.852C305.287 217.006 304.978 218.397 304.025 218.294C295.657 217.47 287.468 220.175 279.125 219.299C277.374 219.119 275.494 220.87 274.13 219.531C272.842 218.294 273.795 216.182 273.615 214.482C272.791 207.372 272.713 200.21 272.353 193.049C271.683 180.4 270.756 167.778 269.958 155.129C269.701 151.265 270.37 147.349 269.623 143.459H269.598Z" fill="#2B2623"/>
<path d="M195.205 108.966C199.274 110.537 203.574 111.619 207.128 114.324C210.99 117.235 215.471 119.528 217.428 124.396C216.475 124.396 215.522 124.422 215.11 125.478C213.72 128.904 210.733 131.068 208.415 133.748C201.772 141.45 193.197 146.602 184.828 152.038C171.618 160.642 157.147 166.515 141.98 170.714C138.993 171.538 135.723 170.92 132.865 172.466C128.384 173.78 124.728 171.204 123.157 168.112C121.097 164.094 118.496 159.998 118.11 155.232C117.955 153.377 116.616 151.986 116.745 149.977C117.26 142.274 120.376 135.628 124.882 129.626C134.101 117.312 147.362 111.774 161.808 108.528C164.357 107.961 167.009 107.987 169.455 106.647C170.357 106.132 172.03 105.952 172.88 107.111C174.039 108.682 175.635 108.502 177.077 108.27C181.326 107.549 185.395 108.476 189.463 109.429C191.472 109.893 193.248 108.554 195.231 108.966H195.205Z" fill="#030303"/>
<path d="M460.713 175.532C461.254 174.604 461.821 173.574 462.902 175.016C464.859 177.618 466.765 180.22 468.902 183.105C465.529 183.724 462.516 183.337 459.503 183.389C457.829 180.452 460.044 178.108 460.713 175.506V175.532Z" fill="#5F5CE9"/>
<path d="M460.714 175.531C460.997 178.262 459.401 180.709 459.504 183.414C458.216 183.543 456.929 183.723 455.178 183.208C457.109 180.555 458.912 178.056 460.714 175.557V175.531Z" fill="#DD8C61"/>
<path d="M215.523 181.946C215.935 184.96 216.321 187.948 216.759 190.962C216.939 192.199 216.887 193.384 216.141 194.44C214.544 195.547 214.312 194.259 214.106 193.203C213.926 192.224 214.261 191.168 213.823 190.189C213.823 189.854 213.823 189.519 213.823 189.185C213.102 187.046 213.488 184.831 213.54 182.667C213.566 181.302 214.467 181.018 215.548 181.997L215.523 181.946Z" fill="#EBE6E2"/>
<path d="M213.386 175.042C214.622 174.707 215.601 174.785 215.755 176.382C215.91 178.108 215.06 178.778 213.412 178.571C212.331 177.412 212.459 176.227 213.412 175.042H213.386Z" fill="#E4DFDB"/>
<path d="M215.522 181.946C214.055 181.353 213.437 181.946 213.514 183.44C213.591 185.346 213.694 187.253 213.797 189.133C212.458 186.918 213.05 184.47 213.256 182.178C213.385 180.761 214.595 180.684 215.522 181.946V181.946Z" fill="#191818"/>
<path d="M213.823 190.138C214.956 191.374 212.819 194.362 216.141 194.414C214.75 196.243 214.106 194.929 213.849 193.718C213.591 192.585 213.823 191.348 213.849 190.138H213.823Z" fill="#191818"/>
<path d="M213.386 175.042C212.897 176.227 212.716 177.386 213.386 178.571C210.837 177.412 212.304 176.227 213.386 175.042Z" fill="#191818"/>
</g>
<defs>
<clipPath id="clip0_5484_43234">
<rect width="595" height="297" fill="white"/>
</clipPath>
</defs>
</svg>
