<svg width="591" height="285" viewBox="0 0 591 285" fill="none" xmlns="http://www.w3.org/2000/svg">
<g clip-path="url(#clip0_5114_47314)">
<path d="M590.951 0.738883C590.951 94.5809 590.951 188.448 591 282.29C591 284.507 590.508 285 588.291 285C554.555 284.926 520.819 284.951 487.083 284.951C485.728 283.398 485.999 281.625 486.369 279.851C486.492 279.333 486.812 278.89 487.009 278.397C487.649 276.574 487.403 274.702 487.354 272.854C487.23 265.684 487.772 258.515 487.058 251.37C486.812 250.705 486.516 250.089 486.319 249.424C485.901 247.404 485.975 245.359 486.024 243.314C486.221 240.776 486.615 238.214 485.31 235.8C484.472 232.893 483.98 229.912 483.093 227.029C482.995 226.142 483.586 225.502 483.931 224.762C484.005 224.442 484.202 224.023 483.734 223.851C483.438 223.752 483.266 224.048 483.143 224.294C482.896 224.935 482.576 225.502 481.911 225.797C481.641 225.871 481.37 225.92 481.074 225.92C480.089 225.699 479.104 225.649 478.095 225.699C477.504 225.699 476.937 225.576 476.371 225.428C475.238 224.861 473.982 224.565 472.849 223.999C472.135 223.112 471.47 222.102 470.116 223.087C469.082 223.358 468.048 223.284 467.013 223.26C466.545 223.26 466.102 223.136 465.684 222.939C464.231 221.806 462.556 222.126 460.931 222.2C459.207 222.151 457.533 221.855 456.08 220.845C455.193 219.638 453.888 219.712 452.608 219.761C451.869 219.761 451.106 219.761 450.367 219.835C448.594 219.835 446.969 219.392 445.491 218.382C443.595 216.164 441.428 214.858 438.374 216.115C437.685 216.386 436.823 216.213 436.06 216.213C435.173 216.213 434.287 216.213 433.376 216.213C432.464 216.213 431.529 216.312 430.667 215.967C430.371 215.869 430.1 215.745 429.854 215.598C428.845 214.785 427.663 215.056 426.505 215.056C425.397 215.203 424.314 215.105 423.23 214.883C421.605 214.144 419.463 214.76 418.182 213.06C417.714 212.296 417.542 211.459 417.591 210.572C417.763 208.699 417.616 206.827 417.665 204.954C417.689 204.117 417.665 203.279 417.936 202.491C419.118 200.815 420.275 199.042 422.787 199.657C422.984 199.731 423.058 200.027 423.353 200.002C423.23 200.052 423.132 199.978 423.033 199.756C422.861 199.386 422.91 199.066 423.082 198.721C424.289 197.908 425.643 197.243 426.505 196.011C430.618 191.872 435.075 188.078 438.301 183.101C440.049 180.391 441.329 177.435 443.102 174.75C443.693 173.863 444.038 172.803 445.023 172.237C446.082 171.867 446.008 170.882 446.23 170.044C446.378 169.65 446.599 169.305 446.993 169.108C449.776 169.428 448.274 171.374 448.618 173.271C448.692 171.054 448.495 169.305 449.48 167.802C449.776 166.003 450.293 164.402 452.534 164.279C453.322 164.501 453.814 165.067 454.233 165.732C454.381 166.127 454.381 166.545 454.307 166.964C454.479 168.763 455.957 168.319 456.966 168.369C459.749 168.516 462.532 168.418 465.339 168.467C466.447 168.64 467.26 168.295 467.58 167.137C467.703 166.89 467.851 166.693 468.023 166.472C469.697 164.624 468.589 164.057 466.792 163.811C466.078 163.564 465.536 163.096 465.191 162.431C463.369 158.538 459.847 155.779 458.099 151.837C457.73 150.975 456.819 150.31 457.336 149.201C458.271 148.265 459.478 147.846 460.66 147.403C463.197 147.082 463.935 144.914 465.093 143.165C465.191 142.795 465.29 142.426 465.462 142.081C466.004 141.391 466.201 140.578 466.201 139.716C466.25 139.346 466.373 138.977 466.521 138.607C466.619 138.361 466.767 138.139 466.915 137.917C467.481 136.39 467.58 134.862 466.792 133.359C466.619 133.138 466.496 132.916 466.373 132.67C465.29 129.935 463.812 127.471 461.497 125.574C460.611 124.86 459.7 124.071 459.527 122.79C459.601 121.558 460.635 121.041 461.374 120.253C459.921 121.435 458.419 122.322 456.498 121.386C456.277 121.213 456.104 120.992 456.006 120.721C456.228 117.616 459.626 117.838 460.808 115.843C460.291 115.99 459.552 116.064 458.912 116.434C455.046 118.602 452.977 117.69 451.82 113.28C451.721 112.886 451.426 112.615 451.106 112.393C450.712 112.221 450.367 111.975 450.071 111.679C449.012 110.422 448.495 108.969 448.397 107.368C448.397 106.481 448.52 105.594 447.855 104.855C447.707 104.657 447.609 104.411 447.486 104.189C447.289 103.302 446.747 102.588 446.23 101.849C445.245 99.7301 443.89 97.7591 443.669 95.3447C443.964 93.8911 442.905 93.3984 441.871 92.9056C438.768 87.7565 434.361 83.6175 431.012 78.6655C430.79 77.68 430.322 76.7931 430.1 75.8322C430.839 73.1961 433.179 71.8657 434.878 70.0179C437.217 67.4557 437.242 66.9629 434.533 64.6471C430.642 61.3457 426.087 59.227 421.235 57.9458C402.447 52.9938 383.978 53.7329 365.952 61.395C359.944 63.9572 360.018 63.9326 363.859 69.1064C365.46 71.2498 367.922 72.9251 368.021 75.9801C362.16 80.0944 358.319 85.9827 354.329 91.7231C353.738 92.5114 353.32 93.3737 352.926 94.2607C351.719 96.3794 350.956 98.6953 349.798 100.839C349.355 101.652 349.109 102.489 347.951 102.292C346.794 101.824 346.819 100.1 345.44 99.9272C344.701 101.085 342.928 101.011 342.534 102.563C342.238 103.672 342.189 104.682 343.125 105.495C343.962 105.594 344.799 104.928 345.661 105.446C346.252 105.865 346.72 106.382 346.966 107.097C346.819 110.028 346.154 112.812 344.504 115.276C344.036 115.769 343.494 116.089 342.879 116.311C340.662 116.779 338.348 116.163 336.156 116.951C334.088 117.395 331.945 117.001 329.901 117.567C329.655 117.666 329.409 117.764 329.163 117.838C328.128 118.651 328.867 120.154 327.931 120.992C327.02 121.608 326.355 121.041 325.592 120.598C325.099 120.302 324.558 119.464 323.917 120.376C323.4 121.115 324.164 121.583 324.459 122.125C324.632 122.519 324.656 122.938 324.558 123.357C324.311 124.096 323.277 124.539 325.05 125.377C326.996 126.289 326.405 129.196 327.045 131.191C327.39 132.251 327.414 133.704 326.725 134.862C326.38 135.207 326.035 135.552 325.961 136.07C326.035 135.601 326.306 135.257 326.626 134.936C327.168 134.296 327.045 133.532 327.119 132.793C327.217 131.684 327.685 130.994 328.966 131.339C330.689 132.891 330.739 135.035 331.009 137.104C330.837 138.287 330.911 139.445 331.551 140.504C332.315 142.401 332.979 144.323 333.275 146.368C333.275 146.639 333.275 146.91 333.275 147.205C333.373 148.043 332.93 148.955 333.718 149.694C333.915 149.866 334.063 150.063 334.186 150.285C334.9 152.601 335.664 154.892 336.575 157.134C336.821 158.021 336.722 159.253 338.249 159.007C340.589 159.154 342.953 158.563 345.243 159.45C347.262 161.791 347.582 164.845 348.567 167.629C348.567 168.64 348.764 169.6 349.503 170.364C350.931 173.838 353.788 176.647 354.329 180.539C354.255 181.254 354.723 181.5 355.339 181.648C356.964 182.362 357.26 184.136 358.319 185.294C358.934 186.156 359.23 187.24 360.19 187.856C364.721 193.104 370.04 197.366 376.098 200.741C376.886 201.185 377.526 201.776 377.896 202.614C378.487 204.536 377.723 206.753 379.151 208.502C379.545 210.843 380.333 213.282 377.575 214.834C374.743 215.277 371.788 214.538 368.981 215.696C368.021 216.09 367.257 215.179 366.42 214.809C367.06 215.425 367.282 216.066 366.962 216.879C365.534 218.702 363.293 218.431 361.372 218.948C357.531 219.983 353.689 220.993 349.7 221.215C348.345 221.338 346.819 218.948 345.637 221.51C345.218 221.929 344.75 222.25 344.208 222.496C342.977 223.087 341.697 223.334 340.342 223.309C338.028 223.752 336.378 221.387 334.038 221.757C335.467 221.88 337.092 221.584 337.141 223.752C336.698 224.171 336.156 224.344 335.565 224.418C334.334 224.27 333.275 224.639 332.265 225.304C329.754 226.093 327.193 226.635 324.632 227.177C320.593 228.064 319.46 229.468 319.239 233.533C319.165 234.691 319.14 235.874 318.623 236.958C317.269 241.023 318.057 245.162 318.18 249.252C318.303 259.845 318.229 270.439 318.229 281.033C318.229 282.413 318.131 283.793 317.072 284.877H0.738984C0.197234 283.866 0.468109 282.758 0.468109 281.698C0.468109 189.137 0.468109 96.5765 0.468109 4.01559C0.443484 0.0490488 0.000234301 0.44324 4.06336 0.44324C198.625 0.44324 393.188 0.44324 587.725 0.44324C588.784 0.44324 589.892 0.172234 590.926 0.714246L590.951 0.738883Z" fill="#B2B2B2"/>
<path d="M418.527 210.621L418.724 213.036C418.946 213.381 418.995 213.725 418.847 214.095C418.847 214.292 418.059 214.736 418.995 214.637C419.66 214.563 420.3 214.637 420.891 214.883C421.925 215.425 421.654 213.972 422.295 213.923C422.689 213.873 423.083 213.923 423.452 214.095L426.727 214.268C427.761 214.933 429.042 213.972 430.051 214.785L430.421 215.302C429.682 220.156 428.943 225.009 427.811 229.789C427.49 231.119 427.072 232.45 425.964 233.41C423.6 234.248 423.353 236.687 423.206 238.387C422.959 241.122 422.171 243.758 421.507 246.271C420.719 249.277 420.817 252.381 419.709 255.362C418.872 257.678 419.118 260.56 419.512 263.196C418.749 269.775 416.902 276.131 415.473 282.586C415.252 283.571 414.636 284.31 413.848 284.951H379.028C376.295 281.206 376.418 276.944 376.664 272.632C376.911 272.337 376.566 272.706 376.812 272.411C376.985 272.214 377.182 272.041 377.379 271.844C377.182 271.918 376.985 272.066 376.714 272.016C375.212 270.193 375.359 268.05 375.31 265.907C375.482 264.995 376.024 264.28 376.664 263.615C376.664 263.221 377.97 263.394 377.083 262.605C376.911 262.433 376.763 262.26 376.664 262.039C375.901 260.856 377.157 259.255 375.876 258.171C375.482 258.22 375.138 258.171 374.793 257.998C374.571 257.801 374.399 257.579 374.276 257.308C373.709 255.263 374.497 252.947 372.946 251.1C371.345 244.842 370.878 238.387 369.794 232.031C369.178 228.384 368.464 224.714 368.07 221.043C367.923 219.589 367.504 218.16 368.046 216.707C370.557 214.366 373.882 215.007 376.837 214.243C378.068 214.415 378.634 213.898 378.561 212.641C378.462 211.188 378.437 209.759 378.388 208.305C377.576 207.049 377.772 205.694 378.093 204.339C379.447 203.033 380.924 203.797 382.402 204.068C382.894 204.191 383.313 204.487 383.756 204.684C385.874 205.349 388.017 205.078 390.159 204.832C395.503 204.807 400.821 204.61 406.14 204.905C409.982 205.447 413.897 204.462 417.714 205.497C418.97 207.049 417.739 208.995 418.502 210.621H418.527Z" fill="#D02334"/>
<path d="M465.855 222.348L466.742 222.471C466.988 222.595 467.21 222.718 467.431 222.841C468.342 223.137 469.303 222.989 470.239 223.013C470.953 222.915 471.691 222.816 472.332 223.309C473.538 224.344 475.164 224.122 476.493 224.713L478.094 224.861C479.054 225.428 480.138 225.329 481.197 225.453C481.344 225.379 481.517 225.354 481.689 225.379C482.379 225.65 483.142 225.797 483.413 226.635C485.432 229.222 485.26 232.425 485.949 235.406C486.196 236.12 486.343 236.859 486.442 237.599C486.516 239.052 486.343 240.53 486.565 241.984C486.713 242.403 486.836 242.797 486.984 243.216L487.131 249.4C487.624 250.902 487.673 252.455 487.673 254.031C487.673 261.275 487.673 268.518 487.673 275.761C487.673 277.141 487.722 278.496 487.156 279.802C487.156 281.502 487.107 283.201 487.082 284.926H436.921C436.231 284.187 436.33 283.349 436.552 282.462C438.3 274.85 440.467 267.335 442.412 259.772C442.535 259.304 442.782 258.86 443.126 258.515C444.21 257.727 443.644 256.569 443.767 255.583C445.146 247.774 447.633 240.235 449.504 232.548C450.292 229.321 451.13 226.093 451.991 222.89C452.287 221.757 452.509 220.599 453.444 219.761C454.479 219.416 455.464 219.318 456.35 220.131C457.828 220.845 459.404 221.24 461.053 221.264C462.605 221.905 464.402 221.387 465.88 222.348H465.855Z" fill="#C01819"/>
<path d="M318.007 236.81C318.081 235.258 318.278 233.706 318.204 232.154C318.106 229.518 319.509 227.941 321.75 227.128C325.222 225.896 328.842 225.206 332.487 224.689C333.324 223.826 334.531 224.073 335.516 223.703L337.092 223.408C338.027 222.693 339.234 222.915 340.268 222.521L344.258 222.225C346.228 224.319 346.006 227.128 346.597 229.616C348.444 237.475 350.857 245.236 352.384 253.169C352.458 253.933 352.285 254.697 352.014 255.362C351.67 256.224 352.285 256.052 352.679 256.15C354.6 260.141 355.24 264.502 356.274 268.74C357.309 273.002 358.417 277.239 359.451 281.502C359.722 282.659 360.091 283.768 359.55 284.926H317.047C317.071 272.977 317.096 261.053 317.121 249.104C317.318 248.661 317.441 248.217 317.564 247.749C317.736 244.398 317.564 241.048 317.662 237.697C317.687 237.377 317.786 237.081 317.958 236.786L318.007 236.81Z" fill="#C01819"/>
<path d="M425.668 233.041C427.86 228.015 427.958 222.521 429.165 217.273C429.362 216.411 429.263 215.474 430.445 215.327C431.406 215.351 432.366 215.376 433.302 215.401C433.499 215.548 433.671 215.672 433.868 215.795C434.903 216.09 435.961 215.893 436.996 215.943C440.074 215.672 443.078 215.869 445.762 217.643C447.24 218.628 448.988 218.603 450.613 218.973C452.485 219.441 453.051 220.377 452.411 222.373C451.721 224.467 451.352 226.66 450.712 228.803C449.924 229.665 450.121 230.799 449.899 231.809C448.175 239.323 445.959 246.714 444.137 254.204C441.822 263.689 439.089 273.026 436.725 282.487C436.528 283.3 436.38 284.236 435.74 284.901H413.897C415.597 277.658 417.443 270.439 418.625 263.098C419.709 253.76 421.851 244.645 423.846 235.504C424.092 234.346 424.659 233.558 425.668 233.016V233.041Z" fill="#C01819"/>
<path d="M376.098 265.512C376.467 267.68 376.393 269.922 377.28 271.992C377.354 276.377 378.216 280.664 379.053 284.951H360.756C360.116 284.335 359.747 283.596 359.525 282.684C355.265 265.759 351.103 248.833 346.942 231.883C346.646 231.119 346.794 230.355 347.09 229.69C347.434 228.877 346.966 228.951 346.499 228.902C345.464 227.3 345.563 225.354 344.947 223.629C344.504 222.373 345.39 221.658 346.252 220.969C347.114 220.377 348.05 220.722 348.961 220.698C354.896 219.441 360.88 218.406 366.691 216.583C367.282 216.091 367.873 216.041 368.464 216.608C369.843 225.379 371.197 234.149 372.576 242.945C373.02 245.753 373.389 248.537 373.783 251.346C375.261 253.317 374.177 255.731 374.94 257.825C376.369 260.24 376.541 262.827 376.098 265.512V265.512Z" fill="#C01819"/>
<path d="M590.95 0.738942C395.846 0.738942 200.718 0.738942 5.61406 0.738942C4.72756 0.738942 3.84106 0.812852 2.95456 0.738942C1.32931 0.59112 0.541309 1.18241 0.713684 2.88235C0.787559 3.76928 0.713684 4.65621 0.713684 5.54314C0.713684 98.6707 0.713684 191.823 0.713684 284.951C-0.517566 284.409 0.171934 283.349 0.171934 282.585C0.122684 264.502 0.147309 246.418 0.147309 228.335C0.147309 153.168 0.147309 77.9757 0.0980586 2.80844C0.0980586 0.59112 0.590559 0.0983815 2.80681 0.0983815C197.96 0.147655 393.138 0.147655 588.291 0.196929C589.153 0.196929 590.285 -0.492905 590.95 0.738942Z" fill="white"/>
<path d="M347.361 231.217C351.645 248.365 355.905 265.537 360.19 282.684C360.387 283.448 360.584 284.187 360.781 284.951H359.599C357.26 275.712 354.896 266.497 352.532 257.259C352.409 256.79 352.187 256.372 352.015 255.928C351.325 255.288 351.67 254.499 351.768 253.76C349.281 243.733 346.794 233.706 344.332 223.678C344.209 223.21 344.282 222.718 344.258 222.225C344.332 221.535 344.923 221.461 345.415 221.239C345.834 220.944 346.203 220.993 346.523 221.363C345.341 222.126 345.243 223.136 345.686 224.393C346.228 225.92 346.622 227.522 347.09 229.099C347.755 229.739 347.434 230.528 347.336 231.267L347.361 231.217Z" fill="#E95159"/>
<path d="M449.923 228.976C451.105 226.709 451.155 224.122 452.066 221.782C452.657 220.304 451.549 219.688 450.613 218.973C451.302 218.973 451.967 218.973 452.657 218.973C453.198 219.17 453.445 219.54 453.395 220.106C452.016 227.645 449.579 234.913 447.83 242.378C446.771 246.911 445.171 251.297 444.555 255.929C443.939 256.594 444.727 257.653 443.89 258.244C441.231 267.04 438.891 275.934 436.921 284.926H435.739C436.65 278.964 438.67 273.248 440.123 267.434C442.979 256.126 446.008 244.891 448.963 233.607C449.16 232.868 449.209 232.08 449.308 231.316C449.948 230.651 449.209 229.616 449.923 228.976V228.976Z" fill="#E95159"/>
<path d="M129.404 152.872C130.586 152.552 131.472 151.369 132.851 151.665C134.994 150.261 137.53 150.458 139.87 150.014C157.846 146.565 174.394 139.568 189.858 129.911C190.868 129.295 191.828 128.63 193.035 128.432C194.463 128.482 195.227 127.176 196.335 126.733C200.915 124.959 203.402 120.647 207.317 118.085C209.435 116.705 211.405 115.129 212.661 112.813C213.227 111.778 214.336 111.187 215.69 111.532C219.679 112.492 223.644 111.236 227.682 111.532C237.36 112.246 246.988 109.61 256.715 111.014C258.488 111.261 259.375 111.975 259.719 113.601C259.99 114.858 260.138 116.114 260.113 117.395C259.892 126.412 261.246 135.331 261.492 144.323C261.714 152.133 262.083 159.943 262.601 167.753C262.798 170.907 263.906 174.011 263.61 177.09C263.019 183.25 264.694 189.286 264.053 195.494C263.832 197.539 264.644 200.471 265.679 202.737C266.368 204.24 266.738 204.955 265.679 206.753C264.694 208.404 264.866 211.065 264.743 213.307C262.921 216.78 260.778 217.791 257.183 216.854C254.721 216.214 252.332 216.337 250.066 217.594C249.106 218.111 248.146 218.653 247.038 218.653C237.138 218.727 227.214 221.733 217.315 218.653C216.478 218.382 215.788 218.727 215.074 219.096C213.991 219.638 212.883 219.959 211.676 219.737C211.356 219.688 211.06 219.589 210.765 219.441C209.928 218.751 208.82 218.505 207.908 217.938C205.347 216.46 202.762 216.657 200.472 218.333C197.615 220.427 194.562 220.402 191.533 219.318C186.682 217.544 181.683 217.273 176.782 218.357C174.172 218.949 171.784 220.55 168.952 219.564C167.819 219.17 166.612 219.392 165.529 219.195C161.934 218.48 158.585 219.762 155.112 219.983C150.089 220.304 145.262 218.702 140.288 218.505C140.017 218.357 139.796 218.16 139.623 217.914C138.614 214.489 137.998 211.065 139.155 207.542C139.549 206.384 139.599 205.25 139.426 204.068C139.205 202.59 139.303 201.087 139.87 199.732C141.347 196.233 141.495 192.661 140.51 189.089C140.091 187.536 141.199 185.59 139.451 184.457C138.023 183.545 136.348 183.225 134.698 183.028C133.492 182.88 132.531 182.141 131.374 181.87C129.281 181.969 127.631 180.786 125.858 180.022C123.322 177.83 120.539 175.908 118.766 172.976C117.806 172.212 118.397 170.833 117.584 170.02C117.141 162.604 120.293 157.307 127.015 154.129C127.606 153.316 128.788 153.759 129.379 152.946L129.404 152.872Z" fill="#ECC29A"/>
<path d="M382.549 204.757L378.585 204.191C377.723 203.969 377.994 202.885 377.28 202.54C370.532 198.82 364.327 194.435 359.599 188.226C358.688 187.709 359.279 185.984 357.776 185.91C356.397 185.048 356.447 183.052 354.895 182.338C354.501 181.968 353.984 181.697 353.837 181.106C353.418 178.297 351.275 176.326 350.241 173.838C349.798 172.754 349.355 171.67 348.912 170.586C348.148 169.97 348.542 168.812 347.803 168.172C346.991 165.437 345.661 162.899 345.267 160.041C345.366 159.894 345.489 159.77 345.587 159.623C346.646 158.908 347.853 159.105 349.01 159.105C354.501 159.081 359.993 159.105 365.509 159.105C366.666 159.105 367.873 159.302 368.932 158.563C371.394 156.247 372.502 153.069 374.324 150.359C375.112 149.669 375.26 148.758 375.285 147.797C376.196 144.914 376.639 141.884 378.412 139.322C379.865 138.804 378.314 137.573 378.979 136.858C379.052 136.562 379.151 136.291 379.299 136.045C380.382 134.419 379.914 132.621 379.816 130.871C379.791 129.442 379.668 128.013 380.358 126.683C380.53 126.412 380.776 126.264 381.072 126.215C381.269 126.387 381.934 126.338 381.343 126.856C381.737 126.856 381.687 126.56 381.589 126.363C380.382 124.17 382.081 121.46 380.308 119.391C379.225 118.405 378.437 117.099 377.156 116.336C371.616 115.744 366.075 116.237 360.535 116.065C356.225 116.065 351.891 116.065 347.582 116.065C346.424 116.065 345.193 116.262 344.307 115.178C345.021 112.418 345.759 109.659 346.474 106.9C346.474 106.776 346.523 106.653 346.547 106.53C346.917 105.865 346.941 105.126 346.941 104.387C346.966 103.721 347.04 103.056 347.483 102.49C347.606 102.416 347.705 102.342 347.828 102.268C349.724 100.519 350.02 97.9318 351.202 95.7884C351.571 95.1232 351.719 94.3594 352.408 93.8913C353.369 93.4479 353.172 92.3146 353.689 91.6247C356.693 86.5002 360.264 81.8192 364.598 77.7541C365.533 76.8672 366.494 76.0542 367.897 76.1527C368.538 76.0295 369.153 76.3006 369.449 76.7687C371.172 79.4541 373.315 79.0845 375.827 77.9266C379.028 76.4237 382.475 75.5861 386.021 75.2658C391.981 74.6252 397.915 74.5021 403.85 75.3643C409.76 75.8324 415.3 77.6063 420.619 80.1439C423.993 81.7453 424.018 81.7207 426.53 78.9121C427.244 78.099 427.908 77.2614 429.041 76.9904C430.396 76.7194 430.987 77.7049 431.602 78.5918C435.444 83.125 439.778 87.2886 442.363 92.7827C443.25 93.4725 444.062 94.2362 444.481 95.2956C444.58 97.8579 446.722 99.681 446.968 102.194C447.682 102.859 447.313 103.992 448.052 104.633H448.101C448.889 105.224 448.52 106.382 449.209 107.047C449.037 108.772 450.169 110.102 450.514 111.679C451.253 112.615 451.721 113.699 452.164 114.783C452.115 115.966 452.657 117.05 452.558 118.233C452.657 119.464 452.189 121.115 454.454 120.598C455.193 120.425 455.833 120.598 456.35 121.164C457.335 122.125 459.231 121.312 459.896 122.938C462.876 125.821 466.496 128.26 467.062 132.892C467.875 134.887 467.85 136.883 467.062 138.878L466.939 139.987C466.2 140.628 466.594 141.786 465.831 142.377L465.733 143.485C464.452 145.358 462.925 146.959 461.054 148.24C459.822 148.364 459.084 149.842 457.68 149.497C456.178 150.31 455.858 148.93 455.267 148.142C453.272 145.506 452.607 145.604 450.366 148.117C449.111 149.522 448.47 151.591 446.426 152.232C445.811 152.453 446.131 152.921 446.156 153.316C445.171 156.001 443.496 158.243 441.6 160.312C440.812 161.298 439.95 162.259 442.142 162.53C444.456 162.727 446.845 162.111 449.086 163.146C450.44 164.501 449.135 165.757 448.987 167.063C448.864 168.295 447.879 168.812 447.067 169.502L446.894 170.561C446.229 171.227 446.623 172.434 445.737 173C443.841 175.193 442.56 177.805 441.206 180.318C437.685 186.846 432.76 192.119 426.973 196.627C425.766 197.391 424.486 198.056 423.451 199.042L423.353 200.101C421.284 199.904 420.225 201.703 418.649 202.491C417.763 203.23 418.428 204.757 417.197 205.3C415.867 205.571 414.537 205.398 413.207 205.447C411.139 205.324 409.046 205.694 407.002 205.201C406.214 204.684 406.017 203.895 405.968 203.033C405.968 202.589 405.869 202.146 405.647 201.727C405.18 201.111 404.515 201.013 403.801 201.013C398.482 201.013 393.187 200.963 387.868 201.037C387.474 201.037 387.08 201.111 386.809 201.53C386.932 202.762 389.37 203.526 387.72 205.226C385.972 205.546 384.248 205.694 382.598 204.881L382.549 204.757Z" fill="#DB8560"/>
<path d="M280.602 276.648L282.252 279.112C283.015 279.974 283.286 281.132 284.025 281.994C284.32 282.684 285.01 283.497 283.581 283.719C283.015 283.817 282.399 283.768 281.808 283.768C226.575 283.768 171.341 283.768 116.107 283.768C115.614 283.768 115.122 283.719 114.629 283.694C113.792 283.004 113.152 282.142 114.038 281.206C117.043 277.978 118.766 273.913 121.426 270.439C125.661 264.945 130.709 260.289 135.782 255.657C137.087 254.475 138.269 253.194 139.377 251.863C141.791 251.001 143.441 249.005 145.583 247.675C147.873 246.246 150.262 244.99 152.626 243.684C159.792 240.382 167.154 237.648 174.764 235.529C176.709 234.987 178.728 234.199 180.477 236.046C180.821 236.539 181.043 237.056 181.191 237.648C181.388 238.485 181.141 239.298 181.043 240.111C181.215 242.008 182.841 242.452 184.146 243.24C185.993 244.324 187.889 245.211 190.105 245.137C193.035 245.532 195.966 245.827 198.921 245.285C199.98 245.137 201.063 245.187 202.147 245.162C203.452 245.285 204.683 244.965 205.816 244.349C206.062 244.25 206.333 244.177 206.604 244.103C207.638 243.979 208.721 244.029 209.583 243.24C210.445 242.846 211.282 242.378 212.07 241.885C214.139 241.072 215.493 239.619 215.912 237.426C216.281 235.43 217.389 234.938 219.31 235.307C229.283 237.254 238.468 241.146 247.21 246.246C253.243 249.744 258.71 253.957 263.906 258.589C264.645 259.23 265.482 259.747 266.393 260.141C269.299 263.319 272.328 266.424 275.283 269.602C277.13 271.893 278.533 274.554 280.651 276.648H280.602Z" fill="#F9F4EF"/>
<path d="M385.553 76.1033C381.933 76.5714 378.486 77.6062 375.162 79.0351C371.468 80.6365 371.271 80.6119 369.055 77.3351C368.734 76.867 368.291 76.4729 367.897 76.0294C365.435 72.7527 363.021 69.4267 360.485 66.1993C359.402 64.8442 358.86 64.179 360.928 62.9965C368.882 58.4386 377.452 56.1227 386.464 54.8416C397.964 53.2156 409.267 53.8315 420.447 56.7387C426.185 58.2415 431.479 60.7052 436.084 64.5732C438.669 66.7413 438.743 67.4311 436.478 69.7716C434.434 71.8904 432.415 74.0338 430.395 76.1526C430.322 76.8917 429.632 76.9902 429.164 77.2859C426.258 81.893 422.983 83.1002 417.861 79.8481C413.971 77.3844 409.095 76.7439 404.465 76.054C403.431 75.4135 402.298 75.2656 401.092 75.241C396.708 75.1917 392.301 75.4381 387.917 75.0932C386.908 75.0193 386.292 75.5859 385.553 76.0294V76.1033Z" fill="#F2EDEC"/>
<path d="M263.98 213.011C264.177 211.41 263.463 209.66 264.621 208.158C264.744 207.985 264.744 207.492 264.621 207.394C263.882 206.876 263.02 206.359 263.611 205.324C264.399 203.945 265.236 206.088 266.517 205.078C263.463 203.329 263.488 200.742 264.719 197.514C262.503 198.869 261.838 198.549 262.552 196.283C263.685 192.661 264.005 188.965 262.257 185.393C261.543 183.915 262.872 182.855 262.897 181.476C262.946 178.322 262.552 175.218 262.134 172.138C261.641 168.517 261.961 164.772 261.321 161.249C260.607 157.282 261.444 153.316 260.607 149.349C259.893 145.949 260.484 142.278 260.41 138.731C260.385 137.129 260.976 135.331 259.252 134.124C258.908 133.877 259.006 133.458 259.08 133.064C260.065 126.388 259.105 119.76 258.661 113.133C258.612 112.394 258.489 111.753 257.455 111.95C254.229 112.542 251.077 111.408 247.826 111.532C243.911 111.704 240.045 112.024 236.179 112.665C234.529 112.936 232.854 112.936 231.205 112.591C230.54 112.443 229.702 112.024 229.21 112.271C226.132 113.823 223.004 112.123 219.852 112.665C216.454 113.231 213.351 112.369 210.889 116.459C209.19 119.268 205.127 120.82 202.516 123.456C202.098 123.899 200.743 123.899 202.024 124.959C202.787 125.599 201.876 125.772 201.531 125.722C198.995 125.476 197.321 126.979 195.695 128.556C194.858 129.369 193.947 129.319 192.962 129.221C193.085 127.324 194.809 126.757 195.991 125.87C201.384 121.904 206.53 117.715 211.16 112.887C213.672 110.275 216.183 107.664 218.178 104.609C218.621 103.943 219.114 103.352 219.852 103.007C220.468 102.662 221.133 102.539 221.822 102.539C230.195 102.49 238.567 101.529 246.965 101.923C248.023 101.972 249.132 101.849 249.993 102.687C252.308 102.859 254.623 102.933 256.888 102.194C259.08 101.603 261.346 101.849 263.562 101.8C266.271 101.751 268.068 103.968 268.093 106.826C268.142 111.31 267.994 115.818 268.364 120.302C268.462 121.386 268.487 122.446 268.856 123.48C269.89 135.454 270.703 147.428 270.752 159.45C270.752 162.185 270.752 164.92 270.752 167.654C270.802 174.282 270.58 180.885 271.787 187.487C272.451 191.109 271.984 194.878 271.59 198.574C270.087 202.417 270.802 206.408 270.9 210.35C270.949 212.272 271.393 214.218 270.555 216.066C267.6 218.283 268.29 214.736 267.206 213.923C266.541 214.341 266.32 215.499 265.212 215.154C264.128 214.859 264.448 213.726 263.956 213.085L263.98 213.011Z" fill="#EBC19A"/>
<path d="M379.693 136.366C379.619 136.513 379.595 136.661 379.62 136.809C379.029 137.523 379.718 138.534 379.028 139.199C378.068 142.18 377.083 145.136 376.123 148.117C375.63 148.832 375.753 149.793 375.113 150.458C373.636 153.291 372.355 156.223 370.188 158.662C369.868 159.524 369.228 159.598 368.464 159.401C360.88 159.278 353.295 159.401 345.711 159.352C343.322 159.352 340.909 159.352 338.52 159.352C338.2 159.352 337.88 159.352 337.535 159.303C336.477 159.303 336.403 158.342 335.984 157.726C334.58 155.361 333.817 152.774 333.522 150.064C332.758 149.226 333.3 147.97 332.61 147.107C331.921 145.062 331.773 142.87 330.665 140.948C329.926 139.938 330.788 138.657 330.099 137.622L328.867 131.66C328.547 131.241 328.203 130.847 328.104 130.305C327.981 129.073 328.03 127.841 328.005 126.609C328.005 123.382 327.932 120.13 328.794 116.976C331.01 115.646 333.398 116.139 335.762 116.237C343.593 115.572 351.473 115.72 359.328 115.695C365.362 115.646 371.419 115.794 377.452 115.621C377.822 115.473 378.167 115.547 378.462 115.794L380.875 118.627C381.22 119.046 381.392 119.539 381.417 120.105C381.245 122.199 381.934 124.367 380.925 126.412L380.826 130.872C380.186 132.645 381.023 134.715 379.718 136.366H379.693Z" fill="#C11819"/>
<path d="M180.427 240.136L180.723 237.82C180.255 236.835 180.304 235.677 179.59 234.79C179.393 234.346 179.368 233.878 179.442 233.386C179.368 231.341 179.245 229.32 178.605 227.35C178.063 226.635 177.275 226.586 176.487 226.586C168.829 226.586 161.146 226.561 153.488 226.586C152.872 226.586 152.33 226.734 151.838 227.103H135.93C133.541 225.896 132.162 223.925 131.793 221.264V194.755C131.99 190.222 133 185.688 131.793 181.155C134.551 182.289 137.604 182.215 140.338 183.496C140.953 183.791 141.938 183.791 141.643 184.678C140.289 188.719 143.638 192.735 141.618 196.75C139.673 200.618 141.175 205.028 139.698 209.069C138.713 211.779 140.215 214.809 140.018 217.79C139.574 218.406 138.565 218.505 137.851 219.441C139.525 219.638 139.18 217.963 140.018 217.79C144.967 217.051 149.621 219.416 154.522 218.924C156.246 218.751 157.945 218.382 159.595 218.111C162.623 217.643 165.849 217.741 169.051 218.529C170.627 218.924 173.68 220.969 174.64 217.101C174.69 216.953 175.108 216.78 175.355 216.805C181.092 217.396 186.928 215.746 192.592 218.529C194.537 219.49 197.517 219.811 199.807 217.322C201.753 215.228 204.732 215.869 207.367 215.967C208.426 216.017 208.5 216.854 208.524 217.667C209.115 218.48 210.297 218.037 210.888 218.85C211.898 219.835 212.218 221.166 212.686 222.422C212.957 223.506 213.031 224.615 212.563 225.674C212.415 225.97 212.194 226.192 211.898 226.339C211.135 226.66 210.396 226.635 209.682 226.167C209.731 223.826 208.401 223.777 206.456 223.753C201.925 223.753 197.32 224.442 192.888 222.767C192.37 222.57 191.533 222.447 191.164 222.767C188.554 225.28 185.229 224.073 182.176 224.492C182.077 225.674 182.545 226.586 183.087 227.497C183.629 230.947 184.343 234.346 184.293 237.869C184.244 240.727 183.21 241.319 180.452 240.062L180.427 240.136Z" fill="#EBC19B"/>
<path d="M193.159 87.3133C194.735 87.5597 196.286 87.4858 197.788 86.7959C201.408 86.4264 204.609 84.554 208.155 83.9627C216.183 82.6323 223.841 83.8641 231.5 86.5249C239.06 89.1611 245.043 94.0392 250.978 99.1144C251.643 99.6811 252.48 100.371 252.185 101.307C251.889 102.268 250.83 101.8 250.092 101.898C246.398 102.342 242.655 102.342 238.936 102.416C232.657 102.514 226.402 102.81 220.148 103.18C218.916 103.401 218.104 102.662 217.39 101.849C212.44 96.0594 206.111 92.3885 199.069 89.777C197.813 89.1857 196.483 88.8901 195.079 88.8162C194.193 88.7669 192.937 88.8901 193.159 87.3133V87.3133Z" fill="#2C2624"/>
<path d="M212.021 222.447C210.889 221.511 210.79 220.23 210.839 218.899C212.415 218.949 213.868 218.924 215.198 217.717C216.011 216.978 216.848 216.583 218.375 217.717C219.951 218.875 222.61 218.751 224.826 218.875C227.954 219.047 231.254 219.515 234.184 218.776C238.616 217.643 243.074 218.283 247.432 217.569C249.969 217.15 252.136 214.859 255.091 215.376C255.952 215.524 256.864 215.499 257.652 215.82C260.311 216.83 262.429 215.918 263.98 213.036L265.162 214.81C266.27 216.238 266.172 217.717 264.448 218.234C262.995 218.678 263.734 219.638 263.389 220.304C261.764 221.732 259.597 220.254 257.947 221.363C259.425 221.831 260.877 221.486 262.33 221.585C263.389 221.659 264.522 221.486 265.31 222.496C265.532 222.964 265.482 223.408 265.187 223.827C262.084 224.64 258.858 224.073 255.731 224.787C248.565 224.787 241.399 224.787 234.233 224.886C229.037 224.96 223.866 225.28 218.67 225.403C216.946 225.453 216.085 226.118 216.183 227.867C216.306 229.813 215.789 231.809 216.749 233.657C216.676 236.835 216.552 239.988 213.277 241.787C212.809 241.885 212.342 241.861 211.898 241.664C209.731 239.348 209.682 238.806 211.948 236.761C213.056 235.751 213.154 234.765 212.834 233.386C212.268 230.971 211.652 228.532 212.071 225.995C212.686 225.256 213.597 224.837 214.262 224.048C213.942 222.915 212.489 223.334 212.071 222.472L212.021 222.447Z" fill="#ECC19B"/>
<path d="M269.939 159.105C269.693 147.156 268.954 135.232 268.068 123.308C267.526 121.485 267.92 119.612 267.822 117.789C267.822 117.272 267.969 116.828 268.659 116.976C284.493 139.075 295.352 163.565 303.331 189.409C304.636 193.622 304.39 194.016 299.908 194.582C290.723 195.74 281.513 196.184 272.279 196.381C271.171 194.41 271.515 192.242 271.318 190.123C270.407 179.8 270.309 169.428 269.915 159.081L269.939 159.105Z" fill="#34302E"/>
<path d="M193.158 87.3133C195.03 88.8901 197.837 87.2887 199.635 89.1857C196.581 90.7625 193.257 90.3683 190.179 89.8756C182.151 88.6191 174.123 88.4713 166.12 89.3828C160.432 90.048 154.989 91.9204 149.941 94.6798C147.873 95.8131 145.706 96.7739 143.687 98.0058C133.738 104.091 126.745 112.492 124.972 124.195C123.691 132.571 126.523 140.061 132.187 146.393C133.122 147.427 134.304 148.142 135.757 148.314C136.718 148.438 137.752 148.438 138.368 149.423C136.939 151.468 134.92 151.517 132.753 151.172C121.179 141.884 118.495 124.589 126.498 111.113C131.965 101.898 140.017 95.5667 149.646 91.3045C163.657 85.1207 178.186 83.6671 193.134 87.2887L193.158 87.3133Z" fill="#0C0D0D"/>
<path d="M445.836 151.813C447.732 151.147 448.347 149.275 449.308 147.846C452.066 143.806 454.06 143.855 456.424 148.339C456.744 148.93 457.114 149.226 457.68 149.398C459.699 152.231 461.054 155.484 463.541 158.021C464.649 159.154 465.93 160.312 465.757 162.185C465.339 163.244 464.748 164.106 463.516 164.279C459.305 164.599 455.119 164.205 450.908 164.279C450.293 164.279 449.776 163.983 449.332 163.614L441.083 163.466C440.196 162.308 440.27 161.15 441.009 159.943L445.663 152.847C445.392 152.453 445.442 152.108 445.811 151.813H445.836Z" fill="#E6A000"/>
<path d="M132.778 151.172C134.847 151.246 136.472 150.088 138.27 149.324C138.294 147.748 139.673 147.846 140.584 147.698C154.079 145.727 166.441 140.43 178.458 134.394C187.323 129.935 195.277 124.047 203.23 118.085C208.106 114.414 211.775 109.856 215.543 105.274C216.454 104.165 217.316 102.835 219.114 103.204C219.261 103.352 219.335 103.524 219.286 103.697C219.237 103.869 219.212 103.968 219.163 103.968C218.079 107.245 215.518 109.487 213.327 111.926C208.18 117.641 202.295 122.495 195.991 126.88C194.956 127.595 193.996 128.432 192.986 129.196C182.619 135.651 171.858 141.268 160.358 145.432C152.478 148.29 144.377 150.261 136.127 151.64C135.093 151.813 133.985 151.665 132.926 151.69C132.926 151.517 132.877 151.345 132.852 151.172H132.778Z" fill="#1B1513"/>
<path d="M219.114 103.943L219.015 103.327C219.089 102.982 219.434 102.933 219.655 102.736C230.269 101.825 240.931 102.342 251.889 101.258C248.467 98.0797 245.167 95.1233 241.424 92.7089C240.168 91.8959 238.838 91.2553 238.075 89.9249C237.114 88.2003 235.366 89.3583 234.135 88.6931C227.215 85.0468 219.631 84.2584 212.046 84.3077C208.697 84.3077 205.2 85.4163 202.073 86.7467C200.349 87.4858 199.217 87.2641 197.764 86.7714C205.718 82.3367 214.213 81.1788 223.078 82.9773C235.785 85.5642 245.856 92.6596 255.115 101.627C253.392 102.859 251.495 101.874 249.944 102.638C240.316 102.884 230.687 103.13 221.059 103.426C220.394 103.426 219.729 103.746 219.089 103.943H219.114Z" fill="#34302D"/>
<path d="M213.154 241.269C215.346 240.333 215.666 238.313 216.084 236.342C216.281 235.43 215.912 234.396 216.725 233.632C233.297 237.056 248.072 244.275 261.173 254.967C263.069 256.52 264.965 258.072 266.393 260.117C263.217 260.24 261.714 257.505 259.572 255.953C257.405 254.351 255.607 252.233 253.243 250.853C246.718 246.985 240.241 243.043 233.199 240.111C228.446 238.116 223.373 237.278 218.424 235.948C216.823 235.504 216.922 236.588 216.749 237.549C216.232 240.161 214.952 242.058 212.095 242.476L211.947 242.107C212.095 241.466 212.883 241.713 213.179 241.245L213.154 241.269Z" fill="#F4EFEA"/>
<path d="M139.402 251.864C139.772 255.288 136.349 255.805 134.773 257.678C132.187 260.733 129.232 263.541 126.277 266.153C123.396 268.691 121.968 272.189 119.136 274.727C117.535 276.18 117.191 279.358 115.368 281.009C114.26 281.994 114.408 282.66 114.654 283.67C113.325 283.768 111.724 284.039 112.98 281.822C119.678 270.218 128.173 260.142 138.836 251.987C138.984 251.888 139.205 251.888 139.402 251.839V251.864Z" fill="#F5F0EA"/>
<path d="M269.939 159.105C270.752 164.255 270.604 169.478 270.973 174.651C271.491 181.895 271.885 189.163 272.303 196.406C271.417 203.403 273.855 210.202 273.387 217.175C273.313 218.234 273.904 219.614 272.254 220.106C271.761 219.86 271.515 219.441 271.318 218.949C270.924 218.283 270.284 217.594 270.53 216.83C272.205 211.828 269.644 206.901 270.432 201.924C270.604 200.89 270.235 199.781 271.047 198.869C271.294 186.871 269.053 174.947 269.841 162.949C269.915 161.692 269.89 160.411 269.915 159.13L269.939 159.105Z" fill="#E3C19D"/>
<path d="M180.156 233.533L180.329 234.913C180.476 235.48 180.624 236.071 180.156 236.588C177.103 234.568 174.394 236.835 171.636 237.5C167.622 238.461 163.707 239.89 159.865 241.417C157.378 242.403 155.137 243.955 152.404 244.275C152.01 243.585 152.699 243.413 152.97 243.019C159.988 238.806 167.696 236.317 175.551 234.272C176.29 234.075 177.054 233.854 177.792 233.632C178.556 233.262 179.319 233.041 180.132 233.533H180.156Z" fill="#F5F0EA"/>
<path d="M328.793 130.428L328.891 131.66C327.906 131.783 327.734 132.448 327.734 133.286C327.734 134.173 327.709 135.035 326.552 135.183C327.143 131.832 324.803 129.024 325.271 125.648C323.646 125.969 324.68 127.447 323.621 127.693C323.498 127.595 323.203 127.496 323.203 127.398C323.227 125.993 322.095 124.269 324.188 123.382C324.582 122.988 324.705 122.593 324.188 122.199C323.523 122.125 322.341 122.347 322.366 121.805C322.415 120.844 322.957 119.785 323.572 118.996C324.015 118.454 324.803 118.824 325.394 119.317C326.133 119.933 326.601 120.893 327.685 121.041C328.399 121.559 328.3 122.273 328.226 123.012C327.931 124.146 326.7 125.156 327.882 126.437C328.103 126.56 328.276 126.683 328.448 126.856C328.546 127.077 328.596 127.299 328.596 127.545C328.694 128.506 328.399 129.516 328.793 130.453V130.428Z" fill="#B4B2B4"/>
<path d="M456.351 121.066L454.011 120.992C452.731 120.696 452.288 119.563 451.697 118.602L451.574 114.685C451.13 113.65 450.81 112.616 451.647 111.605C452.46 111.729 452.953 112.271 452.805 113.01C452.091 116.139 454.553 116.237 456.425 116.902C456.671 116.976 457.188 117.001 457.188 116.976C457.804 114.069 460.512 115.744 461.99 114.784C462.458 114.488 463 113.897 463.32 114.882C463.541 115.523 463.098 115.868 462.581 116.262C460.512 117.863 457.631 118.43 456.375 121.066H456.351Z" fill="#B4B2B3"/>
<path d="M465.831 169.379C463.418 169.379 460.98 169.305 458.567 169.404C456.203 169.502 454.011 169.256 452.017 167.63C452.484 166.792 453.346 167.112 454.011 167.014C455.316 165.733 456.966 166.324 458.493 166.151C460.586 165.905 462.827 166.841 464.772 165.437C465.61 164.944 466.398 164.378 467.407 164.304C469.008 164.821 468.959 165.807 468.171 167.014C467.604 167.999 466.816 168.788 465.807 169.379H465.831Z" fill="#B5B2B1"/>
<path d="M268.658 117.001C267.329 118.996 268.658 121.263 268.067 123.332C266.984 121.411 267.6 119.316 267.526 117.296C267.403 113.97 267.526 110.62 267.501 107.294C267.501 104.14 265.58 102.218 262.478 102.169C260.606 102.144 258.759 102.169 256.888 102.144C259.055 101.134 261.493 101.184 263.709 101.331C266.885 101.529 269.028 102.588 268.732 107.023C268.511 110.349 268.683 113.675 268.658 117.025V117.001Z" fill="#C5B8AB"/>
<path d="M151.813 227.103C152.01 226.118 152.749 225.995 153.586 225.995C162.008 225.995 170.43 225.995 178.852 226.019C179.27 226.019 179.689 226.413 180.108 226.611C178.876 227.818 177.497 226.734 176.192 226.832C173.385 227.079 170.528 226.487 167.746 227.128L151.813 227.079V227.103Z" fill="#E1C2A8"/>
<path d="M449.307 163.589H464.033C464.255 163.934 464.255 164.279 464.107 164.649C460.364 166.152 456.596 165.905 452.829 164.673C451.08 165.215 450.342 166.398 450.465 168.196C449.012 169.108 448.815 167.605 448.125 167.014C447.707 165.585 448.963 164.747 449.307 163.589V163.589Z" fill="#B3B2AE"/>
<path d="M167.745 227.153C171.833 225.921 175.994 226.857 180.131 226.611C180.131 228.926 180.131 231.242 180.131 233.534C179.343 233.558 178.58 233.583 177.792 233.632C179.417 230.725 177.595 227.177 174.492 227.177C172.251 227.177 169.986 227.177 167.745 227.177V227.153Z" fill="#B8B4B0"/>
<path d="M272.229 218.899C272.229 219.293 272.254 219.688 272.278 220.106C271.416 220.673 271.86 221.88 271.096 222.472C271.047 223.211 270.628 223.556 269.914 223.63C268.338 224.418 266.738 224.541 265.162 223.63V222.447C265.162 222.447 265.334 222.225 265.408 222.127C265.974 221.782 266.664 221.782 267.255 221.511C266.639 221.338 266.023 221.831 265.383 221.56C265.088 221.437 264.866 221.215 264.743 220.944C264.571 220.476 264.546 219.983 264.694 219.491C265.605 217.717 267.23 217.914 268.806 218.012C270.037 218.012 271.269 218.012 272.278 218.899H272.229Z" fill="#E8C299"/>
<path d="M131.768 181.155C132.679 182.264 133.098 183.52 132.925 184.974C132.531 188.226 132.728 191.552 131.793 194.755C131.793 191.552 131.743 188.325 131.793 185.122C131.817 183.496 131.694 182.436 129.576 182.19C128.271 182.042 126.547 181.599 125.907 179.923C128.025 179.628 129.675 181.5 131.793 181.155H131.768Z" fill="#BCB6AD"/>
<path d="M152.995 243.019L152.429 244.275C148.76 246.591 144.771 248.414 141.668 251.568C141.077 252.159 140.166 251.912 139.402 251.912C143.342 248.044 148.046 245.334 153.02 243.043L152.995 243.019Z" fill="#F3EEE9"/>
<path d="M487.132 279.826C487.132 269.701 487.132 259.55 487.132 249.424C487.28 249.917 487.403 250.385 487.55 250.878C487.723 251.124 487.944 251.297 487.944 251.642C487.969 260.462 487.969 269.282 487.944 278.102C487.944 278.447 487.723 278.619 487.55 278.841L487.156 279.826H487.132Z" fill="#92232C"/>
<path d="M368.439 216.608H366.666C366.346 214.686 364.474 215.844 363.588 214.539C368.07 215.278 372.404 213.799 376.861 214.243C374.226 215.623 371.172 215.524 368.439 216.583V216.608Z" fill="#B8ADB1"/>
<path d="M487.525 278.841C487.525 269.503 487.525 260.191 487.525 250.878C488.289 251.297 488.166 252.036 488.166 252.701C488.166 260.831 488.166 268.937 488.166 277.067C488.166 277.708 488.313 278.471 487.525 278.865V278.841Z" fill="#E4787F"/>
<path d="M445.761 217.643C442.56 217.643 439.556 216.066 436.305 216.46C436.133 216.337 436.01 216.164 435.985 215.943C436.035 215.721 436.133 215.548 436.305 215.401C437.611 215.228 438.866 215.08 440.196 214.661C442.659 213.898 444.456 215.598 445.761 217.643Z" fill="#B7ADAF"/>
<path d="M343.051 106.875C341.352 105.298 340.884 100.617 342.09 100.667C344.11 100.741 344.134 98.8928 345.415 98.5972C346.203 99.6073 346.424 100.716 345.858 101.899C343.913 102.983 344.282 105.348 343.051 106.851V106.875Z" fill="#B5B1B4"/>
<path d="M275.233 269.577C272.131 266.547 267.969 264.527 266.344 260.117C270.062 262.556 272.697 266.005 275.233 269.577Z" fill="#F4EFEA"/>
<path d="M452.829 164.673C456.572 164.328 460.364 165.339 464.058 164.082C465.585 164.476 465.117 165.265 464.477 166.102C460.98 166.546 457.483 166.866 454.036 165.856C453.297 165.807 452.903 165.412 452.854 164.673H452.829Z" fill="#B5B2B1"/>
<path d="M359.574 116.286C351.645 116.286 343.691 116.262 335.762 116.237C338.273 115.572 340.859 116.04 343.395 115.769C348.665 114.981 353.96 115.572 359.229 115.449C359.648 115.597 359.771 115.868 359.574 116.286Z" fill="#AF2E1D"/>
<path d="M454.011 165.831C457.557 165.831 461.078 165.831 464.624 165.831C464.846 165.634 465.043 165.634 465.24 165.831C464.796 166.521 464.673 167.556 463.393 167.285C460.29 166.644 457.138 167.162 454.011 166.989V165.807V165.831Z" fill="#B2B4AE"/>
<path d="M459.897 122.815C458.739 122.15 456.991 122.692 456.351 121.041C458.173 121.164 459.823 120.967 461.103 119.366C461.694 118.627 462.679 118.282 463.246 119.415C463.713 120.327 463.098 120.844 462.187 121.066C461.177 121.312 460.611 122.15 459.921 122.84L459.897 122.815Z" fill="#B4B2B3"/>
<path d="M327.611 220.722C327.611 221.93 327.241 222.373 326.576 222.373C325.468 222.373 324.508 222.718 323.597 223.383C323.104 223.728 322.415 223.629 322.07 223.038C321.799 222.619 321.774 221.905 322.218 221.708C323.72 221.116 325.247 220.624 326.798 220.23C327.266 220.106 327.611 220.648 327.611 220.722V220.722Z" fill="#B5B1B6"/>
<path d="M340.268 222.496C339.283 223.013 338.224 223.358 337.092 223.383C335.959 222.398 334.531 222.57 333.201 222.274C332.462 222.102 331.526 221.412 331.773 220.698C332.117 219.663 332.955 220.451 333.644 220.648C335.86 221.215 337.855 222.595 340.244 222.496H340.268Z" fill="#B5B0B4"/>
<path d="M439.852 79.7495C440.739 79.8727 442.216 79.4539 442.044 80.9075C441.896 82.1393 441.28 83.4697 440.148 84.2827C439.951 84.4305 439.36 84.2334 439.113 84.0363C438.695 83.7161 438.646 83.1001 438.916 82.7059C439.557 81.7944 440.025 80.8828 439.877 79.7495H439.852Z" fill="#B6B1B4"/>
<path d="M448.126 167.014L450.465 168.196C449.381 169.724 449.111 171.473 449.283 173.469C447.165 172.68 449.16 169.896 447.017 169.379C446.87 168.344 448.076 167.95 448.126 167.014V167.014Z" fill="#B5B2B1"/>
<path d="M359.599 115.818C354.206 115.818 348.813 115.818 343.396 115.794C343.396 115.178 343.987 115.326 344.307 115.128C349.798 115.128 355.289 115.153 360.756 115.178C360.953 115.424 360.929 115.646 360.756 115.892C360.362 116.04 359.968 116.089 359.574 115.843L359.599 115.818Z" fill="#EE7566"/>
<path d="M343.051 106.875C343.666 105.225 341.401 102.12 345.415 102.17C345.538 102.293 345.661 102.391 345.784 102.514C346.35 103.672 346.449 104.756 345.415 105.717L343.051 106.9V106.875Z" fill="#B0B5B1"/>
<path d="M421.26 202.787C422.393 202.811 421.974 205.275 423.649 204.043C423.994 203.772 424.412 204.142 424.388 204.61C424.363 204.955 424.24 205.497 423.994 205.62C423.156 206.063 422.27 206.359 421.26 206.778C420.891 205.349 420.792 204.092 421.26 202.787Z" fill="#B7B1B4"/>
<path d="M469.82 140.677C469.492 139.412 469.918 137.737 471.1 135.651C472.233 138.435 472.061 139.1 469.82 140.677Z" fill="#B7B1B4"/>
<path d="M488.856 232.745C488.659 231.291 486.443 230.503 487.625 228.852C487.797 228.606 489.915 228.606 490.087 228.852C491.294 230.503 489.028 231.267 488.88 232.745H488.856Z" fill="#B8B1B2"/>
<path d="M131.769 221.264C132.606 223.605 134.994 224.837 135.906 227.128C135.315 227.128 134.724 227.128 134.133 227.128C132.704 226.956 132.433 225.674 131.793 224.763V221.24L131.769 221.264Z" fill="#D7BDA5"/>
<path d="M330.246 114.66C328.473 115.178 327.07 115.276 326.503 116.755C326.232 117.469 325.371 117.74 324.829 117.198C324.065 116.459 325.124 116.065 325.494 115.621C326.577 114.315 327.833 113.305 330.271 114.636L330.246 114.66Z" fill="#B6B1B5"/>
<path d="M265.137 223.629C266.713 223.629 268.289 223.629 269.89 223.629C269.89 223.826 269.89 223.999 269.865 224.196C266.763 225.058 263.537 223.925 260.434 224.787C258.858 224.787 257.282 224.787 255.706 224.763C258.76 223.703 261.961 223.58 265.137 223.605V223.629Z" fill="#D8C3AD"/>
<path d="M280.602 276.648C277.647 275.17 276.391 272.41 275.233 269.577C277.573 271.523 279.247 273.963 280.602 276.648Z" fill="#F1EDE7"/>
<path d="M471.027 219.515C473.047 218.678 475.09 218.727 477.11 219.491C475.09 220.328 473.047 220.279 471.027 219.515Z" fill="#ACB5B4"/>
<path d="M468.17 167.014C468.096 166.077 468.49 164.895 466.988 164.648C466.668 164.254 466.668 163.86 466.988 163.466C467.752 163.934 468.49 161.446 469.451 163.564C470.239 165.363 470.165 166.422 468.17 167.014V167.014Z" fill="#B4B1B6"/>
<path d="M466.989 163.491V164.673C466.89 165.782 466.078 165.856 465.241 165.856H464.625C464.625 165.191 464.674 164.525 464.059 164.082C464.059 163.909 464.059 163.737 464.059 163.589C464.699 163.22 464.723 162.086 465.758 162.16L467.014 163.491H466.989Z" fill="#B3B3AC"/>
<path d="M461.054 148.142C462.26 146.195 464.009 144.816 465.732 143.387C464.6 145.407 464.206 148.117 461.054 148.142Z" fill="#B9AFAD"/>
<path d="M317.589 248.34C317.441 248.611 317.293 248.858 317.146 249.129C317.146 245.556 317.146 241.959 317.17 238.362C317.17 237.746 316.949 236.909 317.983 236.81L318.229 236.933C317.589 239.693 318.131 242.477 317.934 245.261C317.86 246.295 318.303 247.379 317.564 248.34H317.589Z" fill="#E97C83"/>
<path d="M377.28 202.54C378.511 202.466 378.363 203.476 378.585 204.191C378.536 205.57 378.487 206.925 378.413 208.305C376.147 206.753 377.772 204.437 377.255 202.54H377.28Z" fill="#B9AAAC"/>
<path d="M345.415 102.169V98.6216C347.213 99.1636 347.878 100.445 347.828 102.219C347.459 102.49 347.09 102.736 346.597 102.736C346.129 102.711 345.735 102.465 345.415 102.169V102.169Z" fill="#B0B5B1"/>
<path d="M346.523 221.314L345.415 221.19C346.178 218.259 346.4 218.209 348.961 220.673C348.247 221.289 347.336 221.117 346.523 221.314V221.314Z" fill="#B9ADAE"/>
<path d="M413.306 204.782L417.443 204.733C417.837 204.412 418.206 204.412 418.526 204.807C418.526 206.753 418.526 208.699 418.526 210.646C417.566 209.192 418.28 207.517 417.985 205.989C416.507 205.225 414.931 205.915 413.429 205.595C413.134 205.373 413.084 205.127 413.281 204.807L413.306 204.782Z" fill="#E4605A"/>
<path d="M472.283 223.703L470.067 223.531C469.796 223.432 469.698 223.235 469.796 222.939C469.993 222.767 470.239 222.644 470.461 222.545C470.609 221.683 471.101 221.141 472.012 221.387C473.145 221.708 472.776 222.718 472.899 223.506C472.776 223.876 472.579 223.95 472.259 223.679L472.283 223.703Z" fill="#B9ACB0"/>
<path d="M328.793 116.976V126.979C328.596 127.201 328.448 127.151 328.35 126.88V126.831C327.242 125.772 327.414 124.515 327.906 123.259C328.35 121.14 327.439 118.923 328.497 116.878C328.645 116.828 328.744 116.878 328.793 117.001V116.976Z" fill="#934244"/>
<path d="M468.761 159.549C468.417 158.538 467.21 157.873 467.702 156.641C467.752 156.518 468.515 156.469 468.737 156.641C469.722 157.454 469.426 158.465 468.761 159.524V159.549Z" fill="#B8B0B5"/>
<path d="M345.415 102.169H346.597C347.237 102.835 347.188 103.697 347.188 104.535C347.188 105.372 347.237 106.21 346.622 106.9L346.474 106.85C345.76 106.801 345.464 106.382 345.415 105.717V102.169Z" fill="#B4B1B9"/>
<path d="M260.434 224.812C263.512 223.58 266.738 224.541 269.865 224.221C266.787 225.477 263.561 224.517 260.434 224.812Z" fill="#CAB5A0"/>
<path d="M423.378 198.943C423.821 197.071 425.052 196.356 426.899 196.529C426.308 198.179 425.102 198.943 423.378 198.943Z" fill="#D38F72"/>
<path d="M326.527 135.183C326.404 136.587 326.798 138.065 325.838 139.396C325.616 137.942 324.385 136.39 326.527 135.183Z" fill="#B5B1B7"/>
<path d="M482.355 223.629C482.823 222.053 483.758 222.225 484.694 223.087C485.187 223.531 486.566 224.221 484.694 224.787C483.241 225.724 483.044 224.171 482.33 223.605L482.355 223.629Z" fill="#B9AFB6"/>
<path d="M482.355 223.629L484.719 224.812C484.719 225.724 483.857 226.044 483.463 226.684C482.577 226.684 482.109 226.118 481.739 225.428C482.38 224.984 482.355 224.319 482.355 223.654V223.629Z" fill="#AFB3AE"/>
<path d="M337.338 158.908L337.584 158.76C339.924 159.45 342.312 158.883 344.676 159.081C345.021 159.081 345.292 159.154 345.538 159.376L345.44 159.844L345.292 160.041C342.608 159.967 339.948 159.869 337.264 159.795C336.944 159.475 336.723 159.154 337.338 158.933V158.908Z" fill="#EB727A"/>
<path d="M486.984 243.241L486.491 242.255C485.679 240.826 486.639 239.2 485.925 237.771V235.431C487.747 237.845 486.959 240.604 486.959 243.241H486.984Z" fill="#BE848C"/>
<path d="M444.481 95.1971C443.299 94.7536 442.56 93.9406 442.363 92.6841C444.259 92.5116 444.777 93.5218 444.481 95.1971Z" fill="#BCABA4"/>
<path d="M465.856 222.348C464.132 222.545 462.556 221.954 461.029 221.264C462.655 221.535 464.625 220.328 465.856 222.348Z" fill="#C09198"/>
<path d="M453.396 220.131C453.15 219.761 452.903 219.367 452.657 218.998C453.913 219.269 455.661 217.963 456.326 220.156C455.341 220.156 454.381 220.156 453.396 220.156V220.131Z" fill="#B8A7AE"/>
<path d="M465.831 169.379C466.176 168.147 466.964 167.359 468.195 167.014C468.417 168.812 467.653 169.601 465.831 169.379Z" fill="#B4B1B6"/>
<path d="M423.279 200.002C423.944 200.2 425.028 199.633 425.225 200.668C425.348 201.284 424.56 202.047 423.944 201.949C422.885 201.752 423.476 200.668 423.279 200.002V200.002Z" fill="#B6B1B9"/>
<path d="M328.498 116.853L328.227 123.357L327.956 123.579L327.636 123.406C327.636 122.618 327.636 121.805 327.636 121.017C328.005 119.637 326.971 118.011 328.473 116.853H328.498Z" fill="#EA9799"/>
<path d="M429.164 77.3354C429.583 76.9659 430.002 76.5717 430.396 76.2021C431.824 76.4239 431.553 77.5572 431.602 78.4934C430.74 78.2224 430.199 77.2123 429.14 77.3354H429.164Z" fill="#BEABA6"/>
<path d="M131.769 224.787C133.172 224.984 133.049 226.635 134.108 227.152C132.286 227.399 131.522 226.586 131.769 224.787Z" fill="#C0B4AE"/>
<path d="M467.087 138.78C467.087 136.784 467.087 134.789 467.087 132.793C467.259 132.818 467.432 132.867 467.629 132.892C468.097 134.838 468.097 136.76 467.629 138.706C467.456 138.73 467.284 138.755 467.112 138.804L467.087 138.78Z" fill="#B99689"/>
<path d="M423.476 214.12L422.146 214.317C421.752 214.612 421.333 214.785 420.841 214.76C420.077 214.711 419.24 214.908 418.674 214.144C418.674 213.775 418.698 213.405 418.723 213.036C420.274 213.553 422.023 213.183 423.476 214.12V214.12Z" fill="#AB434B"/>
<path d="M467.604 138.682C467.604 136.735 467.604 134.814 467.604 132.867C468.54 134.814 468.516 136.735 467.604 138.682Z" fill="#D0A99C"/>
<path d="M117.609 169.945C118.865 170.586 118.791 171.744 118.791 172.902C116.944 172.508 117.781 171.029 117.609 169.945Z" fill="#C9B8A9"/>
<path d="M481.222 225.477C479.941 226.561 478.981 225.995 478.119 224.886C479.203 224.861 480.311 224.566 481.222 225.477Z" fill="#EC717B"/>
<path d="M472.283 223.703L472.923 223.531C474.155 223.876 475.534 223.728 476.519 224.738C474.967 224.91 473.564 224.566 472.283 223.703Z" fill="#BD4C4C"/>
<path d="M451.647 111.605C451.647 112.616 451.598 113.65 451.573 114.685C450.465 113.921 450.367 112.813 450.515 111.605H451.647Z" fill="#BCACA8"/>
<path d="M271.072 222.471C271.146 221.51 270.703 220.303 272.254 220.082C272.205 221.042 272.525 222.2 271.072 222.471Z" fill="#E3C19D"/>
<path d="M423.328 210.646C423.476 209.685 424.042 209.34 424.953 209.66C425.101 209.71 425.298 210.227 425.224 210.301C424.707 210.843 423.993 210.597 423.353 210.67L423.328 210.646Z" fill="#AFB5AB"/>
<path d="M418.527 204.782C418.157 204.758 417.788 204.733 417.443 204.708C417.517 203.772 417.148 202.614 418.601 202.393L418.527 204.807V204.782Z" fill="#D78B6B"/>
<path d="M449.234 106.949C447.88 106.579 448.151 105.471 448.126 104.51C449.604 104.83 449.234 105.963 449.234 106.949Z" fill="#C4A39B"/>
<path d="M129.404 152.872C129.133 154.326 127.976 153.981 127.04 154.055C127.286 152.576 128.444 152.946 129.404 152.872Z" fill="#D2BCA7"/>
<path d="M357.776 185.91C359.722 185.615 359.254 187.241 359.599 188.226C358.22 188.078 358.417 186.674 357.776 185.91Z" fill="#D19378"/>
<path d="M353.837 181.106C354.6 181.155 354.847 181.648 354.896 182.338C354.231 182.215 353.295 182.707 352.926 181.845C352.68 181.254 353.443 181.278 353.837 181.131V181.106Z" fill="#BBAFAA"/>
<path d="M439.852 77.3848V79.7499C438.202 78.9615 438.202 78.1731 439.852 77.3848V77.3848Z" fill="#B6B1B4"/>
<path d="M436.232 78.592C436.133 78.9616 436.158 79.4543 435.592 79.3311C435.419 79.2818 435.222 78.9123 435.198 78.6659C435.124 78.2964 435.198 77.8283 435.665 77.779C436.183 77.7297 436.183 78.1978 436.232 78.5674V78.592Z" fill="#B9AFB7"/>
<path d="M439.852 77.3847C439.999 76.4239 440.566 76.079 441.477 76.3746C441.625 76.4239 441.822 76.9413 441.748 77.0152C441.231 77.5572 440.516 77.3355 439.852 77.3847Z" fill="#B6B1B4"/>
<path d="M347.385 179.431C347.237 179.899 346.868 179.948 346.474 179.899C346.08 179.85 345.661 179.677 345.834 179.209C345.883 179.037 346.302 178.914 346.573 178.889C346.942 178.864 347.361 178.889 347.385 179.456V179.431Z" fill="#B6B0B8"/>
<path d="M448.076 104.534C446.648 104.189 446.968 103.081 446.993 102.095C448.372 102.44 448.076 103.573 448.076 104.534Z" fill="#CD9883"/>
<path d="M337.338 158.908C337.338 159.204 337.289 159.499 337.264 159.77C336.41 160.066 335.983 159.384 335.983 157.726C336.427 158.12 336.895 158.514 337.338 158.908Z" fill="#B6B0AA"/>
<path d="M465.831 142.278C465.881 141.318 465.536 140.184 466.94 139.889C466.94 140.85 467.284 142.007 465.831 142.278Z" fill="#CC977D"/>
<path d="M445.688 172.878C445.786 171.917 445.515 170.808 446.845 170.438C446.845 171.424 447.313 172.656 445.688 172.878Z" fill="#BFA9A2"/>
<path d="M347.803 168.172C349.232 168.492 348.887 169.625 348.911 170.586C347.459 170.266 347.803 169.133 347.803 168.172Z" fill="#CC9A85"/>
<path d="M324.163 122.199C324.286 121.756 324.557 120.992 325 121.509C325.714 122.347 325.345 123.135 324.188 123.382V122.199H324.163Z" fill="#B1B4AD"/>
<path d="M423.328 210.646C423.033 211.976 422.294 211.902 421.26 211.409C421.802 210.325 422.663 210.793 423.328 210.646Z" fill="#B6B0B9"/>
<path d="M284.049 281.994C282.892 281.378 282.498 280.294 282.276 279.087C283.434 279.703 283.852 280.787 284.049 281.994Z" fill="#F0EBE7"/>
<path d="M430.075 214.809C428.967 214.686 427.711 215.401 426.751 214.292C427.884 214.292 429.115 213.725 430.075 214.809Z" fill="#E68081"/>
<path d="M335.491 223.703C334.506 224.122 333.619 224.861 332.462 224.689C333.028 223.014 334.407 223.827 335.491 223.703Z" fill="#EA7780"/>
<path d="M470.485 222.546L469.722 223.038C468.86 223.433 467.998 223.531 467.161 222.989C467.013 222.817 466.89 222.644 466.742 222.472C467.973 222.472 469.229 222.521 470.485 222.546V222.546Z" fill="#E58D92"/>
<path d="M332.61 147.107C334.235 147.674 333.447 149.004 333.521 150.064C333.373 149.916 333.201 149.793 333.053 149.645C332.437 148.98 333.004 147.994 332.462 147.28L332.61 147.083V147.107Z" fill="#932D37"/>
<path d="M330.099 137.622C330.887 138.632 330.64 139.815 330.665 140.948C329.778 139.963 330.123 138.755 330.099 137.622Z" fill="#E98389"/>
<path d="M353.689 91.5508C353.59 92.487 353.984 93.7188 352.408 93.8174C352.556 92.9058 352.95 92.1174 353.689 91.5508Z" fill="#CE957D"/>
<path d="M436.306 215.401L436.257 216.165C435.346 216.165 434.385 216.583 433.548 215.869C433.474 215.697 433.4 215.549 433.302 215.401H436.306Z" fill="#C36970"/>
<path d="M332.438 147.304C333.078 147.969 333.029 148.832 333.029 149.669C331.798 149.152 332.659 148.093 332.438 147.304Z" fill="#EB8690"/>
<path d="M387.918 204.757C387.548 203.378 386.588 202.663 385.283 202.294C384.593 202.097 384.396 201.555 384.544 200.914C384.667 200.372 385.111 200.101 385.628 200.101C392.4 200.101 399.196 200.101 405.968 200.175C406.51 200.175 406.707 200.742 406.83 201.234C405.008 202.368 403.013 201.702 401.092 201.801C398.457 201.924 395.798 201.826 393.163 201.826C396.881 201.826 400.6 201.826 404.318 201.826C405.18 201.826 406.091 201.702 406.805 202.417V204.782C407.002 204.93 407.076 205.127 407.002 205.373C406.781 205.644 406.411 205.743 406.14 205.94C400.674 205.94 395.207 205.94 389.765 205.94C389.198 205.447 388.435 205.841 387.844 205.497C387.696 205.25 387.696 205.004 387.918 204.807V204.757Z" fill="#DC8462"/>
<path d="M425.668 233.041C422.91 238.485 423.008 244.595 421.555 250.336C420.472 254.573 420.053 258.959 418.6 263.122C418.428 259.747 418.6 256.47 419.438 253.095C420.127 250.385 420.324 247.429 420.964 244.62C421.752 241.072 422.565 237.5 423.452 233.977C423.747 232.794 424.855 233.164 425.668 233.065V233.041Z" fill="#D22131"/>
<path d="M376.098 265.512C375.384 262.999 374.867 260.462 374.941 257.826H376.098C377.428 259.181 375.975 261.201 377.28 262.556C377.649 262.95 377.625 263.344 377.28 263.739C377.305 264.625 376.492 264.921 376.073 265.537L376.098 265.512Z" fill="#D11F2D"/>
<path d="M377.28 262.531C374.99 261.422 376.565 259.378 376.098 257.826C376.171 257.136 375.925 256.347 377.28 255.362V262.531Z" fill="#CF2438"/>
<path d="M406.14 205.915L406.829 205.398C408.972 204.807 411.139 204.979 413.306 205.275C414.857 205.669 416.605 204.733 418.034 205.965C414.069 205.965 410.129 205.94 406.164 205.915H406.14Z" fill="#C03931"/>
<path d="M418.674 214.169L420.964 214.292C421.309 214.662 421.26 215.031 420.964 215.376L416.458 215.105C417.024 213.873 418.009 214.366 418.699 214.169H418.674Z" fill="#D2223A"/>
<path d="M374.941 257.825C373.882 255.78 374.423 253.464 373.783 251.346C375.999 253.169 374.497 255.682 374.941 257.825Z" fill="#D11F2D"/>
<path d="M377.279 271.992C377.402 270.982 377.033 269.898 377.969 268.296C378.437 270.046 379.175 271.179 377.279 271.992Z" fill="#D22237"/>
<path d="M420.939 215.352V214.268C421.358 214.268 421.752 214.292 422.121 214.317C421.826 215.105 423.796 215.573 422.515 216.386C421.777 216.854 421.087 216.312 420.939 215.376V215.352Z" fill="#D0262D"/>
<path d="M387.893 205.349C388.533 205.423 389.223 205.349 389.74 205.915C387.573 205.669 385.283 206.556 383.189 205.349C384.765 204.881 386.317 204.856 387.868 205.349H387.893Z" fill="#C0382F"/>
<path d="M387.893 205.349H383.215C382.993 205.152 382.771 204.954 382.55 204.757C384.347 204.757 386.12 204.757 387.918 204.757V205.349H387.893Z" fill="#EB6C60"/>
<path d="M377.279 263.714V262.531C377.673 262.482 377.993 261.521 378.314 262.137C378.732 262.925 378.24 263.591 377.279 263.714Z" fill="#CF2438"/>
<path d="M485.95 237.771C486.738 239.2 486.418 240.752 486.516 242.255C485.458 240.875 486.049 239.274 485.95 237.771Z" fill="#8E3641"/>
<path d="M467.161 222.989C468.023 222.989 468.885 223.014 469.722 223.038C469.845 223.186 469.944 223.359 470.067 223.506C469.057 223.556 467.974 223.95 467.161 222.964V222.989Z" fill="#91383E"/>
<path d="M443.891 258.269C444.112 257.505 443.743 256.569 444.556 255.953C444.235 256.692 445.467 257.875 443.891 258.269Z" fill="#B51A1D"/>
<path d="M317.589 248.34C317.81 244.546 317.269 240.703 318.254 236.958C317.983 240.752 318.992 244.62 317.589 248.34Z" fill="#98232B"/>
<path d="M351.768 253.76C351.842 254.475 351.94 255.214 352.014 255.928C350.832 255.337 351.3 254.549 351.768 253.76Z" fill="#AE1A1B"/>
<path d="M433.547 215.869C434.458 215.967 435.345 216.066 436.256 216.164C436.305 216.263 436.33 216.361 436.305 216.46C435.345 216.435 434.385 216.411 433.449 216.361C433.424 216.361 433.375 216.189 433.375 216.115C433.375 216.016 433.498 215.967 433.547 215.893V215.869Z" fill="#A31B1A"/>
<path d="M449.923 228.976C449.8 229.764 450.169 230.7 449.307 231.316C449.529 230.552 448.692 229.493 449.923 228.976Z" fill="#B41B1D"/>
<path d="M372.626 277.978C372.626 279.235 371.468 279.506 370.803 280.22C369.178 281.033 367.553 281.132 365.903 280.245C361.84 277.092 362.111 273.076 366.519 270.735C367.774 270.045 369.03 269.996 370.262 270.735V270.785C370.68 271.327 371.37 271.524 371.862 271.967L372.552 272.731C373.586 274.455 373.832 276.205 372.601 277.978H372.626Z" fill="#F7C35E"/>
<path d="M361.815 255.312C362.209 254.672 362.776 254.302 363.515 254.228C364.746 253.834 365.977 253.834 367.208 254.228C369.228 254.943 369.966 256.741 370.73 258.515C371.222 259.008 371.296 259.501 370.705 259.969C369.991 262.014 368.76 263.615 366.642 264.403C365.509 264.674 364.376 264.699 363.244 264.403C363.022 263.812 362.825 263.171 362.53 262.605C362.209 260.437 362.111 258.269 361.939 256.101C361.914 255.83 361.865 255.559 361.84 255.312H361.815Z" fill="#F7C15E"/>
<path d="M360.584 261.422C360.461 261.373 360.313 261.299 360.19 261.225C359.648 259.944 359.771 258.638 360.116 257.357C360.633 256.643 360.929 255.731 361.815 255.337L362.012 255.559C362.455 256.914 361.594 258.392 362.554 259.796C362.948 260.363 361.988 260.905 361.372 261.225C361.126 261.348 360.855 261.398 360.584 261.422V261.422Z" fill="#F7C15E"/>
<path d="M372.625 277.979C373.315 276.229 372.946 274.48 372.576 272.731C374.128 274.456 374.398 276.205 372.625 277.979Z" fill="#F3BD5C"/>
<path d="M363.071 263.911C364.179 264.625 365.435 264.28 366.641 264.404C364.967 264.773 363.169 265.98 361.987 263.591C362.455 263.369 362.849 263.344 363.071 263.911Z" fill="#AF2517"/>
<path d="M363.071 263.911C362.702 263.812 362.332 263.689 361.987 263.59C361.593 262.827 360.682 262.358 360.608 261.398C360.682 261.324 360.756 261.25 360.83 261.176C362.258 260.535 362.48 261.915 363.145 262.556C363.342 262.999 363.613 263.467 363.096 263.886L363.071 263.911Z" fill="#F4A968"/>
<path d="M365.903 280.245C367.529 280.245 369.178 280.245 370.804 280.22L370.188 280.861C368.834 281.255 367.479 281.28 366.15 280.861L365.928 280.269L365.903 280.245Z" fill="#F39978"/>
<path d="M366.124 280.836C367.478 280.836 368.808 280.836 370.163 280.836C368.808 281.649 367.454 281.699 366.124 280.836Z" fill="#9E3116"/>
<path d="M360.116 257.357C360.141 258.639 360.165 259.944 360.19 261.225C359.23 259.944 359.377 258.663 360.116 257.357Z" fill="#A33316"/>
<path d="M367.208 254.253C365.977 254.253 364.746 254.253 363.515 254.253C364.746 253.416 365.977 253.366 367.208 254.253Z" fill="#EE7768"/>
<path d="M370.68 259.994V258.54C372.009 259.057 371.345 259.895 371.074 260.683L370.68 259.994Z" fill="#AA1A17"/>
<path d="M366.716 270.218C367.873 269.331 369.006 269.282 370.163 270.218C369.006 270.661 367.873 270.661 366.716 270.218Z" fill="#9C1F15"/>
<path d="M366.715 270.218C367.873 270.218 369.005 270.218 370.163 270.218C370.237 270.39 370.261 270.563 370.286 270.735C369.03 270.735 367.774 270.735 366.543 270.735C366.617 270.563 366.666 270.39 366.74 270.218H366.715Z" fill="#F18A6D"/>
<path d="M347.36 231.217C347.287 230.503 347.188 229.788 347.114 229.049C348.272 229.641 347.828 230.429 347.36 231.217Z" fill="#B11A1A"/>
<path d="M371.887 271.967C371.05 271.967 370.286 271.893 370.262 270.785C371.074 270.785 371.665 271.13 371.887 271.967Z" fill="#F3BD5C"/>
<path d="M219.507 175.341C218.325 175.439 217.168 175.513 216.109 174.799C213.917 173.887 213.991 171.473 213.745 169.921C212.76 163.663 212.169 157.307 212.341 150.926C212.391 149.226 213.055 147.92 214.656 147.156C221.059 144.052 234.627 145.555 239.552 150.95C243.59 155.41 243.689 162.751 239.38 167.753C235.292 172.483 229.825 174.011 224.063 174.947C222.585 175.193 221.083 176.179 219.483 175.366L219.507 175.341Z" fill="#010101"/>
<path d="M213.893 172.039C213.671 173.123 213.843 174.651 211.923 173.271C210.938 172.557 209.657 172.212 208.524 171.719C208.081 171.251 207.466 171.029 207.022 170.537C205.643 169.625 204.732 168.295 203.698 167.063C200.866 162.382 202.171 155.754 206.653 152.108C207.933 151.073 209.337 150.187 210.519 149.053C211.258 148.339 211.479 149.053 211.923 149.226C212.243 149.472 212.489 149.792 212.514 150.187C212.932 157.109 213.573 163.983 214.114 170.906C214.139 171.3 214.09 171.695 213.868 172.039H213.893Z" fill="#EFECEA"/>
<path d="M207.318 191.207L207.268 192.291C206.751 193.228 207.195 194.558 206.062 195.273C205.717 196.554 205.052 197.638 204.043 198.5C202.861 199.116 202.122 200.175 201.383 201.21C200.3 201.875 199.487 202.861 198.453 203.6L197.763 204.019C194.562 204.166 194.02 201.58 193.035 199.412L194.291 198.254C194.784 197.268 195.916 197.145 196.63 196.48C197.271 195.396 198.33 194.632 198.97 193.548C200.743 190.863 201.949 187.98 201.974 184.703C202.787 183.127 203.772 181.796 205.84 182.387C207.958 182.979 208.303 184.654 208.155 186.551C208.106 187.118 208.253 187.734 207.884 188.251C207.121 189.138 207.983 190.32 207.293 191.207H207.318Z" fill="#B8655B"/>
<path d="M177.694 205.373C177.522 205.373 177.374 205.373 177.226 205.275C177.67 202.885 176.192 201.924 173.016 202.516L172.08 202.318C169.174 201.037 167.869 198.623 167.327 195.666C168.041 194.385 168.534 193.08 168.706 191.601C168.879 190.099 169.174 188.472 171.218 188.275C171.932 190.37 172.597 192.513 174.173 194.164C175.232 195.494 176.463 196.652 177.744 197.785C180.157 199.83 183.063 200.495 186.091 200.791C188.16 201.703 190.672 201.703 192.198 203.772C192.248 204.092 192.198 204.413 192.051 204.708C191.534 205.373 190.795 205.669 190.031 205.694C185.894 205.842 181.757 206.236 177.645 205.373H177.694Z" fill="#B6665A"/>
<path d="M171.217 188.276C170.134 189.458 169.247 190.764 169.543 192.464C169.814 194.139 169.1 195.248 167.696 196.036C165.11 194.558 165.061 191.651 164.421 189.335C163.756 186.896 163.608 184.186 164.15 181.55C164.421 180.293 164.839 179.357 166.021 178.84C169.543 178.174 171.562 179.874 170.971 183.373C170.7 185.073 171.439 186.65 171.193 188.3L171.217 188.276Z" fill="#B9665D"/>
<path d="M213.893 172.04L211.947 149.226C212.095 147.821 213.129 147.304 214.262 146.861C221.945 143.781 229.554 144.2 236.695 148.166C243.96 152.207 245.536 160.485 240.463 167.063C235.193 173.912 227.732 175.686 219.507 175.341C224.087 174.774 228.791 174.158 232.879 172.064C239.577 168.615 243.196 164.156 242.014 156.395C241.473 152.872 238.961 150.113 235.809 148.634C229.628 145.752 223.152 144.693 216.429 146.959C214.164 147.723 213.129 148.955 213.179 151.468C213.326 158.415 213.893 165.314 214.927 172.187C215.075 173.247 215.567 173.986 216.158 174.774C213.942 175.045 214.656 172.951 213.917 172.015L213.893 172.04Z" fill="#131211"/>
<path d="M177.694 205.374C181.659 204.511 185.648 204.782 189.662 204.733C190.622 204.733 191.706 204.93 191.977 203.55C194.095 202.269 195.006 203.427 195.547 205.324C189.613 208.355 183.654 208.65 177.719 205.349L177.694 205.374Z" fill="#B8655B"/>
<path d="M166.046 178.839C162.771 184.949 164.692 190.542 167.721 196.036C168.484 198.623 170.577 200.274 172.08 202.343C168.016 202.787 167.376 198.919 166.342 196.8C164.027 191.996 163.018 186.625 163.584 181.106C163.756 179.332 164.323 178.618 166.046 178.839Z" fill="#EDBC9A"/>
<path d="M126.376 169.428C125.366 165.979 127.435 161.495 130.611 160.214C132.68 159.401 133.911 160.14 134.01 162.308C134.133 165.535 134.157 168.763 134.059 171.99C133.985 173.937 132.926 174.602 131.104 173.542C131.104 173.395 131.129 173.271 131.153 173.123C133.099 170.216 132.68 166.964 132.458 163.786C132.409 163.146 132.36 162.234 131.572 162.135C130.71 162.012 130.291 162.776 129.848 163.441C128.617 165.289 128.174 167.556 126.77 169.329C126.647 169.354 126.499 169.403 126.351 169.428H126.376Z" fill="#BC9169"/>
<path d="M195.522 205.349C194.168 205.103 193.798 202.861 191.952 203.575C191.533 202.466 190.77 201.9 189.588 201.801C188.898 201.752 187.938 201.998 187.913 200.791C189.76 200.791 191.336 199.781 193.084 199.436C195.35 200.249 195.227 203.526 197.812 204.043C197.123 204.634 196.556 205.374 195.522 205.374V205.349Z" fill="#B6665A"/>
<path d="M173.016 202.54C174.321 200.618 175.724 200.643 177.153 202.368C177.818 203.181 178.753 203.575 179.64 203.821C179.344 205.521 177.423 203.698 177.226 205.299C175.503 204.881 174.148 203.87 173.016 202.54V202.54Z" fill="#B8655B"/>
<path d="M207.933 188.251C207.933 187.955 207.933 187.659 207.909 187.364C207.835 185.861 208.303 184.284 206.406 183.323C204.363 182.288 203.378 183.841 202.048 184.703C202.048 182.461 203.23 181.155 205.446 181.229C207.613 181.303 208.303 183.028 208.475 184.9C208.573 186.033 208.795 187.24 207.958 188.275L207.933 188.251Z" fill="#BF7967"/>
<path d="M187.914 200.791C188.85 201.505 189.958 201.111 190.992 201.234C191.706 201.308 192.642 200.988 192.962 201.974C193.208 202.787 192.297 203.033 191.977 203.6C189.908 202.91 187.618 202.737 186.116 200.816C186.707 200.816 187.323 200.816 187.914 200.816V200.791Z" fill="#B8655B"/>
<path d="M131.129 173.543C128.617 173.247 126.795 172.138 126.376 169.428L126.474 169.354C128.715 169.946 130.981 170.512 131.178 173.444L131.104 173.543H131.129Z" fill="#BC9169"/>
<path d="M203.698 167.039C205.299 167.778 206.432 169.034 207.318 170.537C207.146 170.808 206.924 170.833 206.678 170.611C204.782 170.192 204.117 168.714 203.698 167.039Z" fill="#F0E0D4"/>
<path d="M177.743 197.785C175.995 197.12 174.813 195.913 174.173 194.164C175.675 195.075 176.906 196.233 177.743 197.785Z" fill="#E2A58D"/>
<path d="M203.772 198.278C204.535 197.268 205.299 196.283 206.087 195.272C206.333 197.096 205.496 198.229 203.846 198.869C203.624 198.746 203.55 198.623 203.6 198.5C203.649 198.352 203.723 198.278 203.797 198.278H203.772Z" fill="#EAB596"/>
<path d="M198.478 203.624C199.142 202.442 199.906 201.407 201.408 201.234C200.694 202.343 199.857 203.329 198.478 203.624Z" fill="#B9745F"/>
<path d="M203.772 198.278C203.772 198.475 203.821 198.672 203.846 198.869C203.107 199.707 202.467 200.692 201.408 201.21C201.581 199.732 202.664 198.968 203.772 198.253V198.278Z" fill="#B9745F"/>
<path d="M199.019 193.548C198.822 195.001 197.763 195.765 196.68 196.48C196.827 195.001 197.936 194.262 199.019 193.548Z" fill="#EAB496"/>
<path d="M210.84 218.899C209.904 218.825 208.722 219.195 208.476 217.717C209.411 217.791 210.593 217.421 210.84 218.899Z" fill="#ECC19B"/>
<path d="M206.062 195.272C206.308 194.213 206.554 193.178 207.268 192.316C207.071 193.4 207.982 194.903 206.062 195.272Z" fill="#EAB596"/>
<path d="M196.68 196.504C196.188 197.465 195.276 197.884 194.316 198.278C194.07 196.331 195.695 196.849 196.68 196.504Z" fill="#EAB496"/>
<path d="M207.318 191.207C207.392 190.197 206.974 189.089 207.909 188.251C207.909 189.261 208.106 190.345 207.318 191.207Z" fill="#BF7967"/>
<path d="M206.678 170.611L207.318 170.537C208.032 170.611 208.451 170.98 208.5 171.695C207.663 171.719 207.072 171.3 206.678 170.611V170.611Z" fill="#F4D7BC"/>
<path d="M426.727 154.129C427.539 161.126 426.554 167.753 421.95 173.321C418.896 177.016 415.153 179.653 409.982 180.121C403.136 180.761 397.448 178.692 392.523 174.134C392.153 173.74 391.809 173.272 391.488 172.853C390.503 170.906 389.617 168.886 388.484 167.014C387.795 165.88 387.967 164.772 387.918 163.639C387.869 162.357 388.829 161.741 389.789 161.298C390.7 160.879 391.513 161.347 392.129 162.062C392.867 162.949 393.508 163.811 393.951 164.944C396.34 170.808 400.895 174.306 407.076 174.848C410.524 175.144 413.799 173.296 416.212 170.537C416.803 169.601 417.566 168.812 418.477 168.172C421.26 163.22 422.023 158.071 419.98 152.626C419.733 152.01 419.758 151.295 419.635 150.606C419.044 149.374 418.896 148.167 419.783 146.984C420.743 146.048 421.9 145.703 423.23 145.875C423.944 147.822 425.988 149.226 425.742 151.616C426.431 152.306 426.111 153.39 426.727 154.129V154.129Z" fill="#E190BD"/>
<path d="M358.49 106.629C358.22 104.412 359.205 103.057 361.15 101.923C369.104 97.2915 377.181 97.2915 385.43 100.962C386.144 101.283 386.809 101.701 387.474 102.12C389.173 103.254 390.478 104.683 389.124 106.752C387.893 108.674 386.144 108.206 384.47 107.171C380.087 104.485 375.359 103.574 370.335 104.535C368.094 104.954 365.952 105.668 364.228 107.22C362.061 109.511 360.263 109.314 358.515 106.629H358.49Z" fill="#070505"/>
<path d="M460.513 135.75C460.513 139.174 458.395 141.934 455.169 142.968C453.618 143.461 452.903 143.042 452.879 141.465C452.805 137.376 452.337 133.335 451.746 129.295C451.524 127.817 452.312 127.422 453.691 127.669C457.434 128.383 460.513 131.98 460.537 135.75H460.513Z" fill="#B36644"/>
<path d="M355.56 111.236C352.383 110.004 354.476 106.85 353.27 104.904C351.866 105.421 353.073 107.047 351.669 107.737C351.374 105.594 350.93 103.549 350.044 101.332C356.274 104.288 356.988 105.618 355.56 111.236V111.236Z" fill="#DD8462"/>
<path d="M406.805 202.393H388.41V201.21H406.805V202.393Z" fill="#DA875D"/>
<path d="M345.439 159.844C345.439 159.844 345.39 159.598 345.365 159.475C345.808 158.933 346.424 159.056 346.99 159.056C354.304 159.13 361.618 158.859 368.931 159.179C369.325 159.007 369.744 158.834 370.138 158.637C369.966 160.042 368.882 159.918 367.922 159.894C360.411 159.894 352.925 159.82 345.414 159.795L345.439 159.844Z" fill="#E95652"/>
<path d="M385.554 76.1033C386.194 74.4526 387.056 74.5266 388.853 74.7729C392.99 75.3149 397.251 74.9454 401.486 75.0439C402.545 75.0439 403.949 74.4773 404.466 76.1033C398.162 75.3888 391.858 75.2657 385.578 76.1033H385.554Z" fill="#F8E8E3"/>
<path d="M360.732 115.621C360.732 115.473 360.732 115.301 360.756 115.153C365.755 115.153 370.729 115.128 375.728 115.153C376.664 115.153 377.723 114.857 378.437 115.843C378.215 115.843 378.018 115.843 377.797 115.867C372.108 115.966 366.395 116.434 360.707 115.646L360.732 115.621Z" fill="#E8574F"/>
<path d="M358.491 106.628C360.165 109.018 362.16 108.402 364.204 107.22C364.204 108.55 363.12 110.324 362.431 109.88C361.076 108.969 358.121 109.634 358.491 106.628Z" fill="#D1835C"/>
<path d="M380.875 119.661V118.651C382.032 118.873 382.008 119.785 382.008 120.672C382.008 122.692 382.008 124.737 382.008 126.757C382.008 126.954 381.934 127.299 381.934 127.299C381.195 127.225 381.54 126.609 381.367 126.215C380.727 124.071 381.54 121.805 380.875 119.637V119.661Z" fill="#EB7561"/>
<path d="M451.721 118.577C452.928 118.972 453.297 120.129 454.036 120.967C453.888 121.657 453.987 122.273 452.952 121.386C451.967 120.548 451.426 119.809 451.721 118.553V118.577Z" fill="#CE947B"/>
<path d="M419.807 146.984C419.758 148.191 419.708 149.398 419.659 150.606C418.132 149.349 417.911 148.117 419.807 146.984Z" fill="#E38994"/>
<path d="M379.693 136.366C379.94 134.518 380.063 132.645 380.801 130.872C380.407 132.695 381.91 134.887 379.693 136.366Z" fill="#E77660"/>
<path d="M423.255 145.875C423.624 145.234 422.738 143.929 424.215 143.929C424.56 143.929 425.176 144.569 425.2 144.914C425.2 146.392 423.895 145.505 423.255 145.875Z" fill="#DD8468"/>
<path d="M441.009 159.918C441.009 161.101 441.058 162.259 441.083 163.442C439.113 162.308 439.335 161.126 441.009 159.918Z" fill="#DF8F40"/>
<path d="M418.502 168.147C418.182 169.354 417.615 170.315 416.236 170.512C416.064 168.837 416.729 167.95 418.502 168.147Z" fill="#DD8879"/>
<path d="M413.281 205.275C411.114 205.324 408.972 205.349 406.805 205.398V204.782C408.972 204.782 411.114 204.782 413.281 204.782C413.281 204.955 413.281 205.102 413.281 205.275Z" fill="#EC6C61"/>
<path d="M380.875 119.662C382.057 121.78 381.097 124.047 381.367 126.24C381.22 126.314 381.047 126.388 380.9 126.437C380.9 124.17 380.9 121.928 380.9 119.662H380.875Z" fill="#AD301D"/>
<path d="M346.671 104.584L346.597 102.145C347.015 102.145 347.434 102.169 347.828 102.194C347.803 102.933 347.754 103.697 347.729 104.436C347.434 104.83 347.065 104.855 346.671 104.584Z" fill="#BBAEAA"/>
<path d="M395.083 95.1479C395.477 95.2219 395.896 95.3697 395.748 95.8378C395.699 96.0102 395.28 96.1581 395.009 96.1827C394.64 96.232 394.148 96.1827 394.197 95.6407C394.246 95.1726 394.689 95.1479 395.083 95.1479Z" fill="#E18166"/>
<path d="M445.835 151.813C445.786 152.158 445.737 152.503 445.687 152.847C444.85 152.7 444.505 152.207 444.702 151.394C444.752 151.197 445.072 151.049 445.269 150.876L445.835 151.813V151.813Z" fill="#DE8369"/>
<path d="M448.052 112.862C447.978 113.256 447.83 113.675 447.362 113.502C447.19 113.453 447.042 113.034 447.018 112.763C446.968 112.394 447.018 111.901 447.559 111.95C448.027 111.999 448.052 112.443 448.052 112.837V112.862Z" fill="#DE8368"/>
<path d="M426.726 154.129C425.372 153.685 425.741 152.601 425.741 151.616C427.145 152.035 426.8 153.119 426.726 154.129Z" fill="#E38A95"/>
<path d="M346.67 104.584C347.015 104.535 347.384 104.485 347.729 104.436C347.729 105.422 348.099 106.555 346.621 106.875C346.621 106.111 346.646 105.348 346.67 104.584V104.584Z" fill="#D1947E"/>
<path d="M392.153 176.154C391.932 176.203 391.587 176.376 391.267 176.351C390.873 176.351 390.479 176.055 390.75 175.637C390.897 175.415 391.415 175.39 391.784 175.39C392.055 175.39 392.35 175.563 392.178 176.154H392.153Z" fill="#DC866B"/>
<path d="M391.39 103.376C391.292 103.746 391.316 104.239 390.75 104.091C390.577 104.042 390.405 103.672 390.356 103.426C390.282 103.056 390.356 102.588 390.824 102.563C391.365 102.514 391.341 103.007 391.39 103.376V103.376Z" fill="#E3815E"/>
<path d="M432.465 161.593C432.514 161.815 432.686 162.16 432.662 162.48C432.662 162.875 432.366 163.269 431.947 162.998C431.726 162.85 431.701 162.333 431.701 161.963C431.701 161.692 431.874 161.396 432.465 161.569V161.593Z" fill="#DD836C"/>
<path d="M375.088 150.458C374.989 149.497 375.482 148.782 376.097 148.117C375.974 149.004 376.467 150.137 375.088 150.458Z" fill="#EA6658"/>
<path d="M391.488 172.828C392.251 172.927 392.719 173.272 392.522 174.109C391.02 174.627 391.586 173.444 391.488 172.828Z" fill="#DC866B"/>
<path d="M379.028 139.223C379.102 138.386 378.979 137.523 379.619 136.833C379.373 137.622 380.358 138.706 379.028 139.223Z" fill="#ED715E"/>
<path d="M212.021 225.97C213.942 228.705 212.711 232.252 214.287 235.135C214.73 235.948 213.77 237.007 213.031 237.229C210.15 238.042 210.889 239.57 212.021 241.294C211.751 241.713 211.455 242.107 211.233 242.551C211.061 242.748 210.864 242.895 210.618 242.994C209.633 242.969 209.066 243.733 208.303 244.152C208.032 244.226 207.786 244.251 207.515 244.275C206.087 244.177 204.806 244.595 203.624 245.335C202.122 245.803 200.398 244.866 199.044 246.098C195.867 247.256 192.715 246.591 189.563 246C187.84 244.571 185.599 244.448 183.604 243.733C181.905 243.117 179.886 242.748 180.428 240.136C182.398 240.112 183.801 240.777 183.087 237.13C182.496 234.1 181.757 230.528 182.521 227.152C183.013 226.413 183.801 226.364 184.565 226.266C186.338 225.921 187.938 225.108 189.613 224.516C190.721 224.147 191.804 223.999 192.912 224.442C194.71 225.551 196.729 225.28 198.576 224.96C201.777 224.393 204.929 224.467 208.131 224.713C208.845 224.911 209.214 225.502 209.682 225.995H212.046L212.021 225.97Z" fill="#ECC29A"/>
<path d="M183.604 243.708C184.367 243.708 185.13 243.708 185.894 243.659C187.741 243.487 189.39 243.536 189.587 245.975C187.322 245.975 185.303 245.285 183.628 243.708H183.604Z" fill="#E9C6A3"/>
<path d="M199.069 246.074C200.103 243.684 202.221 245.335 203.747 244.817L203.87 245.211C203.649 245.852 202.935 245.63 202.541 246L199.044 246.074H199.069Z" fill="#ECCAAB"/>
<path d="M203.747 244.817C204.683 242.748 206.53 244.004 207.933 243.684C208.204 244.817 207.022 244.349 206.677 244.817C206.505 244.817 206.308 244.817 206.136 244.842C205.372 245.236 204.609 245.433 203.821 244.891L203.772 244.817H203.747Z" fill="#ECCAAB"/>
<path d="M203.797 244.915L206.112 244.866C205.151 245.975 203.895 246.123 202.541 246.024C202.96 245.655 203.378 245.285 203.797 244.94V244.915Z" fill="#F9E7D8"/>
<path d="M206.678 244.817C207.096 244.448 207.515 244.054 207.934 243.684C208.106 243.684 208.303 243.684 208.475 243.635C208.746 243.339 209.091 243.29 209.46 243.438L209.707 243.709C209.189 245.433 207.786 244.694 206.678 244.817V244.817Z" fill="#FBEBDB"/>
<path d="M180.156 236.588C180.205 236.022 180.255 235.455 180.304 234.913C181.018 235.8 180.649 236.835 180.723 237.82C180.526 237.426 180.329 237.007 180.156 236.613V236.588Z" fill="#ECC29A"/>
<path d="M212.095 242.501C211.578 243.462 210.716 243.733 209.706 243.709L209.657 243.635C209.337 242.526 210.568 242.994 210.839 242.477C211.233 242.157 211.627 242.107 212.021 242.477H212.095V242.501Z" fill="#FBEBDB"/>
<path d="M388.41 68.2197H396.881C394.025 69.2298 391.217 69.2791 388.41 68.2197Z" fill="#F4EBEF"/>
<path d="M272.229 218.899H268.708C267.772 217.446 269.323 217.224 269.89 216.534C269.89 211.607 269.865 206.655 269.89 201.727C269.89 200.668 269.348 199.264 271.047 198.845C271.367 202.885 270.284 207 272.106 210.966C272.623 212.075 272.549 213.996 271.884 214.933C270.751 216.583 271.638 217.618 272.204 218.899H272.229Z" fill="#EDC09F"/>
<path d="M269.865 216.534L268.683 218.899C267.477 219.219 265.777 218.061 265.137 220.082C264.546 220.55 263.955 220.599 263.364 220.082C262.921 218.899 261.64 219.022 260.409 218.406C262.231 217.174 266.024 218.751 265.137 214.785C267.132 214.464 265.285 212.148 266.959 211.557C267.821 212.567 268.806 213.553 268.708 215.154C268.659 215.943 269.053 216.435 269.865 216.558V216.534Z" fill="#ECC29A"/>
<path d="M337.116 124.54C348.148 124.515 359.156 124.491 370.188 124.466C371.394 123.85 372.576 123.677 373.709 124.663V130.403C373.069 131.537 373.438 132.941 372.675 134.05C371.247 139.815 368.784 145.161 366.1 150.433C365.558 151.493 364.573 151.764 363.391 151.764C356.915 151.714 350.463 151.69 343.987 151.714C342.731 151.714 342.14 151.32 341.721 150.039C339.382 142.919 336.993 135.824 337.018 128.186C336.402 126.979 336.353 125.772 337.116 124.589V124.54Z" fill="#040505"/>
<path d="M368.956 159.204C361.101 159.303 353.246 159.376 345.39 159.475V159.303C345.193 159.204 345.119 159.081 345.193 158.958C345.242 158.834 345.316 158.785 345.39 158.785C352.408 158.785 359.426 158.761 366.445 158.761C367.306 158.761 368.218 158.588 368.981 159.204H368.956Z" fill="#AA1A17"/>
<path d="M360.731 115.621C366.42 115.695 372.108 115.769 377.821 115.843C374.398 116.853 370.902 116.114 367.454 116.262C364.844 116.385 362.209 116.262 359.599 116.262V115.769L360.756 115.572L360.731 115.621Z" fill="#AF1D18"/>
<path d="M345.366 158.81C345.366 158.982 345.39 159.154 345.366 159.327C342.755 159.13 340.096 159.992 337.56 158.76C340.145 158.76 342.755 158.785 345.341 158.81H345.366Z" fill="#962129"/>
<path d="M373.709 124.663L370.188 124.466C371.443 122.889 372.625 122.643 373.709 124.663Z" fill="#B41A1A"/>
<path d="M337.116 124.54C337.091 125.747 337.042 126.954 337.018 128.137C335.54 126.905 335.343 125.697 337.116 124.54Z" fill="#951918"/>
<path d="M372.675 134.05C372.428 132.67 372.847 131.487 373.684 130.403C373.561 131.684 374.398 133.212 372.675 134.05Z" fill="#8B1919"/>
<path d="M328.35 126.905C328.497 126.905 328.67 126.954 328.818 127.003V130.428C327.956 129.344 328.424 128.087 328.35 126.905Z" fill="#B2B2B2"/>
<path d="M192.543 224.812L189.588 225.403C187.544 225.108 185.648 226.142 183.604 225.822C183.234 225.822 183.407 226.463 183.456 226.068C183.456 225.945 183.555 225.945 183.727 225.97C184.441 226.068 185.106 226.192 184.86 227.177H182.496C181.215 227.005 181.634 225.354 180.255 224.886C179.097 224.492 180.156 223.679 181.043 223.654C182.988 223.605 184.958 223.654 186.904 223.629C187.667 223.629 188.75 223.925 189.144 223.235C190.893 220.131 192.789 221.338 194.882 222.792C195.966 223.555 197.197 222.422 198.305 222.619C201.925 223.235 205.495 223.358 209.115 222.619C209.706 222.496 210.322 222.471 210.642 223.137C211.307 224.418 209.682 224.96 209.682 226.044L208.5 225.452C205.717 224.319 202.737 224.615 199.955 225.058C197.394 225.477 195.005 225.428 192.567 224.861L192.543 224.812Z" fill="#ECC19B"/>
<path d="M212.021 222.447C212.021 222.447 212.218 222.422 212.317 222.447C213.4 222.841 215.444 221.486 215.518 223.408C215.592 225.206 213.942 226.118 212.021 225.97V222.422V222.447Z" fill="#ECC29A"/>
<path d="M140.018 218.899C139.845 219.663 140.535 221.043 138.712 220.747C137.678 220.575 136.447 220.772 136.521 219.146C136.595 217.52 137.851 217.865 138.86 217.717C139.87 217.569 140.288 217.865 140.018 218.924V218.899Z" fill="#ECC29A"/>
<path d="M140.018 188.965L139.55 189.68C139.378 189.532 139.058 189.409 139.033 189.212C139.009 189.015 139.23 188.768 139.353 188.571L140.043 188.965H140.018Z" fill="#ECC29A"/>
<path d="M219.655 102.76C219.433 102.958 219.236 103.155 219.014 103.352C217.069 103.992 216.306 105.815 215.124 107.22C212.538 110.275 210.47 114.02 207.318 116.261C204.436 118.306 201.703 120.548 198.847 122.618C191.73 127.792 184.392 132.67 176.438 136.414C166.637 141.022 156.762 145.456 146.001 147.6C143.44 148.117 140.633 147.969 138.244 149.324C132.039 150.581 128.69 144.816 126.055 138.706C121.943 129.048 123.149 119.809 129.109 110.817C133.886 103.623 140.116 98.8432 147.577 94.8766C153.192 91.8956 158.929 89.5058 165.086 88.6189C168.509 88.1261 172.104 87.8551 175.65 87.7812C182.225 87.6334 188.652 89.5304 195.227 88.8899C196.655 88.742 198.132 89.0869 199.61 89.2101C206.8 91.5753 213.006 95.3694 217.882 101.233C218.374 101.824 219.039 102.268 219.63 102.785L219.655 102.76Z" fill="#020202"/>
<path d="M265.138 222.447C262.749 222.447 260.336 222.447 257.947 222.447C257.011 222.447 255.953 222.619 255.682 221.264C258.834 220.328 261.986 220.328 265.138 221.264C265.482 221.658 265.482 222.053 265.138 222.447Z" fill="#E9C398"/>
<path d="M265.138 221.264H255.682C256.076 219.589 257.455 220.155 258.489 220.106C260.114 220.032 261.739 220.106 263.34 220.106H265.113V221.289L265.138 221.264Z" fill="#EDC09E"/>
<path d="M212.021 242.477H210.839C210.888 241.737 211.307 241.368 212.021 241.294H213.154C212.784 241.688 212.39 242.082 212.021 242.477Z" fill="#ECCDAF"/>
<path d="M269.323 121.312C271.269 124.145 273.362 126.905 275.135 129.861C280.355 138.459 284.96 147.427 289.146 156.567C292.249 163.367 294.982 170.339 297.297 177.484C298.824 182.19 300.72 186.772 302.518 191.404C302.838 192.242 302.838 192.882 301.877 192.833C295.426 192.537 289.097 194.188 282.67 194.163C279.961 194.163 277.252 193.523 274.544 194.582C273.312 195.075 272.869 194.114 272.795 192.956C272.426 185.442 272.155 177.903 271.589 170.413C270.678 158.735 270.53 146.984 269.372 135.33C268.905 130.797 269.668 126.19 269.323 121.361V121.312Z" fill="#2C2624"/>
<path d="M451.056 153.389L451.721 151.813C452.435 151 453.199 151.074 453.987 151.714C455.415 153.71 456.892 155.705 458.296 157.726C459.133 158.933 459.33 159.918 457.311 159.894C455.046 159.869 452.805 159.894 450.539 159.869C450.17 159.549 449.923 159.179 449.85 158.686C449.85 157.504 450.268 156.592 451.352 156.05C452.164 155.755 452.78 156.247 453.74 156.715C453.1 155.681 452.066 156.001 451.5 155.434C450.958 154.843 451.081 154.104 451.056 153.389V153.389Z" fill="#B5B2A8"/>
<path d="M451.622 156.395C450.883 157.011 450.588 157.873 450.44 158.785C449.184 159.302 447.854 159.992 448.125 157.578C448.889 156.026 450.514 155.065 451.056 153.365C451.745 153.808 451.597 154.547 451.696 155.213C451.991 155.631 451.991 156.026 451.622 156.395Z" fill="#D78E6F"/>
<path d="M448.126 157.603C448.348 159.081 449.53 158.662 450.441 158.81C450.466 159.179 450.515 159.524 450.54 159.894C449.875 159.894 449.185 159.968 448.52 159.968C447.831 159.968 447.117 159.968 447.018 159.007C446.92 158.194 447.338 157.75 448.126 157.627V157.603Z" fill="#DB8D4E"/>
<path d="M454.012 151.714C453.248 151.739 452.509 151.788 451.746 151.813C451.746 151.172 451.918 150.655 452.657 150.581C453.494 150.483 453.938 150.901 453.987 151.714H454.012Z" fill="#D8A146"/>
<path d="M327.734 126.88C327.562 127.274 327.143 128.112 326.946 127.594C326.38 126.19 325.739 124.515 327.635 123.431L327.759 123.357C328.128 124.54 328.153 125.697 327.759 126.88H327.734Z" fill="#AEB6AE"/>
<path d="M327.734 126.88C327.734 125.697 327.734 124.54 327.734 123.357C327.907 123.357 328.054 123.357 328.227 123.357C328.276 124.515 328.325 125.673 328.375 126.806C328.153 126.806 327.956 126.831 327.734 126.855V126.88Z" fill="#E0A0A8"/>
<path d="M265.138 222.447V221.264C266.993 220.295 268.503 220.689 269.669 222.447H265.138Z" fill="#EDC09E"/>
<path d="M363.096 262.58C362.333 262.112 361.569 261.669 360.781 261.201C361.052 260.289 362.604 259.698 361.003 258.367C360.19 257.678 361.963 256.643 361.963 255.534C363.712 257.653 362.702 260.215 363.071 262.58H363.096Z" fill="#F2C35E"/>
<path d="M366.937 260.067C366.592 258.441 366.469 257.185 367.159 255.312C367.774 257.21 369.867 258.466 366.937 260.067Z" fill="#F0C660"/>
<path d="M217.266 158.366C217.66 161.249 218.03 164.107 218.448 166.989C218.621 168.172 218.571 169.305 217.857 170.315C216.7 171.227 216.207 170.512 215.937 169.502C215.715 168.664 216.06 167.753 215.666 166.94V166.989C214.804 164.378 215.395 161.692 215.346 159.056C215.346 157.75 216.232 157.479 217.266 158.391V158.366Z" fill="#EBE7E3"/>
<path d="M215.247 151.764C216.331 151.616 217.414 151.468 217.513 153.069C217.611 154.72 216.823 155.361 215.247 155.139C214.213 154.006 214.311 152.897 215.247 151.764V151.764Z" fill="#DFDBD9"/>
<path d="M217.266 158.366C215.542 157.726 215.296 158.687 215.321 160.091C215.37 162.382 216.035 164.673 215.665 166.989C214.237 164.353 215.025 161.495 215.074 158.76C215.099 157.356 216.281 157.208 217.266 158.366Z" fill="#131211"/>
<path d="M215.666 166.915C216.626 167.901 215.001 170.537 217.858 170.315C216.749 171.645 215.912 171.473 215.617 169.773C215.469 168.861 215.617 167.876 215.666 166.94V166.915Z" fill="#131211"/>
<path d="M215.247 151.764C214.754 152.897 214.557 154.006 215.247 155.139C212.932 154.006 214.188 152.897 215.247 151.764Z" fill="#131211"/>
<path d="M131.202 173.469C130.193 171.448 127.73 171.128 126.499 169.379C126.745 166.94 128.174 164.994 129.109 162.825C129.651 161.594 130.735 160.978 131.769 160.855C133.025 160.731 133.074 162.185 133.246 163.047C133.788 165.634 133.69 168.295 133.296 170.906C133.123 172.114 132.508 173.099 131.202 173.469V173.469Z" fill="#BA8D63"/>
<path d="M192.543 224.812C192.814 224.443 193.306 223.777 193.331 223.777C196.631 226.167 200.152 223.63 203.501 224.221C205.176 224.516 207.195 223.432 208.475 225.403C203.994 225.034 199.586 225.945 195.129 225.97C194.144 225.97 192.888 226.34 192.543 224.812V224.812Z" fill="#EBC19B"/>
<path d="M184.884 227.152L182.865 225.576C185.229 224.516 187.396 224.393 189.612 225.403C187.963 225.773 186.707 227.202 184.884 227.177V227.152Z" fill="#EBC19B"/>
<path d="M210.84 242.477C210.446 242.871 210.052 243.265 209.658 243.635C209.264 243.635 208.87 243.635 208.476 243.635C208.746 242.181 209.904 242.55 210.84 242.477V242.477Z" fill="#ECCDAF"/>
<path d="M451.622 156.395C451.647 156.001 451.672 155.607 451.696 155.213C452.361 155.213 453.026 155.213 453.691 155.213C454.43 155.213 455.021 155.459 455.07 156.322C455.144 157.233 454.479 157.775 453.863 158.12C452.804 158.736 452.927 157.627 452.706 157.11C452.484 156.593 452.09 156.445 451.598 156.346L451.622 156.395Z" fill="#B5B1B9"/>
<path d="M131.571 162.85C131.473 163.392 131.276 163.712 130.832 163.639C130.66 163.614 130.364 163.22 130.414 163.072C130.463 162.85 130.758 162.604 130.98 162.53C131.152 162.481 131.399 162.752 131.571 162.85V162.85Z" fill="#BC9169"/>
</g>
<defs>
<clipPath id="clip0_5114_47314">
<rect width="591" height="285" fill="white"/>
</clipPath>
</defs>
</svg>
