<svg width="595" height="297" viewBox="0 0 595 297" fill="none" xmlns="http://www.w3.org/2000/svg">
<g clip-path="url(#clip0_5484_43226)">
<rect width="595" height="297" fill="#5F5CE9"/>
<path d="M495.507 168.655C496.202 179.192 496.897 189.702 497.618 200.238C497.876 203.922 498.185 207.58 498.571 211.264C498.777 213.247 498.108 214.097 496.048 214.097C482.065 214.097 468.109 214.097 454.127 214.123C453.071 213.556 452.015 213.582 450.959 214.123C449.749 214.149 448.513 214.355 447.303 214.2C444.882 213.866 443.672 214.767 443.698 217.24C442.101 215.901 440.247 215.643 438.239 215.643C430.746 215.695 423.227 215.669 415.733 215.643C414.188 215.643 412.643 215.72 411.279 214.741C395.957 214.767 380.636 214.793 365.315 214.844C364.517 214.844 363.693 215.05 362.894 215.231C361.478 215.514 360.706 214.793 360.448 213.531C360.268 212.629 360.319 211.702 360.319 210.774C360.319 167.007 360.319 123.239 360.319 79.4976C360.319 75.2986 360.731 74.9379 364.645 74.5258C370.388 73.9075 376.156 74.2166 381.898 74.0878C383.211 74.0621 384.576 74.3197 385.786 73.5211C390.292 72.8513 394.824 73.3923 399.331 73.1862C400.67 73.7014 400.927 74.9895 401.313 76.1229C402.884 80.6311 405.794 83.9542 410.043 86.0408C412.283 87.1228 413.545 88.7199 414.06 91.1157C416.712 103.249 434.119 118.01 451.011 112.214C453.843 111.235 455.414 111.802 457.036 114.403C459.483 118.371 463.603 120.637 467.697 122.518C475.036 125.893 482.709 128.211 490.975 127.464C491.567 127.413 492.211 127.309 492.649 127.928C491.876 131.225 493.189 134.419 493.009 137.691C492.932 139.031 494.194 138.953 494.966 139.185C497.824 140.061 500.528 141.22 502.974 142.92C507.944 146.398 509.386 150.159 508.099 156.084C508.021 156.445 508.15 156.857 508.202 157.243C507.3 158.866 506.219 160.335 504.906 161.649C503.412 162.447 502.356 164.276 500.245 163.606C499.987 163.271 499.781 162.834 499.962 162.473C501.172 159.897 499.781 158.48 497.721 157.346C497.799 155.775 499.266 155.028 499.859 153.74C500.76 151.834 500.657 150.185 499.06 148.768C498.133 147.918 496.897 147.248 495.713 147.763C494.4 148.33 494.837 149.747 495.095 150.777C495.687 153.199 495.018 155.93 496.82 158.094C495.172 161.468 494.915 165.023 495.455 168.707L495.507 168.655Z" fill="#CC8C4D"/>
<path d="M230.127 104.846C247.019 125.197 251.371 156.342 235.612 182.592C225.286 199.8 209.965 210.233 190.472 214.638C189.468 214.87 188.463 215.102 187.485 215.36C179.065 215.849 170.696 215.437 162.379 214.02C158.722 213.402 158.49 213.659 159.134 217.42C161.117 229.013 168.147 236.355 178.575 240.991C179.657 241.481 181.691 241.301 181.099 243.568C177.108 245.783 172.73 245.216 168.456 245.139C165.366 245.087 162.327 244.418 159.34 243.671C156.327 242.898 154.679 241.069 154.525 238.029C154.267 233.006 153.933 227.905 154.628 222.959C155.117 219.559 156.096 216.261 155.375 212.783C154.113 211.676 152.439 211.47 150.971 210.851C134.826 203.896 122.672 192.716 115.102 176.77C114.381 175.224 113.737 173.756 111.677 173.936C110.827 173.473 110.93 172.623 110.776 171.85C110.621 171.128 110.904 169.995 109.797 169.969C108.793 169.943 108.767 171.025 108.561 171.747C108.407 172.313 108.329 172.932 107.763 173.292C96.6904 170.278 92.0811 158.119 98.9821 150.056C100.888 147.841 103.231 146.115 106.141 145.497C108.149 145.084 108.587 144.08 108.741 142.148C109.385 134.342 111.033 126.768 114.638 119.71C116.672 118.705 118.861 119.298 120.818 119.633C123.084 120.019 125.402 120.431 127.642 120.998C128.826 121.41 130.062 121.333 131.273 121.333C132.328 121.333 133.41 121.333 134.466 121.513C139.564 121.616 144.611 122.492 149.71 122.312C152.053 122.235 154.293 121.23 156.688 121.771C157.512 121.951 157.924 121.204 158.233 120.534C158.413 120.122 158.671 119.762 159.031 119.478C159.984 119.092 160.782 119.427 161.503 119.993C163.125 120.74 164.799 120.534 166.499 120.251C167.065 120.174 167.632 120.225 168.198 120.406C168.584 120.534 169.048 121.075 169.202 120.972C172.318 119.143 175.614 121.101 178.781 120.406C179.605 120.148 180.429 119.865 181.279 119.684C185.657 118.628 190.24 118.628 194.566 117.34C195.107 117.134 195.648 116.902 196.214 116.722C199.896 115.382 204.042 115.434 207.312 112.909C207.544 112.755 207.802 112.652 208.085 112.574C210.068 112.162 212.102 111.905 214.033 111.183C215.604 110.642 217.175 110.076 218.565 109.122C221.243 107.628 224.076 106.417 226.857 105.155C227.887 104.692 228.942 104.202 230.075 104.82L230.127 104.846Z" fill="#705741"/>
<path d="M155.35 212.784C156.277 214.407 155.762 216.184 155.736 217.858C155.659 224.221 155.453 230.61 155.35 236.973C155.298 240.811 156.38 242.254 159.985 242.975C167.066 244.392 174.147 245.242 181.228 243.027C181.563 242.769 181.048 242.949 181.434 242.795C186.275 241.017 187.022 237.282 186.559 232.748C186.301 230.121 186.481 227.441 186.533 224.788C186.559 223.603 186.404 222.289 187.511 221.413C192.97 222.032 198.017 224.118 203.013 226.205C215.424 231.331 226.188 238.982 235.303 248.746C247.741 262.064 256.341 277.675 261.517 295.141C262.006 296.789 261.723 297.459 259.946 297.279C259.431 297.227 258.916 297.279 258.401 297.279C200.386 297.279 142.372 297.279 84.3568 297.279C80.3398 297.279 80.2626 297.253 81.2668 293.44C85.9018 276.026 93.8071 260.389 106.322 247.174C119.248 233.521 134.595 224.376 153.109 220.769C154.706 220.46 155.35 219.61 155.272 217.987C155.195 216.236 155.298 214.484 155.324 212.758L155.35 212.784Z" fill="#EAECE9"/>
<path d="M445.397 235.041C454.229 235.968 463.113 236.277 471.919 237.359C481.344 238.519 490.665 240.373 500.038 241.61C508.562 242.718 513.274 247.973 516.93 254.671C523.548 266.778 526.381 279.839 526.381 293.621C526.381 296.583 525.582 297.382 522.621 297.382C470.065 297.305 417.535 297.305 364.98 297.305C358.8 297.305 352.645 297.253 346.465 297.33C344.457 297.356 343.427 296.944 343.556 294.651C344.354 281.797 345.255 268.968 348.937 256.551C350.225 252.198 353.289 248.771 357.821 247.458C370.773 243.722 383.906 240.682 397.27 238.725C402.214 238.003 407.184 237.462 412.154 236.844C413.364 236.844 413.415 237.849 413.415 238.57C413.415 241.404 414.96 242.872 417.432 243.722C426.187 246.607 434.659 244.959 443.054 242.151C445.114 241.455 446.092 240.142 445.191 237.9C444.805 236.947 444.573 235.917 445.397 235.015V235.041Z" fill="#F8F2F0"/>
<path d="M492.7 127.876C479.49 129.345 468.083 125.12 457.937 116.902C457.86 116.851 457.757 116.773 457.731 116.67C455.748 111.544 452.118 112.574 448.049 113.708C443.646 114.919 439.088 114.713 434.736 112.935C423.947 108.504 415.707 101.652 412.926 89.6989C412.669 88.6427 412.385 87.8184 411.227 87.3804C404.789 84.9589 401.313 80.0386 399.716 73.5727C397.965 68.266 400.412 64.17 403.888 60.6408C405.613 58.8891 407.184 57.1889 408.394 54.9734C413.287 45.9314 422.891 41.4491 433.063 43.3554C435.123 43.7418 436.281 43.2008 437.492 41.6294C439.346 39.2336 440.968 36.503 444.264 35.6787C445.732 34.9316 447.148 34.1588 448.641 33.4632C458.504 28.9036 467.774 29.8052 476.348 36.5288C477.584 37.4819 478.537 37.8683 480.185 37.1728C487.73 33.9527 494.142 35.4211 500.013 41.5263C502.897 44.5403 505.06 47.9923 506.012 52.0882C506.296 53.3248 506.811 53.8915 508.072 54.3552C518.553 58.0905 523.085 71.2542 516.93 80.3993C515.694 82.2283 516.776 82.9496 517.523 84.0058C524.321 93.9494 524.655 103.97 518.321 112.935C514.046 118.963 508.433 123.317 501.377 125.661C498.571 126.588 495.609 127.103 492.725 127.799L492.7 127.876Z" fill="#010101"/>
<path d="M444.238 35.756C441.457 38.0229 438.96 40.599 437.003 43.5872C436.23 44.7722 435.586 44.8753 434.247 44.5404C422.634 41.6552 412.643 47.0392 408.008 57.6011C407.725 58.2451 407.648 58.9406 406.901 59.3528C401.262 62.4441 399.742 67.6478 399.665 73.5985C395.03 74.0364 390.421 74.3971 385.812 73.4697C380.971 61.9804 388.567 49.641 401.802 47.5029C404.661 47.0392 407.519 46.6785 410.377 47.3741C412.051 47.7862 412.926 47.168 413.802 45.7254C419.184 37.044 426.831 33.0769 437.183 34.4164C439.578 34.7256 442.127 33.9012 444.213 35.7302L444.238 35.756Z" fill="#371E1E"/>
<path d="M417.046 244.34C414.137 243.671 412.437 242.073 412.592 238.879C412.617 238.209 412.308 237.539 412.154 236.87C411.871 229.502 411.562 222.109 411.278 214.741C421.166 214.715 431.08 214.741 440.968 214.612C443.028 214.587 443.723 215.385 443.698 217.214C443.826 219.224 443.981 221.259 444.11 223.294C439.372 228.24 435.329 233.881 429.69 237.952C426.754 240.064 423.638 241.816 420.523 243.619C419.493 244.211 418.36 244.83 417.046 244.366V244.34Z" fill="#9C6D3E"/>
<path d="M187.537 221.465C187.511 226.36 187.434 231.254 187.434 236.149C187.434 241.043 186.378 242.228 181.254 243.053C177.391 241.455 173.657 239.575 170.207 237.179C162.533 231.821 159.186 223.99 157.821 215.128C157.564 213.428 158.104 212.268 160.216 212.758C168.559 214.613 177.031 214.819 185.528 214.716C186.249 214.716 186.996 214.664 187.459 215.36C187.459 217.395 187.511 219.43 187.537 221.465V221.465Z" fill="#372218"/>
<path d="M140.44 90.0593C149.195 83.9797 159.083 80.7854 169.538 79.5489C179.658 78.3639 189.649 79.4974 199.253 83.2842C197.708 84.1601 196.344 85.4996 194.361 85.4481C192.816 82.3826 189.7 84.057 188.026 84.3404C185.451 84.7783 182.567 84.0055 180.147 85.7315C176.593 88.2303 172.499 88.256 168.379 87.9211C167.761 87.8696 167.066 87.9211 166.577 88.2303C162.894 90.626 158.877 89.8532 154.912 89.5698C154.088 89.5183 153.238 89.4668 152.517 89.9305C148.964 92.2489 145.153 90.6003 141.47 90.7291C141.084 90.7291 140.724 90.4199 140.466 90.085L140.44 90.0593Z" fill="#EAD4A6"/>
<path d="M417.047 244.34C426.677 240.296 434.505 233.933 440.788 225.664C441.715 224.453 442.642 223.551 444.11 223.268C445.166 227.106 444.496 231.151 445.398 235.015C445.32 235.839 445.398 236.612 445.835 237.385C447.432 240.27 447.046 241.893 444.11 242.846C435.638 245.603 427.038 247.509 418.128 244.856C417.742 244.753 417.407 244.521 417.047 244.34Z" fill="#CC8C4D"/>
<path d="M140.44 90.0595C143.35 90.652 146.362 89.467 149.246 90.6005C149.478 90.7035 149.993 90.6262 150.122 90.4459C152.311 87.3546 155.89 89.8277 158.465 88.3593C158.619 88.282 158.98 88.2563 159.057 88.3593C160.808 90.6262 162.559 89.1579 164.104 88.179C167.143 86.2469 170.516 87.2258 173.632 87.2001C176.799 87.1743 178.679 84.8558 181.408 84.2891C182.515 84.0573 183.365 82.7435 184.601 84.1088C185.09 84.6498 185.708 84.521 186.275 84.1088C187.279 83.3875 188.258 81.2751 189.339 84.0315C189.339 84.083 190.009 84.0315 190.112 83.8769C192.687 80.322 193.279 83.3617 194.257 85.1135C194.257 85.2423 194.257 85.3711 194.283 85.5256C194.283 86.2212 194.103 86.8652 193.691 87.4577C192.996 88.3593 191.888 88.7972 191.09 89.5958C190.266 90.4459 189.416 90.2656 188.721 89.467C186.558 86.9682 186.198 86.994 184.627 89.8792C184.421 90.2398 184.215 90.6005 183.957 90.9096C183.365 91.4506 182.464 91.7597 182.129 90.9611C181.176 88.72 179.477 89.4155 177.983 89.8019C175.537 90.3944 172.833 90.111 170.619 91.6824C170.13 92.0173 169.409 91.94 168.816 91.8112C164.928 90.8581 161.503 92.0946 158.233 94.0009C157.744 94.2843 157.177 94.6964 156.946 94.1812C155.916 91.9916 154.448 93.2281 153.135 93.6402C152.336 93.8979 151.538 94.1039 150.714 93.9751C146.311 93.2796 141.908 93.3054 137.504 93.666C136.989 93.7175 136.474 93.563 136.14 93.0993C137.324 91.6824 138.792 90.6778 140.517 90.0337L140.44 90.0595Z" fill="#E7D1A3"/>
<path d="M495.507 168.655C493.498 164.817 494.013 161.262 496.665 157.939C496.897 157.372 497.232 157.012 497.901 157.269C501.558 157.965 501.764 158.48 500.348 163.503C500.708 163.993 500.914 164.56 501.275 165.049C501.944 165.951 502.845 166.363 503.927 165.873C505.034 165.384 505.189 164.405 505.034 163.323C504.905 162.55 504.339 161.829 504.674 160.979C506.141 159.948 506.296 157.707 508.279 157.192C512.373 160.747 512.836 166.157 509.36 169.866C505.832 173.602 500.296 173.55 496.562 169.712C496.202 169.351 495.867 168.99 495.532 168.63L495.507 168.655Z" fill="#F59C00"/>
<path d="M136.063 93.1248C140.826 92.7127 145.564 92.4035 150.328 93.1248C152.491 93.4597 154.551 92.6096 156.354 91.3216C156.843 92.0944 156.199 93.2279 157.203 93.9234C157.77 91.3989 160.757 92.7642 161.813 90.9609C163.177 92.2747 164.079 91.5019 165.031 90.3427C165.418 89.879 166.293 89.9563 166.757 90.3169C169.048 92.0686 170.877 90.4715 172.988 89.8017C175.589 88.9774 178.396 88.694 181.125 88.3591C181.846 88.2561 182.387 88.9258 182.258 89.8532C182.001 91.3731 182.85 91.0382 183.7 90.7033C183.777 90.8321 183.855 90.9352 183.932 91.064C183.546 92.9187 182.155 93.4082 180.533 93.6143C180.275 93.537 180.018 93.4082 179.838 93.2279C178.318 91.3473 178.55 94.4901 177.546 94.0522C177.263 94.1037 176.979 94.1037 176.696 94.0522C176.336 93.8719 176.773 94.1295 176.413 93.9492C174.147 92.747 172.688 93.3653 172.035 95.8039C171.778 95.9585 171.52 96.0358 171.211 96.0616C169.203 94.825 167.22 93.7689 165.109 95.8812C164.491 97.1177 163.512 97.5814 162.173 97.195C161.298 96.9374 160.422 96.9374 159.547 97.195C157.976 97.4011 156.405 97.6845 154.86 96.9632C153.495 96.3192 152.362 96.9632 151.229 97.6587C150.946 97.7618 150.689 97.7875 150.405 97.736C149.993 97.5557 149.684 97.2981 149.478 96.8859C149.221 95.4948 148.371 95.366 147.238 95.8039C146.105 96.2161 144.818 96.2419 144.019 97.3496C142.32 98.5603 140.286 97.736 138.457 98.2512C137.814 98.4315 137.608 97.5557 137.582 96.9374C137.324 96.6541 138.071 95.5206 137.273 96.0358C135.573 97.1435 134.337 96.654 132.973 95.6751C133.822 94.619 134.672 93.5885 136.063 93.2021V93.1248Z" fill="#E2CB9F"/>
<path d="M183.726 90.7036C184.988 86.3243 185.091 86.2212 188.515 87.1744C189.339 87.4062 190.472 87.6381 188.979 88.6942C188.696 88.9003 188.953 89.3125 189.236 89.3898C189.571 89.4928 190.266 89.5701 190.292 89.4928C190.833 87.8957 192.635 88.0245 193.588 86.994C195.648 88.1017 196.292 86.3243 197.219 85.165C197.631 84.521 198.172 84.0573 198.996 84.1604C201.107 84.7271 203.013 86.1955 205.382 85.7318C209.965 87.4577 214.111 89.8792 217.793 93.0993C217.072 94.001 216.145 93.8464 215.295 93.4342C213.905 92.7644 212.308 92.6099 210.995 91.7855C208.703 90.3172 207.004 90.8066 205.716 93.0993C205.51 93.2796 205.253 93.4085 204.995 93.4857C203.914 93.4857 202.884 93.6918 201.957 94.3616C201.571 94.5677 201.184 94.6965 200.747 94.5419C200.026 94.748 200.386 92.7387 199.047 93.8206C197.167 95.3405 197.039 93.7691 196.961 92.378C197.039 91.9659 196.369 92.4295 196.755 92.3265C197.013 93.6661 196.498 94.6192 195.391 95.3147C194.953 95.4436 194.541 95.392 194.155 95.1344C193.768 94.4131 194.103 93.7433 194.232 93.0478C194.438 92.0174 193.768 91.1415 193.047 91.2445C190.833 91.5794 188.49 90.4717 186.43 91.6825C184.936 92.5584 184.215 92.1462 183.7 90.7036H183.726Z" fill="#E2CB9F"/>
<path d="M107.738 173.293C108.124 171.567 106.939 168.63 109.746 168.63C112.656 168.63 111.085 171.67 111.652 173.318C111.703 173.499 111.652 173.73 111.652 173.937C111.703 179.759 111.188 185.606 111.935 191.428C112.115 192.845 111.935 194.648 110.158 194.829C107.969 195.035 108.381 193.077 108.33 191.711C108.098 185.58 107.918 179.449 107.712 173.318L107.738 173.293Z" fill="#FFDC95"/>
<path d="M127.539 121.59L114.612 119.71C115.076 117.907 115.951 116.284 117.084 114.79C118.449 115.253 119.737 116.052 121.23 116.103C121.925 116.541 126.535 116.232 127.693 115.691C130.5 114.326 131.273 114.532 133.333 117.082C133.333 118.808 132.303 119.684 130.732 119.967C129.47 120.199 128.517 120.895 127.513 121.59H127.539Z" fill="#8E765B"/>
<path d="M230.127 104.846C226.187 106.057 222.557 107.989 218.9 109.844C217.87 109.972 216.84 109.998 215.887 109.483C215.681 109.251 215.578 108.993 215.553 108.684C216.84 105.232 218.874 102.914 222.994 103.532C223.355 103.584 223.741 103.223 224.102 103.043C225.389 102.811 226.651 102.373 227.99 102.502C228.659 103.326 229.741 103.764 230.101 104.846H230.127Z" fill="#8D7559"/>
<path d="M205.33 93.1764C207.004 89.4669 207.21 89.5184 210.815 90.9095C213.081 91.7853 215.192 93.2795 217.819 93.1249C219.699 94.0008 221.192 95.3918 222.583 96.9117C222.196 97.9164 221.398 98.0194 220.6 97.6072C219.724 97.1436 219.029 97.5557 218.282 97.8391C217.999 97.8906 217.716 97.8649 217.433 97.8133C216.609 97.1178 216.454 94.9539 214.574 96.5511C214.394 96.7056 213.905 96.5768 213.725 96.3707C211.407 94.0523 208.188 94.1038 205.33 93.2022V93.1764Z" fill="#DBC49A"/>
<path d="M118.862 111.647C119.119 111.08 119.48 110.616 120.098 110.41C122.389 108.581 124.681 109.766 126.999 110.333C127.951 110.591 128.672 111.106 128.621 112.213C128.029 113.167 127.153 114.017 127.205 115.279C126.355 116.67 125.376 116.516 124.295 115.562C123.754 114.841 124.14 114.017 124.063 113.167C122.209 113.038 119.583 115.331 118.836 111.621L118.862 111.647Z" fill="#AD9674"/>
<path d="M126.921 111.054C124.681 110.539 122.44 109.844 120.071 110.41C120.252 109.972 120.406 109.56 120.586 109.122C121.462 108.813 121.745 108.066 121.951 107.268C122.106 107.061 122.26 106.855 122.415 106.649C124.706 104.46 126.844 106.572 129.058 106.881C129.47 107.551 129.496 108.246 129.187 108.968C128.595 109.844 127.127 109.766 126.921 111.054V111.054Z" fill="#C1AA84"/>
<path d="M132.973 95.5978C134.286 95.1599 136.295 97.298 137.041 94.5158C137.067 94.387 138.2 94.284 138.483 94.5158C139.41 95.3917 138.226 96.0872 138.071 96.8858C135.908 98.1996 133.977 99.9256 131.402 100.492C128.75 100.08 129.883 98.7663 130.681 97.5041C131.248 96.6024 131.943 95.8812 132.999 95.5978H132.973Z" fill="#DCC69C"/>
<path d="M128.775 106.753C128.235 106.933 128.003 108.144 127.127 107.268C125.711 105.825 124.037 106.444 122.415 106.65C122.956 105.387 123.883 104.408 124.913 103.558C126.715 103.043 128.054 104.305 129.599 104.795C130.655 105.748 131.402 106.753 130.114 108.092C128.956 108.376 129.29 107.139 128.775 106.778V106.753Z" fill="#CAB48D"/>
<path d="M118.861 111.647C119.762 113.321 121.23 113.399 122.672 112.703C123.496 112.317 124.166 111.467 125.015 112.343C125.814 113.167 124.32 113.656 124.5 114.455C124.552 114.738 124.5 115.073 124.5 115.357C123.831 116.593 122.955 116.181 122.054 115.691C121.668 115.279 121.307 114.764 120.586 115.047C119.814 115.047 119.016 115.176 118.269 114.79C117.805 114.12 118.011 113.45 118.269 112.78C118.269 112.291 118.32 111.827 118.887 111.673L118.861 111.647Z" fill="#A48C6C"/>
<path d="M129.419 104.897C127.642 105.413 126.458 103.919 124.938 103.558C125.35 102.527 125.994 101.729 126.973 101.214C128.312 100.802 129.29 101.523 130.243 102.296C130.603 102.837 130.655 103.429 130.475 104.047C130.269 104.511 129.934 104.794 129.445 104.897H129.419Z" fill="#D4BF96"/>
<path d="M130.037 102.45C129.007 102.038 127.977 101.6 126.947 101.188C127.926 99.6939 129.188 98.4832 130.655 97.4785C130.578 98.5347 129.368 100.158 131.891 99.9515C132.303 101.137 131.685 101.884 130.861 102.553C130.578 102.682 130.321 102.631 130.063 102.425L130.037 102.45Z" fill="#E3CDA2"/>
<path d="M199.15 84.5469C198.352 84.5469 197.94 84.9848 197.914 85.7834C196.601 86.041 195.107 87.3805 194.206 85.1651C196.034 84.9333 197.064 82.6148 199.227 83.2846C199.923 83.7998 200.721 83.9801 201.571 84.0059C201.081 85.5773 200.051 84.8302 199.124 84.5726L199.15 84.5469Z" fill="#E7D1A3"/>
<path d="M199.15 84.5467C199.974 84.4694 200.927 84.8301 201.597 83.98C202.884 84.4952 204.352 84.6755 205.382 85.7317C202.755 88.179 201.159 85.268 199.15 84.5467Z" fill="#E6D0A4"/>
<path d="M218.283 97.4783C218.875 96.5252 219.596 95.7008 220.677 96.8343C221.398 97.5814 221.939 97.1434 222.583 96.8858C222.789 97.0919 222.995 97.298 223.201 97.5041C223.252 98.0708 223.252 98.6633 222.943 99.1785C222.763 99.4104 222.531 99.5907 222.248 99.6938C220.549 99.6165 219.107 99.0755 218.257 97.4783H218.283Z" fill="#D0B991"/>
<path d="M228.016 102.502C226.96 103.455 225.801 103.687 224.488 103.094C224.385 102.991 224.308 102.863 224.205 102.76C224.05 102.322 224.102 101.884 224.282 101.472C224.771 100.699 225.261 99.9001 226.368 100.596C227.063 101.137 227.784 101.6 228.042 102.528L228.016 102.502Z" fill="#9F8768"/>
<path d="M226.342 100.57C225.389 100.493 225.106 101.42 224.488 101.832C223.922 102.373 223.278 102.734 222.505 102.811C221.656 102.811 221.089 102.528 221.063 101.6C221.321 100.673 222.248 100.209 222.634 99.3591C223.896 98.4575 224.746 99.5909 225.776 99.9516C225.982 100.158 226.162 100.364 226.368 100.57H226.342Z" fill="#BBA480"/>
<path d="M118.243 112.781C118.372 113.476 118.166 114.301 118.939 114.79C119.788 115.048 120.612 115.408 121.359 115.898C121.514 116.13 121.514 116.361 121.359 116.593C119.685 116.593 117.806 117.083 117.11 114.79C117.497 114.12 117.857 113.45 118.243 112.755V112.781Z" fill="#AD9674"/>
<path d="M225.75 99.9517C224.694 99.7456 223.664 99.5653 222.609 99.3592C222.609 98.6894 222.48 97.9681 223.201 97.5044C224.257 98.0969 225.081 98.9212 225.75 99.9259V99.9517Z" fill="#C9B28B"/>
<path d="M121.952 107.293C122.904 108.942 122.183 109.354 120.587 109.148C120.819 108.375 121.256 107.731 121.952 107.293Z" fill="#CAB490"/>
<path d="M450.959 214.098C452.015 213.093 453.071 213.144 454.126 214.098C453.071 214.098 452.015 214.098 450.959 214.098Z" fill="#B47D45"/>
<path d="M418.05 158.068C416.557 159.974 414.214 159.484 412.36 159.613C402.034 160.335 392.841 157.939 385.992 149.412C383.108 145.805 382.953 140.164 385.94 135.424C390.343 128.469 403.193 122.647 411.201 123.986C411.484 124.038 411.742 124.27 411.999 124.424C413.081 125.017 413.544 126.073 413.93 127.129C417.149 135.965 419.621 144.93 419.183 154.461C419.132 155.723 419.492 157.192 418.05 158.068V158.068Z" fill="#010101"/>
<path d="M418.051 158.068C419.441 146.682 416.377 136.043 412.412 125.584C412.257 125.197 412.154 124.811 412.025 124.424C415.064 123.162 418.077 124.064 421.012 124.682C429.098 126.357 436.076 129.757 440.325 137.434C441.458 139.469 441.355 141.401 440.711 143.281C438.084 151.01 426.832 158.635 418.566 158.403C418.411 158.403 418.231 158.171 418.077 158.068H418.051Z" fill="#EFECEF"/>
<path d="M455.543 194.957C443.26 195.395 434.84 185.168 432.883 175.327C432.522 173.55 432.883 171.798 435.2 171.386C437.466 170.974 438.78 172.082 439.192 174.168C440.093 178.651 442.024 182.592 445.629 185.374C453.354 191.402 463.706 189.187 468.984 180.634C470.838 177.62 471.894 174.323 472.564 170.897C472.976 168.81 473.903 167.445 476.297 167.805C478.821 168.192 479.053 170.098 478.744 172.004C477.018 182.386 471.07 191.634 459.74 194.596C458.195 195.009 456.676 194.854 455.517 194.931L455.543 194.957Z" fill="#D05953"/>
<path d="M406.875 107.216C409.682 107.062 412.437 107.448 415.115 108.195C417.021 108.71 418.308 109.792 417.716 111.982C417.201 113.94 415.579 113.991 413.982 113.656C402.472 111.209 392.507 114.661 383.417 121.513C381.872 122.673 380.121 123.78 378.576 121.771C377.134 119.865 378.293 118.293 379.889 117.057C387.846 110.952 396.704 107.319 406.85 107.242L406.875 107.216Z" fill="#030201"/>
<path d="M497.927 157.295C497.515 157.527 497.103 157.733 496.691 157.965C496.485 157.939 496.227 157.965 496.099 157.836C494.991 156.96 493.678 148.305 494.451 147.145C494.888 146.476 495.455 146.733 496.073 146.733C498.339 146.785 499.91 147.764 500.991 149.747C502.073 151.705 501.12 153.199 500.219 154.848C499.652 155.878 498.777 156.522 497.953 157.269L497.927 157.295Z" fill="#B47A43"/>
<path d="M202.704 141.942C212.669 141.066 220.703 144.853 226.445 152.787C233.192 162.112 230.334 171.129 219.75 175.662C213.545 178.316 207.081 179.733 200.309 179.527C199.408 178.754 199.022 177.723 198.738 176.616C195.906 165.41 197.193 154.539 201.21 143.848C201.519 143.049 202.009 142.431 202.678 141.942H202.704Z" fill="#0A0B0C"/>
<path d="M202.704 141.941C199.33 150.958 197.348 160.18 198.378 169.918C198.738 173.189 199.768 176.306 200.335 179.526C193.331 179.294 187.331 177.105 183.185 171.051C180.713 167.445 180.533 163.58 181.692 159.613C184.756 149.103 192.326 143.822 202.704 141.941V141.941Z" fill="#F4F2EF"/>
<path d="M160.679 191.866C146.285 191.815 137.272 177.878 142.757 165.925C143.143 165.101 143.658 164.302 144.225 163.581C145.306 162.19 146.851 161.726 148.319 162.602C149.632 163.4 150.019 164.766 149.349 166.363C147.959 169.66 146.645 172.906 147.856 176.719C149.426 181.794 152.825 184.705 157.847 185.503C162.533 186.25 166.473 184.55 169.408 180.686C170.825 178.831 171.958 175.766 175.048 178.033C177.906 180.093 175.691 182.309 174.455 184.138C170.902 189.367 165.649 191.48 160.705 191.84L160.679 191.866Z" fill="#372218"/>
<path d="M207.081 125.377C213.03 125.764 218.592 126.897 222.866 131.328C223.433 131.895 224.102 132.565 223.33 133.441C222.609 134.239 221.888 133.956 221.167 133.363C211.768 125.609 202.034 127.541 192.198 132.333C190.91 132.951 189.7 133.75 188.49 134.523C187.666 135.063 186.842 135.579 186.069 134.6C185.245 133.518 186.172 132.848 186.893 132.359C191.657 129.087 196.833 126.717 202.627 125.893C204.146 125.661 205.665 125.532 207.081 125.377V125.377Z" fill="#E3CCA1"/>
<path d="M112.424 163.374C112.424 165.435 110.853 166.491 108.665 165.744C104.751 164.431 102.871 158.506 105.343 155.208C106.193 154.075 107.274 153.302 108.768 153.637C110.313 153.972 110.75 155.105 110.956 156.574C111.291 158.789 111.883 160.953 112.424 163.349V163.374Z" fill="#453323"/>
<path d="M159.057 120.973C158.593 121.72 158.362 122.905 157.203 122.75C151.95 122.132 146.723 124.09 141.418 122.673C139.384 122.132 137.118 122.364 134.955 122.235C134.749 122.029 134.62 121.797 134.543 121.539C134.903 119.247 136.5 120.225 137.762 120.354C139.847 121.204 140.8 119.169 142.319 118.551C144.173 116.542 146.233 116.49 147.984 118.474C148.886 119.504 150.817 118.062 151.049 120.019C151.28 120.715 151.28 121.385 150.791 121.771C151.976 120.354 153.752 119.504 155.529 118.577C157.46 118.268 157.975 120.045 159.057 120.973V120.973Z" fill="#7F674E"/>
<path d="M194.85 117.907C190.498 119.633 185.786 119.375 181.28 120.328C180.636 119.993 179.941 119.71 179.786 118.886C179.838 117.546 180.61 116.876 181.872 116.67C183.185 116.464 184.37 115.794 185.657 115.434C188.902 115.562 192.146 115.743 194.85 117.881V117.907Z" fill="#796049"/>
<path d="M194.85 117.907C191.811 117.056 188.773 116.129 185.58 116C184.988 114.712 186.867 114.3 186.61 113.115C186.945 112.085 187.769 111.647 188.696 111.338C189.829 111.441 191.065 110.977 192.069 111.904C192.455 112.445 192.841 112.986 193.228 113.527C193.794 114.944 195.725 114.712 196.369 116.052C196.498 116.49 196.421 116.902 196.112 117.263C195.7 117.469 195.262 117.7 194.85 117.907V117.907Z" fill="#90785C"/>
<path d="M178.833 120.998C178.112 121.797 177.056 121.771 176.284 121.488C174.121 120.715 172.19 120.251 170.181 122.003C169.331 122.75 168.636 121.848 168.276 120.947C167.812 119.968 168.482 119.35 168.945 118.628C169.486 118.01 169.743 117.083 170.722 116.928C171.005 116.928 171.288 117.005 171.52 117.16C172.773 118.482 173.932 118.233 174.996 116.413C175.537 116.078 176.129 116.052 176.722 116.232C177.906 116.825 179.168 117.366 179.631 118.783C179.889 119.736 178.988 120.225 178.782 120.998H178.833Z" fill="#836A51"/>
<path d="M196.111 117.263C196.111 116.851 196.085 116.439 196.06 116.001C196.781 111.57 199.768 113.296 202.265 113.734C202.677 113.373 202.883 112.884 203.167 112.471C203.682 111.879 204.325 111.75 205.072 111.905C205.948 112.317 206.926 112.497 207.776 112.961C207.673 114.249 206.566 114.507 205.69 114.867C202.626 116.155 199.356 116.696 196.085 117.263H196.111Z" fill="#7B624A"/>
<path d="M207.802 112.935C206.772 113.476 205.87 113.63 205.304 112.317C204.454 111.492 203.63 112.188 202.755 112.265C201.596 112.368 200.205 112.6 200.18 110.719C203.115 108.221 206.231 107.164 209.862 109.303C210.119 109.457 210.299 109.663 210.454 109.921C210.48 110.204 210.402 110.462 210.222 110.668C209.681 111.132 208.857 111.389 208.78 112.291C208.729 112.548 208.6 112.754 208.42 112.935H208.111H207.802Z" fill="#967D60"/>
<path d="M208.42 112.935C208.42 112.729 208.42 112.549 208.42 112.342C208.291 111.029 209.424 110.9 210.248 110.436C210.866 108.504 211.716 106.855 214.213 107.087C215.192 107.19 215.707 107.628 215.784 108.581C215.784 108.787 215.784 108.994 215.784 109.2C216.943 111.364 214.291 110.642 213.904 111.647C212.231 112.832 210.351 113.09 208.368 112.909L208.42 112.935Z" fill="#8C7459"/>
<path d="M159.058 120.972C157.204 121.565 157.178 118.525 155.35 119.092C154.654 118.216 153.753 117.598 152.697 117.185C152.594 116.928 152.543 116.644 152.594 116.361C154.938 114.3 158.388 114.661 160.551 117.16C160.757 118.422 159.882 119.066 159.135 119.813C159.135 120.199 159.083 120.586 159.083 120.946L159.058 120.972Z" fill="#8F775B"/>
<path d="M127.539 121.59C128.08 121.153 126.638 119.71 128.775 119.813C130.243 119.89 132.329 119.221 133.101 117.263C134.337 118.345 133.565 120.174 134.62 121.307C133.642 122.157 132.226 121.23 131.273 122.157C130.037 121.977 128.646 122.621 127.539 121.59Z" fill="#7F664D"/>
<path d="M159.109 119.813C159.495 118.963 159.881 118.113 160.268 117.263C160.371 117.005 160.525 116.773 160.705 116.541C162.585 114.944 163.306 117.366 164.645 117.649C164.825 117.881 164.902 118.138 164.928 118.448C164.465 120.328 162.662 119.736 161.478 120.328C160.68 120.148 159.881 119.993 159.083 119.813H159.109Z" fill="#897056"/>
<path d="M161.504 120.328C161.864 118.602 164.079 119.916 164.594 118.474C165.752 118.113 166.242 118.911 166.731 119.684C166.86 120.148 166.808 120.586 166.448 120.947C165.572 120.534 164.98 123.085 163.615 120.972C162.868 119.839 162.431 122.312 161.426 122.569C160.628 121.771 161.684 121.075 161.504 120.328V120.328Z" fill="#856D52"/>
<path d="M213.982 111.673C214.291 111.338 213.261 110.153 214.781 110.565C215.862 110.849 215.682 109.844 215.862 109.226C216.944 109.148 217.999 109.226 218.926 109.818C217.356 110.668 215.862 111.673 213.982 111.673V111.673Z" fill="#7F664E"/>
<path d="M166.447 120.947V119.71C167.58 117.52 168.121 117.392 169.537 119.092C169.125 119.71 168.713 120.328 168.301 120.947C167.683 120.947 167.065 120.947 166.447 120.947Z" fill="#866E53"/>
<path d="M178.834 120.998C177.52 119.89 179.323 119.762 179.426 119.118C179.606 118.86 179.812 118.834 180.018 119.118C180.61 119.375 181.048 119.762 181.28 120.354C180.456 120.56 179.632 120.792 178.808 120.998H178.834Z" fill="#91795D"/>
<path d="M131.273 122.157C132.123 121.101 133.102 120.792 134.312 121.539C134.544 121.256 134.75 121.256 134.956 121.539C134.956 121.771 134.956 122.003 134.956 122.235C133.72 122.235 132.484 122.183 131.273 122.157Z" fill="#988063"/>
<path d="M473.336 262.167C474.263 262.167 474.855 262.167 475.473 262.167C480.211 262.193 480.365 262.193 480.571 266.727C480.674 269.148 482.348 268.427 483.378 268.272C486.468 267.808 486.108 269.715 486.262 271.724C486.468 274.094 485.644 274.918 483.404 274.506C480.7 273.991 479.516 275.125 480.031 277.804C480.726 281.307 478.357 280.612 476.374 280.689C474.34 280.766 472.666 280.715 473.207 277.907C473.748 275.15 472.641 274.043 469.808 274.455C468.289 274.687 466.589 274.841 467.027 272.291C467.31 270.539 466.074 268.195 469.654 268.272C474.366 268.375 474.366 268.118 473.336 262.141V262.167Z" fill="#009A3D"/>
<path d="M374.404 280.045C372.499 280.045 371.057 280.045 369.641 280.045C369.177 280.045 368.533 280.251 368.404 279.53C368.276 278.731 368.868 278.448 369.486 278.345C370.181 278.242 370.928 278.242 371.623 278.216C381.254 277.958 390.884 277.752 400.515 277.469C402.137 277.417 403.785 277.16 405.407 277.005C406.309 276.928 407.57 276.799 407.596 277.984C407.596 278.989 406.36 278.783 405.562 278.808C397.991 279.04 390.395 279.324 382.825 279.504C379.863 279.581 376.928 280.405 374.404 280.045V280.045Z" fill="#009B3E"/>
<path d="M194.231 85.165C195.313 86.2727 196.703 85.5772 197.939 85.7833C196.806 86.6334 195.725 87.5093 196.575 89.2095C194.695 89.2868 194.592 87.6381 193.613 87.0198C193.613 86.35 193.51 85.603 194.231 85.165V85.165Z" fill="#E6D0A4"/>
<path d="M130.655 102.424C131.067 101.6 131.479 100.776 131.891 99.9514C133.823 98.6634 135.702 97.2723 138.071 96.8601C139.925 98.1481 141.779 96.7828 143.633 96.8601C145.693 95.6236 147.753 95.1341 149.813 96.8601C150.019 97.0662 150.225 97.2723 150.431 97.4784C150.38 97.6072 150.328 97.736 150.303 97.8648C149.324 98.8179 147.599 99.2301 148.217 101.265C148.397 101.883 147.65 102.45 147.11 102.888C146.723 103.146 146.337 103.275 145.925 102.965C145.281 101.549 144.38 100.364 142.861 99.7711C142.526 100.621 143.144 102.94 140.93 101.136C139.565 100.029 138.252 99.2559 136.552 100.338C135.548 100.621 134.647 101.111 133.9 101.883C133.179 101.832 132.664 102.218 132.2 102.734C131.634 102.914 131.093 102.888 130.655 102.424Z" fill="#D6BF95"/>
<path d="M183.726 90.7292C184.601 90.961 184.988 91.6823 186.43 90.8837C188.567 89.7245 191.708 89.9306 194.103 90.858C196.266 91.6823 194.901 93.5886 194.206 95.0312C194.618 96.0101 194.386 96.9375 193.537 97.427C192.713 97.9164 192.043 97.1693 191.425 96.6284C189.468 95.4949 192.635 93.3052 190.859 92.7127C189.854 92.3779 188.438 94.2069 186.764 93.5371C184.988 92.8416 183.649 94.1811 182.155 94.7994C181.846 94.8509 181.563 94.8251 181.254 94.7994C180.584 94.4645 179.76 94.2584 179.992 93.228C181.64 93.0219 182.979 92.3521 183.7 90.7549L183.726 90.7292Z" fill="#DAC499"/>
<path d="M151.023 97.5044C151.307 95.8299 153.161 95.5465 153.83 95.8557C155.761 96.7831 157.77 96.3451 159.675 96.8861C159.727 97.0149 159.804 97.118 159.856 97.2468C159.907 98.0969 159.675 98.8697 159.186 99.5652C158.62 100.158 158.053 100.776 157.203 101.034C156.791 101.111 156.379 101.085 155.967 100.956C154.757 100.415 153.933 99.4622 153.238 98.3802C152.491 98.0969 151.513 98.3802 151.023 97.5044V97.5044Z" fill="#DAC399"/>
<path d="M159.649 96.8861C160.216 95.392 161.297 96.0876 162.147 96.3967C163.229 96.7831 164.078 96.8861 164.593 95.6754C167.22 95.1344 166.241 97.4529 166.859 98.5091C166.937 100.518 165.366 101.472 164.156 102.657C162.559 102.167 160.963 101.678 160.164 100.003C162.25 98.6121 161.04 97.762 159.675 96.9119L159.649 96.8861Z" fill="#D6C096"/>
<path d="M180.017 93.1765C180.429 93.5886 180.841 94.0008 181.253 94.413C179.065 94.8767 180.558 97.4528 179.013 98.2771C176.927 97.53 174.97 96.4996 172.653 97.9165C171.88 98.3801 170.953 97.5558 170.979 96.3966C171.056 96.1132 171.185 95.8556 171.391 95.6753C171.597 95.6753 171.803 95.6753 172.009 95.6753C173.168 93.769 174.945 93.4598 176.953 93.8205C177.159 93.8205 177.365 93.8205 177.571 93.8205C178.344 93.4341 179.039 92.7386 180.043 93.2022L180.017 93.1765Z" fill="#D5BF95"/>
<path d="M171.391 95.6498C171.391 95.8559 171.391 96.0619 171.391 96.268C170.825 97.2985 169.949 97.6076 168.842 97.4273C168.379 97.3757 167.915 97.1954 167.477 97.4788C167.271 97.7364 167.117 98.0198 166.937 98.2774C166.808 98.4577 166.653 98.6123 166.447 98.7153C165.186 98.0713 166.679 95.8043 164.619 95.6498C165.211 93.7177 168.276 92.7388 169.666 94.0268C170.233 94.5678 170.825 95.1088 171.417 95.624L171.391 95.6498Z" fill="#DCC59A"/>
<path d="M176.953 93.7948C175.305 94.4131 173.657 95.0313 172.009 95.6496C170.953 94.3615 172.086 92.1976 172.292 92.1203C174.146 91.5021 175.743 92.2234 176.953 93.7948Z" fill="#DCC59A"/>
<path d="M149.787 96.8862C147.727 96.3968 145.667 96.3968 143.607 96.8862C144.921 94.9284 147.187 94.8769 149.118 94.645C150.508 94.4647 150.328 95.8816 149.787 96.8862Z" fill="#DBC49A"/>
<path d="M151.024 97.5044C151.848 97.5044 152.672 97.5044 153.496 97.5044C154.217 99.2304 153.418 100.003 151.796 99.9259C150.277 99.8486 149.659 98.9985 150.406 97.5044C150.612 97.5044 150.818 97.5044 151.024 97.5044Z" fill="#D6BF95"/>
<path d="M180.018 93.1763C179.245 93.5885 178.447 93.8976 177.546 93.7946C177.855 93.2793 178.37 92.8157 178.447 92.2747C178.576 91.1927 179.22 91.1927 179.889 91.4503C180.996 91.8883 180.121 92.5838 180.018 93.1763Z" fill="#DCC59A"/>
<path d="M205.33 93.1766C208.343 92.8417 211.175 93.0735 213.467 95.4178C213.931 95.8815 214.626 96.6285 215.115 95.495C215.527 94.5419 216.197 94.1297 216.995 94.5419C217.639 94.8768 217.433 95.7784 217.278 96.474C217.175 96.9376 217.278 97.2725 217.69 97.4786C218.051 98.7924 217.484 99.488 216.197 99.694C214.755 99.05 213.313 99.3076 211.845 99.6168C210.995 99.4879 210.3 99.8744 209.527 100.106C207.648 100.673 205.279 102.631 204.249 98.9212C204.146 98.5863 202.935 98.5606 202.678 97.762C201.828 95.933 200.232 97.6589 199.124 97.0407C198.712 96.8088 198.403 96.4739 198.326 95.9845C198.738 94.6449 199.305 93.5888 201.004 94.3616C201.21 94.1555 201.416 93.9494 201.622 93.7433C202.601 93.2796 203.682 93.3311 204.712 93.1251C204.918 93.1251 205.124 93.1251 205.33 93.1251V93.1766Z" fill="#D0B991"/>
<path d="M191.76 96.268C193.64 97.9424 193.691 96.0103 194.232 95.0314C194.644 95.0314 195.056 95.0314 195.468 95.0314C197.064 94.9799 197.09 96.6544 196.807 97.0408C195.365 99.0243 197.734 98.4319 198.069 99.1274C198.635 100.158 197.837 100.931 197.579 101.832C197.373 102.193 197.09 102.476 196.678 102.631C196.086 102.708 195.622 102.451 195.185 102.116C194.412 101.42 193.64 100.673 192.713 100.158C192.146 99.9775 191.399 99.282 191.116 99.5911C188.927 102.013 189.082 99.4623 188.541 98.4319C188.618 95.1602 189.082 94.8769 191.786 96.2422L191.76 96.268Z" fill="#CFB890"/>
<path d="M197.914 99.3592C196.009 99.3077 196.112 99.3077 196.189 97.2726C196.215 96.5513 196.318 95.5724 195.468 95.0572C196.163 93.7692 196.781 92.4296 197.039 90.4976C197.785 91.9402 196.73 93.254 198.017 93.9753C199.047 93.8464 198.79 92.4038 199.742 92.172C200.18 92.9191 200.592 93.6661 201.03 94.4132C199.768 94.4647 199.099 95.2633 198.558 96.268C199.279 97.4787 199.073 98.5091 197.914 99.3335V99.3592Z" fill="#D6BF96"/>
<path d="M204.712 93.1765C203.837 94.2069 202.678 93.6402 201.622 93.7947C202.575 93.2538 203.45 92.1718 204.712 93.1765Z" fill="#DBC49A"/>
<path d="M134.981 121.565C134.775 121.565 134.543 121.565 134.337 121.565C133.797 120.174 132.973 118.86 133.127 117.289C131.376 115.331 129.522 114.738 127.411 116.799C127.024 117.186 126.587 117.958 125.917 117.366C124.578 116.181 123.522 116.67 122.467 117.752C122.08 118.165 121.643 118.422 121.205 117.83C120.896 117.417 122.08 117.134 121.359 116.619C121.359 116.413 121.385 116.232 121.411 116.026C121.437 115.923 121.462 115.82 121.514 115.717C121.643 115.563 121.823 115.46 122.055 115.408C122.879 115.408 123.703 116.001 124.527 115.408C125.531 116.052 126.432 116.129 126.999 114.841C127.411 114.326 127.977 114.146 128.595 114.069C131.479 113.425 134.157 113.991 136.655 115.563C137.273 115.949 137.917 116.207 137.762 117.108C136.784 118.654 138.123 118.577 138.972 118.834C139.513 119.169 140.183 119.581 139.925 120.225C139.462 121.333 138.251 120.586 137.479 120.972C136.578 120.895 135.445 119.865 135.007 121.591L134.981 121.565Z" fill="#947C5F"/>
<path d="M215.836 108.607C213.982 107.268 212.385 107.165 211.458 109.638C211.226 110.204 210.814 110.359 210.299 110.436V109.818C210.093 109.586 209.939 109.354 209.81 109.071C209.475 107.474 210.531 106.598 211.587 105.722C212.857 105.378 213.535 104.571 213.621 103.3C213.776 103.043 213.982 102.862 214.239 102.759C217.097 102.759 219.981 102.322 222.84 102.656C223.458 102.45 223.998 102.605 224.462 103.043L224.488 103.069C223.921 103.816 223.715 104.666 222.196 104.176C220.471 103.635 219.827 104.743 218.462 106.289C217.767 107.087 216.788 107.937 215.81 108.607H215.836Z" fill="#9F8768"/>
<path d="M215.836 99.3592C217.046 99.3592 217.226 98.303 217.69 97.5044C217.896 97.5044 218.102 97.5044 218.308 97.5044C219.75 98.0969 221.012 99.1531 222.634 99.3592C223.329 100.724 222.582 101.111 221.372 101.24C219.467 101.497 217.844 100.158 215.965 100.235C215.681 99.9774 215.63 99.6941 215.81 99.3592H215.836Z" fill="#C9B28B"/>
<path d="M126.921 111.054C125.273 108.118 127.745 109.354 128.826 109.2C129.032 109.019 129.29 108.916 129.573 108.891C130.371 108.942 130.886 108.684 131.015 107.757C131.247 105.98 132.457 105.258 134.131 105.155C136.5 106.778 136.474 108.478 134.054 111.312C132.715 111.956 131.427 112.78 129.908 113.064C129.316 113.141 128.723 113.296 128.183 112.935C128.208 112.033 128.183 111.158 126.947 111.08L126.921 111.054Z" fill="#B79F7B"/>
<path d="M128.157 112.909C128.569 112.703 129.007 112.497 129.419 112.317C130.192 113.399 129.445 114.069 128.775 114.764C128.157 114.764 127.565 114.816 126.947 114.816C126.741 113.811 125.917 112.368 128.157 112.909V112.909Z" fill="#BCA47F"/>
<path d="M129.393 109.277C129.213 109.277 129.007 109.225 128.827 109.2C128.827 108.375 128.801 107.577 128.775 106.752C129.187 107.165 129.625 107.551 130.037 107.963C130.526 107.963 130.835 108.118 130.629 108.659C130.398 109.2 130.011 109.432 129.419 109.251L129.393 109.277Z" fill="#DAC499"/>
<path d="M129.394 109.277C129.806 108.942 130.733 108.865 130.037 107.989C130.681 106.804 129.574 105.954 129.394 104.923C129.6 104.717 129.806 104.511 130.012 104.305C131.685 103.403 133.102 103.3 133.72 105.541C132.741 106.263 131.505 106.598 131.711 108.427C131.84 109.637 130.707 110.333 129.394 109.277V109.277Z" fill="#C4AD87"/>
<path d="M121.385 116C120.329 116.052 119.377 115.897 118.913 114.764C119.531 113.785 120.149 114.609 120.767 114.764C121.9 114.712 121.771 115.305 121.385 116Z" fill="#B29A78"/>
<path d="M121.385 116C121.385 115.485 121.256 115.022 120.767 114.764C120.998 114.352 121.256 113.759 121.771 114.068C122.028 114.223 121.951 114.944 122.028 115.408C121.822 115.614 121.616 115.82 121.41 116H121.385Z" fill="#AD9674"/>
<path d="M133.745 105.516C132.767 104.331 131.428 104.228 130.037 104.279C130.037 103.661 130.037 103.069 130.037 102.45C130.243 102.45 130.449 102.45 130.629 102.45C131.247 102.45 131.865 102.45 132.483 102.45C132.612 102.45 132.767 102.502 132.895 102.502C133.719 102.991 134.518 103.094 135.213 102.27C136.037 102.399 136.475 102.94 136.629 103.713C136.887 104.279 135.213 105.619 137.402 105.439C137.891 105.387 138.251 106.237 138.457 106.804C138.947 109.303 136.552 110.282 135.702 112.059C133.797 112.883 133.668 112.806 133.719 111.054C134.672 109.2 136.655 107.345 133.719 105.49L133.745 105.516Z" fill="#CCB58D"/>
<path d="M224.462 103.043C223.844 103.043 223.226 103.043 222.634 103.043C222.428 102.914 222.351 102.759 222.428 102.63C222.505 102.502 222.582 102.424 222.634 102.424C223.072 101.677 223.818 101.832 224.488 101.806C224.488 102.218 224.488 102.605 224.488 103.017L224.462 103.043Z" fill="#AD9673"/>
<path d="M222.608 102.425C222.608 102.631 222.608 102.837 222.608 103.043C219.724 102.837 216.84 104.202 213.956 103.043C213.621 102.682 213.57 102.27 213.699 101.832C214.085 100.853 215.63 101.214 215.81 99.9773C217.896 99.3076 219.57 100.57 221.346 101.24C221.372 102.038 221.81 102.425 222.582 102.45L222.608 102.425Z" fill="#B49C79"/>
<path d="M415.81 150.005C415.81 150.958 415.836 151.679 415.81 152.375C415.759 153.38 415.398 154.23 414.239 154.204C412.875 154.178 413.39 153.045 413.39 152.349C413.39 149.593 413.39 146.862 412.772 144.157C412.566 143.281 412.591 142.122 413.879 142.122C414.78 142.122 415.244 142.972 415.218 143.874C415.115 146.038 416.248 148.047 415.836 149.979L415.81 150.005Z" fill="#F3E2EF"/>
<path d="M413.493 136.97C413.287 137.743 413.596 139.16 412.437 138.747C410.3 138 410.712 135.708 410.223 134.007C410.017 133.312 410.274 132.359 411.227 132.642C413.416 133.286 412.978 135.45 413.519 136.996L413.493 136.97Z" fill="#F4E3F0"/>
<path d="M204.609 161.571C203.708 165.126 204.249 168.99 204.918 172.828C205.073 173.679 204.944 174.503 203.863 174.709C202.884 174.889 202.343 174.374 202.086 173.447C200.824 168.913 201.494 164.302 201.674 159.716C201.7 158.995 202.472 158.454 203.27 158.737C204.429 159.124 204.635 160.154 204.609 161.571V161.571Z" fill="#F3EFEC"/>
<path d="M203.502 152.735C203.708 151.318 204.403 149.515 205.33 147.841C205.665 147.222 206.206 146.63 207.056 146.913C208.034 147.222 208.189 148.047 207.957 148.897C207.468 150.649 206.927 152.374 206.309 154.075C206.026 154.796 205.562 155.672 204.532 155.466C203.322 155.234 203.399 154.203 203.502 152.761V152.735Z" fill="#F3EFEC"/>
<path d="M152.877 116.593C152.877 116.799 152.877 117.005 152.877 117.237C153.598 119.118 153.212 119.607 150.405 120.329C150.405 120.225 150.379 120.045 150.379 120.045C148.268 120.174 147.109 118.371 145.409 117.649C143.942 117.031 143.813 119.478 142.397 119.118C141.495 118.19 142.01 117.057 141.933 116.027C141.985 115.743 142.062 115.486 142.216 115.254C143.015 114.301 143.993 114.61 144.972 114.816C145.255 114.867 145.512 114.945 145.796 115.022C147.598 115.382 149.426 115.073 151.255 115.254C152.336 115.357 152.619 115.846 152.903 116.645L152.877 116.593Z" fill="#8C7459"/>
<path d="M142.346 115.975C143.041 117.005 142.166 118.061 142.346 119.092C140.775 119.942 139.874 122.544 137.402 120.921C136.99 119.762 140.518 121.204 138.638 119.066C138.586 118.293 138.973 117.649 139.307 116.98C139.436 116.773 139.591 116.593 139.771 116.413C139.977 116.284 140.183 116.181 140.415 116.104C140.852 115.975 141.29 115.82 141.754 115.717C141.985 115.691 142.191 115.769 142.346 115.949V115.975Z" fill="#937B5E"/>
<path d="M150.405 120.328C151.152 119.247 153.341 119.324 152.877 117.237C154.989 116.129 155.323 117.392 155.349 119.092C154.062 121.05 151.796 121.282 149.71 122.389C149.967 121.488 151.178 121.204 150.405 120.328Z" fill="#876E54"/>
<path d="M180.043 119.092C179.837 119.092 179.631 119.092 179.451 119.092C178.627 118.268 177.803 117.443 176.953 116.619C177.005 116.49 177.056 116.361 177.082 116.233C177.571 115.64 178.138 115.46 178.859 115.82C179.065 116.052 179.065 116.336 179.142 116.619C179.142 116.336 179.193 116.052 179.348 115.82C179.914 115.563 180.404 115.254 180.301 114.507C180.378 114.249 180.532 114.043 180.738 113.863C181.125 113.656 181.537 113.631 181.949 113.682C183.468 115.202 184.369 113.167 185.605 113.064C186.069 113.064 186.455 113.167 186.79 113.528C187.433 114.867 185.631 114.996 185.579 116.001C184.421 116.516 183.262 117.469 182.129 117.443C180.661 117.392 180.507 118.268 180.017 119.092H180.043Z" fill="#856D53"/>
<path d="M200.386 110.462C200.669 112.188 202.034 111.647 203.064 111.621C203.914 111.621 204.892 110.977 205.33 112.291C204.635 112.291 203.914 112.188 203.476 112.909C203.09 113.244 202.806 113.605 202.884 114.146C202.214 115.46 201.622 115.15 200.54 114.378C199.485 113.605 197.347 111.467 197.631 115.434C197.682 116.129 196.652 115.898 196.086 115.975C195.39 114.738 192.249 116.542 192.996 113.502C192.635 112.884 193.047 112.471 193.408 112.033C194.077 111.544 194.747 111.054 195.468 110.668C195.725 110.565 195.983 110.488 196.266 110.436C197.502 110.359 198.764 110.204 200 110.256C200.128 110.333 200.257 110.385 200.36 110.462H200.386Z" fill="#866D53"/>
<path d="M191.76 112.317C190.859 111.466 189.648 112.188 188.67 111.698C186.764 112.291 186.069 111.338 185.94 109.612C187.588 107.01 187.794 106.984 190.987 109.019C191.683 108.916 191.94 108.195 192.532 107.963C193.485 108.066 193.511 108.813 193.64 109.509C193.64 109.792 193.64 110.075 193.588 110.385C193.537 110.668 193.459 110.951 193.331 111.209C192.944 111.776 192.738 112.6 191.734 112.317H191.76Z" fill="#A48C6C"/>
<path d="M186.198 109.818C186.713 110.849 187.511 111.493 188.67 111.673C188.052 112.291 187.434 112.909 186.816 113.502C186.404 113.502 186.017 113.502 185.605 113.502C184.344 113.579 183.03 113.322 181.897 114.146C181.485 114.146 181.099 114.146 180.687 114.172C180.455 113.991 180.275 113.785 180.121 113.528C179.863 112.703 179.503 111.827 180.558 111.261C180.945 111.106 181.357 111.029 181.794 111.003C182.335 110.952 182.876 110.952 183.417 110.874C184.241 110.746 184.807 110.153 185.451 109.715C185.734 109.612 185.966 109.664 186.198 109.844V109.818Z" fill="#9C8465"/>
<path d="M191.76 112.317C192.172 111.904 192.584 111.492 192.996 111.08C194.052 111.08 194 111.621 193.614 112.342C193.408 112.755 193.202 113.141 192.97 113.553C192.172 113.553 191.76 113.115 191.734 112.317H191.76Z" fill="#9C8465"/>
<path d="M169.538 119.092C168.173 117.701 167.349 118.886 166.448 119.71C165.83 119.298 165.212 118.886 164.594 118.474C164.594 118.268 164.594 118.061 164.594 117.855C164.439 117.701 164.388 117.546 164.414 117.366C164.439 117.186 164.465 117.108 164.517 117.108C165.186 116.516 165.984 116.361 166.834 116.31C167.272 116.232 168.07 116.799 167.993 115.691C168.096 114.713 167.555 113.656 168.302 112.729C171.057 112.291 170.182 114.944 171.134 116.026C171.212 116.464 171.134 116.876 170.774 117.211C170.362 117.83 169.95 118.448 169.538 119.066V119.092Z" fill="#937A5E"/>
<path d="M175.099 116.619C175.074 117.932 175.331 119.478 173.374 119.633C171.7 119.761 171.34 118.602 171.34 117.237C171.469 116.516 171.984 116.052 172.473 115.588C172.936 115.228 173.451 114.996 174.044 115.047C174.765 115.331 175.408 115.665 175.074 116.619H175.099Z" fill="#9C8466"/>
<path d="M172.628 116.001C172.19 116.413 171.778 116.825 171.34 117.237C171.134 117.237 170.954 117.237 170.748 117.237C170.748 116.825 170.748 116.413 170.748 116.001C170.439 115.048 170.491 114.094 171.418 113.631C172.267 113.219 172.576 114.069 172.911 114.661C173.014 115.151 172.911 115.589 172.602 116.001H172.628Z" fill="#8C7459"/>
<path d="M175.099 116.619C174.868 116.026 174.456 115.614 173.863 115.382C174.996 114.481 176.155 113.631 177.674 114.661C177.958 115.511 177.262 116.001 176.953 116.619V116.645C176.335 116.645 175.717 116.645 175.125 116.645L175.099 116.619Z" fill="#8C7459"/>
<path d="M202.884 114.172C202.472 113.94 201.879 113.682 202.137 113.167C202.266 112.909 203.012 112.987 203.476 112.935C203.476 113.45 203.373 113.914 202.884 114.172V114.172Z" fill="#967D61"/>
<path d="M210.274 109.2C210.274 109.406 210.274 109.612 210.274 109.844C206.849 108.066 203.63 109.509 200.386 110.488C199.974 110.101 199.278 110.333 198.944 109.792C197.914 106.675 197.914 106.649 201.055 107.242C201.802 107.371 202.471 107.242 203.141 106.984C204.119 106.701 204.428 105.774 205.046 105.13C206.179 103.97 207.39 104.202 208.548 105.13C209.707 106.237 208.111 108.504 210.248 109.2H210.274Z" fill="#9F8768"/>
<path d="M210.249 110.462C209.631 111.106 209.038 111.724 208.42 112.368C207.88 110.823 208.008 110.668 210.249 110.462Z" fill="#AD9675"/>
<path d="M152.877 116.593C151.358 115.614 149.632 115.923 147.984 115.898C147.109 115.898 146.182 116.232 145.461 115.382C146.002 112.549 148.062 112.806 150.122 113.115C150.791 112.652 150.611 111.982 150.534 111.338C150.276 110.591 149.452 110.076 149.684 109.122C150.044 108.659 150.559 108.401 151.1 108.247C151.589 108.118 152.259 108.272 152.568 107.912C154.267 105.748 155.812 106.856 157.383 108.04C157.1 110.771 158.31 111.827 160.988 111.235C161.606 111.467 161.915 111.93 161.864 112.6C161.786 113.038 161.529 113.399 161.246 113.734C160.061 114.764 161.992 116.129 160.885 117.186C160.679 117.186 160.499 117.186 160.293 117.237C157.924 115.794 155.555 114.455 152.877 116.567V116.593Z" fill="#A99170"/>
<path d="M160.886 117.237C160.886 116.644 161.015 115.949 160.371 115.562C158.234 114.274 159.444 113.888 160.886 113.527C162.019 114.558 162.972 113.424 163.976 113.218C164.954 113.012 166.087 112.239 166.577 113.682C167.066 115.15 165.701 115.253 164.774 115.562C163.59 115.975 164.98 116.722 164.568 117.237C164.568 117.443 164.568 117.649 164.568 117.829C163.744 117.829 162.843 117.855 162.405 117.031C161.71 115.717 161.375 117.108 160.86 117.185L160.886 117.237Z" fill="#947C5F"/>
<path d="M136.191 99.9775C138.74 97.7105 140.388 99.4108 142.01 101.317C142.937 100.39 141.341 99.7714 141.779 98.6895C143.864 99.5653 146.414 99.7714 146.079 103.043C145.306 104.022 144.56 105.104 143.015 104.717C140.388 104.151 138.586 101.935 136.036 101.188C135.83 100.75 135.856 100.338 136.191 99.9775Z" fill="#CFB890"/>
<path d="M150.405 97.5043C150.353 98.6893 150.74 99.4106 152.104 99.3333C153.392 99.2818 153.495 98.4574 153.495 97.4785C154.319 98.5089 155.143 99.5394 155.967 100.544C154.525 102.218 154.087 102.244 150.559 101.033C150.92 102.45 150.147 103.429 149.298 104.382C147.469 105.001 147.341 103.378 146.723 102.399C147.057 102.038 147.753 101.471 147.675 101.343C145.847 98.0453 148.911 98.3286 150.431 97.4785L150.405 97.5043Z" fill="#D1BA91"/>
<path d="M146.698 102.451C148.14 102.244 147.728 104.486 149.17 104.305C149.916 104.228 150.663 103.97 151.461 104.151C152.002 104.486 152.054 104.975 151.848 105.516C151.358 106.134 150.56 106.392 150.045 106.984C149.35 107.551 148.886 108.324 148.371 109.071C148.191 109.277 147.985 109.406 147.728 109.457C147.444 109.457 147.238 109.329 147.032 109.148C146.646 108.582 145.796 108.659 145.436 108.041C145.256 107.835 145.101 107.628 144.947 107.422C144.509 106.778 143.865 106.315 143.324 105.748C142.99 105.31 142.681 104.872 142.99 104.28C143.556 104.202 144.612 104.434 144.56 103.764C144.38 101.781 145.719 103.507 146.08 103.017C146.286 102.811 146.492 102.631 146.698 102.425V102.451Z" fill="#C3AC86"/>
<path d="M142.989 104.279C143.195 104.691 143.401 105.104 143.607 105.516C143.504 105.619 143.401 105.722 143.298 105.825C142.294 106.314 141.341 106.005 140.389 105.593C139.771 105.31 139.178 105.001 138.586 104.666C137.891 104.099 136.938 104.099 136.191 103.661C135.96 103.069 135.548 102.656 134.955 102.424C134.131 103.094 133.307 102.965 132.483 102.424C132.432 101.317 133.05 101.497 133.719 101.806C134.44 101.188 135.187 100.699 136.191 101.188C137.144 100.518 138.38 100.57 138.895 101.394C139.874 103.043 141.753 103.172 142.989 104.254V104.279Z" fill="#C9B28B"/>
<path d="M136.192 101.188C135.419 101.6 134.621 101.909 133.72 101.806C133.797 100.209 134.853 99.9257 136.166 99.9772C136.166 100.389 136.166 100.802 136.166 101.214L136.192 101.188Z" fill="#DDC79C"/>
<path d="M191.76 96.2678C191.142 97.1437 187.923 94.5933 189.288 98.1226C188.619 99.2303 187.717 99.9516 186.353 99.797C184.524 98.2771 183.288 96.2936 181.872 94.413C183.649 92.7643 185.554 91.9658 187.975 93.0219C188.67 93.3311 189.674 93.5629 189.005 92.0173C188.773 91.4763 189.571 91.3475 190.086 91.4763C191.142 91.7597 192.352 91.837 193.202 92.4295C193.743 92.8159 192.945 93.4856 192.404 93.7432C191.194 94.3357 191.116 95.1858 191.76 96.242V96.2678Z" fill="#D6BF95"/>
<path d="M181.871 94.413C184.163 95.3146 185.219 97.2982 186.197 99.359C186.403 99.5651 186.506 99.797 186.481 100.08C185.811 101.059 185.245 102.115 184.575 103.069C183.88 103.455 183.082 103.532 182.386 103.893C182.103 103.893 181.846 103.841 181.614 103.713C180.713 102.862 180.867 101.678 180.764 100.621C180.687 99.6424 180.532 98.8438 179.399 98.6377C179.142 98.5089 178.936 98.3544 178.781 98.1225C178.987 97.4785 179.477 96.7572 179.322 96.1905C178.807 94.2069 180.043 94.3872 181.253 94.413C181.459 94.413 181.665 94.413 181.871 94.413V94.413Z" fill="#D0B991"/>
<path d="M160.268 99.9776C161.504 100.802 162.74 101.626 163.976 102.451C165.186 102.579 164.517 103.043 164.156 103.43C162.894 103.867 161.452 103.893 160.525 105.027C160.165 105.259 159.779 105.336 159.341 105.284C158.955 105.181 158.594 105.001 158.285 104.743C157.744 104.228 157.204 103.764 156.405 104.254C155.015 104.408 153.624 104.743 152.208 104.434C151.925 104.074 151.848 103.661 152.002 103.223C153.264 101.394 156.019 102.528 157.204 100.596C157.847 100.209 158.105 99.2563 159.058 99.3336C159.727 99.0244 160.036 99.4108 160.294 99.9518L160.268 99.9776Z" fill="#D1BA91"/>
<path d="M157.178 100.596C156.74 103.841 153.959 102.373 152.234 103.043C151.538 103.172 151.719 104.151 150.998 104.279C150.38 105.078 149.762 105.078 149.144 104.279C149.504 101.806 149.968 99.5909 153.392 101.111C154.113 101.446 155.246 101.471 155.942 100.57C156.354 100.57 156.766 100.57 157.178 100.57V100.596Z" fill="#CAB38B"/>
<path d="M160.268 99.9772C159.856 99.7711 159.444 99.565 159.032 99.3589C158.929 98.4573 159.238 97.6587 159.65 96.9116C160.834 96.9889 162.379 96.5767 162.585 98.3027C162.765 99.8741 161.452 99.9771 160.268 100.003V99.9772Z" fill="#E2CB9F"/>
<path d="M163.975 103.043C164.413 102.837 164.387 102.631 163.975 102.424C164.233 100.827 166.087 100.286 166.447 98.7149C166.447 98.5088 166.447 98.3027 166.447 98.1224C168.713 97.9678 171.391 96.3964 172.627 99.8484C171.005 101.136 168.224 100.621 167.451 103.223C166.267 103.816 165.572 106.057 163.718 104.305C163.563 103.841 163.589 103.403 163.949 103.043H163.975Z" fill="#C8B18A"/>
<path d="M172.628 99.9775C171.237 97.1696 168.353 99.3078 166.474 98.1485C166.68 97.9424 166.86 97.7364 167.066 97.5045C167.375 97.0923 167.813 96.912 168.302 96.8863C169.383 96.9635 170.439 96.8605 171.392 96.268C171.469 97.3757 172.86 97.8136 172.988 97.4015C173.941 94.5678 175.975 97.1954 177.392 96.3968C178.937 95.5467 176.825 98.6637 178.782 98.1228C178.988 98.1228 179.194 98.1228 179.4 98.1228C180.688 99.4108 180.816 100.544 179.014 101.472C178.731 101.575 178.422 101.6 178.113 101.6C176.31 101.214 176.233 99.3078 175.229 98.2516C175.177 99.7457 174.585 100.622 172.911 100.261C172.808 100.158 172.705 100.081 172.576 99.9775H172.628Z" fill="#D0B991"/>
<path d="M168.302 96.886C168.044 97.3755 167.581 97.5043 167.066 97.5043C166.989 97.1436 166.577 96.7057 167.04 96.4223C167.555 96.1132 168.019 96.3966 168.302 96.886V96.886Z" fill="#D6C096"/>
<path d="M213.982 101.832C213.982 102.244 213.982 102.631 213.956 103.043C211.664 104.125 209.501 105.439 206.849 103.584C205.047 102.322 204.609 104.486 203.733 105.439C203.012 106.443 202.034 106.392 200.978 106.083C198.97 105.516 196.935 105.619 194.875 105.928C194.051 105.928 193.382 105.748 193.305 104.769C194 103.764 194.129 102.373 195.442 101.807C195.854 102.013 196.24 102.219 196.652 102.399C197.167 102.322 197.862 104.176 198.3 102.193C198.48 101.291 199.073 100.261 200.412 100.673C200.618 100.725 200.643 100.982 200.566 101.162C200.927 100.956 200.515 101.575 200.695 101.188C200.772 101.034 200.721 101.008 200.695 100.956C199.098 99.2819 198.686 102.528 197.296 101.781C196.472 100.699 198.146 100.261 197.914 99.3077C198.12 98.2773 198.326 97.2726 198.558 96.2422C198.764 96.4483 198.97 96.6544 199.176 96.8347C200.386 97.2211 201.596 97.556 202.884 97.4787C203.115 97.6848 203.373 98.097 203.553 98.0454C205.304 97.6848 205.304 97.659 205.201 99.5911C205.201 99.7714 205.201 99.9775 205.227 100.493C206.617 99.3335 208.729 101.085 209.862 98.6379C210.403 97.4529 211.304 99.2047 212.128 99.3077C214.574 98.7667 213.518 100.853 214.008 101.781L213.982 101.832Z" fill="#C2AB85"/>
<path d="M213.982 101.832C213.081 101.755 212.72 101.394 213.081 100.441C213.415 99.5908 212.746 99.4362 212.128 99.3332C213.364 98.6634 214.6 97.2981 215.836 99.3332V99.9514C216.145 101.471 214.729 101.291 214.008 101.806L213.982 101.832Z" fill="#C7B18A"/>
<path d="M202.884 97.5041C201.184 99.9514 200.36 97.4269 199.176 96.8601C200.515 96.4737 202.034 95.0569 202.884 97.5041Z" fill="#D7C096"/>
<path d="M186.197 99.9773C186.197 99.7712 186.197 99.5652 186.197 99.3591C187.227 98.9469 188.257 98.5347 189.287 98.1226C189.339 98.8954 189.133 99.7455 190.06 100.183C190.858 97.427 191.965 99.153 192.995 99.9773C192.995 100.106 192.995 100.261 193.021 100.39C192.094 101.523 192.789 103.738 190.601 104.022C190.034 103.867 189.545 103.584 189.184 103.12C189.571 102.012 188.927 101.6 188.026 101.368C188.257 99.797 186.506 100.853 186.197 100.003V99.9773Z" fill="#C9B28B"/>
<path d="M197.296 101.806C198.481 101.472 198.841 99.1531 200.489 100.261C201.287 100.802 201.854 102.013 201.081 103.275C199.871 102.863 200.901 101.523 200.026 101.059C198.12 101.652 198.996 102.785 199.433 103.996C198.815 102.811 196.215 105.696 196.678 102.425C196.884 102.219 197.09 102.013 197.296 101.832V101.806Z" fill="#B8A17D"/>
<path d="M195.467 101.806C195.21 102.914 195.39 104.331 193.613 104.279C193.485 104.228 193.356 104.176 193.227 104.125C191.888 102.811 193.304 101.343 192.995 99.9517C194.231 100.003 194.901 100.828 195.467 101.806V101.806Z" fill="#C8B18A"/>
<path d="M142.346 115.975C142.165 115.975 141.959 116.026 141.779 116.026C141.007 115.562 141.29 114.635 140.852 114.017C140.595 113.733 140.286 113.527 139.951 113.347C139.256 112.935 138.535 112.677 137.736 112.858C136.681 113.424 137.865 113.527 137.968 113.862C138.509 113.605 137.865 115.511 138.895 114.326C139.565 114.043 140.286 113.656 140.698 114.532C141.11 115.408 140.466 116 139.899 116.567V116.67C139.178 117.211 138.483 118.01 137.453 117.185C134.93 115.047 132.123 113.914 128.775 114.712C128.981 113.888 129.213 113.089 129.419 112.265C131.067 112.626 132.071 110.668 133.719 111.029C133.874 112.626 134.749 112.059 135.573 111.621C136.191 110.822 136.809 110.101 137.762 109.586C139.307 108.736 140.62 108.375 141.316 110.797C142.783 109.406 142.809 106.649 145.461 107.293C145.77 108.221 146.131 109.097 147.315 109.148C148.062 110.926 147.882 112.471 146.182 113.63C145.59 113.347 145.436 112.755 145.075 112.007C144.174 113.192 143.118 114.12 142.371 115.305C142.371 115.511 142.371 115.691 142.371 115.897L142.346 115.975Z" fill="#AA9271"/>
<path d="M137.479 117.212C138.303 117.031 139.101 116.851 139.925 116.696C139.796 117.649 139.487 118.5 138.689 119.092C137.917 118.731 136.861 119.916 136.346 118.834C135.934 117.984 136.5 117.34 137.479 117.237V117.212Z" fill="#897056"/>
<path d="M203.476 104.898C204.866 101.806 205.175 101.703 207.647 103.687C207.931 103.919 208.549 104.176 208.703 104.073C210.3 102.759 212.308 103.79 213.982 103.069C213.982 103.172 213.982 103.275 213.982 103.378C214.154 105.542 213.536 106.469 212.128 106.16C210.815 106.443 209.656 105.825 208.42 105.542C206.901 104.717 205.639 104.485 204.995 106.623C204.866 107.087 204.454 108.066 203.476 107.396C203.064 106.572 203.038 105.748 203.476 104.923V104.898Z" fill="#AD9573"/>
<path d="M208.42 105.516C209.862 104.459 210.918 105.67 212.128 106.134C211.227 106.984 209.965 107.602 210.274 109.199C207.365 109.122 207.828 107.345 208.446 105.516H208.42Z" fill="#B39C79"/>
<path d="M145.461 107.371C144.328 107.963 142.989 108.324 142.938 110.024C142.912 110.951 142.371 111.982 141.367 111.853C140.285 111.698 139.796 110.719 140.311 109.122C138.457 110.127 137.015 110.9 135.573 111.673C135.367 109.509 138.509 109.045 138.045 106.752C138.122 105.902 137.813 104.949 138.663 104.279C139.281 104.485 139.899 104.691 140.517 104.923C141.135 105.954 142.165 106.16 143.607 105.542C144.38 105.98 145.435 106.186 145.461 107.396V107.371Z" fill="#B9A17D"/>
<path d="M138.663 104.279C138.586 105.129 138.946 106.108 138.045 106.752C137.659 105.593 134.646 105.979 136.217 103.661C137.247 103.017 138.122 102.965 138.689 104.253L138.663 104.279Z" fill="#C0A984"/>
<path d="M132.509 102.425C133.333 102.425 134.157 102.425 134.981 102.425C134.826 102.966 135.599 103.945 134.929 103.996C133.951 104.099 132.998 103.455 132.535 102.399L132.509 102.425Z" fill="#D6BF95"/>
<path d="M146.054 113.502C147.727 112.446 146.491 110.513 147.315 109.2C147.521 109.2 147.727 109.2 147.933 109.2C148.551 109.097 149.195 108.736 149.813 109.2C150.431 109.818 151.023 110.41 151.641 111.029C150.508 111.492 150.689 112.6 150.405 113.502C150.174 113.708 149.787 114.12 149.762 114.094C147.727 112.523 146.749 114.481 145.461 115.382C145.281 115.382 145.075 115.382 144.895 115.331C144.328 114.12 144.148 113.115 146.079 113.476L146.054 113.502Z" fill="#B69F7B"/>
<path d="M146.053 113.502C144.869 113.631 144.817 114.455 144.869 115.357C144.045 115.382 143.195 114.764 142.371 115.382C142.5 113.296 144.071 112.136 145.616 110.385C145.796 111.699 145.925 112.574 146.053 113.476V113.502Z" fill="#9E8567"/>
<path d="M140.491 112.935C140.697 113.141 140.929 113.321 141.135 113.528C141.624 114.687 141.727 115.769 140.517 116.619C140.311 116.619 140.105 116.619 139.873 116.619C139.925 115.717 141.187 113.965 138.637 114.816C138.303 113.27 139.616 113.347 140.466 112.987L140.491 112.935Z" fill="#B19A77"/>
<path d="M140.543 116.619C141.109 115.665 141.212 114.609 141.161 113.527C142.088 114.171 141.676 115.176 141.805 116.026C141.521 116.541 141.058 116.644 140.543 116.593V116.619Z" fill="#BFA983"/>
<path d="M181.872 114.146C182.593 110.848 184.318 113.579 185.58 113.502C184.396 114.068 183.469 116.078 181.872 114.146Z" fill="#90785C"/>
<path d="M180.636 113.528C180.636 113.734 180.636 113.966 180.661 114.172C180.661 114.352 180.661 114.558 180.636 114.738C180.301 115.202 179.812 115.563 179.425 116.001C179.322 116.284 179.219 116.542 179.116 116.825C179.013 116.567 178.91 116.284 178.782 116.026C178.395 115.666 177.855 115.408 177.88 114.764C177.855 114.481 177.906 114.223 178.061 113.991C178.576 113.502 179.194 113.219 179.915 113.167C180.198 113.219 180.43 113.322 180.636 113.528Z" fill="#A7906F"/>
<path d="M179.426 116.001C179.426 115.202 179.838 114.79 180.636 114.738C181.357 116.232 180.198 115.949 179.426 116.001Z" fill="#937B5E"/>
<path d="M178.164 114.764C178.37 115.176 178.576 115.614 178.808 116.026C178.19 116.232 177.572 116.413 176.979 116.619C177.185 116.001 177.392 115.408 177.572 114.79C177.778 114.584 177.958 114.584 178.164 114.79V114.764Z" fill="#9C8465"/>
<path d="M192.996 110.462C192.996 110.256 192.996 110.05 192.996 109.844C193.176 109.663 193.357 109.509 193.588 109.38C194.335 109.148 194.927 108.71 195.494 108.169C197.039 107.474 197.605 108.169 197.657 109.638C197.451 110.462 196.601 110.591 196.086 111.08C195.88 111.08 195.674 111.08 195.468 111.08C194.49 111.467 193.743 110.926 192.996 110.462V110.462Z" fill="#9C8465"/>
<path d="M196.086 111.08C196.498 110.668 196.884 110.256 197.296 109.844C197.914 109.766 198.558 109.354 199.176 109.844C199.691 109.844 200.154 109.972 200.412 110.488C199.073 111.312 197.554 111.054 196.112 111.08H196.086Z" fill="#967D60"/>
<path d="M192.996 110.462C193.897 110.359 194.696 110.668 195.468 111.08C195.108 111.879 194.49 112.291 193.614 112.317C193.614 111.801 193.485 111.338 192.996 111.054C192.996 110.848 192.996 110.642 192.996 110.436V110.462Z" fill="#967D60"/>
<path d="M189.288 103.069C189.777 103.069 190.241 103.198 190.524 103.687C191.091 104.074 191.477 104.537 191.013 105.207C190.318 106.212 190.91 106.933 191.477 107.68C191.966 108.479 192.146 109.251 191.168 109.844C190.704 109.973 190.189 110.333 189.854 109.664C188.49 106.804 187.357 108.195 186.198 109.818C185.992 109.818 185.786 109.818 185.606 109.818C185.425 110.024 185.219 110.076 184.962 110.024C184.627 109.921 184.37 109.973 184.267 110.385C184.19 110.849 184.061 111.287 183.726 111.647C183.108 111.647 182.49 111.647 181.872 111.647C181.692 110.385 181.022 111.158 180.481 111.312C178.885 111.956 177.7 109.947 176.078 110.668C173.014 109.251 174.816 106.753 174.739 104.666C175.151 102.605 176.387 103.687 177.417 103.945C177.829 104.28 178.035 104.718 178.035 105.233C178.035 106.65 178.859 106.933 180.018 106.65C181.357 106.34 181.872 105.568 181.074 104.28C181.1 103.79 181.254 103.455 181.846 103.636C182.052 103.636 182.258 103.636 182.464 103.636C182.953 103.146 183.546 103.223 184.112 103.352C185.194 103.249 186.198 103.481 186.893 104.28C187.794 105.31 187.846 106.289 186.327 106.804C187.305 106.701 187.794 106.109 187.923 105.13C188.129 104.46 188.412 103.816 188.902 103.301C189.03 103.223 189.134 103.146 189.262 103.095L189.288 103.069Z" fill="#B59D7A"/>
<path d="M193.614 109.818C193.408 109.818 193.202 109.818 192.996 109.818C192.996 109.148 193.125 108.427 192.404 107.989C192.301 107.886 192.223 107.809 192.12 107.705C190.112 105.464 191.914 104.898 193.614 104.279C193.614 105.078 194.052 105.49 194.85 105.49C195.622 104.975 196.189 105.232 196.421 106.057C196.755 107.319 195.519 107.654 194.901 108.349C194.464 108.839 194.103 109.38 193.614 109.818Z" fill="#AE9674"/>
<path d="M191.141 109.844C191.528 109.226 191.528 108.633 191.141 108.015C191.553 107.68 191.94 107.603 192.352 108.015C192.352 108.891 192.352 109.792 191.09 109.844H191.141Z" fill="#AE9674"/>
<path d="M176.31 110.462C177.082 109.638 177.906 108.994 178.73 110.359C179.194 111.106 179.889 111.08 180.61 111.106C180.764 111.235 180.842 111.364 180.79 111.492C180.739 111.621 180.687 111.698 180.636 111.698C179.915 112.317 180.842 112.935 180.636 113.553H180.327H180.018C178.627 113.115 177.082 113.347 175.769 112.6C175.383 112.265 175.28 111.853 175.357 111.389C175.486 110.9 175.898 110.694 176.31 110.488V110.462Z" fill="#A58D6D"/>
<path d="M180.636 111.698C180.636 111.492 180.636 111.286 180.636 111.106C181.073 110.41 181.537 109.457 182.49 110.307C183.236 110.977 181.975 111.157 181.898 111.698C181.486 111.698 181.073 111.698 180.661 111.698H180.636Z" fill="#B9A27E"/>
<path d="M184.962 109.818C185.168 109.818 185.4 109.818 185.606 109.844C185.58 111.055 184.55 111.261 183.752 111.673C183.752 111.055 183.752 110.462 183.752 109.844C184.138 109.509 184.55 109.457 184.962 109.818Z" fill="#A68E6E"/>
<path d="M163.976 115.382C164.31 115.176 164.619 114.919 165.006 114.79C165.521 114.61 166.473 114.79 166.139 113.837C165.778 112.806 165.212 113.888 164.774 113.862C163.486 113.837 161.993 115.563 160.886 113.502C161.092 113.296 161.298 113.09 161.504 112.884C164.259 110.874 166.731 110.565 168.559 112.033C168.611 112.368 168.533 112.652 168.302 112.909C168.379 113.94 169.177 114.97 168.302 115.975C168.07 116.155 167.812 116.207 167.529 116.155C166.396 115.64 164.98 116.516 163.976 115.382V115.382Z" fill="#9F8768"/>
<path d="M168.302 112.935C168.302 112.729 168.302 112.523 168.302 112.317C168.714 111.75 169.28 111.441 169.976 111.363C170.877 111.312 171.804 111.003 172.705 111.466C173.349 111.956 174.096 112.317 174.662 112.909C174.765 113.167 174.817 113.45 174.791 113.759C174.302 114.584 173.606 114.996 172.628 114.815C170.542 113.012 171.598 115.949 170.774 116.052C170.104 115.717 169.512 115.331 169.744 114.403C170.027 113.167 169.177 113.064 168.328 112.961L168.302 112.935Z" fill="#9A8263"/>
<path d="M163.975 115.382C165.16 115.898 166.679 114.326 167.683 116.001C167.606 116.336 167.4 116.542 167.039 116.593C166.293 117.031 165.494 117.315 164.593 117.263C164.078 116.748 163.383 116.258 163.975 115.382Z" fill="#AB9472"/>
<path d="M167.04 116.593C167.246 116.387 167.452 116.181 167.684 116C167.89 116 168.096 116 168.302 116C168.714 116.232 169.383 116.645 169.023 116.979C168.431 117.546 167.607 117.34 167.066 116.619L167.04 116.593Z" fill="#887055"/>
<path d="M172.628 114.764C173.246 114.352 173.864 113.939 174.482 113.527C175.821 113.038 177.289 111.904 178.19 114.146C178.19 114.352 178.19 114.558 178.19 114.738C177.984 114.738 177.778 114.738 177.598 114.738C176.362 114.944 175.126 115.15 173.915 115.356C173.503 115.562 173.091 115.768 172.679 115.975C172.679 115.562 172.679 115.15 172.679 114.738L172.628 114.764Z" fill="#947B5F"/>
<path d="M194.206 107.989C195.528 106.907 195.734 106.083 194.824 105.516C196.91 104.485 199.098 104.64 201.158 105.361C202.188 105.722 202.806 105.645 203.476 104.898C203.476 105.722 204.068 106.546 203.476 107.371C201.905 109.251 200.463 107.68 198.918 107.036C198.455 108.092 200.154 108.891 199.15 109.844C198.532 110.024 197.914 110.823 197.27 109.844C197.219 108.607 196.807 107.937 195.468 108.607C194.772 108.968 194.18 109.071 194.206 107.989Z" fill="#B39B79"/>
<path d="M159.032 104.897C159.444 104.897 159.856 104.897 160.268 104.923C161.555 105.464 162.843 106.005 164.233 105.155C165.495 105.541 167.864 104.331 167.349 107.293C166.293 108.272 164.542 108.246 163.976 110.075C163.641 111.132 162.096 111.441 160.911 111.698C156.431 112.883 156.045 112.497 157.203 108.015C157.281 107.886 157.332 107.783 157.384 107.654C158.233 106.907 158.053 105.541 159.057 104.897H159.032Z" fill="#B79F7C"/>
<path d="M160.885 111.673C161.555 110.127 165.005 110.617 163.795 107.68C164.876 107.577 165.984 107.448 167.065 107.345C167.4 106.881 167.709 106.366 168.327 106.263C172.086 106.263 169.099 108.401 169.357 109.509C169.589 110.076 170.129 110.462 170.335 111.029C170.387 111.287 170.335 111.518 170.129 111.699C169.511 111.905 168.893 112.111 168.275 112.317C165.881 110.926 163.769 112.858 161.477 112.935C161.477 112.42 161.349 111.956 160.859 111.699L160.885 111.673Z" fill="#AA9371"/>
<path d="M157.178 103.661C158.053 102.914 158.105 103.893 158.44 104.279C158.517 105.67 157.487 106.701 157.204 107.989C155.787 108.066 154.011 106.34 153.006 108.813C152.929 108.968 151.745 108.684 151.049 108.581C150.328 108.169 149.916 107.525 149.813 106.701C149.839 105.439 150.766 105.49 151.642 105.49C151.822 105.593 151.976 105.722 152.131 105.851C152.749 105.902 152.826 105.361 153.109 105.026C153.985 103.094 156.071 104.769 157.229 103.635L157.178 103.661Z" fill="#B79F7C"/>
<path d="M149.787 106.752C150.611 107.113 150.997 107.757 151.023 108.633C150.611 108.839 150.199 109.045 149.787 109.251C149.169 109.406 148.525 110.23 147.907 109.251C148.113 108.118 148.319 106.959 149.787 106.778V106.752Z" fill="#C9B28B"/>
<path d="M150.405 113.528C149.839 112.214 150.122 111.338 151.641 111.055C150.714 111.621 152.079 113.322 150.405 113.528Z" fill="#C2AA84"/>
<path d="M151.641 106.134C151.641 105.928 151.641 105.722 151.615 105.542C151.615 105.026 151.512 104.563 150.997 104.305C151.255 103.661 151.486 102.991 151.77 102.373C151.898 102.115 152.233 101.909 152.413 102.244C152.516 102.45 152.31 102.811 152.233 103.094C152.233 103.506 152.233 103.919 152.233 104.331C152.877 104.614 153.16 105.104 153.083 105.799C152.722 106.443 152.285 106.675 151.615 106.186L151.641 106.134Z" fill="#D3BC93"/>
<path d="M147.315 109.225C144.894 110.41 145.615 108.478 145.461 107.371C145.873 108.195 147.804 107.499 147.315 109.225Z" fill="#B69F7B"/>
<path d="M143.608 105.516C142.294 106.701 140.955 108.092 140.518 104.897C141.47 105.464 142.526 105.593 143.608 105.516Z" fill="#C3AC86"/>
<path d="M188.67 104.898C188.104 107.448 186.301 107.809 183.829 107.989C184.602 106.083 186.893 106.907 186.919 105.413C186.945 104.047 185.22 104.305 184.37 103.661C184.164 103.532 184.087 103.378 184.164 103.249C184.241 103.12 184.293 103.043 184.37 103.043C184.653 101.806 184.73 100.467 186.224 99.9515C186.842 100.389 188.722 98.8696 188.078 101.188C188.181 101.987 187.717 102.734 188.001 103.532C188.207 103.996 188.31 104.485 188.696 104.872L188.67 104.898Z" fill="#C2AA84"/>
<path d="M181.871 103.635C181.665 103.867 181.459 104.073 181.228 104.305C180.841 105.748 180.429 104.434 180.017 104.305C179.528 103.713 178.704 103.661 178.138 103.172C177.623 102.27 178.653 101.858 178.756 101.162C180.198 100.39 179.605 99.2046 179.374 98.0969C180.764 98.0711 182.077 97.8651 181.382 100.158C181.073 101.162 181.665 102.476 181.846 103.635H181.871Z" fill="#C9B38B"/>
<path d="M184.344 103.043C184.344 103.249 184.344 103.455 184.344 103.661C183.726 103.661 183.108 103.661 182.49 103.635C182.67 102.038 183.572 102.734 184.344 103.043V103.043Z" fill="#C9B38B"/>
<path d="M163.976 105.516C162.302 107.886 161.298 106.366 160.268 104.898C160.551 102.399 162.508 103.198 163.976 103.043C163.976 103.455 163.976 103.867 163.976 104.279C164.336 104.692 164.336 105.104 163.976 105.516V105.516Z" fill="#C5AE88"/>
<path d="M157.203 107.989C156.405 106.34 157.718 105.413 158.439 104.279C158.645 104.485 158.851 104.691 159.031 104.898C158.285 105.851 159.933 108.246 157.177 107.989H157.203Z" fill="#C1A984"/>
<path d="M152.877 105.516C152.671 105.104 152.465 104.692 152.259 104.279C153.804 103.301 155.529 103.764 157.177 103.661C156.945 104.28 157.177 105.619 155.864 104.743C154.602 103.893 154.036 104.563 153.469 105.516C153.263 105.825 153.083 105.799 152.877 105.516V105.516Z" fill="#CAB38B"/>
<path d="M158.619 100.081C159.52 100.75 160.138 101.214 160.808 101.729C160.447 101.987 160.267 102.219 160.164 102.167C159.314 101.884 158.645 101.446 158.619 100.081Z" fill="#C8B18A"/>
<path d="M167.065 103.043C167.735 99.8744 170.104 99.7714 172.627 99.9517C172.756 100.209 172.756 100.493 172.627 100.75C170.49 101.678 171.649 104.511 169.795 105.593C169.537 105.696 169.254 105.748 168.971 105.671C168.147 105.104 167.786 104.176 167.22 103.404C167.168 103.275 167.117 103.146 167.065 103.017V103.043Z" fill="#C1A983"/>
<path d="M163.976 105.516C163.976 105.104 163.976 104.692 163.976 104.279C165.443 104.949 165.907 103.12 167.066 103.043C167.787 103.764 168.173 104.666 168.559 105.593C168.739 106.031 168.636 106.418 168.302 106.753C167.89 106.959 167.478 107.165 167.066 107.371C167.143 104.924 164.954 106.263 163.976 105.542V105.516Z" fill="#C1A983"/>
<path d="M169.538 105.516C169.821 104.305 171.649 103.197 169.692 101.806C169.049 101.343 169.924 101.188 170.13 101.291C171.237 101.858 171.701 100.441 172.628 100.57C172.757 100.57 172.885 100.57 173.04 100.596C174.121 100.673 174.688 101.961 175.872 101.806C176.645 101.6 177.443 101.497 178.216 101.188C178.422 101.188 178.628 101.188 178.808 101.137C180.07 102.244 178.267 102.322 178.19 102.991C178.396 103.146 178.473 103.352 178.422 103.61C178.241 103.945 177.958 104.176 177.546 104.228C176.799 104.743 175.512 103.017 175.1 104.846C173.169 104.228 171.521 106.237 169.538 105.464V105.516Z" fill="#BAA27E"/>
<path d="M178.19 101.24C177.701 102.322 176.748 102.502 175.718 102.45C174.585 101.987 173.993 100.673 172.628 100.596C172.628 100.39 172.628 100.183 172.628 99.9773C172.731 99.9773 172.834 99.9773 172.937 99.9773C175.014 99.2389 176.774 99.6596 178.216 101.24H178.19Z" fill="#C6B089"/>
<path d="M192.377 107.989C191.965 107.989 191.553 107.989 191.167 107.989C188.566 106.881 190.472 105.155 190.549 103.661C191.502 102.528 191.656 100.828 193.021 99.9517C194.36 101.24 192.532 102.966 193.639 104.279C192.377 105.233 191.888 106.418 192.403 107.963L192.377 107.989Z" fill="#BDA681"/>
<path d="M187.433 103.713C186.378 102.553 187.433 101.935 188.051 101.214C189.828 100.931 189.493 102.038 189.287 103.069C188.747 103.532 188.257 104.151 187.408 103.713H187.433Z" fill="#DAC398"/>
<path d="M140.492 112.935C140.028 113.708 138.921 113.811 138.664 114.764C138.509 115.099 137.968 114.816 137.453 114.146C136.99 113.528 136.913 112.909 137.453 112.291C138.741 111.261 139.565 112.317 140.518 112.935H140.492Z" fill="#BAA27E"/>
<path d="M137.453 112.317C137.453 112.935 137.453 113.553 137.453 114.172C136.963 113.837 136.062 113.528 136.036 113.167C135.985 112.471 136.809 112.368 137.427 112.343L137.453 112.317Z" fill="#9F8769"/>
<path d="M178.189 114.146C177.159 112.677 175.64 114.146 174.481 113.527C174.481 113.321 174.481 113.089 174.481 112.883C174.481 111.904 174.996 111.879 175.692 112.265C177.262 112.317 178.885 112.085 180.043 113.527C179.425 113.733 178.807 113.939 178.189 114.146Z" fill="#9C8465"/>
<path d="M194.206 107.989C194.489 108.478 194.952 108.581 195.467 108.607C195.39 109.844 194.489 109.844 193.613 109.818C193.639 109.148 193.51 108.427 194.231 107.989H194.206Z" fill="#A48C6C"/>
<path d="M169.537 105.516C169.923 105.49 170.619 105.568 170.67 105.413C171.829 102.296 173.58 104.769 175.073 104.898C175.897 105.001 176.721 105.799 176.052 106.212C173.297 107.937 175.563 109.097 176.309 110.462C176.103 110.668 175.897 110.874 175.691 111.08C173.4 110.874 171.288 109.612 168.919 109.844C167.039 109.045 168.842 108.504 169.151 108.118C170.541 106.521 169.151 106.83 168.275 106.753C168.275 106.34 168.275 105.928 168.275 105.516C168.481 105.284 168.687 105.31 168.893 105.516C169.099 105.516 169.305 105.516 169.511 105.516H169.537Z" fill="#B29B78"/>
<path d="M177.52 104.279C177.726 104.047 177.932 103.841 178.112 103.609C178.936 104.279 179.786 103.352 180.61 103.661C180.764 103.919 180.301 104.769 181.228 104.331C182.927 104.434 183.159 105.207 182.155 106.469C180.97 107.963 179.116 107.886 177.751 107.473C176.103 106.958 178.035 105.361 177.494 104.305L177.52 104.279Z" fill="#CEB78F"/>
<path d="M187.434 103.713C188.052 103.507 188.67 103.275 189.313 103.069C189.107 103.687 188.901 104.305 188.67 104.898C187.871 104.898 187.485 104.486 187.434 103.713Z" fill="#C9B28B"/>
<path d="M184.962 109.818C184.55 109.818 184.164 109.818 183.752 109.844C183.34 109.509 183.056 109.019 183.7 108.762C184.576 108.427 184.91 109.019 184.962 109.792V109.818Z" fill="#BEA681"/>
<path d="M168.92 109.844C171.521 108.298 173.632 109.586 175.692 111.08C175.692 111.493 175.692 111.879 175.692 112.291C175.203 112.317 174.739 112.42 174.482 112.909C173.581 112.935 172.679 112.961 172.576 111.724C171.984 110.746 170.851 111.802 170.182 111.106C169.77 110.694 169.358 110.256 168.946 109.844H168.92Z" fill="#BDA681"/>
<path d="M170.156 111.106C171.005 111.106 172.113 110.127 172.55 111.724C171.752 111.389 170.928 112.342 170.13 111.724C170.13 111.518 170.13 111.312 170.13 111.132L170.156 111.106Z" fill="#A48C6C"/>
<path d="M152.878 105.516C153.084 105.516 153.29 105.516 153.47 105.516C153.367 106.572 152.775 107.113 151.745 106.959C151.307 106.907 151.152 106.469 151.642 106.134C152.157 106.134 152.594 106.006 152.878 105.516Z" fill="#C3AC86"/>
<path d="M180.635 103.661C179.786 104.176 178.91 106.263 178.138 103.61C178.138 103.429 178.138 103.223 178.163 103.043C179.013 103.146 179.992 102.76 180.635 103.661Z" fill="#D6C096"/>
<path d="M168.919 105.516C168.713 105.516 168.507 105.516 168.301 105.516C167.503 104.898 167.168 104.022 167.065 103.043C168.533 103.223 168.713 104.383 168.919 105.49V105.516Z" fill="#C8B18A"/>
<path d="M172.628 100.596C173.993 100.647 175.486 100.518 175.718 102.45C173.864 103.172 173.838 100.931 172.628 100.596Z" fill="#C1A983"/>
</g>
<defs>
<clipPath id="clip0_5484_43226">
<rect width="595" height="297" fill="white"/>
</clipPath>
</defs>
</svg>
