<svg width="595" height="297" viewBox="0 0 595 297" fill="none" xmlns="http://www.w3.org/2000/svg">
<g clip-path="url(#clip0_5484_43243)">
<rect width="595" height="297" fill="#4F77C2"/>
<path d="M159.005 220.203C158.799 216.519 158.541 212.835 158.413 209.151C158.361 207.657 157.666 207.194 156.301 207.245C154.962 207.297 153.623 207.245 152.284 207.245C139.641 207.065 127.023 206.884 114.38 206.73C112.964 206.73 111.548 206.73 110.106 206.987C106.887 207.554 103.179 204.308 103.694 201.191C104.466 196.477 103.436 191.66 104.312 187.074C105.265 182.128 102.844 179.707 99.3937 177.131C92.8275 172.21 87.9865 165.976 86.0552 157.759C83.8922 148.536 91.643 140.86 100.836 143.152C102.278 143.513 103.642 145.162 105.368 143.771C106.629 142.74 107.917 143.513 109.204 143.693C125.375 145.986 141.186 145.625 155.992 137.588C160.344 135.218 163.794 131.921 166.524 127.876C168.687 124.63 169.15 121.075 168.069 117.263C167.502 115.254 166.395 114.455 164.335 114.378C162.147 114.275 159.803 115.15 157.82 113.476C158.49 112.858 159.365 112.961 160.164 112.987C168.996 113.27 177.802 112.626 186.635 112.24C200.668 111.621 214.676 110.771 228.736 110.385C235.894 110.179 243.053 109.457 250.211 109.329C254.203 109.251 258.143 108.607 262.16 108.788C266.846 109.019 268.932 110.591 268.88 115.382C268.777 123.471 268.494 131.586 268.34 139.675C268.082 153.611 268.133 167.574 267.541 181.51C267.258 188.182 267.31 194.828 267.052 201.5C266.872 206.601 264.889 208.713 259.791 208.456C244.083 207.631 228.375 208.121 212.668 207.966C209.346 209.615 205.844 208.816 202.445 208.61C200.102 208.456 197.759 208.121 195.39 208.25C187.175 208.636 179.038 207.322 170.824 207.606C166.369 207.76 165.88 208.456 167.889 212.5C170.206 217.163 172.241 222.006 175.923 225.87C176.361 226.308 176.618 226.875 176.669 227.519C176.618 228.343 176.077 228.729 175.356 228.961C171.416 229.245 167.786 228.034 164.206 226.54C162.687 225.69 161.219 224.762 159.855 223.655C158.953 222.676 158.052 221.697 159.031 220.254L159.005 220.203Z" fill="#F3CDB1"/>
<path d="M364.671 207.271C357.461 201.114 351.333 194.081 346.904 185.58C333.205 159.201 337.788 124.398 357.847 103.326C358.182 102.966 358.594 102.656 358.98 102.321C360.319 102.734 361.71 102.167 363.075 102.476C363.924 103.481 365.109 101.574 365.933 102.811C366.216 103.12 366.165 104.073 366.989 103.326C369.512 105.439 372.808 103.841 375.666 104.949C376.568 105.31 378.731 103.532 380.533 104.614C380.842 104.898 380.945 105.232 380.919 105.645C380.919 105.876 380.559 106.108 380.636 106.134C380.919 106.211 381.1 105.902 381.357 105.748C381.743 105.593 382.13 105.516 382.542 105.542C384.009 106.134 385.194 107.293 386.765 107.705C387.589 107.886 388.155 107.345 388.799 106.984C389.314 106.778 389.855 106.778 390.395 106.83C393.202 106.727 396.035 106.52 398.404 108.401C399.15 108.994 398.867 108.169 399.022 108.04C399.665 107.499 400.721 107.345 400.876 107.963C401.571 110.694 403.528 109.354 405.021 109.406C406.103 110.075 407.056 109.638 407.957 108.994C408.652 108.89 409.296 109.122 409.914 109.38C410.146 109.483 410.326 109.663 410.506 109.844C410.789 110.179 411.098 110.513 411.613 110.513C411.845 110.462 412.077 110.436 412.309 110.385C413.158 110.307 413.802 109.406 414.755 109.741C415.605 110.204 415.811 112.214 417.459 110.9C417.742 110.797 418.025 110.797 418.308 110.848C418.849 111.132 419.184 111.595 419.467 112.111C420.034 113.167 420.703 114.532 422.016 114.223C423.484 113.914 423.175 112.085 423.793 111.003C423.999 110.488 424.282 109.998 424.591 109.534C425.364 108.427 425.879 107.165 426.471 105.954C427.166 104.64 428.119 103.455 428.737 102.09C429.175 101.214 429.664 100.364 430.179 99.5393C431.673 97.7103 431.724 94.8251 434.299 93.7432C435.896 94.516 437.235 95.6752 438.522 96.8602C436.823 100.492 434.685 103.893 432.857 107.448C431.364 109.534 430.359 111.879 429.226 114.146C428.969 114.944 428.042 115.82 429.175 116.516C430.025 117.031 430.308 116.026 430.771 115.588C432.188 113.115 433.501 110.591 434.917 108.118C436.668 104.872 438.162 101.471 440.531 98.6119C441.921 99.6939 443.209 100.879 444.213 102.347C444.496 105.387 442.024 107.216 441.046 109.715C440.582 110.539 440.144 111.389 439.732 112.239C439.501 112.703 439.243 113.167 438.986 113.63C438.548 114.274 438.136 114.944 437.878 115.691C437.672 116.207 437.363 116.644 437.054 117.082C436.127 118.422 435.896 119.195 437.775 120.328C440.222 121.822 442.745 122.982 445.372 124.038C446.273 124.501 447.2 124.115 448.127 124.141C451.217 125.944 454.255 127.799 457.165 129.86C457.165 131.457 458.324 130.169 458.839 130.529C459.071 130.684 459.199 130.916 459.251 131.199C459.251 131.586 459.457 131.946 459.586 132.307C459.792 133.028 460.049 132.848 460.384 132.41C460.873 132.358 461.388 132.384 461.852 132.23C468.881 129.86 475.216 134.059 474.907 141.529C474.521 150.803 470.169 158.351 462.959 164.199C461.697 165.203 460.899 166.208 460.487 167.805C456.753 182.849 449.208 195.601 437.106 205.493C436.565 205.931 436.076 206.472 435.587 206.962C433.964 209.821 431.003 211.135 428.299 212.191C423.716 213.994 422.789 217.085 423.433 221.336C423.561 222.135 423.639 222.959 423.613 223.783C423.536 224.762 423.407 225.741 423.33 226.694C422.918 228.601 422.789 230.533 422.815 232.49C422.84 234.551 421.991 236.097 420.085 236.87C416.351 238.364 412.824 240.682 408.523 239.987C408.06 238.518 409.244 237.746 409.965 236.844C413.751 232.001 416.403 226.668 417.278 220.512C417.793 216.828 417.201 216.313 413.622 217.008C403.579 218.94 393.537 219.481 383.469 217.343C376.568 215.205 369.924 212.577 364.697 207.271H364.671Z" fill="#554336"/>
<path d="M164 225.69C167.58 226.798 171.107 228.189 174.944 228.317C175.202 228.42 175.408 228.601 175.562 228.833C177.777 230.687 180.558 231.512 183.004 232.903C184.163 233.547 185.424 234.036 185.708 235.582C185.965 246.17 186.248 256.757 185.656 267.293C185.167 275.923 185.476 284.502 185.193 293.106C185.141 294.522 185.45 296.017 184.317 297.202C170.747 297.227 157.177 297.279 143.606 297.305C127.976 297.305 112.346 297.279 96.7156 297.356C94.7328 297.356 94.1148 296.892 94.2178 294.832C95.0933 275.357 95.8401 255.856 96.6383 236.381C97.5911 235.247 98.9816 235.144 100.269 234.964C120.097 231.898 139.924 228.652 159.752 225.561C161.168 225.329 162.584 225.175 164 225.69V225.69Z" fill="#2B2B64"/>
<path d="M408.419 239.884C412.05 239.188 415.501 237.978 418.925 236.587C421.217 235.659 422.402 234.345 422.041 231.718C421.784 229.889 422.015 228.034 422.685 226.257C423.895 225.303 425.234 225.69 426.522 225.973C443.027 229.399 459.559 232.8 476.09 236.123C477.326 236.381 478.434 236.844 479.489 237.54C487.549 249.647 492.184 263.249 496.639 276.928C498.544 282.75 499.909 288.701 501.325 294.677C501.892 297.047 501.3 297.382 499.137 297.382C470.554 297.33 441.946 297.356 413.363 297.33C409.655 297.33 405.973 297.279 402.265 297.227C401.544 296.506 401.544 295.604 401.596 294.651C402.059 287.85 402.239 280.998 402.729 274.197C403.45 264.202 402.857 254.181 403.347 244.212C403.939 241.79 406.128 241.095 407.93 239.961C408.085 239.936 408.239 239.91 408.419 239.884V239.884Z" fill="#2B2B64"/>
<path d="M270.066 239.935C271.328 251.862 272.59 263.815 273.826 275.743C274.495 282.183 275.036 288.623 275.757 295.037C275.937 296.738 275.731 297.356 273.826 297.356C244.419 297.279 214.987 297.253 185.58 297.227C184.679 296.171 184.988 294.883 184.962 293.698C184.705 280.508 185.117 267.319 185.374 254.129C185.503 247.895 185.168 241.661 185.786 235.453C186.816 234.139 188.052 234.938 189.16 235.221C208.318 240.322 227.785 242.975 247.664 242.125C253.818 241.867 259.869 240.502 265.946 239.575C267.337 239.369 268.779 238.879 270.066 239.961V239.935Z" fill="#2B2B64"/>
<path d="M400.798 297.253C371.52 297.253 342.268 297.253 312.99 297.382C310.801 297.382 310.698 296.531 310.904 294.908C312.964 277.932 316.853 261.42 323.367 245.551C324.063 245.293 324.784 245.293 325.505 245.448C338.457 248.127 351.589 248.462 364.748 248.307C375.691 248.179 386.429 246.478 397.064 244.005C397.553 243.877 398.068 243.748 398.557 243.645C402.343 242.795 402.935 243.232 403.115 247.019C403.115 247.431 403.115 247.844 403.141 248.256C403.501 263.171 402.703 278.061 401.853 292.951C401.776 294.393 402.111 296.068 400.798 297.253V297.253Z" fill="#2B2B64"/>
<path d="M157.795 113.45C160.164 113.45 162.533 113.631 164.877 113.399C167.246 113.141 168.198 114.249 168.791 116.258C170.516 122.029 168.945 126.975 165.083 131.354C158.362 138.979 149.401 142.405 139.822 144.337C128.312 146.656 116.801 146.424 105.343 143.771C104.776 140.499 104.956 137.202 105.265 133.93C105.368 129.937 105.394 125.918 105.574 121.925C105.832 116.928 107.531 115.691 112.527 115.485C127.616 114.919 142.706 114.146 157.795 113.476V113.45Z" fill="#DAA600"/>
<path d="M402.342 248.153C402.111 243.799 402.085 243.722 397.656 244.881C381.047 249.183 364.129 249.93 347.16 249.08C339.203 248.668 331.041 248.462 323.367 245.577C324.68 242.692 325.994 239.806 327.333 236.896C328.337 236.123 329.496 235.788 330.732 235.556C346.8 232.645 362.816 229.476 378.884 226.54C380.094 226.308 381.305 226.102 382.541 226.308C384.034 226.617 384.42 227.725 384.549 229.039C384.652 230.172 384.601 231.305 384.652 232.413C384.781 235.942 385.734 237.282 389.107 238.132C392.506 238.956 395.905 239.781 399.433 239.729C400.746 239.729 402.136 239.6 403.192 240.682C403.45 243.233 404.48 245.886 402.368 248.153H402.342Z" fill="#24234A"/>
<path d="M176.388 227.648C171.624 223.036 169.101 217.06 166.32 211.238C164.62 207.683 165.393 206.524 169.307 206.627C183.752 207.013 198.198 207.477 212.618 207.889C212.695 210.723 212.773 213.531 212.901 216.364C212.953 217.73 212.773 219.25 214.343 220.048C214.215 221.336 213.88 222.573 213.262 223.732C212.541 224.968 211.408 225.716 210.249 226.463C207.082 228.137 203.631 228.858 200.155 229.477C199.151 229.708 198.121 229.657 197.117 229.786C193.615 230.378 190.087 230.481 186.559 230.327C186.044 230.327 185.529 230.327 185.014 230.327C182.645 230.301 180.353 229.76 178.036 229.425C177.135 229.142 176.671 228.472 176.414 227.622L176.388 227.648Z" fill="#C69065"/>
<path d="M186.223 229.528C189.931 229.399 193.639 229.245 197.347 229.116C198.351 228.961 199.432 229.708 200.359 228.807C203.733 227.828 207.235 227.338 210.376 225.638C212.101 225.02 213.852 225.432 215.552 225.741C232.058 228.704 248.615 231.331 265.095 234.319C266.64 234.603 268.468 234.319 269.575 235.917C270.245 237.205 270.116 238.57 270.039 239.935C263.833 240.45 257.782 241.996 251.576 242.614C243.697 243.439 235.766 243.361 227.938 242.846C217.483 242.176 207.106 240.373 196.832 238.08C193.252 237.282 189.647 236.509 186.248 235.041C184.858 233.212 184.961 231.383 186.171 229.502L186.223 229.528Z" fill="#24234A"/>
<path d="M364.671 207.271C370.208 210.851 375.873 214.2 382.156 216.364C382.439 216.467 382.748 216.493 383.057 216.544C384.55 218.837 384.087 221.413 384.035 223.912C383.34 225.148 382.079 225.277 380.868 225.509C364.62 228.6 348.346 231.614 332.123 234.706C330.862 234.938 329.497 235.504 328.312 234.397C329.832 229.45 332.355 225.741 338.303 226.102C339.205 226.153 340.132 225.818 341.033 225.715C343.196 225.458 344.664 225.045 344.38 222.057C344.071 218.631 346.441 216.209 349.041 214.2C353.676 210.594 359.238 209.1 364.671 207.271V207.271Z" fill="#24234A"/>
<path d="M423.174 223.809C421.861 220.975 422.839 218.013 422.633 215.102C422.556 214.175 423.406 213.943 423.998 213.685C428.092 211.882 431.749 209.28 435.586 206.987C442.718 208.533 449.697 210.517 455.799 214.664C459.739 217.343 463.035 220.537 461.748 225.999C461.413 227.467 462.649 227.158 463.241 227.287C465.327 227.75 467.464 228.343 469.576 228.369C474.185 228.446 476.348 231.331 478.022 234.989C477.095 235.788 476.039 235.427 475.086 235.221C458.658 231.924 442.229 228.601 425.826 225.123C424.848 224.917 423.766 224.762 423.148 223.783L423.174 223.809Z" fill="#2B2B64"/>
<path d="M434.351 93.7946C433.115 95.8554 431.879 97.9163 430.643 99.9772C427.939 99.5135 424.927 99.8741 423.227 96.9374C422.558 96.8344 422.377 97.3753 422.146 97.7875C421.708 98.5346 421.244 99.2043 420.24 98.9725C419.262 98.7406 418.515 98.1481 418.489 97.092C418.386 94.3098 416.661 93.64 414.318 93.8461C411.15 94.1037 408.395 92.352 405.331 92.0429C404.172 91.9398 403.116 91.7852 402.061 92.352C400.284 93.3309 398.25 93.3051 396.756 92.2232C393.022 89.5183 388.799 90.0078 384.654 89.8017C383.083 89.7244 381.229 89.9047 381.203 87.4832C400.026 80.296 417.742 82.4856 434.377 93.7946H434.351Z" fill="#060707"/>
<path d="M159.006 220.203C158.981 221.413 159.65 222.315 160.268 223.242C159.418 224.479 158.028 224.608 156.74 224.814C138.02 227.802 119.326 230.765 100.605 233.65C99.2921 233.856 97.9531 234.216 96.7944 233.212C96.2021 228.704 96.1764 228.601 100.837 227.982C120.227 225.355 139.617 222.804 159.032 220.203H159.006Z" fill="#2C2C64"/>
<path d="M381.176 87.4832C382.051 89.0288 383.39 88.797 384.961 88.9773C388.36 89.3895 392.017 88.256 395.184 90.5229C397.501 92.1974 399.767 92.996 402.729 91.1154C404.428 90.0335 406.926 91.5534 408.96 92.0171C411.02 92.4807 412.874 93.3824 415.14 92.9444C417.252 92.5323 419.131 94.4386 419.028 96.6797C418.977 97.5814 419.363 98.0193 420.058 98.3284C421.114 98.7921 421.294 98.1223 421.397 97.3238C421.552 96.0872 422.402 95.4175 423.483 95.4432C424.565 95.469 424.41 96.5767 424.487 97.3753C424.513 97.7617 424.487 98.483 424.977 98.3027C427.32 97.4783 428.633 99.8741 430.642 99.9514C430.23 100.776 429.818 101.6 429.38 102.399C427.449 103.79 425.517 103.558 423.792 102.141C422.633 101.188 421.809 100.905 420.831 102.321C419.209 104.588 417.277 104.228 415.295 102.759C414.831 102.244 415.32 101.445 414.754 100.982C413.003 97.195 411.561 96.3964 407.621 96.3191C405.716 96.2933 403.887 95.6493 401.905 96.2676C400.9 96.5767 400.385 95.1341 399.51 94.5416C399.51 96.1388 398.48 97.0919 397.63 98.1739C397.398 98.38 397.167 98.5603 396.909 98.7148C396.343 99.024 395.75 99.2043 395.107 99.1785C393.922 98.9724 393.587 98.1996 393.793 97.1177C394.18 95.7008 395.802 95.8812 396.652 94.9538C395.982 95.0053 395.338 95.5978 394.849 95.1341C392.274 92.9187 388.643 94.5416 385.965 92.6353C385.373 92.2231 384.06 91.7594 383.802 93.6142C383.545 95.4432 381.82 95.2629 381.073 94.3098C379.013 91.6564 377.107 92.6096 375.022 94.0779C374.584 94.2582 374.12 94.3098 373.631 94.284C372.653 93.9233 371.236 94.0522 371.314 92.3777C374.275 90.085 377.674 88.6166 381.176 87.4316V87.4832Z" fill="#13110F"/>
<path d="M212.797 223.191C213.595 222.289 212.642 220.512 214.368 220.048C230.693 222.366 246.993 224.711 263.318 227.029C265.044 227.982 267.078 228.059 268.855 228.832C269.473 230.069 269.55 231.408 269.447 232.748C268.237 233.65 266.898 233.34 265.584 233.109C249.079 230.326 232.573 227.415 216.067 224.659C214.857 224.453 213.621 224.273 212.797 223.165V223.191Z" fill="#24234A"/>
<path d="M96.7674 233.212C105.548 231.898 114.329 230.61 123.084 229.245C134.362 227.493 145.667 225.69 156.945 223.912C158.052 223.732 159.16 223.474 160.241 223.268C161.477 224.092 162.739 224.891 163.975 225.715C153.984 227.364 143.993 229.064 133.976 230.687C122.363 232.568 110.724 234.371 99.0849 236.2C98.2867 236.329 97.4369 236.355 96.6387 236.432C96.6902 235.376 96.7159 234.294 96.7674 233.237V233.212Z" fill="#E5B900"/>
<path d="M212.797 223.191C228.067 225.793 243.311 228.42 258.581 230.996C262.186 231.615 265.816 232.156 269.447 232.748C269.499 233.804 269.55 234.86 269.627 235.917C250.675 232.722 231.723 229.528 212.771 226.308C211.973 226.179 211.201 225.87 210.402 225.638C211.226 224.839 212.359 224.324 212.797 223.165V223.191Z" fill="#E5B900"/>
<path d="M423.174 223.809C435.998 226.411 448.821 228.987 461.645 231.589C467.129 232.697 472.588 233.856 478.047 235.015C478.537 235.865 479 236.715 479.489 237.565C471.507 235.994 463.55 234.448 455.568 232.877C444.598 230.713 433.629 228.498 422.685 226.308C422.685 225.432 422.144 224.479 423.174 223.835V223.809Z" fill="#E5B800"/>
<path d="M328.312 234.397C338.844 232.439 349.35 230.507 359.882 228.549C367.787 227.081 375.718 225.561 383.623 224.067C384.988 225.716 383.984 226.437 382.49 226.952C373.787 228.523 365.109 230.172 356.406 231.666C346.698 233.341 337.119 235.633 327.334 236.87C327.669 236.046 328.003 235.196 328.312 234.371V234.397Z" fill="#E5B800"/>
<path d="M365.805 103.069C364.981 102.27 364.157 103.867 363.358 103.069C363.539 101.626 361.994 100.75 362.097 99.3077C362.38 98.7668 362.715 98.3031 363.333 98.097C366.397 98.2 369.049 96.8347 371.701 95.5724C371.959 95.4179 372.217 95.3406 372.5 95.2891C372.706 95.2891 372.963 95.2891 373.092 95.3921C374.869 97.3242 376.646 99.2304 379.375 96.6801C379.53 96.5513 379.941 96.7317 380.25 96.8347C380.534 96.912 380.791 96.9893 381.049 97.0923C383.109 97.5302 385.22 97.0923 387.306 97.2469C387.898 97.5302 388.336 98.0197 388.104 98.638C387.538 100.209 388.671 99.5911 389.289 99.6426C391.143 100.312 389.521 101.703 389.958 102.682C390.061 103.532 390.834 104.537 389.469 105.078C389.134 105.001 388.903 104.666 388.594 104.563C388.645 104.898 389.005 105.001 389.134 105.31C389.546 106.057 390.782 106.237 390.576 107.397C389.958 107.397 389.34 107.397 388.722 107.397C388.49 107.603 388.233 107.628 387.95 107.474C385.864 106.34 384.19 104.795 383.031 102.708C382.774 102.708 382.516 102.657 382.31 102.502C381.538 102.373 381.049 100.003 379.993 102.219C379.298 104.228 378.165 104.769 376.8 102.914C376.028 101.858 375.203 101.549 373.993 101.549C373.195 101.549 372.937 101.446 372.783 102.528C372.422 105.027 371.933 104.924 369.59 103.558C368.843 103.12 369.075 101.008 367.401 102.116C366.706 102.141 366.242 102.579 365.882 103.12L365.805 103.069Z" fill="#3D3027"/>
<path d="M438.651 113.502C438.677 113.012 438.78 112.548 439.269 112.291C440.145 111.698 440.042 110.616 440.505 109.818C441.226 107.061 443.312 105.001 444.239 102.347C447.844 105.696 450.728 109.586 452.917 113.991C452.865 115.562 451.423 115.382 450.548 115.691C449.595 116.026 448.565 116.103 447.793 116.85C446.891 117.031 446.402 116.619 446.325 115.717C446.402 114.867 447.123 114.3 447.278 113.321C446.891 114.12 446.66 114.841 445.861 115.073C444.522 114.944 443.286 115.382 441.999 115.691C440.402 116.078 438.368 116.284 438.626 113.476L438.651 113.502Z" fill="#191513"/>
<path d="M402.344 248.153C403.116 245.68 402.73 243.13 402.73 240.605C403.348 239.729 403.966 239.549 404.558 240.631C404.893 241.481 404.558 242.254 404.224 243.001C404.172 245.654 404.043 248.308 404.095 250.987C404.43 264.692 403.194 278.37 402.807 292.049C402.756 293.775 402.421 295.476 402.241 297.202C401.752 297.202 401.262 297.202 400.799 297.227C401.88 280.869 402.524 264.511 402.344 248.127V248.153Z" fill="#E4B800"/>
<path d="M457.191 130.195C453.74 128.933 450.779 126.897 447.921 124.656C447.921 123.162 446.608 123.729 445.861 123.368C445.372 122.827 445.397 121.926 444.161 121.977C438.78 122.132 438.754 122.054 436.797 116.645C437.003 116.233 437.209 115.82 437.415 115.408C438.986 116.31 442.359 114.326 442.024 118.293C443.286 118.19 444.702 118.628 445.784 118.19C448.616 117.083 449.646 118.834 450.779 120.741C452.041 122.879 453.509 124.759 456.315 124.734C457.912 125.403 457.835 127.284 458.916 128.34C459.74 129.216 459.817 130.298 459.689 131.406C459.457 131.56 459.225 131.586 458.993 131.406C458.993 131.2 458.993 130.993 458.993 130.813C458.556 130.092 457.706 130.53 457.139 130.195H457.191Z" fill="#3C3027"/>
<path d="M186.223 229.528C186.249 231.383 186.275 233.212 186.3 235.067C185.631 255.778 185.425 276.516 185.579 297.227C185.167 297.227 184.755 297.227 184.343 297.227C184.034 277.417 185.373 257.633 184.961 237.797C184.961 236.664 184.884 235.556 184.858 234.423C183.828 232.774 183.777 231.125 184.936 229.502C185.348 229.502 185.785 229.502 186.197 229.502L186.223 229.528Z" fill="#E4B700"/>
<path d="M432.471 107.345C434.196 103.687 435.612 99.8226 438.599 96.9116C439.423 97.298 440.093 97.8648 440.582 98.6376C439.629 102.321 437.003 105.155 435.561 108.581C433.217 109.998 432.857 109.869 432.471 107.345V107.345Z" fill="#171311"/>
<path d="M458.941 128.314C457.705 127.619 456.984 126.563 456.572 125.249C455.104 124.837 453.405 124.682 453.817 122.415C453.868 122.157 453.662 121.745 453.43 121.617C451.164 120.432 450.006 118.01 447.92 116.619C448.023 116.001 447.817 114.764 448.692 115.073C450.469 115.692 451.473 114.197 452.915 114.017C455.825 118.396 458.014 123.085 458.915 128.314H458.941Z" fill="#241E1A"/>
<path d="M372.009 95.6496C369.46 97.6074 366.911 99.6167 363.357 98.0969C364.413 96.8603 365.701 95.9329 367.091 95.1344C368.688 95.7011 370.516 94.207 372.009 95.6753V95.6496Z" fill="#2E251F"/>
<path d="M372.01 95.6498C370.439 94.9285 368.508 97.2212 367.092 95.1088C368.354 93.9753 369.744 93.0222 371.341 92.4297C371.907 93.4086 373.092 93.2025 373.864 93.795C374.276 95.4437 372.654 95.0573 372.01 95.6498Z" fill="#221C19"/>
<path d="M362.096 99.3076C362.482 100.57 365.907 100.827 363.358 103.069C362.019 102.219 360.062 104.872 358.98 102.322C359.83 101.137 360.886 100.132 362.096 99.3076V99.3076Z" fill="#4B3B30"/>
<path d="M268.855 228.833C266.614 229.399 264.812 228.704 263.318 227.029C265.301 227.235 267.593 226.437 268.855 228.833Z" fill="#3E376C"/>
<path d="M105.266 133.904C105.266 137.176 105.318 140.473 105.343 143.745C104.288 140.473 104.545 137.176 105.266 133.904Z" fill="#F3CDB1"/>
<path d="M459.019 131.405C459.25 131.405 459.482 131.405 459.714 131.405C460.28 131.534 460.383 131.972 460.383 132.436C460.28 133.054 460.847 134.316 460.049 134.11C459.25 133.904 458.401 132.668 458.993 131.405H459.019Z" fill="#302720"/>
<path d="M483.662 36.4259C483.739 37.1987 483.378 37.5593 482.838 37.6882C482.117 37.8427 481.602 37.4305 481.55 36.735C481.524 36.2198 481.911 35.8076 482.554 35.8076C483.121 35.8076 483.507 36.0395 483.662 36.4516V36.4259Z" fill="#3E9D63"/>
<path d="M215.655 142.483C224.41 140.989 232.753 142.251 240.015 147.454C249.13 153.946 247.199 165.075 236.229 170.407C229.174 173.833 221.732 174.684 214.007 173.911C213.389 173.344 212.926 172.674 212.745 171.85C210.788 162.885 210.557 153.972 213.724 145.188C214.11 144.08 214.728 143.178 215.655 142.483V142.483Z" fill="#0065AE"/>
<path d="M160.834 193.772C152.645 193.206 146.362 189.728 142.989 181.948C139.719 174.4 141.29 167.548 146.337 161.34C148.242 158.995 150.997 158.557 152.826 160.155C154.628 161.726 154.499 163.967 152.414 166.698C148.062 172.468 148.397 178.058 153.392 182.85C158.336 187.564 167.014 186.302 170.387 180.351C171.005 179.269 171.417 178.11 172.061 177.054C173.168 175.25 174.713 174.117 176.953 174.941C179.297 175.843 179.786 177.852 179.348 180.016C178.55 183.932 176.026 186.817 173.065 189.264C169.563 192.124 165.598 193.927 160.885 193.772H160.834Z" fill="#DD859F"/>
<path d="M215.655 142.482C211.2 152.761 211.612 163.271 214.033 173.911C209.887 173.576 205.947 172.391 202.342 170.484C191.605 164.817 191.038 153.791 201.235 147.171C205.561 144.363 210.402 142.585 215.681 142.482H215.655Z" fill="#EEEDEC"/>
<path d="M217.123 129.138C222.994 129.499 228.659 129.602 234.066 131.431C235.431 131.895 236.77 132.436 238.058 133.028C239.474 133.698 241.173 134.548 240.324 136.403C239.345 138.515 237.646 137.433 236.126 136.738C227.912 133.003 219.209 132.822 210.454 133.544C207.389 133.801 204.351 134.394 201.415 135.321C198.737 136.171 196.188 137.202 194.386 139.52C193.639 140.499 192.635 141.091 191.45 140.267C190.137 139.365 190.472 138.18 191.115 136.995C192.12 135.192 193.793 134.188 195.519 133.26C199.742 130.967 204.402 130.143 209.089 129.551C211.844 129.216 214.625 129.216 217.149 129.087L217.123 129.138Z" fill="#DAA600"/>
<path d="M104.056 161.623C104.056 162.859 104.056 164.07 104.056 165.307C104.056 166.002 104.133 166.826 103.232 167.084C102.485 167.316 101.79 167.058 101.275 166.517C98.1594 163.323 96.3827 159.485 96.1767 155.054C96.0737 153.122 97.1552 151.55 99.1637 151.396C101.352 151.241 102.769 152.658 103.464 154.642C104.262 156.909 104.03 159.279 104.056 161.649V161.623Z" fill="#C79065"/>
<path d="M158.697 172.417C157.745 172.829 157.101 172.855 156.457 172.417C157.101 171.953 157.745 172.03 158.697 172.417Z" fill="#E5BDA2"/>
<path d="M176.387 227.647C176.774 228.034 177.16 228.395 177.546 228.781C176.774 229.58 175.975 229.58 175.203 228.781C175.126 228.626 175.048 228.498 174.945 228.343C175.435 228.111 175.898 227.879 176.387 227.647V227.647Z" fill="#CBA795"/>
<path d="M381.28 172.7C375.846 175.379 370.207 174.786 364.542 173.653C360.86 172.906 357.538 171.437 354.654 168.964C348.011 163.297 347.367 155.157 353.161 148.665C358.697 142.482 366.036 140.241 373.967 139.443C374.713 139.365 375.537 139.803 376.31 139.984C377.829 139.932 378.37 141.194 379.039 142.148C384.73 150.236 386.378 159.098 383.829 168.681C383.417 170.278 382.876 171.85 381.228 172.674L381.28 172.7Z" fill="#050606"/>
<path d="M404.171 240.553C403.681 240.038 403.218 240.425 402.729 240.605C397.707 240.888 392.789 240.141 387.948 238.802C384.961 237.977 383.725 236.123 383.622 232.98C383.571 230.97 385.013 228.497 382.438 226.952C383.854 226.385 383.622 225.2 383.571 224.067C382.875 221.594 383.159 219.069 383.004 216.544C387.665 217.24 392.274 217.91 397.038 217.832C403.218 217.729 409.321 217.291 415.269 215.746C417.664 215.128 418.307 215.875 418.256 218.013C418.024 225.741 414.831 232.233 409.99 238.055C409.475 238.673 408.909 239.291 408.368 239.884V239.987C407.003 240.605 405.638 241.172 404.119 240.553H404.171Z" fill="#3C2E25"/>
<path d="M394.284 184.112C394.207 189.96 396.602 194.519 401.906 197.095C407.211 199.672 412.335 198.847 416.764 194.932C421.09 191.093 422.352 186.276 420.652 180.712C419.622 177.389 420.472 175.122 422.996 174.375C425.468 173.627 427.553 175.122 428.455 178.393C430.875 187.332 428.841 195.215 421.811 201.243C414.859 207.194 406.799 208.173 398.533 204.205C390.139 200.161 386.122 193.206 386.225 183.906C386.225 183.004 386.379 182.051 386.611 181.175C387.177 179.063 388.516 177.672 390.808 177.929C393.074 178.187 394.13 179.758 394.284 181.948C394.336 182.669 394.284 183.391 394.284 184.112V184.112Z" fill="#DF98B0"/>
<path d="M392.403 133.904C391.656 133.956 390.807 133.621 389.931 133.286C379.451 129.422 369.254 130.22 359.469 135.501C355.89 137.433 353.109 137.253 351.383 134.471C349.684 131.74 350.714 128.391 354.164 126.511C366.396 119.839 379.193 118.551 392.455 122.904C393.897 123.368 395.313 124.064 396.394 125.249C397.914 126.923 398.429 128.804 397.527 130.916C396.626 133.054 394.875 133.956 392.403 133.878V133.904Z" fill="#050606"/>
<path d="M381.28 172.7C386.456 161.855 384.756 151.756 378.061 142.173C377.546 141.426 376.902 140.757 376.336 140.035C381.151 139.082 385.529 140.654 389.649 142.792C399.974 148.15 401.494 158.815 393.073 166.775C389.777 169.892 386.044 172.416 381.28 172.7Z" fill="#F8F3F0"/>
<path d="M462.135 154.41C462.135 149.85 462.058 145.29 462.161 140.731C462.212 138.773 463.86 138.335 465.431 138.232C467.182 138.129 468.367 139.005 468.804 140.705C469.165 142.147 468.65 143.513 468.238 144.878C467.156 148.536 465.096 151.627 462.908 154.667C462.65 154.59 462.393 154.487 462.109 154.41H462.135Z" fill="#3C2E25"/>
<path d="M389.289 104.898C390.396 104.073 389.057 103.249 389.289 102.451C391.452 101.961 393.692 101.034 395.675 102.785C397.142 104.073 398.61 102.167 400.026 102.966C402.267 103.017 403.065 105.31 404.893 106.057C406.824 106.881 407.108 108.066 405.691 109.612C405.588 109.689 405.46 109.767 405.331 109.844C404.121 109.561 403.142 111.106 401.726 110.256C401.211 109.947 400.619 110.23 400.902 109.303C401.056 108.788 400.953 108.221 400.31 108.118C399.46 107.989 399.357 108.453 399.434 109.226C399.511 110.05 398.79 110.488 398.481 109.612C397.838 107.628 395.803 108.839 395.494 108.453C394.001 106.624 392.07 108.041 390.55 107.371C390.138 106.547 388.593 106.881 388.696 105.542C388.877 105.31 388.928 104.949 389.314 104.924L389.289 104.898Z" fill="#4D3D31"/>
<path d="M447.922 116.619C449.261 116.413 451.218 115.254 450.445 118.319C450.162 119.478 451.243 119.041 451.784 119.324C453.432 120.2 455.338 121.076 454.668 123.549C454.153 125.481 456.883 123.677 456.574 125.275C453.793 125.893 452.196 124.09 450.754 122.209C449.415 120.483 449.441 117.186 445.475 119.118C444.574 119.556 442.463 119.169 440.634 120.689C441.046 118.809 441.664 117.546 441.124 115.949C439.604 117.546 438.42 116.902 437.441 115.382C437.441 114.507 437.853 113.888 438.652 113.502C439.373 115.511 441.072 116.104 442.411 114.79C443.93 113.322 444.857 114.301 446.068 114.764C446.634 114.61 446.917 114.764 446.686 115.382C446.686 116.181 447.098 116.593 447.922 116.619Z" fill="#2C231D"/>
<path d="M415.218 102.424C417.509 103.352 419.647 104.047 420.908 100.853C421.32 99.8226 422.762 99.4877 423.432 100.647C424.925 103.249 427.191 102.502 429.38 102.399C428.814 103.79 427.99 105.026 426.96 106.134C422.428 108.555 415.424 107.37 413.055 103.764C413.261 102.502 414.136 102.296 415.218 102.399V102.424Z" fill="#2A221C"/>
<path d="M413.364 103.661C414.342 105.413 416.299 105.31 417.819 106.082C420.883 107.654 423.921 105.954 426.96 106.16C426.677 107.551 426.11 108.813 425.08 109.843C422.969 110.925 421.063 108.71 419.003 109.483C418.334 108.993 417.819 106.958 416.866 109.328C416.737 109.637 416.145 109.56 415.733 109.354C415.527 109.148 415.398 108.916 415.295 108.633C415.192 107.577 414.857 106.907 413.544 107.293C412.488 107.602 411.433 108.169 410.274 107.705C408.549 106.752 406.823 105.825 405.407 104.434C404.532 102.63 402.6 100.801 405.433 99.024C406.386 98.7921 407.158 99.127 407.853 99.7453C408.317 101.291 409.836 102.064 410.48 103.584C411.046 104.897 412.385 102.605 413.338 103.687L413.364 103.661Z" fill="#3D3027"/>
<path d="M367.066 101.832C367.529 101.162 367.272 99.9772 368.791 99.7969C367.941 102.296 370.671 103.944 371.366 103.816C373.477 103.429 370.98 101.497 371.932 100.235C372.834 99.8484 373.349 101.6 374.482 100.93C375.949 100.08 376.464 100.982 377.082 102.244C377.984 104.047 378.988 104.047 379.4 101.858C380.481 101.471 380.971 102.27 381.511 102.94C381.717 103.352 381.795 103.764 381.743 104.202C381.692 104.485 381.563 104.743 381.383 105.001C381.125 105.155 380.868 105.155 380.61 104.923C379.117 105.001 377.366 104.022 376.387 106.082C376.284 106.289 375.615 106.495 375.615 106.469C373.683 103.223 369.512 107.448 367.581 104.073C367.426 103.816 366.834 103.816 366.448 103.712C366.061 102.914 366.525 102.373 367.04 101.858L367.066 101.832Z" fill="#4C3C30"/>
<path d="M436.823 116.619C437.596 117.881 439.089 118.525 439.166 120.509C439.218 121.307 441.999 121.951 443.544 121.307C446.016 120.251 446.273 121.436 446.067 123.394C446.093 123.935 445.913 124.373 445.424 124.656C441.844 124.192 439.012 121.874 435.845 120.483C434.171 119.736 435.536 117.726 436.823 116.644V116.619Z" fill="#4B3B30"/>
<path d="M432.471 107.345C432.934 109.148 434.144 109.148 435.561 108.581C434.119 111.054 432.702 113.527 431.26 116C430.076 115.846 428.17 116.696 428.788 114.146C429.664 111.698 430.488 109.199 432.471 107.345Z" fill="#322820"/>
<path d="M410.274 107.371C411.458 107.525 412.359 106.675 413.441 106.547C414.831 106.366 416.325 106.444 415.836 108.607C415.449 109.045 415.346 109.767 414.6 109.844C413.904 110.514 413.286 111.338 412.128 111.055C411.793 110.23 411.123 109.921 410.299 109.818C409.604 109.818 408.883 109.947 408.42 109.226C408.291 109.097 408.214 108.942 408.239 108.788C408.239 108.607 408.265 108.53 408.317 108.53C408.883 107.989 409.578 107.629 410.299 107.371H410.274Z" fill="#493A2F"/>
<path d="M418.927 109.226C421.193 107.216 422.995 109.973 425.081 109.818C424.875 110.23 424.669 110.642 424.463 111.055C422.995 113.244 420.858 112.317 418.901 112.291C418.695 111.879 418.489 111.467 418.283 111.055C417.897 110.23 418.283 109.664 418.927 109.2V109.226Z" fill="#201A16"/>
<path d="M418.9 112.317C420.497 110.797 422.84 112.471 424.462 111.08C424.334 111.57 424.256 112.059 424.05 112.523C423.561 113.63 423.638 115.665 422.145 115.459C420.78 115.253 419.081 114.3 418.9 112.342V112.317Z" fill="#4A3A2F"/>
<path d="M383.108 102.45C384.756 104.073 386.893 105.232 388.052 107.37C387.846 107.963 386.352 107.319 386.842 108.607C385.322 107.937 383.52 107.705 382.516 106.16C382.181 105.258 383.108 104.46 382.722 103.532C382.722 103.12 382.825 102.734 383.134 102.45H383.108Z" fill="#4D3D31"/>
<path d="M418.927 109.226C418.721 109.844 418.489 110.462 418.283 111.08C418.103 111.08 417.897 111.08 417.716 111.08C416.892 110.668 415.733 110.565 415.836 109.226C416.042 109.174 416.326 109.226 416.403 109.097C416.867 108.35 416.352 106.778 417.794 106.881C419.158 106.984 418.54 108.427 418.927 109.251V109.226Z" fill="#493A2F"/>
<path d="M415.836 109.226C416.273 110.024 417.818 109.741 417.715 111.08C415.861 113.167 415.784 113.116 414.6 109.844C414.831 109.251 415.243 108.839 415.836 108.607C415.836 108.814 415.836 109.02 415.836 109.226V109.226Z" fill="#392D25"/>
<path d="M428.789 114.146C428.531 116.206 430.72 114.996 431.261 116C430.668 116.979 430.385 118.551 428.686 117.366C427.166 116.284 427.656 115.202 428.789 114.146Z" fill="#4E3E31"/>
<path d="M445.424 124.656C445.475 124.141 445.553 123.677 446.068 123.394C446.814 122.904 447.355 121.487 448.514 122.595C449.415 123.471 447.999 123.909 447.922 124.63C447.098 124.965 446.274 125.738 445.424 124.63V124.656Z" fill="#2B231D"/>
<path d="M408.42 108.633C408.42 108.839 408.42 109.019 408.42 109.225C407.467 109.818 406.927 112.394 405.33 109.844C405.948 108.401 406.746 107.422 408.394 108.659L408.42 108.633Z" fill="#4D3D31"/>
<path d="M383.134 103.661C384.551 104.898 382.954 105.362 382.517 106.134C382.105 106.134 381.692 106.134 381.28 106.134C380.946 105.722 380.894 105.31 381.28 104.872C381.28 104.666 381.28 104.46 381.28 104.254C381.795 103.713 382.413 103.533 383.134 103.636V103.661Z" fill="#3D3027"/>
<path d="M367.065 101.832C366.859 102.45 366.679 103.069 366.473 103.687C365.52 104.305 365.958 103.352 365.803 103.069C365.803 102.528 365.752 101.987 365.752 101.42C366.19 101.549 366.627 101.678 367.065 101.806V101.832Z" fill="#191512"/>
<path d="M410.273 109.844C410.866 109.122 411.638 108.994 412.308 109.535C412.9 109.998 412.256 110.565 412.102 111.08C411.896 111.08 411.69 111.08 411.509 111.08C410.788 110.977 410.685 110.256 410.273 109.844V109.844Z" fill="#211B17"/>
<path d="M386.817 108.581C386.07 107.061 387.28 107.422 388.027 107.345C388.233 107.345 388.439 107.345 388.645 107.345C388.619 108.607 387.718 108.581 386.817 108.555V108.581Z" fill="#2C241D"/>
<path d="M381.254 104.897C381.254 105.31 381.254 105.722 381.254 106.16C380.765 106.907 380.069 106.752 379.374 106.726C378.833 105.361 381.125 106.16 380.636 104.923C380.842 104.923 381.048 104.923 381.254 104.923V104.897Z" fill="#4A3B2F"/>
<path d="M440.506 109.818C440.403 110.797 440.943 112.111 439.27 112.291C439.398 111.312 439.707 110.462 440.506 109.818Z" fill="#2C231D"/>
<path d="M457.191 130.195C457.99 129.86 458.891 129.19 459.045 130.813C458.427 130.581 457.32 131.843 457.191 130.195Z" fill="#261F1A"/>
<path d="M410.273 109.844C410.891 110.05 411.252 110.514 411.509 111.08C409.836 111.93 410.479 110.462 410.273 109.844Z" fill="#493A2F"/>
<path d="M175.203 228.781C175.975 228.781 176.774 228.781 177.546 228.781C180.018 229.038 182.49 229.27 184.962 229.528C184.936 231.177 184.911 232.799 184.885 234.448C181.821 233.006 178.756 231.563 175.718 230.095C175.229 229.863 174.43 229.579 175.203 228.781V228.781Z" fill="#27244B"/>
<path d="M437.235 279.014C434.711 278.86 432.754 279.066 430.926 278.164C427.862 276.696 427.038 273.502 429.098 270.822C433.037 265.696 444.728 262.424 450.728 264.743C454.333 266.134 455.285 269.715 452.633 272.548C448.333 277.16 442.694 278.654 437.209 279.014H437.235Z" fill="#E6B900"/>
<path d="M404.172 240.554C405.511 239.678 406.979 239.987 408.421 239.987C407.339 241.455 405.691 242.099 404.223 243.001C404.223 242.177 404.172 241.378 404.172 240.554Z" fill="#29254B"/>
<path d="M232.729 263.352C235.69 263.223 238.445 263.738 240.84 265.619C242.127 266.623 242.617 267.576 241.947 269.302C241.252 271.106 240.325 272.677 238.806 273.733C232.111 278.396 224.746 280.637 216.506 279.529C214.034 279.195 211.742 278.293 211.047 275.743C210.3 272.986 212.077 271.054 214.086 269.508C219.57 265.309 225.931 263.712 232.703 263.352H232.729Z" fill="#E6B900"/>
<path d="M200.36 228.807C200.438 229.27 201.107 230.043 199.871 229.811C199.021 229.657 198.197 229.348 197.348 229.09C198.352 228.987 199.356 228.884 200.36 228.781V228.807Z" fill="#2B2B65"/>
<path d="M389.287 99.9771C388.515 100.106 388.051 101.574 386.996 100.441C385.888 99.2816 387.639 99.2816 387.665 98.6376C387.665 98.2769 387.511 97.8905 387.433 97.5041C385.167 96.5509 382.901 97.5556 380.635 97.5041C379.992 97.1434 380.017 95.6493 378.575 96.6797C377.417 97.5041 377.133 97.2722 376.593 95.4432C376.335 94.5674 374.636 95.2114 375.099 93.7945C376.284 91.5791 379.811 90.7805 380.764 92.6611C381.279 93.64 381.511 94.7735 382.721 94.3098C384.215 93.743 382.567 92.558 383.082 91.4761C384.73 92.0686 386.609 92.455 388.283 92.8672C390.601 93.4339 393.124 93.4854 395.416 94.6447C396.137 95.0053 396.884 91.6049 397.733 94.2582C398.351 96.1388 395.905 95.9584 394.772 96.6282C394.592 96.7313 394.412 96.8085 394.206 96.8858C392.661 98.0966 391.579 100.003 389.262 99.9771H389.287Z" fill="#221B17"/>
<path d="M389.289 99.9775C391.323 99.5653 391.786 96.6543 394.233 96.8862C394.233 97.7878 394.207 98.6894 395.443 98.7409C396.293 99.385 396.318 98.4061 396.679 98.1227C396.885 98.1227 397.091 98.1227 397.297 98.1227C399.383 98.3545 401.365 99.1789 403.451 97.2983C404.533 96.3194 406.232 97.1953 405.331 99.3592C404.893 100.467 403.606 101.575 405.485 102.682C406.181 103.095 405.485 103.764 405.331 104.305C405.202 104.357 405.073 104.408 404.945 104.46C403.348 103.352 401.623 103.069 399.769 103.687C397.735 103.764 395.366 105.258 394.13 102.244C392.585 103.764 390.885 102.141 389.289 102.45C388.284 101.626 390.782 100.776 389.289 99.9517V99.9775Z" fill="#362B23"/>
<path d="M405.33 99.3335C405.33 97.7105 404.042 96.6286 403.27 98.0454C401.055 102.09 399.253 98.7152 397.296 98.1227C397.193 96.371 400.102 95.727 398.274 93.0479C402.137 96.0103 405.639 95.5724 409.218 94.8253C411.149 94.4389 414.883 98.5091 415.192 101.188C413.776 101.523 412.437 101.291 411.226 100.518C410.145 99.8229 408.96 99.9517 407.776 99.9517C406.952 99.7456 406.128 99.5396 405.304 99.3335H405.33Z" fill="#221B17"/>
<path d="M407.803 99.9775C408.704 98.9986 409.528 98.638 410.893 99.5138C412.154 100.338 413.751 100.647 415.219 101.214C415.888 101.626 415.27 102.038 415.219 102.451C414.601 102.863 413.983 103.275 413.365 103.687C411.382 105.155 409.579 106.418 409.116 102.399C409.09 102.116 407.082 101.575 407.828 100.003L407.803 99.9775Z" fill="#322821"/>
<path d="M375.074 93.7948C375.898 94.9025 377.237 94.0782 378.19 94.5676C378.731 95.9072 376.259 95.2632 376.928 96.3193C377.572 97.3498 378.319 96.2163 378.988 95.8814C381.1 94.7995 380.276 96.7573 380.636 97.4786C378.988 96.783 378.01 97.7104 377.16 98.9212C376.233 100.261 375.641 100.364 374.997 98.6121C374.508 97.2467 373.71 95.8814 371.984 95.6238C372.602 95.0056 373.22 94.3873 373.838 93.769C374.25 93.769 374.662 93.769 375.074 93.769V93.7948Z" fill="#2E251F"/>
<path d="M396.705 98.1226C396.576 98.7923 397.091 99.797 396.344 100.029C395.597 100.261 395.572 99.3076 395.469 98.7408C395.881 98.5347 396.293 98.3286 396.705 98.1226Z" fill="#221B17"/>
<path d="M380.637 97.5045C382.903 96.371 385.169 95.2633 387.435 97.5045C385.169 98.2258 382.903 98.4576 380.637 97.5045Z" fill="#2E251F"/>
<path d="M381.254 103.043C380.636 102.631 380.043 102.219 379.425 101.806C379.425 101.214 378.112 100.055 379.94 100.287C381.073 100.441 382.49 100.673 382.49 102.399C382.206 102.863 381.769 103.043 381.254 103.017V103.043Z" fill="#4A3B2F"/>
<path d="M381.254 103.043C381.538 102.554 381.975 102.425 382.49 102.425C382.696 102.425 382.902 102.425 383.108 102.425C383.108 102.837 383.108 103.249 383.108 103.636C382.671 104.357 381.95 104.254 381.254 104.254C381.254 103.842 381.254 103.429 381.229 103.043H381.254Z" fill="#2B221C"/>
<path d="M389.287 104.898C389.081 105.104 388.875 105.31 388.669 105.516C388.54 104.717 387.201 105.233 387.279 104.305C387.304 103.996 387.742 103.558 388.051 103.507C389.004 103.378 388.875 104.408 389.287 104.872V104.898Z" fill="#2D241E"/>
<path d="M446.684 115.382C446.478 115.176 446.272 114.97 446.066 114.764C446.787 114.043 446.221 112.729 447.225 112.162C447.38 112.085 447.946 112.342 447.972 112.523C448.152 113.733 447.457 114.584 446.684 115.408V115.382Z" fill="#241E1A"/>
<path d="M215.14 160.438C215.217 159.124 215.191 157.784 215.423 156.496C215.578 155.724 216.093 154.899 217.148 155.183C217.895 155.389 218.384 156.084 218.23 156.831C217.329 160.721 218.281 164.508 218.899 168.295C219.054 169.196 218.874 170.072 217.895 170.227C216.582 170.459 215.99 169.325 215.964 168.346C215.912 165.693 214.857 163.143 215.14 160.464V160.438Z" fill="#F4F0EE"/>
<path d="M215.758 150.211C215.758 148.794 216.299 147.867 217.715 147.918C219.157 147.97 219.569 149.129 219.44 150.288C219.337 151.37 219.028 152.71 217.638 152.684C216.17 152.658 215.681 151.499 215.758 150.211Z" fill="#F3EFED"/>
<path d="M381.357 161.648C381.408 163.117 381.022 165.023 380.43 166.878C380.018 168.192 379.091 169.402 377.469 168.861C375.821 168.32 375.924 166.878 376.336 165.538C376.902 163.658 377.108 161.726 377.005 159.768C376.928 158.3 376.773 156.677 378.833 156.574C380.893 156.471 381.357 157.913 381.383 159.639C381.383 160.154 381.383 160.67 381.383 161.674L381.357 161.648Z" fill="#F7F1ED"/>
<path d="M379.889 150.906C379.786 152.555 379.168 154.049 377.288 154.049C375.228 154.049 373.837 152.916 373.734 150.649C373.631 148.614 374.533 147.094 376.618 147.068C378.936 147.016 379.554 148.897 379.889 150.906V150.906Z" fill="#F4EEE9"/>
<path d="M408.419 108.633C407.158 108.401 406.128 108.787 405.355 109.818C404.789 108.865 407.183 107.319 404.737 106.727C404.377 105.773 404.608 104.949 405.355 104.279C407.364 104.717 409.115 105.593 410.299 107.371C410.248 108.633 409.321 108.607 408.445 108.633H408.419Z" fill="#2C231D"/>
<path d="M405.33 104.279C405.433 105.181 405.124 105.98 404.712 106.727C402.6 106.443 401.982 103.764 399.768 103.661C401.175 102.579 403.029 102.785 405.33 104.279V104.279Z" fill="#3D3027"/>
</g>
<defs>
<clipPath id="clip0_5484_43243">
<rect width="595" height="297" fill="white"/>
</clipPath>
</defs>
</svg>
