<svg width="595" height="297" viewBox="0 0 595 297" fill="none" xmlns="http://www.w3.org/2000/svg">
<g clip-path="url(#clip0_5484_43207)">
<rect width="595" height="297" fill="#5685C4"/>
<path d="M478.28 128.829C478.229 132.307 480.211 133.337 483.379 134.11C488.941 135.476 493.37 138.799 496.305 143.848C500.219 150.597 498.159 158.763 491.541 162.936C488.966 164.559 486.16 165.667 483.198 165.822C480.726 165.95 480.649 167.135 480.855 168.99C481.705 176.461 480.778 183.931 480.598 191.376C480.469 196.709 478.538 198.357 473.285 198.898C470.736 199.156 468.16 199.182 465.585 199.233C450.599 199.491 435.587 199.826 420.6 199.929C417.665 199.929 416.583 200.908 417.175 203.613C417.845 206.652 417.51 209.744 417.768 212.809C418.669 213.943 418.566 215.308 418.592 216.648C418.643 219.121 418.592 221.568 418.901 224.015C419.287 226.978 418.231 228.626 415.424 229.76C413.107 230.687 410.661 231.177 408.214 231.331C399.897 231.795 391.58 232.181 383.314 230.713C381.821 230.455 380.224 230.223 379.323 228.729C379.735 227.055 381.254 227.106 382.464 226.849C386.095 226.076 389.623 224.968 393.048 223.551C401.88 219.893 407.545 213.015 411.922 204.875C413.467 202.015 412.978 201.423 409.605 201.32C400.464 201.062 391.348 202.376 382.207 201.938C380.791 201.861 379.297 202.118 378.061 201.114C361.633 201.474 345.178 201.784 328.75 202.196C322.518 202.35 318.604 198.074 319.325 191.685C319.428 190.861 319.403 190.037 319.403 189.212C319.403 168.063 319.428 146.888 319.351 125.738C319.351 123.059 319.66 120.663 321.334 118.525C321.875 117.804 322.699 117.623 323.497 117.52C325.531 117.263 327.565 116.799 329.625 116.851C345.462 117.263 361.246 116.052 377.083 116.129C383.958 116.155 390.807 115.331 397.708 115.717C398.532 115.717 399.305 115.923 399.949 116.464C400.67 117.417 400.747 118.576 400.721 119.71C400.489 125.583 401.597 131.38 401.416 137.253C401.313 140.756 402.06 141.529 405.536 141.504C415.296 141.375 425.055 141.761 434.814 141.117C444.857 140.473 454.951 140.937 465.045 140.963C468.341 140.963 471.611 140.653 474.881 140.447C476.761 140.319 477.405 139.546 477.276 137.742C477.147 135.888 477.173 134.033 477.25 132.204C477.302 130.993 477.173 129.705 478.28 128.803V128.829Z" fill="#D39A6D"/>
<path d="M197.966 235.015C200.567 237.72 204.223 237.282 207.416 237.952C225.055 241.713 241.02 248.977 255.311 259.977C267.439 269.303 277.07 280.689 283.894 294.445C285.027 296.712 284.898 297.356 282.168 297.356C213.879 297.305 145.565 297.305 77.2757 297.305C74.1599 297.305 73.8252 296.764 75.3187 293.827C79.1812 286.202 84.1767 279.401 89.8159 272.961C99.2404 262.218 110.648 254.233 123.239 247.844C134.08 242.331 145.616 238.776 157.616 236.87C160.139 236.458 162.637 236.046 165.16 235.633C166.139 236.406 165.959 237.617 166.345 238.622C166.525 241.481 168.25 243.156 170.697 244.341C172.911 245.397 175.229 246.066 177.52 246.891C183.546 247.715 189.237 246.092 194.953 244.547C196.807 244.057 196.962 242.511 197.09 240.914C197.245 238.931 196.498 236.818 197.992 235.041L197.966 235.015Z" fill="#F8F3F0"/>
<path d="M197.966 235.015C197.966 236.458 197.966 237.875 197.966 239.317C197.966 244.804 197.966 244.779 192.533 246.118C188.155 247.2 183.778 248.102 179.246 247.947C178.447 247.947 177.598 248.076 176.928 247.406C182.413 245.01 186.224 240.837 189.34 235.891C189.88 235.015 190.37 234.114 190.73 233.16C191.94 229.966 191.219 228.678 187.82 228.523C181.434 228.24 175.126 227.545 168.997 225.638C167.349 225.123 166.705 225.638 166.68 227.313C166.68 229.992 166.705 232.645 166.68 235.324C166.654 236.509 166.911 237.823 165.778 238.751C164.851 237.849 165.341 236.664 165.186 235.608C165.212 232.207 165.186 228.833 165.315 225.458C165.392 223.706 164.62 222.856 163.1 222.264C149.015 216.571 137.608 207.554 129.188 194.88C128.621 194.03 128.209 193.051 126.947 193.025C126.999 191.634 128.209 191.248 129.085 190.629C140.724 182.489 151.642 173.473 161.504 163.297C174.636 149.773 186.327 135.141 194.361 117.881C195.159 116.181 195.648 114.146 197.58 113.167C203.631 113.734 209.116 116.181 214.42 118.834C225.905 124.605 235.741 132.513 242.668 143.462C253.509 160.592 255.981 178.573 247.174 197.405C245.011 202.016 241.921 205.957 238.599 209.795C237.286 209.589 236.539 210.439 235.715 211.238C226.214 220.383 214.781 225.381 201.777 227.081C197.399 227.648 197.399 227.57 197.837 231.975C197.94 233.006 197.914 234.036 197.94 235.041L197.966 235.015Z" fill="#ECCFBB"/>
<path d="M379.271 228.343C381.975 230.326 385.322 230.404 388.335 230.507C396.807 230.867 405.33 231.46 413.699 229.451C417.767 228.472 418.231 227.519 417.87 223.242C417.561 219.79 417.793 216.287 417.767 212.809C420.651 212.809 423.509 212.886 426.393 212.809C428.119 212.732 429.149 213.247 429.406 215.025C429.458 215.411 429.638 215.797 429.767 216.184C431.003 220.512 433.921 222.676 438.522 222.676C449.826 222.676 461.13 222.727 472.409 222.624C474.726 222.624 475.524 223.268 475.782 225.715C476.554 233.315 477.816 240.863 478.614 248.462C479.258 254.541 479.696 260.673 479.953 266.804C480.34 275.923 480.417 285.042 480.752 294.136C480.829 296.403 480.365 297.407 477.765 297.356C468.829 297.175 459.894 297.227 450.959 297.201C450.341 296.583 450.186 295.784 450.161 294.934C449.903 287.052 449.311 279.195 448.796 271.338C448.332 264.382 448.384 257.401 447.895 250.471C447.895 250.446 447.895 250.574 447.895 250.858C448.178 255.649 448.178 255.649 443.131 255.649C416.634 255.649 390.112 255.752 363.615 255.649C359.495 255.649 355.426 256.293 351.306 256.216C346.44 256.139 345.332 257.118 345.899 252.223C346.002 260.183 345.564 269.328 344.869 278.422C344.457 283.934 345.101 289.499 343.813 294.96C343.633 295.759 343.581 296.583 342.963 297.201C334.414 297.227 325.891 297.201 317.342 297.33C315.514 297.33 314.947 296.66 315.153 294.986C316.08 287.18 316.982 279.375 317.909 271.569C318.63 265.387 319.299 259.178 320.123 253.022C321.385 243.516 322.981 234.062 325.608 224.814C326.174 222.856 327.333 222.624 329.033 222.624C339.719 222.675 350.431 222.624 361.117 222.753C363.435 222.779 364.439 222.366 364.928 219.842C366.113 213.427 366.293 213.453 372.782 213.453C374.327 213.453 375.872 213.453 377.417 213.453C379.091 215.437 378.318 217.704 378.035 219.842C377.649 222.804 377.52 225.689 379.219 228.343H379.271Z" fill="#7DBED3"/>
<path d="M197.322 113.527C188.207 134.059 174.662 151.421 158.749 167.032C148.938 176.641 138.226 185.22 126.896 192.999C120.252 197.25 113.454 201.294 106.579 205.133C104.262 206.421 103.36 205.983 102.305 203.948C97.6953 195.163 94.4508 185.889 93.1375 176.074C90.6913 157.656 93.8328 140.37 104.184 124.63C110.957 114.378 120.304 106.984 130.63 100.647C136.166 98.2771 141.625 95.7525 147.625 94.5418C163.976 91.2702 179.915 92.5067 195.468 98.5347C201.313 100.802 202.034 102.528 200.052 108.401C199.434 110.23 199.022 112.188 197.348 113.476L197.322 113.527Z" fill="#F5AA27"/>
<path d="M397.914 116.516C384.782 116.799 371.649 116.722 358.543 117.417C346.157 118.087 333.72 117.16 321.334 118.551C320.098 118.525 318.862 118.473 317.652 118.448C314.227 118.422 313.042 116.825 313.995 113.605C314.51 111.904 315.926 112.368 317.059 112.317C326.381 112.033 335.728 111.93 345.05 111.467C349.659 111.235 354.268 111.029 358.877 111.08C360.268 111.08 360.603 110.591 360.963 109.2C365.495 91.4504 376.568 79.9096 394.541 76.1486C414.806 71.898 435.02 84.5723 439.887 105.361C440.196 106.623 440.814 107.86 440.402 109.225C439.835 111.157 438.419 111.904 436.539 112.239C434.917 112.523 433.269 112.6 431.621 112.6C421.656 112.626 411.691 112.394 401.751 113.218C399.588 113.399 397.451 113.424 397.863 116.541L397.914 116.516Z" fill="#08090A"/>
<path d="M449.826 297.227C437.105 297.253 424.359 297.33 411.639 297.305C389.159 297.305 366.679 297.253 344.199 297.227C343.607 296.557 343.53 295.682 343.659 294.909C344.508 289.628 343.968 284.27 344.586 278.963C345.023 275.253 345.435 274.841 349.195 274.815C365.314 274.815 381.46 274.764 397.579 274.815C413.39 274.867 429.2 274.635 445.036 274.815C449.337 274.867 449.826 275.099 449.749 279.221C449.646 284.373 450.676 289.422 450.418 294.574C450.367 295.501 450.495 296.429 449.852 297.227H449.826Z" fill="#7DBED3"/>
<path d="M478.28 128.83C478.126 132.513 477.945 136.197 478.435 139.881C478.589 141.04 478.486 141.839 477.224 141.684C472.512 141.143 467.877 142.122 463.165 141.993C454.539 141.761 445.887 141.53 437.286 142.045C426.626 142.689 415.965 142.405 405.305 142.534C400.876 142.586 400.283 142.045 400.386 137.588C400.567 130.607 399.331 123.703 399.717 116.722C401.7 115.073 404.12 115.176 406.438 115.099C410.635 114.944 414.858 114.919 419.081 115.099C425.158 115.331 431.183 114.223 437.235 114.481C440.041 114.61 439.913 112.111 441.226 110.9C450.135 110.514 459.019 109.87 467.929 109.87C473.027 109.87 478.177 112.394 478.048 119.916C477.997 122.879 478.151 125.841 478.229 128.83H478.28Z" fill="#B17D54"/>
<path d="M197.321 113.528C198.12 111.209 198.969 108.917 199.742 106.598C200.978 102.914 200.489 101.704 196.884 100.081C191.45 97.6334 185.734 96.0877 179.889 95.083C163.46 92.2494 147.521 93.4859 132.277 100.725C131.71 100.982 131.17 101.317 130.629 100.725C137.839 95.4952 146.285 93.7177 154.757 92.0175C197.862 83.3362 252.22 114.249 261.053 170.665C263.319 185.143 262.237 199.311 258.04 213.273C257.808 214.046 257.551 214.845 257.422 215.643C256.701 219.894 254.744 220.77 251.113 218.322C246.942 215.514 242.796 212.655 238.65 209.821C238.238 209.048 238.599 208.507 239.139 207.941C256.624 188.337 254.924 160.541 239.809 140.783C228.968 126.588 214.625 117.804 197.373 113.579L197.321 113.528Z" fill="#D1932A"/>
<path d="M449.826 297.227C449.594 290.89 449.285 284.527 449.208 278.19C449.182 276.052 448.332 275.691 446.453 275.717C421.372 275.794 396.292 275.82 371.237 275.846C363.538 275.846 355.813 275.897 348.113 275.768C346.182 275.743 345.229 276.309 345.152 278.241C345.126 278.86 344.895 279.452 344.92 280.07C345.229 285.815 344.225 291.534 344.225 297.253C343.839 297.253 343.453 297.253 343.066 297.253C343.633 287.052 344.251 276.85 344.792 266.623C345.101 260.904 345.255 255.16 345.513 249.441C345.564 248.385 345.281 247.277 346.285 245.603C347.006 248.436 347.083 250.677 346.517 252.713C345.796 255.34 347.006 255.443 348.937 255.34C352.62 255.16 356.328 254.928 360.01 254.902C388.155 254.799 416.299 254.748 444.47 254.748C446.916 254.748 448.384 254.696 447.483 251.528C446.993 249.75 447.071 247.689 447.586 245.809C448.41 245.68 448.513 246.195 448.538 246.736C448.976 255.727 449.337 264.717 449.826 273.682C450.238 281.539 451.113 289.37 451.01 297.279C450.624 297.279 450.238 297.279 449.852 297.279L449.826 297.227Z" fill="#3858A4"/>
<path d="M379.271 228.343C377.314 227.879 376.928 226.514 376.928 224.685C376.928 220.924 377.881 217.214 377.469 213.453C377.675 209.357 377.88 205.261 378.061 201.165C388.824 201.552 399.562 200.367 410.3 200.496C414.368 200.547 414.832 201.165 412.952 204.901C407.184 216.235 398.455 224.015 385.863 226.978C383.674 227.493 381.485 227.905 379.271 228.343V228.343Z" fill="#B17D54"/>
<path d="M441.277 110.9C440.994 115.331 440.994 115.202 436.333 115.485C426.188 116.129 416.017 115.898 405.871 116.104C403.837 116.155 401.803 116.49 399.768 116.722C399.15 116.645 398.532 116.593 397.914 116.516C397.348 115.82 396.009 115.666 396.601 114.146C397.219 112.523 398.661 112.343 399.846 112.368C403.863 112.497 407.802 111.724 411.794 111.699C418.875 111.621 425.982 111.673 433.063 111.699C435.818 111.699 438.419 111.364 440.428 109.226C440.428 109.921 440.762 110.462 441.277 110.9V110.9Z" fill="#020202"/>
<path d="M370.027 164.302C369.409 164.765 369.254 165.77 368.25 165.847C360.68 166.311 353.212 166.414 346.955 161.056C339.616 154.796 340.157 147.3 348.371 142.225C354.088 138.696 360.371 137.639 366.988 138.206C370.465 141.194 370.825 145.574 371.804 149.592C372.731 153.379 372.55 157.346 371.752 161.185C371.495 162.37 371.263 163.632 370.027 164.302V164.302Z" fill="#040404"/>
<path d="M436.178 164.354C436.153 174.4 430.642 181.613 422.428 184.061C414.548 186.405 405.845 183.262 401.39 176.487C400.128 174.581 399.691 172.545 401.673 171C403.708 169.428 405.613 170.072 407.338 171.953C412.411 177.517 417.175 178.754 422.531 175.972C427.913 173.164 430.127 166.827 427.629 161.288C427.166 160.258 426.522 159.304 426.084 158.274C425.26 156.393 425.26 154.513 427.217 153.431C429.149 152.375 431.08 152.813 432.419 154.616C434.942 158.016 436.153 161.855 436.178 164.379V164.354Z" fill="#784820"/>
<path d="M370.027 164.302C373.143 155.105 371.006 146.553 366.963 138.181C372.396 138.361 377.52 139.623 382.027 142.818C388.078 147.094 388.979 153.354 384.19 158.944C381.048 162.602 376.851 164.457 372.164 165.281C371.289 165.436 370.259 165.642 370.027 164.276V164.302Z" fill="#F2EFED"/>
<path d="M366.422 125.042C370.362 124.862 375.022 125.429 379.529 127.077C381.074 127.644 382.593 128.288 383.855 129.37C385.194 130.504 385.528 132.049 384.679 133.518C383.855 134.96 382.284 135.166 380.893 134.497C368.92 128.7 357.229 130.504 345.564 135.475C343.71 136.274 341.805 136.429 340.801 134.265C339.822 132.127 341.11 130.761 342.938 129.86C350.071 126.33 357.667 124.965 366.396 125.017L366.422 125.042Z" fill="#090A0A"/>
<path d="M479.388 146.681C479.388 142.792 479.903 142.457 483.662 144.028C486.804 145.342 488.889 148.201 488.529 150.726C488.143 153.353 484.975 156.264 482.22 156.754C480.804 157.011 479.928 156.805 480.057 155.208C480.289 152.323 479.465 149.515 479.388 146.656V146.681Z" fill="#B17D54"/>
<path d="M165.752 238.776C165.778 234.68 165.881 230.559 165.829 226.463C165.829 224.479 166.035 223.603 168.379 224.531C173.966 226.72 179.915 227.158 185.811 227.622C186.738 227.699 187.665 227.596 188.592 227.699C192.326 228.137 193.099 229.296 191.734 232.774C189.545 238.39 185.683 242.692 180.945 246.298C179.683 247.277 178.318 247.355 176.902 247.406C174.275 246.711 171.675 245.886 169.28 244.547C167.014 243.284 165.443 241.584 165.726 238.776H165.752Z" fill="#C09374"/>
<path d="M198.686 154.333C198.866 152.194 200.205 151.293 202.137 150.7C207.467 149.026 212.797 148.485 218.127 150.52C225.595 153.405 228.788 161.005 225.209 168.14C221.114 176.332 214.033 180.402 205.124 181.562C204.042 181.69 203.089 181.639 202.394 180.66C201.184 180.016 200.875 178.779 200.411 177.646C197.605 170.845 197.347 163.709 197.708 156.496C197.759 155.672 197.888 154.848 198.66 154.333H198.686Z" fill="#080A0A"/>
<path d="M168.996 201.191C161.529 201.449 156.945 198.383 154.01 192.896C150.997 187.255 151.512 181.665 155.04 176.332C156.147 174.683 157.538 173.164 159.546 174.477C161.632 175.817 160.602 177.594 159.495 179.243C156.302 184.138 156.945 189.779 160.962 193.437C164.825 196.966 170.464 197.121 174.842 193.875C176.567 192.613 177.571 190.887 178.266 188.903C178.91 187.049 179.811 185.271 182.206 186.25C184.575 187.229 183.931 189.212 183.236 190.964C180.61 197.636 175.305 201.165 169.022 201.191H168.996Z" fill="#E56C77"/>
<path d="M198.687 154.333C197.605 163.426 198.944 172.185 202.395 180.66C202.163 181.819 201.339 182.128 200.335 181.948C194.876 180.995 189.88 179.037 187.64 173.524C185.4 167.986 186.893 162.885 190.859 158.506C192.661 156.548 194.541 154.693 196.833 153.251C198.326 152.297 198.506 153.199 198.661 154.333H198.687Z" fill="#F3F1EE"/>
<path d="M209.94 135.012C215.373 134.96 220.574 135.785 225.158 139.005C226.832 140.19 228.454 141.658 226.986 143.796C225.467 146.038 223.664 144.801 221.939 143.693C215.45 139.52 208.446 140.319 201.416 141.761C198.095 142.431 194.927 143.693 191.94 145.316C190.344 146.192 188.619 146.45 187.666 144.647C186.739 142.869 187.434 141.323 189.314 140.319C195.777 136.867 202.627 135.089 209.94 135.012Z" fill="#F5AA28"/>
<path d="M390.524 97.2724C390.524 98.1998 390.524 99.1272 390.524 100.029C390.524 103.197 389.726 103.816 386.507 103.687C384.885 103.61 384.447 102.914 384.318 101.42C384.112 98.4317 384.962 95.5207 384.962 92.5582C384.962 90.4974 386.559 91.4505 387.434 91.3732C388.825 91.2444 390.395 91.2702 390.498 93.2795C390.576 94.6191 390.498 95.9329 390.498 97.2724H390.524Z" fill="#EDF0F5"/>
<path d="M376.928 97.891C376.928 96.9636 376.799 96.0362 376.954 95.1346C377.16 94.0011 376.053 92.1978 378.216 91.9918C380.044 91.8114 381.872 91.8887 383.031 93.7435C384.087 95.4179 383.288 96.8348 381.975 97.5561C379.838 98.7668 378.834 100.261 379.349 102.708C379.503 103.507 378.859 103.636 378.19 103.661C377.314 103.713 376.851 103.455 376.902 102.476C376.954 100.956 376.902 99.4108 376.902 97.8652L376.928 97.891Z" fill="#EEF1F6"/>
<path d="M413.287 100.879C415.064 101.008 416.403 99.8742 417.51 101.033C417.819 101.343 417.794 102.553 417.51 102.708C416.326 103.378 414.935 103.094 413.622 103.094C412.463 103.094 412.077 102.321 412.103 101.24C412.103 98.071 412.154 94.8766 412.103 91.7081C412.103 90.6004 412.309 89.8533 413.596 90.1109C414.987 90.3685 416.892 89.235 417.665 91.1929C418.206 92.5582 416.995 92.5582 416.043 92.5582C414.935 92.5582 413.699 92.5582 413.39 93.975C413.056 95.4691 414.111 95.4949 415.219 95.701C416.197 95.8813 415.991 97.2209 415.528 97.2724C412.978 97.4785 414.523 99.7712 413.287 100.879V100.879Z" fill="#EEF1F6"/>
<path d="M405.356 96.6801C405.356 95.5466 405.356 94.4389 405.356 93.3055C405.356 90.446 406.567 89.4929 409.322 90.0854C409.863 90.2142 410.275 90.2915 410.275 90.9612C410.275 91.3992 410.172 91.9144 409.734 91.8886C407.004 91.6825 407.906 93.6661 407.828 95.0057C407.751 96.2164 407.854 97.4529 407.803 98.6894C407.725 100.209 407.674 101.626 409.914 101.188C410.403 101.085 410.918 101.24 410.918 101.961C410.918 102.734 410.558 102.914 409.837 103.069C406.464 103.687 405.408 102.863 405.382 99.4365C405.382 98.5091 405.382 97.5817 405.382 96.6801H405.356Z" fill="#EEF1F6"/>
<path d="M394.824 95.9586C394.824 96.8859 394.901 97.8133 394.824 98.715C394.644 100.183 395.159 100.75 396.652 100.621C397.451 100.544 398.532 100.209 398.584 101.78C398.635 103.326 397.631 102.94 396.755 103.094C393.871 103.532 392.455 102.759 392.867 99.462C393.099 97.4784 392.532 95.4176 392.404 93.3825C392.326 92.4809 392.275 91.4762 393.64 91.3732C395.262 91.2444 394.798 92.4036 394.85 93.2279C394.901 94.1553 394.85 95.0827 394.85 95.9843L394.824 95.9586Z" fill="#EEF1F6"/>
<path d="M400.412 90.7552C401.725 90.9871 402.884 90.9871 402.884 92.5843C402.884 95.6498 402.884 98.7411 402.884 101.807C402.884 102.708 402.678 103.533 401.596 103.404C400.644 103.301 400.386 102.554 400.412 101.601C400.463 98.0198 400.412 94.439 400.412 90.7295V90.7552Z" fill="#EEF1F6"/>
<path d="M390.421 273.888C373.04 273.888 360.809 273.888 348.552 273.888C348.14 273.888 347.728 273.888 347.316 273.888C346.543 273.836 345.539 274.12 345.513 272.832C345.462 271.389 346.595 271.595 347.47 271.569C348.191 271.544 348.912 271.569 349.633 271.569C375.744 271.492 401.88 271.415 427.991 271.286C433.527 271.286 439.089 270.951 444.625 271.028C445.913 271.028 448.462 269.689 448.41 272.497C448.359 275.047 445.964 273.81 444.754 273.759C424.926 272.96 405.073 274.48 390.396 273.914L390.421 273.888Z" fill="#7BBCD3"/>
<path d="M375.46 256.628C398.377 256.628 421.269 256.628 444.187 256.628C445.011 256.628 445.835 256.628 446.659 256.628C447.354 256.628 447.843 256.86 447.869 257.658C447.895 258.586 447.431 258.947 446.556 258.972C445.835 258.972 445.114 258.972 444.393 258.972C426.728 259.05 409.038 258.869 391.373 259.256C377.391 259.565 363.435 259.384 349.452 259.565C348.628 259.565 347.804 259.565 346.98 259.488C346.182 259.41 346.053 258.792 346.079 258.148C346.079 257.53 346.465 257.246 347.058 257.221C347.779 257.195 348.5 257.169 349.221 257.169C357.95 257.169 366.679 257.169 375.434 257.169C375.434 256.963 375.434 256.757 375.434 256.551L375.46 256.628Z" fill="#7BBDD3"/>
<path d="M368.302 155.801C368.456 157.656 368.276 159.485 367.761 161.288C367.452 162.37 366.731 162.833 365.701 162.55C364.774 162.292 364.413 161.442 364.671 160.592C365.418 158.171 365.134 155.723 365.109 153.276C365.109 152.169 365.006 150.777 366.576 150.7C368.096 150.623 368.276 151.885 368.302 153.07C368.327 153.998 368.302 154.925 368.302 155.827V155.801Z" fill="#F1ECEA"/>
<path d="M363.074 144.312C363.074 143.127 363.589 142.096 364.774 142.251C366.679 142.508 366.782 144.337 366.988 145.754C367.143 146.862 366.344 147.738 365.108 147.583C363.151 147.351 363.563 145.522 363.1 144.312H363.074Z" fill="#ECE7E5"/>
<path d="M206.025 174.529C205.871 175.559 206.231 176.435 205.047 176.461C204.197 176.461 203.656 176.049 203.528 175.25C202.91 171.592 202.317 167.909 201.725 164.225C201.622 163.606 202.137 163.169 202.549 163.117C203.013 163.065 203.373 163.555 203.502 164.122C204.352 167.702 205.227 171.309 206.025 174.529Z" fill="#F6F1EE"/>
<path d="M203.141 158.3C202.961 159.176 202.858 160.103 201.751 159.949C200.772 159.82 201.004 158.918 200.978 158.274C200.978 157.579 200.978 156.78 201.957 156.728C203.167 156.677 202.935 157.707 203.141 158.3V158.3Z" fill="#E9E4E1"/>
<path d="M387.64 101.755C386.121 98.9728 386.816 96.1133 386.893 93.2539C387.151 93.2539 387.408 93.2539 387.64 93.2539V101.781V101.755Z" fill="#121313"/>
<path d="M388.953 96.6284C389.365 97.5816 389.417 98.1998 388.953 98.8438C388.49 98.1998 388.567 97.5816 388.953 96.6284Z" fill="#E1E3E9"/>
<path d="M379.142 96.9117C377.881 97.1693 378.241 96.2161 378.164 95.5979C378.009 94.3356 378.859 94.3356 379.709 94.4129C380.353 94.4644 381.305 94.1037 381.254 95.2887C381.202 96.6283 380.224 96.8859 379.117 96.9117H379.142Z" fill="#060808"/>
</g>
<defs>
<clipPath id="clip0_5484_43207">
<rect width="595" height="297" fill="white"/>
</clipPath>
</defs>
</svg>
