<svg width="595" height="297" viewBox="0 0 595 297" fill="none" xmlns="http://www.w3.org/2000/svg">
<g clip-path="url(#clip0_5484_43227)">
<rect width="595" height="297" fill="#4F77C2"/>
<path d="M495.507 168.656C496.228 179.269 496.923 189.882 497.67 200.496C497.927 204.18 498.236 207.838 498.571 211.496C498.751 213.402 497.902 214.072 496.099 214.072C492.829 214.072 489.533 214.175 486.263 214.226C484.924 213.866 484.228 212.887 483.816 211.65C483.482 209.976 484.615 209.074 485.645 208.069C487.576 206.163 488.76 203.948 488.168 200.522C486.597 202.273 486.7 204.205 485.645 205.545C484.898 206.472 484.28 207.297 482.992 206.06C478.872 202.093 478.409 202.144 474.109 206.06C473.954 206.189 473.774 206.266 473.568 206.343C468.984 205.751 464.401 205.21 459.792 206.086C455.105 206.962 451.062 209.048 447.586 212.243C446.144 213.556 444.805 214.999 442.771 215.437C433.14 215.952 423.51 215.617 413.879 215.617C412.927 215.617 412.077 215.282 411.279 214.767C395.957 214.793 380.636 214.819 365.315 214.87C364.517 214.87 363.693 215.076 362.894 215.257C361.478 215.54 360.706 214.819 360.448 213.556C360.268 212.655 360.319 211.727 360.319 210.8C360.319 167.033 360.319 123.265 360.319 79.5235C360.319 75.3245 360.731 74.9638 364.645 74.5516C370.388 73.9334 376.156 74.2425 381.898 74.1137C383.211 74.088 384.576 74.3456 385.786 73.547C390.292 72.8772 394.824 73.4182 399.331 73.2121C400.67 73.7273 400.927 75.0153 401.313 76.1488C402.884 80.6569 405.794 83.9801 410.043 86.0667C412.283 87.1486 413.545 88.7458 414.06 91.1416C416.712 103.275 434.119 118.036 451.011 112.24C453.843 111.261 455.414 111.827 457.036 114.429C459.483 118.396 463.603 120.663 467.697 122.544C475.036 125.919 482.709 128.237 490.975 127.49C491.567 127.438 492.211 127.335 492.649 127.954C491.876 131.251 493.189 134.445 493.009 137.717C492.932 139.056 494.194 138.979 494.966 139.211C497.824 140.087 500.528 141.246 502.974 142.946C507.944 146.424 509.386 150.185 508.099 156.11C508.021 156.471 508.15 156.883 508.202 157.269C507.3 158.892 506.219 160.361 504.906 161.674C503.412 162.473 502.356 164.302 500.245 163.632C499.987 163.297 499.781 162.859 499.962 162.499C501.172 159.923 499.781 158.506 497.721 157.372C497.799 155.801 499.266 155.054 499.859 153.766C500.76 151.86 500.657 150.211 499.06 148.794C498.133 147.944 496.897 147.274 495.713 147.789C494.4 148.356 494.837 149.773 495.095 150.803C495.687 153.225 495.018 155.956 496.82 158.119C495.172 161.494 494.915 165.049 495.455 168.733L495.507 168.656Z" fill="#CB8C4D"/>
<path d="M230.127 104.846C247.019 125.197 251.371 156.342 235.612 182.592C225.286 199.8 209.965 210.233 190.472 214.638C189.468 214.87 188.463 215.102 187.485 215.36C178.962 215.849 170.516 215.411 162.095 213.969C158.825 213.402 158.542 213.737 159.083 217.086C160.962 228.781 167.992 236.277 178.524 240.966C179.631 241.455 181.614 241.275 181.176 243.516C178.344 245.397 175.125 245.113 171.983 245.216C167.657 245.345 163.409 244.624 159.211 243.593C156.456 242.924 154.911 241.069 154.654 238.441C154.087 232.31 154.345 226.205 155.606 220.151C156.018 213.067 155.967 213.144 149.632 210.285C134.105 203.278 122.389 192.278 115.102 176.796C114.381 175.25 113.737 173.782 111.677 173.962C110.827 173.499 110.93 172.648 110.776 171.876C110.621 171.154 110.904 170.021 109.797 169.995C108.793 169.969 108.767 171.051 108.561 171.773C108.407 172.339 108.329 172.958 107.763 173.318C96.6904 170.304 92.0811 158.145 98.9821 150.082C100.888 147.867 103.231 146.141 106.141 145.522C108.149 145.11 108.587 144.106 108.741 142.173C109.385 134.368 111.033 126.794 114.638 119.736C116.672 118.731 118.861 119.324 120.818 119.659C123.084 120.045 125.402 120.457 127.642 121.024C128.826 121.436 130.062 121.359 131.273 121.359C132.328 121.359 133.41 121.359 134.466 121.539C139.564 121.642 144.611 122.518 149.71 122.338C152.053 122.26 154.293 121.256 156.688 121.797C157.512 121.977 157.924 121.23 158.233 120.56C158.413 120.148 158.671 119.787 159.031 119.504C159.984 119.118 160.782 119.453 161.503 120.019C163.125 120.766 164.799 120.56 166.499 120.277C167.065 120.2 167.632 120.251 168.198 120.431C168.584 120.56 169.048 121.101 169.202 120.998C172.318 119.169 175.614 121.127 178.781 120.431C179.605 120.174 180.429 119.89 181.279 119.71C185.657 118.654 190.24 118.654 194.566 117.366C195.107 117.16 195.648 116.928 196.214 116.748C199.896 115.408 204.042 115.46 207.312 112.935C207.544 112.781 207.802 112.677 208.085 112.6C210.068 112.188 212.102 111.93 214.033 111.209C215.604 110.668 217.175 110.101 218.565 109.148C221.243 107.654 224.076 106.443 226.857 105.181C227.887 104.717 228.942 104.228 230.075 104.846H230.127Z" fill="#705741"/>
<path d="M155.581 220.125C156.302 225.535 154.963 230.945 155.375 236.355C155.453 237.462 155.427 238.519 155.762 239.652C156.869 243.31 160.191 242.949 162.766 243.465C168.508 244.624 174.327 244.65 180.121 243.516C180.507 243.439 180.842 243.156 181.203 242.975C186.353 241.146 187.048 237.153 186.559 232.388C186.301 229.837 186.481 227.261 186.559 224.685C186.584 223.474 186.43 222.186 187.537 221.285C206.978 225.535 223.021 235.582 236.411 250.059C248.256 262.888 256.264 277.907 261.388 294.548C262.109 296.867 261.749 297.382 259.251 297.382C200.618 297.305 141.985 297.33 83.3526 297.305C81.9879 297.305 80.0824 298.026 80.8291 295.141C88.6056 264.975 104.905 241.404 133.359 227.261C140.389 223.758 147.934 221.723 155.581 220.125Z" fill="#A1BEFB"/>
<path d="M492.7 127.876C479.49 129.345 468.083 125.12 457.937 116.902C457.86 116.851 457.757 116.773 457.731 116.67C455.748 111.544 452.118 112.574 448.049 113.708C443.646 114.919 439.088 114.713 434.736 112.935C423.947 108.504 415.707 101.652 412.926 89.6989C412.669 88.6427 412.385 87.8184 411.227 87.3804C404.789 84.9589 401.313 80.0386 399.716 73.5727C397.965 68.266 400.412 64.17 403.888 60.6408C405.613 58.8891 407.184 57.1889 408.394 54.9734C413.287 45.9314 422.891 41.4491 433.063 43.3554C435.123 43.7418 436.281 43.2008 437.492 41.6294C439.346 39.2336 440.968 36.503 444.264 35.6787C445.732 34.9316 447.148 34.1588 448.641 33.4632C458.504 28.9036 467.774 29.8052 476.348 36.5288C477.584 37.4819 478.537 37.8683 480.185 37.1728C487.73 33.9527 494.142 35.4211 500.013 41.5263C502.897 44.5403 505.06 47.9923 506.012 52.0882C506.296 53.3248 506.811 53.8915 508.072 54.3552C518.553 58.0905 523.085 71.2542 516.93 80.3993C515.694 82.2283 516.776 82.9496 517.523 84.0058C524.321 93.9494 524.655 103.97 518.321 112.935C514.046 118.963 508.433 123.317 501.377 125.661C498.571 126.588 495.609 127.103 492.725 127.799L492.7 127.876Z" fill="#010101"/>
<path d="M450.445 297.305C424.077 297.305 397.709 297.305 371.341 297.305C370.542 295.939 371.547 294.96 372.165 293.956C379.272 282.183 388.336 272.085 398.636 263.017C405.511 256.989 412.747 251.451 420.626 246.788C421.682 246.17 422.738 245.5 423.896 245.088C424.36 244.959 424.798 244.959 425.261 245.036C426.652 245.448 427.347 246.608 428.145 247.689C437.827 260.827 450.573 268.994 466.822 271.441C467.131 271.492 467.388 271.647 467.646 271.802C468.573 273.09 467.749 274.197 467.182 275.202C462.959 282.595 457.989 289.448 452.453 295.914C451.912 296.558 451.088 296.789 450.419 297.279L450.445 297.305Z" fill="#EEF0F1"/>
<path d="M423.844 245.783C415.089 250.704 407.107 256.706 399.51 263.275C389.906 271.544 381.614 280.921 374.584 291.405C373.348 293.26 371.881 295.038 371.366 297.279C365.495 297.279 359.649 297.253 353.778 297.356C351.924 297.382 350.972 297.021 350.972 294.857C350.972 280.509 350.585 266.16 353.444 251.992C353.907 249.725 354.886 248.308 357.152 247.664C369.151 244.238 381.279 241.275 393.639 239.369C399.794 238.416 405.896 237.076 412.154 236.844C413.055 237.179 413.39 237.952 413.415 238.776C413.467 241.584 415.089 243.001 417.535 243.774C419.518 244.856 422.145 243.928 423.87 245.783H423.844Z" fill="#C8DBEE"/>
<path d="M450.444 297.304C455.697 290.993 460.718 284.501 465.044 277.494C466.126 275.768 467.207 274.068 467.671 272.033C469.216 267.577 470.787 263.12 472.795 258.844C475.01 257.195 477.688 256.422 480.005 254.902C484.666 251.837 488.091 247.844 490.202 242.692C490.64 241.636 490.691 240.219 492.211 239.884C496.356 240.888 500.451 242.125 504.622 242.821C507.609 243.31 508.716 245.087 509.412 247.638C511.317 254.439 512.476 261.394 513.223 268.375C514.124 277.005 514.742 285.686 514.613 294.393C514.587 296.66 513.995 297.382 511.678 297.356C491.258 297.253 470.812 297.279 450.393 297.279L450.444 297.304Z" fill="#C8DBEE"/>
<path d="M492.237 239.91C489.018 249.415 482.658 255.804 473.208 259.127C466.564 262.373 459.946 261.137 453.638 258.432C445.089 254.774 439.913 247.973 437.441 239.085C436.952 236.226 436.334 233.392 436.643 230.456C437.389 225.819 438.471 221.311 441.046 217.292C441.715 216.236 442.436 215.308 443.544 214.716C446.634 212.114 449.389 209.1 453.2 207.374C459.895 204.334 466.693 203.896 473.697 205.983C474.83 208.688 476.375 210.749 479.697 211.135C481.525 211.341 481.01 212.784 480.186 213.917C479.31 215.154 477.559 215.411 476.478 216.983C479.465 217.395 480.804 215.592 482.22 213.943C482.915 213.144 482.787 211.65 484.306 211.573C484.975 212.449 485.619 213.35 486.289 214.226C492.031 221.001 494.22 228.704 492.546 237.488C492.391 238.287 492.366 239.111 492.263 239.91H492.237Z" fill="#EDB480"/>
<path d="M444.238 35.756C441.457 38.0229 438.96 40.599 437.003 43.5872C436.23 44.7722 435.586 44.8753 434.247 44.5404C422.634 41.6552 412.643 47.0392 408.008 57.6011C407.725 58.2451 407.648 58.9406 406.901 59.3528C401.262 62.4441 399.742 67.6478 399.665 73.5985C395.03 74.0364 390.421 74.3971 385.812 73.4697C380.971 61.9804 388.567 49.641 401.802 47.5029C404.661 47.0392 407.519 46.6785 410.377 47.3741C412.051 47.7862 412.926 47.168 413.802 45.7254C419.184 37.044 426.831 33.0769 437.183 34.4164C439.578 34.7256 442.127 33.9012 444.213 35.7302L444.238 35.756Z" fill="#371E1E"/>
<path d="M443.543 214.716C440.247 219.353 438.29 224.505 437.415 230.095C434.093 235.427 429.02 238.725 423.767 241.739C421.707 242.924 419.853 244.856 417.124 244.392C414.188 243.748 412.489 242.125 412.643 238.905C412.669 238.235 412.36 237.54 412.18 236.87C411.897 229.502 411.613 222.135 411.33 214.767C422.068 214.767 432.831 214.767 443.569 214.742L443.543 214.716Z" fill="#9C6D3E"/>
<path d="M187.537 221.259C187.511 226.179 187.459 231.099 187.434 236.02C187.434 240.94 186.301 242.202 181.202 242.949C176.825 241.223 172.73 239.008 168.971 236.123C161.993 230.79 159.16 223.32 157.821 215.05C157.538 213.324 158.182 212.243 160.242 212.706C168.585 214.561 177.031 214.741 185.528 214.664C186.249 214.664 186.97 214.613 187.459 215.308C187.459 217.292 187.511 219.249 187.511 221.233L187.537 221.259Z" fill="#372218"/>
<path d="M140.44 90.0593C149.195 83.9797 159.083 80.7854 169.538 79.5489C179.658 78.3639 189.649 79.4974 199.253 83.2842C197.708 84.1601 196.344 85.4996 194.361 85.4481C192.816 82.3826 189.7 84.057 188.026 84.3404C185.451 84.7783 182.567 84.0055 180.147 85.7315C176.593 88.2303 172.499 88.256 168.379 87.9211C167.761 87.8696 167.066 87.9211 166.577 88.2303C162.894 90.626 158.877 89.8532 154.912 89.5698C154.088 89.5183 153.238 89.4668 152.517 89.9305C148.964 92.2489 145.153 90.6003 141.47 90.7291C141.084 90.7291 140.724 90.4199 140.466 90.085L140.44 90.0593Z" fill="#EAD4A6"/>
<path d="M140.44 90.0595C143.35 90.652 146.362 89.467 149.246 90.6005C149.478 90.7035 149.993 90.6262 150.122 90.4459C152.311 87.3546 155.89 89.8277 158.465 88.3593C158.619 88.282 158.98 88.2563 159.057 88.3593C160.808 90.6262 162.559 89.1579 164.104 88.179C167.143 86.2469 170.516 87.2258 173.632 87.2001C176.799 87.1743 178.679 84.8558 181.408 84.2891C182.515 84.0573 183.365 82.7435 184.601 84.1088C185.09 84.6498 185.708 84.521 186.275 84.1088C187.279 83.3875 188.258 81.2751 189.339 84.0315C189.339 84.083 190.009 84.0315 190.112 83.8769C192.687 80.322 193.279 83.3617 194.257 85.1135C194.257 85.2423 194.257 85.3711 194.283 85.5256C194.283 86.2212 194.103 86.8652 193.691 87.4577C192.996 88.3593 191.888 88.7972 191.09 89.5958C190.266 90.4459 189.416 90.2656 188.721 89.467C186.558 86.9682 186.198 86.994 184.627 89.8792C184.421 90.2398 184.215 90.6005 183.957 90.9096C183.365 91.4506 182.464 91.7597 182.129 90.9611C181.176 88.7457 179.477 89.4155 177.983 89.8019C175.537 90.3944 172.833 90.111 170.619 91.6824C170.13 92.0173 169.409 91.94 168.816 91.8112C164.928 90.8581 161.503 92.0946 158.233 94.0009C157.744 94.2843 157.177 94.6964 156.946 94.1812C155.916 91.9916 154.448 93.2281 153.135 93.6402C152.336 93.8979 151.538 94.1039 150.714 93.9751C146.311 93.2796 141.908 93.3054 137.504 93.666C136.989 93.7175 136.474 93.563 136.14 93.0993C137.324 91.6824 138.792 90.6778 140.517 90.0337L140.44 90.0595Z" fill="#E7D1A3"/>
<path d="M504.673 161.03C506.141 160 506.296 157.759 508.278 157.244C512.373 160.799 512.836 166.208 509.36 169.918C505.832 173.653 500.296 173.602 496.562 169.763C496.202 169.403 495.867 169.042 495.532 168.681C493.524 164.843 494.039 161.288 496.691 157.965C496.923 157.398 497.257 157.038 497.927 157.295C501.583 157.991 501.789 158.506 500.373 163.529C500.734 164.019 500.94 164.585 501.3 165.075C501.97 165.976 502.871 166.389 503.952 165.899C505.06 165.41 505.214 164.431 505.06 163.349C504.931 162.576 504.364 161.855 504.699 161.005L504.673 161.03Z" fill="#F59C00"/>
<path d="M136.062 93.1248C140.826 92.7127 145.564 92.4035 150.328 93.1248C152.491 93.4597 154.551 92.6096 156.353 91.3216C156.868 92.0944 156.173 93.2279 157.229 93.8977C157.795 91.3989 160.782 92.7642 161.838 90.9609C163.203 92.2747 164.104 91.5019 165.057 90.3427C165.443 89.879 166.319 89.9563 166.782 90.3169C169.074 92.0686 170.902 90.4715 173.014 89.8017C175.614 88.9774 178.421 88.694 181.151 88.3591C181.872 88.2561 182.412 88.9258 182.284 89.8532C182.026 91.3731 182.876 91.0382 183.726 90.7033C183.803 90.8321 183.88 90.9352 183.957 91.064C183.571 92.9187 182.181 93.4082 180.558 93.6143C180.301 93.537 180.043 93.4082 179.863 93.2279C178.344 91.3473 178.576 94.4901 177.571 94.0522C177.288 94.1037 177.005 94.1037 176.722 94.0522C176.361 93.8719 176.799 94.1295 176.438 93.9492C174.172 92.747 172.713 93.3653 172.061 95.8039C171.803 95.9585 171.546 96.0616 171.237 96.0616C169.228 94.825 167.246 93.7689 165.134 95.8812C164.516 97.1177 163.538 97.5814 162.199 97.195C161.323 96.9374 160.448 96.9374 159.572 97.195C158.001 97.4011 156.431 97.6845 154.886 96.9632C153.521 96.3192 152.388 96.9632 151.255 97.6587C150.972 97.7618 150.714 97.7875 150.431 97.736C150.019 97.5557 149.71 97.2981 149.504 96.8859C149.246 95.4948 148.397 95.366 147.264 95.8039C146.131 96.2161 144.843 96.2419 144.045 97.3496C142.345 98.5603 140.311 97.736 138.483 98.2512C137.839 98.4315 137.633 97.5557 137.607 96.9374C137.35 96.6541 138.097 95.5206 137.298 96.0358C135.599 97.1435 134.363 96.654 132.998 95.6751C133.848 94.619 134.698 93.5885 136.088 93.2021L136.062 93.1248Z" fill="#E2CB9F"/>
<path d="M183.726 90.7036C184.988 86.3243 185.091 86.2212 188.515 87.1744C189.339 87.4062 190.472 87.6381 188.979 88.6942C188.696 88.9003 188.953 89.3125 189.236 89.3898C189.571 89.4928 190.266 89.5701 190.292 89.4928C190.833 87.8957 192.635 88.0245 193.588 86.994C195.648 88.1017 196.292 86.3243 197.219 85.165C197.631 84.521 198.172 84.0573 198.996 84.1604C201.107 84.7271 203.013 86.1955 205.382 85.7318C209.965 87.4577 214.111 89.8792 217.793 93.0993C217.072 94.001 216.145 93.8464 215.295 93.4342C213.905 92.7644 212.308 92.6099 210.995 91.7855C208.703 90.3172 207.004 90.8066 205.716 93.0993C205.51 93.2796 205.253 93.4085 204.995 93.4857C203.914 93.4857 202.884 93.6918 201.957 94.3616C201.571 94.5677 201.184 94.6965 200.747 94.5419C200.026 94.748 200.412 92.816 199.021 93.7949C197.579 94.8253 197.425 94.5934 196.961 92.378C197.039 91.9659 196.369 92.4295 196.755 92.3265C197.013 93.6661 196.498 94.6192 195.391 95.3147C194.953 95.4436 194.541 95.392 194.155 95.1344C193.768 94.4131 194.103 93.7433 194.232 93.0478C194.438 92.0174 193.768 91.1415 193.047 91.2445C190.833 91.5794 188.49 90.4717 186.43 91.6825C184.936 92.5584 184.215 92.1462 183.7 90.7036H183.726Z" fill="#E2CB9F"/>
<path d="M107.738 173.293C108.124 171.567 106.939 168.63 109.746 168.63C112.656 168.63 111.085 171.67 111.652 173.318C111.703 173.499 111.652 173.73 111.652 173.937C111.703 179.759 111.188 185.606 111.935 191.428C112.115 192.845 111.935 194.648 110.158 194.829C107.969 195.035 108.381 193.077 108.33 191.711C108.098 185.58 107.918 179.449 107.712 173.318L107.738 173.293Z" fill="#FFDC95"/>
<path d="M127.539 121.59L114.612 119.71C115.076 117.907 115.951 116.284 117.084 114.79C118.449 115.253 119.737 116.052 121.23 116.103C121.925 116.541 126.535 116.232 127.693 115.691C130.5 114.326 131.273 114.532 133.333 117.082C133.333 118.808 132.303 119.684 130.732 119.967C129.47 120.199 128.517 120.895 127.513 121.59H127.539Z" fill="#8E765B"/>
<path d="M230.127 104.846C226.187 106.057 222.557 107.989 218.9 109.844C217.87 109.972 216.84 109.998 215.887 109.483C215.681 109.251 215.578 108.993 215.553 108.684C216.84 105.232 218.874 102.914 222.994 103.532C223.355 103.584 223.741 103.223 224.102 103.043C225.389 102.811 226.651 102.373 227.99 102.502C228.659 103.326 229.741 103.764 230.101 104.846H230.127Z" fill="#8D7559"/>
<path d="M205.33 93.1764C207.004 89.4669 207.21 89.5184 210.815 90.9095C213.081 91.7853 215.192 93.2795 217.819 93.1249C219.699 94.0008 221.192 95.3918 222.583 96.9117C222.196 97.9164 221.398 98.0194 220.6 97.6072C219.724 97.1436 219.029 97.5557 218.282 97.8391C217.999 97.8906 217.716 97.8649 217.433 97.8133C216.609 97.1178 216.454 94.9539 214.574 96.5511C214.394 96.7056 213.905 96.5768 213.725 96.3707C211.407 94.0523 208.188 94.1038 205.33 93.2022V93.1764Z" fill="#DBC49A"/>
<path d="M118.862 111.647C119.119 111.08 119.48 110.616 120.098 110.41C122.389 108.581 124.681 109.766 126.999 110.333C127.951 110.591 128.672 111.106 128.621 112.213C128.029 113.167 127.153 114.017 127.205 115.279C126.355 116.67 125.376 116.516 124.295 115.562C123.754 114.841 124.14 114.017 124.063 113.167C122.209 113.038 119.583 115.331 118.836 111.621L118.862 111.647Z" fill="#AD9674"/>
<path d="M126.921 111.054C124.681 110.539 122.44 109.844 120.071 110.41C120.252 109.972 120.406 109.56 120.586 109.122C121.462 108.813 121.745 108.066 121.951 107.268C122.106 107.061 122.26 106.855 122.415 106.649C124.706 104.46 126.844 106.572 129.058 106.881C129.47 107.551 129.496 108.246 129.187 108.968C128.595 109.844 127.127 109.766 126.921 111.054V111.054Z" fill="#C1AA84"/>
<path d="M132.973 95.5978C134.286 95.1599 136.295 97.298 137.041 94.5158C137.067 94.387 138.2 94.284 138.483 94.5158C139.41 95.3917 138.226 96.0872 138.071 96.8858C135.908 98.1996 133.977 99.9256 131.402 100.492C128.75 100.08 129.883 98.7663 130.681 97.5041C131.248 96.6024 131.943 95.8812 132.999 95.5978H132.973Z" fill="#DCC69C"/>
<path d="M128.775 106.753C128.235 106.933 128.003 108.144 127.127 107.268C125.711 105.825 124.037 106.444 122.415 106.65C122.956 105.387 123.883 104.408 124.913 103.558C126.715 103.043 128.054 104.305 129.599 104.795C130.655 105.748 131.402 106.753 130.114 108.092C128.956 108.376 129.29 107.139 128.775 106.778V106.753Z" fill="#CAB48D"/>
<path d="M118.861 111.647C119.762 113.321 121.23 113.399 122.672 112.703C123.496 112.317 124.166 111.467 125.015 112.343C125.814 113.167 124.32 113.656 124.5 114.455C124.552 114.738 124.5 115.073 124.5 115.357C123.831 116.593 122.955 116.181 122.054 115.691C121.668 115.279 121.307 114.764 120.586 115.047C119.814 115.047 119.016 115.176 118.269 114.79C117.805 114.12 118.011 113.45 118.269 112.78C118.269 112.291 118.32 111.827 118.887 111.673L118.861 111.647Z" fill="#A48C6C"/>
<path d="M129.419 104.897C127.642 105.413 126.458 103.919 124.938 103.558C125.35 102.527 125.994 101.729 126.973 101.214C128.312 100.802 129.29 101.523 130.243 102.296C130.603 102.837 130.655 103.429 130.475 104.047C130.269 104.511 129.934 104.794 129.445 104.897H129.419Z" fill="#D4BF96"/>
<path d="M130.037 102.45C129.007 102.038 127.977 101.6 126.947 101.188C127.926 99.6939 129.188 98.4832 130.655 97.4785C130.578 98.5347 129.368 100.158 131.891 99.9515C132.303 101.137 131.685 101.884 130.861 102.553C130.578 102.682 130.321 102.631 130.063 102.425L130.037 102.45Z" fill="#E3CDA2"/>
<path d="M199.15 84.5469C198.352 84.5469 197.94 84.9848 197.914 85.7834C196.601 86.041 195.107 87.3805 194.206 85.1651C196.034 84.9333 197.064 82.6148 199.227 83.2846C199.923 83.7998 200.721 83.9801 201.571 84.0059C201.081 85.5773 200.051 84.8302 199.124 84.5726L199.15 84.5469Z" fill="#E7D1A3"/>
<path d="M199.15 84.5467C199.974 84.4694 200.927 84.8301 201.597 83.98C202.884 84.4952 204.352 84.6755 205.382 85.7317C202.755 88.179 201.159 85.268 199.15 84.5467Z" fill="#E6D0A4"/>
<path d="M218.283 97.4783C218.875 96.5252 219.596 95.7008 220.677 96.8343C221.398 97.5814 221.939 97.1434 222.583 96.8858C222.789 97.0919 222.995 97.298 223.201 97.5041C223.252 98.0708 223.252 98.6633 222.943 99.1785C222.763 99.4104 222.531 99.5907 222.248 99.6938C220.549 99.6165 219.107 99.0755 218.257 97.4783H218.283Z" fill="#D0B991"/>
<path d="M228.016 102.502C226.96 103.455 225.801 103.687 224.488 103.094C224.385 102.991 224.308 102.863 224.205 102.76C224.05 102.322 224.102 101.884 224.282 101.472C224.771 100.699 225.261 99.9001 226.368 100.596C227.063 101.137 227.784 101.6 228.042 102.528L228.016 102.502Z" fill="#9F8768"/>
<path d="M226.342 100.57C225.389 100.493 225.106 101.42 224.488 101.832C223.922 102.373 223.278 102.734 222.505 102.811C221.656 102.811 221.089 102.528 221.063 101.6C221.321 100.673 222.248 100.209 222.634 99.3591C223.896 98.4575 224.746 99.5909 225.776 99.9516C225.982 100.158 226.162 100.364 226.368 100.57H226.342Z" fill="#BBA480"/>
<path d="M118.243 112.781C118.372 113.476 118.166 114.301 118.939 114.79C119.788 115.048 120.612 115.408 121.359 115.898C121.514 116.13 121.514 116.361 121.359 116.593C119.685 116.593 117.806 117.083 117.11 114.79C117.497 114.12 117.857 113.45 118.243 112.755V112.781Z" fill="#AD9674"/>
<path d="M225.75 99.9517C224.694 99.7456 223.664 99.5653 222.609 99.3592C222.609 98.6894 222.48 97.9681 223.201 97.5044C224.257 98.0969 225.081 98.9212 225.75 99.9259V99.9517Z" fill="#C9B28B"/>
<path d="M121.952 107.293C122.904 108.942 122.183 109.354 120.587 109.148C120.819 108.375 121.256 107.731 121.952 107.293Z" fill="#CAB490"/>
<path d="M418.05 158.068C416.557 159.974 414.214 159.484 412.36 159.613C402.034 160.335 392.841 157.939 385.992 149.412C383.108 145.805 382.953 140.164 385.94 135.424C390.343 128.469 403.193 122.647 411.201 123.986C411.484 124.038 411.742 124.27 411.999 124.424C413.081 125.017 413.544 126.073 413.93 127.129C417.149 135.965 419.621 144.93 419.183 154.461C419.132 155.723 419.492 157.192 418.05 158.068V158.068Z" fill="#010101"/>
<path d="M418.051 158.068C419.441 146.682 416.377 136.043 412.412 125.584C412.257 125.197 412.154 124.811 412.025 124.424C415.064 123.162 418.077 124.064 421.012 124.682C429.098 126.357 436.076 129.757 440.325 137.434C441.458 139.469 441.355 141.401 440.711 143.281C438.084 151.01 426.832 158.635 418.566 158.403C418.411 158.403 418.231 158.171 418.077 158.068H418.051Z" fill="#EFECEF"/>
<path d="M455.568 194.957C443.285 195.421 434.839 185.194 432.882 175.353C432.522 173.55 432.882 171.824 435.174 171.386C437.414 170.948 438.779 172.03 439.191 174.143C440.092 178.625 442.023 182.566 445.628 185.374C453.431 191.48 463.911 189.135 469.138 180.402C470.915 177.44 471.919 174.271 472.589 170.948C473.001 168.862 473.902 167.496 476.297 167.831C478.82 168.192 479.078 170.072 478.769 172.004C477.069 182.309 471.121 191.66 459.791 194.622C458.246 195.035 456.727 194.88 455.594 194.957H455.568Z" fill="#D05953"/>
<path d="M414.703 113.811C410.248 112.677 405.69 112.497 401.055 113.373C394.901 114.558 389.339 117.031 384.318 120.766C383.983 121.024 383.674 121.282 383.339 121.513C381.743 122.673 379.992 123.703 378.524 121.616C377.159 119.684 378.421 118.139 379.992 116.928C385.837 112.394 392.352 109.251 399.639 107.86C404.429 106.933 409.218 106.83 414.008 107.912C414.703 108.066 415.398 108.298 416.068 108.556C417.561 109.122 418.025 110.282 417.793 111.776C417.535 113.502 416.171 113.682 414.703 113.811V113.811Z" fill="#030201"/>
<path d="M484.279 211.573C483.095 214.329 481.524 216.725 478.537 217.91C477.147 218.451 476.014 218.348 475.447 217.06C474.803 215.617 476.142 215.514 477.095 215.154C478.563 214.613 479.799 213.762 480.571 211.933C477.172 211.212 473.13 211.032 473.696 205.957C476.477 200.908 480.056 200.985 484.254 206.189C485.567 204.927 486.056 203.329 486.365 201.578C486.52 200.65 486.803 199.336 488.168 199.491C489.558 199.671 489.352 200.934 489.326 201.938C489.198 204.72 488.09 207.09 485.927 208.842C485.026 209.589 484.176 210.233 484.305 211.547L484.279 211.573Z" fill="#FEE8D0"/>
<path d="M497.927 157.295C497.515 157.527 497.103 157.733 496.691 157.965C496.485 157.939 496.227 157.965 496.099 157.836C494.991 156.96 493.678 148.305 494.451 147.145C494.888 146.476 495.455 146.733 496.073 146.733C498.339 146.785 499.91 147.764 500.991 149.747C502.073 151.705 501.12 153.199 500.219 154.848C499.652 155.878 498.777 156.522 497.953 157.269L497.927 157.295Z" fill="#B47A43"/>
<path d="M504.673 161.03C505.291 162.035 506.296 162.834 506.115 164.225C505.858 166.157 504.673 167.213 502.845 167.007C500.991 166.775 499.549 165.873 500.373 163.529C502.098 163.194 503.231 161.855 504.673 161.03V161.03Z" fill="#FFFCF8"/>
<path d="M202.704 141.942C212.669 141.066 220.703 144.853 226.445 152.787C233.192 162.112 230.334 171.129 219.75 175.662C213.545 178.316 207.081 179.733 200.309 179.527C199.408 178.754 199.022 177.723 198.738 176.616C195.906 165.41 197.193 154.539 201.21 143.848C201.519 143.049 202.009 142.431 202.678 141.942H202.704Z" fill="#0A0B0C"/>
<path d="M202.704 141.941C199.33 150.958 197.322 160.18 198.378 169.918C198.738 173.189 199.768 176.306 200.335 179.526C193.331 179.294 187.331 177.105 183.185 171.051C180.713 167.445 180.533 163.58 181.692 159.613C184.756 149.103 192.326 143.822 202.704 141.941V141.941Z" fill="#F4F2EF"/>
<path d="M141.135 172.417C141.367 169.944 141.934 166.749 143.916 163.967C145.024 162.422 146.491 161.7 148.139 162.55C149.865 163.426 149.993 165.126 149.144 166.801C146.749 171.541 146.491 176.152 149.71 180.686C154.345 187.229 164.568 187.332 169.229 180.815C169.821 179.99 170.336 179.089 171.057 178.342C172.164 177.182 173.477 176.848 174.894 177.878C176.258 178.857 176.516 180.016 175.898 181.613C173.426 187.822 164.928 192.639 157.77 191.789C148.191 190.655 141.058 182.669 141.11 172.391L141.135 172.417Z" fill="#372218"/>
<path d="M207.132 125.377C213.106 125.764 218.54 126.923 222.763 131.225C223.406 131.895 224.179 132.642 223.175 133.569C222.428 134.265 221.681 133.827 221.012 133.26C211.948 125.815 202.42 127.516 192.841 131.998C191.373 132.693 189.983 133.595 188.592 134.471C187.691 135.038 186.764 135.733 185.992 134.471C185.322 133.363 186.326 132.745 187.047 132.281C191.837 129.061 197.013 126.665 202.806 125.918C204.326 125.712 205.845 125.558 207.132 125.429V125.377Z" fill="#E3CCA1"/>
<path d="M112.398 163.477C112.372 165.461 110.827 166.491 108.613 165.744C104.699 164.405 102.845 158.48 105.317 155.208C106.166 154.075 107.248 153.328 108.767 153.663C110.158 153.972 110.673 154.951 110.904 156.316C111.291 158.634 111.857 160.901 112.398 163.452V163.477Z" fill="#453323"/>
<path d="M159.057 120.973C158.593 121.72 158.362 122.905 157.203 122.75C151.95 122.132 146.723 124.09 141.418 122.673C139.384 122.132 137.118 122.364 134.955 122.235C134.749 122.029 134.62 121.797 134.543 121.539C134.903 119.247 136.5 120.225 137.762 120.354C139.847 121.204 140.8 119.169 142.319 118.551C144.173 116.542 146.233 116.49 147.984 118.474C148.886 119.504 150.817 118.062 151.049 120.019C151.28 120.715 151.28 121.385 150.791 121.771C151.976 120.354 153.752 119.504 155.529 118.577C157.46 118.268 157.975 120.045 159.057 120.973V120.973Z" fill="#7F674E"/>
<path d="M194.85 117.907C190.498 119.633 185.786 119.375 181.28 120.328C180.636 119.993 179.941 119.71 179.786 118.886C179.838 117.546 180.61 116.876 181.872 116.67C183.185 116.464 184.37 115.794 185.657 115.434C188.902 115.562 192.146 115.743 194.85 117.881V117.907Z" fill="#796049"/>
<path d="M194.85 117.907C191.811 117.056 188.773 116.129 185.58 116C184.988 114.712 186.867 114.3 186.61 113.115C186.945 112.085 187.769 111.647 188.696 111.338C189.829 111.441 191.065 110.977 192.069 111.904C192.455 112.445 192.841 112.986 193.228 113.527C193.794 114.944 195.725 114.712 196.369 116.052C196.498 116.49 196.421 116.902 196.112 117.263C195.7 117.469 195.262 117.7 194.85 117.907V117.907Z" fill="#90785C"/>
<path d="M178.833 120.998C178.112 121.797 177.056 121.771 176.284 121.488C174.121 120.715 172.19 120.251 170.181 122.003C169.331 122.75 168.636 121.848 168.276 120.947C167.812 119.968 168.482 119.35 168.945 118.628C169.486 118.01 169.743 117.083 170.722 116.928C171.005 116.928 171.288 117.005 171.52 117.16C172.773 118.482 173.932 118.233 174.996 116.413C175.537 116.078 176.129 116.052 176.722 116.232C177.906 116.825 179.168 117.366 179.631 118.783C179.889 119.736 178.988 120.225 178.782 120.998H178.833Z" fill="#836A51"/>
<path d="M196.111 117.263C196.111 116.851 196.085 116.439 196.06 116.001C196.781 111.57 199.768 113.296 202.265 113.734C202.677 113.373 202.883 112.884 203.167 112.471C203.682 111.879 204.325 111.75 205.072 111.905C205.948 112.317 206.926 112.497 207.776 112.961C207.673 114.249 206.566 114.507 205.69 114.867C202.626 116.155 199.356 116.696 196.085 117.263H196.111Z" fill="#7B624A"/>
<path d="M207.802 112.935C206.772 113.476 205.87 113.63 205.304 112.317C204.454 111.492 203.63 112.188 202.755 112.265C201.596 112.368 200.205 112.6 200.18 110.719C203.115 108.221 206.231 107.164 209.862 109.303C210.119 109.457 210.299 109.663 210.454 109.921C210.48 110.204 210.402 110.462 210.222 110.668C209.681 111.132 208.857 111.389 208.78 112.291C208.729 112.548 208.6 112.754 208.42 112.935H208.111H207.802Z" fill="#967D60"/>
<path d="M208.42 112.935C208.42 112.729 208.42 112.549 208.42 112.342C208.291 111.029 209.424 110.9 210.248 110.436C210.866 108.504 211.716 106.855 214.213 107.087C215.192 107.19 215.707 107.628 215.784 108.581C215.784 108.787 215.784 108.994 215.784 109.2C216.943 111.364 214.291 110.642 213.904 111.647C212.231 112.832 210.351 113.09 208.368 112.909L208.42 112.935Z" fill="#8C7459"/>
<path d="M159.058 120.972C157.204 121.565 157.178 118.525 155.35 119.092C154.654 118.216 153.753 117.598 152.697 117.185C152.594 116.928 152.543 116.644 152.594 116.361C154.938 114.3 158.388 114.661 160.551 117.16C160.757 118.422 159.882 119.066 159.135 119.813C159.135 120.199 159.083 120.586 159.083 120.946L159.058 120.972Z" fill="#8F775B"/>
<path d="M127.539 121.59C128.08 121.153 126.638 119.71 128.775 119.813C130.243 119.89 132.329 119.221 133.101 117.263C134.337 118.345 133.565 120.174 134.62 121.307C133.642 122.157 132.226 121.23 131.273 122.157C130.037 121.977 128.646 122.621 127.539 121.59Z" fill="#7F664D"/>
<path d="M159.109 119.813C159.495 118.963 159.881 118.113 160.268 117.263C160.371 117.005 160.525 116.773 160.705 116.541C162.585 114.944 163.306 117.366 164.645 117.649C164.825 117.881 164.902 118.138 164.928 118.448C164.465 120.328 162.662 119.736 161.478 120.328C160.68 120.148 159.881 119.993 159.083 119.813H159.109Z" fill="#897056"/>
<path d="M161.504 120.328C161.864 118.602 164.079 119.916 164.594 118.474C165.752 118.113 166.242 118.911 166.731 119.684C166.86 120.148 166.808 120.586 166.448 120.947C165.572 120.534 164.98 123.085 163.615 120.972C162.868 119.839 162.431 122.312 161.426 122.569C160.628 121.771 161.684 121.075 161.504 120.328V120.328Z" fill="#856D52"/>
<path d="M213.982 111.673C214.291 111.338 213.261 110.153 214.781 110.565C215.862 110.849 215.682 109.844 215.862 109.226C216.944 109.148 217.999 109.226 218.926 109.818C217.356 110.668 215.862 111.673 213.982 111.673V111.673Z" fill="#7F664E"/>
<path d="M166.447 120.947V119.71C167.58 117.52 168.121 117.392 169.537 119.092C169.125 119.71 168.713 120.328 168.301 120.947C167.683 120.947 167.065 120.947 166.447 120.947Z" fill="#866E53"/>
<path d="M178.834 120.998C177.52 119.89 179.323 119.762 179.426 119.118C179.606 118.86 179.812 118.834 180.018 119.118C180.61 119.375 181.048 119.762 181.28 120.354C180.456 120.56 179.632 120.792 178.808 120.998H178.834Z" fill="#91795D"/>
<path d="M131.273 122.157C132.123 121.101 133.102 120.792 134.312 121.539C134.544 121.256 134.75 121.256 134.956 121.539C134.956 121.771 134.956 122.003 134.956 122.235C133.72 122.235 132.484 122.183 131.273 122.157Z" fill="#988063"/>
<path d="M438.007 239.266C439.552 242.486 440.634 245.912 442.874 248.771C450.29 258.303 459.946 261.626 471.688 259.282C472.177 259.179 472.692 259.153 473.207 259.102C471.405 263.429 470.658 268.195 467.671 272.033C459.122 271.724 451.655 268.401 444.496 264.022C437.415 259.694 431.492 254.181 426.883 247.277C426.368 246.479 425.776 245.809 424.9 245.423C426.729 242.512 430.128 242.048 432.831 240.58C434.351 239.755 435.973 238.519 438.007 239.266V239.266Z" fill="#E3E4E4"/>
<path d="M438.007 239.266C433.449 240.94 429.02 242.821 424.9 245.422C424.54 245.551 424.179 245.654 423.819 245.783C421.527 245.551 419.158 245.551 417.072 244.366C423.613 241.429 429.664 237.746 434.685 232.542C435.535 231.666 436.488 230.893 437.389 230.095C437.595 233.16 437.801 236.226 438.007 239.291V239.266Z" fill="#CB8C4E"/>
<path d="M462.006 239.394C457.86 237.514 454.976 234.397 453.663 230.121C452.169 225.278 454.152 221.903 459.534 220.074C463.216 218.837 469.988 218.94 473.361 223.268C473.387 223.68 473.464 223.139 473.464 223.552C473.567 228.523 466.769 237.9 462.006 239.394Z" fill="#4BB1C9"/>
<path d="M462.006 239.394C467.542 235.247 471.302 229.863 473.336 223.268C476.889 226.205 478.1 230.095 477.43 234.474C476.22 242.537 468.031 243.284 462.006 239.394V239.394Z" fill="white"/>
<path d="M455.311 250.368C452.427 250.42 449.543 248.205 448.925 245.577C448.693 244.572 448.77 243.645 449.671 243.207C450.676 242.718 451.242 243.336 451.783 244.315C453.869 248.127 456.495 248.205 459.173 244.65C459.817 243.774 460.435 242.434 461.774 243.362C462.907 244.16 462.34 245.397 461.851 246.427C460.847 248.488 457.68 250.343 455.311 250.368Z" fill="#D45C9D"/>
<path d="M194.231 85.165C195.313 86.2727 196.703 85.5772 197.939 85.7833C196.806 86.6334 195.725 87.5093 196.575 89.2095C194.695 89.2868 194.592 87.6381 193.613 87.0198C193.613 86.35 193.51 85.603 194.231 85.165V85.165Z" fill="#E6D0A4"/>
<path d="M130.655 102.424C131.067 101.6 131.479 100.776 131.891 99.9514C133.823 98.6634 135.702 97.2723 138.071 96.8601C139.925 98.1481 141.779 96.7828 143.633 96.8601C145.693 95.6236 147.753 95.1341 149.813 96.8601C150.019 97.0662 150.225 97.2723 150.431 97.4784C150.38 97.6072 150.328 97.736 150.303 97.8648C149.324 98.8179 147.599 99.2301 148.217 101.265C148.397 101.883 147.65 102.45 147.11 102.888C146.723 103.146 146.337 103.275 145.925 102.965C145.281 101.549 144.38 100.364 142.861 99.7711C142.526 100.621 143.144 102.94 140.93 101.136C139.565 100.029 138.252 99.2559 136.552 100.338C135.548 100.621 134.647 101.111 133.9 101.883C133.179 101.832 132.664 102.218 132.2 102.734C131.634 102.914 131.093 102.888 130.655 102.424Z" fill="#D6BF95"/>
<path d="M183.726 90.7292C184.601 90.961 184.988 91.6823 186.43 90.8837C188.567 89.7245 191.708 89.9306 194.103 90.858C196.266 91.6823 194.901 93.5886 194.206 95.0312C194.618 96.0101 194.386 96.9375 193.537 97.427C192.713 97.9164 192.043 97.1693 191.425 96.6284C189.468 95.4949 192.635 93.3052 190.859 92.7127C189.854 92.3779 188.438 94.2069 186.764 93.5371C184.988 92.8416 183.649 94.1811 182.155 94.7994C181.846 94.8509 181.563 94.8251 181.254 94.7994C180.584 94.4645 179.76 94.2584 179.992 93.228C181.64 93.0219 182.979 92.3521 183.7 90.7549L183.726 90.7292Z" fill="#DAC499"/>
<path d="M151.023 97.5044C151.307 95.8299 153.161 95.5465 153.83 95.8557C155.761 96.7831 157.77 96.3451 159.675 96.8861C159.727 97.0149 159.804 97.118 159.856 97.2468C159.907 98.0969 159.675 98.8697 159.186 99.5652C158.62 100.158 158.053 100.776 157.203 101.034C156.791 101.111 156.379 101.085 155.967 100.956C154.757 100.415 153.933 99.4622 153.238 98.3802C152.491 98.0969 151.513 98.3802 151.023 97.5044V97.5044Z" fill="#DAC399"/>
<path d="M159.649 96.8861C160.216 95.392 161.297 96.0876 162.147 96.3967C163.229 96.7831 164.078 96.8861 164.593 95.6754C167.22 95.1344 166.241 97.4529 166.859 98.5091C166.937 100.518 165.366 101.472 164.156 102.657C162.559 102.167 160.963 101.678 160.164 100.003C162.25 98.6121 161.04 97.762 159.675 96.9119L159.649 96.8861Z" fill="#D6C096"/>
<path d="M180.017 93.1765C180.429 93.5886 180.841 94.0008 181.253 94.413C179.065 94.8767 180.558 97.4528 179.013 98.2771C176.927 97.53 174.97 96.4996 172.653 97.9165C171.88 98.3801 170.953 97.5558 170.979 96.3966C171.056 96.1132 171.185 95.8556 171.391 95.6753C171.597 95.6753 171.803 95.6753 172.009 95.6753C173.168 93.769 174.945 93.4598 176.953 93.8205C177.159 93.8205 177.365 93.8205 177.571 93.8205C178.344 93.4341 179.039 92.7386 180.043 93.2022L180.017 93.1765Z" fill="#D5BF95"/>
<path d="M171.391 95.6498C171.391 95.8559 171.391 96.0619 171.391 96.268C170.825 97.2985 169.949 97.6076 168.842 97.4273C168.379 97.3757 167.915 97.1954 167.477 97.4788C167.271 97.7364 167.117 98.0198 166.937 98.2774C166.808 98.4577 166.653 98.6123 166.447 98.7153C165.186 98.0713 166.679 95.8043 164.619 95.6498C165.211 93.7177 168.276 92.7388 169.666 94.0268C170.233 94.5678 170.825 95.1088 171.417 95.624L171.391 95.6498Z" fill="#DCC59A"/>
<path d="M176.953 93.7948C175.305 94.4131 173.657 95.0313 172.009 95.6496C170.953 94.3615 172.086 92.1976 172.292 92.1203C174.146 91.5021 175.743 92.2234 176.953 93.7948Z" fill="#DCC59A"/>
<path d="M149.787 96.8862C147.727 96.3968 145.667 96.3968 143.607 96.8862C144.921 94.9284 147.187 94.8769 149.118 94.645C150.508 94.4647 150.328 95.8816 149.787 96.8862Z" fill="#DBC49A"/>
<path d="M151.024 97.5044C151.848 97.5044 152.672 97.5044 153.496 97.5044C154.217 99.2304 153.418 100.003 151.796 99.9259C150.277 99.8486 149.659 98.9985 150.406 97.5044C150.612 97.5044 150.818 97.5044 151.024 97.5044Z" fill="#D6BF95"/>
<path d="M180.018 93.1763C179.245 93.5885 178.447 93.8976 177.546 93.7946C177.855 93.2793 178.37 92.8157 178.447 92.2747C178.576 91.1927 179.22 91.1927 179.889 91.4503C180.996 91.8883 180.121 92.5838 180.018 93.1763Z" fill="#DCC59A"/>
<path d="M205.33 93.1766C208.343 92.8417 211.175 93.0735 213.467 95.4178C213.931 95.8815 214.626 96.6285 215.115 95.495C215.527 94.5419 216.197 94.1297 216.995 94.5419C217.639 94.8768 217.433 95.7784 217.278 96.474C217.175 96.9376 217.278 97.2725 217.69 97.4786C218.051 98.7924 217.484 99.488 216.197 99.694C214.755 99.05 213.313 99.3076 211.845 99.6168C210.995 99.4879 210.3 99.8744 209.527 100.106C207.648 100.673 205.279 102.631 204.249 98.9212C204.146 98.5863 202.935 98.5606 202.678 97.762C201.828 95.933 200.232 97.6589 199.124 97.0407C198.712 96.8088 198.403 96.4739 198.326 95.9845C198.738 94.6449 199.305 93.5888 201.004 94.3616C201.21 94.1555 201.416 93.9494 201.622 93.7433C202.601 93.2796 203.682 93.3311 204.712 93.1251C204.918 93.1251 205.124 93.1251 205.33 93.1251V93.1766Z" fill="#D0B991"/>
<path d="M191.76 96.268C193.64 97.9424 193.691 96.0103 194.232 95.0314C194.644 95.0314 195.056 95.0314 195.468 95.0314C197.064 94.9799 197.09 96.6544 196.807 97.0408C195.365 99.0243 197.734 98.4319 198.069 99.1274C198.635 100.158 197.837 100.931 197.579 101.832C197.373 102.193 197.09 102.476 196.678 102.631C196.086 102.708 195.622 102.451 195.185 102.116C194.412 101.42 193.64 100.673 192.713 100.158C192.146 99.9775 191.399 99.282 191.116 99.5911C188.927 102.013 189.082 99.4623 188.541 98.4319C188.618 95.1602 189.082 94.8769 191.786 96.2422L191.76 96.268Z" fill="#CFB890"/>
<path d="M197.914 99.3592C196.009 99.3077 196.112 99.3077 196.189 97.2726C196.215 96.5513 196.318 95.5724 195.468 95.0572C196.163 93.7692 196.781 92.4296 197.039 90.4976C197.785 91.9402 196.73 93.254 198.017 93.9753C199.047 93.8464 198.79 92.4038 199.742 92.172C200.18 92.9191 200.592 93.6661 201.03 94.4132C199.768 94.4647 199.099 95.2633 198.558 96.268C199.279 97.4787 199.073 98.5091 197.914 99.3335V99.3592Z" fill="#D6BF96"/>
<path d="M204.712 93.2024C203.837 94.2328 202.678 93.666 201.622 93.8206C202.575 93.2796 203.45 92.1977 204.712 93.2024Z" fill="#DBC49A"/>
<path d="M134.981 121.565C134.775 121.565 134.543 121.565 134.337 121.565C133.797 120.174 132.973 118.86 133.127 117.289C131.376 115.331 129.522 114.738 127.411 116.799C127.024 117.186 126.587 117.958 125.917 117.366C124.578 116.181 123.522 116.67 122.467 117.752C122.08 118.165 121.643 118.422 121.205 117.83C120.896 117.417 122.08 117.134 121.359 116.619C121.359 116.413 121.385 116.232 121.411 116.026C121.437 115.923 121.462 115.82 121.514 115.717C121.643 115.563 121.823 115.46 122.055 115.408C122.879 115.408 123.703 116.001 124.527 115.408C125.531 116.052 126.432 116.129 126.999 114.841C127.411 114.326 127.977 114.146 128.595 114.069C131.479 113.425 134.157 113.991 136.655 115.563C137.273 115.949 137.917 116.207 137.762 117.108C136.784 118.654 138.123 118.577 138.972 118.834C139.513 119.169 140.183 119.581 139.925 120.225C139.462 121.333 138.251 120.586 137.479 120.972C136.578 120.895 135.445 119.865 135.007 121.591L134.981 121.565Z" fill="#947C5F"/>
<path d="M215.836 108.607C213.982 107.268 212.385 107.165 211.458 109.638C211.226 110.204 210.814 110.359 210.299 110.436V109.818C210.093 109.586 209.939 109.354 209.81 109.071C209.475 107.474 210.531 106.598 211.587 105.722C212.857 105.378 213.535 104.571 213.621 103.3C213.776 103.043 213.982 102.862 214.239 102.759C217.097 102.759 219.981 102.322 222.84 102.656C223.458 102.45 223.998 102.605 224.462 103.043L224.488 103.069C223.921 103.816 223.715 104.666 222.196 104.176C220.471 103.635 219.827 104.743 218.462 106.289C217.767 107.087 216.788 107.937 215.81 108.607H215.836Z" fill="#9F8768"/>
<path d="M215.836 99.3592C217.046 99.3592 217.226 98.303 217.69 97.5044C217.896 97.5044 218.102 97.5044 218.308 97.5044C219.75 98.0969 221.012 99.1531 222.634 99.3592C223.329 100.724 222.582 101.111 221.372 101.24C219.467 101.497 217.844 100.158 215.965 100.235C215.681 99.9774 215.63 99.6941 215.81 99.3592H215.836Z" fill="#C9B28B"/>
<path d="M126.921 111.054C125.273 108.118 127.745 109.354 128.826 109.2C129.032 109.019 129.29 108.916 129.573 108.891C130.371 108.942 130.886 108.684 131.015 107.757C131.247 105.98 132.457 105.258 134.131 105.155C136.5 106.778 136.474 108.478 134.054 111.312C132.715 111.956 131.427 112.78 129.908 113.064C129.316 113.141 128.723 113.296 128.183 112.935C128.208 112.033 128.183 111.158 126.947 111.08L126.921 111.054Z" fill="#B79F7B"/>
<path d="M128.157 112.909C128.569 112.703 129.007 112.497 129.419 112.317C130.192 113.399 129.445 114.069 128.775 114.764C128.157 114.764 127.565 114.816 126.947 114.816C126.741 113.811 125.917 112.368 128.157 112.909V112.909Z" fill="#BCA47F"/>
<path d="M129.393 109.277C129.213 109.277 129.007 109.225 128.827 109.2C128.827 108.375 128.801 107.577 128.775 106.752C129.187 107.165 129.625 107.551 130.037 107.963C130.526 107.963 130.835 108.118 130.629 108.659C130.398 109.2 130.011 109.432 129.419 109.251L129.393 109.277Z" fill="#DAC499"/>
<path d="M129.394 109.277C129.806 108.942 130.733 108.865 130.037 107.989C130.681 106.804 129.574 105.954 129.394 104.923C129.6 104.717 129.806 104.511 130.012 104.305C131.685 103.403 133.102 103.3 133.72 105.541C132.741 106.263 131.505 106.598 131.711 108.427C131.84 109.637 130.707 110.333 129.394 109.277V109.277Z" fill="#C4AD87"/>
<path d="M121.385 116C120.329 116.052 119.377 115.897 118.913 114.764C119.531 113.785 120.149 114.609 120.767 114.764C121.9 114.712 121.771 115.305 121.385 116Z" fill="#B29A78"/>
<path d="M121.385 116C121.385 115.485 121.256 115.022 120.767 114.764C120.998 114.352 121.256 113.759 121.771 114.068C122.028 114.223 121.951 114.944 122.028 115.408C121.822 115.614 121.616 115.82 121.41 116H121.385Z" fill="#AD9674"/>
<path d="M133.745 105.516C132.767 104.331 131.428 104.228 130.037 104.279C130.037 103.661 130.037 103.069 130.037 102.45C130.243 102.45 130.449 102.45 130.629 102.45C131.247 102.45 131.865 102.45 132.483 102.45C132.612 102.45 132.767 102.502 132.895 102.502C133.719 102.991 134.518 103.094 135.213 102.27C136.037 102.399 136.475 102.94 136.629 103.713C136.887 104.279 135.213 105.619 137.402 105.439C137.891 105.387 138.251 106.237 138.457 106.804C138.947 109.303 136.552 110.282 135.702 112.059C133.797 112.883 133.668 112.806 133.719 111.054C134.672 109.2 136.655 107.345 133.719 105.49L133.745 105.516Z" fill="#CCB58D"/>
<path d="M224.462 103.043C223.844 103.043 223.226 103.043 222.634 103.043C222.428 102.914 222.351 102.759 222.428 102.63C222.505 102.502 222.582 102.424 222.634 102.424C223.072 101.677 223.818 101.832 224.488 101.806C224.488 102.218 224.488 102.605 224.488 103.017L224.462 103.043Z" fill="#AD9673"/>
<path d="M222.608 102.425C222.608 102.631 222.608 102.837 222.608 103.043C219.724 102.837 216.84 104.202 213.956 103.043C213.621 102.682 213.57 102.27 213.699 101.832C214.085 100.853 215.63 101.214 215.81 99.9773C217.896 99.3076 219.57 100.57 221.346 101.24C221.372 102.038 221.81 102.425 222.582 102.45L222.608 102.425Z" fill="#B49C79"/>
<path d="M415.811 149.747C415.811 150.752 415.811 151.37 415.811 151.988C415.811 153.044 415.708 154.229 414.343 154.204C412.592 154.204 413.391 152.684 413.391 151.885C413.391 149.232 413.236 146.604 412.747 144.002C412.592 143.152 412.747 142.199 413.751 142.122C414.652 142.07 415.245 142.895 415.167 143.771C415.013 145.935 416.249 147.944 415.811 149.721V149.747Z" fill="#F3E2EF"/>
<path d="M413.493 136.97C413.313 137.794 413.545 139.185 412.36 138.747C410.352 138 410.738 135.759 410.223 134.11C410.017 133.44 410.146 132.358 411.15 132.616C413.467 133.183 412.952 135.45 413.519 136.97H413.493Z" fill="#F4E3F0"/>
<path d="M481.035 207.399C481.112 208.172 480.469 208.404 479.902 208.353C478.743 208.25 477.224 208.353 476.812 207.039C476.555 206.111 477.507 205.467 478.563 205.442C479.876 205.39 480.546 206.24 481.035 207.425V207.399Z" fill="#D19459"/>
<path d="M204.635 161.545C203.733 165.075 204.248 168.939 204.918 172.777C205.072 173.627 204.995 174.477 203.914 174.683C202.935 174.889 202.394 174.426 202.111 173.473C200.798 168.939 201.519 164.327 201.673 159.742C201.699 159.021 202.446 158.454 203.244 158.712C204.403 159.072 204.66 160.077 204.609 161.52L204.635 161.545Z" fill="#F3EFEC"/>
<path d="M206.489 146.785C207.931 146.965 208.214 147.841 207.957 148.794C207.468 150.649 206.85 152.452 206.18 154.255C205.897 155.028 205.305 155.724 204.3 155.389C203.502 155.105 203.399 154.358 203.451 153.611C203.579 151.422 204.403 149.464 205.485 147.635C205.717 147.248 206.232 147.017 206.489 146.81V146.785Z" fill="#F3EFEC"/>
<path d="M152.877 116.593C152.877 116.799 152.877 117.005 152.877 117.237C153.598 119.118 153.212 119.607 150.405 120.329C150.405 120.225 150.379 120.045 150.379 120.045C148.268 120.174 147.109 118.371 145.409 117.649C143.942 117.031 143.813 119.478 142.397 119.118C141.495 118.19 142.01 117.057 141.933 116.027C141.985 115.743 142.062 115.486 142.216 115.254C143.015 114.301 143.993 114.61 144.972 114.816C145.255 114.867 145.512 114.945 145.796 115.022C147.598 115.382 149.426 115.073 151.255 115.254C152.336 115.357 152.619 115.846 152.903 116.645L152.877 116.593Z" fill="#8C7459"/>
<path d="M142.346 115.975C143.041 117.005 142.166 118.061 142.346 119.092C140.775 119.942 139.874 122.544 137.402 120.921C136.99 119.762 140.518 121.204 138.638 119.066C138.586 118.293 138.973 117.649 139.307 116.98C139.436 116.773 139.591 116.593 139.771 116.413C139.977 116.284 140.183 116.181 140.415 116.104C140.852 115.975 141.29 115.82 141.754 115.717C141.985 115.691 142.191 115.769 142.346 115.949V115.975Z" fill="#937B5E"/>
<path d="M150.405 120.328C151.152 119.247 153.341 119.324 152.877 117.237C154.989 116.129 155.323 117.392 155.349 119.092C154.062 121.05 151.796 121.282 149.71 122.389C149.967 121.488 151.178 121.204 150.405 120.328Z" fill="#876E54"/>
<path d="M180.043 119.092C179.837 119.092 179.631 119.092 179.451 119.092C178.627 118.268 177.803 117.443 176.953 116.619C177.005 116.49 177.056 116.361 177.082 116.233C177.571 115.64 178.138 115.46 178.859 115.82C179.065 116.052 179.065 116.336 179.142 116.619C179.142 116.336 179.193 116.052 179.348 115.82C179.914 115.563 180.404 115.254 180.301 114.507C180.378 114.249 180.532 114.043 180.738 113.863C181.125 113.656 181.537 113.631 181.949 113.682C183.468 115.202 184.369 113.167 185.605 113.064C186.069 113.064 186.455 113.167 186.79 113.528C187.433 114.867 185.631 114.996 185.579 116.001C184.421 116.516 183.262 117.469 182.129 117.443C180.661 117.392 180.507 118.268 180.017 119.092H180.043Z" fill="#856D53"/>
<path d="M200.386 110.462C200.669 112.188 202.034 111.647 203.064 111.621C203.914 111.621 204.892 110.977 205.33 112.291C204.635 112.291 203.914 112.188 203.476 112.909C203.09 113.244 202.806 113.605 202.884 114.146C202.214 115.46 201.622 115.15 200.54 114.378C199.485 113.605 197.347 111.467 197.631 115.434C197.682 116.129 196.652 115.898 196.086 115.975C195.39 114.738 192.249 116.542 192.996 113.502C192.635 112.884 193.047 112.471 193.408 112.033C194.077 111.544 194.747 111.054 195.468 110.668C195.725 110.565 195.983 110.488 196.266 110.436C197.502 110.359 198.764 110.204 200 110.256C200.128 110.333 200.257 110.385 200.36 110.462H200.386Z" fill="#866D53"/>
<path d="M191.76 112.317C190.859 111.466 189.648 112.188 188.67 111.698C186.764 112.291 186.069 111.338 185.94 109.612C187.588 107.01 187.794 106.984 190.987 109.019C191.683 108.916 191.94 108.195 192.532 107.963C193.485 108.066 193.511 108.813 193.64 109.509C193.64 109.792 193.64 110.075 193.588 110.385C193.537 110.668 193.459 110.951 193.331 111.209C192.944 111.776 192.738 112.6 191.734 112.317H191.76Z" fill="#A48C6C"/>
<path d="M186.198 109.818C186.713 110.849 187.511 111.493 188.67 111.673C188.052 112.291 187.434 112.909 186.816 113.502C186.404 113.502 186.017 113.502 185.605 113.502C184.344 113.579 183.03 113.322 181.897 114.146C181.485 114.146 181.099 114.146 180.687 114.172C180.455 113.991 180.275 113.785 180.121 113.528C179.863 112.703 179.503 111.827 180.558 111.261C180.945 111.106 181.357 111.029 181.794 111.003C182.335 110.952 182.876 110.952 183.417 110.874C184.241 110.746 184.807 110.153 185.451 109.715C185.734 109.612 185.966 109.664 186.198 109.844V109.818Z" fill="#9C8465"/>
<path d="M191.76 112.317C192.172 111.904 192.584 111.492 192.996 111.08C194.052 111.08 194 111.621 193.614 112.342C193.408 112.755 193.202 113.141 192.97 113.553C192.172 113.553 191.76 113.115 191.734 112.317H191.76Z" fill="#9C8465"/>
<path d="M169.538 119.092C168.173 117.701 167.349 118.886 166.448 119.71C165.83 119.298 165.212 118.886 164.594 118.474C164.594 118.268 164.594 118.061 164.594 117.855C164.439 117.701 164.388 117.546 164.414 117.366C164.439 117.186 164.465 117.108 164.517 117.108C165.186 116.516 165.984 116.361 166.834 116.31C167.272 116.232 168.07 116.799 167.993 115.691C168.096 114.713 167.555 113.656 168.302 112.729C171.057 112.291 170.182 114.944 171.134 116.026C171.212 116.464 171.134 116.876 170.774 117.211C170.362 117.83 169.95 118.448 169.538 119.066V119.092Z" fill="#937A5E"/>
<path d="M175.099 116.619C175.074 117.932 175.331 119.478 173.374 119.633C171.7 119.761 171.34 118.602 171.34 117.237C171.469 116.516 171.984 116.052 172.473 115.588C172.936 115.228 173.451 114.996 174.044 115.047C174.765 115.331 175.408 115.665 175.074 116.619H175.099Z" fill="#9C8466"/>
<path d="M172.628 116.001C172.19 116.413 171.778 116.825 171.34 117.237C171.134 117.237 170.954 117.237 170.748 117.237C170.748 116.825 170.748 116.413 170.748 116.001C170.439 115.048 170.491 114.094 171.418 113.631C172.267 113.219 172.576 114.069 172.911 114.661C173.014 115.151 172.911 115.589 172.602 116.001H172.628Z" fill="#8C7459"/>
<path d="M175.099 116.619C174.868 116.026 174.456 115.614 173.863 115.382C174.996 114.481 176.155 113.631 177.674 114.661C177.958 115.511 177.262 116.001 176.953 116.619V116.645C176.335 116.645 175.717 116.645 175.125 116.645L175.099 116.619Z" fill="#8C7459"/>
<path d="M202.884 114.172C202.472 113.94 201.879 113.682 202.137 113.167C202.266 112.909 203.012 112.987 203.476 112.935C203.476 113.45 203.373 113.914 202.884 114.172V114.172Z" fill="#967D61"/>
<path d="M210.274 109.2C210.274 109.406 210.274 109.612 210.274 109.844C206.849 108.066 203.63 109.509 200.386 110.488C199.974 110.101 199.278 110.333 198.944 109.792C197.914 106.675 197.914 106.649 201.055 107.242C201.802 107.371 202.471 107.242 203.141 106.984C204.119 106.701 204.428 105.774 205.046 105.13C206.179 103.97 207.39 104.202 208.548 105.13C209.707 106.237 208.111 108.504 210.248 109.2H210.274Z" fill="#9F8768"/>
<path d="M210.249 110.462C209.631 111.106 209.038 111.724 208.42 112.368C207.88 110.823 208.008 110.668 210.249 110.462Z" fill="#AD9675"/>
<path d="M152.877 116.593C151.358 115.614 149.632 115.923 147.984 115.898C147.109 115.898 146.182 116.232 145.461 115.382C146.002 112.549 148.062 112.806 150.122 113.115C150.791 112.652 150.611 111.982 150.534 111.338C150.276 110.591 149.452 110.076 149.684 109.122C150.044 108.659 150.559 108.401 151.1 108.247C151.589 108.118 152.259 108.272 152.568 107.912C154.267 105.748 155.812 106.856 157.383 108.04C157.1 110.771 158.31 111.827 160.988 111.235C161.606 111.467 161.915 111.93 161.864 112.6C161.786 113.038 161.529 113.399 161.246 113.734C160.061 114.764 161.992 116.129 160.885 117.186C160.679 117.186 160.499 117.186 160.293 117.237C157.924 115.794 155.555 114.455 152.877 116.567V116.593Z" fill="#A99170"/>
<path d="M160.886 117.237C160.886 116.644 161.015 115.949 160.371 115.562C158.234 114.274 159.444 113.888 160.886 113.527C162.019 114.558 162.972 113.424 163.976 113.218C164.954 113.012 166.087 112.239 166.577 113.682C167.066 115.15 165.701 115.253 164.774 115.562C163.59 115.975 164.98 116.722 164.568 117.237C164.568 117.443 164.568 117.649 164.568 117.829C163.744 117.829 162.843 117.855 162.405 117.031C161.71 115.717 161.375 117.108 160.86 117.185L160.886 117.237Z" fill="#947C5F"/>
<path d="M466.486 231.383C466.615 232.928 463.087 236.895 461.774 236.973C460.255 237.05 459.791 236.045 460.487 235.015C461.568 233.418 462.933 231.975 464.375 230.687C465.534 229.657 466.152 230.584 466.461 231.383H466.486Z" fill="#FCFDFE"/>
<path d="M470.787 227.003C470.658 228.214 469.988 229.245 468.598 229.373C467.697 229.451 467.001 228.729 467.207 227.802C467.465 226.617 467.954 225.355 469.422 225.252C470.426 225.174 470.787 225.973 470.812 227.003H470.787Z" fill="#F7FBFC"/>
<path d="M136.191 99.9775C138.74 97.7105 140.388 99.4108 142.01 101.317C142.937 100.39 141.341 99.7714 141.779 98.6895C143.864 99.5653 146.414 99.7714 146.079 103.043C145.306 104.022 144.56 105.104 143.015 104.717C140.388 104.151 138.586 101.935 136.036 101.188C135.83 100.75 135.856 100.338 136.191 99.9775Z" fill="#CFB890"/>
<path d="M150.405 97.5043C150.353 98.6893 150.74 99.4106 152.104 99.3333C153.392 99.2818 153.495 98.4574 153.495 97.4785C154.319 98.5089 155.143 99.5394 155.967 100.544C154.525 102.218 154.087 102.244 150.559 101.033C150.92 102.45 150.147 103.429 149.298 104.382C147.469 105.001 147.341 103.378 146.723 102.399C147.057 102.038 147.753 101.471 147.675 101.343C145.847 98.0453 148.911 98.3286 150.431 97.4785L150.405 97.5043Z" fill="#D1BA91"/>
<path d="M146.698 102.451C148.14 102.244 147.728 104.486 149.17 104.305C149.916 104.228 150.663 103.97 151.461 104.151C152.002 104.486 152.054 104.975 151.848 105.516C151.358 106.134 150.56 106.392 150.045 106.984C149.35 107.551 148.886 108.324 148.371 109.071C148.191 109.277 147.985 109.406 147.728 109.457C147.444 109.457 147.238 109.329 147.032 109.148C146.646 108.582 145.796 108.659 145.436 108.041C145.256 107.835 145.101 107.628 144.947 107.422C144.509 106.778 143.865 106.315 143.324 105.748C142.99 105.31 142.681 104.872 142.99 104.28C143.556 104.202 144.612 104.434 144.56 103.764C144.38 101.781 145.719 103.507 146.08 103.017C146.286 102.811 146.492 102.631 146.698 102.425V102.451Z" fill="#C3AC86"/>
<path d="M142.989 104.279C143.195 104.691 143.401 105.104 143.607 105.516C143.504 105.619 143.401 105.722 143.298 105.825C142.294 106.314 141.341 106.005 140.389 105.593C139.771 105.31 139.178 105.001 138.586 104.666C137.891 104.099 136.938 104.099 136.191 103.661C135.96 103.069 135.548 102.656 134.955 102.424C134.131 103.094 133.307 102.965 132.483 102.424C132.432 101.317 133.05 101.497 133.719 101.806C134.44 101.188 135.187 100.699 136.191 101.188C137.144 100.518 138.38 100.57 138.895 101.394C139.874 103.043 141.753 103.172 142.989 104.254V104.279Z" fill="#C9B28B"/>
<path d="M136.192 101.214C135.419 101.626 134.621 101.935 133.72 101.832C133.797 100.235 134.853 99.9516 136.166 100.003C136.166 100.415 136.166 100.827 136.166 101.24L136.192 101.214Z" fill="#DDC79C"/>
<path d="M191.76 96.2678C191.142 97.1437 187.923 94.5933 189.288 98.1226C188.619 99.2303 187.717 99.9516 186.353 99.797C184.524 98.2771 183.288 96.2936 181.872 94.413C183.649 92.7643 185.554 91.9658 187.975 93.0219C188.67 93.3311 189.674 93.5629 189.005 92.0173C188.773 91.4763 189.571 91.3475 190.086 91.4763C191.142 91.7597 192.352 91.837 193.202 92.4295C193.743 92.8159 192.945 93.4856 192.404 93.7432C191.194 94.3357 191.116 95.1858 191.76 96.242V96.2678Z" fill="#D6BF95"/>
<path d="M181.871 94.413C184.163 95.3146 185.219 97.2982 186.197 99.359C186.403 99.5651 186.506 99.797 186.481 100.08C185.811 101.059 185.245 102.115 184.575 103.069C183.88 103.455 183.082 103.532 182.386 103.893C182.103 103.893 181.846 103.841 181.614 103.713C180.713 102.862 180.867 101.678 180.764 100.621C180.687 99.6424 180.532 98.8438 179.399 98.6377C179.142 98.5089 178.936 98.3544 178.781 98.1225C178.987 97.4785 179.477 96.7572 179.322 96.1905C178.807 94.2069 180.043 94.3872 181.253 94.413C181.459 94.413 181.665 94.413 181.871 94.413V94.413Z" fill="#D0B991"/>
<path d="M160.268 99.9776C161.504 100.802 162.74 101.626 163.976 102.451C165.186 102.579 164.517 103.043 164.156 103.43C162.894 103.867 161.452 103.893 160.525 105.027C160.165 105.259 159.779 105.336 159.341 105.284C158.955 105.181 158.594 105.001 158.285 104.743C157.744 104.228 157.204 103.764 156.405 104.254C155.015 104.408 153.624 104.743 152.208 104.434C151.925 104.074 151.848 103.661 152.002 103.223C153.264 101.394 156.019 102.528 157.204 100.596C157.847 100.209 158.105 99.2563 159.058 99.3336C159.727 99.0244 160.036 99.4108 160.294 99.9518L160.268 99.9776Z" fill="#D1BA91"/>
<path d="M157.178 100.596C156.74 103.841 153.959 102.373 152.234 103.043C151.538 103.172 151.719 104.151 150.998 104.279C150.38 105.078 149.762 105.078 149.144 104.279C149.504 101.806 149.968 99.5909 153.392 101.111C154.113 101.446 155.246 101.471 155.942 100.57C156.354 100.57 156.766 100.57 157.178 100.57V100.596Z" fill="#CAB38B"/>
<path d="M160.268 99.9772C159.856 99.7711 159.444 99.565 159.032 99.3589C158.929 98.4573 159.238 97.6587 159.65 96.9116C160.834 96.9889 162.379 96.5767 162.585 98.3027C162.765 99.8741 161.452 99.9771 160.268 100.003V99.9772Z" fill="#E2CB9F"/>
<path d="M163.975 103.043C164.413 102.837 164.387 102.631 163.975 102.424C164.233 100.827 166.087 100.286 166.447 98.7149C166.447 98.5088 166.447 98.3027 166.447 98.1224C168.713 97.9678 171.391 96.3964 172.627 99.8484C171.005 101.136 168.224 100.621 167.451 103.223C166.267 103.816 165.572 106.057 163.718 104.305C163.563 103.841 163.589 103.403 163.949 103.043H163.975Z" fill="#C8B18A"/>
<path d="M172.628 99.9775C171.237 97.1696 168.353 99.3078 166.474 98.1485C166.68 97.9424 166.86 97.7364 167.066 97.5045C167.375 97.0923 167.813 96.912 168.302 96.8863C169.383 96.9635 170.439 96.8605 171.392 96.268C171.469 97.3757 172.86 97.8136 172.988 97.4015C173.941 94.5678 175.975 97.1954 177.392 96.3968C178.937 95.5467 176.825 98.6637 178.782 98.1228C178.988 98.1228 179.194 98.1228 179.4 98.1228C180.688 99.4108 180.816 100.544 179.014 101.472C178.731 101.575 178.422 101.6 178.113 101.6C176.31 101.214 176.233 99.3078 175.229 98.2516C175.177 99.7457 174.585 100.622 172.911 100.261C172.808 100.158 172.705 100.081 172.576 99.9775H172.628Z" fill="#D0B991"/>
<path d="M168.302 96.886C168.044 97.3755 167.581 97.5043 167.066 97.5043C166.989 97.1436 166.577 96.7057 167.04 96.4223C167.555 96.1132 168.019 96.3966 168.302 96.886V96.886Z" fill="#D6C096"/>
<path d="M213.982 101.832C213.982 102.244 213.982 102.631 213.956 103.043C211.664 104.125 209.501 105.439 206.849 103.584C205.047 102.322 204.609 104.486 203.733 105.439C203.012 106.443 202.034 106.392 200.978 106.083C198.97 105.516 196.935 105.619 194.875 105.928C194.051 105.928 193.382 105.748 193.305 104.769C194 103.764 194.129 102.373 195.442 101.807C195.854 102.013 196.24 102.219 196.652 102.399C197.167 102.322 197.862 104.176 198.3 102.193C198.48 101.291 199.073 100.261 200.412 100.673C200.618 100.725 200.643 100.982 200.566 101.162C200.927 100.956 200.515 101.575 200.695 101.188C200.772 101.034 200.721 101.008 200.695 100.956C199.098 99.2819 198.686 102.528 197.296 101.781C196.472 100.699 198.146 100.261 197.914 99.3077C198.12 98.2773 198.326 97.2726 198.558 96.2422C198.764 96.4483 198.97 96.6544 199.176 96.8347C200.386 97.2211 201.596 97.556 202.884 97.4787C203.115 97.6848 203.373 98.097 203.553 98.0454C205.304 97.6848 205.304 97.659 205.201 99.5911C205.201 99.7714 205.201 99.9775 205.227 100.493C206.617 99.3335 208.729 101.085 209.862 98.6379C210.403 97.4529 211.304 99.2047 212.128 99.3077C214.574 98.7667 213.518 100.853 214.008 101.781L213.982 101.832Z" fill="#C2AB85"/>
<path d="M213.982 101.832C213.081 101.755 212.72 101.394 213.081 100.441C213.415 99.5908 212.746 99.4362 212.128 99.3332C213.364 98.6634 214.6 97.2981 215.836 99.3332V99.9514C216.145 101.471 214.729 101.291 214.008 101.806L213.982 101.832Z" fill="#C7B18A"/>
<path d="M202.884 97.5041C201.184 99.9514 200.36 97.4269 199.176 96.8601C200.515 96.4737 202.034 95.0569 202.884 97.5041Z" fill="#D7C096"/>
<path d="M186.197 99.9773C186.197 99.7712 186.197 99.5652 186.197 99.3591C187.227 98.9469 188.257 98.5347 189.287 98.1226C189.339 98.8954 189.133 99.7455 190.06 100.183C190.858 97.427 191.965 99.153 192.995 99.9773C192.995 100.106 192.995 100.261 193.021 100.39C192.094 101.523 192.789 103.738 190.601 104.022C190.034 103.867 189.545 103.584 189.184 103.12C189.571 102.012 188.927 101.6 188.026 101.368C188.257 99.797 186.506 100.853 186.197 100.003V99.9773Z" fill="#C9B28B"/>
<path d="M197.296 101.806C198.481 101.472 198.841 99.1531 200.489 100.261C201.287 100.802 201.854 102.013 201.081 103.275C199.871 102.863 200.901 101.523 200.026 101.059C198.12 101.652 198.996 102.785 199.433 103.996C198.815 102.811 196.215 105.696 196.678 102.425C196.884 102.219 197.09 102.013 197.296 101.832V101.806Z" fill="#B8A17D"/>
<path d="M195.467 101.806C195.21 102.914 195.39 104.331 193.613 104.279C193.485 104.228 193.356 104.176 193.227 104.125C191.888 102.811 193.304 101.343 192.995 99.9517C194.231 100.003 194.901 100.828 195.467 101.806V101.806Z" fill="#C8B18A"/>
<path d="M142.346 115.975C142.165 115.975 141.959 116.026 141.779 116.026C141.007 115.562 141.29 114.635 140.852 114.017C140.595 113.733 140.286 113.527 139.951 113.347C139.256 112.935 138.535 112.677 137.736 112.858C136.681 113.424 137.865 113.527 137.968 113.862C138.509 113.605 137.865 115.511 138.895 114.326C139.565 114.043 140.286 113.656 140.698 114.532C141.11 115.408 140.466 116 139.899 116.567V116.67C139.178 117.211 138.483 118.01 137.453 117.185C134.93 115.047 132.123 113.914 128.775 114.712C128.981 113.888 129.213 113.089 129.419 112.265C131.067 112.626 132.071 110.668 133.719 111.029C133.874 112.626 134.749 112.059 135.573 111.621C136.191 110.822 136.809 110.101 137.762 109.586C139.307 108.736 140.62 108.375 141.316 110.797C142.783 109.406 142.809 106.649 145.461 107.293C145.77 108.221 146.131 109.097 147.315 109.148C148.062 110.926 147.882 112.471 146.182 113.63C145.59 113.347 145.436 112.755 145.075 112.007C144.174 113.192 143.118 114.12 142.371 115.305C142.371 115.511 142.371 115.691 142.371 115.897L142.346 115.975Z" fill="#AA9271"/>
<path d="M137.479 117.212C138.303 117.031 139.101 116.851 139.925 116.696C139.796 117.649 139.487 118.5 138.689 119.092C137.917 118.731 136.861 119.916 136.346 118.834C135.934 117.984 136.5 117.34 137.479 117.237V117.212Z" fill="#897056"/>
<path d="M203.476 104.898C204.866 101.806 205.175 101.703 207.647 103.687C207.931 103.919 208.549 104.176 208.703 104.073C210.3 102.759 212.308 103.79 213.982 103.069C213.982 103.172 213.982 103.275 213.982 103.378C214.154 105.542 213.536 106.469 212.128 106.16C210.815 106.443 209.656 105.825 208.42 105.542C206.901 104.717 205.639 104.485 204.995 106.623C204.866 107.087 204.454 108.066 203.476 107.396C203.064 106.572 203.038 105.748 203.476 104.923V104.898Z" fill="#AD9573"/>
<path d="M208.42 105.516C209.862 104.459 210.918 105.67 212.128 106.134C211.227 106.984 209.965 107.602 210.274 109.199C207.365 109.122 207.828 107.345 208.446 105.516H208.42Z" fill="#B39C79"/>
<path d="M145.461 107.371C144.328 107.963 142.989 108.324 142.938 110.024C142.912 110.951 142.371 111.982 141.367 111.853C140.285 111.698 139.796 110.719 140.311 109.122C138.457 110.127 137.015 110.9 135.573 111.673C135.367 109.509 138.509 109.045 138.045 106.752C138.122 105.902 137.813 104.949 138.663 104.279C139.281 104.485 139.899 104.691 140.517 104.923C141.135 105.954 142.165 106.16 143.607 105.542C144.38 105.98 145.435 106.186 145.461 107.396V107.371Z" fill="#B9A17D"/>
<path d="M138.663 104.279C138.586 105.129 138.946 106.108 138.045 106.752C137.659 105.593 134.646 105.979 136.217 103.661C137.247 103.017 138.122 102.965 138.689 104.253L138.663 104.279Z" fill="#C0A984"/>
<path d="M132.509 102.425C133.333 102.425 134.157 102.425 134.981 102.425C134.826 102.966 135.599 103.945 134.929 103.996C133.951 104.099 132.998 103.455 132.535 102.399L132.509 102.425Z" fill="#D6BF95"/>
<path d="M146.054 113.502C147.727 112.446 146.491 110.513 147.315 109.2C147.521 109.2 147.727 109.2 147.933 109.2C148.551 109.097 149.195 108.736 149.813 109.2C150.431 109.818 151.023 110.41 151.641 111.029C150.508 111.492 150.689 112.6 150.405 113.502C150.174 113.708 149.787 114.12 149.762 114.094C147.727 112.523 146.749 114.481 145.461 115.382C145.281 115.382 145.075 115.382 144.895 115.331C144.328 114.12 144.148 113.115 146.079 113.476L146.054 113.502Z" fill="#B69F7B"/>
<path d="M146.053 113.502C144.869 113.631 144.817 114.455 144.869 115.357C144.045 115.382 143.195 114.764 142.371 115.382C142.5 113.296 144.071 112.136 145.616 110.385C145.796 111.699 145.925 112.574 146.053 113.476V113.502Z" fill="#9E8567"/>
<path d="M139.899 116.593C139.95 115.692 141.212 113.94 138.663 114.79C138.328 113.244 139.641 113.322 140.491 112.961C140.697 113.167 140.929 113.347 141.135 113.553C141.624 114.713 141.727 115.795 140.517 116.645C140.311 116.645 140.105 116.645 139.873 116.645L139.899 116.593Z" fill="#B19A77"/>
<path d="M140.543 116.619C141.109 115.665 141.212 114.609 141.161 113.527C142.088 114.171 141.676 115.176 141.805 116.026C141.521 116.541 141.058 116.644 140.543 116.593V116.619Z" fill="#BFA983"/>
<path d="M181.872 114.146C182.593 110.848 184.318 113.579 185.58 113.502C184.396 114.068 183.469 116.078 181.872 114.146Z" fill="#90785C"/>
<path d="M180.636 113.528C180.636 113.734 180.636 113.966 180.661 114.172C180.661 114.352 180.661 114.558 180.636 114.738C180.301 115.202 179.812 115.563 179.425 116.001C179.322 116.284 179.219 116.542 179.116 116.825C179.013 116.567 178.91 116.284 178.782 116.026C178.395 115.666 177.855 115.408 177.88 114.764C177.855 114.481 177.906 114.223 178.061 113.991C178.576 113.502 179.194 113.219 179.915 113.167C180.198 113.193 180.43 113.322 180.636 113.528Z" fill="#A7906F"/>
<path d="M179.426 116.001C179.426 115.202 179.838 114.79 180.636 114.738C181.357 116.232 180.198 115.949 179.426 116.001Z" fill="#937B5E"/>
<path d="M178.164 114.764C178.37 115.176 178.576 115.614 178.808 116.026C178.19 116.232 177.572 116.413 176.979 116.619C177.185 116.001 177.392 115.408 177.572 114.79C177.778 114.584 177.958 114.584 178.164 114.79V114.764Z" fill="#9C8465"/>
<path d="M192.996 110.462C192.996 110.256 192.996 110.05 192.996 109.844C193.176 109.663 193.357 109.509 193.588 109.38C194.335 109.148 194.927 108.71 195.494 108.169C197.039 107.474 197.605 108.169 197.657 109.638C197.451 110.462 196.601 110.591 196.086 111.08C195.88 111.08 195.674 111.08 195.468 111.08C194.49 111.467 193.743 110.926 192.996 110.462V110.462Z" fill="#9C8465"/>
<path d="M196.086 111.08C196.498 110.668 196.884 110.256 197.296 109.844C197.914 109.766 198.558 109.354 199.176 109.844C199.691 109.844 200.154 109.972 200.412 110.488C199.073 111.312 197.554 111.054 196.112 111.08H196.086Z" fill="#967D60"/>
<path d="M192.996 110.462C193.897 110.359 194.696 110.668 195.468 111.08C195.108 111.879 194.49 112.291 193.614 112.317C193.614 111.801 193.485 111.338 192.996 111.054C192.996 110.848 192.996 110.642 192.996 110.436V110.462Z" fill="#967D60"/>
<path d="M189.288 103.069C189.777 103.069 190.241 103.198 190.524 103.687C191.091 104.074 191.477 104.537 191.013 105.207C190.318 106.212 190.91 106.933 191.477 107.68C191.966 108.479 192.146 109.251 191.168 109.844C190.704 109.973 190.189 110.333 189.854 109.664C188.49 106.804 187.357 108.195 186.198 109.818C185.992 109.818 185.786 109.818 185.606 109.818C185.425 110.024 185.219 110.076 184.962 110.024C184.627 109.921 184.37 109.973 184.267 110.385C184.19 110.849 184.061 111.287 183.726 111.647C183.108 111.647 182.49 111.647 181.872 111.647C181.692 110.385 181.022 111.158 180.481 111.312C178.885 111.956 177.7 109.947 176.078 110.668C173.014 109.251 174.816 106.753 174.739 104.666C175.151 102.605 176.387 103.687 177.417 103.945C177.829 104.28 178.035 104.718 178.035 105.233C178.035 106.65 178.859 106.933 180.018 106.65C181.357 106.34 181.872 105.568 181.074 104.28C181.1 103.79 181.254 103.455 181.846 103.636C182.052 103.636 182.258 103.636 182.464 103.636C182.953 103.146 183.546 103.223 184.112 103.352C185.194 103.249 186.198 103.481 186.893 104.28C187.794 105.31 187.846 106.289 186.327 106.804C187.305 106.701 187.794 106.109 187.923 105.13C188.129 104.46 188.412 103.816 188.902 103.301C189.03 103.223 189.134 103.146 189.262 103.095L189.288 103.069Z" fill="#B59D7A"/>
<path d="M193.614 109.844C193.408 109.844 193.202 109.844 192.996 109.844C192.996 109.174 193.125 108.453 192.404 108.015C192.301 107.912 192.223 107.834 192.12 107.731C190.112 105.49 191.914 104.923 193.614 104.305C193.614 105.104 194.052 105.516 194.85 105.516C195.622 105.001 196.189 105.258 196.421 106.083C196.755 107.345 195.519 107.68 194.901 108.375C194.464 108.865 194.103 109.406 193.614 109.844Z" fill="#AE9674"/>
<path d="M191.141 109.844C191.528 109.226 191.528 108.633 191.141 108.015C191.553 107.68 191.94 107.603 192.352 108.015C192.352 108.891 192.352 109.792 191.09 109.844H191.141Z" fill="#AE9674"/>
<path d="M176.31 110.462C177.082 109.638 177.906 108.994 178.73 110.359C179.194 111.106 179.889 111.08 180.61 111.106C180.764 111.235 180.842 111.364 180.79 111.492C180.739 111.621 180.687 111.698 180.636 111.698C179.915 112.317 180.842 112.935 180.636 113.553H180.327H180.018C178.627 113.115 177.082 113.347 175.769 112.6C175.383 112.265 175.28 111.853 175.357 111.389C175.486 110.9 175.898 110.694 176.31 110.488V110.462Z" fill="#A58D6D"/>
<path d="M180.636 111.698C180.636 111.492 180.636 111.286 180.636 111.106C181.073 110.41 181.537 109.457 182.49 110.307C183.236 110.977 181.975 111.157 181.898 111.698C181.486 111.698 181.073 111.698 180.661 111.698H180.636Z" fill="#B9A27E"/>
<path d="M183.726 111.673C183.726 111.055 183.726 110.462 183.726 109.844C184.112 109.509 184.524 109.457 184.936 109.818C185.142 109.818 185.374 109.818 185.58 109.844C185.554 111.055 184.524 111.261 183.726 111.673Z" fill="#A68E6E"/>
<path d="M163.976 115.382C164.31 115.176 164.619 114.919 165.006 114.79C165.521 114.61 166.473 114.79 166.139 113.837C165.778 112.806 165.212 113.888 164.774 113.862C163.486 113.837 161.993 115.563 160.886 113.502C161.092 113.296 161.298 113.09 161.504 112.884C164.259 110.874 166.731 110.565 168.559 112.033C168.611 112.368 168.533 112.652 168.302 112.909C168.379 113.94 169.177 114.97 168.302 115.975C168.07 116.155 167.812 116.207 167.529 116.155C166.396 115.64 164.98 116.516 163.976 115.382V115.382Z" fill="#9F8768"/>
<path d="M168.302 112.935C168.302 112.729 168.302 112.523 168.302 112.317C168.714 111.75 169.28 111.441 169.976 111.363C170.877 111.312 171.804 111.003 172.705 111.466C173.349 111.956 174.096 112.317 174.662 112.909C174.765 113.167 174.817 113.45 174.791 113.759C174.302 114.584 173.606 114.996 172.628 114.815C170.542 113.012 171.598 115.949 170.774 116.052C170.104 115.717 169.512 115.331 169.744 114.403C170.027 113.167 169.177 113.064 168.328 112.961L168.302 112.935Z" fill="#9A8263"/>
<path d="M163.975 115.382C165.16 115.898 166.679 114.326 167.683 116.001C167.606 116.336 167.4 116.542 167.039 116.593C166.293 117.031 165.494 117.315 164.593 117.263C164.078 116.748 163.383 116.258 163.975 115.382Z" fill="#AB9472"/>
<path d="M167.04 116.593C167.246 116.387 167.452 116.181 167.684 116C167.89 116 168.096 116 168.302 116C168.714 116.232 169.383 116.645 169.023 116.979C168.431 117.546 167.607 117.34 167.066 116.619L167.04 116.593Z" fill="#887055"/>
<path d="M172.628 114.764C173.246 114.352 173.864 113.939 174.482 113.527C175.821 113.038 177.289 111.904 178.19 114.146C178.19 114.352 178.19 114.558 178.19 114.738C177.984 114.738 177.778 114.738 177.598 114.738C176.362 114.944 175.126 115.15 173.915 115.356C173.503 115.562 173.091 115.768 172.679 115.975C172.679 115.562 172.679 115.15 172.679 114.738L172.628 114.764Z" fill="#947B5F"/>
<path d="M194.206 107.989C195.528 106.907 195.734 106.083 194.824 105.516C196.91 104.485 199.098 104.64 201.158 105.361C202.188 105.722 202.806 105.645 203.476 104.898C203.476 105.722 204.068 106.546 203.476 107.371C201.905 109.251 200.463 107.68 198.918 107.036C198.455 108.092 200.154 108.891 199.15 109.844C198.532 110.024 197.914 110.823 197.27 109.844C197.219 108.607 196.807 107.937 195.468 108.607C194.772 108.968 194.18 109.071 194.206 107.989Z" fill="#B39B79"/>
<path d="M159.032 104.897C159.444 104.897 159.856 104.897 160.268 104.923C161.555 105.464 162.843 106.005 164.233 105.155C165.495 105.541 167.864 104.331 167.349 107.293C166.293 108.272 164.542 108.246 163.976 110.075C163.641 111.132 162.096 111.441 160.911 111.698C156.431 112.883 156.045 112.497 157.203 108.015C157.281 107.886 157.332 107.783 157.384 107.654C158.233 106.907 158.053 105.541 159.057 104.897H159.032Z" fill="#B79F7C"/>
<path d="M160.885 111.673C161.555 110.127 165.005 110.617 163.795 107.68C164.876 107.577 165.984 107.448 167.065 107.345C167.4 106.881 167.709 106.366 168.327 106.263C172.086 106.263 169.099 108.401 169.357 109.509C169.589 110.076 170.129 110.462 170.335 111.029C170.387 111.287 170.335 111.518 170.129 111.699C169.511 111.905 168.893 112.111 168.275 112.317C165.881 110.926 163.769 112.858 161.477 112.935C161.477 112.42 161.349 111.956 160.859 111.699L160.885 111.673Z" fill="#AA9371"/>
<path d="M157.178 103.661C158.053 102.914 158.105 103.893 158.44 104.279C158.517 105.67 157.487 106.701 157.204 107.989C155.787 108.066 154.011 106.34 153.006 108.813C152.929 108.968 151.745 108.684 151.049 108.581C150.328 108.169 149.916 107.525 149.813 106.701C149.839 105.439 150.766 105.49 151.642 105.49C151.822 105.593 151.976 105.722 152.131 105.851C152.749 105.902 152.826 105.361 153.109 105.026C153.985 103.094 156.071 104.769 157.229 103.635L157.178 103.661Z" fill="#B79F7C"/>
<path d="M149.787 106.752C150.611 107.113 150.997 107.757 151.023 108.633C150.611 108.839 150.199 109.045 149.787 109.251C149.169 109.406 148.525 110.23 147.907 109.251C148.113 108.118 148.319 106.959 149.787 106.778V106.752Z" fill="#C9B28B"/>
<path d="M150.405 113.528C149.839 112.214 150.122 111.338 151.641 111.055C150.714 111.621 152.079 113.322 150.405 113.528Z" fill="#C2AA84"/>
<path d="M151.641 106.134C151.641 105.928 151.641 105.722 151.615 105.542C151.615 105.026 151.512 104.563 150.997 104.305C151.255 103.661 151.486 102.991 151.77 102.373C151.898 102.115 152.233 101.909 152.413 102.244C152.516 102.45 152.31 102.811 152.233 103.094C152.233 103.506 152.233 103.919 152.233 104.331C152.877 104.614 153.16 105.104 153.083 105.799C152.722 106.443 152.285 106.675 151.615 106.186L151.641 106.134Z" fill="#D3BC93"/>
<path d="M147.315 109.225C144.894 110.41 145.615 108.478 145.461 107.371C145.873 108.195 147.804 107.499 147.315 109.225Z" fill="#B69F7B"/>
<path d="M143.608 105.516C142.294 106.701 140.955 108.092 140.518 104.897C141.47 105.464 142.526 105.593 143.608 105.516Z" fill="#C3AC86"/>
<path d="M188.67 104.898C188.104 107.448 186.301 107.809 183.829 107.989C184.602 106.083 186.893 106.907 186.919 105.413C186.945 104.047 185.22 104.305 184.37 103.661C184.164 103.532 184.087 103.378 184.164 103.249C184.241 103.12 184.293 103.043 184.37 103.043C184.653 101.806 184.73 100.467 186.224 99.9515C186.842 100.389 188.722 98.8696 188.078 101.188C188.181 101.987 187.717 102.734 188.001 103.532C188.207 103.996 188.31 104.485 188.696 104.872L188.67 104.898Z" fill="#C2AA84"/>
<path d="M181.871 103.661C181.665 103.893 181.459 104.099 181.228 104.331C180.841 105.774 180.429 104.46 180.017 104.331C179.528 103.739 178.704 103.687 178.138 103.198C177.623 102.296 178.653 101.884 178.756 101.188C180.198 100.415 179.605 99.2305 179.374 98.1228C180.764 98.097 182.077 97.8909 181.382 100.184C181.073 101.188 181.665 102.502 181.846 103.661H181.871Z" fill="#C9B38B"/>
<path d="M184.344 103.043C184.344 103.249 184.344 103.455 184.344 103.661C183.726 103.661 183.108 103.661 182.49 103.635C182.67 102.038 183.572 102.734 184.344 103.043V103.043Z" fill="#C9B38B"/>
<path d="M163.976 105.516C162.302 107.886 161.298 106.366 160.268 104.898C160.551 102.399 162.508 103.198 163.976 103.043C163.976 103.455 163.976 103.867 163.976 104.279C164.336 104.692 164.336 105.104 163.976 105.516V105.516Z" fill="#C5AE88"/>
<path d="M157.203 107.989C156.405 106.34 157.718 105.413 158.439 104.279C158.645 104.485 158.851 104.691 159.031 104.898C158.285 105.851 159.933 108.246 157.177 107.989H157.203Z" fill="#C1A984"/>
<path d="M152.877 105.516C152.671 105.104 152.465 104.692 152.259 104.279C153.804 103.301 155.529 103.764 157.177 103.661C156.945 104.28 157.177 105.619 155.864 104.743C154.602 103.893 154.036 104.563 153.469 105.516C153.263 105.825 153.083 105.799 152.877 105.516V105.516Z" fill="#CAB38B"/>
<path d="M160.731 102.09C159.366 102.347 159.006 101.497 158.311 100.235C159.495 100.802 160.345 100.982 160.731 102.09Z" fill="#C8B18A"/>
<path d="M167.065 103.043C167.735 99.8744 170.104 99.7714 172.627 99.9517C172.756 100.209 172.756 100.493 172.627 100.75C170.49 101.678 171.649 104.511 169.795 105.593C169.537 105.696 169.254 105.748 168.971 105.671C168.147 105.104 167.786 104.176 167.22 103.404C167.168 103.275 167.117 103.146 167.065 103.017V103.043Z" fill="#C1A983"/>
<path d="M163.976 105.516C163.976 105.104 163.976 104.692 163.976 104.279C165.443 104.949 165.907 103.12 167.066 103.043C167.787 103.764 168.173 104.666 168.559 105.593C168.739 106.031 168.636 106.418 168.302 106.753C167.89 106.959 167.478 107.165 167.066 107.371C167.143 104.924 164.954 106.263 163.976 105.542V105.516Z" fill="#C1A983"/>
<path d="M169.538 105.516C169.821 104.305 171.649 103.197 169.692 101.806C169.049 101.343 169.924 101.188 170.13 101.291C171.237 101.858 171.701 100.441 172.628 100.57C172.757 100.57 172.885 100.57 173.04 100.596C174.121 100.673 174.688 101.961 175.872 101.806C176.645 101.6 177.443 101.497 178.216 101.188C178.422 101.188 178.628 101.188 178.808 101.137C180.07 102.244 178.267 102.322 178.19 102.991C178.396 103.146 178.473 103.352 178.422 103.61C178.241 103.945 177.958 104.176 177.546 104.228C176.799 104.743 175.512 103.017 175.1 104.846C173.169 104.228 171.521 106.237 169.538 105.464V105.516Z" fill="#BAA27E"/>
<path d="M178.19 101.24C177.701 102.322 176.748 102.502 175.718 102.45C174.585 101.987 173.993 100.673 172.628 100.596C172.628 100.39 172.628 100.183 172.628 99.9773C172.731 99.9773 172.834 99.9773 172.937 99.9773C175.014 99.2389 176.774 99.6596 178.216 101.24H178.19Z" fill="#C6B089"/>
<path d="M192.377 107.989C191.965 107.989 191.553 107.989 191.167 107.989C188.566 106.881 190.472 105.155 190.549 103.661C191.502 102.528 191.656 100.828 193.021 99.9517C194.36 101.24 192.532 102.966 193.639 104.279C192.377 105.233 191.888 106.418 192.403 107.963L192.377 107.989Z" fill="#BDA681"/>
<path d="M187.433 103.713C186.378 102.553 187.433 101.935 188.051 101.214C189.828 100.931 189.493 102.038 189.287 103.069C188.747 103.532 188.257 104.151 187.408 103.713H187.433Z" fill="#DAC398"/>
<path d="M140.492 112.935C140.028 113.708 138.921 113.811 138.664 114.764C138.509 115.099 137.968 114.816 137.453 114.146C136.99 113.528 136.913 112.909 137.453 112.291C138.741 111.261 139.565 112.317 140.518 112.935H140.492Z" fill="#BAA27E"/>
<path d="M137.453 112.317C137.453 112.935 137.453 113.553 137.453 114.172C136.963 113.837 136.062 113.528 136.036 113.167C135.985 112.471 136.809 112.368 137.427 112.343L137.453 112.317Z" fill="#9F8769"/>
<path d="M178.189 114.146C177.159 112.677 175.64 114.146 174.481 113.527C174.481 113.321 174.481 113.089 174.481 112.883C174.481 111.904 174.996 111.879 175.692 112.265C177.262 112.317 178.885 112.085 180.043 113.527C179.425 113.733 178.807 113.939 178.189 114.146Z" fill="#9C8465"/>
<path d="M194.206 107.989C194.489 108.478 194.952 108.581 195.467 108.607C195.39 109.844 194.489 109.844 193.613 109.818C193.639 109.148 193.51 108.427 194.231 107.989H194.206Z" fill="#A48C6C"/>
<path d="M169.537 105.516C169.923 105.49 170.619 105.568 170.67 105.413C171.829 102.296 173.58 104.769 175.073 104.898C175.897 105.001 176.721 105.799 176.052 106.212C173.297 107.937 175.563 109.097 176.309 110.462C176.103 110.668 175.897 110.874 175.691 111.08C173.4 110.874 171.288 109.612 168.919 109.844C167.039 109.045 168.842 108.504 169.151 108.118C170.541 106.521 169.151 106.83 168.275 106.753C168.275 106.34 168.275 105.928 168.275 105.516C168.481 105.284 168.687 105.31 168.893 105.516C169.099 105.516 169.305 105.516 169.511 105.516H169.537Z" fill="#B29B78"/>
<path d="M177.52 104.305C177.726 104.073 177.932 103.867 178.112 103.635C178.936 104.305 179.786 103.378 180.61 103.687C180.764 103.944 180.301 104.794 181.228 104.357C182.927 104.46 183.159 105.232 182.155 106.495C180.97 107.989 179.116 107.912 177.751 107.499C176.103 106.984 178.035 105.387 177.494 104.331L177.52 104.305Z" fill="#CEB78F"/>
<path d="M187.434 103.713C188.052 103.507 188.67 103.275 189.313 103.069C189.107 103.687 188.901 104.305 188.67 104.898C187.871 104.898 187.485 104.486 187.434 103.713Z" fill="#C9B28B"/>
<path d="M184.962 109.818C184.55 109.818 184.164 109.818 183.752 109.844C183.34 109.509 183.056 109.019 183.7 108.762C184.576 108.427 184.91 109.019 184.962 109.792V109.818Z" fill="#BEA681"/>
<path d="M168.92 109.844C171.521 108.298 173.632 109.586 175.692 111.08C175.692 111.493 175.692 111.879 175.692 112.291C175.203 112.317 174.739 112.42 174.482 112.909C173.581 112.935 172.679 112.961 172.576 111.724C171.984 110.746 170.851 111.802 170.182 111.106C169.77 110.694 169.358 110.256 168.946 109.844H168.92Z" fill="#BDA681"/>
<path d="M170.156 111.106C171.005 111.106 172.113 110.127 172.55 111.724C171.752 111.389 170.928 112.342 170.13 111.724C170.13 111.518 170.13 111.312 170.13 111.132L170.156 111.106Z" fill="#A48C6C"/>
<path d="M152.878 105.516C153.084 105.516 153.29 105.516 153.47 105.516C153.367 106.572 152.775 107.113 151.745 106.959C151.307 106.907 151.152 106.469 151.642 106.134C152.157 106.134 152.594 106.006 152.878 105.516Z" fill="#C3AC86"/>
<path d="M180.635 103.661C179.786 104.176 178.91 106.263 178.138 103.61C178.138 103.429 178.138 103.223 178.163 103.043C179.013 103.146 179.992 102.76 180.635 103.661Z" fill="#D6C096"/>
<path d="M168.919 105.516C168.713 105.516 168.507 105.516 168.301 105.516C167.503 104.898 167.168 104.022 167.065 103.043C168.533 103.223 168.713 104.383 168.919 105.49V105.516Z" fill="#C8B18A"/>
<path d="M172.628 100.596C173.993 100.647 175.486 100.518 175.718 102.45C173.864 103.172 173.838 100.931 172.628 100.596Z" fill="#C1A983"/>
</g>
<defs>
<clipPath id="clip0_5484_43227">
<rect width="595" height="297" fill="white"/>
</clipPath>
</defs>
</svg>
