<svg width="595" height="297" viewBox="0 0 595 297" fill="none" xmlns="http://www.w3.org/2000/svg">
<g clip-path="url(#clip0_5484_43210)">
<rect width="595" height="297" fill="#3377E8"/>
<path d="M158.388 220.203C158.182 216.519 157.924 212.835 157.796 209.151C157.744 207.657 157.049 207.194 155.684 207.245C154.345 207.297 153.006 207.245 151.667 207.245C139.024 207.065 126.406 206.884 113.763 206.73C112.347 206.73 110.931 206.73 109.489 206.987C106.27 207.554 102.562 204.308 103.077 201.191C103.849 196.477 102.819 191.66 103.695 187.074C104.648 182.128 102.227 179.707 98.7766 177.131C92.2103 172.21 87.3693 165.976 85.4381 157.759C83.2751 148.536 91.0258 140.86 100.219 143.152C101.661 143.513 103.025 145.162 104.751 143.771C106.012 142.74 107.3 143.513 108.587 143.693C124.758 145.986 140.569 145.625 155.375 137.588C159.727 135.218 163.177 131.921 165.907 127.876C168.07 124.63 168.533 121.075 167.452 117.263C166.885 115.254 165.778 114.455 163.718 114.378C161.529 114.275 159.186 115.15 157.203 113.476C157.873 112.858 158.748 112.961 159.547 112.987C168.379 113.27 177.185 112.626 186.018 112.24C200.051 111.621 214.059 110.771 228.119 110.385C235.277 110.179 242.436 109.457 249.594 109.329C253.586 109.251 257.525 108.607 261.542 108.788C266.229 109.019 268.315 110.591 268.263 115.382C268.16 123.471 267.877 131.586 267.722 139.675C267.465 153.611 267.516 167.574 266.924 181.51C266.641 188.182 266.692 194.828 266.435 201.5C266.255 206.601 264.272 208.713 259.173 208.456C243.466 207.631 227.758 208.121 212.051 207.966C208.729 209.615 205.227 208.816 201.828 208.61C199.485 208.456 197.142 208.121 194.773 208.25C186.558 208.636 178.421 207.322 170.207 207.606C165.778 207.76 165.263 208.456 167.272 212.5C169.589 217.163 171.623 222.006 175.306 225.87C175.743 226.308 176.001 226.875 176.052 227.519C176.001 228.369 175.434 228.729 174.713 228.961C169.306 229.09 164.388 227.519 160.062 224.324C158.774 223.371 157.306 222.289 158.414 220.28L158.388 220.203Z" fill="#F3CDB1"/>
<path d="M158.388 220.203C158.414 221.671 159.186 222.624 160.319 223.5C164.465 226.694 169.306 227.776 174.327 228.317C174.585 228.523 174.842 228.729 175.1 228.961C185.297 235.324 196.807 237.539 208.369 239.523C219.518 241.429 230.745 242.357 242.101 242.228C249.981 242.125 257.628 240.734 265.328 239.549C266.718 239.343 268.16 238.802 269.448 239.909C270.735 252.249 272.023 264.588 273.284 276.928C273.902 282.956 274.392 288.984 275.138 294.986C275.396 297.073 274.701 297.356 272.898 297.33C266.306 297.227 259.74 297.304 253.148 297.304C201.004 297.304 148.886 297.279 96.7424 297.382C93.8069 297.382 93.4722 296.454 93.6009 293.93C94.1159 284.501 94.425 275.073 94.7855 265.644C95.1975 254.979 95.5579 244.315 95.9699 233.65C96.1759 228.446 96.2017 228.394 101.223 227.725C119.84 225.226 138.457 222.727 157.1 220.254C157.512 220.203 157.924 220.203 158.336 220.177L158.388 220.203Z" fill="#2B2B64"/>
<path d="M434.994 206.961C441.251 208.301 447.38 210.027 452.916 213.273C457.757 216.106 462.546 219.249 461.104 226.179C460.847 227.39 461.954 227.158 462.521 227.261C464.915 227.802 467.362 228.626 469.756 228.575C473.387 228.497 474.984 230.79 476.58 233.315C483.764 244.546 489.249 256.577 493.524 269.174C496.382 277.572 498.828 286.073 500.734 294.754C501.197 296.866 500.862 297.356 498.699 297.356C486.468 297.253 474.237 297.304 462.006 297.304C412.36 297.304 362.714 297.304 313.042 297.382C310.493 297.382 310.029 296.609 310.312 294.342C312.347 278.19 316.08 262.45 322.003 247.251C322.235 246.684 322.492 246.118 322.75 245.577C323.239 245.396 323.754 245.293 324.269 245.396C331.015 246.839 337.839 247.535 344.689 247.972C353.701 248.539 362.714 248.565 371.726 247.972C380.867 247.354 389.828 245.68 398.686 243.49C401.802 242.717 404.763 241.584 407.364 239.678C410.377 238.106 413.776 237.565 416.917 236.303C419.415 235.298 420.471 233.778 420.625 230.996C420.909 226.282 421.243 221.594 421.166 216.879C421.166 215.256 421.475 213.788 423.072 212.964C426.471 211.238 429.715 209.28 432.934 207.271C433.552 206.884 434.247 206.678 434.994 206.961V206.961Z" fill="#2B2B64"/>
<path d="M434.995 206.961C431.132 209.28 427.45 211.907 423.304 213.685C422.145 214.174 421.939 215.025 421.965 216.132C422.12 221.568 421.682 226.977 421.45 232.387C421.373 234.268 420.832 235.427 419.107 236.2C415.476 237.874 411.639 238.956 407.803 239.987C407.751 239.832 407.725 239.678 407.674 239.497C407.854 238.312 408.781 237.565 409.451 236.689C413.313 231.743 415.991 226.282 416.712 219.971C417.073 216.828 416.455 216.313 413.339 216.931C403.168 218.914 392.996 219.481 382.774 217.317C375.898 215.128 369.229 212.577 364.028 207.245C356.818 201.088 350.689 194.055 346.26 185.554C332.561 159.175 337.145 124.373 357.204 103.3C357.539 102.94 357.951 102.63 358.337 102.296C359.676 102.708 361.066 102.141 362.431 102.45C363.281 103.455 364.465 101.549 365.289 102.785C365.573 103.094 365.547 104.047 366.345 103.3C368.869 105.413 372.165 103.815 375.023 104.923C375.924 105.284 378.087 103.506 379.89 104.588C380.199 104.872 380.302 105.207 380.276 105.619C380.276 105.851 379.915 106.082 379.993 106.108C380.276 106.185 380.456 105.876 380.714 105.722C381.1 105.567 381.486 105.49 381.898 105.516C383.366 106.108 384.55 107.267 386.121 107.68C386.945 107.86 387.512 107.319 388.155 106.958C388.67 106.752 389.211 106.752 389.752 106.804C392.559 106.701 395.391 106.495 397.76 108.375C398.507 108.968 398.224 108.143 398.378 108.014C399.022 107.474 400.078 107.319 400.232 107.937C400.927 110.668 402.884 109.328 404.378 109.38C405.459 110.05 406.412 109.612 407.313 108.968C408.009 108.865 408.652 109.096 409.27 109.354C409.502 109.457 409.682 109.637 409.863 109.818C410.146 110.153 410.455 110.488 410.97 110.488C411.202 110.436 411.433 110.41 411.665 110.359C412.515 110.281 413.159 109.38 414.111 109.715C414.961 110.178 415.167 112.162 416.815 110.874C417.098 110.771 417.382 110.771 417.665 110.822C418.206 111.106 418.54 111.569 418.824 112.085C419.39 113.141 420.06 114.506 421.373 114.197C422.841 113.888 422.532 112.059 423.15 110.977C423.356 110.462 423.639 109.972 423.948 109.509C424.72 108.401 425.235 107.139 425.828 105.928C426.523 104.614 427.476 103.429 428.094 102.064C428.531 101.188 429.021 100.338 429.536 99.5134C431.029 97.6844 431.081 94.7992 433.656 93.7173C435.252 94.4901 436.591 95.6493 437.879 96.8343C436.179 100.467 434.042 103.867 432.214 107.422C430.72 109.509 429.716 111.853 428.583 114.12C428.325 114.918 427.398 115.794 428.531 116.49C429.381 117.005 429.664 116 430.128 115.562C431.544 113.089 432.857 110.565 434.274 108.092C436.025 104.846 437.518 101.445 439.887 98.5861C441.278 99.668 442.565 100.853 443.569 102.321C443.853 105.361 441.381 107.19 440.402 109.689C439.939 110.513 439.501 111.363 439.089 112.213C438.857 112.677 438.6 113.141 438.342 113.605C437.904 114.249 437.492 114.918 437.235 115.665C437.029 116.181 436.72 116.619 436.411 117.056C435.484 118.396 435.252 119.169 437.132 120.302C439.578 121.796 442.102 122.956 444.728 124.012C445.629 124.476 446.556 124.089 447.483 124.115C450.548 125.892 453.56 127.773 456.47 129.782C456.496 131.276 457.603 130.169 458.118 130.478C458.376 130.607 458.504 130.813 458.582 131.07C458.582 131.586 458.53 132.075 458.556 132.59C458.71 132.848 458.504 133.518 459.2 133.157C459.303 132.848 459.38 132.539 459.689 132.384C459.998 132.41 460.333 132.539 460.59 132.461C469.191 129.911 474.727 134.265 474.263 143.281C474.238 143.796 474.16 144.286 474.083 144.801C474.057 145.805 474.392 146.81 473.954 147.789C473.388 149.618 472.976 151.499 471.637 152.967C470.658 153.585 469.937 152.477 468.959 152.606C468.495 153.843 470.221 154.152 470.092 155.208C469.834 155.543 469.577 155.878 469.319 156.213C469.036 157.269 468.444 158.171 468.006 159.175C466.358 161.751 464.787 164.379 461.285 164.74C460.59 163.993 461.105 162.988 460.745 162.009C458.968 163.786 460.951 165.873 460.101 167.599C457.32 177.053 453.56 186.044 447.535 193.978C443.853 198.821 439.475 202.968 434.892 206.936L434.995 206.961Z" fill="#554336"/>
<path d="M364.053 207.271C369.59 210.852 375.255 214.201 381.538 216.364C381.821 216.467 382.13 216.493 382.439 216.545C384.01 219.456 383.623 222.676 383.958 225.793C384.216 228.111 384.01 230.481 384.035 232.851C384.061 235.556 385.323 237.334 387.949 238.003C392.919 239.266 397.94 240.27 403.116 239.343C404.713 239.06 406.361 238.725 407.854 239.832L407.777 240.013C404.172 243.903 399.073 244.289 394.387 245.448C378.86 249.312 362.998 249.853 347.161 249.081C338.973 248.694 330.63 248.462 322.725 245.551C324.991 240.451 327.282 235.35 329.523 230.224C330.501 227.957 332.02 226.591 334.621 226.566C335.651 226.566 336.655 226.334 337.66 226.128C340.775 225.458 344.715 226.205 343.994 220.512C343.659 217.91 346.363 215.72 348.655 213.994C353.264 210.542 358.723 209.048 364.053 207.245V207.271Z" fill="#24234A"/>
<path d="M157.177 113.45C159.546 113.45 161.915 113.631 164.258 113.399C166.627 113.141 167.58 114.249 168.173 116.258C169.898 122.029 168.327 126.975 164.464 131.354C157.744 138.979 148.783 142.405 139.204 144.337C127.694 146.656 116.183 146.424 104.725 143.771C104.158 140.499 104.338 137.202 104.647 133.93C104.75 129.937 104.776 125.918 104.956 121.925C105.214 116.928 106.913 115.691 111.909 115.485C126.998 114.919 142.088 114.146 157.177 113.476V113.45Z" fill="#DAA600"/>
<path d="M269.447 239.935C263.345 240.399 257.396 242.048 251.294 242.563C242.59 243.284 233.938 243.207 225.235 242.563C215.527 241.816 206.051 239.987 196.523 238.184C188.979 236.741 182.052 233.83 175.331 230.224C174.816 229.94 173.735 229.863 174.559 228.781C175.408 228.523 176.258 228.188 177.159 228.034C183.339 228.446 189.545 228.987 195.725 228.214C197.038 227.879 198.249 229.889 199.613 228.369C201.39 226.978 203.682 227.184 205.69 226.437C208.574 225.355 211.227 224.247 212.179 220.975C212.36 220.383 212.823 219.919 213.57 220.048C229.947 222.392 246.324 224.711 262.675 227.055C264.4 228.008 266.435 228.085 268.211 228.858C269.164 232.49 269.344 236.226 269.422 239.961L269.447 239.935Z" fill="#24234A"/>
<path d="M213.57 220.022C211.535 227.003 205.252 227.313 199.742 228.807C198.789 229.502 197.733 229.039 196.729 229.116C190.111 229.605 183.494 229.683 176.902 228.755C176.387 228.523 175.975 228.163 175.769 227.622C171.005 223.011 168.481 217.034 165.7 211.212C164.001 207.657 164.773 206.498 168.687 206.601C183.133 206.987 197.579 207.451 211.999 207.863C212.076 210.62 212.153 213.376 212.256 216.132C212.308 217.524 212.128 219.018 213.544 219.971L213.57 220.022Z" fill="#C69065"/>
<path d="M433.732 93.795C432.496 95.8558 431.26 97.9167 430.024 99.9775C429.252 100.57 428.479 100.544 427.81 99.8745C426.934 98.9986 425.93 99.0244 425.003 99.5138C422.686 100.75 422.402 99.2305 422.093 97.1954C421.218 98.0455 420.729 99.4881 419.261 98.9213C418.076 98.4834 417.561 97.7106 417.433 96.3968C417.278 94.5678 415.604 94.1298 414.265 94.1041C410.223 94.0526 406.515 92.4039 402.575 91.9917C402.755 92.2235 403.064 92.0432 403.296 92.0947C404.558 92.4039 406.386 92.4554 406.437 94.001C406.463 95.5209 404.506 94.9799 403.502 95.5467C401.725 96.1649 400.206 95.9589 399.202 94.1814C399.073 94.0268 398.996 93.7434 398.841 93.7177C393.331 92.4039 388.309 88.8231 382.181 90.4461C380.507 90.884 378.859 90.6264 378.808 88.2564C392.893 81.842 407.184 81.9708 421.527 87.1487C425.904 88.7201 430.102 90.7809 433.758 93.795H433.732Z" fill="#070707"/>
<path d="M378.781 88.2305C379.554 89.5958 380.43 90.2913 382.232 89.6988C385.58 88.6169 389.21 89.0548 392.197 90.3171C394.386 91.2187 396.266 92.5325 398.789 92.4295C399.407 92.4295 399.742 93.0992 399.768 93.7948C399.588 95.7784 399.768 97.9423 396.987 98.3544C396.755 98.5348 396.498 98.6636 396.214 98.7924C395.648 99.05 395.081 99.2303 394.438 99.1788C393.279 98.9469 392.97 98.1741 393.176 97.1179C393.562 95.7268 395.184 95.9072 395.725 95.2889C391.502 95.0828 387.511 92.9189 383.082 92.6098C383.03 93.4599 384.807 94.7479 382.876 95.598C381.331 96.2421 380.146 95.7784 379.219 94.3615C377.829 92.2749 377.237 92.3779 375.717 94.7479C373.451 95.495 371.108 95.9329 368.791 96.2936C367.915 96.4224 366.679 96.6285 366.447 95.1343C370.258 92.3007 374.249 89.8019 378.781 88.2562V88.2305Z" fill="#171412"/>
<path d="M389.906 107.371C389.288 107.371 388.67 107.371 388.052 107.371C387.82 107.577 387.563 107.603 387.28 107.448C385.194 106.314 383.52 104.769 382.361 102.682C382.104 102.682 381.846 102.605 381.64 102.476C380.868 102.347 380.379 99.9774 379.323 102.193C378.628 104.202 377.495 104.743 376.13 102.888C375.357 101.832 374.533 101.523 373.323 101.523C372.525 101.523 372.267 101.42 372.113 102.502C371.752 105.001 371.263 104.898 368.92 103.532C368.173 103.094 368.405 100.982 366.731 102.09C366.036 102.116 365.572 102.553 365.212 103.094C364.388 102.296 363.564 103.893 362.766 103.094C362.946 101.652 361.401 100.776 361.504 99.3333C361.787 98.7924 362.122 98.3287 362.74 98.1226C365.392 98.1999 367.787 97.221 370.079 96.0875C371.855 95.2374 373.272 95.2374 374.276 96.9891C375.229 98.612 376.104 98.5605 377.263 97.2725C377.855 96.6285 378.705 96.5769 379.555 96.8603C379.838 96.9376 380.095 97.0149 380.379 97.1179C382.464 97.6074 384.576 97.1179 386.687 97.2983C387.28 97.5816 387.717 98.0711 387.486 98.6893C386.893 100.286 388.052 99.6167 388.67 99.694C390.524 100.364 388.902 101.755 389.314 102.734C389.417 103.584 390.189 104.589 388.825 105.13C388.49 105.052 388.258 104.717 387.949 104.614C388.001 104.949 388.361 105.052 388.49 105.361C388.902 106.108 390.138 106.289 389.932 107.448L389.906 107.371Z" fill="#3D3027"/>
<path d="M439.886 109.818C440.607 107.061 442.693 105.001 443.62 102.347C447.225 105.696 450.109 109.586 452.298 113.991C452.246 115.562 450.804 115.382 449.929 115.691C448.976 116.026 447.946 116.103 447.174 116.85C446.272 117.031 445.783 116.619 445.706 115.717C445.783 114.867 446.504 114.3 446.659 113.321C446.272 114.12 446.041 114.841 445.242 115.073C443.903 114.944 442.667 115.382 441.38 115.691C439.783 116.078 437.749 116.284 438.007 113.476C438.032 112.986 438.135 112.523 438.625 112.265C439.5 111.673 439.397 110.591 439.861 109.792L439.886 109.818Z" fill="#191513"/>
<path d="M436.205 116.619L436.823 115.382C438.394 116.284 441.767 114.3 441.432 118.268C442.694 118.164 444.11 118.602 445.192 118.164C448.024 117.057 449.054 118.808 450.187 120.715C451.449 122.853 452.917 124.733 455.723 124.708C457.32 125.377 457.243 127.258 458.324 128.314C459.148 129.19 459.225 130.272 459.097 131.38C458.865 131.56 458.633 131.534 458.401 131.38C458.401 131.174 458.401 130.968 458.401 130.787C457.964 130.066 457.114 130.504 456.547 130.169C453.097 128.907 450.136 126.872 447.277 124.63C447.277 123.136 445.964 123.703 445.217 123.342C444.728 122.801 444.754 121.9 443.518 121.951C438.136 122.106 438.11 122.029 436.153 116.619H436.205Z" fill="#3C3027"/>
<path d="M467.851 158.532C468.186 157.656 468.237 156.574 469.422 156.265C473.696 158.97 474.597 162.808 471.842 166.569C468.881 170.639 464.349 171.051 460.203 167.625C459.379 165.745 458.838 163.838 459.637 161.777C459.92 161.056 460.203 160.335 461.027 160.515C461.954 160.721 462.34 161.468 461.903 162.396C461.542 163.169 461.413 163.941 461.671 164.74C463.422 166.157 465.044 167.908 467.619 166.26C470.555 164.354 470.632 161.932 467.825 158.557L467.851 158.532Z" fill="#FFD232"/>
<path d="M431.853 107.345C433.578 103.687 434.994 99.8226 437.981 96.9116C438.805 97.298 439.475 97.8648 439.964 98.6376C439.011 102.321 436.385 105.155 434.943 108.581C432.599 109.998 432.239 109.869 431.853 107.345V107.345Z" fill="#171311"/>
<path d="M458.324 128.314C457.088 127.619 456.367 126.563 455.955 125.249C454.487 124.837 452.788 124.682 453.2 122.415C453.251 122.157 453.045 121.745 452.813 121.617C450.547 120.432 449.388 118.01 447.303 116.619C447.406 116.001 447.2 114.764 448.075 115.073C449.852 115.692 450.856 114.197 452.298 114.017C455.208 118.396 457.397 123.085 458.298 128.314H458.324Z" fill="#241E1A"/>
<path d="M380.018 97.5044C378.499 96.8604 377.494 97.5817 376.67 98.7667C375.718 100.132 375.048 100.647 374.353 98.4833C373.632 96.2421 372.19 95.5981 369.769 96.8346C367.658 97.9166 365.443 99.8744 362.714 98.0969C363.77 96.8604 365.057 95.933 366.448 95.1344C367.194 95.9072 368.173 95.8042 368.997 95.5981C371.211 95.0314 373.4 94.5161 375.692 94.4389C376.619 93.666 377.829 93.5888 378.112 94.6965C378.318 95.5208 378.318 95.2374 378.911 95.2117C380.868 95.1344 381.228 95.9845 380.018 97.5044V97.5044Z" fill="#2E251F"/>
<path d="M473.388 147.506C473.645 146.63 473.903 145.754 474.186 144.878C476.478 146.81 477.765 149.026 476.349 152.066C475.113 154.719 473.079 155.827 470.195 155.286C469.706 154.951 469.165 154.667 468.727 154.281C467.929 153.611 467.182 152.813 468.058 151.757C469.216 150.365 469.654 151.963 470.375 152.426C470.71 152.632 471.07 152.761 471.405 152.942C473.697 151.731 474.186 149.876 473.388 147.532V147.506Z" fill="#FFD232"/>
<path d="M361.478 99.3076C361.864 100.57 365.289 100.827 362.74 103.069C361.401 102.219 359.444 104.872 358.362 102.322C359.212 101.137 360.268 100.132 361.478 99.3076V99.3076Z" fill="#4B3B30"/>
<path d="M268.237 228.833C265.997 229.399 264.195 228.704 262.701 227.029C264.684 227.235 266.976 226.437 268.237 228.833Z" fill="#3E376C"/>
<path d="M104.648 133.904C104.648 137.176 104.699 140.473 104.725 143.745C103.669 140.473 103.927 137.176 104.648 133.904Z" fill="#F3CDB1"/>
<path d="M458.401 131.406C458.633 131.406 458.864 131.406 459.096 131.406C459.663 131.534 459.766 131.972 459.766 132.436C459.92 132.9 460.075 133.389 460.255 133.853C458.761 134.806 458.607 133.08 457.809 132.642C457.809 132.127 457.912 131.663 458.401 131.38V131.406Z" fill="#302720"/>
<path d="M215.038 142.483C223.793 140.989 232.136 142.251 239.397 147.454C248.513 153.946 246.582 165.075 235.612 170.407C228.557 173.833 221.115 174.684 213.39 173.911C212.772 173.344 212.308 172.674 212.128 171.85C210.171 162.885 209.939 153.972 213.107 145.188C213.493 144.08 214.111 143.178 215.038 142.483V142.483Z" fill="#0065AE"/>
<path d="M160.139 193.772C151.976 193.18 145.693 189.676 142.32 181.897C139.05 174.323 140.672 167.496 145.719 161.288C147.573 159.021 150.096 158.609 151.95 160.026C153.907 161.52 153.907 163.838 151.899 166.517C147.393 172.597 147.676 178.058 152.749 182.901C157.693 187.59 166.396 186.276 169.744 180.299C170.284 179.321 170.722 178.264 171.263 177.285C172.396 175.328 173.941 174.091 176.31 174.993C178.653 175.894 179.091 177.955 178.627 180.093C177.803 183.983 175.28 186.894 172.319 189.316C168.817 192.149 164.825 193.953 160.113 193.772H160.139Z" fill="#DD859F"/>
<path d="M215.038 142.482C210.583 152.761 210.995 163.271 213.416 173.911C209.27 173.576 205.33 172.391 201.725 170.484C190.988 164.817 190.421 153.791 200.618 147.171C204.944 144.363 209.785 142.585 215.064 142.482H215.038Z" fill="#EEEDEC"/>
<path d="M239.887 136.017C239.372 137.897 237.981 137.949 236.359 137.202C224.978 131.972 213.261 132.359 201.442 135.192C198.532 135.888 195.777 137.021 193.794 139.494C192.945 140.576 191.863 141.195 190.627 140.164C189.417 139.134 189.906 137.923 190.627 136.841C192.095 134.574 194.361 133.26 196.781 132.436C209.837 128.005 222.943 128.005 235.999 132.385C238.986 133.389 239.964 134.523 239.887 136.043V136.017Z" fill="#DAA600"/>
<path d="M103.438 160.824C103.438 162.576 103.438 163.787 103.438 165.023C103.438 165.796 103.669 166.775 102.614 167.084C101.738 167.342 101.017 166.904 100.425 166.286C97.5408 163.194 95.8671 159.511 95.5581 155.312C95.4036 153.276 96.4336 151.551 98.5966 151.37C100.76 151.19 102.202 152.632 102.871 154.642C103.592 156.806 103.541 159.073 103.463 160.824H103.438Z" fill="#C79065"/>
<path d="M155.864 172.416C156.534 172.03 157.152 172.03 157.976 172.416C157.178 172.854 156.56 172.906 155.864 172.416Z" fill="#E5BDA2"/>
<path d="M175.769 227.647C176.155 228.034 176.516 228.395 176.902 228.781C176.13 228.781 175.357 228.781 174.585 228.781C174.507 228.626 174.43 228.472 174.327 228.343C174.816 228.111 175.28 227.879 175.769 227.647Z" fill="#CBA795"/>
<path d="M455.311 257.916C457.268 260.698 456.907 263.815 456.366 266.829C455.105 273.656 451.912 279.555 446.942 284.424C442.642 288.649 440.736 288.365 437.466 283.265C438.573 279.684 441.122 276.953 443.131 273.914C446.118 269.406 449.208 264.975 452.298 260.518C453.045 259.462 453.482 257.839 455.311 257.916V257.916Z" fill="#F1F1F6"/>
<path d="M455.311 257.916C449.337 265.593 444.264 273.914 438.625 281.822C438.265 282.312 437.853 282.775 437.492 283.239C436.205 282.157 435.355 280.766 434.479 279.375C438.986 272.574 443.647 265.876 448.256 259.127C448.9 258.2 449.543 257.298 450.496 256.654C452.17 256.86 454.204 255.727 455.363 257.916H455.311Z" fill="#444496"/>
<path d="M433.656 277.623C432.626 276.103 431.75 274.532 431.261 272.754C433.346 267.911 436.9 263.97 439.552 259.488C439.964 258.766 441.406 257.942 439.655 257.092C439.398 256.963 439.243 256.757 439.14 256.499C441.895 255.263 444.625 257.195 447.38 256.602C447.741 257.53 447.148 258.2 446.711 258.844C442.925 264.563 439.063 270.256 435.406 276.078C434.969 276.773 434.531 277.494 433.63 277.649L433.656 277.623Z" fill="#444496"/>
<path d="M433.655 277.623C438.239 270.616 442.822 263.584 447.406 256.577C448.436 256.602 449.466 256.654 450.496 256.68C445.964 264.537 440.402 271.724 435.355 279.246C435.252 279.426 434.788 279.349 434.505 279.401C434.222 278.808 433.964 278.216 433.681 277.623H433.655Z" fill="#EFEFF5"/>
<path d="M430.565 270.745C430.076 267.319 429.149 263.919 429.896 260.415C430.642 259.307 429.741 262.759 430.848 260.75C431.724 259.204 432.522 257.581 434.222 256.731C435.87 256.654 437.492 256.577 439.14 256.5L439.346 256.731C439.552 257.247 439.5 257.788 439.191 258.2C436.256 262.347 433.835 266.855 430.539 270.771L430.565 270.745Z" fill="#454596"/>
<path d="M430.565 270.745C432.728 265.593 436.462 261.42 439.346 256.705C440.222 256.602 441.123 256.242 442.153 257.015C438.29 262.115 435.458 267.911 431.261 272.754C431.029 272.085 430.797 271.415 430.565 270.745Z" fill="#EDEDF4"/>
<path d="M438.625 249.673C440.531 249.467 441.792 248.668 442.565 246.762C443.543 248.488 444.599 249.621 446.504 249.261C446.685 250.755 443.826 250.909 445.294 252.841C445.758 253.46 444.522 253.717 444.11 253.408C442.771 252.429 441.638 253.202 440.119 253.846C441.483 251.656 440.118 250.78 438.625 249.673V249.673Z" fill="#D1AA3B"/>
<path d="M434.221 256.706C432.985 258.612 431.75 260.544 430.436 262.605C429.638 261.883 430.05 261.059 429.896 260.389C430.205 257.813 431.827 256.809 434.221 256.706Z" fill="#E0DFED"/>
<path d="M380.661 172.7C375.228 175.379 369.589 174.786 363.924 173.653C360.242 172.906 356.92 171.437 354.036 168.964C347.392 163.297 346.749 155.157 352.542 148.665C358.079 142.482 365.417 140.241 373.348 139.443C374.095 139.365 374.919 139.803 375.692 139.984C377.211 139.932 377.752 141.194 378.421 142.148C384.112 150.236 385.76 159.098 383.211 168.681C382.799 170.278 382.258 171.85 380.61 172.674L380.661 172.7Z" fill="#050606"/>
<path d="M407.854 239.832C401.751 240.476 395.7 241.069 389.572 239.446C384.447 238.106 383.005 237.05 383.16 231.898C383.34 226.746 382.413 221.671 382.413 216.57C387.357 217.395 392.301 217.962 397.348 217.833C403.09 217.704 408.807 217.317 414.317 215.798C417.253 214.999 417.794 216.107 417.665 218.58C417.227 226.025 414.137 232.336 409.451 238.003C408.936 238.622 408.369 239.24 407.828 239.832H407.854Z" fill="#3C2E25"/>
<path d="M439.32 175.379C439.063 181.845 435.587 188.182 428.583 192.304C421.45 196.503 414.137 196.4 406.901 192.432C405.33 191.582 403.94 190.5 403.605 188.62C403.348 187.203 403.863 185.941 404.996 185.065C406.566 183.854 408.266 184.009 409.914 184.936C413.236 186.817 416.635 187.77 420.523 186.971C426.832 185.683 431.389 180.093 431.286 173.472C431.183 166.903 426.394 161.313 420.034 160.412C418.489 160.18 416.944 160 415.836 158.763C414.755 157.552 414.317 156.136 415.115 154.513C416.145 152.452 417.845 151.937 419.982 152.143C430.823 153.225 439.346 162.73 439.32 175.327V175.379Z" fill="#DF98B0"/>
<path d="M391.812 133.904C391.091 133.956 390.241 133.621 389.365 133.312C378.885 129.422 368.688 130.22 358.903 135.501C355.324 137.433 352.569 137.253 350.792 134.522C349.067 131.817 350.071 128.417 353.496 126.537C365.727 119.839 378.525 118.576 391.786 122.904C393.331 123.419 394.824 124.167 395.932 125.455C397.399 127.181 397.786 129.087 396.781 131.173C395.829 133.157 394.155 133.956 391.786 133.904H391.812Z" fill="#050606"/>
<path d="M380.662 172.7C385.838 161.855 384.138 151.756 377.443 142.173C376.928 141.426 376.284 140.757 375.718 140.035C380.533 139.082 384.911 140.654 389.031 142.792C399.356 148.15 400.876 158.815 392.455 166.775C389.159 169.892 385.426 172.416 380.662 172.7Z" fill="#F8F3F0"/>
<path d="M403.476 95.0314C404.068 94.0525 405.227 94.7223 405.974 94.2071C404.841 92.3008 402.961 92.5069 401.133 92.3523C403.296 91.0127 406 91.4507 407.699 92.2493C410.789 93.7176 414.291 92.1977 417.149 94.2844C418.128 95.0057 419.261 95.1087 418.282 96.6543C417.536 97.8393 418.797 97.9424 419.415 98.303C420.111 98.7152 420.651 98.4833 420.729 97.6848C420.857 96.4225 421.681 95.6239 422.737 95.8815C424.462 96.3195 422.737 97.2726 422.84 97.9681C422.917 98.6379 422.892 99.9775 424.102 99.2304C425.827 98.1485 427.269 97.5044 428.582 99.7199C428.737 99.9775 429.535 99.8744 430.05 99.926C429.638 100.75 429.226 101.575 428.788 102.373C426.728 103.842 424.771 103.429 422.943 102.013C422.016 101.291 421.218 100.931 420.42 102.09C418.746 104.46 416.789 104.305 414.703 102.682C414.24 102.193 414.832 101.394 414.214 100.931C412.746 97.9939 411.201 95.4178 407.107 96.4225C405.948 96.7059 404.558 95.8815 403.553 94.9799L403.476 95.0314Z" fill="#151210"/>
<path d="M461.517 154.436C461.517 149.85 461.44 145.265 461.569 140.679C461.62 138.721 463.32 138.309 464.916 138.232C466.667 138.155 467.826 139.082 468.238 140.834C468.598 142.431 467.955 143.874 467.491 145.342C466.41 148.82 464.453 151.782 462.341 154.642C462.084 154.564 461.8 154.513 461.543 154.436H461.517Z" fill="#3C2E25"/>
<path d="M388.67 104.898C389.778 104.073 388.439 103.249 388.67 102.451C390.833 101.961 393.074 101.034 395.056 102.785C396.524 104.073 397.992 102.167 399.408 102.966C401.648 103.017 402.447 105.31 404.275 106.057C406.206 106.881 406.489 108.066 405.073 109.612C404.97 109.689 404.841 109.767 404.713 109.844C403.502 109.561 402.524 111.106 401.108 110.256C400.593 109.947 400 110.23 400.284 109.303C400.438 108.788 400.335 108.221 399.691 108.118C398.842 107.989 398.739 108.453 398.816 109.226C398.893 110.05 398.172 110.488 397.863 109.612C397.219 107.628 395.185 108.839 394.876 108.453C393.383 106.624 391.451 108.041 389.932 107.371C389.52 106.547 387.975 106.881 388.078 105.542C388.258 105.31 388.31 104.949 388.696 104.924L388.67 104.898Z" fill="#4D3D31"/>
<path d="M447.302 116.619C448.641 116.413 450.599 115.253 449.826 118.319C449.543 119.478 450.624 119.04 451.165 119.324C452.813 120.199 454.719 121.075 454.049 123.548C453.534 125.48 456.263 123.677 455.954 125.274C453.173 125.892 451.577 124.089 450.135 122.209C448.796 120.483 448.796 117.16 444.856 119.143C443.929 119.607 441.766 118.783 440.35 120.431C440.402 118.834 441.045 117.572 440.504 115.975C438.985 117.572 437.801 116.928 436.822 115.408C436.822 114.532 437.234 113.914 438.033 113.527C438.754 115.537 440.453 116.129 441.792 114.815C443.311 113.347 444.238 114.326 445.448 114.79C446.015 114.635 446.298 114.79 446.067 115.408C446.067 116.206 446.478 116.619 447.302 116.644V116.619Z" fill="#2C231D"/>
<path d="M414.6 102.425C416.866 103.301 419.029 104.073 420.265 100.879C420.574 100.08 421.785 99.4364 422.506 100.57C424.102 103.069 426.445 102.656 428.763 102.425C428.196 103.816 427.372 105.052 426.342 106.16C421.81 108.581 414.807 107.396 412.438 103.79C412.643 102.528 413.519 102.322 414.6 102.425Z" fill="#2A221C"/>
<path d="M412.747 103.661C413.725 105.413 415.682 105.31 417.201 106.082C420.266 107.654 423.304 105.954 426.343 106.16C426.059 107.551 425.493 108.813 424.463 109.843C422.351 110.925 420.446 108.71 418.386 109.483C417.716 108.993 417.201 106.958 416.249 109.328C416.12 109.637 415.528 109.56 415.116 109.354C414.91 109.148 414.781 108.916 414.678 108.633C414.575 107.577 414.24 106.907 412.927 107.293C411.871 107.602 410.815 108.169 409.657 107.705C407.931 106.752 406.206 105.825 404.79 104.434C403.914 102.63 401.983 100.801 404.816 99.024C405.768 98.7921 406.541 99.127 407.236 99.7453C407.7 101.291 409.219 102.064 409.863 103.584C410.429 104.897 411.768 102.605 412.721 103.687L412.747 103.661Z" fill="#3D3027"/>
<path d="M366.448 101.832C366.937 101.162 366.576 99.9258 368.147 99.8228C367.323 102.27 370.027 103.919 370.748 103.79C372.859 103.403 370.362 101.471 371.314 100.209C372.216 99.8228 372.731 101.574 373.864 100.905C375.331 100.055 375.846 100.956 376.464 102.219C377.366 104.022 378.37 104.022 378.782 101.832C379.863 101.446 380.353 102.244 380.893 102.914C381.099 103.326 381.177 103.738 381.125 104.176C381.074 104.46 380.945 104.717 380.765 104.975C380.507 105.129 380.249 105.129 379.992 104.898C378.498 104.975 376.747 103.996 375.769 106.057C375.666 106.263 374.996 106.469 374.996 106.443C373.065 103.197 368.894 107.422 366.963 104.048C366.808 103.79 366.216 103.79 365.829 103.687C365.443 102.888 365.907 102.347 366.422 101.832H366.448Z" fill="#4C3C30"/>
<path d="M436.204 116.619C436.977 117.881 438.47 118.525 438.547 120.509C438.599 121.307 441.38 121.951 442.925 121.307C445.397 120.251 445.654 121.436 445.448 123.394C445.474 123.935 445.294 124.373 444.805 124.656C441.225 124.192 438.393 121.874 435.226 120.483C433.552 119.736 434.917 117.726 436.204 116.644V116.619Z" fill="#4B3B30"/>
<path d="M431.852 107.345C432.316 109.148 433.526 109.148 434.942 108.581C433.5 111.054 432.084 113.527 430.642 116C429.458 115.846 427.552 116.696 428.17 114.146C429.046 111.698 429.87 109.199 431.852 107.345Z" fill="#322820"/>
<path d="M409.656 107.371C410.841 107.525 411.742 106.675 412.824 106.547C414.214 106.366 415.708 106.444 415.218 108.607C414.832 109.045 414.729 109.767 413.982 109.844C413.287 110.514 412.669 111.338 411.51 111.055C411.176 110.23 410.506 109.921 409.682 109.818C408.987 109.818 408.266 109.947 407.802 109.226C407.674 109.097 407.596 108.942 407.622 108.788C407.622 108.607 407.648 108.53 407.699 108.53C408.266 107.989 408.961 107.629 409.682 107.371H409.656Z" fill="#493A2F"/>
<path d="M418.309 109.226C420.575 107.216 422.377 109.973 424.463 109.818C424.257 110.23 424.051 110.642 423.845 111.055C422.377 113.244 420.24 112.317 418.283 112.291C418.077 111.879 417.871 111.467 417.665 111.055C417.279 110.23 417.665 109.664 418.309 109.2V109.226Z" fill="#201A16"/>
<path d="M418.282 112.317C419.879 110.797 422.222 112.471 423.844 111.08C423.715 111.57 423.638 112.059 423.432 112.523C422.943 113.63 423.02 115.665 421.527 115.459C420.162 115.253 418.462 114.3 418.282 112.342V112.317Z" fill="#4A3A2F"/>
<path d="M382.49 102.45C384.138 104.073 386.275 105.232 387.434 107.37C387.228 107.963 385.734 107.319 386.224 108.607C384.704 107.937 382.902 107.705 381.898 106.16C381.563 105.258 382.49 104.46 382.104 103.532C382.104 103.12 382.207 102.734 382.516 102.45H382.49Z" fill="#4D3D31"/>
<path d="M418.308 109.226C418.102 109.844 417.871 110.462 417.665 111.08C417.484 111.08 417.278 111.08 417.098 111.08C416.274 110.668 415.115 110.565 415.218 109.226C415.424 109.174 415.708 109.226 415.785 109.097C416.248 108.35 415.733 106.778 417.175 106.881C418.54 106.984 417.922 108.427 418.308 109.251V109.226Z" fill="#493A2F"/>
<path d="M415.218 109.226C415.656 110.024 417.201 109.741 417.098 111.08C415.244 113.167 415.167 113.116 413.982 109.844C414.214 109.251 414.626 108.839 415.218 108.607C415.218 108.814 415.218 109.02 415.218 109.226V109.226Z" fill="#392D25"/>
<path d="M428.171 114.146C427.913 116.206 430.102 114.996 430.643 116C430.05 116.979 429.767 118.551 428.068 117.366C426.548 116.284 427.038 115.202 428.171 114.146Z" fill="#4E3E31"/>
<path d="M444.805 124.656C444.856 124.141 444.933 123.677 445.448 123.394C446.195 122.904 446.736 121.487 447.895 122.595C448.796 123.471 447.38 123.909 447.302 124.63C446.478 124.965 445.654 125.738 444.805 124.63V124.656Z" fill="#2B231D"/>
<path d="M407.802 108.633C407.802 108.839 407.802 109.019 407.802 109.225C406.849 109.818 406.308 112.394 404.712 109.844C405.33 108.401 406.128 107.422 407.776 108.659L407.802 108.633Z" fill="#4D3D31"/>
<path d="M382.515 103.661C383.932 104.898 382.335 105.362 381.897 106.134C381.485 106.134 381.073 106.134 380.661 106.134C380.327 105.722 380.275 105.31 380.661 104.872C380.661 104.666 380.661 104.46 380.661 104.254C381.176 103.713 381.794 103.533 382.515 103.636V103.661Z" fill="#3D3027"/>
<path d="M457.783 132.667C458.607 133.08 459.431 133.466 460.229 133.878C458.865 135.115 458.607 134.986 457.783 132.667Z" fill="#48392D"/>
<path d="M366.448 101.832C366.242 102.45 366.062 103.069 365.856 103.687C364.903 104.305 365.341 103.352 365.186 103.069C365.186 102.528 365.135 101.987 365.135 101.42C365.573 101.549 366.01 101.678 366.448 101.806V101.832Z" fill="#191512"/>
<path d="M409.656 109.844C410.249 109.122 411.021 108.994 411.69 109.535C412.283 109.998 411.639 110.565 411.485 111.08C411.279 111.08 411.072 111.08 410.892 111.08C410.171 110.977 410.068 110.256 409.656 109.844V109.844Z" fill="#211B17"/>
<path d="M386.198 108.581C385.452 107.061 386.662 107.422 387.409 107.345C387.615 107.345 387.821 107.345 388.027 107.345C388.001 108.607 387.1 108.581 386.198 108.555V108.581Z" fill="#2C241D"/>
<path d="M380.636 104.897C380.636 105.31 380.636 105.722 380.636 106.16C380.147 106.907 379.451 106.752 378.756 106.726C378.215 105.361 380.507 106.16 380.018 104.923C380.224 104.923 380.43 104.923 380.636 104.923V104.897Z" fill="#4A3B2F"/>
<path d="M456.572 130.195C457.371 129.86 458.272 129.19 458.426 130.813C457.808 130.581 456.701 131.843 456.572 130.195Z" fill="#261F1A"/>
<path d="M439.886 109.818C439.783 110.797 440.324 112.111 438.65 112.291C438.779 111.312 439.088 110.462 439.886 109.818Z" fill="#2C231D"/>
<path d="M409.656 109.844C410.274 110.05 410.635 110.514 410.892 111.08C409.218 111.93 409.862 110.462 409.656 109.844Z" fill="#493A2F"/>
<path d="M196.729 229.116C197.734 229.013 198.738 228.91 199.742 228.807C199.82 229.27 200.489 230.069 199.253 229.811C198.403 229.657 197.553 229.348 196.729 229.09V229.116Z" fill="#2B2B65"/>
<path d="M407.185 99.9772C406.361 99.7712 405.537 99.5651 404.713 99.359C403.734 98.7407 403.168 99.3075 402.344 99.9C400.464 101.265 398.043 100.415 396.679 98.1482C396.988 97.633 397.425 96.6541 397.606 96.7056C399.357 97.092 399.202 96.448 398.687 95.2115C398.327 94.3614 398.893 93.9235 399.769 93.8462C400.464 95.8555 402.086 95.1085 403.477 95.0827C406.026 96.4223 409.142 94.1038 411.614 96.3965C413.081 97.7618 414.781 98.8953 414.601 101.24C413.184 101.574 411.845 101.343 410.635 100.57C409.554 99.8742 408.369 100.003 407.185 100.003V99.9772Z" fill="#221B17"/>
<path d="M380.018 97.5042C379.58 96.8602 380.507 94.9024 378.421 95.8813C377.752 96.1904 377.056 97.3754 376.387 96.4223C375.537 95.1857 378.061 95.9586 377.649 94.6963C377.082 94.2068 376.361 94.516 375.692 94.4387C375.486 93.6659 374.559 92.1717 375.769 92.3521C377.082 92.5581 379.374 90.2912 379.709 93.0476C380.069 95.9586 381.46 95.3661 383.288 94.9024C383.005 93.7431 382.103 92.893 382.335 91.7338C386.455 92.0687 390.369 93.3052 394.283 94.5417C394.901 94.7478 395.184 94.7221 395.442 94.1296C395.777 93.3052 396.395 92.893 397.013 93.6916C397.579 94.4387 397.322 95.2888 396.42 95.7267C395.493 96.1646 394.541 96.4995 393.588 96.886C392.069 98.0967 390.961 100.003 388.644 99.9772C387.871 100.106 387.408 101.574 386.352 100.441C385.245 99.2817 386.996 99.2817 387.022 98.6377C387.022 98.277 386.867 97.8906 386.79 97.5042C384.524 96.5511 382.258 97.5557 379.992 97.5042H380.018Z" fill="#221B17"/>
<path d="M388.67 99.9775C390.704 99.5653 391.168 96.6543 393.614 96.8862C393.614 97.7878 393.588 98.6894 394.85 98.7409C395.7 99.385 395.725 98.4061 396.112 98.1227C396.318 98.1227 396.524 98.1227 396.73 98.1227C398.687 98.7152 400.489 102.09 402.704 98.0454C403.476 96.6543 404.764 97.7363 404.764 99.3592C404.326 100.467 403.038 101.575 404.918 102.682C405.613 103.095 404.918 103.764 404.764 104.305C404.635 104.357 404.506 104.408 404.377 104.46C402.781 103.352 401.056 103.069 399.202 103.687C397.167 103.764 394.798 105.258 393.562 102.244C392.017 103.764 390.318 102.141 388.721 102.45C387.717 101.626 390.215 100.776 388.721 99.9517L388.67 99.9775Z" fill="#362B23"/>
<path d="M396.086 98.1226C395.957 98.7923 396.472 99.797 395.725 100.029C394.978 100.261 394.953 99.3076 394.85 98.7408C395.262 98.5347 395.674 98.3286 396.111 98.1226H396.086Z" fill="#221B17"/>
<path d="M380.018 97.5045C382.284 96.371 384.55 95.2633 386.816 97.5045C384.55 98.2258 382.284 98.4576 380.018 97.5045Z" fill="#2E251F"/>
<path d="M380.636 103.043C380.018 102.631 379.426 102.219 378.808 101.806C378.808 101.214 377.495 100.055 379.323 100.287C380.456 100.441 381.872 100.673 381.872 102.399C381.589 102.863 381.151 103.043 380.636 103.017V103.043Z" fill="#4A3B2F"/>
<path d="M380.636 103.043C380.919 102.554 381.357 102.425 381.872 102.425C382.078 102.425 382.284 102.425 382.49 102.425C382.49 102.837 382.49 103.249 382.49 103.636C382.052 104.357 381.331 104.254 380.636 104.254C380.636 103.842 380.636 103.429 380.61 103.043H380.636Z" fill="#2B221C"/>
<path d="M388.67 104.898C388.464 105.104 388.258 105.31 388.052 105.516C387.923 104.717 386.584 105.233 386.661 104.305C386.687 103.996 387.125 103.558 387.434 103.507C388.387 103.378 388.258 104.408 388.67 104.872V104.898Z" fill="#2D241E"/>
<path d="M446.067 115.382C445.861 115.176 445.655 114.97 445.449 114.764C446.17 114.043 445.604 112.729 446.608 112.162C446.763 112.085 447.329 112.342 447.355 112.523C447.535 113.733 446.84 114.584 446.067 115.408V115.382Z" fill="#241E1A"/>
<path d="M217.664 156.754C216.686 160.927 217.741 164.302 218.153 167.702C218.282 168.758 218.565 169.918 217.226 170.175C215.939 170.433 215.424 169.248 215.321 168.269C214.935 164.637 214.265 161.004 214.626 157.321C214.729 156.264 215.038 155.079 216.274 155.131C217.561 155.183 217.741 156.316 217.664 156.754V156.754Z" fill="#F4F0EE"/>
<path d="M216.969 152.761C215.501 152.4 215.063 151.421 215.14 150.03C215.218 148.717 215.784 147.841 217.149 147.944C218.565 148.047 218.951 149.206 218.823 150.365C218.694 151.447 218.359 152.581 216.969 152.761V152.761Z" fill="#F3EFED"/>
<path d="M380.739 162.215C380.765 163.374 380.378 165.178 379.786 166.929C379.348 168.243 378.421 169.402 376.799 168.861C375.357 168.372 375.28 167.084 375.64 165.796C376.233 163.709 376.516 161.597 376.336 159.407C376.233 157.939 376.387 156.599 378.215 156.548C380.069 156.471 380.662 157.707 380.713 159.356C380.713 160.077 380.713 160.798 380.713 162.215H380.739Z" fill="#F7F1ED"/>
<path d="M373.117 150.571C373.117 148.382 374.121 147.042 376.026 147.068C378.498 147.119 379.194 149.103 379.219 151.164C379.219 152.89 378.241 154.229 376.361 154.049C374.301 153.843 373.039 152.581 373.117 150.571Z" fill="#F4EEE9"/>
<path d="M407.184 99.9775C408.086 98.9986 408.91 98.638 410.275 99.5138C411.536 100.338 413.133 100.647 414.6 101.214C415.27 101.626 414.652 102.038 414.6 102.451C413.982 102.863 413.364 103.275 412.746 103.687C410.764 105.155 408.961 106.418 408.498 102.399C408.472 102.116 406.464 101.575 407.21 100.003L407.184 99.9775Z" fill="#322821"/>
<path d="M407.802 108.633C406.54 108.401 405.51 108.787 404.738 109.818C404.171 108.865 406.566 107.319 404.12 106.727C403.759 105.773 403.991 104.949 404.738 104.279C406.746 104.717 408.497 105.593 409.682 107.371C409.63 108.633 408.703 108.607 407.828 108.633H407.802Z" fill="#2C231D"/>
<path d="M404.712 104.279C404.815 105.181 404.506 105.98 404.094 106.727C401.983 106.443 401.365 103.764 399.15 103.661C400.558 102.579 402.412 102.785 404.712 104.279V104.279Z" fill="#3D3027"/>
</g>
<defs>
<clipPath id="clip0_5484_43210">
<rect width="595" height="297" fill="white"/>
</clipPath>
</defs>
</svg>
