<svg width="595" height="297" viewBox="0 0 595 297" fill="none" xmlns="http://www.w3.org/2000/svg">
<g clip-path="url(#clip0_5484_43219)">
<rect width="595" height="297" fill="#4F77C2"/>
<path d="M373.863 221.98C374.816 221.413 375.872 221.697 376.876 221.594C377.752 221.516 378.782 221.8 378.91 220.357C379.013 219.146 378.627 218.425 377.417 218.065C375.743 217.575 374.069 217.06 372.447 216.416C344.38 205.416 327.822 185.142 323.805 155.183C319.994 126.82 334.569 97.7362 359.881 83.2071C360.396 82.898 361.014 82.7177 361.555 82.4858C363.975 82.7177 365.057 84.8558 366.653 86.1954C378.601 96.2678 392.017 104.022 406.025 110.745C420.6 117.727 435.663 123.42 451.397 127.258C457.577 128.778 463.86 129.834 470.246 130.04C477.018 130.246 482.631 134.6 485.052 141.22C487.472 147.867 485.876 155.646 481.189 160.026C480.52 160.67 479.825 161.288 478.872 161.468C476.606 161.468 474.803 159.794 472.409 159.897C467.027 160.077 463.602 164.585 465.224 169.763C465.585 170.922 466.383 171.953 466.357 173.241C465.662 175.508 465.224 177.929 463.267 179.578C456.933 191.505 448.461 201.475 437.002 208.816C429.921 213.35 422.351 216.751 414.136 218.502C411.536 219.069 410.351 220.048 410.892 222.701C412.334 226.076 411.639 227.725 408.188 228.472C405.562 229.039 402.909 230.043 400.128 229.27C398.867 227.622 400.463 226.926 401.313 226.128C403.012 224.556 404.918 223.165 406.463 221.645C406.36 220.847 405.948 220.795 405.536 220.847C398.48 221.542 391.451 220.847 384.498 219.816C381.691 219.378 380.172 220.177 379.091 222.547C377.262 223.088 375.46 223.448 373.838 221.98H373.863Z" fill="#E7A66A"/>
<path d="M162.843 225.174C162.843 222.804 162.74 220.46 162.843 218.09C162.92 216.442 162.225 215.952 160.654 216.029C152.337 216.364 144.019 216.673 135.702 216.905C130.063 217.086 124.398 217.189 118.733 217.24C116.673 217.266 115.385 216.545 116.673 214.252C117.162 213.35 117.033 212.449 117.033 211.547C117.059 201.681 117.033 191.814 117.111 181.948C117.111 180.428 116.853 179.629 115.205 179.088C106.656 176.255 103.077 167.908 106.733 159.51C108.484 155.492 111.368 152.503 115.282 150.546C116.415 149.979 117.548 149.515 117.6 148.021C118.784 146.681 120.793 146.063 120.716 143.59C120.69 142.508 122.08 141.916 123.368 142.534C123.909 143.178 124.346 143.642 124.784 142.405C124.939 141.967 125.531 141.787 125.969 141.504C129.857 137.279 134.775 134.651 139.796 132.075C146.826 128.469 153.753 124.708 160.937 121.41C166.808 118.705 172.756 116.181 178.653 113.579C179.297 113.296 180.044 113.167 180.327 112.368C180.842 110.565 182.129 110.616 183.571 111.054C187.099 111.698 189.674 109.225 192.558 108.015C194.283 107.293 195.7 106.392 197.657 106.855C199.073 107.19 200.438 106.443 201.802 106.108C203.116 105.928 204.403 105.439 205.51 104.82C209.605 102.579 214.24 103.558 218.514 102.476C220.42 101.909 221.759 100.312 223.664 99.7712C225.286 101.188 226.291 99.7712 227.424 98.9726C228.608 99.1014 229.767 99.2045 230.823 98.4832C231.08 98.3801 231.338 98.3544 231.621 98.3286C231.75 98.3286 231.878 98.3801 232.007 98.3801C232.908 98.6377 233.81 98.8696 234.222 99.8743C235.071 107.809 235.947 115.769 236.771 123.703C237.569 131.328 238.342 138.953 239.088 146.578C239.784 153.585 240.402 160.618 241.097 167.625C241.844 175.25 242.642 182.875 243.414 190.5C244.084 197.198 244.702 203.922 245.423 210.645C245.68 213.196 244.29 213.891 242.153 213.943C230.539 214.226 218.952 214.484 207.339 214.767C202.626 214.896 197.888 215.102 193.176 215.282C192.223 216.004 191.09 216.107 189.957 216.055C182.979 215.669 176.052 216.905 169.1 216.725C165.83 216.622 165.598 217.137 166.654 220.409C169.46 229.09 174.559 236.02 182.078 241.223C183.958 242.537 186.713 243.258 186.893 246.298C183.958 249.132 180.353 248.308 176.954 247.921C173.992 247.586 171.16 246.375 168.714 244.624C164.697 241.764 161.684 238.312 162.431 232.8C162.765 230.275 162.096 227.673 162.817 225.149L162.843 225.174Z" fill="#C58444"/>
<path d="M162.842 225.175C163.718 228.575 163.151 232.053 163.229 235.505C163.28 237.488 163.898 239.008 165.211 240.451C171.031 246.865 179.503 249.106 186.841 246.144C187.099 245.319 187.717 244.778 188.438 244.366C192.764 241.816 193.511 237.694 193.073 233.212C192.815 230.662 192.712 228.137 192.764 225.587C192.815 223.5 193.742 222.547 195.905 223.191C228.273 227.055 252.967 243.181 270.735 270.23C276.168 278.499 280.056 287.49 282.94 297.176H88.2188C94.3988 271.363 119.273 235.402 162.868 225.2L162.842 225.175Z" fill="#010101"/>
<path d="M425.106 226.437C433.295 226.437 441.483 226.437 449.698 226.437C451.989 227.828 454.513 227.982 457.114 227.957C463.577 227.905 470.04 227.905 476.529 227.957C478.023 227.957 479.645 227.673 480.881 228.961C481.628 231.022 481.679 233.212 481.731 235.324C482.143 255.856 479.49 275.949 473.336 295.553C472.924 296.867 472.409 297.382 471.044 297.356C463.345 297.279 455.672 297.253 447.972 297.227C447.097 295.836 447.818 294.419 448.024 293.08C449.363 284.862 450.238 276.67 447.406 268.53C450.599 277.778 449.08 287 447.406 296.248C447.329 296.661 447.02 296.97 446.711 297.253C431.132 297.279 415.527 297.356 399.949 297.356C382.619 297.356 365.289 297.305 347.959 297.253C346.517 292.487 346.878 287.515 346.826 282.672C346.775 278.293 347.032 273.862 348.294 269.586C348.423 269.148 348.346 268.53 348.758 268.504C347.444 271.235 347.316 274.326 347.058 277.366C346.543 283.085 346.852 288.804 347.316 294.522C347.393 295.424 347.47 296.377 347.213 297.279C342.603 297.305 337.968 297.279 333.359 297.408C331.891 297.459 331.222 296.944 330.733 295.579C323.754 275.923 321.875 255.649 323.471 234.964C323.626 233.032 323.832 231.074 324.012 229.142C325.222 228.395 326.587 228.601 327.9 228.601C334.26 228.549 340.621 228.601 346.981 228.678C349.35 228.704 351.41 228.189 352.981 226.282C357.847 226.282 362.714 226.282 367.607 226.282C368.431 227.467 367.555 228.446 367.143 229.425C365.186 233.959 363.075 238.416 361.066 242.924C358.877 247.818 359.315 249.003 364.002 251.425C372.448 255.804 381.434 257.916 390.936 258.38C401.03 258.87 410.815 257.813 420.291 254.233C422.609 253.357 424.772 252.172 426.935 250.987C429.226 249.724 430.025 248.076 429.432 245.397C428.351 240.682 426.754 236.123 425.493 231.46C425.055 229.863 423.948 228.214 425.184 226.463L425.106 226.437Z" fill="#2B2E6B"/>
<path d="M463.268 179.604C464.143 177.491 465.019 175.353 465.894 173.241C467.027 172.958 467.826 173.705 468.727 174.143C471.637 175.585 474.495 175.508 477.121 173.55C479.877 171.489 480.726 168.475 479.799 165.049C479.465 163.787 478.486 162.679 478.795 161.262C488.22 153.457 487.576 139.443 477.482 132.925C475.988 131.972 474.418 131.225 472.615 131.148C453.689 130.349 436.05 124.373 418.772 117.263C401.365 110.101 384.756 101.446 369.873 89.802C366.963 87.5351 364.311 84.959 361.555 82.5117C359.701 80.0902 360.5 78.1582 362.637 76.4579C366.165 73.65 369.898 71.177 373.915 69.1419C374.121 69.1161 374.456 69.1419 374.482 69.2449C375.435 73.0575 377.907 72.2332 380.61 71.4346C389.726 68.7555 399.099 67.3644 408.575 67.4159C430.256 67.519 449.286 74.5259 464.736 90.0596C470.787 96.1391 475.654 103.12 479.568 110.771C481.756 115.073 482.477 115.228 486.546 112.574C489.198 110.823 491.799 108.968 494.58 107.422C495.533 106.881 496.46 106.083 497.696 106.675C521.386 119.736 525.094 152.555 505.06 171.67C493.576 182.592 476.915 185.761 463.294 179.604H463.268Z" fill="#040505"/>
<path d="M497.669 106.675C493.446 108.607 489.79 111.441 485.902 113.914C482.039 116.361 481.447 116.232 479.387 112.214C471.147 96.1133 459.482 83.4132 442.925 75.6335C433.552 71.2284 423.664 68.91 413.261 68.4205C401.339 67.8795 389.777 69.5025 378.395 72.8771C375.151 73.8303 374.893 73.6757 374.404 70.198C374.353 69.8373 374.069 69.4767 373.889 69.116C372.035 60.718 370.181 52.32 368.327 43.9221C368.919 42.4795 370.284 42.2218 371.546 41.8097C384.524 37.4304 397.785 34.6224 411.51 33.6178C425.647 32.5873 439.346 34.1587 452.736 38.5638C478.151 46.9103 495.378 63.9381 505.343 88.5654C506.424 91.2187 507.506 93.8979 508.098 96.7315C508.33 97.865 508.536 98.947 507.789 99.9774C504.339 102.09 500.785 104.073 497.669 106.675V106.675Z" fill="#2B2E6B"/>
<path d="M425.106 226.437C425.595 230.327 427.192 233.907 428.17 237.643C428.917 240.502 429.689 243.361 430.462 246.221C431.106 248.539 430.41 249.699 428.685 250.806C422.711 254.619 416.196 257.015 409.27 258.148C393.176 260.801 377.571 259.642 362.92 251.759C358.259 249.261 357.795 248.101 359.881 243.284C362.353 237.565 365.005 231.898 367.58 226.231C368.713 223.397 370.361 221.31 373.889 221.954C375.692 222.006 377.494 222.057 379.297 222.109C380.378 226.385 383.983 226.669 387.434 227.184C390.472 227.647 393.511 228.085 396.626 227.982C397.734 227.931 398.892 227.879 399.871 228.626C403.09 228.91 406.18 227.982 409.27 227.338C411.973 226.797 410.48 224.273 410.943 222.676C413.364 222.856 415.733 223.139 418.179 222.959C420.96 222.753 423.612 223.629 425.132 226.385L425.106 226.437Z" fill="#E63529"/>
<path d="M368.302 42.5824C366.989 39.826 367.272 37.7652 370.156 35.9619C383.443 27.7443 397.94 23.6483 413.493 22.6694C435.741 21.2526 456.547 25.8895 475.782 37.0181C491.593 46.1889 503.876 58.6056 509.875 76.3547C511.626 81.5326 512.425 86.8909 512.476 92.3779C512.502 94.9797 511.858 97.2467 509.592 98.7923C508.176 98.7408 508.099 97.53 507.841 96.6284C504.442 84.9846 499.112 74.3712 491.361 64.9685C480.752 52.0881 467.439 43.3037 451.577 38.2804C440.144 34.6481 428.402 33.051 416.506 33.4374C401.133 33.9526 386.069 36.812 371.521 41.9642C370.465 42.3248 369.461 42.9173 368.276 42.5824H368.302Z" fill="#2B2E6B"/>
<path d="M195.931 223.191C194.283 223.294 193.691 223.938 193.536 225.819C193.227 229.708 194.386 233.444 193.897 237.385C193.304 242.074 190.652 244.392 186.867 246.169C184.446 243.181 180.816 241.713 178.009 239.24C171.443 233.469 167.194 226.282 164.979 217.858C164.516 216.081 165.649 215.926 166.833 215.952C175.64 216.236 184.421 214.819 193.227 215.36C193.304 217.06 193.562 218.76 193.459 220.435C193.33 222.367 194.206 223.088 195.957 223.191H195.931Z" fill="#82521F"/>
<path d="M181.254 112.909C178.55 115.151 175.151 116.207 172.009 117.366C166.679 119.298 161.838 122.106 156.688 124.373C150.199 127.232 143.839 130.478 137.685 134.059C133.616 136.429 129.136 138.412 126.303 142.534C125.093 141.839 124.192 142.74 123.213 143.152C121.385 142.74 120.432 143.152 121.797 145.007C122.338 145.729 121.977 145.96 121.565 146.063C120.072 146.424 119.325 148.227 117.6 148.098C117.6 142.946 117.625 137.82 117.651 132.668C118.939 131.947 119.248 134.806 120.69 133.518C124.655 134.523 125.814 133.956 126.046 130.968C125.994 130.53 126.123 130.118 126.38 129.757C126.586 129.551 126.818 129.422 127.101 129.345C128.131 129.499 129.161 129.911 130.243 129.602C131.196 129.473 132.097 129.963 133.024 129.808C135.856 127.567 138.406 124.862 142.345 124.45C143.504 124.321 144.637 123.549 144.92 122.106C145.281 120.328 146.388 120.045 147.907 120.689C149.143 122.879 150.766 122.93 152.671 121.565C154.113 120.535 155.581 119.659 157.486 120.328C157.873 120.457 158.568 120.509 158.671 120.251C160.01 116.98 163.409 117.314 165.907 116.284C169.924 114.61 174.018 113.038 178.267 111.982C179.322 111.724 180.558 111.621 181.228 112.909H181.254Z" fill="#C38243"/>
<path d="M368.302 42.5825C376.877 39.1306 385.812 37.0182 394.824 35.215C401.931 33.7724 409.193 32.9738 416.403 32.9223C440.196 32.7162 462.289 38.0229 481.061 53.7112C494.631 65.0716 503.18 79.5234 508.408 96.1648C508.717 97.118 508.768 98.1484 509.644 98.8182C509.026 99.2046 508.433 99.591 507.815 99.9774C507.274 94.2328 504.906 89.0291 502.485 83.9542C490.151 57.9617 469.731 42.1961 441.535 36.4257C432.986 34.674 424.385 33.7208 415.682 34.0815C399.665 34.777 384.164 38.0744 369.048 43.3811C368.765 43.4841 368.559 43.7418 368.327 43.9221C368.327 43.4841 368.328 43.0205 368.302 42.5825V42.5825Z" fill="#F8F0F0"/>
<path d="M170.773 97.6075C171.906 97.5045 173.014 96.9635 174.172 97.4272C175.099 97.2469 176.129 96.8347 176.902 97.5817C177.262 97.9166 176.773 98.4576 176.413 98.7925C176.181 98.9986 175.898 99.1532 175.614 99.282C172.705 100.415 169.46 100.003 166.628 101.394C166.344 101.446 166.087 101.42 165.829 101.343C165.211 100.544 164.568 100.905 163.924 101.343C156.817 102.888 149.658 103.816 142.371 103.97C140.697 103.172 139.101 103.146 137.35 103.945C134.028 105.439 130.243 104.434 126.818 105.748C125.299 106.34 123.599 106.443 122.183 107.371C121.153 107.963 120.072 108.221 118.887 108.066C118.372 107.989 117.96 107.706 117.574 107.397C116.75 103.996 119.248 102.914 121.539 101.832C124.964 100.209 128.724 100.338 132.38 100.081C143.427 99.2819 154.474 98.6122 165.52 97.9166C165.907 97.9166 166.319 98.0454 166.731 98.097C168.018 97.5817 169.46 98.1485 170.748 97.6333L170.773 97.6075Z" fill="#130F0D"/>
<path d="M352.929 226.256C352.929 227.853 352.826 229.476 350.663 229.476C341.959 229.451 333.256 229.348 324.552 229.296C324.346 229.296 324.166 229.193 323.96 229.116C322.956 228.729 321.643 229.09 320.947 227.879C319.892 225.999 321.076 224.067 323.419 223.964C332.56 223.551 341.65 224.582 350.766 224.582C351.976 224.582 352.723 225.071 352.903 226.282L352.929 226.256Z" fill="#FFF288"/>
<path d="M480.855 228.935C471.765 228.935 462.676 228.858 453.586 228.884C451.706 228.884 450.11 228.626 449.672 226.411C449.955 224.376 451.526 224.556 452.968 224.556C462.186 224.556 471.405 224.556 480.623 224.556C482.22 224.556 484.177 224.298 484.306 226.668C484.46 229.27 482.374 228.729 480.829 228.884L480.855 228.935Z" fill="#FFF288"/>
<path d="M142.371 103.661C145.667 102.656 149.04 102.09 152.465 102.837C153.315 103.017 154.139 103.12 154.834 102.656C157.615 100.724 160.885 101.137 163.975 100.57C164.876 99.9258 165.366 100.57 165.829 101.188C169.074 100.183 172.601 100.312 175.691 98.7151C178.318 97.324 181.253 97.7877 184.009 97.7362C185.863 97.6846 187.33 97.2982 188.772 96.3708C189.828 96.3193 190.961 95.9587 191.811 96.9891C191.528 98.7924 190.034 99.5394 188.644 99.797C185.348 100.39 182.335 102.038 178.91 102.064C177.648 101.111 177.056 102.734 175.975 102.863C173.76 103.094 171.546 103.275 169.357 103.687C168.121 103.841 166.885 103.893 165.726 103.429C162.482 102.115 159.546 102.759 156.791 104.743C154.911 105.361 152.722 104.898 151.1 106.469C150.662 106.881 149.916 106.804 149.349 106.598C146.517 105.619 144.019 106.675 141.495 107.731C141.058 107.68 140.697 107.474 140.362 107.216C139.461 106.418 138.637 107.268 137.762 107.371C130.835 107.525 124.294 109.741 117.599 111.08C117.342 110.462 117.316 109.844 117.599 109.225C118.192 108.71 118.269 107.834 118.913 107.371C119.994 107.422 121.05 107.345 122.003 106.752C124.835 107.01 127.384 105.722 130.062 105.129C134.131 104.228 138.277 104.279 142.371 103.661V103.661Z" fill="#302115"/>
<path d="M126.947 129.577C126.741 129.989 126.535 130.401 126.329 130.813C126.174 131.2 125.814 131.792 125.608 131.715C123.187 130.762 122.492 133.441 120.767 133.904C119.248 134.729 118.655 133.183 117.677 132.668C117.677 131.844 117.677 131.019 117.677 130.195C118.733 128.392 120.355 127.026 121.436 125.249C123.677 125.326 125.737 125.635 126.921 122.75C127.694 120.844 130.166 120.638 132.123 120.869C133.359 120.998 134.389 121.9 133.874 123.523C133.539 123.883 133.05 123.832 132.612 123.935C134.62 127.722 131.324 125.403 130.423 125.841C129.882 126.073 129.728 126.511 129.805 127.052C129.882 127.645 129.754 128.263 129.96 128.83C130.088 129.267 130.397 129.705 130.037 130.169C128.775 131.2 127.9 130.118 126.947 129.551C126.664 129.267 126.715 128.855 126.535 128.546C126.689 128.881 126.664 129.267 126.947 129.551V129.577Z" fill="#B97C3F"/>
<path d="M117.626 111.08C118.682 109.483 120.072 108.298 122.081 108.916C125.608 110.05 128.389 107.602 131.479 106.907C133.797 106.366 135.883 107.164 138.046 106.752C138.432 106.933 138.818 107.139 138.818 107.654C137.762 109.2 135.265 107.242 134.466 109.431C132.535 110.539 130.166 109.998 128.261 111.132C126.51 111.441 125.145 113.192 123.085 112.42C122.75 112.291 122.699 113.141 122.338 113.45C120.587 115.047 118.347 114.815 117.626 112.883C117.626 112.265 117.626 111.673 117.626 111.054V111.08Z" fill="#4A321B"/>
<path d="M207.519 96.165C213.493 95.8558 219.467 95.5467 225.441 95.2376C226.213 95.1861 226.857 95.3664 227.114 96.1907C226.187 97.3757 224.72 96.8863 223.561 97.3757C222.067 97.6076 220.651 98.1743 219.209 98.5607C216.995 98.8183 214.754 98.9214 212.54 99.1532C210.995 99.3078 209.476 99.1532 208.24 97.994C208.214 97.6849 208.291 97.4272 208.523 97.1954C209.398 96.6287 210.403 96.5514 211.304 96.5771C211.819 96.4999 211.252 95.8816 211.407 96.268C211.458 96.3968 211.407 96.5256 211.227 96.4999C209.991 96.3453 208.652 97.4788 207.519 96.165V96.165Z" fill="#5C3F24"/>
<path d="M446.684 297.227C448.384 288.932 449.517 280.637 447.946 272.162C447.534 270.024 446.478 268.143 445.86 266.083C448.229 268.04 448.59 270.9 449.156 273.63C450.65 280.663 449.414 287.567 448.126 294.471C447.972 295.372 447.998 296.3 447.946 297.201C447.534 297.201 447.122 297.201 446.71 297.201L446.684 297.227Z" fill="#040108"/>
<path d="M117.626 112.909C118.527 114.558 119.866 114.377 121.102 113.476C123.239 111.904 125.814 111.441 128.183 110.436C129.574 110.771 129.909 112.007 130.424 113.089C130.424 114.326 129.6 114.403 128.647 114.3C127.977 114.223 127.334 113.991 126.741 113.656C125.917 113.27 125.789 113.965 125.531 114.455C125.068 115.408 124.295 115.975 123.291 116.284C121.385 116.103 119.094 118.319 117.652 115.356C117.42 114.532 117.368 113.708 117.652 112.883L117.626 112.909Z" fill="#714C28"/>
<path d="M347.186 297.227C346.259 292.487 346.234 287.644 346.285 282.879C346.311 278.164 346.517 273.296 347.933 268.633C348.139 267.937 348.397 267.319 349.118 266.83C346.517 276.902 347.109 287.052 347.959 297.201C347.701 297.201 347.47 297.201 347.212 297.201L347.186 297.227Z" fill="#040109"/>
<path d="M188.67 96.8862C187.949 97.762 187.614 99.0501 185.966 98.7409C182.567 98.1227 179.117 98.8182 175.718 98.7409C176.851 96.3452 174.533 98.0712 174.173 97.4271C178.731 96.4482 183.366 96.4225 188.001 96.1906C188.258 96.0361 188.516 96.0103 188.773 96.1391C188.928 96.3967 188.902 96.6543 188.696 96.8604L188.67 96.8862Z" fill="#201815"/>
<path d="M121.385 125.249C121.539 127.953 119.325 128.829 117.677 130.169C117.677 129.757 117.677 129.345 117.677 128.932C118.372 127.696 118.372 126.459 117.677 125.223C117.677 124.605 117.677 123.986 117.677 123.368C118.346 122.673 117.6 121.127 118.887 120.947C120.355 120.715 120.458 122.441 121.333 123.11C121.745 123.729 121.205 124.295 121.282 124.914C121.333 125.017 121.359 125.12 121.411 125.223L121.385 125.249Z" fill="#AD743C"/>
<path d="M207.519 96.1647H212.102C212.102 96.2935 212.128 96.448 212.154 96.5768C210.918 96.886 209.682 97.1951 208.42 97.5042C205.587 98.6119 202.729 99.4878 199.742 97.9679C199.794 96.7572 200.54 96.1904 201.648 95.9586C203.605 96.0616 205.587 95.701 207.519 96.2162V96.1647V96.1647Z" fill="#49392C"/>
<path d="M117.651 115.382C118.707 116.078 119.737 116.954 121.05 115.898C121.797 115.305 122.518 115.64 123.239 116.026C123.548 116.825 122.878 117.186 122.518 117.701C122.338 117.907 122.132 118.061 121.926 118.19C121.694 118.293 121.436 118.371 121.179 118.396C120.612 118.422 120.226 118.577 120.612 119.246C120.921 119.787 121.102 120.328 120.355 120.715C119.299 120.818 118.243 120.844 117.651 119.71C117.419 118.268 117.265 116.825 117.625 115.408L117.651 115.382Z" fill="#81572D"/>
<path d="M207.519 96.2163C205.305 96.2936 203.09 96.3451 200.85 96.4224C198.249 97.6331 195.494 97.221 192.816 96.9634C191.451 96.8346 190.035 96.6285 188.644 96.4739C188.413 96.3709 188.181 96.2936 187.949 96.1905C194.464 95.7011 200.979 95.4692 207.493 96.1905L207.519 96.2163Z" fill="#5C3F24"/>
<path d="M223.227 96.886C224.385 95.8298 225.827 96.448 227.141 96.1904C227.475 96.1904 227.836 96.1904 228.171 96.1904C228.814 96.6284 229.329 97.1178 229.123 97.9937C228.943 98.4316 228.634 98.715 228.222 98.8953C227.939 98.9468 227.681 98.9468 227.398 98.8953C226.033 98.1225 225.003 99.5136 223.767 99.4878C223.484 99.1787 223.381 98.7923 223.407 98.3801C223.536 97.8649 223.613 97.3754 223.252 96.9117L223.227 96.886Z" fill="#80572D"/>
<path d="M228.788 98.1482C228.582 97.4785 228.376 96.8344 228.145 96.1647C229.226 94.9797 230.256 95.4949 231.286 96.2677C232.187 96.9117 232.728 97.633 231.878 98.6892C231.672 98.7407 231.466 98.7665 231.26 98.818C230.385 98.7407 229.381 99.2559 228.788 98.1482V98.1482Z" fill="#755230"/>
<path d="M117.677 119.684C118.63 120.302 119.686 120.38 120.767 120.328C120.999 120.508 121.154 120.715 121.257 120.998C121.463 121.668 121.643 122.337 121.566 123.059C121.488 123.188 121.437 123.316 121.36 123.419C119.943 123.471 119.712 122.26 119.197 121.359C118.012 121.59 118.553 123.033 117.652 123.394C117.42 122.157 117.368 120.921 117.652 119.684H117.677Z" fill="#A16C38"/>
<path d="M231.878 98.6891C232.007 97.7875 231.724 97.0146 231.286 96.2676C232.187 96.4994 233.14 96.5767 233.784 97.3753C234.35 99.4877 233.089 99.0755 231.878 98.7664V98.6891Z" fill="#A77542"/>
<path d="M117.651 125.249C118.99 126.485 118.99 127.722 117.651 128.958C117.651 127.722 117.651 126.485 117.651 125.249Z" fill="#B97C3F"/>
<path d="M231.878 98.7666C232.831 98.7666 233.732 98.6378 233.783 97.3755C234.762 98.071 234.298 99.0499 234.247 99.9516C233.449 99.5651 232.676 99.153 231.878 98.7666Z" fill="#B1773E"/>
<path d="M170.774 97.6074C169.512 98.5605 168.096 97.9938 166.757 98.071C168.044 97.4528 169.409 97.4528 170.774 97.6074Z" fill="#201815"/>
<path d="M118.913 107.371C118.913 108.298 118.475 108.916 117.599 109.225C117.342 108.607 117.342 107.989 117.599 107.371C118.037 107.371 118.475 107.371 118.913 107.371Z" fill="#251A12"/>
<path d="M373.761 157.965C366.087 159.768 359.263 157.63 352.8 153.534C349.53 151.473 346.903 148.742 344.637 145.754C343.195 143.848 342.964 141.375 343.865 139.005C347.161 130.375 360.989 121.9 370.181 122.879C370.774 122.93 371.34 123.214 371.932 123.394C372.628 124.012 373.22 124.682 373.529 125.609C375.537 131.689 376.413 137.974 376.233 144.337C376.13 147.686 376.052 151.087 375.28 154.41C374.971 155.698 374.842 157.037 373.761 158.016V157.965Z" fill="#010101"/>
<path d="M373.761 157.965C374.688 152.658 375.538 147.352 375.409 141.916C375.28 135.527 373.864 129.422 371.933 123.394C382.336 123.883 390.035 128.881 395.236 137.691C397.219 141.04 397.116 144.853 394.361 147.712C388.773 153.56 382.233 157.785 373.735 157.965H373.761Z" fill="#EFEDEC"/>
<path d="M426.291 166.8C426.291 165.512 426.317 164.482 426.291 163.477C426.214 161.313 426.703 159.33 429.252 159.278C431.75 159.227 432.42 161.262 432.523 163.323C432.651 165.976 432.78 168.681 432.497 171.334C431.699 178.625 428.892 185.065 423.047 189.702C413.416 197.378 400.721 195.472 393.228 185.451C390.756 182.128 388.876 178.522 388.027 174.426C387.615 172.442 387.254 170.355 389.829 169.66C392.224 169.042 393.357 170.51 393.975 172.674C394.825 175.739 396.061 178.65 398.018 181.252C401.545 185.941 405.974 188.774 411.948 188.002C418.154 187.177 421.888 182.978 424.36 177.62C425.956 174.142 426.883 170.458 426.317 166.8H426.291Z" fill="#D33C32"/>
<path d="M478.769 161.262C481.988 166.62 481.679 170.871 477.816 174.065C474.494 176.822 470.786 176.564 465.868 173.241C464.4 170.613 463.293 168.011 464.246 164.843C465.739 159.897 472.177 156.368 478.743 161.262H478.769Z" fill="#777AB9"/>
<path d="M399.819 228.652C394.283 229.322 388.85 228.369 383.417 227.415C380.404 226.874 378.602 225.483 379.245 222.109C378.936 218.786 380.198 218.373 383.468 218.811C391.013 219.816 398.635 221.053 406.308 219.661C407.081 219.533 407.802 219.765 408.111 220.512C408.471 221.362 407.75 221.825 407.235 222.289C404.763 224.427 402.291 226.54 399.794 228.652H399.819Z" fill="#A16F3E"/>
<path d="M389.211 115.356C389.237 116.052 388.928 116.567 388.387 116.902C387.46 117.495 386.61 117.16 385.838 116.541C377.984 110.127 369.203 109.998 360.01 112.806C356.586 113.862 353.676 115.691 351.333 118.396C350.483 119.375 349.479 120.38 348.217 119.375C346.775 118.242 347.65 116.954 348.552 115.897C352.079 111.75 356.792 109.56 361.993 108.401C370.98 106.392 379.503 107.242 387.228 112.729C388.181 113.424 388.979 114.12 389.211 115.305V115.356Z" fill="#090908"/>
<path d="M475.164 146.063C475.061 150.005 474.443 153.044 471.301 154.873C469.499 155.929 468.391 155.569 468.314 153.25C468.211 149.592 468.546 145.909 467.774 142.251C467.542 141.117 467.825 139.623 469.01 139.005C470.4 138.283 471.456 139.288 472.512 140.19C474.546 141.916 475.55 144.002 475.164 146.037V146.063Z" fill="#A07852"/>
<path d="M189.031 136.841C195.545 134.806 201.906 135.295 208.034 138.181C217.948 142.869 219.544 153.637 211.304 160.85C205.974 165.513 199.614 167.677 192.481 167.264C191.683 166.595 191.116 165.77 190.756 164.791C188.181 157.501 186.79 150.005 187.28 142.251C187.408 140.344 187.614 138.361 189.056 136.841H189.031Z" fill="#3463AD"/>
<path d="M189.031 136.841C186.842 146.192 188.49 155.208 191.451 164.096C191.812 165.152 192.121 166.208 192.481 167.264C187.022 167.496 182.027 166.234 177.623 162.808C172.01 158.454 170.774 151.112 175.1 145.471C178.602 140.885 183.237 137.845 189.056 136.841H189.031Z" fill="#FCF7ED"/>
<path d="M163.151 198.796C153.263 199.388 145.693 191.093 144.792 182.025C144.663 180.609 144.251 179.166 144.405 177.775C144.56 176.384 145.178 174.709 146.98 174.864C148.628 174.993 149.272 176.307 149.246 177.981C149.195 181.871 150.096 185.555 152.517 188.646C156.791 194.081 162.765 195.395 169.254 192.639C174.687 190.32 178.498 186.276 181.279 181.201C182.155 179.604 183.185 178.213 185.065 179.14C187.073 180.145 186.326 181.948 185.528 183.417C180.636 192.252 173.786 198.306 163.151 198.796V198.796Z" fill="#83521F"/>
<path d="M196.137 117.701C201.931 117.469 207.339 118.783 212.386 121.617C214.137 122.595 216.016 123.832 214.858 126.176C213.647 128.598 211.69 127.67 209.862 126.666C200.541 121.513 191.116 122.57 181.666 126.279C180.43 126.769 179.245 127.387 178.009 127.928C176.336 128.675 174.482 129.267 173.4 127.31C172.241 125.197 173.709 123.832 175.486 122.93C181.975 119.659 188.773 117.521 196.163 117.727L196.137 117.701Z" fill="#030201"/>
<path d="M181.254 112.909C179.349 112.214 177.52 112.6 175.718 113.296C173.349 114.223 171.263 115.923 168.482 115.717C168.019 115.692 167.555 116.104 167.092 116.284C165.598 116.877 164.774 119.066 162.508 117.933C162.096 117.727 160.191 118.113 160.397 119.968C160.5 121.05 159.006 121.513 158.414 121.282C155.324 120.148 153.573 122.157 151.255 123.497C149.685 124.424 148.062 123.085 147.934 120.921C147.934 120.483 148.088 120.122 148.371 119.813C149.504 116.181 152.723 117.16 155.272 116.748C155.71 116.67 156.431 117.289 156.689 116.902C158.568 114.223 161.813 114.635 164.233 113.347C166.937 111.905 169.873 111.879 172.628 111.467C175.486 111.029 178.164 110.411 180.816 109.406C183.288 108.453 184.318 109.071 184.061 111.415C183.932 111.493 183.829 111.596 183.7 111.673C182.851 112.034 181.022 110.411 181.228 112.909H181.254Z" fill="#BF8042"/>
<path d="M118.321 162.19C117.368 164.534 117.806 167.136 117.651 169.66C117.522 171.438 116.57 171.618 115.128 170.845C111.008 168.656 110.467 162.241 114.201 159.433C114.999 158.841 116.055 158.145 117.033 158.763C118.115 159.485 118.14 160.85 118.321 162.164V162.19Z" fill="#AD7236"/>
<path d="M201.622 106.752C200.103 107.551 198.609 108.118 196.807 107.525C194.026 106.624 192.687 109.818 190.189 110.101C188.902 110.23 187.717 111.235 186.455 111.853C185.528 112.317 184.576 112.703 183.7 111.698C185.142 109.303 187.537 107.886 189.52 106.083C190.112 105.336 190.833 104.717 191.605 104.176C191.863 104.099 192.12 104.073 192.378 104.176C193.073 104.743 193.665 105.49 194.721 105.413C196.73 105.645 198.738 105.722 200.721 105.181C201.622 105.387 202.214 105.774 201.596 106.804L201.622 106.752Z" fill="#BC7E41"/>
<path d="M201.622 106.752C201.622 105.954 201.185 105.542 200.386 105.516C200.283 105.232 200.335 104.975 200.541 104.743C202.91 104.743 204.764 103.249 206.875 102.528C208.935 100.879 211.588 101.6 213.854 100.776C214.111 100.776 214.394 100.827 214.652 100.905C215.321 101.265 216.017 101.549 216.815 101.317C217.381 101.24 217.922 101.317 218.411 101.574C218.849 101.961 219.261 102.399 218.926 103.043C216.506 103.713 214.137 104.357 211.536 104.022C208.858 103.661 206.824 105.799 204.3 106.314C203.425 106.495 202.549 106.727 201.622 106.752V106.752Z" fill="#BA7D40"/>
<path d="M218.926 103.043C218.72 102.631 218.514 102.219 218.308 101.806C217.742 100.931 217.047 100.055 218.463 99.3077C220.24 98.8955 221.656 96.7574 223.819 98.1485C223.845 98.5349 223.87 98.9213 223.896 99.2819C223.948 99.4107 224.025 99.5138 224.076 99.6426C223.999 99.7456 223.922 99.8487 223.845 99.9775C222.403 101.317 220.935 102.605 218.926 103.043Z" fill="#BE8042"/>
<path d="M227.552 99.3592C226.471 100.493 225.621 103.043 223.818 99.9775C225.003 99.385 225.801 97.6847 227.526 98.7152C227.707 98.8697 227.758 98.9985 227.707 99.1531C227.655 99.2819 227.578 99.3592 227.526 99.3592H227.552Z" fill="#B87B3F"/>
<path d="M227.553 99.3593C227.553 99.1532 227.553 98.9471 227.553 98.7411C227.965 98.5607 228.377 98.3546 228.789 98.1743C229.613 98.4062 230.437 98.638 231.261 98.8441C230.153 99.8745 229.02 100.802 227.553 99.3593Z" fill="#B1773E"/>
<path d="M123.239 143.152C123.935 141.22 125.093 141.735 126.329 142.534C125.145 141.916 124.681 144.956 123.239 143.152Z" fill="#BA7D40"/>
<path d="M422.196 262.012C426.084 262.012 429.947 262.244 433.578 263.764C435.612 264.614 437.569 265.799 437.672 268.221C437.775 270.668 435.663 271.698 433.758 272.342C426.265 274.867 418.746 274.712 411.355 271.879C409.604 271.209 407.75 270.178 407.802 267.757C407.879 265.387 409.682 264.588 411.433 263.764C414.832 262.167 418.514 262.064 422.196 262.038V262.012Z" fill="#FFF188"/>
<path d="M148.551 120.328C148.345 120.534 148.139 120.74 147.933 120.946C146.826 121.024 145.667 120.483 145.745 122.724C145.848 124.914 143.092 125.274 141.573 125.609C139.874 125.995 138.097 125.506 137.762 127.902C135.136 127.129 134.955 130.323 133.101 130.787C131.994 130.091 131.428 128.984 130.861 127.876C130.578 127 129.574 126.356 130.011 125.248C130.99 123.857 131.659 125.403 132.767 125.635C132.226 124.45 131.041 122.827 133.719 123.394C136.732 124.089 137.015 123.883 138.457 119.864C140.183 119.143 142.114 119.401 143.865 118.834C145.539 118.989 147.238 118.989 148.526 120.302L148.551 120.328Z" fill="#BE8042"/>
<path d="M120.767 133.904C120.355 132.23 123.651 132.178 122.441 129.989C122.261 129.654 123.883 129.68 124.012 130.246C124.45 132.178 125.48 130.942 126.304 130.839C127.282 131.303 127.849 132.101 126.999 132.977C125.917 134.136 124.604 135.192 122.879 134.909C122.158 134.78 121.231 134.703 120.742 133.93L120.767 133.904Z" fill="#BE7F42"/>
<path d="M123.934 135.965C123.162 137.459 125.402 139.108 122.981 139.958C122.054 140.293 121.076 139.855 120.896 138.747C120.509 136.687 122.235 136.609 123.934 135.939V135.965Z" fill="#BE7F42"/>
<path d="M131.273 127.722C132.252 128.546 132.509 129.783 133.102 130.813C132.072 130.607 131.042 130.401 130.012 130.195C129.806 129.783 129.6 129.396 129.394 128.984C129.78 128.443 130.243 128.005 130.861 127.773C130.99 127.773 131.119 127.747 131.248 127.722H131.273Z" fill="#B4783E"/>
<path d="M142.371 103.661C140.208 104.511 138.225 105.464 135.599 104.923C132.509 104.279 129.625 106.211 126.638 106.881C125.093 107.242 123.496 108.607 122.003 106.752C124.99 104.923 128.363 104.382 131.711 104.073C133.796 103.867 135.805 103.893 137.762 102.863C139.23 102.09 141.109 101.755 142.345 103.661H142.371Z" fill="#251A12"/>
<path d="M175.717 98.7407C174.661 100.08 173.4 100.982 171.571 100.544C170.284 100.235 169.228 100.75 168.353 101.523C167.297 102.476 166.576 102.09 165.829 101.214C168.765 98.9726 172.421 99.5908 175.691 98.7407H175.717Z" fill="#201815"/>
<path d="M165.83 101.214C165.212 101.008 164.594 100.802 163.976 100.596C164.336 100.029 164.903 99.6425 165.495 99.8486C165.727 99.9259 165.727 100.75 165.83 101.214Z" fill="#201815"/>
<path d="M347.187 228.137H342.5V227.828H347.187C347.187 227.828 347.187 228.034 347.187 228.137Z" fill="#E7DB85"/>
<path d="M199.768 98.0967C202.652 97.8906 205.536 97.7103 208.42 97.5042C208.42 97.7103 208.42 97.9163 208.42 98.1224C207.441 100.338 205.536 100.003 203.708 99.8999C203.064 99.9514 202.42 100.106 201.802 100.261C201.545 100.312 201.287 100.338 201.03 100.338C200.231 100.235 199.485 100.492 198.738 100.621C198.171 100.699 197.631 100.698 197.064 100.647C192.687 100.338 188.464 100.982 184.447 102.734C182.49 102.528 180.481 104.666 178.55 102.656C178.524 102.347 178.627 102.064 178.807 101.806C180.558 100.467 182.824 100.647 184.781 100.003C187.125 99.2559 189.494 98.5861 191.76 97.5299C192.609 97.3238 193.459 97.3754 194.309 97.3496C195.133 97.3496 195.983 97.3496 196.807 97.3754C197.064 97.3754 197.347 97.4011 197.605 97.4527C198.223 97.5815 198.841 97.736 199.433 97.9936C199.562 98.0194 199.665 98.0452 199.794 98.0967H199.768Z" fill="#5E3F21"/>
<path d="M141.161 107.371C143.607 105.516 146.336 104.718 149.272 105.928C151.229 106.727 151.615 103.661 153.598 104.511C154.422 104.872 155.581 104.408 156.585 104.305C158.954 104.614 161.117 102.064 163.615 103.713C163.846 104.125 163.898 104.563 163.795 105.027C163.357 106.134 162.379 106.521 161.349 106.598C159.186 106.753 157.177 107.654 155.014 107.706C153.624 106.186 152.388 107.706 151.1 107.912C149.117 108.169 147.006 107.757 145.203 109.02C145.075 109.277 144.894 109.483 144.663 109.664C142.448 110.591 141.341 109.329 140.491 107.577C140.491 107.525 140.594 107.422 140.671 107.345C140.8 107.242 140.98 107.242 141.186 107.345L141.161 107.371Z" fill="#48311B"/>
<path d="M163.357 104.923C163.357 104.511 163.357 104.099 163.357 103.687C163.898 103.069 164.722 102.862 165.237 103.275C166.782 104.485 168.121 103.867 169.512 103.069C171.855 102.708 174.224 102.528 176.49 101.884C177.365 101.626 177.906 99.9773 178.782 101.806C178.782 102.038 178.782 102.244 178.782 102.476C178.318 103.352 179.889 104.331 178.653 105.155C175.82 104.743 173.014 104.64 170.413 106.16C169.28 106.289 168.173 106.443 167.117 106.83C165.237 107.499 163.898 106.958 163.357 104.923Z" fill="#614122"/>
<path d="M169.538 103.043C168.405 104.485 167.246 105.464 165.392 103.893C164.954 103.532 164.053 103.738 163.358 103.661C161.04 103.197 159.006 105.954 156.56 104.279C159.083 101.626 162.122 101.342 165.34 102.553C166.757 103.068 168.121 102.991 169.512 103.043H169.538Z" fill="#442E1A"/>
<path d="M141.161 107.371C141.933 108.891 142.963 109.895 144.843 109.226C144.843 111.158 143.504 111.08 142.191 110.977C139.847 110.256 137.272 110.797 134.955 109.792C134.697 109.638 134.491 109.458 134.337 109.2C134.234 107.809 134.878 107.294 136.268 107.345C137.066 107.371 137.89 108.401 138.663 107.345C139.178 106.804 139.693 106.289 140.517 106.701C140.723 106.907 140.929 107.113 141.135 107.319L141.161 107.371Z" fill="#53381D"/>
<path d="M194.232 98.1227C193.382 98.0454 192.429 98.4061 191.76 97.5302C190.91 96.4482 189.726 97.0407 188.67 96.8862C188.67 96.7574 188.67 96.6286 188.67 96.4998C192.738 96.4998 196.807 96.4482 200.85 96.4482C201.107 97.4271 200 97.5044 199.768 98.1227C199.15 98.5606 198.532 97.5817 197.914 98.1227C197.708 98.1227 197.502 98.1227 197.322 98.1227C196.292 97.5044 195.262 97.4787 194.232 98.1227Z" fill="#201611"/>
<path d="M140.517 106.727C139.899 106.933 139.281 107.139 138.663 107.371C138.457 107.165 138.251 106.959 138.045 106.753C138.869 106.907 139.667 104.228 140.517 106.753V106.727Z" fill="#3E2A19"/>
<path d="M138.663 119.71C139.616 121.642 137.968 123.162 137.273 124.373C136.269 126.125 134.827 124.244 133.719 123.42C133.333 122.157 132.767 121.127 131.17 121.539C129.677 121.926 127.848 121.642 127.076 123.548C125.84 126.666 124.269 127.129 121.359 125.3C121.462 123.883 123.007 123.291 123.213 121.951C123.368 121.719 123.548 121.488 123.754 121.307C125.943 120.303 128.518 120.354 130.501 118.783C132.252 117.933 133.951 117.907 135.599 119.092C136.294 119.581 137.093 119.633 137.891 119.504C138.02 119.504 138.174 119.504 138.303 119.53C138.432 119.607 138.535 119.684 138.638 119.762L138.663 119.71Z" fill="#B3783D"/>
<path d="M130.037 125.248C130.372 126.099 131.35 126.639 131.273 127.696C130.475 128.056 129.934 127.593 129.445 127.077C128.415 126.047 128.749 125.48 130.063 125.223L130.037 125.248Z" fill="#B4783E"/>
<path d="M129.419 127.104C130.037 127.31 130.655 127.516 131.248 127.722C130.913 128.546 130.269 128.933 129.394 128.958C128.673 128.34 129.6 127.722 129.394 127.104H129.419Z" fill="#A36D39"/>
<path d="M126.947 129.577C126.098 128.83 126.175 128.108 126.844 127.232C127.823 128.134 126.741 128.855 126.947 129.577Z" fill="#A7703A"/>
<path d="M134.337 109.2C134.543 109.2 134.749 109.2 134.981 109.2C135.341 110.05 134.826 110.745 134.234 110.951C132.766 111.467 131.607 112.652 130.037 112.909C128.466 112.806 129.341 110.848 128.183 110.436C130.088 109.251 132.277 109.483 134.337 109.2Z" fill="#55391E"/>
<path d="M201.004 99.9515C201.21 99.9515 201.416 99.9515 201.622 99.9515C202.317 99.9515 202.935 99.8227 203.476 99.3333C205.227 99.3333 206.952 99.2302 208.42 98.0968C211.922 98.9726 215.424 97.5558 218.926 98.0968C219.235 98.7408 218.9 99.1272 218.411 99.4878C217.741 99.6424 217.252 100.158 216.686 100.467C215.99 100.673 215.501 101.523 214.6 101.162C212.437 99.1272 210.145 101.343 207.931 101.008C207.338 100.956 206.72 100.673 206.154 101.085C203.399 103.12 200.334 102.837 197.244 102.347C196.961 101.549 196.884 100.75 197.322 99.9515C197.94 99.9515 198.558 99.9515 199.176 99.9515C199.794 100.415 200.412 99.797 201.03 99.9258L201.004 99.9515Z" fill="#84592E"/>
<path d="M218.283 99.3847C218.489 98.9726 218.695 98.5346 218.901 98.1225C220.265 97.4527 221.579 96.6026 223.201 96.8602C224.308 96.8602 224.154 97.4527 223.793 98.1482C221.656 97.8906 220.265 99.8484 218.257 99.9772C218.051 99.8484 217.999 99.6939 218.051 99.5651C218.128 99.4363 218.18 99.3847 218.257 99.3847H218.283Z" fill="#996735"/>
<path d="M121.385 117.881C121.591 117.881 121.797 117.881 121.977 117.881C122.26 117.881 122.338 117.726 122.235 117.469C122.183 117.34 122.106 117.263 122.003 117.263C122.415 116.851 122.827 116.438 123.239 116.026C123.857 115.408 124.475 114.79 125.093 114.172C125.634 113.656 125.737 112.497 126.947 112.935C127.385 113.656 128.106 113.528 128.775 113.553C129.264 114.455 129.779 114.738 130.629 113.888C134.183 110.359 135.161 110.333 138.843 113.682C137.994 115.434 136.474 114.867 135.161 114.584C134.054 114.352 134.595 114.893 134.698 115.279C134.698 115.537 134.672 115.794 134.569 116.026C134.002 116.696 132.844 116.67 132.56 117.701C132.303 118.19 132.02 118.654 131.35 118.654C129.728 116.902 126.973 117.134 125.093 119.143C122.08 120.431 121.642 120.277 121.385 117.855V117.881Z" fill="#895C2F"/>
<path d="M138.663 113.553C137.916 113.321 136.989 113.295 136.474 112.806C134.286 110.848 132.586 111.106 131.479 113.836C130.964 115.073 130.088 115.073 129.058 114.97C127.591 114.815 128.801 114.042 128.749 113.579C129.419 113.836 130.063 114.068 130.011 112.935C130.706 110.436 134.105 111.544 134.955 109.251C136.783 109.328 138.509 110.771 140.466 109.483C140.955 109.148 141.47 109.947 141.753 110.487C142.706 111.054 144.199 111.08 144.019 112.754C142.397 114.12 140.414 113.012 138.663 113.579V113.553Z" fill="#78512A"/>
<path d="M126.947 112.935C126.329 113.347 125.711 113.759 125.093 114.171C125.144 112.935 125.17 111.595 126.947 112.935Z" fill="#78512A"/>
<path d="M123.831 122.157C123.445 123.523 122.698 124.63 121.359 125.249C120.999 125.249 120.381 125.429 120.329 125.3C119.789 124.244 121.076 124.089 121.359 123.42L121.385 123.368C121.9 122.776 121.256 121.771 122.132 121.307C122.982 121.05 123.445 121.513 123.806 122.157H123.831Z" fill="#A16C38"/>
<path d="M123.831 122.157C123.239 121.951 122.621 121.771 122.029 121.565C121.488 121.616 121.128 121.307 120.767 120.947C120.767 120.74 120.767 120.534 120.767 120.328C120.69 119.272 118.759 119.324 119.274 118.087C119.711 117.005 120.664 118.01 121.385 117.881C122.183 120.766 123.78 118.834 125.093 118.473C125.737 117.958 126.458 117.804 126.896 118.628C127.256 119.272 126.715 119.787 126.226 120.174C125.505 120.715 124.475 120.818 123.857 121.565C123.857 121.771 123.857 121.951 123.857 122.157H123.831Z" fill="#946334"/>
<path d="M122.003 117.237C122.467 117.417 123.471 116.85 123.342 117.804C123.239 118.473 122.467 118.525 121.978 117.855C121.978 117.649 121.978 117.443 122.003 117.237Z" fill="#6C4826"/>
<path d="M227.578 98.715C226.059 98.3543 225.364 100.364 223.87 99.9772C223.87 99.7454 223.87 99.5393 223.896 99.3075C224.926 97.9421 226.007 96.8344 227.578 98.715V98.715Z" fill="#A56F39"/>
<path d="M120.792 120.947C121.307 120.947 121.771 121.076 122.054 121.565C121.745 122.132 123.136 123.291 121.436 123.368C120.973 122.621 120.689 121.848 120.818 120.947H120.792Z" fill="#81572D"/>
<path d="M373.04 142.946C372.319 145.728 373.092 148.742 372.165 151.653C371.701 153.096 371.495 154.719 369.538 154.281C367.478 153.817 368.302 152.04 368.431 150.7C368.714 147.738 369.1 144.801 369.332 141.864C369.435 140.628 369.229 139.134 370.929 139.056C372.757 138.953 372.808 140.576 373.04 141.89C373.092 142.199 373.04 142.508 373.04 142.946V142.946Z" fill="#F5F0ED"/>
<path d="M368.353 131.663C368.301 130.375 368.791 129.319 370.155 129.37C372.473 129.448 372.215 131.534 372.524 132.977C372.808 134.317 372.112 135.398 370.67 135.63C369.357 135.836 368.379 134.136 368.327 131.663H368.353Z" fill="#EEEAE7"/>
<path d="M191.683 153.044C192.172 152.04 190.884 150.134 192.661 150.005C194.232 149.876 194.052 151.963 194.103 152.916C194.206 155.801 195.339 158.506 195.519 161.339C195.571 162.112 195.854 163.168 194.773 163.375C193.588 163.632 193.665 162.421 193.408 161.726C192.378 158.918 192.043 155.981 191.683 153.044V153.044Z" fill="#ECEDF1"/>
<path d="M193.639 144.492C193.536 145.702 193.665 147.377 192.326 147.197C191.141 147.042 191.244 145.265 191.141 144.08C191.064 143.152 191.141 141.967 192.352 142.019C194.025 142.096 193.485 143.59 193.639 144.466V144.492Z" fill="#E5E8F0"/>
<path d="M148.551 120.328C146.878 119.993 145.127 120.019 143.607 119.092C143.685 118.963 143.736 118.834 143.813 118.705C146.44 117.933 148.088 115.691 150.354 114.403C151.255 112.523 153.367 113.167 154.834 112.42C156.199 111.75 157.693 111.08 159.186 110.565C161.169 110.745 163.126 110.513 165.057 109.998C166.963 110.282 167.555 108.762 168.405 107.577C171.366 106.289 174.43 105.619 177.675 106.108C179.812 106.418 181.898 105.284 184.061 105.774C186.069 105.026 188.129 103.532 189.906 106.134C190.035 108.272 187.588 107.963 186.764 109.354C186.172 110.359 184.782 110.9 183.726 111.673C184.267 109.689 182.85 108.942 181.717 109.792C179.889 111.209 177.623 110.771 175.821 111.956C175.228 112.343 174.301 113.27 173.477 112.008C173.374 111.879 172.885 112.059 172.628 111.956C170.696 111.235 169.898 114.661 168.636 113.579C166.602 111.879 165.958 113.734 164.671 114.223C163.976 114.481 163.177 114.764 162.276 114.79C160.577 114.867 158.388 115.022 157.796 117.392C157.435 118.834 156.56 118.551 155.736 117.855C154.963 117.186 154.371 116.619 153.624 117.907C153.289 118.448 152.594 118.577 151.976 118.267C148.294 116.516 150.148 119.272 150.148 120.509C149.581 120.818 149.221 119.427 148.577 120.328H148.551Z" fill="#B3783D"/>
<path d="M189.906 106.134C187.898 104.872 186.069 105.413 184.293 106.701C184.138 103.532 187.305 103.223 188.825 101.472C190.035 101.291 191.091 101.575 191.992 102.451C192.327 103.12 192.249 103.739 191.76 104.305C191.76 105.516 190.679 105.696 189.906 106.134Z" fill="#A8703A"/>
<path d="M191.76 104.305C191.76 103.687 191.76 103.069 191.76 102.451C193.073 99.9776 194.695 101.472 196.24 102.09C197.708 102.889 197.657 103.79 196.472 104.821C195.983 105.233 195.442 105.439 194.798 105.413C193.846 105.336 193.047 104.949 192.352 104.305C192.146 104.305 191.966 104.305 191.76 104.305V104.305Z" fill="#976534"/>
<path d="M194.849 104.923C195.339 104.923 195.828 104.82 196.085 104.305C197.527 103.352 198.815 103.893 200.103 104.666C200.206 104.743 200.308 104.82 200.411 104.897C200.411 105.104 200.411 105.31 200.411 105.49C198.532 107.396 196.291 105.748 194.231 106.108C193.871 105.413 194.386 105.155 194.849 104.897V104.923Z" fill="#B4783E"/>
<path d="M194.849 104.923C194.643 105.335 194.437 105.748 194.231 106.134C193.047 106.108 192.455 105.464 192.352 104.305C193.279 104.176 194.077 104.46 194.849 104.923Z" fill="#A8703A"/>
<path d="M207.802 100.596C209.141 100.261 210.48 99.9003 211.819 99.5654C213.287 99.2048 214.394 99.4366 214.6 101.214C212.334 102.631 209.373 101.343 207.184 103.069C206.514 102.528 206.334 101.807 206.36 101.008C206.695 100.287 207.158 100.106 207.828 100.596H207.802Z" fill="#A26D38"/>
<path d="M206.566 101.188C207.287 101.626 207.158 102.373 207.184 103.043C206.051 104.253 203.914 103.532 202.935 105.413C202.549 106.16 201.442 104.382 200.412 104.872C200.232 103.455 201.287 102.656 202.266 102.605C203.888 102.527 205.15 101.626 206.566 101.162V101.188Z" fill="#B4783E"/>
<path d="M218.282 99.3848C218.282 99.5909 218.282 99.7712 218.282 99.9773C217.226 100.596 219.389 101.188 218.282 101.806C217.664 101.806 217.072 101.806 216.454 101.806C215.887 101.188 215.939 100.57 216.454 99.9773C217.072 99.7712 217.664 99.5909 218.282 99.3848Z" fill="#B2773D"/>
<path d="M216.454 99.9773C216.454 100.596 216.454 101.214 216.454 101.806C215.398 102.888 215.037 101.858 214.6 101.162C215.243 100.802 215.501 99.8227 216.454 99.9515V99.9773Z" fill="#9B6836"/>
<path d="M143.607 119.092C141.985 119.504 140.492 120.895 138.663 119.71C137.891 117.83 139.256 117.134 140.517 117.211C141.625 117.289 143.71 116.67 143.582 119.092H143.607Z" fill="#B3783D"/>
<path d="M196.06 102.425C194.618 102.347 193.176 101.111 191.734 102.425C190.729 102.218 189.699 102.038 188.695 101.832C187.279 102.476 185.914 103.275 184.266 103.146C184.086 102.888 184.112 102.631 184.318 102.399C184.421 102.115 184.472 101.6 184.627 101.574C188.798 100.596 192.867 98.9211 197.296 99.9515C197.476 100.57 198.274 101.188 197.296 101.806C196.085 100.364 196.549 102.399 196.06 102.425V102.425Z" fill="#7C532B"/>
<path d="M184.344 102.425C184.344 102.631 184.344 102.837 184.344 103.043C184.19 104.434 183.546 105.542 182.052 104.692C180.585 103.867 180.018 105.671 178.859 105.413C178.808 105.413 178.756 105.284 178.731 105.207C178.731 105.104 178.756 105.001 178.782 104.924C179.014 104.099 177.649 103.301 178.782 102.476C180.636 103.816 182.464 101.343 184.318 102.451L184.344 102.425Z" fill="#744E28"/>
<path d="M194.231 98.1224C195.261 96.9117 196.291 96.9117 197.321 98.1224C196.291 98.1224 195.261 98.1224 194.231 98.1224Z" fill="#49392C"/>
<path d="M197.914 98.0969C198.558 96.5771 199.15 97.6332 199.768 98.0969C199.15 99.1016 198.532 98.2515 197.914 98.0969Z" fill="#49392C"/>
<path d="M203.476 99.3589C203.013 100.029 202.678 101.085 201.622 99.9771C202.06 99.2558 202.807 99.3846 203.476 99.3589Z" fill="#754F29"/>
<path d="M201.004 99.9518C200.386 100.75 199.768 100.75 199.15 99.9518C199.768 99.7714 200.386 98.9471 201.004 99.9518Z" fill="#764F29"/>
<path d="M163.357 104.923C165.366 107.937 167.889 105.181 170.13 105.516C170.233 107.216 168.327 107.113 167.735 108.195C166.396 108.349 165.289 108.942 164.49 110.05C164.284 110.101 164.053 110.178 163.898 110.101C161.066 108.71 158.31 109.122 155.555 110.359C155.246 110.333 154.963 110.256 154.68 110.127C154.036 109.689 153.469 109.174 153.006 108.555C152.774 108.092 152.542 107.577 153.032 107.19C153.572 106.778 154.165 106.907 154.68 107.345C157.358 105.799 160.705 106.675 163.306 104.897L163.357 104.923Z" fill="#77502A"/>
<path d="M154.731 107.371C153.958 107.422 152.8 107.087 153.495 108.607C153.521 109.071 153.392 109.483 153.134 109.844C152.928 110.05 152.671 110.179 152.388 110.282C149.169 109.483 146.259 109.715 144.405 112.961C144.148 113.115 143.864 113.115 143.607 112.961C143.761 111.57 142.371 111.312 141.753 110.462C142.937 110.462 144.225 110.668 144.843 109.225C146.645 107.731 149.014 108.169 151.023 107.371C151.718 106.984 152.439 106.624 153.109 106.186C154.808 105.026 154.628 106.366 154.731 107.371V107.371Z" fill="#6E4A27"/>
<path d="M151.023 107.371C149.221 108.865 146.852 108.427 144.843 109.225C144.843 108.246 143.762 106.52 146.362 107.577C147.701 108.118 149.401 106.598 151.023 107.396V107.371Z" fill="#53381D"/>
<path d="M167.684 107.989C168.121 106.778 169.409 106.443 170.156 105.516C172.937 103.867 175.795 103.429 178.808 104.898C179.966 104.434 180.636 102.347 182.438 104.28C183.417 105.31 183.52 103.223 184.344 103.043C185.76 102.476 187.099 101.652 188.721 101.858C187.975 104.125 184.859 104.28 184.318 106.727C178.962 106.804 173.58 106.443 168.353 108.015C168.121 108.221 167.915 108.221 167.709 107.989H167.684Z" fill="#81572D"/>
<path d="M143.607 119.092C140.595 117.082 139.977 117.16 138.663 119.71C138.457 119.71 138.251 119.71 138.045 119.71C137.093 119.272 135.908 119.246 135.419 118.061C135.47 117.778 135.599 117.546 135.779 117.314C137.015 115.923 138.947 116.335 140.44 115.562C140.698 115.459 140.981 115.408 141.238 115.356C142.758 115.228 144.2 114.944 145.281 113.733C147.444 112.6 149.427 112.6 150.998 114.764C150.843 115.511 150.92 116.593 149.607 116.103C149.118 115.923 148.32 115.588 148.345 116.078C148.5 119.942 145.178 118.139 143.582 119.092H143.607Z" fill="#AF753C"/>
<path d="M123.857 121.565C123.805 120.122 125.299 120.457 125.943 119.762C127.385 118.164 125.84 118.577 125.093 118.474C124.655 117.314 125.016 116.645 126.303 116.954C127.024 117.134 127.694 117.237 128.337 116.851C130.217 115.743 130.964 116.696 131.299 118.448C131.221 118.808 130.887 118.886 130.681 119.066C128.955 121.385 126.277 121.024 123.908 121.539L123.857 121.565Z" fill="#A16B38"/>
<path d="M130.655 119.092C130.861 118.886 131.067 118.68 131.273 118.474C131.762 118.216 131.865 117.752 131.891 117.263C133.307 116.464 134.62 116.181 135.599 117.907C136.139 118.912 138.071 118.01 138.045 119.736C137.556 120.998 136.577 120.844 135.882 120.148C134.311 118.577 132.534 118.706 130.629 119.118L130.655 119.092Z" fill="#A36D39"/>
<path d="M135.11 121.359C135.213 121.668 135.161 122.054 134.801 121.977C134.363 121.874 133.951 121.513 133.539 121.281C133.771 121.101 133.977 120.869 134.26 120.766C134.801 120.56 134.93 121.024 135.11 121.384V121.359Z" fill="#A26C38"/>
<path d="M196.06 102.425C196.137 101.987 195.828 101.369 196.395 101.162C196.601 101.085 196.987 101.6 197.296 101.832C200.283 101.472 203.631 102.94 206.206 100.106C206.566 99.7198 207.39 100.003 207.802 100.596C207.287 100.596 206.824 100.725 206.566 101.214C205.691 102.167 204.995 103.326 203.347 103.094C201.905 102.888 201.262 104.151 200.386 104.924C198.893 105.207 197.631 103.739 196.086 104.331C196.91 103.687 196.936 103.069 196.086 102.45L196.06 102.425Z" fill="#9E6A37"/>
<path d="M141.135 116.001C140.929 116.001 140.723 116.001 140.517 116.001C138.38 116.593 136.397 115.717 134.363 115.382C134.106 114.687 133.024 114.764 132.973 113.682C134.852 113.064 136.887 115.228 138.663 113.528C140.131 111.931 141.882 112.497 143.607 112.935C143.813 112.935 144.019 112.935 144.225 112.935C144.509 112.806 144.766 112.858 144.998 113.09C145.23 113.502 145.178 113.914 144.946 114.301C143.788 115.099 142.294 115.202 141.135 116.001Z" fill="#966534"/>
<path d="M134.363 115.408C136.551 114.172 138.457 116.078 140.517 116.026C139.41 117.443 137.272 116.439 136.191 117.855C135.702 117.108 134.208 117.392 134.337 116.001C134.337 115.795 134.337 115.588 134.337 115.382L134.363 115.408Z" fill="#A36D39"/>
<path d="M134.363 116C134.981 116.619 135.599 117.237 136.217 117.855C136.011 117.855 135.831 117.855 135.625 117.881C134.492 117.108 133.204 117.211 131.917 117.237C132.097 115.563 133.41 116.129 134.389 116H134.363Z" fill="#966534"/>
<path d="M144.843 114.146C144.843 113.734 144.843 113.322 144.843 112.935C144.92 112.832 144.972 112.703 145.049 112.6C145.925 111.724 147.289 111.827 148.216 111.029C149.504 109.612 151.461 110.849 152.826 109.818C153.444 109.329 154.062 109.329 154.705 109.818C154.911 109.818 155.117 109.818 155.323 109.844C156.276 110.565 157.023 109.741 157.821 109.483C159.958 108.788 159.546 109.87 159.006 111.08C157.255 112.987 154.783 113.27 152.517 113.991C151.95 114.172 150.972 113.476 150.997 114.764C149.221 113.888 147.444 113.012 145.435 114.146C145.229 114.352 145.023 114.352 144.817 114.146H144.843Z" fill="#9A6735"/>
<path d="M159.032 111.08C158.697 110.771 159.779 109.663 158.285 109.947C157.358 110.127 156.277 111.08 155.35 109.869C158.414 107.912 161.478 107.86 164.568 109.818C165.16 109.663 165.366 109.895 165.238 110.462C163.255 111.415 161.221 111.879 159.058 111.08H159.032Z" fill="#976534"/>
<path d="M165.212 110.462C164.98 110.256 164.774 110.024 164.542 109.818C164.517 107.371 166.062 107.654 167.658 107.989C167.864 107.989 168.096 107.989 168.302 108.015C168.302 110.127 167.195 110.848 165.186 110.462H165.212Z" fill="#956434"/>
<path d="M154.731 109.818C154.113 109.818 153.495 109.818 152.852 109.818C152.852 109.303 152.98 108.865 153.47 108.607C154.268 108.607 154.68 109.02 154.706 109.818H154.731Z" fill="#865A2E"/>
<path d="M152.851 109.818C151.924 111.595 149.555 110.05 148.551 111.647C147.418 112.368 145.693 111.286 144.869 112.909C144.663 112.909 144.457 112.909 144.251 112.909C144.895 109.895 148.371 108.066 151.126 109.354C151.718 109.638 152.259 109.792 152.851 109.792V109.818Z" fill="#78512A"/>
<path d="M144.843 114.146C145.049 114.146 145.255 114.146 145.461 114.146C144.637 116.233 142.783 115.872 141.135 115.975C141.985 114.558 143.324 114.146 144.843 114.12V114.146Z" fill="#A46E39"/>
<path d="M144.843 112.935C145.178 109.921 147.315 112.111 148.525 111.673C147.469 112.626 146.053 112.471 144.843 112.935Z" fill="#966534"/>
</g>
<defs>
<clipPath id="clip0_5484_43219">
<rect width="595" height="297" fill="white"/>
</clipPath>
</defs>
</svg>
