<svg width="18" height="16" viewBox="0 0 18 16" fill="none" xmlns="http://www.w3.org/2000/svg">
<path d="M9.00116 1.77417C10.9587 0.0166651 13.9837 0.0749986 15.8695 1.96417C17.7545 3.85417 17.8195 6.86417 16.0662 8.8275L8.9995 15.9042L1.9345 8.8275C0.181164 6.86417 0.246997 3.84917 2.13116 1.96417C4.01866 0.0774986 7.03783 0.0141651 9.00116 1.77417ZM14.6895 3.14167C13.4395 1.89 11.4228 1.83917 10.1145 3.01417L9.002 4.0125L7.88866 3.015C6.57616 1.83833 4.56366 1.89 3.31033 3.14333C2.06866 4.385 2.00616 6.3725 3.15033 7.68583L9.00033 13.545L14.8503 7.68666C15.9953 6.3725 15.9328 4.3875 14.6895 3.14167Z" fill="#8C8CF8"/>
</svg>
