<svg width="22" height="20" viewBox="0 0 22 20" fill="none" xmlns="http://www.w3.org/2000/svg">
<path d="M10.5398 19.0584C10.661 19.1824 10.8277 19.25 10.9995 19.25C11.1712 19.25 11.3379 19.1824 11.4591 19.0585C11.4591 19.0584 11.4591 19.0584 11.4592 19.0584L14.6833 15.7627L14.6834 15.7628L14.6878 15.758L14.6893 15.7564C14.6929 15.7528 14.696 15.7495 14.6988 15.7465L19.8515 10.4783C21.8802 8.40418 21.6645 4.87529 19.4487 2.60997C18.297 1.43115 16.7467 0.75 15.1899 0.75C13.836 0.75 12.5838 1.26173 11.6692 2.19745L11.6691 2.1975L10.9999 2.88247L10.331 2.19754L10.3308 2.19734C9.41586 1.26249 8.16376 0.750368 6.80982 0.750368C5.25307 0.750368 3.70236 1.43151 2.55028 2.60991L2.55027 2.60993C0.336067 4.87522 0.120339 8.4037 2.14658 10.4774L2.14667 10.4775L10.5398 19.0584ZM10.5398 19.0584L10.7186 18.8836M10.5398 19.0584L10.5399 19.0584L10.7186 18.8836M10.7186 18.8836L2.3254 10.3027L11.2804 18.8836C11.2077 18.958 11.1061 19 10.9995 19C10.8929 19 10.7913 18.958 10.7186 18.8836ZM13.7687 14.9045L13.7687 14.9045L18.9331 9.62448C20.4627 8.06042 20.3222 5.29581 18.5294 3.46254L18.5293 3.46249C17.6085 2.52029 16.3892 1.98656 15.1899 1.98656C14.179 1.98656 13.2575 2.36624 12.5885 3.0501L11.46 4.20522C11.46 4.20525 11.46 4.20527 11.4599 4.20529C11.3391 4.32955 11.1718 4.39768 10.9999 4.39768C10.8275 4.39768 10.661 4.32928 10.5402 4.2057L10.5401 4.20558L9.4117 3.04978L13.7687 14.9045ZM13.7687 14.9045L13.7653 14.908M13.7687 14.9045L13.7653 14.908M13.7653 14.908L13.7567 14.9172M13.7653 14.908L13.7567 14.9172M13.7567 14.9172L10.9999 17.7354L3.06639 9.62457C3.06636 9.62454 3.06633 9.62451 3.0663 9.62448C1.53735 8.05963 1.67836 5.295 3.46961 3.46252L13.7567 14.9172ZM6.80982 1.98656C5.61055 1.98656 4.39085 2.5203 3.46963 3.4625L6.80982 1.98656ZM6.80982 1.98656C7.82029 1.98656 8.74248 2.36619 9.41147 3.04955L6.80982 1.98656ZM14.6902 15.7555C14.6904 15.7552 14.6904 15.7552 14.6903 15.7553L14.6902 15.7555ZM14.7112 15.7318C14.7114 15.7315 14.711 15.732 14.7101 15.7332L14.7107 15.7324L14.7112 15.7318Z" fill="#8484FF" stroke="#8484FF" stroke-width="0.5"/>
</svg>
