<svg width="19" height="20" viewBox="0 0 19 20" fill="none" xmlns="http://www.w3.org/2000/svg">
<path d="M4.5 4V1C4.5 0.734784 4.60536 0.48043 4.79289 0.292893C4.98043 0.105357 5.23478 0 5.5 0H17.5C17.7652 0 18.0196 0.105357 18.2071 0.292893C18.3946 0.48043 18.5 0.734784 18.5 1V15C18.5 15.2652 18.3946 15.5196 18.2071 15.7071C18.0196 15.8946 17.7652 16 17.5 16H14.5V19C14.5 19.552 14.05 20 13.493 20H1.507C1.37513 20.0008 1.2444 19.9755 1.12232 19.9256C1.00025 19.8757 0.889233 19.8022 0.795659 19.7093C0.702084 19.6164 0.627793 19.5059 0.577054 19.3841C0.526316 19.2624 0.500129 19.1319 0.5 19L0.503 5C0.503 4.448 0.953 4 1.51 4H4.5ZM2.503 6L2.5 18H12.5V6H2.503ZM6.5 4H14.5V14H16.5V2H6.5V4Z" fill="#000091"/>
</svg>
