<svg width="25" height="20" viewBox="0 0 25 20" fill="none" xmlns="http://www.w3.org/2000/svg">
<path d="M13.5343 2.1847L13.5343 2.18474L12.7158 2.90682L11.8978 2.18478L11.8976 2.1846C10.8421 1.25499 9.40437 0.750368 7.85484 0.750368C6.07202 0.750368 4.28732 1.42276 2.95532 2.59716L2.9553 2.59718C0.387178 4.86191 0.130446 8.4113 2.48698 10.4902L2.48707 10.4903L12.2241 19.0711C12.2242 19.0712 12.2242 19.0712 12.2242 19.0712C12.359 19.1901 12.5376 19.25 12.7154 19.25C12.8931 19.25 13.0717 19.1901 13.2065 19.0712C13.2065 19.0712 13.2066 19.0712 13.2066 19.0711L16.947 15.7755L16.947 15.7755L16.9518 15.7711L16.9511 15.7715L16.9517 15.771L16.9598 15.7643L16.9649 15.7592L22.9428 10.491C25.3021 8.41176 25.0453 4.86188 22.4754 2.59712C21.1438 1.42236 19.3596 0.75 17.5768 0.75C16.0273 0.75 14.5895 1.25422 13.5343 2.1847ZM15.97 14.8917L15.97 14.8917L15.9664 14.895L15.9563 14.9043L13.8466 16.7632L18.1094 12.6806L18.1105 12.6795L22.751 8.17947L22.8384 8.09472L22.8256 7.97366L22.4683 4.60126C23.5639 6.30643 23.3947 8.34843 21.9613 9.61173L15.97 14.8917ZM18.1071 2.01171C19.1173 2.10715 20.111 2.47126 20.9528 3.05307L18.1071 2.01171ZM2.25183 6.93113L4.55098 10.5645L3.46996 9.61181C2.66198 8.89905 2.25596 7.9388 2.25183 6.93113ZM3.84372 3.56L2.40539 5.82751C2.63265 5.02283 3.1121 4.23384 3.84372 3.56ZM10.8719 3.02479L8.79413 2.06957C9.59157 2.21392 10.3075 2.5426 10.8719 3.02479Z" fill="#1212ff" stroke="#8484FF" stroke-width="0.5"/>
</svg>
