<svg height="37.385" viewBox="0 0 33.546 37.385" width="33.546" xmlns="http://www.w3.org/2000/svg"><path d="m10.007 34.249v12.839h3.464v-12.839" transform="translate(-6.233 -13.915)"/><path d="m24.012 34.249v12.839h3.464v-12.839" transform="translate(-12.9 -13.916)"/><path d="m38.02 34.249v12.839h3.464v-12.839" transform="translate(-19.04 -13.916)"/><path d="m52.025 34.249v12.839h3.464v-12.839" transform="translate(-25.705 -13.916)"/><path d="m.99 33.173h31.566v3.463h-31.566z"/><path d="m37.555 29.251v3.463h-31.566v-3.463" transform="translate(-4.999 -12.38)"/><path d="m5.989 26.132 15.783-7.032 15.783 7.033" transform="translate(-4.999 -9.123)"/><path d="m16.773 9.887v-9.137"/><path d="m16.371.75h4.157v4.915h-4.157z"/><path d="m19.725 2.136h4.157v4.915h-4.157z"/></svg>