<svg height="33.491" viewBox="0 0 45.651 33.491" width="45.651" xmlns="http://www.w3.org/2000/svg"><path d="m6.814 7.666a4.32 4.32 0 0 1 3.457 1.7 6.168 6.168 0 0 1 2.606-1.754 4.412 4.412 0 0 1 -1.6-3.357 4.3 4.3 0 0 1 4.306-4.255 4.255 4.255 0 0 1 4.259 4.259 4.367 4.367 0 0 1 -1.553 3.357 6.137 6.137 0 0 1 4.111 5.762h-1.255a4.811 4.811 0 0 0 -4.81-4.81h-1.5a4.728 4.728 0 0 0 -3.908 2.054 5.447 5.447 0 0 1 .2 1.3 4.412 4.412 0 0 1 -1.6 3.357 6.006 6.006 0 0 1 4.109 5.712h-1.26a4.79 4.79 0 0 0 -4.76-4.76h-1.553a4.8 4.8 0 0 0 -4.81 4.76h-1.253a6.051 6.051 0 0 1 4.159-5.712 4.278 4.278 0 0 1 2.655-7.613zm8.769-6.414a3.032 3.032 0 1 0 3.006 3.006 3.015 3.015 0 0 0 -3.006-3.005zm-8.769 7.667a3.006 3.006 0 1 0 3.006 3.006 3.015 3.015 0 0 0 -3.006-3.006z" transform="translate(0 12.497)"/><path d="m2.658 0h18.342a2.675 2.675 0 0 1 2.658 2.677v12.78a2.675 2.675 0 0 1 -2.658 2.677h-6.448l.664 1.673h1.794a.569.569 0 0 1 0 1.138h-10.432a.569.569 0 0 1 0-1.138h1.794l.728-1.673h-6.442a2.675 2.675 0 0 1 -2.658-2.677v-12.78a2.675 2.675 0 0 1 2.658-2.677zm-1.528 13.851h21.4v-11.174a1.551 1.551 0 0 0 -1.53-1.539h-18.342a1.509 1.509 0 0 0 -1.528 1.539zm21.4 1.138h-21.4v.468a1.509 1.509 0 0 0 1.528 1.543h18.342a1.551 1.551 0 0 0 1.528-1.539zm-9.24 3.145h-2.99l-.664 1.673h4.386z" transform="translate(21.996)"/></svg>