<svg xmlns="http://www.w3.org/2000/svg" width="42.792" height="37.887" viewBox="0 0 42.792 37.887"><path class="a" d="M4.808,0H37.984a4.839,4.839,0,0,1,4.808,4.842v23.12A4.839,4.839,0,0,1,37.984,32.8H26.324l1.2,3.026h3.245a1.03,1.03,0,0,1,0,2.058H11.9a1.03,1.03,0,0,1,0-2.058h3.245L16.468,32.8H4.808A4.839,4.839,0,0,1,0,27.962V4.842A4.839,4.839,0,0,1,4.808,0ZM2.043,25.057H40.749V4.842a2.806,2.806,0,0,0-2.765-2.784H4.808A2.73,2.73,0,0,0,2.043,4.842Zm38.705,2.058H2.043v.847a2.73,2.73,0,0,0,2.765,2.784H37.984a2.806,2.806,0,0,0,2.765-2.784ZM24.04,32.8H18.631l-1.2,3.026h7.933Z"/></svg>
