<svg xmlns="http://www.w3.org/2000/svg" width="50" height="32.831" viewBox="0 0 50 32.831"><path d="M46.333,8.975a.732.732,0,0,0-.593-.1c-.147.035-3.414.921-3.953,3.851a10.764,10.764,0,0,1-2.146.7,10.938,10.938,0,0,1-6.515-1.417A19.48,19.48,0,0,1,31.46,11a5.8,5.8,0,0,0-2.827-1.236c-1.232-.046-2.792.748-4.581,1.682a23.562,23.562,0,0,1-4.545,1.985,4.814,4.814,0,0,0-1.093.44,21.869,21.869,0,0,1-4.172-1.142c-.537-2.932-3.807-3.818-3.955-3.853a.732.732,0,0,0-.593.1c-8.47,5.754-6.486,16.741-6.465,16.853a.732.732,0,0,0,.316.474,7.723,7.723,0,0,0,4.247,1.173A8.8,8.8,0,0,0,8.971,27.4c.5.508,1.723,1.722,3.3,3.216a2.872,2.872,0,0,0,1.394,2.843,2.718,2.718,0,0,0,1.089.352,3.122,3.122,0,0,0,1.345,3.778,3.026,3.026,0,0,0,2.194.318,3,3,0,0,0,1.669,2.57,2.916,2.916,0,0,0,2.642-.069,2.675,2.675,0,0,0,1.107,1,2.558,2.558,0,0,0,2.784-.331,8.284,8.284,0,0,0,2.746.6,2.7,2.7,0,0,0,2.143-.862,2.205,2.205,0,0,0,.45-1.86,3.057,3.057,0,0,0,3.108-.391,2.761,2.761,0,0,0,.689-2.38c1.063.431,2.4.712,3.326-.012a2.3,2.3,0,0,0,.8-2.3,2.986,2.986,0,0,0,2.243-.241,2.927,2.927,0,0,0,1.167-2.693,21.216,21.216,0,0,0,3.921-3.528,9.16,9.16,0,0,0,1.146.071A7.726,7.726,0,0,0,52.476,26.3a.732.732,0,0,0,.316-.474C52.818,25.716,54.8,14.729,46.333,8.975ZM4.626,25.24c-.234-1.716-1-10.106,5.606-14.847a3.859,3.859,0,0,1,2.555,2.478c-1.3,1.014-5.563,5.036-4.389,13.1A6.693,6.693,0,0,1,4.626,25.24ZM14.4,32.182a1.4,1.4,0,0,1-.509-1.89l2.774-5.045a1.339,1.339,0,0,1,1.806-.521,1.4,1.4,0,0,1,.508,1.89l-.18.328L15.605,32.2A1.277,1.277,0,0,1,14.4,32.182Zm2.434,4.131a1.646,1.646,0,0,1-.6-2.213l3.721-6.224a1.524,1.524,0,0,1,1.5-.009,1.631,1.631,0,0,1,.661,2.055l-3.2,5.838A1.569,1.569,0,0,1,16.83,36.314ZM20.6,39.151a1.537,1.537,0,0,1-.7-2.027l3.386-6.292a1.391,1.391,0,0,1,1.124.015,1.5,1.5,0,0,1,.817,1.479l-2.907,6.427A1.454,1.454,0,0,1,20.6,39.151ZM24.86,40.2a1.154,1.154,0,0,1-.509-.119,1.206,1.206,0,0,1-.628-.858L26.536,33a1.16,1.16,0,0,1,1.091-.059,1.258,1.258,0,0,1,.571,1.662L25.938,39.5A1.2,1.2,0,0,1,24.86,40.2Zm16.363-7.83c-.584.365-1.841-.124-2.358-.416a.736.736,0,0,0-.989,1.026c.009.015.876,1.476.172,2.027-.542.425-2.221-.253-3.225-.907a.736.736,0,0,0-1.054.957c.23.443.746,1.846.132,2.461-.5.5-2.072-.034-2.974-.555a.736.736,0,0,0-1,1.017c.28.467.671,1.492.352,1.854-.517.584-1.738.377-2.874,0l2.13-4.617a2.734,2.734,0,0,0-1.266-3.6,2.6,2.6,0,0,0-1.66-.212,2.933,2.933,0,0,0-1.557-1.887,2.81,2.81,0,0,0-1.335-.287A3.037,3.037,0,0,0,20.612,26.2a2.8,2.8,0,0,0-5.238-1.657l-2.527,4.595c-1.444-1.382-2.537-2.477-2.932-2.874C8.612,18.693,12.477,15,13.636,14.077a20.581,20.581,0,0,0,3.431,1.015,2.7,2.7,0,0,0-.45,1.319,3,3,0,0,0,2.237,2.837c2.2.846,5.7.2,7.815-.334L41.7,30.9C41.7,31.435,41.617,32.128,41.222,32.375Zm4.886-6.087a20.755,20.755,0,0,1-3.64,3.342L27.3,17.534a.73.73,0,0,0-.459-.16.744.744,0,0,0-.188.025c-1.18.313-5.2,1.275-7.269.475-.854-.328-1.325-.83-1.3-1.383s.608-1.323,1.8-1.642a24.565,24.565,0,0,0,4.848-2.1c1.534-.8,2.976-1.559,3.828-1.516a4.78,4.78,0,0,1,2.091,1c.514.337,1.095.718,1.788,1.083a12.251,12.251,0,0,0,7.49,1.559,12.259,12.259,0,0,0,2.467-.787C43.561,15,47.425,18.71,46.108,26.288ZM51.4,25.24a6.772,6.772,0,0,1-3.771.733c1.173-8.065-3.088-12.089-4.389-13.1a3.834,3.834,0,0,1,2.553-2.48C52.382,15.122,51.632,23.521,51.4,25.24Z" transform="translate(-3.012 -8.847)"/></svg>
