<svg xmlns="http://www.w3.org/2000/svg" width="40.516" height="37.978" viewBox="0 0 40.516 37.978"><g transform="translate(3.186 -166.513)"><g transform="translate(-3.186 166.513)"><path d="M12.327,13.868a7.814,7.814,0,0,1,6.254,3.082,11.159,11.159,0,0,1,4.713-3.172,7.981,7.981,0,0,1-2.9-6.073,7.776,7.776,0,0,1,7.8-7.7,7.7,7.7,0,0,1,7.7,7.7,7.9,7.9,0,0,1-2.81,6.073A11.1,11.1,0,0,1,40.516,24.2H38.25a8.7,8.7,0,0,0-8.7-8.7H26.829a8.553,8.553,0,0,0-7.07,3.716,9.854,9.854,0,0,1,.363,2.357,7.981,7.981,0,0,1-2.9,6.073,10.865,10.865,0,0,1,7.432,10.333H22.388a8.666,8.666,0,0,0-8.611-8.611h-2.81a8.685,8.685,0,0,0-8.7,8.611H0A10.946,10.946,0,0,1,7.523,27.645a7.738,7.738,0,0,1,4.8-13.777Zm15.862-11.6A5.484,5.484,0,1,0,33.627,7.7,5.454,5.454,0,0,0,28.189,2.266ZM12.327,16.134a5.438,5.438,0,1,0,5.438,5.438A5.454,5.454,0,0,0,12.327,16.134Z"/></g></g></svg>
