<svg xmlns="http://www.w3.org/2000/svg" width="50" height="50.577" viewBox="0 0 50 50.577"><path d="M2.833,56.12h11.66a.836.836,0,0,0,.833-.84v-.84h2.3l8.9,4.491a2.7,2.7,0,0,0,2.589-.084l18.17-10.69a2.76,2.76,0,0,0,.38-4.472,2.714,2.714,0,0,0-2.219-.6l-16.517,2.9-4.691-4.732A.826.826,0,0,0,23.654,41H2.833A.836.836,0,0,0,2,41.84V55.28A.836.836,0,0,0,2.833,56.12ZM29.872,49.3a1.53,1.53,0,1,1-2.154,2.172L23.41,47.126l-1.178,1.188,4.308,4.344a3.149,3.149,0,0,0,2.255.942,3.222,3.222,0,0,0,2.255-5.49l-.674-.68,15.361-2.695a1.042,1.042,0,0,1,.861.234,1.071,1.071,0,0,1-.147,1.736L28.282,57.4a1.048,1.048,0,0,1-1,.033L18.2,52.849a.825.825,0,0,0-.373-.089h-2.5V42.68h7.984ZM13.66,54.44H11.994V42.68H13.66ZM3.666,42.68h6.663V54.44H3.666Z" transform="translate(-2 -8.644)"/><path class="a" d="M50.44,7.88H40.36V4.52A2.523,2.523,0,0,0,37.84,2H32.8a2.523,2.523,0,0,0-2.52,2.52V7.88H20.2a4.2,4.2,0,0,0-4.2,4.2v16.8a4.2,4.2,0,0,0,4.2,4.2H50.44a4.2,4.2,0,0,0,4.2-4.2V12.08A4.2,4.2,0,0,0,50.44,7.88ZM17.68,17.468l1.086,1.086a.836.836,0,0,0,.594.246H31.12V23a.84.84,0,0,0,.84.84h6.72a.84.84,0,0,0,.84-.84V18.8H51.28a.836.836,0,0,0,.594-.246l1.086-1.086v8.11A6.726,6.726,0,0,0,47.138,31.4H23.5a6.726,6.726,0,0,0-5.822-5.822ZM36.16,20.48V18.8h1.68v3.36H32.8V18.8h1.68v1.68ZM31.96,4.52a.841.841,0,0,1,.84-.84h5.04a.841.841,0,0,1,.84.84V7.88H31.96ZM20.2,9.56H50.44a2.523,2.523,0,0,1,2.52,2.52v3.012L50.932,17.12H19.708L17.68,15.092V12.08A2.523,2.523,0,0,1,20.2,9.56ZM17.68,28.88v-1.6A5.046,5.046,0,0,1,21.8,31.4H20.2A2.523,2.523,0,0,1,17.68,28.88ZM50.44,31.4h-1.6a5.046,5.046,0,0,1,4.124-4.124v1.6A2.523,2.523,0,0,1,50.44,31.4Z" transform="translate(-4.64 -2)"/></svg>
