<svg xmlns="http://www.w3.org/2000/svg" width="33.546" height="37.385" viewBox="0 0 33.546 37.385"><g transform="translate(0.99 3.75)"><path class="a" d="M10.007,34.249V47.088h3.464V34.249" transform="translate(-7.223 -17.665)"/><path class="a" d="M24.012,34.249V47.088h3.464V34.249" transform="translate(-13.89 -17.666)"/><path class="a" d="M38.02,34.249V47.088h3.464V34.249" transform="translate(-20.03 -17.666)"/><path class="a" d="M52.025,34.249V47.088h3.464V34.249" transform="translate(-26.695 -17.666)"/><rect class="a" width="31.566" height="3.463" transform="translate(0 29.423)"/><path class="a" d="M37.555,29.251v3.463H5.989V29.251" transform="translate(-5.989 -16.13)"/><path class="a" d="M5.989,26.132,21.772,19.1l15.783,7.033" transform="translate(-5.989 -12.873)"/><line class="a" y1="9.137" transform="translate(15.783 -3)"/><rect class="a" width="4.157" height="4.915" transform="translate(15.381 -3)"/><rect class="a" width="4.157" height="4.915" transform="translate(18.735 -1.614)"/></g></svg>
