<svg xmlns="http://www.w3.org/2000/svg" width="50" height="31.822" viewBox="0 0 50 31.822"><path class="a" d="M62.266,56.684H58.879V32.11h.977a.823.823,0,0,0,.824-.824V27.333a.823.823,0,0,0-.824-.824H16.322a.823.823,0,0,0-.824.824v3.954a.823.823,0,0,0,.824.824H17.3V56.684H13.913a.824.824,0,0,0,0,1.647H62.265a.824.824,0,0,0,0-1.647ZM17.146,30.463V28.156H59.033v2.307Zm1.8,1.648H57.231V56.684H30.786V47.626a.823.823,0,0,0-.824-.824h-5.48a.823.823,0,0,0-.824.824v9.058H18.948V32.11ZM29.138,56.684H25.306V48.45h3.832ZM51.056,37.255V35.688a.824.824,0,0,1,1.647,0v1.567a.824.824,0,0,1-1.647,0Zm-5.48,0V35.688a.824.824,0,0,1,1.647,0v1.567a.824.824,0,0,1-1.647,0Zm-5.479,0V35.688a.824.824,0,0,1,1.647,0v1.567a.824.824,0,0,1-1.647,0Zm-5.48,0V35.688a.824.824,0,0,1,1.647,0v1.567a.824.824,0,0,1-1.647,0Zm-5.48,0V35.688a.824.824,0,1,1,1.647,0v1.567a.824.824,0,1,1-1.647,0Zm-5.48,0V35.688a.824.824,0,0,1,1.647,0v1.567a.824.824,0,0,1-1.647,0Zm27.4,5.969V41.657a.824.824,0,0,1,1.647,0v1.567a.824.824,0,0,1-1.647,0Zm-5.48,0V41.657a.824.824,0,0,1,1.647,0v1.567a.824.824,0,0,1-1.647,0Zm-5.479,0V41.657a.824.824,0,0,1,1.647,0v1.567a.824.824,0,0,1-1.647,0Zm-5.48,0V41.657a.824.824,0,0,1,1.647,0v1.567a.824.824,0,0,1-1.647,0Zm-5.48,0V41.657a.824.824,0,1,1,1.647,0v1.567a.824.824,0,0,1-1.647,0Zm-5.48,0V41.657a.824.824,0,0,1,1.647,0v1.567a.824.824,0,0,1-1.647,0ZM46.4,53.93h5.48a.823.823,0,0,0,.824-.824v-5.48a.823.823,0,0,0-.824-.824H46.4a.823.823,0,0,0-.824.824v5.48A.823.823,0,0,0,46.4,53.93Zm.824-5.48h3.832v3.832H47.224V48.45ZM35.441,53.93h5.48a.823.823,0,0,0,.824-.824v-5.48a.823.823,0,0,0-.824-.824h-5.48a.823.823,0,0,0-.824.824v5.48A.823.823,0,0,0,35.441,53.93Zm.824-5.48H40.1v3.832H36.265Z" transform="translate(-13.089 -26.509)"/></svg>
