<svg width="16" height="16" viewBox="0 0 16 16" fill="none" xmlns="http://www.w3.org/2000/svg">
<path d="M9.33341 9.50068V10.8936C8.91635 10.7462 8.46761 10.666 8.00008 10.666C5.79094 10.666 4.00008 12.4569 4.00008 14.666H2.66675C2.66675 11.7205 5.05456 9.33268 8.00008 9.33268C8.46048 9.33268 8.90728 9.39102 9.33341 9.50068ZM8.00008 8.66602C5.79008 8.66602 4.00008 6.87602 4.00008 4.66602C4.00008 2.45602 5.79008 0.666016 8.00008 0.666016C10.2101 0.666016 12.0001 2.45602 12.0001 4.66602C12.0001 6.87602 10.2101 8.66602 8.00008 8.66602ZM8.00008 7.33268C9.47341 7.33268 10.6667 6.13935 10.6667 4.66602C10.6667 3.19268 9.47341 1.99935 8.00008 1.99935C6.52675 1.99935 5.33341 3.19268 5.33341 4.66602C5.33341 6.13935 6.52675 7.33268 8.00008 7.33268ZM12.0001 11.3327V9.33268H13.3334V11.3327H15.3334V12.666H13.3334V14.666H12.0001V12.666H10.0001V11.3327H12.0001Z" fill="#000091"/>
</svg>
