<svg xmlns="http://www.w3.org/2000/svg" width="29.033" height="19.171" viewBox="0 0 29.033 19.171"><defs><style>.a{fill:#300e8f;}</style></defs><g transform="translate(0 0)"><path class="a" d="M68.96,190.148a.693.693,0,0,0,1.07-.879c-1.538-1.877-2.455-5.236-4.107-6.376a26.4,26.4,0,0,1-2.332-1.83c-1.089-.95.112-1.548.42-1.371.987.568,2.648,1.414,4.142,2.075,3.372,1.49,3.788,1.046,6.331,3.618v9.484c-.9.129-1.991.307-3.3.55-3.728.69-10.191-.13-14.1-.984-1.279-.282-3.071-.807-.992-1.04a11.083,11.083,0,0,0,1.34.27c1.542.212,3.952.406,3.959.406a.7.7,0,0,0,.1-1.385c-.007,0-2.4-.193-3.877-.4-.7-.1-5.213-1.086-2.241-1.452a12.181,12.181,0,0,0,1.873.412c1.681.23,4.329.444,4.336.444a.694.694,0,0,0,.1-1.385c-.007,0-2.626-.212-4.249-.434-.869-.12-6.027-1.315-2.329-1.738a26.864,26.864,0,0,0,6.462,1.085.693.693,0,0,0,.06-1.385A25.045,25.045,0,0,1,55.47,186.8c-1.345-.612-1.569-.869.287-.845s8.6-.569,10.379-.728C67.133,187.01,67.56,188.439,68.96,190.148Zm5.522-6.661c-1.894-1.673-2.828-1.689-5.771-2.989-1.471-.65-3.075-1.466-4.011-2a2.077,2.077,0,0,0-2.022,3.613A27.95,27.95,0,0,0,65,183.938c-2.542.223-7.681.654-9.226.632-1.458-.019-4.1.936-2.484,2.565-1.741.7-1.163,2.091.113,2.861-1.319.844-.352,2.042.634,2.6-1.813,2.217,1.636,2.905,2.673,3.169,3.823.976,11.072,1.695,14.72,1.02,1.211-.225,2.219-.392,3.053-.516v.475a.7.7,0,0,0,.7.7h5.36a.7.7,0,0,0,.7-.7V183.376a.7.7,0,0,0-.7-.7h-5.36a.7.7,0,0,0-.7.7v.11Zm1.39.585h3.969v11.975H75.873Z" transform="translate(-52.2 -178.266)"/></g></svg>