<svg xmlns="http://www.w3.org/2000/svg" width="55.127" height="42.017" viewBox="0 0 55.127 42.017"><defs><style>.a{fill:#403156;}</style></defs><g transform="translate(-1.548 -8.79)"><g transform="translate(1.548 8.79)"><path class="a" d="M56.612,36.307l-6.7-16.812a.905.905,0,0,0-1.146-.517l-7.3,2.612a.905.905,0,0,0-.534,1.191l.48,1.189-3.032,1c-1.128-.435-5.1-1.973-6.218-2.477-1.786-.8-3.419-.165-5.313,1.047-1.335-1.022-2.586-1.028-4.278-.072-1.177.664-3.011,1.77-3.859,2.285l-1.431-.806.657-1.37a.905.905,0,0,0-.406-1.2L10.97,19.026a.905.905,0,0,0-1.219.4L1.646,35.43a.905.905,0,0,0,.393,1.214l6.9,3.55a.905.905,0,0,0,.415.1.882.882,0,0,0,.289-.048.905.905,0,0,0,.528-.466l.526-1.1.833.57a9.022,9.022,0,0,0-.425,1,.922.922,0,0,0-.043.281c0,2.279,2.345,3.539,3.334,3.969a3.671,3.671,0,0,0,2.07,2.263,2.219,2.219,0,0,0,.634.091,2.529,2.529,0,0,0,.96-.2,3.632,3.632,0,0,0,1.471,1.621,2.865,2.865,0,0,0,1.885.283,4,4,0,0,0,1.744,1.664,2.247,2.247,0,0,0,.857.172,2.278,2.278,0,0,0,.89-.181,4.646,4.646,0,0,0,1.93-1.582c.453.362,1.144.905,1.914,1.518a3.287,3.287,0,0,0,2.053.663,4.027,4.027,0,0,0,1.785-.418,3.269,3.269,0,0,0,1.72-2,4.215,4.215,0,0,0,.952-.123,4.128,4.128,0,0,0,2.684-2.109,3.665,3.665,0,0,0,.522.041,4.267,4.267,0,0,0,3.961-2.753c.04,0,.077.007.117.007a3.629,3.629,0,0,0,2.549-.942,2.977,2.977,0,0,0,.687-3.453l1.455-.644.531,1.318a.905.905,0,0,0,.839.567.889.889,0,0,0,.324-.061l7.167-2.746a.905.905,0,0,0,.517-1.177ZM8.939,38.158,3.667,35.442,10.955,21.05l4.969,2.534Zm3.938,2.509a9.351,9.351,0,0,1,1.04-1.91,1.08,1.08,0,0,1,1.2-.091.543.543,0,0,1,.339.74c-.345,1.114-.7,2.317-.931,3.142C13.8,42.142,12.965,41.481,12.877,40.667Zm4.106,4.357c-.345-.1-.682-.644-.881-1.119a35.832,35.832,0,0,1,2.2-3.295,1.254,1.254,0,0,1,1.6-.345c.362.25.159.749-.073,1.124-.007.011-.007.024-.014.035s-.033.048-.045.074c-.159.362-1.2,2.033-1.933,3.181C17.61,44.87,17.254,45.1,16.983,45.024Zm4.281,1.711a1.1,1.1,0,0,1-.872-.057,2.275,2.275,0,0,1-.884-1.241c.533-.838,1.683-2.664,1.918-3.194a.685.685,0,0,1,.4-.219,1.267,1.267,0,0,1,1,.253.966.966,0,0,1,.373,1.145Zm2.943,1.8c-.472.2-.98-.492-1.267-.972l1.831-2.5a1.431,1.431,0,0,1,1.045.409,1.467,1.467,0,0,1,.091,1.129,3.571,3.571,0,0,1-1.7,1.935Zm19.6-7.308a2.15,2.15,0,0,1-1.864.339c-.008,0-.014-.007-.022-.009h-.011a.974.974,0,0,1-.243-.109c-.533-.356-3.324-3.04-4.958-4.648a.905.905,0,0,0-1.267,1.29c.724.715,4.39,4.309,5.224,4.864h0a2.475,2.475,0,0,1-1.42,1.292,1.76,1.76,0,0,1-1.629-.109c-1.171-1.042-4.345-4.218-4.382-4.25a.905.905,0,1,0-1.28,1.28c.128.128,3.065,3.063,4.345,4.22a2.358,2.358,0,0,1-1.479,1.12,1.629,1.629,0,0,1-1.318-.122l-3.218-3.216a.905.905,0,1,0-1.28,1.281l3.215,3.215a2.082,2.082,0,0,0,.336.261,1.487,1.487,0,0,1-.781.842,1.93,1.93,0,0,1-1.9-.038c-.951-.761-1.788-1.419-2.2-1.743a3.134,3.134,0,0,0-.4-2.584,3.006,3.006,0,0,0-2.227-1.132,2.7,2.7,0,0,0-1.2-2.483,3.149,3.149,0,0,0-1.979-.587,2.263,2.263,0,0,0-.935-1.423,3.068,3.068,0,0,0-3.634.272,2.346,2.346,0,0,0-1.387-2.009,2.814,2.814,0,0,0-3.464.652l-.969-.663L16.5,26.574l1.789,1.008a.905.905,0,0,0,.915-.015c.028-.017,2.752-1.677,4.261-2.534.757-.427,1.237-.568,1.72-.4a6.567,6.567,0,0,0-2.509,4.147,4.289,4.289,0,0,0,.15,3.273,3.15,3.15,0,0,0,2.182,1.308,2.514,2.514,0,0,0,2.063-.482,4.153,4.153,0,0,0,1.6-2.472l.952-.623A60.013,60.013,0,0,0,38.164,33.7c.845.815,4.688,4.51,5.612,5.55a1.285,1.285,0,0,1,.035,1.973Zm.862-3.662c-1.552-1.617-5.25-5.159-5.423-5.327a.912.912,0,0,0-.4-.222c-2.673-.7-8.78-4.037-8.837-4.073a.905.905,0,0,0-.931.036L27.343,29.12a.905.905,0,0,0-.4.679,2.34,2.34,0,0,1-.92,1.613.778.778,0,0,1-.638.181c-.529-.131-.86-.228-1-.467-.111-.181-.253-.678.053-1.9.6-2.389,1.391-2.9,2.973-3.9l.388-.248c1.97-1.267,2.821-1.3,3.628-.94,1.347.606,6.4,2.549,6.608,2.631a.912.912,0,0,0,.606.015l3.454-1.132,4.465,11.076Zm4.435.661L42.961,22.977l5.591-2,6.036,15.149Zm-20.9-23.262V9.7a.905.905,0,0,1,1.81,0v5.269a.905.905,0,0,1-1.81,0Zm-11.243,0a.905.905,0,1,1,1.152-1.4l4.064,3.356a.905.905,0,0,1-1.153,1.4ZM35.922,18.2a.905.905,0,0,1,.121-1.274l4.064-3.355a.905.905,0,1,1,1.152,1.4L37.2,18.32a.905.905,0,0,1-1.274-.121Z" transform="translate(-1.548 -8.79)"/></g></g></svg>