<svg xmlns="http://www.w3.org/2000/svg" width="20.809" height="21.62" viewBox="0 0 20.809 21.62"><defs><style>.a{fill:#300e8f;}</style></defs><path class="a" d="M11.837,24.4a1.317,1.317,0,0,0-1.317,1.317V37.242a1.317,1.317,0,0,0,1.317,1.317h3.815a1.317,1.317,0,0,0,1.317-1.225l.817.49a5.006,5.006,0,0,0,2.574.714h5.567a4.861,4.861,0,0,0,1.96-.39,2.873,2.873,0,0,0,1.926-3.1,2.9,2.9,0,0,0,.856-3.219,2.877,2.877,0,0,0,.659-1.9,2.761,2.761,0,0,0-.54-1.5,2.416,2.416,0,0,0-.6-2.761q-.082-.076-.171-.145A2.505,2.505,0,0,0,29,25.075h-.029a19.764,19.764,0,0,0-4.65-.4,6.237,6.237,0,0,1,.458-2.806,4.171,4.171,0,0,0-.126-3.58,2.974,2.974,0,0,0-2.126-1.354h-.082a1.394,1.394,0,0,0-1.357.985.664.664,0,0,0-.021.095l-.2,1.423a4.242,4.242,0,0,1-.369,1.233l-1.921,4.034a2.263,2.263,0,0,1-1.612,1.317v-.314A1.317,1.317,0,0,0,15.652,24.4Zm0,12.846V25.713h3.815V37.242Zm5.269-9.89a3.565,3.565,0,0,0,2.661-2.108l1.9-4.023a5.554,5.554,0,0,0,.482-1.618l.2-1.33a.071.071,0,0,1,.034-.018,1.673,1.673,0,0,1,1.136.732,3,3,0,0,1,0,2.474,7.174,7.174,0,0,0-.474,3.612,1.191,1.191,0,0,0,1.17.927h0a18.991,18.991,0,0,1,4.479.366h.026a1.212,1.212,0,0,1,.487.205l.084.071a1.186,1.186,0,0,1,.158,1.533.659.659,0,0,0,.116.846,1.562,1.562,0,0,1,.445.964,1.81,1.81,0,0,1-.593,1.283.659.659,0,0,0-.087.79,1.649,1.649,0,0,1-.635,2.213.669.669,0,0,0-.232.748c.071.211.35,1.291-1.1,1.926a3.554,3.554,0,0,1-1.449.274H20.35a3.688,3.688,0,0,1-1.894-.527l-1.486-.89V27.372Z" transform="translate(-10.52 -16.939)"/></svg>