<svg width="64" height="35" viewBox="0 0 64 35" fill="none" xmlns="http://www.w3.org/2000/svg">
<path d="M5.35767 13.8242L37.8673 9.99019L39.3601 21.6039L6.85044 25.4379L5.35767 13.8242Z" fill="#000091"/>
<path d="M0 6.7373L21.8188 4.1641L23.0274 13.5668L1.20857 16.14L0 6.7373Z" fill="#000091"/>
<path d="M3.04272 10.7847C3.01824 10.5267 3.01824 10.3157 3.09168 10.1046C3.16512 9.91702 3.26305 9.72943 3.40993 9.58873C3.55682 9.44803 3.72818 9.33078 3.94851 9.23698C4.16884 9.14318 4.38916 9.09628 4.65845 9.04939C4.9767 9.00249 5.27047 9.02594 5.53976 9.09628C5.80905 9.16663 6.02938 9.28388 6.20075 9.44803C6.32315 9.23698 6.519 9.07283 6.73932 8.95559C6.95965 8.81489 7.25342 8.74454 7.57167 8.69764C7.81648 8.67419 8.06129 8.67419 8.3061 8.69764C8.52643 8.74454 8.74675 8.81489 8.91812 8.90869C9.08949 9.02594 9.23637 9.16663 9.35878 9.33078C9.48118 9.49493 9.55462 9.72943 9.5791 9.96392L9.89735 12.473L8.59987 12.6137L8.33058 10.4564C8.3061 10.1984 8.20818 10.0108 8.08577 9.91702C7.96337 9.82322 7.792 9.77632 7.59615 9.79977C7.37583 9.82322 7.22894 9.91702 7.10654 10.0577C6.98413 10.1984 6.95965 10.4329 6.98413 10.7143L7.25342 12.7544L5.95594 12.8951L5.68665 10.855C5.63769 10.5736 5.56424 10.3626 5.41736 10.2453C5.27047 10.1281 5.09911 10.0812 4.87878 10.1046C4.68293 10.1281 4.53605 10.1984 4.41364 10.3391C4.31572 10.4564 4.29124 10.6674 4.31572 10.9254L4.58501 13.0827L3.28753 13.2234L3.04272 10.7847ZM10.387 10.4798C10.338 10.175 10.3625 9.89357 10.4604 9.63563C10.5339 9.37768 10.6807 9.14318 10.8521 8.93214C11.0235 8.72109 11.2438 8.55694 11.5131 8.41624C11.7824 8.27555 12.0517 8.18175 12.3699 8.1583C12.6882 8.1114 12.9819 8.13485 13.2757 8.2052C13.5695 8.27555 13.8143 8.39279 14.0591 8.55694C14.2794 8.72109 14.4753 8.90869 14.6222 9.14318C14.769 9.37768 14.867 9.63563 14.8914 9.94047C14.9404 10.2453 14.9159 10.5267 14.818 10.7847C14.7446 11.0426 14.5977 11.2771 14.4263 11.4882C14.2549 11.6992 14.0346 11.8633 13.7653 12.004C13.496 12.1447 13.2267 12.2385 12.9085 12.262C12.5902 12.3089 12.2965 12.2854 12.0027 12.2151C11.7089 12.1447 11.4641 12.0275 11.2193 11.8633C10.999 11.6992 10.8031 11.5116 10.6563 11.2771C10.5339 11.0426 10.4359 10.7612 10.387 10.4798ZM12.7861 11.1599C12.9085 11.1364 13.0309 11.113 13.1533 11.0426C13.2512 10.9723 13.3492 10.9019 13.4226 10.8081C13.496 10.7143 13.545 10.5971 13.5695 10.4798C13.594 10.3626 13.6184 10.2219 13.594 10.0812C13.5695 9.96392 13.5205 9.82322 13.4716 9.72943C13.4226 9.61218 13.3247 9.51838 13.2267 9.44803C13.1288 9.37768 13.0309 9.30733 12.9085 9.28388C12.7861 9.26043 12.6637 9.23698 12.5168 9.26043C12.3699 9.28388 12.2475 9.30733 12.1496 9.37768C12.0517 9.44803 11.9537 9.51838 11.8803 9.61218C11.8069 9.70598 11.7579 9.82322 11.7334 9.94047C11.7089 10.0577 11.7089 10.1984 11.7089 10.3391C11.7334 10.4798 11.7579 10.5971 11.8313 10.7143C11.8803 10.8316 11.9782 10.9254 12.0761 10.9957C12.1741 11.0661 12.272 11.1364 12.3944 11.1599C12.5168 11.1599 12.6392 11.1833 12.7861 11.1599ZM15.4545 9.44803C15.43 9.19008 15.4545 8.93214 15.5279 8.72109C15.6014 8.51004 15.7238 8.32245 15.8952 8.1583C16.0665 7.99415 16.2624 7.8769 16.5072 7.75965C16.752 7.66585 16.9968 7.59551 17.2906 7.54861C17.5599 7.52516 17.8291 7.52516 18.0984 7.57206C18.3677 7.61896 18.5881 7.6893 18.7839 7.80655C18.9797 7.9238 19.1511 8.08795 19.298 8.27555C19.4204 8.46314 19.5183 8.69764 19.5428 8.95559L19.8366 11.3475L18.5391 11.4882L18.2698 9.40113C18.2453 9.11973 18.1474 8.93214 18.0005 8.81489C17.8536 8.69764 17.6578 8.65074 17.413 8.67419C16.9234 8.74454 16.703 9.02594 16.752 9.56528L17.0213 11.6523L15.7238 11.793L15.4545 9.44803ZM9.5791 20.399C9.62806 20.4225 9.72599 20.4694 9.84839 20.5163C9.9708 20.5632 10.1177 20.5866 10.3135 20.6101C10.4849 20.6335 10.6807 20.657 10.9011 20.657C11.1214 20.657 11.3417 20.657 11.5865 20.6335C11.8558 20.6101 12.0517 20.5632 12.1986 20.4928C12.321 20.4225 12.3944 20.3287 12.3699 20.2114C12.3454 20.0942 12.2965 20.0004 12.1741 19.9769C12.0517 19.9535 11.8558 19.93 11.611 19.93H11.0969C10.8276 19.93 10.5828 19.9066 10.338 19.8831C10.0932 19.8597 9.87287 19.7893 9.67703 19.6955C9.48118 19.6017 9.30981 19.461 9.18741 19.2969C9.065 19.1327 8.96708 18.8982 8.9426 18.6169C8.91812 18.3824 8.91812 18.1713 8.99156 17.9603C9.06501 17.7492 9.16293 17.5616 9.33429 17.3975C9.50566 17.2333 9.72599 17.0692 10.0198 16.9519C10.3135 16.8347 10.6563 16.7409 11.0724 16.694C11.4886 16.6471 11.8558 16.6236 12.1496 16.6471C12.4678 16.6705 12.7127 16.7174 12.9575 16.7878C13.0799 16.8347 13.2023 16.905 13.3002 16.9754C13.3981 17.0692 13.4471 17.163 13.4471 17.3037C13.4716 17.3975 13.4471 17.4913 13.4226 17.5851C13.3981 17.6789 13.3492 17.7492 13.3002 17.7961C13.2512 17.8665 13.2023 17.9134 13.1533 17.9368C13.1043 17.9837 13.0799 18.0072 13.0554 18.0072C13.0309 17.9837 12.9819 17.9603 12.884 17.9134C12.7861 17.8665 12.6637 17.843 12.5168 17.8196C12.3699 17.7961 12.1741 17.7727 11.9782 17.7492C11.7579 17.7258 11.5376 17.7492 11.2683 17.7727C10.9745 17.7961 10.7787 17.8665 10.6563 17.9368C10.5583 18.0072 10.5094 18.101 10.5094 18.2182C10.5339 18.3355 10.5828 18.4058 10.7052 18.4293C10.8276 18.4527 10.9745 18.4762 11.1948 18.4762L12.1006 18.4996C12.321 18.4996 12.5413 18.5231 12.7616 18.57C12.9819 18.6169 13.1778 18.6637 13.3492 18.7575C13.5205 18.8513 13.6674 18.992 13.7898 19.1562C13.9122 19.3203 13.9857 19.5314 14.0101 19.7893C14.0836 20.3287 13.9122 20.7508 13.545 21.1025C13.1533 21.4543 12.5902 21.6653 11.8558 21.7591C11.4641 21.806 11.1214 21.8295 10.8031 21.806C10.4849 21.7826 10.2401 21.7591 9.99528 21.7122C9.77495 21.6653 9.5791 21.6184 9.43222 21.5715C9.28533 21.5246 9.18741 21.4777 9.13845 21.4308L9.5791 20.399ZM14.157 15.6856C14.1325 15.4511 14.1815 15.2635 14.3284 15.1463C14.4753 15.0291 14.6711 14.9587 14.9159 14.9118C15.0873 14.8884 15.2587 14.8884 15.4055 14.9118C15.5524 14.9353 15.6504 14.9587 15.6993 14.9587L15.8707 16.2484L16.9968 16.1077C17.2906 16.0608 17.5109 16.1077 17.6578 16.2015C17.8047 16.2953 17.8781 16.4595 17.9026 16.694C17.9271 16.8581 17.9271 17.0223 17.8781 17.163C17.8536 17.3037 17.8047 17.4209 17.8047 17.4678L16.042 17.6789L16.2379 19.1562C16.2624 19.2969 16.2869 19.4141 16.3603 19.4845C16.4093 19.5548 16.4827 19.6252 16.5561 19.6721C16.6296 19.719 16.7275 19.7424 16.801 19.7424H17.0702C17.2661 19.719 17.413 19.6721 17.5599 19.6017C17.7067 19.5314 17.8047 19.461 17.8781 19.4376L18.637 20.399C18.5881 20.4459 18.5146 20.5163 18.3922 20.6101C18.2943 20.6804 18.1719 20.7742 18.0005 20.8446C17.8536 20.9149 17.6823 20.9853 17.4864 21.0556C17.2906 21.126 17.0947 21.1729 16.8744 21.1963C16.2624 21.2667 15.7483 21.1729 15.3566 20.8915C14.9649 20.6101 14.7446 20.2114 14.6711 19.6955L14.157 15.6856ZM23.9249 20.1645C23.8759 20.188 23.8025 20.2114 23.6556 20.2349C23.5087 20.2583 23.3373 20.3052 23.1415 20.3521C22.9456 20.399 22.7008 20.4459 22.4315 20.4928C22.1623 20.5397 21.893 20.5866 21.5992 20.6101C21.1096 20.6804 20.6689 20.6804 20.3262 20.6335C19.9835 20.5866 19.7142 20.4928 19.4938 20.3756C19.2735 20.2583 19.1266 20.0942 19.0042 19.93C18.9063 19.7424 18.8329 19.5548 18.8084 19.3438C18.7349 18.7575 18.8818 18.3355 19.2246 18.0306C19.5918 17.7258 20.1793 17.5382 21.0361 17.4444C21.2565 17.4209 21.4278 17.3975 21.5747 17.3975C21.7216 17.3975 21.844 17.374 21.9174 17.374C21.893 17.163 21.7706 16.9988 21.5747 16.8816C21.3789 16.7878 21.0606 16.7409 20.62 16.8112C20.4241 16.8347 20.2283 16.8581 20.0814 16.905C19.9345 16.9519 19.8121 16.9988 19.6897 17.0223C19.5918 17.0692 19.4938 17.1161 19.4449 17.1395C19.3714 17.1864 19.347 17.2099 19.3225 17.2333C19.298 17.2333 19.2735 17.2099 19.2246 17.163C19.1756 17.1395 19.1266 17.0926 19.0777 17.0223C19.0287 16.9754 18.9797 16.905 18.9308 16.8347C18.8818 16.7643 18.8573 16.694 18.8573 16.6002C18.7839 16.0608 19.347 15.7091 20.522 15.5684C20.9137 15.5215 21.2565 15.5215 21.6237 15.5449C21.9664 15.5684 22.2847 15.6622 22.5539 15.7794C22.8232 15.9201 23.0436 16.1077 23.2149 16.3422C23.3863 16.6002 23.5087 16.905 23.5577 17.3037L23.9249 20.1645ZM22.0888 18.3824C22.0154 18.3824 21.9419 18.3824 21.8195 18.3824C21.6971 18.3824 21.5258 18.4058 21.3054 18.4293C21.1096 18.4527 20.9382 18.4762 20.8158 18.5231C20.6934 18.57 20.5955 18.6169 20.5465 18.6872C20.4731 18.7575 20.4486 18.8044 20.4241 18.8982C20.3996 18.9686 20.3996 19.0389 20.4241 19.1093C20.4241 19.1562 20.4486 19.2265 20.4731 19.2969C20.4976 19.3672 20.5465 19.4141 20.62 19.461C20.6934 19.5079 20.7913 19.5314 20.9382 19.5548C21.0851 19.5783 21.2565 19.5783 21.4768 19.5548C21.6482 19.5314 21.795 19.5079 21.9419 19.4845C22.0888 19.461 22.1867 19.4376 22.2357 19.4141L22.0888 18.3824ZM25.7609 20.4694C25.7854 20.4694 25.8344 20.4928 25.9323 20.5163C26.0302 20.5397 26.1282 20.5632 26.275 20.5866C26.4219 20.6101 26.5688 20.6101 26.7647 20.6335C26.9605 20.6335 27.1563 20.6335 27.3522 20.6101C27.5725 20.5866 27.7439 20.5397 27.9397 20.4694C28.1111 20.399 28.258 20.3052 28.3804 20.188C28.5028 20.0707 28.5762 19.93 28.6252 19.7659C28.6742 19.6017 28.6986 19.3907 28.6497 19.1562L28.6252 19.0624C28.6007 19.1093 28.5518 19.1562 28.4783 19.2031C28.4049 19.2734 28.3069 19.3438 28.209 19.4141C28.0866 19.4845 27.9642 19.5548 27.7929 19.6252C27.646 19.6955 27.4501 19.7424 27.2543 19.7659C26.8871 19.8128 26.5688 19.7893 26.2506 19.719C25.9323 19.6486 25.663 19.5314 25.4182 19.3438C25.1734 19.1562 24.9776 18.9451 24.8062 18.6637C24.6593 18.3824 24.5369 18.0541 24.4879 17.6789C24.439 17.3037 24.4635 16.9519 24.5614 16.6471C24.6593 16.3188 24.8062 16.0374 25.0265 15.7794C25.2468 15.5215 25.5161 15.3339 25.8344 15.1697C26.1526 15.0056 26.5198 14.9118 26.936 14.8415C27.4012 14.7946 27.8173 14.818 28.2335 14.9353C28.6497 15.0525 28.9924 15.2635 29.2862 15.5449C29.482 15.7325 29.6289 15.9436 29.7268 16.2015C29.8492 16.4595 29.9227 16.8112 29.9716 17.2099L30.143 18.6169C30.2165 19.1093 30.192 19.5314 30.094 19.9066C29.9961 20.2818 29.8248 20.5866 29.6044 20.868C29.3841 21.126 29.0903 21.337 28.7476 21.4777C28.4049 21.6419 28.0377 21.7357 27.6215 21.7826C27.3277 21.806 27.0584 21.8295 26.8136 21.8295C26.5688 21.8295 26.3485 21.806 26.1526 21.7826C25.9568 21.7591 25.8099 21.7357 25.663 21.6888C25.5406 21.6653 25.4427 21.6184 25.4182 21.6184L25.7609 20.4694ZM26.1526 17.4444C26.2016 17.7961 26.3485 18.0541 26.5688 18.2182C26.8136 18.3824 27.0829 18.4293 27.4256 18.3824C27.7439 18.3355 28.0132 18.2182 28.1845 17.9837C28.3804 17.7727 28.4538 17.4913 28.4049 17.163C28.3559 16.8347 28.2335 16.6002 27.9887 16.4126C27.7439 16.225 27.4746 16.1546 27.1319 16.2015C26.9605 16.225 26.8136 16.2719 26.6912 16.3422C26.5688 16.4126 26.4464 16.5064 26.373 16.6236C26.275 16.7409 26.2261 16.8581 26.1771 16.9988C26.1282 17.163 26.1282 17.3037 26.1526 17.4444ZM32.5421 17.374C32.5666 17.4444 32.6156 17.5147 32.6645 17.5851C32.738 17.6554 32.8114 17.7023 32.9338 17.7492C33.0317 17.7961 33.1786 17.843 33.35 17.8665C33.5214 17.8899 33.7172 17.8899 33.9375 17.8665C34.1089 17.843 34.2803 17.8196 34.4272 17.7727C34.574 17.7258 34.6964 17.6789 34.8189 17.632C34.9168 17.5851 35.0147 17.5382 35.0881 17.5147C35.1616 17.4678 35.1861 17.4444 35.2105 17.4444L35.896 18.4293C35.847 18.4762 35.7736 18.5231 35.6512 18.5934C35.5288 18.6637 35.3819 18.7341 35.2105 18.8279C35.0392 18.8982 34.8189 18.992 34.574 19.0624C34.3292 19.1327 34.0599 19.1796 33.7662 19.2265C33.399 19.2734 33.0317 19.25 32.7135 19.1796C32.3708 19.1093 32.077 18.9686 31.8077 18.781C31.5384 18.5934 31.3181 18.3589 31.1467 18.0541C30.9754 17.7492 30.853 17.3975 30.804 16.9988C30.755 16.6236 30.7795 16.2719 30.8774 15.9436C30.9754 15.6153 31.1222 15.3104 31.3426 15.076C31.5629 14.818 31.8322 14.6304 32.126 14.4663C32.4442 14.3021 32.7869 14.2083 33.1786 14.1614C33.5458 14.1145 33.8641 14.138 34.1579 14.1849C34.4516 14.2318 34.6964 14.349 34.9168 14.4663C35.1371 14.607 35.3085 14.7711 35.4309 14.9587C35.5533 15.1463 35.6267 15.3573 35.6757 15.5684C35.7002 15.8029 35.7002 16.0139 35.6267 16.225C35.5533 16.4126 35.4309 16.6002 35.235 16.7409C35.0392 16.905 34.7454 17.0223 34.3782 17.1395C34.011 17.2568 33.5214 17.3506 32.9338 17.4209L32.5421 17.374ZM32.3463 16.4126C32.7869 16.3657 33.1297 16.2953 33.3745 16.2484C33.6193 16.1781 33.7907 16.1312 33.9131 16.0608C34.0355 15.9905 34.0844 15.9201 34.1089 15.8732C34.1334 15.8029 34.1334 15.7325 34.1334 15.6856C34.1089 15.5449 34.0355 15.4511 33.8886 15.3573C33.7417 15.2635 33.5458 15.2401 33.301 15.287C33.1297 15.3104 32.9828 15.3573 32.8359 15.4277C32.7135 15.498 32.6156 15.5918 32.5421 15.7091C32.4687 15.8029 32.4197 15.9201 32.3708 16.0608C32.3463 16.1546 32.3218 16.2719 32.3463 16.4126Z" fill="#E0E6E8"/>
<path d="M20.0814 28.1611C20.1304 28.4894 20.1304 28.7942 20.0814 29.0522C20.0325 29.3101 19.959 29.5211 19.8611 29.7087C19.6897 29.9901 19.4449 30.2246 19.1267 30.4122C18.8084 30.5998 18.4657 30.6936 18.074 30.7405C17.7557 30.7874 17.4375 30.764 17.1437 30.6936C16.8499 30.6233 16.5807 30.506 16.3603 30.3419C16.14 30.1777 15.9442 29.9667 15.7973 29.7322C15.6504 29.4742 15.5525 29.1928 15.5035 28.888C15.4545 28.5597 15.479 28.2783 15.5525 27.9969C15.6259 27.7155 15.7483 27.481 15.8952 27.27C16.0666 27.0589 16.2624 26.8948 16.4827 26.7541C16.7275 26.6134 16.9724 26.543 17.2661 26.4961C17.5844 26.4492 17.8292 26.4727 18.0495 26.543C18.2698 26.6134 18.4167 26.7072 18.5391 26.7775L18.3433 25.2064C18.3188 24.9954 18.3678 24.8547 18.4657 24.7374C18.5881 24.6436 18.735 24.5733 18.9553 24.5498C19.1022 24.5264 19.2491 24.5264 19.3715 24.5498C19.4939 24.5733 19.5673 24.5733 19.6163 24.5967L20.0814 28.1611ZM17.9761 29.568C18.2454 29.5446 18.4657 29.4273 18.637 29.2397C18.7839 29.0522 18.8574 28.8177 18.8084 28.5128C18.7839 28.3721 18.7595 28.2549 18.686 28.1376C18.6126 28.0204 18.5391 27.9266 18.4412 27.8562C18.3433 27.7859 18.2454 27.7155 18.1229 27.6921C18.0005 27.6452 17.8781 27.6452 17.7313 27.6686C17.462 27.6921 17.2416 27.8093 17.0948 28.0204C16.9479 28.2314 16.8744 28.4659 16.9234 28.7473C16.9723 29.0287 17.0703 29.2632 17.2906 29.4039C17.462 29.5446 17.7068 29.6149 17.9761 29.568ZM22.2357 28.6301C22.2602 28.7004 22.2847 28.7473 22.3581 28.8177C22.4071 28.8646 22.4805 28.9115 22.5785 28.9584C22.6764 29.0053 22.7743 29.0287 22.9212 29.0522C23.0681 29.0756 23.215 29.0756 23.4108 29.0522C23.5577 29.0287 23.6801 29.0053 23.8025 28.9584C23.9249 28.9115 24.0228 28.888 24.1208 28.8411C24.2187 28.7942 24.2921 28.7708 24.3411 28.7239C24.39 28.7004 24.439 28.677 24.439 28.6535L25.0265 29.4977C24.9776 29.5211 24.9286 29.568 24.8307 29.6384C24.7328 29.7087 24.6104 29.7556 24.4635 29.826C24.3166 29.8963 24.1452 29.9432 23.9494 30.0136C23.7535 30.0605 23.5332 30.1074 23.2639 30.1543C22.9457 30.2012 22.6519 30.1777 22.3826 30.1074C22.0888 30.037 21.844 29.9432 21.6237 29.7791C21.4034 29.6149 21.2075 29.4273 21.0607 29.1694C20.9138 28.9115 20.8158 28.6301 20.7669 28.2783C20.7179 27.95 20.7424 27.6686 20.8403 27.3872C20.9138 27.1058 21.0607 26.8713 21.232 26.6603C21.4034 26.4492 21.6237 26.2851 21.893 26.1444C22.1623 26.0037 22.4561 25.9333 22.7743 25.8864C23.0681 25.8395 23.3374 25.863 23.5822 25.9099C23.827 25.9568 24.0473 26.0506 24.2187 26.1444C24.39 26.2616 24.5369 26.4023 24.6593 26.543C24.7573 26.7072 24.8307 26.8713 24.8552 27.0589C24.8797 27.2465 24.8797 27.4341 24.8062 27.5983C24.7573 27.7624 24.6349 27.9031 24.4635 28.0438C24.2921 28.1845 24.0473 28.2783 23.7535 28.3721C23.4353 28.4659 23.0436 28.5363 22.554 28.6066L22.2357 28.6301ZM22.0644 27.8093C22.4316 27.7624 22.7253 27.7155 22.9212 27.6686C23.117 27.6217 23.2639 27.5748 23.3619 27.5045C23.4598 27.4576 23.5087 27.3872 23.5332 27.3403C23.5577 27.2934 23.5577 27.2231 23.5577 27.1762C23.5332 27.0589 23.4843 26.9651 23.3619 26.8948C23.2394 26.8244 23.0926 26.801 22.8722 26.8244C22.7253 26.8479 22.6029 26.8713 22.505 26.9417C22.4071 27.012 22.3092 27.0824 22.2602 27.1762C22.1868 27.27 22.1623 27.3638 22.1378 27.481C22.0644 27.5983 22.0644 27.7155 22.0644 27.8093Z" fill="#000091"/>
<path d="M54.7707 7.78365C54.7707 7.12705 54.9176 6.37666 55.2113 5.55593C55.3827 5.11038 55.5785 4.66484 55.7989 4.24274C55.1379 3.32821 54.2321 2.60127 53.057 2.06193C51.8819 1.54603 50.5844 1.28809 49.1401 1.28809C47.3775 1.28809 45.6393 1.66328 43.9501 2.43712C42.261 3.18751 40.89 4.19585 39.8374 5.41523C38.7847 6.63461 38.2461 7.87744 38.2461 9.12028C38.2461 10.199 38.7602 11.2776 39.7884 12.3329C40.5228 13.0598 41.1348 13.435 41.6245 13.435C41.8203 13.435 41.9427 13.3881 42.0651 13.2709C42.163 13.1771 42.261 12.9426 42.3589 12.5674C42.6527 11.5356 43.1178 10.4804 43.7298 9.40167C44.3418 8.32299 45.0028 7.45535 45.6638 6.77531C46.3493 6.09527 46.9123 5.74352 47.353 5.74352C47.916 5.74352 48.1853 6.40011 48.1853 7.68985C48.1853 8.90923 47.8426 10.1052 47.1571 11.3245C46.4717 12.5205 45.5169 13.6461 44.2929 14.6544C43.485 15.311 43.0688 15.8034 43.0688 16.1317C43.0688 16.4131 43.1668 16.6476 43.3626 16.7649C43.5584 16.9056 43.9012 16.9994 44.3663 17.0697C46.8144 17.5387 48.0384 18.8753 48.0384 21.1031C48.0384 22.1348 47.7202 23.2135 47.1082 24.386C46.4961 25.5585 45.6638 26.6606 44.6111 27.6924C43.8033 28.5132 42.9709 29.1463 42.1386 29.6387C41.3062 30.1312 40.5963 30.3891 40.0577 30.3891H39.9108C39.4212 29.5684 39.1764 28.5601 39.1764 27.411C39.1764 26.2385 39.3477 25.0895 39.715 24.0108C40.0822 22.9321 40.5963 22.0176 41.2572 21.2907L41.4531 21.1031C41.5021 21.0562 41.5755 20.9858 41.6245 20.9389C42.1386 20.5168 42.4078 20.212 42.4078 20.0478C42.4078 19.6023 42.0896 19.3912 41.4776 19.3912C39.9842 19.3912 38.4909 19.8133 37.0221 20.6341C35.5287 21.4783 34.3292 22.5335 33.3744 23.8467C32.4441 25.1599 31.979 26.473 31.979 27.7862C31.979 29.7091 32.6645 31.3271 34.0599 32.5934C35.4553 33.8831 37.1934 34.5163 39.2988 34.5163C41.5021 34.5163 43.7788 33.93 46.1779 32.781C48.5525 31.632 50.7558 30.0139 52.7877 27.9504C53.718 27.0124 54.5259 26.0744 55.1868 25.113C55.8478 24.175 56.3619 23.237 56.7291 22.3459C57.0964 21.4548 57.2677 20.6341 57.2677 19.8837C57.2677 18.2891 56.6557 17.0228 55.4561 16.1317C54.2566 15.2406 52.4695 14.7247 50.0704 14.6075V14.5137C51.5637 13.904 52.8367 13.2943 53.8404 12.6143C54.8686 11.9342 55.6275 11.1135 56.1171 10.1755C55.9213 10.0583 55.7254 9.94102 55.5541 9.77687C55.0644 9.33132 54.7707 8.65128 54.7707 7.78365Z" fill="#000091"/>
<path d="M63.5349 6.93909C63.339 6.82184 63.1187 6.77494 62.8984 6.77494C62.727 6.77494 62.3598 6.96254 61.8457 7.33773C60.9399 7.97087 60.2055 8.29917 59.6424 8.29917C59.1283 8.29917 58.8346 8.08812 58.7611 7.64258C58.9325 7.71293 59.1039 7.75983 59.2752 7.75983C59.6424 7.75983 60.0831 7.61913 60.5727 7.33773C61.0623 7.05634 61.5764 6.68114 62.0905 6.1887C62.727 5.60246 63.1922 4.99277 63.5104 4.35962C63.8287 3.72648 64 3.11679 64 2.53055C64 1.78016 63.8042 1.19392 63.388 0.771825C62.9473 0.326281 62.3843 0.115234 61.6988 0.115234C60.7196 0.115234 59.6914 0.44353 58.6387 1.12357C57.7819 1.68636 57.0475 2.38985 56.4599 3.23404C56.2396 3.56234 56.0193 3.89063 55.8479 4.24238C55.8479 4.26583 55.8724 4.26583 55.8724 4.28928C56.5334 5.22726 56.8516 6.30595 56.8516 7.47843C56.8516 8.48677 56.6313 9.4013 56.2151 10.222C56.6802 10.48 57.2433 10.5972 57.9043 10.5972C58.2715 10.5972 58.7122 10.5269 59.2018 10.3862C59.6914 10.2455 60.1565 10.0579 60.6461 9.8234C61.1358 9.5889 61.6254 9.28406 62.1395 8.90886C62.6536 8.53367 63.1187 8.18192 63.5104 7.78328C63.7307 7.57223 63.8287 7.40808 63.8287 7.26738C63.8287 7.17359 63.7307 7.05634 63.5349 6.93909ZM58.6387 6.63424C58.6387 6.1887 58.7366 5.67281 58.908 5.06312C59.1039 4.45342 59.3242 3.84373 59.618 3.23404C60.1076 2.2257 60.4748 1.70981 60.7196 1.70981C60.891 1.70981 60.9889 1.89741 60.9889 2.29605C60.9889 2.71815 60.9399 3.18714 60.842 3.67958C60.7441 4.17203 60.5972 4.61757 60.4258 5.01622C60.2055 5.62591 59.8872 6.16525 59.4955 6.63424C59.3242 6.86874 59.0549 7.07979 58.7122 7.31428C58.6632 6.98599 58.6387 6.77494 58.6387 6.63424Z" fill="#000091"/>
</svg>
