<svg xmlns="http://www.w3.org/2000/svg" width="77.653" height="54.637" viewBox="0 0 77.653 54.637"><defs><style>.a{fill:#110091;stroke:#286198;}</style></defs><g transform="translate(-46.458 -110.878)"><path class="a" d="M49.809,8a6.383,6.383,0,0,0-6.383,6.383h0a6.383,6.383,0,0,0-10.213,5.106V40.362a11.489,11.489,0,0,0-5.17-3.638,3.728,3.728,0,0,0-3.421.5A3.83,3.83,0,0,0,23,40.349V62.894A26.6,26.6,0,0,0,33.723,84.341,1.277,1.277,0,1,0,35.255,82.3a24.07,24.07,0,0,1-9.7-19.4V40.349a1.277,1.277,0,0,1,.549-1.072,1.2,1.2,0,0,1,1.1-.166,8.936,8.936,0,0,1,6.006,8.464V57.788a1.277,1.277,0,0,0,1.277,1.277A21.785,21.785,0,0,1,53.281,69.915a1.277,1.277,0,0,0,2.209-1.277,24.358,24.358,0,0,0-19.724-12.1V19.489a3.83,3.83,0,1,1,7.66,0V48.111c-.945.14-1.915.3-2.821.5a1.277,1.277,0,0,0,.53,2.5,44.982,44.982,0,0,1,9.313-.983A44.419,44.419,0,0,1,64.215,52.3a1.277,1.277,0,0,0,.913.383h.147c1.066.377,2.126.779,3.192,1.238a1.277,1.277,0,0,0,1.028-2.336c-1.009-.447-2.036-.843-3.07-1.213V32.255a3.83,3.83,0,1,1,7.66,0V62.894c0,7.468-.268,15.134-3.472,19.692A1.277,1.277,0,0,0,72.7,84.054c3.638-5.164,3.938-13.283,3.938-21.16V32.255a6.383,6.383,0,0,0-10.213-5.106v-7.66a6.383,6.383,0,0,0-10.213-5.106h0A6.383,6.383,0,0,0,49.809,8Zm-3.83,39.8V14.383a3.83,3.83,0,1,1,7.66,0V47.7c-1.06-.07-2.119-.121-3.192-.121C48.96,47.575,47.466,47.658,45.979,47.8ZM60.021,15.66a3.83,3.83,0,0,1,3.83,3.83V49.522a46.635,46.635,0,0,0-7.66-1.589V19.489A3.83,3.83,0,0,1,60.021,15.66Z" transform="translate(131.611 88.378) rotate(90)"/></g></svg>