<svg xmlns="http://www.w3.org/2000/svg" width="112.904" height="112.904" viewBox="0 0 112.904 112.904"><defs><style>.a{fill:#110091;}</style></defs><g transform="translate(44.66 98.749) rotate(-135)"><g transform="translate(-14.202 4.083)"><path class="a" d="M65.139,32.768a13.332,13.332,0,0,1-1.438,3.6c-2.565,4.44-11.807,9.127-16.562,11.4L32.079,62.826c-1.292,1.293-6.239-3.362-1.305-8.3q3.894-3.874,7.834-7.7c2.856-2.783,5.652-5.5,7.25-7.1,2.513-2.513,2.35-6.344-3.25-4.072C35.845,38.4,19.795,46.274,15.759,52.14,11.53,58.294,10.343,65.364,7.3,71.9c-1.474,3.168-4.866,4.881-3.766-.156.4-1.836.8-5.134,1.257-8.87C7.132,43.6,6.89,40.8,25.444,32.518c11.772-5.252,17.318-9.829,23.419-16.025ZM46.51,14.14c-5.807,5.89-11.2,10.3-22.438,15.317C4.36,38.248,3.954,42,1.463,62.463,1.021,66.1.63,69.307.254,71.026c-1.81,8.3,6.54,9.9,10.076,2.292q.2-.421.389-.872c4.509,2.91,7.519-1.028,9.179-4.9,3.424,2.385,6.33.912,8.314-2.379,1.88,1.469,4.415,1.87,6.246.041L49.114,50.547c1.934-.9,14.167-6.737,17.493-12.495a16.628,16.628,0,0,0,1.217-2.6L69.1,36.731a1.681,1.681,0,0,0,2.377,0l.032-.031,9.934-9.934L79.066,24.39l-8.775,8.776L48.278,11.153l8.776-8.776L54.676,0,44.712,9.964a1.682,1.682,0,0,0,0,2.378l.031.031Zm-25.4,50.082c1.4-4.364,3.956-13.463,4.677-16.037,1.743-1.105,3.653-2.224,5.6-3.3-.508,1.792-1.16,4.086-1.715,6.007L28.4,52.154c-2.732,2.732-4.063,6.43-2.427,10.1-1.219,2.6-2.321,4.26-4.856,1.965ZM35.487,42.677c1.9-.988,3.791-1.982,5.666-3.015q-3.3,3.253-6.631,6.478C34.845,45,35.2,43.828,35.487,42.677ZM11.978,69.21c1.8-4.939,3.593-10.879,6.538-15.168a8.656,8.656,0,0,1,.982-1.136,21.886,21.886,0,0,1,1.966-1.714c-.526,1.851-3.233,13.145-5.877,17.3C14.52,70.176,13.668,70.582,11.978,69.21Z" transform="translate(-4.95 -4.95)"/></g></g></svg>