<svg xmlns="http://www.w3.org/2000/svg" width="68.091" height="85.4" viewBox="0 0 68.091 85.4"><defs><style>.a{fill:#110091;}</style></defs><g transform="translate(-72.569 27.17)"><g transform="translate(179.66 -41.609) rotate(90)"><path class="a" d="M17.669,81.238c4.127-4.369,10.924-5.1,14.565-4.976l15.415,1.092V48.1a7.874,7.874,0,0,1,7.889-7.889,7.792,7.792,0,0,1,5.583,2.306A7.988,7.988,0,0,1,67.675,39a7.7,7.7,0,0,1,6.554,3.52,7.792,7.792,0,0,1,5.583-2.306,7.937,7.937,0,0,1,7.04,4.248,7.5,7.5,0,0,1,5.1-1.821,7.874,7.874,0,0,1,7.889,7.889V69.586c0,15.9-2.67,22.7-4.612,27.673-1.092,2.913-1.942,4.976-1.942,7.889a1.821,1.821,0,1,1-3.641,0c0-3.641.971-6.19,2.185-9.224,1.821-4.491,4.127-10.56,4.369-24.154a8.183,8.183,0,0,1-4.127,1.214,7.882,7.882,0,0,1-6.19-3.034,8.051,8.051,0,0,1-5.947,2.67,8.259,8.259,0,0,1-5.947-2.67,7.882,7.882,0,0,1-6.19,3.034,7.7,7.7,0,0,1-6.19-3.034,7.635,7.635,0,0,1-5.947,2.67,8.276,8.276,0,0,1-4.248-1.214V77.6c5.947.728,7.889,2.549,8.253,2.913a1.8,1.8,0,0,1-2.67,2.427S55.295,81.36,49.469,81L32.234,79.782c-2.427,0-8.618.364-11.773,3.884a8.765,8.765,0,0,0-2.185,6.19H33.447a.73.73,0,0,1,.485.121l9.1,2.427c.121,0,.121,0,.243.121.486.121,11.045,4.491,13.23,12.137a1.923,1.923,0,0,1-1.214,2.306c-.121,0-.364.121-.486.121a1.786,1.786,0,0,1-1.7-1.335c-1.578-5.583-10.074-9.346-11.045-9.71l-9.1-2.427H16.334a1.845,1.845,0,0,1-1.821-1.7C14.149,87.55,15.12,83.909,17.669,81.238ZM87.459,65.1a4.3,4.3,0,0,0,4.248,4.248,4.126,4.126,0,0,0,4.127-3.884V50.531a4.248,4.248,0,1,0-8.5,0V65.1Zm-7.768,3.884a4.3,4.3,0,0,0,4.248-4.248V48.1a4.248,4.248,0,1,0-8.5,0V65.338A4.217,4.217,0,0,0,79.691,68.979Zm-12.137.243A4.3,4.3,0,0,0,71.8,64.974V46.889a4.248,4.248,0,1,0-8.5,0V65.581A4.292,4.292,0,0,0,67.554,69.222Zm-12.137-.243a4.3,4.3,0,0,0,4.248-4.248V48.1a4.248,4.248,0,0,0-8.5,0V65.46A4.3,4.3,0,0,0,55.416,68.979Z"/></g></g></svg>