<svg width="75" height="52" viewBox="0 0 75 52" fill="none" xmlns="http://www.w3.org/2000/svg">
<path fill-rule="evenodd" clip-rule="evenodd" d="M19.8484 51.9999C23.3848 51.9999 26.5093 50.9528 29.2221 48.8587C31.935 46.7646 34.0664 43.9175 35.6166 40.3175C37.1668 36.7175 37.9419 32.6116 37.9419 27.9999C37.9419 23.0587 37.2274 18.7881 35.7983 15.1881C34.3692 11.5881 32.2983 8.82341 29.5855 6.894C26.8727 4.96458 23.627 3.99988 19.8484 3.99988C16.3121 3.99988 13.1875 5.04694 10.4747 7.14105C7.7619 9.23517 5.64252 12.0822 4.11657 15.6822C2.59061 19.2822 1.82764 23.3881 1.82764 27.9999C1.82764 32.9411 2.54217 37.2116 3.97124 40.8116C5.40031 44.4116 7.45913 47.1763 10.1477 49.1058C12.8363 51.0352 16.0699 51.9999 19.8484 51.9999ZM21.0837 48.5411C19.1944 48.5411 17.6685 47.5058 16.5059 45.4352C15.3432 43.3646 14.4955 40.5999 13.9626 37.1411C13.4297 33.6822 13.1633 29.8587 13.1633 25.6705C13.1633 20.1175 13.6356 15.6822 14.5803 12.3646C15.5249 9.04694 16.9661 7.38811 18.9038 7.38811C20.7931 7.38811 22.2948 8.42341 23.409 10.494C24.5232 12.5646 25.3346 15.3175 25.8432 18.7528C26.3519 22.1881 26.6062 25.9999 26.6062 30.1881C26.6062 33.7646 26.4125 36.9293 26.0249 39.6822C25.6374 42.4352 25.0318 44.5999 24.2083 46.1763C23.3848 47.7528 22.3432 48.5411 21.0837 48.5411ZM74.7101 51.294V50.1646L68.5336 47.694V4.70576H63.9558L45.8623 15.294V18.1175L57.9246 12.8234V47.694L51.0215 50.1646V51.294H74.7101Z" fill="#F2F2F9"/>
<path fill-rule="evenodd" clip-rule="evenodd" d="M18.0207 0.541626C21.6787 0.541626 24.8236 1.4689 27.451 3.33752C30.084 5.21023 32.0884 7.89758 33.475 11.3904C34.8815 14.9336 35.5799 19.1375 35.5799 24C35.5799 28.53 34.8222 32.5642 33.2993 36.1009C31.7887 39.609 29.715 42.3867 27.0708 44.4278C24.4517 46.4496 21.4345 47.4583 18.0207 47.4583C14.3641 47.4583 11.2317 46.5317 8.62867 44.6637C6.01868 42.7907 4.02589 40.1029 2.63915 36.6095C1.23264 33.0663 0.53418 28.8624 0.53418 24C0.53418 19.4688 1.28024 15.4337 2.7797 11.8962C4.2662 8.38927 6.32737 5.61255 8.97064 3.57211C11.5898 1.55029 14.607 0.541626 18.0207 0.541626ZM17.0761 2.84653C15.9576 2.84653 14.9756 3.31365 14.141 4.27427C13.3797 5.15059 12.7389 6.4597 12.2393 8.21443C11.284 11.5695 10.8013 16.0543 10.8013 21.6705C10.8013 25.8893 11.0703 29.7407 11.6071 33.2247C12.152 36.7619 13.0252 39.5864 14.2139 41.7032C14.8422 42.8223 15.5736 43.6559 16.3975 44.2148C17.249 44.7925 18.2015 45.0828 19.256 45.0828C20.002 45.0828 20.6842 44.8511 21.3014 44.384C21.8763 43.9489 22.3975 43.3014 22.8527 42.43C23.6988 40.8103 24.3278 38.5883 24.7261 35.7588C25.1168 32.9837 25.3128 29.7935 25.3128 26.1882C25.3128 21.9705 25.0561 18.1319 24.5439 14.6725C24.024 11.1614 23.1887 8.35036 22.0503 6.23465C21.4465 5.1127 20.7326 4.2771 19.9197 3.71674C19.0802 3.13795 18.1327 2.84653 17.0761 2.84653ZM66.1717 1.24751V44.0627L72.3482 46.5333L49.728 46.7524L56.6312 44.0773V7.99877L44.5689 13.2929V11.6069L62.2712 1.24751H66.1717Z" stroke="#000091"/>
</svg>
