<svg width="77" height="53" viewBox="0 0 77 53" fill="none" xmlns="http://www.w3.org/2000/svg">
<path fill-rule="evenodd" clip-rule="evenodd" d="M21.2303 52.1338C24.6019 52.1338 27.5809 51.0841 30.1674 48.9847C32.7538 46.8852 34.786 44.0309 36.264 40.4217C37.742 36.8125 38.481 32.6962 38.481 28.0727C38.481 23.1189 37.7997 18.8374 36.4372 15.2282C35.0747 11.6191 33.1002 8.8473 30.5138 6.91297C27.9273 4.97864 24.8328 4.01147 21.2303 4.01147C17.8586 4.01147 14.8796 5.0612 12.2931 7.16066C9.70669 9.26011 7.68602 12.1144 6.23115 15.7236C4.77627 19.3328 4.04883 23.4491 4.04883 28.0727C4.04883 33.0264 4.73008 37.3079 6.09259 40.9171C7.45509 44.5263 9.41802 47.298 11.9814 49.2323C14.5447 51.1667 17.6277 52.1338 21.2303 52.1338ZM22.408 48.6662C20.6067 48.6662 19.1519 47.6283 18.0434 45.5524C16.9349 43.4765 16.1266 40.7048 15.6186 37.2371C15.1105 33.7695 14.8565 29.9362 14.8565 25.7373C14.8565 20.1702 15.3068 15.7236 16.2075 12.3975C17.1081 9.0714 18.4821 7.40835 20.3296 7.40835C22.1309 7.40835 23.5627 8.44628 24.625 10.5221C25.6873 12.598 26.4609 15.358 26.9458 18.802C27.4308 22.2461 27.6733 26.0676 27.6733 30.2665C27.6733 33.8521 27.4885 37.0248 27.119 39.7848C26.7496 42.5447 26.1722 44.715 25.387 46.2955C24.6019 47.876 23.6089 48.6662 22.408 48.6662ZM76.2385 51.4262L76.9313 36.4233H75.8228L71.8046 43.5001H53.4454C57.1865 40.292 60.3388 37.532 62.9021 35.2202C65.4655 32.9085 67.5554 30.8916 69.172 29.1696C70.7885 27.4475 72.0355 25.9142 72.9131 24.5696C73.7906 23.225 74.4026 21.9158 74.749 20.642C75.0954 19.3682 75.2686 18 75.2686 16.5374C75.2686 14.2257 74.6797 12.1144 73.502 10.2037C72.3242 8.29295 70.673 6.78323 68.5484 5.67453C66.4239 4.56583 63.976 4.01147 61.2048 4.01147C58.3412 4.01147 56.0319 4.38891 54.2768 5.14377C52.5217 5.89863 50.7435 6.96015 48.9422 8.32833C47.0024 9.7437 45.6168 11.1473 44.7854 12.539C43.9541 13.9308 43.5384 15.3108 43.5384 16.679C43.5384 18 43.7693 18.8256 44.2312 19.1559C44.6931 19.4861 45.3859 19.6512 46.3096 19.6512H51.0206L51.5056 19.0143V15.6882C51.5056 13.0934 52.0714 11.0883 53.2029 9.67293C54.3345 8.25757 56.0088 7.54988 58.2257 7.54988C60.3041 7.54988 61.8514 8.32833 62.8675 9.88523C63.8836 11.4421 64.3916 13.3529 64.3916 15.6175C64.3916 17.6933 64.2877 19.5215 64.0799 21.102C63.872 22.6825 63.4102 24.263 62.6943 25.8435C61.9784 27.4239 60.893 29.2049 59.4381 31.1865C57.9833 33.168 56.0319 35.5623 53.584 38.3694C51.1361 41.1766 48.0416 44.656 44.3005 48.8077V51.4262H76.2385Z" fill="#F2F2F9"/>
<path fill-rule="evenodd" clip-rule="evenodd" d="M17.1814 0.54364C20.6595 0.54364 23.65 1.47114 26.1483 3.3395C28.6583 5.21669 30.5678 7.91091 31.8895 11.4119C33.2314 14.9664 33.8978 19.1837 33.8978 24.0618C33.8978 28.6067 33.1749 32.654 31.7219 36.2022C30.2818 39.7187 28.3058 42.5034 25.7851 44.5494C23.2951 46.5706 20.4269 47.5799 17.1814 47.5799C13.7045 47.5799 10.726 46.6532 8.25094 44.7855C5.7629 42.908 3.86435 40.2132 2.54248 36.7117C1.20061 33.1572 0.53418 28.9399 0.53418 24.0618C0.53418 19.5159 1.24599 15.4676 2.67661 11.9186C4.09365 8.40331 6.05776 5.61952 8.57762 3.57413C11.0676 1.55298 13.9358 0.54364 17.1814 0.54364ZM16.2807 2.85442C15.2054 2.85442 14.2588 3.32319 13.4555 4.29551C12.7302 5.17331 12.1194 6.48489 11.6435 8.24252C10.7331 11.6046 10.2734 16.0987 10.2734 21.7264C10.2734 25.9546 10.5297 29.8145 11.0413 33.3063C11.5604 36.8499 12.3925 39.6798 13.5249 41.8006C14.1247 42.9239 14.8237 43.7604 15.6101 44.3214C16.4289 44.9056 17.3451 45.1984 18.3591 45.1984C19.079 45.1984 19.738 44.9645 20.3338 44.4902C20.8825 44.0536 21.3806 43.4039 21.815 42.5294C22.621 40.907 23.2201 38.6811 23.5995 35.8471C23.9718 33.066 24.1586 29.8688 24.1586 26.2556C24.1586 22.0285 23.914 18.1814 23.4258 14.7142C22.9305 11.1967 22.1347 8.38029 21.05 6.26067C20.4738 5.13455 19.7915 4.29617 19.0157 3.73379C18.2082 3.14843 17.2969 2.85442 16.2807 2.85442ZM57.1559 0.54364C59.8342 0.54364 62.2015 1.07488 64.2555 2.14675C66.2895 3.20817 67.8725 4.65143 69.0003 6.48114C70.1245 8.3049 70.6854 10.3203 70.6854 12.5266C70.6854 13.9375 70.5193 15.2575 70.1851 16.4864C69.8523 17.7103 69.2619 18.967 68.419 20.2586C67.5555 21.5816 66.3271 23.0894 64.7365 24.7838C63.1283 26.497 61.0488 28.5033 58.4987 30.8032C55.6863 33.3395 52.1643 36.4158 47.9328 40.0323H68.0642L72.0824 32.9555L71.6798 46.8723H40.7858V45.0079L41.202 44.5457C44.6969 40.6629 47.6079 37.3873 49.9349 34.7188C52.3947 31.8979 54.3554 29.4916 55.8174 27.5004C57.2986 25.483 58.4018 23.6687 59.1307 22.0597C59.87 20.4275 60.3459 18.7951 60.5605 17.1631C60.7711 15.5618 60.877 13.7097 60.877 11.6066C60.877 9.22131 60.3331 7.21259 59.2638 5.57415C58.1502 3.86793 56.4617 2.99596 54.1768 2.99596C51.7679 2.99596 49.9644 3.78737 48.7394 5.31957C47.5434 6.81552 46.9224 8.92813 46.9224 11.6773V14.8179L42.2694 15.0973C41.3715 15.0674 40.846 14.9556 40.4897 14.7008C40.1106 14.4298 40.0237 13.6959 40.0237 12.6681C40.0237 11.3918 40.4184 10.107 41.1932 8.81C41.9945 7.46852 43.3363 6.12199 45.2131 4.75246C46.9769 3.41277 48.7174 2.37218 50.4361 1.633C52.1384 0.900826 54.3798 0.54364 57.1559 0.54364Z" stroke="#000091"/>
</svg>
