<svg width="68" height="51" viewBox="0 0 68 51" fill="none" xmlns="http://www.w3.org/2000/svg">
<path d="M4.488 42.9424L4.49008 42.9457C7.23339 47.3789 11.1424 49.6226 16.1716 49.6226C19.284 49.6226 22.0148 48.5347 24.3422 46.3753L24.3425 46.375C26.696 44.1873 28.5292 41.2604 29.8554 37.6168L29.8561 37.6148C31.1841 33.9183 31.8432 29.7314 31.8432 25.0613C31.8432 17.5566 30.5073 11.5799 27.7844 7.17866C25.0876 2.74385 21.2007 0.5 16.1716 0.5C13.057 0.5 10.3041 1.61298 7.93282 3.81646C5.57609 5.95927 3.7427 8.88879 2.41716 12.5785L2.41714 12.5785L2.41593 12.582C1.13523 16.2309 0.5 20.3932 0.5 25.0613C0.5 32.5658 1.81257 38.5417 4.488 42.9424ZM23.5132 36.7042L23.5132 36.7042L23.5119 36.7103C22.9599 39.4574 22.1622 41.582 21.1394 43.1125C20.1334 44.6177 18.9681 45.2964 17.6398 45.2964C16.0477 45.2964 14.6674 44.8193 13.4777 43.8669C12.2807 42.9086 11.2521 41.4489 10.4114 39.449C8.76836 35.3818 7.9322 29.8174 7.9322 22.7259C7.9322 19.215 8.2329 16.0907 8.82966 13.3493C9.42743 10.6032 10.2703 8.47866 11.3381 6.94748C12.3879 5.44206 13.6007 4.75535 14.9831 4.75535C16.5249 4.75535 17.8558 5.23003 18.9983 6.17916C20.1495 7.13555 21.1336 8.59456 21.9294 10.5969L21.9294 10.5969L21.9312 10.6014C23.5743 14.6205 24.411 20.1613 24.411 27.2551C24.411 30.7658 24.1104 33.9144 23.5132 36.7042ZM56.4108 22.9612C58.752 22.0775 60.6849 20.8174 62.1947 19.1717L62.1947 19.1717L62.1987 19.1673C64.087 17.0599 65.053 14.7271 65.053 12.1814C65.053 10.0116 64.467 8.02981 63.2953 6.249C62.173 4.4727 60.6142 3.0711 58.6328 2.04341C56.6866 1.00972 54.4606 0.5 51.9682 0.5C49.9701 0.5 48.2107 0.764383 46.7 1.30624C45.2589 1.79294 43.7348 2.54206 42.1283 3.54608C40.3611 4.61023 39.0174 5.81296 38.1269 7.16491L38.1268 7.16481L38.1199 7.17583C37.2915 8.50761 36.8559 9.8248 36.8559 11.1199C36.8559 11.6893 36.9103 12.186 37.0352 12.5934C37.16 13.0004 37.3685 13.3592 37.7055 13.5866L37.7154 13.5933L37.7256 13.5995C38.3076 13.953 39.1161 14.0968 40.0826 14.0968H43.0191H43.228L43.3748 13.9482L43.9341 13.382L44.0784 13.236V13.0306V10.483C44.0784 8.71947 44.6602 7.35148 45.8005 6.32549L45.8006 6.32556L45.808 6.31861C46.9567 5.24199 48.4807 4.68458 50.4301 4.68458C52.6587 4.68458 54.3047 5.33505 55.4456 6.57536L55.4516 6.58192L55.4579 6.58827C56.6282 7.77286 57.2712 9.76019 57.2712 12.6768C57.2712 15.7075 56.2287 18.0344 54.1688 19.7203C52.1307 21.3794 49.5226 22.2259 46.3051 22.2259H44.4174H43.9174V22.7259V25.8397V26.3397H44.4174H48.5424C52.8802 26.3397 55.725 27.2789 57.2577 29.0027L57.2577 29.0027L57.2619 29.0074C58.8339 30.7311 59.6483 33.1221 59.6483 36.2427C59.6483 39.0208 58.8638 41.2283 57.3315 42.9123C55.8146 44.5793 53.6775 45.438 50.8496 45.438C47.9084 45.438 45.8499 44.9232 44.5799 43.9828C43.2828 42.9748 42.6801 41.8149 42.6801 40.4888V38.1534V37.9481L42.5358 37.802L42.0464 37.3067L41.8996 37.1581H41.6907H38.4746C37.6037 37.1581 36.8623 37.3007 36.3232 37.6575C35.9847 37.8552 35.7702 38.1825 35.6418 38.5578C35.5123 38.9364 35.4576 39.3982 35.4576 39.9227C35.4576 42.1392 36.9158 44.2496 39.5684 46.2638C42.4724 48.5166 46.2002 49.6226 50.7097 49.6226C53.7626 49.6226 56.5438 48.9945 59.0437 47.7297C61.5751 46.4725 63.6191 44.821 65.1622 42.771C66.7139 40.7095 67.5 38.4588 67.5 36.0304C67.5 32.5664 66.4115 29.613 64.2241 27.2022C62.3682 25.1566 59.7502 23.7529 56.4108 22.9612Z" stroke="#000091"/>
</svg>
