<svg width="69" height="53" viewBox="0 0 69 53" fill="none" xmlns="http://www.w3.org/2000/svg">
<path d="M18.1716 52.1326C13.3242 52.1326 9.57203 49.9859 6.91525 45.6926C4.30508 41.3993 3 35.5255 3 28.0712C3 23.4476 3.62924 19.343 4.88771 15.7574C6.1928 12.1246 7.98729 9.27025 10.2712 7.19436C12.5551 5.0713 15.1886 4.00977 18.1716 4.00977C23.0191 4.00977 26.7479 6.15642 29.3581 10.4497C32.0148 14.743 33.3432 20.6168 33.3432 28.0712C33.3432 32.6947 32.6907 36.8229 31.3856 40.4557C30.0805 44.0413 28.286 46.8957 26.0021 49.0187C23.7648 51.0946 21.1547 52.1326 18.1716 52.1326ZM19.6398 48.8064C21.178 48.8064 22.4831 48.0044 23.5551 46.4003C24.6271 44.7962 25.4428 42.6024 26.0021 39.8188C26.6081 36.988 26.911 33.8034 26.911 30.265C26.911 23.1409 26.072 17.5266 24.3941 13.422C22.7627 9.31743 20.2924 7.26513 16.9831 7.26513C15.3983 7.26513 14.0466 8.06718 12.928 9.67127C11.8093 11.2754 10.947 13.4692 10.3411 16.2528C9.73517 19.0363 9.4322 22.1974 9.4322 25.7358C9.4322 32.8599 10.2712 38.4978 11.9492 42.6495C13.6737 46.7541 16.2373 48.8064 19.6398 48.8064Z" fill="#F2F2F9"/>
<path d="M52.7097 52.1326C48.2818 52.1326 44.6695 51.0474 41.8729 48.8772C39.2627 46.8957 37.9576 44.9141 37.9576 42.9326C37.9576 41.9419 38.1674 41.3285 38.5869 41.0926C39.0064 40.8096 39.6356 40.668 40.4746 40.668H43.6907L44.1801 41.1634V43.4988C44.1801 45.0085 44.8792 46.3059 46.2775 47.3911C47.6758 48.429 49.8665 48.948 52.8496 48.948C55.786 48.948 58.0699 48.0516 59.7013 46.2588C61.3326 44.4659 62.1483 42.1306 62.1483 39.2526C62.1483 36.0445 61.3093 33.5204 59.6314 31.6804C57.9534 29.7932 54.9237 28.8496 50.5424 28.8496H46.4174V25.7358H48.3051C51.6144 25.7358 54.3411 24.863 56.4852 23.1173C58.6758 21.3245 59.7712 18.8476 59.7712 15.6866C59.7712 12.7143 59.1186 10.5677 57.8136 9.24666C56.5551 7.87846 54.7606 7.19436 52.4301 7.19436C50.3792 7.19436 48.7246 7.7841 47.4661 8.96358C46.2076 10.0959 45.5784 11.6056 45.5784 13.4928V16.0405L45.0191 16.6066H42.0826C41.1504 16.6066 40.4513 16.4651 39.9852 16.182C39.5657 15.8989 39.3559 15.2148 39.3559 14.1297C39.3559 12.9502 39.7521 11.7236 40.5445 10.4497C41.3835 9.17589 42.6653 8.02 44.3898 6.98206C45.9746 5.99129 47.4661 5.26001 48.8644 4.78822C50.3093 4.26925 52.0106 4.00977 53.9682 4.00977C56.3919 4.00977 58.536 4.50515 60.4004 5.49591C62.3114 6.48667 63.803 7.83128 64.875 9.52973C65.9936 11.2282 66.553 13.1154 66.553 15.1912C66.553 17.5974 65.6441 19.8148 63.8263 21.8435C62.0085 23.825 59.5381 25.2404 56.4153 26.0896C60.6102 26.7501 63.7564 28.2363 65.8538 30.5481C67.9513 32.8599 69 35.6906 69 39.0403C69 41.3521 68.2542 43.4988 66.7627 45.4803C65.2712 47.4618 63.2903 49.0659 60.8199 50.2926C58.3962 51.5192 55.6928 52.1326 52.7097 52.1326Z" fill="#F2F2F9"/>
<path d="M4.488 42.9424L4.49008 42.9457C7.23339 47.3789 11.1424 49.6226 16.1716 49.6226C19.284 49.6226 22.0148 48.5347 24.3422 46.3753L24.3425 46.375C26.696 44.1873 28.5292 41.2604 29.8554 37.6168L29.8561 37.6148C31.1841 33.9183 31.8432 29.7314 31.8432 25.0613C31.8432 17.5566 30.5073 11.5799 27.7844 7.17866C25.0876 2.74385 21.2007 0.5 16.1716 0.5C13.057 0.5 10.3041 1.61298 7.93282 3.81646C5.57609 5.95927 3.7427 8.88879 2.41716 12.5785L2.41714 12.5785L2.41593 12.582C1.13523 16.2309 0.5 20.3932 0.5 25.0613C0.5 32.5658 1.81257 38.5417 4.488 42.9424ZM23.5132 36.7042L23.5132 36.7042L23.5119 36.7103C22.9599 39.4574 22.1622 41.582 21.1394 43.1125C20.1334 44.6177 18.9681 45.2964 17.6398 45.2964C16.0477 45.2964 14.6674 44.8193 13.4777 43.8669C12.2807 42.9086 11.2521 41.4489 10.4114 39.449C8.76836 35.3818 7.9322 29.8174 7.9322 22.7259C7.9322 19.215 8.2329 16.0907 8.82966 13.3493C9.42743 10.6032 10.2703 8.47866 11.3381 6.94748C12.3879 5.44206 13.6007 4.75535 14.9831 4.75535C16.5249 4.75535 17.8558 5.23003 18.9983 6.17916C20.1495 7.13555 21.1336 8.59456 21.9294 10.5969L21.9294 10.5969L21.9312 10.6014C23.5743 14.6205 24.411 20.1613 24.411 27.2551C24.411 30.7658 24.1104 33.9144 23.5132 36.7042ZM56.4108 22.9612C58.752 22.0775 60.6849 20.8174 62.1947 19.1717L62.1947 19.1717L62.1987 19.1673C64.087 17.0599 65.053 14.7271 65.053 12.1814C65.053 10.0116 64.467 8.02981 63.2953 6.249C62.173 4.4727 60.6142 3.0711 58.6328 2.04341C56.6866 1.00972 54.4606 0.5 51.9682 0.5C49.9701 0.5 48.2107 0.764383 46.7 1.30624C45.2589 1.79294 43.7348 2.54206 42.1283 3.54608C40.3611 4.61023 39.0174 5.81296 38.1269 7.16491L38.1268 7.16481L38.1199 7.17583C37.2915 8.50761 36.8559 9.8248 36.8559 11.1199C36.8559 11.6893 36.9103 12.186 37.0352 12.5934C37.16 13.0004 37.3685 13.3592 37.7055 13.5866L37.7154 13.5933L37.7256 13.5995C38.3076 13.953 39.1161 14.0968 40.0826 14.0968H43.0191H43.228L43.3748 13.9482L43.9341 13.382L44.0784 13.236V13.0306V10.483C44.0784 8.71947 44.6602 7.35148 45.8005 6.32549L45.8006 6.32556L45.808 6.31861C46.9567 5.24199 48.4807 4.68458 50.4301 4.68458C52.6587 4.68458 54.3047 5.33505 55.4456 6.57536L55.4516 6.58192L55.4579 6.58827C56.6282 7.77286 57.2712 9.76019 57.2712 12.6768C57.2712 15.7075 56.2287 18.0344 54.1688 19.7203C52.1307 21.3794 49.5226 22.2259 46.3051 22.2259H44.4174H43.9174V22.7259V25.8397V26.3397H44.4174H48.5424C52.8802 26.3397 55.725 27.2789 57.2577 29.0027L57.2577 29.0027L57.2619 29.0074C58.8339 30.7311 59.6483 33.1221 59.6483 36.2427C59.6483 39.0208 58.8638 41.2283 57.3315 42.9123C55.8146 44.5793 53.6775 45.438 50.8496 45.438C47.9084 45.438 45.8499 44.9232 44.5799 43.9828C43.2828 42.9748 42.6801 41.8149 42.6801 40.4888V38.1534V37.9481L42.5358 37.802L42.0464 37.3067L41.8996 37.1581H41.6907H38.4746C37.6037 37.1581 36.8623 37.3007 36.3232 37.6575C35.9847 37.8552 35.7702 38.1825 35.6418 38.5578C35.5123 38.9364 35.4576 39.3982 35.4576 39.9227C35.4576 42.1392 36.9158 44.2496 39.5684 46.2638C42.4724 48.5166 46.2002 49.6226 50.7097 49.6226C53.7626 49.6226 56.5438 48.9945 59.0437 47.7297C61.5751 46.4725 63.6191 44.821 65.1622 42.771C66.7139 40.7095 67.5 38.4588 67.5 36.0304C67.5 32.5664 66.4115 29.613 64.2241 27.2022C62.3682 25.1566 59.7502 23.7529 56.4108 22.9612Z" stroke="#000091"/>
</svg>
