<svg width="70" height="51" viewBox="0 0 70 51" fill="none" xmlns="http://www.w3.org/2000/svg">
<path d="M4.55016 43.0811L4.55226 43.0844C7.33808 47.5319 11.3054 49.78 16.407 49.78C19.5638 49.78 22.3344 48.6901 24.6969 46.5246L24.6972 46.5243C27.0865 44.33 28.9482 41.3938 30.2952 37.7379L30.2959 37.7359C31.6446 34.0269 32.314 29.8258 32.314 25.14C32.314 17.61 30.9572 11.6132 28.1918 7.19733C25.4533 2.74814 21.5084 0.5 16.407 0.5C13.248 0.5 10.455 1.61506 8.04787 3.82484C5.65526 5.97403 3.79338 8.91287 2.4471 12.6151L2.44709 12.6151L2.44585 12.6186C1.14515 16.2798 0.5 20.4562 0.5 25.14C0.5 32.6697 1.8331 38.6658 4.55016 43.0811ZM23.8703 36.8201L23.8703 36.8201L23.869 36.8263C23.3086 39.582 22.4986 41.7133 21.4599 43.2488C20.4385 44.7587 19.2529 45.443 17.898 45.443C16.2779 45.443 14.8737 44.9632 13.6642 44.0066C12.4477 43.0444 11.403 41.5795 10.5494 39.5734C8.88109 35.4934 8.032 29.9113 8.032 22.797C8.032 19.2749 8.33734 16.1407 8.94329 13.3906C9.55024 10.636 10.4061 8.50461 11.4905 6.96834C12.5565 5.45815 13.7903 4.766 15.2 4.766C16.7691 4.766 18.1233 5.24341 19.2848 6.19674C20.4548 7.15699 21.4541 8.62118 22.2621 10.6296L22.2621 10.6296L22.264 10.6342C23.9323 14.666 24.782 20.2244 24.782 27.341C24.782 30.8629 24.4767 34.0216 23.8703 36.8201ZM47.36 48.57V49.07H47.86H65.965H66.465V48.57V47.434V47.125L66.1886 46.9868L60.785 44.285V35.367H68.734H69.234V34.867V30.11V29.61H68.734H60.785V1.71V1.21H60.285H58.865H58.6171L58.467 1.4073L34.327 33.1443L34.225 33.2785V33.447V34.867V35.367H34.725H53.75V44.2691L47.6569 46.9771L47.36 47.1091V47.434V48.57ZM53.75 14.24V29.61H42.4578L53.75 14.24Z" stroke="#000091"/>
</svg>
