<svg width="1000" height="1000" viewBox="0 0 1000 1000" fill="none" xmlns="http://www.w3.org/2000/svg">
<path fill-rule="evenodd" clip-rule="evenodd" d="M737.251 520.661C735.542 520.993 733.259 520.882 733.447 523.42C733.734 527.319 731.848 530.837 731.806 534.634C731.688 545.209 725.476 551.552 716.636 555.616C710.547 558.415 704.056 559.953 697.179 560.117C683.214 560.451 669.488 559.696 656.279 554.559C648.229 551.43 640.973 547.207 635.21 540.661C630.678 535.511 628.17 529.941 630.458 522.848C631.627 519.223 631.077 515.303 631.017 511.505C630.678 507.353 631.862 503.374 632.397 499.322C633.459 496.149 636.487 495.369 638.997 494.066C655.259 485.622 671.936 477.994 688.336 468.869C673.446 468.948 658.917 469.022 644.392 468.841C639.122 468.776 634.945 469.211 635.169 476.003C635.217 477.487 634.625 479.156 632.566 479.327C632.52 476.65 632.376 473.97 632.456 471.297C632.539 468.577 631.61 467.038 628.651 467.141C612.798 467.694 596.939 466.489 581.06 467.963C572.009 468.803 562.733 469.387 553.678 467.432C544.932 465.545 539.882 458.912 540.136 450.199C540.407 440.908 539.94 431.513 541.194 422.356C542.625 411.917 541.153 401.347 543.407 391.018C543.642 389.943 543.587 388.786 543.547 387.672C543.111 375.366 545.621 363.185 545.113 350.87C545.051 349.37 545.732 347.839 546.07 346.323C546.07 346.323 546.178 345.699 546.175 345.7C546.171 345.701 546.727 345.428 546.727 345.428C546.727 345.428 546.181 345.134 546.177 345.133C546.173 345.132 546.064 344.515 546.064 344.515C545.825 331.771 547.357 319.104 547.929 306.397C548.629 290.819 549.727 275.248 550.587 259.666C551.409 244.76 552.955 229.894 553.163 214.942C553.225 210.497 554.054 206.061 554.652 201.675C555.541 195.166 559.802 190.678 566.25 189.221C570.328 188.3 574.467 187.362 578.795 187.424C593.34 187.63 607.893 187.333 622.433 187.677C629.551 187.846 636.645 189.069 643.805 188.702C645.978 188.591 648.347 189.277 650.091 187.266C667.797 186.866 685.525 185.255 703.164 188.184C705.332 190.294 704.389 192.795 703.813 195.115C702.913 198.738 702.918 202.343 704.452 205.657C709.661 216.904 716.256 227.033 729.326 230.151C736.079 231.76 739.446 235.051 741.762 242.058C747.211 258.526 760.909 266.209 776.911 269.888C781.794 271.011 784.792 273.077 786.98 277.499C791.845 287.334 805.674 293.954 816.742 292.573C821.104 292.027 825.313 289.817 829.878 291.147C829.861 293.136 831.325 294.354 832.345 295.783C839.867 306.329 840.057 323.409 832.246 334.236C828.668 339.196 823.88 341.49 818.59 343.253C812.635 345.239 812.539 345.056 812.529 351.472C812.483 381.898 812.462 412.324 812.426 442.75C812.42 447.9 811.949 452.942 809.425 457.607C805.989 463.959 800.125 465.644 793.601 465.699C777.045 465.841 760.486 465.787 743.927 465.836C738.008 465.853 738.008 465.888 736.806 471.701C736.535 473.009 735.978 474.328 736.034 475.622C736.586 488.376 734.168 501.004 734.459 513.745C734.521 516.461 734.235 519.192 737.251 520.661Z" fill="#EDCEB4"/>
<path fill-rule="evenodd" clip-rule="evenodd" d="M417.299 292.208C417.67 293.717 418.292 295.215 418.376 296.741C419.851 323.808 417.146 350.349 407.852 375.972C399.337 399.452 386.838 420.428 368.216 437.406C365.079 440.267 361.826 443.031 358.406 445.54C356.215 447.148 355.234 448.809 355.277 451.637C355.485 465.29 355.446 478.946 355.494 492.6C360.282 503.81 357.591 511.592 347.443 517.221C325.451 529.419 302.415 528.863 278.939 523.107C271.98 521.401 265.162 519.202 258.616 516.198C253.708 513.947 251.293 510.399 252.325 504.969C255.239 489.654 253.333 474.185 253.887 458.806C257.202 455.588 258.928 459.127 260.634 460.732C269.555 469.125 279.988 474.623 292.009 476.49C311.165 479.468 328.14 475.184 340.901 459.553C346.514 452.677 348.632 444.523 348.233 435.673C347.927 428.886 346.396 427.592 339.883 430.128C327.538 434.938 314.852 434.68 302.118 433.049C286.902 431.102 276.275 421.444 266.428 410.746C259.978 403.738 257.491 403.841 252.666 412.108C245.941 423.631 246.141 435.477 251.357 447.567C252.372 449.919 255.714 452.605 251.802 455.417C229.832 444.264 213.082 427.556 200.149 406.814C191.932 393.636 185.616 379.579 181.267 364.68C180.224 361.108 178.931 360.22 174.828 360.285C158.911 360.539 143.01 354.258 135.895 339.073C130.374 327.291 132.348 316.394 140.133 306.465C147.593 296.947 157.931 292.53 169.677 290.996C171.175 290.801 172.887 291.266 173.907 289.615C175.465 286.791 178.17 287.502 180.491 287.73C194.466 289.108 208.591 288.759 222.408 292.042C231.687 294.247 233.47 293.183 237.554 284.409C251.051 255.411 260.554 225.312 262.129 193.091C262.261 190.401 262.298 187.618 265.376 186.319C275.573 185.214 285.71 183.669 295.966 182.98C319.418 181.402 342.789 180.71 365.868 186.403C378.068 198.713 385.59 213.768 391.308 229.863C396.096 243.336 399.853 257.161 401.842 271.264C403.289 281.534 405.918 289.792 417.299 292.208Z" fill="#D7A67D"/>
<path fill-rule="evenodd" clip-rule="evenodd" d="M829.877 291.146C819.235 295.313 808.783 295.617 798.09 290.791C791.562 287.844 786.724 283.745 784.568 276.925C783.565 273.748 781.951 272.525 778.508 272.032C766.648 270.333 756.505 264.893 748.136 256.311C743.362 251.413 739.822 245.665 738.851 238.837C738.349 235.304 736.78 233.804 733.524 233.151C730.911 232.627 728.355 231.755 725.833 230.87C718.862 228.424 713.229 224.255 709.399 217.824C708.371 216.098 707.387 214.327 706.172 212.737C700.783 205.683 699.915 198.171 703.648 190.122C703.31 181.184 708.676 174.874 714.651 169.752C726.155 159.893 739.284 154.367 754.666 160.469C758.34 161.927 761.108 160.64 764.068 159.049L763.978 159.112C764.595 158.905 764.952 158.311 765.544 158.068C777.767 145.708 792.485 140.211 809.434 144.645C821.881 147.902 831.301 155.789 834.875 168.933C835.525 171.324 836.648 172.716 838.742 173.875C855.949 183.385 865.031 198.345 867.044 217.578C868.044 227.144 865.375 235.923 857.599 242.198C853.902 245.182 852.535 248.36 852.964 253.049C854.076 265.192 849.78 275.334 840.98 283.771C837.674 286.941 833.88 289.144 829.877 291.146Z" fill="#6E4E3E"/>
<path fill-rule="evenodd" clip-rule="evenodd" d="M265.377 186.319C264.223 187.808 263.971 189.511 263.918 191.362C262.931 225.762 252.453 257.609 237.667 288.272C234.414 295.02 232.029 296.302 224.941 294.655C214.674 292.271 204.387 290.802 193.79 290.67C187.19 290.587 180.599 288.986 173.907 289.615C176.018 271.226 179.995 253.308 187.148 236.159C189.894 229.575 192.665 223.034 196.621 217.04C197.826 215.216 198.987 213.064 199.222 210.957C199.775 206.023 202.711 203.572 206.924 201.85C222.217 195.599 238.12 191.601 254.347 188.729C258.05 188.073 261.702 187.13 265.377 186.319Z" fill="#DADADB"/>
<path fill-rule="evenodd" clip-rule="evenodd" d="M764.069 159.049C760.367 164.073 760.367 164.073 754.654 162.053C739.164 156.571 721.5 162.392 711.39 175.657C707.96 180.159 705.707 185.024 703.649 190.124C701.878 188.075 699.48 188.928 697.359 188.904C683.951 188.753 670.541 188.734 657.132 188.635C654.715 188.618 652.168 189.097 650.091 187.266C652.115 179.138 655.19 171.596 661.426 165.637C670.027 157.418 680.084 154.307 691.631 157.254C696.495 158.495 699.505 157.585 703.041 153.617C715.869 139.219 737.448 137.677 752.838 149.524C756.724 152.515 760.333 155.864 764.069 159.049Z" fill="#93634B"/>
<path fill-rule="evenodd" clip-rule="evenodd" d="M417.299 292.208C405.257 291.471 402.986 289.5 401.218 277.843C398.87 262.36 395.128 247.215 390.259 232.346C385.631 218.216 379.095 205.052 369.89 193.312C368.211 191.171 366.733 188.982 365.869 186.401C383.924 191.871 394.022 205.041 399.773 222.069C404.318 235.524 408.575 249.09 412.427 262.757C415.129 272.344 417.325 282.12 417.299 292.208Z" fill="#DADADB"/>
<path fill-rule="evenodd" clip-rule="evenodd" d="M827.395 315.335C827.988 321.35 823.795 326.439 816.538 328.587C812.582 329.757 810.774 328.952 810.316 325.081C809.537 318.484 809.302 311.803 810.732 305.194C811.415 302.038 813.216 301.226 816.101 302.281C822.128 304.485 828.426 309.134 827.395 315.335Z" fill="#C8A180"/>
<path fill-rule="evenodd" clip-rule="evenodd" d="M173.843 342.167C173.619 342.156 173.396 342.152 173.173 342.131C166.57 341.497 158.024 330.964 157.72 323.086C157.433 315.632 162.863 309.065 170.648 307.451C174.575 306.637 175.803 307.936 176.666 312.375C178.292 320.739 177.365 329.283 178.8 337.655C179.346 340.84 177.537 342.259 173.843 342.167Z" fill="#8E6644"/>
<path fill-rule="evenodd" clip-rule="evenodd" d="M329.789 238.383C344.52 238.357 355.802 242.837 364.774 252.666C366.271 254.306 367.512 256.188 368.817 257.997C370.106 259.786 370.737 261.788 368.735 263.357C366.618 265.017 364.551 264.367 362.889 262.36C362.606 262.018 362.381 261.626 362.126 261.26C351.027 245.398 330.972 241.602 312.975 249.649C310.527 250.743 308.223 252.185 305.727 253.13C303.837 253.845 301.573 254.136 300.543 251.711C299.595 249.478 300.816 247.828 302.726 246.707C308.381 243.385 318.941 237.988 329.789 238.383Z" fill="#545459"/>
<path fill-rule="evenodd" clip-rule="evenodd" d="M321.899 222.501C321.058 223.326 320.023 223.697 318.87 223.694C311.479 223.668 304.245 224.896 297.016 226.263C295.329 226.581 293.478 226.979 291.789 225.941C294.653 223.701 307.315 221.286 316.499 221.216C318.093 222.511 320.375 220.915 321.899 222.501Z" fill="#947056"/>
<path fill-rule="evenodd" clip-rule="evenodd" d="M318.812 210.172C320.318 208.909 322.159 209.056 323.925 209.031C331.072 208.931 338.221 208.83 345.369 208.862C346.746 208.868 348.609 208.18 349.618 211.164C340.032 209.02 330.978 212.571 321.719 211.544C320.95 210.661 319.442 211.346 318.812 210.172Z" fill="#896A52"/>
<path fill-rule="evenodd" clip-rule="evenodd" d="M326.934 220.96C335.145 218.998 343.357 218.911 351.57 220.947C350.946 222.078 349.584 221.47 348.763 222.136C342.862 222.14 336.961 222.145 331.061 222.149C329.841 221.215 328.017 222.369 326.934 220.96Z" fill="#92614B"/>
<path fill-rule="evenodd" clip-rule="evenodd" d="M348.764 222.136C349.457 221.17 350.529 221.1 351.57 220.948C356.497 221.246 361.577 220.173 366.276 222.869C360.381 224.407 354.609 221.879 348.764 222.136Z" fill="#83604B"/>
<path fill-rule="evenodd" clip-rule="evenodd" d="M326.933 220.96C328.359 221.188 329.97 220.773 331.062 222.151C328.007 222.266 324.953 222.383 321.899 222.5C320.089 222.113 317.961 223.057 316.499 221.215C319.977 221.13 323.455 221.045 326.933 220.96Z" fill="#83604B"/>
<path fill-rule="evenodd" clip-rule="evenodd" d="M318.811 210.172C319.919 210.337 321.067 210.416 321.719 211.544C318.348 211.862 314.977 212.182 310.172 212.637C313.582 209.504 316.316 210.347 318.811 210.172Z" fill="#856851"/>
<mask id="mask0_4063_36202" style="mask-type:alpha" maskUnits="userSpaceOnUse" x="61" y="150" width="879" height="734">
<path d="M879.463 425.817C903.233 465.281 920.849 499.445 930.902 537.163C951.439 614.239 935.627 675.038 851.998 730.111C817.329 752.948 778.518 768.044 739.529 782.443C652.244 814.679 564.524 845.703 473.983 868.474C427.623 880.135 393.704 883.834 306.374 882.957C219.044 882.079 153.98 842.561 106.098 773.773C97.8461 761.917 91.057 749.096 83.7393 736.639C67.3477 708.74 60.4637 678.539 61.0333 646.627C61.6912 609.585 70.6996 574.503 86.3122 540.693C142.415 419.198 225.1 318.234 334.369 237.802C380.93 203.259 433.722 177.433 490.039 161.642C586.693 134.612 668.439 156.915 733.325 231.032C766.736 269.199 797.042 309.998 827.532 350.471C847.336 376.754 864.934 404.596 879.463 425.817Z" fill="white"/>
</mask>
<g mask="url(#mask0_4063_36202)">
<path d="M879.463 425.817C903.233 465.281 920.849 499.445 930.902 537.163C951.439 614.239 935.627 675.038 851.998 730.111C817.329 752.948 778.518 768.044 739.529 782.443C652.244 814.679 564.524 845.703 473.983 868.474C427.623 880.135 393.704 883.834 306.374 882.957C219.044 882.079 153.98 842.561 106.098 773.773C97.8461 761.917 91.057 749.096 83.7393 736.639C67.3477 708.74 60.4637 678.539 61.0333 646.627C61.6912 609.585 70.6996 574.503 86.3122 540.693C142.415 419.198 225.1 318.234 334.369 237.802C380.93 203.259 433.722 177.433 490.039 161.642C586.693 134.612 668.439 156.915 733.325 231.032C766.736 269.199 797.042 309.998 827.532 350.471C847.336 376.754 864.934 404.596 879.463 425.817Z" fill="#2351DF"/>
<path fill-rule="evenodd" clip-rule="evenodd" d="M737.175 520.415C757.025 522.111 776.872 523.821 796.724 525.488C800.518 525.808 804.342 525.806 808.125 526.213C814.903 526.941 817.441 529.275 819.254 535.85C822.001 545.802 823.136 556.042 824.342 566.231C827.445 592.454 829.254 618.768 828.852 645.205C828.645 658.825 828.822 672.454 828.472 686.069C827.935 706.863 825.79 727.545 823.941 748.255C821.952 770.526 818.379 792.594 816.226 814.852C813.69 841.082 810.454 867.286 804.513 893.038C801.248 907.196 799.494 906.526 787.365 906.427C758.235 906.192 729.096 906.495 699.977 905.818C652.929 904.726 605.869 905.388 558.827 904.473C534.407 903.998 509.993 903.658 485.573 903.806C481.559 903.829 478.796 901.998 476.06 899.623C476.822 895.886 479.981 896.63 482.427 896.425C486.652 896.071 490.933 896.659 495.143 896.065C501.254 895.203 502.909 892.019 501.068 886.134C494.649 865.605 492.45 844.258 489.164 823.13C488.735 820.368 488.579 817.282 490.87 814.902C493.353 803.298 494.428 791.48 496.161 779.763C498.875 761.403 501.361 743.008 503.787 724.607C505.393 712.416 507.082 700.216 508.074 687.967C508.961 677.012 511.262 666.297 512.784 655.458C514.556 642.848 516.205 630.22 517.922 617.603C520.481 598.779 522.988 579.947 525.489 561.115C527.372 546.934 529.089 532.731 531.115 518.57C532.29 510.355 539.725 504.019 547.834 504.529C561.019 505.359 574.176 506.642 587.345 507.72C601.854 508.908 616.364 510.081 630.874 511.261C633.864 515.085 632.792 519.405 631.996 523.479C630.709 530.072 632.873 535.194 637.323 539.922C648.668 551.972 663.487 556.248 679.075 557.431C690.088 558.267 701.396 559.234 712.292 555.024C722.571 551.052 729.437 544.746 730.129 533.123C730.314 530.005 731.052 526.933 731.554 523.843C732.084 520.583 733.751 519.02 737.175 520.415Z" fill="#FAB434"/>
<path fill-rule="evenodd" clip-rule="evenodd" d="M146.58 566.21C148.11 552.479 150.251 538.862 154.047 525.546C155.275 521.24 157.325 517.275 159.006 513.158C161.243 507.678 165.188 505.125 170.72 504.669C187.829 503.257 204.859 500.94 222.032 500.201C226.928 499.991 231.806 499.351 236.692 498.909C241.019 499.397 240.667 502.966 241.322 505.892C245.42 524.202 248.473 542.797 256.007 560.177C267.117 585.803 282.512 608.26 304.51 625.898C307.546 628.332 309.845 629.755 312.685 625.719C335.751 592.941 355.078 558.346 364.429 518.968C366.224 511.409 368.074 503.676 365.59 495.808C364.703 493.002 366.147 491.661 368.744 491.154C380.41 491.201 391.967 489.705 403.558 488.689C410.92 488.043 418.321 488.396 425.693 487.499C429.781 487.002 433.347 490.024 434.433 494.388C435.616 499.142 436.289 504.029 437.083 508.874C440.405 529.151 443.695 549.431 446.985 569.713C447.735 574.338 448.429 578.971 449.149 583.602C446.698 605.609 439.845 626.792 437.213 648.803C433.785 677.478 431.019 706.098 430.884 735.064C430.682 778.778 432.649 822.268 439.149 865.513C440.48 874.37 442.585 883.086 444.305 891.872C444.843 894.623 446.028 897.722 442.361 899.482C423.307 899.609 404.228 899.166 385.207 900.03C367.506 900.834 349.815 900.556 332.125 901.022C301.213 901.836 270.285 901.99 239.378 902.729C221.01 903.169 202.651 903.457 184.284 903.582C182.234 901.427 182.021 898.71 182.334 896.027C184.72 875.492 183.142 854.888 183.455 834.321C183.718 817.091 183.831 799.846 183.441 782.622C182.701 749.985 180.285 717.445 177.373 684.927C175.772 667.042 172.094 649.523 169.337 631.849C166.742 615.209 161.639 599.195 153.87 584.135C150.902 578.381 147.859 572.652 146.58 566.21Z" fill="#B3A294"/>
<path fill-rule="evenodd" clip-rule="evenodd" d="M737.174 520.415C735.465 520.747 733.18 520.636 733.368 523.174C733.656 527.072 731.768 530.589 731.727 534.384C731.608 544.956 725.393 551.297 716.547 555.36C710.454 558.158 703.959 559.696 697.077 559.86C683.103 560.193 669.369 559.438 656.152 554.303C648.097 551.175 640.837 546.954 635.07 540.409C630.535 535.261 628.025 529.692 630.315 522.601C631.485 518.977 630.934 515.058 630.874 511.261C630.535 507.11 631.719 503.133 632.255 499.083C633.318 495.91 636.348 495.13 638.859 493.828C655.131 485.386 671.819 477.76 688.229 468.638C673.33 468.717 658.792 468.791 644.258 468.61C638.984 468.545 634.805 468.98 635.028 475.77C635.076 477.253 634.484 478.922 632.424 479.093C632.378 476.417 632.234 473.737 632.314 471.065C632.397 468.346 631.468 466.807 628.507 466.911C612.643 467.463 596.775 466.258 580.886 467.732C571.829 468.572 562.548 469.156 553.486 467.202C544.736 465.315 539.682 458.684 539.936 449.973C540.207 440.685 539.74 431.293 540.995 422.138C542.427 411.702 540.954 401.135 543.209 390.81C543.445 389.735 543.389 388.578 543.35 387.464C542.913 375.162 545.424 362.985 544.916 350.673C544.854 349.173 545.536 347.643 545.874 346.128C545.874 346.128 545.982 345.504 545.979 345.505C545.975 345.506 546.532 345.232 546.532 345.232C546.532 345.232 545.985 344.939 545.981 344.938C545.977 344.936 545.868 344.32 545.868 344.32C545.629 331.58 547.162 318.917 547.734 306.213C548.435 290.639 549.533 275.073 550.393 259.496C551.217 244.594 552.763 229.732 552.972 214.785C553.033 210.341 553.863 205.906 554.461 201.521C555.351 195.014 559.614 190.527 566.067 189.071C570.147 188.15 574.289 187.213 578.62 187.274C593.174 187.48 607.736 187.183 622.285 187.527C629.408 187.696 636.506 188.919 643.67 188.552C645.845 188.441 648.215 189.127 649.96 187.116C667.677 186.717 685.416 185.106 703.067 188.034C705.235 190.144 704.292 192.644 703.716 194.963C702.815 198.585 702.82 202.189 704.355 205.502C709.567 216.746 716.167 226.872 729.245 229.989C736.002 231.598 739.371 234.888 741.689 241.892C747.141 258.356 760.848 266.036 776.859 269.715C781.745 270.837 784.746 272.903 786.935 277.323C791.803 287.155 805.641 293.774 816.716 292.393C821.08 291.848 825.292 289.638 829.86 290.967C829.843 292.956 831.308 294.173 832.328 295.603C839.855 306.145 840.045 323.22 832.23 334.044C828.649 339.002 823.858 341.296 818.565 343.058C812.606 345.044 812.509 344.861 812.5 351.275C812.454 381.692 812.433 412.109 812.397 442.526C812.391 447.675 811.92 452.716 809.394 457.38C805.956 463.729 800.088 465.414 793.561 465.469C776.994 465.611 760.424 465.557 743.855 465.606C737.932 465.623 737.932 465.658 736.73 471.47C736.458 472.777 735.901 474.095 735.957 475.389C736.509 488.139 734.09 500.763 734.381 513.501C734.443 516.216 734.157 518.946 737.174 520.415Z" fill="#EDCEB4"/>
<path fill-rule="evenodd" clip-rule="evenodd" d="M417.022 292.028C417.394 293.537 418.016 295.034 418.1 296.56C419.576 323.619 416.869 350.153 407.57 375.768C399.049 399.241 386.542 420.211 367.908 437.184C364.769 440.044 361.515 442.807 358.092 445.316C355.9 446.924 354.918 448.584 354.961 451.411C355.17 465.06 355.13 478.712 355.178 492.362C359.97 503.569 357.277 511.349 347.123 516.976C325.117 529.171 302.066 528.614 278.576 522.861C271.612 521.155 264.79 518.956 258.24 515.954C253.329 513.703 250.912 510.157 251.945 504.728C254.86 489.417 252.953 473.952 253.508 458.578C256.825 455.361 258.552 458.899 260.259 460.503C269.186 468.894 279.625 474.39 291.653 476.257C310.822 479.234 327.807 474.951 340.576 459.324C346.193 452.451 348.312 444.3 347.913 435.452C347.606 428.667 346.075 427.373 339.558 429.909C327.205 434.717 314.511 434.459 301.769 432.829C286.544 430.882 275.91 421.227 266.057 410.532C259.602 403.526 257.114 403.629 252.286 411.893C245.557 423.414 245.757 435.256 250.976 447.342C251.992 449.693 255.335 452.379 251.422 455.19C229.438 444.041 212.677 427.337 199.737 406.601C191.514 393.427 185.194 379.374 180.842 364.48C179.799 360.908 178.504 360.02 174.399 360.086C158.472 360.34 142.562 354.061 135.441 338.879C129.917 327.101 131.893 316.208 139.682 306.281C147.147 296.766 157.492 292.35 169.245 290.817C170.744 290.622 172.457 291.087 173.477 289.436C175.036 286.613 177.743 287.323 180.066 287.551C194.049 288.929 208.184 288.58 222.009 291.863C231.294 294.066 233.078 293.003 237.164 284.232C250.67 255.241 260.179 225.151 261.755 192.94C261.887 190.25 261.924 187.468 265.004 186.17C275.208 185.065 285.35 183.521 295.613 182.831C319.08 181.254 342.466 180.562 365.559 186.253C377.767 198.56 385.293 213.611 391.015 229.701C395.806 243.17 399.566 256.991 401.555 271.09C403.003 281.357 405.634 289.613 417.022 292.028Z" fill="#D7A67D"/>
<path fill-rule="evenodd" clip-rule="evenodd" d="M829.859 290.967C819.211 295.132 808.752 295.436 798.052 290.612C791.52 287.665 786.679 283.568 784.522 276.75C783.518 273.573 781.903 272.351 778.458 271.858C766.59 270.16 756.441 264.721 748.067 256.141C743.289 251.245 739.747 245.499 738.776 238.672C738.273 235.14 736.703 233.641 733.445 232.988C730.831 232.464 728.274 231.592 725.75 230.708C718.774 228.263 713.137 224.095 709.305 217.665C708.277 215.94 707.292 214.169 706.076 212.58C700.684 205.528 699.815 198.018 703.551 189.972C703.213 181.037 708.582 174.728 714.56 169.608C726.072 159.751 739.209 154.226 754.601 160.327C758.277 161.785 761.047 160.498 764.009 158.908L763.919 158.97C764.536 158.763 764.893 158.17 765.485 157.927C777.716 145.571 792.443 140.075 809.404 144.508C821.858 147.763 831.284 155.648 834.86 168.789C835.511 171.179 836.634 172.571 838.73 173.729C855.947 183.237 865.034 198.192 867.049 217.42C868.05 226.983 865.379 235.759 857.598 242.032C853.899 245.015 852.531 248.193 852.96 252.881C854.073 265.02 849.775 275.159 840.969 283.594C837.661 286.763 833.864 288.965 829.859 290.967Z" fill="#6E4E3E"/>
<path fill-rule="evenodd" clip-rule="evenodd" d="M443.063 895.141C439.617 880.828 436.911 866.365 434.998 851.774C433.724 842.054 432.876 832.278 431.895 822.522C428.063 784.424 428.506 746.217 429.284 708.021C429.544 695.334 431.096 682.702 432.69 670.088C434.113 658.812 435.226 647.495 437.123 636.283C440.132 618.498 443.616 600.816 449.15 583.604C453.86 609.361 457.734 635.258 462.422 661.026C466.63 684.163 470.448 707.377 474.57 730.535C478.5 752.602 481.953 774.752 485.743 796.844C486.569 801.652 488.164 806.323 488.325 811.257C488.383 813 493.93 839.198 495.496 851.34C496.437 858.635 497.78 865.896 499.33 873.089C500.299 877.58 500.513 882.17 503.358 886.381C506.941 891.684 503.274 897.502 496.384 898.066C491.489 898.465 486.538 898.168 481.618 898.333C479.722 898.396 477.522 897.551 476.06 899.623C473.875 898.221 471.436 898.233 468.961 898.249C460.077 898.309 451.177 897.972 442.361 899.482C443.484 898.175 443.47 896.83 443.063 895.141Z" fill="#FDF2E8"/>
<path fill-rule="evenodd" clip-rule="evenodd" d="M146.58 566.21C159.723 588.104 168.793 611.438 172.212 636.889C173.785 648.602 175.847 660.258 178.035 671.874C179.075 677.395 179.157 682.984 179.775 688.514C181.336 702.481 181.871 716.56 182.958 730.584C186.961 782.19 185.307 833.88 185.325 885.546C185.328 891.566 183.667 897.513 184.284 903.584C179.133 903.601 173.982 903.696 168.833 903.617C163.746 903.539 160.932 901.222 160.115 896.243C157.311 879.161 154.664 862.055 151.856 844.974C150.308 835.56 148.354 826.209 146.956 816.775C145.656 807.995 145.236 799.075 143.7 790.344C142.543 783.753 143.326 776.98 141.386 770.512C141.197 769.883 141.145 769.178 141.186 768.518C141.938 756.447 139.566 744.524 139.69 732.447C140.017 700.91 139.579 669.365 139.948 637.829C140.049 629.225 140.755 620.54 142.207 611.972C143.097 606.719 142.93 601.35 143.51 596.03C144.593 586.107 145.459 576.141 146.58 566.21Z" fill="#FDF2E8"/>
<path fill-rule="evenodd" clip-rule="evenodd" d="M254.282 457.616C254.182 471.685 254.082 485.753 253.983 499.822C253.976 500.938 254.016 502.057 253.963 503.171C253.55 511.977 253.573 511.907 262.14 515.387C278.269 521.939 294.961 525.402 312.416 524.626C323.916 524.114 334.954 521.771 344.989 515.768C346.317 514.974 347.834 514.494 349.251 513.843C353.282 511.991 355.487 509.151 355.147 504.406C354.859 500.413 355.145 496.379 355.177 492.363C359.786 492.935 364.222 491.583 368.743 491.154C368.055 492.157 365.931 492.272 366.628 494.102C370.651 504.66 367.578 514.967 364.822 524.955C354.29 563.131 335.581 597.294 312.248 629.07C309.582 632.7 309.57 632.514 306.172 629.779C284.336 612.203 267.873 590.545 256.207 565.101C250.205 552.007 246.584 538.239 243.545 524.266C241.983 517.079 239.866 510.004 239.127 502.651C238.958 500.979 238.252 499.671 236.69 498.91C240.294 498.529 243.895 498.122 247.502 497.774C252.683 497.275 252.741 497.293 252.776 491.752C252.834 482.615 252.819 473.476 252.814 464.337C252.813 461.663 252.743 458.989 252.703 456.315C254.108 455.686 254.473 456.315 254.282 457.616Z" fill="#FDF2E8"/>
<path fill-rule="evenodd" clip-rule="evenodd" d="M265.005 186.17C263.851 187.658 263.598 189.361 263.545 191.211C262.557 225.601 252.073 257.439 237.278 288.093C234.022 294.84 231.637 296.121 224.544 294.475C214.27 292.091 203.977 290.622 193.374 290.49C186.769 290.408 180.174 288.807 173.478 289.436C175.59 271.052 179.57 253.139 186.727 235.996C189.475 229.413 192.248 222.874 196.206 216.882C197.412 215.058 198.573 212.907 198.809 210.801C199.362 205.868 202.299 203.418 206.515 201.697C221.818 195.447 237.731 191.45 253.968 188.58C257.674 187.923 261.328 186.98 265.005 186.17Z" fill="#DADADB"/>
<path fill-rule="evenodd" clip-rule="evenodd" d="M254.282 457.616C253.756 457.182 253.231 456.747 252.705 456.314C252.277 455.939 251.848 455.562 251.421 455.188C253.15 452.141 250.349 450.268 249.364 448.057C243.029 433.842 243.97 420.361 252.938 407.551C253.7 406.463 254.533 405.355 255.556 404.531C259.209 401.59 261.891 401.899 264.608 405.711C270.131 413.463 277.078 419.585 285.026 424.796C291.608 429.11 298.856 431.25 306.455 431.727C318.058 432.455 329.741 432.731 340.683 427.543C341.486 427.163 342.34 426.818 343.206 426.664C347.484 425.902 349.529 427.513 349.826 431.852C351.539 456.834 336.559 472.301 314.988 477.37C293.096 482.516 273.953 476.207 257.907 460.505C256.799 459.421 255.887 458.082 254.282 457.616Z" fill="#DADADB"/>
<path fill-rule="evenodd" clip-rule="evenodd" d="M764.01 158.908C760.305 163.93 760.305 163.93 754.589 161.91C739.089 156.43 721.413 162.249 711.298 175.511C707.866 180.012 705.611 184.875 703.552 189.973C701.78 187.925 699.38 188.778 697.257 188.754C683.842 188.603 670.423 188.584 657.006 188.485C654.587 188.468 652.038 188.947 649.96 187.116C651.985 178.991 655.062 171.451 661.302 165.494C669.909 157.277 679.972 154.167 691.526 157.113C696.393 158.354 699.405 157.444 702.943 153.477C715.779 139.083 737.372 137.542 752.771 149.385C756.66 152.376 760.271 155.724 764.01 158.908Z" fill="#93634B"/>
<path fill-rule="evenodd" clip-rule="evenodd" d="M417.023 292.028C404.973 291.292 402.7 289.321 400.932 277.668C398.582 262.189 394.837 247.048 389.966 232.184C385.335 218.058 378.795 204.898 369.584 193.16C367.904 191.021 366.424 188.832 365.561 186.252C383.627 191.72 393.731 204.886 399.485 221.909C404.033 235.36 408.293 248.923 412.147 262.586C414.851 272.17 417.048 281.943 417.023 292.028Z" fill="#DADADB"/>
<path fill-rule="evenodd" clip-rule="evenodd" d="M629.742 466.771C645.083 466.31 665.087 466.858 678.28 466.771C683.141 466.739 688.003 466.766 693.055 467.321C673.234 478.877 652.74 488.973 632.255 499.082L632.249 499.076C631.103 496.417 631.401 493.718 632.028 491.01C632.16 487.038 632.292 483.065 632.424 479.093C632.255 475.689 631.437 470.119 629.742 466.771Z" fill="#A9734F"/>
<path fill-rule="evenodd" clip-rule="evenodd" d="M438.51 195.353C439.024 195.728 439.536 196.104 440.051 196.477C439.264 196.475 438.769 196.075 438.51 195.353Z" fill="#DEDBD2"/>
<path fill-rule="evenodd" clip-rule="evenodd" d="M545.873 346.127C545.111 345.527 545.118 344.925 545.869 344.321C545.868 344.319 546.22 344.681 546.22 344.681C546.602 345.039 546.604 345.4 546.224 345.762L545.873 346.127Z" fill="#EDCEB4"/>
<path fill-rule="evenodd" clip-rule="evenodd" d="M765.485 157.927C765.191 158.615 764.684 158.985 763.92 158.971C764.193 158.25 764.801 158.033 765.485 157.927Z" fill="#93634B"/>
<path fill-rule="evenodd" clip-rule="evenodd" d="M692.906 328.511C692.913 331.147 692.153 332.925 689.249 333.962C677.69 338.094 665.99 340.347 653.736 337.879C648.409 336.806 643.461 334.813 639.094 331.55C629.512 324.391 627.87 313.977 635.362 304.666C646.85 290.389 662.133 284.521 680.263 285.579C682.519 286.811 683.843 288.828 684.808 291.103C689.233 301.532 692.082 312.412 693.976 323.553C694.275 325.306 694.355 327.095 692.906 328.511Z" fill="#0B0705"/>
<path fill-rule="evenodd" clip-rule="evenodd" d="M676.95 297.516C677.579 299.759 678.292 300.868 679.802 300.548C681.354 300.218 681.455 298.829 681.218 297.544C680.929 295.975 680.573 294.407 680.082 292.892C679.783 291.968 678.91 291.502 677.941 291.728C676.983 291.953 676.425 292.767 676.48 293.704C676.573 295.294 676.865 296.873 676.95 297.516Z" fill="#E9EBEB"/>
<path fill-rule="evenodd" clip-rule="evenodd" d="M756.206 373.568C755.723 389.137 749.286 399.702 737.226 406.158C725.363 412.51 713.252 411.731 701.54 404.73C693.563 399.963 689.14 392.807 686.468 384.246C685.852 382.272 685.856 380.243 686.101 378.27C686.702 373.453 692.376 371.342 696.302 374.278C698.836 376.174 699.52 379.006 700.518 381.701C704.283 391.868 711.701 396.348 723.652 395.637C731.765 395.153 738.66 388.513 741.337 379.654C742.733 375.036 742.009 370.874 740.699 366.632C739.642 363.203 741.421 361.033 743.639 359.097C745.497 357.477 747.897 357.5 749.957 358.542C752.16 359.654 754.046 361.391 754.54 364C755.241 367.701 756.865 371.293 756.206 373.568Z" fill="#DA9CB5"/>
<path fill-rule="evenodd" clip-rule="evenodd" d="M692.905 328.511C690.861 313.561 687.091 299.119 680.261 285.578C687.648 284.973 694.968 285.065 702.106 287.435C705.081 288.424 707.787 289.891 710.561 291.348C719.727 296.17 720.938 306.865 714.768 314.846C710.253 320.687 703.916 324.715 698.385 329.542C696.288 331.373 694.384 330.709 692.905 328.511Z" fill="white"/>
<path fill-rule="evenodd" clip-rule="evenodd" d="M662.734 251.539C650.607 251.558 642.76 257.818 639.966 270.499C639.052 274.647 637.412 276.56 635.266 275.652C632.078 274.305 632.539 271.59 632.96 268.801C634.889 256.016 645.607 244.361 663.732 244.293C676.166 244.246 686.713 249.495 694.788 259.177C695.785 260.374 696.68 261.688 697.42 263.057C698.46 264.987 698.683 266.978 696.528 268.358C694.585 269.605 693.105 268.396 691.862 267.044C690.808 265.894 689.998 264.526 688.981 263.339C682.351 255.606 674.052 251.407 662.734 251.539Z" fill="#705040"/>
<path fill-rule="evenodd" clip-rule="evenodd" d="M827.375 315.148C827.968 321.161 823.773 326.249 816.511 328.396C812.553 329.567 810.744 328.761 810.286 324.892C809.506 318.297 809.271 311.618 810.702 305.011C811.386 301.855 813.188 301.044 816.074 302.098C822.105 304.302 828.407 308.949 827.375 315.148Z" fill="#C8A180"/>
<path fill-rule="evenodd" clip-rule="evenodd" d="M624.982 345.883C624.786 346.92 624.012 347.207 623.121 347.212C621.889 347.219 620.95 346.484 620.968 345.35C620.985 344.224 621.893 343.392 623.166 343.665C624.263 343.9 625.024 344.618 624.982 345.883Z" fill="#E49057"/>
<path fill-rule="evenodd" clip-rule="evenodd" d="M746.243 321.896C746.05 323.001 745.243 323.765 744.127 323.8C742.738 323.843 742.349 322.734 742.617 321.593C742.871 320.51 743.597 319.651 744.896 319.929C745.82 320.128 746.31 320.805 746.243 321.896Z" fill="#E38F55"/>
<path fill-rule="evenodd" clip-rule="evenodd" d="M618.186 353.98C618.247 355.28 617.459 355.997 616.332 356.148C615.329 356.285 614.761 355.488 614.782 354.554C614.802 353.666 615.251 352.885 616.278 352.775C617.191 352.677 617.962 352.921 618.186 353.98Z" fill="#E49259"/>
<path fill-rule="evenodd" clip-rule="evenodd" d="M733.277 329.291C732.204 329.086 731.924 328.308 732.026 327.386C732.141 326.367 732.929 325.887 733.832 325.856C734.782 325.826 735.592 326.397 735.472 327.408C735.336 328.564 734.585 329.334 733.277 329.291Z" fill="#E49058"/>
<path fill-rule="evenodd" clip-rule="evenodd" d="M755.036 334.702C753.958 334.639 753.434 333.938 753.468 332.994C753.5 332.066 754.077 331.311 755.077 331.204C755.982 331.108 756.899 331.301 756.978 332.453C757.068 333.779 756.161 334.362 755.036 334.702Z" fill="#E38D52"/>
<path fill-rule="evenodd" clip-rule="evenodd" d="M743.916 328.729C744.866 328.766 745.588 329.214 745.7 330.155C745.81 331.079 745.282 331.802 744.32 331.92C743.363 332.038 742.679 331.533 742.623 330.533C742.574 329.65 742.83 328.858 743.916 328.729Z" fill="#E49057"/>
<path fill-rule="evenodd" clip-rule="evenodd" d="M627.181 353.686C627.402 352.788 628.008 352.043 628.927 352.026C629.864 352.009 630.586 352.751 630.613 353.713C630.641 354.742 629.838 355.297 628.896 355.3C627.957 355.305 627.245 354.796 627.181 353.686Z" fill="#E5925A"/>
<path fill-rule="evenodd" clip-rule="evenodd" d="M623.342 361.147C624.26 361.404 624.826 362.027 624.717 362.955C624.602 363.912 623.837 364.393 622.913 364.335C621.845 364.266 621.569 363.41 621.619 362.524C621.677 361.505 622.384 361.129 623.342 361.147Z" fill="#E69E6C"/>
<path fill-rule="evenodd" clip-rule="evenodd" d="M736.309 340.841C736.312 342.033 735.765 342.633 734.86 342.758C734.178 342.853 733.635 342.396 733.564 341.693C733.463 340.706 734.095 340.038 734.971 339.968C735.421 339.931 735.927 340.573 736.309 340.841Z" fill="#E38547"/>
<path fill-rule="evenodd" clip-rule="evenodd" d="M604.8 364.659C604.824 365.455 604.339 365.854 603.644 365.973C602.687 366.137 601.872 365.89 601.723 364.782C601.619 363.997 602.16 363.585 602.86 363.469C603.818 363.31 604.588 363.559 604.8 364.659Z" fill="#E3884B"/>
<path fill-rule="evenodd" clip-rule="evenodd" d="M546.224 345.762C546.165 345.401 546.164 345.039 546.219 344.679C546.74 344.79 546.944 345.071 546.728 345.47C546.649 345.615 546.397 345.667 546.224 345.762Z" fill="#D4A689"/>
<path fill-rule="evenodd" clip-rule="evenodd" d="M315.913 282.537C324.381 278.466 333.308 279.677 342.099 280.594C349.039 281.318 355.504 283.815 361.276 287.896C364.031 289.844 366.524 292.046 368.42 294.852C373.726 302.706 373.222 310.344 366.954 317.464C359.816 325.571 350.364 329.219 340.107 331.216C337.542 331.716 334.901 332.765 332.282 331.293C330.331 330.247 329.662 328.309 329.027 326.417C324.703 313.522 320.31 300.648 316.098 287.715C315.552 286.041 314.944 284.298 315.913 282.537Z" fill="#040607"/>
<path fill-rule="evenodd" clip-rule="evenodd" d="M315.912 282.537C321.369 298.788 326.825 315.039 332.282 331.29C327.896 333.742 323.513 331.485 319.21 331.06C309.594 330.109 300.385 327.616 292.225 322.06C289.798 320.408 287.529 318.59 285.774 316.289C282.412 311.883 281.578 307.107 284.066 301.892C288.187 293.256 305.93 282.404 315.912 282.537Z" fill="white"/>
<path fill-rule="evenodd" clip-rule="evenodd" d="M320.596 406.471C327.354 406.496 332.674 403.82 336.375 398.08C337.583 396.204 338.715 394.268 340.07 392.502C341.208 391.02 342.635 390.078 344.706 391.149C346.589 392.123 347.188 393.618 346.964 395.559C346.864 396.433 346.705 397.345 346.348 398.14C338.864 414.831 315.091 423.622 300.165 405.67C292.471 396.415 291.241 385.472 296.076 374.192C297.456 370.976 299.954 369.539 302.281 370.354C304.765 371.224 305.495 374.028 304.084 377.74C301.769 383.833 301.55 389.983 304.148 395.957C307.195 402.964 312.931 406.433 320.596 406.471Z" fill="#E7C0CE"/>
<path fill-rule="evenodd" clip-rule="evenodd" d="M173.414 341.973C173.19 341.962 172.967 341.958 172.744 341.937C166.137 341.303 157.585 330.773 157.281 322.897C156.994 315.445 162.427 308.88 170.217 307.267C174.147 306.453 175.375 307.752 176.239 312.19C177.866 320.55 176.939 329.093 178.374 337.462C178.921 340.646 177.11 342.064 173.414 341.973Z" fill="#8E6644"/>
<path fill-rule="evenodd" clip-rule="evenodd" d="M329.457 238.219C344.197 238.193 355.486 242.672 364.464 252.497C365.962 254.138 367.204 256.018 368.51 257.827C369.799 259.615 370.43 261.617 368.427 263.185C366.309 264.845 364.241 264.195 362.578 262.189C362.294 261.847 362.07 261.455 361.814 261.089C350.709 245.232 330.64 241.437 312.632 249.481C310.183 250.575 307.878 252.016 305.38 252.961C303.489 253.676 301.223 253.967 300.192 251.543C299.244 249.311 300.466 247.661 302.377 246.54C308.036 243.219 318.602 237.824 329.457 238.219Z" fill="#545459"/>
<path fill-rule="evenodd" clip-rule="evenodd" d="M321.563 222.341C320.721 223.166 319.686 223.537 318.532 223.534C311.137 223.508 303.898 224.736 296.664 226.102C294.976 226.42 293.124 226.817 291.434 225.78C294.299 223.541 306.97 221.126 316.16 221.056C317.754 222.351 320.038 220.755 321.563 222.341Z" fill="#947056"/>
<path fill-rule="evenodd" clip-rule="evenodd" d="M318.473 210.016C319.98 208.753 321.823 208.9 323.59 208.875C330.741 208.775 337.895 208.674 345.047 208.706C346.426 208.713 348.289 208.024 349.299 211.007C339.707 208.864 330.647 212.414 321.382 211.387C320.613 210.504 319.104 211.19 318.473 210.016Z" fill="#896A52"/>
<path fill-rule="evenodd" clip-rule="evenodd" d="M326.6 220.8C334.816 218.84 343.034 218.752 351.252 220.788C350.628 221.919 349.265 221.311 348.443 221.977C342.539 221.98 336.634 221.985 330.73 221.989C329.509 221.056 327.684 222.21 326.6 220.8Z" fill="#92614B"/>
<path fill-rule="evenodd" clip-rule="evenodd" d="M274.987 300.446C270.321 303.254 257.902 302.899 247.116 300.446H274.987Z" fill="#8B6A52"/>
<path fill-rule="evenodd" clip-rule="evenodd" d="M260.964 319.193C261.734 319.097 262.504 319.002 263.276 318.906C263.932 318.716 264.394 318.239 264.884 317.806C269.032 316.648 272.773 314.11 278.676 313.587C273.723 318.331 268.422 318.733 263.721 320.431C262.345 321.036 260.955 321.667 260.964 319.193Z" fill="#916F56"/>
<path fill-rule="evenodd" clip-rule="evenodd" d="M348.443 221.976C349.137 221.011 350.21 220.94 351.251 220.789C356.182 221.087 361.264 220.014 365.967 222.709C360.068 224.246 354.292 221.72 348.443 221.976Z" fill="#83604B"/>
<path fill-rule="evenodd" clip-rule="evenodd" d="M273.205 309.745C268.602 311.988 263.642 310.46 258.841 311.324C261.568 309.308 264.459 308.227 267.742 308.456C269.375 309.682 271.674 308.087 273.205 309.745Z" fill="#967258"/>
<path fill-rule="evenodd" clip-rule="evenodd" d="M260.963 319.193C261.605 320.22 262.655 320.341 263.721 320.431C260.671 322.265 257.44 323.333 253.855 323.097C255.555 320.286 258.548 320.314 260.963 319.193Z" fill="#927257"/>
<path fill-rule="evenodd" clip-rule="evenodd" d="M326.601 220.8C328.027 221.028 329.639 220.614 330.732 221.991C327.674 222.106 324.618 222.223 321.563 222.34C319.752 221.953 317.623 222.897 316.159 221.056C319.64 220.97 323.12 220.885 326.601 220.8Z" fill="#83604B"/>
<path fill-rule="evenodd" clip-rule="evenodd" d="M318.473 210.016C319.581 210.181 320.73 210.26 321.382 211.387C318.009 211.706 314.636 212.025 309.829 212.48C313.24 209.348 315.976 210.191 318.473 210.016Z" fill="#856851"/>
<path fill-rule="evenodd" clip-rule="evenodd" d="M273.204 309.745C271.381 309.319 269.235 310.264 267.74 308.455C270.374 308.325 273.005 308.196 275.735 308.06C275.511 310.154 274.133 309.527 273.204 309.745Z" fill="#8C644D"/>
<path fill-rule="evenodd" clip-rule="evenodd" d="M264.884 317.806C264.349 318.173 263.815 318.54 263.277 318.906C263.811 318.54 264.347 318.172 264.884 317.806Z" fill="#927257"/>
<path fill-rule="evenodd" clip-rule="evenodd" d="M687.945 325.535C687.984 327.024 687.862 328.627 685.645 328.633C683.832 328.639 683.646 327.27 683.53 325.86C683.036 319.829 682.143 313.866 680.312 308.077C679.889 306.736 679.527 305.287 681.071 304.607C683.194 303.673 683.88 305.583 684.367 306.952C686.48 312.897 687.03 319.165 687.945 325.535Z" fill="#E5E4E1"/>
<path fill-rule="evenodd" clip-rule="evenodd" d="M334.01 305.624C333.984 307.573 333.852 308.938 332.175 309.268C330.922 309.515 329.946 308.775 329.51 307.734C327.287 302.424 325.139 297.083 323.031 291.727C322.497 290.373 322.75 289.052 324.177 288.335C325.624 287.61 326.884 288.242 327.549 289.498C328.578 291.444 329.389 293.512 330.195 295.567C331.569 299.068 332.866 302.598 334.01 305.624Z" fill="#EEEEEF"/>
<path fill-rule="evenodd" clip-rule="evenodd" d="M332.459 315.885C332.292 314.135 332.694 312.939 334.163 312.435C335.656 311.924 336.9 312.605 337.314 313.955C338.014 316.235 338.517 318.603 338.81 320.971C338.949 322.094 337.981 323.012 336.823 323.248C335.654 323.488 334.488 322.968 334.104 321.897C333.372 319.851 332.939 317.699 332.459 315.885Z" fill="#DEE1E1"/>
<path fill-rule="evenodd" clip-rule="evenodd" d="M296.7 308.084C297.03 307.744 297.278 307.284 297.498 307.298C298.403 307.35 298.981 307.902 298.995 308.828C298.996 308.961 298.238 309.311 298.015 309.199C297.512 308.945 297.125 308.464 296.7 308.084Z" fill="#F5E9DF"/>
</g>
<path fill-rule="evenodd" clip-rule="evenodd" d="M421.493 128.946C434.484 109.458 448.388 90.6288 462.742 72.137C466.014 67.9224 469.748 64.0077 473.399 60.1276C481.359 51.6675 489.071 42.9691 497.023 34.5015C502.118 29.0771 507.657 28.2894 513.951 29.482C531.993 32.8979 549.347 38.3866 565.749 46.88C575.255 51.8033 584.755 56.7228 594.072 61.9955C597.147 63.7374 598.873 67.6323 597.889 71.1679C597.175 73.7283 596.073 76.2134 594.886 78.6046C580.573 107.443 565.59 135.915 549.225 163.659C544.925 170.95 541.663 178.866 537.989 186.526C532.97 196.986 527.225 207.109 521.511 217.217C519.358 221.026 515.393 222.17 511.037 220.763C497.876 216.513 484.803 211.989 471.61 207.846C461.397 204.638 451.129 201.623 441.354 197.189C440.945 193.922 443.327 191.843 444.759 189.401C449.486 181.334 452.769 172.743 452.441 163.333C451.911 148.128 443.283 138.673 429.696 133.118C426.852 131.956 423.494 131.778 421.493 128.946Z" fill="#DEDBD2"/>
<path fill-rule="evenodd" clip-rule="evenodd" d="M421.493 128.946C430.163 130.689 438.009 134.122 444.367 140.432C454.155 150.144 456.052 161.883 452.806 174.788C450.712 183.109 446.712 190.512 441.354 197.19C441.031 197.189 440.708 197.174 440.386 197.145C439.708 196.996 439.307 196.468 438.846 196.021C431.735 177.589 424.645 159.148 417.485 140.735C416.525 138.266 416.394 136.084 418.107 133.891C419.334 132.32 420.371 130.6 421.493 128.946Z" fill="#A69A94"/>
<path fill-rule="evenodd" clip-rule="evenodd" d="M518.694 82.9938C521.929 83.5321 524.55 81.4655 527.499 80.5396C529.321 79.968 531.102 80.3038 532.171 82.1445C533.301 84.0901 532.279 85.5542 530.922 86.869C526.226 91.412 517.083 92.2132 509.418 88.7677C502.311 85.5727 499.2 80.4853 499.211 73.0004C499.22 67.413 502.388 63.786 506.268 60.6565C514.392 54.1037 527.34 55.4382 533.612 62.7897C534.997 64.4144 536.284 66.1168 534.602 68.1056C532.867 70.1586 530.548 70.145 528.659 68.4191C525.527 65.5588 522.119 63.8996 517.768 64.2094C514.453 64.4452 511.726 65.718 509.489 68.0846C505.796 71.9881 506.479 77.9138 510.994 80.8013C513.28 82.263 515.751 83.3136 518.694 82.9938Z" fill="#A79B95"/>
<path fill-rule="evenodd" clip-rule="evenodd" d="M544.653 83.9315C550.01 82.6019 552.209 78.4058 555.97 76.512C556.937 76.0244 557.599 74.9553 558.545 74.3973C560.388 73.3085 562.439 71.3579 564.399 73.8825C566.246 76.2602 565.224 78.5564 563.153 80.3366C560.79 82.3649 558.35 84.308 555.89 86.2191C550.62 90.3152 545.333 94.3903 540.015 98.4235C538.446 99.6136 536.825 101.191 534.646 99.7074C532.378 98.163 532.615 95.7767 533.249 93.641C535.402 86.382 537.657 79.1514 540.076 71.9777C540.803 69.8197 542.353 67.847 545.068 68.5506C547.843 69.2691 548.063 71.711 547.561 73.9813C546.897 76.9849 545.853 79.9045 544.653 83.9315Z" fill="#A79B95"/>
<path fill-rule="evenodd" clip-rule="evenodd" d="M531.503 133.474C530.846 136.099 529.128 135.551 527.367 134.799C521.825 132.434 516.28 130.07 510.748 127.681C499.265 122.724 487.703 117.979 475.86 113.928C473.525 113.131 469.402 112.747 470.383 109.422C471.564 105.419 475.035 108.388 477.175 109.108C494.118 114.805 510.549 121.817 526.854 129.122C528.805 129.996 531.211 130.639 531.503 133.474Z" fill="#A89C96"/>
<path fill-rule="evenodd" clip-rule="evenodd" d="M538.216 121.93C537.775 123.523 536.867 124.401 535.262 123.792C532.548 122.765 529.818 121.742 527.214 120.47C514.757 114.385 501.835 109.425 488.915 104.457C486.832 103.656 484.795 102.721 482.794 101.731C481.555 101.119 480.412 100.135 481.002 98.5845C481.708 96.7327 483.159 96.7068 484.873 97.3796C490.483 99.582 496.198 101.526 501.746 103.871C512.647 108.477 523.477 113.253 534.297 118.045C536.027 118.812 538.299 119.311 538.216 121.93Z" fill="#A89B95"/>
<path fill-rule="evenodd" clip-rule="evenodd" d="M520.762 144.115C520.792 145.699 519.062 146.618 516.948 145.404C506.245 139.26 494.494 135.564 483.213 130.774C477.872 128.507 472.467 126.389 467.133 124.104C465.749 123.51 463.992 122.765 464.725 120.723C465.431 118.755 467.411 118.997 468.742 119.492C474.175 121.511 479.52 123.769 484.876 125.989C495.595 130.431 506.632 134.12 516.928 139.559C518.658 140.472 520.77 141.119 520.762 144.115Z" fill="#A89C96"/>
<path fill-rule="evenodd" clip-rule="evenodd" d="M485.409 139.732C485.068 141.585 483.722 142.509 482.07 141.998C475.09 139.839 468.032 137.834 461.66 134.099C460.302 133.302 460.001 132.037 460.733 130.679C461.337 129.554 462.355 129.34 463.559 129.79C470.193 132.276 476.844 134.721 483.468 137.235C484.515 137.633 485.362 138.387 485.409 139.732Z" fill="#A99D97"/>
<path fill-rule="evenodd" clip-rule="evenodd" d="M505.79 170.683C500.974 170.678 496.054 171.948 491.427 169.432C491.132 169.272 490.328 170.052 489.761 170.394C488.587 170.574 487.919 170.272 488.36 168.916C488.322 168.028 486.666 166.565 488.46 166.386C490.831 166.149 492.926 165.073 495.884 166.291C499.086 167.607 503.459 168.319 507.245 166.341C508.671 165.702 508.853 166.429 508.628 167.603C507.851 168.155 507.623 168.71 508.615 169.277C508.717 171.846 507.134 171.025 505.79 170.683Z" fill="#2864EE"/>
<path fill-rule="evenodd" clip-rule="evenodd" d="M505.79 170.683C506.823 170.397 507.972 170.346 508.614 169.277C511.506 169.144 514.131 169.95 517.095 171.316C513.31 172.688 511.492 172.546 505.79 170.683Z" fill="#547FE8"/>
<path fill-rule="evenodd" clip-rule="evenodd" d="M508.628 167.603C508.166 167.183 507.705 166.762 507.244 166.342C508.944 164.673 510.719 163.203 513.768 163.752C512.729 166.463 510.459 166.743 508.628 167.603Z" fill="#4A7AE9"/>
<path fill-rule="evenodd" clip-rule="evenodd" d="M488.36 168.917C488.827 169.409 489.295 169.902 489.762 170.394C489.586 170.781 489.439 171.183 489.228 171.55C488.688 172.487 487.978 173.583 486.811 172.882C485.586 172.145 486.298 171.026 486.959 170.182C487.341 169.694 487.888 169.334 488.36 168.917Z" fill="#5883E7"/>
</svg>
