<svg width="549" height="534" viewBox="0 0 549 534" fill="none" xmlns="http://www.w3.org/2000/svg">
<path fill-rule="evenodd" clip-rule="evenodd" d="M422.815 307.403C421.747 307.611 420.319 307.541 420.437 309.128C420.616 311.566 419.437 313.766 419.411 316.14C419.337 322.752 415.453 326.717 409.926 329.259C406.119 331.008 402.061 331.97 397.76 332.073C389.029 332.281 380.447 331.809 372.189 328.598C367.156 326.641 362.619 324.001 359.016 319.908C356.182 316.688 354.614 313.205 356.045 308.771C356.776 306.504 356.432 304.053 356.394 301.678C356.182 299.082 356.922 296.595 357.257 294.062C357.921 292.077 359.814 291.59 361.383 290.775C371.551 285.495 381.978 280.726 392.232 275.021C382.922 275.071 373.838 275.117 364.757 275.004C361.461 274.963 358.85 275.235 358.99 279.481C359.02 280.409 358.65 281.453 357.363 281.56C357.334 279.886 357.244 278.21 357.294 276.539C357.346 274.839 356.765 273.876 354.915 273.941C345.003 274.286 335.087 273.533 325.159 274.454C319.5 274.98 313.701 275.345 308.039 274.123C302.571 272.943 299.413 268.796 299.572 263.348C299.742 257.539 299.449 251.665 300.234 245.939C301.128 239.413 300.208 232.804 301.617 226.346C301.764 225.674 301.73 224.95 301.705 224.254C301.432 216.56 303.001 208.944 302.684 201.244C302.645 200.306 303.071 199.349 303.282 198.401C303.282 198.401 303.35 198.011 303.348 198.012C303.345 198.013 303.693 197.841 303.693 197.841C303.693 197.841 303.352 197.658 303.349 197.657C303.347 197.656 303.278 197.271 303.278 197.271C303.129 189.303 304.087 181.383 304.444 173.438C304.882 163.698 305.569 153.963 306.106 144.22C306.621 134.901 307.587 125.606 307.717 116.258C307.756 113.478 308.274 110.705 308.648 107.962C309.204 103.892 311.868 101.087 315.9 100.176C318.449 99.5996 321.037 99.0135 323.743 99.052C332.837 99.1808 341.936 98.995 351.027 99.2101C355.478 99.3158 359.913 100.081 364.39 99.851C365.748 99.7816 367.229 100.21 368.32 98.9533C379.39 98.7034 390.474 97.6962 401.503 99.5271C402.858 100.847 402.269 102.41 401.909 103.861C401.346 106.126 401.349 108.38 402.308 110.452C405.565 117.484 409.688 123.817 417.86 125.766C422.082 126.773 424.188 128.83 425.636 133.211C429.042 143.508 437.607 148.311 447.612 150.612C450.665 151.313 452.54 152.605 453.908 155.37C456.949 161.519 465.596 165.658 472.516 164.795C475.243 164.454 477.875 163.072 480.729 163.903C480.718 165.147 481.633 165.908 482.271 166.802C486.974 173.395 487.093 184.075 482.21 190.844C479.972 193.945 476.979 195.38 473.671 196.482C469.948 197.723 469.887 197.609 469.881 201.62C469.853 220.644 469.84 239.667 469.817 258.69C469.813 261.91 469.519 265.063 467.941 267.98C465.793 271.951 462.126 273.004 458.047 273.039C447.696 273.128 437.343 273.094 426.989 273.125C423.288 273.136 423.288 273.157 422.537 276.792C422.368 277.61 422.019 278.434 422.055 279.243C422.399 287.218 420.888 295.113 421.07 303.079C421.108 304.777 420.929 306.485 422.815 307.403Z" fill="#EDCEB4"/>
<path fill-rule="evenodd" clip-rule="evenodd" d="M222.77 164.566C223.003 165.51 223.391 166.447 223.444 167.401C224.366 184.324 222.675 200.919 216.864 216.939C211.54 231.619 203.725 244.734 192.082 255.349C190.121 257.138 188.087 258.866 185.948 260.435C184.579 261.441 183.965 262.479 183.992 264.247C184.122 272.783 184.098 281.322 184.128 289.858C187.121 296.867 185.439 301.733 179.094 305.252C165.344 312.879 150.941 312.531 136.263 308.933C131.912 307.866 127.649 306.491 123.556 304.613C120.488 303.205 118.978 300.987 119.623 297.592C121.445 288.017 120.253 278.345 120.599 268.73C122.672 266.717 123.751 268.93 124.818 269.934C130.396 275.181 136.919 278.618 144.435 279.786C156.412 281.648 167.025 278.969 175.004 269.196C178.513 264.897 179.838 259.799 179.588 254.266C179.396 250.023 178.439 249.213 174.367 250.799C166.649 253.806 158.717 253.645 150.755 252.625C141.242 251.408 134.597 245.37 128.441 238.681C124.408 234.299 122.853 234.363 119.836 239.532C115.631 246.737 115.756 254.143 119.018 261.702C119.652 263.173 121.742 264.853 119.296 266.61C105.56 259.638 95.0869 249.191 87.001 236.222C81.8633 227.983 77.9141 219.194 75.1948 209.879C74.5432 207.645 73.7342 207.09 71.1692 207.131C61.217 207.29 51.2756 203.363 46.8266 193.868C43.3748 186.502 44.6095 179.689 49.4765 173.48C54.1406 167.529 60.6047 164.768 67.9487 163.809C68.885 163.687 69.9554 163.978 70.5932 162.945C71.5672 161.18 73.2584 161.624 74.7098 161.767C83.4473 162.628 92.279 162.41 100.918 164.463C106.72 165.841 107.834 165.176 110.387 159.691C118.826 141.56 124.768 122.741 125.752 102.595C125.835 100.913 125.858 99.1732 127.783 98.3611C134.158 97.6701 140.496 96.7045 146.908 96.2734C161.572 95.287 176.184 94.8543 190.614 98.4136C198.242 106.11 202.945 115.523 206.52 125.587C209.514 134.01 211.863 142.654 213.106 151.472C214.01 157.893 215.655 163.056 222.77 164.566Z" fill="#D7A67D"/>
<path fill-rule="evenodd" clip-rule="evenodd" d="M480.729 163.903C474.075 166.508 467.54 166.698 460.854 163.681C456.772 161.838 453.748 159.275 452.4 155.011C451.773 153.024 450.763 152.26 448.611 151.952C441.195 150.89 434.854 147.489 429.621 142.122C426.636 139.06 424.423 135.466 423.816 131.197C423.502 128.988 422.521 128.05 420.485 127.642C418.852 127.314 417.254 126.769 415.677 126.216C411.318 124.687 407.796 122.08 405.401 118.059C404.759 116.98 404.143 115.872 403.384 114.878C400.015 110.468 399.472 105.772 401.806 100.739C401.595 95.1508 404.949 91.2052 408.685 88.003C415.878 81.8385 424.086 78.3834 433.704 82.1987C436.001 83.1103 437.732 82.3059 439.583 81.311L439.526 81.3503C439.912 81.2208 440.135 80.8498 440.505 80.6979C448.148 72.9701 457.349 69.5327 467.947 72.3053C475.729 74.3413 481.619 79.2726 483.854 87.4909C484.26 88.9856 484.962 89.8563 486.271 90.5805C497.029 96.5267 502.708 105.88 503.966 117.905C504.592 123.886 502.923 129.375 498.061 133.299C495.75 135.164 494.895 137.152 495.163 140.083C495.859 147.675 493.173 154.016 487.67 159.292C485.603 161.274 483.231 162.651 480.729 163.903Z" fill="#6E4E3E"/>
<path fill-rule="evenodd" clip-rule="evenodd" d="M127.783 98.3613C127.062 99.2922 126.904 100.357 126.871 101.514C126.254 123.022 119.703 142.934 110.458 162.106C108.424 166.325 106.933 167.126 102.501 166.097C96.0818 164.606 89.6501 163.687 83.0248 163.605C78.8982 163.553 74.777 162.552 70.5933 162.945C71.9128 151.448 74.3999 140.245 78.872 129.523C80.5886 125.406 82.3215 121.316 84.7947 117.569C85.5482 116.428 86.2739 115.083 86.4212 113.766C86.7666 110.681 88.6021 109.149 91.2365 108.072C100.798 104.163 110.741 101.664 120.887 99.8683C123.202 99.458 125.486 98.868 127.783 98.3613Z" fill="#DADADB"/>
<path fill-rule="evenodd" clip-rule="evenodd" d="M439.583 81.311C437.268 84.4523 437.268 84.4523 433.697 83.189C424.011 79.7616 412.967 83.4011 406.646 91.6949C404.502 94.51 403.093 97.5517 401.806 100.74C400.699 99.459 399.2 99.9927 397.873 99.9773C389.491 99.8832 381.106 99.8708 372.723 99.8091C371.211 99.7983 369.619 100.098 368.32 98.953C369.585 93.8714 371.508 89.156 375.407 85.4302C380.785 80.2914 387.073 78.3464 394.292 80.1889C397.334 80.9647 399.215 80.3956 401.426 77.9145C409.447 68.9126 422.939 67.9486 432.561 75.3555C434.991 77.2258 437.247 79.3197 439.583 81.311Z" fill="#93634B"/>
<path fill-rule="evenodd" clip-rule="evenodd" d="M222.771 164.566C215.241 164.106 213.821 162.873 212.716 155.585C211.248 145.905 208.908 136.435 205.864 127.139C202.971 118.304 198.884 110.074 193.129 102.733C192.079 101.395 191.155 100.026 190.615 98.4127C201.904 101.832 208.217 110.067 211.813 120.713C214.654 129.126 217.316 137.608 219.724 146.153C221.414 152.147 222.787 158.259 222.771 164.566Z" fill="#DADADB"/>
<path fill-rule="evenodd" clip-rule="evenodd" d="M479.176 179.026C479.547 182.787 476.926 185.969 472.388 187.312C469.915 188.044 468.784 187.54 468.498 185.12C468.011 180.995 467.864 176.818 468.758 172.686C469.185 170.713 470.311 170.205 472.115 170.864C475.883 172.243 479.821 175.149 479.176 179.026Z" fill="#C8A180"/>
<path fill-rule="evenodd" clip-rule="evenodd" d="M70.553 195.803C70.4134 195.796 70.2739 195.794 70.1343 195.78C66.0061 195.384 60.6625 188.798 60.4728 183.873C60.2931 179.212 63.6879 175.106 68.5556 174.097C71.0111 173.588 71.7784 174.4 72.3183 177.176C73.3347 182.405 72.7555 187.747 73.6524 192.982C73.9941 194.973 72.8627 195.86 70.553 195.803Z" fill="#8E6644"/>
<path fill-rule="evenodd" clip-rule="evenodd" d="M168.056 130.913C177.266 130.897 184.32 133.698 189.93 139.844C190.866 140.869 191.642 142.045 192.458 143.177C193.264 144.295 193.658 145.547 192.406 146.528C191.083 147.566 189.79 147.159 188.752 145.905C188.574 145.691 188.434 145.446 188.274 145.217C181.335 135.299 168.795 132.926 157.543 137.957C156.013 138.641 154.572 139.543 153.012 140.134C151.83 140.581 150.414 140.763 149.77 139.247C149.178 137.851 149.941 136.819 151.135 136.118C154.671 134.041 161.273 130.667 168.056 130.913Z" fill="#545459"/>
<path fill-rule="evenodd" clip-rule="evenodd" d="M163.123 120.983C162.597 121.499 161.95 121.731 161.229 121.729C156.608 121.713 152.085 122.481 147.565 123.336C146.51 123.535 145.353 123.783 144.297 123.134C146.088 121.734 154.005 120.224 159.747 120.18C160.743 120.989 162.17 119.992 163.123 120.983Z" fill="#947056"/>
<path fill-rule="evenodd" clip-rule="evenodd" d="M161.193 113.275C162.134 112.485 163.286 112.577 164.39 112.562C168.858 112.499 173.328 112.436 177.797 112.456C178.658 112.46 179.823 112.029 180.454 113.895C174.46 112.555 168.8 114.775 163.01 114.133C162.53 113.58 161.587 114.009 161.193 113.275Z" fill="#896A52"/>
<path fill-rule="evenodd" clip-rule="evenodd" d="M166.271 120.02C171.404 118.793 176.539 118.739 181.674 120.012C181.284 120.719 180.433 120.339 179.919 120.755C176.23 120.758 172.54 120.761 168.851 120.763C168.088 120.179 166.948 120.901 166.271 120.02Z" fill="#92614B"/>
<path fill-rule="evenodd" clip-rule="evenodd" d="M179.919 120.755C180.353 120.151 181.023 120.107 181.674 120.012C184.755 120.199 187.93 119.528 190.869 121.213C187.183 122.175 183.574 120.595 179.919 120.755Z" fill="#83604B"/>
<path fill-rule="evenodd" clip-rule="evenodd" d="M166.271 120.02C167.162 120.162 168.169 119.903 168.852 120.765C166.942 120.836 165.032 120.91 163.123 120.983C161.991 120.741 160.661 121.331 159.746 120.179C161.921 120.126 164.096 120.073 166.271 120.02Z" fill="#83604B"/>
<path fill-rule="evenodd" clip-rule="evenodd" d="M161.193 113.275C161.885 113.378 162.603 113.428 163.01 114.133C160.903 114.332 158.795 114.531 155.791 114.816C157.923 112.857 159.632 113.385 161.193 113.275Z" fill="#856851"/>
<mask id="mask0_4008_38279" style="mask-type:alpha" maskUnits="userSpaceOnUse" x="0" y="76" width="549" height="458">
<path d="M511.731 248.103C526.592 272.777 537.606 294.138 543.892 317.721C556.733 365.911 546.846 403.925 494.559 438.359C472.882 452.637 448.616 462.075 424.239 471.078C369.665 491.233 314.82 510.63 258.211 524.868C229.225 532.159 208.018 534.472 153.416 533.923C98.8143 533.374 58.134 508.666 28.1966 465.658C23.037 458.244 18.7922 450.228 14.2169 442.44C3.96832 424.996 -0.335754 406.114 0.0203247 386.161C0.431702 363.001 6.06409 341.067 15.8256 319.928C50.9032 243.965 102.601 180.839 170.919 130.55C200.031 108.953 233.038 92.805 268.25 82.9319C328.681 66.0319 379.791 79.9767 420.36 126.317C441.25 150.181 460.198 175.689 479.262 200.995C491.644 217.427 502.647 234.835 511.731 248.103Z" fill="white"/>
</mask>
<g mask="url(#mask0_4008_38279)">
<path d="M511.731 248.103C526.592 272.777 537.606 294.138 543.892 317.721C556.733 365.911 546.846 403.925 494.559 438.359C472.882 452.637 448.616 462.075 424.239 471.078C369.665 491.233 314.82 510.63 258.211 524.868C229.225 532.159 208.018 534.472 153.416 533.923C98.8143 533.374 58.134 508.666 28.1966 465.658C23.037 458.244 18.7922 450.228 14.2169 442.44C3.96832 424.996 -0.335754 406.114 0.0203247 386.161C0.431702 363.001 6.06409 341.067 15.8256 319.928C50.9032 243.965 102.601 180.839 170.919 130.55C200.031 108.953 233.038 92.805 268.25 82.9319C328.681 66.0319 379.791 79.9767 420.36 126.317C441.25 150.181 460.198 175.689 479.262 200.995C491.644 217.427 502.647 234.835 511.731 248.103Z" fill="#2351DF"/>
<path fill-rule="evenodd" clip-rule="evenodd" d="M422.767 307.249C435.178 308.31 447.587 309.379 459.999 310.421C462.371 310.621 464.762 310.62 467.127 310.875C471.365 311.33 472.952 312.789 474.085 316.9C475.803 323.122 476.513 329.525 477.267 335.895C479.207 352.29 480.338 368.743 480.087 385.272C479.957 393.788 480.068 402.309 479.849 410.822C479.513 423.823 478.172 436.754 477.016 449.703C475.772 463.627 473.538 477.425 472.193 491.341C470.607 507.741 468.583 524.125 464.869 540.226C462.827 549.078 461.731 548.659 454.148 548.597C435.935 548.45 417.716 548.64 399.509 548.217C370.093 547.533 340.67 547.947 311.258 547.375C295.99 547.079 280.725 546.866 265.457 546.958C262.947 546.973 261.22 545.828 259.509 544.343C259.986 542.007 261.96 542.472 263.49 542.344C266.131 542.122 268.808 542.49 271.44 542.119C275.261 541.58 276.296 539.589 275.145 535.91C271.132 523.074 269.757 509.727 267.702 496.517C267.434 494.79 267.337 492.861 268.769 491.373C270.321 484.118 270.994 476.728 272.077 469.403C273.774 457.923 275.328 446.422 276.845 434.917C277.849 427.295 278.905 419.667 279.525 412.009C280.08 405.159 281.518 398.46 282.47 391.683C283.578 383.799 284.609 375.904 285.682 368.015C287.283 356.245 288.85 344.471 290.414 332.697C291.591 323.83 292.664 314.949 293.932 306.096C294.666 300.959 299.315 296.998 304.385 297.317C312.628 297.836 320.854 298.638 329.088 299.312C338.16 300.055 347.232 300.788 356.304 301.526C358.173 303.917 357.503 306.618 357.006 309.165C356.201 313.287 357.554 316.49 360.336 319.446C367.429 326.98 376.695 329.653 386.441 330.393C393.327 330.916 400.397 331.52 407.209 328.888C413.636 326.404 417.929 322.462 418.361 315.195C418.477 313.246 418.939 311.325 419.253 309.393C419.584 307.354 420.626 306.377 422.767 307.249Z" fill="#FAB434"/>
<path fill-rule="evenodd" clip-rule="evenodd" d="M53.5066 335.882C54.4635 327.297 55.8023 318.783 58.1752 310.458C58.943 307.765 60.2248 305.286 61.2758 302.712C62.6748 299.286 65.1411 297.69 68.5997 297.404C79.2974 296.521 89.945 295.073 100.682 294.611C103.743 294.48 106.793 294.08 109.848 293.803C112.553 294.108 112.333 296.34 112.742 298.169C115.305 309.617 117.214 321.243 121.925 332.11C128.87 348.132 138.496 362.173 152.25 373.201C154.148 374.723 155.586 375.613 157.361 373.089C171.783 352.595 183.867 330.965 189.714 306.345C190.836 301.619 191.992 296.784 190.439 291.865C189.885 290.11 190.788 289.272 192.411 288.955C199.705 288.984 206.931 288.049 214.178 287.414C218.781 287.01 223.409 287.23 228.018 286.669C230.574 286.359 232.803 288.248 233.482 290.976C234.222 293.949 234.643 297.004 235.139 300.033C237.216 312.711 239.274 325.391 241.33 338.072C241.799 340.964 242.233 343.861 242.684 346.756C241.151 360.516 236.866 373.76 235.221 387.522C233.077 405.45 231.348 423.345 231.264 441.455C231.137 468.787 232.367 495.978 236.431 523.017C237.263 528.554 238.579 534.004 239.655 539.497C239.991 541.217 240.732 543.155 238.439 544.255C226.526 544.335 214.597 544.058 202.705 544.597C191.637 545.1 180.576 544.927 169.516 545.218C150.189 545.727 130.851 545.823 111.527 546.285C100.043 546.56 88.5644 546.74 77.0804 546.819C75.7987 545.471 75.6659 543.772 75.8612 542.095C77.3536 529.256 76.3666 516.374 76.5626 503.514C76.727 492.741 76.7972 481.96 76.5534 471.19C76.0911 450.784 74.5802 430.44 72.7598 410.108C71.759 398.926 69.4594 387.972 67.7355 376.922C66.1126 366.518 62.9225 356.506 58.0649 347.089C56.209 343.492 54.3068 339.91 53.5066 335.882Z" fill="#B3A294"/>
<path fill-rule="evenodd" clip-rule="evenodd" d="M422.767 307.249C421.698 307.457 420.27 307.387 420.387 308.974C420.567 311.411 419.387 313.61 419.361 315.983C419.287 322.593 415.4 326.558 409.87 329.098C406.06 330.848 402 331.809 397.697 331.912C388.96 332.12 380.373 331.648 372.109 328.438C367.073 326.482 362.533 323.842 358.928 319.751C356.092 316.532 354.523 313.05 355.955 308.616C356.686 306.35 356.342 303.9 356.304 301.526C356.092 298.931 356.833 296.444 357.168 293.912C357.832 291.928 359.727 291.44 361.297 290.626C371.471 285.348 381.905 280.58 392.165 274.877C382.849 274.926 373.759 274.972 364.672 274.859C361.375 274.818 358.762 275.09 358.902 279.336C358.932 280.263 358.561 281.306 357.273 281.413C357.245 279.74 357.155 278.065 357.205 276.394C357.257 274.694 356.675 273.732 354.824 273.797C344.906 274.142 334.984 273.389 325.05 274.31C319.387 274.835 313.584 275.201 307.919 273.979C302.448 272.799 299.288 268.653 299.447 263.207C299.616 257.399 299.324 251.527 300.109 245.803C301.004 239.278 300.083 232.672 301.493 226.216C301.641 225.544 301.606 224.82 301.581 224.124C301.308 216.432 302.878 208.819 302.56 201.121C302.522 200.183 302.948 199.226 303.159 198.279C303.159 198.279 303.227 197.889 303.225 197.89C303.222 197.89 303.57 197.719 303.57 197.719C303.57 197.719 303.229 197.536 303.226 197.535C303.224 197.534 303.155 197.149 303.155 197.149C303.006 189.183 303.965 181.266 304.322 173.323C304.76 163.586 305.447 153.853 305.985 144.114C306.5 134.797 307.467 125.504 307.597 116.159C307.636 113.38 308.154 110.608 308.528 107.866C309.085 103.797 311.75 100.992 315.785 100.082C318.336 99.5059 320.925 98.9199 323.633 98.9585C332.733 99.0872 341.838 98.9014 350.934 99.1165C355.388 99.2222 359.825 99.987 364.305 99.7572C365.665 99.6879 367.146 100.117 368.237 98.8598C379.315 98.61 390.406 97.603 401.442 99.4334C402.798 100.753 402.208 102.315 401.848 103.766C401.284 106.03 401.287 108.284 402.247 110.355C405.506 117.385 409.632 123.716 417.809 125.665C422.034 126.671 424.14 128.728 425.59 133.107C428.998 143.401 437.568 148.203 447.579 150.503C450.634 151.205 452.51 152.496 453.879 155.26C456.923 161.408 465.575 165.546 472.499 164.682C475.227 164.341 477.861 162.96 480.717 163.791C480.706 165.034 481.622 165.795 482.26 166.689C486.966 173.28 487.085 183.957 482.199 190.724C479.96 193.824 476.964 195.258 473.655 196.36C469.929 197.601 469.869 197.487 469.863 201.497C469.834 220.515 469.821 239.533 469.799 258.551C469.795 261.77 469.5 264.921 467.921 267.837C465.771 271.807 462.103 272.861 458.021 272.895C447.663 272.984 437.304 272.95 426.944 272.981C423.241 272.992 423.241 273.013 422.489 276.647C422.319 277.464 421.971 278.289 422.006 279.097C422.351 287.07 420.838 294.962 421.021 302.926C421.059 304.624 420.88 306.331 422.767 307.249Z" fill="#EDCEB4"/>
<path fill-rule="evenodd" clip-rule="evenodd" d="M222.597 164.454C222.829 165.398 223.218 166.334 223.271 167.287C224.194 184.206 222.501 200.796 216.687 216.811C211.359 231.487 203.54 244.598 191.889 255.211C189.927 256.999 187.892 258.726 185.752 260.295C184.381 261.3 183.767 262.338 183.794 264.106C183.925 272.639 183.9 281.175 183.93 289.71C186.926 296.717 185.242 301.581 178.893 305.099C165.134 312.724 150.723 312.376 136.035 308.778C131.682 307.712 127.416 306.337 123.321 304.46C120.25 303.053 118.739 300.835 119.385 297.441C121.208 287.868 120.015 278.199 120.362 268.587C122.436 266.575 123.516 268.787 124.583 269.791C130.164 275.036 136.691 278.473 144.212 279.64C156.197 281.501 166.817 278.824 174.8 269.053C178.312 264.756 179.637 259.659 179.387 254.127C179.196 249.885 178.238 249.076 174.164 250.662C166.44 253.668 158.503 253.507 150.537 252.487C141.017 251.27 134.369 245.234 128.208 238.547C124.172 234.167 122.617 234.231 119.598 239.398C115.391 246.601 115.516 254.005 118.779 261.561C119.414 263.032 121.505 264.711 119.058 266.468C105.313 259.497 94.8335 249.054 86.7425 236.089C81.6016 227.852 77.6499 219.066 74.9289 209.753C74.2769 207.52 73.4674 206.965 70.9008 207.006C60.9424 207.165 50.9947 203.239 46.543 193.747C43.089 186.383 44.3244 179.572 49.1944 173.365C53.8615 167.416 60.3297 164.655 67.6783 163.697C68.6151 163.575 69.6862 163.866 70.3244 162.833C71.299 161.068 72.9913 161.512 74.4436 161.655C83.1866 162.516 92.0238 162.298 100.668 164.351C106.473 165.728 107.588 165.064 110.143 159.579C118.588 141.454 124.533 122.64 125.518 102.501C125.601 100.819 125.624 99.0796 127.55 98.2677C133.929 97.5769 140.271 96.6116 146.688 96.1806C161.36 95.1945 175.982 94.7619 190.421 98.3201C198.053 106.015 202.759 115.425 206.336 125.485C209.332 133.906 211.682 142.548 212.926 151.363C213.832 157.782 215.477 162.944 222.597 164.454Z" fill="#D7A67D"/>
<path fill-rule="evenodd" clip-rule="evenodd" d="M480.717 163.79C474.059 166.395 467.52 166.585 460.83 163.568C456.746 161.726 453.719 159.164 452.37 154.901C451.743 152.915 450.733 152.151 448.579 151.843C441.159 150.781 434.813 147.381 429.577 142.016C426.59 138.955 424.376 135.362 423.768 131.094C423.454 128.886 422.473 127.948 420.436 127.54C418.801 127.213 417.202 126.668 415.624 126.115C411.263 124.586 407.738 121.98 405.342 117.96C404.7 116.881 404.084 115.774 403.324 114.78C399.952 110.372 399.409 105.676 401.745 100.645C401.533 95.0585 404.89 91.1139 408.628 87.9127C415.826 81.75 424.039 78.2958 433.663 82.11C435.962 83.0214 437.693 82.2172 439.545 81.2226L439.489 81.2619C439.875 81.1324 440.098 80.7615 440.468 80.6097C448.115 72.8841 457.323 69.4477 467.927 72.2195C475.714 74.255 481.608 79.1848 483.844 87.4007C484.25 88.895 484.953 89.7654 486.263 90.4894C497.028 96.4339 502.71 105.785 503.969 117.806C504.595 123.786 502.925 129.273 498.06 133.195C495.748 135.06 494.892 137.047 495.16 139.978C495.856 147.568 493.169 153.907 487.663 159.181C485.595 161.162 483.221 162.539 480.717 163.79Z" fill="#6E4E3E"/>
<path fill-rule="evenodd" clip-rule="evenodd" d="M238.878 541.54C236.724 532.592 235.032 523.549 233.835 514.426C233.039 508.349 232.509 502.237 231.895 496.137C229.499 472.317 229.776 448.428 230.263 424.547C230.425 416.615 231.396 408.716 232.392 400.83C233.282 393.78 233.978 386.704 235.164 379.694C237.046 368.574 239.224 357.519 242.684 346.757C245.629 362.861 248.051 379.053 250.982 395.164C253.613 409.63 256 424.144 258.578 438.623C261.035 452.421 263.194 466.27 265.564 480.082C266.08 483.088 267.077 486.009 267.178 489.094C267.214 490.183 270.682 506.563 271.661 514.155C272.249 518.716 273.089 523.256 274.058 527.753C274.664 530.561 274.798 533.431 276.577 536.064C278.817 539.379 276.524 543.017 272.216 543.369C269.156 543.619 266.06 543.433 262.984 543.537C261.799 543.576 260.423 543.048 259.509 544.343C258.143 543.466 256.618 543.474 255.07 543.484C249.516 543.521 243.951 543.311 238.439 544.255C239.141 543.438 239.133 542.597 238.878 541.54Z" fill="#FDF2E8"/>
<path fill-rule="evenodd" clip-rule="evenodd" d="M53.5066 335.882C61.7242 349.571 67.3952 364.16 69.5327 380.073C70.5166 387.396 71.8053 394.684 73.1735 401.947C73.824 405.399 73.8749 408.893 74.2615 412.351C75.2377 421.083 75.5718 429.886 76.2517 438.654C78.7542 470.92 77.7202 503.239 77.7317 535.542C77.7333 539.306 76.6946 543.024 77.0804 546.82C73.8603 546.83 70.6393 546.89 67.4199 546.84C64.2398 546.792 62.4804 545.343 61.9695 542.23C60.2163 531.55 58.5611 520.854 56.8055 510.175C55.8378 504.289 54.6163 498.442 53.742 492.544C52.9294 487.054 52.6663 481.477 51.7063 476.018C50.9825 471.897 51.4725 467.663 50.2594 463.619C50.1414 463.225 50.1089 462.784 50.1344 462.372C50.6044 454.824 49.1212 447.37 49.1991 439.819C49.4036 420.101 49.1297 400.378 49.3604 380.661C49.4237 375.281 49.8651 369.851 50.7726 364.494C51.329 361.21 51.2248 357.853 51.5875 354.526C52.2642 348.322 52.8059 342.091 53.5066 335.882Z" fill="#FDF2E8"/>
<path fill-rule="evenodd" clip-rule="evenodd" d="M120.846 267.985C120.784 276.782 120.721 285.578 120.659 294.374C120.655 295.072 120.68 295.771 120.647 296.468C120.389 301.974 120.403 301.93 125.759 304.106C135.844 308.202 146.28 310.367 157.193 309.882C164.384 309.562 171.285 308.097 177.559 304.344C178.39 303.848 179.338 303.548 180.224 303.14C182.744 301.982 184.123 300.207 183.91 297.24C183.73 294.743 183.91 292.221 183.93 289.71C186.811 290.068 189.584 289.223 192.411 288.955C191.981 289.581 190.653 289.653 191.089 290.797C193.604 297.399 191.683 303.843 189.959 310.088C183.375 333.957 171.677 355.317 157.088 375.184C155.422 377.454 155.414 377.337 153.29 375.627C139.637 364.638 129.344 351.097 122.05 335.188C118.297 327.002 116.033 318.393 114.133 309.657C113.156 305.164 111.833 300.74 111.371 296.143C111.265 295.097 110.824 294.279 109.847 293.804C112.101 293.565 114.352 293.311 116.607 293.093C119.847 292.781 119.883 292.793 119.905 289.329C119.941 283.615 119.932 277.901 119.929 272.187C119.928 270.516 119.884 268.843 119.859 267.172C120.737 266.779 120.966 267.172 120.846 267.985Z" fill="#FDF2E8"/>
<path fill-rule="evenodd" clip-rule="evenodd" d="M127.55 98.2679C126.829 99.1986 126.67 100.263 126.637 101.42C126.02 122.922 119.465 142.828 110.215 161.994C108.179 166.212 106.687 167.013 102.252 165.984C95.8291 164.493 89.3933 163.575 82.7639 163.493C78.6347 163.441 74.5108 162.44 70.3245 162.833C71.6449 151.339 74.1335 140.139 78.6084 129.421C80.3262 125.305 82.0601 121.216 84.5349 117.47C85.2888 116.33 86.0149 114.985 86.1623 113.668C86.508 110.584 88.3446 109.052 90.9806 107.976C100.549 104.068 110.498 101.569 120.65 99.7745C122.966 99.3643 125.251 98.7745 127.55 98.2679Z" fill="#DADADB"/>
<path fill-rule="evenodd" clip-rule="evenodd" d="M120.846 267.985C120.517 267.714 120.189 267.442 119.86 267.171C119.592 266.937 119.324 266.701 119.057 266.467C120.138 264.562 118.387 263.391 117.771 262.008C113.81 253.121 114.399 244.692 120.006 236.683C120.482 236.003 121.003 235.31 121.642 234.795C123.927 232.956 125.603 233.149 127.302 235.533C130.755 240.379 135.099 244.207 140.068 247.465C144.184 250.163 148.715 251.5 153.466 251.799C160.721 252.254 168.025 252.426 174.867 249.183C175.369 248.945 175.903 248.729 176.444 248.633C179.119 248.156 180.398 249.164 180.584 251.877C181.655 267.497 172.288 277.167 158.802 280.336C145.114 283.554 133.145 279.609 123.113 269.792C122.42 269.114 121.849 268.277 120.846 267.985Z" fill="#DADADB"/>
<path fill-rule="evenodd" clip-rule="evenodd" d="M439.546 81.2227C437.229 84.363 437.229 84.363 433.655 83.1001C423.964 79.6737 412.913 83.3121 406.588 91.6036C404.442 94.4178 403.032 97.4587 401.745 100.646C400.637 99.3654 399.137 99.8989 397.81 99.8835C389.422 99.7894 381.032 99.7771 372.643 99.7154C371.131 99.7046 369.537 100.005 368.238 98.8596C369.504 93.7794 371.428 89.0654 375.329 85.3406C380.71 80.2034 387.002 78.2589 394.226 80.1008C397.269 80.8765 399.152 80.3075 401.365 77.8271C409.39 68.8278 422.891 67.8641 432.519 75.2689C434.95 77.1386 437.208 79.2319 439.546 81.2227Z" fill="#93634B"/>
<path fill-rule="evenodd" clip-rule="evenodd" d="M222.597 164.454C215.063 163.994 213.642 162.761 212.537 155.475C211.067 145.798 208.726 136.331 205.68 127.037C202.785 118.205 198.696 109.977 192.937 102.639C191.887 101.301 190.961 99.9324 190.421 98.3194C201.717 101.738 208.035 109.97 211.632 120.613C214.476 129.023 217.139 137.503 219.549 146.046C221.24 152.038 222.613 158.149 222.597 164.454Z" fill="#DADADB"/>
<path fill-rule="evenodd" clip-rule="evenodd" d="M355.596 273.709C365.188 273.421 377.696 273.764 385.944 273.709C388.984 273.689 392.023 273.706 395.182 274.053C382.79 281.278 369.976 287.591 357.168 293.911L357.164 293.908C356.448 292.245 356.634 290.558 357.026 288.864C357.108 286.381 357.191 283.897 357.273 281.413C357.168 279.286 356.656 275.803 355.596 273.709Z" fill="#A9734F"/>
<path fill-rule="evenodd" clip-rule="evenodd" d="M236.032 104.009C236.353 104.244 236.673 104.479 236.995 104.713C236.503 104.711 236.194 104.461 236.032 104.009Z" fill="#DEDBD2"/>
<path fill-rule="evenodd" clip-rule="evenodd" d="M303.159 198.279C302.683 197.903 302.687 197.527 303.157 197.149C303.156 197.148 303.376 197.374 303.376 197.374C303.615 197.599 303.616 197.824 303.378 198.05L303.159 198.279Z" fill="#EDCEB4"/>
<path fill-rule="evenodd" clip-rule="evenodd" d="M440.468 80.6094C440.284 81.0396 439.967 81.2709 439.49 81.2624C439.66 80.8114 440.041 80.6757 440.468 80.6094Z" fill="#93634B"/>
<path fill-rule="evenodd" clip-rule="evenodd" d="M395.089 187.264C395.093 188.913 394.618 190.024 392.802 190.673C385.575 193.256 378.26 194.664 370.598 193.122C367.268 192.451 364.174 191.205 361.444 189.165C355.453 184.688 354.426 178.177 359.11 172.356C366.293 163.429 375.849 159.761 387.184 160.422C388.594 161.192 389.422 162.453 390.026 163.876C392.792 170.396 394.573 177.199 395.758 184.165C395.945 185.26 395.995 186.379 395.089 187.264Z" fill="#0B0705"/>
<path fill-rule="evenodd" clip-rule="evenodd" d="M385.112 167.885C385.506 169.288 385.951 169.981 386.895 169.781C387.866 169.575 387.929 168.706 387.781 167.903C387.6 166.922 387.377 165.941 387.071 164.994C386.884 164.417 386.338 164.125 385.732 164.267C385.133 164.407 384.784 164.916 384.819 165.502C384.877 166.496 385.059 167.483 385.112 167.885Z" fill="#E9EBEB"/>
<path fill-rule="evenodd" clip-rule="evenodd" d="M434.666 215.436C434.365 225.17 430.34 231.776 422.8 235.812C415.382 239.784 407.81 239.296 400.487 234.919C395.5 231.938 392.734 227.464 391.064 222.112C390.679 220.877 390.681 219.609 390.835 218.376C391.21 215.364 394.758 214.044 397.212 215.88C398.797 217.065 399.224 218.836 399.849 220.521C402.202 226.878 406.841 229.679 414.313 229.234C419.385 228.932 423.696 224.78 425.37 219.241C426.243 216.353 425.79 213.751 424.971 211.099C424.31 208.955 425.423 207.598 426.809 206.388C427.971 205.375 429.471 205.389 430.759 206.041C432.137 206.736 433.316 207.822 433.625 209.453C434.063 211.767 435.078 214.013 434.666 215.436Z" fill="#DA9CB5"/>
<path fill-rule="evenodd" clip-rule="evenodd" d="M395.089 187.264C393.811 177.917 391.453 168.888 387.183 160.421C391.802 160.043 396.378 160.101 400.842 161.583C402.701 162.201 404.394 163.118 406.128 164.029C411.859 167.044 412.616 173.731 408.758 178.721C405.935 182.373 401.973 184.891 398.515 187.909C397.204 189.054 396.013 188.639 395.089 187.264Z" fill="white"/>
<path fill-rule="evenodd" clip-rule="evenodd" d="M376.224 139.139C368.642 139.151 363.735 143.065 361.988 150.993C361.417 153.587 360.392 154.783 359.05 154.215C357.057 153.373 357.345 151.676 357.608 149.932C358.815 141.938 365.516 134.651 376.848 134.608C384.622 134.579 391.216 137.861 396.265 143.915C396.889 144.663 397.448 145.484 397.911 146.34C398.561 147.547 398.701 148.792 397.353 149.655C396.138 150.434 395.213 149.679 394.436 148.833C393.777 148.114 393.27 147.259 392.635 146.517C388.489 141.682 383.3 139.057 376.224 139.139Z" fill="#705040"/>
<path fill-rule="evenodd" clip-rule="evenodd" d="M479.163 178.91C479.535 182.669 476.912 185.85 472.371 187.193C469.896 187.924 468.765 187.421 468.479 185.002C467.991 180.878 467.845 176.702 468.739 172.571C469.166 170.598 470.293 170.091 472.098 170.75C475.868 172.128 479.809 175.034 479.163 178.91Z" fill="#C8A180"/>
<path fill-rule="evenodd" clip-rule="evenodd" d="M352.621 198.126C352.498 198.774 352.014 198.954 351.457 198.957C350.687 198.961 350.1 198.502 350.11 197.793C350.121 197.089 350.689 196.569 351.485 196.739C352.171 196.886 352.647 197.335 352.621 198.126Z" fill="#E49057"/>
<path fill-rule="evenodd" clip-rule="evenodd" d="M428.437 183.129C428.317 183.82 427.812 184.297 427.114 184.319C426.245 184.346 426.002 183.652 426.17 182.939C426.329 182.262 426.782 181.725 427.595 181.899C428.172 182.023 428.479 182.446 428.437 183.129Z" fill="#E38F55"/>
<path fill-rule="evenodd" clip-rule="evenodd" d="M348.371 203.189C348.41 204.001 347.916 204.449 347.212 204.544C346.585 204.63 346.23 204.132 346.243 203.547C346.255 202.992 346.536 202.504 347.178 202.435C347.749 202.374 348.231 202.526 348.371 203.189Z" fill="#E49259"/>
<path fill-rule="evenodd" clip-rule="evenodd" d="M420.331 187.752C419.659 187.624 419.484 187.138 419.548 186.561C419.62 185.924 420.113 185.624 420.677 185.605C421.271 185.586 421.778 185.943 421.703 186.575C421.618 187.298 421.148 187.779 420.331 187.752Z" fill="#E49058"/>
<path fill-rule="evenodd" clip-rule="evenodd" d="M433.935 191.135C433.261 191.096 432.934 190.657 432.954 190.068C432.974 189.487 433.336 189.015 433.961 188.948C434.526 188.888 435.1 189.009 435.149 189.729C435.205 190.558 434.638 190.923 433.935 191.135Z" fill="#E38D52"/>
<path fill-rule="evenodd" clip-rule="evenodd" d="M426.982 187.401C427.576 187.424 428.028 187.704 428.098 188.293C428.166 188.87 427.836 189.322 427.235 189.396C426.636 189.47 426.209 189.154 426.174 188.529C426.143 187.976 426.303 187.481 426.982 187.401Z" fill="#E49057"/>
<path fill-rule="evenodd" clip-rule="evenodd" d="M353.995 203.005C354.133 202.443 354.512 201.978 355.087 201.967C355.673 201.956 356.124 202.42 356.141 203.022C356.159 203.665 355.656 204.012 355.068 204.014C354.48 204.017 354.035 203.699 353.995 203.005Z" fill="#E5925A"/>
<path fill-rule="evenodd" clip-rule="evenodd" d="M351.595 207.67C352.169 207.83 352.523 208.22 352.454 208.8C352.383 209.398 351.904 209.699 351.327 209.663C350.659 209.62 350.487 209.085 350.517 208.53C350.554 207.893 350.996 207.658 351.595 207.67Z" fill="#E69E6C"/>
<path fill-rule="evenodd" clip-rule="evenodd" d="M422.226 194.973C422.228 195.719 421.886 196.094 421.32 196.172C420.893 196.232 420.554 195.946 420.51 195.506C420.446 194.889 420.842 194.472 421.39 194.428C421.67 194.404 421.987 194.806 422.226 194.973Z" fill="#E38547"/>
<path fill-rule="evenodd" clip-rule="evenodd" d="M340.002 209.866C340.017 210.363 339.714 210.613 339.279 210.687C338.681 210.789 338.171 210.635 338.078 209.942C338.013 209.452 338.352 209.194 338.789 209.122C339.388 209.022 339.869 209.178 340.002 209.866Z" fill="#E3884B"/>
<path fill-rule="evenodd" clip-rule="evenodd" d="M303.378 198.05C303.341 197.824 303.34 197.598 303.375 197.373C303.701 197.443 303.828 197.619 303.693 197.868C303.644 197.959 303.486 197.991 303.378 198.05Z" fill="#D4A689"/>
<path fill-rule="evenodd" clip-rule="evenodd" d="M159.38 158.52C164.674 155.974 170.256 156.731 175.752 157.305C180.091 157.758 184.133 159.319 187.742 161.87C189.465 163.088 191.024 164.465 192.209 166.22C195.526 171.13 195.211 175.906 191.292 180.358C186.83 185.426 180.92 187.707 174.507 188.956C172.903 189.268 171.252 189.924 169.614 189.004C168.394 188.35 167.976 187.138 167.579 185.955C164.875 177.893 162.129 169.843 159.495 161.758C159.154 160.711 158.774 159.621 159.38 158.52Z" fill="#040607"/>
<path fill-rule="evenodd" clip-rule="evenodd" d="M159.38 158.52C162.791 168.681 166.203 178.841 169.614 189.002C166.873 190.535 164.132 189.124 161.441 188.858C155.429 188.264 149.671 186.705 144.57 183.231C143.052 182.198 141.633 181.062 140.536 179.623C138.434 176.868 137.912 173.882 139.468 170.621C142.045 165.222 153.138 158.437 159.38 158.52Z" fill="white"/>
<path fill-rule="evenodd" clip-rule="evenodd" d="M162.308 236.008C166.533 236.023 169.86 234.35 172.173 230.761C172.929 229.588 173.636 228.378 174.484 227.274C175.195 226.347 176.087 225.758 177.382 226.428C178.56 227.037 178.934 227.972 178.794 229.185C178.732 229.732 178.632 230.302 178.409 230.799C173.73 241.235 158.866 246.731 149.534 235.507C144.723 229.72 143.954 222.878 146.977 215.826C147.84 213.815 149.402 212.917 150.857 213.426C152.41 213.97 152.866 215.723 151.984 218.044C150.536 221.854 150.4 225.699 152.024 229.434C153.929 233.815 157.515 235.984 162.308 236.008Z" fill="#E7C0CE"/>
<path fill-rule="evenodd" clip-rule="evenodd" d="M70.2843 195.681C70.1446 195.674 70.0049 195.672 69.8652 195.659C65.7345 195.263 60.3876 188.679 60.1977 183.754C60.0179 179.095 63.4148 174.99 68.2856 173.982C70.7426 173.473 71.5104 174.285 72.0506 177.06C73.0677 182.287 72.4882 187.628 73.3856 192.861C73.7275 194.852 72.5954 195.738 70.2843 195.681Z" fill="#8E6644"/>
<path fill-rule="evenodd" clip-rule="evenodd" d="M167.848 130.811C177.064 130.794 184.123 133.595 189.736 139.738C190.673 140.764 191.449 141.939 192.265 143.07C193.072 144.188 193.466 145.44 192.214 146.421C190.89 147.458 189.596 147.052 188.557 145.798C188.379 145.584 188.239 145.339 188.079 145.11C181.136 135.195 168.588 132.823 157.329 137.852C155.798 138.536 154.356 139.437 152.794 140.028C151.612 140.475 150.195 140.657 149.551 139.141C148.958 137.746 149.722 136.714 150.917 136.013C154.455 133.937 161.061 130.564 167.848 130.811Z" fill="#545459"/>
<path fill-rule="evenodd" clip-rule="evenodd" d="M162.912 120.883C162.386 121.399 161.739 121.631 161.017 121.629C156.393 121.613 151.868 122.381 147.345 123.235C146.289 123.434 145.132 123.682 144.074 123.034C145.866 121.634 153.788 120.124 159.534 120.08C160.531 120.89 161.959 119.892 162.912 120.883Z" fill="#947056"/>
<path fill-rule="evenodd" clip-rule="evenodd" d="M160.981 113.177C161.923 112.388 163.075 112.48 164.18 112.464C168.651 112.402 173.124 112.338 177.595 112.359C178.457 112.362 179.623 111.932 180.254 113.797C174.256 112.457 168.592 114.677 162.799 114.035C162.319 113.483 161.375 113.911 160.981 113.177Z" fill="#896A52"/>
<path fill-rule="evenodd" clip-rule="evenodd" d="M166.062 119.92C171.199 118.694 176.337 118.639 181.475 119.912C181.085 120.619 180.233 120.239 179.719 120.656C176.027 120.658 172.336 120.661 168.644 120.663C167.881 120.08 166.739 120.801 166.062 119.92Z" fill="#92614B"/>
<path fill-rule="evenodd" clip-rule="evenodd" d="M133.792 169.717C130.874 171.473 123.11 171.251 116.366 169.717H133.792Z" fill="#8B6A52"/>
<path fill-rule="evenodd" clip-rule="evenodd" d="M125.024 181.439C125.505 181.379 125.987 181.319 126.469 181.259C126.88 181.14 127.168 180.842 127.475 180.571C130.068 179.847 132.407 178.261 136.098 177.934C133.001 180.9 129.687 181.151 126.748 182.213C125.887 182.591 125.018 182.985 125.024 181.439Z" fill="#916F56"/>
<path fill-rule="evenodd" clip-rule="evenodd" d="M179.719 120.655C180.153 120.052 180.823 120.008 181.475 119.913C184.557 120.099 187.735 119.429 190.675 121.113C186.987 122.075 183.376 120.495 179.719 120.655Z" fill="#83604B"/>
<path fill-rule="evenodd" clip-rule="evenodd" d="M132.677 175.531C129.8 176.934 126.698 175.978 123.696 176.519C125.402 175.258 127.209 174.582 129.262 174.725C130.283 175.492 131.72 174.495 132.677 175.531Z" fill="#967258"/>
<path fill-rule="evenodd" clip-rule="evenodd" d="M125.024 181.439C125.425 182.081 126.082 182.156 126.748 182.213C124.841 183.359 122.821 184.027 120.58 183.88C121.642 182.122 123.513 182.139 125.024 181.439Z" fill="#927257"/>
<path fill-rule="evenodd" clip-rule="evenodd" d="M166.062 119.92C166.954 120.063 167.962 119.804 168.645 120.665C166.733 120.737 164.823 120.81 162.912 120.883C161.78 120.641 160.449 121.231 159.534 120.08C161.71 120.026 163.886 119.973 166.062 119.92Z" fill="#83604B"/>
<path fill-rule="evenodd" clip-rule="evenodd" d="M160.981 113.177C161.673 113.281 162.392 113.33 162.799 114.035C160.69 114.234 158.581 114.433 155.576 114.718C157.709 112.759 159.419 113.287 160.981 113.177Z" fill="#856851"/>
<path fill-rule="evenodd" clip-rule="evenodd" d="M132.677 175.531C131.537 175.265 130.195 175.856 129.261 174.725C130.908 174.644 132.553 174.563 134.26 174.478C134.119 175.787 133.258 175.395 132.677 175.531Z" fill="#8C644D"/>
<path fill-rule="evenodd" clip-rule="evenodd" d="M127.475 180.571C127.141 180.801 126.807 181.03 126.47 181.259C126.804 181.03 127.139 180.8 127.475 180.571Z" fill="#927257"/>
<path fill-rule="evenodd" clip-rule="evenodd" d="M391.987 185.404C392.012 186.335 391.935 187.337 390.549 187.341C389.416 187.345 389.299 186.489 389.227 185.607C388.918 181.836 388.359 178.108 387.215 174.489C386.95 173.65 386.724 172.744 387.69 172.319C389.017 171.735 389.446 172.929 389.75 173.785C391.071 177.502 391.415 181.421 391.987 185.404Z" fill="#E5E4E1"/>
<path fill-rule="evenodd" clip-rule="evenodd" d="M170.695 172.955C170.678 174.173 170.596 175.027 169.547 175.233C168.764 175.387 168.153 174.925 167.881 174.274C166.491 170.954 165.148 167.615 163.83 164.266C163.496 163.419 163.655 162.593 164.547 162.145C165.451 161.692 166.239 162.087 166.655 162.872C167.298 164.089 167.805 165.382 168.309 166.666C169.168 168.855 169.979 171.063 170.695 172.955Z" fill="#EEEEEF"/>
<path fill-rule="evenodd" clip-rule="evenodd" d="M169.725 179.37C169.621 178.276 169.872 177.528 170.791 177.213C171.724 176.894 172.502 177.319 172.761 178.164C173.199 179.589 173.513 181.07 173.696 182.55C173.783 183.252 173.178 183.826 172.454 183.974C171.723 184.124 170.994 183.799 170.754 183.129C170.296 181.85 170.025 180.505 169.725 179.37Z" fill="#DEE1E1"/>
<path fill-rule="evenodd" clip-rule="evenodd" d="M147.367 174.493C147.573 174.28 147.728 173.993 147.866 174.001C148.432 174.034 148.793 174.379 148.802 174.958C148.802 175.041 148.329 175.26 148.189 175.19C147.875 175.031 147.633 174.731 147.367 174.493Z" fill="#F5E9DF"/>
</g>
<path fill-rule="evenodd" clip-rule="evenodd" d="M225.392 62.4895C233.514 50.3049 242.208 38.5325 251.182 26.9707C253.228 24.3356 255.562 21.888 257.845 19.4621C262.822 14.1725 267.644 8.73395 272.615 3.43975C275.801 0.0481866 279.265 -0.444261 283.199 0.301357C294.48 2.4371 305.331 5.8688 315.585 11.1792C321.529 14.2574 327.469 17.3333 333.294 20.6299C335.217 21.719 336.296 24.1542 335.681 26.3648C335.234 27.9657 334.545 29.5194 333.803 31.0145C324.854 49.0452 315.486 66.8467 305.254 84.1935C302.565 88.7521 300.526 93.7013 298.229 98.4907C295.091 105.031 291.499 111.36 287.927 117.68C286.58 120.061 284.101 120.777 281.378 119.897C273.149 117.239 264.975 114.411 256.726 111.821C250.341 109.815 243.921 107.93 237.81 105.157C237.554 103.115 239.043 101.815 239.938 100.288C242.894 95.2442 244.947 89.8729 244.742 83.9897C244.41 74.4827 239.015 68.571 230.521 65.0984C228.742 64.3713 226.643 64.2602 225.392 62.4895Z" fill="#DEDBD2"/>
<path fill-rule="evenodd" clip-rule="evenodd" d="M225.392 62.4895C230.813 63.5794 235.718 65.7259 239.694 69.6709C245.813 75.7431 247 83.0828 244.97 91.1518C243.661 96.3542 241.16 100.983 237.81 105.158C237.608 105.157 237.406 105.148 237.204 105.13C236.78 105.037 236.53 104.706 236.242 104.427C231.796 92.9032 227.363 81.3731 222.886 69.8608C222.286 68.3171 222.204 66.9524 223.275 65.5816C224.042 64.599 224.69 63.5238 225.392 62.4895Z" fill="#A69A94"/>
<path fill-rule="evenodd" clip-rule="evenodd" d="M286.166 33.7588C288.188 34.0953 289.827 32.8032 291.671 32.2243C292.81 31.8669 293.923 32.0769 294.592 33.2277C295.299 34.4442 294.659 35.3596 293.811 36.1816C290.875 39.0221 285.158 39.523 280.366 37.3688C275.922 35.3712 273.977 32.1903 273.984 27.5105C273.99 24.0171 275.97 21.7494 278.396 19.7927C283.476 15.6956 291.571 16.53 295.493 21.1265C296.359 22.1422 297.163 23.2066 296.112 24.4501C295.027 25.7337 293.577 25.7252 292.396 24.6462C290.438 22.8578 288.307 21.8204 285.587 22.0141C283.514 22.1615 281.809 22.9573 280.41 24.437C278.101 26.8776 278.528 30.5825 281.351 32.3879C282.781 33.3018 284.325 33.9587 286.166 33.7588Z" fill="#A79B95"/>
<path fill-rule="evenodd" clip-rule="evenodd" d="M302.396 34.3451C305.745 33.5138 307.12 30.8902 309.472 29.7062C310.076 29.4013 310.49 28.7328 311.081 28.384C312.234 27.7032 313.516 26.4836 314.742 28.0621C315.897 29.5487 315.257 30.9844 313.962 32.0974C312.485 33.3656 310.96 34.5805 309.422 35.7753C306.127 38.3363 302.821 40.8843 299.496 43.4059C298.515 44.15 297.501 45.1365 296.139 44.2087C294.721 43.2431 294.869 41.7511 295.265 40.4157C296.611 35.8772 298.021 31.3564 299.534 26.8711C299.989 25.5219 300.958 24.2885 302.655 24.7284C304.39 25.1776 304.528 26.7044 304.214 28.1238C303.799 30.0018 303.146 31.8272 302.396 34.3451Z" fill="#A79B95"/>
<path fill-rule="evenodd" clip-rule="evenodd" d="M294.174 65.321C293.763 66.962 292.689 66.6193 291.588 66.1492C288.123 64.6704 284.656 63.1922 281.197 61.6987C274.017 58.5997 266.789 55.6326 259.384 53.1001C257.924 52.6015 255.346 52.3615 255.96 50.2828C256.698 47.7797 258.868 49.636 260.206 50.086C270.8 53.6482 281.073 58.0323 291.267 62.5994C292.487 63.1459 293.991 63.5481 294.174 65.321Z" fill="#A89C96"/>
<path fill-rule="evenodd" clip-rule="evenodd" d="M298.371 58.1033C298.095 59.099 297.528 59.6478 296.524 59.2673C294.827 58.6251 293.12 57.9852 291.492 57.1902C283.704 53.3857 275.625 50.2843 267.546 47.1784C266.244 46.6774 264.971 46.0931 263.719 45.4741C262.945 45.0913 262.23 44.4761 262.599 43.5066C263.04 42.3488 263.948 42.3326 265.019 42.7533C268.527 44.1303 272.1 45.346 275.569 46.8117C282.385 49.6915 289.156 52.6779 295.921 55.6743C297.003 56.1536 298.423 56.4654 298.371 58.1033Z" fill="#A89B95"/>
<path fill-rule="evenodd" clip-rule="evenodd" d="M287.458 71.9741C287.477 72.9644 286.396 73.5387 285.073 72.78C278.382 68.9384 271.034 66.6274 263.981 63.6326C260.642 62.2155 257.263 60.891 253.928 59.4622C253.062 59.091 251.964 58.6248 252.422 57.3481C252.863 56.1178 254.101 56.2691 254.934 56.5786C258.331 57.8413 261.672 59.2531 265.021 60.6409C271.723 63.418 278.624 65.7244 285.061 69.1252C286.143 69.6964 287.463 70.1008 287.458 71.9741Z" fill="#A89C96"/>
<path fill-rule="evenodd" clip-rule="evenodd" d="M265.354 69.2332C265.142 70.3918 264.3 70.9699 263.267 70.6503C258.903 69.3004 254.49 68.0469 250.506 65.7112C249.657 65.2134 249.469 64.4222 249.926 63.5731C250.304 62.87 250.941 62.7357 251.693 63.0174C255.841 64.5719 260 66.1002 264.141 67.6725C264.795 67.921 265.325 68.3927 265.354 69.2332Z" fill="#A99D97"/>
<path fill-rule="evenodd" clip-rule="evenodd" d="M278.097 88.585C275.086 88.5819 272.01 89.3762 269.117 87.8031C268.933 87.7028 268.43 88.1906 268.075 88.4044C267.341 88.5171 266.924 88.328 267.2 87.4805C267.176 86.9247 266.14 86.0101 267.262 85.8981C268.744 85.7499 270.054 85.0777 271.904 85.8387C273.906 86.6615 276.64 87.1069 279.007 85.8704C279.899 85.4705 280.012 85.9252 279.872 86.6592C279.386 87.0042 279.243 87.3516 279.863 87.7058C279.927 89.3121 278.937 88.7988 278.097 88.585Z" fill="#2864EE"/>
<path fill-rule="evenodd" clip-rule="evenodd" d="M278.097 88.585C278.743 88.4059 279.462 88.3743 279.863 87.7059C281.671 87.6225 283.312 88.1265 285.166 88.981C282.799 89.8385 281.663 89.7497 278.097 88.585Z" fill="#547FE8"/>
<path fill-rule="evenodd" clip-rule="evenodd" d="M279.872 86.659C279.583 86.3966 279.295 86.1334 279.007 85.8709C280.07 84.8274 281.179 83.9081 283.086 84.2516C282.436 85.9466 281.016 86.1218 279.872 86.659Z" fill="#4A7AE9"/>
<path fill-rule="evenodd" clip-rule="evenodd" d="M267.199 87.4806C267.492 87.7886 267.784 88.0965 268.076 88.4045C267.966 88.6461 267.874 88.8977 267.742 89.127C267.404 89.7128 266.96 90.3982 266.231 89.9598C265.465 89.499 265.91 88.7997 266.324 88.2717C266.563 87.9669 266.904 87.7415 267.199 87.4806Z" fill="#5883E7"/>
</svg>
