<svg width="1000" height="1000" viewBox="0 0 1000 1000" fill="none" xmlns="http://www.w3.org/2000/svg">
<g clip-path="url(#clip0_4063_36202)">
<path fill-rule="evenodd" clip-rule="evenodd" d="M278.453 176.921C279.605 182.068 282.996 182.97 287.87 182.909C310.82 182.62 333.776 182.81 356.727 182.589C361.637 182.542 366.335 183.493 371.022 184.427C377.174 185.653 382.265 192.394 382.899 199.382C383.703 208.263 384.084 217.172 384.581 226.073C385.549 243.393 386.582 260.708 387.533 278.03C388.404 293.9 389.514 309.76 390.421 325.633C391.394 342.691 392.511 359.737 393.365 376.809C394.157 392.678 395.068 408.576 396.377 424.396C397.229 434.7 396.603 445.092 398.483 455.377C399.352 460.132 398.414 465.346 397.631 470.245C396.057 480.086 390.185 484.962 380.219 484.978C356.541 485.015 332.863 484.932 309.184 484.899C307.493 484.896 305.8 484.844 304.111 484.903C298.964 485.079 298.798 485.261 298.67 490.19C298.614 492.357 298.541 494.524 298.474 496.691C297.051 496.611 296.054 495.653 296.048 494.459C296.015 486.618 290.81 486.84 285.117 486.765C269.22 486.557 253.269 488.026 237.271 485.717C254.983 494.701 272.49 504.013 290.022 513.275C293.186 514.947 296.793 516.056 298.604 519.587C298.677 520.596 298.751 521.607 298.825 522.617C297.983 536.342 298.492 550.119 297.236 563.826C295.104 568.768 290.877 571.644 286.519 574.235C264.235 587.491 240.274 589.799 215.203 585.153C208.909 583.987 204.258 579.018 197.884 578.233C195.429 576.948 196.004 574.611 195.854 572.493C195.132 562.361 193.457 552.345 192.193 542.279C191.755 538.787 189.299 536.177 188.572 532.857C188.814 520.306 186.705 507.883 186.763 495.311C186.818 483.489 186.34 483.489 174.504 483.469C158.814 483.442 143.125 483.425 127.435 483.361C125.276 483.352 123.061 483.356 120.969 482.903C110.18 480.572 105.233 474.406 104.388 462.408C104.252 460.485 104.348 458.544 104.347 456.611C104.311 424.236 104.287 391.861 104.236 359.485C104.225 352.706 104.215 352.573 97.6318 350.776C84.6431 347.231 77.9084 336.143 76.6901 323.344C75.6515 312.429 79.2106 302.936 86.7029 294.933C89.2141 292.941 91.8039 294.406 94.2965 294.883C103.128 296.569 111.561 295.45 119.761 291.841C125.078 289.501 129.432 286.014 131.412 280.554C133.496 274.806 137.529 272.418 143.133 271.202C152.929 269.078 161.914 265.289 169.316 258.08C175.166 252.381 179.962 246.196 181.648 238.059C182.657 233.184 185.565 230.595 190.342 229.608C203.689 226.85 212.328 218.298 218.51 206.632C221.31 201.346 223.202 196.113 221.405 190.015C220.687 187.582 219.792 184.716 222.948 182.935C231.225 181 239.618 182.221 247.951 182.028C254.885 181.867 261.788 181.773 268.689 180.835C272.379 180.334 275.615 179.274 278.453 176.921Z" fill="#EDCEB4"/>
<path fill-rule="evenodd" clip-rule="evenodd" d="M221.914 184.2C224.069 191.21 225.864 198.259 221.732 205.167C215.775 215.128 210.191 225.911 197.853 229.001C189.02 231.213 184.018 234.863 181.28 244.469C177.751 256.852 166.94 263.995 155.537 269.424C153.592 270.351 151.489 271.005 149.399 271.554C145.218 272.653 140.491 272.738 136.936 274.844C133.536 276.859 133.685 282.099 131.261 285.43C129.528 287.811 127.555 289.878 124.973 291.307C114.218 297.265 102.974 299.713 90.8772 296.043C89.5004 295.625 88.0944 295.3 86.703 294.932C82.0294 292.439 77.3452 290.11 73.4226 286.296C63.973 277.11 59.3967 266.134 60.587 253.022C61.0491 247.94 59.4646 244.589 55.5127 241.322C46.7555 234.087 44.207 224.186 45.5878 213.248C48.1456 192.981 58.0412 177.477 76.059 167.491C78.0629 166.38 79.228 165.136 79.9763 162.787C86.1664 143.336 103.891 132.093 124.209 134.879C136.241 136.53 146.891 141.303 155.085 150.674C160.112 153.648 164.956 153.69 170.698 151.767C193.691 144.061 220.899 166.908 221.914 184.2Z" fill="#6E4E3E"/>
<path fill-rule="evenodd" clip-rule="evenodd" d="M822.562 371.638C827.909 367.265 833.814 363.677 837.873 357.688C846.384 345.125 848.854 332.336 841.262 318.496C840.708 317.487 840.604 316.23 840.291 315.087C850.975 308.64 862.013 302.745 871.767 294.849C883.567 294.832 895.322 294.386 907.159 295.671C917.431 296.787 927.91 296.009 938.298 296.02C949.653 296.03 961.008 296.006 972.363 295.954C976.21 295.936 980.01 295.961 983.854 295.014C987.882 294.022 992.036 294.339 995.587 297.089C998.926 299.677 999.407 302.512 996.543 305.708C993.646 308.943 990.619 312.142 987.245 314.852C977.449 322.721 968.803 331.834 959.482 340.215C943.52 354.569 928.196 369.631 912.31 384.072C900.173 395.105 888.065 406.153 876.129 417.407C860.169 432.457 843.773 447.044 827.642 461.916C825.278 464.095 822.735 465.202 819.761 464.178C816.621 463.096 815.443 460.104 815.505 457.194C815.803 443.21 814.637 429.21 816.457 415.228C817.264 409.038 816.766 402.678 816.859 396.395C816.422 395.464 816.368 394.42 817.015 393.692C822.027 388.05 823.097 381.486 821.758 374.298C821.577 373.33 821.956 372.423 822.562 371.638Z" fill="#D6CFC8"/>
<path fill-rule="evenodd" clip-rule="evenodd" d="M221.914 184.199C218.023 176.819 214.531 169.18 207.887 163.67C195.464 153.371 182.018 148.101 166.17 155.352C162.809 156.889 160.302 156.913 158.218 153.514C157.49 152.327 155.652 152.166 155.085 150.674C159.03 151.633 160.685 148.319 162.708 146.222C171.65 136.952 182.659 133.267 195.267 133.1C207.056 132.944 216.255 138.233 223.526 146.806C226.542 150.36 228.987 151.093 233.29 149.873C247.772 145.768 259.788 150.322 269.769 161.18C273.95 165.729 275.954 171.456 278.453 176.92C278.339 182.848 278.324 182.649 272.821 183.07C255.868 184.367 238.879 183.651 221.914 184.199Z" fill="#93634B"/>
<path fill-rule="evenodd" clip-rule="evenodd" d="M107.04 321.113C107.04 324.008 107.3 326.933 106.982 329.793C106.453 334.546 103.93 336.138 99.5278 334.906C93.363 333.181 88.0663 326.094 88.1942 319.741C88.3273 313.154 92.395 308.429 99.5358 306.564C104.058 305.384 106.414 306.88 106.912 311.708C107.233 314.811 106.974 317.975 106.974 321.113C106.995 321.113 107.017 321.113 107.04 321.113Z" fill="#C7A180"/>
<mask id="mask0_4063_36202" style="mask-type:alpha" maskUnits="userSpaceOnUse" x="14" y="55" width="881" height="897">
<path d="M168.88 807.27C126.572 779.861 92.8585 754.712 64.878 722.442C7.70731 656.494 -5.9054 589.119 49.9252 494.845C73.0687 455.758 103.998 422.297 135.436 389.436C205.819 315.868 277.21 243.284 355.334 177.463C395.336 143.758 426.921 123.851 513.231 82.8266C599.542 41.802 682.489 49.4573 762.578 94.1385C776.382 101.841 789.209 111.193 802.381 119.933C831.885 139.507 853.143 165.906 867.89 197.562C885.012 234.306 892.98 273.127 893.844 313.865C896.946 460.256 864.056 599.206 795.173 730.716C765.949 787.018 726.416 837.738 678.603 880.28C596.508 953.222 505.413 970.497 406.044 928.731C354.875 907.222 305.499 881.636 256.097 856.458C224.013 840.11 193.349 821.17 168.88 807.27Z" fill="white"/>
</mask>
<g mask="url(#mask0_4063_36202)">
<path d="M168.88 807.27C126.572 779.861 92.8585 754.712 64.878 722.442C7.70731 656.494 -5.9054 589.119 49.9252 494.845C73.0687 455.758 103.998 422.297 135.436 389.436C205.819 315.868 277.21 243.284 355.334 177.463C395.336 143.758 426.921 123.851 513.231 82.8266C599.542 41.802 682.489 49.4573 762.578 94.1385C776.382 101.841 789.209 111.193 802.381 119.933C831.885 139.507 853.143 165.906 867.89 197.562C885.012 234.306 892.98 273.127 893.844 313.865C896.946 460.256 864.056 599.206 795.173 730.716C765.949 787.018 726.416 837.738 678.603 880.28C596.508 953.222 505.413 970.497 406.044 928.731C354.875 907.222 305.499 881.636 256.097 856.458C224.013 840.11 193.349 821.17 168.88 807.27Z" fill="#2351DF"/>
<path fill-rule="evenodd" clip-rule="evenodd" d="M730.256 520.097C744.948 521.217 759.627 522.567 774.336 523.383C785.539 524.006 794.248 528.199 797.088 544.346C801.402 568.866 803.527 593.694 806.098 618.454C808.52 641.767 811.308 665.043 813.929 688.336C816.065 707.309 818.175 726.283 820.326 745.254C823.047 769.267 825.811 793.274 828.534 817.287C831.12 840.098 833.659 862.916 836.249 885.727C838.049 901.574 839.395 917.497 841.935 933.227C843.261 941.439 840.174 948.278 837.969 955.47C836.877 959.03 833.226 960.112 829.673 960.228C826.051 960.346 822.42 960.177 818.795 960.173C745.289 960.071 671.782 960.001 598.277 959.859C576.035 959.816 553.793 959.563 531.549 959.432C528.666 959.414 525.84 959.434 522.97 960.352C516.509 962.418 510.957 959.41 508.933 952.829C505.164 940.568 502.479 928.079 501.009 915.306C496.286 874.304 497.342 833.17 498.548 792.078C499.413 762.606 501.994 733.21 505.036 703.86C510.074 655.267 516.849 606.978 528.578 559.492C531.302 548.46 534.455 537.538 538.743 526.996C540.378 522.976 542.18 518.984 544.323 515.217C547.395 509.818 551.758 506.704 558.529 507.286C574.404 508.653 590.309 509.652 606.203 510.793C612.228 511.224 618.254 511.635 624.28 512.056C626.73 514.259 626.593 517.267 626.626 520.131C626.738 529.792 627.477 539.532 626.454 549.101C624.625 566.235 625.526 583.367 625.278 600.497C625.199 606.077 624.665 611.583 623.86 617.076C621.12 642.208 620.548 667.513 617.938 692.667C616.596 705.616 617.925 707.046 631.089 708.12C650.074 709.668 669.005 711.765 687.981 713.385C694.668 713.956 695.853 712.962 696.204 705.861C697.353 682.542 700.102 659.33 700.86 635.986C700.938 633.558 701.488 631.204 702.063 628.859C702.227 628.033 702.461 627.225 702.712 626.423C703.018 625.211 703.311 623.991 703.548 622.758C708.187 593.179 712.352 563.534 716.591 533.899C716.796 532.465 716.949 531.025 717.183 529.595C718.93 518.974 718.948 518.96 730.256 520.097Z" fill="#F48726"/>
<path fill-rule="evenodd" clip-rule="evenodd" d="M308.126 532.281C327.618 530.745 347.109 529.197 366.603 527.675C374.548 527.056 382.487 526.317 390.444 525.952C398.923 525.565 407.071 532.154 408.302 540.489C410.312 554.106 412.032 567.766 413.844 581.411C417.121 606.068 420.566 630.706 423.593 655.396C427.883 690.386 433.807 725.147 437.482 760.235C440.173 785.934 444.431 811.469 448.015 837.072C450.628 855.733 453.422 874.371 455.865 893.053C457.412 904.876 461.4 916.054 464.271 927.525C465.501 932.445 467.079 937.277 468.47 942.157C471.062 951.253 466.518 957.255 456.896 957.38C451.819 957.446 446.741 957.367 441.662 957.392C408.292 957.556 374.911 957.24 341.554 958.015C290.059 959.213 238.553 958.562 187.066 959.501C167.245 959.861 147.426 960.157 127.605 960.294C119.087 960.35 117.271 958.971 114.745 950.634C111.232 939.033 109.651 927.036 107.715 915.116C103.686 890.3 101.72 865.231 98.5602 840.315C94.9719 812.027 91.6406 783.714 89.2986 755.313C87.9312 738.723 86.9406 722.049 87.2708 705.352C87.6782 684.791 86.3974 664.204 87.6596 643.667C89.3785 615.705 91.1307 587.712 97.4458 560.288C99.3497 552.02 102.11 550.014 110.378 549.312C133.709 547.334 157.032 545.29 180.359 543.272C186.955 541.758 187.492 546.675 188.095 550.946C189.986 564.314 191.622 577.717 193.266 591.117C196.378 616.477 200.109 641.758 202.704 667.182C203.451 683.562 205.529 699.837 206.448 716.206C207.313 731.627 209.848 746.919 210.036 762.405C210.109 768.424 211.599 774.34 211.806 780.387C211.972 785.279 215.192 787.002 219.677 786.769C231.479 786.156 243.284 785.565 255.082 784.955C269.523 784.21 283.904 782.487 298.402 782.38C311.003 782.287 311.686 780.672 310.887 768.365C309.807 751.746 308.035 735.188 307.086 718.552C306.154 702.215 304.158 685.933 303.575 669.545C304.762 658.236 304.117 646.895 304.154 635.575C304.255 604.959 304.113 574.344 304.27 543.73C304.29 539.652 302.965 534.774 308.126 532.281Z" fill="#FAB434"/>
<path fill-rule="evenodd" clip-rule="evenodd" d="M278.998 177.613C280.15 182.759 283.541 183.66 288.415 183.599C311.364 183.31 334.32 183.501 357.27 183.28C362.179 183.233 366.878 184.184 371.564 185.117C377.716 186.343 382.807 193.081 383.441 200.067C384.245 208.945 384.626 217.851 385.123 226.749C386.091 244.063 387.124 261.372 388.074 278.689C388.945 294.553 390.056 310.408 390.962 326.276C391.936 343.328 393.053 360.368 393.906 377.434C394.698 393.299 395.609 409.191 396.918 425.006C397.77 435.306 397.144 445.695 399.024 455.977C399.894 460.73 398.955 465.942 398.172 470.84C396.598 480.677 390.727 485.551 380.761 485.567C357.084 485.604 333.406 485.522 309.728 485.489C308.037 485.486 306.345 485.434 304.655 485.493C299.509 485.668 299.342 485.851 299.215 490.778C299.159 492.944 299.085 495.11 299.019 497.276C297.596 497.196 296.598 496.239 296.593 495.045C296.56 487.207 291.355 487.428 285.662 487.354C269.766 487.146 253.815 488.615 237.817 486.306C255.528 495.287 273.036 504.596 290.567 513.855C293.73 515.526 297.337 516.635 299.148 520.165C299.221 521.174 299.296 522.184 299.369 523.193C298.528 536.914 299.036 550.687 297.781 564.389C295.649 569.33 291.422 572.204 287.064 574.795C264.781 588.046 240.82 590.353 215.75 585.709C209.456 584.543 204.805 579.576 198.432 578.792C195.976 577.507 196.552 575.17 196.401 573.053C195.679 562.925 194.005 552.912 192.741 542.849C192.303 539.359 189.846 536.749 189.119 533.43C189.362 520.884 187.253 508.465 187.311 495.897C187.366 484.079 186.888 484.079 175.053 484.059C159.363 484.032 143.674 484.015 127.984 483.951C125.826 483.942 123.611 483.946 121.519 483.493C110.73 481.163 105.784 474.999 104.938 463.005C104.802 461.082 104.898 459.143 104.897 457.21C104.861 424.846 104.837 392.481 104.786 360.116C104.776 353.34 104.765 353.207 98.1825 351.411C85.1941 347.867 78.4596 336.782 77.2414 323.988C76.2028 313.076 79.7618 303.586 87.2539 295.586C89.765 293.595 92.3547 295.059 94.8472 295.536C103.679 297.221 112.111 296.103 120.311 292.495C125.628 290.156 129.982 286.67 131.961 281.212C134.045 275.466 138.078 273.079 143.682 271.863C153.478 269.74 162.462 265.952 169.864 258.745C175.714 253.049 180.51 246.866 182.196 238.731C183.205 233.857 186.113 231.269 190.89 230.283C204.237 227.525 212.875 218.977 219.057 207.314C221.857 202.03 223.749 196.799 221.952 190.703C221.234 188.271 220.339 185.406 223.495 183.626C231.771 181.691 240.165 182.912 248.497 182.719C255.431 182.558 262.333 182.464 269.234 181.526C272.924 181.026 276.16 179.966 278.998 177.613Z" fill="#EDCEB4"/>
<path fill-rule="evenodd" clip-rule="evenodd" d="M643.324 498.685C640.756 495.003 641.897 490.923 642.069 486.948C642.309 486.963 642.676 486.88 642.771 487.004C648.03 493.978 648.047 494.028 657.157 490.585C664.085 487.967 671.025 485.386 678.338 482.601C667.494 483.975 656.996 484.429 646.517 485.148C644.808 485.265 643.142 485.377 641.791 484.043C632.504 481.495 623.038 479.663 614.032 476.023C584.217 463.973 561.87 443.506 545.364 416.163C535.252 399.414 528.958 381.249 524.459 362.353C528.568 359.439 531.152 363.215 534.033 364.77C564.128 381.005 598.826 375.98 622.449 353.178C652.48 324.19 651.086 272.661 619.796 244.173C604.296 230.059 586.376 222.511 565.223 223.023C561.736 223.108 557.908 224.018 554.912 221.077C555.013 220.768 555.016 220.458 554.921 220.146C555.153 219.341 555.648 218.747 556.367 218.33C562.178 212.065 567.195 205.085 573.524 199.289C578.712 190.437 587.057 184.898 595.457 179.918C607.39 172.844 619.272 165.262 633.47 163.15C636.84 163.657 637.702 166.182 637.715 168.973C637.807 188.974 648.155 204.609 660.499 218.602C691.007 253.183 728.483 277.689 772.23 292.439C789.057 298.112 806.42 300.711 824.125 301.253C831.418 304.339 837.07 309.463 841.907 315.609C853.9 338.175 845.932 362.916 823.505 372.819C820.605 372.973 818.75 370.847 816.512 369.564C809.353 365.462 801.967 366.034 795.897 371.196C790.474 375.806 789.486 380.887 792.393 389.286C792.933 390.851 793.78 392.374 792.924 394.091C774.955 433.01 746.91 461.457 706.571 477.024C697.736 480.434 696.449 481.596 697.451 491.202C698.128 497.709 698.057 504.198 698.348 510.693C698.445 512.86 698.344 515.035 698.333 517.207C693.542 515.649 694.836 511.421 694.896 508.235C695.002 502.453 692.386 500.641 687 500.71C675.651 500.859 664.396 503.044 653.008 502.191C649.445 501.924 645.6 502.491 643.324 498.685Z" fill="#C7A07F"/>
<path fill-rule="evenodd" clip-rule="evenodd" d="M824.757 302.66C785.698 303.268 751.338 288.771 718.517 269.444C696.298 256.36 676.833 239.847 659.644 220.71C650.231 210.231 642.985 198.297 638.133 184.948C636.269 179.821 635.778 174.638 635.891 169.297C635.936 167.125 636.277 164.763 633.139 164.357C635.458 158.418 637.345 152.202 643.255 148.566C656.522 136.918 671.993 134.967 689.041 136.535C715.235 138.946 739.17 147.913 762.255 159.574C782.738 169.921 801.422 182.966 818.781 198.138C831.079 208.888 841.43 221.014 850.462 234.456C853.982 239.694 856.959 245.295 859.025 251.174C865.12 268.514 863.974 279.191 852.114 293.338C853.971 294.547 856.562 293.142 858.2 295.048C847.023 297.457 836.999 304.934 824.757 302.66Z" fill="#D6CFC8"/>
<path fill-rule="evenodd" clip-rule="evenodd" d="M222.46 184.89C224.616 191.898 226.411 198.944 222.279 205.85C216.322 215.807 210.738 226.587 198.401 229.676C189.568 231.887 184.566 235.536 181.828 245.139C178.299 257.518 167.489 264.658 156.086 270.086C154.141 271.013 152.038 271.666 149.948 272.215C145.767 273.313 141.041 273.398 137.486 275.503C134.085 277.518 134.234 282.756 131.811 286.086C130.077 288.466 128.104 290.533 125.523 291.961C114.768 297.918 103.524 300.365 91.4281 296.695C90.0513 296.277 88.6453 295.953 87.2539 295.585C82.5805 293.093 77.8965 290.764 73.974 286.951C64.5247 277.769 59.9485 266.796 61.1388 253.689C61.6008 248.609 60.0164 245.259 56.0646 241.993C47.3077 234.76 44.7593 224.863 46.14 213.929C48.6977 193.668 58.5931 178.169 76.6103 168.187C78.6141 167.076 79.7792 165.833 80.5274 163.484C86.7174 144.04 104.442 132.801 124.758 135.586C136.791 137.236 147.44 142.007 155.633 151.376C160.661 154.349 165.505 154.39 171.246 152.467C194.239 144.764 221.446 167.603 222.46 184.89Z" fill="#6E4E3E"/>
<path fill-rule="evenodd" clip-rule="evenodd" d="M823.09 372.266C828.437 367.894 834.342 364.307 838.4 358.32C846.911 345.762 849.381 332.977 841.789 319.142C841.235 318.132 841.131 316.876 840.818 315.733C851.501 309.288 862.539 303.396 872.293 295.502C884.093 295.485 895.847 295.039 907.683 296.324C917.956 297.439 928.434 296.662 938.822 296.672C950.177 296.683 961.531 296.659 972.886 296.607C976.733 296.589 980.533 296.614 984.377 295.667C988.404 294.675 992.558 294.992 996.109 297.742C999.449 300.328 999.929 303.163 997.065 306.358C994.168 309.592 991.142 312.79 987.768 315.499C977.972 323.365 969.326 332.475 960.006 340.853C944.044 355.202 928.72 370.26 912.835 384.695C900.699 395.724 888.59 406.769 876.655 418.019C860.695 433.064 844.3 447.646 828.169 462.514C825.806 464.692 823.263 465.798 820.288 464.774C817.149 463.693 815.97 460.702 816.033 457.793C816.331 443.814 815.165 429.819 816.985 415.841C817.792 409.653 817.294 403.296 817.387 397.014C816.95 396.084 816.896 395.04 817.543 394.312C822.554 388.672 823.625 382.11 822.285 374.925C822.104 373.957 822.484 373.05 823.09 372.266Z" fill="#D6CFC8"/>
<path fill-rule="evenodd" clip-rule="evenodd" d="M643.325 498.685C646.002 500.091 648.909 499.854 651.801 500.013C664.595 500.712 677.266 498.297 690.043 498.617C696.82 498.789 696.64 498.707 697.031 505.279C697.27 509.26 695.909 513.463 698.335 517.21C703.056 518.798 708.019 518.482 712.872 519.044C714.886 521.006 714.481 523.453 714.151 525.833C710.01 555.659 705.784 585.473 701.196 615.233C700.797 617.826 700.435 620.516 698.495 622.586C691.1 625.646 683.748 622.489 676.48 621.985C663.328 621.07 650.171 619.745 637.051 618.241C634.434 617.941 631.694 618.303 629.58 616.211C627.76 613.416 627.946 610.24 627.898 607.128C627.467 579 630.212 550.932 629.479 522.791C629.378 518.884 629.295 514.368 634.49 512.847C635.428 512.956 636.364 513.125 637.305 513.162C643.444 513.401 643.467 513.391 643.476 507.191C643.48 504.355 643.378 501.521 643.325 498.685Z" fill="#F48726"/>
<path fill-rule="evenodd" clip-rule="evenodd" d="M554.911 221.077C564.036 221.57 573.147 220.568 582.311 222.38C613.158 228.48 639.138 254.487 644.725 285.469C649.473 311.804 642.894 334.986 624.182 353.997C599.9 378.665 562.542 383.343 531.551 365.481C529.301 364.183 527.428 362.015 524.457 362.352C523.645 360.535 522.277 359.136 520.781 357.925C508.866 348.294 500.434 336.119 495.599 321.704C489.689 304.078 489.671 286.451 496.67 268.872C503.758 251.068 515.76 237.85 532.42 228.803C537.926 225.812 544.124 224.404 550.13 222.633C551.737 222.159 553.318 221.599 554.911 221.077Z" fill="#FDEBEC"/>
<path fill-rule="evenodd" clip-rule="evenodd" d="M222.46 184.89C218.57 177.511 215.077 169.875 208.433 164.367C196.011 154.072 182.566 148.804 166.718 156.051C163.357 157.588 160.85 157.612 158.766 154.214C158.038 153.028 156.201 152.867 155.633 151.376C159.578 152.334 161.233 149.021 163.256 146.925C172.198 137.658 183.206 133.974 195.814 133.807C207.603 133.652 216.802 138.938 224.073 147.508C227.088 151.062 229.533 151.794 233.836 150.574C248.317 146.471 260.333 151.023 270.314 161.877C274.495 166.425 276.499 172.15 278.998 177.612C278.883 183.538 278.869 183.34 273.366 183.761C256.414 185.057 239.424 184.341 222.46 184.89Z" fill="#93634B"/>
<path fill-rule="evenodd" clip-rule="evenodd" d="M643.256 148.566C641.388 151.797 639.378 154.955 637.7 158.282C636.523 160.617 635.12 162.68 633.138 164.359C611.557 171.174 592.152 181.736 575.858 197.665C575.19 198.318 574.308 198.752 573.525 199.289C573.022 196.216 572.789 193.069 571.969 190.083C568.922 178.986 572.885 169.54 579.35 161.137C591.799 144.956 609.046 140.718 628.429 142.985C633.747 143.607 638.082 147.304 643.256 148.566Z" fill="#E5DACE"/>
<path fill-rule="evenodd" clip-rule="evenodd" d="M189.119 533.43C193.199 535.848 194.705 539.268 194.96 544.148C195.384 552.25 196.687 560.328 198.057 568.342C198.474 570.777 199.027 572.932 197.995 575.294C197.462 576.511 198.023 577.63 199.081 578.441C202.101 580.763 202.243 584.246 202.703 587.57C206.404 614.337 209.504 641.181 212.852 667.994C212.551 670.334 213.581 672.872 211.96 675.015C210.127 677.441 207.553 677.719 204.806 677.241C202.247 676.797 201.247 675.194 201.29 672.631C201.321 670.739 201.719 668.765 200.722 666.959C198.425 649.27 196.08 631.586 193.843 613.888C191.668 596.664 189.604 579.428 187.488 562.196C186.9 557.41 186.253 552.629 185.728 547.836C185.367 544.544 183.369 543.354 180.357 543.272C181.961 541.859 184.725 541.869 184.988 538.775C185.193 536.349 187.536 535.069 189.119 533.43Z" fill="#DED8D1"/>
<path fill-rule="evenodd" clip-rule="evenodd" d="M296.209 565.671C296.259 559.674 296.307 553.677 296.359 547.68C296.43 539.403 295.48 531.001 299.369 523.194C302.289 526.222 305.209 529.25 308.127 532.281C305.339 534.78 306.321 538.108 306.328 541.129C306.436 581.38 306.635 621.632 306.736 661.883C306.743 664.645 307.812 667.735 305.162 670.032C298.077 672.263 295.978 670.969 295.873 663.384C295.597 643.362 295.807 623.336 295.763 603.312C295.754 599.461 296.035 595.582 294.777 591.838C294.324 583.069 292.415 574.211 296.209 565.671Z" fill="#DED8D1"/>
<path fill-rule="evenodd" clip-rule="evenodd" d="M299.147 520.165C276.83 508.733 254.512 497.3 231.124 485.318C234.657 483.814 237.262 484.18 239.651 484.4C256.284 485.933 272.959 485.184 289.612 485.517C291.303 485.551 292.993 485.577 294.684 485.603C296.784 485.636 297.59 486.769 297.732 488.798C297.933 491.65 297.358 494.642 299.02 497.276C298.655 504.908 300.042 512.53 299.147 520.165Z" fill="#A9734F"/>
<path fill-rule="evenodd" clip-rule="evenodd" d="M823.09 372.266C827.123 381.884 824.986 390.079 817.389 397.014C808.579 401.521 800.464 400.204 792.924 394.091C790.519 389.423 787.334 385.048 788.655 379.229C791.169 368.155 804.47 361.679 814.858 366.477C817.989 367.925 820.335 370.356 823.09 372.266Z" fill="#FAB434"/>
<path fill-rule="evenodd" clip-rule="evenodd" d="M698.081 621.75C702.926 588.715 707.774 555.68 712.606 522.643C712.779 521.456 712.787 520.244 712.872 519.045C712.912 516.942 713.953 515.401 715.571 514.165C716.67 513.328 718.307 513.094 718.797 514.136C721.153 519.148 726.367 518.29 730.257 520.098C720.844 520.455 720.673 520.429 719.223 530.209C716.07 551.464 713.12 572.748 710.066 594.018C708.59 604.293 707.064 614.562 705.563 624.834C705.158 625.383 704.694 625.874 704.161 626.299L704.146 626.297C699.889 627.766 697.495 626.747 698.081 621.75Z" fill="#DED8D1"/>
<path fill-rule="evenodd" clip-rule="evenodd" d="M634.49 512.847C631.737 514.551 632.134 517.394 632.053 519.968C631.88 525.506 631.915 531.048 631.789 536.586C631.25 560.419 630.668 584.25 630.148 608.082C630.09 610.721 630.329 613.366 630.429 616.009C629.025 621.808 626.818 622.199 621.621 617.569C623.003 607.985 622.552 598.325 622.798 588.694C623.369 566.282 623.909 543.869 624.421 521.454C624.492 518.324 624.333 515.189 624.28 512.056C624.622 510.938 624.705 509.631 625.352 508.733C627.75 505.414 629.563 505.37 632.014 508.544C633.017 509.842 633.675 511.405 634.49 512.847Z" fill="#DED7D1"/>
<path fill-rule="evenodd" clip-rule="evenodd" d="M872.293 295.503C864.058 305.762 853.075 311.738 840.817 315.731C835.494 311.337 830.59 306.425 824.756 302.658C832.088 301.269 839.447 300.034 846.094 296.273C849.887 294.127 854.214 296.02 858.199 295.05C862.897 295.2 867.595 295.351 872.293 295.503Z" fill="#A89C90"/>
<path fill-rule="evenodd" clip-rule="evenodd" d="M641.79 484.043C655.776 482.102 669.848 481.568 684.086 481.565C671.059 487.465 657.845 492.606 644.406 496.984C642.128 493.631 644.288 489.808 642.068 486.947C641.975 485.98 641.883 485.011 641.79 484.043Z" fill="#785D46"/>
<path fill-rule="evenodd" clip-rule="evenodd" d="M556.367 218.33C555.885 218.933 555.403 219.537 554.921 220.143C555.005 219.223 555.489 218.62 556.367 218.33Z" fill="#FDEBEC"/>
<path fill-rule="evenodd" clip-rule="evenodd" d="M621.622 617.57C627.315 619.957 628.009 619.834 630.428 616.009C646.162 616.682 661.756 618.897 677.426 620.159C684.296 620.712 691.114 622.422 698.082 621.75C698.531 625.366 701.356 625.807 704.145 626.298C702.042 642.784 701.656 659.414 700.263 675.96C699.417 686.01 698.105 696.115 698.34 706.272C698.379 707.96 698.431 709.684 698.16 711.339C697.487 715.462 695.969 716.793 691.692 716.237C687.394 715.677 683.112 715.193 678.788 714.819C666.34 713.742 653.95 711.94 641.494 711.006C634.529 710.483 627.6 709.537 620.63 709.25C616.972 709.099 615.516 707.811 615.555 704.059C615.686 691.752 617.03 679.544 618.191 667.316C618.259 666.596 618.433 665.88 618.441 665.16C618.621 649.237 620.281 633.414 621.622 617.57Z" fill="#E9B07D"/>
<path fill-rule="evenodd" clip-rule="evenodd" d="M704.161 626.299C704.628 625.81 705.096 625.323 705.563 624.834C705.502 625.712 705.011 626.176 704.161 626.299Z" fill="#E9B07D"/>
<path fill-rule="evenodd" clip-rule="evenodd" d="M296.512 591.395C298.495 593.702 297.675 596.491 297.689 599.066C297.803 620.117 297.844 641.169 297.844 662.218C297.844 669.872 297.086 669.824 305.161 670.032C306.932 681.945 306.176 694.105 308.168 705.936C309.779 715.497 309.178 725.123 310.421 734.698C311.373 742.021 312.56 749.504 312.233 756.966C311.933 763.78 313.964 770.35 313.809 777.117C313.691 782.344 313.664 782.149 308.432 783.531C305.1 784.413 301.781 784.77 298.415 784.599C286.095 783.979 273.859 785.658 261.642 786.49C247.253 787.468 232.832 787.8 218.452 788.939C210.863 789.541 209.835 788.148 209.319 780.536C208.314 765.658 207.754 750.732 206.181 735.915C204.304 718.212 203.1 700.476 201.869 682.73C201.505 677.475 199.805 672.318 200.72 666.959C201.886 668.022 201.81 669.454 201.982 670.861C202.54 675.429 203.846 676.358 208.29 675.66C210.49 675.313 211.804 674.497 211.086 671.918C210.78 670.816 210.893 669.597 210.816 668.43C220.572 666.653 230.515 667.192 240.329 666.674C253.803 665.963 267.268 664.552 280.807 664.693C293.194 664.821 294.08 663.727 294.096 651.655C294.117 634.98 294.042 618.305 294.145 601.63C294.168 598.096 293.487 594.284 296.512 591.395Z" fill="#ECC684"/>
<path fill-rule="evenodd" clip-rule="evenodd" d="M296.512 591.395C296.471 613.125 296.419 634.854 296.391 656.584C296.379 666.126 296.337 666.199 286.905 666.907C286.184 666.962 285.456 666.963 284.734 666.937C269.778 666.375 254.942 668.643 239.996 668.858C232.613 668.963 225.153 669.893 217.696 670.009C215.239 670.048 212.867 670.021 210.815 668.43C206.775 638.451 203.755 608.338 199.082 578.441C199.511 575.556 201.136 576.393 202.576 577.439C208.361 581.638 214.873 583.989 221.89 584.821C248.579 587.983 273.666 584.664 294.952 566.348C295.306 566.045 295.788 565.892 296.21 565.669C296.31 574.246 296.411 582.82 296.512 591.395Z" fill="#FAB434"/>
<path fill-rule="evenodd" clip-rule="evenodd" d="M247.182 289.549C251.373 287.081 255.732 288.792 259.847 289.465C274.314 291.836 287.007 297.692 296.057 309.823C303.774 320.167 302.123 331.168 291.71 338.861C286.157 342.963 279.85 345.302 273.04 346.105C261.079 347.513 249.502 345.798 238.246 341.551C235.535 340.529 233.602 339.199 233.771 336.004C233.617 335.823 233.328 335.64 233.327 335.458C233.26 318.742 236.731 303.089 247.182 289.549Z" fill="#0B0705"/>
<path fill-rule="evenodd" clip-rule="evenodd" d="M165.745 384.843C165.299 380.603 166.14 376.132 168.125 371.904C170.104 367.688 173.958 366.227 178.308 367.905C181.774 369.241 183.345 372.458 182.342 376.702C181.243 381.359 180.107 385.746 181.496 390.785C184.368 401.211 189.796 405.997 200.51 408.24C210.219 410.273 217.404 406.482 223.992 396.314C225.407 394.131 226.054 391.452 227.077 389.01C229.043 384.312 231.513 382.922 236.072 383.923C239.773 384.735 241.402 387.241 241.213 392.226C240.994 397.961 238.859 403.153 235.428 407.565C227.841 417.325 217.84 423.821 205.413 424.139C194.604 424.417 184.36 420.738 176.656 412.688C169.455 405.165 165.22 396.072 165.745 384.843Z" fill="#DA9CB5"/>
<path fill-rule="evenodd" clip-rule="evenodd" d="M247.181 289.549C239.984 304.245 235.843 319.824 233.771 336.002C232.441 337.552 231.109 338.629 228.967 337.101C220.954 331.385 212.817 325.74 207.85 316.934C204.033 310.165 205.845 301.947 212.685 297.046C222.396 290.088 233.711 288.134 245.453 288.351C246.036 288.362 246.606 289.133 247.181 289.549Z" fill="white"/>
<path fill-rule="evenodd" clip-rule="evenodd" d="M263.174 244.461C282.166 244.569 295.438 255.004 298.377 270.385C298.602 271.564 298.913 272.769 298.868 273.95C298.775 276.324 297.759 278.315 295.169 278.526C292.829 278.716 291.898 276.875 291.341 274.899C291.211 274.435 291.11 273.962 290.998 273.492C286.756 255.631 271.728 247.709 253.993 254.085C247.288 256.496 241.425 260.196 237.198 266.13C236.497 267.111 235.752 268.067 234.95 268.965C233.319 270.791 231.331 271.624 229.264 269.895C227.46 268.385 227.997 266.344 229.053 264.623C230.181 262.781 231.433 260.977 232.867 259.369C241.533 249.642 252.516 244.913 263.174 244.461Z" fill="#705040"/>
<path fill-rule="evenodd" clip-rule="evenodd" d="M107.591 321.757C107.591 324.651 107.85 327.575 107.532 330.435C107.004 335.186 104.481 336.777 100.079 335.546C93.9141 333.822 88.6176 326.736 88.7454 320.386C88.8786 313.801 92.9462 309.077 100.087 307.214C104.608 306.034 106.965 307.529 107.463 312.355C107.784 315.457 107.524 318.621 107.524 321.757C107.546 321.757 107.568 321.757 107.591 321.757Z" fill="#C7A180"/>
<path fill-rule="evenodd" clip-rule="evenodd" d="M166.956 342.579C165.302 342.297 164.427 341.291 164.406 339.745C164.394 338.82 164.86 337.845 166.042 337.964C167.645 338.123 168.494 339.214 168.525 340.75C168.545 341.686 168.071 342.529 166.956 342.579Z" fill="#E49660"/>
<path fill-rule="evenodd" clip-rule="evenodd" d="M316.663 365.8C315.346 365.725 314.462 365.012 314.277 363.668C314.129 362.59 314.723 361.716 315.787 361.583C317.228 361.402 317.961 362.37 318.136 363.69C318.276 364.737 317.889 365.564 316.663 365.8Z" fill="#E4955F"/>
<path fill-rule="evenodd" clip-rule="evenodd" d="M328.697 374.886C328.938 373.595 329.665 372.775 331.023 372.822C332.22 372.863 332.539 373.811 332.484 374.785C332.423 375.876 331.584 376.457 330.603 376.48C329.645 376.501 328.793 376.065 328.697 374.886Z" fill="#E59762"/>
<path fill-rule="evenodd" clip-rule="evenodd" d="M304.675 363.057C304.58 364.239 303.857 364.823 302.837 364.793C301.851 364.764 301.013 364.211 300.905 363.113C300.808 362.129 301.066 361.18 302.261 361.069C303.688 360.936 304.306 361.91 304.675 363.057Z" fill="#E59761"/>
<path fill-rule="evenodd" clip-rule="evenodd" d="M309.095 352.144C310.407 352.112 311.203 352.668 311.388 353.675C311.65 355.103 310.773 355.867 309.43 355.979C308.376 356.066 307.547 355.469 307.345 354.454C307.049 352.976 308.09 352.427 309.095 352.144Z" fill="#E5955F"/>
<path fill-rule="evenodd" clip-rule="evenodd" d="M189.905 336.466C188.889 336.38 188.075 335.939 187.914 334.881C187.753 333.813 188.276 333.037 189.411 332.998C190.385 332.965 191.345 333.263 191.432 334.448C191.508 335.481 190.971 336.213 189.905 336.466Z" fill="#E38C50"/>
<path fill-rule="evenodd" clip-rule="evenodd" d="M177.998 330.035C176.883 329.834 176.282 329.127 176.399 328.045C176.519 326.936 177.353 326.359 178.413 326.52C179.481 326.683 180.04 327.545 180.027 328.593C180.012 329.898 178.99 329.995 177.998 330.035Z" fill="#E38C50"/>
<path fill-rule="evenodd" clip-rule="evenodd" d="M188.416 351.351C187.424 351.085 186.79 350.426 186.904 349.423C187.019 348.395 187.849 347.879 188.842 347.923C190.013 347.976 190.29 348.905 190.25 349.857C190.203 350.96 189.448 351.37 188.416 351.351Z" fill="#E6A06F"/>
<path fill-rule="evenodd" clip-rule="evenodd" d="M310.426 372.641C310.123 373.009 309.82 373.676 309.307 373.941C308.426 374.399 307.982 373.615 308.034 372.948C308.078 372.386 308.498 371.608 308.968 371.385C309.704 371.038 310.206 371.635 310.426 372.641Z" fill="#E17D3B"/>
<path fill-rule="evenodd" clip-rule="evenodd" d="M179.751 337.936C179.61 338.289 179.084 338.711 178.396 338.459C177.727 338.213 177.482 337.51 177.781 336.874C177.919 336.576 178.486 336.295 178.838 336.32C179.532 336.369 180.101 336.723 179.751 337.936Z" fill="#E38445"/>
<path fill-rule="evenodd" clip-rule="evenodd" d="M699.903 394.085C700.398 390.484 698.795 386.983 696.826 383.609C695.976 382.155 694.841 380.862 694.047 379.382C691.582 374.788 692.353 370.21 695.898 367.722C699.578 365.14 705.105 365.743 708.416 369.274C712.445 373.57 715.272 378.589 716.722 384.322C722.954 408.972 706.225 430.843 681.74 433.068C667.927 434.323 651.518 424.829 645.401 412.268C644.183 409.765 642.898 407.125 644.096 403.973C646.693 397.146 653.749 395.342 659.086 400.329C660.512 401.66 661.481 403.303 662.473 404.981C667.226 413.024 676.308 416.529 685.57 414.024C694.189 411.693 699.912 403.922 699.903 394.085Z" fill="#E53F4D"/>
<path fill-rule="evenodd" clip-rule="evenodd" d="M829.015 337.684C829.998 344.631 821.734 354.423 813.848 356.087C807.57 357.413 805.096 354.843 806.658 348.716C808.145 342.883 809.895 337.117 811.479 331.307C812.125 328.939 812.989 326.695 814.713 324.908C817.143 322.388 819.652 322.098 822.416 324.317C826.743 327.789 829.904 331.946 829.015 337.684Z" fill="#A88466"/>
<path fill-rule="evenodd" clip-rule="evenodd" d="M678.177 297.617C671.358 300.818 664.33 299.159 656.348 299.557C660.295 296.332 665.085 295.945 678.177 297.617Z" fill="#8A6C53"/>
<path fill-rule="evenodd" clip-rule="evenodd" d="M677.386 286.225C670.468 289.435 663.283 291.389 655.613 291.072C662.699 288.652 669.763 286.133 677.386 286.225Z" fill="#876951"/>
<path fill-rule="evenodd" clip-rule="evenodd" d="M678.395 310.67C671.568 310.176 664.898 309.313 657.745 307.407C662.209 305.586 673.302 307.288 678.395 310.67Z" fill="#85684F"/>
<path fill-rule="evenodd" clip-rule="evenodd" d="M544.727 235.888C546.695 234.04 548.944 233.018 551.654 232.375C580.462 225.537 611.129 238.376 626.178 264.207C640.054 288.022 640.791 312.517 626.059 336.21C606.465 367.719 565.478 375.11 535.156 356.248C529.693 352.849 523.778 349.742 521.462 343.004C519.416 341.212 519.409 338.75 519.32 336.339C518.106 303.398 523.951 271.978 539.517 242.655C540.874 240.1 542.025 237.402 544.727 235.888Z" fill="#C7A07F"/>
<path fill-rule="evenodd" clip-rule="evenodd" d="M544.727 235.888C541.289 243.301 537.542 250.586 534.472 258.148C524.748 282.095 520.476 307.059 521.276 332.895C521.38 336.263 521.401 339.634 521.461 343.004C520.681 344.034 519.773 343.866 519.103 343.014C510.373 331.911 504.409 319.776 502.245 305.484C500.255 292.34 502.5 280.312 507.78 268.521C514.909 252.599 527.004 241.872 542.9 235.187C543.622 234.883 544.269 235.257 544.727 235.888Z" fill="#2351DF"/>
<path fill-rule="evenodd" clip-rule="evenodd" d="M619.861 692.449C621.616 671.42 623.129 653.141 624.686 634.867C624.807 633.431 625.298 632.031 625.489 630.597C625.851 627.869 627.301 627.07 630 627.345C643.917 628.757 657.854 630.001 671.778 631.361C678.977 632.066 686.159 632.944 693.36 633.643C699.339 634.225 700.177 634.863 699.744 640.654C698.808 653.17 697.691 665.674 696.562 678.174C695.865 685.864 695.037 693.54 694.216 701.218C693.681 706.223 693.486 706.635 688.457 706.233C676.679 705.292 664.922 704.056 653.163 702.888C645.246 702.101 637.351 701.04 629.421 700.437C619.531 699.684 619.516 699.829 619.861 692.449Z" fill="#606FDE"/>
<path fill-rule="evenodd" clip-rule="evenodd" d="M640.336 619.126H654.553C647.839 621.079 645.197 620.979 640.381 619.072L640.336 619.126Z" fill="#E1CAB5"/>
<path fill-rule="evenodd" clip-rule="evenodd" d="M670.846 621.989H656.772C663.29 620.026 665.83 620.117 670.806 622.039L670.846 621.989Z" fill="#E1CAB5"/>
<path fill-rule="evenodd" clip-rule="evenodd" d="M670.807 622.039H684.993C678.324 623.981 675.669 623.883 670.847 621.988L670.807 622.039Z" fill="#E1CAB5"/>
<path fill-rule="evenodd" clip-rule="evenodd" d="M689.864 624.906C688.924 624.809 688.172 624.773 688.15 624.025C688.145 623.852 689.261 623.547 689.879 623.485C690.483 623.426 691.297 623.58 691.271 624.306C691.262 624.561 690.186 624.778 689.864 624.906Z" fill="#E1CAB6"/>
<path fill-rule="evenodd" clip-rule="evenodd" d="M640.381 619.072C638.832 618.976 637.215 619.565 635.598 618.516C637.462 617.22 638.972 617.534 640.335 619.127L640.381 619.072Z" fill="#E1CCB9"/>
<path fill-rule="evenodd" clip-rule="evenodd" d="M231.618 776.331C227.032 776.331 222.443 776.313 217.857 776.337C215.255 776.351 213.82 775.172 213.576 772.518C213.267 769.153 212.729 765.806 212.535 762.437C211.355 741.953 210.263 721.463 209.093 700.978C208.901 697.609 208.431 694.256 208.153 690.891C207.892 687.737 209.124 685.816 212.529 685.565C214.689 685.407 216.822 684.809 218.98 684.708C232.721 684.063 246.465 683.51 260.209 682.909C272.02 682.393 283.829 681.771 295.644 681.358C301.49 681.153 301.917 681.53 302.407 687.191C303.321 697.768 304.229 708.354 304.779 718.955C305.554 733.904 306.433 748.841 307.73 763.755C308.41 771.58 307.549 772.415 299.59 772.792C276.933 773.862 254.276 774.941 231.618 776.016C231.618 776.122 231.618 776.226 231.618 776.331Z" fill="#6175E0"/>
<path fill-rule="evenodd" clip-rule="evenodd" d="M289.323 668.359C285.368 671.387 228.495 674.684 218.045 673.528C229.708 670.569 241.759 671.63 253.607 670.634C265.492 669.635 277.416 669.098 289.323 668.359Z" fill="#E4CFAE"/>
<path fill-rule="evenodd" clip-rule="evenodd" d="M239.181 332.187C240.081 325.907 240.709 319.421 242.681 313.182C242.898 312.499 243.163 311.818 243.505 311.189C244.116 310.063 244.999 309.217 246.381 309.745C247.691 310.244 248.06 311.292 247.629 312.643C245.492 319.333 244.364 326.205 243.869 333.2C243.757 334.795 242.922 336.02 241.113 335.695C239.311 335.372 239.253 333.801 239.181 332.187Z" fill="#E7E4E1"/>
<path fill-rule="evenodd" clip-rule="evenodd" d="M619.003 285.196C621.657 287.25 624.537 289.071 626.921 291.401C634.351 298.662 633.817 307.355 625.728 313.841C618.457 319.669 609.735 321.564 600.822 322.736C597.73 323.143 594.551 322.87 591.411 322.909C590.261 321.966 589.23 320.751 589.25 319.318C589.433 305.958 586.562 292.732 587.513 279.346C587.634 277.656 588.097 276.055 589.208 274.705C591.082 273.645 592.843 273.457 594.318 275.388C597.007 275.952 599.697 276.517 602.387 277.08C605.088 275.958 607.205 276.738 608.845 279.069C610.511 279.912 612.177 280.754 613.844 281.596C616.637 281.255 618.183 282.705 619.003 285.196Z" fill="white"/>
<path fill-rule="evenodd" clip-rule="evenodd" d="M589.502 275.053C589.158 284.991 590.15 294.869 590.756 304.769C591.126 310.805 591.202 316.86 591.411 322.907C583.605 323.51 576.083 322.683 569.23 318.49C565.741 310.857 566.357 302.6 565.718 294.556C565.34 289.786 565.959 284.936 564.46 280.259C564.146 278.359 564.682 276.945 566.699 276.398C569.269 277.456 571.485 276.662 573.555 275.092C575.864 272.935 578.268 272.918 580.754 274.774C583.436 274.876 586.244 275.304 587.615 272.074C589.27 272.416 589.527 273.645 589.502 275.053Z" fill="#1F7CBB"/>
<path fill-rule="evenodd" clip-rule="evenodd" d="M564.781 279.18C566.008 279.406 567.135 279.843 567.544 281.14C567.756 281.811 567.805 282.576 567.747 283.284C566.775 295.083 569.674 306.716 569.23 318.49C562.835 317.027 558.145 312.967 554.174 308.101C548.731 301.432 548.705 293.97 553.81 286.997C555.076 285.267 556.582 283.714 557.979 282.079C559.76 279.972 561.348 277.406 564.781 279.18Z" fill="#2488CD"/>
<path fill-rule="evenodd" clip-rule="evenodd" d="M564.78 279.18C562.112 279.202 560.622 281.997 557.978 282.078C556.104 276.628 554.139 271.204 552.387 265.713C551.186 261.948 553.489 258.436 557.279 257.936C559.508 257.643 560.066 259.377 560.681 260.943C562.701 266.087 564.692 271.242 566.696 276.396C566.058 277.325 565.419 278.253 564.78 279.18Z" fill="#0E16E1"/>
<path fill-rule="evenodd" clip-rule="evenodd" d="M589.502 275.053C588.41 274.35 588.028 273.199 587.616 272.068C587.857 267.794 587.949 263.497 588.383 259.236C588.84 254.742 590.813 253.487 595.114 254.383C596.779 254.729 597.765 255.644 597.521 257.281C596.616 263.344 597.354 269.707 594.315 275.388C592.713 275.277 591.107 275.165 589.502 275.053Z" fill="#0C14E2"/>
<path fill-rule="evenodd" clip-rule="evenodd" d="M580.754 274.774C578.354 274.879 575.955 274.984 573.554 275.091C572.136 269.984 570.649 264.893 569.339 259.755C568.879 257.95 568.305 255.845 570.926 254.935C573.94 253.888 577.286 255.009 578.04 257.683C578.817 260.449 579.347 263.342 579.507 266.205C579.669 269.121 580.187 271.941 580.754 274.774Z" fill="#0F16E0"/>
<path fill-rule="evenodd" clip-rule="evenodd" d="M608.846 279.069C606.696 278.409 604.544 277.748 602.39 277.084C603.367 272.576 606.099 268.862 607.941 264.745C608.98 262.421 610.563 261.499 613.087 262.666C616.108 264.062 614.802 266.144 613.96 268.051C612.326 271.755 610.558 275.4 608.846 279.069Z" fill="#181DDD"/>
<path fill-rule="evenodd" clip-rule="evenodd" d="M619.003 285.196C617.286 283.999 615.568 282.801 613.847 281.6C615.679 278.013 617.515 274.431 619.298 270.95C620.104 271.107 620.772 271.037 620.967 271.306C626.521 279.004 627.782 277.579 619.003 285.196Z" fill="#161CDF"/>
<path fill-rule="evenodd" clip-rule="evenodd" d="M669.548 673.02C669.987 673.006 670.409 672.912 670.814 672.741C671.71 671.987 672.989 672.219 673.911 671.534C677.447 670.853 680.719 670.648 681.922 675.193C683.087 679.594 681.962 682.551 677.475 684.54C669.996 687.857 662.406 690.935 654.786 693.92C650.797 695.483 648.82 694.501 647.816 690.374C646.852 686.409 646.399 682.317 645.76 678.275C644.595 670.906 643.528 663.521 642.278 656.168C641.666 652.565 642.646 650.084 646.197 648.714C653.831 645.769 661.406 642.667 669.064 639.785C671.268 638.955 673.936 638.025 675.371 641.016C676.763 643.916 676.184 646.736 673.752 648.886C672.699 649.819 671.289 650.389 669.975 650.976C666.456 652.544 662.852 653.929 659.382 655.597C657.591 656.457 654.195 656.9 655.181 659.496C656.368 662.618 658.853 659.697 660.562 659.198C666.97 657.324 668.127 657.779 669.928 664.046C670.324 665.422 670.449 666.877 670.699 668.297C670.409 668.91 669.806 669.347 669.693 670.062L669.516 670.255C668.897 670.507 668.361 670.877 667.923 671.385L667.925 671.384C666.729 672.911 664.898 673.376 663.209 674.386C665.235 673.107 667.457 673.422 669.548 673.02Z" fill="#FEEBCA"/>
<path fill-rule="evenodd" clip-rule="evenodd" d="M669.548 673.02C666.063 675.013 662.415 676.436 657.229 676.808C660.566 672.73 664.404 672.372 667.925 671.384C668.466 671.93 669.008 672.474 669.548 673.02Z" fill="#8F94D8"/>
<path fill-rule="evenodd" clip-rule="evenodd" d="M673.911 671.534C673.127 672.573 672.075 672.927 670.814 672.74C671.565 671.614 672.644 671.332 673.911 671.534Z" fill="#8F94D8"/>
<path fill-rule="evenodd" clip-rule="evenodd" d="M669.693 670.062C670.028 669.473 670.364 668.886 670.699 668.298C670.739 669.099 670.384 669.676 669.693 670.062Z" fill="#8F94D8"/>
<path fill-rule="evenodd" clip-rule="evenodd" d="M667.924 671.385C668.454 671.009 668.985 670.631 669.516 670.255C669.211 670.951 668.692 671.344 667.924 671.385Z" fill="#8F94D8"/>
<path fill-rule="evenodd" clip-rule="evenodd" d="M270.554 736.945C271.729 736.69 272.916 736.475 274.081 736.176C279.115 734.89 281.026 735.479 282.611 738.843C284.261 742.342 283.454 748.236 280.903 750.257C279.783 751.145 278.461 751.838 277.136 752.395C268.005 756.228 258.896 760.119 249.685 763.75C244.132 765.94 241.531 764.304 240.336 757.55C238.488 747.089 237.046 736.557 235.455 726.053C234.949 722.71 234.522 719.356 234.045 716.009C233.45 711.827 235.027 709.155 239.111 707.63C248.611 704.08 258.007 700.253 267.479 696.63C270.208 695.588 273.167 694.559 275.235 697.826C276.874 700.411 276.01 705.871 273.504 707.811C271.813 709.12 269.784 710.044 267.808 710.918C263.171 712.972 258.403 714.744 253.837 716.941C251.964 717.844 248.191 718.026 249.706 721.533C251.087 724.727 253.443 721.77 255.279 721.449C257.39 721.082 259.358 719.961 261.455 719.447C263.502 718.945 265.369 719.564 266.348 721.59C268.471 725.99 270.544 730.438 267.289 735.228C265.089 738.204 261.66 738.666 257.062 740.394C262.473 738.662 266.35 737.05 270.554 736.945Z" fill="#FFECCA"/>
<path fill-rule="evenodd" clip-rule="evenodd" d="M270.554 736.944C265.208 739.767 259.629 741.731 253.495 741.84C257.46 738.128 262.351 736.626 267.289 735.228C267.965 736.584 269.299 736.687 270.554 736.944Z" fill="#7E8BDC"/>
<path fill-rule="evenodd" clip-rule="evenodd" d="M617.653 302.899C617.833 302.489 617.923 301.859 618.221 301.735C618.508 301.617 619.011 302.025 619.418 302.202C619.237 302.611 619.148 303.241 618.851 303.363C618.564 303.482 618.062 303.076 617.653 302.899Z" fill="#F5EEE8"/>
<path fill-rule="evenodd" clip-rule="evenodd" d="M584.687 300.388C587.103 305.28 586.866 310.207 585.796 315.595C582.761 311.906 582.401 307.981 584.687 300.388Z" fill="#FAFCFE"/>
<path fill-rule="evenodd" clip-rule="evenodd" d="M583.574 285.902C585.768 290.84 585.767 290.841 583.969 295.513C581.59 292.307 582.158 289.676 583.574 285.902Z" fill="#F7FBFD"/>
</g>
<path fill-rule="evenodd" clip-rule="evenodd" d="M177.499 329.904C176.523 329.723 175.996 329.086 176.099 328.111C176.204 327.111 176.935 326.592 177.863 326.737C178.799 326.883 179.289 327.661 179.277 328.605C179.264 329.781 178.369 329.868 177.499 329.904Z" fill="#E38C50"/>
<path fill-rule="evenodd" clip-rule="evenodd" d="M180.239 337.84C180.103 338.178 179.594 338.583 178.929 338.342C178.284 338.105 178.047 337.431 178.335 336.82C178.469 336.534 179.017 336.265 179.356 336.289C180.027 336.336 180.577 336.676 180.239 337.84Z" fill="#E38445"/>
<path fill-rule="evenodd" clip-rule="evenodd" d="M247.038 288.823C251.216 286.355 255.561 288.065 259.663 288.739C274.084 291.11 286.736 296.965 295.758 309.097C303.45 319.441 301.804 330.442 291.424 338.135C285.89 342.236 279.603 344.576 272.814 345.378C260.892 346.787 249.351 345.072 238.131 340.825C235.429 339.803 233.502 338.473 233.67 335.277C233.516 335.096 233.228 334.914 233.227 334.732C233.161 318.015 236.621 302.363 247.038 288.823Z" fill="#0B0705"/>
<path fill-rule="evenodd" clip-rule="evenodd" d="M250.434 301.642C249.762 304.037 249.002 305.221 247.39 304.879C245.733 304.527 245.626 303.044 245.878 301.673C246.187 299.997 246.567 298.323 247.091 296.706C247.41 295.72 248.342 295.223 249.377 295.464C250.4 295.704 250.995 296.573 250.935 297.573C250.837 299.27 250.525 300.956 250.434 301.642Z" fill="#E9EBEB"/>
<path fill-rule="evenodd" clip-rule="evenodd" d="M247.038 288.823C239.863 303.518 235.736 319.098 233.671 335.276C232.345 336.826 231.017 337.903 228.882 336.374C220.895 330.659 212.783 325.014 207.832 316.207C204.027 309.439 205.833 301.22 212.651 296.32C222.332 289.362 233.611 287.408 245.316 287.625C245.897 287.635 246.465 288.406 247.038 288.823Z" fill="white"/>
<path fill-rule="evenodd" clip-rule="evenodd" d="M262.981 243.735C281.912 243.842 295.142 254.277 298.071 269.658C298.295 270.838 298.606 272.043 298.561 273.224C298.468 275.598 297.455 277.589 294.874 277.8C292.541 277.99 291.613 276.149 291.058 274.173C290.928 273.708 290.827 273.236 290.716 272.766C286.487 254.905 271.507 246.983 253.828 253.359C247.144 255.77 241.301 259.47 237.087 265.403C236.389 266.385 235.645 267.341 234.846 268.239C233.221 270.064 231.239 270.898 229.178 269.168C227.379 267.659 227.916 265.618 228.968 263.896C230.092 262.055 231.34 260.251 232.769 258.643C241.408 248.916 252.356 244.187 262.981 243.735Z" fill="#705040"/>
<path fill-rule="evenodd" clip-rule="evenodd" d="M239.062 331.461C239.96 325.181 240.586 318.695 242.552 312.456C242.768 311.773 243.032 311.091 243.373 310.463C243.982 309.337 244.862 308.491 246.24 309.018C247.546 309.518 247.914 310.565 247.484 311.917C245.354 318.607 244.229 325.479 243.736 332.474C243.624 334.069 242.792 335.294 240.988 334.969C239.193 334.645 239.134 333.074 239.062 331.461Z" fill="#E7E4E1"/>
</g>
<defs>
<clipPath id="clip0_4063_36202">
<rect width="1000" height="1000" fill="white"/>
</clipPath>
</defs>
</svg>
