<svg width="702" height="659" viewBox="0 0 702 659" fill="none" xmlns="http://www.w3.org/2000/svg">
<path fill-rule="evenodd" clip-rule="evenodd" d="M223.667 122.337C224.332 125.308 226.29 125.829 229.104 125.793C242.352 125.627 255.604 125.737 268.853 125.609C271.687 125.582 274.4 126.131 277.105 126.67C280.657 127.378 283.596 131.269 283.962 135.303C284.426 140.43 284.646 145.573 284.933 150.711C285.491 160.71 286.088 170.705 286.637 180.705C287.139 189.866 287.78 199.022 288.304 208.185C288.866 218.032 289.511 227.872 290.003 237.727C290.461 246.889 290.986 256.066 291.742 265.198C292.234 271.147 291.873 277.146 292.958 283.083C293.46 285.828 292.918 288.838 292.466 291.666C291.557 297.347 288.168 300.162 282.414 300.171C268.746 300.192 255.077 300.145 241.408 300.125C240.431 300.124 239.454 300.094 238.479 300.128C235.508 300.229 235.412 300.335 235.338 303.18C235.306 304.431 235.264 305.682 235.225 306.932C234.404 306.886 233.828 306.334 233.825 305.644C233.806 301.118 230.801 301.246 227.514 301.203C218.338 301.083 209.129 301.931 199.894 300.598C210.118 305.784 220.225 311.159 230.346 316.506C232.172 317.471 234.255 318.112 235.3 320.15C235.342 320.733 235.385 321.316 235.427 321.899C234.942 329.822 235.235 337.776 234.51 345.688C233.28 348.541 230.839 350.201 228.324 351.697C215.46 359.349 201.627 360.681 187.155 358C183.521 357.326 180.836 354.458 177.157 354.005C175.739 353.263 176.072 351.914 175.985 350.692C175.568 344.842 174.601 339.06 173.872 333.25C173.619 331.234 172.201 329.727 171.781 327.81C171.921 320.565 170.703 313.394 170.737 306.136C170.769 299.311 170.493 299.311 163.66 299.3C154.603 299.284 145.546 299.274 136.488 299.237C135.242 299.232 133.963 299.234 132.756 298.973C126.527 297.628 123.672 294.068 123.184 287.142C123.105 286.032 123.161 284.911 123.16 283.795C123.139 265.106 123.125 246.416 123.096 227.727C123.09 223.814 123.084 223.737 119.284 222.7C111.786 220.653 107.898 214.252 107.194 206.864C106.595 200.562 108.649 195.082 112.975 190.463C114.424 189.312 115.919 190.158 117.358 190.433C122.457 191.407 127.324 190.761 132.058 188.677C135.128 187.327 137.641 185.314 138.784 182.162C139.987 178.844 142.315 177.465 145.55 176.763C151.205 175.537 156.392 173.35 160.665 169.188C164.042 165.898 166.811 162.328 167.784 157.631C168.367 154.816 170.045 153.321 172.803 152.752C180.508 151.16 185.495 146.223 189.064 139.488C190.68 136.437 191.773 133.416 190.735 129.896C190.321 128.491 189.804 126.837 191.626 125.809C196.404 124.692 201.249 125.397 206.059 125.285C210.062 125.192 214.047 125.138 218.031 124.596C220.161 124.307 222.029 123.695 223.667 122.337Z" fill="#EDCEB4"/>
<path fill-rule="evenodd" clip-rule="evenodd" d="M191.028 126.539C192.273 130.586 193.309 134.655 190.924 138.643C187.485 144.393 184.261 150.618 177.139 152.401C172.04 153.678 169.152 155.786 167.572 161.331C165.534 168.479 159.294 172.603 152.711 175.737C151.588 176.272 150.374 176.65 149.168 176.966C146.754 177.601 144.025 177.65 141.973 178.865C140.01 180.029 140.096 183.054 138.697 184.977C137.696 186.351 136.557 187.544 135.067 188.369C128.859 191.809 122.367 193.222 115.384 191.103C114.59 190.862 113.778 190.674 112.975 190.462C110.277 189.023 107.573 187.678 105.308 185.476C99.8532 180.174 97.2113 173.837 97.8985 166.268C98.1652 163.335 97.2505 161.4 94.9692 159.514C89.9139 155.337 88.4427 149.622 89.2398 143.308C90.7163 131.608 96.4289 122.658 106.83 116.893C107.987 116.252 108.659 115.534 109.091 114.178C112.665 102.949 122.897 96.4591 134.626 98.0674C141.572 99.02 147.719 101.775 152.45 107.185C155.352 108.902 158.148 108.926 161.463 107.816C174.736 103.368 190.443 116.556 191.028 126.539Z" fill="#6E4E3E"/>
<path fill-rule="evenodd" clip-rule="evenodd" d="M537.768 234.743C540.855 232.218 544.264 230.147 546.607 226.69C551.52 219.437 552.946 212.054 548.563 204.065C548.243 203.482 548.183 202.757 548.003 202.097C554.17 198.375 560.542 194.972 566.174 190.414C572.985 190.404 579.771 190.147 586.604 190.888C592.534 191.533 598.583 191.084 604.58 191.09C611.135 191.096 617.69 191.082 624.245 191.052C626.466 191.041 628.659 191.056 630.878 190.509C633.204 189.937 635.602 190.12 637.652 191.707C639.579 193.201 639.857 194.838 638.204 196.683C636.531 198.55 634.784 200.397 632.836 201.962C627.181 206.504 622.19 211.765 616.809 216.603C607.595 224.889 598.748 233.584 589.578 241.92C582.572 248.289 575.582 254.667 568.692 261.164C559.478 269.852 550.013 278.273 540.701 286.858C539.336 288.116 537.868 288.755 536.151 288.163C534.339 287.539 533.658 285.812 533.695 284.132C533.867 276.059 533.193 267.978 534.244 259.906C534.71 256.332 534.423 252.661 534.476 249.034C534.224 248.497 534.193 247.894 534.566 247.473C537.459 244.217 538.077 240.427 537.304 236.278C537.2 235.719 537.419 235.196 537.768 234.743Z" fill="#D6CFC8"/>
<path fill-rule="evenodd" clip-rule="evenodd" d="M191.028 126.539C188.783 122.278 186.766 117.868 182.931 114.688C175.759 108.742 167.998 105.7 158.849 109.886C156.909 110.773 155.461 110.787 154.258 108.825C153.838 108.14 152.777 108.047 152.45 107.185C154.727 107.739 155.683 105.825 156.85 104.615C162.012 99.2637 168.367 97.1364 175.646 97.0403C182.451 96.9503 187.762 100.003 191.959 104.952C193.7 107.004 195.112 107.427 197.596 106.723C205.955 104.353 212.892 106.982 218.654 113.25C221.068 115.876 222.225 119.182 223.667 122.336C223.601 125.758 223.593 125.644 220.416 125.887C210.63 126.636 200.822 126.222 191.028 126.539Z" fill="#93634B"/>
<path fill-rule="evenodd" clip-rule="evenodd" d="M124.715 205.576C124.715 207.247 124.865 208.935 124.681 210.587C124.376 213.33 122.919 214.249 120.378 213.538C116.819 212.542 113.762 208.451 113.836 204.784C113.912 200.981 116.261 198.253 120.383 197.177C122.993 196.496 124.354 197.359 124.641 200.146C124.826 201.938 124.676 203.764 124.676 205.576C124.689 205.576 124.702 205.576 124.715 205.576Z" fill="#C7A180"/>
<mask id="mask0_4008_38184" style="mask-type:alpha" maskUnits="userSpaceOnUse" x="71" y="52" width="509" height="518">
<path d="M160.413 486.222C135.99 470.4 116.528 455.882 100.376 437.253C67.3724 399.183 59.5141 360.289 91.7438 305.867C105.104 283.303 122.959 263.987 141.107 245.017C181.737 202.548 222.95 160.647 268.049 122.65C291.141 103.193 309.374 91.701 359.199 68.0185C409.024 44.336 456.908 48.7552 503.141 74.5486C511.11 78.9949 518.515 84.3936 526.119 89.4389C543.151 100.739 555.422 115.978 563.936 134.253C573.82 155.464 578.42 177.874 578.918 201.392C580.709 285.899 561.722 366.112 521.957 442.029C505.087 474.531 482.266 503.811 454.664 528.369C407.273 570.477 354.686 580.45 297.323 556.339C267.784 543.922 239.28 529.152 210.762 514.617C192.24 505.18 174.539 494.247 160.413 486.222Z" fill="white"/>
</mask>
<g mask="url(#mask0_4008_38184)">
<path d="M160.413 486.222C135.99 470.4 116.528 455.882 100.376 437.253C67.3724 399.183 59.5141 360.289 91.7438 305.867C105.104 283.303 122.959 263.987 141.107 245.017C181.737 202.548 222.95 160.647 268.049 122.65C291.141 103.193 309.374 91.701 359.199 68.0185C409.024 44.336 456.908 48.7552 503.141 74.5486C511.11 78.9949 518.515 84.3936 526.119 89.4389C543.151 100.739 555.422 115.978 563.936 134.253C573.82 155.464 578.42 177.874 578.918 201.392C580.709 285.899 561.722 366.112 521.957 442.029C505.087 474.531 482.266 503.811 454.664 528.369C407.273 570.477 354.686 580.45 297.323 556.339C267.784 543.922 239.28 529.152 210.762 514.617C192.24 505.18 174.539 494.247 160.413 486.222Z" fill="#2351DF"/>
<path fill-rule="evenodd" clip-rule="evenodd" d="M484.483 320.445C492.964 321.091 501.438 321.87 509.929 322.341C516.396 322.701 521.424 325.121 523.063 334.443C525.554 348.597 526.78 362.93 528.265 377.224C529.663 390.682 531.272 404.118 532.786 417.565C534.018 428.518 535.237 439.471 536.478 450.422C538.049 464.284 539.645 478.143 541.216 492.005C542.709 505.174 544.175 518.346 545.67 531.514C546.709 540.662 547.486 549.854 548.953 558.935C549.718 563.675 547.936 567.623 546.663 571.775C546.033 573.83 543.925 574.455 541.874 574.522C539.783 574.59 537.687 574.492 535.594 574.49C493.161 574.431 450.727 574.391 408.294 574.309C395.454 574.284 382.615 574.138 369.774 574.062C368.109 574.052 366.478 574.063 364.821 574.593C361.092 575.786 357.887 574.05 356.718 570.251C354.543 563.172 352.992 555.963 352.144 548.589C349.417 524.92 350.027 501.174 350.723 477.453C351.223 460.439 352.712 443.47 354.469 426.526C357.377 398.475 361.288 370.599 368.059 343.186C369.631 336.818 371.451 330.513 373.927 324.427C374.871 322.106 375.911 319.802 377.148 317.627C378.922 314.511 381.44 312.713 385.349 313.049C394.513 313.838 403.695 314.415 412.87 315.073C416.348 315.322 419.827 315.56 423.305 315.803C424.72 317.074 424.64 318.811 424.66 320.464C424.724 326.041 425.151 331.664 424.56 337.187C423.504 347.079 424.025 356.968 423.882 366.857C423.836 370.078 423.527 373.257 423.063 376.428C421.481 390.936 421.151 405.544 419.644 420.065C418.87 427.54 419.637 428.365 427.236 428.986C438.196 429.879 449.124 431.09 460.078 432.025C463.939 432.355 464.623 431.781 464.825 427.681C465.489 414.22 467.076 400.82 467.513 387.345C467.558 385.943 467.876 384.584 468.208 383.23C468.302 382.753 468.438 382.287 468.582 381.824C468.759 381.124 468.928 380.42 469.065 379.708C471.743 362.633 474.147 345.519 476.594 328.412C476.713 327.584 476.801 326.753 476.936 325.927C477.945 319.796 477.955 319.788 484.483 320.445Z" fill="#F48726"/>
<path fill-rule="evenodd" clip-rule="evenodd" d="M240.797 327.478C252.049 326.591 263.301 325.697 274.554 324.819C279.141 324.462 283.724 324.035 288.317 323.825C293.212 323.601 297.916 327.404 298.626 332.216C299.786 340.077 300.779 347.962 301.826 355.839C303.717 370.074 305.706 384.296 307.453 398.549C309.93 418.748 313.349 438.815 315.471 459.07C317.024 473.906 319.482 488.647 321.551 503.427C323.06 514.199 324.673 524.958 326.083 535.743C326.976 542.568 329.278 549.021 330.935 555.643C331.646 558.483 332.556 561.272 333.36 564.09C334.856 569.341 332.233 572.805 326.678 572.877C323.747 572.916 320.816 572.87 317.884 572.884C298.62 572.979 279.35 572.797 260.094 573.244C230.367 573.936 200.634 573.56 170.912 574.102C159.469 574.31 148.028 574.481 136.586 574.56C131.669 574.592 130.621 573.796 129.163 568.983C127.134 562.286 126.222 555.361 125.104 548.48C122.779 534.154 121.643 519.682 119.819 505.299C117.748 488.969 115.825 472.624 114.473 456.229C113.684 446.652 113.112 437.027 113.302 427.388C113.538 415.518 112.798 403.634 113.527 391.778C114.519 375.636 115.531 359.477 119.176 343.645C120.275 338.873 121.869 337.715 126.642 337.31C140.11 336.167 153.574 334.988 167.04 333.823C170.848 332.949 171.158 335.787 171.506 338.253C172.597 345.97 173.542 353.707 174.491 361.443C176.287 376.082 178.441 390.676 179.939 405.353C180.37 414.809 181.57 424.204 182.1 433.654C182.6 442.556 184.063 451.383 184.172 460.323C184.214 463.798 185.074 467.213 185.193 470.704C185.289 473.528 187.148 474.522 189.737 474.388C196.55 474.034 203.365 473.693 210.176 473.341C218.512 472.91 226.814 471.916 235.183 471.854C242.458 471.801 242.852 470.868 242.391 463.764C241.767 454.17 240.744 444.612 240.196 435.008C239.658 425.577 238.506 416.177 238.169 406.717C238.855 400.189 238.482 393.642 238.504 387.107C238.562 369.433 238.48 351.76 238.571 334.087C238.582 331.733 237.817 328.917 240.797 327.478Z" fill="#FAB434"/>
<path fill-rule="evenodd" clip-rule="evenodd" d="M223.982 122.737C224.647 125.707 226.604 126.227 229.418 126.192C242.666 126.025 255.918 126.135 269.166 126.008C272 125.981 274.713 126.529 277.418 127.068C280.969 127.776 283.909 131.666 284.274 135.698C284.739 140.824 284.958 145.965 285.245 151.102C285.804 161.097 286.4 171.089 286.949 181.085C287.452 190.243 288.093 199.396 288.616 208.556C289.178 218.4 289.823 228.236 290.316 238.089C290.773 247.247 291.299 256.421 292.054 265.55C292.546 271.497 292.185 277.494 293.27 283.429C293.772 286.173 293.23 289.182 292.778 292.009C291.87 297.688 288.48 300.502 282.727 300.511C269.059 300.533 255.391 300.485 241.721 300.466C240.745 300.464 239.768 300.434 238.793 300.468C235.822 300.569 235.726 300.675 235.652 303.519C235.62 304.77 235.578 306.02 235.539 307.27C234.718 307.224 234.142 306.672 234.139 305.982C234.12 301.458 231.115 301.585 227.829 301.542C218.652 301.423 209.444 302.27 200.209 300.938C210.433 306.122 220.54 311.496 230.66 316.841C232.487 317.806 234.569 318.446 235.614 320.483C235.656 321.066 235.699 321.649 235.742 322.232C235.256 330.153 235.549 338.103 234.825 346.013C233.594 348.865 231.154 350.525 228.638 352.02C215.775 359.67 201.942 361.001 187.47 358.321C183.837 357.647 181.152 354.78 177.473 354.327C176.055 353.586 176.388 352.237 176.301 351.015C175.884 345.168 174.917 339.387 174.188 333.579C173.935 331.564 172.517 330.057 172.097 328.141C172.237 320.898 171.02 313.729 171.053 306.474C171.085 299.652 170.809 299.652 163.977 299.64C154.919 299.625 145.863 299.615 136.805 299.578C135.559 299.573 134.28 299.575 133.073 299.314C126.845 297.969 123.989 294.41 123.501 287.486C123.423 286.377 123.478 285.257 123.478 284.141C123.457 265.458 123.443 246.775 123.414 228.091C123.408 224.179 123.401 224.102 119.601 223.066C112.104 221.02 108.216 214.621 107.513 207.235C106.913 200.936 108.968 195.458 113.293 190.84C114.742 189.69 116.237 190.535 117.676 190.81C122.774 191.783 127.642 191.138 132.376 189.055C135.445 187.705 137.958 185.693 139.101 182.542C140.304 179.224 142.632 177.846 145.867 177.145C151.522 175.919 156.709 173.732 160.981 169.572C164.359 166.284 167.127 162.714 168.1 158.019C168.683 155.205 170.362 153.711 173.119 153.141C180.824 151.55 185.811 146.615 189.379 139.882C190.996 136.832 192.088 133.812 191.05 130.293C190.636 128.889 190.12 127.235 191.941 126.207C196.719 125.091 201.564 125.796 206.374 125.684C210.377 125.591 214.362 125.537 218.346 124.995C220.475 124.706 222.344 124.095 223.982 122.737Z" fill="#EDCEB4"/>
<path fill-rule="evenodd" clip-rule="evenodd" d="M434.299 308.084C432.816 305.958 433.475 303.603 433.574 301.308C433.712 301.317 433.925 301.269 433.979 301.341C437.015 305.366 437.025 305.395 442.284 303.408C446.283 301.896 450.29 300.407 454.511 298.799C448.252 299.592 442.191 299.854 436.142 300.269C435.155 300.337 434.194 300.401 433.413 299.631C428.052 298.16 422.588 297.103 417.389 295.002C400.178 288.045 387.277 276.23 377.749 260.446C371.911 250.777 368.278 240.291 365.681 229.383C368.053 227.7 369.545 229.88 371.208 230.778C388.581 240.15 408.611 237.249 422.248 224.086C439.584 207.352 438.779 177.605 420.717 161.16C411.768 153.012 401.424 148.655 389.213 148.951C387.2 149 384.99 149.525 383.26 147.827C383.319 147.649 383.32 147.47 383.266 147.29C383.4 146.825 383.686 146.482 384.101 146.242C387.455 142.625 390.351 138.595 394.005 135.25C396.999 130.14 401.817 126.942 406.666 124.067C413.555 119.983 420.414 115.606 428.61 114.387C430.556 114.68 431.053 116.137 431.061 117.749C431.114 129.295 437.087 138.321 444.213 146.398C461.825 166.361 483.459 180.508 508.713 189.023C518.427 192.298 528.45 193.798 538.671 194.111C542.881 195.892 546.143 198.85 548.936 202.398C555.859 215.425 551.259 229.708 538.313 235.424C536.639 235.513 535.568 234.286 534.276 233.545C530.143 231.177 525.88 231.508 522.375 234.487C519.245 237.149 518.675 240.082 520.352 244.93C520.665 245.833 521.153 246.713 520.659 247.704C510.286 270.171 494.097 286.593 470.81 295.579C465.709 297.548 464.967 298.219 465.545 303.764C465.936 307.52 465.894 311.266 466.063 315.015C466.119 316.267 466.06 317.522 466.054 318.776C463.288 317.877 464.035 315.436 464.07 313.597C464.131 310.259 462.621 309.213 459.512 309.253C452.96 309.339 446.463 310.6 439.889 310.107C437.832 309.954 435.612 310.281 434.299 308.084Z" fill="#C7A07F"/>
<path fill-rule="evenodd" clip-rule="evenodd" d="M539.036 194.923C516.488 195.274 496.653 186.905 477.706 175.748C464.879 168.195 453.643 158.663 443.72 147.616C438.286 141.566 434.103 134.677 431.302 126.971C430.226 124.011 429.942 121.019 430.008 117.936C430.034 116.682 430.23 115.319 428.419 115.084C429.758 111.656 430.847 108.067 434.259 105.969C441.917 99.2444 450.849 98.1177 460.69 99.0231C475.811 100.415 489.628 105.591 502.955 112.323C514.779 118.296 525.565 125.826 535.586 134.585C542.685 140.791 548.66 147.791 553.875 155.551C555.906 158.574 557.625 161.808 558.818 165.202C562.336 175.211 561.675 181.375 554.828 189.542C555.9 190.239 557.396 189.429 558.341 190.529C551.889 191.919 546.102 196.236 539.036 194.923Z" fill="#D6CFC8"/>
<path fill-rule="evenodd" clip-rule="evenodd" d="M191.344 126.937C192.588 130.983 193.625 135.051 191.24 139.037C187.801 144.785 184.577 151.008 177.455 152.791C172.356 154.068 169.468 156.174 167.888 161.718C165.851 168.864 159.61 172.986 153.028 176.119C151.905 176.654 150.691 177.031 149.484 177.348C147.071 177.982 144.342 178.031 142.29 179.246C140.327 180.409 140.413 183.433 139.014 185.355C138.014 186.73 136.874 187.922 135.384 188.747C129.176 192.186 122.685 193.598 115.702 191.48C114.907 191.239 114.096 191.051 113.293 190.839C110.595 189.4 107.891 188.056 105.626 185.855C100.172 180.554 97.5298 174.22 98.2169 166.653C98.4836 163.721 97.569 161.787 95.2877 159.902C90.2325 155.726 88.7614 150.013 89.5584 143.701C91.035 132.005 96.7473 123.057 107.148 117.295C108.305 116.654 108.978 115.936 109.41 114.58C112.983 103.356 123.215 96.8675 134.943 98.4753C141.889 99.4275 148.036 102.182 152.766 107.59C155.669 109.306 158.465 109.33 161.779 108.221C175.052 103.774 190.758 116.958 191.344 126.937Z" fill="#6E4E3E"/>
<path fill-rule="evenodd" clip-rule="evenodd" d="M538.073 235.105C541.16 232.581 544.569 230.511 546.912 227.054C551.825 219.805 553.25 212.424 548.868 204.437C548.548 203.855 548.488 203.129 548.307 202.47C554.475 198.749 560.847 195.348 566.478 190.791C573.289 190.781 580.074 190.524 586.907 191.265C592.837 191.909 598.886 191.46 604.883 191.467C611.438 191.473 617.993 191.459 624.547 191.429C626.768 191.418 628.961 191.433 631.18 190.886C633.506 190.314 635.904 190.497 637.953 192.084C639.881 193.577 640.159 195.213 638.505 197.058C636.833 198.925 635.086 200.771 633.138 202.335C627.483 206.875 622.492 212.134 617.112 216.971C607.898 225.254 599.051 233.947 589.881 242.28C582.875 248.647 575.885 255.023 568.996 261.517C559.782 270.202 550.317 278.62 541.006 287.203C539.641 288.46 538.173 289.099 536.456 288.508C534.644 287.884 533.963 286.157 534 284.477C534.172 276.408 533.498 268.329 534.549 260.26C535.015 256.687 534.728 253.018 534.781 249.392C534.529 248.854 534.498 248.252 534.871 247.831C537.764 244.576 538.382 240.788 537.609 236.64C537.505 236.081 537.724 235.558 538.073 235.105Z" fill="#D6CFC8"/>
<path fill-rule="evenodd" clip-rule="evenodd" d="M434.299 308.084C435.845 308.895 437.523 308.759 439.192 308.85C446.578 309.254 453.892 307.859 461.268 308.045C465.18 308.144 465.077 308.096 465.303 311.89C465.44 314.188 464.655 316.615 466.055 318.777C468.781 319.694 471.645 319.512 474.447 319.836C475.61 320.969 475.376 322.382 475.185 323.755C472.795 340.973 470.355 358.184 467.707 375.364C467.476 376.861 467.267 378.414 466.147 379.609C461.878 381.375 457.634 379.553 453.439 379.262C445.847 378.734 438.251 377.969 430.677 377.1C429.167 376.928 427.585 377.137 426.364 375.928C425.314 374.315 425.421 372.481 425.394 370.685C425.145 354.447 426.73 338.245 426.306 321.999C426.248 319.744 426.2 317.137 429.199 316.259C429.74 316.322 430.281 316.42 430.824 316.441C434.368 316.579 434.381 316.573 434.387 312.994C434.389 311.357 434.33 309.721 434.299 308.084Z" fill="#F48726"/>
<path fill-rule="evenodd" clip-rule="evenodd" d="M383.26 147.827C388.528 148.111 393.787 147.534 399.078 148.58C416.885 152.101 431.882 167.114 435.107 184.999C437.848 200.202 434.05 213.584 423.248 224.559C409.231 238.799 387.665 241.5 369.775 231.188C368.476 230.439 367.394 229.188 365.68 229.382C365.211 228.333 364.421 227.525 363.558 226.827C356.679 221.267 351.812 214.238 349.021 205.917C345.609 195.742 345.599 185.566 349.639 175.418C353.731 165.14 360.659 157.51 370.277 152.287C373.455 150.561 377.033 149.748 380.5 148.726C381.428 148.452 382.34 148.128 383.26 147.827Z" fill="#FDEBEC"/>
<path fill-rule="evenodd" clip-rule="evenodd" d="M191.344 126.937C189.098 122.678 187.082 118.269 183.247 115.09C176.075 109.147 168.314 106.105 159.165 110.289C157.225 111.176 155.778 111.19 154.575 109.229C154.155 108.544 153.094 108.451 152.766 107.59C155.044 108.144 155.999 106.231 157.167 105.021C162.329 99.6711 168.684 97.5446 175.962 97.4485C182.767 97.3586 188.077 100.41 192.275 105.358C194.016 107.409 195.427 107.832 197.911 107.128C206.271 104.759 213.207 107.387 218.969 113.653C221.382 116.278 222.539 119.583 223.982 122.736C223.916 126.157 223.907 126.042 220.731 126.285C210.945 127.034 201.137 126.62 191.344 126.937Z" fill="#93634B"/>
<path fill-rule="evenodd" clip-rule="evenodd" d="M434.259 105.968C433.181 107.834 432.02 109.657 431.052 111.577C430.372 112.925 429.562 114.116 428.418 115.085C415.96 119.019 404.758 125.117 395.352 134.312C394.966 134.689 394.457 134.94 394.005 135.249C393.715 133.476 393.58 131.659 393.107 129.935C391.348 123.529 393.635 118.076 397.368 113.225C404.554 103.884 414.51 101.438 425.7 102.747C428.77 103.105 431.272 105.24 434.259 105.968Z" fill="#E5DACE"/>
<path fill-rule="evenodd" clip-rule="evenodd" d="M172.097 328.141C174.452 329.537 175.321 331.511 175.469 334.329C175.713 339.005 176.466 343.669 177.257 348.295C177.497 349.7 177.816 350.945 177.22 352.308C176.913 353.011 177.237 353.657 177.848 354.125C179.591 355.465 179.673 357.476 179.938 359.395C182.075 374.847 183.864 390.343 185.797 405.822C185.624 407.173 186.218 408.638 185.283 409.875C184.224 411.275 182.738 411.436 181.153 411.16C179.675 410.903 179.098 409.978 179.123 408.498C179.14 407.406 179.37 406.267 178.795 405.224C177.469 395.013 176.115 384.804 174.824 374.588C173.568 364.645 172.377 354.694 171.155 344.747C170.816 341.984 170.442 339.224 170.139 336.458C169.931 334.557 168.777 333.87 167.039 333.823C167.965 333.007 169.56 333.013 169.712 331.227C169.83 329.826 171.183 329.087 172.097 328.141Z" fill="#DED8D1"/>
<path fill-rule="evenodd" clip-rule="evenodd" d="M233.918 346.753C233.946 343.291 233.974 339.829 234.004 336.368C234.045 331.589 233.496 326.739 235.742 322.232C237.427 323.98 239.113 325.728 240.797 327.478C239.188 328.92 239.754 330.842 239.759 332.585C239.821 355.822 239.936 379.058 239.994 402.294C239.998 403.889 240.615 405.672 239.086 406.998C234.996 408.286 233.784 407.539 233.723 403.161C233.564 391.603 233.685 380.042 233.66 368.482C233.655 366.26 233.817 364.02 233.091 361.859C232.829 356.796 231.727 351.683 233.918 346.753Z" fill="#DED8D1"/>
<path fill-rule="evenodd" clip-rule="evenodd" d="M235.614 320.483C222.73 313.884 209.847 307.284 196.345 300.367C198.385 299.499 199.888 299.71 201.268 299.837C210.87 300.722 220.496 300.29 230.109 300.482C231.085 300.502 232.061 300.517 233.037 300.532C234.249 300.551 234.714 301.205 234.797 302.376C234.913 304.023 234.581 305.75 235.54 307.271C235.329 311.676 236.13 316.076 235.614 320.483Z" fill="#A9734F"/>
<path fill-rule="evenodd" clip-rule="evenodd" d="M538.073 235.105C540.401 240.657 539.168 245.388 534.782 249.392C529.696 251.993 525.011 251.233 520.659 247.704C519.271 245.009 517.432 242.484 518.195 239.124C519.646 232.732 527.324 228.993 533.321 231.763C535.129 232.599 536.483 234.002 538.073 235.105Z" fill="#FAB434"/>
<path fill-rule="evenodd" clip-rule="evenodd" d="M465.909 379.126C468.706 360.056 471.504 340.986 474.293 321.914C474.393 321.229 474.398 320.529 474.447 319.837C474.47 318.623 475.071 317.733 476.005 317.02C476.639 316.537 477.585 316.401 477.868 317.003C479.227 319.897 482.237 319.401 484.483 320.445C479.049 320.651 478.951 320.636 478.114 326.282C476.293 338.552 474.59 350.839 472.827 363.117C471.975 369.049 471.095 374.977 470.228 380.907C469.994 381.223 469.726 381.507 469.418 381.752L469.41 381.751C466.952 382.599 465.57 382.011 465.909 379.126Z" fill="#DED8D1"/>
<path fill-rule="evenodd" clip-rule="evenodd" d="M429.199 316.259C427.61 317.243 427.839 318.884 427.793 320.37C427.693 323.567 427.713 326.766 427.64 329.963C427.329 343.721 426.993 357.478 426.693 371.236C426.66 372.759 426.797 374.286 426.855 375.812C426.045 379.16 424.77 379.386 421.77 376.713C422.568 371.18 422.308 365.603 422.45 360.043C422.78 347.106 423.091 334.167 423.387 321.228C423.428 319.421 423.336 317.611 423.305 315.803C423.503 315.157 423.55 314.402 423.924 313.884C425.308 311.968 426.355 311.943 427.77 313.775C428.349 314.525 428.729 315.427 429.199 316.259Z" fill="#DED7D1"/>
<path fill-rule="evenodd" clip-rule="evenodd" d="M566.477 190.791C561.723 196.714 555.383 200.164 548.307 202.469C545.234 199.932 542.403 197.096 539.035 194.922C543.268 194.12 547.516 193.407 551.353 191.236C553.543 189.997 556.041 191.09 558.341 190.53C561.053 190.617 563.765 190.704 566.477 190.791Z" fill="#A89C90"/>
<path fill-rule="evenodd" clip-rule="evenodd" d="M433.413 299.631C441.487 298.511 449.61 298.202 457.83 298.201C450.31 301.606 442.681 304.575 434.924 307.102C433.609 305.166 434.855 302.959 433.574 301.307C433.52 300.749 433.467 300.19 433.413 299.631Z" fill="#785D46"/>
<path fill-rule="evenodd" clip-rule="evenodd" d="M384.1 146.241C383.822 146.589 383.544 146.938 383.266 147.288C383.314 146.757 383.594 146.409 384.1 146.241Z" fill="#FDEBEC"/>
<path fill-rule="evenodd" clip-rule="evenodd" d="M421.771 376.713C425.057 378.091 425.458 378.02 426.854 375.812C435.937 376.2 444.939 377.479 453.985 378.208C457.951 378.527 461.887 379.514 465.909 379.126C466.168 381.214 467.799 381.468 469.41 381.752C468.195 391.269 467.972 400.869 467.168 410.42C466.68 416.222 465.922 422.055 466.058 427.918C466.081 428.893 466.111 429.888 465.955 430.844C465.566 433.224 464.689 433.992 462.221 433.671C459.74 433.348 457.268 433.069 454.771 432.853C447.585 432.231 440.433 431.191 433.242 430.651C429.222 430.349 425.222 429.804 421.198 429.638C419.087 429.551 418.246 428.807 418.268 426.641C418.344 419.537 419.12 412.489 419.79 405.431C419.829 405.015 419.93 404.601 419.934 404.186C420.038 394.994 420.997 385.859 421.771 376.713Z" fill="#E9B07D"/>
<path fill-rule="evenodd" clip-rule="evenodd" d="M469.418 381.752C469.688 381.47 469.958 381.189 470.228 380.907C470.192 381.413 469.909 381.682 469.418 381.752Z" fill="#E9B07D"/>
<path fill-rule="evenodd" clip-rule="evenodd" d="M234.093 361.603C235.237 362.935 234.764 364.545 234.772 366.031C234.837 378.184 234.861 390.336 234.861 402.488C234.861 406.906 234.424 406.878 239.085 406.998C240.108 413.875 239.671 420.895 240.821 427.725C241.751 433.244 241.404 438.801 242.121 444.328C242.671 448.556 243.357 452.875 243.168 457.183C242.995 461.117 244.167 464.909 244.078 468.816C244.009 471.833 243.994 471.721 240.973 472.519C239.05 473.028 237.134 473.234 235.191 473.135C228.079 472.777 221.015 473.746 213.962 474.226C205.656 474.791 197.331 474.983 189.03 475.641C184.649 475.988 184.056 475.184 183.758 470.79C183.178 462.201 182.854 453.585 181.946 445.031C180.863 434.811 180.168 424.573 179.457 414.329C179.247 411.295 178.266 408.318 178.794 405.224C179.467 405.838 179.423 406.665 179.522 407.477C179.844 410.114 180.598 410.65 183.164 410.247C184.434 410.047 185.192 409.576 184.778 408.087C184.601 407.451 184.667 406.747 184.622 406.074C190.254 405.048 195.994 405.359 201.659 405.06C209.438 404.65 217.211 403.835 225.026 403.916C232.177 403.99 232.688 403.358 232.697 396.39C232.71 386.764 232.667 377.138 232.726 367.512C232.739 365.471 232.346 363.271 234.093 361.603Z" fill="#ECC684"/>
<path fill-rule="evenodd" clip-rule="evenodd" d="M234.093 361.603C234.069 374.147 234.039 386.691 234.023 399.235C234.016 404.743 233.991 404.786 228.546 405.194C228.13 405.226 227.71 405.227 227.293 405.211C218.659 404.887 210.095 406.197 201.467 406.32C197.205 406.381 192.898 406.918 188.593 406.985C187.175 407.007 185.806 406.992 184.621 406.074C182.289 388.767 180.546 371.384 177.848 354.125C178.096 352.46 179.034 352.943 179.865 353.546C183.205 355.97 186.964 357.327 191.015 357.808C206.422 359.633 220.904 357.717 233.192 347.144C233.396 346.969 233.674 346.881 233.918 346.752C233.976 351.703 234.034 356.653 234.093 361.603Z" fill="#FAB434"/>
<path fill-rule="evenodd" clip-rule="evenodd" d="M205.615 187.355C208.035 185.93 210.551 186.917 212.926 187.306C221.278 188.675 228.605 192.055 233.829 199.058C238.284 205.03 237.331 211.38 231.32 215.821C228.115 218.189 224.474 219.539 220.542 220.003C213.638 220.816 206.955 219.826 200.457 217.374C198.892 216.784 197.776 216.016 197.874 214.172C197.784 214.067 197.618 213.962 197.617 213.857C197.578 204.207 199.582 195.171 205.615 187.355Z" fill="#0B0705"/>
<path fill-rule="evenodd" clip-rule="evenodd" d="M158.603 242.366C158.346 239.918 158.832 237.337 159.978 234.896C161.12 232.462 163.345 231.619 165.856 232.587C167.857 233.359 168.764 235.216 168.185 237.666C167.55 240.354 166.894 242.887 167.696 245.796C169.354 251.814 172.488 254.577 178.673 255.872C184.277 257.046 188.425 254.857 192.228 248.987C193.045 247.727 193.419 246.181 194.009 244.771C195.144 242.059 196.57 241.257 199.202 241.835C201.338 242.303 202.278 243.75 202.169 246.627C202.043 249.938 200.81 252.936 198.83 255.482C194.45 261.117 188.677 264.867 181.503 265.05C175.263 265.211 169.349 263.087 164.902 258.44C160.745 254.097 158.3 248.848 158.603 242.366Z" fill="#DA9CB5"/>
<path fill-rule="evenodd" clip-rule="evenodd" d="M205.615 187.355C201.46 195.838 199.07 204.831 197.874 214.171C197.106 215.065 196.337 215.687 195.1 214.805C190.475 211.506 185.777 208.247 182.91 203.163C180.707 199.256 181.753 194.511 185.701 191.682C191.307 187.666 197.839 186.538 204.617 186.663C204.954 186.669 205.283 187.114 205.615 187.355Z" fill="white"/>
<path fill-rule="evenodd" clip-rule="evenodd" d="M214.848 161.326C225.811 161.388 233.473 167.412 235.169 176.291C235.299 176.972 235.479 177.668 235.453 178.35C235.399 179.72 234.812 180.87 233.317 180.991C231.966 181.101 231.429 180.038 231.108 178.897C231.032 178.629 230.974 178.356 230.909 178.085C228.461 167.774 219.785 163.201 209.547 166.882C205.676 168.274 202.292 170.41 199.852 173.835C199.448 174.401 199.017 174.953 198.554 175.472C197.613 176.526 196.465 177.007 195.272 176.009C194.23 175.137 194.541 173.959 195.15 172.965C195.801 171.902 196.524 170.861 197.352 169.932C202.354 164.317 208.695 161.587 214.848 161.326Z" fill="#705040"/>
<path fill-rule="evenodd" clip-rule="evenodd" d="M125.032 205.947C125.032 207.618 125.182 209.306 124.999 210.957C124.694 213.7 123.237 214.618 120.696 213.907C117.137 212.912 114.08 208.822 114.153 205.156C114.23 201.355 116.578 198.628 120.701 197.552C123.311 196.871 124.671 197.734 124.959 200.52C125.144 202.311 124.994 204.137 124.994 205.947C125.006 205.947 125.019 205.947 125.032 205.947Z" fill="#C7A180"/>
<path fill-rule="evenodd" clip-rule="evenodd" d="M159.303 217.968C158.348 217.805 157.843 217.224 157.831 216.331C157.824 215.797 158.093 215.235 158.775 215.303C159.701 215.395 160.19 216.025 160.209 216.912C160.22 217.452 159.947 217.938 159.303 217.968Z" fill="#E49660"/>
<path fill-rule="evenodd" clip-rule="evenodd" d="M245.725 231.372C244.965 231.329 244.454 230.917 244.348 230.142C244.262 229.519 244.605 229.015 245.219 228.938C246.051 228.834 246.474 229.392 246.575 230.154C246.656 230.759 246.433 231.236 245.725 231.372Z" fill="#E4955F"/>
<path fill-rule="evenodd" clip-rule="evenodd" d="M252.672 236.618C252.811 235.872 253.231 235.399 254.015 235.426C254.706 235.45 254.89 235.997 254.858 236.559C254.823 237.189 254.338 237.525 253.772 237.538C253.219 237.55 252.727 237.298 252.672 236.618Z" fill="#E59762"/>
<path fill-rule="evenodd" clip-rule="evenodd" d="M238.804 229.789C238.75 230.471 238.332 230.808 237.743 230.791C237.174 230.774 236.69 230.455 236.628 229.821C236.572 229.253 236.721 228.705 237.411 228.642C238.235 228.565 238.591 229.126 238.804 229.789Z" fill="#E59761"/>
<path fill-rule="evenodd" clip-rule="evenodd" d="M241.356 223.489C242.114 223.471 242.573 223.791 242.68 224.373C242.831 225.197 242.325 225.638 241.549 225.703C240.941 225.753 240.463 225.408 240.346 224.823C240.175 223.97 240.776 223.652 241.356 223.489Z" fill="#E5955F"/>
<path fill-rule="evenodd" clip-rule="evenodd" d="M172.55 214.439C171.964 214.389 171.494 214.134 171.401 213.523C171.308 212.907 171.61 212.459 172.265 212.437C172.828 212.417 173.382 212.59 173.432 213.274C173.476 213.87 173.166 214.293 172.55 214.439Z" fill="#E38C50"/>
<path fill-rule="evenodd" clip-rule="evenodd" d="M165.677 210.726C165.033 210.61 164.686 210.202 164.754 209.577C164.823 208.937 165.305 208.604 165.917 208.697C166.533 208.791 166.856 209.289 166.848 209.894C166.84 210.647 166.249 210.703 165.677 210.726Z" fill="#E38C50"/>
<path fill-rule="evenodd" clip-rule="evenodd" d="M171.691 223.031C171.119 222.878 170.753 222.497 170.818 221.918C170.885 221.325 171.364 221.027 171.937 221.052C172.613 221.083 172.773 221.62 172.75 222.169C172.723 222.805 172.287 223.042 171.691 223.031Z" fill="#E6A06F"/>
<path fill-rule="evenodd" clip-rule="evenodd" d="M242.124 235.321C241.95 235.534 241.775 235.919 241.479 236.072C240.97 236.337 240.714 235.884 240.744 235.499C240.769 235.175 241.011 234.725 241.283 234.597C241.708 234.396 241.998 234.741 242.124 235.321Z" fill="#E17D3B"/>
<path fill-rule="evenodd" clip-rule="evenodd" d="M166.689 215.287C166.608 215.491 166.304 215.734 165.907 215.589C165.521 215.447 165.379 215.041 165.551 214.674C165.631 214.502 165.959 214.34 166.162 214.354C166.562 214.383 166.891 214.587 166.689 215.287Z" fill="#E38445"/>
<path fill-rule="evenodd" clip-rule="evenodd" d="M466.96 247.701C467.246 245.622 466.32 243.601 465.184 241.653C464.693 240.814 464.038 240.067 463.58 239.213C462.157 236.561 462.602 233.918 464.648 232.482C466.772 230.991 469.963 231.34 471.874 233.378C474.2 235.858 475.832 238.755 476.669 242.065C480.267 256.294 470.609 268.92 456.475 270.204C448.501 270.929 439.028 265.449 435.497 258.197C434.794 256.753 434.052 255.228 434.744 253.409C436.243 249.467 440.317 248.426 443.397 251.305C444.22 252.074 444.78 253.022 445.353 253.99C448.097 258.634 453.339 260.657 458.686 259.211C463.662 257.865 466.965 253.379 466.96 247.701Z" fill="#E53F4D"/>
<path fill-rule="evenodd" clip-rule="evenodd" d="M541.494 215.141C542.062 219.152 537.291 224.804 532.738 225.765C529.114 226.531 527.686 225.047 528.588 221.51C529.446 218.143 530.456 214.814 531.371 211.46C531.744 210.094 532.243 208.798 533.238 207.766C534.641 206.311 536.089 206.144 537.684 207.425C540.182 209.43 542.007 211.829 541.494 215.141Z" fill="#A88466"/>
<path fill-rule="evenodd" clip-rule="evenodd" d="M454.419 192.012C450.482 193.86 446.425 192.902 441.818 193.132C444.096 191.27 446.861 191.047 454.419 192.012Z" fill="#8A6C53"/>
<path fill-rule="evenodd" clip-rule="evenodd" d="M453.961 185.435C449.968 187.288 445.82 188.417 441.392 188.234C445.483 186.836 449.561 185.382 453.961 185.435Z" fill="#876951"/>
<path fill-rule="evenodd" clip-rule="evenodd" d="M454.544 199.547C450.603 199.262 446.752 198.764 442.623 197.663C445.201 196.612 451.604 197.595 454.544 199.547Z" fill="#85684F"/>
<path fill-rule="evenodd" clip-rule="evenodd" d="M377.381 156.377C378.517 155.31 379.815 154.72 381.38 154.349C398.01 150.402 415.713 157.814 424.401 172.725C432.411 186.473 432.836 200.614 424.332 214.291C413.021 232.48 389.36 236.747 371.856 225.858C368.702 223.896 365.287 222.102 363.951 218.213C362.769 217.178 362.766 215.757 362.714 214.365C362.013 195.349 365.387 177.211 374.373 160.284C375.156 158.809 375.821 157.251 377.381 156.377Z" fill="#C7A07F"/>
<path fill-rule="evenodd" clip-rule="evenodd" d="M377.381 156.377C375.396 160.657 373.233 164.862 371.461 169.227C365.848 183.051 363.381 197.462 363.843 212.377C363.903 214.321 363.915 216.267 363.95 218.213C363.5 218.807 362.975 218.711 362.589 218.219C357.549 211.809 354.106 204.804 352.857 196.553C351.708 188.965 353.004 182.022 356.052 175.215C360.168 166.024 367.15 159.832 376.326 155.972C376.743 155.797 377.116 156.013 377.381 156.377Z" fill="#2351DF"/>
<path fill-rule="evenodd" clip-rule="evenodd" d="M420.754 419.939C421.767 407.799 422.641 397.247 423.539 386.698C423.609 385.87 423.893 385.061 424.003 384.233C424.212 382.659 425.049 382.197 426.607 382.356C434.641 383.171 442.686 383.889 450.724 384.674C454.88 385.081 459.026 385.588 463.183 385.992C466.635 386.328 467.118 386.696 466.869 390.039C466.328 397.264 465.683 404.482 465.032 411.698C464.63 416.137 464.151 420.569 463.677 425.001C463.368 427.89 463.256 428.128 460.353 427.896C453.554 427.353 446.767 426.64 439.978 425.965C435.408 425.511 430.85 424.898 426.273 424.55C420.563 424.116 420.555 424.2 420.754 419.939Z" fill="#606FDE"/>
<path fill-rule="evenodd" clip-rule="evenodd" d="M432.573 377.612H440.781C436.904 378.739 435.38 378.681 432.599 377.58L432.573 377.612Z" fill="#E1CAB5"/>
<path fill-rule="evenodd" clip-rule="evenodd" d="M450.187 379.264H442.062C445.825 378.131 447.291 378.183 450.164 379.293L450.187 379.264Z" fill="#E1CAB5"/>
<path fill-rule="evenodd" clip-rule="evenodd" d="M450.164 379.293H458.353C454.503 380.414 452.971 380.357 450.187 379.264L450.164 379.293Z" fill="#E1CAB5"/>
<path fill-rule="evenodd" clip-rule="evenodd" d="M461.165 380.948C460.622 380.892 460.188 380.871 460.176 380.439C460.173 380.339 460.817 380.163 461.174 380.128C461.522 380.093 461.992 380.183 461.978 380.602C461.972 380.749 461.351 380.874 461.165 380.948Z" fill="#E1CAB6"/>
<path fill-rule="evenodd" clip-rule="evenodd" d="M432.6 377.58C431.706 377.525 430.772 377.865 429.839 377.259C430.915 376.511 431.786 376.693 432.573 377.612L432.6 377.58Z" fill="#E1CCB9"/>
<path fill-rule="evenodd" clip-rule="evenodd" d="M196.631 468.362C193.983 468.362 191.334 468.352 188.686 468.366C187.184 468.373 186.356 467.693 186.215 466.161C186.037 464.219 185.726 462.287 185.614 460.341C184.933 448.516 184.303 436.688 183.627 424.863C183.516 422.918 183.245 420.982 183.084 419.039C182.934 417.219 183.645 416.11 185.611 415.965C186.858 415.874 188.089 415.529 189.335 415.47C197.267 415.098 205.201 414.779 213.135 414.432C219.953 414.134 226.77 413.775 233.591 413.537C236.966 413.418 237.212 413.636 237.495 416.904C238.023 423.01 238.547 429.121 238.864 435.24C239.312 443.87 239.819 452.493 240.568 461.102C240.96 465.62 240.463 466.102 235.869 466.319C222.79 466.937 209.71 467.56 196.631 468.181C196.631 468.241 196.631 468.301 196.631 468.362Z" fill="#6175E0"/>
<path fill-rule="evenodd" clip-rule="evenodd" d="M229.943 406.032C227.659 407.781 194.828 409.684 188.795 409.017C195.528 407.308 202.485 407.921 209.324 407.346C216.185 406.769 223.069 406.459 229.943 406.032Z" fill="#E4CFAE"/>
<path fill-rule="evenodd" clip-rule="evenodd" d="M200.996 211.968C201.516 208.343 201.879 204.599 203.017 200.997C203.142 200.603 203.295 200.21 203.493 199.847C203.846 199.197 204.355 198.709 205.153 199.013C205.909 199.301 206.122 199.906 205.873 200.686C204.639 204.548 203.988 208.515 203.703 212.553C203.638 213.474 203.156 214.181 202.112 213.994C201.072 213.807 201.038 212.9 200.996 211.968Z" fill="#E7E4E1"/>
<path fill-rule="evenodd" clip-rule="evenodd" d="M420.259 184.841C421.791 186.027 423.453 187.079 424.83 188.424C429.119 192.615 428.81 197.633 424.141 201.378C419.944 204.742 414.908 205.836 409.763 206.512C407.979 206.747 406.143 206.59 404.331 206.612C403.667 206.068 403.072 205.366 403.083 204.539C403.189 196.827 401.531 189.192 402.08 181.464C402.15 180.489 402.418 179.565 403.059 178.785C404.141 178.173 405.157 178.065 406.009 179.179C407.561 179.505 409.114 179.831 410.667 180.156C412.226 179.508 413.448 179.959 414.395 181.305C415.357 181.791 416.318 182.278 417.28 182.763C418.893 182.566 419.785 183.403 420.259 184.841Z" fill="white"/>
<path fill-rule="evenodd" clip-rule="evenodd" d="M403.228 178.986C403.03 184.723 403.602 190.426 403.952 196.14C404.166 199.625 404.21 203.12 404.33 206.611C399.824 206.959 395.482 206.482 391.526 204.061C389.511 199.655 389.867 194.889 389.498 190.245C389.28 187.491 389.637 184.691 388.772 181.991C388.591 180.895 388.9 180.079 390.065 179.763C391.548 180.374 392.827 179.915 394.022 179.009C395.355 177.764 396.743 177.754 398.178 178.825C399.726 178.884 401.347 179.131 402.139 177.266C403.094 177.464 403.243 178.173 403.228 178.986Z" fill="#1F7CBB"/>
<path fill-rule="evenodd" clip-rule="evenodd" d="M388.957 181.369C389.665 181.499 390.316 181.751 390.552 182.5C390.675 182.887 390.703 183.329 390.669 183.738C390.108 190.549 391.782 197.264 391.525 204.062C387.834 203.217 385.127 200.873 382.834 198.064C379.692 194.214 379.677 189.906 382.624 185.881C383.355 184.882 384.224 183.986 385.031 183.042C386.059 181.826 386.975 180.345 388.957 181.369Z" fill="#2488CD"/>
<path fill-rule="evenodd" clip-rule="evenodd" d="M388.957 181.369C387.417 181.382 386.557 182.995 385.031 183.042C383.949 179.895 382.815 176.764 381.803 173.595C381.11 171.421 382.44 169.394 384.627 169.105C385.914 168.936 386.236 169.937 386.591 170.841C387.757 173.811 388.907 176.786 390.064 179.761C389.695 180.298 389.326 180.834 388.957 181.369Z" fill="#0E16E1"/>
<path fill-rule="evenodd" clip-rule="evenodd" d="M403.228 178.986C402.598 178.581 402.377 177.916 402.14 177.263C402.279 174.796 402.332 172.315 402.582 169.855C402.846 167.261 403.985 166.537 406.468 167.054C407.429 167.254 407.998 167.782 407.857 168.727C407.335 172.227 407.761 175.9 406.007 179.179C405.082 179.116 404.155 179.051 403.228 178.986Z" fill="#0C14E2"/>
<path fill-rule="evenodd" clip-rule="evenodd" d="M398.179 178.825C396.793 178.886 395.408 178.946 394.022 179.008C393.203 176.06 392.345 173.121 391.588 170.155C391.323 169.113 390.992 167.898 392.505 167.373C394.245 166.768 396.176 167.415 396.611 168.959C397.06 170.555 397.366 172.225 397.458 173.879C397.552 175.562 397.851 177.19 398.179 178.825Z" fill="#0F16E0"/>
<path fill-rule="evenodd" clip-rule="evenodd" d="M414.395 181.305C413.154 180.923 411.912 180.542 410.668 180.159C411.232 177.556 412.809 175.412 413.872 173.036C414.473 171.694 415.386 171.162 416.843 171.835C418.587 172.641 417.833 173.843 417.347 174.944C416.404 177.082 415.383 179.186 414.395 181.305Z" fill="#181DDD"/>
<path fill-rule="evenodd" clip-rule="evenodd" d="M420.259 184.841C419.267 184.15 418.276 183.459 417.282 182.766C418.34 180.695 419.399 178.627 420.429 176.618C420.894 176.709 421.28 176.668 421.393 176.823C424.598 181.267 425.326 180.445 420.259 184.841Z" fill="#161CDF"/>
<path fill-rule="evenodd" clip-rule="evenodd" d="M449.437 408.723C449.691 408.715 449.934 408.661 450.168 408.562C450.685 408.127 451.424 408.261 451.956 407.866C453.997 407.472 455.886 407.354 456.581 409.978C457.253 412.518 456.604 414.225 454.013 415.374C449.696 417.288 445.314 419.065 440.915 420.788C438.613 421.69 437.471 421.124 436.892 418.741C436.335 416.453 436.074 414.09 435.705 411.757C435.032 407.503 434.417 403.24 433.695 398.995C433.341 396.915 433.907 395.483 435.957 394.692C440.364 392.992 444.737 391.201 449.158 389.537C450.43 389.058 451.97 388.521 452.799 390.248C453.602 391.922 453.268 393.55 451.864 394.791C451.256 395.33 450.442 395.659 449.684 395.998C447.652 396.903 445.572 397.702 443.569 398.665C442.535 399.162 440.574 399.418 441.144 400.916C441.829 402.719 443.264 401.032 444.25 400.744C447.949 399.662 448.617 399.925 449.657 403.543C449.885 404.337 449.957 405.177 450.102 405.997C449.934 406.351 449.586 406.603 449.521 407.016L449.419 407.127C449.061 407.272 448.752 407.486 448.499 407.78L448.5 407.779C447.81 408.66 446.753 408.929 445.778 409.512C446.947 408.773 448.23 408.955 449.437 408.723Z" fill="#FEEBCA"/>
<path fill-rule="evenodd" clip-rule="evenodd" d="M449.437 408.723C447.425 409.874 445.319 410.695 442.325 410.91C444.252 408.556 446.467 408.349 448.5 407.779C448.812 408.094 449.125 408.408 449.437 408.723Z" fill="#8F94D8"/>
<path fill-rule="evenodd" clip-rule="evenodd" d="M451.956 407.865C451.503 408.465 450.896 408.669 450.168 408.562C450.602 407.912 451.224 407.749 451.956 407.865Z" fill="#8F94D8"/>
<path fill-rule="evenodd" clip-rule="evenodd" d="M449.521 407.016C449.715 406.676 449.908 406.337 450.102 405.997C450.125 406.46 449.92 406.793 449.521 407.016Z" fill="#8F94D8"/>
<path fill-rule="evenodd" clip-rule="evenodd" d="M448.5 407.779C448.805 407.562 449.112 407.344 449.419 407.127C449.243 407.529 448.943 407.756 448.5 407.779Z" fill="#8F94D8"/>
<path fill-rule="evenodd" clip-rule="evenodd" d="M219.107 445.625C219.786 445.479 220.471 445.354 221.143 445.182C224.05 444.439 225.153 444.779 226.068 446.721C227.02 448.741 226.555 452.143 225.082 453.31C224.435 453.823 223.672 454.223 222.907 454.544C217.636 456.757 212.377 459.003 207.06 461.099C203.855 462.364 202.353 461.419 201.664 457.52C200.597 451.482 199.764 445.402 198.846 439.338C198.554 437.408 198.307 435.472 198.032 433.54C197.688 431.126 198.598 429.583 200.957 428.703C206.441 426.654 211.865 424.444 217.333 422.353C218.908 421.751 220.616 421.157 221.81 423.043C222.756 424.535 222.257 427.687 220.811 428.807C219.835 429.563 218.663 430.096 217.523 430.601C214.845 431.787 212.093 432.81 209.457 434.078C208.376 434.599 206.198 434.704 207.072 436.729C207.869 438.572 209.23 436.865 210.29 436.68C211.508 436.468 212.644 435.821 213.855 435.524C215.037 435.235 216.114 435.592 216.679 436.762C217.905 439.302 219.102 441.869 217.223 444.635C215.953 446.352 213.973 446.619 211.319 447.617C214.443 446.617 216.681 445.686 219.107 445.625Z" fill="#FFECCA"/>
<path fill-rule="evenodd" clip-rule="evenodd" d="M219.107 445.625C216.021 447.255 212.801 448.388 209.26 448.451C211.549 446.309 214.372 445.442 217.223 444.635C217.613 445.417 218.383 445.477 219.107 445.625Z" fill="#7E8BDC"/>
<path fill-rule="evenodd" clip-rule="evenodd" d="M419.479 195.061C419.583 194.824 419.635 194.461 419.807 194.389C419.972 194.321 420.263 194.557 420.498 194.659C420.394 194.895 420.342 195.258 420.171 195.329C420.005 195.397 419.715 195.163 419.479 195.061Z" fill="#F5EEE8"/>
<path fill-rule="evenodd" clip-rule="evenodd" d="M400.448 193.612C401.843 196.435 401.707 199.28 401.089 202.39C399.337 200.26 399.129 197.995 400.448 193.612Z" fill="#FAFCFE"/>
<path fill-rule="evenodd" clip-rule="evenodd" d="M399.806 185.249C401.073 188.1 401.072 188.1 400.034 190.797C398.661 188.947 398.989 187.428 399.806 185.249Z" fill="#F7FBFD"/>
</g>
<path fill-rule="evenodd" clip-rule="evenodd" d="M165.389 210.651C164.826 210.546 164.521 210.178 164.58 209.615C164.641 209.038 165.063 208.738 165.599 208.822C166.139 208.907 166.422 209.355 166.415 209.901C166.408 210.579 165.891 210.63 165.389 210.651Z" fill="#E38C50"/>
<path fill-rule="evenodd" clip-rule="evenodd" d="M166.97 215.232C166.892 215.427 166.598 215.661 166.214 215.521C165.842 215.385 165.705 214.996 165.871 214.643C165.949 214.478 166.265 214.322 166.461 214.336C166.848 214.364 167.166 214.56 166.97 215.232Z" fill="#E38445"/>
<path fill-rule="evenodd" clip-rule="evenodd" d="M205.532 186.935C207.944 185.51 210.453 186.498 212.82 186.887C221.145 188.256 228.449 191.636 233.657 198.639C238.098 204.61 237.148 210.961 231.155 215.402C227.96 217.77 224.331 219.12 220.412 219.583C213.53 220.397 206.868 219.407 200.391 216.955C198.831 216.365 197.718 215.597 197.815 213.752C197.727 213.648 197.56 213.543 197.559 213.437C197.521 203.787 199.519 194.752 205.532 186.935Z" fill="#0B0705"/>
<path fill-rule="evenodd" clip-rule="evenodd" d="M207.493 194.335C207.105 195.718 206.666 196.402 205.736 196.204C204.779 196.001 204.717 195.145 204.863 194.353C205.041 193.386 205.261 192.42 205.563 191.486C205.747 190.917 206.285 190.63 206.883 190.769C207.473 190.908 207.817 191.409 207.782 191.986C207.725 192.966 207.545 193.939 207.493 194.335Z" fill="#E9EBEB"/>
<path fill-rule="evenodd" clip-rule="evenodd" d="M205.532 186.935C201.39 195.419 199.008 204.412 197.815 213.752C197.05 214.646 196.284 215.268 195.051 214.386C190.44 211.086 185.757 207.828 182.9 202.744C180.703 198.836 181.746 194.092 185.682 191.263C191.27 187.247 197.781 186.118 204.538 186.244C204.873 186.25 205.201 186.695 205.532 186.935Z" fill="white"/>
<path fill-rule="evenodd" clip-rule="evenodd" d="M214.735 160.907C225.664 160.969 233.301 166.993 234.992 175.872C235.122 176.553 235.301 177.249 235.275 177.93C235.221 179.301 234.637 180.45 233.146 180.572C231.8 180.682 231.264 179.619 230.944 178.478C230.869 178.21 230.81 177.937 230.746 177.666C228.305 167.355 219.657 162.782 209.452 166.463C205.593 167.855 202.22 169.99 199.787 173.416C199.384 173.982 198.955 174.534 198.494 175.053C197.556 176.107 196.412 176.588 195.222 175.589C194.184 174.718 194.493 173.54 195.101 172.546C195.75 171.483 196.47 170.442 197.295 169.513C202.282 163.898 208.602 161.168 214.735 160.907Z" fill="#705040"/>
<path fill-rule="evenodd" clip-rule="evenodd" d="M200.928 211.549C201.446 207.924 201.808 204.18 202.942 200.578C203.067 200.184 203.22 199.79 203.417 199.428C203.768 198.777 204.276 198.289 205.072 198.594C205.825 198.882 206.038 199.487 205.789 200.267C204.56 204.129 203.911 208.096 203.626 212.134C203.561 213.055 203.081 213.762 202.04 213.574C201.003 213.388 200.969 212.481 200.928 211.549Z" fill="#E7E4E1"/>
</svg>
