<svg width="40" height="40" viewBox="0 0 40 40" fill="none" xmlns="http://www.w3.org/2000/svg">
<path fill-rule="evenodd" clip-rule="evenodd" d="M38 35C37.7243 35 37.5 34.7757 37.5 34.5C37.5 34.2243 37.7243 34 38 34C38.2757 34 38.5 34.2243 38.5 34.5C38.5 34.7757 38.2757 35 38 35Z" fill="#CACAFB"/>
<path fill-rule="evenodd" clip-rule="evenodd" d="M19.5 2C19.2243 2 19 1.7757 19 1.5C19 1.22428 19.2243 1 19.5 1C19.7757 1 20 1.22428 20 1.5C20 1.7757 19.7757 2 19.5 2Z" fill="#CACAFB"/>
<path fill-rule="evenodd" clip-rule="evenodd" d="M2 31C1.7243 31 1.5 30.7757 1.5 30.5C1.5 30.2243 1.7243 30 2 30C2.2757 30 2.5 30.2243 2.5 30.5C2.5 30.7757 2.2757 31 2 31Z" fill="#CACAFB"/>
<path fill-rule="evenodd" clip-rule="evenodd" d="M27.1257 21.5975L29.0675 16.9169C29.2792 16.4067 29.8643 16.1648 30.3744 16.3764C30.618 16.4775 30.8119 16.6707 30.9137 16.914L32.8727 21.5955C32.9851 21.8641 32.9749 22.1683 32.8447 22.4288L32.0854 23.9473C32.0606 23.9969 32.032 24.0439 32 24.0879V25.9189L32.9743 28.842C32.9918 28.8942 33.0004 28.9489 33 29.0037L32.9966 29.0586L32.2896 35.0586C32.2622 35.291 32.0783 35.4705 31.8507 35.4968L31.793 35.5001H28.207C27.973 35.5001 27.7732 35.3384 27.7205 35.1155L27.7104 35.0586L27.4784 33.0898C27.4461 32.8156 27.6423 32.5671 27.9165 32.5347C28.1712 32.5047 28.4036 32.6717 28.4614 32.9153L28.4716 32.9728L28.6515 34.5001H31.348L31.99 29.0516L31.1395 26.5001H28.86L27.9743 29.1582C27.8933 29.4014 27.6433 29.5409 27.3983 29.4897L27.3419 29.4744C27.0986 29.3933 26.9592 29.1434 27.0104 28.8983L27.0257 28.842L28 25.9189V24.0879C27.968 24.0439 27.9394 23.9969 27.9146 23.9473L27.1549 22.4279C27.0252 22.1685 27.0145 21.8655 27.1257 21.5975ZM29 24.5001V25.5001H31V24.5001H29ZM29.5 18.4841L28.0493 21.9807L28.809 23.5001H31.191L31.9502 21.9816L30.5 18.5159V21.0001C30.5 21.2762 30.2761 21.5001 30 21.5001C29.7436 21.5001 29.5322 21.307 29.5034 21.0584L29.5 21.0001V18.4841Z" fill="#E1000F"/>
<path d="M23.5 26.5001C24.4428 26.5001 25 27.0573 25 28.0001C25 28.0409 24.995 28.0817 24.9851 28.1213C24.7324 29.132 23.6089 29.7889 21.6041 30.1511L21.2803 30.2058C21.1699 30.2233 21.057 30.2399 20.9417 30.2557L20.5885 30.3008C20.5284 30.3079 20.4677 30.3149 20.4064 30.3216L20.0312 30.3596L19.6413 30.3929L19.2367 30.4217L18.8174 30.4458C18.7463 30.4495 18.6746 30.453 18.6023 30.4562L18.1609 30.4737L17.7048 30.4866L17.2339 30.4953L16.5 30.5001C16.2239 30.5001 16 30.2762 16 30.0001C16 29.7239 16.2239 29.5001 16.5 29.5001L16.975 29.4979C17.0529 29.4972 17.1301 29.4963 17.2067 29.4952L17.6587 29.4867L18.0953 29.4739L18.5165 29.457L18.9223 29.4361L19.3127 29.4112L19.6877 29.3823L20.0473 29.3495C20.1059 29.3438 20.1639 29.3378 20.2213 29.3317L20.5577 29.2933C20.7221 29.2732 20.8806 29.2516 21.0333 29.2287L21.3311 29.1811L21.6134 29.1299L21.8801 29.0753C23.0889 28.8121 23.7912 28.4369 23.9819 27.9783L23.9985 27.9326L23.9952 27.8736C23.972 27.6045 23.8609 27.5123 23.566 27.5012L23.5 27.5001C22.9806 27.5001 22.4336 27.7736 21.8536 28.3536C21.5523 28.6549 21.0464 28.4639 21.003 28.0569L21 28.0001C21 27.6095 20.8905 27.5001 20.5 27.5001C19.9806 27.5001 19.4336 27.7736 18.8536 28.3536C18.6583 28.5489 18.3417 28.5489 18.1464 28.3536C17.9512 28.1584 17.9512 27.8418 18.1464 27.6465C18.8997 26.8932 19.6861 26.5001 20.5 26.5001C21.0724 26.5001 21.5027 26.7055 21.7524 27.0778L21.772 27.1096L21.8698 27.0417C22.3584 26.7116 22.8595 26.5294 23.3717 26.5033L23.5 26.5001Z" fill="#E1000F"/>
<path d="M27.9966 5.94169C27.9678 5.69302 27.7564 5.5 27.5 5.5H8.5L8.44169 5.50336C8.19302 5.53225 8 5.74358 8 6V33L8.00336 33.0583C8.03225 33.307 8.24358 33.5 8.5 33.5H24.5L24.5583 33.4966C24.807 33.4678 25 33.2564 25 33L24.9966 32.9417C24.9678 32.693 24.7564 32.5 24.5 32.5H9V6.5H27V16L27.0034 16.0583C27.0322 16.307 27.2436 16.5 27.5 16.5C27.7761 16.5 28 16.2761 28 16V6L27.9966 5.94169Z" fill="#000091"/>
<path d="M20 9C20 8.72386 19.7761 8.5 19.5 8.5H11.5L11.4417 8.50336C11.193 8.53225 11 8.74358 11 9C11 9.27614 11.2239 9.5 11.5 9.5H19.5L19.5583 9.49664C19.807 9.46775 20 9.25642 20 9Z" fill="#000091"/>
<path d="M24.5 11.5C24.7761 11.5 25 11.7239 25 12C25 12.2564 24.807 12.4678 24.5583 12.4966L24.5 12.5H11.5C11.2239 12.5 11 12.2761 11 12C11 11.7436 11.193 11.5322 11.4417 11.5034L11.5 11.5H24.5Z" fill="#000091"/>
<path d="M22 15C22 14.7239 21.7761 14.5 21.5 14.5H11.5L11.4417 14.5034C11.193 14.5322 11 14.7436 11 15C11 15.2761 11.2239 15.5 11.5 15.5H21.5L21.5583 15.4966C21.807 15.4678 22 15.2564 22 15Z" fill="#000091"/>
<path d="M24.5 17.5C24.7761 17.5 25 17.7239 25 18C25 18.2564 24.807 18.4678 24.5583 18.4966L24.5 18.5H11.5C11.2239 18.5 11 18.2761 11 18C11 17.7436 11.193 17.5322 11.4417 17.5034L11.5 17.5H24.5Z" fill="#000091"/>
<path d="M29.9966 9.94169C29.9678 9.69302 29.7564 9.5 29.5 9.5C29.2239 9.5 29 9.72386 29 10V14L29.0034 14.0583C29.0322 14.307 29.2436 14.5 29.5 14.5C29.7761 14.5 30 14.2761 30 14V10L29.9966 9.94169Z" fill="#000091"/>
<path d="M25.5 34.5C25.7761 34.5 26 34.7239 26 35C26 35.2564 25.807 35.4678 25.5583 35.4966L25.5 35.5H12.5C12.2239 35.5 12 35.2761 12 35C12 34.7436 12.193 34.5322 12.4417 34.5034L12.5 34.5H25.5Z" fill="#000091"/>
<path d="M22 21C22 20.7239 21.7761 20.5 21.5 20.5H11.5L11.4417 20.5034C11.193 20.5322 11 20.7436 11 21C11 21.2761 11.2239 21.5 11.5 21.5H21.5L21.5583 21.4966C21.807 21.4678 22 21.2564 22 21Z" fill="#000091"/>
</svg>
