<svg height="74.003" viewBox="0 0 568.658 74.003" width="568.658" xmlns="http://www.w3.org/2000/svg" xmlns:xlink="http://www.w3.org/1999/xlink"><clipPath id="a"><path d="m299.619-12.041a1.249 1.249 0 0 0 -.9.392 1.372 1.372 0 0 0 -.374.947v1.339h-3.517a15.475 15.475 0 0 0 -3.008-7.6l2.489-2.608 1 .889a1.239 1.239 0 0 0 1.235.348 1.31 1.31 0 0 0 .9-.947 1.383 1.383 0 0 0 -.332-1.294l-4.26-4.463a1.239 1.239 0 0 0 -1.234-.347 1.31 1.31 0 0 0 -.9.947 1.383 1.383 0 0 0 .331 1.293l.848 1.049-2.489 2.608a14.059 14.059 0 0 0 -7.254-3.151v-3.685h1.278a1.31 1.31 0 0 0 1.278-1.339 1.31 1.31 0 0 0 -1.28-1.337h-5.964a1.309 1.309 0 0 0 -1.278 1.339 1.309 1.309 0 0 0 1.278 1.339h1.278v3.685a14.059 14.059 0 0 0 -7.254 3.151l-2.49-2.609.848-1.049a1.383 1.383 0 0 0 .331-1.293 1.31 1.31 0 0 0 -.9-.947 1.239 1.239 0 0 0 -1.234.347l-4.162 4.463a1.384 1.384 0 0 0 0 1.891 1.237 1.237 0 0 0 1.805 0l.9-.889 2.489 2.608a15.475 15.475 0 0 0 -3.008 7.6h-3.517v-1.336a1.31 1.31 0 0 0 -1.278-1.339 1.309 1.309 0 0 0 -1.274 1.339v6.248a1.309 1.309 0 0 0 1.278 1.339 1.31 1.31 0 0 0 1.278-1.339v-1.341h3.517a15.475 15.475 0 0 0 3.008 7.6l-2.489 2.608-1-.889a1.237 1.237 0 0 0 -1.806 0 1.384 1.384 0 0 0 0 1.892l4.26 4.463a1.239 1.239 0 0 0 1.234.347 1.31 1.31 0 0 0 .9-.947 1.383 1.383 0 0 0 -.331-1.293l-.849-1.049 2.489-2.608a14.06 14.06 0 0 0 7.254 3.151v3.685h-1.278a1.34 1.34 0 0 0 0 2.678h5.964a1.34 1.34 0 0 0 0-2.678h-1.278v-3.685a14.06 14.06 0 0 0 7.254-3.151l2.495 2.608-.848 1.049a1.384 1.384 0 0 0 0 1.893 1.237 1.237 0 0 0 1.807 0l4.26-4.463a1.383 1.383 0 0 0 .332-1.294 1.309 1.309 0 0 0 -.9-.947 1.239 1.239 0 0 0 -1.235.348l-1 .889-2.489-2.608a15.475 15.475 0 0 0 3.008-7.6h3.517v1.339a1.309 1.309 0 0 0 1.278 1.339 1.31 1.31 0 0 0 1.27-1.338v-6.246a1.372 1.372 0 0 0 -.374-.947 1.249 1.249 0 0 0 -.907-.394zm-23.856.893a2.984 2.984 0 0 1 -2.755-1.929 3.234 3.234 0 0 1 .646-3.4 2.884 2.884 0 0 1 3.25-.677 3.129 3.129 0 0 1 1.841 2.886 3.2 3.2 0 0 1 -.873 2.209 2.915 2.915 0 0 1 -2.11.911zm9.8 11.6a1.746 1.746 0 0 1 -1.7-1.785 1.746 1.746 0 0 1 1.7-1.785 1.746 1.746 0 0 1 1.7 1.785 1.746 1.746 0 0 1 -1.703 1.788z" transform="translate(-260 29)"/></clipPath><clipPath id="b"><path d="m260 13.844h40.9v-42.844h-40.9z" transform="translate(-260 29)"/></clipPath><g transform="translate(-3 38)"><path d="m3-38h568.658v74h-568.658z" fill="#e0000f"/><g fill="#fff" font-family="Arial-BoldMT, Arial" font-weight="700"><text font-size="23" letter-spacing=".497em" transform="translate(23.671 6.37)"><tspan x="0" y="0">DISPOSITIF COVID</tspan></text><text font-size="22" transform="translate(421.439 5.37)"><tspan x="0" y="0">-</tspan></text><text font-size="23" letter-spacing=".496em" transform="translate(440.914 6.37)"><tspan x="0" y="0">19</tspan></text></g><g clip-path="url(#a)" transform="translate(503.497 -20.473)"><g clip-path="url(#b)"><path d="m258.95 17.029h44.986v-47.129h-44.986z" fill="#fff" transform="translate(-260.995 27.958)"/></g></g></g></svg>