<svg width="40" height="40" viewBox="0 0 40 40" fill="none" xmlns="http://www.w3.org/2000/svg">
<path fill-rule="evenodd" clip-rule="evenodd" d="M36.5 9C36.2243 9 36 8.7757 36 8.5C36 8.22428 36.2243 8 36.5 8C36.7757 8 37 8.22428 37 8.5C37 8.7757 36.7757 9 36.5 9Z" fill="#CACAFB"/>
<path fill-rule="evenodd" clip-rule="evenodd" d="M3.5 9C3.2243 9 3 8.7757 3 8.5C3 8.22428 3.2243 8 3.5 8C3.7757 8 4 8.22428 4 8.5C4 8.7757 3.7757 9 3.5 9Z" fill="#CACAFB"/>
<path fill-rule="evenodd" clip-rule="evenodd" d="M5.5 34C5.2243 34 5 33.7757 5 33.5C5 33.2243 5.2243 33 5.5 33C5.7757 33 6 33.2243 6 33.5C6 33.7757 5.7757 34 5.5 34Z" fill="#CACAFB"/>
<path fill-rule="evenodd" clip-rule="evenodd" d="M32.5 36C32.2243 36 32 35.7757 32 35.5C32 35.2243 32.2243 35 32.5 35C32.7757 35 33 35.2243 33 35.5C33 35.7757 32.7757 36 32.5 36Z" fill="#CACAFB"/>
<path fill-rule="evenodd" clip-rule="evenodd" d="M9.5 3C9.2243 3 9 2.7757 9 2.5C9 2.22428 9.2243 2 9.5 2C9.7757 2 10 2.22428 10 2.5C10 2.7757 9.7757 3 9.5 3Z" fill="#CACAFB"/>
<path fill-rule="evenodd" clip-rule="evenodd" d="M27.5 39C27.2243 39 27 38.7757 27 38.5C27 38.2243 27.2243 38 27.5 38C27.7757 38 28 38.2243 28 38.5C28 38.7757 27.7757 39 27.5 39Z" fill="#CACAFB"/>
<path fill-rule="evenodd" clip-rule="evenodd" d="M8 15C8 13.8967 8.89674 13 10 13C11.1033 13 12 13.8967 12 15C12 16.1032 11.1032 17 10 17C8.89676 17 8 16.1032 8 15ZM11 15C11 14.449 10.551 14 10 14C9.44901 14 9 14.449 9 15C9 15.551 9.44904 16 10 16C10.551 16 11 15.551 11 15Z" fill="#E1000F"/>
<path fill-rule="evenodd" clip-rule="evenodd" d="M13 13C13 11.8967 13.8967 11 15 11C16.1033 11 17 11.8967 17 13C17 14.1032 16.1032 15 15 15C13.8968 15 13 14.1032 13 13ZM16 13C16 12.449 15.551 12 15 12C14.449 12 14 12.449 14 13C14 13.551 14.449 14 15 14C15.551 14 16 13.551 16 13Z" fill="#E1000F"/>
<path d="M13.2764 13.0528C13.5234 12.9293 13.8237 13.0294 13.9472 13.2764C14.0619 13.5057 13.9838 13.7811 13.7743 13.9181L13.7236 13.9472L11.7236 14.9472C11.4766 15.0707 11.1763 14.9706 11.0528 14.7236C10.9381 14.4943 11.0162 14.2189 11.2257 14.0819L11.2764 14.0528L13.2764 13.0528Z" fill="#E1000F"/>
<path d="M16.1464 13.6464C16.3267 13.4662 16.6103 13.4523 16.8064 13.6049L16.8536 13.6464L18.8536 15.6464C19.0488 15.8417 19.0488 16.1583 18.8536 16.3536C18.6733 16.5338 18.3897 16.5477 18.1936 16.3951L18.1464 16.3536L16.1464 14.3536C15.9512 14.1583 15.9512 13.8417 16.1464 13.6464Z" fill="#E1000F"/>
<path fill-rule="evenodd" clip-rule="evenodd" d="M25 17C25 14.2424 27.2425 12 30 12C32.7575 12 35 14.2424 35 17C35 19.7574 32.7574 22 30 22C27.2426 22 25 19.7574 25 17ZM34 17C34 14.7947 32.2052 13 30 13C27.7948 13 26 14.7947 26 17C26 19.2052 27.7948 21 30 21C32.2052 21 34 19.2052 34 17Z" fill="#E1000F"/>
<path d="M30.0183 14.3659C30.0924 14.0999 30.3681 13.9443 30.6341 14.0183C31.8039 14.3441 32.7007 15.2615 32.9381 16.3991C32.9945 16.6694 32.8211 16.9343 32.5508 16.9907C32.2805 17.0471 32.0156 16.8737 31.9592 16.6034C31.7999 15.8402 31.1832 15.2093 30.3659 14.9817C30.0999 14.9076 29.9442 14.6319 30.0183 14.3659Z" fill="#E1000F"/>
<path d="M32.9821 20.067C33.2041 19.9388 33.4836 20.0003 33.633 20.2012L33.6651 20.25L36.6651 25.4462C37.0793 26.1636 36.8335 27.081 36.116 27.4952C35.4242 27.8946 34.5465 27.6803 34.1133 27.0212L34.067 26.9462L31.067 21.75C30.9289 21.5109 31.0109 21.2051 31.25 21.067C31.4721 20.9388 31.7516 21.0003 31.9009 21.2012L31.933 21.25L34.933 26.4462C35.0711 26.6853 35.3769 26.7672 35.616 26.6292C35.8381 26.501 35.9246 26.2281 35.8253 25.9983L35.799 25.9462L32.799 20.75C32.661 20.5109 32.7429 20.2051 32.9821 20.067Z" fill="#E1000F"/>
<path d="M22.2764 15.0528C22.5234 14.9293 22.8237 15.0294 22.9472 15.2764C23.0619 15.5057 22.9838 15.7811 22.7743 15.9181L22.7236 15.9472L21.7236 16.4472C21.4766 16.5707 21.1763 16.4706 21.0528 16.2236C20.9381 15.9943 21.0162 15.7189 21.2257 15.5819L21.2764 15.5528L22.2764 15.0528Z" fill="#E1000F"/>
<path fill-rule="evenodd" clip-rule="evenodd" d="M18 16C18 14.8967 18.8967 14 20 14C21.1033 14 22 14.8967 22 16C22 17.1032 21.1032 18 20 18C18.8968 18 18 17.1032 18 16ZM21 16C21 15.449 20.551 15 20 15C19.449 15 19 15.449 19 16C19 16.551 19.449 17 20 17C20.551 17 21 16.551 21 16Z" fill="#E1000F"/>
<path d="M29.5 8C29.7564 8 29.9678 8.19302 29.9966 8.44169L30 8.5V9.5C30 9.77614 29.7761 10 29.5 10C29.2436 10 29.0322 9.80698 29.0034 9.55831L29 9.5V9H6V27H29V24.5C29 24.2436 29.193 24.0322 29.4417 24.0034L29.5 24C29.7564 24 29.9678 24.193 29.9966 24.4417L30 24.5V27.5C30 27.7564 29.807 27.9678 29.5583 27.9966L29.5 28H5.5C5.24358 28 5.03225 27.807 5.00336 27.5583L5 27.5V8.5C5 8.24358 5.19302 8.03225 5.44169 8.00336L5.5 8H29.5Z" fill="#000091"/>
<path d="M19.5 9C19.7564 9 19.9678 8.80698 19.9966 8.55831L20 8.5V7.5C20 6.70116 19.3755 6.04817 18.5881 6.00255L18.5 6H16.5C15.7012 6 15.0482 6.62446 15.0025 7.41186L15 7.5V8.5C15 8.77614 15.2239 9 15.5 9C15.7564 9 15.9678 8.80698 15.9966 8.55831L16 8.5V7.5C16 7.24358 16.193 7.03225 16.4417 7.00336L16.5 7H18.5C18.7564 7 18.9678 7.19302 18.9966 7.44169L19 7.5V8.5C19 8.77614 19.2239 9 19.5 9Z" fill="#000091"/>
<path d="M25.5 27C25.7564 27 25.9678 27.193 25.9966 27.4417L26 27.5V28.5C26 29.2988 25.3755 29.9518 24.5881 29.9975L24.5 30H10.5C9.70116 30 9.04817 29.3755 9.00255 28.5881L9 28.5V27.5C9 27.2239 9.22386 27 9.5 27C9.75642 27 9.96775 27.193 9.99664 27.4417L10 27.5V28.5C10 28.7564 10.193 28.9678 10.4417 28.9966L10.5 29H24.5C24.7564 29 24.9678 28.807 24.9966 28.5583L25 28.5V27.5C25 27.2239 25.2239 27 25.5 27Z" fill="#000091"/>
<path d="M18.9 29.2C18.7343 28.9791 18.4209 28.9343 18.2 29.1C17.9961 29.2529 17.9422 29.5317 18.0655 29.7475L18.1 29.8L21.1 33.8C21.2657 34.0209 21.5791 34.0657 21.8 33.9C22.0039 33.7471 22.0578 33.4683 21.9345 33.2525L21.9 33.2L18.9 29.2Z" fill="#000091"/>
<path d="M11.5 19C11.7564 19 11.9678 19.193 11.9966 19.4417L12 19.5V20.5C12 20.7761 11.7761 21 11.5 21C11.2436 21 11.0322 20.807 11.0034 20.5583L11 20.5V20H9V24H11V22.5C11 22.2436 11.193 22.0322 11.4417 22.0034L11.5 22C11.7564 22 11.9678 22.193 11.9966 22.4417L12 22.5V24.5C12 24.7564 11.807 24.9678 11.5583 24.9966L11.5 25H8.5C8.24358 25 8.03225 24.807 8.00336 24.5583L8 24.5V19.5C8 19.2436 8.19302 19.0322 8.44169 19.0034L8.5 19H11.5Z" fill="#000091"/>
<path d="M14.5 17C14.7761 17 15 17.2239 15 17.5C15 17.7564 14.807 17.9678 14.5583 17.9966L14.5 18H14V24H16V18.5C16 18.2436 16.193 18.0322 16.4417 18.0034L16.5 18C16.7564 18 16.9678 18.193 16.9966 18.4417L17 18.5V24.5C17 24.7564 16.807 24.9678 16.5583 24.9966L16.5 25H13.5C13.2436 25 13.0322 24.807 13.0034 24.5583L13 24.5V17.5C13 17.2436 13.193 17.0322 13.4417 17.0034L13.5 17H14.5Z" fill="#000091"/>
<path d="M19.5 21C19.7761 21 20 21.2239 20 21.5C20 21.7564 19.807 21.9678 19.5583 21.9966L19.5 22H19V24H21V21.5C21 21.2436 21.193 21.0322 21.4417 21.0034L21.5 21C21.7564 21 21.9678 21.193 21.9966 21.4417L22 21.5V24.5C22 24.7564 21.807 24.9678 21.5583 24.9966L21.5 25H18.5C18.2436 25 18.0322 24.807 18.0034 24.5583L18 24.5V21.5C18 21.2436 18.193 21.0322 18.4417 21.0034L18.5 21H19.5Z" fill="#000091"/>
<path d="M23.5 20C23.7564 20 23.9678 20.193 23.9966 20.4417L24 20.5V24H26V23.5C26 23.2436 26.193 23.0322 26.4417 23.0034L26.5 23C26.7564 23 26.9678 23.193 26.9966 23.4417L27 23.5V24.5C27 24.7564 26.807 24.9678 26.5583 24.9966L26.5 25H23.5C23.2436 25 23.0322 24.807 23.0034 24.5583L23 24.5V20.5C23 20.2239 23.2239 20 23.5 20Z" fill="#000091"/>
<path d="M16.1 29.2C16.2657 28.9791 16.5791 28.9343 16.8 29.1C17.0039 29.2529 17.0578 29.5317 16.9345 29.7475L16.9 29.8L13.9 33.8C13.7343 34.0209 13.4209 34.0657 13.2 33.9C12.9961 33.7471 12.9422 33.4683 13.0655 33.2525L13.1 33.2L16.1 29.2Z" fill="#000091"/>
</svg>
