<svg height="146.75" viewBox="0 0 120.17 146.75" width="120.17" xmlns="http://www.w3.org/2000/svg" xmlns:xlink="http://www.w3.org/1999/xlink"><clipPath id="a"><path d="m-1806 448.034h2456.058v-1533.034h-2456.058z" transform="translate(1806 1085)"/></clipPath><clipPath id="b"><path clip-rule="evenodd" d="m83.927-190.959c.223-.441.813-.384 1.2-.184 1.169.855-.054 2.513-.378 3.557a9.287 9.287 0 0 1 -4.272 4.949c.165 2.012.353 4.02.422 6.039 2.551 3.165 6.851 4.32 10.669 5.209a12.4 12.4 0 0 0 14.787-7.669c-2.3-1.309-3.049-4.737-2.361-7.129.06-.168.32-.242.413-.055.631 1.3.547 2.881 1.264 4.163 6.882.659 15.764 3.257 20.273 8.825 2 2.786 2.79 6.408 3.774 9.637 2.1 6.656 3.773 13.446 5.832 20.109l.243-1.261a33.5 33.5 0 0 0 .82-10.524l-.008-.169c-.147-2.81-1.026-8.032 1.153-9.929 1.971-1.506 4.825-2.717 7.3-2.022 4.4-1.959 8.2-5.258 12.885-6.542 1.442-.3 3.517.055 3.176 2.012-.945 3.424-4.9 4.752-7.606 6.518 1.734.47 3.847 2.579 2.493 4.419a.59.59 0 0 1 -.033.077 2.214 2.214 0 0 1 .983 2.761c-.027.277-.1.039.063.29 1.24 1.169.692 4.429-1.176 4.54a4.522 4.522 0 0 1 -2.126 3.887c-1.354.908-3.312.947-4.433 2.189-2.632 4.642-3.54 10.123-3.827 15.439 1.735.65 3.291 2.592 1.715 4.24l-.094.01a45.615 45.615 0 0 0 -1.75 7.587 30.476 30.476 0 0 1 -5.155 11.959c-2.861 4.793-10.554 4.033-14.43.94a7.029 7.029 0 0 1 -.111 2.4c-.383.846-1.319.481-1.411-.353-2.049 1.153-2.531-2.652-.254-2.049-.175-2.751-.277-5.505-.359-8.26-2.578.835-2.69-3.445-.052-2.589v-1.183a202.757 202.757 0 0 1 1.278-27.175c.111-.673.3-1.324.407-1.994.012-.069.12-.049.12.017.185 12.6-.638 25.229.221 37.834.715.218 1 1.039 1.53 1.517a7.679 7.679 0 0 0 4.341 1.8c4.383.615 6.275-.724 8.227-4.536a1.073 1.073 0 0 1 -1.533-1.382l.017-.028a1.052 1.052 0 0 1 1.932.71 31.3 31.3 0 0 0 3.748-10.285l.1-.43a15.489 15.489 0 0 1 1.733-4.658c-5.4-1.377-10.682-5.572-11.527-11.327-1.371 4.309-3.228 8.521-5 12.712a27.856 27.856 0 0 1 -1.558 4.376.414.414 0 0 1 -.747-.1c-.7-3.152 1.431-6.151 2.54-8.988.905-1.6 3.5-8.927 5.116-8.945-1.811-7.94-4.226-15.82-6.526-23.661-2.224-10.587-6.756-12.629-16.358-15.962 1.732 8.829 9.639 17.375 5.431 26.636l-.1.24a4.789 4.789 0 0 0 -.487 3.171 14.312 14.312 0 0 0 1.487 3.01c2.969 5.524.925 11.976-.223 17.729-1.45 6.747-2.883 13.5-4.382 20.236a36.515 36.515 0 0 1 -.933 4.031c-.23.672-1.38.608-1.306-.176a40.511 40.511 0 0 1 .881-4.5c1.867-9.671 4.392-19.228 6-28.941 1.033-7.19-3.034-8.3-2.882-12.941.553-2.376 2.016-4.5 1.932-7.028.325-7.751-5.318-14.145-6.015-21.683l-1.23-.439q-.922-.33-1.841-.669c3.223 22.546 2.244 45.584.633 68.241-.329 1.045-.016 11.734-1.4 11.086-.07.408-.286.809-.758.807-4.279.039-8.559.107-12.838.158-2.058-.19-4.887.6-6.638-.592-2.021-.577-2.254-9.439-2.794-11.391l-.211-1.419c-3.435-23.195-6.508-46.868-4.039-70.293-3.435.132-4.144 3.841-4.4 6.541-.637 5.96-4.486 11.092-4.671 17.12a10.215 10.215 0 0 0 .845 4.222c1.55 3.29 4.232 7.093 2.228 10.767-2.37 2.86-2.165 3.613-1.3 7.148 2.447 11.686 6.511 22.92 10.376 34.187-.84 4.379-5.892-11.878-6.367-13.1-2.236 1.125-3.458-2.608-.893-2.874-1.648-5.517-3.164-11.075-4.426-16.694l-.033-.158c-.558-2.6-1.654-5.636.2-7.939 4.776-4.831-3.155-10.231-2.155-16.084a1.374 1.374 0 0 1 -2.152-1.11 1.368 1.368 0 0 1 2.371-.908c.8-4.749 3.605-8.894 4.453-13.629l.038-.222a15.747 15.747 0 0 1 1.19-4.959 22.618 22.618 0 0 1 -3.534 1.832c2.19 1.83-2.051 3.5-1.7.673-12.011 3.476-14.726 8.324-19.136 19.457a1.105 1.105 0 0 1 1.742 1.257 1.1 1.1 0 0 1 -2.109-.385l-.2.479a95.074 95.074 0 0 0 -6.331 19.794c2.4-.339 1.788 3.5-.385 2.416a115.513 115.513 0 0 0 -.78 18.4c2.024-1.062 2.085 2.546.02 1.517.076 5.029.186 10.059.269 15.088a.83.83 0 0 1 -1.66 0c-.193-7.728-.544-15.47-.377-23.2-.157-13.417 3.7-26.348 9.443-38.367 5.083-13.839 12.1-15.413 25.022-19.436 1.192-1.771 3.74-3.445 5.818-2.334a45.087 45.087 0 0 0 2.617-6.105zm-22.127 48.231a.153.153 0 0 1 .3.04 55.658 55.658 0 0 1 -.137 6.536c-.09 1.331-.2 2.66-.294 3.982q-.373 5.231-.6 10.473a1.352 1.352 0 0 1 .165-.057 1.472 1.472 0 0 1 .789 0 1.463 1.463 0 0 1 .616.345l.037.036a1.112 1.112 0 0 1 .307.477 1.116 1.116 0 0 1 .128.525v.047a1.469 1.469 0 0 1 -.2.749 1.5 1.5 0 0 1 -.531.533 1.478 1.478 0 0 1 -.749.2l-.086.007a1.092 1.092 0 0 1 -.557-.124l-.026-.008q-.1 2.659-.158 5.32c-.035 1.546-.082 3.092-.113 4.637l-.015.773-.028 1.709a6.08 6.08 0 0 1 -.244 2.039l-.029.076c-.172.443-.306 1.059-.766 1.3a.789.789 0 0 1 -1.073-.259.862.862 0 0 1 .238-1c-.005-.014-.013-.027-.02-.042-.04-.117-.1-.228-.138-.346a4 4 0 0 1 -.085-1.164c0-.687.023-1.375.042-2.062q.061-2.192.144-4.381c.193-4.9.558-9.794.975-14.678l.142-1.648c.189-2.192.384-4.386.66-6.567.013-.1.026-.208.04-.313a1.459 1.459 0 0 1 -.4-.292 5.774 5.774 0 0 1 -.954-1.743l-.057-.135a9.482 9.482 0 0 1 -.65-1.953l-.012-.063c-.059-.289-.175-.8.132-.943a.2.2 0 0 1 .314.139.076.076 0 0 1 -.01.062c.126.194.324.375.449.555l.428.612.211.307c.268.395.555.772.85 1.145a37.994 37.994 0 0 1 .965-4.846zm17.54 36.45a.835.835 0 0 1 1.406.582.835.835 0 0 1 -1.406.582l-.027-.02-.026-.021a.771.771 0 0 1 -.022-1.065l.022-.018c.013-.014.03-.027.048-.04zm-23.261-1.511a1.317 1.317 0 0 1 .677.184c.091.069.181.139.272.21a1.331 1.331 0 0 1 .345.593l.048.357a1.012 1.012 0 0 1 -.116.517 1.015 1.015 0 0 1 -.277.432 1 1 0 0 1 -.432.277.993.993 0 0 1 -.471.117h-.046a1.319 1.319 0 0 1 -.678-.184c-.091-.069-.181-.139-.272-.21a1.343 1.343 0 0 1 -.345-.593c-.016-.119-.031-.238-.048-.357a1.025 1.025 0 0 1 .116-.517 1.014 1.014 0 0 1 .277-.432 1 1 0 0 1 .432-.278 1 1 0 0 1 .472-.117zm60.892-2.477.341.046a1.287 1.287 0 0 1 .765.59.953.953 0 0 1 .152.477.972.972 0 0 1 -.023.51.961.961 0 0 1 -.229.436.889.889 0 0 1 -.137.167 1.457 1.457 0 0 1 -.435.415.915.915 0 0 1 -.457.146.631.631 0 0 1 -.327 0 .915.915 0 0 1 -.456-.146l-.249-.193c-.073-.085-.141-.172-.2-.263-.043-.1-.085-.2-.126-.3a1.349 1.349 0 0 1 0-.687.61.61 0 0 1 .031-.116l.028-.076a1.35 1.35 0 0 1 .248-.437l.051-.068a.88.88 0 0 1 .081-.1 2.988 2.988 0 0 1 .3-.232 1.287 1.287 0 0 1 .636-.169zm-44.159-.834a1.053 1.053 0 0 1 .53.143l.213.165a1.058 1.058 0 0 1 .271.464c.012.094.025.187.038.28a.8.8 0 0 1 -.091.406.786.786 0 0 1 -.217.339.8.8 0 0 1 -.338.217.786.786 0 0 1 -.366.091h-.039a1.041 1.041 0 0 1 -.531-.143l-.213-.164a1.063 1.063 0 0 1 -.271-.465c-.012-.094-.025-.186-.038-.28a.789.789 0 0 1 .091-.4.791.791 0 0 1 .217-.339.778.778 0 0 1 .338-.217.787.787 0 0 1 .363-.092zm-8.635-.431a1.319 1.319 0 0 1 .771.232 1.3 1.3 0 0 1 .486.568c.029.068.057.134.082.2a1.039 1.039 0 0 1 -.022.889 1.176 1.176 0 0 1 -.762.491 1.248 1.248 0 0 1 -.765 0 1.86 1.86 0 0 1 -.349-.155 1.571 1.571 0 0 1 -.452-.461 1.152 1.152 0 0 1 -.16-.591 1.157 1.157 0 0 1 .16-.593 1.181 1.181 0 0 1 1.011-.58zm-13.8.251a1.064 1.064 0 0 1 .853.427 1.069 1.069 0 0 1 .194.948 1.086 1.086 0 0 1 -.759.759 1.747 1.747 0 0 1 -.762.018 1.276 1.276 0 0 1 -.577-.315.784.784 0 0 1 -.228-.7.8.8 0 0 1 .31-.538l-.062.048.07-.065a.443.443 0 0 0 .021-.042 1.083 1.083 0 0 1 .389-.389 1.074 1.074 0 0 1 .553-.15zm80.136-3.945a1.076 1.076 0 0 1 .568 0 .792.792 0 0 1 .363.191.8.8 0 0 1 .254.263l.021.037a1.112 1.112 0 0 1 .108.823 1.055 1.055 0 0 1 -.746.746h-.012-.012a.793.793 0 0 1 -.423.018.78.78 0 0 1 -.394-.126 1.265 1.265 0 0 1 -.381-.38.79.79 0 0 1 -.126-.4.544.544 0 0 1 0-.281.789.789 0 0 1 .126-.4l.166-.215.017-.014a1.058 1.058 0 0 1 .472-.261zm-13.106-6.892a1.325 1.325 0 0 1 0 2.649 1.325 1.325 0 0 1 .001-2.647zm-62.482-.335a1.021 1.021 0 0 1 .538.023l.322.135.273.211a.863.863 0 0 1 .122.151l.059.077a1.189 1.189 0 0 1 .18.379 1.314 1.314 0 0 1 0 .7 1.235 1.235 0 0 1 -.134.315 1.294 1.294 0 0 1 -.19.252l-.037.037a1.016 1.016 0 0 1 -.433.279.664.664 0 0 1 -.34.091 1.019 1.019 0 0 1 -.538-.024l-.322-.135-.273-.211-.211-.273-.067-.16-.068-.161-.048-.358a1.021 1.021 0 0 1 .116-.52.681.681 0 0 1 .173-.3.676.676 0 0 1 .242-.242.677.677 0 0 1 .3-.173.665.665 0 0 1 .337-.091zm84.409-1.892a.772.772 0 0 1 .4.09.875.875 0 0 1 .125.054 1.04 1.04 0 0 1 .375.374.784.784 0 0 1 .124.388.775.775 0 0 1 -.008.378l-.011.038a1.011 1.011 0 0 1 -.129.285.161.161 0 0 1 -.02.03 1.019 1.019 0 0 1 -.346.336 1.032 1.032 0 0 1 -.514.139 1.04 1.04 0 0 1 -.88-.505 1.037 1.037 0 0 1 -.062-.142c-.017-.042-.044-.095-.059-.143a1.059 1.059 0 0 1 0-.555.784.784 0 0 1 .186-.354.794.794 0 0 1 .293-.268 1.037 1.037 0 0 1 .483-.142zm-72.056-1.3a1.081 1.081 0 0 1 .539-.011l.045.011a.833.833 0 0 1 .373.2.847.847 0 0 1 .282.309 1.1 1.1 0 0 1 .15.553 1.1 1.1 0 0 1 -.15.553 1.1 1.1 0 0 1 -.394.393l-.143.069a.776.776 0 0 1 -.385.122.519.519 0 0 1 -.276 0 .511.511 0 0 1 -.262-.07.513.513 0 0 1 -.229-.134.773.773 0 0 1 -.267-.29l-.106-.249-.036-.276.036-.275.057-.135a1.087 1.087 0 0 1 .282-.484 1.1 1.1 0 0 1 .485-.28zm64.557-2.2a1.079 1.079 0 0 1 .568-.026.7.7 0 0 1 .358.1.7.7 0 0 1 .314.182 1.077 1.077 0 0 1 .366.4l.143.34a1.443 1.443 0 0 1 0 .766 1.053 1.053 0 0 1 -.25.477.7.7 0 0 1 -.251.251 1.053 1.053 0 0 1 -.417.234l-.043.012h-.016-.007a.008.008 0 0 1 -.005 0 .947.947 0 0 1 -.193.027 1.08 1.08 0 0 1 -.568-.026l-.338-.143c-.1-.073-.192-.147-.288-.222-.074-.1-.148-.193-.223-.288a1.047 1.047 0 0 1 -.168-.529.713.713 0 0 1 0-.378.706.706 0 0 1 .1-.358 1.061 1.061 0 0 1 .294-.458c.1-.074.191-.149.288-.222zm-83.025-4.656a1.106 1.106 0 0 1 .59 0l.264.111a.834.834 0 0 1 .311.287.821.821 0 0 1 .2.378 1.255 1.255 0 0 1 .007.714 1.379 1.379 0 0 1 -.341.583 1.137 1.137 0 0 1 -1.07.28.935.935 0 0 1 -.289-.125.967.967 0 0 1 -.471-.817.77.77 0 0 1 .008-.109.847.847 0 0 1 -.022-.232l.039-.294v-.008a1.089 1.089 0 0 1 .282-.484 1.1 1.1 0 0 1 .442-.27l.043-.013zm98.23-29.243c-.356-2.917-1.693-6.055-5.771-4.342l-.3.114a5.877 5.877 0 0 0 -2.8 1.767c-.423.608-.28 1.787-.338 2.5a29.424 29.424 0 0 0 .154 6.91 33.211 33.211 0 0 1 -3.028 15.862c2.256 3.651 5.274 7.056 9.392 8.578a73.766 73.766 0 0 1 1.851-12.276l.034-.177c.346-1.827.519-3.7 1.718-5.22 2.439-2.649 5.794-1.15 7.4-5.406a.349.349 0 0 1 .255-.642c1.408.25 1.637-2.361.673-2.99-1-.612.007-1.742-.421-2.558-.238-.351-.752-.363-.986-.768-.618-1.491 2.474-2.446-1.162-4.127a6.955 6.955 0 0 0 -2.327-.1c-1.1.1-1.982.881-2.992 1.126 1.1 2.848-1.675 5.59-4.179 3.316-1.363 1.288-2.886 4.225.426 2.856 1.621-1.082 3.017-2.481 4.9-3.148l.04-.012c.7-.229 3.755-1.715 3.6-.429-1.145 1.106-3.034 1.092-4.36 1.99-1.838.85-3.014 2.911-5.215 2.883-.507 3.082 2.989 1.207 4.291.357l.361-.2a12.477 12.477 0 0 1 5.844-1.921.458.458 0 0 1 0 .916c-2.791.017-5.063 1.763-7.4 3.06-.23 1.8 2.4 1.011 3.4.746 1.048-.147 2.731-1.281 3.648-.682.359.922-1.22.853-1.769 1.133 2.509 1.205.311 1.964-.362.112l-.2.067c-1.68.565-5.754 1.727-5.269-1.119a3.4 3.4 0 0 1 -2.044.284c-1.694 2.507-4.4 1.537-.469-.172a1.634 1.634 0 0 1 -.331-2.594c-3.092-.189-.8-3.434.483-4.516-.121-.122-.238-.247-.347-.373a6.826 6.826 0 0 1 -2.343.641c-.794.071-.971-1.28-.187-1.391a6.439 6.439 0 0 0 2.352-.765c1.12-.484 1.5 1.6 2.624 1.67.614.116 1.032-.417 1.154-.957zm-26.033 26.843a1.044 1.044 0 0 1 .708.293 1.011 1.011 0 0 1 .293.707.76.76 0 0 1 -.086.387.754.754 0 0 1 -.207.322 1.038 1.038 0 0 1 -.708.293 1.045 1.045 0 0 1 -.708-.293 1.015 1.015 0 0 1 -.293-.709.76.76 0 0 1 .086-.385.745.745 0 0 1 .179-.294l.028-.028a1.032 1.032 0 0 1 .708-.293zm8.2-6.176h.043a1.267 1.267 0 0 1 .639.173c.086.066.172.132.257.2a1.264 1.264 0 0 1 .325.56 1.257 1.257 0 0 1 0 .673.876.876 0 0 1 -.145.362 1.269 1.269 0 0 1 -.448.447 1.238 1.238 0 0 1 -.629.171 1.238 1.238 0 0 1 -.629-.171 1.255 1.255 0 0 1 -.447-.447.861.861 0 0 1 -.146-.362 1.257 1.257 0 0 1 0-.673 1.259 1.259 0 0 1 .292-.526l.033-.034a.941.941 0 0 1 .407-.262.951.951 0 0 1 .453-.112zm-62.615.07a.541.541 0 0 1 .288 0 .808.808 0 0 1 .4.128l.219.169.064.076a1.246 1.246 0 0 1 .244.446.815.815 0 0 1 .018.422.527.527 0 0 1 -.072.266.522.522 0 0 1 -.137.233.531.531 0 0 1 -.189.19.8.8 0 0 1 -.359.189l-.28.038-.111-.014a.812.812 0 0 1 -.128-.014l-.042-.009-.038-.01a.815.815 0 0 1 -.149-.06.542.542 0 0 1 -.238-.139.813.813 0 0 1 -.278-.3l-.018-.042a.755.755 0 0 1 -.061-.139.517.517 0 0 1 -.068-.251.756.756 0 0 1 .007-.357l.011-.04.1-.238a1.22 1.22 0 0 1 .177-.229c.042-.037.146-.118.2-.159l.036-.024a.809.809 0 0 1 .412-.134zm-14.011-2.306a1.017 1.017 0 0 1 -.444 1.684l-.085.021a.966.966 0 0 1 -1.175-1.177l.021-.083a1.016 1.016 0 0 1 1.688-.447zm87.666-5.579a.08.08 0 0 1 .135-.056 10.906 10.906 0 0 0 1.789 1.673 12.69 12.69 0 0 0 2.352.685.29.29 0 0 1 0 .554c-1.504.526-4.156-1.265-4.27-2.858zm-70.947-.117a.967.967 0 0 1 .505-.022.621.621 0 0 1 .319.086.635.635 0 0 1 .28.163.647.647 0 0 1 .228.228.952.952 0 0 1 .227.43l.044.337-.044.337c-.043.1-.086.2-.128.3l-.116.158c-.094.126-.109.127-.338.3a.936.936 0 0 1 -.471.15.617.617 0 0 1 -.337 0 .626.626 0 0 1 -.319-.086.641.641 0 0 1 -.28-.163.963.963 0 0 1 -.325-.356c-.043-.1-.086-.2-.127-.3l-.046-.337.046-.337v-.01a1.258 1.258 0 0 1 .32-.55l.253-.2a1.177 1.177 0 0 1 .309-.128zm60.768.253a1.058 1.058 0 0 1 1.02.27 1.057 1.057 0 0 1 .27 1.02 1.056 1.056 0 0 1 -.733.732 1.033 1.033 0 0 1 -.32.039 1.012 1.012 0 0 1 -.508-.138l-.2-.158a.744.744 0 0 1 -.208-.324.75.75 0 0 1 -.087-.388v-.025a.373.373 0 0 1 .018-.147.566.566 0 0 1 .021-.149 1.057 1.057 0 0 1 .727-.732zm-77.737-3.526a.63.63 0 0 1 .324.073.61.61 0 0 1 .271.174.617.617 0 0 1 .174.271.632.632 0 0 1 .073.324.834.834 0 0 1 -.115.425l-.133.171a.826.826 0 0 1 -.371.217l-.083.029a.759.759 0 0 1 -.37.03.75.75 0 0 1 -.367-.138.7.7 0 0 1 -.254-.254l-.072-.169a1.169 1.169 0 0 1 -.026-.2.175.175 0 0 0 0-.026 1.348 1.348 0 0 1 .029-.225.86.86 0 0 1 .154-.294.618.618 0 0 1 .232-.212l.009-.007.01-.007.092-.064a.834.834 0 0 1 .423-.118zm67.222-.925a1.141 1.141 0 0 1 .582.158l.018.008a1.147 1.147 0 0 1 .41.41 1.127 1.127 0 0 1 .156.577 1.122 1.122 0 0 1 -.156.577 1.147 1.147 0 0 1 -.41.41.1.1 0 0 1 -.018.009 1.155 1.155 0 0 1 -.582.158 1.154 1.154 0 0 1 -.581-.158 1.163 1.163 0 0 1 -.571-1 1.159 1.159 0 0 1 .571-1 1.141 1.141 0 0 1 .581-.149zm-54.06-1.506h.035a.737.737 0 0 1 .385.087.758.758 0 0 1 .323.207l.19.159.055.045.027.023a1.034 1.034 0 0 1 .264.454c.016.1.029.2.039.3a.976.976 0 0 1 -.294.712.77.77 0 0 1 -.324.208.764.764 0 0 1 -.388.086 1.088 1.088 0 0 1 -.754-.3c-.024-.026-.046-.053-.069-.081l-.161-.188a1 1 0 0 1 -.256-.441c-.013-.09-.025-.178-.036-.267a1.006 1.006 0 0 1 .293-.707 1.015 1.015 0 0 1 .671-.297zm-6.571-2.742a1.051 1.051 0 0 1 0 2.1 1.051 1.051 0 0 1 0-2.1zm68.067-2.945h.043a1.238 1.238 0 0 1 .628.171l.252.194a1.264 1.264 0 0 1 .32.55c.014.111.029.221.044.331a.94.94 0 0 1 -.108.481.936.936 0 0 1 -.257.4.927.927 0 0 1 -.4.257.936.936 0 0 1 -.479.108 1.24 1.24 0 0 1 -.629-.171c-.084-.065-.168-.13-.252-.194a1.247 1.247 0 0 1 -.3-.5l-.014-.048-.046-.332a.937.937 0 0 1 .108-.479.929.929 0 0 1 .257-.4.933.933 0 0 1 .4-.256.932.932 0 0 1 .433-.113zm-6.1-3.932a.671.671 0 0 1 .339.075.662.662 0 0 1 .281.181.849.849 0 0 1 .271.62.849.849 0 0 1 -.271.62.88.88 0 0 1 -.387.225l-.233.031a.9.9 0 0 1 -.618-.257c-.033-.03-.064-.06-.1-.089a.765.765 0 0 1 -.22-.531.571.571 0 0 1 .065-.289.568.568 0 0 1 .155-.242c.033-.029.064-.059.1-.089a.947.947 0 0 1 .621-.255zm38.634-7.005c.855-1.042.357-1.784-.928-1.526-2.214.3-4.3 1.7-6.248 2.7-2.129 1.125-4.322 2.052-6.493 3.109a5.909 5.909 0 0 1 2.071 2.395 6.342 6.342 0 0 1 3.583-1.189c2.301-2.201 6.11-2.706 8.018-5.489zm-101.059 3.46a1.377 1.377 0 0 1 .653.165l.043.024.279.216a1.035 1.035 0 0 1 .286.444 1.053 1.053 0 0 1 .118.533 1.048 1.048 0 0 1 -.118.531 1.027 1.027 0 0 1 -.286.444.807.807 0 0 1 -.294.236c-.111.045-.22.092-.331.139a1.624 1.624 0 0 1 -.4.051 1.347 1.347 0 0 1 -.681-.185l-.273-.211a1.017 1.017 0 0 1 -.28-.435 1.008 1.008 0 0 1 -.117-.475v-.046a.278.278 0 0 1 0-.034c.015-.122.033-.245.049-.367a1.039 1.039 0 0 1 .247-.47.444.444 0 0 1 .126-.155 1.376 1.376 0 0 1 .609-.356zm60.441-3.45a.962.962 0 0 1 .49.132l.2.152a.958.958 0 0 1 .25.428l.035.258a.74.74 0 0 1 -.085.374.729.729 0 0 1 -.2.312.715.715 0 0 1 -.312.2.722.722 0 0 1 -.374.083.954.954 0 0 1 -.489-.133l-.2-.151a.969.969 0 0 1 -.236-.388l-.012-.041-.035-.258a.725.725 0 0 1 .083-.374.729.729 0 0 1 .2-.313.729.729 0 0 1 .313-.2.72.72 0 0 1 .334-.084zm-52.832-1.411h.045a1.428 1.428 0 0 1 .724.2l.289.224a1.431 1.431 0 0 1 .37.633l.051.38a1.073 1.073 0 0 1 -.124.552 1.062 1.062 0 0 1 -.3.462 1.061 1.061 0 0 1 -.461.3 1.072 1.072 0 0 1 -.552.124 1.414 1.414 0 0 1 -.724-.2l-.29-.224a1.454 1.454 0 0 1 -.369-.633l-.051-.382a1.076 1.076 0 0 1 .124-.552 1.068 1.068 0 0 1 .3-.461 1.064 1.064 0 0 1 .462-.3 1.078 1.078 0 0 1 .508-.123zm48.2-3.58a.68.68 0 0 1 .355 0 .991.991 0 0 1 .5.159l.269.208.012.013a1.318 1.318 0 0 1 .338.581l.047.35a1 1 0 0 1 -.113.507.992.992 0 0 1 -.241.394l-.043.042a1 1 0 0 1 -.428.276.654.654 0 0 1 -.337.091 1 1 0 0 1 -.532-.024c-.105-.046-.212-.09-.319-.134l-.034-.02a1.312 1.312 0 0 1 -.651-1.133 1.315 1.315 0 0 1 .651-1.134.384.384 0 0 0 .034-.018.99.99 0 0 1 .496-.159z" transform="translate(-40.986 191.294)"/></clipPath><clipPath id="c"><path clip-rule="evenodd" d="m133.312-256.244q-1.278-3.559-2.7-7.064a72.973 72.973 0 0 0 -2.9-6.763c-6.841-12.937-19.28-12.937-25.71-11.246-3.335-1.44-9.58-1.034-13.053.266-5.621 2.1-12.473 10.381-14.816 14.1-5.173 8.211-8.4 19.139-4.965 28.627a21.4 21.4 0 0 0 1.667 3.5 13.619 13.619 0 0 1 -1.392 1.588 48.647 48.647 0 0 0 -4.408 4.725 23.5 23.5 0 0 0 -3.235 5.531 13.4 13.4 0 0 0 .421 11.677 10.783 10.783 0 0 0 8.431 5.7c.181.025.363.048.545.067a10.225 10.225 0 0 0 1.689 2.1c1.994 1.9 6.747 2.877 9.458 2.939.139.112.279.224.42.335a30.285 30.285 0 0 0 5.3 3.56 6.12 6.12 0 0 0 4.327.7 2.344 2.344 0 0 0 2.217-.012 5.875 5.875 0 0 0 2.3-2.552c1.194-2.46.907-5.152.6-7.78-.338-2.9-.663-5.807-.992-8.71a36.029 36.029 0 0 0 -1.217-6.764 15.56 15.56 0 0 0 -1.425-3.245.534.534 0 0 0 -.012-.253 3.092 3.092 0 0 0 -1.089-1.418c-.062-.056-.125-.113-.186-.172a5.857 5.857 0 0 0 -.777-.75c-.106-.108-.212-.217-.317-.327a26.479 26.479 0 0 1 -2.434-2.917c-.712-1-1.355-2.05-1.967-3.116-.622-1.085-1.034-2.282-1.655-3.359a.17.17 0 0 0 -.264-.034.848.848 0 0 0 -.292.654l-.1.014a.654.654 0 0 0 -.8-.561 3.158 3.158 0 0 1 -1.767-.061c.1-.665.192-1.332.283-2 .166-1.229.321-2.463.453-3.7a5.341 5.341 0 0 1 .951.328 4.583 4.583 0 0 1 1.222.8c.353.326.6.764 1.029.991a.655.655 0 0 0 .95-.732c-.295-1.137-1.964-1.788-3-2a4.766 4.766 0 0 0 -1.079-.1q.123-1.188.214-2.377.043-.562.079-1.126a5.889 5.889 0 0 1 2.5-.2c.275.22.551.438.817.658.846.7 1.687 1.405 2.519 2.123l.225.193a.62.62 0 0 0 1.026-.6c-.678-4.941 2.341-8.871 5.875-11.916 3.913-3.372 11.026-3.764 15.679-9.6 2.143.437 6.928 1.736 8.9 4.89 2.764 4.42 2.4 8.38 2.614 13.394s.746 10.252-.391 15.2a14.133 14.133 0 0 1 -8.29 10.252c-.109.044-.22.087-.33.129a13.3 13.3 0 0 1 -7.158.651 18.671 18.671 0 0 1 -7.071-3.215c-.127-.085-.313.09-.217.217 2.907 3.863 8.618 5.153 13.147 4.133q.318-.072.631-.158a11.971 11.971 0 0 0 .51 8.971 12.073 12.073 0 0 0 3.479 4.36c1.625 1.287 3.641 2.326 4.769 4.132a2.975 2.975 0 0 1 -1.042 4.471.878.878 0 0 0 -.175 1.369c.169.13.338.263.51.393a20.347 20.347 0 0 0 4.149 2.207c3.91.465 6.539-2.413 8.224-5.808a13.608 13.608 0 0 0 -.716-12.636c-1.749-3.045-5.192-6.045-3.823-9.9a11.136 11.136 0 0 1 2.458-3.61c1.107-1.207 2.3-2.338 3.358-3.588a12.773 12.773 0 0 0 2.512-4.149 12.529 12.529 0 0 0 -.19-7.01c-1.215-4.872-2.805-9.685-4.503-14.416z" transform="translate(-60.672 282.227)"/></clipPath><clipPath id="d"><path clip-rule="evenodd" d="m135.563-214.052a5.3 5.3 0 0 1 -2.227-1.714 1.028 1.028 0 0 1 -.208-.8 1.153 1.153 0 0 1 .448-.722 1.074 1.074 0 0 1 .8-.218 1.008 1.008 0 0 1 .68.45l.04.055a3.508 3.508 0 0 0 1.285 1.079 2.9 2.9 0 0 0 1.591.28 4.27 4.27 0 0 0 2.593-1.487c.1-.1.195-.2.292-.306a.459.459 0 0 1 .243-.187.521.521 0 0 1 .334 0 .531.531 0 0 1 .263.2.488.488 0 0 1 .083.323 3.345 3.345 0 0 1 -1.1 2.114 4.907 4.907 0 0 1 -2.4 1.227 4.871 4.871 0 0 1 -2.718-.3zm3.154-12.575c.983.6 2.481 1.992 1.423 3.474-1.245 1.307-3.037-.192-3.92-.869-.819-.525-1.739.825-.979 1.439 6.382 4.727 8.972-3.887 3.973-4.746-.55-.095-.755.517-.497.702zm-11.436-5.5c.109-1.349 2.162-1.655 2.366-.32a5.465 5.465 0 0 1 -.571 3.37 1 1 0 0 1 -1.9-.388 10.871 10.871 0 0 1 .105-2.66zm15.629-.6a1.1 1.1 0 0 1 1.195-.486c1.547.452 1.091 2.65.548 3.719a1.076 1.076 0 0 1 -1.681.217c-.7-.834-1.04-2.5-.146-3.321a1.126 1.126 0 0 1 .084-.124zm-13.856-5.3.244-.043c.756-.131 1.7-.257 2.231.352a.883.883 0 0 1 0 1.23c-.671.543-1.412.333-2.216.379a8.814 8.814 0 0 0 -1.937.33 13.16 13.16 0 0 0 -3.736 1.933c-.157.105-.317-.1-.242-.242a7.718 7.718 0 0 1 3.367-3.14 8.323 8.323 0 0 1 2.289-.798zm12.446-.606.187.038c2.036.426 4.68 1.276 5.644 3.276.037.283 0 .343-.034.383l-.011.013a.263.263 0 0 1 -.169.119l-.1-.026a5.845 5.845 0 0 1 -1.13-.441l-.367-.181a10.114 10.114 0 0 0 -1.31-.559 15.43 15.43 0 0 0 -2.985-.659 1.224 1.224 0 0 1 -.6-.227.9.9 0 0 1 -.335-.51.915.915 0 0 1 .1-.765.969.969 0 0 1 .473-.408 1.109 1.109 0 0 1 .637-.052z" transform="translate(-123.38 238.656)"/></clipPath><g clip-path="url(#b)" transform="translate(0 56.03)"><g clip-path="url(#a)" transform="translate(-1138.059 -550.676)"><path d="m35.986-196.294h126.332v96.881h-126.332z" fill="#0d0091" transform="translate(1098.993 743.889)"/></g></g><g clip-path="url(#c)" transform="translate(12.13)"><g clip-path="url(#a)" transform="translate(-1150.189 -494.646)"><path d="m55.672-287.227h83.938v93.316h-83.938z" fill="#0d0091" transform="translate(1091.437 778.792)"/></g></g><g clip-path="url(#d)" transform="translate(50.769 26.847)"><g clip-path="url(#a)" transform="translate(-1188.828 -521.493)"><path d="m118.38-243.656h30.128v31.141h-30.128z" fill="#110091" transform="translate(1067.367 762.068)"/></g></g></svg>