<svg width="40" height="40" viewBox="0 0 40 40" fill="none" xmlns="http://www.w3.org/2000/svg">
<path fill-rule="evenodd" clip-rule="evenodd" d="M35 34.5C34.7243 34.5 34.5 34.2757 34.5 34C34.5 33.7243 34.7243 33.5 35 33.5C35.2757 33.5 35.5 33.7243 35.5 34C35.5 34.2757 35.2757 34.5 35 34.5Z" fill="#CACAFB"/>
<path fill-rule="evenodd" clip-rule="evenodd" d="M34 6.5C33.7243 6.5 33.5 6.2757 33.5 6C33.5 5.72428 33.7243 5.5 34 5.5C34.2757 5.5 34.5 5.72428 34.5 6C34.5 6.2757 34.2757 6.5 34 6.5Z" fill="#CACAFB"/>
<path fill-rule="evenodd" clip-rule="evenodd" d="M7 34.5C6.7243 34.5 6.5 34.2757 6.5 34C6.5 33.7243 6.7243 33.5 7 33.5C7.2757 33.5 7.5 33.7243 7.5 34C7.5 34.2757 7.2757 34.5 7 34.5Z" fill="#CACAFB"/>
<path fill-rule="evenodd" clip-rule="evenodd" d="M5 8.5C4.7243 8.5 4.5 8.2757 4.5 8C4.5 7.72428 4.7243 7.5 5 7.5C5.2757 7.5 5.5 7.72428 5.5 8C5.5 8.2757 5.2757 8.5 5 8.5Z" fill="#CACAFB"/>
<path fill-rule="evenodd" clip-rule="evenodd" d="M8 16.5C8 15.6716 8.67157 15 9.5 15C10.3284 15 11 15.6716 11 16.5C11 17.3284 10.3284 18 9.5 18C8.67157 18 8 17.3284 8 16.5ZM10 16.5C10 16.2239 9.77614 16 9.5 16C9.22386 16 9 16.2239 9 16.5C9 16.7761 9.22386 17 9.5 17C9.77614 17 10 16.7761 10 16.5Z" fill="#E1000F"/>
<path d="M9.5 17C9.75642 17 9.96775 17.193 9.99664 17.4417L10 17.5V19.5C10 19.7761 9.77614 20 9.5 20C9.24358 20 9.03225 19.807 9.00336 19.5583L9 19.5V17.5C9 17.2239 9.22386 17 9.5 17Z" fill="#E1000F"/>
<path fill-rule="evenodd" clip-rule="evenodd" d="M19 14.5C19 13.6716 19.6716 13 20.5 13C21.3284 13 22 13.6716 22 14.5C22 15.3284 21.3284 16 20.5 16C19.6716 16 19 15.3284 19 14.5ZM21 14.5C21 14.2239 20.7761 14 20.5 14C20.2239 14 20 14.2239 20 14.5C20 14.7761 20.2239 15 20.5 15C20.7761 15 21 14.7761 21 14.5Z" fill="#E1000F"/>
<path d="M20.5 15C20.7564 15 20.9678 15.193 20.9966 15.4417L21 15.5V17.5C21 17.7761 20.7761 18 20.5 18C20.2436 18 20.0322 17.807 20.0034 17.5583L20 17.5V15.5C20 15.2239 20.2239 15 20.5 15Z" fill="#E1000F"/>
<path fill-rule="evenodd" clip-rule="evenodd" d="M28 8.5C28 7.67157 28.6716 7 29.5 7C30.3284 7 31 7.67157 31 8.5C31 9.32843 30.3284 10 29.5 10C28.6716 10 28 9.32843 28 8.5ZM30 8.5C30 8.22386 29.7761 8 29.5 8C29.2239 8 29 8.22386 29 8.5C29 8.77614 29.2239 9 29.5 9C29.7761 9 30 8.77614 30 8.5Z" fill="#E1000F"/>
<path d="M29.5 9C29.7564 9 29.9678 9.19302 29.9966 9.44169L30 9.5V11.5C30 11.7761 29.7761 12 29.5 12C29.2436 12 29.0322 11.807 29.0034 11.5583L29 11.5V9.5C29 9.22386 29.2239 9 29.5 9Z" fill="#E1000F"/>
<path fill-rule="evenodd" clip-rule="evenodd" d="M24 19.5C24 18.6716 24.6716 18 25.5 18C26.3284 18 27 18.6716 27 19.5C27 20.3284 26.3284 21 25.5 21C24.6716 21 24 20.3284 24 19.5ZM26 19.5C26 19.2239 25.7761 19 25.5 19C25.2239 19 25 19.2239 25 19.5C25 19.7761 25.2239 20 25.5 20C25.7761 20 26 19.7761 26 19.5Z" fill="#E1000F"/>
<path d="M25.5 20C25.7564 20 25.9678 20.193 25.9966 20.4417L26 20.5V22.5C26 22.7761 25.7761 23 25.5 23C25.2436 23 25.0322 22.807 25.0034 22.5583L25 22.5V20.5C25 20.2239 25.2239 20 25.5 20Z" fill="#E1000F"/>
<path fill-rule="evenodd" clip-rule="evenodd" d="M17 24.5C17 23.6716 17.6716 23 18.5 23C19.3284 23 20 23.6716 20 24.5C20 25.3284 19.3284 26 18.5 26C17.6716 26 17 25.3284 17 24.5ZM19 24.5C19 24.2239 18.7761 24 18.5 24C18.2239 24 18 24.2239 18 24.5C18 24.7761 18.2239 25 18.5 25C18.7761 25 19 24.7761 19 24.5Z" fill="#E1000F"/>
<path d="M18.5 25C18.7564 25 18.9678 25.193 18.9966 25.4417L19 25.5V27.5C19 27.7761 18.7761 28 18.5 28C18.2436 28 18.0322 27.807 18.0034 27.5583L18 27.5V25.5C18 25.2239 18.2239 25 18.5 25Z" fill="#E1000F"/>
<path fill-rule="evenodd" clip-rule="evenodd" d="M25 29.5C25 28.6716 25.6716 28 26.5 28C27.3284 28 28 28.6716 28 29.5C28 30.3284 27.3284 31 26.5 31C25.6716 31 25 30.3284 25 29.5ZM27 29.5C27 29.2239 26.7761 29 26.5 29C26.2239 29 26 29.2239 26 29.5C26 29.7761 26.2239 30 26.5 30C26.7761 30 27 29.7761 27 29.5Z" fill="#E1000F"/>
<path d="M26.5 30C26.7564 30 26.9678 30.193 26.9966 30.4417L27 30.5V32.5C27 32.7761 26.7761 33 26.5 33C26.2436 33 26.0322 32.807 26.0034 32.5583L26 32.5V30.5C26 30.2239 26.2239 30 26.5 30Z" fill="#E1000F"/>
<path fill-rule="evenodd" clip-rule="evenodd" d="M31.5204 12.0004L32.8541 12.0549C32.9396 12.0584 33.0227 12.0838 33.0956 12.1286C33.7392 12.5245 33.983 13.3305 33.6699 13.9992L33.6278 14.0821L33.2344 14.8005L33.221 14.945C33.2132 15.0235 33.1997 15.0991 33.1798 15.1746L33.1451 15.2881L32.8589 16.0835L32.8823 17.4535C32.891 17.8742 32.7166 18.2731 32.4049 18.5588L32.3305 18.6227L31.7492 19.0898C31.6588 19.1622 31.5601 19.224 31.4554 19.2742L31.3959 19.3L30.8584 19.968L30.8936 19.9986C31.0584 20.1514 31.1886 20.3408 31.2702 20.556L31.3022 20.6497L31.3819 20.913L31.4813 21.0354L31.8085 21.5053C32.0666 21.8798 32.131 22.3412 32.0043 22.7579L31.9754 22.8405L32.1385 23.0281C32.3627 23.2895 32.4882 23.6147 32.4953 23.9545L32.4939 24.0568L32.4661 24.5696C32.4522 24.8046 32.3811 25.0299 32.2634 25.2287L32.2334 25.275L32.2735 25.3417C32.3961 25.5635 32.4593 25.8146 32.4541 26.0724L32.4494 26.152L32.5245 26.1599C32.9887 26.2224 33.4111 26.4931 33.6488 26.917L33.6911 26.9982L33.8589 27.349C34.0815 27.8174 34.0374 28.3609 33.7576 28.7753L33.7494 28.786L33.749 28.8487C33.7324 29.2312 33.5632 29.595 33.2724 29.8625L33.1971 29.9274L32.1708 30.7481L32.1216 30.7828L31.8914 30.9245L31.8866 30.9576C31.8715 31.0332 31.8503 31.1075 31.8234 31.1797L31.7787 31.2864C31.6266 31.6159 31.351 31.88 31.0126 32.027L30.9188 32.0641L30.0104 32.3872C29.9272 32.4149 29.8536 32.4346 29.7811 32.4481L29.7086 32.4597L29.0359 32.5521C28.8456 32.5785 28.648 32.5689 28.461 32.5239C28.1925 32.4592 28.0273 32.1891 28.092 31.9207C28.1521 31.6714 28.3893 31.5111 28.6378 31.5413L28.6952 31.5517C28.7386 31.5621 28.7849 31.5672 28.8309 31.5666L28.8993 31.5615L29.5753 31.4686C29.5968 31.4658 29.6187 31.4612 29.644 31.4542L29.6851 31.4416L30.5825 31.1224C30.7126 31.0757 30.8185 30.9804 30.8718 30.865C30.8951 30.815 30.9092 30.7617 30.9134 30.7078L30.9144 30.6538C30.9077 30.4933 30.9783 30.3406 31.102 30.2419L31.1509 30.2075L31.5719 29.9465L32.5708 29.1478C32.6899 29.0517 32.7533 28.916 32.7502 28.7766L32.7448 28.7167C32.7274 28.6071 32.747 28.4955 32.7995 28.399L32.8349 28.3432L32.9013 28.2528C32.9962 28.1318 33.0236 27.979 32.9796 27.8387L32.9563 27.7794L32.7899 27.4316C32.687 27.2186 32.4397 27.1055 32.1973 27.1588L32.1368 27.1756L32.0082 27.2196C31.8817 27.263 31.744 27.2535 31.6256 27.1952L31.5681 27.162L31.4471 27.081C31.2153 26.9258 31.1581 26.6146 31.3088 26.3887L31.3443 26.3417C31.4072 26.2678 31.4444 26.179 31.4526 26.0834C31.4632 25.961 31.4251 25.8429 31.3448 25.7484L31.3012 25.7032L31.229 25.637C31.0129 25.4388 31.0154 25.1025 31.222 24.9065L31.2694 24.8668C31.37 24.7923 31.438 24.6847 31.4604 24.5705L31.4677 24.513L31.4952 24.0054C31.5 23.9083 31.473 23.8124 31.4179 23.7296L31.3816 23.6816L30.9967 23.2386C30.856 23.0766 30.8356 22.8453 30.9397 22.663L30.9747 22.6099C31.0807 22.4691 31.096 22.2841 31.0195 22.1306L30.9865 22.0747L30.6853 21.6392L30.5465 21.471C30.5184 21.4369 30.4951 21.3995 30.4769 21.3595L30.4537 21.2978L30.3453 20.9401C30.3013 20.7951 30.186 20.6782 30.0346 20.6232L29.9762 20.6056C29.6402 20.5236 29.4923 20.138 29.6703 19.8551L29.7051 19.8063L30.7021 18.5675C30.7522 18.5052 30.8164 18.4561 30.8889 18.4239L30.9448 18.403C30.9894 18.3893 31.0314 18.3705 31.0695 18.3475L31.1235 18.3098L31.7038 17.8435C31.8052 17.7618 31.8662 17.6521 31.8798 17.5327L31.8825 17.4723L31.8578 16.0097C31.8571 15.9694 31.8613 15.9292 31.8702 15.8901L31.8871 15.8322L32.2024 14.9545L32.2171 14.9026L32.2256 14.8492L32.2483 14.6058C32.2525 14.5606 32.2628 14.5162 32.279 14.474L32.3074 14.4123L32.7507 13.6018C32.8396 13.4397 32.817 13.2427 32.7039 13.0981L32.6579 13.0475L31.4795 12.9996C31.2233 12.9891 31.02 12.7876 31.0013 12.538L31.0004 12.4796C31.0108 12.2234 31.2123 12.0201 31.462 12.0014L31.5204 12.0004Z" fill="#000091"/>
<path fill-rule="evenodd" clip-rule="evenodd" d="M20.4634 6.04361C21.0465 5.90349 21.6608 6.10766 22.0278 6.56077L22.0867 6.63858L22.2479 6.866L22.336 6.87409C22.8934 6.94099 23.369 7.30148 23.5679 7.82105L23.5739 7.84C23.7378 7.91085 23.8839 8.00629 24.0104 8.1242L24.0289 8.143L24.0558 8.15105C24.0884 8.16185 24.1206 8.17372 24.1522 8.18664L24.2454 8.22846L24.6574 8.4266C24.7872 8.49018 24.9059 8.57014 25.0108 8.6641L25.0409 8.6935L25.0751 8.68575C25.484 8.58684 25.9231 8.66514 26.2763 8.89564L26.3627 8.95642C26.6249 9.15562 26.8095 9.42799 26.8952 9.73313L26.9209 9.842L27.2807 10.0863C27.3338 10.1223 27.3794 10.1682 27.415 10.2211L27.4471 10.2764L27.9471 11.2764C28.0706 11.5234 27.9705 11.8237 27.7235 11.9472C27.4942 12.0619 27.2188 11.9838 27.0818 11.7743L27.0527 11.7236L26.6109 10.84L26.1684 10.5399C26.0484 10.4585 25.9706 10.3297 25.953 10.1878L25.9451 10.0648C25.9287 9.9435 25.8639 9.83333 25.7586 9.75331C25.6498 9.67102 25.5087 9.63281 25.3729 9.6472L25.3056 9.65882L24.9693 9.73677C24.7817 9.78024 24.588 9.71199 24.4687 9.56549L24.4319 9.5138C24.3928 9.45095 24.3383 9.39664 24.2724 9.35501L24.2208 9.32623L23.8087 9.12802C23.7792 9.11357 23.7493 9.10208 23.7187 9.09343L23.6723 9.08258C23.5749 9.06446 23.4855 9.01792 23.4151 8.94946L23.3753 8.90581C23.3164 8.83323 23.2367 8.77758 23.1458 8.74538L23.0755 8.72573C22.9186 8.69293 22.7881 8.58722 22.7227 8.44336L22.7013 8.3877L22.6447 8.20948C22.5862 8.02224 22.4184 7.88896 22.2108 7.86628L22.1474 7.86285H21.9871C21.8452 7.86285 21.711 7.80265 21.6169 7.69898L21.5791 7.65193L21.27 7.21572C21.1628 7.06358 20.9642 6.98027 20.7674 7.00311L20.702 7.01471L19.0598 7.42711C18.9279 7.46033 18.8191 7.53788 18.7509 7.64344L18.7202 7.69848L18.3606 8.45801C18.3365 8.50998 18.3223 8.56645 18.3187 8.62294L18.3186 8.67928L18.3846 9.67303C18.3934 9.80571 18.349 9.93547 18.2629 10.0344L18.2164 10.0812L17.7527 10.4901C17.7189 10.5198 17.6814 10.5448 17.6412 10.5644L17.5789 10.5897L15.849 11.1616C15.6752 11.2186 15.5511 11.3543 15.5145 11.5154L15.505 11.5768L15.4954 11.6881C15.4716 11.9636 15.2304 12.1636 14.9617 12.144L14.9038 12.1364L13.9929 11.9631C13.9117 11.9476 13.836 11.9124 13.7722 11.8609L13.7267 11.8192L13.0259 11.0936C12.9347 10.9997 12.8033 10.9404 12.6766 10.9338L12.6138 10.9349L11.7982 10.9749C11.6377 10.9836 11.4957 11.0576 11.4051 11.1772C11.3307 11.2745 11.2986 11.3918 11.3121 11.5081L11.3228 11.566L11.5824 12.5865L11.9281 13.3847C12.0786 13.7323 11.8038 14.1066 11.4389 14.0826L11.3835 14.0759L11.1117 14.0286C11.0338 14.0143 10.953 14.0173 10.8759 14.0371L10.8188 14.0551L10.7411 14.0845C10.5792 14.1459 10.3986 14.1187 10.2627 14.0161L10.214 13.9741L9.84423 13.6118C9.7539 13.5232 9.62696 13.47 9.48958 13.4629L9.42014 13.4632L7.42081 13.6364C7.38053 13.6397 7.34143 13.6473 7.30185 13.6598L7.24193 13.6824L5.79287 14.3342C5.57264 14.4334 5.46251 14.6537 5.51158 14.867L5.5272 14.9201L5.74806 15.5327C5.77535 15.608 5.82496 15.6782 5.89231 15.7354L5.94609 15.7758C6.10005 15.8777 6.18392 16.055 6.16825 16.2358L6.1593 16.2961C6.13532 16.4096 6.15527 16.5283 6.2224 16.638L6.25998 16.7018L6.32863 16.8083C6.3393 16.8238 6.34956 16.8383 6.35939 16.8517L6.41303 16.9201L6.45515 16.9661L6.48452 16.9919C6.49205 16.9974 6.49726 17 6.49993 17C6.77608 17 6.99993 17.2239 6.99993 17.5C6.99993 17.7761 6.77608 18 6.49993 18C6.03577 18 5.66861 17.6834 5.36248 17.1482C5.24593 16.9585 5.17631 16.7458 5.15579 16.5276L5.14943 16.409L5.14547 16.4053C5.02074 16.2787 4.91947 16.1318 4.84732 15.9708L4.80757 15.8725L4.58634 15.2589C4.33593 14.5626 4.6454 13.8055 5.29889 13.4629L5.38236 13.4223L6.83777 12.7677C6.97055 12.7101 7.10275 12.6715 7.23684 12.6515L7.3378 12.6399L9.34632 12.466C9.76459 12.4403 10.166 12.5694 10.4704 12.83L10.5444 12.8978L10.6884 13.0395L10.6493 12.9477L10.6237 12.8726L10.3532 11.811C10.2449 11.3787 10.3391 10.925 10.6093 10.5715C10.8573 10.2443 11.2299 10.0348 11.6427 9.98525L11.7467 9.97621L12.5419 9.93776C12.939 9.89997 13.3595 10.048 13.6692 10.3259L13.7443 10.398L14.3354 11.01L14.6129 11.063L14.6286 11.0247C14.7841 10.6753 15.0744 10.3935 15.4427 10.2458L15.5364 10.2117L17.1674 9.6725L17.3699 9.4935L17.3206 8.74326C17.3078 8.53524 17.3395 8.32702 17.4142 8.13087L17.455 8.03387L17.8165 7.27037C17.9941 6.89569 18.3192 6.61466 18.7154 6.4862L18.8159 6.4573L20.4634 6.04361Z" fill="#000091"/>
<path fill-rule="evenodd" clip-rule="evenodd" d="M10.1959 21.1031C10.4151 20.9352 10.7289 20.9767 10.8969 21.196L10.849 21.1313L10.9459 21.1712L11.1449 21.2432L11.6796 21.4215L11.7662 21.4537C11.7786 21.4587 11.79 21.4635 11.801 21.4684L12.2995 21.7141C12.4252 21.7762 12.5181 21.8878 12.5573 22.0205L12.5708 22.0786C12.5763 22.1113 12.5857 22.1435 12.5986 22.1747L12.6207 22.2206C12.7221 22.4046 12.697 22.6299 12.5633 22.7864L12.52 22.8312C12.4133 22.9287 12.3553 23.0597 12.3573 23.1932C12.3581 23.2504 12.3704 23.308 12.3933 23.3622L12.4197 23.4151C12.4756 23.5116 12.4973 23.6234 12.4826 23.7327L12.4618 23.8303L12.4565 23.8644L12.1532 26.4164C12.1463 26.473 12.1498 26.5285 12.1633 26.5818L12.1801 26.6342C12.2225 26.7432 12.2255 26.8635 12.1884 26.9744L12.1784 27.0075L12.1714 27.0386L11.8048 28.9698C11.7927 29.0338 11.7682 29.0946 11.7329 29.1489L11.694 29.201L11.0335 29.9755C10.9403 30.0851 10.9035 30.2252 10.9303 30.3616C10.9543 30.4801 11.0246 30.5855 11.1286 30.6585L11.1833 30.6922L11.6078 30.9176C11.6729 30.9522 11.7293 31.0006 11.7732 31.0592L11.8038 31.105L12.0066 31.4485C12.0496 31.5215 12.1141 31.5845 12.1906 31.6285L12.2501 31.6578L13.2427 32.0691C13.2843 32.0864 13.3233 32.1091 13.3587 32.1367L13.4089 32.1816L13.7062 32.4859C13.7892 32.5709 13.9044 32.6261 14.0273 32.6402L14.0892 32.6437H14.5294C14.5944 32.6437 14.6585 32.6564 14.7183 32.6808L14.7765 32.709L15.0719 32.877C15.1136 32.901 15.1571 32.919 15.203 32.9311L15.2734 32.9448L17.0103 33.1706C17.1631 33.1918 17.3171 33.1474 17.4313 33.0507L17.4621 33.0224L17.4893 32.993C17.5946 32.8688 17.7529 32.8047 17.9127 32.8182L17.9726 32.8269L18.1408 32.862L18.2222 32.8863L18.6239 33.0448C18.7441 33.0921 18.8404 33.1838 18.8941 33.2995L18.9173 33.3593C18.9517 33.4681 19.0276 33.5641 19.1295 33.6271L19.1826 33.6557L19.6685 33.8833C19.7499 33.9205 19.8445 33.9371 19.9368 33.9314L20.0054 33.9228L20.4214 33.8409C20.4612 33.8331 20.5018 33.8301 20.5422 33.8321L20.6026 33.8387L21.4726 33.9905L21.581 34C21.613 34 21.6451 33.9973 21.6751 33.9922L21.7184 33.9829L22.8104 33.703C22.9454 33.6674 23.0604 33.5816 23.1249 33.4711C23.1782 33.3811 23.1987 33.2744 23.184 33.1727L23.171 33.1124L22.9057 32.2129C22.8754 32.1104 22.879 32.0016 22.9148 31.9021L22.9401 31.8437L23.213 31.3104C23.3388 31.0645 23.64 30.9672 23.8859 31.093C24.1141 31.2098 24.2144 31.4779 24.1268 31.7124L24.1032 31.7659L23.9209 32.121L24.1306 32.831C24.2337 33.1848 24.1978 33.5653 24.0347 33.8905L23.987 33.9777C23.8055 34.289 23.5085 34.5253 23.1586 34.642L23.0619 34.6709L21.9727 34.9499C21.875 34.9763 21.7687 34.9925 21.6423 34.9972L21.5436 34.9986L21.3506 34.9819L20.5244 34.8395L20.1952 34.9046C19.9122 34.9583 19.6176 34.9334 19.3482 34.8323L19.2485 34.7908L18.7589 34.5616C18.4734 34.4282 18.2391 34.2103 18.0871 33.943L18.0639 33.899L18.0009 33.874C17.7051 34.0933 17.3404 34.1986 16.9762 34.1721L16.877 34.1616L15.1453 33.9366C14.9831 33.9158 14.8272 33.8699 14.682 33.8009L14.5752 33.7449L14.3974 33.6435L14.0892 33.6437C13.7101 33.6437 13.343 33.5039 13.0644 33.255L12.9907 33.1844L12.7654 32.9535L11.8671 32.5815C11.5987 32.4702 11.3667 32.2831 11.2032 32.0471L11.1452 31.9564L11.0139 31.7345L10.7123 31.5743C10.3473 31.3784 10.0817 31.0489 9.97337 30.6566L9.94961 30.5573C9.87017 30.1521 9.96453 29.7381 10.2082 29.4079L10.2722 29.3271L10.8464 28.653L11.1886 26.8538L11.1944 26.8275L11.1878 26.8026C11.1568 26.6706 11.1446 26.5348 11.1516 26.3989L11.1604 26.297L11.4649 23.734L11.4613 23.7249C11.4087 23.5933 11.3754 23.4547 11.3628 23.3137L11.3574 23.2076C11.3536 22.9477 11.4198 22.6947 11.5449 22.4713L11.5514 22.4595L11.3891 22.3795L10.8188 22.1885L10.5741 22.1007C10.3219 22.0056 10.2064 21.939 10.103 21.8041C9.93508 21.5848 9.97667 21.271 10.1959 21.1031Z" fill="#000091"/>
<path fill-rule="evenodd" clip-rule="evenodd" d="M17.4999 18C17.7761 18 17.9999 18.2239 17.9999 18.5C17.9999 18.7564 17.8069 18.9678 17.5582 18.9966L17.4999 19H16.4999C16.2238 19 15.9999 18.7761 15.9999 18.5C15.9999 18.2436 16.193 18.0323 16.4416 18.0034L16.4999 18H17.4999Z" fill="#000091"/>
<path fill-rule="evenodd" clip-rule="evenodd" d="M27.4999 15C27.7761 15 27.9999 15.2239 27.9999 15.5C27.9999 15.7564 27.8069 15.9678 27.5582 15.9966L27.4999 16H26.4999C26.2238 16 25.9999 15.7761 25.9999 15.5C25.9999 15.2436 26.193 15.0323 26.4416 15.0034L26.4999 15H27.4999Z" fill="#000091"/>
<path fill-rule="evenodd" clip-rule="evenodd" d="M24.4999 25C24.7761 25 24.9999 25.2239 24.9999 25.5C24.9999 25.7564 24.8069 25.9678 24.5582 25.9966L24.4999 26H23.4999C23.2238 26 22.9999 25.7761 22.9999 25.5C22.9999 25.2436 23.193 25.0323 23.4416 25.0034L23.4999 25H24.4999Z" fill="#000091"/>
</svg>
