<svg width="440" height="428" viewBox="0 0 440 428" fill="none" xmlns="http://www.w3.org/2000/svg">
<path fill-rule="evenodd" clip-rule="evenodd" d="M141.945 272.55C143.285 272.44 144.651 272.503 145.968 272.272C149.133 271.718 151.579 272.742 153.62 275.19C154.518 276.267 155.166 277.342 155.343 278.734C156.831 290.425 158.238 302.129 159.864 313.802C161.217 323.527 162.348 333.28 163.866 342.987C165.447 353.096 166.471 363.29 167.798 373.44C169.086 383.285 170.421 393.124 171.79 402.959C172.655 409.172 174.035 417.226 175.929 427.123H25.1199C22.9039 410.468 21.264 397.032 20.2 386.816C19.1186 376.43 18.2828 366.018 17.8817 355.56C17.6521 349.572 17.9084 343.598 17.7666 337.618C17.39 321.772 18.8246 305.998 21.3413 290.339C21.5538 289.016 21.9213 287.713 22.2911 286.422C23.1195 283.527 24.2841 282.582 27.3324 282.295C31.4461 281.909 35.5603 281.522 39.678 281.177C45.754 280.667 51.8328 280.194 57.9105 279.705C61.8783 279.305 61.8778 279.305 62.9261 283.101C63.0914 283.699 63.3842 284.287 63.4019 284.895C63.6332 292.784 69.14 295.686 75.5761 296.569C85.7031 297.957 95.6073 296.917 104.182 290.447C107.842 287.685 109.687 284.271 108.597 279.429C107.672 275.32 107.915 275.263 112.018 275.156C112.432 275.145 112.841 275.137 113.22 274.941C122.795 274.143 132.369 273.342 141.945 272.55Z" fill="#F9B436"/>
<path fill-rule="evenodd" clip-rule="evenodd" d="M279.049 266.082C279.148 268.848 279.152 268.878 281.729 269.091C284.924 269.356 288.124 269.566 291.322 269.794C298.132 270.282 304.945 270.725 311.751 271.263C317.683 271.73 320.515 274.211 321.523 280.195C322.433 285.599 323.067 291.052 323.696 296.498C325.132 308.935 326.489 321.38 327.881 333.822C328.974 343.59 330.062 353.358 331.169 363.124C332.556 375.358 333.971 387.588 335.354 399.822C336.098 406.401 337.173 415.502 338.581 427.123H194.937C193.74 415.033 193.254 404.328 193.48 395.008C193.879 378.549 194.935 362.116 196.756 345.763C199.012 325.508 201.799 305.312 206.938 285.532C208.292 280.323 209.799 275.155 212.043 270.243C212.686 268.837 213.351 267.443 214.418 266.261C215.68 264.864 217.104 264.121 219.051 264.28C225.745 264.825 232.444 265.304 239.142 265.799C244.093 266.165 249.048 266.494 253.997 266.893C255.407 267.007 256.18 266.702 255.991 265.073C255.86 263.946 255.929 262.797 255.909 261.658C255.561 260.385 255.151 260.292 255.991 260.33C262.253 260.61 269.769 259.436 276.025 259.62C277.047 259.649 278.091 259.678 278.883 260.495C278.937 262.357 278.982 264.22 279.049 266.082Z" fill="#F08628"/>
<path fill-rule="evenodd" clip-rule="evenodd" d="M110.231 275.496C109.111 275.553 108.829 276.168 108.963 277.139C109.117 278.261 109.128 279.431 109.47 280.493C110.886 284.906 108.458 287.815 105.574 290.45C101.57 294.108 96.6124 295.956 91.4247 297.015C85.6398 298.195 79.761 298.487 73.9323 297.178C70.3502 296.373 67.0991 294.875 64.6679 291.955C63.7928 290.904 62.8914 289.786 62.9279 288.415C62.9894 286.083 61.9735 283.984 61.7655 281.753C61.6106 280.086 60.9832 279.587 59.4443 279.806C58.9475 279.876 58.4221 279.745 57.9099 279.705C58.0837 279.596 58.245 279.424 58.4318 279.388C61.8128 278.735 61.9422 278.724 61.5638 275.326C60.8676 269.072 60.8266 262.784 60.3793 256.518C60.2294 254.42 60.2374 254.362 57.9373 254.348C50.4979 254.303 43.0584 254.296 35.619 254.295C34.2698 254.294 32.9656 254.159 31.6455 253.819C27.7904 252.823 25.696 250.32 25.6157 246.304C25.5598 243.513 25.5991 240.72 25.5957 237.928C25.5803 225.727 25.5695 213.525 25.5461 201.324C25.5404 198.387 25.5558 198.239 22.7429 197.592C16.5484 196.168 12.8484 190.072 13.6483 182.77C13.9879 179.67 14.7867 176.924 17.0943 174.726C17.3586 174.474 17.39 173.978 17.529 173.595C18.6024 172.637 19.6844 173.387 20.7419 173.61C25.6555 174.648 30.1601 173.661 34.3479 170.966C35.823 170.016 36.6281 168.562 37.2121 167.019C37.9494 165.072 39.2342 164.094 41.2831 163.734C45.6429 162.966 49.4808 160.999 52.9125 158.215C55.4708 156.139 57.4251 153.622 58.1413 150.37C58.7777 147.483 60.4511 145.939 63.3067 145.355C69.7155 144.043 72.7364 139.108 75.2718 133.777C76.3424 131.525 75.2023 129.074 75.5533 126.725C76.6495 125.01 78.4255 125.37 80.0043 125.36C86.7651 125.315 102.406 125.709 103.726 125.706C113.657 125.689 123.587 125.668 133.518 125.643C135.07 125.639 136.579 125.818 138.116 126.134C142.424 127.02 144.189 128.809 144.698 133.896C145.085 137.775 145.306 141.71 145.457 145.628C145.696 151.812 146.02 157.987 146.626 164.151C146.978 167.74 146.912 171.36 147.162 174.968C147.46 179.283 147.769 183.614 147.974 187.944C148.258 193.915 148.552 199.885 149.082 205.846C149.447 209.95 149.527 214.091 149.699 218.21C149.932 223.781 150.355 229.348 150.647 234.91C150.857 238.932 150.847 242.957 151.096 246.97C151.38 251.532 147.842 255.139 142.982 255.049C132.433 254.853 121.88 254.946 111.328 254.957C110.246 254.958 109.02 254.537 108.14 255.62C99.5261 255.849 90.9124 256.051 82.3751 255.344C90.3461 259.913 98.7142 263.838 106.978 267.967C107.629 268.292 108.245 268.653 108.759 269.173C108.78 269.581 108.817 269.989 108.821 270.396C108.865 274.742 108.863 274.742 113.22 274.941C112.316 275.613 111.244 275.444 110.231 275.496Z" fill="#ECCDB3"/>
<path fill-rule="evenodd" clip-rule="evenodd" d="M256.774 260.942C256.269 260.892 255.509 261.648 255.509 259.88C260.824 256.794 266.787 255.423 271.623 253.603C268.6 253.883 264.697 254.578 260.744 254.511C258.687 254.476 256.873 254.88 255.307 256.236C254.82 255.068 254.673 253.975 252.873 253.603C235.344 249.97 222.548 239.808 213.499 224.583C209.447 217.767 206.91 210.379 205.062 202.718C206.348 201.777 206.382 201.714 207.97 202.6C212.07 204.891 216.371 206.422 221.069 207.077C229.456 208.245 236.892 205.888 243.516 201.054C251.823 194.993 256.116 186.369 256.204 176.273C256.294 165.903 252.212 156.938 244.031 150.18C237.821 145.049 230.72 142.456 222.601 142.576C221.129 142.598 219.031 143.64 218.19 141.214C220.894 138.121 223.597 135.028 226.301 131.935C226.721 130.002 228.469 129.268 229.781 128.184C236.116 122.948 243.182 119.081 251.169 116.987C252.369 116.953 253.167 117.349 253.173 118.729C253.214 128.442 258.389 135.891 264.567 142.48C280.004 158.947 298.728 169.962 320.873 174.937C325.044 175.874 329.297 175.567 333.483 176.142C336.597 177.721 339.176 179.906 341.058 182.878C344.808 190.256 343.741 197.19 337.972 203.008C336.514 204.479 334.974 205.857 333.334 207.118C331.976 207.52 331.295 206.386 330.421 205.766C327.461 203.672 324.11 203.671 321.287 205.769C319.162 207.348 317.607 210.884 319.718 214.033C320.049 214.526 320.324 215.128 319.981 215.771C316.557 222.381 312.736 228.705 307.68 234.251C300.517 242.107 292.06 247.981 282.043 251.541C278.503 252.799 279.102 252.516 278.985 255.859C278.931 257.404 278.916 258.949 278.883 260.495C271.506 260.3 264.162 261.685 256.774 260.942Z" fill="#C7A07E"/>
<path fill-rule="evenodd" clip-rule="evenodd" d="M333.676 176.702C321.51 177.144 310.298 173.581 299.43 168.55C289.646 164.02 280.658 158.29 272.466 151.242C265.436 145.195 259.208 138.569 255.12 130.129C253.342 126.46 252.032 122.702 252.483 118.547C252.625 117.243 251.682 117.687 251.084 117.541C252.564 115.148 253.183 112.129 256.031 110.732C259.191 107.379 263.292 106.142 267.681 105.778C278.553 104.876 288.709 107.721 298.625 111.837C308.606 115.979 317.771 121.493 326.232 128.172C334.558 134.745 341.871 142.219 346.77 151.812C348.912 156.005 349.636 160.397 349.183 165.016C348.953 167.348 347.759 169.294 346.32 171.083C345.676 171.883 344.764 172.453 344.301 173.414C341.294 176.24 337.745 177.314 333.676 176.702Z" fill="#D5CEC7"/>
<path fill-rule="evenodd" clip-rule="evenodd" d="M75.9003 127.512C77.2022 130.743 76.7931 133.77 74.8206 136.612C74.4087 137.206 73.9198 137.76 73.5928 138.398C71.3593 142.758 67.7293 145.302 63.0299 146.219C60.5366 146.705 59.6022 147.989 59.0068 150.414C57.5983 156.154 53.2858 159.569 48.3516 162.243C45.8885 163.578 43.1884 164.327 40.4159 164.736C39.5596 164.862 38.8907 164.946 38.5642 165.976C37.5597 169.144 35.7945 171.574 32.5423 172.992C28.6092 174.708 24.6893 175.424 20.5021 174.394C19.5055 174.149 18.5193 173.862 17.529 173.595C15.5121 172.547 13.5823 171.437 11.8963 169.821C7.69032 165.788 6.20722 160.817 6.47957 155.197C6.55991 153.535 6.28699 152.287 4.86998 151.183C0.356874 147.666 -0.588936 142.787 0.303886 137.494C1.65366 129.496 5.77192 123.284 12.9322 119.292C14.1281 118.625 14.7981 117.86 15.0488 116.506C16.104 110.81 24.0312 105.229 29.4895 105.03C36.4971 104.776 42.4944 106.919 47.3283 112.087C49.2119 113.213 51.0756 113.281 53.2031 112.545C61.6454 109.623 72.0407 115.713 75.465 124.246C75.9134 125.363 75.2553 126.5 75.9003 127.512Z" fill="#6E4E3F"/>
<path fill-rule="evenodd" clip-rule="evenodd" d="M332.899 207.009C333.058 205.964 333.946 205.597 334.648 205C337.386 202.672 340.069 200.303 341.374 196.759C342.946 192.493 342.931 188.339 340.913 184.228C340.688 183.77 340.537 183.276 340.351 182.799C340.471 181.372 341.73 181.096 342.688 180.654C346.629 178.836 350.158 176.41 353.46 173.625C357.797 173.374 362.11 173.957 366.427 174.032C377.898 174.235 389.375 174.108 400.85 174.103C401.674 174.103 402.565 174.219 403.308 173.953C404.699 173.456 405.751 174.078 406.778 174.74C408.29 175.715 408.427 176.694 407.16 178.006C405.006 180.237 402.929 182.598 400.502 184.498C396.828 187.374 393.773 190.887 390.207 193.878C385.785 197.588 381.788 201.801 377.534 205.718C371.085 211.657 364.552 217.506 358.096 223.438C355.209 226.091 352.435 228.86 349.493 231.465C344.857 235.572 340.459 239.946 335.961 244.208C335.811 244.349 335.671 244.503 335.519 244.643C334.419 245.646 333.186 246.618 331.654 246.015C329.92 245.331 329.411 243.708 329.369 241.951C329.348 241.021 329.235 240.062 329.407 239.163C330.295 234.548 329.855 229.888 329.944 225.249C329.997 222.461 330.047 219.684 330.507 216.929C330.381 216.385 330.503 215.844 330.856 215.473C333.178 213.037 332.604 209.921 332.899 207.009Z" fill="#D5CEC7"/>
<path fill-rule="evenodd" clip-rule="evenodd" d="M223.211 141.719C230.608 141.734 237.228 143.972 243.092 148.4C251.173 154.503 255.737 162.592 256.783 172.733C258.319 187.611 249.383 199.752 239.347 204.649C228.412 209.985 217.825 209.138 207.393 203.289C206.721 202.912 206.137 201.636 205.062 202.718C204.482 201.236 203.216 200.398 202.113 199.351C196.67 194.185 193.048 187.92 191.489 180.552C189.547 171.37 191.57 162.899 196.85 155.324C201.142 149.167 206.923 144.816 214.373 142.951C215.722 142.613 217.238 142.491 218.19 141.215C219.738 142.535 221.555 141.716 223.211 141.719Z" fill="#FCEAEB"/>
<path fill-rule="evenodd" clip-rule="evenodd" d="M71.6225 119.491C67.0786 114.205 59.4911 110.853 52.3519 113.542C49.5475 114.599 49.5373 114.572 47.3283 112.087C48.8769 112.021 49.6085 110.731 50.5116 109.813C54.3068 105.954 58.9692 104.478 64.2492 104.419C69.4158 104.36 73.3751 106.736 76.5778 110.514C77.5731 111.689 78.3993 112.094 79.961 111.756C89.4476 109.706 95.6962 113.076 99.3763 122.085C99.5841 122.593 99.9797 123.844 100.563 125.838C99.5448 125.791 98.6858 125.791 97.9861 125.838C91.5848 126.263 85.1744 126.158 78.7668 126.219C78.0443 126.226 77.3156 126.218 76.6034 126.313C75.9385 126.403 75.992 127.026 75.9003 127.512C74.7317 124.702 73.668 121.87 71.6225 119.491Z" fill="#93634B"/>
<path fill-rule="evenodd" clip-rule="evenodd" d="M256.031 110.732C254.8 112.306 253.496 113.874 253.011 115.844C252.73 116.989 251.544 116.786 251.084 117.541C246.179 119.343 241.335 121.243 236.856 124.021C233.093 126.354 229.786 129.254 226.301 131.935C222.363 123.872 227.733 114.573 233.818 111.269C240.514 107.632 247.273 107.023 254.277 110.187C254.844 110.444 255.385 110.745 256.031 110.732Z" fill="#E4D9CE"/>
<path fill-rule="evenodd" clip-rule="evenodd" d="M108.759 269.173C107.884 269.523 107.162 269.109 106.42 268.727C97.8865 264.339 89.3486 259.958 80.8175 255.564C80.5577 255.431 80.3549 255.187 79.9503 254.847C80.8562 254.181 81.7998 254.431 82.6151 254.495C90.0329 255.075 97.4655 254.834 104.891 254.971C106.007 254.992 107.186 254.763 108.14 255.621C108.346 260.138 108.553 264.655 108.759 269.173Z" fill="#A8734F"/>
<path fill-rule="evenodd" clip-rule="evenodd" d="M332.899 207.009C334.657 210.933 333.306 214.106 330.507 216.929C330.307 216.99 330.108 217.051 329.908 217.111C329.724 217.286 329.508 217.398 329.259 217.448C325.81 218.865 322.743 218.164 319.981 215.771C316.698 211.453 317.493 208.761 319.745 206.012C322.436 202.729 327.475 202.439 330.851 205.159C331.567 205.735 332.218 206.39 332.899 207.009Z" fill="#F9B436"/>
<path fill-rule="evenodd" clip-rule="evenodd" d="M353.46 173.624C353.471 174.853 352.512 175.349 351.717 175.996C349.144 178.092 346.313 179.753 343.319 181.164C342.299 181.644 341.34 182.251 340.352 182.799C338.514 180.341 335.953 178.677 333.676 176.702C337.373 176.11 340.885 174.917 344.301 173.414C347.354 173.484 350.407 173.554 353.46 173.624Z" fill="#A89C90"/>
<path fill-rule="evenodd" clip-rule="evenodd" d="M255.307 256.236C255.066 255.537 254.823 254.942 254.328 254.399C254.209 254.269 253.972 254.075 253.617 253.817C263.261 253.116 269.999 252.882 273.832 253.113C271.28 254.773 268.701 255.418 266.25 256.259C262.678 257.484 259.31 259.339 255.51 259.88" fill="#785C46"/>
<path fill-rule="evenodd" clip-rule="evenodd" d="M329.259 217.448C329.391 217.171 329.608 217.059 329.909 217.111C329.774 217.382 329.57 217.519 329.259 217.448Z" fill="#D5CEC7"/>
<path fill-rule="evenodd" clip-rule="evenodd" d="M296.449 344.705C292.731 347.377 289.346 349.868 285.895 352.264C284.381 353.316 283.033 355.273 281.29 355.163C279.467 355.049 278.787 352.64 277.507 351.328C276.214 350.003 275.08 348.521 273.9 347.088C273.466 346.56 272.733 346.085 273.219 345.235C273.643 344.493 274.408 344.529 275.136 344.518C278.127 344.473 281.12 344.338 284.108 344.4C287.313 344.467 290.484 344.129 293.667 343.915C294.459 343.862 295.307 343.76 296.449 344.705Z" fill="#D3BEAD"/>
<path fill-rule="evenodd" clip-rule="evenodd" d="M278.936 331.065C278.744 331.406 278.558 331.91 278.229 332.291C276.068 334.796 273.866 337.267 271.698 339.765C270.545 341.093 269.41 340.949 268.265 339.792C265.653 337.151 263.035 334.514 260.451 331.845C259.736 331.105 260.068 330.301 260.95 330.285C266.517 330.185 272.071 329.512 277.644 329.874C278.205 329.911 278.922 330.064 278.936 331.065Z" fill="#D3BEAD"/>
<path fill-rule="evenodd" clip-rule="evenodd" d="M244.284 344.714H266.158C266.388 345.205 265.979 345.482 265.688 345.706C262.252 348.356 258.797 350.98 255.349 353.615C254.589 354.196 253.802 354.845 252.912 353.908C250.174 351.027 247.47 348.115 244.284 344.714Z" fill="#D3BEAC"/>
<path fill-rule="evenodd" clip-rule="evenodd" d="M244.588 282.774C250.748 283.327 256.908 283.88 263.067 284.432C263.167 284.663 263.266 284.893 263.365 285.123C260.125 288.461 256.884 291.799 253.418 295.37C250.219 291.255 247.225 287.405 244.232 283.556C244.351 283.296 244.47 283.035 244.588 282.774Z" fill="#D3BEAD"/>
<path fill-rule="evenodd" clip-rule="evenodd" d="M296.378 316.034C293.533 319.418 290.518 322.648 287.382 325.773C286.608 326.544 285.94 326.459 285.334 325.615C283.405 322.924 281.417 320.272 279.597 317.51C278.696 316.142 279.156 315.213 280.637 315.195C285.78 315.134 290.924 315.172 296.067 315.172C296.171 315.459 296.274 315.746 296.378 316.034Z" fill="#D3BEAC"/>
<path fill-rule="evenodd" clip-rule="evenodd" d="M235.227 342.633C235.186 343.772 234.691 344.011 234.291 344.297C231.357 346.386 228.439 348.497 225.464 350.525C223.59 351.802 223.187 351.642 221.461 350.208C219.135 348.274 217.554 345.71 215.572 343.488C214.804 342.626 215.131 341.961 216.35 341.923C218.096 341.868 219.855 341.898 221.595 342.046C226.079 342.429 230.577 342.59 235.227 342.633Z" fill="#D3BEAC"/>
<path fill-rule="evenodd" clip-rule="evenodd" d="M282.921 298.746C279.382 302.294 276.187 305.484 273.011 308.692C272.305 309.404 271.675 309.606 271.01 308.671C268.758 305.505 266.502 302.343 264.212 299.13C266.634 298.281 278.088 298.021 282.921 298.746Z" fill="#D3BEAD"/>
<path fill-rule="evenodd" clip-rule="evenodd" d="M231.105 329.499C232.111 328.818 232.87 328.912 233.552 329.001C238.183 329.606 242.842 329.381 247.487 329.577C248.077 329.602 248.835 329.422 249.057 330.194C249.204 330.708 248.805 331.188 248.468 331.57C246.344 333.972 244.201 336.356 242.061 338.744C241.335 339.554 240.546 339.849 239.694 338.934C236.831 335.862 233.489 333.217 231.105 329.499Z" fill="#D3BEAC"/>
<path fill-rule="evenodd" clip-rule="evenodd" d="M230.222 297.229C236.224 297.063 241.994 297.359 247.672 297.982C248.033 298.943 247.447 299.337 247.042 299.749C244.95 301.876 242.855 304.003 240.706 306.074C239.154 307.569 238.878 307.522 237.494 306.033C235.673 304.075 233.851 302.117 232.02 300.168C231.32 299.422 230.57 298.716 230.222 297.229Z" fill="#D3BEAD"/>
<path fill-rule="evenodd" clip-rule="evenodd" d="M216.699 312.828C221.762 313.703 226.651 313.174 231.444 313.932C231.935 314.009 232.551 313.915 232.703 314.561C232.84 315.14 232.395 315.528 232 315.83C229.694 317.597 227.802 319.797 225.7 321.777C224.217 323.174 223.844 323.171 222.397 321.664C220.256 319.432 218.192 317.126 216.086 314.859C215.735 314.482 215.231 314.11 215.421 313.569C215.658 312.894 216.324 312.804 216.699 312.828Z" fill="#D3BEAC"/>
<path fill-rule="evenodd" clip-rule="evenodd" d="M246.447 314.693C252.235 315.329 258.052 315.094 263.687 315.189C264.219 316.321 263.605 316.712 263.201 317.119C261.019 319.318 258.812 321.493 256.604 323.666C256.086 324.175 255.491 324.806 254.76 324.107C251.808 321.287 248.898 318.423 245.973 315.575C246.131 315.281 246.289 314.987 246.447 314.693Z" fill="#D3BEAD"/>
<path fill-rule="evenodd" clip-rule="evenodd" d="M280.749 285.344C285.755 285.344 290.172 285.335 294.588 285.35C295.795 285.355 296.07 286.066 295.469 286.97C293.525 289.897 291.512 292.779 289.51 295.667C288.945 296.48 288.306 296.381 287.791 295.626C285.586 292.398 283.048 289.395 280.749 285.344Z" fill="#D3BEAD"/>
<path fill-rule="evenodd" clip-rule="evenodd" d="M303.636 310.038C300.592 306.157 298.118 302.712 295.666 298.695C300.297 298.36 304.403 297.454 308.882 298.77C307.203 302.376 305.572 305.879 303.636 310.038Z" fill="#D3BEAC"/>
<path fill-rule="evenodd" clip-rule="evenodd" d="M218.373 278.328C221.355 278.915 224.107 280.012 226.891 281C227.566 281.24 227.864 281.738 227.636 282.459C226.366 286.465 225.091 290.469 223.754 294.678C222.255 292.768 218.762 281.958 218.373 278.328Z" fill="#D3BEAC"/>
<path fill-rule="evenodd" clip-rule="evenodd" d="M291.187 329.701H305.202C303.775 333.178 302.1 336.17 300.235 339.062C299.9 339.581 299.276 339.568 298.904 339.139C296.377 336.224 293.52 333.568 291.187 329.701Z" fill="#D3BDAB"/>
<path fill-rule="evenodd" clip-rule="evenodd" d="M308.397 286.876C311.84 285.442 315.223 283.887 319.451 282.651C317.862 287.717 316.593 292.182 314.833 296.597C313 295.128 310.015 290.578 308.397 286.876Z" fill="#D3BEAC"/>
<path fill-rule="evenodd" clip-rule="evenodd" d="M315.243 342.612C313.271 345.801 311.062 348.09 309.159 350.605C308.431 351.568 307.604 351.468 306.805 350.677C304.975 348.865 303.11 347.083 301.349 345.205C300.476 344.275 300.795 343.403 302.107 343.368C306.307 343.256 310.46 342.249 315.243 342.612Z" fill="#D3BEAC"/>
<path fill-rule="evenodd" clip-rule="evenodd" d="M313.437 325.737C310.732 323.004 308.543 320.096 306.114 317.03C307.98 315.46 310.153 315.696 312.046 315.364C317.047 314.484 317.081 314.602 315.703 319.397C315.114 321.447 314.694 323.564 313.437 325.737Z" fill="#D3BDAC"/>
<path fill-rule="evenodd" clip-rule="evenodd" d="M69.4233 222.015C71.8801 221.982 75.0224 220.071 76.7436 215.989C77.1447 215.039 77.404 214.016 77.8991 213.121C78.7914 211.508 80.2135 211.027 81.8464 211.628C83.3802 212.192 84.1295 213.604 83.8326 215.37C82.8281 221.334 77.731 226.596 71.6607 228.111C61.2916 230.699 51.8329 223.048 51.2102 212.601C51.0865 210.527 51.368 208.24 52.4374 206.295C53.7166 203.968 56.1415 203.628 57.779 205.412C58.3892 206.077 58.5362 206.841 58.5374 207.698C58.5379 208.546 58.208 209.312 58.0485 210.117C56.8395 216.223 61.4443 221.982 69.4233 222.015Z" fill="#DA9CB5"/>
<path fill-rule="evenodd" clip-rule="evenodd" d="M101.082 154.128C101.107 154.307 101.236 154.816 101.232 155.323C101.227 155.867 100.924 156.317 100.423 156.547C99.8022 156.833 99.1398 156.725 98.7136 156.244C98.3193 155.798 98.0953 155.189 97.8435 154.63C95.3014 148.982 89.2538 147.394 83.9361 149.3C79.6546 150.835 76.5444 153.771 74.7923 158.036C74.2907 159.257 74.0758 160.837 72.1794 160.43C70.9876 160.174 70.9018 158.927 71.8222 156.653C75.2411 148.209 84.6267 143.418 92.7505 145.97C96.597 147.178 99.9986 150.414 101.082 154.128Z" fill="#705040"/>
<path fill-rule="evenodd" clip-rule="evenodd" d="M26.2534 184.642C26.2534 186.087 26.3485 187.54 26.2277 188.975C26.0933 190.576 25.2067 191.151 23.7014 190.832C20.9392 190.245 18.0767 186.936 18.2037 184.477C18.3496 181.647 21.0258 178.933 24.0467 178.55C25.5993 178.353 26.1229 178.726 26.2095 180.307C26.2881 181.748 26.226 183.196 26.226 184.642H26.2534Z" fill="#C7A07F"/>
<path fill-rule="evenodd" clip-rule="evenodd" d="M113.736 198.69C113.61 199.266 113.314 199.606 112.696 199.526C112.215 199.464 111.967 199.095 111.992 198.695C112.028 198.139 112.391 197.798 113.008 197.874C113.495 197.935 113.628 198.312 113.736 198.69Z" fill="#E4935A"/>
<path fill-rule="evenodd" clip-rule="evenodd" d="M122.801 207.524C122.645 208.038 122.284 208.355 121.715 208.262C121.296 208.193 120.967 207.844 121.015 207.431C121.079 206.87 121.525 206.564 122.083 206.662C122.482 206.731 122.759 207.048 122.801 207.524Z" fill="#E5965E"/>
<path fill-rule="evenodd" clip-rule="evenodd" d="M51.4876 191.877C52.0448 191.933 52.4926 192.309 52.5889 192.955C52.6533 193.389 52.3074 193.745 51.8807 193.685C51.2386 193.595 50.8232 193.141 50.8004 192.472C50.7902 192.167 51.0374 191.937 51.4876 191.877Z" fill="#E38D53"/>
<path fill-rule="evenodd" clip-rule="evenodd" d="M57.7597 187.783C57.4486 188.389 57.0976 188.536 56.6617 188.388C56.0555 188.181 55.9353 187.702 56.1376 187.163C56.2521 186.86 56.5928 186.736 56.8993 186.821C57.4571 186.977 57.6588 187.419 57.7597 187.783Z" fill="#E38F55"/>
<path fill-rule="evenodd" clip-rule="evenodd" d="M111.981 206.657C112.053 206.16 112.371 205.904 112.827 206.047C113.066 206.121 113.36 206.438 113.391 206.677C113.451 207.13 113.112 207.473 112.67 207.487C112.183 207.501 111.996 207.115 111.981 206.657Z" fill="#E59962"/>
<path fill-rule="evenodd" clip-rule="evenodd" d="M116.71 202.747C116.695 203.201 116.492 203.555 116.029 203.58C115.603 203.603 115.239 203.366 115.176 202.904C115.114 202.445 115.336 202.112 115.832 202.11C116.252 202.107 116.625 202.248 116.71 202.747Z" fill="#E38B50"/>
<path fill-rule="evenodd" clip-rule="evenodd" d="M110.7 202.366C110.673 202.782 110.613 203.2 110.076 203.212C109.631 203.221 109.273 202.982 109.221 202.533C109.171 202.1 109.401 201.736 109.874 201.691C110.33 201.647 110.625 201.893 110.7 202.366Z" fill="#E38D51"/>
<path fill-rule="evenodd" clip-rule="evenodd" d="M61.2393 197.42C60.91 197.413 60.5835 197.211 60.5242 196.781C60.4633 196.339 60.7174 196.015 61.1743 196.051C61.5891 196.083 61.866 196.397 61.878 196.824C61.8865 197.142 61.6666 197.35 61.2393 197.42Z" fill="#E59A65"/>
<path fill-rule="evenodd" clip-rule="evenodd" d="M57.0486 190.953C57.3922 190.99 57.6127 191.194 57.6218 191.521C57.6355 192.047 57.2497 192.168 56.8224 192.16C56.4771 192.154 56.2629 191.921 56.2532 191.595C56.2378 191.069 56.6202 190.965 57.0486 190.953Z" fill="#E49157"/>
<path fill-rule="evenodd" clip-rule="evenodd" d="M61.6462 190.846C61.2981 190.812 61.0634 190.641 61.1226 190.272C61.175 189.942 61.4024 189.721 61.7533 189.841C61.9083 189.893 62.0701 190.088 62.1208 190.251C62.2405 190.637 61.9744 190.782 61.6462 190.846Z" fill="#E18141"/>
<path fill-rule="evenodd" clip-rule="evenodd" d="M287.704 216.119C287.711 223.7 282.706 229.925 275.353 231.996C268.945 233.801 260.916 230.81 256.98 224.264C256.613 223.654 256.366 222.946 256.187 222.252C255.684 220.305 256.414 218.512 257.955 217.731C259.777 216.809 261.897 217.345 263.157 219.083C263.458 219.497 263.645 219.993 263.911 220.435C266.333 224.458 271.696 225.952 275.536 223.678C279.848 221.126 281.27 215.846 278.778 211.599C278.36 210.887 277.825 210.242 277.436 209.516C276.365 207.522 276.656 205.736 278.189 204.542C279.527 203.499 281.953 203.597 283.328 204.904C286.08 207.518 287.289 210.875 287.696 214.568C287.752 215.08 287.704 215.601 287.704 216.119Z" fill="#E43F4D"/>
<path fill-rule="evenodd" clip-rule="evenodd" d="M335.511 191.52C335.542 194.946 331.389 199.483 328.334 199.63C326.206 199.733 325.262 199.018 325.656 196.97C326.253 193.869 326.907 190.69 328.187 187.837C329.66 184.558 331.816 184.696 334.045 187.465C335.015 188.67 335.277 190.258 335.511 191.52Z" fill="#A78466"/>
<path fill-rule="evenodd" clip-rule="evenodd" d="M261.981 174.758C261.959 174.337 262.305 174.223 262.573 174.221C265.347 174.198 268.122 174.207 270.989 174.207C269.188 175.628 264.732 175.865 261.981 174.758Z" fill="#8B6C53"/>
<path fill-rule="evenodd" clip-rule="evenodd" d="M262.059 177.935C265.089 178.445 268.119 178.956 271.149 179.466C269.191 180.39 265.024 179.775 262.059 177.935Z" fill="#886951"/>
<path fill-rule="evenodd" clip-rule="evenodd" d="M270.545 169.561C267.47 170.977 264.267 171.861 260.856 171.869C263.924 170.422 267.213 169.901 270.545 169.561Z" fill="#876950"/>
<path fill-rule="evenodd" clip-rule="evenodd" d="M217.969 146.265C234.302 143.75 248.217 153.711 252.011 168.79C255.898 184.239 246.605 201.203 228.371 203.78C220.241 204.928 212.835 202.531 206.326 197.462C204.577 196.1 202.758 194.622 202.844 192.291C202.995 188.161 203.8 183.896 203.784 179.761C203.039 178.986 203.246 178.056 203.35 177.138C204.437 167.623 207.264 158.654 211.788 150.219C212.271 149.32 212.68 148.341 213.77 147.972C214.877 146.687 216.474 146.495 217.969 146.265Z" fill="#C7A07E"/>
<path fill-rule="evenodd" clip-rule="evenodd" d="M205.476 169.757C204.811 173.071 204.343 176.425 203.785 179.76C203.785 181.338 203.785 191.057 203.785 195.102C200.468 192.808 198.452 188.532 197.22 185.472C194.209 177.993 194.151 170.318 197.195 162.86C200.136 155.653 205.548 150.713 212.691 147.671C213.115 147.491 213.487 147.597 213.77 147.972C210.153 154.909 207.024 162.04 205.476 169.757Z" fill="#000091"/>
<path fill-rule="evenodd" clip-rule="evenodd" d="M81.0518 174.198C81.3605 173.475 81.413 172.682 82.3707 172.289C89.3955 169.4 96.4589 168.304 103.624 171.738C108.767 174.203 110.277 178.741 107.71 183.847C105.978 187.29 103.231 189.787 99.8756 191.518C95.356 193.85 90.6217 195.548 85.387 195.102C84.2768 194.668 84.0753 193.614 83.7113 192.664C81.8624 187.833 80.9753 182.788 80.3887 177.682C80.2508 176.478 80.0329 175.205 81.0518 174.198Z" fill="#0A0908"/>
<path fill-rule="evenodd" clip-rule="evenodd" d="M85.2801 178.141C85.5418 179.447 85.4669 180.197 84.6147 180.426C83.7384 180.661 83.3263 179.979 83.1135 179.263C82.8535 178.389 82.6278 177.498 82.4843 176.598C82.3969 176.051 82.7208 175.586 83.2733 175.45C83.8196 175.316 84.3148 175.586 84.5297 176.077C84.8954 176.911 85.1563 177.791 85.2801 178.141Z" fill="#E9EBEB"/>
<path fill-rule="evenodd" clip-rule="evenodd" d="M81.0519 174.198C81.2259 181.429 82.9198 188.346 85.3871 195.103C83.5275 195.677 81.6803 195.273 79.8944 194.844C77.7909 194.339 75.7173 193.659 73.6873 192.903C68.6685 191.035 67.2275 186.905 69.8433 182.251C71.1905 179.856 73.1268 178.051 75.3217 176.476C76.3235 175.758 77.2897 174.981 78.341 174.344C79.173 173.839 80.087 173.015 81.0519 174.198Z" fill="#FEFEFE"/>
<path fill-rule="evenodd" clip-rule="evenodd" d="M86.152 190.939C85.5352 188.817 84.7957 186.375 84.1304 183.912C83.9764 183.343 84.0174 182.699 84.0852 182.103C84.1105 181.879 84.4329 181.617 84.68 181.506C85.1404 181.299 85.5734 181.608 85.6321 181.988C86.1309 185.239 87.3011 188.29 88.3509 191.379C88.5015 191.821 88.2968 192.234 87.8618 192.336C86.9927 192.542 86.5538 191.989 86.152 190.939Z" fill="#E3DFDC"/>
<path fill-rule="evenodd" clip-rule="evenodd" d="M241.135 166.604C241.7 166.992 242.28 167.343 242.987 167.398C244.059 167.707 245.168 167.965 245.528 169.251C246.764 170.325 248.108 171.297 249.214 172.492C251.861 175.352 251.679 178.59 248.717 181.13C245.458 183.924 241.453 184.859 237.32 185.321C236.101 185.457 234.857 185.364 233.624 185.376C232.217 182.828 232.485 179.965 232.193 177.23C231.855 174.061 232.386 170.835 231.685 167.664C231.458 166.634 231.682 165.604 232.335 164.717C233.302 164.108 234.219 164.033 235.045 164.963C235.969 165.56 237.031 165.42 238.048 165.523C239.299 165.248 240.274 165.763 241.135 166.604Z" fill="#FEFEFE"/>
<path fill-rule="evenodd" clip-rule="evenodd" d="M232.606 164.954C232.839 169.7 232.981 174.452 233.346 179.187C233.506 181.252 233.574 183.311 233.624 185.376C230.362 185.596 227.193 185.333 224.307 183.589C223.384 182.383 223.047 180.926 223.022 179.5C222.946 175.254 222.234 171.058 222.168 166.815C222.309 166.223 222.555 165.762 223.294 165.942C224.076 165.474 225.115 165.614 225.789 164.89C226.801 164.41 227.821 164.09 228.885 164.751C229.808 164.742 230.731 164.734 231.654 164.726C232.037 164.527 232.355 164.603 232.606 164.954Z" fill="#207CBC"/>
<path fill-rule="evenodd" clip-rule="evenodd" d="M222.443 166.643C223.863 168.396 223.279 170.629 223.516 172.553C223.962 176.189 223.986 179.91 224.308 183.589C220.805 182.889 218.597 180.432 216.705 177.714C215.3 175.695 215.435 173.431 216.603 171.27C217.294 169.992 218.211 168.886 219.309 167.932C220.058 166.782 220.922 165.912 222.443 166.643Z" fill="#2887C8"/>
<path fill-rule="evenodd" clip-rule="evenodd" d="M222.443 166.643C221.398 167.073 220.354 167.503 219.309 167.932C218.207 165.585 217.513 163.092 216.752 160.626C216.321 159.23 217.734 157.47 219.167 157.523C219.938 157.552 220.159 158.213 220.387 158.762C221.38 161.146 222.329 163.548 223.295 165.943C223.011 166.176 222.727 166.41 222.443 166.643Z" fill="#324998"/>
<path fill-rule="evenodd" clip-rule="evenodd" d="M228.885 164.75C227.854 164.83 226.859 165.712 225.788 164.889C225.213 162.723 224.654 160.551 224.053 158.392C223.783 157.419 223.642 156.558 224.925 156.241C226.409 155.874 227.715 156.309 227.923 157.482C228.347 159.887 228.576 162.326 228.885 164.75Z" fill="#334997"/>
<path fill-rule="evenodd" clip-rule="evenodd" d="M232.606 164.954C232.288 164.878 231.972 164.802 231.654 164.726C231.887 162.385 232.185 160.05 232.331 157.704C232.432 156.086 233.418 156.018 234.645 156.013C236.125 156.008 236.263 156.844 236.166 158.024C235.973 160.37 235.715 162.699 235.043 164.963C234.232 164.96 233.419 164.957 232.606 164.954Z" fill="#314897"/>
<path fill-rule="evenodd" clip-rule="evenodd" d="M241.135 166.604C240.017 166.497 238.957 166.224 238.048 165.523C238.876 163.867 239.718 162.217 240.527 160.551C240.992 159.595 241.609 159.056 242.722 159.524C243.967 160.047 243.65 160.879 243.227 161.8C242.498 163.387 241.829 165.001 241.135 166.604Z" fill="#374B99"/>
<path fill-rule="evenodd" clip-rule="evenodd" d="M245.529 169.251C244.483 168.906 243.681 168.226 242.987 167.398C243.883 165.935 244.779 164.472 245.655 163.042C246.305 163.239 246.589 163.662 246.882 164.083C248.457 166.351 248.456 166.396 246.429 168.413C246.139 168.702 245.829 168.972 245.529 169.251Z" fill="#394C99"/>
<path fill-rule="evenodd" clip-rule="evenodd" d="M230.691 182.047C229.715 179.968 229.868 177.859 230.239 175.594C231.488 177.081 231.651 178.786 230.691 182.047Z" fill="#FCFDFE"/>
<path fill-rule="evenodd" clip-rule="evenodd" d="M230.442 173.823C229.507 172.285 229.705 171.183 230.152 169.796C231.626 171.06 231.175 172.177 230.442 173.823Z" fill="#F8FAFC"/>
<path fill-rule="evenodd" clip-rule="evenodd" d="M126.949 94.7672C125.044 94.8715 123.508 94.9261 121.976 95.0441C109.001 96.0395 96.3817 94.4305 84.191 89.8125C77.8575 87.4127 72.0072 84.1371 66.8725 79.6878C60.3697 74.0528 55.6663 67.2789 53.9308 58.6976C52.4682 51.4673 53.4129 44.5082 56.3848 37.7992C60.0848 29.4453 65.9893 22.8811 73.1951 17.4375C84.7471 8.71045 97.8979 3.71361 112.077 1.39865C128.069 -1.21258 143.829 -0.324885 159.136 5.39783C166.677 8.2176 173.526 12.1951 179.285 17.8916C192.057 30.5262 194.094 47.3046 184.734 62.6421C180.849 69.0081 175.682 74.1787 169.716 78.5842C163.688 83.0357 157.105 86.4874 150.079 89.0462C148.343 89.678 147.42 90.5851 146.815 92.3183C145.305 96.6474 143.01 100.569 139.97 104.032C138.593 105.602 137.054 106.975 135.169 107.902C131.146 109.882 127.664 108.175 126.784 103.772C126.48 102.247 126.41 100.692 126.559 99.1344C126.686 97.8092 126.796 96.4822 126.949 94.7672Z" fill="white"/>
<path fill-rule="evenodd" clip-rule="evenodd" d="M330.215 96.9372C328.25 95.8005 326.264 94.7026 324.328 93.5215C317.38 89.2824 311.096 84.2719 306.311 77.5948C302.416 72.1581 300.034 66.2064 300.42 59.3715C300.696 54.4624 302.483 50.1287 305.433 46.2464C308.618 42.0535 312.693 38.9175 317.256 36.3672C324.856 32.1196 333.084 29.6953 341.64 28.6144C365.986 25.5394 389.263 29.2036 411.196 40.4177C418.144 43.9707 424.476 48.4485 429.801 54.2197C433.845 58.6029 437.138 63.4521 438.608 69.3367C440.296 76.0964 439.398 82.4584 435.583 88.3549C432.831 92.6093 429.146 95.89 424.895 98.565C417.519 103.207 409.387 105.796 400.863 107.272C385.447 109.94 370.158 109.087 354.976 105.54C353.311 105.15 351.772 105.279 350.138 105.874C344.413 107.959 338.635 109.903 332.884 111.917C331.316 112.467 329.735 112.953 328.065 113.021C326.795 113.072 325.628 112.838 324.684 111.824C323.731 110.8 323.366 109.82 324.158 108.506C325.387 106.472 326.524 104.381 327.685 102.306C328.637 100.601 329.713 98.953 330.215 96.9372Z" fill="white"/>
</svg>
