<svg id="Calque_2" data-name="Calque 2" xmlns="http://www.w3.org/2000/svg" viewBox="0 0 200 200"><defs><style>.cls-1,.cls-2,.cls-3,.cls-4,.cls-6,.cls-7,.cls-9{fill:none;stroke-linecap:round;stroke-linejoin:round;}.cls-1,.cls-9{stroke:#feb620;}.cls-1,.cls-6,.cls-7{stroke-width:4px;}.cls-2,.cls-7{stroke:#26ba99;}.cls-2{stroke-width:2px;}.cls-3{stroke:#d8d8d8;}.cls-3,.cls-9{stroke-width:6px;}.cls-4{stroke:#e1e1e1;stroke-width:3px;}.cls-5{fill:#feb620;}.cls-6{stroke:#136799;}.cls-8{fill:#fff;}.cls-9{stroke-dasharray:2 12;}</style></defs><title>Documents utiles</title><circle class="cls-1" cx="158.23" cy="77.59" r="8.48"/><line class="cls-2" x1="177.71" y1="34.12" x2="177.71" y2="39.84"/><line class="cls-2" x1="183.63" y1="36.57" x2="179.58" y2="40.62"/><line class="cls-2" x1="186.08" y1="42.48" x2="180.35" y2="42.48"/><line class="cls-2" x1="183.63" y1="48.4" x2="179.58" y2="44.35"/><line class="cls-2" x1="177.71" y1="50.85" x2="177.71" y2="45.13"/><line class="cls-2" x1="171.79" y1="48.4" x2="175.84" y2="44.35"/><line class="cls-2" x1="169.34" y1="42.48" x2="175.07" y2="42.48"/><line class="cls-2" x1="171.79" y1="36.57" x2="175.84" y2="40.62"/><circle class="cls-2" cx="177.76" cy="42.48" r="1.59"/><polyline class="cls-3" points="46.66 117.91 17.89 117.91 17.89 15.87 76.72 15.87 95.66 34.01 95.66 82.53"/><line class="cls-4" x1="35.43" y1="87.91" x2="62.93" y2="87.91"/><line class="cls-4" x1="35.43" y1="80.09" x2="81.33" y2="80.09"/><line class="cls-4" x1="35.43" y1="95.73" x2="54.09" y2="95.73"/><circle class="cls-5" cx="46.66" cy="58.46" r="10.47"/><path class="cls-6" d="M74.66,59.7c1.56,0,2.16-1.08,1.33-2.4l-12.46-20c-.82-1.32-2.11-1.29-2.86.08L49.73,57.22A1.54,1.54,0,0,0,51.2,59.7Z"/><polyline class="cls-7" points="76.47 16.35 76.47 34.02 93.81 34.02"/><path class="cls-7" d="M175.41,134.7V110.47a2.84,2.84,0,0,0-2.84-2.83l-48.47,0"/><path class="cls-8" d="M119.05,107.6H117.6a6.44,6.44,0,0,1-3.41-2.06l-4.42-4.64A7.62,7.62,0,0,0,105,98.85H91.1a7.39,7.39,0,0,0-4.75,2.09l-4.49,4.64a7.59,7.59,0,0,1-4.79,2.06H75.64a2.84,2.84,0,0,0-2.84,2.83v68.31a2.85,2.85,0,0,0,2.84,2.84h96.93a2.85,2.85,0,0,0,2.84-2.84V141.53"/><path class="cls-6" d="M119.05,107.6H117.6a6.44,6.44,0,0,1-3.41-2.06l-4.42-4.64A7.62,7.62,0,0,0,105,98.85H91.1a7.39,7.39,0,0,0-4.75,2.09l-4.49,4.64a7.59,7.59,0,0,1-4.79,2.06H75.64a2.84,2.84,0,0,0-2.84,2.83v68.31a2.85,2.85,0,0,0,2.84,2.84h96.93a2.85,2.85,0,0,0,2.84-2.84V141.53"/><path class="cls-8" d="M177,176.31a8.81,8.81,0,0,1-7.65,5.31H78.09c-3.11,0-4.77-2.39-3.68-5.31l19.28-51.62a8.79,8.79,0,0,1,7.65-5.31h91.22c3.11,0,4.77,2.39,3.68,5.31Z"/><path class="cls-6" d="M177,176.31a8.81,8.81,0,0,1-7.65,5.31H78.09c-3.11,0-4.77-2.39-3.68-5.31l19.28-51.62a8.79,8.79,0,0,1,7.65-5.31h91.22c3.11,0,4.77,2.39,3.68,5.31Z"/><path class="cls-9" d="M69.5,92.13a45.36,45.36,0,0,0,1.74,64.12"/></svg>