<svg height="536.742" viewBox="0 0 765.838 536.742" width="765.838" xmlns="http://www.w3.org/2000/svg" xmlns:xlink="http://www.w3.org/1999/xlink"><clipPath id="a"><path d="m7320.065 4213.714h-7446.065v-4647.714h7446.065z" transform="translate(126 434)"/></clipPath><clipPath id="b"><path clip-rule="evenodd" d="m128.155-143.422.992 5.529q.354.116.719.2.467 4.944 1.091 9.9l6.149 34.285c1.061 6.066 2.068 12.144 3.067 18.225l1.324 6.531.82 4.059c1.771 8.791 3.491 17.554 5 26.267a4.313 4.313 0 0 0 -.533 1.058l.116.491.081.327.083.324c1.191 4.58 3.263 9.022 8.147 10.369 3.684 1.016 7.726 1.108 11.53 1.509l.422.046 66.563 7.488q12.064 1.357 24.12 2.778l6.968.818c9.713 1.125 19.481 2.011 29.051 4.047a2.143 2.143 0 0 1 .881.4c-1.927-7.3-3.772-14.585-5.444-21.956-1.882-8.3-3.668-16.609-5.68-24.875q-6.082-24.98-13.576-49.6-1.566-5.164-3.2-10.305l-.766-2.4-.59-1.909c-.912-2.911-2.041-5.9-4.717-7.509-3.131-1.879-7.4-2.191-10.952-2.841l-2.4-.452q-5.4-1.007-10.807-1.938-25.9-4.457-52.066-7.145-27.207-2.8-54.562-3.666zm165.211 114.315-.17.014 2.486 19.883a2.582 2.582 0 0 1 1.518-.447c8.156.024 15.973-2.584 23.535-5.45l1.151-.439 3.21-1.234c3.263-1.251 6.544-2.474 9.886-3.489l1.351-.408.687-.2a36.682 36.682 0 0 1 7.824-1.578l.359-.02-.766-.4a1.772 1.772 0 0 1 -.3-.2 17.345 17.345 0 0 1 -4.428-.2 27.588 27.588 0 0 1 -8.235-2.91l-1.146-.621-.469-.249-.31-.161-.308-.156a10.141 10.141 0 0 0 -7.094-1.2c-3.159.665-5.927 2.368-8.775 3.808l-.505.252-.34.164-.346.163-.351.16c-3.851 1.733-9.979 3.6-11.456-1.633a7.23 7.23 0 0 1 .9-5.8c-1.914-.169-5.34 2.093-7.908 2.351zm-95.854-65.51-.046.239a8.85 8.85 0 0 0 2.887 7.783c1.7 1.677 4.695 2.609 5.545 5.022a3.278 3.278 0 0 1 -1.024 3.582l.229.113.224.115.218.116.213.116.207.117c3.376 1.94 6.125 5.1 3.08 8.907-3.454 4.324-10.671 4.464-15.756 4.125l-.343-.024c-4.931-.37-10.771-2.027-13.445-6.581a5.23 5.23 0 0 1 .618-6.4 7.842 7.842 0 0 1 4.557-2.318 5.619 5.619 0 0 1 .374-2.644 5.13 5.13 0 0 1 4.5-2.844c-.15-3.557 2.7-7.068 4.795-9.912l.214-.292.208-.287a1.5 1.5 0 0 1 2.745 1.067zm-2.812 3.786-1.911 7.16.033.059c.673 1.278-1.091 2.73-2.138 1.656l-.105-.114c-1.242-1.283-3.148.442-3.172 1.807a5.288 5.288 0 0 0 2.708 4.391l.1.068.275.171a1.285 1.285 0 0 1 -1.048 2.294 5.581 5.581 0 0 1 -3.868-3.223 11.715 11.715 0 0 0 -2.867.756c-2.384 1.334-1.013 3.667.539 5.077l.063.057.126.11c2.848 2.43 6.726 3.274 10.381 3.454l.211.01c3.692.158 8.5.211 11.667-1.961 1.969-1.352 2.54-3.269.873-5.085-.942-1.026-1.894-2.061-2.873-3.062a4.753 4.753 0 0 1 -4.275-.246c-.192-.085-.086-.379.1-.379.827 0 3.862-1.537 4.01-2.519.136-.908-1.543-1.674-2.359-2.113l-.118-.065-.1-.06a15.058 15.058 0 0 1 -2.393-1.8 12.781 12.781 0 0 1 -3.811-6.229z" transform="translate(-128.155 143.422)"/></clipPath><clipPath id="c"><path clip-rule="evenodd" d="m284.7-187.562c-1.675-4.21-7.335-2.573-6.7 1.849a24.035 24.035 0 0 0 3.131 7.769 18.788 18.788 0 0 0 3.911 5.151c-2.921 2.726-5.952 5.352-9.06 7.846a111.318 111.318 0 0 1 -10.645 7.533c-3.233 2.021-6.611 3.812-9.658 6.119a19.288 19.288 0 0 0 -6.728 8.09c-1.4 3.585-.791 7.287.239 10.87l.118.4c1.053 3.549 2.875 7.828.348 11.172-1.286 1.7-3.156 2.908-4.771 4.269a37.077 37.077 0 0 0 -4.017 3.938 32.522 32.522 0 0 0 -6.267 10.409l-.123.351c-1.185 3.419-2.051 7.607-.45 10.964a1.216 1.216 0 0 0 2.2-.287c.582-2.122.551-4.345 1.039-6.5a24.5 24.5 0 0 1 2.455-6.374 34.458 34.458 0 0 1 8.439-10.02l1.022-.832c2.664-2.187 5.112-4.507 5.652-8.127.579-3.873-.973-7.562-1.97-11.227a12.641 12.641 0 0 1 -.171-7.312 46.783 46.783 0 0 0 3.16 4.189c1.972 2.527 3.963 5.039 5.948 7.555 2.036 2.581 4.021 5.2 5.912 7.891q1.269 1.8 2.516 3.624c.627.91 1.5 1.82 2.185 2.749a1.636 1.636 0 0 0 .148 1.476c3.625 4.9 8.782-5.324 10.127-7.907 2.739-5.26 4.777-10.848 7.525-16.107a126.539 126.539 0 0 1 9.7-15.735c2.186-3.011 4.636-5.838 6.636-8.944 4.711 4.273 10.91 7.138 16.6 9.736 6.256 2.854 12.756 5.186 19.17 7.661l1.895.736c11.052 4.315 22.375 9.056 31.561 16.72 10.8 9.007 17.181 21.561 21.936 34.56 5.473 14.965 10 30.335 14.222 45.694q3.24 11.788 6.136 23.673c1.7 6.977 3.105 14.024 5.071 20.929-3.986-.141-8.532 1.4-11.935 1.849-15.507 2.038-30.807 5.276-45.451 10.881a3.23 3.23 0 0 0 -1.938 3.964c-1.043-.295-2.085-.593-3.128-.886 1.143-1.752.6-4.884.508-6.825l-.005-.133c-.092-2.587-.373-5.177-.555-7.76-.346-4.923-.8-9.81-1.4-14.7l-.153-1.224c-.68-5.325-1.182-10.682-1.924-16l-.088-.608c.356-1.36.77-2.7 1.2-4.041 1.158-3.563 2.792-6.917 4.224-10.368.169-.406-.41-.64-.68-.4a28.647 28.647 0 0 0 -5.9 7.848c-.027-.137-.051-.273-.079-.41l-.177-.87a14.909 14.909 0 0 0 -2.266-6.073.319.319 0 0 0 -.543 0c-1.245 2.107-1.384 4.776-1.575 7.173-.217 2.712-.244 5.459-.206 8.179.075 5.315.449 10.646.747 15.953.293 5.215.868 10.363 1.608 15.527l.141.968c.362 2.458.659 4.946 1.136 7.387l.135.664a32.012 32.012 0 0 0 .921 4.335q-19.61-5.472-39.293-10.719-14.227-3.8-28.466-7.534a10.631 10.631 0 0 0 -1.9-2.5c-2.564-2.484-5.962-3.592-9.079-1.68a.412.412 0 0 0 0 .7c.6.326 1.2.661 1.783 1.01l-5.7-1.544c-4.26-1.155-8.57-2.6-12.93-3.4-8.03-3.964-16.667-6.834-25.126-9.67l-1-.337a95.453 95.453 0 0 0 -13.288-3.945c-3.276-.6-7.122.124-8.439 3.481a52.364 52.364 0 0 0 -4.751 3.663c-1.095.918-2.144 1.895-3.211 2.845l-.2.173a4.027 4.027 0 0 0 -1.778 2.47c-.111.623.285 1.464 1.052 1.382 2.349-.251 4.258-2.975 5.851-4.6 1.23-1.257 2.471-2.557 3.594-3.938a1.394 1.394 0 0 0 1.969-.5c2.161-4.094 8.082-1.257 11.357-.286l4.692 1.389q3.519 1.044 7.032 2.106c6.435 1.955 12.837 4.142 19.33 5.938a1.351 1.351 0 0 0 .6 2.207c5.082 1.995 10.658 3.027 15.938 4.4q5 1.3 10 2.611a8.172 8.172 0 0 1 1.155 3.191c.636 4.481-.59 9.652-1.784 13.986l-.18.647c-.982 3.485-2.426 7.757-5.431 9.957a5.329 5.329 0 0 1 -2.609.995q-8.825-4.544-17.652-9.082a1.641 1.641 0 0 0 -2.343 1.1 38.346 38.346 0 0 1 -6.032-1.518c-3.169-1.077-5.644-3.13-8.615-4.55-5.749-2.747-11.619.627-16.766 3.193l-1.186.583c-2.308 1.12-7.11 3.273-8.218.208-1.071-2.964 2.315-6.132 4.5-7.466a29.718 29.718 0 0 1 8.59-3.151c1.682-.405 3.385-.736 5.1-.977a31.813 31.813 0 0 0 5.822-.863 1.064 1.064 0 0 0 0-2.034c-2.88-.656-6.318.06-9.323.79l-1.571.387a37.493 37.493 0 0 0 -8.844 3.159 16.018 16.018 0 0 0 -5.506 4.723c-1.2-1.116-2.7-1.078-4.252-.664l-.845.235a7.956 7.956 0 0 1 -3.884.385c-.182-.988-.365-1.977-.562-2.965q-2.9-14.577-6.4-29.028-6.058-24.913-13.981-49.294l-.529-1.625c-1.215-3.719-2.193-7.77-4.152-11.187a13.217 13.217 0 0 0 -8.349-6.076c-4-1.118-8.209-1.7-12.292-2.459-.911-.168-1.824-.328-2.736-.494a44.288 44.288 0 0 0 1.864-4.183l.091-.21c1.113-2.538 2.113-5.122 3.078-7.72l.722-1.953a97.231 97.231 0 0 1 5.993-13.726 35.712 35.712 0 0 1 10.271-11.555c8.7-6.386 19.181-9.644 27.617-16.469.346-.279-.1-.757-.448-.581-5.7 2.863-11.845 4.81-17.77 7.141l-1.169.461c-4.683 1.857-9.439 3.879-13.492 6.885a37.484 37.484 0 0 0 -10.753 12.468c-2.636 4.881-4.323 10.344-6.183 15.557l-.5 1.389c-.75 2.083-1.525 4.16-2.413 6.187-.7 1.609-2.02 3.446-2.618 5.285-1.636-.284-3.271-.568-4.909-.842a786.527 786.527 0 0 0 -107.27-10.421 2.027 2.027 0 0 0 -1.926 2.53c3.449 20.4 6.515 40.879 9.878 61.3q2.2 13.368 4.5 26.719c.776 4.51 1.674 9 2.409 13.518a94.343 94.343 0 0 0 2.041 10.884 20.782 20.782 0 0 0 4.62 8.712c2.483 2.627 5.949 3.9 9.438 4.5 8.856 1.525 17.941 2.147 26.869 3.163l47.539 5.414a117.887 117.887 0 0 0 -.428 18.925l.182 3.488c.149 2.806.326 5.616.729 8.393a16.939 16.939 0 0 0 4.444 9.035 53.761 53.761 0 0 0 7.318 6.382 36.867 36.867 0 0 0 8.481 5.241l.4.16c2.726 1.065 7.839 2.713 11.565 2.111-.487 2.441-1.429 5.066-.594 7.481a1.664 1.664 0 0 0 2.752.727c1.779-1.892 1.918-4.39 2.34-6.858.438-2.568.817-5.145 1.152-7.728.65-4.995 1.155-10.035 1.31-15.072q.238-7.759-.181-15.52c-.143-2.654-.321-5.306-.658-7.942-.144-1.124-.29-2.25-.458-3.371q-.092-.614-.2-1.222l4.267.482c6.542.731 13.087 1.39 19.676 1.493a2.123 2.123 0 0 0 1.773-.861 2.439 2.439 0 0 0 2.188 1.164c9.2-.034 17.769-3.044 26.137-6.591 4.218-1.788 8.371-3.725 12.6-5.5 3.943-1.655 8.159-2.836 12.006-4.7l10.099 5.301a4.373 4.373 0 0 0 .27.714 5.864 5.864 0 0 0 3.282 2.623 7.9 7.9 0 0 0 3.874.559q11.5 6.03 23.014 12.043l7.677 4c15.3 7.967 30.531 16.065 45.922 23.844l1.133.571a137.279 137.279 0 0 0 16.928 7.391 29.979 29.979 0 0 1 -.086 4.528l-.03.344c-.176 1.869-.553 4.21.945 5.54a1.74 1.74 0 0 0 2.7-.349c.962-1.892.1-4.874-.206-6.929a19.789 19.789 0 0 0 -.435-2.211c6.764 2.014 13.732 2.991 20.615 1.86 6.7-1.1 11.891-5.324 16.076-10.489a47.742 47.742 0 0 0 9.237-18.614c1.916-7.749 2.041-15.752 2-23.69a218.943 218.943 0 0 0 -1.388-25.343 12.225 12.225 0 0 1 3.511-.41 2.728 2.728 0 0 0 2.645 1.165c2.148 2.37-3.3 4.792-5.042 5.4-.6.211-.54 1.193.157 1.164l.439-.021c2.691-.143 5.47-.6 7.052-3.1a4.875 4.875 0 0 0 -.624-6.015c-1-9.441-3.384-18.634-5.6-27.843-2.179-9.039-4.6-18.02-7.172-26.956l-1.152-4c-4.045-14.011-8.272-28.136-13.851-41.59a88.936 88.936 0 0 0 -10.346-19.171 65.862 65.862 0 0 0 -14.345-14.133c-10.259-7.441-22.3-11.936-34.125-16.22l-.529-.192c-6.129-2.218-12.244-4.463-18.3-6.866-5.359-2.125-10.493-4.82-15.827-6.977q.26-.472.5-.955l.1.083.052.039a1.482 1.482 0 0 0 1.768-.228c1.248-1.178.826-2.486-.008-3.708l-.108-.156c-1.019-1.428-1.928-2.938-2.868-4.418l-.589-.925a38.24 38.24 0 0 0 -5.342-7 11.485 11.485 0 0 0 -3.173-2.183c.1-.2-.751-.623-.991-.412-3.582-1.312-7.7-1.037-11.609-.675m-140.751 215.15 4.981.567q8.219.936 16.443 1.824l11.908 1.295c.03.679.113 1.343.128 1.856.078 2.644.136 5.289.191 7.934q.165 7.952-.359 15.9c-.338 5.127-.784 10.255-1.476 15.347l-.146 1.02-.082.535a2.327 2.327 0 0 0 -1.581.875c-1.007 1.2-4.654.034-6.078-.473a28.974 28.974 0 0 1 -6.583-3.655 42.125 42.125 0 0 1 -5.5-4.682l-1.405-1.4a18.016 18.016 0 0 1 -3.659-4.624c-1.163-2.374-1.313-5.287-1.654-7.873-.42-3.18-.92-6.359-1.448-9.523m140.9-48.305.517.136c18.768 4.989 37.503 10.128 56.331 14.896 9.316 2.36 18.675 4.549 28 6.863l1.51.378c7.358 1.86 14.8 4.1 20.439 9.438a.222.222 0 0 0 .314-.314c-6.073-6.467-14.709-9.2-23-11.578-1.533-.439-3.068-.867-4.6-1.3a270.335 270.335 0 0 1 34.453-10.02c3.018-.643 6.071-1.115 9.087-1.76 2.1-.45 4.157-1.1 6.238-1.641l1.637-.412.022 5.175c.027 7.33.014 14.653-.36 21.982l-.071 1.358c-.436 8.156-1.117 16.481-4.01 24.171a44.049 44.049 0 0 1 -11 16.688 19.883 19.883 0 0 1 -8.441 4.981 28.624 28.624 0 0 1 -9.411.7c-15.087-1.053-28.518-9.252-41.624-16.04q-32.154-16.656-64.333-33.263a10.534 10.534 0 0 0 1.623-1.368c2.878-2.973 4.4-7.043 5.392-10.984a57.949 57.949 0 0 0 1.77-13.023m-27.785 29.662a.28.28 0 0 0 -.418.24c-.066 1.64.84 3.257 1.516 4.734l.072.158c.822 1.83 1.722 3.635 2.653 5.411q2.791 5.325 5.813 10.524a124.6 124.6 0 0 0 13.9 19.7c1.2 1.37 3.184-.387 2.412-1.862a220.251 220.251 0 0 0 -12.54-20.48q-3.357-5-6.735-9.985c-.943-1.384-1.9-2.763-2.879-4.122l-.592-.812m-225.772-137.773q28.248.854 56.384 3.723 26.146 2.686 52.066 7.145 5.41.931 10.807 1.938l2.158.406c3.6.682 7.995.964 11.2 2.887 3.378 2.027 4.291 6.265 5.415 9.759q1.982 6.164 3.862 12.361 7.464 24.6 13.576 49.6c2.013 8.266 3.8 16.579 5.68 24.875 1.672 7.371 3.516 14.659 5.444 21.956a2.143 2.143 0 0 0 -.88-.4c-9.57-2.037-19.338-2.922-29.051-4.047l-.94-.11q-15.071-1.773-30.149-3.486l-66.564-7.49c-3.926-.441-8.131-.5-11.951-1.555-6.5-1.793-8.018-9.057-9.108-14.842l-.033-.175c-3.285-17.48-5.9-35.111-8.965-52.635m156.091 64.419c2.584-.171 6.121-2.538 8.082-2.368a7.23 7.23 0 0 0 -.9 5.8c1.651 5.856 9.117 2.826 12.713 1.037 2.948-1.467 5.8-3.263 9.06-3.95 3.7-.778 6.2.693 9.327 2.389a27.589 27.589 0 0 0 8.235 2.91 17.348 17.348 0 0 0 4.429.2 1.763 1.763 0 0 0 .3.2l.766.4a42.882 42.882 0 0 0 -10.22 2.208c-3.342 1.015-6.623 2.238-9.886 3.489l-3.21 1.234c-7.919 3.034-16.116 5.914-24.687 5.889a2.58 2.58 0 0 0 -1.518.447m11.967-38.233a8.737 8.737 0 0 0 -6.95 1.685c-2.46 2-4.113 5.33-7.65 5.548a.93.93 0 0 0 -.246 1.817c2.633.78 4.764-.645 6.558-2.5l1.206-1.261c1.773-1.836 3.408-3.256 6.415-3.146 3.221.118 6.448.862 9.648 1.241q5.438.643 10.887 1.11c.169.015.2-.251.039-.291l-4.073-1.014m-13.37-13.636-.421-.042c-3.707-.36-7.1-.374-10.409 1.621l-.635.384c-2.985 1.815-6.234 3.954-8.1 6.892a.637.637 0 0 0 .71.925c3.588-.861 6.211-3.495 9.228-5.466 3.386-2.212 6.884-1.847 10.745-1.5 3.738.333 7.474.79 11.176 1.413 3.478.585 6.967 1.509 10.481 1.8v-.007c.4 0 .63-.6.221-.808-3.565-1.781-7.695-2.624-11.573-3.438m-124.044-38.425a1.5 1.5 0 0 0 -2.727-1.15l-.208.287c-2.111 2.893-5.164 6.524-5.009 10.2a5.13 5.13 0 0 0 -4.507 2.847 5.618 5.618 0 0 0 -.374 2.644 7.841 7.841 0 0 0 -4.557 2.317 5.23 5.23 0 0 0 -.618 6.4c2.674 4.554 8.514 6.211 13.445 6.581l.176.013c5.093.352 12.431.257 15.923-4.114 3.368-4.216-.354-7.63-4.172-9.483a3.278 3.278 0 0 0 1.025-3.582c-.85-2.413-3.85-3.345-5.545-5.022a8.849 8.849 0 0 1 -2.887-7.783m-2.767 3.548a12.726 12.726 0 0 0 3.863 6.444 15.049 15.049 0 0 0 2.393 1.8l.1.06c.758.426 2.621 1.223 2.478 2.178-.148.981-3.183 2.518-4.01 2.518-.188 0-.295.294-.1.379a4.752 4.752 0 0 0 4.275.246c.98 1 1.931 2.036 2.874 3.062 1.666 1.816 1.1 3.733-.873 5.085-3.164 2.172-7.974 2.119-11.667 1.961-3.716-.159-7.688-.988-10.591-3.464l-.126-.11c-1.578-1.4-3.019-3.782-.6-5.134a11.708 11.708 0 0 1 2.866-.756 5.581 5.581 0 0 0 3.868 3.223 1.285 1.285 0 0 0 1.048-2.294l-.275-.171a5.341 5.341 0 0 1 -2.812-4.458c.024-1.366 1.93-3.091 3.172-1.807l.057.061c1.039 1.172 2.87-.3 2.186-1.6l-.033-.059m244.278-75.059a.3.3 0 0 0 -.552-.149c-2.412 4.245-3.673 9.449-4.958 14.127-1.346 4.9-2.432 9.849-3.408 14.835a163.127 163.127 0 0 0 -3.1 30.423c-.01 1.469 2.383 1.86 2.617.355 1.554-10.009 3.042-20.028 4.608-30.034.788-5.033 1.7-10.046 2.582-15.064m-21.667-7.1c.178-.585-.674-.781-.892-.246-4.841 11.887-6.48 25.359-3.372 37.9.476 1.918 3.284 1.087 2.926-.807m-61.104-47.408c.024-.438-.544-.507-.759-.206-2.294 3.233-3.245 7.563-7.27 9.234-2.009.834-4.27.689-6.045 2.1-1.187.942-2.1 2.43-1.206 3.857a.95.95 0 0 0 1.482.191 9 9 0 0 1 1.643-2.151c1.09-.772 2.561-.82 3.811-1.182a9.316 9.316 0 0 0 4.21-2.509m-34.187-63.257a.463.463 0 0 0 -.615.161.506.506 0 0 0 .075.775 18.457 18.457 0 0 0 -.83 2.794q-.362 1.6-.767 3.189c-.542 2.139-1.018 4.294-1.56 6.434-.575 2.268-1.261 4.512-2.024 6.723-.049.143-.1.289-.16.438l-.087.224-.021-.034a.242.242 0 0 0 -.44.185c.035.236.083.471.124.707l-.08.212c-.5 1.344-.841 2.759.075 3.944a1.87 1.87 0 0 0 1.189.784 68.586 68.586 0 0 0 2.709 7.261l.3.684a40.7 40.7 0 0 0 5.444 9.693c2.586 3.174 6.144 5.342 8.4 8.82a21.411 21.411 0 0 1 2.369 5.146l.223.694a5.552 5.552 0 0 0 2.117 3.3 1.069 1.069 0 0 0 1.278-.165c2.485-2.63-.116-7.541-1.615-10.087-2.083-3.541-5.1-5.806-8.117-8.477-3.254-2.879-5.329-6.731-7.337-10.526-1.23-2.325-2.417-4.7-3.667-7.034 1.306-1.155 1.724-3.448 2.166-5.042l.04-.143a57.075 57.075 0 0 0 1.679-7.8 42.917 42.917 0 0 0 .407-7.566l-.027-.648m-6.1 7.393c.288-.4-.189-.844-.585-.761-2.407.5-4.76 1.955-6.92 3.134l-.231.125a9.7 9.7 0 0 0 -4.365 3.877c-.985 1.964-.9 4.226-.769 6.361l.013.2a53.067 53.067 0 0 0 .732 7.732 1.81 1.81 0 0 0 2.437 1.345c1.185 3.742 4.513 6.5 6.944 9.453 3.1 3.765 2.516 8.848 2.192 13.383-.131 1.836 2.152 2.358 3.327 1.378l2.709-2.251q.677-.564 1.351-1.13.578-.486 1.145-.981l.565-.5c.251-.224 1.356-1.46 1.679-1.511.783-.124 2.643 1.94 3.279 2.587l.081.081a33.272 33.272 0 0 1 3.289 3.781.241.241 0 0 0 .416-.243 34.039 34.039 0 0 0 -3.2-5.52l-.252-.345c-.83-1.119-1.944-3.094-3.409-3.425-1.789-.4-3.575 1.391-4.876 2.387l-.082.062c-.619.465-1.231.938-1.842 1.414a17.955 17.955 0 0 0 -2.1-9.7c-1.229-2.052-3.069-3.572-4.644-5.335-1.754-1.963-2.669-4.376-4.256-6.421a1.2 1.2 0 0 0 -.791-.45c-.061-1.644-.3-3.3-.49-4.93l-.054-.487c-.189-1.767-.636-3.925.229-5.579.817-1.563 2.691-2.666 4.079-3.727l1.133-.879m81.381-21.81a8.825 8.825 0 0 1 2.016 1.593 33.581 33.581 0 0 1 4.663 7.064c.725 1.323 1.423 2.661 2.154 3.982.318.574.644 1.142.975 1.71.153.261.607.781.832 1.1-.25.35-.508.7-.772 1.037-.1.13-7.039 7.691-9.458 10.651a96.741 96.741 0 0 0 -9.852 14.446c-2.771 5.018-4.881 10.332-7.448 15.447a38.552 38.552 0 0 1 -4.549 7.321c-.071.086-.145.168-.217.253-.7-1.887-2.487-3.907-3.366-5.067l-.082-.109c-1.993-2.687-4.1-5.293-6.247-7.855q-2.946-3.509-6.04-6.879l-.776-.842c-1.437-1.553-3.262-3.876-5.366-4.986a10.053 10.053 0 0 1 .786-1.192 26.74 26.74 0 0 1 7.506-6.134l1.783-1.085c6.72-4.1 13.336-8.384 19.17-13.707a77.679 77.679 0 0 0 8.725-9.052l.918-1.162m-6.575-8.562c3.147.264 6.546.2 9.454 1.227-2.585 2.445-5.043 5.085-7.568 7.571-.225-1.681-.684-3.342-1.073-4.982" transform="translate(-35.07 190.004)"/></clipPath><clipPath id="d"><path clip-rule="evenodd" d="m163.4-282.373a4.675 4.675 0 0 0 -5.1-3.336c-2.068.245-4.281 2.3-4.029 4.572.047.438.11.849.185 1.236h-.01-.01l.051.15a7.8 7.8 0 0 0 .681 1.982c.4 1.173.788 2.349 1.17 3.53a7.412 7.412 0 0 0 -1.686.115c-.591-1.516-1.185-3.028-1.776-4.548-.634-1.623-1.079-3.707-2.332-4.963a5.426 5.426 0 0 0 -6.337-.79 5.08 5.08 0 0 0 -2.351 5.658 3.614 3.614 0 0 0 1.979 2.5l.1.054.744 1.769a6.191 6.191 0 0 0 -.721-.265 5.874 5.874 0 0 0 -1.182-.225c-1.063-1.931-2.233-3.806-3.442-5.646a4.745 4.745 0 0 0 -6.388-1.678c-2.04 1.2-3.135 4.339-1.674 6.4 1.111 1.567 2.162 3.166 3.2 4.781a4.618 4.618 0 0 0 -.524.122q-.118-.16-.248-.32a28.464 28.464 0 0 0 -3.8-3.628c-1.264-1.1-1.847-2.823-3.509-3.656a4.377 4.377 0 0 0 -5.856 1.54c-2.67 4.465 1.812 7.726 4.679 10.431a70.406 70.406 0 0 0 -7.75-4.217c-1.5-.691-3.017-1.358-4.561-1.935a5.48 5.48 0 0 0 -6.018 1.007 3.3 3.3 0 0 0 -.87 3.3 5.558 5.558 0 0 0 4 3.759c1.457.4 2.95.675 4.407 1.1a48.756 48.756 0 0 1 7.113 2.629 3.627 3.627 0 0 0 -.469.339c-1.717-.557-3.466-1.038-5.222-1.449a67.034 67.034 0 0 0 -8.856-1.437l-.989-.092c-3.57-.344-7.863-.977-10.055 2.449a3.989 3.989 0 0 0 0 4.11c1.528 2.148 3.048 2.574 5.577 2.614q-3.734.4-7.447.975-2.557.391-5.107.884l-.848.166c-2.068.415-4.375.655-6.151 1.856-3.875 2.621-2.056 7.726 2.237 8.271 2.075.261 4.379-.62 6.415-1.031q2.966-.6 5.955-1.058c1.032-.162 2.064-.3 3.1-.434a43.538 43.538 0 0 0 -6.234 1.342l-.565.171c-3.936 1.2-9.25 3.118-10.477 7.334a3.956 3.956 0 0 0 3.757 4.947c2.292.138 4.2-1.232 6.148-2.243a26.008 26.008 0 0 1 4.387-1.753c1.579-.486 3.19-.888 4.813-1.216a38.159 38.159 0 0 0 -3.989 2.521l-.589.437c-3.407 2.545-8.6 6.485-7.4 11.256a3.8 3.8 0 0 0 3.659 2.787c4.182-.391 6.49-4.856 9.645-7.249.823-.624 1.725-1.24 2.67-1.84a76.356 76.356 0 0 0 -11.48 19.152c-6.362 15.018-8.313 28.925-8.36 45.073v.5c-.008 8.907.193 17.976 1.059 26.843.8 8.192 2.276 16.278 5.982 23.7a51.376 51.376 0 0 0 31.671 25.82 50.172 50.172 0 0 0 43.617-8.579c3.1-2.416-1.012-7.663-4.183-5.433-12.661 8.9-29.037 11.722-43.569 5.7a44.883 44.883 0 0 1 -24.745-26.888c-2.5-7.528-3.233-15.554-4.127-23.4l-.06-.523a214.406 214.406 0 0 1 -1.485-24.723c.012-15.339 2.21-27.965 8.94-41.878a73.8 73.8 0 0 1 12.181-17.932 15.194 15.194 0 0 0 4.576-.284q1.152-.124 2.3-.233c-.785.508-1.554 1.037-2.31 1.578l-.992.717c-3.1 2.229-7.042 4.767-6.244 9.075a3.5 3.5 0 0 0 2.5 2.5c4.068.971 6.864-2.993 9.613-5.346 2.391-2.045 4.891-3.877 7.44-5.713q.868-.622 1.748-1.24-.827.966-1.611 1.959l-.774.983c-2.34 2.935-5.714 6.751-3.629 10.557a3.543 3.543 0 0 0 3.072 1.765c4.2-.087 5.868-4.864 7.837-7.881 1.694-2.586 3.533-5.022 5.435-7.458q.786-1 1.587-2a164.515 164.515 0 0 1 26.237 3.494c5.931 1.283 11.764 2.946 17.553 4.765l.481.153c3.133 1.011 6.361 2.306 8.62 4.525a11.676 11.676 0 0 1 -.234 4.669l-.24 1.169a48.6 48.6 0 0 0 -1.16 14.7 54.193 54.193 0 0 0 3.978 14.64c.9 2.266 1.828 1.856 2.146 4.288a25.818 25.818 0 0 1 -.074 5.633l-.14 1.584c-.35 4.148-.526 8.671 2.186 12.094a1.042 1.042 0 0 0 1.623-.209 6.8 6.8 0 0 1 .382-.6 8.4 8.4 0 0 1 5.6-3.4c.291-.051.177-.442-.067-.474a8.023 8.023 0 0 0 -5.332 1.259c.74-2.564 6.465-1.317 8.347-.819l.065.017a19.331 19.331 0 0 1 6.526 3.111 14.925 14.925 0 0 1 6.1 12.385 13.371 13.371 0 0 1 -6.868 11.592 13.9 13.9 0 0 1 -6.734 1.627c-2.434-.024-4.6-1.094-7.038-.944a1.965 1.965 0 0 0 -1.674 2.926 6.669 6.669 0 0 0 2.071 2.112 69.561 69.561 0 0 1 -7.483 13.08 43.038 43.038 0 0 1 -5.5 6.234c-1.583 1.485-5.013 3.2-4.82 5.678a1.935 1.935 0 0 0 1.339 1.769c2.522 1.034 5.589-2.526 7.276-4.242l.135-.137a47.159 47.159 0 0 0 5.691-6.885 34.678 34.678 0 0 0 5.561-14.486c4.045 1.22 9.4.075 12.7-1.421 10.373-4.7 13.764-18.7 7.459-28.028a18.228 18.228 0 0 0 -4.49-4.6 4.235 4.235 0 0 0 1.059-.817 31.719 31.719 0 0 0 4.25-6.592l.149-.27q1.649-2.985 3.108-6.063l.361-.771c2.17-4.679 4.072-6.724 5.62-11.643a98.94 98.94 0 0 0 3.422-14.5l.2-1.3a34.2 34.2 0 0 0 .534-8.805c2.209.723 4.431 1.169 6.616.083a3.827 3.827 0 0 0 1.745-4.3 5.949 5.949 0 0 0 -1.717-2.645 6.231 6.231 0 0 0 1.252-.845l.327-.284a4.023 4.023 0 0 0 .614-4.789c-.079-.138-.158-.28-.232-.418a4.509 4.509 0 0 0 -3.9-2.243c-.252 0-.5 0-.76 0a6.747 6.747 0 0 0 2.119-.829c3.056-1.883 2.67-6.988-1.028-7.888a10.839 10.839 0 0 0 -4.974.182c.063-.036.126-.071.189-.111a4.528 4.528 0 0 0 2.253-3.936 4.479 4.479 0 0 0 -2.253-3.94 4.521 4.521 0 0 0 -4.592 0 38.543 38.543 0 0 0 -3.395 2.507 11.728 11.728 0 0 0 2.438-4.39 4.635 4.635 0 0 0 -2.068-5.093 4.3 4.3 0 0 0 -4.182-.095 4.451 4.451 0 0 0 -.855-2.989c-1.386-1.895-3.907-2.985-6.1-1.6a6.236 6.236 0 0 0 -1.048.877c.729-2.326.071-4.765-2.414-5.816a4.958 4.958 0 0 0 -4.883.79c.835-4.529-5.833-7.857-8.424-3.178-.588 1.06-1.17 2.176-1.69 3.318l-.192.429-.02-.008.132-.314.135-.314a21.268 21.268 0 0 0 1.89-5.243c.37-2.693-.827-5.247-3.749-5.642a4.856 4.856 0 0 0 -4.2 1.682c.547-4.178-4.108-7.214-7.459-4.095-1.587 1.477-2.434 3.636-3.442 5.531-.571 1.07-1.154 2.136-1.725 3.21-.146-.174-.3-.347-.469-.517a71.434 71.434 0 0 0 2.06-7.77 4.75 4.75 0 0 0 -3.249-5.736 4.7 4.7 0 0 0 -5.722 3.257c-.362 1.737-.792 3.455-1.264 5.164a8.479 8.479 0 0 0 -.957-.174c-.026-.321-.056-.644-.089-.965l-.124-1.142c-.276-2.609-.553-5.588-1.913-7.807a4.5 4.5 0 0 0 -8.329 2.262c-.035 2.318.906 4.615 1.233 6.909.142 1 .225 2.01.272 3.02a90.661 90.661 0 0 0 -2.513-9.93c-.106-.387-.232-.778-.358-1.169zm51.308 129.412c-5.218-.809-9.987 2.108-13.079 6.195a2.056 2.056 0 0 0 .315 2.428 1.883 1.883 0 0 0 1.414.588 1.937 1.937 0 0 0 1.725-.991c1.989-3.98 5.537-6.495 9.625-8.042.078-.028.102-.162.004-.178zm-7.234-71.305-.158-.17c-1.056-1.1.613-2.775 1.671-1.675a15.635 15.635 0 0 1 2.567 3.992c.679 1.36-1.359 2.561-2.04 1.2l-.31-.62a12.232 12.232 0 0 0 -1.729-2.722zm14.655-2.253c-1.5-.253-.862-2.536.628-2.284 1.931.326 3.854.7 5.785 1.023 1.5.253.862 2.536-.629 2.284-1.927-.326-3.85-.697-5.78-1.024zm-89.15-15.588c1.446-.484 2.066 1.8.628 2.284a47.224 47.224 0 0 0 -5.842 2.268c-1.361.667-2.561-1.376-1.193-2.046a51.88 51.88 0 0 1 6.411-2.506zm89.49-3.07c1.412-.566 2.025 1.724.628 2.284l-5.1 2.046c-1.412.566-2.025-1.724-.628-2.284l5.1-2.047zm-107.309-5.562.186-.118c1.28-.831 2.466 1.218 1.193 2.046a22.092 22.092 0 0 0 -2.34 1.393l-.143.128c-1.105 1.046-2.779-.625-1.671-1.675a15.933 15.933 0 0 1 2.775-1.773z" transform="translate(-79.856 285.746)"/></clipPath><clipPath id="e"><path clip-rule="evenodd" d="m147.937-161.929a16.057 16.057 0 0 0 8.991.048 16.127 16.127 0 0 0 7.426-4.824 10.806 10.806 0 0 0 2.851-7.17 1.17 1.17 0 0 0 -.279-.751 1.307 1.307 0 0 0 -.7-.419 1.279 1.279 0 0 0 -.815.071 1.079 1.079 0 0 0 -.537.528c-.3.4-.607.793-.911 1.176-2.445 3.02-4.812 5.276-8.488 6.086a10.334 10.334 0 0 1 -5.814-.426 12.452 12.452 0 0 1 -5.111-3.593 2.73 2.73 0 0 0 -2.089-1.032 3.205 3.205 0 0 0 -2.239.984 3.462 3.462 0 0 0 -1.038 2.262 3.013 3.013 0 0 0 .859 2.222 17.475 17.475 0 0 0 7.894 4.838zm.09-37.82c-2.98 1.812-7.521 6.038-4.315 10.531 3.774 3.961 9.207-.581 11.885-2.635 2.483-1.592 5.272 2.5 2.969 4.362-19.348 14.33-27.2-11.783-12.046-14.388 1.668-.288 2.288 1.569 1.507 2.13zm27.878-7.974a3.324 3.324 0 0 1 3.333-.255 10.861 10.861 0 0 1 3.879 3.869 7.678 7.678 0 0 1 1.272 4.519 1.022 1.022 0 0 0 .332.862 1.291 1.291 0 0 0 .72.32 1.872 1.872 0 0 0 .758-.068 1.128 1.128 0 0 0 .749-.646 9.417 9.417 0 0 0 -.46-6.919 14.1 14.1 0 0 0 -5.053-6.345 8.447 8.447 0 0 0 -8.17-.038c-2.189 1.207-3.558 3.155-4.92 5.141-.289.422-.577.841-.874 1.253a2.527 2.527 0 0 0 -.424 2.345 3.029 3.029 0 0 0 1.72 1.777 3.1 3.1 0 0 0 2.4.036 3.05 3.05 0 0 0 1.633-1.728 9.126 9.126 0 0 1 3.109-4.126zm-48.648 3.413a2.261 2.261 0 0 0 1.9.227 2.7 2.7 0 0 0 1.112-.664 2.215 2.215 0 0 0 .618-1.119 4.582 4.582 0 0 1 1.607-2.676 3.224 3.224 0 0 1 2.564-.675 4.92 4.92 0 0 1 2.76 1.655 6.233 6.233 0 0 1 .6.874 6.185 6.185 0 0 0 1.146 1.5 1.116 1.116 0 0 0 .709.267 1.069 1.069 0 0 0 .316-.049 3.315 3.315 0 0 0 1.221-2.655 4.852 4.852 0 0 0 -.9-2.467 9.758 9.758 0 0 0 -5.209-3.707 7.752 7.752 0 0 0 -6.1 1.316 8.648 8.648 0 0 0 -3.533 5.408 2.886 2.886 0 0 0 .144 1.6 2.231 2.231 0 0 0 1.046 1.165zm43.826-23.121a6.858 6.858 0 0 0 4.437 1.653 20.892 20.892 0 0 1 2.256.333 21.227 21.227 0 0 1 5.448 1.99 20.186 20.186 0 0 1 5.107 3.621c.331.355.644.727.956 1.1.285.34.56.668.849.984.332.363.648.743.962 1.122a4.832 4.832 0 0 1 .272.481c.059.123.127.261.206.409.107.2.232.424.364.625.219.367.336.468.437.514a.9.9 0 0 0 .482.092.808.808 0 0 0 .417-.2 3.065 3.065 0 0 0 .852-2.5 10.765 10.765 0 0 0 -1.1-4.2 22.661 22.661 0 0 0 -4.824-6.632 23.47 23.47 0 0 0 -7.585-4.622 15.393 15.393 0 0 0 -5.741-1.185 5.677 5.677 0 0 0 -3.8 1.5 3.315 3.315 0 0 0 -.993 2.429 3.471 3.471 0 0 0 .998 2.486zm-46.494 11.712a.72.72 0 0 0 .327.288.758.758 0 0 0 .429.052.765.765 0 0 0 .389-.189.726.726 0 0 0 .218-.377c.871-3.828 2.563-6.676 6.174-8.512a26.063 26.063 0 0 1 5.752-1.935c.562-.133 1.156-.219 1.754-.307 1.874-.274 3.761-.587 4.983-2.1a4.039 4.039 0 0 0 .87-3.147 3.347 3.347 0 0 0 -1.819-2.479c-2.657-1.374-5.959-.026-8.642 1.123l-.586.25a20.1 20.1 0 0 0 -6.984 4.662 15.145 15.145 0 0 0 -3.589 6.636 7.983 7.983 0 0 0 .724 6.035z" transform="translate(-123.592 235.009)"/></clipPath><clipPath id="f"><path clip-rule="evenodd" d="m122.548-167.292c1.377-.451 2.73-.976 4.089-1.481a27.786 27.786 0 0 1 22.633-1.185c3.577 1.443 6.913 4.037 10.5 5.737.853.318 1.712.607 2.581.85.533-.186 1.066-.383 1.594-.58a79.85 79.85 0 0 0 10.865-5.154c.371-.522.756-1.03 1.169-1.518a58.453 58.453 0 0 1 -7.208-1.564c-6.843-1.875-13.292-4.931-20.112-6.889-6.35-1.828-13.241-2.827-19.619-.557-3.027 1.078-5.691 2.965-8.635 4.236a15.6 15.6 0 0 1 -5.127 1.397 24.943 24.943 0 0 0 4.586 7.462 26.992 26.992 0 0 0 2.684-.754zm-14.808-21.554a35.1 35.1 0 0 1 3.94 3.116q.316-.12.629-.247a1.749 1.749 0 0 1 1.426-.622 33.8 33.8 0 0 0 10.1-7.323c2.123-2.2 4.3-4.5 7.135-5.776 3.343-1.508 6.63-.813 10.143-.584 3.737.249 7.427-.813 11.161-.3a16.5 16.5 0 0 1 7.5 3.162c4.511 3.328 7.621 8 11.433 12.034a31.737 31.737 0 0 0 15.561 8.986c.071-.047.146-.095.221-.138a87.79 87.79 0 0 0 11.779-13.162c3.4-4.639 12.372-25.521 14.539-27.353a4.164 4.164 0 0 1 2.83-1.062 4.51 4.51 0 0 1 3.994 3.1c1.2 3.182.6 7.3.505 10.624q-.178 6.112-.813 12.2-.634 6.011-1.681 11.971-.527 3.008-1.172 6a10.755 10.755 0 0 1 -.509 1.709q-.314 1.475-.675 2.934c-1.571 6.36-4.049 12.729-8.781 17.423-4.925 4.892-11.619 8.141-17.835 11.047a138.772 138.772 0 0 1 -18.49 7.154 73.256 73.256 0 0 1 -17.393 5.531c-6.543 1.149-13.422 1.22-19.741-1.054a34.761 34.761 0 0 1 -8.706-4.619 30.051 30.051 0 0 1 -9.957-8.228c-4.983-6.4-7.362-14.159-8.4-22.163-.266-2.049-1.268-9.9-1.347-11.123l-.763-11.844c-.122-1.86 2.164-2.391 3.367-1.393z" transform="translate(-104.366 218.114)"/></clipPath><clipPath id="g"><path clip-rule="evenodd" d="m100.458-197.855c2.657 3.571 7.583 4.708 12.127 4.316 9.8-.944 12.884-12.078 13.205-20.732-6.571 1.849.556-11.248-21.908-12.688-7.919-.66-5.736 4.124-9.234 7.62.072 7.336 1.293 15.308 5.81 21.485m46.677-8.43c5.786 27.105 37.468 20.658 40.8-3.776-3.073-2.17-2.264-7.528-6.082-9.469-6.051-3.868-13.615-3.7-20.486-3.611-8.783.6-11.286 4.243-15.8 8.215a55.141 55.141 0 0 0 1.57 8.642m-59.23-25.166q.487-.081.975-.153a2.927 2.927 0 0 1 .9-.322 15.35 15.35 0 0 1 2.362-.409c11.26-2.535 37.311 1.064 38.386 10.677 3.586 1.2 6.689.125 10.845.232 3.164-13.228 57.857-11.361 60.487-3.386l.03-.008c2.527-.783 6.254-.594 9.146-.718a79.419 79.419 0 0 1 18.4 1.725c11.317 1.8 26.762 3.906 18.891 18.043v.007a2.236 2.236 0 0 1 -3.744-1.612c2.646-6.7-3.331-7.5-7.929-9.427-11.442-4.112-23.092-4.682-34.926-3.41a8.524 8.524 0 0 1 -3.669 2.442c-7.913 1.314-3.742 7.186-8.744 8.04.919 20.468-23.922 31.64-38.314 18.185-5.747-5.621-7.117-13.947-8.449-21.452a1.992 1.992 0 0 1 -1.414-1.054c-1.694-1.692-2.759-3.255-6.109-3.719a10.933 10.933 0 0 0 -6.278.753c-.088.177-.182.355-.292.533a2.022 2.022 0 0 1 -.6.642c3.309 20.382-12.508 33.272-28.476 22.7-6.938-6.529-8.4-16.525-8.694-25.447a2.7 2.7 0 0 1 -1.21-3.052 3.867 3.867 0 0 0 -2.279-4.387c-2.177-1.077-1.792-5.009.708-5.423" transform="translate(-85.775 233.119)"/></clipPath><clipPath id="h"><path d="m-2046 4057.463h7176.516v-4479.463h-7176.516z" transform="translate(2045.999 422)"/></clipPath><clipPath id="i"><path clip-rule="evenodd" d="m299.344-71.175a128.526 128.526 0 0 0 -7.528 12.352c-1.173 2.2-2.267 4.445-3.251 6.735-.2-4.951-.25-9.961-.828-14.864-.041-.354-.631-.526-.693-.094-.639 4.446-.744 9.006-.986 13.5a3.131 3.131 0 0 0 -.924-.134c-3.286 0-6.523.269-9.8.535-1.467.119-3 .21-4.5.444a44.7 44.7 0 0 0 3.362-4.2c1.056-1.5 2.263-3.833.423-5.27-2.033-1.587-6.02.489-7.987 1.3-1 .409-1.972.854-2.933 1.327-1.214-3.4-4.934-3.853-8.124-3.383a60.439 60.439 0 0 0 -6.7 1.706q-4.221 1.128-8.475 2.124-7.66 1.793-15.414 3.147a1.093 1.093 0 0 0 -.579-.347c-1.769-.442-3.72-.1-5.535-.07q-2.8.052-5.6-.006c-3.333-.068-6.662-.1-9.993-.154-.947-.574-2.148-1.4-2.442-2.48-.367-1.349.779-2.843 1.311-3.992a24.2 24.2 0 0 0 1.957-14.146 10.043 10.043 0 0 0 -.863-2.669c3.651.391 7.253.656 10.924.776 7.329.239 14.657.489 21.989.543q21.99.164 43.98 0c8.289-.061 16.559-.137 24.838-.56q-1.012 1.283-1.971 2.617c-.133-.04-.306.032-.285.2.007.057.013.114.02.172-1.169 1.633-2.294 3.292-3.4 4.9m-16.294 151.616-10.22-.326-20.06-.639q-19.871-.633-39.743-1.194c-13.217-.365-26.441-.75-39.662-.338-13.251.414-26.468 1.483-39.695 2.342-7.353.477-14.711.89-22.078 1.088-7.016.188-14.094-.1-21.1.4a42.775 42.775 0 0 1 -.085-5.183c2.3-1.328 4.553-2.739 6.782-4.126a184.542 184.542 0 0 0 23.053-17.03c1.114-.961 2.206-1.943 3.287-2.935a3.188 3.188 0 0 0 2.006 4.461c2.63.849 5.322.547 8.053.483q4.16-.1 8.32-.186 8.131-.172 16.263-.309 15.885-.266 31.772-.395c21.308-.172 42.6.118 63.907.5 5.991.108 11.976.243 17.967.107 3-.068 6.007-.089 9-.251 2.4-.13 4.812-.469 7.21-.774q.453 6.268.971 12.531.35 4.135.709 8.269c.1 1.137.1 2.3.264 3.378-2.3.126-4.591.2-6.92.121m2.343-117.991c-.084 3.2-.128 6.4-.151 9.6a2.679 2.679 0 0 0 -.939-.328c-3.726-.569-7.712-.137-11.482-.074-3.644.061-7.3.04-10.94.212s-7.293.378-10.94.567c-1.711.089-3.4.166-5.1.4a31.8 31.8 0 0 0 -3.893.478q7.819-7.576 15.6-15.2a1.693 1.693 0 0 0 .347-.476 65.135 65.135 0 0 0 9.807-7.215 27.523 27.523 0 0 0 7.644 1.244c3.276.266 6.511.535 9.8.535a3.246 3.246 0 0 0 .626-.06q-.241 5.155-.373 10.315m-135.362 62.142c7.959 2.543 16.581 2.514 24.861 3.023q13.24.815 26.477 1.339c17.649.686 35.286 1.618 52.933 2.36q15.119.635 30.232 1.4a3.705 3.705 0 0 0 2-.483q.507 9.956 1.2 19.9c.057.829.121 1.658.18 2.487-4.742-.6-9.448-1.165-14.226-1.568-5.365-.454-10.727-.836-16.1-1.192-10.469-.694-20.955-1.624-31.443-1.963-21.38-.691-42.807-.456-64.2-.3q-9.077.064-18.154.175-4.538.055-9.076.121c-3.041.045-6.308-.272-9.188.79-.027.01-.051.025-.078.035 8.686-8.233 16.467-17.332 24.583-26.12m27.976-26.325c13.301 2.422 26.81 2.256 40.292 2.496 13.8.246 27.609.083 41.406.111 7.837.016 15.742.361 23.552-.337a3.445 3.445 0 0 0 2.148-.929q.213 12.464.762 24.917a4.919 4.919 0 0 0 -1.634-.38c-17.63-1.038-35.262-1.979-52.914-2.554s-35.3-1.257-52.945-1.043c-8.612.1-17.719-.447-26.213 1.431 3.228-3.431 6.525-6.8 9.974-10.023 5.028-4.7 10.394-9.1 15.572-13.689m10.162-9.781a.445.445 0 0 0 .04-.064.288.288 0 0 0 .183.058c12.45-.281 26.418 3.648 38.063-2.382 5.2-2.692 9.5-6.946 13.683-11.036 0 .03.005.06.007.091a1.017 1.017 0 0 0 .5.878 17.228 17.228 0 0 0 4.457.857c1.7.247 3.362.392 5.073.495 3.772.226 7.544.466 11.317.68s7.547.231 11.317.325 7.74.552 11.482.012a2.681 2.681 0 0 0 .92-.307c.006 4.842.05 9.684.1 14.523.008.789.023 1.577.032 2.365a3.468 3.468 0 0 0 -2.085-.865c-6.938-.611-13.93-.339-20.893-.316l-20.513.068q-20.71.069-41.406.444a139.817 139.817 0 0 0 -20.012 1.783c2.678-2.441 5.282-4.953 7.735-7.606m-108.179 88.036c-2.549.78-5.079.441-7.633.976a1.384 1.384 0 0 0 -.435.174c-7.648-3.269-12.746-9.828-16.234-17.18a105.89 105.89 0 0 1 -7.91-24.426c-3.502-17.307-3.508-35.254-1.696-52.765a271.339 271.339 0 0 1 10.337-50.858c3.454-11.36 7.856-22.837 13.968-33.195 7.058 4.731 12.531 11.542 17.688 18.2a212.242 212.242 0 0 1 16.685 25.124 32.528 32.528 0 0 0 -.84 4.718c-.475 2.583-.9 5.2-1.242 7.8-.721 5.568-1.412 11.139-2.149 16.705-1.457 11.006-3.2 21.982-5.119 32.916a2.659 2.659 0 0 0 .551 2.2c-3.812 2.01-7.574 4.109-11.24 6.385-8.059 5-15.591 10.83-21.5 18.3a.2.2 0 0 0 .277.278c12.677-11.717 28.431-19.077 43.901-26.349 7.9-3.717 15.77-7.494 23.354-11.839a203.714 203.714 0 0 0 22.746-15.243 222.118 222.118 0 0 0 23.369-20.751 1.86 1.86 0 0 0 0-2.673.583.583 0 0 0 .407-.575 22.592 22.592 0 0 1 4.5-12.953c2.653-3.655 6.035-6.667 9.086-9.973a46.616 46.616 0 0 0 3.808-4.634c1.191-1.681 1.916-3.536 2.953-5.292 1.211-2.052 2.241-1 2.8.854a17.129 17.129 0 0 1 .341 6.736 20.752 20.752 0 0 1 -1.972 6.594c-.943 1.945-2.031 3.923-1.4 6.152 1.043 3.663 5.517 5.785 8.905 6.61a32.09 32.09 0 0 0 11.541.264c4.785-.6 9.547-1.471 14.277-2.4q8.217-1.614 16.326-3.72c2.54-.66 5.062-1.527 7.626-2.073a6.845 6.845 0 0 1 3.681-.01c-13.813 8.237-28.873 13.725-44.168 18.507a1.551 1.551 0 0 0 .824 2.989c16.432-4.019 31.891-11.478 46.6-19.648a1.551 1.551 0 0 0 .557-.548c1.48-.521 2.985-.973 4.519-1.347.686-.167 4.213-1.331 4.654-.884.625.634-1.537 2.691-2.078 3.289a55.119 55.119 0 0 1 -13.356 10.61 126.191 126.191 0 0 1 -15.732 7.434c-6.013 2.457-12.369 4.389-18.213 7.213-2.322 1.122-.693 4.934 1.753 4.161 3.153-1 6.216-2.461 9.279-3.706 2.6-1.056 5.205-2.112 7.793-3.2q2.706-1.143 5.371-2.372-3.987 3.753-7.974 7.508c-4.6 4.335-8.976 9.273-14.6 12.313-5.559 3-11.9 3.353-18.088 3.288-3.106-.033-6.2-.131-9.306-.006a32.535 32.535 0 0 0 -9.271 1.664.31.31 0 0 0 -.133.092.361.361 0 0 0 -.482-.086c-8.421 4.976-16.097 11.436-23.476 17.822a267.24 267.24 0 0 0 -21.584 20.969c-6.528 7.074-13 14.176-20.106 20.685a204.451 204.451 0 0 1 -22.086 17.466c-4.217 2.91-8.538 5.713-13.009 8.218a38.566 38.566 0 0 1 -7.446 3.492m.71-191.553a95.664 95.664 0 0 1 9.693-9.433 17.147 17.147 0 0 0 4.708.591c2.445.024 4.9.126 7.342.1 4.709-.048 9.415-.2 14.125-.223q14.445-.079 28.893.028a3.184 3.184 0 0 0 2.734-1.312c1.949 2.211 3.958 4.371 5.984 6.5a108.734 108.734 0 0 0 10.536 9.751c-.727.005-1.454.012-2.177.006q-5-.033-9.993-.061-10.026-.055-20.053-.082c-13.289-.035-26.619.076-39.89.757-3.684.189-7.4.265-11.067.624-1.991.195-3.979.422-5.968.634-.407.043-.8.1-1.18.159a85.592 85.592 0 0 1 6.314-8.037m53.223-30.2c-.09.061-.187.115-.273.18a.279.279 0 0 0 .066.5 6.289 6.289 0 0 0 .96.282c1.007 1.462 1.794 3.268 2.344 4.184a87.149 87.149 0 0 0 5.242 7.584c.371.491.75.977 1.13 1.462-8.944-.021-17.884.024-26.824.363-4.706.178-9.429.328-14.125.681-1.931.145-3.861.389-5.786.631a129.558 129.558 0 0 1 32.959-16.885c-.016.018-.032.031-.048.049a.294.294 0 0 0 .416.416c1.518-1.256 2.836-.667 3.94.552m45.194 85.159q-.381.578-.748 1.191a3.54 3.54 0 0 0 -2.461-1.009c-11.717-.366-23.429-.685-35.153-.693-5.782 0-11.616-.2-17.39.087-2.9.144-5.8.315-8.7.48a27.254 27.254 0 0 0 -6.157.845 217.5 217.5 0 0 0 -15.151-22.985c12.543 1.539 25.3 1.375 37.916 1.8 14.292.484 28.592.589 42.888.927q5.882.139 11.764.3 3.036.085 6.072.177c.632.019 1.287.037 1.942.019l-.149.306a31.117 31.117 0 0 1 -4.108 6.326c-3.438 4.141-7.59 7.708-10.568 12.224m-15.372 24.58a3.036 3.036 0 0 0 -3.176-2.059c-9.6.436-19.219.739-28.809 1.371-4.671.308-9.362.516-14.025.924-2.405.211-4.807.6-7.2.916a22.684 22.684 0 0 0 -4.936 1.046q.458-5.06.809-10.13c.188-2.716.245-5.457.23-8.18-.007-1.378-.054-2.765-.121-4.142a1.322 1.322 0 0 0 .423.026 5.119 5.119 0 0 0 .688-.116 24.147 24.147 0 0 0 7.043 1.222c2.773.2 5.545.408 8.318.606 5.9.421 11.855.394 17.768.587 11.64.379 23.282.6 34.924.912a11.713 11.713 0 0 0 .306 6.944 1.792 1.792 0 0 0 -1.887.478q-5.03 4.971-10.352 9.6m-33.869 24.654a3.779 3.779 0 0 0 -1.214-1.666c-2.036-1.569-5.752-.666-8.2-.546l-8.679.425a62.673 62.673 0 0 0 -8.65.973q1.02-7.706 1.849-15.438c.116-1.082.223-2.165.329-3.247a18.853 18.853 0 0 0 4.835.758c2.4.114 4.8.307 7.2.345 4.792.075 9.611-.161 14.4-.241 8.631-.143 17.264-.556 25.892-.9a251.435 251.435 0 0 1 -27.362 19.29c-.136.083-.274.162-.41.245m-27.253 3.051c.729.1 1.452.129 2.005.185 2.777.28 5.51.534 8.3.575l8.3.121 1.765.025c-7.286 3.982-14.8 7.548-22.2 11.3q.979-6.1 1.828-12.21m79.4-90.664c16.606 7.059 37.9 7.7 52.175-4.027a26.114 26.114 0 0 0 4.239.643c2.813.283 5.6.543 8.427.631 5.51.172 11.024.43 16.536.5 11.151.138 22.3.2 33.453.3a3.494 3.494 0 0 0 2.284-.745q1.694 2.873 3.139 5.892a69.452 69.452 0 0 1 3.557 9.074 4.258 4.258 0 0 0 -.657-.066c-14.655-.253-29.32.168-43.977.23s-29.32 0-43.98.1c-4.057.029-8.084.03-12.131.331-2.106.157-4.237.225-6.323.566-.233.038-.47.071-.71.1-2.8-1.634-6.266-1.293-9.461-1.353q-5.5-.1-11.005-.185-10.816-.16-21.633-.234c-14.311-.1-28.588.268-42.89.766a177.592 177.592 0 0 0 -21.229 1.764c-.472-.611-.939-1.224-1.417-1.83-4.977-6.31-10.878-14.389-19.068-16.345q.471-.768.957-1.527c5.674 1.5 11.934 1.421 17.732 1.735 6.683.361 13.351.611 20.042.775 13.3.327 26.6.532 39.9.734q5.538.085 11.076.177c1.991.033 3.983.071 5.975.1a8.755 8.755 0 0 0 3.167-.355c.982-.342 1.939-.855 2.888-1.28a2.313 2.313 0 0 0 .82-.627 66.662 66.662 0 0 0 8.115 4.149m64.886-23.463a33.257 33.257 0 0 0 6.452.843c2.9.22 5.79.257 8.7.275 4.633.03 9.268 0 13.9-.13a3.566 3.566 0 0 0 3.5-2.913c.048.039.1.077.145.116a88.892 88.892 0 0 1 15.074 15.843c-10.424.033-20.85.04-31.275.11-5.511.037-11.027.264-16.536.406-2.7.069-5.366.293-8.058.549l-.164.015c.285-.329.568-.663.845-1.006a42.031 42.031 0 0 0 7.423-14.108m67.771 209.359c.92-2.532.563-5.247.511-7.909q-.08-4.1-.092-8.193-.027-8.01-.113-16.019c-.119-10.8-.244-21.613-.669-32.408-.84-21.342-2.458-42.632-5.1-63.83-1.284-10.306-2.876-20.588-5.038-30.749l.091-.124c2.153-2.877 4.6-5.537 6.715-8.434a1.541 1.541 0 0 0 .264-.92c.077-.038.155-.077.234-.122a1.571 1.571 0 0 0 -1.584-2.711c.2-.116-2.711-7.6-3.019-8.348a77.792 77.792 0 0 0 -3.761-7.913c-.848-1.546-1.756-3.06-2.707-4.546a3.579 3.579 0 0 0 -1.795-2.688 85.375 85.375 0 0 0 -5.836-7.446 96.6 96.6 0 0 0 -30.763-23.116c-1.679-.806-3.407-1.478-5.129-2.182-1.833-.75-3.534-1.73-5.34-2.518a10.133 10.133 0 0 0 -8.73.149c-.247.116-.07.5.181.43a10.627 10.627 0 0 1 5.628-.04 20.342 20.342 0 0 1 4.81 2.607c2.841 1.7 6.018 2.8 8.93 4.382a116.309 116.309 0 0 1 11.215 6.916q-5.6.3-11.2.439c-2.773.074-5.545.086-8.315.248a59.061 59.061 0 0 0 -5.991.4 29.8 29.8 0 0 0 -.118-9.745s0 0 0 0c-.143-.767-.317-1.528-.531-2.28a1.944 1.944 0 0 0 -2.973-1.235c-.105-.077-.211-.153-.312-.236a21.213 21.213 0 0 1 -3.4-3.559 38.324 38.324 0 0 1 -4.992-8.95 85.853 85.853 0 0 1 -3.072-9.817c-.445-1.658-3.32-.329-3.072 1.517a53.33 53.33 0 0 0 2.667 11.235 35.394 35.394 0 0 0 5.229 9.683c1.514 1.952 3.665 4.537 6.156 5.59a33.94 33.94 0 0 1 -.577 10.963 34.9 34.9 0 0 1 -6.278 13.133c-6.245 8.11-15.906 12.693-25.986 13.637a57.773 57.773 0 0 1 -30.47-5.944c-10.423-5.1-19.069-12.977-26.835-21.476-4.477-4.9-9.119-9.719-13.268-14.9-.735-.919-1.912-2.783-3.308-4.463a35.316 35.316 0 0 0 4.136-.387 64.3 64.3 0 0 0 7.687-1.5 47.942 47.942 0 0 0 13.92-5.554c8.789-5.633 4.246-10.613 5.418-20.457.371-3.112.531 4.222-1 8.832-1.472 4.43-3.605 6.081-7.682 8.523-3.827 2.293-8.176 3.625-12.392 5-2.336.762-4.7 1.458-7.056 2.159a37.68 37.68 0 0 0 -4.8 1.525 6.022 6.022 0 0 0 -2.456-1.421.158.158 0 0 0 -.172-.233c-.245.049-.489.1-.734.154a2.722 2.722 0 0 0 -.736.154 103.174 103.174 0 0 0 -40.745 19.184 9.091 9.091 0 0 0 -1.741.95 1.309 1.309 0 0 0 -.529.849q-2.7 2.2-5.227 4.569c-13.574 12.7-22.175 29.6-28.2 46.973a259.138 259.138 0 0 0 -12.155 53.047c-2.251 18.322-2.51 37.025.754 55.243a116.072 116.072 0 0 0 8.776 28.419c3.761 8.1 9.883 17.335 19.5 18.322.031.031.06.063.094.092 3.773 3.108 9.39.962 13.335-.9.625-.295 1.246-.6 1.863-.922a19.562 19.562 0 0 0 -.542 3.806c-.142 2.561 3.468 2.707 4.152.581a99.924 99.924 0 0 0 17.814 1.011c6.614-.037 13.225-.266 19.831-.577 13.107-.618 26.2-1.564 39.314-1.993 26.557-.87 53.187.989 79.722 1.925l22.332.788c7.606.268 15.2.32 22.748 1.349a2.851 2.851 0 0 0 3.054-4.036 15.675 15.675 0 0 0 -.106-3.726q-.3-3.757-.564-7.518-.517-7.331-.993-14.666c-.64-9.908-1.19-19.824-1.726-29.738q-1.6-29.569-2.479-59.173-.22-7.215-.579-14.427c.287-.455.574-.912.851-1.373.922-1.538 1.826-3.087 2.76-4.618 1.873-3.07 3.758-6.12 5.728-9.129 1.7-2.6 3.456-5.158 5.289-7.664 2.276 19.229 4.3 38.477 5.228 57.829 1.023 21.315 1.566 42.662 1.861 64 .082 5.961.138 11.922.2 17.883.033 3.1.066 6.206.041 9.311-.025 2.968-.473 6.216.58 9.026a1.763 1.763 0 0 0 3.369 0z" transform="translate(-40.775 172.696)"/></clipPath><clipPath id="j"><path clip-rule="evenodd" d="m224.176-77.088q.7-.24 1.385-.5a1.383 1.383 0 0 0 .137.308c.065.16.129.315.2.472a5.526 5.526 0 0 1 -1.723-.281m-.926-197.118a10.863 10.863 0 0 0 -.706-1.328 8.241 8.241 0 0 1 1.875.872c-.395.133-.782.285-1.169.456m-98.608 60.184-.079-.013a6.411 6.411 0 0 1 1.608-2.373c.12-.111.249-.213.374-.319a19.113 19.113 0 0 0 -1.9 2.7m180.428 94.5c-.334-3.174-.759-6.335-1.309-9.479-.528-3.01-.972-6.229-2.5-8.9a65.108 65.108 0 0 0 -4.847-7.584 32.624 32.624 0 0 1 .9-3.223c1.708-5.213 3.39-11.834-.159-16.678a11.629 11.629 0 0 0 -2.98-2.759 8.008 8.008 0 0 1 -1.678-1.088c-.266-.323-.174-.148-.186-.308-.065-.86 1.947-2.675 2.418-3.356a16.722 16.722 0 0 0 2.038-4.129c1.981-5.738.634-12.059-.558-17.809a71.568 71.568 0 0 1 -1.553-9.216 56.3 56.3 0 0 1 .421-8.683 16.863 16.863 0 0 0 -1.059-8.486 9.341 9.341 0 0 0 -2.612-3.326c-1.078-.871-2.422-1.377-3.473-2.245s-.748-2.032-.474-3.227a24.867 24.867 0 0 0 .9-4.9 12.047 12.047 0 0 0 -2.96-7.968 11.821 11.821 0 0 0 -7.6-4.167c-1.351-.16-2.68.111-4.023.016-1.329-.091-1.617-.757-1.867-1.975-.577-2.789-.342-5.544-1.711-8.147a10.663 10.663 0 0 0 -5.762-4.806c-4.376-1.7-9.466-1.347-14.082-.347-2.725-8.036-11.231-13.306-19.6-13.371a11.867 11.867 0 0 0 -6.043-4.856c-4.175-1.617-8.6-.673-12.947-.673h-.019q-.655-.041-1.309-.034-.615-.035-1.23-.1c-4.95-.586-9.846-2.618-14.75-.628a10.446 10.446 0 0 0 -5.025 4c-1.659.452-3.3.97-4.9 1.572a20.919 20.919 0 0 0 -17.369 9.985c-4.954-.563-10.328.392-13.6 4.448a11.576 11.576 0 0 0 -1.952 3.612 16.2 16.2 0 0 0 -8.454 5.919 9.256 9.256 0 0 0 -.952 8.929 17.385 17.385 0 0 0 -6.435 8.926 13.678 13.678 0 0 0 -.345 6.711 22.878 22.878 0 0 0 -8.56 3.826c-2.711 1.978-6.1 5.127-6.276 8.751a6.136 6.136 0 0 0 .018.8c-5.969-.42-12.055.593-16.089 5.391a15.185 15.185 0 0 0 -3.538 12.454 33.084 33.084 0 0 0 -18.5 10.67c-3.4 4-6.43 9.083-6.248 14.528a13.3 13.3 0 0 0 1.1 4.818c-.285.537-.577 1.134-.858 1.77a26.36 26.36 0 0 0 -9.394 13.253c-1.453 4.318-2.368 9.928-.816 14.323a10.477 10.477 0 0 0 .885 1.887c-.293.312-.569.624-.839.94-2.965 3.474-5.967 7.85-5.762 12.633a10.1 10.1 0 0 0 1.962 5.453c-4.1 4.167-7.4 9.426-7.076 15.3.281 5.111 3.079 10.3 7.462 12.755a12.378 12.378 0 0 0 3.306 11.168 11.891 11.891 0 0 0 5.231 3.09c.425 4.638 4.532 8.371 8.893 9.444a14.171 14.171 0 0 0 2.433.38 15.022 15.022 0 0 0 12.609-.061 12.947 12.947 0 0 0 4.498 3.605 14.668 14.668 0 0 0 2.293.894c5.656 1.678 11.456-.6 16.4-3.253.159-.084.452-.19.71-.308a11.555 11.555 0 0 0 2.577 1.895 13.4 13.4 0 0 0 7.421 1.69 18.256 18.256 0 0 0 8-2.576 9.116 9.116 0 0 0 1.067.114 10.379 10.379 0 0 0 6.134-1.743 12.08 12.08 0 0 0 3.7-.076c2.76.7 5.447-.415 7.606-2.192a34.6 34.6 0 0 0 2.631-2.6 10.009 10.009 0 0 1 2.634-1.747c2.487-1.457 2.786-5.152 1.708-7.824a3.862 3.862 0 0 0 .323-1.567c-.008-5.046-2.327-9.673-5.174-13.71a46.486 46.486 0 0 0 -4.168-5.16c-1.218-1.283-2.93-3.364-4.733-3.885-.11-.079-.224-.16-.338-.236a10.908 10.908 0 0 0 .467-3.748 7.71 7.71 0 0 0 -1.188-3.607 25.745 25.745 0 0 0 2.767-14.269 24.545 24.545 0 0 0 3.962-8.691 25.7 25.7 0 0 0 .664-6.043c-.015-.966-.368-2.188-.375-3.188.053.316.463-.864.622-1.157 1.829-3.405 4.179-6.061 4.57-10.076a10.237 10.237 0 0 0 -1.731-6.868 17.108 17.108 0 0 0 -.528-10.761 21.047 21.047 0 0 0 -1.317-2.633c.231-.708.444-1.423.717-2.066.107-.255.213-.513.319-.772a26.036 26.036 0 0 0 2.79-2.877 13.045 13.045 0 0 0 3.317-7.481 11.8 11.8 0 0 0 -.664-4.147c-.183-.613-.293-1.294-.509-1.891-.121-.331-.414-.67-.516-.982l-.057-.171a1.181 1.181 0 0 0 .027-.32c0-1.366.182-2.7.19-4.018a10.991 10.991 0 0 0 4.46 2.759 12.6 12.6 0 0 0 10.081-1.1 31.2 31.2 0 0 0 10.83 5.111c2.3.487 4.6.285 6.9.586a32.706 32.706 0 0 1 6.658 2.081c4.8 1.739 9.584 3.523 14.4 5.217 3.887 1.366 8.092 2.45 12.162 1.682a13.227 13.227 0 0 0 4.528 4.353 13.388 13.388 0 0 0 4.4 1.571c1.367.232 2.969.141 4.077 1.081 1.082.913 1.757 2.275 2.729 3.3a14.2 14.2 0 0 0 3.819 2.862 14.938 14.938 0 0 0 3.435 1.259c-.1 2.6-.2 5.194-.232 7.8-.057 5.655-.034 11.309-.11 16.964q-.114 8.453-.55 16.9a85.368 85.368 0 0 1 -1.932 15.734c-4.168 17.1-19.78 29.338-37.255 29.962a46.128 46.128 0 0 1 -15.285-2.08c-5.139-1.586-9.728-4.852-15-5.856a1.7 1.7 0 0 0 -1.886 2.465 14.154 14.154 0 0 0 5.268 5.076 41.691 41.691 0 0 0 7.6 3.448 52.729 52.729 0 0 0 14.918 2.995 47.376 47.376 0 0 0 11.55-.784 21.141 21.141 0 0 0 1.093 2.371c.053.11.232.034.2-.08a2.871 2.871 0 0 1 -.11-.495 10.025 10.025 0 0 0 5.268 3.379 11.668 11.668 0 0 0 4.411.35 13.236 13.236 0 0 0 1.374-.232 12.269 12.269 0 0 0 5.329 2.626 4.072 4.072 0 0 0 2.957 4.772 8.225 8.225 0 0 0 2.816.156 11.41 11.41 0 0 0 2.406.811 3.744 3.744 0 0 0 3.279-.875 5.637 5.637 0 0 1 1.313 1.061c1.75 2.116 5.523.43 5.69-2.016.554 0 1.112.008 1.671.027.132.061.265.122.4.186 2.441 1.137 4.969 2.131 7.668 1.237a7.03 7.03 0 0 0 1.366-.616 13.951 13.951 0 0 0 5.705-.449 9.034 9.034 0 0 0 3.1-1.724c2.976.875 6.115 1.271 9.076.186a11.207 11.207 0 0 0 5.257-3.775 11.353 11.353 0 0 0 5.629-1.313c3.006-1.56 5.113-4.525 6.582-7.5a61.17 61.17 0 0 0 5.9-20.864c.74-7.154-.315-14.269-1.059-21.382" transform="translate(-55.401 282.834)"/></clipPath><clipPath id="k"><path clip-rule="evenodd" d="m170.58-166.492c1.3-2.3 5.2-1.929 5.795.758 1.208 5.447-5.285 10.477-10.216 10.6-4.9.124-10.4-4.048-9.689-9.318.175-1.3 1.916-1.145 2.509-.328l.23.313c1.612 2.166 3.738 4.408 6.729 3.88a5.122 5.122 0 0 0 3.115-1.991c.904-1.201.805-2.638 1.527-3.914zm-31.16-39.848a2.912 2.912 0 0 1 1.923.138 3.785 3.785 0 0 1 2.8 2.588q.046.163.1.321l.059.158-.158-.4c.073.395.394.81.51 1.207a4.351 4.351 0 0 1 .129 1.578c.418 0 .835.018 1.252.054l.4.036c2.253.209 4.726.594 6.062 2.541a2.241 2.241 0 0 1 -1.332 3.276c-2.121.325-3.949-.85-6.063-1.085a21.11 21.11 0 0 0 -6.062.266c-4.073.745-7.815 2.4-11.784 3.432l-.54.137c-.68.164-1.452-.782-.779-1.335a35.152 35.152 0 0 1 11.26-6.02 3.592 3.592 0 0 1 -.366-3.152c.062-.207.139-.408.219-.609l.169-.412a3 3 0 0 1 .108-.575l.009-.057h.005a3.113 3.113 0 0 1 2.08-2.087zm40.565.15a2.22 2.22 0 0 1 3-.057l.12.094a4.957 4.957 0 0 1 2.028 1.981 4.951 4.951 0 0 1 .816 2.494 7.375 7.375 0 0 1 5.667 2.339 2.195 2.195 0 0 1 .565 2.139l-.163.443c-.519 1.405-2.852 2.214-3.645.562l-.037-.08c-.843-1.962-4.077-1.756-5.8-1.556a22.158 22.158 0 0 0 -3.539.772c-.408.118-.812.245-1.215.376l-.4.131c-.215.07-1.337.679-.639.535.188-.039.329.234.137.326a1.236 1.236 0 0 1 -1.663-1.288c.1-1.551 2.558-2.4 3.743-2.936l.071-.032c.454-.21.93-.411 1.421-.6a6.883 6.883 0 0 1 -.694-1.358 6 6 0 0 1 -.365-1.4 1.367 1.367 0 0 1 0-.722l.01-.069a2.221 2.221 0 0 1 -.047-.489l-.007-.064h.007a2.351 2.351 0 0 1 .629-1.541zm-13.894 16.516c3.341 1.033 8.852 3.846 7.112 8.188-2.431 3.988-8.878 1.057-12-.231a2.235 2.235 0 0 0 -1.554 4.191c22.426 8.876 22.344-14.549 7.258-14.2-1.664.033-1.716 1.709-.816 2.053zm-29.671-30.543.57-.166c2.961-.858 5.984-2.34 8.613-.028a3.262 3.262 0 0 1 .506 3.927c-1.683 2.58-4.178 2.186-6.9 2.406a21.4 21.4 0 0 0 -6.039 1.535 21.218 21.218 0 0 0 -4.425 2.472c-1.358.959-2.286 2.459-3.679 3.322a.885.885 0 0 1 -1.283-.523c-.65-1.821.448-4.089 1.377-5.64a14.413 14.413 0 0 1 4.708-4.612 25.389 25.389 0 0 1 6.548-2.694zm43.149-1.959a15.7 15.7 0 0 1 12.621 6.866 3.128 3.128 0 0 1 -1.111 4.241 3.176 3.176 0 0 1 -4.179-1.031l-.06-.078a15.577 15.577 0 0 0 -6.129-4.92 16.2 16.2 0 0 0 -3.816-1.19l-.418-.072a5.81 5.81 0 0 0 -1.8-.1 2.04 2.04 0 0 0 -.786.274.328.328 0 0 1 -.459.406c-1.244-.683-1.091-1.9-.064-2.85 1.457-1.344 4.324-1.546 6.201-1.546z" transform="translate(-123.592 222.176)"/></clipPath><g clip-path="url(#b)" transform="translate(364.484 341.27)"><g clip-path="url(#a)" transform="translate(-6754.24 -542.815)"><path d="m358.885-148.422h-235.73v153.329h235.73z" fill="#fff" transform="translate(6621.745 681.896)"/></g></g><g clip-path="url(#c)" transform="translate(360.137 254.253)"><g clip-path="url(#a)" transform="translate(-6749.893 -455.797)"><path d="m444.035-195h-413.965v300.8h413.965z" fill="#140091" transform="translate(6710.482 641.461)"/></g></g><g clip-path="url(#d)" transform="translate(501.836 75.402)"><g clip-path="url(#a)" transform="translate(-6891.592 -276.947)"><path d="m263.459-290.746h-188.602v218.982h188.6z" fill="#110091" transform="translate(6807.395 558.352)"/></g></g><g clip-path="url(#e)" transform="translate(519.521 170.181)"><g clip-path="url(#a)" transform="translate(-6909.277 -371.726)"><path d="m207.81-240.009h-89.218v92.427h89.218z" fill="#3f3056" transform="translate(6781.345 602.394)"/></g></g><g clip-path="url(#f)" transform="translate(509.469 201.742)"><g clip-path="url(#a)" transform="translate(-6899.225 -403.287)"><path d="m234.55-223.114h-135.184v109.159h135.184z" fill="#110091" transform="translate(6790.519 617.06)"/></g></g><g clip-path="url(#g)" transform="translate(495.997 173.711)"><g clip-path="url(#a)" transform="translate(-6885.752 -375.255)"><path d="m264.161-238.12h-183.386v66.13h183.386z" fill="#110091" transform="translate(6795.638 604.034)"/></g></g><path d="m379.187 16.764-51.108-4.4 4.621 63.052 55 3.44z" fill="#fff" transform="translate(74.717 361.147)"/><g clip-path="url(#i)" transform="translate(60.294 275.364)"><g clip-path="url(#h)" transform="translate(-3757.093 -445.521)"><path d="m35.775-181.859h292.525v283.544h-292.525z" fill="#110091" transform="translate(3712.316 614.216)"/></g></g><g clip-path="url(#j)" transform="translate(86.628 80.402)"><g clip-path="url(#h)" transform="translate(-3783.426 -250.559)"><path d="m50.4-287.834h268.985v241.6h-268.985z" fill="#0d0091" transform="translate(3724.023 529.39)"/></g></g><g clip-path="url(#k)" transform="translate(209.4 189.612)"><g clip-path="url(#h)" transform="translate(-3906.198 -359.768)"><path d="m118.591-227.176h87.042v85.051h-87.042z" fill="#3f3056" transform="translate(3778.605 577.942)"/></g></g><g fill="#110091" font-family="Oduda-Bold, Oduda" font-weight="700"><text font-size="107" transform="matrix(.97437006 -.22495105 .22495105 .97437006 24.294 160.779)"><tspan x="0" y="0">?</tspan></text><text font-size="72" transform="matrix(.99254615 .12186934 -.12186934 .99254615 95.745 77.246)"><tspan x="0" y="0">?</tspan></text><text font-size="45" transform="matrix(.95105652 -.30901699 .30901699 .95105652 167.507 86.772)"><tspan x="0" y="0">?</tspan></text></g><g fill="#140091"><path d="m27.762 959.05a12.338 12.338 0 0 0 -12.375 12.281v62.125a12.287 12.287 0 0 0 12.375 12.219h44.468a12.288 12.288 0 0 0 12.376-12.219v-52.687a1.1 1.1 0 0 0 0-.25q0-.031 0-.062a1.1 1.1 0 0 0 -.03-.156q0-.031 0-.062l-.03-.031c0-.01 0-.021 0-.031s-.019-.042-.03-.062 0-.021 0-.031a1.1 1.1 0 0 0 -.09-.156q-.029-.032-.06-.062l-.03-.031q-.014-.031-.03-.062l-18.781-20.373a1.195 1.195 0 0 0 -.782-.343h-36.967zm0 2.219h35.844v8.125a12.314 12.314 0 0 0 12.374 12.25h6.407v51.813a10.038 10.038 0 0 1 -10.157 10.031h-44.468a10.037 10.037 0 0 1 -10.156-10.031v-62.126a10.066 10.066 0 0 1 10.156-10.062zm38.062 1.719 15.156 16.437h-5a10.037 10.037 0 0 1 -10.156-10.031z" transform="matrix(.93969262 .34202014 -.34202014 .93969262 1014.137274 -885.921803)"/><path d="m30.589 39.542a14.911 14.911 0 0 1 2.613 8.2v3.994a.6.6 0 0 0 .2.448l2.611 2.35a.6.6 0 0 0 .4.154h2.612a.6.6 0 0 0 .4-.154l2.611-2.35a.6.6 0 0 0 .2-.448v-3.992a14.915 14.915 0 0 1 2.613-8.2c1.073-1.847 2.088-3.591 2.088-5.9a9.22 9.22 0 1 0 -18.44 0c.003 2.307 1.019 4.051 2.092 5.898zm8.211 13.944h-2.15l-1.393-1.254h4.935zm2.24-2.243h-6.63v-1.008h6.63zm0-2h-6.63v-1.004h6.63v1.007zm-3.315-23.62a8.024 8.024 0 0 1 8.015 8.015c0 1.984-.892 3.518-1.924 5.294a16.342 16.342 0 0 0 -2.764 8.313h-6.657a16.348 16.348 0 0 0 -2.765-8.313c-1.033-1.776-1.924-3.31-1.924-5.294a8.025 8.025 0 0 1 8.016-8.012z" transform="matrix(.93969262 .34202014 -.34202014 .93969262 694.301377 28.882315)"/><path d="m14.638 45.12a.6.6 0 0 0 -.6-.6h-4.355a.6.6 0 1 0 0 1.2h4.353a.6.6 0 0 0 .602-.6z" transform="matrix(.93969262 .34202014 -.34202014 .93969262 708.649813 21.89115)"/><path d="m49.2 10.557a.6.6 0 0 0 .6-.6v-4.357a.6.6 0 0 0 -.6-.6.6.6 0 0 0 -.6.6v4.354a.6.6 0 0 0 .6.6z" transform="matrix(.93969262 .34202014 -.34202014 .93969262 679.722495 35.38096)"/><path d="m31.917 15.187a.6.6 0 0 0 .22-.823l-2.179-3.774a.6.6 0 1 0 -1.043.6l2.179 3.774a.6.6 0 0 0 .823.223z" transform="matrix(.93969262 .34202014 -.34202014 .93969262 691.361109 36.402188)"/><path d="m64.4 14.965 2.179-3.773a.6.6 0 0 0 -1.044-.6l-2.178 3.773a.6.6 0 0 0 1.043.6z" transform="matrix(.93969262 .34202014 -.34202014 .93969262 672.877355 29.674651)"/><path d="m18.443 28.058a.6.6 0 0 0 .6-1.043l-3.772-2.177a.6.6 0 0 0 -.6 1.043z" transform="matrix(.93969262 .34202014 -.34202014 .93969262 701.950962 31.463278)"/><path d="m74.929 28.057 3.771-2.178a.6.6 0 0 0 -.6-1.043l-3.772 2.177a.6.6 0 1 0 .6 1.043z" transform="matrix(.93969262 .34202014 -.34202014 .93969262 669.933413 19.810907)"/><path d="m82.917 44.518h-4.353a.6.6 0 1 0 0 1.2h4.353a.6.6 0 0 0 0-1.2z" transform="matrix(.93969262 .34202014 -.34202014 .93969262 671.681365 8.435736)"/><path d="m23.272 959.05a7.862 7.862 0 0 0 -7.885 7.826v39.586a7.829 7.829 0 0 0 7.885 7.786h28.335a7.83 7.83 0 0 0 7.886-7.786v-33.573a.7.7 0 0 0 0-.159q0-.02 0-.04a.7.7 0 0 0 -.019-.1q0-.02 0-.04l-.019-.02c0-.007 0-.013 0-.02s-.012-.026-.019-.039 0-.013 0-.02a.706.706 0 0 0 -.057-.1q-.018-.021-.038-.039l-.019-.02c-.006-.013-.012-.026-.019-.039l-11.968-12.982a.762.762 0 0 0 -.5-.219h-23.554zm0 1.414h22.84v5.177a7.846 7.846 0 0 0 7.888 7.806h4.083v33.015a6.4 6.4 0 0 1 -6.472 6.392h-28.339a6.4 6.4 0 0 1 -6.471-6.392v-39.587a6.414 6.414 0 0 1 6.471-6.412zm24.253 1.1 9.657 10.474h-3.182a6.4 6.4 0 0 1 -6.471-6.392z" transform="matrix(.99026807 -.1391731 .1391731 .99026807 422.652573 -941.436168)"/><path d="m29.832 34.056a9.5 9.5 0 0 1 1.668 5.227v2.545a.385.385 0 0 0 .127.285l1.664 1.5a.383.383 0 0 0 .257.1h1.664a.382.382 0 0 0 .256-.1l1.664-1.5a.384.384 0 0 0 .127-.285v-2.545a9.5 9.5 0 0 1 1.665-5.227 7.272 7.272 0 0 0 1.33-3.759 5.875 5.875 0 1 0 -11.75 0 7.272 7.272 0 0 0 1.328 3.759zm5.23 8.885h-1.37l-.887-.8h3.145zm1.427-1.429h-4.225v-.642h4.225zm0-1.273h-4.225v-.639h4.225v.642zm-2.112-15.05a5.113 5.113 0 0 1 5.107 5.111 6.592 6.592 0 0 1 -1.226 3.374 10.413 10.413 0 0 0 -1.762 5.3h-4.24a10.417 10.417 0 0 0 -1.762-5.3 6.592 6.592 0 0 1 -1.225-3.374 5.114 5.114 0 0 1 5.108-5.111z" transform="matrix(.99026807 -.1391731 .1391731 .99026807 558.848867 5.369217)"/><path d="m12.622 44.9a.384.384 0 0 0 -.383-.383h-2.774a.384.384 0 1 0 0 .767h2.774a.383.383 0 0 0 .383-.384z" transform="matrix(.99026807 -.1391731 .1391731 .99026807 570.793026 -11.056947)"/><path d="m48.98 8.541a.384.384 0 0 0 .384-.384v-2.773a.384.384 0 0 0 -.384-.384.384.384 0 0 0 -.384.384v2.773a.384.384 0 0 0 .384.384z" transform="matrix(.99026807 -.1391731 .1391731 .99026807 546.35241 21.379196)"/><path d="m30.8 13.41a.384.384 0 0 0 .14-.524l-1.388-2.4a.384.384 0 1 0 -.664.384l1.388 2.4a.383.383 0 0 0 .524.14z" transform="matrix(.99026807 -.1391731 .1391731 .99026807 560.038669 15.57394)"/><path d="m63.992 13.269 1.388-2.4a.384.384 0 0 0 -.665-.384l-1.388 2.4a.384.384 0 0 0 .665.384z" transform="matrix(.99026807 -.1391731 .1391731 .99026807 535.253388 19.058294)"/><path d="m16.965 26.86a.384.384 0 0 0 .383-.665l-2.4-1.387a.384.384 0 0 0 -.383.665z" transform="matrix(.99026807 -.1391731 .1391731 .99026807 568.986091 3.699135)"/><path d="m74.6 26.859 2.4-1.388a.384.384 0 0 0 -.383-.665l-2.4 1.387a.384.384 0 1 0 .383.665z" transform="matrix(.99026807 -.1391731 .1391731 .99026807 526.053158 9.733975)"/><path d="m81.119 44.518h-2.773a.384.384 0 1 0 0 .767h2.773a.384.384 0 0 0 0-.767z" transform="matrix(.99026807 -.1391731 .1391731 .99026807 521.222187 -4.09022)"/><path d="m22.281 959.05a6.874 6.874 0 0 0 -6.894 6.842v34.61a6.845 6.845 0 0 0 6.894 6.807h24.773a6.846 6.846 0 0 0 6.895-6.807v-29.353a.612.612 0 0 0 0-.139c0-.012 0-.023 0-.035a.614.614 0 0 0 -.017-.087q0-.017 0-.035l-.017-.017c0-.006 0-.012 0-.017l-.017-.034c0-.006 0-.012 0-.017a.616.616 0 0 0 -.05-.087l-.033-.034-.017-.017-.017-.034-10.462-11.353a.666.666 0 0 0 -.436-.191h-20.594zm0 1.236h19.969v4.526a6.86 6.86 0 0 0 6.894 6.825h3.569v28.863a5.592 5.592 0 0 1 -5.658 5.589h-24.774a5.592 5.592 0 0 1 -5.658-5.589v-34.61a5.608 5.608 0 0 1 5.658-5.606zm21.2.958 8.443 9.157h-2.781a5.592 5.592 0 0 1 -5.658-5.588z" transform="matrix(.8571673 .51503807 -.51503807 .8571673 1213.539184 -668.659702)"/><path d="m29.665 32.845a8.307 8.307 0 0 1 1.456 4.57v2.225a.336.336 0 0 0 .111.249l1.454 1.311a.335.335 0 0 0 .224.086h1.455a.334.334 0 0 0 .224-.086l1.455-1.309a.336.336 0 0 0 .111-.249v-2.227a8.309 8.309 0 0 1 1.456-4.57 6.358 6.358 0 0 0 1.163-3.287 5.136 5.136 0 1 0 -10.273 0 6.358 6.358 0 0 0 1.164 3.287zm4.572 7.768h-1.2l-.776-.7h2.749zm1.248-1.249h-3.694v-.564h3.694v.562zm0-1.113h-3.694v-.561h3.694zm-1.847-13.158a4.47 4.47 0 0 1 4.462 4.465 5.764 5.764 0 0 1 -1.072 2.949 9.1 9.1 0 0 0 -1.54 4.631h-3.703a9.107 9.107 0 0 0 -1.54-4.631 5.764 5.764 0 0 1 -1.072-2.949 4.471 4.471 0 0 1 4.465-4.465z" transform="matrix(.8571673 .51503807 -.51503807 .8571673 723.21082 149.445725)"/><path d="m12.177 44.853a.335.335 0 0 0 -.335-.335h-2.426a.335.335 0 1 0 0 .671h2.425a.335.335 0 0 0 .336-.336z" transform="matrix(.8571673 .51503807 -.51503807 .8571673 743.757602 143.948986)"/><path d="m48.931 8.1a.336.336 0 0 0 .335-.335v-2.43a.336.336 0 0 0 -.335-.335.336.336 0 0 0 -.335.335v2.425a.336.336 0 0 0 .335.336z" transform="matrix(.8571673 .51503807 -.51503807 .8571673 702.488868 154.239894)"/><path d="m30.552 13.018a.335.335 0 0 0 .123-.458l-1.214-2.1a.335.335 0 1 0 -.581.335l1.214 2.1a.335.335 0 0 0 .458.123z" transform="matrix(.8571673 .51503807 -.51503807 .8571673 717.452835 158.535453)"/><path d="m63.9 12.894 1.214-2.1a.336.336 0 0 0 -.582-.335l-1.213 2.1a.336.336 0 0 0 .581.335z" transform="matrix(.8571673 .51503807 -.51503807 .8571673 694.984766 145.035276)"/><path d="m16.639 26.6a.336.336 0 0 0 .335-.581l-2.1-1.213a.336.336 0 0 0 -.335.581z" transform="matrix(.8571673 .51503807 -.51503807 .8571673 732.561846 154.766896)"/><path d="m74.529 26.595 2.1-1.213a.335.335 0 0 0 -.329-.582l-2.1 1.213a.336.336 0 1 0 .335.581z" transform="matrix(.8571673 .51503807 -.51503807 .8571673 693.642507 131.382965)"/><path d="m80.722 44.518h-2.422a.335.335 0 1 0 0 .671h2.425a.335.335 0 0 0 0-.671z" transform="matrix(.8571673 .51503807 -.51503807 .8571673 698.821463 116.94863)"/></g></svg>