<svg width="360" height="334" viewBox="0 0 360 334" fill="none" xmlns="http://www.w3.org/2000/svg">
<path fill-rule="evenodd" clip-rule="evenodd" d="M316.947 195.265C316.943 197.312 316.919 199.36 316.94 201.407C316.963 203.474 316.982 203.5 318.967 203.527C321.179 203.557 323.391 203.535 325.603 203.535C333.222 203.534 340.841 203.529 348.461 203.536C351.562 203.539 352.106 204.124 353.493 207.065C354.472 209.139 354.779 211.313 354.731 213.437C354.581 220.067 355.229 226.665 355.426 233.276C355.549 237.428 355.385 241.625 355.87 245.74C356.324 249.586 355.906 253.435 356.346 257.23C356.802 261.151 356.382 265.094 356.859 268.96C357.344 272.889 356.877 276.819 357.325 280.696C357.806 284.862 357.364 289.05 357.851 293.163C358.287 296.849 357.88 300.528 358.3 304.163C358.782 308.326 358.372 312.513 358.831 316.629C359.26 320.477 359.09 324.297 359.228 328.127C359.237 328.373 359.22 328.62 359.244 328.864C359.493 331.349 359.489 331.243 357.121 331.379C342.483 332.213 327.816 331.349 313.191 331.961C299.602 332.53 286.017 331.85 272.453 332.449C266.731 332.702 261.021 332.718 255.305 332.823C252.516 332.874 252.407 332.785 251.523 330.064C250.088 325.644 248.936 321.145 248.118 316.573C247.201 311.453 246.535 306.303 246.046 301.113C245.441 294.687 245.024 288.27 245.141 281.82C245.173 280.097 244.509 278.47 244.625 276.719C245.013 270.851 244.936 264.955 245.258 259.096C245.539 254.001 246.024 248.886 246.504 243.787C247.236 236.006 248.386 228.295 249.638 220.598C250.381 216.027 251.542 211.52 252.606 207.006C252.914 205.699 253.64 204.692 255.222 204.436C256.349 204.255 257.45 204.009 258.605 204.016C262.127 204.04 265.668 204.239 269.169 203.963C272.551 203.695 275.955 204.328 279.315 203.569C280.012 203.412 280.762 203.575 281.497 203.746C283.266 204.161 283.438 204.012 283.466 202.138C283.5 199.845 283.473 197.551 283.472 195.258C284.088 195.076 284.271 195.53 284.481 195.944C285.044 201.064 284.662 206.199 284.702 211.324C285.344 217.523 291.448 222.93 298.431 223.477C308.137 224.238 315.766 217.213 315.775 207.509C315.777 204.244 315.714 200.976 315.816 197.714C315.843 196.826 315.304 195.483 316.947 195.265Z" fill="#F0F5F0"/>
<path fill-rule="evenodd" clip-rule="evenodd" d="M262.396 105.285C262.036 103.142 262.891 101.103 262.88 98.9606C262.804 83.3938 262.539 67.8189 262.927 52.2611C263.327 36.3018 263.246 20.347 263.341 4.39C263.359 1.32247 264.759 -0.0155151 267.87 0.000135643C272.192 0.0219268 276.493 0.373793 280.779 0.928656C280.941 0.949858 281.106 0.977823 281.268 0.965643C284.956 0.68731 288.622 1.28728 292.257 1.60983C295.492 1.89673 298.766 1.66035 301.995 2.3519C304.201 2.82421 306.55 2.73038 308.806 2.81654C312.316 2.94962 315.834 3.22028 319.299 3.56989C322.538 3.89694 325.796 3.82115 329.04 4.26595C331.833 4.64894 334.714 4.80818 337.566 4.90517C340.292 4.99764 341.006 5.68017 341.024 8.46351C341.045 11.8225 341.268 15.2026 340.983 18.5372C340.06 29.3286 341.105 40.1507 340.448 50.9195C339.803 61.4795 340.591 72.0417 339.943 82.5651C339.515 89.523 339.812 96.4624 339.519 103.401C339.437 105.343 338.987 107.272 339.013 109.236C337.363 107.508 335.285 107.361 333.041 107.404C327.173 107.518 321.327 106.849 315.461 106.733C314.749 106.558 314.042 106.35 313.295 106.397C306.357 106.836 299.438 106.159 292.518 105.914C283.319 105.587 274.104 105.479 264.928 104.672C263.918 104.583 263.239 105.098 262.396 105.285Z" fill="#F0F5F0"/>
<path fill-rule="evenodd" clip-rule="evenodd" d="M262.396 105.285C262.587 104.758 262.778 104.231 263.035 103.52C265.346 104.389 267.794 104.163 270.22 104.27C279.697 104.688 289.179 104.979 298.656 105.359C303.153 105.539 307.644 105.668 312.141 105.729C313.266 105.744 314.442 105.516 315.512 106.103C314.281 107.21 313 106.812 312.197 106.544C320.73 112.589 329.569 119.195 338.507 125.666C339.107 126.101 339.662 126.582 339.963 127.288C340.123 128.736 341.391 128.439 342.243 128.632C345.219 129.308 347.747 130.668 349.649 133.095C355.655 140.758 351.415 151.702 341.81 153.335C339.597 153.711 339.594 153.711 339.455 155.964C339.067 162.26 338.346 168.489 336.395 174.541C333.262 184.254 327.116 191.122 317.589 194.905C317.363 194.995 317.161 195.143 316.947 195.265C316.05 195.843 316.452 196.745 316.444 197.503C316.406 201.02 316.263 204.547 316.465 208.052C316.862 214.894 310.987 221.751 305.009 223.497C296.221 226.065 286.819 221.489 284.147 213.166C284.025 212.787 284.032 212.367 283.978 211.967C286.673 209.177 290.191 207.508 293.235 205.191C295.167 203.721 297.296 202.51 299.45 200.652C295.857 199.953 292.635 199.14 289.463 198.154C287.527 197.552 285.516 197.081 283.949 195.651C283.79 195.52 283.631 195.389 283.472 195.258C280.533 193.199 277.642 191.095 275.153 188.472C268.715 181.688 264.912 173.68 263.261 164.472C261.095 152.393 260.984 140.238 261.47 128.061C261.774 120.469 262.151 112.88 262.396 105.285Z" fill="#D39B71"/>
<path fill-rule="evenodd" clip-rule="evenodd" d="M331.77 121.481C325.545 116.977 319.345 112.439 313.141 107.907C312.562 107.484 311.84 106.431 310.979 105.736C311.333 105.719 311.552 105.683 313.141 105.736C319.166 105.938 333.103 106.603 339.113 106.806C339.573 107.562 339.544 117.201 339.819 121.184C339.96 123.217 340.114 125.249 339.963 127.288C337.074 125.576 334.482 123.443 331.77 121.481Z" fill="#744D3A"/>
<path fill-rule="evenodd" clip-rule="evenodd" d="M283.949 195.651C288.043 196.993 292.101 198.455 296.332 199.342C297.731 199.636 299.123 199.961 300.702 200.312C299.931 201.545 298.852 201.988 297.956 202.616C293.75 205.559 289.516 208.461 285.299 211.387C284.891 211.67 284.492 211.94 283.979 211.965C283.969 206.527 283.959 201.09 283.949 195.651Z" fill="#6C4F3E"/>
<path fill-rule="evenodd" clip-rule="evenodd" d="M302.231 154.883C296.082 155.218 290.853 153.126 286.49 148.841C285.8 148.163 285.212 147.344 284.721 146.505C282.556 142.812 283.475 139.319 287.119 137.05C290.999 134.636 295.217 134.809 299.478 135.438C300.928 135.652 302.341 136.099 303.689 136.708C304.911 138.567 303.886 140.53 303.854 142.42C303.8 145.663 303.474 148.907 303.135 152.14C303.034 153.102 302.897 154.089 302.231 154.883Z" fill="#2A5E29"/>
<path fill-rule="evenodd" clip-rule="evenodd" d="M315.953 174.528C316.557 180.914 310.886 186.362 304.856 186.761C299.684 187.103 294.488 183.822 292.882 178.18C292.208 175.811 291.828 173.384 293.098 171.041C293.892 169.576 295.059 169.087 296.526 169.616C297.768 170.063 298.462 171.298 298.072 172.788C297.711 174.171 297.559 175.53 297.997 176.877C298.98 179.9 302.414 181.937 305.304 181.28C308.951 180.452 310.995 177.795 310.656 174.244C310.571 173.363 310.473 172.487 310.101 171.63C309.489 170.22 310.069 168.872 311.402 168.192C312.527 167.618 314.007 168.06 314.772 169.325C315.772 170.978 316.146 172.804 315.953 174.528Z" fill="#D46191"/>
<path fill-rule="evenodd" clip-rule="evenodd" d="M302.231 154.883C302.717 148.824 303.203 142.766 303.689 136.708C308.322 138.042 311.57 141.265 314.314 144.942C316.619 148.034 315.489 151.583 312.001 153.3C308.913 154.82 305.622 155.183 302.231 154.883Z" fill="white"/>
<path fill-rule="evenodd" clip-rule="evenodd" d="M291.575 166.466C290.302 166.48 289.124 165.577 288.884 164.401C288.599 163.007 289.09 162.048 290.446 161.452C292.04 160.752 293.786 160.701 295.462 160.373C300.02 159.481 304.599 158.696 309.178 157.92C310.054 157.771 310.983 157.748 311.863 157.861C313.036 158.012 313.767 158.796 313.929 159.975C314.076 161.049 313.621 161.909 312.662 162.418C312.091 162.722 311.475 163.013 310.846 163.123C304.585 164.223 298.318 165.283 292.052 166.356C291.892 166.384 291.734 166.429 291.575 166.466Z" fill="#754D3A"/>
<path fill-rule="evenodd" clip-rule="evenodd" d="M292.091 123.371C295.117 123.164 297.824 123.685 300.436 124.742C300.89 124.926 301.332 125.142 301.773 125.356C302.613 125.765 303.544 126.253 303.011 127.358C302.531 128.353 301.588 128.289 300.686 127.8C298.858 126.809 296.854 126.364 294.828 126.132C288.693 125.43 283.314 126.869 279.302 131.916C279.1 132.171 278.957 132.478 278.734 132.711C278.372 133.087 277.911 133.272 277.401 133.055C276.806 132.802 276.544 132.306 276.604 131.673C276.693 130.728 277.246 130.007 277.848 129.334C281.112 125.681 285.227 123.756 290.085 123.379C290.816 123.322 291.556 123.371 292.091 123.371Z" fill="#754E3B"/>
<path fill-rule="evenodd" clip-rule="evenodd" d="M339.63 141.901C339.63 140.518 339.539 139.126 339.665 137.754C339.736 136.974 340.045 136.113 340.936 135.815C341.791 135.529 342.254 136.235 342.809 136.694C344.672 138.235 345.801 140.057 345.456 142.622C345.136 144.998 343.677 146.391 341.665 147.316C340.606 147.803 339.681 147.238 339.591 146.052C339.486 144.676 339.566 143.285 339.566 141.901H339.63Z" fill="#9F7454"/>
<path fill-rule="evenodd" clip-rule="evenodd" d="M286.973 171.593C286.527 171.54 286.17 171.28 286.175 170.857C286.182 170.411 286.549 170.146 287.017 170.273C287.42 170.381 287.744 170.647 287.679 171.126C287.627 171.51 287.324 171.61 286.973 171.593Z" fill="#704A33"/>
<path fill-rule="evenodd" clip-rule="evenodd" d="M301.207 148.489C301.172 149.039 301.139 150.099 301.022 151.15C300.964 151.683 300.589 152.059 300.014 151.97C299.569 151.902 299.325 151.506 299.346 151.073C299.445 149.039 299.569 147.007 299.709 144.975C299.733 144.62 300.033 144.389 300.371 144.359C300.834 144.319 301.172 144.599 301.193 145.049C301.237 146.024 301.207 147.003 301.207 148.489Z" fill="#DDE6DD"/>
<path fill-rule="evenodd" clip-rule="evenodd" d="M301.567 140.78C301.587 142.255 301.076 143.298 300.419 143.057C299.255 142.63 299.761 141.575 299.721 140.757C299.688 140.091 299.847 139.352 300.67 139.356C301.529 139.36 301.554 140.12 301.567 140.78Z" fill="#C8D8CA"/>
<path fill-rule="evenodd" clip-rule="evenodd" d="M309.614 148.862C309.378 148.749 309.309 148.604 309.428 148.48C309.574 148.329 309.764 148.137 309.947 148.123C310.225 148.103 310.306 148.347 310.127 148.548C309.991 148.7 309.766 148.773 309.614 148.862Z" fill="#F4E4D8"/>
<path fill-rule="evenodd" clip-rule="evenodd" d="M170.759 202.137L176.103 201.195C183.333 200.618 190.497 200.384 197.594 200.493C204.692 200.601 208.678 201.006 209.554 201.706V257.132H170.759V202.137Z" fill="#D8D8D8"/>
<path fill-rule="evenodd" clip-rule="evenodd" d="M156.744 204.718L156.852 204.587C157.278 204.167 157.923 204.517 158.366 204.158L158.367 204.165C158.949 203.549 159.81 204.097 160.437 203.668C160.582 203.774 160.699 203.749 160.788 203.593C161.37 203.106 162.18 203.633 162.762 203.149L162.781 203.147C163.509 202.525 164.493 203.201 165.237 202.661L165.242 202.673C166.134 201.976 167.279 202.754 168.189 202.169L168.194 202.184C169.263 201.478 170.551 202.269 171.637 201.682L171.643 201.704C172.538 201.125 173.527 201.429 174.469 201.454C175.209 201.474 175.435 201.941 175.011 202.611C174.243 204.17 174.659 205.817 174.72 207.415C174.975 214.12 175.302 220.821 175.617 227.523C175.89 233.326 176.134 239.131 176.483 244.929C176.693 248.423 177.783 249.394 181.268 249.339C189.21 249.214 197.15 249.048 205.092 248.881C208.026 248.82 209.099 247.846 209.079 244.855C209.017 235.687 208.86 226.52 208.716 217.352C208.68 215.064 208.555 212.778 208.471 210.49C207.99 207.909 208.378 205.302 208.248 202.711C208.201 201.789 208.577 201.32 209.521 201.41C210.478 201.5 211.476 201.145 212.392 201.671L212.412 201.671C213.5 202.287 214.791 201.476 215.868 202.164L215.977 202.253L216.093 202.172C217.816 202.468 219.575 202.569 221.244 203.15L221.259 203.15C221.841 203.637 222.665 203.091 223.239 203.611L223.356 203.741L223.514 203.67C224.043 203.953 224.712 203.695 225.208 204.106L225.309 204.221L225.448 204.159C225.975 204.444 226.672 204.149 227.135 204.654L227.134 204.65C227.56 205.019 228.234 204.626 228.615 205.134L228.617 205.131C229.022 205.528 229.728 205.09 230.071 205.656L230.067 205.653C230.388 205.833 230.805 205.78 231.085 206.066L231.132 206.083C231.472 206.552 232.234 206.041 232.503 206.674L232.589 206.569L232.498 206.668C232.838 206.814 233.29 206.726 233.499 207.146L233.493 207.142C233.814 207.319 234.291 207.206 234.462 207.662L234.536 207.564L234.448 207.65C234.721 207.641 234.849 207.868 235.028 208.01L235.083 208.039C235.3 208.355 235.796 208.222 235.978 208.594L235.962 208.582C236.162 208.695 236.343 208.832 236.506 208.992L236.551 209.022C236.943 209.457 237.619 209.548 237.888 210.13L237.867 210.11C238.178 210.14 238.349 210.309 238.375 210.622L238.352 210.598C238.922 210.935 239.174 211.486 239.358 212.084L239.328 212.037C240.181 213.092 239.361 214.408 239.87 215.517L239.839 215.458C240.476 217.301 240.392 219.256 240.646 221.152C241.661 228.719 241.915 236.361 242.533 243.966C242.948 249.07 243.427 254.184 243.709 259.31C244.189 268.035 244.243 276.777 244.737 285.487C245.316 295.717 244.887 305.929 245.101 316.145C245.176 319.707 245.524 323.261 245.168 326.841C245.017 328.354 244.898 329.755 243.798 330.893L243.822 330.866C243.758 331.127 243.574 331.286 243.356 331.417L243.368 331.403C243.251 331.62 243.083 331.787 242.867 331.906L242.879 331.897C242.101 332.635 241.148 332.692 240.138 332.684C236.454 332.656 232.769 332.711 229.085 332.667C215.172 332.499 201.259 332.809 187.351 333C174.091 333.184 160.834 333.024 147.577 333.167C145.974 333.185 144.432 333.111 143.69 331.328L143.72 331.37C142.766 329.719 142.548 327.827 142.404 326.029C141.904 319.777 141.333 313.492 141.679 307.233C142.056 300.435 141.488 293.671 141.212 286.921C140.972 281.04 140.801 275.16 140.951 269.298C141.107 263.209 141.687 257.124 142.222 251.044C142.612 246.604 142.975 242.152 143.383 237.713C143.796 233.224 144.188 228.716 145.118 224.286L145.099 224.331C145.711 223.244 144.798 221.912 145.653 220.863L145.624 220.92C146.114 219.976 145.35 218.808 146.159 217.921L146.128 217.979C146.561 217.185 145.901 216.184 146.609 215.443L146.588 215.491C147.01 214.874 146.489 214.043 147.049 213.457L147.041 213.481C147.561 212.917 146.925 212.035 147.584 211.509L147.565 211.547C147.927 211.106 147.525 210.407 148.078 210.031L148.06 210.082C148.391 209.621 148.069 208.972 148.503 208.539L148.505 208.535C148.867 207.916 149.329 207.399 149.992 207.088L149.994 207.086C150.238 206.754 150.689 206.841 150.979 206.603C151.288 206.256 151.746 206.279 152.137 206.136L152.313 206.179L152.429 206.041C152.72 205.777 153.141 205.846 153.454 205.64C153.818 205.104 154.505 205.513 154.926 205.143C155.375 204.636 156.071 204.946 156.587 204.654L156.744 204.718Z" fill="#0B0705"/>
<path fill-rule="evenodd" clip-rule="evenodd" d="M137.676 133.784C137.786 133.701 137.804 133.601 137.731 133.484C138.032 132.972 137.741 132.297 138.191 131.827L138.181 131.848C138.605 131.43 138.22 130.76 138.651 130.345C138.762 130.268 138.785 130.171 138.718 130.053C138.862 129.659 138.868 129.216 139.145 128.87L139.146 128.869C139.614 128.485 139.184 127.78 139.67 127.403L139.658 127.425C139.917 127.14 139.842 126.713 140.085 126.421C140.2 126.332 140.234 126.219 140.187 126.081C140.366 125.712 140.318 125.246 140.667 124.949L140.65 124.977C140.898 124.679 140.826 124.228 141.137 123.96L141.128 123.975C141.399 123.694 141.321 123.243 141.614 122.973L141.611 122.978C141.899 122.71 141.814 122.256 142.102 121.988L142.101 121.991C142.394 121.728 142.302 121.266 142.607 121.009L142.6 121.02C142.882 120.747 142.787 120.274 143.13 120.035L143.111 120.063C143.363 119.768 143.268 119.283 143.662 119.067L143.616 119.115C143.691 118.878 143.902 118.737 144.027 118.534L144.044 118.499C144.388 118.286 144.266 117.798 144.589 117.572L144.576 117.591C144.847 117.315 144.737 116.808 145.16 116.624L145.105 116.675C145.177 116.418 145.371 116.257 145.564 116.096L145.556 116.109C145.836 115.842 145.718 115.326 146.152 115.155L146.095 115.207C146.161 114.939 146.355 114.776 146.568 114.629L146.544 114.656C146.664 114.453 146.852 114.306 146.981 114.11L146.999 114.082C147.337 113.872 147.204 113.343 147.61 113.179L147.557 113.228C147.643 112.973 147.831 112.806 148.047 112.664L148.021 112.692C148.14 112.483 148.327 112.33 148.482 112.151L148.489 112.143C148.657 111.999 148.798 111.833 148.911 111.644L148.952 111.588C149.319 111.417 149.172 110.864 149.589 110.731L149.533 110.781C149.611 110.509 149.797 110.337 150.047 110.224L150.006 110.265C150.11 110.021 150.291 109.85 150.516 109.719L150.484 109.752C150.607 109.532 150.784 109.362 150.989 109.219L150.967 109.242C151.101 109.037 151.276 108.873 151.465 108.721L151.453 108.734C151.599 108.547 151.77 108.384 151.945 108.225L151.94 108.23C152.096 108.056 152.262 107.892 152.433 107.732L152.43 107.735C152.589 107.565 152.754 107.4 152.924 107.241L152.922 107.243C153.082 107.072 153.246 106.905 153.423 106.752L153.416 106.758C153.573 106.579 153.736 106.408 153.928 106.265L153.913 106.279C154.062 106.086 154.227 105.91 154.436 105.78L154.411 105.804C154.551 105.595 154.721 105.417 154.946 105.297L154.912 105.332C155.039 105.102 155.211 104.919 155.46 104.82L155.418 104.863C155.526 104.607 155.697 104.42 155.976 104.35L155.928 104.407C156.057 103.979 156.609 104.124 156.793 103.77L156.838 103.738C157.023 103.612 157.192 103.467 157.349 103.307L157.348 103.308C157.516 103.136 157.671 102.948 157.892 102.837L157.86 102.869C157.994 102.642 158.161 102.452 158.428 102.378L158.378 102.433C158.534 102.01 159.065 102.142 159.289 101.82L159.307 101.808C159.494 101.662 159.641 101.469 159.858 101.362L159.824 101.395C160.014 101.041 160.528 101.181 160.71 100.814L160.772 100.779C160.959 100.652 161.14 100.516 161.313 100.37L161.291 100.387C161.468 100.143 161.681 99.9544 161.995 99.9188C162.126 99.9513 162.219 99.9062 162.275 99.7844C162.451 99.6563 162.625 99.525 162.797 99.3906L162.769 99.4145C162.991 99.0748 163.478 99.1903 163.71 98.8682L163.733 98.856C163.924 98.7121 164.066 98.4992 164.315 98.4374L164.268 98.4861C164.469 98.0751 164.962 98.1762 165.254 97.9254L165.228 97.942C165.466 97.5983 165.939 97.693 166.211 97.4156L166.204 97.4197C166.458 97.1129 166.918 97.2067 167.18 96.9153L167.184 96.914C167.445 96.6239 167.9 96.7177 168.158 96.42L168.166 96.4164C168.437 96.1345 168.884 96.2161 169.157 95.9378L169.153 95.94C169.422 95.6391 169.87 95.714 170.161 95.4601L170.142 95.4709C170.435 95.1321 170.897 95.1871 171.252 94.995C171.397 95.0333 171.519 94.9959 171.617 94.8826C171.905 94.6562 172.329 94.7432 172.591 94.4586L172.594 94.4572C172.917 94.164 173.362 94.187 173.732 94.017C173.868 94.0657 173.98 94.0341 174.072 93.9227C174.391 93.6692 174.824 93.7174 175.162 93.5117C175.31 93.5591 175.439 93.528 175.549 93.4188C175.881 93.1847 176.306 93.2135 176.654 93.0254C176.795 93.0782 176.918 93.0502 177.022 92.9415C177.444 92.5572 178.093 92.9275 178.501 92.4967L178.497 92.499C178.976 92.0722 179.642 92.347 180.156 92.0537C180.269 92.1309 180.368 92.1151 180.451 92.0059C181.07 91.4817 181.913 91.9852 182.55 91.5458C182.685 91.6193 182.807 91.6017 182.917 91.4935C183.676 90.9431 184.649 91.5711 185.411 91.0401L185.387 91.0591C187.48 90.3093 189.703 91.1953 191.804 90.5479L191.782 90.5759C192.755 90.1036 193.728 90.1036 194.701 90.5759L194.68 90.5475C196.456 91.17 198.356 90.3531 200.128 91.0144C200.243 91.1204 200.368 91.1321 200.501 91.05C201.299 91.5449 202.282 90.9584 203.074 91.4899C203.187 91.5963 203.313 91.6144 203.452 91.544C203.927 91.8787 204.552 91.6121 205.03 91.9342C205.188 91.9586 205.346 91.9829 205.504 92.0068C205.923 92.425 206.556 92.0826 206.997 92.4255C207.131 92.5315 207.28 92.559 207.443 92.508C207.878 92.9145 208.548 92.545 208.977 92.9704C209.053 93.0814 209.149 93.1048 209.267 93.0417C209.662 93.1802 210.103 93.1905 210.45 93.4639L210.461 93.468C210.842 93.9353 211.543 93.505 211.917 93.9885L211.903 93.9809C212.186 94.2416 212.615 94.1609 212.903 94.4094C212.987 94.5227 213.096 94.5569 213.23 94.5127C213.607 94.681 214.074 94.635 214.371 94.995L214.343 94.9778C214.645 95.2174 215.099 95.142 215.357 95.47L215.34 95.4592C215.629 95.7158 216.083 95.6364 216.343 95.9504L216.333 95.9441C216.613 96.2134 217.071 96.1277 217.327 96.4448L217.314 96.4367C217.594 96.706 218.065 96.614 218.304 96.9609L218.277 96.9433C218.572 97.1914 219.061 97.0931 219.268 97.4977L219.221 97.4508C219.466 97.5176 219.607 97.7291 219.801 97.8685L219.827 97.882C220.055 98.2091 220.542 98.0918 220.764 98.4288L220.738 98.4062C220.907 98.5411 221.081 98.671 221.257 98.7964C221.314 98.9191 221.409 98.9656 221.541 98.9354C221.855 98.9733 222.068 99.1605 222.24 99.409L222.215 99.3883C222.393 99.5317 222.575 99.6702 222.76 99.8042L222.812 99.8344C223.001 100.193 223.523 100.055 223.701 100.43L223.66 100.388C223.896 100.482 224.048 100.677 224.216 100.854L224.212 100.85C224.37 101.008 224.542 101.149 224.728 101.273L224.781 101.309C224.962 101.669 225.503 101.525 225.652 101.931L225.604 101.878C225.864 101.964 226.033 102.15 226.163 102.38L226.129 102.346C226.351 102.465 226.518 102.644 226.668 102.841L226.65 102.825C226.844 102.962 227.002 103.138 227.17 103.303L227.173 103.305C227.331 103.468 227.497 103.621 227.672 103.764L227.696 103.786C227.829 103.962 227.987 104.11 228.171 104.23L228.214 104.271C228.328 104.455 228.478 104.601 228.665 104.709L228.718 104.761C228.824 104.947 228.968 105.094 229.157 105.197L229.212 105.252C229.316 105.441 229.463 105.587 229.648 105.694L229.696 105.745C229.809 105.931 229.955 106.084 230.137 106.203L230.171 106.24C230.299 106.421 230.448 106.583 230.621 106.722L230.636 106.739C230.778 106.921 230.949 107.075 231.101 107.247L231.096 107.242C231.272 107.404 231.452 107.564 231.581 107.769L231.558 107.745C231.766 107.889 231.948 108.057 232.056 108.292L232.016 108.253C232.26 108.373 232.449 108.543 232.521 108.817L232.462 108.767C232.891 108.909 232.753 109.451 233.09 109.658L233.109 109.685C233.237 109.88 233.422 110.028 233.551 110.223L233.531 110.2C233.735 110.352 233.925 110.516 234.006 110.771L233.952 110.722C234.364 110.891 234.237 111.414 234.558 111.643L234.566 111.657C234.714 111.845 234.915 111.991 235.007 112.222L234.965 112.179C235.341 112.382 235.225 112.883 235.539 113.123L235.546 113.133C235.698 113.32 235.905 113.465 235.982 113.708L235.935 113.66C236.331 113.867 236.227 114.361 236.499 114.638L236.488 114.62C236.808 114.859 236.699 115.336 237.019 115.574L237.027 115.59C237.214 115.798 237.408 116.003 237.444 116.301C237.399 116.428 237.436 116.524 237.555 116.589C237.719 116.791 237.892 116.987 237.938 117.257C237.898 117.392 237.937 117.497 238.057 117.572C238.2 117.75 238.325 117.939 238.431 118.142L238.382 118.086C238.987 118.387 238.484 119.161 238.988 119.505L238.995 119.523C239.253 119.813 239.186 120.25 239.453 120.535L239.444 120.518C239.764 120.824 239.72 121.28 239.908 121.64C239.862 121.782 239.896 121.901 240.011 121.997C240.246 122.295 240.18 122.716 240.426 123.008L240.41 122.98C240.905 123.37 240.502 124.064 240.92 124.479L240.907 124.454C241.382 124.888 241.037 125.573 241.392 126.044C241.335 126.186 241.361 126.311 241.468 126.419C241.846 126.855 241.507 127.496 241.897 127.929L241.879 127.896C242.452 128.519 241.958 129.382 242.362 130.044C242.279 130.154 242.292 130.252 242.399 130.337C243.043 131.256 242.292 132.403 242.889 133.329L242.876 133.302C243.326 137.558 243.335 141.815 242.869 146.071L242.886 146.04C242.294 146.969 243.043 148.116 242.398 149.036C242.29 149.122 242.278 149.219 242.362 149.329C241.962 149.992 242.443 150.849 241.888 151.479L241.903 151.45C241.394 152.028 241.984 152.887 241.393 153.445L241.409 153.415C241.002 153.842 241.376 154.509 240.946 154.929C240.834 155.007 240.813 155.105 240.881 155.222C240.733 155.611 240.738 156.054 240.469 156.4C240.357 156.482 240.331 156.586 240.391 156.711C240.236 157.096 240.242 157.541 239.958 157.878L239.958 157.876C239.492 158.258 239.935 158.977 239.417 159.341L239.436 159.308C239.198 159.613 239.256 160.048 238.983 160.338L238.98 160.345C238.492 160.703 238.984 161.468 238.385 161.781L238.418 161.735C238.225 162.068 238.295 162.528 237.917 162.772L237.944 162.733C237.724 163.049 237.804 163.519 237.423 163.754L237.451 163.715C237.232 164.032 237.315 164.507 236.92 164.732L236.951 164.69C236.741 165.013 236.831 165.496 236.408 165.704L236.461 165.652C236.407 165.908 236.188 166.048 236.047 166.244L236.037 166.263C235.712 166.495 235.825 166.98 235.494 167.208L235.509 167.185C235.248 167.47 235.349 167.964 234.946 168.169L234.995 168.12C234.923 168.367 234.714 168.512 234.559 168.698L234.554 168.705C234.242 168.947 234.359 169.451 233.977 169.65L234.021 169.606C233.933 169.841 233.73 169.988 233.578 170.173L233.572 170.184C233.256 170.419 233.38 170.936 232.975 171.114L233.026 171.065C232.941 171.315 232.752 171.478 232.554 171.634L232.57 171.616C232.419 171.788 232.277 171.966 232.143 172.151L232.116 172.193C231.761 172.386 231.9 172.918 231.503 173.081L231.553 173.034C231.462 173.283 231.276 173.45 231.065 173.595L231.088 173.57C230.964 173.775 230.78 173.928 230.624 174.105L230.618 174.113C230.197 174.538 230.064 175.192 229.511 175.514L229.566 175.468C229.497 175.75 229.311 175.923 229.048 176.024L229.093 175.98C228.999 176.238 228.817 176.411 228.576 176.529L228.614 176.491C228.503 176.727 228.323 176.899 228.1 177.03L228.132 176.998C228.006 177.218 227.83 177.389 227.619 177.526L227.645 177.501C227.514 177.713 227.341 177.883 227.133 178.02L227.155 177.997C227.02 178.204 226.848 178.376 226.641 178.511L226.663 178.489C226.527 178.697 226.356 178.869 226.146 179.002L226.17 178.978C226.033 179.186 225.861 179.36 225.647 179.49L225.675 179.462C225.542 179.679 225.37 179.856 225.142 179.975L225.177 179.94C225.053 180.172 224.88 180.353 224.633 180.455L224.673 180.414C224.564 180.666 224.392 180.85 224.122 180.93L224.165 180.879C223.601 181.499 222.928 181.987 222.234 182.446L222.243 182.439C222.088 182.631 221.924 182.813 221.695 182.92L221.731 182.884C221.607 183.125 221.441 183.316 221.161 183.376L221.21 183.32C221.063 183.761 220.53 183.63 220.294 183.938L220.286 183.943C220.11 184.104 219.96 184.297 219.734 184.398L219.767 184.362C219.354 184.82 218.786 185.054 218.285 185.386L218.304 185.373C217.859 185.787 217.316 186.053 216.804 186.365L216.828 186.349C216.611 186.691 216.121 186.572 215.895 186.9L215.866 186.915C215.673 187.052 215.532 187.265 215.287 187.329L215.331 187.283C215.129 187.689 214.637 187.587 214.349 187.842L214.37 187.827C214.134 188.166 213.661 188.067 213.397 188.355L213.396 188.355C212.524 189.057 211.451 189.362 210.466 189.841L210.451 189.848C210.172 190.121 209.732 190.045 209.451 190.314L209.459 190.31C209.189 190.62 208.745 190.552 208.438 190.783L208.468 190.765C208.163 191.131 207.693 191.098 207.3 191.248L207.135 191.231L207.007 191.338C206.771 191.612 206.31 191.46 206.113 191.808C206.094 191.975 206.076 192.141 206.057 192.307C206.403 192.902 206.255 193.537 206.204 194.161C202.893 191.542 199.116 193.267 195.557 193.105C194.144 193.04 192.669 193.434 190.914 193.428C195.312 196.791 199.569 199.916 203.775 203.11C204.68 203.798 205.69 204.394 206.04 205.59C206.019 206.968 205.069 207.116 204.016 207.112C201.972 207.103 199.928 207.083 197.885 207.072C191.999 207.04 186.112 206.982 180.226 207C178.612 207.005 177.335 206.611 176.614 205.062C176.025 202.514 175.687 199.943 175.772 197.316C175.8 196.456 176.007 195.554 175.561 194.722L175.575 194.743C175.374 194.6 175.199 194.432 175.069 194.22L175.083 194.234C174.508 193.728 173.638 194.339 173.097 193.709L173.127 193.731C172.687 193.35 172.025 193.714 171.602 193.278L171.474 193.179L171.317 193.216C170.808 192.908 170.094 193.26 169.664 192.7L169.704 192.727C169.379 192.53 168.953 192.589 168.657 192.317L168.523 192.213L168.355 192.233C167.966 192.084 167.514 192.098 167.189 191.783L167.198 191.788C166.811 191.341 166.067 191.81 165.737 191.218L165.777 191.246C165.445 191.055 164.993 191.122 164.741 190.761L164.769 190.781C164.462 190.55 164.007 190.626 163.752 190.287L163.773 190.3C163.478 190.052 163.023 190.131 162.766 189.807L162.78 189.816C162.496 189.554 162.029 189.643 161.786 189.299L161.81 189.315C161.515 189.066 161.038 189.158 160.813 188.78L160.847 188.804C160.538 188.58 160.043 188.684 159.857 188.243L159.904 188.295C159.643 188.241 159.488 188.043 159.317 187.864L159.316 187.864C159.057 187.573 158.563 187.682 158.357 187.301L158.398 187.341C158.165 187.255 158.021 187.053 157.833 186.91L157.81 186.896C157.582 186.574 157.075 186.697 156.883 186.317L156.923 186.358C156.687 186.269 156.538 186.072 156.364 185.905L156.358 185.901C156.115 185.599 155.59 185.726 155.433 185.294L155.481 185.348C155.209 185.282 155.043 185.091 154.911 184.861L154.943 184.893C154.72 184.785 154.566 184.596 154.398 184.424L154.397 184.423C153.952 184.024 153.312 183.875 152.981 183.328L153.025 183.382C152.747 183.311 152.575 183.125 152.468 182.869L152.509 182.911C152.26 182.813 152.088 182.631 151.962 182.399L151.997 182.434C151.77 182.315 151.599 182.138 151.462 181.925L151.489 181.95C151.275 181.822 151.108 181.647 150.965 181.446L150.984 181.464C150.784 181.325 150.615 181.154 150.473 180.956L150.49 180.973C150.292 180.831 150.123 180.662 149.981 180.465L149.998 180.482C149.8 180.339 149.627 180.17 149.492 179.966L149.513 179.988C149.309 179.846 149.134 179.676 149.005 179.462L149.035 179.491C148.816 179.357 148.638 179.185 148.523 178.952L148.561 178.99C148.323 178.868 148.14 178.696 148.047 178.439L148.092 178.483C147.828 178.381 147.642 178.209 147.577 177.924L147.634 177.968C147.075 177.642 146.921 177.005 146.537 176.544L146.544 176.554C146.356 176.394 146.173 176.231 146.066 176.001L146.108 176.039C145.635 175.64 145.427 175.052 145.062 174.575L145.07 174.587C144.879 174.426 144.689 174.264 144.606 174.015L144.658 174.064C144.25 173.878 144.365 173.369 144.072 173.111L144.075 173.116C143.896 172.946 143.702 172.787 143.627 172.536L143.68 172.587C143.262 172.393 143.366 171.894 143.109 171.606L143.126 171.632C142.788 171.404 142.9 170.919 142.581 170.68L142.573 170.667C142.427 170.475 142.205 170.334 142.16 170.072L142.216 170.124C141.78 169.923 141.872 169.438 141.669 169.111L141.701 169.154C141.297 168.932 141.381 168.456 141.171 168.133L141.202 168.175C140.808 167.94 140.88 167.476 140.693 167.14L140.727 167.187C140.12 166.877 140.613 166.11 140.129 165.749L140.127 165.746C139.971 165.567 139.779 165.422 139.633 165.233C139.472 165.234 139.311 165.236 139.151 165.238C138.167 165.63 137.185 165.667 136.208 165.212L136.229 165.226C135.653 164.72 134.793 165.317 134.243 164.712L134.27 164.728C133.968 164.491 133.534 164.552 133.248 164.277L133.235 164.271C132.985 163.967 132.519 164.068 132.272 163.758L132.279 163.763C132.013 163.482 131.506 163.597 131.324 163.18L131.373 163.232C131.113 163.151 130.946 162.963 130.811 162.74L130.841 162.77C130.62 162.649 130.454 162.471 130.31 162.269L130.33 162.288C130.129 162.148 129.959 161.977 129.819 161.776L129.838 161.796C129.637 161.65 129.459 161.482 129.338 161.26L129.372 161.294C129.143 161.162 128.954 160.994 128.877 160.729L128.933 160.78C128.507 160.6 128.62 160.091 128.345 159.818L128.357 159.836C128.037 159.59 128.137 159.119 127.834 158.865L127.833 158.862C127.555 158.579 127.62 158.138 127.367 157.842L127.383 157.869C126.895 157.472 127.284 156.785 126.884 156.359L126.903 156.395C126.438 154.27 126.424 152.147 126.913 150.024L126.89 150.064C127.28 149.633 126.892 148.945 127.389 148.55L127.372 148.579C127.618 148.28 127.552 147.837 127.84 147.557L127.839 147.559C128.133 147.298 128.037 146.829 128.359 146.581L128.346 146.6C128.62 146.326 128.507 145.817 128.933 145.636L128.876 145.688C128.952 145.425 129.143 145.259 129.362 145.118L129.333 145.147C129.456 144.933 129.637 144.772 129.822 144.614L129.812 144.624C129.961 144.442 130.131 144.28 130.302 144.119L130.3 144.121C130.462 143.95 130.623 143.777 130.812 143.634L130.799 143.647C130.952 143.455 131.112 143.269 131.341 143.16L131.304 143.199C131.489 142.835 132.006 142.974 132.193 142.612L132.25 142.582C132.458 142.475 132.598 142.274 132.814 142.179L132.776 142.214C133.016 141.846 133.482 141.926 133.793 141.701L133.757 141.723C134.139 141.183 134.855 141.6 135.284 141.192C135.441 141.244 135.583 141.219 135.712 141.115C136.929 140.671 136.1 139.397 136.695 138.701C136.799 138.596 136.812 138.482 136.735 138.357C137.23 137.554 136.596 136.541 137.217 135.761L137.202 135.789C137.704 135.202 137.15 134.365 137.676 133.784Z" fill="#A57157"/>
<path fill-rule="evenodd" clip-rule="evenodd" d="M206.04 205.59C200.586 201.495 195.133 197.4 189.676 193.303C189.991 192.454 190.654 192.854 191.139 192.792C195.328 192.251 199.581 192.579 203.76 191.875C204.769 191.705 205.578 191.866 205.536 193.174C205.523 193.594 205.647 193.978 205.971 194.273C206.635 195.044 205.963 196.073 206.474 196.874C206.352 197.158 206.372 197.436 206.516 197.707C206.911 200.165 206.904 202.624 206.521 205.083C206.361 205.252 206.2 205.421 206.04 205.59Z" fill="#744D3A"/>
<path fill-rule="evenodd" clip-rule="evenodd" d="M192.362 209.971C194.017 215.639 195.63 221.317 196.578 227.153C194.904 221.489 193.283 215.813 192.362 209.971Z" fill="#B5C5CE"/>
<path fill-rule="evenodd" clip-rule="evenodd" d="M190.385 221.796V209.975C190.476 209.975 190.567 209.975 190.657 209.975V221.801C190.567 221.799 190.476 221.798 190.385 221.796Z" fill="#AFC0CA"/>
<path fill-rule="evenodd" clip-rule="evenodd" d="M187.389 215.905C187.792 213.874 188.194 211.842 188.596 209.811C188.759 209.842 188.922 209.872 189.085 209.903C188.739 211.915 188.669 213.971 187.851 215.907C187.696 216.134 187.542 216.144 187.389 215.905Z" fill="#B5C5CE"/>
<path fill-rule="evenodd" clip-rule="evenodd" d="M187.784 217.374C187.249 219.492 187.193 221.716 186.364 223.768C186.211 223.988 186.057 223.988 185.901 223.771C186.448 221.655 186.507 219.43 187.331 217.377C187.481 217.162 187.631 217.15 187.784 217.374Z" fill="#B3C3CD"/>
<path fill-rule="evenodd" clip-rule="evenodd" d="M187.784 217.374C187.633 217.375 187.482 217.377 187.331 217.377C187.35 216.887 187.37 216.396 187.389 215.905C187.544 215.903 187.696 215.903 187.851 215.907C187.829 216.396 187.806 216.885 187.784 217.374Z" fill="#B0C0CB"/>
<path fill-rule="evenodd" clip-rule="evenodd" d="M185.901 223.771C186.055 223.769 186.21 223.768 186.364 223.768C186.356 224.096 186.348 224.423 186.339 224.751C186.339 224.751 186.1 224.752 186.1 224.752H185.862C185.875 224.425 185.888 224.098 185.901 223.771Z" fill="#B0C1CB"/>
<path fill-rule="evenodd" clip-rule="evenodd" d="M232.603 221.825C232.666 221.877 232.765 221.916 232.788 221.982C234.11 225.721 233.697 226.343 229.721 226.658C226.06 226.949 222.401 227.258 218.74 227.549C216.969 227.691 216.138 227.018 215.957 225.255C215.89 224.609 215.95 223.95 215.953 223.297C220.988 222.437 226.126 222.834 231.17 222.067C231.65 221.994 232.132 221.947 232.603 221.825Z" fill="#A92D2D"/>
<path fill-rule="evenodd" clip-rule="evenodd" d="M232.603 221.825C232.519 222.236 232.386 222.737 231.925 222.719C230.356 222.658 228.878 223.246 227.325 223.275C224.722 223.323 222.121 223.184 219.525 223.705C218.378 223.935 217.072 224.037 215.953 223.297C215.951 222.829 216.199 222.491 216.624 222.393C217.496 222.192 218.38 221.972 219.268 221.919C222.858 221.705 226.451 221.528 230.044 221.391C230.906 221.358 231.856 221.076 232.603 221.825Z" fill="#DF1A1A"/>
<path fill-rule="evenodd" clip-rule="evenodd" d="M186.772 133.21C186.86 132.41 187.193 131.932 188.068 131.692C191.677 130.696 195.288 130.285 198.943 131.372C204.045 132.89 205.297 136.776 203.475 141.389C202.962 142.688 202.16 143.832 201.207 144.866C197.938 148.414 193.827 150.389 189.271 151.475C188.566 150.698 189.122 149.689 188.433 149.082C187.592 148.47 187.681 147.518 187.552 146.65C187.013 143.03 186.751 139.378 186.28 135.75C186.165 134.863 186.08 133.954 186.772 133.21Z" fill="#040607"/>
<path fill-rule="evenodd" clip-rule="evenodd" d="M186.772 133.21C187.326 138.5 187.879 143.79 188.433 149.081C188.426 149.568 188.377 150.058 188.421 150.538C188.501 151.393 188.008 151.707 187.291 151.834C186.969 151.891 186.642 151.917 186.315 151.947C183.341 152.217 180.415 151.757 177.596 150.949C173.666 149.822 172.358 146.572 174.079 142.836C174.808 141.254 175.87 139.899 177.061 138.657C179.409 136.209 182.227 134.407 185.201 132.813C185.951 132.411 186.386 132.529 186.772 133.21Z" fill="white"/>
<path fill-rule="evenodd" clip-rule="evenodd" d="M188.131 116.061C191.978 115.725 195.388 116.919 198.413 119.232C199.785 120.282 200.974 121.548 201.136 123.409C201.278 125.038 200.742 125.926 199.352 126.546C198.056 127.123 196.833 126.913 195.87 125.639C194.4 123.696 192.522 122.708 190.133 122.294C186.22 121.615 182.892 122.633 179.972 125.224C179.667 125.494 179.411 125.821 179.103 126.089C177.829 127.198 176.277 127.268 175.116 126.285C173.911 125.264 173.648 123.767 174.498 122.317C175.12 121.257 175.885 120.308 176.917 119.584C180.283 117.224 183.902 115.686 188.131 116.061Z" fill="#533120"/>
<path fill-rule="evenodd" clip-rule="evenodd" d="M212.912 161.072C213.439 165.416 210.522 167.847 206.885 169.258C201.622 171.3 197.476 169.236 194.86 165.198C194.505 164.651 194.106 164.131 193.773 163.572C193.185 162.585 193.326 161.394 194.175 160.759C195.055 160.1 196.018 160.136 196.877 160.823C197.316 161.175 197.672 161.639 198.033 162.08C198.341 162.456 198.564 162.907 198.892 163.262C201.755 166.351 203.852 166.153 207.533 163.897C208.657 163.208 208.947 160.701 208.208 158.89C207.748 157.764 207.082 156.722 206.504 155.644C206.235 155.143 205.877 154.673 205.693 154.143C205.331 153.099 205.697 152.224 206.529 151.538C207.42 150.804 208.326 151.163 208.958 151.803C211.053 153.929 212.598 156.385 212.904 159.448C212.96 160.015 212.912 160.592 212.912 161.072Z" fill="#D26767"/>
<path fill-rule="evenodd" clip-rule="evenodd" d="M138.148 157.495C138.093 159.268 136.899 160.142 135.278 159.784C132.747 159.224 130.829 156.074 131.138 153.471C131.357 151.631 132.049 150.194 133.463 149.088C134.805 148.039 136.827 148.466 137.015 149.992C137.333 152.567 137.675 155.134 138.148 157.495Z" fill="#744D3A"/>
<path fill-rule="evenodd" clip-rule="evenodd" d="M191.459 144.49C191.459 145.298 191.492 146.108 191.449 146.913C191.418 147.498 191.253 148.077 190.484 148.031C189.888 147.995 189.681 147.535 189.647 147.024C189.516 145.005 189.408 142.985 189.292 140.965C189.261 140.417 189.502 139.932 190.004 139.835C190.706 139.7 191.044 140.293 191.114 140.856C191.264 142.059 191.296 143.277 191.376 144.489C191.404 144.49 191.432 144.49 191.459 144.49Z" fill="#EFF1F1"/>
<path fill-rule="evenodd" clip-rule="evenodd" d="M190.836 136.72C190.97 137.766 190.87 138.354 190.184 138.488C189.479 138.625 189.191 138.064 189.062 137.487C188.905 136.782 188.776 136.065 188.713 135.347C188.674 134.909 188.955 134.561 189.399 134.484C189.838 134.408 190.215 134.648 190.357 135.048C190.6 135.727 190.757 136.437 190.836 136.72Z" fill="#E9EBEB"/>
<path fill-rule="evenodd" clip-rule="evenodd" d="M178.803 145.388C178.83 145.458 178.891 145.537 178.876 145.597C178.82 145.827 178.702 145.851 178.59 145.658C178.56 145.606 178.591 145.497 178.629 145.437C178.654 145.399 178.744 145.403 178.803 145.388Z" fill="#D9C3B9"/>
<path fill-rule="evenodd" clip-rule="evenodd" d="M47.0966 207.768C47.2391 204.089 46.6012 200.478 46.1916 196.844C46.0568 195.647 45.5226 195.322 44.454 195.391C42.0189 195.547 39.5838 195.497 37.1375 195.692C32.9164 196.028 28.6472 195.967 24.4086 195.806C21.6451 195.702 19.3792 193.089 19.1076 190.252C19.0846 190.009 19.0458 189.751 19.0995 189.52C19.4973 187.803 18.5667 187.023 17.0871 186.617C17.9252 185.563 18.3037 184.438 18.2257 183.018C17.8215 175.696 17.2283 168.378 17.3708 161.037C17.374 159.615 17.8648 158.376 18.6014 157.149C19.8664 155.042 19.5479 152.626 17.9528 150.817C16.5633 149.24 14.9714 148.988 12.3892 149.96C11.7793 150.189 11.1974 150.508 10.5131 150.272C6.52891 147.335 6.59747 138.427 9.65734 135.305C11.0269 133.908 12.3261 132.434 14.071 131.483C15.4396 130.736 15.8989 129.607 15.9688 128.074C16.1104 124.962 15.2628 121.921 15.445 118.817C15.5064 117.767 15.3598 116.692 15.8578 115.698C16.9084 114.321 18.4431 114.626 19.86 114.577C20.9057 114.541 21.9509 114.497 22.997 114.439C23.2853 114.435 23.5645 114.483 23.8379 114.569C24.1113 114.656 24.3698 114.776 24.6188 114.917C30.1782 118.931 36.6782 120.26 43.2414 121.304C53.7188 122.969 64.3198 122.849 74.8194 122.219C85.2576 121.593 95.5117 119.211 105.584 116.257C106.98 115.847 108.473 114.742 109.879 116.32C110.956 121.693 111.191 127.167 111.719 132.6C112.477 140.401 113.31 148.195 113.983 156.003C114.656 163.813 115.684 171.59 116.173 179.414C116.314 181.668 116.721 183.581 118.931 184.652C116.423 184.817 115.774 186.099 115.83 188.594C115.893 191.387 113.487 193.133 110.656 193.477C105.267 194.133 99.8622 193.74 94.4705 193.958C91.1247 194.093 87.7919 194.517 84.4343 194.414C83.916 194.399 83.4946 194.665 83.0683 194.91C80.5408 195.298 77.9961 195.09 75.4631 195.062C69.4007 194.994 63.3504 195.207 57.2997 195.55C56.4268 195.6 55.4015 195.862 55.0739 195.437C58.2876 197.032 62.0769 198.692 65.8175 200.437C71.6815 203.172 77.4647 206.082 83.4139 208.635C83.8659 208.829 84.2782 209.102 84.6179 209.471C85.8859 214.29 86.8793 219.063 82.2631 222.85C73.9442 228.897 64.8034 230.465 54.8967 227.864C50.9107 226.235 48.5266 223.556 47.9988 219.025C47.5616 215.273 46.4939 211.598 47.0966 207.768Z" fill="#EDCEB4"/>
<path fill-rule="evenodd" clip-rule="evenodd" d="M23.473 114.813C22.0813 115.39 20.603 115.191 19.1591 115.287C18.1152 115.356 17.0474 115.227 16.0631 115.717C14.9232 116.588 13.804 116.384 12.6951 115.651C10.0169 114.22 9.18958 111.944 9.08312 108.975C8.67486 97.5832 12.6162 87.7112 19.7496 79.1546C25.7069 72.0082 32.8208 66.0711 41.2047 61.8424C48.8906 57.9656 56.951 56.2203 65.647 57.0368C72.2183 57.6535 78.5704 58.9432 84.7983 61.0435C90.1945 62.8629 95.1973 65.4445 99.8013 68.7679C106.605 73.6795 110.994 80.3167 113.288 88.3315C114.123 91.2483 114.028 94.3281 114.41 97.3275C114.729 99.8388 114.829 102.379 115.025 104.906C113.925 105.96 112.481 106.03 111.118 106.084C100.482 106.507 89.881 107.467 79.2727 108.242C66.8646 109.15 54.4429 109.892 42.0428 110.935C36.8276 111.374 31.5925 111.675 26.3664 112.043C23.5434 112.241 23.5389 112.176 23.473 114.813Z" fill="#FEC41D"/>
<path fill-rule="evenodd" clip-rule="evenodd" d="M46.7115 332.793C45.9992 333.072 45.2539 332.958 44.5232 332.958C38.7097 332.959 32.8931 332.843 27.0838 332.99C24.8346 333.046 23.4433 331.781 21.9114 330.604C21.3759 330.193 21.126 329.45 21.2546 328.824C21.555 327.363 20.9735 326.094 20.6163 324.764C18.4699 316.779 17.0146 308.653 15.6324 300.51C14.811 295.673 13.7193 290.895 12.3511 286.174C9.26323 275.523 7.48587 264.658 7.14528 253.557C7.01491 249.304 6.72936 245.065 7.09611 240.804C7.3573 237.774 7.76691 234.794 8.70025 231.896C8.80039 231.585 8.99482 231.27 8.984 230.962C8.86851 227.722 11.0131 226.079 13.3345 224.394C18.9823 220.295 24.9302 216.742 31.3147 213.923C33.291 216.089 32.7258 218.893 32.9838 221.4C34.3579 234.732 35.1875 248.117 36.9057 261.417C37.0113 262.233 37.01 263.048 36.9161 263.863C35.5195 269.197 36.9279 274.358 37.8824 279.551C38.1264 280.879 39.1766 281.575 40.0107 282.451C41.0171 285.73 41.7249 289.046 41.2472 292.507C39.7125 294.797 39.3277 297.272 39.9101 299.967C40.2358 301.476 40.3288 303.029 40.4745 304.572C40.7469 307.448 41.3839 310.211 44.054 311.958C45.4375 315.914 45.4177 320.115 46.1751 324.182C46.5473 326.178 46.7868 328.203 47.0322 330.222C47.1396 331.108 47.3606 332.003 46.7115 332.793Z" fill="#050561"/>
<path fill-rule="evenodd" clip-rule="evenodd" d="M101.532 207.705C106.539 208.159 111.378 209.254 115.968 211.367C117.738 212.181 119.733 212.621 120.693 214.604C120.906 215.044 121.288 215.446 121.361 215.902C122.153 220.864 124.336 225.414 125.545 230.257C128.405 241.718 130.413 253.32 131.273 265.093C132.31 279.302 133.281 293.519 133.305 307.779C133.315 314.092 132.923 320.38 132.19 326.648C131.999 328.278 131.657 329.85 130.928 331.358C130.319 332.621 129.377 333.342 128.076 333.331C125.055 333.306 122.021 333.601 119.014 333.077C118.248 332.425 118.211 331.521 118.173 330.622C117.838 322.654 116.64 314.769 115.889 306.841C115.766 305.542 115.617 304.253 115.866 302.958C118.081 300.341 117.652 297.394 116.932 294.404C116.491 292.574 116.221 290.708 115.908 288.855C115.559 286.786 114.662 284.992 113.502 283.29C113.103 280.122 112.117 277.016 112.482 273.767C114.342 271.584 114.37 269.112 113.719 266.477C113.252 264.589 112.948 262.662 112.65 260.738C112.272 258.301 111.54 256.013 109.678 254.246C107.837 242.235 105.536 230.312 102.982 218.435C102.434 215.884 101.838 213.343 101.352 210.779C101.156 209.745 100.85 208.693 101.532 207.705Z" fill="#050561"/>
<path fill-rule="evenodd" clip-rule="evenodd" d="M81.9298 222.32C82.6326 221.424 83.3995 220.569 84.0238 219.62C85.0956 217.993 85.6275 216.256 84.8552 214.3C84.2737 212.828 84.5683 211.226 84.2967 209.702C83.7152 208.375 82.9037 207.063 84.031 205.624C85.8878 205.7 87.7346 205.859 89.5508 206.276C90.2504 206.927 90.453 207.774 90.5987 208.684C93.0482 223.987 95.5284 239.284 97.9477 254.592C98.1227 255.701 98.5057 256.833 97.9567 257.956C97.1952 258.963 96.035 259.153 94.9208 259.379C83.8528 261.625 72.7529 263.587 61.426 264.058C58.3274 264.186 55.2328 264.521 52.1224 264.46C51.0627 264.438 49.9859 264.513 48.9998 263.988C47.6262 262.873 47.6844 261.209 47.5179 259.714C46.6306 251.76 45.7275 243.807 44.9038 235.845C44.1978 229.022 43.5667 222.19 42.6568 215.388C42.3776 213.302 42.0225 211.167 42.9911 209.128C43.9249 208.47 45.0558 208.371 46.1023 208.033C46.3103 207.949 46.5196 207.868 46.7303 207.79C46.8539 207.805 46.9757 207.797 47.0966 207.768C47.4832 208.938 47.6158 210.154 47.6154 211.371C47.6136 214.884 48.6619 218.236 49.1857 221.668C49.4545 223.426 50.7731 224.659 52.1909 225.662C53.0449 226.266 53.9963 226.732 54.9035 227.26C59.8102 237.876 66.7879 247.24 72.8386 257.633C74.1635 255.144 74.574 252.888 75.2209 250.737C77.3641 243.609 79.5272 236.486 81.609 229.339C81.9356 228.217 82.0682 227.126 81.9744 225.959C81.8774 224.754 81.4484 223.537 81.9298 222.32Z" fill="#FA660B"/>
<path fill-rule="evenodd" clip-rule="evenodd" d="M23.473 114.813C23.2962 114.14 22.6506 113.806 22.3317 113.243C21.8441 112.383 22.1774 111.642 23.1383 111.372C23.293 111.329 23.464 111.318 23.625 111.327C26.1603 111.478 28.6562 111.08 31.1671 110.839C35.4504 110.429 39.7576 110.388 44.0462 109.934C46.6207 109.661 49.2322 109.595 51.8269 109.38C56.1147 109.025 60.4314 109.042 64.6993 108.399C65.02 108.35 65.352 108.367 65.6786 108.368C69.8324 108.379 73.956 108.011 78.0624 107.409C78.3836 107.362 78.7156 107.383 79.0422 107.385C83.5226 107.413 87.9566 106.73 92.4108 106.501C95.6606 106.334 98.9433 106.274 102.142 105.824C105.863 105.301 109.64 105.87 113.313 104.972C113.857 104.839 114.453 104.922 115.025 104.906C116.733 105.029 118.418 104.831 120.107 104.604C120.987 104.486 121.867 104.458 122.41 105.475C123.004 106.589 122.436 107.289 121.747 108.039C119.71 110.253 117.282 111.99 114.869 113.748C113.285 115.049 111.377 115.64 109.46 116.212C108.905 115.802 108.355 116.069 107.834 116.266C100.538 119.028 92.806 119.957 85.2486 121.612C78.1053 123.176 70.8407 123.261 63.5675 123.126C60.7074 123.074 57.8447 123.14 54.9865 123.053C47.7088 122.83 40.5095 121.944 33.4939 119.959C30.0321 118.98 26.6876 117.63 23.9602 115.133C23.7933 115.016 23.6273 114.898 23.4613 114.78L23.473 114.813Z" fill="#FEBD1D"/>
<path fill-rule="evenodd" clip-rule="evenodd" d="M108.24 333.013C107.587 333.042 106.935 333.098 106.282 333.098C92.1189 333.078 77.9555 333.053 63.7916 333.021C62.976 333.019 62.1604 332.951 61.3443 332.914C60.3803 332.257 60.1963 331.194 59.9251 330.177C58.5434 324.996 57.592 319.732 56.9009 314.419C56.7552 313.297 56.5806 312.145 57.4643 311.188C58.1117 310.765 58.8488 310.716 59.5873 310.688C69.3136 310.326 79.0327 309.925 88.7126 308.773C92.9525 308.269 97.0978 307.341 101.283 306.585C102.404 306.382 103.511 305.995 104.669 306.364C105.468 307.069 105.683 308.035 105.769 309.018C106.371 315.956 107.667 322.799 108.596 329.692C108.749 330.828 108.977 331.972 108.24 333.013Z" fill="#FA660B"/>
<path fill-rule="evenodd" clip-rule="evenodd" d="M109.46 116.212C110.919 114.636 112.951 114.316 114.869 113.748C119.617 121.308 122.614 129.606 124.971 138.145C128.426 150.661 130.548 163.371 130.188 176.415C130.149 177.814 129.915 179.177 129.691 180.552C129.344 182.676 127.981 183.642 126.01 183.892C123.656 184.191 121.291 184.402 118.931 184.652C115.971 184.55 115.929 184.554 115.604 181.416C115.193 177.43 114.871 173.435 114.489 169.447C113.879 163.099 113.238 156.755 112.636 150.407C112.071 144.464 111.543 138.518 110.992 132.574C110.486 127.12 109.971 121.666 109.46 116.212Z" fill="#FA660B"/>
<path fill-rule="evenodd" clip-rule="evenodd" d="M12.6951 115.651C13.8238 115.357 14.9371 115.862 16.0631 115.717C16.2458 120.118 16.3849 124.522 16.638 128.919C16.7137 130.238 16.3786 131.132 15.1245 131.619C14.8989 131.707 14.7014 131.864 14.4862 131.982C6.75555 136.191 6.48533 144.705 10.7916 150.12C11.1372 150.995 10.5647 151.681 10.3116 152.431C9.07785 156.091 11.5562 159.395 15.4506 159.31C16.3998 159.289 17.6809 158.603 17.9047 160.346C18.1226 165.146 18.3404 169.945 18.557 174.744C18.704 177.998 18.8691 181.252 18.9878 184.506C19.0573 186.406 19.0237 186.408 17.0871 186.617C13.3848 185.942 9.6273 185.567 5.97784 184.6C1.30707 183.362 1.15956 183.331 0.687701 178.683C-1.15327 160.567 0.586202 142.876 7.31131 125.83C8.72508 122.248 10.4391 118.8 12.6951 115.651Z" fill="#FA660B"/>
<path fill-rule="evenodd" clip-rule="evenodd" d="M36.5956 264.088C35.4421 257.896 34.7046 251.648 34.4465 245.363C34.1844 238.983 33.1099 232.694 32.588 226.345C32.2474 222.198 32.1556 218.02 31.3147 213.923C34.4044 212.12 37.6462 210.67 41.1013 209.717C41.9133 210.352 41.8618 211.284 41.9552 212.17C42.9251 221.416 43.8517 230.67 44.7016 239.924C45.3651 247.15 45.7477 254.399 46.8619 261.581C46.9738 262.301 47.0293 263.046 46.7293 263.755C43.3888 264.981 39.9929 264.561 36.5956 264.088Z" fill="#FA660B"/>
<path fill-rule="evenodd" clip-rule="evenodd" d="M101.532 207.705C102.659 213.229 103.73 218.766 104.925 224.275C107.092 234.267 108.975 244.306 110.282 254.449C107.503 257.012 104.193 257.778 100.523 257.332C99.9108 256.513 99.7547 255.536 99.6252 254.569C97.5659 239.177 94.1533 224.048 90.7989 208.908C90.6112 208.061 90.1493 207.183 90.8557 206.346C94.4334 206.651 98.0333 206.783 101.532 207.705Z" fill="#FA660B"/>
<path fill-rule="evenodd" clip-rule="evenodd" d="M116.34 302.5C116.771 308.742 117.6 314.942 118.253 321.16C118.669 325.115 118.772 329.104 119.014 333.077C116.379 333.28 113.745 333.213 111.112 333.031C110.451 332.466 110.14 331.7 110.053 330.879C109.23 323.159 107.815 315.522 106.84 307.823C106.779 307.338 106.764 306.846 106.825 306.357C106.885 306.122 106.921 305.817 107.131 305.717C110.08 304.303 112.96 302.681 116.34 302.5Z" fill="#FA660B"/>
<path fill-rule="evenodd" clip-rule="evenodd" d="M46.7115 332.793C45.6942 325.799 44.6774 318.806 43.6602 311.813C47.1536 310.906 50.6758 310.408 54.2797 311.053C55.1391 311.548 55.4188 312.407 55.6028 313.291C56.7964 319.033 58.0519 324.764 58.9699 330.559C59.0975 331.366 59.2117 332.184 58.6586 332.906C54.6744 333.035 50.692 333.036 46.7115 332.793Z" fill="#FA660B"/>
<path fill-rule="evenodd" clip-rule="evenodd" d="M84.031 205.624C83.7829 207.006 84.7097 208.311 84.2974 209.703C80.9438 208.206 77.5714 206.75 74.2417 205.203C68.0949 202.346 61.9698 199.442 55.8451 196.54C55.1576 196.214 54.3109 196.078 53.8575 195.315C54.0795 195.161 54.1945 195.012 54.3168 195.005C63.3714 194.526 72.4278 194.129 81.4987 194.428C82.0662 194.446 82.6572 194.386 83.0681 194.911C83.078 195.233 83.088 195.555 83.0974 195.878C83.4182 196.522 83.0717 197.268 83.4055 197.911C83.3699 200.502 83.8213 203.053 84.031 205.624Z" fill="#8E715F"/>
<path fill-rule="evenodd" clip-rule="evenodd" d="M90.8557 206.346C94.8169 223.164 98.4219 240.053 100.774 257.185C99.929 258.22 98.9583 258.603 97.7524 257.769C95.5285 243.992 93.2982 230.217 91.086 216.438C90.5433 213.056 90.061 209.664 89.5508 206.276C89.9861 206.299 90.4204 206.323 90.8557 206.346Z" fill="#070660"/>
<path fill-rule="evenodd" clip-rule="evenodd" d="M46.4491 263.744C45.3376 256.733 44.4435 249.7 44.1647 242.597C43.9405 236.886 42.8763 231.256 42.4369 225.564C42.0287 220.278 41.5492 214.999 41.1013 209.717C41.6949 209.405 42.3009 209.13 42.9911 209.128C44.1779 223.545 45.9615 237.899 47.4785 252.282C47.8814 256.102 48.2233 259.927 48.9306 263.707C48.1141 264.436 47.2868 264.424 46.4491 263.744Z" fill="#080660"/>
<path fill-rule="evenodd" clip-rule="evenodd" d="M107.158 306.052C107.947 311.021 108.776 315.983 109.511 320.96C110.104 324.975 110.583 329.007 111.112 333.031C110.153 333.298 109.196 333.226 108.24 333.013C107.47 327.535 106.679 322.059 105.937 316.577C105.489 313.272 105.118 309.957 104.713 306.647C105.356 305.743 106.136 305.398 107.158 306.052Z" fill="#080660"/>
<path fill-rule="evenodd" clip-rule="evenodd" d="M58.6586 332.906C57.534 325.771 56.0057 318.714 54.5887 311.635C55.4391 310.515 56.3282 310.628 57.2426 311.553C58.0668 318.777 59.4312 325.898 61.3443 332.914C60.4484 333.104 59.5532 333.118 58.6586 332.906Z" fill="#0A0760"/>
<path fill-rule="evenodd" clip-rule="evenodd" d="M83.4055 197.911C82.94 197.288 82.9562 196.592 83.0974 195.878C83.646 196.488 83.5382 197.198 83.4055 197.911Z" fill="#EDCEB4"/>
<path fill-rule="evenodd" clip-rule="evenodd" d="M46.7303 207.79C46.5796 208.022 46.3703 208.104 46.1023 208.033C46.2499 207.792 46.4565 207.704 46.7303 207.79Z" fill="#EDCEB4"/>
<path fill-rule="evenodd" clip-rule="evenodd" d="M81.9298 222.32C82.8261 225.284 82.7571 228.136 81.7886 231.165C79.1036 239.561 76.6979 248.045 74.1766 256.493C73.9488 257.255 73.6849 258.007 73.4544 258.712C72.6546 258.839 72.5229 258.26 72.2887 257.88C66.8412 249.054 61.4247 240.209 55.9505 231.399C55.1381 230.092 54.6251 228.8 54.9035 227.26C64.6772 229.801 73.6934 228.19 81.9298 222.32Z" fill="#050561"/>
<path fill-rule="evenodd" clip-rule="evenodd" d="M74.7947 141.741C75.5472 141.731 76.3014 141.728 76.9628 141.284C78.4212 140.838 78.8258 139.388 79.7127 138.398C79.9946 138.827 80.0019 139.321 79.9707 139.795C79.8747 141.266 80.5888 141.644 81.8929 141.288C82.2055 141.28 82.524 141.211 82.8299 141.296C84.2396 141.688 84.697 141.632 85.32 140.962C85.4549 141.891 85.2158 142.833 86.1432 143.638C88.6131 145.781 88.4701 148.551 87.5056 151.313C86.5898 153.935 84.7845 155.971 82.5885 157.617C79.8119 159.698 76.7715 161.261 73.3133 161.891C72.7896 161.572 72.486 161.072 72.3894 160.504C71.4453 154.96 69.8086 149.545 69.312 143.917C69.4554 143.324 69.7306 142.856 70.4122 142.787C71.3384 143.24 71.6663 142.689 71.8657 141.922C72.8216 141.53 73.7806 141.191 74.7947 141.741Z" fill="#2B6CD5"/>
<path fill-rule="evenodd" clip-rule="evenodd" d="M69.6867 143.772C70.8957 149.812 72.1043 155.851 73.3133 161.891C69.9214 163.063 66.4956 162.249 63.1394 161.845C58.9842 161.345 57.1437 157.082 59.1651 153.233C59.5048 152.585 59.9514 151.994 60.3488 151.376C60.3208 149.952 61.1351 149.162 62.3725 148.69C62.8547 148.496 63.1939 148.166 63.3446 147.659C64.0506 146.634 64.8685 145.768 66.2141 145.66C66.7622 145.518 67.1375 145.189 67.3184 144.647C68 144.064 68.6555 143.409 69.6867 143.772Z" fill="white"/>
<path fill-rule="evenodd" clip-rule="evenodd" d="M59.5568 183.235C55.7165 183.477 51.518 179.894 50.6618 174.044C50.3072 171.624 51.0714 169.34 52.1441 167.205C52.7513 165.996 53.9684 165.577 55.0452 166.026C56.1816 166.499 56.6218 167.445 56.436 168.61C56.2957 169.49 55.9808 170.34 55.7467 171.205C54.517 175.747 57.8155 179.204 62.4177 178.281C65.533 177.657 67.9988 176.16 69.86 173.559C71.1119 171.81 73.113 171.845 74.0544 173.497C74.6152 174.481 74.3851 175.443 73.7851 176.255C70.6621 180.482 66.6085 183.054 59.5568 183.235Z" fill="#BB7095"/>
<path fill-rule="evenodd" clip-rule="evenodd" d="M84.882 125.375C85.8041 125.429 86.6973 125.434 87.3929 126.175C88.4828 127.336 88.1246 129.191 86.5841 129.824C85.7676 130.159 84.8505 130.291 83.9645 130.413C78.4673 131.17 72.9638 131.881 67.4684 132.654C66.7236 132.759 66.0375 132.846 65.3121 132.576C64.3566 132.219 63.8654 131.548 63.7946 130.56C63.7219 129.557 64.1748 128.861 65.0559 128.372C65.8097 127.954 66.6374 127.983 67.4359 127.867C73.2489 127.02 79.0664 126.202 84.882 125.375Z" fill="#FA660C"/>
<path fill-rule="evenodd" clip-rule="evenodd" d="M17.9047 160.346C17.5163 159.739 17.1213 159.599 16.312 159.805C12.723 160.72 9.87699 158.401 9.28695 154.641C9.01177 152.888 10.0572 151.55 10.7916 150.12C11.083 149.974 11.3859 149.847 11.6625 149.677C14.2482 148.088 16.4717 148.237 18.287 150.129C20.3486 152.277 20.7297 155.486 19.0503 157.736C18.4413 158.551 17.962 159.331 17.9047 160.346Z" fill="#FEC41D"/>
<path fill-rule="evenodd" clip-rule="evenodd" d="M18.114 143.47C18.114 144.042 18.1226 144.614 18.1127 145.186C18.0694 147.679 17.4956 148.053 15.1237 147.142C13.1063 146.367 11.5473 144.112 11.7313 142.234C11.9194 140.31 14.1163 138.21 16.2149 137.935C16.9664 137.837 17.4103 138.04 17.6435 138.859C18.0762 140.38 18.1136 141.917 18.114 143.47Z" fill="#C8A180"/>
<path fill-rule="evenodd" clip-rule="evenodd" d="M66.2141 145.66C65.3087 146.4 64.5333 147.326 63.3446 147.659C62.7401 146.399 61.7623 145.398 60.976 144.265C60.6517 143.797 60.2755 143.35 60.0382 142.84C59.5009 141.686 59.7481 140.396 60.5836 139.996C61.7542 139.437 62.4074 140.235 62.9916 141.054C64.0797 142.579 65.1414 144.124 66.2141 145.66Z" fill="#0D3186"/>
<path fill-rule="evenodd" clip-rule="evenodd" d="M85.32 140.962C84.7868 141.304 85.2286 142.074 84.5844 142.48C83.7363 142.081 82.6945 141.982 81.8929 141.288C82.1712 139.208 82.4389 137.126 82.7344 135.048C82.8264 134.401 82.9753 133.695 83.721 133.521C84.5717 133.323 85.021 133.985 85.4821 134.555C85.99 135.184 85.9476 135.899 85.8533 136.634C85.6688 138.076 85.4968 139.519 85.32 140.962Z" fill="#0F3286"/>
<path fill-rule="evenodd" clip-rule="evenodd" d="M69.6867 143.772C68.8341 143.893 68.2554 144.756 67.3184 144.647C66.7599 142.687 66.2055 140.726 65.6407 138.767C65.375 137.845 65.2713 136.95 66.3156 136.448C67.1474 136.047 68.1565 136.524 68.6347 137.697C69.3123 139.358 69.8265 141.086 70.4116 142.786C70.1707 143.115 69.9285 143.444 69.6867 143.772Z" fill="#0E3286"/>
<path fill-rule="evenodd" clip-rule="evenodd" d="M62.3725 148.69C61.6981 149.585 61.0237 150.481 60.3488 151.376C58.6098 150.229 57.5243 148.48 56.2815 146.886C55.7488 146.203 55.6179 145.35 56.3456 144.672C57.1305 143.94 57.8825 144.362 58.5077 144.946C59.8187 146.169 61.0868 147.439 62.3725 148.69Z" fill="#0D3186"/>
<path fill-rule="evenodd" clip-rule="evenodd" d="M79.7127 138.398C79.6843 138.557 79.6386 138.717 79.6291 138.878C79.4893 141.281 79.4903 141.281 76.9628 141.284C76.7774 139.252 76.6202 137.218 76.853 135.181C76.9446 134.381 76.9288 133.416 78.0791 133.412C79.2182 133.407 79.5917 134.259 79.6585 135.221C79.732 136.276 79.6992 137.338 79.7127 138.398Z" fill="#163787"/>
<path fill-rule="evenodd" clip-rule="evenodd" d="M74.7947 141.741C73.8194 141.818 72.892 142.691 71.8652 141.92C71.6474 139.993 71.4083 138.066 71.222 136.133C71.1498 135.386 71.231 134.598 72.1607 134.414C73.1829 134.21 73.7035 134.906 73.8609 135.746C74.2331 137.734 74.4907 139.741 74.7947 141.741Z" fill="#0F3286"/>
<path fill-rule="evenodd" clip-rule="evenodd" d="M91.2458 157.999C91.2652 158.283 91.0888 158.421 90.843 158.465C90.5015 158.525 90.2146 158.428 90.1519 158.042C90.1059 157.76 90.3057 157.619 90.5529 157.576C90.8935 157.517 91.1673 157.605 91.2458 157.999Z" fill="#F5853E"/>
<path fill-rule="evenodd" clip-rule="evenodd" d="M42.9957 165.438C42.577 165.336 42.3316 165.119 42.4399 164.771C42.4859 164.623 42.8094 164.47 43.0006 164.478C43.3575 164.492 43.5717 164.788 43.4928 165.12C43.4576 165.27 43.1387 165.352 42.9957 165.438Z" fill="#F48B46"/>
<path fill-rule="evenodd" clip-rule="evenodd" d="M95.733 163.041C95.6464 163.439 95.351 163.453 95.0388 163.413C94.6761 163.366 94.469 163.126 94.5841 162.794C94.6369 162.642 94.9499 162.493 95.143 162.495C95.4479 162.499 95.7385 162.645 95.733 163.041Z" fill="#F67D30"/>
<path fill-rule="evenodd" clip-rule="evenodd" d="M86.8537 164.872C86.8208 165.136 86.6931 165.364 86.4107 165.293C86.2077 165.243 85.9822 165.081 85.8726 164.903C85.7034 164.629 85.9285 164.452 86.1735 164.405C86.5294 164.337 86.7991 164.467 86.8537 164.872Z" fill="#F68035"/>
<path fill-rule="evenodd" clip-rule="evenodd" d="M90.0992 162.039C90.2052 162.16 90.4465 162.31 90.4758 162.493C90.5516 162.971 90.1759 162.949 89.8714 162.885C89.6332 162.836 89.4378 162.668 89.5051 162.382C89.5642 162.13 89.759 162.023 90.0992 162.039Z" fill="#F67829"/>
<path fill-rule="evenodd" clip-rule="evenodd" d="M86.5836 159.973C86.9075 159.999 87.2255 160.049 87.1971 160.46C87.1795 160.711 86.9512 160.88 86.7302 160.819C86.5411 160.767 86.3377 160.58 86.2475 160.4C86.0946 160.094 86.3932 160.053 86.5836 159.973Z" fill="#F77523"/>
<path fill-rule="evenodd" clip-rule="evenodd" d="M48.5224 159.271C48.803 159.407 49.0939 159.557 48.9852 159.938C48.9157 160.181 48.6843 160.297 48.4687 160.147C48.3022 160.031 48.1367 159.82 48.1042 159.63C48.0636 159.393 48.226 159.211 48.5224 159.271Z" fill="#F67624"/>
<path fill-rule="evenodd" clip-rule="evenodd" d="M51.6459 157.426C51.7171 157.311 51.7717 157.116 51.866 157.094C52.0911 157.042 52.3315 157.123 52.355 157.394C52.3649 157.511 52.2427 157.717 52.1389 157.75C51.8908 157.827 51.7162 157.68 51.6459 157.426Z" fill="#F86F19"/>
<path fill-rule="evenodd" clip-rule="evenodd" d="M51.5434 161.586C51.7924 161.66 51.9787 161.812 51.8934 162.084C51.8158 162.332 51.57 162.433 51.3359 162.357C51.2285 162.323 51.118 162.122 51.1108 161.992C51.0968 161.725 51.2461 161.558 51.5434 161.586Z" fill="#F77624"/>
<path fill-rule="evenodd" clip-rule="evenodd" d="M23.4613 114.78C23.6277 114.898 23.7947 115.017 23.9607 115.134C23.7942 115.016 23.6277 114.897 23.4613 114.78Z" fill="#FEC41D"/>
<path fill-rule="evenodd" clip-rule="evenodd" d="M46.4491 263.744C47.2809 264.043 48.1065 263.941 48.9306 263.707C54.4274 264.029 59.8971 263.458 65.365 263.095C71.5695 262.683 77.7591 261.982 83.8599 260.753C88.5014 259.816 93.2432 259.324 97.7524 257.769C98.8198 257.886 99.7887 257.494 100.774 257.185C104.135 256.938 107.23 255.769 110.282 254.449C111.446 254.992 112.078 255.835 112.461 257.136C113.683 261.279 114.017 265.581 114.935 269.775C115.331 271.583 114.186 272.64 112.831 273.525C111.048 275.723 108.236 275.834 105.902 276.911C105.096 277.282 104.184 277.425 103.323 277.688C102.566 277.996 101.762 278.125 100.982 278.351C92.6191 280.479 84.1112 281.613 75.5144 282.191C67.6755 282.718 59.8393 283.277 51.9752 283.126C51.1217 283.068 50.2804 283.308 49.4255 283.257C47.3283 282.939 45.2907 283.677 43.2034 283.611C41.9132 283.569 40.628 283.603 39.6058 282.624C38.2796 282.295 37.6381 281.457 37.2695 280.115C36.2234 276.307 36.0565 272.38 35.5472 268.504C35.3505 267.008 35.5535 265.395 36.5951 264.089C37.3494 263.718 38.1411 263.766 38.958 263.782C41.4545 263.831 43.954 264.066 46.4491 263.744Z" fill="#D2D2D2"/>
<path fill-rule="evenodd" clip-rule="evenodd" d="M57.2426 311.553C56.358 311.58 55.4734 311.608 54.5887 311.635C50.942 311.401 47.3047 311.851 43.6602 311.813C41.83 311.47 41.0706 310.4 40.5888 308.539C39.6559 304.937 39.489 301.256 39.0194 297.615C38.788 295.821 38.8178 293.771 40.8681 292.661C42.5484 291.511 44.4553 292.082 46.2647 291.992C47.7881 291.916 49.3218 291.91 50.8484 292.02C51.8886 291.966 52.9293 292.024 53.9696 292.012C70.3425 291.97 86.4335 289.683 102.34 285.939C103 285.736 103.686 285.691 104.364 285.607C106.963 285.064 109.567 284.554 112.032 283.502C112.656 283.236 113.389 282.874 114.039 283.549C114.922 284.051 115.493 284.731 115.803 285.759C117.103 290.068 117.492 294.55 118.389 298.934C118.736 300.634 117.618 301.651 116.34 302.5C113.28 303.684 110.218 304.868 107.158 306.052C106.343 306.25 105.528 306.448 104.713 306.647C100.626 307.444 96.5604 308.384 92.4468 309.007C85.7379 310.024 78.9794 310.641 72.1948 310.924C67.2105 311.133 62.2269 311.343 57.2426 311.553Z" fill="#D2D2D2"/>
<path fill-rule="evenodd" clip-rule="evenodd" d="M51.0722 292.738C47.6686 293.028 44.2676 292.916 40.8681 292.661C41.0223 289.243 40.0691 285.965 39.6058 282.624C42.0026 282.847 44.3967 282.739 46.7944 282.612C47.7426 282.562 48.7111 282.396 49.649 282.733C51.1778 285.918 52.1102 289.188 51.0722 292.738Z" fill="#F9660B"/>
<path fill-rule="evenodd" clip-rule="evenodd" d="M114.039 283.549C113.24 283.678 112.458 283.843 111.728 284.227C109.473 285.409 107.01 285.822 104.523 286.134C103.635 285.721 103.493 284.89 103.515 284.079C103.58 281.754 102.325 279.495 103.18 277.138C106.482 276.16 109.668 274.874 112.831 273.525C113.233 276.867 113.636 280.207 114.039 283.549Z" fill="#F9660C"/>
<path fill-rule="evenodd" clip-rule="evenodd" d="M6.22633 178.846C6.19475 179.18 6.08468 179.399 5.83071 179.404C5.40486 179.41 5.3611 179.084 5.41614 178.767C5.45629 178.534 5.60876 178.294 5.88033 178.419C6.04724 178.495 6.14062 178.734 6.22633 178.846Z" fill="#FA7421"/>
<path fill-rule="evenodd" clip-rule="evenodd" d="M76.6785 157.119C76.6907 158.007 76.7043 158.817 75.6974 158.91C74.8732 158.986 74.5786 158.319 74.4374 157.664C74.0414 155.831 73.6778 153.991 73.3336 152.148C73.1982 151.424 73.4355 150.816 74.2259 150.662C75.0324 150.505 75.4073 151.051 75.6252 151.724C76.208 153.522 76.4191 155.391 76.6785 157.119Z" fill="#EFEDEF"/>
<path fill-rule="evenodd" clip-rule="evenodd" d="M73.7746 149.021C73.0564 149.021 72.4086 148.08 72.4334 147.021C72.4497 146.316 72.7009 145.743 73.5215 145.72C74.2974 145.698 74.8879 146.591 74.8658 147.686C74.8505 148.464 74.3953 149.02 73.7746 149.021Z" fill="#E8E7EE"/>
<path fill-rule="evenodd" clip-rule="evenodd" d="M102.567 286.556C92.1603 289.077 81.6689 291.073 70.9677 291.864C65.2666 292.286 59.5795 292.93 53.8477 292.696C53.3786 292.348 52.9613 291.924 52.886 291.338C52.5093 288.415 50.9263 285.693 51.4302 282.624C56.8174 282.399 62.2027 282.132 67.5912 281.957C74.9487 281.719 82.2643 281.006 89.5375 279.935C93.4085 279.364 97.2271 278.438 101.069 277.672C102.447 280.485 102.844 283.464 102.567 286.556Z" fill="#FA660B"/>
<path fill-rule="evenodd" clip-rule="evenodd" d="M108.607 265.338C108.607 264.732 108.59 264.407 108.61 264.085C108.647 263.519 109.029 263.22 109.519 263.079C110.159 262.895 110.633 263.213 110.933 263.739C111.131 264.084 111.287 264.488 111.331 264.88C111.563 266.963 111.706 269.055 112.392 271.065C112.603 271.683 112.245 272.195 111.656 272.421C110.993 272.675 110.342 272.602 109.995 271.883C109.716 271.303 109.436 270.696 109.323 270.071C109.023 268.409 108.812 266.73 108.607 265.338Z" fill="#FBEFE7"/>
<path fill-rule="evenodd" clip-rule="evenodd" d="M51.4302 282.624C52.4362 285.933 53.0831 289.329 53.8477 292.696C52.9266 292.969 52.0015 292.991 51.0722 292.738C50.8697 289.365 50.1551 286.064 49.649 282.733C50.2345 282.558 50.828 282.528 51.4302 282.624Z" fill="#0F0A5F"/>
<path fill-rule="evenodd" clip-rule="evenodd" d="M102.567 286.556C101.792 283.64 101.303 280.678 101.069 277.672C101.772 277.494 102.476 277.316 103.18 277.138C103.983 280.084 103.986 283.149 104.523 286.134C103.871 286.275 103.219 286.415 102.567 286.556Z" fill="#0E095E"/>
<path fill-rule="evenodd" clip-rule="evenodd" d="M110.006 260.063C109.893 260.831 109.432 261.209 108.686 261.236C107.999 261.26 107.614 260.924 107.623 260.217C107.633 259.47 107.984 258.934 108.75 258.884C109.521 258.834 109.925 259.314 110.006 260.063Z" fill="#FBEFE7"/>
<path fill-rule="evenodd" clip-rule="evenodd" d="M113.157 292.011C113.684 292.065 114.174 292.235 114.361 292.725C114.617 293.399 114.929 294.119 114.92 294.815C114.898 296.464 115.254 298.03 115.714 299.578C115.99 300.509 115.897 301.194 114.888 301.488C114.006 301.746 113.488 301.238 113.213 300.483C112.376 298.184 112.265 295.756 112.036 293.354C111.961 292.563 112.488 292.2 113.157 292.011Z" fill="#FBEFE7"/>
<path fill-rule="evenodd" clip-rule="evenodd" d="M113.443 288.821C113.415 289.75 112.975 290.16 112.236 290.234C111.593 290.298 111.109 290.069 111.072 289.33C111.036 288.596 111.318 288.036 112.087 287.903C112.887 287.765 113.243 288.285 113.443 288.821Z" fill="#FBEFE7"/>
</svg>
