<svg width="515" height="449" viewBox="0 0 515 449" fill="none" xmlns="http://www.w3.org/2000/svg">
<g filter="url(#filter0_d_4008_37159)">
<path d="M373.958 181.653C373.527 179.092 374.549 176.655 374.537 174.096C374.446 155.496 374.128 136.886 374.593 118.296C375.07 99.2268 374.974 80.1629 375.087 61.0963C375.108 57.431 376.782 55.8323 380.498 55.851C385.663 55.877 390.802 56.2975 395.923 56.9605C396.116 56.9858 396.314 57.0192 396.507 57.0047C400.914 56.6721 405.295 57.389 409.639 57.7744C413.503 58.1172 417.415 57.8347 421.273 58.661C423.909 59.2254 426.717 59.1133 429.412 59.2162C433.606 59.3752 437.81 59.6987 441.949 60.1164C445.82 60.5072 449.712 60.4166 453.589 60.9481C456.926 61.4057 460.369 61.596 463.776 61.7119C467.034 61.8224 467.887 62.6379 467.908 65.9636C467.934 69.9771 468.2 74.016 467.859 78.0004C466.757 90.8947 468.005 103.826 467.22 116.693C466.45 129.311 467.391 141.931 466.616 154.506C466.105 162.819 466.461 171.111 466.11 179.402C466.012 181.722 465.475 184.027 465.505 186.373C463.534 184.309 461.051 184.134 458.37 184.185C451.358 184.321 444.373 183.521 437.364 183.383C436.513 183.174 435.668 182.925 434.776 182.982C426.486 183.506 418.219 182.698 409.95 182.404C398.958 182.014 387.948 181.884 376.983 180.92C375.777 180.814 374.965 181.43 373.958 181.653Z" fill="black"/>
</g>
<path d="M373.958 181.653C373.527 179.092 374.549 176.655 374.537 174.096C374.446 155.496 374.128 136.886 374.593 118.296C375.07 99.2268 374.974 80.1629 375.087 61.0963C375.108 57.431 376.782 55.8323 380.498 55.851C385.663 55.877 390.802 56.2975 395.923 56.9605C396.116 56.9858 396.314 57.0192 396.507 57.0047C400.914 56.6721 405.295 57.389 409.639 57.7744C413.503 58.1172 417.415 57.8347 421.273 58.661C423.909 59.2254 426.717 59.1133 429.412 59.2162C433.606 59.3752 437.81 59.6987 441.949 60.1164C445.82 60.5072 449.712 60.4166 453.589 60.9481C456.926 61.4057 460.369 61.596 463.776 61.7119C467.034 61.8224 467.887 62.6379 467.908 65.9636C467.934 69.9771 468.2 74.016 467.859 78.0004C466.757 90.8947 468.005 103.826 467.22 116.693C466.45 129.311 467.391 141.931 466.616 154.506C466.105 162.819 466.461 171.111 466.11 179.402C466.012 181.722 465.475 184.027 465.505 186.373C463.534 184.309 461.051 184.134 458.37 184.185C451.358 184.321 444.373 183.521 437.364 183.383C436.513 183.174 435.668 182.925 434.776 182.982C426.486 183.506 418.219 182.698 409.95 182.404C398.958 182.014 387.948 181.884 376.983 180.92C375.777 180.814 374.965 181.43 373.958 181.653Z" fill="#F0F5F0"/>
<mask id="mask0_4008_37159" style="mask-type:alpha" maskUnits="userSpaceOnUse" x="0" y="0" width="515" height="449">
<path d="M24.1551 126.391C31.4366 98.6566 39.0142 75.9209 51.4224 54.8622C76.78 11.8325 110.555 -8.33789 170.965 3.20782C196.011 7.99226 219.404 17.9923 242.565 28.3778C294.418 51.6292 345.919 75.6043 394.972 104.455C420.089 119.226 444.07 135.427 462.222 158.893C465.443 163.058 469.786 166.343 473.503 170.139C510.684 208.1 521.144 253.625 511.227 304.742C509.516 313.552 506.75 322.161 504.372 330.836C499.046 350.265 488.61 366.625 474.208 380.539C457.492 396.689 438.053 408.377 416.337 416.66C338.303 446.425 257.941 455.643 175.25 444.317C139.895 439.61 105.726 428.356 74.4923 411.131C20.9195 381.541 -4.3536 336.476 0.612831 275.679C3.17087 244.372 8.23255 213.233 13.0706 182.16C16.2109 161.98 20.9915 142.056 24.1551 126.391Z" fill="white"/>
</mask>
<g mask="url(#mask0_4008_37159)">
<path d="M24.1551 126.391C31.4366 98.6566 39.0142 75.9209 51.4224 54.8622C76.78 11.8325 110.555 -8.33789 170.965 3.20782C196.011 7.99226 219.404 17.9923 242.565 28.3778C294.418 51.6292 345.919 75.6043 394.972 104.455C420.089 119.226 444.07 135.427 462.222 158.893C465.443 163.058 469.786 166.343 473.503 170.139C510.684 208.1 521.144 253.625 511.227 304.742C509.516 313.552 506.75 322.161 504.372 330.836C499.046 350.265 488.61 366.625 474.208 380.539C457.492 396.689 438.053 408.377 416.337 416.66C338.303 446.425 257.941 455.643 175.25 444.317C139.895 439.61 105.726 428.356 74.4923 411.131C20.9195 381.541 -4.3536 336.476 0.612831 275.679C3.17087 244.372 8.23255 213.233 13.0706 182.16C16.2109 161.98 20.9915 142.056 24.1551 126.391Z" fill="#7367E4"/>
<path fill-rule="evenodd" clip-rule="evenodd" d="M235.556 296.752L241.942 295.626C250.58 294.937 259.14 294.658 267.621 294.787C276.102 294.917 280.865 295.4 281.911 296.237V362.464H235.556V296.752Z" fill="#D8D8D8"/>
<path fill-rule="evenodd" clip-rule="evenodd" d="M218.81 299.836L218.939 299.68C219.448 299.178 220.218 299.596 220.749 299.168L220.749 299.175C221.445 298.44 222.474 299.095 223.222 298.583C223.396 298.709 223.536 298.679 223.643 298.493C224.337 297.911 225.305 298.54 226 297.962L226.023 297.96C226.893 297.216 228.07 298.024 228.958 297.379L228.964 297.393C230.03 296.561 231.397 297.49 232.486 296.791L232.492 296.809C233.769 295.966 235.307 296.91 236.605 296.209L236.612 296.235C237.682 295.543 238.864 295.906 239.989 295.937C240.873 295.961 241.143 296.518 240.637 297.32C239.719 299.181 240.216 301.15 240.289 303.06C240.594 311.07 240.984 319.078 241.361 327.086C241.687 334.02 241.979 340.956 242.396 347.884C242.647 352.059 243.949 353.219 248.113 353.154C257.602 353.004 267.091 352.805 276.579 352.606C280.085 352.533 281.368 351.369 281.344 347.796C281.27 336.841 281.082 325.887 280.91 314.932C280.867 312.199 280.717 309.467 280.617 306.734C280.042 303.649 280.507 300.535 280.35 297.439C280.295 296.337 280.744 295.776 281.872 295.884C283.015 295.992 284.208 295.567 285.302 296.196L285.327 296.196C286.626 296.931 288.169 295.962 289.456 296.785L289.586 296.892L289.724 296.795C291.783 297.149 293.886 297.268 295.879 297.963L295.897 297.964C296.593 298.545 297.577 297.893 298.263 298.515L298.403 298.67L298.592 298.585C299.224 298.923 300.023 298.614 300.615 299.106L300.736 299.242L300.902 299.168C301.532 299.509 302.365 299.157 302.918 299.76L302.917 299.755C303.426 300.196 304.232 299.726 304.686 300.334L304.689 300.33C305.173 300.804 306.016 300.281 306.426 300.958L306.421 300.954C306.806 301.169 307.304 301.106 307.637 301.447L307.694 301.468C308.1 302.028 309.01 301.418 309.333 302.173L309.435 302.048L309.326 302.167C309.733 302.341 310.273 302.235 310.523 302.738L310.516 302.733C310.899 302.945 311.469 302.809 311.673 303.355L311.761 303.237L311.656 303.34C311.983 303.329 312.135 303.6 312.35 303.771L312.415 303.804C312.675 304.182 313.267 304.024 313.485 304.469L313.466 304.453C313.704 304.589 313.921 304.753 314.116 304.944L314.169 304.98C314.637 305.499 315.445 305.608 315.767 306.303L315.742 306.279C316.113 306.316 316.317 306.517 316.348 306.891L316.321 306.863C317.002 307.265 317.303 307.924 317.523 308.638L317.487 308.582C318.507 309.843 317.527 311.415 318.135 312.74L318.098 312.669C318.859 314.872 318.759 317.208 319.062 319.473C320.275 328.515 320.579 337.647 321.317 346.733C321.813 352.831 322.385 358.942 322.722 365.067C323.296 375.492 323.361 385.938 323.95 396.345C324.642 408.569 324.13 420.77 324.385 432.978C324.475 437.233 324.89 441.481 324.465 445.757C324.285 447.566 324.143 449.24 322.829 450.599L322.857 450.567C322.781 450.879 322.561 451.069 322.3 451.226L322.315 451.209C322.175 451.469 321.974 451.668 321.715 451.81L321.73 451.799C320.801 452.682 319.662 452.749 318.455 452.74C314.053 452.706 309.65 452.772 305.249 452.719C288.624 452.519 272 452.889 255.381 453.118C239.538 453.337 223.698 453.146 207.857 453.317C205.941 453.338 204.099 453.25 203.212 451.119L203.248 451.169C202.108 449.196 201.848 446.936 201.676 444.788C201.078 437.317 200.395 429.808 200.809 422.329C201.259 414.206 200.581 406.124 200.252 398.058C199.964 391.032 199.76 384.006 199.94 377.001C200.126 369.726 200.819 362.455 201.458 355.19C201.924 349.885 202.358 344.566 202.846 339.262C203.339 333.898 203.807 328.511 204.918 323.218L204.896 323.272C205.627 321.973 204.537 320.381 205.558 319.128L205.523 319.196C206.109 318.068 205.195 316.672 206.163 315.613L206.126 315.682C206.643 314.734 205.854 313.537 206.7 312.651L206.675 312.71C207.18 311.972 206.557 310.979 207.226 310.279L207.217 310.308C207.837 309.633 207.078 308.58 207.865 307.951L207.842 307.996C208.275 307.47 207.795 306.635 208.455 306.185L208.434 306.246C208.829 305.695 208.445 304.919 208.963 304.403L208.965 304.398C209.399 303.658 209.951 303.041 210.742 302.669L210.745 302.667C211.037 302.269 211.575 302.373 211.922 302.089C212.291 301.675 212.838 301.702 213.305 301.531L213.515 301.583L213.654 301.417C214.002 301.102 214.505 301.185 214.879 300.939C215.314 300.298 216.134 300.787 216.638 300.345C217.174 299.738 218.006 300.109 218.623 299.76L218.81 299.836Z" fill="#0B0705"/>
<path fill-rule="evenodd" clip-rule="evenodd" d="M196.026 215.08C196.157 214.98 196.18 214.861 196.092 214.721C196.452 214.11 196.104 213.303 196.641 212.741L196.629 212.766C197.137 212.268 196.677 211.467 197.191 210.971C197.324 210.878 197.351 210.762 197.272 210.621C197.444 210.151 197.451 209.621 197.782 209.208L197.783 209.206C198.342 208.748 197.828 207.906 198.409 207.455L198.395 207.482C198.704 207.141 198.614 206.631 198.904 206.282C199.042 206.176 199.083 206.04 199.026 205.875C199.241 205.434 199.183 204.878 199.601 204.523L199.58 204.557C199.876 204.201 199.79 203.662 200.161 203.341L200.151 203.36C200.475 203.023 200.382 202.485 200.732 202.162L200.728 202.168C201.072 201.847 200.97 201.306 201.315 200.985L201.313 200.988C201.663 200.674 201.554 200.122 201.918 199.815L201.91 199.828C202.246 199.503 202.134 198.937 202.543 198.651L202.521 198.684C202.821 198.333 202.708 197.752 203.179 197.495L203.124 197.552C203.214 197.268 203.466 197.1 203.615 196.858L203.635 196.817C204.046 196.561 203.9 195.978 204.287 195.708L204.271 195.732C204.595 195.401 204.463 194.796 204.969 194.575L204.903 194.637C204.989 194.33 205.221 194.137 205.452 193.945L205.441 193.96C205.776 193.641 205.635 193.025 206.155 192.821L206.086 192.883C206.165 192.563 206.397 192.368 206.652 192.191L206.622 192.224C206.765 191.982 206.991 191.806 207.144 191.572L207.166 191.539C207.57 191.287 207.41 190.656 207.896 190.459L207.833 190.518C207.936 190.213 208.16 190.014 208.418 189.844L208.387 189.877C208.529 189.627 208.753 189.445 208.939 189.232L208.947 189.221C209.147 189.05 209.315 188.851 209.451 188.625L209.5 188.558C209.938 188.354 209.762 187.694 210.26 187.535L210.194 187.594C210.287 187.269 210.509 187.063 210.808 186.929L210.759 186.978C210.883 186.686 211.099 186.482 211.369 186.325L211.33 186.365C211.477 186.102 211.689 185.899 211.934 185.728L211.907 185.755C212.067 185.511 212.277 185.314 212.503 185.133L212.487 185.149C212.662 184.925 212.866 184.73 213.076 184.54L213.07 184.546C213.256 184.338 213.455 184.142 213.659 183.951L213.656 183.954C213.846 183.751 214.043 183.554 214.246 183.364L214.243 183.367C214.435 183.163 214.63 182.962 214.842 182.78L214.834 182.787C215.021 182.574 215.216 182.369 215.445 182.198L215.427 182.215C215.605 181.985 215.802 181.774 216.052 181.618L216.022 181.647C216.19 181.397 216.393 181.185 216.662 181.042L216.621 181.083C216.773 180.808 216.978 180.59 217.276 180.472L217.225 180.523C217.355 180.217 217.56 179.994 217.893 179.91L217.834 179.978C217.989 179.466 218.648 179.64 218.869 179.217L218.923 179.179C219.143 179.028 219.346 178.854 219.533 178.664L219.532 178.665C219.733 178.459 219.918 178.235 220.182 178.102L220.143 178.14C220.304 177.869 220.503 177.642 220.822 177.553L220.763 177.62C220.949 177.114 221.583 177.271 221.851 176.887L221.873 176.872C222.095 176.698 222.272 176.468 222.531 176.339L222.49 176.379C222.717 175.956 223.332 176.124 223.549 175.685L223.622 175.643C223.847 175.492 224.062 175.329 224.269 175.154L224.243 175.174C224.454 174.882 224.709 174.658 225.085 174.615C225.241 174.654 225.352 174.6 225.418 174.455C225.629 174.301 225.837 174.145 226.042 173.984L226.009 174.013C226.275 173.607 226.856 173.745 227.134 173.36L227.162 173.345C227.39 173.173 227.558 172.919 227.857 172.845L227.8 172.903C228.041 172.412 228.629 172.533 228.978 172.233L228.948 172.253C229.231 171.842 229.796 171.956 230.122 171.624L230.113 171.629C230.417 171.262 230.967 171.375 231.28 171.026L231.284 171.025C231.596 170.678 232.141 170.79 232.448 170.435L232.457 170.43C232.782 170.093 233.316 170.191 233.642 169.858L233.637 169.861C233.959 169.501 234.494 169.591 234.842 169.288L234.819 169.3C235.169 168.896 235.721 168.961 236.145 168.732C236.319 168.778 236.464 168.733 236.582 168.598C236.926 168.327 237.433 168.431 237.746 168.091L237.749 168.089C238.134 167.739 238.666 167.766 239.109 167.563C239.271 167.621 239.405 167.584 239.514 167.451C239.896 167.148 240.414 167.205 240.818 166.959C240.994 167.016 241.149 166.979 241.28 166.848C241.676 166.569 242.185 166.603 242.6 166.378C242.769 166.442 242.915 166.408 243.04 166.278C243.544 165.819 244.32 166.261 244.807 165.747L244.803 165.749C245.374 165.239 246.17 165.568 246.784 165.217C246.92 165.31 247.037 165.291 247.137 165.16C247.876 164.534 248.884 165.135 249.644 164.61C249.806 164.698 249.952 164.677 250.083 164.548C250.99 163.89 252.153 164.641 253.064 164.006L253.034 164.029C255.535 163.133 258.192 164.192 260.702 163.418L260.677 163.452C261.839 162.887 263.001 162.887 264.164 163.452L264.139 163.418C266.261 164.161 268.531 163.185 270.649 163.976C270.786 164.102 270.935 164.116 271.095 164.018C272.048 164.609 273.222 163.909 274.168 164.544C274.304 164.671 274.454 164.692 274.62 164.608C275.188 165.008 275.934 164.69 276.505 165.075C276.694 165.104 276.883 165.133 277.072 165.161C277.573 165.661 278.329 165.252 278.855 165.662C279.016 165.788 279.194 165.821 279.389 165.76C279.909 166.246 280.709 165.804 281.222 166.313C281.312 166.445 281.428 166.473 281.569 166.398C282.04 166.563 282.567 166.576 282.982 166.902L282.996 166.907C283.45 167.466 284.288 166.951 284.735 167.529L284.718 167.52C285.056 167.832 285.568 167.735 285.913 168.032C286.014 168.167 286.143 168.208 286.303 168.156C286.754 168.357 287.313 168.302 287.667 168.732L287.634 168.711C287.994 168.998 288.537 168.907 288.845 169.299L288.824 169.286C289.17 169.593 289.712 169.498 290.024 169.873L290.011 169.866C290.346 170.188 290.893 170.085 291.199 170.464L291.184 170.454C291.518 170.776 292.081 170.666 292.366 171.081L292.335 171.06C292.687 171.356 293.271 171.239 293.518 171.722L293.462 171.666C293.755 171.746 293.924 171.999 294.155 172.165L294.186 172.181C294.459 172.572 295.041 172.432 295.306 172.835L295.274 172.808C295.477 172.969 295.684 173.124 295.895 173.274C295.963 173.421 296.076 173.476 296.234 173.44C296.609 173.485 296.864 173.709 297.069 174.006L297.039 173.981C297.252 174.153 297.469 174.318 297.69 174.478L297.753 174.514C297.979 174.943 298.602 174.777 298.815 175.226L298.766 175.176C299.048 175.288 299.23 175.521 299.431 175.733L299.426 175.728C299.614 175.917 299.82 176.086 300.042 176.233L300.105 176.276C300.322 176.707 300.968 176.535 301.146 177.02L301.089 176.957C301.399 177.059 301.601 177.282 301.757 177.556L301.717 177.516C301.982 177.658 302.181 177.871 302.36 178.107L302.339 178.087C302.571 178.251 302.759 178.462 302.961 178.658L302.964 178.661C303.152 178.856 303.35 179.038 303.56 179.21L303.589 179.236C303.748 179.446 303.936 179.623 304.156 179.767L304.207 179.816C304.343 180.035 304.523 180.21 304.746 180.339L304.81 180.4C304.936 180.623 305.109 180.799 305.335 180.922L305.4 180.987C305.524 181.213 305.7 181.387 305.921 181.516L305.978 181.577C306.113 181.799 306.288 181.981 306.505 182.124L306.546 182.168C306.699 182.385 306.877 182.577 307.084 182.744L307.102 182.765C307.271 182.982 307.476 183.166 307.658 183.371L307.652 183.365C307.862 183.56 308.077 183.75 308.231 183.996L308.203 183.966C308.452 184.138 308.669 184.339 308.798 184.62L308.75 184.573C309.042 184.717 309.268 184.919 309.353 185.248L309.284 185.187C309.796 185.358 309.631 186.005 310.034 186.252L310.057 186.284C310.21 186.517 310.431 186.694 310.584 186.927L310.56 186.9C310.804 187.081 311.032 187.277 311.128 187.582L311.064 187.523C311.556 187.725 311.404 188.35 311.788 188.624L311.798 188.641C311.975 188.865 312.215 189.04 312.324 189.316L312.274 189.265C312.723 189.507 312.584 190.106 312.96 190.392L312.968 190.405C313.15 190.628 313.397 190.801 313.489 191.092L313.433 191.035C313.906 191.281 313.783 191.872 314.107 192.203L314.094 192.182C314.476 192.467 314.346 193.037 314.728 193.321L314.738 193.34C314.961 193.589 315.193 193.834 315.236 194.189C315.183 194.341 315.227 194.456 315.368 194.533C315.564 194.775 315.771 195.01 315.827 195.332C315.778 195.493 315.825 195.619 315.968 195.709C316.14 195.921 316.289 196.147 316.415 196.389L316.357 196.322C317.08 196.682 316.479 197.607 317.081 198.019L317.089 198.04C317.398 198.386 317.318 198.908 317.637 199.249L317.626 199.228C318.008 199.594 317.956 200.139 318.181 200.569C318.126 200.739 318.166 200.881 318.303 200.996C318.584 201.351 318.505 201.854 318.8 202.204L318.781 202.17C319.372 202.636 318.89 203.465 319.39 203.962L319.374 203.931C319.942 204.45 319.529 205.268 319.953 205.832C319.886 206.001 319.917 206.15 320.044 206.28C320.496 206.801 320.091 207.566 320.557 208.084L320.536 208.044C321.22 208.789 320.63 209.82 321.112 210.611C321.013 210.742 321.028 210.859 321.157 210.961C321.926 212.059 321.028 213.43 321.743 214.536L321.727 214.503C322.264 219.59 322.275 224.675 321.719 229.761L321.739 229.725C321.032 230.834 321.926 232.205 321.155 233.304C321.026 233.407 321.012 233.523 321.112 233.654C320.635 234.446 321.209 235.471 320.546 236.222L320.564 236.188C319.956 236.88 320.66 237.906 319.955 238.571L319.974 238.536C319.488 239.047 319.935 239.844 319.421 240.345C319.287 240.439 319.262 240.555 319.343 240.696C319.166 241.16 319.172 241.689 318.851 242.103C318.717 242.201 318.685 242.325 318.758 242.475C318.572 242.935 318.579 243.466 318.24 243.868L318.24 243.866C317.683 244.323 318.213 245.183 317.593 245.617L317.617 245.578C317.332 245.943 317.401 246.462 317.075 246.809L317.072 246.816C316.488 247.245 317.076 248.158 316.361 248.533L316.4 248.477C316.17 248.875 316.253 249.425 315.801 249.716L315.834 249.67C315.57 250.048 315.666 250.609 315.211 250.89L315.245 250.843C314.982 251.222 315.083 251.79 314.61 252.059L314.647 252.009C314.396 252.394 314.504 252.971 313.998 253.22L314.062 253.158C313.997 253.463 313.736 253.632 313.567 253.865L313.556 253.888C313.167 254.165 313.302 254.744 312.906 255.017L312.924 254.989C312.612 255.331 312.733 255.92 312.252 256.165L312.31 256.107C312.224 256.402 311.975 256.576 311.789 256.797L311.783 256.806C311.41 257.095 311.55 257.697 311.094 257.935L311.146 257.883C311.041 258.164 310.799 258.339 310.617 258.56L310.61 258.573C310.232 258.854 310.38 259.471 309.896 259.684L309.958 259.626C309.856 259.924 309.629 260.119 309.394 260.306L309.412 260.285C309.232 260.49 309.062 260.702 308.902 260.923L308.869 260.974C308.446 261.204 308.612 261.84 308.137 262.034L308.198 261.979C308.088 262.276 307.866 262.475 307.614 262.649L307.642 262.619C307.493 262.863 307.273 263.046 307.087 263.258L307.08 263.268C306.576 263.776 306.418 264.557 305.757 264.941L305.823 264.887C305.74 265.224 305.518 265.431 305.205 265.551L305.257 265.499C305.146 265.807 304.928 266.014 304.64 266.155L304.686 266.109C304.552 266.391 304.338 266.597 304.072 266.753L304.109 266.715C303.959 266.978 303.749 267.182 303.497 267.346L303.527 267.316C303.371 267.569 303.164 267.773 302.915 267.935L302.942 267.909C302.781 268.156 302.575 268.361 302.328 268.523L302.355 268.497C302.192 268.744 301.988 268.95 301.737 269.109L301.766 269.081C301.601 269.329 301.396 269.537 301.14 269.692L301.174 269.659C301.015 269.918 300.809 270.13 300.537 270.272L300.578 270.23C300.43 270.508 300.224 270.723 299.929 270.846L299.977 270.796C299.847 271.097 299.64 271.317 299.318 271.413L299.37 271.352C298.695 272.093 297.892 272.676 297.062 273.225L297.074 273.217C296.888 273.446 296.692 273.663 296.418 273.791L296.461 273.748C296.314 274.035 296.114 274.263 295.78 274.336L295.838 274.268C295.663 274.796 295.026 274.639 294.744 275.007L294.735 275.013C294.524 275.206 294.345 275.436 294.074 275.557L294.114 275.513C293.621 276.061 292.942 276.341 292.344 276.737L292.366 276.721C291.834 277.216 291.186 277.534 290.575 277.907L290.603 277.888C290.343 278.296 289.757 278.154 289.488 278.547L289.453 278.564C289.222 278.729 289.055 278.983 288.761 279.059L288.814 279.004C288.572 279.49 287.985 279.368 287.64 279.672L287.666 279.654C287.384 280.06 286.818 279.941 286.503 280.285L286.502 280.285C285.46 281.124 284.178 281.488 283.001 282.061L282.983 282.069C282.65 282.395 282.123 282.305 281.789 282.626L281.798 282.621C281.476 282.991 280.944 282.91 280.578 283.186L280.613 283.165C280.249 283.602 279.688 283.562 279.218 283.742L279.02 283.721L278.868 283.849C278.586 284.177 278.035 283.995 277.799 284.411C277.777 284.61 277.755 284.809 277.733 285.008C278.146 285.719 277.969 286.477 277.909 287.223C273.952 284.093 269.439 286.154 265.186 285.96C263.498 285.883 261.736 286.354 259.638 286.347C264.894 290.365 269.981 294.099 275.006 297.915C276.088 298.737 277.294 299.45 277.712 300.879C277.688 302.525 276.553 302.702 275.294 302.697C272.852 302.687 270.41 302.662 267.968 302.649C260.935 302.611 253.901 302.542 246.869 302.564C244.939 302.57 243.413 302.098 242.552 300.248C241.848 297.203 241.445 294.132 241.546 290.992C241.58 289.965 241.827 288.887 241.294 287.893L241.311 287.918C241.071 287.746 240.861 287.546 240.706 287.293L240.723 287.31C240.036 286.706 238.997 287.435 238.35 286.683L238.386 286.709C237.86 286.253 237.069 286.688 236.563 286.167L236.41 286.05L236.222 286.094C235.615 285.725 234.762 286.146 234.248 285.477L234.296 285.509C233.907 285.274 233.398 285.345 233.044 285.02L232.885 284.894L232.684 284.919C232.219 284.74 231.679 284.758 231.29 284.381L231.302 284.387C230.839 283.853 229.95 284.413 229.555 283.705L229.603 283.739C229.207 283.511 228.667 283.591 228.366 283.16L228.399 283.184C228.033 282.908 227.488 282.998 227.184 282.593L227.209 282.61C226.857 282.313 226.313 282.407 226.005 282.019L226.023 282.031C225.683 281.718 225.125 281.824 224.835 281.414L224.863 281.432C224.511 281.135 223.94 281.245 223.672 280.793L223.712 280.822C223.343 280.554 222.752 280.678 222.53 280.151L222.586 280.214C222.274 280.148 222.088 279.912 221.885 279.699L221.883 279.698C221.574 279.35 220.983 279.481 220.738 279.025L220.786 279.074C220.508 278.971 220.336 278.73 220.111 278.558L220.083 278.542C219.811 278.157 219.205 278.304 218.976 277.85L219.024 277.899C218.742 277.792 218.564 277.557 218.356 277.358L218.349 277.353C218.059 276.992 217.431 277.144 217.243 276.627L217.301 276.692C216.976 276.613 216.778 276.385 216.62 276.11L216.658 276.148C216.392 276.019 216.208 275.794 216.007 275.588L216.006 275.587C215.474 275.11 214.71 274.932 214.314 274.279L214.366 274.343C214.034 274.259 213.829 274.036 213.701 273.73L213.75 273.78C213.452 273.662 213.246 273.445 213.097 273.169L213.138 273.21C212.866 273.068 212.663 272.856 212.499 272.602L212.531 272.632C212.276 272.479 212.076 272.27 211.905 272.029L211.928 272.051C211.689 271.885 211.487 271.681 211.317 271.444L211.337 271.465C211.101 271.295 210.898 271.093 210.729 270.857L210.75 270.877C210.513 270.707 210.307 270.505 210.145 270.261L210.17 270.287C209.927 270.117 209.717 269.914 209.563 269.659L209.598 269.693C209.337 269.533 209.124 269.328 208.988 269.05L209.032 269.095C208.748 268.95 208.529 268.744 208.418 268.437L208.472 268.489C208.157 268.368 207.934 268.162 207.857 267.822L207.925 267.874C207.257 267.485 207.073 266.723 206.614 266.173L206.622 266.184C206.398 265.993 206.179 265.798 206.052 265.523L206.102 265.569C205.536 265.093 205.287 264.39 204.852 263.82L204.861 263.834C204.633 263.641 204.406 263.448 204.307 263.151L204.369 263.209C203.881 262.987 204.018 262.379 203.668 262.071L203.672 262.077C203.458 261.873 203.226 261.683 203.137 261.384L203.201 261.445C202.701 261.212 202.826 260.616 202.518 260.272L202.539 260.303C202.135 260.031 202.268 259.451 201.887 259.166L201.878 259.15C201.703 258.921 201.438 258.753 201.384 258.439L201.451 258.501C200.93 258.262 201.04 257.681 200.797 257.292L200.836 257.343C200.353 257.077 200.453 256.509 200.202 256.123L200.239 256.173C199.768 255.892 199.855 255.338 199.631 254.935L199.672 254.992C198.946 254.622 199.536 253.705 198.957 253.274L198.955 253.27C198.768 253.056 198.539 252.883 198.364 252.657C198.172 252.659 197.98 252.661 197.789 252.663C196.612 253.131 195.439 253.176 194.272 252.632L194.297 252.649C193.61 252.045 192.581 252.758 191.925 252.035L191.957 252.053C191.595 251.77 191.077 251.843 190.735 251.514L190.72 251.507C190.421 251.144 189.864 251.265 189.569 250.895L189.578 250.9C189.26 250.565 188.654 250.702 188.437 250.204L188.495 250.267C188.185 250.169 187.985 249.945 187.823 249.678L187.859 249.715C187.595 249.57 187.397 249.357 187.225 249.115L187.249 249.138C187.008 248.971 186.805 248.767 186.638 248.527L186.661 248.551C186.42 248.376 186.208 248.175 186.064 247.91L186.104 247.951C185.83 247.793 185.605 247.592 185.512 247.275L185.58 247.336C185.07 247.121 185.206 246.513 184.877 246.187L184.891 246.208C184.509 245.915 184.628 245.352 184.267 245.048L184.266 245.045C183.933 244.706 184.011 244.179 183.709 243.826L183.727 243.859C183.145 243.383 183.609 242.563 183.131 242.054L183.154 242.097C182.598 239.558 182.581 237.021 183.166 234.484L183.139 234.532C183.605 234.017 183.141 233.195 183.735 232.723L183.714 232.758C184.008 232.4 183.93 231.872 184.274 231.537L184.273 231.539C184.624 231.227 184.509 230.666 184.893 230.371L184.879 230.394C185.205 230.066 185.071 229.458 185.579 229.241L185.512 229.304C185.602 228.989 185.83 228.791 186.092 228.622L186.057 228.657C186.204 228.401 186.421 228.208 186.642 228.02L186.63 228.033C186.808 227.815 187.011 227.621 187.216 227.428L187.213 227.431C187.407 227.226 187.599 227.02 187.825 226.85L187.809 226.865C187.992 226.635 188.183 226.413 188.457 226.283L188.412 226.329C188.633 225.894 189.252 226.06 189.474 225.628L189.543 225.592C189.791 225.465 189.959 225.224 190.217 225.111L190.172 225.152C190.458 224.713 191.015 224.808 191.387 224.539L191.343 224.566C191.801 223.921 192.656 224.419 193.168 223.931C193.356 223.994 193.526 223.963 193.68 223.839C195.133 223.309 194.143 221.786 194.854 220.954C194.978 220.83 194.994 220.693 194.902 220.544C195.494 219.584 194.736 218.374 195.478 217.442L195.46 217.475C196.06 216.774 195.397 215.774 196.026 215.08Z" fill="#A57157"/>
<path fill-rule="evenodd" clip-rule="evenodd" d="M277.712 300.879C271.196 295.986 264.68 291.093 258.16 286.197C258.536 285.183 259.328 285.661 259.908 285.586C264.913 284.94 269.994 285.332 274.988 284.491C276.193 284.288 277.16 284.48 277.111 286.043C277.095 286.545 277.242 287.003 277.63 287.356C278.423 288.278 277.621 289.507 278.231 290.464C278.085 290.804 278.11 291.135 278.282 291.459C278.754 294.397 278.745 297.334 278.288 300.272C278.096 300.474 277.904 300.677 277.712 300.879Z" fill="#744D3A"/>
<path fill-rule="evenodd" clip-rule="evenodd" d="M261.37 306.114C263.347 312.886 265.274 319.671 266.407 326.644C264.406 319.877 262.47 313.094 261.37 306.114Z" fill="#B5C5CE"/>
<path fill-rule="evenodd" clip-rule="evenodd" d="M259.007 320.244V306.119C259.115 306.119 259.224 306.119 259.332 306.118V320.249C259.224 320.248 259.115 320.245 259.007 320.244Z" fill="#AFC0CA"/>
<path fill-rule="evenodd" clip-rule="evenodd" d="M255.427 313.203C255.908 310.776 256.389 308.348 256.87 305.921C257.064 305.958 257.258 305.995 257.453 306.032C257.04 308.436 256.956 310.893 255.979 313.206C255.794 313.477 255.61 313.489 255.427 313.203Z" fill="#B5C5CE"/>
<path fill-rule="evenodd" clip-rule="evenodd" d="M255.899 314.958C255.26 317.489 255.193 320.146 254.202 322.599C254.019 322.861 253.835 322.862 253.649 322.602C254.303 320.074 254.373 317.416 255.358 314.962C255.537 314.706 255.717 314.691 255.899 314.958Z" fill="#B3C3CD"/>
<path fill-rule="evenodd" clip-rule="evenodd" d="M255.899 314.958C255.719 314.96 255.539 314.962 255.359 314.962C255.381 314.376 255.403 313.79 255.427 313.203C255.611 313.201 255.794 313.201 255.979 313.205C255.952 313.79 255.925 314.374 255.899 314.958Z" fill="#B0C0CB"/>
<path fill-rule="evenodd" clip-rule="evenodd" d="M253.65 322.601C253.833 322.6 254.018 322.599 254.202 322.599C254.192 322.99 254.183 323.382 254.172 323.773C254.172 323.773 253.887 323.774 253.887 323.774H253.603C253.618 323.383 253.634 322.992 253.65 322.601Z" fill="#B0C1CB"/>
<path fill-rule="evenodd" clip-rule="evenodd" d="M309.452 320.278C309.527 320.34 309.645 320.386 309.673 320.465C311.253 324.932 310.759 325.676 306.009 326.053C301.634 326.4 297.262 326.769 292.887 327.117C290.771 327.286 289.778 326.482 289.562 324.376C289.482 323.604 289.554 322.816 289.557 322.036C295.573 321.008 301.712 321.483 307.74 320.566C308.313 320.479 308.889 320.423 309.452 320.278Z" fill="#A92D2D"/>
<path fill-rule="evenodd" clip-rule="evenodd" d="M309.452 320.278C309.351 320.768 309.192 321.366 308.642 321.345C306.767 321.273 305.001 321.975 303.145 322.009C300.035 322.067 296.927 321.901 293.825 322.523C292.455 322.798 290.894 322.919 289.556 322.035C289.555 321.476 289.852 321.073 290.358 320.956C291.401 320.716 292.457 320.453 293.519 320.39C297.808 320.133 302.101 319.922 306.395 319.758C307.424 319.719 308.559 319.382 309.452 320.278Z" fill="#DF1A1A"/>
<path fill-rule="evenodd" clip-rule="evenodd" d="M254.69 214.394C254.794 213.438 255.193 212.867 256.238 212.579C260.55 211.39 264.866 210.898 269.232 212.198C275.329 214.012 276.825 218.655 274.648 224.167C274.035 225.719 273.077 227.086 271.938 228.321C268.031 232.56 263.119 234.92 257.675 236.219C256.833 235.29 257.498 234.084 256.674 233.359C255.67 232.628 255.776 231.49 255.622 230.453C254.978 226.128 254.664 221.764 254.102 217.428C253.965 216.369 253.863 215.283 254.69 214.394Z" fill="#040607"/>
<path fill-rule="evenodd" clip-rule="evenodd" d="M254.69 214.394C255.351 220.715 256.012 227.035 256.674 233.358C256.666 233.94 256.607 234.524 256.66 235.099C256.755 236.12 256.167 236.495 255.31 236.647C254.925 236.715 254.534 236.746 254.144 236.782C250.59 237.104 247.093 236.555 243.726 235.59C239.03 234.243 237.467 230.359 239.523 225.895C240.394 224.005 241.663 222.386 243.086 220.902C245.892 217.978 249.259 215.824 252.812 213.92C253.709 213.439 254.229 213.58 254.69 214.394Z" fill="white"/>
<path fill-rule="evenodd" clip-rule="evenodd" d="M256.314 193.903C260.911 193.501 264.984 194.928 268.599 197.692C270.238 198.946 271.66 200.459 271.853 202.683C272.023 204.629 271.382 205.691 269.721 206.431C268.172 207.121 266.711 206.869 265.56 205.347C263.804 203.025 261.56 201.845 258.706 201.35C254.031 200.539 250.053 201.755 246.564 204.851C246.2 205.174 245.894 205.565 245.527 205.885C244.004 207.21 242.149 207.294 240.762 206.119C239.322 204.899 239.008 203.11 240.024 201.378C240.767 200.111 241.681 198.978 242.914 198.113C246.937 195.292 251.26 193.454 256.314 193.903Z" fill="#533120"/>
<path fill-rule="evenodd" clip-rule="evenodd" d="M285.924 247.685C286.554 252.876 283.068 255.781 278.722 257.467C272.434 259.906 267.479 257.44 264.353 252.616C263.93 251.962 263.453 251.341 263.055 250.673C262.352 249.494 262.521 248.07 263.536 247.311C264.587 246.524 265.737 246.567 266.764 247.388C267.289 247.808 267.713 248.363 268.145 248.889C268.513 249.339 268.78 249.877 269.172 250.302C272.592 253.993 275.099 253.756 279.496 251.061C280.839 250.238 281.186 247.242 280.303 245.079C279.753 243.733 278.958 242.487 278.267 241.2C277.945 240.6 277.518 240.04 277.298 239.407C276.865 238.159 277.302 237.113 278.297 236.293C279.361 235.417 280.445 235.846 281.199 236.61C283.702 239.15 285.549 242.084 285.914 245.745C285.981 246.422 285.924 247.111 285.924 247.685Z" fill="#D26767"/>
<path fill-rule="evenodd" clip-rule="evenodd" d="M196.59 243.411C196.525 245.529 195.098 246.574 193.161 246.146C190.136 245.477 187.845 241.713 188.215 238.602C188.476 236.404 189.303 234.687 190.992 233.365C192.596 232.112 195.012 232.622 195.237 234.445C195.617 237.523 196.025 240.59 196.59 243.411Z" fill="#744D3A"/>
<path fill-rule="evenodd" clip-rule="evenodd" d="M260.291 227.872C260.291 228.838 260.329 229.805 260.278 230.767C260.24 231.467 260.044 232.158 259.125 232.103C258.413 232.06 258.165 231.51 258.125 230.9C257.968 228.487 257.84 226.073 257.701 223.66C257.664 223.005 257.952 222.426 258.552 222.31C259.39 222.148 259.794 222.857 259.878 223.53C260.057 224.968 260.095 226.423 260.191 227.871C260.225 227.871 260.258 227.872 260.291 227.872Z" fill="#EFF1F1"/>
<path fill-rule="evenodd" clip-rule="evenodd" d="M259.545 218.588C259.706 219.838 259.586 220.541 258.766 220.7C257.924 220.864 257.58 220.194 257.426 219.504C257.239 218.662 257.085 217.806 257.009 216.948C256.962 216.425 257.299 216.008 257.829 215.916C258.354 215.826 258.803 216.113 258.973 216.591C259.263 217.402 259.452 218.25 259.545 218.588Z" fill="#E9EBEB"/>
<path fill-rule="evenodd" clip-rule="evenodd" d="M245.168 228.944C245.2 229.028 245.272 229.123 245.255 229.195C245.188 229.469 245.046 229.498 244.913 229.268C244.878 229.206 244.915 229.075 244.96 229.003C244.989 228.958 245.097 228.962 245.168 228.944Z" fill="#D9C3B9"/>
<path fill-rule="evenodd" clip-rule="evenodd" d="M75.33 303.269C75.5004 298.873 74.7382 294.559 74.2488 290.217C74.0876 288.787 73.4494 288.398 72.1725 288.48C69.2629 288.667 66.3533 288.608 63.4302 288.841C58.3866 289.242 53.2854 289.17 48.2208 288.977C44.9188 288.852 42.2113 285.73 41.8868 282.341C41.8593 282.05 41.813 281.742 41.8771 281.465C42.3525 279.414 41.2405 278.482 39.4726 277.997C40.474 276.737 40.9263 275.393 40.833 273.697C40.3501 264.947 39.6413 256.203 39.8116 247.432C39.8154 245.732 40.4018 244.253 41.282 242.787C42.7934 240.269 42.4129 237.383 40.5069 235.22C38.8468 233.337 36.9446 233.035 33.8592 234.196C33.1305 234.47 32.4352 234.851 31.6175 234.569C26.8569 231.06 26.9388 220.416 30.595 216.686C32.2314 215.017 33.7838 213.255 35.8687 212.118C37.5041 211.226 38.0528 209.877 38.1363 208.045C38.3056 204.327 37.2928 200.694 37.5105 196.985C37.5838 195.73 37.4087 194.445 38.0037 193.258C39.2591 191.613 41.0928 191.977 42.7859 191.919C44.0353 191.876 45.2842 191.822 46.5342 191.753C46.8786 191.749 47.2123 191.806 47.5389 191.909C47.8656 192.013 48.1744 192.156 48.472 192.324C55.1148 197.121 62.8815 198.709 70.7236 199.956C83.2428 201.945 95.9097 201.802 108.455 201.05C120.928 200.301 133.18 197.455 145.214 193.925C146.883 193.436 148.667 192.116 150.346 194.001C151.634 200.421 151.915 206.962 152.546 213.453C153.451 222.774 154.447 232.087 155.251 241.417C156.055 250.749 157.283 260.042 157.868 269.39C158.037 272.084 158.522 274.37 161.163 275.649C158.166 275.847 157.39 277.377 157.458 280.359C157.533 283.696 154.659 285.782 151.275 286.194C144.836 286.978 138.378 286.508 131.936 286.768C127.938 286.929 123.956 287.437 119.944 287.314C119.324 287.295 118.821 287.613 118.312 287.906C115.292 288.369 112.251 288.121 109.224 288.087C101.981 288.007 94.7513 288.261 87.5215 288.671C86.4785 288.73 85.2533 289.043 84.862 288.536C88.7019 290.442 93.2297 292.425 97.6992 294.51C104.706 297.778 111.616 301.255 118.725 304.305C119.265 304.537 119.757 304.864 120.163 305.304C121.678 311.062 122.865 316.766 117.35 321.291C107.41 328.517 96.4875 330.39 84.6501 327.282C79.8874 325.336 77.0387 322.134 76.4081 316.72C75.8857 312.237 74.6099 307.846 75.33 303.269Z" fill="#EDCEB4"/>
<path fill-rule="evenodd" clip-rule="evenodd" d="M47.1029 192.2C45.4401 192.889 43.6737 192.651 41.9483 192.766C40.701 192.849 39.4252 192.695 38.2491 193.28C36.887 194.321 35.5497 194.077 34.2248 193.201C31.0246 191.491 30.0361 188.772 29.9089 185.224C29.4211 171.613 34.1304 159.817 42.6539 149.593C49.7721 141.054 58.2724 133.96 68.29 128.907C77.4738 124.275 87.1049 122.189 97.4955 123.165C105.347 123.902 112.937 125.443 120.379 127.952C126.827 130.126 132.804 133.211 138.305 137.182C146.435 143.051 151.68 150.981 154.421 160.558C155.419 164.043 155.304 167.723 155.76 171.307C156.143 174.308 156.261 177.342 156.496 180.362C155.181 181.622 153.456 181.706 151.828 181.77C139.119 182.275 126.452 183.422 113.776 184.349C98.9503 185.433 84.108 186.32 69.2915 187.566C63.0599 188.09 56.8047 188.451 50.5602 188.89C47.187 189.127 47.1816 189.049 47.1029 192.2Z" fill="#FEC41D"/>
<path fill-rule="evenodd" clip-rule="evenodd" d="M74.87 452.658C74.0189 452.991 73.1284 452.856 72.2552 452.856C65.3089 452.856 58.3589 452.718 51.4174 452.893C48.7299 452.961 47.0676 451.449 45.2371 450.043C44.5973 449.551 44.2986 448.664 44.4523 447.916C44.8112 446.17 44.1165 444.653 43.6896 443.064C41.1249 433.523 39.3861 423.814 37.7345 414.084C36.753 408.304 35.4485 402.596 33.8137 396.955C30.1242 384.228 28.0004 371.245 27.5935 357.981C27.4377 352.899 27.0965 347.834 27.5347 342.743C27.8468 339.123 28.3362 335.562 29.4515 332.099C29.5711 331.727 29.8034 331.351 29.7905 330.983C29.6525 327.111 32.215 325.149 34.9888 323.136C41.7372 318.238 48.8442 313.992 56.4729 310.623C58.8343 313.211 58.1589 316.562 58.4672 319.557C60.1091 335.487 61.1003 351.481 63.1534 367.373C63.2795 368.348 63.2779 369.322 63.1658 370.295C61.497 376.668 63.1798 382.836 64.3204 389.041C64.612 390.628 65.8668 391.459 66.8635 392.505C68.066 396.424 68.9117 400.386 68.3409 404.522C66.5072 407.258 66.0474 410.215 66.7433 413.435C67.1324 415.238 67.2435 417.094 67.4176 418.938C67.7431 422.374 68.5042 425.675 71.6947 427.762C73.3478 432.489 73.3241 437.51 74.2291 442.369C74.6738 444.754 74.96 447.174 75.2532 449.587C75.3815 450.644 75.6456 451.715 74.87 452.658Z" fill="#050561"/>
<path fill-rule="evenodd" clip-rule="evenodd" d="M140.374 303.194C146.356 303.736 152.138 305.045 157.623 307.57C159.737 308.543 162.122 309.068 163.269 311.438C163.523 311.963 163.979 312.444 164.067 312.989C165.013 318.917 167.621 324.353 169.065 330.14C172.483 343.836 174.883 357.699 175.91 371.765C177.15 388.743 178.309 405.731 178.338 422.769C178.35 430.313 177.882 437.826 177.006 445.316C176.778 447.264 176.368 449.141 175.498 450.943C174.77 452.453 173.645 453.314 172.09 453.301C168.481 453.271 164.855 453.623 161.263 452.998C160.347 452.219 160.303 451.138 160.258 450.064C159.857 440.544 158.425 431.122 157.528 421.649C157.381 420.096 157.204 418.556 157.501 417.009C160.148 413.882 159.635 410.361 158.774 406.788C158.247 404.601 157.924 402.372 157.551 400.158C157.134 397.686 156.062 395.542 154.676 393.509C154.199 389.723 153.021 386.012 153.458 382.13C155.679 379.521 155.713 376.567 154.935 373.418C154.377 371.163 154.014 368.861 153.658 366.561C153.206 363.649 152.332 360.915 150.107 358.804C147.907 344.453 145.157 330.206 142.106 316.014C141.451 312.967 140.739 309.93 140.158 306.867C139.925 305.631 139.558 304.374 140.374 303.194Z" fill="#050561"/>
<path fill-rule="evenodd" clip-rule="evenodd" d="M116.951 320.657C117.791 319.586 118.707 318.564 119.453 317.431C120.734 315.487 121.37 313.411 120.447 311.074C119.752 309.315 120.104 307.401 119.78 305.58C119.085 303.994 118.115 302.426 119.462 300.707C121.681 300.798 123.887 300.988 126.057 301.487C126.893 302.264 127.135 303.276 127.31 304.364C130.236 322.648 133.2 340.927 136.091 359.217C136.3 360.543 136.757 361.896 136.101 363.238C135.192 364.44 133.805 364.667 132.474 364.938C119.249 367.622 105.986 369.966 92.452 370.528C88.7495 370.682 85.0518 371.082 81.3353 371.008C80.0692 370.983 78.7825 371.072 77.6042 370.445C75.9629 369.113 76.0325 367.124 75.8336 365.338C74.7733 355.834 73.6942 346.331 72.71 336.818C71.8664 328.664 71.1123 320.502 70.0251 312.374C69.6915 309.882 69.2673 307.331 70.4245 304.894C71.5403 304.108 72.8916 303.989 74.1421 303.586C74.3906 303.485 74.6407 303.388 74.8924 303.296C75.0401 303.313 75.1857 303.304 75.3301 303.269C75.7921 304.667 75.9505 306.12 75.95 307.574C75.9478 311.772 77.2005 315.778 77.8263 319.877C78.1476 321.978 79.7231 323.452 81.4172 324.65C82.4376 325.372 83.5744 325.929 84.6583 326.56C90.5212 339.244 98.8587 350.433 106.089 362.851C107.672 359.878 108.162 357.182 108.935 354.612C111.496 346.094 114.081 337.583 116.568 329.043C116.958 327.703 117.117 326.399 117.005 325.005C116.889 323.565 116.376 322.111 116.951 320.657Z" fill="#FA660B"/>
<path fill-rule="evenodd" clip-rule="evenodd" d="M47.1029 192.2C46.8916 191.396 46.1203 190.997 45.7392 190.325C45.1566 189.297 45.5549 188.412 46.703 188.089C46.8879 188.037 47.0922 188.024 47.2846 188.035C50.3139 188.215 53.2962 187.739 56.2964 187.452C61.4143 186.962 66.5609 186.913 71.6853 186.37C74.7614 186.045 77.8818 185.966 80.9822 185.709C86.1056 185.285 91.2634 185.305 96.363 184.536C96.7463 184.478 97.143 184.498 97.5332 184.499C102.496 184.513 107.424 184.072 112.33 183.354C112.714 183.297 113.111 183.322 113.501 183.324C118.855 183.358 124.153 182.542 129.475 182.268C133.358 182.07 137.28 181.997 141.102 181.46C145.548 180.835 150.061 181.515 154.451 180.442C155.1 180.283 155.813 180.382 156.496 180.362C158.536 180.509 160.55 180.273 162.568 180.002C163.62 179.861 164.671 179.827 165.32 181.043C166.03 182.374 165.351 183.211 164.527 184.106C162.094 186.751 159.193 188.828 156.31 190.928C154.417 192.482 152.137 193.188 149.846 193.872C149.183 193.382 148.526 193.701 147.903 193.937C139.185 197.237 129.947 198.347 120.917 200.324C112.381 202.193 103.701 202.294 95.0106 202.134C91.5933 202.071 88.1727 202.151 84.7575 202.046C76.0616 201.78 67.4594 200.721 59.0766 198.349C54.9402 197.18 50.944 195.566 47.6851 192.582C47.4856 192.443 47.2873 192.302 47.0889 192.16L47.1029 192.2Z" fill="#FEBD1D"/>
<path fill-rule="evenodd" clip-rule="evenodd" d="M148.389 452.921C147.609 452.956 146.829 453.023 146.049 453.022C129.126 452.998 112.202 452.968 95.2784 452.931C94.3039 452.928 93.3293 452.847 92.3542 452.802C91.2024 452.017 90.9824 450.747 90.6585 449.533C89.0075 443.342 87.8707 437.052 87.0449 430.703C86.8708 429.363 86.6622 427.986 87.7182 426.843C88.4916 426.338 89.3724 426.278 90.2548 426.245C101.876 425.812 113.49 425.333 125.056 423.957C130.122 423.355 135.075 422.245 140.075 421.342C141.415 421.1 142.738 420.638 144.122 421.079C145.076 421.92 145.334 423.075 145.436 424.249C146.156 432.54 147.704 440.716 148.814 448.952C148.997 450.309 149.269 451.677 148.389 452.921Z" fill="#FA660B"/>
<path fill-rule="evenodd" clip-rule="evenodd" d="M149.847 193.872C151.59 191.989 154.018 191.607 156.31 190.929C161.982 199.962 165.564 209.875 168.38 220.079C172.508 235.033 175.044 250.221 174.613 265.807C174.567 267.478 174.288 269.107 174.02 270.749C173.605 273.288 171.977 274.441 169.621 274.74C166.809 275.098 163.983 275.351 161.163 275.649C157.626 275.527 157.576 275.532 157.188 271.782C156.696 267.02 156.312 262.246 155.855 257.48C155.127 249.896 154.361 242.315 153.641 234.73C152.966 227.629 152.335 220.525 151.677 213.422C151.072 206.905 150.457 200.389 149.847 193.872Z" fill="#FA660B"/>
<path fill-rule="evenodd" clip-rule="evenodd" d="M34.225 193.201C35.5736 192.85 36.9039 193.454 38.2492 193.28C38.4675 198.539 38.6336 203.801 38.936 209.055C39.0265 210.631 38.626 211.699 37.1276 212.281C36.858 212.387 36.622 212.574 36.3648 212.714C27.1277 217.744 26.8049 227.917 31.9503 234.387C32.3632 235.433 31.6792 236.253 31.3768 237.148C29.9026 241.521 32.8639 245.47 37.5173 245.368C38.6514 245.343 40.1822 244.523 40.4495 246.606C40.7099 252.341 40.9702 258.076 41.2289 263.81C41.4046 267.698 41.6019 271.586 41.7437 275.475C41.8267 277.745 41.7863 277.747 39.4723 277.997C35.0486 277.19 30.5591 276.742 26.1985 275.586C20.6175 274.107 20.4412 274.07 19.8774 268.517C17.6777 246.87 19.7562 225.731 27.7918 205.364C29.4811 201.084 31.5293 196.964 34.225 193.201Z" fill="#FA660B"/>
<path fill-rule="evenodd" clip-rule="evenodd" d="M62.7828 370.565C61.4045 363.167 60.5232 355.7 60.2149 348.191C59.9018 340.567 58.6178 333.053 57.9942 325.467C57.5872 320.512 57.4778 315.519 56.4731 310.623C60.1648 308.469 64.0382 306.737 68.1665 305.598C69.1367 306.357 69.0753 307.471 69.1868 308.53C70.3457 319.578 71.4529 330.634 72.4684 341.692C73.2613 350.326 73.7184 358.988 75.0497 367.569C75.1834 368.429 75.2497 369.32 74.8912 370.167C70.8998 371.631 66.8421 371.13 62.7828 370.565Z" fill="#FA660B"/>
<path fill-rule="evenodd" clip-rule="evenodd" d="M140.373 303.194C141.72 309.795 143 316.41 144.427 322.993C147.017 334.932 149.267 346.928 150.829 359.047C147.508 362.11 143.553 363.025 139.168 362.491C138.436 361.513 138.25 360.346 138.095 359.19C135.634 340.799 131.557 322.722 127.549 304.631C127.324 303.619 126.772 302.57 127.617 301.57C131.892 301.934 136.193 302.092 140.373 303.194Z" fill="#FA660B"/>
<path fill-rule="evenodd" clip-rule="evenodd" d="M158.068 416.462C158.582 423.92 159.572 431.329 160.353 438.759C160.85 443.484 160.972 448.25 161.262 452.998C158.113 453.24 154.967 453.16 151.82 452.943C151.03 452.267 150.659 451.352 150.555 450.371C149.572 441.147 147.881 432.021 146.716 422.822C146.643 422.243 146.625 421.654 146.698 421.07C146.769 420.79 146.813 420.426 147.063 420.306C150.587 418.616 154.028 416.679 158.068 416.462Z" fill="#FA660B"/>
<path fill-rule="evenodd" clip-rule="evenodd" d="M74.87 452.658C73.6545 444.301 72.4395 435.945 71.2241 427.589C75.3982 426.505 79.6068 425.911 83.913 426.681C84.9399 427.273 85.274 428.299 85.494 429.355C86.9202 436.216 88.4203 443.064 89.5172 449.989C89.6697 450.952 89.8061 451.93 89.1453 452.793C84.3847 452.947 79.6262 452.949 74.87 452.658Z" fill="#FA660B"/>
<path fill-rule="evenodd" clip-rule="evenodd" d="M119.462 300.708C119.166 302.359 120.273 303.917 119.78 305.581C115.773 303.792 111.744 302.052 107.765 300.204C100.42 296.79 93.1017 293.321 85.7835 289.852C84.962 289.463 83.9503 289.3 83.4086 288.389C83.6738 288.205 83.8112 288.027 83.9573 288.019C94.7764 287.446 105.598 286.972 116.436 287.329C117.114 287.351 117.82 287.279 118.311 287.906C118.323 288.291 118.335 288.676 118.346 289.062C118.73 289.832 118.316 290.723 118.715 291.491C118.672 294.586 119.212 297.635 119.462 300.708Z" fill="#8E715F"/>
<path fill-rule="evenodd" clip-rule="evenodd" d="M127.617 301.57C132.35 321.666 136.657 341.845 139.468 362.317C138.458 363.553 137.298 364.011 135.857 363.014C133.2 346.553 130.535 330.093 127.892 313.629C127.243 309.588 126.667 305.535 126.057 301.487C126.577 301.514 127.097 301.542 127.617 301.57Z" fill="#070660"/>
<path fill-rule="evenodd" clip-rule="evenodd" d="M74.5564 370.154C73.2283 361.776 72.16 353.373 71.8268 344.885C71.559 338.062 70.2874 331.334 69.7624 324.533C69.2746 318.218 68.7022 311.909 68.1669 305.598C68.8763 305.225 69.6002 304.897 70.4249 304.894C71.843 322.121 73.9737 339.273 75.7865 356.458C76.2678 361.022 76.6764 365.593 77.5215 370.11C76.5459 370.98 75.5574 370.966 74.5564 370.154Z" fill="#080660"/>
<path fill-rule="evenodd" clip-rule="evenodd" d="M147.095 420.706C148.038 426.643 149.029 432.572 149.908 438.519C150.616 443.316 151.188 448.134 151.82 452.943C150.674 453.261 149.531 453.175 148.389 452.921C147.468 446.375 146.523 439.832 145.636 433.282C145.102 429.333 144.659 425.372 144.175 421.416C144.943 420.337 145.874 419.925 147.095 420.706Z" fill="#080660"/>
<path fill-rule="evenodd" clip-rule="evenodd" d="M89.1452 452.793C87.8014 444.268 85.9752 435.835 84.2822 427.377C85.2982 426.038 86.3606 426.173 87.4532 427.278C88.438 435.911 90.0685 444.419 92.3545 452.802C91.284 453.029 90.214 453.046 89.1452 452.793Z" fill="#0A0760"/>
<path fill-rule="evenodd" clip-rule="evenodd" d="M118.715 291.491C118.158 290.746 118.178 289.915 118.346 289.061C119.002 289.791 118.873 290.639 118.715 291.491Z" fill="#EDCEB4"/>
<path fill-rule="evenodd" clip-rule="evenodd" d="M74.8923 303.296C74.7123 303.573 74.4622 303.67 74.142 303.586C74.3183 303.298 74.5652 303.193 74.8923 303.296Z" fill="#EDCEB4"/>
<path fill-rule="evenodd" clip-rule="evenodd" d="M116.951 320.657C118.022 324.199 117.94 327.606 116.783 331.226C113.574 341.258 110.7 351.395 107.687 361.49C107.415 362.4 107.1 363.298 106.824 364.141C105.869 364.293 105.711 363.6 105.431 363.146C98.9223 352.601 92.4504 342.032 85.9094 331.506C84.9387 329.943 84.3269 328.399 84.6594 326.56C96.3378 329.595 107.11 327.671 116.951 320.657Z" fill="#050561"/>
<path fill-rule="evenodd" clip-rule="evenodd" d="M108.426 224.376C109.325 224.363 110.226 224.36 111.016 223.829C112.759 223.296 113.242 221.564 114.302 220.38C114.639 220.893 114.648 221.484 114.61 222.05C114.496 223.807 115.349 224.26 116.907 223.834C117.281 223.825 117.661 223.742 118.027 223.844C119.711 224.312 120.258 224.245 121.002 223.444C121.163 224.555 120.878 225.68 121.986 226.642C124.937 229.202 124.766 232.513 123.614 235.813C122.519 238.945 120.362 241.378 117.738 243.345C114.421 245.832 110.788 247.699 106.656 248.452C106.03 248.071 105.667 247.474 105.552 246.794C104.424 240.171 102.468 233.701 101.875 226.976C102.046 226.266 102.375 225.708 103.189 225.626C104.296 226.166 104.688 225.507 104.926 224.591C106.068 224.123 107.214 223.718 108.426 224.376Z" fill="#2B6CD5"/>
<path fill-rule="evenodd" clip-rule="evenodd" d="M102.322 226.802C103.767 234.019 105.212 241.236 106.656 248.452C102.603 249.852 98.5094 248.88 94.4991 248.397C89.5343 247.8 87.3351 242.706 89.7504 238.107C90.1563 237.333 90.6899 236.627 91.1648 235.889C91.1314 234.187 92.1043 233.242 93.5828 232.678C94.159 232.446 94.5644 232.053 94.7444 231.447C95.5879 230.221 96.5652 229.188 98.1731 229.058C98.828 228.889 99.2764 228.495 99.4926 227.848C100.307 227.151 101.09 226.369 102.322 226.802Z" fill="white"/>
<path fill-rule="evenodd" clip-rule="evenodd" d="M90.2184 273.956C85.6298 274.245 80.6132 269.963 79.5901 262.973C79.1664 260.082 80.0795 257.353 81.3613 254.801C82.0868 253.357 83.5411 252.857 84.8277 253.392C86.1855 253.958 86.7116 255.088 86.4895 256.481C86.3219 257.532 85.9456 258.548 85.6659 259.581C84.1965 265.009 88.1378 269.139 93.6368 268.036C97.3593 267.29 100.306 265.501 102.53 262.393C104.025 260.304 106.416 260.346 107.541 262.32C108.211 263.496 107.936 264.645 107.22 265.616C103.488 270.666 98.6443 273.739 90.2184 273.956Z" fill="#BB7095"/>
<path fill-rule="evenodd" clip-rule="evenodd" d="M120.479 204.82C121.581 204.885 122.648 204.891 123.479 205.777C124.781 207.163 124.353 209.379 122.513 210.136C121.537 210.537 120.441 210.694 119.382 210.84C112.814 211.744 106.238 212.594 99.6717 213.518C98.7818 213.643 97.962 213.747 97.0952 213.424C95.9536 212.998 95.3666 212.196 95.282 211.015C95.1952 209.817 95.7364 208.985 96.7891 208.402C97.6898 207.902 98.6789 207.936 99.6329 207.797C106.579 206.786 113.53 205.808 120.479 204.82Z" fill="#FA660C"/>
<path fill-rule="evenodd" clip-rule="evenodd" d="M40.4498 246.606C39.9857 245.881 39.5135 245.713 38.5465 245.96C34.2581 247.053 30.8575 244.281 30.1524 239.789C29.8236 237.694 31.072 236.095 31.9495 234.387C32.2977 234.212 32.6605 234.061 32.9909 233.858C36.0805 231.959 38.7373 232.137 40.9063 234.397C43.3696 236.964 43.8251 240.799 41.8183 243.487C41.0907 244.461 40.5182 245.394 40.4498 246.606Z" fill="#FEC41D"/>
<path fill-rule="evenodd" clip-rule="evenodd" d="M40.6996 226.441C40.6996 227.125 40.7098 227.809 40.698 228.492C40.6462 231.471 39.9606 231.918 37.1265 230.829C34.716 229.903 32.8532 227.209 33.0731 224.965C33.2978 222.665 35.9228 220.157 38.4303 219.828C39.3283 219.71 39.8587 219.954 40.1374 220.932C40.6543 222.749 40.6991 224.586 40.6996 226.441Z" fill="#C8A180"/>
<path fill-rule="evenodd" clip-rule="evenodd" d="M98.1733 229.058C97.0915 229.942 96.1644 231.048 94.7441 231.447C94.0218 229.941 92.8537 228.745 91.9142 227.391C91.5267 226.832 91.0771 226.297 90.7936 225.688C90.1517 224.31 90.447 222.767 91.4453 222.29C92.844 221.622 93.6245 222.576 94.3226 223.554C95.6227 225.377 96.8915 227.222 98.1733 229.058Z" fill="#0D3186"/>
<path fill-rule="evenodd" clip-rule="evenodd" d="M121.002 223.444C120.365 223.853 120.893 224.773 120.123 225.258C119.11 224.781 117.865 224.663 116.907 223.833C117.24 221.348 117.56 218.861 117.913 216.378C118.023 215.605 118.201 214.761 119.092 214.554C120.108 214.316 120.645 215.108 121.196 215.789C121.803 216.54 121.752 217.394 121.639 218.273C121.419 219.995 121.214 221.72 121.002 223.444Z" fill="#0F3286"/>
<path fill-rule="evenodd" clip-rule="evenodd" d="M102.322 226.802C101.304 226.947 100.612 227.977 99.4926 227.848C98.8253 225.506 98.1628 223.162 97.488 220.822C97.1705 219.72 97.0465 218.651 98.2943 218.051C99.2883 217.572 100.494 218.141 101.065 219.543C101.875 221.528 102.49 223.593 103.189 225.624C102.901 226.018 102.611 226.41 102.322 226.802Z" fill="#0E3286"/>
<path fill-rule="evenodd" clip-rule="evenodd" d="M93.5826 232.678C92.7768 233.748 91.9715 234.818 91.1651 235.889C89.0872 234.517 87.7898 232.428 86.3048 230.524C85.6683 229.707 85.5119 228.689 86.3814 227.878C87.3193 227.004 88.2178 227.508 88.9649 228.205C90.5313 229.667 92.0464 231.184 93.5826 232.678Z" fill="#0D3186"/>
<path fill-rule="evenodd" clip-rule="evenodd" d="M114.302 220.381C114.268 220.571 114.214 220.762 114.202 220.954C114.035 223.826 114.036 223.826 111.016 223.829C110.795 221.401 110.607 218.972 110.885 216.537C110.995 215.581 110.976 214.428 112.35 214.423C113.711 214.418 114.158 215.436 114.237 216.585C114.325 217.845 114.286 219.115 114.302 220.381Z" fill="#163787"/>
<path fill-rule="evenodd" clip-rule="evenodd" d="M108.426 224.376C107.26 224.468 106.152 225.51 104.925 224.59C104.665 222.286 104.379 219.984 104.157 217.675C104.071 216.781 104.168 215.841 105.279 215.62C106.5 215.377 107.122 216.209 107.31 217.213C107.755 219.587 108.063 221.986 108.426 224.376Z" fill="#0F3286"/>
<path fill-rule="evenodd" clip-rule="evenodd" d="M128.083 243.801C128.106 244.14 127.895 244.306 127.601 244.358C127.193 244.429 126.851 244.314 126.776 243.853C126.721 243.516 126.959 243.348 127.255 243.296C127.662 243.226 127.989 243.33 128.083 243.801Z" fill="#F5853E"/>
<path fill-rule="evenodd" clip-rule="evenodd" d="M70.4301 252.69C69.9299 252.568 69.6366 252.309 69.766 251.894C69.821 251.716 70.2075 251.534 70.436 251.543C70.8624 251.56 71.1184 251.913 71.0241 252.311C70.982 252.489 70.6009 252.588 70.4301 252.69Z" fill="#F48B46"/>
<path fill-rule="evenodd" clip-rule="evenodd" d="M133.444 249.826C133.341 250.301 132.988 250.318 132.615 250.27C132.182 250.214 131.934 249.928 132.072 249.531C132.135 249.349 132.509 249.171 132.739 249.173C133.104 249.178 133.451 249.352 133.444 249.826Z" fill="#F67D30"/>
<path fill-rule="evenodd" clip-rule="evenodd" d="M122.835 252.014C122.795 252.33 122.643 252.602 122.305 252.518C122.063 252.458 121.793 252.264 121.662 252.052C121.46 251.724 121.729 251.512 122.022 251.456C122.447 251.375 122.77 251.53 122.835 252.014Z" fill="#F68035"/>
<path fill-rule="evenodd" clip-rule="evenodd" d="M126.713 248.629C126.839 248.773 127.128 248.952 127.163 249.171C127.253 249.742 126.804 249.716 126.44 249.64C126.156 249.581 125.922 249.38 126.003 249.038C126.073 248.738 126.306 248.61 126.713 248.629Z" fill="#F67829"/>
<path fill-rule="evenodd" clip-rule="evenodd" d="M122.512 246.16C122.899 246.191 123.279 246.251 123.245 246.743C123.224 247.042 122.951 247.245 122.687 247.171C122.461 247.109 122.218 246.886 122.11 246.671C121.928 246.305 122.284 246.256 122.512 246.16Z" fill="#F77523"/>
<path fill-rule="evenodd" clip-rule="evenodd" d="M77.0338 245.322C77.369 245.484 77.7167 245.664 77.5868 246.119C77.5038 246.41 77.2273 246.548 76.9696 246.369C76.7707 246.23 76.5729 245.978 76.5341 245.75C76.4856 245.467 76.6796 245.251 77.0338 245.322Z" fill="#F67624"/>
<path fill-rule="evenodd" clip-rule="evenodd" d="M80.7659 243.117C80.8511 242.979 80.9163 242.747 81.029 242.72C81.2979 242.658 81.5852 242.754 81.6133 243.079C81.6251 243.219 81.479 243.465 81.3551 243.504C81.0586 243.596 80.85 243.421 80.7659 243.117Z" fill="#F86F19"/>
<path fill-rule="evenodd" clip-rule="evenodd" d="M80.6435 248.087C80.941 248.175 81.1636 248.357 81.0618 248.682C80.969 248.978 80.6753 249.099 80.3955 249.009C80.2672 248.968 80.1352 248.728 80.1266 248.572C80.1099 248.254 80.2883 248.054 80.6435 248.087Z" fill="#F77624"/>
<path fill-rule="evenodd" clip-rule="evenodd" d="M47.0889 192.16C47.2878 192.302 47.4873 192.443 47.6856 192.583C47.4867 192.442 47.2878 192.301 47.0889 192.16Z" fill="#FEC41D"/>
<path fill-rule="evenodd" clip-rule="evenodd" d="M74.5564 370.154C75.5503 370.51 76.5373 370.388 77.5221 370.11C84.09 370.493 90.625 369.812 97.1584 369.377C104.572 368.885 111.968 368.048 119.257 366.579C124.803 365.46 130.469 364.873 135.857 363.014C137.132 363.154 138.29 362.685 139.467 362.317C143.484 362.022 147.182 360.623 150.828 359.047C152.218 359.696 152.974 360.702 153.432 362.257C154.892 367.208 155.292 372.348 156.389 377.359C156.861 379.52 155.493 380.782 153.874 381.84C151.743 384.466 148.384 384.599 145.595 385.886C144.632 386.329 143.542 386.499 142.514 386.814C141.609 387.182 140.648 387.336 139.716 387.607C129.724 390.149 119.558 391.504 109.286 392.195C99.9192 392.824 90.556 393.493 81.1593 393.312C80.1395 393.243 79.1343 393.53 78.1128 393.468C75.6069 393.088 73.1722 393.971 70.6782 393.891C69.1366 393.841 67.6009 393.882 66.3795 392.713C64.7948 392.319 64.0283 391.317 63.588 389.714C62.338 385.164 62.1386 380.472 61.53 375.841C61.295 374.054 61.5376 372.126 62.7821 370.565C63.6834 370.122 64.6293 370.18 65.6055 370.199C68.5884 370.257 71.5751 370.538 74.5564 370.154Z" fill="#D2D2D2"/>
<path fill-rule="evenodd" clip-rule="evenodd" d="M87.4531 427.278C86.3961 427.311 85.3385 427.344 84.2815 427.376C79.9241 427.097 75.5791 427.635 71.2244 427.589C69.0376 427.18 68.1299 425.902 67.5542 423.678C66.4395 419.373 66.2401 414.976 65.679 410.625C65.4025 408.482 65.4381 406.031 67.8879 404.706C69.8957 403.331 72.1741 404.013 74.3361 403.906C76.1564 403.816 77.989 403.809 79.8131 403.94C81.056 403.875 82.2995 403.944 83.5425 403.93C103.106 403.88 122.333 401.147 141.339 396.673C142.127 396.43 142.947 396.377 143.758 396.276C146.862 395.628 149.974 395.019 152.919 393.762C153.665 393.443 154.541 393.011 155.318 393.818C156.373 394.417 157.055 395.23 157.426 396.458C158.979 401.607 159.443 406.962 160.515 412.201C160.931 414.232 159.594 415.447 158.067 416.462C154.41 417.877 150.752 419.291 147.095 420.706C146.122 420.943 145.148 421.179 144.174 421.417C139.291 422.37 134.433 423.492 129.518 424.237C121.502 425.452 113.426 426.189 105.319 426.528C99.3637 426.777 93.4087 427.028 87.4531 427.278Z" fill="#D2D2D2"/>
<path fill-rule="evenodd" clip-rule="evenodd" d="M80.0804 404.797C76.0135 405.144 71.9499 405.011 67.8879 404.706C68.0722 400.622 66.9333 396.704 66.3797 392.713C69.2435 392.979 72.104 392.849 74.9689 392.698C76.1019 392.638 77.2592 392.44 78.3798 392.843C80.2065 396.648 81.3207 400.555 80.0804 404.797Z" fill="#F9660B"/>
<path fill-rule="evenodd" clip-rule="evenodd" d="M155.318 393.818C154.363 393.972 153.429 394.169 152.556 394.627C149.862 396.04 146.919 396.533 143.947 396.906C142.887 396.413 142.716 395.42 142.743 394.451C142.821 391.673 141.321 388.974 142.343 386.157C146.288 384.988 150.095 383.451 153.874 381.839C154.355 385.832 154.837 389.825 155.318 393.818Z" fill="#F9660C"/>
<path fill-rule="evenodd" clip-rule="evenodd" d="M26.4954 268.712C26.4577 269.11 26.3261 269.372 26.0227 269.377C25.5138 269.385 25.4616 268.996 25.5273 268.617C25.5753 268.339 25.7575 268.052 26.082 268.201C26.2814 268.292 26.393 268.577 26.4954 268.712Z" fill="#FA7421"/>
<path fill-rule="evenodd" clip-rule="evenodd" d="M110.677 242.75C110.691 243.812 110.708 244.779 109.504 244.89C108.52 244.981 108.168 244.184 107.999 243.401C107.526 241.211 107.091 239.013 106.68 236.81C106.518 235.946 106.802 235.219 107.746 235.035C108.71 234.847 109.158 235.501 109.418 236.304C110.115 238.452 110.367 240.685 110.677 242.75Z" fill="#EFEDEF"/>
<path fill-rule="evenodd" clip-rule="evenodd" d="M107.207 233.073C106.349 233.074 105.575 231.949 105.604 230.684C105.624 229.841 105.924 229.157 106.905 229.129C107.832 229.103 108.537 230.17 108.511 231.478C108.492 232.408 107.949 233.073 107.207 233.073Z" fill="#E8E7EE"/>
<path fill-rule="evenodd" clip-rule="evenodd" d="M141.61 397.41C129.175 400.422 116.639 402.808 103.853 403.753C97.0409 404.256 90.2455 405.027 83.3968 404.747C82.8362 404.331 82.3376 403.825 82.2476 403.124C81.7975 399.631 79.9061 396.379 80.5082 392.712C86.9451 392.443 93.3799 392.124 99.8184 391.916C108.61 391.63 117.351 390.778 126.042 389.499C130.667 388.817 135.23 387.71 139.82 386.795C141.467 390.156 141.941 393.715 141.61 397.41Z" fill="#FA660B"/>
<path fill-rule="evenodd" clip-rule="evenodd" d="M148.827 372.058C148.827 371.334 148.806 370.946 148.831 370.561C148.875 369.884 149.331 369.528 149.917 369.359C150.682 369.138 151.248 369.519 151.607 370.147C151.843 370.559 152.029 371.042 152.081 371.511C152.359 374 152.53 376.499 153.349 378.901C153.601 379.639 153.175 380.251 152.47 380.521C151.678 380.824 150.9 380.738 150.486 379.878C150.153 379.185 149.818 378.46 149.683 377.713C149.324 375.727 149.072 373.722 148.827 372.058Z" fill="#FBEFE7"/>
<path fill-rule="evenodd" clip-rule="evenodd" d="M80.5083 392.712C81.7103 396.666 82.4833 400.724 83.3969 404.747C82.2962 405.073 81.1907 405.099 80.0803 404.797C79.8383 400.766 78.984 396.823 78.3792 392.843C79.0789 392.634 79.7887 392.597 80.5083 392.712Z" fill="#0F0A5F"/>
<path fill-rule="evenodd" clip-rule="evenodd" d="M141.61 397.41C140.684 393.927 140.1 390.386 139.821 386.794C140.661 386.582 141.502 386.37 142.342 386.157C143.301 389.677 143.305 393.339 143.947 396.906C143.168 397.074 142.389 397.242 141.61 397.41Z" fill="#0E095E"/>
<path fill-rule="evenodd" clip-rule="evenodd" d="M150.499 365.755C150.364 366.672 149.813 367.124 148.921 367.156C148.101 367.185 147.641 366.784 147.652 365.939C147.664 365.047 148.082 364.406 148.998 364.346C149.919 364.286 150.402 364.859 150.499 365.755Z" fill="#FBEFE7"/>
<path fill-rule="evenodd" clip-rule="evenodd" d="M154.264 403.928C154.894 403.993 155.479 404.197 155.702 404.782C156.009 405.587 156.381 406.447 156.37 407.279C156.344 409.25 156.769 411.121 157.319 412.97C157.649 414.083 157.537 414.902 156.333 415.253C155.279 415.561 154.659 414.954 154.331 414.052C153.331 411.304 153.198 408.404 152.924 405.533C152.834 404.589 153.464 404.154 154.264 403.928Z" fill="#FBEFE7"/>
<path fill-rule="evenodd" clip-rule="evenodd" d="M154.606 400.117C154.572 401.227 154.047 401.717 153.164 401.805C152.395 401.882 151.817 401.608 151.773 400.726C151.729 399.849 152.067 399.179 152.985 399.021C153.941 398.856 154.367 399.477 154.606 400.117Z" fill="#FBEFE7"/>
<path fill-rule="evenodd" clip-rule="evenodd" d="M439.14 289.167C439.135 291.614 439.106 294.061 439.132 296.507C439.158 298.977 439.181 299.007 441.553 299.04C444.196 299.076 446.839 299.049 449.482 299.049C458.586 299.048 467.69 299.041 476.794 299.051C480.5 299.054 481.149 299.753 482.807 303.267C483.977 305.745 484.344 308.343 484.286 310.88C484.107 318.803 484.882 326.687 485.117 334.586C485.264 339.547 485.068 344.562 485.647 349.479C486.19 354.074 485.69 358.674 486.217 363.207C486.761 367.893 486.259 372.605 486.83 377.223C487.409 381.919 486.851 386.614 487.386 391.247C487.961 396.224 487.433 401.229 488.014 406.143C488.536 410.547 488.049 414.944 488.551 419.287C489.126 424.261 488.637 429.264 489.186 434.182C489.698 438.78 489.494 443.344 489.659 447.921C489.67 448.214 489.65 448.51 489.679 448.801C489.977 451.77 489.971 451.644 487.143 451.806C469.652 452.803 452.127 451.771 434.652 452.502C418.414 453.181 402.182 452.369 385.975 453.084C379.138 453.387 372.315 453.406 365.485 453.532C362.153 453.593 362.022 453.487 360.966 450.235C359.252 444.954 357.875 439.578 356.898 434.115C355.802 427.998 355.006 421.844 354.422 415.643C353.699 407.963 353.201 400.297 353.341 392.589C353.378 390.531 352.585 388.587 352.724 386.495C353.187 379.483 353.095 372.439 353.481 365.438C353.816 359.35 354.396 353.237 354.969 347.145C355.843 337.848 357.218 328.634 358.714 319.438C359.601 313.975 360.989 308.591 362.26 303.196C362.628 301.635 363.495 300.431 365.386 300.126C366.733 299.909 368.048 299.615 369.428 299.624C373.637 299.653 377.867 299.89 382.05 299.56C386.092 299.24 390.159 299.997 394.174 299.09C395.007 298.902 395.904 299.096 396.781 299.302C398.895 299.797 399.1 299.619 399.134 297.38C399.175 294.64 399.142 291.899 399.141 289.159C399.878 288.942 400.095 289.484 400.347 289.978C401.02 296.096 400.563 302.232 400.61 308.356C401.378 315.763 408.672 322.223 417.016 322.878C428.612 323.787 437.728 315.393 437.739 303.797C437.742 299.896 437.666 295.992 437.788 292.093C437.821 291.033 437.177 289.429 439.14 289.167Z" fill="#F0F5F0"/>
<path fill-rule="evenodd" clip-rule="evenodd" d="M373.958 181.653C373.527 179.092 374.549 176.655 374.537 174.096C374.446 155.496 374.128 136.886 374.593 118.296C375.07 99.2268 374.974 80.1629 375.087 61.0963C375.108 57.431 376.782 55.8323 380.498 55.851C385.663 55.877 390.802 56.2975 395.923 56.9605C396.116 56.9858 396.314 57.0192 396.507 57.0046C400.914 56.6721 405.295 57.389 409.639 57.7744C413.503 58.1172 417.415 57.8347 421.273 58.661C423.909 59.2254 426.717 59.1133 429.412 59.2162C433.606 59.3752 437.81 59.6987 441.949 60.1164C445.82 60.5072 449.712 60.4166 453.589 60.9481C456.927 61.4057 460.369 61.596 463.776 61.7119C467.034 61.8224 467.887 62.6379 467.908 65.9636C467.934 69.9771 468.2 74.016 467.859 78.0004C466.757 90.8947 468.005 103.826 467.22 116.693C466.45 129.311 467.391 141.931 466.616 154.506C466.105 162.819 466.461 171.111 466.11 179.402C466.012 181.722 465.475 184.027 465.505 186.373C463.534 184.309 461.051 184.134 458.37 184.185C451.358 184.321 444.373 183.521 437.364 183.383C436.513 183.174 435.668 182.925 434.776 182.982C426.486 183.506 418.219 182.698 409.95 182.404C398.958 182.014 387.948 181.884 376.983 180.92C375.777 180.814 374.965 181.43 373.958 181.653Z" fill="#F0F5F0"/>
<path fill-rule="evenodd" clip-rule="evenodd" d="M373.958 181.653C374.186 181.024 374.414 180.393 374.722 179.543C377.483 180.582 380.408 180.312 383.307 180.44C394.631 180.939 405.96 181.287 417.285 181.741C422.657 181.956 428.023 182.11 433.397 182.182C434.741 182.201 436.146 181.928 437.425 182.629C435.953 183.953 434.423 183.477 433.464 183.157C443.659 190.38 454.221 198.273 464.901 206.005C465.618 206.524 466.281 207.1 466.64 207.944C466.832 209.673 468.347 209.319 469.364 209.549C472.921 210.357 475.941 211.982 478.214 214.881C485.39 224.038 480.325 237.115 468.847 239.066C466.203 239.515 466.199 239.515 466.034 242.208C465.57 249.731 464.709 257.173 462.377 264.404C458.634 276.01 451.289 284.217 439.907 288.737C439.637 288.844 439.395 289.022 439.14 289.167C438.068 289.857 438.548 290.935 438.538 291.841C438.493 296.043 438.322 300.258 438.564 304.446C439.038 312.621 432.018 320.815 424.876 322.901C414.374 325.969 403.14 320.501 399.947 310.557C399.802 310.104 399.81 309.602 399.746 309.123C402.966 305.79 407.169 303.796 410.807 301.028C413.115 299.271 415.659 297.824 418.233 295.603C413.94 294.768 410.09 293.797 406.299 292.619C403.987 291.9 401.583 291.337 399.711 289.628C399.521 289.472 399.331 289.315 399.141 289.159C395.63 286.699 392.175 284.184 389.201 281.05C381.509 272.945 376.965 263.376 374.992 252.373C372.404 237.94 372.271 223.417 372.852 208.867C373.214 199.796 373.665 190.727 373.958 181.653Z" fill="#D39B71"/>
<path fill-rule="evenodd" clip-rule="evenodd" d="M456.851 201.006C449.413 195.623 442.005 190.201 434.592 184.786C433.9 184.28 433.037 183.023 432.009 182.192C432.431 182.172 432.693 182.128 434.592 182.192C441.791 182.434 458.443 183.228 465.625 183.47C466.174 184.374 466.14 195.892 466.469 200.65C466.637 203.079 466.82 205.507 466.64 207.944C463.188 205.898 460.091 203.35 456.851 201.006Z" fill="#744D3A"/>
<path fill-rule="evenodd" clip-rule="evenodd" d="M399.711 289.628C404.603 291.232 409.452 292.979 414.507 294.04C416.178 294.391 417.842 294.779 419.729 295.198C418.807 296.672 417.519 297.201 416.447 297.952C411.422 301.468 406.363 304.935 401.324 308.431C400.836 308.769 400.36 309.092 399.746 309.122C399.734 302.625 399.723 296.127 399.711 289.628Z" fill="#6C4F3E"/>
<path fill-rule="evenodd" clip-rule="evenodd" d="M421.555 240.915C414.209 241.315 407.961 238.816 402.747 233.696C401.922 232.886 401.22 231.907 400.633 230.905C398.046 226.492 399.144 222.318 403.499 219.608C408.134 216.723 413.175 216.93 418.266 217.681C419.999 217.937 421.687 218.471 423.298 219.198C424.758 221.42 423.533 223.766 423.495 226.024C423.43 229.898 423.041 233.776 422.635 237.638C422.515 238.788 422.351 239.967 421.555 240.915Z" fill="#2A5E29"/>
<path fill-rule="evenodd" clip-rule="evenodd" d="M437.951 264.389C438.674 272.02 431.897 278.529 424.693 279.006C418.513 279.414 412.304 275.495 410.385 268.753C409.58 265.922 409.126 263.022 410.643 260.222C411.592 258.472 412.986 257.888 414.739 258.519C416.223 259.054 417.052 260.53 416.586 262.31C416.155 263.962 415.973 265.586 416.497 267.196C417.671 270.808 421.775 273.242 425.227 272.457C429.585 271.468 432.028 268.292 431.622 264.05C431.521 262.997 431.404 261.951 430.96 260.926C430.228 259.241 430.921 257.631 432.514 256.819C433.859 256.133 435.626 256.66 436.541 258.173C437.735 260.148 438.182 262.33 437.951 264.389Z" fill="#D46191"/>
<path fill-rule="evenodd" clip-rule="evenodd" d="M421.555 240.915C422.136 233.676 422.717 226.437 423.298 219.198C428.834 220.792 432.715 224.644 435.993 229.038C438.748 232.732 437.397 236.973 433.229 239.024C429.54 240.841 425.607 241.274 421.555 240.915Z" fill="white"/>
<path fill-rule="evenodd" clip-rule="evenodd" d="M408.824 254.757C407.302 254.773 405.894 253.694 405.607 252.29C405.267 250.623 405.854 249.478 407.474 248.765C409.379 247.929 411.465 247.868 413.467 247.476C418.913 246.411 424.385 245.472 429.857 244.544C430.903 244.367 432.014 244.34 433.065 244.475C434.467 244.655 435.34 245.592 435.533 247C435.709 248.284 435.165 249.311 434.02 249.92C433.337 250.283 432.601 250.631 431.849 250.763C424.368 252.076 416.88 253.343 409.393 254.625C409.201 254.658 409.013 254.712 408.824 254.757Z" fill="#754D3A"/>
<path fill-rule="evenodd" clip-rule="evenodd" d="M409.44 203.263C413.056 203.017 416.29 203.64 419.411 204.902C419.954 205.121 420.481 205.38 421.008 205.636C422.012 206.124 423.125 206.708 422.488 208.028C421.914 209.217 420.787 209.141 419.709 208.556C417.525 207.372 415.13 206.84 412.71 206.563C405.379 205.724 398.952 207.444 394.159 213.474C393.917 213.778 393.747 214.146 393.48 214.424C393.048 214.873 392.497 215.095 391.886 214.835C391.176 214.533 390.863 213.94 390.935 213.184C391.041 212.054 391.702 211.193 392.421 210.389C396.321 206.024 401.238 203.724 407.043 203.273C407.917 203.205 408.801 203.263 409.44 203.263Z" fill="#754E3B"/>
<path fill-rule="evenodd" clip-rule="evenodd" d="M466.243 225.405C466.243 223.752 466.134 222.089 466.285 220.45C466.37 219.518 466.738 218.489 467.804 218.133C468.825 217.792 469.378 218.635 470.041 219.183C472.267 221.025 473.616 223.202 473.204 226.267C472.822 229.106 471.078 230.77 468.675 231.875C467.409 232.457 466.304 231.782 466.196 230.365C466.071 228.72 466.167 227.059 466.167 225.405H466.243Z" fill="#9F7454"/>
<path fill-rule="evenodd" clip-rule="evenodd" d="M403.325 260.883C402.791 260.82 402.364 260.509 402.371 260.003C402.38 259.47 402.818 259.155 403.377 259.305C403.858 259.435 404.246 259.752 404.168 260.325C404.106 260.783 403.744 260.904 403.325 260.883Z" fill="#704A33"/>
<path fill-rule="evenodd" clip-rule="evenodd" d="M420.332 233.276C420.29 233.934 420.25 235.2 420.111 236.456C420.041 237.093 419.594 237.542 418.907 237.437C418.375 237.355 418.083 236.882 418.108 236.364C418.227 233.934 418.375 231.506 418.542 229.079C418.571 228.653 418.93 228.377 419.334 228.342C419.886 228.294 420.291 228.629 420.316 229.167C420.368 230.332 420.332 231.501 420.332 233.276Z" fill="#DDE6DD"/>
<path fill-rule="evenodd" clip-rule="evenodd" d="M420.762 224.066C420.787 225.828 420.175 227.074 419.39 226.787C418 226.276 418.605 225.015 418.556 224.038C418.517 223.242 418.708 222.36 419.691 222.364C420.717 222.369 420.747 223.277 420.762 224.066Z" fill="#C8D8CA"/>
<path fill-rule="evenodd" clip-rule="evenodd" d="M430.377 233.722C430.096 233.587 430.012 233.414 430.155 233.266C430.329 233.085 430.556 232.857 430.775 232.84C431.107 232.815 431.204 233.107 430.99 233.347C430.828 233.529 430.559 233.617 430.377 233.722Z" fill="#F4E4D8"/>
</g>
<defs>
<filter id="filter0_d_4008_37159" x="369.852" y="53.8508" width="102.179" height="138.522" filterUnits="userSpaceOnUse" color-interpolation-filters="sRGB">
<feFlood flood-opacity="0" result="BackgroundImageFix"/>
<feColorMatrix in="SourceAlpha" type="matrix" values="0 0 0 0 0 0 0 0 0 0 0 0 0 0 0 0 0 0 127 0" result="hardAlpha"/>
<feOffset dy="2"/>
<feGaussianBlur stdDeviation="2"/>
<feColorMatrix type="matrix" values="0 0 0 0 0 0 0 0 0 0 0 0 0 0 0 0 0 0 0.5 0"/>
<feBlend mode="normal" in2="BackgroundImageFix" result="effect1_dropShadow_4008_37159"/>
<feBlend mode="normal" in="SourceGraphic" in2="effect1_dropShadow_4008_37159" result="shape"/>
</filter>
</defs>
</svg>
