<svg width="343" height="266" viewBox="0 0 343 266" fill="none" xmlns="http://www.w3.org/2000/svg">
<path fill-rule="evenodd" clip-rule="evenodd" d="M245.358 132.753C245.445 135.041 245.448 135.066 247.716 135.242C250.528 135.461 253.345 135.635 256.159 135.824C262.152 136.227 268.148 136.594 274.138 137.038C279.358 137.425 281.851 139.477 282.737 144.428C283.538 148.898 284.096 153.41 284.65 157.915C285.914 168.203 287.108 178.499 288.333 188.792C289.295 196.872 290.252 204.953 291.227 213.032C292.447 223.153 293.692 233.27 294.909 243.391C295.564 248.834 296.51 256.362 297.749 265.976H171.335C170.282 255.975 169.854 247.119 170.053 239.409C170.404 225.793 171.334 212.198 172.936 198.67C174.921 181.913 177.374 165.206 181.897 148.843C183.089 144.533 184.414 140.259 186.39 136.195C186.955 135.031 187.54 133.879 188.479 132.901C189.591 131.745 190.844 131.13 192.556 131.262C198.448 131.713 204.343 132.109 210.238 132.518C214.595 132.821 218.955 133.093 223.311 133.424C224.552 133.518 225.233 133.266 225.066 131.918C224.95 130.986 225.012 130.035 224.994 129.093C224.688 128.04 224.327 127.963 225.066 127.994C230.577 128.226 237.191 127.254 242.697 127.407C243.596 127.431 244.515 127.455 245.212 128.131C245.26 129.671 245.299 131.212 245.358 132.753Z" fill="#F08628"/>
<path fill-rule="evenodd" clip-rule="evenodd" d="M225.755 128.501C225.31 128.459 224.642 129.085 224.642 127.623C229.319 125.069 234.566 123.935 238.823 122.429C236.162 122.661 232.728 123.236 229.248 123.181C227.438 123.152 225.842 123.486 224.464 124.608C224.035 123.641 223.906 122.737 222.322 122.429C206.895 119.424 195.635 111.017 187.67 98.4226C184.104 92.7839 181.872 86.6715 180.246 80.3337C181.377 79.5555 181.408 79.5032 182.805 80.2366C186.413 82.1314 190.199 83.3984 194.332 83.94C201.713 84.9067 208.257 82.9563 214.087 78.9574C221.398 73.9432 225.176 66.8094 225.253 58.4571C225.333 49.8786 221.74 42.462 214.541 36.8708C209.075 32.6264 202.826 30.4813 195.681 30.5807C194.386 30.5991 192.539 31.4612 191.799 29.4542C194.178 26.8953 196.558 24.3363 198.937 21.7774C199.307 20.1786 200.845 19.5715 202 18.6745C207.574 14.3428 213.793 11.1438 220.822 9.4116C221.878 9.3838 222.58 9.71091 222.585 10.8525C222.622 18.888 227.177 25.0504 232.613 30.5015C246.198 44.1235 262.676 53.236 282.165 57.3518C285.836 58.1272 289.578 57.8731 293.262 58.3487C296.003 59.6548 298.273 61.4624 299.929 63.9214C303.23 70.0244 302.29 75.7612 297.214 80.5741C295.93 81.7907 294.575 82.9308 293.132 83.9744C291.936 84.3067 291.337 83.3683 290.568 82.8559C287.963 81.1232 285.014 81.1223 282.529 82.8583C280.659 84.1644 279.291 87.0895 281.149 89.6947C281.44 90.1024 281.683 90.6001 281.38 91.1323C278.367 96.6004 275.004 101.832 270.555 106.42C264.251 112.919 256.809 117.778 247.993 120.723C244.878 121.764 245.405 121.53 245.301 124.296C245.254 125.574 245.241 126.852 245.212 128.131C238.72 127.97 232.257 129.116 225.755 128.501Z" fill="#C7A07E"/>
<path fill-rule="evenodd" clip-rule="evenodd" d="M293.433 58.8116C282.726 59.1774 272.859 56.2296 263.295 52.0676C254.684 48.3204 246.774 43.5796 239.564 37.7495C233.378 32.7466 227.897 27.2653 224.299 20.2833C222.735 17.2483 221.581 14.1388 221.979 10.7017C222.103 9.62329 221.274 9.99047 220.748 9.86933C222.05 7.89014 222.594 5.39248 225.101 4.23674C227.882 1.46333 231.491 0.439568 235.354 0.138378C244.922 -0.607293 253.859 1.74567 262.586 5.15068C271.37 8.57737 279.435 13.1386 286.881 18.6642C294.208 24.1016 300.645 30.2852 304.956 38.2208C306.841 41.6899 307.479 45.3231 307.079 49.1438C306.877 51.0735 305.826 52.6832 304.56 54.1627C303.993 54.825 303.19 55.2968 302.783 56.0915C300.137 58.4293 297.014 59.3178 293.433 58.8116Z" fill="#D5CEC7"/>
<path fill-rule="evenodd" clip-rule="evenodd" d="M292.749 83.8837C292.889 83.0188 293.67 82.7157 294.288 82.2217C296.698 80.2958 299.059 78.3359 300.207 75.4042C301.591 71.8747 301.578 68.4386 299.802 65.0374C299.604 64.6584 299.47 64.2497 299.307 63.8552C299.412 62.675 300.52 62.4464 301.363 62.0806C304.832 60.577 307.937 58.57 310.844 56.2656C314.66 56.0587 318.456 56.5404 322.255 56.6031C332.35 56.7704 342.451 56.6653 352.549 56.6615C353.274 56.6611 354.059 56.7572 354.713 56.5376C355.936 56.1265 356.863 56.6408 357.766 57.1885C359.097 57.995 359.217 58.8047 358.103 59.8902C356.207 61.736 354.379 63.6888 352.243 65.2608C349.01 67.6397 346.321 70.546 343.183 73.0206C339.291 76.09 335.773 79.5751 332.03 82.8151C326.354 87.7285 320.605 92.5668 314.924 97.4745C312.382 99.6695 309.942 101.96 307.353 104.115C303.273 107.512 299.402 111.131 295.443 114.656C295.311 114.774 295.189 114.901 295.054 115.017C294.087 115.847 293.001 116.651 291.653 116.152C290.127 115.586 289.679 114.243 289.642 112.79C289.623 112.02 289.524 111.227 289.676 110.483C290.457 106.666 290.07 102.811 290.148 98.9729C290.195 96.6666 290.239 94.3693 290.643 92.0898C290.533 91.6397 290.64 91.1919 290.951 90.8851C292.995 88.8705 292.49 86.2927 292.749 83.8837Z" fill="#D5CEC7"/>
<path fill-rule="evenodd" clip-rule="evenodd" d="M196.218 29.8712C202.727 29.8834 208.554 31.7353 213.714 35.3982C220.826 40.4468 224.842 47.139 225.763 55.528C227.114 67.8363 219.25 77.8797 210.419 81.9309C200.795 86.3456 191.478 85.6447 182.297 80.8058C181.706 80.4938 181.192 79.4386 180.246 80.3337C179.735 79.1082 178.621 78.4147 177.65 77.5479C172.86 73.2746 169.673 68.0917 168.301 61.9967C166.591 54.4005 168.372 47.393 173.019 41.1264C176.796 36.0331 181.884 32.4329 188.44 30.8907C189.627 30.6112 190.961 30.5105 191.799 29.4542C193.162 30.5468 194.761 29.8688 196.218 29.8712Z" fill="#FCEAEB"/>
<path fill-rule="evenodd" clip-rule="evenodd" d="M225.101 4.23674C224.017 5.53907 222.87 6.83566 222.444 8.46605C222.196 9.41252 221.152 9.24432 220.748 9.86933C216.431 11.3597 212.168 12.9321 208.226 15.2299C204.914 17.16 202.004 19.5602 198.937 21.7774C195.472 15.1074 200.197 7.41401 205.553 4.68067C211.445 1.67253 217.394 1.16819 223.557 3.78605C224.056 3.99816 224.533 4.24758 225.101 4.23674Z" fill="#E4D9CE"/>
<path fill-rule="evenodd" clip-rule="evenodd" d="M292.749 83.8837C294.296 87.1294 293.107 89.7543 290.643 92.0898C290.467 92.1403 290.292 92.1907 290.117 92.2407C289.955 92.3854 289.764 92.4783 289.546 92.5193C286.51 93.6915 283.811 93.1115 281.38 91.1323C278.49 87.5599 279.191 85.3331 281.173 83.0589C283.541 80.3425 287.975 80.1031 290.947 82.3533C291.576 82.8298 292.15 83.3718 292.749 83.8837Z" fill="#F9B436"/>
<path fill-rule="evenodd" clip-rule="evenodd" d="M310.844 56.2656C310.854 57.2818 310.009 57.6923 309.31 58.2277C307.045 59.9614 304.554 61.3358 301.919 62.5029C301.022 62.8997 300.178 63.4022 299.308 63.8556C297.691 61.8218 295.436 60.4458 293.433 58.8116C296.686 58.3223 299.777 57.3344 302.783 56.0915C305.47 56.1494 308.157 56.2076 310.844 56.2656Z" fill="#A89C90"/>
<path fill-rule="evenodd" clip-rule="evenodd" d="M224.464 124.608C224.252 124.029 224.038 123.536 223.602 123.087C223.497 122.979 223.289 122.819 222.977 122.606C231.464 122.026 237.394 121.832 240.767 122.023C238.521 123.396 236.251 123.93 234.094 124.625C230.951 125.639 227.987 127.173 224.642 127.621" fill="#785C46"/>
<path fill-rule="evenodd" clip-rule="evenodd" d="M289.546 92.5193C289.661 92.2904 289.853 92.1974 290.118 92.2402C289.999 92.4644 289.819 92.5777 289.546 92.5193Z" fill="#D5CEC7"/>
<path fill-rule="evenodd" clip-rule="evenodd" d="M260.671 197.794C257.399 200.005 254.42 202.065 251.383 204.047C250.051 204.918 248.864 206.537 247.33 206.446C245.726 206.351 245.128 204.358 244.001 203.273C242.863 202.177 241.865 200.951 240.827 199.766C240.445 199.329 239.8 198.936 240.227 198.232C240.601 197.618 241.274 197.648 241.915 197.639C244.547 197.602 247.181 197.49 249.811 197.542C252.631 197.597 255.421 197.317 258.223 197.14C258.92 197.096 259.666 197.012 260.671 197.794Z" fill="#D3BEAD"/>
<path fill-rule="evenodd" clip-rule="evenodd" d="M245.259 186.511C245.09 186.792 244.926 187.209 244.636 187.524C242.735 189.597 240.797 191.641 238.889 193.708C237.874 194.806 236.875 194.687 235.868 193.73C233.569 191.545 231.265 189.363 228.991 187.155C228.361 186.544 228.654 185.878 229.43 185.865C234.329 185.782 239.217 185.225 244.122 185.525C244.615 185.555 245.247 185.682 245.259 186.511Z" fill="#D3BEAD"/>
<path fill-rule="evenodd" clip-rule="evenodd" d="M214.763 197.802H234.013C234.216 198.208 233.856 198.437 233.6 198.623C230.576 200.815 227.535 202.986 224.501 205.166C223.832 205.646 223.139 206.183 222.356 205.408C219.947 203.025 217.567 200.615 214.763 197.802Z" fill="#D3BEAC"/>
<path fill-rule="evenodd" clip-rule="evenodd" d="M215.031 146.561C220.452 147.018 225.873 147.475 231.293 147.932C231.381 148.123 231.468 148.313 231.555 148.504C228.704 151.265 225.852 154.027 222.802 156.981C219.986 153.576 217.351 150.392 214.717 147.208C214.822 146.992 214.927 146.776 215.031 146.561Z" fill="#D3BEAD"/>
<path fill-rule="evenodd" clip-rule="evenodd" d="M260.608 174.075C258.105 176.875 255.451 179.547 252.692 182.132C252.01 182.77 251.423 182.7 250.89 182.001C249.191 179.775 247.442 177.581 245.84 175.296C245.047 174.165 245.453 173.396 246.755 173.382C251.282 173.331 255.809 173.362 260.335 173.362C260.426 173.599 260.517 173.837 260.608 174.075Z" fill="#D3BEAC"/>
<path fill-rule="evenodd" clip-rule="evenodd" d="M206.792 196.08C206.756 197.022 206.321 197.22 205.969 197.456C203.387 199.184 200.819 200.931 198.2 202.609C196.551 203.665 196.196 203.533 194.678 202.346C192.631 200.747 191.239 198.626 189.495 196.787C188.819 196.074 189.107 195.524 190.18 195.492C191.716 195.447 193.264 195.472 194.795 195.594C198.742 195.911 202.7 196.044 206.792 196.08Z" fill="#D3BEAC"/>
<path fill-rule="evenodd" clip-rule="evenodd" d="M248.765 159.774C245.651 162.709 242.839 165.349 240.044 168.002C239.423 168.591 238.868 168.759 238.283 167.985C236.301 165.366 234.316 162.75 232.301 160.092C234.433 159.389 244.513 159.174 248.765 159.774Z" fill="#D3BEAD"/>
<path fill-rule="evenodd" clip-rule="evenodd" d="M203.165 185.215C204.051 184.652 204.718 184.729 205.319 184.803C209.394 185.304 213.494 185.118 217.582 185.28C218.101 185.3 218.768 185.151 218.963 185.79C219.093 186.215 218.742 186.613 218.445 186.929C216.576 188.915 214.69 190.888 212.807 192.863C212.168 193.533 211.473 193.777 210.724 193.021C208.204 190.479 205.263 188.291 203.165 185.215Z" fill="#D3BEAC"/>
<path fill-rule="evenodd" clip-rule="evenodd" d="M202.388 158.519C207.67 158.382 212.748 158.626 217.745 159.141C218.062 159.937 217.547 160.263 217.191 160.603C215.349 162.363 213.506 164.123 211.614 165.835C210.248 167.072 210.006 167.034 208.788 165.802C207.185 164.182 205.582 162.562 203.971 160.95C203.354 160.333 202.694 159.749 202.388 158.519Z" fill="#D3BEAD"/>
<path fill-rule="evenodd" clip-rule="evenodd" d="M190.487 171.424C194.943 172.148 199.246 171.71 203.463 172.337C203.895 172.401 204.437 172.324 204.572 172.858C204.692 173.337 204.3 173.658 203.953 173.908C201.923 175.37 200.258 177.19 198.408 178.828C197.104 179.983 196.775 179.981 195.502 178.734C193.617 176.888 191.801 174.98 189.948 173.105C189.639 172.792 189.195 172.485 189.362 172.038C189.571 171.479 190.157 171.404 190.487 171.424Z" fill="#D3BEAC"/>
<path fill-rule="evenodd" clip-rule="evenodd" d="M216.666 172.966C221.761 173.492 226.88 173.298 231.838 173.377C232.307 174.313 231.766 174.636 231.411 174.973C229.491 176.793 227.548 178.592 225.605 180.39C225.149 180.811 224.626 181.332 223.982 180.754C221.384 178.421 218.824 176.052 216.25 173.697C216.389 173.453 216.528 173.21 216.666 172.966Z" fill="#D3BEAD"/>
<path fill-rule="evenodd" clip-rule="evenodd" d="M246.854 148.688C251.26 148.688 255.147 148.68 259.034 148.693C260.096 148.697 260.337 149.284 259.809 150.032C258.097 152.454 256.326 154.838 254.564 157.227C254.067 157.9 253.505 157.818 253.051 157.193C251.111 154.523 248.878 152.039 246.854 148.688Z" fill="#D3BEAD"/>
<path fill-rule="evenodd" clip-rule="evenodd" d="M266.996 169.115C264.317 165.905 262.14 163.055 259.982 159.732C264.058 159.455 267.671 158.705 271.613 159.794C270.135 162.777 268.7 165.675 266.996 169.115Z" fill="#D3BEAC"/>
<path fill-rule="evenodd" clip-rule="evenodd" d="M191.96 142.884C194.584 143.369 197.007 144.276 199.456 145.094C200.051 145.292 200.313 145.705 200.112 146.3C198.995 149.614 197.873 152.928 196.695 156.409C195.377 154.829 192.303 145.886 191.96 142.884Z" fill="#D3BEAC"/>
<path fill-rule="evenodd" clip-rule="evenodd" d="M256.041 185.382H268.374C267.118 188.259 265.644 190.734 264.003 193.126C263.708 193.556 263.159 193.545 262.831 193.19C260.608 190.778 258.093 188.581 256.041 185.382Z" fill="#D3BDAB"/>
<path fill-rule="evenodd" clip-rule="evenodd" d="M271.185 149.954C274.216 148.768 277.193 147.481 280.914 146.459C279.516 150.65 278.399 154.343 276.85 157.996C275.236 156.781 272.61 153.017 271.185 149.954Z" fill="#D3BEAC"/>
<path fill-rule="evenodd" clip-rule="evenodd" d="M277.21 196.064C275.476 198.701 273.532 200.595 271.857 202.676C271.215 203.472 270.488 203.389 269.785 202.735C268.174 201.236 266.533 199.762 264.983 198.209C264.215 197.439 264.495 196.718 265.651 196.689C269.347 196.596 273.001 195.763 277.21 196.064Z" fill="#D3BEAC"/>
<path fill-rule="evenodd" clip-rule="evenodd" d="M275.622 182.103C273.241 179.842 271.314 177.437 269.177 174.9C270.819 173.601 272.731 173.797 274.397 173.522C278.799 172.794 278.828 172.891 277.616 176.858C277.097 178.554 276.727 180.306 275.622 182.103Z" fill="#D3BDAC"/>
<path fill-rule="evenodd" clip-rule="evenodd" d="M252.975 91.4195C252.981 97.6907 248.576 102.841 242.106 104.554C236.466 106.047 229.401 103.573 225.936 98.1578C225.613 97.653 225.396 97.0676 225.238 96.493C224.796 94.8829 225.438 93.3991 226.794 92.7534C228.398 91.9903 230.264 92.4343 231.372 93.8714C231.637 94.2146 231.801 94.6242 232.036 94.9899C234.167 98.3186 238.887 99.5544 242.266 97.6733C246.061 95.5617 247.313 91.1937 245.119 87.6803C244.752 87.0916 244.281 86.5575 243.938 85.9575C242.996 84.3073 243.252 82.8301 244.601 81.8422C245.779 80.9796 247.914 81.0607 249.124 82.1415C251.546 84.3045 252.609 87.0812 252.968 90.1369C253.018 90.5597 252.975 90.9915 252.975 91.4195Z" fill="#E43F4D"/>
<path fill-rule="evenodd" clip-rule="evenodd" d="M295.048 71.0695C295.075 73.9042 291.42 77.657 288.732 77.7791C286.859 77.864 286.028 77.2729 286.375 75.5779C286.9 73.0133 287.475 70.3828 288.602 68.0227C289.899 65.3106 291.796 65.4242 293.757 67.7149C294.611 68.7123 294.842 70.0259 295.048 71.0695Z" fill="#A78466"/>
<path fill-rule="evenodd" clip-rule="evenodd" d="M230.337 57.2025C230.318 56.8547 230.623 56.7604 230.858 56.7585C233.3 56.7397 235.742 56.7467 238.264 56.7467C236.679 57.9223 232.758 58.1188 230.337 57.2025Z" fill="#8B6C53"/>
<path fill-rule="evenodd" clip-rule="evenodd" d="M230.406 59.831C233.073 60.2533 235.739 60.6756 238.406 61.0975C236.683 61.8625 233.016 61.3539 230.406 59.831Z" fill="#886951"/>
<path fill-rule="evenodd" clip-rule="evenodd" d="M237.874 52.9039C235.168 54.0747 232.349 54.8062 229.347 54.8133C232.047 53.6161 234.942 53.1848 237.874 52.9039Z" fill="#876950"/>
<path fill-rule="evenodd" clip-rule="evenodd" d="M191.605 33.6322C205.978 31.5512 218.224 39.7917 221.563 52.2664C224.984 65.0469 216.806 79.0803 200.759 81.2118C193.604 82.162 187.086 80.179 181.358 75.9855C179.819 74.859 178.218 73.6358 178.294 71.708C178.427 68.2912 179.135 64.7632 179.121 61.3417C178.466 60.7007 178.647 59.9314 178.739 59.1721C179.696 51.3011 182.184 43.8811 186.165 36.9033C186.59 36.1595 186.95 35.3497 187.91 35.0443C188.883 33.981 190.289 33.8226 191.605 33.6322Z" fill="#C7A07E"/>
<path fill-rule="evenodd" clip-rule="evenodd" d="M180.611 53.0662C180.025 55.8075 179.612 58.5824 179.121 61.3417C179.121 62.6467 179.122 70.6864 179.122 74.0329C176.203 72.1348 174.429 68.598 173.344 66.0664C170.695 59.879 170.644 53.53 173.322 47.3605C175.911 41.3984 180.674 37.3114 186.96 34.7949C187.333 34.6459 187.66 34.7337 187.91 35.0443C184.726 40.783 181.973 46.6818 180.611 53.0662Z" fill="#000091"/>
<path fill-rule="evenodd" clip-rule="evenodd" d="M211.992 50.458C212.489 50.7785 213 51.0688 213.622 51.115C214.565 51.3705 215.541 51.584 215.858 52.6479C216.946 53.5359 218.129 54.3405 219.101 55.3284C221.431 57.695 221.271 60.3737 218.665 62.4745C215.797 64.786 212.272 65.5595 208.634 65.9417C207.562 66.0544 206.467 65.9771 205.381 65.987C204.144 63.8796 204.379 61.5106 204.122 59.2486C203.825 56.6265 204.292 53.9577 203.676 51.3347C203.476 50.4825 203.673 49.6308 204.248 48.8964C205.098 48.393 205.905 48.3308 206.632 49.1C207.446 49.5945 208.38 49.478 209.275 49.5638C210.376 49.3357 211.234 49.7618 211.992 50.458Z" fill="#FEFEFE"/>
<path fill-rule="evenodd" clip-rule="evenodd" d="M204.486 49.0931C204.691 53.0189 204.816 56.9504 205.138 60.8678C205.278 62.5759 205.338 64.2788 205.381 65.987C202.511 66.1694 199.722 65.9522 197.183 64.5094C196.37 63.5111 196.074 62.3063 196.052 61.1261C195.985 57.6141 195.358 54.1426 195.3 50.6329C195.424 50.1432 195.64 49.7614 196.291 49.9104C196.979 49.5234 197.893 49.6394 198.486 49.0398C199.377 48.6434 200.275 48.3785 201.211 48.9248C202.024 48.9177 202.836 48.9111 203.648 48.904C203.985 48.74 204.265 48.8027 204.486 49.0931Z" fill="#207CBC"/>
<path fill-rule="evenodd" clip-rule="evenodd" d="M195.542 50.4906C196.791 51.9405 196.278 53.7877 196.486 55.3795C196.879 58.3876 196.899 61.4664 197.183 64.5094C194.1 63.9306 192.158 61.8972 190.493 59.6489C189.256 57.9785 189.374 56.1058 190.403 54.3185C191.011 53.2612 191.818 52.3459 192.784 51.5568C193.443 50.6057 194.204 49.8859 195.542 50.4906Z" fill="#2887C8"/>
<path fill-rule="evenodd" clip-rule="evenodd" d="M195.542 50.4906C194.623 50.846 193.704 51.2014 192.784 51.5568C191.814 49.6149 191.203 47.5528 190.534 45.5128C190.154 44.3576 191.398 42.9016 192.659 42.9454C193.337 42.9694 193.532 43.5167 193.733 43.9711C194.606 45.9432 195.442 47.9298 196.291 49.9104C196.041 50.1032 195.792 50.2974 195.542 50.4906Z" fill="#324998"/>
<path fill-rule="evenodd" clip-rule="evenodd" d="M201.211 48.9248C200.304 48.9908 199.428 49.7209 198.486 49.0398C197.98 47.2482 197.488 45.4511 196.959 43.6647C196.721 42.8601 196.597 42.1474 197.726 41.8853C199.032 41.5818 200.182 41.9414 200.364 42.9124C200.737 44.9015 200.939 46.9187 201.211 48.9248Z" fill="#334997"/>
<path fill-rule="evenodd" clip-rule="evenodd" d="M204.486 49.0931C204.206 49.0304 203.928 48.9672 203.648 48.904C203.853 46.9678 204.116 45.0359 204.244 43.0954C204.333 41.7563 205.2 41.7007 206.28 41.6964C207.583 41.6917 207.704 42.3837 207.619 43.3598C207.449 45.3004 207.222 47.2272 206.631 49.1004C205.917 49.0975 205.201 49.0954 204.486 49.0931Z" fill="#314897"/>
<path fill-rule="evenodd" clip-rule="evenodd" d="M211.992 50.458C211.008 50.3698 210.075 50.1436 209.275 49.5638C210.004 48.1936 210.745 46.8279 211.457 45.4497C211.866 44.6587 212.409 44.2129 213.389 44.5998C214.484 45.0325 214.205 45.7212 213.833 46.4833C213.192 47.796 212.602 49.1321 211.992 50.458Z" fill="#374B99"/>
<path fill-rule="evenodd" clip-rule="evenodd" d="M215.858 52.6479C214.938 52.3622 214.232 51.7999 213.622 51.115C214.41 49.9051 215.199 48.6936 215.97 47.5105C216.541 47.6741 216.792 48.0238 217.049 48.3721C218.436 50.2486 218.435 50.2858 216.651 51.9544C216.396 52.1933 216.123 52.4169 215.858 52.6479Z" fill="#394C99"/>
<path fill-rule="evenodd" clip-rule="evenodd" d="M202.801 63.234C201.942 61.514 202.077 59.7686 202.403 57.895C203.502 59.1257 203.645 60.5355 202.801 63.234Z" fill="#FCFDFE"/>
<path fill-rule="evenodd" clip-rule="evenodd" d="M202.582 56.4297C201.759 55.1575 201.933 54.246 202.326 53.0987C203.624 54.1437 203.227 55.0685 202.582 56.4297Z" fill="#F8FAFC"/>
<path fill-rule="evenodd" clip-rule="evenodd" d="M43.8084 12.6948C49.8885 10.2833 56.049 8.1227 62.6604 7.37188C63.1145 7.11819 63.6662 7.34717 64.1237 7.11031C66.6961 6.83523 69.2668 6.52508 71.8666 6.70224C72.3319 6.49149 72.8554 6.59667 73.335 6.46278C76.9481 6.57865 80.5737 6.55653 84.1697 6.85391C87.1085 7.09662 90.0368 7.65644 92.9556 8.00561C95.7609 8.34132 98.1997 9.84861 101.062 9.78744C101.71 9.77343 102.385 10.1051 103.017 10.3463C108.631 12.4876 114.196 14.7505 119.869 16.7412C121.977 17.4806 123.104 18.8487 123.878 20.555C127.47 28.4725 131.239 36.3172 134.62 44.3226C136.718 49.2913 139.291 54.0853 141.708 58.9318C143.094 61.7103 141.786 65.1446 138.871 66.1156C138.418 66.36 137.879 66.2227 137.412 66.4038C136.839 66.9067 136.212 66.7926 135.572 66.5467C134.966 66.8403 134.32 66.3153 133.714 66.6239C133.463 66.5407 133.211 66.4575 132.959 66.3744C132.211 66.5883 131.48 66.0762 130.731 66.3285C130.348 66.2053 129.966 66.0817 129.583 65.9581C128.905 66.5107 128.121 66.4643 127.319 66.3189C127.046 66.2597 126.78 66.1729 126.516 66.0863C126.002 65.8547 125.48 65.9792 124.957 66.0621C124.584 66.0748 124.224 66.0025 123.865 65.9185C123.307 65.6921 122.749 65.9041 122.191 65.9228C119.458 65.7894 116.709 65.9545 113.998 65.4905C113.436 65.2232 112.856 65.318 112.276 65.423C110.459 65.447 108.633 65.6875 106.833 65.2459C106.187 64.9395 105.514 64.9153 104.823 65.0868C99.6621 65.0509 94.499 65.0994 89.3509 64.6626C80.0708 64.6383 70.7883 64.4833 61.5185 65.0613C53.3527 65.5705 45.2355 66.5195 37.1149 67.4445C33.2954 67.8797 29.4464 68.063 25.638 68.6205C24.7965 68.7434 23.8833 69.0822 23.0442 68.5237C22.6572 68.3931 22.2319 68.0911 21.8886 68.1583C19.1242 68.6998 18.1577 66.6645 17.1401 65.0527C16.0425 63.3141 16.466 61.4221 17.6923 59.7866C18.1797 59.1369 18.6726 58.4686 18.7722 57.7219C19.1548 54.8553 21.1732 52.7256 22.4081 50.2458C23.8912 47.2675 25.3792 44.2823 26.2709 41.0808C26.9657 38.5872 28.2717 36.2968 28.8655 33.7551C29.5791 30.6999 30.9777 27.852 31.0852 24.588C31.2135 20.6944 33.9773 18.108 37.3644 16.1274C38.8036 15.286 40.2334 14.4304 41.6674 13.5815C42.3271 13.1707 43.029 12.8496 43.8084 12.6948Z" fill="#E0C5DF"/>
<path fill-rule="evenodd" clip-rule="evenodd" d="M23.0442 68.5237C31.4502 67.5668 39.8559 66.6046 48.2631 65.6543C61.917 64.1114 75.6284 63.9559 89.3549 64.1866C90.2522 65.1902 89.2385 65.6805 88.6802 66.2244C85.4615 69.3594 81.7633 71.9481 77.8383 74.221C65.342 81.4588 51.9093 86.0527 37.1082 86.6464C34.2849 86.7597 31.4324 86.7657 28.6989 86.0941C26.1816 85.4756 24.3167 86.354 22.828 87.9817C20.8588 90.1349 19.7039 92.7148 19.7037 95.5986C19.7034 97.9836 20.8187 99.952 22.7515 101.515C23.4651 102.091 24.4068 102.502 24.5888 103.517C24.1971 107.036 24.7494 108.311 27.1165 109.346C29.5448 110.407 31.7156 109.758 33.0505 107.581C33.4842 106.873 33.6386 105.979 34.5411 105.576C35.498 105.694 35.883 106.422 36.3017 107.079C41.389 115.059 48.3838 121.121 57.1278 125.434C57.6779 125.706 58.2551 125.919 58.8101 126.176C59.8313 126.65 61.4236 126.742 61.5525 127.962C61.732 129.659 61.5921 131.443 60.5696 132.995C60.4693 133.147 60.2235 133.197 60.0345 133.271C53.4851 134.065 46.9769 135.047 40.5878 136.695C35.332 138.051 30.2239 139.756 25.2613 141.858C21.7602 143.341 19.6022 146.073 17.7437 149.077C16.7294 150.204 16.8277 151.943 15.4017 152.841C11.2761 152.993 7.15078 153.036 3.04024 152.609C0.985544 152.395 0.229781 151.224 0.789233 149.373C3.2249 141.316 5.38773 133.193 7.5139 125.058C9.60733 117.049 11.9595 109.099 14.156 101.113C15.9411 94.622 17.6522 88.1135 19.4189 81.6179C20.6074 77.2485 21.8342 72.8882 23.0442 68.5237Z" fill="#A87854"/>
<path fill-rule="evenodd" clip-rule="evenodd" d="M127.346 65.9242C128.091 65.9356 128.837 65.946 129.583 65.9581C134.146 81.3765 138.601 96.8234 143.304 112.203C146.965 124.174 149.868 136.353 154.401 148.088C155.841 151.815 154.611 152.979 150.101 152.831C144.74 152.655 139.371 152.745 134.005 152.743C132.658 152.743 131.311 152.832 129.965 152.88C128.753 152.377 128.73 151.214 128.489 150.273C127.919 148.055 126.959 146.011 125.898 143.975C124.974 142.204 123.567 141.163 121.55 140.752C112.963 139.005 104.54 136.543 95.7759 135.562C94.9101 135.465 93.9801 135.395 93.3039 134.732C93.0192 132.53 93.6354 130.378 93.7382 128.194C93.7967 126.958 95.0987 126.688 96.0843 126.269C103.472 123.133 109.875 118.734 115.018 112.842C125.462 100.878 129.539 87.1442 127.747 71.7878C127.521 69.8525 126.47 67.9341 127.346 65.9242Z" fill="#A87854"/>
<path fill-rule="evenodd" clip-rule="evenodd" d="M93.4125 134.572C103.016 135.793 112.348 138.23 121.789 140.177C124.172 140.668 125.642 142.024 126.735 144.136C128.193 146.953 128.78 150.004 129.965 152.879C130.458 155.593 130.951 158.308 131.445 161.022C131.475 161.342 131.127 161.563 131.011 161.411C130.136 160.266 130.214 161.711 129.805 161.777C129.183 161.89 128.576 161.659 128.473 161.146C128.233 159.956 127.216 160.014 126.365 159.773C125.687 159.084 125.45 160.234 124.901 160.092C122.876 160.195 120.85 160.822 118.829 160.072C118.196 160.037 117.568 160.238 116.933 160.11C115.417 159.721 113.969 159.076 112.374 158.979C111.029 158.896 109.695 158.625 108.586 159.833C107.826 160.661 106.76 160.117 105.909 159.75C103.115 158.546 100.116 158.798 97.1954 158.685C94.8513 158.594 92.609 157.988 90.2871 157.824C89.3526 157.758 88.5731 157.621 87.8837 158.392C87.2489 159.102 86.4127 158.921 85.6061 158.642C84.6749 158.299 83.7213 157.991 82.8226 157.589C81.9471 157.198 81.3047 157.454 80.6488 157.943C80.3226 158.031 79.9953 158.026 79.666 157.968C76.209 156.757 72.5725 156.931 68.9824 156.753C68.5745 156.733 68.1057 156.718 67.7796 156.931C66.1643 157.987 64.6769 157.333 63.1426 156.741C62.165 156.364 61.1663 155.713 60.0722 156.515C59.8785 156.618 59.6705 156.675 59.45 156.694C58.5259 156.7 57.7264 156.288 56.8886 156.008C56.0996 155.744 55.1975 155.395 54.4793 155.733C52.108 156.845 49.8087 156.064 47.4818 155.719C47.3476 155.699 47.1765 155.587 47.0865 155.639C44.8908 156.91 43.0298 155.581 41.0782 154.968C40.8159 154.885 40.5325 154.775 40.2727 154.834C36.6964 155.648 33.2744 154.237 29.7563 154.19C28.3246 154.171 26.889 153.856 25.5094 154.465C25.2586 154.68 24.9805 154.849 24.652 154.939C24.1909 155.016 23.753 154.923 23.321 154.786C21.5293 154.331 19.9351 152.954 17.8357 153.892C17.3264 154.12 16.7881 153.698 16.7774 153.033C16.1619 151.388 16.4323 149.881 17.5912 148.515C19.2927 145.118 21.9635 142.644 25.6248 141.143C36.5161 136.68 47.8613 133.88 59.7203 132.979C61.4126 132.892 61.0886 134.121 61.1398 135.002C61.338 138.414 62.0926 141.614 64.3757 144.416C69.9651 151.278 78.2218 151.428 84.8653 147.374C85.383 147.058 85.8806 146.713 86.4143 146.419C87.076 146.068 87.5565 145.566 87.8585 144.908C89.9901 142.345 91.1116 139.32 92.3361 136.34C92.5984 135.702 92.6324 134.935 93.4125 134.572Z" fill="#F9F3F0"/>
<path fill-rule="evenodd" clip-rule="evenodd" d="M93.4125 134.572C92.4083 138.568 90.7591 142.291 88.1063 145.585C87.4587 145.775 87.2346 146.404 86.7379 146.751C84.5481 148.31 82.1986 149.433 79.491 150.15C70.0764 152.645 61.4769 145.112 60.7785 137.185C60.6883 136.158 60.5714 135.127 60.6023 134.101C60.6227 133.426 60.2396 133.194 59.7203 132.979C61.3404 132.154 60.4171 130.544 60.9753 129.402C61.9189 127.473 60.2467 127.344 59.074 126.848C49.0765 122.622 41.3372 116.019 35.6801 107.221C35.3281 106.673 34.918 106.158 34.535 105.628C34.0112 105.348 33.9028 104.831 33.699 104.361C32.1418 100.77 28.7049 100 25.5623 102.53C25.1585 102.855 24.8856 103.347 24.2836 103.421C22.8002 102.117 20.9992 101.122 20.0706 99.2904C17.76 94.7349 20.1887 87.9894 25.0121 85.7578C25.6747 85.451 26.3524 85.0706 27.1639 85.2581C34.4172 86.9336 41.6408 86.2373 48.7898 84.7893C62.365 82.04 74.7094 76.7547 85.4187 68.3574C86.9149 67.1848 88.8859 66.2729 89.3534 64.1867C94.2531 64.2928 99.1518 64.3939 104.05 64.5174C104.378 64.5257 104.7 64.7067 105.025 64.8075C105.631 64.5327 106.274 64.9344 106.883 64.7196C108.702 65.3818 110.656 64.48 112.475 65.1464C112.944 64.9431 113.485 65.1487 113.95 64.9212C116.075 65.3987 118.253 65.3227 120.4 65.2969C121.192 65.2874 121.824 65.504 122.522 65.6575C122.992 65.4682 123.512 65.5613 123.993 65.4349C124.37 65.5662 124.747 65.6979 125.124 65.8293C125.596 65.6236 126.133 65.821 126.606 65.6181C126.853 65.72 127.099 65.8221 127.346 65.9242C128.811 73.068 129.363 80.2395 127.951 87.4496C124.362 105.785 113.928 119.202 95.6768 126.95C94.6136 127.402 94.0711 127.828 94.1295 129.045C94.2187 130.902 94.1017 132.782 93.4125 134.572Z" fill="#F5C3A9"/>
<path fill-rule="evenodd" clip-rule="evenodd" d="M136.988 60.8755C133.752 60.8406 130.513 60.7061 127.28 60.7872C107.22 61.289 87.2422 59.7816 67.2444 58.7022C57.9194 58.1992 48.5772 58.3806 39.268 59.0408C32.7702 59.5012 26.2814 60.1666 19.8468 61.2013C19.2665 61.2947 18.6514 61.465 17.5358 60.9692C20.9257 60.5041 23.8359 60.0728 26.7555 59.7103C42.259 57.7851 57.8008 57.5359 73.4012 58.529C88.1837 59.4701 102.981 60.3393 117.803 60.3689C123.493 60.3804 129.187 60.1246 134.882 60.3045C135.606 60.3275 136.346 60.2422 136.988 60.8755Z" fill="#C9A2CB"/>
<path fill-rule="evenodd" clip-rule="evenodd" d="M22.4789 56.0712C25.6087 55.7804 28.7325 55.4126 31.869 55.2142C40.1003 54.6929 48.3329 54.1675 56.5724 53.7891C65.4878 53.3798 74.4125 53.4981 83.33 53.8142C97.7997 54.3275 112.265 54.9542 126.737 55.4037C130.352 55.516 133.978 55.3271 137.833 55.6844C137.292 56.2684 136.729 56.1799 136.262 56.1666C121.104 55.7398 105.944 55.4132 90.7976 54.6767C76.0458 53.9591 61.2937 53.7891 46.5469 54.9735C38.8732 55.5896 31.178 55.9673 23.4925 56.4496C23.1687 56.4701 22.8422 56.4597 22.5167 56.4636C22.5041 56.3328 22.4915 56.202 22.4789 56.0712Z" fill="#C9A2CB"/>
<path fill-rule="evenodd" clip-rule="evenodd" d="M23.5394 50.7804C61.2184 49.4697 98.5463 47.1768 135.448 51.9966C134.806 52.274 133.48 52.2379 130.814 52.0275C122.338 51.358 113.853 50.7476 105.383 50.0606C89.1718 48.7456 73.0065 50.4553 56.8203 50.1144C46.3019 49.893 35.8399 51.3224 25.3214 51.2693C24.861 51.267 24.3654 51.4501 23.5394 50.7804Z" fill="#C9A2CB"/>
<path fill-rule="evenodd" clip-rule="evenodd" d="M25.8584 49.7664C54.8019 43.491 116.701 45.3402 132.197 48.5696C96.4933 45.5513 61.1468 44.4462 25.8584 49.7664Z" fill="#C9A2CC"/>
<path fill-rule="evenodd" clip-rule="evenodd" d="M37.5241 18.1627C41.2017 16.9927 44.9811 16.0206 48.8476 15.2953C58.1389 13.5517 67.589 14.0722 76.9519 13.4088C83.3496 12.9556 89.7049 12.8862 96.0577 13.4199C101.645 13.8892 107.198 14.7297 112.764 15.4131C113.089 15.453 113.415 15.5438 113.552 15.9808C88.0234 12.3248 62.7109 12.796 37.5241 18.1627Z" fill="#C9A2CB"/>
<path fill-rule="evenodd" clip-rule="evenodd" d="M24.2836 103.421C25.5334 101.08 27.7376 100.224 29.6071 100.449C32.322 100.777 33.7802 102.365 34.535 105.628C34.3783 106.056 34.2326 106.488 34.0636 106.911C32.8914 109.85 30.263 111.114 27.4015 110.121C24.1995 109.01 23.0703 106.584 24.2836 103.421Z" fill="#EEE9C0"/>
<path fill-rule="evenodd" clip-rule="evenodd" d="M99.5635 84.4634C100.211 84.0198 100.851 84.221 101.509 84.4598C105.657 85.9649 108.903 88.5922 111.68 91.7654C112.871 93.1259 112.5 94.571 111.468 95.8555C107.826 100.389 101.168 102.415 94.8596 100.156C93.4205 99.6411 94.5038 98.7423 94.1908 98.0897C93.5229 95.6555 95.012 93.5864 95.5478 91.3671C95.9392 89.7474 96.7228 88.2012 97.6194 86.7401C98.1317 86.139 98.5488 85.4752 98.9906 84.8267C99.1515 84.6645 99.3434 84.5441 99.5635 84.4634Z" fill="#030404"/>
<path fill-rule="evenodd" clip-rule="evenodd" d="M73.5302 111.487C71.0106 109.226 70.0468 106.307 69.5525 103.189C69.2591 100.387 69.6399 97.7741 71.9441 95.705C72.1831 95.4734 72.4093 95.2289 72.6629 95.013C73.7127 94.1193 74.8021 93.6675 76.1263 94.6068C77.4887 95.5734 77.2255 96.6224 76.508 97.8141C73.9885 101.998 74.1506 105.365 77.1057 108.287C78.8217 109.984 81.096 110.716 83.5125 111.078C84.0988 110.806 84.799 111.233 85.3598 110.811C86.2209 110.672 87.0782 110.517 87.902 110.231C89.7394 109.474 91.4702 108.21 93.6673 109.162C95.7317 111.64 93.8044 113.012 91.2261 114.401C91.0013 114.522 90.6937 114.5 90.4328 114.58C89.1385 114.985 87.8955 115.566 86.4915 115.594C86.0134 115.821 85.49 115.766 84.9823 115.806C81.2494 115.786 77.8633 114.743 74.7988 112.752C74.4154 112.296 73.7534 112.086 73.5302 111.487Z" fill="#C448BB"/>
<path fill-rule="evenodd" clip-rule="evenodd" d="M99.5635 84.4634C99.4719 84.6355 99.3804 84.8076 99.2888 84.9797C98.7862 85.3826 98.8536 86.0955 98.3529 86.4991C96.3855 90.1775 95.3181 94.1413 94.1909 98.0876C93.7136 99.3152 92.939 99.3299 91.8149 98.749C87.5432 96.5422 85.4157 92.9322 84.1938 88.6997C83.8441 87.488 84.1973 86.4948 85.3637 85.8845C89.5766 83.6806 94.1242 83.148 98.8537 83.6033C99.4015 83.6561 99.2704 84.2178 99.5635 84.4634Z" fill="#F9F2EF"/>
<path fill-rule="evenodd" clip-rule="evenodd" d="M108.226 74.1797C110.478 75.3531 113.397 76.3935 115.739 78.3738C116.743 79.2229 117.604 80.1328 116.558 81.33C115.543 82.4922 114.486 81.7795 113.527 81.0586C107.712 76.6883 100.948 74.8708 93.635 74.5349C93.1545 74.5131 92.6637 74.5633 92.194 74.4881C91.203 74.3292 90.5382 73.7888 90.5394 72.7997C90.5403 71.8768 91.2294 71.3556 92.1029 71.2576C93.1855 71.1357 94.2965 71.1494 95.3891 71.2085C99.6871 71.4408 103.761 72.5969 108.226 74.1797Z" fill="#A87954"/>
<path fill-rule="evenodd" clip-rule="evenodd" d="M27.5694 98.8443C22.8134 97.0668 23.394 92.8419 26.3166 90.1256C27.6844 88.8541 29.3245 89.282 29.8128 90.9605C30.4238 93.0613 30.8597 95.2008 31.5228 97.2969C31.9485 98.6427 30.8817 99.3203 29.5325 99.3324C28.8797 99.3382 28.2237 99.0174 27.5694 98.8443Z" fill="#E7AE90"/>
<path fill-rule="evenodd" clip-rule="evenodd" d="M28.4767 107.009C27.6322 106.508 27.1054 105.802 27.4844 104.915C27.8564 104.044 28.7455 103.702 29.6954 104.048C30.5748 104.367 30.891 105.132 30.6176 105.956C30.2999 106.913 29.4264 107.076 28.4767 107.009Z" fill="#A9815C"/>
<path fill-rule="evenodd" clip-rule="evenodd" d="M97.5769 92.1017C97.9483 91.594 98.0235 90.7455 98.8264 90.963C99.7521 91.2134 99.1486 91.8701 99.0253 92.3843C98.6355 94.0096 98.2881 95.6441 97.8715 97.2633C97.757 97.7083 97.7813 98.4175 96.9633 98.2992C96.2126 98.1905 96.2572 97.6296 96.382 97.0995C96.7803 95.4108 97.1884 93.7241 97.5769 92.1017Z" fill="#E9E4E1"/>
<path fill-rule="evenodd" clip-rule="evenodd" d="M99.3972 87.7237C99.6704 87.2333 99.817 86.3195 100.695 86.7285C101.628 87.1624 100.845 87.9201 100.741 88.5516C100.63 89.2202 100.277 89.7579 99.5869 89.5308C98.4353 89.1521 99.3538 88.3804 99.3972 87.7237Z" fill="#DAD5D4"/>
<path fill-rule="evenodd" clip-rule="evenodd" d="M6.2746 265.637L9.95572 173.505C10.1739 172.606 10.6038 169.733 10.8591 168.843C11.6303 161.921 13.7528 155.136 17.088 148.896C18.6673 143.392 18.5613 151.418 23.9996 148.896L24.8018 148.524C30.7514 145.765 37.6745 145.54 43.8128 147.905L53.2747 151.551C64.1277 155.732 76.1219 156.53 87.4932 153.826L92.5888 152.615C100.772 150.669 109.3 150.362 117.618 151.713C125.438 152.984 123.381 131.116 130.682 153.826C130.682 153.826 130.738 154.152 130.766 154.314C131.358 157.776 134.229 174.979 135.095 181.299C135.469 184.012 135.673 186.744 135.709 189.48L135.871 202.145C135.921 206.085 135.62 210.022 134.973 213.915L132.908 231.466L129.593 265.637L6.2746 265.637Z" fill="#F9F3F0"/>
</svg>
