<svg xmlns="http://www.w3.org/2000/svg" width="51.542" height="118.992" viewBox="0 0 51.542 118.992"><defs><style>.a{fill:#fff;fill-rule:evenodd;}</style></defs><g transform="translate(-84.824 47.813)"><g transform="translate(84.824 -47.813)"><path class="a" d="M42.3,54.787h0V93.412a21.476,21.476,0,1,0,42.952,0V54.787a21.476,21.476,0,1,0-42.952,0Zm-4.3,0a25.771,25.771,0,1,1,51.542,0V93.412a25.771,25.771,0,1,1-51.542,0V54.787Z" transform="translate(-38 -29)"/><path class="a" d="M49,37.148v8.59a2.148,2.148,0,0,0,4.3,0v-8.59a2.148,2.148,0,1,0-4.3,0Z" transform="translate(-25.376 -22.114)"/><path class="a" d="M58.325,88.7,70.137,76.884a2.148,2.148,0,0,1,3.037,3.037l-13.33,13.33a2.148,2.148,0,0,1-3.037,0L43.375,79.819a2.148,2.148,0,0,1,3.037-3.037Z" transform="translate(-32.554 25.112)"/></g></g></svg>