<svg height="118.992" viewBox="0 0 51.542 118.992" width="51.542" xmlns="http://www.w3.org/2000/svg"><g fill="#fff" fill-rule="evenodd"><path d="m42.3 54.787v38.625a21.476 21.476 0 1 0 42.952 0v-38.625a21.476 21.476 0 1 0 -42.952 0zm-4.3 0a25.771 25.771 0 1 1 51.542 0v38.625a25.771 25.771 0 1 1 -51.542 0z" transform="translate(-38 -29)"/><path d="m49 37.148v8.59a2.148 2.148 0 0 0 4.3 0v-8.59a2.148 2.148 0 1 0 -4.3 0z" transform="translate(-25.376 -22.114)"/><path d="m58.325 88.7 11.812-11.816a2.148 2.148 0 0 1 3.037 3.037l-13.33 13.33a2.148 2.148 0 0 1 -3.037 0l-13.432-13.432a2.148 2.148 0 0 1 3.037-3.037z" transform="translate(-32.554 25.112)"/></g></svg>