<svg width="1000" height="1000" viewBox="0 0 1000 1000" fill="none" xmlns="http://www.w3.org/2000/svg">
<path fill-rule="evenodd" clip-rule="evenodd" d="M323.465 486.397C323.507 490.865 323.288 495.284 324.504 499.742C326.128 505.693 323.531 510.709 319.706 515.149C312.726 523.25 303.736 528.111 293.621 531.051C276.505 536.023 259.213 537.501 241.931 532.234C230.264 528.678 222.305 521.702 222.14 508.257C222.1 504.991 220.548 501.781 220.649 498.354C220.722 495.79 218.524 495.917 216.809 495.585C218.403 494.321 219.703 493.095 219.646 490.663C219.283 475.458 218.368 460.293 217.093 445.135C216.753 441.073 214.832 440.516 211.454 440.529C194.381 440.596 177.307 440.569 160.235 440.455C150.904 440.392 144.29 436.029 142.724 428.704C141.89 424.801 141.25 420.843 141.263 416.743C141.362 386.667 141.275 356.591 141.237 326.513C141.228 319.611 141.24 319.51 134.462 317.544C118.446 312.901 113.857 295.841 115.988 283.582C116.911 278.274 118.499 273.116 122.143 268.892C123.044 267.846 123.767 266.746 123.813 265.316C127.248 263.804 130.422 265.733 133.659 266.209C148.704 268.426 160.468 263.03 167.801 249.893C169.767 246.373 172.465 244.947 176.278 244.21C188.09 241.932 198.211 236.43 206.19 227.301C209.793 223.178 212.473 218.496 213.414 213.057C214.162 208.732 216.547 206.306 220.75 205.385C232.145 202.889 240.542 196.602 246.317 186.318C249.636 180.407 252.127 174.736 250.145 167.869C249.591 165.953 249.218 163.875 250.884 162.141C251.826 161.474 252.871 160.961 253.99 160.929C270.767 160.455 287.544 160.01 304.314 161.093C306.288 163.279 308.937 162.643 311.295 162.492C332.137 161.155 353.007 161.473 373.871 161.245C378.651 161.192 383.262 161.958 387.846 162.857C395.135 164.285 399.881 170.104 400.429 177.543C401.601 193.38 402.573 209.223 403.322 225.091C404.071 240.945 405.096 256.8 406.076 272.644C407.028 288.046 408.14 303.437 408.754 318.859C408.754 318.859 408.649 319.485 408.654 319.485C408.658 319.484 408.089 319.737 408.089 319.737C408.089 319.737 408.627 320.052 408.631 320.053C408.634 320.053 408.751 320.672 408.751 320.672C409.081 321.969 409.75 323.282 409.689 324.56C409.167 335.573 410.704 346.491 411.372 357.431C412.094 369.248 411.892 381.14 413.712 392.889C413.949 394.43 413.959 396.039 413.829 397.596C413.102 406.282 414.874 414.864 414.576 423.598C414.18 435.251 408.884 442.546 397.192 442.926C388.265 443.217 379.241 443.999 370.326 442.141C368.595 441.779 366.745 441.952 364.95 441.947C353.487 441.917 342.025 441.871 330.563 441.899C322.434 441.919 321.626 440.571 322.153 450.094C322.226 451.423 321.998 452.771 321.909 454.11C319.16 453.656 319.126 451.318 319.103 449.443C319.044 444.538 316.238 443.613 312.054 443.626C296.803 443.668 281.549 443.783 265.942 443.566C282.035 452.668 298.682 460.174 314.851 468.6C317.557 470.009 320.872 470.769 322.078 474.175C322.616 478.24 323.806 482.233 323.465 486.397Z" fill="#EDCEB4"/>
<path fill-rule="evenodd" clip-rule="evenodd" d="M250.456 164.197C254.192 172.291 253.252 179.793 247.943 186.948C244.361 191.774 241.876 197.396 236.595 200.922C231.651 204.224 226.23 206.099 220.573 207.512C218.156 208.116 216.007 208.622 215.459 211.854C212.826 227.407 202.178 236.235 188.991 242.601C184.39 244.823 179.443 246.484 174.233 246.762C172.185 246.871 170.811 247.609 170.24 249.607C167.825 258.063 162.214 263.072 154.099 266.21C145.325 269.603 136.755 269.948 127.931 267.055C126.669 266.642 125.416 266.209 124.162 265.785C120.16 263.773 116.364 261.556 113.057 258.37C104.25 249.884 99.9547 239.685 101.067 227.474C101.496 222.76 100.082 219.606 96.4365 216.556C88.1449 209.618 85.8533 200.272 87.2552 189.804C89.7467 171.192 98.8885 157.044 115.298 147.858C117.391 146.685 118.454 145.254 119.171 142.89C124.652 124.804 143.223 114.033 161.819 117.701C172.216 119.753 181.35 123.949 188.532 131.964C189.123 132.207 189.48 132.802 190.095 133.011L190.003 132.948C193.383 135.205 196.726 135.526 200.678 133.947C219.465 126.442 241.87 140.886 249.134 156.425C250.33 158.984 250.147 161.588 250.456 164.197Z" fill="#6E4E3E"/>
<path fill-rule="evenodd" clip-rule="evenodd" d="M251.227 164.371C249.03 159.598 247.17 154.79 243.833 150.452C236.105 140.402 225.655 135.587 213.682 133.723C209.135 133.014 204.447 134.946 199.998 136.348C194.2 138.176 194.247 138.322 190.523 133.298C194.277 130.114 197.928 126.799 201.805 123.77C213.57 114.584 237.561 110.72 252.313 128.332C255.458 132.085 258.284 132.638 262.645 131.677C279.787 127.903 293.914 134.969 301.292 150.802C302.891 154.232 304.644 157.646 305.035 161.511C302.947 163.346 300.389 162.865 297.959 162.882C284.488 162.981 271.017 163.001 257.546 163.151C255.414 163.176 253.005 162.322 251.227 164.371Z" fill="#93634B"/>
<mask id="mask0_4063_36202" style="mask-type:alpha" maskUnits="userSpaceOnUse" x="0" y="117" width="890" height="767">
<path d="M60.3126 595.517C36.2334 554.292 18.3881 518.604 8.20374 479.203C-12.6009 398.688 3.41776 335.177 88.1355 277.646C123.257 253.79 162.573 238.021 202.07 222.979C290.492 189.305 379.354 156.897 471.075 133.11C518.039 120.928 552.4 117.064 640.867 117.981C729.335 118.897 795.247 160.179 843.752 232.036C852.112 244.422 858.989 257.814 866.403 270.826C883.008 299.971 889.981 331.519 889.404 364.855C888.738 403.55 879.612 440.197 863.796 475.515C806.962 602.431 723.2 707.9 612.508 791.921C565.341 828.004 511.861 854.983 454.81 871.478C356.896 899.714 274.086 876.416 208.355 798.992C174.508 759.122 143.808 716.503 112.921 674.224C92.8587 646.769 75.0309 617.684 60.3126 595.517Z" fill="white"/>
</mask>
<g mask="url(#mask0_4063_36202)">
<path d="M60.3126 595.517C36.2334 554.292 18.3881 518.604 8.20374 479.203C-12.6009 398.688 3.41776 335.177 88.1355 277.646C123.257 253.79 162.573 238.021 202.07 222.979C290.492 189.305 379.354 156.897 471.075 133.11C518.039 120.928 552.4 117.064 640.867 117.981C729.335 118.897 795.247 160.179 843.752 232.036C852.112 244.422 858.989 257.814 866.403 270.826C883.008 299.971 889.981 331.519 889.404 364.855C888.738 403.55 879.612 440.197 863.796 475.515C806.962 602.431 723.2 707.9 612.508 791.921C565.341 828.004 511.861 854.983 454.81 871.478C356.896 899.714 274.086 876.416 208.355 798.992C174.508 759.122 143.808 716.503 112.921 674.224C92.8587 646.769 75.0309 617.684 60.3126 595.517Z" fill="#2351DF"/>
<path fill-rule="evenodd" clip-rule="evenodd" d="M323.814 486.555C338.355 485.372 352.898 484.196 367.438 483.003C380.636 481.922 393.821 480.635 407.034 479.803C415.182 479.289 422.618 485.626 423.803 493.875C426.098 509.852 428.147 525.865 430.275 541.865C433.322 564.756 436.406 587.642 439.374 610.542C443.118 639.439 447.728 668.212 450.84 697.206C453.401 721.061 457.213 744.783 460.54 768.553C462.963 785.878 465.608 803.172 467.95 820.507C469.642 833.032 473.878 844.896 476.984 857.053C477.871 860.529 479.062 863.926 479.97 867.396C481.808 874.416 477.705 879.928 470.399 880.277C468.159 880.384 465.907 880.231 463.661 880.251C398.288 880.815 332.911 881.134 267.544 882.057C232.949 882.545 198.356 882.704 163.762 882.971C154.446 883.038 153.262 882.061 150.677 872.968C146.922 859.762 145.288 846.154 143.157 832.65C139.52 809.6 138.117 786.273 134.899 763.178C131.647 739.837 129.743 716.364 127.271 692.949C126.353 684.254 126.041 675.477 125.848 666.729C125.259 640.034 124.686 613.308 125.989 586.645C127.116 563.591 129.195 540.556 133.511 517.807C136.277 503.229 137.569 502.303 152.183 501.205C170.983 499.794 189.749 497.943 208.531 496.305C211.438 496.051 214.356 495.924 217.269 495.738C220.172 494.553 222.058 495.411 222.767 498.52C223.315 500.928 223.868 503.394 223.921 505.822C224.331 524.255 237.018 530.907 251.328 532.667C266.689 534.556 282.261 533.892 297.147 528.257C303.511 525.848 309.334 522.681 314.473 518.149C320.988 512.403 324.748 505.939 322.41 496.804C321.558 493.474 321.082 489.652 323.814 486.555Z" fill="#FAB434"/>
<path fill-rule="evenodd" clip-rule="evenodd" d="M323.814 486.555C323.856 491.021 323.637 495.439 324.852 499.895C326.473 505.845 323.879 510.859 320.058 515.298C313.086 523.396 304.105 528.255 294.001 531.194C276.902 536.165 259.628 537.642 242.364 532.376C230.71 528.822 222.759 521.848 222.593 508.408C222.554 505.143 221.004 501.934 221.104 498.508C221.177 495.945 218.981 496.072 217.268 495.74C218.861 494.477 220.159 493.25 220.102 490.82C219.74 475.62 218.825 460.46 217.553 445.307C217.212 441.246 215.294 440.689 211.919 440.703C194.864 440.77 177.807 440.742 160.753 440.629C151.432 440.566 144.825 436.205 143.26 428.882C142.428 424.98 141.788 421.024 141.801 416.925C141.9 386.859 141.813 356.792 141.775 326.725C141.766 319.825 141.778 319.724 135.007 317.759C119.008 313.118 114.424 296.064 116.552 283.808C117.474 278.502 119.061 273.346 122.701 269.123C123.601 268.078 124.324 266.978 124.369 265.548C127.801 264.038 130.972 265.965 134.205 266.441C149.234 268.657 160.986 263.263 168.312 250.131C170.275 246.612 172.971 245.186 176.779 244.45C188.58 242.172 198.69 236.672 206.66 227.547C210.26 223.425 212.937 218.745 213.877 213.307C214.624 208.983 217.007 206.559 221.205 205.638C232.589 203.143 240.977 196.858 246.746 186.578C250.061 180.668 252.55 174.999 250.569 168.134C250.016 166.219 249.644 164.142 251.308 162.409C252.249 161.742 253.293 161.229 254.41 161.196C271.17 160.723 287.929 160.278 304.683 161.361C306.655 163.546 309.301 162.91 311.656 162.759C332.477 161.423 353.325 161.741 374.166 161.513C378.941 161.46 383.548 162.226 388.128 163.124C395.409 164.551 400.149 170.369 400.697 177.805C401.868 193.637 402.839 209.475 403.587 225.337C404.336 241.186 405.36 257.035 406.338 272.874C407.29 288.271 408.401 303.657 409.014 319.073C409.014 319.073 408.909 319.699 408.914 319.699C408.918 319.698 408.35 319.951 408.35 319.951C408.35 319.951 408.887 320.266 408.89 320.267C408.894 320.267 409.01 320.886 409.01 320.886C409.341 322.182 410.009 323.495 409.948 324.773C409.426 335.782 410.961 346.696 411.629 357.632C412.35 369.446 412.149 381.334 413.966 393.079C414.204 394.619 414.213 396.228 414.084 397.784C413.357 406.467 415.128 415.046 414.829 423.777C414.434 435.426 409.144 442.719 397.464 443.099C388.546 443.39 379.532 444.172 370.626 442.314C368.897 441.952 367.048 442.126 365.255 442.121C353.805 442.09 342.355 442.044 330.904 442.072C322.783 442.092 321.977 440.745 322.502 450.265C322.575 451.593 322.348 452.941 322.259 454.279C319.512 453.825 319.479 451.488 319.456 449.614C319.397 444.71 316.594 443.786 312.414 443.798C297.179 443.84 281.941 443.955 266.35 443.739C282.427 452.838 299.057 460.341 315.209 468.764C317.912 470.173 321.223 470.932 322.428 474.337C322.965 478.401 324.154 482.392 323.814 486.555Z" fill="#EDCEB4"/>
<path fill-rule="evenodd" clip-rule="evenodd" d="M250.968 164.229C254.714 172.302 253.772 179.784 248.45 186.92C244.859 191.734 242.368 197.34 237.074 200.858C232.118 204.151 226.684 206.02 221.013 207.429C218.59 208.032 216.436 208.537 215.887 211.761C213.247 227.272 202.574 236.077 189.355 242.426C184.742 244.641 179.784 246.298 174.561 246.575C172.507 246.684 171.131 247.42 170.558 249.413C168.137 257.847 162.512 262.842 154.377 265.972C145.582 269.356 136.992 269.7 128.146 266.815C126.881 266.403 125.625 265.971 124.368 265.548C120.356 263.541 116.551 261.33 113.236 258.152C104.408 249.689 100.102 239.517 101.216 227.339C101.647 222.637 100.229 219.491 96.575 216.449C88.2632 209.53 85.966 200.209 87.3713 189.769C89.8689 171.206 99.033 157.096 115.482 147.934C117.58 146.765 118.646 145.337 119.365 142.979C124.859 124.942 143.475 114.199 162.116 117.858C172.538 119.904 181.695 124.089 188.895 132.082C189.487 132.325 189.845 132.919 190.461 133.126L190.369 133.063C193.757 135.315 197.109 135.635 201.07 134.061C219.902 126.575 242.362 140.981 249.644 156.479C250.842 159.031 250.659 161.628 250.968 164.229Z" fill="#6E4E3E"/>
<path fill-rule="evenodd" clip-rule="evenodd" d="M250.969 164.23C248.776 159.442 246.919 154.619 243.587 150.268C235.873 140.189 225.441 135.36 213.489 133.49C208.949 132.779 204.269 134.716 199.828 136.123C194.04 137.956 194.087 138.102 190.37 133.063C194.117 129.87 197.761 126.545 201.632 123.508C213.376 114.293 237.327 110.419 252.053 128.083C255.192 131.847 258.014 132.402 262.367 131.438C279.479 127.652 293.583 134.74 300.948 150.62C302.544 154.06 304.294 157.485 304.684 161.361C302.6 163.201 300.046 162.719 297.62 162.736C284.172 162.835 270.725 162.855 257.277 163.006C255.149 163.031 252.744 162.175 250.969 164.23Z" fill="#93634B"/>
<path fill-rule="evenodd" clip-rule="evenodd" d="M322.428 474.337C301.938 464.302 281.579 454.015 261.511 443.253C261.921 441.276 263.283 441.888 264.193 441.892C281.226 441.97 298.26 442.072 315.293 442.236C320.724 442.288 320.689 442.38 321.107 447.756C321.278 449.958 320.929 452.273 322.26 454.278C322.391 458.266 322.524 462.252 322.656 466.239C323.286 468.956 323.583 471.663 322.435 474.33L322.428 474.337Z" fill="#A9734F"/>
<path fill-rule="evenodd" clip-rule="evenodd" d="M322.435 474.331C322.508 471.634 322.582 468.935 322.656 466.239C324.088 468.978 324.521 471.688 322.435 474.331Z" fill="#EDCEB4"/>
<path fill-rule="evenodd" clip-rule="evenodd" d="M190.461 133.126C189.696 133.141 189.189 132.771 188.895 132.082C189.579 132.187 190.188 132.405 190.461 133.126Z" fill="#93634B"/>
<path fill-rule="evenodd" clip-rule="evenodd" d="M409.014 319.073C409.765 319.679 409.772 320.282 409.009 320.884C409.01 320.885 408.658 320.522 408.658 320.522C408.277 320.158 408.278 319.797 408.663 319.437L409.014 319.073Z" fill="#EDCEB4"/>
<path fill-rule="evenodd" clip-rule="evenodd" d="M274.311 260.145C292.482 259.082 307.8 264.97 319.314 279.293C326.823 288.634 325.184 299.089 315.574 306.262C309.065 311.12 301.537 313.2 293.58 313.583C283.827 314.052 274.462 312.045 265.301 308.69C262.403 307.629 261.631 305.86 261.638 303.215C260.367 302.015 260.243 300.447 260.492 298.902C262.366 287.264 265.323 275.923 270.042 265.086C270.946 263.01 272.283 261.269 274.311 260.145Z" fill="#0B0705"/>
<path fill-rule="evenodd" clip-rule="evenodd" d="M277.721 271.82C277.098 274.042 276.392 275.141 274.897 274.824C273.359 274.497 273.259 273.121 273.494 271.849C273.78 270.294 274.133 268.741 274.619 267.24C274.915 266.325 275.78 265.864 276.74 266.088C277.689 266.31 278.241 267.116 278.186 268.044C278.095 269.619 277.805 271.183 277.721 271.82Z" fill="#E9EBEB"/>
<path fill-rule="evenodd" clip-rule="evenodd" d="M198.41 349.028C197.925 346.003 198.844 342.756 199.734 339.524C201.109 334.541 204.999 331.821 208.999 332.946C212.671 333.98 214.382 337.808 213.354 342.695C210.91 354.311 215.042 364.037 224.407 368.722C235.5 374.271 249.32 368.864 253.827 357.271C254.783 354.808 255.116 352.096 257.208 350.072C259.355 347.996 261.515 347.033 264.441 348.267C267.222 349.44 268.683 351.255 268.57 354.429C268.273 362.752 264.751 369.93 258.863 375.178C242.231 390.007 221.243 388.05 207.774 373.778C201.393 367.019 198.003 358.897 198.41 349.028Z" fill="#DA9CB5"/>
<path fill-rule="evenodd" clip-rule="evenodd" d="M274.311 260.145C267.466 273.73 263.687 288.217 261.638 303.213C260.326 304.842 258.932 306.424 256.738 304.556C250.64 299.361 243.593 295.131 238.973 288.4C233.754 280.798 235.248 270.939 243.917 265.899C253.534 260.307 263.662 259.309 274.311 260.145Z" fill="white"/>
<path fill-rule="evenodd" clip-rule="evenodd" d="M322.103 245.944C321.985 247.71 321.557 249.835 319.135 250.252C316.613 250.686 315.638 248.793 315.075 246.694C315.017 246.477 314.924 246.262 314.912 246.042C313.938 228.744 294.527 221.941 278.751 228.148C273.178 230.34 268.688 233.965 264.941 238.57C263.953 239.785 263.103 241.139 261.987 242.219C260.792 243.374 259.292 243.901 257.743 242.73C256.277 241.621 256.165 240.101 256.678 238.492C256.88 237.863 257.235 237.269 257.588 236.702C267.415 220.946 292.826 211.87 310.67 225.051C317.233 229.897 322.154 238.71 322.103 245.944Z" fill="#705040"/>
<path fill-rule="evenodd" clip-rule="evenodd" d="M144.433 290.328C144.146 293.51 144.982 296.882 143.891 300.166C142.998 302.858 141.631 304.01 138.435 303.325C130.249 301.569 125.287 294.555 127.004 286.519C127.914 282.257 135.433 276.408 140.083 276.289C141.982 276.241 142.735 277.285 143.387 278.928C144.851 282.616 144.217 286.426 144.433 290.328Z" fill="#C8A180"/>
<path fill-rule="evenodd" clip-rule="evenodd" d="M331.644 321.985C330.689 321.941 329.776 321.688 329.751 320.569C329.724 319.283 330.543 318.514 331.802 318.419C332.798 318.344 333.616 318.908 333.694 319.9C333.799 321.23 332.923 321.872 331.644 321.985Z" fill="#E49057"/>
<path fill-rule="evenodd" clip-rule="evenodd" d="M211.917 296.733C211.75 297.684 211.498 298.552 210.406 298.496C209.232 298.438 208.405 297.739 208.222 296.573C208.014 295.247 208.898 294.478 210.051 294.564C211.188 294.65 211.841 295.596 211.917 296.733Z" fill="#E38F55"/>
<path fill-rule="evenodd" clip-rule="evenodd" d="M339.92 329.643C339.75 330.688 339.058 331.097 338.106 330.907C337.186 330.722 336.58 329.982 336.512 329.102C336.436 328.113 337.165 327.482 338.117 327.53C339.345 327.592 340.051 328.315 339.92 329.643Z" fill="#E49259"/>
<path fill-rule="evenodd" clip-rule="evenodd" d="M199.521 309.405C198.279 309.249 197.482 308.563 197.407 307.319C197.338 306.159 198.291 305.832 199.181 305.887C200.117 305.945 200.86 306.583 200.916 307.569C200.968 308.469 200.69 309.331 199.521 309.405Z" fill="#E38D52"/>
<path fill-rule="evenodd" clip-rule="evenodd" d="M222.418 302.853C221.971 303.835 221.322 304.273 220.345 303.861C219.493 303.501 218.928 302.868 218.999 301.886C219.083 300.749 219.982 300.452 220.841 300.589C222.075 300.785 222.652 301.639 222.418 302.853Z" fill="#E49058"/>
<path fill-rule="evenodd" clip-rule="evenodd" d="M331.53 339.211C330.658 339.024 329.928 338.446 329.928 337.557C329.928 336.665 330.67 335.962 331.577 335.92C332.548 335.874 333.135 336.619 333.128 337.544C333.121 338.46 332.566 339.102 331.53 339.211Z" fill="#E69E6C"/>
<path fill-rule="evenodd" clip-rule="evenodd" d="M326 330.075C325.093 329.99 324.179 329.829 324.117 328.692C324.065 327.72 324.568 326.93 325.578 326.852C326.523 326.781 327.292 327.325 327.436 328.32C327.585 329.333 327.06 329.961 326 330.075Z" fill="#E5925A"/>
<path fill-rule="evenodd" clip-rule="evenodd" d="M211.878 305.041C211.722 305.949 211.283 306.719 210.3 306.681C209.382 306.645 208.654 305.945 208.672 305.045C208.689 304.166 209.387 303.442 210.319 303.41C211.303 303.375 211.763 304.107 211.878 305.041Z" fill="#E49057"/>
<path fill-rule="evenodd" clip-rule="evenodd" d="M353.043 339.344C353.204 340.191 352.637 340.558 351.997 340.759C351.033 341.061 350.256 340.719 349.959 339.733C349.713 338.914 350.362 338.527 351 338.33C351.955 338.033 352.687 338.357 353.043 339.344Z" fill="#E3884B"/>
<path fill-rule="evenodd" clip-rule="evenodd" d="M220.907 316.474C220.726 317.171 220.239 317.62 219.562 317.508C218.666 317.361 218.041 316.75 218.178 315.77C218.273 315.096 218.871 314.58 219.517 314.691C220.395 314.842 220.965 315.475 220.907 316.474Z" fill="#E38547"/>
<path fill-rule="evenodd" clip-rule="evenodd" d="M408.662 319.437C408.718 319.799 408.717 320.162 408.658 320.523C408.136 320.409 407.936 320.126 408.155 319.727C408.235 319.581 408.488 319.531 408.662 319.437Z" fill="#D4A689"/>
<path fill-rule="evenodd" clip-rule="evenodd" d="M266.681 299.804C267.562 293.364 268.16 287.312 270.205 281.565C270.696 280.185 271.414 278.287 273.524 279.243C275.053 279.936 274.68 281.402 274.252 282.744C272.473 288.331 271.626 294.096 271.048 299.908C270.897 301.431 271.227 303.384 268.891 303.314C266.188 303.234 266.587 301.162 266.681 299.804Z" fill="#E5E4E1"/>
</g>
<path fill-rule="evenodd" clip-rule="evenodd" d="M786.146 638.864C770.485 636.682 754.814 634.567 739.166 632.3C725.052 630.254 710.976 627.947 696.858 625.93C682.734 623.913 668.568 622.186 654.439 620.199C639.875 618.151 625.345 615.876 610.782 613.826C596.651 611.835 582.499 610.005 568.356 608.102C567.471 607.983 566.577 607.906 565.705 607.723C558.673 606.254 559.007 606.18 559.284 598.996C559.483 593.824 560.6 588.818 560.964 583.701C561.128 581.382 562.169 580.116 564.93 580.531C572.198 581.624 579.541 582.251 586.774 583.521C589.418 583.985 590.377 582.495 591.78 581.172C600.937 584.739 610.945 583.8 620.256 586.543C622.299 588.055 624.644 588.131 627.039 587.963C631.243 586.717 635.413 587.617 639.545 588.306C642.546 588.805 645.295 588.761 647.677 586.62C648.217 586.282 648.812 586.13 649.436 586.174C650.73 588.983 652.818 585.318 654.301 586.746C658.812 593.636 666.364 591.159 672.617 592.47C674.955 592.959 675.012 589.641 676.227 588.154C679.257 586.994 679.859 591.63 682.733 590.872C689.706 597.251 697.782 596.508 706.054 594.494C711.678 596.825 711.678 596.825 716.127 594.653C721.392 600.159 733.202 601.784 738.027 597.655C740.621 596.512 742.372 599.469 744.833 599.06C747.152 602.926 751.227 602.974 754.924 603.367C759.598 603.864 764.29 604.312 768.993 604.54C771.847 605.551 774.604 602.919 777.479 604.292C778.268 604.705 778.953 605.285 779.794 605.595C788.697 608.874 788.697 608.874 789.176 618.122C788.361 625.067 788.816 632.195 786.146 638.864Z" fill="#CDCDCD"/>
<path fill-rule="evenodd" clip-rule="evenodd" d="M649.665 586.603H648.565C645.555 584.723 642.639 582.752 638.815 582.749C637.146 582.747 635.113 582.532 634.837 580.093C638.12 580.067 640.479 579.078 642.6 576.032C653.077 560.979 663.951 546.201 674.639 531.293C693.796 504.574 712.938 477.843 732.049 451.09C744.012 434.345 755.911 417.556 767.829 400.78C770.937 396.403 774.043 392.023 777.085 387.599C779.31 384.363 782.19 382.671 786.216 383.248C794.167 384.39 802.125 385.486 810.075 386.639C823.986 388.657 837.895 390.694 851.803 392.74C862.839 394.364 873.867 396.046 884.906 397.646C898.599 399.632 912.304 401.54 925.998 403.521C936.158 404.992 946.307 406.541 956.464 408.028C967.722 409.676 978.976 411.365 990.254 412.869C992.511 413.17 994.708 413.389 996.661 414.602C1000.24 416.828 1000.97 419.379 998.713 423.047C993.551 431.432 988.309 439.771 982.97 448.043C968.041 471.175 953.016 494.246 938.085 517.376C917.692 548.97 897.334 580.587 877.016 612.228C875.464 614.647 873.703 617.061 873.509 620.124C867.42 622.776 861.627 621.385 855.92 618.853C855.748 618.404 855.638 617.719 855.868 617.642C863.902 614.986 866.884 607.672 870.941 601.365C907.585 544.417 944.074 487.373 980.526 430.303C985.04 423.236 983.868 420.312 975.482 418.872C953.823 415.152 931.999 412.5 910.233 409.5C881.805 405.578 853.366 401.71 824.923 397.895C814.034 396.435 803.112 395.177 792.29 393.288C785.521 392.107 781.39 395.124 777.807 400.505C757.796 430.556 736.855 459.973 716.459 489.765C695.939 519.739 675.187 549.555 654.551 579.45C652.912 581.826 652.108 584.783 649.665 586.603Z" fill="#CDCDCD"/>
<path fill-rule="evenodd" clip-rule="evenodd" d="M583.962 427.604C580.457 427.806 578.764 425.07 577.057 422.881C568.229 411.561 560.43 399.46 554.133 386.64C550.054 378.337 546.741 369.383 545.967 359.832C545.515 354.245 547.49 350.067 551.398 346.048C557.874 339.389 565.615 334.444 572.988 329.03C593.361 314.072 613.711 299.056 635.066 285.498C647.535 277.58 660.153 269.898 672.722 262.14C677.138 259.416 682.011 257.595 686.869 255.959C691.575 254.374 696.234 255.173 699.889 258.994C701.275 260.442 702.663 261.947 703.738 263.625C715.392 281.812 724.733 301.021 729.476 322.249C729.812 323.756 730.577 325.174 731.19 326.614C732.021 328.563 732.469 330.466 730.802 332.234C729.666 331.741 730.156 330.528 729.694 329.736C729.738 331.064 729.209 332.246 728.744 333.453C727.149 336.281 724.554 338.059 722.053 339.96C691.734 363.019 659.658 383.602 628.852 405.975C620.884 411.761 613.254 418.02 604.677 422.944C599 426.203 593.156 428.709 586.382 427.733L586.492 427.785C585.695 427.081 584.872 426.735 583.962 427.604Z" fill="#DADADB"/>
<path fill-rule="evenodd" clip-rule="evenodd" d="M855.748 617.702C861.519 619.604 867.603 619.207 873.509 620.124C875.982 621.953 875.999 624.647 876.131 627.348C876.384 632.521 875.6 637.593 874.761 642.658C873.734 648.857 871.459 650.694 865.104 649.873C854.03 648.442 842.992 646.748 831.935 645.203C816.674 643.072 801.409 640.975 786.146 638.864C784.648 631.674 787.381 624.728 787.381 617.625C788.738 606.899 788.738 606.899 799.727 609.255C800.466 609.377 801.189 609.563 801.906 609.773C811.966 610.681 822.042 611.402 832.043 612.86C839.982 614.296 848.388 613.453 855.748 617.702Z" fill="#616161"/>
<path fill-rule="evenodd" clip-rule="evenodd" d="M586.383 427.733C599.601 425.915 609.893 418.196 620.087 410.575C634.778 399.589 649.657 388.874 664.87 378.641C684.549 365.404 703.73 351.486 722.8 337.403C724.798 335.928 726.596 334.273 728.052 332.259C730.617 332.109 729.953 333.525 729.341 334.915C727.223 340.425 722.614 343.803 718.181 347.062C703.23 358.056 688.038 368.723 672.975 379.566C658.458 390.016 643.937 400.459 629.514 411.037C620.632 417.551 611.284 423.188 600.98 427.132C596.225 428.951 591.387 430.969 586.383 427.733Z" fill="#8E8E8E"/>
<path fill-rule="evenodd" clip-rule="evenodd" d="M620.257 586.542C617.844 589.244 615.295 586.726 612.86 586.606C607.837 586.36 602.805 585.823 597.845 584.999C595.482 584.606 592.274 584.827 591.781 581.172C591.886 580.806 591.986 580.438 592.083 580.068C592.251 579.401 592.761 579.002 593.25 578.586C600.621 575.988 608.041 577.027 615.35 578.656C619.226 579.52 619.686 583.237 620.257 586.542Z" fill="#919090"/>
<path fill-rule="evenodd" clip-rule="evenodd" d="M634.838 580.093C636.759 581.792 639.107 581.184 641.289 581.171C645.159 581.149 647.805 582.561 648.564 586.604C648.663 589.195 647.957 591.176 644.825 590.647C638.911 589.649 632.802 589.938 627.039 587.963C627.589 580.948 628 580.533 634.838 580.093Z" fill="#908F8F"/>
<path fill-rule="evenodd" clip-rule="evenodd" d="M729.342 334.915C729.177 333.901 729.127 332.829 728.052 332.257C728.109 332.046 728.119 331.804 728.229 331.626C728.782 330.739 728.835 329.468 730.118 329.136C730.346 330.168 730.573 331.2 730.802 332.233C730.545 333.252 730.278 334.265 729.342 334.915Z" fill="#A7A6A6"/>
<path fill-rule="evenodd" clip-rule="evenodd" d="M583.962 427.604C584.908 426.229 585.725 426.66 586.493 427.785C585.65 427.724 584.805 427.665 583.962 427.604Z" fill="#8E8E8E"/>
<path fill-rule="evenodd" clip-rule="evenodd" d="M593.249 578.586C592.86 579.08 592.47 579.573 592.081 580.068C592.087 579.273 592.5 578.797 593.249 578.586Z" fill="#CDCDCD"/>
<path fill-rule="evenodd" clip-rule="evenodd" d="M855.748 617.702C847.772 616.723 839.796 615.743 831.82 614.765C827.667 610.91 823.301 607.744 817.114 608.158C814.847 608.308 812.69 608.046 810.804 609.655C807.725 612.283 804.262 611.949 800.728 610.794L800.722 610.788C794.603 601.36 785.537 602.602 776.407 604.082C774.464 605.91 772.696 608.57 769.721 605.484C765.547 598.014 756.87 594.648 748.337 597.218C746.851 597.666 745.553 598.718 743.889 598.604C742.464 599.375 743.169 601.633 741.281 602.225C739.181 601.31 740.78 598.311 738.705 597.376C731.253 595.01 723.815 592.53 715.83 594.699C713.58 595.329 715.623 598.917 712.821 599.117C709.511 599.354 707.699 597.37 706.448 594.635C705.926 594.46 705.449 594.203 704.999 593.891C704.281 593.452 703.534 593.076 702.742 592.77C696.014 590.658 689.218 589.33 682.145 590.657C680.532 591.242 681.139 593.573 679.187 594.194C677.04 592.683 679.249 589.291 676.779 587.913C669.098 587.417 661.549 584.676 653.726 586.536C651.854 587.488 653.033 589.868 651.625 591.072C649.395 590.25 650.083 588.185 649.666 586.603C649.562 584.004 650.651 581.83 652.081 579.765C665.314 560.642 678.564 541.531 691.769 522.389C710.179 495.701 728.522 468.967 746.957 442.295C757.889 426.478 769.04 410.81 779.849 394.911C781.804 392.032 783.965 391.235 787.1 391.312C796.064 391.53 804.783 393.648 813.652 394.62C821.844 395.517 829.972 396.977 838.146 398.06C850.296 399.671 862.451 401.205 874.568 403.093C886.24 404.912 898.019 406.033 909.737 407.577C920.345 408.977 930.934 410.529 941.532 412.025C949.916 413.208 958.283 414.546 966.689 415.545C971.143 416.073 975.512 416.901 979.824 418.045C985.14 419.453 986.856 423.352 984.093 428.072C981.269 432.895 978.2 437.577 975.175 442.28C962.228 462.41 949.244 482.514 936.3 502.647C914.165 537.076 892.048 571.516 869.94 605.963C868.854 607.657 867.818 609.403 866.96 611.219C864.702 615.999 861.14 618.397 855.748 617.702Z" fill="#EDF6FC"/>
<path fill-rule="evenodd" clip-rule="evenodd" d="M743.889 598.604C745.299 595.644 747.675 594.672 750.896 594.605C755.609 594.508 760.156 595.563 764.75 596.185C768.856 596.741 769.672 598.694 769.72 605.484C764.038 607.436 758.502 604.808 752.872 604.916C751.584 604.94 750.254 604.113 749 604.239C744.597 604.683 743.716 602.177 743.889 598.604Z" fill="#909090"/>
<path fill-rule="evenodd" clip-rule="evenodd" d="M653.726 586.536C654.612 585.889 655.439 584.792 656.396 584.665C663.488 583.722 670.464 583.846 676.779 587.913C676.779 589.022 676.753 590.134 676.785 591.242C676.859 593.811 675.558 594.988 673.088 594.633C667.401 593.814 661.717 592.954 656.058 591.956C652.751 591.372 654.134 588.509 653.726 586.536Z" fill="#909090"/>
<path fill-rule="evenodd" clip-rule="evenodd" d="M715.831 594.699C716.559 593.902 717.232 592.477 718.025 592.408C725.441 591.755 732.826 591.543 738.706 597.377C738.08 603.129 737.884 603.266 732.426 602.266C728.554 601.556 724.681 600.412 720.796 600.354C716.525 600.29 715.392 598.42 715.831 594.699Z" fill="#919090"/>
<path fill-rule="evenodd" clip-rule="evenodd" d="M706.183 593.535C706.252 593.906 706.339 594.273 706.446 594.635C706.27 597.076 705.954 599.112 702.499 598.189C697.304 596.802 691.866 597.067 686.553 596.3C682.493 595.713 681.715 594.024 682.144 590.657C683.661 588.733 685.728 587.779 688.067 588.206C693.751 589.24 699.756 588.92 704.972 592.024C705.452 592.467 705.965 592.883 706.183 593.535Z" fill="#919090"/>
<path fill-rule="evenodd" clip-rule="evenodd" d="M776.406 604.082C777.613 601.924 779.538 601.085 781.916 601.099C783.46 601.107 785.02 601.304 786.548 601.15C793.997 600.407 798.893 603.321 800.723 610.788C798.281 611.099 796.034 610.22 793.701 609.764C790.323 609.103 788.354 609.666 788.564 613.39C788.648 614.886 788.652 616.461 787.381 617.625C787.312 616.735 787.202 615.847 787.181 614.957C787.039 608.816 787.056 608.646 780.939 608.253C778.002 608.064 776.154 607.399 776.406 604.082Z" fill="#908F8F"/>
<path fill-rule="evenodd" clip-rule="evenodd" d="M725.897 321.814C725.527 324.561 723.893 326.451 721.92 327.951C710.896 336.324 699.889 344.724 688.726 352.91C674.498 363.34 660.292 373.817 645.77 383.829C630.13 394.61 614.898 406.074 597.82 414.631C591.751 417.673 589.974 417.042 586.75 410.861C577.531 393.192 568.327 375.514 559.135 357.83C557.664 355.004 557.293 352.17 560.224 350.04C570.358 342.674 578.984 333.549 588.891 325.87C599.701 317.488 611.317 310.383 622.551 302.683C638.997 291.411 656.657 282.168 673.86 272.159C679.452 268.905 685.688 266.691 690.617 262.355C692.727 260.5 694.17 261.298 695.751 262.925C698.765 266.029 700.571 269.946 702.572 273.643C709.183 285.85 715.44 298.25 721.859 310.562C723.736 314.164 724.846 318.025 725.897 321.814Z" fill="#EDF6FC"/>
<path fill-rule="evenodd" clip-rule="evenodd" d="M800.728 610.794C804.072 610.619 807.243 611.692 810.04 607.75C813.045 603.518 827.335 606.559 829.892 611.296C830.519 612.46 831.177 613.609 831.82 614.764C822.641 613.78 813.536 612.004 804.243 612.237C802.896 612.271 801.585 612.037 800.728 610.794Z" fill="#908E8E"/>
<path fill-rule="evenodd" clip-rule="evenodd" d="M795.498 450.729C802.5 452.128 809.612 452.69 816.685 453.566C825.739 454.686 834.84 455.677 843.774 457.455C853.647 459.419 863.718 459.491 873.579 461.322C878.585 462.251 880.026 463.535 879.511 466.691C878.821 470.915 875.636 474.019 871.664 473.279C862.45 471.562 853.084 471.27 843.823 469.941C835.029 468.678 826.138 467.751 817.278 466.767C809.533 465.906 801.777 465.103 794.062 464.015C788.649 463.25 785.516 460.166 785.988 456.69C786.427 453.457 790.919 450.64 795.498 450.729Z" fill="#DADADB"/>
<path fill-rule="evenodd" clip-rule="evenodd" d="M850.301 499.081C844.442 499.448 838.772 497.842 832.983 497.367C822.784 496.53 812.649 494.91 802.478 493.702C794.068 492.702 785.632 491.923 777.237 490.822C775.077 490.539 772.9 489.652 770.962 488.614C768.789 487.451 768.185 485.27 768.387 482.83C768.586 480.433 770.046 479.492 772.14 478.71C774.958 477.657 777.815 477.219 780.717 477.597C788.887 478.664 797.029 479.942 805.192 481.056C816.669 482.623 828.176 483.985 839.631 485.7C844.957 486.497 850.255 486.964 855.635 487.092C859.798 487.192 861.199 488.777 861.326 492.167C861.482 496.294 859.648 498.62 855.684 499.044C853.909 499.234 852.096 499.076 850.301 499.081Z" fill="#DADADB"/>
<path fill-rule="evenodd" clip-rule="evenodd" d="M816.876 543.344C816.934 547.948 813.79 550.596 808.927 550.025C794.108 548.287 779.25 546.823 764.486 544.713C753.671 543.167 742.823 542.018 731.978 540.789C731.756 540.763 731.53 540.755 731.31 540.715C727.076 539.917 723.918 537.028 723.971 534.006C724.028 530.82 727.756 527.451 732.156 527.503C736.589 527.555 741.021 528.361 745.436 528.965C754.258 530.17 763.064 531.489 771.884 532.715C779.166 533.728 786.576 534.168 793.712 535.805C799.881 537.22 806.221 536.095 812.301 538.035C816.057 539.233 816.827 539.653 816.876 543.344Z" fill="#DADADB"/>
<path fill-rule="evenodd" clip-rule="evenodd" d="M757.747 501.892C760.363 502.443 763.894 502.879 767.436 503.312C784.015 505.334 800.619 507.308 817.066 510.149C823.255 511.217 829.548 510.502 835.655 512.367C840.464 513.836 841.532 514.517 841.098 518.884C840.761 522.29 837.759 525.123 834.081 524.45C824.419 522.681 814.584 522.644 804.896 521.025C795.679 519.485 786.292 518.977 776.992 517.898C769.69 517.052 762.4 516.082 755.123 515.035C753.843 514.851 752.56 514.165 751.445 513.451C747.123 510.683 747.015 506.552 751.21 503.743C752.878 502.626 754.708 501.693 757.747 501.892Z" fill="#DADADB"/>
<path fill-rule="evenodd" clip-rule="evenodd" d="M870.342 498.744C870.509 493.835 872.574 492.172 877.167 493.145C880.651 493.883 884.132 494.627 887.596 495.449C890.118 496.047 892.301 497.09 892.204 500.237C892.111 503.23 889.882 505.622 886.515 505.549C882.523 505.463 878.523 504.915 874.564 504.317C871.425 503.842 870.011 501.775 870.342 498.744Z" fill="#225DF4"/>
<path fill-rule="evenodd" clip-rule="evenodd" d="M900.561 479.093C898.445 478.788 895.517 478.588 892.705 477.905C888.548 476.896 887.348 474.625 888.314 470.422C889.087 467.056 890.802 466.035 894.935 466.795C898.456 467.442 901.931 468.344 905.44 469.067C908.131 469.623 910.084 470.796 909.911 473.923C909.742 476.961 907.581 478.856 904.038 479.085C903.146 479.143 902.247 479.093 900.561 479.093Z" fill="#1F5AF4"/>
<path fill-rule="evenodd" clip-rule="evenodd" d="M839.579 555.708C836.195 555.684 832.853 555.203 829.628 554.275C826.399 553.347 825.48 551.208 826.208 547.375C826.832 544.088 828.381 542.818 831.916 543.371C835.888 543.994 839.795 545.022 843.735 545.857C846.507 546.445 848.276 547.921 847.787 550.964C847.357 553.638 845.823 555.453 842.932 555.693C841.822 555.786 840.698 555.708 839.579 555.708Z" fill="#205CF4"/>
<path fill-rule="evenodd" clip-rule="evenodd" d="M862.682 530.23C860.513 529.921 857.584 529.724 854.765 529.053C850.57 528.055 849.39 525.837 850.358 521.59C851.127 518.212 852.884 517.189 856.959 517.972C860.477 518.649 863.96 519.497 867.463 520.254C870.083 520.822 872.192 521.881 871.998 525.062C871.813 528.104 869.637 529.998 866.108 530.222C865.216 530.278 864.316 530.23 862.682 530.23Z" fill="#215CF4"/>
<path fill-rule="evenodd" clip-rule="evenodd" d="M706.183 593.535C705.78 593.031 705.377 592.528 704.973 592.024C705.716 592.257 706.139 592.746 706.183 593.535Z" fill="#CDCDCD"/>
<path fill-rule="evenodd" clip-rule="evenodd" d="M656.149 345.086C656.013 346.877 655.173 347.622 654.086 347.97C652.939 348.338 651.893 347.976 651.212 346.891C648.852 343.124 646.42 339.399 644.157 335.574C640.759 329.834 637.481 324.024 634.155 318.242C633.932 317.856 633.707 317.47 633.518 317.067C632.584 315.067 631.046 312.588 633.534 311.17C636.014 309.756 637.571 312.283 638.717 314.142C641.749 319.06 644.65 324.062 647.536 329.07C649.757 332.923 651.9 336.821 654.028 340.727C654.87 342.276 655.576 343.901 656.149 345.086Z" fill="#DBDBDC"/>
<path fill-rule="evenodd" clip-rule="evenodd" d="M641.5 354.825C641.641 356.886 640.962 358.037 639.573 358.502C638.381 358.901 637.426 358.153 636.798 357.153C634.791 353.95 632.77 350.756 630.849 347.501C626.894 340.799 622.931 334.1 619.134 327.309C618.248 325.725 616.263 323.527 618.573 321.996C621.155 320.285 623.057 322.052 624.434 324.474C627.402 329.692 630.544 334.81 633.5 340.033C635.691 343.904 637.244 348.118 639.957 351.715C640.741 352.756 641.142 354.083 641.5 354.825Z" fill="#DBDBDC"/>
<path fill-rule="evenodd" clip-rule="evenodd" d="M626.763 366.047C626.682 367.569 626.209 368.536 625.132 369.108C623.917 369.752 622.866 369.213 622.238 368.258C619.916 364.73 617.634 361.169 615.476 357.538C611.954 351.611 608.53 345.625 605.092 339.647C604.426 338.489 603.855 337.274 603.297 336.058C602.703 334.765 602.432 333.344 603.888 332.533C605.094 331.86 606.621 331.922 607.68 332.861C608.65 333.721 609.401 334.889 610.056 336.033C615.358 345.299 620.624 354.586 625.874 363.881C626.305 364.643 626.547 365.511 626.763 366.047Z" fill="#DBDBDC"/>
<path fill-rule="evenodd" clip-rule="evenodd" d="M669.831 335.726C669.727 336.949 669.079 337.866 667.973 338.27C666.759 338.715 665.794 338.056 665.163 337.057C663.149 333.859 661.135 330.66 659.218 327.403C655.158 320.506 651.113 313.598 647.174 306.632C646.361 305.191 644.811 303.256 646.77 301.859C648.995 300.274 651.018 301.394 652.322 303.616C655.584 309.177 658.857 314.734 662.019 320.351C664.202 324.227 665.881 328.374 668.517 332.014C669.269 333.054 669.975 334.283 669.831 335.726Z" fill="#DBDBDC"/>
<path fill-rule="evenodd" clip-rule="evenodd" d="M632.83 379.545C632.736 381.753 630.671 382.867 629.305 381.876C627.254 380.39 626.009 378.25 625.574 375.764C625.359 374.539 626.246 373.703 627.306 373.172C628.527 372.559 629.595 373.029 630.171 374.058C631.25 375.989 632.113 378.04 632.83 379.545Z" fill="#3368F5"/>
<path fill-rule="evenodd" clip-rule="evenodd" d="M657.214 351.824C658.811 351.828 659.582 352.942 660.013 354.191C660.694 356.164 662.713 357.842 661.505 360.272C661.415 360.452 661.189 360.57 661.018 360.707C660 361.533 658.877 361.459 658.099 360.559C656.398 358.595 654.407 356.651 654.8 353.73C654.954 352.575 656.058 352.022 657.214 351.824Z" fill="#316AF5"/>
<path fill-rule="evenodd" clip-rule="evenodd" d="M647.418 369.429C647.115 371.106 646.053 371.584 644.514 371.196C644.102 371.093 643.582 370.893 643.379 370.569C642.027 368.406 639.498 366.608 640.735 363.545C641.165 362.482 642.306 361.926 643.488 362.119C644.868 362.345 647.567 367.517 647.418 369.429Z" fill="#3368F5"/>
<path fill-rule="evenodd" clip-rule="evenodd" d="M675.776 349.103C675.604 350.144 675.261 350.969 674.24 351.121C671.293 351.561 670.66 349.054 669.521 347.273C668.505 345.683 667.968 344.01 669.857 342.599C670.836 341.868 671.978 341.673 672.821 342.662C674.424 344.543 675.278 346.815 675.776 349.103Z" fill="#3468F5"/>
</svg>
