<svg xmlns="http://www.w3.org/2000/svg" xmlns:xlink="http://www.w3.org/1999/xlink" width="111.5" height="108.8" viewBox="0 0 111.5 108.8"><defs><style>.a,.d{fill:#fff;}.a{stroke:#707070;}.b{clip-path:url(#a);}.c,.e,.g,.h,.i,.j,.k,.l,.n{fill:none;}.c,.h,.i,.j,.k{stroke:#3b5fa9;}.c,.e,.g,.h,.i,.j,.k{stroke-miterlimit:10;}.c{stroke-width:2.716px;}.e,.g,.l{stroke:#273375;}.e{stroke-linecap:round;}.e,.g{stroke-linejoin:round;stroke-width:2.034px;}.f{fill:#3b5fa9;}.h,.i,.j,.k{stroke-width:2.542px;}.h{stroke-dasharray:5.328 5.328;}.i{stroke-dasharray:5.049 5.049;}.j{stroke-dasharray:5.261 5.261;}.k{stroke-dasharray:5.058 5.058;}.l{stroke-width:5px;}.m{stroke:none;}</style><clipPath id="a"><path d="M14.7,53.4c0,29.527,23.644,53.4,52.75,53.4,29.168,0,52.75-23.936,52.75-53.4C120.2,23.873,96.556,0,67.45,0S14.7,23.936,14.7,53.4" transform="translate(-14.7)"/></clipPath></defs><g transform="translate(2.5 2)"><g class="a" transform="translate(0.5 0)"><ellipse class="m" cx="50.75" cy="51.401" rx="50.75" ry="51.401"/><ellipse class="n" cx="50.75" cy="51.401" rx="50.25" ry="50.901"/></g><g transform="translate(3.5)"><g class="b"><line class="c" x1="0.372" y2="1.005" transform="translate(42.2 44.605)"/></g><g class="b"><path class="d" d="M6.485,64.562s29.23,9.549,31.029,8.042c1.862-1.571,3.475-5.026,11.853-5.529,8.936-.5,28.982-4.649,29.974-2.764,1.924,3.707-6.454,8.356-9.371,8.356s-7.137.188-7.571,1.885c-.621,2.513,11.481,7.476,12.908,7.916,1.489.44,17.252,7.036,17,9.8-.186,1.508-1.986,3.016-1.986,3.016s3.848,1.885,3.289,3.832a3.233,3.233,0,0,1-2.42,2.324s.621,2.073-.5,3.267c-1.055,1.194-7.944-.377-7.944-.377s.559,2.262-.124,2.89c-1.365,1.256-15.7,1-23.458-.44S43.907,104.2,38.2,99.618A31.473,31.473,0,0,0,22.062,92.9S8.285,92.771.9,94.341" transform="translate(-9.464 -23.727)"/></g><g class="b"><path class="e" d="M69.165,87.242l21.224,7.916m-23.644.126,24.575,6.031m-26.809.063L82.88,104.2M6.485,64.562s29.23,9.549,31.029,8.042c1.862-1.571,3.475-5.026,11.853-5.529,8.936-.5,28.982-4.649,29.974-2.764,1.924,3.707-6.454,8.356-9.371,8.356s-7.137.188-7.571,1.885c-.621,2.513,11.481,7.476,12.908,7.916,1.489.44,17.252,7.036,17,9.8-.186,1.508-1.986,3.016-1.986,3.016s3.848,1.885,3.289,3.832a3.233,3.233,0,0,1-2.42,2.324s.621,2.073-.5,3.267c-1.055,1.194-7.944-.377-7.944-.377s.559,2.262-.124,2.89c-1.365,1.256-15.7,1-23.458-.44S43.907,104.2,38.2,99.618A31.473,31.473,0,0,0,22.062,92.9S8.285,92.771.9,94.341" transform="translate(-9.464 -23.727)"/></g><g class="b"><path class="f" d="M57.1,75.137s2.731-7.288,6.144-7.036,3.475,4.021,3.475,4.021A3.607,3.607,0,0,1,69.073,69.8a5.971,5.971,0,0,1,3.6-.251s-.5-3.141,2.358-3.958a4.825,4.825,0,0,1,3.661.251s1.551-3.832,4.53-1.948a3.771,3.771,0,0,1,1.862,4.586s4.282-.377,5.4.88,1.986,5.968,1.986,5.968l3.91,6.722a3.691,3.691,0,0,1,2.3,3.769c-.372,2.639-2.3,2.953-2.3,2.953s2.358,2.387,1.365,4.963a4.151,4.151,0,0,1-3.724,2.576s2.11,2.7.5,5.089c-1.489,2.2-4.344,1.633-4.344,1.633a3.2,3.2,0,0,1-1.427,2.7,3.162,3.162,0,0,1-3.041-.063,7.83,7.83,0,0,1-3.041,2.262c-3.351,1.005-6.02-1.948-6.02-1.948L53,92.162Z" transform="translate(-29.231 -23.558)"/></g><g class="b"><path class="g" d="M57.1,75.137s2.731-7.288,6.144-7.036,3.475,4.021,3.475,4.021A3.607,3.607,0,0,1,69.073,69.8a5.971,5.971,0,0,1,3.6-.251s-.5-3.141,2.358-3.958a4.825,4.825,0,0,1,3.661.251s1.551-3.832,4.53-1.948a3.771,3.771,0,0,1,1.862,4.586s4.282-.377,5.4.88,1.986,5.968,1.986,5.968l3.91,6.722a3.691,3.691,0,0,1,2.3,3.769c-.372,2.639-2.3,2.953-2.3,2.953s2.358,2.387,1.365,4.963a4.151,4.151,0,0,1-3.724,2.576s2.11,2.7.5,5.089c-1.489,2.2-4.344,1.633-4.344,1.633a3.2,3.2,0,0,1-1.427,2.7,3.162,3.162,0,0,1-3.041-.063,7.83,7.83,0,0,1-3.041,2.262c-3.351,1.005-6.02-1.948-6.02-1.948L53,92.162Z" transform="translate(-29.231 -23.558)"/></g><g class="b"><path class="d" d="M33.9,107.778s7.819-7.6,7.261-9.989-2.855-5.4.434-13.193c3.538-8.3,8.875-28.334,11.047-28.4,4.1-.126,4.468,9.549,3.165,12.188s-3.041,6.534-1.738,7.665c1.924,1.7,11.729-7.036,12.784-8.167s13.964-12.441,16.26-11c1.241.817,1.8,3.141,1.8,3.141s3.351-2.639,4.841-1.256a3.282,3.282,0,0,1,.931,3.2s2.11.377,2.669,1.885-3.91,7.036-3.91,7.036,2.3.5,2.544,1.382c.5,1.822-6.144,14.7-10.922,21.046s-9.123,12.691-15.7,15.769A30.962,30.962,0,0,0,52.207,120.72" transform="translate(-21.985 -20.892)"/></g><g class="b"><path class="e" d="M68.343,75.8,84.85,60.094M74.362,81.58,90.684,62.1M78.707,86.355,89.443,71.026M33.9,107.778s7.819-7.6,7.261-9.989-2.855-5.4.434-13.193c3.538-8.3,8.875-28.334,11.047-28.4,4.1-.126,4.468,9.549,3.165,12.188s-3.041,6.534-1.738,7.665c1.924,1.7,11.729-7.036,12.784-8.167s13.964-12.441,16.26-11c1.241.817,1.8,3.141,1.8,3.141s3.351-2.639,4.841-1.256a3.282,3.282,0,0,1,.931,3.2s2.11.377,2.669,1.885-3.91,7.036-3.91,7.036,2.3.5,2.544,1.382c.5,1.822-6.144,14.7-10.922,21.046s-9.123,12.691-15.7,15.769A30.962,30.962,0,0,0,52.207,120.72" transform="translate(-21.985 -20.892)"/></g><g class="b"><line class="h" x1="19.487" y2="31.098" transform="translate(32.705 3.644)"/></g><g class="b"><line class="i" x1="14.336" y2="38.574" transform="translate(42.945 5.026)"/></g><g class="b"><line class="j" x1="2.731" y2="29.59" transform="translate(59.142 4.586)"/></g><g class="b"><line class="k" x2="8.936" y2="59.683" transform="translate(67.83 6.157)"/></g></g><ellipse class="l" cx="50.25" cy="50.901" rx="50.25" ry="50.901" transform="translate(0 0.5)"/></g></svg>