<svg xmlns="http://www.w3.org/2000/svg" xmlns:xlink="http://www.w3.org/1999/xlink" width="105.5" height="106.801" viewBox="0 0 105.5 106.801"><defs><style>.a{fill:#fff;stroke:#707070;}.b{clip-path:url(#a);}.c{fill:#273375;}.d{fill:#3b5fa9;}.e,.f,.h{fill:none;}.e,.f{stroke:#273375;}.e{stroke-miterlimit:10;stroke-width:2.034px;}.f{stroke-width:5px;}.g{stroke:none;}</style><clipPath id="a"><path d="M.8,50a50,50,0,1,0,50-50A50,50,0,0,0,.8,50" transform="translate(-0.8)"/></clipPath></defs><g transform="translate(-1426 -1690)"><g class="a" transform="translate(1429 1692)"><ellipse class="g" cx="50.75" cy="51.401" rx="50.75" ry="51.401"/><ellipse class="h" cx="50.75" cy="51.401" rx="50.25" ry="50.901"/></g><g transform="translate(1428.2 1694.302)"><g class="b" transform="translate(0.8)"><path class="c" d="M41.471,98.929c1.353,1.529,2.941,1.471,4.294-.294.471-.647,1.059-1.294.706-2.118a2.471,2.471,0,0,0-2.118-1.176h-.235a.721.721,0,0,0-.824.471c-.529,1-1.176,2-1.824,3.118M18.353,87.871a.812.812,0,0,1-.235.176,18.673,18.673,0,0,0,.824,2.353,4.65,4.65,0,0,0,4.294,3,23.72,23.72,0,0,0,3.529-.235,2.429,2.429,0,0,0,1.118-.529,1.086,1.086,0,0,0,.235-1.706,3.148,3.148,0,0,0-2.706-1.412c-.765,0-1.588.118-2.353.118a3.442,3.442,0,0,1-1.294-.294,19.267,19.267,0,0,1-3.412-1.471m14.941,9.706c.235.118.353.235.471.235,2.059.059,4.118.176,6.176.176a1.853,1.853,0,0,0,1.588-1.118c.412-.824.941-1.588,1.294-2.412a13.064,13.064,0,0,0,.647-2.294,1.121,1.121,0,0,0-.706-1.294,3.927,3.927,0,0,0-2.824-.412,1.825,1.825,0,0,0-1.294,1.235,25.409,25.409,0,0,1-1.118,2.647,5.643,5.643,0,0,1-3,2.824c-.294.118-.706.235-1.235.412m-8.824-2.824A3.258,3.258,0,0,0,27.235,96.4a48.034,48.034,0,0,0,5.059.118,5.465,5.465,0,0,0,5.353-4.353,2.481,2.481,0,0,0-.941-2.294,1.541,1.541,0,0,0-2.059.118,12.93,12.93,0,0,0-1.529,1.588A4.513,4.513,0,0,1,29.529,93.4a.53.53,0,0,0-.294.059,11.306,11.306,0,0,1-4.765,1.294M97.235,44.459a153.31,153.31,0,0,1-17.882,5.471c-4.529,1.059-9.118,1.765-13.647,2.706A108.565,108.565,0,0,0,50.294,57.4c-2.765,1.059-5.529,2.118-8.294,3.118a23.078,23.078,0,0,1-6.941,1.353,11.763,11.763,0,0,0-6.118,1.941c-.353.235-.765.471-1.176.706a10.22,10.22,0,0,1-4.824,1.765,1.787,1.787,0,0,0-1.824,1.176,2.164,2.164,0,0,0,.706,2.294,6.813,6.813,0,0,0,4,1.706,22.057,22.057,0,0,0,11.824-1.529,50.574,50.574,0,0,1,6.588-2.118,14.158,14.158,0,0,1,7.824.294,25.557,25.557,0,0,0,9.412,1.353c.824-.059,1.706-.176,2.529-.235.471-.059.765,0,.882.529s-.294.588-.706.647c-1.353.118-2.706.235-4.176.353a24.281,24.281,0,0,0,4.824,4.412c1.647,1.176,3.294,2.294,5,3.471a.871.871,0,0,0,.765.118,55.047,55.047,0,0,0,8.353-4.118A7.856,7.856,0,0,0,83,69.165c.059-.412.235-.882.824-.765.647.176.529.647.412,1.118-.176.706-.412,1.353-.647,2.118.118,0,.176.059.235,0a113.33,113.33,0,0,1,17.118-3.529c.471-.059.941-.118,1.471-.176l.059,1.118a122.518,122.518,0,0,0-17.176,3.176,8.661,8.661,0,0,0-3.647,1.882A31.8,31.8,0,0,1,71.941,79.4c-.176.059-.294.118-.471.176-.059,0-.059.059-.176.118.529.412,1.059.765,1.529,1.176,1.412,1.235,2.235,2.706,1.706,4.647a4.445,4.445,0,0,1-4.706,3.176c-.882,2.647-2.118,3.588-5.059,3.647a.974.974,0,0,0-.706.294c-1.176,2.353-3.235,3-5.647,2.882-.588,0-1.176-.176-1.824-.235-.471,1.706-1.941,2.059-3.471,2.353-1.765.353-3.588.706-5.294,0a25.812,25.812,0,0,1-1.941,2.353,3.328,3.328,0,0,1-4.059.765,4.906,4.906,0,0,1-1.235-.941,1.777,1.777,0,0,0-1.647-.588,28.543,28.543,0,0,1-3.882.118,4.883,4.883,0,0,1-3.529-1.412.986.986,0,0,0-.706-.176c-1.294-.059-2.588,0-3.882-.118A4.523,4.523,0,0,1,23,94.988a1.055,1.055,0,0,0-.412-.294c-3.353-.588-4.882-2.941-5.471-6.059a1.7,1.7,0,0,0-1.471-1.588A70.287,70.287,0,0,0,3.529,85.106l-.294-1.176c1.941.118,3.882.412,5.882.706a44.05,44.05,0,0,1,10.235,2.471c1.059.412,2.059,1,3.118,1.471a2.48,2.48,0,0,0,1.118.176,20.781,20.781,0,0,1,2.706-.059c1.882.294,2.941,1.529,3.471,4a13.341,13.341,0,0,0,1.824-1A8.717,8.717,0,0,0,33,90.165c1.882-2.118,3.471-2.118,5.353,0,1.412-1.176,3-1,4.529-.471,1.412.471,1.882,1.588,1.529,3.235-.118.471-.235.882-.294,1.118,1,.412,1.941.765,2.824,1.176a1.832,1.832,0,0,1,.824.941.884.884,0,0,0,.882.647,13.061,13.061,0,0,0,5-.471,2.564,2.564,0,0,0,1.765-1.471c-1.471-.529-2.941-1-4.412-1.529-1-.353-1.941-.824-2.941-1.235-.176-.059-.235-.294-.353-.471.176-.059.412-.235.588-.176l4.765,1.235c1.824.471,3.588,1.118,5.412,1.412a7.007,7.007,0,0,0,2.882-.412,2.525,2.525,0,0,0,1.529-1.647,9.338,9.338,0,0,1-1.176-.412,48.745,48.745,0,0,1-9.471-4.647c-.294-.176-.824-.353-.529-.824.059-.118.647-.059.941.059,3.176,1.412,6.235,2.882,9.412,4.176a10.108,10.108,0,0,0,3.529.588,2.979,2.979,0,0,0,2.765-1.882c.353-.882.294-1.059-.529-1.471a99.989,99.989,0,0,1-11.647-7.412,4.121,4.121,0,0,1-.588-.471c-.353-.294-.824-.529-.412-1.118.412-.471.765-.118,1.118.118,1.059.765,2.118,1.471,3.235,2.235a80.088,80.088,0,0,0,10.588,6.353,1.738,1.738,0,0,0,.765.118A2.992,2.992,0,0,0,73.353,85.4a3.075,3.075,0,0,0-.706-3.294,22.953,22.953,0,0,0-3-2.353,61.88,61.88,0,0,1-8.059-5.941c-.941-.882-1.765-1.941-2.647-2.941-.118-.176-.294-.353-.471-.353-2.588-.588-5.118-1.059-7.706-1.647a16.14,16.14,0,0,0-9.294.824c-1.647.529-3.176,1.235-4.765,1.824a18.851,18.851,0,0,1-12.824.529,9.91,9.91,0,0,1-2.706-1.412A2.956,2.956,0,0,1,20,67.282a2.815,2.815,0,0,1,2.529-2.118,13.223,13.223,0,0,0,5.882-2.353A11.415,11.415,0,0,1,35,60.694a29.732,29.732,0,0,0,9.824-2.412,163.925,163.925,0,0,1,16.647-5.824,3.747,3.747,0,0,1,.412-.118c-2.176-1.471-4.353-2.882-7.059-2.176a91.109,91.109,0,0,1-10.529,1.647,27.754,27.754,0,0,0-8.588,3.059c-2.176,1.059-4.294,2.176-6.471,3.235a23.316,23.316,0,0,1-11.471,2.235c-6.706-.294-10.118-.412-16.706-.765a1.813,1.813,0,0,1-.588-.059A1.325,1.325,0,0,1,0,58.694c0-.118.412-.471.647-.412,1.294.059-.647,0,.647.059,5.706.294,11.471.529,17.176.706a25.165,25.165,0,0,0,12.941-3.353c1.824-1,3.706-1.882,5.588-2.824a26.707,26.707,0,0,1,7.647-2.294c3.471-.529,6.941-1.118,10.412-1.647a6.861,6.861,0,0,1,5.529,1.294,5.8,5.8,0,0,0,5.588,1.118c4.118-1,8.294-1.588,12.471-2.412a122.015,122.015,0,0,0,15.176-4.588c.882-.294,1.765-.647,2.647-.941Z" transform="translate(-0.471 -17.871)"/></g><g class="b" transform="translate(0.8)"><path class="d" d="M36.8,94.976,62.565,60.329,39.153,28.8h5L65.565,57.447,86.976,28.8h5.235L68.565,60.447,94.447,94.976h-5L65.682,63.212,41.918,94.976Z" transform="translate(-15.624 -11.859)"/></g><g class="b" transform="translate(0.8)"><path class="e" d="M36.8,94.976,62.565,60.329,39.153,28.8h5L65.565,57.447,86.976,28.8h5.235L68.565,60.447,94.447,94.976h-5L65.682,63.212,41.918,94.976Z" transform="translate(-15.624 -11.859)"/></g></g><ellipse class="f" cx="50.25" cy="50.901" rx="50.25" ry="50.901" transform="translate(1428.5 1692.5)"/></g></svg>