<svg xmlns="http://www.w3.org/2000/svg" xmlns:xlink="http://www.w3.org/1999/xlink" width="105.5" height="106.801" viewBox="0 0 105.5 106.801"><defs><style>.a,.f{fill:#fff;}.a{stroke:#707070;}.b{clip-path:url(#a);}.c,.e,.g,.h,.i,.j,.l{fill:none;}.c{stroke:#3b5fa9;stroke-width:0.679px;}.c,.e,.g,.h,.i{stroke-miterlimit:10;}.d{fill:#3b5fa9;}.e,.g,.h,.i,.j{stroke:#273375;}.e,.h,.i{stroke-width:2.034px;}.g,.i{stroke-linecap:round;}.g{stroke-width:1.358px;}.h{stroke-linejoin:round;}.j{stroke-width:5px;}.k{stroke:none;}</style><clipPath id="a"><path d="M0,77.566A50.966,50.966,0,1,0,50.966,26.6,50.962,50.962,0,0,0,0,77.566" transform="translate(0 -26.6)"/></clipPath></defs><g transform="translate(-1426 -1690)"><g class="a" transform="translate(1429 1692)"><ellipse class="k" cx="50.75" cy="51.401" rx="50.75" ry="51.401"/><ellipse class="l" cx="50.75" cy="51.401" rx="50.25" ry="50.901"/></g><g transform="translate(1427.369 1665.77)"><g class="b" transform="translate(0 26.6)"><path class="c" d="M46.114,66.533s-7.675,0-11.512,6.416-3.238,7.915-3.238,7.915,4.2-5.336,8.274-3.478,5.1,2.338,5.1,2.338l-4.077,24.764-.24,8.035,68.654.48,1.019-4.2s3.118-2.7,5.936-5.1c2.758-2.458,8.934-4.617,8.934-4.617s-1.379-18.947-8.274-22.185a52.375,52.375,0,0,0-14.75-4.077l-5.816-.72S89.705,92.316,78.133,92.556c-11.632.24-22.545-15.59-22.545-15.59ZM37.84,40.75s4.437,10.673,5.7,15.59C44.8,61.2,46.414,68.212,48.273,71.21a49.138,49.138,0,0,0,5.1,6.416L65.781,87.4s3.957,5.936,11.033,4.857A25.881,25.881,0,0,0,93.663,81.823c3.118-4.737,1.979-7.915,1.979-7.915s-7.975-6.536-8.874-8.514a28.615,28.615,0,0,1-1.619-4.557,15.123,15.123,0,0,0,3.6-3.957c1.139-2.1.6-4.617,1.619-6.476s-1.859-4.737-3.718-4.2a40.732,40.732,0,0,0-5.456,2.7S71.178,41.35,70.878,40.57C70.518,39.731,47.853,26,47.853,26L40.9,27.979,38.679,31.1ZM33.1,79.185A28.625,28.625,0,0,1,29.985,82.9c-1.859,1.859-6.056,3.957-6.716,9.294-.72,5.336.6,10.913,3.118,13.011s4.737,1.379,7.795.9c3-.48,12.532-2.7,17.568-7.675C56.727,93.455,73.216,81.223,75.435,81.1s9.294,1.859,11.632,1.739,2.219-.959,4.977,0C94.8,83.742,99,85.061,99,85.061l2.219.9s3-3.6,3-4.557.6.72,1.5.12c.959-.6-.24-5.456-1.259-7.555a9.957,9.957,0,0,0-4.557-4.2c-1.259-.6-4.077-.959-4.737-1.979s-3.718-1.739-4.977-1.5S77.773,70.91,75.435,71.03s-10.793,2.458-13.371,3.358-17.328,5.1-17.328,5.1S38.08,74.568,33.1,79.185Z" transform="translate(-9.239 -26.36)"/></g><g class="b" transform="translate(0 26.6)"><path class="d" d="M52.027,93.2s-7.675,0-11.512,6.416-3.058,8.334-3.058,8.334,3.478-4.857,7.555-3,5.576,1.439,5.576,1.439l-4.077,24.764L45.491,154.3l67.155-4.5,3.3-14.211s3.118-2.7,5.936-5.1c2.758-2.458,8.934-4.617,8.934-4.617s-1.379-18.947-8.275-22.185a52.375,52.375,0,0,0-14.75-4.077l-5.816-.72S93.7,116.285,82.067,116.524s-20.626-12.772-20.626-12.772Z" transform="translate(-14.972 -53.267)"/></g><g class="b" transform="translate(0 26.6)"><path class="e" d="M52.027,93.2s-7.675,0-11.512,6.416-3.058,8.334-3.058,8.334,3.478-4.857,7.555-3,5.576,1.439,5.576,1.439l-4.077,24.764L45.491,154.3l67.155-4.5,3.3-14.211s3.118-2.7,5.936-5.1c2.758-2.458,8.934-4.617,8.934-4.617s-1.379-18.947-8.275-22.185a52.375,52.375,0,0,0-14.75-4.077l-5.816-.72S93.7,116.285,82.067,116.524s-20.626-12.772-20.626-12.772Z" transform="translate(-14.972 -53.267)"/></g><g class="b" transform="translate(0 26.6)"><path class="f" d="M47.3,40.55a60.483,60.483,0,0,1,3.6,12.891c.18,1.379,2.219,1.5,2.638,2.938,1.259,4.857,2.818,11.452,4.677,14.45a49.138,49.138,0,0,0,5.1,6.416l12.412,9.773s3.957,5.936,11.033,4.857A25.881,25.881,0,0,0,103.6,81.443c3.118-4.737,1.979-7.915,1.979-7.915s-8.035-6.476-8.934-8.454a29.8,29.8,0,0,1-1.439-3.957,23.994,23.994,0,0,0,3.118-4.077c1.139-2.1,1.319-4.257,1.679-6.9.3-2.1-1.5-4.377-3.418-4.2-2.758.24-5.456,2.7-5.456,2.7S81.118,41.09,80.818,40.31c-.36-.839-23.025-14.51-23.025-14.51l-6.955,1.979L48.619,30.9Z" transform="translate(-18.939 -26.28)"/></g><g class="b" transform="translate(0 26.6)"><path class="e" d="M47.3,40.55a60.483,60.483,0,0,1,3.6,12.891c.18,1.379,2.219,1.5,2.638,2.938,1.259,4.857,2.818,11.452,4.677,14.45a49.138,49.138,0,0,0,5.1,6.416l12.412,9.773s3.957,5.936,11.033,4.857A25.881,25.881,0,0,0,103.6,81.443c3.118-4.737,1.979-7.915,1.979-7.915s-8.035-6.476-8.934-8.454a29.8,29.8,0,0,1-1.439-3.957,23.994,23.994,0,0,0,3.118-4.077c1.139-2.1,1.319-4.257,1.679-6.9.3-2.1-1.5-4.377-3.418-4.2-2.758.24-5.456,2.7-5.456,2.7S81.118,41.09,80.818,40.31c-.36-.839-23.025-14.51-23.025-14.51l-6.955,1.979L48.619,30.9Z" transform="translate(-18.939 -26.28)"/></g><g class="b" transform="translate(0 26.6)"><path class="f" d="M33.4,105.973a28.624,28.624,0,0,1-3.118,3.718c-1.859,1.859-6.056,3.957-6.716,9.294-.72,5.336.6,10.913,3.118,13.011,2.578,2.1,4.737,1.379,7.795.9,3-.48,12.532-2.7,17.568-7.675,4.977-4.977,21.466-17.209,23.684-17.328s9.294,1.859,11.632,1.739,2.219-.9,4.977,0c7.015,1.739,6,3.118,7.5,3.358a2.206,2.206,0,0,0,1.979-.42c.48-.36,2.4-3.6,2.4-4.5,0-.06,1.2,1.859,2.039.18.54-1.079-.779-5.217-1.859-7.315a9.109,9.109,0,0,0-4.137-4.137,44.4,44.4,0,0,1-4.8-2.159,5.509,5.509,0,0,0-5.037-.9c-1.259.24-12.412,4.017-14.75,4.137s-10.793,2.458-13.371,3.358-17.328,5.1-17.328,5.1-6.536-4.977-11.572-.36" transform="translate(-9.359 -53.388)"/></g><g class="b" transform="translate(0 26.6)"><path class="e" d="M33.4,105.973a28.624,28.624,0,0,1-3.118,3.718c-1.859,1.859-6.056,3.957-6.716,9.294-.72,5.336.6,10.913,3.118,13.011,2.578,2.1,4.737,1.379,7.795.9,3-.48,12.532-2.7,17.568-7.675,4.977-4.977,21.466-17.209,23.684-17.328s9.294,1.859,11.632,1.739,2.219-.9,4.977,0c7.015,1.739,6,3.118,7.5,3.358a2.206,2.206,0,0,0,1.979-.42c.48-.36,2.4-3.6,2.4-4.5,0-.06,1.2,1.859,2.039.18.54-1.079-.779-5.217-1.859-7.315a9.109,9.109,0,0,0-4.137-4.137,44.4,44.4,0,0,1-4.8-2.159,5.509,5.509,0,0,0-5.037-.9c-1.259.24-12.412,4.017-14.75,4.137s-10.793,2.458-13.371,3.358-17.328,5.1-17.328,5.1S38.44,101.356,33.4,105.973Z" transform="translate(-9.359 -53.388)"/></g><g class="b" transform="translate(0 26.6)"><path class="g" d="M133.673,97.8s7.975,2.938,8.454,5.336,1.079,4.977.54,6.716a53.823,53.823,0,0,1-2.219,4.917M132.114,99s6.775,2.818,7.255,3.418,2.159,3.3,2.279,4.737,1.019,3.777.18,4.2c-.9.42-1.859.42-2.758-1.079-.54-.9-.6-1.5-1.259-2.758-.72-1.2-.779-2.039-1.979-2.458s-2.758,0-3.777-.06a20.323,20.323,0,0,1-2.039-.24,23.046,23.046,0,0,0-3.658,2.278c-.66.72-2.578,2.578-3.358,2.638" transform="translate(-49.249 -55.108)"/></g><g class="b" transform="translate(0 26.6)"><path class="e" d="M136.068,102.967s-3.418-1.259-4.137-1.559c-.779-.3-2.039-.9-2.039-.9l-.12-1.019m6.715,4.557s-.9,3-.24,4.437m5.576-4.257s-.12-6.176-.72-7.015a17.493,17.493,0,0,0-2.818-2.758c-.839-.6-4.257-3.118-4.257-3.118M117.3,83.9a3.778,3.778,0,0,0,3.3,1.319,10.17,10.17,0,0,0,2.638-.839" transform="translate(-46.967 -49.543)"/></g><g class="b" transform="translate(0 26.6)"><path class="d" d="M46.489,27.873s-.72,3.178.839,3.418c1.5.24,5.576-1.8,5.576-1.8s3.418,5.7,12.532,5.7,9.714-2.938,15.77.6a13.912,13.912,0,0,1,6.9,9.054l2.278-5.576a3.131,3.131,0,0,1,.839-1.139c1.5-1.319,5.756-4.257,8.334.54.06.06.6-4.137.6-4.137s2.338-12.352-4.677-23.324C88.581.231,73.591-.128,68.734,2.15c0,0-11.392,4.737-18.048,13.731-3.777,5.037-4.377,8.274-4.2,11.992" transform="translate(-18.548 -16.361)"/></g><g class="b" transform="translate(0 26.6)"><path class="h" d="M46.489,27.873s-.72,3.178.839,3.418c1.5.24,5.576-1.8,5.576-1.8s3.418,5.7,12.532,5.7,9.714-2.938,15.77.6a13.912,13.912,0,0,1,6.9,9.054l2.278-5.576a3.131,3.131,0,0,1,.839-1.139c1.5-1.319,5.756-4.257,8.334.54.06.06.6-4.137.6-4.137s2.338-12.352-4.677-23.324C88.581.231,73.591-.128,68.734,2.15c0,0-11.392,4.737-18.048,13.731C46.909,20.918,46.309,24.155,46.489,27.873Z" transform="translate(-18.548 -16.361)"/></g><g class="b" transform="translate(0 26.6)"><path class="f" d="M32.1,123.255s12.112-6.536,16.429-8.155" transform="translate(-12.853 -62.035)"/></g><g class="b" transform="translate(0 26.6)"><path class="i" d="M32.1,123.255s12.112-6.536,16.429-8.155" transform="translate(-12.853 -62.035)"/></g></g><ellipse class="j" cx="50.25" cy="50.901" rx="50.25" ry="50.901" transform="translate(1428.5 1692.5)"/></g></svg>