<svg height="87.411" viewBox="0 0 111.24 87.411" width="111.24" xmlns="http://www.w3.org/2000/svg"><path d="m71.539 89.459a35.756 35.756 0 1 0 -35.756-35.759 35.756 35.756 0 0 0 35.756 35.759zm0-67.539a31.783 31.783 0 1 1 -31.783 31.78 31.783 31.783 0 0 1 31.783-31.779zm0 37.742a5.928 5.928 0 0 0 1.049-.106l5.172 9.044a1.987 1.987 0 0 0 3.449-1.975l-5.177-9.047a5.9 5.9 0 0 0 -2.507-9.463v-12.289a1.986 1.986 0 1 0 -3.973 0v12.284a5.945 5.945 0 0 0 1.986 11.552zm0-7.946a1.986 1.986 0 1 1 -1.987 1.984 1.986 1.986 0 0 1 1.986-1.986zm-1.987-23.836v-1.986a1.986 1.986 0 1 1 3.973 0v1.986a1.986 1.986 0 1 1 -3.973 0zm-13.638 2.733a1.986 1.986 0 1 1 3.439-1.986l.993 1.719a1.986 1.986 0 1 1 -3.439 1.986zm-10.18 8.192a1.984 1.984 0 0 1 2.714-.727l1.721.993a1.987 1.987 0 1 1 -1.986 3.441l-1.721-.993a1.988 1.988 0 0 1 -.727-2.714zm-.019 16.885h-1.986a1.986 1.986 0 0 1 0-3.973h1.986a1.986 1.986 0 0 1 0 3.973zm4.453 12.646-1.721.993a1.987 1.987 0 0 1 -1.986-3.441l1.721-.993a1.987 1.987 0 1 1 1.986 3.441zm5.746 8.458.993-1.719a1.986 1.986 0 1 1 3.439 1.986l-.993 1.719a1.986 1.986 0 1 1 -3.439-1.986zm17.611 2.733v1.986a1.986 1.986 0 1 1 -3.973 0v-1.986a1.986 1.986 0 0 1 3.973 0zm9.206-2.466a1.986 1.986 0 1 1 3.439-1.986l.993 1.719a1.986 1.986 0 1 1 -3.439 1.986zm9.451-11.439a1.986 1.986 0 0 1 2.714-.727l1.721.993a1.987 1.987 0 0 1 -1.986 3.441l-1.721-.993a1.988 1.988 0 0 1 -.728-2.714zm5.18-13.905h1.986a1.986 1.986 0 1 1 0 3.973h-1.986a1.986 1.986 0 1 1 0-3.973zm-5.18-9.932a1.988 1.988 0 0 1 .727-2.714l1.721-.993a1.987 1.987 0 1 1 1.986 3.441l-1.721.993a1.988 1.988 0 0 1 -2.714-.727zm-9.451-11.439.993-1.719a1.986 1.986 0 1 1 3.439 1.986l-.993 1.719a1.986 1.986 0 1 1 -3.439-1.986zm-52.907 25.344h-15.892a1.986 1.986 0 1 1 0-3.973h15.892a1.986 1.986 0 1 1 0 3.973zm85.416-1.99a43.706 43.706 0 0 1 -83.586 17.881h-9.776a1.986 1.986 0 1 1 0-3.973h11.084a1.988 1.988 0 0 1 1.837 1.23 39.729 39.729 0 1 0 0-30.27 1.988 1.988 0 0 1 -1.837 1.23h-26.976a1.986 1.986 0 1 1 0-3.973h25.668a43.706 43.706 0 0 1 83.586 17.875z" fill="#0c0d91" transform="translate(-4 -9.998)"/></svg>