<svg xmlns="http://www.w3.org/2000/svg" width="88.739" height="116.053" viewBox="0 0 88.739 116.053"><defs><style>.a{fill:#0c0d91;}</style></defs><path class="a" d="M-285.85,290.334l-.9-17.953-12.182.641-6.412-18.722-40.523,13.849-8.335,16.927,13.849,40.394,1.026,19.492-2.693,8.72,53.6,16.671,22.954-73.736Zm-57.45-10.515-5.386,1.8,3.462-7.181Zm-6.925,6.027L-338.94,282l-3.847-11.285,35.265-12.054,5,14.491-26.93,1.411-12.7,13.978,1.282,24.365Zm19.877.641-5.642.257,5.386-5.9Zm-8.207,3.847,11.926-.641-.641-11.926,37.188-1.924.641,13.208-16.927-5.258-16.671,8.72-13.336,42.7Zm27.571,0-1.411,4.617-4.617-1.411Zm20.261,75.659-46.934-14.619,17.312-55.27,10.259,3.206,3.462-11.157.769-.385,36.163,11.285Z" transform="translate(354.2 -254.3)"/></svg>