<svg width="42" height="42" viewBox="0 0 42 42" fill="none" xmlns="http://www.w3.org/2000/svg">
<g filter="url(#filter0_d_5004_42147)">
<path d="M5 18C5 9.16344 12.1634 2 21 2V2C29.8366 2 37 9.16344 37 18V18C37 26.8366 29.8366 34 21 34V34C12.1634 34 5 26.8366 5 18V18Z" fill="#000091" shape-rendering="crispEdges"/>
</g>
<path d="M15 18C15 14.6863 17.6863 12 21 12V12C24.3137 12 27 14.6863 27 18V18C27 21.3137 24.3137 24 21 24V24C17.6863 24 15 21.3137 15 18V18Z" fill="#E3E3FE"/>
<defs>
<filter id="filter0_d_5004_42147" x="0" y="0" width="42" height="42" filterUnits="userSpaceOnUse" color-interpolation-filters="sRGB">
<feFlood flood-opacity="0" result="BackgroundImageFix"/>
<feColorMatrix in="SourceAlpha" type="matrix" values="0 0 0 0 0 0 0 0 0 0 0 0 0 0 0 0 0 0 127 0" result="hardAlpha"/>
<feOffset dy="3"/>
<feGaussianBlur stdDeviation="2.5"/>
<feComposite in2="hardAlpha" operator="out"/>
<feColorMatrix type="matrix" values="0 0 0 0 0 0 0 0 0 0 0 0 0 0 0 0 0 0 0.25 0"/>
<feBlend mode="normal" in2="BackgroundImageFix" result="effect1_dropShadow_5004_42147"/>
<feBlend mode="normal" in="SourceGraphic" in2="effect1_dropShadow_5004_42147" result="shape"/>
</filter>
</defs>
</svg>
