<svg xmlns="http://www.w3.org/2000/svg" width="22.116" height="22.116" viewBox="0 0 22.116 22.116"><defs><style>.a{fill:#a0a0a0;}</style></defs><g transform="translate(-6.086 -6.123)"><g transform="translate(6.086 6.123)"><path class="a" d="M38.043,10.138a1.854,1.854,0,0,0,0-2.62l-.853-.853a1.854,1.854,0,0,0-2.62,0L33.26,7.956l3.491,3.491Z" transform="translate(-16.469 -6.123)"/><path class="a" d="M27.073,15.457l-1.327-1.351-.444-.452L22.2,10.5,8.041,24.917a.677.677,0,0,0-.15.248L7,27.873a.645.645,0,0,0,.156.637l-.889.911a.648.648,0,0,0,0,.9.621.621,0,0,0,.889,0l.882-.9a.618.618,0,0,0,.626.159l2.672-.924a.662.662,0,0,0,.244-.153L24.857,15l.889.911L22.617,19.1a.651.651,0,0,0,.047.908.624.624,0,0,0,.892-.048L27.1,16.355A.645.645,0,0,0,27.073,15.457Z" transform="translate(-6.086 -8.397)"/></g></g></svg>