<svg height="39" viewBox="0 0 39 39" width="39" xmlns="http://www.w3.org/2000/svg"><circle cx="19.5" cy="19.5" fill="#300e8f" r="19.5"/><g fill="#fff"><path d="m37.553 9.726a1.664 1.664 0 0 0 0-2.351l-.765-.765a1.664 1.664 0 0 0 -2.351 0l-1.177 1.158 3.133 3.132z" transform="translate(-9.233 3.948)"/><path d="m24.922 14.949-1.191-1.212-.4-.406-2.78-2.83-12.71 12.939a.608.608 0 0 0 -.135.223l-.8 2.43a.579.579 0 0 0 .14.572l-.8.818a.581.581 0 0 0 0 .812.557.557 0 0 0 .8 0l.792-.812a.555.555 0 0 0 .562.143l2.4-.829a.594.594 0 0 0 .219-.137l11.914-12.117.8.818-2.808 2.859a.584.584 0 0 0 .042.815.56.56 0 0 0 .8-.043l3.179-3.236a.579.579 0 0 0 -.024-.807z" transform="translate(2.87 1.458)"/></g></svg>