<svg xmlns="http://www.w3.org/2000/svg" width="39" height="39" viewBox="0 0 39 39"><defs><style>.a{fill:#300e8f;}.b{fill:#fff;}</style></defs><g transform="translate(-787 -1446)"><circle class="a" cx="19.5" cy="19.5" r="19.5" transform="translate(787 1446)"/><g transform="translate(789.87 1449.948)"><g transform="translate(6.086 6.123)"><path class="b" d="M37.553,9.726a1.664,1.664,0,0,0,0-2.351l-.765-.765a1.664,1.664,0,0,0-2.351,0L33.26,7.768,36.393,10.9Z" transform="translate(-18.189 -6.123)"/><path class="b" d="M24.922,14.949l-1.191-1.212-.4-.406-2.78-2.83L7.841,23.44a.608.608,0,0,0-.135.223l-.8,2.43a.579.579,0,0,0,.14.572l-.8.818a.581.581,0,0,0,0,.812.557.557,0,0,0,.8,0l.792-.812a.555.555,0,0,0,.562.143l2.4-.829a.594.594,0,0,0,.219-.137L22.933,14.543l.8.818-2.808,2.859a.584.584,0,0,0,.042.815.56.56,0,0,0,.8-.043l3.179-3.236A.579.579,0,0,0,24.922,14.949Z" transform="translate(-6.086 -8.613)"/></g></g></g></svg>