<svg width="46" height="46" viewBox="0 0 46 46" fill="none" xmlns="http://www.w3.org/2000/svg">
<g filter="url(#filter0_ddd_6801_58839)">
<circle cx="23" cy="22" r="19" fill="#8C8CF8"/>
<g clip-path="url(#clip0_6801_58839)">
<path d="M32 29H34V31H12V29H14V14C14 13.7348 14.1054 13.4804 14.2929 13.2929C14.4804 13.1054 14.7348 13 15 13H25C25.2652 13 25.5196 13.1054 25.7071 13.2929C25.8946 13.4804 26 13.7348 26 14V29H30V21H28V19H31C31.2652 19 31.5196 19.1054 31.7071 19.2929C31.8946 19.4804 32 19.7348 32 20V29ZM16 15V29H24V15H16ZM18 21H22V23H18V21ZM18 17H22V19H18V17Z" fill="white"/>
</g>
</g>
<defs>
<filter id="filter0_ddd_6801_58839" x="0" y="0" width="46" height="46" filterUnits="userSpaceOnUse" color-interpolation-filters="sRGB">
<feFlood flood-opacity="0" result="BackgroundImageFix"/>
<feColorMatrix in="SourceAlpha" type="matrix" values="0 0 0 0 0 0 0 0 0 0 0 0 0 0 0 0 0 0 127 0" result="hardAlpha"/>
<feOffset dy="1"/>
<feGaussianBlur stdDeviation="2"/>
<feColorMatrix type="matrix" values="0 0 0 0 0 0 0 0 0 0 0 0 0 0 0 0 0 0 0.23 0"/>
<feBlend mode="normal" in2="BackgroundImageFix" result="effect1_dropShadow_6801_58839"/>
<feColorMatrix in="SourceAlpha" type="matrix" values="0 0 0 0 0 0 0 0 0 0 0 0 0 0 0 0 0 0 127 0" result="hardAlpha"/>
<feMorphology radius="2" operator="erode" in="SourceAlpha" result="effect2_dropShadow_6801_58839"/>
<feOffset dy="1"/>
<feColorMatrix type="matrix" values="0 0 0 0 0 0 0 0 0 0 0 0 0 0 0 0 0 0 0.16 0"/>
<feBlend mode="normal" in2="effect1_dropShadow_6801_58839" result="effect2_dropShadow_6801_58839"/>
<feColorMatrix in="SourceAlpha" type="matrix" values="0 0 0 0 0 0 0 0 0 0 0 0 0 0 0 0 0 0 127 0" result="hardAlpha"/>
<feOffset dy="1"/>
<feGaussianBlur stdDeviation="0.5"/>
<feColorMatrix type="matrix" values="0 0 0 0 0 0 0 0 0 0 0 0 0 0 0 0 0 0 0.16 0"/>
<feBlend mode="normal" in2="effect2_dropShadow_6801_58839" result="effect3_dropShadow_6801_58839"/>
<feBlend mode="normal" in="SourceGraphic" in2="effect3_dropShadow_6801_58839" result="shape"/>
</filter>
<clipPath id="clip0_6801_58839">
<rect width="24" height="24" fill="white" transform="translate(11 10)"/>
</clipPath>
</defs>
</svg>
