<svg xmlns="http://www.w3.org/2000/svg" width="39.731" height="35.544" viewBox="0 0 39.731 35.544"><defs><style>.a{fill:#170091;}</style></defs><g transform="translate(-5.015 -9.755)"><path class="a" d="M28.554,11.876a4.242,4.242,0,0,0-7.348,0L5.583,38.936A4.242,4.242,0,0,0,9.257,45.3H40.5a4.242,4.242,0,0,0,3.674-6.363ZM41.883,41.854a1.565,1.565,0,0,1-1.379.8H9.257a1.593,1.593,0,0,1-1.379-2.389L23.5,13.2a1.593,1.593,0,0,1,2.759,0l15.623,27.06a1.565,1.565,0,0,1,0,1.593Z"/><circle class="a" cx="1.69" cy="1.69" r="1.69" transform="translate(23.19 36.971)"/><path class="a" d="M48.07,34.427H45.75a1.284,1.284,0,0,0-1.279,1.389l1,12.218a1.025,1.025,0,0,0,1.022.941h.828a1.025,1.025,0,0,0,1.022-.941l1-12.218a1.284,1.284,0,0,0-1.279-1.389Z" transform="translate(-22.029 -13.777)"/></g></svg>