<svg width="42" height="42" viewBox="0 0 42 42" fill="none" xmlns="http://www.w3.org/2000/svg">
<g filter="url(#filter0_d_5004_42148)">
<path d="M5 19C5 10.1634 12.1634 3 21 3V3C29.8366 3 37 10.1634 37 19V19C37 27.8366 29.8366 35 21 35V35C12.1634 35 5 27.8366 5 19V19Z" fill="#E3E3FE" shape-rendering="crispEdges"/>
</g>
<path d="M15 19C15 15.6863 17.6863 13 21 13V13C24.3137 13 27 15.6863 27 19V19C27 22.3137 24.3137 25 21 25V25C17.6863 25 15 22.3137 15 19V19Z" fill="#000091"/>
<defs>
<filter id="filter0_d_5004_42148" x="0" y="0" width="42" height="42" filterUnits="userSpaceOnUse" color-interpolation-filters="sRGB">
<feFlood flood-opacity="0" result="BackgroundImageFix"/>
<feColorMatrix in="SourceAlpha" type="matrix" values="0 0 0 0 0 0 0 0 0 0 0 0 0 0 0 0 0 0 127 0" result="hardAlpha"/>
<feOffset dy="2"/>
<feGaussianBlur stdDeviation="2.5"/>
<feComposite in2="hardAlpha" operator="out"/>
<feColorMatrix type="matrix" values="0 0 0 0 0 0 0 0 0 0 0 0 0 0 0 0 0 0 0.25 0"/>
<feBlend mode="normal" in2="BackgroundImageFix" result="effect1_dropShadow_5004_42148"/>
<feBlend mode="normal" in="SourceGraphic" in2="effect1_dropShadow_5004_42148" result="shape"/>
</filter>
</defs>
</svg>
