<svg enable-background="new 0 0 261.3 146.8" viewBox="0 0 261.3 146.8" xmlns="http://www.w3.org/2000/svg"><path d="m24.4 50.1h133.8v49.9h-133.8z" fill="#cf004c" transform="matrix(.9925 -.1222 .1222 .9925 -8.4838 11.7187)"/><path d="m2.1 22.6h89.8v40.4h-89.8z" fill="#0065a1" transform="matrix(.9925 -.1222 .1222 .9925 -4.8752 6.0674)"/><g fill="#fff"><path d="m12.4 45.5c-.1-1.1-.1-2 .2-2.9.3-.8.7-1.6 1.3-2.2s1.3-1.1 2.2-1.5 1.8-.6 2.9-.8c1.3-.2 2.5-.1 3.6.2s2 .8 2.7 1.5c.5-.9 1.3-1.6 2.2-2.1.9-.6 2.1-.9 3.4-1.1 1-.1 2-.1 3 0 .9.2 1.8.5 2.5.9.7.5 1.3 1.1 1.8 1.8s.8 1.7.9 2.7l1.3 10.7-5.3.6-1.1-9.2c-.1-1.1-.5-1.9-1-2.3s-1.2-.6-2-.5c-.9.1-1.5.5-2 1.1s-.6 1.6-.5 2.8l1.1 8.7-5.3.6-1.1-8.7c-.2-1.2-.5-2.1-1.1-2.6s-1.3-.7-2.2-.6c-.8.1-1.4.4-1.9 1-.4.5-.5 1.4-.4 2.5l1.1 9.2-5.3.6z"/><path d="m42.4 44.2c-.2-1.3-.1-2.5.3-3.6.3-1.1.9-2.1 1.6-3s1.6-1.6 2.7-2.2 2.2-1 3.5-1.1c1.3-.2 2.5-.1 3.7.2s2.2.8 3.2 1.5c.9.7 1.7 1.5 2.3 2.5s1 2.1 1.1 3.4c.2 1.3.1 2.5-.3 3.6-.3 1.1-.9 2.1-1.6 3s-1.6 1.6-2.7 2.2-2.2 1-3.5 1.1c-1.3.2-2.5.1-3.7-.2s-2.2-.8-3.2-1.5c-.9-.7-1.7-1.5-2.3-2.5-.5-1-.9-2.2-1.1-3.4m9.8 2.9c.5-.1 1-.2 1.5-.5.4-.3.8-.6 1.1-1s.5-.9.6-1.4.2-1.1.1-1.7c-.1-.5-.3-1.1-.5-1.5-.2-.5-.6-.9-1-1.2s-.8-.6-1.3-.7-1-.2-1.6-.1-1.1.2-1.5.5-.8.6-1.1 1-.5.9-.6 1.4-.1 1.1-.1 1.7c.1.6.2 1.1.5 1.6.2.5.6.9 1 1.2s.8.6 1.3.7c.5 0 1 .1 1.6 0"/><path d="m63.1 39.8c-.1-1.1 0-2.2.3-3.1s.8-1.7 1.5-2.4 1.5-1.2 2.5-1.7c1-.4 2-.7 3.2-.9 1.1-.1 2.2-.1 3.3.1s2 .5 2.8 1 1.5 1.2 2.1 2c.5.8.9 1.8 1 2.9l1.2 10.2-5.3.6-1.1-8.9c-.1-1.2-.5-2-1.1-2.5s-1.4-.7-2.4-.6c-2 .3-2.9 1.5-2.7 3.8l1.1 8.9-5.3.6z"/><path d="m39.1 86.5c.2.1.6.3 1.1.5s1.1.3 1.9.4c.7.1 1.5.2 2.4.2s1.8 0 2.8-.1c1.1-.1 1.9-.3 2.5-.6.5-.3.8-.7.7-1.2s-.3-.9-.8-1-1.3-.2-2.3-.2h-2.1c-1.1 0-2.1-.1-3.1-.2s-1.9-.4-2.7-.8-1.5-1-2-1.7-.9-1.7-1-2.9c-.1-1-.1-1.9.2-2.8s.7-1.7 1.4-2.4 1.6-1.4 2.8-1.9 2.6-.9 4.3-1.1 3.2-.3 4.4-.2c1.3.1 2.3.3 3.3.6.5.2 1 .5 1.4.8.4.4.6.8.6 1.4.1.4 0 .8-.1 1.2s-.3.7-.5.9c-.2.3-.4.5-.6.6-.2.2-.3.3-.4.3-.1-.1-.3-.2-.7-.4s-.9-.3-1.5-.4-1.4-.2-2.2-.3c-.9-.1-1.8 0-2.9.1-1.2.1-2 .4-2.5.7-.4.3-.6.7-.6 1.2.1.5.3.8.8.9s1.1.2 2 .2l3.7.1c.9 0 1.8.1 2.7.3s1.7.4 2.4.8 1.3 1 1.8 1.7.8 1.6.9 2.7c.3 2.3-.4 4.1-1.9 5.6-1.6 1.5-3.9 2.4-6.9 2.8-1.6.2-3 .3-4.3.2s-2.3-.2-3.3-.4c-.9-.2-1.7-.4-2.3-.6s-1-.4-1.2-.6z"/><path d="m57.8 66.4c-.1-1 .1-1.8.7-2.3s1.4-.8 2.4-1c.7-.1 1.4-.1 2 0s1 .2 1.2.2l.7 5.5 4.6-.6c1.2-.2 2.1 0 2.7.4s.9 1.1 1 2.1c.1.7.1 1.4-.1 2-.1.6-.3 1.1-.3 1.3l-7.2.9.8 6.3c.1.6.2 1.1.5 1.4.2.3.5.6.8.8s.7.3 1 .3h1.1c.8-.1 1.4-.3 2-.6s1-.6 1.3-.7l3.1 4.1c-.2.2-.5.5-1 .9-.4.3-.9.7-1.6 1-.6.3-1.3.6-2.1.9s-1.6.5-2.5.6c-2.5.3-4.6-.1-6.2-1.3s-2.5-2.9-2.8-5.1z"/><path d="m97.7 85.5c-.2.1-.5.2-1.1.3s-1.3.3-2.1.5-1.8.4-2.9.6-2.2.4-3.4.5c-2 .3-3.8.3-5.2.1s-2.5-.6-3.4-1.1-1.5-1.2-2-1.9c-.4-.8-.7-1.6-.8-2.5-.3-2.5.3-4.3 1.7-5.6 1.5-1.3 3.9-2.1 7.4-2.5.9-.1 1.6-.2 2.2-.2s1.1-.1 1.4-.1c-.1-.9-.6-1.6-1.4-2.1-.8-.4-2.1-.6-3.9-.3-.8.1-1.6.2-2.2.4s-1.1.4-1.6.5c-.4.2-.8.4-1 .5-.3.2-.4.3-.5.4-.1 0-.2-.1-.4-.3-.2-.1-.4-.3-.6-.6-.2-.2-.4-.5-.6-.8s-.3-.6-.3-1c-.3-2.3 2-3.8 6.8-4.4 1.6-.2 3-.2 4.5-.1 1.4.1 2.7.5 3.8 1 1.1.6 2 1.4 2.7 2.4.7 1.1 1.2 2.4 1.4 4.1zm-7.5-7.6c-.3 0-.6 0-1.1 0s-1.2.1-2.1.2c-.8.1-1.5.2-2 .4s-.9.4-1.1.7c-.3.3-.4.5-.5.9-.1.3-.1.6 0 .9 0 .2.1.5.2.8s.3.5.6.7.7.3 1.3.4 1.3.1 2.2 0c.7-.1 1.3-.2 1.9-.3s1-.2 1.2-.3z"/><path d="m105.2 86.8c.1 0 .3.1.7.2s.8.2 1.4.3 1.2.1 2 .2c.8 0 1.6 0 2.4-.1.9-.1 1.6-.3 2.4-.6.7-.3 1.3-.7 1.8-1.2s.8-1.1 1-1.8.3-1.6.1-2.6l-.1-.4c-.1.2-.3.4-.6.6-.3.3-.7.6-1.1.9-.5.3-1 .6-1.7.9-.6.3-1.4.5-2.2.6-1.5.2-2.8.1-4.1-.2s-2.4-.8-3.4-1.6-1.8-1.7-2.5-2.9c-.6-1.2-1.1-2.6-1.3-4.2s-.1-3.1.3-4.4c.4-1.4 1-2.6 1.9-3.7s2-1.9 3.3-2.6 2.8-1.1 4.5-1.4c1.9-.2 3.6-.1 5.3.4s3.1 1.4 4.3 2.6c.8.8 1.4 1.7 1.8 2.8.5 1.1.8 2.6 1 4.3l.7 6c.3 2.1.2 3.9-.2 5.5s-1.1 2.9-2 4.1c-.9 1.1-2.1 2-3.5 2.6-1.4.7-2.9 1.1-4.6 1.3-1.2.1-2.3.2-3.3.2s-1.9-.1-2.7-.2-1.4-.2-2-.4c-.5-.1-.9-.3-1-.3zm1.6-12.9c.2 1.5.8 2.6 1.7 3.3 1 .7 2.1.9 3.5.7 1.3-.2 2.4-.7 3.1-1.7.8-.9 1.1-2.1.9-3.5s-.7-2.4-1.7-3.2-2.1-1.1-3.5-.9c-.7.1-1.3.3-1.8.6s-1 .7-1.3 1.2c-.4.5-.6 1-.8 1.6-.2.7-.2 1.3-.1 1.9"/><path d="m132.9 73.6c.1.3.3.6.5.9.3.3.6.5 1.1.7.4.2 1 .4 1.7.5s1.5.1 2.4 0c.7-.1 1.4-.2 2-.4s1.1-.4 1.6-.6c.4-.2.8-.4 1.1-.5.3-.2.4-.3.5-.3l2.8 4.2c-.2.2-.5.4-1 .7s-1.1.6-1.8 1c-.7.3-1.6.7-2.6 1s-2.1.5-3.3.7c-1.5.2-3 .1-4.3-.2-1.4-.3-2.6-.9-3.7-1.7s-2-1.8-2.7-3.1-1.2-2.8-1.4-4.5c-.2-1.6-.1-3.1.3-4.5s1-2.7 1.9-3.7c.9-1.1 2-1.9 3.2-2.6 1.3-.7 2.7-1.1 4.3-1.3 1.5-.2 2.8-.1 4 .1s2.2.7 3.1 1.2c.9.6 1.6 1.3 2.1 2.1s.8 1.7 1 2.6c.1 1 .1 1.9-.2 2.8-.3.8-.8 1.6-1.6 2.2-.8.7-2 1.2-3.5 1.7s-3.5.9-5.9 1.2zm-.8-4.1c1.8-.2 3.2-.5 4.2-.7 1-.3 1.7-.5 2.2-.8s.7-.6.8-.8c.1-.3.1-.6.1-.8-.1-.6-.4-1-1-1.4s-1.4-.5-2.4-.3c-.7.1-1.3.3-1.9.6-.5.3-.9.7-1.2 1.2-.3.4-.5.9-.7 1.5-.1.4-.2.9-.1 1.5"/></g><path d="m82 119.6c.2 1.4.2 2.7 0 3.8s-.5 2-.9 2.8c-.7 1.2-1.7 2.2-3 3s-2.7 1.2-4.3 1.4c-1.3.2-2.6.1-3.8-.2s-2.3-.8-3.2-1.5-1.7-1.6-2.3-2.6c-.6-1.1-1-2.3-1.2-3.6-.2-1.4-.1-2.6.2-3.8s.8-2.2 1.4-3.1c.7-.9 1.5-1.6 2.4-2.2 1-.6 2-.9 3.2-1.1 1.3-.2 2.3-.1 3.2.2s1.5.7 2 1l-.8-6.7c-.1-.9.1-1.5.5-2 .5-.4 1.1-.7 2-.8.6-.1 1.2-.1 1.7 0s.8.1 1 .2zm-8.6 6c1.1-.1 2-.6 2.7-1.4.6-.8.9-1.8.7-3.1-.1-.6-.2-1.1-.5-1.6s-.6-.9-1-1.2-.8-.6-1.3-.7c-.5-.2-1-.2-1.6-.1-1.1.1-2 .6-2.6 1.5s-.9 1.9-.7 3.1.6 2.2 1.5 2.8c.7.6 1.7.9 2.8.7" fill="#0065a1"/><path d="m90.8 121.6c.1.3.2.5.5.8.2.2.5.4.9.6s.8.3 1.4.4 1.2.1 2 0c.6-.1 1.1-.2 1.6-.4s.9-.3 1.3-.5.7-.3.9-.5c.2-.1.4-.2.4-.3l2.4 3.6c-.2.1-.4.3-.8.6s-.9.5-1.5.8-1.3.5-2.1.8c-.8.2-1.7.4-2.8.6-1.3.2-2.5.1-3.6-.2-1.2-.3-2.2-.7-3.1-1.4s-1.7-1.5-2.3-2.6-1-2.3-1.2-3.8c-.2-1.4-.1-2.6.3-3.8.3-1.2.9-2.2 1.6-3.1s1.6-1.6 2.7-2.2 2.3-.9 3.6-1.1c1.2-.2 2.3-.1 3.3.1s1.9.6 2.6 1c.7.5 1.3 1.1 1.8 1.7.4.7.7 1.4.8 2.2s.1 1.6-.2 2.3c-.2.7-.7 1.3-1.4 1.9s-1.7 1-2.9 1.4c-1.3.4-2.9.7-4.9 1zm-.7-3.5c1.5-.2 2.7-.4 3.5-.6s1.4-.4 1.8-.7c.4-.2.6-.5.7-.7s.1-.5.1-.7c-.1-.5-.3-.9-.8-1.2s-1.1-.4-2-.3c-.6.1-1.1.2-1.5.5s-.8.6-1 1c-.3.4-.4.8-.5 1.3-.3.5-.3 1-.3 1.4" fill="#0065a1"/><g fill="#feb620"><path d="m223.7 32.7c0-2.8.6-6 1.8-9.5.7-1.9 1.5-3.8 2.4-5.6-2.7-3.9-6.4-7-11.2-9.3-4.8-2.2-10.1-3.3-16-3.3-7.2 0-14.3 1.6-21.2 4.9-6.9 3.2-12.5 7.5-16.8 12.7s-6.5 10.5-6.5 15.8c0 4.6 2.1 9.2 6.3 13.7 3 3.1 5.5 4.7 7.5 4.7.8 0 1.3-.2 1.8-.7.4-.4.8-1.4 1.2-3 1.2-4.4 3.1-8.9 5.6-13.5s5.2-8.3 7.9-11.2c2.8-2.9 5.1-4.4 6.9-4.4 2.3 0 3.4 2.8 3.4 8.3 0 5.2-1.4 10.3-4.2 15.5-2.8 5.1-6.7 9.9-11.7 14.2-3.3 2.8-5 4.9-5 6.3 0 1.2.4 2.2 1.2 2.7.8.6 2.2 1 4.1 1.3 10 2 15 7.7 15 17.2 0 4.4-1.3 9-3.8 14s-5.9 9.7-10.2 14.1c-3.3 3.5-6.7 6.2-10.1 8.3s-6.3 3.2-8.5 3.2h-.6c-2-3.5-3-7.8-3-12.7 0-5 .7-9.9 2.2-14.5s3.6-8.5 6.3-11.6l.8-.8c.2-.2.5-.5.7-.7 2.1-1.8 3.2-3.1 3.2-3.8 0-1.9-1.3-2.8-3.8-2.8-6.1 0-12.2 1.8-18.2 5.3-6.1 3.6-11 8.1-14.9 13.7-3.8 5.6-5.7 11.2-5.7 16.8 0 8.2 2.8 15.1 8.5 20.5 5.7 5.5 12.8 8.2 21.4 8.2 9 0 18.3-2.5 28.1-7.4 9.7-4.9 18.7-11.8 27-20.6 3.8-4 7.1-8 9.8-12.1 2.7-4 4.8-8 6.3-11.8s2.2-7.3 2.2-10.5c0-6.8-2.5-12.2-7.4-16s-12.2-6-22-6.5v-.4c6.1-2.6 11.3-5.2 15.4-8.1 4.2-2.9 7.3-6.4 9.3-10.4-.8-.5-1.6-1-2.3-1.7-2-1.9-3.2-4.8-3.2-8.5"/><path d="m259.5 29.1c-.8-.5-1.7-.7-2.6-.7-.7 0-2.2.8-4.3 2.4-3.7 2.7-6.7 4.1-9 4.1-2.1 0-3.3-.9-3.6-2.8.7.3 1.4.5 2.1.5 1.5 0 3.3-.6 5.3-1.8s4.1-2.8 6.2-4.9c2.6-2.5 4.5-5.1 5.8-7.8s2-5.3 2-7.8c0-3.2-.8-5.7-2.5-7.5-1.8-1.9-4.1-2.8-6.9-2.8-4 0-8.2 1.4-12.5 4.3-3.5 2.4-6.5 5.4-8.9 9-.9 1.4-1.8 2.8-2.5 4.3 0 .1.1.1.1.2 2.7 4 4 8.6 4 13.6 0 4.3-.9 8.2-2.6 11.7 1.9 1.1 4.2 1.6 6.9 1.6 1.5 0 3.3-.3 5.3-.9s3.9-1.4 5.9-2.4 4-2.3 6.1-3.9 4-3.1 5.6-4.8c.9-.9 1.3-1.6 1.3-2.2 0-.4-.4-.9-1.2-1.4m-20-1.3c0-1.9.4-4.1 1.1-6.7.8-2.6 1.7-5.2 2.9-7.8 2-4.3 3.5-6.5 4.5-6.5.7 0 1.1.8 1.1 2.5 0 1.8-.2 3.8-.6 5.9s-1 4-1.7 5.7c-.9 2.6-2.2 4.9-3.8 6.9-.7 1-1.8 1.9-3.2 2.9-.2-1.4-.3-2.3-.3-2.9"/></g></svg>