<svg xmlns="http://www.w3.org/2000/svg" xmlns:xlink="http://www.w3.org/1999/xlink" width="395.3" height="221.821" viewBox="0 0 395.3 221.821"><defs><style>.a{fill:none;}.b{clip-path:url(#a);}.c{fill:#e0000f;}.d{clip-path:url(#b);}.e{fill:#080091;}.f{clip-path:url(#c);}.g{fill:#fff;}.h{clip-path:url(#d);}.i{clip-path:url(#e);}.j{clip-path:url(#f);}.k{clip-path:url(#g);}.l{clip-path:url(#h);}.m{clip-path:url(#i);}.n{clip-path:url(#j);}.o{clip-path:url(#k);}.p{clip-path:url(#l);}.q{clip-path:url(#m);}.r{fill:#fdce41;}.s{clip-path:url(#n);}</style><clipPath id="a"><path class="a" d="M22.855-80.166l200.8-24.723L232.874-30,32.076-5.28Z" transform="translate(-22.855 104.889)"/></clipPath><clipPath id="b"><path class="a" d="M.971-113.139l134.766-16.593L143.2-69.1,8.436-52.51Z" transform="translate(-0.971 129.732)"/></clipPath><clipPath id="c"><path class="a" d="M13.431-96.9a10.414,10.414,0,0,1,.3-4.385,9.244,9.244,0,0,1,1.966-3.327,10.771,10.771,0,0,1,3.327-2.268,18.59,18.59,0,0,1,4.385-1.21,12.968,12.968,0,0,1,5.443.3,8.982,8.982,0,0,1,4.083,2.268,8.4,8.4,0,0,1,3.327-3.175,12.884,12.884,0,0,1,5.141-1.663,22.739,22.739,0,0,1,4.536,0A13.96,13.96,0,0,1,49.72-109a11.627,11.627,0,0,1,2.722,2.722A8.727,8.727,0,0,1,53.8-102.2l1.966,16.179-8.014.907L46.091-99.021a5,5,0,0,0-1.512-3.478,3.985,3.985,0,0,0-3.024-.756,4.336,4.336,0,0,0-3.024,1.663c-.756.907-.907,2.419-.756,4.234L39.438-84.2l-8.014.907L29.761-96.451c-.3-1.815-.756-3.175-1.663-3.931a4.164,4.164,0,0,0-3.327-.907A4.156,4.156,0,0,0,21.9-99.777a5.537,5.537,0,0,0-.6,3.78l1.663,13.911-8.014.907Z" transform="translate(-13.34 110.475)"/></clipPath><clipPath id="d"><path class="a" d="M43.451-97.677a10.868,10.868,0,0,1,.454-5.443,13.16,13.16,0,0,1,2.419-4.536,12.729,12.729,0,0,1,4.083-3.327,12.786,12.786,0,0,1,5.292-1.663,13.853,13.853,0,0,1,5.595.3,14.208,14.208,0,0,1,4.839,2.268,13.842,13.842,0,0,1,3.478,3.78,11.483,11.483,0,0,1,1.663,5.141,10.867,10.867,0,0,1-.454,5.443A13.16,13.16,0,0,1,68.4-91.175a12.729,12.729,0,0,1-4.083,3.327,12.786,12.786,0,0,1-5.292,1.663,13.853,13.853,0,0,1-5.595-.3,14.207,14.207,0,0,1-4.839-2.268,13.841,13.841,0,0,1-3.478-3.78,18.639,18.639,0,0,1-1.663-5.141M58.27-93.292a6.689,6.689,0,0,0,2.268-.756A7.926,7.926,0,0,0,62.2-95.56a5.3,5.3,0,0,0,.907-2.117,7.16,7.16,0,0,0,.151-2.571,9.989,9.989,0,0,0-.756-2.268,4.445,4.445,0,0,0-1.512-1.814,4.979,4.979,0,0,0-1.966-1.058,6.341,6.341,0,0,0-2.419-.151,5.035,5.035,0,0,0-2.268.756,7.926,7.926,0,0,0-1.663,1.512,5.3,5.3,0,0,0-.907,2.117,13.834,13.834,0,0,0-.151,2.571,6.478,6.478,0,0,0,.756,2.419,4.445,4.445,0,0,0,1.512,1.814,4.979,4.979,0,0,0,1.966,1.058,12.9,12.9,0,0,0,2.419,0" transform="translate(-43.3 112.804)"/></clipPath><clipPath id="e"><path class="a" d="M64.119-103.019a11.814,11.814,0,0,1,.454-4.687,9.193,9.193,0,0,1,2.268-3.629,13.868,13.868,0,0,1,3.78-2.571,22.625,22.625,0,0,1,4.839-1.361,18.406,18.406,0,0,1,4.99.151,11.7,11.7,0,0,1,4.234,1.512,12.032,12.032,0,0,1,3.175,3.024,10.087,10.087,0,0,1,1.512,4.385l1.815,15.423-8.014.907-1.663-13.457a5.226,5.226,0,0,0-1.663-3.78,4.712,4.712,0,0,0-3.629-.907c-3.024.454-4.385,2.268-4.083,5.746L73.8-88.805l-8.014.907Z" transform="translate(-64.063 115.366)"/></clipPath><clipPath id="f"><path class="a" d="M41.462-52.287c.3.151.907.454,1.663.756a11.816,11.816,0,0,0,2.873.6,25.087,25.087,0,0,0,3.629.3,41.056,41.056,0,0,0,4.234-.151,10.622,10.622,0,0,0,3.78-.907A1.741,1.741,0,0,0,58.7-53.5c-.151-.756-.454-1.361-1.21-1.512a18.361,18.361,0,0,0-3.478-.3H50.837a45.791,45.791,0,0,1-4.687-.3,11.691,11.691,0,0,1-4.083-1.21,8.331,8.331,0,0,1-3.024-2.571,8.859,8.859,0,0,1-1.512-4.385,9.891,9.891,0,0,1,.3-4.234,8.845,8.845,0,0,1,2.117-3.629,13,13,0,0,1,4.234-2.873,23.955,23.955,0,0,1,6.5-1.663,35.114,35.114,0,0,1,6.653-.3,22.637,22.637,0,0,1,4.99.907,9.64,9.64,0,0,1,2.117,1.21,2.745,2.745,0,0,1,.907,2.117,3.723,3.723,0,0,1-.151,1.814,2.924,2.924,0,0,1-.756,1.361,2.567,2.567,0,0,1-.907.907c-.3.3-.454.454-.6.454a4.863,4.863,0,0,0-1.058-.6,8.187,8.187,0,0,0-2.268-.6c-.907-.151-2.117-.3-3.327-.454a21.982,21.982,0,0,0-4.385.151,8.737,8.737,0,0,0-3.78,1.058,2.155,2.155,0,0,0-.907,1.814,1.454,1.454,0,0,0,1.21,1.361,14.352,14.352,0,0,0,3.024.3l5.595.151a18.769,18.769,0,0,1,4.083.454,12.8,12.8,0,0,1,3.629,1.21A8.791,8.791,0,0,1,67.47-60.3a8.178,8.178,0,0,1,1.361,4.083,9.537,9.537,0,0,1-2.873,8.468c-2.419,2.268-5.9,3.629-10.433,4.234a32.67,32.67,0,0,1-6.5.3,41.011,41.011,0,0,1-4.99-.6c-1.361-.3-2.571-.6-3.478-.907a4.924,4.924,0,0,1-1.814-.907Z" transform="translate(-37.44 76.539)"/></clipPath><clipPath id="g"><path class="a" d="M58.813-78.872a3.782,3.782,0,0,1,1.058-3.478A7.99,7.99,0,0,1,63.5-83.862a10.123,10.123,0,0,1,3.024,0c.907.151,1.512.3,1.814.3L69.4-75.243l6.956-.907a5.6,5.6,0,0,1,4.083.6,4.007,4.007,0,0,1,1.512,3.175,6.715,6.715,0,0,1-.151,3.024c-.151.907-.454,1.663-.454,1.966L70.456-66.019l1.21,9.526a3.889,3.889,0,0,0,.756,2.117,4.6,4.6,0,0,0,1.21,1.21,2.918,2.918,0,0,0,1.512.454h1.663a8.874,8.874,0,0,0,3.024-.907c.907-.454,1.512-.907,1.966-1.058l4.687,6.2a16.855,16.855,0,0,1-1.512,1.361,11.216,11.216,0,0,1-2.419,1.512,33.291,33.291,0,0,1-3.175,1.361,15.353,15.353,0,0,1-3.78.907c-3.78.454-6.956-.151-9.375-1.966a10.976,10.976,0,0,1-4.234-7.712Z" transform="translate(-58.775 83.975)"/></clipPath><clipPath id="h"><path class="a" d="M109.441-51.379a5.859,5.859,0,0,1-1.663.454c-.907.151-1.966.454-3.175.756s-2.722.6-4.385.907-3.327.6-5.141.756a27.841,27.841,0,0,1-7.863.151,14.681,14.681,0,0,1-5.141-1.663,9.226,9.226,0,0,1-3.024-2.873,11.073,11.073,0,0,1-1.21-3.78c-.454-3.78.454-6.5,2.571-8.468,2.268-1.966,5.9-3.175,11.189-3.78,1.361-.151,2.419-.3,3.327-.3s1.663-.151,2.117-.151a4.219,4.219,0,0,0-2.117-3.175,9.864,9.864,0,0,0-5.9-.454,18.755,18.755,0,0,0-3.327.6,21.533,21.533,0,0,1-2.419.756l-1.512.756a4.135,4.135,0,0,0-.756.6c-.151,0-.3-.151-.6-.454a2.567,2.567,0,0,1-.907-.907,8.386,8.386,0,0,1-.907-1.21,2.554,2.554,0,0,1-.454-1.512c-.454-3.478,3.024-5.746,10.282-6.653a34.375,34.375,0,0,1,6.8-.151,16.911,16.911,0,0,1,5.746,1.512,11.807,11.807,0,0,1,4.083,3.629,14.3,14.3,0,0,1,2.117,6.2ZM98.1-62.87H96.437c-.756,0-1.814.151-3.175.3a13.274,13.274,0,0,0-3.024.6A3.517,3.517,0,0,0,88.574-60.9a2.455,2.455,0,0,0-.756,1.361,2.1,2.1,0,0,0,0,1.361,4.675,4.675,0,0,0,.3,1.21,2.033,2.033,0,0,0,.907,1.058,5.025,5.025,0,0,0,1.966.6,12.128,12.128,0,0,0,3.327,0c1.058-.151,1.966-.3,2.873-.454a7.54,7.54,0,0,0,1.814-.454Z" transform="translate(-77.725 81.266)"/></clipPath><clipPath id="i"><path class="a" d="M108.914-47.861c.151,0,.454.151,1.058.3s1.21.3,2.117.454,1.814.151,3.024.3a29.134,29.134,0,0,0,3.629-.151,14.191,14.191,0,0,0,3.629-.907,8.581,8.581,0,0,0,2.722-1.814,6.048,6.048,0,0,0,1.512-2.722,8.361,8.361,0,0,0,.151-3.931l-.151-.6a2.568,2.568,0,0,1-.907.907,16.073,16.073,0,0,1-1.663,1.361,19.864,19.864,0,0,1-2.571,1.361,10.72,10.72,0,0,1-3.327.907,16.808,16.808,0,0,1-6.2-.3,12.43,12.43,0,0,1-5.141-2.419,15.261,15.261,0,0,1-3.78-4.385,19.573,19.573,0,0,1-1.966-6.351,15.983,15.983,0,0,1,.454-6.653,15.15,15.15,0,0,1,2.873-5.595,15.994,15.994,0,0,1,4.99-3.931,22.458,22.458,0,0,1,6.8-2.117,20.162,20.162,0,0,1,8.014.6,15.08,15.08,0,0,1,6.5,3.931,11.339,11.339,0,0,1,2.722,4.234,22.894,22.894,0,0,1,1.512,6.5l1.058,9.072a21.388,21.388,0,0,1-.3,8.316,16.956,16.956,0,0,1-3.024,6.2,13.891,13.891,0,0,1-5.292,3.931,20.614,20.614,0,0,1-6.956,1.966c-1.814.151-3.478.3-4.99.3a32.2,32.2,0,0,1-4.083-.3,15.247,15.247,0,0,1-3.024-.6c-.756-.151-1.361-.454-1.512-.454Zm2.419-19.506a7.265,7.265,0,0,0,2.571,4.99,6.942,6.942,0,0,0,5.292,1.058,6.64,6.64,0,0,0,4.687-2.571,6.319,6.319,0,0,0,1.361-5.292,6.972,6.972,0,0,0-2.571-4.839,6.461,6.461,0,0,0-5.292-1.361,7.226,7.226,0,0,0-2.722.907,5.662,5.662,0,0,0-1.966,1.814,7.275,7.275,0,0,0-1.21,2.419,6.27,6.27,0,0,0-.151,2.873" transform="translate(-100.9 84.297)"/></clipPath><clipPath id="j"><path class="a" d="M137.587-66.329a6.128,6.128,0,0,0,.756,1.361,4.5,4.5,0,0,0,1.663,1.058,8.71,8.71,0,0,0,2.57.756,14.515,14.515,0,0,0,3.629,0,17.84,17.84,0,0,0,3.024-.6c.907-.3,1.663-.6,2.419-.907a14.729,14.729,0,0,1,1.663-.756c.454-.3.6-.454.756-.454l4.234,6.351a8.073,8.073,0,0,1-1.512,1.058c-.756.454-1.663.907-2.722,1.512a36.147,36.147,0,0,1-3.931,1.512,41.158,41.158,0,0,1-4.99,1.058,18.485,18.485,0,0,1-6.5-.3,14.581,14.581,0,0,1-5.595-2.571,13.693,13.693,0,0,1-4.083-4.687,18.918,18.918,0,0,1-2.117-6.8,16.914,16.914,0,0,1,.454-6.8,14.066,14.066,0,0,1,2.873-5.595,17.29,17.29,0,0,1,4.839-3.931,18.139,18.139,0,0,1,6.5-1.966,19.867,19.867,0,0,1,6.048.151,14.441,14.441,0,0,1,4.687,1.815,10.585,10.585,0,0,1,3.175,3.175,12.47,12.47,0,0,1,1.512,3.931,9.892,9.892,0,0,1-.3,4.234,7.285,7.285,0,0,1-2.419,3.327,15.68,15.68,0,0,1-5.292,2.571,48.249,48.249,0,0,1-8.921,1.815Zm-1.21-6.2c2.722-.3,4.839-.756,6.351-1.058a15.851,15.851,0,0,0,3.327-1.21,2.941,2.941,0,0,0,1.21-1.21,3.758,3.758,0,0,0,.151-1.21,2.992,2.992,0,0,0-1.512-2.117,4.712,4.712,0,0,0-3.629-.454,9.121,9.121,0,0,0-2.873.907,5.212,5.212,0,0,0-1.814,1.814,7.9,7.9,0,0,0-1.058,2.268,5.367,5.367,0,0,0-.151,2.268" transform="translate(-126.7 87.209)"/></clipPath><clipPath id="k"><path class="a" d="M92.629-19.476a18.247,18.247,0,0,1,0,5.746A15.478,15.478,0,0,1,91.268-9.5,13.023,13.023,0,0,1,86.732-4.96a15.721,15.721,0,0,1-6.5,2.117,14.6,14.6,0,0,1-5.746-.3,12.993,12.993,0,0,1-4.839-2.268,14.462,14.462,0,0,1-3.478-3.931,16.517,16.517,0,0,1-1.814-5.443,14.443,14.443,0,0,1,.3-5.746,14.79,14.79,0,0,1,2.117-4.687A15.094,15.094,0,0,1,70.4-28.548a13.142,13.142,0,0,1,4.839-1.663,9.966,9.966,0,0,1,4.839.3A13.936,13.936,0,0,1,83.1-28.4l-1.21-10.131a3.813,3.813,0,0,1,.756-3.024,5.554,5.554,0,0,1,3.024-1.21,7.326,7.326,0,0,1,2.571,0,8.511,8.511,0,0,1,1.512.3Zm-13,9.072a6.016,6.016,0,0,0,4.083-2.117,5.941,5.941,0,0,0,1.058-4.687,6.478,6.478,0,0,0-.756-2.419A6.051,6.051,0,0,0,82.5-21.441,4.979,4.979,0,0,0,80.532-22.5a4.319,4.319,0,0,0-2.419-.151,5.084,5.084,0,0,0-3.931,2.268A6.25,6.25,0,0,0,73.123-15.7a5.892,5.892,0,0,0,2.268,4.234A5.045,5.045,0,0,0,79.625-10.4" transform="translate(-64.196 42.875)"/></clipPath><clipPath id="l"><path class="a" d="M94.924-19.353a2.675,2.675,0,0,0,.756,1.21,5.277,5.277,0,0,0,1.361.907,7.064,7.064,0,0,0,2.117.6,10.081,10.081,0,0,0,3.024,0,11.327,11.327,0,0,0,2.419-.6c.756-.3,1.361-.454,1.966-.756a5.44,5.44,0,0,0,1.361-.756c.3-.151.6-.3.6-.454l3.629,5.443a12.053,12.053,0,0,0-1.21.907,15.409,15.409,0,0,1-2.268,1.21c-.907.454-1.966.756-3.175,1.21-1.21.3-2.571.6-4.234.907a12.968,12.968,0,0,1-5.443-.3,12.081,12.081,0,0,1-4.687-2.117,12.535,12.535,0,0,1-3.478-3.931,16.052,16.052,0,0,1-1.814-5.746,12.093,12.093,0,0,1,.454-5.746,12.577,12.577,0,0,1,2.419-4.687,12.729,12.729,0,0,1,4.083-3.327,16.317,16.317,0,0,1,5.443-1.663,13.627,13.627,0,0,1,4.99.151,13.33,13.33,0,0,1,3.931,1.512,14.762,14.762,0,0,1,2.722,2.571,8.827,8.827,0,0,1,1.21,3.327,6.711,6.711,0,0,1-.3,3.478,6.182,6.182,0,0,1-2.117,2.873,13.17,13.17,0,0,1-4.385,2.117A52.517,52.517,0,0,1,96.889-19.5Zm-1.058-5.292a52.631,52.631,0,0,0,5.292-.907,7.828,7.828,0,0,0,2.722-1.058,2.331,2.331,0,0,0,1.058-1.058,2.573,2.573,0,0,0,.151-1.058,2.486,2.486,0,0,0-1.21-1.814A4.594,4.594,0,0,0,98.855-31a5.035,5.035,0,0,0-2.268.756,4.806,4.806,0,0,0-1.512,1.512,4.456,4.456,0,0,0-.756,1.966,3.845,3.845,0,0,0-.454,2.117" transform="translate(-85.7 37.209)"/></clipPath><clipPath id="m"><path class="a" d="M272.374-100.116A45.01,45.01,0,0,1,275.1-114.48a83.889,83.889,0,0,1,3.629-8.468,42.214,42.214,0,0,0-16.935-14.062A57.222,57.222,0,0,0,237.6-142a73.6,73.6,0,0,0-32.056,7.409,71.5,71.5,0,0,0-25.4,19.2c-6.5,7.863-9.828,15.877-9.828,23.891,0,6.956,3.175,13.911,9.526,20.715,4.536,4.687,8.316,7.107,11.34,7.107a3.43,3.43,0,0,0,2.722-1.058q.907-.907,1.814-4.536a95.972,95.972,0,0,1,8.468-20.413,82.738,82.738,0,0,1,11.945-16.935c4.234-4.385,7.712-6.653,10.433-6.653,3.478,0,5.141,4.234,5.141,12.55,0,7.863-2.117,15.574-6.351,23.437a77.874,77.874,0,0,1-17.691,21.471c-4.99,4.234-7.56,7.409-7.56,9.526a4.6,4.6,0,0,0,1.815,4.083c1.21.907,3.327,1.512,6.2,1.966,15.121,3.024,22.681,11.643,22.681,26.008,0,6.653-1.966,13.609-5.746,21.169a84.792,84.792,0,0,1-15.423,21.32,75.383,75.383,0,0,1-15.272,12.55c-5.141,3.175-9.526,4.839-12.853,4.839h-.907c-3.024-5.292-4.536-11.794-4.536-19.2A70.691,70.691,0,0,1,179.381,4.52a50.023,50.023,0,0,1,9.526-17.54l1.21-1.21,1.058-1.058c3.175-2.722,4.839-4.687,4.839-5.746,0-2.873-1.966-4.234-5.746-4.234-9.224,0-18.447,2.722-27.52,8.014a70.565,70.565,0,0,0-22.53,20.715q-8.619,12.7-8.619,25.4c0,12.4,4.234,22.832,12.853,31,8.619,8.316,19.354,12.4,32.358,12.4,13.609,0,27.671-3.78,42.489-11.189,14.667-7.409,28.276-17.842,40.826-31.149a133.3,133.3,0,0,0,14.818-18.3A93.62,93.62,0,0,0,284.47-6.216,43.342,43.342,0,0,0,287.8-22.093c0-10.282-3.78-18.447-11.189-24.193s-18.447-9.072-33.266-9.828v-.6c9.224-3.931,17.086-7.863,23.286-12.248A41.965,41.965,0,0,0,280.69-84.692a18.776,18.776,0,0,1-3.478-2.571c-3.024-2.873-4.839-7.258-4.839-12.853" transform="translate(-131.6 142)"/></clipPath><clipPath id="n"><path class="a" d="M276.579-103a7.325,7.325,0,0,0-3.931-1.058c-1.058,0-3.327,1.21-6.5,3.629-5.595,4.083-10.131,6.2-13.609,6.2-3.175,0-4.99-1.361-5.444-4.234a8.125,8.125,0,0,0,3.175.756,16.257,16.257,0,0,0,8.014-2.722,48.874,48.874,0,0,0,9.375-7.409,41.2,41.2,0,0,0,8.77-11.794,27.3,27.3,0,0,0,3.024-11.794c0-4.839-1.21-8.619-3.78-11.341A13.681,13.681,0,0,0,265.239-147c-6.048,0-12.4,2.117-18.9,6.5a50.123,50.123,0,0,0-13.457,13.609,55.931,55.931,0,0,0-3.78,6.5c0,.151.151.151.151.3A36.073,36.073,0,0,1,235.3-99.521a39.993,39.993,0,0,1-3.931,17.691A20.486,20.486,0,0,0,241.8-79.41a28.632,28.632,0,0,0,8.014-1.361,55.276,55.276,0,0,0,8.921-3.629,58.524,58.524,0,0,0,9.224-5.9,68.365,68.365,0,0,0,8.468-7.258c1.361-1.361,1.966-2.419,1.966-3.327,0-.6-.6-1.361-1.814-2.117m-30.241-1.966A40.093,40.093,0,0,1,248-115.1a93.182,93.182,0,0,1,4.385-11.794c3.024-6.5,5.292-9.828,6.8-9.828,1.058,0,1.663,1.21,1.663,3.78a48.242,48.242,0,0,1-.907,8.921,44.437,44.437,0,0,1-2.571,8.619,34.894,34.894,0,0,1-5.746,10.433,19.972,19.972,0,0,1-4.839,4.385,35.148,35.148,0,0,1-.454-4.385" transform="translate(-229.1 147)"/></clipPath></defs><g transform="translate(-0.971 147)"><g class="b" transform="translate(34.062 -83.325)"><path class="c" d="M17.282-83.892l215.805-26.571,11.068,89.894L28.35,6Z" transform="translate(-25.709 102.035)"/></g><g class="d" transform="translate(0.971 -120.89)"><path class="e" d="M-4.6-116.865,145.17-135.306l9.313,75.637L4.71-41.228Z" transform="translate(-3.825 126.878)"/></g><g class="f" transform="translate(19.674 -91.772)"><path class="g" d="M8.34-115.475H65.889v44.417H8.34Z" transform="translate(-15.901 107.915)"/></g><g class="h" transform="translate(64.976 -95.293)"><path class="g" d="M38.3-117.8H81.545v41.9H38.3Z" transform="translate(-45.86 110.244)"/></g><g class="i" transform="translate(96.37 -99.167)"><path class="g" d="M59.063-120.366h42.244v42.589H59.063Z" transform="translate(-66.623 112.805)"/></g><g class="j" transform="translate(56.115 -40.458)"><path class="g" d="M32.44-81.539H79.054v48.5H32.44Z" transform="translate(-40.001 73.979)"/></g><g class="k" transform="translate(88.376 -51.702)"><path class="g" d="M53.775-88.975H96.6v55.9H53.775Z" transform="translate(-61.336 81.415)"/></g><g class="l" transform="translate(117.028 -47.605)"><path class="g" d="M72.725-86.266h46.837v48.243H72.725Z" transform="translate(-80.285 78.705)"/></g><g class="m" transform="translate(152.071 -52.188)"><path class="g" d="M95.9-89.3h50.465V-28.97H95.9Z" transform="translate(-103.46 81.736)"/></g><g class="n" transform="translate(191.082 -56.592)"><path class="g" d="M121.7-92.209h46.723v48.1H121.7Z" transform="translate(-129.26 84.649)"/></g><g class="o" transform="translate(96.572 10.445)"><path class="e" d="M59.2-47.875h43.781V7.435H59.2Z" transform="translate(-66.756 40.315)"/></g><g class="p" transform="translate(129.087 19.012)"><path class="e" d="M80.7-42.209h41.582V.754H80.7Z" transform="translate(-88.26 34.649)"/></g><g class="q" transform="translate(198.492 -139.44)"><path class="r" d="M126.6-147H297.918V82.381H126.6Z" transform="translate(-134.16 139.44)"/></g><g class="s" transform="translate(345.919 -147)"><path class="r" d="M224.1-152h65.473v82.71H224.1Z" transform="translate(-231.66 144.44)"/></g></g></svg>