<svg xmlns="http://www.w3.org/2000/svg" xmlns:xlink="http://www.w3.org/1999/xlink" width="61.038" height="74.539" viewBox="0 0 61.038 74.539"><defs><style>.a,.b{fill:none;}.b{clip-rule:evenodd;}.c{clip-path:url(#a);}.d{clip-path:url(#b);}.e{clip-path:url(#c);}.f{fill:#0d0091;}.g{clip-path:url(#e);}.h{clip-path:url(#g);}.i{fill:#110091;}</style><clipPath id="a"><path class="a" d="M61.722-181.338h.07c.206,0,.406.013.6.021l-.4,1.37-.009.144q-.391,7.084,6.935,6.782t7.288-4.636l0-.088v-1.8l.077.015a5.3,5.3,0,0,1,.945.21c1.766.773,6.994,2.24,8.072,4.087.432.74,3.086,9.92,4.5,14.6q.077.257.161.5v.926l-.015.056q-.741,2.774,1.974,4.536a10.836,10.836,0,0,0,3.954,1.621.489.489,0,0,1,.089.266c0,.451-2.095,11.067-5.353,11.542-.7.1-4.36-.4-5.56-1.378l.018.105.017.1q.395,2.46-.2,2.557-7.408,1.215-42.076.751-.206-18.408,1.865-24.518c3.532-10.419,7.427-13.978,8.789-14.282,1.193-.267,5.332-1.915,6.489-2.352C60.7-180.482,60.861-181.338,61.722-181.338Z" transform="translate(-42.783 181.338)"/></clipPath><clipPath id="b"><path class="a" d="M-1806-306.323H-558.49V-1085H-1806Z" transform="translate(1806 1085)"/></clipPath><clipPath id="c"><path class="b" d="M62.8-191.124c.113-.224.413-.2.611-.093.594.434-.028,1.276-.192,1.806a4.717,4.717,0,0,1-2.17,2.514c.084,1.022.179,2.042.214,3.067,1.3,1.608,3.48,2.194,5.419,2.646a6.3,6.3,0,0,0,7.511-3.9,3.306,3.306,0,0,1-1.2-3.621c.03-.085.163-.123.21-.028.32.659.278,1.463.642,2.115,3.5.335,8.007,1.654,10.3,4.482a16.508,16.508,0,0,1,1.917,4.895c1.067,3.381,1.916,6.83,2.962,10.214l.123-.64a17.013,17.013,0,0,0,.417-5.345l0-.086c-.075-1.427-.521-4.08.585-5.043a4.52,4.52,0,0,1,3.707-1.027c2.235-.995,4.164-2.67,6.545-3.323.733-.151,1.787.028,1.613,1.022-.48,1.739-2.49,2.414-3.864,3.311.881.239,1.954,1.31,1.266,2.244a.3.3,0,0,1-.017.039,1.125,1.125,0,0,1,.5,1.4c-.014.141-.051.02.032.148.63.594.351,2.25-.6,2.306a2.3,2.3,0,0,1-1.08,1.975c-.688.461-1.682.481-2.252,1.112a17.8,17.8,0,0,0-1.944,7.842c.881.33,1.672,1.317.871,2.154l-.048.005a23.169,23.169,0,0,0-.889,3.854A15.48,15.48,0,0,1,91.367-149c-1.453,2.435-5.361,2.049-7.33.477a3.57,3.57,0,0,1-.056,1.22c-.195.43-.67.244-.717-.179-1.041.585-1.286-1.347-.129-1.041-.089-1.4-.141-2.8-.182-4.2-1.31.424-1.366-1.75-.026-1.315l0-.6a102.986,102.986,0,0,1,.649-13.8c.056-.342.151-.673.207-1.013.006-.035.061-.025.061.009.094,6.4-.324,12.814.112,19.217.363.111.508.528.777.771a3.9,3.9,0,0,0,2.205.913c2.226.312,3.188-.368,4.179-2.3a.545.545,0,0,1-.779-.7l.008-.014a.534.534,0,0,1,.981.361,15.9,15.9,0,0,0,1.9-5.224l.052-.218a7.867,7.867,0,0,1,.88-2.366c-2.743-.7-5.426-2.83-5.855-5.753-.7,2.189-1.64,4.328-2.539,6.457a14.149,14.149,0,0,1-.791,2.223.21.21,0,0,1-.38-.05c-.358-1.6.727-3.124,1.29-4.565.46-.815,1.78-4.535,2.6-4.543-.92-4.033-2.146-8.036-3.315-12.018-1.13-5.378-3.432-6.415-8.309-8.108.88,4.485,4.9,8.825,2.759,13.529l-.052.122a2.433,2.433,0,0,0-.248,1.61,7.269,7.269,0,0,0,.755,1.529c1.508,2.806.47,6.083-.113,9.005-.737,3.427-1.464,6.857-2.226,10.279a18.546,18.546,0,0,1-.474,2.047c-.117.341-.7.309-.663-.089a20.577,20.577,0,0,1,.448-2.285c.948-4.912,2.231-9.766,3.047-14.7.525-3.652-1.541-4.213-1.464-6.573.281-1.207,1.024-2.284.981-3.57.165-3.937-2.7-7.185-3.055-11.014l-.625-.223q-.468-.168-.935-.34c1.637,11.452,1.14,23.154.322,34.662-.167.531-.008,5.96-.709,5.631-.035.207-.145.411-.385.41-2.173.02-4.347.054-6.521.08-1.045-.1-2.482.3-3.372-.3-1.027-.293-1.145-4.794-1.419-5.786l-.107-.721c-1.745-11.781-3.306-23.806-2.052-35.7-1.745.067-2.1,1.951-2.234,3.322-.324,3.027-2.279,5.634-2.372,8.7a5.189,5.189,0,0,0,.429,2.144c.788,1.671,2.149,3.6,1.132,5.469-1.2,1.453-1.1,1.835-.658,3.631a146.243,146.243,0,0,0,5.27,17.364c-.427,2.224-2.993-6.033-3.234-6.656-1.136.571-1.756-1.325-.454-1.46-.837-2.8-1.607-5.625-2.248-8.479l-.017-.08c-.283-1.319-.84-2.863.1-4.033,2.426-2.454-1.6-5.2-1.094-8.17a.7.7,0,0,1-1.093-.564.7.7,0,0,1,1.2-.461c.409-2.412,1.831-4.518,2.262-6.922l.019-.113a8,8,0,0,1,.6-2.519,11.487,11.487,0,0,1-1.8.931c1.112.93-1.042,1.778-.864.342-6.1,1.766-7.48,4.228-9.72,9.883a.562.562,0,0,1,.885.638.56.56,0,0,1-1.071-.2l-.1.244A48.291,48.291,0,0,0,42.488-164.7c1.219-.172.908,1.776-.2,1.227a58.673,58.673,0,0,0-.4,9.346c1.028-.539,1.059,1.293.01.771.038,2.555.095,5.109.137,7.664a.422.422,0,0,1-.843,0c-.1-3.925-.276-7.858-.192-11.784a44.161,44.161,0,0,1,4.8-19.488c2.582-7.029,6.148-7.829,12.71-9.872.606-.9,1.9-1.75,2.955-1.185A22.9,22.9,0,0,0,62.8-191.124Zm-11.242,24.5a.078.078,0,0,1,.152.021,28.271,28.271,0,0,1-.069,3.32c-.046.676-.1,1.351-.149,2.023q-.189,2.657-.305,5.32a.69.69,0,0,1,.084-.029.748.748,0,0,1,.4,0,.743.743,0,0,1,.313.175l.019.018a.565.565,0,0,1,.156.242.567.567,0,0,1,.065.267v.024a.746.746,0,0,1-.1.38.76.76,0,0,1-.27.27.751.751,0,0,1-.38.1l-.044,0a.554.554,0,0,1-.283-.063l-.013,0q-.05,1.35-.08,2.7c-.018.785-.042,1.57-.058,2.355l-.007.393-.014.868a3.088,3.088,0,0,1-.124,1.035l-.015.039c-.087.225-.155.538-.389.663a.4.4,0,0,1-.545-.132.438.438,0,0,1,.121-.507c0-.007-.007-.014-.01-.021-.021-.06-.052-.116-.07-.176a2.033,2.033,0,0,1-.043-.591c0-.349.012-.7.021-1.047q.031-1.113.073-2.225c.1-2.487.283-4.975.5-7.455l.072-.837c.1-1.113.195-2.228.335-3.335.007-.053.013-.106.02-.159a.741.741,0,0,1-.2-.148,2.933,2.933,0,0,1-.485-.885l-.029-.069a4.816,4.816,0,0,1-.33-.992l-.006-.032c-.03-.147-.089-.408.067-.479a.1.1,0,0,1,.159.071.039.039,0,0,1-.005.032c.064.1.165.19.228.282l.217.311.107.156c.136.2.282.392.432.581A19.3,19.3,0,0,1,51.556-166.626Zm8.909,18.514a.424.424,0,0,1,.714.3.424.424,0,0,1-.714.3l-.014-.01-.013-.011a.392.392,0,0,1-.011-.541l.011-.009Zm-11.815-.767a.669.669,0,0,1,.344.093l.138.107a.676.676,0,0,1,.175.3l.025.181a.514.514,0,0,1-.059.263.516.516,0,0,1-.141.22.506.506,0,0,1-.219.141.5.5,0,0,1-.239.059H48.65a.67.67,0,0,1-.344-.093l-.138-.106a.682.682,0,0,1-.175-.3c-.008-.06-.016-.121-.025-.181a.52.52,0,0,1,.059-.263.515.515,0,0,1,.141-.22.507.507,0,0,1,.22-.141.508.508,0,0,1,.24-.059Zm30.929-1.258.173.023a.654.654,0,0,1,.389.3.484.484,0,0,1,.077.242.494.494,0,0,1-.012.259.488.488,0,0,1-.116.222.452.452,0,0,1-.069.085.74.74,0,0,1-.221.211.465.465,0,0,1-.232.074.32.32,0,0,1-.166,0,.465.465,0,0,1-.231-.074l-.126-.1c-.037-.043-.071-.087-.1-.134l-.064-.152a.685.685,0,0,1,0-.349.309.309,0,0,1,.016-.059l.014-.038a.686.686,0,0,1,.126-.222l.026-.034a.448.448,0,0,1,.041-.049,1.52,1.52,0,0,1,.15-.118A.654.654,0,0,1,79.578-150.137Zm-22.427-.423a.535.535,0,0,1,.269.073l.108.084a.537.537,0,0,1,.138.236c.006.048.013.1.019.142a.4.4,0,0,1-.046.206.4.4,0,0,1-.11.172.407.407,0,0,1-.172.11.4.4,0,0,1-.186.046h-.02a.529.529,0,0,1-.27-.073l-.108-.083a.54.54,0,0,1-.138-.236c-.006-.048-.013-.095-.019-.142a.4.4,0,0,1,.046-.206.4.4,0,0,1,.11-.172.4.4,0,0,1,.172-.11.4.4,0,0,1,.184-.047Zm-4.386-.219a.67.67,0,0,1,.391.118.662.662,0,0,1,.247.288c.015.034.029.068.042.1a.528.528,0,0,1-.011.452.6.6,0,0,1-.387.249.634.634,0,0,1-.389,0,.945.945,0,0,1-.177-.079.8.8,0,0,1-.229-.234.585.585,0,0,1-.081-.3.587.587,0,0,1,.081-.3A.6.6,0,0,1,52.766-150.779Zm-7.009.128a.54.54,0,0,1,.433.217.543.543,0,0,1,.1.482.552.552,0,0,1-.385.386.887.887,0,0,1-.387.009.648.648,0,0,1-.293-.16.4.4,0,0,1-.116-.355.406.406,0,0,1,.157-.273v0l-.032.024.036-.033a.226.226,0,0,0,.011-.021.55.55,0,0,1,.2-.2A.545.545,0,0,1,45.757-150.652Zm40.7-2a.546.546,0,0,1,.288,0,.4.4,0,0,1,.185.1.406.406,0,0,1,.129.134l.011.019a.565.565,0,0,1,.055.418.536.536,0,0,1-.379.379h-.006l-.006,0a.4.4,0,0,1-.215.009.4.4,0,0,1-.2-.064.642.642,0,0,1-.194-.193.4.4,0,0,1-.064-.2.276.276,0,0,1,0-.143.4.4,0,0,1,.064-.2l.085-.109.009-.007A.537.537,0,0,1,86.46-152.655Zm-6.657-3.5a.673.673,0,0,1,0,1.345A.673.673,0,0,1,79.8-156.156Zm-31.737-.17a.518.518,0,0,1,.273.012l.163.069.139.107a.438.438,0,0,1,.062.077l.03.039a.6.6,0,0,1,.091.193.667.667,0,0,1,0,.353.627.627,0,0,1-.068.16.657.657,0,0,1-.1.128l-.019.019a.516.516,0,0,1-.22.142.337.337,0,0,1-.173.046.517.517,0,0,1-.273-.012l-.163-.069-.139-.107-.107-.139-.034-.081-.035-.082-.024-.182a.518.518,0,0,1,.059-.264.346.346,0,0,1,.088-.151.343.343,0,0,1,.123-.123.344.344,0,0,1,.151-.088A.338.338,0,0,1,48.066-156.326Zm42.874-.961a.393.393,0,0,1,.2.046.447.447,0,0,1,.063.027.528.528,0,0,1,.19.19.4.4,0,0,1,.063.2.394.394,0,0,1,0,.192l-.006.019a.514.514,0,0,1-.065.145.081.081,0,0,1-.01.015.517.517,0,0,1-.176.171.524.524,0,0,1-.261.071.528.528,0,0,1-.447-.257.526.526,0,0,1-.032-.072c-.009-.021-.023-.048-.03-.073a.538.538,0,0,1,0-.282.4.4,0,0,1,.095-.18.4.4,0,0,1,.149-.136.527.527,0,0,1,.245-.072Zm-36.6-.658a.549.549,0,0,1,.274-.006l.023.006a.423.423,0,0,1,.19.1.431.431,0,0,1,.143.157.558.558,0,0,1,.076.281.557.557,0,0,1-.076.281.558.558,0,0,1-.2.2l-.073.035a.394.394,0,0,1-.2.062.264.264,0,0,1-.14,0,.26.26,0,0,1-.133-.036.26.26,0,0,1-.116-.068.393.393,0,0,1-.135-.147l-.054-.126-.018-.14.018-.139.029-.069a.552.552,0,0,1,.143-.246A.557.557,0,0,1,54.341-157.945Zm32.791-1.116a.548.548,0,0,1,.288-.013.353.353,0,0,1,.182.05.356.356,0,0,1,.159.093.547.547,0,0,1,.186.2l.073.173a.733.733,0,0,1,0,.389.535.535,0,0,1-.127.242.358.358,0,0,1-.128.128.535.535,0,0,1-.212.119l-.022.006-.008,0h-.007a.481.481,0,0,1-.1.014.549.549,0,0,1-.288-.013l-.172-.073-.146-.113L86.7-158a.532.532,0,0,1-.085-.269.362.362,0,0,1,0-.192.358.358,0,0,1,.049-.182.539.539,0,0,1,.149-.233l.146-.113ZM44.96-161.429a.562.562,0,0,1,.3,0l.134.056a.424.424,0,0,1,.158.146.417.417,0,0,1,.1.192.637.637,0,0,1,0,.362.7.7,0,0,1-.173.3.578.578,0,0,1-.544.142.475.475,0,0,1-.147-.064.491.491,0,0,1-.239-.415.392.392,0,0,1,0-.056.43.43,0,0,1-.011-.118l.02-.149v0a.553.553,0,0,1,.143-.246.559.559,0,0,1,.224-.137l.022-.007Zm49.894-14.853c-.181-1.481-.86-3.075-2.931-2.205l-.154.058a2.985,2.985,0,0,0-1.422.9c-.215.309-.142.908-.172,1.268a14.945,14.945,0,0,0,.078,3.51,16.869,16.869,0,0,1-1.538,8.057,9.956,9.956,0,0,0,4.771,4.357,37.468,37.468,0,0,1,.94-6.236l.017-.09a5.726,5.726,0,0,1,.873-2.652c1.239-1.346,2.943-.584,3.758-2.746a.177.177,0,0,1,.13-.326c.715.127.831-1.2.342-1.519-.51-.311,0-.885-.214-1.3-.121-.178-.382-.184-.5-.39-.314-.757,1.257-1.243-.59-2.1a3.533,3.533,0,0,0-1.182-.053c-.561.052-1.007.448-1.519.572.558,1.447-.851,2.84-2.122,1.684-.692.654-1.466,2.146.216,1.451a11.744,11.744,0,0,1,2.488-1.6l.02-.006c.355-.116,1.908-.871,1.831-.218-.582.562-1.541.555-2.214,1.011-.934.432-1.531,1.479-2.649,1.464-.258,1.566,1.518.613,2.179.181l.183-.1a6.338,6.338,0,0,1,2.967-.977.233.233,0,0,1,0,.465c-1.418.009-2.571.9-3.759,1.554-.117.914,1.221.514,1.728.379.532-.075,1.387-.651,1.853-.346.182.468-.62.433-.9.575,1.274.612.158,1-.184.057l-.1.034c-.853.287-2.922.877-2.676-.569a1.725,1.725,0,0,1-1.038.144c-.861,1.273-2.233.781-.238-.087a.83.83,0,0,1-.168-1.318c-1.571-.1-.4-1.744.245-2.294-.061-.062-.121-.125-.176-.189a3.467,3.467,0,0,1-1.19.325c-.4.036-.493-.65-.1-.706a3.271,3.271,0,0,0,1.195-.388c.569-.246.763.811,1.333.848C94.582-175.737,94.792-176.01,94.854-176.282ZM81.631-162.65a.53.53,0,0,1,.36.149.514.514,0,0,1,.149.359.386.386,0,0,1-.044.2.383.383,0,0,1-.105.163.527.527,0,0,1-.36.149.531.531,0,0,1-.36-.149.516.516,0,0,1-.149-.36.386.386,0,0,1,.044-.2.378.378,0,0,1,.091-.149l.014-.014A.524.524,0,0,1,81.631-162.65Zm4.167-3.137h.022a.644.644,0,0,1,.325.088l.13.1a.642.642,0,0,1,.165.284.639.639,0,0,1,0,.342.445.445,0,0,1-.073.184.644.644,0,0,1-.228.227.629.629,0,0,1-.319.087.629.629,0,0,1-.319-.087.637.637,0,0,1-.227-.227.437.437,0,0,1-.074-.184.639.639,0,0,1,0-.342.639.639,0,0,1,.149-.267l.017-.018a.478.478,0,0,1,.207-.133A.483.483,0,0,1,85.8-165.787Zm-31.8.035a.275.275,0,0,1,.146,0,.411.411,0,0,1,.2.065l.111.086.032.039a.633.633,0,0,1,.124.226.414.414,0,0,1,.009.214.268.268,0,0,1-.036.135.265.265,0,0,1-.069.118.27.27,0,0,1-.1.1.4.4,0,0,1-.182.1l-.142.019-.056-.007a.41.41,0,0,1-.065-.007l-.021,0-.02-.005a.412.412,0,0,1-.076-.03.275.275,0,0,1-.121-.071.413.413,0,0,1-.141-.154l-.009-.021a.384.384,0,0,1-.031-.071.262.262,0,0,1-.034-.128.384.384,0,0,1,0-.181l.006-.02.051-.121a.62.62,0,0,1,.09-.116c.021-.019.074-.06.1-.081l.018-.012A.411.411,0,0,1,53.995-165.752Zm-7.117-1.171a.517.517,0,0,1-.225.855l-.043.011a.491.491,0,0,1-.6-.6l.011-.042A.516.516,0,0,1,46.878-166.923Zm44.529-2.834a.041.041,0,0,1,.069-.028,5.54,5.54,0,0,0,.909.85,6.446,6.446,0,0,0,1.195.348.147.147,0,0,1,0,.281A2,2,0,0,1,91.407-169.757Zm-36.039-.058a.491.491,0,0,1,.257-.011.315.315,0,0,1,.162.044.323.323,0,0,1,.142.083.329.329,0,0,1,.116.116.483.483,0,0,1,.115.218l.022.171-.022.171-.065.153-.059.08c-.048.064-.056.065-.172.151a.476.476,0,0,1-.239.076.313.313,0,0,1-.171,0,.318.318,0,0,1-.162-.044.326.326,0,0,1-.142-.083.489.489,0,0,1-.165-.181l-.065-.153-.023-.171.023-.171v-.005a.639.639,0,0,1,.163-.279l.128-.1A.6.6,0,0,1,55.367-169.815Zm30.866.128a.537.537,0,0,1,.518.137.537.537,0,0,1,.137.518.537.537,0,0,1-.372.372.525.525,0,0,1-.163.02.514.514,0,0,1-.258-.07l-.1-.08a.378.378,0,0,1-.106-.165.381.381,0,0,1-.044-.2v-.013a.189.189,0,0,1,.009-.075.288.288,0,0,1,.011-.076A.537.537,0,0,1,86.233-169.687Zm-39.485-1.791a.32.32,0,0,1,.165.037.31.31,0,0,1,.138.089.314.314,0,0,1,.089.138.321.321,0,0,1,.037.165.423.423,0,0,1-.058.216l-.067.087a.419.419,0,0,1-.188.11l-.042.015a.386.386,0,0,1-.188.015.381.381,0,0,1-.186-.07.354.354,0,0,1-.129-.129l-.036-.086a.594.594,0,0,1-.013-.1.089.089,0,0,0,0-.013.685.685,0,0,1,.014-.114.437.437,0,0,1,.078-.149.314.314,0,0,1,.118-.108l0,0,0,0,.047-.032A.424.424,0,0,1,46.749-171.478Zm34.144-.47a.58.58,0,0,1,.3.08l.009,0a.582.582,0,0,1,.208.208.572.572,0,0,1,.079.293.57.57,0,0,1-.079.293.583.583,0,0,1-.208.208l-.009,0a.587.587,0,0,1-.3.08.586.586,0,0,1-.295-.08.591.591,0,0,1-.29-.506.589.589,0,0,1,.29-.505A.579.579,0,0,1,80.893-171.948Zm-27.459-.765h.018a.374.374,0,0,1,.2.044.385.385,0,0,1,.164.105l.1.081.028.023.014.012a.525.525,0,0,1,.134.231c.008.051.014.1.02.152a.5.5,0,0,1-.149.362.391.391,0,0,1-.165.106.388.388,0,0,1-.2.044.553.553,0,0,1-.383-.154l-.035-.041-.083-.1a.506.506,0,0,1-.13-.224c-.007-.046-.013-.091-.019-.136a.511.511,0,0,1,.149-.359A.515.515,0,0,1,53.434-172.713ZM50.1-174.106a.534.534,0,0,1,0,1.067A.534.534,0,0,1,50.1-174.106Zm34.573-1.5h.022a.629.629,0,0,1,.319.087l.128.1a.642.642,0,0,1,.163.279c.007.056.015.112.023.168a.478.478,0,0,1-.055.244.475.475,0,0,1-.13.2.471.471,0,0,1-.2.13.475.475,0,0,1-.243.055.63.63,0,0,1-.319-.087l-.128-.1a.633.633,0,0,1-.155-.255l-.007-.024-.023-.169a.476.476,0,0,1,.055-.243.472.472,0,0,1,.13-.2.474.474,0,0,1,.2-.13A.474.474,0,0,1,84.67-175.6Zm-3.1-2a.341.341,0,0,1,.172.038.336.336,0,0,1,.143.092.431.431,0,0,1,.138.315.431.431,0,0,1-.138.315.447.447,0,0,1-.2.114l-.118.016a.458.458,0,0,1-.314-.13l-.049-.045a.388.388,0,0,1-.112-.27.29.29,0,0,1,.033-.147.288.288,0,0,1,.079-.123l.049-.045A.481.481,0,0,1,81.573-177.6Zm19.623-3.558c.434-.529.181-.906-.471-.775a10.518,10.518,0,0,0-3.174,1.373c-1.081.571-2.2,1.042-3.3,1.579a3,3,0,0,1,1.052,1.216,3.222,3.222,0,0,1,1.82-.6C98.293-179.487,100.227-179.743,101.2-181.157ZM49.865-179.4a.7.7,0,0,1,.332.084l.022.012.142.11a.526.526,0,0,1,.145.226.535.535,0,0,1,.06.271.532.532,0,0,1-.06.27.522.522,0,0,1-.145.226.41.41,0,0,1-.149.12l-.168.071a.824.824,0,0,1-.2.026.684.684,0,0,1-.346-.094l-.139-.107a.517.517,0,0,1-.142-.221.512.512,0,0,1-.059-.241v-.024a.142.142,0,0,1,0-.017c.008-.062.017-.124.025-.186a.528.528,0,0,1,.126-.239.226.226,0,0,1,.064-.079.7.7,0,0,1,.309-.181Zm30.7-1.752a.489.489,0,0,1,.249.067l.1.077a.487.487,0,0,1,.127.218l.018.131a.376.376,0,0,1-.043.19.37.37,0,0,1-.1.159.363.363,0,0,1-.159.1.367.367,0,0,1-.19.042.485.485,0,0,1-.249-.068l-.1-.077a.492.492,0,0,1-.12-.2l-.006-.021-.018-.131a.368.368,0,0,1,.042-.19.37.37,0,0,1,.1-.159.37.37,0,0,1,.159-.1.366.366,0,0,1,.17-.043Zm-26.835-.717h.023a.725.725,0,0,1,.368.1l.147.114a.727.727,0,0,1,.188.321l.026.193a.545.545,0,0,1-.063.28.54.54,0,0,1-.151.235.539.539,0,0,1-.234.15.544.544,0,0,1-.28.063.718.718,0,0,1-.368-.1l-.147-.114a.739.739,0,0,1-.187-.321l-.026-.194a.547.547,0,0,1,.063-.28.542.542,0,0,1,.15-.234.54.54,0,0,1,.235-.151A.547.547,0,0,1,53.73-181.868Zm24.483-1.819a.345.345,0,0,1,.18,0,.5.5,0,0,1,.252.081l.137.106.006.007a.669.669,0,0,1,.172.3l.024.178a.506.506,0,0,1-.058.257.5.5,0,0,1-.122.2l-.022.021a.506.506,0,0,1-.218.14.332.332,0,0,1-.171.046.509.509,0,0,1-.27-.012l-.162-.068-.017-.01a.667.667,0,0,1-.331-.575.668.668,0,0,1,.331-.576l.017-.009A.5.5,0,0,1,78.213-183.687Z" transform="translate(-40.986 191.294)"/></clipPath><clipPath id="e"><path class="b" d="M97.568-269.029q-.649-1.808-1.371-3.588a37.071,37.071,0,0,0-1.473-3.435,11.117,11.117,0,0,0-13.059-5.712,10.8,10.8,0,0,0-6.63.135c-2.855,1.069-6.336,5.273-7.526,7.162-2.627,4.171-4.267,9.721-2.522,14.541a10.87,10.87,0,0,0,.847,1.775,6.919,6.919,0,0,1-.707.807,24.708,24.708,0,0,0-2.239,2.4,11.938,11.938,0,0,0-1.642,2.812,6.808,6.808,0,0,0,.214,5.931,5.477,5.477,0,0,0,4.282,2.9c.092.013.184.025.277.034a5.193,5.193,0,0,0,.858,1.068c1.013.966,3.427,1.461,4.8,1.493l.213.17a15.382,15.382,0,0,0,2.694,1.808,3.108,3.108,0,0,0,2.2.357,1.19,1.19,0,0,0,1.126-.006,2.984,2.984,0,0,0,1.167-1.3,6.976,6.976,0,0,0,.3-3.952c-.172-1.474-.337-2.949-.5-4.424a18.3,18.3,0,0,0-.618-3.436,7.9,7.9,0,0,0-.724-1.648.271.271,0,0,0-.006-.128,1.57,1.57,0,0,0-.553-.72c-.032-.028-.063-.058-.094-.087a2.974,2.974,0,0,0-.395-.381l-.161-.166a13.448,13.448,0,0,1-1.236-1.482c-.362-.509-.688-1.041-1-1.583s-.525-1.159-.841-1.706a.086.086,0,0,0-.134-.017.431.431,0,0,0-.148.332l-.049.007a.332.332,0,0,0-.406-.285,1.6,1.6,0,0,1-.9-.031c.051-.338.1-.677.144-1.016.084-.624.163-1.251.23-1.877a2.713,2.713,0,0,1,.483.167,2.327,2.327,0,0,1,.621.4c.179.165.3.388.523.5a.333.333,0,0,0,.482-.372c-.15-.577-1-.908-1.522-1.017a2.422,2.422,0,0,0-.548-.05q.062-.6.109-1.207.022-.286.04-.572a2.992,2.992,0,0,1,1.269-.1c.14.112.28.222.415.334.43.356.857.714,1.279,1.078l.114.1a.315.315,0,0,0,.521-.3c-.344-2.51,1.189-4.506,2.984-6.052,1.987-1.713,5.6-1.912,7.964-4.878,1.088.222,3.519.882,4.522,2.484,1.4,2.245,1.221,4.257,1.328,6.8a29.153,29.153,0,0,1-.2,7.72,7.179,7.179,0,0,1-4.211,5.207l-.168.066a6.755,6.755,0,0,1-3.636.331,9.484,9.484,0,0,1-3.591-1.633c-.065-.043-.159.046-.11.11a6.741,6.741,0,0,0,6.678,2.1q.161-.037.321-.08a6.08,6.08,0,0,0,.259,4.557,6.132,6.132,0,0,0,1.767,2.215,9.45,9.45,0,0,1,2.422,2.1A1.511,1.511,0,0,1,91.58-240a.446.446,0,0,0-.089.7c.086.066.172.134.259.2a10.335,10.335,0,0,0,2.107,1.121c1.986.236,3.322-1.226,4.177-2.95a6.912,6.912,0,0,0-.364-6.418c-.888-1.547-2.637-3.071-1.942-5.028a5.656,5.656,0,0,1,1.248-1.834c.562-.613,1.167-1.187,1.706-1.822a6.488,6.488,0,0,0,1.276-2.107,6.364,6.364,0,0,0-.1-3.561C99.24-264.182,98.43-266.626,97.568-269.029Z" transform="translate(-60.672 282.227)"/></clipPath><clipPath id="g"><path class="b" d="M129.568-226.159a2.692,2.692,0,0,1-1.131-.871.522.522,0,0,1-.106-.406.586.586,0,0,1,.228-.367.545.545,0,0,1,.409-.111.512.512,0,0,1,.345.228l.02.028a1.782,1.782,0,0,0,.653.548,1.471,1.471,0,0,0,.808.142,2.169,2.169,0,0,0,1.317-.755c.049-.05.1-.1.148-.155a.233.233,0,0,1,.123-.095.264.264,0,0,1,.17,0,.27.27,0,0,1,.134.1.248.248,0,0,1,.042.164,1.7,1.7,0,0,1-.56,1.074,2.492,2.492,0,0,1-1.22.623,2.474,2.474,0,0,1-1.381-.152Zm1.6-6.387c.5.3,1.26,1.012.723,1.764-.632.664-1.543-.1-1.991-.441-.416-.267-.883.419-.5.731,3.242,2.4,4.557-1.974,2.018-2.411C131.143-232.951,131.039-232.64,131.17-232.546Zm-5.809-2.793c.055-.685,1.1-.841,1.2-.163a2.776,2.776,0,0,1-.29,1.712.51.51,0,0,1-.968-.2A5.522,5.522,0,0,1,125.361-235.339Zm7.939-.3a.556.556,0,0,1,.607-.247c.786.23.554,1.346.278,1.889a.547.547,0,0,1-.854.11,1.325,1.325,0,0,1-.074-1.687A.573.573,0,0,1,133.3-235.642Zm-7.038-2.694.124-.022c.384-.066.862-.13,1.133.179a.449.449,0,0,1,0,.625c-.341.276-.717.169-1.126.192a4.476,4.476,0,0,0-.984.168,6.684,6.684,0,0,0-1.9.982c-.08.053-.161-.048-.123-.123a3.92,3.92,0,0,1,1.71-1.595A4.228,4.228,0,0,1,126.262-238.336Zm6.322-.308.1.019c1.034.216,2.377.648,2.867,1.664.019.144,0,.174-.017.195l-.005.007a.134.134,0,0,1-.086.06l-.052-.013a2.968,2.968,0,0,1-.574-.224l-.186-.092a5.136,5.136,0,0,0-.666-.284,7.836,7.836,0,0,0-1.516-.335.622.622,0,0,1-.3-.115.457.457,0,0,1-.17-.259.465.465,0,0,1,.052-.389.492.492,0,0,1,.24-.207A.563.563,0,0,1,132.584-238.644Z" transform="translate(-123.38 238.656)"/></clipPath></defs><g class="e" transform="translate(0 28.46)"><g class="d" transform="translate(-578.057 -279.706)"><path class="f" d="M35.986-196.294h64.168v49.209H35.986Z" transform="translate(540.506 474.435)"/></g></g><g class="g" transform="translate(6.161 0)"><g class="d" transform="translate(-584.218 -251.246)"><path class="f" d="M55.672-287.227H98.307v47.4H55.672Z" transform="translate(526.981 536.908)"/></g></g><g class="h" transform="translate(25.787 13.637)"><g class="d" transform="translate(-603.844 -264.883)"><path class="i" d="M118.38-243.656h15.3v15.817h-15.3Z" transform="translate(483.899 506.974)"/></g></g></svg>