<svg width="1200" height="237" viewBox="0 0 1200 237" fill="none" xmlns="http://www.w3.org/2000/svg">
<rect y="24" width="1200" height="185" fill="#F5F5FF"/>
<path d="M416.36 112.822L422.72 129.622H427.184L433.544 112.822H429.92L424.952 125.95L419.984 112.822H416.36ZM440.248 117.046C436.312 117.046 433.624 119.95 433.624 123.574C433.624 127.198 436.312 130.102 440.248 130.102C444.184 130.102 446.872 127.198 446.872 123.574C446.872 119.95 444.184 117.046 440.248 117.046ZM440.296 127.222C438.28 127.222 436.792 125.686 436.792 123.574C436.792 121.462 438.28 119.926 440.296 119.926C442.24 119.926 443.704 121.462 443.704 123.574C443.704 125.662 442.24 127.222 440.296 127.222ZM451.188 115.414C452.268 115.414 453.156 114.502 453.156 113.422C453.156 112.342 452.268 111.43 451.188 111.43C450.108 111.43 449.196 112.342 449.196 113.422C449.196 114.502 450.108 115.414 451.188 115.414ZM449.652 129.622H452.7V117.526H449.652V129.622ZM462.163 127.222C460.123 127.222 458.659 125.71 458.659 123.574C458.659 121.462 460.123 119.926 462.115 119.926C463.363 119.926 464.323 120.478 464.899 121.318L467.275 119.494C466.147 118.006 464.371 117.046 462.163 117.046C457.987 117.046 455.491 120.046 455.491 123.574C455.491 127.102 457.987 130.102 462.163 130.102C464.371 130.102 466.147 129.142 467.275 127.654L464.899 125.83C464.323 126.67 463.363 127.222 462.163 127.222ZM471.087 115.414C472.167 115.414 473.055 114.502 473.055 113.422C473.055 112.342 472.167 111.43 471.087 111.43C470.007 111.43 469.095 112.342 469.095 113.422C469.095 114.502 470.007 115.414 471.087 115.414ZM469.551 129.622H472.599V117.526H469.551V129.622ZM481.858 123.574C481.858 127.102 484.186 130.102 488.002 130.102C489.634 130.102 490.81 129.598 491.746 128.662V129.622H494.818V111.622H491.746V118.486C490.81 117.55 489.634 117.046 488.002 117.046C484.186 117.046 481.858 120.046 481.858 123.574ZM485.05 123.574C485.05 121.462 486.37 119.926 488.434 119.926C489.802 119.926 490.93 120.502 491.746 121.606V125.542C490.93 126.646 489.802 127.222 488.434 127.222C486.37 127.222 485.05 125.686 485.05 123.574ZM500.1 119.734L502.884 112.822H499.428L497.268 119.734H500.1ZM507.576 129.982C508.992 129.982 510.432 129.382 511.2 128.446V129.622H514.248V121.798C514.248 119.134 512.448 117.046 508.944 117.046C506.736 117.046 504.96 117.958 503.88 119.446L506.112 121.15C506.76 120.262 507.672 119.71 508.848 119.71C510.24 119.71 511.2 120.526 511.2 121.798V122.11L507.504 122.734C504.912 123.166 503.496 124.534 503.496 126.358C503.496 128.59 505.152 129.982 507.576 129.982ZM506.52 126.214C506.52 125.47 507.048 124.942 508.32 124.726L511.2 124.246V125.95C510.6 126.91 509.592 127.558 508.2 127.558C507.168 127.558 506.52 127.03 506.52 126.214ZM525.706 124.39C525.706 126.142 524.794 127.222 523.138 127.222C521.458 127.222 520.546 126.142 520.546 124.39V117.526H517.474V124.246C517.474 127.87 519.562 130.102 523.114 130.102C526.666 130.102 528.778 127.87 528.778 124.246V117.526H525.706V124.39ZM533.108 125.206C533.108 128.158 534.548 129.862 537.572 129.862C538.58 129.862 539.3 129.742 539.9 129.478V126.814C539.492 126.982 538.94 127.078 538.1 127.078C536.9 127.078 536.18 126.55 536.18 125.206V120.262H539.876V117.526H536.18V114.502H533.108V117.526H530.852V120.262H533.108V125.206ZM542.605 129.622H545.653V121.87C546.109 121.102 547.069 120.286 548.557 120.286C549.109 120.286 549.517 120.358 549.901 120.454V117.454C549.613 117.358 549.253 117.286 548.845 117.286C547.477 117.286 546.445 117.91 545.653 118.726V117.526H542.605V129.622ZM562.976 127.654L560.792 125.926C560.144 126.79 558.992 127.366 557.672 127.366C555.776 127.366 554.384 126.454 554.096 124.198H562.568C562.664 123.79 562.76 123.166 562.76 122.494C562.76 119.326 560.552 117.046 557.192 117.046C553.232 117.046 550.976 119.998 550.976 123.574C550.976 127.102 553.4 130.102 557.696 130.102C559.976 130.102 561.848 129.166 562.976 127.654ZM557.12 119.542C558.824 119.542 559.712 120.766 559.76 121.99H554.192C554.528 120.406 555.56 119.542 557.12 119.542ZM564.518 127.87C565.67 129.238 567.206 130.102 569.366 130.102C571.646 130.102 573.686 128.71 573.734 126.166C573.734 121.99 567.95 122.71 567.95 120.646C567.95 120.022 568.406 119.494 569.366 119.494C570.302 119.494 571.094 120.118 571.718 120.886L573.734 119.11C572.87 117.934 571.19 117.046 569.342 117.046C566.822 117.046 565.022 118.654 565.022 120.79C565.022 125.038 570.806 124.246 570.806 126.358C570.806 127.078 570.302 127.654 569.318 127.654C568.166 127.654 567.278 126.982 566.534 126.046L564.518 127.87ZM588.772 117.046C584.836 117.046 582.148 119.95 582.148 123.574C582.148 127.198 584.836 130.102 588.772 130.102C592.708 130.102 595.396 127.198 595.396 123.574C595.396 119.95 592.708 117.046 588.772 117.046ZM588.82 127.222C586.804 127.222 585.316 125.686 585.316 123.574C585.316 121.462 586.804 119.926 588.82 119.926C590.764 119.926 592.228 121.462 592.228 123.574C592.228 125.662 590.764 127.222 588.82 127.222ZM596.547 117.526V120.262H598.803V129.622H601.875V120.262H605.571V117.526H601.875V116.182C601.875 115.078 602.547 114.358 603.579 114.358C604.203 114.358 604.683 114.574 605.043 114.838L606.339 112.294C605.571 111.886 604.635 111.622 603.531 111.622C600.507 111.622 598.803 113.686 598.803 116.254V117.526H596.547ZM606.766 117.526V120.262H609.022V129.622H612.094V120.262H615.79V117.526H612.094V116.182C612.094 115.078 612.766 114.358 613.798 114.358C614.422 114.358 614.902 114.574 615.262 114.838L616.558 112.294C615.79 111.886 614.854 111.622 613.75 111.622C610.726 111.622 609.022 113.686 609.022 116.254V117.526H606.766ZM617.722 129.622H620.77V121.87C621.226 121.102 622.186 120.286 623.674 120.286C624.226 120.286 624.634 120.358 625.018 120.454V117.454C624.73 117.358 624.37 117.286 623.962 117.286C622.594 117.286 621.562 117.91 620.77 118.726V117.526H617.722V129.622ZM638.093 127.654L635.909 125.926C635.261 126.79 634.109 127.366 632.789 127.366C630.893 127.366 629.501 126.454 629.213 124.198H637.685C637.781 123.79 637.877 123.166 637.877 122.494C637.877 119.326 635.669 117.046 632.309 117.046C628.349 117.046 626.093 119.998 626.093 123.574C626.093 127.102 628.517 130.102 632.813 130.102C635.093 130.102 636.965 129.166 638.093 127.654ZM632.237 119.542C633.941 119.542 634.829 120.766 634.877 121.99H629.309C629.645 120.406 630.677 119.542 632.237 119.542ZM639.635 127.87C640.787 129.238 642.323 130.102 644.483 130.102C646.763 130.102 648.803 128.71 648.851 126.166C648.851 121.99 643.067 122.71 643.067 120.646C643.067 120.022 643.523 119.494 644.483 119.494C645.419 119.494 646.211 120.118 646.835 120.886L648.851 119.11C647.987 117.934 646.307 117.046 644.459 117.046C641.939 117.046 640.139 118.654 640.139 120.79C640.139 125.038 645.923 124.246 645.923 126.358C645.923 127.078 645.419 127.654 644.435 127.654C643.283 127.654 642.395 126.982 641.651 126.046L639.635 127.87ZM657.265 123.574C657.265 127.102 659.569 130.102 663.409 130.102C665.041 130.102 666.217 129.574 667.153 128.638V135.526H670.225V117.526H667.153V118.51C666.217 117.574 665.041 117.046 663.409 117.046C659.569 117.046 657.265 120.046 657.265 123.574ZM660.433 123.574C660.433 121.462 661.753 119.926 663.817 119.926C665.185 119.926 666.337 120.526 667.153 121.654V125.494C666.409 126.598 665.233 127.222 663.817 127.222C661.753 127.222 660.433 125.686 660.433 123.574ZM681.847 124.39C681.847 126.142 680.935 127.222 679.279 127.222C677.599 127.222 676.687 126.142 676.687 124.39V117.526H673.615V124.246C673.615 127.87 675.703 130.102 679.255 130.102C682.807 130.102 684.919 127.87 684.919 124.246V117.526H681.847V124.39ZM689.829 115.414C690.909 115.414 691.797 114.502 691.797 113.422C691.797 112.342 690.909 111.43 689.829 111.43C688.749 111.43 687.837 112.342 687.837 113.422C687.837 114.502 688.749 115.414 689.829 115.414ZM688.293 129.622H691.341V117.526H688.293V129.622ZM701.465 135.526H704.513V128.638C705.449 129.574 706.625 130.102 708.281 130.102C712.121 130.102 714.425 127.102 714.425 123.574C714.425 120.046 712.121 117.046 708.281 117.046C706.625 117.046 705.449 117.574 704.513 118.51V117.526H701.465V135.526ZM707.849 119.926C709.913 119.926 711.257 121.462 711.257 123.574C711.257 125.686 709.913 127.222 707.849 127.222C706.457 127.222 705.329 126.622 704.513 125.47V121.678C705.281 120.55 706.433 119.926 707.849 119.926ZM723.092 117.046C719.156 117.046 716.468 119.95 716.468 123.574C716.468 127.198 719.156 130.102 723.092 130.102C727.028 130.102 729.716 127.198 729.716 123.574C729.716 119.95 727.028 117.046 723.092 117.046ZM723.14 127.222C721.124 127.222 719.636 125.686 719.636 123.574C719.636 121.462 721.124 119.926 723.14 119.926C725.084 119.926 726.548 121.462 726.548 123.574C726.548 125.662 725.084 127.222 723.14 127.222ZM740.464 124.39C740.464 126.142 739.552 127.222 737.896 127.222C736.216 127.222 735.304 126.142 735.304 124.39V117.526H732.232V124.246C732.232 127.87 734.32 130.102 737.872 130.102C741.424 130.102 743.536 127.87 743.536 124.246V117.526H740.464V124.39ZM746.91 129.622H749.958V121.87C750.414 121.102 751.374 120.286 752.862 120.286C753.414 120.286 753.822 120.358 754.206 120.454V117.454C753.918 117.358 753.558 117.286 753.15 117.286C751.782 117.286 750.75 117.91 749.958 118.726V117.526H746.91V129.622ZM756.66 129.622H759.708V121.87C760.164 121.102 761.124 120.286 762.612 120.286C763.164 120.286 763.572 120.358 763.956 120.454V117.454C763.668 117.358 763.308 117.286 762.9 117.286C761.532 117.286 760.5 117.91 759.708 118.726V117.526H756.66V129.622ZM769.232 129.982C770.648 129.982 772.088 129.382 772.856 128.446V129.622H775.904V121.798C775.904 119.134 774.104 117.046 770.6 117.046C768.392 117.046 766.616 117.958 765.536 119.446L767.768 121.15C768.416 120.262 769.328 119.71 770.504 119.71C771.896 119.71 772.856 120.526 772.856 121.798V122.11L769.16 122.734C766.568 123.166 765.152 124.534 765.152 126.358C765.152 128.59 766.808 129.982 769.232 129.982ZM768.176 126.214C768.176 125.47 768.704 124.942 769.976 124.726L772.856 124.246V125.95C772.256 126.91 771.248 127.558 769.856 127.558C768.824 127.558 768.176 127.03 768.176 126.214ZM780.93 115.414C782.01 115.414 782.898 114.502 782.898 113.422C782.898 112.342 782.01 111.43 780.93 111.43C779.85 111.43 778.938 112.342 778.938 113.422C778.938 114.502 779.85 115.414 780.93 115.414ZM779.394 129.622H782.442V117.526H779.394V129.622ZM797.233 127.654L795.049 125.926C794.401 126.79 793.249 127.366 791.929 127.366C790.033 127.366 788.641 126.454 788.353 124.198H796.825C796.921 123.79 797.017 123.166 797.017 122.494C797.017 119.326 794.809 117.046 791.449 117.046C787.489 117.046 785.233 119.998 785.233 123.574C785.233 127.102 787.657 130.102 791.953 130.102C794.233 130.102 796.105 129.166 797.233 127.654ZM791.377 119.542C793.081 119.542 793.969 120.766 794.017 121.99H788.449C788.785 120.406 789.817 119.542 791.377 119.542ZM799.996 129.622H803.044V121.726C803.5 120.958 804.316 119.926 805.852 119.926C807.34 119.926 808.252 120.934 808.252 122.542V129.622H811.324V122.422C811.324 118.846 809.236 117.046 806.62 117.046C805.012 117.046 803.884 117.67 803.044 118.486V117.526H799.996V129.622ZM815.553 125.206C815.553 128.158 816.993 129.862 820.017 129.862C821.025 129.862 821.745 129.742 822.345 129.478V126.814C821.937 126.982 821.385 127.078 820.545 127.078C819.345 127.078 818.625 126.55 818.625 125.206V120.262H822.321V117.526H818.625V114.502H815.553V117.526H813.297V120.262H815.553V125.206ZM829.791 117.526L834.183 129.622H838.191L842.607 117.526H839.319L836.199 126.166L833.055 117.526H829.791ZM850.147 117.046C846.211 117.046 843.523 119.95 843.523 123.574C843.523 127.198 846.211 130.102 850.147 130.102C854.083 130.102 856.771 127.198 856.771 123.574C856.771 119.95 854.083 117.046 850.147 117.046ZM850.195 127.222C848.179 127.222 846.691 125.686 846.691 123.574C846.691 121.462 848.179 119.926 850.195 119.926C852.139 119.926 853.603 121.462 853.603 123.574C853.603 125.662 852.139 127.222 850.195 127.222ZM867.519 124.39C867.519 126.142 866.607 127.222 864.951 127.222C863.271 127.222 862.359 126.142 862.359 124.39V117.526H859.287V124.246C859.287 127.87 861.375 130.102 864.927 130.102C868.479 130.102 870.591 127.87 870.591 124.246V117.526H867.519V124.39ZM872.815 127.87C873.967 129.238 875.503 130.102 877.663 130.102C879.943 130.102 881.983 128.71 882.031 126.166C882.031 121.99 876.247 122.71 876.247 120.646C876.247 120.022 876.703 119.494 877.663 119.494C878.599 119.494 879.391 120.118 880.015 120.886L882.031 119.11C881.167 117.934 879.487 117.046 877.639 117.046C875.119 117.046 873.319 118.654 873.319 120.79C873.319 125.038 879.103 124.246 879.103 126.358C879.103 127.078 878.599 127.654 877.615 127.654C876.463 127.654 875.575 126.982 874.831 126.046L872.815 127.87ZM891.308 135.526H894.356V128.638C895.292 129.574 896.468 130.102 898.124 130.102C901.964 130.102 904.268 127.102 904.268 123.574C904.268 120.046 901.964 117.046 898.124 117.046C896.468 117.046 895.292 117.574 894.356 118.51V117.526H891.308V135.526ZM897.692 119.926C899.756 119.926 901.1 121.462 901.1 123.574C901.1 125.686 899.756 127.222 897.692 127.222C896.3 127.222 895.172 126.622 894.356 125.47V121.678C895.124 120.55 896.276 119.926 897.692 119.926ZM907.058 129.622H910.106V111.622H907.058V129.622ZM917.17 129.982C918.586 129.982 920.026 129.382 920.794 128.446V129.622H923.842V121.798C923.842 119.134 922.042 117.046 918.538 117.046C916.33 117.046 914.554 117.958 913.474 119.446L915.706 121.15C916.354 120.262 917.266 119.71 918.442 119.71C919.834 119.71 920.794 120.526 920.794 121.798V122.11L917.098 122.734C914.506 123.166 913.09 124.534 913.09 126.358C913.09 128.59 914.746 129.982 917.17 129.982ZM916.114 126.214C916.114 125.47 916.642 124.942 917.914 124.726L920.794 124.246V125.95C920.194 126.91 919.186 127.558 917.794 127.558C916.762 127.558 916.114 127.03 916.114 126.214ZM928.868 115.414C929.948 115.414 930.836 114.502 930.836 113.422C930.836 112.342 929.948 111.43 928.868 111.43C927.788 111.43 926.876 112.342 926.876 113.422C926.876 114.502 927.788 115.414 928.868 115.414ZM927.332 129.622H930.38V117.526H927.332V129.622ZM934.035 129.622H937.083V121.87C937.539 121.102 938.499 120.286 939.987 120.286C940.539 120.286 940.947 120.358 941.331 120.454V117.454C941.043 117.358 940.683 117.286 940.275 117.286C938.907 117.286 937.875 117.91 937.083 118.726V117.526H934.035V129.622ZM954.405 127.654L952.221 125.926C951.573 126.79 950.421 127.366 949.101 127.366C947.205 127.366 945.813 126.454 945.525 124.198H953.997C954.093 123.79 954.189 123.166 954.189 122.494C954.189 119.326 951.981 117.046 948.621 117.046C944.661 117.046 942.405 119.998 942.405 123.574C942.405 127.102 944.829 130.102 949.125 130.102C951.405 130.102 953.277 129.166 954.405 127.654ZM948.549 119.542C950.253 119.542 951.141 120.766 951.189 121.99H945.621C945.957 120.406 946.989 119.542 948.549 119.542ZM964.645 124.222H966.901L967.525 112.822H964.021L964.645 124.222ZM965.797 129.91C966.925 129.91 967.885 128.95 967.885 127.822C967.885 126.694 966.925 125.734 965.797 125.734C964.621 125.734 963.685 126.694 963.685 127.822C963.685 128.95 964.645 129.91 965.797 129.91Z" fill="#000091"/>
<path d="M349.89 61.7966C350.058 62.6348 350.524 63.0867 351.363 63.4511C362.273 68.1812 373.162 72.9769 384.058 77.7508C387.207 79.1356 390.333 80.5641 393.161 82.5611C397.636 85.7242 399.101 89.9514 397.162 95.0824C392.359 107.808 387.425 120.482 382.557 133.179C377.36 146.742 372.171 160.306 366.981 173.869C361.836 187.309 356.712 200.756 351.545 214.188C349.468 219.596 347.558 225.063 345.051 230.317C342.5 235.66 338.098 237.861 332.369 236.061C330.613 235.507 328.936 234.683 327.26 233.903C307.822 224.895 288.399 215.857 268.968 206.849C259.369 202.403 249.749 198.016 240.15 193.57C228.27 188.067 216.412 182.513 204.532 177.018C201.216 175.487 198.818 173.228 198.14 169.504C197.703 167.062 198.344 164.773 199.313 162.572C203.424 153.272 207.535 143.965 211.682 134.68C215.34 126.473 219.006 118.274 222.767 110.118C223.547 108.42 223.613 107.13 222.031 105.971C221.71 105.738 221.47 105.403 221.157 105.162C212.338 98.5007 214.954 86.1615 220.581 80.1195C222.119 78.465 223.715 76.8908 225.872 76.0234C226.63 75.7173 227.228 75.2071 227.585 74.4492C229.276 74.1576 230.223 75.455 231.367 76.2785C239.326 82.029 247.278 82.1894 255.397 76.5263C257.409 75.1197 259.369 75.3529 261.446 75.834C267.284 77.1896 272.977 76.7596 278.625 74.7698C282.087 73.5527 285.279 71.8472 287.407 68.91C289.944 65.4044 293.151 65.2731 296.897 65.8635C305.41 67.2118 315.3 61.8914 318.842 54.2022C319.447 52.9559 319.454 51.5274 319.972 50.2519C320.176 49.9021 320.475 49.6688 320.868 49.5595C328.113 51.6002 334.65 55.3537 341.574 58.1816C344.358 59.3186 347.252 60.2806 349.883 61.7893L349.89 61.7966Z" fill="#EECEB4"/>
<path d="M319.731 53.8305C319.585 56.3814 318.317 58.4367 316.415 59.9162C310.154 64.7848 303.624 68.9683 295.053 66.6871C292.429 65.9874 290.541 66.5267 288.705 69.0194C284.215 75.0978 277.415 76.9418 270.265 77.605C266.555 77.9476 262.875 77.4447 259.311 76.3514C258.043 75.9578 257.117 76.0161 256.118 77.0292C253.786 79.3906 251.33 81.5553 247.686 81.6792C242.467 81.8541 237.344 81.6646 232.854 78.5525C231.025 77.2843 229.334 75.8194 227.577 74.4419C226.01 72.3283 224.422 70.2875 223.379 67.7949C220.406 60.6815 221.003 53.8596 224.677 47.2564C225.763 45.3031 225.741 43.7361 224.728 41.7901C221.703 35.9668 222.556 30.2527 225.843 24.8448C231.302 15.851 239.21 10.392 249.748 9.0874C252.212 8.78129 253.976 7.94314 255.703 5.97529C261.76 -0.904894 274.194 -1.94714 282.706 3.38792C288.624 7.10497 292.815 12.1922 295.053 18.8465C296.663 20.9601 298.843 21.791 301.437 22.221C314.381 24.3638 320.453 35.2015 321.473 46.2798C321.59 47.5698 321.611 48.9254 320.591 49.9895L320.635 49.9094C319.359 50.988 320.679 52.6716 319.724 53.8232L319.731 53.8305Z" fill="#6E4E3F"/>
<path d="M320.599 49.9967C320.577 43.8162 319.352 37.9929 315.927 32.7088C312.049 26.7397 306.437 23.7369 299.535 22.8841C296.146 22.4614 296.139 22.527 295.06 18.8537C297.546 19.0869 299.645 17.724 301.911 17.1045C314.768 13.5915 326.466 20.0125 330.008 32.7671C330.438 34.3195 331.145 35.0046 332.559 35.2743C332.945 35.3472 333.339 35.4274 333.725 35.5148C345.044 38.0074 351.027 45.8497 350.437 57.4819C350.364 58.9249 350.08 60.3535 349.89 61.7966C348.491 62.6857 347.383 61.6945 346.224 61.1916C337.675 57.4746 329.141 53.7284 320.599 49.9967Z" fill="#94644B"/>
<path d="M324.534 129.287C325.737 130.343 325.372 131.714 325.212 132.996C323.886 143.754 315.482 153.477 305.133 156.283C292.349 159.744 279.449 153.061 274.34 140.285C272.751 136.32 271.898 132.202 272.117 127.902C272.284 127.537 272.517 127.217 272.809 126.94C273.246 126.495 273.742 126.131 274.303 125.846C289.937 119.178 305.504 118.442 320.97 126.357C322.355 127.064 323.951 127.574 324.534 129.287Z" fill="#090807"/>
<path d="M324.534 129.287C319.592 126.488 314.476 124.141 308.879 122.982C297.997 120.715 287.407 121.736 277.087 125.832C275.994 126.269 274.871 126.634 273.756 127.034C273.37 127.1 273.086 127.348 272.801 127.588C272.612 127.792 272.386 127.894 272.109 127.909C272.852 122.406 273.909 117.049 277.225 112.356C285.031 101.299 297.21 97.4729 309.6 102.589C318.215 106.146 325.649 116 325.292 127.158C325.263 127.96 325.255 128.747 324.527 129.294L324.534 129.287Z" fill="#F2F1EE"/>
<path d="M317.362 184.612C318.091 194.925 308.47 204.327 297.83 204.094C287.407 203.861 278.457 195.348 278.384 184.641C278.304 173.191 287.99 164.941 297.997 164.956C309.075 164.97 318.266 174.664 317.37 184.62L317.362 184.612Z" fill="#DB9CB5"/>
<path d="M302.625 75.2508C312.363 75.3019 319.184 80.1632 321.291 87.4661C321.546 88.3407 321.764 89.2663 321.757 90.17C321.757 91.1904 321.109 91.8901 320.052 92.0359C319.214 92.1525 318.441 91.8901 318.069 91.0811C317.741 90.3741 317.545 89.6016 317.297 88.8509C315.227 82.4882 309.316 78.6399 302.574 79.4562C296.343 80.2069 291.358 83.1295 287.896 88.4573C287.393 89.2299 286.977 90.068 286.409 90.7895C285.811 91.5548 285.009 92.0431 283.996 91.5184C283.027 91.0155 282.779 90.0972 283.02 89.157C283.238 88.2824 283.61 87.4005 284.098 86.6425C288.785 79.3177 295.519 75.5642 302.625 75.2436V75.2508Z" fill="#715141"/>
<path d="M230.092 83.2899C231.098 83.5304 232.111 83.8146 233.139 84.0114C234.523 84.2811 234.917 85.2504 234.494 86.3437C233.066 90.0097 231.674 93.7049 229.903 97.2106C228.78 99.4263 227.425 99.3752 225.508 97.5386C221.616 93.7996 220.829 88.778 224.961 85.214C226.499 83.8875 228.387 84.026 230.092 83.2826V83.2899Z" fill="#C8A17F"/>
<path d="M264.69 140.977C264.624 141.516 264.42 141.932 263.801 141.968C263.043 142.012 262.591 141.589 262.533 140.897C262.496 140.409 262.708 139.876 263.364 139.869C264.1 139.862 264.464 140.343 264.69 140.97V140.977Z" fill="#E5955D"/>
<path d="M257.678 147.041C257.591 147.58 257.467 148.141 256.782 148.09C256.046 148.039 255.616 147.573 255.565 146.83C255.528 146.341 255.885 146.123 256.279 146.042C257.081 145.875 257.481 146.334 257.678 147.041Z" fill="#E49157"/>
<path d="M330.015 163.746C330.788 163.702 331.232 164.169 331.32 164.839C331.4 165.422 330.933 165.779 330.365 165.765C329.833 165.757 329.367 165.495 329.301 164.883C329.243 164.343 329.381 163.877 330.015 163.746Z" fill="#E6965E"/>
<path d="M345.823 172.82C345.532 173.323 345.131 173.621 344.555 173.286C344.096 173.017 343.659 172.63 343.95 172.033C344.205 171.508 344.716 171.304 345.255 171.552C345.78 171.785 346.028 172.222 345.816 172.82H345.823Z" fill="#E3884A"/>
<path d="M269.617 145.802C269.048 145.751 268.582 145.496 268.509 144.913C268.443 144.352 268.757 143.892 269.354 143.827C269.945 143.761 270.367 144.089 270.404 144.694C270.44 145.233 270.302 145.736 269.617 145.802Z" fill="#E48F54"/>
<path d="M269.347 152.944C269.267 153.557 268.866 153.826 268.298 153.819C267.868 153.819 267.547 153.564 267.496 153.134C267.423 152.551 267.715 152.092 268.305 152.041C268.881 151.99 269.216 152.391 269.354 152.944H269.347Z" fill="#E6955D"/>
<path d="M334.286 161.348C333.762 161.224 333.324 160.911 333.303 160.335C333.273 159.715 333.762 159.409 334.316 159.417C334.869 159.417 335.365 159.737 335.329 160.349C335.299 160.903 334.891 161.26 334.286 161.348Z" fill="#E48D52"/>
<path d="M338.608 165.539C338.659 166.18 338.404 166.588 337.77 166.603C337.23 166.617 336.698 166.464 336.647 165.801C336.604 165.225 336.895 164.759 337.493 164.715C338.047 164.671 338.455 165.007 338.601 165.539H338.608Z" fill="#E48E53"/>
<path d="M263.735 145.233C263.99 145.284 264.544 145.372 264.42 146.086C264.354 146.487 264.012 146.757 263.611 146.735C263.086 146.713 262.547 146.553 262.678 145.853C262.744 145.474 263.028 145.19 263.735 145.233Z" fill="#E5945C"/>
<path d="M319.731 53.8304C319.841 52.4821 319.075 50.9297 320.642 49.9166C320.358 51.2285 320.73 52.6862 319.731 53.8304Z" fill="#94644B"/>
<path d="M333.834 170.56C333.718 170.998 333.412 171.224 333.004 171.078C332.836 171.02 332.654 170.662 332.676 170.458C332.719 170.014 333.091 169.81 333.492 169.941C333.66 169.999 333.732 170.342 333.842 170.553L333.834 170.56Z" fill="#E49056"/>
<path d="M272.802 127.588C273.006 127.202 273.304 126.983 273.756 127.034C273.596 127.494 273.275 127.676 272.802 127.588Z" fill="#EECEB4"/>
<path d="M298.194 195.261C292.028 195.312 287.21 190.698 287.181 184.7C287.145 178.65 291.926 173.804 297.931 173.796C303.696 173.789 308.616 178.57 308.725 184.277C308.842 190.494 304.323 195.21 298.194 195.261Z" fill="#0B0808"/>
</svg>
