<?xml version="1.0" encoding="utf-8"?>
<!-- Generator: Adobe Illustrator 22.1.0, SVG Export Plug-In . SVG Version: 6.00 Build 0)  -->
<svg version="1.1" id="Calque_1" xmlns="http://www.w3.org/2000/svg" xmlns:xlink="http://www.w3.org/1999/xlink" x="0px" y="0px"
	 viewBox="0 0 261.3 146.8" style="enable-background:new 0 0 261.3 146.8;" xml:space="preserve">
<style type="text/css">
	.st0{fill:#CF004C;}
	.st1{fill:#0065A1;}
	.st2{fill:#FFFFFF;}
	.st3{fill:#FEB620;}
</style>
<g>
	
		<rect x="24.4" y="50.1" transform="matrix(0.9925 -0.1222 0.1222 0.9925 -8.4838 11.7187)" class="st0" width="133.8" height="49.9"/>
	<rect x="2.1" y="22.6" transform="matrix(0.9925 -0.1222 0.1222 0.9925 -4.8752 6.0674)" class="st1" width="89.8" height="40.4"/>
	<g>
		<path class="st2" d="M12.4,45.5c-0.1-1.1-0.1-2,0.2-2.9c0.3-0.8,0.7-1.6,1.3-2.2c0.6-0.6,1.3-1.1,2.2-1.5c0.9-0.4,1.8-0.6,2.9-0.8
			c1.3-0.2,2.5-0.1,3.6,0.2c1.1,0.3,2,0.8,2.7,1.5c0.5-0.9,1.3-1.6,2.2-2.1c0.9-0.6,2.1-0.9,3.4-1.1c1-0.1,2-0.1,3,0
			c0.9,0.2,1.8,0.5,2.5,0.9c0.7,0.5,1.3,1.1,1.8,1.8c0.5,0.7,0.8,1.7,0.9,2.7l1.3,10.7l-5.3,0.6l-1.1-9.2c-0.1-1.1-0.5-1.9-1-2.3
			c-0.5-0.4-1.2-0.6-2-0.5c-0.9,0.1-1.5,0.5-2,1.1c-0.5,0.6-0.6,1.6-0.5,2.8l1.1,8.7l-5.3,0.6l-1.1-8.7c-0.2-1.2-0.5-2.1-1.1-2.6
			c-0.6-0.5-1.3-0.7-2.2-0.6c-0.8,0.1-1.4,0.4-1.9,1c-0.4,0.5-0.5,1.4-0.4,2.5l1.1,9.2l-5.3,0.6L12.4,45.5z"/>
		<path class="st2" d="M42.4,44.2c-0.2-1.3-0.1-2.5,0.3-3.6c0.3-1.1,0.9-2.1,1.6-3c0.7-0.9,1.6-1.6,2.7-2.2c1.1-0.6,2.2-1,3.5-1.1
			c1.3-0.2,2.5-0.1,3.7,0.2c1.2,0.3,2.2,0.8,3.2,1.5c0.9,0.7,1.7,1.5,2.3,2.5c0.6,1,1,2.1,1.1,3.4c0.2,1.3,0.1,2.5-0.3,3.6
			c-0.3,1.1-0.9,2.1-1.6,3c-0.7,0.9-1.6,1.6-2.7,2.2c-1.1,0.6-2.2,1-3.5,1.1c-1.3,0.2-2.5,0.1-3.7-0.2c-1.2-0.3-2.2-0.8-3.2-1.5
			c-0.9-0.7-1.7-1.5-2.3-2.5C43,46.6,42.6,45.4,42.4,44.2 M52.2,47.1c0.5-0.1,1-0.2,1.5-0.5c0.4-0.3,0.8-0.6,1.1-1
			c0.3-0.4,0.5-0.9,0.6-1.4c0.1-0.5,0.2-1.1,0.1-1.7C55.4,42,55.2,41.4,55,41c-0.2-0.5-0.6-0.9-1-1.2c-0.4-0.3-0.8-0.6-1.3-0.7
			c-0.5-0.1-1-0.2-1.6-0.1c-0.6,0.1-1.1,0.2-1.5,0.5c-0.4,0.3-0.8,0.6-1.1,1c-0.3,0.4-0.5,0.9-0.6,1.4c-0.1,0.5-0.1,1.1-0.1,1.7
			c0.1,0.6,0.2,1.1,0.5,1.6c0.2,0.5,0.6,0.9,1,1.2c0.4,0.3,0.8,0.6,1.3,0.7C51.1,47.1,51.6,47.2,52.2,47.1"/>
		<path class="st2" d="M63.1,39.8c-0.1-1.1,0-2.2,0.3-3.1c0.3-0.9,0.8-1.7,1.5-2.4c0.7-0.7,1.5-1.2,2.5-1.7c1-0.4,2-0.7,3.2-0.9
			c1.1-0.1,2.2-0.1,3.3,0.1c1.1,0.2,2,0.5,2.8,1c0.8,0.5,1.5,1.2,2.1,2c0.5,0.8,0.9,1.8,1,2.9L81,47.9l-5.3,0.6l-1.1-8.9
			c-0.1-1.2-0.5-2-1.1-2.5c-0.6-0.5-1.4-0.7-2.4-0.6c-2,0.3-2.9,1.5-2.7,3.8l1.1,8.9l-5.3,0.6L63.1,39.8z"/>
		<path class="st2" d="M39.1,86.5c0.2,0.1,0.6,0.3,1.1,0.5c0.5,0.2,1.1,0.3,1.9,0.4c0.7,0.1,1.5,0.2,2.4,0.2c0.9,0,1.8,0,2.8-0.1
			c1.1-0.1,1.9-0.3,2.5-0.6c0.5-0.3,0.8-0.7,0.7-1.2c-0.1-0.5-0.3-0.9-0.8-1c-0.5-0.1-1.3-0.2-2.3-0.2l-2.1,0
			c-1.1,0-2.1-0.1-3.1-0.2c-1-0.1-1.9-0.4-2.7-0.8c-0.8-0.4-1.5-1-2-1.7c-0.5-0.7-0.9-1.7-1-2.9c-0.1-1-0.1-1.9,0.2-2.8
			c0.3-0.9,0.7-1.7,1.4-2.4c0.7-0.7,1.6-1.4,2.8-1.9c1.2-0.5,2.6-0.9,4.3-1.1c1.7-0.2,3.2-0.3,4.4-0.2c1.3,0.1,2.3,0.3,3.3,0.6
			c0.5,0.2,1,0.5,1.4,0.8c0.4,0.4,0.6,0.8,0.6,1.4c0.1,0.4,0,0.8-0.1,1.2c-0.1,0.4-0.3,0.7-0.5,0.9c-0.2,0.3-0.4,0.5-0.6,0.6
			c-0.2,0.2-0.3,0.3-0.4,0.3c-0.1-0.1-0.3-0.2-0.7-0.4c-0.4-0.2-0.9-0.3-1.5-0.4c-0.6-0.1-1.4-0.2-2.2-0.3c-0.9-0.1-1.8,0-2.9,0.1
			c-1.2,0.1-2,0.4-2.5,0.7c-0.4,0.3-0.6,0.7-0.6,1.2c0.1,0.5,0.3,0.8,0.8,0.9c0.5,0.1,1.1,0.2,2,0.2l3.7,0.1c0.9,0,1.8,0.1,2.7,0.3
			c0.9,0.2,1.7,0.4,2.4,0.8c0.7,0.4,1.3,1,1.8,1.7c0.5,0.7,0.8,1.6,0.9,2.7c0.3,2.3-0.4,4.1-1.9,5.6c-1.6,1.5-3.9,2.4-6.9,2.8
			c-1.6,0.2-3,0.3-4.3,0.2c-1.3-0.1-2.3-0.2-3.3-0.4c-0.9-0.2-1.7-0.4-2.3-0.6c-0.6-0.2-1-0.4-1.2-0.6L39.1,86.5z"/>
		<path class="st2" d="M57.8,66.4c-0.1-1,0.1-1.8,0.7-2.3c0.6-0.5,1.4-0.8,2.4-1c0.7-0.1,1.4-0.1,2,0c0.6,0.1,1,0.2,1.2,0.2l0.7,5.5
			l4.6-0.6c1.2-0.2,2.1,0,2.7,0.4c0.6,0.4,0.9,1.1,1,2.1c0.1,0.7,0.1,1.4-0.1,2c-0.1,0.6-0.3,1.1-0.3,1.3l-7.2,0.9l0.8,6.3
			c0.1,0.6,0.2,1.1,0.5,1.4c0.2,0.3,0.5,0.6,0.8,0.8c0.3,0.2,0.7,0.3,1,0.3c0.4,0,0.7,0,1.1,0c0.8-0.1,1.4-0.3,2-0.6
			c0.6-0.3,1-0.6,1.3-0.7l3.1,4.1c-0.2,0.2-0.5,0.5-1,0.9c-0.4,0.3-0.9,0.7-1.6,1c-0.6,0.3-1.3,0.6-2.1,0.9
			c-0.8,0.3-1.6,0.5-2.5,0.6c-2.5,0.3-4.6-0.1-6.2-1.3c-1.6-1.2-2.5-2.9-2.8-5.1L57.8,66.4z"/>
		<path class="st2" d="M97.7,85.5c-0.2,0.1-0.5,0.2-1.1,0.3c-0.6,0.1-1.3,0.3-2.1,0.5c-0.8,0.2-1.8,0.4-2.9,0.6
			c-1.1,0.2-2.2,0.4-3.4,0.5c-2,0.3-3.8,0.3-5.2,0.1c-1.4-0.2-2.5-0.6-3.4-1.1c-0.9-0.5-1.5-1.2-2-1.9c-0.4-0.8-0.7-1.6-0.8-2.5
			c-0.3-2.5,0.3-4.3,1.7-5.6c1.5-1.3,3.9-2.1,7.4-2.5c0.9-0.1,1.6-0.2,2.2-0.2c0.6,0,1.1-0.1,1.4-0.1c-0.1-0.9-0.6-1.6-1.4-2.1
			c-0.8-0.4-2.1-0.6-3.9-0.3c-0.8,0.1-1.6,0.2-2.2,0.4c-0.6,0.2-1.1,0.4-1.6,0.5c-0.4,0.2-0.8,0.4-1,0.5c-0.3,0.2-0.4,0.3-0.5,0.4
			c-0.1,0-0.2-0.1-0.4-0.3c-0.2-0.1-0.4-0.3-0.6-0.6c-0.2-0.2-0.4-0.5-0.6-0.8c-0.2-0.3-0.3-0.6-0.3-1c-0.3-2.3,2-3.8,6.8-4.4
			c1.6-0.2,3-0.2,4.5-0.1c1.4,0.1,2.7,0.5,3.8,1c1.1,0.6,2,1.4,2.7,2.4c0.7,1.1,1.2,2.4,1.4,4.1L97.7,85.5z M90.2,77.9
			c-0.3,0-0.6,0-1.1,0c-0.5,0-1.2,0.1-2.1,0.2c-0.8,0.1-1.5,0.2-2,0.4c-0.5,0.2-0.9,0.4-1.1,0.7c-0.3,0.3-0.4,0.5-0.5,0.9
			c-0.1,0.3-0.1,0.6,0,0.9c0,0.2,0.1,0.5,0.2,0.8c0.1,0.3,0.3,0.5,0.6,0.7c0.3,0.2,0.7,0.3,1.3,0.4c0.6,0.1,1.3,0.1,2.2,0
			c0.7-0.1,1.3-0.2,1.9-0.3c0.6-0.1,1-0.2,1.2-0.3L90.2,77.9z"/>
		<path class="st2" d="M105.2,86.8c0.1,0,0.3,0.1,0.7,0.2c0.4,0.1,0.8,0.2,1.4,0.3c0.6,0.1,1.2,0.1,2,0.2c0.8,0,1.6,0,2.4-0.1
			c0.9-0.1,1.6-0.3,2.4-0.6c0.7-0.3,1.3-0.7,1.8-1.2c0.5-0.5,0.8-1.1,1-1.8c0.2-0.7,0.3-1.6,0.1-2.6l-0.1-0.4
			c-0.1,0.2-0.3,0.4-0.6,0.6c-0.3,0.3-0.7,0.6-1.1,0.9c-0.5,0.3-1,0.6-1.7,0.9c-0.6,0.3-1.4,0.5-2.2,0.6c-1.5,0.2-2.8,0.1-4.1-0.2
			c-1.3-0.3-2.4-0.8-3.4-1.6c-1-0.8-1.8-1.7-2.5-2.9c-0.6-1.2-1.1-2.6-1.3-4.2c-0.2-1.6-0.1-3.1,0.3-4.4c0.4-1.4,1-2.6,1.9-3.7
			c0.9-1.1,2-1.9,3.3-2.6c1.3-0.7,2.8-1.1,4.5-1.4c1.9-0.2,3.6-0.1,5.3,0.4c1.7,0.5,3.1,1.4,4.3,2.6c0.8,0.8,1.4,1.7,1.8,2.8
			c0.5,1.1,0.8,2.6,1,4.3l0.7,6c0.3,2.1,0.2,3.9-0.2,5.5c-0.4,1.6-1.1,2.9-2,4.1c-0.9,1.1-2.1,2-3.5,2.6c-1.4,0.7-2.9,1.1-4.6,1.3
			c-1.2,0.1-2.3,0.2-3.3,0.2c-1,0-1.9-0.1-2.7-0.2c-0.8-0.1-1.4-0.2-2-0.4c-0.5-0.1-0.9-0.3-1-0.3L105.2,86.8z M106.8,73.9
			c0.2,1.5,0.8,2.6,1.7,3.3c1,0.7,2.1,0.9,3.5,0.7c1.3-0.2,2.4-0.7,3.1-1.7c0.8-0.9,1.1-2.1,0.9-3.5c-0.2-1.4-0.7-2.4-1.7-3.2
			c-1-0.8-2.1-1.1-3.5-0.9c-0.7,0.1-1.3,0.3-1.8,0.6c-0.5,0.3-1,0.7-1.3,1.2c-0.4,0.5-0.6,1-0.8,1.6
			C106.7,72.7,106.7,73.3,106.8,73.9"/>
		<path class="st2" d="M132.9,73.6c0.1,0.3,0.3,0.6,0.5,0.9c0.3,0.3,0.6,0.5,1.1,0.7c0.4,0.2,1,0.4,1.7,0.5c0.7,0.1,1.5,0.1,2.4,0
			c0.7-0.1,1.4-0.2,2-0.4c0.6-0.2,1.1-0.4,1.6-0.6c0.4-0.2,0.8-0.4,1.1-0.5c0.3-0.2,0.4-0.3,0.5-0.3l2.8,4.2c-0.2,0.2-0.5,0.4-1,0.7
			c-0.5,0.3-1.1,0.6-1.8,1c-0.7,0.3-1.6,0.7-2.6,1c-1,0.3-2.1,0.5-3.3,0.7c-1.5,0.2-3,0.1-4.3-0.2c-1.4-0.3-2.6-0.9-3.7-1.7
			c-1.1-0.8-2-1.8-2.7-3.1c-0.7-1.3-1.2-2.8-1.4-4.5c-0.2-1.6-0.1-3.1,0.3-4.5c0.4-1.4,1-2.7,1.9-3.7c0.9-1.1,2-1.9,3.2-2.6
			c1.3-0.7,2.7-1.1,4.3-1.3c1.5-0.2,2.8-0.1,4,0.1c1.2,0.2,2.2,0.7,3.1,1.2c0.9,0.6,1.6,1.3,2.1,2.1c0.5,0.8,0.8,1.7,1,2.6
			c0.1,1,0.1,1.9-0.2,2.8c-0.3,0.8-0.8,1.6-1.6,2.2c-0.8,0.7-2,1.2-3.5,1.7c-1.5,0.5-3.5,0.9-5.9,1.2L132.9,73.6z M132.1,69.5
			c1.8-0.2,3.2-0.5,4.2-0.7c1-0.3,1.7-0.5,2.2-0.8c0.5-0.3,0.7-0.6,0.8-0.8c0.1-0.3,0.1-0.6,0.1-0.8c-0.1-0.6-0.4-1-1-1.4
			c-0.6-0.4-1.4-0.5-2.4-0.3c-0.7,0.1-1.3,0.3-1.9,0.6c-0.5,0.3-0.9,0.7-1.2,1.2c-0.3,0.4-0.5,0.9-0.7,1.5
			C132.1,68.4,132,68.9,132.1,69.5"/>
		<path class="st1" d="M82,119.6c0.2,1.4,0.2,2.7,0,3.8c-0.2,1.1-0.5,2-0.9,2.8c-0.7,1.2-1.7,2.2-3,3c-1.3,0.8-2.7,1.2-4.3,1.4
			c-1.3,0.2-2.6,0.1-3.8-0.2c-1.2-0.3-2.3-0.8-3.2-1.5c-0.9-0.7-1.7-1.6-2.3-2.6c-0.6-1.1-1-2.3-1.2-3.6c-0.2-1.4-0.1-2.6,0.2-3.8
			c0.3-1.2,0.8-2.2,1.4-3.1c0.7-0.9,1.5-1.6,2.4-2.2c1-0.6,2-0.9,3.2-1.1c1.3-0.2,2.3-0.1,3.2,0.2c0.9,0.3,1.5,0.7,2,1l-0.8-6.7
			c-0.1-0.9,0.1-1.5,0.5-2c0.5-0.4,1.1-0.7,2-0.8c0.6-0.1,1.2-0.1,1.7,0c0.5,0.1,0.8,0.1,1,0.2L82,119.6z M73.4,125.6
			c1.1-0.1,2-0.6,2.7-1.4c0.6-0.8,0.9-1.8,0.7-3.1c-0.1-0.6-0.2-1.1-0.5-1.6c-0.3-0.5-0.6-0.9-1-1.2c-0.4-0.3-0.8-0.6-1.3-0.7
			c-0.5-0.2-1-0.2-1.6-0.1c-1.1,0.1-2,0.6-2.6,1.5c-0.6,0.9-0.9,1.9-0.7,3.1c0.2,1.2,0.6,2.2,1.5,2.8
			C71.3,125.5,72.3,125.8,73.4,125.6"/>
		<path class="st1" d="M90.8,121.6c0.1,0.3,0.2,0.5,0.5,0.8c0.2,0.2,0.5,0.4,0.9,0.6c0.4,0.2,0.8,0.3,1.4,0.4c0.6,0.1,1.2,0.1,2,0
			c0.6-0.1,1.1-0.2,1.6-0.4c0.5-0.2,0.9-0.3,1.3-0.5c0.4-0.2,0.7-0.3,0.9-0.5c0.2-0.1,0.4-0.2,0.4-0.3l2.4,3.6
			c-0.2,0.1-0.4,0.3-0.8,0.6c-0.4,0.3-0.9,0.5-1.5,0.8c-0.6,0.3-1.3,0.5-2.1,0.8c-0.8,0.2-1.7,0.4-2.8,0.6c-1.3,0.2-2.5,0.1-3.6-0.2
			c-1.2-0.3-2.2-0.7-3.1-1.4c-0.9-0.7-1.7-1.5-2.3-2.6c-0.6-1.1-1-2.3-1.2-3.8c-0.2-1.4-0.1-2.6,0.3-3.8c0.3-1.2,0.9-2.2,1.6-3.1
			c0.7-0.9,1.6-1.6,2.7-2.2c1.1-0.6,2.3-0.9,3.6-1.1c1.2-0.2,2.3-0.1,3.3,0.1c1,0.2,1.9,0.6,2.6,1c0.7,0.5,1.3,1.1,1.8,1.7
			c0.4,0.7,0.7,1.4,0.8,2.2c0.1,0.8,0.1,1.6-0.2,2.3c-0.2,0.7-0.7,1.3-1.4,1.9c-0.7,0.6-1.7,1-2.9,1.4c-1.3,0.4-2.9,0.7-4.9,1
			L90.8,121.6z M90.1,118.1c1.5-0.2,2.7-0.4,3.5-0.6c0.8-0.2,1.4-0.4,1.8-0.7c0.4-0.2,0.6-0.5,0.7-0.7c0.1-0.2,0.1-0.5,0.1-0.7
			c-0.1-0.5-0.3-0.9-0.8-1.2c-0.5-0.3-1.1-0.4-2-0.3c-0.6,0.1-1.1,0.2-1.5,0.5c-0.4,0.3-0.8,0.6-1,1c-0.3,0.4-0.4,0.8-0.5,1.3
			C90.1,117.2,90.1,117.7,90.1,118.1"/>
		<path class="st3" d="M223.7,32.7c0-2.8,0.6-6,1.8-9.5c0.7-1.9,1.5-3.8,2.4-5.6c-2.7-3.9-6.4-7-11.2-9.3C211.9,6.1,206.6,5,200.7,5
			c-7.2,0-14.3,1.6-21.2,4.9c-6.9,3.2-12.5,7.5-16.8,12.7c-4.3,5.2-6.5,10.5-6.5,15.8c0,4.6,2.1,9.2,6.3,13.7c3,3.1,5.5,4.7,7.5,4.7
			c0.8,0,1.3-0.2,1.8-0.7c0.4-0.4,0.8-1.4,1.2-3c1.2-4.4,3.1-8.9,5.6-13.5c2.5-4.6,5.2-8.3,7.9-11.2c2.8-2.9,5.1-4.4,6.9-4.4
			c2.3,0,3.4,2.8,3.4,8.3c0,5.2-1.4,10.3-4.2,15.5c-2.8,5.1-6.7,9.9-11.7,14.2c-3.3,2.8-5,4.9-5,6.3c0,1.2,0.4,2.2,1.2,2.7
			c0.8,0.6,2.2,1,4.1,1.3c10,2,15,7.7,15,17.2c0,4.4-1.3,9-3.8,14c-2.5,5-5.9,9.7-10.2,14.1c-3.3,3.5-6.7,6.2-10.1,8.3
			c-3.4,2.1-6.3,3.2-8.5,3.2h-0.6c-2-3.5-3-7.8-3-12.7c0-5,0.7-9.9,2.2-14.5c1.5-4.6,3.6-8.5,6.3-11.6l0.8-0.8
			c0.2-0.2,0.5-0.5,0.7-0.7c2.1-1.8,3.2-3.1,3.2-3.8c0-1.9-1.3-2.8-3.8-2.8c-6.1,0-12.2,1.8-18.2,5.3c-6.1,3.6-11,8.1-14.9,13.7
			c-3.8,5.6-5.7,11.2-5.7,16.8c0,8.2,2.8,15.1,8.5,20.5c5.7,5.5,12.8,8.2,21.4,8.2c9,0,18.3-2.5,28.1-7.4c9.7-4.9,18.7-11.8,27-20.6
			c3.8-4,7.1-8,9.8-12.1c2.7-4,4.8-8,6.3-11.8c1.5-3.8,2.2-7.3,2.2-10.5c0-6.8-2.5-12.2-7.4-16c-4.9-3.8-12.2-6-22-6.5v-0.4
			c6.1-2.6,11.3-5.2,15.4-8.1c4.2-2.9,7.3-6.4,9.3-10.4c-0.8-0.5-1.6-1-2.3-1.7C224.9,39.3,223.7,36.4,223.7,32.7"/>
		<path class="st3" d="M259.5,29.1c-0.8-0.5-1.7-0.7-2.6-0.7c-0.7,0-2.2,0.8-4.3,2.4c-3.7,2.7-6.7,4.1-9,4.1c-2.1,0-3.3-0.9-3.6-2.8
			c0.7,0.3,1.4,0.5,2.1,0.5c1.5,0,3.3-0.6,5.3-1.8c2-1.2,4.1-2.8,6.2-4.9c2.6-2.5,4.5-5.1,5.8-7.8c1.3-2.7,2-5.3,2-7.8
			c0-3.2-0.8-5.7-2.5-7.5C257.1,0.9,254.8,0,252,0c-4,0-8.2,1.4-12.5,4.3c-3.5,2.4-6.5,5.4-8.9,9c-0.9,1.4-1.8,2.8-2.5,4.3
			c0,0.1,0.1,0.1,0.1,0.2c2.7,4,4,8.6,4,13.6c0,4.3-0.9,8.2-2.6,11.7c1.9,1.1,4.2,1.6,6.9,1.6c1.5,0,3.3-0.3,5.3-0.9
			c2-0.6,3.9-1.4,5.9-2.4c2-1,4-2.3,6.1-3.9c2.1-1.6,4-3.1,5.6-4.8c0.9-0.9,1.3-1.6,1.3-2.2C260.7,30.1,260.3,29.6,259.5,29.1
			 M239.5,27.8c0-1.9,0.4-4.1,1.1-6.7c0.8-2.6,1.7-5.2,2.9-7.8c2-4.3,3.5-6.5,4.5-6.5c0.7,0,1.1,0.8,1.1,2.5c0,1.8-0.2,3.8-0.6,5.9
			c-0.4,2.1-1,4-1.7,5.7c-0.9,2.6-2.2,4.9-3.8,6.9c-0.7,1-1.8,1.9-3.2,2.9C239.6,29.3,239.5,28.4,239.5,27.8"/>
	</g>
</g>
<g>
</g>
<g>
</g>
<g>
</g>
<g>
</g>
<g>
</g>
<g>
</g>
<g>
</g>
<g>
</g>
<g>
</g>
<g>
</g>
<g>
</g>
<g>
</g>
<g>
</g>
<g>
</g>
<g>
</g>
</svg>
