<?xml version="1.0" encoding="UTF-8"?>
<svg width="1230px" height="1028px" viewBox="0 0 1230 1028" version="1.1" xmlns="http://www.w3.org/2000/svg" xmlns:xlink="http://www.w3.org/1999/xlink">
    <title>Artboard Copy 2</title>
    <g id="Artboard-Copy-2" stroke="none" stroke-width="1" fill="none" fill-rule="evenodd">
        <g id="Group-5" transform="translate(22.740741, 15.000000)">
            <g id="peep-46">
                <g id="BODY" transform="translate(92.977308, 404.324853)">
                    <path d="M266.610298,468.802962 C214.570203,468.802962 162.809672,466.244136 112.711348,461.196719 L112.689211,461.097378 L110.028921,460.775943 C102.458544,459.831885 94.7192901,459.087776 87.2349331,458.368343 C67.4914863,456.470104 47.0744284,454.506693 28.0311576,448.677202 L24.6668971,447.647091 L24.3373653,448.490541 C23.8421188,448.233646 23.3222049,447.96726 22.769401,447.711631 C25.7655473,398.760483 30.763552,350.714795 35.2770627,310.037436 L35.4623848,308.372048 L34.3574096,307.113516 C27.9761303,299.843894 25.6251326,293.752446 27.1785494,288.502551 C39.9037907,261.931637 42.6013976,228.03289 45.2104547,195.245877 C50.6189511,127.291461 55.7270105,63.1063144 143.948561,60.3279256 L144.089608,60.3215982 L145.020014,60.2570581 C163.417504,58.9959948 182.441167,57.691272 199.435142,49.2295564 L201.415495,48.2443705 L201.53314,46.0348206 C201.676085,43.3684279 204.957488,40.1971037 207.593742,37.6496673 C208.501378,36.772681 209.357781,35.9444162 210.128165,35.1148858 L210.289452,34.9408806 L210.427969,34.7491585 C214.405121,29.2202218 219.076124,25.9204501 222.922981,25.9204501 C228.525654,25.9204501 231.240339,32.9546902 232.359861,37.1478995 L234.125165,43.7581996 L238.797433,38.7607697 C249.776345,27.0214286 255.028615,14.1115068 254.439126,0.34421396 L254.8376,0.220195695 L254.326541,-3.06881931 C253.361981,-8.77682322 254.003334,-13.0111611 256.23479,-15.652244 C258.847009,-18.7444749 263.969616,-20.24788 271.895457,-20.24788 C277.132547,-20.24788 282.83136,-19.5872929 287.859724,-19.0045336 C289.503589,-18.814077 291.087998,-18.6305806 292.58449,-18.4768232 C302.650074,-17.4163405 312.940195,-15.5079778 322.890665,-13.6628898 L324.287222,-13.4040965 L323.342269,-10.8294521 L325.759679,-9.15773646 C328.980995,-6.92983692 331.380062,-2.46075016 332.342093,3.10298761 L332.385103,3.35418787 L332.462267,3.59842792 C333.89298,8.13521853 334.435663,13.2016177 335.010605,18.5654077 C335.977063,27.5902674 336.975778,36.9213764 342.376052,44.9547228 L345.62077,49.7806784 L348.731399,44.866771 C350.248763,42.4692955 352.283512,41.3031442 354.951391,41.3031442 C362.147961,41.3031442 370.937163,49.2643575 372.498802,55.4348989 L373.000374,57.4166601 L374.930127,58.0880039 C388.181608,62.7038878 399.100433,66.0726288 408.73402,69.044638 C432.922035,76.5066145 445.062848,80.2524723 452.853334,91.2312524 C460.867725,102.52514 464.923307,122.237717 471.67017,161.457228 C479.052695,203.95816 483.985553,247.642329 488.755225,289.888265 C494.74562,342.950365 500.939048,397.798708 512.055212,451.005075 C511.281666,451.80107 510.69534,452.593268 510.295601,453.380404 C505.388676,453.814468 500.398261,454.207404 495.543834,454.589583 C487.464295,455.226125 479.10962,455.884181 470.945959,456.740287 L469.134483,456.930111 L468.732846,457.555264 C467.987763,457.617906 467.253432,457.691305 466.531751,457.76407 C465.380603,457.879863 464.270568,457.991226 463.185833,458.054501 L462.857566,457.39771 L460.223842,457.693203 C394.660292,465.065329 329.519251,468.802962 266.610298,468.802962" id="âœ‹-Skin" fill="#D08B5B"></path>
                    <path d="M222.922981,25.9204501 C228.525654,25.9204501 231.240339,32.9546902 232.359861,37.1478995 L234.125165,43.7581996 L236.851867,40.8412394 L231.889599,49.5271927 L270.520838,84.9966411 L272.000115,86.0389868 C287.787589,97.1020785 298.535765,102.633624 304.244644,102.633624 C310.130086,102.633624 327.647308,88.2102873 356.796309,59.3636134 L341.056829,49.5271927 L342.475354,45.1034181 L345.62077,49.7806784 L348.731399,44.866771 C350.248763,42.4692955 352.283512,41.3031442 354.951391,41.3031442 C362.147961,41.3031442 370.937163,49.2643575 372.498802,55.4348989 L373.000374,57.4166601 L376.509175,58.6359781 C386.96241,62.2499566 395.94956,65.0875342 404.006902,67.5841213 L414.311778,70.7697688 C434.836723,77.1522424 445.686087,81.1307747 452.853334,91.2312524 C460.707437,102.299262 464.7595,121.452581 471.268535,159.127377 L471.67017,161.457228 C478.717126,202.0263 483.53205,243.673485 488.103589,284.118787 L489.881956,299.857504 C495.539028,349.799994 501.633808,401.124106 512.055212,451.005075 C511.281666,451.80107 510.69534,452.593268 510.295601,453.380404 C507.024318,453.66978 503.715928,453.940877 500.435461,454.202693 L491.112328,454.939982 C484.432546,455.471965 477.625318,456.039837 470.945959,456.740287 L469.134483,456.930111 L468.732846,457.555264 C468.236124,457.597025 467.744181,457.643567 467.257578,457.691516 L466.531751,457.76407 C465.380603,457.879863 464.270568,457.991226 463.185833,458.054501 L462.857566,457.39771 L460.223842,457.693203 C394.660292,465.065329 329.519251,468.802962 266.610298,468.802962 C214.570203,468.802962 162.809672,466.244136 112.711348,461.196719 L112.689211,461.097378 L110.028921,460.775943 C103.97262,460.020697 97.8082367,459.393417 91.7527448,458.804366 L82.9946302,457.959195 C64.5817728,456.169892 45.7141948,454.090301 28.0311576,448.677202 L24.6668971,447.647091 L24.3373653,448.490541 C23.8421188,448.233646 23.3222049,447.96726 22.769401,447.711631 L22.9743929,444.412998 C25.9899321,396.604847 30.8649792,349.800697 35.2770627,310.037436 L35.4623848,308.372048 L34.3574096,307.113516 C27.9761303,299.843894 25.6251326,293.752446 27.1785494,288.502551 C39.9037907,261.931637 42.6013976,228.03289 45.2104547,195.245877 L45.5352713,191.173597 C50.8022204,125.426424 57.3561718,64.3103791 141.326765,60.4296417 L144.089608,60.3215982 L148.272589,60.0326164 C165.648558,58.8177333 183.440812,57.193524 199.435142,49.2295564 L201.415495,48.2443705 L201.53314,46.0348206 C201.660547,43.6582532 204.281219,40.8805564 206.716086,38.5010167 L208.358358,36.9087307 C208.983729,36.2992835 209.577891,35.7074075 210.128165,35.1148858 L210.289452,34.9408806 L210.427969,34.7491585 C214.405121,29.2202218 219.076124,25.9204501 222.922981,25.9204501 Z" id="ðŸ‘•-Top" fill="#FFFFFF"></path>
                    <path d="M154.67264,206.102538 C154.821909,205.841213 155.321583,205.932962 155.281104,206.267684 C153.107206,220.705688 147.834064,234.695075 144.624766,248.949583 L144.722251,249.221047 C146.360024,253.909107 150.124924,270.820039 140.917691,266.117886 L140.18162,269.972911 C128.205057,332.952027 118.538306,396.603236 119.886477,460.896164 C120.084449,466.013183 117.407082,481.171885 110.173827,473.746608 C104.860837,464.830581 107.20045,453.898624 106.781736,443.999941 C107.695064,389.659693 113.22753,334.899302 127.434083,282.330111 L128.021288,280.51219 C137.419085,251.609334 137.383617,260.866789 132.967815,228.594136 C132.860922,225.616432 130.709162,219.144703 133.542123,217.356562 C136.094438,218.968237 136.940895,223.700176 137.865922,226.504571 L137.929134,226.692733 C139.302921,230.702446 140.528071,234.746327 141.741836,238.80666 C145.775913,227.906973 149.018101,216.292283 154.67264,206.102538 Z M304.825933,455.282503 C310.042782,453.7405 314.739717,459.678824 312.917489,464.542112 C311.737878,469.614205 301.883549,472.760853 301.508477,465.68928 C298.8134,462.806489 299.688146,457.505341 303.369288,455.904492 C303.331971,455.897532 304.485648,455.433097 304.825933,455.282503 Z M431.214795,167.62334 C431.408972,166.952629 431.965571,167.563862 431.815669,167.990333 C432.979466,173.889426 432.033248,180.377606 432.300163,186.505753 C433.045246,184.750515 434.010439,183.073105 435.264684,181.501363 C436.351949,180.140326 438.324713,182.084755 437.193805,183.430607 C434.385511,186.773405 433.157198,190.803366 432.622104,194.991513 C436.742833,282.443372 448.876688,369.742107 469.692221,454.795858 C474.203834,466.526341 456.007479,471.277632 458.004277,458.504384 C444.233516,398.8497 433.253338,337.935851 430.797978,276.611983 C427.485583,249.701918 428.790427,221.664299 429.244561,194.403692 C429.262904,185.522466 430.121205,176.422309 431.214795,167.62334 Z M245.917155,-10.7563699 C251.030274,-10.3507795 253.994163,-1.85932485 255.013751,2.79895303 C258.751818,21.0574788 248.702046,40.0601142 235.475234,52.0342042 C255.004896,69.6359393 276.212577,85.3229843 299.100175,98.3119993 C302.213334,94.784439 307.71291,95.2912688 311.544587,97.4185616 C323.937134,85.6912427 336.4916,74.2132257 348.556513,62.1581442 C329.800106,50.2893874 328.233238,25.8525776 331.987929,5.9702513 L332.103324,5.3691683 C332.387316,3.66265166 334.764246,4.28211024 334.898969,5.7481833 L334.983285,6.69242281 C336.108999,19.6228759 336.209626,33.5830222 343.397854,44.8816406 C351.576062,31.9603294 371.175299,45.1834605 374.050638,56.5488487 C456.247638,85.17682 457.016757,68.3040085 473.283991,162.859077 C489.730222,259.524354 494.382882,357.848692 513.647528,454.072945 C513.885347,456.801347 511.408482,459.033676 508.94237,459.404465 C499.518772,460.659201 499.225925,435.18547 497.053924,428.071504 C492.417076,401.513245 488.915564,374.769592 485.89728,347.982913 C476.631174,268.637166 473.459193,188.08667 455.517102,110.03742 C453.712584,103.47078 451.142742,96.9743738 446.600136,91.794713 C427.667552,71.1849022 394.829485,75.6906882 374.309962,57.3233301 C376.297273,63.4445173 376.457295,70.2104729 376.066411,76.6043738 C373.821041,110.679658 372.466229,144.819481 370.054511,178.882743 C369.774947,182.707694 365.146321,183.964961 362.979381,180.799331 C345.808306,155.728027 328.184995,131.035737 311.447182,105.660714 C308.750208,106.940127 305.872971,107.523519 302.78448,106.910388 C297.887042,113.096115 300.002751,129.276703 298.403794,137.760564 L297.810509,144.251545 C288.66617,244.867153 281.954381,345.733772 282.451962,446.815737 L282.470519,450.07652 C282.466092,453.177609 282.703911,456.393226 282.472417,459.484824 C280.381376,469.531569 270.494789,465.936305 271.04949,456.975985 C270.609271,343.719468 275.287232,229.726435 293.968081,117.883474 C277.103768,139.147544 260.259063,160.427433 243.38716,181.687074 C242.124935,183.291019 239.725491,182.585694 238.723816,181.100993 L238.660497,181.003076 L239.075416,182.116709 C238.060888,181.791477 237.174758,181.173917 236.255105,180.641145 C227.772665,159.804811 222.283208,137.950388 215.619202,116.512312 C210.057009,95.4912166 201.718146,74.8725473 198.645467,53.3319667 L198.506317,53.2737541 L198.506317,53.2737541 C190.159865,57.4713927 180.912734,60.1656262 171.567565,60.325711 C160.999145,63.0490509 149.883613,64.3335258 139.341124,65.7179746 C62.7031549,68.9981311 47.5516487,145.121301 48.2524572,208.218757 L48.1193804,211.231443 C47.3185057,229.99567 46.9407407,249.086797 42.2905245,267.339403 C40.573923,270.782808 35.1426567,292.933356 29.6797655,285.065157 C25.07391,291.223676 26.516007,294.810082 32.6544069,298.614785 C43.3758923,307.822508 53.8374207,322.482606 55.9006314,337.590688 C56.2845581,340.379201 52.2833714,342.829194 50.8608818,339.716716 L50.1508089,338.168371 C45.9965349,329.146811 41.6042634,320.323111 35.6714256,312.484583 C35.4089387,312.923708 35.0515769,313.293232 34.6240078,313.540003 C33.1983557,350.925815 30.3116317,388.243924 27.7304045,425.56393 C26.319009,430.912294 28.9791953,464.862188 18.1618444,456.474406 L17.8299024,456.207198 C15.3591751,450.97441 16.8457846,444.648129 17.3507944,439.061363 L18.8709953,421.169508 L18.8709953,421.169508 C22.154296,384.649292 24.8424155,348.056944 29.3786961,311.664543 L29.0225422,311.255274 C23.8055187,305.208295 18.9312794,297.223502 21.5002924,289.155228 C22.8171546,284.30333 27.1832931,281.887505 30.1370621,278.180245 C46.1626815,193.620669 18.4763161,62.6909165 141.702242,58.5793314 L146.86078,58.2221781 C163.471848,57.0434058 180.578908,55.3641169 195.617063,47.8770613 C195.89979,42.5974266 201.928135,38.1239106 205.220291,34.5767352 C215.361775,20.4804142 228.975677,19.7736367 233.898414,38.2137606 C246.98924,24.1319928 252.276929,7.781197 245.917155,-10.7563699 Z M301.08717,398.937399 C307.468449,392.783941 316.017934,403.993041 304.447003,411.911228 C302.34774,415.760223 296.609711,413.045742 297.585657,409.017046 L297.573544,408.33892 C297.488375,404.832697 297.142859,400.503864 301.08717,398.937399 Z M301.766726,316.81668 C313.417352,313.061331 310.514183,334.288069 302.828059,337.184149 C298.183621,339.491774 296.591622,333.716067 297.439803,330.19167 C294.422784,325.606158 297.186171,319.57229 301.766726,316.81668 Z M301.578874,255.819245 C299.429644,246.724151 312.478092,245.209989 312.553359,254.710041 C312.974603,258.704568 309.332676,261.30389 308.41239,264.777034 C308.218213,267.037204 305.445971,268.629193 303.671812,266.741711 C300.711718,263.590635 300.075425,259.315168 301.578874,255.819245 Z M299.940386,175.003629 C301.269899,164.357039 313.315204,168.84511 309.06165,170.618697 C308.97563,170.711078 308.886448,170.801561 308.792206,170.893309 C313.656753,171.365971 313.315836,177.080935 312.774417,180.736943 C310.865536,188.921515 298.499554,181.475357 299.940386,175.003629 Z M225.864416,141.138796 C226.854276,144.72014 227.851094,148.299586 228.871315,151.872071 C231.499347,161.076631 234.621993,170.036318 237.914781,178.981451 C233.885764,166.370819 229.870663,153.755757 225.864416,141.138796 Z M232.522097,39.7627234 C220.989749,20.3899315 214.766594,42.2304338 206.403064,50.8149022 C212.311866,93.0747586 230.193237,132.551164 242.363777,173.289266 C259.320435,151.60695 276.295435,129.939188 293.25652,108.260669 C294.271047,106.961008 295.248258,105.598705 296.260888,104.265509 C274.969085,91.956696 254.893576,77.404165 237.994476,59.3493836 C234.744065,60.0447717 232.251388,55.697805 229.9181,53.8887834 L229.673274,53.6873803 C227.515076,51.8681373 225.514679,48.9978045 226.873251,46.1680137 C226.692989,45.7845695 226.966861,45.4314971 227.339403,45.3150718 C229.026909,43.461758 230.816881,41.6748826 232.522097,39.7627234 Z M367.025475,80.3571918 C368.151323,66.5304207 365.871797,46.7077462 347.285823,49.8619863 C350.595689,54.3975114 356.818843,55.1302316 360.096452,59.4847913 C361.296302,61.4785747 359.823845,63.9481833 357.642989,64.3265656 C343.216959,77.3965721 329.579022,90.78485 314.850025,103.65301 C331.217194,124.851275 346.930359,146.451334 362.847189,167.976729 C363.946471,138.757772 365.879387,109.569188 367.025475,80.3571918 Z" id="ðŸ–-Ink" fill="#000000"></path>
                </g>
                <g id="HEAD" transform="translate(235.289515, 113.894325)">
                    <path d="M272.600244,170.875023 C270.208132,131.516941 257.468711,86.8950424 219.975027,67.570972 C137.31838,34.3150946 28.6419839,118.062857 22.8882901,203.617743 C20.8824499,232.90377 37.1021104,264.904912 66.7422175,273.047091 C73.3322041,281.79987 83.2982886,287.14531 93.1349843,291.784605 C210.296122,352.722498 285.977141,303.186693 272.600244,170.875023 L272.600244,170.875023 Z" id="âœ‹-Skin" fill="#D08B5B"></path>
                    <path d="M299.291236,146.392235 C295.150798,134.863599 290.77683,123.423547 286.175642,112.072079 C281.694375,101.024329 277.646672,89.7377896 272.081743,79.2135662 C238.84463,16.3565538 178.404336,16.3565538 147.161703,24.5696001 C130.959715,17.5714266 100.612906,19.545433 83.7423127,25.8604025 C56.4305706,36.0836836 23.1372844,76.2997697 11.7542361,94.3684716 C-13.3780956,134.26249 -29.0625287,187.360657 -12.3682327,233.460018 C-10.1862977,239.485027 -7.40349425,245.065217 -4.27039461,250.442927 C-6.24404541,253.124506 -8.51560576,255.664349 -11.0320579,258.1599 C-18.5100926,265.576952 -25.9881274,272.749763 -32.4480941,281.115301 C-38.8676663,289.428954 -44.1896438,298.269685 -48.1514621,308.017141 C-55.6219229,326.399685 -55.9816866,347.214506 -46.1052274,364.754864 C-37.5125565,380.016704 -22.2907668,391.381459 -5.14140136,392.465354 C-4.26092714,392.588106 -3.3791906,392.700735 -2.49366707,392.789952 C-0.221475557,396.542138 2.54933577,399.996932 5.71146896,403.008804 C15.3998411,412.2469 38.4941432,416.986169 51.6665424,417.289887 C52.3418882,417.834049 53.0235457,418.378211 53.7052031,418.916045 C61.7651714,425.275145 70.2227731,431.691192 79.4756419,436.215327 C85.7431035,439.284147 93.9608628,441.846769 100.499725,439.632157 C103.466197,441.61898 108.332474,441.201368 111.2737,439.57521 C116.108419,436.905021 120.040572,432.096149 122.432685,427.173384 C128.233085,415.220807 126.838212,402.141942 125.348664,389.373123 C123.707637,375.269209 122.129726,361.158967 120.526569,347.055053 C119.270552,336.026286 117.95773,324.814023 114.612559,314.190213 C112.883169,308.685321 110.617289,303.395562 107.688687,298.422177 C107.764426,298.004564 107.751803,297.586952 107.631882,297.194649 C106.672512,294.068883 104.690656,292.43007 102.342725,290.304042 C102.039766,290.031962 101.736807,289.753553 101.44016,289.468817 C100.266194,288.127395 99.0101773,286.880885 97.6657974,285.824199 C97.1482426,285.29902 96.6369995,284.767513 96.1257564,284.236006 C91.8780206,279.775145 87.8638156,275.086495 84.2977373,270.06249 C80.8389568,265.190344 77.7146935,260.103064 74.7419096,254.920872 C71.7186325,249.650096 69.7178417,243.835158 66.7008763,238.602346 C66.4420989,238.153097 65.785688,238.064512 65.4196127,238.437832 C64.4854896,239.405934 63.8858835,240.481603 63.999493,241.614219 L63.5324314,241.683821 C63.3557054,239.975406 61.7841063,238.583364 59.6507709,238.956684 C56.4570795,239.513501 53.831436,239.722307 51.0669363,238.659294 C51.5529328,235.42596 52.0010595,232.186299 52.4428745,228.940311 C53.2507648,222.967187 54.0018504,216.97508 54.645638,210.982973 C56.2046138,211.356293 57.7509664,211.894127 59.2657607,212.577493 C61.4243426,213.545595 63.4630034,214.849052 65.2050169,216.4499 C66.9217838,218.031766 68.1083727,220.164121 70.2038382,221.265099 C72.6148859,222.524264 75.5245533,220.442529 74.8176493,217.709065 C73.3849063,212.18519 65.2744449,209.021459 60.2566887,207.977428 C58.5336101,207.616763 56.7726617,207.464903 55.0117133,207.502868 C55.4093468,203.655771 55.7627988,199.808674 56.0531344,195.955249 C56.1919905,194.13294 56.3182234,192.310631 56.4381446,190.481994 C60.33874,189.298759 64.5170478,188.944421 68.5754343,189.501237 C69.9135026,190.570579 71.251571,191.627265 72.5454578,192.696606 C76.6543375,196.100781 80.7442822,199.523938 84.7837338,203.01037 C85.1498091,203.320416 85.5095727,203.630461 85.875648,203.946834 C88.2740724,206.015915 91.2657912,203.965817 90.8618461,201.036202 C87.5671684,177.029809 102.235427,157.933527 119.409408,143.13992 C138.420077,126.758119 172.982635,124.850576 195.59094,96.4748839 C206.003321,98.599387 229.250933,104.909391 238.84463,120.234506 C252.275807,141.709913 250.52117,160.951727 251.543656,185.312457 C252.566142,209.69217 255.166539,235.122242 249.643852,259.160272 C244.550356,281.325373 230.759415,300.263468 209.362945,308.970057 C208.832767,309.18519 208.296278,309.393997 207.759788,309.596476 C196.695478,313.778928 184.621304,314.962164 172.982635,312.760207 C160.100571,310.317806 149.345531,304.407956 138.628361,297.137702 C138.00982,296.726417 137.107255,297.574297 137.574317,298.194388 C151.699774,316.961642 179.445757,323.232157 201.454457,318.277754 C202.483254,318.043638 203.505741,317.790539 204.521915,317.512131 C199.598833,331.704629 200.589761,347.282842 207.002391,361.10202 C210.858805,369.416306 216.741256,376.610631 223.904971,382.286365 C231.800837,388.537898 241.596507,393.587213 247.075013,402.363403 C252.092769,410.405608 250.603221,419.441224 242.013075,424.085582 C239.848182,425.26249 239.015045,429.065295 241.161003,430.735745 C241.981517,431.368491 242.802031,432.013892 243.641479,432.646639 C248.450951,436.28493 261.66122,443.118589 263.800867,443.371688 C282.798913,445.630592 295.573679,431.6469 303.75988,415.151205 C313.372512,395.78917 310.873101,372.194062 300.282164,353.755836 C291.786693,338.962229 275.054527,324.383755 281.706999,305.660794 C284.080176,298.972666 288.93383,293.271622 293.648627,288.121068 C299.026147,282.25551 304.807612,276.763273 309.964225,270.688909 C315.089279,264.658837 319.633662,258.097258 322.170943,250.529613 C325.875877,239.469209 324.032877,227.510305 321.249443,216.468883 C315.28494,192.766208 307.540554,169.379907 299.291236,146.392235 Z" id="ðŸ–-Ink" fill="#000000"></path>
                </g>
                <g id="FACE" transform="translate(335.856808, 231.585127)" fill="#000000">
                    <path d="M112.289707,129.92628 C114.45981,126.095634 120.935332,126.718256 121.925192,131.186078 C123.933376,140.243207 113.137255,148.606847 104.937542,148.815654 C96.7890617,149.022562 87.646293,142.084499 88.8259031,133.320963 C89.117485,131.153175 92.011799,131.416397 92.998497,132.775536 L93.3815723,133.296941 C96.0615118,136.898639 99.5976673,140.626554 104.571326,139.7484 C106.632639,139.385204 108.504835,138.096932 109.750857,136.438504 C111.253674,134.437128 111.088592,132.047245 112.289707,129.92628 Z M60.4762363,63.664713 C61.580579,63.360362 62.6950417,63.4780528 63.6735172,63.8943999 C65.8581677,64.2949282 67.6829264,66.1172374 68.3242801,68.1977071 C68.37488,68.3778289 68.4313832,68.5557009 68.4936024,68.7316981 L68.5911946,68.9943346 L68.3293401,68.3274201 C68.4501474,68.9842107 68.9846088,69.6745369 69.1768884,70.3338584 C69.4134429,71.1444064 69.4710003,72.0650522 69.3913054,72.9572244 C70.085789,72.9641846 70.7802726,72.9875962 71.4734911,73.0477071 L72.1433733,73.1077621 C75.8896479,73.4560654 80.0025332,74.0949499 82.223439,77.3332975 C83.4707264,79.1530757 82.2999713,82.4294357 80.0084285,82.7799772 C76.4809833,83.3197097 73.4424596,81.3670548 69.9270318,80.9760176 C66.6038837,80.6058611 63.1264058,80.8178311 59.8462676,81.4183072 C53.07418,82.6568701 46.8511943,85.402847 40.2517415,87.1258817 L39.3533099,87.3540998 L39.3533099,87.3540998 L39.3545749,87.3496706 C38.2236672,87.623017 36.9396948,86.0500098 38.058585,85.1299967 C43.3456416,80.7849282 50.1146427,77.2636954 56.7830764,75.1193183 C55.8115584,73.5735192 55.5111215,71.5373418 56.1752452,69.8776484 C56.2780895,69.5336875 56.405753,69.1992938 56.5403386,68.8658568 L56.8210263,68.1799902 L56.8210263,68.1799902 C56.8482238,67.8566569 56.9102087,67.53712 57.0000235,67.2239106 L57.0145709,67.1283659 L57.0145709,67.1283659 L57.0227934,67.1340607 L57.0227934,67.1340607 C57.5193049,65.519925 58.8159272,64.1228213 60.4762363,63.664713 Z M127.92906,63.9145212 C129.375085,62.467314 131.406966,62.68118 132.915938,63.8201588 L133.116182,63.9771631 L133.116182,63.9771631 C134.538671,64.6092766 135.715751,65.9905616 136.488665,67.2706073 C137.291305,68.6000072 137.824502,69.9540841 137.845374,71.4176262 C141.345622,71.4290157 144.698498,72.4793744 147.26834,75.3064847 C148.098178,76.2189048 148.664897,77.6261324 148.208233,78.8631513 L147.936258,79.5990352 L147.936258,79.5990352 C147.073313,81.9353815 143.193735,83.2803008 141.875136,80.5327671 L141.814304,80.3988265 C140.413319,77.1363868 135.035183,77.4787025 132.176921,77.8121598 C130.18455,78.0456432 128.216847,78.5410835 126.292786,79.096002 C125.614905,79.2915205 124.943073,79.5037674 124.271952,79.7204632 L123.600871,79.9381872 C123.242877,80.0539798 121.378271,81.0670065 122.538273,80.8271957 C122.850095,80.7626556 123.084752,81.2169674 122.766605,81.3694592 C121.383963,82.0306791 119.908976,80.7139341 120.001321,79.2282459 C120.161242,76.6492861 124.255021,75.2352671 126.224856,74.3459879 L126.342753,74.2921924 C127.097956,73.9429165 127.889212,73.6081937 128.705768,73.2975153 C128.246574,72.6141494 127.867075,71.8548539 127.551458,71.0398767 C127.252919,70.2704573 127.053682,69.5225512 126.944259,68.7044103 C126.836734,68.3045147 126.836734,67.904619 126.944259,67.5040907 L126.960704,67.3895636 L126.960704,67.3895636 C126.905044,67.1250757 126.878479,66.8517293 126.882274,66.5764847 L126.870889,66.4695506 L126.882274,66.4695506 C126.920857,65.505878 127.303519,64.5403072 127.92906,63.9145212 Z M104.825021,91.3787456 C110.380257,93.0960189 119.545163,97.7739119 116.650216,104.994179 C112.607917,111.62536 101.887697,106.751948 96.6929851,104.60947 C92.0257773,103.063038 89.5957173,109.606267 94.1085955,111.578537 C131.400086,126.337343 131.262834,87.3861168 106.177303,87.9581194 C103.415181,88.0207613 103.328529,90.8080085 104.825021,91.3787456 Z M55.4870237,40.58997 L56.4346329,40.3133392 C61.3586352,38.8864964 66.3851024,36.4225825 70.7569334,40.2671487 C72.4735348,41.7768813 72.8271016,44.9140372 71.5987891,46.79709 C68.8006149,51.0877423 64.6507909,50.4322172 60.1315878,50.7979446 C56.6907949,51.0763529 53.3012344,52.0874814 50.089406,53.3510757 C47.4645364,54.3843503 45.0300489,55.8390339 42.7315486,57.4613953 C40.4735283,59.0565486 38.930864,61.5502016 36.6146538,62.9859028 C35.7658405,63.5123477 34.7854675,62.9707169 34.4806032,62.1171422 C33.4002954,59.0894514 35.2256866,55.317651 36.7702484,52.7379446 C38.655727,49.5906647 41.5196811,47.016653 44.5993173,45.06906 C47.9716057,42.9360237 51.7006683,41.7044374 55.4870237,40.58997 L55.4870237,40.58997 Z M127.236221,37.3321532 C135.559271,37.3296243 143.567969,41.9606941 148.22316,48.7494286 C149.805039,51.0557886 148.645669,54.4726184 146.374999,55.8007528 C143.827641,57.2914285 141.103982,56.2180344 139.42526,54.0819305 L139.325801,53.952501 C136.656024,50.3958343 133.214598,47.5946667 129.134982,45.771092 C127.144508,44.880818 124.943413,44.1588545 122.790387,43.7924945 L122.094573,43.6732142 C121.119351,43.5097328 119.988039,43.3536217 119.106082,43.5064932 C118.633606,43.5685023 118.199712,43.7247906 117.799973,43.9627032 C117.992252,44.3828467 117.495741,44.8890437 117.037179,44.6372107 C114.968908,43.5007984 115.22254,41.4734795 116.930919,39.8979413 C119.347697,37.6687763 124.11484,37.332788 127.236221,37.3321532 Z" id="ðŸ–-Ink"></path>
                </g>
            </g>
            <g id="Group" transform="translate(444.259259, 0.000000)">
                <g id="peep-99" transform="translate(369.629630, 499.000000) scale(-1, 1) translate(-369.629630, -499.000000) ">
                    <g id="BODY" transform="translate(95.661189, 415.996086)">
                        <path d="M274.306266,482.335418 C220.763982,482.335418 167.509333,479.702729 115.964871,474.509614 L115.942095,474.407405 L113.205014,474.076691 C105.41611,473.105383 97.4534552,472.339794 89.7530549,471.599594 C69.4396941,469.646561 48.4332779,467.626474 28.8403045,461.628708 L25.3789312,460.568862 L25.0398871,461.43666 C24.5303449,461.17235 23.9954231,460.898274 23.4266621,460.635265 C26.5092951,410.271095 31.6515721,360.838521 36.2953697,318.986971 L36.4860413,317.273509 L35.3491699,315.978648 C28.7836887,308.499182 26.3648272,302.231898 27.9630849,296.830459 C41.0556527,269.492551 43.8311287,234.615282 46.5154988,200.881841 C52.0801167,130.965854 57.3356253,64.92794 148.103777,62.0693503 L148.248896,62.0628402 L149.206159,61.9964371 C168.13471,60.698972 187.70751,59.3565871 205.192032,50.6506158 L207.229551,49.6369915 L207.350591,47.3636608 C207.497662,44.6203001 210.873786,41.3574325 213.586139,38.7364618 C214.519975,37.8341605 215.401099,36.981987 216.19372,36.1285114 L216.359663,35.9494834 L216.502178,35.752227 C220.594135,30.0636921 225.399971,26.6686693 229.357871,26.6686693 C235.122271,26.6686693 237.915318,33.9059596 239.067156,38.22021 L240.883417,45.0213229 L245.690555,39.8796373 C256.986384,27.8014286 262.390265,14.5188493 261.78376,0.354150033 L262.193737,0.226551859 L261.667926,-3.15740378 C260.675522,-9.03017482 261.335389,-13.386741 263.631258,-16.1040613 C266.318882,-19.2855525 271.589358,-20.8323549 279.743986,-20.8323549 C285.132249,-20.8323549 290.995564,-20.1526993 296.169077,-19.5531181 C297.860393,-19.3571637 299.490538,-19.1683705 301.030228,-19.0101748 C311.386365,-17.9190802 321.97352,-15.9556308 332.21122,-14.0572825 L333.64809,-13.7910189 L332.67586,-11.1420548 L335.163051,-9.4220835 C338.477353,-7.12987345 340.945672,-2.53178213 341.935473,3.19255838 L341.979724,3.45100978 L342.059116,3.70230007 C343.531127,8.37004958 344.089476,13.5826954 344.681014,19.1013164 C345.67537,28.3866875 346.702914,37.9871481 352.259072,46.2523849 L355.597452,51.2176464 L358.797872,46.1618943 C360.359037,43.6952133 362.45252,42.4953999 365.197411,42.4953999 C372.601717,42.4953999 381.644628,50.6864214 383.251345,57.0350815 L383.767395,59.0740483 L385.752853,59.764771 C399.38685,64.5138969 410.620857,67.97988 420.532528,71.0376791 C445.418754,78.7150528 457.910023,82.5690385 465.925389,93.8647319 C474.171123,105.484629 478.343773,125.766228 485.285392,166.117849 C492.88102,209.845613 497.95627,254.790767 502.863623,298.256174 C509.026937,352.849963 515.399144,409.281558 526.836187,464.023778 C526.040312,464.84275 525.437061,465.657816 525.025783,466.467674 C519.977215,466.914267 514.842747,467.318545 509.848192,467.711756 C501.53543,468.366673 492.939589,469.043725 484.540276,469.924543 L482.676509,470.119846 L482.263279,470.763045 C481.496688,470.827495 480.74116,470.903012 479.998647,470.977879 C478.81427,471.097014 477.672193,471.211592 476.556146,471.276693 L476.218403,470.600943 L473.508653,470.904965 C406.052548,478.489896 339.031147,482.335418 274.306266,482.335418" id="âœ‹-Skin" fill="#D08B5B"></path>
                        <path d="M229.357871,26.6686693 C235.122271,26.6686693 237.915318,33.9059596 239.067156,38.22021 L240.883417,45.0213229 L243.688828,42.0201618 L238.583319,50.9568437 L278.329686,87.4501524 L279.851665,88.5225864 C296.09486,99.9050251 307.153293,105.596244 313.026964,105.596244 C319.082295,105.596244 337.105168,90.7565637 367.095584,61.0772022 L350.901769,50.9568437 L352.361241,46.4053725 L355.597452,51.2176464 L358.797872,46.1618943 C360.359037,43.6952133 362.45252,42.4953999 365.197411,42.4953999 C372.601717,42.4953999 381.644628,50.6864214 383.251345,57.0350815 L383.767395,59.0740483 L387.377481,60.3285631 C398.132459,64.0468626 407.379032,66.9663496 415.668957,69.5350031 L426.271294,72.8126074 C447.388711,79.3793175 458.551252,83.472694 465.925389,93.8647319 C474.006209,105.252231 478.175238,124.958429 484.872163,163.720744 L485.285392,166.117849 C492.535765,207.857987 497.489676,250.707359 502.193177,292.320154 L504.022878,308.513185 C509.843248,359.897314 516.113959,412.702947 526.836187,464.023778 C526.040312,464.84275 525.437061,465.657816 525.025783,466.467674 C521.660071,466.765403 518.256181,467.044325 514.881021,467.313699 L505.288767,468.07227 C498.416166,468.61961 491.412441,469.203873 484.540276,469.924543 L482.676509,470.119846 L482.263279,470.763045 C481.752218,470.806012 481.246075,470.853897 480.745426,470.903229 L479.998647,470.977879 C478.81427,471.097014 477.672193,471.211592 476.556146,471.276693 L476.218403,470.600943 L473.508653,470.904965 C406.052548,478.489896 339.031147,482.335418 274.306266,482.335418 C220.763982,482.335418 167.509333,479.702729 115.964871,474.509614 L115.942095,474.407405 L113.205014,474.076691 C106.973891,473.299645 100.631567,472.654258 94.4012776,472.048203 L85.3903515,471.178636 C66.445989,469.337683 47.0337798,467.198062 28.8403045,461.628708 L25.3789312,460.568862 L25.0398871,461.43666 C24.5303449,461.17235 23.9954231,460.898274 23.4266621,460.635265 L23.6375713,457.241415 C26.7401569,408.053234 31.7559271,359.898036 36.2953697,318.986971 L36.4860413,317.273509 L35.3491699,315.978648 C28.7836887,308.499182 26.3648272,302.231898 27.9630849,296.830459 C41.0556527,269.492551 43.8311287,234.615282 46.5154988,200.881841 L46.8496915,196.69201 C52.2686763,129.04698 59.0118138,66.1667612 145.406301,62.1740025 L148.248896,62.0628402 L152.552623,61.7655167 C170.430166,60.5155648 188.736011,58.8444711 205.192032,50.6506158 L207.229551,49.6369915 L207.350591,47.3636608 C207.481676,44.9184914 210.177997,42.0606137 212.683149,39.6123862 L214.372826,37.9741373 C215.016249,37.3470979 215.627562,36.7381368 216.19372,36.1285114 L216.359663,35.9494834 L216.502178,35.752227 C220.594135,30.0636921 225.399971,26.6686693 229.357871,26.6686693 Z" id="ðŸ‘•-Top" fill="#FFFFFF"></path>
                        <path d="M159.137417,212.051889 C159.290996,211.783022 159.805093,211.877418 159.763445,212.221803 C157.526795,227.076574 152.101439,241.469778 148.799501,256.135756 L148.899801,256.415056 C150.58485,261.238442 154.458427,278.637525 144.985418,273.79964 L144.228099,277.765943 C131.905822,342.563013 121.96003,408.051576 123.347117,474.200384 C123.550804,479.46511 120.796152,495.061383 113.354102,487.421768 C107.887748,478.248371 110.294896,467.000852 109.864095,456.816434 C110.803788,400.907602 116.495954,344.566498 131.112593,290.479846 L131.716748,288.609449 C141.385821,258.872283 141.349329,268.396964 136.806061,235.192729 C136.696083,232.129071 134.48221,225.47053 137.396948,223.630772 C140.022938,225.28897 140.893828,230.1575 141.845556,233.042847 L141.910594,233.236441 C143.324037,237.361898 144.584552,241.52251 145.833353,245.700048 C149.983878,234.485731 153.319655,222.535772 159.137417,212.051889 Z M313.625032,468.424678 C318.99247,466.838164 323.824987,472.947903 321.950158,477.951575 C320.736498,483.170079 310.597713,486.407558 310.211815,479.131858 C307.438942,476.165851 308.338938,470.71168 312.12634,469.064622 C312.087945,469.057461 313.274925,468.579619 313.625032,468.424678 Z M443.662232,172.461952 C443.862014,171.77188 444.43468,172.400757 444.280451,172.839538 C445.477843,178.908915 444.504311,185.584382 444.77893,191.889425 C445.545521,190.08352 446.538575,188.357689 447.829025,186.740578 C448.947676,185.340253 450.977385,187.34081 449.813832,188.725511 C446.924474,192.164802 445.660705,196.311092 445.110165,200.620134 C449.349843,290.596377 461.833954,380.415075 483.250346,467.923986 C487.892192,479.99308 469.170581,484.881523 471.225019,471.739562 C457.056751,410.362887 445.75962,347.690701 443.233384,284.596659 C439.825373,256.909808 441.167883,228.062856 441.635126,200.015345 C441.653998,190.877753 442.537074,181.514912 443.662232,172.461952 Z M253.015794,-11.066863 C258.276509,-10.6495649 261.325953,-1.91299609 262.374973,2.87974755 C266.220943,21.6653235 255.881075,41.2164886 242.272457,53.5362224 C262.365862,71.6460489 284.185724,87.7859159 307.733994,101.149871 C310.937017,97.5204847 316.595344,98.0419446 320.537626,100.230644 C333.287896,88.1648043 346.20476,76.3554631 358.617938,63.9523999 C339.320109,51.7410398 337.708011,26.5988375 341.571086,6.14258845 L341.689812,5.5241546 C341.982002,3.76837769 344.427544,4.40571755 344.566155,5.91411024 L344.652906,6.88560615 C345.811114,20.1893094 345.914647,34.5524291 353.310369,46.1771931 C361.724649,32.8828956 381.889637,46.4877254 384.847976,58.1811866 C469.417673,87.6355323 470.208993,70.2756706 486.945797,167.560164 C503.866764,267.015779 508.653728,368.178345 528.474467,467.180205 C528.719151,469.987365 526.170789,472.284132 523.63349,472.665625 C513.93787,473.95658 513.63657,447.747524 511.401873,440.428207 C506.631178,413.103318 503.02859,385.587684 499.923181,358.02778 C490.3896,276.391641 487.126056,193.515976 468.66605,113.213758 C466.809442,106.457565 464.165419,99.7736341 459.491686,94.4444573 C440.012595,73.2397241 406.226625,77.875574 385.114786,58.9780241 C387.159463,65.2759054 387.324104,72.237167 386.921937,78.8156341 C384.611751,113.874534 383.217831,148.999838 380.736497,184.046369 C380.448863,187.981731 375.686627,189.27529 373.457136,186.018281 C355.790402,160.223269 337.658376,134.818212 320.43741,108.710714 C317.662585,110.027059 314.702294,110.627291 311.52465,109.996461 C306.485844,116.360746 308.662624,133.008401 307.017512,141.737158 L306.407101,148.415507 C296.998802,251.935483 290.09327,355.713716 290.605214,459.713511 L290.624307,463.068419 C290.619752,466.259025 290.864437,469.567463 290.62626,472.748303 C288.474859,483.085057 278.302886,479.386012 278.873599,470.167044 C278.420673,353.641267 283.233667,236.357714 302.453757,121.286295 C285.102639,143.164174 267.771695,165.058328 250.412769,186.93165 C249.114108,188.581894 246.645402,187.856209 245.614813,186.328651 L245.549666,186.227907 L245.976562,187.373686 C244.932749,187.039067 244.021039,186.40368 243.07484,185.855528 C234.347546,164.417733 228.699631,141.932461 221.843262,119.875554 C216.12051,98.2476641 207.540938,77.0338167 204.379563,54.8714462 L204.236397,54.8115532 L204.236397,54.8115532 C195.649015,59.1303607 186.134957,61.9023659 176.520031,62.0670718 C165.646543,64.8690235 154.21015,66.190576 143.363342,67.6149883 C64.5131429,70.9898297 48.9242736,149.31037 49.6453116,214.229196 L49.5083935,217.328845 C48.6844008,236.63472 48.2957311,256.276932 43.5112819,275.056417 C41.7451291,278.599219 36.1570839,301.389164 30.536501,293.293841 C25.797693,299.630132 27.2814175,303.320063 33.5970083,307.234593 C44.6279799,316.708106 55.3914906,331.791382 57.5142579,347.335574 C57.909267,350.20458 53.7925821,352.725295 52.329031,349.522971 L51.5984611,347.929932 C47.3242699,338.647956 42.8052112,329.569552 36.7011163,321.504756 C36.4310524,321.956558 36.063375,322.336748 35.6234637,322.590643 C34.1566588,361.055633 31.1866066,399.450965 28.5308698,437.84825 C27.078733,443.350999 29.8157081,478.28089 18.6861038,469.650987 L18.34458,469.376066 C15.8025328,463.992228 17.3320546,457.483332 17.8516421,451.735299 L19.415725,433.326978 L19.415725,433.326978 C22.7938015,395.752571 25.5595161,358.103948 30.226741,320.661046 L29.8603063,320.239962 C24.4926883,314.018431 19.4777494,305.80315 22.1209194,297.501977 C23.4757942,292.510024 27.9679655,290.024464 31.0069979,286.21019 C47.4952125,199.209719 19.0096531,64.5005512 145.792616,60.2702811 L151.10006,59.9028183 C168.190623,58.6900195 185.791495,56.9622564 201.263741,49.2590796 C201.55463,43.8270431 207.756989,39.2243947 211.144176,35.5748265 C221.578404,21.0716014 235.585284,20.344422 240.650121,39.3168382 C254.118826,24.8285864 259.55915,8.00580887 253.015794,-11.066863 Z M309.778346,410.453117 C316.343827,404.122034 325.140101,415.654696 313.235164,423.801449 C311.075303,427.761549 305.171641,424.968712 306.175758,420.823724 L306.163296,420.126023 C306.075668,416.518589 305.720179,412.0648 309.778346,410.453117 Z M310.477518,325.961903 C322.464451,322.098153 319.477479,343.937622 311.569488,346.917299 C306.790983,349.291537 305.15303,343.349108 306.025694,339.722976 C302.921586,335.005098 305.764741,328.797057 310.477518,325.961903 Z M310.284244,263.203718 C308.072973,253.846085 321.498078,252.288215 321.575518,262.062496 C322.008922,266.172329 318.261866,268.846682 317.315016,272.420082 C317.115234,274.745494 314.262968,276.383438 312.437597,274.441472 C309.392057,271.199437 308.737396,266.800555 310.284244,263.203718 Z M308.598459,180.05528 C309.966349,169.101366 322.359354,173.718989 317.983017,175.543773 C317.894514,175.638821 317.802758,175.731915 317.705795,175.826312 C322.710762,176.312617 322.360005,182.192549 321.802957,185.954091 C319.838974,194.37492 307.116036,186.713821 308.598459,180.05528 Z M232.384214,145.212906 C233.402647,148.897629 234.428239,152.580399 235.477909,156.256007 C238.181802,165.726265 241.394587,174.944583 244.782424,184.147926 C240.637106,171.173275 236.506105,158.194067 232.384214,145.212906 Z M239.234075,40.9105134 C227.368834,20.9785068 220.966042,43.4494566 212.36109,52.2817241 C218.440456,95.7614527 236.83799,136.377384 249.359845,178.291431 C266.805973,155.983234 284.270973,133.69001 301.721656,111.385719 C302.765469,110.048542 303.770888,108.646915 304.812749,107.275235 C282.906337,94.6111161 262.251329,79.6385121 244.86442,61.0625616 C241.520183,61.7780228 238.955552,57.3055766 236.554911,55.4443359 L236.303018,55.2371191 C234.082521,53.3653618 232.024381,50.4121741 233.42217,47.5006986 C233.236704,47.1061859 233.518482,46.7429217 233.901777,46.6231357 C235.637996,44.7163242 237.479636,42.8778689 239.234075,40.9105134 Z M377.620025,82.6767808 C378.778371,68.4508865 376.433045,48.0560111 357.310569,51.3013014 C360.715977,55.9677489 367.118769,56.7216197 370.490988,61.201878 C371.725473,63.253214 370.210512,65.7941102 367.966704,66.1834149 C353.124253,79.6306999 339.092643,93.4054436 323.938479,106.645056 C340.778102,128.45523 356.944843,150.678795 373.321128,172.825541 C374.452143,142.763151 376.440854,112.73201 377.620025,82.6767808 Z" id="ðŸ–-Ink" fill="#000000"></path>
                    </g>
                    <g id="HEAD" transform="translate(242.081377, 117.181996)">
                        <path d="M186.637814,331.671886 C172.224098,331.755251 159.974128,327.655183 150.626902,320.872299 C138.962676,316.702573 124.893134,310.271234 116.347247,303.519598 C113.013961,304.372423 109.025448,300.822459 106.47467,298.948849 C90.6134781,287.075058 78.1634979,269.695015 74.4743503,252.285676 C68.7792571,259.492369 60.6749512,259.791834 52.9115717,256.209971 C36.6380215,246.957802 37.2464938,227.476295 43.1052316,212.920989 C30.788375,185.21591 22.2522291,112.077418 41.0538292,82.5599243 C44.8994782,78.1434651 50.5432701,75.5016621 54.6064626,70.972578 C58.2222298,67.0170346 61.6613648,62.9710007 65.868071,59.8409393 C78.703785,50.0471285 100.811396,44.8325297 114.653655,42.3801709 C172.437096,29.8560196 216.834146,52.366681 269.175754,71.3547215 C266.163264,78.9064501 261.99617,85.7934964 257.220604,92.2150698 C270.214768,97.0774716 264.246284,108.009901 254.165255,113.551958 L248.163653,110.627616 C257.519321,144.184634 279.050279,227.632538 269.760199,254.430107 C262.352032,296.238039 229.839999,331.97334 186.637814,331.671886" id="âœ‹-Skin" fill="#D08B5B"></path>
                        <path d="M268.961742,71.6540644 C265.949252,79.2057931 261.782158,86.0928394 257.006592,92.5144128 C270.000755,97.3768146 264.032272,108.309244 253.951242,113.851301 L249.612469,111.737071 C247.713527,99.4608841 244.057239,93.0530178 238.643604,92.5134724 C229.768194,91.6289121 210.126571,108.273734 201.57331,108.273734 C193.020049,108.273734 149.566511,89.6566933 125.696837,89.6566933 C101.827162,89.6566933 81.5071946,109.421897 73.4331928,123.746934 C68.050525,133.296958 72.0559687,144.002345 85.4495238,155.863093 C77.4386365,166.156948 73.4331928,173.55477 73.4331928,178.056559 C73.4331928,182.558349 74.3692949,191.862751 76.241499,205.969767 C67.6157282,203.132127 60.836058,201.713307 55.9024884,201.713307 C50.9689188,201.713307 46.6866173,204.452081 43.055584,209.92963 L43.055584,209.92963 L41.5287135,209.93189 C29.9750781,180.114837 22.7401703,111.274732 40.8398168,82.8592673 C44.6854658,78.4428081 50.3292577,75.8010051 54.3924502,71.2719209 C58.0082174,67.3163775 61.4473524,63.2703436 65.6540586,60.1402823 C78.4897726,50.3464715 100.597384,45.1318726 114.439642,42.6795139 C172.223084,30.1553625 216.620134,52.666024 268.961742,71.6540644 Z" id="ðŸ’ˆ-Hair" fill="#ECDCBF"></path>
                        <path d="M194.987019,335.270155 C176.271841,337.19606 154.03818,332.76052 141.561701,317.51938 C141.188611,317.063202 141.025272,316.546689 141.015532,316.047895 C141.004701,315.493243 141.190388,314.957403 141.51127,314.540497 C141.848513,314.102335 142.328624,313.796862 142.879019,313.697765 C143.342432,313.614329 143.870764,313.668009 144.415463,313.974329 L145.562464,314.614606 C154.083325,319.332644 162.932613,323.356171 172.589119,325.078155 C182.531737,326.850873 192.655722,326.65261 202.509789,324.401152 C220.459199,320.301301 234.98579,309.842561 245.678127,296.051924 C257.610052,280.662506 264.774989,261.126923 266.601354,241.590217 C268.81446,217.913794 263.680676,194.381626 258.36921,171.45686 C252.788102,147.368813 246.687676,123.403598 239.601143,99.7165481 C239.387557,99.0035081 239.330164,98.3360863 239.391833,97.7214005 C237.30168,96.9004815 235.077065,97.128378 232.86302,97.8777763 C228.817585,99.2470536 224.787511,102.334797 221.426481,104.883612 C220.209196,105.806732 219.076727,106.664778 218.059102,107.362905 C213.891434,110.221866 209.335261,112.278972 204.241324,112.602536 C198.942802,112.938203 193.748332,111.2874 188.936309,109.221484 C186.491657,108.171847 184.086242,107.083131 181.69046,105.998685 C174.868705,102.910834 168.127471,99.8534289 160.76063,97.8664221 C150.889599,95.2032651 140.69823,93.8915413 130.475358,93.9855051 C112.230577,94.1527886 93.9298296,98.8607764 82.7477541,114.330016 C78.2182293,120.596403 75.265083,127.798615 77.5682166,135.532336 C78.821115,139.739396 81.1856142,143.558614 83.7662607,147.071286 L84.6516854,148.267521 C86.0673148,150.195706 87.2968982,152.116134 87.6676547,154.160749 C87.9782435,155.873557 87.7359841,157.685575 86.5159045,159.671574 C85.7482026,160.921786 84.7708909,162.042889 83.7881943,163.160342 C83.0793723,163.966364 82.368519,164.770898 81.7569287,165.637214 C80.5244214,167.383682 79.4331544,169.264708 78.5772857,171.226508 C76.9013189,175.066711 76.190403,179.197701 76.0417101,183.364021 C75.8616862,188.390404 76.5666839,193.307486 77.2658987,198.231607 C77.7616881,201.723134 78.2564086,205.218164 78.4561766,208.755527 C78.4910366,209.372804 78.3028002,209.832698 78.0391064,210.173063 C77.71643,210.589561 77.2455775,210.852078 76.7097263,210.924801 C76.5470491,210.946879 76.3786017,210.950394 76.2094263,210.935383 C76.2925441,211.275657 76.3659289,211.617507 76.429629,211.96052 C76.0909234,211.524009 75.7305791,211.100416 75.3502426,210.690959 C75.3259591,210.678698 75.3018681,210.665993 75.2779884,210.652844 C74.8858326,210.436914 74.5536777,210.107794 74.3443226,209.684061 C73.805705,209.182286 73.235442,208.706312 72.637187,208.258839 C69.5240234,205.930306 65.8887534,204.550007 62.2420836,204.504243 C58.7265975,204.460125 55.202497,205.660168 52.4928649,208.19465 C47.1072728,213.231644 45.529722,221.454267 45.4734274,228.514314 C45.4163738,235.721075 47.0800828,244.370137 53.3479278,248.844696 C55.8621933,250.639445 58.9328759,251.717845 62.026301,251.749048 C64.5907269,251.774853 67.0444302,250.865322 69.460387,249.99884 C70.2054219,249.731634 70.9469171,249.465892 71.6865811,249.224461 C72.5270001,248.950309 73.2928823,248.967737 73.960456,249.168184 C74.7129117,249.394118 75.3515195,249.860682 75.8286161,250.482974 C76.3038668,251.102859 76.6153701,251.87889 76.7119174,252.69157 C76.8053911,253.478378 76.6978168,254.295397 76.3655044,255.031946 C76.2820832,255.217482 76.1940837,255.397573 76.1024963,255.573441 L77.4811232,257.845845 C82.7597243,266.524706 88.1306818,275.045173 95.1737169,282.504799 C99.2163176,286.786468 103.50138,290.827058 108.201676,294.363995 L108.879602,294.868548 C109.285258,295.167077 109.735201,295.535128 110.215077,295.928672 C111.586007,297.052965 113.229155,298.560793 114.763207,298.620163 C115.218447,298.63793 115.615814,298.580843 115.977298,298.53328 C116.850842,298.418342 117.583708,298.384702 118.303809,298.679198 C118.883019,298.916074 119.484105,299.358406 120.101374,300.271955 C120.518921,300.890267 120.73322,301.665757 120.73322,302.452584 C120.73322,303.243017 120.516347,304.03378 120.130363,304.658781 C119.331889,305.952608 118.365744,306.753866 117.317619,307.208901 C116.149041,307.71623 114.857602,307.793718 113.515222,307.542724 C110.208331,306.924413 106.547482,304.178418 104.217954,302.386346 L103.767347,302.040366 C98.6055233,298.093168 93.7135061,293.725743 89.4130976,288.841358 C82.0892135,280.523741 75.5116882,270.722108 72.1331459,260.012485 C69.7518529,261.580672 66.8097903,262.325054 63.7338322,262.442295 C59.2523769,262.613106 54.5091915,261.457241 51.0140414,259.79555 C43.3111672,256.133614 38.6325756,249.207421 36.4399512,241.242426 C33.8936895,231.992798 34.7212606,221.358681 37.94471,213.049557 C38.0381429,212.808015 38.1357505,212.567394 38.2359268,212.323033 C28.3121677,187.117736 25.2607935,159.129005 26.1108018,132.230322 C26.508409,119.639557 27.3636551,106.429697 30.3266417,94.1501109 C31.6546739,88.6463426 33.9620327,83.4049881 37.6463276,79.0720125 C39.746852,76.6011546 42.3241609,74.6775778 44.9132811,72.7592761 C47.1557595,71.0978044 49.4068245,69.4399807 51.3009935,67.365495 L52.1966598,66.3804668 C52.3908156,66.1662394 52.5844567,65.952276 52.7777721,65.7386726 C56.0487119,62.1244553 59.2332248,58.6173971 63.2025885,55.653321 C67.8059697,52.2166651 72.8858797,49.5267207 78.1643161,47.2926827 C89.5356274,42.4816445 101.77447,39.5969126 113.881727,37.3651472 C140.075289,32.5378111 166.963788,32.2996116 192.836203,39.0852104 C204.86514,42.2396584 216.539235,46.5574992 228.193406,50.8701797 C229.275467,51.2706013 230.35736,51.6709612 231.439397,52.0703281 C240.496127,55.4133929 249.557701,58.7421958 258.619364,62.0710323 C262.830685,63.6180773 267.042026,65.1651295 271.253061,66.713679 C272.166705,67.049788 273.061213,67.7737942 273.570655,68.6733075 C274.06769,69.5509143 274.215801,70.57439 273.814459,71.5935444 C271.230638,78.1564961 267.970487,84.3137921 264.002138,90.0637041 C265.381158,91.0040849 266.554692,92.2545879 267.442389,93.718289 C268.565134,95.5695547 269.230254,97.7611887 269.275448,100.086225 C269.426698,107.873043 262.358227,113.151634 256.49389,116.969416 C255.947286,117.325617 255.406159,117.535858 254.883303,117.632326 C260.565539,139.413358 266.005036,161.268135 270.626939,183.296062 L270.944831,184.822981 C275.706137,207.876596 278.778078,231.403008 274.275088,254.762796 C270.397988,274.878184 261.390544,294.291715 247.315574,309.276894 C233.522059,323.963326 215.013131,333.208961 194.987019,335.270155 Z M71.7538051,202.651784 C69.3032325,194.855622 68.0045917,186.373051 68.9422105,178.470181 C69.5323788,173.502498 71.0222182,168.720108 73.4479978,164.341547 C74.8373975,161.833823 76.5307231,159.512278 78.3787555,157.325733 L79.0162331,156.591369 C79.3389712,156.21628 79.6599913,155.871536 79.7594747,155.439391 C79.8172879,155.188257 79.7584345,154.913614 79.6061842,154.585461 C79.2688194,153.858684 78.6418533,153.158239 78.0549174,152.474535 C77.6818875,152.040003 77.3175474,151.613535 77.0116517,151.198611 C71.6407892,143.910075 67.635446,135.232821 68.9374106,125.99016 C70.2075032,116.972575 76.102641,108.566954 82.3785634,102.232319 C96.1977919,88.2836551 117.62261,85.0783399 136.39147,85.8477042 C147.317262,86.2952024 158.225276,88.2256093 168.629918,91.5976603 C173.760621,93.260864 178.77724,95.2863246 183.65229,97.6078061 L184.731707,98.1273543 C185.3142,98.4102732 185.896109,98.6963448 186.478416,98.9826172 C190.289024,100.855981 194.114055,102.747642 198.25063,103.766154 C206.32894,105.754754 211.808856,101.566385 217.56866,97.3424072 C219.542625,95.8947912 221.546752,94.42715 223.676965,93.139178 L224.115386,92.8793017 C227.958327,90.6459806 232.554807,89.1430818 236.97037,89.2104854 C240.805819,89.2690336 244.506295,90.496745 247.519014,93.3980327 C248.137288,93.9941734 248.49331,94.6445343 248.660379,95.2918034 C248.993685,95.7602763 249.262771,96.3189139 249.438032,96.9788811 C250.517237,101.03843 251.591603,105.10089 252.662383,109.164586 L253.537949,108.598993 C256.13155,106.910174 258.951396,104.980171 260.224842,102.154792 C260.714942,101.067324 260.645526,99.2556049 260.02783,97.9235894 C259.812005,97.4581768 259.526558,97.0443769 259.132049,96.7860859 C258.845027,96.5981679 258.499059,96.5099645 258.097037,96.542426 C257.119555,96.6685918 256.222106,96.5252626 255.461024,96.2028127 C254.583422,95.8309965 253.883495,95.2191252 253.429346,94.4817858 C252.964327,93.7267966 252.752384,92.8391285 252.86605,91.9185554 C252.963782,91.1270369 253.303556,90.3004385 253.975775,89.5237495 C258.400552,84.4109213 262.126801,78.7709751 264.958686,72.6491669 L246.2262,65.7012273 C239.54708,63.2251452 232.866823,60.7522361 226.183389,58.2888512 L222.524384,56.9410027 C210.371583,52.4723657 198.148851,48.1052914 185.510526,45.2283172 C160.393907,39.5112102 134.202703,40.8548909 109.155548,46.2364197 L107.642477,46.5642073 C97.1319435,48.8617903 86.4800873,51.6416753 76.8327501,56.4737419 C72.0974859,58.8454007 67.5963407,61.729349 63.7308882,65.3730242 C62.0238421,66.9820784 60.4804363,68.743818 58.9365492,70.5031667 C56.7729117,72.9687569 54.6067022,75.4277146 52.0342485,77.504678 L49.6463196,79.4215634 C46.093941,82.2911233 42.8898391,85.0869558 40.8854078,89.5373093 C38.7895116,94.1898998 37.7891404,99.3299889 36.9728872,104.337852 C34.9144017,116.953402 34.1018833,129.770968 34.1793663,142.549524 C34.3104284,164.005669 37.5620422,185.024746 41.669896,205.969767 C44.9656836,201.241262 49.5953607,197.575537 55.5375394,196.793873 C59.4115392,196.284443 63.252288,197.00846 66.5827087,198.725719 C68.507607,199.718251 70.2619281,201.042495 71.7538051,202.651784 L71.7538051,202.651784 Z M65.5281126,228.129477 C61.1888998,226.444173 56.6329557,225.892299 52.0421579,226.698166 C51.561187,226.782146 51.102492,226.681772 50.7169489,226.457196 C50.3260976,226.229528 50.0180626,225.869413 49.8508185,225.471792 C49.6574957,225.01217 49.6476433,224.514689 49.8182578,224.072815 C49.966266,223.689489 50.2483406,223.317201 50.7670835,223.068548 C55.7381094,220.690455 61.2633281,219.640985 66.7473905,220.387695 L67.2893773,220.464841 C70.0930433,220.8817 74.0355571,221.75897 76.9921025,223.485811 C79.3149163,224.842507 81.0150748,226.712732 81.438007,229.155965 C81.6586038,230.429018 81.3433585,231.758164 80.6113271,232.72165 C79.9036213,233.65312 78.8217605,234.274075 77.4213312,234.234175 C74.9511395,234.163719 73.4885563,233.117189 71.7288537,231.761733 C71.5153701,231.597291 71.2964571,231.428627 71.068889,231.257881 C69.3685308,229.9825 67.5105087,228.899257 65.5281126,228.129477 Z" id="ðŸ–-Ink" fill="#000000"></path>
                    </g>
                    <g id="FACE" transform="translate(345.551643, 238.270059)" fill="#000000">
                        <path d="M111.306511,156.346088 C106.512634,157.735105 101.366975,157.8593 96.4804304,156.424804 C92.0482548,155.123563 87.4974033,152.260038 84.2354203,148.470902 C81.3376527,145.104841 79.4609308,141.014243 79.5346426,136.647825 C79.5430276,136.149144 79.7212686,135.732897 79.9954581,135.409807 C80.2906344,135.061988 80.7029077,134.82315 81.1445595,134.719484 C81.5987674,134.612872 82.0789358,134.650669 82.4878059,134.836465 C82.8579446,135.004662 83.1750637,135.290349 83.3733583,135.7079 C83.8746669,136.366698 84.3740284,137.01574 84.87535,137.64678 C88.9061116,142.625909 92.8095897,146.34692 98.8706685,147.681542 C102.159231,148.405814 105.443657,148.084646 108.457235,146.979616 C111.683126,145.796734 114.599231,143.716948 116.884367,141.055496 C117.917061,139.852711 119.136273,139.361777 120.328452,139.353525 C121.679452,139.344174 123.014796,139.972187 124.020788,140.975941 C125.009639,141.962592 125.671753,143.303356 125.731763,144.705895 C125.784432,145.936851 125.383025,147.222673 124.315134,148.369826 C120.797654,152.148613 116.238974,154.916915 111.306511,156.346088 Z M111.1585,93.9846185 C116.072608,96.9727892 123.560199,103.94062 118.27375,111.348659 C112.051094,117.880572 103.091874,110.391288 98.6769255,107.004176 C94.5831785,104.379146 89.9836244,111.130527 93.7818052,114.195693 C125.684314,137.824294 138.631028,94.7659835 113.643987,90.4712625 C110.892824,89.9980027 109.871035,93.0601953 111.1585,93.9846185 Z M65.189494,80.8361028 C63.6100672,79.8256292 61.7521522,79.4787832 59.6930429,80.4159467 C58.083931,81.1479697 55.2617304,83.5883202 53.297666,86.7963099 C51.9539829,88.9910042 51.0011586,91.5656679 51.1995237,94.2474921 C51.2455917,94.8703154 51.0155432,95.3295419 50.6526851,95.6690898 C50.366108,95.9372569 49.9521566,96.134335 49.4659453,96.195943 C49.0531541,96.2482479 48.5911116,96.2010623 48.215423,96.0837601 C47.5007645,95.8606206 47.1225332,95.3968628 46.9800229,95.0182473 C45.6048382,91.3647138 46.1972822,87.287595 47.7385174,83.6093177 C49.8185074,78.6452601 53.5958266,74.4872435 56.0706117,73.1466467 C60.305486,70.8517988 65.3014483,70.7461795 69.5423845,73.0840537 C73.1524805,75.0738519 75.409792,78.286306 77.6548486,81.5608827 C78.1320962,82.2569832 78.6057697,82.9479796 79.0953215,83.6268214 C80.076433,84.9870729 80.1740891,86.3361528 79.7941423,87.4929983 C79.3732301,88.7745736 78.2999918,89.8561383 76.9579295,90.4221574 C75.7175025,90.9453114 74.2778266,91.0189545 73.0038813,90.4814243 C71.9277012,90.0273394 70.9400604,89.1421545 70.3151286,87.6402205 C69.262619,85.1107804 67.5090374,82.3200825 65.189494,80.8361028 L65.189494,80.8361028 Z M145.405512,86.4636269 C144.323817,87.0274674 143.477562,87.1974684 142.277642,86.8378219 C141.614089,86.6384349 140.958274,86.2562993 140.444828,85.7426521 C139.935975,85.2335994 139.568837,84.6005523 139.426131,83.8982747 C139.075148,82.1650712 138.127217,80.5426804 136.776375,79.4850405 C135.621786,78.5810567 134.164434,78.1019238 132.547956,78.3722319 C130.803652,78.663529 129.141778,79.7826675 127.997189,81.1021065 C127.614634,81.5436149 127.314764,82.0450432 127.013293,82.5430868 C126.449342,83.4744839 125.901203,84.3402404 125.123432,85.0242459 C124.828605,85.2844894 124.384345,85.4647355 123.95406,85.4647355 C123.779181,85.4647355 123.601704,85.436268 123.432585,85.3835393 C121.696442,83.6403292 121.362567,82.3179257 121.418541,81.0062769 C121.477237,79.6308196 122.019302,78.2381825 122.895283,76.9388111 C124.950118,73.8908053 128.851562,71.3917246 131.484287,70.8256711 C135.089785,70.0505563 138.670476,70.9810301 141.541309,72.9955733 C144.495228,75.06842 146.684074,78.2867102 147.366492,81.9135643 C147.530659,82.7870614 147.460897,83.7299028 147.128366,84.547387 C146.803432,85.3461925 146.237182,86.0303542 145.405512,86.4636269 Z M73.1412814,48.3392977 C70.9775468,50.4482454 68.4165774,50.7749145 65.8257368,51.0654651 C64.3862013,51.2284221 63.2370215,51.3597883 62.1061786,51.6150517 C58.9979419,52.3169509 55.9255551,53.3740866 53.1225052,54.8965653 C50.1923678,56.4881376 46.9991839,58.40757 44.701927,60.8665105 C44.1556654,61.45165 43.640727,62.0656301 43.1250692,62.6809542 C42.6548611,63.2420531 42.2019043,63.7822259 41.7245322,64.3030617 C41.1763037,64.9013087 40.6557009,65.5283125 40.1378657,66.153678 C39.8176613,66.6813595 39.7544088,66.8111426 39.6899266,66.9462471 C39.5928924,67.1492606 39.4800206,67.3764568 39.3511052,67.6201927 C39.1745513,67.9539971 38.96775,68.319402 38.7511632,68.6506959 C38.3908121,69.256243 38.1974545,69.4230408 38.0303727,69.4976476 C37.7531271,69.6211712 37.4901988,69.6820209 37.2351157,69.6490693 C36.9959399,69.6181727 36.7706102,69.5032542 36.5480939,69.3151297 C35.4372166,68.3761873 35.1095912,66.8352644 35.1431709,65.1995708 C35.1941278,62.7174222 36.1092806,59.9692315 36.9529129,58.2798508 C38.9145257,54.3544502 41.6350178,50.2737433 44.9062481,47.3440245 C48.6390177,43.9998036 52.7227917,41.4680569 57.4134259,39.7235109 C60.3283803,38.6389917 63.7033855,37.6435095 66.8791167,37.7692529 C69.1650057,37.8597629 71.3472125,38.5395281 73.1493704,40.2370784 C74.2560008,41.2791564 74.7872131,42.7614055 74.7872131,44.2426048 C74.7872131,45.7533085 74.2354893,47.272933 73.1412814,48.3392977 Z M149.806062,67.6514977 C149.668461,67.8771091 149.478007,68.0325858 149.266088,68.1259637 C149.043933,68.223852 148.795923,68.2520466 148.557922,68.2119284 C148.320975,68.1719877 148.095742,68.0645362 147.917079,67.9003219 C147.745833,67.7429255 147.615433,67.534182 147.557127,67.2784536 C146.120576,60.9665594 143.331154,56.270416 137.377478,53.2420635 C134.448777,51.7523135 131.081047,50.8057833 127.892946,50.051122 C126.966501,49.8317987 125.987571,49.6896926 125.001729,49.5456925 C121.912029,49.0943858 118.800034,48.5775329 116.785812,46.0791036 C115.572143,44.5741398 115.062782,42.6494533 115.350773,40.889245 C115.621931,39.2319126 116.590015,37.7122562 118.349831,36.8015748 C122.731039,34.5354365 128.175545,36.7591113 132.599858,38.6533769 C132.928051,38.7938923 133.250218,38.9318307 133.565441,39.0649255 C137.892076,40.8919414 141.838195,43.3035613 145.081977,46.7524506 C147.655766,49.4885764 150.040416,53.5334392 151.000829,57.6944842 C151.799858,61.1563234 151.61198,64.6903855 149.806062,67.6514977 Z" id="ðŸ–-Ink"></path>
                    </g>
                    <g id="FACIAL-HAIR" transform="translate(322.124370, 337.223522)">
                        <path d="M-7.53016551,-10.5753826 C-2.93076874,-10.5753826 -1.04697471,0.136845246 -1.04697471,0.136845246 C10.6509198,20.3154679 21.9111203,40.4372489 42.0018903,54.3202051 C64.3043793,63.2608488 86.2410777,78.4879034 111.653145,80.1575014 C123.109334,78.9541333 126.469454,68.4642954 140.61789,72.1553377 C149.644543,74.3493607 159.780021,78.6765359 168.1252,72.426246 C175.179733,67.8134465 180.142603,60.8253495 186.227182,55.1757403 C186.537138,54.1563223 188.557934,64.913724 187.947328,68.5499158 L187.47568,70.6146033 C183.708247,87.2624606 179.898303,106.853035 163.039924,116.004359 C157.903823,118.711435 150.698249,121.323527 144.998788,119.797744 C114.883699,124.601852 82.2173812,121.086733 55.8332131,106.058344 C46.5445657,103.64425 39.6353468,96.234071 32.3209665,90.6366368 C14.4308713,74.9607439 -6.07115843,55.1030656 -7.98171637,31.2885515 C-9.89227431,7.4740374 -9.04144552,-10.5753826 -7.53016551,-10.5753826 Z M83.4623664,36.4474013 C93.7129339,19.9809472 114.077462,22.6551115 129.923929,30.157241 C138.677536,24.2115562 150.226948,25.3060454 159.724386,29.4948394 L159.722956,29.5001493 C168.471556,34.2882906 175.097377,42.1501613 181.188211,49.6695477 C182.670151,51.6673722 183.259495,54.3514925 181.175337,55.3364664 C171.357479,63.4313059 150.960008,58.6805988 141.703599,52.6619038 C135.024852,52.1236195 136.488956,42.6380021 128.780289,49.2766201 C123.636409,54.1138775 117.174375,57.113269 110.155182,58.8907355 C94.4610565,64.2808791 80.0114182,63.3855086 66.343518,54.9833625 C64.5855013,54.8127842 57.3832117,50.7374878 59.9422775,49.2872398 C62.7259231,50.0392448 78.1475486,41.1844355 83.4623664,36.4474013 Z" id="ðŸŽ¨-Background" fill="#E8E1E1"></path>
                        <path d="M-9.92674101,7.12754413 C-9.82208841,6.26143554 -8.47809089,6.21853232 -8.44798534,7.12754413 C-7.82508729,26.1799222 -1.62334514,47.0677532 8.86556991,63.3803589 C34.0725122,104.555376 85.5221709,125.181766 135.040774,118.094691 C171.229072,117.603986 175.094839,97.0906865 184.089945,68.4467591 C188.758455,64.6122845 191.052193,65.9860227 189.602114,70.4810288 C178.451754,105.045297 174.633808,124.869739 130.516341,124.493303 C59.6772778,134.608406 -17.1449037,76.6656067 -9.92674101,7.12754413 Z M90.15278,22.490882 C101.710421,17.3292982 115.462988,18.0576363 125.116494,25.1950812 L125.79719,25.3501978 C127.487759,25.7282608 129.109966,26.0159896 131.010554,25.8225415 C156.555548,12.36947 173.609477,35.8316428 186.70651,53.3985134 C187.694477,53.4321393 188.499355,54.2075538 188.232259,55.1161271 L188.651571,55.5646973 C187.001608,59.9912178 184.020473,64.264404 179.944388,66.9491001 C166.579542,84.7513524 156.599346,79.1862571 139.187135,71.8564718 C121.282376,69.1751382 120.557914,90.2888744 95.5794219,80.6167052 L94.6369809,80.3096135 C86.4200699,77.5944081 76.9867927,73.476346 71.0123436,67.525449 C70.8170477,67.3304184 71.0080356,66.9544803 71.3067235,67.0519955 C85.167708,71.2323741 102.989897,84.8818211 117.098591,75.6857953 C120.664896,73.2916275 123.868611,70.385 127.855663,68.5819764 C150.616972,60.9630079 158.616207,91.0521835 178.533519,59.8136728 C162.315341,62.640943 144.035069,59.8298132 131.912362,48.783015 C113.790049,70.6176916 78.5183127,67.1192474 56.0923095,53.5572279 C53.0250147,53.9990729 48.4865385,50.9639944 51.3111494,48.0748524 C54.4007022,45.6181403 59.2888443,46.5811876 63.0870628,45.2489273 C75.211206,40.934045 78.0738708,27.18103 90.15278,22.490882 Z M130.669653,31.6214172 C117.860241,22.506028 98.7028195,20.9711089 86.4438786,31.724283 C78.7882307,39.4163591 73.8217843,50.4545993 61.4803085,52.4890562 C82.6752644,64.6937811 113.129198,64.8988404 129.449573,45.4800629 C129.962006,43.8012661 132.618194,44.5253606 132.939004,45.984307 C144.624506,54.14096 159.571214,58.4754425 174.126777,55.9743917 C176.472921,55.5891491 178.789639,55.0412039 181.048941,54.3372791 L178.900691,51.3835424 C167.478357,35.7486452 152.783517,17.5421278 130.996922,30.4011464 C130.503866,30.6505792 130.296452,30.0125423 130.23473,29.6851198 L129.96703,29.8807665 C130.16009,30.2848341 131.765573,31.6153663 130.669653,31.6214172 Z M183.122386,58.7705376 C183.229155,58.866386 183.317179,58.97109 183.392162,59.0799613 C183.750776,58.8934736 184.122431,58.7038604 184.504682,58.5220609 L184.401173,58.4460073 C183.990396,58.5626923 183.562504,58.6705218 183.122386,58.7705376 Z M-8.27734165,-16.5147197 L-8.28221097,-17.1395921 C-8.28162944,-23.4280724 -6.59237812,-15.499833 -5.83382807,-13.9401218 C-2.57246499,-8.06644299 0.154177908,-2.25380861 3.60907243,3.47229029 C17.4623393,28.4052383 19.6076711,39.2121096 47.522072,53.4153303 C49.5957255,55.1916553 47.4174217,58.3800513 44.8413032,57.7246625 C40.9878773,56.744598 37.353787,54.2887348 33.9970918,52.3078105 C14.9887209,42.5004574 7.89830247,22.4939937 -0.629982798,5.08091086 C-3.13442293,-1.82381454 -8.91169469,-9.19006245 -8.27734165,-16.5147197 Z" id="ðŸ–-Ink" fill="#000000"></path>
                    </g>
                    <g id="ACCESORIES" transform="translate(272.666927, 274.075669)" fill="#000000">
                        <path d="M253.202869,41.1975442 C246.998558,83.1805983 203.688117,87.8236094 195.992922,46.1445774 C197.228058,45.6035872 198.116341,44.5385331 197.930875,42.4709219 C197.887274,33.3880151 200.7057,23.7882056 208.89612,18.7370106 C217.359858,13.5250158 227.265021,13.008113 237.059555,13.1396172 C255.75058,12.6943256 255.357523,28.3231489 253.202869,41.1975442 M189.212692,22.9386361 C183.346773,22.6912519 175.925548,22.8982735 170.67069,26.4736264 C169.226011,22.5818821 165.472448,18.4264783 161.679839,16.2045774 C175.776524,16.6173185 190.28709,15.2293628 204.489198,14.1519395 C201.089646,16.47019 197.92697,19.9530993 195.871231,23.9796029 C193.963864,22.9620725 191.231989,23.0571202 189.212692,22.9386361 M163.356839,45.648507 C147.091183,101.658897 106.489841,77.2459812 102.063396,70.0679329 C94.0792656,58.1895846 92.5773199,29.3146387 99.5319534,21.5942982 C109.487225,14.6128553 123.580656,16.4096459 135.341125,16.23843 C156.946888,16.530083 172.291724,22.9959251 163.356839,45.648507 M272.408642,19.8873472 C267.989356,19.3092493 263.266817,19.1927183 259.157941,21.1392415 C257.89287,15.7599369 253.921304,11.2627523 249.436942,9.28367854 C248.894211,8.60272094 248.975555,8.23685271 247.12155,8.33906145 C235.736567,4.91604514 222.99671,6.72715799 212.056193,10.2374098 C194.777309,11.6930706 176.649189,12.8408031 159.225186,14.8465683 C142.902915,7.51357939 93.6452111,6.43876008 90.5840531,24.512781 C86.7335275,23.9366361 80.1758554,20.9048775 76.9402946,25.0173145 C53.2065583,20.992113 28.6828037,26.5862513 4.84624791,29.0776707 C-1.153726,30.1830875 -4.2441681,42.0952885 2.56664828,41.9325357 C6.39569888,40.892871 2.44886137,34.5149153 7.60480425,34.0351202 C30.6031858,31.5222174 53.0985327,27.9572806 76.3324881,27.5399825 C75.5242487,31.5534659 91.6994495,31.8145213 91.9382771,29.4708814 C91.9727672,29.4884587 92.0092096,29.5001769 92.0443504,29.5158012 C88.0474047,44.417445 91.6551981,65.8630523 98.878594,75.1035037 C108.999157,87.2031958 134.407941,90.674387 145.674486,82.8895963 C160.207829,75.704387 175.326852,39.6370706 171.080016,27.6545605 C178.787574,25.2106648 186.407281,25.9443543 194.406378,27.1890875 C192.57515,32.3639747 189.413775,45.1029597 193.961912,46.2077255 C193.126991,71.4995063 216.135785,87.2806661 237.346539,76.9055024 C255.705027,68.2841626 262.12539,40.9950797 259.878979,24.4314046 C262.164435,28.8491658 281.35394,24.0394959 272.408642,19.8873472" id="ðŸ–-Ink"></path>
                    </g>
                </g>
            </g>
        </g>
    </g>
</svg>