<?xml version="1.0" encoding="UTF-8"?>
<svg width="1230px" height="1028px" viewBox="0 0 1230 1028" version="1.1" xmlns="http://www.w3.org/2000/svg" xmlns:xlink="http://www.w3.org/1999/xlink">
    <title>Artboard Copy</title>
    <g id="Artboard-Copy" stroke="none" stroke-width="1" fill="none" fill-rule="evenodd">
        <g id="Group-4" transform="translate(-0.259259, 22.000000)">
            <g id="Group-3-Copy-2" transform="translate(0.000000, 15.000000)">
                <g id="peep-46">
                    <g id="BODY" transform="translate(92.977308, 404.324853)">
                        <path d="M630.020506,132.54271 C620.988798,133.429821 611.95709,134.315665 602.925383,135.202776 C559.670056,138.508875 516.431824,145.413402 473.507629,149.557257 C472.438893,147.817205 470.347006,148.103839 469.076932,149.313017 C464.793756,148.937798 459.993307,145.662704 456.11344,149.06941 C455.987446,149.051693 455.861451,149.030812 455.734191,149.01879 C448.826026,135.75453 444.050903,121.606957 439.416336,107.440401 C436.458317,98.7306491 432.478414,90.2993053 425.123888,84.4514645 C412.572568,75.7353849 383.814193,58.0608839 369.076016,58.803728 C368.831625,56.1639107 367.601439,53.4431018 365.58173,51.6853327 C370.03332,44.0930105 352.233924,39.1392401 350.978412,40.0193901 C351.78313,14.6538585 339.856084,-7.37456942 313.556815,-12.4257827 C289.995866,-17.3371591 256.484527,-18.1622602 243.812911,6.46991852 C242.420009,6.31299745 228.181779,6.23883959 226.804071,6.39322967 C224.662167,3.67938101 201.139848,29.3955056 210.780634,38.3482323 C124.588449,76.4914417 75.5793913,71.9401729 51.7227672,179.171047 C48.4975643,189.244367 48.2626703,200.26744 44.8570232,210.116135 C32.7406693,238.419508 22.9131077,268.557844 20.4672973,299.35487 C14.5601236,300.869031 13.880767,311.288464 20.7230848,312.795665 C23.3366768,313.372097 25.5222677,314.159234 27.4280118,315.651882 C25.9382391,340.889599 32.039786,398.541641 35.8841974,398.363839 C43.7230738,423.321249 78.6886062,430.364864 103.443019,421.594368 C99.1756721,429.625816 103.443019,434.675613 103.443019,438.966841 C192.51598,442.338113 289.90786,440.39654 378.956128,445.020016 C390.346907,444.858033 402.327769,447.818653 413.562796,446.114667 C420.41461,444.471425 420.426007,433.693859 413.476056,432.361295 L443.844083,425.762936 C443.165359,425.506673 456.361955,416.725573 466.335772,400.316564 C475.619468,381.960596 469.301063,359.803214 473.507629,339.836274 C506.362404,337.148368 539.760412,335.999103 572.255565,330.432834 C576.686262,343.694563 595.865899,327.834146 601.962381,321.454165 C601.954783,321.444041 601.947185,321.43455 601.939588,321.424426 C604.890009,320.617042 607.256044,317.850675 607.335186,314.575581 C609.40428,311.618125 609.838612,307.449592 607.854359,304.591478 C616.948747,252.093787 630.813194,198.492586 635.824478,145.501354 C637.595997,145.109051 639.264314,144.332039 640.678744,143.134883 L640.564146,143.020356 C642.960572,140.347635 643.426561,135.734283 639.431463,133.463356 C636.208792,131.629658 633.517958,132.198496 630.020506,132.54271 Z" id="âœ‹-Skin" fill="#D08B5B"></path>
                        <path d="M286.521909,329.02805 L293.479395,333.457273 L350.404278,351.806915 L385.191706,356.236138 L413.654147,351.806915 L413.654147,400.528376 L419.346635,446.086106 C416.816641,450.726245 392.78169,450.726245 347.241784,446.086106 C318.211286,443.128138 212.112293,441.693084 187.955861,441.061612 L186.587115,441.024136 C158.200788,440.205035 130.160013,440.205035 102.464789,441.024136 L102.464789,423.939987 L181.527126,384.70972 L252.36698,344.846706 L286.521909,329.02805 Z M246.18686,2.48788073 L251.414945,6.39322967 L240.00031,25.1542257 L295.605099,70.1492351 L295.605099,106.088614 L313.209122,122.745406 L323.271451,106.088614 L337.450154,87.2256019 L347.526419,56.6487501 L344.09559,36.5042482 L350.995071,35.8539841 C351.028452,37.2307691 351.022807,38.6200012 350.978412,40.0193901 C352.233924,39.1392401 370.03332,44.0930105 365.58173,51.6853327 C367.601439,53.4431018 368.831625,56.1639107 369.076016,58.803728 C383.814193,58.0608839 412.572568,75.7353849 425.123888,84.4514645 C432.478414,90.2993053 436.458317,98.7306491 439.416336,107.440401 L440.112824,109.565134 L440.8319,111.746315 L441.556396,113.92581 C445.55899,125.907105 449.880922,137.780019 455.734191,149.01879 C455.861451,149.030812 455.987446,149.051693 456.11344,149.06941 C459.993307,145.662704 464.793756,148.937798 469.076932,149.313017 C470.317469,148.131959 472.34204,147.831036 473.431429,149.439132 L473.507629,149.557257 L420.142917,160.074058 L384.937644,283.613967 L354.278768,258.717862 L337.82236,261.166128 L294.364043,276.846392 L243.819268,289.980741 L128.432301,321.804748 L113.738161,321.804748 L28.2341058,301.148549 L20.5283942,298.60407 C23.0730107,268.068052 32.8391479,238.189465 44.8570232,210.116135 C48.2626703,200.26744 48.4975643,189.244367 51.7227672,179.171047 C75.5793913,71.9401729 124.588449,76.4914417 210.780634,38.3482323 C201.139848,29.3955056 224.662167,3.67938101 226.804071,6.39322967 L226.939088,6.38151315 L227.230996,6.36588154 L227.607097,6.35275134 C230.969604,6.25493671 242.562994,6.32910581 243.812911,6.46991852 C244.537928,5.06056871 245.331166,3.73455708 246.18686,2.48788073 Z" id="ðŸ‘•-Top" fill="#FFCF77"></path>
                        <path d="M638.550003,136.29382 L636.960462,145.155247 C636.582686,145.279009 636.198327,145.383812 635.808982,145.470033 C635.309412,150.752672 634.721861,156.041373 634.059824,161.334439 L624.204933,216.281804 C622.505159,226.002824 620.891546,235.74454 619.289733,245.489686 L617.167108,255.957269 L615.852569,262.463034 C613.014834,276.552048 610.258078,290.595146 607.838863,304.560157 C608.203991,305.086087 608.487224,305.656389 608.693446,306.255351 L608.507275,307.042489 L608.377833,307.567335 L608.245404,308.08578 C606.336658,315.426059 603.01539,322.544099 595.188423,324.70414 C589.284499,326.332625 582.806564,326.480216 576.710217,327.122972 L576.034465,327.196527 L469.357867,339.197825 C456.46805,340.647573 443.584304,342.141057 430.701773,343.650415 L419.533938,344.960755 C403.967993,346.763989 388.312528,348.183079 372.975818,351.44716 C372.412262,351.567382 371.945478,351.792639 371.564714,352.088765 C374.653205,340.393716 377.609504,328.713853 380.288768,316.90048 C383.304522,303.604583 386.166579,290.282744 389.392322,277.034935 C395.890614,250.345699 403.175101,223.831733 411.149645,197.545555 C412.823131,192.028535 414.53527,186.5225 416.284963,181.029282 L417.512689,177.189428 L418.457719,174.129546 C419.919915,169.464028 421.729348,164.668807 426.017159,162.095314 C431.035087,159.083255 437.877928,158.583924 443.569153,157.542265 L447.423073,156.818052 C453.189162,155.741856 458.962646,154.706525 464.743157,153.712059 C492.418769,148.95001 520.251242,145.130121 548.18618,142.260617 C577.254595,139.274259 606.424303,137.333809 635.62938,136.38536 L638.550003,136.29382 Z M373.775044,319.501105 L374.047271,319.523846 L370.062529,351.38958 C369.425603,350.943494 368.616637,350.670147 367.629307,350.672678 C354.558879,350.711177 342.029746,346.532168 329.911085,341.937905 L328.065642,341.234364 L322.920474,339.256018 C317.690448,337.251397 312.432411,335.290997 307.076412,333.665092 L304.911289,333.011444 L303.810736,332.686316 C299.755518,331.502044 295.489703,330.425522 291.271485,330.157599 L290.696593,330.126142 L291.924905,329.481374 C292.104535,329.387095 292.262027,329.281426 292.401809,329.167532 C294.723712,329.339639 297.050042,329.292815 299.499077,328.851159 C304.104933,328.021628 308.583656,326.418882 312.696163,324.187186 L314.532917,323.191282 L315.284811,322.792212 L315.781541,322.53459 L316.275516,322.284681 C319.807583,320.523298 323.184936,319.42044 327.644637,320.358438 C332.707279,321.424514 337.143806,324.153968 341.70746,326.460528 L342.517394,326.863972 L343.061934,327.127186 L343.61709,327.388408 L344.178888,327.645192 C350.350257,330.42326 360.171921,333.421504 362.538325,325.027473 C363.48897,321.654935 362.744519,318.496899 361.094963,315.728001 C364.168906,315.461835 369.660409,319.08744 373.775044,319.501105 Z M527.394807,214.510886 L527.469174,214.893211 C528.34183,219.59297 526.153406,224.088741 522.841767,227.366253 C520.125185,230.054159 515.317563,231.548073 513.955793,235.414785 C513.180349,237.614844 514.005128,239.701009 515.597759,241.155692 L515.230942,241.336927 L514.872333,241.520302 L514.522225,241.705493 L514.180858,241.892197 L513.848425,242.080129 C508.438024,245.189556 504.031911,250.246376 508.911616,256.354257 C514.447134,263.283248 526.013706,263.507758 534.163001,262.965616 L534.711991,262.927176 C542.613991,262.334421 551.974434,259.67913 556.259203,252.379978 C558.224377,249.031485 558.008062,244.981909 555.26871,242.116201 C553.615991,240.387538 550.667915,238.612052 547.964615,238.40198 C548.082892,236.878328 547.901365,235.40656 547.365639,234.164479 C546.206901,231.479737 543.12347,229.67198 540.149461,229.606808 C540.39028,223.905988 535.826004,218.278816 532.465273,213.721424 L532.122151,213.253827 L531.789094,212.794107 C530.24712,210.647832 526.947753,211.850254 527.394807,214.510886 Z M531.904208,220.578784 L534.966135,232.053005 L534.91355,232.14738 C533.835003,234.196295 536.662305,236.522126 538.3393,234.800546 L538.508137,234.618514 C540.498442,232.562133 543.553521,235.326335 543.591519,237.51487 C543.645914,240.595891 541.640989,242.978038 539.252222,244.551742 L539.084962,244.660223 L538.644548,244.933943 C536.684152,246.230034 538.168317,248.939842 540.323398,248.610076 C542.990013,248.201954 545.175296,246.086051 546.522518,243.444335 C547.962085,243.856886 549.600257,243.806899 551.116356,244.655412 C554.93673,246.792861 552.739537,250.532156 550.251751,252.792179 L550.15075,252.882983 L549.948131,253.059547 C545.383877,256.953253 539.169624,258.305817 533.31193,258.595707 L532.974396,258.611263 C527.057371,258.864361 519.348477,258.949149 514.277102,255.46778 C511.120934,253.301256 510.206973,250.228641 512.878015,247.318641 C514.388422,245.674133 515.913376,244.015072 517.483238,242.411693 C519.832971,243.533553 521.931601,243.078608 524.334464,242.01686 C524.642491,241.880187 524.471716,241.408791 524.170014,241.408791 C522.844297,241.407525 517.97975,238.94551 517.743195,237.372502 C517.52463,235.916553 520.21557,234.689104 521.524103,233.985679 L521.71393,233.881634 L521.878471,233.786097 C523.247199,232.956566 524.535599,231.990995 525.713311,230.906468 C528.70237,228.153911 530.87334,224.701563 531.821401,220.923163 L531.904208,220.578784 Z" id="ðŸ’»-Computer" fill="#FFFFFF"></path>
                        <path d="M245.45491,0.749133129 C248.138602,-5.99784013 257.210531,-3.37510692 256.199165,3.71291656 C255.593864,7.95864389 253.269431,12.4429166 251.181553,16.1640973 C249.481397,19.1930535 247.542156,22.149244 244.912859,24.4195376 C249.593349,28.7880177 254.451571,32.9970457 259.433131,36.993471 C264.868825,41.3537254 270.584716,45.3729296 276.492886,49.0669022 C281.673683,52.306563 287.088504,55.1767 291.972027,58.8732036 C296.512735,62.3096485 300.649276,66.442747 302.754232,71.8381742 C304.996578,77.5837288 304.022089,83.5173041 302.370873,89.2589807 L302.181188,89.9081416 C300.494314,95.5965304 297.574067,102.453601 301.623324,107.812962 C303.684637,110.541364 306.681416,112.473771 309.268968,114.654847 C311.568734,116.593582 313.727452,118.701892 315.707173,120.966491 C320.023976,125.903177 323.534976,131.458057 325.750619,137.647581 L325.948758,138.209892 C327.847837,143.689102 329.23575,150.401319 326.66964,155.780823 C325.933412,157.322825 323.559011,156.82169 323.146622,155.320183 C322.214319,151.91854 322.263022,148.356178 321.481253,144.906446 C320.66786,141.318774 319.314313,137.913334 317.546479,134.69139 C314.126026,128.458357 309.493685,123.134144 304.020797,118.632891 L302.38248,117.30007 C298.113,113.794893 294.190285,110.07636 293.323676,104.275278 C292.396433,98.06867 294.882153,92.156289 296.480477,86.2818729 C297.594307,82.1880046 297.957994,78.2637124 296.754349,74.5640451 C295.28379,76.9653171 293.277504,79.2444691 291.690565,81.2774828 C288.529969,85.3276915 285.339645,89.3532231 282.157544,93.3863477 C278.895116,97.5219772 275.713015,101.72278 272.682714,106.032414 C271.327269,107.960392 269.986372,109.899759 268.649902,111.841025 C267.644862,113.300138 266.243245,114.757985 265.147757,116.246204 C265.414039,117.042199 265.393799,117.959681 264.911202,118.61141 C259.101702,126.463791 250.836841,110.079459 248.681286,105.940033 C244.291745,97.509955 241.024889,88.5540646 236.620801,80.1258846 C232.057323,71.3889244 226.860713,62.8848148 221.068923,54.9084156 C217.565512,50.0837254 213.638961,45.5519968 210.43409,40.5741821 C202.883953,47.4230275 192.948663,52.0142342 183.822972,56.1777046 C173.796362,60.751556 163.379639,64.4880589 153.09951,68.4557967 L150.062827,69.6357029 C132.34986,76.5512409 114.204031,84.1487899 99.4811684,96.4323882 C82.1804316,110.867228 71.9453377,130.986028 64.3256259,151.819831 C55.554134,175.804078 48.2974764,200.435624 41.5329029,225.051351 C38.0712375,237.646165 34.7866718,250.297926 31.6988132,262.990183 C28.9778038,274.172075 26.7223134,285.46533 23.5724699,296.532062 C29.9607068,296.306172 37.2464592,298.780209 42.7004955,299.49458 C67.5570617,302.749427 92.0790362,307.937946 115.546635,316.921044 C118.445377,318.030881 119.28407,320.926961 118.652836,323.27445 C120.32453,322.802421 121.994959,322.324065 123.666654,321.854567 C121.835153,319.047187 122.709306,314.028025 122.853297,310.91636 L122.862115,310.702414 C123.01012,306.556028 123.459826,302.405213 123.751408,298.266419 C124.306645,290.376755 125.02949,282.544779 125.990585,274.70032 L126.235863,272.738905 C127.325026,264.204423 128.130197,255.619955 129.318662,247.100027 L129.459077,246.124965 C128.889195,243.945154 128.225704,241.791919 127.529323,239.648174 C125.673572,233.937639 123.054395,228.56246 120.759057,223.031625 C120.488348,222.380529 121.415591,222.006576 121.848852,222.39698 C125.736189,225.895434 128.824048,230.333517 131.304708,234.975343 C131.347718,234.756413 131.385668,234.53685 131.430575,234.31792 L131.713643,232.924108 C132.41168,229.524965 133.260739,225.948604 135.345109,223.19171 C135.567117,222.898748 136.006071,222.837372 136.21606,223.19171 C138.210961,226.568677 138.434233,230.845408 138.740995,234.688076 C139.088237,239.035043 139.131879,243.437059 139.070527,247.796048 C138.950985,256.31471 138.350743,264.857418 137.872574,273.36216 C137.403483,281.71977 136.48225,289.970886 135.295018,298.246335 L135.06934,299.798298 C134.48897,303.737196 134.013831,307.725009 133.248331,311.636969 L133.032062,312.701892 C132.622835,314.641892 132.371101,317.377254 131.556442,319.649446 C152.516184,313.800973 173.508183,308.086009 194.54003,302.471651 C209.740871,298.413217 224.957525,294.415526 240.167853,290.392525 C240.970494,288.945434 241.969842,287.593889 243.21713,286.385976 C247.326474,282.404737 252.772287,280.628618 257.76713,283.693008 C258.173194,283.942943 258.207349,284.579485 257.76713,284.820562 C256.810159,285.343843 255.851291,285.880412 254.9095,286.439759 L264.042782,283.965089 C270.86934,282.114306 277.777491,279.801618 284.764704,278.511449 C297.634155,272.158044 311.475756,267.559244 325.032733,263.014228 L326.630274,262.473648 C333.571779,260.106178 340.751726,257.455823 347.923494,256.143236 C353.173865,255.182727 359.336933,256.341919 361.448213,261.722793 C364.121153,263.484991 366.635968,265.555969 369.062865,267.59278 C370.817416,269.064547 372.49923,270.629329 374.209507,272.152982 L374.524804,272.429885 C375.922984,273.643478 377.030582,274.456265 377.373898,276.387952 C377.550998,277.385793 376.917234,278.734808 375.687024,278.602564 C371.923024,278.199505 368.862363,273.834821 366.309598,271.22854 C364.337467,269.213875 362.349524,267.130875 360.549433,264.916896 C359.500117,265.488266 358.061815,265.385761 357.393897,264.120268 C353.930334,257.559322 344.442221,262.105604 339.192482,263.661527 L331.672113,265.888308 C327.912171,267.003288 324.153687,268.12378 320.401578,269.263862 C310.089319,272.396589 299.82766,275.902636 289.421792,278.779733 C290.35283,279.803517 290.224433,281.62456 288.455966,282.317418 C280.310648,285.514684 271.374706,287.16805 262.912506,289.361782 C257.56979,290.748129 252.230236,292.142701 246.892579,293.5455 C245.977354,295.028657 245.318923,296.7067 245.041888,298.659988 C244.023281,305.841993 245.987813,314.128466 247.901449,321.07481 L248.189709,322.111212 C249.762783,327.695976 252.077116,334.542184 256.893649,338.06869 C258.069464,338.928592 259.566588,339.52717 261.07573,339.662577 C270.504388,334.807515 279.932414,329.953086 289.366132,325.107515 C291.113726,324.209648 292.728495,325.425154 293.120644,326.870346 C296.446955,326.324286 299.765675,325.463752 302.788387,324.437437 C307.867351,322.711938 311.833118,319.421025 316.594568,317.145037 C325.807595,312.742338 335.215897,318.150368 343.464695,322.261871 L345.365836,323.19663 C349.06491,324.992076 356.76058,328.441289 358.535557,323.530712 C360.252158,318.780053 354.824687,313.702897 351.319379,311.564847 C347.141093,309.015513 342.275913,307.651312 337.553678,306.5149 C334.857336,305.865702 332.128104,305.336093 329.382427,304.949485 C326.268003,304.510992 323.051115,304.576798 320.052439,303.566302 C318.562272,303.065167 318.333307,300.697431 320.052439,300.306393 C324.668469,299.255471 330.177879,300.401801 334.994882,301.573236 L337.512565,302.193875 C342.365728,303.385337 347.265695,304.880516 351.686228,307.257111 C354.900587,308.985774 358.29331,311.611671 360.509585,314.826022 C362.43423,313.037491 364.82965,313.097958 367.324904,313.761295 L368.679265,314.137933 C370.915699,314.757943 372.728466,315.184698 374.904623,314.755154 C375.195572,313.17139 375.490317,311.586994 375.805934,310.002597 C378.907075,294.428181 382.30802,278.913243 386.060635,263.481194 C392.533545,236.862989 400.023521,210.536926 408.467506,184.480641 L409.315082,181.875911 C411.262546,175.916074 412.829877,169.422832 415.969601,163.947678 C418.939182,158.770549 423.696837,155.788416 429.349478,154.209081 C435.76428,152.417144 442.504819,151.479414 449.04865,150.26897 C450.508457,149.99942 451.972059,149.743158 453.433131,149.478037 C452.198388,147.247818 451.276762,144.716212 450.446594,142.773394 L450.300998,142.436837 C448.517541,138.369101 446.915447,134.228074 445.368377,130.064958 L444.211108,126.935222 C441.417792,119.398711 438.534218,111.985969 434.606807,104.937131 C430.472796,97.5188135 424.9884,91.4539407 418.151721,86.4343647 C404.212715,76.1990614 387.411652,70.9782721 373.891993,60.0399877 C373.337924,59.5920033 374.04822,58.8257476 374.610511,59.1092179 C383.739365,63.6978937 393.594327,66.8179655 403.089397,70.5536993 L404.96245,71.2930211 C412.467276,74.2692452 420.088968,77.5092355 426.584826,82.3278415 C433.826937,87.7011227 439.53081,94.3740646 443.817886,102.309335 C448.042977,110.131344 450.745644,118.886654 453.726611,127.241436 L454.523891,129.467603 C455.726263,132.805785 456.968166,136.133994 458.391288,139.382571 C459.520931,141.961645 461.629049,144.905813 462.587285,147.851879 C465.208992,147.396935 467.830066,146.940725 470.454304,146.502232 C527.295064,137.008507 584.770853,131.430216 642.374407,129.798363 C644.627999,129.734456 645.793694,131.885793 645.461633,133.852369 C639.933594,166.553328 635.020977,199.366283 629.630823,232.091919 C627.277928,246.3749 624.878228,260.647124 622.422235,274.912388 C621.17811,282.139616 619.739808,289.339003 618.561463,296.576987 C617.610185,302.422297 616.919497,308.313164 615.286385,314.023067 C613.821518,319.142616 611.573618,324.079303 607.881723,327.985245 C603.902041,332.195539 598.347437,334.233615 592.756149,335.196654 C578.562246,337.64032 564.003391,338.638161 549.694373,340.266217 L473.511802,348.936739 C474.625087,359.059806 474.708288,369.025381 474.197488,379.266298 L473.906373,384.856834 C473.668385,389.353524 473.383879,393.856977 472.738256,398.307398 C471.928658,403.890118 469.375893,408.617365 465.615688,412.787163 C462.162878,416.616543 457.968147,419.884045 453.887898,423.014874 C449.652686,426.265924 445.276428,429.403712 440.296766,431.413947 L439.650431,431.670577 C435.281847,433.376876 427.086833,436.019116 421.11561,435.053504 C421.896114,438.965774 423.406521,443.172271 422.067521,447.043412 C421.446407,448.841044 419.096674,449.737646 417.657107,448.208298 C414.805171,445.176811 414.582531,441.172793 413.907023,437.218129 C413.204317,433.102747 412.598383,428.972812 412.060126,424.832753 C411.019034,416.827881 410.208803,408.749609 409.961496,400.677033 C409.707231,392.386791 409.805269,384.085161 410.251813,375.803778 C410.48141,371.55109 410.766034,367.300934 411.305555,363.075454 C411.535785,361.273393 411.771075,359.470066 412.039886,357.672434 C412.137924,357.016909 412.246714,356.364547 412.363726,355.713451 L405.525897,356.485209 C395.041153,357.656166 384.551425,358.713573 373.99256,358.877815 C372.74211,358.896798 371.780079,358.327326 371.151376,357.497796 C370.48156,358.589283 369.315232,359.370092 367.644803,359.363765 C352.899361,359.308716 339.167814,354.485291 325.756312,348.800699 C318.996166,345.934358 312.341015,342.831371 305.570748,339.989707 C299.251454,337.337235 292.495735,335.444691 286.328873,332.456863 L270.124257,340.959707 C270.005347,341.377952 269.852915,341.773419 269.690995,342.104345 C268.635987,344.258846 266.555699,345.427528 264.431136,346.307678 C262.39196,347.154293 260.280047,347.417515 258.222529,347.203647 C245.932921,353.646269 233.640467,360.082841 221.33983,366.504286 L209.036268,372.920353 C184.523148,385.68854 160.106801,398.666165 135.439352,411.13443 L133.623329,412.048967 C125.103097,416.322949 115.954091,420.655321 106.498741,423.888063 C106.330497,426.282375 106.436757,428.610881 106.637259,431.14503 L106.685525,431.697073 C106.967438,434.691757 107.571906,438.44413 105.170494,440.576113 C103.921309,441.684684 101.689854,441.689114 100.840408,440.017398 C99.2990088,436.985911 100.682916,432.206778 101.171205,428.913334 C101.34451,427.742121 101.555764,426.538005 101.868218,425.369955 C91.0284558,428.598226 79.8604264,430.163641 68.8296491,428.350823 C58.0898213,426.587359 49.7718309,419.818872 43.0660797,411.54002 C35.9890518,402.803693 30.9600547,392.622173 28.2618153,381.707933 C25.1910341,369.288389 24.990532,356.462623 25.0626369,343.74126 C25.1391692,330.194795 25.6401082,316.58126 27.2871348,303.125911 C25.482616,302.701338 23.4813901,302.334345 21.6578964,302.460894 C20.7546882,303.90672 19.0026669,304.515421 17.4195226,304.327496 C13.9768322,308.125872 22.7091092,312.00777 25.4996935,312.979668 C26.4686815,313.317555 26.3649517,314.891827 25.2473265,314.844371 L24.543341,314.810895 C20.2313687,314.581406 15.77652,313.844905 13.2412362,309.836185 C11.2096504,306.623099 11.8200117,302.816498 14.2418492,300.196296 C15.8414384,285.066067 19.6655255,270.332571 23.2245956,255.573132 C26.7172534,241.086406 30.6014279,226.692695 34.7183619,212.371749 L36.5640087,205.961974 C43.0460442,183.506715 49.8213858,160.870276 58.7627999,139.307274 C63.2276082,128.540464 68.3710876,117.971703 75.3431207,108.583647 C81.8420448,99.8321338 89.5148865,92.3435819 98.3344483,85.9477828 C114.776261,74.0232238 134.069027,66.8181235 153.024988,59.9535743 L153.873526,59.6464195 C163.696864,56.0916511 173.496166,52.4944886 183.207551,48.6429622 C191.796251,45.2368892 200.024426,40.918396 208.572646,37.4610705 C208.294979,36.9567717 208.0268,36.4467783 207.76874,35.9310901 L207.610709,36.0640605 C207.583699,36.0855505 207.55601,36.1063608 207.527126,36.1259759 C206.66756,36.7220229 205.40193,36.4290614 204.693531,35.7602486 C202.6933,33.8721209 203.370481,31.7761664 204.705624,29.8180266 L204.879486,29.5688265 C206.512598,27.2801834 207.969242,24.8605617 209.476487,22.4890288 L210.420335,21.0059583 C212.950302,17.0439426 215.608983,13.0554852 218.98231,9.78095309 C220.544581,8.26362758 222.254858,7.12848081 224.066967,6.28249908 C223.912004,5.95473652 225.270612,5.28465824 225.655803,5.62191199 C231.396994,3.51992895 238.002178,3.96032034 244.261385,4.53991591 M469.8256,349.355617 L461.843466,350.263608 C453.061854,351.263221 444.276827,352.229804 435.490707,353.187002 L416.406657,355.261671 C416.357955,356.349994 416.225763,357.414273 416.201728,358.236211 C416.077126,362.473712 415.984148,366.713112 415.896231,370.951879 C415.719764,379.448396 415.913308,387.953138 416.472437,396.433204 C417.01441,404.650205 417.728157,412.868318 418.837259,421.029672 L419.064417,422.661168 L419.195977,423.519172 C420.101082,423.606491 420.990376,424.036759 421.729766,424.920705 C423.343903,426.848683 429.188824,424.974489 431.471511,424.162042 C435.225391,422.825682 438.760426,420.568044 442.022222,418.304078 C445.207634,416.093486 448.075931,413.515769 450.832238,410.800402 L453.08744,408.569097 C455.330788,406.338967 457.576565,403.963168 458.95105,401.15792 C460.815023,397.353849 461.056005,392.684182 461.602484,388.54096 C462.275463,383.444821 463.076839,378.349316 463.923754,373.278487 M238.10654,295.861984 L237.278599,296.079648 C207.202654,304.074397 177.171616,312.305161 147.003325,319.946837 C132.073826,323.729394 117.073487,327.236707 102.125645,330.946498 L99.7055512,331.552006 C87.9133009,334.533561 75.9794874,338.121978 66.9492305,346.678468 C66.6159037,346.993575 66.1320422,346.509525 66.4457615,346.174802 C76.178019,335.810418 90.0196204,331.422956 103.309683,327.619518 C105.766308,326.916537 108.226095,326.230007 110.683353,325.530823 C92.6090701,319.085037 74.2495304,313.477007 55.4662167,309.477418 C50.6294991,308.447307 45.7364892,307.691175 40.9035667,306.657268 C37.5330444,305.935747 34.24142,304.892874 30.9065042,304.027744 L28.2833202,303.36762 L28.2484825,311.66142 C28.2048258,323.408395 28.2256725,335.145794 28.8247391,346.891071 L28.9381414,349.066809 C29.6370917,362.137647 30.7280941,375.479878 35.3647756,387.804443 C39.1325703,397.819551 45.1381455,407.25443 52.9918818,414.549361 C56.9658711,418.24017 61.2383998,421.113471 66.5197639,422.532088 C71.4235263,423.848833 76.5613132,424.003223 81.6023278,423.652049 C105.78212,421.964515 127.306051,408.824273 148.310068,397.944834 C182.665499,380.150112 217.024726,362.364247 251.414945,344.637861 C250.485172,344.001951 249.609794,343.269231 248.813478,342.446028 C244.20193,337.681449 241.76934,331.159101 240.171648,324.842395 C238.470859,318.118833 237.453801,310.912486 237.335524,303.97126 M281.864761,351.507018 C282.16836,351.343769 282.520029,351.548146 282.533944,351.891095 C282.640204,354.518693 281.188661,357.110311 280.104112,359.477435 L279.989402,359.730188 C278.671907,362.662334 277.229178,365.55525 275.737113,368.402608 C272.754882,374.09163 269.655638,379.719907 266.42104,385.268459 C259.916423,396.430736 252.688228,407.122882 244.144436,416.841864 C242.214682,419.037494 239.040804,416.222406 240.279236,413.858466 C246.250024,402.462706 253.210672,391.702856 260.375617,381.036652 C263.962518,375.696274 267.546888,370.350834 271.169208,365.0345 C272.680352,362.816197 274.210824,360.605803 275.782583,358.428951 L276.730769,357.12707 M638.565499,136.325141 C608.384559,137.236928 578.239039,139.206035 548.201676,142.291938 C520.266738,145.161442 492.434266,148.981331 464.758653,153.74338 C458.978142,154.737846 453.204659,155.773177 447.438569,156.849373 L443.979806,157.499994 C438.212683,158.59338 431.16728,159.044528 426.032655,162.126635 C420.619099,165.375787 419.156129,172.166419 417.354773,177.766224 C415.237167,184.351847 413.173324,190.956452 411.165141,197.576876 C403.190597,223.863054 395.90611,250.37702 389.407818,277.066256 C386.182075,290.314065 383.320018,303.635904 380.304264,316.931801 C377.625,328.745174 374.668701,340.425037 371.58021,352.120086 C371.960974,351.82396 372.427758,351.598703 372.991314,351.478481 C388.328024,348.2144 403.983489,346.79531 419.549434,344.992076 L421.055523,344.816296 C437.158307,342.921853 453.261091,341.041331 469.373363,339.229146 L576.049961,327.227848 C582.341425,326.520438 589.081331,326.42426 595.203919,324.735461 C605.613431,321.862704 608.053354,310.220341 609.799869,300.948551 L609.852589,300.668324 C615.11814,272.65475 619.309709,244.397568 624.220429,216.313125 M374.062767,319.555167 C369.921166,319.281821 364.252712,315.487241 361.110459,315.759322 C362.760016,318.52822 363.504467,321.686256 362.553821,325.058794 C359.908079,334.443686 347.943101,329.587992 342.179773,326.721018 C337.454375,324.369101 332.89153,321.491371 327.660133,320.389759 C321.73362,319.143249 317.718518,321.500862 312.711659,324.218507 C308.599152,326.450203 304.120429,328.052949 299.514573,328.88248 C297.065539,329.324136 294.739208,329.37096 292.417306,329.198853 C292.277523,329.312747 292.120031,329.418416 291.940402,329.512695 L290.712089,330.157463 C296.26606,330.411827 301.923129,332.12657 307.091908,333.696413 C312.447907,335.322318 317.705944,337.282717 322.93597,339.287339 L328.081138,341.265685 C340.772492,346.127601 353.909778,350.744456 367.644803,350.703999 C368.632133,350.701468 369.441099,350.974815 370.078025,351.420901 M350.890735,290.148918 C354.982369,289.648416 358.759019,290.184984 362.028404,292.849479 C365.971401,296.062564 368.620306,301.391553 374.288759,301.741462 C375.941478,301.843334 376.325405,304.168044 374.682806,304.653993 C370.463407,305.903667 367.047281,303.620086 364.172575,300.655037 L362.239777,298.634859 C359.39893,295.692122 356.778862,293.417135 351.958393,293.592956 C346.795938,293.781514 341.624629,294.974874 336.495697,295.581677 C330.685564,296.26884 324.876696,296.854763 319.04822,297.360327 C318.777511,297.383738 318.731339,296.957268 318.984971,296.894626 L325.513119,295.269317 M346.94116,273.415184 L347.615976,273.347619 C353.557513,272.770468 358.991261,272.748074 364.297557,275.945536 L365.315297,276.561232 C370.099464,279.470192 375.306745,282.897308 378.298548,287.60705 C378.788102,288.378367 377.979136,289.285093 377.16005,289.088941 C371.410004,287.708289 367.206418,283.487872 362.370966,280.329202 C356.944127,276.784558 351.338291,277.369215 345.150556,277.919705 C339.159528,278.45311 333.171663,279.18583 327.239458,280.184936 C321.665247,281.122666 316.073326,282.603292 310.442823,283.075321 L310.444088,283.063932 C309.800837,283.062666 309.433987,282.096463 310.089888,281.7687 C315.803882,278.914382 322.421715,277.563468 328.63728,276.259378 M527.434024,214.667985 C526.859715,211.919968 530.238523,210.645617 531.80459,212.825428 L532.137647,213.285148 C535.521009,217.922144 540.41408,223.740729 540.164958,229.638129 C543.138966,229.703301 546.222398,231.511057 547.381135,234.1958 C547.916862,235.437881 548.098389,236.909648 547.980111,238.433301 C550.683411,238.643373 553.631487,240.418859 555.284206,242.147522 C558.023558,245.01323 558.239873,249.062806 556.274699,252.411299 C551.98993,259.710451 542.629487,262.365742 534.727488,262.958497 L534.445904,262.978794 C526.284141,263.543204 514.52346,263.390712 508.927112,256.385578 C503.528736,249.628481 509.495096,244.157757 515.613256,241.187013 C514.020624,239.732329 513.195846,237.646165 513.971289,235.446106 C515.333059,231.579394 520.140681,230.08548 522.857263,227.397574 C526.168902,224.120062 528.357326,219.62429 527.484671,214.924532 M531.919705,220.610105 C531.019659,224.523008 528.808443,228.101821 525.728807,230.937789 C524.551095,232.022316 523.262695,232.987887 521.893968,233.817418 L521.729426,233.912955 C520.514711,234.595134 517.528918,235.87321 517.758691,237.403823 C517.995246,238.97683 522.859793,241.438846 524.18551,241.440112 C524.487212,241.440112 524.657987,241.911508 524.34996,242.048181 C521.947098,243.109929 519.848467,243.564874 517.498734,242.443014 C515.928873,244.046393 514.403918,245.705454 512.893511,247.349962 C510.222469,250.259962 511.13643,253.332577 514.292598,255.499101 C519.363973,258.98047 527.072867,258.895682 532.989892,258.642584 C538.9455,258.38822 545.311599,257.059453 549.963627,253.090868 L550.166246,252.914304 C552.69455,250.664832 555.003853,246.853067 551.131852,244.686733 C549.615753,243.83822 547.977581,243.888207 546.538014,243.475656 C545.190792,246.117372 543.005509,248.233275 540.338895,248.641397 C538.183813,248.971163 536.699648,246.261355 538.660045,244.965264 L539.100459,244.691544 C541.56212,243.119779 543.662675,240.698863 543.607015,237.546191 C543.569018,235.357656 540.513939,232.593454 538.523633,234.649835 L538.432544,234.748187 C536.767108,236.626197 533.833647,234.25963 534.929047,232.178701 L534.981631,232.084326 M143.490047,111.790785 C143.482648,111.320654 144.143609,111.144751 144.374471,111.551607 C148.240303,118.355527 150.261136,126.695755 152.320552,134.1919 C154.477373,142.044281 156.218642,149.976388 157.782811,157.966708 C160.950997,174.146662 162.639136,190.233603 162.753764,206.724236 C162.769431,209.078684 158.935224,209.705103 158.560152,207.292442 C156.070004,191.251692 153.684219,175.19449 151.175097,159.158169 C149.91263,151.092553 148.443335,143.057941 147.037291,135.016369 M181.761469,123.641806 C181.476845,122.703443 182.841777,122.389601 183.190916,123.247605 C190.949145,142.298962 193.576545,163.889529 188.595617,183.988714 C187.833456,187.063228 183.331963,185.731297 183.906905,182.69538 M281.833768,106.713439 C281.794553,106.011091 282.705984,105.90036 283.049431,106.383778 C286.725513,111.565337 288.250467,118.504665 294.700057,121.182448 C297.920108,122.51944 301.543693,122.28659 304.388672,124.544861 C306.290595,126.055226 307.749137,128.439414 306.321588,130.726792 C305.861129,131.46584 304.572096,131.835996 303.947188,131.033041 C303.035124,129.863093 302.552528,128.462193 301.313463,127.585207 C299.565869,126.348188 297.209179,126.271626 295.205423,125.690132 C292.613443,124.938429 290.328858,123.62295 288.457927,121.668397 M343.248253,20.2904886 C343.62712,20.097501 343.990807,20.2208866 344.233054,20.5486491 C344.57903,21.0156158 344.536653,21.4699276 344.112879,21.7900973 C344.678965,22.9473901 345.347516,25.8466335 345.443024,26.2686752 C345.830113,27.9796211 346.241869,29.680443 346.672601,31.3799994 C347.541654,34.8075858 348.303183,38.2617476 349.172868,41.6905995 C350.095051,45.325094 351.193702,48.9209909 352.416322,52.4650027 C352.495173,52.6944786 352.581896,52.9287354 352.672929,53.1664605 L352.812266,53.5254854 L352.846421,53.4710692 C353.094993,53.0781338 353.612377,53.3527457 353.551024,53.7678272 C353.494099,54.1462094 353.417567,54.5226935 353.353052,54.9010757 L353.481166,55.2400546 C354.280912,57.3933936 354.828608,59.6612574 353.361275,61.5613627 C352.812266,62.2719368 352.20823,62.692713 351.455556,62.8179968 C350.248749,66.7979707 348.734547,70.7039133 347.113453,74.4548331 L346.638324,75.5502668 C344.253731,81.0236339 341.71053,86.4250871 337.913759,91.08467 C333.768363,96.1719498 328.066387,99.6457267 324.455452,105.220221 C322.775535,107.813215 321.606678,110.539719 320.65793,113.468069 L320.30103,114.579599 C319.627615,116.650836 318.85067,118.658409 316.908477,119.873359 C316.288629,120.2606 315.360121,120.137214 314.860447,119.608871 C310.877602,115.394148 315.047034,107.52405 317.448631,103.44347 C320.786959,97.7690014 325.618617,94.1389361 330.456599,89.857775 C335.671551,85.2431566 338.997862,79.0700842 342.215383,72.98876 C344.186249,69.2631501 346.088805,65.4571814 348.091928,61.7151201 C345.999157,59.8647281 345.329253,56.1891599 344.620233,53.6343496 L344.555628,53.4052636 C343.383608,49.3139263 342.45257,45.1162877 341.864346,40.9002995 C341.298222,36.8465548 341.062101,32.8511016 341.211878,28.7746734 L341.2551,27.7362597 M351.029442,39.5840607 C350.567085,38.950049 351.332409,38.231882 351.966805,38.364126 C355.823913,39.1619972 359.594935,41.4976359 363.056706,43.3862617 L363.426416,43.5868135 C366.189803,45.0775637 368.970267,46.9036693 370.421219,49.7997489 C371.999323,52.9473739 371.869315,56.572767 371.654096,59.9933972 L371.633719,60.3134606 C371.369967,64.4155545 371.32759,68.6777333 370.459802,72.7057959 C370.015788,74.7672832 368.149284,75.3481442 366.55349,74.8609296 C364.654729,80.8587313 359.320867,85.2778311 355.424675,90.0107731 C350.45703,96.0446413 351.391864,104.191249 351.911145,111.45834 C352.121135,114.40061 348.462762,115.237101 346.578548,113.667257 L342.236281,110.059197 C341.513147,109.456964 340.790975,108.853535 340.070769,108.247785 C339.453872,107.728512 338.842597,107.205301 338.236383,106.675528 L337.330785,105.87562 C336.929148,105.51622 335.157519,103.536357 334.639503,103.4541 C333.384794,103.254574 330.40386,106.56258 329.383666,107.600111 L329.254409,107.729566 C327.334143,109.613252 325.599199,111.639938 323.983165,113.789377 C323.685891,114.184211 323.104624,113.856448 323.317144,113.400238 C324.765171,110.297211 326.448902,107.330434 328.448076,104.553609 L328.85214,104.000793 C330.182285,102.20759 331.967829,99.0413275 334.315664,98.5117189 C337.182504,97.8655136 340.045099,100.741556 342.130934,102.337805 L342.26301,102.437909 C343.2554,103.182652 344.236406,103.940682 345.215514,104.703774 C345.113049,99.2931605 345.796148,93.8262329 348.588629,89.1635258 C350.557598,85.8751436 353.507572,83.4397033 356.031874,80.6138585 C358.842066,77.4672114 360.309463,73.5998663 362.853372,70.3228735 C363.181007,69.9014645 363.632611,69.6743086 364.121532,69.6021755 C364.219282,66.9676502 364.607145,64.3069784 364.906857,61.7009766 L364.993748,60.920897 C365.296715,58.0893575 366.012703,54.6307665 364.626899,51.978927 C363.317858,49.474201 360.314321,47.7061926 358.090162,46.0067515 L356.274097,44.5975051 M225.848715,9.64364715 C224.687448,10.3156237 223.60208,11.1514815 222.61728,12.1961455 C219.517403,15.4857933 217.301128,19.5796615 215.144307,23.5178742 C213.98304,25.6388396 212.863517,27.7832166 211.692762,29.8991201 C211.183601,30.8197659 210.659892,31.7302877 210.13049,32.6395441 C209.885713,33.0584221 209.15834,33.8911162 208.797816,34.4042734 C209.19841,34.9657832 209.612591,35.5186736 210.035082,36.0655841 C210.196279,36.2742511 221.316078,48.392199 225.192182,53.1348278 C231.127549,60.3993875 236.432949,68.0727013 240.968597,76.2857476 C245.410003,84.3285852 248.791341,92.8440842 252.905745,101.042577 C254.96516,105.147202 257.264926,109.222721 260.196557,112.774958 C260.309774,112.91353 260.429317,113.044508 260.545064,113.181181 C261.663914,110.157386 264.530874,106.919816 265.938967,105.060794 L266.070572,104.885245 C269.264058,100.578774 272.636541,96.4020164 276.082394,92.296126 C279.229708,88.5468935 282.456982,84.8786526 285.762439,81.2709609 L287.005647,79.9208748 C289.308575,77.4322838 292.233881,73.7085721 295.605099,71.9305552 C295.243942,71.2864195 294.825861,70.649244 294.345162,70.0202943 C291.186463,65.8911504 286.7214,62.8944905 282.315552,60.1905663 L279.458331,58.4518431 C268.688199,51.8859716 258.085847,45.0157984 248.735681,36.484743 C243.788908,31.9707313 238.910446,27.2422186 234.7524,21.977137 L233.281878,20.1155236 M243.819268,6.39322967 C238.775724,6.81653691 233.329277,6.71593026 228.668395,8.35980501 C232.811894,12.2784025 236.750463,16.5095767 240.796557,20.4939798 C241.156449,17.7991136 241.892677,15.1371501 242.516321,12.5093549" id="ðŸ–-Ink" fill="#000000"></path>
                    </g>
                    <g id="HEAD" transform="translate(235.289515, 113.894325)">
                        <path d="M272.600244,170.875023 C270.208132,131.516941 257.468711,86.8950424 219.975027,67.570972 C137.31838,34.3150946 28.6419839,118.062857 22.8882901,203.617743 C20.8824499,232.90377 37.1021104,264.904912 66.7422175,273.047091 C73.3322041,281.79987 83.2982886,287.14531 93.1349843,291.784605 C210.296122,352.722498 285.977141,303.186693 272.600244,170.875023 L272.600244,170.875023 Z" id="âœ‹-Skin" fill="#D08B5B"></path>
                        <path d="M299.291236,146.392235 C295.150798,134.863599 290.77683,123.423547 286.175642,112.072079 C281.694375,101.024329 277.646672,89.7377896 272.081743,79.2135662 C238.84463,16.3565538 178.404336,16.3565538 147.161703,24.5696001 C130.959715,17.5714266 100.612906,19.545433 83.7423127,25.8604025 C56.4305706,36.0836836 23.1372844,76.2997697 11.7542361,94.3684716 C-13.3780956,134.26249 -29.0625287,187.360657 -12.3682327,233.460018 C-10.1862977,239.485027 -7.40349425,245.065217 -4.27039461,250.442927 C-6.24404541,253.124506 -8.51560576,255.664349 -11.0320579,258.1599 C-18.5100926,265.576952 -25.9881274,272.749763 -32.4480941,281.115301 C-38.8676663,289.428954 -44.1896438,298.269685 -48.1514621,308.017141 C-55.6219229,326.399685 -55.9816866,347.214506 -46.1052274,364.754864 C-37.5125565,380.016704 -22.2907668,391.381459 -5.14140136,392.465354 C-4.26092714,392.588106 -3.3791906,392.700735 -2.49366707,392.789952 C-0.221475557,396.542138 2.54933577,399.996932 5.71146896,403.008804 C15.3998411,412.2469 38.4941432,416.986169 51.6665424,417.289887 C52.3418882,417.834049 53.0235457,418.378211 53.7052031,418.916045 C61.7651714,425.275145 70.2227731,431.691192 79.4756419,436.215327 C85.7431035,439.284147 93.9608628,441.846769 100.499725,439.632157 C103.466197,441.61898 108.332474,441.201368 111.2737,439.57521 C116.108419,436.905021 120.040572,432.096149 122.432685,427.173384 C128.233085,415.220807 126.838212,402.141942 125.348664,389.373123 C123.707637,375.269209 122.129726,361.158967 120.526569,347.055053 C119.270552,336.026286 117.95773,324.814023 114.612559,314.190213 C112.883169,308.685321 110.617289,303.395562 107.688687,298.422177 C107.764426,298.004564 107.751803,297.586952 107.631882,297.194649 C106.672512,294.068883 104.690656,292.43007 102.342725,290.304042 C102.039766,290.031962 101.736807,289.753553 101.44016,289.468817 C100.266194,288.127395 99.0101773,286.880885 97.6657974,285.824199 C97.1482426,285.29902 96.6369995,284.767513 96.1257564,284.236006 C91.8780206,279.775145 87.8638156,275.086495 84.2977373,270.06249 C80.8389568,265.190344 77.7146935,260.103064 74.7419096,254.920872 C71.7186325,249.650096 69.7178417,243.835158 66.7008763,238.602346 C66.4420989,238.153097 65.785688,238.064512 65.4196127,238.437832 C64.4854896,239.405934 63.8858835,240.481603 63.999493,241.614219 L63.5324314,241.683821 C63.3557054,239.975406 61.7841063,238.583364 59.6507709,238.956684 C56.4570795,239.513501 53.831436,239.722307 51.0669363,238.659294 C51.5529328,235.42596 52.0010595,232.186299 52.4428745,228.940311 C53.2507648,222.967187 54.0018504,216.97508 54.645638,210.982973 C56.2046138,211.356293 57.7509664,211.894127 59.2657607,212.577493 C61.4243426,213.545595 63.4630034,214.849052 65.2050169,216.4499 C66.9217838,218.031766 68.1083727,220.164121 70.2038382,221.265099 C72.6148859,222.524264 75.5245533,220.442529 74.8176493,217.709065 C73.3849063,212.18519 65.2744449,209.021459 60.2566887,207.977428 C58.5336101,207.616763 56.7726617,207.464903 55.0117133,207.502868 C55.4093468,203.655771 55.7627988,199.808674 56.0531344,195.955249 C56.1919905,194.13294 56.3182234,192.310631 56.4381446,190.481994 C60.33874,189.298759 64.5170478,188.944421 68.5754343,189.501237 C69.9135026,190.570579 71.251571,191.627265 72.5454578,192.696606 C76.6543375,196.100781 80.7442822,199.523938 84.7837338,203.01037 C85.1498091,203.320416 85.5095727,203.630461 85.875648,203.946834 C88.2740724,206.015915 91.2657912,203.965817 90.8618461,201.036202 C87.5671684,177.029809 102.235427,157.933527 119.409408,143.13992 C138.420077,126.758119 172.982635,124.850576 195.59094,96.4748839 C206.003321,98.599387 229.250933,104.909391 238.84463,120.234506 C252.275807,141.709913 250.52117,160.951727 251.543656,185.312457 C252.566142,209.69217 255.166539,235.122242 249.643852,259.160272 C244.550356,281.325373 230.759415,300.263468 209.362945,308.970057 C208.832767,309.18519 208.296278,309.393997 207.759788,309.596476 C196.695478,313.778928 184.621304,314.962164 172.982635,312.760207 C160.100571,310.317806 149.345531,304.407956 138.628361,297.137702 C138.00982,296.726417 137.107255,297.574297 137.574317,298.194388 C151.699774,316.961642 179.445757,323.232157 201.454457,318.277754 C202.483254,318.043638 203.505741,317.790539 204.521915,317.512131 C199.598833,331.704629 200.589761,347.282842 207.002391,361.10202 C210.858805,369.416306 216.741256,376.610631 223.904971,382.286365 C231.800837,388.537898 241.596507,393.587213 247.075013,402.363403 C252.092769,410.405608 250.603221,419.441224 242.013075,424.085582 C239.848182,425.26249 239.015045,429.065295 241.161003,430.735745 C241.981517,431.368491 242.802031,432.013892 243.641479,432.646639 C248.450951,436.28493 261.66122,443.118589 263.800867,443.371688 C282.798913,445.630592 295.573679,431.6469 303.75988,415.151205 C313.372512,395.78917 310.873101,372.194062 300.282164,353.755836 C291.786693,338.962229 275.054527,324.383755 281.706999,305.660794 C284.080176,298.972666 288.93383,293.271622 293.648627,288.121068 C299.026147,282.25551 304.807612,276.763273 309.964225,270.688909 C315.089279,264.658837 319.633662,258.097258 322.170943,250.529613 C325.875877,239.469209 324.032877,227.510305 321.249443,216.468883 C315.28494,192.766208 307.540554,169.379907 299.291236,146.392235 Z" id="ðŸ–-Ink" fill="#000000"></path>
                    </g>
                    <g id="FACE" transform="translate(335.856808, 231.585127)" fill="#000000">
                        <path d="M112.289707,129.92628 C114.45981,126.095634 120.935332,126.718256 121.925192,131.186078 C123.933376,140.243207 113.137255,148.606847 104.937542,148.815654 C96.7890617,149.022562 87.646293,142.084499 88.8259031,133.320963 C89.117485,131.153175 92.011799,131.416397 92.998497,132.775536 L93.3815723,133.296941 C96.0615118,136.898639 99.5976673,140.626554 104.571326,139.7484 C106.632639,139.385204 108.504835,138.096932 109.750857,136.438504 C111.253674,134.437128 111.088592,132.047245 112.289707,129.92628 Z M60.4762363,63.664713 C61.580579,63.360362 62.6950417,63.4780528 63.6735172,63.8943999 C65.8581677,64.2949282 67.6829264,66.1172374 68.3242801,68.1977071 C68.37488,68.3778289 68.4313832,68.5557009 68.4936024,68.7316981 L68.5911946,68.9943346 L68.3293401,68.3274201 C68.4501474,68.9842107 68.9846088,69.6745369 69.1768884,70.3338584 C69.4134429,71.1444064 69.4710003,72.0650522 69.3913054,72.9572244 C70.085789,72.9641846 70.7802726,72.9875962 71.4734911,73.0477071 L72.1433733,73.1077621 C75.8896479,73.4560654 80.0025332,74.0949499 82.223439,77.3332975 C83.4707264,79.1530757 82.2999713,82.4294357 80.0084285,82.7799772 C76.4809833,83.3197097 73.4424596,81.3670548 69.9270318,80.9760176 C66.6038837,80.6058611 63.1264058,80.8178311 59.8462676,81.4183072 C53.07418,82.6568701 46.8511943,85.402847 40.2517415,87.1258817 L39.3533099,87.3540998 L39.3533099,87.3540998 L39.3545749,87.3496706 C38.2236672,87.623017 36.9396948,86.0500098 38.058585,85.1299967 C43.3456416,80.7849282 50.1146427,77.2636954 56.7830764,75.1193183 C55.8115584,73.5735192 55.5111215,71.5373418 56.1752452,69.8776484 C56.2780895,69.5336875 56.405753,69.1992938 56.5403386,68.8658568 L56.8210263,68.1799902 L56.8210263,68.1799902 C56.8482238,67.8566569 56.9102087,67.53712 57.0000235,67.2239106 L57.0145709,67.1283659 L57.0145709,67.1283659 L57.0227934,67.1340607 L57.0227934,67.1340607 C57.5193049,65.519925 58.8159272,64.1228213 60.4762363,63.664713 Z M127.92906,63.9145212 C129.375085,62.467314 131.406966,62.68118 132.915938,63.8201588 L133.116182,63.9771631 L133.116182,63.9771631 C134.538671,64.6092766 135.715751,65.9905616 136.488665,67.2706073 C137.291305,68.6000072 137.824502,69.9540841 137.845374,71.4176262 C141.345622,71.4290157 144.698498,72.4793744 147.26834,75.3064847 C148.098178,76.2189048 148.664897,77.6261324 148.208233,78.8631513 L147.936258,79.5990352 L147.936258,79.5990352 C147.073313,81.9353815 143.193735,83.2803008 141.875136,80.5327671 L141.814304,80.3988265 C140.413319,77.1363868 135.035183,77.4787025 132.176921,77.8121598 C130.18455,78.0456432 128.216847,78.5410835 126.292786,79.096002 C125.614905,79.2915205 124.943073,79.5037674 124.271952,79.7204632 L123.600871,79.9381872 C123.242877,80.0539798 121.378271,81.0670065 122.538273,80.8271957 C122.850095,80.7626556 123.084752,81.2169674 122.766605,81.3694592 C121.383963,82.0306791 119.908976,80.7139341 120.001321,79.2282459 C120.161242,76.6492861 124.255021,75.2352671 126.224856,74.3459879 L126.342753,74.2921924 C127.097956,73.9429165 127.889212,73.6081937 128.705768,73.2975153 C128.246574,72.6141494 127.867075,71.8548539 127.551458,71.0398767 C127.252919,70.2704573 127.053682,69.5225512 126.944259,68.7044103 C126.836734,68.3045147 126.836734,67.904619 126.944259,67.5040907 L126.960704,67.3895636 L126.960704,67.3895636 C126.905044,67.1250757 126.878479,66.8517293 126.882274,66.5764847 L126.870889,66.4695506 L126.882274,66.4695506 C126.920857,65.505878 127.303519,64.5403072 127.92906,63.9145212 Z M104.825021,91.3787456 C110.380257,93.0960189 119.545163,97.7739119 116.650216,104.994179 C112.607917,111.62536 101.887697,106.751948 96.6929851,104.60947 C92.0257773,103.063038 89.5957173,109.606267 94.1085955,111.578537 C131.400086,126.337343 131.262834,87.3861168 106.177303,87.9581194 C103.415181,88.0207613 103.328529,90.8080085 104.825021,91.3787456 Z M55.4870237,40.58997 L56.4346329,40.3133392 C61.3586352,38.8864964 66.3851024,36.4225825 70.7569334,40.2671487 C72.4735348,41.7768813 72.8271016,44.9140372 71.5987891,46.79709 C68.8006149,51.0877423 64.6507909,50.4322172 60.1315878,50.7979446 C56.6907949,51.0763529 53.3012344,52.0874814 50.089406,53.3510757 C47.4645364,54.3843503 45.0300489,55.8390339 42.7315486,57.4613953 C40.4735283,59.0565486 38.930864,61.5502016 36.6146538,62.9859028 C35.7658405,63.5123477 34.7854675,62.9707169 34.4806032,62.1171422 C33.4002954,59.0894514 35.2256866,55.317651 36.7702484,52.7379446 C38.655727,49.5906647 41.5196811,47.016653 44.5993173,45.06906 C47.9716057,42.9360237 51.7006683,41.7044374 55.4870237,40.58997 L55.4870237,40.58997 Z M127.236221,37.3321532 C135.559271,37.3296243 143.567969,41.9606941 148.22316,48.7494286 C149.805039,51.0557886 148.645669,54.4726184 146.374999,55.8007528 C143.827641,57.2914285 141.103982,56.2180344 139.42526,54.0819305 L139.325801,53.952501 C136.656024,50.3958343 133.214598,47.5946667 129.134982,45.771092 C127.144508,44.880818 124.943413,44.1588545 122.790387,43.7924945 L122.094573,43.6732142 C121.119351,43.5097328 119.988039,43.3536217 119.106082,43.5064932 C118.633606,43.5685023 118.199712,43.7247906 117.799973,43.9627032 C117.992252,44.3828467 117.495741,44.8890437 117.037179,44.6372107 C114.968908,43.5007984 115.22254,41.4734795 116.930919,39.8979413 C119.347697,37.6687763 124.11484,37.332788 127.236221,37.3321532 Z" id="ðŸ–-Ink"></path>
                    </g>
                </g>
                <rect id="Rectangle" fill="#FFFFFF" x="582.259259" y="589" width="92" height="112"></rect>
            </g>
            <g id="Group" transform="translate(515.259259, 0.000000)">
                <g id="peep-101-copy" transform="translate(364.814815, 492.500000) scale(-1, 1) translate(-364.814815, -492.500000) ">
                    <g id="BODY" transform="translate(94.415102, 410.577299)">
                        <path d="M472.431863,146.388378 C463.51638,104.134255 431.897918,71.3460277 389.37387,55.0122476 C381.199909,50.3872801 373.276409,30.5421912 362.291085,26.9078349 C360.530137,26.3252471 363.309639,30.9617115 362.291085,31.2386011 C358.658056,32.2262251 354.587346,32.3293555 350.576138,28.7627795 C343.40721,22.3885082 341.158124,3.76588241 336.79938,-4.65092762 C313.811551,-49.0408232 256.415891,-31.6723786 248.726519,17.3996403 C243.365007,20.8955838 235.78581,23.9752371 229.949668,26.7923634 C223.940002,29.6932506 218.653765,36.7195191 212.460554,39.2315559 C206.934637,41.4729304 197.829513,39.8851029 192.261336,41.8390832 C166.651029,50.8262314 144.959881,62.1664016 127.954189,85.1429671 C124.370911,89.9889358 120.331615,95.9464831 117.070762,100.841927 C100.259735,120.202028 88.583092,141.901584 77.8287623,165.182409 C47.740532,233.516222 39.5566053,309.176816 32.2140649,382.801871 C32.3810576,395.683975 23.8361697,431.404842 36.4743055,437.58085 C35.7189847,438.364096 35.9925958,439.937654 37.3940499,439.924161 C69.4393061,439.600325 101.410058,442.469226 132.95819,448.047038 C148.179574,450.7386 163.319389,454.429298 178.824019,455.035847 C211.009292,454.813531 243.078955,449.418199 275.221837,454.52375 C313.86281,454.52375 360.82344,453.397367 403.811038,451.744189 C443.987179,450.199131 484.378611,453.688659 524.057013,446.853857 C527.19776,446.356539 528.731524,442.524484 528.073187,439.778306 C523.417945,422.809063 521.132714,405.343786 518.520563,387.975531 C519.040809,376.835328 518.110146,365.205518 513.990565,354.829285 C503.227243,284.781842 489.425297,215.191238 472.431863,146.388378 Z" id="âœ‹-Skin" fill="#D08B5B"></path>
                        <path d="M362.291147,31.4954505 C363.309701,31.2185608 360.530198,26.5820964 362.291147,27.1646842 C373.27647,30.7990406 381.19997,50.6441295 389.373932,55.2690969 C431.89798,71.6028771 463.516441,104.391105 472.431924,146.645227 C489.425358,215.448088 503.227305,285.038691 513.990626,355.086134 C518.110208,365.462367 519.040871,377.092178 518.520624,388.23238 L518.930746,390.975456 C521.379891,407.437711 523.663019,423.95903 528.073249,440.035156 C528.731585,442.781333 527.197822,446.613388 524.057074,447.110707 C484.829563,453.86784 444.905135,450.533955 405.180823,451.950294 L396.901046,452.260961 C355.838033,453.77116 311.80202,454.780599 275.221899,454.780599 C243.079016,449.675048 211.009353,455.070381 178.82408,455.292696 C163.319451,454.686147 148.179636,450.995449 132.958251,448.303887 C101.41012,442.726075 69.4393678,439.857175 37.3941115,440.18101 C35.9926574,440.194503 35.7190463,438.620945 36.4743671,437.8377 C23.8362313,431.661692 32.3811192,395.940824 32.2141265,383.058721 L32.8777956,376.427222 C40.0674164,304.900624 48.6432405,231.723057 77.8288239,165.439259 L78.7029009,163.555104 C89.218074,140.987193 100.714149,119.935631 117.070823,101.098776 L118.071198,99.6004535 C121.134976,95.0229387 124.729301,89.7611882 127.954251,85.3998164 C144.959942,62.423251 166.651091,51.0830807 192.261397,42.0959326 C197.829575,40.1419522 206.934699,41.7297798 212.460616,39.4884052 C218.253074,37.1389184 223.252137,30.8405157 228.791747,27.6618286 L228.791766,51.3713598 L308.949073,130.363198 L354.411771,60.6253936 L359.03529,32.0633979 C360.149254,31.9934833 361.23857,31.7815892 362.291147,31.4954505 Z" id="ðŸ§¥-Jacket" fill="#8FA7DF"></path>
                        <path d="M459.465972,238.461012 C458.618163,242.579636 457.429945,246.698259 455.849938,250.599065 C454.327735,254.363654 452.034797,257.736942 450.455431,261.457196 C450.243479,261.95837 449.896648,262.337463 449.478524,262.626602 L449.608826,263.638589 L449.608826,263.638589 L449.729013,264.650575 C450.516815,271.479762 451.402767,278.290065 452.170076,285.118308 L452.54284,288.534094 C454.051555,302.791214 456.434412,316.978298 458.284177,331.197509 C460.095406,345.121156 461.939391,359.044802 463.910547,372.949173 C465.946573,387.284039 468.021136,401.599629 470.44253,415.876668 C471.464825,421.906286 472.531723,427.930995 473.643224,433.950797 L474.501737,438.558011 C483.339505,440.684789 485.754476,453.008533 476.756139,457.557653 C472.671883,459.613752 467.424458,459.119003 464.058271,455.887715 C460.560262,452.520138 460.415051,446.447115 459.60322,441.885851 L458.821145,437.647262 C452.969128,405.775423 447.890141,373.536446 445.515659,341.214567 C444.905493,332.868732 444.39167,324.515829 444.057684,316.155859 C443.740344,308.292886 443.891998,300.430453 443.770567,292.567075 L443.730122,290.422493 C443.544503,282.037463 443.698008,273.665285 443.916383,265.280255 C443.942074,264.258631 443.987033,263.237007 444.038416,262.208957 C443.743609,261.861991 443.531015,261.450771 443.441738,261.052402 L443.325485,260.525526 C443.03646,259.169786 443.364022,257.582734 444.405157,256.612512 C444.854111,250.900412 445.445008,245.194737 445.605578,239.489062 C445.618424,239.020014 446.292817,239.033507 446.331996,239.489062 C446.710941,244.346596 447.468189,249.216981 448.226079,254.08094 C453.100981,250.161501 456.70417,243.69764 458.830115,238.287529 C458.984262,237.895585 459.556533,238.036942 459.465972,238.461012 Z M344.125272,11.3773259 C344.934544,15.0783043 346.533821,18.4008321 348.679035,21.4914061 C349.700901,22.9692274 350.862785,24.3442437 352.256532,25.4943741 C353.451814,26.476804 354.813447,27.119335 356.084518,27.9745437 C357.934284,27.6847623 359.867545,28.3857636 361.16495,29.7472867 L360.960063,27.7560832 C360.895193,27.1135522 361.962019,26.985046 362.084052,27.6076585 C367.703116,55.9571965 372.827867,84.3250276 377.263845,112.879675 L379.208277,125.489845 L381.037851,137.328142 C384.075618,157.05493 387.014016,176.773844 389.226788,196.64471 C392.174852,223.162606 394.653409,249.750539 396.464637,276.37638 C398.282288,303.189841 399.400497,330.021292 400.196924,356.886155 C400.395388,363.658432 400.607983,370.424283 400.81287,377.195917 L402.184799,369.099595 C403.553999,361.001566 404.896644,352.896038 406.047449,344.761595 C410.177307,315.648516 413.479266,286.329185 415.090746,256.966161 C416.568631,230.095516 416.074076,202.691569 409.240221,176.514214 C407.518269,169.928272 405.411592,163.445134 402.868807,157.129054 C400.401811,150.987101 397.036908,145.293634 394.383651,139.241634 C391.300709,132.199495 390.375826,125.555724 391.962899,117.973859 C393.350223,111.36864 395.784463,105.155366 396.220571,98.3573878 C397.036908,85.7380793 392.932099,73.5164974 387.132957,62.4720323 C385.603689,59.561367 383.991567,56.6892534 382.308795,53.8421987 C377.21616,45.2393513 371.473538,36.9500591 365.513825,29.0025933 C365.192685,28.5785229 365.87286,28.1094752 366.220333,28.456442 C371.653376,33.828001 377.594462,39.1096057 382.482852,44.9759136 C384.858645,47.8287512 387.177274,50.738774 389.37387,53.7271856 C413.472843,57.7558549 434.179938,72.7711615 448.335138,92.6003102 C464.398551,115.101745 472.523388,142.184426 478.535767,168.855245 C485.221898,198.495842 490.861113,228.405659 496.866427,258.192753 C503.083051,289.015607 509.268204,319.837818 515.524007,350.653604 C518.63264,365.951625 521.741916,381.25093 524.843484,396.556018 C526.417069,404.304942 528.06837,412.034589 529.79546,419.757812 C530.682448,423.715803 531.633022,427.667368 532.45514,431.63821 C533.37938,436.116651 532.518725,438.981696 529.487808,442.272098 C528.369599,443.492906 526.60333,443.47363 525.216006,442.824674 L524.782317,442.620392 L524.363152,442.417924 C522.646492,441.573938 521.300626,440.699359 520.232559,438.821064 C519.056545,436.759182 518.870284,434.471771 518.46629,432.177936 C517.720603,427.955865 516.982624,423.735079 516.23758,419.507225 C515.124349,413.18472 513.913933,406.880286 512.68193,400.577388 L506.500782,369.078662 C504.852532,360.679979 503.201873,352.282099 501.54158,343.887753 C495.613339,313.868706 489.678676,283.856083 483.744655,253.843461 C478.046992,225.025304 473.005097,196.009247 466.518716,167.358148 L466.149932,165.744059 L465.77488,164.132127 C459.974683,139.433033 451.870619,115.541076 437.165896,94.6114322 C425.848929,78.516031 410.132989,64.1426129 391.621849,56.8685196 C392.926319,58.7453526 394.178764,60.6600949 395.373404,62.6133891 C402.87523,74.8728803 408.353233,89.4262071 407.068673,104.024511 C406.439882,111.156605 403.729462,118.166618 403.985731,125.35654 C404.223375,131.743298 408.174036,137.352593 410.903725,142.909844 C417.101081,155.504094 421.584835,168.888014 424.475093,182.618259 C430.274878,210.189263 430.255609,238.557649 428.257477,266.545656 C426.086572,296.970141 421.96378,327.387557 417.268716,357.515193 C414.860167,372.968063 411.655192,388.293069 409.201042,403.720238 C407.987775,411.327163 406.336475,418.916096 404.891345,426.485111 L404.202608,430.101299 C403.817002,432.108178 403.416925,434.108577 402.954801,436.087736 L402.6697,437.272564 L402.6697,437.484599 C402.656855,438.943787 402.257999,440.151745 401.615719,441.115542 C400.736439,443.93561 399.644563,446.686285 398.193011,449.327088 C397.447967,450.676403 396.368295,451.433947 395.192923,451.710878 C394.011129,454.415933 391.332823,456.497091 388.134913,456.485042 L346.071379,456.32425 C321.639063,456.227228 297.206747,456.066595 272.774431,455.931664 C266.609189,455.90018 260.449728,455.784524 254.290266,455.623891 C248.516173,455.463259 242.979722,454.769325 237.269857,454.04969 C230.820727,453.240101 227.327369,448.671706 228.290788,442.22712 C228.50274,440.806484 228.733319,439.393559 228.952336,437.979991 C227.667777,438.404061 226.139151,438.204876 225.105081,437.196103 L224.135596,436.24691 C222.791717,434.916946 221.589762,433.610963 220.73758,431.836752 C219.857657,430.012606 219.144084,428.085013 218.366926,426.221674 C216.690576,422.21228 215.059828,418.190036 213.472755,414.148516 C210.294113,406.065477 207.114829,397.95031 204.159701,389.783099 C198.309176,373.610594 193.13176,357.193927 188.630022,340.591569 C180.601527,310.970891 174.794677,280.77836 171.133684,250.315966 L170.258396,243.05568 L170.003892,240.911078 C168.61561,229.104175 167.447241,217.113978 167.999359,205.332372 C168.34041,197.955473 169.483025,190.522032 172.239047,183.633458 C174.781832,177.279469 178.70616,171.843657 182.437805,166.163683 L182.86483,165.50803 L183.294138,164.836392 C186.557649,159.677375 189.154402,154.283773 189.284505,148.018608 C189.416364,141.660677 187.564825,135.473061 185.494625,129.520862 L184.978664,128.052931 L184.632367,127.08135 C180.228263,114.779564 175.216302,102.651744 176.869241,89.2655744 C179.310545,69.5527238 191.256304,53.6629325 206.286289,41.4098666 C192.919808,44.0570943 179.68949,49.286654 168.012847,55.9182163 C154.222462,63.7570943 141.807197,74.1018431 131.100396,85.7766311 C110.868589,107.840503 96.4237202,134.313422 84.599995,161.64669 C72.2226248,190.252169 63.0444493,220.22624 56.1277402,250.592254 C49.1718521,281.131752 44.515325,312.159573 41.3353987,343.309475 C39.7496103,358.813748 38.5029456,374.35593 37.4695177,389.905822 C36.9428484,397.873206 36.5446351,405.853441 35.9280467,413.807975 C35.3114583,421.756083 35.0346357,429.82563 33.0949513,437.562345 C32.1893371,441.166944 26.0812581,441.533187 25.4267752,437.562345 C23.9742787,428.694284 24.3802115,419.523577 24.7855907,410.543715 L24.82239,409.727903 C25.2212457,400.783872 25.7414922,391.846266 26.3574383,382.90866 C27.6169486,364.641504 29.2990789,346.400049 31.4956751,328.216422 C39.1966076,264.387394 53.3980519,200.892482 81.2537183,142.627773 C94.3690678,115.185274 111.203216,88.5202384 134.620731,68.7045829 C145.770062,59.2780108 158.339474,51.753973 171.885151,46.3059527 C183.999186,41.4291426 196.305264,39.1224563 209.176547,39.1288816 C215.631457,34.181393 222.561654,29.8700101 229.484786,26.1876651 C229.902267,25.9634217 230.339018,26.5031478 229.992829,26.8501145 C229.812991,27.0235979 229.638933,27.202864 229.459737,27.3705646 C230.243318,27.4219671 231.051948,27.7882097 231.777724,28.5528216 C234.321793,31.2186827 236.467007,34.554061 238.386781,38.0166605 C241.309153,41.666879 244.096647,45.4378934 247.013238,49.0489175 C251.681969,54.8316964 256.460529,60.5309462 261.297537,66.1852189 C269.420684,75.6878463 277.808421,85.0105509 286.555226,93.9582946 L288.016368,95.4460799 C292.55022,100.040819 297.143161,105.540242 302.505554,109.176967 L302.791858,109.367479 C305.054298,110.842026 306.658637,111.109829 308.587942,108.907747 C310.341961,106.90305 311.801912,104.577022 313.302567,102.366943 L313.649747,101.859182 C321.312143,90.7241197 328.415755,79.1778379 334.844974,67.2910147 C337.775521,61.8814879 340.56328,56.3933706 343.208251,50.8445242 L343.997459,49.1780662 C345.436165,46.1196187 346.996904,43.118999 348.184479,39.9699547 C348.460659,39.2316866 348.730417,38.492776 348.993752,37.7602906 C344.94739,35.1066377 341.813708,29.3624107 340.676873,24.8646938 C339.495078,20.1934935 340.092399,15.3995698 342.198433,11.1273813 C342.596647,10.3242176 343.932588,10.5227596 344.125272,11.3773259 Z M144.512429,201.200383 C143.952475,218.960582 143.612709,236.739415 142.777103,254.48612 L142.48872,260.544545 C143.791905,261.997308 144.556218,263.673671 143.946052,265.974574 C143.709051,266.854842 143.008324,267.65158 142.134824,267.947145 L141.862488,273.580133 C140.622969,298.92461 139.169928,324.216463 136.514877,349.497177 C133.194292,381.135403 129.35346,412.721584 125.519693,444.302624 C124.973755,448.77464 121.86448,452.320768 117.028114,451.666029 C112.134586,451.00358 110.149942,446.743599 110.792221,442.30371 C113.31638,424.885338 115.743555,407.452829 117.870143,389.976629 L120.29148,370.06534 C123.327678,345.175558 126.435279,320.289612 130.01565,295.478955 C131.512161,285.109147 133.066478,274.745122 134.626575,264.380455 L134.08128,263.673671 C131.851927,260.776499 129.546144,257.942937 127.266051,255.0901 C122.886346,249.590034 118.563805,244.134304 114.549557,238.377226 C114.349808,238.088087 114.755087,237.664017 115.04347,237.88312 C120.66984,242.040295 125.99498,246.485967 131.351592,251.003602 L136.040233,254.973801 C138.737807,237.066463 141.40969,219.152699 143.791905,201.200383 C143.850353,200.751254 144.524746,200.718485 144.512429,201.200383 Z M225.445489,31.2386011 C222.060033,34.4313376 218.598789,37.5546807 215.187642,40.7287838 L213.938206,41.8969504 L212.694549,43.0704937 C206.699746,48.7576598 200.956166,54.6777421 196.170385,61.4761093 C187.384,73.9604863 182.149421,89.1814028 185.80335,104.42288 C188.835552,117.047972 195.79144,128.492091 197.660474,141.432665 C198.59756,147.915803 198.142183,154.431067 195.700879,160.553745 C193.208834,166.799788 189.2267,172.152071 185.649203,177.787068 C177.87762,190.033709 176.817858,203.475457 177.589236,217.662541 C178.398508,232.479306 180.099907,247.301853 182.200804,261.984328 C186.452052,291.733513 192.862003,321.174283 201.346516,350.004648 C205.592627,364.442319 210.608188,378.571576 215.599343,392.75866 C218.084323,399.820075 220.981646,406.714433 223.967604,413.576021 C225.541189,417.187688 227.153953,420.778794 228.791766,424.364116 C228.187381,419.301615 228.187381,414.103539 227.891932,409.072522 C227.468028,401.863324 226.928513,394.666977 226.433958,387.464205 C225.426221,372.846625 224.527029,358.216194 223.72418,343.585764 C220.878881,291.412248 218.78505,239.193754 218.938555,186.936709 C219.01627,160.804974 219.549363,134.673239 220.673352,108.566563 C221.200278,96.2728031 222.22068,83.9907977 223.14291,71.7142774 L223.338812,69.0836761 C224.154507,58.0642698 225.130772,47.0191621 226.80648,36.0961354 C226.310354,34.9761325 225.879694,33.8419146 225.560059,32.6785898 L225.445489,32.2409495 L225.528986,32.2538001 C225.451912,31.9126161 225.426221,31.5727172 225.445489,31.2386011 Z M254.720722,-13.6615926 C254.790731,-13.9635822 255.221058,-13.9378809 255.298131,-13.6615926 C257.205702,-7.23628276 256.531308,-0.168441921 254.887715,6.29541979 C254.001369,9.79721366 252.742501,13.1962026 251.220298,16.4731106 L250.687611,17.6198778 C249.383373,20.4106514 247.914835,23.2860808 245.374912,25.025198 C244.315792,25.751258 242.420425,25.7962352 241.360664,25.025198 L240.820198,24.6149301 C240.73123,24.5454415 240.643452,24.4747631 240.557815,24.4019429 C239.569346,23.573078 239.080571,21.7418647 239.53659,20.5339064 C240.711962,17.4176311 243.378064,15.1302208 245.220764,12.354487 C246.852797,9.88716799 248.297926,7.28491751 249.498347,4.57986206 C252.086733,-1.27359521 253.24926,-7.48686984 254.720722,-13.6615926 Z" id="ðŸ–-Ink" fill="#000000"></path>
                    </g>
                    <g id="HEAD" transform="translate(238.928013, 115.655577)">
                        <path d="M184.781506,326.651958 C171.514367,326.615334 159.370769,324.024007 147.848867,318.349815 C133.936958,313.799411 118.745123,311.319884 107.455236,301.246926 C101.957385,302.415689 96.3223765,296.757562 91.7615571,293.388772 C84.3229864,320.826772 45.6111416,316.262875 29.2541053,298.529662 C19.2479907,290.058534 15.2229843,269.102386 32.5990907,263.558628 C4.12986164,244.173468 -6.15313237,210.687324 -4.19638962,174.453074 C-2.13709893,113.670928 44.4747823,50.4792903 104.385208,39.9366419 C116.203857,37.8522714 128.341046,38.0726595 140.109062,40.551544 C146.680462,41.9805329 153.032665,44.7511265 160.065531,44.6251905 C187.341999,40.3028845 217.300737,40.799561 239.830518,58.3001774 C275.839584,82.4522746 280.844564,130.776387 276.636894,169.628951 L276.80738,169.992624 C274.71412,184.254241 271.235182,197.316254 264.656091,205.914603 C264.143992,218.276257 259.859411,244.66372 259.542154,255.095853 C260.310622,303.639068 232.808548,325.184417 184.781506,326.651958" id="âœ‹-Skin" fill="#D08B5B"></path>
                        <path d="M91.5879753,49.0620115 C116.159548,40.7283934 131.665447,45.0336446 154.596431,49.6359588 L156.009786,49.9179994 L158.233877,50.3541413 C181.243711,48.8069267 201.063662,43.7437826 223.27939,54.7921028 C269.504794,74.2762124 278.060496,128.061839 274.876383,172.977325 L274.687399,173.81253 C273.181986,180.365346 271.063784,187.136767 266.611661,192.345779 C259.137839,155.466428 235.110858,131.120286 205.565517,107.874158 L204.509438,106.593258 C200.841156,102.159425 196.839649,97.5531257 192.00163,94.4253416 C192.160579,92.991855 192.239413,91.5551557 192.213776,90.1383749 C192.178514,88.1808422 189.390952,86.5346418 187.937197,88.2365418 L187.660007,88.5810837 C185.762987,90.8899399 175.796926,101.98731 170.753723,107.68194 L170.124899,108.392912 L168.603396,110.127514 L166.034722,113.210045 C138.306512,146.442466 109.059176,179.804062 67.7032798,195.754406 C57.7933039,189.471738 45.7721224,195.003929 39.5795091,203.854794 C21.9822837,224.41707 42.3809904,263.18996 69.4280079,252.671728 C71.0700566,266.892224 78.1689373,282.923372 87.7994701,293.649784 C77.2472878,308.409363 60.3646933,311.072654 44.5723116,302.719109 C29.1565991,295.814285 19.1807013,281.321397 28.643776,265.290205 C28.8425237,265.174571 29.0468477,265.062533 29.2554045,264.953299 C36.5108896,269.806291 44.9659822,272.986351 53.7095464,273.630132 L54.3719651,273.674424 C59.8334511,273.93282 59.7466177,265.310351 54.2041262,264.868893 C17.5458038,260.197693 1.27080581,218.229497 1.23427311,185.317775 C-0.323173624,127.382683 35.7038381,67.7744414 91.5879753,49.0620115 Z" id="ðŸ’ˆ-Hair" fill="#C93305"></path>
                        <path d="M26.3303996,262.888468 C-59.906644,186.501815 28.5633809,14.59779 140.767484,37.4057123 C152.123386,41.2178487 163.655542,42.54082 175.415867,39.7162538 C234.68024,30.4387489 283.162981,80.8523725 280.656965,139.178123 C281.074207,149.154059 280.993451,159.13899 279.917979,169.075089 C278.688045,182.135174 275.328959,196.102513 267.837833,206.959359 C267.751154,214.251687 263.468928,241.60674 262.780703,254.476644 L262.649105,257.164141 C261.965992,270.390665 260.493567,283.880766 254.693751,295.941547 C236.858102,328.339887 190.913423,335.292715 157.9699,325.854577 L156.600044,325.403644 C150.480773,323.36415 143.543621,320.646537 139.658044,315.508543 C137.604521,312.79385 141.003985,309.328038 143.831103,310.066306 C147.470273,311.017252 150.486464,313.241052 153.884006,314.821035 C176.043819,324.63869 202.253446,321.35073 224.127964,312.180413 L224.789492,311.900732 C263.966007,295.958253 253.234366,239.247183 258.391245,206.910526 C259.564137,165.848299 225.401575,137.88535 199.662685,110.726851 L198.892243,109.866354 C196.247754,106.926683 193.45486,104.061106 189.777705,103.434124 C188.770812,106.497069 186.29428,109.103817 183.997206,111.337898 L178.802623,116.965696 C173.606897,122.586888 168.400627,128.185221 163.119729,133.733315 C137.4789,159.845132 111.354173,195.297421 71.8302767,197.967138 C74.2600218,200.171019 76.3904551,202.689098 78.9368485,204.764473 C80.0110381,205.841997 78.915698,207.650722 77.4748995,207.281267 C74.7881437,206.593116 73.0698249,204.038413 71.3066413,202.042069 C49.9600072,193.058843 32.429438,226.255207 50.5150479,239.998302 C57.2242464,247.120115 76.8294885,241.701009 72.2962289,250.483123 C77.2441667,266.038798 84.8602735,281.684427 97.7434986,292.089574 C101.526235,294.952692 107.434278,296.402885 109.944139,300.617888 C110.549813,301.633729 110.240887,303.291459 109.103246,303.831828 C103.630391,306.389744 97.7511897,302.087356 93.5480062,298.84643 C71.3515061,342.34385 -10.0433523,294.286387 26.3303996,262.888468 Z M158.232038,50.3437162 L156.007947,49.9075743 C132.292726,45.204208 116.65917,40.5478945 91.5861361,49.0515864 C35.7019989,67.7640163 -0.325012856,127.372258 1.23243388,185.30735 C1.26896658,218.219072 17.5439645,260.187268 54.202287,264.858468 C59.7447785,265.299926 59.8316119,273.922395 54.3701259,273.663999 L54.2029279,273.653432 C45.1665322,273.088005 36.4191935,269.802744 28.9626769,264.747953 C18.959126,280.989851 28.9844683,295.727584 44.5704724,302.708684 C60.3628541,311.062229 77.2454485,308.398938 87.7976309,293.639359 C78.1670981,282.912947 71.0682174,266.881798 69.4261686,252.661303 C42.3791512,263.179535 21.9804445,224.406645 39.5776699,203.844369 C45.7702832,194.993504 57.7914647,189.461312 67.7014406,195.74398 C110.336385,179.300327 140.102204,144.351782 168.601557,110.117089 L170.12306,108.382487 C175.112809,102.732487 186.586163,89.9703048 187.858777,88.3205101 C189.28868,86.4655232 192.176045,88.1354612 192.211937,90.1279498 C192.237574,91.5447306 192.15874,92.9814299 191.999791,94.4149165 C197.306005,97.8453894 201.605968,103.054388 205.563678,107.863733 C235.109019,131.109861 259.136,155.456003 266.609821,192.335354 C271.251397,186.904682 273.356193,179.7758 274.874544,172.9669 C278.058657,128.051414 269.502955,74.2657873 223.277551,54.7816778 C201.061823,43.7333575 181.241871,48.7965016 158.232038,50.3437162 Z M53.4047204,219.029753 C51.4800239,217.307128 64.1966086,217.098947 65.3970603,218.448263 L65.6709447,218.542027 C70.2238646,220.146811 78.5607796,225.32053 74.4667841,230.692333 C68.629243,236.207176 64.5638584,219.833559 53.4047204,219.029753 Z" id="ðŸ–-Ink" fill="#000000"></path>
                    </g>
                    <g id="FACE" transform="translate(341.050469, 235.166341)" fill="#000000">
                        <path d="M94.1495619,154.802776 C89.8319816,153.040731 85.9796082,150.101523 83.1631516,146.346875 C82.1839729,145.041606 81.9300885,143.663261 82.1354988,142.402589 C82.3664681,140.985052 83.2047765,139.700308 84.348041,138.83854 C85.4948469,137.974104 86.9293553,137.547785 88.3162259,137.76511 C89.521335,137.953953 90.7209638,138.614037 91.6703802,139.983026 L91.868737,140.256792 C93.5431692,142.522968 95.7251084,144.382338 98.2112757,145.58081 C100.607537,146.735942 103.287513,147.275086 106.06085,146.961562 C111.342851,146.364663 114.983471,143.506983 118.853053,139.626301 C119.332699,139.136355 119.812653,138.63105 120.294933,138.117611 C120.599502,137.652181 121.022168,137.353049 121.491441,137.1961 C122.012487,137.021835 122.60191,137.031695 123.141778,137.22017 C123.662482,137.401956 124.127966,137.746431 124.440085,138.204905 C124.736729,138.640648 124.904917,139.178949 124.850345,139.798128 C124.496155,143.81982 122.39439,147.409008 119.408921,150.22728 C116.093177,153.35733 111.697915,155.522719 107.559968,156.282189 C103.001166,157.118775 98.355868,156.519409 94.1495619,154.802776 L94.1495619,154.802776 Z M109.710543,92.76037 C114.56064,95.7096166 121.950697,102.586684 116.73311,109.898226 C110.59151,116.345053 101.748994,108.953325 97.3915547,105.610334 C93.3511331,103.019498 88.8114931,109.682935 92.5601985,112.708174 C124.047144,136.028988 136.825213,93.5315569 112.163654,89.2927791 C109.448328,88.825684 108.439849,91.8479883 109.710543,92.76037 Z M53.2856354,65.632227 C53.8215075,58.9779989 63.9519728,57.4669432 64.9597095,64.0516008 C65.8621124,69.9500352 64.7997819,75.368499 62.1439557,80.6790176 C59.606309,85.7524423 53.2281403,83.3854509 52.7457883,78.7656531 C52.0992155,72.5730062 52.9522923,69.7715377 53.2856354,65.632227 Z M130.400101,62.6862867 C131.812474,60.8357975 133.851712,59.5725815 136.294943,60.2864335 C143.928436,62.5179436 141.678531,73.3593689 138.997656,78.6364759 C137.540966,81.5021641 132.832414,82.2288666 130.704542,79.7056474 C127.236232,75.590879 125.575297,67.3735502 129.984546,63.3204648 C130.10401,63.1109997 130.236962,62.899607 130.400101,62.6862867 Z M62.0364381,36.5153571 L63.2422352,36.3042247 C66.9724661,35.6588376 71.610579,35.0386924 74.2493848,38.0387981 C75.648912,39.6297048 76.1306217,42.5866324 74.2493848,44.1094309 C70.9403603,46.7887851 67.2819356,45.750455 63.3165014,45.9772684 C60.0485827,46.1648875 56.9078355,46.7058986 53.7600231,47.6060845 C46.8542329,49.5805822 41.2272212,53.185181 35.3291676,57.1431719 C34.5552207,57.6623369 33.7652168,56.6721967 34.1345276,55.9480643 C37.5392518,49.276665 44.1373901,43.7965183 50.7464472,40.4559997 C54.2738468,38.6729762 58.1339472,37.1938699 62.0364381,36.5153571 Z M123.441564,33.5268733 L124.364475,33.7158293 C134.407953,35.8160117 147.456782,40.0112983 152.212853,49.8802239 C152.394081,51.2757249 152.202597,51.5748087 152.046885,51.7702129 L151.995041,51.8352369 C151.866735,52.0021007 151.764356,52.2321215 151.159722,52.4220516 C150.991936,52.3820592 150.82248,52.3397019 150.65123,52.2948057 C148.47113,51.7232579 146.746249,50.9358703 145.076382,50.1188617 L143.265822,49.2265151 C141.165211,48.1961405 139.046053,47.2032668 136.800232,46.4702898 C132.007457,44.9064048 127.077677,43.8047454 122.071518,43.2164843 C120.986472,43.0890919 119.941641,42.7227458 119.117344,42.0948881 C118.334921,41.4989253 117.7372,40.6738008 117.464672,39.5770306 C117.111477,38.1576347 117.212978,37.0830356 117.974247,35.8025327 C118.546674,34.8409024 119.365726,34.174367 120.306205,33.7916197 C121.264982,33.4014254 122.356541,33.3094372 123.441564,33.5268733 Z" id="ðŸ–-Ink"></path>
                    </g>
                </g>
            </g>
        </g>
    </g>
</svg>