<svg width="62" height="62" viewBox="0 0 62 62" fill="none" xmlns="http://www.w3.org/2000/svg">
<circle cx="31" cy="31" r="30.5" transform="rotate(-180 31 31)" stroke="#1E40AF"/>
<path d="M37.7627 18.2183C37.6226 18.0796 37.4322 18.0012 37.2333 18C37.1346 17.9991 37.0367 18.018 36.9457 18.0555C36.8546 18.0931 36.7724 18.1484 36.7039 18.2183L24.2213 30.4717C24.1512 30.5396 24.0955 30.6205 24.0576 30.7097C24.0196 30.7989 24 30.8947 24 30.9913C24 31.088 24.0196 31.1838 24.0576 31.273C24.0955 31.3622 24.1512 31.4431 24.2213 31.511L36.7039 43.767C36.7725 43.839 36.8552 43.8968 36.9471 43.9368C37.0389 43.9768 37.138 43.9983 37.2385 43.9999C37.3389 44.0015 37.4387 43.9833 37.5318 43.9463C37.625 43.9094 37.7096 43.8544 37.7806 43.7846C37.8516 43.7149 37.9077 43.6318 37.9453 43.5404C37.983 43.449 38.0016 43.351 37.9999 43.2524C37.9982 43.1538 37.9764 43.0565 37.9356 42.9664C37.8948 42.8763 37.836 42.7951 37.7627 42.7277L25.8094 30.9913L37.7627 19.2576C37.8324 19.1895 37.8878 19.1085 37.9256 19.0193C37.9634 18.9302 37.9829 18.8345 37.9829 18.7379C37.9829 18.6413 37.9634 18.5457 37.9256 18.4565C37.8878 18.3673 37.8324 18.2864 37.7627 18.2183Z" fill="#1E40AF"/>
</svg>
