<?xml version="1.0" encoding="UTF-8"?>
<svg width="1022px" height="721px" viewBox="0 0 1022 721" version="1.1" xmlns="http://www.w3.org/2000/svg" xmlns:xlink="http://www.w3.org/1999/xlink">
    <title>Artboard Copy 3</title>
    <g id="Artboard-Copy-3" stroke="none" stroke-width="1" fill="none" fill-rule="evenodd">
        <g id="Group-5" transform="translate(-43.000000, -125.000000)">
            <g id="peep-46">
                <g id="BODY" transform="translate(86.957746, 378.481409)">
                    <path d="M249.349343,438.838236 C200.678441,438.838236 152.269005,436.442964 105.41416,431.718166 L105.393456,431.625174 L102.905399,431.324284 C95.8251457,430.440569 88.5869485,429.744021 81.5871457,429.070573 C63.1219344,427.293665 44.0267231,425.45575 26.2163569,419.998865 L23.0699062,419.034596 L22.761709,419.824136 C22.2985259,419.583661 21.8122724,419.334301 21.2952583,419.095011 C24.0974273,373.272699 28.7718499,328.297973 32.9931457,290.220611 L33.1664696,288.66167 L32.133033,287.48358 C26.1648921,280.678614 23.9661034,274.976517 25.4189485,270.062181 C37.3203288,245.189615 39.8432865,213.457592 42.2834273,182.766244 C47.3417654,119.155306 52.1191175,59.0727149 134.629005,56.4719139 L134.76092,56.4659909 L135.631089,56.405576 C152.837484,55.2251168 170.629512,54.0037886 186.523258,46.082925 L188.375399,45.1607097 L188.485427,43.0923888 C188.619117,40.5964253 191.688075,37.6278043 194.153653,35.2431937 C195.002526,34.4222622 195.803484,33.646938 196.523991,32.8704292 L196.674836,32.707546 L196.804385,32.5280783 C200.524047,27.3525375 204.892639,24.2636791 208.490441,24.2636791 C213.730385,24.2636791 216.269315,30.8483079 217.316357,34.7734977 L218.967371,40.9612838 L223.337146,36.2832772 C233.605258,25.2942857 238.517484,13.2095342 237.96616,0.322212655 L238.338836,0.206121331 L237.860864,-2.87266797 C236.958751,-8.2158304 237.558582,-12.1795199 239.645568,-14.6517913 C242.088667,-17.5463744 246.879625,-18.9536856 254.292329,-18.9536856 C259.190357,-18.9536856 264.520216,-18.3353216 269.223033,-17.7898108 C270.76047,-17.6115277 272.242301,-17.4397599 273.641906,-17.2958304 C283.055822,-16.3031311 292.679737,-14.5167462 301.985991,-12.7895917 L303.292132,-12.5473399 L302.408357,-10.1372603 L304.669258,-8.57239661 C307.682019,-6.48689889 309.925765,-2.3034651 310.825512,2.90465232 L310.865737,3.13979648 L310.937906,3.36842531 C312.275991,7.61523549 312.78354,12.357803 313.321258,17.3787528 C314.225146,25.8267658 315.159202,34.5614534 320.20985,42.0813281 L323.244498,46.5988206 L326.153737,41.998998 C327.572864,39.7547632 329.475878,38.6631494 331.971033,38.6631494 C338.701681,38.6631494 346.92185,46.1155016 348.382385,51.8916373 L348.851484,53.7467293 L350.656301,54.3751624 C363.04985,58.6960104 373.261765,61.8494299 382.271653,64.6314755 C404.893681,71.616501 416.24847,75.1229328 423.534582,85.3999765 C431.030103,95.971987 434.823117,114.424584 441.133174,151.137281 C448.037737,190.921659 452.65123,231.813644 457.112103,271.359324 C462.714667,321.029826 468.507117,372.372399 478.903596,422.177947 C478.180132,422.923063 477.631765,423.664626 477.257906,424.401451 C472.668667,424.80777 468.001343,425.17559 463.461202,425.533341 C455.904751,426.129198 448.090977,426.745192 440.45585,427.546578 L438.761653,427.724269 L438.386019,428.309464 C437.689174,428.368102 437.002385,428.436809 436.327427,428.504924 C435.250808,428.613315 434.212639,428.71756 433.198132,428.776791 L432.891117,428.16198 L430.427906,428.438586 C369.109089,435.339504 308.185427,438.838236 249.349343,438.838236" id="âœ‹-Skin" fill="#D08B5B"></path>
                    <path d="M208.490441,24.2636791 C213.730385,24.2636791 216.269315,30.8483079 217.316357,34.7734977 L218.967371,40.9612838 L221.51754,38.2307684 L216.87654,46.3615371 L253.006705,79.5638661 L254.390211,80.5395876 C269.155568,90.8955539 279.207883,96.073537 284.547156,96.073537 C290.051561,96.073537 306.434678,82.572104 333.696507,55.5692381 L318.976037,46.3615371 L320.302723,42.2205192 L323.244498,46.5988206 L326.153737,41.998998 C327.572864,39.7547632 329.475878,38.6631494 331.971033,38.6631494 C338.701681,38.6631494 346.92185,46.1155016 348.382385,51.8916373 L348.851484,53.7467293 L352.133117,54.8881115 C361.909586,58.2710934 370.314887,60.9273001 377.850579,63.2643115 L387.488294,66.2463402 C406.684408,72.220862 416.831359,75.9450963 423.534582,85.3999765 C430.880193,95.7605467 434.669916,113.689633 440.757541,148.956348 L441.133174,151.137281 C447.723893,189.113279 452.227088,228.098479 456.502656,265.958617 L458.165887,280.691354 C463.456708,327.441644 469.156897,375.485246 478.903596,422.177947 C478.180132,422.923063 477.631765,423.664626 477.257906,424.401451 C474.198413,424.672331 471.104216,424.926099 468.036135,425.171181 L459.316602,425.861344 C453.069284,426.359324 446.702772,426.890899 440.45585,427.546578 L438.761653,427.724269 L438.386019,428.309464 C437.921456,428.348556 437.461362,428.392123 437.006263,428.437006 L436.327427,428.504924 C435.250808,428.613315 434.212639,428.71756 433.198132,428.776791 L432.891117,428.16198 L430.427906,428.438586 C369.109089,435.339504 308.185427,438.838236 249.349343,438.838236 C200.678441,438.838236 152.269005,436.442964 105.41416,431.718166 L105.393456,431.625174 L102.905399,431.324284 C97.2411964,430.617312 91.4759096,430.030127 85.812464,429.478726 L77.6213696,428.687576 C60.4006024,427.012641 42.7545541,425.065972 26.2163569,419.998865 L23.0699062,419.034596 L22.761709,419.824136 C22.2985259,419.583661 21.8122724,419.334301 21.2952583,419.095011 L21.4869786,416.007219 C24.3072849,371.254846 28.8667105,327.442302 32.9931457,290.220611 L33.1664696,288.66167 L32.133033,287.48358 C26.1648921,280.678614 23.9661034,274.976517 25.4189485,270.062181 C37.3203288,245.189615 39.8432865,213.457592 42.2834273,182.766244 L42.5872146,178.954253 C47.5131694,117.409477 53.6428031,60.1998188 132.17695,56.5671285 L134.76092,56.4659909 L138.673086,56.1954801 C154.924095,55.0582493 171.564438,53.5378555 186.523258,46.082925 L188.375399,45.1607097 L188.485427,43.0923888 C188.604586,40.8677257 191.05559,38.2675724 193.332818,36.040127 L194.868765,34.5496159 C195.453649,33.9791231 196.009343,33.4250784 196.523991,32.8704292 L196.674836,32.707546 L196.804385,32.5280783 C200.524047,27.3525375 204.892639,24.2636791 208.490441,24.2636791 Z" id="ðŸ‘•-Top" fill="#FFFFFF"></path>
                    <path d="M144.658782,192.928973 C144.798388,192.684352 145.265712,192.770236 145.227853,193.083564 C143.194698,206.598727 138.262951,219.693947 135.26143,233.037341 L135.352604,233.291454 C136.884344,237.679865 140.405496,253.509892 131.79436,249.10829 L131.105944,252.71691 C119.904771,311.670557 110.863867,371.253338 112.124754,431.436822 C112.309909,436.226774 109.805881,450.416569 103.040923,443.465897 C98.071909,435.11976 100.26005,424.886547 99.8684443,415.620564 C100.722641,364.75361 105.896923,313.493367 119.183712,264.284269 L119.7329,262.582545 C128.522261,235.527088 128.48909,244.192829 124.359177,213.982964 C124.259205,211.195588 122.246754,205.137516 124.896303,203.463669 C127.283376,204.972329 128.075031,209.401814 128.940169,212.026959 L128.999289,212.203095 C130.284134,215.956517 131.429965,219.741923 132.565148,223.542729 C136.33805,213.339723 139.370332,202.467416 144.658782,192.928973 Z M285.09081,426.181972 C289.969909,424.73853 294.362754,430.297291 292.658501,434.849729 C291.555261,439.597627 282.338923,442.543149 281.988134,435.923574 C279.467543,433.225043 280.285656,428.262731 283.728472,426.764205 C283.693571,426.75769 284.772557,426.32294 285.09081,426.181972 Z M403.296971,156.909271 C403.478577,156.28143 403.99914,156.853594 403.858943,157.252806 C404.947394,162.774844 404.062436,168.848316 404.31207,174.584767 C405.008915,172.94172 405.911619,171.371525 407.084661,169.900245 C408.101534,168.626202 409.946577,170.446348 408.888887,171.706176 C406.262408,174.835311 405.113619,178.607687 404.613168,182.528138 C408.467112,264.390291 419.815394,346.109106 439.283281,425.726432 C443.502802,436.707131 426.48452,441.154732 428.352041,429.197918 C415.47283,373.356214 405.203534,316.335828 402.90714,258.931629 C399.809196,233.741589 401.029563,207.496065 401.454295,181.977889 C401.47145,173.664329 402.274182,165.145832 403.296971,156.909271 Z M229.99592,-10.0688493 C234.778005,-9.6891833 237.550005,-1.74048141 238.503582,2.62005088 C241.999639,19.7115369 232.600512,37.4995708 220.230033,48.7083066 C238.495301,65.1849824 258.329948,79.8693503 279.735751,92.0281396 C282.647357,88.7260522 287.790878,89.2004866 291.374484,91.1918082 C302.964709,80.2140705 314.706371,69.4696999 325.990174,58.1851494 C308.448099,47.0750142 306.982673,24.2001448 310.494278,5.58864761 L310.602202,5.02598434 C310.867808,3.42854403 313.09085,4.00840835 313.21685,5.38077365 L313.295707,6.26465971 C314.34854,18.3686302 314.442653,31.4364786 321.165498,42.0129172 C328.81423,29.9175042 347.144568,42.2954455 349.833751,52.9343862 C426.709132,79.7325284 427.428456,63.9381853 442.642512,152.449528 C458.023977,242.9362 462.375413,334.975889 480.392822,425.049726 C480.615244,427.603735 478.298737,429.693379 475.992287,430.040468 C467.178794,431.215005 466.904906,407.369491 464.873526,400.710232 C460.536878,375.849512 457.262061,350.815247 454.439188,325.740706 C445.772991,251.466543 442.806371,176.064635 426.025892,103.0041 C424.338202,96.8571833 421.934737,90.7760117 417.68623,85.927422 C399.979385,66.6349393 369.267329,70.8527267 350.076287,53.6593646 C351.934934,59.3893007 352.084596,65.7227932 351.719019,71.7080117 C349.619019,103.605288 348.35192,135.562978 346.096343,167.449001 C345.834878,171.02947 341.50592,172.206376 339.479272,169.243085 C323.419892,145.774277 306.937554,122.660257 291.283385,98.9071429 C288.761019,100.104779 286.070061,100.650882 283.181526,100.076941 C278.60116,105.867292 280.579892,121.013656 279.084456,128.95525 L278.529581,135.031343 C269.977268,229.21585 263.700015,323.635325 264.165381,418.25638 L264.182737,421.308742 C264.178596,424.211618 264.401019,427.2217 264.184512,430.115691 C262.22885,439.520273 252.982343,436.154809 253.501132,427.767211 C253.089413,321.74977 257.464512,215.04289 274.93592,110.348654 C259.163441,130.253577 243.409301,150.173309 227.629723,170.074086 C226.449217,171.57551 224.205119,170.915269 223.268295,169.525466 L223.209075,169.433807 L223.597132,170.47626 C222.648287,170.171816 221.819526,169.593729 220.959413,169.09501 C213.026146,149.590483 207.892089,129.132941 201.659526,109.065134 C196.457441,89.3876543 188.658456,70.0868793 185.784709,49.9231194 L185.654568,49.8686275 L185.654568,49.8686275 C177.848484,53.7979635 169.200033,56.3199883 160.459892,56.4698408 C150.575695,59.0191115 140.179808,60.221486 130.319864,61.5174442 C58.6436104,64.5879413 44.4730471,135.845507 45.1284837,194.90993 L45.0040226,197.730052 C44.2549984,215.294916 43.9016907,233.165786 39.55254,250.25173 C37.9470752,253.475041 32.8674414,274.209781 27.7582302,266.844497 C23.4505682,272.609379 24.7993006,275.966551 30.5402865,279.528067 C40.5676386,288.147255 50.351864,301.870316 52.2814978,316.012727 C52.6405682,318.623005 48.8984273,320.916401 47.568033,318.002864 L46.9039318,316.553486 C43.0186149,308.108561 38.910709,299.848851 33.3619766,292.511341 C33.1164837,292.922399 32.7822583,293.268304 32.382371,293.499302 C31.0490189,328.495506 28.3491879,363.428333 25.9350752,398.362937 C24.6150566,403.369446 27.1030164,435.149347 16.9860054,427.297691 L16.6755541,427.047563 C14.3647873,422.149242 15.7551503,416.22732 16.2274646,410.997647 L17.6492443,394.249395 L17.6492443,394.249395 C20.7199766,360.063461 23.2340612,325.810005 27.4766527,291.743717 L27.143557,291.360607 C22.2642954,285.700136 17.7056255,278.225711 20.1083147,270.673142 C21.3399203,266.131365 25.4233851,263.869953 28.1859203,260.399652 C43.1740048,181.244915 17.2801175,58.6838682 132.528117,54.8350855 L137.35268,54.5007605 C152.88831,53.3973324 168.88782,51.8253795 182.952371,44.816878 C183.216794,39.8747045 188.85485,35.6871246 191.933864,32.3666758 C201.418765,19.1713568 214.151272,18.5097547 218.755301,35.7712316 C230.998596,22.5895356 235.943948,7.28384214 229.99592,-10.0688493 Z M281.594103,373.438307 C287.562244,367.678164 295.558216,378.170805 284.736413,385.582881 C282.773061,389.185858 277.406526,386.64488 278.319287,382.873689 L278.307958,382.238906 C278.228303,378.956793 277.905156,374.904648 281.594103,373.438307 Z M282.229664,296.566541 C293.126002,293.051225 290.410791,312.921203 283.222284,315.632172 C278.878537,317.7923 277.389608,312.385761 278.182875,309.086635 C275.361185,304.794218 277.945664,299.14602 282.229664,296.566541 Z M282.053974,239.467912 C280.043889,230.954153 292.247551,229.536773 292.317946,238.429605 C292.711917,242.168812 289.305777,244.601992 288.445072,247.853141 C288.263467,249.968846 285.670706,251.45908 284.01141,249.692241 C281.24296,246.742574 280.647861,242.740384 282.053974,239.467912 Z M280.521565,163.81783 C281.765002,153.851744 293.030467,158.052948 289.052298,159.713172 C288.971847,159.799649 288.888439,159.884348 288.800298,159.970232 C293.349903,160.412682 293.031058,165.76236 292.524692,169.184684 C290.739396,176.84612 279.174016,169.875902 280.521565,163.81783 Z M211.241441,132.117554 C212.167216,135.469987 213.099498,138.820643 214.053667,142.164784 C216.511554,150.781011 219.432033,159.168017 222.511639,167.5414 C218.74347,155.736808 214.988315,143.928069 211.241441,132.117554 Z M217.468089,37.2211885 C206.682371,19.0866575 200.862117,39.5311689 193.040061,47.5669393 C198.566315,87.1256504 215.290005,124.078822 226.672596,162.213045 C242.531441,141.916609 258.407441,121.633796 274.270427,101.340915 C275.219272,100.124325 276.133216,98.8490972 277.080287,97.6011155 C257.166963,86.0790515 238.391188,72.4566823 222.586174,55.5559178 C219.546202,56.2068584 217.214906,52.1377391 215.032681,50.4443457 L214.803705,50.2558158 C212.785234,48.5528543 210.914347,45.8659861 212.184963,43.2170685 C212.016371,42.8581331 212.272512,42.5276282 212.620934,42.4186445 C214.199188,40.68379 215.873272,39.0111272 217.468089,37.2211885 Z M343.263413,75.2209589 C344.316371,62.2779609 342.184427,43.7223027 324.801751,46.6749315 C327.897329,50.9205571 333.717582,51.6064436 336.782991,55.6826706 C337.90516,57.5490163 336.528033,59.8607736 334.488371,60.2149706 C320.996315,72.4495747 308.241329,84.982107 294.46592,97.0277665 C309.773441,116.871091 324.469301,137.090527 339.355639,157.240072 C340.383751,129.888719 342.191526,102.565796 343.263413,75.2209589 Z" id="ðŸ–-Ink" fill="#000000"></path>
                </g>
                <g id="HEAD" transform="translate(220.056338, 106.614481)">
                    <path d="M254.951486,159.953114 C252.714244,123.110703 240.799603,81.3409263 205.733344,63.2520026 C128.428076,32.1217586 26.7876369,110.516571 21.4064503,190.603001 C19.5304727,218.017138 34.7000356,247.972845 62.421175,255.594596 C68.5845109,263.787919 77.9053684,268.791692 87.1052142,273.134455 C196.681074,330.177349 267.462332,283.80775 254.951486,159.953114 L254.951486,159.953114 Z" id="âœ‹-Skin" fill="#D08B5B"></path>
                    <path d="M279.914443,137.035206 C276.042066,126.243451 271.951278,115.534619 267.647982,104.908709 C263.456843,94.5671042 259.671196,84.0019721 254.466554,74.1504311 C223.381287,15.3110834 166.854035,15.3110834 137.63412,22.9991721 C122.481086,16.4483045 94.0989981,18.2961373 78.3206454,24.2074695 C52.7771275,33.7773038 21.6393241,71.4228772 10.9932402,88.3366724 C-12.5119674,125.680764 -27.1809547,175.385027 -11.5674853,218.537831 C-9.52681367,224.177737 -6.92417524,229.401254 -3.99391958,234.435235 C-5.83979175,236.945413 -7.96428613,239.322916 -10.3178174,241.658958 C-17.3117072,248.60193 -24.3055971,255.316273 -30.3473309,263.147107 C-36.3512854,270.929372 -41.328706,279.205025 -45.0340273,288.329447 C-52.0208335,305.537025 -52.3573052,325.021413 -43.1202704,341.440636 C-35.0839085,355.726976 -20.847612,366.365325 -4.80853537,367.379939 C-3.98506506,367.494846 -3.16041414,367.600276 -2.33222141,367.68379 C-0.207136727,371.196145 2.38428599,374.430118 5.34169551,377.249479 C14.4028205,385.897098 36.0019451,390.333445 48.3215333,390.61775 C48.9531557,391.12713 49.5906811,391.636511 50.2282065,392.139968 C57.7663541,398.09261 65.6763915,404.098559 74.3302086,408.333523 C80.1919005,411.206191 87.8776235,413.605017 93.993145,411.531957 C96.7675611,413.391788 101.318784,413.000868 104.069588,411.47865 C108.591296,408.979133 112.268873,404.477633 114.506115,399.869518 C119.930984,388.68092 118.626418,376.438024 117.233307,364.485356 C115.698524,351.282929 114.222771,338.07458 112.723405,324.872153 C111.548706,314.548318 110.320879,304.052714 107.192282,294.107952 C105.574856,288.954919 103.455675,284.003269 100.716677,279.34777 C100.787513,278.95685 100.775707,278.56593 100.66355,278.198702 C99.7662917,275.272727 97.9127456,273.738663 95.7168248,271.748526 C95.4334801,271.493836 95.1501355,271.233223 94.8726939,270.966687 C93.7747335,269.711005 92.6000339,268.544169 91.3426921,267.555023 C90.8586451,267.063412 90.380501,266.565878 89.9023569,266.068344 C85.9296292,261.89261 82.1753129,257.503647 78.8401106,252.800764 C75.6052594,248.240033 72.683268,243.47792 69.9029489,238.626961 C67.0754056,233.693079 65.2041505,228.249818 62.3825103,223.351475 C62.1404867,222.93094 61.5265734,222.848017 61.1841986,223.197476 C60.3105527,224.103699 59.7497665,225.110614 59.8560207,226.170835 L59.4191977,226.235989 C59.2539134,224.636772 57.7840631,223.333706 55.7888447,223.683164 C52.8019201,224.204391 50.3462667,224.39985 47.760747,223.404782 C48.215279,220.378115 48.634393,217.345526 49.0476039,214.307013 C49.8031895,208.715676 50.5056481,203.106569 51.1077554,197.497463 C52.5657996,197.846922 54.0120378,198.350379 55.4287609,198.990066 C57.4475914,199.896289 59.3542646,201.116432 60.9834962,202.614958 C62.5891157,204.095715 63.6988822,206.091775 65.6586825,207.122381 C67.9136335,208.301064 70.6349225,206.352388 69.973785,203.79364 C68.6338011,198.622838 61.0484293,195.661325 56.355534,194.684025 C54.7440114,194.346413 53.0970708,194.20426 51.4501302,194.239798 C51.82202,190.638598 52.1525887,187.037398 52.4241273,183.430274 C52.5539936,181.724443 52.6720539,180.018611 52.7842111,178.306856 C56.4322732,177.19925 60.3400678,176.867561 64.1357051,177.388787 C65.3871439,178.389779 66.6385827,179.378924 67.8487003,180.379916 C71.6915618,183.566504 75.5167142,186.770862 79.2946426,190.034449 C79.6370173,190.324678 79.9734891,190.614906 80.3158638,190.911057 C82.5590088,192.847887 85.3570369,190.928826 84.9792441,188.186465 C81.8978713,165.714502 95.6164735,147.838807 111.678572,133.99077 C129.458447,118.656054 161.783346,116.870437 182.927939,90.308448 C192.666199,92.2971581 214.408707,98.2038427 223.381287,112.549413 C235.942899,132.652166 234.301861,150.664091 235.258149,173.467744 C236.214438,196.289166 238.646479,220.09381 233.481343,242.595389 C228.717611,263.343751 215.819528,281.07137 195.808313,289.221455 C195.31246,289.422838 194.810704,289.618298 194.308948,289.807835 C183.960966,293.722956 172.668502,294.830562 161.783346,292.769348 C149.735297,290.48306 139.676563,284.950953 129.653247,278.145395 C129.074751,277.760398 128.23062,278.554084 128.667443,279.134541 C141.878387,296.702238 167.828032,302.571957 188.411838,297.934228 C189.374029,297.715076 190.330317,297.478154 191.280702,297.217541 C186.676352,310.50289 187.603125,325.085382 193.600587,338.021273 C197.207328,345.80413 202.708936,352.538611 209.408855,357.851566 C216.793525,363.703517 225.955001,368.430092 231.078816,376.64533 C235.771712,384.173497 234.3786,392.631579 226.3446,396.979081 C224.319866,398.080764 223.540669,401.640503 225.547693,403.204182 C226.315085,403.796485 227.082476,404.400633 227.867577,404.992936 C232.365673,408.398676 244.720679,414.795545 246.721801,415.032466 C264.48987,417.146987 276.437568,404.057098 284.093776,388.615767 C293.084065,370.491305 290.746472,348.404338 280.841216,331.144638 C272.89576,317.296602 257.246873,303.649948 263.468649,286.123712 C265.688182,279.863073 270.227599,274.526426 274.637149,269.705082 C279.666516,264.214436 285.073676,259.073249 289.896438,253.387143 C294.689684,247.742499 298.939854,241.60032 301.312865,234.51638 C304.777934,224.162929 303.054254,212.968409 300.451025,202.632727 C294.872678,180.445069 287.629681,158.553562 279.914443,137.035206 Z" id="ðŸ–-Ink" fill="#000000"></path>
                </g>
                <g id="FACE" transform="translate(314.112676, 216.782779)" fill="#000000">
                    <path d="M105.019817,121.621714 C107.049423,118.035913 113.105704,118.618739 114.031479,122.800988 C115.909648,131.279209 105.812493,139.108265 98.1436479,139.303725 C90.5227183,139.497408 81.9718732,133.002809 83.0751127,124.799417 C83.3478169,122.770188 86.0547465,123.016586 86.9775634,124.288852 L87.3358375,124.77693 C89.8422717,128.148417 93.1494884,131.638053 97.8011408,130.816028 C99.729,130.476046 101.479986,129.270118 102.645338,127.717693 C104.050859,125.844239 103.896465,123.607112 105.019817,121.621714 Z M56.5608676,59.595422 C57.5937127,59.3105245 58.6360225,59.4206928 59.5511493,59.8104279 C61.5943606,60.1853555 63.3009803,61.8911872 63.9008113,63.8386784 C63.9481352,64.0072872 64.0009803,64.1737901 64.0591712,64.338538 L64.1504451,64.5843875 L63.9055437,63.9601005 C64.0185296,64.5749106 64.5183887,65.2211129 64.6982197,65.8382922 C64.9194592,66.597032 64.9732901,67.4588324 64.8987549,68.2939791 C65.5482761,68.3004945 66.1977972,68.3224097 66.8461352,68.3786784 L67.4726477,68.4348949 C70.97638,68.7609355 74.8229877,69.358984 76.900107,72.3903444 C78.0666423,74.0938069 76.9716845,77.1607502 74.8285014,77.4888858 C71.529431,77.99412 68.6876282,76.166274 65.3997972,75.8002309 C62.2917972,75.4537339 59.0394592,75.6521553 55.9716845,76.2142505 C49.6380372,77.3736474 43.8179417,79.9441084 37.6457525,81.5570109 L36.8054873,81.7706419 L36.8054873,81.7706419 L36.8066704,81.7664958 C35.7489803,82.0223705 34.5481352,80.5499061 35.5945859,79.688698 C40.5393465,75.6213555 46.870107,72.3251911 53.1068113,70.3178774 C52.1981915,68.8708819 51.9172056,66.9648519 52.5383324,65.411242 C52.6345183,65.0892663 52.7539166,64.7762462 52.8797888,64.4641216 L53.1423042,63.8220939 L53.1423042,63.8220939 C53.1677408,63.5194273 53.2257127,63.2203144 53.3097127,62.9271246 L53.3233183,62.8376869 L53.3233183,62.8376869 L53.3310085,62.8430176 L53.3310085,62.8430176 C53.7953746,61.3320535 55.0080507,60.0242492 56.5608676,59.595422 Z M119.646642,59.8292631 C120.999048,58.4745578 122.899381,58.6747541 124.310659,59.7409322 L124.497938,59.8879011 L124.497938,59.8879011 C125.828332,60.4796115 126.929206,61.7726082 127.652079,62.9708365 C128.402755,64.2152644 128.901431,65.4827922 128.920952,66.8527883 C132.194586,66.8634497 135.330389,67.8466721 137.733854,70.4930805 C138.509966,71.347181 139.039994,72.6644621 138.612896,73.8224138 L138.35853,74.5112618 L138.35853,74.5112618 C137.551453,76.6982747 133.923048,77.9572301 132.689818,75.3853119 L132.632924,75.2599324 C131.322642,72.2060198 126.292699,72.5264556 123.619487,72.8385991 C121.756107,73.0571588 119.915797,73.5209318 118.116304,74.0403812 C117.482311,74.2234027 116.853975,74.4220833 116.226304,74.6249284 L115.59867,74.8287361 C115.263854,74.9371275 113.519966,75.885404 114.604868,75.6609213 C114.896501,75.6005065 115.115966,76.0257798 114.818417,76.1685247 C113.52529,76.787481 112.145797,75.5548992 112.232163,74.1641725 C112.381731,71.7500534 116.210469,70.4264149 118.052773,69.5939763 L118.163037,69.5436193 C118.869346,69.2166682 119.609375,68.9033401 120.373065,68.6125195 C119.9436,67.9728326 119.58867,67.2620694 119.293487,66.4991836 C119.014276,65.7789435 118.827938,65.0788417 118.7256,64.3129944 C118.625037,63.9386591 118.625037,63.5643238 118.7256,63.1893962 L118.74098,63.0821894 L118.74098,63.0821894 C118.688924,62.8346069 118.664079,62.5787322 118.667628,62.3210805 L118.65698,62.2209813 L118.667628,62.2209813 C118.703713,61.3189044 119.0616,60.4150505 119.646642,59.8292631 Z M98.0384113,85.5380423 C103.233989,87.1455517 111.805538,91.5244454 109.098017,98.2832112 C105.317425,104.490543 95.2912563,99.928628 90.432862,97.9230912 C86.0678197,96.4755035 83.7950873,102.600505 88.0157915,104.446713 C122.892946,118.262173 122.76458,81.8006124 99.3031437,82.336054 C96.7198479,82.394692 96.6388056,85.0037853 98.0384113,85.5380423 Z M51.894668,37.9955595 L52.7809268,37.7366103 C57.386138,36.4009678 62.0871803,34.0945412 66.175969,37.6933722 C67.7814338,39.1066064 68.1121099,42.0432431 66.9633211,43.8059358 C64.346307,47.8223402 60.4651521,47.2087147 56.2385324,47.5510656 C53.0205042,47.8116788 49.8503915,48.7581785 46.8465042,49.9410069 C44.3915746,50.9082372 42.1147014,52.269941 39.9650113,53.7886051 C37.8531803,55.2818001 36.4103915,57.616065 34.244138,58.9599997 C33.4502789,59.4527956 32.5333775,58.9457845 32.2482507,58.1467682 C31.2378845,55.3125999 32.9450958,51.7818836 34.3896592,49.3670656 C36.1530676,46.4209521 38.8316028,44.0114648 41.7118563,42.1883572 C44.8658152,40.1916593 48.3534498,39.038793 51.894668,37.9955595 L51.894668,37.9955595 Z M118.998659,34.9459743 C126.782856,34.943607 134.273054,39.2786703 138.626856,45.6334857 C140.106321,47.792429 139.022011,50.9908634 136.898349,52.2341067 C134.515914,53.6295021 131.96859,52.6247168 130.398553,50.6251473 L130.305532,50.5039906 C127.808603,47.1746573 124.589983,44.5525333 120.77449,42.845517 C118.912885,42.0121472 116.854293,41.3363298 114.840659,40.9933866 L114.189893,40.8817304 C113.27781,40.7286983 112.219741,40.5825654 111.394885,40.7256658 C110.952997,40.7837114 110.547194,40.9300102 110.173335,41.152716 C110.353166,41.546005 109.8888,42.0198471 109.459927,41.7841106 C107.525561,40.720335 107.762772,38.8225973 109.360546,37.3477636 C111.620856,35.2610813 116.079363,34.9465686 118.998659,34.9459743 Z" id="ðŸ–-Ink"></path>
                </g>
            </g>
            <g id="Group" transform="translate(416.000000, 0.000000)">
                <g id="peep-99" transform="translate(346.000000, 467.000000) scale(-1, 1) translate(-346.000000, -467.000000) ">
                    <g id="BODY" transform="translate(89.545775, 389.318982)">
                        <path d="M256.770454,451.404089 C206.651014,451.404089 156.80082,448.94023 108.551486,444.08014 L108.530166,443.984485 L105.96806,443.67498 C98.6770845,442.76596 91.2234648,442.049466 84.0153345,441.356735 C65.0005634,439.528946 45.3370423,437.638403 26.9966056,432.025264 L23.7565106,431.033384 L23.4391409,431.845532 C22.9621725,431.598171 22.4614472,431.341671 21.9290458,431.095529 C24.8146127,383.961125 29.6281549,337.698575 33.9750845,298.530892 L34.1535669,296.927312 L33.0893733,295.715489 C26.9436092,288.715667 24.6793803,282.850294 26.1754648,277.795239 C38.4310528,252.210463 41.0290986,219.569813 43.5418627,187.999639 C48.7507465,122.567242 53.6702817,60.7642244 138.63582,58.0889511 L138.771662,58.0828584 L139.667729,58.0207136 C157.386218,56.8064527 175.707771,55.5501526 192.074546,47.4024801 L193.98181,46.4538578 L194.095113,44.3263118 C194.232782,41.758878 197.393077,38.7052524 199.932035,36.2523601 C200.806173,35.4079217 201.630968,34.6103966 202.372919,33.811653 L202.528254,33.6441057 L202.661658,33.459499 C206.492025,28.1357599 210.990634,24.958454 214.695514,24.958454 C220.091408,24.958454 222.705901,31.7316295 223.784106,35.7692146 L225.484257,42.134184 L229.984085,37.3222257 C240.557796,26.0185714 245.616218,13.5877808 245.048486,0.331439008 L245.432254,0.212023483 L244.940056,-2.95492498 C244.011095,-8.45108545 244.628778,-12.5282727 246.777877,-15.0713359 C249.293687,-18.0488037 254.227232,-19.4964123 261.860553,-19.4964123 C266.904356,-19.4964123 272.392842,-18.8603418 277.235623,-18.2992107 C278.818817,-18.1158226 280.34475,-17.9391363 281.786011,-17.7910855 C291.480102,-16.7699609 301.390444,-14.932424 310.973669,-13.1558134 L312.318683,-12.9066249 L311.408606,-10.4275342 L313.736796,-8.81786171 C316.839222,-6.6726471 319.149746,-2.36942335 320.076271,2.98782518 L320.117694,3.22970254 L320.192011,3.46487802 C321.569919,7.83329289 322.092574,12.7116608 322.646296,17.8763823 C323.577085,26.5662988 324.53894,35.5510985 329.739905,43.2863001 L332.86487,47.9331481 L335.860694,43.2016125 C337.322056,40.8931155 339.281708,39.770244 341.851123,39.770244 C348.782088,39.770244 357.246905,47.4359896 358.750908,53.3775212 L359.233968,55.2857326 L361.0925,55.9321605 C373.854905,60.3767332 384.370746,63.6204488 393.648785,66.4821566 C416.944088,73.6671937 428.636817,77.27403 436.139778,87.8453503 C443.85838,98.7200835 447.764282,117.701059 454.262137,155.465001 C461.372194,196.388579 466.122993,238.451479 470.71663,279.129525 C476.485937,330.222311 482.450782,383.035045 493.15668,434.266742 C492.411683,435.033195 491.846996,435.795992 491.462011,436.553915 C486.736187,436.97187 481.929954,437.350222 477.25469,437.718217 C469.473345,438.331135 461.427018,438.964768 453.564655,439.789101 L451.820035,439.97188 L451.433222,440.573832 C450.715637,440.634149 450.008408,440.704823 449.313363,440.774888 C448.204701,440.886384 447.135634,440.993614 446.090933,441.05454 L445.774782,440.422125 L443.238261,440.706651 C380.094479,447.805173 317.357613,451.404089 256.770454,451.404089" id="âœ‹-Skin" fill="#D08B5B"></path>
                        <path d="M214.695514,24.958454 C220.091408,24.958454 222.705901,31.7316295 223.784106,35.7692146 L225.484257,42.134184 L228.110324,39.3254821 L223.331199,47.6890701 L260.536666,81.8421266 L261.961348,82.8457873 C277.16615,93.49829 287.517641,98.8245413 293.015821,98.8245413 C298.684048,98.8245413 315.554758,84.9365035 343.627951,57.1604278 L328.469371,47.6890701 L329.835542,43.4294768 L332.86487,47.9331481 L335.860694,43.2016125 C337.322056,40.8931155 339.281708,39.770244 341.851123,39.770244 C348.782088,39.770244 357.246905,47.4359896 358.750908,53.3775212 L359.233968,55.2857326 L362.61327,56.4597975 C372.680705,59.9396489 381.336164,62.6719144 389.096131,65.0758446 L399.020684,68.1432619 C418.78811,74.2888602 429.237054,78.1197356 436.139778,87.8453503 C443.704008,98.5025888 447.606521,116.945063 453.875325,153.221618 L454.262137,155.465001 C461.049009,194.528417 465.686228,234.629933 470.089044,273.574172 L471.801776,288.728772 C477.250062,336.817726 483.1199,386.237026 493.15668,434.266742 C492.411683,435.033195 491.846996,435.795992 491.462011,436.553915 C488.311461,436.832551 485.125175,437.093587 481.965782,437.345686 L472.986739,438.055612 C466.553489,438.567851 459.997497,439.114647 453.564655,439.789101 L451.820035,439.97188 L451.433222,440.573832 C450.954832,440.614043 450.481045,440.658858 450.012402,440.705026 L449.313363,440.774888 C448.204701,440.886384 447.135634,440.993614 446.090933,441.05454 L445.774782,440.422125 L443.238261,440.706651 C380.094479,447.805173 317.357613,451.404089 256.770454,451.404089 C206.651014,451.404089 156.80082,448.94023 108.551486,444.08014 L108.530166,443.984485 L105.96806,443.67498 C100.13528,442.947764 94.1984069,442.343765 88.3664063,441.776575 L79.9315295,440.962771 C62.1982394,439.239875 44.0270111,437.237465 26.9966056,432.025264 L23.7565106,431.033384 L23.4391409,431.845532 C22.9621725,431.598171 22.4614472,431.341671 21.9290458,431.095529 L22.126472,427.91932 C25.030716,381.885492 29.7258388,336.818403 33.9750845,298.530892 L34.1535669,296.927312 L33.0893733,295.715489 C26.9436092,288.715667 24.6793803,282.850294 26.1754648,277.795239 C38.4310528,252.210463 41.0290986,219.569813 43.5418627,187.999639 L43.8546912,184.078494 C48.9272519,120.771423 55.2393151,61.9236021 136.110788,58.1868921 L138.771662,58.0828584 L142.800261,57.8046018 C159.534931,56.6348071 176.670523,55.0708778 192.074546,47.4024801 L193.98181,46.4538578 L194.095113,44.3263118 C194.217818,42.0379469 196.741768,39.3633399 199.086771,37.072113 L200.668431,35.5389221 C201.270722,34.9520936 201.842954,34.3821841 202.372919,33.811653 L202.528254,33.6441057 L202.661658,33.459499 C206.492025,28.1357599 210.990634,24.958454 214.695514,24.958454 Z" id="ðŸ‘•-Top" fill="#FFFFFF"></path>
                        <path d="M148.964103,198.453371 C149.107864,198.201746 149.589096,198.290089 149.55011,198.612389 C147.456445,212.514549 142.37792,225.984742 139.287068,239.710217 L139.380956,239.971606 C140.958283,244.485676 144.584231,260.768986 135.716811,256.241346 L135.007906,259.953298 C123.473365,320.595045 114.163387,381.88394 115.4618,443.79074 C115.652466,448.717849 113.073913,463.31396 106.107617,456.16426 C100.990716,447.579136 103.24398,437.052902 102.840719,427.521593 C103.720339,375.198097 109.048617,322.47005 122.730846,271.85188 L123.296379,270.101429 C132.347329,242.271255 132.31317,251.185135 128.060343,220.11023 C127.957395,217.243038 125.88505,211.011498 128.613455,209.289721 C131.071571,210.841581 131.886787,215.397901 132.777674,218.098215 L132.838554,218.279395 C134.161638,222.140294 135.341571,226.034093 136.51054,229.943733 C140.39573,219.44857 143.518258,208.264941 148.964103,198.453371 Z M293.575656,438.38542 C298.599966,436.900647 303.12355,442.618579 301.368575,447.301373 C300.232501,452.185225 290.741867,455.215089 290.380638,448.405967 C287.785029,445.630165 288.627491,440.525761 292.172772,438.984326 C292.136832,438.977624 293.247931,438.530425 293.575656,438.38542 Z M415.299857,161.402267 C415.486868,160.756449 416.022924,161.344997 415.878554,161.75564 C416.999399,167.435798 416.088104,173.683179 416.345167,179.58389 C417.062751,177.893795 417.992322,176.278639 419.200276,174.76523 C420.247413,173.454706 422.147368,175.326971 421.058199,176.622873 C418.353551,179.841609 417.170572,183.722004 416.655227,187.754715 C420.623871,271.960938 432.309899,356.01972 452.357188,437.916836 C456.70229,449.211961 439.177512,453.786916 441.100614,441.487726 C427.838093,384.047031 417.263163,325.393902 414.898424,266.345971 C411.70828,240.43463 412.964966,213.437583 413.402339,187.18871 C413.420005,178.637096 414.246628,169.874677 415.299857,161.402267 Z M236.841037,-10.3571644 C241.765445,-9.96662688 244.619945,-1.79031898 245.601903,2.69507436 C249.202009,20.2759641 239.523146,38.573347 226.784498,50.1030378 C245.593375,67.0515127 266.01834,82.1563581 288.06122,94.6633066 C291.059481,91.266666 296.356083,91.7546856 300.046343,93.8030274 C311.981516,82.5109491 324.072632,71.4589204 335.692262,59.851244 C317.628102,48.4229772 316.119062,24.8931005 319.735179,5.74867496 L319.846315,5.1699002 C320.119826,3.5267182 322.40903,4.12318656 322.53878,5.53484866 L322.619984,6.44404423 C323.704151,18.8946042 323.801065,32.336642 330.723995,43.2159302 C338.600368,30.7741729 357.476252,43.5065486 360.24547,54.4501285 C439.408808,82.0156184 440.149541,65.7690144 455.816396,156.814823 C471.655643,249.892523 476.136586,344.56771 494.690227,437.220753 C494.919269,439.847895 492.533819,441.997374 490.158724,442.354402 C481.082924,443.562571 480.800886,419.034256 478.709048,412.184314 C474.243333,386.611723 470.871051,360.860618 467.964164,335.068083 C459.040044,258.667127 455.985132,181.106134 438.705234,105.953557 C436.967315,99.6306269 434.492319,93.3753249 430.117368,88.3878989 C411.883533,68.5429883 380.257428,72.8815492 360.495224,55.1958663 C362.409188,61.0898754 362.563305,67.6047234 362.186847,73.7613249 C360.024347,106.571959 358.719537,139.444738 356.396829,172.243796 C356.127583,175.92679 351.669787,177.137395 349.582822,174.089253 C333.045484,149.94843 316.0726,126.172555 299.952533,101.739286 C297.355097,102.971215 294.584051,103.532956 291.609548,102.94258 C286.892861,108.898734 288.930484,124.478804 287.390541,132.647801 L286.819152,138.89788 C278.012305,235.7793 271.548229,332.902416 272.027446,430.232885 L272.045319,433.372649 C272.041055,436.358646 272.270097,439.45492 272.047146,442.431779 C270.03328,452.105655 260.511579,448.643823 261.045808,440.016052 C260.621836,330.96287 265.127146,221.200506 283.118537,113.508417 C266.876639,133.983305 250.653625,154.473425 234.404417,174.944049 C233.188777,176.488466 230.877891,175.809318 229.913184,174.379719 L229.852202,174.285436 L230.251808,175.357738 C229.274724,175.044577 228.421298,174.449937 227.535586,173.936937 C219.36621,153.873911 214.079354,132.83058 207.661298,112.188144 C202.304389,91.9472127 194.273291,72.0937723 191.314016,51.352636 L191.180002,51.2965838 L191.180002,51.2965838 C183.141593,55.3384338 174.235748,57.9326751 165.235484,58.0868187 C155.057114,60.7090861 144.351826,61.9458898 134.198431,63.2789569 C60.388956,66.4373757 45.7966497,139.735356 46.4715933,200.491051 L46.343428,203.391925 C45.5721114,221.459748 45.2082886,239.842339 40.729699,257.417528 C39.0764525,260.733137 33.8456391,282.061603 28.584368,274.485419 C24.1485018,280.415374 25.537375,283.868676 31.4492236,287.532174 C41.7750088,296.398168 51.8504313,310.514179 53.8374947,325.061549 C54.2072518,327.746571 50.3537377,330.105637 48.9837483,327.108673 L48.2998822,325.617792 C44.2989308,316.931053 40.0687659,308.434831 34.3548926,300.887217 C34.1020933,301.310045 33.7579208,301.665855 33.3461321,301.903467 C31.9730968,337.901765 29.1929137,373.834871 26.7069525,409.769805 C25.3476476,414.919673 27.9096538,447.60957 17.4915413,439.533088 L17.1718504,439.275797 C14.7923107,434.237216 16.2240535,428.145724 16.7104249,422.766302 L18.1745194,405.538474 L18.1745194,405.538474 C21.3366426,370.373648 23.9255511,335.139367 28.2944102,300.097612 L27.9514009,299.703532 C22.9269232,293.880977 18.2325786,286.192527 20.7067764,278.423694 C21.975037,273.751866 26.1800335,271.425701 29.024787,267.856029 C44.4589454,186.434747 17.7944067,60.3642433 136.472407,56.4052531 L141.440557,56.061355 C157.438557,54.9263309 173.914243,53.3093662 188.397382,46.1001807 C188.669674,41.0164912 194.47553,36.7090026 197.646181,33.2934749 C207.413371,19.7203164 220.524822,19.0397697 225.265875,36.7955179 C237.873555,23.2363725 242.96609,7.49241031 236.841037,-10.3571644 Z M289.97488,384.131474 C296.120644,378.206393 304.354592,388.999485 293.210711,396.623801 C291.188926,400.329947 285.662673,397.716209 286.602599,393.837032 L286.590933,393.184073 C286.508907,389.807979 286.176143,385.639803 289.97488,384.131474 Z M290.629356,305.058535 C301.84999,301.44256 299.053969,321.881502 291.651518,324.670098 C287.178494,326.89208 285.645251,321.330728 286.462127,317.937134 C283.556458,313.521806 286.217856,307.711875 290.629356,305.058535 Z M290.448437,246.324923 C288.378529,237.567378 300.945395,236.109412 301.017885,245.256885 C301.423582,249.103162 297.916068,251.606013 297.029747,254.950257 C296.842737,257.126544 294.172811,258.65945 292.464131,256.842019 C289.613286,253.807889 289.000476,249.6911 290.448437,246.324923 Z M288.870421,168.508649 C290.150865,158.257191 301.751612,162.578693 297.655045,164.286457 C297.5722,164.375409 297.486309,164.462534 297.395545,164.550877 C302.080555,165.005996 301.752221,170.508859 301.230784,174.02918 C299.392355,181.909995 287.482767,174.74019 288.870421,168.508649 Z M217.528389,135.900656 C218.481717,139.349083 219.441745,142.795684 220.424312,146.235582 C222.95535,155.098529 225.962748,163.725691 229.134009,172.338841 C225.253692,160.196232 221.386776,148.049357 217.528389,135.900656 Z M223.940354,38.2869935 C212.833632,19.6331918 206.840157,40.6631187 198.785301,48.9289883 C204.476026,89.6204377 221.697445,127.63174 233.418805,166.857912 C249.749639,145.980301 266.098139,125.116703 282.433238,104.242747 C283.410322,102.991321 284.351467,101.679578 285.326724,100.395861 C264.820741,88.5438702 245.486164,74.5314331 229.210762,57.146726 C226.080315,57.8163059 223.679636,53.6306699 221.432463,51.8887873 L221.196672,51.694859 C219.118128,49.9431342 217.19156,47.1793293 218.499991,44.4545616 C218.326382,44.0853483 218.590146,43.7453796 218.948938,43.6332753 C220.574164,41.8487443 222.298072,40.1281859 223.940354,38.2869935 Z M353.479586,77.374863 C354.563882,64.0612505 352.368488,44.9742629 334.46847,48.0114384 C337.656178,52.3786347 343.649653,53.0841611 346.806294,57.2771083 C347.961861,59.1968956 346.543748,61.5748487 344.443382,61.9391879 C330.549776,74.524122 317.415178,87.4155153 303.229787,99.8060946 C318.992889,120.21762 334.126125,141.016027 349.455509,161.742541 C350.51422,133.607999 352.375798,105.502703 353.479586,77.374863 Z" id="ðŸ–-Ink" fill="#000000"></path>
                    </g>
                    <g id="HEAD" transform="translate(226.605634, 109.667319)">
                        <path d="M174.706459,310.402346 C161.214181,310.480365 149.747325,306.643228 140.997648,300.295318 C130.07909,296.392989 116.908983,290.374081 108.909417,284.055416 C105.789221,284.85355 102.055685,281.531239 99.6679724,279.777781 C84.8207528,268.665435 73.1666731,252.399944 69.7133648,236.107036 C64.3823467,242.851576 56.7961317,243.131837 49.5290483,239.779673 C34.2958313,231.120828 34.8654053,212.888637 40.3496066,199.266737 C28.8201402,173.338337 20.8296918,104.890089 38.4293459,77.2655003 C42.0291508,73.1322609 47.3121472,70.6598721 51.1155885,66.4212303 C54.5002075,62.719349 57.7194859,58.9327802 61.6572664,56.0034442 C73.6724208,46.8376934 94.36674,41.9574977 107.324092,39.6624044 C161.413562,27.9414051 202.972404,49.0084971 251.967925,66.7788676 C249.148017,73.846317 245.247317,80.2917091 240.777042,86.3014781 C252.940517,90.8520626 247.353586,101.083414 237.917015,106.270069 L232.299082,103.53326 C241.056663,134.938325 261.211193,213.03486 252.515008,238.113948 C245.58043,277.24081 215.146821,310.684468 174.706459,310.402346" id="âœ‹-Skin" fill="#D08B5B"></path>
                        <path d="M251.767594,67.0590142 C248.947686,74.1264636 245.046986,80.5718557 240.576711,86.5816248 C252.740186,91.1322092 247.153255,101.363561 237.716684,106.550216 L233.655127,104.570589 C231.877538,93.0822903 228.455039,87.0856756 223.38763,86.5807447 C219.510552,86.1944217 213.43872,89.3807983 207.251218,92.8894874 L206.189759,93.4935278 C206.012789,93.5945253 205.835822,93.6956342 205.658906,93.7967789 L204.598412,94.4034684 C198.420291,97.9379124 192.423513,101.330328 188.687161,101.330328 C180.680691,101.330328 140.005045,83.9071659 117.661307,83.9071659 C95.31757,83.9071659 76.2966144,102.404862 68.7387663,115.811259 C63.7002009,124.748857 67.4495851,134.767725 79.986919,145.867865 C72.4881505,155.501592 68.7387663,162.425005 68.7387663,166.638102 C68.7387663,170.8512 69.6150253,179.558927 71.3675435,192.761285 C63.2931997,190.105618 56.9469393,188.777784 52.3287622,188.777784 C47.7105851,188.777784 43.702042,191.340926 40.3031329,196.467209 L40.3031329,196.467209 L38.8740505,196.469785 C28.0589102,168.565096 21.2863467,104.139024 38.2290149,77.5456469 C41.8288198,73.4124075 47.1118162,70.9400188 50.9152575,66.7013769 C54.2998765,62.9994956 57.5191549,59.2129268 61.4569354,56.2835908 C73.4720897,47.11784 94.166409,42.2376443 107.123761,39.942551 C161.213231,28.2215517 202.772073,49.2886437 251.767594,67.0590142 Z" id="ðŸ’ˆ-Hair" fill="#ECDCBF"></path>
                        <path d="M182.521917,313.769864 C165.00316,315.572264 144.19085,311.421168 132.511965,297.157416 C132.162726,296.730492 132.009829,296.247102 132.000712,295.780295 C131.990573,295.261211 132.164389,294.759734 132.464758,294.369563 C132.780442,293.9595 133.22986,293.673616 133.74507,293.580874 C134.178858,293.502789 134.673414,293.553027 135.183293,293.839703 L136.256968,294.43892 C144.233108,298.854398 152.516681,302.619904 161.555866,304.23146 C170.862875,305.890497 180.339655,305.704947 189.563772,303.597872 C206.365715,299.760937 219.963653,289.972898 229.972451,277.066631 C241.141594,262.664109 247.848492,244.381309 249.558101,226.097458 C251.629728,203.939362 246.824136,181.916271 241.85222,160.461631 C236.6279,137.918308 230.917462,115.48994 224.283956,93.3218997 C224.084024,92.6545858 224.0303,92.0299645 224.088027,91.4546975 C222.131492,90.6864226 220.049092,90.8997045 217.976587,91.6010451 C214.189768,92.8825131 210.417327,95.7722452 207.27116,98.1576093 C206.131694,99.021531 205.071622,99.8245516 204.119051,100.477909 C200.217814,103.15353 195.952907,105.078718 191.184614,105.381531 C186.224816,105.695673 181.362417,104.150734 176.858016,102.217301 C174.569645,101.234975 172.318004,100.216076 170.075378,99.2011745 C163.689724,96.3113419 157.379442,93.4500026 150.483548,91.5904191 C141.243551,89.0980457 131.703694,87.8704404 122.134348,87.9583785 C105.055917,88.1149344 87.925097,92.5210072 77.4578676,106.998232 C73.2179056,112.862766 70.4535477,119.603113 72.6094468,126.840883 C73.7822501,130.778153 75.995592,134.35245 78.4112632,137.63986 L79.2400846,138.759383 C80.565216,140.563917 81.7161947,142.361191 82.0632495,144.274689 C82.353983,145.877658 82.1272108,147.573474 80.9851282,149.432114 C80.2665039,150.602152 79.3516696,151.651361 78.4317947,152.697153 C77.7682862,153.451487 77.1028762,154.204428 76.5303835,155.015188 C75.3766678,156.649658 74.3551631,158.410057 73.5540083,160.24605 C71.9851825,163.839988 71.3197139,167.706065 71.1805267,171.605206 C71.0120113,176.309256 71.6719399,180.911014 72.3264554,185.51936 C72.7905501,188.786981 73.2536442,192.057881 73.4406415,195.368399 C73.4732729,195.946091 73.2970701,196.376492 73.0502337,196.695031 C72.7481852,197.084819 72.3074334,197.330502 71.805838,197.398561 C71.6535604,197.419223 71.4958814,197.422513 71.3375211,197.408464 C71.4153254,197.726917 71.4840188,198.046846 71.5436467,198.367862 C71.2265939,197.959343 70.8892856,197.562914 70.5332632,197.179715 C70.5105321,197.168241 70.4879811,197.15635 70.465628,197.144045 C70.0985419,196.941961 69.787621,196.633948 69.5916495,196.237388 C69.0874646,195.767791 68.5536572,195.32234 67.9936474,194.903562 C65.0795017,192.724354 61.6766267,191.432572 58.2630807,191.389742 C54.9723321,191.348454 51.6735197,192.47154 49.1371086,194.84349 C44.0958058,199.55747 42.6191045,207.252791 42.5664087,213.86009 C42.5130025,220.604693 44.070354,228.699106 49.9375092,232.88672 C52.2910431,234.566375 55.1654235,235.575618 58.0610925,235.604821 C60.4615803,235.62897 62.7584235,234.777767 65.0199334,233.966851 C65.7173398,233.71678 66.4114328,233.468079 67.1038117,233.24213 C67.8905045,232.98556 68.6074255,233.00187 69.2323226,233.189463 C69.9366755,233.400908 70.5344584,233.837552 70.9810552,234.419938 C71.4259242,235.00007 71.7175137,235.726336 71.807889,236.4869 C71.8953872,237.223251 71.7946898,237.987876 71.4836215,238.677192 C71.4055331,238.850829 71.3231593,239.019372 71.2374269,239.183961 L72.5279211,241.31064 C77.4690726,249.432941 82.4966763,257.407005 89.0894652,264.388258 C92.8736311,268.395352 96.8847585,272.176826 101.284575,275.486945 L101.919162,275.959142 C102.298885,276.238527 102.720065,276.582975 103.169263,276.951282 C104.452553,278.003476 105.990658,279.41461 107.426641,279.470172 C107.852779,279.4868 108.224743,279.433374 108.563118,279.388862 C109.380818,279.281294 110.066834,279.249811 110.7409,279.525421 C111.283083,279.747107 111.845742,280.161074 112.423551,281.016038 C112.814405,281.594698 113.015004,282.320458 113.015004,283.056828 C113.015004,283.796571 112.811995,284.536624 112.450686,285.121545 C111.703257,286.332401 110.798876,287.082276 109.817755,287.50813 C108.723882,287.982924 107.515002,288.055443 106.258437,287.820546 C103.162948,287.241886 99.7361301,284.671987 97.5555237,282.994837 L97.1337233,282.671044 C92.3018836,278.976973 87.7226026,274.889623 83.69711,270.318465 C76.8414261,262.534243 70.6843879,253.361171 67.5218285,243.338338 C65.2927665,244.805959 62.5387837,245.502606 59.659465,245.612328 C55.4644995,245.772186 51.0245358,244.690444 47.7528231,243.135314 C40.5423771,239.708212 36.1628779,233.226183 34.1104233,225.77197 C31.7269386,217.115505 32.5016049,207.163335 35.5189861,199.38706 C35.606446,199.161008 35.6978137,198.935818 35.791586,198.707127 C26.5022315,175.118202 23.6459251,148.92434 24.4415943,123.750622 C24.8137833,111.967281 25.6143553,99.6045465 28.3879245,88.1124285 C29.6310585,82.9616072 31.7909127,78.0563717 35.2396786,74.0012622 C37.205921,71.6888561 39.618468,69.888635 42.0420714,68.0933506 C44.1411929,66.5384262 46.2483522,64.9869158 48.021431,63.0454633 L48.8598393,62.1236032 C49.0415831,61.9231139 49.2228452,61.7228715 49.4038023,61.5229661 C52.465638,58.1405223 55.4465718,54.8583656 59.1621825,52.0843706 C63.4712795,48.8681014 68.2264417,46.3506585 73.167439,44.2598854 C83.8118067,39.7573707 95.2682464,37.0576316 106.601512,34.9689855 C131.120576,30.451218 156.290151,30.2282938 180.508598,36.578744 C191.768551,39.5309028 202.696346,43.571848 213.605491,47.6079637 C214.618378,47.982707 215.631108,48.3573925 216.643973,48.7311487 C225.121726,51.8598286 233.604012,54.9751612 242.086382,58.0905252 C246.028483,59.5383609 249.970602,60.9862034 253.912434,62.4354471 C254.767672,62.750002 255.604996,63.4275789 256.08187,64.269408 C256.547131,65.0907354 256.685773,66.0485774 256.310087,67.0023752 C253.891444,73.1444563 250.839709,78.9068956 247.125047,84.2880758 C248.415909,85.1681516 249.514423,86.3384621 250.345371,87.7082985 C251.396341,89.4408458 252.018942,91.4919342 252.061246,93.66787 C252.202827,100.955333 245.586228,105.895417 240.096786,109.468371 C239.585125,109.80173 239.078591,109.998488 238.58916,110.08877 C243.908142,130.473022 248.999904,150.92629 253.326339,171.541606 L253.623909,172.970606 C258.080835,194.545832 260.956393,216.563537 256.74127,238.425302 C253.112024,257.250725 244.680407,275.419301 231.50522,289.443506 C218.593495,303.188123 201.267803,311.840851 182.521917,313.769864 Z M67.1667382,189.656078 C64.8728254,182.359871 63.657204,174.421273 64.5348828,167.025199 C65.0873229,162.376085 66.4819201,157.900381 68.7526248,153.802611 C70.0532031,151.455702 71.638278,149.283033 73.3681698,147.236708 L73.9648947,146.549437 C74.2670009,146.198403 74.5674988,145.875766 74.6606225,145.471333 C74.7147398,145.236304 74.6596488,144.979274 74.5171316,144.672165 C74.2013338,143.991995 73.6144482,143.336468 73.0650339,142.696609 C72.715851,142.289943 72.3748023,141.890823 72.088462,141.502508 C67.0609471,134.681373 63.311657,126.560576 64.5303897,117.910631 C65.7192881,109.471328 71.2375623,101.604744 77.1122785,95.6763382 C90.0480733,82.6221782 110.103249,79.6224143 127.672256,80.3424406 C137.899586,80.7612415 148.110274,82.5678548 157.849769,85.7236621 C162.652477,87.2802073 167.348394,89.1757788 171.911793,91.3483877 L172.922205,91.8346182 C173.467461,92.099394 174.01217,92.3671203 174.557251,92.6350346 C178.124255,94.3882627 181.70476,96.1586153 185.576892,97.1118112 C193.138773,98.9728861 198.26837,95.0531101 203.659963,91.1000083 C205.507736,89.7452254 207.383744,88.3717015 209.377776,87.1663249 L209.78817,86.923114 C213.38544,84.8330119 217.688076,83.4264914 221.821362,83.4895725 C225.411619,83.5443661 228.875532,84.6933466 231.695655,87.4085797 C232.274403,87.966491 232.607666,88.5751453 232.764055,89.1809062 C233.076052,89.6193368 233.327936,90.1421498 233.491994,90.7597945 C234.502207,94.559012 235.507891,98.3609534 236.510218,102.164051 L237.329811,101.634729 C239.757609,100.054211 242.397189,98.2479754 243.589226,95.603783 C244.047994,94.5860523 243.983016,92.890516 243.404809,91.6439203 C243.20278,91.2083538 242.935582,90.8210902 242.566293,90.5793629 C242.29762,90.4034958 241.973769,90.3209488 241.597447,90.3513286 C240.682453,90.4694035 239.842376,90.3352658 239.129948,90.0334941 C238.308449,89.6855217 237.653268,89.1128887 237.228152,88.4228336 C236.79286,87.7162605 236.594466,86.885517 236.700866,86.0239787 C236.79235,85.2832189 237.110403,84.5096288 237.739649,83.7827475 C241.881558,78.9977961 245.369597,73.7195298 248.020445,67.9903025 L230.485487,61.4879221 C224.233348,59.1706269 217.980146,56.8563011 211.72397,54.5508888 L208.298877,53.2894755 C196.922979,49.1074043 185.48162,45.0203829 173.651236,42.327904 C150.140269,36.9774252 125.623412,38.2349379 102.177468,43.2713587 L100.761124,43.5781259 C90.9225067,45.7283689 80.9516007,48.3299847 71.9209971,52.8521793 C67.4884483,55.0717478 63.2750516,57.7707534 59.6567092,61.1807662 C58.0587909,62.6866345 56.6140517,64.3353968 55.168862,65.9819215 C53.1435412,68.2893978 51.1158128,70.5906668 48.7078106,72.5344381 L46.4725369,74.328397 C43.1472542,77.013937 40.1479836,79.6304777 38.2716914,83.7954378 C36.3097813,88.1496657 35.3733617,92.9601299 34.6092898,97.6468473 C32.6823989,109.453384 31.921823,121.448982 31.9943527,133.408071 C32.1170363,153.488271 35.1607814,173.159431 39.0060289,192.761285 C42.0911238,188.336011 46.4248357,184.905362 51.9871436,184.173825 C55.6134869,183.697064 59.2087048,184.374651 62.3262189,185.981785 C64.1280626,186.910668 65.7702337,188.149991 67.1667382,189.656078 L67.1667382,189.656078 Z M61.3390409,213.499931 C57.2772246,211.922703 53.0125323,211.40622 48.7152143,212.160408 C48.2649908,212.239003 47.8356193,212.145065 47.4747231,211.934891 C47.1088581,211.721823 46.8205151,211.384801 46.6639625,211.01268 C46.4829984,210.582532 46.4737759,210.116953 46.6334834,209.703416 C46.7720298,209.344672 47.036072,208.996258 47.5216527,208.763551 C52.1748916,206.53796 57.3468949,205.555791 62.4803729,206.254616 L62.9877117,206.326815 C65.6121453,206.716941 69.3026227,207.537954 72.0701625,209.154056 C74.2444837,210.423749 75.8359548,212.17404 76.2318498,214.460592 C76.4383443,215.652007 76.143252,216.895917 75.4580178,217.797617 C74.7955541,218.669352 73.7828544,219.250487 72.4719515,219.213145 C70.1596739,219.147208 68.7905904,218.16779 67.1433818,216.899257 C66.9435459,216.745361 66.7386275,216.587513 66.5256073,216.427716 C64.9339494,215.234123 63.1947067,214.220346 61.3390409,213.499931 Z" id="ðŸ–-Ink" fill="#000000"></path>
                    </g>
                    <g id="FACE" transform="translate(323.461268, 222.990215)" fill="#000000">
                        <path d="M104.190924,146.319886 C99.7035093,147.619828 94.8868014,147.736058 90.3126433,146.393554 C86.1638073,145.17576 81.9038819,142.495867 78.8504306,138.949722 C76.137911,135.79952 74.3811639,131.971246 74.4501635,127.884838 C74.4580124,127.418137 74.6248589,127.028583 74.88152,126.726213 C75.1578263,126.400698 75.5437438,126.177176 75.9571618,126.080159 C76.3823332,125.980383 76.8318054,126.015756 77.2145374,126.189638 C77.5610138,126.347049 77.8578603,126.614414 78.0434783,127.005189 C78.5127393,127.62174 78.9801777,128.229159 79.4494508,128.819732 C83.2225345,133.479558 86.8764717,136.961947 92.5500787,138.210982 C95.6284104,138.888808 98.7028703,138.588236 101.523797,137.554069 C104.543463,136.447043 107.273148,134.50063 109.4122,132.009853 C110.378876,130.884201 111.520146,130.424749 112.636113,130.417026 C113.900746,130.408275 115.150724,130.996015 116.092405,131.9354 C117.018041,132.858779 117.637828,134.113561 117.694001,135.426158 C117.743303,136.578176 117.367557,137.78154 116.367934,138.855127 C113.075319,142.391588 108.808065,144.982364 104.190924,146.319886 Z M104.052375,87.9575488 C108.652335,90.7540933 115.66126,97.2750893 110.712762,104.208064 C104.887907,110.321096 96.5014313,103.312087 92.3687212,100.142185 C88.5366787,97.6854931 84.2311643,104.00392 87.7865355,106.872522 C117.649585,128.985863 129.768644,88.6888062 106.37897,84.6694982 C103.803683,84.2265877 102.847215,87.0924072 104.052375,87.9575488 Z M61.0220694,75.6522245 C59.543612,74.7065508 57.8044695,74.3819474 55.8769946,75.2590122 C54.3707499,75.9440919 51.7289665,78.227947 49.8904605,81.2302138 C48.6326762,83.2841663 47.7407639,85.6937212 47.9264479,88.2035648 C47.9695709,88.7864475 47.7542289,89.2162246 47.4145675,89.5339978 C47.1463107,89.7849679 46.7588223,89.9694077 46.3036935,90.0270649 C45.9172911,90.0760156 45.4847861,90.0318559 45.1331144,89.9220761 C44.4641425,89.7132461 44.1100907,89.2792283 43.9766907,88.9248928 C42.6894187,85.505654 43.243989,81.6899937 44.6866964,78.2475979 C46.6337171,73.6018767 50.1695603,69.7105065 52.4861377,68.4558798 C56.4502856,66.3081965 61.1268667,66.2093504 65.096689,68.3973007 C68.4759993,70.2594966 70.5890057,73.2659417 72.6905406,76.3305255 C73.1372789,76.9819863 73.5806714,77.6286703 74.0389272,78.2639791 C74.9573184,79.5370001 75.0487315,80.7995659 74.6930739,81.8822248 C74.2990697,83.081615 73.2944412,84.0938208 72.0381741,84.6235421 C70.877045,85.1131472 69.5294045,85.1820676 68.3368997,84.6790083 C67.3295175,84.2540431 66.4050145,83.4256235 65.8200332,82.0200059 C64.8348083,79.6527744 63.1933294,77.0410391 61.0220694,75.6522245 L61.0220694,75.6522245 Z M136.110049,80.9188653 C135.097505,81.4465477 134.305349,81.6056467 133.182138,81.2690638 C132.561004,81.0824631 131.947114,80.7248332 131.466491,80.2441253 C130.990168,79.7677173 130.646501,79.1752664 130.512917,78.5180247 C130.184372,76.8959684 129.29704,75.3776187 128.032554,74.3878034 C126.951776,73.5417905 125.58759,73.0933836 124.074449,73.3463573 C122.441655,73.618974 120.886021,74.6663442 119.814603,75.9011698 C119.456504,76.314365 119.175804,76.7836376 118.893605,77.2497426 C118.365707,78.1214108 117.852609,78.9316478 117.124559,79.5717892 C116.84858,79.8153438 116.43272,79.984031 116.029943,79.984031 C115.866244,79.984031 115.700112,79.9573891 115.541804,79.9080418 C113.916649,78.2766207 113.604119,77.0390206 113.656514,75.8114856 C113.711458,74.5242339 114.21887,73.2209043 115.038851,72.0048593 C116.962325,69.1523168 120.614358,66.8134977 123.078778,66.2837443 C126.453785,65.5583363 129.80557,66.4291404 132.492877,68.3144944 C135.257958,70.2544131 137.306876,73.2663199 137.945668,76.6605902 C138.09934,77.4780715 138.034038,78.3604501 137.722765,79.1255105 C137.418604,79.87309 136.888553,80.5133776 136.110049,80.9188653 Z M68.4655161,45.2393828 C66.4401044,47.2130874 64.0428523,47.5188078 61.6176386,47.7907259 C60.2701295,47.9432327 59.1944143,48.0661746 58.1358638,48.3050684 C55.22633,48.961956 52.3503542,49.9512995 49.7264973,51.3761443 C46.9836774,52.8656519 43.9946268,54.6619943 41.8442287,56.9632473 C41.3328884,57.5108628 40.8508689,58.0854694 40.368176,58.6613339 C39.9280273,59.1864505 39.504027,59.691983 39.0571723,60.1794185 C38.5439909,60.7393009 38.0566691,61.326096 37.571938,61.911358 C37.2722036,62.4052002 37.2129947,62.5266605 37.1526347,62.653101 C37.0618037,62.8430956 36.9561476,63.0557221 36.8354735,63.2838277 C36.6702062,63.5962257 36.4766253,63.9381978 36.2738844,64.2482464 C35.9365698,64.8149609 35.7555732,64.9710622 35.5991725,65.0408846 C35.3396507,65.1564868 35.0935307,65.2134344 34.8547546,65.182596 C34.6308688,65.1536807 34.4199439,65.0461317 34.2116527,64.8700713 C33.1717913,63.9913416 32.8651103,62.5492354 32.8965433,61.018436 C32.9442427,58.6954633 33.8008917,56.1235092 34.5905924,54.5424655 C36.4268035,50.868794 38.9733804,47.0497758 42.035488,44.3079347 C45.5296296,41.1781729 49.3523367,38.8087827 53.7431087,37.1761114 C56.4717163,36.1611405 59.6309647,35.2294968 62.6036782,35.3471765 C64.7434352,35.4318823 66.7861382,36.0680554 68.473088,37.6567448 C69.5089739,38.6319961 70.0062269,40.0191911 70.0062269,41.4054037 C70.0062269,42.8192286 69.4897736,44.2414022 68.4655161,45.2393828 Z M140.229282,63.3131251 C140.100477,63.5242685 139.922198,63.6697747 139.723827,63.7571645 C139.515874,63.8487754 139.283719,63.8751619 139.060933,63.8376163 C138.839133,63.800237 138.628299,63.6996762 138.461057,63.5459927 C138.300759,63.3986898 138.178695,63.2033327 138.124116,62.9640037 C136.779401,57.0568802 134.168301,52.6618923 128.595231,49.8277428 C125.853755,48.4335279 122.701317,47.547697 119.717025,46.8414308 C118.849805,46.6361723 117.933456,46.5031792 117.010637,46.3684136 C114.118454,45.9460485 111.205403,45.4623404 109.319945,43.124131 C108.183863,41.7156779 107.707065,39.9144182 107.976645,38.267089 C108.230469,36.7160385 109.136665,35.293835 110.78398,34.441554 C114.885107,32.3207392 119.981557,34.4018136 124.123034,36.1746032 C124.430246,36.3061076 124.731817,36.4352002 125.026889,36.5597599 C129.076931,38.2696125 132.770783,40.5265794 135.807198,43.7542975 C138.216449,46.3149603 140.448654,50.1004331 141.34767,53.9946375 C142.095618,57.234475 141.919751,60.5419038 140.229282,63.3131251 Z" id="ðŸ–-Ink"></path>
                    </g>
                    <g id="FACIAL-HAIR" transform="translate(301.531650, 315.597966)">
                        <path d="M-7.04877817,-9.89720175 C-2.74341097,-9.89720175 -0.980043864,0.128069599 -0.980043864,0.128069599 C9.97002933,19.0126724 20.5103893,37.8440787 39.3167995,50.8367451 C60.1935382,59.2040408 80.7278706,73.454611 104.515399,75.0171406 C115.239218,73.8909424 118.384533,64.0737995 131.62849,67.5281417 C140.078088,69.5814658 149.565627,73.6311468 157.377317,67.7816771 C163.980869,63.4646884 168.626472,56.9247259 174.322078,51.6374163 C174.612218,50.6833718 176.503829,60.7509201 175.932259,64.1539292 L175.490762,66.0862119 C171.964173,81.6664711 168.39779,100.000736 152.617131,108.565201 C147.80937,111.098678 141.064433,113.54326 135.729326,112.115324 C107.53943,116.611352 76.9614003,113.321652 52.2639155,99.2570073 C43.5690714,96.9977248 37.101544,90.0627478 30.2547564,84.8242673 C13.5083366,70.1536421 -5.68304229,51.5694021 -7.47146236,29.2820712 C-9.25988243,6.99474041 -8.46344529,-9.89720175 -7.04877817,-9.89720175 Z M78.1267962,34.110093 C87.722067,18.6996039 106.784734,21.2022787 121.618171,28.2233097 C129.812179,22.6589113 140.623261,23.6832128 149.513549,27.6033868 L149.51221,27.6083561 C157.701531,32.0894423 163.903777,39.4471449 169.605237,46.4843262 C170.99244,48.3540337 171.544108,50.866026 169.593186,51.7878353 C160.402962,59.3635668 141.309458,54.9175143 132.644792,49.2847877 C126.393003,48.7810227 127.763509,39.9037014 120.547641,46.1165964 C115.732599,50.6436488 109.683668,53.4506947 103.113197,55.1141753 C88.4223638,60.1586584 74.8964598,59.3207064 62.1023192,51.4573753 C60.4566887,51.2977359 53.714826,47.4837811 56.1102962,46.126535 C58.7159893,46.8303153 73.1517434,38.5433495 78.1267962,34.110093 Z" id="ðŸŽ¨-Background" fill="#E8E1E1"></path>
                        <path d="M-9.29214575,6.67046715 C-9.19418336,5.85990059 -7.93610472,5.81974869 -7.90792376,6.67046715 C-7.32484624,24.5010494 -1.51956816,44.0493803 8.29881304,59.315887 C31.8943296,97.8504221 80.0549219,117.154077 126.407907,110.521485 C160.282765,110.062247 163.901401,90.86443 172.32147,64.0573877 C176.691532,60.4688113 178.838636,61.7544541 177.481257,65.9612033 C167.043716,98.3089251 163.469843,116.86206 122.172711,116.509765 C55.8622374,125.976204 -16.0488668,71.7491751 -9.29214575,6.67046715 Z M84.3895061,21.048581 C95.2082923,16.2180005 108.081687,16.8996316 117.118065,23.5793646 L117.755245,23.7245338 C119.33774,24.0783523 120.856243,24.3476296 122.63533,24.1665869 C146.547287,11.5762375 162.510995,33.533822 174.770763,49.9741598 C175.695572,50.0056294 176.448996,50.7313179 176.198974,51.581626 L176.591481,52.0014302 C175.046996,56.1440856 172.256439,60.1432398 168.44093,62.655771 C155.930469,79.3163959 146.588285,74.1081805 130.2892,67.2484415 C113.529053,64.7390572 112.850905,84.4988063 89.4692344,75.4468964 L88.5870416,75.159498 C80.8954202,72.618414 72.0651921,68.7644361 66.4726768,63.1951596 C66.2898657,63.0126361 66.4686442,62.6608062 66.7482376,62.752068 C79.7231191,66.6643661 96.4059737,79.4384979 109.61273,70.8321972 C112.951048,68.5915632 115.949956,65.8713327 119.682125,64.1839338 C140.988352,57.0535565 148.476213,85.2131658 167.120254,55.9779262 C151.93887,58.6238885 134.827216,55.9930316 123.479487,45.6546453 C106.515695,66.0891022 73.4988053,62.8150071 52.5064485,50.1226962 C49.6352393,50.5362065 45.3868981,47.6957623 48.0309377,44.991896 C50.922982,42.6927285 55.4986356,43.5940172 59.0540421,42.3471925 C70.4031148,38.309016 73.0827757,25.4379579 84.3895061,21.048581 Z M122.316223,29.5935909 C110.325688,21.0627557 92.3929599,19.6262683 80.9177068,29.6898601 C73.751468,36.8886567 69.1025159,47.2190338 57.5500042,49.1230246 C77.3900121,60.5450817 105.897091,60.7369909 121.174139,42.5635057 C121.653814,40.9923672 124.140197,41.6700269 124.440498,43.0354135 C135.378972,50.6689946 149.370168,54.7255144 162.995226,52.3848515 C165.191385,52.0243139 167.36,51.5115074 169.474871,50.8527241 L167.463954,48.0884054 C156.771825,33.4561469 143.016394,16.4171817 122.62257,28.4515739 C122.161034,28.685011 121.966879,28.0878903 121.909103,27.7814648 L121.658517,27.964565 C121.839235,28.3427205 123.342082,29.587928 122.316223,29.5935909 Z M171.415764,55.0016855 C171.515708,55.0913873 171.598104,55.1893768 171.668294,55.2912664 C172.003983,55.1167378 172.351879,54.9392842 172.709693,54.7691432 L172.612801,54.6979667 C172.228285,54.807169 171.827746,54.9080835 171.415764,55.0016855 Z M-7.74818894,-15.4556595 L-7.75274699,-16.0404599 C-7.75220263,-21.925671 -6.17094152,-14.5058558 -5.46088395,-13.0461661 C-2.40801282,-7.54915606 0.144321645,-2.1092758 3.37835217,3.24961837 C16.3460094,26.5836599 18.3541948,36.6975054 44.4840878,49.9898983 C46.4251771,51.6523107 44.3861276,54.6362404 41.9746949,54.0228805 C38.3676102,53.1056659 34.9658395,50.8072929 31.8237306,48.9534018 C14.0305241,39.7749772 7.39338093,21.0514931 -0.589709349,4.75508091 C-2.934046,-1.7068565 -8.34198915,-8.60071976 -7.74818894,-15.4556595 Z" id="ðŸ–-Ink" fill="#000000"></path>
                    </g>
                    <g id="ACCESORIES" transform="translate(255.235915, 256.499674)" fill="#000000">
                        <path d="M237.016152,38.5556175 C231.208469,77.8463716 190.666772,82.1916344 183.463515,43.1854061 C184.619691,42.6791087 185.451188,41.6823546 185.277579,39.7473357 C185.236765,31.2468999 187.875015,22.2627095 195.541839,17.5354387 C203.464508,12.6576801 212.736455,12.1739254 221.904846,12.2969965 C239.400994,11.8802607 239.033064,26.5068347 237.016152,38.5556175 M177.11673,21.4676214 C171.625807,21.2361015 164.679005,21.4298471 159.760079,24.7759189 C158.407755,21.1337453 154.894149,17.2448204 151.343994,15.1654061 C164.539508,15.5516788 178.122445,14.2527303 191.416642,13.2444003 C188.234417,15.4139854 185.273924,18.6735418 183.349603,22.4418327 C181.56417,21.4895549 179.006938,21.5785072 177.11673,21.4676214 M152.913786,42.7211478 C137.687959,95.1396892 99.6821736,72.2923311 95.5387018,65.5745986 C88.0649799,54.457988 86.6590504,27.4347421 93.1690891,20.2094935 C102.487941,13.6757584 115.68041,15.3573239 126.689057,15.1970878 C146.91361,15.4700376 161.277483,21.5212365 152.913786,42.7211478 M254.994142,18.6120063 C250.857371,18.0709808 246.436733,17.9619228 242.590529,19.7836188 C241.406332,14.7492796 237.68866,10.5404916 233.490973,8.68833242 C232.982938,8.05104344 233.059082,7.7086377 231.3236,7.80429198 C220.666434,4.60078774 208.741008,6.29575708 198.499895,9.58090254 C182.325614,10.9432144 165.356385,12.0173448 149.046262,13.8944838 C133.767438,7.03174664 87.6586736,6.02585362 84.7932088,22.940819 C81.1888391,22.4016214 75.0503849,19.5642841 72.0216665,23.4129978 C49.8051771,19.6459254 26.8491736,24.8813213 4.53643768,27.2129704 C-1.07997077,28.2474988 -3.97284754,39.395791 2.40256796,39.2434753 C5.98683556,38.2704825 2.29231092,32.301534 7.11864542,31.8525072 C28.6467898,29.5007525 49.7040574,26.164429 71.4527158,25.7738915 C70.6961454,29.5299971 85.8373004,29.7743115 86.0608602,27.5809652 C86.0931454,27.5974153 86.1272581,27.608382 86.1601525,27.6230043 C82.4187229,41.5690317 85.7958778,61.6393696 92.5574975,70.287247 C102.031075,81.6110069 125.815529,84.8595966 136.361829,77.5740311 C149.966086,70.8495966 164.118582,37.0952144 160.143237,25.8811217 C167.358068,23.5939489 174.490663,24.2805881 181.978395,25.4454988 C180.264233,30.2885294 177.304959,42.2105855 181.562343,43.2445046 C180.780797,66.9143676 202.318688,81.6835092 222.173483,71.9736866 C239.358353,63.9052183 245.368276,38.3661367 243.265473,22.8646612 C245.404825,26.9991191 263.367586,22.4978849 254.994142,18.6120063" id="ðŸ–-Ink"></path>
                    </g>
                </g>
            </g>
        </g>
    </g>
</svg>