<?xml version="1.0" encoding="UTF-8"?>
<svg width="509px" height="719px" viewBox="0 0 509 719" version="1.1" xmlns="http://www.w3.org/2000/svg" xmlns:xlink="http://www.w3.org/1999/xlink">
    <title>peep-101 copy</title>
    <g id="Introduction" stroke="none" stroke-width="1" fill="none" fill-rule="evenodd">
        <g id="Group-4" transform="translate(-617.259259, -151.000000)">
            <g id="Group" transform="translate(515.259259, 0.000000)">
                <g id="peep-101-copy" transform="translate(364.814815, 492.500000) scale(-1, 1) translate(-364.814815, -492.500000) ">
                    <g id="BODY" transform="translate(94.415102, 410.577299)">
                        <path d="M472.431863,146.388378 C463.51638,104.134255 431.897918,71.3460277 389.37387,55.0122476 C381.199909,50.3872801 373.276409,30.5421912 362.291085,26.9078349 C360.530137,26.3252471 363.309639,30.9617115 362.291085,31.2386011 C358.658056,32.2262251 354.587346,32.3293555 350.576138,28.7627795 C343.40721,22.3885082 341.158124,3.76588241 336.79938,-4.65092762 C313.811551,-49.0408232 256.415891,-31.6723786 248.726519,17.3996403 C243.365007,20.8955838 235.78581,23.9752371 229.949668,26.7923634 C223.940002,29.6932506 218.653765,36.7195191 212.460554,39.2315559 C206.934637,41.4729304 197.829513,39.8851029 192.261336,41.8390832 C166.651029,50.8262314 144.959881,62.1664016 127.954189,85.1429671 C124.370911,89.9889358 120.331615,95.9464831 117.070762,100.841927 C100.259735,120.202028 88.583092,141.901584 77.8287623,165.182409 C47.740532,233.516222 39.5566053,309.176816 32.2140649,382.801871 C32.3810576,395.683975 23.8361697,431.404842 36.4743055,437.58085 C35.7189847,438.364096 35.9925958,439.937654 37.3940499,439.924161 C69.4393061,439.600325 101.410058,442.469226 132.95819,448.047038 C148.179574,450.7386 163.319389,454.429298 178.824019,455.035847 C211.009292,454.813531 243.078955,449.418199 275.221837,454.52375 C313.86281,454.52375 360.82344,453.397367 403.811038,451.744189 C443.987179,450.199131 484.378611,453.688659 524.057013,446.853857 C527.19776,446.356539 528.731524,442.524484 528.073187,439.778306 C523.417945,422.809063 521.132714,405.343786 518.520563,387.975531 C519.040809,376.835328 518.110146,365.205518 513.990565,354.829285 C503.227243,284.781842 489.425297,215.191238 472.431863,146.388378 Z" id="âœ‹-Skin" fill="#D08B5B"></path>
                        <path d="M362.291147,31.4954505 C363.309701,31.2185608 360.530198,26.5820964 362.291147,27.1646842 C373.27647,30.7990406 381.19997,50.6441295 389.373932,55.2690969 C431.89798,71.6028771 463.516441,104.391105 472.431924,146.645227 C489.425358,215.448088 503.227305,285.038691 513.990626,355.086134 C518.110208,365.462367 519.040871,377.092178 518.520624,388.23238 L518.930746,390.975456 C521.379891,407.437711 523.663019,423.95903 528.073249,440.035156 C528.731585,442.781333 527.197822,446.613388 524.057074,447.110707 C484.829563,453.86784 444.905135,450.533955 405.180823,451.950294 L396.901046,452.260961 C355.838033,453.77116 311.80202,454.780599 275.221899,454.780599 C243.079016,449.675048 211.009353,455.070381 178.82408,455.292696 C163.319451,454.686147 148.179636,450.995449 132.958251,448.303887 C101.41012,442.726075 69.4393678,439.857175 37.3941115,440.18101 C35.9926574,440.194503 35.7190463,438.620945 36.4743671,437.8377 C23.8362313,431.661692 32.3811192,395.940824 32.2141265,383.058721 L32.8777956,376.427222 C40.0674164,304.900624 48.6432405,231.723057 77.8288239,165.439259 L78.7029009,163.555104 C89.218074,140.987193 100.714149,119.935631 117.070823,101.098776 L118.071198,99.6004535 C121.134976,95.0229387 124.729301,89.7611882 127.954251,85.3998164 C144.959942,62.423251 166.651091,51.0830807 192.261397,42.0959326 C197.829575,40.1419522 206.934699,41.7297798 212.460616,39.4884052 C218.253074,37.1389184 223.252137,30.8405157 228.791747,27.6618286 L228.791766,51.3713598 L308.949073,130.363198 L354.411771,60.6253936 L359.03529,32.0633979 C360.149254,31.9934833 361.23857,31.7815892 362.291147,31.4954505 Z" id="ðŸ§¥-Jacket" fill="#8FA7DF"></path>
                        <path d="M459.465972,238.461012 C458.618163,242.579636 457.429945,246.698259 455.849938,250.599065 C454.327735,254.363654 452.034797,257.736942 450.455431,261.457196 C450.243479,261.95837 449.896648,262.337463 449.478524,262.626602 L449.608826,263.638589 L449.608826,263.638589 L449.729013,264.650575 C450.516815,271.479762 451.402767,278.290065 452.170076,285.118308 L452.54284,288.534094 C454.051555,302.791214 456.434412,316.978298 458.284177,331.197509 C460.095406,345.121156 461.939391,359.044802 463.910547,372.949173 C465.946573,387.284039 468.021136,401.599629 470.44253,415.876668 C471.464825,421.906286 472.531723,427.930995 473.643224,433.950797 L474.501737,438.558011 C483.339505,440.684789 485.754476,453.008533 476.756139,457.557653 C472.671883,459.613752 467.424458,459.119003 464.058271,455.887715 C460.560262,452.520138 460.415051,446.447115 459.60322,441.885851 L458.821145,437.647262 C452.969128,405.775423 447.890141,373.536446 445.515659,341.214567 C444.905493,332.868732 444.39167,324.515829 444.057684,316.155859 C443.740344,308.292886 443.891998,300.430453 443.770567,292.567075 L443.730122,290.422493 C443.544503,282.037463 443.698008,273.665285 443.916383,265.280255 C443.942074,264.258631 443.987033,263.237007 444.038416,262.208957 C443.743609,261.861991 443.531015,261.450771 443.441738,261.052402 L443.325485,260.525526 C443.03646,259.169786 443.364022,257.582734 444.405157,256.612512 C444.854111,250.900412 445.445008,245.194737 445.605578,239.489062 C445.618424,239.020014 446.292817,239.033507 446.331996,239.489062 C446.710941,244.346596 447.468189,249.216981 448.226079,254.08094 C453.100981,250.161501 456.70417,243.69764 458.830115,238.287529 C458.984262,237.895585 459.556533,238.036942 459.465972,238.461012 Z M344.125272,11.3773259 C344.934544,15.0783043 346.533821,18.4008321 348.679035,21.4914061 C349.700901,22.9692274 350.862785,24.3442437 352.256532,25.4943741 C353.451814,26.476804 354.813447,27.119335 356.084518,27.9745437 C357.934284,27.6847623 359.867545,28.3857636 361.16495,29.7472867 L360.960063,27.7560832 C360.895193,27.1135522 361.962019,26.985046 362.084052,27.6076585 C367.703116,55.9571965 372.827867,84.3250276 377.263845,112.879675 L379.208277,125.489845 L381.037851,137.328142 C384.075618,157.05493 387.014016,176.773844 389.226788,196.64471 C392.174852,223.162606 394.653409,249.750539 396.464637,276.37638 C398.282288,303.189841 399.400497,330.021292 400.196924,356.886155 C400.395388,363.658432 400.607983,370.424283 400.81287,377.195917 L402.184799,369.099595 C403.553999,361.001566 404.896644,352.896038 406.047449,344.761595 C410.177307,315.648516 413.479266,286.329185 415.090746,256.966161 C416.568631,230.095516 416.074076,202.691569 409.240221,176.514214 C407.518269,169.928272 405.411592,163.445134 402.868807,157.129054 C400.401811,150.987101 397.036908,145.293634 394.383651,139.241634 C391.300709,132.199495 390.375826,125.555724 391.962899,117.973859 C393.350223,111.36864 395.784463,105.155366 396.220571,98.3573878 C397.036908,85.7380793 392.932099,73.5164974 387.132957,62.4720323 C385.603689,59.561367 383.991567,56.6892534 382.308795,53.8421987 C377.21616,45.2393513 371.473538,36.9500591 365.513825,29.0025933 C365.192685,28.5785229 365.87286,28.1094752 366.220333,28.456442 C371.653376,33.828001 377.594462,39.1096057 382.482852,44.9759136 C384.858645,47.8287512 387.177274,50.738774 389.37387,53.7271856 C413.472843,57.7558549 434.179938,72.7711615 448.335138,92.6003102 C464.398551,115.101745 472.523388,142.184426 478.535767,168.855245 C485.221898,198.495842 490.861113,228.405659 496.866427,258.192753 C503.083051,289.015607 509.268204,319.837818 515.524007,350.653604 C518.63264,365.951625 521.741916,381.25093 524.843484,396.556018 C526.417069,404.304942 528.06837,412.034589 529.79546,419.757812 C530.682448,423.715803 531.633022,427.667368 532.45514,431.63821 C533.37938,436.116651 532.518725,438.981696 529.487808,442.272098 C528.369599,443.492906 526.60333,443.47363 525.216006,442.824674 L524.782317,442.620392 L524.363152,442.417924 C522.646492,441.573938 521.300626,440.699359 520.232559,438.821064 C519.056545,436.759182 518.870284,434.471771 518.46629,432.177936 C517.720603,427.955865 516.982624,423.735079 516.23758,419.507225 C515.124349,413.18472 513.913933,406.880286 512.68193,400.577388 L506.500782,369.078662 C504.852532,360.679979 503.201873,352.282099 501.54158,343.887753 C495.613339,313.868706 489.678676,283.856083 483.744655,253.843461 C478.046992,225.025304 473.005097,196.009247 466.518716,167.358148 L466.149932,165.744059 L465.77488,164.132127 C459.974683,139.433033 451.870619,115.541076 437.165896,94.6114322 C425.848929,78.516031 410.132989,64.1426129 391.621849,56.8685196 C392.926319,58.7453526 394.178764,60.6600949 395.373404,62.6133891 C402.87523,74.8728803 408.353233,89.4262071 407.068673,104.024511 C406.439882,111.156605 403.729462,118.166618 403.985731,125.35654 C404.223375,131.743298 408.174036,137.352593 410.903725,142.909844 C417.101081,155.504094 421.584835,168.888014 424.475093,182.618259 C430.274878,210.189263 430.255609,238.557649 428.257477,266.545656 C426.086572,296.970141 421.96378,327.387557 417.268716,357.515193 C414.860167,372.968063 411.655192,388.293069 409.201042,403.720238 C407.987775,411.327163 406.336475,418.916096 404.891345,426.485111 L404.202608,430.101299 C403.817002,432.108178 403.416925,434.108577 402.954801,436.087736 L402.6697,437.272564 L402.6697,437.484599 C402.656855,438.943787 402.257999,440.151745 401.615719,441.115542 C400.736439,443.93561 399.644563,446.686285 398.193011,449.327088 C397.447967,450.676403 396.368295,451.433947 395.192923,451.710878 C394.011129,454.415933 391.332823,456.497091 388.134913,456.485042 L346.071379,456.32425 C321.639063,456.227228 297.206747,456.066595 272.774431,455.931664 C266.609189,455.90018 260.449728,455.784524 254.290266,455.623891 C248.516173,455.463259 242.979722,454.769325 237.269857,454.04969 C230.820727,453.240101 227.327369,448.671706 228.290788,442.22712 C228.50274,440.806484 228.733319,439.393559 228.952336,437.979991 C227.667777,438.404061 226.139151,438.204876 225.105081,437.196103 L224.135596,436.24691 C222.791717,434.916946 221.589762,433.610963 220.73758,431.836752 C219.857657,430.012606 219.144084,428.085013 218.366926,426.221674 C216.690576,422.21228 215.059828,418.190036 213.472755,414.148516 C210.294113,406.065477 207.114829,397.95031 204.159701,389.783099 C198.309176,373.610594 193.13176,357.193927 188.630022,340.591569 C180.601527,310.970891 174.794677,280.77836 171.133684,250.315966 L170.258396,243.05568 L170.003892,240.911078 C168.61561,229.104175 167.447241,217.113978 167.999359,205.332372 C168.34041,197.955473 169.483025,190.522032 172.239047,183.633458 C174.781832,177.279469 178.70616,171.843657 182.437805,166.163683 L182.86483,165.50803 L183.294138,164.836392 C186.557649,159.677375 189.154402,154.283773 189.284505,148.018608 C189.416364,141.660677 187.564825,135.473061 185.494625,129.520862 L184.978664,128.052931 L184.632367,127.08135 C180.228263,114.779564 175.216302,102.651744 176.869241,89.2655744 C179.310545,69.5527238 191.256304,53.6629325 206.286289,41.4098666 C192.919808,44.0570943 179.68949,49.286654 168.012847,55.9182163 C154.222462,63.7570943 141.807197,74.1018431 131.100396,85.7766311 C110.868589,107.840503 96.4237202,134.313422 84.599995,161.64669 C72.2226248,190.252169 63.0444493,220.22624 56.1277402,250.592254 C49.1718521,281.131752 44.515325,312.159573 41.3353987,343.309475 C39.7496103,358.813748 38.5029456,374.35593 37.4695177,389.905822 C36.9428484,397.873206 36.5446351,405.853441 35.9280467,413.807975 C35.3114583,421.756083 35.0346357,429.82563 33.0949513,437.562345 C32.1893371,441.166944 26.0812581,441.533187 25.4267752,437.562345 C23.9742787,428.694284 24.3802115,419.523577 24.7855907,410.543715 L24.82239,409.727903 C25.2212457,400.783872 25.7414922,391.846266 26.3574383,382.90866 C27.6169486,364.641504 29.2990789,346.400049 31.4956751,328.216422 C39.1966076,264.387394 53.3980519,200.892482 81.2537183,142.627773 C94.3690678,115.185274 111.203216,88.5202384 134.620731,68.7045829 C145.770062,59.2780108 158.339474,51.753973 171.885151,46.3059527 C183.999186,41.4291426 196.305264,39.1224563 209.176547,39.1288816 C215.631457,34.181393 222.561654,29.8700101 229.484786,26.1876651 C229.902267,25.9634217 230.339018,26.5031478 229.992829,26.8501145 C229.812991,27.0235979 229.638933,27.202864 229.459737,27.3705646 C230.243318,27.4219671 231.051948,27.7882097 231.777724,28.5528216 C234.321793,31.2186827 236.467007,34.554061 238.386781,38.0166605 C241.309153,41.666879 244.096647,45.4378934 247.013238,49.0489175 C251.681969,54.8316964 256.460529,60.5309462 261.297537,66.1852189 C269.420684,75.6878463 277.808421,85.0105509 286.555226,93.9582946 L288.016368,95.4460799 C292.55022,100.040819 297.143161,105.540242 302.505554,109.176967 L302.791858,109.367479 C305.054298,110.842026 306.658637,111.109829 308.587942,108.907747 C310.341961,106.90305 311.801912,104.577022 313.302567,102.366943 L313.649747,101.859182 C321.312143,90.7241197 328.415755,79.1778379 334.844974,67.2910147 C337.775521,61.8814879 340.56328,56.3933706 343.208251,50.8445242 L343.997459,49.1780662 C345.436165,46.1196187 346.996904,43.118999 348.184479,39.9699547 C348.460659,39.2316866 348.730417,38.492776 348.993752,37.7602906 C344.94739,35.1066377 341.813708,29.3624107 340.676873,24.8646938 C339.495078,20.1934935 340.092399,15.3995698 342.198433,11.1273813 C342.596647,10.3242176 343.932588,10.5227596 344.125272,11.3773259 Z M144.512429,201.200383 C143.952475,218.960582 143.612709,236.739415 142.777103,254.48612 L142.48872,260.544545 C143.791905,261.997308 144.556218,263.673671 143.946052,265.974574 C143.709051,266.854842 143.008324,267.65158 142.134824,267.947145 L141.862488,273.580133 C140.622969,298.92461 139.169928,324.216463 136.514877,349.497177 C133.194292,381.135403 129.35346,412.721584 125.519693,444.302624 C124.973755,448.77464 121.86448,452.320768 117.028114,451.666029 C112.134586,451.00358 110.149942,446.743599 110.792221,442.30371 C113.31638,424.885338 115.743555,407.452829 117.870143,389.976629 L120.29148,370.06534 C123.327678,345.175558 126.435279,320.289612 130.01565,295.478955 C131.512161,285.109147 133.066478,274.745122 134.626575,264.380455 L134.08128,263.673671 C131.851927,260.776499 129.546144,257.942937 127.266051,255.0901 C122.886346,249.590034 118.563805,244.134304 114.549557,238.377226 C114.349808,238.088087 114.755087,237.664017 115.04347,237.88312 C120.66984,242.040295 125.99498,246.485967 131.351592,251.003602 L136.040233,254.973801 C138.737807,237.066463 141.40969,219.152699 143.791905,201.200383 C143.850353,200.751254 144.524746,200.718485 144.512429,201.200383 Z M225.445489,31.2386011 C222.060033,34.4313376 218.598789,37.5546807 215.187642,40.7287838 L213.938206,41.8969504 L212.694549,43.0704937 C206.699746,48.7576598 200.956166,54.6777421 196.170385,61.4761093 C187.384,73.9604863 182.149421,89.1814028 185.80335,104.42288 C188.835552,117.047972 195.79144,128.492091 197.660474,141.432665 C198.59756,147.915803 198.142183,154.431067 195.700879,160.553745 C193.208834,166.799788 189.2267,172.152071 185.649203,177.787068 C177.87762,190.033709 176.817858,203.475457 177.589236,217.662541 C178.398508,232.479306 180.099907,247.301853 182.200804,261.984328 C186.452052,291.733513 192.862003,321.174283 201.346516,350.004648 C205.592627,364.442319 210.608188,378.571576 215.599343,392.75866 C218.084323,399.820075 220.981646,406.714433 223.967604,413.576021 C225.541189,417.187688 227.153953,420.778794 228.791766,424.364116 C228.187381,419.301615 228.187381,414.103539 227.891932,409.072522 C227.468028,401.863324 226.928513,394.666977 226.433958,387.464205 C225.426221,372.846625 224.527029,358.216194 223.72418,343.585764 C220.878881,291.412248 218.78505,239.193754 218.938555,186.936709 C219.01627,160.804974 219.549363,134.673239 220.673352,108.566563 C221.200278,96.2728031 222.22068,83.9907977 223.14291,71.7142774 L223.338812,69.0836761 C224.154507,58.0642698 225.130772,47.0191621 226.80648,36.0961354 C226.310354,34.9761325 225.879694,33.8419146 225.560059,32.6785898 L225.445489,32.2409495 L225.528986,32.2538001 C225.451912,31.9126161 225.426221,31.5727172 225.445489,31.2386011 Z M254.720722,-13.6615926 C254.790731,-13.9635822 255.221058,-13.9378809 255.298131,-13.6615926 C257.205702,-7.23628276 256.531308,-0.168441921 254.887715,6.29541979 C254.001369,9.79721366 252.742501,13.1962026 251.220298,16.4731106 L250.687611,17.6198778 C249.383373,20.4106514 247.914835,23.2860808 245.374912,25.025198 C244.315792,25.751258 242.420425,25.7962352 241.360664,25.025198 L240.820198,24.6149301 C240.73123,24.5454415 240.643452,24.4747631 240.557815,24.4019429 C239.569346,23.573078 239.080571,21.7418647 239.53659,20.5339064 C240.711962,17.4176311 243.378064,15.1302208 245.220764,12.354487 C246.852797,9.88716799 248.297926,7.28491751 249.498347,4.57986206 C252.086733,-1.27359521 253.24926,-7.48686984 254.720722,-13.6615926 Z" id="ðŸ–-Ink" fill="#000000"></path>
                    </g>
                    <g id="HEAD" transform="translate(238.928013, 115.655577)">
                        <path d="M184.781506,326.651958 C171.514367,326.615334 159.370769,324.024007 147.848867,318.349815 C133.936958,313.799411 118.745123,311.319884 107.455236,301.246926 C101.957385,302.415689 96.3223765,296.757562 91.7615571,293.388772 C84.3229864,320.826772 45.6111416,316.262875 29.2541053,298.529662 C19.2479907,290.058534 15.2229843,269.102386 32.5990907,263.558628 C4.12986164,244.173468 -6.15313237,210.687324 -4.19638962,174.453074 C-2.13709893,113.670928 44.4747823,50.4792903 104.385208,39.9366419 C116.203857,37.8522714 128.341046,38.0726595 140.109062,40.551544 C146.680462,41.9805329 153.032665,44.7511265 160.065531,44.6251905 C187.341999,40.3028845 217.300737,40.799561 239.830518,58.3001774 C275.839584,82.4522746 280.844564,130.776387 276.636894,169.628951 L276.80738,169.992624 C274.71412,184.254241 271.235182,197.316254 264.656091,205.914603 C264.143992,218.276257 259.859411,244.66372 259.542154,255.095853 C260.310622,303.639068 232.808548,325.184417 184.781506,326.651958" id="âœ‹-Skin" fill="#D08B5B"></path>
                        <path d="M91.5879753,49.0620115 C116.159548,40.7283934 131.665447,45.0336446 154.596431,49.6359588 L156.009786,49.9179994 L158.233877,50.3541413 C181.243711,48.8069267 201.063662,43.7437826 223.27939,54.7921028 C269.504794,74.2762124 278.060496,128.061839 274.876383,172.977325 L274.687399,173.81253 C273.181986,180.365346 271.063784,187.136767 266.611661,192.345779 C259.137839,155.466428 235.110858,131.120286 205.565517,107.874158 L204.509438,106.593258 C200.841156,102.159425 196.839649,97.5531257 192.00163,94.4253416 C192.160579,92.991855 192.239413,91.5551557 192.213776,90.1383749 C192.178514,88.1808422 189.390952,86.5346418 187.937197,88.2365418 L187.660007,88.5810837 C185.762987,90.8899399 175.796926,101.98731 170.753723,107.68194 L170.124899,108.392912 L168.603396,110.127514 L166.034722,113.210045 C138.306512,146.442466 109.059176,179.804062 67.7032798,195.754406 C57.7933039,189.471738 45.7721224,195.003929 39.5795091,203.854794 C21.9822837,224.41707 42.3809904,263.18996 69.4280079,252.671728 C71.0700566,266.892224 78.1689373,282.923372 87.7994701,293.649784 C77.2472878,308.409363 60.3646933,311.072654 44.5723116,302.719109 C29.1565991,295.814285 19.1807013,281.321397 28.643776,265.290205 C28.8425237,265.174571 29.0468477,265.062533 29.2554045,264.953299 C36.5108896,269.806291 44.9659822,272.986351 53.7095464,273.630132 L54.3719651,273.674424 C59.8334511,273.93282 59.7466177,265.310351 54.2041262,264.868893 C17.5458038,260.197693 1.27080581,218.229497 1.23427311,185.317775 C-0.323173624,127.382683 35.7038381,67.7744414 91.5879753,49.0620115 Z" id="ðŸ’ˆ-Hair" fill="#C93305"></path>
                        <path d="M26.3303996,262.888468 C-59.906644,186.501815 28.5633809,14.59779 140.767484,37.4057123 C152.123386,41.2178487 163.655542,42.54082 175.415867,39.7162538 C234.68024,30.4387489 283.162981,80.8523725 280.656965,139.178123 C281.074207,149.154059 280.993451,159.13899 279.917979,169.075089 C278.688045,182.135174 275.328959,196.102513 267.837833,206.959359 C267.751154,214.251687 263.468928,241.60674 262.780703,254.476644 L262.649105,257.164141 C261.965992,270.390665 260.493567,283.880766 254.693751,295.941547 C236.858102,328.339887 190.913423,335.292715 157.9699,325.854577 L156.600044,325.403644 C150.480773,323.36415 143.543621,320.646537 139.658044,315.508543 C137.604521,312.79385 141.003985,309.328038 143.831103,310.066306 C147.470273,311.017252 150.486464,313.241052 153.884006,314.821035 C176.043819,324.63869 202.253446,321.35073 224.127964,312.180413 L224.789492,311.900732 C263.966007,295.958253 253.234366,239.247183 258.391245,206.910526 C259.564137,165.848299 225.401575,137.88535 199.662685,110.726851 L198.892243,109.866354 C196.247754,106.926683 193.45486,104.061106 189.777705,103.434124 C188.770812,106.497069 186.29428,109.103817 183.997206,111.337898 L178.802623,116.965696 C173.606897,122.586888 168.400627,128.185221 163.119729,133.733315 C137.4789,159.845132 111.354173,195.297421 71.8302767,197.967138 C74.2600218,200.171019 76.3904551,202.689098 78.9368485,204.764473 C80.0110381,205.841997 78.915698,207.650722 77.4748995,207.281267 C74.7881437,206.593116 73.0698249,204.038413 71.3066413,202.042069 C49.9600072,193.058843 32.429438,226.255207 50.5150479,239.998302 C57.2242464,247.120115 76.8294885,241.701009 72.2962289,250.483123 C77.2441667,266.038798 84.8602735,281.684427 97.7434986,292.089574 C101.526235,294.952692 107.434278,296.402885 109.944139,300.617888 C110.549813,301.633729 110.240887,303.291459 109.103246,303.831828 C103.630391,306.389744 97.7511897,302.087356 93.5480062,298.84643 C71.3515061,342.34385 -10.0433523,294.286387 26.3303996,262.888468 Z M158.232038,50.3437162 L156.007947,49.9075743 C132.292726,45.204208 116.65917,40.5478945 91.5861361,49.0515864 C35.7019989,67.7640163 -0.325012856,127.372258 1.23243388,185.30735 C1.26896658,218.219072 17.5439645,260.187268 54.202287,264.858468 C59.7447785,265.299926 59.8316119,273.922395 54.3701259,273.663999 L54.2029279,273.653432 C45.1665322,273.088005 36.4191935,269.802744 28.9626769,264.747953 C18.959126,280.989851 28.9844683,295.727584 44.5704724,302.708684 C60.3628541,311.062229 77.2454485,308.398938 87.7976309,293.639359 C78.1670981,282.912947 71.0682174,266.881798 69.4261686,252.661303 C42.3791512,263.179535 21.9804445,224.406645 39.5776699,203.844369 C45.7702832,194.993504 57.7914647,189.461312 67.7014406,195.74398 C110.336385,179.300327 140.102204,144.351782 168.601557,110.117089 L170.12306,108.382487 C175.112809,102.732487 186.586163,89.9703048 187.858777,88.3205101 C189.28868,86.4655232 192.176045,88.1354612 192.211937,90.1279498 C192.237574,91.5447306 192.15874,92.9814299 191.999791,94.4149165 C197.306005,97.8453894 201.605968,103.054388 205.563678,107.863733 C235.109019,131.109861 259.136,155.456003 266.609821,192.335354 C271.251397,186.904682 273.356193,179.7758 274.874544,172.9669 C278.058657,128.051414 269.502955,74.2657873 223.277551,54.7816778 C201.061823,43.7333575 181.241871,48.7965016 158.232038,50.3437162 Z M53.4047204,219.029753 C51.4800239,217.307128 64.1966086,217.098947 65.3970603,218.448263 L65.6709447,218.542027 C70.2238646,220.146811 78.5607796,225.32053 74.4667841,230.692333 C68.629243,236.207176 64.5638584,219.833559 53.4047204,219.029753 Z" id="ðŸ–-Ink" fill="#000000"></path>
                    </g>
                    <g id="FACE" transform="translate(341.050469, 235.166341)" fill="#000000">
                        <path d="M94.1495619,154.802776 C89.8319816,153.040731 85.9796082,150.101523 83.1631516,146.346875 C82.1839729,145.041606 81.9300885,143.663261 82.1354988,142.402589 C82.3664681,140.985052 83.2047765,139.700308 84.348041,138.83854 C85.4948469,137.974104 86.9293553,137.547785 88.3162259,137.76511 C89.521335,137.953953 90.7209638,138.614037 91.6703802,139.983026 L91.868737,140.256792 C93.5431692,142.522968 95.7251084,144.382338 98.2112757,145.58081 C100.607537,146.735942 103.287513,147.275086 106.06085,146.961562 C111.342851,146.364663 114.983471,143.506983 118.853053,139.626301 C119.332699,139.136355 119.812653,138.63105 120.294933,138.117611 C120.599502,137.652181 121.022168,137.353049 121.491441,137.1961 C122.012487,137.021835 122.60191,137.031695 123.141778,137.22017 C123.662482,137.401956 124.127966,137.746431 124.440085,138.204905 C124.736729,138.640648 124.904917,139.178949 124.850345,139.798128 C124.496155,143.81982 122.39439,147.409008 119.408921,150.22728 C116.093177,153.35733 111.697915,155.522719 107.559968,156.282189 C103.001166,157.118775 98.355868,156.519409 94.1495619,154.802776 L94.1495619,154.802776 Z M109.710543,92.76037 C114.56064,95.7096166 121.950697,102.586684 116.73311,109.898226 C110.59151,116.345053 101.748994,108.953325 97.3915547,105.610334 C93.3511331,103.019498 88.8114931,109.682935 92.5601985,112.708174 C124.047144,136.028988 136.825213,93.5315569 112.163654,89.2927791 C109.448328,88.825684 108.439849,91.8479883 109.710543,92.76037 Z M53.2856354,65.632227 C53.8215075,58.9779989 63.9519728,57.4669432 64.9597095,64.0516008 C65.8621124,69.9500352 64.7997819,75.368499 62.1439557,80.6790176 C59.606309,85.7524423 53.2281403,83.3854509 52.7457883,78.7656531 C52.0992155,72.5730062 52.9522923,69.7715377 53.2856354,65.632227 Z M130.400101,62.6862867 C131.812474,60.8357975 133.851712,59.5725815 136.294943,60.2864335 C143.928436,62.5179436 141.678531,73.3593689 138.997656,78.6364759 C137.540966,81.5021641 132.832414,82.2288666 130.704542,79.7056474 C127.236232,75.590879 125.575297,67.3735502 129.984546,63.3204648 C130.10401,63.1109997 130.236962,62.899607 130.400101,62.6862867 Z M62.0364381,36.5153571 L63.2422352,36.3042247 C66.9724661,35.6588376 71.610579,35.0386924 74.2493848,38.0387981 C75.648912,39.6297048 76.1306217,42.5866324 74.2493848,44.1094309 C70.9403603,46.7887851 67.2819356,45.750455 63.3165014,45.9772684 C60.0485827,46.1648875 56.9078355,46.7058986 53.7600231,47.6060845 C46.8542329,49.5805822 41.2272212,53.185181 35.3291676,57.1431719 C34.5552207,57.6623369 33.7652168,56.6721967 34.1345276,55.9480643 C37.5392518,49.276665 44.1373901,43.7965183 50.7464472,40.4559997 C54.2738468,38.6729762 58.1339472,37.1938699 62.0364381,36.5153571 Z M123.441564,33.5268733 L124.364475,33.7158293 C134.407953,35.8160117 147.456782,40.0112983 152.212853,49.8802239 C152.394081,51.2757249 152.202597,51.5748087 152.046885,51.7702129 L151.995041,51.8352369 C151.866735,52.0021007 151.764356,52.2321215 151.159722,52.4220516 C150.991936,52.3820592 150.82248,52.3397019 150.65123,52.2948057 C148.47113,51.7232579 146.746249,50.9358703 145.076382,50.1188617 L143.265822,49.2265151 C141.165211,48.1961405 139.046053,47.2032668 136.800232,46.4702898 C132.007457,44.9064048 127.077677,43.8047454 122.071518,43.2164843 C120.986472,43.0890919 119.941641,42.7227458 119.117344,42.0948881 C118.334921,41.4989253 117.7372,40.6738008 117.464672,39.5770306 C117.111477,38.1576347 117.212978,37.0830356 117.974247,35.8025327 C118.546674,34.8409024 119.365726,34.174367 120.306205,33.7916197 C121.264982,33.4014254 122.356541,33.3094372 123.441564,33.5268733 Z" id="ðŸ–-Ink"></path>
                    </g>
                </g>
            </g>
        </g>
    </g>
</svg>