<svg width="62" height="62" viewBox="0 0 62 62" fill="none" xmlns="http://www.w3.org/2000/svg">
<circle cx="31" cy="31" r="30.5" stroke="#1E40AF"/>
<path d="M24.2373 43.7817C24.3774 43.9204 24.5678 43.9988 24.7667 44C24.8654 44.0009 24.9633 43.982 25.0543 43.9445C25.1454 43.9069 25.2276 43.8516 25.2961 43.7817L37.7787 31.5283C37.8488 31.4604 37.9045 31.3795 37.9424 31.2903C37.9804 31.2011 38 31.1053 38 31.0087C38 30.912 37.9804 30.8162 37.9424 30.727C37.9045 30.6378 37.8488 30.5569 37.7787 30.489L25.2961 18.233C25.2275 18.161 25.1448 18.1032 25.0529 18.0632C24.9611 18.0232 24.862 18.0017 24.7615 18.0001C24.6611 17.9985 24.5613 18.0167 24.4682 18.0537C24.375 18.0906 24.2904 18.1456 24.2194 18.2154C24.1484 18.2851 24.0923 18.3682 24.0547 18.4596C24.017 18.551 23.9984 18.649 24.0001 18.7476C24.0018 18.8462 24.0236 18.9435 24.0644 19.0336C24.1052 19.1237 24.164 19.2049 24.2373 19.2723L36.1906 31.0087L24.2373 42.7424C24.1676 42.8105 24.1122 42.8915 24.0744 42.9807C24.0366 43.0698 24.0171 43.1655 24.0171 43.2621C24.0171 43.3587 24.0366 43.4543 24.0744 43.5435C24.1122 43.6327 24.1676 43.7136 24.2373 43.7817Z" fill="#1E40AF"/>
</svg>
