<svg height="344" viewBox="0 0 332 344" width="332" xmlns="http://www.w3.org/2000/svg" xmlns:xlink="http://www.w3.org/1999/xlink"><defs><path id="a" d="m21.5.5h262c11.59798 0 21 9.40202025 21 21v287h-304v-287c0-11.59797975 9.40202025-21 21-21z"/><filter id="b" height="116.9%" width="117.1%" x="-11.8%" y="-7.8%"><feOffset dx="-10" dy="2" in="SourceAlpha" result="shadowOffsetOuter1"/><feGaussianBlur in="shadowOffsetOuter1" result="shadowBlurOuter1" stdDeviation="7"/><feColorMatrix in="shadowBlurOuter1" values="0 0 0 0 0   0 0 0 0 0   0 0 0 0 0  0 0 0 0.135161911 0"/></filter><linearGradient id="c" x1="50%" x2="50%" y1="0%" y2="95.2%"><stop offset="0" stop-color="#fafafa"/><stop offset="1" stop-color="#fff"/></linearGradient><linearGradient id="d" x1="50%" x2="50%" y1="-7%" y2="72.9%"><stop offset="0" stop-color="#fafafa" stop-opacity="0"/><stop offset="1" stop-color="#fafafa"/></linearGradient><path id="e" d="m4.18212891 3.3359375 2.38037109 7.4194336 2.37304688-7.4194336h3.38378902v10.6640625h-2.57812496v-2.4902344l.24902344-5.09765622-2.578125 7.58789062h-1.69921876l-2.58544921-7.59521484.24902343 5.10498044v2.4902344h-2.57080078v-10.6640625zm9.34570309 6.62841797c0-.79101958.1538071-1.49535824.4614258-2.11303711s.7495089-1.09252764 1.3256836-1.42456055c.5761748-.33203291 1.2524375-.49804687 2.0288086-.49804687 1.1865294 0 2.1215786.36742796 2.8051758 1.10229492.6835971.73486695 1.0253906 1.73461282 1.0253906 2.99926754v.0878907c0 1.2353577-.3430141 2.2155725-1.0290527 2.9406738s-1.6149844 1.0876465-2.7868653 1.0876465c-1.1279353 0-2.033688-.3381314-2.7172851-1.0144043-.6835972-.6762729-1.0522458-1.5930118-1.1059571-2.7502442zm2.4682618.15380863c0 .7324255.1147449 1.2695295.3442382 1.6113281.2294934.3417986.5688454.5126953 1.0180664.5126953.8789107 0 1.3281249-.6762628 1.3476563-2.0288086v-.24902343c0-1.42090554-.454097-2.13134766-1.3623047-2.13134766-.8251994 0-1.2719723.61278684-1.340332 1.83837891zm8.5327148-4.04296879.0805664.93017578c.5468777-.71777702 1.3012647-1.07666015 2.2631836-1.07666015.8251994 0 1.4416483.24657956 1.8493652.73974609s.6188964 1.23534661.633545 2.2265625v5.10498047h-2.475586v-5.00244141c0-.40039262-.0805656-.69457913-.2416992-.88256836-.1611336-.18798922-.4540994-.28198242-.8789063-.28198242-.4834008 0-.8422839.19042779-1.0766601.57128907v5.59570312h-2.4682617v-7.92480469zm14.0771484 5.69824219c0-.209962-.1098622-.3784173-.3295898-.5053711-.2197277-.1269538-.637204-.2587884-1.2524414-.3955078-.6152375-.1367194-1.1230449-.316161-1.5234375-.5383301s-.7055654-.49194176-.9155274-.80932616c-.2099619-.3173844-.3149414-.68115029-.3149414-1.09130859 0-.7275427.30029-1.32690194.9008789-1.7980957.600589-.47119377 1.3867139-.70678711 2.3583985-.70678711 1.0449271 0 1.8847624.23681404 2.5195312.71044922s.9521485 1.09618755.9521485 1.86767578h-2.475586c0-.6347688-.3344693-.95214844-1.0034179-.95214844-.2587904 0-.4760734.07202076-.6518555.21606445s-.2636719.32348526-.2636719.53833008c0 .21972766.1074208.39794854.3222656.53466797.2148449.13671943.557859.249023 1.0290528.33691406.4711937.08789107.885008.19287049 1.2414551.31494141 1.1914122.4101583 1.7871093 1.14501423 1.7871093 2.20458983 0 .7226599-.3210417 1.3110329-.9631347 1.7651367-.6420931.4541039-1.4733836.6811524-2.4938965.6811524-.6787144 0-1.2841771-.1220691-1.8164063-.366211-.5322292-.2441418-.9472641-.5761697-1.2451172-.9960937-.297853-.419924-.4467773-.8618141-.4467773-1.3256836h2.3071289c.0097657.3662128.1318348.6335441.3662109.8020019.2343762.1684579.5346662.2526856.9008789.2526856.3369158 0 .5895988-.0683587.7580567-.2050781.1684579-.1367195.2526855-.3149403.2526855-.534668zm6.4086914-7.66845703v1.97021484h1.303711v1.71386719h-1.303711v3.6254883c0 .297853.0537104.5053705.1611328.6225586.1074225.1171881.3198227.1757812.6372071.1757812.2441418 0 .4492179-.0146483.6152344-.0439453v1.7651367c-.4443382.1416023-.9082008.2124024-1.3916016.2124024-.8496136 0-1.4770488-.2001933-1.8823242-.600586-.4052755-.4003926-.6079102-1.0082967-.6079102-1.8237304v-3.9331055h-1.0107422v-1.71386719h1.0107422v-1.97021484zm6.7382813 9.89501953c-.0878911-.1611336-.1660153-.3979477-.234375-.7104492-.4541038.5712919-1.0888631.8569336-1.9042969.8569336-.747074 0-1.3818333-.2258278-1.9042969-.6774903-.5224635-.4516624-.7836914-1.0192837-.7836914-1.7028808 0-.8593793.3173797-1.5087869.9521485-1.94824221.6347688-.43945532 1.5576111-.65917968 2.7685547-.65917968h.7617187v-.41748047c0-.7275427-.3149383-1.0913086-.9448242-1.0913086-.5859404 0-.8789063.28808306-.8789063.86425782h-2.4682617c0-.7666054.3259245-1.38915777.9777832-1.86767578.6518587-.47851802 1.4831493-.71777344 2.4938965-.71777344s1.8090791.24657956 2.3950195.73974609c.5859405.49316653.8862304 1.1694293.9008789 2.02880859v3.50830078c.0097657.7275427.1220693 1.2841778.3369141 1.6699219v.1245117zm-1.5454102-1.6113281c.3076188 0 .5627432-.0659173.7653809-.1977539s.3478999-.2807609.435791-.4467774v-1.2670898h-.7177734c-.8593793 0-1.2890625.3857383-1.2890625 1.1572265 0 .2246105.0756828.4064935.2270507.5456543.151368.1391609.3442372.2087403.5786133.2087403zm4.753418-2.40966799c0-.80078526.1318346-1.50878599.3955078-2.12402344s.6420874-1.09008622 1.1352539-1.42456055 1.0668913-.50170898 1.7211914-.50170898c.8251995 0 1.4697243.27831753 1.9335938.83496094l.0878906-.68847657h2.2412109v7.62451169c0 .6982457-.1623519 1.3049291-.4870605 1.8200684-.3247087.5151393-.7946747.9106431-1.4099121 1.1865234-.6152375.2758803-1.328121.4138184-2.1386719.4138184-.5810576 0-1.1437961-.1098622-1.6882324-.3295899-.5444363-.2197276-.9606919-.5053693-1.2487793-.8569335l1.0327148-1.4501954c.4589867.5419949 1.0644494.8129883 1.8164063.8129883 1.0937555 0 1.640625-.5615178 1.640625-1.6845703v-.2490234c-.4736352.5224635-1.0717737.7836914-1.7944336.7836914-.9668017 0-1.7480439-.3698694-2.34375-1.1096192s-.8935547-1.7297301-.8935547-2.9699707zm2.4755859.15380859c0 .6494173.1220691 1.1633282.366211 1.541748.2441418.3784199.5859353.567627 1.0253906.567627.5322292 0 .9204089-.1782209 1.1645508-.534668v-3.3325195c-.239259-.36132993-.622556-.54199219-1.1499024-.54199219-.4394553 0-.7836901.19653124-1.0327148.58959961s-.3735352.96313103-.3735352 1.71020508zm10.2758789 4.0136719c-1.2158263 0-2.1997032-.3625452-2.9516601-1.0876465s-1.1279297-1.6686954-1.1279297-2.8308106v-.2050781c0-.81055091.150145-1.52587579.4504395-2.14599608.3002944-.62012028.7385225-1.09985181 1.3146972-1.43920898.5761748-.33935716 1.2597617-.5090332 2.0507813-.5090332 1.1132868 0 1.9921842.34545553 2.6367187 1.03637695s.9667969 1.65404656.9667969 2.8894043v.95947261h-4.9072266c.0878911.4443382.2807603.7934558.5786133 1.0473633.2978531.2539075.6835914.3808594 1.1572266.3808594.7812539 0 1.3915993-.2734348 1.8310547-.8203125l1.1279297 1.3330078c-.3076188.4248068-.7434054.7629382-1.3073731 1.0144043s-1.170651.3771973-1.8200684.3771973zm-.2783203-6.31347659c-.7226598 0-1.152343.47851084-1.2890625 1.43554688h2.4902344v-.19042969c.0097656-.39550979-.090331-.70190321-.300293-.91918945-.2099619-.21728625-.5102519-.32592774-.9008789-.32592774zm8.034668 2.1459961c0-1.25488909.2709934-2.24364873.8129883-2.9663086.5419949-.72265986 1.2988232-1.08398437 2.2705078-1.08398437.7080113 0 1.3037085.27831753 1.7871094.83496094v-4.01367188h2.4755859v11.25h-2.2192383l-.1245117-.8496094c-.507815.6640658-1.1523398.9960938-1.9335937.9960938-.9423876 0-1.6894504-.3613245-2.241211-1.0839844s-.8276367-1.7504816-.8276367-3.08349609zm2.4682617.15380859c0 1.406257.4101522 2.109375 1.2304688 2.109375.5468777 0 .9374988-.2294899 1.171875-.6884766v-3.01757809c-.2246105-.46875234-.6103489-.703125-1.1572266-.703125-.7617226 0-1.1743161.61522823-1.237793 1.84570313zm10.1147461 4.0136719c-1.2158264 0-2.1997033-.3625452-2.9516601-1.0876465-.7519569-.7251013-1.1279297-1.6686954-1.1279297-2.8308106v-.2050781c0-.81055091.150145-1.52587579.4504394-2.14599608.3002945-.62012028.7385225-1.09985181 1.3146973-1.43920898.5761747-.33935716 1.2597617-.5090332 2.0507812-.5090332 1.1132869 0 1.9921843.34545553 2.6367188 1.03637695s.9667969 1.65404656.9667969 2.8894043v.95947261h-4.9072266c.0878911.4443382.2807602.7934558.5786133 1.0473633.297853.2539075.6835914.3808594 1.1572265.3808594.781254 0 1.3915994-.2734348 1.8310547-.8203125l1.1279297 1.3330078c-.3076187.4248068-.7434054.7629382-1.307373 1.0144043-.5639677.2514661-1.1706511.3771973-1.8200684.3771973zm-.2783203-6.31347659c-.7226599 0-1.1523431.47851084-1.2890625 1.43554688h2.4902344v-.19042969c.0097656-.39550979-.090331-.70190321-.300293-.91918945-.209962-.21728625-.5102519-.32592774-.9008789-.32592774zm10.5615234-.1977539h1.1645508c.9228563 0 1.3842773-.45165564 1.3842773-1.35498047 0-.35156426-.109862-.63842663-.32959-.86059571-.219727-.22216908-.529783-.33325195-.9301756-.33325195-.32715 0-.611571.09521389-.8532714.28564453-.2417005.19043064-.3625489.42724468-.3625489.71044922h-2.4682617c0-.56152624.1562484-1.06200952.46875-1.50146484s.7458468-.78246947 1.3000488-1.02905274c.554202-.24658326 1.1633268-.36987304 1.8273926-.36987304 1.1865292 0 2.1191372.27099338 2.7978512.81298828.678715.54199489 1.018067 1.28661635 1.018067 2.23388672 0 .45898667-.14038.89233194-.421143 1.30004882-.280763.40771689-.689694.73852413-1.226806.99243165.566409.20507915 1.01074.51635533 1.333007.93383789.322268.41748255.483399.93383483.483399 1.54907223 0 .9521532-.366207 1.7138644-1.098633 2.2851563s-1.69433.8569336-2.8857422.8569336c-.6982457 0-1.3464325-.1330553-1.9445801-.3991699-.5981475-.2661147-1.0510238-.6347633-1.3586425-1.1059571-.3076188-.4711937-.4614258-1.0070771-.4614258-1.607666h2.4829101c0 .3271501.1318347.6103504.3955078.8496094.2636732.239259.588377.3588867.9741211.3588867.4345726 0 .7812486-.1208484 1.0400386-.3625488.258791-.2417005.388184-.5505353.388184-.9265137 0-.5371121-.134276-.9179676-.402832-1.14257812-.268556-.2246105-.639646-.33691407-1.1132812-.33691407h-1.2011719zm10.3051761 6.51123049c-1.215827 0-2.199704-.3625452-2.95166-1.0876465-.751957-.7251013-1.12793-1.6686954-1.12793-2.8308106v-.2050781c0-.81055091.150145-1.52587579.450439-2.14599608.300295-.62012028.738523-1.09985181 1.314698-1.43920898.576174-.33935716 1.259761-.5090332 2.050781-.5090332 1.113287 0 1.992184.34545553 2.636719 1.03637695.644534.69092142.966796 1.65404656.966796 2.8894043v.95947261h-4.907226c.087891.4443382.28076.7934558.578613 1.0473633s.683592.3808594 1.157227.3808594c.781254 0 1.391599-.2734348 1.831054-.8203125l1.12793 1.3330078c-.307619.4248068-.743405.7629382-1.307373 1.0144043s-1.170651.3771973-1.820068.3771973zm-.278321-6.31347659c-.722659 0-1.152343.47851084-1.289062 1.43554688h2.490234v-.19042969c.009766-.39550979-.090331-.70190321-.300293-.91918945-.209962-.21728625-.510252-.32592774-.900879-.32592774zm.834961-2.79052734h-2.006836l-2.065429-2.29980469h2.607422zm6.108399 1.03271484.080566.93017578c.561526-.71777702 1.315913-1.07666015 2.263184-1.07666015 1.000981 0 1.677244.39794524 2.028808 1.19384765.537112-.79590241 1.313472-1.19384765 2.329102-1.19384765 1.606453 0 2.43164.97166997 2.475586 2.91503906v5.15625h-2.475586v-5.00244141c0-.40527546-.068359-.70068266-.205078-.88623047-.13672-.1855478-.385741-.27832031-.74707-.27832031-.488284 0-.85205.21728299-1.091309.65185547l.007324.10253906v5.41259766h-2.475586v-4.98779297c0-.41504114-.065917-.7153311-.197754-.90087891-.131836-.1855478-.383299-.27832031-.754394-.27832031-.473635 0-.83496.21728299-1.083985.65185547v5.51513672h-2.468261v-7.92480469zm14.421386 8.07128909c-1.215826 0-2.199703-.3625452-2.95166-1.0876465s-1.127929-1.6686954-1.127929-2.8308106v-.2050781c0-.81055091.150145-1.52587579.450439-2.14599608.300295-.62012028.738523-1.09985181 1.314697-1.43920898.576175-.33935716 1.259762-.5090332 2.050782-.5090332 1.113286 0 1.992184.34545553 2.636718 1.03637695.644535.69092142.966797 1.65404656.966797 2.8894043v.95947261h-4.907226c.087891.4443382.28076.7934558.578613 1.0473633s.683591.3808594 1.157227.3808594c.781253 0 1.391599-.2734348 1.831054-.8203125l1.12793 1.3330078c-.307619.4248068-.743405.7629382-1.307373 1.0144043s-1.170651.3771973-1.820069.3771973zm-.27832-6.31347659c-.72266 0-1.152343.47851084-1.289062 1.43554688h2.490234v-.19042969c.009766-.39550979-.090331-.70190321-.300293-.91918945-.209962-.21728625-.510252-.32592774-.900879-.32592774z"/><path id="f" d="m4.51171875 9.31835938c0-.29297022-.11035046-.52050701-.33105469-.68261719-.22070423-.16211019-.605466-.30175723-1.15429687-.41894531-.54883087-.11718809-.98437339-.25781168-1.30664063-.421875-.32226723-.16406333-.5605461-.35937387-.71484375-.5859375-.15429764-.22656364-.23144531-.49609219-.23144531-.80859376 0-.51953384.21972437-.95898257.65917969-1.31835937s1.00097314-.5390625 1.68457031-.5390625c.71875359 0 1.30175558.18554502 1.74902344.55664063.44726786.3710956.67089844.84570023.67089844 1.42382812h-1.08984376c0-.29687648-.1259753-.5527333-.37792968-.76757812-.25195439-.21484483-.56933403-.32226563-.95214844-.32226563-.39453322 0-.70312389.08593664-.92578125.2578125s-.33398437.39648299-.33398437.67382813c0 .26172005.10351458.45898371.31054687.59179687s.58105198.25976502 1.12207031.38085937c.54101833.12109436.97949051.26562417 1.31542969.43359376.33593918.16796958.58496013.370116.74707031.60644531.16211019.2363293.24316406.52441236.24316406.86425781 0 .56640908-.22656023 1.0205061-.6796875 1.3623047-.45312726.3417986-1.04101201.5126953-1.76367187.5126953-.50781504 0-.9570293-.0898429-1.34765625-.2695313-.39062695-.1796883-.69628796-.4306624-.91699219-.7529296-.22070423-.32226727-.33105468-.6708966-.33105468-1.04589848h1.08398437c.01953135.36328307.16503771.65136613.43652344.86425782.27148573.21289166.62988058.31933596 1.07519531.31933596.4101583 0 .73925657-.083007.98730469-.24902346.24804811-.16601646.37207031-.38769393.37207031-.66503906zm6.41015625 1.05468752c-.4218771.4960962-1.04101154.7441406-1.85742188.7441406-.67578462 0-1.19042791-.1962871-1.54394531-.5888672-.35351739-.3925801-.53222654-.97362895-.53613281-1.74316405v-4.125h1.08398438v4.09570313c0 .9609423.39062109 1.44140622 1.171875 1.44140622.82812912 0 1.37890492-.30859064 1.65234372-.92578122v-4.61132813h1.0839844v6.33984375h-1.03125zm8.0566406-2.47265628c0 .96484858-.2207009 1.74218456-.6621094 2.33203128-.4414084.5898467-1.0390587.8847656-1.7929687.8847656-.7695351 0-1.3749978-.2441382-1.8164063-.7324219v3.0527344h-1.0839843v-8.77734375h.9902343l.0527344.703125c.4414085-.54687773 1.0546836-.8203125 1.8398438-.8203125.7617225 0 1.3642556.2871065 1.8076172.86132813.4433616.57422162.665039 1.37304175.665039 2.39648437zm-1.0839844-.12304687c0-.71484732-.1523422-1.2792948-.4570312-1.69335937-.304689-.41406458-.7226536-.62109376-1.2539062-.62109376-.6562533 0-1.1484359.29101272-1.4765626.87304688v3.02929688c.3242204.57812789.8203092.86718752 1.4882813.86718752.5195338 0 .9326157-.2060527 1.2392578-.61816409.3066422-.41211143.4599609-1.02441.4599609-1.83691406zm7.8164063.12304687c0 .96484858-.2207009 1.74218456-.6621094 2.33203128-.4414084.5898467-1.0390587.8847656-1.7929687.8847656-.7695351 0-1.3749978-.2441382-1.8164063-.7324219v3.0527344h-1.0839843v-8.77734375h.9902343l.0527344.703125c.4414085-.54687773 1.0546836-.8203125 1.8398437-.8203125.7617226 0 1.3642556.2871065 1.8076172.86132813.4433616.57422162.6650391 1.37304175.6650391 2.39648437zm-1.0839844-.12304687c0-.71484732-.1523422-1.2792948-.4570312-1.69335937-.304689-.41406458-.7226536-.62109376-1.2539063-.62109376-.6562533 0-1.1484358.29101272-1.4765625.87304688v3.02929688c.3242204.57812789.8203092.86718752 1.4882813.86718752.5195338 0 .9326156-.2060527 1.2392578-.61816409.3066421-.41211143.4599609-1.02441.4599609-1.83691406zm2.1738281-.00585937c0-.62109686.1220691-1.17968502.366211-1.67578126.2441418-.49609623.5839822-.8789049 1.0195312-1.1484375.4355491-.26953259.9326144-.40429687 1.491211-.40429687.8632855 0 1.5615207.29882514 2.0947265.89648437.5332058.59765924.7998047 1.39257317.7998047 2.38476563v.07617187c0 .61719059-.1181629 1.17089599-.3544922 1.66113282-.2363293.49023686-.5742165.87206896-1.0136718 1.14550776-.4394554.2734389-.9443331.4101563-1.5146485.4101563-.8593793 0-1.5556614-.2988251-2.0888672-.8964844-.5332058-.59765921-.7998047-1.38866693-.7998047-2.37304685zm1.0898438.12890624c0 .70312852.1630843 1.267576.4892578 1.69335938.3261735.4257834.7626926.6386719 1.3095703.6386719.550784 0 .9882797-.2158182 1.3125-.64746096.3242204-.43164279.4863281-1.03612893.4863281-1.81347656 0-.69531598-.1650374-1.25878691-.4951171-1.69042969-.3300798-.43164279-.768552-.64746094-1.3154297-.64746094-.535159 0-.9667953.2128885-1.2949219.63867187-.3281266.42578338-.4921875 1.03515229-.4921875 1.828125zm9.1054688-2.26757812c-.1640634-.02734389-.341796-.04101562-.5332032-.04101562-.710941 0-1.1933581.30273134-1.4472656.90820312v4.5h-1.0839844v-6.33984375h1.0546875l.0175781.73242187c.3554706-.56640908.8593718-.84960937 1.5117188-.84960937.2109386 0 .3710932.02734348.4804688.08203125zm2.7597656-2.5078125v1.53515625h1.1835937v.83789063h-1.1835937v3.93164062c0 .25390752.0527338.4443353.1582031.5712891.1054693.1269537.285155.1904296.5390625.1904296.1250006 0 .2968739-.0234372.515625-.0703124v.8789062c-.2851577.0781254-.5624987.1171875-.8320312.1171875-.4843775 0-.8496082-.1464829-1.0957032-.4394531s-.3691406-.7089817-.3691406-1.2480469v-3.93164062h-1.1542969v-.83789063h1.1542969v-1.53515625zm11.8125 4.93359375c-.0468753.94531723-.2812479 1.69140352-.703125 2.23828125-.4218771.5468777-.9863246.8203125-1.6933594.8203125-.7304724 0-1.1992177-.3281217-1.40625-.984375-.2109386.3320329-.4521471.5791008-.7236328.7412109-.2714857.1621102-.5517564.2431641-.8408203.2431641-.5546903 0-.974608-.2265602-1.2597657-.6796875-.2851576-.45312727-.3906253-1.08007412-.3164062-1.88085938.058594-.64453447.2060535-1.21972403.4423828-1.72558593.2363293-.50586191.5410138-.90331887.9140625-1.19238281.3730488-.28906395.7646464-.43359376 1.1748047-.43359376.3164078 0 .5996081.04199177.8496094.12597657.2500012.08398479.5312484.2490222.84375.49511719l-.3046875 3.24609374c-.0742191.90234827.1757784 1.35351558.75 1.35351558.4414084 0 .7988267-.2187478 1.0722656-.65624995.2734389-.43750219.4218749-1.00780898.4453125-1.7109375.0742191-1.51953885-.2080046-2.67773039-.8466797-3.47460937-.6386751-.79687899-1.610345-1.1953125-2.9150391-1.1953125-.7851601 0-1.4824188.19433399-2.0917968.58300781-.6093781.38867382-1.089842.95019164-1.4414063 1.68457031-.3515642.73437867-.5488279 1.58202645-.5917969 2.54296875-.0468752.96875484.0703111 1.80956675.3515625 2.52246095.2812515.7128942.7099581 1.2578106 1.2861329 1.6347656.5761747.376955 1.2724568.5654297 2.0888671.5654297.3515643 0 .7040998-.0429683 1.0576172-.1289062.3535174-.085938.6474598-.197265.881836-.3339844l.2167968.6738281c-.2421887.1523445-.5634745.2773433-.9638671.375-.4003927.0976567-.805662.1464844-1.2158204.1464844-.9765673 0-1.8164027-.2197244-2.5195312-.6591797s-1.2294904-1.0722615-1.5791016-1.8984375c-.3496111-.826176-.5009768-1.79198667-.4541015-2.89746095.0468752-1.07422412.2871072-2.04003478.7207031-2.89746094s1.0214807-1.51952891 1.7636719-1.98632812 1.5800734-.70019531 2.5136718-.70019531c.9726612 0 1.8066372.21874781 2.5019532.65625.695316.43750218 1.2128889 1.06835525 1.5527343 1.89257812.3398455.82422287.4863284 1.78905697.4394532 2.89453125zm-6.0117188.49804687c-.0546877.55469028-.0029305.98046727.1552735 1.27734376.1582039.29687652.4091779.44531252.7529296.44531252.2343762 0 .4599599-.0996084.6767579-.29882815.2167979-.19921975.3955071-.48437314.5361328-.85546875l.0058593-.05273438.2695313-2.94726562c-.2187511-.11328182-.4531238-.16992188-.703125-.16992188-.4570335 0-.8349594.23241956-1.1337891.69726563-.2988296.46484607-.4853512 1.09960535-.5595703 1.90429687zm8.4433594-3.89648437.0292969.703125c.464846-.54687773 1.0917929-.8203125 1.8808593-.8203125.8867232 0 1.4902328.33984035 1.8105469 1.01953125.2109386-.30468902.4853499-.55078031.8232422-.73828125s.7373024-.28125 1.1982422-.28125c1.390632 0 2.0976561.73632076 2.1210937 2.20898437v4.24804688h-1.0839843v-4.18359375c0-.45312727-.1035146-.79199106-.3105469-1.01660156s-.5546851-.33691407-1.0429688-.33691407c-.4023457 0-.7363267.12011599-1.0019531.36035157-.2656263.24023557-.4199216.56347453-.4628906.96972656v4.20703125h-1.0898437v-4.15429688c0-.9218796-.4511674-1.3828125-1.3535157-1.3828125-.710941 0-1.1972643.30273135-1.4589843.90820313v4.62890625h-1.0839844v-6.33984375zm9.2109375 3.11132813c0-.62109686.1220691-1.17968502.3662109-1.67578126.2441419-.49609623.5839822-.8789049 1.0195313-1.1484375.435549-.26953259.9326144-.40429687 1.4912109-.40429687.8632856 0 1.5615208.29882514 2.0947266.89648437.5332058.59765924.7998047 1.39257317.7998047 2.38476563v.07617187c0 .61719059-.1181629 1.17089599-.3544922 1.66113282-.2363293.49023686-.5742166.87206896-1.0136719 1.14550776-.4394553.2734389-.9443331.4101563-1.5146484.4101563-.8593793 0-1.5556614-.2988251-2.0888672-.8964844-.5332058-.59765921-.7998047-1.38866693-.7998047-2.37304685zm1.0898437.12890624c0 .70312852.1630844 1.267576.4892579 1.69335938.3261735.4257834.7626925.6386719 1.3095703.6386719.550784 0 .9882796-.2158182 1.3125-.64746096.3242203-.43164279.4863281-1.03612893.4863281-1.81347656 0-.69531598-.1650374-1.25878691-.4951172-1.69042969-.3300798-.43164279-.7685519-.64746094-1.3154297-.64746094-.5351589 0-.9667952.2128885-1.2949218.63867187-.3281267.42578338-.4921876 1.03515229-.4921876 1.828125zm7.0664063-3.24023437.0351563.796875c.4843774-.60937805 1.1171835-.9140625 1.8984374-.9140625 1.3398505 0 2.015625.75585182 2.0273438 2.26757813v4.18945312h-1.0839844v-4.1953125c-.0039062-.45703354-.1083974-.79492078-.3134765-1.01367188-.2050792-.21875109-.5244119-.328125-.9580079-.328125-.3515642 0-.6601549.09374907-.9257812.28125-.2656263.18750094-.4726555.43359223-.6210938.73828126v4.51757812h-1.0839843v-6.33984375zm9.2871094 4.65820313c0-.29297022-.1103505-.52050701-.3310547-.68261719-.2207042-.16211019-.605466-.30175723-1.1542969-.41894531-.5488309-.11718809-.9843734-.25781168-1.3066406-.421875-.3222672-.16406333-.5605461-.35937387-.7148438-.5859375-.1542976-.22656364-.2314453-.49609219-.2314453-.80859376 0-.51953384.2197244-.95898257.6591797-1.31835937s1.0009732-.5390625 1.6845703-.5390625c.7187536 0 1.3017556.18554502 1.7490235.55664063.4472678.3710956.6708984.84570023.6708984 1.42382812h-1.0898437c0-.29687648-.1259754-.5527333-.3779297-.76757812-.2519544-.21484483-.5693341-.32226563-.9521485-.32226563-.3945332 0-.7031239.08593664-.9257812.2578125-.2226574.17187586-.3339844.39648299-.3339844.67382813 0 .26172005.1035146.45898371.3105469.59179687s.581052.25976502 1.1220703.38085937c.5410183.12109436.9794905.26562417 1.3154297.43359376.3359392.16796958.5849601.370116.7470703.60644531.1621102.2363293.243164.52441236.243164.86425781 0 .56640908-.2265602 1.0205061-.6796874 1.3623047-.4531273.3417986-1.0410121.5126953-1.7636719.5126953-.5078151 0-.9570293-.0898429-1.3476563-.2695313-.3906269-.1796883-.6962879-.4306624-.9169922-.7529296-.2207042-.32226727-.3310546-.6708966-.3310546-1.04589848h1.0839843c.0195314.36328307.1650377.65136613.4365235.86425782.2714857.21289166.6298805.31933596 1.0751953.31933596.4101583 0 .7392565-.083007.9873047-.24902346.2480481-.16601646.3720703-.38769393.3720703-.66503906zm3.9667969-6.19335938v1.53515625h1.1835937v.83789063h-1.1835937v3.93164062c0 .25390752.0527338.4443353.1582031.5712891.1054693.1269537.285155.1904296.5390625.1904296.1250006 0 .2968739-.0234372.515625-.0703124v.8789062c-.2851577.0781254-.5624987.1171875-.8320313.1171875-.4843774 0-.8496081-.1464829-1.0957031-.4394531s-.3691406-.7089817-.3691406-1.2480469v-3.93164062h-1.1542969v-.83789063h1.1542969v-1.53515625zm6.3632812 7.875c-.0625003-.1250006-.1132811-.3476546-.1523438-.6679688-.5039087.5234402-1.1054652.7851563-1.8046874.7851563-.6250032 0-1.1376934-.176756-1.538086-.5302734s-.6005859-.80175514-.6005859-1.3447266c0-.66015955.250974-1.17284974.7529297-1.53808594.5019556-.3652362 1.2080032-.54785156 2.118164-.54785156h1.0546875v-.49804688c0-.37890814-.1132801-.68066293-.3398437-.90527343-.2265637-.2246105-.5605447-.33691407-1.0019532-.33691407-.3867206 0-.7109361.09765528-.9726562.29296876-.2617201.19531347-.3925781.43163923-.3925781.70898437h-1.0898438c0-.31640783.1123036-.62206884.3369141-.91699219s.5292949-.52831945.9140625-.70019531c.3847675-.17187586.8076149-.2578125 1.2685547-.2578125.7304724 0 1.3027323.18261536 1.7167968.54785156.4140646.3652362.6289062.86816086.6445313 1.50878907v2.91796874c0 .58203418.074218 1.04492018.2226563 1.38867188v.09375zm-1.7988281-.8261719c.3398454 0 .6621078-.0878897.9667969-.26367185.304689-.17578213.5253899-.40429547.6621093-.68554687v-1.30078126h-.8496093c-1.3281317 0-1.9921876.38866799-1.9921876 1.16601563 0 .33984545.1132802.60546779.3398438.796875.2265636.19140725.5175763.28710935.8730469.28710935zm4.1542969-2.39648435c0-.98828619.2285133-1.77441114.6855468-2.35839844.4570336-.58398729 1.0624963-.87597656 1.8164063-.87597656.7734413 0 1.3769509.27343477 1.8105469.8203125l.0527343-.703125h.9902344v6.18749995c0 .8203167-.2431616 1.4667946-.7294922 1.9394532-.4863305.4726586-1.1396443.7089844-1.9599609.7089844-.4570336 0-.9042947-.0976553-1.3417969-.2929688s-.7714832-.4628889-1.0019531-.8027344l.5625-.6503906c.464846.5742216 1.0331997.8613281 1.7050781.8613281.5273464 0 .9384751-.148436 1.2333984-.4453125.2949234-.2968765.4423829-.714841.4423829-1.2539062v-.5449219c-.433596.5000025-1.0253869.75-1.7753907.75-.7421912 0-1.3427711-.2988251-1.8017578-.8964844-.4589867-.59765921-.6884765-1.41210419-.6884765-2.44335935zm1.0898437.12304687c0 .71484733.1464829 1.27636515.4394531 1.68457032.2929702.40820516.7031224.61230466 1.2304688.61230466.6835971 0 1.1855452-.31054374 1.5058594-.9316406v-2.89453125c-.332033-.60547178-.8300749-.90820313-1.4941407-.90820313-.5273464 0-.9394516.20507608-1.2363281.61523438s-.4453125 1.0175741-.4453125 1.82226562zm8.5312505 3.21679688c-.85938 0-1.558592-.2822237-2.097657-.8466797-.539065-.56445593-.808593-1.3193312-.808593-2.26464842v-.19921876c0-.62890939.120115-1.19042721.360351-1.68457031.240236-.49414309.57617-.88085798 1.007813-1.16015625.431642-.27929827.899411-.41894531 1.40332-.41894531.824223 0 1.464841.27148166 1.921875.81445313.457033.54297146.685547 1.32030744.685547 2.33203124v.45117188h-4.294922c.015625.62500312.19824 1.12988089.547851 1.51464844.349612.38476756.793943.57714846 1.333008.57714846.382815 0 .70703-.0781242.972657-.23437502.265626-.15625079.498045-.36327997.697265-.62109376l.662109.515625c-.531252.81641038-1.328119 1.22460938-2.390624 1.22460938zm-.134766-5.68359375c-.437502 0-.804686.1591781-1.101563.47753906-.296876.31836097-.480468.76464557-.550781 1.33886719h3.175781v-.08203125c-.03125-.550784-.179686-.97753755-.445312-1.28027344s-.624998-.45410156-1.078125-.45410156zm3.597656 2.34375c0-.97266111.230467-1.75487985.691406-2.34667969.46094-.59179983 1.06445-.88769531 1.810547-.88769531.742191 0 1.330076.25390371 1.763672.76171875v-3.3046875h1.083985v9h-.996094l-.052735-.6796875c-.433596.5312527-1.037105.796875-1.810547.796875-.734378 0-1.333005-.3007782-1.795898-.9023437-.462893-.60156556-.694336-1.38671396-.694336-2.3554688zm1.083984.12304687c0 .7187536.148437 1.28124797.445313 1.6875.296876.40625204.707029.60937498 1.230469.60937498.687503 0 1.189451-.30859064 1.505859-.92578122v-2.91210938c-.32422-.59765924-.822262-.89648438-1.494141-.89648438-.531252 0-.945311.20507608-1.242187.61523438s-.445313 1.0175741-.445313 1.82226562zm8.578126 3.21679688c-.85938 0-1.558592-.2822237-2.097657-.8466797-.539065-.56445593-.808593-1.3193312-.808593-2.26464842v-.19921876c0-.62890939.120115-1.19042721.360351-1.68457031.240236-.49414309.57617-.88085798 1.007813-1.16015625.431642-.27929827.899411-.41894531 1.40332-.41894531.824223 0 1.464841.27148166 1.921875.81445313.457033.54297146.685547 1.32030744.685547 2.33203124v.45117188h-4.294922c.015625.62500312.19824 1.12988089.547851 1.51464844.349612.38476756.793943.57714846 1.333008.57714846.382815 0 .70703-.0781242.972657-.23437502.265626-.15625079.498045-.36327997.697265-.62109376l.662109.515625c-.531252.81641038-1.328119 1.22460938-2.390624 1.22460938zm-.134766-5.68359375c-.437502 0-.804686.1591781-1.101563.47753906-.296876.31836097-.480468.76464557-.550781 1.33886719h3.175781v-.08203125c-.03125-.550784-.179686-.97753755-.445312-1.28027344s-.624998-.45410156-1.078125-.45410156zm3.908203 4.99804685c0-.1875009.055664-.3437493.166992-.46874998.111329-.12500062.278319-.1875.500977-.1875.222657 0 .391601.06249938.506836.1875.115235.12500068.172851.28124908.172851.46874998 0 .1796884-.057616.3300775-.172851.4511719s-.284179.1816406-.506836.1816406c-.222658 0-.389648-.0605462-.500977-.1816406-.111328-.1210944-.166992-.2714835-.166992-.4511719zm2.560547 0c0-.1875009.055663-.3437493.166992-.46874998.111329-.12500062.278319-.1875.500977-.1875.222657 0 .391601.06249938.506836.1875.115235.12500068.172851.28124908.172851.46874998 0 .1796884-.057616.3300775-.172851.4511719s-.284179.1816406-.506836.1816406c-.222658 0-.389648-.0605462-.500977-.1816406s-.166992-.2714835-.166992-.4511719zm2.43164 0c0-.1875009.055664-.3437493.166993-.46874998.111328-.12500062.278319-.1875.500976-.1875.222658 0 .391601.06249938.506836.1875.115235.12500068.172852.28124908.172852.46874998 0 .1796884-.057617.3300775-.172852.4511719s-.284178.1816406-.506836.1816406c-.222657 0-.389648-.0605462-.500976-.1816406-.111329-.1210944-.166993-.2714835-.166993-.4511719z"/><path id="g" d="m3.37060547 8h-1.06347656v-5.13720703l-1.56884766.53613281v-.9008789l2.49609375-.91845704h.13623047zm6.52587891 0h-4.3022461v-.73388672l2.13134766-2.32470703c.30761872-.34277515.52661067-.62914924.65698242-.85913086.13037174-.22998162.19555664-.4606922.19555664-.69213867 0-.30468902-.0856925-.55078031-.25708008-.73828125-.17138757-.18750094-.40209816-.28125-.69213867-.28125-.34570485 0-.61376858.10546769-.80419922.31640625-.19043064.21093855-.28564453.49950989-.28564453.86572266h-1.06787109c0-.38965039.08862216-.74047696.26586914-1.05249024s.43066241-.55444249.7602539-.72729492.70971465-.25927734 1.14038086-.25927734c.62109686 0 1.11108219.15600429 1.46997071.46801757.35888851.31201328.53833007.74340545.53833007 1.29418946 0 .31933753-.09008699.65405098-.27026367 1.00415039-.18017668.3500994-.47533974.7478005-.88549804 1.19311523l-1.56445313 1.67431641h2.97070313zm1.52490232-1.125c.1992198 0 .3530268.05639592.4614258.16918945.108399.11279354.1625977.25414954.1625977.42407227 0 .16699302-.0541987.30541937-.1625977.4152832s-.262206.16479492-.4614258.16479492c-.1904306 0-.341308-.05419867-.4526367-.16259765s-.1669922-.24755775-.1669922-.41748047c0-.16992273.0541987-.31127873.1625977-.42407227.1083989-.11279353.2607412-.16918945.4570312-.16918945zm0-3.73095703c.1992198 0 .3530268.05639592.4614258.16918945s.1625977.25414954.1625977.42407227c0 .16699302-.0541987.30541937-.1625977.4152832s-.262206.16479492-.4614258.16479492c-.1904306 0-.341308-.05419867-.4526367-.16259765s-.1669922-.24755775-.1669922-.41748047c0-.16992273.0541987-.31127874.1625977-.42407227.1083989-.11279353.2607412-.16918945.4570312-.16918945zm2.9091797 1.16894531h.6503906c.3281267-.0029297.5881338-.08788979.7800293-.25488281s.2878418-.40868983.2878418-.72509766c0-.30468902-.0798332-.54125892-.2395019-.70971679-.1596688-.16845788-.4035628-.25268555-.7316895-.25268555-.2871108 0-.5229483.08276284-.7075195.24829101-.1845712.16552818-.2768555.38159047-.2768555.64819336h-1.0678711c0-.32812664.0871574-.62695177.2614746-.89648437.1743173-.2695326.4174789-.47973557.7294922-.63061524.3120133-.15087966.661375-.22631835 1.0480957-.22631835.6386751 0 1.1403791.16039878 1.505127.48120117.3647479.32080238.5471191.76684284.5471191 1.33813476 0 .28711081-.0915518.55737178-.2746582.81079102-.1831064.25341923-.4196763.44457943-.7097168.57348633.3515643.12011778.6188956.30908074.802002.56689453s.2746582.5654279.2746582.92285156c0 .57422162-.1970195 1.0312483-.5910645 1.37109375-.3940449.33984545-.911862.50976562-1.5534668.50976562-.6152374 0-1.1191386-.16406085-1.5117187-.4921875-.3925801-.32812664-.5888672-.76464571-.5888672-1.30957031h1.0678711c0 .28125141.0944815.50976475.2834472.68554688.1889658.17578213.4431137.26367187.7624512.26367187.3310564 0 .5917959-.08788974.7822266-.26367187.1904306-.17578213.2856445-.4306624.2856445-.76464844 0-.33691575-.0996084-.5961905-.2988281-.77783203-.1992198-.18164153-.4951152-.27246094-.8876953-.27246094h-.628418zm8.0507813.99316406c0 .91992648-.1721175 1.61352306-.5163575 2.08081055s-.8679164.70092773-1.5710449.70092773c-.6914097 0-1.2121564-.22778092-1.5622558-.6833496-.3500995-.45556869-.529541-1.13012249-.5383301-2.02368164v-1.10742188c0-.91992647.1721174-1.60986098.5163574-2.06982422s.8693812-.6899414 1.5754394-.6899414c.7001989 0 1.2224104.22411885 1.5666504.67236328.34424.44824442.5207519 1.11913615.5295411 2.01269531zm-1.0678711-1.1953125c0-.60058894-.0820305-1.04077008-.2460938-1.32055664-.1640633-.27978655-.4248029-.41967773-.7822266-.41967773-.3486345 0-.6049796.13256703-.7690429.39770508-.1640633.26513804-.2504883.67895226-.2592774 1.24145507v1.45019532c0 .59765924.0834953 1.04296728.2504883 1.3359375.166993.29297021.4291975.43945312.7866211.43945312.3427752 0 .5961906-.13549669.7602539-.40649414s.2504883-.69506547.2592774-1.2722168z"/><mask id="h" fill="#fff"><path d="m.325.306h279v68h-279z" fill="#fff" fill-rule="evenodd"/></mask></defs><g fill="none" fill-rule="evenodd" transform="translate(0 11)"><g transform="translate(24)"><use fill="#000" filter="url(#b)" xlink:href="#a"/><use fill="#f7f7f7" xlink:href="#a"/></g><rect fill="url(#c)" height="273" rx="10" width="280" x="36.5" y="51.5"/><path d="m.5 256.5h328v76h-328z" fill="url(#d)"/><circle cx="92.5" cy="159.5" fill="#f4f4f4" r="25"/><g transform="translate(76.937 149.51)"><path d="m2.947 7.044h16.145v6.021h-16.145z" fill="#cf004c" transform="matrix(.99253764 -.12193864 .12193864 .99253764 -1.143858 1.418798)"/><path d="m.257 3.727h10.836v4.875h-10.836z" fill="#0065a1" transform="matrix(.99253764 -.12193864 .12193864 .99253764 -.709403 .738007)"/><g fill="#fff" transform="translate(.492 4.815)"><path d="m1.007 1.672c-.01699825-.11704523-.00881594-.2363706.024-.35.03308448-.09840534.08658608-.18871059.157-.265.076179-.0764444.16608091-.1378491.265-.181.11211764-.04757923.22966958-.0811655.35-.1.14473308-.02284062.29266787-.01465989.434.024.12274533.03048225.23522636.09293338.326.181.06311163-.10731636.15487624-.19492559.265-.253.12573231-.07280877.2654702-.11813838.41-.133.12036482-.01207018.24163518-.01207018.362 0 .10471374.02174448.20575061.05845455.3.109.08388714.0597748.1572252.13311286.217.217.06286405.09791812.10032686.20996284.109.326l.157 1.291-.639.072-.133-1.11c-.0025504-.10460553-.04598875-.20404705-.121-.277-.06887961-.05184002-.15585477-.07349358-.241-.06-.09527.00909529-.18251764.05724441-.241.133-.06134477.10128194-.08273713.22179228-.06.338l.133 1.049-.639.072-.133-1.049c-.00666686-.11690257-.05367099-.22787471-.133-.314-.15173906-.11614808-.36745953-.09518739-.494.048-.05094532.09118694-.06795056.19746972-.048.3l.133 1.11-.639.072z"/><path d="m4.625 1.513c-.02511991-.14537339-.01272903-.29475233.036-.434.03990603-.13218272.1054909-.25519682.193-.362.18886403-.22425827.45662138-.36744402.748-.4.1487436-.02258416.30053891-.0144158.446.024.13896094.03536406.26994606.09678454.386.181.11024702.08183619.20419871.18358892.277.3.07631486.12414186.12191045.26469969.133.41.02511991.14537339.01272903.29475233-.036.434-.03990603.13218272-.1054909.25519682-.193.362-.18886403.22425827-.45662138.36744402-.748.4-.1487436.02258416-.30053891.0144158-.446-.024-.13896094-.03536406-.26994606-.09678454-.386-.181-.11024702-.08183619-.20419871-.18358892-.277-.3-.06401076-.12948184-.10881467-.26759918-.133-.41m1.182.35c.0634445-.00897858.12475513-.02930255.181-.06.04987354-.0337885.09466003-.0745341.133-.121.03608999-.05037898.06066951-.10807259.072-.169.01635559-.06704667.02042132-.13650298.012-.205-.01271232-.06250966-.03285537-.12327453-.06-.181-.0265014-.0583719-.06831438-.10847837-.121-.145-.04535741-.03944033-.09902015-.06815161-.157-.084-.06296371-.01636991-.12849344-.02044429-.193-.012-.06428799.00511641-.1263857.02570129-.181.06-.04987354.0337885-.09466003.0745341-.133.121-.03608999.05037898-.06066951.10807259-.072.169-.01038353.06780966-.01440103.13644198-.012.205.00710782.0676542.02749736.13324057.06.193.0265014.0583719.06831438.10847837.121.145.04535741.03944033.09902015.06815161.157.084.06419126.00604653.12880874.00604653.193 0" fill-rule="nonzero"/><path d="m7.122.985c-.01323645-.12581925-.00099294-.25301566.036-.374.03677501-.10922288.09878625-.20823529.181-.289.0880147-.0844048.18938235-.1536727.3-.205.12420415-.05060006.2536744-.08716032.386-.109.13325601-.01427743.26783951-.01023992.4.012.11943112.01809705.23421784.05918934.338.121.09836593.06418021.1841194.14586632.253.241.06715276.1055971.10859638.22547534.121.35l.145 1.23-.639.072-.134-1.068c-.00146867-.11397451-.04952848-.22238009-.133-.3-.08231612-.06275671-.18686279-.08880294-.289-.072-.241.036-.35.181-.326.458l.133 1.073-.639.072zm-2.894 5.637c.024.012.072.036.133.06.07404193.0254546.15096851.04157895.229.048.09562566.0149827.19221283.02300378.289.024.1127982.00182951.22561554-.00217584.338-.012.10356457-.00543157.20525113-.02983635.3-.072.05726207-.02412525.09155681-.0833245.084-.145-.012-.06-.036-.109-.1-.121-.09136367-.01676355-.1841146-.02479973-.277-.024h-.253c-.12499505-.00159912-.24982577-.00960964-.374-.024-.11388705-.01302396-.22439906-.04692335-.326-.1-.09565606-.04794928-.17832921-.11827291-.241-.205-.07071456-.10384349-.11248072-.22465471-.121-.35-.01657335-.11307519-.00838452-.22840111.024-.338.03231125-.10850558.09027892-.20763373.169-.289.0963787-.09797693.21127167-.17581861.338-.229.16589194-.0684976.34061044-.11327132.519-.133.17583846-.02482044.35363941-.03285664.531-.024.13561773.00887286.26980052.03302577.4.072.0603753.02597426.11717158.05958152.169.1.04760826.04305878.07392798.10483702.072.169.00795864.04858577.00383745.09838356-.012.145-.00974985.04110037-.03048935.07877713-.06.109-.01738635.02980979-.04219021.05461365-.072.072-.024.024-.036.036-.048.036-.02588774-.01944188-.05410706-.03556721-.084-.048-.057714-.02461253-.11867396-.04077871-.181-.048-.072-.012-.169-.024-.265-.036-.11677475-.00769279-.23402636-.00367273-.35.012-.10504027.00510927-.20757946.03382024-.3.084-.04666809.03331129-.07366849.0876871-.072.145.002839.05563054.04481945.10138923.1.109.07925896.01649751.16004411.0245425.241.024l.446.012c.10965587.00004799.21897587.01212013.326.036.10080738.01863551.1982333.0523469.289.1.08623201.05193551.16024819.12185863.217.205.0648399.09696031.10248144.20953961.109.326.04027249.24904902-.04549878.50186828-.229.675-.23514669.19692787-.52613713.31514273-.832.338-.17176861.02526847-.34563246.03330841-.519.024-.13419271-.00776859-.26777919-.02379897-.4-.048-.109-.024-.205-.048-.277-.072-.05280638-.01367684-.10218729-.03819702-.145-.072zm2.254-2.429c-.02134179-.10062823.01036174-.20517439.084-.277.08475736-.06376454.18409533-.10535588.289-.121.07988049-.01206287.16111951-.01206287.241 0 .072.012.121.024.145.024l.084.663.555-.072c.11081424-.0260981.22741083-.00893051.326.048.07710802.06122719.1217371.15454253.121.253.01436941.08020123.01026543.16262291-.012.241-.012.072-.036.133-.036.157l-.868.109.1.76c.00291293.06101436.02378652.11980833.06.169.02653496.03950124.06049876.07346504.1.1.03625205.02290606.07812234.03536333.121.036h.133c.08398676-.00942358.16560786-.03380831.241-.072.072-.036.121-.072.157-.084l.374.494c-.03809293.03874582-.07850042.07514596-.121.109-.0589488.04834492-.12380146.08900384-.193.121-.08239028.04068699-.16683726.07706929-.253.109-.09656609.03654703-.19736531.06073884-.3.072-.26027432.04777773-.52890094-.00860513-.748-.157-.19353882-.14886196-.31607517-.37182011-.338-.615z"/><path d="m11.295 6.496c-.0423095.01851013-.0871305.03064215-.133.036-.072.012-.157.036-.253.06s-.217.048-.35.072-.265.048-.41.06c-.20738052.03363468-.41848437.03767494-.627.012-.14371893-.01858197-.28274027-.06367914-.41-.133-.0963147-.05580998-.17871536-.13274005-.241-.225-.05111409-.09316784-.08499057-.19479727-.1-.3-.05078035-.24521577.02642828-.49943931.205-.675.26189528-.1852332.57238946-.28954256.893-.3.109-.012.193-.024.265-.024s.133-.012.169-.012c-.0128919-.10641098-.0756367-.20034259-.169-.253-.14930887-.05973818-.31333487-.07230188-.47-.036-.08959388.00802185-.17828459.02408658-.265.048-.06309788.02377672-.12754309.0438115-.193.06l-.121.06c-.02180615.01360158-.04194345.02971142-.06.048-.012 0-.024-.012-.048-.036-.02980979-.01738635-.05461365-.04219021-.072-.072-.02702974-.03104382-.05113226-.06451954-.072-.1-.02474851-.03538903-.03737791-.07783782-.036-.121-.036-.277.241-.458.82-.531.18015683-.02196047.36204891-.02598018.543-.012.1586087.01300259.3136656.0539674.458.121.129756.06953659.2414084.16851675.326.289.093903.1496877.1517563.31913971.169.495zm-.9-.917h-.133c-.06 0-.145.012-.253.024-.08192379.00659382-.16280148.02270224-.241.048-.05144935.01471552-.09760438.04386607-.133.084-.03108048.02902982-.05209789.06721144-.06.109-.01219101.03531071-.01219101.07368929 0 .109.00334443.03428157.01142117.06793468.024.1.01339914.03558152.03888637.06531662.072.084.04845163.02668311.10191078.04302731.157.048.08791565.01214825.1770843.01214825.265 0 .084-.012.157-.024.229-.036.0496444-.00591205.0983553-.01800578.145-.036zm1.805 1.075c.012 0 .036.012.084.024s.1.024.169.036.145.012.241.024c.096489.00200201.1930091-.00200574.289-.012.0990839-.0111671.1962581-.03537659.289-.072.0809694-.03395771.1546436-.08318702.217-.145.0586034-.06051661.1003227-.13533564.121-.217.0289494-.10221739.0330636-.20987128.012-.314l-.012-.048c-.0173864.02980979-.0421902.05461365-.072.072-.0418478.03926451-.0862808.07567949-.133.109-.0655767.04129607-.1340939.07772711-.205.109-.0838771.03812125-.1733643.06243477-.265.072-.1647294.02272107-.3322489.01458248-.494-.024-.149727-.03183829-.2900547-.09789497-.41-.193-.1213842-.09648927-.2232105-.21528668-.3-.35-.080891-.15879885-.1339917-.33027695-.157-.507-.0254872-.1775617-.01322-.35850319.036-.531.0443034-.16304535.1223167-.31498381.229-.446.1109152-.13044425.2469495-.23723119.4-.314.1708505-.08487749.3541582-.14192907.543-.169.2140632-.02703293.4313775-.01070885.639.048.197036.05849257.3757456.16661361.519.314.0968719.0948811.1710524.21042493.217.338.0654972.16615178.1062646.34101359.121.519l.084.724c.0354627.22044121.0273085.44569983-.024.663-.0456604.17943148-.1276886.34757233-.241.494-.1134229.13702289-.2581681.24472427-.422.314-.1743025.08463058-.3621935.13778175-.555.157-.145.012-.277.024-.4.024-.1090659-.00107415-.2179527-.00909036-.326-.024-.0817481-.00782111-.1624936-.0239032-.241-.048-.06-.012-.109-.036-.121-.036zm.193-1.556c.0117923.1554674.0856808.29964013.205.4.1236036.08371381.2757612.11400109.422.084.1478735-.01294449.2835416-.08730799.374-.205.0989571-.1165955.1391142-.27206616.109-.422-.0127771-.15125588-.0868403-.29071155-.205-.386-.1176013-.09700013-.2721339-.13691494-.422-.109-.0764118.00928546-.1501933.03376596-.217.072-.0631717.03508843-.1170098.08481155-.157.145-.0451781.05746947-.0791051.12294855-.1.193-.0216867.07437291-.0257947.15276781-.012.229zm3.147-.037c.0152672.03874459.0354311.07537559.06.109.0375783.03748804.0830019.06617667.133.084.0648276.03045903.1339798.0506987.205.06.0959547.01207854.1930453.01207854.289 0 .0815671-.00902083.162201-.0250807.241-.048.072-.024.133-.048.193-.072.0430453-.02274057.0874645-.04277932.133-.06.036-.024.048-.036.06-.036l.338.507c-.0369879.03253565-.0775867.06071996-.121.084-.06.036-.133.072-.217.121-.1022206.04641465-.207066.08681683-.314.121-.1314587.03628322-.265051.06433761-.4.084-.1730564.02279308-.3487857.01466687-.519-.024-.1615582-.03582459-.3136111-.10571436-.446-.205-.1359228-.09800273-.2474682-.22597193-.326-.374-.0902389-.16865312-.1475905-.35292486-.169-.543-.0250117-.18156619-.0127625-.36632492.036-.543.0417159-.16403636.1200035-.31650909.229-.446.1085625-.12720631.239358-.23360471.386-.314.1615616-.08456908.3376526-.13783747.519-.157.1603377-.02061914.322887-.01657227.482.012.1321869.02609004.2587722.0751672.374.145.1014453.06528309.1877169.15155472.253.253.0578858.0970292.0988054.20321719.121.314.0165733.11307519.0083845.22840111-.024.338-.0375616.10502846-.1045625.19702456-.193.265-.1264799.09433474-.269664.163891-.422.205-.2322299.07067723-.4706253.11922684-.712.145zm-.1-.494c.217-.024.386-.06.507-.084.0917983-.0233079.1806887-.05685144.265-.1.0428104-.02227482.0777252-.05718957.1-.1.0096068-.0324189.013664-.0662286.012-.1-.0124439-.07184078-.0570001-.13407209-.121-.169-.0875859-.05033542-.191742-.06330989-.289-.036-.0797916.0111628-.1571767.0354935-.229.072-.0596754.03547692-.1095231.08532464-.145.145-.0374377.0554878-.0657933.11658735-.084.181-.0168863.05878295-.0209782.12050228-.012.181z" fill-rule="nonzero"/></g><path d="m9.894 15.424c.02416181.1517107.02416181.3062893 0 .458-.01985958.1173296-.05657241.2311731-.109.338-.08858462.1489712-.21302878.2734154-.362.362-.15849284.0937571-.33568981.1514571-.519.169-.1527488.0224262-.30843169.0142682-.458-.024-.13982353-.0329204-.27127305-.0945587-.386-.181-.11070836-.0868997-.20458672-.1933177-.277-.314-.07326832-.1351058-.12234106-.2819856-.145-.434-.02277745-.1527322-.01461573-.3084849.024-.458.03405453-.1335813.09125281-.2601621.169-.374.08115254-.103581.17878899-.1931092.289-.265.1187035-.0692094.2498585-.1144001.386-.133.12869311-.0236892.26123254-.0154484.386.024.08494849.030398.16587784.0710306.241.121l-.1-.808c-.01575241-.0852289.00612561-.1731056.06-.241.06847253-.0567718.15244921-.0916169.241-.1.06780067-.0120663.13719933-.0120663.205 0 .04097882.0043066.08147974.0123398.121.024zm-1.037.724c.12677084-.0108987.2440277-.0716852.326-.169.0794075-.1072799.10990513-.243067.084-.374-.00710782-.0676542-.02749736-.1332406-.06-.193-.0303991-.0558245-.07151831-.1050996-.121-.145-.04535741-.0394403-.09902015-.0681516-.157-.084-.06187404-.0223163-.12883812-.0264799-.193-.012-.12732914.0075214-.24367517.0745871-.314.181-.07657256.1085573-.10679622.2431246-.084.374.00954635.1332726.07536521.256183.181.338.09392343.0781545.21841724.1090938.338.084zm2.098-.482c.0103078.0382659.0310866.0728974.06.1.0323658.0295251.0691418.0538175.109.072.0534745.024745.110502.0409422.169.048.0798724.0121696.1611276.0121696.241 0 .065909-.0088209.1306375-.0249192.193-.048.06-.024.109-.036.157-.06.0390265-.014661.075737-.0348686.109-.06.024-.012.048-.024.048-.036l.289.434c-.0348362.0218406-.0682379.0458898-.1.072-.0574194.0383548-.1179667.0718064-.181.1-.072.036-.157.06-.253.1s-.205.048-.338.072c-.1447331.0228406-.2926679.0146599-.434-.024-.1353521-.028835-.2629091-.0864744-.374-.169-.1134572-.0839465-.2078597-.1909587-.277-.314-.0768061-.142147-.1260058-.2975502-.145-.458-.0250453-.1533386-.0126953-.3104576.036-.458.0370742-.1369462.1028643-.2644359.193-.374.0889963-.110102.2000414-.2003686.326-.265.1357473-.0694424.282653-.1144619.434-.133.132927-.0207894.2685583-.0167204.4.012.1104273.0234056.2164218.0642506.314.121.0807339.0588547.1536526.127741.217.205.0510429.0805962.0850727.1707753.1.265.0165518.0928349.0082721.1883953-.024.277-.0325956.0912876-.0913789.1709408-.169.229-.1051331.0776232-.2238329.1349382-.35.169-.1938327.0544979-.3913457.0949363-.591.121zm-.084-.422c.1417991-.0168108.2826487-.040842.422-.072.0769603-.0141464.1505733-.0426418.217-.084.0364291-.0180654.0659346-.0475709.084-.084.0098145-.0268567.013902-.0554695.012-.084-.0091095-.0611997-.0460319-.1147373-.1-.145-.0738633-.0391747-.1589128-.0518792-.241-.036-.064288.0051164-.1263857.0257013-.181.06-.0489427.0306916-.0903084.0720573-.121.121-.0322789.0467761-.0528555.1006184-.06.157-.0279328.0517248-.0404278.1103818-.036.169z" fill="#0065a1" fill-rule="nonzero"/><g fill="#feb620" transform="translate(14.755)"><path d="m12.229 4.944c.0093804-.3912749.0826809-.77838278.217-1.146.0839039-.2301209.1803825-.45546021.289-.675-.3434154-.48618998-.8095827-.87264992-1.351-1.12-.6065198-.27231535-1.2652114-.40883173-1.93-.4-.88600907.00153397-1.76018053.20358142-2.557.591-.78196639.35178095-1.47449222.87544807-2.026 1.532-.47821205.52281668-.75594484 1.19801909-.784 1.906.03121454.62797221.3034411 1.21970679.76 1.652.21982536.2935067.54034998.49543721.9.567.08122078.00563.16073877-.02515116.217-.084.07449959-.10846397.12402151-.23209802.145-.362.16156463-.56684677.38806574-1.11313388.675-1.628.25978363-.48849827.57996175-.94239192.953-1.351.338-.35.615-.531.832-.531.277 0 .41.338.41 1-.00887511.6557598-.18327071 1.29865008-.507 1.869-.36369568.65106765-.84165503 1.23132589-1.411 1.713-.4.338-.6.591-.6.76-.01129548.12643004.04354245.24972084.145.326.15104917.08817845.31975836.14179656.494.157 1.06831717.08108298 1.87380999 1.0045723 1.809 2.074-.0187059.5910363-.17556021 1.1694794-.458 1.689-.31905991.627207-.73405367 1.2007756-1.23 1.7-.36037183.3853236-.76988804.7215438-1.218 1-.30231077.2155665-.65559174.3486069-1.025.386h-.072c-.25215959-.470376-.37695303-.9985073-.362-1.532-.00424687-.5933121.08518703-1.1835758.265-1.749.15665398-.5130076.415138-.9891624.76-1.4l.1-.1.084-.084c.253-.217.386-.374.386-.458 0-.229-.157-.338-.458-.338-.77736599.0118678-1.53723487.2325752-2.2.639-.71372862.412219-1.32820561.9761723-1.8 1.652-.42962965.5897937-.66927869 1.2965316-.687 2.026-.02725401.9329.34578143 1.8329162 1.025 2.473.69189587.6640215 1.62254086 1.0206305 2.581.989 1.186978-.0239389 2.35167994-.3267614 3.4-.884 1.22167662-.6325402 2.3235501-1.4734971 3.256-2.485.4362546-.4505248.8317965-.9387614 1.182-1.459.3039664-.4455031.5587857-.9226188.76-1.423.1671954-.4015696.2571021-.8310861.265-1.266.0325755-.7500122-.3002461-1.46932417-.893-1.93-.7851778-.52259127-1.7098853-.79585575-2.653-.784v-.053c.6510909-.26063678 1.2734155-.5880526 1.857-.977.4746851-.31563303.8608898-.74727365 1.122-1.254-.0999022-.05746496-.1928487-.12625212-.277-.205-.2653778-.27326784-.4052023-.64456347-.386-1.025"/><path d="m16.546 4.51c-.0946086-.0571503-.2034932-.08627866-.314-.084-.1936051.05348409-.3715744.15258457-.519.289-.3054618.2674037-.6827481.43918195-1.085.494-.1028029.0152868-.2073809-.01220101-.2893801-.0760622-.0819993-.06386118-.1342629-.15852183-.1446199-.2619378.0794133.03688821.165479.05729905.253.06.2283882-.01482335.4488153-.08967887.639-.217.2725628-.16567106.5237724-.36415348.748-.591.2878576-.26916686.5249643-.5879061.7-.941.1501473-.2915247.2325293-.61319041.241-.941.0207502-.32758571-.0868484-.65038157-.3-.9-.2156546-.22824733-.5191986-.35250726-.833-.341-.5434584.01721164-1.0690587.19810458-1.508.519-.4243219.2880835-.7892827.65508123-1.075 1.081-.1115264.16607613-.2117528.33946769-.3.519 0 .012.012.012.012.024.3231071.48520975.4911947 1.05712593.482 1.64.0046794.48816396-.102745.97088949-.314 1.411.2553177.1369585.5424605.20356735.832.193.2170989-.0057687.4322654-.04247159.639-.109.2452934-.07542386.4835317-.17212452.712-.289.2594778-.13332926.5058887-.290684.736-.47.2403805-.17431085.4661302-.36795394.675-.579.0840807-.06519613.1402103-.15993712.157-.265 0-.048-.048-.109-.145-.169m-2.412-.157c.0095473-.27391772.0542465-.5454739.133-.808.0953226-.3211973.212256-.63558112.35-.941.241-.519.422-.784.543-.784.084 0 .133.1.133.3-.0018426.23905398-.0259467.47741677-.072.712-.0449286.23534242-.1136135.46552055-.205.687-.1038678.30152681-.2587899.58295727-.458.832-.1085984.13704882-.239007.25529493-.386.35-.0193255-.1157966-.0313493-.232694-.036-.35" fill-rule="nonzero"/></g></g><g fill="#000" transform="translate(134.5 143.5)"><use xlink:href="#e"/><use xlink:href="#e"/></g><g transform="translate(134.5 162.5)"><use fill="#000" xlink:href="#f"/><use fill="#d6d6d6" xlink:href="#f"/></g><rect fill="#efefef" height="7" rx="3.5" width="52" x="151.5" y="24.5"/><g transform="translate(36.175 50.194)"><g transform="translate(258.056 31.091)"><path d="m9.327 18.655h-9.327v-18.655h9.327z"/><path d="m4.664 6.218c.85789056-.00219832 1.55280168-.69710944 1.555-1.555-.00274736-.85750001-.6974984-1.55180426-1.555-1.554-.85789056.00219832-1.55280168.69710944-1.555 1.555.00219832.85789056.69710944 1.55280168 1.555 1.555zm0 1.555c-.8575016.00219574-1.55225264.69649999-1.555 1.554.00219832.8578906.69710944 1.5528017 1.555 1.555.85789056-.0021983 1.55280168-.6971094 1.555-1.555-.00219832-.85789056-.69710944-1.55280168-1.555-1.555zm0 4.664c-.8575016.0021957-1.55225264.6965-1.555 1.554.00274736.8575.6974984 1.5518043 1.555 1.554.8571111-.0027445 1.55125547-.6968889 1.554-1.554-.00219832-.8578906-.69710944-1.5528017-1.555-1.555z" fill="#fff"/></g><g transform="translate(220.746 31.091)"><path d="m18.655 18.655h-18.655v-18.655h18.655z"/><path d="m12.055 10.886h-.618l-.215-.213c.7870606-.9138169 1.2196632-2.079963 1.219-3.286 0-1.34066936-.5325788-2.62642839-1.4805752-3.57442478s-2.23375544-1.48057522-3.5744248-1.48057522c-2.79140888.00055221-5.054 2.26359107-5.054 5.055 0 2.7917994 2.26320059 5.055 5.055 5.055 1.20602103.0005741 2.37213712-.4320174 3.286-1.219l.215.213v.616l3.887 3.881 1.16-1.16-3.879-3.888zm-4.668 0c-1.93299662 0-3.5-1.56700338-3.5-3.5s1.56700338-3.5 3.5-3.5 3.5 1.56700338 3.5 3.5-1.56700338 3.5-3.5 3.5z" fill="#fff"/></g><g transform="translate(75.852 29.341)"><path d="m4.985 9.523 3.886 3.886 3.887-3.886z" fill="#fff"/><path d="m.474.965h17v19h-17z"/></g><text fill="#fff" font-family="Roboto-Regular, Roboto" font-size="15" transform="translate(54.325 30.306)"><tspan x="0" y="14">All</tspan></text><g transform="translate(11.642 29.341)"><path d="m.684.965h18v19h-18z"/><path d="m3.126 15.741h13.991v-1.554h-13.991v1.555zm0-3.886h13.991v-1.555h-13.991zm0-5.441v1.555h13.991v-1.555z" fill="#fff"/></g><g mask="url(#h)"><path d="m279.989.19h-279.819v62.182h279.819z" fill="#d14444" transform="translate(-.17 -.19)"/></g><path d="m.325.306h279v17h-279z" fill="#2f3e9e"/><path d="m188.325.306h91v17h-91z"/><g fill="#fff"><text font-family="Roboto-Medium, Roboto" font-size="9" font-weight="400" transform="translate(249.325 3.306)"><tspan x="0" y="8">12:30</tspan></text><path d="m235.325 12.306h6v3h-6z" fill-opacity=".9"/><path d="m235.325 10.306h6v2h-6z" fill-opacity=".9"/><g fill-opacity=".3"><path d="m235.325 7.306h6v3h-6z"/><path d="m235.325 5.306h6v2h-6z"/><path d="m236.325 5.306h4v1h-4z"/></g><path d="m217.171 14.768h10.882v-10.882z" opacity=".9"/><path d="m208.621 14.768 6.84-8.472c-3.994101-3.21278766-9.685899-3.21278766-13.68 0z" opacity=".9"/></g><g transform="translate(248.559 31.091)"><path d="m18.655 18.655h-18.655v-18.655h18.655z"/><path d="m12.055 10.886h-.618l-.215-.213c.7870606-.9138169 1.2196632-2.079963 1.219-3.286 0-1.34066936-.5325788-2.62642839-1.4805752-3.57442478s-2.23375544-1.48057522-3.5744248-1.48057522c-2.79140888.00055221-5.054 2.26359107-5.054 5.055 0 2.7917994 2.26320059 5.055 5.055 5.055 1.20602103.0005741 2.37213712-.4320174 3.286-1.219l.215.213v.616l3.887 3.881 1.16-1.16-3.879-3.888zm-4.668 0c-1.93299662 0-3.5-1.56700338-3.5-3.5s1.56700338-3.5 3.5-3.5 3.5 1.56700338 3.5 3.5-1.56700338 3.5-3.5 3.5z" fill="#fff"/></g><path d="m19.458 0h-17.583c-1.03484894.0016518-1.8733482.84015106-1.875 1.875v12.5c.0016518 1.0348489.84015106 1.8733482 1.875 1.875h17.583c1.0348489-.0016518 1.8733482-.8401511 1.875-1.875v-12.5c-.0016518-1.03484894-.8401511-1.8733482-1.875-1.875zm-.258 1.25-8.493 8.493-8.567-8.493zm-17.95 12.866v-11.988l6.02 5.972zm.884.884 6.024-6.024 2.111 2.093c.2438607.2428247.6381393.2428247.882 0l2.058-2.058 5.991 5.989zm17.949-.884-5.991-5.991 5.991-5.991z" fill="#fff" fill-rule="nonzero" transform="translate(17.731 32.355)"/><path d="m.325.306h279v17h-279z" fill="#ad3b3b"/><path d="m188.325.306h91v17h-91z"/><g transform="translate(249.325 3.306)"><use fill="#000" xlink:href="#g"/><use fill="#fff" xlink:href="#g"/></g><g fill="#fff"><g><path d="m235.325 12.306h6v3h-6z" fill-opacity=".9"/><path d="m235.325 10.306h6v2h-6z" fill-opacity=".9"/><g fill-opacity=".3"><path d="m235.325 7.306h6v3h-6z"/><path d="m235.325 5.306h6v2h-6z"/><path d="m236.325 5.306h4v1h-4z"/></g></g><path d="m217.171 14.768h10.882v-10.882z" opacity=".9"/><path d="m208.621 14.768 6.84-8.472c-3.994101-3.21278766-9.685899-3.21278766-13.68 0z" opacity=".9"/></g></g><rect fill="#fdb720" height="58" rx="5" width="222" x="61.498" y="200.503"/><path d="m5.731 8.756h3.515l-1.71-4.978h-.038zm.285-8.322h3.059l5.073 13.566h-3.097l-1.026-3.021h-5.073l-1.064 3.021h-3.002zm15.713 7.201c-.1773342-1.12733897-.8423276-1.691-1.995-1.691-.4306688 0-.7916652.09816569-1.083.2945-.2913348.19633432-.5288324.44966512-.7125.76-.1836676.31033489-.3134996.65233147-.3895 1.026-.0760004.37366854-.114.74416483-.114 1.1115 0 .35466844.0379996.71566483.114 1.083.0760004.3673352.1994991.6998318.3705.9975s.4021652.5414991.6935.7315c.2913348.190001.6459979.285 1.064.285.6460032 0 1.1431649-.1804982 1.4915-.5415s.5668329-.845497.6555-1.4535h2.603c-.1773342 1.3046732-.6839958 2.2989966-1.52 2.983s-1.9063268 1.026-3.211 1.026c-.7346703 0-1.4091636-.1234988-2.0235-.3705s-1.1368312-.5921644-1.5675-1.0355c-.4306688-.4433355-.7663321-.9721636-1.007-1.5865s-.361-1.28882966-.361-2.0235c0-.7600038.1108322-1.4661634.3325-2.1185.2216678-.65233659.5478312-1.21599762.9785-1.691.4306688-.47500237.9563302-.84549867 1.577-1.1115s1.329996-.399 2.128-.399c.5826696 0 1.143164.07599924 1.6815.228s1.0196645.38316512 1.444.6935c.4243355.31033489.7694987.69666436 1.0355 1.159.2660013.46233565.4179998 1.0101635.456 1.6435zm7.638-3.458h1.976v1.805h-1.976v4.864c0 .4560023.0759992.7599992.228.912s.4559977.228.912.228c.1520008 0 .297666-.0063333.437-.019s.2723327-.0316665.399-.057v2.09c-.2280011.0380002-.4813319.0633333-.76.076s-.5509987.019-.817.019c-.4180021 0-.8138315-.0284997-1.1875-.0855s-.7029986-.1678325-.988-.3325-.5098325-.3989985-.6745-.703-.247-.7029975-.247-1.197v-5.795h-1.634v-1.805h1.634v-2.945h2.698zm6.042-1.52h-2.698v-2.223h2.698zm-2.698 1.52h2.698v9.823h-2.698zm10.26 9.823h-3.002l-3.363-9.823h2.831l2.071 6.707h.038l2.071-6.707h2.679zm11.058-5.966c-.1266673-.68400342-.3514984-1.20333156-.6745-1.558s-.81383-.532-1.4725-.532c-.4306688 0-.7884986.07283261-1.0735.2185-.2850014.1456674-.5129991.32616559-.684.5415s-.291333.44333213-.361.684-.1108333.45599905-.1235.646zm-4.389 1.71c.0380002.8740044.2596646 1.5073314.665 1.9s.9879962.589 1.748.589c.5446694 0 1.0133314-.1361653 1.406-.4085s.6333329-.5604985.722-.8645h2.375c-.3800019 1.1780059-.9626627 2.0203308-1.748 2.527s-1.7353278.76-2.85.76c-.7726705 0-1.4693302-.1234988-2.09-.3705s-1.1463312-.5984977-1.577-1.0545-.7631655-1.0006635-.9975-1.634-.3515-1.3299962-.3515-2.09c0-.73467034.1203321-1.4186635.361-2.052s.5826644-1.18116435 1.026-1.6435c.4433355-.46233564.9721636-.82649867 1.5865-1.0925s1.2951629-.399 2.0425-.399c.8360042 0 1.5643302.16149839 2.185.4845.6206698.32300162 1.130498.75683061 1.5295 1.3015s.6871658 1.16532985.8645 1.862.2406669 1.4249962.19 2.185zm8.683-5.567h2.565v1.824h.038c.1266673-.30400152.2976656-.58583203.513-.8455.2153344-.25966796.4623319-.48133241.741-.665.2786681-.18366758.5763317-.32616616.893-.4275.3166682-.10133384.6459983-.152.988-.152.1773342 0 .3736656.03166635.589.095v2.508c-.1266673-.02533346-.2786658-.0474999-.456-.0665-.1773342-.01900009-.3483325-.0285-.513-.0285-.4940025 0-.9119983.08233251-1.254.247s-.617499.38949858-.8265.6745c-.209001.28500143-.3578329.6174981-.4465.9975s-.133.79166445-.133 1.235v4.427h-2.698zm12.749 0h2.546v1.33h.038c.3546684-.5066692.7821642-.89933194 1.2825-1.178s1.0734968-.418 1.7195-.418c.6206698 0 1.1874974.12033213 1.7005.361s.9024987.66499696 1.1685 1.273c.2913348-.43066882.6871642-.81066502 1.1875-1.14s1.0924966-.494 1.7765-.494c.5193359 0 1.0006644.0633327 1.444.19.4433355.1266673.8233317.32933194 1.14.608.3166682.27866806.5636658.64283109.741 1.0925.1773342.44966892.266.9911635.266 1.6245v6.574h-2.698v-5.567c0-.32933498-.0126665-.63966521-.038-.931s-.0949994-.54466559-.209-.76-.2818322-.3863327-.5035-.513-.5224981-.19-.9025-.19-.6871655.07283261-.9215.2185c-.2343345.1456674-.4179993.3356655-.551.57-.1330007.23433451-.2216664.50033185-.266.798-.0443336.29766816-.0665.59849848-.0665.9025v5.472h-2.698v-5.51c0-.29133479-.0063333-.57949857-.019-.8645-.0126667-.28500142-.0664995-.54783213-.1615-.7885s-.2533322-.4338326-.475-.5795c-.2216678-.14566739-.5478312-.2185-.9785-.2185-.1266673 0-.294499.02849972-.5035.0855-.209001.05700029-.4116657.16466588-.608.323-.1963343.15833413-.364166.38633185-.5035.684-.139334.29766816-.209.68716426-.209 1.1685v5.7h-2.698zm19.532 4.921c0 .39266863.0379996.77583147.114 1.1495.0760004.3736685.2058324.7093318.3895 1.007s.4274985.5351658.7315.7125.6839977.266 1.14.266.8391651-.0886658 1.1495-.266.5573324-.4148318.741-.7125.3134996-.6333315.3895-1.007c.0760004-.37366853.114-.75683137.114-1.1495s-.0379996-.7789981-.114-1.159-.2058324-.71566521-.3895-1.007-.4306651-.52883241-.741-.7125c-.3103349-.18366758-.6934977-.2755-1.1495-.2755s-.8359985.09183242-1.14.2755c-.3040015.18366759-.5478324.42116521-.7315.7125s-.3134996.6269981-.3895 1.007-.114.76633137-.114 1.159zm-2.698 0c0-.78533726.1203321-1.49783013.361-2.1375.2406679-.63966986.5826644-1.18433108 1.026-1.634.4433355-.44966891.9753302-.79799876 1.596-1.045.6206698-.24700123 1.3173295-.3705 2.09-.3705s1.4724969.12349877 2.0995.3705c.6270031.24700124 1.1621644.59533109 1.6055 1.045.4433355.44966892.7853321.99433014 1.026 1.634.2406679.63966987.361 1.35216274.361 2.1375s-.1203321 1.4946635-.361 2.128-.5826645 1.1748311-1.026 1.6245c-.4433356.4496689-.9784969.7948321-1.6055 1.0355s-1.3268295.361-2.0995.361-1.4693302-.1203321-2.09-.361-1.1526645-.5858311-1.596-1.0355c-.4433356-.4496689-.7853321-.9911635-1.026-1.6245s-.361-1.34266274-.361-2.128zm11.913-4.921h2.565v1.368h.057c.342002-.57000285.785331-.98483203 1.33-1.2445.544669-.25966796 1.101997-.3895 1.672-.3895.722004 0 1.314164.09816569 1.7765.2945.462336.19633432.826499.46866493 1.0925.817.266001.34833508.452833.77266417.5605 1.273.107667.50033584.1615 1.05449696.1615 1.6625v6.042h-2.698v-5.548c0-.81067072-.126665-1.415498-.38-1.8145-.253335-.39900199-.702997-.5985-1.349-.5985-.73467 0-1.266665.21849782-1.596.6555-.329335.43700219-.494 1.15582833-.494 2.1565v5.149h-2.698zm23.237 3.458c-.177334-1.12733897-.842328-1.691-1.995-1.691-.430669 0-.791665.09816569-1.083.2945-.291335.19633432-.528832.44966512-.7125.76-.183668.31033489-.3135.65233147-.3895 1.026-.076.37366854-.114.74416483-.114 1.1115 0 .35466844.038.71566483.114 1.083.076.3673352.199499.6998318.3705.9975s.402165.5414991.6935.7315c.291335.190001.645998.285 1.064.285.646003 0 1.143165-.1804982 1.4915-.5415s.566833-.845497.6555-1.4535h2.603c-.177334 1.3046732-.683996 2.2989966-1.52 2.983s-1.906327 1.026-3.211 1.026c-.73467 0-1.409164-.1234988-2.0235-.3705s-1.136831-.5921644-1.5675-1.0355c-.430669-.4433355-.766332-.9721636-1.007-1.5865s-.361-1.28882966-.361-2.0235c0-.7600038.110832-1.4661634.3325-2.1185.221668-.65233659.547831-1.21599762.9785-1.691.430669-.47500237.95633-.84549867 1.577-1.1115s1.329996-.399 2.128-.399c.58267 0 1.143164.07599924 1.6815.228s1.019665.38316512 1.444.6935c.424335.31033489.769499.69666436 1.0355 1.159.266001.46233565.418 1.0101635.456 1.6435zm6.612 1.463c0 .39266863.038.77583147.114 1.1495.076.3736685.205832.7093318.3895 1.007s.427498.5351658.7315.7125.683998.266 1.14.266.839165-.0886658 1.1495-.266.557332-.4148318.741-.7125.3135-.6333315.3895-1.007c.076-.37366853.114-.75683137.114-1.1495s-.038-.7789981-.114-1.159-.205832-.71566521-.3895-1.007-.430665-.52883241-.741-.7125c-.310335-.18366758-.693498-.2755-1.1495-.2755s-.835998.09183242-1.14.2755c-.304002.18366759-.547832.42116521-.7315.7125s-.3135.6269981-.3895 1.007-.114.76633137-.114 1.159zm-2.698 0c0-.78533726.120332-1.49783013.361-2.1375.240668-.63966986.582664-1.18433108 1.026-1.634.443336-.44966891.97533-.79799876 1.596-1.045.62067-.24700123 1.317329-.3705 2.09-.3705s1.472497.12349877 2.0995.3705c.627003.24700124 1.162164.59533109 1.6055 1.045.443336.44966892.785332.99433014 1.026 1.634.240668.63966987.361 1.35216274.361 2.1375s-.120332 1.4946635-.361 2.128-.582664 1.1748311-1.026 1.6245-.978497.7948321-1.6055 1.0355-1.326829.361-2.0995.361-1.46933-.1203321-2.09-.361-1.152664-.5858311-1.596-1.0355-.785332-.9911635-1.026-1.6245-.361-1.34266274-.361-2.128zm11.989-4.921h2.546v1.33h.038c.354668-.5066692.782164-.89933194 1.2825-1.178s1.073497-.418 1.7195-.418c.62067 0 1.187497.12033213 1.7005.361s.902499.66499696 1.1685 1.273c.291335-.43066882.687164-.81066502 1.1875-1.14s1.092497-.494 1.7765-.494c.519336 0 1.000664.0633327 1.444.19s.823332.32933194 1.14.608.563666.64283109.741 1.0925c.177334.44966892.266.9911635.266 1.6245v6.574h-2.698v-5.567c0-.32933498-.012667-.63966521-.038-.931s-.094999-.54466559-.209-.76-.281832-.3863327-.5035-.513-.522498-.19-.9025-.19-.687165.07283261-.9215.2185c-.234335.1456674-.417999.3356655-.551.57-.133001.23433451-.221666.50033185-.266.798-.044334.29766816-.0665.59849848-.0665.9025v5.472h-2.698v-5.51c0-.29133479-.006333-.57949857-.019-.8645-.012667-.28500142-.0665-.54783213-.1615-.7885s-.253332-.4338326-.475-.5795c-.221668-.14566739-.547831-.2185-.9785-.2185-.126667 0-.294499.02849972-.5035.0855-.209001.05700029-.411666.16466588-.608.323-.196334.15833413-.364166.38633185-.5035.684-.139334.29766816-.209.68716426-.209 1.1685v5.7h-2.698zm22.097 8.056c.443336 0 .813832-.0886658 1.1115-.266s.538332-.4084986.722-.6935.3135-.6174981.3895-.9975.114-.76633137.114-1.159-.041166-.7789981-.1235-1.159-.218499-.71883184-.4085-1.0165c-.190001-.29766815-.433832-.53833241-.7315-.722-.297668-.18366758-.661831-.2755-1.0925-.2755-.443336 0-.813832.09183242-1.1115.2755-.297668.18366759-.538332.42116521-.722.7125s-.3135.6269981-.3895 1.007-.114.77266464-.114 1.178c0 .39266863.041166.7789981.1235 1.159s.215332.7124986.399.9975.427498.5161658.7315.6935.671331.266 1.102.266zm-4.959-8.056h2.565v1.254h.038c.329335-.53200266.747331-.91833213 1.254-1.159s1.063997-.361 1.672-.361c.772671 0 1.437664.14566521 1.995.437s1.019665.67766426 1.387 1.159.639666 1.04183014.817 1.6815c.177334.63966987.266 1.30782985.266 2.0045 0 .65866996-.088666 1.291997-.266 1.9s-.446498 1.146331-.8075 1.615-.810664.8423319-1.349 1.121-1.168496.418-1.8905.418c-.608003 0-1.168497-.1234988-1.6815-.3705s-.934165-.6111643-1.2635-1.0925h-.038v4.655h-2.698zm15.029 0h1.976v1.805h-1.976v4.864c0 .4560023.075999.7599992.228.912s.455998.228.912.228c.152001 0 .297666-.0063333.437-.019s.272333-.0316665.399-.057v2.09c-.228001.0380002-.481332.0633333-.76.076s-.550999.019-.817.019c-.418002 0-.813831-.0284997-1.1875-.0855s-.702999-.1678325-.988-.3325-.509833-.3989985-.6745-.703-.247-.7029975-.247-1.197v-5.795h-1.634v-1.805h1.634v-2.945h2.698zm9.88 3.857c-.126667-.68400342-.351498-1.20333156-.6745-1.558s-.81383-.532-1.4725-.532c-.430669 0-.788499.07283261-1.0735.2185-.285001.1456674-.512999.32616559-.684.5415s-.291333.44333213-.361.684-.110833.45599905-.1235.646zm-4.389 1.71c.038.8740044.259665 1.5073314.665 1.9s.987996.589 1.748.589c.544669 0 1.013331-.1361653 1.406-.4085s.633333-.5604985.722-.8645h2.375c-.380002 1.1780059-.962663 2.0203308-1.748 2.527s-1.735328.76-2.85.76c-.772671 0-1.46933-.1234988-2.09-.3705s-1.146331-.5984977-1.577-1.0545-.763165-1.0006635-.9975-1.634-.3515-1.3299962-.3515-2.09c0-.73467034.120332-1.4186635.361-2.052s.582664-1.18116435 1.026-1.6435c.443336-.46233564.972164-.82649867 1.5865-1.0925s1.295163-.399 2.0425-.399c.836004 0 1.56433.16149839 2.185.4845.62067.32300162 1.130498.75683061 1.5295 1.3015s.687166 1.16532985.8645 1.862.240667 1.4249962.19 2.185z" fill="#424a4e" transform="translate(80.5 221.5)"/><g transform="matrix(.88294759 -.46947157 .46947157 .88294759 202.115731 252.875382)"><path d="m57.1774225 27.0449904c-.8025651-.0007375-1.5966981.1636716-2.333.483-.8887792-2.2626424-3.0690677-3.7531668-5.5-3.76-.8959182-.0005412-1.7799867.2047379-2.584.6-1.0119993-1.9655772-3.0352078-3.2031823-5.246-3.209-.6514867-.0000845-1.2984036.108749-1.914.322v-6.563c0-3.2684212-2.6495789-5.91800003-5.918-5.91800003-3.2684212 0-5.918 2.64957883-5.918 5.91800003v23.606l-4.262-4.876c-.03-.033-.06-.066-.092-.1-1.1104971-1.1164756-2.6192905-1.7456791-4.194-1.749h-.03c-1.5647895-.0069889-3.067243.6127912-4.172 1.721-1.957 1.957-2.065 4.863-.3 7.973 2.293 4.026 4.782 7.82 6.978 11.166 1.6 2.446 3.121 4.757 4.229 6.667.961 1.659 3.513 7.033 3.543 7.09.3299434.6957363 1.0299972 1.1402705 1.8 1.1430009h25.312c.8695041.000841 1.639932-.5602051 1.906-1.3880009.472-1.468 4.6130146-14.482 4.6130146-19.508v-13.659c.0071886-3.2780522-2.6399909-5.9435714-5.9180146-5.959z" fill="#fff"/><path d="m57.1774225 27.0449904c-.8025651-.0007375-1.5966981.1636716-2.333.483-.8887792-2.2626424-3.0690677-3.7531668-5.5-3.76-.8959182-.0005412-1.7799867.2047379-2.584.6-1.0119993-1.9655772-3.0352078-3.2031823-5.246-3.209-.6514867-.0000845-1.2984036.108749-1.914.322v-6.563c0-3.2684212-2.6495789-5.91800003-5.918-5.91800003-3.2684212 0-5.918 2.64957883-5.918 5.91800003v23.606l-4.262-4.876c-.03-.033-.06-.066-.092-.1-1.1104971-1.1164756-2.6192905-1.7456791-4.194-1.749h-.03c-1.5647895-.0069889-3.067243.6127912-4.172 1.721-1.957 1.957-2.065 4.863-.3 7.973 2.293 4.026 4.782 7.82 6.978 11.166 1.6 2.446 3.121 4.757 4.229 6.667.961 1.659 3.513 7.033 3.543 7.09.3299434.6957363 1.0299972 1.1402705 1.8 1.1430009h25.312c.8695041.000841 1.639932-.5602051 1.906-1.3880009.472-1.468 4.6130146-14.482 4.6130146-19.508v-13.659c.0071886-3.2780522-2.6399909-5.9435714-5.9180146-5.959zm-1.913 5.959c-.0225843-.6985608.3372021-1.3539435.9386899-1.7099066.6014877-.3559631 1.3491324-.3559631 1.9506202 0 .6014877.3559631.9612741 1.0113458.9386899 1.7099066v13.655c0 3.34-2.567 12.319-3.983 16.893h-22.579c-.83-1.727-2.385-4.926-3.146-6.237-1.164-2.002-2.709-4.356-4.345-6.856-2.164-3.3-4.616-7.034-6.843-10.947-.581-1.022-1.114-2.4-.351-3.163.3604077-.354358.8465777-.5514151 1.352-.548.4998356.0008299.9803893.1929798 1.343.537l7.719 8.83c.5477341.6258507 1.4256198.8474125 2.2047439.5564358s1.2968605-1.0337567 1.3002561-1.8654358v-28.941c0-1.0576253.8573747-1.915 1.915-1.915s1.915.8573747 1.915 1.915v18.687c0 1.1045695.8954305 2 2 2s2-.8954305 2-2v-6.491c-.0158716-.694416.3455189-1.3429842.944395-1.6948549.598876-.3518707 1.341334-.3518707 1.94021 0s.9602665 1.0004389.944395 1.6948549v9.1c0 1.1045695.8954305 2 2 2s2-.8954305 2-2v-6.487c-.0158716-.694416.3455189-1.3429842.944395-1.6948549.598876-.3518707 1.341334-.3518707 1.94021 0s.9602665 1.0004389.944395 1.6948549v9.1c0 1.1045695.8954305 2 2 2s2-.8954305 2-2v-5.823z" fill="#000" fill-rule="nonzero"/></g></g></svg>