<svg xmlns="http://www.w3.org/2000/svg" xmlns:xlink="http://www.w3.org/1999/xlink" width="332" height="344" viewBox="0 0 332 344">
  <defs>
    <path id="mobile-b" d="M21.5,0.5 L283.5,0.5 C295.09798,0.5 304.5,9.90202025 304.5,21.5 L304.5,308.5 L0.5,308.5 L0.5,21.5 C0.5,9.90202025 9.90202025,0.5 21.5,0.5 Z"/>
    <filter id="mobile-a" width="117.1%" height="116.9%" x="-11.8%" y="-7.8%" filterUnits="objectBoundingBox">
      <feOffset dx="-10" dy="2" in="SourceAlpha" result="shadowOffsetOuter1"/>
      <feGaussianBlur in="shadowOffsetOuter1" result="shadowBlurOuter1" stdDeviation="7"/>
      <feColorMatrix in="shadowBlurOuter1" values="0 0 0 0 0   0 0 0 0 0   0 0 0 0 0  0 0 0 0.135161911 0"/>
    </filter>
    <linearGradient id="mobile-c" x1="50%" x2="50%" y1="0%" y2="95.2%">
      <stop offset="0%" stop-color="#FAFAFA"/>
      <stop offset="100%" stop-color="#FFF"/>
    </linearGradient>
    <linearGradient id="mobile-d" x1="50%" x2="50%" y1="-7%" y2="72.9%">
      <stop offset="0%" stop-color="#FAFAFA" stop-opacity="0"/>
      <stop offset="100%" stop-color="#FAFAFA"/>
    </linearGradient>
    <path id="mobile-e" d="M4.18212891,3.3359375 L6.5625,10.7553711 L8.93554688,3.3359375 L12.3193359,3.3359375 L12.3193359,14 L9.74121094,14 L9.74121094,11.5097656 L9.99023438,6.41210938 L7.41210938,14 L5.71289062,14 L3.12744141,6.40478516 L3.37646484,11.5097656 L3.37646484,14 L0.805664062,14 L0.805664062,3.3359375 L4.18212891,3.3359375 Z M13.527832,9.96435547 C13.527832,9.17333589 13.6816391,8.46899723 13.9892578,7.85131836 C14.2968765,7.23363949 14.7387667,6.75879072 15.3149414,6.42675781 C15.8911162,6.0947249 16.5673789,5.92871094 17.34375,5.92871094 C18.5302794,5.92871094 19.4653286,6.2961389 20.1489258,7.03100586 C20.8325229,7.76587281 21.1743164,8.76561868 21.1743164,10.0302734 L21.1743164,10.1181641 C21.1743164,11.3535218 20.8313023,12.3337366 20.1452637,13.0588379 C19.4592251,13.7839392 18.5302793,14.1464844 17.3583984,14.1464844 C16.2304631,14.1464844 15.3247104,13.808353 14.6411133,13.1320801 C13.9575161,12.4558072 13.5888675,11.5390683 13.5351562,10.3818359 L13.527832,9.96435547 Z M15.9960938,10.1181641 C15.9960938,10.8505896 16.1108387,11.3876936 16.340332,11.7294922 C16.5698254,12.0712908 16.9091774,12.2421875 17.3583984,12.2421875 C18.2373091,12.2421875 18.6865233,11.5659247 18.7060547,10.2133789 L18.7060547,9.96435547 C18.7060547,8.54344993 18.2519577,7.83300781 17.34375,7.83300781 C16.5185506,7.83300781 16.0717777,8.44579465 16.003418,9.67138672 L15.9960938,10.1181641 Z M24.5288086,6.07519531 L24.609375,7.00537109 C25.1562527,6.28759407 25.9106397,5.92871094 26.8725586,5.92871094 C27.697758,5.92871094 28.3142069,6.1752905 28.7219238,6.66845703 C29.1296407,7.16162356 29.3408202,7.90380364 29.3554688,8.89501953 L29.3554688,14 L26.8798828,14 L26.8798828,8.99755859 C26.8798828,8.59716597 26.7993172,8.30297946 26.6381836,8.11499023 C26.47705,7.92700101 26.1840842,7.83300781 25.7592773,7.83300781 C25.2758765,7.83300781 24.9169934,8.0234356 24.6826172,8.40429688 L24.6826172,14 L22.2143555,14 L22.2143555,6.07519531 L24.5288086,6.07519531 Z M38.605957,11.7734375 C38.605957,11.5634755 38.4960948,11.3950202 38.2763672,11.2680664 C38.0566395,11.1411126 37.6391632,11.009278 37.0239258,10.8725586 C36.4086883,10.7358392 35.9008809,10.5563976 35.5004883,10.3342285 C35.1000957,10.1120594 34.7949229,9.84228674 34.5849609,9.52490234 C34.374999,9.20751794 34.2700195,8.84375205 34.2700195,8.43359375 C34.2700195,7.70605105 34.5703095,7.10669181 35.1708984,6.63549805 C35.7714874,6.16430428 36.5576123,5.92871094 37.5292969,5.92871094 C38.574224,5.92871094 39.4140593,6.16552498 40.0488281,6.63916016 C40.6835969,7.11279534 41.0009766,7.73534771 41.0009766,8.50683594 L38.5253906,8.50683594 C38.5253906,7.87206714 38.1909213,7.5546875 37.5219727,7.5546875 C37.2631823,7.5546875 37.0458993,7.62670826 36.8701172,7.77075195 C36.6943351,7.91479564 36.6064453,8.09423721 36.6064453,8.30908203 C36.6064453,8.52880969 36.7138661,8.70703057 36.9287109,8.84375 C37.1435558,8.98046943 37.4865699,9.092773 37.9577637,9.18066406 C38.4289574,9.26855513 38.8427717,9.37353455 39.1992188,9.49560547 C40.390631,9.90576377 40.9863281,10.6406197 40.9863281,11.7001953 C40.9863281,12.4228552 40.6652864,13.0112282 40.0231934,13.465332 C39.3811003,13.9194359 38.5498098,14.1464844 37.5292969,14.1464844 C36.8505825,14.1464844 36.2451198,14.0244153 35.7128906,13.7802734 C35.1806614,13.5361316 34.7656265,13.2041037 34.4677734,12.7841797 C34.1699204,12.3642557 34.0209961,11.9223656 34.0209961,11.4584961 L36.328125,11.4584961 C36.3378907,11.8247089 36.4599598,12.0920402 36.6943359,12.260498 C36.9287121,12.4289559 37.2290021,12.5131836 37.5952148,12.5131836 C37.9321306,12.5131836 38.1848136,12.4448249 38.3532715,12.3081055 C38.5217294,12.171386 38.605957,11.9931652 38.605957,11.7734375 Z M45.0146484,4.10498047 L45.0146484,6.07519531 L46.3183594,6.07519531 L46.3183594,7.7890625 L45.0146484,7.7890625 L45.0146484,11.4145508 C45.0146484,11.7124038 45.0683588,11.9199213 45.1757812,12.0371094 C45.2832037,12.1542975 45.4956039,12.2128906 45.8129883,12.2128906 C46.0571301,12.2128906 46.2622062,12.1982423 46.4282227,12.1689453 L46.4282227,13.934082 C45.9838845,14.0756843 45.5200219,14.1464844 45.0366211,14.1464844 C44.1870075,14.1464844 43.5595723,13.9462911 43.1542969,13.5458984 C42.7490214,13.1455058 42.5463867,12.5376017 42.5463867,11.722168 L42.5463867,7.7890625 L41.5356445,7.7890625 L41.5356445,6.07519531 L42.5463867,6.07519531 L42.5463867,4.10498047 L45.0146484,4.10498047 Z M51.7529297,14 C51.6650386,13.8388664 51.5869144,13.6020523 51.5185547,13.2895508 C51.0644509,13.8608427 50.4296916,14.1464844 49.6142578,14.1464844 C48.8671838,14.1464844 48.2324245,13.9206566 47.7099609,13.4689941 C47.1874974,13.0173317 46.9262695,12.4497104 46.9262695,11.7661133 C46.9262695,10.906734 47.2436492,10.2573264 47.878418,9.81787109 C48.5131868,9.37841577 49.4360291,9.15869141 50.6469727,9.15869141 L51.4086914,9.15869141 L51.4086914,8.74121094 C51.4086914,8.01366824 51.0937531,7.64990234 50.4638672,7.64990234 C49.8779268,7.64990234 49.5849609,7.9379854 49.5849609,8.51416016 L47.1166992,8.51416016 C47.1166992,7.74755476 47.4426237,7.12500239 48.0944824,6.64648438 C48.7463411,6.16796636 49.5776317,5.92871094 50.5883789,5.92871094 C51.5991261,5.92871094 52.397458,6.1752905 52.9833984,6.66845703 C53.5693389,7.16162356 53.8696288,7.83788633 53.8842773,8.69726562 L53.8842773,12.2055664 C53.894043,12.9331091 54.0063466,13.4897442 54.2211914,13.8754883 L54.2211914,14 L51.7529297,14 Z M50.2075195,12.3886719 C50.5151383,12.3886719 50.7702627,12.3227546 50.9729004,12.190918 C51.1755381,12.0590814 51.3208003,11.9101571 51.4086914,11.7441406 L51.4086914,10.4770508 L50.690918,10.4770508 C49.8315387,10.4770508 49.4018555,10.8627891 49.4018555,11.6342773 C49.4018555,11.8588878 49.4775383,12.0407708 49.6289062,12.1799316 C49.7802742,12.3190925 49.9731434,12.3886719 50.2075195,12.3886719 Z M54.9609375,9.97900391 C54.9609375,9.17821865 55.0927721,8.47021792 55.3564453,7.85498047 C55.6201185,7.23974302 55.9985327,6.76489425 56.4916992,6.43041992 C56.9848657,6.09594559 57.5585905,5.92871094 58.2128906,5.92871094 C59.0380901,5.92871094 59.6826149,6.20702847 60.1464844,6.76367188 L60.234375,6.07519531 L62.4755859,6.07519531 L62.4755859,13.699707 C62.4755859,14.3979527 62.313234,15.0046361 61.9885254,15.5197754 C61.6638167,16.0349147 61.1938507,16.4304185 60.5786133,16.7062988 C59.9633758,16.9821791 59.2504923,17.1201172 58.4399414,17.1201172 C57.8588838,17.1201172 57.2961453,17.010255 56.751709,16.7905273 C56.2072727,16.5707997 55.7910171,16.285158 55.5029297,15.9335938 L56.5356445,14.4833984 C56.9946312,15.0253933 57.6000939,15.2963867 58.3520508,15.2963867 C59.4458063,15.2963867 59.9926758,14.7348689 59.9926758,13.6118164 L59.9926758,13.362793 C59.5190406,13.8852565 58.9209021,14.1464844 58.1982422,14.1464844 C57.2314405,14.1464844 56.4501983,13.776615 55.8544922,13.0368652 C55.2587861,12.2971154 54.9609375,11.3071351 54.9609375,10.0668945 L54.9609375,9.97900391 Z M57.4365234,10.1328125 C57.4365234,10.7822298 57.5585925,11.2961407 57.8027344,11.6745605 C58.0468762,12.0529804 58.3886697,12.2421875 58.828125,12.2421875 C59.3603542,12.2421875 59.7485339,12.0639666 59.9926758,11.7075195 L59.9926758,8.375 C59.7534168,8.01367007 59.3701198,7.83300781 58.8427734,7.83300781 C58.4033181,7.83300781 58.0590833,8.02953905 57.8100586,8.42260742 C57.5610339,8.81567579 57.4365234,9.38573845 57.4365234,10.1328125 Z M67.7124023,14.1464844 C66.496576,14.1464844 65.5126991,13.7839392 64.7607422,13.0588379 C64.0087853,12.3337366 63.6328125,11.3901425 63.6328125,10.2280273 L63.6328125,10.0229492 C63.6328125,9.21239829 63.7829575,8.49707341 64.083252,7.87695312 C64.3835464,7.25683284 64.8217745,6.77710131 65.3979492,6.43774414 C65.974124,6.09838698 66.6577109,5.92871094 67.4487305,5.92871094 C68.5620173,5.92871094 69.4409147,6.27416647 70.0854492,6.96508789 C70.7299837,7.65600931 71.0522461,8.61913445 71.0522461,9.85449219 L71.0522461,10.8139648 L66.1450195,10.8139648 C66.2329106,11.258303 66.4257798,11.6074206 66.7236328,11.8613281 C67.0214859,12.1152356 67.4072242,12.2421875 67.8808594,12.2421875 C68.6621133,12.2421875 69.2724587,11.9687527 69.7119141,11.421875 L70.8398438,12.7548828 C70.532225,13.1796896 70.0964384,13.517821 69.5324707,13.7692871 C68.968503,14.0207532 68.3618197,14.1464844 67.7124023,14.1464844 Z M67.434082,7.83300781 C66.7114222,7.83300781 66.281739,8.31151865 66.1450195,9.26855469 L68.6352539,9.26855469 L68.6352539,9.078125 C68.6450195,8.68261521 68.5449229,8.37622179 68.3349609,8.15893555 C68.124999,7.9416493 67.824709,7.83300781 67.434082,7.83300781 Z M75.46875,9.97900391 C75.46875,8.72411482 75.7397434,7.73535518 76.2817383,7.01269531 C76.8237332,6.29003545 77.5805615,5.92871094 78.5522461,5.92871094 C79.2602574,5.92871094 79.8559546,6.20702847 80.3393555,6.76367188 L80.3393555,2.75 L82.8149414,2.75 L82.8149414,14 L80.5957031,14 L80.4711914,13.1503906 C79.9633764,13.8144564 79.3188516,14.1464844 78.5375977,14.1464844 C77.5952101,14.1464844 76.8481473,13.7851599 76.2963867,13.0625 C75.7446261,12.3398401 75.46875,11.3120184 75.46875,9.97900391 Z M77.9370117,10.1328125 C77.9370117,11.5390695 78.3471639,12.2421875 79.1674805,12.2421875 C79.7143582,12.2421875 80.1049793,12.0126976 80.3393555,11.5537109 L80.3393555,8.53613281 C80.114745,8.06738047 79.7290066,7.83300781 79.1821289,7.83300781 C78.4204063,7.83300781 78.0078128,8.44823604 77.9443359,9.67871094 L77.9370117,10.1328125 Z M88.0517578,14.1464844 C86.8359314,14.1464844 85.8520545,13.7839392 85.1000977,13.0588379 C84.3481408,12.3337366 83.972168,11.3901425 83.972168,10.2280273 L83.972168,10.0229492 C83.972168,9.21239829 84.122313,8.49707341 84.4226074,7.87695312 C84.7229019,7.25683284 85.1611299,6.77710131 85.7373047,6.43774414 C86.3134794,6.09838698 86.9970664,5.92871094 87.7880859,5.92871094 C88.9013728,5.92871094 89.7802702,6.27416647 90.4248047,6.96508789 C91.0693392,7.65600931 91.3916016,8.61913445 91.3916016,9.85449219 L91.3916016,10.8139648 L86.484375,10.8139648 C86.5722661,11.258303 86.7651352,11.6074206 87.0629883,11.8613281 C87.3608413,12.1152356 87.7465797,12.2421875 88.2202148,12.2421875 C89.0014688,12.2421875 89.6118142,11.9687527 90.0512695,11.421875 L91.1791992,12.7548828 C90.8715805,13.1796896 90.4357938,13.517821 89.8718262,13.7692871 C89.3078585,14.0207532 88.7011751,14.1464844 88.0517578,14.1464844 Z M87.7734375,7.83300781 C87.0507776,7.83300781 86.6210944,8.31151865 86.484375,9.26855469 L88.9746094,9.26855469 L88.9746094,9.078125 C88.984375,8.68261521 88.8842784,8.37622179 88.6743164,8.15893555 C88.4643544,7.9416493 88.1640645,7.83300781 87.7734375,7.83300781 Z M98.3349609,7.63525391 L99.4995117,7.63525391 C100.422368,7.63525391 100.883789,7.18359827 100.883789,6.28027344 C100.883789,5.92870918 100.773927,5.64184681 100.554199,5.41967773 C100.334472,5.19750865 100.024416,5.08642578 99.6240234,5.08642578 C99.2968734,5.08642578 99.0124524,5.18163967 98.770752,5.37207031 C98.5290515,5.56250095 98.4082031,5.79931499 98.4082031,6.08251953 L95.9399414,6.08251953 C95.9399414,5.52099329 96.0961898,5.02051001 96.4086914,4.58105469 C96.721193,4.14159937 97.1545382,3.79858522 97.7087402,3.55200195 C98.2629422,3.30541869 98.872067,3.18212891 99.5361328,3.18212891 C100.722662,3.18212891 101.65527,3.45312229 102.333984,3.99511719 C103.012699,4.53711208 103.352051,5.28173354 103.352051,6.22900391 C103.352051,6.68799058 103.211671,7.12133585 102.930908,7.52905273 C102.650145,7.93676962 102.241214,8.26757686 101.704102,8.52148438 C102.270511,8.72656353 102.714842,9.03783971 103.037109,9.45532227 C103.359377,9.87280482 103.520508,10.3891571 103.520508,11.0043945 C103.520508,11.9565477 103.154301,12.7182589 102.421875,13.2895508 C101.689449,13.8608427 100.727545,14.1464844 99.5361328,14.1464844 C98.8378871,14.1464844 98.1897003,14.0134291 97.5915527,13.7473145 C96.9934052,13.4811998 96.5405289,13.1125512 96.2329102,12.6413574 C95.9252914,12.1701637 95.7714844,11.6342803 95.7714844,11.0336914 L98.2543945,11.0336914 C98.2543945,11.3608415 98.3862292,11.6440418 98.6499023,11.8833008 C98.9135755,12.1225598 99.2382793,12.2421875 99.6240234,12.2421875 C100.058596,12.2421875 100.405272,12.1213391 100.664062,11.8796387 C100.922853,11.6379382 101.052246,11.3291034 101.052246,10.953125 C101.052246,10.4160129 100.91797,10.0351574 100.649414,9.81054688 C100.380858,9.58593638 100.009768,9.47363281 99.5361328,9.47363281 L98.3349609,9.47363281 L98.3349609,7.63525391 Z M108.640137,14.1464844 C107.42431,14.1464844 106.440433,13.7839392 105.688477,13.0588379 C104.93652,12.3337366 104.560547,11.3901425 104.560547,10.2280273 L104.560547,10.0229492 C104.560547,9.21239829 104.710692,8.49707341 105.010986,7.87695312 C105.311281,7.25683284 105.749509,6.77710131 106.325684,6.43774414 C106.901858,6.09838698 107.585445,5.92871094 108.376465,5.92871094 C109.489752,5.92871094 110.368649,6.27416647 111.013184,6.96508789 C111.657718,7.65600931 111.97998,8.61913445 111.97998,9.85449219 L111.97998,10.8139648 L107.072754,10.8139648 C107.160645,11.258303 107.353514,11.6074206 107.651367,11.8613281 C107.94922,12.1152356 108.334959,12.2421875 108.808594,12.2421875 C109.589848,12.2421875 110.200193,11.9687527 110.639648,11.421875 L111.767578,12.7548828 C111.459959,13.1796896 111.024173,13.517821 110.460205,13.7692871 C109.896237,14.0207532 109.289554,14.1464844 108.640137,14.1464844 Z M108.361816,7.83300781 C107.639157,7.83300781 107.209473,8.31151865 107.072754,9.26855469 L109.562988,9.26855469 L109.562988,9.078125 C109.572754,8.68261521 109.472657,8.37622179 109.262695,8.15893555 C109.052733,7.9416493 108.752443,7.83300781 108.361816,7.83300781 Z M109.196777,5.04248047 L107.189941,5.04248047 L105.124512,2.74267578 L107.731934,2.74267578 L109.196777,5.04248047 Z M115.305176,6.07519531 L115.385742,7.00537109 C115.947268,6.28759407 116.701655,5.92871094 117.648926,5.92871094 C118.649907,5.92871094 119.32617,6.32665618 119.677734,7.12255859 C120.214846,6.32665618 120.991206,5.92871094 122.006836,5.92871094 C123.613289,5.92871094 124.438476,6.90038091 124.482422,8.84375 L124.482422,14 L122.006836,14 L122.006836,8.99755859 C122.006836,8.59228313 121.938477,8.29687593 121.801758,8.11132812 C121.665038,7.92578032 121.416017,7.83300781 121.054688,7.83300781 C120.566404,7.83300781 120.202638,8.0502908 119.963379,8.48486328 L119.970703,8.58740234 L119.970703,14 L117.495117,14 L117.495117,9.01220703 C117.495117,8.59716589 117.4292,8.29687593 117.297363,8.11132812 C117.165527,7.92578032 116.914064,7.83300781 116.542969,7.83300781 C116.069334,7.83300781 115.708009,8.0502908 115.458984,8.48486328 L115.458984,14 L112.990723,14 L112.990723,6.07519531 L115.305176,6.07519531 Z M129.726562,14.1464844 C128.510736,14.1464844 127.526859,13.7839392 126.774902,13.0588379 C126.022945,12.3337366 125.646973,11.3901425 125.646973,10.2280273 L125.646973,10.0229492 C125.646973,9.21239829 125.797118,8.49707341 126.097412,7.87695312 C126.397707,7.25683284 126.835935,6.77710131 127.412109,6.43774414 C127.988284,6.09838698 128.671871,5.92871094 129.462891,5.92871094 C130.576177,5.92871094 131.455075,6.27416647 132.099609,6.96508789 C132.744144,7.65600931 133.066406,8.61913445 133.066406,9.85449219 L133.066406,10.8139648 L128.15918,10.8139648 C128.247071,11.258303 128.43994,11.6074206 128.737793,11.8613281 C129.035646,12.1152356 129.421384,12.2421875 129.89502,12.2421875 C130.676273,12.2421875 131.286619,11.9687527 131.726074,11.421875 L132.854004,12.7548828 C132.546385,13.1796896 132.110599,13.517821 131.546631,13.7692871 C130.982663,14.0207532 130.37598,14.1464844 129.726562,14.1464844 Z M129.448242,7.83300781 C128.725582,7.83300781 128.295899,8.31151865 128.15918,9.26855469 L130.649414,9.26855469 L130.649414,9.078125 C130.65918,8.68261521 130.559083,8.37622179 130.349121,8.15893555 C130.139159,7.9416493 129.838869,7.83300781 129.448242,7.83300781 Z"/>
    <path id="mobile-f" d="M4.51171875,9.31835938 C4.51171875,9.02538916 4.40136829,8.79785237 4.18066406,8.63574219 C3.95995983,8.473632 3.57519806,8.33398496 3.02636719,8.21679688 C2.47753632,8.09960879 2.0419938,7.9589852 1.71972656,7.79492188 C1.39745933,7.63085855 1.15918046,7.43554801 1.00488281,7.20898438 C0.850585166,6.98242074 0.7734375,6.71289219 0.7734375,6.40039062 C0.7734375,5.88085678 0.993161865,5.44140805 1.43261719,5.08203125 C1.87207251,4.72265445 2.43359033,4.54296875 3.1171875,4.54296875 C3.83594109,4.54296875 4.41894308,4.72851377 4.86621094,5.09960938 C5.3134788,5.47070498 5.53710938,5.94530961 5.53710938,6.5234375 L4.44726562,6.5234375 C4.44726562,6.22656102 4.32129032,5.9707042 4.06933594,5.75585938 C3.81738155,5.54101455 3.50000191,5.43359375 3.1171875,5.43359375 C2.72265428,5.43359375 2.41406361,5.51953039 2.19140625,5.69140625 C1.96874889,5.86328211 1.85742188,6.08788924 1.85742188,6.36523438 C1.85742188,6.62695443 1.96093646,6.82421809 2.16796875,6.95703125 C2.37500104,7.08984441 2.74902073,7.21679627 3.29003906,7.33789062 C3.83105739,7.45898498 4.26952957,7.60351479 4.60546875,7.77148438 C4.94140793,7.93945396 5.19042888,8.14160038 5.35253906,8.37792969 C5.51464925,8.61425899 5.59570312,8.90234205 5.59570312,9.2421875 C5.59570312,9.80859658 5.36914289,10.2626936 4.91601562,10.6044922 C4.46288836,10.9462908 3.87500361,11.1171875 3.15234375,11.1171875 C2.64452871,11.1171875 2.19531445,11.0273446 1.8046875,10.8476562 C1.41406055,10.6679679 1.10839954,10.4169938 0.887695312,10.0947266 C0.666991084,9.77245933 0.556640625,9.42383 0.556640625,9.04882812 L1.640625,9.04882812 C1.66015635,9.41211119 1.80566271,9.70019425 2.07714844,9.91308594 C2.34863417,10.1259776 2.70702902,10.2324219 3.15234375,10.2324219 C3.56250205,10.2324219 3.89160032,10.1494149 4.13964844,9.98339844 C4.38769655,9.81738198 4.51171875,9.59570451 4.51171875,9.31835938 Z M10.921875,10.3730469 C10.4999979,10.8691431 9.88086346,11.1171875 9.06445312,11.1171875 C8.3886685,11.1171875 7.87402521,10.9209004 7.52050781,10.5283203 C7.16699042,10.1357402 6.98828127,9.55469135 6.984375,8.78515625 L6.984375,4.66015625 L8.06835938,4.66015625 L8.06835938,8.75585938 C8.06835938,9.71680168 8.45898047,10.1972656 9.24023438,10.1972656 C10.0683635,10.1972656 10.6191393,9.88867496 10.8925781,9.27148438 L10.8925781,4.66015625 L11.9765625,4.66015625 L11.9765625,11 L10.9453125,11 L10.921875,10.3730469 Z M18.9785156,7.90039062 C18.9785156,8.8652392 18.7578147,9.64257518 18.3164062,10.2324219 C17.8749978,10.8222686 17.2773475,11.1171875 16.5234375,11.1171875 C15.7539024,11.1171875 15.1484397,10.8730493 14.7070312,10.3847656 L14.7070312,13.4375 L13.6230469,13.4375 L13.6230469,4.66015625 L14.6132812,4.66015625 L14.6660156,5.36328125 C15.1074241,4.81640352 15.7206992,4.54296875 16.5058594,4.54296875 C17.2675819,4.54296875 17.870115,4.83007525 18.3134766,5.40429688 C18.7568382,5.9785185 18.9785156,6.77733863 18.9785156,7.80078125 L18.9785156,7.90039062 Z M17.8945312,7.77734375 C17.8945312,7.06249643 17.742189,6.49804895 17.4375,6.08398438 C17.132811,5.6699198 16.7148464,5.46289062 16.1835938,5.46289062 C15.5273405,5.46289062 15.0351579,5.75390334 14.7070312,6.3359375 L14.7070312,9.36523438 C15.0312516,9.94336227 15.5273404,10.2324219 16.1953125,10.2324219 C16.7148463,10.2324219 17.1279282,10.0263692 17.4345703,9.61425781 C17.7412125,9.20214638 17.8945312,8.58984781 17.8945312,7.77734375 Z M25.7109375,7.90039062 C25.7109375,8.8652392 25.4902366,9.64257518 25.0488281,10.2324219 C24.6074197,10.8222686 24.0097694,11.1171875 23.2558594,11.1171875 C22.4863243,11.1171875 21.8808616,10.8730493 21.4394531,10.3847656 L21.4394531,13.4375 L20.3554688,13.4375 L20.3554688,4.66015625 L21.3457031,4.66015625 L21.3984375,5.36328125 C21.839846,4.81640352 22.4531211,4.54296875 23.2382812,4.54296875 C24.0000038,4.54296875 24.6025368,4.83007525 25.0458984,5.40429688 C25.48926,5.9785185 25.7109375,6.77733863 25.7109375,7.80078125 L25.7109375,7.90039062 Z M24.6269531,7.77734375 C24.6269531,7.06249643 24.4746109,6.49804895 24.1699219,6.08398438 C23.8652329,5.6699198 23.4472683,5.46289062 22.9160156,5.46289062 C22.2597623,5.46289062 21.7675798,5.75390334 21.4394531,6.3359375 L21.4394531,9.36523438 C21.7636735,9.94336227 22.2597623,10.2324219 22.9277344,10.2324219 C23.4472682,10.2324219 23.86035,10.0263692 24.1669922,9.61425781 C24.4736343,9.20214638 24.6269531,8.58984781 24.6269531,7.77734375 Z M26.8007812,7.77148438 C26.8007812,7.15038752 26.9228503,6.59179936 27.1669922,6.09570312 C27.411134,5.59960689 27.7509744,5.21679822 28.1865234,4.94726562 C28.6220725,4.67773303 29.1191378,4.54296875 29.6777344,4.54296875 C30.5410199,4.54296875 31.2392551,4.84179389 31.7724609,5.43945312 C32.3056667,6.03711236 32.5722656,6.83202629 32.5722656,7.82421875 L32.5722656,7.90039062 C32.5722656,8.51758121 32.4541027,9.07128661 32.2177734,9.56152344 C31.9814441,10.0517603 31.6435569,10.4335924 31.2041016,10.7070312 C30.7646462,10.9804701 30.2597685,11.1171875 29.6894531,11.1171875 C28.8300738,11.1171875 28.1337917,10.8183624 27.6005859,10.2207031 C27.0673801,9.62304389 26.8007812,8.83203617 26.8007812,7.84765625 L26.8007812,7.77148438 Z M27.890625,7.90039062 C27.890625,8.60351914 28.0537093,9.16796662 28.3798828,9.59375 C28.7060563,10.0195334 29.1425754,10.2324219 29.6894531,10.2324219 C30.2402371,10.2324219 30.6777328,10.0166037 31.0019531,9.58496094 C31.3261735,9.15331815 31.4882812,8.54883201 31.4882812,7.77148438 C31.4882812,7.0761684 31.3232438,6.51269747 30.9931641,6.08105469 C30.6630843,5.6494119 30.2246121,5.43359375 29.6777344,5.43359375 C29.1425754,5.43359375 28.7109391,5.64648225 28.3828125,6.07226562 C28.0546859,6.498049 27.890625,7.10741791 27.890625,7.90039062 Z M36.9960938,5.6328125 C36.8320304,5.60546861 36.6542978,5.59179688 36.4628906,5.59179688 C35.7519496,5.59179688 35.2695325,5.89452822 35.015625,6.5 L35.015625,11 L33.9316406,11 L33.9316406,4.66015625 L34.9863281,4.66015625 L35.0039062,5.39257812 C35.3593768,4.82616904 35.863278,4.54296875 36.515625,4.54296875 C36.7265636,4.54296875 36.8867182,4.57031223 36.9960938,4.625 L36.9960938,5.6328125 Z M39.7558594,3.125 L39.7558594,4.66015625 L40.9394531,4.66015625 L40.9394531,5.49804688 L39.7558594,5.49804688 L39.7558594,9.4296875 C39.7558594,9.68359502 39.8085932,9.8740228 39.9140625,10.0009766 C40.0195318,10.1279303 40.1992175,10.1914062 40.453125,10.1914062 C40.5781256,10.1914062 40.7499989,10.167969 40.96875,10.1210938 L40.96875,11 C40.6835923,11.0781254 40.4062513,11.1171875 40.1367188,11.1171875 C39.6523413,11.1171875 39.2871106,10.9707046 39.0410156,10.6777344 C38.7949206,10.3847642 38.671875,9.9687527 38.671875,9.4296875 L38.671875,5.49804688 L37.5175781,5.49804688 L37.5175781,4.66015625 L38.671875,4.66015625 L38.671875,3.125 L39.7558594,3.125 Z M51.5683594,8.05859375 C51.5214841,9.00391098 51.2871115,9.74999727 50.8652344,10.296875 C50.4433573,10.8437527 49.8789098,11.1171875 49.171875,11.1171875 C48.4414026,11.1171875 47.9726573,10.7890658 47.765625,10.1328125 C47.5546864,10.4648454 47.3134779,10.7119133 47.0419922,10.8740234 C46.7705065,11.0361336 46.4902358,11.1171875 46.2011719,11.1171875 C45.6464816,11.1171875 45.2265639,10.8906273 44.9414062,10.4375 C44.6562486,9.98437273 44.5507809,9.35742588 44.625,8.55664062 C44.683594,7.91210615 44.8310535,7.33691659 45.0673828,6.83105469 C45.3037121,6.32519278 45.6083966,5.92773582 45.9814453,5.63867188 C46.3544941,5.34960793 46.7460917,5.20507812 47.15625,5.20507812 C47.4726578,5.20507812 47.7558581,5.24706989 48.0058594,5.33105469 C48.2558606,5.41503948 48.5371078,5.58007689 48.8496094,5.82617188 L48.5449219,9.07226562 C48.4707028,9.97461389 48.7207003,10.4257812 49.2949219,10.4257812 C49.7363303,10.4257812 50.0937486,10.2070334 50.3671875,9.76953125 C50.6406264,9.33202906 50.7890624,8.76172227 50.8125,8.05859375 C50.8867191,6.5390549 50.6044954,5.38086336 49.9658203,4.58398438 C49.3271452,3.78710539 48.3554753,3.38867188 47.0507812,3.38867188 C46.2656211,3.38867188 45.5683624,3.58300587 44.9589844,3.97167969 C44.3496063,4.36035351 43.8691424,4.92187133 43.5175781,5.65625 C43.1660139,6.39062867 42.9687502,7.23827645 42.9257812,8.19921875 C42.878906,9.16797359 42.9960923,10.0087855 43.2773437,10.7216797 C43.5585952,11.4345739 43.9873018,11.9794903 44.5634766,12.3564453 C45.1396513,12.7334003 45.8359334,12.921875 46.6523437,12.921875 C47.003908,12.921875 47.3564435,12.8789067 47.7099609,12.7929688 C48.0634783,12.7070308 48.3574207,12.5957038 48.5917969,12.4589844 L48.8085937,13.1328125 C48.566405,13.285157 48.2451192,13.4101558 47.8447266,13.5078125 C47.4443339,13.6054692 47.0390646,13.6542969 46.6289062,13.6542969 C45.6523389,13.6542969 44.8125035,13.4345725 44.109375,12.9951172 C43.4062465,12.5556619 42.8798846,11.9228557 42.5302734,11.0966797 C42.1806623,10.2705037 42.0292966,9.30469303 42.0761719,8.19921875 C42.1230471,7.12499463 42.3632791,6.15918397 42.796875,5.30175781 C43.2304709,4.44433165 43.8183557,3.7822289 44.5605469,3.31542969 C45.3027381,2.84863048 46.1406203,2.61523438 47.0742187,2.61523438 C48.0468799,2.61523438 48.8808559,2.83398219 49.5761719,3.27148438 C50.2714879,3.70898656 50.7890608,4.33983963 51.1289062,5.1640625 C51.4687517,5.98828537 51.6152346,6.95311947 51.5683594,8.05859375 Z M45.5566406,8.55664062 C45.5019529,9.1113309 45.5537101,9.53710789 45.7119141,9.83398438 C45.870118,10.1308609 46.121092,10.2792969 46.4648437,10.2792969 C46.6992199,10.2792969 46.9248036,10.1796885 47.1416016,9.98046875 C47.3583995,9.781249 47.5371087,9.49609561 47.6777344,9.125 L47.6835937,9.07226562 L47.953125,6.125 C47.7343739,6.01171818 47.5000012,5.95507812 47.25,5.95507812 C46.7929665,5.95507812 46.4150406,6.18749768 46.1162109,6.65234375 C45.8173813,7.11718982 45.6308597,7.7519491 45.5566406,8.55664062 Z M54,4.66015625 L54.0292969,5.36328125 C54.4941429,4.81640352 55.1210898,4.54296875 55.9101562,4.54296875 C56.7968794,4.54296875 57.400389,4.8828091 57.7207031,5.5625 C57.9316417,5.25781098 58.206053,5.01171969 58.5439453,4.82421875 C58.8818376,4.63671781 59.2812477,4.54296875 59.7421875,4.54296875 C61.1328195,4.54296875 61.8398436,5.27928951 61.8632812,6.75195312 L61.8632812,11 L60.7792969,11 L60.7792969,6.81640625 C60.7792969,6.36327898 60.6757823,6.02441519 60.46875,5.79980469 C60.2617177,5.57519419 59.9140649,5.46289062 59.4257812,5.46289062 C59.0234355,5.46289062 58.6894545,5.58300661 58.4238281,5.82324219 C58.1582018,6.06347776 58.0039065,6.38671672 57.9609375,6.79296875 L57.9609375,11 L56.8710938,11 L56.8710938,6.84570312 C56.8710938,5.92382352 56.4199264,5.46289062 55.5175781,5.46289062 C54.8066371,5.46289062 54.3203138,5.76562197 54.0585938,6.37109375 L54.0585938,11 L52.9746094,11 L52.9746094,4.66015625 L54,4.66015625 Z M63.2109375,7.77148438 C63.2109375,7.15038752 63.3330066,6.59179936 63.5771484,6.09570312 C63.8212903,5.59960689 64.1611306,5.21679822 64.5966797,4.94726562 C65.0322287,4.67773303 65.5292941,4.54296875 66.0878906,4.54296875 C66.9511762,4.54296875 67.6494114,4.84179389 68.1826172,5.43945312 C68.715823,6.03711236 68.9824219,6.83202629 68.9824219,7.82421875 L68.9824219,7.90039062 C68.9824219,8.51758121 68.864259,9.07128661 68.6279297,9.56152344 C68.3916004,10.0517603 68.0537131,10.4335924 67.6142578,10.7070312 C67.1748025,10.9804701 66.6699247,11.1171875 66.0996094,11.1171875 C65.2402301,11.1171875 64.543948,10.8183624 64.0107422,10.2207031 C63.4775364,9.62304389 63.2109375,8.83203617 63.2109375,7.84765625 L63.2109375,7.77148438 Z M64.3007812,7.90039062 C64.3007812,8.60351914 64.4638656,9.16796662 64.7900391,9.59375 C65.1162126,10.0195334 65.5527316,10.2324219 66.0996094,10.2324219 C66.6503934,10.2324219 67.087889,10.0166037 67.4121094,9.58496094 C67.7363297,9.15331815 67.8984375,8.54883201 67.8984375,7.77148438 C67.8984375,7.0761684 67.7334001,6.51269747 67.4033203,6.08105469 C67.0732405,5.6494119 66.6347684,5.43359375 66.0878906,5.43359375 C65.5527317,5.43359375 65.1210954,5.64648225 64.7929688,6.07226562 C64.4648421,6.498049 64.3007812,7.10741791 64.3007812,7.90039062 Z M71.3671875,4.66015625 L71.4023438,5.45703125 C71.8867212,4.8476532 72.5195273,4.54296875 73.3007812,4.54296875 C74.6406317,4.54296875 75.3164062,5.29882057 75.328125,6.81054688 L75.328125,11 L74.2441406,11 L74.2441406,6.8046875 C74.2402344,6.34765396 74.1357432,6.00976672 73.9306641,5.79101562 C73.7255849,5.57226453 73.4062522,5.46289062 72.9726562,5.46289062 C72.621092,5.46289062 72.3125013,5.55663969 72.046875,5.74414062 C71.7812487,5.93164156 71.5742195,6.17773285 71.4257812,6.48242188 L71.4257812,11 L70.3417969,11 L70.3417969,4.66015625 L71.3671875,4.66015625 Z M80.6542969,9.31835938 C80.6542969,9.02538916 80.5439464,8.79785237 80.3232422,8.63574219 C80.102538,8.473632 79.7177762,8.33398496 79.1689453,8.21679688 C78.6201144,8.09960879 78.1845719,7.9589852 77.8623047,7.79492188 C77.5400375,7.63085855 77.3017586,7.43554801 77.1474609,7.20898438 C76.9931633,6.98242074 76.9160156,6.71289219 76.9160156,6.40039062 C76.9160156,5.88085678 77.13574,5.44140805 77.5751953,5.08203125 C78.0146506,4.72265445 78.5761685,4.54296875 79.2597656,4.54296875 C79.9785192,4.54296875 80.5615212,4.72851377 81.0087891,5.09960938 C81.4560569,5.47070498 81.6796875,5.94530961 81.6796875,6.5234375 L80.5898438,6.5234375 C80.5898438,6.22656102 80.4638684,5.9707042 80.2119141,5.75585938 C79.9599597,5.54101455 79.64258,5.43359375 79.2597656,5.43359375 C78.8652324,5.43359375 78.5566417,5.51953039 78.3339844,5.69140625 C78.111327,5.86328211 78,6.08788924 78,6.36523438 C78,6.62695443 78.1035146,6.82421809 78.3105469,6.95703125 C78.5175792,7.08984441 78.8915989,7.21679627 79.4326172,7.33789062 C79.9736355,7.45898498 80.4121077,7.60351479 80.7480469,7.77148438 C81.0839861,7.93945396 81.333007,8.14160038 81.4951172,8.37792969 C81.6572274,8.61425899 81.7382812,8.90234205 81.7382812,9.2421875 C81.7382812,9.80859658 81.511721,10.2626936 81.0585938,10.6044922 C80.6054665,10.9462908 80.0175817,11.1171875 79.2949219,11.1171875 C78.7871068,11.1171875 78.3378926,11.0273446 77.9472656,10.8476562 C77.5566387,10.6679679 77.2509777,10.4169938 77.0302734,10.0947266 C76.8095692,9.77245933 76.6992188,9.42383 76.6992188,9.04882812 L77.7832031,9.04882812 C77.8027345,9.41211119 77.9482408,9.70019425 78.2197266,9.91308594 C78.4912123,10.1259776 78.8496071,10.2324219 79.2949219,10.2324219 C79.7050802,10.2324219 80.0341784,10.1494149 80.2822266,9.98339844 C80.5302747,9.81738198 80.6542969,9.59570451 80.6542969,9.31835938 Z M84.6210938,3.125 L84.6210938,4.66015625 L85.8046875,4.66015625 L85.8046875,5.49804688 L84.6210938,5.49804688 L84.6210938,9.4296875 C84.6210938,9.68359502 84.6738276,9.8740228 84.7792969,10.0009766 C84.8847662,10.1279303 85.0644519,10.1914062 85.3183594,10.1914062 C85.44336,10.1914062 85.6152333,10.167969 85.8339844,10.1210938 L85.8339844,11 C85.5488267,11.0781254 85.2714857,11.1171875 85.0019531,11.1171875 C84.5175757,11.1171875 84.152345,10.9707046 83.90625,10.6777344 C83.660155,10.3847642 83.5371094,9.9687527 83.5371094,9.4296875 L83.5371094,5.49804688 L82.3828125,5.49804688 L82.3828125,4.66015625 L83.5371094,4.66015625 L83.5371094,3.125 L84.6210938,3.125 Z M90.984375,11 C90.9218747,10.8749994 90.8710939,10.6523454 90.8320312,10.3320312 C90.3281225,10.8554714 89.726566,11.1171875 89.0273438,11.1171875 C88.4023406,11.1171875 87.8896504,10.9404315 87.4892578,10.5869141 C87.0888652,10.2333967 86.8886719,9.78515896 86.8886719,9.2421875 C86.8886719,8.58202795 87.1396459,8.06933776 87.6416016,7.70410156 C88.1435572,7.33886536 88.8496048,7.15625 89.7597656,7.15625 L90.8144531,7.15625 L90.8144531,6.65820312 C90.8144531,6.27929498 90.701173,5.97754019 90.4746094,5.75292969 C90.2480457,5.52831919 89.9140647,5.41601562 89.4726562,5.41601562 C89.0859356,5.41601562 88.7617201,5.5136709 88.5,5.70898438 C88.2382799,5.90429785 88.1074219,6.14062361 88.1074219,6.41796875 L87.0175781,6.41796875 C87.0175781,6.10156092 87.1298817,5.79589991 87.3544922,5.50097656 C87.5791027,5.20605321 87.8837871,4.97265711 88.2685547,4.80078125 C88.6533222,4.62890539 89.0761696,4.54296875 89.5371094,4.54296875 C90.2675818,4.54296875 90.8398417,4.72558411 91.2539062,5.09082031 C91.6679708,5.45605651 91.8828124,5.95898117 91.8984375,6.59960938 L91.8984375,9.51757812 C91.8984375,10.0996123 91.9726555,10.5624983 92.1210938,10.90625 L92.1210938,11 L90.984375,11 Z M89.1855469,10.1738281 C89.5253923,10.1738281 89.8476547,10.0859384 90.1523438,9.91015625 C90.4570328,9.73437412 90.6777337,9.50586078 90.8144531,9.22460938 L90.8144531,7.92382812 L89.9648438,7.92382812 C88.6367121,7.92382812 87.9726562,8.31249611 87.9726562,9.08984375 C87.9726562,9.4296892 88.0859364,9.69531154 88.3125,9.88671875 C88.5390636,10.078126 88.8300763,10.1738281 89.1855469,10.1738281 Z M93.3398438,7.77734375 C93.3398438,6.78905756 93.5683571,6.00293261 94.0253906,5.41894531 C94.4824242,4.83495802 95.0878869,4.54296875 95.8417969,4.54296875 C96.6152382,4.54296875 97.2187478,4.81640352 97.6523438,5.36328125 L97.7050781,4.66015625 L98.6953125,4.66015625 L98.6953125,10.8476562 C98.6953125,11.6679729 98.4521509,12.3144508 97.9658203,12.7871094 C97.4794898,13.259768 96.826176,13.4960938 96.0058594,13.4960938 C95.5488258,13.4960938 95.1015647,13.3984385 94.6640625,13.203125 C94.2265603,13.0078115 93.8925793,12.7402361 93.6621094,12.4003906 L94.2246094,11.75 C94.6894554,12.3242216 95.2578091,12.6113281 95.9296875,12.6113281 C96.4570339,12.6113281 96.8681626,12.4628921 97.1630859,12.1660156 C97.4580093,11.8691391 97.6054688,11.4511746 97.6054688,10.9121094 L97.6054688,10.3671875 C97.1718728,10.86719 96.5800819,11.1171875 95.8300781,11.1171875 C95.0878869,11.1171875 94.487307,10.8183624 94.0283203,10.2207031 C93.5693336,9.62304389 93.3398438,8.80859891 93.3398438,7.77734375 Z M94.4296875,7.90039062 C94.4296875,8.61523795 94.5761704,9.17675577 94.8691406,9.58496094 C95.1621108,9.9931661 95.572263,10.1972656 96.0996094,10.1972656 C96.7832065,10.1972656 97.2851546,9.88672186 97.6054688,9.265625 L97.6054688,6.37109375 C97.2734358,5.76562197 96.7753939,5.46289062 96.1113281,5.46289062 C95.5839817,5.46289062 95.1718765,5.6679667 94.875,6.078125 C94.5781235,6.4882833 94.4296875,7.0956991 94.4296875,7.90039062 Z M102.960938,11.1171875 C102.101558,11.1171875 101.402346,10.8349638 100.863281,10.2705078 C100.324216,9.70605187 100.054688,8.9511766 100.054688,8.00585938 L100.054688,7.80664062 C100.054688,7.17773123 100.174803,6.61621341 100.415039,6.12207031 C100.655275,5.62792722 100.991209,5.24121233 101.422852,4.96191406 C101.854494,4.68261579 102.322263,4.54296875 102.826172,4.54296875 C103.650395,4.54296875 104.291013,4.81445041 104.748047,5.35742188 C105.20508,5.90039334 105.433594,6.67772932 105.433594,7.68945312 L105.433594,8.140625 L101.138672,8.140625 C101.154297,8.76562812 101.336912,9.27050589 101.686523,9.65527344 C102.036135,10.040041 102.480466,10.2324219 103.019531,10.2324219 C103.402346,10.2324219 103.726561,10.1542977 103.992188,9.99804688 C104.257814,9.84179609 104.490233,9.63476691 104.689453,9.37695312 L105.351562,9.89257812 C104.82031,10.7089885 104.023443,11.1171875 102.960938,11.1171875 Z M102.826172,5.43359375 C102.38867,5.43359375 102.021486,5.59277185 101.724609,5.91113281 C101.427733,6.22949378 101.244141,6.67577838 101.173828,7.25 L104.349609,7.25 L104.349609,7.16796875 C104.318359,6.61718475 104.169923,6.1904312 103.904297,5.88769531 C103.638671,5.58495942 103.279299,5.43359375 102.826172,5.43359375 Z M106.423828,7.77734375 C106.423828,6.80468264 106.654295,6.0224639 107.115234,5.43066406 C107.576174,4.83886423 108.179684,4.54296875 108.925781,4.54296875 C109.667972,4.54296875 110.255857,4.79687246 110.689453,5.3046875 L110.689453,2 L111.773438,2 L111.773438,11 L110.777344,11 L110.724609,10.3203125 C110.291013,10.8515652 109.687504,11.1171875 108.914062,11.1171875 C108.179684,11.1171875 107.581057,10.8164093 107.118164,10.2148438 C106.655271,9.61327824 106.423828,8.82812984 106.423828,7.859375 L106.423828,7.77734375 Z M107.507812,7.90039062 C107.507812,8.61914422 107.656249,9.18163859 107.953125,9.58789062 C108.250001,9.99414266 108.660154,10.1972656 109.183594,10.1972656 C109.871097,10.1972656 110.373045,9.88867496 110.689453,9.27148438 L110.689453,6.359375 C110.365233,5.76171576 109.867191,5.46289062 109.195312,5.46289062 C108.66406,5.46289062 108.250001,5.6679667 107.953125,6.078125 C107.656249,6.4882833 107.507812,7.0956991 107.507812,7.90039062 Z M116.085938,11.1171875 C115.226558,11.1171875 114.527346,10.8349638 113.988281,10.2705078 C113.449216,9.70605187 113.179688,8.9511766 113.179688,8.00585938 L113.179688,7.80664062 C113.179688,7.17773123 113.299803,6.61621341 113.540039,6.12207031 C113.780275,5.62792722 114.116209,5.24121233 114.547852,4.96191406 C114.979494,4.68261579 115.447263,4.54296875 115.951172,4.54296875 C116.775395,4.54296875 117.416013,4.81445041 117.873047,5.35742188 C118.33008,5.90039334 118.558594,6.67772932 118.558594,7.68945312 L118.558594,8.140625 L114.263672,8.140625 C114.279297,8.76562812 114.461912,9.27050589 114.811523,9.65527344 C115.161135,10.040041 115.605466,10.2324219 116.144531,10.2324219 C116.527346,10.2324219 116.851561,10.1542977 117.117188,9.99804688 C117.382814,9.84179609 117.615233,9.63476691 117.814453,9.37695312 L118.476562,9.89257812 C117.94531,10.7089885 117.148443,11.1171875 116.085938,11.1171875 Z M115.951172,5.43359375 C115.51367,5.43359375 115.146486,5.59277185 114.849609,5.91113281 C114.552733,6.22949378 114.369141,6.67577838 114.298828,7.25 L117.474609,7.25 L117.474609,7.16796875 C117.443359,6.61718475 117.294923,6.1904312 117.029297,5.88769531 C116.763671,5.58495942 116.404299,5.43359375 115.951172,5.43359375 Z M119.859375,10.4316406 C119.859375,10.2441397 119.915039,10.0878913 120.026367,9.96289062 C120.137696,9.83789 120.304686,9.77539062 120.527344,9.77539062 C120.750001,9.77539062 120.918945,9.83789 121.03418,9.96289062 C121.149415,10.0878913 121.207031,10.2441397 121.207031,10.4316406 C121.207031,10.611329 121.149415,10.7617181 121.03418,10.8828125 C120.918945,11.0039069 120.750001,11.0644531 120.527344,11.0644531 C120.304686,11.0644531 120.137696,11.0039069 120.026367,10.8828125 C119.915039,10.7617181 119.859375,10.611329 119.859375,10.4316406 Z M122.419922,10.4316406 C122.419922,10.2441397 122.475585,10.0878913 122.586914,9.96289062 C122.698243,9.83789 122.865233,9.77539062 123.087891,9.77539062 C123.310548,9.77539062 123.479492,9.83789 123.594727,9.96289062 C123.709962,10.0878913 123.767578,10.2441397 123.767578,10.4316406 C123.767578,10.611329 123.709962,10.7617181 123.594727,10.8828125 C123.479492,11.0039069 123.310548,11.0644531 123.087891,11.0644531 C122.865233,11.0644531 122.698243,11.0039069 122.586914,10.8828125 C122.475585,10.7617181 122.419922,10.611329 122.419922,10.4316406 Z M124.851562,10.4316406 C124.851562,10.2441397 124.907226,10.0878913 125.018555,9.96289062 C125.129883,9.83789 125.296874,9.77539062 125.519531,9.77539062 C125.742189,9.77539062 125.911132,9.83789 126.026367,9.96289062 C126.141602,10.0878913 126.199219,10.2441397 126.199219,10.4316406 C126.199219,10.611329 126.141602,10.7617181 126.026367,10.8828125 C125.911132,11.0039069 125.742189,11.0644531 125.519531,11.0644531 C125.296874,11.0644531 125.129883,11.0039069 125.018555,10.8828125 C124.907226,10.7617181 124.851562,10.611329 124.851562,10.4316406 Z"/>
    <rect id="mobile-g" width="279" height="68" x=".325" y=".306"/>
    <path id="mobile-i" d="M3.37060547,8 L2.30712891,8 L2.30712891,2.86279297 L0.73828125,3.39892578 L0.73828125,2.49804688 L3.234375,1.57958984 L3.37060547,1.57958984 L3.37060547,8 Z M9.89648438,8 L5.59423828,8 L5.59423828,7.26611328 L7.72558594,4.94140625 C8.03320466,4.5986311 8.25219661,4.31225701 8.38256836,4.08227539 C8.5129401,3.85229377 8.578125,3.62158319 8.578125,3.39013672 C8.578125,3.0854477 8.4924325,2.83935641 8.32104492,2.65185547 C8.14965735,2.46435453 7.91894676,2.37060547 7.62890625,2.37060547 C7.2832014,2.37060547 7.01513767,2.47607316 6.82470703,2.68701172 C6.63427639,2.89795027 6.5390625,3.18652161 6.5390625,3.55273438 L5.47119141,3.55273438 C5.47119141,3.16308399 5.55981357,2.81225742 5.73706055,2.50024414 C5.91430753,2.18823086 6.16772296,1.94580165 6.49731445,1.77294922 C6.82690594,1.60009679 7.2070291,1.51367188 7.63769531,1.51367188 C8.25879217,1.51367188 8.7487775,1.66967617 9.10766602,1.98168945 C9.46655453,2.29370273 9.64599609,2.7250949 9.64599609,3.27587891 C9.64599609,3.59521644 9.5559091,3.92992989 9.37573242,4.2800293 C9.19555574,4.6301287 8.90039268,5.0278298 8.49023438,5.47314453 L6.92578125,7.14746094 L9.89648438,7.14746094 L9.89648438,8 Z M11.4213867,6.875 C11.6206065,6.875 11.7744135,6.93139592 11.8828125,7.04418945 C11.9912115,7.15698299 12.0454102,7.29833899 12.0454102,7.46826172 C12.0454102,7.63525474 11.9912115,7.77368109 11.8828125,7.88354492 C11.7744135,7.99340875 11.6206065,8.04833984 11.4213867,8.04833984 C11.2309561,8.04833984 11.0800787,7.99414117 10.96875,7.88574219 C10.8574213,7.77734321 10.8017578,7.63818444 10.8017578,7.46826172 C10.8017578,7.29833899 10.8559565,7.15698299 10.9643555,7.04418945 C11.0727544,6.93139592 11.2250967,6.875 11.4213867,6.875 Z M11.4213867,3.14404297 C11.6206065,3.14404297 11.7744135,3.20043889 11.8828125,3.31323242 C11.9912115,3.42602595 12.0454102,3.56738196 12.0454102,3.73730469 C12.0454102,3.90429771 11.9912115,4.04272406 11.8828125,4.15258789 C11.7744135,4.26245172 11.6206065,4.31738281 11.4213867,4.31738281 C11.2309561,4.31738281 11.0800787,4.26318414 10.96875,4.15478516 C10.8574213,4.04638618 10.8017578,3.90722741 10.8017578,3.73730469 C10.8017578,3.56738196 10.8559565,3.42602595 10.9643555,3.31323242 C11.0727544,3.20043889 11.2250967,3.14404297 11.4213867,3.14404297 Z M14.3305664,4.31298828 L14.980957,4.31298828 C15.3090837,4.31005858 15.5690908,4.22509849 15.7609863,4.05810547 C15.9528818,3.89111245 16.0488281,3.64941564 16.0488281,3.33300781 C16.0488281,3.02831879 15.9689949,2.79174889 15.8093262,2.62329102 C15.6496574,2.45483314 15.4057634,2.37060547 15.0776367,2.37060547 C14.7905259,2.37060547 14.5546884,2.45336831 14.3701172,2.61889648 C14.185546,2.78442466 14.0932617,3.00048695 14.0932617,3.26708984 L13.0253906,3.26708984 C13.0253906,2.9389632 13.112548,2.64013807 13.2868652,2.37060547 C13.4611825,2.10107287 13.7043441,1.8908699 14.0163574,1.73999023 C14.3283707,1.58911057 14.6777324,1.51367188 15.0644531,1.51367188 C15.7031282,1.51367188 16.2048322,1.67407066 16.5695801,1.99487305 C16.934328,2.31567543 17.1166992,2.76171589 17.1166992,3.33300781 C17.1166992,3.62011862 17.0251474,3.89037959 16.842041,4.14379883 C16.6589346,4.39721806 16.4223647,4.58837826 16.1323242,4.71728516 C16.4838885,4.83740294 16.7512198,5.0263659 16.9343262,5.28417969 C17.1174326,5.54199348 17.2089844,5.84960759 17.2089844,6.20703125 C17.2089844,6.78125287 17.0119649,7.23827955 16.6179199,7.578125 C16.223875,7.91797045 15.7060579,8.08789062 15.0644531,8.08789062 C14.4492157,8.08789062 13.9453145,7.92382977 13.5527344,7.59570312 C13.1601543,7.26757648 12.9638672,6.83105741 12.9638672,6.28613281 L14.0317383,6.28613281 C14.0317383,6.56738422 14.1262198,6.79589756 14.3151855,6.97167969 C14.5041513,7.14746182 14.7582992,7.23535156 15.0776367,7.23535156 C15.4086931,7.23535156 15.6694326,7.14746182 15.8598633,6.97167969 C16.0502939,6.79589756 16.1455078,6.54101729 16.1455078,6.20703125 C16.1455078,5.8701155 16.0458994,5.61084075 15.8466797,5.42919922 C15.6474599,5.24755769 15.3515645,5.15673828 14.9589844,5.15673828 L14.3305664,5.15673828 L14.3305664,4.31298828 Z M22.3813477,5.30615234 C22.3813477,6.22607882 22.2092302,6.9196754 21.8649902,7.38696289 C21.5207502,7.85425038 20.9970738,8.08789062 20.2939453,8.08789062 C19.6025356,8.08789062 19.0817889,7.8601097 18.7316895,7.40454102 C18.38159,6.94897233 18.2021485,6.27441853 18.1933594,5.38085938 L18.1933594,4.2734375 C18.1933594,3.35351103 18.3654768,2.66357652 18.7097168,2.20361328 C19.0539568,1.74365004 19.579098,1.51367188 20.2851562,1.51367188 C20.9853551,1.51367188 21.5075666,1.73779073 21.8518066,2.18603516 C22.1960466,2.63427958 22.3725585,3.30517131 22.3813477,4.19873047 L22.3813477,5.30615234 Z M21.3134766,4.11083984 C21.3134766,3.5102509 21.2314461,3.07006976 21.0673828,2.7902832 C20.9033195,2.51049665 20.6425799,2.37060547 20.2851562,2.37060547 C19.9365217,2.37060547 19.6801766,2.5031725 19.5161133,2.76831055 C19.35205,3.03344859 19.265625,3.44726281 19.2568359,4.00976562 L19.2568359,5.45996094 C19.2568359,6.05762018 19.3403312,6.50292822 19.5073242,6.79589844 C19.6743172,7.08886865 19.9365217,7.23535156 20.2939453,7.23535156 C20.6367205,7.23535156 20.8901359,7.09985487 21.0541992,6.82885742 C21.2182625,6.55785997 21.3046875,6.13379195 21.3134766,5.55664062 L21.3134766,4.11083984 Z"/>
  </defs>
  <g fill="none" fill-rule="evenodd" transform="translate(0 11)">
    <g transform="translate(24)">
      <use fill="#000" filter="url(#mobile-a)" xlink:href="#mobile-b"/>
      <use fill="#F7F7F7" xlink:href="#mobile-b"/>
    </g>
    <rect width="280" height="273" x="36.5" y="51.5" fill="url(#mobile-c)" rx="10"/>
    <rect width="328" height="76" x=".5" y="256.5" fill="url(#mobile-d)"/>
    <g transform="translate(66.779 133.895)">
      <circle cx="25.721" cy="25.605" r="25" fill="#F4F4F4"/>
      <g transform="translate(10.158 15.615)">
        <polygon fill="#CF004C" points="2.947 7.044 19.092 7.044 19.092 13.065 2.947 13.065" transform="rotate(-7.004 11.02 10.055)"/>
        <polygon fill="#0065A1" points=".257 3.727 11.093 3.727 11.093 8.602 .257 8.602" transform="rotate(-7.004 5.675 6.165)"/>
        <g fill="#FFF" transform="translate(.492 4.815)">
          <path d="M1.007,1.672 C0.990001753,1.55495477 0.998184064,1.4356294 1.031,1.322 C1.06408448,1.22359466 1.11758608,1.13328941 1.188,1.057 C1.264179,0.980555597 1.35408091,0.919150899 1.453,0.876 C1.56511764,0.828420771 1.68266958,0.794834501 1.803,0.776 C1.94773308,0.753159382 2.09566787,0.761340108 2.237,0.8 C2.35974533,0.830482252 2.47222636,0.89293338 2.563,0.981 C2.62611163,0.873683642 2.71787624,0.78607441 2.828,0.728 C2.95373231,0.655191229 3.0934702,0.60986162 3.238,0.595 C3.35836482,0.582929824 3.47963518,0.582929824 3.6,0.595 C3.70471374,0.616744483 3.80575061,0.653454546 3.9,0.704 C3.98388714,0.763774799 4.0572252,0.837112864 4.117,0.921 C4.17986405,1.01891812 4.21732686,1.13096284 4.226,1.247 L4.383,2.538 L3.744,2.61 L3.611,1.5 C3.6084496,1.39539447 3.56501125,1.29595295 3.49,1.223 C3.42112039,1.17115998 3.33414523,1.14950642 3.249,1.163 C3.15373,1.17209529 3.06648236,1.22024441 3.008,1.296 C2.94665523,1.39728194 2.92526287,1.51779228 2.948,1.634 L3.081,2.683 L2.442,2.755 L2.309,1.706 C2.30233314,1.58909743 2.25532901,1.47812529 2.176,1.392 C2.02426094,1.27585192 1.80854047,1.29681261 1.682,1.44 C1.63105468,1.53118694 1.61404944,1.63746972 1.634,1.74 L1.767,2.85 L1.128,2.922 L1.007,1.672 Z"/>
          <path fill-rule="nonzero" d="M4.625,1.513 C4.59988009,1.36762661 4.61227097,1.21824767 4.661,1.079 C4.70090603,0.946817279 4.7664909,0.823803183 4.854,0.717 C5.04286403,0.49274173 5.31062138,0.349555982 5.602,0.317 C5.7507436,0.29441584 5.90253891,0.302584197 6.048,0.341 C6.18696094,0.376364061 6.31794606,0.437784543 6.434,0.522 C6.54424702,0.60383619 6.63819871,0.705588919 6.711,0.822 C6.78731486,0.946141857 6.83291045,1.08669969 6.844,1.232 C6.86911991,1.37737339 6.85672903,1.52675233 6.808,1.666 C6.76809397,1.79818272 6.7025091,1.92119682 6.615,2.028 C6.42613597,2.25225827 6.15837862,2.39544402 5.867,2.428 C5.7182564,2.45058416 5.56646109,2.4424158 5.421,2.404 C5.28203906,2.36863594 5.15105394,2.30721546 5.035,2.223 C4.92475298,2.14116381 4.83080129,2.03941108 4.758,1.923 C4.69398924,1.79351816 4.64918533,1.65540082 4.625,1.513 M5.807,1.863 C5.8704445,1.85402142 5.93175513,1.83369745 5.988,1.803 C6.03787354,1.7692115 6.08266003,1.7284659 6.121,1.682 C6.15708999,1.63162102 6.18166951,1.57392741 6.193,1.513 C6.20935559,1.44595333 6.21342132,1.37649702 6.205,1.308 C6.19228768,1.24549034 6.17214463,1.18472547 6.145,1.127 C6.1184986,1.0686281 6.07668562,1.01852163 6.024,0.982 C5.97864259,0.942559668 5.92497985,0.913848391 5.867,0.898 C5.80403629,0.881630094 5.73850656,0.877555706 5.674,0.886 C5.60971201,0.891116413 5.5476143,0.91170129 5.493,0.946 C5.44312646,0.979788504 5.39833997,1.0205341 5.36,1.067 C5.32391001,1.11737898 5.29933049,1.17507259 5.288,1.236 C5.27761647,1.30380966 5.27359897,1.37244198 5.276,1.441 C5.28310782,1.5086542 5.30349736,1.57424057 5.336,1.634 C5.3625014,1.6923719 5.40431438,1.74247837 5.457,1.779 C5.50235741,1.81844033 5.55602015,1.84715161 5.614,1.863 C5.67819126,1.86904653 5.74280874,1.86904653 5.807,1.863"/>
          <path d="M7.122.985C7.10876355.859180745 7.12100706.731984341 7.158.611 7.19477501.501777122 7.25678625.402764708 7.339.322 7.4270147.237595198 7.52838235.168327303 7.639.117 7.76320415.0663999371 7.8926744.029839684 8.025.008 8.15825601-.00627742932 8.29283951-.00223992415 8.425.02 8.54443112.0380970471 8.65921784.0791893366 8.763.141 8.86136593.205180207 8.9471194.286866317 9.016.382 9.08315276.487597101 9.12459638.60747534 9.137.732L9.282 1.962 8.643 2.034 8.509.966C8.50753133.852025493 8.45947152.743619908 8.376.666 8.29368388.603243285 8.18913721.577197058 8.087.594 7.846.63 7.737.775 7.761 1.052L7.894 2.125 7.255 2.197 7.122.985zM4.228 6.622C4.252 6.634 4.3 6.658 4.361 6.682 4.43504193 6.7074546 4.51196851 6.72357895 4.59 6.73 4.68562566 6.7449827 4.78221283 6.75300378 4.879 6.754 4.9917982 6.75582951 5.10461554 6.75182416 5.217 6.742 5.32056457 6.73656843 5.42225113 6.71216365 5.517 6.67 5.57426207 6.64587475 5.60855681 6.5866755 5.601 6.525 5.589 6.465 5.565 6.416 5.501 6.404 5.40963633 6.38723645 5.3168854 6.37920027 5.224 6.38L4.971 6.38C4.84600495 6.37840088 4.72117423 6.37039036 4.597 6.356 4.48311295 6.34297604 4.37260094 6.30907665 4.271 6.256 4.17534394 6.20805072 4.09267079 6.13772709 4.03 6.051 3.95928544 5.94715651 3.91751928 5.82634529 3.909 5.701 3.89242665 5.58792481 3.90061548 5.47259889 3.933 5.363 3.96531125 5.25449442 4.02327892 5.15536627 4.102 5.074 4.1983787 4.97602307 4.31327167 4.89818139 4.44 4.845 4.60589194 4.7765024 4.78061044 4.73172868 4.959 4.712 5.13483846 4.68717956 5.31263941 4.67914336 5.49 4.688 5.62561773 4.69687286 5.75980052 4.72102577 5.89 4.76 5.9503753 4.78597426 6.00717158 4.81958152 6.059 4.86 6.10660826 4.90305878 6.13292798 4.96483702 6.131 5.029 6.13895864 5.07758577 6.13483745 5.12738356 6.119 5.174 6.10925015 5.21510037 6.08851065 5.25277713 6.059 5.283 6.04161365 5.31280979 6.01680979 5.33761365 5.987 5.355 5.963 5.379 5.951 5.391 5.939 5.391 5.91311226 5.37155812 5.88489294 5.35543279 5.855 5.343 5.797286 5.31838747 5.73632604 5.30222129 5.674 5.295 5.602 5.283 5.505 5.271 5.409 5.259 5.29222525 5.25130721 5.17497364 5.25532727 5.059 5.271 4.95395973 5.27610927 4.85142054 5.30482024 4.759 5.355 4.71233191 5.38831129 4.68533151 5.4426871 4.687 5.5 4.689839 5.55563054 4.73181945 5.60138923 4.787 5.609 4.86625896 5.62549751 4.94704411 5.6335425 5.028 5.633L5.474 5.645C5.58365587 5.64504799 5.69297587 5.65712013 5.8 5.681 5.90080738 5.69963551 5.9982333 5.7333469 6.089 5.781 6.17523201 5.83293551 6.24924819 5.90285863 6.306 5.986 6.3708399 6.08296031 6.40848144 6.19553961 6.415 6.312 6.45527249 6.56104902 6.36950122 6.81386828 6.186 6.987 5.95085331 7.18392787 5.65986287 7.30214273 5.354 7.325 5.18223139 7.35026847 5.00836754 7.35830841 4.835 7.349 4.70080729 7.34123141 4.56722081 7.32520103 4.435 7.301 4.326 7.277 4.23 7.253 4.158 7.229 4.10519362 7.21532316 4.05581271 7.19080298 4.013 7.157L4.228 6.622zM6.482 4.193C6.46065821 4.09237177 6.49236174 3.98782561 6.566 3.916 6.65075736 3.85223546 6.75009533 3.81064412 6.855 3.795 6.93488049 3.78293713 7.01611951 3.78293713 7.096 3.795 7.168 3.807 7.217 3.819 7.241 3.819L7.325 4.482 7.88 4.41C7.99081424 4.3839019 8.10741083 4.40106949 8.206 4.458 8.28310802 4.51922719 8.3277371 4.61254253 8.327 4.711 8.34136941 4.79120123 8.33726543 4.87362291 8.315 4.952 8.303 5.024 8.279 5.085 8.279 5.109L7.411 5.218 7.511 5.978C7.51391293 6.03901436 7.53478652 6.09780833 7.571 6.147 7.59753496 6.18650124 7.63149876 6.22046504 7.671 6.247 7.70725205 6.26990606 7.74912234 6.28236333 7.792 6.283L7.925 6.283C8.00898676 6.27357642 8.09060786 6.24919169 8.166 6.211 8.238 6.175 8.287 6.139 8.323 6.127L8.697 6.621C8.65890707 6.65974582 8.61849958 6.69614596 8.576 6.73 8.5170512 6.77834492 8.45219854 6.81900384 8.383 6.851 8.30060972 6.89168699 8.21616274 6.92806929 8.13 6.96 8.03343391 6.99654703 7.93263469 7.02073884 7.83 7.032 7.56972568 7.07977773 7.30109906 7.02339487 7.082 6.875 6.88846118 6.72613804 6.76592483 6.50317989 6.744 6.26L6.482 4.193z"/>
          <path fill-rule="nonzero" d="M11.295 6.496C11.2526905 6.51451013 11.2078695 6.52664215 11.162 6.532 11.09 6.544 11.005 6.568 10.909 6.592 10.813 6.616 10.692 6.64 10.559 6.664 10.426 6.688 10.294 6.712 10.149 6.724 9.94161948 6.75763468 9.73051563 6.76167494 9.522 6.736 9.37828107 6.71741803 9.23925973 6.67232086 9.112 6.603 9.0156853 6.54719002 8.93328464 6.47025995 8.871 6.378 8.81988591 6.28483216 8.78600943 6.18320273 8.771 6.078 8.72021965 5.83278423 8.79742828 5.57856069 8.976 5.403 9.23789528 5.2177668 9.54838946 5.11345744 9.869 5.103 9.978 5.091 10.062 5.079 10.134 5.079 10.206 5.079 10.267 5.067 10.303 5.067 10.2901081 4.96058902 10.2273633 4.86665741 10.134 4.814 9.98469113 4.75426182 9.82066513 4.74169812 9.664 4.778 9.57440612 4.78602185 9.48571541 4.80208658 9.399 4.826 9.33590212 4.84977672 9.27145691 4.8698115 9.206 4.886L9.085 4.946C9.06319385 4.95960158 9.04305655 4.97571142 9.025 4.994 9.013 4.994 9.001 4.982 8.977 4.958 8.94719021 4.94061365 8.92238635 4.91580979 8.905 4.886 8.87797026 4.85495618 8.85386774 4.82148046 8.833 4.786 8.80825149 4.75061097 8.79562209 4.70816218 8.797 4.665 8.761 4.388 9.038 4.207 9.617 4.134 9.79715683 4.11203953 9.97904891 4.10801982 10.16 4.122 10.3186087 4.13500259 10.4736656 4.1759674 10.618 4.243 10.747756 4.31253659 10.8594084 4.41151675 10.944 4.532 11.037903 4.6816877 11.0957563 4.85113971 11.113 5.027L11.295 6.496zM10.395 5.579L10.262 5.579C10.202 5.579 10.117 5.591 10.009 5.603 9.92707621 5.60959382 9.84619852 5.62570224 9.768 5.651 9.71655065 5.66571552 9.67039562 5.69486607 9.635 5.735 9.60391952 5.76402982 9.58290211 5.80221144 9.575 5.844 9.56280899 5.87931071 9.56280899 5.91768929 9.575 5.953 9.57834443 5.98728157 9.58642117 6.02093468 9.599 6.053 9.61239914 6.08858152 9.63788637 6.11831662 9.671 6.137 9.71945163 6.16368311 9.77291078 6.18002731 9.828 6.185 9.91591565 6.19714825 10.0050843 6.19714825 10.093 6.185 10.177 6.173 10.25 6.161 10.322 6.149 10.3716444 6.14308795 10.4203553 6.13099422 10.467 6.113L10.395 5.579zM12.2 6.654C12.212 6.654 12.236 6.666 12.284 6.678 12.332 6.69 12.384 6.702 12.453 6.714 12.522 6.726 12.598 6.726 12.694 6.738 12.790489 6.74000201 12.8870091 6.73599426 12.983 6.726 13.0820839 6.7148329 13.1792581 6.69062341 13.272 6.654 13.3529694 6.62004229 13.4266436 6.57081298 13.489 6.509 13.5476034 6.44848339 13.5893227 6.37366436 13.61 6.292 13.6389494 6.18978261 13.6430636 6.08212872 13.622 5.978L13.61 5.93C13.5926136 5.95980979 13.5678098 5.98461365 13.538 6.002 13.4961522 6.04126451 13.4517192 6.07767949 13.405 6.111 13.3394233 6.15229607 13.2709061 6.18872711 13.2 6.22 13.1161229 6.25812125 13.0266357 6.28243477 12.935 6.292 12.7702706 6.31472107 12.6027511 6.30658248 12.441 6.268 12.291273 6.23616171 12.1509453 6.17010503 12.031 6.075 11.9096158 5.97851073 11.8077895 5.85971332 11.731 5.725 11.650109 5.56620115 11.5970083 5.39472305 11.574 5.218 11.5485128 5.0404383 11.56078 4.85949681 11.61 4.687 11.6543034 4.52395465 11.7323167 4.37201619 11.839 4.241 11.9499152 4.11055575 12.0859495 4.00376881 12.239 3.927 12.4098505 3.84212251 12.5931582 3.78507093 12.782 3.758 12.9960632 3.73096707 13.2133775 3.74729115 13.421 3.806 13.618036 3.86449257 13.7967456 3.97261361 13.94 4.12 14.0368719 4.2148811 14.1110524 4.33042493 14.157 4.458 14.2224972 4.62415178 14.2632646 4.79901359 14.278 4.977L14.362 5.701C14.3974627 5.92144121 14.3893085 6.14669983 14.338 6.364 14.2923396 6.54343148 14.2103114 6.71157233 14.097 6.858 13.9835771 6.99502289 13.8388319 7.10272427 13.675 7.172 13.5006975 7.25663058 13.3128065 7.30978175 13.12 7.329 12.975 7.341 12.843 7.353 12.72 7.353 12.6109341 7.35192585 12.5020473 7.34390964 12.394 7.329 12.3122519 7.32117889 12.2315064 7.3050968 12.153 7.281 12.093 7.269 12.044 7.245 12.032 7.245L12.2 6.654zM12.393 5.098C12.4047923 5.2534674 12.4786808 5.39764013 12.598 5.498 12.7216036 5.58171381 12.8737612 5.61200109 13.02 5.582 13.1678735 5.56905551 13.3035416 5.49469201 13.394 5.377 13.4929571 5.2604045 13.5331142 5.10493384 13.503 4.955 13.4902229 4.80374412 13.4161597 4.66428845 13.298 4.569 13.1803987 4.47199987 13.0258661 4.43208506 12.876 4.46 12.7995882 4.46928546 12.7258067 4.49376596 12.659 4.532 12.5958283 4.56708843 12.5419902 4.61681155 12.502 4.677 12.4568219 4.73446947 12.4228949 4.79994855 12.402 4.87 12.3803133 4.94437291 12.3762053 5.02276781 12.39 5.099L12.393 5.098zM15.54 5.061C15.5552672 5.09974459 15.5754311 5.13637559 15.6 5.17 15.6375783 5.20748804 15.6830019 5.23617667 15.733 5.254 15.7978276 5.28445903 15.8669798 5.3046987 15.938 5.314 16.0339547 5.32607854 16.1310453 5.32607854 16.227 5.314 16.3085671 5.30497917 16.389201 5.2889193 16.468 5.266 16.54 5.242 16.601 5.218 16.661 5.194 16.7040453 5.17125943 16.7484645 5.15122068 16.794 5.134 16.83 5.11 16.842 5.098 16.854 5.098L17.192 5.605C17.1550121 5.63753565 17.1144133 5.66571996 17.071 5.689 17.011 5.725 16.938 5.761 16.854 5.81 16.7517794 5.85641465 16.646934 5.89681683 16.54 5.931 16.4085413 5.96728322 16.274949 5.99533761 16.14 6.015 15.9669436 6.03779308 15.7912143 6.02966687 15.621 5.991 15.4594418 5.95517541 15.3073889 5.88528564 15.175 5.786 15.0390772 5.68799727 14.9275318 5.56002807 14.849 5.412 14.7587611 5.24334688 14.7014095 5.05907514 14.68 4.869 14.6549883 4.68743381 14.6672375 4.50267508 14.716 4.326 14.7577159 4.16196364 14.8360035 4.00949091 14.945 3.88 15.0535625 3.75279369 15.184358 3.64639529 15.331 3.566 15.4925616 3.48143092 15.6686526 3.42816253 15.85 3.409 16.0103377 3.38838086 16.172887 3.39242773 16.332 3.421 16.4641869 3.44709004 16.5907722 3.4961672 16.706 3.566 16.8074453 3.63128309 16.8937169 3.71755472 16.959 3.819 17.0168858 3.9160292 17.0578054 4.02221719 17.08 4.133 17.0965733 4.24607519 17.0883845 4.36140111 17.056 4.471 17.0184384 4.57602846 16.9514375 4.66802456 16.863 4.736 16.7365201 4.83033474 16.593336 4.899891 16.441 4.941 16.2087701 5.01167723 15.9703747 5.06022684 15.729 5.086L15.54 5.061zM15.44 4.567C15.657 4.543 15.826 4.507 15.947 4.483 16.0387983 4.4596921 16.1276887 4.42614856 16.212 4.383 16.2548104 4.36072518 16.2897252 4.32581043 16.312 4.283 16.3216068 4.2505811 16.325664 4.2167714 16.324 4.183 16.3115561 4.11115922 16.2669999 4.04892791 16.203 4.014 16.1154141 3.96366458 16.011258 3.95069011 15.914 3.978 15.8342084 3.9891628 15.7568233 4.0134935 15.685 4.05 15.6253246 4.08547692 15.5754769 4.13532464 15.54 4.195 15.5025623 4.2504878 15.4742067 4.31158735 15.456 4.376 15.4391137 4.43478295 15.4350218 4.49650228 15.444 4.557L15.44 4.567z"/>
        </g>
        <path fill="#0065A1" fill-rule="nonzero" d="M9.894 15.424C9.91816181 15.5757107 9.91816181 15.7302893 9.894 15.882 9.87414042 15.9993296 9.83742759 16.1131731 9.785 16.22 9.69641538 16.3689712 9.57197122 16.4934154 9.423 16.582 9.26450716 16.6757571 9.08731019 16.7334571 8.904 16.751 8.7512512 16.7734262 8.59556831 16.7652682 8.446 16.727 8.30617647 16.6940796 8.17472695 16.6324413 8.06 16.546 7.94929164 16.4591003 7.85541328 16.3526823 7.783 16.232 7.70973168 16.0968942 7.66065894 15.9500144 7.638 15.798 7.61522255 15.6452678 7.62338427 15.4895151 7.662 15.34 7.69605453 15.2064187 7.75325281 15.0798379 7.831 14.966 7.91215254 14.862419 8.00978899 14.7728908 8.12 14.701 8.2387035 14.6317906 8.3698585 14.5865999 8.506 14.568 8.63469311 14.5443108 8.76723254 14.5525516 8.892 14.592 8.97694849 14.622398 9.05787784 14.6630306 9.133 14.713L9.033 13.905C9.01724759 13.8197711 9.03912561 13.7318944 9.093 13.664 9.16147253 13.6072282 9.24544921 13.5723831 9.334 13.564 9.40180067 13.5519337 9.47119933 13.5519337 9.539 13.564 9.57997882 13.5683066 9.62047974 13.5763398 9.66 13.588L9.894 15.424zM8.857 16.148C8.98377084 16.1371013 9.1010277 16.0763148 9.183 15.979 9.2624075 15.8717201 9.29290513 15.735933 9.267 15.605 9.25989218 15.5373458 9.23950264 15.4717594 9.207 15.412 9.1766009 15.3561755 9.13548169 15.3069004 9.086 15.267 9.04064259 15.2275597 8.98697985 15.1988484 8.929 15.183 8.86712596 15.1606837 8.80016188 15.1565201 8.736 15.171 8.60867086 15.1785214 8.49232483 15.2455871 8.422 15.352 8.34542744 15.4605573 8.31520378 15.5951246 8.338 15.726 8.34754635 15.8592726 8.41336521 15.982183 8.519 16.064 8.61292343 16.1421545 8.73741724 16.1730938 8.857 16.148L8.857 16.148zM10.955 15.666C10.9653078 15.7042659 10.9860866 15.7388974 11.015 15.766 11.0473658 15.7955251 11.0841418 15.8198175 11.124 15.838 11.1774745 15.862745 11.234502 15.8789422 11.293 15.886 11.3728724 15.8981696 11.4541276 15.8981696 11.534 15.886 11.599909 15.8771791 11.6646375 15.8610808 11.727 15.838 11.787 15.814 11.836 15.802 11.884 15.778 11.9230265 15.763339 11.959737 15.7431314 11.993 15.718 12.017 15.706 12.041 15.694 12.041 15.682L12.33 16.116C12.2951638 16.1378406 12.2617621 16.1618898 12.23 16.188 12.1725806 16.2263548 12.1120333 16.2598064 12.049 16.288 11.977 16.324 11.892 16.348 11.796 16.388 11.7 16.428 11.591 16.436 11.458 16.46 11.3132669 16.4828406 11.1653321 16.4746599 11.024 16.436 10.8886479 16.407165 10.7610909 16.3495256 10.65 16.267 10.5365428 16.1830535 10.4421403 16.0760413 10.373 15.953 10.2961939 15.810853 10.2469942 15.6554498 10.228 15.495 10.2029547 15.3416614 10.2153047 15.1845424 10.264 15.037 10.3010742 14.9000538 10.3668643 14.7725641 10.457 14.663 10.5459963 14.552898 10.6570414 14.4626314 10.783 14.398 10.9187473 14.3285576 11.065653 14.2835381 11.217 14.265 11.349927 14.2442106 11.4855583 14.2482796 11.617 14.277 11.7274273 14.3004056 11.8334218 14.3412506 11.931 14.398 12.0117339 14.4568547 12.0846526 14.525741 12.148 14.603 12.1990429 14.6835962 12.2330727 14.7737753 12.248 14.868 12.2645518 14.9608349 12.2562721 15.0563953 12.224 15.145 12.1914044 15.2362876 12.1326211 15.3159408 12.055 15.374 11.9498669 15.4516232 11.8311671 15.5089382 11.705 15.543 11.5111673 15.5974979 11.3136543 15.6379363 11.114 15.664L10.955 15.666zM10.871 15.244C11.0127991 15.2271892 11.1536487 15.203158 11.293 15.172 11.3699603 15.1578536 11.4435733 15.1293582 11.51 15.088 11.5464291 15.0699346 11.5759346 15.0404291 11.594 15.004 11.6038145 14.9771433 11.607902 14.9485305 11.606 14.92 11.5968905 14.8588003 11.5599681 14.8052627 11.506 14.775 11.4321367 14.7358253 11.3470872 14.7231208 11.265 14.739 11.200712 14.7441164 11.1386143 14.7647013 11.084 14.799 11.0350573 14.8296916 10.9936916 14.8710573 10.963 14.92 10.9307211 14.9667761 10.9101445 15.0206184 10.903 15.077 10.8750672 15.1287248 10.8625722 15.1873818 10.867 15.246L10.871 15.244z"/>
        <g fill="#FEB620" transform="translate(14.755)">
          <path d="M12.229,4.944 C12.2383804,4.5527251 12.3116809,4.16561722 12.446,3.798 C12.5299039,3.5678791 12.6263825,3.34253979 12.735,3.123 C12.3915846,2.63681002 11.9254173,2.25035008 11.384,2.003 C10.7774802,1.73068465 10.1187886,1.59416827 9.454,1.603 C8.56799093,1.60453397 7.69381947,1.80658142 6.897,2.194 C6.11503361,2.54578095 5.42250778,3.06944807 4.871,3.726 C4.39278795,4.24881668 4.11505516,4.92401909 4.087,5.632 C4.11821454,6.25997221 4.3904411,6.85170679 4.847,7.284 C5.06682536,7.5775067 5.38734998,7.77943721 5.747,7.851 C5.82822078,7.85663 5.90773877,7.82584884 5.964,7.767 C6.03849959,7.65853603 6.08802151,7.53490198 6.109,7.405 C6.27056463,6.83815323 6.49706574,6.29186612 6.784,5.777 C7.04378363,5.28850173 7.36396175,4.83460808 7.737,4.426 C8.075,4.076 8.352,3.895 8.569,3.895 C8.846,3.895 8.979,4.233 8.979,4.895 C8.97012489,5.5507598 8.79572929,6.19365008 8.472,6.764 C8.10830432,7.41506765 7.63034497,7.99532589 7.061,8.477 C6.661,8.815 6.461,9.068 6.461,9.237 C6.44970452,9.36343004 6.50454245,9.48672084 6.606,9.563 C6.75704917,9.65117845 6.92575836,9.70479656 7.1,9.72 C8.16831717,9.80108298 8.97380999,10.7245723 8.909,11.794 C8.8902941,12.3850363 8.73343979,12.9634794 8.451,13.483 C8.13194009,14.110207 7.71694633,14.6837756 7.221,15.183 C6.86062817,15.5683236 6.45111196,15.9045438 6.003,16.183 C5.70068923,16.3985665 5.34740826,16.5316069 4.978,16.569 L4.906,16.569 C4.65384041,16.098624 4.52904697,15.5704927 4.544,15.037 C4.53975313,14.4436879 4.62918703,13.8534242 4.809,13.288 C4.96565398,12.7749924 5.224138,12.2988376 5.569,11.888 L5.669,11.788 L5.753,11.704 C6.006,11.487 6.139,11.33 6.139,11.246 C6.139,11.017 5.982,10.908 5.681,10.908 C4.90363401,10.9198678 4.14376513,11.1405752 3.481,11.547 C2.76727138,11.959219 2.15279439,12.5231723 1.681,13.199 C1.25137035,13.7887937 1.01172131,14.4955316 0.994,15.225 C0.96674599,16.1579 1.33978143,17.0579162 2.019,17.698 C2.71089587,18.3620215 3.64154086,18.7186305 4.6,18.687 C5.786978,18.6630611 6.95167994,18.3602386 8,17.803 C9.22167662,17.1704598 10.3235501,16.3295029 11.256,15.318 C11.6922546,14.8674752 12.0877965,14.3792386 12.438,13.859 C12.7419664,13.4134969 12.9967857,12.9363812 13.198,12.436 C13.3651954,12.0344304 13.4551021,11.6049139 13.463,11.17 C13.4955755,10.4199878 13.1627539,9.70067583 12.57,9.24 C11.7848222,8.71740873 10.8601147,8.44414425 9.917,8.456 L9.917,8.403 C10.5680909,8.14236322 11.1904155,7.8149474 11.774,7.426 C12.2486851,7.11036697 12.6348898,6.67872635 12.896,6.172 C12.7960978,6.11453504 12.7031513,6.04574788 12.619,5.967 C12.3536222,5.69373216 12.2137977,5.32243653 12.233,4.942"/>
          <path fill-rule="nonzero" d="M16.546,4.51 C16.4513914,4.4528497 16.3425068,4.42372134 16.232,4.426 C16.0383949,4.47948409 15.8604256,4.57858457 15.713,4.715 C15.4075382,4.9824037 15.0302519,5.15418195 14.628,5.209 C14.5251971,5.2242868 14.4206191,5.19679899 14.3386199,5.1329378 C14.2566206,5.06907662 14.204357,4.97441597 14.194,4.871 C14.2734133,4.90788821 14.359479,4.92829905 14.447,4.931 C14.6753882,4.91617665 14.8958153,4.84132113 15.086,4.714 C15.3585628,4.54832894 15.6097724,4.34984652 15.834,4.123 C16.1218576,3.85383314 16.3589643,3.5350939 16.534,3.182 C16.6841473,2.8904753 16.7665293,2.56880959 16.775,2.241 C16.7957502,1.91341429 16.6881516,1.59061843 16.475,1.341 C16.2593454,1.11275267 15.9558014,0.988492741 15.642,1 C15.0985416,1.01721164 14.5729413,1.19810458 14.134,1.519 C13.7096781,1.8070835 13.3447173,2.17408123 13.059,2.6 C12.9474736,2.76607613 12.8472472,2.93946769 12.759,3.119 C12.759,3.131 12.771,3.131 12.771,3.143 C13.0941071,3.62820975 13.2621947,4.20012593 13.253,4.783 C13.2576794,5.27116396 13.150255,5.75388949 12.939,6.194 C13.1943177,6.3309585 13.4814605,6.39756735 13.771,6.387 C13.9880989,6.3812313 14.2032654,6.34452841 14.41,6.278 C14.6552934,6.20257614 14.8935317,6.10587548 15.122,5.989 C15.3814778,5.85567074 15.6278887,5.698316 15.858,5.519 C16.0983805,5.34468915 16.3241302,5.15104606 16.533,4.94 C16.6170807,4.87480387 16.6732103,4.78006288 16.69,4.675 C16.69,4.627 16.642,4.566 16.545,4.506 M14.133,4.349 C14.1425473,4.07508228 14.1872465,3.8035261 14.266,3.541 C14.3613226,3.2198027 14.478256,2.90541888 14.616,2.6 C14.857,2.081 15.038,1.816 15.159,1.816 C15.243,1.816 15.292,1.916 15.292,2.116 C15.2901574,2.35505398 15.2660533,2.59341677 15.22,2.828 C15.1750714,3.06334242 15.1063865,3.29352055 15.015,3.515 C14.9111322,3.81652681 14.7562101,4.09795727 14.557,4.347 C14.4484016,4.48404882 14.317993,4.60229493 14.171,4.697 C14.1516745,4.5812034 14.1396507,4.464306 14.135,4.347"/>
        </g>
      </g>
      <g fill="#000" transform="translate(67.721 9.605)">
        <use xlink:href="#mobile-e"/>
        <use xlink:href="#mobile-e"/>
      </g>
      <g transform="translate(67.721 28.605)">
        <use fill="#000" xlink:href="#mobile-f"/>
        <use fill="#D6D6D6" xlink:href="#mobile-f"/>
      </g>
    </g>
    <rect width="52" height="7" x="151.5" y="24.5" fill="#EFEFEF" rx="3.5"/>
    <g transform="translate(36.175 50.194)">
      <g transform="translate(258.056 31.091)">
        <polygon points="9.327 18.655 0 18.655 0 0 9.327 0"/>
        <path fill="#FFF" d="M4.664,6.218 C5.52189056,6.21580168 6.21680168,5.52089056 6.219,4.663 C6.21625264,3.80549999 5.5215016,3.11119574 4.664,3.109 C3.80610944,3.11119832 3.11119832,3.80610944 3.109,4.664 C3.11119832,5.52189056 3.80610944,6.21680168 4.664,6.219 L4.664,6.218 Z M4.664,7.773 C3.8064984,7.77519574 3.11174736,8.46949999 3.109,9.327 C3.11119832,10.1848906 3.80610944,10.8798017 4.664,10.882 C5.52189056,10.8798017 6.21680168,10.1848906 6.219,9.327 C6.21680168,8.46910944 5.52189056,7.77419832 4.664,7.772 L4.664,7.773 Z M4.664,12.437 C3.8064984,12.4391957 3.11174736,13.1335 3.109,13.991 C3.11174736,14.8485 3.8064984,15.5428043 4.664,15.545 C5.5211111,15.5422555 6.21525547,14.8481111 6.218,13.991 C6.21580168,13.1331094 5.52089056,12.4381983 4.663,12.436 L4.664,12.437 Z"/>
      </g>
      <g transform="translate(220.746 31.091)">
        <polygon points="18.655 18.655 0 18.655 0 0 18.655 0"/>
        <path fill="#FFF" d="M12.055,10.886 L11.437,10.886 L11.222,10.673 C12.0090606,9.7591831 12.4416632,8.593037 12.441,7.387 C12.441,6.04633064 11.9084212,4.76057161 10.9604248,3.81257522 C10.0124284,2.86457883 8.72666936,2.332 7.386,2.332 C4.59459112,2.33255221 2.332,4.59559107 2.332,7.387 C2.332,10.1787994 4.59520059,12.442 7.387,12.442 C8.59302103,12.4425741 9.75913712,12.0099826 10.673,11.223 L10.888,11.436 L10.888,12.052 L14.775,15.933 L15.935,14.773 L12.056,10.885 L12.055,10.886 Z M7.387,10.886 C5.45400338,10.886 3.887,9.31899662 3.887,7.386 C3.887,5.45300338 5.45400338,3.886 7.387,3.886 C9.31999662,3.886 10.887,5.45300338 10.887,7.386 C10.887,9.31899662 9.31999662,10.886 7.387,10.886 L7.387,10.886 Z"/>
      </g>
      <g transform="translate(75.852 29.341)">
        <polygon fill="#FFF" points="4.985 9.523 8.871 13.409 12.758 9.523"/>
        <rect width="17" height="19" x=".474" y=".965"/>
      </g>
      <text fill="#FFF" font-family="Roboto-Regular, Roboto" font-size="15" transform="translate(54.325 30.306)">
        <tspan x="0" y="14">All</tspan>
      </text>
      <g transform="translate(11.642 29.341)">
        <rect width="18" height="19" x=".684" y=".965"/>
        <path fill="#FFF" d="M3.126,15.741 L17.117,15.741 L17.117,14.187 L3.126,14.187 L3.126,15.742 L3.126,15.741 Z M3.126,11.855 L17.117,11.855 L17.117,10.3 L3.126,10.3 L3.126,11.855 Z M3.126,6.414 L3.126,7.969 L17.117,7.969 L17.117,6.414 L3.126,6.414 Z"/>
      </g>
      <mask id="mobile-h" fill="#fff">
        <use xlink:href="#mobile-g"/>
      </mask>
      <g mask="url(#mobile-h)">
        <polygon fill="#D14444" points="279.989 .19 .17 .19 .17 62.372 279.989 62.372" transform="translate(-.17 -.19)"/>
      </g>
      <rect width="279" height="17" x=".325" y=".306" fill="#2F3E9E"/>
      <rect width="91" height="17" x="188.325" y=".306"/>
      <text fill="#FFF" font-family="Roboto-Medium, Roboto" font-size="9" font-weight="400" transform="translate(249.325 3.306)">
        <tspan x="0" y="8">12:30</tspan>
      </text>
      <g fill="#FFF" transform="translate(235.14 5.057)">
        <rect width="6" height="3" x=".185" y="7.249" fill-opacity=".9"/>
        <rect width="6" height="2" x=".185" y="5.249" fill-opacity=".9"/>
        <rect width="6" height="3" x=".185" y="2.249" fill-opacity=".3"/>
        <rect width="6" height="2" x=".185" y=".249" fill-opacity=".3"/>
        <rect width="4" height="1" x="1.185" y=".249" fill-opacity=".3"/>
      </g>
      <polygon fill="#FFF" points="217.171 14.768 228.053 14.768 228.053 3.886" opacity=".9"/>
      <path fill="#FFF" d="M208.621,14.768 L215.461,6.296 C211.466899,3.08321234 205.775101,3.08321234 201.781,6.296 L208.621,14.768 Z" opacity=".9"/>
      <g transform="translate(248.559 31.091)">
        <polygon points="18.655 18.655 0 18.655 0 0 18.655 0"/>
        <path fill="#FFF" d="M12.055,10.886 L11.437,10.886 L11.222,10.673 C12.0090606,9.7591831 12.4416632,8.593037 12.441,7.387 C12.441,6.04633064 11.9084212,4.76057161 10.9604248,3.81257522 C10.0124284,2.86457883 8.72666936,2.332 7.386,2.332 C4.59459112,2.33255221 2.332,4.59559107 2.332,7.387 C2.332,10.1787994 4.59520059,12.442 7.387,12.442 C8.59302103,12.4425741 9.75913712,12.0099826 10.673,11.223 L10.888,11.436 L10.888,12.052 L14.775,15.933 L15.935,14.773 L12.056,10.885 L12.055,10.886 Z M7.387,10.886 C5.45400338,10.886 3.887,9.31899662 3.887,7.386 C3.887,5.45300338 5.45400338,3.886 7.387,3.886 C9.31999662,3.886 10.887,5.45300338 10.887,7.386 C10.887,9.31899662 9.31999662,10.886 7.387,10.886 L7.387,10.886 Z"/>
      </g>
      <path fill="#FFF" fill-rule="nonzero" d="M19.458,-7.10542736e-15 L1.875,-7.10542736e-15 C0.840151063,0.00165179715 0.00165179715,0.840151063 0,1.875 L0,14.375 C0.00165179715,15.4098489 0.840151063,16.2483482 1.875,16.25 L19.458,16.25 C20.4928489,16.2483482 21.3313482,15.4098489 21.333,14.375 L21.333,1.875 C21.3313482,0.840151063 20.4928489,0.00165179715 19.458,-7.10542736e-15 L19.458,-7.10542736e-15 Z M19.2,1.25 L10.707,9.743 L2.14,1.25 L19.2,1.25 Z M1.25,14.116 L1.25,2.128 L7.27,8.1 L1.25,14.116 Z M2.134,15 L8.158,8.976 L10.269,11.069 C10.5128607,11.3118247 10.9071393,11.3118247 11.151,11.069 L13.209,9.011 L19.2,15 L2.134,15 Z M20.083,14.116 L14.092,8.125 L20.083,2.134 L20.083,14.116 Z" transform="translate(17.731 32.355)"/>
      <rect width="279" height="17" x=".325" y=".306" fill="#AD3B3B"/>
      <rect width="91" height="17" x="188.325" y=".306"/>
      <g transform="translate(249.325 3.306)">
        <use fill="#000" xlink:href="#mobile-i"/>
        <use fill="#FFF" xlink:href="#mobile-i"/>
      </g>
      <g fill="#FFF" transform="translate(235.14 5.057)">
        <rect width="6" height="3" x=".185" y="7.249" fill-opacity=".9"/>
        <rect width="6" height="2" x=".185" y="5.249" fill-opacity=".9"/>
        <rect width="6" height="3" x=".185" y="2.249" fill-opacity=".3"/>
        <rect width="6" height="2" x=".185" y=".249" fill-opacity=".3"/>
        <rect width="4" height="1" x="1.185" y=".249" fill-opacity=".3"/>
      </g>
      <polygon fill="#FFF" points="217.171 14.768 228.053 14.768 228.053 3.886" opacity=".9"/>
      <path fill="#FFF" d="M208.621,14.768 L215.461,6.296 C211.466899,3.08321234 205.775101,3.08321234 201.781,6.296 L208.621,14.768 Z" opacity=".9"/>
    </g>
    <g transform="translate(60.458 199.633)">
      <rect width="222" height="58" x=".5" y=".5" fill="#FDB720" rx="5" transform="translate(.54 .37)"/>
      <path fill="#424A4E" d="M5.731,8.756 L9.246,8.756 L7.536,3.778 L7.498,3.778 L5.731,8.756 Z M6.016,0.434 L9.075,0.434 L14.148,14 L11.051,14 L10.025,10.979 L4.952,10.979 L3.888,14 L0.886,14 L6.016,0.434 Z M21.729,7.635 C21.5516658,6.50766103 20.8866724,5.944 19.734,5.944 C19.3033312,5.944 18.9423348,6.04216569 18.651,6.2385 C18.3596652,6.43483432 18.1221676,6.68816512 17.9385,6.9985 C17.7548324,7.30883489 17.6250004,7.65083147 17.549,8.0245 C17.4729996,8.39816854 17.435,8.76866483 17.435,9.136 C17.435,9.49066844 17.4729996,9.85166483 17.549,10.219 C17.6250004,10.5863352 17.7484991,10.9188318 17.9195,11.2165 C18.0905009,11.5141682 18.3216652,11.7579991 18.613,11.948 C18.9043348,12.138001 19.2589979,12.233 19.677,12.233 C20.3230032,12.233 20.8201649,12.0525018 21.1685,11.6915 C21.5168351,11.3304982 21.7353329,10.846003 21.824,10.238 L24.427,10.238 C24.2496658,11.5426732 23.7430042,12.5369966 22.907,13.221 C22.0709958,13.9050034 21.0006732,14.247 19.696,14.247 C18.9613297,14.247 18.2868364,14.1235012 17.6725,13.8765 C17.0581636,13.6294988 16.5356688,13.2843356 16.105,12.841 C15.6743312,12.3976645 15.3386679,11.8688364 15.098,11.2545 C14.8573321,10.6401636 14.737,9.96567034 14.737,9.231 C14.737,8.4709962 14.8478322,7.7648366 15.0695,7.1125 C15.2911678,6.46016341 15.6173312,5.89650238 16.048,5.4215 C16.4786688,4.94649763 17.0043302,4.57600133 17.625,4.31 C18.2456698,4.04399867 18.954996,3.911 19.753,3.911 C20.3356696,3.911 20.896164,3.98699924 21.4345,4.139 C21.972836,4.29100076 22.4541645,4.52216512 22.8785,4.8325 C23.3028355,5.14283489 23.6479987,5.52916436 23.914,5.9915 C24.1800013,6.45383565 24.3319998,7.0016635 24.37,7.635 L21.729,7.635 Z M29.367,4.177 L31.343,4.177 L31.343,5.982 L29.367,5.982 L29.367,10.846 C29.367,11.3020023 29.4429992,11.6059992 29.595,11.758 C29.7470008,11.9100008 30.0509977,11.986 30.507,11.986 C30.6590008,11.986 30.804666,11.9796667 30.944,11.967 C31.083334,11.9543333 31.2163327,11.9353335 31.343,11.91 L31.343,14 C31.1149989,14.0380002 30.8616681,14.0633333 30.583,14.076 C30.3043319,14.0886667 30.0320013,14.095 29.766,14.095 C29.3479979,14.095 28.9521685,14.0665003 28.5785,14.0095 C28.2048315,13.9524997 27.8755014,13.8416675 27.5905,13.677 C27.3054986,13.5123325 27.0806675,13.2780015 26.916,12.974 C26.7513325,12.6699985 26.669,12.2710025 26.669,11.777 L26.669,5.982 L25.035,5.982 L25.035,4.177 L26.669,4.177 L26.669,1.232 L29.367,1.232 L29.367,4.177 Z M35.409,2.657 L32.711,2.657 L32.711,0.434 L35.409,0.434 L35.409,2.657 Z M32.711,4.177 L35.409,4.177 L35.409,14 L32.711,14 L32.711,4.177 Z M42.971,14 L39.969,14 L36.606,4.177 L39.437,4.177 L41.508,10.884 L41.546,10.884 L43.617,4.177 L46.296,4.177 L42.971,14 Z M54.029,8.034 C53.9023327,7.34999658 53.6775016,6.83066844 53.3545,6.476 C53.0314984,6.12133156 52.54067,5.944 51.882,5.944 C51.4513312,5.944 51.0935014,6.01683261 50.8085,6.1625 C50.5234986,6.3081674 50.2955009,6.48866559 50.1245,6.704 C49.9534991,6.91933441 49.833167,7.14733213 49.7635,7.388 C49.693833,7.62866787 49.6526667,7.84399905 49.64,8.034 L54.029,8.034 Z M49.64,9.744 C49.6780002,10.6180044 49.8996646,11.2513314 50.305,11.644 C50.7103354,12.0366686 51.2929962,12.233 52.053,12.233 C52.5976694,12.233 53.0663314,12.0968347 53.459,11.8245 C53.8516686,11.5521653 54.0923329,11.2640015 54.181,10.96 L56.556,10.96 C56.1759981,12.1380059 55.5933373,12.9803308 54.808,13.487 C54.0226627,13.9936692 53.0726722,14.247 51.958,14.247 C51.1853295,14.247 50.4886698,14.1235012 49.868,13.8765 C49.2473302,13.6294988 48.7216688,13.2780023 48.291,12.822 C47.8603312,12.3659977 47.5278345,11.8213365 47.2935,11.188 C47.0591655,10.5546635 46.942,9.8580038 46.942,9.098 C46.942,8.36332966 47.0623321,7.6793365 47.303,7.046 C47.5436679,6.4126635 47.8856644,5.86483565 48.329,5.4025 C48.7723355,4.94016436 49.3011636,4.57600133 49.9155,4.31 C50.5298364,4.04399867 51.2106629,3.911 51.958,3.911 C52.7940042,3.911 53.5223302,4.07249839 54.143,4.3955 C54.7636698,4.71850162 55.273498,5.15233061 55.6725,5.697 C56.071502,6.24166939 56.3596658,6.86232985 56.537,7.559 C56.7143342,8.25567015 56.7776669,8.9839962 56.727,9.744 L49.64,9.744 Z M58.323,4.177 L60.888,4.177 L60.888,6.001 L60.926,6.001 C61.0526673,5.69699848 61.2236656,5.41516797 61.439,5.1555 C61.6543344,4.89583204 61.9013319,4.67416759 62.18,4.4905 C62.4586681,4.30683242 62.7563317,4.16433384 63.073,4.063 C63.3896682,3.96166616 63.7189983,3.911 64.061,3.911 C64.2383342,3.911 64.4346656,3.94266635 64.65,4.006 L64.65,6.514 C64.5233327,6.48866654 64.3713342,6.4665001 64.194,6.4475 C64.0166658,6.42849991 63.8456675,6.419 63.681,6.419 C63.1869975,6.419 62.7690017,6.50133251 62.427,6.666 C62.0849983,6.83066749 61.809501,7.05549858 61.6005,7.3405 C61.391499,7.62550143 61.2426671,7.9579981 61.154,8.338 C61.0653329,8.7180019 61.021,9.12966445 61.021,9.573 L61.021,14 L58.323,14 L58.323,4.177 Z M71.072,4.177 L73.618,4.177 L73.618,5.507 L73.656,5.507 C74.0106684,5.0003308 74.4381642,4.60766806 74.9385,4.329 C75.4388358,4.05033194 76.0119968,3.911 76.658,3.911 C77.2786698,3.911 77.8454974,4.03133213 78.3585,4.272 C78.8715026,4.51266787 79.2609987,4.93699696 79.527,5.545 C79.8183348,5.11433118 80.2141642,4.73433498 80.7145,4.405 C81.2148358,4.07566502 81.8069966,3.911 82.491,3.911 C83.0103359,3.911 83.4916644,3.9743327 83.935,4.101 C84.3783355,4.2276673 84.7583317,4.43033194 85.075,4.709 C85.3916682,4.98766806 85.6386658,5.35183109 85.816,5.8015 C85.9933342,6.25116892 86.082,6.7926635 86.082,7.426 L86.082,14 L83.384,14 L83.384,8.433 C83.384,8.10366502 83.3713335,7.79333479 83.346,7.502 C83.3206665,7.21066521 83.2510006,6.95733441 83.137,6.742 C83.0229994,6.52666559 82.8551678,6.3556673 82.6335,6.229 C82.4118322,6.1023327 82.1110019,6.039 81.731,6.039 C81.3509981,6.039 81.0438345,6.11183261 80.8095,6.2575 C80.5751655,6.4031674 80.3915007,6.5931655 80.2585,6.8275 C80.1254993,7.06183451 80.0368336,7.32783185 79.9925,7.6255 C79.9481664,7.92316816 79.926,8.22399848 79.926,8.528 L79.926,14 L77.228,14 L77.228,8.49 C77.228,8.19866521 77.2216667,7.91050143 77.209,7.6255 C77.1963333,7.34049858 77.1425005,7.07766787 77.0475,6.837 C76.9524995,6.59633213 76.7941678,6.4031674 76.5725,6.2575 C76.3508322,6.11183261 76.0246688,6.039 75.594,6.039 C75.4673327,6.039 75.299501,6.06749972 75.0905,6.1245 C74.881499,6.18150029 74.6788343,6.28916588 74.4825,6.4475 C74.2861657,6.60583413 74.118334,6.83383185 73.979,7.1315 C73.839666,7.42916816 73.77,7.81866426 73.77,8.3 L73.77,14 L71.072,14 L71.072,4.177 Z M90.604,9.098 C90.604,9.49066863 90.6419996,9.87383147 90.718,10.2475 C90.7940004,10.6211685 90.9238324,10.9568318 91.1075,11.2545 C91.2911676,11.5521682 91.5349985,11.7896658 91.839,11.967 C92.1430015,12.1443342 92.5229977,12.233 92.979,12.233 C93.4350023,12.233 93.8181651,12.1443342 94.1285,11.967 C94.4388349,11.7896658 94.6858324,11.5521682 94.8695,11.2545 C95.0531676,10.9568318 95.1829996,10.6211685 95.259,10.2475 C95.3350004,9.87383147 95.373,9.49066863 95.373,9.098 C95.373,8.70533137 95.3350004,8.3190019 95.259,7.939 C95.1829996,7.5589981 95.0531676,7.22333479 94.8695,6.932 C94.6858324,6.64066521 94.4388349,6.40316759 94.1285,6.2195 C93.8181651,6.03583242 93.4350023,5.944 92.979,5.944 C92.5229977,5.944 92.1430015,6.03583242 91.839,6.2195 C91.5349985,6.40316759 91.2911676,6.64066521 91.1075,6.932 C90.9238324,7.22333479 90.7940004,7.5589981 90.718,7.939 C90.6419996,8.3190019 90.604,8.70533137 90.604,9.098 Z M87.906,9.098 C87.906,8.31266274 88.0263321,7.60016987 88.267,6.9605 C88.5076679,6.32083014 88.8496644,5.77616892 89.293,5.3265 C89.7363355,4.87683109 90.2683302,4.52850124 90.889,4.2815 C91.5096698,4.03449877 92.2063295,3.911 92.979,3.911 C93.7516705,3.911 94.4514969,4.03449877 95.0785,4.2815 C95.7055031,4.52850124 96.2406644,4.87683109 96.684,5.3265 C97.1273355,5.77616892 97.4693321,6.32083014 97.71,6.9605 C97.9506679,7.60016987 98.071,8.31266274 98.071,9.098 C98.071,9.88333726 97.9506679,10.5926635 97.71,11.226 C97.4693321,11.8593365 97.1273355,12.4008311 96.684,12.8505 C96.2406644,13.3001689 95.7055031,13.6453321 95.0785,13.886 C94.4514969,14.1266679 93.7516705,14.247 92.979,14.247 C92.2063295,14.247 91.5096698,14.1266679 90.889,13.886 C90.2683302,13.6453321 89.7363355,13.3001689 89.293,12.8505 C88.8496644,12.4008311 88.5076679,11.8593365 88.267,11.226 C88.0263321,10.5926635 87.906,9.88333726 87.906,9.098 Z M99.819,4.177 L102.384,4.177 L102.384,5.545 L102.441,5.545 C102.783002,4.97499715 103.226331,4.56016797 103.771,4.3005 C104.315669,4.04083204 104.872997,3.911 105.443,3.911 C106.165004,3.911 106.757164,4.00916569 107.2195,4.2055 C107.681836,4.40183432 108.045999,4.67416493 108.312,5.0225 C108.578001,5.37083508 108.764833,5.79516417 108.8725,6.2955 C108.980167,6.79583584 109.034,7.34999696 109.034,7.958 L109.034,14 L106.336,14 L106.336,8.452 C106.336,7.64132928 106.209335,7.036502 105.956,6.6375 C105.702665,6.23849801 105.253003,6.039 104.607,6.039 C103.87233,6.039 103.340335,6.25749782 103.011,6.6945 C102.681665,7.13150219 102.517,7.85032833 102.517,8.851 L102.517,14 L99.819,14 L99.819,4.177 Z M123.056,7.635 C122.878666,6.50766103 122.213672,5.944 121.061,5.944 C120.630331,5.944 120.269335,6.04216569 119.978,6.2385 C119.686665,6.43483432 119.449168,6.68816512 119.2655,6.9985 C119.081832,7.30883489 118.952,7.65083147 118.876,8.0245 C118.8,8.39816854 118.762,8.76866483 118.762,9.136 C118.762,9.49066844 118.8,9.85166483 118.876,10.219 C118.952,10.5863352 119.075499,10.9188318 119.2465,11.2165 C119.417501,11.5141682 119.648665,11.7579991 119.94,11.948 C120.231335,12.138001 120.585998,12.233 121.004,12.233 C121.650003,12.233 122.147165,12.0525018 122.4955,11.6915 C122.843835,11.3304982 123.062333,10.846003 123.151,10.238 L125.754,10.238 C125.576666,11.5426732 125.070004,12.5369966 124.234,13.221 C123.397996,13.9050034 122.327673,14.247 121.023,14.247 C120.28833,14.247 119.613836,14.1235012 118.9995,13.8765 C118.385164,13.6294988 117.862669,13.2843356 117.432,12.841 C117.001331,12.3976645 116.665668,11.8688364 116.425,11.2545 C116.184332,10.6401636 116.064,9.96567034 116.064,9.231 C116.064,8.4709962 116.174832,7.7648366 116.3965,7.1125 C116.618168,6.46016341 116.944331,5.89650238 117.375,5.4215 C117.805669,4.94649763 118.33133,4.57600133 118.952,4.31 C119.57267,4.04399867 120.281996,3.911 121.08,3.911 C121.66267,3.911 122.223164,3.98699924 122.7615,4.139 C123.299836,4.29100076 123.781165,4.52216512 124.2055,4.8325 C124.629835,5.14283489 124.974999,5.52916436 125.241,5.9915 C125.507001,6.45383565 125.659,7.0016635 125.697,7.635 L123.056,7.635 Z M129.668,9.098 C129.668,9.49066863 129.706,9.87383147 129.782,10.2475 C129.858,10.6211685 129.987832,10.9568318 130.1715,11.2545 C130.355168,11.5521682 130.598998,11.7896658 130.903,11.967 C131.207002,12.1443342 131.586998,12.233 132.043,12.233 C132.499002,12.233 132.882165,12.1443342 133.1925,11.967 C133.502835,11.7896658 133.749832,11.5521682 133.9335,11.2545 C134.117168,10.9568318 134.247,10.6211685 134.323,10.2475 C134.399,9.87383147 134.437,9.49066863 134.437,9.098 C134.437,8.70533137 134.399,8.3190019 134.323,7.939 C134.247,7.5589981 134.117168,7.22333479 133.9335,6.932 C133.749832,6.64066521 133.502835,6.40316759 133.1925,6.2195 C132.882165,6.03583242 132.499002,5.944 132.043,5.944 C131.586998,5.944 131.207002,6.03583242 130.903,6.2195 C130.598998,6.40316759 130.355168,6.64066521 130.1715,6.932 C129.987832,7.22333479 129.858,7.5589981 129.782,7.939 C129.706,8.3190019 129.668,8.70533137 129.668,9.098 Z M126.97,9.098 C126.97,8.31266274 127.090332,7.60016987 127.331,6.9605 C127.571668,6.32083014 127.913664,5.77616892 128.357,5.3265 C128.800336,4.87683109 129.33233,4.52850124 129.953,4.2815 C130.57367,4.03449877 131.270329,3.911 132.043,3.911 C132.815671,3.911 133.515497,4.03449877 134.1425,4.2815 C134.769503,4.52850124 135.304664,4.87683109 135.748,5.3265 C136.191336,5.77616892 136.533332,6.32083014 136.774,6.9605 C137.014668,7.60016987 137.135,8.31266274 137.135,9.098 C137.135,9.88333726 137.014668,10.5926635 136.774,11.226 C136.533332,11.8593365 136.191336,12.4008311 135.748,12.8505 C135.304664,13.3001689 134.769503,13.6453321 134.1425,13.886 C133.515497,14.1266679 132.815671,14.247 132.043,14.247 C131.270329,14.247 130.57367,14.1266679 129.953,13.886 C129.33233,13.6453321 128.800336,13.3001689 128.357,12.8505 C127.913664,12.4008311 127.571668,11.8593365 127.331,11.226 C127.090332,10.5926635 126.97,9.88333726 126.97,9.098 Z M138.959,4.177 L141.505,4.177 L141.505,5.507 L141.543,5.507 C141.897668,5.0003308 142.325164,4.60766806 142.8255,4.329 C143.325836,4.05033194 143.898997,3.911 144.545,3.911 C145.16567,3.911 145.732497,4.03133213 146.2455,4.272 C146.758503,4.51266787 147.147999,4.93699696 147.414,5.545 C147.705335,5.11433118 148.101164,4.73433498 148.6015,4.405 C149.101836,4.07566502 149.693997,3.911 150.378,3.911 C150.897336,3.911 151.378664,3.9743327 151.822,4.101 C152.265336,4.2276673 152.645332,4.43033194 152.962,4.709 C153.278668,4.98766806 153.525666,5.35183109 153.703,5.8015 C153.880334,6.25116892 153.969,6.7926635 153.969,7.426 L153.969,14 L151.271,14 L151.271,8.433 C151.271,8.10366502 151.258333,7.79333479 151.233,7.502 C151.207667,7.21066521 151.138001,6.95733441 151.024,6.742 C150.909999,6.52666559 150.742168,6.3556673 150.5205,6.229 C150.298832,6.1023327 149.998002,6.039 149.618,6.039 C149.237998,6.039 148.930835,6.11183261 148.6965,6.2575 C148.462165,6.4031674 148.278501,6.5931655 148.1455,6.8275 C148.012499,7.06183451 147.923834,7.32783185 147.8795,7.6255 C147.835166,7.92316816 147.813,8.22399848 147.813,8.528 L147.813,14 L145.115,14 L145.115,8.49 C145.115,8.19866521 145.108667,7.91050143 145.096,7.6255 C145.083333,7.34049858 145.0295,7.07766787 144.9345,6.837 C144.8395,6.59633213 144.681168,6.4031674 144.4595,6.2575 C144.237832,6.11183261 143.911669,6.039 143.481,6.039 C143.354333,6.039 143.186501,6.06749972 142.9775,6.1245 C142.768499,6.18150029 142.565834,6.28916588 142.3695,6.4475 C142.173166,6.60583413 142.005334,6.83383185 141.866,7.1315 C141.726666,7.42916816 141.657,7.81866426 141.657,8.3 L141.657,14 L138.959,14 L138.959,4.177 Z M161.056,12.233 C161.499336,12.233 161.869832,12.1443342 162.1675,11.967 C162.465168,11.7896658 162.705832,11.5585014 162.8895,11.2735 C163.073168,10.9884986 163.203,10.6560019 163.279,10.276 C163.355,9.8959981 163.393,9.50966863 163.393,9.117 C163.393,8.72433137 163.351834,8.3380019 163.2695,7.958 C163.187166,7.5779981 163.051001,7.23916816 162.861,6.9415 C162.670999,6.64383185 162.427168,6.40316759 162.1295,6.2195 C161.831832,6.03583242 161.467669,5.944 161.037,5.944 C160.593664,5.944 160.223168,6.03583242 159.9255,6.2195 C159.627832,6.40316759 159.387168,6.64066521 159.2035,6.932 C159.019832,7.22333479 158.89,7.5589981 158.814,7.939 C158.738,8.3190019 158.7,8.71166464 158.7,9.117 C158.7,9.50966863 158.741166,9.8959981 158.8235,10.276 C158.905834,10.6560019 159.038832,10.9884986 159.2225,11.2735 C159.406168,11.5585014 159.649998,11.7896658 159.954,11.967 C160.258002,12.1443342 160.625331,12.233 161.056,12.233 Z M156.097,4.177 L158.662,4.177 L158.662,5.431 L158.7,5.431 C159.029335,4.89899734 159.447331,4.51266787 159.954,4.272 C160.460669,4.03133213 161.017997,3.911 161.626,3.911 C162.398671,3.911 163.063664,4.05666521 163.621,4.348 C164.178336,4.63933479 164.640665,5.02566426 165.008,5.507 C165.375335,5.98833574 165.647666,6.54883014 165.825,7.1885 C166.002334,7.82816987 166.091,8.49632985 166.091,9.193 C166.091,9.85166996 166.002334,10.484997 165.825,11.093 C165.647666,11.701003 165.378502,12.239331 165.0175,12.708 C164.656498,13.176669 164.206836,13.5503319 163.6685,13.829 C163.130164,14.1076681 162.500004,14.247 161.778,14.247 C161.169997,14.247 160.609503,14.1235012 160.0965,13.8765 C159.583497,13.6294988 159.162335,13.2653357 158.833,12.784 L158.795,12.784 L158.795,17.439 L156.097,17.439 L156.097,4.177 Z M171.126,4.177 L173.102,4.177 L173.102,5.982 L171.126,5.982 L171.126,10.846 C171.126,11.3020023 171.201999,11.6059992 171.354,11.758 C171.506001,11.9100008 171.809998,11.986 172.266,11.986 C172.418001,11.986 172.563666,11.9796667 172.703,11.967 C172.842334,11.9543333 172.975333,11.9353335 173.102,11.91 L173.102,14 C172.873999,14.0380002 172.620668,14.0633333 172.342,14.076 C172.063332,14.0886667 171.791001,14.095 171.525,14.095 C171.106998,14.095 170.711169,14.0665003 170.3375,14.0095 C169.963831,13.9524997 169.634501,13.8416675 169.3495,13.677 C169.064499,13.5123325 168.839667,13.2780015 168.675,12.974 C168.510333,12.6699985 168.428,12.2710025 168.428,11.777 L168.428,5.982 L166.794,5.982 L166.794,4.177 L168.428,4.177 L168.428,1.232 L171.126,1.232 L171.126,4.177 Z M181.006,8.034 C180.879333,7.34999658 180.654502,6.83066844 180.3315,6.476 C180.008498,6.12133156 179.51767,5.944 178.859,5.944 C178.428331,5.944 178.070501,6.01683261 177.7855,6.1625 C177.500499,6.3081674 177.272501,6.48866559 177.1015,6.704 C176.930499,6.91933441 176.810167,7.14733213 176.7405,7.388 C176.670833,7.62866787 176.629667,7.84399905 176.617,8.034 L181.006,8.034 Z M176.617,9.744 C176.655,10.6180044 176.876665,11.2513314 177.282,11.644 C177.687335,12.0366686 178.269996,12.233 179.03,12.233 C179.574669,12.233 180.043331,12.0968347 180.436,11.8245 C180.828669,11.5521653 181.069333,11.2640015 181.158,10.96 L183.533,10.96 C183.152998,12.1380059 182.570337,12.9803308 181.785,13.487 C180.999663,13.9936692 180.049672,14.247 178.935,14.247 C178.162329,14.247 177.46567,14.1235012 176.845,13.8765 C176.22433,13.6294988 175.698669,13.2780023 175.268,12.822 C174.837331,12.3659977 174.504835,11.8213365 174.2705,11.188 C174.036165,10.5546635 173.919,9.8580038 173.919,9.098 C173.919,8.36332966 174.039332,7.6793365 174.28,7.046 C174.520668,6.4126635 174.862664,5.86483565 175.306,5.4025 C175.749336,4.94016436 176.278164,4.57600133 176.8925,4.31 C177.506836,4.04399867 178.187663,3.911 178.935,3.911 C179.771004,3.911 180.49933,4.07249839 181.12,4.3955 C181.74067,4.71850162 182.250498,5.15233061 182.6495,5.697 C183.048502,6.24166939 183.336666,6.86232985 183.514,7.559 C183.691334,8.25567015 183.754667,8.9839962 183.704,9.744 L176.617,9.744 Z" transform="translate(20.042 21.867)"/>
      <g transform="rotate(17 12.843 572.736)">
        <path fill="#FFF" d="M57.1774225,27.0449904 C56.3748574,27.0442529 55.5807244,27.208662 54.8444225,27.5279904 C53.9556433,25.265348 51.7753548,23.7748236 49.3444225,23.7679904 C48.4485043,23.7674492 47.5644358,23.9727283 46.7604225,24.3679904 C45.7484232,22.4024132 43.7252147,21.1648081 41.5144225,21.1589904 C40.8629358,21.1589059 40.2160189,21.2677394 39.6004225,21.4809904 L39.6004225,14.9179904 C39.6004225,11.6495692 36.9508436,8.99999037 33.6824225,8.99999037 C30.4140013,8.99999037 27.7644225,11.6495692 27.7644225,14.9179904 L27.7644225,38.5239904 L23.5024225,33.6479904 C23.4724225,33.6149904 23.4424225,33.5819904 23.4104225,33.5479904 C22.2999254,32.4315148 20.791132,31.8023113 19.2164225,31.7989904 L19.1864225,31.7989904 C17.621633,31.7920015 16.1191795,32.4117816 15.0144225,33.5199904 C13.0574225,35.4769904 12.9494225,38.3829904 14.7144225,41.4929904 C17.0074225,45.5189904 19.4964225,49.3129904 21.6924225,52.6589904 C23.2924225,55.1049904 24.8134225,57.4159904 25.9214225,59.3259904 C26.8824225,60.9849904 29.4344225,66.3589904 29.4644225,66.4159904 C29.7943659,67.1117267 30.4944197,67.5562609 31.2644225,67.5589913 L56.5764225,67.5589913 C57.4459266,67.5598323 58.2163545,66.9987862 58.4824225,66.1709904 C58.9544225,64.7029904 63.0954371,51.6889904 63.0954371,46.6629904 L63.0954371,33.0039904 C63.1026257,29.7259382 60.4554462,27.060419 57.1774225,27.0449904 Z" transform="rotate(-45 38.28 38.28)"/>
        <path fill="#000" fill-rule="nonzero" d="M57.1774225,27.0449904 C56.3748574,27.0442529 55.5807244,27.208662 54.8444225,27.5279904 C53.9556433,25.265348 51.7753548,23.7748236 49.3444225,23.7679904 C48.4485043,23.7674492 47.5644358,23.9727283 46.7604225,24.3679904 C45.7484232,22.4024132 43.7252147,21.1648081 41.5144225,21.1589904 C40.8629358,21.1589059 40.2160189,21.2677394 39.6004225,21.4809904 L39.6004225,14.9179904 C39.6004225,11.6495692 36.9508436,8.99999037 33.6824225,8.99999037 C30.4140013,8.99999037 27.7644225,11.6495692 27.7644225,14.9179904 L27.7644225,38.5239904 L23.5024225,33.6479904 C23.4724225,33.6149904 23.4424225,33.5819904 23.4104225,33.5479904 C22.2999254,32.4315148 20.791132,31.8023113 19.2164225,31.7989904 L19.1864225,31.7989904 C17.621633,31.7920015 16.1191795,32.4117816 15.0144225,33.5199904 C13.0574225,35.4769904 12.9494225,38.3829904 14.7144225,41.4929904 C17.0074225,45.5189904 19.4964225,49.3129904 21.6924225,52.6589904 C23.2924225,55.1049904 24.8134225,57.4159904 25.9214225,59.3259904 C26.8824225,60.9849904 29.4344225,66.3589904 29.4644225,66.4159904 C29.7943659,67.1117267 30.4944197,67.5562609 31.2644225,67.5589913 L56.5764225,67.5589913 C57.4459266,67.5598323 58.2163545,66.9987862 58.4824225,66.1709904 C58.9544225,64.7029904 63.0954371,51.6889904 63.0954371,46.6629904 L63.0954371,33.0039904 C63.1026257,29.7259382 60.4554462,27.060419 57.1774225,27.0449904 Z M55.2644225,33.0039904 C55.2418382,32.3054296 55.6016246,31.6500469 56.2031124,31.2940838 C56.8046001,30.9381207 57.5522448,30.9381207 58.1537326,31.2940838 C58.7552203,31.6500469 59.1150067,32.3054296 59.0924225,33.0039904 L59.0924225,46.6589904 C59.0924225,49.9989904 56.5254225,58.9779904 55.1094225,63.5519904 L32.5304225,63.5519904 C31.7004225,61.8249904 30.1454225,58.6259904 29.3844225,57.3149904 C28.2204225,55.3129904 26.6754225,52.9589904 25.0394225,50.4589904 C22.8754225,47.1589904 20.4234225,43.4249904 18.1964225,39.5119904 C17.6154225,38.4899904 17.0824225,37.1119904 17.8454225,36.3489904 C18.2058302,35.9946324 18.6920002,35.7975753 19.1974225,35.8009904 C19.6972581,35.8018203 20.1778118,35.9939702 20.5404225,36.3379904 L28.2594225,45.1679904 C28.8071566,45.7938411 29.6850423,46.0154029 30.4641664,45.7244262 C31.2432905,45.4334495 31.7610269,44.6906695 31.7644225,43.8589904 L31.7644225,14.9179904 C31.7644225,13.8603651 32.6217972,13.0029904 33.6794225,13.0029904 C34.7370478,13.0029904 35.5944225,13.8603651 35.5944225,14.9179904 L35.5944225,33.6049904 C35.5944225,34.7095599 36.489853,35.6049904 37.5944225,35.6049904 C38.698992,35.6049904 39.5944225,34.7095599 39.5944225,33.6049904 L39.5944225,27.1139904 C39.5785509,26.4195744 39.9399414,25.7710062 40.5388175,25.4191355 C41.1376935,25.0672648 41.8801515,25.0672648 42.4790275,25.4191355 C43.0779035,25.7710062 43.439294,26.4195744 43.4234225,27.1139904 L43.4234225,36.2139904 C43.4234225,37.3185599 44.318853,38.2139904 45.4234225,38.2139904 C46.527992,38.2139904 47.4234225,37.3185599 47.4234225,36.2139904 L47.4234225,29.7269904 C47.4075509,29.0325744 47.7689414,28.3840062 48.3678175,28.0321355 C48.9666935,27.6802648 49.7091515,27.6802648 50.3080275,28.0321355 C50.9069035,28.3840062 51.268294,29.0325744 51.2524225,29.7269904 L51.2524225,38.8269904 C51.2524225,39.9315599 52.147853,40.8269904 53.2524225,40.8269904 C54.356992,40.8269904 55.2524225,39.9315599 55.2524225,38.8269904 L55.2524225,33.0039904 L55.2644225,33.0039904 Z" transform="rotate(-45 38.28 38.28)"/>
      </g>
    </g>
  </g>
</svg>