<svg height="420" viewBox="0 0 816 420" width="816" xmlns="http://www.w3.org/2000/svg" xmlns:xlink="http://www.w3.org/1999/xlink"><defs><linearGradient id="a" x1="50%" x2="50%" y1="0%" y2="95.2%"><stop offset="0" stop-color="#fafafa"/><stop offset="1" stop-color="#fff"/></linearGradient><path id="b" d="m4.73974609 3.9140625 2.69775391 8.4086914 2.6894531-8.4086914h3.834961v12.0859375h-2.921875v-2.8222656l.2822265-5.77734378-2.92187498 8.59960938h-1.92578124l-2.93017579-8.60791016.28222657 5.78564456v2.8222656h-2.91357422v-12.0859375zm10.59179691 7.512207c0-.8964888.1743146-1.69473931.5229492-2.39477536.3486345-.70003605.8494433-1.23819799 1.5024414-1.61450195.6529981-.37630397 1.4194292-.56445313 2.2993164-.56445313 1.3447333 0 2.4044558.41641836 3.1791992 1.24926758.7747435.83284922 1.1621094 1.96589456 1.1621094 3.39916996v.0996093c0 1.4000721-.3887494 2.5109823-1.1662598 3.3327637-.7775104.8217815-1.8303156 1.232666-3.1584472 1.232666-1.2783267 0-2.3048464-.3832155-3.0795899-1.1496582-.7747434-.7664426-1.1925452-1.8054133-1.2534179-3.1169433zm2.7973632.1743164c0 .8300823.1300443 1.4388002.3901368 1.8261719.2600924.3873717.6446914.5810547 1.1538086.5810547.9960987 0 1.5052082-.7664311 1.5273437-2.2993164v-.2822266c0-1.61035958-.5146433-2.41552731-1.5439453-2.41552731-.935226 0-1.4415686.69449175-1.519043 2.08349611zm9.6704102-4.58203121.0913086 1.05419922c.6197948-.81348063 1.4747667-1.22021485 2.5649414-1.22021485.935226 0 1.6338681.27945684 2.0959473.83837891.4620791.55892206.7014159 1.40005949.7180175 2.52343753v5.7856445h-2.805664v-5.6694336c0-.4537783-.0913077-.78718968-.2739258-1.00024413-.1826181-.21305446-.514646-.31958008-.9960937-.31958008-.5478543 0-.9545886.21581815-1.2202149.64746093v6.34179688h-2.7973633v-8.98144531zm15.9541016 6.45800781c0-.2379569-.1245105-.428873-.3735352-.5727539s-.7221645-.2932935-1.4194336-.4482422-1.2727842-.3583158-1.7265625-.6101074-.7996407-.557534-1.0375976-.9172363c-.237957-.3597024-.3569336-.7719704-.3569336-1.23681645 0-.82454839.3403286-1.5038222 1.0209961-2.0378418.6806674-.53401959 1.571609-.80102539 2.6728515-.80102539 1.1842507 0 2.1360641.26838925 2.8554688.80517578.7194046.53678654 1.0791015 1.24234589 1.0791015 2.11669922h-2.805664c0-.71940464-.3790652-1.07910156-1.1372071-1.07910156-.2932957 0-.5395497.08162353-.7387695.24487305-.1992197.16324951-.2988281.36661662-.2988281.61010742 0 .24902468.1217436.45100833.3652344.60595703s.6322401.2822261 1.1662597.3818359c.5340196.0996099 1.0030091.2185866 1.4069824.3569336 1.3502672.4648461 2.0253907 1.2976828 2.0253907 2.4985352 0 .8190145-.3638473 1.4858373-1.0915528 2.0004883-.7277054.514651-1.6698347.7719726-2.826416.7719726-.7692096 0-1.4554006-.1383449-2.0585937-.415039s-1.073566-.6529924-1.4111328-1.1289063c-.3375668-.4759138-.5063477-.9767226-.5063477-1.5024414h2.6147461c.0110678.4150411.1494127.7180166.4150391.9089356.2656263.1909189.6059549.2863769 1.0209961.2863769.3818378 0 .6682119-.0774732.8591308-.2324219s.286377-.3569323.286377-.605957zm7.2631836-8.69091797v2.23291016h1.477539v1.94238281h-1.477539v4.1088867c0 .3375668.0608717.5727533.1826172.7055664.1217454.1328132.3624656.1992188.7221679.1992188.2766941 0 .5091137-.0166014.6972656-.0498047v2.0004883c-.5035832.1604825-1.0292941.2407226-1.5771484.2407226-.9628954 0-1.6739886-.2268857-2.1333008-.680664s-.6889648-1.1427363-.6889648-2.0668946v-4.4575195h-1.1455078v-1.94238281h1.1455078v-2.23291016zm7.6367187 11.21435547c-.0996099-.1826181-.1881506-.4510073-.265625-.8051758-.514651.6474642-1.2340448.9711914-2.1582031.9711914-.8466839 0-1.5660778-.2559382-2.1582031-.7678222-.5921254-.5118841-.8881836-1.1551882-.8881836-1.9299317 0-.9739632.3596969-1.7099584 1.0791015-2.2080078.7194047-.4980494 1.7652926-.7470703 3.1376953-.7470703h.8632813v-.4731445c0-.82454843-.35693-1.23681644-1.0708008-1.23681644-.6640658 0-.9960937.32649413-.9960937.97949218h-2.7973633c0-.86881944.3693811-1.5743788 1.1081543-2.11669922.7387732-.54232041 1.6809025-.81347656 2.826416-.81347656s2.0502896.27945684 2.7143555.83837891c.6640658.55892206 1.0043944 1.3253532 1.0209961 2.29931641v3.97607422c.0110677.8245484.1383451 1.4554015.3818359 1.8925781v.1411133zm-1.7514648-1.8261719c.3486345 0 .6377755-.0747063.8674316-.2241211s.3942866-.3181956.4938965-.5063476v-1.4360352h-.8134766c-.9739632 0-1.4609375.4371701-1.4609375 1.3115235 0 .2545585.0857739.4606925.2573243.6184082.1715503.1577156.3901353.2365722.6557617.2365722zm5.387207-2.730957c0-.9075566.1494126-1.70995746.4482422-2.40722657s.727699-1.23543105 1.2866211-1.61450195c.558922-.37907091 1.2091434-.56860352 1.9506836-.56860352.935226 0 1.6656875.31542654 2.1914062.94628906l.0996094-.78027343h2.5400391v8.64111331c0 .7913451-.1839988 1.4789196-.552002 2.0627441-.3680031.5838245-.9006313 1.0320622-1.5979004 1.3447266-.6972691.3126643-1.5052037.4689941-2.4238281.4689941-.6585319 0-1.2963023-.1245105-1.9133301-.3735351-.6170278-.2490247-1.0887842-.572752-1.4152832-.9711915l1.1704102-1.6435546c.5201849.6142608 1.2063759.9213867 2.0585937.9213867 1.2395896 0 1.859375-.6363869 1.859375-1.9091797v-.2822266c-.5367865.5921254-1.2146769.8881836-2.0336914.8881836-1.0957086 0-1.9811164-.4191852-2.65625-1.2575683s-1.0126953-1.9603608-1.0126953-3.3659668zm2.8056641.1743164c0 .7360063.1383449 1.3184386.415039 1.7473145.2766941.4288758.66406.6433105 1.1621094.6433105.6031931 0 1.0431301-.2019837 1.3198242-.605957v-3.7768555c-.2711602-.40950726-.7055634-.61425781-1.3032226-.61425781-.4980494 0-.8881822.2227354-1.1704102.66821289-.282228.44547752-.4233398 1.09154852-.4233398 1.93823242zm11.6459961 4.5488281c-1.3779366 0-2.4929971-.4108845-3.3452149-1.232666-.8522178-.8217814-1.2783203-1.8911881-1.2783203-3.2082519v-.2324219c0-.9186244.1701643-1.72932593.510498-2.43212892.3403338-.702803.8369922-1.24649873 1.4899903-1.63110352.652998-.38460479 1.4277299-.5769043 2.3242187-.5769043 1.2617251 0 2.2578089.39151627 2.9882813 1.17456055s1.0957031 1.8745861 1.0957031 3.27465819v1.0874024h-5.5615234c.0996098.5035832.3181949.8992498.6557617 1.1870117.3375668.2877618.7747369.4316406 1.3115234.4316406.8854211 0 1.577146-.3098927 2.0751953-.9296875l1.2783203 1.5107422c-.3486345.4814477-.8425261.8646633-1.4816894 1.1496582-.6391634.2849949-1.3267379.4274902-2.0627441.4274902zm-.3154297-7.15527341c-.8190145 0-1.3059888.54231228-1.4609375 1.62695311h2.8222656v-.2158203c.0110678-.44824443-.1023751-.79549031-.340332-1.04174805-.237957-.24625774-.5782856-.36938476-1.0209961-.36938476zm9.105957 2.43212891c0-1.4222076.3071258-2.5428019.9213867-3.36181641s1.4719997-1.22851563 2.5732422-1.22851563c.8024129 0 1.4775363.31542654 2.0253906.94628906v-4.54882812h2.8056641v12.75h-2.5151367l-.1411133-.9628906c-.5755237.7526079-1.3059852 1.1289062-2.1914063 1.1289062-1.0680392 0-1.9147104-.4095011-2.540039-1.2285156-.6253287-.8190145-.9379883-1.9838792-.9379883-3.4946289zm2.7973633.1743164c0 1.593758.4648391 2.390625 1.3945312 2.390625.6197948 0 1.0624987-.2600885 1.328125-.7802734v-3.41992191c-.2545585-.53125266-.6917286-.796875-1.3115234-.796875-.8632856 0-1.3308916.69725865-1.402832 2.09179691zm11.4633789 4.5488281c-1.3779366 0-2.4929971-.4108845-3.3452149-1.232666-.8522178-.8217814-1.2783203-1.8911881-1.2783203-3.2082519v-.2324219c0-.9186244.1701643-1.72932593.5104981-2.43212892.3403337-.702803.8369922-1.24649873 1.4899902-1.63110352.6529981-.38460479 1.4277299-.5769043 2.3242188-.5769043 1.2617249 0 2.2578089.39151627 2.9882809 1.17456055.730473.78304428 1.095703 1.8745861 1.095703 3.27465819v1.0874024h-5.561523c.0996099.5035832.3181949.8992498.6557617 1.1870117.3375668.2877618.7747369.4316406 1.3115235.4316406.8854208 0 1.5771458-.3098927 2.0751948-.9296875l1.278321 1.5107422c-.348635.4814477-.842526.8646633-1.48169 1.1496582-.639163.2849949-1.326738.4274902-2.0627438.4274902zm-.3154297-7.15527341c-.8190145 0-1.3059888.54231228-1.4609375 1.62695311h2.822266v-.2158203c.011067-.44824443-.102375-.79549031-.340332-1.04174805s-.578286-.36938476-1.0209965-.36938476zm11.9697265-.2241211h1.319824c1.045904 0 1.568848-.51187639 1.568848-1.53564453 0-.39843949-.124511-.72355017-.373535-.97534179-.249025-.25179163-.600421-.37768555-1.054199-.37768555-.370771 0-.693114.10790908-.967041.32373047-.273928.21582139-.410889.48421063-.410889.80517578h-2.797363c0-.63639641.177081-1.20361079.53125-1.70166016.354168-.49804936.845293-.88679873 1.473388-1.16625976.628096-.27946104 1.318437-.41918946 2.071045-.41918946 1.344733 0 2.401689.30712584 3.170899.92138672.769209.61426089 1.153808 1.45816521 1.153808 2.53173828 0 .5201849-.159096 1.01130954-.477295 1.47338868-.318198.46207913-.781654.836994-1.390381 1.12475585.641931.23242308 1.145506.58520268 1.510743 1.05834958.365236.4731469.547851 1.0583462.547851 1.7556153 0 1.0791069-.415035 1.9423795-1.245117 2.5898437s-1.920241.9711914-3.270508.9711914c-.791345 0-1.525957-.150796-2.203857-.4523926-.677901-.3015965-1.191161-.7193983-1.539795-1.2534179-.348635-.5340196-.522949-1.141354-.522949-1.8220215h2.813964c0 .3707701.149413.6917304.448243.9628906.298829.2711602.666827.4067383 1.104004.4067383.492515 0 .885415-.1369615 1.178711-.4108887.293295-.2739271.439941-.6239399.439941-1.0500488 0-.608727-.15218-1.0403633-.456543-1.2949219-.304364-.2545585-.724932-.3818359-1.261719-.3818359h-1.361328zm11.679199 7.37939451c-1.377936 0-2.492997-.4108845-3.345215-1.232666-.852217-.8217814-1.27832-1.8911881-1.27832-3.2082519v-.2324219c0-.9186244.170164-1.72932593.510498-2.43212892.340334-.702803.836992-1.24649873 1.48999-1.63110352s1.42773-.5769043 2.324219-.5769043c1.261725 0 2.257809.39151627 2.988281 1.17456055.730473.78304428 1.095704 1.8745861 1.095704 3.27465819v1.0874024h-5.561524c.09961.5035832.318195.8992498.655762 1.1870117.337567.2877618.774737.4316406 1.311523.4316406.885421 0 1.577146-.3098927 2.075196-.9296875l1.27832 1.5107422c-.348635.4814477-.842526.8646633-1.48169 1.1496582-.639163.2849949-1.326737.4274902-2.062744.4274902zm-.315429-7.15527341c-.819015 0-1.305989.54231228-1.460938 1.62695311h2.822266v-.2158203c.011067-.44824443-.102375-.79549031-.340332-1.04174805s-.578286-.36938476-1.020996-.36938476zm.946289-3.16259766h-2.274414l-2.340821-2.60644531h2.955078zm6.922851 1.17041016.091309 1.05419922c.636396-.81348063 1.491368-1.22021485 2.564941-1.22021485 1.134446 0 1.900877.45100461 2.299317 1.35302735.608727-.90202274 1.488601-1.35302735 2.639648-1.35302735 1.820647 0 2.755859 1.10122597 2.805664 3.30371094v5.84375h-2.805664v-5.6694336c0-.45931219-.077473-.79410702-.232422-1.00439452-.154949-.21028751-.437172-.31542969-.84668-.31542969-.553388 0-.965656.24625405-1.236816.73876953l.008301.11621094v6.13427734h-2.805664v-5.652832c0-.47037999-.074706-.81070862-.224121-1.02099612-.149415-.21028751-.434406-.31542969-.854981-.31542969-.536786 0-.946287.24625405-1.228515.73876953v6.25048828h-2.797364v-8.98144531zm16.344239 9.14746091c-1.377937 0-2.492998-.4108845-3.345215-1.232666-.852218-.8217814-1.278321-1.8911881-1.278321-3.2082519v-.2324219c0-.9186244.170165-1.72932593.510498-2.43212892.340334-.702803.836993-1.24649873 1.489991-1.63110352s1.42773-.5769043 2.324218-.5769043c1.261725 0 2.257809.39151627 2.988282 1.17456055.730472.78304428 1.095703 1.8745861 1.095703 3.27465819v1.0874024h-5.561524c.09961.5035832.318195.8992498.655762 1.1870117.337567.2877618.774737.4316406 1.311523.4316406.885422 0 1.577146-.3098927 2.075196-.9296875l1.27832 1.5107422c-.348634.4814477-.842526.8646633-1.481689 1.1496582-.639164.2849949-1.326738.4274902-2.062744.4274902zm-.31543-7.15527341c-.819015 0-1.305989.54231228-1.460938 1.62695311h2.822266v-.2158203c.011068-.44824443-.102375-.79549031-.340332-1.04174805s-.578286-.36938476-1.020996-.36938476z"/><path id="c" d="m4.88769531 10.1782227c0-.31738444-.11954633-.56388263-.35864258-.739502-.23909624-.17561936-.6559215-.32690366-1.25048828-.45385742-.59456677-.12695376-1.0664045-.27929599-1.41552734-.45703125s-.60725828-.38932169-.77441406-.63476562c-.16715579-.24544394-.25073242-.53743321-.25073242-.87597657 0-.56282833.23803472-1.03889779.71411132-1.42822265.4760766-.38932487 1.08438758-.58398438 1.82495117-.58398438.77864973 0 1.41023521.20100711 1.8947754.60302735.48454018.40202024.72680664.91617525.72680664 1.54248046h-1.18066407c0-.32161619-.13647324-.5987944-.40942382-.83154296-.27295059-.23274856-.61677853-.3491211-1.03149415-.3491211-.42741099 0-.76171754.09309803-1.00292968.27929688-.24121215.18619885-.36181641.42952323-.36181641.72998047 0 .28353006.11214081.49723235.33642578.64111328.22428498.14388093.62947298.2814121 1.21557617.41259765.5861032.13118556 1.06111472.28775951 1.42504883.46972657.36393411.18196705.63370681.400959.80932617.65698242.17561937.25602341.26342774.56811339.26342774.93627927 0 .6136099-.24544026 1.1055483-.73632813 1.4758301s-1.12776301.5554199-1.91064453.5554199c-.55013296 0-1.03678174-.0973297-1.45996094-.2919922-.42317919-.1946624-.75431195-.466551-.9934082-.8156738s-.35864258-.7268046-.35864258-1.13305663h1.17431641c.02115896.39355663.17879085.70564663.47290039.93627933.29410954.2306326.68237064.3459472 1.16479492.3459472.44433816 0 .80086129-.0899242 1.06958008-.2697754.26871879-.1798511.40307617-.4200017.40307617-.7204589zm6.94433589 1.1425781c-.4570335.5374376-1.1277625.8061523-2.01220698.8061523-.73210002 0-1.28963025-.2126443-1.67260742-.6379394-.38297718-.4252951-.57657876-1.0547647-.58081055-1.88842776v-4.46875h1.17431641v4.43701172c0 1.04102084.42317285 1.56152344 1.26953124 1.56152344.8971399 0 1.4938136-.3343066 1.7900391-1.0029297v-4.99560546h1.1743164v6.86816406h-1.1171875zm8.7280274-2.67871096c0 1.04525263-.2390927 1.88736656-.7172852 2.52636716s-1.1256469.9584961-1.9423828.9584961c-.833663 0-1.4895809-.264483-1.9677734-.793457v3.3071289h-1.1743164v-9.50878906h1.0727539l.0571289.76171875c.4781925-.59245088 1.1425739-.88867188 1.9931641-.88867188.8251994 0 1.4779435.31103205 1.9582519.93310547s.720459 1.48746191.720459 2.59619141zm-1.1743164-.13330078c0-.77441793-.1650374-1.3859027-.4951172-1.83447265s-.7828747-.67285157-1.3583984-.67285157c-.7109411 0-1.2441389.31526378-1.5996094.94580078v3.28173828c.3512387.6263052.8886682.9394531 1.6123047.9394531.5628283 0 1.0103336-.2232236 1.3425293-.6696777.3321956-.4464541.498291-1.1097775.498291-1.98999024zm8.4677734.13330078c0 1.04525263-.2390926 1.88736656-.7172851 2.52636716s-1.125647.9584961-1.9423828.9584961c-.8336631 0-1.489581-.264483-1.9677735-.793457v3.3071289h-1.1743164v-9.50878906h1.0727539l.0571289.76171875c.4781925-.59245088 1.1425739-.88867188 1.9931641-.88867188.8251994 0 1.4779435.31103205 1.9582519.93310547s.720459 1.48746191.720459 2.59619141zm-1.1743164-.13330078c0-.77441793-.1650374-1.3859027-.4951172-1.83447265-.3300797-.44856995-.7828747-.67285157-1.3583984-.67285157-.7109411 0-1.2441389.31526378-1.5996094.94580078v3.28173828c.3512388.6263052.8886683.9394531 1.6123047.9394531.5628283 0 1.0103336-.2232236 1.3425293-.6696777s.498291-1.1097775.498291-1.98999024zm2.3549805-.00634765c0-.67285493.1322415-1.27799211.3967285-1.81542969s.6326474-.95214698 1.1044922-1.24414063c.4718448-.29199364 1.0103323-.43798828 1.6154785-.43798828.935226 0 1.6916475.32372723 2.2692871.97119141.5776396.64746417.8664551 1.50862093.8664551 2.58349609v.08251953c0 .66862314-.1280098 1.26847066-.3840332 1.79956056s-.6220679.9447413-1.0981445 1.2409668c-.4760766.2962254-1.0230276.4443359-1.6408692.4443359-.9309942 0-1.6852998-.3237272-2.2629394-.9711914s-.8664551-1.50438918-.8664551-2.57080076zm1.1806641.13964843c0 .76172256.1766746 1.37320736.5300292 1.83447266.3533547.4612653.8262503.6918945 1.4187012.6918945.5966827 0 1.0706363-.233803 1.421875-.701416.3512388-.467613.5268555-1.12247299.5268555-1.96459959 0-.75325898-.1787905-1.36368582-.536377-1.83129883-.3575864-.46761302-.8325979-.70141602-1.4250488-.70141602-.5797555 0-1.0473615.23062921-1.402832.69189453-.3554706.46126533-.5332031 1.12141498-.5332031 1.98046875zm9.8642578-2.45654296c-.1777353-.02962255-.3702789-.0444336-.5776368-.0444336-.7701861 0-1.2928046.32795896-1.567871.98388672v4.875h-1.1743165v-6.86816406h1.1425782l.0190429.79345703c.3850931-.61360984.9309861-.92041016 1.6376954-.92041016.2285167 0 .4020176.0296221.5205078.08886719zm2.9897461-2.71679688v1.66308594h1.2822265v.90771484h-1.2822265v4.25927732c0 .2750665.0571283.4813633.1713867.6188965s.3089179.2062988.5839844.2062988c.1354173 0 .3216133-.0253903.5585937-.0761718v.9521484c-.3089208.0846358-.6093735.1269531-.9013672.1269531-.5247422 0-.9204088-.1586898-1.1870117-.4760742s-.3999024-.7680635-.3999024-1.3520508v-4.25927732h-1.2504882v-.90771484h1.2504882v-1.66308594zm12.796875 5.34472656c-.0507815 1.02409366-.3046853 1.83235384-.7617188 2.42480464-.4570335.5924509-1.0685183.8886719-1.8344727.8886719-.7913451 0-1.2991525-.3554652-1.5234374-1.0664062-.2285168.3597023-.4898261.6273591-.7839356.8029785s-.5977361.2634277-.9108887.2634277c-.6009144 0-1.0558252-.2454402-1.3647461-.7363281-.3089208-.4908879-.4231774-1.1700803-.3427734-2.03759766.0634769-.69824567.2232246-1.3213677.479248-1.86938476.2560235-.54801706.5860983-.97859544.9902344-1.29174805.4041362-.31315261.8283669-.46972656 1.2727051-.46972656.3427752 0 .6495755.04549108.9204102.13647461.2708346.09098353.5755191.26977406.9140625.53637695l-.3300782 3.51660156c-.080404.97754391.1904266 1.46630861.8125 1.46630861.4781925 0 .8653957-.2369768 1.1616211-.7109375.2962255-.4739607.4570311-1.09179308.4824219-1.85351564.080404-1.64616708-.2253383-2.90087459-.9172363-3.76416015-.691898-.86328557-1.7445405-1.29492188-3.157959-1.29492188-.8505902 0-1.6059537.21052849-2.2661133.6315918-.6601595.4210633-1.1806622 1.02937428-1.5615234 1.82495117-.3808613.79557689-.5945636 1.71386198-.6411133 2.75488281-.0507815 1.04948439.0761703 1.96036399.3808594 2.73266599.304689.7723021.7691212 1.3626282 1.3933105 1.7709961s1.3784949.6125488 2.2629395.6125488c.3808612 0 .7627747-.046549 1.1457519-.1396484s.7014148-.2137037.9553223-.3618164l.2348633.7299805c-.2623711.1650399-.6104308.3004552-1.0441895.40625s-.8728005.1586914-1.3171387.1586914c-1.057948 0-1.9677696-.2380347-2.7294922-.7141113-.7617225-.4760766-1.3319479-1.1616167-1.7106933-2.0566407s-.5427249-1.9413189-.4919434-3.13891599c.0507815-1.1637428.3110328-2.21003767.7807617-3.13891601.469729-.92887835 1.1066041-1.64615633 1.9106446-2.15185547s1.7117462-.75854492 2.7231445-.75854492c1.0537162 0 1.9571903.23697679 2.7104492.7109375.753259.4739607 1.313963 1.15738485 1.6821289 2.05029297.3681659.89290811.5268558 1.93814505.4760743 3.13574218zm-6.5126954.53955078c-.059245.60091447-.0031746 1.06217286.1682129 1.38378906.1713876.3216162.4432762.4824219.8156739.4824219.2539075 0 .4982898-.1079091.7331543-.3237305.2348644-.2158214.428466-.5247376.5808105-.9267578l.0063477-.05712891.2919921-3.19287109c-.2369803-.12272197-.490884-.18408203-.7617187-.18408203-.4951197 0-.9045394.25178785-1.2282715.75537109-.3237321.50358325-.5257971 1.19123913-.6062012 2.06298828zm9.1469727-4.2211914.0317383.76171875c.5035832-.59245088 1.1827757-.88867188 2.0375976-.88867188.9606168 0 1.6144189.36816038 1.9614258 1.10449219.2285168-.33007978.5257957-.59667867.8918457-.79980469.36605-.20312601.7987443-.3046875 1.2980957-.3046875 1.506518 0 2.2724608.79768083 2.2978516 2.39306641v4.60205078h-1.1743164v-4.53222656c0-.49088787-.1121408-.85799032-.3364258-1.10131836s-.6009088-.36499024-1.1298828-.36499024c-.4358746 0-.7976874.13012566-1.0854492.39038086-.2877619.26025521-.4549152.61043075-.5014649 1.05053711v4.55761719h-1.180664v-4.50048828c0-.99870291-.4887647-1.49804688-1.4663086-1.49804688-.7701862 0-1.2970364.32795896-1.5805664.98388672v5.01464844h-1.1743164v-6.86816406zm9.9785156 3.37060547c0-.67285493.1322415-1.27799211.3967285-1.81542969s.6326474-.95214698 1.1044922-1.24414063c.4718448-.29199364 1.0103323-.43798828 1.6154785-.43798828.9352261 0 1.6916475.32372723 2.2692872.97119141.5776396.64746417.866455 1.50862093.866455 2.58349609v.08251953c0 .66862314-.1280098 1.26847066-.3840332 1.79956056s-.6220679.9447413-1.0981445 1.2409668c-.4760766.2962254-1.0230275.4443359-1.6408691.4443359-.9309943 0-1.6852999-.3237272-2.2629395-.9711914s-.8664551-1.50438918-.8664551-2.57080076zm1.1806641.13964843c0 .76172256.1766747 1.37320736.5300293 1.83447266s.8262503.6918945 1.4187012.6918945c.5966826 0 1.0706362-.233803 1.421875-.701416.3512387-.467613.5268554-1.12247299.5268554-1.96459959 0-.75325898-.1787905-1.36368582-.5363769-1.83129883-.3575865-.46761302-.832598-.70141602-1.4250489-.70141602-.5797555 0-1.0473615.23062921-1.402832.69189453-.3554705.46126533-.5332031 1.12141498-.5332031 1.98046875zm7.6552734-3.5102539.038086.86328125c.5247422-.66015955 1.2102822-.99023438 2.0566406-.99023438 1.4515046 0 2.1835937.81883947 2.1962891 2.45654297v4.53857422h-1.1743165v-4.54492188c-.0042317-.49511966-.1174305-.86116417-.3395996-1.09814453-.222169-.23698035-.5681129-.35546875-1.0378418-.35546875-.3808612 0-.7151678.10156149-1.0029297.3046875-.2877618.20312602-.5120434.46972492-.6728515.79980469v4.89404297h-1.1743164v-6.86816406zm10.0610352 5.04638676c0-.31738444-.1195463-.56388263-.3586426-.739502-.2390962-.17561936-.6559215-.32690366-1.2504883-.45385742s-1.0664045-.27929599-1.4155273-.45703125c-.3491229-.17773526-.6072583-.38932169-.7744141-.63476562-.1671558-.24544394-.2507324-.53743321-.2507324-.87597657 0-.56282833.2380347-1.03889779.7141113-1.42822265.4760766-.38932487 1.0843876-.58398438 1.8249512-.58398438.7786497 0 1.4102352.20100711 1.8947754.60302735s.7268066.91617525.7268066 1.54248046h-1.180664c0-.32161619-.1364733-.5987944-.4094239-.83154296-.2729505-.23274856-.6167785-.3491211-1.0314941-.3491211-.427411 0-.7617176.09309803-1.0029297.27929688s-.3618164.42952323-.3618164.72998047c0 .28353006.1121408.49723235.3364258.64111328s.629473.2814121 1.2155762.41259765c.5861031.13118556 1.0611147.28775951 1.4250488.46972657.3639341.18196705.6337068.400959.8093262.65698242.1756193.25602341.2634277.56811339.2634277.93627927 0 .6136099-.2454403 1.1055483-.7363281 1.4758301-.4908879.3702818-1.1277631.5554199-1.9106446.5554199-.5501329 0-1.0367817-.0973297-1.4599609-.2919922-.4231792-.1946624-.754312-.466551-.9934082-.8156738-.2390963-.3491228-.3586426-.7268046-.3586426-1.13305663h1.1743164c.021159.39355663.1787909.70564663.4729004.93627933.2941096.2306326.6823706.3459472 1.1647949.3459472.4443382 0 .8008613-.0899242 1.0695801-.2697754.2687188-.1798511.4030762-.4200017.4030762-.7204589zm4.2973633-6.7094727v1.66308594h1.2822265v.90771484h-1.2822265v4.25927732c0 .2750665.0571283.4813633.1713867.6188965s.3089179.2062988.5839844.2062988c.1354173 0 .3216134-.0253903.5585937-.0761718v.9521484c-.3089208.0846358-.6093735.1269531-.9013672.1269531-.5247422 0-.9204088-.1586898-1.1870117-.4760742s-.3999023-.7680635-.3999023-1.3520508v-4.25927732h-1.2504883v-.90771484h1.2504883v-1.66308594zm6.8935546 8.53125c-.0677086-.1354173-.1227211-.3766259-.165039-.7236328-.5459012.5670601-1.1975874.8505859-1.9550781.8505859-.6770868 0-1.2325011-.1914857-1.6662598-.5744629-.4337587-.3829771-.6506348-.868568-.6506348-1.4567871 0-.71517282.2718886-1.27058719.8156739-1.66625974.5437852-.39567255 1.3086702-.59350586 2.2946777-.59350586h1.1425781v-.53955078c0-.41048382-.1227201-.73738485-.368164-.98071289-.245444-.24332804-.6072568-.36499024-1.0854493-.36499024-.4189474 0-.7701808.10579322-1.0537109.31738282s-.425293.46760917-.425293.7680664h-1.180664c0-.34277515.1216622-.67390791.3649902-.9934082.243328-.3195003.5734029-.57234607.9902344-.75854492s.8749161-.27929688 1.3742676-.27929688c.7913451 0 1.4112933.19783331 1.8598632.59350586.44857.39567255.6813151.9405076.6982422 1.63452149v3.16113284c0 .630537.0804029 1.1319968.241211 1.5043945v.1015625zm-1.9487304-.8950195c.3681659 0 .7172835-.0952139 1.0473633-.2856446.3300797-.1904306.5691724-.4379867.7172851-.7426757v-1.40917973h-.9204101c-1.4388093 0-2.1582032.42105699-2.1582032 1.26318359 0 .36816594.1227202.65592344.3681641.86328124s.5607077.3110352.9458008.3110352zm4.5004882-2.59619144c0-1.07064337.247556-1.92227874.742676-2.55493164s1.151037-.94897461 1.967773-.94897461c.837895 0 1.491697.296221 1.961426.88867188l.057129-.76171875h1.072754v6.70312496c0 .8886764-.263425 1.5890274-.790283 2.1010743-.526858.5120468-1.234615.7680664-2.123291.7680664-.49512 0-.979653-.1057933-1.453614-.3173828-.47396-.2115896-.835773-.5014631-1.085449-.869629l.609375-.7045898c.503583.6220734 1.1193.9331055 1.847168.9331055.571292 0 1.016681-.1608057 1.336182-.4824219.3195-.3216162.479248-.7744111.479248-1.3583984v-.5903321c-.469729.5416694-1.110836.8125-1.92334.8125-.804041 0-1.454669-.3237272-1.951904-.9711914-.497236-.6474642-.74585-1.52977955-.74585-2.64697264zm1.180664.13330078c0 .77441794.15869 1.38272896.476074 1.82495116.317385.4422223.761716.6633301 1.333008.6633301.740564 0 1.284341-.3364224 1.631348-1.0092773v-3.13574224c-.359703-.65592776-.899248-.98388672-1.618653-.98388672-.571291 0-1.017739.22216575-1.339355.66650391s-.482422 1.10237194-.482422 1.97412109zm9.242188 3.48486326c-.930995 0-1.688474-.3057424-2.272461-.9172363-.583988-.6114939-.875977-1.42927548-.875977-2.45336914v-.21582032c0-.68131851.130126-1.28962948.390381-1.82495117s.624184-.95426281 1.091797-1.25683594c.467613-.30257312.974362-.45385742 1.520264-.45385742.892908 0 1.586911.29410513 2.082031.88232422.495119.58821909.742676 1.43033306.742676 2.52636719v.48876953h-4.652832c.016927.67708672.21476 1.22403765.593505 1.64086915.378746.4168315.860105.6252441 1.444092.6252441.414716 0 .765949-.0846345 1.053711-.2539062s.53955-.3935533.755371-.6728516l.717285.5585938c-.575523.8844445-1.438796 1.3266601-2.589843 1.3266601zm-.145996-6.15722654c-.473961 0-.871744.17244294-1.19336.51733399-.321616.34489104-.520507.82836603-.59668 1.45043945h3.44043v-.08886719c-.033854-.59668267-.19466-1.05899901-.482422-1.38696289s-.677081-.49194336-1.167968-.49194336zm3.89746 2.5390625c0-1.0537162.249672-1.90111984.749024-2.54223633.499351-.64111648 1.153153-.96166992 1.961426-.96166992.80404 0 1.440915.27506236 1.910644.82519531v-3.58007812h1.174317v9.75h-1.079102l-.057129-.7363281c-.469729.5755237-1.123531.8632812-1.961426.8632812-.795577 0-1.444089-.3258431-1.945556-.977539-.501468-.651696-.752198-1.50227344-.752198-2.55175785zm1.174317.13330078c0 .77864973.160806 1.38801866.482422 1.82812496.321616.4401064.765947.6601563 1.333008.6601563.744795 0 1.288572-.3343066 1.631347-1.0029297v-3.15478515c-.351239-.64746417-.890784-.97119141-1.618652-.97119141-.575524 0-1.024087.22216575-1.345703.66650391s-.482422 1.10237194-.482422 1.97412109zm9.292969 3.48486326c-.930995 0-1.688474-.3057424-2.272461-.9172363-.583988-.6114939-.875977-1.42927548-.875977-2.45336914v-.21582032c0-.68131851.130126-1.28962948.390381-1.82495117s.624184-.95426281 1.091797-1.25683594c.467613-.30257312.974362-.45385742 1.520264-.45385742.892908 0 1.586911.29410513 2.082031.88232422.495119.58821909.742676 1.43033306.742676 2.52636719v.48876953h-4.652832c.016927.67708672.21476 1.22403765.593505 1.64086915.378746.4168315.860105.6252441 1.444092.6252441.414716 0 .765949-.0846345 1.053711-.2539062s.53955-.3935533.755371-.6728516l.717285.5585938c-.575523.8844445-1.438796 1.3266601-2.589843 1.3266601zm-.145996-6.15722654c-.473961 0-.871744.17244294-1.19336.51733399-.321616.34489104-.520507.82836603-.59668 1.45043945h3.44043v-.08886719c-.033854-.59668267-.19466-1.05899901-.482422-1.38696289s-.677081-.49194336-1.167968-.49194336zm4.233886 5.41455074c0-.203126.060302-.3723951.180908-.5078125.120607-.1354173.301513-.203125.542725-.203125s.424234.0677077.549072.203125c.124838.1354174.187256.3046865.187256.5078125 0 .1946625-.062418.357584-.187256.4887696-.124838.1311855-.30786.1967773-.549072.1967773s-.422118-.0655918-.542725-.1967773c-.120606-.1311856-.180908-.2941071-.180908-.4887696zm2.773926 0c0-.203126.060302-.3723951.180908-.5078125.120606-.1354173.301513-.203125.542725-.203125s.424234.0677077.549072.203125c.124838.1354174.187256.3046865.187256.5078125 0 .1946625-.062418.357584-.187256.4887696-.124838.1311855-.30786.1967773-.549072.1967773s-.422119-.0655918-.542725-.1967773c-.120606-.1311856-.180908-.2941071-.180908-.4887696zm2.634277 0c0-.203126.060303-.3723951.180909-.5078125.120606-.1354173.301512-.203125.542724-.203125s.424235.0677077.549072.203125c.124838.1354174.187256.3046865.187256.5078125 0 .1946625-.062418.357584-.187256.4887696-.124837.1311855-.30786.1967773-.549072.1967773s-.422118-.0655918-.542724-.1967773c-.120606-.1311856-.180909-.2941071-.180909-.4887696z"/><path id="d" d="m1.66 2.718h1.69l2.925 7.8 2.938-7.8h1.69v9.282h-1.17v-7.722h-.026l-2.899 7.722h-1.053l-2.899-7.722h-.026v7.722h-1.17zm15.782 5.278c-.0173334-.2600013-.0758328-.50699883-.1755-.741s-.2339992-.43549915-.403-.6045-.3683322-.30333284-.598-.403c-.2296678-.09966717-.4831653-.1495-.7605-.1495-.2860014 0-.5438322.04983283-.7735.1495-.2296678.09966716-.4268325.2361658-.5915.4095s-.2946662.37483218-.39.6045c-.0953338.22966781-.1516666.4744987-.169.7345zm1.066 1.872c-.1473341.7540038-.4723308 1.3216648-.975 1.703s-1.1353295.572-1.898.572c-.537336 0-1.0031647-.0866658-1.3975-.26s-.725832-.4159984-.9945-.728-.470166-.6846645-.6045-1.118-.2101666-.90566411-.2275-1.417c0-.51133589.0779992-.97933121.234-1.404s.3748319-.79299844.6565-1.105.6153314-.5546658 1.001-.728.8081644-.26 1.2675-.26c.598003 0 1.0941647.12349876 1.4885.3705.3943353.24700123.7106655.56116476.949.9425s.4029995.79733108.494 1.248.1278334.87966463.1105 1.287h-5.031c-.0086667.29466814.0259996.57416535.104.8385.0780004.2643347.2036658.4983323.377.702s.394332.3661661.663.4875.5849982.182.949.182c.4680023 0 .8514985-.1083322 1.1505-.325s.4961662-.5459978.5915-.988zm1.924.013c.0086667.2426679.0649995.4484992.169.6175s.2404992.3033328.4095.403.3596656.1711664.572.2145c.2123344.0433335.4311655.065.6565.065.1733342 0 .3553324-.0129999.546-.039s.3661659-.0736663.5265-.143.2924995-.171166.3965-.3055.156-.305499.156-.5135c0-.28600143-.1083322-.50266593-.325-.65-.2166677-.14733407-.4874984-.26649955-.8125-.3575-.3250016-.09100046-.6781648-.17333297-1.0595-.247-.3813352-.07366704-.7344984-.177666-1.0595-.312-.3250016-.13433401-.5958322-.32283212-.8125-.5655-.2166677-.24266788-.325-.5806645-.325-1.014 0-.33800169.0758326-.62833212.2275-.871s.3466655-.43983258.585-.5915c.2383345-.15166743.5069985-.26433297.806-.338.2990015-.07366704.5958319-.1105.8905-.1105.3813352 0 .7323317.03249967 1.053.0975.3206683.06500032.6044988.17766586.8515.338.2470012.16033413.4441659.37699863.5915.65.1473341.27300136.2339999.61316463.26 1.0205h-1.105c-.0173334-.21666775-.0736662-.39649929-.169-.5395-.0953338-.14300072-.2166659-.2578329-.364-.3445s-.3098324-.14949981-.4875-.1885c-.1776676-.0390002-.3574991-.0585-.5395-.0585-.1646675 0-.3314992.01299987-.5005.039s-.3228326.07149967-.4615.1365c-.1386674.06500032-.2513329.15166612-.338.26-.0866671.10833387-.13.2491658-.13.4225 0 .19066762.067166.3488327.2015.4745.134334.12566729.305499.22966625.5135.312.208001.08233374.4419987.15166638.702.208.2600013.05633361.5199987.11483303.78.1755.2773347.06066697.5481653.1343329.8125.221s.4983323.20149928.702.3445c.2036677.14300071.3683327.32283225.494.5395s.1885.48533173.1885.806c0 .4073354-.0844992.745332-.2535 1.014s-.3899986.4853325-.663.65-.580665.2794997-.923.3445-.6824983.0975-1.0205.0975c-.3726685 0-.7279983-.0389996-1.066-.117s-.6369987-.2058324-.897-.3835-.4679992-.4116652-.624-.702-.2426666-.6434979-.26-1.0595zm9.438-4.602h1.04v.988h.026c.5026692-.76267048 1.2263286-1.144 2.171-1.144.4160021 0 .7929983.0866658 1.131.26s.5763326.46799792.715.884c.2253345-.36400182.5221648-.64566567.8905-.845s.7734978-.299 1.2155-.299c.3380017 0 .6434986.03683296.9165.1105.2730014.07366703.506999.18849922.702.3445s.3466661.35749876.455.6045c.1083339.24700123.1625.5438316.1625.8905v4.927h-1.105v-4.407c0-.20800104-.0173332-.40299909-.052-.585s-.0996662-.340166-.195-.4745c-.0953338-.13433401-.2274992-.24049961-.3965-.3185s-.387832-.117-.6565-.117c-.5460027 0-.9749984.15599844-1.287.468s-.468.7279974-.468 1.248v4.186h-1.105v-4.407c0-.21666775-.0194998-.41599909-.0585-.598s-.1061662-.340166-.2015-.4745c-.0953338-.13433401-.2231659-.23833297-.3835-.312-.1603341-.07366704-.3661654-.1105-.6175-.1105-.3206683 0-.5958322.06499935-.8255.195s-.4159993.28599909-.559.468-.2469997.37049902-.312.5655c-.0650003.19500097-.0975.35749935-.0975.4875v4.186h-1.105zm17.043 6.695c-.1906676.1126672-.4549983.169-.793.169-.2860014 0-.5134992-.0801659-.6825-.2405s-.2535-.4224982-.2535-.7865c-.3033348.3640018-.656498.6261659-1.0595.7865s-.8384977.2405-1.3065.2405c-.3033348 0-.5914986-.0346663-.8645-.104s-.5091657-.1776659-.7085-.325-.3574994-.3401655-.4745-.5785-.1755-.5264983-.1755-.8645c0-.38133524.0649994-.69333212.195-.936.1300007-.24266788.3011656-.43983257.5135-.5915s.4549986-.26649961.728-.3445.5524986-.14299974.8385-.195c.3033349-.06066697.5914986-.10616652.8645-.1365.2730014-.03033349.513499-.07366639.7215-.13.208001-.05633362.3726661-.13866613.494-.247.1213339-.10833388.182-.26649896.182-.4745 0-.24266788-.0454995-.43766593-.1365-.585s-.2079993-.25999961-.351-.338-.3033324-.12999987-.481-.156-.3531658-.039-.5265-.039c-.4680023 0-.8579984.08883244-1.17.2665-.3120016.17766755-.4809999.51349753-.507 1.0075h-1.105c.0173334-.41600208.1039992-.76699857.26-1.053s.3639987-.51783245.624-.6955c.2600013-.17766756.5568317-.30549961.8905-.3835s.6911648-.117 1.0725-.117c.3033349 0 .6044985.02166645.9035.065s.5698321.13216599.8125.2665c.2426679.134334.4376659.32283212.585.5655s.221.55899805.221.949v3.458c0 .2600013.0151665.4506661.0455.572s.1321658.182.3055.182c.0953338 0 .2079994-.0216665.338-.065zm-1.794-3.445c-.1386674.10400052-.3206655.17983309-.546.2275-.2253345.0476669-.4614988.08666652-.7085.117s-.4961654.0649998-.7475.104c-.2513346.03900019-.4766657.1018329-.676.1885s-.3618327.21016587-.4875.3705-.1885.37916528-.1885.6565c0 .1820009.036833.3358327.1105.4615s.1689994.2274996.286.3055.2534992.1343332.4095.169.3206658.052.494.052c.3640018 0 .6759987-.0498328.936-.1495s.4723325-.2253326.637-.377.2859996-.3163324.364-.494c.0780004-.17766756.117-.34449922.117-.5005zm3.991-4.459h-1.105v-1.352h1.105zm-1.105 1.209h1.105v6.721h-1.105zm2.886-2.561h1.105v9.282h-1.105zm3.497 7.163c.0086667.2426679.0649995.4484992.169.6175s.2404992.3033328.4095.403.3596656.1711664.572.2145c.2123344.0433335.4311655.065.6565.065.1733342 0 .3553324-.0129999.546-.039s.3661659-.0736663.5265-.143.2924995-.171166.3965-.3055.156-.305499.156-.5135c0-.28600143-.1083322-.50266593-.325-.65-.2166677-.14733407-.4874984-.26649955-.8125-.3575-.3250016-.09100046-.6781648-.17333297-1.0595-.247-.3813352-.07366704-.7344984-.177666-1.0595-.312-.3250016-.13433401-.5958322-.32283212-.8125-.5655-.2166677-.24266788-.325-.5806645-.325-1.014 0-.33800169.0758326-.62833212.2275-.871s.3466655-.43983258.585-.5915c.2383345-.15166743.5069985-.26433297.806-.338.2990015-.07366704.5958319-.1105.8905-.1105.3813352 0 .7323317.03249967 1.053.0975.3206683.06500032.6044988.17766586.8515.338.2470012.16033413.4441659.37699863.5915.65.1473341.27300136.2339999.61316463.26 1.0205h-1.105c-.0173334-.21666775-.0736662-.39649929-.169-.5395-.0953338-.14300072-.2166659-.2578329-.364-.3445s-.3098324-.14949981-.4875-.1885c-.1776676-.0390002-.3574991-.0585-.5395-.0585-.1646675 0-.3314992.01299987-.5005.039s-.3228326.07149967-.4615.1365c-.1386674.06500032-.2513329.15166612-.338.26-.0866671.10833387-.13.2491658-.13.4225 0 .19066762.067166.3488327.2015.4745.134334.12566729.305499.22966625.5135.312.208001.08233374.4419987.15166638.702.208.2600013.05633361.5199987.11483303.78.1755.2773347.06066697.5481653.1343329.8125.221s.4983323.20149928.702.3445c.2036677.14300071.3683327.32283225.494.5395s.1885.48533173.1885.806c0 .4073354-.0844992.745332-.2535 1.014s-.3899986.4853325-.663.65-.580665.2794997-.923.3445-.6824983.0975-1.0205.0975c-.3726685 0-.7279983-.0389996-1.066-.117s-.6369987-.2058324-.897-.3835-.4679992-.4116652-.624-.702-.2426666-.6434979-.26-1.0595z"/><path id="e" d="m1.12 2.86h1.42v2.69h.03c.1800009-.3000015.4099986-.51833265.69-.655s.553332-.205.82-.205c.3800019 0 .69166545.05166615.935.155s.4349993.24666575.575.43.23833305.40666535.295.67.085.5549984.085.875v3.18h-1.42v-2.92c0-.4266688-.066666-.74499895-.2-.955s-.3699983-.315-.71-.315c-.3866686 0-.6666658.11499885-.84.345s-.26.6083307-.26 1.135v2.71h-1.42zm7.73 1.97h1.04v.95h-1.04v2.56c0 .2400012.0399996.3999996.12.48s.2399988.12.48.12c.0800004 0 .1566663-.0033333.23-.01s.143333-.0166666.21-.03v1.1c-.1200006.0200001-.2533326.0333333-.4.04s-.2899993.01-.43.01c-.2200011 0-.42833235-.0149998-.625-.045-.19666765-.03000015-.36999925-.0883329-.52-.175s-.2683329-.2099992-.355-.37-.13-.3699987-.13-.63v-3.05h-.86v-.95h.86v-1.55h1.42zm3.52 0h1.04v.95h-1.04v2.56c0 .2400012.0399996.3999996.12.48s.2399988.12.48.12c.0800004 0 .1566663-.0033333.23-.01s.143333-.0166666.21-.03v1.1c-.1200006.0200001-.2533326.0333333-.4.04s-.2899993.01-.43.01c-.2200011 0-.4283324-.0149998-.625-.045-.1966677-.03000015-.3699993-.0883329-.52-.175-.1500008-.0866671-.2683329-.2099992-.355-.37s-.13-.3699987-.13-.63v-3.05h-.86v-.95h.86v-1.55h1.42zm4.33 4.24c.2333345 0 .4283325-.0466662.585-.14.1566674-.0933338.2833328-.21499925.38-.365.0966671-.15000075.1649998-.324999.205-.525s.06-.4033323.06-.61-.0216665-.409999-.065-.61c-.0433336-.200001-.1149995-.37833255-.215-.535s-.2283326-.28333285-.385-.38c-.1566675-.09666715-.3483322-.145-.575-.145-.2333345 0-.4283326.04833285-.585.145-.1566675.09666715-.2833329.2216659-.38.375-.0966672.1533341-.1649998.329999-.205.53s-.06.4066656-.06.62c0 .2066677.0216664.409999.065.61.0433335.200001.1133328.37499925.21.525.0966671.15000075.225.2716662.385.365.1600008.0933338.3533322.14.58.14zm-2.61-4.24h1.35v.66h.02c.1733342-.2800014.393332-.4833327.66-.61s.5599984-.19.88-.19c.4066687 0 .7566652.0766659 1.05.23s.5366657.3566654.73.61.3366662.54833165.43.885.14.6883315.14 1.055c0 .3466684-.0466662.6799984-.14 1s-.2349991.6033321-.425.85c-.190001.2466679-.4266653.4433326-.71.59-.2833348.1466674-.6149981.22-.995.22-.3200016 0-.6149987-.0649994-.885-.195-.2700014-.13000065-.4916658-.3216654-.665-.575h-.02v2.45h-1.42zm7.21 3.49c0 .1533341.0316663.28499945.095.395.0633336.11000055.1449995.19999965.245.27s.2149993.1216665.345.155c.1300006.0333335.2649993.05.405.05.1000005 0 .2049994-.01166655.315-.035.1100005-.02333345.2099995-.05999975.3-.11.0900004-.05000025.1649997-.11666625.225-.2s.09-.1883327.09-.315c0-.2133344-.1416653-.3733328-.425-.48-.2833348-.1066672-.6783308-.2133328-1.185-.32-.2066677-.0466669-.4083324-.10166635-.605-.165-.1966677-.06333365-.3716659-.14666615-.525-.25s-.2766662-.23333255-.37-.39-.14-.3483322-.14-.575c0-.333335.0649993-.6066656.195-.82.1300006-.2133344.3016656-.38166605.515-.505s.453332-.20999975.72-.26.5399986-.075.82-.075.5516653.0266664.815.08c.2633346.0533336.4983323.1433327.705.27s.3783326.29499895.515.505c.1366673.21000105.2183332.4749984.245.795h-1.35c-.0200001-.2733347-.1233324-.45833285-.31-.555s-.4066654-.145-.66-.145c-.0800004 0-.1666662.00499995-.26.015s-.178333.0316665-.255.065c-.0766671.0333335-.1416664.08166635-.195.145s-.08.1483328-.08.255c0 .1266673.0466662.2299996.14.31s.2149992.14499975.365.195c.1500007.05000025.3216657.0949998.515.135s.389999.0833331.59.13c.2066677.0466669.4083323.103333.605.17.1966676.066667.3716659.15499945.525.265s.2766662.24666585.37.41.14.3649988.14.605c0 .3400017-.0683327.62499885-.205.855-.1366674.23000115-.3149989.4149993-.535.555s-.4716653.23833305-.755.295c-.2833348.056667-.5716652.085-.865.085-.3000015 0-.5933319-.0299997-.88-.09s-.5416656-.1599993-.765-.3c-.2233345-.1400007-.406666-.32499885-.55-.555-.1433341-.23000115-.2216666-.5183316-.235-.865zm5.91-1.86h-1.57v-1.54h1.57zm-1.57 2h1.57v1.54h-1.57zm4.85-5.77h1.14l-2.79 7.47h-1.13zm3.71 0h1.14l-2.79 7.47h-1.13zm1.61 2.14h1.34v.7h.02c.1866676-.266668.4116653-.4733326.675-.62.2633346-.1466674.5649983-.22.905-.22.3266683 0 .6249986.0633327.895.19.2700013.1266673.4749993.3499984.615.67.1533341-.2266678.3616653-.4266658.625-.6.2633346-.1733342.5749982-.26.935-.26.2733347 0 .5266655.033333.76.1s.4333325.1733326.6.32.2966662.33833215.39.575.14.521665.14.855v3.46h-1.42v-2.93c0-.1733342-.0066666-.3366659-.02-.49s-.0499997-.2866661-.11-.4-.1483328-.203333-.265-.27c-.1166673-.066667-.274999-.1-.475-.1s-.3616661.03833295-.485.115c-.123334.07666705-.2199997.17666605-.29.3-.0700004.12333395-.1166666.26333255-.14.42-.0233335.15666745-.035.3149992-.035.475v2.88h-1.42v-2.9c0-.1533341-.0033333-.30499925-.01-.455s-.0349998-.2883327-.085-.415c-.0500003-.1266673-.1333328-.22833295-.25-.305-.1166673-.07666705-.2883322-.115-.515-.115-.066667 0-.1549995.01499985-.265.045-.1100006.03000015-.2166662.08666625-.32.17-.1033339.08333375-.1916663.20333255-.265.36s-.11.3616654-.11.615v3h-1.42zm12.5 2.03c-.066667-.3600018-.1849992-.6333324-.355-.82-.1700009-.1866676-.4283316-.28-.775-.28-.2266678 0-.4149993.03833295-.565.115-.1500008.07666705-.2699996.1716661-.36.285-.0900005.1133339-.1533332.2333327-.19.36-.0366669.1266673-.0583333.24-.065.34zm-2.31.9c.0200001.4600023.1366656.7933323.35 1s.519998.31.92.31c.2866681 0 .5333323-.07166595.74-.215s.3333331-.2949992.38-.455h1.25c-.200001.6200031-.5066646 1.063332-.92 1.33s-.9133304.4-1.5.4c-.4066687 0-.7733317-.0649993-1.1-.195-.3266683-.13000065-.6033322-.3149988-.83-.555s-.4016661-.526665-.525-.86c-.123334-.333335-.185-.699998-.185-1.1 0-.3866686.0633327-.746665.19-1.08s.3066655-.62166545.54-.865.511665-.4349993.835-.575c.3233349-.1400007.6816647-.21 1.075-.21.4400022 0 .8233317.08499915 1.15.255s.5949989.3983319.805.685c.210001.2866681.3616662.6133315.455.98s.1266668.749998.1 1.15zm5.67.56c0 .1533341.0316663.28499945.095.395.0633336.11000055.1449995.19999965.245.27s.2149993.1216665.345.155c.1300006.0333335.2649993.05.405.05.1000005 0 .2049994-.01166655.315-.035.1100005-.02333345.2099995-.05999975.3-.11.0900004-.05000025.1649997-.11666625.225-.2s.09-.1883327.09-.315c0-.2133344-.1416653-.3733328-.425-.48-.2833348-.1066672-.6783308-.2133328-1.185-.32-.2066677-.0466669-.4083324-.10166635-.605-.165-.1966677-.06333365-.3716659-.14666615-.525-.25s-.2766662-.23333255-.37-.39-.14-.3483322-.14-.575c0-.333335.0649993-.6066656.195-.82.1300006-.2133344.3016656-.38166605.515-.505s.453332-.20999975.72-.26.5399986-.075.82-.075.5516653.0266664.815.08c.2633346.0533336.4983323.1433327.705.27s.3783326.29499895.515.505c.1366673.21000105.2183332.4749984.245.795h-1.35c-.0200001-.2733347-.1233324-.45833285-.31-.555s-.4066654-.145-.66-.145c-.0800004 0-.1666662.00499995-.26.015s-.178333.0316665-.255.065c-.0766671.0333335-.1416664.08166635-.195.145s-.08.1483328-.08.255c0 .1266673.0466662.2299996.14.31s.2149992.14499975.365.195c.1500007.05000025.3216657.0949998.515.135s.389999.0833331.59.13c.2066677.0466669.4083323.103333.605.17.1966676.066667.3716659.15499945.525.265s.2766662.24666585.37.41.14.3649988.14.605c0 .3400017-.0683327.62499885-.205.855-.1366674.23000115-.3149989.4149993-.535.555s-.4716653.23833305-.755.295c-.2833348.056667-.5716652.085-.865.085-.3000015 0-.5933319-.0299997-.88-.09s-.5416656-.1599993-.765-.3c-.2233345-.1400007-.406666-.32499885-.55-.555-.1433341-.23000115-.2216666-.5183316-.235-.865zm3.73 2.42h5v.5h-5zm5.58-5.91h1.34v.7h.02c.1866676-.266668.4116653-.4733326.675-.62.2633346-.1466674.5649983-.22.905-.22.3266683 0 .6249986.0633327.895.19.2700013.1266673.4749993.3499984.615.67.1533341-.2266678.3616653-.4266658.625-.6.2633346-.1733342.5749982-.26.935-.26.2733347 0 .5266655.033333.76.1s.4333325.1733326.6.32.2966662.33833215.39.575.14.521665.14.855v3.46h-1.42v-2.93c0-.1733342-.0066666-.3366659-.02-.49s-.0499997-.2866661-.11-.4-.1483328-.203333-.265-.27c-.1166673-.066667-.274999-.1-.475-.1s-.3616661.03833295-.485.115c-.123334.07666705-.2199997.17666605-.29.3-.0700004.12333395-.1166666.26333255-.14.42-.0233335.15666745-.035.3149992-.035.475v2.88h-1.42v-2.9c0-.1533341-.0033333-.30499925-.01-.455s-.0349998-.2883327-.085-.415c-.0500003-.1266673-.1333328-.22833295-.25-.305-.1166673-.07666705-.2883322-.115-.515-.115-.066667 0-.1549995.01499985-.265.045-.1100006.03000015-.2166662.08666625-.32.17-.1033339.08333375-.1916663.20333255-.265.36s-.11.3616654-.11.615v3h-1.42zm8.96 1.59c.0200001-.333335.1033326-.6099989.25-.83s.3333322-.396666.56-.53.4816652-.22833305.765-.285c.2833347-.05666695.5683319-.085.855-.085.2600013 0 .523332.01833315.79.055s.5099989.1083328.73.215.3999993.25499905.54.445.21.4416651.21.755v2.69c0 .2333345.0133332.4566656.04.67s.073333.3733328.14.48h-1.44c-.0266668-.0800004-.0483333-.16166625-.065-.245-.0166668-.08333375-.0283333-.1683329-.035-.255-.2266678.2333345-.4933318.3966662-.8.49s-.6199984.14-.94.14c-.2466679 0-.4766656-.0299997-.69-.09s-.3999992-.1533327-.56-.28-.2849996-.2866657-.375-.48c-.0900005-.1933343-.135-.423332-.135-.69 0-.2933348.0516661-.53499905.155-.725.1033338-.19000095.2366658-.3416661.4-.455.1633341-.1133339.3499989-.19833305.56-.255.210001-.05666695.4216656-.1016665.635-.135s.4233323-.0599999.63-.08.3899992-.0499998.55-.09.2866662-.09833295.38-.175.1366667-.1883326.13-.335c0-.1533341-.0249998-.27499955-.075-.365-.0500003-.09000045-.1166663-.15999975-.2-.21-.0833338-.05000025-.1799995-.08333325-.29-.1-.1100006-.01666675-.2283327-.025-.355-.025-.2800014 0-.4999992.0599994-.66.18s-.2533332.3199986-.28.6zm3.28 1.05c-.0600003.0533336-.1349996.09499985-.225.125-.0900005.03000015-.1866662.0549999-.29.075-.1033339.0200001-.2116661.0366666-.325.05s-.2266661.0299999-.34.05c-.1066672.0200001-.2116662.0466665-.315.08-.1033339.0333335-.193333.07833305-.27.135-.0766671.05666695-.1383331.1283329-.185.215s-.07.196666-.07.33c0 .1266673.0233331.2333329.07.32s.1099996.15499975.19.205.1733328.0849999.28.105.2166661.03.33.03c.2800014 0 .4966659-.0466662.65-.14s.2666663-.20499935.34-.335.1183332-.261666.135-.395c.0166667-.133334.025-.2399996.025-.32zm3.98-3.44h-1.42v-1.17h1.42zm-1.42.8h1.42v5.17h-1.42zm2.58-1.97h1.42v7.14h-1.42zm3.64 5.46c0 .1533341.0316663.28499945.095.395.0633336.11000055.1449995.19999965.245.27s.2149993.1216665.345.155c.1300006.0333335.2649993.05.405.05.1000005 0 .2049994-.01166655.315-.035.1100005-.02333345.2099995-.05999975.3-.11.0900004-.05000025.1649997-.11666625.225-.2s.09-.1883327.09-.315c0-.2133344-.1416653-.3733328-.425-.48-.2833348-.1066672-.6783308-.2133328-1.185-.32-.2066677-.0466669-.4083324-.10166635-.605-.165-.1966677-.06333365-.3716659-.14666615-.525-.25s-.2766662-.23333255-.37-.39-.14-.3483322-.14-.575c0-.333335.0649993-.6066656.195-.82.1300006-.2133344.3016656-.38166605.515-.505s.453332-.20999975.72-.26.5399986-.075.82-.075.5516653.0266664.815.08c.2633346.0533336.4983323.1433327.705.27s.3783326.29499895.515.505c.1366673.21000105.2183332.4749984.245.795h-1.35c-.0200001-.2733347-.1233324-.45833285-.31-.555s-.4066654-.145-.66-.145c-.0800004 0-.1666662.00499995-.26.015s-.178333.0316665-.255.065c-.0766671.0333335-.1416664.08166635-.195.145s-.08.1483328-.08.255c0 .1266673.0466662.2299996.14.31s.2149992.14499975.365.195c.1500007.05000025.3216657.0949998.515.135s.389999.0833331.59.13c.2066677.0466669.4083323.103333.605.17.1966676.066667.3716659.15499945.525.265s.2766662.24666585.37.41.14.3649988.14.605c0 .3400017-.0683327.62499885-.205.855-.1366674.23000115-.3149989.4149993-.535.555s-.4716653.23833305-.755.295c-.2833348.056667-.5716652.085-.865.085-.3000015 0-.5933319-.0299997-.88-.09s-.5416656-.1599993-.765-.3c-.2233345-.1400007-.406666-.32499885-.55-.555-.1433341-.23000115-.2216666-.5183316-.235-.865zm4.33.14h1.57v1.54h-1.57zm6.24-1.81c-.0933338-.5933363-.4433303-.89-1.05-.89-.2266678 0-.4166659.05166615-.57.155s-.2783329.23666585-.375.4c-.0966672.16333415-.1649998.34333235-.205.54s-.06.3916657-.06.585c0 .1866676.0199998.3766657.06.57s.1049995.36833255.195.525c.0900004.15666745.2116659.2849995.365.385s.3399989.15.56.15c.3400017 0 .6016657-.09499905.785-.285.1833342-.19000095.2983331-.4449984.345-.765h1.37c-.0933338.6866701-.3599978 1.2099982-.8 1.57s-1.0033299.54-1.69.54c-.3866686 0-.7416651-.0649993-1.065-.195-.323335-.13000065-.5983322-.3116655-.825-.545s-.4033327-.51166505-.53-.835-.19-.6783314-.19-1.065c0-.400002.0583327-.77166495.175-1.115.1166672-.34333505.2883322-.63999875.515-.89s.5033317-.4449993.83-.585.6999979-.21 1.12-.21c.3066682 0 .6016652.0399996.885.12.2833347.0800004.5366655.20166585.76.365.2233344.16333415.4049993.36666545.545.61s.2199999.531665.24.865zm3.48.77c0 .2066677.0199998.40833235.06.605s.1083328.37333255.205.53c.0966671.15666745.2249992.2816662.385.375s.3599988.14.6.14.4416658-.0466662.605-.14c.1633341-.0933338.2933328-.21833255.39-.375.0966671-.15666745.1649998-.33333235.205-.53s.06-.3983323.06-.605-.0199998-.409999-.06-.61-.1083329-.3766659-.205-.53c-.0966672-.1533341-.2266659-.27833285-.39-.375-.1633342-.09666715-.3649988-.145-.605-.145s-.4399992.04833285-.6.145-.2883329.2216659-.385.375c-.0966672.1533341-.1649998.329999-.205.53s-.06.4033323-.06.61zm-1.42 0c0-.4133354.0633327-.78833165.19-1.125s.3066655-.62333215.54-.86.5133317-.41999935.84-.55.6933313-.195 1.1-.195.7749983.06499935 1.105.195c.3300016.13000065.6116655.31333215.845.55s.4133327.52333165.54.86.19.7116646.19 1.125-.0633327.786665-.19 1.12-.3066655.61833215-.54.855-.5149984.4183327-.845.545c-.3300017.1266673-.6983313.19-1.105.19s-.7733317-.0633327-1.1-.19-.6066655-.30833215-.84-.545-.4133327-.521665-.54-.855-.19-.7066646-.19-1.12zm6.31-2.59h1.34v.7h.02c.186668-.266668.411665-.4733326.675-.62s.564998-.22.905-.22c.326668 0 .624999.0633327.895.19s.474999.3499984.615.67c.153334-.2266678.361665-.4266658.625-.6s.574998-.26.935-.26c.273335 0 .526665.033333.76.1.233334.066667.433332.1733326.6.32.166667.1466674.296666.33833215.39.575s.14.521665.14.855v3.46h-1.42v-2.93c0-.1733342-.006667-.3366659-.02-.49s-.05-.2866661-.11-.4-.148333-.203333-.265-.27-.274999-.1-.475-.1-.361666.03833295-.485.115-.22.17666605-.29.3-.116667.26333255-.14.42-.035.3149992-.035.475v2.88h-1.42v-2.9c0-.1533341-.003333-.30499925-.01-.455s-.035-.2883327-.085-.415-.133333-.22833295-.25-.305-.288332-.115-.515-.115c-.066667 0-.154999.01499985-.265.045s-.216666.08666625-.32.17-.191666.20333255-.265.36-.11.3616654-.11.615v3h-1.42z"/><linearGradient id="f" x1="50%" x2="50%" y1="-7%" y2="72.9%"><stop offset="0" stop-color="#fff" stop-opacity="0"/><stop offset="1" stop-color="#fafafa"/></linearGradient><mask id="g" fill="#fff"><path d="m.976.426h732v40h-732z" fill="#fff" fill-rule="evenodd"/></mask><mask id="h" fill="#fff"><ellipse cx="17.31" cy="17.722" fill="#fff" fill-rule="evenodd" rx="17" ry="17.5"/></mask><mask id="i" fill="#fff"><ellipse cx="17.31" cy="17.722" fill="#fff" fill-rule="evenodd" rx="17" ry="17.5"/></mask><mask id="j" fill="#fff"><ellipse cx="17.31" cy="17.722" fill="#fff" fill-rule="evenodd" rx="17" ry="17.5"/></mask><mask id="k" fill="#fff"><ellipse cx="17.31" cy="17.722" fill="#fff" fill-rule="evenodd" rx="17" ry="17.5"/></mask><mask id="l" fill="#fff"><ellipse cx="17.31" cy="17.722" fill="#fff" fill-rule="evenodd" rx="17" ry="17.5"/></mask></defs><g fill="none" fill-rule="evenodd"><path d="m21 .5h719c11.59798 0 21 9.40202025 21 21v360h-761v-360c0-11.59797975 9.40202025-21 21-21z" fill="#f7f7f7" transform="translate(33)"/><rect fill="url(#a)" height="361" rx="10" width="734" x="46" y="12.5"/><ellipse cx="310.5" cy="157.5" fill="#f4f4f4" rx="28.5" ry="29"/><g transform="translate(292.455 146.233)"><path d="m3.392 7.96h18.591v6.933h-18.591z" fill="#cf004c" transform="matrix(.99253764 -.12193864 .12193864 .99253764 -1.298588 1.632422)"/><path d="m.296 4.14h12.477v5.614h-12.477z" fill="#0065a1" transform="matrix(.99253764 -.12193864 .12193864 .99253764 -.798349 .848588)"/><g fill="#fff" transform="translate(.718 4.393)"><path d="m1.008 2.925c-.01904828-.13381351-.00954118-.27014523.028-.4.03806131-.11363094.09974693-.21791712.181-.306.08800697-.08796575.19182341-.15853379.306-.208.12832442-.05312544.26264958-.09040068.4-.111.16676755-.02620754.33720122-.01666326.5.028.14114903.03506678.27051942.10682423.375.208.07282744-.12392225.1788054-.22505155.306-.292.14474881-.08379223.30562007-.13593906.472-.153.13865209-.01390811.27834791-.01390811.417 0 .12108706.0247234.23796299.06682567.347.125.09664383.06886537.18113463.15335617.25.25.0723785.11257619.11535708.24151195.125.375l.181 1.486-.736.083-.153-1.278c-.00266966-.12045542-.05259458-.23503132-.139-.319-.07944495-.05981155-.17980758-.0847217-.278-.069-.10979779.01049027-.21039111.06585277-.278.153-.07056637.11657731-.0951664.25526444-.069.389l.153 1.208-.736.081-.153-1.208c-.00779326-.1343884-.06185217-.26193917-.153-.361-.17491816-.13374021-.42351032-.1092742-.569.056-.05927823.10534758-.07912929.22835322-.056.347l.153 1.278-.736.083z"/><path d="m5.175 2.745c-.02872042-.1675276-.0142654-.33961121.042-.5.04585897-.1522459.1212989-.29395063.222-.417.21781888-.25721843.5259667-.42113446.861-.458.17145104-.02579472.34636551-.0162663.514.028.15985346.04054334.31053291.11113191.444.208.12703831.09476572.23523175.21245576.319.347.0877987.14293249.1402492.30474055.153.472.02872042.1675276.0142654.33961121-.042.5-.04585897.1522459-.1212989.29395063-.222.417-.21788401.25713763-.5259973.42103529-.861.458-.17145104.02579472-.34636551.0162663-.514-.028-.15981242-.04065809-.31047101-.11123689-.444-.208-.12703831-.09476572-.23523175-.21245576-.319-.347-.07364985-.14906885-.12519103-.30807171-.153-.472m1.361.4c.0729051-.01036195.1433567-.03373291.208-.069.05735194-.03882.10887117-.08562506.153-.139.04151207-.05782376.06984369-.12404465.083-.194.01887649-.07717629.0236197-.15713326.014-.236-.01460283-.07184223-.03776821-.1416741-.069-.208-.03038659-.06720745-.07842341-.12492076-.139-.167-.05190032-.04672487-.11381861-.08093387-.181-.1-.07241167-.01889622-.14778814-.0236497-.222-.014-.07386379.00598529-.14520398.02965102-.208.069-.05735194.03882-.10887117.08562506-.153.139-.04151207.05782376-.06984369.12404465-.083.194-.0119887.07806086-.01667563.15706922-.014.236.00830694.07779073.03174685.15320607.069.222.03038659.06720745.07842341.12492076.139.167.05190032.04672487.11381861.08093387.181.1.07383696.00694692.14816304.00694692.222 0" fill-rule="nonzero"/><path d="m8.05 2.134c-.01510337-.14502933-.00081891-.29161507.042-.431.04162458-.12724001.11292042-.24275298.208-.337.10182622-.0973068.21908327-.17705511.347-.236.14290263-.05801447.29181983-.09993935.444-.125.15259475-.01613496.30667564-.01142506.458.014.1374333.02074999.26953855.06795469.389.139.113558.07397569.2125386.16821058.292.278.0766075.1208071.1241848.25772008.139.4l.167 1.417-.736.083-.153-1.236c-.00120877-.13176428-.05653263-.25723735-.153-.347-.09482992-.07235165-.21530598-.10238022-.333-.083-.278.042-.4.208-.375.528l.153 1.236-.736.083zm-3.333 6.485c.028.014.083.042.153.069.08532653.02958077.17401238.04839293.264.056.11017676.01737444.22146891.02673234.333.028.12982129.00204029.25966125-.00263261.389-.014.11978401-.00611039.23741579-.0342471.347-.083.06725519-.02665697.10825531-.09512716.1-.167-.014-.069-.042-.125-.111-.139-.10520496-.01942715-.21201938-.02880271-.319-.028h-.292c-.14405118-.00195111-.2879072-.01129675-.431-.028-.13073987-.01373782-.25784674-.05136146-.375-.111-.11033561-.05510723-.20571187-.13607412-.278-.236-.08081095-.11873544-.12876708-.2567387-.139-.4-.01892095-.13016529-.00936777-.26288634.028-.389.03700671-.12495996.10354739-.2391767.194-.333.1108896-.11291007.24311896-.20264928.389-.264.19178688-.07903118.39378715-.13054125.6-.153.20231911-.02867521.40690621-.03805073.611-.028.15529223.01043557.30892149.03827668.458.083.06909308.02866224.13427831.06595894.194.111.0547121.04941266.08504262.12030568.083.194.00925542.05596627.00444432.11335586-.014.167-.01132032.04712137-.03516013.09030943-.069.125-.02023504.03421525-.04878475.06276496-.083.083-.028.028-.042.042-.056.042-.03079222-.02288043-.06440175-.04170177-.1-.056-.06628675-.02855149-.13633858-.0474116-.208-.056-.083-.014-.194-.028-.306-.042-.13346792-.00859342-.26745948-.00390371-.4.014-.12177657.00645034-.24046684.04065503-.347.1-.0535148.03857202-.08456758.10105171-.083.167.00328807.06246774.04935912.11434956.111.125.09141397.01914958.18460335.02853556.278.028l.514.014c.12616022.00023678.25191329.01432113.375.042.11592793.02013271.22817802.05754941.333.111.09931721.0597967.18458522.1402897.25.236.07440584.11159502.11756766.24108047.125.375.04660662.28707862-.05230595.57857097-.264.778-.270781.22668423-.60583773.36273545-.958.389-.19855968.02938201-.39956691.03876235-.6.028-.15366731-.00929296-.30662067-.02799468-.458-.056-.125-.028-.236-.056-.319-.083-.06083095-.01575741-.11770801-.04402564-.167-.083zm2.597-2.79c-.02346154-.1164402.0142658-.23679044.1-.319.0977041-.07332125.21216281-.12109831.333-.139.09214328-.01392841.18585672-.01392841.278 0 .083.014.139.028.167.028l.1.764.639-.083c.12757309-.02970126.26166994-.00967613.375.056.08891026.0706689.1402085.1784321.139.292.01656987.09252333.01178136.18760946-.014.278-.014.083-.042.153-.042.181l-1 .125.111.875c.00344732.07003994.02744568.13751358.069.194.02975033.04360151.06739849.08124967.111.111.04158554.02652449.08968451.04105799.139.042h.153c.09688492-.01081739.19104319-.03892939.278-.083.083-.042.139-.083.181-.1l.431.569c-.04377287.04442881-.09019082.08617157-.139.125-.06778326.05559185-.14238632.10230278-.222.139-.09510147.04669853-.19256633.0884215-.292.125-.11168869.04223798-.22828728.07012756-.347.083-.29963012.05485106-.60881763-.01014655-.861-.181-.22269888-.17144933-.36370599-.42808952-.389-.708z"/><path d="m12.855 8.48c-.048644.02148452-.1002046.0356384-.153.042-.083.014-.181.042-.292.069s-.25.056-.4.083-.306.056-.472.069c-.2387926.03879825-.4818829.04351191-.722.014-.1654399-.0213779-.3254798-.07325525-.472-.153-.1116263-.06559575-.2067289-.15590902-.278-.264-.057585-.10804246-.09518822-.22559493-.111-.347-.05868849-.28258928.03020588-.57563938.236-.778.3008837-.21303178.6575539-.33331238 1.026-.346.125-.014.222-.028.306-.028s.153-.014.194-.014c-.0143455-.12272163-.0864278-.23121662-.194-.292-.1721081-.06915028-.3612934-.08381039-.542-.042-.1034799.00940176-.2058972.0281448-.306.056-.072581.02733907-.1467094.05037897-.222.069l-.139.069c-.0251164.01589632-.0482756.03469216-.069.056-.014 0-.028-.014-.056-.042-.0342153-.02023504-.062765-.04878475-.083-.083-.0309472-.0344297-.0587264-.07158016-.083-.111-.0283226-.0407378-.04302468-.08939468-.042-.139-.042-.319.278-.528.944-.611.207357-.02533331.4167166-.03002297.625-.014.1828276.01478874.3615897.06184921.528.139.1493115.08016085.2777486.19421293.375.333.1077676.17212688.174172.36689022.194.569zm-1.038-1.055h-.153c-.069 0-.167.014-.292.028-.0945285.00779658-.1878253.02659018-.278.056-.0595644.01790699-.1126919.05263085-.153.1-.0359033.03311571-.0601119.07697185-.069.125-.0138667.04051295-.0138667.08448705 0 .125.0043444.03808257.0137612.07541331.028.111.0148218.04218417.0442679.07766139.083.1.0558168.03097034.1174459.0500379.181.056.1015144.01407567.2044856.01407567.306 0 .1-.014.181-.028.264-.042.0571963-.00700247.113296-.02111137.167-.042zm2.079 1.236c.014 0 .042.014.1.028s.111.028.194.042.167.014.278.028c.1111831.00225707.2223987-.00241866.333-.014.1141802-.01282923.2261557-.04073904.333-.083.0932788-.03910627.1781567-.0958047.25-.167.0673811-.06975684.1153062-.15595304.139-.25.033344-.11750211.0381438-.24126845.014-.361l-.014-.056c-.020235.03421525-.0487847.06276496-.083.083-.0481549.04503253-.0992691.08679247-.153.125-.0755102.04737118-.1543877.08914956-.236.125-.0968428.04402563-.200184.07205608-.306.083-.1897605.02606432-.3827153.01656919-.569-.028-.1723525-.03659753-.3338992-.11257924-.472-.222-.1400591-.11004523-.2578321-.24580661-.347-.4-.0930867-.1826106-.1543001-.37977876-.181-.583-.0291125-.20435442-.0148011-.41255126.042-.611.0510787-.18791319.1410161-.36301867.264-.514.1270074-.14973169.2827423-.2724834.458-.361.1966844-.09750857.4076717-.16299903.625-.194.2466056-.03090733.4969095-.01186247.736.056.2276197.06695427.4342228.19126042.6.361.1114424.10928473.1968834.24223086.25.389.075569.19208184.122406.39425562.139.6l.1.833c.0408015.25404219.0312879.51362601-.028.764-.0527092.20670821-.1473328.40038022-.278.569-.1306945.15757839-.2973859.2813965-.486.361-.2006693.09751832-.416998.15879451-.639.181-.167.014-.319.028-.458.028-.1254671-.00137576-.2507198-.01072796-.375-.028-.0943232-.00920907-.1874676-.02797197-.278-.056-.069-.014-.125-.042-.139-.042zm.222-1.792c.0141471.17811404.0991645.3431053.236.458.1418712.09754317.3171431.13360736.486.1.1703993-.01476383.3267727-.10038822.431-.236.1132187-.13465791.1591982-.31342623.125-.486-.0147985-.17399893-.100054-.33439481-.236-.444-.1355185-.11153623-.3134842-.1573093-.486-.125-.08804.01069343-.1730458.03891535-.25.083-.072835.04037057-.1349091.09764333-.181.167-.0505436.06641596-.0881934.14171552-.111.222-.0250717.08572438-.0298646.17610475-.014.264zm3.625-.041c.0175921.04443074.0407792.08643632.069.125.0428912.04434214.0951714.0785122.153.1.074641.03502391.1542477.05829875.236.069.1105636.01391909.2224364.01391909.333 0 .0941105-.01059983.1871253-.02933662.278-.056.083-.028.153-.056.222-.083.0495206-.02614878.1006192-.04919324.153-.069.042-.028.056-.042.069-.042l.389.583c-.0423133.03859278-.088958.07215012-.139.1-.069.042-.153.083-.25.139-.1175286.05331243-.2380666.09972458-.361.139-.15045.04277959-.3034109.07617716-.458.1-.2000766.02635324-.4032472.01687195-.6-.028-.1861827-.04117117-.3614249-.12163255-.514-.236-.1563996-.11300642-.2847079-.26047547-.375-.431-.1036594-.19416936-.1694929-.40626175-.194-.625-.0285976-.20902349-.014334-.42168209.042-.625.0480666-.18906704.1383236-.36479479.264-.514.1249189-.14622658.275361-.26854549.444-.361.1867491-.09774623.3903507-.15916607.6-.181.1849593-.02378293.372472-.01906139.556.014.1523358.03000428.2982184.08652955.431.167.1171243.07529533.2167047.17487567.292.292.0664723.11157897.1134763.23365412.139.361.018921.13016529.0093678.26288634-.028.389-.0430419.12122201-.1201198.22746458-.222.306-.1456595.1086245-.3105613.18870027-.486.236-.267128.08134885-.5413477.13726423-.819.167zm-.111-.569c.25-.028.444-.069.583-.1.1058283-.02544604.2084696-.06267866.306-.111.0471767-.02519018.0858098-.06382331.111-.111.0106749-.03599185.0154037-.07348473.014-.111-.0143968-.08244979-.0655586-.15385538-.139-.194-.1008389-.05820086-.2208677-.07333962-.333-.042-.0919917.01284456-.181208.04089361-.264.083-.0687326.04085566-.1261443.09826737-.167.167-.0442258.06354901-.0779868.13377188-.1.208-.0194401.06754271-.0242135.13846138-.014.208z" fill-rule="nonzero"/></g><path d="m11.392 17.61c.0278973.1748945.0278973.3531055 0 .528-.0227234.1350079-.0648246.2660268-.125.389-.1021493.1715228-.2454772.3148507-.417.417-.1832655.1080795-.3881502.1743255-.6.194-.1761141.0258005-.35560242.0162821-.528-.028-.16080488-.0378445-.31199747-.1086735-.444-.208-.12743735-.0998952-.23554648-.2222382-.319-.361-.08442001-.1556434-.14093985-.3248644-.167-.5-.02617968-.1760963-.01665736-.3556602.028-.528.03899544-.1538954.10465493-.2997678.194-.431.09349812-.1195436.20599536-.2229194.333-.306.13655526-.0795779.28741016-.1315617.444-.153.1480522-.0272948.3005497-.0176779.444.028.0979689.0348687.1913237.0815461.278.139l-.111-.93c-.0177074-.0982667.0073985-.1994179.069-.278.0794777-.0639743.1763165-.1026402.278-.111.0780526-.0139006.1579474-.0139006.236 0 .0470856.0051048.0936102.0144767.139.028zm-1.194.833c.1457382-.0125255.2805773-.0822823.375-.194.0926577-.1231194.1289777-.2796589.1-.431-.0083069-.0777907-.0317468-.1532061-.069-.222-.0348996-.0642663-.0821348-.1210164-.139-.167-.051921-.0466958-.1138322-.0809009-.181-.1-.0711879-.0255624-.1481647-.0304168-.222-.014-.14630718.0088392-.27997629.0858563-.361.208-.0895891.1245312-.12560103.2797426-.1.431.01092066.1533282.08655111.2947717.208.389.10770563.0907682.2508727.1275721.389.1zm2.416-.555c.0125705.0425448.036412.0808985.069.111.0371088.0339835.07928.0619852.125.083.0613432.0286892.1268044.0475852.194.056.0921375.0140046.1858625.0140046.278 0 .0758355-.0104395.1502865-.0292199.222-.056.069-.028.125-.042.181-.069.044753-.0169018.0868487-.0401386.125-.069.028-.014.056-.028.056-.042l.333.5c-.0386974.025321-.07577.053042-.111.083-.0661272.0427177-.1357016.0798464-.208.111-.083.042-.181.069-.292.111s-.236.056-.389.083c-.1667675.0262075-.3372012.0166633-.5-.028-.1559281-.0329747-.3029269-.0991412-.431-.194-.130587-.0965066-.239297-.2195295-.319-.361-.0885252-.1638685-.1451917-.3430298-.167-.528-.0287722-.1768122-.0143627-.3579599.042-.528.0426749-.1577545.1183416-.304657.222-.431.1022843-.1270436.2300218-.2312773.375-.306.1564237-.0798799.3256611-.1316665.5-.153.152228-.0235478.3074945-.0188017.458.014.1269405.026905.2487953.0738242.361.139.0930087.0677412.177017.1470451.25.236.0573.0934502.0950604.1975466.111.306.0189518.1069424.009292.2169944-.028.319-.0373335.1051442-.1048074.1969643-.194.264-.1201956.0888356-.2558214.1546141-.4.194-.2233584.0626643-.4509502.1091184-.681.139zm-.1-.486c.1633054-.0193887.3255159-.0470913.486-.083.088887-.017293.1737074-.0512211.25-.1.0437025-.0210378.0789622-.0562975.1-.1.0118265-.0319329.0166025-.066047.014-.1-.009221-.0698228-.0501928-.131465-.111-.167-.0851417-.0453652-.1832567-.0601883-.278-.042-.0738559.0060239-.1451872.0296866-.208.069-.0562013.0352851-.1037149.0827987-.139.139-.0371615.0539379-.0608251.116012-.069.181-.0322673.0593184-.0468437.1266472-.042.194z" fill="#0065a1" fill-rule="nonzero"/><g fill="#feb620" transform="translate(18.142)"><path d="m12.93 5.541c.0109108-.45035124.0953573-.89589135.25-1.319.0966543-.2652416.2078221-.5249671.333-.778-.3949474-.56061124-.9315245-1.00643612-1.555-1.292-.6988002-.31274652-1.4574872-.46905721-2.223-.458-1.02014696.00195316-2.02662247.234769-2.944.681-.90038575.40514225-1.69782863 1.0080952-2.333 1.764-.54937493.60229634-.8681538 1.37940838-.9 2.194.03648724.7222884.34985776 1.40275009.875 1.9.25454134.33913075.62581755.57180192 1.042.653.09409892.00575679.1858296-.03093548.25-.1.08581433-.12494247.14285046-.26736203.167-.417.18625395-.652878.44731834-1.28204987.778-1.875.30000558-.56241177.66957396-1.08484708 1.1-1.555.389-.4.708-.611.958-.611.319 0 .472.389.472 1.153-.0098391.75532287-.21037971 1.49591282-.583 2.153-.4189146.74953939-.96936242 1.41752899-1.625 1.972-.458.389-.694.681-.694.875-.01297813.145477.05019014.2873219.167.375.17395783.1016464.36828686.1634628.569.181 1.2307527.0928301 2.15868059 1.1570738 2.083 2.389-.02187558.680326-.20269923 1.3460858-.528 1.944-.367563.7224291-.84565231 1.3830494-1.417 1.958-.41409425.4440546-.88479801.8317128-1.4 1.153-.34806374.2480326-.75476487.4010625-1.18.444h-.092c-.29038831-.5415983-.43414104-1.1497034-.417-1.764-.00462011-.6832533.09865099-1.3629526.306-2.014.18046817-.5903336.47805937-1.1382415.875-1.611l.111-.111.1-.1c.292-.25.444-.431.444-.528 0-.264-.181-.389-.528-.389-.89334726.014682-1.76638199.2688567-2.528.736-.82027604.4744594-1.52652967 1.1230248-2.069 1.9-.49509973.6790346-.7713846 1.4928889-.792 2.333-.03126058 1.0739615.39816558 2.1100431 1.18 2.847.79686946.7643863 1.86837466 1.1750338 2.972 1.139 1.36249833-.0330014 2.69826576-.385096 3.9-1.028 1.40697559-.7281611 2.6760268-1.6963625 3.75-2.861.5023236-.5187671.9577658-1.0809587 1.361-1.68.3499989-.513132.6433772-1.0626715.875-1.639.1928366-.462415.2966541-.9570746.306-1.458.0374534-.8634516-.3456657-1.6915555-1.028-2.222-.9044852-.60075874-1.9692763-.91444515-3.055-.9v-.056c.7489385-.29766129 1.465082-.67198617 2.137-1.117.5466106-.36345213.9913321-.86049387 1.292-1.444-.1150574-.06613391-.2220988-.14532438-.319-.236-.3053179-.31468836-.4661401-.74209863-.444-1.18"/><path d="m17.902 5.041c-.1084448-.06682547-.2336279-.10150222-.361-.1-.2238075.06128513-.4295937.17549649-.6.333-.3518619.30812861-.7865551.50600096-1.25.569-.1184111.01784789-.2389586-.01367751-.3334723-.08720915-.0945137-.07353163-.1547121-.18262656-.1665277-.30179085.0916558.0425384.1909981.06601313.292.069.2631035-.01688749.5170433-.10314423.736-.25.313768-.19093737.6029277-.41964553.861-.681.3314119-.3097683.6044225-.6766052.806-1.083.1729814-.33548122.2680093-.70567997.278-1.083.0250021-.37934059-.0995602-.75338622-.347-1.042-.2494017-.25897505-.5977625-.39875619-.957-.384-.625842.02084721-1.2308498.22995127-1.736.6-.4885243.3333374-.9081859.75775239-1.236 1.25-.1290505.19195495-.2449813.39241165-.347.6 0 .014.014.014.014.028.3725002.55876345.5664002 1.21753533.556 1.889.0056124.56215584-.1178923 1.11809828-.361 1.625.2940148.15759595.6246352.23421153.958.222.2493096-.00868242.496116-.05279106.733-.131.2821672-.08696387.5562068-.19838657.819-.333.2986441-.153812.5822172-.33527197.847-.542.2770654-.20077456.5372643-.42384993.778-.667.0971211-.07520974.1618628-.18466254.181-.306 0-.056-.056-.125-.167-.194m-2.778-.181c.0109494-.3152743.0623706-.62783435.153-.93.1087976-.36959421.2424351-.73141771.4-1.083.278-.6.486-.9.625-.9.1 0 .153.111.153.347-.00221.27498313-.0299964.54916444-.083.819-.0516379.27131205-.1307107.53667496-.236.792-.1197115.34727083-.2983205.67133784-.528.958-.1251615.15668681-.2751479.29180971-.444.4-.0223241-.13232751-.0363515-.26592154-.042-.4" fill-rule="nonzero"/></g></g><g fill="#000" transform="translate(359 139.5)"><use xlink:href="#b"/><use xlink:href="#b"/></g><g transform="translate(359 161.5)"><use fill="#000" xlink:href="#c"/><use fill="#989898" xlink:href="#c"/></g><g transform="translate(44.893 68.074)"><g transform="translate(709.769 19.448)"><path d="m10.74 21.48h-10.74v-21.48h10.74z"/><path d="m5.37 7.16c.98631737-.00546449 1.78453551-.80368263 1.79-1.79-.00546449-.98631737-.80368263-1.78453551-1.79-1.79-.98631737.00546449-1.78453551.80368263-1.79 1.79.00546449.98631737.80368263 1.78453551 1.79 1.79zm0 1.79c-.98631737.00546449-1.78453551.80368263-1.79 1.79.00546449.9863174.80368263 1.7845355 1.79 1.79.98631737-.0054645 1.78453551-.8036826 1.79-1.79-.00546449-.98631737-.80368263-1.78453551-1.79-1.79zm0 5.37c-.98631737.0054645-1.78453551.8036826-1.79 1.79.00546449.9863174.80368263 1.7845355 1.79 1.79.98631737-.0054645 1.78453551-.8036826 1.79-1.79-.00546449-.9863174-.80368263-1.7845355-1.79-1.79z" fill="#fff"/></g><g transform="translate(666.808 19.448)"><path d="m21.48 21.48h-21.48v-21.48h21.48z"/><path d="m13.885 12.535h-.711l-.247-.245c.9050245-1.0528209 1.4018453-2.39565651 1.4-3.784 0-1.54382519-.6132822-3.02441931-1.7049314-4.11606857-1.0916493-1.09164926-2.5722434-1.70493143-4.1160686-1.70493143-3.21484953 0-5.821 2.60615047-5.821 5.821.00055222 3.214459 2.60654096 5.82 5.821 5.82 1.38832761.0017562 2.7311332-.4950535 3.784-1.4l.247.245v.705l4.476 4.469 1.335-1.335zm-5.375.0000001c-1.06890377.0002652-2.09410422-.4242376-2.84993335-1.1800668-.75582913-.7558291-1.18033199-1.78102953-1.18006677-2.8499333-.00026522-1.06890377.42423764-2.09410422 1.18006677-2.84993335s1.78102958-1.18033199 2.84993335-1.18006677c1.06882245 0 2.0938687.42458819 2.8496403 1.18035979.7557716.75577161 1.1803598 1.78081788 1.1803598 2.84964033.0002652 1.06890377-.4242376 2.0941042-1.1800668 2.8499333-.7558291.7558292-1.78102953 1.180332-2.8499333 1.1800668z" fill="#fff"/></g><g transform="translate(499.512 17.544)"><path d="m6.195 10.854 4.475 4.475 4.475-4.475z" fill="#fff"/><path d="m.596.882h20v22h-20z"/></g><text fill="#fff" font-family="Roboto-Regular, Roboto" font-size="18" transform="translate(475.107 18.426)"><tspan x="0" y="17">All</tspan></text><g transform="translate(426.818 17.544)"><path d="m.29.882h20v22h-20z"/><path d="m2.813 18.014h16.11v-1.79h-16.11zm0-4.475h16.11v-1.79h-16.11zm0-6.265v1.79h16.11v-1.79z" fill="#fff"/></g><g mask="url(#g)"><path d="m734.643.94h-734.613v51.406h734.613z" fill="#d14444" transform="translate(1.112 -17.07)"/></g><g transform="translate(697.833 8.448)"><path d="m21.48 21.48h-21.48v-21.48h21.48z"/><path d="m13.885 12.535h-.711l-.247-.245c.9050245-1.0528209 1.4018453-2.39565651 1.4-3.784 0-1.54382519-.6132822-3.02441931-1.7049314-4.11606857-1.0916493-1.09164926-2.5722434-1.70493143-4.1160686-1.70493143-3.21484953 0-5.821 2.60615047-5.821 5.821.00055222 3.214459 2.60654096 5.82 5.821 5.82 1.38832761.0017562 2.7311332-.4950535 3.784-1.4l.247.245v.705l4.476 4.469 1.335-1.335zm-5.375.0000001c-1.06890377.0002652-2.09410422-.4242376-2.84993335-1.1800668-.75582913-.7558291-1.18033199-1.78102953-1.18006677-2.8499333-.00026522-1.06890377.42423764-2.09410422 1.18006677-2.84993335s1.78102958-1.18033199 2.84993335-1.18006677c1.06882245 0 2.0938687.42458819 2.8496403 1.18035979.7557716.75577161 1.1803598 1.78081788 1.1803598 2.84964033.0002652 1.06890377-.4242376 2.0941042-1.1800668 2.8499333-.7558291.7558292-1.78102953 1.180332-2.8499333 1.1800668z" fill="#fff"/></g><path d="m20.927 0h-18.91c-1.11327328.00165215-2.01534785.90372672-2.017 2.017v13.443c.00165215 1.1132733.90372672 2.0153478 2.017 2.017h18.91c1.1132733-.0016522 2.0153478-.9037267 2.017-2.017v-13.443c-.0016522-1.11327328-.9037267-2.01534785-2.017-2.017zm-.278 1.344-9.134 9.134-9.215-9.134zm-19.305 13.838v-12.894l6.474 6.419zm.951.951 6.478-6.478 2.27 2.251c.262277.2615326.686723.2615326.949 0l2.213-2.213 6.443 6.443zm19.3-.951-6.443-6.443 6.448-6.444z" fill="#fff" fill-rule="nonzero" transform="translate(22.852 8.521)"/></g><path d="m674 52.5h105v19h-105z"/><g transform="translate(45.818 19.074)"><path d="m.182.426h732v25h-732z" fill="#000"/><path d="m.182 25.426h732v25h-732z" fill="#424a4e"/><path d="m628.182 15.426h105v19h-105z"/><circle cx="20.682" cy="12.926" fill="#cf4444" r="4.5"/><circle cx="33.682" cy="12.926" fill="#ff9d00" r="4.5"/><circle cx="46.682" cy="12.926" fill="#58e496" r="4.5"/><path d="m67.182 1.426h83c4.418278 0 8 3.581722 8 8v17h-97v-19c0-3.3137085 2.6862915-6 6-6z" fill="#424a4e"/><g transform="translate(79.182 5.426)"><use fill="#000" xlink:href="#d"/><use fill="#fff" xlink:href="#d"/></g><rect fill="#313334" height="17" rx="8.5" width="698" x="12.182" y="29.426"/><g transform="translate(29.182 31.426)"><use fill="#000" xlink:href="#e"/><use fill="#fff" xlink:href="#e"/></g></g><g transform="translate(65 121)"><path d="m0 0h199v58h-199z" fill="#f7f7f7"/><ellipse cx="30" cy="29.5" fill="#fff" rx="17" ry="17.5"/><g mask="url(#h)" opacity=".091" transform="translate(13 10)"><path d="m15.845 2.888c2.5180393 2.51812267 2.5179942 6.60073164-.0001006 9.1187987-2.5180949 2.5180671-6.60070389 2.5180671-9.11879877 0-2.51809487-2.51806706-2.51813993-6.60067603-.00010063-9.1187987 1.2092407-1.20928074 2.84934709-1.88865095 4.5595-1.88865095 1.7101529 0 3.3502593.67937021 4.5595 1.88865095m5.332 15.651c-5.9961811-3.9721105-13.78681894-3.9721105-19.783 0-.87791739.6006524-1.39997327 1.5982925-1.39306899 2.662v5.587h22.56814249v-5.587c.007125-1.0635201-.514536-2.0611217-1.3920735-2.662z" fill="#000" transform="translate(5.715 10.885)"/></g><text fill="#000" font-family="Flow-Circular, Flow" font-size="12" transform="translate(58 18)"><tspan x="0" y="12">Mon stage de 3me</tspan></text><text fill="#989898" font-family="Flow-Circular, Flow" font-size="9" transform="translate(58 31)"><tspan x="0" y="9">support@monstagede</tspan></text><g transform="translate(0 63)"><path d="m0 0h199v58h-199z" fill="#b1b1b1"/><ellipse cx="30" cy="29.5" fill="#fff" rx="17" ry="17.5"/><g mask="url(#i)" opacity=".091" transform="translate(13 10)"><path d="m15.845 2.888c2.5180393 2.51812267 2.5179942 6.60073164-.0001006 9.1187987-2.5180949 2.5180671-6.60070389 2.5180671-9.11879877 0-2.51809487-2.51806706-2.51813993-6.60067603-.00010063-9.1187987 1.2092407-1.20928074 2.84934709-1.88865095 4.5595-1.88865095 1.7101529 0 3.3502593.67937021 4.5595 1.88865095m5.332 15.651c-5.9961811-3.9721105-13.78681894-3.9721105-19.783 0-.87791739.6006524-1.39997327 1.5982925-1.39306899 2.662v5.587h22.56814249v-5.587c.007125-1.0635201-.514536-2.0611217-1.3920735-2.662z" fill="#000" transform="translate(5.715 10.885)"/></g><g fill="#fff" font-family="Flow-Circular, Flow"><text font-size="12" transform="translate(58 18)"><tspan x="0" y="12">Mon stage de 3me</tspan></text><text font-size="9" transform="translate(58 31)"><tspan x="0" y="9">support@monstagede</tspan></text></g></g><g transform="translate(0 126)"><path d="m0 0h199v58h-199z" fill="#f7f7f7"/><ellipse cx="30" cy="29.5" fill="#fff" rx="17" ry="17.5"/><g mask="url(#j)" opacity=".091" transform="translate(13 10)"><path d="m15.845 2.888c2.5180393 2.51812267 2.5179942 6.60073164-.0001006 9.1187987-2.5180949 2.5180671-6.60070389 2.5180671-9.11879877 0-2.51809487-2.51806706-2.51813993-6.60067603-.00010063-9.1187987 1.2092407-1.20928074 2.84934709-1.88865095 4.5595-1.88865095 1.7101529 0 3.3502593.67937021 4.5595 1.88865095m5.332 15.651c-5.9961811-3.9721105-13.78681894-3.9721105-19.783 0-.87791739.6006524-1.39997327 1.5982925-1.39306899 2.662v5.587h22.56814249v-5.587c.007125-1.0635201-.514536-2.0611217-1.3920735-2.662z" fill="#000" transform="translate(5.715 10.885)"/></g><g font-family="Flow-Circular, Flow"><text fill="#000" font-size="12" transform="translate(58 18)"><tspan x="0" y="12">Mon stage de 3me</tspan></text><text fill="#989898" font-size="9" transform="translate(58 31)"><tspan x="0" y="9">support@monstagede</tspan></text></g></g><g transform="translate(0 189)"><path d="m0 0h199v58h-199z" fill="#f7f7f7"/><ellipse cx="30" cy="29.5" fill="#fff" rx="17" ry="17.5"/><g mask="url(#k)" opacity=".091" transform="translate(13 10)"><path d="m15.845 2.888c2.5180393 2.51812267 2.5179942 6.60073164-.0001006 9.1187987-2.5180949 2.5180671-6.60070389 2.5180671-9.11879877 0-2.51809487-2.51806706-2.51813993-6.60067603-.00010063-9.1187987 1.2092407-1.20928074 2.84934709-1.88865095 4.5595-1.88865095 1.7101529 0 3.3502593.67937021 4.5595 1.88865095m5.332 15.651c-5.9961811-3.9721105-13.78681894-3.9721105-19.783 0-.87791739.6006524-1.39997327 1.5982925-1.39306899 2.662v5.587h22.56814249v-5.587c.007125-1.0635201-.514536-2.0611217-1.3920735-2.662z" fill="#000" transform="translate(5.715 10.885)"/></g><g font-family="Flow-Circular, Flow"><text fill="#000" font-size="12" transform="translate(58 18)"><tspan x="0" y="12">Mon stage de 3me</tspan></text><text fill="#989898" font-size="9" transform="translate(58 31)"><tspan x="0" y="9">support@monstagede</tspan></text></g></g><g transform="translate(0 252)"><path d="m0 0h199v42h-199z" fill="#f7f7f7"/><ellipse cx="30" cy="29.5" fill="#fff" rx="17" ry="17.5"/><g mask="url(#l)" opacity=".091"><path d="m15.845 2.888c2.5180393 2.51812267 2.5179942 6.60073164-.0001006 9.1187987-2.5180949 2.5180671-6.60070389 2.5180671-9.11879877 0-2.51809487-2.51806706-2.51813993-6.60067603-.00010063-9.1187987 1.2092407-1.20928074 2.84934709-1.88865095 4.5595-1.88865095 1.7101529 0 3.3502593.67937021 4.5595 1.88865095m5.332 15.651c-5.9961811-3.9721105-13.78681894-3.9721105-19.783 0-.87791739.6006524-1.39997327 1.5982925-1.39306899 2.662v5.587h22.56814249v-5.587c.007125-1.0635201-.514536-2.0611217-1.3920735-2.662z" fill="#000" transform="translate(18.715 20.885)"/></g><g font-family="Flow-Circular, Flow"><text fill="#000" font-size="12" transform="translate(58 18)"><tspan x="0" y="12">Mon stage de 3me</tspan></text><text fill="#989898" font-size="9" transform="translate(58 31)"><tspan x="0" y="9">support@monstagede</tspan></text></g></g></g><rect fill="url(#f)" height="134" rx="10" width="816" y="285.5"/><rect fill="#fdb720" height="67" rx="5" width="255" x="395.999" y="213.504"/><path d="m6.229 9.204h3.885l-1.89-5.502h-.042zm.315-9.198h3.381l5.607 14.994h-3.423l-1.134-3.339h-5.607l-1.176 3.339h-3.318zm17.367 7.959c-.196001-1.24600623-.9309936-1.869-2.205-1.869-.4760024 0-.8749984.10849891-1.197.3255-.3220016.21700108-.584499.49699828-.7875.84-.203001.34300171-.3464996.72099793-.4305 1.134-.0840004.41300206-.126.82249797-.126 1.2285 0 .392002.0419996.790998.126 1.197s.2204991.7734984.4095 1.1025.4444984.5984989.7665.8085c.3220016.210001.7139977.315 1.176.315.7140036 0 1.2634981-.199498 1.6485-.5985s.6264995-.9344966.7245-1.6065h2.877c-.196001 1.4420072-.7559954 2.5409962-1.68 3.297s-2.1069928 1.134-3.549 1.134c-.8120041 0-1.5574966-.1364986-2.2365-.4095s-1.2564976-.6544976-1.7325-1.1445c-.4760024-.4900025-.8469987-1.0744966-1.113-1.7535s-.399-1.4244959-.399-2.2365c0-.8400042.1224988-1.6204964.3675-2.3415.2450012-.72100361.6054976-1.34399738 1.0815-1.869.4760024-.52500263 1.0569966-.93449853 1.743-1.2285s1.4699956-.441 2.352-.441c.6440032 0 1.263497.08399916 1.8585.252s1.1269977.42349828 1.596.7665c.4690023.34300171.8504985.76999744 1.1445 1.281.2940015.51100255.4619998 1.1164965.504 1.8165zm8.442-3.822h2.184v1.995h-2.184v5.376c0 .5040025.0839992.8399992.252 1.008s.5039975.252 1.008.252c.1680008 0 .3289992-.0069999.483-.021s.3009993-.0349999.441-.063v2.31c-.2520013.0420002-.5319985.0699999-.84.084s-.6089985.021-.903.021c-.4620023 0-.8994979-.0314997-1.3125-.0945s-.7769984-.1854991-1.092-.3675-.5634991-.4409983-.7455-.777-.273-.7769973-.273-1.323v-6.405h-1.806v-1.995h1.806v-3.255h2.982zm6.678-1.68h-2.982v-2.457h2.982zm-2.982 1.68h2.982v10.857h-2.982zm11.34 10.857h-3.318l-3.717-10.857h3.129l2.289 7.413h.042l2.289-7.413h2.961zm12.222-6.594c-.1400007-.75600378-.3884982-1.32999804-.7455-1.722s-.8994964-.588-1.6275-.588c-.4760024 0-.8714984.08049919-1.1865.2415-.3150016.1610008-.5669991.36049881-.756.5985s-.3219996.48999867-.399.756-.1224999.50399895-.1365.714zm-4.851 1.89c.0420002.9660048.2869978 1.6659978.735 2.1s1.0919958.651 1.932.651c.602003 0 1.1199978-.1504985 1.554-.4515s.6999995-.6194983.798-.9555h2.625c-.4200021 1.3020065-1.0639957 2.2329972-1.932 2.793s-1.9179938.84-3.15.84c-.8540043 0-1.6239966-.1364986-2.31-.4095s-1.2669976-.6614975-1.743-1.1655-.8434987-1.1059965-1.1025-1.806-.3885-1.4699958-.3885-2.31c0-.81200406.1329987-1.5679965.399-2.268s.6439976-1.30549745 1.134-1.8165c.4900025-.51100256 1.0744966-.91349853 1.7535-1.2075s1.4314959-.441 2.2575-.441c.9240046 0 1.7289966.17849821 2.415.5355.6860034.35700178 1.2494978.83649699 1.6905 1.4385s.759499 1.28799615.9555 2.058.2660003 1.5749958.21 2.415zm9.597-6.153h2.835v2.016h.042c.1400007-.33600168.3289988-.64749857.567-.9345.2380012-.28700144.5109985-.53199899.819-.735.3080015-.20300102.6369983-.36049944.987-.4725s.7139981-.168 1.092-.168c.196001 0 .4129988.03499965.651.105v2.772c-.1400007-.02800014-.307999-.0524999-.504-.0735-.196001-.02100011-.3849991-.0315-.567-.0315-.5460027 0-1.0079981.09099909-1.386.273s-.6824988.43049842-.9135.7455c-.2310012.31500157-.3954995.6824979-.4935 1.1025s-.147.87499755-.147 1.365v4.893h-2.982zm14.091 0h2.814v1.47h.042c.392002-.5600028.8644972-.99399846 1.4175-1.302s1.1864964-.462 1.9005-.462c.6860034 0 1.3124972.13299867 1.8795.399s.9974985.73499664 1.2915 1.407c.3220016-.47600238.7594972-.89599818 1.3125-1.26s1.2074962-.546 1.9635-.546c.5740029 0 1.1059976.0699993 1.596.21.4900025.1400007.9099983.36399846 1.26.672.3500018.30800154.622999.71049751.819 1.2075.196001.49700248.294 1.0954965.294 1.7955v7.266h-2.982v-6.153c0-.36400182-.0139999-.70699839-.042-1.029s-.1049994-.60199881-.231-.84-.3114988-.4269993-.5565-.567-.5774979-.21-.9975-.21-.7594987.08049919-1.0185.2415c-.2590013.1610008-.4619993.3709987-.609.63-.1470007.25900129-.2449998.55299835-.294.882-.0490002.32900164-.0735.66149832-.0735.9975v6.048h-2.982v-6.09c0-.32200161-.0069999-.64049843-.021-.9555-.0140001-.31500158-.0734995-.6055-.1785-.8715-.1050005-.26600133-.2799988-.4794992-.525-.6405-.2450012-.16100081-.6054976-.2415-1.0815-.2415-.1400007 0-.3254988.03149968-.5565.0945-.2310012.06300031-.4549989.18199912-.672.357-.2170011.17500087-.4024992.42699835-.5565.756-.1540008.32900164-.231.75949734-.231 1.2915v6.3h-2.982zm21.588 5.439c0 .4340022.042.8574979.126 1.2705s.227499.7839984.4305 1.113.472498.591499.8085.7875.755997.294 1.26.294.927498-.097999 1.2705-.294.615999-.4584984.819-.7875.3465-.6999979.4305-1.113.126-.8364978.126-1.2705c0-.43400217-.042-.8609979-.126-1.281s-.227499-.79099839-.4305-1.113-.475998-.58449899-.819-.7875c-.343002-.20300102-.766497-.3045-1.2705-.3045s-.923998.10149898-1.26.3045c-.336002.20300101-.605499.46549839-.8085.7875s-.3465.6929979-.4305 1.113-.126.84699783-.126 1.281zm-2.982 0c0-.86800434.1329987-1.65549647.399-2.3625.2660013-.70700354.6439976-1.30899752 1.134-1.806.4900025-.49700249 1.0779966-.88199864 1.764-1.155.686003-.27300137 1.455996-.4095 2.31-.4095s1.627497.13649863 2.3205.4095c.693003.27300136 1.284498.65799751 1.7745 1.155.490002.49700248.867999 1.09899646 1.134 1.806.266001.70700353.399 1.49449566.399 2.3625 0 .8680043-.132999 1.6519965-.399 2.352s-.643998 1.2984975-1.134 1.7955-1.081497.8784987-1.7745 1.1445-1.466496.399-2.3205.399-1.623997-.1329987-2.31-.399c-.6860034-.2660013-1.2739975-.6474975-1.764-1.1445-.4900024-.4970025-.8679987-1.0954965-1.134-1.7955s-.399-1.4839957-.399-2.352zm13.167-5.439h2.835v1.512h.063c.378002-.63000315.867997-1.08849857 1.47-1.3755.602003-.28700144 1.217997-.4305 1.848-.4305.798004 0 1.452497.10849891 1.9635.3255.511003.21700108.913499.51799807 1.2075.903.294001.38500192.500499.85399723.6195 1.407.119001.55300276.1785 1.16549664.1785 1.8375v6.678h-2.982v-6.132c0-.89600448-.139999-1.5644978-.42-2.0055-.280001-.44100221-.776996-.6615-1.491-.6615-.812004 0-1.399998.24149758-1.764.7245-.364002.48300241-.546 1.27749447-.546 2.3835v5.691h-2.982zm25.683 3.822c-.196001-1.24600623-.930994-1.869-2.205-1.869-.476002 0-.874998.10849891-1.197.3255-.322002.21700108-.584499.49699828-.7875.84-.203001.34300171-.3465.72099793-.4305 1.134-.084.41300206-.126.82249797-.126 1.2285 0 .392002.042.790998.126 1.197s.220499.7734984.4095 1.1025.444498.5984989.7665.8085c.322002.210001.713998.315 1.176.315.714004 0 1.263498-.199498 1.6485-.5985s.6265-.9344966.7245-1.6065h2.877c-.196001 1.4420072-.755995 2.5409962-1.68 3.297s-2.106993 1.134-3.549 1.134c-.812004 0-1.557497-.1364986-2.2365-.4095s-1.256498-.6544976-1.7325-1.1445c-.476002-.4900025-.846999-1.0744966-1.113-1.7535s-.399-1.4244959-.399-2.2365c0-.8400042.122499-1.6204964.3675-2.3415.245001-.72100361.605498-1.34399738 1.0815-1.869.476002-.52500263 1.056997-.93449853 1.743-1.2285s1.469996-.441 2.352-.441c.644003 0 1.263497.08399916 1.8585.252s1.126998.42349828 1.596.7665c.469002.34300171.850499.76999744 1.1445 1.281.294001.51100255.462 1.1164965.504 1.8165zm7.308 1.617c0 .4340022.042.8574979.126 1.2705s.227499.7839984.4305 1.113.472498.591499.8085.7875.755997.294 1.26.294.927498-.097999 1.2705-.294.615999-.4584984.819-.7875.3465-.6999979.4305-1.113.126-.8364978.126-1.2705c0-.43400217-.042-.8609979-.126-1.281s-.227499-.79099839-.4305-1.113-.475998-.58449899-.819-.7875c-.343002-.20300102-.766497-.3045-1.2705-.3045s-.923998.10149898-1.26.3045c-.336002.20300101-.605499.46549839-.8085.7875s-.3465.6929979-.4305 1.113-.126.84699783-.126 1.281zm-2.982 0c0-.86800434.132999-1.65549647.399-2.3625.266001-.70700354.643998-1.30899752 1.134-1.806.490002-.49700249 1.077997-.88199864 1.764-1.155.686003-.27300137 1.455996-.4095 2.31-.4095s1.627497.13649863 2.3205.4095c.693003.27300136 1.284498.65799751 1.7745 1.155.490002.49700248.867999 1.09899646 1.134 1.806.266001.70700353.399 1.49449566.399 2.3625 0 .8680043-.132999 1.6519965-.399 2.352s-.643998 1.2984975-1.134 1.7955-1.081497.8784987-1.7745 1.1445-1.466496.399-2.3205.399-1.623997-.1329987-2.31-.399-1.273998-.6474975-1.764-1.1445-.867999-1.0954965-1.134-1.7955-.399-1.4839957-.399-2.352zm13.251-5.439h2.814v1.47h.042c.392002-.5600028.864497-.99399846 1.4175-1.302s1.186496-.462 1.9005-.462c.686003 0 1.312497.13299867 1.8795.399s.997499.73499664 1.2915 1.407c.322002-.47600238.759497-.89599818 1.3125-1.26s1.207496-.546 1.9635-.546c.574003 0 1.105998.0699993 1.596.21s.909998.36399846 1.26.672.622999.71049751.819 1.2075c.196001.49700248.294 1.0954965.294 1.7955v7.266h-2.982v-6.153c0-.36400182-.014-.70699839-.042-1.029s-.104999-.60199881-.231-.84-.311499-.4269993-.5565-.567-.577498-.21-.9975-.21-.759499.08049919-1.0185.2415c-.259001.1610008-.461999.3709987-.609.63-.147001.25900129-.245.55299835-.294.882-.049.32900164-.0735.66149832-.0735.9975v6.048h-2.982v-6.09c0-.32200161-.007-.64049843-.021-.9555-.014-.31500158-.073499-.6055-.1785-.8715-.105001-.26600133-.279999-.4794992-.525-.6405-.245001-.16100081-.605498-.2415-1.0815-.2415-.140001 0-.325499.03149968-.5565.0945-.231001.06300031-.454999.18199912-.672.357-.217001.17500087-.402499.42699835-.5565.756-.154001.32900164-.231.75949734-.231 1.2915v6.3h-2.982zm24.423 8.904c.490002 0 .899498-.097999 1.2285-.294s.594999-.4514984.798-.7665.3465-.6824979.4305-1.1025.126-.8469978.126-1.281c0-.43400217-.0455-.8609979-.1365-1.281s-.241499-.79449836-.4515-1.1235c-.210001-.32900165-.479498-.59499899-.8085-.798-.329002-.20300102-.731498-.3045-1.2075-.3045-.490002 0-.899498.10149898-1.2285.3045-.329002.20300101-.594999.46549839-.798.7875s-.3465.6929979-.4305 1.113-.126.85399776-.126 1.302c0 .4340022.0455.8609979.1365 1.281s.237999.7874984.441 1.1025.472498.570499.8085.7665.741998.294 1.218.294zm-5.481-8.904h2.835v1.386h.042c.364002-.58800294.825997-1.01499867 1.386-1.281s1.175997-.399 1.848-.399c.854004 0 1.588997.16099839 2.205.483s1.126998.74899734 1.533 1.281.706999 1.15149646.903 1.8585c.196001.70700353.294 1.44549615.294 2.2155 0 .7280036-.097999 1.4279966-.294 2.1s-.493498 1.2669974-.8925 1.785-.895997.9309985-1.491 1.239-1.291496.462-2.0895.462c-.672003 0-1.291497-.1364986-1.8585-.4095s-1.032498-.6754973-1.3965-1.2075h-.042v5.145h-2.982zm16.611 0h2.184v1.995h-2.184v5.376c0 .5040025.083999.8399992.252 1.008s.503997.252 1.008.252c.168001 0 .328999-.0069999.483-.021s.300999-.0349999.441-.063v2.31c-.252001.0420002-.531998.0699999-.84.084s-.608999.021-.903.021c-.462002 0-.899498-.0314997-1.3125-.0945s-.776998-.1854991-1.092-.3675-.563499-.4409983-.7455-.777-.273-.7769973-.273-1.323v-6.405h-1.806v-1.995h1.806v-3.255h2.982zm10.92 4.263c-.140001-.75600378-.388498-1.32999804-.7455-1.722s-.899496-.588-1.6275-.588c-.476002 0-.871498.08049919-1.1865.2415-.315002.1610008-.566999.36049881-.756.5985s-.322.48999867-.399.756-.1225.50399895-.1365.714zm-4.851 1.89c.042.9660048.286998 1.6659978.735 2.1s1.091996.651 1.932.651c.602003 0 1.119998-.1504985 1.554-.4515s.7-.6194983.798-.9555h2.625c-.420002 1.3020065-1.063996 2.2329972-1.932 2.793s-1.917994.84-3.15.84c-.854004 0-1.623997-.1364986-2.31-.4095s-1.266998-.6614975-1.743-1.1655-.843499-1.1059965-1.1025-1.806-.3885-1.4699958-.3885-2.31c0-.81200406.132999-1.5679965.399-2.268s.643998-1.30549745 1.134-1.8165c.490002-.51100256 1.074497-.91349853 1.7535-1.2075s1.431496-.441 2.2575-.441c.924005 0 1.728997.17849821 2.415.5355.686003.35700178 1.249498.83649699 1.6905 1.4385s.759499 1.28799615.9555 2.058.266 1.5749958.21 2.415z" fill="#424a4e" transform="translate(421 237.5)"/><g transform="matrix(.88294759089 -.46947156819 .46947156819 .88294759089 557.5949338063 274.1035547242)"><path d="m65.8374725 31.1396936c-.9243978-.000672-1.8390408.1889283-2.687.557-1.0231599-2.6051402-3.5331538-4.3215448-6.332-4.33-1.0313402-.0011458-2.0491675.2345795-2.975.689-1.1642618-2.2660416-3.4953727-3.693331-6.043-3.7-.7488655.0004238-1.4924106.1258125-2.2.371v-7.551c0-2.4344078-1.298741-4.6838933-3.407-5.9010972s-4.7057411-1.2172039-6.8140001 0c-2.1082589 1.2172039-3.407 3.4666894-3.4069999 5.9010972v27.183l-4.908-5.615c-.034-.038-.069-.076-.106-.112-1.2788881-1.2873573-3.017385-2.0130503-4.832-2.017h-.035c-1.8005082-.0069892-3.5289628.7067185-4.8 1.982-2.253 2.254-2.378 5.6-.341 9.18 2.637 4.632 5.5 9 8.032 12.855 1.848 2.817 3.594 5.477 4.87 7.677 1.107 1.909 4.044 8.1 4.074 8.162.3786307.8049287 1.1874671 1.3193595 2.077 1.321h29.143c1.0012096 0 1.8877731-.6467707 2.194-1.6.543-1.69 5.3120192-16.676 5.3120192-22.463v-15.727c.0088424-3.7751091-3.0399384-6.8449159-6.8150192-6.862z" fill="#fff"/><path d="m65.8374725 31.1396936c-.9243978-.000672-1.8390408.1889283-2.687.557-1.0231599-2.6051402-3.5331538-4.3215448-6.332-4.33-1.0313402-.0011458-2.0491675.2345795-2.975.689-1.1642618-2.2660416-3.4953727-3.693331-6.043-3.7-.7488655.0004238-1.4924106.1258125-2.2.371v-7.551c0-2.4344078-1.298741-4.6838933-3.407-5.9010972s-4.7057411-1.2172039-6.8140001 0c-2.1082589 1.2172039-3.407 3.4666894-3.4069999 5.9010972v27.183l-4.908-5.615c-.034-.038-.069-.076-.106-.112-1.2788881-1.2873573-3.017385-2.0130503-4.832-2.017h-.035c-1.8005082-.0069892-3.5289628.7067185-4.8 1.982-2.253 2.254-2.378 5.6-.341 9.18 2.637 4.632 5.5 9 8.032 12.855 1.848 2.817 3.594 5.477 4.87 7.677 1.107 1.909 4.044 8.1 4.074 8.162.3786307.8049287 1.1874671 1.3193595 2.077 1.321h29.143c1.0012096 0 1.8877731-.6467707 2.194-1.6.543-1.69 5.3120192-16.676 5.3120192-22.463v-15.727c.0088424-3.7751091-3.0399384-6.8449159-6.8150192-6.862zm-2.2 6.862c0-1.2172356.9867644-2.204 2.204-2.204 1.2172355 0 2.204.9867644 2.204 2.204v15.728c0 3.846-2.956 14.185-4.587 19.452h-26c-.955-1.988-2.748-5.667-3.624-7.182-1.34-2.31-3.119-5.022-5-7.894-2.491-3.8-5.315-8.1-7.879-12.605-.669-1.177-1.283-2.764-.4-3.642.412716-.4061835.9689335-.6332697 1.548-.632.5753577.0009443 1.1285337.2220716 1.546.618l8.89 10.17c.6298225.7286247 1.6469185.9876806 2.5485546.6491208.9016361-.3385599 1.4968531-1.2030314 1.4914454-2.1661208v-33.322c0-1.2177879.9872121-2.205 2.205-2.205 1.2177878 0 2.205.9872121 2.205 2.205v21.518c0 1.2727402 1.0317597 2.3045 2.3045 2.3045 1.2727402 0 2.3045-1.0317598 2.3045-2.3045v-7.474c0-1.2172356.9867644-2.204 2.204-2.204 1.2172355 0 2.204.9867644 2.204 2.204v10.48c0 1.2727402 1.0317597 2.3045 2.3045 2.3045 1.2727402 0 2.3045-1.0317598 2.3045-2.3045v-7.472c-.0170138-.7987845.3994008-1.5442818 1.0884721-1.9486663.6890714-.4043846 1.5429843-.4043846 2.2320557 0 .6890713.4043845 1.1054859 1.1498818 1.0884722 1.9486663v10.48c0 1.2730164 1.0319836 2.305 2.305 2.305 1.2730163 0 2.305-1.0319836 2.305-2.305v-6.706z" fill="#000" fill-rule="nonzero"/></g></g></svg>