<svg xmlns="http://www.w3.org/2000/svg" width="75.822" height="76.149" viewBox="0 0 75.822 76.149"><defs><style>.a{fill:#1416c7;}</style></defs><path class="a" d="M77.222,27.959V69.7A10.266,10.266,0,0,1,66.963,79.961H56.586V91.753a2.029,2.029,0,0,1-3.538,1.415L39.842,80.079a.115.115,0,0,0-.118-.118H11.659A10.266,10.266,0,0,1,1.4,69.7V27.959A10.266,10.266,0,0,1,11.659,17.7H67.081A10.242,10.242,0,0,1,77.222,27.959ZM27.932,48.831a4.731,4.731,0,0,0-4.717-4.717h0a4.717,4.717,0,1,0,0,9.434h0A4.656,4.656,0,0,0,27.932,48.831Zm16.037,0a4.731,4.731,0,0,0-4.717-4.717h0a4.717,4.717,0,1,0,0,9.434h0A4.656,4.656,0,0,0,43.969,48.831Zm16.037,0a4.731,4.731,0,0,0-4.717-4.717h0a4.717,4.717,0,1,0,0,9.434h0A4.656,4.656,0,0,0,60.006,48.831Z" transform="translate(-1.4 -17.7)"/></svg>