<?xml version="1.0" encoding="UTF-8"?>
<svg width="76px" height="77px" viewBox="0 0 76 77" version="1.1" xmlns="http://www.w3.org/2000/svg" xmlns:xlink="http://www.w3.org/1999/xlink">
    <!-- Generator: Sketch 58 (84663) - https://sketch.com -->
    <title>sms_blue</title>
    <desc>Created with Sketch.</desc>
    <g id="Page-1" stroke="none" stroke-width="1" fill="none" fill-rule="evenodd">
        <g id="sms_blue" fill="#C7C7C7" fill-rule="nonzero">
            <path d="M75.8220153,10.259 L75.8220153,52 C75.8192422,57.6650703 71.2280696,62.2571379 65.563,62.261 L55.186,62.261 L55.186,74.053 C55.2110105,74.9041229 54.7019396,75.680316 53.9113353,75.996513 C53.120731,76.31271 52.2168085,76.1016345 51.648,75.468 L38.442,62.379 C38.4428342,62.3474561 38.4306702,62.3169552 38.4083575,62.2946425 C38.3860448,62.2723298 38.3555439,62.2601658 38.324,62.261 L10.259,62.261 C4.59393039,62.2571379 0.00275782579,57.6650703 0,52 L0,10.259 C0.0038609512,4.59471078 4.59471078,0.0038609512 10.259,-3.55271368e-15 L65.681,-3.55271368e-15 C71.3046501,0.0554512993 75.8316081,4.63508476 75.8220153,10.259 Z M26.532,31.131 C26.5243117,28.5290641 24.4169359,26.4216883 21.815,26.414 L21.815,26.414 C19.2098728,26.414 17.098,28.5258728 17.098,31.131 C17.098,33.7361272 19.2098728,35.848 21.815,35.848 L21.815,35.848 C23.0710316,35.8645664 24.2804684,35.3729198 25.1686941,34.4846941 C26.0569198,33.5964684 26.5485664,32.3870316 26.532,31.131 Z M42.569,31.131 C42.5613117,28.5290641 40.4539359,26.4216883 37.852,26.414 L37.852,26.414 C35.2468728,26.414 33.135,28.5258728 33.135,31.131 C33.135,33.7361272 35.2468728,35.848 37.852,35.848 L37.852,35.848 C39.1080316,35.8645664 40.3174684,35.3729198 41.2056941,34.4846941 C42.0939198,33.5964684 42.5855664,32.3870316 42.569,31.131 L42.569,31.131 Z M58.606,31.131 C58.5983117,28.5290641 56.4909359,26.4216883 53.889,26.414 L53.889,26.414 C51.2838728,26.414 49.172,28.5258728 49.172,31.131 C49.172,33.7361272 51.2838728,35.848 53.889,35.848 L53.889,35.848 C55.1450316,35.8645664 56.3544684,35.3729198 57.2426941,34.4846941 C58.1309198,33.5964684 58.6225664,32.3870316 58.606,31.131 L58.606,31.131 Z" id="Shape"></path>
        </g>
    </g>
</svg>