<svg xmlns="http://www.w3.org/2000/svg" xmlns:xlink="http://www.w3.org/1999/xlink" width="164.742" height="256.048" viewBox="0 0 164.742 256.048"><defs><style>.a,.b{fill:none;}.a{clip-rule:evenodd;}.c{clip-path:url(#a);}.d{clip-path:url(#b);}.e{clip-path:url(#c);}.f{clip-path:url(#d);}.g{clip-path:url(#e);}.h{fill:#0c0d91;}.i{clip-path:url(#f);}.j{clip-path:url(#h);}.k{clip-path:url(#j);}</style><clipPath id="a"><path class="a" d="M51.536-123.546c.693-1.9-.319-3.8-.881-5.644-1.995-6.387,3.461-22.5,7.277-22.734,1.4-3.612,5.12-5.11,8.051-7.19,3.326-2.077,6.562-4.462,10.021-6.283.192-1.72,2.278-2.147,3.553-.916,3.5-2.179,7.7-1.775,11.456-3.2,2.853-4.613,3.067-9.463,3.822-13.913.329-1.94-.02-3.811,1.3-5.541,4.451-6.262,22.038-8.978,28.522-5.267,3.49-2.178,3.575,1.766,4.129,4.2a7.727,7.727,0,0,1,.846,4.05c1.652,3.453,3.054,7.771,6.526,10.35,4.406,3.272,11.186,4.516,15.482,6.12a4.381,4.381,0,0,0,1.258-2.269,50.64,50.64,0,0,1,18.7,7.968c6.338,1.854,10.8,7.011,14.029,12.54a2.391,2.391,0,0,1,.336,1.723C195.893-135,200.63-117.574,201.3-99.976c6.383,3.832-3.034,38.257-5.226,45.4l-.007,0c-1.422,2.519-3.037,9.706-6.6,9.15-2.441,2.761-6.332,2.219-9.645,2.431a12.13,12.13,0,0,1-.368,6.486c-.76,2.436-4.487,2.518-5.016-.137-32.992,6.412-66.844,1.3-100.207,2.258-9.646.068-19.292.367-28.915,1.055A2.65,2.65,0,0,1,42.68-35.97c2.069-22.02,4.012-50.988,6.326-72.793C49.555-113.735,49.989-118.763,51.536-123.546Z" transform="translate(-42.676 195.922)"/></clipPath><clipPath id="b"><path class="a" d="M152.9-172.808q-.016.074-.034.146l.126.286a12.116,12.116,0,0,1,1.2,4.581c0,2.758-12.272,30.053-39.5,27.545Q87.474-142.758,81.51-165l-.233-3.2a10.767,10.767,0,0,0-1.72.862c-1.275-1.231-3.36-.8-3.553.916-3.459,1.821-6.695,4.206-10.021,6.283l-.2.143c-2.9,2.007-6.484,3.519-7.847,7.047l-.546.035c-3.644.239-8.725,16.311-6.731,22.7.561,1.842,1.574,3.741.881,5.645-1.548,4.784-1.982,9.811-2.53,14.783-2.314,21.8-4.257,50.772-6.326,72.793a2.809,2.809,0,0,0,2.637,2.638c28,2.568,133.378.584,134.138-1.852a17.467,17.467,0,0,0,.368-7.81c3.313-.212,7.2.331,9.645-2.431,3.559.556,5.174-6.631,6.6-9.15l.007,0c2.192-7.147,11.609-41.572,5.226-45.4-.665-17.6-5.4-35.023-15.328-49.578a2.377,2.377,0,0,0-.293-1.65l-.043-.073c-3.228-5.529-7.691-10.686-14.029-12.541A50.638,50.638,0,0,0,152.9-172.808ZM72.276-126.73c1.425-1.105,12.62,1.105,20.755,3.092q8.135,1.987,11.334,5.373h0l9.547,10.482,2.416,1.562a100.134,100.134,0,0,1-.559,10.3q-.559,5.4-4.927,11.429-12.87-3.538-15.391-4.015c-2.521-.477-4.519-4.618-5.7-6.042s-5.73-1.582-9.193-2.678q-3.463-1.1-4.817-5.6-7.569-1.634-10.007-2.18t0-2.77h0l18.9-.661q-11.313-2.419-13.737-2.752c-2.423-.333-8.933-2.355-8.933-3.921,0-1.39,8.12-1.5,13.577-1.506h1.932q5.191,0,16.694.975h0l-4.414-2.115q-14.938-2.894-16.93-2.894T70-123.638A7.632,7.632,0,0,1,72.276-126.73Z" transform="translate(-42.676 172.808)"/></clipPath><clipPath id="c"><path class="a" d="M190.9-127.242l-9.7-21.974q-1.465-3.733-3.953-3.733t-25.049.707q-4.617.589-3.126,3.027t23.659,47.8h9.4v-2.292l-10.467-2.927q-1.905-2.022,1.065-2.022t20.252-.661l-16.478-2.419-8.151-3.136,1.2-1.649,6.952-.993,22.64.993-6.162-2.085-13.77-2.924q-2.708-1.908-2.708-3.779t7.255-2.591Z" transform="translate(-148.714 152.949)"/></clipPath><clipPath id="d"><path class="a" d="M129.162-193a.249.249,0,0,0-.488.066c-.152,6.192,1.389,13.758,6.341,17.94,2.542,2.147,5.9,3.129,8.99,4.258l.348.128,5.453,2.032c1.446.539,3.007,1.368,4.284.607-1.034,2.565-1.9,5.2-3.161,7.672a38.5,38.5,0,0,1-5.781,8.452c-9.188,10.143-23.729,13.237-36.778,10.265-6.719-1.531-13.258-4.431-17.842-9.721a26.3,26.3,0,0,1-5.957-14.742,1.147,1.147,0,0,0,.431-.011,16.765,16.765,0,0,0,4.771-2.114l.14-.084a13.533,13.533,0,0,0,3.858-3.114,17.081,17.081,0,0,0,2.042-5.536,41.24,41.24,0,0,0,.506-6.374c0-.152-.678-.241-.75-.084-.622,1.366-.824,4.369-1.3,5.791l-.1.284c-.513,1.485-.953,3.293-2.016,4.494-2,2.255-5.01,3.209-7.7,4.34-.193-2.548-4.261-2.489-4.21.169,0,.144.009.288.014.431-.321.176-.629.378-.918.573l-.281.191a38.107,38.107,0,0,1-3.273,2.028c-2.2,1.191-4.521,2.135-6.77,3.216a34.481,34.481,0,0,0-6.392,3.956,32.881,32.881,0,0,0-2.678,2.341l-.23.227a10.2,10.2,0,0,0-2.32,2.764c-.1.233-.61.776-.886.794-4.275.28-8.54.676-12.788,1.27-1.1.154-1.534.721-1.128,1.638,1.4,3.151,6.866,15.736,8.32,19.114-.17,2.481.06,5.4-.094,7.884q-.336,5.433-.869,10.854c-1.257,12.919-3.164,25.776-4.886,38.639-.862,6.438-1.648,12.885-2.424,19.333q-.588,4.888-.98,9.793-.16,2.045-.289,4.093L41.3-37.934c-.1,1.524-.335,2.979.608,4.287a1.266,1.266,0,0,0,1.965.253,3.888,3.888,0,0,0,1.037-2.593c.052-.852.064-1.708.1-2.561q.126-2.773.313-5.543.37-5.537.854-11.068c1.142-12.923,3.313-25.749,4.757-38.64q1.092-9.748,1.519-19.545.206-4.895.154-9.793c-.012-1.22-.07-2.434-.154-3.646q3.246,7.376,6.817,14.593l.564,1.138A98.825,98.825,0,0,0,64.7-102.1l.311.488c.734,1.163,1.737,3,3.075,3.364a11.181,11.181,0,0,0,3.027.057c.948-.018,1.9-.022,2.846-.06a13.893,13.893,0,0,0,3.105-.46,3.506,3.506,0,0,0,.479-.159,9.861,9.861,0,0,0,4.592,3.737,31.524,31.524,0,0,0,4.462,1.4l.534.134c1.621.4,3.476.6,4.39,2.162l.212.363a9.181,9.181,0,0,0,2.457,3,13.414,13.414,0,0,0,4.075,1.889c1.463.447,2.961.789,4.447,1.155l.4.1c.981.246,1.971.471,2.946.738.416.114.839.231,1.247.372a4.328,4.328,0,0,1,1.2.7,2.891,2.891,0,0,0,2.978,1.745,3.726,3.726,0,0,0,1.7-.567c.891.759,1.872,1.439,2.78,2.141q1.908,1.477,3.833,2.93,3.971,2.994,8.01,5.9,7.176,5.141,14.643,9.848c2.073,1.313,4.159,2.624,6.266,3.9l-.225.083-.446.169c-1.054.394-2.229,1.03-2.433,2.26a1.429,1.429,0,0,0,1.346,1.768,3.367,3.367,0,0,0,2.748-1.44c.315-.341.667-.657.968-1.008a2.18,2.18,0,0,0,.3-.481c2.079,1.226,4.181,2.41,6.316,3.518l.534.275c5.294,2.708,10.447,5.675,15.786,8.307a29.782,29.782,0,0,0,4.861,1.936A23.617,23.617,0,0,0,178-36.17c-.011,1.8,2.85,1.793,2.79,0l-.029-.866a21.981,21.981,0,0,0-.482-4.384A20.987,20.987,0,0,0,191.677-43a12.26,12.26,0,0,0,2.851-2.544,26.377,26.377,0,0,0,4-6.738,81.867,81.867,0,0,0,5.082-16.037,110.96,110.96,0,0,0-4.595-61.01,116.088,116.088,0,0,0-6.249-14.09l-.3-.562a65.979,65.979,0,0,0-8.412-12.8,41.951,41.951,0,0,0-12.557-9.492,67.186,67.186,0,0,0-7.089-3.094c-.389-.145-.78-.275-1.172-.4-2.522-1.608-5.583-3.147-8.645-3.087a.734.734,0,0,0-.5.2,4.112,4.112,0,0,0-.443.1.853.853,0,0,0-.624.82l.016.122a1,1,0,0,0,.038.174,1.827,1.827,0,0,0-.322.078c-2.93-.828-5.812-2.093-8.671-3.114l-.651-.23a20.84,20.84,0,0,1-6.815-3.323,17.448,17.448,0,0,1-4.486-6.107C130.822-186.984,130.236-190.073,129.162-193ZM70.508-42.629c-.58-.432-1.266.069-1.483.6A7.412,7.412,0,0,0,69.669-36a1.944,1.944,0,0,0,3.593-.974A7.364,7.364,0,0,0,70.508-42.629Zm-5.992-48.42a.24.24,0,0,0-.459,0,39.843,39.843,0,0,0-.614,6.383l-.016.234c-.17,2.326-.313,4.659-.415,6.99q-.3,6.878-.707,13.752-.2,3.408-.428,6.815a13.139,13.139,0,0,0-1.475-.7,5.77,5.77,0,0,0-2.321-.335,1.643,1.643,0,0,0-1.615,1.864,1.654,1.654,0,0,0,2.052,1.367c1.077-.169,2.158-.43,3.245-.538q-.182,2.634-.379,5.266c-.176,2.323-.405,4.643-.566,6.967q-.023.332-.049.666a10.4,10.4,0,0,0-2.117-.722l-.2-.057c-1.133-.325-2.344-.775-3.393-.013a1.32,1.32,0,0,0-.262,2.031c.885,1.025,2.195.826,3.417.774l.658-.024a7.728,7.728,0,0,0,1.765-.221,23.516,23.516,0,0,0,.025,4.525.738.738,0,0,0,1.442.2,32.665,32.665,0,0,0,1.154-6.719c.251-2.1.4-4.221.567-6.333l.05-.633q.554-6.97.88-13.952t.4-13.97c.023-2.116-.012-4.24-.094-6.355l-.026-.634A37.5,37.5,0,0,0,64.516-91.049Zm96.945,48.763c-.028-.3-.266-.667-.62-.621-.326.042-.663.022-.985.076a5.739,5.739,0,0,0-1.165.481c-.644.258-1.346.391-2.007.6a2.169,2.169,0,0,0-1.4,2.92,2.176,2.176,0,0,0,3.069,1.035,6.141,6.141,0,0,0,2.234-1.885l.176-.224a3.416,3.416,0,0,0,.684-1.121A3.627,3.627,0,0,0,161.462-42.286Zm-60.228-6.025a8.914,8.914,0,0,0-4.292.808l-.116.04c-1.454.5-3.576.85-4.321,2.339a1.625,1.625,0,0,0,.958,2.356c1.676.42,3.178-.8,4.564-1.63l.073-.043a9.339,9.339,0,0,0,3.572-2.794A.737.737,0,0,0,101.233-48.311Zm53.9-122.843c.619.139,1.237.261,1.855.379,2.351,1.26,4.632,2.568,7.059,3.691,2.575,1.191,5.141,2.422,7.587,3.864a40.611,40.611,0,0,1,12.382,11.34,97.553,97.553,0,0,1,13.235,26.644q1.193,3.615,2.137,7.305a11.23,11.23,0,0,0-3.909-2.205,1.544,1.544,0,0,0-1.723.7,1.333,1.333,0,0,0-.208.77,1.546,1.546,0,0,0,1.121,1.472,36.192,36.192,0,0,1,4.637,1.357.71.71,0,0,0,.588-.042,109.2,109.2,0,0,1,2.792,19.517,104.074,104.074,0,0,1-.508,16.737,7.87,7.87,0,0,0-1.456-.534c-.674-.157-1.336-.347-1.993-.563-1.9-.622-2.761,2.509-.823,2.986.721.178,1.447.325,2.182.433a5.693,5.693,0,0,0,1.811-.046c-.461,3.468-1.091,6.912-1.894,10.306l-.177.743a79.867,79.867,0,0,1-4.015,12.808A22.444,22.444,0,0,1,192.4-47.9a15.919,15.919,0,0,1-2.3,2.2,10.669,10.669,0,0,1-5.877,1.766,11.953,11.953,0,0,1-4.986-.754,60.711,60.711,0,0,1-8.09-3.877l-.272-.141q-1.743-.9-3.474-1.827a5.011,5.011,0,0,0-.723-3.254,1.314,1.314,0,0,0-2.428.613l0,.046a6.256,6.256,0,0,1-.12.823c-7.72-4.23-15.276-8.757-22.712-13.474q-7.185-4.558-14.2-9.389-3.5-2.415-6.94-4.92-1.8-1.313-3.584-2.648c-.5-.371-.981-.76-1.478-1.133q.181-.226.352-.451a20.257,20.257,0,0,0,3.655-8.307,32.983,32.983,0,0,0,.59-5.508l.023-.8a19.275,19.275,0,0,0-.2-4.057c.337.185.682.367,1.025.562q1.849,1.048,3.7,2.089c2.474,1.388,4.956,2.761,7.47,4.078,4.489,2.353,9.022,4.591,13.678,6.6l2.265.977a119.155,119.155,0,0,0,11.983,4.611c2.306.709,5.763,1.587,8.1,2.128q-2.819,2.657-.779,3.571c2.04.914,3.73-2.592,3.8-2.909q1.077.225,4.154.771A29.08,29.08,0,0,1,183.4-77.4c.908.5,1.162-.469.2-1.142a30.313,30.313,0,0,0-9.485-4.017l-.166-.046q-1.864-.511-3.721-1.063a5.243,5.243,0,0,0,.2-1.567c-.035-1.256-.146-2.516-.212-3.77q-.21-3.95-.528-7.887-.12-1.519-.273-3.043A11.592,11.592,0,0,1,171.392-101l.125-.036c.792-.213.524-1.234-.179-1.321a5.672,5.672,0,0,0-1.9.092c-.1.021-.189.045-.277.072q-.173-1.41-.389-2.809a44.792,44.792,0,0,0-1.457-7.423.23.23,0,0,0-.416-.054c-1.164,2.216-1.2,4.934-1.336,7.4l-.016.295c-.155,2.692-.163,5.411-.114,8.107q.077,4.167.271,8.325A26.18,26.18,0,0,0,165.945-85a155.473,155.473,0,0,1-20.26-8.144q-6.9-3.379-13.676-7.027c-2.26-1.218-4.531-2.416-6.788-3.639q-1.186-.643-2.371-1.289l-1.185-.646a7.228,7.228,0,0,0-3.326-1.25,1.261,1.261,0,0,0-.975.441,4,4,0,0,0-2.338-.788c-1.267-1.751-2.554-3.488-3.892-5.187l-.988-1.258a33,33,0,0,0-5.7-6.025,13.89,13.89,0,0,0-3.161-1.747,1.678,1.678,0,0,0,.749-.406c1.067-.989,1.214-2.827,1.43-4.208a12.879,12.879,0,0,0-.084-4.14.678.678,0,0,0-1.229-.161c-.472,1.074-.973,2.1-1.4,3.189l-.127.328c-.461,1.223-1.444,2.509-1.379,3.835a1.7,1.7,0,0,0,.327.935c-.937-.311-1.888-.589-2.825-.879-2.947-.911-5.9-1.8-8.908-2.5q-1.2-.282-2.41-.523a40.768,40.768,0,0,0-1.765-5.913,8.868,8.868,0,0,0,1.725-1.469,14.44,14.44,0,0,0,1.408-1.656.838.838,0,0,0-.585-1.413l-.219.009a5.429,5.429,0,0,0-2.3.494l-.259.134a8.817,8.817,0,0,0-1.09.645c-.452-1.042-.923-2.073-1.4-3.094l-.617-1.32a92.822,92.822,0,0,0-5.2-10.2,4.744,4.744,0,0,0-3.787-2.448,46.619,46.619,0,0,0-5.342.1q-3.059.11-6.115.267c.522-.547,1-1.156,1.523-1.681A31.508,31.508,0,0,1,64.15-156.1a34.4,34.4,0,0,1,6.2-3.825,62.116,62.116,0,0,0,6.487-3.33,18.692,18.692,0,0,0,3.517-3.032,30.343,30.343,0,0,0,9.354,18.9c5.418,5.214,12.9,8.079,20.228,9.3a44.451,44.451,0,0,0,22.413-1.811,39.415,39.415,0,0,0,10.37-5.653,2.681,2.681,0,0,0,.158.609,4.117,4.117,0,0,0,.4.712l.275.4c.173.253.35.5.547.738a2.359,2.359,0,0,0,1.878.813,2.171,2.171,0,0,0,2.071-2.72,2.432,2.432,0,0,0-1.525-1.691c-.248-.105-.5-.193-.757-.28l-.191-.065a5.5,5.5,0,0,0-.778-.221,34.734,34.734,0,0,0,4.117-4.3c3.889-4.849,7.725-11.641,6.424-18.081a.267.267,0,0,0-.229-.2,2.083,2.083,0,0,0-.645-1.183A5.684,5.684,0,0,1,155.135-171.154ZM114.753-59.809a.779.779,0,0,0-.94,1.219l.935.935a25.992,25.992,0,0,1,2.454,2.747l.18.243c1,1.364,2.071,2.944,3.713,3.454a2.455,2.455,0,0,0,2.745-3.571c-1-1.545-2.939-2.128-4.607-2.767A35.106,35.106,0,0,1,114.753-59.809Zm64.068-7.129c-.452-.593-1.632-.281-1.323.558,1,2.723,1.413,6.436,3.949,8.245a2.3,2.3,0,0,0,2.777-.358,2.38,2.38,0,0,0,.358-2.778c-.534-1.139-1.847-1.965-2.767-2.833l-.083-.079A26.018,26.018,0,0,1,178.821-66.939ZM72.838-63.8c-.808-.348-2.913-1.025-3.536-.224a.462.462,0,0,0-.074.1.893.893,0,0,0,0,.905,10.373,10.373,0,0,0,2.518,2.686l.116.086a11.308,11.308,0,0,0,3.553,2.173,1.961,1.961,0,0,0,1.893-3.253,12.582,12.582,0,0,0-4.141-2.325Zm76.308-15.56a.678.678,0,0,0-.92-.92,23.314,23.314,0,0,1-5.517,2.348,1.92,1.92,0,0,0-1.394,1.832l.009.126a1.5,1.5,0,0,0,.25.833,1.97,1.97,0,0,0,2.6.681A11.328,11.328,0,0,0,149.147-79.364ZM100.108-81.1a.315.315,0,0,0-.381-.382,11.265,11.265,0,0,0-3.945,1.741c-.653.422-1.283.886-1.934,1.313A2.288,2.288,0,0,0,92.622-76.5a1.468,1.468,0,0,0,1.063,1.4c1.488.48,3.193-1.1,4.2-2.119l.045-.046A7.351,7.351,0,0,0,100.108-81.1ZM57.522-82.776c.323-.873-.791-1.6-1.519-1.168-.686.4-1.43.738-2.077,1.2-.595.425-1.137.929-1.707,1.39l-.282.223c-1.046.841-2.772,2.921-1.277,4.127,1.423,1.148,3.31-.318,4.265-1.39l.067-.076a12.518,12.518,0,0,0,1.626-2.067A17.8,17.8,0,0,0,57.522-82.776Zm14.034-67.59c1.782.346,2.509,2.547,3.259,3.981,1.771,3.386,3.4,6.833,5.036,10.285.5,1.062.994,2.132,1.489,3.2a1.657,1.657,0,0,0,.115.247c1.014,2.183,2.058,4.353,3.278,6.425-1.117-.209-2.239-.388-3.366-.528a9.366,9.366,0,0,0-1.029-3.375l-.03-.075c-.448-1.145-.918-2.949-2.071-3.543a.556.556,0,0,0-.825.473c-.087,1.26,1.145,2.7,1.747,3.772q.546.971,1.065,1.954c.13.246.238.488.371.7-.581-.063-1.163-.119-1.746-.16l-.38-.026c-2.163-.143-4.459-.183-6.413.883a3.741,3.741,0,0,0-1.744,5.025c1.241,2.4,3.973,2.714,6.375,2.908,3,.242,6.009.679,8.988,1.106,3.082.441,5.984,1.578,9.02,2.162a.26.26,0,0,0,.2-.473,35.018,35.018,0,0,0-7.984-3.078l-.217-.066a34.435,34.435,0,0,0-4.374-1.209q-2.188-.368-4.4-.6l-.143-.013c-1.62-.136-5.752-.089-5.577-2.488.116-1.588,2.7-1.862,3.873-1.881,5.4-.087,10.838,1.347,15.969,2.883l1.146.344c2.1.633,4.205,1.283,6.267,2.025a14.8,14.8,0,0,1,5.879,3.943c1.887,1.988,3.714,4.021,5.672,5.941q1.851,1.816,3.744,3.58a3.886,3.886,0,0,1,.67,1.29,6.2,6.2,0,0,1,.1,2.6c-.254,2.28-.31,4.583-.628,6.856a23.188,23.188,0,0,1-1.581,6.241,11.543,11.543,0,0,1-1.309,2.212l-.414.538c-.18.234-.382.49-.594.73a1.432,1.432,0,0,0-1.284-.565,8.243,8.243,0,0,1-3.076-.156c-.844-.2-1.682-.429-2.522-.643-1.65-.421-3.315-.8-4.949-1.288l-.281-.085a10.61,10.61,0,0,1-3.448-1.627c-1.177-.913-1.539-2.231-2.411-3.371-1.862-2.433-5.884-2.382-8.608-3.049a12.3,12.3,0,0,1-6.144-3.14l-.093-.1a.718.718,0,0,0-.323-.794l-.061-.034a.663.663,0,0,0-.34-.083,7.975,7.975,0,0,1-.423-.684c-.107-.2-.375-.052-.34.143.021.117.05.231.078.345a19.566,19.566,0,0,0-4.831-.322L69.9-101.03a8.634,8.634,0,0,1-.928-.043l-.048-.021c-.128-.055.053.036-.036-.082s-.194-.262-.289-.4c-.339-.474-.659-.963-.974-1.456a88.538,88.538,0,0,0,10.466,1.868,89.055,89.055,0,0,0,11.335.827.807.807,0,0,0,0-1.614c-4.007-.153-7.993-.365-11.973-.879q-3.087-.4-6.146-.99-1.18-.225-2.355-.479l-.587-.128a6.242,6.242,0,0,1-1.916-.539q-.15-.257-.3-.514c.048-.6,1.577-.521,1.935-.522,1.016,0,2.032.006,3.048.009,2.032.006,4.064-.012,6.1-.028,4.06-.033,8.136-.175,12.193,0,.985.042,1.5-1.538.529-1.954-4.3-1.835-9.067-2.234-13.656-2.8a57.487,57.487,0,0,1-7.186-1.239l-.583-.148a12.935,12.935,0,0,1-4.366-1.749c1.875-.759,4.207-.672,6.151-.779l.149-.009q4.083-.251,8.177-.257c5.58-.008,11.162.19,16.737.455a.125.125,0,0,0,.033-.244,88.044,88.044,0,0,0-17.415-1.946q-4.1-.065-8.191.116l-1,.046c-2.326.1-4.907.127-6.854,1.533a1.069,1.069,0,0,0-.478.777c-2.61-5.2-5.021-10.519-7.441-15.8-1.882-4.1-3.693-8.243-5.643-12.315l-.631-1.317c-.845-1.758-1.712-3.516-2.673-5.21,3.6-.481,7.213-.815,10.831-1.07C59.21-150.158,69.968-150.675,71.556-150.367Zm1.593,56.411a.783.783,0,0,0-1.139.464,6.343,6.343,0,0,0-.2,1.18,7.8,7.8,0,0,0,.253,1.415,8.616,8.616,0,0,0,.979,2.808,1.927,1.927,0,0,0,1.667.957A1.766,1.766,0,0,0,76.07-87.7a1.938,1.938,0,0,0,.5-1.88A8.118,8.118,0,0,0,73.148-93.956Zm86.989-1.733a6.187,6.187,0,0,0-5.22-3.036,2.659,2.659,0,0,0-.7,5.2,7.338,7.338,0,0,0,5.607-.958A.9.9,0,0,0,160.137-95.689Zm30.635-5.745c.218-.317-.142-.679-.467-.608-.72.158-1.5.227-2.2.442-.723.22-1.422.584-2.138.835-1.5.525-3.1.789-4.552,1.423a1.914,1.914,0,0,0-.983,1.713l.014.145a1.911,1.911,0,0,0,.257.857,2.03,2.03,0,0,0,2.24.912,16.447,16.447,0,0,0,4.533-2.455l.252-.168a9.771,9.771,0,0,0,1.719-1.311A14.427,14.427,0,0,0,190.772-101.433Zm-55.066-6.116a.677.677,0,0,0-1.123-.654c-.962.9-1.969,1.729-2.911,2.648l-.063.063c-.675.678-1.657,1.986-.779,2.864,1.125,1.125,2.691-.544,3.294-1.414A11.088,11.088,0,0,0,135.706-107.549Zm-73.644-5.493c1.428,1.513,3.627,2.208,5.564,2.784a48.441,48.441,0,0,0,7.03,1.426c2.289.324,4.559.614,6.811.986-1.7.021-3.407.034-5.107.064q-2.94.053-5.879.135c-1.427.041-3.1-.154-4.458.376a2.545,2.545,0,0,0-.672.389Q63.643-109.923,62.063-113.042Zm88.058-14.146a10.967,10.967,0,0,0-4.471-.939.576.576,0,0,0-.491.856,10.064,10.064,0,0,0,3.164,2.943l.106.078a38.744,38.744,0,0,0,4.146,2.666c2.456,1.379,4.656-2.567,2.176-3.725A39.245,39.245,0,0,0,150.121-127.187Zm-26.827-3.425c-2.28.15-4.558.252-6.84.344-2.644.107-1.755,4.177.454,3.353,2.182-.814,4.364-1.618,6.566-2.377.67-.231.616-1.332-.136-1.323Zm58.47-7.241a10.793,10.793,0,0,0-1.778.145l-.63.061a12.278,12.278,0,0,0-3.753.817c-2.284.975-1.057,4.648,1.235,4.564a9.658,9.658,0,0,0,4.575-1.638,9.332,9.332,0,0,0,2.863-2.831c.28-.385-.11-.817-.491-.856C183.113-137.661,182.435-137.807,181.763-137.854Zm-114.483-7.5a14.945,14.945,0,0,0,2.729,6.5,1.567,1.567,0,0,0,2.662,0c1-1.42.382-3.048-.368-4.412l-.222-.4a10.361,10.361,0,0,0-1.442-2.076l-.01-.062A1.7,1.7,0,1,0,67.28-145.354Zm92.2-15.14a1.088,1.088,0,0,0-1.8.475,10.615,10.615,0,0,0-.246,3.667,8.035,8.035,0,0,0,.378,1.961,5.3,5.3,0,0,0,1.285,1.622c.982.966,3.051.646,3.314-.875l.033-.187a5.015,5.015,0,0,0,.106-2.2,7.923,7.923,0,0,0-.752-1.587l-.058-.106A10.781,10.781,0,0,0,159.485-160.494ZM79.6-158.011l-.206,0c-1.586.031-4.486.418-4.5,2.379a1.1,1.1,0,0,0,.8,1.047c.948.22,1.561-.341,2.237-.907a6.874,6.874,0,0,1,1.866-1.1A.728.728,0,0,0,79.6-158.011Z" transform="translate(-41.197 193.174)"/></clipPath><clipPath id="e"><path class="b" d="M2596.43,1516.128H-1566V-1082H2596.43Z" transform="translate(1566 1082)"/></clipPath><clipPath id="f"><path class="a" d="M137.218-268.481c-33.369-1.645-48.426,21.908-49.4,32.428-.676,7.3,3.628,15.72,3.628,22.245,0,3.331-4.068,10.482-2.174,15.336,4.215,10.806,13.14,22.8,24.513,22.8s26.175,3.153,38.742-14.885c1.179-1.693,16.093-11.312,17.542-20.453C173.677-233.781,161.028-267.307,137.218-268.481Z" transform="translate(-87.745 268.563)"/></clipPath><clipPath id="h"><path class="a" d="M134.282-282.444a6.223,6.223,0,0,0-5-1.81c-2.6.155-4.861,1.763-7.448,1.883-2.712.126-5.33-.817-8.049-.38A7.118,7.118,0,0,0,109.4-280.4a9.49,9.49,0,0,0-10.07,3.414,6.524,6.524,0,0,0-6.957,4.284,8.03,8.03,0,0,0-7.589,6.818,5.92,5.92,0,0,0-3.542,2.759,8.406,8.406,0,0,0-.9,5.116,5.934,5.934,0,0,0-2.851,4.822,5.566,5.566,0,0,0-1.953,5.337,4.278,4.278,0,0,0-1.836,3.71c.007,1.331.359,2.51-.137,3.794a5.467,5.467,0,0,0-.357,3.3l.025.117c.043.2.079.383.111.567a3.481,3.481,0,0,0-.815,1.073,6.12,6.12,0,0,0-.067,4.86,4.89,4.89,0,0,0,.154,3,5.443,5.443,0,0,0-.965,3.556,5.8,5.8,0,0,0,1.782,3.7,6.64,6.64,0,0,0,1.986,5.508,5.244,5.244,0,0,0,.618,3.548,4.882,4.882,0,0,0,1.8,1.811,5.832,5.832,0,0,0,.285,2.013,6.447,6.447,0,0,0,1.5,2.5,5.572,5.572,0,0,0,3.873,6.2,2.761,2.761,0,0,0,.657.094,28.408,28.408,0,0,0,1.779,7.295,28.939,28.939,0,0,0,12.089,14.4,24.9,24.9,0,0,0,8.934,3.163,26.89,26.89,0,0,0,6.686.024,53.974,53.974,0,0,0,8.454-1.443l.444-.118a12.42,12.42,0,0,0,3.343-1.281,4.386,4.386,0,0,0,1.942-3.019,1.177,1.177,0,0,0-1.065-1.468H126.7c-.167,0-.333,0-.5-.013l-.126-.009h-.006a.076.076,0,0,0-.022,0c-.075-.011-.147-.033-.22-.044a4.7,4.7,0,0,0-2.367.262l-.1.034a39.19,39.19,0,0,1-4.022,1.2c-1.42.324-2.858.583-4.3.786l-.143.018-.044.007-.022,0h0a.028.028,0,0,0-.013,0l-.425.053h0c-.335.04-.669.075-1,.11q-.925.093-1.849.146c-10.64.6-19.576-7.8-22.273-17.866a31.847,31.847,0,0,1-.753-10.916,2.6,2.6,0,0,0,.145-.881c0-.168-.009-.333-.02-.5.359-3.518.982-7.038,1.372-10.57a94.147,94.147,0,0,0,.616-12.426,52.165,52.165,0,0,0-.55-6.111l-.1-.729h0a7.086,7.086,0,0,0,3.453-1.758,6.73,6.73,0,0,0,6.818.039,7.68,7.68,0,0,0,7.824.163,6.144,6.144,0,0,0,4.892,1.053,5.672,5.672,0,0,0,2.215-1.052,6.312,6.312,0,0,0,1.429.091l.1.055h0a7.173,7.173,0,0,0,3.568.92,8.42,8.42,0,0,0,2.767-.562,7.847,7.847,0,0,0,3.085,1.1,6.928,6.928,0,0,0,4.7-1.073,9.86,9.86,0,0,0,8.124.676,7.486,7.486,0,0,0,2.173,2.328,4.88,4.88,0,0,0-.154,1.748,7.078,7.078,0,0,0,.718,2.579,4.627,4.627,0,0,0-.3,2.969,7.343,7.343,0,0,0,2.337,3.842,7.218,7.218,0,0,0,3.56,5.918,3,3,0,0,0,.324.162,1.594,1.594,0,0,0,.337.34c1.363,1.262,3.519,1.162,5.227.449.033,0,.066,0,.1.005a1.424,1.424,0,0,0,1.273-.574,5.729,5.729,0,0,1,.744.086,10.32,10.32,0,0,1,2.724.921,6.523,6.523,0,0,1,3.412,5.376,7.694,7.694,0,0,1-2.376,6.866,7.076,7.076,0,0,1-3.419,1.585c-1.372.245-2.838-.358-3.851.823a.908.908,0,0,0-.231.876,2.011,2.011,0,0,0,1.794,1.5,50.685,50.685,0,0,1-4.044,4.357,64.714,64.714,0,0,0-4.615,4.549,23.221,23.221,0,0,0-3.793,5.657c-.537,1.205-.969,2.448-1.433,3.681l-.083.215c-.518,1.311-1.207,2.574-.41,3.943a1.921,1.921,0,0,0,1.7.973c1.86-.238,2.483-1.5,3.056-3.141.432-1.24.762-2.516,1.226-3.745.087-.228.182-.453.281-.677a4.017,4.017,0,0,0,3.209-.551,7.755,7.755,0,0,0,3.25.662,7.5,7.5,0,0,0,3.955-1.17c.092-.024.184-.048.275-.074a5.852,5.852,0,0,0,5.387-.537,5.7,5.7,0,0,0,2.127-2.7,5.212,5.212,0,0,0,3.589-1.44,5.393,5.393,0,0,0,1.534-3.145,5.489,5.489,0,0,0,3.052-1.712,5.272,5.272,0,0,0,1.271-2.8,5.481,5.481,0,0,0,3.329-2.577,4.9,4.9,0,0,0,.418-3.629l.081-.117h0a4.519,4.519,0,0,0,2.638-3.739,4.369,4.369,0,0,0-.157-1.475,4.433,4.433,0,0,0-.121-1.571,6.839,6.839,0,0,0,1.578-7.389,6.659,6.659,0,0,0,1-7.652,6.008,6.008,0,0,0,1.352-4.174,10.373,10.373,0,0,0-2.061-5.233,4.8,4.8,0,0,0,1.184-3.286,6.853,6.853,0,0,0-2.091-4.414,7.506,7.506,0,0,0-2.554-8.206,4.22,4.22,0,0,0,.515-2.845,6.146,6.146,0,0,0-3.06-3.964,4.2,4.2,0,0,0-.258-3.063,7.091,7.091,0,0,0-3.111-2.946c-.326-3.01-3.681-5.582-6.495-4.028.7-2.24-1.312-4.659-3.624-4.915a7.412,7.412,0,0,0-8.544-4.752,6.967,6.967,0,0,0-7.97-2.351A11.227,11.227,0,0,0,134.282-282.444Zm22.207,67.516c-2.19-.119-3.833,1.673-4.987,3.313-1.083,1.538,1.7,3.163,2.506,1.468a8.477,8.477,0,0,1,1.063-1.774c.074.1.14.212.205.323l.066.112c.048.082.1.166.141.252a2.275,2.275,0,0,0,.064.227,1.694,1.694,0,0,0,1.112,1.093,1.3,1.3,0,0,0,1.572-.894c.354-.98-.469-1.834-1.325-2.223a2.523,2.523,0,0,1,2.276.8.135.135,0,0,0,.229-.095C159.481-213.866,157.876-214.853,156.489-214.928Z" transform="translate(-71.634 284.266)"/></clipPath><clipPath id="j"><path class="a" d="M137.2-194.156a8.976,8.976,0,0,0,5.026.027,9.015,9.015,0,0,0,4.151-2.7,6.041,6.041,0,0,0,1.594-4.008.654.654,0,0,0-.156-.42.731.731,0,0,0-.39-.234.715.715,0,0,0-.455.04.6.6,0,0,0-.3.3c-.17.223-.339.443-.509.657-1.367,1.688-2.69,2.95-4.745,3.4a5.777,5.777,0,0,1-3.25-.238,6.961,6.961,0,0,1-2.857-2.008,1.526,1.526,0,0,0-1.168-.577,1.792,1.792,0,0,0-1.252.55,1.935,1.935,0,0,0-.58,1.265,1.684,1.684,0,0,0,.48,1.242A9.769,9.769,0,0,0,137.2-194.156Zm.05-21.142c-1.666,1.013-4.2,3.375-2.412,5.887,2.11,2.214,5.147-.325,6.644-1.473,1.388-.89,2.947,1.4,1.66,2.438-10.816,8.011-15.2-6.587-6.734-8.043C137.341-216.65,137.688-215.612,137.251-215.3Zm15.584-4.458a1.858,1.858,0,0,1,1.863-.142,6.071,6.071,0,0,1,2.168,2.163,4.292,4.292,0,0,1,.711,2.526.571.571,0,0,0,.185.482.721.721,0,0,0,.4.179,1.046,1.046,0,0,0,.424-.038.631.631,0,0,0,.419-.361,5.264,5.264,0,0,0-.257-3.868,7.881,7.881,0,0,0-2.825-3.547,4.722,4.722,0,0,0-4.567-.021,8.419,8.419,0,0,0-2.75,2.874c-.162.236-.322.47-.488.7a1.412,1.412,0,0,0-.237,1.311,1.693,1.693,0,0,0,.962.993,1.733,1.733,0,0,0,1.34.02,1.7,1.7,0,0,0,.912-.963,5.1,5.1,0,0,1,1.738-2.307Zm-27.195,1.908a1.264,1.264,0,0,0,1.06.127,1.507,1.507,0,0,0,.621-.371,1.239,1.239,0,0,0,.345-.625,2.562,2.562,0,0,1,.9-1.5,1.8,1.8,0,0,1,1.434-.377,2.75,2.75,0,0,1,1.543.925,3.483,3.483,0,0,1,.334.489,3.457,3.457,0,0,0,.641.841.624.624,0,0,0,.4.149.6.6,0,0,0,.177-.028,1.853,1.853,0,0,0,.683-1.484,2.712,2.712,0,0,0-.5-1.379,5.455,5.455,0,0,0-2.912-2.072,4.334,4.334,0,0,0-3.41.736,4.834,4.834,0,0,0-1.975,3.023,1.613,1.613,0,0,0,.081.893A1.247,1.247,0,0,0,125.641-217.848Zm24.5-12.925a3.833,3.833,0,0,0,2.48.924,11.678,11.678,0,0,1,1.261.186,11.867,11.867,0,0,1,3.046,1.112,11.284,11.284,0,0,1,2.855,2.024c.185.2.36.407.535.615.159.19.313.373.475.55.186.2.362.415.538.627a2.7,2.7,0,0,1,.152.269c.033.069.071.146.115.228.06.113.13.237.2.349.122.205.188.262.244.287a.5.5,0,0,0,.27.051.452.452,0,0,0,.233-.113,1.713,1.713,0,0,0,.476-1.4,6.018,6.018,0,0,0-.613-2.346,12.668,12.668,0,0,0-2.7-3.707,13.119,13.119,0,0,0-4.24-2.584,8.605,8.605,0,0,0-3.209-.662,3.174,3.174,0,0,0-2.126.837,1.853,1.853,0,0,0-.555,1.358A1.94,1.94,0,0,0,150.14-230.773Zm-25.991,6.547a.4.4,0,0,0,.183.161.423.423,0,0,0,.24.029.427.427,0,0,0,.217-.106.406.406,0,0,0,.122-.211,6.439,6.439,0,0,1,3.451-4.759,14.57,14.57,0,0,1,3.215-1.082c.314-.074.646-.123.98-.171a4.045,4.045,0,0,0,2.785-1.175,2.258,2.258,0,0,0,.487-1.759,1.871,1.871,0,0,0-1.017-1.386c-1.485-.768-3.331-.014-4.831.628l-.327.14a11.233,11.233,0,0,0-3.9,2.606,8.466,8.466,0,0,0-2.007,3.71A4.462,4.462,0,0,0,124.149-224.226Z" transform="translate(-123.592 235.009)"/></clipPath></defs><g class="f" transform="translate(0 95.124)"><g class="g" transform="translate(-2319.353 -928.169)"><path class="h" d="M211.382-198.174H36.2v170.6H211.382Z" transform="translate(2277.934 1121.121)"/></g></g><g class="j" transform="translate(21.601 0)"><g class="g" transform="translate(-2340.953 -833.044)"><path class="h" d="M188.434-289.266H66.634v121.3h121.8Z" transform="translate(2269.098 1117.089)"/></g></g><g class="k" transform="translate(39.27 51.438)"><g class="g" transform="translate(-2358.622 -884.482)"><path class="h" d="M168.465-240.009H118.592v51.668h49.874Z" transform="translate(2234.809 1119.27)"/></g></g></svg>