<svg width="282" height="150" viewBox="0 0 282 150" fill="none" xmlns="http://www.w3.org/2000/svg">
<rect width="282" height="150" fill="white"/>
<path d="M59.533 8H24V20.9231H59.533V8Z" fill="white"/>
<path d="M35.4771 19.3642C35.4814 19.3642 35.4856 19.358 35.4856 19.358C35.5197 19.3328 35.5537 19.3014 35.5835 19.2637C35.5793 19.2637 35.575 19.2637 35.5708 19.2573C35.5409 19.2888 35.5069 19.3265 35.4771 19.3642Z" fill="#000091"/>
<path d="M40.2297 17.7632L40.1552 17.8273C40.1978 17.8166 40.2297 17.8059 40.2297 17.7632Z" fill="#000091"/>
<path fill-rule="evenodd" clip-rule="evenodd" d="M38.6935 19.3995C38.8312 19.261 38.9689 19.1141 39.1066 18.963H39.1024C39.361 18.6692 39.6114 18.388 39.9117 18.132C40.0035 18.048 40.0911 17.9767 40.1745 17.9179C40.1868 17.9056 40.1931 17.8872 40.1992 17.8692C40.2056 17.8504 40.2119 17.8321 40.2246 17.8213C40.1652 17.8441 40.1178 17.88 40.0701 17.9161C40.0208 17.9534 39.9712 17.991 39.9076 18.0144C39.8825 18.0144 39.8575 17.9893 39.8825 17.9641C39.9701 17.9011 40.0577 17.8339 40.1412 17.7668H40.1245C40.0995 17.7668 40.0995 17.7416 40.0995 17.7165C39.7889 17.6671 39.5504 17.8796 39.3368 18.0697L39.3235 18.0816C39.2902 18.0983 39.2588 18.0817 39.2341 18.0687C39.2217 18.0621 39.211 18.0564 39.2025 18.0564C39.0136 18.1197 38.8507 18.2366 38.6867 18.3542C38.5356 18.4625 38.3836 18.5714 38.2096 18.6398V18.5894C38.1505 18.6098 38.0921 18.6364 38.0335 18.663C37.9474 18.7022 37.861 18.7415 37.7715 18.7616C37.6083 18.7994 37.4568 18.7946 37.31 18.7898C37.2618 18.7882 37.2141 18.7867 37.1666 18.7867C36.8994 18.8132 36.6356 18.8704 36.3721 18.9276L36.2863 18.9462C36.2821 18.9483 36.278 18.9493 36.2738 18.9504C36.2697 18.9515 36.2655 18.9525 36.2613 18.9546C36.1028 18.9966 35.9568 19.0554 35.8107 19.1393L35.794 19.1477C35.7883 19.1554 35.7826 19.1622 35.7772 19.1685C35.7709 19.176 35.7652 19.1829 35.7606 19.1896C35.7106 19.2484 35.6647 19.2988 35.5938 19.3366C35.489 19.3892 35.3985 19.4705 35.3094 19.5505C35.2709 19.5851 35.2324 19.6197 35.1933 19.6513C35.1849 19.6597 35.1683 19.6639 35.1557 19.6639C35.0264 19.7899 34.8971 19.9158 34.7636 20.0375C34.7552 20.0459 34.7177 20.0501 34.6885 20.0459C34.6885 20.0459 34.6926 20.0459 34.6926 20.0417L34.7052 20.0165L34.7678 19.9158C34.7803 19.8969 34.7918 19.878 34.8032 19.8591C34.8147 19.8402 34.8262 19.8213 34.8387 19.8025C34.872 19.7521 34.9055 19.7017 34.943 19.6555C34.9513 19.6429 34.9513 19.6304 34.943 19.622C34.9347 19.6136 34.9221 19.6094 34.9096 19.6094C35.0306 19.4918 35.1724 19.3911 35.3184 19.303V19.2988C35.3017 19.303 35.2767 19.2904 35.2892 19.2736C35.3015 19.2582 35.3115 19.2406 35.3209 19.2239L35.3309 19.2064C35.333 19.2022 35.3341 19.1991 35.3351 19.196C35.3362 19.1928 35.3372 19.1896 35.3393 19.1854C35.3372 19.1812 35.3341 19.1781 35.3309 19.175C35.3278 19.1718 35.3247 19.1686 35.3226 19.1644L35.2973 19.1812C35.2671 19.2009 35.236 19.2213 35.21 19.2442C35.1915 19.2601 35.1743 19.2818 35.1568 19.3041C35.1185 19.3525 35.078 19.4037 35.0181 19.4037C35.0139 19.4037 34.9931 19.4037 34.9805 19.3995C34.968 19.3995 34.9597 19.3953 34.9555 19.3911C34.9555 19.389 34.9555 19.3879 34.956 19.3874C34.9566 19.3869 34.9576 19.3869 34.9597 19.3869C34.9597 19.3869 34.9639 19.3827 34.9639 19.3785C34.9639 19.3785 34.9639 19.3743 34.968 19.3743C34.9701 19.3701 34.9722 19.367 34.9743 19.3638C34.9763 19.3607 34.9785 19.3575 34.9805 19.3533C34.9826 19.3491 34.9847 19.346 34.9868 19.3428C34.9889 19.3397 34.9909 19.3366 34.9931 19.3324C34.9951 19.3302 34.9962 19.3271 34.9972 19.324C34.9982 19.3208 34.9993 19.3176 35.0014 19.3156L35.0061 19.3069C35.0102 19.2996 35.0152 19.2908 35.0181 19.282C35.0201 19.2778 35.0223 19.2747 35.0243 19.2715C35.0264 19.2683 35.0285 19.2652 35.0306 19.261C35.0369 19.2526 35.042 19.2431 35.0473 19.2337C35.0525 19.2243 35.0577 19.2148 35.0639 19.2064C35.0681 19.198 35.0723 19.1896 35.0807 19.1812C35.0848 19.1728 35.089 19.1655 35.0931 19.1582C35.0973 19.1508 35.1015 19.1435 35.1057 19.1351C35.1182 19.1141 35.1057 19.0973 35.089 19.0931C35.1349 19.0344 35.1891 18.984 35.2559 18.9462H35.2475C35.3051 18.9172 35.3643 18.8833 35.4232 18.8496C35.4579 18.8297 35.493 18.8096 35.527 18.7909C35.5396 18.7783 35.5521 18.7658 35.5688 18.7574C35.4311 18.8035 35.3059 18.8665 35.1849 18.9504C35.1849 18.9504 35.1515 18.963 35.1432 18.9714C35.1432 18.9714 35.1182 18.9798 35.0848 18.9504C35.0807 18.9462 35.0807 18.942 35.0807 18.9336C35.0951 18.9044 35.1251 18.8851 35.1574 18.8642C35.1809 18.8491 35.2056 18.8331 35.2267 18.8119C35.2517 18.8119 35.2725 18.8119 35.2725 18.8371C35.753 18.4603 36.3455 18.3731 36.9399 18.2856C37.3055 18.2318 37.6719 18.1779 38.0135 18.0564C38.049 18.0312 38.0855 18.0071 38.122 17.9829C38.1585 17.9588 38.195 17.9347 38.2304 17.9095C38.2913 17.8841 38.3458 17.8408 38.4036 17.7949C38.4606 17.7494 38.5208 17.7015 38.5934 17.6661C38.7853 17.5192 38.9313 17.3513 39.0064 17.1037C39.0064 17.0785 38.9814 17.0533 38.9814 17.0533C38.6643 17.3933 38.3014 17.6619 37.9134 17.8591C37.5434 18.0544 37.147 18.0834 36.7546 18.112C36.6072 18.1227 36.4603 18.1334 36.3155 18.153C36.3405 18.1026 36.3906 18.1026 36.4365 18.1026C36.4365 18.043 36.4651 18.0173 36.5017 17.9844C36.5115 17.9756 36.5219 17.9663 36.5325 17.9557H36.6034C36.6159 17.9557 36.6222 17.9431 36.6284 17.9305C36.6347 17.9179 36.641 17.9053 36.6535 17.9053C36.7036 17.9053 36.7744 17.8801 36.7494 17.8801C36.7112 17.8309 36.6556 17.8504 36.5942 17.8719C36.5352 17.8926 36.4708 17.9151 36.4115 17.8801C36.4336 17.8559 36.4402 17.8268 36.4462 17.8004C36.4528 17.7718 36.4586 17.7463 36.4824 17.7332H36.5783C36.5783 17.6829 36.6284 17.6367 36.6284 17.6367C36.846 17.5058 37.0561 17.3916 37.2623 17.2795C37.4 17.2046 37.5361 17.1306 37.6714 17.0533C37.644 17.0533 37.6198 17.0646 37.5962 17.0755C37.5587 17.0929 37.5231 17.1094 37.4795 17.0785C37.5045 17.0785 37.5045 17.0606 37.5045 17.0428C37.5045 17.025 37.5045 17.0071 37.5296 17.0071C37.6861 16.9653 37.8254 16.8975 37.9677 16.8283C38.0681 16.7794 38.17 16.7298 38.2805 16.6881C38.2477 16.6881 38.2174 16.697 38.1878 16.7056C38.1308 16.7221 38.0767 16.7379 38.0135 16.6881C38.0301 16.6798 38.0435 16.6692 38.0567 16.6587C38.0833 16.6375 38.1093 16.6168 38.1595 16.6168V16.5454C38.1595 16.5202 38.1846 16.5202 38.2096 16.5202C38.1846 16.5202 38.1595 16.495 38.1595 16.495C38.1728 16.4684 38.1989 16.4629 38.228 16.4568C38.2538 16.4514 38.282 16.4454 38.3056 16.4237C38.2805 16.4237 38.2346 16.4237 38.2346 16.3985C38.3056 16.302 38.4265 16.2768 38.5475 16.2516C38.535 16.2264 38.511 16.2264 38.4902 16.2264C38.4693 16.2264 38.4516 16.2264 38.4516 16.2012C38.4516 16.1761 38.4766 16.1761 38.5017 16.1761H38.4516C38.4123 16.1563 38.4192 16.1211 38.4241 16.0966C38.4254 16.0899 38.4265 16.0841 38.4265 16.0796C38.5245 15.964 38.5568 15.8278 38.5888 15.6922C38.6045 15.6258 38.6201 15.5596 38.6435 15.4962C38.6185 15.4962 38.5934 15.4962 38.5934 15.471C38.3588 15.7314 37.987 15.83 37.6338 15.9238L37.6005 15.9326H37.4795C37.3585 15.983 37.1874 15.983 37.0665 15.9074C37.0089 15.8773 36.9679 15.8395 36.9236 15.7988C36.894 15.7716 36.8629 15.743 36.8245 15.7144C36.6284 15.5927 36.4365 15.4962 36.2196 15.4206C35.6146 15.2276 34.9847 15.1268 34.3548 15.152C34.5306 15.0552 34.7175 15.0167 34.9067 14.9777C35.0048 14.9575 35.1034 14.9372 35.2016 14.9085C35.2636 14.8903 35.3249 14.8715 35.386 14.8527C35.732 14.7466 36.0677 14.6437 36.4365 14.6651C36.3883 14.648 36.3265 14.6542 36.2695 14.6598C36.2429 14.6626 36.2172 14.6651 36.1945 14.6651C35.9157 14.6443 35.634 14.7064 35.3401 14.7712C35.2778 14.7849 35.215 14.7988 35.1515 14.812C35.0365 14.836 34.927 14.8704 34.8174 14.9049C34.6966 14.9428 34.5756 14.9809 34.4465 15.0051C34.3906 15.0244 34.3456 15.0572 34.3018 15.0893C34.2314 15.1408 34.164 15.1901 34.0585 15.1772V15.1016C34.3005 14.8078 34.5925 14.5182 34.9805 14.493C35.3556 14.4319 35.7092 14.4754 36.0781 14.5209C36.1401 14.5285 36.2025 14.5362 36.2655 14.5434C36.5679 14.5677 36.8508 14.6352 37.1557 14.7079L37.1874 14.7155C37.2543 14.7155 37.2918 14.7742 37.3281 14.8311C37.3577 14.8774 37.3864 14.9224 37.4295 14.9337C37.4888 14.9542 37.5482 14.958 37.6076 14.9619C37.6943 14.9674 37.7808 14.973 37.8675 15.0303C37.8675 15.0133 37.8646 14.9968 37.8619 14.9805C37.8563 14.9484 37.8509 14.9168 37.8675 14.8833C37.9213 14.8292 37.983 14.8437 38.0438 14.858C38.0913 14.8692 38.1382 14.8803 38.1804 14.8581C38.3127 14.776 38.1886 14.65 38.0644 14.5238C38.0045 14.463 37.9446 14.4021 37.9134 14.3461C37.9134 14.3209 37.9384 14.2957 37.9384 14.2957C37.9932 14.3449 38.0442 14.3957 38.0948 14.4461C38.2215 14.5722 38.3454 14.6956 38.5183 14.7826C38.6393 14.833 38.9313 14.9043 38.8813 14.7574C38.7956 14.5672 38.6492 14.4022 38.5014 14.2356C38.4405 14.167 38.3794 14.0981 38.3222 14.0271V13.9306C38.2842 13.9306 38.2751 13.9161 38.2637 13.898C38.2602 13.8923 38.2563 13.8863 38.2513 13.8802V13.7837C38.1901 13.7516 38.1764 13.7007 38.1627 13.6496C38.1549 13.6205 38.147 13.5913 38.1303 13.5654C38.0885 13.4977 38.0855 13.4143 38.0824 13.3283C38.0799 13.2599 38.0774 13.1898 38.0552 13.1247C38.0052 12.9778 37.9843 12.8561 37.9593 12.7092C37.9321 12.5589 37.9022 12.4152 37.873 12.2746C37.8213 12.0263 37.7716 11.7874 37.7423 11.5382C37.7037 11.1821 37.8835 10.8809 38.0673 10.573C38.1218 10.4818 38.1767 10.3899 38.2263 10.2958C38.3973 10.002 38.5893 9.71244 38.9063 9.51518C38.9755 9.22862 39.1637 8.98999 39.351 8.75252L39.3652 8.7345C39.5501 8.50406 39.8588 8.36319 40.0863 8.25937L40.112 8.24763C40.4499 8.09653 40.7544 8 40.7586 8H24V20.9231H35.89C36.208 20.6925 36.524 20.547 36.9002 20.3738C37.0719 20.2949 37.2561 20.2101 37.4587 20.1089C37.5016 20.0873 37.5525 20.0621 37.6091 20.0343C37.9487 19.8672 38.4897 19.601 38.6935 19.3995ZM34.9207 17.656C34.8735 17.6607 34.8235 17.6658 34.8424 17.6278C34.8599 17.5429 34.9469 17.5174 35.0318 17.4926C35.0682 17.4819 35.1042 17.4714 35.1342 17.4563L35.1479 17.4492L35.1579 17.4439C35.205 17.4189 35.2625 17.3883 35.305 17.4061C35.3337 17.4469 35.3693 17.4574 35.4038 17.4676C35.4295 17.4753 35.4546 17.4827 35.4759 17.5023C35.3858 17.5929 35.2806 17.6018 35.1738 17.6108C35.103 17.6168 35.0315 17.6229 34.9633 17.653C34.951 17.653 34.936 17.6544 34.9207 17.656ZM31.2297 17.0658C31.2297 17.0909 31.2547 17.1161 31.2547 17.1161C31.8388 16.4572 32.3687 15.8948 33.1196 15.4289C33.1397 15.4204 33.1322 15.431 33.1223 15.4449C33.1075 15.4658 33.0872 15.4943 33.1446 15.4792C33.3932 15.4226 33.5049 15.2095 33.6135 15.0023C33.6416 14.9487 33.6695 14.8955 33.6995 14.8455C33.8134 14.6601 33.9753 14.5414 34.1383 14.4217C34.2559 14.3354 34.3741 14.2487 34.4755 14.1361C34.4755 14.1613 34.4755 14.1865 34.4504 14.2117C34.4755 14.2369 34.5005 14.2369 34.5256 14.2369C34.5696 14.2037 34.6176 14.1899 34.6636 14.1767C34.7224 14.1599 34.7779 14.1441 34.8176 14.09C34.6257 14.0144 34.3796 13.9892 34.1876 14.0648C33.6787 14.3082 33.2448 14.6985 32.8318 15.1393C32.5814 15.4037 32.3228 15.6513 32.0057 15.8234C31.7888 16.2599 31.5468 16.6503 31.2297 17.0658ZM33.2665 15.5048C33.2534 15.5311 33.2403 15.5447 33.2278 15.5577C33.2165 15.5696 33.2056 15.5811 33.1956 15.601C33.1706 15.6512 33.1456 15.6721 33.0997 15.6972C33.0747 15.6972 33.0497 15.6972 33.0497 15.6721C33.0747 15.5759 33.1456 15.4797 33.2415 15.4545C33.2665 15.4587 33.2665 15.4839 33.2665 15.5048ZM34.3333 19.2322C34.3541 19.2112 34.3791 19.186 34.3917 19.1608C34.4125 19.1104 34.2833 19.123 34.2624 19.1356C34.2435 19.1508 34.2315 19.1661 34.217 19.1845L34.2124 19.1902C34.1951 19.2102 34.1747 19.2287 34.154 19.2475C34.14 19.2603 34.1259 19.2731 34.1124 19.2867C34.054 19.3455 33.9957 19.4042 33.9331 19.4588C33.8915 19.4966 34.0249 19.5134 34.054 19.4882C34.0874 19.463 34.1166 19.4336 34.1458 19.4042C34.1569 19.4042 34.168 19.4024 34.1754 19.4011L34.1805 19.4003L34.1832 19.4C34.2524 19.3768 34.3038 19.3287 34.3538 19.2819L34.3666 19.2699C34.3833 19.2531 34.3624 19.2364 34.3333 19.2322ZM33.9561 18.9592C33.9556 18.9593 33.9553 18.9594 33.955 18.9596C33.9545 18.9601 33.9545 18.9612 33.9545 18.9633C33.9289 18.9809 33.9037 18.9988 33.8785 19.0166C33.8132 19.0627 33.7484 19.1086 33.6792 19.148C33.613 19.1852 33.5452 19.2175 33.4767 19.25C33.4372 19.2687 33.3976 19.2875 33.358 19.3075C33.358 19.3075 33.358 19.3033 33.3538 19.3033C33.3454 19.2907 33.3288 19.2865 33.3121 19.2949C33.2203 19.3452 33.141 19.4124 33.0701 19.4838C33.0576 19.4922 33.0451 19.5048 33.0367 19.5173L32.9991 19.5551V19.5593C32.9825 19.5761 32.9658 19.5929 32.9449 19.618C32.9406 19.6224 32.9373 19.6268 32.9341 19.631C32.928 19.6388 32.9225 19.6461 32.9115 19.6516C32.8949 19.66 32.8531 19.66 32.8573 19.6348V19.6306C32.8448 19.639 32.8281 19.6474 32.8156 19.6516C32.8093 19.6558 32.8031 19.659 32.7969 19.6621C32.7906 19.6653 32.7843 19.6684 32.7781 19.6726C32.7739 19.6684 32.7655 19.6684 32.7614 19.6684C32.7572 19.6684 32.7489 19.6684 32.7447 19.6726C32.735 19.681 32.7252 19.6889 32.7155 19.6969C32.696 19.7128 32.6766 19.7286 32.6571 19.7482C32.607 19.7944 32.5611 19.8447 32.5153 19.8992C32.5153 19.8992 32.5153 19.9034 32.5111 19.9034C32.5111 19.9056 32.51 19.9066 32.509 19.9076C32.5079 19.9087 32.5069 19.9098 32.5069 19.9118L32.4985 19.9202C32.497 19.9219 32.4959 19.9235 32.4951 19.9248C32.4937 19.927 32.4928 19.9286 32.4902 19.9286L32.486 19.9328C32.4818 19.9412 32.4777 19.9496 32.4693 19.958C32.4652 19.9622 32.4568 19.9664 32.4484 19.9664C32.4443 19.9622 32.4401 19.958 32.4401 19.9538C32.438 19.9517 32.437 19.9496 32.436 19.9475C32.4349 19.9454 32.4338 19.9433 32.4318 19.9412C32.4276 19.935 32.4245 19.9286 32.4214 19.9224C32.4182 19.916 32.4151 19.9098 32.4109 19.9034V19.8992C32.4109 19.8972 32.4099 19.895 32.4088 19.893C32.4078 19.8909 32.4068 19.8888 32.4068 19.8867L32.4818 19.7985L32.486 19.7944C32.4902 19.7902 32.4944 19.7849 32.4985 19.7796C32.5027 19.7744 32.5069 19.7692 32.5111 19.765C32.5173 19.7566 32.5246 19.7482 32.5319 19.7398C32.5392 19.7314 32.5465 19.723 32.5528 19.7146C32.5549 19.7104 32.5569 19.7073 32.5591 19.7041C32.5611 19.7009 32.5632 19.6978 32.5653 19.6936C32.5903 19.66 32.6154 19.6264 32.6404 19.5887V19.5845C32.6446 19.5803 32.6487 19.5761 32.6487 19.5677C32.6613 19.5509 32.6738 19.5341 32.6821 19.5173L32.7071 19.467V19.4628L32.7113 19.4586C32.7113 19.4565 32.7124 19.4554 32.7134 19.4544C32.7144 19.4533 32.7155 19.4523 32.7155 19.4502C32.7197 19.4397 32.7238 19.4303 32.728 19.4208C32.7321 19.4114 32.7363 19.4019 32.7405 19.3914V19.3872L32.7447 19.3704C32.7468 19.3662 32.7478 19.362 32.7489 19.3578C32.7499 19.3536 32.7509 19.3494 32.7531 19.3452V19.341C32.7551 19.3348 32.7562 19.3284 32.7572 19.3222C32.7582 19.3159 32.7593 19.3096 32.7614 19.3033C32.7614 19.2991 32.7614 19.2907 32.7572 19.2865C32.7823 19.2403 32.8156 19.1984 32.8531 19.1564C32.8511 19.1564 32.849 19.1574 32.8469 19.1585C32.8457 19.1591 32.8445 19.1597 32.8433 19.1601C32.8424 19.1604 32.8415 19.1606 32.8407 19.1606C32.8221 19.1723 32.8061 19.1878 32.7898 19.2037C32.7768 19.2163 32.7637 19.2291 32.7489 19.2403C32.7238 19.2613 32.6738 19.2277 32.7071 19.2026C32.728 19.1858 32.7447 19.169 32.7613 19.1522C32.7613 19.1522 32.7614 19.148 32.7655 19.148C32.7822 19.1329 32.7982 19.1158 32.8142 19.0987C32.8385 19.0728 32.8631 19.0465 32.8907 19.0263C32.9199 19.0053 32.9407 18.9885 32.9658 18.9675C32.9699 18.9633 32.9741 18.9591 32.9783 18.9591C32.995 18.9381 33.0117 18.9172 33.0325 18.8962C33.0325 18.8962 33.0367 18.8962 33.0367 18.892C33.18 18.753 33.3813 18.7039 33.5868 18.6539C33.7164 18.6224 33.8477 18.5904 33.9671 18.5352C34.0345 18.5071 34.1097 18.5182 34.1841 18.5291C34.2431 18.5377 34.3015 18.5463 34.3551 18.5352C34.426 18.5352 34.5011 18.5352 34.572 18.5856C34.407 18.6734 34.2496 18.7739 34.0938 18.8733C34.0487 18.9021 34.0037 18.9309 33.9587 18.9591C33.9576 18.9591 33.9567 18.9591 33.9561 18.9592ZM34.4774 17.2485C34.4579 17.2508 34.4453 17.2522 34.4561 17.2631C34.527 17.3345 34.6731 17.3093 34.7731 17.2547C34.8441 17.2044 34.9192 17.2044 35.0152 17.2044C35.0402 17.2044 35.0402 17.1582 35.0402 17.1331C35.1111 17.1582 35.1612 17.1582 35.2321 17.1582C35.812 17.0365 36.371 16.9148 36.905 16.6462C36.3647 16.2286 35.6986 16.0425 35.0461 15.8604C34.9378 15.8302 34.8299 15.8 34.7231 15.769C34.7466 15.769 34.7701 15.7768 34.7938 15.7847C34.8414 15.8006 34.8898 15.8167 34.94 15.769C34.8739 15.7162 34.8001 15.706 34.7271 15.6961C34.6667 15.6877 34.6068 15.6795 34.5521 15.6472C34.5577 15.6472 34.5646 15.6486 34.572 15.65C34.597 15.6548 34.6287 15.6609 34.648 15.6221C34.5213 15.5583 34.3946 15.5367 34.2666 15.5148C34.2008 15.5036 34.1347 15.4923 34.0681 15.4752C34.1891 15.45 34.2642 15.3534 34.2642 15.2318C34.2642 15.2066 34.2141 15.2066 34.1891 15.2066C33.9012 15.3534 33.7052 15.6221 33.5841 15.9368C33.6933 16.0011 33.8108 15.9936 33.926 15.9863C33.9915 15.9822 34.0562 15.9781 34.1182 15.9872C34.0635 16.0392 33.9844 16.0533 33.9084 16.0669C33.8801 16.0719 33.8522 16.0769 33.8262 16.0838C33.751 16.1006 33.6802 16.1551 33.7052 16.2054C33.7218 16.2264 33.7386 16.2348 33.7594 16.239C33.7052 16.2558 33.6551 16.281 33.6092 16.3272C33.6779 16.3813 33.7487 16.3709 33.8186 16.3605C33.8464 16.3564 33.874 16.3524 33.9012 16.3524C33.9012 16.3829 33.9213 16.3932 33.9421 16.404C33.9527 16.4095 33.9636 16.4152 33.9722 16.4237C33.8512 16.4699 33.7552 16.5706 33.7302 16.642C33.7003 16.7147 33.6451 16.7619 33.5903 16.8088C33.5535 16.8404 33.5168 16.8717 33.4882 16.9106V16.9861C33.4076 17.0576 33.3248 17.1214 33.2431 17.1844C33.0753 17.3137 32.9123 17.4393 32.7832 17.6199C32.8082 17.6199 32.8082 17.6451 32.8082 17.6703C32.7851 17.7051 32.7523 17.7293 32.7211 17.7521C32.6847 17.7789 32.6506 17.8039 32.6372 17.8423C32.6372 17.8675 32.6372 17.8927 32.6622 17.8927C32.8153 17.8421 32.9477 17.7569 33.0776 17.6734C33.1954 17.5976 33.3111 17.5231 33.4381 17.4772C33.542 17.4523 33.6323 17.4052 33.7205 17.3592C33.7953 17.3203 33.8686 17.2821 33.9471 17.2589C34.0076 17.2464 34.0744 17.2286 34.1411 17.2107C34.2078 17.1928 34.2746 17.175 34.3351 17.1624C34.3351 17.1876 34.3351 17.2128 34.3601 17.2128H34.5521C34.5402 17.2414 34.503 17.2456 34.4774 17.2485Z" fill="#000091"/>
<path d="M59.533 8H45.6353C45.6353 8 45.6606 8.0042 45.7656 8.05882C45.879 8.11764 46.0261 8.19746 46.1143 8.24367C46.2949 8.3361 46.4672 8.45374 46.5806 8.63439C46.631 8.70581 46.7025 8.85286 46.6562 8.94948C46.6058 9.07132 46.5806 9.26878 46.4588 9.31499C46.3117 9.39062 46.1185 9.39062 45.9463 9.36541C45.8496 9.36541 45.753 9.3402 45.6522 9.31499C46.0177 9.46204 46.3621 9.63429 46.6058 9.97459C46.631 10.025 46.7277 10.046 46.8243 10.046C46.8495 10.046 46.8495 10.0964 46.8495 10.1174C46.7991 10.1679 46.7529 10.1931 46.7781 10.2645H46.8495C46.9714 10.2141 46.9461 9.97039 47.1184 10.046C47.2402 10.1174 47.2906 10.2897 47.215 10.4115C47.1184 10.5081 47.0218 10.5838 46.9209 10.6552C46.8957 10.7056 46.8957 10.777 46.9209 10.8274C46.9924 10.9241 47.0176 11.0207 47.0428 11.1215C47.1184 11.2938 47.1394 11.487 47.215 11.6593C47.3116 12.0248 47.4083 12.3903 47.3872 12.76C47.3872 12.9533 47.2906 13.1255 47.362 13.323C47.4125 13.5163 47.5343 13.6633 47.6309 13.8356C47.7276 13.9826 47.8242 14.0792 47.8998 14.2263C48.0468 14.4699 48.3157 14.7136 48.1939 15.0077C48.1224 15.1799 47.8536 15.1547 47.6813 15.2514C47.5343 15.3732 47.6561 15.5707 47.7318 15.6925C47.8536 15.911 47.5847 16.058 47.4125 16.1337C47.4629 16.2093 47.5595 16.1841 47.5847 16.2303C47.6099 16.3521 47.7318 16.4235 47.6561 16.5496C47.5595 16.6966 47.2654 16.768 47.4125 16.9907C47.5091 17.163 47.4461 17.352 47.3872 17.5284C47.3158 17.7469 47.1184 17.8436 46.9461 17.894C46.7991 17.9444 46.6268 17.9444 46.484 17.9192C46.4336 17.894 46.3874 17.8688 46.3369 17.8688C45.921 17.8184 45.5051 17.7007 45.0934 17.7007C44.9716 17.7259 44.8497 17.7469 44.7531 17.7973C44.6439 17.8772 44.543 17.9654 44.459 18.0578C44.459 18.0578 44.459 18.0578 44.4548 18.062C44.438 18.083 44.417 18.0998 44.4002 18.1208C44.3918 18.1334 44.3792 18.146 44.3708 18.1586C44.3624 18.167 44.3582 18.1754 44.3498 18.1838C44.2783 18.2721 44.2154 18.3687 44.1565 18.4654C44.1523 18.4738 44.1481 18.478 44.1439 18.4822C44.1397 18.4948 44.1313 18.5032 44.1229 18.5158C44.0431 18.6628 43.9843 18.814 43.9381 18.9653C43.77 19.5241 43.8456 20.003 43.9633 20.1206C43.9969 20.1542 44.7699 20.3937 45.3076 20.6332C45.5597 20.7466 45.7362 20.8307 45.8832 20.9231H59.5288V8H59.533Z" fill="#E1000F"/>
<path d="M46.461 12.7135C46.5576 12.7387 46.7047 12.7387 46.7047 12.789C46.6543 12.982 46.3643 13.0324 46.2173 13.2296H46.1416C46.0702 13.2799 46.0912 13.4016 46.0198 13.4016C45.9483 13.3764 45.8727 13.4016 45.8013 13.4268C45.8979 13.5233 46.0198 13.5988 46.1668 13.5736C46.1921 13.5736 46.2383 13.624 46.2383 13.6701C46.2383 13.6701 46.2635 13.6701 46.2887 13.645C46.3139 13.645 46.3391 13.645 46.3391 13.6701V13.7666C46.2677 13.8631 46.1416 13.817 46.045 13.838C46.2425 13.8883 46.4358 13.8883 46.6081 13.838C46.7551 13.7876 46.6081 13.5443 46.7047 13.4226C46.6543 13.4226 46.7047 13.3471 46.6543 13.3471C46.7047 13.2967 46.7509 13.2254 46.8014 13.2002C46.8518 13.2002 46.9232 13.175 46.9484 13.1247C46.9484 13.0743 46.8518 13.0534 46.8728 13.003C47.0199 12.9065 47.1417 12.7597 47.0913 12.6128C47.0661 12.5373 46.8728 12.5373 46.7509 12.4911C46.6291 12.445 46.482 12.4911 46.3349 12.5163C46.2131 12.5163 46.0912 12.5918 45.9693 12.6128C45.7971 12.6631 45.65 12.7597 45.5071 12.8562C45.6794 12.7848 45.8475 12.7597 46.045 12.7093C46.1921 12.7135 46.3139 12.6799 46.461 12.7135Z" fill="#808080"/>
<path d="M25.3308 37.0769H27.1656V30.5895L29.1813 33.9754H30.4734L32.4891 30.5895V37.0769H34.3239V28.0307H32.0369L29.8274 31.8301L27.6179 28.0307H25.3308V37.0769ZM37.0421 37.0769H38.8769V28.0307H37.0421V37.0769ZM41.5988 37.0769H43.4336V30.5378L47.4779 37.0769H49.8295V28.0307H47.9947V34.5698L43.9504 28.0307H41.5988V37.0769ZM52.5529 37.0769H54.3877V28.0307H52.5529V37.0769ZM56.2956 35.8234C57.0967 36.7797 58.1175 37.3354 59.6422 37.3354C61.309 37.3354 62.627 36.3144 62.6528 34.6086C62.6528 31.507 58.5439 31.9723 58.5439 30.3311C58.5439 29.7883 58.9703 29.3747 59.6164 29.3747C60.3012 29.3747 60.8955 29.827 61.4253 30.512L62.7691 29.2972C61.9938 28.3797 60.9601 27.7723 59.6034 27.7723C57.872 27.7723 56.6833 28.9612 56.6833 30.3957C56.6833 33.4584 60.7922 33.0061 60.7922 34.6732C60.7922 35.3194 60.3529 35.707 59.6293 35.707C58.8928 35.707 58.1692 35.2935 57.6265 34.5957L56.2956 35.8234ZM63.777 29.6978H66.568V37.0769H68.4028V29.6978H71.1937V28.0307H63.777V29.6978ZM74.8209 27.2554H76.5007L75.0406 25.5107H73.1541L74.8209 27.2554ZM72.999 37.0769H78.2708V35.552H74.8338V33.2258H77.754V31.7009H74.8338V29.5557H78.2708V28.0307H72.999V37.0769ZM80.5967 37.0769H82.4315V33.4197H83.3747L85.791 37.0769H87.9488L85.1191 33.0707C86.0494 32.6443 86.5792 31.8301 86.5792 30.7317C86.5792 29.0517 85.3517 28.0307 83.3618 28.0307H80.5967V37.0769ZM83.4652 29.5557C84.2404 29.5557 84.6927 30.0209 84.6927 30.7058C84.6927 31.4424 84.2404 31.8947 83.4652 31.8947H82.4315V29.5557H83.4652ZM89.3051 37.0769H94.5769V35.552H91.1398V33.2258H94.06V31.7009H91.1398V29.5557H94.5769V28.0307H89.3051V37.0769ZM25.3308 50.6461H28.8841C31.7526 50.6461 33.6908 48.5655 33.6908 46.123C33.6908 43.6806 31.7526 41.6 28.8841 41.6H25.3308V50.6461ZM28.91 43.267C30.5897 43.267 31.8043 44.5077 31.8043 46.123C31.8043 47.7255 30.5897 48.979 28.91 48.979H27.1656V43.267H28.91ZM35.6541 50.6461H40.9259V49.1212H37.4889V46.795H40.409V45.2701H37.4889V43.1249H40.9259V41.6H35.6541V50.6461ZM46.799 50.6461H52.0708V48.979H48.6338V41.6H46.799V50.6461ZM53.1335 50.6461H55.0845L55.9503 48.2941H59.5682L60.4339 50.6461H62.385L58.9609 41.6H56.5575L53.1335 50.6461ZM56.5188 46.7304L57.7592 43.3317L58.9996 46.7304H56.5188ZM71.5541 49.1858C69.8485 49.1858 68.6339 47.8547 68.6339 46.123C68.6339 44.3914 69.8485 43.0603 71.5541 43.0603C72.5878 43.0603 73.4018 43.5643 73.9186 44.3009L75.3658 43.1766C74.5388 42.0781 73.195 41.3415 71.5541 41.3415C68.6985 41.3415 66.7474 43.5384 66.7474 46.123C66.7474 48.7077 68.6985 50.9046 71.5541 50.9046C73.195 50.9046 74.5388 50.1809 75.3658 49.0566L73.9186 47.9452C73.4018 48.6818 72.5878 49.1858 71.5541 49.1858ZM81.1203 41.3415C78.2647 41.3415 76.3136 43.5384 76.3136 46.123C76.3136 48.7077 78.2647 50.9046 81.1203 50.9046C83.9629 50.9046 85.914 48.7077 85.914 46.123C85.914 43.5384 83.9629 41.3415 81.1203 41.3415ZM81.1203 49.1858C79.4147 49.1858 78.2001 47.8547 78.2001 46.123C78.2001 44.3914 79.4147 43.0603 81.1203 43.0603C82.8129 43.0603 84.0275 44.3914 84.0275 46.123C84.0275 47.8547 82.8129 49.1858 81.1203 49.1858ZM87.8664 50.6461H89.7011V46.8726H94.2622V50.6461H96.097V41.6H94.2622V45.2055H89.7011V41.6H87.8664V50.6461ZM102.271 40.8246L103.95 39.08H102.064L100.604 40.8246H102.271ZM98.8208 50.6461H104.093V49.1212H100.656V46.795H103.576V45.2701H100.656V43.1249H104.093V41.6H98.8208V50.6461ZM105.604 49.3926C106.405 50.3489 107.426 50.9046 108.951 50.9046C110.618 50.9046 111.936 49.8837 111.962 48.1778C111.962 45.0763 107.853 45.5415 107.853 43.9003C107.853 43.3575 108.279 42.944 108.925 42.944C109.61 42.944 110.204 43.3963 110.734 44.0812L112.078 42.8664C111.303 41.9489 110.269 41.3415 108.912 41.3415C107.181 41.3415 105.992 42.5304 105.992 43.9649C105.992 47.0277 110.101 46.5754 110.101 48.2424C110.101 48.8886 109.662 49.2763 108.938 49.2763C108.201 49.2763 107.478 48.8627 106.935 48.1649L105.604 49.3926ZM114.079 50.6461H115.914V41.6H114.079V50.6461ZM122.667 41.3415C119.812 41.3415 117.861 43.5384 117.861 46.123C117.861 48.7077 119.812 50.9046 122.667 50.9046C125.51 50.9046 127.461 48.7077 127.461 46.123C127.461 43.5384 125.51 41.3415 122.667 41.3415ZM122.667 49.1858C120.962 49.1858 119.747 47.8547 119.747 46.123C119.747 44.3914 120.962 43.0603 122.667 43.0603C124.36 43.0603 125.575 44.3914 125.575 46.123C125.575 47.8547 124.36 49.1858 122.667 49.1858ZM129.413 50.6461H131.248V44.107L135.292 50.6461H137.644V41.6H135.809V48.139L131.765 41.6H129.413V50.6461ZM25.3308 64.2154H28.8841C31.7526 64.2154 33.6908 62.1347 33.6908 59.6923C33.6908 57.2498 31.7526 55.1692 28.8841 55.1692H25.3308V64.2154ZM28.91 56.8363C30.5897 56.8363 31.8043 58.0769 31.8043 59.6923C31.8043 61.2947 30.5897 62.5483 28.91 62.5483H27.1656V56.8363H28.91ZM35.6541 64.2154H40.9259V62.6904H37.4889V60.3643H40.409V58.8394H37.4889V56.6941H40.9259V55.1692H35.6541V64.2154ZM42.4378 62.9618C43.2389 63.9181 44.2596 64.4738 45.7843 64.4738C47.4512 64.4738 48.7691 63.4529 48.7949 61.747C48.7949 58.6455 44.686 59.1107 44.686 57.4695C44.686 56.9267 45.1124 56.5132 45.7585 56.5132C46.4433 56.5132 47.0377 56.9655 47.5674 57.6504L48.9112 56.4357C48.136 55.5181 47.1023 54.9107 45.7456 54.9107C44.0141 54.9107 42.8254 56.0997 42.8254 57.5341C42.8254 60.5969 46.9343 60.1446 46.9343 61.8117C46.9343 62.4578 46.495 62.8455 45.7714 62.8455C45.0349 62.8455 44.3113 62.432 43.7686 61.7341L42.4378 62.9618ZM53.5295 56.8363H56.3204V64.2154H58.1552V56.8363H60.9462V55.1692H53.5295V56.8363ZM62.7515 64.2154H68.0233V62.6904H64.5863V60.3643H67.5065V58.8394H64.5863V56.6941H68.0233V55.1692H62.7515V64.2154ZM70.3492 64.2154H72.184V60.5581H73.1272L75.5435 64.2154H77.7013L74.8716 60.2092C75.8019 59.7827 76.3316 58.9686 76.3316 57.8701C76.3316 56.1901 75.1041 55.1692 73.1143 55.1692H70.3492V64.2154ZM73.2177 56.6941C73.9929 56.6941 74.4452 57.1594 74.4452 57.8443C74.4452 58.5809 73.9929 59.0332 73.2177 59.0332H72.184V56.6941H73.2177ZM79.0573 64.2154H80.8921V60.5581H81.8353L84.2516 64.2154H86.4094L83.5797 60.2092C84.51 59.7827 85.0397 58.9686 85.0397 57.8701C85.0397 56.1901 83.8122 55.1692 81.8224 55.1692H79.0573V64.2154ZM81.9258 56.6941C82.701 56.6941 83.1533 57.1594 83.1533 57.8443C83.1533 58.5809 82.701 59.0332 81.9258 59.0332H80.8921V56.6941H81.9258ZM87.7654 64.2154H89.6003V55.1692H87.7654V64.2154ZM91.3918 56.8363H94.1828V64.2154H96.0176V56.8363H98.8085V55.1692H91.3918V56.8363ZM104.229 54.9107C101.373 54.9107 99.4223 57.1077 99.4223 59.6923C99.4223 62.2769 101.373 64.4738 104.229 64.4738C107.072 64.4738 109.023 62.2769 109.023 59.6923C109.023 57.1077 107.072 54.9107 104.229 54.9107ZM104.229 62.755C102.523 62.755 101.309 61.424 101.309 59.6923C101.309 57.9606 102.523 56.6295 104.229 56.6295C105.922 56.6295 107.136 57.9606 107.136 59.6923C107.136 61.424 105.922 62.755 104.229 62.755ZM110.975 64.2154H112.81V55.1692H110.975V64.2154ZM115.532 64.2154H117.366V60.5581H118.31L120.726 64.2154H122.884L120.054 60.2092C120.984 59.7827 121.514 58.9686 121.514 57.8701C121.514 56.1901 120.287 55.1692 118.297 55.1692H115.532V64.2154ZM118.4 56.6941C119.175 56.6941 119.628 57.1594 119.628 57.8443C119.628 58.5809 119.175 59.0332 118.4 59.0332H117.366V56.6941H118.4ZM124.24 64.2154H129.512V62.6904H126.075V60.3643H128.995V58.8394H126.075V56.6941H129.512V55.1692H124.24V64.2154ZM131.023 62.9618C131.824 63.9181 132.845 64.4738 134.37 64.4738C136.037 64.4738 137.355 63.4529 137.381 61.747C137.381 58.6455 133.272 59.1107 133.272 57.4695C133.272 56.9267 133.698 56.5132 134.344 56.5132C135.029 56.5132 135.623 56.9655 136.153 57.6504L137.497 56.4357C136.722 55.5181 135.688 54.9107 134.331 54.9107C132.6 54.9107 131.411 56.0997 131.411 57.5341C131.411 60.5969 135.52 60.1446 135.52 61.8117C135.52 62.4578 135.081 62.8455 134.357 62.8455C133.62 62.8455 132.897 62.432 132.354 61.7341L131.023 62.9618ZM25.3308 77.7846H30.6026V76.2597H27.1656V73.9335H30.0858V72.4086H27.1656V70.2634H30.6026V68.7384H25.3308V77.7846ZM32.1875 70.4055H34.9784V77.7846H36.8132V70.4055H39.6042V68.7384H32.1875V70.4055ZM44.9567 77.7846H48.51C51.3785 77.7846 53.3167 75.704 53.3167 73.2615C53.3167 70.819 51.3785 68.7384 48.51 68.7384H44.9567V77.7846ZM48.5359 70.4055C50.2156 70.4055 51.4302 71.6461 51.4302 73.2615C51.4302 74.864 50.2156 76.1175 48.5359 76.1175H46.7915V70.4055H48.5359ZM55.28 77.7846H60.5518V76.2597H57.1148V73.9335H60.0349V72.4086H57.1148V70.2634H60.5518V68.7384H55.28V77.7846ZM62.0637 76.531C62.8648 77.4874 63.8855 78.043 65.4102 78.043C67.077 78.043 68.395 77.0221 68.4208 75.3163C68.4208 72.2147 64.3119 72.68 64.3119 71.0387C64.3119 70.496 64.7383 70.0824 65.3844 70.0824C66.0692 70.0824 66.6636 70.5347 67.1933 71.2197L68.5371 70.0049C67.7619 69.0874 66.7282 68.48 65.3715 68.48C63.64 68.48 62.4513 69.6689 62.4513 71.1034C62.4513 74.1661 66.5602 73.7138 66.5602 75.3809C66.5602 76.027 66.1209 76.4147 65.3973 76.4147C64.6608 76.4147 63.9372 76.0012 63.3945 75.3034L62.0637 76.531ZM74.0857 77.7846H75.9205V74.1274H76.8637L79.28 77.7846H81.4378L78.6081 73.7784C79.5384 73.352 80.0682 72.5378 80.0682 71.4394C80.0682 69.7594 78.8407 68.7384 76.8508 68.7384H74.0857V77.7846ZM76.9542 70.2634C77.7294 70.2634 78.1817 70.7286 78.1817 71.4135C78.1817 72.1501 77.7294 72.6024 76.9542 72.6024H75.9205V70.2634H76.9542ZM82.7938 77.7846H88.0656V76.2597H84.6286V73.9335H87.5488V72.4086H84.6286V70.2634H88.0656V68.7384H82.7938V77.7846ZM90.3917 77.7846H95.6635V76.1175H92.2265V68.7384H90.3917V77.7846ZM96.7263 77.7846H98.6774L99.5431 75.4326H103.161L104.027 77.7846H105.978L102.554 68.7384H100.15L96.7263 77.7846ZM100.112 73.8689L101.352 70.4701L102.592 73.8689H100.112ZM105.729 70.4055H108.52V77.7846H110.355V70.4055H113.146V68.7384H105.729V70.4055ZM114.951 77.7846H116.786V68.7384H114.951V77.7846ZM123.539 68.48C120.684 68.48 118.733 70.6769 118.733 73.2615C118.733 75.8461 120.684 78.043 123.539 78.043C126.382 78.043 128.333 75.8461 128.333 73.2615C128.333 70.6769 126.382 68.48 123.539 68.48ZM123.539 76.3243C121.834 76.3243 120.619 74.9932 120.619 73.2615C120.619 71.5298 121.834 70.1987 123.539 70.1987C125.232 70.1987 126.447 71.5298 126.447 73.2615C126.447 74.9932 125.232 76.3243 123.539 76.3243ZM130.286 77.7846H132.12V71.2455L136.165 77.7846H138.516V68.7384H136.681V75.2775L132.637 68.7384H130.286V77.7846ZM140.425 76.531C141.226 77.4874 142.247 78.043 143.772 78.043C145.439 78.043 146.757 77.0221 146.783 75.3163C146.783 72.2147 142.674 72.68 142.674 71.0387C142.674 70.496 143.1 70.0824 143.746 70.0824C144.431 70.0824 145.025 70.5347 145.555 71.2197L146.899 70.0049C146.124 69.0874 145.09 68.48 143.733 68.48C142.002 68.48 140.813 69.6689 140.813 71.1034C140.813 74.1661 144.922 73.7138 144.922 75.3809C144.922 76.027 144.483 76.4147 143.759 76.4147C143.023 76.4147 142.299 76.0012 141.756 75.3034L140.425 76.531ZM24.1938 91.3538H26.1449L27.0106 89.0018H30.6285L31.4942 91.3538H33.4453L30.0212 82.3077H27.6179L24.1938 91.3538ZM27.5791 87.4381L28.8195 84.0394L30.06 87.4381H27.5791ZM33.1038 82.3077L36.5279 91.3538H38.9312L42.3553 82.3077H40.4042L37.7295 89.3766L35.0549 82.3077H33.1038ZM43.9458 91.3538H49.2176V89.8289H45.7806V87.5027H48.7008V85.9778H45.7806V83.8326H49.2176V82.3077H43.9458V91.3538ZM55.3729 89.8935C53.6674 89.8935 52.4528 88.5624 52.4528 86.8307C52.4528 85.099 53.6674 83.768 55.3729 83.768C56.4066 83.768 57.2207 84.272 57.7375 85.0086L59.1847 83.8843C58.3577 82.7858 57.0139 82.0492 55.3729 82.0492C52.5174 82.0492 50.5663 84.2461 50.5663 86.8307C50.5663 89.4154 52.5174 91.6123 55.3729 91.6123C57.0139 91.6123 58.3577 90.8886 59.1847 89.7643L57.7375 88.6529C57.2207 89.3895 56.4066 89.8935 55.3729 89.8935ZM64.5181 91.3538H69.7899V89.6867H66.3529V82.3077H64.5181V91.3538ZM71.5984 91.3538H76.8702V89.8289H73.4332V87.5027H76.3533V85.9778H73.4332V83.8326H76.8702V82.3077H71.5984V91.3538ZM78.3821 90.1003C79.1832 91.0566 80.204 91.6123 81.7286 91.6123C83.3955 91.6123 84.7134 90.5914 84.7393 88.8855C84.7393 85.784 80.6304 86.2492 80.6304 84.608C80.6304 84.0652 81.0568 83.6517 81.7028 83.6517C82.3876 83.6517 82.982 84.104 83.5118 84.7889L84.8555 83.5741C84.0803 82.6566 83.0466 82.0492 81.6899 82.0492C79.9585 82.0492 78.7697 83.2381 78.7697 84.6726C78.7697 87.7354 82.8786 87.283 82.8786 88.9501C82.8786 89.5963 82.4393 89.984 81.7157 89.984C80.9792 89.984 80.2556 89.5704 79.713 88.8726L78.3821 90.1003ZM94.4354 89.8935C92.7298 89.8935 91.5152 88.5624 91.5152 86.8307C91.5152 85.099 92.7298 83.768 94.4354 83.768C95.4691 83.768 96.2831 84.272 96.7999 85.0086L98.2471 83.8843C97.4201 82.7858 96.0763 82.0492 94.4354 82.0492C91.5798 82.0492 89.6287 84.2461 89.6287 86.8307C89.6287 89.4154 91.5798 91.6123 94.4354 91.6123C96.0763 91.6123 97.4201 90.8886 98.2471 89.7643L96.7999 88.6529C96.2831 89.3895 95.4691 89.8935 94.4354 89.8935ZM104.001 82.0492C101.146 82.0492 99.1948 84.2461 99.1948 86.8307C99.1948 89.4154 101.146 91.6123 104.001 91.6123C106.844 91.6123 108.795 89.4154 108.795 86.8307C108.795 84.2461 106.844 82.0492 104.001 82.0492ZM104.001 89.8935C102.296 89.8935 101.081 88.5624 101.081 86.8307C101.081 85.099 102.296 83.768 104.001 83.768C105.694 83.768 106.909 85.099 106.909 86.8307C106.909 88.5624 105.694 89.8935 104.001 89.8935ZM110.748 91.3538H116.019V89.6867H112.582V82.3077H110.748V91.3538ZM117.828 91.3538H123.1V89.6867H119.663V82.3077H117.828V91.3538ZM124.908 91.3538H130.18V89.8289H126.743V87.5027H129.663V85.9778H126.743V83.8326H130.18V82.3077H124.908V91.3538ZM136.336 89.8935C134.63 89.8935 133.416 88.5624 133.416 86.8307C133.416 85.099 134.63 83.768 136.336 83.768C137.37 83.768 138.184 84.272 138.7 85.0086L140.148 83.8843C139.321 82.7858 137.977 82.0492 136.336 82.0492C133.48 82.0492 131.529 84.2461 131.529 86.8307C131.529 89.4154 133.48 91.6123 136.336 91.6123C137.977 91.6123 139.321 90.8886 140.148 89.7643L138.7 88.6529C138.184 89.3895 137.37 89.8935 136.336 89.8935ZM141.003 83.9747H143.794V91.3538H145.629V83.9747H148.42V82.3077H141.003V83.9747ZM150.225 91.3538H152.06V82.3077H150.225V91.3538ZM153.645 82.3077L157.069 91.3538H159.472L162.896 82.3077H160.945L158.271 89.3766L155.596 82.3077H153.645ZM164.487 91.3538H166.322V82.3077H164.487V91.3538ZM168.113 83.9747H170.904V91.3538H172.739V83.9747H175.53V82.3077H168.113V83.9747ZM180.785 81.5323L182.465 79.7877H180.578L179.118 81.5323H180.785ZM177.335 91.3538H182.607V89.8289H179.17V87.5027H182.09V85.9778H179.17V83.8326H182.607V82.3077H177.335V91.3538ZM184.119 90.1003C184.92 91.0566 185.941 91.6123 187.465 91.6123C189.132 91.6123 190.45 90.5914 190.476 88.8855C190.476 85.784 186.367 86.2492 186.367 84.608C186.367 84.0652 186.793 83.6517 187.439 83.6517C188.124 83.6517 188.719 84.104 189.248 84.7889L190.592 83.5741C189.817 82.6566 188.783 82.0492 187.426 82.0492C185.695 82.0492 184.506 83.2381 184.506 84.6726C184.506 87.7354 188.615 87.283 188.615 88.9501C188.615 89.5963 188.176 89.984 187.452 89.984C186.716 89.984 185.992 89.5704 185.45 88.8726L184.119 90.1003ZM24.4005 97.544H27.1915V104.923H29.0263V97.544H31.8172V95.8769H24.4005V97.544ZM33.6226 104.923H38.8944V103.398H35.4574V101.072H38.3775V99.547H35.4574V97.4018H38.8944V95.8769H33.6226V104.923ZM41.2202 104.923H43.055V101.266H43.9983L46.4145 104.923H48.5723L45.7426 100.917C46.6729 100.49 47.2027 99.6763 47.2027 98.5778C47.2027 96.8978 45.9752 95.8769 43.9853 95.8769H41.2202V104.923ZM44.0887 97.4018C44.864 97.4018 45.3162 97.867 45.3162 98.552C45.3162 99.2886 44.864 99.7409 44.0887 99.7409H43.055V97.4018H44.0887ZM49.9283 104.923H51.7631V101.266H52.7064L55.1226 104.923H57.2804L54.4507 100.917C55.381 100.49 55.9108 99.6763 55.9108 98.5778C55.9108 96.8978 54.6833 95.8769 52.6934 95.8769H49.9283V104.923ZM52.7968 97.4018C53.5721 97.4018 54.0243 97.867 54.0243 98.552C54.0243 99.2886 53.5721 99.7409 52.7968 99.7409H51.7631V97.4018H52.7968ZM58.6364 104.923H60.4712V95.8769H58.6364V104.923ZM62.2628 97.544H65.0538V104.923H66.8886V97.544H69.6795V95.8769H62.2628V97.544ZM75.0998 95.6184C72.2443 95.6184 70.2932 97.8154 70.2932 100.4C70.2932 102.985 72.2443 105.182 75.0998 105.182C77.9424 105.182 79.8935 102.985 79.8935 100.4C79.8935 97.8154 77.9424 95.6184 75.0998 95.6184ZM75.0998 103.463C73.3942 103.463 72.1796 102.132 72.1796 100.4C72.1796 98.6683 73.3942 97.3372 75.0998 97.3372C76.7925 97.3372 78.0071 98.6683 78.0071 100.4C78.0071 102.132 76.7925 103.463 75.0998 103.463ZM81.8459 104.923H83.6807V101.266H84.6239L87.0402 104.923H89.1978L86.3683 100.917C87.2986 100.49 87.8284 99.6763 87.8284 98.5778C87.8284 96.8978 86.6009 95.8769 84.611 95.8769H81.8459V104.923ZM84.7144 97.4018C85.4897 97.4018 85.9419 97.867 85.9419 98.552C85.9419 99.2886 85.4897 99.7409 84.7144 99.7409H83.6807V97.4018H84.7144ZM90.5539 104.923H92.3887V95.8769H90.5539V104.923ZM93.9734 104.923H95.9245L96.7902 102.571H100.408L101.274 104.923H103.225L99.8008 95.8769H97.3975L93.9734 104.923ZM97.3588 101.007L98.5992 97.6086L99.8396 101.007H97.3588ZM104.816 104.923H110.087V103.256H106.65V95.8769H104.816V104.923ZM111.896 104.923H117.168V103.398H113.731V101.072H116.651V99.547H113.731V97.4018H117.168V95.8769H111.896V104.923ZM118.68 103.67C119.481 104.626 120.502 105.182 122.026 105.182C123.693 105.182 125.011 104.161 125.037 102.455C125.037 99.3532 120.928 99.8184 120.928 98.1772C120.928 97.6344 121.354 97.2209 122.001 97.2209C122.685 97.2209 123.28 97.6732 123.81 98.3581L125.153 97.1434C124.378 96.2258 123.344 95.6184 121.988 95.6184C120.256 95.6184 119.067 96.8074 119.067 98.2418C119.067 101.305 123.176 100.852 123.176 102.519C123.176 103.166 122.737 103.553 122.013 103.553C121.277 103.553 120.553 103.14 120.011 102.442L118.68 103.67Z" fill="#161616"/>
<path fill-rule="evenodd" clip-rule="evenodd" d="M57.569 127.991L56.3673 129.089H56.0572L56.7679 127.836H57.569V127.991ZM56.7033 132.242H56.4448C56.1218 132.63 55.76 132.94 55.4111 132.94C55.0494 132.94 54.8685 132.72 54.8685 132.242C54.8685 132.048 54.8943 131.841 54.9331 131.66L57.0392 130.962C57.4527 129.98 56.9617 129.554 56.3802 129.554C55.3853 129.554 54.2483 131.298 54.2483 132.694C54.2483 133.353 54.5584 133.715 55.0494 133.715C55.6179 133.702 56.2123 133.146 56.7033 132.242ZM55.9805 130.123C56.2647 130.123 56.5103 130.343 56.381 130.847L55.076 131.196C55.2827 130.575 55.6703 130.123 55.9805 130.123ZM51.8721 130.148H52.5699L51.4587 133.198C51.3553 133.457 51.4974 133.715 51.7688 133.715C52.5569 133.715 53.5002 133.043 53.862 132.087H53.6682C53.3839 132.487 52.7637 132.927 52.2985 133.004L53.3193 130.148H54.3659L54.4951 129.709H53.4743L53.862 128.61H53.4614L52.7378 129.709L51.8721 129.825V130.148ZM50.9023 129.567C51.0444 129.567 51.2383 129.722 51.1478 130.007L49.8944 133.044C50.2175 132.992 50.5534 132.682 50.7472 132.398H50.954C50.6568 133.16 49.9849 133.716 49.4034 133.716C49.2613 133.716 49.0546 133.561 49.1579 133.276L50.3208 130.239C49.9978 130.291 49.6618 130.601 49.468 130.886H49.2742C49.5714 130.11 50.295 129.567 50.9023 129.567ZM51.265 128.792C51.5234 128.792 51.743 128.585 51.743 128.314C51.743 128.055 51.5234 127.836 51.265 127.836C50.9936 127.836 50.7869 128.055 50.7869 128.314C50.7869 128.572 51.0065 128.792 51.265 128.792ZM45.6182 131.312C45.9025 130.692 45.7991 130.407 45.6182 130.407C45.4631 130.407 45.2822 130.575 45.1013 130.886H44.9075C45.2047 130.226 45.5924 129.567 46.0188 129.567C46.3805 129.567 46.5098 129.929 46.5098 130.33V130.898C46.5679 130.831 46.6245 130.765 46.6798 130.699L46.6808 130.698L46.6817 130.698C47.2275 130.057 47.6444 129.567 48.1249 129.567C48.4996 129.567 48.6934 129.8 48.6934 130.149C48.6934 130.356 48.6288 130.614 48.4867 130.886L47.4142 133.044C47.7373 132.992 48.0732 132.682 48.267 132.398H48.4608C48.1637 133.173 47.4401 133.716 46.8328 133.716C46.5614 133.716 46.4064 133.431 46.5227 133.199L47.7631 130.808C47.9052 130.537 47.9311 130.356 47.7114 130.356C47.4142 130.356 46.7165 130.847 46.3418 131.299L45.5278 133.444C45.4373 133.664 45.3469 133.716 45.1401 133.716C44.8041 133.716 44.6361 133.496 44.7912 133.147L45.6182 131.312ZM44.7774 130.484C44.9195 129.993 44.842 129.554 44.4672 129.554C43.9999 129.554 43.8536 129.863 43.4007 130.818L43.3689 130.885V130.316C43.3689 129.916 43.2397 129.554 42.8779 129.554C42.4515 129.554 42.0639 130.213 41.7667 130.872H41.9605C42.1672 130.575 42.361 130.394 42.5161 130.394C42.697 130.394 42.8004 130.678 42.5161 131.298L41.6892 133.134C41.5341 133.482 41.7021 133.702 42.038 133.702C42.2448 133.702 42.3352 133.65 42.4257 133.431L43.2397 131.286C43.4723 131.001 43.679 130.756 43.9374 130.484H44.7774ZM40.6945 130.847C40.8237 130.343 40.5782 130.123 40.2939 130.123C39.9838 130.123 39.5962 130.575 39.3895 131.196L40.6945 130.847ZM41.0167 132.242H40.7583C40.4353 132.63 40.0735 132.94 39.7246 132.94C39.3628 132.94 39.1819 132.72 39.1819 132.242C39.1819 132.048 39.2077 131.841 39.2465 131.66L41.3527 130.962C41.7662 129.98 41.2752 129.554 40.6937 129.554C39.6987 129.554 38.5617 131.298 38.5617 132.694C38.5617 133.353 38.8718 133.715 39.3628 133.715C39.9314 133.702 40.5257 133.146 41.0167 132.242ZM36.8833 130.148H36.1855V129.825L37.0513 129.709L37.7749 128.61H38.1755L37.7878 129.709H38.8086L38.6794 130.148H37.6328L36.6119 133.004C37.0772 132.927 37.6974 132.487 37.9816 132.087H38.1755C37.8137 133.043 36.8704 133.715 36.0822 133.715C35.8108 133.715 35.6687 133.457 35.7721 133.198L36.8833 130.148ZM32.4907 132.513C32.4907 131.57 33.5374 130.304 34.1188 130.304C34.248 130.304 34.3772 130.317 34.4806 130.356L33.8733 131.983C33.5245 132.41 32.9818 132.927 32.7233 132.927C32.5811 132.927 32.4907 132.798 32.4907 132.513ZM35.3725 129.361L35.6955 129.386L34.5714 131.97C34.3 132.591 34.4163 132.875 34.5714 132.875C34.7264 132.875 34.9203 132.694 35.127 132.397H35.3208C35.0236 133.056 34.636 133.715 34.2096 133.715C33.8478 133.715 33.6281 133.327 33.6927 132.63L33.7186 132.384L33.6482 132.483C33.1853 133.13 32.7665 133.715 32.336 133.715C31.9613 133.715 31.7674 133.482 31.7674 133.134C31.7674 131.635 33.4085 129.722 34.9461 129.722H35.0107L35.3725 129.361ZM32.4127 130.484C32.5549 129.993 32.4773 129.554 32.1026 129.554C31.6353 129.554 31.4889 129.863 31.0361 130.818L31.0043 130.885V130.316C31.0043 129.916 30.8751 129.554 30.5133 129.554C30.0869 129.554 29.6992 130.213 29.4021 130.872H29.5959C29.8026 130.575 29.9964 130.394 30.1386 130.394C30.3195 130.394 30.4228 130.678 30.1386 131.298L29.3116 133.146C29.1566 133.495 29.3245 133.715 29.6605 133.715C29.8672 133.715 29.9577 133.663 30.0481 133.444L30.8622 131.298C31.0948 131.014 31.3015 130.769 31.5599 130.497H32.4127V130.484ZM27.0882 133.327L27.0107 133.559H24L24.0775 133.314C25.0079 133.146 25.1629 133.068 25.5506 132.021L26.3904 129.773C26.7652 128.726 26.6876 128.649 25.8736 128.481L25.9511 128.248H29.8663L29.6337 129.501H29.3494C29.3494 128.752 29.2719 128.558 28.5612 128.558H28.3803C27.6826 128.558 27.5921 128.661 27.3983 129.204L26.8427 130.716H27.6567C28.1994 130.716 28.4062 130.38 28.6517 129.941H28.9359L28.264 131.776H27.9798C28.0444 131.22 28.0444 131.001 27.5404 131.001H26.7264L26.3517 132.034C25.9466 133.11 26.0624 133.132 27.0269 133.315C27.047 133.319 27.0674 133.323 27.0882 133.327Z" fill="black"/>
<path fill-rule="evenodd" clip-rule="evenodd" d="M29.6463 118.105L28.4447 118.97V118.983H28.1346L28.8452 117.949H29.6463V118.105ZM38.0462 124.165L39.9714 119.048L39.9068 118.97L38.5759 119.125V119.281L38.8344 119.474C39.0549 119.646 38.9965 119.806 38.8135 120.307L38.7827 120.392L37.3097 124.321C37.1934 124.553 37.3484 124.837 37.6198 124.837C38.2271 124.837 38.8731 124.282 39.1703 123.519H38.9765C38.7698 123.804 38.3563 124.114 38.0462 124.165ZM46.8703 120.224L48.072 119.125V118.97H47.2709L46.5602 120.224H46.8703ZM46.947 123.364H47.2054C46.7273 124.282 46.133 124.837 45.5644 124.837C45.0734 124.837 44.7633 124.476 44.7633 123.817C44.7633 122.421 45.9004 120.676 46.8953 120.676C47.4638 120.676 47.9678 121.103 47.5543 122.085L45.4352 122.783C45.3965 122.964 45.3706 123.17 45.3706 123.364C45.3706 123.842 45.5515 124.062 45.9133 124.062C46.2622 124.062 46.624 123.752 46.947 123.364ZM46.8818 121.969C47.011 121.477 46.7655 121.258 46.4812 121.258C46.184 121.258 45.7964 121.71 45.5767 122.317L46.8818 121.969ZM43.083 121.283H42.3852V120.96L43.2509 120.844L43.9745 119.745H44.3751L43.9874 120.844H45.0082L44.879 121.283H43.8324L42.8116 124.139C43.2768 124.061 43.897 123.622 44.1812 123.221H44.3751C44.0133 124.178 43.07 124.85 42.2818 124.85C42.0105 124.85 41.8684 124.591 41.9717 124.333L43.083 121.283ZM41.6616 121.128C41.7391 120.844 41.5582 120.689 41.4031 120.689C40.7959 120.689 40.0723 121.244 39.7751 122.007H39.9689C40.1627 121.722 40.4987 121.412 40.8217 121.361L39.6588 124.397C39.5554 124.682 39.7622 124.837 39.9043 124.837C40.4858 124.837 41.1576 124.281 41.4548 123.519H41.261C41.0672 123.803 40.7313 124.113 40.4082 124.165L41.6616 121.128ZM42.2569 119.449C42.2569 119.707 42.0372 119.927 41.7788 119.927C41.5204 119.927 41.3007 119.707 41.3007 119.449C41.3007 119.19 41.5075 118.97 41.7788 118.97C42.0372 118.97 42.2569 119.19 42.2569 119.449ZM35.7331 121.439C35.1517 121.439 34.1051 122.705 34.1051 123.649C34.1051 123.933 34.1955 124.062 34.3506 124.062C34.5961 124.062 35.1387 123.545 35.4876 123.119L36.0949 121.49C35.9786 121.452 35.8623 121.439 35.7331 121.439ZM37.3098 120.521L36.9868 120.495L36.625 120.857H36.5604C35.0228 120.857 33.3818 122.77 33.3818 124.269C33.3818 124.618 33.5756 124.85 33.9503 124.85C34.3809 124.85 34.7997 124.264 35.2625 123.618L35.3329 123.519L35.307 123.765C35.2424 124.463 35.4621 124.85 35.8239 124.85C36.2503 124.85 36.6379 124.191 36.9351 123.532H36.7413C36.5345 123.829 36.3407 124.01 36.1857 124.01C36.0306 124.01 35.9143 123.726 36.1857 123.106L37.3098 120.521ZM30.7969 124.708C30.2413 124.928 29.8537 125.186 29.8537 125.587C29.8537 125.962 30.2025 126.117 30.9261 126.117C31.8952 126.117 32.4249 125.833 32.4249 125.458C32.4249 125.29 32.2053 125.212 31.6238 125.018C31.2491 124.902 30.9778 124.799 30.7969 124.708ZM31.4421 123.119C31.1837 123.119 31.0932 122.899 31.0932 122.666C31.0932 121.917 31.455 120.986 32.0365 120.986C32.2949 120.986 32.3853 121.206 32.3853 121.439C32.3724 122.201 32.0106 123.119 31.4421 123.119ZM31.9344 124.333C32.645 124.553 33.0844 124.721 33.0844 125.212C33.0844 125.845 31.9215 126.595 30.5131 126.582C29.699 126.582 29.0013 126.362 29.0013 125.833C29.0013 125.329 29.4665 124.915 30.6035 124.579C30.4485 124.476 30.3839 124.346 30.3839 124.165C30.3839 123.855 30.6681 123.61 31.1591 123.377C30.681 123.313 30.3709 122.951 30.3709 122.421C30.3709 121.607 31.0428 120.676 32.1024 120.676C32.322 120.676 32.5158 120.728 32.6709 120.831H33.8338L33.7046 121.271H33.0198C33.0585 121.387 33.0844 121.516 33.0844 121.658C33.0844 122.447 32.4512 123.351 31.4434 123.403C31.185 123.545 31.0558 123.739 31.0558 123.894C31.0558 124.076 31.2671 124.138 31.7342 124.275C31.7964 124.293 31.8631 124.312 31.9344 124.333ZM27.8375 122.124C28.3415 122.124 28.3544 122.343 28.2769 122.899H28.5611L29.233 121.064H28.9488C28.7033 121.503 28.4965 121.839 27.9538 121.839H26.8426L27.3853 120.327C27.5791 119.785 27.6696 119.681 28.3673 119.681H28.8583C29.569 119.681 29.6465 119.875 29.6465 120.625H29.9308L30.1633 119.371H25.9511L25.8736 119.604C26.6876 119.772 26.7651 119.849 26.3904 120.896L25.5505 123.157C25.1629 124.204 25.0078 124.282 24.0646 124.45L24 124.695H28.6774L29.5173 123.364H29.1943C28.6516 123.894 28.1089 124.385 27.0494 124.385C25.884 124.385 25.9047 124.328 26.2544 123.367C26.2769 123.305 26.3008 123.24 26.3258 123.17L26.7134 122.137H27.8375V122.124Z" fill="black"/>
<path fill-rule="evenodd" clip-rule="evenodd" d="M31.6998 111.049C31.9582 111.049 32.1779 110.829 32.1779 110.57C32.1779 110.312 31.9582 110.092 31.6998 110.092C31.4285 110.092 31.2217 110.312 31.2217 110.57C31.2217 110.842 31.4285 111.049 31.6998 111.049ZM35.5258 112.676C35.5258 112.056 35.3707 111.823 34.9314 111.823C34.3887 111.823 33.8848 112.405 33.3809 113.103L34.4663 110.195L34.4017 110.105L33.0708 110.26V110.415L33.3292 110.609C33.5542 110.784 33.489 110.959 33.2974 111.473L33.2775 111.526L32.1017 114.602C31.9983 114.86 31.8821 115.17 31.8821 115.248C31.8821 115.61 32.3731 115.959 32.8253 115.959C33.8331 115.972 35.5258 114.111 35.5258 112.676ZM46.7282 111.358L47.9298 110.26V110.105H47.1287L46.4181 111.358H46.7282ZM46.806 114.498H47.0645C46.5735 115.416 45.9791 115.972 45.4106 115.959C44.9196 115.959 44.6094 115.61 44.6094 114.951C44.6094 113.555 45.7465 111.81 46.7414 111.81C47.31 111.81 47.8139 112.237 47.4004 113.219L45.2943 113.917C45.2555 114.098 45.2297 114.305 45.2297 114.498C45.2297 114.977 45.4106 115.196 45.7723 115.196C46.1212 115.196 46.483 114.886 46.806 114.498ZM46.7402 113.103C46.8693 112.612 46.6239 112.392 46.3396 112.392C46.0295 112.392 45.6419 112.844 45.4352 113.452L46.7402 113.103ZM42.9271 112.418H42.2293V112.095L43.095 111.979L43.8186 110.881H44.2192L43.8315 111.979H44.8523L44.7231 112.418H43.6765L42.6557 115.274C43.1209 115.197 43.7411 114.758 44.0254 114.357H44.2192C43.8574 115.313 42.9141 115.985 42.1259 115.985C41.8546 115.985 41.7125 115.727 41.8158 115.468L42.9271 112.418ZM41.87 112.754C42.0121 112.263 41.9346 111.824 41.5599 111.824C41.0926 111.824 40.9463 112.133 40.4934 113.088L40.4616 113.155V112.586C40.4616 112.186 40.3324 111.824 39.9706 111.824C39.5443 111.824 39.1566 112.483 38.8594 113.142H39.0533C39.26 112.845 39.4538 112.664 39.5959 112.664C39.7768 112.664 39.8802 112.948 39.5959 113.569L38.769 115.404C38.6139 115.753 38.7819 115.972 39.1179 115.972C39.3246 115.972 39.415 115.921 39.5055 115.701L40.3195 113.556C40.552 113.271 40.7588 113.026 41.0172 112.754H41.87ZM37.7744 113.103C37.9036 112.612 37.6581 112.392 37.3738 112.392C37.0637 112.392 36.689 112.844 36.4694 113.452L37.7744 113.103ZM38.0966 114.498H37.8382C37.5151 114.886 37.1533 115.196 36.8045 115.196C36.4427 115.196 36.2618 114.977 36.2618 114.498C36.2618 114.305 36.2877 114.098 36.3265 113.917L38.4325 113.219C38.846 112.237 38.355 111.81 37.7735 111.81C36.7786 111.81 35.6416 113.555 35.6416 114.951C35.6416 115.61 35.9517 115.959 36.4427 115.959C37.0112 115.972 37.6056 115.416 38.0966 114.498ZM32.6708 114.99C32.6708 115.158 32.9679 115.352 33.1747 115.352C34.0145 115.352 34.8027 113.84 34.7898 113C34.7898 112.716 34.6477 112.599 34.4539 112.599C34.1438 112.599 33.5752 113.065 33.2134 113.504L32.8775 114.409C32.7612 114.706 32.6708 114.938 32.6708 114.99ZM31.3143 111.824C31.4694 111.824 31.6502 111.979 31.5727 112.263L30.3323 115.3C30.6553 115.249 30.9913 114.938 31.1851 114.654H31.3789C31.0817 115.417 30.4098 115.972 29.8284 115.972C29.6733 115.972 29.4666 115.817 29.57 115.533L30.7329 112.496C30.4098 112.548 30.0739 112.858 29.8801 113.142H29.6863C29.9835 112.38 30.707 111.824 31.3143 111.824ZM25.9511 110.481H28.7291L28.6515 110.726C27.7083 110.894 27.5532 110.971 27.1656 112.018L26.3387 114.292C25.9381 115.378 26.0415 115.507 26.7522 115.507C27.6302 115.507 28.2059 114.869 28.7086 114.312C28.7459 114.27 28.7829 114.229 28.8195 114.189H29.1425L28.2251 115.817H24L24.0775 115.585C25.0078 115.417 25.1629 115.339 25.5505 114.292L26.3904 112.005C26.7651 110.958 26.6875 110.881 25.8735 110.713L25.9511 110.481Z" fill="black"/>
</svg>
