<svg width="282" height="150" viewBox="0 0 282 150" fill="none" xmlns="http://www.w3.org/2000/svg">
<rect width="282" height="150" fill="white"/>
<rect width="35.25" height="12.8182" transform="translate(22.8182 8)" fill="white"/>
<path d="M34.0419 18.8599C34.0462 18.8599 34.0505 18.8536 34.0505 18.8536C34.0845 18.8285 34.1185 18.797 34.1483 18.7593C34.144 18.7593 34.1398 18.7593 34.1355 18.7531C34.1058 18.7845 34.0717 18.8222 34.0419 18.8599Z" fill="#000091"/>
<path d="M38.7561 17.2716L38.6816 17.3357C38.7242 17.325 38.7561 17.3143 38.7561 17.2716Z" fill="#000091"/>
<path fill-rule="evenodd" clip-rule="evenodd" d="M37.232 18.894C37.3685 18.7567 37.505 18.611 37.6416 18.4612H37.6374C37.894 18.1699 38.1422 17.8911 38.4401 17.6372C38.5312 17.554 38.6181 17.4832 38.7008 17.425C38.713 17.4127 38.7192 17.3945 38.7253 17.3767C38.7316 17.3581 38.7378 17.3399 38.7505 17.3292C38.6915 17.3517 38.6445 17.3873 38.5972 17.4231C38.5483 17.4601 38.4991 17.4974 38.436 17.5207C38.4112 17.5207 38.3864 17.4957 38.4112 17.4707C38.4981 17.4083 38.585 17.3417 38.6677 17.2751H38.6512C38.6263 17.2751 38.6263 17.2502 38.6263 17.2252C38.3183 17.1763 38.0817 17.3869 37.87 17.5755L37.8567 17.5873C37.8238 17.6038 37.7926 17.5874 37.7682 17.5745C37.7558 17.5679 37.7451 17.5623 37.7367 17.5623C37.5494 17.6251 37.3878 17.7409 37.2251 17.8575C37.0753 17.9649 36.9246 18.0729 36.752 18.1408V18.0908C36.6934 18.111 36.6355 18.1374 36.5774 18.1638C36.492 18.2026 36.4062 18.2416 36.3175 18.2615C36.1556 18.299 36.0054 18.2942 35.8598 18.2895C35.812 18.288 35.7646 18.2864 35.7176 18.2864C35.4526 18.3127 35.1909 18.3695 34.9296 18.4262L34.8445 18.4446C34.8404 18.4467 34.8363 18.4477 34.8321 18.4487C34.828 18.4498 34.8238 18.4508 34.8197 18.4529C34.6625 18.4945 34.5177 18.5528 34.3728 18.636L34.3563 18.6443C34.3506 18.652 34.3449 18.6587 34.3396 18.665C34.3334 18.6724 34.3277 18.6792 34.3232 18.686C34.2735 18.7442 34.228 18.7942 34.1577 18.8316C34.0538 18.8839 33.964 18.9644 33.8757 19.0437C33.8374 19.0781 33.7992 19.1123 33.7605 19.1437C33.7522 19.1521 33.7356 19.1562 33.7232 19.1562C33.595 19.2811 33.4667 19.4059 33.3343 19.5266C33.326 19.5349 33.2888 19.5391 33.2598 19.5349C33.2598 19.5349 33.264 19.5349 33.264 19.5308L33.2764 19.5058L33.3384 19.4059C33.3508 19.3872 33.3622 19.3685 33.3736 19.3497C33.385 19.331 33.3964 19.3123 33.4088 19.2936C33.4418 19.2437 33.475 19.1936 33.5122 19.1479C33.5205 19.1354 33.5205 19.1229 33.5122 19.1146C33.5039 19.1063 33.4915 19.1021 33.4791 19.1021C33.5991 18.9856 33.7398 18.8857 33.8846 18.7983V18.7942C33.8681 18.7983 33.8432 18.7858 33.8556 18.7692C33.8678 18.7539 33.8777 18.7364 33.887 18.72L33.897 18.7026C33.8991 18.6984 33.9001 18.6953 33.9012 18.6922C33.9022 18.6891 33.9032 18.686 33.9053 18.6818C33.9032 18.6776 33.9001 18.6745 33.897 18.6714C33.8939 18.6683 33.8908 18.6651 33.8887 18.661L33.8636 18.6775C33.8337 18.6972 33.8028 18.7173 33.777 18.7401C33.7588 18.7558 33.7417 18.7774 33.7242 18.7995C33.6863 18.8475 33.6462 18.8982 33.5867 18.8982C33.5826 18.8982 33.5619 18.8982 33.5495 18.894C33.537 18.894 33.5288 18.8899 33.5246 18.8857C33.5246 18.8836 33.5246 18.8826 33.5251 18.8821C33.5257 18.8816 33.5267 18.8816 33.5288 18.8816C33.5288 18.8816 33.5329 18.8774 33.5329 18.8732C33.5329 18.8732 33.5329 18.8691 33.537 18.8691C33.5391 18.8649 33.5412 18.8618 33.5432 18.8587C33.5453 18.8555 33.5474 18.8524 33.5495 18.8483C33.5515 18.8441 33.5536 18.841 33.5557 18.8379C33.5577 18.8347 33.5598 18.8316 33.5619 18.8275C33.5639 18.8254 33.565 18.8222 33.566 18.8191C33.567 18.816 33.5681 18.8129 33.5701 18.8108L33.5748 18.8022C33.5789 18.7949 33.5838 18.7862 33.5867 18.7775C33.5888 18.7734 33.5908 18.7702 33.5929 18.7671C33.595 18.764 33.597 18.7609 33.5991 18.7567C33.6053 18.7484 33.6105 18.739 33.6157 18.7297C33.6208 18.7203 33.626 18.7109 33.6322 18.7026C33.6363 18.6943 33.6405 18.686 33.6488 18.6776C33.6529 18.6693 33.657 18.662 33.6612 18.6547C33.6653 18.6475 33.6694 18.6402 33.6736 18.6319C33.686 18.611 33.6736 18.5944 33.657 18.5902C33.7025 18.532 33.7563 18.482 33.8225 18.4446H33.8143C33.8714 18.4158 33.9301 18.3822 33.9885 18.3488C34.0229 18.3291 34.0578 18.3091 34.0915 18.2906C34.1039 18.2781 34.1163 18.2656 34.1329 18.2573C33.9963 18.3031 33.8722 18.3655 33.7522 18.4487C33.7522 18.4487 33.7191 18.4612 33.7108 18.4695C33.7108 18.4695 33.686 18.4779 33.6529 18.4487C33.6488 18.4446 33.6488 18.4404 33.6488 18.4321C33.6631 18.4032 33.6928 18.384 33.7249 18.3633C33.7481 18.3483 33.7727 18.3324 33.7936 18.3114C33.8184 18.3114 33.8391 18.3114 33.8391 18.3364C34.3156 17.9627 34.9032 17.8763 35.4928 17.7895C35.8554 17.7362 36.2188 17.6827 36.5575 17.5623C36.5927 17.5373 36.6289 17.5134 36.6651 17.4895C36.7013 17.4655 36.7375 17.4416 36.7727 17.4166C36.833 17.3915 36.8871 17.3485 36.9444 17.3029C37.001 17.2579 37.0607 17.2104 37.1327 17.1753C37.323 17.0296 37.4678 16.8631 37.5423 16.6176C37.5423 16.5926 37.5175 16.5676 37.5175 16.5676C37.203 16.9047 36.843 17.1711 36.4582 17.3667C36.0913 17.5603 35.6981 17.589 35.3089 17.6174C35.1627 17.6281 35.017 17.6387 34.8735 17.658C34.8983 17.6081 34.948 17.6081 34.9935 17.6081C34.9935 17.549 35.0218 17.5236 35.0581 17.4909C35.0679 17.4822 35.0782 17.4729 35.0887 17.4624H35.159C35.1714 17.4624 35.1776 17.4499 35.1838 17.4374C35.19 17.425 35.1962 17.4125 35.2087 17.4125C35.2583 17.4125 35.3286 17.3875 35.3038 17.3875C35.2659 17.3387 35.2107 17.358 35.1499 17.3793C35.0913 17.3998 35.0275 17.4222 34.9687 17.3875C34.9905 17.3635 34.9971 17.3347 35.0031 17.3085C35.0096 17.2801 35.0154 17.2548 35.039 17.2418H35.1342C35.1342 17.1919 35.1838 17.1461 35.1838 17.1461C35.3996 17.0164 35.608 16.9031 35.8125 16.7919C35.9491 16.7177 36.084 16.6443 36.2182 16.5676C36.1911 16.5676 36.167 16.5788 36.1437 16.5896C36.1065 16.6069 36.0711 16.6233 36.0279 16.5926C36.0527 16.5926 36.0527 16.5749 36.0527 16.5572C36.0527 16.5395 36.0527 16.5219 36.0776 16.5219C36.2328 16.4804 36.3709 16.4132 36.512 16.3445C36.6117 16.2961 36.7128 16.2469 36.8223 16.2056C36.7898 16.2056 36.7597 16.2143 36.7303 16.2229C36.6738 16.2393 36.6202 16.2549 36.5575 16.2056C36.574 16.1973 36.5872 16.1868 36.6003 16.1763C36.6268 16.1553 36.6525 16.1348 36.7023 16.1348V16.0641C36.7023 16.0391 36.7272 16.0391 36.752 16.0391C36.7272 16.0391 36.7023 16.0141 36.7023 16.0141C36.7155 15.9877 36.7414 15.9823 36.7702 15.9762C36.7958 15.9708 36.8238 15.9649 36.8472 15.9434C36.8223 15.9434 36.7768 15.9434 36.7768 15.9184C36.8472 15.8227 36.9671 15.7977 37.0871 15.7728C37.0747 15.7478 37.0509 15.7478 37.0302 15.7478C37.0096 15.7478 36.992 15.7478 36.992 15.7228C36.992 15.6978 37.0168 15.6978 37.0416 15.6978H36.992C36.953 15.6782 36.9599 15.6433 36.9647 15.6191C36.966 15.6124 36.9671 15.6066 36.9671 15.6021C37.0643 15.4876 37.0963 15.3524 37.1281 15.2181C37.1437 15.1522 37.1592 15.0866 37.1823 15.0236C37.1575 15.0236 37.1327 15.0236 37.1327 14.9987C36.9 15.2569 36.5312 15.3547 36.1809 15.4477L36.1479 15.4565H36.0279C35.9079 15.5064 35.7383 15.5064 35.6183 15.4315C35.5612 15.4016 35.5205 15.3641 35.4766 15.3237C35.4472 15.2967 35.4164 15.2684 35.3783 15.2401C35.1838 15.1194 34.9935 15.0236 34.7783 14.9487C34.1784 14.7573 33.5536 14.6574 32.9288 14.6824C33.1033 14.5864 33.2885 14.5483 33.4763 14.5096C33.5735 14.4896 33.6714 14.4694 33.7688 14.441C33.8302 14.4229 33.8911 14.4042 33.9516 14.3857C34.2948 14.2805 34.6277 14.1784 34.9935 14.1996C34.9456 14.1826 34.8843 14.1888 34.8279 14.1944C34.8014 14.1971 34.776 14.1996 34.7535 14.1996C34.4769 14.179 34.1975 14.2406 33.906 14.3049C33.8443 14.3185 33.782 14.3322 33.7191 14.3453C33.6049 14.369 33.4964 14.4032 33.3876 14.4373C33.2678 14.475 33.1478 14.5127 33.0198 14.5367C32.9643 14.5559 32.9198 14.5885 32.8763 14.6202C32.8065 14.6713 32.7397 14.7202 32.635 14.7074V14.6324C32.875 14.3411 33.1647 14.054 33.5495 14.029C33.9214 13.9684 34.2721 14.0116 34.638 14.0566C34.6995 14.0641 34.7614 14.0718 34.8238 14.0789C35.1238 14.1031 35.4044 14.17 35.7068 14.2421L35.7383 14.2496C35.8045 14.2496 35.8417 14.3078 35.8778 14.3643C35.9071 14.4101 35.9356 14.4548 35.9783 14.466C36.0372 14.4863 36.0961 14.4901 36.155 14.4939C36.2409 14.4994 36.3268 14.5049 36.4127 14.5617C36.4127 14.5449 36.4099 14.5286 36.4071 14.5124C36.4016 14.4805 36.3962 14.4492 36.4127 14.416C36.4661 14.3623 36.5273 14.3767 36.5875 14.3909C36.6347 14.402 36.6812 14.413 36.723 14.3911C36.8542 14.3096 36.7312 14.1846 36.608 14.0595C36.5486 13.9992 36.4892 13.9388 36.4582 13.8833C36.4582 13.8584 36.483 13.8334 36.483 13.8334C36.5374 13.8821 36.588 13.9325 36.6382 13.9825C36.7638 14.1076 36.8867 14.2299 37.0582 14.3162C37.1782 14.3661 37.4678 14.4368 37.4182 14.2912C37.3332 14.1025 37.188 13.9389 37.0414 13.7738C36.981 13.7058 36.9204 13.6375 36.8637 13.567V13.4713C36.826 13.4713 36.8169 13.4569 36.8057 13.439C36.8021 13.4334 36.7983 13.4274 36.7934 13.4214V13.3257C36.7327 13.2938 36.7191 13.2434 36.7055 13.1927C36.6977 13.1638 36.6899 13.1349 36.6734 13.1093C36.6319 13.042 36.6289 12.9593 36.6258 12.8741C36.6234 12.8063 36.6209 12.7368 36.5989 12.6723C36.5492 12.5266 36.5286 12.4059 36.5037 12.2603C36.4768 12.1112 36.4472 11.9688 36.4181 11.8293C36.3669 11.5831 36.3176 11.3462 36.2886 11.0991C36.2503 10.746 36.4286 10.4474 36.6109 10.1421C36.6649 10.0516 36.7193 9.96054 36.7685 9.86728C36.9382 9.57596 37.1285 9.2888 37.443 9.0932C37.5116 8.80907 37.6983 8.57244 37.884 8.33699L37.8981 8.31912C38.0814 8.09063 38.3876 7.95094 38.6133 7.848L38.6388 7.83636C38.9739 7.68654 39.276 7.59082 39.2801 7.59082H22.6592V20.4047H34.4515C34.7668 20.1761 35.0803 20.0319 35.4534 19.8602C35.6236 19.7818 35.8063 19.6978 36.0072 19.5974C36.0498 19.576 36.1003 19.5511 36.1565 19.5235C36.4932 19.3578 37.0298 19.0938 37.232 18.894ZM33.4901 17.1652C33.4434 17.1699 33.3937 17.1749 33.4125 17.1373C33.4298 17.0531 33.5161 17.0279 33.6003 17.0032C33.6364 16.9926 33.6721 16.9822 33.7018 16.9673L33.7154 16.9602L33.7254 16.955C33.772 16.9302 33.8291 16.8998 33.8713 16.9175C33.8998 16.9579 33.935 16.9683 33.9692 16.9785C33.9947 16.986 34.0196 16.9934 34.0408 17.0129C33.9514 17.1026 33.847 17.1115 33.7412 17.1205C33.6709 17.1264 33.6 17.1324 33.5324 17.1622C33.5202 17.1622 33.5053 17.1637 33.4901 17.1652ZM29.8295 16.58C29.8295 16.605 29.8543 16.63 29.8543 16.63C30.4336 15.9766 30.9591 15.4189 31.7038 14.9569C31.7238 14.9486 31.7164 14.959 31.7065 14.9729C31.6918 14.9935 31.6717 15.0218 31.7287 15.0069C31.9752 14.9507 32.086 14.7394 32.1937 14.534C32.2216 14.4808 32.2492 14.4281 32.279 14.3785C32.392 14.1947 32.5524 14.077 32.7142 13.9583C32.8308 13.8728 32.948 13.7867 33.0486 13.6751C33.0486 13.7001 33.0486 13.7251 33.0238 13.75C33.0486 13.775 33.0734 13.775 33.0982 13.775C33.1419 13.7421 33.1895 13.7285 33.2352 13.7154C33.2934 13.6987 33.3484 13.683 33.3879 13.6294C33.1975 13.5544 32.9534 13.5295 32.7631 13.6044C32.2583 13.8458 31.828 14.2328 31.4183 14.6698C31.1701 14.932 30.9136 15.1775 30.5991 15.3481C30.3839 15.781 30.144 16.168 29.8295 16.58ZM31.8495 15.0322C31.8365 15.0582 31.8236 15.0718 31.8112 15.0847C31.7999 15.0965 31.7891 15.1078 31.7792 15.1276C31.7544 15.1774 31.7296 15.1981 31.6841 15.223C31.6593 15.223 31.6345 15.223 31.6345 15.1981C31.6593 15.1027 31.7296 15.0073 31.8247 14.9824C31.8495 14.9866 31.8495 15.0115 31.8495 15.0322ZM32.9076 18.7281C32.9282 18.7073 32.953 18.6823 32.9654 18.6573C32.9861 18.6074 32.8579 18.6199 32.8373 18.6324C32.8185 18.6475 32.8066 18.6626 32.7922 18.6808L32.7877 18.6865C32.7704 18.7063 32.7503 18.7247 32.7298 18.7433C32.7159 18.756 32.7018 18.7687 32.6885 18.7822C32.6306 18.8405 32.5727 18.8987 32.5107 18.9528C32.4694 18.9903 32.6017 19.0069 32.6306 18.9819C32.6637 18.957 32.6926 18.9278 32.7215 18.8987C32.7326 18.8987 32.7436 18.8969 32.7509 18.8956L32.756 18.8948L32.7587 18.8946C32.8273 18.8716 32.8783 18.8239 32.9279 18.7774L32.9406 18.7655C32.9572 18.7489 32.9365 18.7322 32.9076 18.7281ZM32.5335 18.4575C32.533 18.4575 32.5327 18.4577 32.5324 18.4579C32.5319 18.4584 32.5319 18.4594 32.5319 18.4615C32.5065 18.4789 32.4815 18.4967 32.4565 18.5143C32.3918 18.5601 32.3275 18.6056 32.2588 18.6446C32.1932 18.6816 32.1259 18.7136 32.058 18.7458C32.0189 18.7643 31.9796 18.783 31.9402 18.8028C31.9402 18.8028 31.9402 18.7986 31.9361 18.7986C31.9278 18.7861 31.9113 18.782 31.8947 18.7903C31.8037 18.8402 31.7251 18.9068 31.6547 18.9776C31.6423 18.9859 31.6299 18.9984 31.6216 19.0109L31.5844 19.0483V19.0525C31.5678 19.0691 31.5513 19.0858 31.5306 19.1108C31.5263 19.1151 31.523 19.1194 31.5198 19.1236C31.5138 19.1314 31.5083 19.1386 31.4975 19.144C31.481 19.1524 31.4396 19.1524 31.4437 19.1274V19.1232C31.4313 19.1316 31.4148 19.1399 31.4023 19.144C31.3961 19.1482 31.3899 19.1513 31.3837 19.1544C31.3775 19.1576 31.3713 19.1607 31.3651 19.1649C31.361 19.1607 31.3527 19.1607 31.3485 19.1607C31.3444 19.1607 31.3361 19.1607 31.332 19.1649C31.3223 19.1732 31.3127 19.181 31.303 19.1889C31.2837 19.2046 31.2644 19.2203 31.2451 19.2398C31.1955 19.2855 31.1499 19.3355 31.1044 19.3896C31.1044 19.3896 31.1044 19.3937 31.1003 19.3937C31.1003 19.3958 31.0993 19.3969 31.0982 19.3979C31.0972 19.3989 31.0962 19.4 31.0962 19.4021L31.0879 19.4104C31.0863 19.412 31.0853 19.4136 31.0845 19.4149C31.0831 19.4171 31.0822 19.4187 31.0796 19.4187L31.0755 19.4229C31.0713 19.4312 31.0672 19.4395 31.0589 19.4479C31.0548 19.452 31.0465 19.4562 31.0382 19.4562C31.0341 19.452 31.03 19.4479 31.03 19.4437C31.0279 19.4416 31.0268 19.4395 31.0258 19.4374C31.0248 19.4354 31.0237 19.4333 31.0217 19.4312C31.0175 19.425 31.0144 19.4187 31.0113 19.4125C31.0082 19.4062 31.0051 19.4 31.001 19.3937V19.3896C31.001 19.3875 31 19.3854 30.9989 19.3833C30.9979 19.3813 30.9969 19.3792 30.9969 19.3771L31.0713 19.2897L31.0755 19.2855C31.0796 19.2814 31.0837 19.2762 31.0879 19.271C31.092 19.2658 31.0962 19.2606 31.1003 19.2564C31.1065 19.2481 31.1137 19.2398 31.121 19.2314C31.1282 19.2231 31.1355 19.2148 31.1417 19.2065C31.1437 19.2023 31.1458 19.1992 31.1479 19.1961C31.1499 19.1929 31.152 19.1898 31.1541 19.1857C31.1789 19.1524 31.2037 19.1191 31.2286 19.0816V19.0775C31.2327 19.0733 31.2368 19.0691 31.2368 19.0608C31.2492 19.0442 31.2617 19.0275 31.2699 19.0109L31.2948 18.9609V18.9568L31.2989 18.9526C31.2989 18.9505 31.2999 18.9495 31.301 18.9484C31.302 18.9474 31.303 18.9464 31.303 18.9443C31.3072 18.9339 31.3113 18.9245 31.3154 18.9152C31.3196 18.9058 31.3237 18.8964 31.3279 18.886V18.8819L31.332 18.8652C31.3341 18.861 31.3351 18.8569 31.3361 18.8527C31.3372 18.8486 31.3382 18.8444 31.3403 18.8402V18.8361C31.3423 18.8298 31.3434 18.8236 31.3444 18.8173C31.3454 18.8111 31.3465 18.8049 31.3485 18.7986C31.3485 18.7945 31.3485 18.7861 31.3444 18.782C31.3692 18.7362 31.4023 18.6946 31.4396 18.653C31.4375 18.653 31.4354 18.654 31.4334 18.655C31.4322 18.6556 31.431 18.6562 31.4298 18.6566C31.4289 18.6569 31.428 18.6571 31.4272 18.6571C31.4087 18.6687 31.3929 18.6841 31.3768 18.6999C31.3639 18.7124 31.3508 18.7251 31.3361 18.7362C31.3113 18.757 31.2617 18.7237 31.2948 18.6987C31.3154 18.6821 31.332 18.6655 31.3485 18.6488C31.3485 18.6488 31.3485 18.6446 31.3527 18.6446C31.3692 18.6297 31.385 18.6128 31.401 18.5957C31.4251 18.57 31.4495 18.544 31.4768 18.5239C31.5058 18.5031 31.5265 18.4865 31.5513 18.4657C31.5554 18.4615 31.5596 18.4574 31.5637 18.4574C31.5803 18.4366 31.5968 18.4157 31.6175 18.3949C31.6175 18.3949 31.6216 18.3949 31.6216 18.3908C31.7637 18.253 31.9634 18.2044 32.1672 18.1547C32.2957 18.1234 32.4259 18.0918 32.5443 18.037C32.6112 18.0092 32.6858 18.0201 32.7595 18.031C32.8181 18.0396 32.876 18.0481 32.9291 18.037C32.9995 18.037 33.0739 18.037 33.1443 18.087C32.9807 18.1741 32.8245 18.2737 32.6701 18.3723C32.6253 18.4008 32.5806 18.4293 32.5361 18.4574C32.5349 18.4574 32.5341 18.4574 32.5335 18.4575ZM33.0505 16.7612C33.0311 16.7635 33.0186 16.7649 33.0293 16.7757C33.0997 16.8465 33.2445 16.8215 33.3438 16.7674C33.4141 16.7175 33.4886 16.7175 33.5838 16.7175C33.6086 16.7175 33.6086 16.6717 33.6086 16.6467C33.679 16.6717 33.7286 16.6717 33.799 16.6717C34.3741 16.551 34.9285 16.4303 35.4581 16.164C34.9223 15.7499 34.2616 15.5655 33.6145 15.3848C33.5071 15.3548 33.4001 15.325 33.2942 15.2942C33.3175 15.2942 33.3407 15.3019 33.3642 15.3097C33.4115 15.3255 33.4595 15.3415 33.5093 15.2942C33.4437 15.2418 33.3706 15.2318 33.2982 15.2219C33.2383 15.2137 33.1789 15.2055 33.1245 15.1735C33.1302 15.1735 33.1369 15.1748 33.1443 15.1762C33.169 15.181 33.2005 15.187 33.2197 15.1485C33.094 15.0853 32.9683 15.0638 32.8414 15.0422C32.7762 15.031 32.7106 15.0198 32.6445 15.0028C32.7645 14.9779 32.839 14.8822 32.839 14.7615C32.839 14.7365 32.7894 14.7365 32.7645 14.7365C32.479 14.8822 32.2846 15.1485 32.1646 15.4606C32.2728 15.5243 32.3893 15.5169 32.5036 15.5097C32.5686 15.5056 32.6327 15.5015 32.6942 15.5106C32.6399 15.5621 32.5615 15.5761 32.4862 15.5896C32.4581 15.5946 32.4304 15.5995 32.4046 15.6063C32.3301 15.6229 32.2597 15.677 32.2846 15.727C32.3011 15.7478 32.3177 15.7561 32.3384 15.7603C32.2846 15.7769 32.2349 15.8019 32.1894 15.8477C32.2575 15.9013 32.3278 15.8909 32.3971 15.8807C32.4246 15.8767 32.452 15.8726 32.479 15.8726C32.479 15.9029 32.4989 15.9131 32.5195 15.9238C32.5301 15.9293 32.5409 15.9349 32.5494 15.9434C32.4294 15.9892 32.3342 16.0891 32.3094 16.1598C32.2797 16.2319 32.225 16.2787 32.1707 16.3252C32.1341 16.3565 32.0977 16.3876 32.0694 16.4262V16.5011C31.9895 16.5719 31.9073 16.6352 31.8263 16.6976C31.6599 16.8258 31.4982 16.9503 31.3702 17.1295C31.395 17.1295 31.395 17.1545 31.395 17.1794C31.3721 17.214 31.3395 17.2379 31.3086 17.2606C31.2725 17.2871 31.2387 17.3119 31.2253 17.3501C31.2253 17.375 31.2253 17.4 31.2502 17.4C31.402 17.3498 31.5334 17.2653 31.6621 17.1825C31.779 17.1073 31.8938 17.0335 32.0198 16.988C32.1227 16.9632 32.2124 16.9165 32.2998 16.871C32.374 16.8323 32.4467 16.7945 32.5246 16.7716C32.5846 16.7591 32.6508 16.7414 32.717 16.7237C32.7832 16.706 32.8494 16.6883 32.9094 16.6759C32.9094 16.7008 32.9094 16.7258 32.9342 16.7258H33.1245C33.1128 16.7541 33.0758 16.7583 33.0505 16.7612Z" fill="#000091"/>
<path d="M57.9091 7.59082H44.1259C44.1259 7.59082 44.1509 7.59499 44.2551 7.64916C44.3676 7.7075 44.5134 7.78668 44.6009 7.83252C44.7801 7.92419 44.9509 8.04087 45.0634 8.22006C45.1134 8.2909 45.1843 8.43675 45.1384 8.5326C45.0884 8.65345 45.0634 8.8493 44.9426 8.89514C44.7968 8.97015 44.6051 8.97015 44.4343 8.94515C44.3384 8.94515 44.2426 8.92014 44.1426 8.89514C44.5051 9.04099 44.8468 9.21185 45.0884 9.54939C45.1134 9.59939 45.2093 9.62023 45.3051 9.62023C45.3301 9.62023 45.3301 9.67023 45.3301 9.69107C45.2801 9.74107 45.2343 9.76608 45.2593 9.83692H45.3301C45.4509 9.78691 45.4259 9.54522 45.5968 9.62023C45.7176 9.69107 45.7676 9.86192 45.6926 9.98277C45.5968 10.0786 45.5009 10.1536 45.4009 10.2245C45.3759 10.2745 45.3759 10.3453 45.4009 10.3953C45.4718 10.4912 45.4968 10.587 45.5218 10.687C45.5968 10.8579 45.6176 11.0496 45.6926 11.2204C45.7884 11.583 45.8843 11.9455 45.8634 12.3122C45.8634 12.5039 45.7676 12.6748 45.8384 12.8706C45.8884 13.0623 46.0093 13.2082 46.1051 13.379C46.2009 13.5249 46.2968 13.6207 46.3718 13.7666C46.5176 14.0082 46.7842 14.2499 46.6634 14.5416C46.5926 14.7125 46.3259 14.6875 46.1551 14.7833C46.0093 14.9042 46.1301 15.1 46.2051 15.2209C46.3259 15.4376 46.0593 15.5834 45.8884 15.6584C45.9384 15.7334 46.0343 15.7084 46.0593 15.7543C46.0843 15.8751 46.2051 15.946 46.1301 16.071C46.0343 16.2168 45.7426 16.2877 45.8884 16.5085C45.9843 16.6794 45.9218 16.8669 45.8634 17.0419C45.7926 17.2586 45.5968 17.3545 45.4259 17.4045C45.2801 17.4545 45.1093 17.4545 44.9676 17.4295C44.9176 17.4045 44.8718 17.3795 44.8218 17.3795C44.4093 17.3295 43.9968 17.2128 43.5885 17.2128C43.4676 17.2378 43.3468 17.2586 43.251 17.3086C43.1426 17.3878 43.0426 17.4753 42.9593 17.567C42.9593 17.567 42.9593 17.567 42.9551 17.5712C42.9385 17.592 42.9176 17.6087 42.901 17.6295C42.8926 17.642 42.8801 17.6545 42.8718 17.667C42.8635 17.6753 42.8593 17.6837 42.851 17.692C42.7801 17.7795 42.7176 17.8754 42.6593 17.9712C42.6551 17.9795 42.651 17.9837 42.6468 17.9879C42.6426 18.0004 42.6343 18.0087 42.626 18.0212C42.5468 18.1671 42.4885 18.3171 42.4426 18.4671C42.276 19.0213 42.351 19.4964 42.4676 19.6131C42.501 19.6464 43.2676 19.8839 43.801 20.1215C44.0509 20.234 44.2259 20.3173 44.3718 20.409H57.9049V7.59082H57.9091Z" fill="#E1000F"/>
<path d="M44.9448 12.264C45.0404 12.289 45.1859 12.289 45.1859 12.3389C45.136 12.5304 44.8492 12.5803 44.7038 12.7759H44.629C44.5583 12.8259 44.5791 12.9465 44.5085 12.9465C44.4378 12.9216 44.363 12.9465 44.2924 12.9715C44.3879 13.0672 44.5085 13.1421 44.6539 13.1172C44.6789 13.1172 44.7246 13.1671 44.7246 13.2129C44.7246 13.2129 44.7495 13.2129 44.7744 13.1879C44.7994 13.1879 44.8243 13.1879 44.8243 13.2129V13.3086C44.7537 13.4043 44.629 13.3586 44.5334 13.3794C44.7287 13.4293 44.9199 13.4293 45.0903 13.3794C45.2357 13.3294 45.0903 13.088 45.1859 12.9674C45.136 12.9674 45.1859 12.8924 45.136 12.8924C45.1859 12.8425 45.2316 12.7718 45.2814 12.7468C45.3313 12.7468 45.4019 12.7218 45.4269 12.6719C45.4269 12.6219 45.3313 12.6011 45.3521 12.5512C45.4975 12.4555 45.618 12.3098 45.5682 12.1641C45.5432 12.0892 45.3521 12.0892 45.2316 12.0435C45.111 11.9977 44.9656 12.0435 44.8201 12.0684C44.6996 12.0684 44.5791 12.1433 44.4586 12.1641C44.2882 12.2141 44.1428 12.3098 44.0015 12.4055C44.1719 12.3348 44.3381 12.3098 44.5334 12.2599C44.6789 12.264 44.7994 12.2307 44.9448 12.264Z" fill="#808080"/>
<path d="M24.1385 37.0908H25.9587V30.6561L27.9583 34.0145H29.2401L31.2398 30.6561V37.0908H33.06V28.1181H30.7911L28.5992 31.8866L26.4073 28.1181H24.1385V37.0908ZM35.7565 37.0908H37.5767V28.1181H35.7565V37.0908ZM40.2769 37.0908H42.0971V30.6048L46.1092 37.0908H48.4421V28.1181H46.6219V34.6041L42.6098 28.1181H40.2769V37.0908ZM51.1438 37.0908H52.964V28.1181H51.1438V37.0908ZM54.8567 35.8475C55.6514 36.796 56.664 37.3472 58.1766 37.3472C59.8301 37.3472 61.1376 36.3345 61.1632 34.6425C61.1632 31.5662 57.087 32.0276 57.087 30.3997C57.087 29.8614 57.51 29.4512 58.151 29.4512C58.8303 29.4512 59.42 29.8998 59.9455 30.5792L61.2786 29.3743C60.5095 28.4642 59.484 27.8617 58.1381 27.8617C56.4205 27.8617 55.2412 29.041 55.2412 30.4638C55.2412 33.5017 59.3174 33.0531 59.3174 34.7066C59.3174 35.3475 58.8816 35.7321 58.1638 35.7321C57.4331 35.7321 56.7153 35.3219 56.177 34.6297L54.8567 35.8475ZM62.2785 29.7716H65.0472V37.0908H66.8674V29.7716H69.6361V28.1181H62.2785V29.7716ZM73.2345 27.349H74.9008L73.4524 25.6185H71.5809L73.2345 27.349ZM71.4271 37.0908H76.6569V35.5783H73.2473V33.271H76.1442V31.7585H73.2473V29.6306H76.6569V28.1181H71.4271V37.0908ZM78.9643 37.0908H80.7845V33.4633H81.7202L84.1172 37.0908H86.2578L83.4506 33.1172C84.3736 32.6942 84.8991 31.8866 84.8991 30.7971C84.8991 29.1307 83.6814 28.1181 81.7074 28.1181H78.9643V37.0908ZM81.8099 29.6306C82.579 29.6306 83.0276 30.0921 83.0276 30.7715C83.0276 31.5021 82.579 31.9507 81.8099 31.9507H80.7845V29.6306H81.8099ZM87.603 37.0908H92.8329V35.5783H89.4232V33.271H92.3201V31.7585H89.4232V29.6306H92.8329V28.1181H87.603V37.0908ZM24.1385 50.0908H27.6635C30.5091 50.0908 32.4319 48.0271 32.4319 45.6045C32.4319 43.1818 30.5091 41.1181 27.6635 41.1181H24.1385V50.0908ZM27.6891 42.7716C29.3555 42.7716 30.5604 44.0022 30.5604 45.6045C30.5604 47.1939 29.3555 48.4373 27.6891 48.4373H25.9587V42.7716H27.6891ZM34.3795 50.0908H39.6094V48.5783H36.1997V46.271H39.0966V44.7585H36.1997V42.6306H39.6094V41.1181H34.3795V50.0908ZM45.4357 50.0908H50.6655V48.4373H47.2559V41.1181H45.4357V50.0908ZM51.7197 50.0908H53.6553L54.5141 47.7579H58.1032L58.962 50.0908H60.8976L57.5007 41.1181H55.1166L51.7197 50.0908ZM55.0781 46.2069L56.3086 42.8357L57.5392 46.2069H55.0781ZM65.0715 42.7716H67.8402V50.0908H69.6604V42.7716H72.4291V41.1181H65.0715V42.7716ZM74.22 50.0908H76.0402V46.4633H76.976L79.373 50.0908H81.5136L78.7064 46.1172C79.6293 45.6942 80.1549 44.8866 80.1549 43.7971C80.1549 42.1307 78.9371 41.1181 76.9631 41.1181H74.22V50.0908ZM77.0657 42.6306C77.8348 42.6306 78.2834 43.0921 78.2834 43.7715C78.2834 44.5021 77.8348 44.9507 77.0657 44.9507H76.0402V42.6306H77.0657ZM82.1189 50.0908H84.0544L84.9132 47.7579H88.5023L89.3611 50.0908H91.2967L87.8999 41.1181H85.5157L82.1189 50.0908ZM85.4772 46.2069L86.7078 42.8357L87.9383 46.2069H85.4772ZM92.8745 50.0908H94.6947V43.6048L98.7068 50.0908H101.04V41.1181H99.2195V47.6041L95.2074 41.1181H92.8745V50.0908ZM102.934 48.8475C103.729 49.796 104.741 50.3472 106.254 50.3472C107.907 50.3472 109.215 49.3345 109.24 47.6425C109.24 44.5662 105.164 45.0276 105.164 43.3997C105.164 42.8614 105.587 42.4512 106.228 42.4512C106.908 42.4512 107.497 42.8998 108.023 43.5792L109.356 42.3743C108.587 41.4642 107.561 40.8617 106.215 40.8617C104.498 40.8617 103.318 42.041 103.318 43.4638C103.318 46.5017 107.395 46.0531 107.395 47.7066C107.395 48.3475 106.959 48.7321 106.241 48.7321C105.51 48.7321 104.793 48.3219 104.254 47.6297L102.934 48.8475ZM111.341 50.0908H113.161V41.1181H111.341V50.0908ZM114.939 42.7716H117.707V50.0908H119.528V42.7716H122.296V41.1181H114.939V42.7716ZM124.087 50.0908H125.907V41.1181H124.087V50.0908ZM132.607 40.8617C129.774 40.8617 127.839 43.0408 127.839 45.6045C127.839 48.1681 129.774 50.3472 132.607 50.3472C135.427 50.3472 137.363 48.1681 137.363 45.6045C137.363 43.0408 135.427 40.8617 132.607 40.8617ZM132.607 48.6424C130.915 48.6424 129.71 47.3221 129.71 45.6045C129.71 43.8868 130.915 42.5665 132.607 42.5665C134.286 42.5665 135.491 43.8868 135.491 45.6045C135.491 47.3221 134.286 48.6424 132.607 48.6424ZM139.299 50.0908H141.12V43.6048L145.132 50.0908H147.465V41.1181H145.644V47.6041L141.632 41.1181H139.299V50.0908ZM27.561 53.349L29.2273 51.6185H27.3559L25.9074 53.349H27.561ZM24.1385 63.0908H29.3683V61.5783H25.9587V59.271H28.8556V57.7585H25.9587V55.6306H29.3683V54.1181H24.1385V63.0908ZM35.4747 61.6424C33.7827 61.6424 32.5778 60.3221 32.5778 58.6045C32.5778 56.8868 33.7827 55.5665 35.4747 55.5665C36.5001 55.5665 37.3077 56.0665 37.8204 56.7971L39.2561 55.6819C38.4357 54.5924 37.1026 53.8617 35.4747 53.8617C32.6419 53.8617 30.7063 56.0408 30.7063 58.6045C30.7063 61.1681 32.6419 63.3472 35.4747 63.3472C37.1026 63.3472 38.4357 62.6294 39.2561 61.5142L37.8204 60.4118C37.3077 61.1425 36.5001 61.6424 35.4747 61.6424ZM44.9647 53.8617C42.1318 53.8617 40.1963 56.0408 40.1963 58.6045C40.1963 61.1681 42.1318 63.3472 44.9647 63.3472C47.7847 63.3472 49.7202 61.1681 49.7202 58.6045C49.7202 56.0408 47.7847 53.8617 44.9647 53.8617ZM44.9647 61.6424C43.2727 61.6424 42.0677 60.3221 42.0677 58.6045C42.0677 56.8868 43.2727 55.5665 44.9647 55.5665C46.6438 55.5665 47.8487 56.8868 47.8487 58.6045C47.8487 60.3221 46.6438 61.6424 44.9647 61.6424ZM51.657 63.0908H56.8869V61.4373H53.4772V54.1181H51.657V63.0908ZM62.3548 53.8617C59.522 53.8617 57.5865 56.0408 57.5865 58.6045C57.5865 61.1681 59.522 63.3472 62.3548 63.3472C65.1748 63.3472 67.1104 61.1681 67.1104 58.6045C67.1104 56.0408 65.1748 53.8617 62.3548 53.8617ZM62.3548 61.6424C60.6628 61.6424 59.4579 60.3221 59.4579 58.6045C59.4579 56.8868 60.6628 55.5665 62.3548 55.5665C64.034 55.5665 65.2389 56.8868 65.2389 58.6045C65.2389 60.3221 64.034 61.6424 62.3548 61.6424ZM73.4 61.6424C71.6439 61.6424 70.3749 60.3221 70.3749 58.6045C70.3749 56.8868 71.5798 55.5665 73.2718 55.5665C74.2973 55.5665 75.1048 56.0665 75.6175 56.7971L77.0532 55.6819C76.2328 54.5924 74.8997 53.8617 73.2718 53.8617C70.439 53.8617 68.5034 56.0408 68.5034 58.6045C68.5034 61.1681 70.4903 63.3472 73.4 63.3472C75.0792 63.3472 76.4764 62.6294 77.3095 61.5142V57.7456H73.2077V59.2966H75.4894V60.8605C74.9766 61.3475 74.246 61.6424 73.4 61.6424ZM79.5261 63.0908H81.3463V54.1181H79.5261V63.0908ZM91.5708 62.8601L91.0324 62.3474C92.1348 61.4757 92.8013 60.1042 92.8013 58.6045C92.8013 56.0408 90.8658 53.8617 88.0458 53.8617C85.2129 53.8617 83.2774 56.0408 83.2774 58.6045C83.2774 61.1681 85.2129 63.3472 88.0458 63.3472C88.4816 63.3472 88.8918 63.2959 89.2763 63.1934L90.3402 64.1419C91.2247 64.911 92.1476 65.3212 93.1474 65.3212C93.5448 65.3212 93.8011 65.2699 94.0959 65.1545V63.6164C93.9037 63.6933 93.6473 63.7189 93.455 63.7189C92.8782 63.7189 92.2629 63.4882 91.5708 62.8601ZM88.0458 61.6424C86.3538 61.6424 85.1489 60.3221 85.1489 58.6045C85.1489 56.8868 86.3538 55.5665 88.0458 55.5665C89.7249 55.5665 90.9299 56.8868 90.9299 58.6045C90.9299 60.3221 89.7249 61.6424 88.0458 61.6424ZM100.03 59.7325C100.03 60.9374 99.3375 61.6424 98.2223 61.6424C97.0815 61.6424 96.4021 60.9374 96.4021 59.7325V54.1181H94.5819V59.5786C94.5819 61.9372 95.9663 63.3472 98.2095 63.3472C100.465 63.3472 101.85 61.9372 101.85 59.5786V54.1181H100.03V59.7325ZM104.303 63.0908H109.533V61.5783H106.123V59.271H109.02V57.7585H106.123V55.6306H109.533V54.1181H104.303V63.0908ZM24.1385 75.0908H29.3683V73.5783H25.9587V71.271H28.8556V69.7585H25.9587V67.6306H29.3683V66.1181H24.1385V75.0908ZM30.9406 67.7716H33.7093V75.0908H35.5295V67.7716H38.2982V66.1181H30.9406V67.7716ZM43.6081 75.0908H47.1331C49.9788 75.0908 51.9015 73.0271 51.9015 70.6045C51.9015 68.1818 49.9788 66.1181 47.1331 66.1181H43.6081V75.0908ZM47.1588 67.7716C48.8251 67.7716 50.03 69.0022 50.03 70.6045C50.03 72.1939 48.8251 73.4373 47.1588 73.4373H45.4283V67.7716H47.1588ZM53.8492 75.0908H59.079V73.5783H55.6693V71.271H58.5662V69.7585H55.6693V67.6306H59.079V66.1181H53.8492V75.0908ZM64.9053 75.0908H70.1352V73.4373H66.7255V66.1181H64.9053V75.0908ZM71.1894 75.0908H73.1249L73.9837 72.7579H77.5728L78.4316 75.0908H80.3672L76.9704 66.1181H74.5862L71.1894 75.0908ZM74.5477 71.2069L75.7783 67.8357L77.0088 71.2069H74.5477ZM89.4633 73.6424C87.7713 73.6424 86.5664 72.3221 86.5664 70.6045C86.5664 68.8868 87.7713 67.5665 89.4633 67.5665C90.4887 67.5665 91.2963 68.0665 91.809 68.7971L93.2446 67.6819C92.4243 66.5924 91.0912 65.8617 89.4633 65.8617C86.6304 65.8617 84.6949 68.0408 84.6949 70.6045C84.6949 73.1681 86.6304 75.3472 89.4633 75.3472C91.0912 75.3472 92.4243 74.6294 93.2446 73.5142L91.809 72.4118C91.2963 73.1425 90.4887 73.6424 89.4633 73.6424ZM98.9532 65.8617C96.1204 65.8617 94.1849 68.0408 94.1849 70.6045C94.1849 73.1681 96.1204 75.3472 98.9532 75.3472C101.773 75.3472 103.709 73.1681 103.709 70.6045C103.709 68.0408 101.773 65.8617 98.9532 65.8617ZM98.9532 73.6424C97.2612 73.6424 96.0563 72.3221 96.0563 70.6045C96.0563 68.8868 97.2612 67.5665 98.9532 67.5665C100.632 67.5665 101.837 68.8868 101.837 70.6045C101.837 72.3221 100.632 73.6424 98.9532 73.6424ZM105.646 75.0908H107.466V71.3479H111.991V75.0908H113.811V66.1181H111.991V69.6944H107.466V66.1181H105.646V75.0908ZM119.935 65.349L121.601 63.6185H119.73L118.281 65.349H119.935ZM116.513 75.0908H121.742V73.5783H118.333V71.271H121.23V69.7585H118.333V67.6306H121.742V66.1181H116.513V75.0908ZM123.242 73.8475C124.037 74.796 125.05 75.3472 126.562 75.3472C128.216 75.3472 129.523 74.3345 129.549 72.6425C129.549 69.5662 125.473 70.0276 125.473 68.3997C125.473 67.8614 125.896 67.4512 126.536 67.4512C127.216 67.4512 127.805 67.8998 128.331 68.5792L129.664 67.3743C128.895 66.4642 127.87 65.8617 126.524 65.8617C124.806 65.8617 123.627 67.041 123.627 68.4638C123.627 71.5017 127.703 71.0531 127.703 72.7066C127.703 73.3475 127.267 73.7321 126.549 73.7321C125.819 73.7321 125.101 73.3219 124.562 72.6297L123.242 73.8475ZM131.65 75.0908H133.47V66.1181H131.65V75.0908ZM140.169 65.8617C137.336 65.8617 135.401 68.0408 135.401 70.6045C135.401 73.1681 137.336 75.3472 140.169 75.3472C142.989 75.3472 144.925 73.1681 144.925 70.6045C144.925 68.0408 142.989 65.8617 140.169 65.8617ZM140.169 73.6424C138.477 73.6424 137.272 72.3221 137.272 70.6045C137.272 68.8868 138.477 67.5665 140.169 67.5665C141.848 67.5665 143.053 68.8868 143.053 70.6045C143.053 72.3221 141.848 73.6424 140.169 73.6424ZM146.862 75.0908H148.682V68.6048L152.694 75.0908H155.027V66.1181H153.207V72.6041L149.194 66.1181H146.862V75.0908ZM24.1385 88.0908H27.6635C30.5091 88.0908 32.4319 86.0271 32.4319 83.6045C32.4319 81.1818 30.5091 79.1181 27.6635 79.1181H24.1385V88.0908ZM27.6891 80.7716C29.3555 80.7716 30.5604 82.0022 30.5604 83.6045C30.5604 85.1939 29.3555 86.4373 27.6891 86.4373H25.9587V80.7716H27.6891ZM34.3795 88.0908H39.6094V86.5783H36.1997V84.271H39.0966V82.7585H36.1997V80.6306H39.6094V79.1181H34.3795V88.0908ZM41.1092 86.8475C41.9039 87.796 42.9165 88.3472 44.4291 88.3472C46.0826 88.3472 47.3901 87.3345 47.4157 85.6425C47.4157 82.5662 43.3395 83.0276 43.3395 81.3997C43.3395 80.8614 43.7625 80.4512 44.4035 80.4512C45.0828 80.4512 45.6725 80.8998 46.198 81.5792L47.5311 80.3743C46.762 79.4642 45.7365 78.8617 44.3906 78.8617C42.673 78.8617 41.4937 80.041 41.4937 81.4638C41.4937 84.5017 45.5699 84.0531 45.5699 85.7066C45.5699 86.3475 45.1341 86.7321 44.4163 86.7321C43.6856 86.7321 42.9678 86.3219 42.4295 85.6297L41.1092 86.8475ZM52.1126 80.7716H54.8813V88.0908H56.7015V80.7716H59.4702V79.1181H52.1126V80.7716ZM61.2612 88.0908H66.491V86.5783H63.0813V84.271H65.9783V82.7585H63.0813V80.6306H66.491V79.1181H61.2612V88.0908ZM68.7984 88.0908H70.6185V84.4633H71.5543L73.9513 88.0908H76.0919L73.2847 84.1172C74.2076 83.6942 74.7332 82.8866 74.7332 81.7971C74.7332 80.1307 73.5154 79.1181 71.5414 79.1181H68.7984V88.0908ZM71.644 80.6306C72.4131 80.6306 72.8617 81.0921 72.8617 81.7715C72.8617 82.5021 72.4131 82.9507 71.644 82.9507H70.6185V80.6306H71.644ZM77.4371 88.0908H79.2573V84.4633H80.193L82.59 88.0908H84.7307L81.9235 84.1172C82.8464 83.6942 83.3719 82.8866 83.3719 81.7971C83.3719 80.1307 82.1542 79.1181 80.1802 79.1181H77.4371V88.0908ZM80.2827 80.6306C81.0518 80.6306 81.5005 81.0921 81.5005 81.7715C81.5005 82.5021 81.0518 82.9507 80.2827 82.9507H79.2573V80.6306H80.2827ZM86.0759 88.0908H87.896V79.1181H86.0759V88.0908ZM89.6734 80.7716H92.4421V88.0908H94.2623V80.7716H97.031V79.1181H89.6734V80.7716ZM102.408 78.8617C99.5753 78.8617 97.6398 81.0408 97.6398 83.6045C97.6398 86.1681 99.5753 88.3472 102.408 88.3472C105.228 88.3472 107.164 86.1681 107.164 83.6045C107.164 81.0408 105.228 78.8617 102.408 78.8617ZM102.408 86.6424C100.716 86.6424 99.5112 85.3221 99.5112 83.6045C99.5112 81.8868 100.716 80.5665 102.408 80.5665C104.087 80.5665 105.292 81.8868 105.292 83.6045C105.292 85.3221 104.087 86.6424 102.408 86.6424ZM109.101 88.0908H110.921V79.1181H109.101V88.0908ZM113.621 88.0908H115.441V84.4633H116.377L118.774 88.0908H120.914L118.107 84.1172C119.03 83.6942 119.556 82.8866 119.556 81.7971C119.556 80.1307 118.338 79.1181 116.364 79.1181H113.621V88.0908ZM116.467 80.6306C117.236 80.6306 117.684 81.0921 117.684 81.7715C117.684 82.5021 117.236 82.9507 116.467 82.9507H115.441V80.6306H116.467ZM122.26 88.0908H127.49V86.5783H124.08V84.271H126.977V82.7585H124.08V80.6306H127.49V79.1181H122.26V88.0908ZM128.989 86.8475C129.784 87.796 130.797 88.3472 132.309 88.3472C133.963 88.3472 135.27 87.3345 135.296 85.6425C135.296 82.5662 131.22 83.0276 131.22 81.3997C131.22 80.8614 131.643 80.4512 132.284 80.4512C132.963 80.4512 133.553 80.8998 134.078 81.5792L135.411 80.3743C134.642 79.4642 133.617 78.8617 132.271 78.8617C130.553 78.8617 129.374 80.041 129.374 81.4638C129.374 84.5017 133.45 84.0531 133.45 85.7066C133.45 86.3475 133.014 86.7321 132.296 86.7321C131.566 86.7321 130.848 86.3219 130.31 85.6297L128.989 86.8475Z" fill="#161616"/>
<path fill-rule="evenodd" clip-rule="evenodd" d="M56.1241 112.11L54.9319 113.2H54.6242L55.3293 111.957H56.1241V112.11ZM55.2652 116.327H55.0088C54.6883 116.711 54.3294 117.019 53.9832 117.019C53.6243 117.019 53.4448 116.801 53.4448 116.327C53.4448 116.135 53.4704 115.93 53.5089 115.75L55.5986 115.058C56.0088 114.084 55.5216 113.661 54.9447 113.661C53.9576 113.661 52.8294 115.391 52.8294 116.775C52.8294 117.429 53.1371 117.788 53.6243 117.788C54.1883 117.775 54.7781 117.224 55.2652 116.327ZM54.5481 114.225C54.8301 114.225 55.0737 114.443 54.9455 114.943L53.6507 115.289C53.8558 114.674 54.2404 114.225 54.5481 114.225ZM50.4719 114.25H51.1642L50.0617 117.275C49.9591 117.532 50.1002 117.788 50.3694 117.788C51.1514 117.788 52.0873 117.122 52.4462 116.173H52.2539C51.9719 116.57 51.3565 117.006 50.895 117.083L51.9078 114.25H52.9462L53.0744 113.815H52.0616L52.4462 112.725H52.0488L51.3309 113.815L50.4719 113.93V114.25ZM49.5097 113.674C49.6507 113.674 49.843 113.828 49.7533 114.11L48.5098 117.122C48.8303 117.071 49.1636 116.763 49.3559 116.481H49.561C49.2661 117.238 48.5995 117.789 48.0226 117.789C47.8816 117.789 47.6765 117.635 47.779 117.353L48.9328 114.341C48.6123 114.392 48.279 114.7 48.0867 114.982H47.8944C48.1893 114.213 48.9072 113.674 49.5097 113.674ZM49.8695 112.905C50.1259 112.905 50.3439 112.7 50.3439 112.431C50.3439 112.174 50.1259 111.957 49.8695 111.957C49.6003 111.957 49.3952 112.174 49.3952 112.431C49.3952 112.687 49.6131 112.905 49.8695 112.905ZM44.267 115.405C44.549 114.79 44.4465 114.508 44.267 114.508C44.1132 114.508 43.9337 114.674 43.7542 114.982H43.5619C43.8568 114.328 44.2414 113.674 44.6644 113.674C45.0234 113.674 45.1516 114.033 45.1516 114.431V114.995C45.2093 114.928 45.2655 114.862 45.3203 114.797L45.3214 114.796L45.3221 114.795C45.8638 114.16 46.2773 113.674 46.7541 113.674C47.1259 113.674 47.3182 113.905 47.3182 114.251C47.3182 114.456 47.2541 114.713 47.113 114.982L46.049 117.122C46.3695 117.071 46.7028 116.763 46.8951 116.481H47.0874C46.7925 117.25 46.0746 117.789 45.4721 117.789C45.2029 117.789 45.049 117.507 45.1644 117.276L46.3951 114.905C46.5361 114.636 46.5618 114.456 46.3438 114.456C46.049 114.456 45.3567 114.943 44.9849 115.392L44.1773 117.52C44.0875 117.738 43.9978 117.789 43.7927 117.789C43.4593 117.789 43.2927 117.571 43.4465 117.225L44.267 115.405ZM43.4327 114.584C43.5738 114.097 43.4968 113.661 43.1251 113.661C42.6614 113.661 42.5162 113.967 42.0669 114.915L42.0354 114.981V114.417C42.0354 114.02 41.9072 113.661 41.5482 113.661C41.1251 113.661 40.7405 114.315 40.4457 114.968H40.638C40.8431 114.673 41.0354 114.494 41.1892 114.494C41.3687 114.494 41.4713 114.776 41.1892 115.391L40.3688 117.211C40.2149 117.557 40.3816 117.775 40.7149 117.775C40.92 117.775 41.0098 117.724 41.0995 117.506L41.9072 115.378C42.1379 115.096 42.343 114.853 42.5994 114.584H43.4327ZM39.3819 114.943C39.5101 114.443 39.2665 114.225 38.9845 114.225C38.6768 114.225 38.2922 114.674 38.0871 115.289L39.3819 114.943ZM39.7016 116.327H39.4452C39.1247 116.711 38.7658 117.019 38.4196 117.019C38.0607 117.019 37.8812 116.801 37.8812 116.327C37.8812 116.135 37.9068 115.93 37.9453 115.75L40.0349 115.058C40.4452 114.084 39.958 113.661 39.3811 113.661C38.394 113.661 37.2658 115.391 37.2658 116.775C37.2658 117.429 37.5735 117.788 38.0607 117.788C38.6247 117.775 39.2145 117.224 39.7016 116.327ZM35.6006 114.25H34.9083V113.93L35.7673 113.815L36.4852 112.725H36.8826L36.498 113.815H37.5108L37.3826 114.25H36.3442L35.3314 117.083C35.7929 117.006 36.4083 116.57 36.6903 116.173H36.8826C36.5236 117.122 35.5878 117.788 34.8058 117.788C34.5365 117.788 34.3955 117.532 34.4981 117.275L35.6006 114.25ZM31.2424 116.596C31.2424 115.661 32.2809 114.405 32.8578 114.405C32.986 114.405 33.1142 114.417 33.2167 114.456L32.6142 116.071C32.268 116.494 31.7296 117.007 31.4732 117.007C31.3322 117.007 31.2424 116.878 31.2424 116.596ZM34.1016 113.469L34.4221 113.495L33.3068 116.058C33.0376 116.673 33.1529 116.955 33.3068 116.955C33.4606 116.955 33.6529 116.776 33.858 116.481H34.0503C33.7555 117.135 33.3709 117.788 32.9478 117.788C32.5889 117.788 32.3709 117.404 32.435 116.712L32.4607 116.468L32.3908 116.566C31.9316 117.208 31.5161 117.788 31.0889 117.788C30.7171 117.788 30.5248 117.558 30.5248 117.212C30.5248 115.725 32.153 113.828 33.6786 113.828H33.7427L34.1016 113.469ZM31.165 114.584C31.3061 114.097 31.2291 113.661 30.8573 113.661C30.3937 113.661 30.2485 113.967 29.7992 114.915L29.7676 114.981V114.417C29.7676 114.02 29.6394 113.661 29.2805 113.661C28.8574 113.661 28.4728 114.315 28.178 114.968H28.3703C28.5754 114.673 28.7677 114.494 28.9087 114.494C29.0882 114.494 29.1907 114.776 28.9087 115.391L28.0882 117.224C27.9344 117.57 28.101 117.788 28.4344 117.788C28.6395 117.788 28.7292 117.737 28.819 117.519L29.6266 115.391C29.8574 115.109 30.0625 114.866 30.3189 114.597H31.165V114.584ZM25.8822 117.403L25.8053 117.633H22.8182L22.8952 117.39C23.8182 117.223 23.972 117.146 24.3566 116.108L25.1899 113.878C25.5617 112.84 25.4848 112.763 24.6771 112.596L24.7541 112.366H28.6385L28.4078 113.609H28.1257C28.1257 112.865 28.0488 112.673 27.3437 112.673H27.1642C26.4719 112.673 26.3822 112.776 26.1899 113.314L25.6386 114.814H26.4463C26.9848 114.814 27.1899 114.48 27.4335 114.045H27.7155L27.0489 115.865H26.7668C26.8309 115.314 26.8309 115.096 26.3309 115.096H25.5233L25.1515 116.121C24.7496 117.188 24.8644 117.21 25.8214 117.391C25.8413 117.395 25.8616 117.399 25.8822 117.403Z" fill="black"/>
<path fill-rule="evenodd" clip-rule="evenodd" d="M28.4206 102.305L27.2283 103.164V103.177H26.9206L27.6257 102.151H28.4206V102.305ZM36.755 108.319L38.6653 103.241L38.6012 103.164L37.2807 103.318V103.471L37.5371 103.664C37.756 103.834 37.698 103.993 37.5164 104.49L37.4858 104.574L36.0243 108.473C35.9089 108.704 36.0627 108.986 36.332 108.986C36.9345 108.986 37.5755 108.435 37.8704 107.678H37.6781C37.473 107.96 37.0627 108.268 36.755 108.319ZM45.5105 104.408L46.7028 103.318V103.164H45.9079L45.2028 104.408H45.5105ZM45.5866 107.524H45.843C45.3686 108.435 44.7789 108.986 44.2148 108.986C43.7276 108.986 43.4199 108.627 43.4199 107.973C43.4199 106.588 44.5481 104.856 45.5353 104.856C46.0994 104.856 46.5994 105.28 46.1891 106.254L44.0866 106.947C44.0481 107.126 44.0225 107.332 44.0225 107.524C44.0225 107.998 44.202 108.217 44.5609 108.217C44.9071 108.217 45.2661 107.909 45.5866 107.524ZM45.5219 106.139C45.6501 105.652 45.4065 105.434 45.1244 105.434C44.8295 105.434 44.4449 105.882 44.227 106.485L45.5219 106.139ZM41.7526 105.459H41.0603V105.138L41.9193 105.023L42.6372 103.933H43.0347L42.6501 105.023H43.6629L43.5347 105.459H42.4962L41.4834 108.293C41.9449 108.216 42.5603 107.78 42.8424 107.383H43.0347C42.6757 108.332 41.7398 108.999 40.9578 108.999C40.6885 108.999 40.5475 108.742 40.6501 108.486L41.7526 105.459ZM40.3423 105.305C40.4192 105.023 40.2397 104.869 40.0859 104.869C39.4833 104.869 38.7654 105.42 38.4705 106.177H38.6628C38.8551 105.895 39.1885 105.587 39.509 105.536L38.3551 108.55C38.2526 108.832 38.4577 108.986 38.5987 108.986C39.1756 108.986 39.8423 108.434 40.1372 107.678H39.9449C39.7526 107.96 39.4192 108.268 39.0987 108.319L40.3423 105.305ZM40.933 103.638C40.933 103.895 40.715 104.113 40.4586 104.113C40.2022 104.113 39.9843 103.895 39.9843 103.638C39.9843 103.382 40.1894 103.164 40.4586 103.164C40.715 103.164 40.933 103.382 40.933 103.638ZM34.46 105.613C33.8831 105.613 32.8446 106.87 32.8446 107.806C32.8446 108.088 32.9344 108.217 33.0882 108.217C33.3318 108.217 33.8703 107.704 34.2164 107.28L34.819 105.664C34.7036 105.626 34.5882 105.613 34.46 105.613ZM36.0244 104.703L35.7039 104.677L35.3449 105.036H35.2808C33.7552 105.036 32.127 106.934 32.127 108.422C32.127 108.768 32.3193 108.999 32.6911 108.999C33.1183 108.999 33.5338 108.418 33.9931 107.775L34.0629 107.678L34.0373 107.922C33.9732 108.614 34.1911 108.999 34.5501 108.999C34.9731 108.999 35.3578 108.345 35.6526 107.691H35.4603C35.2552 107.986 35.0629 108.165 34.909 108.165C34.7552 108.165 34.6398 107.883 34.909 107.268L36.0244 104.703ZM29.5622 108.858C29.0109 109.076 28.6263 109.332 28.6263 109.73C28.6263 110.102 28.9725 110.256 29.6904 110.256C30.6519 110.256 31.1776 109.974 31.1776 109.602C31.1776 109.435 30.9596 109.358 30.3827 109.166C30.0109 109.05 29.7417 108.948 29.5622 108.858ZM30.2024 107.28C29.946 107.28 29.8562 107.062 29.8562 106.832C29.8562 106.088 30.2152 105.164 30.7921 105.164C31.0485 105.164 31.1383 105.382 31.1383 105.613C31.1255 106.37 30.7665 107.28 30.2024 107.28ZM30.6908 108.486C31.396 108.704 31.8319 108.871 31.8319 109.358C31.8319 109.986 30.678 110.73 29.2806 110.717C28.4729 110.717 27.7806 110.499 27.7806 109.973C27.7806 109.473 28.2421 109.063 29.3703 108.729C29.2165 108.627 29.1524 108.499 29.1524 108.319C29.1524 108.011 29.4344 107.768 29.9216 107.537C29.4473 107.473 29.1396 107.114 29.1396 106.588C29.1396 105.78 29.8062 104.856 30.8575 104.856C31.0755 104.856 31.2678 104.908 31.4216 105.01H32.5755L32.4472 105.446H31.7678C31.8062 105.562 31.8319 105.69 31.8319 105.831C31.8319 106.613 31.2037 107.511 30.2037 107.562C29.9473 107.704 29.8191 107.896 29.8191 108.05C29.8191 108.231 30.0288 108.292 30.4923 108.427C30.5539 108.445 30.6201 108.465 30.6908 108.486ZM26.6259 106.293C27.1259 106.293 27.1387 106.511 27.0618 107.062H27.3438L28.0105 105.241H27.7285C27.4849 105.677 27.2797 106.011 26.7413 106.011H25.6387L26.1772 104.51C26.3695 103.972 26.4592 103.869 27.1515 103.869H27.6387C28.3438 103.869 28.4208 104.061 28.4208 104.805H28.7028L28.9336 103.561H24.7541L24.6772 103.792C25.4849 103.959 25.5618 104.036 25.19 105.075L24.3567 107.319C23.9721 108.358 23.8182 108.435 22.8823 108.601L22.8182 108.845H27.4592L28.2926 107.524H27.972C27.4336 108.05 26.8951 108.537 25.8439 108.537C24.6875 108.537 24.7081 108.481 25.0551 107.527C25.0774 107.466 25.1011 107.401 25.1259 107.332L25.5105 106.306H26.6259V106.293Z" fill="black"/>
<path fill-rule="evenodd" clip-rule="evenodd" d="M30.4554 95.3117C30.7117 95.3117 30.9295 95.0938 30.9295 94.8376C30.9295 94.5813 30.7117 94.3635 30.4554 94.3635C30.1862 94.3635 29.9812 94.5813 29.9812 94.8376C29.9812 95.1067 30.1862 95.3117 30.4554 95.3117ZM34.2502 96.9257C34.2502 96.3107 34.0964 96.0801 33.6606 96.0801C33.1224 96.0801 32.6226 96.6566 32.1228 97.3485L33.1993 94.4657L33.1352 94.376L31.8152 94.5298V94.6835L32.0715 94.8757C32.2947 95.0492 32.23 95.2227 32.0399 95.7327L32.0202 95.7854L30.854 98.8348C30.7515 99.091 30.6361 99.3985 30.6361 99.4754C30.6361 99.8341 31.1231 100.18 31.5717 100.18C32.5713 100.193 34.2502 98.3479 34.2502 96.9257ZM45.3614 95.6188L46.5532 94.5298V94.376H45.7587L45.0538 95.6188H45.3614ZM45.4386 98.7323H45.6949C45.2079 99.642 44.6184 100.193 44.0545 100.18C43.5675 100.18 43.2599 99.8341 43.2599 99.1807C43.2599 97.797 44.3877 96.0673 45.3745 96.0673C45.9384 96.0673 46.4382 96.4901 46.0281 97.4638L43.9391 98.1557C43.9007 98.3351 43.8751 98.5401 43.8751 98.7323C43.8751 99.2063 44.0545 99.4241 44.4133 99.4241C44.7593 99.4241 45.1182 99.1166 45.4386 98.7323ZM45.3732 97.3486C45.5014 96.8617 45.2579 96.6439 44.976 96.6439C44.6684 96.6439 44.2839 97.0923 44.0789 97.6945L45.3732 97.3486ZM41.5912 96.6702H40.8991V96.3499L41.7578 96.2346L42.4755 95.1455H42.8728L42.4883 96.2346H43.5007L43.3726 96.6702H42.3345L41.3221 99.5018C41.7834 99.4249 42.3986 98.9893 42.6805 98.5921H42.8728C42.5139 99.5402 41.5784 100.206 40.7966 100.206C40.5275 100.206 40.3865 99.9502 40.489 99.694L41.5912 96.6702ZM40.5427 97.0033C40.6837 96.5165 40.6068 96.0808 40.2351 96.0808C39.7716 96.0808 39.6265 96.3869 39.1774 97.334L39.1458 97.4005V96.8368C39.1458 96.4396 39.0177 96.0808 38.6588 96.0808C38.2359 96.0808 37.8514 96.7343 37.5567 97.3877H37.7489C37.954 97.093 38.1462 96.9136 38.2872 96.9136C38.4666 96.9136 38.5691 97.1955 38.2872 97.8105L37.467 99.6299C37.3132 99.9758 37.4798 100.194 37.813 100.194C38.018 100.194 38.1077 100.142 38.1975 99.9246L39.0048 97.7977C39.2355 97.5158 39.4406 97.2724 39.6969 97.0033H40.5427ZM36.4804 97.3486C36.6086 96.8617 36.3651 96.6439 36.0832 96.6439C35.7756 96.6439 35.4039 97.0923 35.1861 97.6945L36.4804 97.3486ZM36.8 98.7323H36.5437C36.2233 99.1166 35.8645 99.4241 35.5185 99.4241C35.1596 99.4241 34.9802 99.2063 34.9802 98.7323C34.9802 98.5401 35.0058 98.3351 35.0443 98.1557L37.1333 97.4638C37.5434 96.4901 37.0564 96.0673 36.4797 96.0673C35.4928 96.0673 34.3651 97.797 34.3651 99.1807C34.3651 99.8341 34.6726 100.18 35.1596 100.18C35.7235 100.193 36.313 99.642 36.8 98.7323ZM31.4184 99.2196C31.4184 99.3862 31.7132 99.5783 31.9182 99.5783C32.7512 99.5783 33.533 98.0793 33.5202 97.2465C33.5202 96.9646 33.3792 96.8493 33.187 96.8493C32.8794 96.8493 32.3155 97.3105 31.9567 97.7462L31.6235 98.643C31.5081 98.9377 31.4184 99.1683 31.4184 99.2196ZM30.073 96.0808C30.2268 96.0808 30.4062 96.2346 30.3293 96.5165L29.099 99.5274C29.4194 99.4761 29.7526 99.1686 29.9448 98.8868H30.1371C29.8423 99.6427 29.1759 100.194 28.5992 100.194C28.4454 100.194 28.2403 100.04 28.3429 99.758L29.4963 96.7471C29.1759 96.7983 28.8427 97.1058 28.6504 97.3877H28.4582C28.753 96.6318 29.4707 96.0808 30.073 96.0808ZM24.7534 94.7483H27.5088L27.4319 94.9917C26.4963 95.1583 26.3426 95.2352 25.9581 96.273L25.1379 98.528C24.7406 99.6042 24.8431 99.7323 25.548 99.7323C26.4188 99.7323 26.9899 99.0995 27.4885 98.547C27.5255 98.5059 27.5622 98.4653 27.5985 98.4255H27.9189L27.009 100.04H22.8182L22.8951 99.8092C23.8179 99.6427 23.9716 99.5658 24.3561 98.528L25.1891 96.2602C25.5608 95.2223 25.4839 95.1455 24.6765 94.9789L24.7534 94.7483Z" fill="black"/>
</svg>
