<svg width="282" height="150" viewBox="0 0 282 150" fill="none" xmlns="http://www.w3.org/2000/svg">
<rect width="282" height="150" fill="white"/>
<path d="M59.8333 8H24V21.0303H59.8333V8Z" fill="white"/>
<path d="M35.5741 19.4593C35.5785 19.4593 35.5828 19.4529 35.5828 19.4529C35.6174 19.4273 35.652 19.3953 35.6822 19.357C35.6779 19.357 35.6736 19.357 35.6693 19.3506C35.639 19.3826 35.6044 19.4209 35.5741 19.4593Z" fill="#000091"/>
<path d="M40.371 17.8442L40.2917 17.9124C40.337 17.9011 40.371 17.8897 40.371 17.8442Z" fill="#000091"/>
<path fill-rule="evenodd" clip-rule="evenodd" d="M38.8177 19.4941C38.9566 19.3544 39.0954 19.2063 39.2342 19.0539H39.2301C39.4909 18.7578 39.7433 18.4741 40.0462 18.216C40.1388 18.1314 40.2272 18.0595 40.3113 18.0002C40.3236 17.9878 40.33 17.9692 40.3362 17.9511C40.3426 17.9322 40.3489 17.9136 40.3618 17.9028C40.3018 17.9258 40.254 17.9619 40.206 17.9983C40.1562 18.036 40.1062 18.0739 40.0421 18.0975C40.0168 18.0975 39.9916 18.0722 40.0168 18.0468C40.1051 17.9833 40.1935 17.9155 40.2777 17.8478H40.2608C40.2356 17.8478 40.2356 17.8224 40.2356 17.7971C39.9224 17.7473 39.6818 17.9615 39.4664 18.1533L39.453 18.1653C39.4195 18.1821 39.3878 18.1654 39.3629 18.1522C39.3503 18.1456 39.3395 18.1399 39.331 18.1399C39.1405 18.2037 38.9762 18.3215 38.8108 18.4401C38.6584 18.5493 38.5052 18.6591 38.3297 18.7281V18.6773C38.2701 18.6979 38.2112 18.7247 38.1521 18.7515C38.0653 18.791 37.9781 18.8307 37.888 18.8509C37.7233 18.889 37.5705 18.8841 37.4225 18.8793C37.3739 18.8778 37.3258 18.8762 37.2779 18.8762C37.0085 18.9029 36.7424 18.9606 36.4767 19.0183L36.3902 19.0371C36.386 19.0391 36.3818 19.0402 36.3776 19.0413C36.3734 19.0423 36.3691 19.0434 36.365 19.0455C36.2051 19.0878 36.0579 19.1471 35.9105 19.2317L35.8937 19.2402C35.8879 19.248 35.8822 19.2548 35.8768 19.2612C35.8704 19.2687 35.8646 19.2756 35.8601 19.2825C35.8096 19.3418 35.7633 19.3925 35.6918 19.4306C35.5862 19.4837 35.4949 19.5657 35.405 19.6463C35.3661 19.6812 35.3273 19.7161 35.2879 19.748C35.2795 19.7565 35.2627 19.7607 35.25 19.7607C35.1196 19.8877 34.9892 20.0147 34.8546 20.1373C34.8462 20.1458 34.8083 20.15 34.7789 20.1458C34.7789 20.1458 34.783 20.1458 34.783 20.1416L34.7957 20.1162L34.8588 20.0147C34.8714 19.9956 34.883 19.9765 34.8945 19.9575C34.9061 19.9384 34.9177 19.9194 34.9303 19.9004C34.9639 19.8496 34.9976 19.7987 35.0355 19.7522C35.0439 19.7395 35.0439 19.7269 35.0355 19.7184C35.0271 19.7099 35.0145 19.7057 35.0018 19.7057C35.1238 19.5872 35.2668 19.4856 35.4141 19.3968V19.3925C35.3973 19.3968 35.3721 19.3841 35.3846 19.3671C35.397 19.3516 35.4071 19.3338 35.4166 19.3171L35.4267 19.2994C35.4288 19.2952 35.4299 19.292 35.431 19.2889C35.432 19.2857 35.433 19.2825 35.4351 19.2782C35.433 19.274 35.4299 19.2708 35.4267 19.2677C35.4236 19.2645 35.4204 19.2613 35.4183 19.2571L35.3928 19.2739C35.3623 19.2939 35.331 19.3144 35.3048 19.3375C35.2861 19.3535 35.2688 19.3755 35.2511 19.3979C35.2124 19.4467 35.1717 19.4983 35.1112 19.4983C35.107 19.4983 35.086 19.4983 35.0733 19.4941C35.0607 19.4941 35.0523 19.4899 35.0481 19.4856C35.0481 19.4835 35.0481 19.4824 35.0486 19.4819C35.0492 19.4814 35.0502 19.4814 35.0523 19.4814C35.0523 19.4814 35.0565 19.4772 35.0565 19.4729C35.0565 19.4729 35.0565 19.4687 35.0607 19.4687C35.0628 19.4645 35.0649 19.4613 35.067 19.4581C35.0691 19.4549 35.0713 19.4517 35.0733 19.4475C35.0754 19.4433 35.0775 19.4401 35.0797 19.437C35.0818 19.4338 35.0838 19.4306 35.086 19.4264C35.0881 19.4243 35.0891 19.4211 35.0902 19.4179C35.0912 19.4147 35.0922 19.4115 35.0944 19.4095L35.0991 19.4007C35.1033 19.3933 35.1083 19.3844 35.1112 19.3756C35.1133 19.3713 35.1154 19.3682 35.1175 19.365C35.1196 19.3618 35.1218 19.3586 35.1238 19.3544C35.1302 19.3459 35.1354 19.3364 35.1406 19.3269C35.1459 19.3174 35.1512 19.3079 35.1575 19.2994C35.1617 19.291 35.1659 19.2825 35.1743 19.274C35.1785 19.2655 35.1827 19.2582 35.1869 19.2508C35.1911 19.2433 35.1954 19.236 35.1995 19.2275C35.2122 19.2063 35.1995 19.1894 35.1827 19.1851C35.229 19.1259 35.2837 19.0751 35.351 19.0371H35.3426C35.4007 19.0078 35.4604 18.9736 35.5198 18.9397C35.5548 18.9196 35.5902 18.8993 35.6245 18.8804C35.6371 18.8677 35.6497 18.8551 35.6666 18.8466C35.5277 18.8931 35.4015 18.9567 35.2795 19.0413C35.2795 19.0413 35.2458 19.0539 35.2374 19.0624C35.2374 19.0624 35.2122 19.0709 35.1785 19.0413C35.1743 19.0371 35.1743 19.0328 35.1743 19.0244C35.1889 18.9949 35.2191 18.9754 35.2517 18.9544C35.2754 18.9391 35.3003 18.923 35.3216 18.9016C35.3468 18.9016 35.3678 18.9016 35.3678 18.927C35.8524 18.5471 36.4499 18.4592 37.0493 18.3709C37.418 18.3167 37.7875 18.2623 38.132 18.1399C38.1677 18.1144 38.2045 18.0901 38.2413 18.0658C38.2782 18.0415 38.315 18.0171 38.3507 17.9917C38.4121 17.9662 38.4671 17.9224 38.5253 17.8761C38.5829 17.8303 38.6436 17.782 38.7168 17.7463C38.9103 17.5982 39.0576 17.4289 39.1333 17.1792C39.1333 17.1538 39.1081 17.1284 39.1081 17.1284C38.7883 17.4712 38.4223 17.742 38.031 17.9409C37.6579 18.1378 37.2581 18.167 36.8624 18.1959C36.7137 18.2067 36.5656 18.2175 36.4196 18.2372C36.4449 18.1864 36.4953 18.1864 36.5417 18.1864C36.5417 18.1263 36.5705 18.1004 36.6074 18.0673C36.6172 18.0584 36.6277 18.049 36.6384 18.0383H36.71C36.7225 18.0383 36.7288 18.0256 36.7352 18.0129C36.7415 18.0002 36.7478 17.9875 36.7604 17.9875C36.8109 17.9875 36.8824 17.9621 36.8572 17.9621C36.8186 17.9125 36.7625 17.9322 36.7006 17.9538C36.6412 17.9746 36.5763 17.9974 36.5164 17.9621C36.5387 17.9377 36.5453 17.9084 36.5514 17.8817C36.558 17.8529 36.5639 17.8272 36.5879 17.814H36.6847C36.6847 17.7632 36.7352 17.7166 36.7352 17.7166C36.9546 17.5847 37.1665 17.4695 37.3744 17.3565C37.5133 17.281 37.6505 17.2064 37.787 17.1284C37.7593 17.1284 37.7349 17.1398 37.7111 17.1508C37.6733 17.1683 37.6374 17.185 37.5935 17.1538C37.6187 17.1538 37.6187 17.1358 37.6187 17.1178C37.6187 17.0998 37.6187 17.0819 37.644 17.0819C37.8018 17.0397 37.9422 16.9714 38.0858 16.9015C38.187 16.8523 38.2898 16.8022 38.4012 16.7602C38.3681 16.7602 38.3376 16.7691 38.3077 16.7778C38.2503 16.7945 38.1957 16.8104 38.132 16.7602C38.1487 16.7518 38.1622 16.7411 38.1755 16.7305C38.2024 16.7091 38.2286 16.6883 38.2792 16.6883V16.6164C38.2792 16.5909 38.3045 16.5909 38.3297 16.5909C38.3045 16.5909 38.2792 16.5655 38.2792 16.5655C38.2926 16.5387 38.3189 16.5332 38.3483 16.527C38.3743 16.5215 38.4027 16.5155 38.4265 16.4936C38.4012 16.4936 38.355 16.4936 38.355 16.4682C38.4265 16.3709 38.5485 16.3455 38.6705 16.3201C38.6579 16.2947 38.6337 16.2947 38.6126 16.2947C38.5916 16.2947 38.5737 16.2947 38.5737 16.2693C38.5737 16.2439 38.599 16.2439 38.6242 16.2439H38.5737C38.5341 16.224 38.5411 16.1884 38.546 16.1638C38.5473 16.157 38.5485 16.1512 38.5485 16.1466C38.6473 16.0301 38.6798 15.8927 38.7121 15.756C38.728 15.6891 38.7437 15.6223 38.7672 15.5584C38.742 15.5584 38.7168 15.5584 38.7168 15.5329C38.4802 15.7955 38.1052 15.895 37.7491 15.9895L37.7154 15.9985H37.5935C37.4714 16.0493 37.2989 16.0493 37.177 15.973C37.1189 15.9426 37.0775 15.9046 37.0328 15.8635C37.003 15.836 36.9717 15.8072 36.9329 15.7784C36.7352 15.6557 36.5417 15.5584 36.3229 15.4821C35.7128 15.2875 35.0775 15.186 34.4423 15.2113C34.6196 15.1137 34.8081 15.0749 34.9989 15.0356C35.0978 15.0153 35.1973 14.9947 35.2963 14.9659C35.3588 14.9474 35.4207 14.9285 35.4822 14.9096C35.8312 14.8026 36.1697 14.6988 36.5417 14.7204C36.493 14.7031 36.4306 14.7094 36.3733 14.7151C36.3463 14.7178 36.3205 14.7204 36.2976 14.7204C36.0164 14.6995 35.7324 14.7621 35.4359 14.8274C35.3731 14.8412 35.3098 14.8552 35.2458 14.8685C35.1298 14.8927 35.0193 14.9274 34.9088 14.9622C34.787 15.0004 34.665 15.0388 34.5348 15.0632C34.4784 15.0827 34.433 15.1158 34.3889 15.1481C34.3179 15.2 34.2499 15.2497 34.1436 15.2367V15.1605C34.3876 14.8643 34.682 14.5723 35.0733 14.5469C35.4516 14.4853 35.8082 14.5292 36.1802 14.575C36.2427 14.5826 36.3056 14.5904 36.3691 14.5977C36.6741 14.6222 36.9594 14.6902 37.2669 14.7636L37.2989 14.7712C37.3663 14.7712 37.4041 14.8304 37.4408 14.8878C37.4706 14.9345 37.4996 14.9799 37.543 14.9913C37.6029 15.0119 37.6627 15.0158 37.7227 15.0196C37.81 15.0252 37.8973 15.0308 37.9847 15.0886C37.9847 15.0715 37.9818 15.0549 37.979 15.0384C37.9734 15.006 37.968 14.9741 37.9847 14.9405C38.039 14.8859 38.1012 14.9005 38.1625 14.9149C38.2105 14.9262 38.2578 14.9374 38.3002 14.9151C38.4337 14.8322 38.3085 14.7051 38.1833 14.578C38.1229 14.5166 38.0625 14.4552 38.031 14.3988C38.031 14.3734 38.0562 14.348 38.0562 14.348C38.1115 14.3975 38.163 14.4488 38.214 14.4996C38.3417 14.6268 38.4667 14.7512 38.641 14.8389C38.7631 14.8897 39.0576 14.9616 39.0071 14.8135C38.9207 14.6217 38.773 14.4553 38.624 14.2874C38.5626 14.2182 38.501 14.1487 38.4433 14.0771V13.9798C38.4049 13.9798 38.3957 13.9652 38.3843 13.947C38.3807 13.9412 38.3769 13.9351 38.3718 13.929V13.8317C38.3101 13.7993 38.2963 13.748 38.2824 13.6965C38.2745 13.6671 38.2666 13.6377 38.2497 13.6116C38.2076 13.5433 38.2046 13.4592 38.2015 13.3725C38.1989 13.3035 38.1964 13.2329 38.174 13.1673C38.1235 13.0191 38.1025 12.8964 38.0773 12.7483C38.0499 12.5968 38.0198 12.4519 37.9902 12.31C37.9381 12.0597 37.888 11.8188 37.8585 11.5676C37.8195 11.2085 38.0009 10.9048 38.1862 10.5944C38.2412 10.5024 38.2965 10.4097 38.3466 10.3149C38.519 10.0187 38.7126 9.72665 39.0323 9.52775C39.1021 9.23882 39.2919 8.9982 39.4808 8.75877L39.4951 8.7406C39.6815 8.50825 39.9928 8.3662 40.2223 8.26152L40.2482 8.24969C40.5889 8.09734 40.8961 8 40.9003 8H24V21.0303H35.9905C36.3112 20.7978 36.6299 20.6511 37.0093 20.4765C37.1824 20.3969 37.3681 20.3114 37.5724 20.2093C37.6157 20.1876 37.6671 20.1622 37.7242 20.1341C38.0666 19.9657 38.6122 19.6972 38.8177 19.4941ZM35.013 17.7361C34.9655 17.7409 34.915 17.7459 34.9341 17.7077C34.9517 17.6221 35.0394 17.5964 35.1251 17.5713C35.1618 17.5606 35.198 17.55 35.2283 17.5348L35.2421 17.5276L35.2523 17.5223C35.2997 17.4971 35.3577 17.4662 35.4006 17.4842C35.4295 17.5253 35.4654 17.5359 35.5002 17.5462C35.5261 17.5539 35.5514 17.5614 35.5729 17.5812C35.482 17.6725 35.3759 17.6814 35.2683 17.6906C35.1968 17.6966 35.1248 17.7028 35.056 17.733C35.0436 17.733 35.0285 17.7345 35.013 17.7361ZM31.2908 17.141C31.2908 17.1664 31.3161 17.1918 31.3161 17.1918C31.9051 16.5274 32.4394 15.9603 33.1967 15.4905C33.217 15.482 33.2094 15.4926 33.1994 15.5067C33.1845 15.5277 33.164 15.5565 33.2219 15.5413C33.4726 15.4841 33.5853 15.2693 33.6948 15.0604C33.7231 15.0063 33.7512 14.9527 33.7815 14.9023C33.8964 14.7154 34.0596 14.5957 34.224 14.475C34.3426 14.388 34.4618 14.3005 34.5641 14.1871C34.5641 14.2125 34.5641 14.2378 34.5388 14.2632C34.5641 14.2886 34.5893 14.2886 34.6146 14.2886C34.6589 14.2551 34.7074 14.2413 34.7538 14.228C34.813 14.2111 34.869 14.1951 34.909 14.1405C34.7155 14.0643 34.4673 14.0389 34.2737 14.1151C33.7605 14.3606 33.3229 14.7541 32.9064 15.1985C32.6539 15.4651 32.3931 15.7148 32.0734 15.8883C31.8546 16.3284 31.6106 16.722 31.2908 17.141ZM33.3448 15.567C33.3316 15.5935 33.3184 15.6073 33.3059 15.6204C33.2944 15.6324 33.2834 15.644 33.2733 15.6641C33.2481 15.7147 33.2229 15.7358 33.1767 15.7611C33.1514 15.7611 33.1262 15.7611 33.1262 15.7358C33.1514 15.6388 33.2229 15.5417 33.3196 15.5164C33.3448 15.5206 33.3448 15.546 33.3448 15.567ZM34.4207 19.3254C34.4416 19.3042 34.4669 19.2788 34.4795 19.2534C34.5005 19.2026 34.3702 19.2153 34.3492 19.228C34.3301 19.2433 34.318 19.2587 34.3033 19.2773L34.2988 19.283C34.2812 19.3032 34.2607 19.3218 34.2399 19.3408C34.2257 19.3537 34.2115 19.3667 34.1979 19.3803C34.139 19.4396 34.0802 19.4989 34.0171 19.5538C33.9751 19.592 34.1096 19.6089 34.139 19.5835C34.1726 19.5581 34.2021 19.5285 34.2315 19.4989C34.2427 19.4989 34.2539 19.497 34.2614 19.4957L34.2665 19.4949L34.2693 19.4946C34.339 19.4712 34.3909 19.4227 34.4413 19.3755L34.4543 19.3634C34.4711 19.3465 34.45 19.3296 34.4207 19.3254ZM34.0402 19.0502C34.0398 19.0502 34.0395 19.0503 34.0392 19.0505C34.0387 19.0511 34.0387 19.0522 34.0387 19.0543C34.0129 19.072 33.9874 19.09 33.962 19.108C33.8962 19.1545 33.8308 19.2008 33.761 19.2405C33.6943 19.2781 33.6259 19.3106 33.5568 19.3433C33.517 19.3622 33.4771 19.3812 33.4371 19.4013C33.4371 19.4013 33.4371 19.3971 33.4328 19.3971C33.4244 19.3844 33.4076 19.3801 33.3908 19.3886C33.2982 19.4394 33.2183 19.5071 33.1468 19.5791C33.1342 19.5875 33.1215 19.6002 33.1131 19.6129L33.0752 19.651V19.6552C33.0584 19.6722 33.0416 19.6891 33.0206 19.7144C33.0162 19.7189 33.0128 19.7232 33.0096 19.7275C33.0035 19.7354 32.9979 19.7428 32.9869 19.7483C32.9701 19.7568 32.928 19.7568 32.9322 19.7314V19.7271C32.9196 19.7356 32.9028 19.7441 32.8901 19.7483C32.8838 19.7526 32.8775 19.7557 32.8712 19.7589C32.8649 19.7621 32.8586 19.7653 32.8523 19.7695C32.848 19.7653 32.8396 19.7653 32.8355 19.7653C32.8312 19.7653 32.8228 19.7653 32.8186 19.7695C32.8088 19.778 32.799 19.7859 32.7891 19.7939C32.7695 19.8099 32.7499 19.8259 32.7302 19.8457C32.6797 19.8922 32.6335 19.943 32.5872 19.998C32.5872 19.998 32.5872 20.0022 32.583 20.0022C32.583 20.0044 32.582 20.0054 32.5809 20.0064C32.5799 20.0076 32.5788 20.0086 32.5788 20.0107L32.5704 20.0192C32.5688 20.0208 32.5678 20.0224 32.5669 20.0238C32.5655 20.026 32.5646 20.0276 32.562 20.0276L32.5578 20.0319C32.5535 20.0403 32.5494 20.0488 32.5409 20.0573C32.5367 20.0615 32.5283 20.0657 32.5199 20.0657C32.5157 20.0615 32.5115 20.0573 32.5115 20.053C32.5094 20.0509 32.5083 20.0488 32.5073 20.0466C32.5062 20.0446 32.5051 20.0424 32.5031 20.0403C32.4989 20.034 32.4957 20.0276 32.4926 20.0213C32.4894 20.0149 32.4862 20.0086 32.482 20.0022V19.998C32.482 19.9959 32.481 19.9937 32.4799 19.9917C32.4789 19.9896 32.4778 19.9874 32.4778 19.9853L32.5535 19.8964L32.5578 19.8922C32.562 19.888 32.5662 19.8827 32.5704 19.8774C32.5746 19.8721 32.5788 19.8668 32.583 19.8626C32.5893 19.8541 32.5967 19.8457 32.604 19.8372C32.6114 19.8287 32.6188 19.8202 32.6251 19.8118C32.6272 19.8075 32.6293 19.8044 32.6314 19.8012C32.6335 19.798 32.6356 19.7949 32.6377 19.7907C32.6629 19.7568 32.6882 19.7229 32.7134 19.6849V19.6806C32.7177 19.6764 32.7218 19.6722 32.7218 19.6637C32.7345 19.6467 32.7471 19.6298 32.7555 19.6129L32.7807 19.5621V19.5579L32.785 19.5536C32.785 19.5516 32.786 19.5505 32.7871 19.5494C32.7881 19.5484 32.7891 19.5473 32.7891 19.5452C32.7934 19.5346 32.7975 19.5251 32.8018 19.5156C32.8059 19.5061 32.8102 19.4965 32.8144 19.486V19.4817L32.8186 19.4648C32.8207 19.4605 32.8218 19.4563 32.8228 19.4521C32.8239 19.4478 32.8249 19.4436 32.8271 19.4394V19.4351C32.8291 19.4288 32.8302 19.4224 32.8312 19.4161C32.8323 19.4098 32.8333 19.4034 32.8355 19.3971C32.8355 19.3928 32.8355 19.3844 32.8312 19.3801C32.8565 19.3336 32.8901 19.2913 32.928 19.2489C32.9259 19.2489 32.9238 19.25 32.9217 19.2511C32.9205 19.2517 32.9192 19.2523 32.9181 19.2527C32.9172 19.253 32.9162 19.2532 32.9154 19.2532C32.8966 19.265 32.8805 19.2807 32.8641 19.2966C32.851 19.3094 32.8377 19.3223 32.8228 19.3336C32.7975 19.3547 32.7471 19.3209 32.7807 19.2955C32.8018 19.2786 32.8186 19.2616 32.8354 19.2447C32.8354 19.2447 32.8355 19.2405 32.8396 19.2405C32.8564 19.2253 32.8725 19.2081 32.8888 19.1908C32.9132 19.1646 32.938 19.1381 32.9658 19.1178C32.9953 19.0966 33.0163 19.0797 33.0416 19.0585C33.0458 19.0543 33.05 19.05 33.0542 19.05C33.071 19.0288 33.0879 19.0077 33.1089 18.9866C33.1089 18.9866 33.1131 18.9866 33.1131 18.9823C33.2576 18.8422 33.4606 18.7927 33.6678 18.7423C33.7985 18.7105 33.9309 18.6783 34.0513 18.6226C34.1193 18.5943 34.1952 18.6054 34.2702 18.6164C34.3296 18.6252 34.3886 18.6338 34.4426 18.6226C34.5141 18.6226 34.5899 18.6226 34.6613 18.6734C34.495 18.762 34.3362 18.8633 34.1791 18.9635C34.1337 18.9926 34.0883 19.0216 34.0429 19.05C34.0417 19.05 34.0409 19.05 34.0402 19.0502ZM34.566 17.3253C34.5463 17.3275 34.5336 17.329 34.5445 17.34C34.616 17.412 34.7633 17.3866 34.8642 17.3315C34.9357 17.2808 35.0115 17.2808 35.1083 17.2808C35.1335 17.2808 35.1335 17.2342 35.1335 17.2088C35.205 17.2342 35.2555 17.2342 35.327 17.2342C35.9118 17.1115 36.4756 16.9888 37.0141 16.7179C36.4692 16.2968 35.7974 16.1093 35.1395 15.9256C35.0303 15.8951 34.9215 15.8648 34.8137 15.8334C34.8374 15.8334 34.8611 15.8413 34.885 15.8493C34.9331 15.8653 34.9819 15.8816 35.0325 15.8334C34.9658 15.7802 34.8914 15.77 34.8178 15.7599C34.7569 15.7515 34.6965 15.7433 34.6413 15.7107C34.647 15.7107 34.6539 15.712 34.6613 15.7135C34.6865 15.7183 34.7185 15.7245 34.738 15.6853C34.6103 15.621 34.4824 15.5992 34.3534 15.5772C34.287 15.5658 34.2204 15.5544 34.1532 15.5372C34.2752 15.5118 34.3509 15.4144 34.3509 15.2918C34.3509 15.2663 34.3005 15.2663 34.2752 15.2663C33.9849 15.4144 33.7872 15.6853 33.6652 16.0027C33.7752 16.0675 33.8937 16.06 34.0099 16.0526C34.0759 16.0484 34.1412 16.0443 34.2037 16.0535C34.1485 16.1059 34.0688 16.1202 33.9922 16.1338C33.9636 16.1389 33.9355 16.1439 33.9092 16.1508C33.8334 16.1678 33.762 16.2228 33.7872 16.2735C33.804 16.2947 33.8209 16.3032 33.8419 16.3074C33.7872 16.3243 33.7367 16.3498 33.6904 16.3963C33.7597 16.4508 33.8311 16.4403 33.9016 16.4299C33.9296 16.4258 33.9574 16.4217 33.9849 16.4217C33.9849 16.4524 34.0051 16.4629 34.0261 16.4737C34.0369 16.4793 34.0479 16.485 34.0565 16.4936C33.9344 16.5402 33.8377 16.6418 33.8124 16.7137C33.7823 16.787 33.7266 16.8346 33.6714 16.8818C33.6342 16.9137 33.5972 16.9453 33.5684 16.9845V17.0607C33.4872 17.1327 33.4036 17.1971 33.3212 17.2606C33.152 17.3909 32.9876 17.5176 32.8574 17.6998C32.8826 17.6998 32.8826 17.7251 32.8826 17.7505C32.8594 17.7856 32.8263 17.81 32.7949 17.8331C32.7581 17.86 32.7237 17.8852 32.7102 17.924C32.7102 17.9494 32.7102 17.9748 32.7354 17.9748C32.8898 17.9238 33.0234 17.8379 33.1543 17.7536C33.2731 17.6772 33.3898 17.6022 33.5179 17.5558C33.6226 17.5307 33.7138 17.4832 33.8027 17.4369C33.8781 17.3976 33.952 17.3591 34.0312 17.3358C34.0922 17.3231 34.1595 17.3051 34.2268 17.2871C34.2941 17.2691 34.3615 17.2511 34.4225 17.2384C34.4225 17.2638 34.4225 17.2892 34.4477 17.2892H34.6413C34.6293 17.318 34.5917 17.3223 34.566 17.3253Z" fill="#000091"/>
<path d="M59.8334 8H45.8183C45.8183 8 45.8437 8.00424 45.9496 8.05931C46.064 8.11861 46.2123 8.1991 46.3013 8.24569C46.4834 8.33889 46.6571 8.4575 46.7715 8.63965C46.8224 8.71167 46.8944 8.85993 46.8478 8.95736C46.7969 9.08021 46.7715 9.27931 46.6486 9.3259C46.5004 9.40216 46.3055 9.40216 46.1318 9.37674C46.0343 9.37674 45.9369 9.35132 45.8352 9.3259C46.2038 9.47417 46.5512 9.64785 46.7969 9.99098C46.8224 10.0418 46.9198 10.063 47.0173 10.063C47.0427 10.063 47.0427 10.1138 47.0427 10.135C46.9919 10.1858 46.9452 10.2113 46.9707 10.2833H47.0427C47.1656 10.2324 47.1401 9.98674 47.3138 10.063C47.4367 10.135 47.4875 10.3087 47.4113 10.4315C47.3138 10.529 47.2164 10.6052 47.1147 10.6772C47.0893 10.7281 47.0893 10.8001 47.1147 10.8509C47.1867 10.9483 47.2121 11.0458 47.2375 11.1474C47.3138 11.3211 47.335 11.516 47.4113 11.6897C47.5087 12.0582 47.6062 12.4267 47.585 12.7995C47.585 12.9944 47.4875 13.1681 47.5596 13.3672C47.6104 13.562 47.7333 13.7103 47.8307 13.884C47.9282 14.0322 48.0256 14.1297 48.1018 14.2779C48.2501 14.5236 48.5213 14.7693 48.3984 15.0659C48.3264 15.2395 48.0553 15.2141 47.8816 15.3116C47.7333 15.4344 47.8562 15.6335 47.9324 15.7564C48.0553 15.9766 47.7841 16.1248 47.6104 16.2011C47.6612 16.2774 47.7587 16.252 47.7841 16.2985C47.8095 16.4214 47.9324 16.4934 47.8562 16.6205C47.7587 16.7687 47.4621 16.8408 47.6104 17.0653C47.7079 17.239 47.6443 17.4296 47.585 17.6075C47.5129 17.8278 47.3138 17.9252 47.1401 17.9761C46.9919 18.0269 46.8182 18.0269 46.6741 18.0015C46.6232 17.9761 46.5766 17.9507 46.5258 17.9507C46.1064 17.8998 45.6869 17.7812 45.2717 17.7812C45.1489 17.8066 45.026 17.8278 44.9286 17.8786C44.8184 17.9591 44.7167 18.0481 44.632 18.1413C44.632 18.1413 44.632 18.1413 44.6278 18.1455C44.6108 18.1667 44.5896 18.1836 44.5727 18.2048C44.5642 18.2175 44.5515 18.2302 44.543 18.2429C44.5345 18.2514 44.5303 18.2599 44.5218 18.2683C44.4498 18.3573 44.3863 18.4547 44.327 18.5522C44.3227 18.5607 44.3184 18.5649 44.3142 18.5691C44.31 18.5818 44.3015 18.5903 44.293 18.603C44.2126 18.7512 44.1532 18.9038 44.1066 19.0563C43.9372 19.6197 44.0134 20.1026 44.132 20.2212C44.1659 20.2551 44.9455 20.4966 45.4878 20.738C45.742 20.8524 45.9199 20.9371 46.0682 21.0303H59.8291V8H59.8334Z" fill="#E1000F"/>
<path d="M46.6509 12.7526C46.7483 12.778 46.8967 12.778 46.8967 12.8288C46.8458 13.0234 46.5534 13.0741 46.4051 13.273H46.3288C46.2568 13.3237 46.278 13.4464 46.2059 13.4464C46.1339 13.421 46.0576 13.4464 45.9856 13.4718C46.0831 13.5691 46.2059 13.6453 46.3542 13.6199C46.3797 13.6199 46.4263 13.6706 46.4263 13.7172C46.4263 13.7172 46.4517 13.7172 46.4772 13.6918C46.5026 13.6918 46.528 13.6918 46.528 13.7172V13.8145C46.4559 13.9118 46.3288 13.8653 46.2314 13.8864C46.4305 13.9372 46.6254 13.9372 46.7992 13.8864C46.9475 13.8356 46.7992 13.5903 46.8967 13.4676C46.8458 13.4676 46.8967 13.3914 46.8458 13.3914C46.8967 13.3407 46.9433 13.2687 46.9941 13.2434C47.045 13.2434 47.117 13.218 47.1424 13.1672C47.1424 13.1164 47.045 13.0953 47.0661 13.0445C47.2145 12.9472 47.3374 12.7992 47.2865 12.6511C47.2611 12.5749 47.0661 12.5749 46.9433 12.5284C46.8204 12.4819 46.672 12.5284 46.5237 12.5538C46.4009 12.5538 46.278 12.6299 46.1551 12.6511C45.9814 12.7018 45.833 12.7992 45.689 12.8965C45.8627 12.8245 46.0322 12.7992 46.2314 12.7484C46.3797 12.7526 46.5026 12.7188 46.6509 12.7526Z" fill="#808080"/>
<path d="M25.3421 37.3181H27.1924V30.7769L29.2252 34.1909H30.5282L32.5609 30.7769V37.3181H34.4112V28.1969H32.1049L29.8767 32.0278L27.6485 28.1969H25.3421V37.3181ZM37.1523 37.3181H39.0026V28.1969H37.1523V37.3181ZM41.7476 37.3181H43.5979V30.7248L47.6764 37.3181H50.0479V28.1969H48.1976V34.7902L44.1191 28.1969H41.7476V37.3181ZM52.7943 37.3181H54.6446V28.1969H52.7943V37.3181ZM56.5687 36.0542C57.3765 37.0184 58.4059 37.5787 59.9435 37.5787C61.6244 37.5787 62.9535 36.5493 62.9796 34.8293C62.9796 31.7021 58.8359 32.1712 58.8359 30.5163C58.8359 29.969 59.2659 29.5521 59.9175 29.5521C60.6081 29.5521 61.2075 30.0081 61.7417 30.6987L63.0969 29.4739C62.315 28.5487 61.2726 27.9363 59.9044 27.9363C58.1584 27.9363 56.9596 29.1351 56.9596 30.5815C56.9596 33.6696 61.1032 33.2136 61.1032 34.8945C61.1032 35.546 60.6602 35.9369 59.9305 35.9369C59.1878 35.9369 58.4581 35.5199 57.9108 34.8163L56.5687 36.0542ZM64.1133 29.8778H66.9278V37.3181H68.7781V29.8778H71.5927V28.1969H64.1133V29.8778ZM75.2505 27.4151H76.9445L75.4721 25.656H73.5696L75.2505 27.4151ZM73.4133 37.3181H78.7296V35.7806H75.2636V33.4351H78.2084V31.8975H75.2636V29.7345H78.7296V28.1969H73.4133V37.3181ZM81.0752 37.3181H82.9255V33.6306H83.8767L86.3133 37.3181H88.4894L85.6358 33.2787C86.5739 32.8487 87.1082 32.0278 87.1082 30.9202C87.1082 29.2263 85.8703 28.1969 83.8636 28.1969H81.0752V37.3181ZM83.9679 29.7345C84.7497 29.7345 85.2058 30.2036 85.2058 30.8942C85.2058 31.6369 84.7497 32.093 83.9679 32.093H82.9255V29.7345H83.9679ZM89.8571 37.3181H95.1735V35.7806H91.7074V33.4351H94.6523V31.8975H91.7074V29.7345H95.1735V28.1969H89.8571V37.3181ZM29.4076 49.5275C27.6876 49.5275 26.4627 48.1854 26.4627 46.4393C26.4627 44.6933 27.6876 43.3512 29.4076 43.3512C30.45 43.3512 31.2709 43.8593 31.7921 44.6021L33.2515 43.4684C32.4176 42.3609 31.0624 41.6181 29.4076 41.6181C26.5279 41.6181 24.5603 43.8333 24.5603 46.4393C24.5603 49.0454 26.5279 51.2606 29.4076 51.2606C31.0624 51.2606 32.4176 50.5309 33.2515 49.3972L31.7921 48.2766C31.2709 49.0193 30.45 49.5275 29.4076 49.5275ZM35.0528 51H36.9031V47.1951H41.5028V51H43.3531V41.8787H41.5028V45.5142H36.9031V41.8787H35.0528V51ZM44.9529 51H46.9204L47.7935 48.6284H51.442L52.315 51H54.2826L50.8295 41.8787H48.4059L44.9529 51ZM48.3668 47.0518L49.6177 43.6248L50.8686 47.0518H48.3668ZM55.8865 51H57.7368V47.3124H58.688L61.1246 51H63.3007L60.4471 46.9606C61.3853 46.5306 61.9195 45.7096 61.9195 44.6021C61.9195 42.9081 60.6816 41.8787 58.6749 41.8787H55.8865V51ZM58.7792 43.4163C59.561 43.4163 60.0171 43.8854 60.0171 44.576C60.0171 45.3187 59.561 45.7748 58.7792 45.7748H57.7368V43.4163H58.7792ZM68.724 49.5275C66.9388 49.5275 65.6488 48.1854 65.6488 46.4393C65.6488 44.6933 66.8737 43.3512 68.5937 43.3512C69.6361 43.3512 70.457 43.8593 70.9782 44.6021L72.4376 43.4684C71.6037 42.3609 70.2485 41.6181 68.5937 41.6181C65.714 41.6181 63.7464 43.8333 63.7464 46.4393C63.7464 49.0454 65.7661 51.2606 68.724 51.2606C70.431 51.2606 71.8513 50.5309 72.6982 49.3972V45.5663H68.5285V47.143H70.8479V48.7327C70.3267 49.2278 69.584 49.5275 68.724 49.5275ZM78.4305 41.0969L80.1245 39.3378H78.222L76.7496 41.0969H78.4305ZM74.9514 51H80.2678V49.4624H76.8017V47.1169H79.7466V45.5793H76.8017V43.4163H80.2678V41.8787H74.9514V51ZM25.3421 64.6818H28.9255C31.8182 64.6818 33.7727 62.5839 33.7727 60.1212C33.7727 57.6584 31.8182 55.5606 28.9255 55.5606H25.3421V64.6818ZM28.9515 57.2415C30.6455 57.2415 31.8703 58.4924 31.8703 60.1212C31.8703 61.7369 30.6455 63.0009 28.9515 63.0009H27.1924V57.2415H28.9515ZM35.7526 64.6818H41.069V63.1442H37.6029V60.7987H40.5478V59.2612H37.6029V57.0981H41.069V55.5606H35.7526V64.6818ZM46.9918 64.6818H52.3081V63.0009H48.8421V55.5606H46.9918V64.6818ZM53.3798 64.6818H55.3473L56.2204 62.3103H59.8689L60.7419 64.6818H62.7095L59.2564 55.5606H56.8328L53.3798 64.6818ZM56.7937 60.7336L58.0446 57.3066L59.2955 60.7336H56.7937ZM66.744 55.5606L70.197 64.6818H72.6206L76.0737 55.5606H74.1061L71.4088 62.6881L68.7115 55.5606H66.744ZM77.6776 64.6818H79.5279V55.5606H77.6776V64.6818ZM82.2728 64.6818H87.5892V63.0009H84.1231V55.5606H82.2728V64.6818ZM89.4128 64.6818H94.7292V63.0009H91.2631V55.5606H89.4128V64.6818ZM96.5534 64.6818H101.87V63.1442H98.4037V60.7987H101.349V59.2612H98.4037V57.0981H101.87V55.5606H96.5534V64.6818Z" fill="#161616"/>
<path fill-rule="evenodd" clip-rule="evenodd" d="M57.8527 87.941L56.6409 89.0486H56.3282L57.0449 87.7847H57.8527V87.941ZM56.9797 92.2274H56.7191C56.3933 92.6183 56.0285 92.931 55.6767 92.931C55.3118 92.931 55.1294 92.7095 55.1294 92.2274C55.1294 92.0319 55.1555 91.8234 55.1946 91.641L57.3185 90.9374C57.7355 89.9471 57.2403 89.5171 56.6539 89.5171C55.6506 89.5171 54.5039 91.2761 54.5039 92.6834C54.5039 93.348 54.8167 93.7128 55.3118 93.7128C55.8852 93.6998 56.4846 93.1395 56.9797 92.2274ZM56.2508 90.091C56.5375 90.091 56.7851 90.3126 56.6547 90.8207L55.3387 91.1726C55.5472 90.5471 55.9381 90.091 56.2508 90.091ZM52.1077 90.1164H52.8114L51.6908 93.1916C51.5865 93.4522 51.7299 93.7128 52.0035 93.7128C52.7983 93.7128 53.7496 93.0352 54.1144 92.071H53.919C53.6323 92.4749 53.0068 92.918 52.5377 92.9961L53.5671 90.1164H54.6226L54.7529 89.6734H53.7235L54.1144 88.5658H53.7105L52.9808 89.6734L52.1077 89.7907V90.1164ZM51.1297 89.5307C51.273 89.5307 51.4685 89.6871 51.3773 89.9738L50.1133 93.0359C50.4391 92.9838 50.7779 92.671 50.9733 92.3844H51.1818C50.8821 93.1532 50.2045 93.7135 49.6182 93.7135C49.4748 93.7135 49.2663 93.5571 49.3706 93.2704L50.5433 90.2083C50.2176 90.2604 49.8788 90.5732 49.6833 90.8598H49.4879C49.7876 90.078 50.5173 89.5307 51.1297 89.5307ZM51.4954 88.7489C51.7561 88.7489 51.9776 88.5404 51.9776 88.2668C51.9776 88.0062 51.7561 87.7847 51.4954 87.7847C51.2218 87.7847 51.0133 88.0062 51.0133 88.2668C51.0133 88.5274 51.2348 88.7489 51.4954 88.7489ZM45.8009 91.2898C46.0876 90.6644 45.9834 90.3777 45.8009 90.3777C45.6446 90.3777 45.4621 90.5471 45.2797 90.8598H45.0842C45.3839 90.1953 45.7749 89.5307 46.2049 89.5307C46.5697 89.5307 46.7 89.8956 46.7 90.2995V90.8729C46.7587 90.8051 46.8157 90.738 46.8715 90.6722L46.8726 90.6709L46.8734 90.6702C47.4239 90.0239 47.8442 89.5307 48.3288 89.5307C48.7067 89.5307 48.9022 89.7653 48.9022 90.1171C48.9022 90.3256 48.837 90.5862 48.6937 90.8598L47.6122 93.0359C47.9379 92.9838 48.2767 92.671 48.4722 92.3844H48.6676C48.3679 93.1662 47.6382 93.7135 47.0258 93.7135C46.7522 93.7135 46.5958 93.4268 46.7131 93.1922L47.964 90.7816C48.1073 90.508 48.1334 90.3256 47.9118 90.3256C47.6122 90.3256 46.9085 90.8207 46.5306 91.2768L45.7097 93.4398C45.6185 93.6613 45.5273 93.7135 45.3188 93.7135C44.98 93.7135 44.8106 93.4919 44.9669 93.1401L45.8009 91.2898ZM44.953 90.4552C45.0963 89.9601 45.0181 89.5171 44.6402 89.5171C44.169 89.5171 44.0214 89.8285 43.5647 90.7914L43.5326 90.8592V90.2858C43.5326 89.8819 43.4023 89.5171 43.0375 89.5171C42.6075 89.5171 42.2166 90.1816 41.9169 90.8461H42.1123C42.3208 90.5464 42.5163 90.364 42.6726 90.364C42.855 90.364 42.9593 90.6507 42.6726 91.2761L41.8387 93.1264C41.6823 93.4783 41.8517 93.6998 42.1905 93.6998C42.399 93.6998 42.4902 93.6477 42.5814 93.4261L43.4023 91.2631C43.6369 90.9764 43.8454 90.7289 44.106 90.4552H44.953ZM40.8356 90.8207C40.9659 90.3126 40.7183 90.091 40.4317 90.091C40.1189 90.091 39.728 90.5471 39.5196 91.1726L40.8356 90.8207ZM41.1606 92.2274H40.9C40.5742 92.6183 40.2094 92.931 39.8575 92.931C39.4926 92.931 39.3102 92.7095 39.3102 92.2274C39.3102 92.0319 39.3363 91.8234 39.3754 91.641L41.4994 90.9374C41.9163 89.9471 41.4212 89.5171 40.8348 89.5171C39.8314 89.5171 38.6848 91.2761 38.6848 92.6834C38.6848 93.348 38.9975 93.7128 39.4926 93.7128C40.066 93.6998 40.6654 93.1395 41.1606 92.2274ZM36.9922 90.1164H36.2886V89.7907L37.1617 89.6734L37.8913 88.5658H38.2953L37.9044 89.6734H38.9338L38.8035 90.1164H37.748L36.7186 92.9961C37.1877 92.918 37.8132 92.4749 38.0998 92.071H38.2953C37.9304 93.0352 36.9792 93.7128 36.1843 93.7128C35.9107 93.7128 35.7673 93.4522 35.8716 93.1916L36.9922 90.1164ZM32.5625 92.501C32.5625 91.5498 33.618 90.2735 34.2044 90.2735C34.3347 90.2735 34.465 90.2865 34.5692 90.3256L33.9568 91.9667C33.605 92.3967 33.0577 92.918 32.797 92.918C32.6537 92.918 32.5625 92.7877 32.5625 92.501ZM35.4686 89.3222L35.7944 89.3483L34.6607 91.9537C34.3871 92.5792 34.5044 92.8658 34.6607 92.8658C34.8171 92.8658 35.0126 92.6834 35.221 92.3837H35.4165C35.1168 93.0483 34.7259 93.7128 34.2959 93.7128C33.931 93.7128 33.7095 93.3219 33.7747 92.6183L33.8007 92.3707L33.7298 92.4704C33.263 93.1225 32.8406 93.7128 32.4064 93.7128C32.0286 93.7128 31.8331 93.4783 31.8331 93.1264C31.8331 91.6156 33.488 89.6871 35.0386 89.6871H35.1038L35.4686 89.3222ZM32.4838 90.4552C32.6272 89.9601 32.549 89.5171 32.1711 89.5171C31.6998 89.5171 31.5522 89.8285 31.0956 90.7914L31.0635 90.8592V90.2858C31.0635 89.8819 30.9332 89.5171 30.5683 89.5171C30.1383 89.5171 29.7474 90.1816 29.4477 90.8461H29.6432C29.8517 90.5464 30.0471 90.364 30.1905 90.364C30.3729 90.364 30.4771 90.6507 30.1905 91.2761L29.3565 93.1395C29.2001 93.4913 29.3695 93.7128 29.7083 93.7128C29.9168 93.7128 30.008 93.6607 30.0992 93.4392L30.9202 91.2761C31.1547 90.9895 31.3632 90.7419 31.6238 90.4683H32.4838V90.4552ZM27.1143 93.3212L27.0361 93.5558H24L24.0782 93.3082C25.0164 93.1388 25.1727 93.0606 25.5637 92.0052L26.4106 89.7379C26.7885 88.6825 26.7103 88.6043 25.8894 88.4349L25.9676 88.2003H29.9159L29.6813 89.4643H29.3946C29.3946 88.7085 29.3165 88.5131 28.5998 88.5131H28.4173C27.7137 88.5131 27.6225 88.6173 27.427 89.1646L26.8667 90.6891H27.6876C28.2349 90.6891 28.4434 90.3503 28.691 89.9073H28.9777L28.3001 91.7576H28.0134C28.0786 91.1973 28.0786 90.9758 27.5704 90.9758H26.7494L26.3716 92.0182C25.9631 93.103 26.0798 93.1251 27.0525 93.3095C27.0727 93.3134 27.0933 93.3173 27.1143 93.3212Z" fill="black"/>
<path fill-rule="evenodd" clip-rule="evenodd" d="M29.6941 77.9728L28.4822 78.8458V78.8588H28.1695L28.8862 77.8164H29.6941V77.9728ZM38.1649 84.084L40.1064 78.924L40.0412 78.8458L38.6992 79.0022V79.1585L38.9598 79.354C39.1822 79.5266 39.1233 79.6882 38.9387 80.1938L38.9076 80.2791L37.4222 84.2403C37.3049 84.4749 37.4613 84.7616 37.7349 84.7616C38.3473 84.7616 38.9989 84.2013 39.2986 83.4325H39.1031C38.8946 83.7191 38.4776 84.0319 38.1649 84.084ZM47.0636 80.1097L48.2755 79.0022V78.8458H47.4676L46.7509 80.1097H47.0636ZM47.141 83.2761H47.4016C46.9195 84.2013 46.3201 84.7616 45.7467 84.7616C45.2516 84.7616 44.9389 84.3967 44.9389 83.7322C44.9389 82.3249 46.0855 80.5658 47.0889 80.5658C47.6622 80.5658 48.1704 80.9958 47.7534 81.9861L45.6164 82.6897C45.5773 82.8722 45.5513 83.0807 45.5513 83.2761C45.5513 83.7582 45.7337 83.9797 46.0985 83.9797C46.4504 83.9797 46.8152 83.667 47.141 83.2761ZM47.0752 81.8688C47.2055 81.3737 46.9579 81.1522 46.6712 81.1522C46.3715 81.1522 45.9806 81.6082 45.7591 82.2207L47.0752 81.8688ZM43.2443 81.1776H42.5406V80.8518L43.4137 80.7345L44.1434 79.627H44.5473L44.1564 80.7345H45.1858L45.0555 81.1776H44L42.9706 84.0573C43.4397 83.9791 44.0652 83.5361 44.3518 83.1321H44.5473C44.1824 84.0964 43.2312 84.7739 42.4364 84.7739C42.1627 84.7739 42.0194 84.5133 42.1237 84.2527L43.2443 81.1776ZM41.8109 81.0212C41.889 80.7345 41.7066 80.5782 41.5503 80.5782C40.9378 80.5782 40.2081 81.1385 39.9084 81.9073H40.1039C40.2993 81.6206 40.6381 81.3079 40.9639 81.2558L39.7912 84.3179C39.6869 84.6045 39.8954 84.7609 40.0387 84.7609C40.6251 84.7609 41.3027 84.2006 41.6024 83.4318H41.4069C41.2115 83.7185 40.8727 84.0312 40.5469 84.0833L41.8109 81.0212ZM42.4112 79.3279C42.4112 79.5885 42.1897 79.81 41.9291 79.81C41.6685 79.81 41.447 79.5885 41.447 79.3279C41.447 79.0673 41.6555 78.8458 41.9291 78.8458C42.1897 78.8458 42.4112 79.0673 42.4112 79.3279ZM35.8323 81.3346C35.2459 81.3346 34.1905 82.6116 34.1905 83.5628C34.1905 83.8494 34.2817 83.9797 34.4381 83.9797C34.6856 83.9797 35.2329 83.4585 35.5847 83.0285L36.1971 81.3867C36.0799 81.3476 35.9626 81.3346 35.8323 81.3346ZM37.4223 80.4094L37.0966 80.3834L36.7317 80.7482H36.6666C35.116 80.7482 33.4611 82.6767 33.4611 84.1882C33.4611 84.5401 33.6566 84.7746 34.0344 84.7746C34.4686 84.7746 34.891 84.1837 35.3577 83.5315L35.4287 83.4325L35.4026 83.68C35.3375 84.3837 35.559 84.7746 35.9238 84.7746C36.3538 84.7746 36.7447 84.1101 37.0444 83.4455H36.849C36.6405 83.7452 36.445 83.9276 36.2887 83.9276C36.1323 83.9276 36.015 83.641 36.2887 83.0155L37.4223 80.4094ZM30.8543 84.6313C30.294 84.8528 29.9031 85.1134 29.9031 85.5173C29.9031 85.8952 30.255 86.0516 30.9846 86.0516C31.9619 86.0516 32.4961 85.7649 32.4961 85.387C32.4961 85.2176 32.2746 85.1394 31.6883 84.944C31.3104 84.8267 31.0368 84.7225 30.8543 84.6313ZM31.505 83.0285C31.2444 83.0285 31.1532 82.807 31.1532 82.5725C31.1532 81.8167 31.518 80.8785 32.1044 80.8785C32.365 80.8785 32.4562 81.1 32.4562 81.3346C32.4432 82.1034 32.0783 83.0285 31.505 83.0285ZM32.0015 84.2534C32.7181 84.4749 33.1612 84.6443 33.1612 85.1394C33.1612 85.7779 31.9884 86.5337 30.5681 86.5207C29.7472 86.5207 29.0436 86.2991 29.0436 85.7649C29.0436 85.2567 29.5127 84.8397 30.6593 84.501C30.503 84.3967 30.4378 84.2664 30.4378 84.084C30.4378 83.7713 30.7245 83.5237 31.2196 83.2891C30.7375 83.224 30.4248 82.8591 30.4248 82.3249C30.4248 81.504 31.1024 80.5658 32.1708 80.5658C32.3924 80.5658 32.5878 80.6179 32.7442 80.7222H33.9169L33.7866 81.1652H33.096C33.1351 81.2825 33.1612 81.4128 33.1612 81.5561C33.1612 82.351 32.5227 83.2631 31.5063 83.3152C31.2457 83.4585 31.1154 83.654 31.1154 83.8104C31.1154 83.9941 31.3286 84.0566 31.7996 84.1941C31.8623 84.2123 31.9295 84.2319 32.0015 84.2534ZM27.87 82.0252C28.3782 82.0252 28.3912 82.2467 28.313 82.807H28.5997L29.2773 80.9567H28.9906C28.743 81.3997 28.5345 81.7385 27.9873 81.7385H26.8667L27.4139 80.214C27.6094 79.6667 27.7006 79.5625 28.4042 79.5625H28.8994C29.616 79.5625 29.6942 79.7579 29.6942 80.5137H29.9809L30.2154 79.2497H25.9676L25.8894 79.4843C26.7103 79.6537 26.7885 79.7319 26.4106 80.7873L25.5636 83.0676C25.1727 84.1231 25.0164 84.2013 24.0652 84.3707L24 84.6182H28.717L29.5639 83.2761H29.2382C28.6909 83.8104 28.1436 84.3055 27.0751 84.3055C25.8999 84.3055 25.9208 84.2482 26.2735 83.2794C26.2961 83.2168 26.3202 83.1504 26.3454 83.0807L26.7364 82.0382H27.87V82.0252Z" fill="black"/>
<path fill-rule="evenodd" clip-rule="evenodd" d="M31.7649 70.8582C32.0255 70.8582 32.247 70.6367 32.247 70.3761C32.247 70.1156 32.0255 69.894 31.7649 69.894C31.4913 69.894 31.2828 70.1156 31.2828 70.3761C31.2828 70.6497 31.4913 70.8582 31.7649 70.8582ZM35.6232 72.4996C35.6232 71.8741 35.4669 71.6396 35.0238 71.6396C34.4766 71.6396 33.9684 72.2259 33.4602 72.9295L34.5547 69.998L34.4896 69.9067L33.1475 70.0631V70.2194L33.4081 70.4149C33.635 70.5914 33.5692 70.7678 33.376 71.2864L33.356 71.3399L32.1702 74.441C32.066 74.7016 31.9487 75.0143 31.9487 75.0925C31.9487 75.4573 32.4438 75.8091 32.8999 75.8091C33.9163 75.8222 35.6232 73.9458 35.6232 72.4996ZM46.9203 71.1706L48.1321 70.0631V69.9067H47.3242L46.6076 71.1706H46.9203ZM46.9988 74.3367H47.2594C46.7643 75.2619 46.1649 75.8222 45.5915 75.8091C45.0964 75.8091 44.7837 75.4573 44.7837 74.7928C44.7837 73.3855 45.9303 71.6266 46.9337 71.6266C47.507 71.6266 48.0152 72.0566 47.5982 73.0468L45.4743 73.7504C45.4352 73.9328 45.4091 74.1413 45.4091 74.3367C45.4091 74.8188 45.5915 75.0404 45.9564 75.0404C46.3082 75.0404 46.6731 74.7276 46.9988 74.3367ZM46.9324 72.9296C47.0627 72.4345 46.8152 72.213 46.5285 72.213C46.2158 72.213 45.8248 72.669 45.6164 73.2813L46.9324 72.9296ZM43.0871 72.2398H42.3834V71.9141L43.2564 71.7968L43.9861 70.6893H44.3901L43.9992 71.7968H45.0286L44.8983 72.2398H43.8428L42.8134 75.1192C43.2825 75.041 43.908 74.598 44.1946 74.194H44.3901C44.0252 75.1583 43.074 75.8359 42.2792 75.8359C42.0055 75.8359 41.8622 75.5753 41.9664 75.3146L43.0871 72.2398ZM42.021 72.5785C42.1644 72.0834 42.0862 71.6404 41.7083 71.6404C41.2371 71.6404 41.0895 71.9517 40.6329 72.9148L40.6007 72.9824V72.4091C40.6007 72.0052 40.4704 71.6404 40.1056 71.6404C39.6757 71.6404 39.2847 72.3049 38.985 72.9694H39.1805C39.389 72.6697 39.5844 72.4873 39.7278 72.4873C39.9102 72.4873 40.0144 72.7739 39.7278 73.3992L38.8938 75.2495C38.7375 75.6013 38.9069 75.8228 39.2457 75.8228C39.4541 75.8228 39.5453 75.7707 39.6366 75.5492L40.4574 73.3862C40.692 73.0997 40.9004 72.8521 41.161 72.5785H42.021ZM37.8908 72.9296C38.0211 72.4345 37.7736 72.213 37.4869 72.213C37.1742 72.213 36.7963 72.669 36.5748 73.2813L37.8908 72.9296ZM38.2157 74.3367H37.9551C37.6294 74.7276 37.2645 75.0404 36.9127 75.0404C36.5479 75.0404 36.3655 74.8188 36.3655 74.3367C36.3655 74.1413 36.3916 73.9328 36.4306 73.7504L38.5545 73.0468C38.9715 72.0566 38.4763 71.6266 37.89 71.6266C36.8866 71.6266 35.74 73.3855 35.74 74.7928C35.74 75.4573 36.0528 75.8091 36.5479 75.8091C37.1212 75.8222 37.7206 75.2619 38.2157 74.3367ZM32.7441 74.8325C32.7441 75.0019 33.0437 75.1974 33.2522 75.1974C34.0992 75.1974 34.8941 73.6728 34.881 72.8258C34.881 72.5391 34.7377 72.4219 34.5422 72.4219C34.2295 72.4219 33.6562 72.8909 33.2913 73.334L32.9525 74.2462C32.8353 74.5459 32.7441 74.7804 32.7441 74.8325ZM31.3761 71.6404C31.5325 71.6404 31.7149 71.7967 31.6367 72.0834L30.3858 75.1453C30.7116 75.0931 31.0504 74.7804 31.2458 74.4937H31.4413C31.1416 75.2625 30.464 75.8228 29.8777 75.8228C29.7213 75.8228 29.5128 75.6665 29.6171 75.3798L30.7898 72.3179C30.464 72.3701 30.1252 72.6827 29.9298 72.9694H29.7343C30.034 72.2007 30.7637 71.6404 31.3761 71.6404ZM25.9675 70.2853H28.769L28.6908 70.5329C27.7396 70.7022 27.5833 70.7804 27.1924 71.8358L26.3585 74.1289C25.9545 75.2234 26.0588 75.3537 26.7754 75.3537C27.6608 75.3537 28.2414 74.71 28.7484 74.1484C28.786 74.1067 28.8233 74.065 28.8602 74.0246H29.186L28.2609 75.6665H24L24.0782 75.4319C25.0164 75.2625 25.1727 75.1843 25.5636 74.1289L26.4106 71.8228C26.7884 70.7674 26.7103 70.6892 25.8894 70.5198L25.9675 70.2853Z" fill="black"/>
</svg>
