<svg width="282" height="150" viewBox="0 0 282 150" fill="none" xmlns="http://www.w3.org/2000/svg">
<rect width="282" height="150" fill="white"/>
<g clip-path="url(#clip0_4321_36341)">
<rect width="35.25" height="12.8182" transform="translate(22.8181 8.81812)" fill="white"/>
<path d="M34.0418 19.678C34.0461 19.678 34.0503 19.6717 34.0503 19.6717C34.0844 19.6466 34.1184 19.6152 34.1482 19.5775C34.1439 19.5775 34.1397 19.5775 34.1354 19.5712C34.1056 19.6026 34.0716 19.6403 34.0418 19.678Z" fill="#000091"/>
<path d="M38.756 18.0897L38.6815 18.1538C38.7241 18.1431 38.756 18.1325 38.756 18.0897Z" fill="#000091"/>
<path fill-rule="evenodd" clip-rule="evenodd" d="M37.2318 19.7122C37.3684 19.5748 37.5049 19.4292 37.6415 19.2793H37.6373C37.8939 18.988 38.1421 18.7092 38.44 18.4553C38.5311 18.3721 38.6179 18.3013 38.7007 18.2431C38.7129 18.2308 38.7191 18.2126 38.7251 18.1948C38.7315 18.1762 38.7377 18.158 38.7504 18.1473C38.6914 18.1699 38.6444 18.2054 38.5971 18.2412C38.5482 18.2783 38.499 18.3155 38.4359 18.3388C38.4111 18.3388 38.3862 18.3138 38.4111 18.2888C38.498 18.2264 38.5848 18.1598 38.6676 18.0932H38.651C38.6262 18.0932 38.6262 18.0683 38.6262 18.0433C38.3182 17.9944 38.0816 18.205 37.8698 18.3936L37.8566 18.4054C37.8237 18.422 37.7925 18.4055 37.768 18.3926C37.7556 18.386 37.745 18.3804 37.7366 18.3804C37.5493 18.4432 37.3877 18.559 37.225 18.6756C37.0752 18.783 36.9245 18.891 36.7519 18.9589V18.9089C36.6933 18.9292 36.6353 18.9555 36.5773 18.9819C36.4918 19.0208 36.4061 19.0598 36.3174 19.0796C36.1555 19.1172 36.0053 19.1123 35.8597 19.1076C35.8119 19.1061 35.7645 19.1045 35.7175 19.1045C35.4525 19.1308 35.1908 19.1876 34.9295 19.2443L34.8444 19.2627C34.8403 19.2648 34.8361 19.2658 34.832 19.2669C34.8279 19.2679 34.8237 19.2689 34.8196 19.271C34.6624 19.3126 34.5175 19.3709 34.3727 19.4541L34.3562 19.4625C34.3505 19.4701 34.3448 19.4768 34.3395 19.4831C34.3333 19.4905 34.3276 19.4973 34.3231 19.5041C34.2734 19.5623 34.2279 19.6123 34.1576 19.6497C34.0537 19.702 33.9639 19.7826 33.8756 19.8618C33.8373 19.8962 33.7991 19.9304 33.7604 19.9619C33.7521 19.9702 33.7355 19.9743 33.7231 19.9743C33.5949 20.0992 33.4666 20.2241 33.3342 20.3447C33.3259 20.3531 33.2887 20.3572 33.2597 20.3531C33.2597 20.3531 33.2638 20.3531 33.2638 20.3489L33.2762 20.3239L33.3383 20.224C33.3507 20.2053 33.3621 20.1866 33.3735 20.1679C33.3849 20.1491 33.3962 20.1304 33.4087 20.1117C33.4417 20.0618 33.4749 20.0118 33.5121 19.966C33.5204 19.9535 33.5204 19.941 33.5121 19.9327C33.5038 19.9244 33.4914 19.9202 33.479 19.9202C33.599 19.8037 33.7397 19.7038 33.8845 19.6164V19.6123C33.8679 19.6164 33.8431 19.604 33.8555 19.5873C33.8677 19.572 33.8776 19.5545 33.8869 19.5381L33.8969 19.5207C33.899 19.5166 33.9 19.5134 33.901 19.5103C33.9021 19.5072 33.9031 19.5041 33.9052 19.4999C33.9031 19.4957 33.9 19.4926 33.8969 19.4895C33.8938 19.4864 33.8907 19.4833 33.8886 19.4791L33.8635 19.4957C33.8335 19.5153 33.8027 19.5355 33.7769 19.5582C33.7586 19.5739 33.7416 19.5955 33.7241 19.6176C33.6861 19.6656 33.6461 19.7163 33.5866 19.7163C33.5824 19.7163 33.5617 19.7163 33.5493 19.7122C33.5369 19.7122 33.5286 19.708 33.5245 19.7038C33.5245 19.7018 33.5245 19.7007 33.525 19.7002C33.5255 19.6997 33.5266 19.6997 33.5286 19.6997C33.5286 19.6997 33.5328 19.6955 33.5328 19.6913C33.5328 19.6913 33.5328 19.6872 33.5369 19.6872C33.539 19.683 33.5411 19.6799 33.5431 19.6768C33.5452 19.6737 33.5473 19.6705 33.5493 19.6664C33.5514 19.6622 33.5535 19.6591 33.5555 19.656C33.5576 19.6529 33.5597 19.6497 33.5617 19.6456C33.5638 19.6435 33.5648 19.6404 33.5659 19.6372C33.5669 19.6341 33.568 19.631 33.57 19.6289L33.5747 19.6203C33.5788 19.613 33.5837 19.6043 33.5866 19.5956C33.5886 19.5915 33.5907 19.5883 33.5928 19.5852C33.5948 19.5821 33.5969 19.579 33.599 19.5748C33.6052 19.5665 33.6104 19.5571 33.6155 19.5478C33.6207 19.5384 33.6259 19.529 33.6321 19.5207C33.6362 19.5124 33.6404 19.5041 33.6486 19.4957C33.6528 19.4874 33.6569 19.4801 33.6611 19.4729C33.6652 19.4656 33.6693 19.4583 33.6735 19.45C33.6859 19.4292 33.6735 19.4125 33.6569 19.4084C33.7024 19.3501 33.7562 19.3001 33.8224 19.2627H33.8141C33.8713 19.234 33.93 19.2003 33.9884 19.1669C34.0228 19.1472 34.0576 19.1272 34.0914 19.1087C34.1038 19.0962 34.1162 19.0837 34.1327 19.0754C33.9962 19.1212 33.8721 19.1836 33.7521 19.2669C33.7521 19.2669 33.719 19.2793 33.7107 19.2877C33.7107 19.2877 33.6859 19.296 33.6528 19.2669C33.6486 19.2627 33.6486 19.2585 33.6486 19.2502C33.663 19.2213 33.6927 19.2021 33.7247 19.1814C33.748 19.1664 33.7726 19.1505 33.7935 19.1295C33.8183 19.1295 33.839 19.1295 33.839 19.1545C34.3155 18.7808 34.9031 18.6944 35.4927 18.6077C35.8553 18.5543 36.2186 18.5009 36.5574 18.3804C36.5926 18.3554 36.6288 18.3315 36.665 18.3076C36.7012 18.2836 36.7374 18.2597 36.7726 18.2347C36.8329 18.2096 36.887 18.1666 36.9442 18.1211C37.0008 18.076 37.0605 18.0285 37.1325 17.9934C37.3229 17.8477 37.4677 17.6812 37.5422 17.4357C37.5422 17.4107 37.5173 17.3858 37.5173 17.3858C37.2029 17.7229 36.8429 17.9892 36.4581 18.1848C36.0912 18.3784 35.698 18.4071 35.3088 18.4355C35.1626 18.4462 35.0169 18.4568 34.8734 18.4761C34.8982 18.4262 34.9479 18.4262 34.9934 18.4262C34.9934 18.3671 35.0217 18.3417 35.058 18.309C35.0677 18.3003 35.0781 18.2911 35.0885 18.2805H35.1589C35.1713 18.2805 35.1775 18.268 35.1837 18.2556C35.1899 18.2431 35.1961 18.2306 35.2085 18.2306C35.2582 18.2306 35.3285 18.2056 35.3037 18.2056C35.2657 18.1568 35.2106 18.1761 35.1497 18.1975C35.0912 18.218 35.0274 18.2403 34.9685 18.2056C34.9904 18.1816 34.997 18.1528 35.003 18.1266C35.0095 18.0982 35.0152 18.0729 35.0389 18.06H35.1341C35.1341 18.01 35.1837 17.9642 35.1837 17.9642C35.3995 17.8345 35.6079 17.7212 35.8123 17.6101C35.9489 17.5358 36.0839 17.4624 36.2181 17.3858C36.191 17.3858 36.1669 17.3969 36.1435 17.4077C36.1064 17.425 36.071 17.4414 36.0278 17.4107C36.0526 17.4107 36.0526 17.393 36.0526 17.3754C36.0526 17.3577 36.0526 17.34 36.0774 17.34C36.2327 17.2985 36.3708 17.2313 36.5119 17.1627C36.6115 17.1142 36.7126 17.065 36.8222 17.0237C36.7897 17.0237 36.7596 17.0324 36.7302 17.041C36.6737 17.0574 36.62 17.073 36.5574 17.0237C36.5738 17.0154 36.5871 17.0049 36.6002 16.9945C36.6267 16.9734 36.6524 16.9529 36.7022 16.9529V16.8822C36.7022 16.8572 36.727 16.8572 36.7519 16.8572C36.727 16.8572 36.7022 16.8322 36.7022 16.8322C36.7154 16.8058 36.7413 16.8004 36.7701 16.7943C36.7957 16.7889 36.8237 16.783 36.847 16.7615C36.8222 16.7615 36.7767 16.7615 36.7767 16.7365C36.847 16.6408 36.967 16.6158 37.087 16.5909C37.0746 16.5659 37.0508 16.5659 37.0301 16.5659C37.0094 16.5659 36.9919 16.5659 36.9919 16.5409C36.9919 16.516 37.0167 16.516 37.0415 16.516H36.9919C36.9529 16.4964 36.9598 16.4614 36.9646 16.4372C36.9659 16.4305 36.967 16.4247 36.967 16.4202C37.0642 16.3057 37.0962 16.1706 37.128 16.0362C37.1435 15.9703 37.1591 15.9047 37.1822 15.8418C37.1574 15.8418 37.1325 15.8418 37.1325 15.8168C36.8999 16.075 36.5311 16.1729 36.1808 16.2658L36.1478 16.2746H36.0278C35.9078 16.3245 35.7381 16.3245 35.6182 16.2496C35.5611 16.2197 35.5204 16.1822 35.4764 16.1418C35.4471 16.1148 35.4163 16.0865 35.3782 16.0582C35.1837 15.9375 34.9934 15.8418 34.7782 15.7668C34.1783 15.5754 33.5535 15.4755 32.9287 15.5005C33.1032 15.4045 33.2884 15.3664 33.4762 15.3277C33.5734 15.3077 33.6712 15.2875 33.7686 15.2591C33.8301 15.241 33.8909 15.2224 33.9515 15.2038C34.2947 15.0986 34.6276 14.9965 34.9934 15.0177C34.9455 15.0007 34.8842 15.0069 34.8277 15.0125C34.8013 15.0152 34.7759 15.0177 34.7534 15.0177C34.4768 14.9971 34.1974 15.0587 33.9059 15.123C33.8442 15.1366 33.7819 15.1503 33.719 15.1634C33.6048 15.1872 33.4963 15.2213 33.3875 15.2555C33.2677 15.2931 33.1477 15.3308 33.0197 15.3548C32.9642 15.374 32.9196 15.4066 32.8762 15.4383C32.8064 15.4894 32.7395 15.5383 32.6349 15.5255V15.4506C32.8749 15.1592 33.1645 14.8721 33.5493 14.8471C33.9213 14.7865 34.272 14.8297 34.6379 14.8747C34.6993 14.8823 34.7612 14.8899 34.8237 14.8971C35.1237 14.9212 35.4043 14.9881 35.7066 15.0602L35.7381 15.0677C35.8043 15.0677 35.8416 15.126 35.8776 15.1824C35.9069 15.2283 35.9355 15.2729 35.9781 15.2841C36.037 15.3044 36.0959 15.3082 36.1549 15.312C36.2408 15.3175 36.3267 15.323 36.4126 15.3798C36.4126 15.363 36.4098 15.3467 36.407 15.3305C36.4015 15.2986 36.3961 15.2673 36.4126 15.2341C36.466 15.1805 36.5272 15.1949 36.5874 15.209C36.6346 15.2201 36.6811 15.2311 36.7229 15.2092C36.8541 15.1277 36.731 15.0027 36.6079 14.8776C36.5485 14.8173 36.4891 14.757 36.4581 14.7014C36.4581 14.6765 36.4829 14.6515 36.4829 14.6515C36.5373 14.7002 36.5879 14.7506 36.6381 14.8006C36.7637 14.9257 36.8866 15.048 37.0581 15.1343C37.178 15.1842 37.4677 15.255 37.418 15.1093C37.333 14.9206 37.1879 14.757 37.0413 14.5919C36.9809 14.5239 36.9203 14.4556 36.8636 14.3852V14.2894C36.8259 14.2894 36.8168 14.275 36.8056 14.2572C36.802 14.2515 36.7982 14.2455 36.7932 14.2395V14.1438C36.7326 14.1119 36.719 14.0615 36.7053 14.0108C36.6976 13.982 36.6898 13.953 36.6733 13.9274C36.6318 13.8602 36.6288 13.7775 36.6257 13.6922C36.6233 13.6244 36.6208 13.5549 36.5988 13.4904C36.5491 13.3447 36.5284 13.224 36.5036 13.0784C36.4767 12.9294 36.447 12.7869 36.418 12.6474C36.3668 12.4012 36.3175 12.1643 36.2885 11.9173C36.2502 11.5642 36.4285 11.2655 36.6108 10.9602C36.6648 10.8697 36.7192 10.7787 36.7684 10.6854C36.9381 10.3941 37.1284 10.1069 37.4429 9.91131C37.5115 9.62718 37.6981 9.39056 37.8839 9.1551L37.898 9.13724C38.0813 8.90874 38.3875 8.76906 38.6131 8.66611L38.6386 8.65448C38.9738 8.50466 39.2758 8.40894 39.28 8.40894H22.6591V21.2229H34.4513C34.7667 20.9942 35.0801 20.85 35.4533 20.6783C35.6235 20.5999 35.8062 20.5159 36.0071 20.4155C36.0496 20.3941 36.1002 20.3692 36.1563 20.3416C36.4931 20.1759 37.0297 19.9119 37.2318 19.7122ZM33.49 17.9834C33.4432 17.9881 33.3936 17.993 33.4124 17.9555C33.4297 17.8712 33.516 17.846 33.6002 17.8213C33.6363 17.8108 33.672 17.8003 33.7017 17.7854L33.7153 17.7783L33.7253 17.7731C33.7719 17.7483 33.829 17.718 33.8712 17.7356C33.8996 17.776 33.9349 17.7865 33.9691 17.7966C33.9946 17.8041 34.0195 17.8115 34.0407 17.831C33.9513 17.9207 33.8469 17.9296 33.7411 17.9386C33.6708 17.9445 33.5999 17.9505 33.5322 17.9803C33.5201 17.9803 33.5052 17.9818 33.49 17.9834ZM29.8294 17.3981C29.8294 17.4231 29.8542 17.4481 29.8542 17.4481C30.4335 16.7947 30.9589 16.237 31.7037 15.7751C31.7237 15.7667 31.7162 15.7771 31.7064 15.791C31.6917 15.8117 31.6716 15.8399 31.7285 15.825C31.9751 15.7688 32.0859 15.5576 32.1936 15.3521C32.2214 15.2989 32.2491 15.2462 32.2789 15.1966C32.3918 15.0128 32.5523 14.8951 32.714 14.7764C32.8307 14.6909 32.9479 14.6048 33.0485 14.4932C33.0485 14.5182 33.0485 14.5432 33.0236 14.5682C33.0485 14.5931 33.0733 14.5931 33.0981 14.5931C33.1418 14.5602 33.1894 14.5466 33.2351 14.5335C33.2933 14.5169 33.3483 14.5011 33.3877 14.4475C33.1974 14.3726 32.9533 14.3476 32.763 14.4225C32.2582 14.6639 31.8279 15.0509 31.4182 15.4879C31.17 15.7501 30.9134 15.9956 30.599 16.1663C30.3838 16.5991 30.1438 16.9861 29.8294 17.3981ZM31.8494 15.8503C31.8364 15.8763 31.8234 15.8899 31.8111 15.9028C31.7998 15.9146 31.789 15.9259 31.7791 15.9457C31.7543 15.9955 31.7295 16.0163 31.684 16.0411C31.6592 16.0411 31.6344 16.0411 31.6344 16.0163C31.6592 15.9208 31.7295 15.8254 31.8246 15.8005C31.8494 15.8047 31.8494 15.8296 31.8494 15.8503ZM32.9074 19.5462C32.9281 19.5254 32.9529 19.5004 32.9653 19.4754C32.986 19.4255 32.8578 19.438 32.8372 19.4505C32.8184 19.4656 32.8065 19.4807 32.792 19.4989L32.7876 19.5046C32.7703 19.5244 32.7501 19.5428 32.7296 19.5614C32.7157 19.5741 32.7017 19.5868 32.6883 19.6003C32.6305 19.6586 32.5726 19.7168 32.5106 19.7709C32.4693 19.8084 32.6015 19.825 32.6305 19.8001C32.6635 19.7751 32.6925 19.746 32.7214 19.7168C32.7324 19.7168 32.7435 19.715 32.7508 19.7137L32.7559 19.7129L32.7586 19.7127C32.8271 19.6897 32.8781 19.642 32.9277 19.5956L32.9405 19.5837C32.957 19.567 32.9364 19.5504 32.9074 19.5462ZM32.5333 19.2756C32.5329 19.2756 32.5325 19.2758 32.5323 19.276C32.5318 19.2765 32.5318 19.2776 32.5318 19.2796C32.5064 19.297 32.4814 19.3148 32.4564 19.3325C32.3917 19.3782 32.3273 19.4237 32.2587 19.4628C32.1931 19.4997 32.1258 19.5317 32.0579 19.5639C32.0188 19.5825 31.9794 19.6011 31.9401 19.6209C31.9401 19.6209 31.9401 19.6167 31.936 19.6167C31.9277 19.6043 31.9111 19.6001 31.8946 19.6084C31.8036 19.6584 31.725 19.7249 31.6546 19.7957C31.6422 19.804 31.6298 19.8165 31.6215 19.829L31.5843 19.8664V19.8706C31.5677 19.8872 31.5512 19.9039 31.5305 19.9289C31.5262 19.9332 31.5229 19.9375 31.5197 19.9417C31.5137 19.9495 31.5082 19.9567 31.4974 19.9622C31.4808 19.9705 31.4395 19.9705 31.4436 19.9455V19.9414C31.4312 19.9497 31.4146 19.958 31.4022 19.9622C31.396 19.9663 31.3898 19.9694 31.3836 19.9726C31.3774 19.9757 31.3712 19.9788 31.365 19.983C31.3608 19.9788 31.3526 19.9788 31.3484 19.9788C31.3443 19.9788 31.336 19.9788 31.3319 19.983C31.3222 19.9913 31.3126 19.9992 31.3029 20.007C31.2836 20.0227 31.2643 20.0385 31.245 20.0579C31.1953 20.1037 31.1498 20.1536 31.1043 20.2077C31.1043 20.2077 31.1043 20.2119 31.1002 20.2119C31.1002 20.2139 31.0991 20.215 31.0981 20.216C31.0971 20.2171 31.096 20.2181 31.096 20.2202L31.0878 20.2285C31.0862 20.2301 31.0852 20.2317 31.0844 20.233C31.083 20.2352 31.082 20.2368 31.0795 20.2368L31.0753 20.241C31.0712 20.2493 31.0671 20.2576 31.0588 20.266C31.0547 20.2701 31.0464 20.2743 31.0381 20.2743C31.034 20.2701 31.0298 20.266 31.0298 20.2618C31.0278 20.2597 31.0267 20.2576 31.0257 20.2556C31.0247 20.2535 31.0236 20.2514 31.0216 20.2493C31.0174 20.2431 31.0143 20.2368 31.0112 20.2306C31.0081 20.2243 31.005 20.2181 31.0009 20.2119V20.2077C31.0009 20.2056 30.9998 20.2035 30.9988 20.2015C30.9978 20.1994 30.9967 20.1973 30.9967 20.1952L31.0712 20.1078L31.0753 20.1037C31.0795 20.0995 31.0836 20.0943 31.0877 20.0891C31.0919 20.0839 31.096 20.0787 31.1002 20.0745C31.1064 20.0662 31.1136 20.0579 31.1209 20.0496C31.1281 20.0412 31.1353 20.0329 31.1415 20.0246C31.1436 20.0204 31.1457 20.0173 31.1478 20.0142C31.1498 20.0111 31.1519 20.0079 31.154 20.0038C31.1788 19.9705 31.2036 19.9372 31.2284 19.8997V19.8956C31.2326 19.8914 31.2367 19.8872 31.2367 19.8789C31.2491 19.8623 31.2615 19.8456 31.2698 19.829L31.2946 19.779V19.7749L31.2988 19.7707C31.2988 19.7686 31.2998 19.7676 31.3008 19.7666C31.3019 19.7655 31.3029 19.7645 31.3029 19.7624C31.307 19.752 31.3112 19.7426 31.3153 19.7333C31.3195 19.7239 31.3236 19.7145 31.3277 19.7041V19.7L31.3319 19.6833C31.3339 19.6792 31.335 19.675 31.336 19.6708C31.337 19.6667 31.3381 19.6625 31.3402 19.6584V19.6542C31.3422 19.648 31.3433 19.6417 31.3443 19.6355C31.3453 19.6292 31.3464 19.623 31.3484 19.6167C31.3484 19.6126 31.3484 19.6043 31.3443 19.6001C31.3691 19.5543 31.4022 19.5127 31.4395 19.4711C31.4374 19.4711 31.4353 19.4721 31.4332 19.4732C31.4321 19.4738 31.4309 19.4744 31.4297 19.4748C31.4288 19.4751 31.4279 19.4752 31.427 19.4752C31.4086 19.4868 31.3928 19.5023 31.3766 19.518C31.3638 19.5305 31.3507 19.5432 31.336 19.5543C31.3112 19.5751 31.2615 19.5418 31.2946 19.5169C31.3153 19.5002 31.3319 19.4836 31.3484 19.4669C31.3484 19.4669 31.3484 19.4628 31.3526 19.4628C31.3691 19.4478 31.3849 19.4309 31.4009 19.4139C31.4249 19.3881 31.4493 19.3621 31.4767 19.3421C31.5057 19.3213 31.5263 19.3046 31.5512 19.2838C31.5553 19.2796 31.5594 19.2755 31.5636 19.2755C31.5801 19.2547 31.5967 19.2339 31.6174 19.2131C31.6174 19.2131 31.6215 19.2131 31.6215 19.2089C31.7636 19.0711 31.9633 19.0225 32.1671 18.9729C32.2956 18.9416 32.4258 18.9099 32.5442 18.8551C32.6111 18.8273 32.6857 18.8383 32.7594 18.8491C32.8179 18.8577 32.8759 18.8662 32.929 18.8551C32.9993 18.8551 33.0738 18.8551 33.1442 18.9051C32.9806 18.9922 32.8244 19.0918 32.6699 19.1904C32.6252 19.2189 32.5805 19.2474 32.5359 19.2755C32.5348 19.2755 32.5339 19.2755 32.5333 19.2756ZM33.0504 17.5794C33.031 17.5816 33.0185 17.583 33.0292 17.5939C33.0996 17.6646 33.2444 17.6396 33.3437 17.5855C33.414 17.5356 33.4885 17.5356 33.5837 17.5356C33.6085 17.5356 33.6085 17.4898 33.6085 17.4648C33.6788 17.4898 33.7285 17.4898 33.7988 17.4898C34.374 17.3691 34.9284 17.2484 35.458 16.9821C34.9221 16.568 34.2615 16.3836 33.6144 16.2029C33.507 16.1729 33.4 16.1431 33.294 16.1123C33.3173 16.1123 33.3406 16.12 33.3641 16.1278C33.4114 16.1436 33.4594 16.1596 33.5092 16.1123C33.4435 16.0599 33.3705 16.0499 33.2981 16.04C33.2382 16.0318 33.1787 16.0236 33.1244 15.9916C33.1301 15.9916 33.1368 15.9929 33.1441 15.9943C33.1689 15.9991 33.2004 16.0052 33.2196 15.9666C33.0939 15.9034 32.9682 15.8819 32.8413 15.8603C32.7761 15.8491 32.7105 15.8379 32.6444 15.821C32.7644 15.796 32.8389 15.7003 32.8389 15.5796C32.8389 15.5546 32.7892 15.5546 32.7644 15.5546C32.4789 15.7003 32.2845 15.9666 32.1645 16.2787C32.2726 16.3424 32.3892 16.3351 32.5035 16.3278C32.5684 16.3237 32.6326 16.3196 32.6941 16.3287C32.6398 16.3802 32.5614 16.3942 32.4861 16.4077C32.458 16.4127 32.4303 16.4176 32.4044 16.4244C32.33 16.4411 32.2596 16.4952 32.2845 16.5451C32.301 16.5659 32.3176 16.5742 32.3382 16.5784C32.2845 16.595 32.2348 16.62 32.1893 16.6658C32.2574 16.7194 32.3276 16.7091 32.397 16.6988C32.4245 16.6948 32.4519 16.6908 32.4789 16.6908C32.4789 16.721 32.4988 16.7313 32.5194 16.7419C32.53 16.7474 32.5408 16.753 32.5493 16.7615C32.4293 16.8073 32.3341 16.9072 32.3093 16.9779C32.2796 17.05 32.2249 17.0969 32.1706 17.1433C32.134 17.1746 32.0976 17.2057 32.0693 17.2443V17.3192C31.9894 17.39 31.9072 17.4533 31.8262 17.5157C31.6597 17.6439 31.498 17.7685 31.37 17.9476C31.3949 17.9476 31.3949 17.9726 31.3949 17.9975C31.372 18.0321 31.3394 18.056 31.3085 18.0787C31.2724 18.1052 31.2386 18.13 31.2252 18.1682C31.2252 18.1931 31.2252 18.2181 31.25 18.2181C31.4019 18.1679 31.5332 18.0834 31.662 18.0006C31.7789 17.9254 31.8937 17.8516 32.0196 17.8061C32.1226 17.7813 32.2122 17.7346 32.2997 17.6891C32.3739 17.6504 32.4466 17.6126 32.5244 17.5897C32.5844 17.5772 32.6506 17.5595 32.7168 17.5418C32.783 17.5241 32.8492 17.5065 32.9092 17.494C32.9092 17.5189 32.9092 17.5439 32.9341 17.5439H33.1244C33.1127 17.5722 33.0757 17.5765 33.0504 17.5794Z" fill="#000091"/>
<path d="M57.909 8.40894H44.1258C44.1258 8.40894 44.1508 8.4131 44.255 8.46728C44.3675 8.52562 44.5133 8.60479 44.6008 8.65063C44.78 8.74231 44.9508 8.85899 45.0633 9.03818C45.1133 9.10902 45.1841 9.25487 45.1383 9.35071C45.0883 9.47156 45.0633 9.66742 44.9425 9.71326C44.7967 9.78827 44.605 9.78827 44.4342 9.76326C44.3383 9.76326 44.2425 9.73826 44.1425 9.71326C44.505 9.85911 44.8466 10.03 45.0883 10.3675C45.1133 10.4175 45.2091 10.4383 45.305 10.4383C45.33 10.4383 45.33 10.4883 45.33 10.5092C45.28 10.5592 45.2341 10.5842 45.2591 10.655H45.33C45.4508 10.605 45.4258 10.3633 45.5966 10.4383C45.7175 10.5092 45.7675 10.68 45.6925 10.8009C45.5966 10.8967 45.5008 10.9717 45.4008 11.0426C45.3758 11.0926 45.3758 11.1634 45.4008 11.2134C45.4716 11.3093 45.4966 11.4051 45.5216 11.5051C45.5966 11.676 45.6175 11.8677 45.6925 12.0385C45.7883 12.4011 45.8841 12.7636 45.8633 13.1303C45.8633 13.322 45.7675 13.4929 45.8383 13.6887C45.8883 13.8804 46.0091 14.0263 46.105 14.1971C46.2008 14.343 46.2966 14.4388 46.3716 14.5847C46.5175 14.8264 46.7841 15.0681 46.6633 15.3598C46.5925 15.5306 46.3258 15.5056 46.155 15.6015C46.0091 15.7223 46.13 15.9182 46.205 16.039C46.3258 16.2557 46.0591 16.4015 45.8883 16.4766C45.9383 16.5516 46.0341 16.5266 46.0591 16.5724C46.0841 16.6932 46.205 16.7641 46.13 16.8891C46.0341 17.035 45.7425 17.1058 45.8883 17.3267C45.9841 17.4975 45.9216 17.685 45.8633 17.8601C45.7925 18.0767 45.5966 18.1726 45.4258 18.2226C45.28 18.2726 45.1091 18.2726 44.9675 18.2476C44.9175 18.2226 44.8716 18.1976 44.8217 18.1976C44.4092 18.1476 43.9967 18.0309 43.5883 18.0309C43.4675 18.0559 43.3467 18.0767 43.2508 18.1268C43.1425 18.2059 43.0425 18.2934 42.9592 18.3851C42.9592 18.3851 42.9592 18.3851 42.955 18.3893C42.9383 18.4101 42.9175 18.4268 42.9008 18.4476C42.8925 18.4601 42.88 18.4726 42.8717 18.4851C42.8633 18.4935 42.8592 18.5018 42.8508 18.5101C42.78 18.5976 42.7175 18.6935 42.6592 18.7893C42.655 18.7977 42.6508 18.8018 42.6467 18.806C42.6425 18.8185 42.6342 18.8268 42.6258 18.8393C42.5467 18.9852 42.4883 19.1352 42.4425 19.2852C42.2758 19.8395 42.3508 20.3145 42.4675 20.4312C42.5008 20.4645 43.2675 20.7021 43.8008 20.9396C44.0508 21.0521 44.2258 21.1354 44.3717 21.2271H57.9048V8.40894H57.909Z" fill="#E1000F"/>
<path d="M44.9446 13.0821C45.0402 13.1071 45.1856 13.1071 45.1856 13.157C45.1357 13.3485 44.849 13.3984 44.7035 13.594H44.6287C44.5581 13.644 44.5789 13.7647 44.5082 13.7647C44.4376 13.7397 44.3628 13.7647 44.2921 13.7896C44.3877 13.8853 44.5082 13.9603 44.6537 13.9353C44.6786 13.9353 44.7243 13.9852 44.7243 14.031C44.7243 14.031 44.7493 14.031 44.7742 14.006C44.7991 14.006 44.8241 14.006 44.8241 14.031V14.1267C44.7534 14.2224 44.6287 14.1767 44.5332 14.1975C44.7285 14.2474 44.9196 14.2474 45.09 14.1975C45.2355 14.1475 45.09 13.9062 45.1856 13.7855C45.1357 13.7855 45.1856 13.7106 45.1357 13.7106C45.1856 13.6606 45.2313 13.5899 45.2812 13.5649C45.3311 13.5649 45.4017 13.5399 45.4266 13.49C45.4266 13.44 45.3311 13.4192 45.3518 13.3693C45.4973 13.2736 45.6178 13.1279 45.5679 12.9823C45.543 12.9073 45.3518 12.9073 45.2313 12.8616C45.1108 12.8158 44.9654 12.8616 44.8199 12.8865C44.6994 12.8865 44.5789 12.9614 44.4584 12.9823C44.288 13.0322 44.1425 13.1279 44.0012 13.2236C44.1716 13.1529 44.3378 13.1279 44.5332 13.078C44.6786 13.0821 44.7991 13.0488 44.9446 13.0821Z" fill="#808080"/>
<path d="M24.1384 37.9092H25.9586V31.4745L27.9582 34.8328H29.24L31.2397 31.4745V37.9092H33.0598V28.9365H30.791L28.5991 32.705L26.4072 28.9365H24.1384V37.9092ZM35.7564 37.9092H37.5765V28.9365H35.7564V37.9092ZM40.2768 37.9092H42.097V31.4232L46.1091 37.9092H48.442V28.9365H46.6218V35.4225L42.6097 28.9365H40.2768V37.9092ZM51.1437 37.9092H52.9639V28.9365H51.1437V37.9092ZM54.8566 36.6658C55.6513 37.6144 56.6639 38.1655 58.1765 38.1655C59.83 38.1655 61.1375 37.1529 61.1631 35.4609C61.1631 32.3845 57.0869 32.846 57.0869 31.2181C57.0869 30.6797 57.5099 30.2695 58.1508 30.2695C58.8302 30.2695 59.4198 30.7182 59.9454 31.3975L61.2785 30.1926C60.5094 29.2825 59.4839 28.6801 58.138 28.6801C56.4204 28.6801 55.2411 29.8594 55.2411 31.2822C55.2411 34.3201 59.3173 33.8715 59.3173 35.525C59.3173 36.1659 58.8815 36.5505 58.1637 36.5505C57.433 36.5505 56.7152 36.1403 56.1768 35.4481L54.8566 36.6658ZM62.2784 30.59H65.0471V37.9092H66.8673V30.59H69.636V28.9365H62.2784V30.59ZM73.2343 28.1674H74.9007L73.4522 26.4369H71.5808L73.2343 28.1674ZM71.427 37.9092H76.6568V36.3966H73.2471V34.0894H76.1441V32.5768H73.2471V30.449H76.6568V28.9365H71.427V37.9092ZM78.9642 37.9092H80.7843V34.2816H81.7201L84.1171 37.9092H86.2577L83.4505 33.9355C84.3734 33.5125 84.899 32.705 84.899 31.6155C84.899 29.9491 83.6812 28.9365 81.7072 28.9365H78.9642V37.9092ZM81.8098 30.449C82.5789 30.449 83.0275 30.9105 83.0275 31.5898C83.0275 32.3205 82.5789 32.7691 81.8098 32.7691H80.7843V30.449H81.8098ZM87.6029 37.9092H92.8327V36.3966H89.4231V34.0894H92.32V32.5768H89.4231V30.449H92.8327V28.9365H87.6029V37.9092ZM24.1384 50.9092H27.6634C30.509 50.9092 32.4318 48.8455 32.4318 46.4228C32.4318 44.0002 30.509 41.9365 27.6634 41.9365H24.1384V50.9092ZM27.689 43.59C29.3554 43.59 30.5603 44.8205 30.5603 46.4228C30.5603 48.0123 29.3554 49.2556 27.689 49.2556H25.9586V43.59H27.689ZM34.3794 50.9092H39.6092V49.3966H36.1996V47.0894H39.0965V45.5768H36.1996V43.449H39.6092V41.9365H34.3794V50.9092ZM45.4356 50.9092H50.6654V49.2556H47.2558V41.9365H45.4356V50.9092ZM51.9813 45.6281L53.4682 41.9365H51.6224L50.4687 45.6281H51.9813ZM58.4997 41.1674L60.1661 39.4369H58.2946L56.8462 41.1674H58.4997ZM55.0773 50.9092H60.3071V49.3966H56.8975V47.0894H59.7944V45.5768H56.8975V43.449H60.3071V41.9365H55.0773V50.9092ZM62.6145 50.9092H66.1395C68.9851 50.9092 70.9078 48.8455 70.9078 46.4228C70.9078 44.0002 68.9851 41.9365 66.1395 41.9365H62.6145V50.9092ZM66.1651 43.59C67.8315 43.59 69.0364 44.8205 69.0364 46.4228C69.0364 48.0123 67.8315 49.2556 66.1651 49.2556H64.4346V43.59H66.1651ZM78.147 47.5508C78.147 48.7557 77.4548 49.4607 76.3396 49.4607C75.1988 49.4607 74.5195 48.7557 74.5195 47.5508V41.9365H72.6993V47.397C72.6993 49.7555 74.0836 51.1655 76.3268 51.1655C78.5828 51.1655 79.9672 49.7555 79.9672 47.397V41.9365H78.147V47.5508ZM86.52 49.4607C84.828 49.4607 83.6231 48.1405 83.6231 46.4228C83.6231 44.7052 84.828 43.3849 86.52 43.3849C87.5454 43.3849 88.353 43.8848 88.8657 44.6155L90.3013 43.5003C89.481 42.4107 88.1479 41.6801 86.52 41.6801C83.6872 41.6801 81.7516 43.8592 81.7516 46.4228C81.7516 48.9865 83.6872 51.1655 86.52 51.1655C88.1479 51.1655 89.481 50.4477 90.3013 49.3325L88.8657 48.2302C88.353 48.9608 87.5454 49.4607 86.52 49.4607ZM90.8827 50.9092H92.8182L93.677 48.5763H97.2661L98.1249 50.9092H100.06L96.6637 41.9365H94.2795L90.8827 50.9092ZM94.241 47.0253L95.4716 43.6541L96.7021 47.0253H94.241ZM99.8141 43.59H102.583V50.9092H104.403V43.59H107.172V41.9365H99.8141V43.59ZM108.963 50.9092H110.783V41.9365H108.963V50.9092ZM117.482 41.6801C114.65 41.6801 112.714 43.8592 112.714 46.4228C112.714 48.9865 114.65 51.1655 117.482 51.1655C120.302 51.1655 122.238 48.9865 122.238 46.4228C122.238 43.8592 120.302 41.6801 117.482 41.6801ZM117.482 49.4607C115.79 49.4607 114.585 48.1405 114.585 46.4228C114.585 44.7052 115.79 43.3849 117.482 43.3849C119.162 43.3849 120.366 44.7052 120.366 46.4228C120.366 48.1405 119.162 49.4607 117.482 49.4607ZM124.175 50.9092H125.995V44.4232L130.007 50.9092H132.34V41.9365H130.52V48.4225L126.508 41.9365H124.175V50.9092ZM24.1384 63.9092H25.9586V57.4232L29.9707 63.9092H32.3036V54.9365H30.4834V61.4225L26.4713 54.9365H24.1384V63.9092ZM33.8773 63.9092H35.8128L36.6717 61.5763H40.2608L41.1196 63.9092H43.0551L39.6583 54.9365H37.2741L33.8773 63.9092ZM37.2357 60.0253L38.4662 56.6541L39.6968 60.0253H37.2357ZM42.8088 56.59H45.5775V63.9092H47.3977V56.59H50.1664V54.9365H42.8088V56.59ZM51.9573 63.9092H53.7775V54.9365H51.9573V63.9092ZM60.477 54.6801C57.6442 54.6801 55.7087 56.8592 55.7087 59.4228C55.7087 61.9865 57.6442 64.1655 60.477 64.1655C63.297 64.1655 65.2326 61.9865 65.2326 59.4228C65.2326 56.8592 63.297 54.6801 60.477 54.6801ZM60.477 62.4607C58.785 62.4607 57.5801 61.1405 57.5801 59.4228C57.5801 57.7052 58.785 56.3849 60.477 56.3849C62.1562 56.3849 63.3611 57.7052 63.3611 59.4228C63.3611 61.1405 62.1562 62.4607 60.477 62.4607ZM67.1694 63.9092H68.9896V57.4232L73.0017 63.9092H75.3346V54.9365H73.5144V61.4225L69.5023 54.9365H67.1694V63.9092ZM76.9083 63.9092H78.8439L79.7027 61.5763H83.2918L84.1506 63.9092H86.0862L82.6893 54.9365H80.3052L76.9083 63.9092ZM80.2667 60.0253L81.4973 56.6541L82.7278 60.0253H80.2667ZM87.664 63.9092H92.8938V62.2556H89.4842V54.9365H87.664V63.9092ZM94.688 63.9092H99.9178V62.3966H96.5081V60.0894H99.405V58.5768H96.5081V56.449H99.9178V54.9365H94.688V63.9092ZM24.1384 75.9092H29.3682V74.3966H25.9586V72.0894H28.8555V70.5768H25.9586V68.449H29.3682V66.9365H24.1384V75.9092ZM30.9404 68.59H33.7092V75.9092H35.5293V68.59H38.2981V66.9365H30.9404V68.59ZM43.608 75.9092H47.133C49.9786 75.9092 51.9014 73.8455 51.9014 71.4228C51.9014 69.0002 49.9786 66.9365 47.133 66.9365H43.608V75.9092ZM47.1586 68.59C48.825 68.59 50.0299 69.8205 50.0299 71.4228C50.0299 73.0123 48.825 74.2556 47.1586 74.2556H45.4282V68.59H47.1586ZM53.849 75.9092H59.0789V74.3966H55.6692V72.0894H58.5661V70.5768H55.6692V68.449H59.0789V66.9365H53.849V75.9092ZM64.9052 75.9092H70.135V74.2556H66.7254V66.9365H64.9052V75.9092ZM71.1892 75.9092H73.1248L73.9836 73.5763H77.5727L78.4315 75.9092H80.367L76.9702 66.9365H74.586L71.1892 75.9092ZM74.5476 72.0253L75.7781 68.6541L77.0087 72.0253H74.5476ZM87.4251 75.1657V66.9365H85.6049V75.2555C85.6049 76.1784 85.1819 76.5245 84.3743 76.5245C84.1949 76.5245 84.0411 76.5116 83.9129 76.486V78.0883C84.0923 78.1395 84.3359 78.1395 84.6307 78.1395C86.5021 78.1395 87.4251 77.1525 87.4251 75.1657ZM90.1345 75.9092H95.3643V74.3966H91.9547V72.0894H94.8516V70.5768H91.9547V68.449H95.3643V66.9365H90.1345V75.9092ZM102.913 72.5508C102.913 73.7557 102.221 74.4607 101.106 74.4607C99.9649 74.4607 99.2856 73.7557 99.2856 72.5508V66.9365H97.4654V72.397C97.4654 74.7555 98.8498 76.1655 101.093 76.1655C103.349 76.1655 104.733 74.7555 104.733 72.397V66.9365H102.913V72.5508ZM107.187 75.9092H109.007V69.4232L113.019 75.9092H115.352V66.9365H113.532V73.4225L109.52 66.9365H107.187V75.9092ZM118.054 75.9092H123.283V74.3966H119.874V72.0894H122.771V70.5768H119.874V68.449H123.283V66.9365H118.054V75.9092ZM124.783 74.6658C125.578 75.6144 126.591 76.1655 128.103 76.1655C129.757 76.1655 131.064 75.1529 131.09 73.4609C131.09 70.3845 127.014 70.846 127.014 69.2181C127.014 68.6797 127.437 68.2695 128.078 68.2695C128.757 68.2695 129.347 68.7182 129.872 69.3975L131.205 68.1926C130.436 67.2825 129.411 66.6801 128.065 66.6801C126.347 66.6801 125.168 67.8594 125.168 69.2822C125.168 72.3201 129.244 71.8715 129.244 73.525C129.244 74.1659 128.808 74.5505 128.09 74.5505C127.36 74.5505 126.642 74.1403 126.104 73.4481L124.783 74.6658ZM132.295 74.6658C133.09 75.6144 134.103 76.1655 135.615 76.1655C137.269 76.1655 138.576 75.1529 138.602 73.4609C138.602 70.3845 134.526 70.846 134.526 69.2181C134.526 68.6797 134.949 68.2695 135.59 68.2695C136.269 68.2695 136.859 68.7182 137.384 69.3975L138.717 68.1926C137.948 67.2825 136.923 66.6801 135.577 66.6801C133.859 66.6801 132.68 67.8594 132.68 69.2822C132.68 72.3201 136.756 71.8715 136.756 73.525C136.756 74.1659 136.32 74.5505 135.602 74.5505C134.872 74.5505 134.154 74.1403 133.616 73.4481L132.295 74.6658ZM140.703 75.9092H145.933V74.3966H142.523V72.0894H145.42V70.5768H142.523V68.449H145.933V66.9365H140.703V75.9092Z" fill="#161616"/>
<path fill-rule="evenodd" clip-rule="evenodd" d="M56.124 99.9287L54.9318 101.018H54.6241L55.3292 99.7749H56.124V99.9287ZM55.2651 104.145H55.0087C54.6882 104.53 54.3292 104.837 53.9831 104.837C53.6241 104.837 53.4447 104.619 53.4447 104.145C53.4447 103.953 53.4703 103.748 53.5088 103.568L55.5984 102.876C56.0087 101.902 55.5215 101.479 54.9446 101.479C53.9575 101.479 52.8293 103.21 52.8293 104.594C52.8293 105.248 53.137 105.606 53.6241 105.606C54.1882 105.594 54.7779 105.042 55.2651 104.145ZM54.548 102.044C54.83 102.044 55.0736 102.261 54.9454 102.761L53.6506 103.107C53.8557 102.492 54.2403 102.044 54.548 102.044ZM50.4718 102.069H51.1641L50.0616 105.094C49.959 105.35 50.1 105.606 50.3692 105.606C51.1513 105.606 52.0871 104.94 52.4461 103.991H52.2538C51.9718 104.389 51.3564 104.825 50.8949 104.901L51.9077 102.069H52.9461L53.0743 101.633H52.0615L52.4461 100.544H52.0487L51.3308 101.633L50.4718 101.748V102.069ZM49.5096 101.493C49.6506 101.493 49.8429 101.647 49.7532 101.929L48.5096 104.941C48.8301 104.889 49.1635 104.582 49.3558 104.3H49.5609C49.266 105.056 48.5994 105.607 48.0225 105.607C47.8815 105.607 47.6763 105.453 47.7789 105.171L48.9327 102.159C48.6122 102.211 48.2789 102.518 48.0866 102.8H47.8943C48.1891 102.031 48.9071 101.493 49.5096 101.493ZM49.8694 100.723C50.1258 100.723 50.3438 100.518 50.3438 100.249C50.3438 99.9928 50.1258 99.7749 49.8694 99.7749C49.6002 99.7749 49.3951 99.9928 49.3951 100.249C49.3951 100.505 49.613 100.723 49.8694 100.723ZM44.2669 103.223C44.5489 102.608 44.4464 102.326 44.2669 102.326C44.113 102.326 43.9336 102.493 43.7541 102.8H43.5618C43.8566 102.146 44.2412 101.493 44.6643 101.493C45.0233 101.493 45.1515 101.852 45.1515 102.249V102.813C45.2092 102.746 45.2653 102.68 45.3202 102.616L45.3212 102.614L45.322 102.613C45.8636 101.978 46.2772 101.493 46.754 101.493C47.1257 101.493 47.318 101.723 47.318 102.07C47.318 102.275 47.2539 102.531 47.1129 102.8L46.0489 104.941C46.3694 104.889 46.7027 104.582 46.895 104.3H47.0873C46.7924 105.069 46.0745 105.607 45.472 105.607C45.2027 105.607 45.0489 105.325 45.1643 105.094L46.395 102.723C46.536 102.454 46.5617 102.275 46.3437 102.275C46.0489 102.275 45.3566 102.762 44.9848 103.21L44.1771 105.338C44.0874 105.556 43.9977 105.607 43.7925 105.607C43.4592 105.607 43.2926 105.389 43.4464 105.043L44.2669 103.223ZM43.4326 102.402C43.5736 101.915 43.4967 101.479 43.1249 101.479C42.6613 101.479 42.5161 101.785 42.0668 102.733L42.0352 102.799V102.235C42.0352 101.838 41.907 101.479 41.5481 101.479C41.125 101.479 40.7404 102.133 40.4456 102.787H40.6379C40.843 102.492 41.0353 102.312 41.1891 102.312C41.3686 102.312 41.4712 102.594 41.1891 103.21L40.3686 105.03C40.2148 105.376 40.3815 105.594 40.7148 105.594C40.9199 105.594 41.0096 105.542 41.0994 105.324L41.907 103.197C42.1378 102.915 42.3429 102.671 42.5993 102.402H43.4326ZM39.3818 102.761C39.51 102.261 39.2664 102.044 38.9844 102.044C38.6767 102.044 38.2921 102.492 38.087 103.107L39.3818 102.761ZM39.7015 104.145H39.4451C39.1246 104.53 38.7656 104.837 38.4195 104.837C38.0605 104.837 37.881 104.619 37.881 104.145C37.881 103.953 37.9067 103.748 37.9451 103.568L40.0348 102.876C40.4451 101.902 39.9579 101.479 39.381 101.479C38.3939 101.479 37.2657 103.21 37.2657 104.594C37.2657 105.248 37.5734 105.606 38.0605 105.606C38.6246 105.594 39.2143 105.042 39.7015 104.145ZM35.6005 102.069H34.9082V101.748L35.7671 101.633L36.4851 100.544H36.8825L36.4979 101.633H37.5107L37.3825 102.069H36.344L35.3313 104.901C35.7928 104.825 36.4081 104.389 36.6902 103.991H36.8825C36.5235 104.94 35.5877 105.606 34.8056 105.606C34.5364 105.606 34.3954 105.35 34.498 105.094L35.6005 102.069ZM31.2423 104.415C31.2423 103.479 32.2807 102.223 32.8576 102.223C32.9858 102.223 33.114 102.236 33.2166 102.274L32.6141 103.889C32.2679 104.312 31.7295 104.825 31.4731 104.825C31.332 104.825 31.2423 104.697 31.2423 104.415ZM34.1015 101.287L34.422 101.313L33.3067 103.876C33.0374 104.492 33.1528 104.774 33.3067 104.774C33.4605 104.774 33.6528 104.594 33.8579 104.299H34.0502C33.7554 104.953 33.3708 105.607 32.9477 105.607C32.5887 105.607 32.3708 105.222 32.4349 104.53L32.4605 104.287L32.3907 104.384C31.9315 105.026 31.5159 105.607 31.0888 105.607C30.717 105.607 30.5247 105.376 30.5247 105.03C30.5247 103.543 32.1529 101.646 33.6784 101.646H33.7425L34.1015 101.287ZM31.1649 102.402C31.3059 101.915 31.229 101.479 30.8572 101.479C30.3936 101.479 30.2484 101.785 29.7991 102.733L29.7675 102.799V102.235C29.7675 101.838 29.6393 101.479 29.2804 101.479C28.8573 101.479 28.4727 102.133 28.1778 102.787H28.3701C28.5753 102.492 28.7676 102.312 28.9086 102.312C29.0881 102.312 29.1906 102.594 28.9086 103.21L28.0881 105.042C27.9343 105.389 28.1009 105.606 28.4342 105.606C28.6394 105.606 28.7291 105.555 28.8188 105.337L29.6265 103.21C29.8573 102.928 30.0624 102.684 30.3188 102.415H31.1649V102.402ZM25.8821 105.221L25.8052 105.452H22.8181L22.895 105.208C23.8181 105.042 23.9719 104.965 24.3565 103.927L25.1898 101.696C25.5616 100.658 25.4847 100.581 24.677 100.415L24.7539 100.184H28.6384L28.4077 101.427H28.1256C28.1256 100.684 28.0487 100.491 27.3436 100.491H27.1641C26.4718 100.491 26.3821 100.594 26.1898 101.132L25.6385 102.632H26.4462C26.9846 102.632 27.1897 102.299 27.4333 101.863H27.7154L27.0487 103.683H26.7667C26.8308 103.132 26.8308 102.914 26.3308 102.914H25.5231L25.1514 103.939C24.7495 105.007 24.8643 105.028 25.8213 105.21C25.8412 105.213 25.8615 105.217 25.8821 105.221Z" fill="black"/>
<path fill-rule="evenodd" clip-rule="evenodd" d="M28.4205 90.1229L27.2282 90.9821V90.995H26.9205L27.6256 89.969H28.4205V90.1229ZM36.7549 96.1375L38.6652 91.059L38.601 90.982L37.2805 91.1359V91.2898L37.537 91.4822C37.7559 91.6525 37.6979 91.8113 37.5163 92.3088L37.4857 92.3927L36.0241 96.2914C35.9088 96.5222 36.0626 96.8044 36.3318 96.8044C36.9344 96.8044 37.5754 96.2529 37.8703 95.4963H37.678C37.4729 95.7784 37.0626 96.0862 36.7549 96.1375ZM45.5104 92.226L46.7027 91.1359V90.982H45.9078L45.2027 92.226H45.5104ZM45.5864 95.3423H45.8429C45.3685 96.2529 44.7788 96.8043 44.2147 96.8043C43.7275 96.8043 43.4198 96.4453 43.4198 95.7912C43.4198 94.4062 44.548 92.6749 45.5352 92.6749C46.0993 92.6749 46.5993 93.0981 46.189 94.0727L44.0865 94.7652C44.048 94.9448 44.0224 95.15 44.0224 95.3423C44.0224 95.8169 44.2018 96.0349 44.5608 96.0349C44.907 96.0349 45.2659 95.7271 45.5864 95.3423ZM45.5217 93.9573C45.6499 93.47 45.4063 93.252 45.1243 93.252C44.8294 93.252 44.4448 93.7009 44.2269 94.3036L45.5217 93.9573ZM41.7525 93.2773H41.0602V92.9567L41.9192 92.8413L42.6371 91.7512H43.0345L42.6499 92.8413H43.6627L43.5345 93.2773H42.4961L41.4833 96.1115C41.9448 96.0346 42.5602 95.5986 42.8422 95.201H43.0345C42.6756 96.15 41.7397 96.8169 40.9576 96.8169C40.6884 96.8169 40.5474 96.5604 40.6499 96.3039L41.7525 93.2773ZM40.3422 93.1234C40.4191 92.8413 40.2396 92.6874 40.0858 92.6874C39.4832 92.6874 38.7653 93.2388 38.4704 93.9955H38.6627C38.855 93.7133 39.1883 93.4055 39.5088 93.3543L38.355 96.368C38.2524 96.6501 38.4576 96.804 38.5986 96.804C39.1755 96.804 39.8422 96.2526 40.137 95.4959H39.9447C39.7524 95.7781 39.4191 96.0859 39.0986 96.1372L40.3422 93.1234ZM40.9329 91.4565C40.9329 91.713 40.7149 91.931 40.4585 91.931C40.2021 91.931 39.9841 91.713 39.9841 91.4565C39.9841 91.2001 40.1893 90.982 40.4585 90.982C40.7149 90.982 40.9329 91.2001 40.9329 91.4565ZM34.4599 93.4315C33.883 93.4315 32.8445 94.6883 32.8445 95.6245C32.8445 95.9066 32.9343 96.0349 33.0881 96.0349C33.3317 96.0349 33.8701 95.5219 34.2163 95.0987L34.8189 93.4828C34.7035 93.4443 34.5881 93.4315 34.4599 93.4315ZM36.0243 92.521L35.7038 92.4953L35.3448 92.8544H35.2807C33.7551 92.8544 32.1269 94.7525 32.1269 96.2401C32.1269 96.5864 32.3192 96.8172 32.691 96.8172C33.1182 96.8172 33.5337 96.2361 33.993 95.5938L34.0628 95.4963L34.0371 95.7399C33.973 96.4325 34.191 96.8172 34.5499 96.8172C34.973 96.8172 35.3576 96.1632 35.6525 95.5091H35.4602C35.2551 95.8041 35.0628 95.9836 34.9089 95.9836C34.7551 95.9836 34.6397 95.7015 34.9089 95.0859L36.0243 92.521ZM29.5621 96.6762C29.0108 96.8943 28.6262 97.1508 28.6262 97.5483C28.6262 97.9202 28.9723 98.0741 29.6903 98.0741C30.6518 98.0741 31.1775 97.792 31.1775 97.4201C31.1775 97.2534 30.9595 97.1764 30.3826 96.984C30.0108 96.8686 29.7416 96.766 29.5621 96.6762ZM30.2023 95.0988C29.9459 95.0988 29.8561 94.8808 29.8561 94.6499C29.8561 93.9061 30.2151 92.9827 30.792 92.9827C31.0484 92.9827 31.1382 93.2007 31.1382 93.4316C31.1253 94.1882 30.7664 95.0988 30.2023 95.0988ZM30.6907 96.3042C31.3959 96.5222 31.8317 96.6889 31.8317 97.1763C31.8317 97.8047 30.6779 98.5485 29.2805 98.5357C28.4728 98.5357 27.7805 98.3176 27.7805 97.7918C27.7805 97.2917 28.242 96.8813 29.3702 96.5479C29.2164 96.4453 29.1523 96.317 29.1523 96.1375C29.1523 95.8297 29.4343 95.586 29.9215 95.3552C29.4471 95.2911 29.1395 94.932 29.1395 94.4062C29.1395 93.5982 29.8061 92.6749 30.8574 92.6749C31.0753 92.6749 31.2676 92.7262 31.4215 92.8287H32.5753L32.4471 93.2648H31.7676C31.8061 93.3802 31.8317 93.5084 31.8317 93.6495C31.8317 94.4318 31.2035 95.3295 30.2036 95.3808C29.9471 95.5219 29.8189 95.7143 29.8189 95.8682C29.8189 96.0493 30.0287 96.1105 30.4921 96.2458C30.5538 96.2638 30.62 96.2831 30.6907 96.3042ZM26.6258 94.1113C27.1258 94.1113 27.1386 94.3293 27.0617 94.8808H27.3437L28.0104 93.0597H27.7283C27.4848 93.4957 27.2796 93.8291 26.7412 93.8291H25.6386L26.1771 92.3287C26.3694 91.7901 26.4591 91.6875 27.1514 91.6875H27.6386C28.3437 91.6875 28.4206 91.8798 28.4206 92.6236H28.7027L28.9335 91.3797H24.754L24.6771 91.6105C25.4848 91.7772 25.5617 91.8542 25.1899 92.893L24.3566 95.1372C23.972 96.176 23.8181 96.253 22.8822 96.4197L22.8181 96.6634H27.4591L28.2924 95.3424H27.9719C27.4335 95.8682 26.895 96.3556 25.8437 96.3556C24.6874 96.3556 24.708 96.299 25.055 95.3456C25.0773 95.2842 25.101 95.2191 25.1258 95.1501L25.5104 94.1241H26.6258V94.1113Z" fill="black"/>
<path fill-rule="evenodd" clip-rule="evenodd" d="M30.4552 83.13C30.7115 83.13 30.9294 82.9122 30.9294 82.6559C30.9294 82.3997 30.7115 82.1819 30.4552 82.1819C30.1861 82.1819 29.9811 82.3997 29.9811 82.6559C29.9811 82.925 30.1861 83.13 30.4552 83.13ZM34.25 84.744C34.25 84.129 34.0963 83.8984 33.6605 83.8984C33.1223 83.8984 32.6225 84.475 32.1226 85.1669L33.1992 82.284L33.1351 82.1944L31.8151 82.3481V82.5019L32.0714 82.694C32.2945 82.8676 32.2299 83.0411 32.0397 83.551L32.0201 83.6037L30.8539 86.6531C30.7514 86.9094 30.636 87.2169 30.636 87.2937C30.636 87.6525 31.123 87.9984 31.5716 87.9984C32.5712 88.0112 34.25 86.1662 34.25 84.744ZM45.3613 83.4372L46.5531 82.3481V82.1944H45.7585L45.0537 83.4372H45.3613ZM45.4384 86.5506H45.6948C45.2078 87.4603 44.6182 88.0113 44.0543 87.9984C43.5674 87.9984 43.2598 87.6525 43.2598 86.9991C43.2598 85.6153 44.3876 83.8856 45.3744 83.8856C45.9383 83.8856 46.4381 84.3084 46.028 85.2822L43.939 85.9741C43.9006 86.1534 43.8749 86.3584 43.8749 86.5506C43.8749 87.0247 44.0543 87.2425 44.4132 87.2425C44.7592 87.2425 45.1181 86.935 45.4384 86.5506ZM45.3731 85.1669C45.5013 84.68 45.2578 84.4622 44.9758 84.4622C44.6683 84.4622 44.2838 84.9107 44.0787 85.5129L45.3731 85.1669ZM41.5911 84.4886H40.899V84.1683L41.7577 84.053L42.4753 82.9639H42.8726L42.4882 84.053H43.5006L43.3724 84.4886H42.3344L41.3219 87.3202C41.7833 87.2433 42.3985 86.8077 42.6804 86.4105H42.8726C42.5138 87.3586 41.5782 88.0248 40.7965 88.0248C40.5274 88.0248 40.3864 87.7686 40.4889 87.5123L41.5911 84.4886ZM40.5426 84.8217C40.6836 84.3348 40.6067 83.8992 40.235 83.8992C39.7715 83.8992 39.6264 84.2052 39.1772 85.1524L39.1457 85.2189V84.6551C39.1457 84.2579 39.0175 83.8992 38.6587 83.8992C38.2358 83.8992 37.8513 84.5526 37.5565 85.2061H37.7488C37.9538 84.9114 38.1461 84.732 38.287 84.732C38.4665 84.732 38.569 85.0139 38.287 85.6289L37.4668 87.4483C37.313 87.7942 37.4797 88.012 37.8129 88.012C38.0179 88.012 38.1076 87.9608 38.1973 87.7429L39.0047 85.6161C39.2354 85.3342 39.4405 85.0907 39.6968 84.8217H40.5426ZM36.4803 85.1669C36.6085 84.68 36.365 84.4622 36.083 84.4622C35.7755 84.4622 35.4038 84.9107 35.1859 85.5129L36.4803 85.1669ZM36.7999 86.5506H36.5436C36.2232 86.935 35.8644 87.2425 35.5184 87.2425C35.1595 87.2425 34.9801 87.0247 34.9801 86.5506C34.9801 86.3584 35.0057 86.1534 35.0442 85.9741L37.1331 85.2822C37.5432 84.3084 37.0562 83.8856 36.4795 83.8856C35.4927 83.8856 34.3649 85.6153 34.3649 86.9991C34.3649 87.6525 34.6725 87.9984 35.1595 87.9984C35.7234 88.0113 36.3129 87.4603 36.7999 86.5506ZM31.4183 87.038C31.4183 87.2045 31.713 87.3967 31.9181 87.3967C32.7511 87.3967 33.5329 85.8976 33.5201 85.0648C33.5201 84.783 33.3791 84.6676 33.1869 84.6676C32.8793 84.6676 32.3154 85.1289 31.9565 85.5645L31.6233 86.4614C31.508 86.7561 31.4183 86.9867 31.4183 87.038ZM30.0729 83.8992C30.2267 83.8992 30.4061 84.0529 30.3292 84.3348L29.0989 87.3458C29.4193 87.2945 29.7525 86.987 29.9447 86.7051H30.1369C29.8422 87.4611 29.1758 88.012 28.5991 88.012C28.4453 88.012 28.2402 87.8583 28.3427 87.5764L29.4962 84.5654C29.1758 84.6167 28.8426 84.9242 28.6503 85.2061H28.4581C28.7529 84.4501 29.4705 83.8992 30.0729 83.8992ZM24.7533 82.5666H27.5087L27.4318 82.8101C26.4962 82.9766 26.3424 83.0535 25.958 84.0913L25.1378 86.3463C24.7405 87.4226 24.843 87.5507 25.5479 87.5507C26.4187 87.5507 26.9897 86.9179 27.4884 86.3653C27.5254 86.3243 27.562 86.2837 27.5984 86.2438H27.9188L27.0088 87.8582H22.8181L22.895 87.6276C23.8177 87.461 23.9715 87.3841 24.356 86.3463L25.189 84.0785C25.5607 83.0407 25.4838 82.9638 24.6764 82.7973L24.7533 82.5666Z" fill="black"/>
</g>
<g clip-path="url(#clip1_4321_36341)">
<rect width="35.25" height="12.8182" transform="translate(22.8181 8.81812)" fill="white"/>
<path d="M34.0418 19.678C34.0461 19.678 34.0503 19.6717 34.0503 19.6717C34.0844 19.6466 34.1184 19.6152 34.1482 19.5775C34.1439 19.5775 34.1397 19.5775 34.1354 19.5712C34.1056 19.6026 34.0716 19.6403 34.0418 19.678Z" fill="#000091"/>
<path d="M38.756 18.0897L38.6815 18.1538C38.7241 18.1431 38.756 18.1325 38.756 18.0897Z" fill="#000091"/>
<path fill-rule="evenodd" clip-rule="evenodd" d="M37.2318 19.7122C37.3684 19.5748 37.5049 19.4292 37.6415 19.2793H37.6373C37.8939 18.988 38.1421 18.7092 38.44 18.4553C38.5311 18.3721 38.6179 18.3013 38.7007 18.2431C38.7129 18.2308 38.7191 18.2126 38.7251 18.1948C38.7315 18.1762 38.7377 18.158 38.7504 18.1473C38.6914 18.1699 38.6444 18.2054 38.5971 18.2412C38.5482 18.2783 38.499 18.3155 38.4359 18.3388C38.4111 18.3388 38.3862 18.3138 38.4111 18.2888C38.498 18.2264 38.5848 18.1598 38.6676 18.0932H38.651C38.6262 18.0932 38.6262 18.0683 38.6262 18.0433C38.3182 17.9944 38.0816 18.205 37.8698 18.3936L37.8566 18.4054C37.8237 18.422 37.7925 18.4055 37.768 18.3926C37.7556 18.386 37.745 18.3804 37.7366 18.3804C37.5493 18.4432 37.3877 18.559 37.225 18.6756C37.0752 18.783 36.9245 18.891 36.7519 18.9589V18.9089C36.6933 18.9292 36.6353 18.9555 36.5773 18.9819C36.4918 19.0208 36.4061 19.0598 36.3174 19.0796C36.1555 19.1172 36.0053 19.1123 35.8597 19.1076C35.8119 19.1061 35.7645 19.1045 35.7175 19.1045C35.4525 19.1308 35.1908 19.1876 34.9295 19.2443L34.8444 19.2627C34.8403 19.2648 34.8361 19.2658 34.832 19.2669C34.8279 19.2679 34.8237 19.2689 34.8196 19.271C34.6624 19.3126 34.5175 19.3709 34.3727 19.4541L34.3562 19.4625C34.3505 19.4701 34.3448 19.4768 34.3395 19.4831C34.3333 19.4905 34.3276 19.4973 34.3231 19.5041C34.2734 19.5623 34.2279 19.6123 34.1576 19.6497C34.0537 19.702 33.9639 19.7826 33.8756 19.8618C33.8373 19.8962 33.7991 19.9304 33.7604 19.9619C33.7521 19.9702 33.7355 19.9743 33.7231 19.9743C33.5949 20.0992 33.4666 20.2241 33.3342 20.3447C33.3259 20.3531 33.2887 20.3572 33.2597 20.3531C33.2597 20.3531 33.2638 20.3531 33.2638 20.3489L33.2762 20.3239L33.3383 20.224C33.3507 20.2053 33.3621 20.1866 33.3735 20.1679C33.3849 20.1491 33.3962 20.1304 33.4087 20.1117C33.4417 20.0618 33.4749 20.0118 33.5121 19.966C33.5204 19.9535 33.5204 19.941 33.5121 19.9327C33.5038 19.9244 33.4914 19.9202 33.479 19.9202C33.599 19.8037 33.7397 19.7038 33.8845 19.6164V19.6123C33.8679 19.6164 33.8431 19.604 33.8555 19.5873C33.8677 19.572 33.8776 19.5545 33.8869 19.5381L33.8969 19.5207C33.899 19.5166 33.9 19.5134 33.901 19.5103C33.9021 19.5072 33.9031 19.5041 33.9052 19.4999C33.9031 19.4957 33.9 19.4926 33.8969 19.4895C33.8938 19.4864 33.8907 19.4833 33.8886 19.4791L33.8635 19.4957C33.8335 19.5153 33.8027 19.5355 33.7769 19.5582C33.7586 19.5739 33.7416 19.5955 33.7241 19.6176C33.6861 19.6656 33.6461 19.7163 33.5866 19.7163C33.5824 19.7163 33.5617 19.7163 33.5493 19.7122C33.5369 19.7122 33.5286 19.708 33.5245 19.7038C33.5245 19.7018 33.5245 19.7007 33.525 19.7002C33.5255 19.6997 33.5266 19.6997 33.5286 19.6997C33.5286 19.6997 33.5328 19.6955 33.5328 19.6913C33.5328 19.6913 33.5328 19.6872 33.5369 19.6872C33.539 19.683 33.5411 19.6799 33.5431 19.6768C33.5452 19.6737 33.5473 19.6705 33.5493 19.6664C33.5514 19.6622 33.5535 19.6591 33.5555 19.656C33.5576 19.6529 33.5597 19.6497 33.5617 19.6456C33.5638 19.6435 33.5648 19.6404 33.5659 19.6372C33.5669 19.6341 33.568 19.631 33.57 19.6289L33.5747 19.6203C33.5788 19.613 33.5837 19.6043 33.5866 19.5956C33.5886 19.5915 33.5907 19.5883 33.5928 19.5852C33.5948 19.5821 33.5969 19.579 33.599 19.5748C33.6052 19.5665 33.6104 19.5571 33.6155 19.5478C33.6207 19.5384 33.6259 19.529 33.6321 19.5207C33.6362 19.5124 33.6404 19.5041 33.6486 19.4957C33.6528 19.4874 33.6569 19.4801 33.6611 19.4729C33.6652 19.4656 33.6693 19.4583 33.6735 19.45C33.6859 19.4292 33.6735 19.4125 33.6569 19.4084C33.7024 19.3501 33.7562 19.3001 33.8224 19.2627H33.8141C33.8713 19.234 33.93 19.2003 33.9884 19.1669C34.0228 19.1472 34.0576 19.1272 34.0914 19.1087C34.1038 19.0962 34.1162 19.0837 34.1327 19.0754C33.9962 19.1212 33.8721 19.1836 33.7521 19.2669C33.7521 19.2669 33.719 19.2793 33.7107 19.2877C33.7107 19.2877 33.6859 19.296 33.6528 19.2669C33.6486 19.2627 33.6486 19.2585 33.6486 19.2502C33.663 19.2213 33.6927 19.2021 33.7247 19.1814C33.748 19.1664 33.7726 19.1505 33.7935 19.1295C33.8183 19.1295 33.839 19.1295 33.839 19.1545C34.3155 18.7808 34.9031 18.6944 35.4927 18.6077C35.8553 18.5543 36.2186 18.5009 36.5574 18.3804C36.5926 18.3554 36.6288 18.3315 36.665 18.3076C36.7012 18.2836 36.7374 18.2597 36.7726 18.2347C36.8329 18.2096 36.887 18.1666 36.9442 18.1211C37.0008 18.076 37.0605 18.0285 37.1325 17.9934C37.3229 17.8477 37.4677 17.6812 37.5422 17.4357C37.5422 17.4107 37.5173 17.3858 37.5173 17.3858C37.2029 17.7229 36.8429 17.9892 36.4581 18.1848C36.0912 18.3784 35.698 18.4071 35.3088 18.4355C35.1626 18.4462 35.0169 18.4568 34.8734 18.4761C34.8982 18.4262 34.9479 18.4262 34.9934 18.4262C34.9934 18.3671 35.0217 18.3417 35.058 18.309C35.0677 18.3003 35.0781 18.2911 35.0885 18.2805H35.1589C35.1713 18.2805 35.1775 18.268 35.1837 18.2556C35.1899 18.2431 35.1961 18.2306 35.2085 18.2306C35.2582 18.2306 35.3285 18.2056 35.3037 18.2056C35.2657 18.1568 35.2106 18.1761 35.1497 18.1975C35.0912 18.218 35.0274 18.2403 34.9685 18.2056C34.9904 18.1816 34.997 18.1528 35.003 18.1266C35.0095 18.0982 35.0152 18.0729 35.0389 18.06H35.1341C35.1341 18.01 35.1837 17.9642 35.1837 17.9642C35.3995 17.8345 35.6079 17.7212 35.8123 17.6101C35.9489 17.5358 36.0839 17.4624 36.2181 17.3858C36.191 17.3858 36.1669 17.3969 36.1435 17.4077C36.1064 17.425 36.071 17.4414 36.0278 17.4107C36.0526 17.4107 36.0526 17.393 36.0526 17.3754C36.0526 17.3577 36.0526 17.34 36.0774 17.34C36.2327 17.2985 36.3708 17.2313 36.5119 17.1627C36.6115 17.1142 36.7126 17.065 36.8222 17.0237C36.7897 17.0237 36.7596 17.0324 36.7302 17.041C36.6737 17.0574 36.62 17.073 36.5574 17.0237C36.5738 17.0154 36.5871 17.0049 36.6002 16.9945C36.6267 16.9734 36.6524 16.9529 36.7022 16.9529V16.8822C36.7022 16.8572 36.727 16.8572 36.7519 16.8572C36.727 16.8572 36.7022 16.8322 36.7022 16.8322C36.7154 16.8058 36.7413 16.8004 36.7701 16.7943C36.7957 16.7889 36.8237 16.783 36.847 16.7615C36.8222 16.7615 36.7767 16.7615 36.7767 16.7365C36.847 16.6408 36.967 16.6158 37.087 16.5909C37.0746 16.5659 37.0508 16.5659 37.0301 16.5659C37.0094 16.5659 36.9919 16.5659 36.9919 16.5409C36.9919 16.516 37.0167 16.516 37.0415 16.516H36.9919C36.9529 16.4964 36.9598 16.4614 36.9646 16.4372C36.9659 16.4305 36.967 16.4247 36.967 16.4202C37.0642 16.3057 37.0962 16.1706 37.128 16.0362C37.1435 15.9703 37.1591 15.9047 37.1822 15.8418C37.1574 15.8418 37.1325 15.8418 37.1325 15.8168C36.8999 16.075 36.5311 16.1729 36.1808 16.2658L36.1478 16.2746H36.0278C35.9078 16.3245 35.7381 16.3245 35.6182 16.2496C35.5611 16.2197 35.5204 16.1822 35.4764 16.1418C35.4471 16.1148 35.4163 16.0865 35.3782 16.0582C35.1837 15.9375 34.9934 15.8418 34.7782 15.7668C34.1783 15.5754 33.5535 15.4755 32.9287 15.5005C33.1032 15.4045 33.2884 15.3664 33.4762 15.3277C33.5734 15.3077 33.6712 15.2875 33.7686 15.2591C33.8301 15.241 33.8909 15.2224 33.9515 15.2038C34.2947 15.0986 34.6276 14.9965 34.9934 15.0177C34.9455 15.0007 34.8842 15.0069 34.8277 15.0125C34.8013 15.0152 34.7759 15.0177 34.7534 15.0177C34.4768 14.9971 34.1974 15.0587 33.9059 15.123C33.8442 15.1366 33.7819 15.1503 33.719 15.1634C33.6048 15.1872 33.4963 15.2213 33.3875 15.2555C33.2677 15.2931 33.1477 15.3308 33.0197 15.3548C32.9642 15.374 32.9196 15.4066 32.8762 15.4383C32.8064 15.4894 32.7395 15.5383 32.6349 15.5255V15.4506C32.8749 15.1592 33.1645 14.8721 33.5493 14.8471C33.9213 14.7865 34.272 14.8297 34.6379 14.8747C34.6993 14.8823 34.7612 14.8899 34.8237 14.8971C35.1237 14.9212 35.4043 14.9881 35.7066 15.0602L35.7381 15.0677C35.8043 15.0677 35.8416 15.126 35.8776 15.1824C35.9069 15.2283 35.9355 15.2729 35.9781 15.2841C36.037 15.3044 36.0959 15.3082 36.1549 15.312C36.2408 15.3175 36.3267 15.323 36.4126 15.3798C36.4126 15.363 36.4098 15.3467 36.407 15.3305C36.4015 15.2986 36.3961 15.2673 36.4126 15.2341C36.466 15.1805 36.5272 15.1949 36.5874 15.209C36.6346 15.2201 36.6811 15.2311 36.7229 15.2092C36.8541 15.1277 36.731 15.0027 36.6079 14.8776C36.5485 14.8173 36.4891 14.757 36.4581 14.7014C36.4581 14.6765 36.4829 14.6515 36.4829 14.6515C36.5373 14.7002 36.5879 14.7506 36.6381 14.8006C36.7637 14.9257 36.8866 15.048 37.0581 15.1343C37.178 15.1842 37.4677 15.255 37.418 15.1093C37.333 14.9206 37.1879 14.757 37.0413 14.5919C36.9809 14.5239 36.9203 14.4556 36.8636 14.3852V14.2894C36.8259 14.2894 36.8168 14.275 36.8056 14.2572C36.802 14.2515 36.7982 14.2455 36.7932 14.2395V14.1438C36.7326 14.1119 36.719 14.0615 36.7053 14.0108C36.6976 13.982 36.6898 13.953 36.6733 13.9274C36.6318 13.8602 36.6288 13.7775 36.6257 13.6922C36.6233 13.6244 36.6208 13.5549 36.5988 13.4904C36.5491 13.3447 36.5284 13.224 36.5036 13.0784C36.4767 12.9294 36.447 12.7869 36.418 12.6474C36.3668 12.4012 36.3175 12.1643 36.2885 11.9173C36.2502 11.5642 36.4285 11.2655 36.6108 10.9602C36.6648 10.8697 36.7192 10.7787 36.7684 10.6854C36.9381 10.3941 37.1284 10.1069 37.4429 9.91131C37.5115 9.62718 37.6981 9.39056 37.8839 9.1551L37.898 9.13724C38.0813 8.90874 38.3875 8.76906 38.6131 8.66611L38.6386 8.65448C38.9738 8.50466 39.2758 8.40894 39.28 8.40894H22.6591V21.2229H34.4513C34.7667 20.9942 35.0801 20.85 35.4533 20.6783C35.6235 20.5999 35.8062 20.5159 36.0071 20.4155C36.0496 20.3941 36.1002 20.3692 36.1563 20.3416C36.4931 20.1759 37.0297 19.9119 37.2318 19.7122ZM33.49 17.9834C33.4432 17.9881 33.3936 17.993 33.4124 17.9555C33.4297 17.8712 33.516 17.846 33.6002 17.8213C33.6363 17.8108 33.672 17.8003 33.7017 17.7854L33.7153 17.7783L33.7253 17.7731C33.7719 17.7483 33.829 17.718 33.8712 17.7356C33.8996 17.776 33.9349 17.7865 33.9691 17.7966C33.9946 17.8041 34.0195 17.8115 34.0407 17.831C33.9513 17.9207 33.8469 17.9296 33.7411 17.9386C33.6708 17.9445 33.5999 17.9505 33.5322 17.9803C33.5201 17.9803 33.5052 17.9818 33.49 17.9834ZM29.8294 17.3981C29.8294 17.4231 29.8542 17.4481 29.8542 17.4481C30.4335 16.7947 30.9589 16.237 31.7037 15.7751C31.7237 15.7667 31.7162 15.7771 31.7064 15.791C31.6917 15.8117 31.6716 15.8399 31.7285 15.825C31.9751 15.7688 32.0859 15.5576 32.1936 15.3521C32.2214 15.2989 32.2491 15.2462 32.2789 15.1966C32.3918 15.0128 32.5523 14.8951 32.714 14.7764C32.8307 14.6909 32.9479 14.6048 33.0485 14.4932C33.0485 14.5182 33.0485 14.5432 33.0236 14.5682C33.0485 14.5931 33.0733 14.5931 33.0981 14.5931C33.1418 14.5602 33.1894 14.5466 33.2351 14.5335C33.2933 14.5169 33.3483 14.5011 33.3877 14.4475C33.1974 14.3726 32.9533 14.3476 32.763 14.4225C32.2582 14.6639 31.8279 15.0509 31.4182 15.4879C31.17 15.7501 30.9134 15.9956 30.599 16.1663C30.3838 16.5991 30.1438 16.9861 29.8294 17.3981ZM31.8494 15.8503C31.8364 15.8763 31.8234 15.8899 31.8111 15.9028C31.7998 15.9146 31.789 15.9259 31.7791 15.9457C31.7543 15.9955 31.7295 16.0163 31.684 16.0411C31.6592 16.0411 31.6344 16.0411 31.6344 16.0163C31.6592 15.9208 31.7295 15.8254 31.8246 15.8005C31.8494 15.8047 31.8494 15.8296 31.8494 15.8503ZM32.9074 19.5462C32.9281 19.5254 32.9529 19.5004 32.9653 19.4754C32.986 19.4255 32.8578 19.438 32.8372 19.4505C32.8184 19.4656 32.8065 19.4807 32.792 19.4989L32.7876 19.5046C32.7703 19.5244 32.7501 19.5428 32.7296 19.5614C32.7157 19.5741 32.7017 19.5868 32.6883 19.6003C32.6305 19.6586 32.5726 19.7168 32.5106 19.7709C32.4693 19.8084 32.6015 19.825 32.6305 19.8001C32.6635 19.7751 32.6925 19.746 32.7214 19.7168C32.7324 19.7168 32.7435 19.715 32.7508 19.7137L32.7559 19.7129L32.7586 19.7127C32.8271 19.6897 32.8781 19.642 32.9277 19.5956L32.9405 19.5837C32.957 19.567 32.9364 19.5504 32.9074 19.5462ZM32.5333 19.2756C32.5329 19.2756 32.5325 19.2758 32.5323 19.276C32.5318 19.2765 32.5318 19.2776 32.5318 19.2796C32.5064 19.297 32.4814 19.3148 32.4564 19.3325C32.3917 19.3782 32.3273 19.4237 32.2587 19.4628C32.1931 19.4997 32.1258 19.5317 32.0579 19.5639C32.0188 19.5825 31.9794 19.6011 31.9401 19.6209C31.9401 19.6209 31.9401 19.6167 31.936 19.6167C31.9277 19.6043 31.9111 19.6001 31.8946 19.6084C31.8036 19.6584 31.725 19.7249 31.6546 19.7957C31.6422 19.804 31.6298 19.8165 31.6215 19.829L31.5843 19.8664V19.8706C31.5677 19.8872 31.5512 19.9039 31.5305 19.9289C31.5262 19.9332 31.5229 19.9375 31.5197 19.9417C31.5137 19.9495 31.5082 19.9567 31.4974 19.9622C31.4808 19.9705 31.4395 19.9705 31.4436 19.9455V19.9414C31.4312 19.9497 31.4146 19.958 31.4022 19.9622C31.396 19.9663 31.3898 19.9694 31.3836 19.9726C31.3774 19.9757 31.3712 19.9788 31.365 19.983C31.3608 19.9788 31.3526 19.9788 31.3484 19.9788C31.3443 19.9788 31.336 19.9788 31.3319 19.983C31.3222 19.9913 31.3126 19.9992 31.3029 20.007C31.2836 20.0227 31.2643 20.0385 31.245 20.0579C31.1953 20.1037 31.1498 20.1536 31.1043 20.2077C31.1043 20.2077 31.1043 20.2119 31.1002 20.2119C31.1002 20.2139 31.0991 20.215 31.0981 20.216C31.0971 20.2171 31.096 20.2181 31.096 20.2202L31.0878 20.2285C31.0862 20.2301 31.0852 20.2317 31.0844 20.233C31.083 20.2352 31.082 20.2368 31.0795 20.2368L31.0753 20.241C31.0712 20.2493 31.0671 20.2576 31.0588 20.266C31.0547 20.2701 31.0464 20.2743 31.0381 20.2743C31.034 20.2701 31.0298 20.266 31.0298 20.2618C31.0278 20.2597 31.0267 20.2576 31.0257 20.2556C31.0247 20.2535 31.0236 20.2514 31.0216 20.2493C31.0174 20.2431 31.0143 20.2368 31.0112 20.2306C31.0081 20.2243 31.005 20.2181 31.0009 20.2119V20.2077C31.0009 20.2056 30.9998 20.2035 30.9988 20.2015C30.9978 20.1994 30.9967 20.1973 30.9967 20.1952L31.0712 20.1078L31.0753 20.1037C31.0795 20.0995 31.0836 20.0943 31.0877 20.0891C31.0919 20.0839 31.096 20.0787 31.1002 20.0745C31.1064 20.0662 31.1136 20.0579 31.1209 20.0496C31.1281 20.0412 31.1353 20.0329 31.1415 20.0246C31.1436 20.0204 31.1457 20.0173 31.1478 20.0142C31.1498 20.0111 31.1519 20.0079 31.154 20.0038C31.1788 19.9705 31.2036 19.9372 31.2284 19.8997V19.8956C31.2326 19.8914 31.2367 19.8872 31.2367 19.8789C31.2491 19.8623 31.2615 19.8456 31.2698 19.829L31.2946 19.779V19.7749L31.2988 19.7707C31.2988 19.7686 31.2998 19.7676 31.3008 19.7666C31.3019 19.7655 31.3029 19.7645 31.3029 19.7624C31.307 19.752 31.3112 19.7426 31.3153 19.7333C31.3195 19.7239 31.3236 19.7145 31.3277 19.7041V19.7L31.3319 19.6833C31.3339 19.6792 31.335 19.675 31.336 19.6708C31.337 19.6667 31.3381 19.6625 31.3402 19.6584V19.6542C31.3422 19.648 31.3433 19.6417 31.3443 19.6355C31.3453 19.6292 31.3464 19.623 31.3484 19.6167C31.3484 19.6126 31.3484 19.6043 31.3443 19.6001C31.3691 19.5543 31.4022 19.5127 31.4395 19.4711C31.4374 19.4711 31.4353 19.4721 31.4332 19.4732C31.4321 19.4738 31.4309 19.4744 31.4297 19.4748C31.4288 19.4751 31.4279 19.4752 31.427 19.4752C31.4086 19.4868 31.3928 19.5023 31.3766 19.518C31.3638 19.5305 31.3507 19.5432 31.336 19.5543C31.3112 19.5751 31.2615 19.5418 31.2946 19.5169C31.3153 19.5002 31.3319 19.4836 31.3484 19.4669C31.3484 19.4669 31.3484 19.4628 31.3526 19.4628C31.3691 19.4478 31.3849 19.4309 31.4009 19.4139C31.4249 19.3881 31.4493 19.3621 31.4767 19.3421C31.5057 19.3213 31.5263 19.3046 31.5512 19.2838C31.5553 19.2796 31.5594 19.2755 31.5636 19.2755C31.5801 19.2547 31.5967 19.2339 31.6174 19.2131C31.6174 19.2131 31.6215 19.2131 31.6215 19.2089C31.7636 19.0711 31.9633 19.0225 32.1671 18.9729C32.2956 18.9416 32.4258 18.9099 32.5442 18.8551C32.6111 18.8273 32.6857 18.8383 32.7594 18.8491C32.8179 18.8577 32.8759 18.8662 32.929 18.8551C32.9993 18.8551 33.0738 18.8551 33.1442 18.9051C32.9806 18.9922 32.8244 19.0918 32.6699 19.1904C32.6252 19.2189 32.5805 19.2474 32.5359 19.2755C32.5348 19.2755 32.5339 19.2755 32.5333 19.2756ZM33.0504 17.5794C33.031 17.5816 33.0185 17.583 33.0292 17.5939C33.0996 17.6646 33.2444 17.6396 33.3437 17.5855C33.414 17.5356 33.4885 17.5356 33.5837 17.5356C33.6085 17.5356 33.6085 17.4898 33.6085 17.4648C33.6788 17.4898 33.7285 17.4898 33.7988 17.4898C34.374 17.3691 34.9284 17.2484 35.458 16.9821C34.9221 16.568 34.2615 16.3836 33.6144 16.2029C33.507 16.1729 33.4 16.1431 33.294 16.1123C33.3173 16.1123 33.3406 16.12 33.3641 16.1278C33.4114 16.1436 33.4594 16.1596 33.5092 16.1123C33.4435 16.0599 33.3705 16.0499 33.2981 16.04C33.2382 16.0318 33.1787 16.0236 33.1244 15.9916C33.1301 15.9916 33.1368 15.9929 33.1441 15.9943C33.1689 15.9991 33.2004 16.0052 33.2196 15.9666C33.0939 15.9034 32.9682 15.8819 32.8413 15.8603C32.7761 15.8491 32.7105 15.8379 32.6444 15.821C32.7644 15.796 32.8389 15.7003 32.8389 15.5796C32.8389 15.5546 32.7892 15.5546 32.7644 15.5546C32.4789 15.7003 32.2845 15.9666 32.1645 16.2787C32.2726 16.3424 32.3892 16.3351 32.5035 16.3278C32.5684 16.3237 32.6326 16.3196 32.6941 16.3287C32.6398 16.3802 32.5614 16.3942 32.4861 16.4077C32.458 16.4127 32.4303 16.4176 32.4044 16.4244C32.33 16.4411 32.2596 16.4952 32.2845 16.5451C32.301 16.5659 32.3176 16.5742 32.3382 16.5784C32.2845 16.595 32.2348 16.62 32.1893 16.6658C32.2574 16.7194 32.3276 16.7091 32.397 16.6988C32.4245 16.6948 32.4519 16.6908 32.4789 16.6908C32.4789 16.721 32.4988 16.7313 32.5194 16.7419C32.53 16.7474 32.5408 16.753 32.5493 16.7615C32.4293 16.8073 32.3341 16.9072 32.3093 16.9779C32.2796 17.05 32.2249 17.0969 32.1706 17.1433C32.134 17.1746 32.0976 17.2057 32.0693 17.2443V17.3192C31.9894 17.39 31.9072 17.4533 31.8262 17.5157C31.6597 17.6439 31.498 17.7685 31.37 17.9476C31.3949 17.9476 31.3949 17.9726 31.3949 17.9975C31.372 18.0321 31.3394 18.056 31.3085 18.0787C31.2724 18.1052 31.2386 18.13 31.2252 18.1682C31.2252 18.1931 31.2252 18.2181 31.25 18.2181C31.4019 18.1679 31.5332 18.0834 31.662 18.0006C31.7789 17.9254 31.8937 17.8516 32.0196 17.8061C32.1226 17.7813 32.2122 17.7346 32.2997 17.6891C32.3739 17.6504 32.4466 17.6126 32.5244 17.5897C32.5844 17.5772 32.6506 17.5595 32.7168 17.5418C32.783 17.5241 32.8492 17.5065 32.9092 17.494C32.9092 17.5189 32.9092 17.5439 32.9341 17.5439H33.1244C33.1127 17.5722 33.0757 17.5765 33.0504 17.5794Z" fill="#000091"/>
<path d="M57.909 8.40894H44.1258C44.1258 8.40894 44.1508 8.4131 44.255 8.46728C44.3675 8.52562 44.5133 8.60479 44.6008 8.65063C44.78 8.74231 44.9508 8.85899 45.0633 9.03818C45.1133 9.10902 45.1841 9.25487 45.1383 9.35071C45.0883 9.47156 45.0633 9.66742 44.9425 9.71326C44.7967 9.78827 44.605 9.78827 44.4342 9.76326C44.3383 9.76326 44.2425 9.73826 44.1425 9.71326C44.505 9.85911 44.8466 10.03 45.0883 10.3675C45.1133 10.4175 45.2091 10.4383 45.305 10.4383C45.33 10.4383 45.33 10.4883 45.33 10.5092C45.28 10.5592 45.2341 10.5842 45.2591 10.655H45.33C45.4508 10.605 45.4258 10.3633 45.5966 10.4383C45.7175 10.5092 45.7675 10.68 45.6925 10.8009C45.5966 10.8967 45.5008 10.9717 45.4008 11.0426C45.3758 11.0926 45.3758 11.1634 45.4008 11.2134C45.4716 11.3093 45.4966 11.4051 45.5216 11.5051C45.5966 11.676 45.6175 11.8677 45.6925 12.0385C45.7883 12.4011 45.8841 12.7636 45.8633 13.1303C45.8633 13.322 45.7675 13.4929 45.8383 13.6887C45.8883 13.8804 46.0091 14.0263 46.105 14.1971C46.2008 14.343 46.2966 14.4388 46.3716 14.5847C46.5175 14.8264 46.7841 15.0681 46.6633 15.3598C46.5925 15.5306 46.3258 15.5056 46.155 15.6015C46.0091 15.7223 46.13 15.9182 46.205 16.039C46.3258 16.2557 46.0591 16.4015 45.8883 16.4766C45.9383 16.5516 46.0341 16.5266 46.0591 16.5724C46.0841 16.6932 46.205 16.7641 46.13 16.8891C46.0341 17.035 45.7425 17.1058 45.8883 17.3267C45.9841 17.4975 45.9216 17.685 45.8633 17.8601C45.7925 18.0767 45.5966 18.1726 45.4258 18.2226C45.28 18.2726 45.1091 18.2726 44.9675 18.2476C44.9175 18.2226 44.8716 18.1976 44.8217 18.1976C44.4092 18.1476 43.9967 18.0309 43.5883 18.0309C43.4675 18.0559 43.3467 18.0767 43.2508 18.1268C43.1425 18.2059 43.0425 18.2934 42.9592 18.3851C42.9592 18.3851 42.9592 18.3851 42.955 18.3893C42.9383 18.4101 42.9175 18.4268 42.9008 18.4476C42.8925 18.4601 42.88 18.4726 42.8717 18.4851C42.8633 18.4935 42.8592 18.5018 42.8508 18.5101C42.78 18.5976 42.7175 18.6935 42.6592 18.7893C42.655 18.7977 42.6508 18.8018 42.6467 18.806C42.6425 18.8185 42.6342 18.8268 42.6258 18.8393C42.5467 18.9852 42.4883 19.1352 42.4425 19.2852C42.2758 19.8395 42.3508 20.3145 42.4675 20.4312C42.5008 20.4645 43.2675 20.7021 43.8008 20.9396C44.0508 21.0521 44.2258 21.1354 44.3717 21.2271H57.9048V8.40894H57.909Z" fill="#E1000F"/>
<path d="M44.9447 13.0821C45.0403 13.1071 45.1857 13.1071 45.1857 13.157C45.1359 13.3485 44.8491 13.3984 44.7037 13.594H44.6289C44.5582 13.644 44.579 13.7647 44.5083 13.7647C44.4377 13.7397 44.3629 13.7647 44.2922 13.7896C44.3878 13.8853 44.5083 13.9603 44.6538 13.9353C44.6787 13.9353 44.7244 13.9852 44.7244 14.031C44.7244 14.031 44.7494 14.031 44.7743 14.006C44.7992 14.006 44.8242 14.006 44.8242 14.031V14.1267C44.7535 14.2224 44.6289 14.1767 44.5333 14.1975C44.7286 14.2474 44.9198 14.2474 45.0901 14.1975C45.2356 14.1475 45.0901 13.9062 45.1857 13.7855C45.1359 13.7855 45.1857 13.7106 45.1359 13.7106C45.1857 13.6606 45.2314 13.5899 45.2813 13.5649C45.3312 13.5649 45.4018 13.5399 45.4268 13.49C45.4268 13.44 45.3312 13.4192 45.352 13.3693C45.4974 13.2736 45.6179 13.1279 45.5681 12.9823C45.5431 12.9073 45.352 12.9073 45.2314 12.8616C45.1109 12.8158 44.9655 12.8616 44.82 12.8865C44.6995 12.8865 44.579 12.9614 44.4585 12.9823C44.2881 13.0322 44.1426 13.1279 44.0013 13.2236C44.1717 13.1529 44.338 13.1279 44.5333 13.078C44.6787 13.0821 44.7992 13.0488 44.9447 13.0821Z" fill="#808080"/>
<path d="M24.1384 37.9092H25.9586V31.4745L27.9582 34.8328H29.24L31.2397 31.4745V37.9092H33.0598V28.9365H30.791L28.5991 32.705L26.4072 28.9365H24.1384V37.9092ZM35.7564 37.9092H37.5765V28.9365H35.7564V37.9092ZM40.2768 37.9092H42.097V31.4232L46.1091 37.9092H48.442V28.9365H46.6218V35.4225L42.6097 28.9365H40.2768V37.9092ZM51.1437 37.9092H52.9639V28.9365H51.1437V37.9092ZM54.8566 36.6658C55.6513 37.6144 56.6639 38.1655 58.1765 38.1655C59.83 38.1655 61.1375 37.1529 61.1631 35.4609C61.1631 32.3845 57.0869 32.846 57.0869 31.2181C57.0869 30.6797 57.5099 30.2695 58.1508 30.2695C58.8302 30.2695 59.4198 30.7182 59.9454 31.3975L61.2785 30.1926C60.5094 29.2825 59.4839 28.6801 58.138 28.6801C56.4204 28.6801 55.2411 29.8594 55.2411 31.2822C55.2411 34.3201 59.3173 33.8715 59.3173 35.525C59.3173 36.1659 58.8815 36.5505 58.1637 36.5505C57.433 36.5505 56.7152 36.1403 56.1768 35.4481L54.8566 36.6658ZM62.2784 30.59H65.0471V37.9092H66.8673V30.59H69.636V28.9365H62.2784V30.59ZM73.2343 28.1674H74.9007L73.4522 26.4369H71.5808L73.2343 28.1674ZM71.427 37.9092H76.6568V36.3966H73.2471V34.0894H76.1441V32.5768H73.2471V30.449H76.6568V28.9365H71.427V37.9092ZM78.9642 37.9092H80.7843V34.2816H81.7201L84.1171 37.9092H86.2577L83.4505 33.9355C84.3734 33.5125 84.899 32.705 84.899 31.6155C84.899 29.9491 83.6812 28.9365 81.7072 28.9365H78.9642V37.9092ZM81.8098 30.449C82.5789 30.449 83.0275 30.9105 83.0275 31.5898C83.0275 32.3205 82.5789 32.7691 81.8098 32.7691H80.7843V30.449H81.8098ZM87.6029 37.9092H92.8327V36.3966H89.4231V34.0894H92.32V32.5768H89.4231V30.449H92.8327V28.9365H87.6029V37.9092ZM24.1384 50.9092H27.6634C30.509 50.9092 32.4318 48.8455 32.4318 46.4228C32.4318 44.0002 30.509 41.9365 27.6634 41.9365H24.1384V50.9092ZM27.689 43.59C29.3554 43.59 30.5603 44.8205 30.5603 46.4228C30.5603 48.0123 29.3554 49.2556 27.689 49.2556H25.9586V43.59H27.689ZM34.3794 50.9092H39.6092V49.3966H36.1996V47.0894H39.0965V45.5768H36.1996V43.449H39.6092V41.9365H34.3794V50.9092ZM45.4356 50.9092H50.6654V49.2556H47.2558V41.9365H45.4356V50.9092ZM51.9813 45.6281L53.4682 41.9365H51.6224L50.4687 45.6281H51.9813ZM58.4997 41.1674L60.1661 39.4369H58.2946L56.8462 41.1674H58.4997ZM55.0773 50.9092H60.3071V49.3966H56.8975V47.0894H59.7944V45.5768H56.8975V43.449H60.3071V41.9365H55.0773V50.9092ZM62.6145 50.9092H66.1395C68.9851 50.9092 70.9078 48.8455 70.9078 46.4228C70.9078 44.0002 68.9851 41.9365 66.1395 41.9365H62.6145V50.9092ZM66.1651 43.59C67.8315 43.59 69.0364 44.8205 69.0364 46.4228C69.0364 48.0123 67.8315 49.2556 66.1651 49.2556H64.4346V43.59H66.1651ZM78.147 47.5508C78.147 48.7557 77.4548 49.4607 76.3396 49.4607C75.1988 49.4607 74.5195 48.7557 74.5195 47.5508V41.9365H72.6993V47.397C72.6993 49.7555 74.0836 51.1655 76.3268 51.1655C78.5828 51.1655 79.9672 49.7555 79.9672 47.397V41.9365H78.147V47.5508ZM86.52 49.4607C84.828 49.4607 83.6231 48.1405 83.6231 46.4228C83.6231 44.7052 84.828 43.3849 86.52 43.3849C87.5454 43.3849 88.353 43.8848 88.8657 44.6155L90.3013 43.5003C89.481 42.4107 88.1479 41.6801 86.52 41.6801C83.6872 41.6801 81.7516 43.8592 81.7516 46.4228C81.7516 48.9865 83.6872 51.1655 86.52 51.1655C88.1479 51.1655 89.481 50.4477 90.3013 49.3325L88.8657 48.2302C88.353 48.9608 87.5454 49.4607 86.52 49.4607ZM90.8827 50.9092H92.8182L93.677 48.5763H97.2661L98.1249 50.9092H100.06L96.6637 41.9365H94.2795L90.8827 50.9092ZM94.241 47.0253L95.4716 43.6541L96.7021 47.0253H94.241ZM99.8141 43.59H102.583V50.9092H104.403V43.59H107.172V41.9365H99.8141V43.59ZM108.963 50.9092H110.783V41.9365H108.963V50.9092ZM117.482 41.6801C114.65 41.6801 112.714 43.8592 112.714 46.4228C112.714 48.9865 114.65 51.1655 117.482 51.1655C120.302 51.1655 122.238 48.9865 122.238 46.4228C122.238 43.8592 120.302 41.6801 117.482 41.6801ZM117.482 49.4607C115.79 49.4607 114.585 48.1405 114.585 46.4228C114.585 44.7052 115.79 43.3849 117.482 43.3849C119.162 43.3849 120.366 44.7052 120.366 46.4228C120.366 48.1405 119.162 49.4607 117.482 49.4607ZM124.175 50.9092H125.995V44.4232L130.007 50.9092H132.34V41.9365H130.52V48.4225L126.508 41.9365H124.175V50.9092ZM24.1384 63.9092H25.9586V57.4232L29.9707 63.9092H32.3036V54.9365H30.4834V61.4225L26.4713 54.9365H24.1384V63.9092ZM33.8773 63.9092H35.8128L36.6717 61.5763H40.2608L41.1196 63.9092H43.0551L39.6583 54.9365H37.2741L33.8773 63.9092ZM37.2357 60.0253L38.4662 56.6541L39.6968 60.0253H37.2357ZM42.8088 56.59H45.5775V63.9092H47.3977V56.59H50.1664V54.9365H42.8088V56.59ZM51.9573 63.9092H53.7775V54.9365H51.9573V63.9092ZM60.477 54.6801C57.6442 54.6801 55.7087 56.8592 55.7087 59.4228C55.7087 61.9865 57.6442 64.1655 60.477 64.1655C63.297 64.1655 65.2326 61.9865 65.2326 59.4228C65.2326 56.8592 63.297 54.6801 60.477 54.6801ZM60.477 62.4607C58.785 62.4607 57.5801 61.1405 57.5801 59.4228C57.5801 57.7052 58.785 56.3849 60.477 56.3849C62.1562 56.3849 63.3611 57.7052 63.3611 59.4228C63.3611 61.1405 62.1562 62.4607 60.477 62.4607ZM67.1694 63.9092H68.9896V57.4232L73.0017 63.9092H75.3346V54.9365H73.5144V61.4225L69.5023 54.9365H67.1694V63.9092ZM76.9083 63.9092H78.8439L79.7027 61.5763H83.2918L84.1506 63.9092H86.0862L82.6893 54.9365H80.3052L76.9083 63.9092ZM80.2667 60.0253L81.4973 56.6541L82.7278 60.0253H80.2667ZM87.664 63.9092H92.8938V62.2556H89.4842V54.9365H87.664V63.9092ZM94.688 63.9092H99.9178V62.3966H96.5081V60.0894H99.405V58.5768H96.5081V56.449H99.9178V54.9365H94.688V63.9092ZM24.1384 75.9092H29.3682V74.3966H25.9586V72.0894H28.8555V70.5768H25.9586V68.449H29.3682V66.9365H24.1384V75.9092ZM30.9404 68.59H33.7092V75.9092H35.5293V68.59H38.2981V66.9365H30.9404V68.59ZM43.608 75.9092H47.133C49.9786 75.9092 51.9014 73.8455 51.9014 71.4228C51.9014 69.0002 49.9786 66.9365 47.133 66.9365H43.608V75.9092ZM47.1586 68.59C48.825 68.59 50.0299 69.8205 50.0299 71.4228C50.0299 73.0123 48.825 74.2556 47.1586 74.2556H45.4282V68.59H47.1586ZM53.849 75.9092H59.0789V74.3966H55.6692V72.0894H58.5661V70.5768H55.6692V68.449H59.0789V66.9365H53.849V75.9092ZM64.9052 75.9092H70.135V74.2556H66.7254V66.9365H64.9052V75.9092ZM71.1892 75.9092H73.1248L73.9836 73.5763H77.5727L78.4315 75.9092H80.367L76.9702 66.9365H74.586L71.1892 75.9092ZM74.5476 72.0253L75.7781 68.6541L77.0087 72.0253H74.5476ZM87.4251 75.1657V66.9365H85.6049V75.2555C85.6049 76.1784 85.1819 76.5245 84.3743 76.5245C84.1949 76.5245 84.0411 76.5116 83.9129 76.486V78.0883C84.0923 78.1395 84.3359 78.1395 84.6307 78.1395C86.5021 78.1395 87.4251 77.1525 87.4251 75.1657ZM90.1345 75.9092H95.3643V74.3966H91.9547V72.0894H94.8516V70.5768H91.9547V68.449H95.3643V66.9365H90.1345V75.9092ZM102.913 72.5508C102.913 73.7557 102.221 74.4607 101.106 74.4607C99.9649 74.4607 99.2856 73.7557 99.2856 72.5508V66.9365H97.4654V72.397C97.4654 74.7555 98.8498 76.1655 101.093 76.1655C103.349 76.1655 104.733 74.7555 104.733 72.397V66.9365H102.913V72.5508ZM107.187 75.9092H109.007V69.4232L113.019 75.9092H115.352V66.9365H113.532V73.4225L109.52 66.9365H107.187V75.9092ZM118.054 75.9092H123.283V74.3966H119.874V72.0894H122.771V70.5768H119.874V68.449H123.283V66.9365H118.054V75.9092ZM124.783 74.6658C125.578 75.6144 126.591 76.1655 128.103 76.1655C129.757 76.1655 131.064 75.1529 131.09 73.4609C131.09 70.3845 127.014 70.846 127.014 69.2181C127.014 68.6797 127.437 68.2695 128.078 68.2695C128.757 68.2695 129.347 68.7182 129.872 69.3975L131.205 68.1926C130.436 67.2825 129.411 66.6801 128.065 66.6801C126.347 66.6801 125.168 67.8594 125.168 69.2822C125.168 72.3201 129.244 71.8715 129.244 73.525C129.244 74.1659 128.808 74.5505 128.09 74.5505C127.36 74.5505 126.642 74.1403 126.104 73.4481L124.783 74.6658ZM132.295 74.6658C133.09 75.6144 134.103 76.1655 135.615 76.1655C137.269 76.1655 138.576 75.1529 138.602 73.4609C138.602 70.3845 134.526 70.846 134.526 69.2181C134.526 68.6797 134.949 68.2695 135.59 68.2695C136.269 68.2695 136.859 68.7182 137.384 69.3975L138.717 68.1926C137.948 67.2825 136.923 66.6801 135.577 66.6801C133.859 66.6801 132.68 67.8594 132.68 69.2822C132.68 72.3201 136.756 71.8715 136.756 73.525C136.756 74.1659 136.32 74.5505 135.602 74.5505C134.872 74.5505 134.154 74.1403 133.616 73.4481L132.295 74.6658ZM140.703 75.9092H145.933V74.3966H142.523V72.0894H145.42V70.5768H142.523V68.449H145.933V66.9365H140.703V75.9092Z" fill="#161616"/>
<path fill-rule="evenodd" clip-rule="evenodd" d="M56.124 99.9287L54.9318 101.018H54.6241L55.3292 99.7749H56.124V99.9287ZM55.2651 104.145H55.0087C54.6882 104.53 54.3292 104.837 53.9831 104.837C53.6241 104.837 53.4447 104.619 53.4447 104.145C53.4447 103.953 53.4703 103.748 53.5088 103.568L55.5984 102.876C56.0087 101.902 55.5215 101.479 54.9446 101.479C53.9575 101.479 52.8293 103.21 52.8293 104.594C52.8293 105.248 53.137 105.606 53.6241 105.606C54.1882 105.594 54.7779 105.042 55.2651 104.145ZM54.548 102.044C54.83 102.044 55.0736 102.261 54.9454 102.761L53.6506 103.107C53.8557 102.492 54.2403 102.044 54.548 102.044ZM50.4718 102.069H51.1641L50.0616 105.094C49.959 105.35 50.1 105.606 50.3692 105.606C51.1513 105.606 52.0871 104.94 52.4461 103.991H52.2538C51.9718 104.389 51.3564 104.825 50.8949 104.901L51.9077 102.069H52.9461L53.0743 101.633H52.0615L52.4461 100.544H52.0487L51.3308 101.633L50.4718 101.748V102.069ZM49.5096 101.493C49.6506 101.493 49.8429 101.647 49.7532 101.929L48.5096 104.941C48.8301 104.889 49.1635 104.582 49.3558 104.3H49.5609C49.266 105.056 48.5994 105.607 48.0225 105.607C47.8815 105.607 47.6763 105.453 47.7789 105.171L48.9327 102.159C48.6122 102.211 48.2789 102.518 48.0866 102.8H47.8943C48.1891 102.031 48.9071 101.493 49.5096 101.493ZM49.8694 100.723C50.1258 100.723 50.3438 100.518 50.3438 100.249C50.3438 99.9928 50.1258 99.7749 49.8694 99.7749C49.6002 99.7749 49.3951 99.9928 49.3951 100.249C49.3951 100.505 49.613 100.723 49.8694 100.723ZM44.2669 103.223C44.5489 102.608 44.4464 102.326 44.2669 102.326C44.113 102.326 43.9336 102.493 43.7541 102.8H43.5618C43.8566 102.146 44.2412 101.493 44.6643 101.493C45.0233 101.493 45.1515 101.852 45.1515 102.249V102.813C45.2092 102.746 45.2653 102.68 45.3202 102.616L45.3212 102.614L45.322 102.613C45.8636 101.978 46.2772 101.493 46.754 101.493C47.1257 101.493 47.318 101.723 47.318 102.07C47.318 102.275 47.2539 102.531 47.1129 102.8L46.0489 104.941C46.3694 104.889 46.7027 104.582 46.895 104.3H47.0873C46.7924 105.069 46.0745 105.607 45.472 105.607C45.2027 105.607 45.0489 105.325 45.1643 105.094L46.395 102.723C46.536 102.454 46.5617 102.275 46.3437 102.275C46.0489 102.275 45.3566 102.762 44.9848 103.21L44.1771 105.338C44.0874 105.556 43.9977 105.607 43.7925 105.607C43.4592 105.607 43.2926 105.389 43.4464 105.043L44.2669 103.223ZM43.4326 102.402C43.5736 101.915 43.4967 101.479 43.1249 101.479C42.6613 101.479 42.5161 101.785 42.0668 102.733L42.0352 102.799V102.235C42.0352 101.838 41.907 101.479 41.5481 101.479C41.125 101.479 40.7404 102.133 40.4456 102.787H40.6379C40.843 102.492 41.0353 102.312 41.1891 102.312C41.3686 102.312 41.4712 102.594 41.1891 103.21L40.3686 105.03C40.2148 105.376 40.3815 105.594 40.7148 105.594C40.9199 105.594 41.0096 105.542 41.0994 105.324L41.907 103.197C42.1378 102.915 42.3429 102.671 42.5993 102.402H43.4326ZM39.3818 102.761C39.51 102.261 39.2664 102.044 38.9844 102.044C38.6767 102.044 38.2921 102.492 38.087 103.107L39.3818 102.761ZM39.7015 104.145H39.4451C39.1246 104.53 38.7656 104.837 38.4195 104.837C38.0605 104.837 37.881 104.619 37.881 104.145C37.881 103.953 37.9067 103.748 37.9451 103.568L40.0348 102.876C40.4451 101.902 39.9579 101.479 39.381 101.479C38.3939 101.479 37.2657 103.21 37.2657 104.594C37.2657 105.248 37.5734 105.606 38.0605 105.606C38.6246 105.594 39.2143 105.042 39.7015 104.145ZM35.6005 102.069H34.9082V101.748L35.7671 101.633L36.4851 100.544H36.8825L36.4979 101.633H37.5107L37.3825 102.069H36.344L35.3313 104.901C35.7928 104.825 36.4081 104.389 36.6902 103.991H36.8825C36.5235 104.94 35.5877 105.606 34.8056 105.606C34.5364 105.606 34.3954 105.35 34.498 105.094L35.6005 102.069ZM31.2423 104.415C31.2423 103.479 32.2807 102.223 32.8576 102.223C32.9858 102.223 33.114 102.236 33.2166 102.274L32.6141 103.889C32.2679 104.312 31.7295 104.825 31.4731 104.825C31.332 104.825 31.2423 104.697 31.2423 104.415ZM34.1015 101.287L34.422 101.313L33.3067 103.876C33.0374 104.492 33.1528 104.774 33.3067 104.774C33.4605 104.774 33.6528 104.594 33.8579 104.299H34.0502C33.7554 104.953 33.3708 105.607 32.9477 105.607C32.5887 105.607 32.3708 105.222 32.4349 104.53L32.4605 104.287L32.3907 104.384C31.9315 105.026 31.5159 105.607 31.0888 105.607C30.717 105.607 30.5247 105.376 30.5247 105.03C30.5247 103.543 32.1529 101.646 33.6784 101.646H33.7425L34.1015 101.287ZM31.1649 102.402C31.3059 101.915 31.229 101.479 30.8572 101.479C30.3936 101.479 30.2484 101.785 29.7991 102.733L29.7675 102.799V102.235C29.7675 101.838 29.6393 101.479 29.2804 101.479C28.8573 101.479 28.4727 102.133 28.1778 102.787H28.3701C28.5753 102.492 28.7676 102.312 28.9086 102.312C29.0881 102.312 29.1906 102.594 28.9086 103.21L28.0881 105.042C27.9343 105.389 28.1009 105.606 28.4342 105.606C28.6394 105.606 28.7291 105.555 28.8188 105.337L29.6265 103.21C29.8573 102.928 30.0624 102.684 30.3188 102.415H31.1649V102.402ZM25.8821 105.221L25.8052 105.452H22.8181L22.895 105.208C23.8181 105.042 23.9719 104.965 24.3565 103.927L25.1898 101.696C25.5616 100.658 25.4847 100.581 24.677 100.415L24.7539 100.184H28.6384L28.4077 101.427H28.1256C28.1256 100.684 28.0487 100.491 27.3436 100.491H27.1641C26.4718 100.491 26.3821 100.594 26.1898 101.132L25.6385 102.632H26.4462C26.9846 102.632 27.1897 102.299 27.4333 101.863H27.7154L27.0487 103.683H26.7667C26.8308 103.132 26.8308 102.914 26.3308 102.914H25.5231L25.1514 103.939C24.7495 105.007 24.8643 105.028 25.8213 105.21C25.8412 105.213 25.8615 105.217 25.8821 105.221Z" fill="black"/>
<path fill-rule="evenodd" clip-rule="evenodd" d="M28.4205 90.1229L27.2282 90.9821V90.995H26.9205L27.6256 89.969H28.4205V90.1229ZM36.7549 96.1375L38.6652 91.059L38.601 90.982L37.2805 91.1359V91.2898L37.537 91.4822C37.7559 91.6525 37.6979 91.8113 37.5163 92.3088L37.4857 92.3927L36.0241 96.2914C35.9088 96.5222 36.0626 96.8044 36.3318 96.8044C36.9344 96.8044 37.5754 96.2529 37.8703 95.4963H37.678C37.4729 95.7784 37.0626 96.0862 36.7549 96.1375ZM45.5104 92.226L46.7027 91.1359V90.982H45.9078L45.2027 92.226H45.5104ZM45.5864 95.3423H45.8429C45.3685 96.2529 44.7788 96.8043 44.2147 96.8043C43.7275 96.8043 43.4198 96.4453 43.4198 95.7912C43.4198 94.4062 44.548 92.6749 45.5352 92.6749C46.0993 92.6749 46.5993 93.0981 46.189 94.0727L44.0865 94.7652C44.048 94.9448 44.0224 95.15 44.0224 95.3423C44.0224 95.8169 44.2018 96.0349 44.5608 96.0349C44.907 96.0349 45.2659 95.7271 45.5864 95.3423ZM45.5217 93.9573C45.6499 93.47 45.4063 93.252 45.1243 93.252C44.8294 93.252 44.4448 93.7009 44.2269 94.3036L45.5217 93.9573ZM41.7525 93.2773H41.0602V92.9567L41.9192 92.8413L42.6371 91.7512H43.0345L42.6499 92.8413H43.6627L43.5345 93.2773H42.4961L41.4833 96.1115C41.9448 96.0346 42.5602 95.5986 42.8422 95.201H43.0345C42.6756 96.15 41.7397 96.8169 40.9576 96.8169C40.6884 96.8169 40.5474 96.5604 40.6499 96.3039L41.7525 93.2773ZM40.3422 93.1234C40.4191 92.8413 40.2396 92.6874 40.0858 92.6874C39.4832 92.6874 38.7653 93.2388 38.4704 93.9955H38.6627C38.855 93.7133 39.1883 93.4055 39.5088 93.3543L38.355 96.368C38.2524 96.6501 38.4576 96.804 38.5986 96.804C39.1755 96.804 39.8422 96.2526 40.137 95.4959H39.9447C39.7524 95.7781 39.4191 96.0859 39.0986 96.1372L40.3422 93.1234ZM40.9329 91.4565C40.9329 91.713 40.7149 91.931 40.4585 91.931C40.2021 91.931 39.9841 91.713 39.9841 91.4565C39.9841 91.2001 40.1893 90.982 40.4585 90.982C40.7149 90.982 40.9329 91.2001 40.9329 91.4565ZM34.4599 93.4315C33.883 93.4315 32.8445 94.6883 32.8445 95.6245C32.8445 95.9066 32.9343 96.0349 33.0881 96.0349C33.3317 96.0349 33.8701 95.5219 34.2163 95.0987L34.8189 93.4828C34.7035 93.4443 34.5881 93.4315 34.4599 93.4315ZM36.0243 92.521L35.7038 92.4953L35.3448 92.8544H35.2807C33.7551 92.8544 32.1269 94.7525 32.1269 96.2401C32.1269 96.5864 32.3192 96.8172 32.691 96.8172C33.1182 96.8172 33.5337 96.2361 33.993 95.5938L34.0628 95.4963L34.0371 95.7399C33.973 96.4325 34.191 96.8172 34.5499 96.8172C34.973 96.8172 35.3576 96.1632 35.6525 95.5091H35.4602C35.2551 95.8041 35.0628 95.9836 34.9089 95.9836C34.7551 95.9836 34.6397 95.7015 34.9089 95.0859L36.0243 92.521ZM29.5621 96.6762C29.0108 96.8943 28.6262 97.1508 28.6262 97.5483C28.6262 97.9202 28.9723 98.0741 29.6903 98.0741C30.6518 98.0741 31.1775 97.792 31.1775 97.4201C31.1775 97.2534 30.9595 97.1764 30.3826 96.984C30.0108 96.8686 29.7416 96.766 29.5621 96.6762ZM30.2023 95.0988C29.9459 95.0988 29.8561 94.8808 29.8561 94.6499C29.8561 93.9061 30.2151 92.9827 30.792 92.9827C31.0484 92.9827 31.1382 93.2007 31.1382 93.4316C31.1253 94.1882 30.7664 95.0988 30.2023 95.0988ZM30.6907 96.3042C31.3959 96.5222 31.8317 96.6889 31.8317 97.1763C31.8317 97.8047 30.6779 98.5485 29.2805 98.5357C28.4728 98.5357 27.7805 98.3176 27.7805 97.7918C27.7805 97.2917 28.242 96.8813 29.3702 96.5479C29.2164 96.4453 29.1523 96.317 29.1523 96.1375C29.1523 95.8297 29.4343 95.586 29.9215 95.3552C29.4471 95.2911 29.1395 94.932 29.1395 94.4062C29.1395 93.5982 29.8061 92.6749 30.8574 92.6749C31.0753 92.6749 31.2676 92.7262 31.4215 92.8287H32.5753L32.4471 93.2648H31.7676C31.8061 93.3802 31.8317 93.5084 31.8317 93.6495C31.8317 94.4318 31.2035 95.3295 30.2036 95.3808C29.9471 95.5219 29.8189 95.7143 29.8189 95.8682C29.8189 96.0493 30.0287 96.1105 30.4921 96.2458C30.5538 96.2638 30.62 96.2831 30.6907 96.3042ZM26.6258 94.1113C27.1258 94.1113 27.1386 94.3293 27.0617 94.8808H27.3437L28.0104 93.0597H27.7283C27.4848 93.4957 27.2796 93.8291 26.7412 93.8291H25.6386L26.1771 92.3287C26.3694 91.7901 26.4591 91.6875 27.1514 91.6875H27.6386C28.3437 91.6875 28.4206 91.8798 28.4206 92.6236H28.7027L28.9335 91.3797H24.754L24.6771 91.6105C25.4848 91.7772 25.5617 91.8542 25.1899 92.893L24.3566 95.1372C23.972 96.176 23.8181 96.253 22.8822 96.4197L22.8181 96.6634H27.4591L28.2924 95.3424H27.9719C27.4335 95.8682 26.895 96.3556 25.8437 96.3556C24.6874 96.3556 24.708 96.299 25.055 95.3456C25.0773 95.2842 25.101 95.2191 25.1258 95.1501L25.5104 94.1241H26.6258V94.1113Z" fill="black"/>
<path fill-rule="evenodd" clip-rule="evenodd" d="M30.4552 83.13C30.7115 83.13 30.9294 82.9122 30.9294 82.6559C30.9294 82.3997 30.7115 82.1819 30.4552 82.1819C30.1861 82.1819 29.9811 82.3997 29.9811 82.6559C29.9811 82.925 30.1861 83.13 30.4552 83.13ZM34.25 84.744C34.25 84.129 34.0963 83.8984 33.6605 83.8984C33.1223 83.8984 32.6225 84.475 32.1226 85.1669L33.1992 82.284L33.1351 82.1944L31.8151 82.3481V82.5019L32.0714 82.694C32.2945 82.8676 32.2299 83.0411 32.0397 83.551L32.0201 83.6037L30.8539 86.6531C30.7514 86.9094 30.636 87.2169 30.636 87.2937C30.636 87.6525 31.123 87.9984 31.5716 87.9984C32.5712 88.0112 34.25 86.1662 34.25 84.744ZM45.3613 83.4372L46.5531 82.3481V82.1944H45.7585L45.0537 83.4372H45.3613ZM45.4384 86.5506H45.6948C45.2078 87.4603 44.6182 88.0113 44.0543 87.9984C43.5674 87.9984 43.2598 87.6525 43.2598 86.9991C43.2598 85.6153 44.3876 83.8856 45.3744 83.8856C45.9383 83.8856 46.4381 84.3084 46.028 85.2822L43.939 85.9741C43.9006 86.1534 43.8749 86.3584 43.8749 86.5506C43.8749 87.0247 44.0543 87.2425 44.4132 87.2425C44.7592 87.2425 45.1181 86.935 45.4384 86.5506ZM45.3731 85.1669C45.5013 84.68 45.2578 84.4622 44.9758 84.4622C44.6683 84.4622 44.2838 84.9107 44.0787 85.5129L45.3731 85.1669ZM41.5911 84.4886H40.899V84.1683L41.7577 84.053L42.4753 82.9639H42.8726L42.4882 84.053H43.5006L43.3724 84.4886H42.3344L41.3219 87.3202C41.7833 87.2433 42.3985 86.8077 42.6804 86.4105H42.8726C42.5138 87.3586 41.5782 88.0248 40.7965 88.0248C40.5274 88.0248 40.3864 87.7686 40.4889 87.5123L41.5911 84.4886ZM40.5426 84.8217C40.6836 84.3348 40.6067 83.8992 40.235 83.8992C39.7715 83.8992 39.6264 84.2052 39.1772 85.1524L39.1457 85.2189V84.6551C39.1457 84.2579 39.0175 83.8992 38.6587 83.8992C38.2358 83.8992 37.8513 84.5526 37.5565 85.2061H37.7488C37.9538 84.9114 38.1461 84.732 38.287 84.732C38.4665 84.732 38.569 85.0139 38.287 85.6289L37.4668 87.4483C37.313 87.7942 37.4797 88.012 37.8129 88.012C38.0179 88.012 38.1076 87.9608 38.1973 87.7429L39.0047 85.6161C39.2354 85.3342 39.4405 85.0907 39.6968 84.8217H40.5426ZM36.4803 85.1669C36.6085 84.68 36.365 84.4622 36.083 84.4622C35.7755 84.4622 35.4038 84.9107 35.1859 85.5129L36.4803 85.1669ZM36.7999 86.5506H36.5436C36.2232 86.935 35.8644 87.2425 35.5184 87.2425C35.1595 87.2425 34.9801 87.0247 34.9801 86.5506C34.9801 86.3584 35.0057 86.1534 35.0442 85.9741L37.1331 85.2822C37.5432 84.3084 37.0562 83.8856 36.4795 83.8856C35.4927 83.8856 34.3649 85.6153 34.3649 86.9991C34.3649 87.6525 34.6725 87.9984 35.1595 87.9984C35.7234 88.0113 36.3129 87.4603 36.7999 86.5506ZM31.4183 87.038C31.4183 87.2045 31.713 87.3967 31.9181 87.3967C32.7511 87.3967 33.5329 85.8976 33.5201 85.0648C33.5201 84.783 33.3791 84.6676 33.1869 84.6676C32.8793 84.6676 32.3154 85.1289 31.9565 85.5645L31.6233 86.4614C31.508 86.7561 31.4183 86.9867 31.4183 87.038ZM30.0729 83.8992C30.2267 83.8992 30.4061 84.0529 30.3292 84.3348L29.0989 87.3458C29.4193 87.2945 29.7525 86.987 29.9447 86.7051H30.1369C29.8422 87.4611 29.1758 88.012 28.5991 88.012C28.4453 88.012 28.2402 87.8583 28.3427 87.5764L29.4962 84.5654C29.1758 84.6167 28.8426 84.9242 28.6503 85.2061H28.4581C28.7529 84.4501 29.4705 83.8992 30.0729 83.8992ZM24.7533 82.5666H27.5087L27.4318 82.8101C26.4962 82.9766 26.3424 83.0535 25.958 84.0913L25.1378 86.3463C24.7405 87.4226 24.843 87.5507 25.5479 87.5507C26.4187 87.5507 26.9897 86.9179 27.4884 86.3653C27.5254 86.3243 27.562 86.2837 27.5984 86.2438H27.9188L27.0088 87.8582H22.8181L22.895 87.6276C23.8177 87.461 23.9715 87.3841 24.356 86.3463L25.189 84.0785C25.5607 83.0407 25.4838 82.9638 24.6764 82.7973L24.7533 82.5666Z" fill="black"/>
</g>
<defs>
<clipPath id="clip0_4321_36341">
<rect width="167.328" height="126" fill="white" transform="translate(24 8)"/>
</clipPath>
<clipPath id="clip1_4321_36341">
<rect width="167.328" height="126" fill="white" transform="translate(24 8)"/>
</clipPath>
</defs>
</svg>
