<svg width="178" height="132" viewBox="0 0 178 132" fill="none" xmlns="http://www.w3.org/2000/svg">
<g clip-path="url(#clip0)">
<path d="M1.25708 19.7461H3.79759L6.1933 23.8242L8.58901 19.7461H11.1295V29.6783H9.09579V22.6074L6.88437 26.258H5.46932L3.23157 22.6074V29.6783H1.25708V19.7461Z" fill="black"/>
<path d="M13.874 19.7461H15.888V29.6783H13.874V19.7461Z" fill="black"/>
<path d="M18.6655 19.7461H21.2455L25.6815 26.8434V19.7461H27.6955V29.6783H25.1155L20.6795 22.535V29.6783H18.6655V19.7461Z" fill="black"/>
<path d="M30.4729 19.7461H32.4474V29.6783H30.4729V19.7461Z" fill="black"/>
<path d="M35.8305 26.942C36.0791 27.298 36.4058 27.5927 36.7856 27.8036C37.1654 28.0144 37.5883 28.1359 38.0222 28.1588C38.1812 28.1815 38.3433 28.1697 38.4974 28.1241C38.6515 28.0786 38.7939 28.0005 38.9151 27.895C39.0362 27.7895 39.1332 27.6592 39.1995 27.5129C39.2657 27.3666 39.2997 27.2078 39.299 27.0472C39.299 25.2713 34.7643 25.6725 34.7643 22.3705C34.7757 21.9704 34.868 21.5767 35.0357 21.2132C35.2033 20.8497 35.4429 20.5238 35.7399 20.2553C36.0369 19.9867 36.3852 19.781 36.7639 19.6505C37.1425 19.5201 37.5437 19.4675 37.9432 19.4961C38.6063 19.4877 39.2625 19.6302 39.8623 19.9128C40.4621 20.1954 40.9897 20.6108 41.4051 21.1273L39.9308 22.4429C39.718 22.1004 39.4293 21.8113 39.0869 21.598C38.7446 21.3848 38.3578 21.253 37.9563 21.2129C37.8106 21.1982 37.6633 21.2141 37.5241 21.2596C37.3848 21.305 37.2566 21.379 37.1475 21.4769C37.0385 21.5747 36.9511 21.6941 36.8909 21.8276C36.8307 21.9611 36.7991 22.1057 36.798 22.2521C36.798 24.0215 41.3327 23.6137 41.3327 26.9683C41.3327 28.81 39.8584 29.9414 38.0419 29.9414C37.3404 29.9744 36.641 29.8416 36.0005 29.5535C35.3601 29.2655 34.7967 28.8305 34.3562 28.2838L35.8305 26.942Z" fill="black"/>
<path d="M42.3594 19.7461H50.4943V21.5747H47.4338V29.6783H45.4593V21.5747H42.3594V19.7461Z" fill="black"/>
<path d="M52.2712 19.746H58.0499V21.4562H54.2786V23.7584H57.4839V25.4685H54.2786V27.9483H58.0499V29.6782H52.2712V19.746ZM52.4424 16.9834H54.509L56.1083 18.8975H54.2655L52.4424 16.9834Z" fill="black"/>
<path d="M60.3931 19.7461H63.4206C65.6057 19.7461 66.955 20.8643 66.955 22.706C66.974 23.2433 66.8327 23.7741 66.5491 24.2309C66.2655 24.6877 65.8523 25.0498 65.3622 25.2713L68.4819 29.6783H66.073L63.4404 25.6725H62.4005V29.6783H60.3931V19.7461ZM62.4005 21.4563V23.936H63.5391C63.7096 23.9485 63.8809 23.9256 64.0421 23.8689C64.2034 23.8123 64.3513 23.723 64.4765 23.6066C64.6017 23.4903 64.7016 23.3494 64.7699 23.1927C64.8382 23.0361 64.8734 22.867 64.8734 22.6962C64.8734 22.5253 64.8382 22.3563 64.7699 22.1996C64.7016 22.043 64.6017 21.9021 64.4765 21.7857C64.3513 21.6694 64.2034 21.5801 64.0421 21.5234C63.8809 21.4667 63.7096 21.4439 63.5391 21.4563H62.4005Z" fill="black"/>
<path d="M69.7061 19.7461H75.4847V21.4563H71.7135V23.7585H74.9714V25.4686H71.7661V27.9484H75.5374V29.6783H69.7061V19.7461Z" fill="black"/>
<path d="M1.25708 34.0393H5.15998C8.306 34.0393 10.4253 36.3217 10.4253 38.9988C10.4253 41.6759 8.29942 43.9584 5.15998 43.9584H1.25708V34.0393ZM3.23157 35.8679V42.1298H5.20605C6.03694 42.1298 6.83379 41.7999 7.42132 41.2128C8.00884 40.6256 8.33891 39.8292 8.33891 38.9988C8.33891 38.1685 8.00884 37.3721 7.42132 36.7849C6.83379 36.1978 6.03694 35.8679 5.20605 35.8679H3.23157Z" fill="black"/>
<path d="M12.3604 34.0393H18.139V35.7561H14.3677V38.0517H17.573V39.7619H14.3677V42.2416H18.139V43.9584H12.3604V34.0393Z" fill="black"/>
<path d="M24.1611 34.0393H26.1751V42.1298H29.9464V43.9584H24.1611V34.0393Z" fill="black"/>
<path d="M34.6521 34.0393H37.2848L41.0429 43.9584H38.9038L37.9561 41.3799H34.0071L33.0528 43.9584H30.8743L34.6521 34.0393ZM37.3308 39.6632L35.9684 35.9402L34.6126 39.6632H37.3308Z" fill="black"/>
<path d="M53.252 40.9985L54.8447 42.2153C54.3584 42.8612 53.725 43.382 52.997 43.7343C52.269 44.0866 51.4675 44.2604 50.6588 44.2412C49.7647 44.2389 48.8859 44.0091 48.1053 43.5734C47.3246 43.1377 46.6679 42.5105 46.1969 41.7509C45.7259 40.9914 45.4562 40.1244 45.4133 39.2319C45.3704 38.3393 45.5556 37.4506 45.9514 36.6493C46.3473 35.8481 46.9408 35.1608 47.676 34.6523C48.4112 34.1438 49.2639 33.8307 50.1537 33.7427C51.0435 33.6546 51.941 33.7944 52.7617 34.149C53.5825 34.5036 54.2993 35.0612 54.8447 35.7692L53.252 36.9993C52.9648 36.5775 52.5778 36.2331 52.1255 35.9967C51.6731 35.7604 51.1693 35.6393 50.6588 35.6443C49.8049 35.6977 49.0035 36.0744 48.4178 36.6977C47.832 37.3209 47.5059 38.1438 47.5059 38.9989C47.5059 39.8539 47.832 40.6768 48.4178 41.3001C49.0035 41.9233 49.8049 42.3 50.6588 42.3535C51.1693 42.3584 51.6731 42.2374 52.1255 42.001C52.5778 41.7646 52.9648 41.4202 53.252 40.9985Z" fill="black"/>
<path d="M66.2176 38.9988C66.2176 40.0395 65.9088 41.0569 65.3302 41.9223C64.7517 42.7876 63.9294 43.4621 62.9673 43.8604C62.0052 44.2586 60.9465 44.3628 59.9251 44.1598C58.9037 43.9568 57.9656 43.4556 57.2292 42.7197C56.4928 41.9838 55.9913 41.0461 55.7882 40.0254C55.585 39.0046 55.6893 37.9466 56.0878 36.9851C56.4863 36.0236 57.1612 35.2017 58.0271 34.6235C58.8929 34.0453 59.9109 33.7367 60.9523 33.7367C61.6477 33.7224 62.3388 33.8487 62.9841 34.108C63.6294 34.3674 64.2156 34.7545 64.7074 35.246C65.1992 35.7375 65.5865 36.3233 65.846 36.9682C66.1056 37.6132 66.2319 38.3038 66.2176 38.9988ZM64.1444 38.9988C64.1135 38.3736 63.8996 37.7713 63.5293 37.2665C63.1589 36.7617 62.6485 36.3767 62.0612 36.1592C61.474 35.9417 60.8357 35.9012 60.2257 36.0429C59.6156 36.1846 59.0606 36.5021 58.6295 36.9561C58.1983 37.4101 57.9101 37.9807 57.8004 38.5969C57.6907 39.2132 57.7645 39.848 58.0125 40.4228C58.2606 40.9975 58.672 41.4868 59.1958 41.83C59.7195 42.1732 60.3326 42.3552 60.9589 42.3534C61.3917 42.3531 61.82 42.2648 62.2176 42.0939C62.6153 41.923 62.974 41.673 63.2719 41.3593C63.5699 41.0455 63.8009 40.6744 63.9509 40.2686C64.1009 39.8628 64.1667 39.4308 64.1444 38.9988Z" fill="black"/>
<path d="M68.1396 34.0393H70.1536V37.9859H75.1557V34.0393H77.1696V43.9584H75.1557V39.821H70.1536V43.9584H68.1396V34.0393Z" fill="black"/>
<path d="M79.947 34.0392H85.7323V35.756H81.961V38.0516H85.1663V39.7618H81.961V42.2415H85.7323V43.9583H79.947V34.0392ZM81.9215 33.1907L83.5274 31.2832H85.5941L83.7512 33.1907H81.9215Z" fill="black"/>
<path d="M88.6348 41.2351C88.8837 41.5924 89.2113 41.8878 89.5924 42.0988C89.9735 42.3097 90.3979 42.4305 90.833 42.452C91.6294 42.452 92.1098 42.031 92.1098 41.3075C92.1098 39.5381 87.5751 39.9327 87.5751 36.6308C87.5864 36.2294 87.6791 35.8346 87.8476 35.4701C88.0161 35.1057 88.2569 34.7792 88.5553 34.5105C88.8537 34.2417 89.2037 34.0363 89.5839 33.9067C89.9641 33.7771 90.3666 33.7259 90.7672 33.7563C91.4353 33.7531 92.0954 33.9018 92.6975 34.1913C93.2996 34.4807 93.8278 34.9033 94.2423 35.4271L92.768 36.7426C92.5559 36.3988 92.2675 36.1085 91.9251 35.8941C91.5827 35.6796 91.1955 35.5468 90.7935 35.506C90.6488 35.4933 90.503 35.5106 90.3653 35.557C90.2276 35.6033 90.101 35.6776 89.9934 35.7752C89.8859 35.8728 89.7997 35.9916 89.7403 36.1242C89.6809 36.2567 89.6496 36.4001 89.6483 36.5453C89.6483 38.3146 94.1831 37.9002 94.1831 41.2614C94.1831 43.1032 92.7088 44.2345 90.8923 44.2345C90.191 44.2655 89.4923 44.1316 88.8522 43.8438C88.2121 43.5559 87.6484 43.122 87.2065 42.5769L88.6348 41.2351Z" fill="black"/>
<path d="M96.2627 34.0393H98.2767V43.9584H96.2627V34.0393Z" fill="black"/>
<path d="M110.729 38.9987C110.729 40.0394 110.421 41.0568 109.842 41.9222C109.263 42.7875 108.441 43.462 107.479 43.8603C106.517 44.2585 105.458 44.3627 104.437 44.1597C103.415 43.9567 102.477 43.4555 101.741 42.7196C101.005 41.9837 100.503 41.046 100.3 40.0253C100.097 39.0045 100.201 37.9465 100.6 36.985C100.998 36.0235 101.673 35.2016 102.539 34.6234C103.405 34.0452 104.423 33.7366 105.464 33.7366C106.16 33.7213 106.851 33.847 107.497 34.106C108.143 34.3651 108.729 34.7521 109.221 35.2438C109.713 35.7355 110.1 36.3217 110.36 36.9671C110.619 37.6124 110.745 38.3035 110.729 38.9987ZM108.663 38.9987C108.632 38.3735 108.418 37.7712 108.048 37.2664C107.677 36.7616 107.167 36.3766 106.58 36.1591C105.992 35.9416 105.354 35.9011 104.744 36.0428C104.134 36.1845 103.579 36.502 103.148 36.956C102.717 37.41 102.428 37.9806 102.319 38.5968C102.209 39.2131 102.283 39.8479 102.531 40.4227C102.779 40.9974 103.19 41.4867 103.714 41.8299C104.238 42.1731 104.851 42.3551 105.477 42.3533C105.91 42.353 106.338 42.2647 106.736 42.0938C107.134 41.9229 107.492 41.6729 107.79 41.3592C108.088 41.0454 108.319 40.6743 108.469 40.2685C108.619 39.8627 108.685 39.4307 108.663 38.9987Z" fill="black"/>
<path d="M112.658 34.0393H115.238L119.674 41.1366V34.0393H121.701V43.9584H119.121L114.685 36.8348V43.9584H112.671L112.658 34.0393Z" fill="black"/>
<path d="M1.25708 48.3391H5.15998C8.306 48.3391 10.4253 50.6216 10.4253 53.2986C10.4253 55.9757 8.29942 58.2516 5.15998 58.2516H1.25708V48.3391ZM3.23157 50.1677V56.423H5.20605C5.62911 56.4424 6.0517 56.3759 6.44831 56.2275C6.84491 56.079 7.20728 55.8518 7.51352 55.5594C7.81976 55.2671 8.06352 54.9157 8.23006 54.5266C8.3966 54.1374 8.48246 53.7186 8.48246 53.2954C8.48246 52.8721 8.3966 52.4533 8.23006 52.0641C8.06352 51.675 7.81976 51.3236 7.51352 51.0313C7.20728 50.7389 6.84491 50.5117 6.44831 50.3633C6.0517 50.2148 5.62911 50.1483 5.20605 50.1677H3.23157Z" fill="black"/>
<path d="M12.3604 48.3391H18.139V50.069H14.3677V52.358H17.573V54.0748H14.3677V56.5546H18.139V58.2648H12.3604V48.3391Z" fill="black"/>
<path d="M21.048 55.5349C21.2967 55.891 21.6234 56.1856 22.0031 56.3965C22.3829 56.6074 22.8059 56.7289 23.2397 56.7518C23.4016 56.775 23.5665 56.7624 23.723 56.715C23.8795 56.6675 24.0237 56.5864 24.1454 56.4773C24.2671 56.3682 24.3634 56.2338 24.4275 56.0834C24.4917 55.9331 24.522 55.7706 24.5165 55.6073C24.5165 53.8313 19.9818 54.2325 19.9818 50.9306C19.9932 50.5304 20.0855 50.1368 20.2532 49.7733C20.4209 49.4097 20.6604 49.0839 20.9574 48.8153C21.2544 48.5468 21.6028 48.3411 21.9814 48.2106C22.3601 48.0801 22.7612 48.0276 23.1607 48.0561C23.8282 48.0514 24.4878 48.1996 25.089 48.4892C25.6903 48.7788 26.2172 49.2022 26.6293 49.7269L25.155 51.0424C24.9422 50.6999 24.6534 50.4108 24.3111 50.1976C23.9687 49.9843 23.5819 49.8525 23.1805 49.8124C23.0358 49.7987 22.8898 49.8152 22.7518 49.8607C22.6137 49.9062 22.4866 49.9798 22.3784 50.0768C22.2702 50.1738 22.1833 50.2921 22.1231 50.4243C22.0629 50.5566 22.0308 50.6998 22.0287 50.8451C22.0287 52.6144 26.5634 52.2066 26.5634 55.5612C26.5634 57.403 25.0891 58.5343 23.2726 58.5343C22.5711 58.5674 21.8717 58.4345 21.2312 58.1465C20.5908 57.8585 20.0274 57.4234 19.5869 56.8768L21.048 55.5349Z" fill="black"/>
<path d="M31.3352 48.3391H39.4701V50.1677H36.4096V58.2516H34.3957V50.1677H31.3352V48.3391Z" fill="black"/>
<path d="M41.2405 48.3391H47.0257V50.069H43.2545V52.358H46.4597V54.0748H43.2545V56.5546H47.0257V58.2648H41.2405V48.3391Z" fill="black"/>
<path d="M49.3621 48.3391H52.3962C54.5813 48.3391 55.9239 49.4573 55.9239 51.299C55.9453 51.8359 55.8058 52.3669 55.5232 52.824C55.2405 53.281 54.8278 53.6433 54.3378 53.8643L57.4575 58.2516H55.0486L52.4159 54.2458H51.3826V58.2516H49.3686L49.3621 48.3391ZM51.376 50.069V52.5422H52.5081C52.6813 52.5601 52.8563 52.5414 53.0219 52.4874C53.1874 52.4334 53.3398 52.3453 53.4691 52.2287C53.5984 52.1122 53.7017 51.9698 53.7725 51.8108C53.8432 51.6517 53.8798 51.4796 53.8798 51.3056C53.8798 51.1316 53.8432 50.9595 53.7725 50.8005C53.7017 50.6415 53.5984 50.4991 53.4691 50.3825C53.3398 50.266 53.1874 50.1778 53.0219 50.1238C52.8563 50.0698 52.6813 50.0511 52.5081 50.069H51.376Z" fill="black"/>
<path d="M58.7014 48.3391H61.7355C63.9206 48.3391 65.2633 49.4573 65.2633 51.299C65.2847 51.8359 65.1451 52.3669 64.8625 52.824C64.5799 53.281 64.1671 53.6433 63.6771 53.8643L66.7968 58.2516H64.3879L61.7553 54.2458H60.722V58.2516H58.708L58.7014 48.3391ZM60.7154 50.069V52.5422H61.8474C62.0206 52.5601 62.1957 52.5414 62.3612 52.4874C62.5268 52.4334 62.6791 52.3453 62.8084 52.2287C62.9377 52.1122 63.0411 51.9698 63.1118 51.8108C63.1826 51.6517 63.2191 51.4796 63.2191 51.3056C63.2191 51.1316 63.1826 50.9595 63.1118 50.8005C63.0411 50.6415 62.9377 50.4991 62.8084 50.3825C62.6791 50.266 62.5268 50.1778 62.3612 50.1238C62.1957 50.0698 62.0206 50.0511 61.8474 50.069H60.7154Z" fill="black"/>
<path d="M68.0408 48.3391H70.0547V58.2516H68.0408V48.3391Z" fill="black"/>
<path d="M71.812 48.3391H79.9469V50.1677H76.8865V58.2516H74.8725V50.1677H71.812V48.3391Z" fill="black"/>
<path d="M90.9449 53.2985C90.9449 54.3393 90.6361 55.3566 90.0575 56.222C89.479 57.0873 88.6567 57.7618 87.6945 58.1601C86.7324 58.5583 85.6738 58.6625 84.6524 58.4595C83.631 58.2565 82.6928 57.7553 81.9565 57.0194C81.2201 56.2835 80.7186 55.3458 80.5155 54.3251C80.3123 53.3043 80.4166 52.2463 80.8151 51.2848C81.2136 50.3233 81.8885 49.5014 82.7544 48.9232C83.6202 48.345 84.6382 48.0364 85.6796 48.0364C86.3752 48.0211 87.0668 48.1468 87.7125 48.4058C88.3582 48.6649 88.9447 49.0519 89.4367 49.5436C89.9288 50.0353 90.316 50.6215 90.5752 51.2669C90.8344 51.9122 90.9602 52.6033 90.9449 53.2985ZM88.8783 53.2985C88.8474 52.6736 88.6337 52.0715 88.2636 51.5669C87.8936 51.0622 87.3835 50.6772 86.7966 50.4595C86.2098 50.2417 85.5718 50.2009 84.9619 50.342C84.3521 50.4832 83.797 50.8001 83.3656 51.2534C82.9342 51.7068 82.6454 52.2767 82.535 52.8926C82.4246 53.5084 82.4974 54.1431 82.7445 54.7179C82.9915 55.2928 83.4019 55.7826 83.9248 56.1266C84.4477 56.4705 85.0602 56.6536 85.6862 56.6531C86.1193 56.6527 86.5479 56.5645 86.9458 56.3936C87.3438 56.2228 87.7029 55.973 88.0014 55.6593C88.2999 55.3456 88.5315 54.9746 88.6822 54.5688C88.833 54.163 88.8997 53.7308 88.8783 53.2985Z" fill="black"/>
<path d="M92.8733 48.3391H94.8873V58.2516H92.8733V48.3391Z" fill="black"/>
<path d="M97.6648 48.3391H100.699C102.877 48.3391 104.227 49.4573 104.227 51.299C104.248 51.8359 104.108 52.3669 103.826 52.824C103.543 53.281 103.131 53.6433 102.641 53.8643L105.76 58.2516H103.351L100.719 54.2458H99.6854V58.2516H97.6714L97.6648 48.3391ZM99.6788 50.069V52.5422H100.811C100.984 52.5601 101.159 52.5414 101.325 52.4874C101.49 52.4334 101.642 52.3453 101.772 52.2287C101.901 52.1122 102.004 51.9698 102.075 51.8108C102.146 51.6517 102.183 51.4796 102.183 51.3056C102.183 51.1316 102.146 50.9595 102.075 50.8005C102.004 50.6415 101.901 50.4991 101.772 50.3825C101.642 50.266 101.49 50.1778 101.325 50.1238C101.159 50.0698 100.984 50.0511 100.811 50.069H99.6788Z" fill="black"/>
<path d="M107.004 48.3391H112.789V50.069H109.018V52.358H112.223V54.0748H109.018V56.5546H112.789V58.2648H107.004V48.3391Z" fill="black"/>
<path d="M115.692 55.5349C115.942 55.8911 116.27 56.1858 116.651 56.3966C117.031 56.6075 117.455 56.7289 117.89 56.7518C118.052 56.775 118.217 56.7624 118.373 56.715C118.53 56.6676 118.674 56.5864 118.796 56.4773C118.917 56.3682 119.014 56.2338 119.078 56.0835C119.142 55.9331 119.172 55.7706 119.167 55.6073C119.167 53.8313 114.632 54.2326 114.632 50.9306C114.644 50.5311 114.736 50.138 114.903 49.7749C115.07 49.4119 115.309 49.0863 115.606 48.8179C115.902 48.5494 116.249 48.3435 116.627 48.2126C117.005 48.0818 117.406 48.0285 117.805 48.0562C118.473 48.0514 119.134 48.1995 119.736 48.4891C120.338 48.7787 120.866 49.2021 121.28 49.7269L119.805 51.0424C119.593 50.6999 119.304 50.4109 118.961 50.1976C118.619 49.9843 118.232 49.8525 117.831 49.8124C117.687 49.7997 117.541 49.8169 117.404 49.8628C117.267 49.9088 117.141 49.9825 117.033 50.0794C116.926 50.1763 116.839 50.2943 116.78 50.4261C116.72 50.5578 116.688 50.7004 116.686 50.8451C116.686 52.6145 121.22 52.2067 121.22 55.5613C121.188 57.403 119.746 58.5344 117.93 58.5344C117.228 58.5669 116.529 58.4338 115.889 58.1458C115.248 57.8578 114.685 57.423 114.244 56.8768L115.692 55.5349Z" fill="black"/>
<path d="M1.25708 62.6323H7.04233V64.3491H3.23157V66.6447H6.43682V68.3549H3.23157V70.8346H7.00284V72.5514H1.25708V62.6323Z" fill="black"/>
<path d="M8.56274 62.6323H16.6976V64.4609H13.6306V72.5514H11.6561V64.4609H8.56274V62.6323Z" fill="black"/>
<path d="M22.1538 62.6323H26.0501C29.1961 62.6323 31.3154 64.9148 31.3154 67.5919C31.3154 70.269 29.1896 72.5514 26.0501 72.5514H22.1538V62.6323ZM24.1283 64.4609V70.7228H26.0435C26.8744 70.7228 27.6713 70.3929 28.2588 69.8058C28.8463 69.2186 29.1764 68.4222 29.1764 67.5919C29.1764 66.7615 28.8463 65.9651 28.2588 65.3779C27.6713 64.7908 26.8744 64.4609 26.0435 64.4609H24.1283Z" fill="black"/>
<path d="M33.2634 62.6323H39.0487V64.3491H35.2774V66.6447H38.4761V68.3549H35.2774V70.8346H39.0487V72.5514H33.2634V62.6323Z" fill="black"/>
<path d="M41.9514 69.8018C42.1996 70.1602 42.527 70.457 42.9081 70.6691C43.2892 70.8812 43.714 71.003 44.1496 71.0252C44.3119 71.0473 44.4769 71.0338 44.6334 70.9855C44.7898 70.9373 44.9339 70.8555 45.0554 70.7459C45.177 70.6363 45.2732 70.5015 45.3373 70.351C45.4014 70.2004 45.4318 70.0377 45.4265 69.8741C45.4265 68.1047 40.8851 68.4994 40.8851 65.204C40.8966 64.8036 40.9889 64.4097 41.1565 64.0458C41.3241 63.682 41.5635 63.3557 41.8604 63.0866C42.1573 62.8176 42.5056 62.6112 42.8842 62.48C43.2629 62.3488 43.6642 62.2954 44.0641 62.323C44.7312 62.3198 45.3904 62.4686 45.9914 62.758C46.5924 63.0475 47.1195 63.4701 47.5326 63.9937L46.0583 65.3093C45.8462 64.9655 45.5578 64.6752 45.2154 64.4607C44.873 64.2463 44.4858 64.1135 44.0838 64.0727C43.9391 64.0599 43.7933 64.0773 43.6556 64.1236C43.5179 64.17 43.3913 64.2443 43.2837 64.3419C43.1761 64.4395 43.09 64.5583 43.0306 64.6908C42.9712 64.8234 42.9399 64.9667 42.9386 65.1119C42.9386 66.8813 47.4733 66.4669 47.4733 69.8281C47.4733 71.6698 45.9991 72.8012 44.1825 72.8012C43.4813 72.8321 42.7825 72.6983 42.1424 72.4104C41.5023 72.1226 40.9387 71.6887 40.4968 71.1436L41.9514 69.8018Z" fill="black"/>
<path d="M53.252 62.6323H56.2861C58.4712 62.6323 59.8138 63.7571 59.8138 65.5988C59.8348 66.1348 59.6949 66.6647 59.4123 67.1206C59.1297 67.5766 58.7171 67.9376 58.2277 68.1575L61.3474 72.5514H58.9385L56.3058 68.539H55.2725V72.5514H53.252V62.6323ZM55.2659 64.3491V66.8289H56.398C56.5685 66.8413 56.7397 66.8184 56.901 66.7618C57.0623 66.7051 57.2102 66.6158 57.3354 66.4994C57.4606 66.3831 57.5605 66.2422 57.6288 66.0855C57.6971 65.9289 57.7323 65.7598 57.7323 65.589C57.7323 65.4181 57.6971 65.2491 57.6288 65.0924C57.5605 64.9358 57.4606 64.7949 57.3354 64.6785C57.2102 64.5622 57.0623 64.4729 56.901 64.4162C56.7397 64.3595 56.5685 64.3367 56.398 64.3491H55.2659Z" fill="black"/>
<path d="M62.5979 62.6323H68.3897V64.3491H64.6185V66.6447H67.8237V68.3549H64.6185V70.8346H68.3897V72.5514H62.5979V62.6323Z" fill="black"/>
<path d="M70.7195 62.6323H72.7335V70.7228H76.5047V72.5514H70.7195V62.6323Z" fill="black"/>
<path d="M81.2107 62.6323H83.8434L87.6015 72.5514H85.4625L84.5147 69.973H80.5657L79.5785 72.5514H77.4395L81.2107 62.6323ZM83.8894 68.2562L82.527 64.5398L81.1647 68.2628L83.8894 68.2562Z" fill="black"/>
<path d="M87.1208 62.6323H95.2557V64.4609H92.1953V72.5514H90.1813V64.4609H87.1208V62.6323Z" fill="black"/>
<path d="M97.0264 62.6323H99.0404V72.5514H97.0264V62.6323Z" fill="black"/>
<path d="M111.499 67.5917C111.499 68.6325 111.191 69.6498 110.612 70.5152C110.033 71.3805 109.211 72.055 108.249 72.4533C107.287 72.8516 106.228 72.9558 105.207 72.7527C104.185 72.5497 103.247 72.0485 102.511 71.3126C101.775 70.5767 101.273 69.6391 101.07 68.6183C100.867 67.5976 100.971 66.5395 101.37 65.578C101.768 64.6165 102.443 63.7946 103.309 63.2164C104.175 62.6382 105.193 62.3296 106.234 62.3296C106.93 62.3143 107.621 62.44 108.267 62.6991C108.913 62.9581 109.499 63.3451 109.991 63.8369C110.483 64.3286 110.87 64.9147 111.13 65.5601C111.389 66.2054 111.515 66.8965 111.499 67.5917ZM109.426 67.5917C109.395 66.9666 109.181 66.3642 108.811 65.8594C108.441 65.3547 107.93 64.9696 107.343 64.7521C106.756 64.5346 106.117 64.4942 105.507 64.6358C104.897 64.7775 104.342 65.095 103.911 65.549C103.48 66.0031 103.192 66.5736 103.082 67.1898C102.972 67.8061 103.046 68.441 103.294 69.0157C103.542 69.5904 103.954 70.0797 104.478 70.4229C105.001 70.7661 105.614 70.9481 106.241 70.9463C106.673 70.946 107.102 70.8577 107.499 70.6868C107.897 70.5159 108.256 70.266 108.554 69.9522C108.852 69.6384 109.083 69.2673 109.233 68.8616C109.383 68.4558 109.448 68.0237 109.426 67.5917Z" fill="black"/>
<path d="M113.428 62.6323H116.008L120.444 69.7296V62.6323H122.418V72.5514H119.838L115.402 65.4278V72.5514H113.428V62.6323Z" fill="black"/>
<path d="M125.801 69.8018C126.049 70.1594 126.375 70.4556 126.755 70.6677C127.135 70.8797 127.558 71.002 127.993 71.0252C128.155 71.0485 128.321 71.0358 128.478 70.988C128.635 70.9402 128.779 70.8585 128.901 70.7486C129.023 70.6388 129.119 70.5035 129.183 70.3524C129.247 70.2013 129.276 70.038 129.27 69.8741C129.27 68.1047 124.735 68.4994 124.735 65.204C124.746 64.8039 124.837 64.4101 125.004 64.0463C125.171 63.6825 125.41 63.3561 125.706 63.087C126.002 62.8178 126.35 62.6114 126.729 62.4801C127.107 62.3488 127.508 62.2954 127.907 62.323C128.575 62.3197 129.236 62.4685 129.838 62.7579C130.44 63.0474 130.968 63.47 131.382 63.9937L129.908 65.3093C129.696 64.9655 129.408 64.6752 129.065 64.4608C128.723 64.2463 128.336 64.1135 127.934 64.0727C127.789 64.06 127.642 64.0773 127.504 64.1236C127.366 64.1699 127.239 64.2441 127.131 64.3416C127.023 64.4391 126.936 64.5579 126.876 64.6904C126.816 64.8229 126.784 64.9664 126.782 65.1119C126.782 66.8813 131.317 66.4669 131.317 69.8281C131.317 71.6698 129.842 72.8012 128.026 72.8012C127.324 72.8337 126.625 72.7006 125.985 72.4126C125.344 72.1246 124.781 71.6899 124.34 71.1436L125.801 69.8018Z" fill="black"/>
<path d="M3.75811 76.9321H6.39075L10.1489 86.8446H8.00983L7.0555 84.2728H3.10653L2.15877 86.8512H0L3.75811 76.9321ZM6.43683 82.556L5.07443 78.8331L3.71203 82.556H6.43683Z" fill="black"/>
<path d="M11.6891 76.9321L14.6245 84.6806L17.5599 76.9321H19.6857L15.9276 86.8446H13.295L9.55005 76.9321H11.6891Z" fill="black"/>
<path d="M21.2324 76.9321H27.0111V78.6489H23.2398V80.9379H26.4451V82.6547H23.2398V85.1344H27.0111V86.8446H21.2324V76.9321Z" fill="black"/>
<path d="M36.1396 83.8847L37.7258 85.1016C37.2412 85.7478 36.6091 86.2688 35.8821 86.6213C35.155 86.9737 34.3542 87.1472 33.5465 87.1275C32.6515 87.1272 31.7714 86.8988 30.9892 86.4641C30.2071 86.0293 29.5488 85.4025 29.0764 84.6428C28.604 83.8831 28.3332 83.0156 28.2895 82.1223C28.2458 81.2289 28.4307 80.3392 28.8267 79.5371C29.2227 78.735 29.8167 78.047 30.5527 77.5381C31.2887 77.0292 32.1423 76.7161 33.033 76.6286C33.9236 76.541 34.822 76.6817 35.6431 77.0376C36.4642 77.3934 37.181 77.9525 37.7258 78.6621L36.1396 79.8921C35.8532 79.4691 35.4665 79.1234 35.0141 78.8859C34.5617 78.6483 34.0575 78.5263 33.5465 78.5305C32.6811 78.5688 31.8639 78.9393 31.265 79.5648C30.6662 80.1904 30.332 81.0227 30.332 81.8884C30.332 82.7541 30.6662 83.5864 31.265 84.212C31.8639 84.8375 32.6811 85.208 33.5465 85.2463C34.0575 85.2506 34.5617 85.1285 35.0141 84.8909C35.4665 84.6534 35.8532 84.3077 36.1396 83.8847Z" fill="black"/>
<path d="M43.1558 76.9321H45.1697V85.0226H48.941V86.8446H43.1558V76.9321Z" fill="black"/>
<path d="M50.7114 76.9321H56.4901V78.6489H52.7254V80.9379H55.9241V82.6547H52.7254V85.1344H56.4901V86.8446H50.7114V76.9321Z" fill="black"/>
<path d="M59.3991 84.1279C59.6488 84.4845 59.9766 84.7794 60.3575 84.9903C60.7384 85.2012 61.1625 85.3224 61.5974 85.3448C61.7587 85.3669 61.923 85.3536 62.0786 85.3057C62.2343 85.2578 62.3776 85.1765 62.4986 85.0675C62.6195 84.9585 62.7152 84.8244 62.779 84.6746C62.8427 84.5249 62.873 84.363 62.8676 84.2003C62.8676 82.4243 58.3329 82.8256 58.3329 79.5236C58.3443 79.1235 58.4366 78.7298 58.6043 78.3663C58.772 78.0027 59.0115 77.6769 59.3085 77.4083C59.6055 77.1398 59.9538 76.9341 60.3325 76.8036C60.7111 76.6731 61.1123 76.6206 61.5118 76.6492C62.1792 76.6445 62.8389 76.7926 63.4401 77.0822C64.0413 77.3718 64.5682 77.7952 64.9803 78.3199L63.506 79.6354C63.2932 79.2929 63.0045 79.0039 62.6621 78.7906C62.3198 78.5773 61.933 78.4455 61.5316 78.4054C61.3868 78.3918 61.2409 78.4082 61.1028 78.4537C60.9648 78.4992 60.8377 78.5728 60.7295 78.6698C60.6213 78.7668 60.5344 78.8851 60.4742 79.0174C60.414 79.1496 60.3819 79.2928 60.3798 79.4381C60.3798 81.2075 64.9145 80.7997 64.9145 84.1543C64.9145 85.996 63.4468 87.1273 61.6237 87.1273C60.9222 87.1599 60.223 87.0268 59.5826 86.7388C58.9423 86.4508 58.3788 86.016 57.938 85.4698L59.3991 84.1279Z" fill="black"/>
<path d="M77.7224 83.8847L79.3085 85.1016C78.8251 85.749 78.1932 86.2709 77.4659 86.6235C76.7386 86.976 75.9373 87.1489 75.1292 87.1275C74.2343 87.1271 73.3541 86.8988 72.572 86.4641C71.7899 86.0293 71.1315 85.4025 70.6591 84.6428C70.1868 83.8831 69.9159 83.0156 69.8722 82.1223C69.8286 81.2289 70.0134 80.3392 70.4094 79.5371C70.8054 78.735 71.3995 78.047 72.1355 77.5381C72.8714 77.0291 73.7251 76.7161 74.6157 76.6286C75.5064 76.541 76.4047 76.6817 77.2258 77.0376C78.0469 77.3934 78.7637 77.9525 79.3085 78.6621L77.7224 79.8921C77.4359 79.4691 77.0493 79.1234 76.5969 78.8859C76.1444 78.6483 75.6403 78.5263 75.1292 78.5305C74.2638 78.5688 73.4466 78.9393 72.8478 79.5648C72.249 80.1904 71.9148 81.0227 71.9148 81.8884C71.9148 82.7541 72.249 83.5864 72.8478 84.212C73.4466 84.8375 74.2638 85.208 75.1292 85.2463C75.6403 85.2505 76.1444 85.1285 76.5969 84.8909C77.0493 84.6534 77.4359 84.3077 77.7224 83.8847Z" fill="black"/>
<path d="M90.662 81.8915C90.662 82.9323 90.3532 83.9496 89.7746 84.815C89.196 85.6803 88.3737 86.3548 87.4116 86.7531C86.4495 87.1514 85.3908 87.2556 84.3694 87.0525C83.3481 86.8495 82.4099 86.3483 81.6735 85.6124C80.9372 84.8765 80.4357 83.9389 80.2325 82.9181C80.0294 81.8974 80.1336 80.8393 80.5321 79.8778C80.9307 78.9163 81.6055 78.0944 82.4714 77.5162C83.3373 76.938 84.3553 76.6294 85.3967 76.6294C86.0923 76.6141 86.7838 76.7398 87.4295 76.9989C88.0752 77.2579 88.6618 77.645 89.1538 78.1367C89.6458 78.6284 90.0331 79.2146 90.2923 79.8599C90.5515 80.5052 90.6772 81.1963 90.662 81.8915ZM88.5953 81.8915C88.5644 81.2666 88.3507 80.6646 87.9807 80.1599C87.6107 79.6553 87.1006 79.2702 86.5137 79.0525C85.9268 78.8347 85.2889 78.7939 84.679 78.9351C84.0691 79.0762 83.5141 79.3931 83.0827 79.8464C82.6513 80.2998 82.3624 80.8697 82.252 81.4856C82.1416 82.1014 82.2144 82.7361 82.4615 83.311C82.7086 83.8858 83.119 84.3756 83.6419 84.7196C84.1648 85.0636 84.7772 85.2466 85.4032 85.2461C85.8364 85.2457 86.2649 85.1575 86.6629 84.9867C87.0609 84.8158 87.42 84.566 87.7185 84.2523C88.0169 83.9386 88.2486 83.5677 88.3993 83.1618C88.55 82.756 88.6167 82.3239 88.5953 81.8915Z" fill="black"/>
<path d="M92.5903 76.9321H94.6043V85.0226H98.3756V86.8446H92.5903V76.9321Z" fill="black"/>
<path d="M100.146 76.9321H102.16V85.0226H105.905V86.8446H100.126L100.146 76.9321Z" fill="black"/>
<path d="M107.702 76.9321H113.48V78.6489H109.709V80.9379H112.914V82.6547H109.709V85.1344H113.48V86.8446H107.702V76.9321Z" fill="black"/>
<path d="M122.609 83.8847L124.195 85.1016C123.711 85.7478 123.079 86.2688 122.352 86.6213C121.625 86.9737 120.824 87.1472 120.016 87.1275C119.121 87.1272 118.241 86.8988 117.459 86.4641C116.677 86.0293 116.018 85.4025 115.546 84.6428C115.073 83.8831 114.803 83.0156 114.759 82.1223C114.715 81.2289 114.9 80.3392 115.296 79.5371C115.692 78.735 116.286 78.047 117.022 77.5381C117.758 77.0292 118.612 76.7161 119.502 76.6286C120.393 76.541 121.291 76.6817 122.113 77.0376C122.934 77.3934 123.65 77.9525 124.195 78.6621L122.609 79.8921C122.323 79.4691 121.936 79.1234 121.484 78.8859C121.031 78.6483 120.527 78.5263 120.016 78.5305C119.151 78.5688 118.333 78.9393 117.735 79.5648C117.136 80.1904 116.801 81.0227 116.801 81.8884C116.801 82.7541 117.136 83.5864 117.735 84.212C118.333 84.8375 119.151 85.208 120.016 85.2463C120.527 85.2506 121.031 85.1285 121.484 84.8909C121.936 84.6534 122.323 84.3077 122.609 83.8847Z" fill="black"/>
<path d="M124.919 76.9321H133.054V78.7607H129.994V86.8446H127.98V78.7607H124.919V76.9321Z" fill="black"/>
<path d="M134.824 76.9321H136.838V86.8446H134.824V76.9321Z" fill="black"/>
<path d="M140.511 76.9321L143.42 84.6806L146.349 76.9321H148.488L144.736 86.8446H142.104L138.352 76.9321H140.511Z" fill="black"/>
<path d="M150.048 76.9321H152.062V86.8446H150.048V76.9321Z" fill="black"/>
<path d="M153.819 76.9321H161.954V78.7607H158.894V86.8446H156.88V78.7607H153.819V76.9321Z" fill="black"/>
<path d="M163.724 76.932H169.51V78.6488H165.738V80.9378H168.937V82.6546H165.738V85.1344H169.51V86.8445H163.724V76.932ZM165.699 76.0835L167.305 74.1694H169.371L167.529 76.0835H165.699Z" fill="black"/>
<path d="M172.412 84.128C172.662 84.4842 172.99 84.7788 173.371 84.9897C173.752 85.2005 174.176 85.3219 174.611 85.3448C174.772 85.368 174.937 85.3554 175.094 85.308C175.25 85.2606 175.395 85.1795 175.516 85.0703C175.638 84.9612 175.734 84.8268 175.798 84.6765C175.863 84.5262 175.893 84.3636 175.887 84.2003C175.887 82.4244 171.353 82.8256 171.353 79.5236C171.364 79.1241 171.456 78.731 171.624 78.3679C171.791 78.0049 172.03 77.6793 172.326 77.4109C172.622 77.1424 172.97 76.9366 173.348 76.8057C173.726 76.6748 174.126 76.6216 174.525 76.6492C175.193 76.6454 175.853 76.794 176.456 77.0835C177.058 77.373 177.586 77.7958 178 78.3199L176.526 79.6354C176.313 79.2929 176.024 79.0039 175.682 78.7906C175.34 78.5773 174.953 78.4455 174.551 78.4054C174.407 78.3927 174.262 78.4099 174.125 78.4559C173.987 78.5018 173.861 78.5755 173.754 78.6724C173.646 78.7693 173.56 78.8873 173.5 79.0191C173.44 79.1508 173.408 79.2935 173.406 79.4381C173.406 81.2075 177.941 80.7997 177.941 84.1543C177.908 85.996 176.467 87.1274 174.65 87.1274C173.949 87.1599 173.249 87.0268 172.609 86.7388C171.969 86.4508 171.405 86.0161 170.964 85.4698L172.412 84.128Z" fill="black"/>
<path d="M0.223877 91.2319H8.35876V93.0539H5.29831V101.144H3.28433V93.0539H0.223877V91.2319Z" fill="black"/>
<path d="M10.1357 91.2319H15.9144V92.9421H12.1431V95.2377H15.3484V96.9479H12.1431V99.4013H15.9144V101.118H10.1357V91.2319Z" fill="black"/>
<path d="M18.2507 91.2319H21.2849C23.47 91.2319 24.8126 92.3501 24.8126 94.1919C24.8376 94.7311 24.6996 95.2653 24.4168 95.7252C24.1339 96.185 23.7191 96.5492 23.2264 96.7703L26.3461 101.164H23.9373L21.3046 97.1518H20.2647V101.164H18.2507V91.2319ZM20.2647 92.9421V95.4548H21.4033C21.5739 95.4672 21.7451 95.4443 21.9064 95.3877C22.0677 95.331 22.2156 95.2417 22.3408 95.1253C22.466 95.009 22.5659 94.8681 22.6341 94.7114C22.7024 94.5548 22.7377 94.3858 22.7377 94.2149C22.7377 94.044 22.7024 93.875 22.6341 93.7183C22.5659 93.5617 22.466 93.4208 22.3408 93.3044C22.2156 93.1881 22.0677 93.0988 21.9064 93.0421C21.7451 92.9854 21.5739 92.9626 21.4033 92.975L20.2647 92.9421Z" fill="black"/>
<path d="M27.5835 91.2319H30.611C32.7961 91.2319 34.1454 92.3501 34.1454 94.1919C34.17 94.7302 34.0327 95.2635 33.7511 95.7231C33.4696 96.1827 33.0567 96.5474 32.5658 96.7703L35.6855 101.164H33.2766L30.644 97.1518H29.6041V101.164H27.5835V91.2319ZM29.558 92.9421V95.4548H30.7427C30.9132 95.4672 31.0844 95.4443 31.2457 95.3877C31.407 95.331 31.5549 95.2417 31.6801 95.1253C31.8053 95.009 31.9052 94.8681 31.9735 94.7114C32.0418 94.5548 32.077 94.3858 32.077 94.2149C32.077 94.044 32.0418 93.875 31.9735 93.7183C31.9052 93.5617 31.8053 93.4208 31.6801 93.3044C31.5549 93.1881 31.407 93.0988 31.2457 93.0421C31.0844 92.9854 30.9132 92.9626 30.7427 92.975L29.558 92.9421Z" fill="black"/>
<path d="M36.936 91.2319H38.9434V101.144H36.936V91.2319Z" fill="black"/>
<path d="M40.7007 91.2319H48.8422V93.0539H45.7751V101.144H43.8006V93.0539H40.7007V91.2319Z" fill="black"/>
<path d="M59.8336 96.1848C59.8336 97.2256 59.5248 98.243 58.9462 99.1083C58.3677 99.9737 57.5453 100.648 56.5832 101.046C55.6211 101.445 54.5624 101.549 53.5411 101.346C52.5197 101.143 51.5815 100.642 50.8452 99.9057C50.1088 99.1698 49.6073 98.2322 49.4042 97.2114C49.201 96.1907 49.3053 95.1326 49.7038 94.1711C50.1023 93.2096 50.7772 92.3878 51.643 91.8095C52.5089 91.2313 53.5269 90.9227 54.5683 90.9227C55.2637 90.9084 55.9548 91.0347 56.6001 91.2941C57.2454 91.5534 57.8315 91.9405 58.3233 92.432C58.8152 92.9236 59.2025 93.5094 59.462 94.1543C59.7215 94.7992 59.8479 95.4899 59.8336 96.1848ZM57.7604 96.1848C57.7282 95.56 57.5132 94.9584 57.1422 94.4545C56.7711 93.9506 56.2603 93.5666 55.673 93.3501C55.0856 93.1336 54.4477 93.0941 53.8381 93.2364C53.2285 93.3788 52.6741 93.6968 52.2436 94.151C51.8131 94.6052 51.5255 95.1757 51.4163 95.7918C51.3071 96.4078 51.3812 97.0423 51.6294 97.6167C51.8776 98.191 52.2889 98.68 52.8125 99.0229C53.3361 99.3659 53.9489 99.5478 54.5749 99.546C55.0088 99.5466 55.4384 99.4588 55.8373 99.2879C56.2361 99.117 56.596 98.8666 56.8947 98.552C57.1935 98.2374 57.4249 97.8653 57.5749 97.4582C57.7249 97.0512 57.7902 96.6179 57.7669 96.1848H57.7604Z" fill="black"/>
<path d="M61.762 91.2319H64.7961C66.9812 91.2319 68.3238 92.3501 68.3238 94.1919C68.3448 94.7278 68.205 95.2577 67.9223 95.7137C67.6397 96.1696 67.2272 96.5307 66.7377 96.7506L69.8574 101.144H67.4485L64.8158 97.1321H63.7825V101.144H61.7686L61.762 91.2319ZM63.7759 92.9421V95.4548H64.908C65.0785 95.4672 65.2498 95.4444 65.411 95.3877C65.5723 95.331 65.7202 95.2417 65.8454 95.1253C65.9706 95.009 66.0705 94.8681 66.1388 94.7114C66.2071 94.5548 66.2423 94.3858 66.2423 94.2149C66.2423 94.044 66.2071 93.875 66.1388 93.7183C66.0705 93.5617 65.9706 93.4208 65.8454 93.3044C65.7202 93.1881 65.5723 93.0988 65.411 93.0421C65.2498 92.9854 65.0785 92.9626 64.908 92.975L63.7759 92.9421Z" fill="black"/>
<path d="M71.1079 91.2319H73.1153V101.144H71.1079V91.2319Z" fill="black"/>
<path d="M78.4068 91.2319H81.0395L84.7976 101.144H82.6585L81.7042 98.566H77.7552L76.8075 101.144H74.6685L78.4068 91.2319ZM81.079 96.8492L79.7231 93.1263L78.3607 96.8492H81.079Z" fill="black"/>
<path d="M86.3247 91.2319H88.3386V99.3158H92.0836V101.144H86.2983L86.3247 91.2319Z" fill="black"/>
<path d="M93.8804 91.2319H99.6656V92.9421H95.8943V95.2377H99.093V96.9479H95.8943V99.4013H99.6656V101.118H93.8804V91.2319Z" fill="black"/>
<path d="M102.568 98.4212C102.817 98.7793 103.144 99.0757 103.525 99.2878C103.906 99.4999 104.331 99.6219 104.766 99.6446C104.929 99.6667 105.094 99.6531 105.25 99.6049C105.407 99.5567 105.551 99.4749 105.672 99.3653C105.794 99.2557 105.89 99.1209 105.954 98.9704C106.018 98.8198 106.049 98.657 106.043 98.4935C106.043 96.7241 101.508 97.1188 101.508 93.8234C101.519 93.4233 101.611 93.0295 101.777 92.6657C101.944 92.3018 102.183 91.9755 102.479 91.7064C102.776 91.4372 103.124 91.2308 103.502 91.0995C103.88 90.9682 104.281 90.9147 104.681 90.9424C105.349 90.939 106.008 91.0883 106.61 91.379C107.211 91.6698 107.738 92.0942 108.149 92.6197L106.682 93.9352C106.469 93.5915 106.181 93.3012 105.839 93.0867C105.496 92.8723 105.109 92.7395 104.707 92.6986C104.562 92.6859 104.417 92.7033 104.279 92.7496C104.141 92.7959 104.015 92.8703 103.907 92.9679C103.799 93.0655 103.713 93.1843 103.654 93.3168C103.594 93.4493 103.563 93.5927 103.562 93.7379C103.562 95.5073 108.097 95.0929 108.097 98.454C108.064 100.296 106.622 101.427 104.806 101.427C104.105 101.458 103.406 101.324 102.766 101.036C102.126 100.749 101.562 100.315 101.12 99.7696L102.568 98.4212Z" fill="black"/>
<path d="M33.5071 128.58C33.777 128.58 34.0139 128.784 33.8889 129.303L32.6384 129.593C32.8556 129.007 33.2176 128.58 33.5071 128.58ZM34.1653 130.592H33.9218C33.8111 130.762 33.6671 130.908 33.4986 131.021C33.3301 131.134 33.1405 131.212 32.9411 131.25C32.5989 131.25 32.4212 131.046 32.4212 130.592C32.421 130.407 32.4409 130.221 32.4804 130.04L34.4944 129.382C34.8893 128.448 34.4154 128.067 33.8362 128.067C32.8819 128.067 31.7959 129.658 31.7959 131.059C31.7959 131.684 32.0987 132.026 32.566 132.026C33.0333 132.026 33.6783 131.494 34.139 130.619L34.1653 130.592ZM33.7441 127.698L35.1591 126.383V126.231H34.4746L33.5993 127.685L33.7441 127.698ZM29.3936 128.626H30.0518L28.9922 131.526C28.9655 131.578 28.9522 131.635 28.9535 131.692C28.9547 131.75 28.9705 131.806 28.9994 131.856C29.0283 131.906 29.0693 131.948 29.1187 131.977C29.168 132.007 29.2241 132.024 29.2817 132.026C29.6954 131.972 30.0885 131.813 30.4245 131.566C30.7605 131.319 31.0285 130.991 31.2036 130.612H31.0127C30.6794 130.969 30.2533 131.227 29.7819 131.355L30.8745 128.599H31.8683L31.9934 128.185H30.9995L31.3681 127.139H30.9864L30.3282 128.185L29.5055 128.303L29.3936 128.626ZM28.4919 128.488C28.5108 128.444 28.5191 128.397 28.5164 128.35C28.5137 128.303 28.5 128.257 28.4763 128.216C28.4526 128.175 28.4197 128.14 28.3801 128.114C28.3405 128.088 28.2954 128.072 28.2484 128.067C27.8978 128.11 27.5666 128.252 27.2929 128.475C27.0193 128.699 26.8144 128.995 26.7017 129.33H26.8926C27.0765 129.033 27.3618 128.813 27.6956 128.711L26.5833 131.599C26.5615 131.642 26.5508 131.691 26.5521 131.739C26.5535 131.788 26.5667 131.835 26.5908 131.878C26.6149 131.92 26.649 131.956 26.6902 131.981C26.7313 132.007 26.7783 132.023 26.8268 132.026C27.1661 131.975 27.484 131.829 27.7446 131.606C28.0052 131.382 28.198 131.091 28.3011 130.763H28.1102C27.925 131.059 27.6402 131.278 27.3073 131.382L28.4919 128.488ZM28.696 127.034C28.7633 127.042 28.8316 127.035 28.8963 127.015C28.961 126.995 29.0207 126.961 29.0714 126.916C29.1221 126.871 29.1626 126.816 29.1904 126.754C29.2182 126.692 29.2326 126.625 29.2326 126.557C29.2326 126.489 29.2182 126.422 29.1904 126.36C29.1626 126.299 29.1221 126.243 29.0714 126.198C29.0207 126.153 28.961 126.119 28.8963 126.099C28.8316 126.079 28.7633 126.072 28.696 126.08C28.6286 126.072 28.5603 126.079 28.4956 126.099C28.4309 126.119 28.3713 126.153 28.3206 126.198C28.2699 126.243 28.2293 126.299 28.2015 126.36C28.1737 126.422 28.1594 126.489 28.1594 126.557C28.1594 126.625 28.1737 126.692 28.2015 126.754C28.2293 126.816 28.2699 126.871 28.3206 126.916C28.3713 126.961 28.4309 126.995 28.4956 127.015C28.5603 127.035 28.6286 127.042 28.696 127.034ZM22.2855 131.487C22.1407 131.816 22.2855 132.026 22.6146 132.026C22.812 132.026 22.8976 131.974 22.9765 131.763L23.7466 129.718C24.1056 129.285 24.5875 128.97 25.1287 128.816C25.3393 128.816 25.313 128.994 25.1748 129.251L23.9901 131.526C23.9615 131.577 23.9467 131.635 23.947 131.693C23.9474 131.751 23.963 131.809 23.9922 131.859C24.0214 131.909 24.0633 131.951 24.1137 131.981C24.1642 132.01 24.2214 132.026 24.2797 132.026C24.6304 131.983 24.9616 131.841 25.2352 131.618C25.5089 131.394 25.7138 131.098 25.8264 130.763H25.6355C25.4516 131.06 25.1663 131.28 24.8326 131.382L25.8461 129.33C25.9643 129.11 26.0317 128.868 26.0436 128.619C26.0515 128.546 26.0433 128.473 26.0196 128.403C25.9959 128.334 25.9572 128.271 25.9064 128.218C25.8555 128.166 25.7937 128.125 25.7253 128.098C25.6569 128.072 25.5835 128.061 25.5105 128.067C25.0037 128.067 24.4969 128.639 23.8914 129.336V128.797C23.8914 128.409 23.7663 128.067 23.4175 128.067C23.2003 128.067 22.9897 128.257 22.7594 128.527V128.599C23.1411 128.599 23.3056 129.145 23.0358 129.744L22.2855 131.487ZM22.2855 128.955C22.4237 128.481 22.3513 128.067 21.9827 128.067C21.6142 128.067 21.4496 128.396 21.0086 129.336V128.797C21.0086 128.409 20.8902 128.067 20.5413 128.067C20.1925 128.067 19.7581 128.724 19.4751 129.33H19.666C19.8634 129.04 20.0411 128.876 20.1859 128.876C20.3307 128.876 20.4558 129.145 20.1859 129.744L19.4027 131.487C19.2579 131.816 19.4027 132.026 19.7318 132.026C19.9293 132.026 20.0148 131.974 20.0938 131.763L20.8638 129.718C21.081 129.448 21.2785 129.218 21.522 128.955H22.2855ZM17.8166 128.606C18.0864 128.606 18.3168 128.81 18.1983 129.33L16.9478 129.619C17.165 129.034 17.527 128.606 17.8166 128.606ZM18.5076 130.619H18.2641C18.1526 130.789 18.0077 130.936 17.838 131.049C17.6683 131.162 17.4774 131.239 17.2769 131.277C16.9346 131.277 16.7635 131.073 16.7635 130.619C16.7633 130.433 16.7832 130.248 16.8227 130.066L18.8367 129.408C19.2316 128.474 18.7577 128.093 18.1785 128.093C17.2242 128.093 16.1382 129.685 16.1382 131.086C16.1382 131.711 16.441 132.053 16.9017 132.053C17.3624 132.053 18.014 131.52 18.4813 130.645L18.5076 130.619ZM13.7294 128.672H14.3875L13.4332 131.5C13.4046 131.551 13.3897 131.608 13.3901 131.667C13.3905 131.725 13.406 131.782 13.4353 131.833C13.4645 131.883 13.5064 131.925 13.5568 131.954C13.6072 131.984 13.6644 132 13.7228 132C14.1364 131.945 14.5296 131.787 14.8656 131.54C15.2016 131.293 15.4696 130.964 15.6446 130.586H15.4538C15.1205 130.943 14.6943 131.2 14.223 131.329L15.1971 128.599H16.1975L16.3225 128.185H15.355L15.7236 127.139H15.3353L14.6771 128.185L13.8544 128.303L13.7294 128.672ZM10.0568 130.934C10.0568 130.04 11.0572 128.83 11.6167 128.83C11.7319 128.829 11.8469 128.842 11.9589 128.869L11.3731 130.421C11.0441 130.829 10.5241 131.323 10.2872 131.323C10.0502 131.323 10.0568 131.204 10.0568 130.934ZM13.1239 127.948H12.8145L12.4723 128.277H12.3999C10.7413 128.277 9.3131 130.139 9.3131 131.494C9.3062 131.573 9.31673 131.654 9.34396 131.729C9.37119 131.804 9.41448 131.873 9.47082 131.93C9.52716 131.987 9.59521 132.031 9.67025 132.059C9.7453 132.087 9.82555 132.098 9.90545 132.092C10.3333 132.092 10.7545 131.48 11.2218 130.823V131.059C11.1625 131.717 11.3666 132.092 11.7154 132.092C12.0642 132.092 12.492 131.434 12.7816 130.829H12.5907C12.3933 131.112 12.209 131.283 12.0642 131.283C11.9194 131.283 11.801 131.007 12.0642 130.415L13.1239 127.948ZM9.58953 129.001C9.72774 128.527 9.65534 128.113 9.28677 128.113C8.9182 128.113 8.74708 128.442 8.31269 129.382V128.843C8.31269 128.455 8.18764 128.113 7.83882 128.113C7.48999 128.113 7.06218 128.77 6.77917 129.376H6.97004C7.16749 129.086 7.34519 128.922 7.48999 128.922C7.63479 128.922 7.75984 129.191 7.48999 129.79L6.70678 131.533C6.56198 131.862 6.70678 132.072 7.03586 132.072C7.11827 132.082 7.20138 132.061 7.26851 132.012C7.33563 131.963 7.38183 131.891 7.39785 131.809L8.1679 129.764C8.38509 129.494 8.58254 129.264 8.82606 129.001H9.58953ZM4.01489 131.921L4.08729 131.697C3.11979 131.52 2.99474 131.52 3.38306 130.461L3.77796 129.382H4.84418C5.32464 129.382 5.33122 129.573 5.25882 130.099H5.53525L6.19341 128.349H5.91698C5.68004 128.764 5.48918 129.066 4.96265 129.066H3.90959L4.46903 127.534C4.64673 127.047 4.74545 126.942 5.40361 126.942H5.87091C6.52907 126.942 6.62122 127.126 6.62122 127.81H6.89106L7.12142 126.62H3.10663L3.03423 126.843C3.81086 127.001 3.88326 127.073 3.52127 128.08L2.64592 130.461C2.28393 131.461 2.12597 131.54 1.23745 131.697L1.17163 131.921H4.01489Z" fill="black"/>
<path d="M23.7926 119.496C24.0558 119.496 24.2928 119.7 24.1677 120.213L22.9172 120.502C23.1344 119.923 23.4964 119.496 23.7926 119.496ZM24.4836 121.509H24.2335C24.1228 121.679 23.9789 121.824 23.8103 121.937C23.6418 122.05 23.4522 122.128 23.2529 122.166C22.9106 122.166 22.7329 121.962 22.7329 121.509C22.7353 121.323 22.7551 121.138 22.7922 120.956L24.8061 120.298C25.201 119.371 24.7271 118.983 24.148 118.983C23.1936 118.983 22.1142 120.575 22.1142 121.969C22.1142 122.594 22.4104 122.936 22.8777 122.936C23.345 122.936 23.99 122.403 24.4573 121.535L24.4836 121.509ZM24.0558 118.614L25.4709 117.299V117.148H24.7337L23.865 118.628L24.0558 118.614ZM19.7054 119.542H20.3635L19.3368 122.423C19.3098 122.473 19.2962 122.53 19.2973 122.588C19.2985 122.645 19.3144 122.701 19.3434 122.751C19.3725 122.8 19.4137 122.841 19.4633 122.87C19.5128 122.899 19.569 122.915 19.6264 122.916C20.0394 122.862 20.432 122.705 20.768 122.459C21.1039 122.213 21.3723 121.886 21.5482 121.509H21.3574C21.0251 121.862 20.6014 122.117 20.1332 122.245L21.1073 119.522H22.1011L22.2261 119.108H21.2586L21.6272 118.062H21.2455L20.5544 119.134L19.7317 119.252L19.7054 119.542ZM18.8037 119.404C18.824 119.36 18.8336 119.313 18.8316 119.265C18.8296 119.218 18.816 119.171 18.7921 119.13C18.7682 119.088 18.7346 119.053 18.6942 119.028C18.6538 119.002 18.6078 118.987 18.5602 118.983C18.2202 119.03 17.8997 119.169 17.6338 119.386C17.3679 119.603 17.167 119.889 17.053 120.213H17.2438C17.4295 119.918 17.7142 119.699 18.0468 119.594L16.9345 122.489C16.9125 122.532 16.9015 122.58 16.9028 122.628C16.904 122.676 16.9173 122.724 16.9416 122.765C16.9658 122.807 17.0001 122.842 17.0414 122.868C17.0827 122.893 17.1297 122.907 17.178 122.91C17.5165 122.858 17.8339 122.714 18.0945 122.492C18.355 122.27 18.5482 121.979 18.6523 121.653H18.4614C18.2758 121.948 17.9911 122.167 17.6585 122.272L18.8037 119.404ZM19.0077 117.95C19.1027 117.95 19.1956 117.922 19.2746 117.869C19.3537 117.816 19.4152 117.741 19.4516 117.654C19.488 117.566 19.4975 117.469 19.4789 117.376C19.4604 117.283 19.4146 117.198 19.3475 117.13C19.2803 117.063 19.1947 117.017 19.1015 116.999C19.0083 116.98 18.9116 116.99 18.8239 117.026C18.7361 117.063 18.661 117.124 18.6082 117.203C18.5554 117.282 18.5273 117.375 18.5273 117.47C18.5273 117.597 18.5779 117.719 18.668 117.809C18.7581 117.899 18.8803 117.95 19.0077 117.95ZM15.1377 122.298L17.1649 116.983L17.099 116.904L15.8288 117.049V117.161L16.0723 117.352C16.3027 117.523 16.2303 117.694 16.0262 118.233L14.4664 122.423C14.4373 122.473 14.4221 122.53 14.4223 122.588C14.4225 122.647 14.4381 122.704 14.4675 122.754C14.497 122.804 14.5392 122.845 14.5898 122.874C14.6405 122.902 14.6978 122.917 14.756 122.916C15.0967 122.871 15.4171 122.728 15.6787 122.506C15.9403 122.283 16.1318 121.989 16.2303 121.66H16.046C15.8287 121.958 15.5185 122.175 15.1641 122.278L15.1377 122.298ZM11.3072 121.765C11.3072 120.871 12.3076 119.654 12.8671 119.654C12.9828 119.652 13.0981 119.667 13.2093 119.7L12.6235 121.245C12.2879 121.653 11.7745 122.147 11.531 122.147C11.3928 122.147 11.3072 122.035 11.3072 121.765ZM14.3677 118.772H14.0649L13.7227 119.108H13.6503C11.9917 119.108 10.5569 120.969 10.5569 122.318C10.5499 122.398 10.5605 122.479 10.5882 122.555C10.6158 122.631 10.6597 122.699 10.7167 122.756C10.7738 122.814 10.8427 122.857 10.9186 122.885C10.9944 122.913 11.0754 122.923 11.1558 122.916C11.5836 122.916 12.0049 122.304 12.4722 121.653V121.883C12.4129 122.541 12.617 122.916 12.9658 122.916C13.3146 122.916 13.7424 122.258 14.0254 121.66H13.828C13.6305 121.943 13.4462 122.107 13.3015 122.107C13.1567 122.107 13.0382 121.831 13.3015 121.245L14.3677 118.772ZM6.96335 123.6C6.96335 123.219 7.3385 122.975 7.86503 122.765C8.1225 122.88 8.38617 122.981 8.65483 123.067C9.20768 123.245 9.41829 123.317 9.41829 123.488C9.41829 123.844 8.81278 124.146 7.99008 124.146C7.33192 124.146 6.96335 124.001 6.96335 123.633V123.6ZM8.49687 121.265C8.25993 121.265 8.1612 121.061 8.1612 120.831C8.1612 120.173 8.51003 119.233 9.0563 119.233C9.29982 119.233 9.39197 119.437 9.39197 119.667C9.39197 120.325 9.04314 121.265 8.49687 121.265ZM10.0765 123.238C10.0765 122.771 9.66181 122.581 8.98391 122.403C8.306 122.226 8.14146 122.179 8.14146 121.989C8.15746 121.886 8.1998 121.789 8.26437 121.707C8.32894 121.625 8.41356 121.561 8.51003 121.522C8.92666 121.493 9.31785 121.311 9.60827 121.011C9.89868 120.711 10.0678 120.314 10.083 119.897C10.0854 119.759 10.0585 119.622 10.0041 119.496H10.8136L10.9321 119.081H9.62891C9.47186 118.987 9.29217 118.937 9.10896 118.937C8.67935 118.943 8.26818 119.112 7.95892 119.41C7.64966 119.708 7.4655 120.113 7.44381 120.542C7.43229 120.769 7.50417 120.993 7.64595 121.171C7.78774 121.349 7.98968 121.469 8.21386 121.509C7.74656 121.719 7.4833 121.969 7.4833 122.258C7.48111 122.335 7.49799 122.412 7.53244 122.481C7.56689 122.549 7.61783 122.609 7.68074 122.653C6.58819 122.969 6.16039 123.311 6.16039 123.85C6.16039 124.39 6.81855 124.561 7.60835 124.561C8.92467 124.561 10.0501 123.844 10.0501 123.245L10.0765 123.238ZM4.96253 120.134C5.44299 120.134 5.44957 120.331 5.37718 120.857H5.6536L6.31177 119.101H6.03534C5.79182 119.516 5.60095 119.825 5.081 119.825H4.02794L4.55447 118.358C4.73218 117.871 4.8309 117.779 5.48906 117.779H5.95636C6.61452 117.779 6.70666 117.963 6.70666 118.634H6.97651L7.20687 117.444H3.19208L3.11968 117.667C3.89631 117.832 3.96871 117.904 3.60672 118.904L2.73136 121.292C2.36938 122.285 2.21141 122.364 1.3229 122.528L1.25708 122.752H5.71942L6.52238 121.502H6.21304C5.95178 121.785 5.63689 122.013 5.28664 122.174C4.93639 122.334 4.55777 122.423 4.17274 122.436C2.98805 122.436 3.09335 122.39 3.51458 121.305L3.9358 120.147L4.96253 120.134ZM5.5483 117.088L6.96335 116.115V115.964H6.10774L5.32452 117.088H5.5483Z" fill="black"/>
<path d="M23.3187 110.406C23.5885 110.406 23.8189 110.61 23.6938 111.129L22.4433 111.419C22.6605 110.833 23.0291 110.406 23.3187 110.406ZM23.9768 112.418H23.7267C23.6172 112.589 23.4736 112.736 23.3049 112.849C23.1362 112.962 22.9459 113.04 22.7461 113.076C22.4038 113.076 22.2261 112.872 22.2261 112.418C22.2419 112.243 22.2728 112.069 22.3183 111.899L24.3322 111.241C24.7271 110.307 24.2533 109.926 23.6741 109.926C22.7263 109.926 21.6404 111.517 21.6404 112.918C21.6404 113.543 21.9365 113.885 22.4038 113.885C22.8711 113.885 23.5161 113.352 23.9834 112.478L23.9768 112.418ZM23.6346 109.498L25.0496 108.182V108.031H24.2928L23.424 109.505L23.6346 109.498ZM19.4684 110.432H19.995L18.9353 113.326C18.9087 113.377 18.8953 113.434 18.8966 113.492C18.8979 113.549 18.9137 113.606 18.9426 113.656C18.9715 113.706 19.0125 113.747 19.0619 113.777C19.1112 113.807 19.1673 113.824 19.2249 113.826C19.6386 113.771 20.0317 113.613 20.3677 113.366C20.7037 113.119 20.9717 112.79 21.1467 112.412H20.9559C20.6118 112.775 20.1711 113.033 19.6856 113.155L20.6663 110.432H21.6601L21.7852 110.018H20.8308L21.1994 108.965H20.8177L20.1595 110.018L19.5013 110.129L19.4684 110.432ZM18.9419 110.754C19.0801 110.281 19.0077 109.866 18.6457 109.866C18.2837 109.866 18.106 110.195 17.6716 111.136V110.583C17.6716 110.195 17.5466 109.853 17.1978 109.853C16.8489 109.853 16.4211 110.511 16.1381 111.116H16.3224C16.5199 110.833 16.7041 110.662 16.8489 110.662C16.9937 110.662 17.1188 110.932 16.8489 111.53L16.0592 113.274C15.9144 113.602 16.0592 113.813 16.3882 113.813C16.5857 113.813 16.6712 113.76 16.7502 113.55L17.5269 111.504C17.744 111.234 17.9415 111.004 18.185 110.741L18.9419 110.754ZM14.4796 110.406C14.7428 110.406 14.9798 110.61 14.8547 111.129L13.6042 111.419C13.8214 110.833 14.1834 110.406 14.4796 110.406ZM15.1706 112.418H14.9205C14.8104 112.589 14.6666 112.735 14.498 112.848C14.3294 112.961 14.1395 113.039 13.9399 113.076C13.5976 113.076 13.4199 112.872 13.4199 112.418C13.423 112.233 13.4428 112.048 13.4792 111.866L15.4931 111.208C15.888 110.274 15.4142 109.893 14.835 109.893C13.8806 109.893 12.8012 111.484 12.8012 112.885C12.8012 113.51 13.0974 113.852 13.5647 113.852C14.032 113.852 14.677 113.32 15.1443 112.445L15.1706 112.418ZM10.2015 113.214C10.0041 113.214 9.72105 113.03 9.72105 112.872C9.77159 112.681 9.83762 112.494 9.9185 112.313L10.2476 111.452C10.5964 111.037 11.1229 110.59 11.4257 110.59C11.6034 110.59 11.7416 110.708 11.7416 110.978C11.7416 111.767 11.0045 113.214 10.2015 113.214ZM12.4919 110.656C12.4919 110.07 12.2747 109.847 11.8337 109.847C11.3928 109.847 10.8465 110.386 10.366 111.044L11.5836 107.847L11.5178 107.768L10.2739 107.952V108.11L10.524 108.294C10.7478 108.472 10.6754 108.656 10.4714 109.176L9.15503 112.557C9.06785 112.757 8.99741 112.963 8.94442 113.175C8.94442 113.523 9.41829 113.833 9.8461 113.833C10.8333 113.833 12.4787 112.05 12.4787 110.682L12.4919 110.656ZM8.52977 110.3C8.54983 110.257 8.5594 110.21 8.55769 110.162C8.55599 110.115 8.54307 110.068 8.51998 110.027C8.49689 109.985 8.46428 109.949 8.42481 109.923C8.38534 109.896 8.34012 109.879 8.29283 109.873C7.941 109.915 7.60838 110.056 7.33348 110.28C7.05858 110.503 6.85267 110.8 6.73957 111.136H6.93044C7.11687 110.839 7.40437 110.619 7.73998 110.518L6.62768 113.412C6.6058 113.454 6.59481 113.502 6.59571 113.549C6.59662 113.597 6.60938 113.644 6.63285 113.686C6.65633 113.728 6.68979 113.763 6.73024 113.788C6.77069 113.814 6.81686 113.829 6.86462 113.833C7.20667 113.781 7.52714 113.634 7.78914 113.408C8.05113 113.182 8.24399 112.887 8.34549 112.557H8.1612C7.97346 112.852 7.68646 113.071 7.35166 113.175L8.52977 110.3ZM8.7338 108.84C8.8601 108.84 8.98132 108.791 9.07123 108.702C9.16115 108.613 9.21253 108.493 9.21426 108.367C9.21426 108.239 9.16364 108.117 9.07354 108.027C8.98343 107.937 8.86123 107.886 8.7338 107.886C8.60638 107.886 8.48417 107.937 8.39407 108.027C8.30396 108.117 8.25335 108.239 8.25335 108.367C8.25334 108.429 8.26581 108.492 8.29004 108.549C8.31426 108.607 8.34976 108.66 8.39446 108.704C8.43916 108.748 8.49218 108.783 8.55044 108.806C8.60869 108.829 8.67102 108.841 8.7338 108.84ZM5.80498 108.38H3.17233L3.09993 108.603C3.88315 108.761 3.95555 108.834 3.58698 109.84L2.73136 112.221C2.36938 113.221 2.21141 113.3 1.3229 113.458L1.25708 113.688H5.27187L6.14064 112.129H5.86422C5.37059 112.675 4.78483 113.359 3.88973 113.359C3.23157 113.359 3.13284 113.241 3.49483 112.221L4.35044 109.84C4.70585 108.84 4.87039 108.761 5.76549 108.603L5.80498 108.38Z" fill="black"/>
<path d="M16.6119 11.1688C16.4737 11.3201 16.3289 11.4714 16.1907 11.6095C15.7956 11.8919 15.3694 12.1281 14.9204 12.3133C14.3611 12.5449 13.8218 12.8221 13.3079 13.1421H1.17798V-0.0131836H18.2902C18.2902 -0.0131836 17.9809 0.0854807 17.632 0.236766C17.3431 0.343847 17.0822 0.514729 16.8686 0.736667C16.6506 0.966485 16.4885 1.2433 16.3947 1.54572C16.102 1.74791 15.8662 2.022 15.7102 2.34161C15.4214 2.70597 15.2473 3.14778 15.21 3.61109C15.2627 4.00575 15.3614 4.38068 15.4338 4.80165C15.4573 4.94617 15.4902 5.08899 15.5325 5.22919C15.6115 5.3739 15.5654 5.60412 15.6115 5.67647C15.6575 5.74883 15.6378 5.84749 15.7365 5.90011V5.99878C15.7365 5.99878 15.7365 6.04482 15.7629 6.12375V6.22242C15.9823 6.44923 16.1744 6.70089 16.3355 6.97227C16.3881 7.09724 16.0854 7.01831 15.9603 6.97227C15.7412 6.83311 15.5419 6.66495 15.368 6.47237C15.3628 6.48953 15.3628 6.50782 15.368 6.52499C15.4667 6.696 15.8418 6.91965 15.6378 7.04462C15.5391 7.04462 15.3153 6.99858 15.3153 7.04462V7.19591C15.1705 7.09066 14.9665 7.1104 14.8678 7.09066C14.769 7.07093 14.7427 6.86702 14.6177 6.86702C14.3084 6.78781 13.9939 6.73066 13.6765 6.696C13.2423 6.61687 12.7992 6.59915 12.3602 6.64338C12.1686 6.67942 11.9861 6.75323 11.8234 6.86052C11.6606 6.96781 11.5209 7.10642 11.4124 7.26826V7.34061C11.5901 7.36692 11.6625 7.21564 11.8139 7.1696C12.064 7.11697 12.2878 7.01831 12.5379 6.97227C12.8843 6.87182 13.2433 6.82089 13.6041 6.82098C13.6869 6.80782 13.7713 6.80782 13.8542 6.82098C13.4193 6.82833 12.9892 6.91296 12.5839 7.07093C12.2865 7.12098 11.9953 7.20257 11.7152 7.3143C12.4103 7.3893 13.086 7.58988 13.7094 7.90629C13.9393 7.97977 14.1601 8.07907 14.3675 8.20228C14.442 8.27785 14.5236 8.34613 14.6111 8.40619C14.6786 8.43533 14.7514 8.45036 14.825 8.45036C14.8985 8.45036 14.9713 8.43533 15.0389 8.40619H15.1639C15.54 8.3415 15.892 8.17805 16.1841 7.9326H16.2301C16.1963 8.14505 16.1202 8.34857 16.0064 8.53117C16.0064 8.55748 15.9537 8.62983 16.0064 8.62983C16.0064 8.57721 16.0064 8.62983 16.059 8.62983H16.0064C16.0064 8.68245 16.1051 8.62983 16.1051 8.68245C16.0445 8.68416 15.9848 8.69783 15.9294 8.72266C15.8741 8.7475 15.8242 8.78301 15.7826 8.82716C15.7826 8.82716 15.9011 8.75481 15.855 8.82716C15.8089 8.89951 15.7102 8.85347 15.7102 8.89951H15.7563C15.7414 8.90506 15.7251 8.90506 15.7102 8.89951V8.97187C15.6312 8.97187 15.6049 9.0508 15.5588 9.0508C15.6575 9.12315 15.7299 9.0508 15.8353 9.0508C15.5588 9.14946 15.335 9.30075 15.0586 9.3731C15.0125 9.3731 15.0586 9.44546 15.0125 9.44546C15.0849 9.52439 15.1376 9.44546 15.21 9.44546C14.8612 9.64936 14.5123 9.82038 14.1372 10.044C14.1126 10.0717 14.0966 10.106 14.0911 10.1427H13.9924C13.9134 10.169 13.9661 10.2479 13.9134 10.294C13.9748 10.3295 14.0537 10.3301 14.1212 10.3216C14.1261 10.3088 14.1374 10.294 14.1635 10.294H14.2622C14.2488 10.294 14.1911 10.3127 14.1212 10.3216C14.1174 10.3314 14.1174 10.34 14.1174 10.34H14.0385C13.9924 10.3926 13.9924 10.4913 13.9397 10.4913C13.8871 10.4913 13.8147 10.4913 13.8147 10.5439C14.3768 10.5411 14.9339 10.4387 15.4601 10.2414C15.8708 10.0352 16.241 9.75671 16.5526 9.41915C16.5578 9.43631 16.5578 9.4546 16.5526 9.47177C16.4805 9.70434 16.3321 9.9059 16.1314 10.044C15.98 10.1164 15.8813 10.2414 15.7563 10.294L15.5325 10.4453C14.6111 10.7676 13.5185 10.6163 12.7156 11.2412C12.7156 11.2412 12.7221 11.1951 12.6695 11.2412C12.6168 11.2872 12.5181 11.3661 12.5181 11.3661C12.5281 11.3719 12.5395 11.3749 12.551 11.3749C12.5626 11.3749 12.5739 11.3719 12.5839 11.3661H12.6234C12.7452 11.2823 12.8781 11.2159 13.0183 11.1688L12.9788 11.2017L12.6892 11.3661C12.6211 11.3995 12.5624 11.4493 12.5181 11.5108C12.5229 11.5175 12.5255 11.5256 12.5255 11.5339C12.5255 11.5421 12.5229 11.5502 12.5181 11.5569C12.5147 11.572 12.5147 11.5878 12.5181 11.6029C12.5201 11.6204 12.5201 11.6381 12.5181 11.6555V11.6884H12.5576C12.571 11.6895 12.5835 11.6876 12.5952 11.6835C12.6168 11.667 12.6386 11.6508 12.6607 11.6351C12.6923 11.6008 12.721 11.5578 12.7551 11.5306C12.7895 11.4985 12.8269 11.4698 12.8669 11.4451C12.8538 11.4685 12.8384 11.4905 12.8209 11.5108H12.8538C12.7874 11.5492 12.723 11.5906 12.6607 11.6351C12.6407 11.6567 12.6196 11.6749 12.5952 11.6835C12.539 11.7265 12.4848 11.7721 12.4326 11.82V11.8529C12.3937 11.9006 12.3585 11.9512 12.3272 12.0042L12.2483 12.116L12.189 12.2212C12.2149 12.2282 12.2421 12.2282 12.268 12.2212L12.6695 11.8397H12.709C12.8311 11.7157 12.9681 11.6075 13.117 11.5174C13.1825 11.4773 13.2404 11.4261 13.2882 11.3661L13.3277 11.3201C13.4739 11.2368 13.6312 11.1748 13.7949 11.1359C14.0924 11.0652 14.3934 11.0103 14.6966 10.9715C14.9042 10.9973 15.1143 10.9973 15.3219 10.9715C15.4733 10.9386 15.6181 10.8465 15.7694 10.8005V10.8596C16.1314 10.7149 16.4144 10.3861 16.7896 10.2677H16.9146C17.011 10.1502 17.1326 10.056 17.2706 9.99223C17.4085 9.92844 17.5591 9.89667 17.711 9.89931V9.94536L17.4412 10.1493C17.3885 10.2019 17.3161 10.2545 17.4412 10.2019C17.5662 10.1493 17.6386 10.0506 17.7637 10.0046C17.711 10.0309 17.711 10.1032 17.711 10.1032C17.616 10.1691 17.5259 10.2416 17.4412 10.3203C17.1451 10.5833 16.868 10.8668 16.6119 11.1688Z" fill="#000091"/>
<path d="M37.4561 0H23.2661C23.3153 0.011679 23.362 0.0317027 23.4044 0.0591985L23.7598 0.24995C23.9511 0.338374 24.1149 0.477048 24.2336 0.651186C24.2702 0.695497 24.2963 0.747498 24.31 0.803307C24.3237 0.859116 24.3246 0.917291 24.3126 0.97349C24.26 1.09846 24.2336 1.29579 24.1086 1.34842C23.9433 1.41353 23.7628 1.42952 23.5886 1.39446C23.4887 1.38877 23.3895 1.37335 23.2925 1.34842C23.6911 1.47327 24.0408 1.71931 24.2929 2.05222C24.2929 2.09827 24.4179 2.12458 24.5166 2.12458C24.6154 2.12458 24.5166 2.1772 24.5166 2.19693C24.5166 2.21666 24.4179 2.27586 24.4377 2.34822H24.5166C24.6417 2.29559 24.6154 2.05222 24.7865 2.12458C24.8488 2.1617 24.8944 2.22128 24.914 2.29104C24.9336 2.3608 24.9256 2.43542 24.8918 2.4995C24.7865 2.59817 24.6878 2.67052 24.589 2.74945C24.5762 2.77613 24.5695 2.80536 24.5695 2.83496C24.5695 2.86456 24.5762 2.89379 24.589 2.92047C24.6526 3.00841 24.6954 3.10962 24.7141 3.21646C24.7865 3.39406 24.8128 3.59139 24.8918 3.76899C25.0101 4.12976 25.0679 4.50758 25.0629 4.88718C25.0629 5.08451 24.9642 5.26211 25.0629 5.45944C25.1313 5.64429 25.2242 5.81908 25.3393 5.97907C25.4383 6.10657 25.5284 6.24062 25.6092 6.38031C25.7606 6.63026 26.037 6.87363 25.9119 7.1762C25.8396 7.34722 25.5631 7.32091 25.3854 7.42615C25.2077 7.53139 25.3854 7.74846 25.4381 7.87343C25.4907 7.99841 25.2867 8.24178 25.1156 8.32071C25.1616 8.39306 25.267 8.36675 25.2867 8.41937C25.3064 8.472 25.4381 8.6167 25.3657 8.74168C25.2933 8.86665 24.9642 8.96532 25.1156 9.18896C25.1547 9.27465 25.1749 9.36774 25.1749 9.46193C25.1749 9.55612 25.1547 9.64921 25.1156 9.7349C25.0787 9.83004 25.0183 9.9143 24.94 9.97985C24.8618 10.0454 24.7682 10.0901 24.668 10.1098C24.5125 10.1491 24.3497 10.1491 24.1941 10.1098C24.1489 10.0798 24.0969 10.0617 24.0428 10.0572C23.6249 9.97763 23.2031 9.92054 22.7791 9.88619C22.6589 9.90324 22.5416 9.93643 22.4303 9.98485C22.3209 10.0623 22.2195 10.1504 22.1275 10.248L22.0749 10.3072V10.3466C22.0031 10.4366 21.9372 10.5311 21.8774 10.6295V10.6689C21.7972 10.8127 21.7332 10.9649 21.6865 11.1228C21.6063 11.3087 21.5649 11.509 21.5649 11.7115C21.5649 11.9139 21.6063 12.1143 21.6865 12.3002C21.6865 12.3331 22.5027 12.5764 23.0555 12.8198C23.2574 12.9048 23.4531 13.0037 23.6413 13.1158H37.4561V0Z" fill="#E1000F"/>
<path d="M24.1084 4.80174C24.2137 4.80174 24.3585 4.80174 24.3585 4.87409C24.3124 5.078 24.0097 5.12404 23.8649 5.32137H23.7859C23.7135 5.37399 23.7398 5.49897 23.6608 5.49897C23.5885 5.47339 23.5095 5.47339 23.4371 5.49897C23.4826 5.55243 23.5407 5.59368 23.6063 5.61895C23.6718 5.64423 23.7426 5.65272 23.8122 5.64368C23.8122 5.64368 23.8846 5.6963 23.8846 5.74234C23.9018 5.74711 23.92 5.74711 23.9373 5.74234H23.9899V5.84758C23.911 5.94625 23.7859 5.89363 23.6872 5.91994C23.8753 5.96594 24.0717 5.96594 24.2598 5.91994C24.4112 5.86732 24.2598 5.61737 24.3585 5.49897C24.3124 5.49897 24.3585 5.42004 24.3124 5.42004C24.2664 5.42004 24.4112 5.29506 24.4572 5.27533C24.4871 5.27593 24.5166 5.26902 24.543 5.25522C24.5695 5.24143 24.592 5.2212 24.6086 5.1964C24.6086 5.15035 24.5099 5.12404 24.5362 5.07142C24.681 4.97276 24.806 4.82147 24.76 4.67677C24.7139 4.53206 24.5362 4.59783 24.4112 4.55179C24.2734 4.51301 24.1277 4.51301 23.9899 4.55179C23.8675 4.58415 23.7485 4.6282 23.6345 4.68334C23.4628 4.73744 23.3022 4.82212 23.1606 4.93329C23.3371 4.86433 23.5201 4.81364 23.7069 4.78201C23.841 4.77064 23.9761 4.77728 24.1084 4.80174Z" fill="#9D9D9C"/>
</g>
<defs>
<clipPath id="clip0">
<rect width="178" height="132" fill="white"/>
</clipPath>
</defs>
</svg>
