<svg width="282" height="150" viewBox="0 0 282 150" fill="none" xmlns="http://www.w3.org/2000/svg">
<rect width="282" height="150" fill="white"/>
<path d="M59.5372 8H24V20.7586H59.5372V8Z" fill="white"/>
<path d="M35.4785 19.2216C35.4828 19.2216 35.4871 19.2153 35.4871 19.2153C35.5218 19.1899 35.5565 19.1583 35.5869 19.1204C35.5826 19.1204 35.5782 19.1204 35.5739 19.114C35.5435 19.1457 35.5088 19.1836 35.4785 19.2216Z" fill="#000091"/>
<path d="M40.2331 17.6389L40.1571 17.7034C40.2005 17.6927 40.2331 17.6819 40.2331 17.6389Z" fill="#000091"/>
<path fill-rule="evenodd" clip-rule="evenodd" d="M38.6953 19.2544C38.833 19.1177 38.9706 18.9727 39.1083 18.8235H39.1042C39.3628 18.5335 39.6132 18.2558 39.9136 18.003C40.0054 17.9201 40.093 17.8497 40.1765 17.7917C40.1887 17.7795 40.195 17.7614 40.2011 17.7436C40.2075 17.7251 40.2138 17.7069 40.2265 17.6964C40.1671 17.7188 40.1197 17.7542 40.072 17.7899C40.0227 17.8268 39.9731 17.8638 39.9095 17.887C39.8844 17.887 39.8594 17.8622 39.8844 17.8373C39.972 17.7751 40.0596 17.7088 40.1431 17.6425H40.1264C40.1014 17.6425 40.1014 17.6176 40.1014 17.5928C39.7908 17.5441 39.5522 17.7538 39.3386 17.9416L39.3253 17.9533C39.292 17.9698 39.2606 17.9534 39.2359 17.9406C39.2235 17.9341 39.2128 17.9284 39.2043 17.9284C39.0154 17.991 38.8524 18.1063 38.6884 18.2224C38.5373 18.3293 38.3853 18.4369 38.2113 18.5044V18.4547C38.1522 18.4748 38.0938 18.501 38.0352 18.5273C37.9491 18.5661 37.8626 18.6048 37.7732 18.6246C37.6099 18.662 37.4584 18.6572 37.3116 18.6525C37.2634 18.651 37.2156 18.6494 37.1681 18.6494C36.901 18.6756 36.6371 18.7321 36.3736 18.7886L36.2878 18.8069C36.2836 18.809 36.2794 18.81 36.2752 18.8111C36.2711 18.8121 36.2669 18.8131 36.2628 18.8152C36.1042 18.8566 35.9582 18.9147 35.8121 18.9975L35.7954 19.0058C35.7897 19.0134 35.784 19.0201 35.7786 19.0264C35.7723 19.0338 35.7666 19.0405 35.762 19.0472C35.712 19.1053 35.6661 19.155 35.5951 19.1923C35.4904 19.2443 35.3999 19.3245 35.3108 19.4035C35.2722 19.4377 35.2337 19.4718 35.1946 19.503C35.1863 19.5113 35.1696 19.5155 35.1571 19.5155C35.0277 19.6398 34.8983 19.7641 34.7649 19.8843C34.7565 19.8926 34.719 19.8967 34.6898 19.8926C34.6898 19.8926 34.6939 19.8926 34.6939 19.8884L34.7064 19.8635L34.7691 19.7641C34.7815 19.7455 34.793 19.7268 34.8045 19.7082C34.816 19.6895 34.8275 19.6709 34.8399 19.6523C34.8733 19.6026 34.9067 19.5527 34.9443 19.5072C34.9526 19.4948 34.9526 19.4824 34.9443 19.4741C34.936 19.4658 34.9234 19.4616 34.9109 19.4616C35.0319 19.3456 35.1737 19.2461 35.3198 19.1591V19.155C35.3031 19.1591 35.2781 19.1467 35.2905 19.1301C35.3028 19.1149 35.3128 19.0975 35.3222 19.0811L35.3323 19.0638C35.3344 19.0597 35.3355 19.0566 35.3365 19.0535C35.3375 19.0504 35.3386 19.0472 35.3406 19.0431C35.3386 19.0389 35.3355 19.0358 35.3323 19.0328C35.3292 19.0296 35.326 19.0265 35.324 19.0224L35.2986 19.0389C35.2684 19.0584 35.2373 19.0785 35.2113 19.1011C35.1929 19.1168 35.1757 19.1383 35.1581 19.1603C35.1198 19.2081 35.0793 19.2586 35.0194 19.2586C35.0152 19.2586 34.9944 19.2586 34.9818 19.2544C34.9693 19.2544 34.961 19.2503 34.9568 19.2461C34.9568 19.2441 34.9568 19.243 34.9573 19.2425C34.9579 19.242 34.9589 19.242 34.961 19.242C34.961 19.242 34.9652 19.2379 34.9652 19.2337C34.9652 19.2337 34.9652 19.2296 34.9693 19.2296C34.9714 19.2254 34.9735 19.2224 34.9756 19.2192C34.9776 19.2161 34.9798 19.213 34.9818 19.2088C34.9839 19.2047 34.986 19.2016 34.9881 19.1985C34.9902 19.1954 34.9922 19.1923 34.9944 19.1882C34.9964 19.1861 34.9975 19.1829 34.9985 19.1799C34.9995 19.1767 35.0006 19.1736 35.0027 19.1716L35.0074 19.163C35.0115 19.1558 35.0165 19.1471 35.0194 19.1384C35.0214 19.1343 35.0236 19.1312 35.0256 19.1281C35.0277 19.1249 35.0298 19.1218 35.0319 19.1177C35.0382 19.1094 35.0433 19.1001 35.0486 19.0907C35.0538 19.0814 35.059 19.0721 35.0652 19.0638C35.0694 19.0555 35.0736 19.0472 35.082 19.0389C35.0861 19.0307 35.0903 19.0234 35.0944 19.0162C35.0986 19.0089 35.1028 19.0017 35.107 18.9934C35.1195 18.9727 35.107 18.9561 35.0903 18.9519C35.1362 18.8939 35.1905 18.8442 35.2572 18.8069H35.2489C35.3064 18.7783 35.3657 18.7448 35.4246 18.7116C35.4593 18.6919 35.4944 18.672 35.5284 18.6536C35.5409 18.6411 35.5535 18.6288 35.5701 18.6205C35.4324 18.666 35.3073 18.7282 35.1863 18.8111C35.1863 18.8111 35.1529 18.8235 35.1445 18.8317C35.1445 18.8317 35.1195 18.84 35.0861 18.8111C35.082 18.8069 35.082 18.8028 35.082 18.7945C35.0964 18.7657 35.1264 18.7466 35.1587 18.726C35.1822 18.711 35.2069 18.6952 35.228 18.6743C35.253 18.6743 35.2739 18.6743 35.2739 18.6992C35.7544 18.3271 36.347 18.2411 36.9415 18.1547C37.3071 18.1016 37.6735 18.0484 38.0152 17.9284C38.0506 17.9036 38.0871 17.8798 38.1236 17.8559C38.1601 17.8321 38.1966 17.8083 38.2321 17.7834C38.293 17.7584 38.3475 17.7156 38.4053 17.6702C38.4623 17.6254 38.5226 17.5781 38.5951 17.5431C38.7871 17.3981 38.9331 17.2323 39.0082 16.9878C39.0082 16.9629 38.9832 16.9381 38.9832 16.9381C38.6661 17.2737 38.3031 17.5389 37.915 17.7337C37.545 17.9265 37.1486 17.955 36.7561 17.9833C36.6087 17.9939 36.4617 18.0045 36.317 18.0237C36.342 17.974 36.3921 17.974 36.438 17.974C36.438 17.9152 36.4666 17.8898 36.5032 17.8574C36.513 17.8487 36.5234 17.8394 36.534 17.829H36.6049C36.6174 17.829 36.6236 17.8165 36.6299 17.8041C36.6362 17.7917 36.6424 17.7793 36.655 17.7793C36.7051 17.7793 36.7759 17.7544 36.7509 17.7544C36.7127 17.7058 36.657 17.7251 36.5957 17.7462C36.5367 17.7667 36.4723 17.7889 36.4129 17.7544C36.435 17.7305 36.4416 17.7018 36.4477 17.6757C36.4542 17.6475 36.46 17.6223 36.4839 17.6093H36.5798C36.5798 17.5597 36.6299 17.514 36.6299 17.514C36.8475 17.3849 37.0576 17.2721 37.2638 17.1614C37.4016 17.0875 37.5377 17.0144 37.673 16.9381C37.6456 16.9381 37.6214 16.9492 37.5978 16.96C37.5603 16.9772 37.5247 16.9935 37.4811 16.9629C37.5061 16.9629 37.5061 16.9453 37.5061 16.9277C37.5061 16.9101 37.5061 16.8925 37.5312 16.8925C37.6877 16.8512 37.827 16.7843 37.9693 16.7159C38.0697 16.6677 38.1717 16.6187 38.2822 16.5776C38.2494 16.5776 38.2191 16.5863 38.1895 16.5948C38.1325 16.6111 38.0783 16.6267 38.0152 16.5776C38.0318 16.5693 38.0451 16.5589 38.0583 16.5485C38.085 16.5275 38.111 16.5071 38.1612 16.5071V16.4367C38.1612 16.4118 38.1862 16.4118 38.2113 16.4118C38.1862 16.4118 38.1612 16.3869 38.1612 16.3869C38.1745 16.3607 38.2006 16.3552 38.2297 16.3492C38.2555 16.3438 38.2837 16.3379 38.3073 16.3165C38.2822 16.3165 38.2363 16.3165 38.2363 16.2916C38.3073 16.1963 38.4282 16.1715 38.5492 16.1466C38.5367 16.1218 38.5127 16.1218 38.4919 16.1218C38.471 16.1218 38.4533 16.1218 38.4533 16.0969C38.4533 16.0721 38.4783 16.0721 38.5034 16.0721H38.4533C38.414 16.0525 38.4209 16.0177 38.4258 15.9936C38.4271 15.987 38.4282 15.9812 38.4282 15.9768C38.5262 15.8627 38.5585 15.7282 38.5905 15.5943C38.6062 15.5288 38.6219 15.4634 38.6452 15.4008C38.6202 15.4008 38.5951 15.4008 38.5951 15.3759C38.3605 15.633 37.9887 15.7304 37.6354 15.8229L37.6021 15.8317H37.4811C37.3601 15.8814 37.189 15.8814 37.0681 15.8068C37.0105 15.777 36.9695 15.7398 36.9251 15.6995C36.8955 15.6727 36.8645 15.6445 36.826 15.6162C36.6299 15.4961 36.438 15.4008 36.221 15.3261C35.616 15.1356 34.986 15.0361 34.356 15.0609C34.5319 14.9654 34.7187 14.9274 34.908 14.8889C35.0061 14.869 35.1047 14.8489 35.2029 14.8206C35.2649 14.8026 35.3263 14.784 35.3873 14.7655C35.7334 14.6608 36.0691 14.5591 36.438 14.5803C36.3897 14.5634 36.3279 14.5695 36.271 14.5751C36.2443 14.5778 36.2186 14.5803 36.196 14.5803C35.9171 14.5598 35.6354 14.6211 35.3414 14.6851C35.2791 14.6986 35.2163 14.7122 35.1529 14.7253C35.0378 14.749 34.9283 14.7829 34.8187 14.817C34.6979 14.8544 34.5768 14.892 34.4477 14.9159C34.3918 14.935 34.3468 14.9674 34.3031 14.9991C34.2326 15.0499 34.1652 15.0986 34.0597 15.0858V15.0112C34.3017 14.7212 34.5938 14.4353 34.9818 14.4104C35.3569 14.3501 35.7106 14.393 36.0795 14.4379C36.1415 14.4454 36.2039 14.453 36.2669 14.4601C36.5694 14.4841 36.8523 14.5507 37.1573 14.6226L37.189 14.63C37.2558 14.63 37.2934 14.688 37.3297 14.7442C37.3593 14.7899 37.388 14.8343 37.431 14.8455C37.4904 14.8657 37.5498 14.8695 37.6093 14.8733C37.6959 14.8787 37.7825 14.8842 37.8691 14.9408C37.8691 14.924 37.8663 14.9078 37.8635 14.8917C37.8579 14.8599 37.8525 14.8287 37.8691 14.7958C37.9229 14.7423 37.9847 14.7566 38.0455 14.7707C38.093 14.7818 38.1399 14.7928 38.182 14.7709C38.3144 14.6898 38.1903 14.5653 38.0661 14.4408C38.0062 14.3807 37.9463 14.3206 37.915 14.2654C37.915 14.2405 37.9401 14.2156 37.9401 14.2156C37.9949 14.2641 38.0459 14.3143 38.0965 14.3641C38.2232 14.4886 38.3471 14.6104 38.52 14.6963C38.6411 14.7461 38.9331 14.8165 38.883 14.6714C38.7974 14.4836 38.6509 14.3207 38.5031 14.1563C38.4422 14.0885 38.3811 14.0205 38.3239 13.9504V13.8551C38.2859 13.8551 38.2768 13.8408 38.2654 13.823C38.2618 13.8174 38.258 13.8114 38.253 13.8054V13.7101C38.1918 13.6784 38.1781 13.6282 38.1643 13.5777C38.1565 13.549 38.1486 13.5202 38.132 13.4946C38.0902 13.4277 38.0872 13.3454 38.0841 13.2605C38.0816 13.1929 38.0791 13.1238 38.0569 13.0595C38.0068 12.9145 37.9859 12.7943 37.9609 12.6493C37.9337 12.5009 37.9039 12.3591 37.8746 12.2202C37.8229 11.975 37.7732 11.7392 37.744 11.4932C37.7053 11.1416 37.8851 10.8443 38.069 10.5403C38.1235 10.4502 38.1784 10.3595 38.228 10.2666C38.399 9.97657 38.591 9.69065 38.908 9.4959C38.9772 9.21299 39.1655 8.97739 39.3528 8.74295L39.367 8.72516C39.5519 8.49765 39.8606 8.35857 40.0882 8.25607L40.1139 8.24448C40.4518 8.09531 40.7564 8 40.7606 8H24V20.7586H35.8914C36.2094 20.531 36.5255 20.3873 36.9017 20.2164C37.0734 20.1384 37.2576 20.0547 37.4603 19.9548C37.5032 19.9335 37.5541 19.9086 37.6107 19.8811C37.9503 19.7162 38.4914 19.4533 38.6953 19.2544ZM34.922 17.5331C34.8748 17.5378 34.8248 17.5427 34.8437 17.5053C34.8612 17.4215 34.9482 17.3963 35.0331 17.3718C35.0695 17.3613 35.1055 17.3509 35.1355 17.336L35.1492 17.329L35.1593 17.3237C35.2063 17.2991 35.2639 17.2688 35.3064 17.2864C35.3351 17.3267 35.3706 17.3371 35.4051 17.3472C35.4308 17.3547 35.456 17.362 35.4773 17.3814C35.3871 17.4708 35.2819 17.4796 35.1751 17.4885C35.1043 17.4945 35.0328 17.5005 34.9646 17.5301C34.9523 17.5301 34.9373 17.5316 34.922 17.5331ZM31.2306 16.9504C31.2306 16.9752 31.2556 17.0001 31.2556 17.0001C31.8398 16.3496 32.3696 15.7943 33.1207 15.3344C33.1408 15.326 33.1333 15.3364 33.1234 15.3502C33.1086 15.3708 33.0883 15.3989 33.1457 15.3841C33.3943 15.3281 33.5061 15.1178 33.6147 14.9132C33.6428 14.8602 33.6706 14.8077 33.7007 14.7584C33.8146 14.5753 33.9764 14.4582 34.1395 14.34C34.2571 14.2548 34.3754 14.1692 34.4767 14.0581C34.4767 14.0829 34.4767 14.1078 34.4517 14.1326C34.4767 14.1575 34.5018 14.1575 34.5268 14.1575C34.5708 14.1247 34.6189 14.1111 34.6649 14.0981C34.7236 14.0816 34.7791 14.0659 34.8189 14.0125C34.6269 13.9379 34.3808 13.913 34.1888 13.9876C33.6798 14.2279 33.2459 14.6133 32.8328 15.0484C32.5824 15.3095 32.3238 15.5539 32.0067 15.7238C31.7897 16.1548 31.5477 16.5402 31.2306 16.9504ZM33.2676 15.4092C33.2545 15.4352 33.2414 15.4487 33.2289 15.4616C33.2176 15.4733 33.2066 15.4846 33.1967 15.5043C33.1717 15.5538 33.1467 15.5745 33.1008 15.5993C33.0758 15.5993 33.0508 15.5993 33.0508 15.5745C33.0758 15.4795 33.1467 15.3845 33.2426 15.3597C33.2676 15.3638 33.2676 15.3886 33.2676 15.4092ZM34.3345 19.0892C34.3553 19.0685 34.3803 19.0436 34.3929 19.0187C34.4137 18.969 34.2845 18.9815 34.2637 18.9939C34.2447 19.0089 34.2327 19.024 34.2182 19.0421L34.2136 19.0478C34.1963 19.0675 34.1759 19.0858 34.1552 19.1043C34.1412 19.117 34.1271 19.1297 34.1136 19.1431C34.0552 19.2011 33.9969 19.2591 33.9343 19.3129C33.8926 19.3503 34.0261 19.3668 34.0552 19.342C34.0886 19.3171 34.1178 19.2881 34.147 19.2591C34.1581 19.2591 34.1692 19.2572 34.1766 19.256L34.1817 19.2552L34.1844 19.255C34.2536 19.232 34.305 19.1845 34.355 19.1383L34.3679 19.1265C34.3845 19.1099 34.3637 19.0934 34.3345 19.0892ZM33.9573 18.8198C33.9568 18.8198 33.9565 18.8199 33.9562 18.8201C33.9557 18.8206 33.9557 18.8217 33.9557 18.8238C33.9301 18.8411 33.9049 18.8588 33.8797 18.8764C33.8144 18.922 33.7495 18.9672 33.6803 19.0061C33.6142 19.0429 33.5463 19.0747 33.4778 19.1068C33.4383 19.1253 33.3987 19.1439 33.3591 19.1636C33.3591 19.1636 33.3591 19.1595 33.3549 19.1595C33.3465 19.147 33.3299 19.1429 33.3132 19.1512C33.2214 19.2009 33.1421 19.2672 33.0712 19.3376C33.0587 19.3459 33.0461 19.3584 33.0378 19.3707L33.0002 19.4081V19.4122C32.9835 19.4288 32.9669 19.4454 32.946 19.4702C32.9417 19.4745 32.9383 19.4788 32.9351 19.4829C32.9291 19.4907 32.9235 19.4979 32.9126 19.5034C32.8959 19.5117 32.8542 19.5117 32.8584 19.4868V19.4826C32.8458 19.4909 32.8292 19.4992 32.8166 19.5034C32.8104 19.5075 32.8041 19.5106 32.7979 19.5137C32.7916 19.5168 32.7854 19.5199 32.7791 19.5241C32.7749 19.5199 32.7666 19.5199 32.7624 19.5199C32.7582 19.5199 32.7499 19.5199 32.7457 19.5241C32.736 19.5324 32.7262 19.5402 32.7165 19.548C32.697 19.5637 32.6776 19.5793 32.6581 19.5987C32.608 19.6443 32.5621 19.694 32.5163 19.7478C32.5163 19.7478 32.5163 19.752 32.5121 19.752C32.5121 19.7541 32.511 19.7551 32.51 19.7561C32.509 19.7572 32.5079 19.7582 32.5079 19.7603L32.4995 19.7685C32.498 19.7701 32.4969 19.7717 32.4961 19.7731C32.4947 19.7752 32.4938 19.7768 32.4912 19.7768L32.4871 19.781C32.4829 19.7893 32.4787 19.7976 32.4703 19.8059C32.4662 19.81 32.4578 19.8142 32.4494 19.8142C32.4453 19.81 32.4411 19.8059 32.4411 19.8017C32.439 19.7996 32.438 19.7976 32.437 19.7955C32.4359 19.7934 32.4348 19.7913 32.4328 19.7893C32.4286 19.7831 32.4255 19.7768 32.4224 19.7707C32.4192 19.7644 32.4161 19.7582 32.4119 19.752V19.7478C32.4119 19.7458 32.4109 19.7437 32.4098 19.7416C32.4088 19.7396 32.4078 19.7375 32.4078 19.7354L32.4829 19.6484L32.4871 19.6443C32.4912 19.6401 32.4954 19.635 32.4995 19.6297C32.5037 19.6246 32.5079 19.6194 32.5121 19.6153C32.5183 19.607 32.5256 19.5987 32.5329 19.5904C32.5402 19.5821 32.5475 19.5738 32.5538 19.5655C32.5559 19.5613 32.5579 19.5583 32.5601 19.5552C32.5621 19.552 32.5642 19.549 32.5663 19.5448C32.5913 19.5117 32.6164 19.4785 32.6414 19.4412V19.4371C32.6456 19.4329 32.6497 19.4288 32.6497 19.4205C32.6623 19.4039 32.6748 19.3873 32.6832 19.3707L32.7082 19.321V19.3169L32.7124 19.3127C32.7124 19.3107 32.7134 19.3096 32.7144 19.3086C32.7155 19.3076 32.7165 19.3066 32.7165 19.3045C32.7207 19.2941 32.7248 19.2848 32.729 19.2755C32.7332 19.2662 32.7374 19.2568 32.7416 19.2465V19.2423L32.7457 19.2257C32.7478 19.2216 32.7489 19.2174 32.7499 19.2133C32.7509 19.2091 32.752 19.205 32.7541 19.2009V19.1967C32.7562 19.1905 32.7572 19.1843 32.7582 19.1781C32.7593 19.1719 32.7603 19.1656 32.7624 19.1595C32.7624 19.1553 32.7624 19.147 32.7582 19.1429C32.7833 19.0973 32.8166 19.0559 32.8542 19.0144C32.8521 19.0144 32.85 19.0154 32.8479 19.0165C32.8468 19.0171 32.8455 19.0176 32.8444 19.0181C32.8435 19.0183 32.8426 19.0185 32.8417 19.0185C32.8231 19.0301 32.8071 19.0455 32.7909 19.0611C32.7779 19.0736 32.7647 19.0862 32.7499 19.0973C32.7248 19.118 32.6748 19.0848 32.7082 19.06C32.729 19.0434 32.7457 19.0268 32.7624 19.0102C32.7624 19.0102 32.7624 19.0061 32.7666 19.0061C32.7832 18.9912 32.7992 18.9744 32.8153 18.9574C32.8396 18.9318 32.8641 18.9059 32.8917 18.886C32.921 18.8652 32.9418 18.8487 32.9669 18.8279C32.971 18.8238 32.9752 18.8196 32.9794 18.8196C32.9961 18.7989 33.0127 18.7782 33.0336 18.7575C33.0336 18.7575 33.0378 18.7575 33.0378 18.7533C33.1811 18.6161 33.3824 18.5677 33.5879 18.5183C33.7175 18.4872 33.8488 18.4556 33.9682 18.4011C34.0357 18.3734 34.1109 18.3843 34.1853 18.3951C34.2443 18.4036 34.3027 18.4121 34.3563 18.4011C34.4272 18.4011 34.5023 18.4011 34.5732 18.4508C34.4083 18.5376 34.2508 18.6368 34.095 18.7349C34.0499 18.7634 34.0049 18.7917 33.9599 18.8196C33.9587 18.8196 33.9579 18.8196 33.9573 18.8198ZM34.4787 17.1308C34.4592 17.1331 34.4465 17.1345 34.4574 17.1453C34.5282 17.2157 34.6743 17.1909 34.7744 17.137C34.8454 17.0873 34.9205 17.0873 35.0165 17.0873C35.0415 17.0873 35.0415 17.0416 35.0415 17.0168C35.1124 17.0416 35.1625 17.0416 35.2334 17.0416C35.8134 16.9215 36.3725 16.8013 36.9065 16.5362C36.3662 16.1239 35.6999 15.9402 35.0474 15.7604C34.9391 15.7305 34.8312 15.7008 34.7243 15.6701C34.7479 15.6701 34.7714 15.6778 34.795 15.6856C34.8427 15.7013 34.8911 15.7172 34.9413 15.6701C34.8751 15.618 34.8014 15.608 34.7284 15.5981C34.668 15.5899 34.6081 15.5818 34.5533 15.5499C34.559 15.5499 34.5658 15.5513 34.5732 15.5527C34.5982 15.5574 34.6299 15.5634 34.6493 15.5251C34.5226 15.4621 34.3958 15.4408 34.2679 15.4192C34.202 15.4081 34.1359 15.3969 34.0693 15.38C34.1903 15.3552 34.2654 15.2598 34.2654 15.1397C34.2654 15.1148 34.2153 15.1148 34.1903 15.1148C33.9024 15.2598 33.7063 15.5251 33.5853 15.8358C33.6944 15.8992 33.8119 15.8919 33.9272 15.8847C33.9927 15.8806 34.0574 15.8765 34.1194 15.8856C34.0646 15.9369 33.9856 15.9509 33.9096 15.9642C33.8813 15.9692 33.8534 15.9741 33.8273 15.9809C33.7522 15.9975 33.6813 16.0513 33.7063 16.101C33.723 16.1218 33.7397 16.13 33.7606 16.1342C33.7063 16.1508 33.6562 16.1757 33.6103 16.2212C33.679 16.2746 33.7498 16.2643 33.8198 16.2541C33.8475 16.2501 33.8751 16.2461 33.9024 16.2461C33.9024 16.2762 33.9224 16.2864 33.9432 16.2971C33.9539 16.3025 33.9648 16.3081 33.9733 16.3165C33.8523 16.3621 33.7564 16.4616 33.7313 16.532C33.7015 16.6038 33.6462 16.6504 33.5915 16.6967C33.5546 16.7279 33.5179 16.7588 33.4893 16.7972V16.8718C33.4088 16.9423 33.3259 17.0054 33.2442 17.0675C33.0763 17.1951 32.9133 17.3191 32.7842 17.4975C32.8092 17.4975 32.8092 17.5223 32.8092 17.5472C32.7861 17.5816 32.7533 17.6055 32.7222 17.628C32.6857 17.6544 32.6516 17.6791 32.6382 17.7171C32.6382 17.742 32.6382 17.7668 32.6632 17.7668C32.8163 17.7169 32.9488 17.6328 33.0786 17.5503C33.1965 17.4754 33.3122 17.402 33.4393 17.3566C33.5431 17.332 33.6335 17.2855 33.7217 17.2401C33.7965 17.2016 33.8698 17.1639 33.9483 17.1411C34.0088 17.1287 34.0756 17.1111 34.1423 17.0934C34.2091 17.0758 34.2759 17.0582 34.3363 17.0458C34.3363 17.0707 34.3363 17.0956 34.3613 17.0956H34.5533C34.5415 17.1238 34.5042 17.128 34.4787 17.1308Z" fill="#000091"/>
<path d="M59.5372 8H45.6379C45.6379 8 45.6631 8.00415 45.7682 8.05807C45.8816 8.11614 46.0287 8.19495 46.1169 8.24057C46.2976 8.33182 46.4698 8.44796 46.5833 8.62632C46.6338 8.69683 46.7052 8.84201 46.659 8.9374C46.6085 9.05769 46.5833 9.25263 46.4614 9.29826C46.3144 9.37292 46.1211 9.37292 45.9489 9.34803C45.8522 9.34803 45.7556 9.32315 45.6547 9.29826C46.0203 9.44343 46.3648 9.61349 46.6085 9.94947C46.6338 9.99924 46.7304 10.02 46.827 10.02C46.8522 10.02 46.8522 10.0697 46.8522 10.0905C46.8018 10.1403 46.7556 10.1652 46.7808 10.2357H46.8522C46.9741 10.1859 46.9489 9.94531 47.1211 10.02C47.243 10.0905 47.2934 10.2605 47.2178 10.3808C47.1211 10.4762 47.0245 10.5509 46.9237 10.6214C46.8984 10.6712 46.8984 10.7417 46.9237 10.7915C46.9951 10.8869 47.0203 10.9823 47.0455 11.0818C47.1211 11.2519 47.1421 11.4427 47.2178 11.6127C47.3144 11.9736 47.4111 12.3344 47.3901 12.6995C47.3901 12.8903 47.2934 13.0603 47.3649 13.2553C47.4153 13.4461 47.5371 13.5912 47.6337 13.7613C47.7304 13.9065 47.827 14.0019 47.9026 14.147C48.0497 14.3876 48.3186 14.6282 48.1968 14.9186C48.1254 15.0886 47.8564 15.0637 47.6842 15.1591C47.5371 15.2794 47.659 15.4743 47.7346 15.5946C47.8564 15.8103 47.5875 15.9554 47.4153 16.0301C47.4657 16.1048 47.5623 16.0799 47.5875 16.1255C47.6127 16.2458 47.7346 16.3163 47.659 16.4408C47.5623 16.5859 47.2682 16.6565 47.4153 16.8763C47.5119 17.0464 47.4489 17.233 47.3901 17.4072C47.3186 17.6229 47.1211 17.7183 46.9489 17.7681C46.8018 17.8178 46.6296 17.8178 46.4867 17.7929C46.4362 17.7681 46.39 17.7432 46.3396 17.7432C45.9237 17.6934 45.5077 17.5773 45.0959 17.5773C44.974 17.6021 44.8522 17.6229 44.7556 17.6726C44.6463 17.7515 44.5455 17.8386 44.4615 17.9298C44.4615 17.9298 44.4615 17.9298 44.4573 17.934C44.4404 17.9547 44.4194 17.9713 44.4026 17.992C44.3942 18.0045 44.3816 18.0169 44.3732 18.0294C44.3648 18.0377 44.3606 18.0459 44.3522 18.0542C44.2808 18.1414 44.2178 18.2367 44.159 18.3322C44.1548 18.3405 44.1505 18.3446 44.1463 18.3488C44.1421 18.3612 44.1337 18.3695 44.1253 18.3819C44.0455 18.5271 43.9866 18.6764 43.9404 18.8258C43.7724 19.3774 43.848 19.8503 43.9656 19.9664C43.9992 19.9995 44.7724 20.236 45.3102 20.4724C45.5623 20.5844 45.7387 20.6674 45.8858 20.7586H59.533V8H59.5372Z" fill="#E1000F"/>
<path d="M46.4636 12.6535C46.5603 12.6784 46.7074 12.6784 46.7074 12.7281C46.6569 12.9186 46.367 12.9683 46.2199 13.163H46.1442C46.0728 13.2128 46.0938 13.3329 46.0224 13.3329C45.9509 13.308 45.8753 13.3329 45.8039 13.3577C45.9005 13.453 46.0224 13.5276 46.1694 13.5027C46.1947 13.5027 46.2409 13.5524 46.2409 13.598C46.2409 13.598 46.2661 13.598 46.2914 13.5731C46.3166 13.5731 46.3418 13.5731 46.3418 13.598V13.6933C46.2703 13.7885 46.1442 13.743 46.0476 13.7637C46.2451 13.8134 46.4384 13.8134 46.6107 13.7637C46.7578 13.714 46.6107 13.4737 46.7074 13.3536C46.6569 13.3536 46.7074 13.279 46.6569 13.279C46.7074 13.2293 46.7536 13.1589 46.8041 13.134C46.8545 13.134 46.9259 13.1092 46.9511 13.0595C46.9511 13.0098 46.8545 12.9891 46.8755 12.9394C47.0226 12.8441 47.1444 12.6991 47.094 12.5541C47.0688 12.4796 46.8755 12.4796 46.7536 12.434C46.6317 12.3884 46.4846 12.434 46.3376 12.4588C46.2157 12.4588 46.0938 12.5334 45.9719 12.5541C45.7997 12.6038 45.6525 12.6991 45.5097 12.7944C45.6819 12.724 45.8501 12.6991 46.0476 12.6494C46.1947 12.6535 46.3166 12.6204 46.4636 12.6535Z" fill="#808080"/>
<path d="M25.331 36.7068H27.166V30.302L29.182 33.6447H30.4742L32.4901 30.302V36.7068H34.3252V27.7758H32.0379L29.8281 31.5268L27.6183 27.7758H25.331V36.7068ZM37.0436 36.7068H38.8786V27.7758H37.0436V36.7068ZM41.6009 36.7068H43.4359V30.2509L47.4807 36.7068H49.8326V27.7758H47.9976V34.2316L43.9528 27.7758H41.6009V36.7068ZM52.5563 36.7068H54.3913V27.7758H52.5563V36.7068ZM56.2995 35.4692C57.1007 36.4134 58.1216 36.962 59.6464 36.962C61.3134 36.962 62.6315 35.954 62.6574 34.2699C62.6574 31.2078 58.548 31.6672 58.548 30.0468C58.548 29.5109 58.9744 29.1027 59.6206 29.1027C60.3055 29.1027 60.8999 29.5492 61.4297 30.2254L62.7737 29.0261C61.9983 28.1203 60.9645 27.5206 59.6077 27.5206C57.876 27.5206 56.6871 28.6944 56.6871 30.1106C56.6871 33.1344 60.7965 32.6878 60.7965 34.3337C60.7965 34.9716 60.3572 35.3544 59.6335 35.3544C58.8969 35.3544 58.1732 34.9461 57.6305 34.2571L56.2995 35.4692ZM63.7817 29.4216H66.573V36.7068H68.408V29.4216H71.1993V27.7758H63.7817V29.4216ZM74.8269 27.0103H76.5069L75.0466 25.2878H73.1599L74.8269 27.0103ZM73.0048 36.7068H78.2773V35.2013H74.8399V32.9047H77.7604V31.3992H74.8399V29.2813H78.2773V27.7758H73.0048V36.7068ZM80.6034 36.7068H82.4384V33.0961H83.3818L85.7983 36.7068H87.9564L85.1263 32.7516C86.0567 32.3306 86.5866 31.5268 86.5866 30.4423C86.5866 28.7837 85.3589 27.7758 83.3688 27.7758H80.6034V36.7068ZM83.4722 29.2813C84.2476 29.2813 84.6999 29.7406 84.6999 30.4168C84.6999 31.144 84.2476 31.5906 83.4722 31.5906H82.4384V29.2813H83.4722ZM89.3128 36.7068H94.5852V35.2013H91.1478V32.9047H94.0683V31.3992H91.1478V29.2813H94.5852V27.7758H89.3128V36.7068ZM25.331 50.1034H28.8847C31.7536 50.1034 33.6919 48.0492 33.6919 45.6378C33.6919 43.2265 31.7536 41.1723 28.8847 41.1723H25.331V50.1034ZM28.9106 42.8182C30.5905 42.8182 31.8052 44.043 31.8052 45.6378C31.8052 47.2199 30.5905 48.4575 28.9106 48.4575H27.166V42.8182H28.9106ZM35.6555 50.1034H40.9279V48.5978H37.4905V46.3013H40.411V44.7958H37.4905V42.6778H40.9279V41.1723H35.6555V50.1034ZM46.8017 50.1034H52.0742V48.4575H48.6367V41.1723H46.8017V50.1034ZM53.4007 44.8468L54.8998 41.1723H53.0389L51.8759 44.8468H53.4007ZM59.9723 40.4068L61.6522 38.6844H59.7655L58.3052 40.4068H59.9723ZM56.5219 50.1034H61.7943V48.5978H58.3569V46.3013H61.2774V44.7958H58.3569V42.6778H61.7943V41.1723H56.5219V50.1034ZM64.1205 50.1034H67.6743C70.5431 50.1034 72.4815 48.0492 72.4815 45.6378C72.4815 43.2265 70.5431 41.1723 67.6743 41.1723H64.1205V50.1034ZM67.7001 42.8182C69.3801 42.8182 70.5948 44.043 70.5948 45.6378C70.5948 47.2199 69.3801 48.4575 67.7001 48.4575H65.9556V42.8182H67.7001ZM79.7796 46.7606C79.7796 47.9599 79.0818 48.6616 77.9575 48.6616C76.8074 48.6616 76.1225 47.9599 76.1225 46.7606V41.1723H74.2875V46.6075C74.2875 48.9551 75.6831 50.3585 77.9446 50.3585C80.219 50.3585 81.6146 48.9551 81.6146 46.6075V41.1723H79.7796V46.7606ZM88.2208 48.6616C86.515 48.6616 85.3003 47.3475 85.3003 45.6378C85.3003 43.9282 86.515 42.614 88.2208 42.614C89.2546 42.614 90.0688 43.1116 90.5857 43.8389L92.033 42.7289C91.2059 41.6444 89.862 40.9171 88.2208 40.9171C85.3649 40.9171 83.4136 43.0861 83.4136 45.6378C83.4136 48.1896 85.3649 50.3585 88.2208 50.3585C89.862 50.3585 91.2059 49.644 92.033 48.534L90.5857 47.4368C90.0688 48.164 89.2546 48.6616 88.2208 48.6616ZM92.619 50.1034H94.5703L95.4362 47.7813H99.0545L99.9203 50.1034H101.872L98.4471 41.1723H96.0435L92.619 50.1034ZM96.0048 46.2375L97.2453 42.882L98.4859 46.2375H96.0048ZM101.624 42.8182H104.415V50.1034H106.25V42.8182H109.041V41.1723H101.624V42.8182ZM110.846 50.1034H112.681V41.1723H110.846V50.1034ZM119.435 40.9171C116.579 40.9171 114.628 43.0861 114.628 45.6378C114.628 48.1896 116.579 50.3585 119.435 50.3585C122.278 50.3585 124.23 48.1896 124.23 45.6378C124.23 43.0861 122.278 40.9171 119.435 40.9171ZM119.435 48.6616C117.73 48.6616 116.515 47.3475 116.515 45.6378C116.515 43.9282 117.73 42.614 119.435 42.614C121.128 42.614 122.343 43.9282 122.343 45.6378C122.343 47.3475 121.128 48.6616 119.435 48.6616ZM126.182 50.1034H128.017V43.6475L132.062 50.1034H134.414V41.1723H132.579V47.6282L128.534 41.1723H126.182V50.1034ZM25.331 63.4999H27.166V57.044L31.2108 63.4999H33.5627V54.5689H31.7277V61.0247L27.6829 54.5689H25.331V63.4999ZM35.1493 63.4999H37.1006L37.9664 61.1778H41.5848L42.4506 63.4999H44.4019L40.9774 54.5689H38.5738L35.1493 63.4999ZM38.535 59.634L39.7756 56.2785L41.0162 59.634H38.535ZM44.1535 56.2147H46.9448V63.4999H48.7798V56.2147H51.5711V54.5689H44.1535V56.2147ZM53.3766 63.4999H55.2116V54.5689H53.3766V63.4999ZM61.9657 54.3137C59.1098 54.3137 57.1585 56.4827 57.1585 59.0344C57.1585 61.5861 59.1098 63.7551 61.9657 63.7551C64.8087 63.7551 66.76 61.5861 66.76 59.0344C66.76 56.4827 64.8087 54.3137 61.9657 54.3137ZM61.9657 62.0582C60.2599 62.0582 59.0452 60.744 59.0452 59.0344C59.0452 57.3247 60.2599 56.0106 61.9657 56.0106C63.6586 56.0106 64.8733 57.3247 64.8733 59.0344C64.8733 60.744 63.6586 62.0582 61.9657 62.0582ZM68.7126 63.4999H70.5476V57.044L74.5924 63.4999H76.9443V54.5689H75.1093V61.0247L71.0645 54.5689H68.7126V63.4999ZM78.5309 63.4999H80.4822L81.348 61.1778H84.9663L85.8321 63.4999H87.7835L84.359 54.5689H81.9554L78.5309 63.4999ZM81.9166 59.634L83.1572 56.2785L84.3977 59.634H81.9166ZM89.3742 63.4999H94.6466V61.854H91.2092V54.5689H89.3742V63.4999ZM96.4551 63.4999H101.728V61.9944H98.2901V59.6978H101.211V58.1923H98.2901V56.0744H101.728V54.5689H96.4551V63.4999ZM104.669 65.5413L106.168 61.7265H104.32L103.144 65.5413H104.669ZM25.331 76.8965H28.8847C31.7536 76.8965 33.6919 74.8423 33.6919 72.4309C33.6919 70.0196 31.7536 67.9654 28.8847 67.9654H25.331V76.8965ZM28.9106 69.6113C30.5905 69.6113 31.8052 70.8361 31.8052 72.4309C31.8052 74.013 30.5905 75.2506 28.9106 75.2506H27.166V69.6113H28.9106ZM35.6555 76.8965H40.9279V75.3909H37.4905V73.0944H40.411V71.5889H37.4905V69.4709H40.9279V67.9654H35.6555V76.8965ZM46.8017 76.8965H52.0742V75.2506H48.6367V67.9654H46.8017V76.8965ZM53.1369 76.8965H55.0882L55.954 74.5744H59.5724L60.4382 76.8965H62.3895L58.965 67.9654H56.5614L53.1369 76.8965ZM56.5226 73.0306L57.7632 69.6751L59.0038 73.0306H56.5226ZM69.505 76.1564V67.9654H67.67V76.2458C67.67 77.1644 67.2436 77.5089 66.4294 77.5089C66.2485 77.5089 66.0934 77.4961 65.9642 77.4706V79.0654C66.1451 79.1165 66.3907 79.1165 66.6879 79.1165C68.5746 79.1165 69.505 78.134 69.505 76.1564ZM72.2365 76.8965H77.509V75.3909H74.0715V73.0944H76.9921V71.5889H74.0715V69.4709H77.509V67.9654H72.2365V76.8965ZM85.1193 73.5537C85.1193 74.753 84.4214 75.4547 83.2972 75.4547C82.1471 75.4547 81.4622 74.753 81.4622 73.5537V67.9654H79.6272V73.4006C79.6272 75.7482 81.0228 77.1516 83.2843 77.1516C85.5586 77.1516 86.9543 75.7482 86.9543 73.4006V67.9654H85.1193V73.5537ZM89.4278 76.8965H91.2628V70.4406L95.3076 76.8965H97.6595V67.9654H95.8245V74.4213L91.7797 67.9654H89.4278V76.8965ZM100.383 76.8965H105.655V75.3909H102.218V73.0944H105.138V71.5889H102.218V69.4709H105.655V67.9654H100.383V76.8965ZM107.167 75.6589C107.969 76.603 108.989 77.1516 110.514 77.1516C112.181 77.1516 113.499 76.1437 113.525 74.4596C113.525 71.3975 109.416 71.8568 109.416 70.2365C109.416 69.7006 109.842 69.2923 110.488 69.2923C111.173 69.2923 111.768 69.7389 112.298 70.4151L113.642 69.2158C112.866 68.3099 111.832 67.7102 110.475 67.7102C108.744 67.7102 107.555 68.884 107.555 70.3002C107.555 73.324 111.664 72.8775 111.664 74.5233C111.664 75.1613 111.225 75.544 110.501 75.544C109.765 75.544 109.041 75.1358 108.498 74.4468L107.167 75.6589ZM114.741 75.6589C115.542 76.603 116.563 77.1516 118.088 77.1516C119.755 77.1516 121.073 76.1437 121.099 74.4596C121.099 71.3975 116.989 71.8568 116.989 70.2365C116.989 69.7006 117.416 69.2923 118.062 69.2923C118.747 69.2923 119.341 69.7389 119.871 70.4151L121.215 69.2158C120.439 68.3099 119.406 67.7102 118.049 67.7102C116.317 67.7102 115.128 68.884 115.128 70.3002C115.128 73.324 119.238 72.8775 119.238 74.5233C119.238 75.1613 118.798 75.544 118.075 75.544C117.338 75.544 116.614 75.1358 116.072 74.4468L114.741 75.6589ZM123.217 76.8965H128.489V75.3909H125.052V73.0944H127.972V71.5889H125.052V69.4709H128.489V67.9654H123.217V76.8965ZM25.331 90.293H30.6034V88.7875H27.166V86.4909H30.0865V84.9854H27.166V82.8675H30.6034V81.362H25.331V90.293ZM32.1885 83.0078H34.9798V90.293H36.8148V83.0078H39.606V81.362H32.1885V83.0078ZM44.9592 90.293H48.5129C51.3818 90.293 53.3202 88.2389 53.3202 85.8275C53.3202 83.4161 51.3818 81.362 48.5129 81.362H44.9592V90.293ZM48.5388 83.0078C50.2187 83.0078 51.4335 84.2327 51.4335 85.8275C51.4335 87.4095 50.2187 88.6471 48.5388 88.6471H46.7942V83.0078H48.5388ZM55.2837 90.293H60.5561V88.7875H57.1187V86.4909H60.0392V84.9854H57.1187V82.8675H60.5561V81.362H55.2837V90.293ZM62.0682 89.0554C62.8694 89.9995 63.8903 90.5482 65.4151 90.5482C67.0821 90.5482 68.4003 89.5402 68.4261 87.8561C68.4261 84.794 64.3167 85.2533 64.3167 83.633C64.3167 83.0971 64.7432 82.6889 65.3893 82.6889C66.0742 82.6889 66.6686 83.1354 67.1985 83.8116L68.5424 82.6123C67.7671 81.7064 66.7332 81.1068 65.3764 81.1068C63.6447 81.1068 62.4559 82.2806 62.4559 83.6968C62.4559 86.7206 66.5652 86.274 66.5652 87.9199C66.5652 88.5578 66.1259 88.9406 65.4022 88.9406C64.6656 88.9406 63.942 88.5323 63.3992 87.8433L62.0682 89.0554ZM73.2775 89.0554C74.0787 89.9995 75.0996 90.5482 76.6245 90.5482C78.2915 90.5482 79.6096 89.5402 79.6354 87.8561C79.6354 84.794 75.526 85.2533 75.526 83.633C75.526 83.0971 75.9525 82.6889 76.5986 82.6889C77.2835 82.6889 77.878 83.1354 78.4078 83.8116L79.7517 82.6123C78.9764 81.7064 77.9426 81.1068 76.5857 81.1068C74.8541 81.1068 73.6652 82.2806 73.6652 83.6968C73.6652 86.7206 77.7746 86.274 77.7746 87.9199C77.7746 88.5578 77.3352 88.9406 76.6115 88.9406C75.875 88.9406 75.1513 88.5323 74.6085 87.8433L73.2775 89.0554ZM81.7533 90.293H83.5883V86.6823H84.7384C86.7285 86.6823 87.9432 85.6744 87.9432 84.0285C87.9432 82.3699 86.7285 81.362 84.7384 81.362H81.7533V90.293ZM84.816 82.8675C85.5913 82.8675 86.0565 83.3268 86.0565 84.003C86.0565 84.7302 85.5913 85.1768 84.816 85.1768H83.5883V82.8675H84.816ZM93.8758 81.1068C91.0199 81.1068 89.0685 83.2758 89.0685 85.8275C89.0685 88.3792 91.0199 90.5482 93.8758 90.5482C96.7187 90.5482 98.67 88.3792 98.67 85.8275C98.67 83.2758 96.7187 81.1068 93.8758 81.1068ZM93.8758 88.8513C92.17 88.8513 90.9552 87.5371 90.9552 85.8275C90.9552 84.1178 92.17 82.8037 93.8758 82.8037C95.5686 82.8037 96.7833 84.1178 96.7833 85.8275C96.7833 87.5371 95.5686 88.8513 93.8758 88.8513ZM100.623 90.293H102.458V86.6823H103.401L105.818 90.293H107.976L105.146 86.3378C106.076 85.9168 106.606 85.113 106.606 84.0285C106.606 82.3699 105.378 81.362 103.388 81.362H100.623V90.293ZM103.491 82.8675C104.267 82.8675 104.719 83.3268 104.719 84.003C104.719 84.7302 104.267 85.1768 103.491 85.1768H102.458V82.8675H103.491ZM107.998 83.0078H110.789V90.293H112.624V83.0078H115.415V81.362H107.998V83.0078ZM116.218 89.0554C117.019 89.9995 118.04 90.5482 119.565 90.5482C121.232 90.5482 122.55 89.5402 122.576 87.8561C122.576 84.794 118.466 85.2533 118.466 83.633C118.466 83.0971 118.893 82.6889 119.539 82.6889C120.224 82.6889 120.818 83.1354 121.348 83.8116L122.692 82.6123C121.917 81.7064 120.883 81.1068 119.526 81.1068C117.794 81.1068 116.605 82.2806 116.605 83.6968C116.605 86.7206 120.715 86.274 120.715 87.9199C120.715 88.5578 120.275 88.9406 119.552 88.9406C118.815 88.9406 118.091 88.5323 117.549 87.8433L116.218 89.0554Z" fill="#161616"/>
<path fill-rule="evenodd" clip-rule="evenodd" d="M57.5729 113.067L56.3711 114.152H56.061L56.7717 112.914H57.5729V113.067ZM56.7071 117.264H56.4487C56.1256 117.647 55.7638 117.953 55.4149 117.953C55.053 117.953 54.8721 117.736 54.8721 117.264C54.8721 117.073 54.898 116.869 54.9367 116.69L57.0431 116.001C57.4566 115.031 56.9656 114.61 56.3841 114.61C55.389 114.61 54.2518 116.333 54.2518 117.711C54.2518 118.361 54.562 118.719 55.053 118.719C55.6216 118.706 56.2161 118.157 56.7071 117.264ZM55.9842 115.172C56.2685 115.172 56.5141 115.389 56.3848 115.887L55.0796 116.231C55.2864 115.619 55.6741 115.172 55.9842 115.172ZM51.8754 115.197H52.5732L51.4619 118.208C51.3585 118.463 51.5007 118.719 51.772 118.719C52.5603 118.719 53.5037 118.055 53.8655 117.111H53.6717C53.3874 117.507 52.7671 117.94 52.3019 118.017L53.3228 115.197H54.3695L54.4987 114.763H53.4778L53.8655 113.679H53.4649L52.7412 114.763L51.8754 114.878V115.197ZM50.9055 114.624C51.0476 114.624 51.2415 114.777 51.151 115.058L49.8975 118.056C50.2206 118.005 50.5565 117.699 50.7504 117.418H50.9571C50.6599 118.171 49.9879 118.719 49.4064 118.719C49.2643 118.719 49.0575 118.566 49.1609 118.285L50.3239 115.287C50.0009 115.338 49.6649 115.644 49.471 115.925H49.2772C49.5744 115.16 50.2981 114.624 50.9055 114.624ZM51.2682 113.858C51.5266 113.858 51.7463 113.654 51.7463 113.386C51.7463 113.131 51.5266 112.914 51.2682 112.914C50.9968 112.914 50.7901 113.131 50.7901 113.386C50.7901 113.641 51.0097 113.858 51.2682 113.858ZM45.6208 116.346C45.905 115.734 45.8017 115.453 45.6208 115.453C45.4657 115.453 45.2847 115.619 45.1038 115.925H44.9099C45.2072 115.274 45.5949 114.624 46.0214 114.624C46.3832 114.624 46.5124 114.981 46.5124 115.376V115.938C46.5706 115.872 46.6272 115.806 46.6825 115.741L46.6835 115.74L46.6843 115.739C47.2303 115.107 47.6471 114.624 48.1277 114.624C48.5025 114.624 48.6963 114.853 48.6963 115.198C48.6963 115.402 48.6317 115.657 48.4896 115.925L47.417 118.056C47.7401 118.005 48.076 117.699 48.2699 117.418H48.4637C48.1665 118.183 47.4428 118.719 46.8355 118.719C46.5641 118.719 46.409 118.439 46.5253 118.209L47.7659 115.849C47.9081 115.581 47.9339 115.402 47.7142 115.402C47.417 115.402 46.7192 115.887 46.3444 116.333L45.5303 118.451C45.4398 118.668 45.3494 118.719 45.1426 118.719C44.8066 118.719 44.6386 118.502 44.7936 118.158L45.6208 116.346ZM44.7798 115.529C44.922 115.044 44.8444 114.61 44.4696 114.61C44.0023 114.61 43.8559 114.915 43.403 115.858L43.3712 115.924V115.363C43.3712 114.968 43.242 114.61 42.8801 114.61C42.4537 114.61 42.066 115.261 41.7688 115.912H41.9626C42.1694 115.618 42.3632 115.44 42.5183 115.44C42.6992 115.44 42.8026 115.72 42.5183 116.333L41.6912 118.144C41.5362 118.489 41.7042 118.706 42.0402 118.706C42.2469 118.706 42.3374 118.655 42.4278 118.438L43.242 116.32C43.4746 116.039 43.6813 115.797 43.9398 115.529H44.7798ZM40.6965 115.887C40.8257 115.389 40.5802 115.172 40.2959 115.172C39.9857 115.172 39.598 115.619 39.3913 116.231L40.6965 115.887ZM41.0188 117.264H40.7603C40.4372 117.647 40.0754 117.953 39.7264 117.953C39.3646 117.953 39.1837 117.736 39.1837 117.264C39.1837 117.073 39.2095 116.869 39.2483 116.69L41.3547 116.001C41.7683 115.031 41.2772 114.61 40.6957 114.61C39.7006 114.61 38.5634 116.333 38.5634 117.711C38.5634 118.361 38.8735 118.719 39.3646 118.719C39.9333 118.706 40.5277 118.157 41.0188 117.264ZM36.8848 115.197H36.187V114.878L37.0529 114.763L37.7765 113.679H38.1771L37.7895 114.763H38.8103L38.6811 115.197H37.6344L36.6134 118.017C37.0787 117.94 37.699 117.507 37.9833 117.111H38.1771C37.8153 118.055 36.8719 118.719 36.0836 118.719C35.8122 118.719 35.6701 118.463 35.7735 118.208L36.8848 115.197ZM32.4917 117.532C32.4917 116.601 33.5385 115.351 34.12 115.351C34.2492 115.351 34.3785 115.364 34.4819 115.402L33.8745 117.009C33.5256 117.43 32.9828 117.94 32.7243 117.94C32.5822 117.94 32.4917 117.813 32.4917 117.532ZM35.3738 114.42L35.6969 114.445L34.5726 116.996C34.3013 117.609 34.4176 117.889 34.5726 117.889C34.7277 117.889 34.9215 117.711 35.1283 117.417H35.3221C35.0249 118.068 34.6372 118.719 34.2108 118.719C33.849 118.719 33.6293 118.336 33.6939 117.647L33.7197 117.404L33.6494 117.502C33.1864 118.141 32.7675 118.719 32.337 118.719C31.9622 118.719 31.7684 118.489 31.7684 118.144C31.7684 116.665 33.4096 114.777 34.9474 114.777H35.012L35.3738 114.42ZM32.4137 115.529C32.5559 115.044 32.4783 114.61 32.1036 114.61C31.6362 114.61 31.4898 114.915 31.0369 115.858L31.0052 115.924V115.363C31.0052 114.968 30.8759 114.61 30.514 114.61C30.0876 114.61 29.6999 115.261 29.4027 115.912H29.5965C29.8033 115.618 29.9971 115.44 30.1393 115.44C30.3202 115.44 30.4236 115.72 30.1393 116.333L29.3122 118.157C29.1572 118.502 29.3252 118.719 29.6611 118.719C29.8679 118.719 29.9584 118.668 30.0488 118.451L30.863 116.333C31.0956 116.052 31.3024 115.81 31.5608 115.542H32.4137V115.529ZM27.0886 118.335L27.011 118.565H24L24.0775 118.322C25.008 118.157 25.1631 118.08 25.5507 117.047L26.3907 114.827C26.7655 113.793 26.6879 113.717 25.8738 113.551L25.9513 113.321H29.867L29.6343 114.559H29.3501C29.3501 113.819 29.2725 113.627 28.5618 113.627H28.3808C27.683 113.627 27.5925 113.729 27.3987 114.265L26.843 115.758H27.6572C28.1999 115.758 28.4067 115.426 28.6522 114.992H28.9365L28.2645 116.804H27.9802C28.0448 116.256 28.0448 116.039 27.5409 116.039H26.7267L26.352 117.059C25.9468 118.121 26.0626 118.143 27.0273 118.324C27.0473 118.328 27.0678 118.331 27.0886 118.335Z" fill="black"/>
<path fill-rule="evenodd" clip-rule="evenodd" d="M29.647 103.307L28.4452 104.162V104.174H28.1351L28.8458 103.154H29.647V103.307ZM38.0478 109.291L39.9732 104.238L39.9086 104.162L38.5777 104.315V104.468L38.8361 104.659C39.0567 104.828 38.9983 104.987 38.8153 105.482L38.7844 105.565L37.3113 109.444C37.195 109.673 37.35 109.954 37.6214 109.954C38.2288 109.954 38.8749 109.406 39.1721 108.653H38.9783C38.7715 108.933 38.358 109.24 38.0478 109.291ZM46.873 105.399L48.0748 104.315V104.162H47.2736L46.5629 105.399H46.873ZM46.9497 108.5H47.2082C46.73 109.406 46.1356 109.954 45.567 109.954C45.0759 109.954 44.7658 109.597 44.7658 108.946C44.7658 107.568 45.903 105.846 46.898 105.846C47.4666 105.846 47.9706 106.267 47.5571 107.237L45.4378 107.926C45.399 108.104 45.3732 108.308 45.3732 108.5C45.3732 108.972 45.5541 109.189 45.9159 109.189C46.2648 109.189 46.6266 108.882 46.9497 108.5ZM46.8845 107.122C47.0137 106.637 46.7681 106.42 46.4838 106.42C46.1866 106.42 45.799 106.867 45.5793 107.466L46.8845 107.122ZM43.0852 106.445H42.3874V106.126L43.2532 106.011L43.9769 104.927H44.3775L43.9898 106.011H45.0107L44.8814 106.445H43.8347L42.8138 109.265C43.279 109.188 43.8993 108.754 44.1836 108.359H44.3775C44.0156 109.303 43.0723 109.966 42.284 109.966C42.0126 109.966 41.8705 109.711 41.9739 109.456L43.0852 106.445ZM41.6637 106.292C41.7412 106.011 41.5603 105.858 41.4052 105.858C40.7978 105.858 40.0742 106.407 39.777 107.159H39.9708C40.1646 106.879 40.5006 106.572 40.8237 106.521L39.6606 109.52C39.5573 109.8 39.764 109.954 39.9062 109.954C40.4877 109.954 41.1597 109.405 41.4569 108.652H41.2631C41.0692 108.933 40.7332 109.239 40.4102 109.29L41.6637 106.292ZM42.2591 104.634C42.2591 104.889 42.0394 105.106 41.7809 105.106C41.5225 105.106 41.3028 104.889 41.3028 104.634C41.3028 104.379 41.5096 104.162 41.7809 104.162C42.0394 104.162 42.2591 104.379 42.2591 104.634ZM35.7345 106.599C35.153 106.599 34.1063 107.849 34.1063 108.78C34.1063 109.061 34.1967 109.189 34.3518 109.189C34.5973 109.189 35.1401 108.678 35.489 108.257L36.0963 106.65C35.98 106.611 35.8637 106.599 35.7345 106.599ZM37.3114 105.693L36.9883 105.667L36.6265 106.025H36.5619C35.0241 106.025 33.3829 107.913 33.3829 109.393C33.3829 109.737 33.5767 109.967 33.9515 109.967C34.3821 109.967 34.801 109.388 35.2639 108.75L35.3342 108.653L35.3084 108.895C35.2438 109.584 35.4635 109.967 35.8253 109.967C36.2517 109.967 36.6394 109.316 36.9366 108.666H36.7428C36.536 108.959 36.3422 109.138 36.1871 109.138C36.032 109.138 35.9157 108.857 36.1871 108.245L37.3114 105.693ZM30.7977 109.827C30.242 110.043 29.8543 110.299 29.8543 110.694C29.8543 111.064 30.2033 111.217 30.9269 111.217C31.8961 111.217 32.4259 110.937 32.4259 110.567C32.4259 110.401 32.2062 110.324 31.6247 110.133C31.25 110.018 30.9786 109.916 30.7977 109.827ZM31.443 108.257C31.1845 108.257 31.0941 108.04 31.0941 107.811C31.0941 107.071 31.4559 106.152 32.0374 106.152C32.2959 106.152 32.3863 106.369 32.3863 106.599C32.3734 107.351 32.0116 108.257 31.443 108.257ZM31.9353 109.457C32.6461 109.673 33.0854 109.839 33.0854 110.324C33.0854 110.949 31.9224 111.689 30.5138 111.677C29.6997 111.677 29.0019 111.46 29.0019 110.937C29.0019 110.439 29.4671 110.031 30.6043 109.699C30.4492 109.597 30.3846 109.469 30.3846 109.291C30.3846 108.985 30.6689 108.742 31.16 108.512C30.6818 108.449 30.3717 108.091 30.3717 107.568C30.3717 106.765 31.0437 105.846 32.1033 105.846C32.323 105.846 32.5168 105.897 32.6719 105.999H33.8349L33.7057 106.433H33.0208C33.0596 106.548 33.0854 106.675 33.0854 106.816C33.0854 107.594 32.4522 108.487 31.4443 108.538C31.1858 108.678 31.0566 108.87 31.0566 109.023C31.0566 109.203 31.268 109.264 31.7351 109.399C31.7973 109.416 31.864 109.436 31.9353 109.457ZM27.838 107.275C28.342 107.275 28.3549 107.492 28.2774 108.04H28.5617L29.2336 106.229H28.9493C28.7038 106.662 28.497 106.994 27.9543 106.994H26.843L27.3857 105.501C27.5795 104.966 27.67 104.863 28.3678 104.863H28.8589C29.5696 104.863 29.6472 105.055 29.6472 105.795H29.9315L30.1641 104.557H25.9513L25.8738 104.787C26.6879 104.953 26.7654 105.029 26.3907 106.063L25.5507 108.296C25.163 109.329 25.008 109.406 24.0646 109.571L24 109.814H28.678L29.5179 108.5H29.1949C28.6521 109.023 28.1094 109.508 27.0497 109.508C25.8842 109.508 25.9049 109.451 26.2547 108.503C26.2772 108.442 26.3011 108.377 26.3261 108.308L26.7137 107.288H27.838V107.275Z" fill="black"/>
<path fill-rule="evenodd" clip-rule="evenodd" d="M31.7007 96.3406C31.9592 96.3406 32.1788 96.1237 32.1788 95.8686C32.1788 95.6134 31.9592 95.3965 31.7007 95.3965C31.4293 95.3965 31.2226 95.6134 31.2226 95.8686C31.2226 96.1365 31.4293 96.3406 31.7007 96.3406ZM35.5272 97.9476C35.5272 97.3352 35.3721 97.1055 34.9327 97.1055C34.39 97.1055 33.886 97.6796 33.382 98.3686L34.4675 95.4979L34.4029 95.4086L33.0719 95.5617V95.7148L33.3303 95.9062C33.5554 96.0791 33.4901 96.2519 33.2985 96.7597L33.2786 96.8121L32.1027 99.8486C31.9993 100.104 31.883 100.41 31.883 100.487C31.883 100.844 32.374 101.188 32.8263 101.188C33.8343 101.201 35.5272 99.3638 35.5272 97.9476ZM46.7309 96.6462L47.9327 95.5617V95.4086H47.1315L46.4207 96.6462H46.7309ZM46.8087 99.7465H47.0672C46.5761 100.652 45.9817 101.201 45.4131 101.188C44.922 101.188 44.6119 100.844 44.6119 100.193C44.6119 98.8152 45.7491 97.0927 46.7441 97.0927C47.3127 97.0927 47.8167 97.5138 47.4032 98.4834L45.2968 99.1724C45.258 99.351 45.2322 99.5552 45.2322 99.7465C45.2322 100.219 45.4131 100.436 45.7749 100.436C46.1238 100.436 46.4857 100.129 46.8087 99.7465ZM46.7429 98.3686C46.872 97.8838 46.6266 97.6669 46.3423 97.6669C46.0321 97.6669 45.6445 98.1134 45.4377 98.7131L46.7429 98.3686ZM42.9293 97.693H42.2315V97.3741L43.0973 97.2592L43.821 96.1754H44.2216L43.8339 97.2592H44.8548L44.7255 97.693H43.6788L42.6579 100.513C43.1231 100.436 43.7434 100.002 44.0277 99.6068H44.2216C43.8597 100.551 42.9164 101.214 42.1281 101.214C41.8567 101.214 41.7146 100.959 41.818 100.704L42.9293 97.693ZM41.8721 98.0248C42.0142 97.5399 41.9367 97.1061 41.562 97.1061C41.0946 97.1061 40.9483 97.4111 40.4954 98.3546L40.4635 98.4203V97.8589C40.4635 97.4634 40.3343 97.1061 39.9725 97.1061C39.5461 97.1061 39.1584 97.7568 38.8612 98.4075H39.055C39.2618 98.1141 39.4556 97.9354 39.5978 97.9354C39.7787 97.9354 39.8821 98.2161 39.5978 98.8286L38.7707 100.64C38.6157 100.985 38.7837 101.202 39.1196 101.202C39.3264 101.202 39.4169 101.151 39.5073 100.934L40.3214 98.8158C40.554 98.5351 40.7608 98.2927 41.0192 98.0248H41.8721ZM37.776 98.3686C37.9052 97.8838 37.6597 97.6669 37.3754 97.6669C37.0653 97.6669 36.6905 98.1134 36.4708 98.7131L37.776 98.3686ZM38.0982 99.7465H37.8398C37.5167 100.129 37.1549 100.436 36.806 100.436C36.4441 100.436 36.2633 100.219 36.2633 99.7465C36.2633 99.5552 36.2891 99.351 36.3279 99.1724L38.4342 98.4834C38.8478 97.5138 38.3567 97.0927 37.7752 97.0927C36.7801 97.0927 35.643 98.8152 35.643 100.193C35.643 100.844 35.9532 101.188 36.4441 101.188C37.0127 101.201 37.6072 100.652 38.0982 99.7465ZM32.6718 100.232C32.6718 100.398 32.969 100.589 33.1758 100.589C34.0157 100.589 34.804 99.0965 34.7911 98.2672C34.7911 97.9865 34.6489 97.8717 34.4551 97.8717C34.145 97.8717 33.5764 98.331 33.2145 98.7648L32.8785 99.6579C32.7622 99.9513 32.6718 100.181 32.6718 100.232ZM31.3152 97.1061C31.4702 97.1061 31.6512 97.2592 31.5736 97.5399L30.3331 100.538C30.6561 100.487 30.9921 100.181 31.1859 99.9003H31.3798C31.0826 100.653 30.4106 101.202 29.8291 101.202C29.674 101.202 29.4673 101.049 29.5706 100.768L30.7336 97.7696C30.4106 97.8206 30.0746 98.1268 29.8808 98.4075H29.6869C29.9842 97.6548 30.7078 97.1061 31.3152 97.1061ZM25.9513 95.7799H28.7296L28.6521 96.0223C27.7087 96.1875 27.5537 96.2641 27.166 97.2975L26.339 99.543C25.9384 100.615 26.0417 100.742 26.7525 100.742C27.6306 100.742 28.2064 100.112 28.7091 99.5622C28.7465 99.5213 28.7834 99.4805 28.8201 99.441H29.1431L28.2256 101.049H24L24.0775 100.819C25.008 100.653 25.163 100.576 25.5507 99.543L26.3907 97.2848C26.7654 96.2513 26.6879 96.1748 25.8738 96.0095L25.9513 95.7799Z" fill="black"/>
</svg>
