<svg width="282" height="150" viewBox="0 0 282 150" fill="none" xmlns="http://www.w3.org/2000/svg">
<rect width="282" height="150" fill="white"/>
<path d="M143.101 24.219H145.642L149.266 33.8047H147.201L146.284 31.3156H142.449L141.535 33.8047H139.477L143.101 24.219ZM145.683 29.6509L144.37 26.0562L143.06 29.6509H145.683Z" fill="#273375"/>
<path d="M157.287 31.4082V29.8106H154.849V28.0468H159.227V32.1048C158.735 32.732 158.103 33.2355 157.381 33.575C156.66 33.9145 155.869 34.0807 155.072 34.0602C151.966 34.0602 149.847 31.7373 149.847 29.0022C149.86 27.9459 150.199 26.9194 150.818 26.0637C151.438 25.208 152.307 24.5652 153.307 24.2237C154.307 23.8822 155.388 23.8588 156.402 24.1566C157.415 24.4544 158.312 25.0589 158.968 25.8868L157.437 27.0755C157.16 26.6675 156.787 26.3342 156.351 26.1051C155.914 25.8761 155.428 25.7583 154.935 25.7622C153.129 25.7622 151.845 27.1713 151.845 29.0022C151.832 29.4299 151.907 29.8557 152.065 30.2535C152.223 30.6513 152.46 31.0128 152.762 31.3159C153.064 31.6191 153.425 31.8576 153.822 32.0168C154.219 32.1761 154.645 32.2527 155.072 32.2421C155.89 32.2578 156.683 31.9593 157.287 31.4082Z" fill="#273375"/>
<path d="M161.518 24.219H167.098V25.8709H163.477V28.0852H166.567V29.7403H163.477V32.1336H167.114V33.7887H161.518V24.219Z" fill="#273375"/>
<path d="M169.488 24.219H171.974L176.26 31.0664V24.219H178.203V33.8047H175.713L171.428 26.9126V33.7887H169.488V24.219Z" fill="#273375"/>
<path d="M187.765 30.9289L189.295 32.1047C188.828 32.7292 188.218 33.2326 187.517 33.5728C186.815 33.913 186.042 34.0802 185.262 34.0602C184.406 34.0521 183.566 33.827 182.821 33.4059C182.076 32.9849 181.45 32.3816 181.001 31.6527C180.553 30.9237 180.297 30.0929 180.257 29.238C180.217 28.3831 180.395 27.532 180.773 26.7645C181.152 25.997 181.719 25.3381 182.422 24.8495C183.125 24.3609 183.94 24.0587 184.792 23.971C185.643 23.8833 186.503 24.013 187.291 24.3481C188.078 24.6832 188.768 25.2126 189.295 25.8868L187.765 27.0754C187.488 26.6675 187.115 26.3342 186.678 26.1051C186.242 25.876 185.755 25.7582 185.262 25.7622C183.457 25.7622 182.172 27.1713 182.172 29.0022C182.172 30.833 183.45 32.2421 185.262 32.2421C185.755 32.2461 186.242 32.1283 186.678 31.8992C187.115 31.6701 187.488 31.3368 187.765 30.9289Z" fill="#273375"/>
<path d="M191.12 24.219H196.712V25.8709H193.06V28.0852H196.15V29.7403H193.06V32.1336H196.712V33.7887H191.12V24.219Z" fill="#273375"/>
<path d="M140.679 38.8562H143.168L147.447 45.7163V38.8562H149.39V48.4259H146.901L142.622 41.5626V48.4387H140.679V38.8562Z" fill="#273375"/>
<path d="M154.619 38.8562H157.175L160.799 48.4259H158.735L157.817 45.94H153.983L153.065 48.4259H151.001L154.619 38.8562ZM157.204 44.2881L155.89 40.6935L154.577 44.2881H157.204Z" fill="#273375"/>
<path d="M160.454 38.8562H168.299V40.62H165.347V48.4259H163.407V40.62H160.454V38.8562Z" fill="#273375"/>
<path d="M170.143 38.8562H172.083V48.4259H170.143V38.8562Z" fill="#273375"/>
<path d="M184.249 43.6425C184.254 44.6487 183.959 45.6335 183.403 46.4721C182.847 47.3107 182.054 47.9654 181.126 48.3531C180.197 48.7407 179.174 48.844 178.187 48.6497C177.2 48.4554 176.292 47.9724 175.58 47.2618C174.867 46.5513 174.382 45.6452 174.185 44.6584C173.988 43.6717 174.089 42.6487 174.474 41.7193C174.86 40.7898 175.512 39.9957 176.35 39.4376C177.187 38.8795 178.171 38.5826 179.178 38.5845C179.846 38.5711 180.511 38.6926 181.131 38.9419C181.752 39.1912 182.316 39.5631 182.789 40.0353C183.263 40.5075 183.636 41.0703 183.887 41.6901C184.138 42.31 184.261 42.974 184.249 43.6425ZM182.252 43.6425C182.252 41.8085 180.974 40.4026 179.178 40.4026C177.382 40.4026 176.087 41.8085 176.087 43.6425C176.087 45.4766 177.366 46.8825 179.178 46.8825C180.99 46.8825 182.239 45.4734 182.239 43.6425H182.252Z" fill="#273375"/>
<path d="M186.227 38.8562H188.723L192.996 45.7163V38.8562H194.936V48.4259H192.446L188.167 41.5626V48.4387H186.227V38.8562Z" fill="#273375"/>
<path d="M200.167 38.8562H202.724L206.344 48.4259H204.28L203.366 45.94H199.531L198.614 48.4259H196.55L200.167 38.8562ZM202.749 44.2881L201.439 40.6935L200.126 44.2881H202.749Z" fill="#273375"/>
<path d="M207.942 38.8562H209.882V46.6749H213.519V48.4387H207.942V38.8562Z" fill="#273375"/>
<path d="M215.363 38.8562H220.939V40.5113H217.302V42.7256H220.393V44.3807H217.302V46.774H220.939V48.4259H215.363V38.8562Z" fill="#273375"/>
<path d="M140.858 53.4968H144.494C147.46 53.4968 149.486 55.6983 149.486 58.2897C149.486 60.881 147.46 63.0825 144.494 63.0825H140.858V53.4968ZM141.733 54.302V62.2613H144.507C145.039 62.2764 145.569 62.1846 146.065 61.9914C146.561 61.7982 147.014 61.5075 147.395 61.1364C147.777 60.7654 148.081 60.3216 148.288 59.8312C148.495 59.3409 148.602 58.814 148.602 58.2817C148.602 57.7494 148.495 57.2224 148.288 56.7321C148.081 56.2418 147.777 55.7979 147.395 55.4269C147.014 55.0559 146.561 54.7652 146.065 54.5719C145.569 54.3787 145.039 54.2869 144.507 54.302H141.733Z" fill="#273375"/>
<path d="M151.832 53.4968H156.699V54.2765H152.704V57.8168H156.149V58.5836H152.704V62.2869H156.699V63.0665H151.832V53.4968Z" fill="#273375"/>
<path d="M163.036 53.4968H163.912V62.2613H167.903V63.0665H163.036V53.4968Z" fill="#273375"/>
<path d="M172.946 53.4968H174.135L178.072 63.0825H177.155L175.94 60.0598H171.147L169.916 63.0665H168.986L172.946 53.4968ZM175.611 59.2802L173.547 54.1678L171.47 59.2802H175.611Z" fill="#273375"/>
<path d="M190.41 60.21L191.941 61.3858C191.473 62.0095 190.863 62.5123 190.162 62.8525C189.46 63.1926 188.688 63.3602 187.908 63.3413C187.051 63.3339 186.211 63.1092 185.464 62.6882C184.718 62.2672 184.091 61.6637 183.642 60.9343C183.192 60.2049 182.936 59.3733 182.895 58.5176C182.855 57.6619 183.033 56.81 183.412 56.0416C183.791 55.2733 184.359 54.6138 185.062 54.1247C185.766 53.6357 186.582 53.3332 187.434 53.2455C188.286 53.1579 189.147 53.288 189.935 53.6237C190.724 53.9593 191.414 54.4896 191.941 55.1647L190.41 56.3533C190.134 55.9454 189.761 55.6121 189.324 55.383C188.888 55.1539 188.401 55.0361 187.908 55.0401C186.103 55.0401 184.818 56.4492 184.818 58.28C184.818 60.1109 186.096 61.52 187.908 61.52C188.401 61.5246 188.887 61.4074 189.324 61.1789C189.76 60.9503 190.134 60.6175 190.41 60.21Z" fill="#273375"/>
<path d="M203.024 58.2799C203.028 59.2852 202.733 60.2689 202.177 61.1065C201.621 61.9441 200.829 62.5979 199.901 62.9849C198.973 63.372 197.951 63.4749 196.965 63.2806C195.978 63.0864 195.072 62.6037 194.36 61.8938C193.648 61.1838 193.163 60.2786 192.966 59.2928C192.77 58.3069 192.87 57.2849 193.255 56.3562C193.639 55.4274 194.291 54.6338 195.128 54.0758C195.964 53.5178 196.947 53.2206 197.952 53.2219C198.621 53.2089 199.285 53.3308 199.906 53.5802C200.526 53.8296 201.09 54.2015 201.563 54.6736C202.036 55.1458 202.41 55.7084 202.661 56.328C202.912 56.9477 203.035 57.6115 203.024 58.2799ZM201.03 58.2799C201.03 56.4491 199.752 55.04 197.952 55.04C196.153 55.04 194.862 56.4491 194.862 58.2799C194.862 60.1108 196.14 61.5199 197.952 61.5199C199.764 61.5199 201.03 60.114 201.03 58.2799Z" fill="#273375"/>
<path d="M205.021 53.4968H206.964V57.3119H211.79V53.4968H213.733V63.0825H211.79V59.0757H206.964V63.0665H205.021V53.4968Z" fill="#273375"/>
<path d="M216.526 53.4969H222.106V55.152H218.478V57.3663H221.569V59.0182H218.478V61.4114H222.115V63.0665H216.526V53.4969ZM218.415 52.6757L219.958 50.832H221.959L220.179 52.6757H218.415Z" fill="#273375"/>
<path d="M225.049 60.443C225.29 60.7866 225.606 61.0708 225.973 61.274C226.34 61.4772 226.749 61.594 227.168 61.6157C227.935 61.6157 228.401 61.2067 228.401 60.5101C228.401 58.8007 224.023 59.1841 224.023 55.9985C224.023 54.4807 225.269 53.2218 227.088 53.2218C227.731 53.2164 228.366 53.3575 228.947 53.6343C229.527 53.9111 230.037 54.3164 230.437 54.8194L229.015 56.0975C228.455 55.3754 227.826 54.9089 227.097 54.9089C226.958 54.8961 226.817 54.9123 226.684 54.9564C226.552 55.0005 226.429 55.0716 226.325 55.1652C226.221 55.2588 226.137 55.3729 226.079 55.5003C226.021 55.6278 225.99 55.7658 225.988 55.9058C225.988 57.6153 230.367 57.2191 230.367 60.459C230.338 62.2356 228.944 63.3347 227.193 63.3347C226.517 63.3661 225.843 63.2378 225.226 62.9602C224.608 62.6827 224.065 62.2636 223.64 61.7371L225.049 60.443Z" fill="#273375"/>
<path d="M232.54 53.4968H234.479V63.0825H232.54V53.4968Z" fill="#273375"/>
<path d="M246.633 58.2799C246.637 59.2861 246.343 60.2709 245.787 61.1095C245.231 61.9481 244.438 62.6028 243.51 62.9904C242.581 63.3781 241.558 63.4814 240.571 63.2871C239.583 63.0928 238.676 62.6098 237.963 61.8992C237.251 61.1886 236.765 60.2825 236.569 59.2958C236.372 58.3091 236.473 57.2861 236.858 56.3566C237.243 55.4272 237.896 54.6331 238.733 54.075C239.571 53.5169 240.555 53.22 241.561 53.2219C242.23 53.2089 242.894 53.3308 243.514 53.5802C244.135 53.8296 244.698 54.2015 245.172 54.6736C245.645 55.1458 246.019 55.7084 246.27 56.328C246.521 56.9477 246.644 57.6115 246.633 58.2799ZM244.636 58.2799C244.636 56.4491 243.357 55.04 241.561 55.04C239.765 55.04 238.471 56.4491 238.471 58.2799C238.471 60.1108 239.749 61.5199 241.561 61.5199C243.373 61.5199 244.648 60.114 244.648 58.2799H244.636Z" fill="#273375"/>
<path d="M248.624 53.4968H251.11L255.392 60.3474V53.4968H257.332V63.0825H254.843L250.563 56.2064V63.0665H248.624V53.4968Z" fill="#273375"/>
<path d="M140.858 68.1375H144.494C147.46 68.1375 149.486 70.3358 149.486 72.9303C149.486 75.5248 147.46 77.7231 144.494 77.7231H140.858V68.1375ZM141.733 68.9426V76.8988H144.507C145.562 76.8988 146.574 76.4796 147.321 75.7336C148.067 74.9876 148.486 73.9758 148.486 72.9207C148.486 71.8657 148.067 70.8538 147.321 70.1078C146.574 69.3618 145.562 68.9426 144.507 68.9426H141.733Z" fill="#273375"/>
<path d="M151.832 68.1375H156.699V68.9171H152.704V72.4574H156.149V73.2211H152.704V76.9275H156.699V77.7071H151.832V68.1375Z" fill="#273375"/>
<path d="M159.345 75.8058C160.07 76.7229 160.879 77.1734 161.847 77.1734C163.065 77.1734 163.765 76.3522 163.765 75.3681C163.765 73.0995 159.144 73.2752 159.144 70.2973C159.151 69.9656 159.224 69.6388 159.359 69.3358C159.494 69.0328 159.688 68.7599 159.93 68.5331C160.172 68.3063 160.457 68.1301 160.768 68.0149C161.079 67.8998 161.41 67.848 161.742 67.8625C162.309 67.8529 162.869 67.9885 163.369 68.2563C163.869 68.5242 164.293 68.9155 164.599 69.393L163.931 69.9426C163.368 69.0927 162.653 68.6645 161.755 68.6645C161.532 68.6492 161.309 68.6807 161.099 68.757C160.889 68.8333 160.698 68.9526 160.537 69.1073C160.376 69.2621 160.25 69.4487 160.166 69.6553C160.081 69.8619 160.041 70.0839 160.048 70.3069C160.048 72.617 164.669 72.4253 164.669 75.3904C164.669 76.9082 163.493 77.9754 161.866 77.9754C161.252 77.9856 160.644 77.8482 160.094 77.5746C159.544 77.301 159.068 76.8993 158.706 76.4033L159.345 75.8058Z" fill="#273375"/>
<path d="M169.91 68.1375H177.755V69.9012H174.803V77.7071H172.863V69.9012H169.91V68.1375Z" fill="#273375"/>
<path d="M179.599 68.1375H185.176V69.7894H181.539V72.0037H184.63V73.6588H181.539V76.052H185.176V77.7071H179.599V68.1375Z" fill="#273375"/>
<path d="M187.566 68.1375H190.49C192.596 68.1375 193.897 69.2174 193.897 70.994C193.917 71.5121 193.782 72.0244 193.508 72.4651C193.235 72.9058 192.836 73.2547 192.363 73.4671L195.373 77.7071H193.047L190.506 73.8345H189.506V77.7039H187.566V68.1375ZM189.506 69.7894V72.1826H190.599C191.42 72.1826 191.9 71.7449 191.9 70.9652C191.9 70.2431 191.42 69.7894 190.599 69.7894H189.506Z" fill="#273375"/>
<path d="M196.713 68.1375H199.64C201.746 68.1375 203.043 69.2174 203.043 70.994C203.064 71.5118 202.929 72.0238 202.656 72.4645C202.383 72.9051 201.985 73.2542 201.512 73.4671L204.52 77.7071H202.196L199.64 73.8377H198.643V77.7071H196.713V68.1375ZM198.656 69.7894V72.1826H199.748C200.57 72.1826 201.049 71.7449 201.049 70.9652C201.049 70.2431 200.57 69.7894 199.748 69.7894H198.656Z" fill="#273375"/>
<path d="M205.849 68.1375H207.792V77.7231H205.849V68.1375Z" fill="#273375"/>
<path d="M209.62 68.1375H217.485V69.9012H214.532V77.7071H212.589V69.9012H209.636L209.62 68.1375Z" fill="#273375"/>
<path d="M228.213 72.9207C228.217 73.9267 227.923 74.9114 227.367 75.7499C226.811 76.5885 226.018 77.2431 225.09 77.6309C224.162 78.0187 223.139 78.1221 222.152 77.9281C221.164 77.7341 220.257 77.2513 219.544 76.5411C218.832 75.8308 218.346 74.9251 218.149 73.9385C217.952 72.952 218.052 71.9291 218.437 70.9996C218.822 70.0701 219.474 69.2758 220.311 68.7173C221.148 68.1588 222.132 67.8614 223.138 67.8626C223.807 67.8488 224.472 67.97 225.092 68.2191C225.713 68.4682 226.278 68.84 226.751 69.3122C227.225 69.7845 227.599 70.3475 227.85 70.9675C228.101 71.5875 228.224 72.2519 228.213 72.9207ZM226.215 72.9207C226.215 71.0898 224.937 69.6807 223.138 69.6807C221.339 69.6807 220.041 71.0898 220.041 72.9207C220.041 74.7515 221.319 76.1606 223.131 76.1606C224.943 76.1606 226.215 74.7547 226.215 72.9207Z" fill="#273375"/>
<path d="M230.2 68.1375H232.143V77.7231H230.2V68.1375Z" fill="#273375"/>
<path d="M234.959 68.1375H237.883C239.989 68.1375 241.29 69.2174 241.29 70.994C241.31 71.5121 241.174 72.0244 240.901 72.4651C240.628 72.9058 240.229 73.2547 239.756 73.4671L242.766 77.7071H240.439L237.883 73.8377H236.886V77.7071H234.946L234.959 68.1375ZM236.899 69.7894V72.1826H237.992C238.813 72.1826 239.292 71.7449 239.292 70.9652C239.292 70.2431 238.813 69.7894 237.992 69.7894H236.899Z" fill="#273375"/>
<path d="M244.099 68.1375H249.678V69.7894H246.042V72.0037H249.122V73.6588H246.032V76.052H249.669V77.7071H244.099V68.1375Z" fill="#273375"/>
<path d="M252.612 75.0806C252.853 75.4249 253.17 75.7097 253.537 75.9134C253.905 76.1172 254.314 76.2345 254.734 76.2565C255.498 76.2565 255.964 75.8475 255.964 75.1509C255.964 73.4415 251.589 73.8249 251.589 70.6393C251.589 69.1216 252.833 67.8626 254.651 67.8626C255.295 67.8584 255.932 68.0016 256.512 68.2813C257.093 68.561 257.602 68.9697 258 69.4762L256.578 70.7543C256.019 70.029 255.389 69.5657 254.66 69.5657C254.521 69.5534 254.381 69.5699 254.249 69.6142C254.116 69.6585 253.994 69.7297 253.89 69.8232C253.787 69.9168 253.703 70.0307 253.645 70.1579C253.588 70.2852 253.557 70.4229 253.555 70.5626C253.555 72.272 257.93 71.8758 257.93 75.1158C257.901 76.8923 256.508 77.9915 254.756 77.9915C254.08 78.0223 253.406 77.8938 252.789 77.6163C252.172 77.3388 251.628 76.92 251.203 76.3939L252.612 75.0806Z" fill="#273375"/>
<path d="M24.0351 27.2993H26.9975C29.1291 27.2993 30.4457 28.3921 30.4457 30.1942C30.4654 30.7188 30.3281 31.2374 30.0515 31.6837C29.7748 32.1299 29.3713 32.4835 28.8926 32.6992L31.9413 36.9904H29.5765L27.0199 33.0731H26.0005V36.9904H24.0351V27.2993ZM26.0005 28.9736V31.3956H27.1094C27.9403 31.3956 28.4228 30.9547 28.4228 30.1654C28.4228 29.4305 27.9403 28.9736 27.1094 28.9736H26.0005Z" fill="black"/>
<path d="M33.1589 27.2991H38.8089V28.9734H35.1243V31.21H38.2529V32.8843H35.1243V35.3095H38.8089V36.9838H33.1589V27.2991ZM35.0763 26.4683L36.639 24.5991H38.6619L36.8627 26.4683H35.0763Z" fill="black"/>
<path d="M41.0811 27.2993H44.2769C46.4084 27.2993 47.7123 28.3921 47.7123 30.1942C47.7123 31.9963 46.4084 33.0699 44.2769 33.0699H43.0465V36.9872H41.0811V27.2993ZM43.0497 28.9736V31.3956H44.3631C45.194 31.3956 45.6926 30.9547 45.6926 30.1654C45.6926 29.4305 45.194 28.9736 44.3631 28.9736H43.0497Z" fill="black"/>
<path d="M55.0624 27.2993H57.0277V33.1977C57.0277 35.7539 55.5321 37.2652 53.097 37.2652C50.6619 37.2652 49.179 35.7443 49.179 33.1977V27.2993H51.1444V33.3702C51.1444 34.6707 51.8762 35.4312 53.1098 35.4312C54.3433 35.4312 55.0624 34.6707 55.0624 33.3702V27.2993Z" fill="black"/>
<path d="M59.466 27.2993H62.2208C64.2405 27.2993 65.4612 28.2962 65.4612 29.929C65.4647 30.3089 65.3726 30.6836 65.1934 31.0186C65.0141 31.3537 64.7535 31.6382 64.4354 31.8461C64.9034 32.0218 65.3068 32.3356 65.5922 32.746C65.8776 33.1563 66.0314 33.6437 66.0333 34.1435C66.0333 35.9168 64.6623 36.9968 62.4349 36.9968H59.4724L59.466 27.2993ZM61.4314 28.9736V31.0921H62.2623C63.0101 31.0921 63.4383 30.7182 63.4383 30.028C63.4383 29.3379 63.0101 28.9736 62.2623 28.9736H61.4314ZM61.4314 32.7823V35.3161H62.5371C63.4511 35.3161 64.0072 34.8305 64.0072 34.038C64.0072 33.2456 63.4511 32.7919 62.5371 32.7919L61.4314 32.7823Z" fill="black"/>
<path d="M68.0338 27.2993H70.0023V35.2043H73.6774V36.9904H68.0338V27.2993Z" fill="black"/>
<path d="M75.4159 27.2993H77.3812V36.9904H75.4159V27.2993Z" fill="black"/>
<path d="M90.2568 37.6679C90.4927 37.6714 90.7274 37.6335 90.9502 37.556V39.2175C90.6244 39.348 90.2752 39.41 89.9244 39.3997C88.8442 39.3997 87.8472 38.9555 86.8917 38.1216L85.7444 37.0895C85.3105 37.203 84.8635 37.2588 84.415 37.2557C83.4047 37.2513 82.4183 36.9477 81.5804 36.3832C80.7425 35.8188 80.0906 35.0188 79.707 34.0843C79.3235 33.1497 79.2254 32.1225 79.4252 31.1323C79.625 30.1421 80.1138 29.2332 80.8297 28.5205C81.5457 27.8078 82.4568 27.3231 83.448 27.1276C84.4393 26.9322 85.4662 27.0347 86.3992 27.4223C87.3322 27.8099 88.1295 28.4651 88.6903 29.3054C89.2512 30.1456 89.5505 31.1331 89.5505 32.1433C89.5582 32.9183 89.3896 33.6849 89.0574 34.3851C88.7253 35.0854 88.2382 35.7009 87.6331 36.1853L88.2147 36.7412C88.9689 37.409 89.6336 37.6679 90.2568 37.6679ZM87.5308 32.1433C87.5308 30.2901 86.227 28.865 84.415 28.865C82.603 28.865 81.2864 30.2901 81.2864 32.1433C81.2864 33.9965 82.587 35.4248 84.415 35.4248C86.2429 35.4248 87.5308 33.9997 87.5308 32.1433Z" fill="black"/>
<path d="M97.1532 27.2993H99.1186V33.1977C99.1186 35.7539 97.623 37.2652 95.1846 37.2652C92.7463 37.2652 91.2539 35.7443 91.2539 33.1977V27.2993H93.2225V33.3702C93.2225 34.6707 93.9543 35.4312 95.1878 35.4312C96.4214 35.4312 97.1404 34.6707 97.1404 33.3702L97.1532 27.2993Z" fill="black"/>
<path d="M101.554 27.2993H107.204V28.9736H103.522V31.2103H106.651V32.8846H103.522V35.3097H107.204V36.984H101.554V27.2993Z" fill="black"/>
<path d="M24.0351 41.2717H29.6819V42.946H26.0005V45.1827H29.1291V46.857H26.0005V50.9565H24.0351V41.2717Z" fill="black"/>
<path d="M31.4141 41.2717H34.3701C36.5017 41.2717 37.8183 42.3645 37.8183 44.1666C37.8401 44.6892 37.7063 45.2066 37.4338 45.6531C37.1613 46.0996 36.7624 46.4552 36.2876 46.6749L39.3331 50.966H36.9651L34.3925 47.0487H33.3795V50.966H31.4141V41.2717ZM33.3795 42.946V45.368H34.4884C35.3193 45.368 35.8018 44.9271 35.8018 44.1378C35.8018 43.4029 35.3193 42.946 34.4884 42.946H33.3795Z" fill="black"/>
<path d="M43.4044 41.2717H45.9801L49.6488 50.9628H47.5588L46.6289 48.4418H42.7525L41.8257 50.9628H39.7357L43.4044 41.2717ZM46.0217 46.7675L44.6923 43.1282L43.3629 46.7675H46.0217Z" fill="black"/>
<path d="M51.1444 41.2717H53.6626L57.996 48.2086V41.2717H59.9646V50.9628H57.4432L53.1098 44.0005V50.9628H51.1444V41.2717Z" fill="black"/>
<path d="M69.523 48.0682L71.0729 49.26C70.6812 49.7908 70.1841 50.2351 69.6128 50.5649C69.0415 50.8948 68.4082 51.1032 67.7526 51.1771L66.5478 53.1837H64.8029L66.0205 51.1484C65.2092 50.9856 64.4493 50.6291 63.8056 50.1093C63.1618 49.5896 62.6534 48.9218 62.3234 48.1631C61.9935 47.4044 61.852 46.5772 61.9109 45.752C61.9697 44.9268 62.2273 44.128 62.6616 43.4238C63.0959 42.7196 63.694 42.1308 64.405 41.7077C65.116 41.2845 65.9188 41.0395 66.745 40.9935C67.5712 40.9476 68.3962 41.102 69.1498 41.4437C69.9034 41.7853 70.5632 42.3041 71.0729 42.9558L69.523 44.1668C69.2428 43.7536 68.8649 43.4161 68.4227 43.1842C67.9806 42.9523 67.488 42.8332 66.9888 42.8376C65.164 42.8376 63.8602 44.2627 63.8602 46.1159C63.8602 47.9691 65.164 49.3974 66.9888 49.3974C67.488 49.4018 67.9806 49.2827 68.4227 49.0508C68.8649 48.8189 69.2428 48.4814 69.523 48.0682Z" fill="black"/>
<path d="M75.1666 41.2717H77.7424L81.4111 50.9628H79.3179L78.3911 48.4418H74.5147L73.588 50.9628H71.498L75.1666 41.2717ZM77.7807 46.7675L76.4545 43.1282L75.1251 46.7675H77.7807Z" fill="black"/>
<path d="M82.9066 41.2717H84.8624V50.9628H82.897L82.9066 41.2717Z" fill="black"/>
<path d="M88.138 48.3047C88.382 48.6531 88.7022 48.9412 89.0744 49.1472C89.4465 49.3532 89.8607 49.4715 90.2855 49.4933C91.0589 49.4933 91.5319 49.0811 91.5319 48.375C91.5319 46.6431 87.0994 47.0298 87.0994 43.8058C87.0994 42.2689 88.3617 40.994 90.2025 40.994C90.855 40.9897 91.5 41.1349 92.0877 41.4184C92.6755 41.702 93.1904 42.1165 93.5931 42.6299L92.155 43.908C91.5862 43.1731 90.9502 42.7034 90.2152 42.7034C90.0741 42.6907 89.9319 42.7072 89.7974 42.7519C89.663 42.7967 89.5393 42.8687 89.4339 42.9635C89.3286 43.0583 89.2441 43.1738 89.1855 43.3028C89.1269 43.4318 89.0956 43.5715 89.0935 43.7131C89.0935 45.4417 93.526 45.0423 93.526 48.3238C93.4972 50.1227 92.0847 51.2283 90.3111 51.2283C89.6262 51.2595 88.9437 51.1291 88.3185 50.8477C87.6934 50.5663 87.1433 50.1417 86.7127 49.6083L88.138 48.3047Z" fill="black"/>
<path d="M95.5872 41.2717H101.237V42.946H97.5526V45.1827H100.681V46.857H97.5526V49.2822H101.237V50.9565H95.5872V41.2717Z" fill="black"/>
<path d="M55.5705 77.7198C55.8325 77.7198 56.0594 77.9179 55.9412 78.4227L54.7172 78.7071C54.9313 78.1384 55.2861 77.7198 55.5705 77.7198ZM56.2448 79.688H56.0051C55.6855 80.0491 55.3659 80.3271 55.0464 80.3271C54.7268 80.3271 54.5446 80.129 54.5446 79.688C54.5445 79.5067 54.5627 79.3257 54.599 79.148L56.5675 78.509C56.951 77.6016 56.4908 77.2022 55.9508 77.2022C55.0208 77.2022 53.9598 78.7582 53.9598 80.1226C53.9598 80.7329 54.2506 81.0811 54.7076 81.0811C55.2413 81.0811 55.7942 80.5603 56.248 79.7104L56.2448 79.688ZM55.8581 76.8539L57.245 75.5758V75.4256H56.4972L55.644 76.8698L55.8581 76.8539ZM51.6078 77.7613H52.2469L51.2083 80.5955C51.1783 80.6448 51.1621 80.7013 51.1616 80.759C51.1611 80.8167 51.1762 80.8735 51.2054 80.9233C51.2346 80.9731 51.2767 81.0141 51.3273 81.0419C51.3779 81.0697 51.435 81.0832 51.4927 81.0811C52.0839 81.0811 53.0363 80.4964 53.3686 79.7008H53.1833C52.8591 80.0494 52.4441 80.3006 51.9849 80.4261L52.9436 77.7613H53.9023L54.0237 77.3587H53.065L53.4293 76.3331H53.0522L52.4099 77.3491L51.6046 77.461L51.6078 77.7613ZM50.729 77.6271C50.7486 77.5849 50.7578 77.5386 50.7559 77.492C50.7539 77.4455 50.7407 77.4001 50.7176 77.3597C50.6944 77.3193 50.6618 77.2851 50.6227 77.2599C50.5835 77.2347 50.5389 77.2193 50.4925 77.2149C49.9236 77.2149 49.2493 77.7262 48.9809 78.4451H49.1631C49.3458 78.1562 49.6257 77.942 49.9524 77.8412L48.8659 80.669C48.8447 80.7108 48.8341 80.7572 48.8352 80.804C48.8363 80.8509 48.8489 80.8968 48.872 80.9376C48.8951 80.9784 48.9279 81.0128 48.9676 81.0379C49.0072 81.0629 49.0524 81.0778 49.0991 81.0811C49.6392 81.0811 50.272 80.5603 50.5436 79.851H50.3487C50.1641 80.1382 49.8848 80.3518 49.5593 80.4549L50.729 77.6271ZM50.9271 76.2052C50.9886 76.2057 51.0497 76.1939 51.1066 76.1707C51.1636 76.1474 51.2154 76.1131 51.2591 76.0697C51.3027 76.0264 51.3374 75.9748 51.361 75.918C51.3847 75.8612 51.3969 75.8003 51.3969 75.7387C51.3969 75.6142 51.3474 75.4947 51.2593 75.4066C51.1712 75.3185 51.0517 75.269 50.9271 75.269C50.8025 75.269 50.683 75.3185 50.5949 75.4066C50.5068 75.4947 50.4573 75.6142 50.4573 75.7387C50.4569 75.8004 50.4688 75.8615 50.4923 75.9185C50.5158 75.9755 50.5504 76.0273 50.5942 76.0707C50.6379 76.1141 50.6899 76.1484 50.7471 76.1715C50.8042 76.1946 50.8654 76.2061 50.9271 76.2052ZM44.6635 80.5444C44.5229 80.8639 44.6635 81.0716 44.9831 81.0716C45.0636 81.082 45.1451 81.0614 45.211 81.0139C45.2769 80.9664 45.3222 80.8956 45.3378 80.8159L46.092 78.8189C46.4403 78.3908 47.1562 77.9371 47.4406 77.9371C47.6483 77.9371 47.6195 78.1064 47.4853 78.3652L46.3253 80.5859C46.2952 80.6352 46.2791 80.6917 46.2785 80.7494C46.278 80.8071 46.2932 80.8639 46.3223 80.9137C46.3515 80.9635 46.3936 81.0045 46.4442 81.0323C46.4948 81.0601 46.552 81.0737 46.6097 81.0716C47.1785 81.0716 47.8528 80.5603 48.1245 79.8414H47.9391C47.7545 80.1286 47.4753 80.3422 47.1498 80.4453L48.1468 78.4355C48.2615 78.2227 48.3271 77.9868 48.3386 77.7453C48.3458 77.6737 48.3372 77.6014 48.3135 77.5335C48.2897 77.4656 48.2513 77.4037 48.201 77.3522C48.1508 77.3007 48.0898 77.2609 48.0225 77.2355C47.9551 77.2101 47.883 77.1998 47.8113 77.2053C47.3223 77.2053 46.8238 77.7613 46.2326 78.4419V77.9147C46.2326 77.5408 46.1143 77.2053 45.7724 77.2053C45.5583 77.2053 45.3538 77.3907 45.162 77.6527V77.723C45.5295 77.7038 45.6925 78.2566 45.4305 78.8381L44.6635 80.5444ZM44.6635 78.0713C44.7977 77.6111 44.7274 77.2053 44.3695 77.2053C43.9508 77.2053 43.8454 77.5249 43.4108 78.4419V77.9147C43.4108 77.5408 43.2925 77.2053 42.9506 77.2053C42.5511 77.2053 42.19 77.8252 41.912 78.4355H42.0973C42.2891 78.1575 42.468 77.9946 42.6086 77.9946C42.7493 77.9946 42.8707 78.2566 42.6086 78.8381L41.8353 80.5444C41.6947 80.8639 41.8353 81.0716 42.1549 81.0716C42.2354 81.082 42.3169 81.0614 42.3828 81.0139C42.4487 80.9664 42.494 80.8956 42.5096 80.8159L43.2638 78.8189C43.4779 78.5569 43.6696 78.3269 43.9029 78.0713H44.6635ZM40.2981 77.7326C40.5634 77.7326 40.7903 77.9307 40.6688 78.4355L39.4481 78.7199C39.659 78.1511 40.0137 77.7326 40.2981 77.7326ZM40.9756 79.7008H40.7328C40.4132 80.0619 40.0936 80.3399 39.774 80.3399C39.4545 80.3399 39.2691 80.1418 39.2691 79.7008C39.27 79.5193 39.2893 79.3384 39.3266 79.1608L41.2952 78.5218C41.6787 77.6143 41.2153 77.2149 40.6752 77.2149C39.7453 77.2149 38.6875 78.771 38.6875 80.1354C38.6875 80.7457 38.9783 81.0939 39.4321 81.0939C39.9658 81.0939 40.5186 80.5731 40.9756 79.7232V79.7008ZM36.3355 77.7741H36.9746L35.9392 80.6083C35.9093 80.6573 35.8932 80.7135 35.8925 80.7709C35.8919 80.8284 35.9067 80.8849 35.9355 80.9346C35.9643 80.9843 36.006 81.0254 36.0561 81.0534C36.1062 81.0814 36.163 81.0954 36.2204 81.0939C36.8116 81.0939 37.7639 80.5092 38.0963 79.7136H37.9141C37.5885 80.0619 37.1725 80.313 36.7126 80.4389L37.6713 77.7741H38.63L38.7514 77.3715H37.7927L38.1538 76.3458H37.7991L37.1248 77.3491L36.3227 77.461L36.3355 77.7741ZM32.7467 79.9852C32.7467 79.1097 33.7054 77.9243 34.2678 77.9243C34.3757 77.9239 34.4832 77.9378 34.5874 77.9658L34.0186 79.4803C33.699 79.8766 33.1877 80.3622 32.9544 80.3622C32.817 80.3622 32.7339 80.2472 32.7339 79.9852H32.7467ZM35.7251 77.0296L35.4247 77.0072L35.1051 77.3268H35.0092C33.389 77.3268 31.9893 79.1448 31.9893 80.4645C31.982 80.5428 31.9919 80.6218 32.0185 80.6959C32.0451 80.7699 32.0877 80.8372 32.1432 80.893C32.1987 80.9488 32.2657 80.9917 32.3396 81.0187C32.4136 81.0457 32.4925 81.0561 32.5709 81.0492C32.9895 81.0492 33.4018 80.4517 33.8492 79.8126L33.8268 80.0395C33.7693 80.6786 33.9706 81.0492 34.3094 81.0492C34.7088 81.0492 35.07 80.4293 35.348 79.819H35.1626C34.9709 80.097 34.7919 80.26 34.6513 80.26C34.5107 80.26 34.3957 79.9884 34.6513 79.4132L35.7251 77.0296ZM32.2705 78.0585C32.4047 77.5984 32.3344 77.1926 31.9797 77.1926C31.5611 77.1926 31.4556 77.5121 31.021 78.4291V77.9019C31.021 77.5281 30.8995 77.1926 30.5608 77.1926C30.1613 77.1926 29.8002 77.8124 29.5222 78.4227H29.7075C29.8993 78.1447 30.075 77.9818 30.2189 77.9818C30.3627 77.9818 30.4809 78.2438 30.2189 78.8253L29.4583 80.5444C29.3145 80.8639 29.4583 81.0716 29.7778 81.0716C29.8584 81.082 29.9399 81.0614 30.0058 81.0139C30.0717 80.9664 30.117 80.8956 30.1326 80.8159L30.8868 78.8189C31.0977 78.5569 31.2894 78.3269 31.5259 78.0713L32.2705 78.0585ZM26.8378 80.915L26.9081 80.6945C25.9654 80.5188 25.8439 80.5188 26.221 79.4867L26.6045 78.4291H27.6495C28.1161 78.4291 28.1257 78.6208 28.0522 79.1321H28.3238L28.9629 77.4194H28.6945C28.4612 77.8252 28.2759 78.1224 27.7645 78.1224H26.7004L27.2468 76.6238C27.4194 76.1477 27.5185 76.0487 28.1576 76.0487H28.6178C29.2793 76.0487 29.3592 76.2276 29.3592 76.8954H29.6213L29.8418 75.7292H25.9174L25.8471 75.9496C26.6077 76.1062 26.678 76.1765 26.3233 77.1574L25.47 79.4867C25.1153 80.4613 24.9651 80.538 24.0927 80.6945L24.0288 80.915H26.8378Z" fill="black"/>
<path d="M46.0568 68.837C46.3189 68.837 46.5458 69.0351 46.4243 69.54L45.2036 69.8244C45.4177 69.2556 45.7724 68.837 46.0568 68.837ZM46.7311 70.8053H46.4882C46.1687 71.1695 45.8491 71.4443 45.5295 71.4443C45.21 71.4443 45.0246 71.2462 45.0246 70.8053C45.0255 70.6238 45.0448 70.4429 45.0821 70.2653L47.0507 69.6263C47.4342 68.7156 46.974 68.3194 46.4339 68.3194C45.5008 68.3194 44.443 69.8755 44.443 71.2398C44.443 71.8501 44.7338 72.1824 45.1908 72.1824C45.7213 72.1824 46.2773 71.6648 46.7311 70.8117V70.8053ZM46.3412 67.9551L47.725 66.6771V66.5269H46.9804L46.1271 67.9679L46.3412 67.9551ZM42.0909 68.8658H42.7301L41.7202 71.6936C41.691 71.7428 41.6756 71.7989 41.6755 71.8562C41.6754 71.9134 41.6907 71.9696 41.7197 72.0189C41.7488 72.0682 41.7906 72.1088 41.8407 72.1364C41.8908 72.1641 41.9474 72.1778 42.0047 72.176C42.5959 72.176 43.545 71.5945 43.8805 70.7989H43.6952C43.3692 71.1468 42.9534 71.3979 42.4936 71.5242L43.4523 68.8594H44.411L44.5325 68.4536H43.5738L43.9572 67.4439H43.5833L42.9058 68.4664L42.1037 68.5814L42.0909 68.8658ZM41.2089 68.722C41.2285 68.68 41.2378 68.6339 41.236 68.5876C41.2342 68.5413 41.2213 68.4961 41.1985 68.4558C41.1757 68.4155 41.1435 68.3812 41.1048 68.3558C41.066 68.3304 41.0217 68.3146 40.9756 68.3098C40.4068 68.3098 39.7325 68.8211 39.4609 69.5368H39.6462C39.833 69.2496 40.1146 69.037 40.442 68.9361L39.3554 71.7639C39.3334 71.8056 39.3222 71.8521 39.3228 71.8993C39.3235 71.9465 39.336 71.9927 39.3593 72.0338C39.3825 72.0748 39.4157 72.1094 39.4558 72.1342C39.4959 72.1591 39.5416 72.1735 39.5887 72.176C40.1288 72.176 40.7615 71.6584 41.0332 70.9491H40.8478C40.6632 71.2363 40.384 71.4499 40.0585 71.553L41.2089 68.722ZM41.4103 67.3001C41.5032 67.3001 41.594 67.2726 41.6712 67.221C41.7485 67.1694 41.8087 67.096 41.8443 67.0102C41.8798 66.9243 41.8891 66.8299 41.871 66.7388C41.8529 66.6477 41.8081 66.564 41.7424 66.4983C41.6767 66.4326 41.593 66.3879 41.5019 66.3698C41.4108 66.3516 41.3163 66.3609 41.2305 66.3965C41.1446 66.432 41.0713 66.4922 41.0197 66.5695C40.968 66.6467 40.9405 66.7375 40.9405 66.8304C40.9396 66.8917 40.9509 66.9525 40.9735 67.0094C40.9962 67.0664 41.0299 67.1183 41.0726 67.1622C41.1153 67.2061 41.1663 67.2412 41.2226 67.2654C41.2789 67.2896 41.3394 67.3025 41.4007 67.3033L41.4103 67.3001ZM37.6297 71.553L39.6111 66.3575L39.5472 66.2809L38.304 66.4214V66.5716L38.5469 66.7569C38.7674 66.9263 38.6939 67.0765 38.4958 67.6165L36.9458 71.6936C36.9166 71.7428 36.9012 71.7989 36.9011 71.8562C36.901 71.9134 36.9163 71.9696 36.9453 72.0189C36.9744 72.0682 37.0162 72.1088 37.0663 72.1364C37.1164 72.1641 37.173 72.1778 37.2303 72.176C37.7991 72.176 38.4031 71.6648 38.6747 70.9491H38.4894C38.2779 71.2403 37.9754 71.4527 37.6297 71.553ZM33.862 71.0673C33.862 70.195 34.8207 69.0096 35.3831 69.0096C35.491 69.0092 35.5985 69.0232 35.7027 69.0511L35.1339 70.5656C34.8143 70.9619 34.303 71.4443 34.0665 71.4443C33.9323 71.4443 33.846 71.3325 33.846 71.0673H33.862ZM36.8372 68.1501L36.54 68.1277L36.2204 68.4472H36.1469C34.5267 68.4472 33.127 70.2653 33.127 71.5881C33.1185 71.6688 33.1285 71.7503 33.1561 71.8266C33.1838 71.9029 33.2283 71.9719 33.2864 72.0285C33.3446 72.085 33.4148 72.1277 33.4917 72.1533C33.5687 72.1788 33.6505 72.1866 33.7309 72.176C34.1496 72.176 34.5618 71.5785 35.0092 70.9395L34.9901 71.1695C34.9325 71.8086 35.1307 72.176 35.4726 72.176C35.8689 72.176 36.2332 71.5594 36.508 70.9491H36.3259C36.1341 71.2239 35.9552 71.3868 35.8146 71.3868C35.6739 71.3868 35.5589 71.1184 35.8146 70.5433L36.8372 68.1501ZM29.6213 72.8758C29.6213 72.4988 29.9824 72.2655 30.5033 72.0578C30.7518 72.1725 31.0081 72.2696 31.2702 72.3486C31.8103 72.5275 32.0148 72.5978 32.0148 72.7608C32.0148 73.109 31.4268 73.3742 30.6215 73.3742C29.9472 73.3742 29.6213 73.2305 29.6213 72.8758ZM31.0913 70.5816C30.858 70.5816 30.7717 70.3803 30.7717 70.1535C30.7717 69.5144 31.1137 68.591 31.6441 68.591C31.8806 68.591 31.9637 68.7891 31.9637 69.0192C31.9637 69.6582 31.6218 70.5816 31.0881 70.5816H31.0913ZM32.6316 72.5275C32.6316 72.0738 32.2258 71.9108 31.5643 71.7095C30.9954 71.5402 30.7398 71.4891 30.7398 71.3069C30.7548 71.2054 30.7964 71.1097 30.8603 71.0294C30.9243 70.9492 31.0084 70.8873 31.1041 70.85C31.512 70.8202 31.8944 70.6405 32.1777 70.3455C32.4609 70.0505 32.6249 69.6611 32.638 69.2524C32.64 69.1182 32.6128 68.9852 32.5581 68.8626H33.3475L33.4689 68.4568H32.2226C32.0706 68.3639 31.8957 68.3153 31.7176 68.3162C31.2974 68.3206 30.8949 68.4856 30.5924 68.7773C30.29 69.069 30.1106 69.4654 30.091 69.8851C30.0765 70.1092 30.1451 70.3308 30.2836 70.5076C30.4221 70.6844 30.6209 70.804 30.842 70.8436C30.3818 71.0481 30.1262 71.291 30.1262 71.5753C30.1235 71.6502 30.1396 71.7245 30.1731 71.7915C30.2066 71.8585 30.2564 71.916 30.3179 71.9588C29.2506 72.2783 28.8319 72.6266 28.8319 73.1314C28.8319 73.6363 29.4711 73.828 30.2476 73.828C31.5451 73.828 32.6348 73.125 32.6348 72.5339L32.6316 72.5275ZM27.6591 69.4761C28.1289 69.4761 28.1353 69.6678 28.0649 70.179H28.3366L28.9757 68.4696H28.7073C28.4708 68.8722 28.2886 69.1725 27.7773 69.1725H26.7355L27.2532 67.7443C27.4258 67.2682 27.5249 67.1755 28.164 67.1755H28.6178C29.2793 67.1755 29.3592 67.3512 29.3592 68.0127H29.6213L29.8418 66.8496H25.9174L25.8471 67.0701C26.6077 67.2234 26.678 67.2969 26.3233 68.2779L25.47 70.6072C25.1153 71.5657 24.9651 71.6584 24.0927 71.815L24.0288 72.0354H28.3909L29.1739 70.7989H28.8735C28.6182 71.0759 28.3105 71.2996 27.9682 71.457C27.6259 71.6144 27.2558 71.7024 26.8793 71.7159C25.7193 71.7159 25.8279 71.6648 26.2114 70.6072L26.6237 69.4761H27.6591ZM28.2279 66.5013L29.6149 65.5428V65.3926H28.784L28.0138 66.4949L28.2279 66.5013Z" fill="black"/>
<path d="M45.5935 59.9576C45.8587 59.9576 46.0856 60.1557 45.9642 60.6605L44.7402 60.9449C44.9543 60.3761 45.309 59.9576 45.5935 59.9576ZM46.2677 61.9258H46.0281C45.7085 62.2869 45.3889 62.5649 45.0694 62.5649C44.7498 62.5649 44.5644 62.3668 44.5644 61.9258C44.5653 61.7444 44.5846 61.5634 44.622 61.3858L46.5905 60.7468C46.974 59.8393 46.5106 59.4399 45.9705 59.4399C45.0406 59.4399 43.9828 60.996 43.9828 62.3604C43.9828 62.9707 44.2736 63.3189 44.7274 63.3189C45.2611 63.3189 45.814 62.8013 46.2677 61.9482V61.9258ZM45.8747 59.0693L47.2616 57.7912V57.641H46.5138L45.6606 59.0853L45.8747 59.0693ZM41.8033 59.9767H42.321L41.2856 62.8141C41.2564 62.8633 41.2409 62.9195 41.2409 62.9767C41.2408 63.0339 41.2561 63.0901 41.2851 63.1394C41.3142 63.1887 41.356 63.2293 41.4061 63.257C41.4562 63.2846 41.5128 63.2983 41.57 63.2966C42.1581 63.2966 43.1104 62.715 43.4459 61.9162H43.2606C42.9377 62.2684 42.5225 62.523 42.0622 62.6511L43.0209 59.9863H43.9796L44.1011 59.5837H43.1423L43.5035 58.5613H43.1264L42.4521 59.5837L41.7842 59.6956L41.8033 59.9767ZM41.292 60.2963C41.4262 59.833 41.3559 59.4272 41.0012 59.4272C40.5826 59.4272 40.4739 59.7467 40.0425 60.6637V60.1397C40.0425 59.7627 39.9211 59.4272 39.5791 59.4272C39.1828 59.4272 38.8217 60.047 38.5437 60.6573H38.7291C38.9208 60.3793 39.0966 60.2164 39.2404 60.2164C39.3842 60.2164 39.5024 60.4784 39.2404 61.0631L38.4734 62.7662C38.3296 63.0857 38.4734 63.2934 38.793 63.2934C38.9847 63.2934 39.0678 63.2423 39.1477 63.0378L39.9083 61.0535C40.1224 60.7915 40.3141 60.5647 40.5474 60.309L41.292 60.2963ZM36.9267 59.9576C37.1887 59.9576 37.4156 60.1557 37.2942 60.6605L36.0734 60.9449C36.2875 60.3761 36.6422 59.9576 36.9267 59.9576ZM37.601 61.9258H37.3581C37.0385 62.2869 36.7189 62.5649 36.3994 62.5649C36.0798 62.5649 35.8945 62.3668 35.8945 61.9258C35.8997 61.7395 35.9244 61.5543 35.968 61.3731L37.9365 60.734C38.32 59.8266 37.8598 59.4272 37.3197 59.4272C36.3866 59.4272 35.3288 60.9832 35.3288 62.3476C35.3288 62.9579 35.6196 63.3062 36.0766 63.3062C36.6071 63.3062 37.1632 62.7885 37.6169 61.9354L37.601 61.9258ZM32.7722 62.7214C32.5805 62.7214 32.3057 62.5425 32.3057 62.3859C32.3556 62.1992 32.4197 62.0165 32.4974 61.8396L32.817 60.9928C33.1557 60.5902 33.6766 60.1557 33.9674 60.1557C34.1432 60.1557 34.287 60.2707 34.287 60.5327C34.287 61.306 33.5616 62.7214 32.7786 62.7214H32.7722ZM35.0156 60.2196C35.0156 59.6444 34.8015 59.4304 34.4052 59.4304C33.9067 59.4304 33.4465 59.9576 32.9672 60.5966L34.156 57.4781L34.0921 57.3982L32.8489 57.542V57.689L33.0886 57.8743C33.3091 58.0468 33.2388 58.2226 33.0407 58.7338L31.7624 62.0313C31.6772 62.2264 31.6088 62.4284 31.5579 62.6352C31.5611 62.9707 32.0212 63.2902 32.4527 63.2902C33.4114 63.2902 35.0316 61.5488 35.0316 60.2132L35.0156 60.2196ZM31.1648 59.8362C31.1844 59.7942 31.1937 59.7481 31.1919 59.7018C31.1901 59.6555 31.1772 59.6103 31.1544 59.57C31.1315 59.5296 31.0994 59.4953 31.0606 59.4699C31.0219 59.4445 30.9776 59.4288 30.9315 59.424C30.3627 59.424 29.6884 59.9352 29.4167 60.6541H29.6021C29.7857 60.366 30.0653 60.1521 30.3914 60.0502L29.3049 62.878C29.2828 62.9197 29.2716 62.9663 29.2723 63.0135C29.273 63.0606 29.2855 63.1069 29.3087 63.1479C29.332 63.189 29.3652 63.2235 29.4053 63.2484C29.4454 63.2732 29.4911 63.2876 29.5382 63.2902C30.0782 63.2902 30.711 62.7726 30.9794 62.06H30.7973C30.6137 62.3482 30.3341 62.5621 30.0079 62.6639L31.1648 59.8362ZM31.3629 58.4175C31.456 58.4181 31.5471 58.3911 31.6248 58.3399C31.7025 58.2886 31.7632 58.2155 31.7992 58.1297C31.8353 58.044 31.845 57.9494 31.8273 57.8581C31.8095 57.7668 31.765 57.6828 31.6994 57.6168C31.6339 57.5508 31.5502 57.5057 31.459 57.4873C31.3677 57.469 31.2731 57.4781 31.1871 57.5135C31.1011 57.549 31.0275 57.6092 30.9757 57.6865C30.924 57.7638 30.8964 57.8547 30.8964 57.9478C30.8955 58.0094 30.907 58.0706 30.9301 58.1278C30.9532 58.1849 30.9875 58.2369 31.0309 58.2807C31.0744 58.3244 31.1261 58.359 31.1831 58.3825C31.2401 58.406 31.3013 58.4179 31.3629 58.4175ZM28.4868 57.9606H25.9046L25.8343 58.181C26.5949 58.3376 26.6652 58.4079 26.3105 59.3888L25.47 61.7181C25.1153 62.6927 24.9651 62.7726 24.0927 62.9259L24.0288 63.1464H27.9787L28.8319 61.6287H28.5315C28.049 62.1591 27.4801 62.8269 26.6141 62.8269C25.9526 62.8269 25.8727 62.7151 26.2306 61.7181L27.0679 59.3888C27.4162 58.4302 27.5728 58.3376 28.4452 58.181L28.4868 57.9606Z" fill="black"/>
<path d="M38.63 19.3494C38.7706 19.212 38.908 19.0619 39.0486 18.9149C39.2984 18.6204 39.5686 18.3439 39.8571 18.0873C39.9411 18.0116 40.0297 17.9412 40.1224 17.8764C40.148 17.8509 40.148 17.8029 40.1703 17.7774C40.0489 17.8253 39.9786 17.9244 39.8508 17.9723C39.8252 17.9723 39.7996 17.9467 39.8252 17.9244L40.084 17.7295C40.0585 17.7295 40.0585 17.7039 40.0585 17.6815C39.9098 17.679 39.7626 17.7105 39.628 17.7737C39.4934 17.8368 39.375 17.9299 39.2819 18.0458C39.234 18.0682 39.1828 18.0202 39.1605 18.0202C38.7962 18.1416 38.5213 18.458 38.1634 18.605V18.557C38.0164 18.605 37.8758 18.6912 37.7256 18.7264C37.5248 18.7573 37.321 18.7648 37.1184 18.7487C36.8207 18.7862 36.5252 18.8395 36.2332 18.9085H36.2076C36.0496 18.9508 35.8973 19.012 35.7538 19.0906H35.7379L35.7027 19.1322C35.6576 19.1917 35.6011 19.2417 35.5365 19.2791C35.391 19.3706 35.256 19.4778 35.1339 19.5987C35.1205 19.6038 35.1057 19.6038 35.0923 19.5987L34.6897 19.9981C34.6657 20.0053 34.6401 20.0053 34.6162 19.9981V19.9725L34.6769 19.8703L34.7504 19.7584C34.7823 19.7073 34.8175 19.6594 34.8527 19.6114C34.8548 19.6094 34.8565 19.6069 34.8576 19.6041C34.8588 19.6014 34.8594 19.5984 34.8594 19.5955C34.8594 19.5925 34.8588 19.5896 34.8576 19.5868C34.8565 19.5841 34.8548 19.5816 34.8527 19.5795C34.8414 19.575 34.8288 19.575 34.8175 19.5795C34.9419 19.4585 35.079 19.3514 35.2266 19.26C35.2266 19.26 35.1882 19.26 35.1978 19.2344C35.2074 19.2088 35.2266 19.1929 35.2425 19.1705C35.2406 19.1632 35.2406 19.1555 35.2425 19.1481L35.2234 19.129C35.185 19.1545 35.1435 19.1801 35.1083 19.2088C35.0732 19.2376 35.006 19.3686 34.9166 19.3686H34.8814H34.8558V19.3494V19.3303V19.3079L34.875 19.2759V19.2536L34.9038 19.2025V19.1769L34.9294 19.1322C34.9321 19.1284 34.9339 19.124 34.9346 19.1193C34.9352 19.1147 34.9348 19.11 34.9332 19.1056C34.9316 19.1012 34.929 19.0972 34.9255 19.094C34.9221 19.0909 34.9179 19.0886 34.9134 19.0874C34.9587 19.029 35.0152 18.9801 35.0795 18.9436C35.1722 18.8957 35.2681 18.8382 35.3608 18.7871L35.3991 18.7519C35.2625 18.7989 35.1325 18.8634 35.0124 18.9436C34.9977 18.9493 34.9837 18.9568 34.9709 18.966C34.9709 18.966 34.9453 18.966 34.9102 18.9436C34.9084 18.9374 34.9084 18.9307 34.9102 18.9245C34.9325 18.8765 35.006 18.851 35.054 18.8031C35.1019 18.7551 35.1019 18.8031 35.1019 18.8286C35.8817 18.2183 36.9522 18.3653 37.8502 18.049L38.0707 17.9052C38.1922 17.8541 38.288 17.7327 38.4351 17.6592C38.6331 17.5262 38.7789 17.3285 38.8473 17.1C38.8447 17.0822 38.8369 17.0655 38.8249 17.0521C38.5195 17.3819 38.1568 17.6537 37.7544 17.8541C37.243 18.1225 36.6838 18.0745 36.1565 18.148C36.1789 18.0969 36.23 18.0969 36.2779 18.0969C36.2779 18.0266 36.3259 18.0011 36.3738 17.9531H36.4473C36.4729 17.9531 36.4729 17.9052 36.4953 17.9052C36.5176 17.9052 36.6167 17.8796 36.5943 17.8796C36.5208 17.7838 36.3738 17.9531 36.2524 17.8796C36.3003 17.8317 36.2779 17.7582 36.3259 17.7327H36.4217C36.4273 17.6958 36.4454 17.662 36.4729 17.6368C36.8372 17.4163 37.1759 17.247 37.5179 17.0521C37.4444 17.0521 37.3964 17.1256 37.3229 17.0776C37.3709 17.0776 37.3229 17.0041 37.3709 17.0041C37.6393 16.9307 37.8566 16.7869 38.1251 16.6846C38.0292 16.6846 37.9557 16.7581 37.8566 16.6846C37.9078 16.6591 37.9301 16.6111 38.0036 16.6111V16.5121C38.0036 16.4897 38.0292 16.4897 38.0516 16.4897C38.0333 16.4864 38.0166 16.4774 38.0036 16.4641C38.0292 16.4162 38.0995 16.4418 38.1506 16.3907C38.1251 16.3907 38.0771 16.3907 38.0771 16.3683C38.1614 16.2808 38.2755 16.2284 38.3967 16.2213C38.3711 16.1734 38.2976 16.2213 38.2976 16.1734C38.2976 16.1255 38.3232 16.1478 38.3488 16.1478H38.2976C38.2497 16.1255 38.2753 16.0743 38.2753 16.052C38.3822 15.8717 38.4558 15.6736 38.4926 15.4672C38.4702 15.4672 38.4446 15.4672 38.4446 15.4449C38.1617 15.6882 37.8163 15.8476 37.4476 15.905H37.3261C37.2598 15.9307 37.1887 15.942 37.1176 15.9382C37.0465 15.9343 36.9771 15.9154 36.9139 15.8826C36.827 15.8254 36.7457 15.7601 36.671 15.6877C36.4801 15.5656 36.2751 15.4669 36.0606 15.3937C35.4568 15.1962 34.8229 15.1064 34.1879 15.1285C34.4622 15.0154 34.7485 14.9339 35.0412 14.8857C35.4372 14.7327 35.8567 14.6495 36.2811 14.6397C36.2006 14.6285 36.1188 14.6285 36.0383 14.6397C35.684 14.6432 35.3316 14.6926 34.9901 14.7867C34.7472 14.8346 34.5299 14.9336 34.287 14.9816C34.14 15.0295 34.0665 15.1765 33.8971 15.1509V15.0774C34.0019 14.919 34.1378 14.7835 34.2966 14.6791C34.4554 14.5747 34.6337 14.5037 34.8207 14.4703C35.2469 14.4268 35.6772 14.4429 36.099 14.5183C36.4107 14.5528 36.7194 14.6105 37.0225 14.6908C37.144 14.6908 37.1664 14.8857 37.2654 14.9081C37.3645 14.9304 37.5562 14.9081 37.7032 15.0071C37.7032 14.956 37.6777 14.9081 37.7032 14.8601C37.7991 14.7643 37.9205 14.8857 38.0228 14.8346C38.2177 14.7132 37.8502 14.4959 37.7544 14.3265C37.7571 14.3072 37.766 14.2892 37.7799 14.2754C37.9505 14.4643 38.1462 14.6287 38.3615 14.7643C38.483 14.8122 38.777 14.8857 38.7259 14.7387C38.5693 14.4744 38.3815 14.2298 38.1666 14.0102V13.9112C38.1187 13.9112 38.1187 13.8888 38.0931 13.8632V13.7642C37.9972 13.7131 38.0228 13.6172 37.9717 13.5437C37.9014 13.4223 37.9493 13.2529 37.9014 13.106C37.8848 12.9703 37.8795 12.8335 37.8854 12.697C37.8119 12.2816 37.716 11.9173 37.6681 11.5275C37.6169 11.0674 37.9333 10.7032 38.1538 10.2878C38.3144 9.97468 38.5519 9.70751 38.8441 9.51134C38.9414 9.22148 39.0993 8.95569 39.3075 8.73171C39.5175 8.51622 39.773 8.35029 40.0553 8.24603C40.3972 8.09586 40.6944 8 40.6944 8H24V20.8672H35.8242C36.3244 20.5547 36.8491 20.2833 37.3932 20.0556C37.8312 19.8685 38.2462 19.6315 38.63 19.3494ZM34.891 17.5985C34.8431 17.5985 34.7472 17.6208 34.7696 17.5729C34.7951 17.4515 34.9645 17.4515 35.0604 17.4035C35.1562 17.3556 35.1818 17.3301 35.2329 17.3556C35.2809 17.4291 35.3544 17.4035 35.4023 17.4515C35.2553 17.5985 35.0604 17.5346 34.891 17.5985ZM31.1744 17.0712C31.1603 17.0589 31.1512 17.0419 31.1488 17.0233C31.4483 16.6363 31.7094 16.2211 31.9286 15.7836C32.239 15.6022 32.5184 15.3725 32.7563 15.103C33.1398 14.665 33.6015 14.302 34.1176 14.0326C34.3271 13.9658 34.5533 13.9749 34.7568 14.0581C34.6833 14.154 34.5618 14.1316 34.4628 14.2051C34.4465 14.2101 34.4291 14.2104 34.4127 14.2058C34.3963 14.2013 34.3815 14.1922 34.3701 14.1796C34.3798 14.1702 34.3872 14.1586 34.3916 14.1459C34.3961 14.1331 34.3975 14.1195 34.3957 14.1061C34.1528 14.3745 33.8108 14.4959 33.6159 14.8122C33.4721 15.0551 33.373 15.3714 33.0567 15.4513C32.9608 15.4736 33.0822 15.3778 33.0343 15.4001C32.3333 15.8599 31.7062 16.4234 31.1744 17.0712ZM33.1941 15.4736C33.1685 15.5216 33.1397 15.5279 33.1206 15.5727C33.0994 15.615 33.0645 15.6488 33.0215 15.6685C32.9991 15.6685 32.9736 15.6685 32.9736 15.643C32.9846 15.5931 33.0084 15.5468 33.0425 15.5088C33.0767 15.4707 33.1201 15.4421 33.1685 15.4257C33.1909 15.4193 33.1909 15.4449 33.1909 15.4672L33.1941 15.4736ZM34.3222 19.1162C34.3075 19.1448 34.2868 19.1699 34.2614 19.1897C34.2934 19.1897 34.3126 19.2088 34.2934 19.2248C34.2427 19.281 34.1806 19.3256 34.1112 19.3558H34.0729L33.9802 19.4421C33.9515 19.4677 33.8204 19.4421 33.8588 19.4133L34.0409 19.244C34.0729 19.212 34.1112 19.1801 34.14 19.1449C34.1565 19.1253 34.1747 19.1071 34.1943 19.0906C34.2103 19.0746 34.3381 19.0619 34.319 19.1098L34.3222 19.1162ZM33.8875 18.9149C33.7949 18.9788 33.7054 19.0427 33.6095 19.1002C33.5136 19.1577 33.3954 19.2057 33.2899 19.2568C33.2847 19.2521 33.2778 19.2495 33.2708 19.2495C33.2637 19.2495 33.2569 19.2521 33.2516 19.2568C33.1618 19.3076 33.0791 19.3699 33.0055 19.4421L32.9704 19.4772L32.9352 19.5124C32.9155 19.5289 32.8974 19.547 32.8809 19.5667C32.8809 19.5667 32.8809 19.5923 32.8489 19.6019C32.817 19.6114 32.7914 19.6019 32.7946 19.5827L32.7531 19.6051L32.7147 19.6242H32.6955C32.6668 19.6498 32.638 19.6722 32.6093 19.7009C32.5584 19.7459 32.5113 19.7951 32.4686 19.8479V19.8735C32.4651 19.875 32.4613 19.8757 32.4575 19.8757C32.4536 19.8757 32.4498 19.875 32.4463 19.8735L32.3312 19.8351L32.4079 19.7456L32.4335 19.7169L32.475 19.6626V19.6434C32.5026 19.6109 32.5282 19.5767 32.5517 19.5412L32.5837 19.4868L32.6125 19.4389L32.638 19.3814V19.3654C32.6395 19.3559 32.6395 19.3462 32.638 19.3367C32.6396 19.3239 32.6396 19.311 32.638 19.2983C32.665 19.2512 32.6971 19.2072 32.7339 19.1673C32.7026 19.1922 32.6727 19.2189 32.6444 19.2472C32.6188 19.2664 32.5677 19.2472 32.5997 19.2088C32.6203 19.1935 32.6396 19.1764 32.6572 19.1577C32.6963 19.1148 32.7379 19.0743 32.7818 19.0363L32.8585 18.9788C32.874 18.9563 32.8922 18.9359 32.9129 18.9181C33.1461 18.6912 33.552 18.704 33.8428 18.5602C33.9642 18.5123 34.1112 18.5826 34.2327 18.5602C34.3084 18.5525 34.3846 18.5693 34.45 18.6081C34.2838 18.6497 34.0825 18.7839 33.8844 18.9085L33.8875 18.9149ZM34.3701 17.2182C34.3477 17.1927 34.4436 17.2182 34.4692 17.1703H34.2742C34.2487 17.1703 34.2487 17.1447 34.2487 17.1224C34.1272 17.1447 33.9834 17.1927 33.862 17.2182C33.6894 17.2662 33.5424 17.3876 33.3507 17.4387C33.0822 17.5346 32.8649 17.7582 32.5709 17.8509C32.5485 17.8509 32.5485 17.8253 32.5485 17.8029C32.5709 17.7295 32.67 17.7039 32.7179 17.6304C32.7179 17.608 32.7179 17.5825 32.6923 17.5825C32.9099 17.3505 33.1508 17.1417 33.4114 16.9594V16.8891C33.4849 16.7901 33.6063 16.7421 33.6543 16.6207C33.7046 16.5193 33.7913 16.4406 33.8971 16.4002C33.8748 16.3779 33.8236 16.3779 33.8236 16.33C33.7278 16.33 33.6287 16.3779 33.5328 16.3044C33.5758 16.2631 33.6286 16.2334 33.6862 16.2181C33.6633 16.214 33.6428 16.2015 33.6287 16.183C33.6063 16.135 33.6766 16.0807 33.7533 16.0616C33.83 16.0424 33.9706 16.036 34.0441 15.9625C33.8748 15.9401 33.6798 16.0136 33.5073 15.9146C33.6109 15.6031 33.8291 15.3427 34.1176 15.1861C34.14 15.1861 34.1911 15.1861 34.1911 15.2084C34.1937 15.266 34.1754 15.3226 34.1396 15.3678C34.1038 15.413 34.0529 15.4438 33.9962 15.4545C34.195 15.4796 34.3902 15.5279 34.5778 15.5982C34.5555 15.6462 34.5043 15.6238 34.4819 15.6238C34.6034 15.6973 34.7504 15.6462 34.8718 15.7452C34.7983 15.8187 34.7248 15.7452 34.6513 15.7452C35.4055 15.9625 36.2076 16.135 36.8404 16.6207C36.3063 16.8648 35.7421 17.0367 35.1626 17.132C35.0966 17.136 35.0304 17.1274 34.9677 17.1064C34.9677 17.132 34.9677 17.1799 34.9421 17.1799C34.8582 17.1702 34.7732 17.1869 34.6993 17.2278C34.6002 17.2789 34.4532 17.2789 34.3701 17.2182Z" fill="#000091"/>
<path d="M59.3894 8.0127H45.5551C45.6026 8.02635 45.6478 8.0468 45.6893 8.0734L46.0377 8.25873C46.2213 8.34688 46.378 8.48258 46.4915 8.65174C46.5394 8.72523 46.6129 8.86902 46.565 8.97126C46.517 9.07351 46.4915 9.29078 46.37 9.33552C46.208 9.40129 46.0302 9.41796 45.8587 9.38345C45.7601 9.37997 45.6624 9.36386 45.5679 9.33552C45.9449 9.45498 46.2783 9.6828 46.5266 9.99054C46.549 10.0417 46.6481 10.064 46.7439 10.064C46.7695 10.064 46.7695 10.112 46.7695 10.1375C46.7184 10.1854 46.6704 10.211 46.696 10.2845H46.7695C46.8909 10.2366 46.8654 9.99054 47.0347 10.064C47.0947 10.1006 47.1383 10.1587 47.1567 10.2265C47.1752 10.2942 47.167 10.3664 47.1338 10.4283C47.0423 10.5177 46.944 10.6 46.8398 10.6743C46.8176 10.7286 46.8176 10.7894 46.8398 10.8437C46.9012 10.9308 46.9436 11.0299 46.9644 11.1344C47.0347 11.3038 47.0603 11.4987 47.1338 11.6712C47.2492 12.0239 47.3064 12.393 47.3032 12.764C47.3032 12.9589 47.2073 13.1282 47.2776 13.3232C47.3446 13.5045 47.4349 13.6763 47.5461 13.8344C47.6448 13.9577 47.7346 14.088 47.8145 14.2242C47.9615 14.467 48.2267 14.7099 48.1053 15.0007C48.0318 15.17 47.7666 15.1476 47.594 15.2435C47.4214 15.3393 47.5716 15.563 47.6451 15.6812C47.7666 15.9017 47.4981 16.0455 47.3256 16.119C47.3735 16.1925 47.4694 16.1669 47.4949 16.2148C47.5205 16.3394 47.6419 16.4097 47.5684 16.5344C47.4949 16.659 47.1786 16.7548 47.3256 16.9721C47.3593 17.0583 47.3745 17.1507 47.3701 17.2432C47.3657 17.3357 47.3418 17.4263 47.3 17.5089C47.2628 17.6011 47.2034 17.6826 47.127 17.7462C47.0506 17.8098 46.9596 17.8534 46.8622 17.8732C46.7127 17.9165 46.5553 17.9252 46.402 17.8987C46.3574 17.8709 46.3072 17.8534 46.255 17.8476C45.8452 17.7679 45.4312 17.7113 45.0151 17.6783C44.8973 17.6963 44.7823 17.7296 44.6731 17.7773C44.5673 17.8542 44.4688 17.9409 44.3791 18.0361L44.328 18.0936L44.296 18.132L44.2736 18.1575C44.2032 18.2466 44.1391 18.3406 44.0819 18.4387V18.4547L44.0627 18.4898C43.9857 18.6318 43.9246 18.7818 43.8806 18.9372C43.7144 19.4931 43.7847 19.9692 43.9029 20.0875C43.9349 20.1194 44.7051 20.3558 45.2419 20.5955C45.4397 20.6777 45.631 20.7749 45.814 20.8863H59.4086L59.3894 8.0127Z" fill="#E1000F"/>
<path d="M46.37 12.6938C46.4691 12.7194 46.6129 12.7194 46.6129 12.7673C46.5649 12.9622 46.2741 13.0102 46.1271 13.2051H46.0536C45.9801 13.253 46.0057 13.3744 45.9322 13.3744C45.859 13.3571 45.7821 13.3661 45.7149 13.4C45.7589 13.4523 45.8153 13.4928 45.8789 13.5179C45.9425 13.543 46.0113 13.5519 46.0792 13.5438C46.0996 13.5516 46.1173 13.5651 46.1304 13.5826C46.1434 13.6001 46.1511 13.621 46.1527 13.6428C46.1713 13.6404 46.1883 13.6313 46.2006 13.6172C46.223 13.6172 46.2486 13.6172 46.2486 13.6428V13.7387C46.1751 13.8377 46.0536 13.7866 45.9578 13.8122C46.1411 13.8601 46.3337 13.8601 46.517 13.8122C46.6608 13.7642 46.517 13.5214 46.6129 13.4C46.5649 13.4 46.6129 13.3265 46.5649 13.3265C46.6129 13.2785 46.6608 13.2051 46.712 13.1795C46.7402 13.1808 46.7684 13.1747 46.7936 13.1618C46.8188 13.1489 46.8402 13.1297 46.8558 13.106C46.8558 13.0581 46.7599 13.0357 46.7823 12.9846C46.9293 12.8887 47.0507 12.7418 47.0028 12.598C46.9772 12.5245 46.7823 12.5245 46.6608 12.4765C46.5238 12.4478 46.3817 12.4555 46.2486 12.4989C46.1242 12.5199 46.0021 12.553 45.8843 12.598C45.7179 12.6537 45.5614 12.7357 45.4209 12.8408C45.5955 12.7772 45.7751 12.728 45.9578 12.6938C46.0946 12.6762 46.2332 12.6762 46.37 12.6938Z" fill="#9D9D9C"/>
</svg>
