<svg width="131" height="103" viewBox="0 0 131 103" fill="none" xmlns="http://www.w3.org/2000/svg">
<g clip-path="url(#clip0)">
<path d="M0.0327148 19.6763H2.55973L4.95547 23.7382L7.34027 19.6763H9.87823V29.5581H7.86537V22.5262L5.6556 26.1622H4.24441L2.03464 22.5262V29.5581H0.0327148V19.6763Z" fill="#1D1E1C"/>
<path d="M14.6479 19.6763H12.635V29.5581H14.6479V19.6763Z" fill="#1D1E1C"/>
<path d="M17.4048 19.6763H19.9865L24.406 26.7519V19.6763H26.4189V29.5581H23.8481L19.4176 22.4606V29.5581H17.4048V19.6763Z" fill="#1D1E1C"/>
<path d="M31.1884 19.6763H29.1865V29.5581H31.1884V19.6763Z" fill="#1D1E1C"/>
<path d="M34.5359 26.8392C34.7827 27.1964 35.1083 27.4924 35.4875 27.7044C35.8668 27.9164 36.2897 28.0388 36.7238 28.0622C36.8861 28.0888 37.0523 28.0785 37.2101 28.0321C37.3679 27.9857 37.5132 27.9044 37.6351 27.7942C37.7571 27.684 37.8526 27.5478 37.9145 27.3957C37.9764 27.2436 38.0032 27.0795 37.9928 26.9157C37.9928 25.1468 33.4748 25.5399 33.4748 22.2532C33.4856 21.8554 33.577 21.4638 33.7435 21.1022C33.91 20.7405 34.1481 20.4163 34.4435 20.149C34.7389 19.8817 35.0855 19.6768 35.4624 19.5468C35.8392 19.4168 36.2385 19.3642 36.6363 19.3924C37.3028 19.3872 37.9616 19.534 38.5626 19.8216C39.1636 20.1092 39.6909 20.5301 40.1041 21.0521L38.6273 22.3733C38.4162 22.028 38.1273 21.7367 37.7835 21.5225C37.4398 21.3083 37.0507 21.1771 36.6472 21.1395C36.3663 21.1391 36.096 21.2466 35.8924 21.4397C35.6887 21.6328 35.5673 21.8967 35.5533 22.1768C35.5533 23.9347 40.0713 23.5307 40.0713 26.872C40.0653 27.2862 39.9739 27.6947 39.8027 28.0721C39.6315 28.4494 39.3842 28.7875 39.0762 29.0652C38.7682 29.3429 38.4062 29.5542 38.0128 29.686C37.6193 29.8177 37.2029 29.8671 36.7894 29.8311C36.0903 29.8623 35.3935 29.7295 34.7551 29.4431C34.1167 29.1567 33.5546 28.7249 33.1138 28.1823L34.5359 26.8392Z" fill="#1D1E1C"/>
<path d="M41.0449 19.6763H49.162V21.4998H46.1099V29.5581H44.108V21.4998H41.0449V19.6763Z" fill="#1D1E1C"/>
<path d="M50.9341 19.6544H56.6992V21.3578H52.936V23.6508H56.1413V25.3542H52.936V27.8438H56.6992V29.5472H50.9341V19.6544ZM51.0982 16.9028H53.1657L54.7629 18.8028H52.9251L51.0982 16.9028Z" fill="#1D1E1C"/>
<path d="M59.073 19.6543H62.1032C64.2911 19.6543 65.6257 20.7462 65.6257 22.6025C65.6452 23.1374 65.5048 23.666 65.2223 24.121C64.9398 24.576 64.5281 24.9368 64.0395 25.1575L67.1463 29.5252H64.7068L62.0704 25.5397H61.0421V29.5252H59.073V19.6543ZM61.0859 21.3577V23.8254H62.1798C62.5077 23.8254 62.8221 23.6954 63.0539 23.464C63.2857 23.2326 63.416 22.9188 63.416 22.5915C63.416 22.2643 63.2857 21.9505 63.0539 21.7191C62.8221 21.4877 62.5077 21.3577 62.1798 21.3577H61.0859Z" fill="#1D1E1C"/>
<path d="M68.3496 19.6763H74.1147V21.3797H70.3625V23.6727H73.5568V25.376H70.3625V27.8438H74.1147V29.5581H68.3496V19.6763Z" fill="#1D1E1C"/>
<path d="M0 33.9149H3.91633C4.58596 33.8835 5.25502 33.988 5.88302 34.2221C6.51102 34.4562 7.0849 34.8151 7.56993 35.277C8.05496 35.7389 8.44106 36.2942 8.70485 36.9093C8.96865 37.5245 9.10467 38.1867 9.10467 38.8558C9.10467 39.5249 8.96865 40.1871 8.70485 40.8022C8.44106 41.4174 8.05496 41.9727 7.56993 42.4346C7.0849 42.8965 6.51102 43.2554 5.88302 43.4895C5.25502 43.7236 4.58596 43.8281 3.91633 43.7967H0V33.9149ZM2.00192 35.7384V41.9732H3.94914C4.37484 41.9983 4.80119 41.9364 5.20202 41.7911C5.60284 41.6458 5.96968 41.4203 6.28 41.1283C6.59033 40.8364 6.83758 40.4842 7.00658 40.0934C7.17557 39.7026 7.26275 39.2814 7.26275 38.8558C7.26275 38.4301 7.17557 38.009 7.00658 37.6182C6.83758 37.2274 6.59033 36.8752 6.28 36.5833C5.96968 36.2913 5.60284 36.0658 5.20202 35.9205C4.80119 35.7752 4.37484 35.7132 3.94914 35.7384H2.00192Z" fill="#1D1E1C"/>
<path d="M11.1145 33.9148H16.8905V35.6291H13.1274V37.9112H16.3217V39.6146H13.1274V42.0932H16.8905V43.7966H11.1145V33.9148Z" fill="#1D1E1C"/>
<path d="M22.8962 33.9148H24.8982V41.9731H28.6613V43.7966H22.8962V33.9148Z" fill="#1D1E1C"/>
<path d="M28.2456 37.9876L29.5146 33.9148H31.5493L29.9084 37.9876H28.2456Z" fill="#1D1E1C"/>
<path d="M33.1028 33.9147H38.8679V35.629H35.1156V37.9111H38.2881V39.6145H35.1156V42.0931H38.8679V43.7965H33.1028V33.9147ZM35.0062 33.0739L36.6034 31.1631H38.671L36.8331 33.0739H35.0062Z" fill="#1D1E1C"/>
<path d="M41.209 33.9149H45.0925C45.7621 33.8835 46.4312 33.988 47.0592 34.2221C47.6872 34.4562 48.2611 34.8151 48.7461 35.277C49.2311 35.7389 49.6172 36.2942 49.881 36.9093C50.1448 37.5245 50.2808 38.1867 50.2808 38.8558C50.2808 39.5249 50.1448 40.1871 49.881 40.8022C49.6172 41.4174 49.2311 41.9727 48.7461 42.4346C48.2611 42.8965 47.6872 43.2554 47.0592 43.4895C46.4312 43.7236 45.7621 43.8281 45.0925 43.7967H41.209V33.9149ZM43.2109 35.7384V41.9732H45.1253C45.551 41.9983 45.9774 41.9364 46.3782 41.7911C46.779 41.6458 47.1459 41.4203 47.4562 41.1283C47.7665 40.8364 48.0137 40.4842 48.1827 40.0934C48.3517 39.7026 48.4389 39.2814 48.4389 38.8558C48.4389 38.4301 48.3517 38.009 48.1827 37.6182C48.0137 37.2274 47.7665 36.8752 47.4562 36.5833C47.1459 36.2913 46.779 36.0658 46.3782 35.9205C45.9774 35.7752 45.551 35.7132 45.1253 35.7384H43.2109Z" fill="#1D1E1C"/>
<path d="M58.1322 33.9148H60.1669V39.9312C60.1953 40.4743 60.1127 41.0175 59.9241 41.5278C59.7354 42.038 59.4447 42.5045 59.0696 42.899C58.6945 43.2935 58.2429 43.6076 57.7423 43.8223C57.2416 44.0369 56.7025 44.1476 56.1576 44.1476C55.6127 44.1476 55.0736 44.0369 54.5729 43.8223C54.0723 43.6076 53.6207 43.2935 53.2456 42.899C52.8705 42.5045 52.5798 42.038 52.3911 41.5278C52.2025 41.0175 52.1199 40.4743 52.1483 39.9312V33.9148H54.1612V40.095C54.1612 40.3574 54.2129 40.6173 54.3135 40.8597C54.4141 41.1021 54.5616 41.3224 54.7475 41.5079C54.9334 41.6935 55.1541 41.8407 55.397 41.9411C55.6399 42.0415 55.9002 42.0932 56.1631 42.0932C56.426 42.0932 56.6863 42.0415 56.9292 41.9411C57.1721 41.8407 57.3928 41.6935 57.5786 41.5079C57.7645 41.3224 57.912 41.1021 58.0126 40.8597C58.1132 40.6173 58.165 40.3574 58.165 40.095L58.1322 33.9148Z" fill="#1D1E1C"/>
<path d="M69.739 40.8484L71.3252 42.0604C70.8387 42.7033 70.2061 43.2217 69.4796 43.5729C68.7531 43.9241 67.9534 44.098 67.1464 44.0805C66.2588 44.0733 65.3877 43.8413 64.6146 43.4061C63.8415 42.971 63.1918 42.3469 62.7264 41.5926C62.2611 40.8382 61.9954 39.9782 61.9541 39.0933C61.9129 38.2083 62.0976 37.3274 62.4908 36.5332C62.884 35.739 63.4729 35.0575 64.2022 34.5526C64.9315 34.0477 65.7774 33.736 66.6604 33.6467C67.5434 33.5575 68.4347 33.6935 69.2507 34.0422C70.0666 34.3908 70.7804 34.9406 71.3252 35.64L69.739 36.8629C69.4508 36.4427 69.0637 36.0996 68.6117 35.8635C68.1597 35.6274 67.6565 35.5057 67.1464 35.509C66.2902 35.5578 65.4852 35.9317 64.8964 36.5539C64.3076 37.1762 63.9795 37.9997 63.9795 38.8557C63.9795 39.7116 64.3076 40.5351 64.8964 41.1574C65.4852 41.7797 66.2902 42.1535 67.1464 42.2024C67.6568 42.2076 68.1607 42.0866 68.6131 41.8504C69.0654 41.6142 69.4522 41.27 69.739 40.8484Z" fill="#1D1E1C"/>
<path d="M75.4823 33.9148H78.1078L81.86 43.7966H79.6721L78.7642 41.2306H74.826L73.8852 43.7966H71.6973L75.4823 33.9148ZM78.1516 39.5163L76.7951 35.8038L75.4823 39.5163H78.1516Z" fill="#1D1E1C"/>
<path d="M81.3896 33.9148H89.5067V35.7383H86.4546V43.7966H84.4418V35.7383H81.3896V33.9148Z" fill="#1D1E1C"/>
<path d="M93.2807 33.9148H91.2678V43.7966H93.2807V33.9148Z" fill="#1D1E1C"/>
<path d="M105.708 38.8611C105.712 39.9012 105.407 40.9192 104.831 41.786C104.255 42.6529 103.434 43.3294 102.472 43.73C101.511 44.1305 100.452 44.237 99.4291 44.0359C98.4066 43.8349 97.467 43.3353 96.7294 42.6006C95.9917 41.8658 95.4893 40.929 95.2857 39.9089C95.0821 38.8888 95.1866 37.8313 95.5859 36.8705C95.9852 35.9097 96.6613 35.0889 97.5285 34.5122C98.3957 33.9354 99.415 33.6287 100.457 33.6308C101.15 33.616 101.838 33.741 102.481 33.9985C103.125 34.2559 103.709 34.6405 104.199 35.129C104.69 35.6175 105.076 36.1999 105.335 36.8413C105.595 37.4826 105.721 38.1696 105.708 38.8611ZM103.64 38.8611C103.61 38.2374 103.398 37.6362 103.028 37.1322C102.659 36.6281 102.15 36.2434 101.564 36.0257C100.977 35.808 100.34 35.7669 99.7304 35.9075C99.1209 36.0481 98.5662 36.3643 98.1351 36.8168C97.704 37.2692 97.4155 37.8381 97.3054 38.4527C97.1953 39.0674 97.2684 39.7008 97.5157 40.2743C97.763 40.8479 98.1735 41.3363 98.6964 41.6791C99.2193 42.0218 99.8315 42.2037 100.457 42.2023C100.889 42.2029 101.317 42.1156 101.714 41.9458C102.112 41.776 102.47 41.5272 102.768 41.2145C103.066 40.9019 103.297 40.532 103.447 40.1274C103.597 39.7228 103.663 39.2919 103.64 38.8611Z" fill="#1D1E1C"/>
<path d="M107.633 33.9148H110.204L114.624 40.9904V33.9148H116.636V43.7966H114.066L109.635 36.6992V43.7966H107.633V33.9148Z" fill="#1D1E1C"/>
<path d="M0.0327148 48.1643H2.60349L7.03397 55.2399V48.1643H9.03589V58.0461H6.46511L2.03464 50.9487V58.0461H0.0327148V48.1643Z" fill="#1D1E1C"/>
<path d="M14.3089 48.1643H16.9453L20.6866 57.9915H18.5972L17.6455 55.4146H13.6526L12.7008 57.9915H10.5676L14.3089 48.1643ZM16.9891 53.7658L15.6326 50.0533L14.2214 53.7658H16.9891Z" fill="#1D1E1C"/>
<path d="M20.2051 48.1643H28.3222V49.9878H25.27V58.0461H23.2681V49.9878H20.2051V48.1643Z" fill="#1D1E1C"/>
<path d="M32.1073 48.1643H30.0945V58.0461H32.1073V48.1643Z" fill="#1D1E1C"/>
<path d="M44.5236 53.0997C44.5279 54.1377 44.2233 55.1536 43.6485 56.0186C43.0737 56.8836 42.2545 57.5588 41.2947 57.9585C40.335 58.3582 39.278 58.4645 38.2577 58.2638C37.2373 58.0632 36.2997 57.5646 35.5636 56.8314C34.8275 56.0982 34.326 55.1634 34.1229 54.1454C33.9197 53.1274 34.024 52.0721 34.4225 51.1133C34.8209 50.1545 35.4956 49.3354 36.3611 48.7599C37.2265 48.1843 38.2436 47.8782 39.2836 47.8803C39.9748 47.8655 40.662 47.9903 41.3037 48.2472C41.9455 48.5041 42.5286 48.8878 43.018 49.3753C43.5075 49.8628 43.8931 50.444 44.1518 51.084C44.4106 51.724 44.537 52.4097 44.5236 53.0997ZM42.4669 53.0997C42.437 52.476 42.2242 51.8748 41.8549 51.3708C41.4857 50.8667 40.9764 50.482 40.3901 50.2643C39.8038 50.0465 39.1663 50.0055 38.5568 50.1461C37.9473 50.2867 37.3926 50.6029 36.9616 51.0554C36.5305 51.5078 36.242 52.0767 36.1319 52.6913C36.0217 53.306 36.0949 53.9394 36.3422 54.5129C36.5894 55.0865 37 55.5749 37.5229 55.9177C38.0458 56.2604 38.658 56.4423 39.2836 56.4409C39.7158 56.4415 40.1436 56.3542 40.5409 56.1844C40.9383 56.0146 41.2968 55.7658 41.5946 55.4531C41.8925 55.1405 42.1234 54.7706 42.2734 54.366C42.4234 53.9614 42.4892 53.5305 42.4669 53.0997Z" fill="#1D1E1C"/>
<path d="M46.449 48.1643H49.0197L53.4502 55.2399V48.1643H55.4521V58.0461H52.8814L48.4618 50.9487V58.0461H46.449V48.1643Z" fill="#1D1E1C"/>
<path d="M60.7359 48.1643H63.3613L67.1026 57.9915H64.9148L63.974 55.4146H60.0686L59.0731 58.0461H56.9836L60.7359 48.1643ZM63.4489 53.7658L62.0924 50.0533L60.7359 53.7658H63.4489Z" fill="#1D1E1C"/>
<path d="M68.6343 48.1643H70.6471V56.2226H74.3994V58.0461H68.6343V48.1643Z" fill="#1D1E1C"/>
<path d="M76.1714 48.1643H81.9365V49.8677H78.1733V52.1607H81.3786V53.8641H78.1733V56.3318H81.9365V58.0461H76.1714V48.1643Z" fill="#1D1E1C"/>
<path d="M0.0327148 62.4136H5.79781V64.117H2.03464V66.3991H5.2399V68.1134H2.03464V70.5811H5.79781V72.2845H0.0327148V62.4136Z" fill="#1D1E1C"/>
<path d="M7.32935 62.4136H15.4464V64.2261H12.3943V72.2845H10.3815V64.2261H7.32935V62.4136Z" fill="#1D1E1C"/>
<path d="M20.8835 62.4027H24.778C25.4476 62.3712 26.1167 62.4758 26.7447 62.7099C27.3727 62.944 27.9466 63.3029 28.4316 63.7648C28.9166 64.2267 29.3027 64.782 29.5665 65.3971C29.8303 66.0123 29.9663 66.6744 29.9663 67.3436C29.9663 68.0127 29.8303 68.6749 29.5665 69.29C29.3027 69.9052 28.9166 70.4605 28.4316 70.9224C27.9466 71.3843 27.3727 71.7431 26.7447 71.9773C26.1167 72.2114 25.4476 72.3159 24.778 72.2845H20.8835V62.4027ZM22.8964 64.2262V70.461H24.7999C25.2256 70.4861 25.6519 70.4242 26.0527 70.2789C26.4536 70.1336 26.8204 69.908 27.1307 69.6161C27.4411 69.3241 27.6883 68.972 27.8573 68.5812C28.0263 68.1904 28.1135 67.7692 28.1135 67.3436C28.1135 66.9179 28.0263 66.4968 27.8573 66.106C27.6883 65.7152 27.4411 65.363 27.1307 65.0711C26.8204 64.7791 26.4536 64.5536 26.0527 64.4083C25.6519 64.263 25.2256 64.201 24.7999 64.2262H22.8964Z" fill="#1D1E1C"/>
<path d="M31.9761 62.4136H37.7412V64.117H33.978V66.3991H37.1723V68.1134H33.978V70.5811H37.7412V72.2845H31.9761V62.4136Z" fill="#1D1E1C"/>
<path d="M43.7468 62.4136H45.7597V70.461H49.5229V72.2845H43.7468V62.4136Z" fill="#1D1E1C"/>
<path d="M54.2159 62.4028H56.8851L60.6373 72.2846H58.4494L57.5086 69.7186H53.6032L52.6515 72.2846H50.4636L54.2159 62.4028ZM56.8851 68.0043L55.5286 64.3028L54.1721 68.0043H56.8851Z" fill="#1D1E1C"/>
<path d="M64.8709 74.7414C64.6093 74.773 64.3448 74.773 64.0833 74.7414V72.9179C64.2505 72.9366 64.4192 72.9366 64.5865 72.9179C65.4835 72.9179 65.943 72.5358 65.943 71.5203V62.4028H67.9558V71.4657C67.9558 73.6495 66.9384 74.7414 64.8709 74.7414Z" fill="#1D1E1C"/>
<path d="M70.7236 62.4136H76.4887V64.117H72.7365V66.3991H75.9308V68.1134H72.7365V70.5811H76.4887V72.2845H70.7236V62.4136Z" fill="#1D1E1C"/>
<path d="M84.6057 62.4028H86.6186V68.4193C86.647 68.9624 86.5644 69.5056 86.3757 70.0158C86.1871 70.526 85.8964 70.9926 85.5213 71.387C85.1462 71.7815 84.6946 72.0957 84.1939 72.3103C83.6933 72.525 83.1541 72.6357 82.6093 72.6357C82.0644 72.6357 81.5252 72.525 81.0246 72.3103C80.524 72.0957 80.0724 71.7815 79.6973 71.387C79.3222 70.9926 79.0314 70.526 78.8428 70.0158C78.6541 69.5056 78.5715 68.9624 78.6 68.4193V62.4028H80.6128V68.583C80.5925 68.8571 80.629 69.1325 80.7201 69.3918C80.8112 69.6512 80.955 69.889 81.1423 70.0904C81.3297 70.2918 81.5567 70.4524 81.8091 70.5623C82.0615 70.6722 82.3339 70.7289 82.6093 70.7289C82.8846 70.7289 83.157 70.6722 83.4094 70.5623C83.6618 70.4524 83.8888 70.2918 84.0762 70.0904C84.2636 69.889 84.4073 69.6512 84.4984 69.3918C84.5895 69.1325 84.6261 68.8571 84.6057 68.583V62.4028Z" fill="#1D1E1C"/>
<path d="M89.1018 62.4136H91.6835L96.1031 69.4782V62.4136H98.1159V72.2845H95.5451L91.1147 65.187V72.2845H89.1018V62.4136Z" fill="#1D1E1C"/>
<path d="M100.884 62.4136H106.649V64.117H102.897V66.3991H106.091V68.1134H102.897V70.5811H106.649V72.2845H100.884V62.4136Z" fill="#1D1E1C"/>
<path d="M109.548 69.5767C109.797 69.9307 110.123 70.2237 110.502 70.4336C110.881 70.6435 111.303 70.765 111.736 70.7887C111.893 70.8142 112.055 70.805 112.208 70.7617C112.362 70.7183 112.504 70.642 112.625 70.5379C112.746 70.4338 112.843 70.3046 112.908 70.1593C112.974 70.014 113.007 69.8562 113.005 69.6968C113.005 67.9388 108.476 68.3319 108.476 65.0453C108.486 64.6464 108.578 64.2539 108.745 63.8915C108.912 63.5291 109.152 63.2043 109.448 62.9368C109.745 62.6694 110.093 62.4648 110.471 62.3354C110.849 62.2061 111.249 62.1548 111.648 62.1844C112.315 62.1792 112.973 62.326 113.574 62.6137C114.175 62.9013 114.703 63.3222 115.116 63.8442L113.639 65.1544C113.426 64.8118 113.137 64.523 112.793 64.3108C112.449 64.0986 112.061 63.9688 111.659 63.9315C111.38 63.931 111.111 64.037 110.908 64.2278C110.704 64.4186 110.582 64.6798 110.565 64.9579C110.565 66.7268 115.083 66.3119 115.083 69.664C115.077 70.0782 114.986 70.4868 114.815 70.8641C114.643 71.2415 114.396 71.5795 114.088 71.8572C113.78 72.1349 113.418 72.3462 113.025 72.478C112.631 72.6098 112.215 72.6592 111.801 72.6231C111.097 72.6587 110.394 72.528 109.749 72.2415C109.105 71.955 108.537 71.5209 108.093 70.9743L109.548 69.5767Z" fill="#1D1E1C"/>
<path d="M117.621 69.5767C117.87 69.9307 118.196 70.2237 118.575 70.4336C118.954 70.6435 119.376 70.765 119.809 70.7887C119.966 70.8142 120.128 70.805 120.281 70.7617C120.435 70.7183 120.577 70.642 120.698 70.5379C120.819 70.4338 120.916 70.3046 120.981 70.1593C121.047 70.014 121.08 69.8562 121.078 69.6968C121.078 67.9388 116.549 68.3319 116.549 65.0453C116.56 64.6464 116.651 64.2539 116.819 63.8915C116.986 63.5291 117.225 63.2043 117.521 62.9368C117.818 62.6694 118.166 62.4648 118.544 62.3354C118.922 62.2061 119.323 62.1548 119.721 62.1844C120.388 62.1792 121.047 62.326 121.648 62.6137C122.249 62.9013 122.776 63.3222 123.189 63.8442L121.712 65.1544C121.499 64.8118 121.21 64.523 120.866 64.3108C120.523 64.0986 120.135 63.9688 119.732 63.9315C119.453 63.931 119.184 64.037 118.981 64.2278C118.778 64.4186 118.655 64.6798 118.638 64.9579C118.638 66.7268 123.156 66.3119 123.156 69.664C123.15 70.0782 123.059 70.4868 122.888 70.8641C122.717 71.2415 122.469 71.5795 122.161 71.8572C121.853 72.1349 121.491 72.3462 121.098 72.478C120.704 72.6098 120.288 72.6592 119.874 72.6231C119.17 72.6587 118.467 72.528 117.823 72.2415C117.178 71.955 116.611 71.5209 116.166 70.9743L117.621 69.5767Z" fill="#1D1E1C"/>
<path d="M125.235 62.4136H131V64.117H127.237V66.3991H130.431V68.1134H127.237V70.5811H131V72.2845H125.235V62.4136Z" fill="#1D1E1C"/>
<path d="M32.2385 99.5931C32.501 99.5931 32.7417 99.7897 32.6214 100.314L31.3633 100.598C31.5821 100.019 31.9431 99.5931 32.2385 99.5931ZM32.9277 101.602H32.6761C32.5658 101.771 32.4229 101.916 32.2557 102.028C32.0885 102.141 31.9003 102.219 31.7024 102.257C31.3633 102.257 31.1883 102.05 31.1883 101.602C31.1711 101.417 31.1711 101.231 31.1883 101.045L33.2011 100.39C33.595 99.4621 33.1246 99.0581 32.5667 99.0581C31.7243 99.0581 30.6304 100.641 30.6304 102.028C30.6304 102.65 30.9367 103 31.3961 103C31.8556 103 32.4901 102.465 32.9714 101.602H32.9277ZM32.5776 98.6868L33.9122 97.3656V97.18H33.1465L32.2822 98.6541L32.5776 98.6868ZM28.2018 99.615H28.8691L27.7752 102.509C27.7493 102.56 27.7368 102.616 27.7388 102.674C27.7409 102.731 27.7574 102.787 27.7869 102.836C27.8164 102.885 27.8579 102.926 27.9075 102.954C27.9571 102.983 28.0132 102.999 28.0705 103C28.491 102.944 28.8899 102.781 29.2291 102.527C29.5682 102.272 29.836 101.935 30.0068 101.548H29.8099C29.478 101.903 29.054 102.16 28.5847 102.29L29.5364 99.615H30.5319L30.6523 99.2H29.6896L30.0615 98.1627H29.6786L28.9895 99.2L28.169 99.3201L28.2018 99.615ZM27.3485 99.473C27.3679 99.4303 27.3768 99.3836 27.3744 99.3368C27.3721 99.29 27.3586 99.2444 27.335 99.2038C27.3115 99.1632 27.2786 99.1289 27.2391 99.1035C27.1996 99.0782 27.1546 99.0626 27.1079 99.0581C26.7573 99.1018 26.4261 99.2426 26.1515 99.4645C25.877 99.6864 25.6702 99.9806 25.5545 100.314H25.7514C25.935 100.018 26.2181 99.7975 26.55 99.6914L25.456 102.574C25.4344 102.617 25.4237 102.665 25.4249 102.713C25.4261 102.762 25.4391 102.809 25.4629 102.851C25.4866 102.893 25.5204 102.928 25.5612 102.954C25.6019 102.98 25.6485 102.996 25.6967 103C26.0337 102.947 26.3493 102.802 26.6082 102.58C26.8671 102.358 27.0591 102.069 27.1626 101.744H26.911C26.7269 102.037 26.4434 102.254 26.1124 102.356L27.3485 99.473ZM27.5455 98.0317C27.6406 98.0317 27.7337 98.0035 27.8129 97.9507C27.892 97.8979 27.9537 97.8229 27.9901 97.7351C28.0266 97.6473 28.0361 97.5507 28.0175 97.4575C27.999 97.3643 27.9531 97.2787 27.8858 97.2115C27.8185 97.1443 27.7327 97.0986 27.6394 97.08C27.546 97.0615 27.4492 97.071 27.3612 97.1074C27.2733 97.1437 27.1981 97.2053 27.1452 97.2843C27.0923 97.3633 27.0641 97.4562 27.0641 97.5512C27.0641 97.6787 27.1148 97.8009 27.2051 97.891C27.2954 97.9811 27.4178 98.0317 27.5455 98.0317ZM21.1568 102.465C21.0146 102.781 21.1568 103 21.485 103C21.5676 103.012 21.6519 102.992 21.7195 102.943C21.7871 102.894 21.8325 102.82 21.846 102.738L22.6118 100.696C22.9737 100.27 23.4529 99.9582 23.9901 99.8006C24.198 99.8006 24.1761 99.9753 23.9901 100.237L22.8087 102.509C22.7793 102.559 22.7641 102.617 22.7646 102.675C22.7651 102.734 22.7812 102.791 22.8114 102.841C22.8415 102.891 22.8845 102.932 22.936 102.96C22.9875 102.988 23.0455 103.002 23.104 103C23.4535 102.957 23.7836 102.816 24.0565 102.594C24.3293 102.372 24.5339 102.077 24.6465 101.744H24.4605C24.2695 102.035 23.9835 102.251 23.651 102.356L24.6684 100.314C24.7861 100.095 24.8534 99.8523 24.8653 99.604C24.8718 99.5317 24.8625 99.4587 24.838 99.3903C24.8135 99.3218 24.7744 99.2595 24.7235 99.2076C24.6725 99.1557 24.6109 99.1154 24.5428 99.0896C24.4748 99.0638 24.4019 99.0531 24.3292 99.0581C23.826 99.0581 23.3228 99.6259 22.7102 100.314V99.7787C22.7102 99.3966 22.5899 99.0581 22.2398 99.0581C21.8897 99.0581 21.8132 99.2437 21.6163 99.5167V99.5822C21.9991 99.5822 22.1632 100.128 21.8897 100.674L21.1568 102.465ZM21.1568 99.9425C21.2881 99.473 21.1568 99.0581 20.8505 99.0581C20.5442 99.0581 20.3145 99.3857 19.8769 100.314V99.7787C19.8769 99.3966 19.7566 99.0581 19.4065 99.0581C19.0564 99.0581 18.6298 99.6914 18.3125 100.314H18.5095C18.7064 100.03 18.8814 99.8552 19.0346 99.8552C19.1877 99.8552 19.2971 100.128 19.0346 100.718L18.2469 102.465C18.1047 102.781 18.2469 103 18.5751 103C18.6577 103.012 18.742 102.992 18.8096 102.943C18.8772 102.894 18.9226 102.82 18.9361 102.738L19.7019 100.696C19.9206 100.434 20.1176 100.205 20.3692 99.9425H21.1568ZM16.6935 99.5931C16.967 99.5931 17.1967 99.7897 17.0764 100.314L15.8293 100.598C16.0481 100.019 16.4091 99.5931 16.6935 99.5931ZM17.3827 101.602H17.142C17.0297 101.771 16.8847 101.916 16.7157 102.029C16.5467 102.141 16.3569 102.219 16.1575 102.257C15.8184 102.257 15.6433 102.05 15.6433 101.602C15.6261 101.417 15.6261 101.231 15.6433 101.045L17.6562 100.39C18.05 99.4621 17.5796 99.0581 17.0217 99.0581C16.07 99.0581 14.9979 100.641 14.9979 102.028C14.9979 102.65 15.2933 103 15.7527 103C16.2122 103 16.8467 102.465 17.328 101.602H17.3827ZM12.5803 99.615H13.2476L12.1536 102.509C12.1277 102.56 12.1152 102.616 12.1173 102.674C12.1193 102.731 12.1359 102.787 12.1654 102.836C12.1949 102.885 12.2364 102.926 12.286 102.954C12.3356 102.983 12.3917 102.999 12.449 103C12.8714 102.946 13.2726 102.784 13.6138 102.529C13.9549 102.275 14.2244 101.937 14.3962 101.548H14.2212C13.8858 101.899 13.463 102.155 12.996 102.29L13.9586 99.5713H14.9541L15.0854 99.1563H14.1118L14.4837 98.119H14.1009L13.4117 99.1563L12.5803 99.3638V99.615ZM8.91555 101.864C8.91555 100.98 9.91105 99.7678 10.469 99.7678C10.5813 99.7502 10.6957 99.7502 10.8081 99.7678L10.2283 101.307C9.90011 101.711 9.38595 102.203 9.13434 102.203C8.88274 102.203 8.90462 102.094 8.90462 101.821L8.91555 101.864ZM11.9567 98.8506H11.6614L11.3113 99.1782H11.2457C10.4396 99.2719 9.69129 99.6422 9.12858 100.226C8.56586 100.809 8.22375 101.57 8.16073 102.377C8.15238 102.457 8.16183 102.538 8.18841 102.614C8.21498 102.69 8.25802 102.759 8.31446 102.817C8.37089 102.874 8.43933 102.918 8.51487 102.946C8.59042 102.974 8.6712 102.985 8.75146 102.978C9.1781 102.978 9.60474 102.367 10.0751 101.711V101.941C10.0751 102.607 10.2174 103.033 10.5674 103.033C10.9175 103.033 11.3441 102.399 11.6614 101.777H11.4754C11.2785 102.061 11.0925 102.225 10.9503 102.225C10.8081 102.225 10.6877 101.952 10.9503 101.362L11.9567 98.8506ZM8.43422 99.9425C8.57643 99.473 8.49986 99.0581 8.13885 99.0581C7.77785 99.0581 7.65752 99.3638 7.17618 100.314V99.7787C7.17618 99.3966 7.05585 99.0581 6.70578 99.0581C6.35572 99.0581 5.92908 99.6914 5.61184 100.314H5.79781C5.99472 100.03 6.18069 99.8552 6.3229 99.8552C6.46512 99.8552 6.59639 100.128 6.3229 100.718L5.53526 102.465C5.39305 102.781 5.53526 103 5.86345 103C5.94607 103.012 6.03034 102.992 6.09793 102.943C6.16553 102.894 6.21099 102.82 6.22445 102.738L7.00115 100.696C7.21994 100.434 7.41685 100.205 7.65752 99.9425H8.43422ZM2.88791 102.847L2.96449 102.629C1.99088 102.443 1.87054 102.443 2.25342 101.395L2.64725 100.303H3.74119C4.21159 100.303 4.22253 100.499 4.14595 101.024H4.37568L5.01017 99.2765H4.7695C4.52883 99.6914 4.34286 99.9971 3.81777 99.9971H2.72382L3.28173 98.4794C3.45676 97.988 3.55522 97.8897 4.21159 97.8897H4.67104C5.34929 97.8897 5.42587 98.0754 5.42587 98.7523H5.69935L5.91814 97.5622H1.95806L1.88148 97.7915C2.65818 97.9443 2.73476 98.0208 2.37376 99.0144L1.4986 101.395C1.09384 102.388 0.984448 102.465 0.0983516 102.64L0.0327148 102.858L2.88791 102.847Z" fill="#1D1E1C"/>
<path d="M22.5243 90.5412C22.7869 90.5412 23.0276 90.7377 22.8963 91.2509L21.6492 91.5457C21.868 90.967 22.229 90.5412 22.5243 90.5412ZM23.2135 92.5503H22.9729C22.8626 92.7189 22.7197 92.8637 22.5525 92.9762C22.3853 93.0887 22.1971 93.1667 21.9993 93.2054C21.6601 93.2054 21.4851 92.998 21.4851 92.5503C21.486 92.3634 21.5043 92.1769 21.5398 91.9934L23.5527 91.3383C23.9465 90.4101 23.4651 90.0061 22.9182 90.0061C21.9664 90.0061 20.8834 91.5894 20.8834 92.9761C20.8834 93.5985 21.1788 93.9479 21.6492 93.9479C22.1196 93.9479 22.7431 93.4129 23.2245 92.5503H23.2135ZM22.8197 89.6349L24.2418 88.3137V88.1608H23.4761L22.6009 89.6349H22.8197ZM18.4439 90.563H19.1112L18.0173 93.4457C17.9892 93.4963 17.9746 93.5533 17.9748 93.6111C17.9751 93.669 17.9902 93.7258 18.0187 93.7762C18.0472 93.8266 18.0882 93.8688 18.1378 93.8989C18.1873 93.929 18.2438 93.9459 18.3017 93.9479C18.7147 93.8916 19.1071 93.7332 19.4433 93.4873C19.7795 93.2413 20.0489 92.9155 20.2271 92.5394H20.0301C19.6983 92.8951 19.2742 93.1521 18.8049 93.2819L19.7785 90.563H20.774L20.8944 90.1481H19.9317L20.3036 89.0562H19.9208L19.2316 90.1481L18.4111 90.2682L18.4439 90.563ZM17.536 90.4211C17.5552 90.3791 17.5643 90.3333 17.5625 90.2872C17.5608 90.2412 17.5482 90.1961 17.5259 90.1558C17.5035 90.1154 17.472 90.0809 17.4339 90.0549C17.3957 90.0289 17.352 90.0122 17.3062 90.0061C16.9553 90.0439 16.6225 90.1812 16.3472 90.4018C16.0719 90.6224 15.8657 90.9171 15.7528 91.2509H15.9388C16.133 90.9629 16.4179 90.7478 16.7483 90.6394L15.6544 93.5221C15.63 93.5641 15.6168 93.6115 15.616 93.66C15.6153 93.7085 15.6269 93.7564 15.65 93.7991C15.673 93.8418 15.7066 93.8779 15.7476 93.904C15.7886 93.93 15.8356 93.9452 15.8841 93.9479C16.2231 93.897 16.541 93.7523 16.802 93.5304C17.063 93.3085 17.2566 93.0182 17.3609 92.6922H17.1749C16.986 92.9851 16.6992 93.2018 16.3654 93.3037L17.536 90.4211ZM17.7438 88.9797C17.839 88.9797 17.9321 88.9516 18.0112 88.8988C18.0904 88.846 18.1521 88.7709 18.1885 88.6832C18.2249 88.5954 18.2345 88.4988 18.2159 88.4056C18.1973 88.3124 18.1515 88.2268 18.0842 88.1596C18.0168 88.0924 17.9311 88.0466 17.8377 88.0281C17.7443 88.0095 17.6476 88.0191 17.5596 88.0554C17.4716 88.0918 17.3965 88.1534 17.3436 88.2324C17.2907 88.3114 17.2625 88.4043 17.2625 88.4993C17.2625 88.6267 17.3132 88.7489 17.4034 88.839C17.4937 88.9291 17.6161 88.9797 17.7438 88.9797ZM13.8822 93.3474L15.906 88.0516L15.8403 87.9752L14.5714 88.1171V88.27L14.823 88.4556C15.0418 88.6303 14.9761 88.805 14.7683 89.3401L13.182 93.4893C13.1567 93.5412 13.1446 93.5984 13.1468 93.6561C13.149 93.7137 13.1654 93.7699 13.1947 93.8196C13.2239 93.8693 13.265 93.9111 13.3144 93.9411C13.3637 93.9711 13.4197 93.9885 13.4774 93.9916C13.8178 93.9444 14.1376 93.8011 14.3992 93.5786C14.6608 93.3562 14.8534 93.0638 14.9542 92.7359H14.7573C14.5433 93.0327 14.2348 93.2483 13.8822 93.3474ZM10.0752 92.8124C10.0752 91.917 11.0598 90.7159 11.6286 90.7159C11.7411 90.6993 11.8553 90.6993 11.9678 90.7159L11.388 92.2555C11.0489 92.6595 10.5347 93.1508 10.294 93.1508C10.0534 93.1508 10.0752 93.0417 10.0752 92.7687V92.8124ZM13.1273 89.8314H12.821L12.4819 90.1699H12.4053C11.5993 90.2637 10.851 90.634 10.2883 91.2176C9.72555 91.8011 9.38343 92.5617 9.32042 93.3692C9.3118 93.4502 9.32145 93.5321 9.34864 93.6088C9.37583 93.6856 9.41988 93.7553 9.47756 93.8129C9.53525 93.8705 9.60511 93.9145 9.68202 93.9416C9.75894 93.9687 9.84096 93.9784 9.92209 93.9698C10.3487 93.9698 10.7644 93.3583 11.2348 92.7032V92.9325C11.1801 93.5985 11.388 94.0244 11.7271 94.0244C12.0662 94.0244 12.5038 93.3911 12.821 92.7687H12.5804C12.3835 93.0526 12.2084 93.2164 12.0553 93.2164C11.9021 93.2164 11.7927 92.9434 12.0553 92.3537L13.1273 89.8314ZM5.74322 94.6468C5.74322 94.2646 6.10422 94.0244 6.64025 93.8169C6.89396 93.9283 7.1532 94.0267 7.41695 94.1117C7.97486 94.2864 8.18271 94.3629 8.18271 94.5267C8.18271 94.887 7.58104 95.149 6.76058 95.149C5.94012 95.149 5.74322 95.0071 5.74322 94.6468ZM7.24192 92.3101C7.00125 92.3101 6.9028 92.1026 6.9028 91.8733C6.9028 91.2291 7.25286 90.2791 7.79983 90.2791C8.0405 90.2791 8.12802 90.4757 8.12802 90.7159C8.12802 91.3601 7.78889 92.3101 7.24192 92.3101ZM8.8172 94.2864C8.8172 93.8278 8.4015 93.664 7.72326 93.4566C7.04501 93.2491 6.88092 93.2273 6.88092 93.0417C6.88092 92.856 7.01219 92.7141 7.25286 92.583C7.66834 92.5511 8.05749 92.3676 8.34603 92.0675C8.63457 91.7674 8.8023 91.3718 8.8172 90.9561C8.82596 90.8218 8.8035 90.6872 8.75157 90.563H9.56109L9.68142 90.1481H8.39056C8.23675 90.0517 8.05801 90.0023 7.87641 90.0061C7.44815 90.0111 7.03787 90.1787 6.72899 90.4748C6.42012 90.771 6.23583 91.1734 6.21361 91.6003C6.20249 91.8277 6.27547 92.0512 6.41868 92.2284C6.56188 92.4055 6.76532 92.524 6.99031 92.5612C6.51992 92.7796 6.25737 93.0198 6.25737 93.3146C6.2546 93.3914 6.27117 93.4676 6.30558 93.5362C6.33998 93.6049 6.39111 93.6639 6.45428 93.7077C5.36033 94.0244 4.9337 94.3847 4.9337 94.8979C4.9337 95.4111 5.59006 95.6076 6.3777 95.6076C7.70138 95.6076 8.8172 94.887 8.8172 94.2864ZM3.74129 91.1854C4.22263 91.1854 4.23357 91.3819 4.15699 91.9061H4.43048L5.07591 90.159H4.79148C4.55081 90.5739 4.36484 90.8797 3.85069 90.8797H2.75674L3.28184 89.4274C3.45687 88.9361 3.55532 88.8487 4.21169 88.8487H4.67115C5.34939 88.8487 5.42597 89.0234 5.42597 89.7004H5.69946L5.91825 88.5102H1.95816L1.88159 88.7395C2.65829 88.8924 2.73486 88.9688 2.37386 89.9625L1.49871 92.3428C1.09395 93.3365 0.984551 93.4129 0.0984551 93.5767L0 93.7951H4.48518L5.28376 92.5394H4.97745C4.71437 92.8208 4.39827 93.0476 4.04724 93.2068C3.69621 93.3661 3.31715 93.4547 2.93177 93.4675C1.75031 93.4675 1.83783 93.4675 2.25353 92.3756L2.68017 91.2182L3.74129 91.1854ZM4.37578 88.1608L5.79791 87.189V87.0361H4.879L4.1023 88.128L4.37578 88.1608Z" fill="#1D1E1C"/>
<path d="M22.054 81.4895C22.3166 81.4895 22.5463 81.686 22.426 82.1992L21.1789 82.494C21.3977 81.9153 21.7587 81.4895 22.054 81.4895ZM22.7432 83.4877H22.4916C22.383 83.6587 22.2406 83.8059 22.0733 83.9204C21.9059 84.0349 21.717 84.1143 21.518 84.1537C21.1679 84.1537 20.9929 83.9463 20.9929 83.4877C20.9924 83.3037 21.0145 83.1203 21.0585 82.9417L23.0714 82.2866C23.4543 81.3584 22.9839 80.9544 22.4369 80.9544C21.4852 80.9544 20.4022 82.5377 20.4022 83.9244C20.4022 84.5468 20.6975 84.8853 21.1679 84.8853C21.6383 84.8853 22.2619 84.3612 22.7432 83.4877ZM22.3385 80.5832L23.7497 79.262V79.1091H22.973L22.0978 80.5832H22.3385ZM18.1815 81.5113H18.7175L17.6236 84.394C17.5947 84.4438 17.5796 84.5003 17.5796 84.5578C17.5796 84.6153 17.5948 84.6718 17.6236 84.7216C17.6524 84.7714 17.6939 84.8128 17.7438 84.8415C17.7937 84.8702 17.8504 84.8853 17.908 84.8853C18.3192 84.8322 18.7103 84.6762 19.045 84.4318C19.3797 84.1875 19.6471 83.8627 19.8224 83.4877H19.6911C19.3597 83.8416 18.9351 84.0952 18.4659 84.2192L19.4395 81.5113H20.435L20.5553 81.0964H19.5927L19.9646 80.0045H19.5817L18.8925 81.0964L18.2034 81.2056L18.1815 81.5113ZM17.6564 81.828C17.7986 81.3584 17.722 80.9544 17.361 80.9544C17 80.9544 16.825 81.2711 16.3874 82.2101V81.6751C16.3874 81.2929 16.2671 80.9544 15.917 80.9544C15.5669 80.9544 15.1403 81.5768 14.8231 82.1992H15.009C15.2059 81.9153 15.3919 81.7515 15.5341 81.7515C15.6763 81.7515 15.8076 82.0245 15.5341 82.6141L14.7574 84.3503C14.6043 84.6778 14.7574 84.8853 15.0856 84.8853C15.1663 84.8955 15.2478 84.8755 15.3145 84.8291C15.3812 84.7827 15.4283 84.7132 15.4466 84.6342L16.2124 82.5923C16.4312 82.3302 16.6281 82.09 16.8687 81.828H17.6564ZM13.204 81.4895C13.4775 81.4895 13.7072 81.686 13.5869 82.1992L12.3398 82.494C12.5477 81.9153 12.9196 81.4895 13.204 81.4895ZM13.8932 83.4877H13.6525C13.5422 83.6594 13.398 83.8071 13.2287 83.9216C13.0595 84.036 12.8687 84.115 12.668 84.1537C12.3289 84.1537 12.1538 83.9463 12.1538 83.4877C12.1552 83.3044 12.1735 83.1216 12.2085 82.9417L14.2214 82.2866C14.6152 81.3584 14.1448 80.9544 13.5869 80.9544C12.6352 80.9544 11.5631 82.5377 11.5631 83.9244C11.5631 84.5468 11.8585 84.8853 12.3179 84.8853C12.7774 84.8853 13.4119 84.3612 13.8932 83.4877ZM8.97045 84.3066C8.77354 84.3066 8.48911 84.121 8.48911 83.9572C8.54243 83.7674 8.60821 83.5814 8.68602 83.4003L9.01421 82.5377C9.36427 82.1337 9.88936 81.686 10.1847 81.686C10.4801 81.686 10.502 81.8061 10.502 82.0682C10.502 82.8653 9.76903 84.252 8.97045 84.252V84.3066ZM11.2568 81.6969C11.2568 81.1073 11.038 80.8998 10.6332 80.8998C10.2285 80.8998 9.63776 81.4349 9.16736 82.0791L10.3707 78.9016L10.3051 78.8252L9.03609 78.9671V79.12L9.28769 79.3056C9.50648 79.4803 9.44084 79.666 9.233 80.1792L7.9312 83.5969C7.84123 83.7968 7.77159 84.0054 7.72335 84.2192C7.72335 84.5577 8.19375 84.8853 8.62039 84.8853C9.60494 84.8853 11.2568 83.1164 11.2568 81.7515V81.6969ZM7.30765 81.3693C7.38423 81.0964 7.2092 80.9544 7.06698 80.9544C6.71796 80.9942 6.38752 81.1324 6.11434 81.3529C5.84117 81.5733 5.63658 81.8669 5.52452 82.1992H5.71049C5.91097 81.8986 6.21432 81.6812 6.56377 81.5877L5.46982 84.4704C5.44767 84.5128 5.43661 84.5601 5.43766 84.6079C5.43872 84.6557 5.45186 84.7025 5.47587 84.7439C5.49988 84.7853 5.53397 84.8199 5.57499 84.8447C5.61601 84.8694 5.66261 84.8834 5.71049 84.8853C6.03587 84.8231 6.33853 84.6747 6.58678 84.4557C6.83504 84.2367 7.01978 83.9552 7.12168 83.6405H6.92477C6.73715 83.9301 6.45504 84.1462 6.12619 84.252L7.30765 81.3693ZM7.50456 79.9171C7.63035 79.9171 7.75115 79.868 7.84111 79.7803C7.93107 79.6925 7.98304 79.5731 7.9859 79.4476C7.9859 79.3202 7.93519 79.198 7.84492 79.1079C7.75465 79.0178 7.63222 78.9671 7.50456 78.9671C7.37881 78.97 7.25917 79.0219 7.17126 79.1117C7.08334 79.2015 7.03413 79.322 7.03416 79.4476C7.03416 79.5092 7.04633 79.5703 7.06997 79.6273C7.09361 79.6842 7.12826 79.736 7.17194 79.7796C7.21562 79.8232 7.26748 79.8578 7.32455 79.8814C7.38162 79.905 7.44279 79.9171 7.50456 79.9171ZM4.58373 79.4585H1.94732L1.87074 79.6769C2.64744 79.8407 2.72402 79.9171 2.35208 80.9107L1.4988 83.2911C1.1378 84.2848 0.984645 84.383 0.0985489 84.525L0.0219727 84.7434H4.04769L4.92285 83.1928H4.61654C4.39649 83.5267 4.10647 83.809 3.76651 84.0201C3.42656 84.2312 3.04475 84.3662 2.64744 84.4158C1.9692 84.4158 1.89262 84.3066 2.25362 83.3239L3.1069 80.9435C3.4679 79.9499 3.63199 79.8516 4.51809 79.7096L4.58373 79.4585Z" fill="#1D1E1C"/>
<path d="M14.9433 11.5633C15.0855 11.4323 15.2277 11.2794 15.3699 11.1266C15.6246 10.8251 15.9026 10.5439 16.2013 10.2858C16.2865 10.2058 16.378 10.1328 16.4748 10.0674C16.4748 10.0674 16.4748 9.99099 16.4748 9.96915C16.4748 9.94731 16.2779 10.1111 16.1576 10.1657C16.0372 10.2203 16.1029 10.1657 16.1576 10.1111L16.4092 9.91455C16.081 9.91455 15.8403 10.0893 15.6106 10.2858C15.6106 10.2858 15.5122 10.2858 15.4903 10.2858C15.1183 10.4168 14.8448 10.7335 14.4729 10.8864V10.7553C14.3273 10.823 14.1774 10.8813 14.0244 10.93C13.8174 10.9567 13.6078 10.9567 13.4008 10.93C13.0986 10.9597 12.7988 11.0108 12.5038 11.0829C12.3436 11.1257 12.1893 11.1881 12.0443 11.2685C11.9978 11.3245 11.9423 11.3724 11.8802 11.4105C11.7299 11.5039 11.5905 11.6138 11.4646 11.738L10.9395 12.2294H10.841L10.9066 12.1311L10.9832 12.011C11.0162 11.9611 11.0527 11.9137 11.0926 11.8691C11.2211 11.7542 11.3603 11.6518 11.5083 11.5633C11.5052 11.5416 11.5052 11.5196 11.5083 11.4978L11.388 11.5852C11.3333 11.5852 11.2786 11.749 11.1911 11.738V11.6835V11.6289C11.2391 11.5701 11.2987 11.5218 11.3661 11.4869C11.4646 11.4869 11.5521 11.3777 11.6505 11.3231C11.5093 11.3664 11.3762 11.4328 11.2567 11.5197C11.2467 11.5254 11.2354 11.5284 11.2239 11.5284C11.2124 11.5284 11.201 11.5254 11.1911 11.5197C11.1911 11.5197 11.2895 11.4432 11.3333 11.3996C11.377 11.3559 11.3333 11.3996 11.3333 11.3996C12.1319 10.7772 13.2149 10.93 14.1338 10.6025L14.3635 10.4605C14.4838 10.4059 14.5823 10.2858 14.7354 10.2094C14.938 10.0763 15.0856 9.87465 15.1511 9.64158C15.155 9.62358 15.155 9.60498 15.1511 9.58698C14.8425 9.92743 14.4711 10.2055 14.0572 10.4059C13.5364 10.6038 12.9844 10.7074 12.4272 10.7117C12.4272 10.7117 12.4929 10.7117 12.5476 10.7117C12.6023 10.7117 12.5476 10.6134 12.646 10.5588H12.7226C12.7226 10.5588 12.8539 10.5588 12.821 10.5588C12.7882 10.5588 12.6023 10.6243 12.4819 10.5588C12.4819 10.5588 12.4819 10.4278 12.5476 10.4059H12.657C12.6491 10.3736 12.6491 10.3399 12.657 10.3076C13.0289 10.0893 13.379 9.91456 13.7509 9.70709C13.6743 9.70709 13.6196 9.78353 13.543 9.70709C13.4665 9.63066 13.543 9.63066 13.5977 9.63066C13.8712 9.55422 14.09 9.40136 14.3635 9.30309C14.2651 9.30309 14.1885 9.37952 14.09 9.30309C13.9916 9.22665 14.1666 9.23757 14.2432 9.23757V8.73529C14.2432 8.73529 14.3416 8.73529 14.3963 8.65886C14.451 8.58242 14.3197 8.65886 14.3197 8.65886C14.4057 8.57438 14.5173 8.52063 14.637 8.50599H14.5385C14.5385 8.50599 14.5385 8.50599 14.5932 8.50599H14.5385C14.5385 8.50599 14.5385 8.42955 14.5385 8.40772C14.6527 8.22501 14.7273 8.02042 14.7573 7.80717C14.4689 8.05566 14.1164 8.21834 13.74 8.27669H13.6743C13.6097 8.30848 13.5385 8.32501 13.4665 8.32501C13.3944 8.32501 13.3233 8.30848 13.2586 8.27669C13.1602 8.22209 13.1055 8.14566 13.007 8.08014C12.8142 7.95018 12.6044 7.84731 12.3835 7.77441C11.7694 7.57478 11.1255 7.48243 10.48 7.50143C10.7595 7.39341 11.049 7.31295 11.3442 7.26121C11.7488 7.1026 12.1786 7.01754 12.6132 7.01007C12.5297 6.99921 12.4451 6.99921 12.3616 7.01007C11.9917 7.0113 11.6237 7.06272 11.2676 7.16294C11.016 7.16294 10.7863 7.30489 10.5456 7.35948C10.305 7.41408 10.3159 7.55603 10.1409 7.53419V7.21753C10.2476 7.04263 10.3908 6.89265 10.5607 6.77774C10.7305 6.66282 10.9231 6.58566 11.1254 6.55147C11.5605 6.48558 12.0031 6.48558 12.4382 6.55147C12.7552 6.5839 13.0696 6.63863 13.379 6.71525C13.5102 6.71525 13.5321 6.92272 13.6306 6.94456C13.729 6.96639 13.9259 6.94456 14.0791 7.04283C14.2322 7.1411 14.0791 6.94456 14.0791 6.88996C14.0791 6.83536 14.2979 6.88996 14.3963 6.88996C14.4948 6.88996 14.2213 6.54055 14.1228 6.36584C14.0244 6.19114 14.1228 6.36584 14.1228 6.36584C14.294 6.55826 14.4931 6.7239 14.7136 6.8572C14.8339 6.9118 15.1402 6.98823 15.0855 6.8572C14.926 6.58812 14.735 6.33888 14.5167 6.1147V6.02735C14.462 6.02735 14.462 6.02735 14.4401 6.02735V5.87448C14.3416 5.87448 14.3635 5.73253 14.3197 5.6561C14.276 5.57967 14.3197 5.35037 14.2432 5.20842C14.2207 5.06765 14.2133 4.92489 14.2213 4.78257C14.1447 4.36765 14.0463 3.9964 13.9916 3.59239C14.0283 3.13269 14.2038 2.69489 14.4948 2.33669C14.6528 2.0168 14.89 1.74245 15.184 1.53959C15.2852 1.24246 15.4493 0.97059 15.6653 0.7425C15.8747 0.526908 16.1285 0.359261 16.4092 0.25114C16.6232 0.155527 16.8423 0.0716886 17.0656 0L0 0V13.1029H12.0334C12.5447 12.7841 13.0828 12.5101 13.6415 12.284C14.0925 12.0921 14.5186 11.8464 14.9105 11.5524L14.9433 11.5633ZM11.1254 9.8272C11.0707 9.8272 10.9723 9.8272 10.9942 9.8272C11.016 9.8272 11.1911 9.69617 11.3005 9.6525C11.4099 9.60882 11.4208 9.57606 11.4646 9.6525C11.5083 9.72893 11.5958 9.6525 11.6396 9.75077C11.4974 9.90364 11.3005 9.8272 11.1254 9.90364V9.8272ZM7.3185 9.35768C7.31265 9.33995 7.31265 9.32082 7.3185 9.30309C7.62268 8.87532 7.88289 8.41805 8.0952 7.9382C8.41173 7.75188 8.69615 7.51592 8.93754 7.23937C9.32997 6.7938 9.80084 6.42372 10.3268 6.14746C10.5362 6.07674 10.763 6.07674 10.9723 6.14746C10.8957 6.25665 10.7754 6.22389 10.6769 6.30033C10.665 6.30612 10.6519 6.30913 10.6386 6.30913C10.6254 6.30913 10.6123 6.30612 10.6003 6.30033C10.6096 6.27568 10.6096 6.24854 10.6003 6.22389C10.3597 6.49687 10.0096 6.61698 9.81269 6.94456C9.61578 7.27213 9.56109 7.51235 9.2329 7.58878C9.13445 7.58878 9.2329 7.51235 9.2329 7.58878C8.51658 8.04519 7.87152 8.60442 7.3185 9.24849V9.35768ZM9.38605 7.64338C9.38605 7.64338 9.33136 7.64338 9.30948 7.74165C9.30068 7.76388 9.2874 7.78408 9.27046 7.80098C9.25353 7.81788 9.2333 7.83114 9.21102 7.83992H9.15633C9.1681 7.78823 9.19362 7.74067 9.2302 7.70224C9.26678 7.66381 9.31306 7.63593 9.36418 7.62154L9.38605 7.64338ZM10.5128 11.334C10.501 11.3636 10.4823 11.3898 10.4581 11.4105C10.4024 11.4674 10.3353 11.5121 10.2612 11.5415L10.1628 11.6289C10.1628 11.6289 9.99866 11.6289 10.0424 11.6289L10.2284 11.4541L10.3268 11.3559V11.3013C10.3268 11.3013 10.48 11.3013 10.4581 11.3013L10.5128 11.334ZM10.0096 11.0938L9.84551 11.3122L9.51733 11.476C9.42427 11.5289 9.3395 11.5951 9.26572 11.6725H9.21102H9.15633L8.75157 11.9237C8.69862 11.9692 8.65092 12.0205 8.60935 12.0765L8.57654 12.011L8.75157 11.7599C8.75157 11.7599 8.75157 11.7599 8.75157 11.7053C8.75157 11.7053 8.75157 11.7053 8.75157 11.6507C8.77715 11.602 8.81039 11.5578 8.85002 11.5197L8.75157 11.5961C8.75157 11.5961 8.67499 11.5961 8.75157 11.5961L8.8172 11.5415C8.85455 11.4954 8.89474 11.4516 8.93754 11.4105L9.01411 11.3559V11.2904C9.24384 11.0611 9.6486 11.072 9.96585 10.93C10.0862 10.93 10.2393 10.93 10.3597 10.93C10.4311 10.9094 10.507 10.9094 10.5785 10.93C10.3597 11.0501 10.1518 11.1921 9.94397 11.3122L10.0096 11.0938ZM10.4581 9.5979C10.4581 9.5979 10.5347 9.5979 10.5566 9.5979H10.5019L10.0971 9.69617C9.92209 9.69617 9.77987 9.87088 9.58296 9.91455C9.38605 9.95823 9.05787 9.93639 8.75157 10.0456C8.75157 10.0456 8.8719 9.94731 8.9266 9.87088C8.98129 9.79444 8.9266 9.87088 8.9266 9.87088C9.14326 9.63076 9.38534 9.41475 9.6486 9.22665V9.05194C9.68142 8.95367 9.84551 8.89908 9.84551 8.73529C9.86996 8.68222 9.90482 8.63458 9.94804 8.59519C9.99125 8.55581 10.0419 8.52547 10.0971 8.50599C10.0971 8.50599 10.0205 8.50599 10.0205 8.44047C10.0205 8.37496 9.82363 8.44047 9.72518 8.44047C9.76071 8.40844 9.80139 8.3826 9.84551 8.36404C9.84551 8.36404 9.84551 8.25485 9.96585 8.24393C10.0695 8.22953 10.1696 8.19622 10.2612 8.14566C10.0862 8.14566 9.88927 8.14566 9.71424 8.14566C9.82039 7.82828 10.0432 7.56292 10.3378 7.40316H10.4144C10.4127 7.46096 10.3911 7.51643 10.3533 7.5602C10.3154 7.60396 10.2636 7.63335 10.2065 7.64338C10.4088 7.66463 10.6074 7.71236 10.7972 7.78533C10.7972 7.78533 10.7207 7.78533 10.6988 7.78533C10.6769 7.78533 10.9723 7.78533 11.0926 7.90544C11.027 7.98187 10.9504 7.90544 10.8738 7.90544C11.6697 8.04134 12.4337 8.32267 13.1273 8.73529C12.5826 8.98033 12.0093 9.15641 11.4208 9.25941C11.3524 9.27526 11.2813 9.27526 11.2129 9.25941V9.33584C11.1352 9.30745 11.05 9.30745 10.9723 9.33584C10.9217 9.36261 10.8654 9.37661 10.8082 9.37661C10.751 9.37661 10.6946 9.36261 10.6441 9.33584" fill="#000091"/>
<path d="M36.1003 0H21.9994C21.9994 0 21.9994 0 22.1306 0.0655147L22.4916 0.25114C22.6844 0.336911 22.8506 0.472643 22.973 0.644228C23.0277 0.720661 23.1042 0.873529 23.0495 0.971801C22.9948 1.07007 22.973 1.28846 22.8526 1.34305C22.682 1.39814 22.4982 1.39814 22.3275 1.34305C22.2294 1.35361 22.1303 1.35361 22.0322 1.34305C22.417 1.46111 22.7566 1.69346 23.0058 2.00912C23.0058 2.00912 23.1261 2.08555 23.2246 2.08555C23.323 2.08555 23.2246 2.08555 23.2246 2.16198C23.2246 2.23842 23.1261 2.23842 23.1589 2.30393H23.2246C23.3558 2.30393 23.323 2.00912 23.4981 2.08555C23.56 2.12215 23.6056 2.1808 23.6259 2.24969C23.6462 2.31858 23.6396 2.39258 23.6075 2.4568L23.3012 2.70794C23.2792 2.76411 23.2792 2.82647 23.3012 2.88265C23.3629 2.97193 23.4074 3.07191 23.4324 3.17746C23.4981 3.35217 23.5309 3.54871 23.6075 3.72342C23.7237 4.0755 23.7791 4.44471 23.7715 4.81533C23.7715 5.01187 23.6731 5.18658 23.7715 5.38312C23.8406 5.56844 23.9325 5.74449 24.045 5.90724C24.1435 6.03305 24.2348 6.16429 24.3185 6.30033C24.4717 6.55147 24.7452 6.80261 24.6139 7.09742C24.4826 7.39224 24.2748 7.23937 24.0997 7.34856C23.9247 7.45775 24.0997 7.66522 24.0997 7.78533C24.0997 7.90544 23.9575 8.15658 23.7825 8.23301C23.7825 8.30945 23.9247 8.28761 23.9575 8.33128C23.9903 8.37496 24.0997 8.52783 24.0232 8.65886C23.9466 8.78989 23.6293 8.87724 23.7825 9.10654C23.8225 9.19199 23.8433 9.28518 23.8433 9.37952C23.8433 9.47386 23.8225 9.56705 23.7825 9.6525C23.7445 9.74668 23.6836 9.82994 23.6053 9.89475C23.527 9.95957 23.4337 10.0039 23.334 10.0237C23.179 10.0578 23.0185 10.0578 22.8636 10.0237C22.8203 9.99622 22.772 9.97766 22.7214 9.96915C22.301 9.9005 21.8775 9.85312 21.4524 9.8272C21.332 9.85043 21.2146 9.88705 21.1023 9.93639C20.994 10.012 20.8948 10.0999 20.807 10.1985V10.264C20.7338 10.357 20.668 10.4556 20.61 10.5588C20.5323 10.701 20.47 10.8511 20.4241 11.0065C20.3428 11.1924 20.3008 11.3932 20.3008 11.5961C20.3008 11.799 20.3428 11.9998 20.4241 12.1857C20.4241 12.1857 21.2445 12.4587 21.7915 12.6989L22.3822 12.9937H36.1003V0Z" fill="#E1000F"/>
<path d="M22.8416 4.78266C22.9401 4.78266 23.0932 4.78266 23.0932 4.85909C23.0932 4.93552 22.7432 5.11023 22.59 5.30677H22.5244C22.4478 5.30677 22.4697 5.48148 22.3931 5.48148C22.3227 5.45459 22.2448 5.45459 22.1743 5.48148C22.2196 5.53479 22.2769 5.5765 22.3417 5.6031C22.4064 5.6297 22.4765 5.64041 22.5463 5.63435C22.5675 5.64099 22.5863 5.65396 22.6 5.67152C22.6136 5.68908 22.6216 5.7104 22.6228 5.73262H22.6775V5.83089C22.601 5.92916 22.4806 5.83089 22.3712 5.90732C22.562 5.95121 22.7603 5.95121 22.951 5.90732C23.0932 5.90732 22.951 5.60159 23.0495 5.48148C23.1479 5.36137 23.0495 5.40504 22.9948 5.40504C22.9401 5.40504 23.0932 5.28493 23.1479 5.2631C23.207 5.25827 23.2618 5.23089 23.3011 5.18666C23.3011 5.18666 23.1917 5.11023 23.2245 5.05563C23.2573 5.00104 23.498 4.81541 23.4433 4.66255C23.3886 4.50968 23.2245 4.58611 23.0932 4.54243C22.9573 4.50474 22.8135 4.50474 22.6775 4.54243C22.5508 4.56358 22.4263 4.59648 22.3056 4.64071C22.1369 4.7001 21.9783 4.78478 21.8352 4.89185C22.0095 4.82652 22.1887 4.7754 22.3712 4.73898C22.513 4.72264 22.6561 4.72264 22.7979 4.73898" fill="#9C9C9A"/>
</g>
<defs>
<clipPath id="clip0">
<rect width="131" height="103" fill="white"/>
</clipPath>
</defs>
</svg>
