<?xml version="1.0" encoding="utf-8"?>
<!-- Generator: Adobe Illustrator 25.0.1, SVG Export Plug-In . SVG Version: 6.00 Build 0)  -->
<svg version="1.1" id="Calque_1" xmlns="http://www.w3.org/2000/svg" xmlns:xlink="http://www.w3.org/1999/xlink" x="0px" y="0px"
	 viewBox="0 0 2091.2 879.1" style="enable-background:new 0 0 2091.2 879.1;" xml:space="preserve">
<style type="text/css">
	.Voûte _x002D__x0020_Vert{fill:url(#SVGID_1_);stroke:#FFFFFF;stroke-width:0.25;stroke-miterlimit:1;}
	.st0{fill:none;}
	.st1{fill:#FFD800;}
	.st2{fill:#FFFFFF;}
	.st3{fill:#5AC4ED;}
	.st4{fill:#FFD700;}
	.st5{fill:#5EC5ED;}
</style>
<linearGradient id="SVGID_1_" gradientUnits="userSpaceOnUse" x1="593.2817" y1="738.5054" x2="593.9888" y2="737.7983">
	<stop  offset="0" style="stop-color:#259E2E"/>
	<stop  offset="0.9831" style="stop-color:#1C381D"/>
</linearGradient>
<rect x="-204.7" y="-2450.2" class="st0" width="2437.8" height="5782.7"/>
<path class="st1" d="M1284.2-1430.4c-0.5-3.9-1.8-7.5-4-10.6c-3.1-4.3-7.9-6.4-14.4-6.4c-9.3,0-15.7,4.6-19.1,13.8
	c-1.8,4.9-2.7,11.4-2.7,19.5c0,7.7,0.9,13.9,2.7,18.6c3.3,8.8,9.5,13.1,18.6,13.1c6.5,0,11-1.7,13.8-5.2c2.7-3.5,4.4-8,4.9-13.5
	h28.1c-0.6,8.4-3.7,16.3-9.1,23.8c-8.6,12-21.4,18.1-38.4,18.1c-17,0-29.4-5-37.4-15.1c-8-10-12-23.1-12-39.1
	c0-18.1,4.4-32.1,13.2-42.2c8.8-10,21-15.1,36.6-15.1c13.2,0,24,3,32.5,8.9c8.4,5.9,13.4,16.4,14.9,31.4H1284.2z"/>
<path class="st1" d="M1419.1-1375.7c-8.9,11-22.4,16.5-40.5,16.5c-18.1,0-31.6-5.5-40.5-16.5c-8.9-11-13.3-24.2-13.3-39.6
	c0-15.2,4.4-28.4,13.3-39.5c8.9-11.1,22.4-16.7,40.5-16.7c18.1,0,31.6,5.6,40.5,16.7c8.9,11.1,13.3,24.3,13.3,39.5
	C1432.4-1399.9,1428-1386.7,1419.1-1375.7 M1397.1-1390.9c4.3-5.7,6.5-13.9,6.5-24.4c0-10.6-2.2-18.7-6.5-24.4
	c-4.3-5.7-10.5-8.5-18.6-8.5c-8.1,0-14.3,2.8-18.6,8.5c-4.4,5.7-6.5,13.8-6.5,24.4c0,10.5,2.2,18.7,6.5,24.4
	c4.3,5.7,10.5,8.6,18.6,8.6C1386.6-1382.4,1392.7-1385.2,1397.1-1390.9"/>
<path class="st1" d="M1583.5-1467.8c4.5,1.8,8.6,5,12.3,9.5c3,3.7,5,8.2,6,13.5c0.6,3.5,1,8.7,1,15.6l-0.2,66.4h-28.2v-67.1
	c0-4-0.6-7.3-1.9-9.9c-2.5-4.9-7-7.3-13.5-7.3c-7.6,0-12.9,3.2-15.8,9.5c-1.5,3.3-2.2,7.4-2.2,12.1v62.7h-27.7v-62.7
	c0-6.2-0.6-10.8-1.9-13.6c-2.3-5.1-6.9-7.6-13.6-7.6c-7.9,0-13.1,2.5-15.8,7.6c-1.5,2.9-2.2,7.2-2.2,12.9v63.4h-27.9V-1468h26.8
	v15.4c3.4-5.5,6.6-9.4,9.7-11.7c5.3-4.1,12.3-6.2,20.8-6.2c8,0,14.6,1.8,19.5,5.3c4,3.3,7,7.5,9.1,12.7c3.6-6.2,8.1-10.7,13.4-13.6
	c5.7-2.9,12-4.3,18.9-4.3C1574.5-1470.5,1579-1469.6,1583.5-1467.8"/>
<path class="st1" d="M1839.3-1758.6c42.2-158.2-35-304.3-158.2-350.8c-91-34.3-182.7,23.1-259.9,91.4
	c-84.2,74.4-204.5,222.3-271.8,218.3c-61-3.7-295.5-308.5-509.5-334.6c-233.1-28.4-454,141-462.2,416
	c-8.9,300,236.2,433.2,456.2,396.5c194.7-32.4,447.2-236.8,487-266.2c207.4-152.9,286.4,138.8,493.2,73.6
	C1684.7-1536.6,1793.4-1586.5,1839.3-1758.6"/>
<path class="st2" d="M430.3-1561.4v7l0.6,7.6v7c0,54.5-30.5,80.9-94.4,80.9c-10,0-17.6-0.6-31.1-1.2v-62.8c5.9,0.6,10,0.6,14.7,0.6
	c31.7,0,32.9-2.4,32.9-62.8v-259.8h77.4V-1561.4z M430.3-1886.3h-77.4v-66.3h77.4V-1886.3z"/>
<path class="st2" d="M765.1-1702.7c0,89.7-58.1,149-146,149c-88,0-147.2-59.8-147.2-148.4c0-89.7,59.2-150.1,146-150.1
	C707.6-1852.3,765.1-1794.2,765.1-1702.7 M549.9-1702.7c0,57.5,25.8,91.5,69.2,91.5c42.2,0,68-34,68-90.9
	c0-58.7-25.2-92.7-68.6-92.7C575.6-1794.8,549.9-1760.2,549.9-1702.7"/>
<path class="st2" d="M886.6-1810c21.1-28.7,51-42.8,89.7-42.8c71.5,0,120.8,59.2,120.8,145.5c0,92.1-50.4,153.7-126.1,153.7
	c-39.3,0-69.2-14.7-88-43.4v35.8h-73.9v-391.2h77.4V-1810z M883.7-1706.2c0,55.1,25.2,89.2,67.4,89.2c42.2,0,68-34,68-89.2
	c0-51.6-26.4-85.6-67.4-85.6C910.1-1791.9,883.7-1758.4,883.7-1706.2"/>
<path class="st3" d="M1228-1880.1h-77.4v-66.3h77.4V-1880.1z M1228-1555.2h-77.4v-283.3h77.4V-1555.2z"/>
<path class="st3" d="M1479.6-1771.6c-14.1-2.3-21.7-2.9-30.5-2.9c-28.2,0-52.2,13.5-64.5,36.9c-7.6,14.1-10.5,32.3-10.5,63.9v118.5
	h-77.4v-283.3h73.9v52.2c20.5-39.3,50.4-58.1,91.5-58.1c3.5,0,10,0.6,17.6,1.2V-1771.6z"/>
<rect x="1517.9" y="-1946.4" class="st3" width="77.4" height="391.2"/>
<rect x="-204.7" y="-2450.2" class="st0" width="2437.8" height="5782.7"/>
<path class="st1" d="M1284.2-1430.4c-0.5-3.9-1.8-7.5-4-10.6c-3.1-4.3-7.9-6.4-14.4-6.4c-9.3,0-15.7,4.6-19.1,13.8
	c-1.8,4.9-2.7,11.4-2.7,19.5c0,7.7,0.9,13.9,2.7,18.6c3.3,8.8,9.5,13.1,18.6,13.1c6.5,0,11-1.7,13.8-5.2c2.7-3.5,4.4-8,4.9-13.5
	h28.1c-0.6,8.4-3.7,16.3-9.1,23.8c-8.6,12-21.4,18.1-38.4,18.1c-17,0-29.4-5-37.4-15.1c-8-10-12-23.1-12-39.1
	c0-18.1,4.4-32.1,13.2-42.2c8.8-10,21-15.1,36.6-15.1c13.2,0,24,3,32.5,8.9c8.4,5.9,13.4,16.4,14.9,31.4H1284.2z"/>
<path class="st1" d="M1419.1-1375.7c-8.9,11-22.4,16.5-40.5,16.5c-18.1,0-31.6-5.5-40.5-16.5c-8.9-11-13.3-24.2-13.3-39.6
	c0-15.2,4.4-28.4,13.3-39.5c8.9-11.1,22.4-16.7,40.5-16.7c18.1,0,31.6,5.6,40.5,16.7c8.9,11.1,13.3,24.3,13.3,39.5
	C1432.4-1399.9,1428-1386.7,1419.1-1375.7 M1397.1-1390.9c4.3-5.7,6.5-13.9,6.5-24.4c0-10.6-2.2-18.7-6.5-24.4
	c-4.3-5.7-10.5-8.5-18.6-8.5c-8.1,0-14.3,2.8-18.6,8.5c-4.4,5.7-6.5,13.8-6.5,24.4c0,10.5,2.2,18.7,6.5,24.4
	c4.3,5.7,10.5,8.6,18.6,8.6C1386.6-1382.4,1392.7-1385.2,1397.1-1390.9"/>
<path class="st1" d="M1583.5-1467.8c4.5,1.8,8.6,5,12.3,9.5c3,3.7,5,8.2,6,13.5c0.6,3.5,1,8.7,1,15.6l-0.2,66.4h-28.2v-67.1
	c0-4-0.6-7.3-1.9-9.9c-2.5-4.9-7-7.3-13.5-7.3c-7.6,0-12.9,3.2-15.8,9.5c-1.5,3.3-2.2,7.4-2.2,12.1v62.7h-27.7v-62.7
	c0-6.2-0.6-10.8-1.9-13.6c-2.3-5.1-6.9-7.6-13.6-7.6c-7.9,0-13.1,2.5-15.8,7.6c-1.5,2.9-2.2,7.2-2.2,12.9v63.4h-27.9V-1468h26.8
	v15.4c3.4-5.5,6.6-9.4,9.7-11.7c5.3-4.1,12.3-6.2,20.8-6.2c8,0,14.6,1.8,19.5,5.3c4,3.3,7,7.5,9.1,12.7c3.6-6.2,8.1-10.7,13.4-13.6
	c5.7-2.9,12-4.3,18.9-4.3C1574.5-1470.5,1579-1469.6,1583.5-1467.8"/>
<path class="st1" d="M1839.3-1758.6c42.2-158.2-35-304.3-158.2-350.8c-91-34.3-182.7,23.1-259.9,91.4
	c-84.2,74.4-204.5,222.3-271.8,218.3c-61-3.7-295.5-308.5-509.5-334.6c-233.1-28.4-454,141-462.2,416
	c-8.9,300,236.2,433.2,456.2,396.5c194.7-32.4,447.2-236.8,487-266.2c207.4-152.9,286.4,138.8,493.2,73.6
	C1684.7-1536.6,1793.4-1586.5,1839.3-1758.6"/>
<path class="st2" d="M430.3-1561.4v7l0.6,7.6v7c0,54.5-30.5,80.9-94.4,80.9c-10,0-17.6-0.6-31.1-1.2v-62.8c5.9,0.6,10,0.6,14.7,0.6
	c31.7,0,32.9-2.4,32.9-62.8v-259.8h77.4V-1561.4z M430.3-1886.3h-77.4v-66.3h77.4V-1886.3z"/>
<path class="st2" d="M765.1-1702.7c0,89.7-58.1,149-146,149c-88,0-147.2-59.8-147.2-148.4c0-89.7,59.2-150.1,146-150.1
	C707.6-1852.3,765.1-1794.2,765.1-1702.7 M549.9-1702.7c0,57.5,25.8,91.5,69.2,91.5c42.2,0,68-34,68-90.9
	c0-58.7-25.2-92.7-68.6-92.7C575.6-1794.8,549.9-1760.2,549.9-1702.7"/>
<path class="st2" d="M886.6-1810c21.1-28.7,51-42.8,89.7-42.8c71.5,0,120.8,59.2,120.8,145.5c0,92.1-50.4,153.7-126.1,153.7
	c-39.3,0-69.2-14.7-88-43.4v35.8h-73.9v-391.2h77.4V-1810z M883.7-1706.2c0,55.1,25.2,89.2,67.4,89.2c42.2,0,68-34,68-89.2
	c0-51.6-26.4-85.6-67.4-85.6C910.1-1791.9,883.7-1758.4,883.7-1706.2"/>
<path class="st3" d="M1228-1880.1h-77.4v-66.3h77.4V-1880.1z M1228-1555.2h-77.4v-283.3h77.4V-1555.2z"/>
<path class="st3" d="M1479.6-1771.6c-14.1-2.3-21.7-2.9-30.5-2.9c-28.2,0-52.2,13.5-64.5,36.9c-7.6,14.1-10.5,32.3-10.5,63.9v118.5
	h-77.4v-283.3h73.9v52.2c20.5-39.3,50.4-58.1,91.5-58.1c3.5,0,10,0.6,17.6,1.2V-1771.6z"/>
<rect x="1517.9" y="-1946.4" class="st3" width="77.4" height="391.2"/>
<rect x="-204.7" y="-2450.2" class="st0" width="2437.8" height="5782.7"/>
<path class="st1" d="M1284.2-1430.4c-0.5-3.9-1.8-7.5-4-10.6c-3.1-4.3-7.9-6.4-14.4-6.4c-9.3,0-15.7,4.6-19.1,13.8
	c-1.8,4.9-2.7,11.4-2.7,19.5c0,7.7,0.9,13.9,2.7,18.6c3.3,8.8,9.5,13.1,18.6,13.1c6.5,0,11-1.7,13.8-5.2c2.7-3.5,4.4-8,4.9-13.5
	h28.1c-0.6,8.4-3.7,16.3-9.1,23.8c-8.6,12-21.4,18.1-38.4,18.1c-17,0-29.4-5-37.4-15.1c-8-10-12-23.1-12-39.1
	c0-18.1,4.4-32.1,13.2-42.2c8.8-10,21-15.1,36.6-15.1c13.2,0,24,3,32.5,8.9c8.4,5.9,13.4,16.4,14.9,31.4H1284.2z"/>
<path class="st1" d="M1419.1-1375.7c-8.9,11-22.4,16.5-40.5,16.5c-18.1,0-31.6-5.5-40.5-16.5c-8.9-11-13.3-24.2-13.3-39.6
	c0-15.2,4.4-28.4,13.3-39.5c8.9-11.1,22.4-16.7,40.5-16.7c18.1,0,31.6,5.6,40.5,16.7c8.9,11.1,13.3,24.3,13.3,39.5
	C1432.4-1399.9,1428-1386.7,1419.1-1375.7 M1397.1-1390.9c4.3-5.7,6.5-13.9,6.5-24.4c0-10.6-2.2-18.7-6.5-24.4
	c-4.3-5.7-10.5-8.5-18.6-8.5c-8.1,0-14.3,2.8-18.6,8.5c-4.4,5.7-6.5,13.8-6.5,24.4c0,10.5,2.2,18.7,6.5,24.4
	c4.3,5.7,10.5,8.6,18.6,8.6C1386.6-1382.4,1392.7-1385.2,1397.1-1390.9"/>
<path class="st1" d="M1583.5-1467.8c4.5,1.8,8.6,5,12.3,9.5c3,3.7,5,8.2,6,13.5c0.6,3.5,1,8.7,1,15.6l-0.2,66.4h-28.2v-67.1
	c0-4-0.6-7.3-1.9-9.9c-2.5-4.9-7-7.3-13.5-7.3c-7.6,0-12.9,3.2-15.8,9.5c-1.5,3.3-2.2,7.4-2.2,12.1v62.7h-27.7v-62.7
	c0-6.2-0.6-10.8-1.9-13.6c-2.3-5.1-6.9-7.6-13.6-7.6c-7.9,0-13.1,2.5-15.8,7.6c-1.5,2.9-2.2,7.2-2.2,12.9v63.4h-27.9V-1468h26.8
	v15.4c3.4-5.5,6.6-9.4,9.7-11.7c5.3-4.1,12.3-6.2,20.8-6.2c8,0,14.6,1.8,19.5,5.3c4,3.3,7,7.5,9.1,12.7c3.6-6.2,8.1-10.7,13.4-13.6
	c5.7-2.9,12-4.3,18.9-4.3C1574.5-1470.5,1579-1469.6,1583.5-1467.8"/>
<path class="st1" d="M1839.3-1758.6c42.2-158.2-35-304.3-158.2-350.8c-91-34.3-182.7,23.1-259.9,91.4
	c-84.2,74.4-204.5,222.3-271.8,218.3c-61-3.7-295.5-308.5-509.5-334.6c-233.1-28.4-454,141-462.2,416
	c-8.9,300,236.2,433.2,456.2,396.5c194.7-32.4,447.2-236.8,487-266.2c207.4-152.9,286.4,138.8,493.2,73.6
	C1684.7-1536.6,1793.4-1586.5,1839.3-1758.6"/>
<path class="st2" d="M430.3-1561.4v7l0.6,7.6v7c0,54.5-30.5,80.9-94.4,80.9c-10,0-17.6-0.6-31.1-1.2v-62.8c5.9,0.6,10,0.6,14.7,0.6
	c31.7,0,32.9-2.4,32.9-62.8v-259.8h77.4V-1561.4z M430.3-1886.3h-77.4v-66.3h77.4V-1886.3z"/>
<path class="st2" d="M765.1-1702.7c0,89.7-58.1,149-146,149c-88,0-147.2-59.8-147.2-148.4c0-89.7,59.2-150.1,146-150.1
	C707.6-1852.3,765.1-1794.2,765.1-1702.7 M549.9-1702.7c0,57.5,25.8,91.5,69.2,91.5c42.2,0,68-34,68-90.9
	c0-58.7-25.2-92.7-68.6-92.7C575.6-1794.8,549.9-1760.2,549.9-1702.7"/>
<path class="st2" d="M886.6-1810c21.1-28.7,51-42.8,89.7-42.8c71.5,0,120.8,59.2,120.8,145.5c0,92.1-50.4,153.7-126.1,153.7
	c-39.3,0-69.2-14.7-88-43.4v35.8h-73.9v-391.2h77.4V-1810z M883.7-1706.2c0,55.1,25.2,89.2,67.4,89.2c42.2,0,68-34,68-89.2
	c0-51.6-26.4-85.6-67.4-85.6C910.1-1791.9,883.7-1758.4,883.7-1706.2"/>
<path class="st3" d="M1228-1880.1h-77.4v-66.3h77.4V-1880.1z M1228-1555.2h-77.4v-283.3h77.4V-1555.2z"/>
<path class="st3" d="M1479.6-1771.6c-14.1-2.3-21.7-2.9-30.5-2.9c-28.2,0-52.2,13.5-64.5,36.9c-7.6,14.1-10.5,32.3-10.5,63.9v118.5
	h-77.4v-283.3h73.9v52.2c20.5-39.3,50.4-58.1,91.5-58.1c3.5,0,10,0.6,17.6,1.2V-1771.6z"/>
<rect x="1517.9" y="-1946.4" class="st3" width="77.4" height="391.2"/>
<path class="st4" d="M1273.2,735.6c-0.5-3.9-1.8-7.5-4-10.6c-3.1-4.3-7.9-6.4-14.4-6.4c-9.3,0-15.7,4.6-19.1,13.8
	c-1.8,4.9-2.7,11.4-2.7,19.5c0,7.7,0.9,13.9,2.7,18.6c3.3,8.8,9.5,13.1,18.6,13.1c6.5,0,11-1.7,13.8-5.2c2.7-3.5,4.4-8,4.9-13.5
	h28.1c-0.6,8.4-3.7,16.3-9.1,23.8c-8.6,12-21.4,18.1-38.4,18.1c-17,0-29.4-5-37.4-15.1c-8-10-12-23.1-12-39.1
	c0-18.1,4.4-32.1,13.2-42.2c8.8-10,21-15.1,36.6-15.1c13.2,0,24,3,32.5,8.9c8.4,5.9,13.4,16.4,14.9,31.4H1273.2z"/>
<path class="st4" d="M1408.1,790.3c-8.9,11-22.4,16.5-40.5,16.5c-18.1,0-31.6-5.5-40.5-16.5c-8.9-11-13.3-24.2-13.3-39.6
	c0-15.2,4.4-28.4,13.3-39.5c8.9-11.1,22.4-16.7,40.5-16.7c18.1,0,31.6,5.6,40.5,16.7c8.9,11.1,13.3,24.3,13.3,39.5
	C1421.4,766.1,1417,779.3,1408.1,790.3 M1386.1,775.1c4.3-5.7,6.5-13.9,6.5-24.4c0-10.6-2.2-18.7-6.5-24.4
	c-4.3-5.7-10.5-8.5-18.6-8.5c-8.1,0-14.3,2.8-18.6,8.5c-4.4,5.7-6.5,13.8-6.5,24.4c0,10.5,2.2,18.7,6.5,24.4
	c4.3,5.7,10.5,8.6,18.6,8.6C1375.6,783.6,1381.7,780.8,1386.1,775.1"/>
<path class="st4" d="M1572.5,698.2c4.5,1.8,8.6,5,12.3,9.5c3,3.7,5,8.2,6,13.5c0.6,3.5,1,8.7,1,15.6l-0.2,66.4h-28.2v-67.1
	c0-4-0.6-7.3-1.9-9.9c-2.5-4.9-7-7.3-13.5-7.3c-7.6,0-12.9,3.2-15.8,9.5c-1.5,3.3-2.2,7.4-2.2,12.1v62.7h-27.7v-62.7
	c0-6.2-0.6-10.8-1.9-13.6c-2.3-5.1-6.9-7.6-13.6-7.6c-7.9,0-13.1,2.5-15.8,7.6c-1.5,2.9-2.2,7.2-2.2,12.9v63.4h-27.9V698h26.8v15.4
	c3.4-5.5,6.6-9.4,9.7-11.7c5.3-4.1,12.3-6.2,20.8-6.2c8,0,14.6,1.8,19.5,5.3c4,3.3,7,7.5,9.1,12.7c3.6-6.2,8.1-10.7,13.4-13.6
	c5.7-2.9,12-4.3,18.9-4.3C1563.5,695.5,1568,696.4,1572.5,698.2"/>
<path class="st4" d="M1828.3,407.4c42.2-158.2-35-304.3-158.2-350.8c-91-34.3-182.7,23.1-259.9,91.4
	c-84.2,74.4-204.5,222.3-271.8,218.3c-61-3.7-295.5-308.5-509.5-334.6c-233.1-28.4-454,141-462.2,416
	c-8.9,300,236.2,433.2,456.2,396.5c194.7-32.4,447.2-236.8,487-266.2c207.4-152.9,286.4,138.8,493.2,73.6
	C1673.7,629.4,1782.4,579.5,1828.3,407.4"/>
<path class="st2" d="M419.3,604.6v7l0.6,7.6v7c0,54.5-30.5,80.9-94.4,80.9c-10,0-17.6-0.6-31.1-1.2v-62.8c5.9,0.6,10,0.6,14.7,0.6
	c31.7,0,32.9-2.4,32.9-62.8V321.4h77.4V604.6z M419.3,279.7h-77.4v-66.3h77.4V279.7z"/>
<path class="st2" d="M754.1,463.3c0,89.7-58.1,149-146,149c-88,0-147.2-59.8-147.2-148.4c0-89.7,59.2-150.1,146-150.1
	C696.6,313.7,754.1,371.8,754.1,463.3 M538.9,463.3c0,57.5,25.8,91.5,69.2,91.5c42.2,0,68-34,68-90.9c0-58.7-25.2-92.7-68.6-92.7
	C564.6,371.2,538.9,405.8,538.9,463.3"/>
<path class="st2" d="M875.6,356c21.1-28.7,51-42.8,89.7-42.8c71.5,0,120.8,59.2,120.8,145.5c0,92.1-50.4,153.7-126.1,153.7
	c-39.3,0-69.2-14.7-88-43.4v35.8h-73.9V213.4h77.4V356z M872.7,459.8c0,55.1,25.2,89.2,67.4,89.2c42.2,0,68-34,68-89.2
	c0-51.6-26.4-85.6-67.4-85.6C899.1,374.1,872.7,407.6,872.7,459.8"/>
<path class="st5" d="M1217,285.9h-77.4v-66.3h77.4V285.9z M1217,610.8h-77.4V327.5h77.4V610.8z"/>
<path class="st5" d="M1468.6,394.4c-14.1-2.3-21.7-2.9-30.5-2.9c-28.2,0-52.2,13.5-64.5,36.9c-7.6,14.1-10.5,32.3-10.5,63.9v118.5
	h-77.4V327.5h73.9v52.2c20.5-39.3,50.4-58.1,91.5-58.1c3.5,0,10,0.6,17.6,1.2V394.4z"/>
<rect x="1506.9" y="219.6" class="st5" width="77.4" height="391.2"/>
<rect x="1158.4" y="777.1" class="st4" width="26" height="26.1"/>
</svg>
