<svg xmlns="http://www.w3.org/2000/svg" width="113" height="89" viewBox="0 0 113 89" fill="none">
  <mask id="mask0_8486_44860" style="mask-type:alpha" maskUnits="userSpaceOnUse" x="0" y="0" width="113" height="89">
    <path d="M7.66251 55.4088C4.60333 50.6268 2.33615 46.4869 1.04226 41.9165C-1.6009 32.5768 0.434215 25.2095 11.1973 18.536C15.6594 15.7688 20.6544 13.9395 25.6723 12.1947C36.9061 8.28849 48.1957 4.52922 59.8485 1.76992C65.8151 0.356855 70.1805 -0.0913818 81.42 0.0149465C92.6595 0.121275 101.033 4.90988 107.196 13.2452C108.258 14.682 109.132 16.2356 110.074 17.745C112.183 21.1257 113.069 24.7853 112.996 28.6522C112.911 33.1408 111.752 37.3918 109.742 41.4887C102.522 56.2108 91.8801 68.4452 77.8171 78.1915C71.8246 82.3772 65.0302 85.5067 57.782 87.4202C45.3425 90.6955 34.8217 87.9929 26.4708 79.0118C22.1707 74.3869 18.2703 69.4432 14.3462 64.5388C11.7974 61.354 9.53243 57.9802 7.66251 55.4088Z" fill="white"/>
  </mask>
  <g mask="url(#mask0_8486_44860)">
    <path d="M7.66251 55.4088C4.60333 50.6268 2.33615 46.4869 1.04226 41.9165C-1.6009 32.5768 0.434215 25.2095 11.1973 18.536C15.6594 15.7688 20.6544 13.9395 25.6723 12.1947C36.9061 8.28849 48.1957 4.52922 59.8485 1.76992C65.8151 0.356855 70.1805 -0.0913818 81.42 0.0149465C92.6595 0.121275 101.033 4.90988 107.196 13.2452C108.258 14.682 109.132 16.2356 110.074 17.745C112.183 21.1257 113.069 24.7853 112.996 28.6522C112.911 33.1408 111.752 37.3918 109.742 41.4887C102.522 56.2108 91.8801 68.4452 77.8171 78.1915C71.8246 82.3772 65.0302 85.5067 57.782 87.4202C45.3425 90.6955 34.8217 87.9929 26.4708 79.0118C22.1707 74.3869 18.2703 69.4432 14.3462 64.5388C11.7974 61.354 9.53243 57.9802 7.66251 55.4088Z" fill="#2351DF"/>
  </g>
  <path fill-rule="evenodd" clip-rule="evenodd" d="M25.2174 24.9937C24.7289 24.5983 24.1895 24.274 23.8188 23.7326C23.0414 22.5969 22.8158 21.4408 23.5093 20.1897C23.5599 20.0985 23.5694 19.9848 23.598 19.8815C22.6221 19.2987 21.6139 18.7659 20.7229 18.0521C19.6451 18.0505 18.5714 18.0102 17.4902 18.1263C16.5519 18.2272 15.5947 18.1569 14.6458 18.1579C13.6087 18.1588 12.5715 18.1567 11.5343 18.152C11.1829 18.1503 10.8358 18.1526 10.4847 18.067C10.1168 17.9773 9.73736 18.006 9.41299 18.2546C9.10797 18.4885 9.06406 18.7448 9.32567 19.0337C9.59031 19.3262 9.86676 19.6153 10.1749 19.8603C11.0697 20.5716 11.8595 21.3954 12.7109 22.153C14.1688 23.4506 15.5686 24.8122 17.0196 26.1176C18.1282 27.1149 19.2342 28.1137 20.3244 29.131C21.7823 30.4915 23.2799 31.8102 24.7534 33.1546C24.9693 33.3515 25.2016 33.4516 25.4733 33.359C25.76 33.2612 25.8677 32.9907 25.862 32.7277C25.8347 31.4636 25.9413 30.198 25.775 28.934C25.7013 28.3745 25.7468 27.7996 25.7383 27.2316C25.7782 27.1474 25.7831 27.0531 25.724 26.9872C25.2663 26.4772 25.1685 25.8838 25.2908 25.2341C25.3074 25.1466 25.2727 25.0646 25.2174 24.9937Z" fill="#D6CFC8"/>
  <path fill-rule="evenodd" clip-rule="evenodd" d="M33.6451 38.4144C32.3031 38.5156 30.9622 38.6377 29.6187 38.7114C28.5955 38.7678 27.8 39.1467 27.5406 40.6065C27.1465 42.823 26.9524 45.0674 26.7176 47.3056C26.4964 49.4131 26.2417 51.5172 26.0022 53.6228C25.8071 55.3379 25.6144 57.0532 25.418 58.768C25.1694 60.9388 24.9169 63.1089 24.6682 65.2797C24.432 67.3418 24.2001 69.4045 23.9636 71.4665C23.7991 72.8991 23.6762 74.3385 23.4441 75.7604C23.323 76.5027 23.605 77.121 23.8064 77.7711C23.9061 78.0929 24.2396 78.1908 24.5642 78.2012C24.895 78.2119 25.2267 78.1967 25.5578 78.1963C32.2719 78.187 38.9862 78.1808 45.7003 78.1679C47.7319 78.164 49.7635 78.1412 51.7952 78.1293C52.0587 78.1277 52.3167 78.1295 52.5789 78.2124C53.169 78.3992 53.6762 78.1273 53.861 77.5324C54.2053 76.424 54.4506 75.295 54.5849 74.1404C55.0163 70.4339 54.9198 66.7155 54.8096 63.0009C54.7306 60.3367 54.4949 57.6793 54.217 55.0261C53.7568 50.6334 53.138 46.2682 52.0667 41.9756C51.8179 40.9783 51.5299 39.991 51.1381 39.0381C50.9888 38.6746 50.8243 38.3138 50.6284 37.9732C50.3479 37.4852 49.9493 37.2037 49.3309 37.2563C47.8809 37.3799 46.428 37.4701 44.9763 37.5733C44.426 37.6123 43.8755 37.6495 43.3251 37.6875C43.1013 37.8867 43.1139 38.1585 43.1108 38.4174C43.1006 39.2908 43.0331 40.1713 43.1265 41.0362C43.2936 42.5851 43.2113 44.1338 43.2339 45.6824C43.2412 46.1867 43.29 46.6845 43.3634 47.1811C43.6137 49.4529 43.666 51.7404 43.9044 54.0143C44.027 55.1848 43.9056 55.3141 42.7032 55.4112C40.969 55.5512 39.2399 55.7407 37.5066 55.8872C36.8957 55.9388 36.7875 55.8489 36.7555 55.207C36.6505 53.0991 36.3994 51.0008 36.3302 48.8905C36.323 48.671 36.2728 48.4582 36.2202 48.2462C36.2053 48.1716 36.1839 48.0985 36.161 48.0261C36.133 47.9164 36.1063 47.8062 36.0846 47.6947C35.6609 45.0208 35.2805 42.341 34.8933 39.6621C34.8745 39.5325 34.8606 39.4022 34.8392 39.273C34.6796 38.3128 34.678 38.3116 33.6451 38.4144Z" fill="#F48726"/>
  <path fill-rule="evenodd" clip-rule="evenodd" d="M41.5893 36.4781C41.8239 36.1452 41.7197 35.7765 41.704 35.4171C41.6821 35.4184 41.6485 35.411 41.6399 35.4222C41.1595 36.0526 41.1579 36.0571 40.3258 35.7459C39.693 35.5092 39.0591 35.2759 38.3911 35.0242C39.3816 35.1484 40.3405 35.1894 41.2977 35.2544C41.4538 35.265 41.606 35.2751 41.7294 35.1545C42.5777 34.9242 43.4423 34.7585 44.2649 34.4295C46.9882 33.3402 49.0295 31.4901 50.5371 29.0183C51.4608 27.5042 52.0357 25.8621 52.4467 24.154C52.0713 23.8906 51.8353 24.2319 51.5721 24.3724C48.8232 25.8401 45.6539 25.3858 43.4961 23.3246C40.7531 20.7042 40.8804 16.046 43.7384 13.4708C45.1543 12.1949 46.7911 11.5125 48.7232 11.5589C49.0417 11.5666 49.3914 11.6488 49.665 11.3829C49.6558 11.355 49.6555 11.327 49.6642 11.2988C49.643 11.226 49.5978 11.1723 49.5321 11.1346C49.0014 10.5683 48.5431 9.93728 47.9649 9.41339C47.4911 8.61318 46.7288 8.11241 45.9616 7.6623C44.8716 7.02275 43.7863 6.33736 42.4894 6.14648C42.1816 6.19234 42.1029 6.42052 42.1017 6.6729C42.0933 8.48092 41.1481 9.89431 40.0206 11.1592C37.2339 14.2853 33.8108 16.5006 29.8148 17.8339C28.2778 18.3467 26.6919 18.5817 25.0747 18.6307C24.4086 18.9096 23.8923 19.3729 23.4505 19.9284C22.355 21.9683 23.0828 24.2049 25.1314 25.1001C25.3962 25.114 25.5657 24.9218 25.7701 24.8058C26.424 24.435 27.0986 24.4868 27.6531 24.9534C28.1484 25.3701 28.2387 25.8294 27.9732 26.5887C27.9238 26.7301 27.8465 26.8678 27.9247 27.023C29.566 30.5412 32.1276 33.1128 35.8122 34.52C36.6193 34.8282 36.7368 34.9333 36.6453 35.8016C36.5834 36.3899 36.59 36.9765 36.5634 37.5636C36.5545 37.7595 36.5637 37.9561 36.5647 38.1524C37.0024 38.0116 36.8842 37.6294 36.8787 37.3414C36.869 36.8187 37.108 36.6549 37.5999 36.6612C38.6366 36.6746 39.6646 36.8721 40.7048 36.795C41.0302 36.7709 41.3815 36.8222 41.5893 36.4781Z" fill="#C7A07F"/>
  <path fill-rule="evenodd" clip-rule="evenodd" d="M25.0154 18.7581C28.5832 18.8131 31.7216 17.5026 34.7196 15.7554C36.7492 14.5726 38.5271 13.0799 40.0972 11.35C40.957 10.4028 41.6188 9.32393 42.062 8.11718C42.2323 7.65371 42.2771 7.18519 42.2668 6.70234C42.2627 6.50605 42.2315 6.29255 42.5182 6.25584C42.3063 5.71896 42.134 5.15704 41.5941 4.82837C40.3823 3.77542 38.9692 3.59899 37.412 3.74076C35.0194 3.95872 32.8331 4.76928 30.7245 5.82342C28.8535 6.75879 27.1469 7.93798 25.5614 9.30949C24.438 10.2813 23.4925 11.3775 22.6675 12.5926C22.3461 13.0661 22.0741 13.5724 21.8854 14.1039C21.3286 15.6713 21.4333 16.6365 22.5167 17.9154C22.347 18.0247 22.1104 17.8977 21.9608 18.07C22.9816 18.2877 23.8973 18.9636 25.0154 18.7581Z" fill="#D6CFC8"/>
  <path fill-rule="evenodd" clip-rule="evenodd" d="M25.1664 25.0504C24.6779 24.6552 24.1386 24.331 23.7679 23.7897C22.9905 22.6545 22.7649 21.4988 23.4584 20.2481C23.509 20.1568 23.5185 20.0432 23.547 19.94C22.5712 19.3574 21.563 18.8247 20.672 18.1111C19.5942 18.1096 18.5206 18.0692 17.4394 18.1854C16.5012 18.2862 15.544 18.216 14.5952 18.2169C13.558 18.2179 12.5209 18.2157 11.4837 18.211C11.1324 18.2093 10.7853 18.2116 10.4342 18.1261C10.0663 18.0364 9.68682 18.065 9.36247 18.3136C9.05746 18.5474 9.01355 18.8036 9.27515 19.0925C9.53979 19.3848 9.81623 19.6739 10.1244 19.9188C11.0191 20.6298 11.8089 21.4534 12.6602 22.2107C14.1182 23.5079 15.5179 24.869 16.9689 26.174C18.0774 27.171 19.1834 28.1694 20.2736 29.1864C21.7314 30.5464 23.229 31.8646 24.7024 33.2086C24.9183 33.4055 25.1505 33.5055 25.4222 33.4129C25.709 33.3152 25.8166 33.0448 25.8109 32.7818C25.7837 31.5181 25.8902 30.253 25.724 28.9895C25.6503 28.4301 25.6958 27.8554 25.6872 27.2876C25.7271 27.2035 25.7321 27.1091 25.673 27.0433C25.2152 26.5335 25.1175 25.9403 25.2398 25.2907C25.2564 25.2033 25.2217 25.1213 25.1664 25.0504Z" fill="#D6CFC8"/>
  <path fill-rule="evenodd" clip-rule="evenodd" d="M41.5861 36.4785C41.3415 36.6056 41.076 36.5842 40.8119 36.5985C39.6433 36.6617 38.4858 36.4434 37.3188 36.4724C36.6998 36.4879 36.7162 36.4805 36.6804 37.0746C36.6587 37.4345 36.783 37.8144 36.5614 38.1531C36.1301 38.2967 35.6769 38.2681 35.2336 38.3189C35.0496 38.4963 35.0865 38.7175 35.1167 38.9326C35.4949 41.6288 35.8809 44.3239 36.3 47.0142C36.3365 47.2486 36.3696 47.4918 36.5468 47.6789C37.2222 47.9555 37.8938 47.6701 38.5576 47.6245C39.7589 47.5418 40.9608 47.4221 42.1592 47.2861C42.3981 47.259 42.6484 47.2918 42.8416 47.1026C43.0078 46.85 42.9908 46.5628 42.9952 46.2815C43.0346 43.7388 42.7838 41.2016 42.8508 38.6576C42.86 38.3045 42.8676 37.8963 42.393 37.7587C42.3074 37.7686 42.2219 37.7839 42.1359 37.7872C41.5752 37.8088 41.5731 37.8079 41.5722 37.2475C41.5719 36.9911 41.5812 36.7349 41.5861 36.4785Z" fill="#F48726"/>
  <path fill-rule="evenodd" clip-rule="evenodd" d="M49.6633 11.3833C48.8299 11.4278 47.9976 11.3373 47.1605 11.5011C44.3429 12.0526 41.9699 14.4035 41.4596 17.2042C41.0259 19.5848 41.6268 21.6805 43.3361 23.3989C45.554 25.6289 48.9663 26.0518 51.7971 24.4371C52.0026 24.3197 52.1737 24.1238 52.445 24.1543C52.5192 23.99 52.6441 23.8635 52.7808 23.7541C53.8692 22.8835 54.6394 21.7829 55.081 20.4797C55.6208 18.8864 55.6224 17.293 54.9832 15.7039C54.3357 14.0944 53.2394 12.8996 51.7177 12.0817C51.2148 11.8114 50.6486 11.6841 50.1 11.524C49.9532 11.4811 49.8089 11.4305 49.6633 11.3833Z" fill="#FDEBEC"/>
  <path fill-rule="evenodd" clip-rule="evenodd" d="M41.5943 4.82868C41.765 5.12077 41.9486 5.40624 42.1019 5.707C42.2094 5.91809 42.3375 6.10451 42.5185 6.25628C44.4898 6.87235 46.2623 7.82721 47.7506 9.26708C47.8117 9.32617 47.8922 9.3654 47.9637 9.41391C48.0096 9.13614 48.0309 8.85163 48.1058 8.58168C48.3841 7.57856 48.0222 6.72468 47.4316 5.96503C46.2945 4.50229 44.7192 4.11922 42.9487 4.32417C42.4629 4.38038 42.0669 4.71459 41.5943 4.82868Z" fill="#E5DACE"/>
  <path fill-rule="evenodd" clip-rule="evenodd" d="M25.1652 25.0505C24.7968 25.9199 24.992 26.6608 25.686 27.2877C26.4907 27.6951 27.232 27.5761 27.9207 27.0234C28.1403 26.6015 28.4312 26.206 28.3106 25.6799C28.081 24.6789 26.866 24.0935 25.9172 24.5272C25.6311 24.658 25.4168 24.8778 25.1652 25.0505Z" fill="#FAB434"/>
  <path fill-rule="evenodd" clip-rule="evenodd" d="M36.5837 47.6032C36.1411 44.617 35.6983 41.6307 35.257 38.6442C35.2412 38.5369 35.2404 38.4274 35.2326 38.3189C35.229 38.1289 35.1339 37.9895 34.9861 37.8779C34.8858 37.8022 34.7362 37.781 34.6914 37.8752C34.4763 38.3283 34.0001 38.2507 33.6447 38.4141C34.5045 38.4464 34.5201 38.4441 34.6525 39.3282C34.9405 41.2496 35.21 43.1736 35.489 45.0963C35.6238 46.0252 35.7631 46.9535 35.9003 47.8821C35.9373 47.9317 35.9796 47.9761 36.0284 48.0145L36.0297 48.0144C36.4185 48.1471 36.6372 48.055 36.5837 47.6032Z" fill="#DED8D1"/>
  <path fill-rule="evenodd" clip-rule="evenodd" d="M42.3956 37.7588C42.647 37.9129 42.6108 38.1698 42.6182 38.4026C42.634 38.9031 42.6308 39.4041 42.6423 39.9048C42.6915 42.0592 42.7447 44.2134 42.7922 46.3678C42.7974 46.6064 42.7757 46.8455 42.7665 47.0844C42.8947 47.6086 43.0964 47.644 43.571 47.2254C43.4448 46.359 43.486 45.4858 43.4635 44.6152C43.4114 42.5892 43.3621 40.5631 43.3153 38.5369C43.3088 38.2539 43.3233 37.9705 43.3282 37.6873C43.2969 37.5862 43.2894 37.468 43.2303 37.3869C43.0112 37.0869 42.8456 37.0829 42.6217 37.3698C42.5301 37.4872 42.47 37.6285 42.3956 37.7588Z" fill="#DED7D1"/>
  <path fill-rule="evenodd" clip-rule="evenodd" d="M20.674 18.1112C21.4262 19.0386 22.4294 19.5789 23.549 19.9398C24.0353 19.5427 24.4832 19.0986 25.0161 18.7581C24.3464 18.6325 23.6742 18.5209 23.0671 18.1809C22.7206 17.9869 22.3253 18.158 21.9613 18.0703C21.5323 18.0839 21.1031 18.0975 20.674 18.1112Z" fill="#A89C90"/>
  <path fill-rule="evenodd" clip-rule="evenodd" d="M41.7257 35.1546C40.4482 34.9792 39.1629 34.9309 37.8623 34.9307C39.0522 35.4639 40.2592 35.9287 41.4867 36.3244C41.6948 36.0214 41.4976 35.6758 41.7003 35.4171C41.7088 35.3297 41.7172 35.2421 41.7257 35.1546Z" fill="#785D46"/>
  <path fill-rule="evenodd" clip-rule="evenodd" d="M49.5295 11.1348C49.5736 11.1893 49.6176 11.2439 49.6616 11.2987C49.654 11.2155 49.6097 11.161 49.5295 11.1348Z" fill="#FDEBEC"/>
  <path fill-rule="evenodd" clip-rule="evenodd" d="M43.5716 47.2255C43.0516 47.4413 42.9882 47.4302 42.7673 47.0845C41.3301 47.1452 39.9057 47.3455 38.4744 47.4596C37.8469 47.5095 37.2241 47.6642 36.5877 47.6034C36.5467 47.9303 36.2886 47.9701 36.0338 48.0145C36.226 49.5048 36.2612 51.0081 36.3884 52.5038C36.4657 53.4124 36.5856 54.3258 36.5641 55.244C36.5605 55.3966 36.5558 55.5524 36.5805 55.702C36.642 56.0748 36.7807 56.1951 37.1713 56.1448C37.5639 56.0943 37.955 56.0504 38.35 56.0166C39.487 55.9193 40.6188 55.7564 41.7565 55.6719C42.3927 55.6246 43.0256 55.5392 43.6622 55.5132C43.9963 55.4996 44.1294 55.3831 44.1258 55.044C44.1138 53.9314 43.9911 52.8278 43.885 51.7225C43.8788 51.6574 43.8629 51.5927 43.8622 51.5276C43.8458 50.0882 43.6941 48.6578 43.5716 47.2255Z" fill="#E9B07D"/>
  <path fill-rule="evenodd" clip-rule="evenodd" d="M36.0314 48.0142C35.9887 47.9701 35.946 47.926 35.9033 47.8818C35.9089 47.9611 35.9538 48.0031 36.0314 48.0142Z" fill="#E9B07D"/>
  <path fill-rule="evenodd" clip-rule="evenodd" d="M36.4205 27.0227C36.3752 26.6972 36.5217 26.3808 36.7015 26.0757C36.7791 25.9443 36.8829 25.8274 36.9554 25.6936C37.1805 25.2784 37.1101 24.8645 36.7863 24.6396C36.4502 24.4062 35.9453 24.4607 35.6429 24.7799C35.2748 25.1683 35.0167 25.622 34.8842 26.1402C34.3149 28.3685 35.843 30.3456 38.0795 30.5467C39.3412 30.6602 40.84 29.802 41.3987 28.6665C41.51 28.4402 41.6274 28.2016 41.5179 27.9166C41.2808 27.2994 40.6362 27.1363 40.1488 27.5872C40.0185 27.7075 39.93 27.856 39.8394 28.0077C39.4052 28.7348 38.5757 29.0516 37.7297 28.8252C36.9423 28.6145 36.4196 27.912 36.4205 27.0227Z" fill="#E53F4D"/>
  <path fill-rule="evenodd" clip-rule="evenodd" d="M24.625 21.9242C24.5351 22.5522 25.29 23.4374 26.0103 23.5878C26.5838 23.7077 26.8097 23.4754 26.6671 22.9216C26.5312 22.3942 26.3714 21.8729 26.2267 21.3477C26.1677 21.1338 26.0888 20.9308 25.9313 20.7693C25.7093 20.5415 25.4802 20.5153 25.2277 20.7159C24.8325 21.0298 24.5437 21.4055 24.625 21.9242Z" fill="#A88466"/>
  <path fill-rule="evenodd" clip-rule="evenodd" d="M38.4017 18.3022C39.0246 18.5915 39.6665 18.4415 40.3956 18.4775C40.0352 18.186 39.5976 18.151 38.4017 18.3022Z" fill="#8A6C53"/>
  <path fill-rule="evenodd" clip-rule="evenodd" d="M38.4746 17.2727C39.1065 17.5628 39.7627 17.7395 40.4634 17.7109C39.8161 17.4921 39.1708 17.2644 38.4746 17.2727Z" fill="#876951"/>
  <path fill-rule="evenodd" clip-rule="evenodd" d="M38.385 19.4821C39.0085 19.4375 39.6178 19.3595 40.2711 19.1871C39.8633 19.0225 38.8501 19.1764 38.385 19.4821Z" fill="#85684F"/>
  <path fill-rule="evenodd" clip-rule="evenodd" d="M50.593 12.7223C50.4133 12.5552 50.2078 12.4628 49.9602 12.4046C47.3289 11.7865 44.5277 12.9472 43.1531 15.2822C41.8857 17.435 41.8183 19.6494 43.164 21.7911C44.9537 24.6395 48.6976 25.3076 51.4672 23.6025C51.9662 23.2953 52.5065 23.0144 52.718 22.4053C52.9049 22.2433 52.9056 22.0208 52.9137 21.8028C53.0246 18.825 52.4907 15.9847 51.0689 13.334C50.945 13.103 50.8398 12.8591 50.593 12.7223Z" fill="#C7A07F"/>
  <path fill-rule="evenodd" clip-rule="evenodd" d="M50.5951 12.722C50.9091 13.3922 51.2514 14.0507 51.5318 14.7343C52.42 16.899 52.8102 19.1557 52.7372 21.4912C52.7277 21.7957 52.7257 22.1005 52.7203 22.4051C52.7915 22.4982 52.8745 22.4831 52.9356 22.406C53.7331 21.4023 54.2778 20.3053 54.4754 19.0134C54.6572 17.8251 54.4522 16.7379 53.9699 15.672C53.3187 14.2327 52.214 13.263 50.762 12.6586C50.6961 12.6312 50.637 12.665 50.5951 12.722Z" fill="#2351DF"/>
  <path fill-rule="evenodd" clip-rule="evenodd" d="M43.7318 53.9943C43.5715 52.0934 43.4332 50.441 43.2911 48.7891C43.28 48.6593 43.2351 48.5327 43.2177 48.4031C43.1846 48.1565 43.0522 48.0843 42.8057 48.1091C41.5344 48.2368 40.2615 48.3492 38.9896 48.4722C38.332 48.5359 37.676 48.6153 37.0183 48.6785C36.4721 48.7311 36.3956 48.7887 36.4351 49.3122C36.5206 50.4436 36.6227 51.574 36.7258 52.7039C36.7894 53.3991 36.8651 54.093 36.9401 54.7871C36.989 55.2395 37.0067 55.2768 37.4661 55.2404C38.5419 55.1554 39.6158 55.0437 40.6899 54.938C41.4131 54.8669 42.1342 54.771 42.8586 54.7164C43.762 54.6484 43.7633 54.6616 43.7318 53.9943Z" fill="#606FDE"/>
  <path fill-rule="evenodd" clip-rule="evenodd" d="M41.8616 47.3663H40.5629C41.1763 47.5428 41.4175 47.5338 41.8574 47.3613L41.8616 47.3663Z" fill="#E1CAB5"/>
  <path fill-rule="evenodd" clip-rule="evenodd" d="M39.0761 47.6246H40.3616C39.7663 47.4472 39.5342 47.4554 39.0797 47.6291L39.0761 47.6246Z" fill="#E1CAB5"/>
  <path fill-rule="evenodd" clip-rule="evenodd" d="M39.0767 47.6291H37.7808C38.39 47.8047 38.6325 47.7958 39.073 47.6245L39.0767 47.6291Z" fill="#E1CAB5"/>
  <path fill-rule="evenodd" clip-rule="evenodd" d="M37.3352 47.8887C37.421 47.88 37.4897 47.8767 37.4917 47.8091C37.4922 47.7934 37.3903 47.7659 37.3338 47.7603C37.2786 47.7549 37.2043 47.7689 37.2066 47.8345C37.2075 47.8576 37.3057 47.8772 37.3352 47.8887Z" fill="#E1CAB6"/>
  <path fill-rule="evenodd" clip-rule="evenodd" d="M41.855 47.3614C41.9965 47.3527 42.1442 47.4059 42.2919 47.311C42.1216 47.1939 41.9837 47.2223 41.8592 47.3663L41.855 47.3614Z" fill="#E1CCB9"/>
  <path fill-rule="evenodd" clip-rule="evenodd" d="M43.8073 17.1797C43.5649 17.3654 43.3018 17.5301 43.084 17.7407C42.4054 18.3971 42.4541 19.1828 43.193 19.7692C43.8571 20.2961 44.6538 20.4673 45.4679 20.5732C45.7503 20.6101 46.0407 20.5854 46.3275 20.5889C46.4326 20.5037 46.5267 20.3938 46.5249 20.2643C46.5082 19.0566 46.7705 17.861 46.6836 16.6509C46.6726 16.4982 46.6302 16.3534 46.5288 16.2314C46.3576 16.1356 46.1968 16.1186 46.062 16.2931C45.8164 16.3441 45.5707 16.3952 45.325 16.4461C45.0783 16.3446 44.8849 16.4151 44.7351 16.6259C44.5829 16.702 44.4308 16.7782 44.2785 16.8543C44.0234 16.8235 43.8822 16.9545 43.8073 17.1797Z" fill="white"/>
  <path fill-rule="evenodd" clip-rule="evenodd" d="M46.5064 16.2625C46.5378 17.1608 46.4472 18.0538 46.3918 18.9487C46.358 19.4944 46.3511 20.0417 46.332 20.5884C47.045 20.6429 47.7321 20.5682 48.358 20.1891C48.6768 19.4991 48.6205 18.7527 48.6788 18.0255C48.7134 17.5943 48.6568 17.1559 48.7938 16.7331C48.8225 16.5613 48.7735 16.4335 48.5892 16.3841C48.3545 16.4797 48.1521 16.4079 47.963 16.266C47.7521 16.071 47.5325 16.0695 47.3054 16.2372C47.0605 16.2465 46.804 16.2851 46.6787 15.9932C46.5276 16.0241 46.5041 16.1352 46.5064 16.2625Z" fill="#1F7CBB"/>
  <path fill-rule="evenodd" clip-rule="evenodd" d="M48.7619 16.6352C48.6499 16.6557 48.5469 16.6951 48.5096 16.8124C48.4903 16.873 48.4858 16.9422 48.4911 17.0062C48.5799 18.0728 48.315 19.1244 48.3556 20.1888C48.9397 20.0565 49.3681 19.6895 49.7309 19.2496C50.228 18.6467 50.2304 17.9722 49.7641 17.3419C49.6484 17.1854 49.5109 17.0451 49.3833 16.8973C49.2206 16.7068 49.0756 16.4749 48.7619 16.6352Z" fill="#2488CD"/>
  <path fill-rule="evenodd" clip-rule="evenodd" d="M48.7609 16.6358C49.0046 16.6378 49.1407 16.8904 49.3823 16.8978C49.5534 16.4051 49.7329 15.9148 49.8929 15.4184C50.0026 15.0781 49.7922 14.7606 49.4461 14.7154C49.2425 14.6889 49.1916 14.8457 49.1354 14.9872C48.9509 15.4523 48.7689 15.9183 48.5859 16.3841C48.6442 16.4681 48.7025 16.552 48.7609 16.6358Z" fill="#0E16E1"/>
  <path fill-rule="evenodd" clip-rule="evenodd" d="M46.5064 16.2627C46.6061 16.1991 46.641 16.095 46.6786 15.9928C46.6566 15.6064 46.6482 15.218 46.6085 14.8328C46.5668 14.4266 46.3866 14.3131 45.9938 14.3941C45.8416 14.4254 45.7516 14.5081 45.7739 14.6561C45.8566 15.2042 45.7891 15.7793 46.0667 16.2929C46.213 16.2829 46.3597 16.2728 46.5064 16.2627Z" fill="#0C14E2"/>
  <path fill-rule="evenodd" clip-rule="evenodd" d="M47.3037 16.2372C47.5229 16.2467 47.7421 16.2562 47.9614 16.2658C48.0909 15.8042 48.2267 15.3439 48.3464 14.8795C48.3883 14.7163 48.4408 14.526 48.2014 14.4438C47.9261 14.3491 47.6205 14.4505 47.5516 14.6922C47.4806 14.9422 47.4322 15.2037 47.4176 15.4626C47.4028 15.7262 47.3555 15.9811 47.3037 16.2372Z" fill="#0F16E0"/>
  <path fill-rule="evenodd" clip-rule="evenodd" d="M44.7361 16.6256C44.9325 16.5659 45.129 16.5062 45.3258 16.4462C45.2365 16.0387 44.987 15.7029 44.8188 15.3308C44.7238 15.1206 44.5792 15.0374 44.3487 15.1428C44.0728 15.269 44.1921 15.4573 44.2689 15.6296C44.4182 15.9644 44.5797 16.2939 44.7361 16.6256Z" fill="#181DDD"/>
  <path fill-rule="evenodd" clip-rule="evenodd" d="M43.8077 17.1794C43.9646 17.0712 44.1214 16.9628 44.2787 16.8543C44.1113 16.5301 43.9436 16.2062 43.7808 15.8916C43.7071 15.9058 43.6462 15.8994 43.6283 15.9237C43.121 16.6196 43.0058 16.4908 43.8077 17.1794Z" fill="#161CDF"/>
  <path fill-rule="evenodd" clip-rule="evenodd" d="M39.1911 52.2382C39.151 52.2368 39.1124 52.2284 39.0755 52.2129C38.9936 52.1448 38.8767 52.1657 38.7926 52.1039C38.4696 52.0422 38.1708 52.0237 38.0608 52.4346C37.9544 52.8324 38.0572 53.0997 38.467 53.2796C39.1501 53.5793 39.8435 53.8576 40.5395 54.1274C40.9039 54.2687 41.0845 54.18 41.1762 53.8069C41.2642 53.4485 41.3056 53.0786 41.3639 52.7132C41.4703 52.047 41.5678 51.3795 41.682 50.7148C41.7379 50.3891 41.6484 50.1648 41.324 50.0409C40.6267 49.7747 39.9348 49.4943 39.2353 49.2337C39.034 49.1588 38.7903 49.0746 38.6592 49.3451C38.5321 49.6072 38.585 49.8621 38.8071 50.0565C38.9033 50.1408 39.032 50.1923 39.1521 50.2454C39.4735 50.3872 39.8027 50.5123 40.1197 50.6631C40.2832 50.7409 40.5935 50.781 40.5034 51.0156C40.395 51.2979 40.1679 51.0338 40.0119 50.9887C39.4266 50.8192 39.3209 50.8604 39.1563 51.4269C39.1202 51.5513 39.1088 51.6829 39.0859 51.8112C39.1124 51.8666 39.1675 51.9061 39.1779 51.9707L39.194 51.9882C39.2506 52.0109 39.2995 52.0444 39.3395 52.0904L39.3394 52.0903C39.4486 52.2283 39.6158 52.2703 39.7701 52.3616C39.585 52.246 39.3821 52.2745 39.1911 52.2382Z" fill="#FEEBCA"/>
  <path fill-rule="evenodd" clip-rule="evenodd" d="M39.191 52.2382C39.5094 52.4184 39.8426 52.5471 40.3163 52.5806C40.0114 52.212 39.6609 52.1796 39.3392 52.0903C39.2898 52.1397 39.2403 52.1889 39.191 52.2382Z" fill="#8F94D8"/>
  <path fill-rule="evenodd" clip-rule="evenodd" d="M38.7938 52.1036C38.8654 52.1975 38.9615 52.2295 39.0767 52.2126C39.0081 52.1108 38.9096 52.0853 38.7938 52.1036Z" fill="#8F94D8"/>
  <path fill-rule="evenodd" clip-rule="evenodd" d="M39.1786 51.9705C39.1479 51.9173 39.1173 51.8642 39.0866 51.811C39.083 51.8835 39.1155 51.9356 39.1786 51.9705Z" fill="#8F94D8"/>
  <path fill-rule="evenodd" clip-rule="evenodd" d="M39.3428 52.09C39.2944 52.0559 39.2458 52.0217 39.1973 51.9878C39.2252 52.0507 39.2726 52.0862 39.3428 52.09Z" fill="#8F94D8"/>
  <path fill-rule="evenodd" clip-rule="evenodd" d="M43.9333 18.7795C43.9169 18.7424 43.9087 18.6855 43.8814 18.6743C43.8553 18.6636 43.8093 18.7005 43.7721 18.7165C43.7886 18.7535 43.7968 18.8104 43.8239 18.8215C43.8502 18.8322 43.896 18.7955 43.9333 18.7795Z" fill="#F5EEE8"/>
  <path fill-rule="evenodd" clip-rule="evenodd" d="M46.9455 18.5527C46.7248 18.9949 46.7464 19.4403 46.8442 19.9274C47.1214 19.5939 47.1543 19.2391 46.9455 18.5527Z" fill="#FAFCFE"/>
  <path fill-rule="evenodd" clip-rule="evenodd" d="M47.0478 17.2432C46.8474 17.6895 46.8475 17.6897 47.0117 18.112C47.229 17.8222 47.1771 17.5844 47.0478 17.2432Z" fill="#F7FBFD"/>
  <path fill-rule="evenodd" clip-rule="evenodd" d="M66.2767 62.4029C64.6676 62.1787 63.0577 61.9614 61.45 61.7285C60 61.5183 58.5539 61.2812 57.1034 61.0741C55.6523 60.8668 54.197 60.6894 52.7454 60.4853C51.2491 60.2749 49.7562 60.0412 48.2601 59.8305C46.8084 59.626 45.3544 59.4379 43.9014 59.2425C43.8105 59.2303 43.7185 59.2223 43.629 59.2035C42.9066 59.0526 42.9409 59.045 42.9693 58.3069C42.9898 57.7756 43.1046 57.2613 43.1419 56.7356C43.1588 56.4973 43.2657 56.3672 43.5494 56.4099C44.2961 56.5222 45.0505 56.5866 45.7936 56.717C46.0652 56.7648 46.1638 56.6117 46.3079 56.4758C47.2486 56.8422 48.2768 56.7457 49.2334 57.0275C49.4433 57.1828 49.6842 57.1907 49.9303 57.1735C50.3622 57.0454 50.7907 57.1379 51.2152 57.2086C51.5235 57.2599 51.8059 57.2554 52.0506 57.0355C52.1061 57.0007 52.1672 56.9851 52.2313 56.9897C52.3643 57.2782 52.5788 56.9017 52.7311 57.0484C53.1946 57.7563 53.9705 57.5018 54.613 57.6365C54.8531 57.6867 54.8589 57.3458 54.9838 57.193C55.2951 57.0738 55.357 57.5502 55.6522 57.4722C56.3685 58.1277 57.1983 58.0513 58.0482 57.8444C58.626 58.0839 58.626 58.0839 59.083 57.8608C59.624 58.4265 60.8373 58.5934 61.333 58.1692C61.5995 58.0518 61.7794 58.3555 62.0323 58.3135C62.2705 58.7106 62.6892 58.7156 63.069 58.7559C63.5491 58.8071 64.0312 58.853 64.5144 58.8765C64.8076 58.9804 65.0909 58.71 65.3862 58.851C65.4673 58.8934 65.5376 58.9531 65.6241 58.9849C66.5388 59.3218 66.5388 59.3218 66.5879 60.2719C66.5042 60.9854 66.551 61.7177 66.2767 62.4029Z" fill="#CDCDCD"/>
  <path fill-rule="evenodd" clip-rule="evenodd" d="M52.2548 57.0336H52.1418C51.8325 56.8404 51.533 56.638 51.1401 56.6376C50.9687 56.6375 50.7598 56.6154 50.7314 56.3647C51.0687 56.3621 51.311 56.2605 51.5289 55.9475C52.6054 54.4011 53.7225 52.8828 54.8205 51.3512C56.7887 48.6061 58.7553 45.8598 60.7188 43.1113C61.9478 41.3909 63.1703 39.666 64.3947 37.9425C64.7141 37.4928 65.0332 37.0429 65.3457 36.5884C65.5743 36.2558 65.8701 36.0821 66.2837 36.1413C67.1006 36.2586 67.9182 36.3712 68.735 36.4898C70.1642 36.697 71.5932 36.9063 73.022 37.1165C74.1559 37.2834 75.2889 37.4562 76.423 37.6205C77.8297 37.8246 79.2378 38.0206 80.6447 38.2242C81.6885 38.3752 82.7312 38.5344 83.7747 38.6872C84.9313 38.8565 86.0875 39.03 87.2462 39.1845C87.4781 39.2155 87.7038 39.2379 87.9045 39.3626C88.2724 39.5913 88.3471 39.8534 88.1153 40.2302C87.585 41.0917 87.0464 41.9484 86.4978 42.7983C84.9641 45.1748 83.4204 47.545 81.8865 49.9214C79.7913 53.1673 77.6998 56.4155 75.6124 59.6663C75.4529 59.9148 75.272 60.1628 75.252 60.4775C74.6265 60.75 74.0313 60.6071 73.445 60.3469C73.4274 60.3008 73.4161 60.2303 73.4397 60.2225C74.2651 59.9496 74.5714 59.1982 74.9883 58.5502C78.7529 52.6995 82.5018 46.8389 86.2468 40.9756C86.7105 40.2496 86.5902 39.9492 85.7286 39.8012C83.5034 39.419 81.2612 39.1467 79.0251 38.8384C76.1044 38.4355 73.1827 38.0381 70.2605 37.6462C69.1417 37.4961 68.0196 37.3669 66.9078 37.1729C66.2124 37.0515 65.788 37.3615 65.4199 37.9142C63.3639 41.0017 61.2125 44.0239 59.1171 47.0846C57.0089 50.1641 54.8769 53.2274 52.7568 56.2987C52.5884 56.5428 52.5058 56.8467 52.2548 57.0336Z" fill="#CDCDCD"/>
  <path fill-rule="evenodd" clip-rule="evenodd" d="M73.4273 60.2287C74.0202 60.424 74.6452 60.3833 75.252 60.4775C75.5061 60.6654 75.5079 60.9421 75.5214 61.2197C75.5474 61.7512 75.4668 62.2722 75.3806 62.7926C75.2751 63.4295 75.0414 63.6182 74.3885 63.5338C73.2508 63.3868 72.1168 63.2128 70.9808 63.054C69.4129 62.8351 67.8446 62.6197 66.2766 62.4028C66.1227 61.6641 66.4034 60.9505 66.4034 60.2207C66.5429 59.1187 66.5429 59.1187 67.6718 59.3608C67.7477 59.3734 67.822 59.3925 67.8957 59.4141C68.9292 59.5074 69.9644 59.5814 70.9918 59.7312C71.8075 59.8788 72.6711 59.7921 73.4273 60.2287Z" fill="#616161"/>
  <path fill-rule="evenodd" clip-rule="evenodd" d="M49.2334 57.0272C48.9855 57.3048 48.7237 57.0461 48.4735 57.0338C47.9574 57.0086 47.4405 56.9534 46.9309 56.8687C46.6881 56.8283 46.3585 56.8511 46.3079 56.4755C46.3187 56.4379 46.3289 56.4001 46.3388 56.3621C46.3561 56.2936 46.4086 56.2526 46.4587 56.2098C47.2161 55.9429 47.9784 56.0497 48.7292 56.2171C49.1275 56.3058 49.1747 56.6877 49.2334 57.0272Z" fill="#919090"/>
  <path fill-rule="evenodd" clip-rule="evenodd" d="M50.7315 56.3647C50.9288 56.5393 51.1701 56.4768 51.3942 56.4755C51.7918 56.4733 52.0637 56.6183 52.1416 57.0336C52.1518 57.2999 52.0793 57.5034 51.7575 57.4491C51.1499 57.3465 50.5223 57.3762 49.9302 57.1733C49.9867 56.4526 50.029 56.4099 50.7315 56.3647Z" fill="#908F8F"/>
  <path fill-rule="evenodd" clip-rule="evenodd" d="M46.4587 56.2104C46.4187 56.2612 46.3787 56.3119 46.3387 56.3628C46.3394 56.281 46.3818 56.2322 46.4587 56.2104Z" fill="#CDCDCD"/>
  <path fill-rule="evenodd" clip-rule="evenodd" d="M73.4273 60.2287C72.6079 60.128 71.7884 60.0274 70.969 59.9268C70.5423 59.5308 70.0938 59.2055 69.4581 59.248C69.2252 59.2635 69.0036 59.2366 68.8098 59.4019C68.4935 59.6718 68.1377 59.6376 67.7746 59.5189L67.774 59.5183C67.1454 58.5497 66.214 58.6773 65.2759 58.8293C65.0763 59.0172 64.8947 59.2904 64.5891 58.9734C64.1602 58.2059 63.2688 57.8601 62.3921 58.1241C62.2394 58.1702 62.1061 58.2782 61.9352 58.2665C61.7888 58.3457 61.8611 58.5777 61.6672 58.6385C61.4515 58.5445 61.6157 58.2364 61.4026 58.1404C60.637 57.8973 59.8728 57.6424 59.0524 57.8653C58.8212 57.9301 59.0311 58.2986 58.7432 58.3192C58.4032 58.3436 58.217 58.1397 58.0885 57.8587C58.0349 57.8408 57.9859 57.8144 57.9397 57.7823C57.8659 57.7373 57.7892 57.6985 57.7078 57.6672C57.0166 57.4501 56.3183 57.3137 55.5917 57.45C55.426 57.5102 55.4883 57.7497 55.2878 57.8134C55.0672 57.6582 55.2942 57.3098 55.0404 57.1681C54.2512 57.1172 53.4757 56.8356 52.672 57.0267C52.4796 57.1245 52.6008 57.369 52.4561 57.4927C52.227 57.4083 52.2976 57.196 52.2549 57.0336C52.2442 56.7665 52.3561 56.5431 52.503 56.3311C53.8625 54.3664 55.2238 52.403 56.5804 50.4363C58.4719 47.6945 60.3563 44.9478 62.2503 42.2077C63.3734 40.5827 64.5191 38.973 65.6296 37.3395C65.8305 37.0437 66.0525 36.9619 66.3745 36.9697C67.2955 36.9922 68.1913 37.2098 69.1024 37.3096C69.9441 37.4018 70.7791 37.5518 71.6189 37.663C72.8672 37.8285 74.116 37.9862 75.3608 38.1801C76.56 38.3671 77.7701 38.4822 78.974 38.6408C80.0639 38.7846 81.1518 38.9441 82.2406 39.0978C83.1019 39.2194 83.9615 39.3568 84.8251 39.4594C85.2828 39.5137 85.7316 39.5987 86.1746 39.7163C86.7208 39.861 86.897 40.2615 86.6132 40.7464C86.3231 41.2419 86.0078 41.7229 85.697 42.2061C84.3668 44.2742 83.0328 46.3397 81.703 48.4081C79.429 51.9453 77.1567 55.4836 74.8854 59.0226C74.7738 59.1966 74.6673 59.376 74.5792 59.5626C74.3472 60.0536 73.9812 60.3 73.4273 60.2287Z" fill="#EDF6FC"/>
  <path fill-rule="evenodd" clip-rule="evenodd" d="M61.9353 58.2665C62.0802 57.9624 62.3243 57.8625 62.6552 57.8556C63.1394 57.8457 63.6066 57.9541 64.0786 58.018C64.5004 58.0751 64.5842 58.2757 64.5892 58.9733C64.0054 59.1739 63.4367 58.9039 62.8582 58.9149C62.7259 58.9175 62.5893 58.8324 62.4604 58.8454C62.0081 58.8911 61.9175 58.6335 61.9353 58.2665Z" fill="#909090"/>
  <path fill-rule="evenodd" clip-rule="evenodd" d="M52.672 57.0266C52.763 56.9601 52.848 56.8474 52.9463 56.8343C53.6749 56.7375 54.3916 56.7502 55.0404 57.168C55.0404 57.282 55.0378 57.3962 55.0411 57.5101C55.0487 57.774 54.915 57.8949 54.6612 57.8585C54.077 57.7743 53.493 57.686 52.9116 57.5835C52.5718 57.5234 52.7139 57.2293 52.672 57.0266Z" fill="#909090"/>
  <path fill-rule="evenodd" clip-rule="evenodd" d="M59.0525 57.8656C59.1273 57.7837 59.1965 57.6374 59.2779 57.6303C60.0398 57.5631 60.7986 57.5414 61.4026 58.1408C61.3384 58.7317 61.3182 58.7458 60.7574 58.643C60.3597 58.5702 59.9617 58.4526 59.5626 58.4467C59.1239 58.4401 59.0074 58.2479 59.0525 57.8656Z" fill="#919090"/>
  <path fill-rule="evenodd" clip-rule="evenodd" d="M58.0613 57.7458C58.0684 57.7839 58.0775 57.8216 58.0884 57.8588C58.0703 58.1096 58.0378 58.3188 57.6829 58.224C57.1492 58.0814 56.5904 58.1087 56.0447 58.0299C55.6275 57.9696 55.5476 57.7961 55.5917 57.4501C55.7475 57.2525 55.9598 57.1545 56.2002 57.1983C56.7841 57.3045 57.4011 57.2717 57.937 57.5906C57.9863 57.6361 58.039 57.6788 58.0613 57.7458Z" fill="#919090"/>
  <path fill-rule="evenodd" clip-rule="evenodd" d="M65.276 58.8293C65.4 58.6076 65.5978 58.5214 65.8421 58.5228C66.0007 58.5237 66.161 58.5439 66.318 58.5282C67.0833 58.4517 67.5863 58.7512 67.7742 59.5183C67.5234 59.5503 67.2926 59.4599 67.0528 59.4131C66.7058 59.3452 66.5035 59.403 66.5251 59.7856C66.5337 59.9393 66.5341 60.1011 66.4036 60.2207C66.3964 60.1293 66.3851 60.0381 66.383 59.9467C66.3684 59.3157 66.3702 59.2982 65.7417 59.2578C65.44 59.2384 65.2501 59.1701 65.276 58.8293Z" fill="#908F8F"/>
  <path fill-rule="evenodd" clip-rule="evenodd" d="M67.7745 59.5187C68.1182 59.5007 68.4439 59.611 68.7313 59.206C69.04 58.7711 70.5082 59.0836 70.7708 59.5703C70.8353 59.6898 70.9028 59.8079 70.9689 59.9265C70.0259 59.8255 69.0905 59.643 68.1357 59.667C67.9973 59.6704 67.8627 59.6464 67.7745 59.5187Z" fill="#908E8E"/>
  <path fill-rule="evenodd" clip-rule="evenodd" d="M67.2375 43.0744C67.9568 43.2181 68.6875 43.2759 69.4141 43.3658C70.3443 43.481 71.2793 43.5828 72.1972 43.7654C73.2115 43.9672 74.2462 43.9746 75.2593 44.1627C75.7736 44.2581 75.9217 44.3901 75.8687 44.7143C75.7979 45.1482 75.4706 45.4672 75.0626 45.3912C74.1159 45.2148 73.1538 45.1848 72.2022 45.0482C71.2987 44.9185 70.3853 44.8232 69.4751 44.7222C68.6794 44.6337 67.8825 44.5512 67.0899 44.4394C66.5338 44.3608 66.2119 44.044 66.2604 43.6868C66.3055 43.3547 66.767 43.0653 67.2375 43.0744Z" fill="#DADADB"/>
  <path fill-rule="evenodd" clip-rule="evenodd" d="M72.8677 48.0418C72.2658 48.0795 71.6831 47.9145 71.0885 47.8657C70.0406 47.7797 68.9994 47.6133 67.9544 47.4891C67.0904 47.3865 66.2237 47.3064 65.3612 47.1933C65.1393 47.1642 64.9157 47.0731 64.7165 46.9665C64.4933 46.8469 64.4312 46.6229 64.452 46.3722C64.4725 46.126 64.6224 46.0293 64.8376 45.9489C65.1271 45.8408 65.4205 45.7957 65.7187 45.8346C66.5581 45.9442 67.3946 46.0755 68.2333 46.1899C69.4124 46.3509 70.5946 46.4909 71.7714 46.6671C72.3186 46.7489 72.863 46.7969 73.4156 46.8101C73.8433 46.8204 73.9873 46.9832 74.0004 47.3315C74.0164 47.7554 73.8279 47.9944 73.4207 48.038C73.2383 48.0575 73.0521 48.0413 72.8677 48.0418Z" fill="#DADADB"/>
  <path fill-rule="evenodd" clip-rule="evenodd" d="M69.4337 52.5889C69.4397 53.062 69.1167 53.334 68.6171 53.2753C67.0947 53.0967 65.5681 52.9463 64.0513 52.7295C62.9402 52.5708 61.8257 52.4527 60.7115 52.3264C60.6887 52.3238 60.6654 52.323 60.6428 52.3188C60.2079 52.2368 59.8835 51.9401 59.8889 51.6296C59.8948 51.3023 60.2778 50.9562 60.7298 50.9615C61.1852 50.9668 61.6406 51.0496 62.0942 51.1116C63.0005 51.2355 63.9053 51.3709 64.8113 51.497C65.5595 51.6011 66.3208 51.6462 67.0539 51.8144C67.6877 51.9597 68.3391 51.8442 68.9638 52.0435C69.3496 52.1666 69.4287 52.2098 69.4337 52.5889Z" fill="#DADADB"/>
  <path fill-rule="evenodd" clip-rule="evenodd" d="M63.3589 48.3304C63.6276 48.387 63.9904 48.4318 64.3543 48.4762C66.0576 48.684 67.7634 48.8868 69.4532 49.1786C70.0891 49.2884 70.7355 49.2149 71.363 49.4066C71.8571 49.5575 71.9668 49.6274 71.9222 50.0761C71.8876 50.4261 71.5791 50.7171 71.2013 50.6479C70.2087 50.4662 69.1982 50.4623 68.2029 50.2961C67.256 50.1378 66.2915 50.0856 65.3361 49.9748C64.5858 49.8879 63.8369 49.7883 63.0893 49.6806C62.9577 49.6617 62.8259 49.5913 62.7114 49.5179C62.2674 49.2336 62.2563 48.8092 62.6873 48.5205C62.8587 48.4058 63.0466 48.31 63.3589 48.3304Z" fill="#DADADB"/>
  <path fill-rule="evenodd" clip-rule="evenodd" d="M74.9267 48.0068C74.9439 47.5024 75.1561 47.3316 75.6279 47.4316C75.9858 47.5074 76.3435 47.5838 76.6993 47.6683C76.9585 47.7298 77.1828 47.8369 77.1727 48.1602C77.1632 48.4677 76.9343 48.7134 76.5883 48.7059C76.1782 48.6971 75.7672 48.6408 75.3605 48.5794C75.038 48.5305 74.8927 48.3182 74.9267 48.0068Z" fill="#225DF4"/>
  <path fill-rule="evenodd" clip-rule="evenodd" d="M78.0313 45.9882C77.8139 45.9568 77.5131 45.9363 77.2242 45.8661C76.7972 45.7624 76.6739 45.5291 76.773 45.0973C76.8525 44.7514 77.0287 44.6466 77.4533 44.7246C77.8151 44.7912 78.172 44.8838 78.5326 44.9581C78.809 45.0152 79.0096 45.1358 78.9919 45.457C78.9746 45.7691 78.7525 45.9638 78.3886 45.9873C78.2969 45.9933 78.2046 45.9882 78.0313 45.9882Z" fill="#1F5AF4"/>
  <path fill-rule="evenodd" clip-rule="evenodd" d="M71.7661 53.8594C71.4184 53.8569 71.0751 53.8075 70.7438 53.7122C70.4121 53.6169 70.3176 53.3971 70.3924 53.0033C70.4565 52.6656 70.6156 52.5351 70.9788 52.592C71.3869 52.6559 71.7883 52.7615 72.1931 52.8473C72.4779 52.9078 72.6596 53.0594 72.6094 53.3721C72.5653 53.6467 72.4077 53.8332 72.1106 53.8579C71.9966 53.8674 71.881 53.8594 71.7661 53.8594Z" fill="#205CF4"/>
  <path fill-rule="evenodd" clip-rule="evenodd" d="M74.1398 51.242C73.9169 51.2103 73.6159 51.19 73.3264 51.121C72.8954 51.0185 72.7742 50.7907 72.8736 50.3543C72.9526 50.0073 73.1331 49.9022 73.5518 49.9827C73.9132 50.0522 74.2711 50.1393 74.631 50.2171C74.9002 50.2755 75.1168 50.3842 75.0969 50.7111C75.0778 51.0236 74.8543 51.2181 74.4918 51.2411C74.4001 51.247 74.3076 51.242 74.1398 51.242Z" fill="#215CF4"/>
  <path fill-rule="evenodd" clip-rule="evenodd" d="M58.0615 57.7456C58.0201 57.6938 57.9787 57.6421 57.9371 57.5903C58.0135 57.6142 58.0569 57.6645 58.0615 57.7456Z" fill="#CDCDCD"/>
</svg>